<svg width="1318" height="725" viewBox="0 0 1318 725" fill="none" xmlns="http://www.w3.org/2000/svg">
<path d="M1289.42 77.3708C1223.15 77.3708 1162.71 102.341 1116.98 143.393C1100.2 114.84 1069.19 95.6732 1033.7 95.6732C1019.96 95.6732 1006.9 98.5526 995.068 103.725C958.047 59.3396 902.354 31.0875 840.057 31.0875C744.758 31.0875 664.895 97.1898 643.733 186.071C631.725 182.078 618.889 179.917 605.541 179.917C587.975 179.917 571.287 183.668 556.218 190.401C528.291 80.9317 429.097 0 311.004 0C197.752 0 101.882 74.4401 69.576 177.088C55.2245 169.784 38.9838 165.666 21.7765 165.666C14.6374 165.666 7.67394 166.377 0.9375 167.725V724.047H1317.71V78.9095C1308.42 77.8984 1298.98 77.3708 1289.42 77.3708Z" fill="url(#paint0_linear)"/>
<path d="M667.574 632.682H1318V536.665H1235.57V489.473L1212.33 470.013H1164.3V383.506H1102.68V446.128H1007.88L989.503 466.108V520.502H778.367V566.785H730.714V533.771H692.426V566.785H676.888V508.347L657.96 489.414H614.1V459.243H357.713V546.908H160.466V464.848H88.4598V483.868H63.4617V546.908H0V632.682H667.574Z" fill="#C7E0F4"/>
<path d="M1318 590.964H0V725H1318V590.964Z" fill="url(#paint1_radial)"/>
<path d="M852.102 412.645H842.905V497.599H852.102V412.645Z" fill="#797673"/>
<path d="M792.521 634.492L834.484 434.405L828.033 433.05L785.784 634.492H792.521Z" fill="#A5B9D1"/>
<path d="M900.97 634.492L859.007 434.405L865.458 433.05L907.707 634.492H900.97Z" fill="#A5B9D1"/>
<path d="M875.342 634.492L844.274 434.405L850.725 433.05L882.079 634.492H875.342Z" fill="#A5B9D1"/>
<path d="M867.764 439.841H826.078L829.007 425.642H864.835L867.764 439.841Z" fill="#797673"/>
<path d="M1047.57 273.906L1036.44 277.633L1089.01 434.845L1100.14 431.119L1047.57 273.906Z" fill="#9078E4"/>
<path d="M1059.35 543.442C1059.48 537.867 1058.85 523.521 1050.15 510.677C1040.36 496.228 1024.15 488.631 1001.97 488.103L1001.69 499.372C1020.03 499.811 1033.19 505.739 1040.82 517C1047.7 527.147 1048.19 538.68 1048.08 543.171L1059.35 543.442Z" fill="#797673"/>
<path d="M1025.38 548.146C1024.28 548.146 1023.2 548.703 1022.58 549.707L1012 566.859C1011.05 568.405 1011.53 570.427 1013.07 571.379C1014.62 572.332 1016.64 571.848 1017.59 570.31L1028.16 553.158C1029.12 551.612 1028.64 549.589 1027.1 548.637C1026.55 548.3 1025.96 548.146 1025.38 548.146Z" fill="#A08BE8"/>
<path d="M1047.13 557.986C1052.23 563.825 1052.37 577.439 1051.64 579.629C1050.91 581.82 1053.95 585.571 1059.66 578.897C1064.04 573.79 1068.86 562.814 1057.59 553.956C1053.46 550.703 1047.13 557.986 1047.13 557.986Z" fill="#A08BE8"/>
<path d="M1061.63 556.374H1047.11C1044.01 556.374 1041.49 553.854 1041.49 550.747V534.614C1041.49 531.507 1044.01 528.987 1047.11 528.987H1061.63C1064.73 528.987 1067.25 531.507 1067.25 534.614V550.747C1067.25 553.854 1064.73 556.374 1061.63 556.374Z" fill="#8065E0"/>
<path d="M385.515 250.928H293.336V597.316H385.515V250.928Z" fill="#A7CBF6"/>
<path d="M314.138 216.624H312.271V274.791H314.138V216.624Z" fill="#72ACF1"/>
<path d="M161.213 211.891L159.72 210.432L201.229 178.729L202.35 180.188L161.213 211.891Z" fill="#A5B9D1"/>
<path d="M197.869 238.846H194.127V405.721H197.869V238.846Z" fill="#A5B9D1"/>
<path d="M223.672 237.754H219.931V405.721H223.672V237.754Z" fill="#A5B9D1"/>
<path d="M222.925 332.123H197.868V335.405H222.925V332.123Z" fill="#A5B9D1"/>
<path d="M220.677 355.444H197.868V359.086H220.677V355.444Z" fill="#A5B9D1"/>
<path d="M194.5 358.719H198.242L209.086 348.154L219.93 358.719H222.918V356.17L211.7 345.238L222.918 334.673V332.123H219.93L209.086 342.688L197.861 332.123H194.5V333.947L206.465 345.238L194.5 356.895V358.719Z" fill="#A5B9D1"/>
<path d="M220.677 308.443H197.868V311.725H220.677V308.443Z" fill="#A5B9D1"/>
<path d="M194.5 335.039H198.242L209.086 324.474L219.93 335.039H222.918V332.848L211.7 321.924L222.918 310.993V308.443H219.93L209.086 319.008L197.861 308.443H194.5V310.26L206.465 321.924L194.5 333.215V335.039Z" fill="#A5B9D1"/>
<path d="M194.5 311.718H198.242L209.086 301.153L219.93 311.718H222.918V309.535L211.7 298.603L222.918 287.672V285.122H219.93L209.086 295.687L197.861 285.122H194.5V286.946L206.465 298.603L194.5 309.894V311.718Z" fill="#A5B9D1"/>
<path d="M220.677 284.755H197.868V288.038H220.677V284.755Z" fill="#A5B9D1"/>
<path d="M194.5 288.038H198.242L209.086 277.473L219.93 288.038H222.918V285.488L211.7 274.923L222.918 263.991V261.442H219.93L209.086 272.007L197.861 261.442H194.5V263.259L206.465 274.923L194.5 286.214V288.038Z" fill="#A5B9D1"/>
<path d="M220.677 261.075H197.868V264.358H220.677V261.075Z" fill="#A5B9D1"/>
<path d="M223.672 235.204H194.127V238.846H223.672V235.204Z" fill="#A5B9D1"/>
<path d="M194.5 264.35H198.242L209.086 253.785L219.93 264.35H222.918V262.167L211.7 251.235L222.918 240.311V237.754H219.93L209.086 248.327L197.861 237.754H194.5V239.579L206.465 251.235L194.5 262.533V264.35Z" fill="#A5B9D1"/>
<path d="M220.677 379.125H197.868V382.407H220.677V379.125Z" fill="#A5B9D1"/>
<path d="M194.5 382.407H198.242L209.086 371.475L219.93 382.407H222.918V379.857L211.7 368.926L222.918 357.994V355.444H219.93L209.086 366.376L197.861 355.444H194.5V357.261L206.465 368.926L194.5 380.583V382.407Z" fill="#A5B9D1"/>
<path d="M194.5 405.354H198.242L209.086 394.789L219.93 405.354H222.918V403.171L211.7 392.239L222.918 381.308V378.758H219.93L209.086 389.323L197.861 378.758H194.5V380.582L206.465 392.239L194.5 403.537V405.354Z" fill="#A5B9D1"/>
<path d="M160.466 206.059H144.387V233.021H160.466V206.059Z" fill="#72ACF1"/>
<path d="M313.054 198.043L201.603 180.188L201.976 178.371L313.054 196.219V198.043Z" fill="#A5B9D1"/>
<path d="M202.73 179.462H199.735V211.891H202.73V179.462Z" fill="#A5B9D1"/>
<path d="M200.855 179.462L203.47 178.729L215.068 211.158H211.7L200.855 179.462Z" fill="#A5B9D1"/>
<path d="M209.46 202.051H201.977V204.601H209.46V202.051Z" fill="#A5B9D1"/>
<path d="M206.839 194.035H201.977V196.219H206.839V194.035Z" fill="#A5B9D1"/>
<path d="M206.839 194.035H201.977V196.219H206.839V194.035Z" fill="#A5B9D1"/>
<path d="M211.7 211.883H211.327L201.976 205.326C201.603 204.959 201.603 204.593 201.976 204.234C202.35 203.868 202.723 203.501 203.097 203.868L212.074 210.425C212.447 210.792 212.821 211.151 212.447 211.517C212.447 211.883 212.074 211.883 211.7 211.883Z" fill="#A5B9D1"/>
<path d="M202.731 203.142C202.357 203.142 202.357 203.142 201.976 202.776C201.603 202.776 201.603 202.043 201.976 201.684L206.091 195.852C206.465 195.486 206.838 195.486 207.212 195.486C207.585 195.852 207.585 196.211 207.585 196.578L203.47 202.769C203.097 202.776 202.731 203.142 202.731 203.142Z" fill="#A5B9D1"/>
<path d="M202.731 211.883C202.357 211.883 201.976 211.883 201.976 211.517C201.603 211.517 201.603 210.792 201.976 210.425L209.079 203.868C209.452 203.501 209.826 203.501 210.199 203.868C210.573 204.234 210.573 204.959 210.199 205.326L203.097 211.517C203.097 211.883 202.731 211.883 202.731 211.883Z" fill="#A5B9D1"/>
<path d="M225.912 212.616H190.385V233.021H225.912L230.027 219.906L225.912 212.616Z" fill="#72ACF1"/>
<path d="M214.321 216.624H210.206V228.647H214.321V216.624Z" fill="#A5B9D1"/>
<path d="M214.321 216.624H210.206V228.647H214.321V216.624Z" fill="#C7E0F4"/>
<path d="M224.419 216.624H217.683V228.647H224.046L226.286 220.265L224.419 216.624Z" fill="#A5B9D1"/>
<path d="M224.419 216.624H217.683V228.647H224.046L226.286 220.265L224.419 216.624Z" fill="#C7E0F4"/>
<path d="M244.613 196.219H348.208L350.449 198.043H244.613V196.219Z" fill="#A5B9D1"/>
<path d="M230.028 211.158H227.033L243.867 196.219H246.854L230.028 211.158Z" fill="#A5B9D1"/>
<path d="M230.028 211.158H227.033L243.867 196.219H246.854L230.028 211.158Z" fill="#A5B9D1"/>
<path d="M365.415 211.158H144.387V216.257H365.415V211.158Z" fill="#A5B9D1"/>
<path d="M362.421 211.158H365.408L348.208 196.219H345.587L362.421 211.158Z" fill="#A5B9D1"/>
<path d="M263.687 211.158H260.692L277.892 196.219H280.514L263.687 211.158Z" fill="#A5B9D1"/>
<path d="M261.066 211.158H263.687L246.854 196.219H243.866L261.066 211.158Z" fill="#A5B9D1"/>
<path d="M263.307 198.043H261.439V211.158H263.307V198.043Z" fill="#A5B9D1"/>
<path d="M246.114 198.043H244.613V211.158H246.114V198.043Z" fill="#A5B9D1"/>
<path d="M263.687 211.158H260.692L277.892 196.219H280.514L263.687 211.158Z" fill="#A5B9D1"/>
<path d="M294.726 211.158H297.721L280.514 196.219H277.893L294.726 211.158Z" fill="#A5B9D1"/>
<path d="M296.967 198.043H295.474V211.158H296.967V198.043Z" fill="#A5B9D1"/>
<path d="M280.141 198.043H278.273V211.158H280.141V198.043Z" fill="#A5B9D1"/>
<path d="M297.721 211.158H294.727L311.553 196.219H314.548L297.721 211.158Z" fill="#A5B9D1"/>
<path d="M331.374 211.158H328.76L345.586 196.219H348.208L331.374 211.158Z" fill="#A5B9D1"/>
<path d="M328.76 211.158H331.374L314.548 196.219H311.553L328.76 211.158Z" fill="#A5B9D1"/>
<path d="M331.001 198.043H329.134V211.158H331.001V198.043Z" fill="#A5B9D1"/>
<path d="M313.801 198.043H312.3V211.158H313.801V198.043Z" fill="#A5B9D1"/>
<path d="M347.835 198.043H345.968V211.158H347.835V198.043Z" fill="#A5B9D1"/>
<path d="M347.835 198.043H345.968V211.158H347.835V198.043Z" fill="#A5B9D1"/>
<path d="M203.85 179.462C203.85 180.554 202.73 181.287 201.603 181.287C200.482 181.287 199.735 180.561 199.735 179.462C199.735 178.371 200.482 177.638 201.603 177.638C202.73 177.638 203.85 178.371 203.85 179.462Z" fill="#A5B9D1"/>
<path d="M318.063 209.333C317.316 209.333 316.562 210.059 316.562 210.792V211.158H309.46V210.792C309.46 210.066 308.713 209.333 307.592 209.333C306.845 209.333 306.099 210.059 306.099 210.792V211.158V214.433V220.99H319.564V214.433V211.158V210.792C319.557 210.066 318.81 209.333 318.063 209.333Z" fill="#72ACF1"/>
<path d="M348.142 341.26H236.347V597.316H348.142V341.26Z" fill="#72ACF1"/>
<path d="M253.884 382.055L288.466 381.711V420.58V597.316H154.514V429.789L253.884 382.055Z" fill="#3E8EED"/>
<path d="M121.08 597.118H255.033V381.711L121.08 402.915V597.118Z" fill="#72ACF1"/>
<path d="M150.618 443.967H140.623V457.433H150.618V443.967Z" fill="#A7CBF6"/>
<path d="M177.688 443.967H167.693V457.433H177.688V443.967Z" fill="#A7CBF6"/>
<path d="M204.759 443.967H194.347V457.433H204.759V443.967Z" fill="#A7CBF6"/>
<path d="M231.419 443.967H221.424V457.433H231.419V443.967Z" fill="#A7CBF6"/>
<path d="M150.618 463.866H140.623V477.333H150.618V463.866Z" fill="#A7CBF6"/>
<path d="M177.688 463.866H167.693V477.333H177.688V463.866Z" fill="#A7CBF6"/>
<path d="M204.759 463.866H194.347V477.333H204.759V463.866Z" fill="#A7CBF6"/>
<path d="M231.419 463.866H221.424V477.333H231.419V463.866Z" fill="#A7CBF6"/>
<path d="M255.033 381.711V420.58H204.993V429.789H121.08V402.915L255.033 381.711Z" fill="#C7E0F4"/>
<path d="M473.601 619.853L384.798 530.987C365.474 511.651 334.142 511.651 314.819 530.987L226.008 619.853H473.601Z" fill="url(#paint2_radial)"/>
<path d="M325.187 626.125V486.542H314.907V576.706H170.022V486.542H159.734V626.125H144.533V632.683H185.486V626.125H170.022V585.754H314.907V626.125H299.801V632.683H340.754V626.125H325.187Z" fill="#737373"/>
<path d="M329.236 552.997H154.154C150.376 552.997 147.315 549.934 147.315 546.153V501.416C147.315 497.635 150.376 494.573 154.154 494.573H329.236C333.014 494.573 336.075 497.635 336.075 501.416V546.153C336.075 549.934 333.014 552.997 329.236 552.997Z" fill="#FAE969"/>
<path d="M192.728 494.573H167.049L147.323 531.756V548.044C147.323 550.777 149.535 552.989 152.266 552.989H161.733L192.728 494.573Z" fill="#F7B548"/>
<path d="M267.584 494.573L236.589 552.997H262.268L293.263 494.573H267.584Z" fill="#F7B548"/>
<path d="M330.913 494.573H317.85L286.855 552.997H312.534L336.075 508.618V499.731C336.075 496.888 333.769 494.573 330.913 494.573Z" fill="#F7B548"/>
<path d="M186.321 552.997H212L242.995 494.573H217.316L186.321 552.997Z" fill="#F7B548"/>
<path d="M864.864 461.397C866.102 466.833 870.231 480.593 881.808 490.909C894.841 502.515 912.415 505.907 934.059 500.976L931.555 489.986C913.674 494.06 899.454 491.539 889.299 482.491C880.153 474.343 876.843 463.28 875.848 458.898L864.864 461.397Z" fill="#797673"/>
<path d="M873.153 444.296C866.775 439.886 863.304 426.727 863.473 424.426C863.641 422.126 859.782 419.231 855.872 427.1C852.885 433.13 850.9 444.941 863.993 450.766C868.803 452.905 873.153 444.296 873.153 444.296Z" fill="#A08BE8"/>
<path d="M1011.85 233.666C1011 234.435 1010.63 235.629 1011.02 236.655L1015.77 249.008C1015.83 249.184 1015.92 249.345 1016.02 249.492L1026.28 264.094C1027.07 265.208 1028.69 265.369 1029.91 264.46C1031.12 263.566 1031.5 261.911 1030.71 260.797L1020.61 246.422L1015.96 234.325C1015.46 233.043 1013.96 232.523 1012.59 233.16C1012.32 233.3 1012.07 233.468 1011.85 233.666Z" fill="#512BD4"/>
<path d="M1021.6 230.083C1020.83 230.772 1020.45 231.819 1020.68 232.794L1024.37 247.799C1024.41 247.96 1024.47 248.122 1024.54 248.268L1031.51 262.306C1032.12 263.53 1033.68 263.918 1035 263.163C1036.32 262.409 1036.9 260.812 1036.29 259.588L1029.43 245.777L1025.8 231.021C1025.47 229.673 1024.06 228.969 1022.64 229.46C1022.25 229.599 1021.9 229.812 1021.6 230.083Z" fill="#512BD4"/>
<path d="M871.696 441.417C870.532 441.417 869.404 440.801 868.804 439.702L855.141 414.755C854.269 413.157 854.848 411.15 856.444 410.278C858.04 409.406 860.039 409.985 860.918 411.582L874.581 436.53C875.453 438.127 874.874 440.135 873.278 441.006C872.773 441.285 872.231 441.417 871.696 441.417Z" fill="#A5B9D1"/>
<path d="M868.921 455.521C869.99 455.25 870.898 454.451 871.25 453.323L877.298 434.097C877.84 432.368 876.88 430.522 875.152 429.98C873.424 429.437 871.579 430.397 871.037 432.126L864.989 451.352C864.447 453.081 865.407 454.927 867.135 455.469C867.735 455.653 868.35 455.66 868.921 455.521Z" fill="#A08BE8"/>
<path d="M859.489 449.418L873.563 445.857C876.572 445.095 879.625 446.919 880.387 449.93L884.341 465.573C885.103 468.584 883.279 471.64 880.27 472.402L866.196 475.962C863.187 476.724 860.134 474.9 859.372 471.889L855.418 456.246C854.657 453.235 856.48 450.18 859.489 449.418Z" fill="#8065E0"/>
<path d="M313.135 277.568C314.817 277.568 316.181 276.203 316.181 274.52C316.181 272.837 314.817 271.472 313.135 271.472C311.453 271.472 310.089 272.837 310.089 274.52C310.089 276.203 311.453 277.568 313.135 277.568Z" fill="#72ACF1"/>
<path d="M346.466 293.672L313.143 275.362L281.518 293.394L280.793 292.119L313.128 273.685L313.487 273.875L347.169 292.39L346.466 293.672Z" fill="#72ACF1"/>
<path d="M897.287 616.908L900.97 634.492H907.707L904.016 616.908H897.287Z" fill="#797673"/>
<path d="M872.611 616.908L875.342 634.492H882.079L879.34 616.908H872.611Z" fill="#797673"/>
<path d="M789.475 616.908L785.784 634.492H792.521L796.204 616.908H789.475Z" fill="#797673"/>
<path d="M353.905 291.123H272.438V305.021H353.905V291.123Z" fill="#3E8EED"/>
<path d="M896.775 394.291H884.591V390.877C884.591 389.214 883.558 387.726 882.006 387.14L869.097 382.275C868.65 382.107 868.167 382.019 867.691 382.019H862.295L859.966 377.681H875.533C877.437 377.681 878.982 376.135 878.982 374.23V373.358C878.982 371.453 877.437 369.907 875.533 369.907H814.583C812.679 369.907 811.134 371.453 811.134 373.358V374.23C811.134 376.135 812.679 377.681 814.583 377.681H830.15L827.822 382.019H819.936C817.732 382.019 815.945 383.806 815.945 386.012V391.793H807.158V404.878H815.945V411.604C815.945 413.81 817.732 415.597 819.936 415.597H880.607C882.811 415.597 884.598 413.81 884.598 411.604V407.413H896.782C898.803 407.413 900.436 405.772 900.436 403.75V397.954C900.429 395.932 898.796 394.291 896.775 394.291Z" fill="#A5B9D1"/>
<path d="M788.874 408.783H807.443C809.201 408.783 810.621 407.362 810.621 405.603V391.697C810.621 389.939 809.201 388.517 807.443 388.517H788.874C787.117 388.517 785.696 389.939 785.696 391.697V405.603C785.689 407.362 787.117 408.783 788.874 408.783Z" fill="#797673"/>
<path d="M869.682 397.72H843.93V405.083H869.682V397.72Z" fill="#C7E0F4"/>
<path d="M1162.05 534.188H1144.82V603.727H1156.52L1162.05 534.188Z" fill="#9078E4"/>
<path d="M1134.41 534.188H1117.19L1122.72 603.727H1134.41V534.188Z" fill="#9078E4"/>
<path d="M1140.31 558.858C1166.01 558.858 1186.85 538.008 1186.85 512.289C1186.85 486.569 1166.01 465.72 1140.31 465.72C1114.61 465.72 1093.77 486.569 1093.77 512.289C1093.77 538.008 1114.61 558.858 1140.31 558.858Z" fill="#512BD4"/>
<path d="M1083.81 483.897H1196.81L1200.49 450.458H1080.12L1083.81 483.897Z" fill="#8065E0"/>
<path d="M1093.57 481.116L1117.74 481.116L1117.74 456.931L1093.57 456.931L1093.57 481.116Z" fill="#512BD4"/>
<path d="M1140.31 437.937C1166.01 437.937 1186.85 417.087 1186.85 391.368C1186.85 365.648 1166.01 344.799 1140.31 344.799C1114.61 344.799 1093.77 365.648 1093.77 391.368C1093.77 417.087 1114.61 437.937 1140.31 437.937Z" fill="url(#paint3_radial)"/>
<path d="M1071.63 450.216L1066.87 408.344C1066.31 403.369 1070.19 399.002 1075.2 399.002H1203.99C1209 399.002 1212.89 403.361 1212.33 408.344L1207.57 450.216C1207.08 454.458 1203.5 457.66 1199.23 457.66H1079.97C1075.7 457.66 1072.11 454.458 1071.63 450.216Z" fill="url(#paint4_radial)"/>
<path d="M1084.33 479.267H1194.86C1199.87 479.267 1203.76 483.627 1203.2 488.609L1198.33 531.463C1197 534.386 1194.06 536.379 1190.7 536.379H1088.68C1085.07 536.379 1081.97 534.093 1080.8 530.833L1075.99 488.609C1075.43 483.634 1079.33 479.267 1084.33 479.267Z" fill="url(#paint5_radial)"/>
<path d="M1137.56 365.094H1102.5C1098.77 370.545 1096.17 376.831 1095.04 383.616H1137.57C1141.32 383.616 1144.37 380.568 1144.37 376.809V371.908C1144.37 368.142 1141.31 365.094 1137.56 365.094Z" fill="#512BD4"/>
<path d="M1129.37 381.308C1133.25 381.308 1136.4 378.159 1136.4 374.274C1136.4 370.39 1133.25 367.24 1129.37 367.24C1125.49 367.24 1122.34 370.39 1122.34 374.274C1122.34 378.159 1125.49 381.308 1129.37 381.308Z" fill="#A7CBF6"/>
<path d="M1108.67 381.308C1112.55 381.308 1115.7 378.159 1115.7 374.274C1115.7 370.39 1112.55 367.24 1108.67 367.24C1104.79 367.24 1101.64 370.39 1101.64 374.274C1101.64 378.159 1104.79 381.308 1108.67 381.308Z" fill="#A7CBF6"/>
<path d="M1130.86 636.002H1102.76C1100.57 636.002 1098.89 634.009 1099.3 631.855C1102.3 615.963 1114.46 603.331 1130.08 599.617C1132.27 599.097 1134.37 600.789 1134.37 603.046V632.492C1134.37 634.426 1132.8 636.002 1130.86 636.002Z" fill="#512BD4"/>
<path d="M1152.51 599.609C1136.89 603.324 1124.73 615.956 1121.73 631.847C1121.32 634.001 1122.99 635.994 1125.18 635.994H1153.29C1155.23 635.994 1156.79 634.419 1156.79 632.485V603.038C1156.8 600.789 1154.7 599.089 1152.51 599.609Z" fill="#512BD4"/>
<path d="M1182.3 430.822C1191.81 430.822 1199.51 423.113 1199.51 413.604C1199.51 404.095 1191.81 396.386 1182.3 396.386C1172.8 396.386 1165.1 404.095 1165.1 413.604C1165.1 423.113 1172.8 430.822 1182.3 430.822Z" fill="#512BD4"/>
<path d="M1101.98 479.267H1084.33C1079.32 479.267 1075.43 483.627 1075.99 488.609L1080.8 530.833C1081.97 534.093 1085.08 536.379 1088.67 536.379H1106.36L1101.98 479.267Z" fill="#FFD590"/>
<path d="M1095.83 399.002H1075.2C1070.19 399.002 1066.31 403.361 1066.87 408.344L1071.63 450.216C1072.11 454.458 1075.69 457.66 1079.96 457.66H1100.33L1095.83 399.002Z" fill="#FFD590"/>
<path d="M515.096 611.288L547.365 611.449C547.365 611.449 554.863 616.49 556.854 620.124C558.377 622.909 558.275 629.144 558.143 631.928C558.106 632.704 557.462 633.313 556.686 633.305L525.559 633.247C524.563 633.247 523.751 632.433 523.765 631.43C523.795 627.979 523.209 620.637 521.913 618.542C519.98 615.413 515.096 611.288 515.096 611.288Z" fill="#D0C5F3"/>
<path d="M505.306 574.01C499.353 594.803 501.792 627.774 502.041 629.517C502.385 631.935 502.714 633.628 506.148 633.628C510.424 633.628 528.774 633.628 528.774 633.628L519.138 575.351L505.306 574.01Z" fill="#8065E0"/>
<path d="M524.285 577.219C525.72 587.425 535.898 601.764 555.17 616.776C557.425 618.527 558.582 620.381 558.582 622.989V631.342C558.582 632.58 557.579 633.576 556.349 633.576H525.413C524.541 633.576 523.831 632.866 523.831 631.994V622.352C523.831 619.348 523.223 617.802 520.148 615.597C512.438 610.065 507.568 591.396 507.407 578.113C507.246 564.837 524.285 577.219 524.285 577.219Z" fill="#A08BE8"/>
<path d="M558.29 620.93C558.473 621.568 558.583 622.242 558.583 622.982V631.334C558.583 632.573 557.58 633.569 556.349 633.569H525.413C524.542 633.569 523.832 632.858 523.832 631.987V622.344C523.832 621.832 523.81 621.363 523.766 620.923H558.29V620.93Z" fill="#D0C5F3"/>
<path d="M476.867 611.288L509.136 611.449C509.136 611.449 516.634 616.49 518.626 620.124C520.149 622.909 520.046 629.144 519.915 631.928C519.878 632.704 519.234 633.313 518.457 633.305L487.331 633.247C486.335 633.247 485.522 632.433 485.537 631.43C485.566 627.979 484.98 620.637 483.684 618.542C481.751 615.413 476.867 611.288 476.867 611.288Z" fill="#D0C5F3"/>
<path d="M467.085 574.01C461.132 594.803 463.57 627.774 463.819 629.517C464.163 631.935 464.493 633.628 467.927 633.628C472.203 633.628 490.552 633.628 490.552 633.628L480.916 575.351L467.085 574.01Z" fill="#8065E0"/>
<path d="M486.057 577.219C487.492 587.425 497.67 601.764 516.942 616.776C519.197 618.527 520.354 620.381 520.354 622.989V631.342C520.354 632.58 519.351 633.576 518.121 633.576H487.184C486.313 633.576 485.603 632.866 485.603 631.994V622.352C485.603 619.348 484.995 617.802 481.92 615.597C474.209 610.065 469.34 591.396 469.179 578.113C469.018 564.837 486.057 577.219 486.057 577.219Z" fill="#A08BE8"/>
<path d="M520.06 620.93C520.243 621.568 520.353 622.242 520.353 622.982V631.334C520.353 632.573 519.35 633.569 518.12 633.569H487.184C486.312 633.569 485.602 632.858 485.602 631.987V622.344C485.602 621.832 485.58 621.363 485.536 620.923H520.06V620.93Z" fill="#D0C5F3"/>
<path d="M523.59 510.164L523.538 555.707L507.195 555.693L507.247 510.142L523.59 510.164Z" fill="url(#paint6_linear)"/>
<path d="M507.275 537.734L523.633 537.734L523.633 535.602L507.275 535.602L507.275 537.734Z" fill="#A08BE8"/>
<path d="M507.115 555.106H522.441C525.26 555.106 527.544 557.392 527.544 560.213V576.127C527.544 578.948 525.26 581.234 522.441 581.234H507.115C504.296 581.234 502.012 578.948 502.012 576.127V560.213C502.012 557.392 504.296 555.106 507.115 555.106Z" fill="url(#paint7_radial)"/>
<path d="M484.724 510.164L484.672 555.707L468.329 555.693L468.38 510.142L484.724 510.164Z" fill="url(#paint8_linear)"/>
<path d="M468.404 537.734L484.762 537.734L484.762 535.602L468.404 535.602L468.404 537.734Z" fill="#A08BE8"/>
<path d="M468.249 555.106H483.574C486.394 555.106 488.678 557.392 488.678 560.213V576.127C488.678 578.948 486.394 581.234 483.574 581.234H468.249C465.43 581.234 463.146 578.948 463.146 576.127V560.213C463.146 557.392 465.43 555.106 468.249 555.106Z" fill="url(#paint9_radial)"/>
<path d="M615.081 353.576C622.271 366.368 627.309 388.657 617.834 409.384C612.086 421.964 598.84 438.259 568.387 444.457L564.953 427.562C583.442 423.796 596.307 415.033 602.165 402.211C608.513 388.327 605.679 372.025 600.063 362.024L615.081 353.576Z" fill="url(#paint10_linear)"/>
<path d="M583.529 421.136L581.773 422.077L589.798 437.075L591.554 436.135L583.529 421.136Z" fill="#A08BE8"/>
<path d="M605.709 388.677L605.545 390.663L622.489 392.066L622.654 390.08L605.709 388.677Z" fill="#A08BE8"/>
<path d="M616.465 412.168L598.848 408.014C598.452 408.578 598.042 409.128 597.61 409.67L608.777 423.188C612.086 419.502 614.583 415.736 616.465 412.168Z" fill="#A08BE8"/>
<path d="M458.583 346.029L443.031 352.294L438.799 335.428L449.965 330.936L458.583 346.029Z" fill="#D0C5F3"/>
<path d="M455.105 375.131C463.905 375.131 471.038 367.993 471.038 359.188C471.038 350.383 463.905 343.245 455.105 343.245C446.305 343.245 439.172 350.383 439.172 359.188C439.172 367.993 446.305 375.131 455.105 375.131Z" fill="#512BD4"/>
<path d="M572.985 457.646C578.719 435.621 575.021 418.044 575.021 418.044H580.198L580.33 417.942C572.912 377.535 537.539 346.909 495.004 346.909C447.087 346.909 408.25 385.777 408.25 433.716C408.25 481.656 447.094 520.524 495.004 520.524C532.808 520.524 564.968 496.324 576.852 462.555C577.196 461.133 577.166 458.562 572.985 457.646Z" fill="url(#paint11_radial)"/>
<path d="M523.766 418.066H485.024C485.024 418.066 479.35 417.487 479.35 422.675C479.35 427.862 479.562 442.501 479.562 458.701C479.562 462.034 482.286 463.639 484.431 463.639H576.86C576.633 463.602 576.501 463.573 576.501 463.573C576.501 463.573 578.903 458.95 572.986 457.653C578.646 435.9 575.11 418.491 575.022 418.073H523.766" fill="url(#paint12_radial)"/>
<path d="M529.777 457.58C529.777 457.58 538.425 450.729 540.116 449.462C541.808 448.194 543.279 448.121 544.832 449.462C546.377 450.803 555.039 457.58 555.039 457.58H529.777Z" fill="#A08BE8"/>
<path d="M576.501 463.573C576.501 463.573 578.903 458.95 572.986 457.653C572.994 457.631 573.001 457.609 573.001 457.587H484.497C482.44 457.587 479.789 456.356 479.555 454.363C479.555 455.792 479.562 457.243 479.562 458.708C479.562 461.727 481.803 463.324 483.824 463.595C484.029 463.617 484.226 463.639 484.431 463.639H490.479H576.86C576.633 463.595 576.501 463.573 576.501 463.573Z" fill="#8065E0"/>
<path d="M569.808 477.692H420.208C423.569 483.399 427.559 488.682 432.085 493.459H557.932C562.457 488.682 566.447 483.399 569.808 477.692Z" fill="url(#paint13_linear)"/>
<path d="M551.634 473.186H523.634V497.965H551.634V473.186Z" fill="#512BD4"/>
<path d="M474.532 366.815L436.866 388.393C434.904 389.514 432.407 388.539 431.733 386.385L427.164 371.893L474.532 366.815Z" fill="#605D5A"/>
<path d="M569.843 437.325C569.936 431.021 566.974 425.865 563.226 425.809C559.477 425.754 556.362 430.818 556.269 437.122C556.175 443.426 559.137 448.581 562.886 448.637C566.634 448.693 569.749 443.628 569.843 437.325Z" fill="#512BD4"/>
<path d="M562.977 431.196C560.495 433.672 560.495 437.695 562.977 440.179C564.676 441.879 567.092 442.413 569.245 441.783C569.611 440.42 569.823 438.918 569.845 437.343C569.889 434.251 569.201 431.445 568.044 429.372C566.235 429.203 564.361 429.811 562.977 431.196Z" fill="#8065E0"/>
<path d="M508.578 448.714C512.326 448.658 515.289 443.503 515.195 437.199C515.101 430.895 511.987 425.83 508.238 425.886C504.49 425.942 501.527 431.098 501.621 437.401C501.715 443.705 504.83 448.77 508.578 448.714Z" fill="#512BD4"/>
<path d="M508.352 431.57C505.877 434.046 505.877 438.068 508.352 440.552C510.036 442.237 512.438 442.78 514.584 442.164C514.994 440.655 515.221 438.97 515.191 437.189C515.147 434.324 514.481 431.731 513.412 429.738C511.611 429.569 509.744 430.185 508.352 431.57Z" fill="#8065E0"/>
<path d="M610.798 344.901L603.724 330.335C601.813 326.467 597.127 324.877 593.261 326.797C589.395 328.709 587.806 333.398 589.724 337.267L598.533 354.909L610.798 344.901Z" fill="#D0C5F3"/>
<path d="M625.486 354.895L632.303 340.205C634.089 336.277 632.361 331.64 628.437 329.852C624.512 328.064 619.877 329.793 618.09 333.72L611.098 348.784L625.486 354.895Z" fill="#D0C5F3"/>
<path d="M615.997 350.345L622.44 335.486C624.132 331.515 622.279 326.928 618.31 325.236C614.342 323.543 609.758 325.397 608.067 329.368L601.462 344.608L615.997 350.345Z" fill="#D0C5F3"/>
<path d="M628.064 360.588L637.744 347.605C640.299 344.124 639.552 339.237 636.082 336.68C632.604 334.123 627.72 334.871 625.164 338.343L615.235 351.656L628.064 360.588Z" fill="#D0C5F3"/>
<path d="M613.075 373.981C622.105 373.981 629.426 366.656 629.426 357.62C629.426 348.584 622.105 341.26 613.075 341.26C604.045 341.26 596.725 348.584 596.725 357.62C596.725 366.656 604.045 373.981 613.075 373.981Z" fill="url(#paint14_radial)"/>
<path d="M393.723 600.415L372.606 553.912C371.676 551.868 372.584 549.465 374.619 548.534L440.958 518.363C443.001 517.432 445.403 518.341 446.333 520.377L467.45 566.881C468.38 568.925 467.472 571.328 465.437 572.258L399.097 602.43C397.054 603.361 394.645 602.452 393.723 600.415Z" fill="#737373"/>
<path d="M1250.09 348.916C1252.13 350.433 1253.15 353.078 1252.49 355.693L1240.77 401.669C1240.18 403.97 1238.37 405.765 1236.06 406.336L1184.44 419.173C1180.99 420.023 1177.49 417.912 1176.64 414.454C1175.79 410.996 1177.9 407.501 1181.35 406.644L1229.23 394.731L1240 352.492C1240.88 349.041 1244.39 346.953 1247.85 347.839C1248.68 348.052 1249.44 348.425 1250.09 348.916Z" fill="#9078E4"/>
<path d="M1241.81 355.18L1250.3 357.349C1251.68 357.701 1252.98 356.976 1253.25 355.701L1254.65 349.085C1254.69 348.865 1254.77 348.652 1254.88 348.462L1263.12 334.043C1263.91 332.651 1262.99 330.775 1261.28 330.306L1240.58 324.635C1238.83 324.159 1237.29 325.426 1237.56 327.119L1240.44 345.15C1240.48 345.377 1240.48 345.597 1240.46 345.817L1239.65 352.228C1239.49 353.532 1240.44 354.829 1241.81 355.18Z" fill="#512BD4"/>
<path d="M1246.1 302.376C1247.11 303.058 1247.64 304.281 1247.3 305.38C1246.68 307.395 1243.75 312.143 1242.47 314.172L1244.9 328.174C1245.14 329.581 1244.16 330.79 1242.71 330.878C1241.26 330.951 1239.88 329.881 1239.63 328.474L1237.04 313.564C1236.94 312.971 1237.05 312.392 1237.35 311.916C1239.11 309.183 1241.76 304.758 1242.16 303.468C1242.57 302.157 1244.05 301.526 1245.47 302.061C1245.69 302.142 1245.91 302.252 1246.1 302.376Z" fill="#512BD4"/>
<path d="M1275.7 331.471C1275.24 331.471 1274.77 331.398 1274.32 331.244L867.266 195.779C864.967 195.01 863.715 192.526 864.483 190.218C865.252 187.91 867.734 186.664 870.041 187.434L1277.09 322.899C1279.39 323.668 1280.64 326.152 1279.87 328.46C1279.26 330.306 1277.54 331.471 1275.7 331.471Z" fill="#A5B9D1"/>
<path d="M879.772 182.151L843.769 215.972C840.261 219.269 834.74 219.093 831.445 215.583L830.369 214.44C827.074 210.931 827.25 205.406 830.757 202.109L866.76 168.289C870.268 164.992 875.789 165.168 879.084 168.677L880.16 169.82C883.462 173.33 883.287 178.854 879.772 182.151Z" fill="#A08BE8"/>
<path d="M861.641 173.076L850.467 183.571L863.471 197.433L874.645 186.938L861.641 173.076Z" fill="#512BD4"/>
<path d="M1271.28 302.127C1272.23 302.765 1272.77 303.893 1272.54 304.955L1269.67 317.872C1269.62 318.056 1269.56 318.224 1269.48 318.385L1261.49 334.343C1260.88 335.559 1259.3 335.962 1257.95 335.244C1256.63 334.541 1256.01 332.958 1256.62 331.742L1264.49 316.026L1267.3 303.38C1267.6 302.039 1269.01 301.299 1270.46 301.732C1270.75 301.827 1271.03 301.959 1271.28 302.127Z" fill="#512BD4"/>
<path d="M1261.1 300.017C1261.96 300.589 1262.5 301.563 1262.4 302.56L1260.97 317.946C1260.95 318.114 1260.92 318.276 1260.86 318.437L1256.04 333.347C1255.62 334.651 1254.13 335.259 1252.72 334.717C1251.29 334.167 1250.49 332.673 1250.91 331.368L1255.67 316.693L1257.08 301.563C1257.21 300.178 1258.51 299.277 1259.98 299.556C1260.39 299.636 1260.77 299.79 1261.1 300.017Z" fill="#512BD4"/>
<path d="M1036.79 230.2C1035.88 231.021 1035.54 232.318 1036.04 233.351C1036.94 235.248 1040.55 239.513 1042.11 241.33L1041.77 255.536C1041.73 256.965 1042.88 258.02 1044.34 257.881C1045.79 257.742 1047 256.474 1047.03 255.045L1047.39 239.916C1047.41 239.315 1047.21 238.758 1046.84 238.326C1044.7 235.886 1041.42 231.9 1040.83 230.677C1040.24 229.438 1038.69 229.035 1037.36 229.775C1037.15 229.907 1036.96 230.046 1036.79 230.2Z" fill="#512BD4"/>
<path d="M1048.81 281.795L1040.74 285.195C1039.43 285.745 1038.03 285.217 1037.57 284.001L1035.22 277.663C1035.14 277.451 1035.03 277.253 1034.89 277.084L1024.62 264.035C1023.63 262.775 1024.27 260.782 1025.9 260.064L1045.53 251.404C1047.2 250.671 1048.9 251.697 1048.88 253.419L1048.68 271.684C1048.68 271.912 1048.71 272.131 1048.77 272.344L1050.51 278.564C1050.86 279.817 1050.12 281.246 1048.81 281.795Z" fill="#512BD4"/>
<path d="M977.362 629.349C974.25 629.349 971.731 626.33 971.731 622.608V579.278C971.731 575.556 974.25 572.537 977.362 572.537C980.474 572.537 982.993 575.556 982.993 579.278V622.608C983 626.337 980.474 629.349 977.362 629.349Z" fill="#797673"/>
<path d="M962.879 634.99V631.876C962.879 626.924 966.891 622.908 971.841 622.908H990.14C995.089 622.908 999.102 626.924 999.102 631.876V634.99H962.879Z" fill="#605D5A"/>
<path d="M957.241 629.349C954.129 629.349 951.61 626.33 951.61 622.608V579.278C951.61 575.556 954.129 572.537 957.241 572.537C960.353 572.537 962.872 575.556 962.872 579.278V622.608C962.879 626.337 960.353 629.349 957.241 629.349Z" fill="#797673"/>
<path d="M971.732 634.99V631.876C971.732 626.924 967.719 622.908 962.769 622.908H944.471C939.521 622.908 935.509 626.924 935.509 631.876V634.99H971.732Z" fill="#605D5A"/>
<path d="M978.885 374.977V347.744C978.885 344.784 974.822 343.971 973.679 346.696L962.286 373.93C961.539 375.717 962.85 377.681 964.783 377.681H976.176C977.67 377.688 978.885 376.472 978.885 374.977Z" fill="#B7B5B4"/>
<path d="M997.857 374.977V347.744C997.857 344.784 993.794 343.971 992.651 346.696L981.258 373.93C980.511 375.717 981.822 377.681 983.755 377.681H995.148C996.642 377.688 997.857 376.472 997.857 374.977Z" fill="#B7B5B4"/>
<path d="M972.384 424.331H958.252V500.207H972.384V424.331Z" fill="#797673"/>
<path d="M1020.93 418.103L1018.54 390.979C1017.55 379.74 1008.15 371.116 996.869 371.116H932.756C921.48 371.116 912.071 379.74 911.082 390.979L908.695 418.103C908.431 421.078 910.775 423.642 913.762 423.642H950.534C952.138 430.617 958.369 435.819 965.823 435.819C973.277 435.819 979.508 430.617 981.112 423.642H1015.86C1018.85 423.642 1021.19 421.078 1020.93 418.103Z" fill="url(#paint15_radial)"/>
<path d="M954.525 393.338H910.877L909.273 411.516H954.517C958.369 411.516 961.495 408.388 961.495 404.534V400.321C961.503 396.467 958.376 393.338 954.525 393.338Z" fill="#512BD4"/>
<path d="M910.709 408.644C914.514 408.644 917.599 405.557 917.599 401.75C917.599 397.942 914.514 394.855 910.709 394.855C906.903 394.855 903.818 397.942 903.818 401.75C903.818 405.557 906.903 408.644 910.709 408.644Z" fill="#E8D441"/>
<path d="M932.91 408.644C936.715 408.644 939.8 405.557 939.8 401.75C939.8 397.942 936.715 394.855 932.91 394.855C929.104 394.855 926.02 397.942 926.02 401.75C926.02 405.557 929.104 408.644 932.91 408.644Z" fill="#E8D441"/>
<path d="M917.284 579.695H1012.35C1023.44 579.695 1032.14 570.185 1031.17 559.129L1021.9 453.916C1021.63 450.795 1019.02 448.399 1015.88 448.399H913.425C910.474 448.399 908.006 450.656 907.75 453.601L898.458 559.129C897.484 570.185 906.19 579.695 917.284 579.695Z" fill="url(#paint16_radial)"/>
<path d="M902.434 514.055H1027.2L1025.82 498.397H903.81L902.434 514.055Z" fill="#D0C5F3"/>
<path d="M934.93 519.769H914.963C913.696 519.769 912.671 518.744 912.671 517.476V497.496C912.671 496.228 913.696 495.203 914.963 495.203H934.93C936.197 495.203 937.222 496.228 937.222 497.496V517.476C937.222 518.744 936.197 519.769 934.93 519.769Z" fill="#512BD4"/>
<path d="M1022.97 466.079L1021.9 453.916C1021.62 450.795 1019.02 448.399 1015.88 448.399H913.424C910.474 448.399 908.006 450.656 907.75 453.601L906.651 466.071H1022.97V466.079Z" fill="#F7B548"/>
<path d="M921.128 460.532C922.943 460.532 924.415 459.059 924.415 457.243C924.415 455.426 922.943 453.953 921.128 453.953C919.312 453.953 917.84 455.426 917.84 457.243C917.84 459.059 919.312 460.532 921.128 460.532Z" fill="white"/>
<path d="M933.239 460.532C935.055 460.532 936.527 459.059 936.527 457.243C936.527 455.426 935.055 453.953 933.239 453.953C931.423 453.953 929.951 455.426 929.951 457.243C929.951 459.059 931.423 460.532 933.239 460.532Z" fill="white"/>
<path d="M945.357 460.532C947.173 460.532 948.645 459.059 948.645 457.243C948.645 455.426 947.173 453.953 945.357 453.953C943.541 453.953 942.069 455.426 942.069 457.243C942.069 459.059 943.541 460.532 945.357 460.532Z" fill="white"/>
<path d="M527.654 489.708C527.441 489.708 527.266 489.642 527.112 489.503C526.965 489.363 526.885 489.195 526.885 488.99C526.885 488.792 526.951 488.616 527.097 488.47C527.244 488.323 527.419 488.25 527.632 488.242C527.844 488.242 528.027 488.308 528.174 488.448C528.327 488.587 528.408 488.763 528.408 488.96C528.408 489.158 528.335 489.327 528.188 489.473C528.049 489.635 527.866 489.708 527.654 489.708Z" fill="white"/>
<path d="M536.059 489.458L534.69 489.48L531 483.846C530.904 483.707 530.831 483.553 530.765 483.399H530.736C530.765 483.568 530.787 483.919 530.795 484.462L530.875 489.532L529.667 489.554L529.55 481.817L531.007 481.795L534.573 487.297C534.727 487.524 534.822 487.685 534.866 487.766H534.888C534.851 487.561 534.829 487.217 534.822 486.726L534.749 481.736L535.949 481.714L536.059 489.458Z" fill="white"/>
<path d="M541.954 489.371L537.722 489.437L537.604 481.7L541.668 481.634L541.683 482.725L538.871 482.769L538.908 484.96L541.5 484.923L541.515 486.008L538.922 486.044L538.959 488.33L541.939 488.286L541.954 489.371Z" fill="white"/>
<path d="M547.87 482.63L545.703 482.667L545.806 489.312L544.554 489.334L544.451 482.689L542.291 482.725L542.276 481.634L547.856 481.546L547.87 482.63Z" fill="white"/>
<path d="M419.901 450.114C421.526 450.062 423.042 451.103 423.525 452.737C431.565 479.86 454.791 500.243 482.703 504.669C484.702 504.984 486.064 506.86 485.749 508.86C485.434 510.86 483.56 512.223 481.561 511.908C450.881 507.05 425.341 484.645 416.51 454.825C415.939 452.883 417.038 450.846 418.978 450.275C419.278 450.172 419.593 450.128 419.901 450.114Z" fill="url(#paint17_radial)"/>
<path d="M568.937 416.139C567.311 416.191 565.796 415.15 565.312 413.516C557.273 386.393 534.047 366.01 506.134 361.584C504.135 361.269 502.773 359.393 503.088 357.393C503.403 355.393 505.278 354.03 507.276 354.345C537.957 359.203 563.496 381.608 572.327 411.428C572.898 413.37 571.8 415.407 569.86 415.978C569.559 416.081 569.244 416.125 568.937 416.139Z" fill="url(#paint18_radial)"/>
<path d="M422.046 367.555C415.639 369.27 414.196 379.183 423.51 378.157C439.195 376.435 495.685 366.442 521.533 353.239C534.647 346.542 535.936 335.332 512.453 338.842C488.971 342.359 422.046 367.555 422.046 367.555Z" fill="#FAE969"/>
<path d="M420.091 368.024C420.457 370.156 422.463 371.592 424.601 371.27C432.004 370.149 449.746 367.065 471.646 360.566C494.433 353.803 506.808 347.04 511.501 344.132C512.878 343.282 513.5 341.604 513.01 340.058C510.037 330.665 491.365 294.068 452.184 305.842C412.571 317.748 417.938 355.583 420.091 368.024Z" fill="#E8D441"/>
<path d="M447.22 307.556C441.01 310.004 436.09 313.161 432.209 316.766C466.287 309.615 485.01 329.141 490.465 336.109C491.563 337.516 493.43 338.08 495.136 337.552L497.67 336.761C500.276 335.948 501.279 332.768 499.588 330.621C492.61 321.77 474.539 303.417 447.22 307.556Z" fill="#FAE969"/>
<path d="M402.048 533.83C393.151 522.158 385.075 500.786 391.577 478.945C395.524 465.691 406.383 447.711 435.679 437.336L441.427 453.587C423.641 459.88 412.116 470.35 408.089 483.861C403.732 498.493 408.799 514.245 415.748 523.367L402.048 533.83Z" fill="url(#paint19_linear)"/>
<path d="M415.528 447.601L413.92 448.777L423.948 462.516L425.556 461.341L415.528 447.601Z" fill="#A08BE8"/>
<path d="M406.376 495.746L389.401 496.711L389.514 498.7L406.489 497.736L406.376 495.746Z" fill="#A08BE8"/>
<path d="M392.552 475.999L410.572 477.663C410.887 477.047 411.216 476.446 411.568 475.846L398.629 464.005C395.869 468.123 393.928 472.204 392.552 475.999Z" fill="#A08BE8"/>
<path d="M443.954 461.001C452.753 461.001 459.887 453.863 459.887 445.058C459.887 436.253 452.753 429.115 443.954 429.115C435.154 429.115 428.021 436.253 428.021 445.058C428.021 453.863 435.154 461.001 443.954 461.001Z" fill="url(#paint20_radial)"/>
<path d="M412.709 535.595L425.618 545.362C429.074 547.941 433.973 547.223 436.55 543.765C439.128 540.307 438.41 535.405 434.954 532.826L419.101 521.103L412.709 535.595Z" fill="#D0C5F3"/>
<path d="M395.085 533.361L395.678 549.546C395.868 553.861 399.508 557.202 403.82 557.012C408.133 556.821 411.472 553.18 411.282 548.864L410.674 532.269L395.085 533.361Z" fill="#D0C5F3"/>
<path d="M405.6 533.104L406.603 549.267C406.903 553.575 410.63 556.821 414.935 556.528C419.241 556.228 422.485 552.498 422.192 548.19L421.159 531.61L405.6 533.104Z" fill="#D0C5F3"/>
<path d="M390.208 529.456L387.47 545.421C386.767 549.677 389.652 553.7 393.906 554.403C398.16 555.107 402.18 552.22 402.883 547.963L405.687 531.595L390.208 529.456Z" fill="#D0C5F3"/>
<path d="M404.904 541.647C413.934 541.647 421.255 534.322 421.255 525.287C421.255 516.251 413.934 508.926 404.904 508.926C395.874 508.926 388.554 516.251 388.554 525.287C388.554 534.322 395.874 541.647 404.904 541.647Z" fill="url(#paint21_radial)"/>
<defs>
<linearGradient id="paint0_linear" x1="659.323" y1="724.048" x2="659.323" y2="0" gradientUnits="userSpaceOnUse">
<stop stop-color="white"/>
<stop offset="0.0384" stop-color="#FDFEFF"/>
<stop offset="0.1018" stop-color="#F8FBFE"/>
<stop offset="0.565" stop-color="#D5E7F7"/>
<stop offset="0.8152" stop-color="#C8E0F4"/>
<stop offset="1" stop-color="#C7E0F4"/>
</linearGradient>
<radialGradient id="paint1_radial" cx="0" cy="0" r="1" gradientUnits="userSpaceOnUse" gradientTransform="translate(300.433 455.856) scale(468.384 468.675)">
<stop offset="0.1865" stop-color="#E0BB95"/>
<stop offset="0.2156" stop-color="#DFB993"/>
<stop offset="0.7192" stop-color="#C89B74"/>
<stop offset="1" stop-color="#BF8F68"/>
</radialGradient>
<radialGradient id="paint2_radial" cx="0" cy="0" r="1" gradientUnits="userSpaceOnUse" gradientTransform="translate(415.984 604.271) scale(168.557 168.662)">
<stop offset="0.2264" stop-color="#E0BB95"/>
<stop offset="0.7001" stop-color="#F2D2B1"/>
<stop offset="0.9891" stop-color="#FADCBD"/>
<stop offset="1" stop-color="#F9DDBF" stop-opacity="0"/>
</radialGradient>
<radialGradient id="paint3_radial" cx="0" cy="0" r="1" gradientUnits="userSpaceOnUse" gradientTransform="translate(1112.65 381.779) scale(46.54 46.569)">
<stop offset="0.3472" stop-color="#A08BE8"/>
<stop offset="0.684" stop-color="#8065E0"/>
<stop offset="0.8157" stop-color="#8065E0"/>
</radialGradient>
<radialGradient id="paint4_radial" cx="0" cy="0" r="1" gradientUnits="userSpaceOnUse" gradientTransform="translate(1239.07 433.937) scale(112.951 113.021)">
<stop offset="0.1096" stop-color="#BF8F68"/>
<stop offset="0.761" stop-color="#F7B548"/>
</radialGradient>
<radialGradient id="paint5_radial" cx="0" cy="0" r="1" gradientUnits="userSpaceOnUse" gradientTransform="translate(1227.74 527.215) scale(96.129 96.1891)">
<stop offset="0.1096" stop-color="#BF8F68"/>
<stop offset="0.761" stop-color="#F7B548"/>
</radialGradient>
<linearGradient id="paint6_linear" x1="515.392" y1="510.144" x2="515.392" y2="555.71" gradientUnits="userSpaceOnUse">
<stop offset="0.2368" stop-color="#958FE7"/>
<stop offset="0.4881" stop-color="#BBB7EF"/>
</linearGradient>
<radialGradient id="paint7_radial" cx="0" cy="0" r="1" gradientUnits="userSpaceOnUse" gradientTransform="translate(518.184 560.834) scale(18.6254 18.637)">
<stop stop-color="#8065E0"/>
<stop offset="1" stop-color="#512BD4"/>
</radialGradient>
<linearGradient id="paint8_linear" x1="476.527" y1="510.144" x2="476.527" y2="555.71" gradientUnits="userSpaceOnUse">
<stop offset="0.2368" stop-color="#958FE7"/>
<stop offset="0.4881" stop-color="#BBB7EF"/>
</linearGradient>
<radialGradient id="paint9_radial" cx="0" cy="0" r="1" gradientUnits="userSpaceOnUse" gradientTransform="translate(479.703 562.673) scale(17.5379 17.5488)">
<stop stop-color="#8065E0"/>
<stop offset="1" stop-color="#512BD4"/>
</radialGradient>
<linearGradient id="paint10_linear" x1="560.529" y1="436.59" x2="629.332" y2="367.83" gradientUnits="userSpaceOnUse">
<stop offset="0.0839" stop-color="#958FE7"/>
<stop offset="0.2787" stop-color="#BBB7EF"/>
</linearGradient>
<radialGradient id="paint11_radial" cx="0" cy="0" r="1" gradientUnits="userSpaceOnUse" gradientTransform="translate(523.724 402.879) scale(148.24 148.332)">
<stop offset="0.3472" stop-color="#A08BE8"/>
<stop offset="0.684" stop-color="#8065E0"/>
<stop offset="0.8157" stop-color="#8065E0"/>
</radialGradient>
<radialGradient id="paint12_radial" cx="0" cy="0" r="1" gradientUnits="userSpaceOnUse" gradientTransform="translate(490.375 415.087) scale(74.8614 74.9081)">
<stop offset="0.0933" stop-color="#E1DFDD"/>
<stop offset="0.6573" stop-color="white"/>
</radialGradient>
<linearGradient id="paint13_linear" x1="420.206" y1="485.573" x2="569.809" y2="485.573" gradientUnits="userSpaceOnUse">
<stop offset="0.2368" stop-color="#958FE7"/>
<stop offset="0.8039" stop-color="#BDB9F0"/>
</linearGradient>
<radialGradient id="paint14_radial" cx="0" cy="0" r="1" gradientUnits="userSpaceOnUse" gradientTransform="translate(611.751 348.001) scale(37.3717 37.395)">
<stop stop-color="#A08BE8"/>
<stop offset="0.8091" stop-color="#8065E0"/>
<stop offset="1" stop-color="#8065E0"/>
</radialGradient>
<radialGradient id="paint15_radial" cx="0" cy="0" r="1" gradientUnits="userSpaceOnUse" gradientTransform="translate(1036.84 426.33) scale(92.0663 92.1236)">
<stop offset="0.2858" stop-color="#8065E0"/>
<stop offset="0.6908" stop-color="#A08BE8"/>
</radialGradient>
<radialGradient id="paint16_radial" cx="0" cy="0" r="1" gradientUnits="userSpaceOnUse" gradientTransform="translate(1035.73 522.516) scale(135.25 135.334)">
<stop offset="0.2858" stop-color="#8065E0"/>
<stop offset="0.6908" stop-color="#A08BE8"/>
</radialGradient>
<radialGradient id="paint17_radial" cx="0" cy="0" r="1" gradientUnits="userSpaceOnUse" gradientTransform="translate(450.697 481.074) rotate(178.188) scale(32.8687 32.8892)">
<stop stop-color="#BDB9F0"/>
<stop offset="0.3603" stop-color="#C3BCEB" stop-opacity="0.4"/>
<stop offset="0.4662" stop-color="#CEC3E2" stop-opacity="0.3338"/>
<stop offset="0.8089" stop-color="#EDD6C9" stop-opacity="0.1195"/>
<stop offset="1" stop-color="#F9DDBF" stop-opacity="0"/>
</radialGradient>
<radialGradient id="paint18_radial" cx="0" cy="0" r="1" gradientUnits="userSpaceOnUse" gradientTransform="translate(537.83 385.224) rotate(-1.81198) scale(32.8687 32.8891)">
<stop stop-color="#BDB9F0"/>
<stop offset="0.5266" stop-color="#C3BCEB" stop-opacity="0.7"/>
<stop offset="0.605" stop-color="#CEC3E2" stop-opacity="0.5841"/>
<stop offset="0.8586" stop-color="#EDD6C9" stop-opacity="0.2092"/>
<stop offset="1" stop-color="#F9DDBF" stop-opacity="0"/>
</radialGradient>
<linearGradient id="paint19_linear" x1="438.643" y1="439.054" x2="388.433" y2="525.966" gradientUnits="userSpaceOnUse">
<stop offset="0.1718" stop-color="#958FE7"/>
<stop offset="0.3639" stop-color="#BBB7EF"/>
</linearGradient>
<radialGradient id="paint20_radial" cx="0" cy="0" r="1" gradientUnits="userSpaceOnUse" gradientTransform="translate(447.781 439.716) scale(19.3362 19.3483)">
<stop stop-color="#8065E0"/>
<stop offset="1" stop-color="#512BD4"/>
</radialGradient>
<radialGradient id="paint21_radial" cx="0" cy="0" r="1" gradientUnits="userSpaceOnUse" gradientTransform="translate(406.058 519.954) scale(36.6798 36.7026)">
<stop stop-color="#A08BE8"/>
<stop offset="0.792" stop-color="#8065E0"/>
<stop offset="1" stop-color="#8065E0"/>
</radialGradient>
</defs>
</svg>
