<svg width="899" height="499" viewBox="0 0 899 499" fill="none" xmlns="http://www.w3.org/2000/svg">
<path d="M879.135 81.1611C915.321 10.3008 791.736 0 509.663 0C279.236 0 178.231 19.3713 132.808 32.3516C116.914 36.8919 119.187 39.1645 135.268 35.9462C145.015 33.9989 164.941 31.4821 150.216 36.1343C135.838 40.6746 132.553 44.3709 163.08 38.7832C176.512 36.3224 179.166 41.9355 164.595 46.5419C153.806 49.9433 119.599 58.79 97.619 73.2143C79.4578 85.1319 91.9551 86.3471 100.456 85.1319C120.321 82.2949 117.483 88.5384 99.3223 96.4852C47.3605 119.217 0 141.319 0 190.128V464.148C0 483.326 15.5479 498.874 34.7259 498.874H864.274C883.452 498.874 899 483.326 899 464.148V252.559C899 194.669 851.894 134.511 879.135 81.1611Z" fill="#2B579A"/>
<path d="M509.663 0C308.451 0 205.925 14.77 152.916 27.1605C597.017 19.9356 698.261 120.356 871.402 130.662C869.491 113.716 870.98 97.1309 879.136 81.1611C915.321 10.3008 791.736 0 509.663 0Z" fill="url(#paint0_radial)"/>
<path d="M899 374.455V286.186C888.003 286.649 869.918 285.393 861.544 273.476C849.057 255.716 829.762 255.716 782.086 270.095C734.41 284.473 710.575 273.476 679.927 240.494C649.278 207.507 607.282 206.424 527.824 224.183C448.366 241.948 347.341 265.849 271.289 215.102C222.266 182.39 114.687 136.951 2.55233 171.535C0.889757 177.28 0 183.453 0 190.128V328.798L899 374.455Z" fill="url(#paint1_linear)"/>
<path d="M784.593 309.671C741.879 279.511 731.243 318.752 663.138 293.778C595.034 268.803 593.188 331.234 480.814 271.503C409.715 233.711 333.003 290.224 298.948 268.656C264.893 247.088 231.901 294.576 152.342 247.241C107.676 220.665 53.8277 240.443 0 261.665V328.804L899 374.456V339.14C858.453 317.293 845.386 352.598 784.593 309.671Z" fill="url(#paint2_linear)"/>
<path d="M725.614 355.145C725.614 355.145 767.352 331.223 779.996 320.389C803.542 300.204 793.449 292.638 793.449 292.638L814.473 283.39C814.473 283.39 806.999 307.383 806.16 328.407C805.321 349.43 843.067 254.801 843.067 254.801C843.067 254.801 832.975 304.414 835.497 319.555C838.019 334.691 857.359 290.966 857.359 290.966L853.155 340.578L876.299 303.087C876.299 303.087 863.745 346.369 881.408 335.438C894.841 327.12 880.066 389.357 880.066 389.357L725.614 355.145Z" fill="#E3646A"/>
<path d="M249.711 298.323C165.403 298.323 82.1068 301.551 0 307.83V464.148C0 483.326 15.5479 498.874 34.7259 498.874H864.274C883.452 498.874 899 483.326 899 464.148V364.038C692.271 321.207 474.545 298.323 249.711 298.323Z" fill="#EE8F94"/>
<path d="M771.368 18.4917C771.368 38.3663 768.541 57.1173 763.554 73.6363H764.652C769.706 56.7767 772.385 37.985 772.385 18.4917C772.385 15.0293 772.294 11.5872 772.126 8.17562C771.785 8.14003 771.444 8.10444 771.099 8.06885C771.277 11.5059 771.368 14.9784 771.368 18.4917Z" fill="#72ACF1"/>
<path d="M799.052 18.4919C799.052 38.3666 795.107 57.1226 788.131 73.6365H789.296C796.337 56.7769 800.069 37.9852 800.069 18.4919C800.069 16.2142 800.013 13.9465 799.912 11.6891C799.571 11.6383 799.23 11.5823 798.885 11.5315C798.991 13.8398 799.052 16.1582 799.052 18.4919Z" fill="#72ACF1"/>
<path d="M616.576 73.6414C609.6 57.1224 605.655 38.3663 605.655 18.4968C605.655 12.4058 606.031 6.41642 606.748 0.569452C606.402 0.564368 606.057 0.559284 605.706 0.554199C604.999 6.44185 604.638 12.4363 604.638 18.4968C604.638 37.9952 608.37 56.7868 615.412 73.6414H616.576Z" fill="#72ACF1"/>
<path d="M743.684 18.4918C743.684 38.3664 741.981 57.1225 738.976 73.6363H740.013C743.074 56.7818 744.701 37.9901 744.701 18.4918C744.701 14.1904 744.62 9.92467 744.462 5.70468C744.121 5.67926 743.781 5.65384 743.44 5.62842C743.598 9.85858 743.684 14.1447 743.684 18.4918Z" fill="#72ACF1"/>
<path d="M687.833 2.57251C687.741 7.86529 687.695 13.1886 687.695 18.4915C687.695 70.799 692.119 124.678 699.695 136.844C700.071 136.85 700.442 136.855 700.818 136.855C694.636 128.15 688.712 82.7879 688.712 18.4966C688.712 13.0666 688.753 7.76869 688.834 2.61318C688.499 2.59793 688.168 2.58268 687.833 2.57251Z" fill="#72ACF1"/>
<path d="M716 18.4919C716 82.6967 710.097 128.029 703.92 136.819C704.296 136.809 704.672 136.804 705.048 136.794C712.604 124.525 717.017 70.7282 717.017 18.4919C717.017 13.6364 716.976 8.77067 716.905 3.92531C716.569 3.90497 716.234 3.88972 715.898 3.86938C715.959 8.62831 716 13.4991 716 18.4919Z" fill="#72ACF1"/>
<path d="M633.054 1.00171C632.571 6.747 632.322 12.5889 632.322 18.4918C632.322 37.9902 635.002 56.7818 640.055 73.6364H641.154C636.161 57.1174 633.334 38.3613 633.334 18.4918C633.334 12.5584 633.588 6.72666 634.071 1.02205C633.741 1.01696 633.395 1.00679 633.054 1.00171Z" fill="#72ACF1"/>
<path d="M660.423 1.65259C660.154 7.18433 660.011 12.8076 660.011 18.4919C660.011 37.9903 661.633 56.7819 664.699 73.6365H665.736C662.731 57.1175 661.028 38.3614 661.028 18.4919C661.028 12.7873 661.171 7.17416 661.44 1.68309C661.099 1.67293 660.759 1.66276 660.423 1.65259Z" fill="#72ACF1"/>
<path d="M580.742 16.4579C580.742 37.1511 585.963 56.6292 595.166 73.6362H668.223V83.0015H600.799C622.367 115.455 659.254 136.85 701.138 136.85C743.023 136.85 779.91 115.455 801.478 83.0015H730.368V73.6362H807.111C816.309 56.6241 821.535 37.1511 821.535 16.4579C821.535 16.1528 821.525 15.8478 821.525 15.5427C771.272 4.99784 691.336 1.26086 581.83 0.284668C581.118 5.57745 580.742 10.9719 580.742 16.4579Z" fill="url(#paint3_radial)"/>
<path d="M620.979 83.0066H619.759C623.618 90.5009 628.178 97.5223 633.4 103.949C644.428 117.519 657.612 127.464 672.01 133.306C674.675 133.967 677.369 134.541 680.094 135.024C655.39 127.662 634.33 108.657 620.979 83.0066Z" fill="#72ACF1"/>
<path d="M728.751 133.667C731.527 133.016 734.273 132.269 736.973 131.43C749.704 125.435 761.383 116.161 771.307 103.944C776.529 97.5172 781.089 90.4958 784.948 83.0015H783.728C771.134 107.213 751.672 125.501 728.751 133.667Z" fill="#72ACF1"/>
<path d="M667.633 83.0066H666.59C668.258 90.445 670.221 97.4156 672.473 103.796C678.366 120.514 685.713 131.75 693.736 136.631C694.508 136.677 695.286 136.717 696.064 136.748C684.142 131.079 673.907 111.001 667.633 83.0066Z" fill="#72ACF1"/>
<path d="M644.306 83.0066H643.177C645.938 90.4755 649.197 97.4766 652.929 103.883C662.187 119.782 673.581 130.708 686.013 135.914C687.411 136.087 688.819 136.239 690.228 136.367C670.994 130.22 654.505 110.401 644.306 83.0066Z" fill="#72ACF1"/>
<path d="M751.778 103.883C755.51 97.4766 758.774 90.4755 761.53 83.0066H760.401C750.406 109.867 734.359 129.442 715.603 135.99C717.027 135.817 718.445 135.624 719.859 135.406C731.838 130.016 742.81 119.278 751.778 103.883Z" fill="#72ACF1"/>
<path d="M732.239 103.796C734.492 97.4156 736.454 90.445 738.122 83.0066H737.079C730.856 110.772 720.738 130.753 708.948 136.606C709.736 136.555 710.524 136.494 711.307 136.428C719.203 131.445 726.428 120.285 732.239 103.796Z" fill="#72ACF1"/>
<path d="M597.276 51.6365C599.935 51.6365 602.091 49.4809 602.091 46.8217C602.091 44.1625 599.935 42.0068 597.276 42.0068C594.617 42.0068 592.461 44.1625 592.461 46.8217C592.461 49.4809 594.617 51.6365 597.276 51.6365Z" fill="white"/>
<path d="M622.189 51.6368C624.848 51.6368 627.004 49.4811 627.004 46.8219C627.004 44.1628 624.848 42.0071 622.189 42.0071C619.53 42.0071 617.374 44.1628 617.374 46.8219C617.374 49.4811 619.53 51.6368 622.189 51.6368Z" fill="white"/>
<path d="M675.574 51.6368C678.234 51.6368 680.389 49.4811 680.389 46.8219C680.389 44.1628 678.234 42.0071 675.574 42.0071C672.915 42.0071 670.76 44.1628 670.76 46.8219C670.76 49.4811 672.915 51.6368 675.574 51.6368Z" fill="white"/>
<path d="M702.521 51.6368C705.181 51.6368 707.336 49.4811 707.336 46.8219C707.336 44.1628 705.181 42.0071 702.521 42.0071C699.862 42.0071 697.707 44.1628 697.707 46.8219C697.707 49.4811 699.862 51.6368 702.521 51.6368Z" fill="white"/>
<path d="M728.96 51.6368C731.619 51.6368 733.775 49.4811 733.775 46.8219C733.775 44.1628 731.619 42.0071 728.96 42.0071C726.301 42.0071 724.145 44.1628 724.145 46.8219C724.145 49.4811 726.301 51.6368 728.96 51.6368Z" fill="white"/>
<path d="M783.245 51.6368C785.904 51.6368 788.06 49.4811 788.06 46.8219C788.06 44.1628 785.904 42.0071 783.245 42.0071C780.586 42.0071 778.43 44.1628 778.43 46.8219C778.43 49.4811 780.586 51.6368 783.245 51.6368Z" fill="white"/>
<path d="M808.158 51.6368C810.818 51.6368 812.973 49.4811 812.973 46.8219C812.973 44.1628 810.818 42.0071 808.158 42.0071C805.499 42.0071 803.344 44.1628 803.344 46.8219C803.344 49.4811 805.499 51.6368 808.158 51.6368Z" fill="white"/>
<path d="M644.479 119.136L583.04 98.6562C582.374 98.4325 582.013 97.7156 582.236 97.0496C582.46 96.3835 583.177 96.0225 583.843 96.2462L645.282 116.726C645.948 116.95 646.309 117.666 646.085 118.333C645.862 118.999 645.145 119.36 644.479 119.136Z" fill="#72ACF1"/>
<path d="M798.244 73.6414H604.45L609.534 83.0067H793.16L798.244 73.6414Z" fill="url(#paint4_radial)"/>
<path d="M636.166 98.331H543.631C542.386 98.331 541.374 97.3192 541.374 96.0735V94.5787C541.374 93.3331 542.386 92.3213 543.631 92.3213H636.166C637.412 92.3213 638.423 93.3331 638.423 94.5787V96.0735C638.423 97.3192 637.412 98.331 636.166 98.331Z" fill="#C7E0F4"/>
<path d="M543.631 94.8635C542.563 94.8635 541.679 95.6058 541.44 96.5973C541.679 97.5887 542.563 98.331 543.631 98.331H636.166C637.234 98.331 638.118 97.5887 638.357 96.5973C638.118 95.6058 637.234 94.8635 636.166 94.8635H543.631Z" fill="#72ACF1"/>
<path d="M580.742 16.4579C580.742 22.2388 581.148 27.9231 581.936 33.4853H820.335C821.123 27.9231 821.53 22.2388 821.53 16.4579C821.53 16.1528 821.52 15.8478 821.52 15.5427C771.267 4.99784 691.331 1.26086 581.825 0.284668C581.118 5.57745 580.742 10.9719 580.742 16.4579Z" fill="#2B88D8"/>
<path d="M618.345 103.863C639.923 124.312 669.061 136.855 701.138 136.855C733.215 136.855 762.354 124.312 783.932 103.863H618.345Z" fill="#2B88D8"/>
<path d="M712.649 103.863H711.638C709.472 121.287 706.721 132.828 703.914 136.819C704.087 136.814 704.265 136.809 704.438 136.809C704.642 136.804 704.845 136.794 705.048 136.789C708.14 131.765 710.702 119.807 712.649 103.863Z" fill="#106EBE"/>
<path d="M700.813 136.85C698.001 132.89 695.241 121.333 693.07 103.863H692.058C694.015 119.869 696.588 131.852 699.689 136.84C700.066 136.84 700.437 136.85 700.813 136.85Z" fill="#106EBE"/>
<path d="M693.72 136.621C693.934 136.631 694.142 136.646 694.356 136.662C694.829 136.687 695.307 136.712 695.78 136.733C695.871 136.738 695.963 136.738 696.054 136.743C687.365 132.609 679.576 120.804 673.556 103.863H672.493C678.381 120.534 685.713 131.745 693.72 136.621Z" fill="#106EBE"/>
<path d="M633.4 103.944C644.428 117.514 657.612 127.459 672.01 133.301C672.326 133.377 672.641 133.453 672.956 133.53C673.424 133.641 673.892 133.753 674.359 133.86C674.725 133.941 675.091 134.023 675.458 134.104C676.007 134.226 676.561 134.338 677.115 134.45C677.374 134.501 677.639 134.557 677.898 134.607C678.615 134.75 679.337 134.882 680.059 135.009C662.66 129.818 647.082 118.851 634.722 103.863H633.329C633.359 103.888 633.38 103.918 633.4 103.944Z" fill="#106EBE"/>
<path d="M771.368 18.4917C771.368 23.571 771.18 28.5739 770.824 33.4854H771.846C772.202 28.5485 772.385 23.5455 772.385 18.4917C772.385 15.0293 772.294 11.5872 772.126 8.17562C771.785 8.14003 771.444 8.10444 771.099 8.06885C771.277 11.5059 771.368 14.9784 771.368 18.4917Z" fill="#106EBE"/>
<path d="M799.052 18.4919C799.052 23.5712 798.793 28.5741 798.29 33.4856H799.317C799.81 28.5487 800.069 23.5458 800.069 18.4919C800.069 16.2142 800.013 13.9465 799.912 11.6891C799.571 11.6383 799.23 11.5823 798.885 11.5315C798.991 13.8398 799.052 16.1582 799.052 18.4919Z" fill="#106EBE"/>
<path d="M743.684 18.4918C743.684 23.571 743.572 28.574 743.354 33.4854H744.371C744.584 28.5485 744.696 23.5456 744.696 18.4918C744.696 14.1904 744.615 9.92467 744.457 5.70468C744.116 5.67926 743.776 5.65384 743.435 5.62842C743.598 9.85858 743.684 14.1447 743.684 18.4918Z" fill="#106EBE"/>
<path d="M606.418 33.4853C605.919 28.5739 605.655 23.5709 605.655 18.4917C605.655 12.4006 606.031 6.4113 606.748 0.564325C606.402 0.559241 606.057 0.554157 605.706 0.549072C604.999 6.43672 604.638 12.4311 604.638 18.4917C604.638 23.5455 604.892 28.5484 605.39 33.4853H606.418Z" fill="#106EBE"/>
<path d="M660.423 1.65259C660.154 7.18433 660.011 12.8076 660.011 18.4919C660.011 23.5457 660.123 28.5487 660.337 33.4855H661.354C661.14 28.5741 661.023 23.5711 661.023 18.4919C661.023 12.7873 661.166 7.17416 661.435 1.68309C661.099 1.67293 660.759 1.66276 660.423 1.65259Z" fill="#106EBE"/>
<path d="M633.054 1.00171C632.571 6.74699 632.322 12.5889 632.322 18.4918C632.322 23.5456 632.505 28.5486 632.861 33.4855H633.883C633.527 28.574 633.339 23.571 633.339 18.4918C633.339 12.5584 633.593 6.72666 634.076 1.02205C633.741 1.01696 633.395 1.00679 633.054 1.00171Z" fill="#106EBE"/>
<path d="M716 18.4919C716 23.6118 715.964 28.6148 715.888 33.4856H716.895C716.976 28.4978 717.017 23.4898 717.017 18.4919C717.017 13.6364 716.976 8.77067 716.905 3.92531C716.569 3.90497 716.234 3.88972 715.898 3.86938C715.959 8.62831 716 13.4991 716 18.4919Z" fill="#106EBE"/>
<path d="M687.833 2.57251C687.741 7.86529 687.695 13.1886 687.695 18.4915C687.695 23.4894 687.736 28.4975 687.818 33.4852H688.824C688.753 28.6144 688.712 23.6114 688.712 18.4915C688.712 13.0615 688.753 7.7636 688.834 2.6081C688.499 2.59793 688.168 2.58268 687.833 2.57251Z" fill="#106EBE"/>
<path d="M769.99 103.863C758.622 117.656 744.518 128.038 728.787 133.657C728.97 133.616 729.148 133.57 729.331 133.53C729.773 133.423 730.216 133.316 730.658 133.204C731.212 133.067 731.761 132.919 732.31 132.772C732.758 132.655 733.2 132.533 733.642 132.406C734.212 132.248 734.776 132.086 735.341 131.918C735.646 131.826 735.951 131.735 736.251 131.643C736.505 131.567 736.754 131.486 737.008 131.404C749.724 125.41 761.388 116.146 771.297 103.944C771.317 103.918 771.343 103.888 771.363 103.857H769.99V103.863Z" fill="#106EBE"/>
<path d="M693.72 136.621C693.934 136.631 694.142 136.646 694.356 136.662C694.829 136.687 695.307 136.712 695.78 136.733C695.871 136.738 695.963 136.738 696.054 136.743C687.365 132.609 679.576 120.804 673.556 103.863H672.493C678.381 120.534 685.713 131.745 693.72 136.621Z" fill="#106EBE"/>
<path d="M652.934 103.883C662.193 119.777 673.587 130.708 686.013 135.914C686.038 135.919 686.064 135.919 686.094 135.924C686.44 135.97 686.791 136.006 687.141 136.046C687.624 136.102 688.112 136.158 688.595 136.209C689.028 136.255 689.46 136.296 689.892 136.336C689.999 136.346 690.111 136.357 690.217 136.367C676.302 131.918 663.835 120.316 654.139 103.873H652.924C652.924 103.868 652.929 103.873 652.934 103.883Z" fill="#106EBE"/>
<path d="M751.778 103.883C751.783 103.878 751.783 103.868 751.788 103.863H750.578C741.142 119.873 729.077 131.287 715.608 135.99C716.056 135.934 716.503 135.879 716.946 135.818C717.352 135.767 717.759 135.711 718.166 135.655C718.598 135.594 719.035 135.528 719.467 135.462C719.605 135.441 719.742 135.416 719.879 135.396C731.848 130.006 742.81 119.273 751.778 103.883Z" fill="#106EBE"/>
<path d="M732.214 103.863H731.156C725.213 120.605 717.53 132.33 708.963 136.595C709.162 136.585 709.365 136.575 709.563 136.56C709.955 136.534 710.351 136.504 710.743 136.473C710.936 136.458 711.124 136.443 711.317 136.423C719.198 131.44 726.408 120.305 732.214 103.863Z" fill="#106EBE"/>
<path d="M338.779 473.457C509.923 473.457 648.663 458.645 648.663 440.373C648.663 422.102 509.923 407.29 338.779 407.29C167.634 407.29 28.8942 422.102 28.8942 440.373C28.8942 458.645 167.634 473.457 338.779 473.457Z" fill="#EE8F94"/>
<path d="M339.023 473.218C509.631 473.218 647.936 458.49 647.936 440.322C647.936 422.155 509.631 407.427 339.023 407.427C168.415 407.427 30.1094 422.155 30.1094 440.322C30.1094 458.49 168.415 473.218 339.023 473.218Z" fill="#EE8E93"/>
<path d="M339.267 472.984C509.336 472.984 647.204 458.34 647.204 440.276C647.204 422.212 509.336 407.569 339.267 407.569C169.198 407.569 31.3297 422.212 31.3297 440.276C31.3297 458.34 169.198 472.984 339.267 472.984Z" fill="#ED8E93"/>
<path d="M339.511 472.75C509.043 472.75 646.477 458.191 646.477 440.231C646.477 422.271 509.043 407.711 339.511 407.711C169.978 407.711 32.5447 422.271 32.5447 440.231C32.5447 458.191 169.978 472.75 339.511 472.75Z" fill="#ED8D92"/>
<path d="M339.755 472.516C508.751 472.516 645.75 458.041 645.75 440.185C645.75 422.329 508.751 407.854 339.755 407.854C170.758 407.854 33.7599 422.329 33.7599 440.185C33.7599 458.041 170.758 472.516 339.755 472.516Z" fill="#ED8C92"/>
<path d="M339.994 472.282C508.454 472.282 645.018 457.891 645.018 440.139C645.018 422.387 508.454 407.996 339.994 407.996C171.534 407.996 34.97 422.387 34.97 440.139C34.97 457.891 171.534 472.282 339.994 472.282Z" fill="#EC8C91"/>
<path d="M340.238 472.048C508.162 472.048 644.291 457.741 644.291 440.093C644.291 422.445 508.162 408.138 340.238 408.138C172.314 408.138 36.1852 422.445 36.1852 440.093C36.1852 457.741 172.314 472.048 340.238 472.048Z" fill="#EC8B91"/>
<path d="M340.482 471.815C507.869 471.815 643.564 457.592 643.564 440.048C643.564 422.504 507.869 408.281 340.482 408.281C173.095 408.281 37.4003 422.504 37.4003 440.048C37.4003 457.592 173.095 471.815 340.482 471.815Z" fill="#EC8A90"/>
<path d="M340.726 471.581C507.577 471.581 642.836 457.443 642.836 440.002C642.836 422.562 507.577 408.423 340.726 408.423C173.875 408.423 38.6154 422.562 38.6154 440.002C38.6154 457.443 173.875 471.581 340.726 471.581Z" fill="#EB8A8F"/>
<path d="M340.97 471.347C507.285 471.347 642.109 457.293 642.109 439.957C642.109 422.62 507.285 408.566 340.97 408.566C174.655 408.566 39.8306 422.62 39.8306 439.957C39.8306 457.293 174.655 471.347 340.97 471.347Z" fill="#EB898F"/>
<path d="M341.209 471.113C506.987 471.113 641.377 457.143 641.377 439.911C641.377 422.678 506.987 408.708 341.209 408.708C175.431 408.708 41.0407 422.678 41.0407 439.911C41.0407 457.143 175.431 471.113 341.209 471.113Z" fill="#EA898E"/>
<path d="M341.453 470.879C506.692 470.879 640.645 456.993 640.645 439.864C640.645 422.736 506.692 408.85 341.453 408.85C176.214 408.85 42.2609 422.736 42.2609 439.864C42.2609 456.993 176.214 470.879 341.453 470.879Z" fill="#EA888E"/>
<path d="M341.697 470.645C506.4 470.645 639.918 456.844 639.918 439.819C639.918 422.794 506.4 408.993 341.697 408.993C176.994 408.993 43.4761 422.794 43.4761 439.819C43.4761 456.844 176.994 470.645 341.697 470.645Z" fill="#EA878D"/>
<path d="M341.941 470.411C506.108 470.411 639.191 456.694 639.191 439.773C639.191 422.852 506.108 409.135 341.941 409.135C177.775 409.135 44.6912 422.852 44.6912 439.773C44.6912 456.694 177.775 470.411 341.941 470.411Z" fill="#E9878D"/>
<path d="M342.185 470.177C505.815 470.177 638.464 456.544 638.464 439.727C638.464 422.91 505.815 409.277 342.185 409.277C178.555 409.277 45.9064 422.91 45.9064 439.727C45.9064 456.544 178.555 470.177 342.185 470.177Z" fill="#E9868C"/>
<path d="M342.424 469.943C505.518 469.943 637.732 456.395 637.732 439.681C637.732 422.968 505.518 409.419 342.424 409.419C179.33 409.419 47.1165 422.968 47.1165 439.681C47.1165 456.395 179.33 469.943 342.424 469.943Z" fill="#E9858C"/>
<path d="M342.668 469.71C505.226 469.71 637.005 456.246 637.005 439.636C637.005 423.027 505.226 409.562 342.668 409.562C180.111 409.562 48.3315 423.027 48.3315 439.636C48.3315 456.246 180.111 469.71 342.668 469.71Z" fill="#E8858B"/>
<path d="M342.912 469.476C504.934 469.476 636.278 456.096 636.278 439.59C636.278 423.085 504.934 409.705 342.912 409.705C180.891 409.705 49.5468 423.085 49.5468 439.59C49.5468 456.096 180.891 469.476 342.912 469.476Z" fill="#E8848A"/>
<path d="M343.156 469.242C504.641 469.242 635.551 455.946 635.551 439.544C635.551 423.143 504.641 409.847 343.156 409.847C181.671 409.847 50.7619 423.143 50.7619 439.544C50.7619 455.946 181.671 469.242 343.156 469.242Z" fill="#E8838A"/>
<path d="M343.395 469.008C504.341 469.008 634.813 455.796 634.813 439.499C634.813 423.201 504.341 409.989 343.395 409.989C182.449 409.989 51.9771 423.201 51.9771 439.499C51.9771 455.796 182.449 469.008 343.395 469.008Z" fill="#E78389"/>
<path d="M343.639 468.774C504.049 468.774 634.086 455.646 634.086 439.453C634.086 423.259 504.049 410.131 343.639 410.131C183.23 410.131 53.1922 423.259 53.1922 439.453C53.1922 455.646 183.23 468.774 343.639 468.774Z" fill="#E78289"/>
<path d="M343.883 468.54C503.757 468.54 633.359 455.497 633.359 439.407C633.359 423.317 503.757 410.274 343.883 410.274C184.01 410.274 54.4073 423.317 54.4073 439.407C54.4073 455.497 184.01 468.54 343.883 468.54Z" fill="#E78188"/>
<path d="M344.127 468.306C503.464 468.306 632.632 455.347 632.632 439.361C632.632 423.375 503.464 410.416 344.127 410.416C184.791 410.416 55.6226 423.375 55.6226 439.361C55.6226 455.347 184.791 468.306 344.127 468.306Z" fill="#E68188"/>
<path d="M344.371 468.072C503.172 468.072 631.905 455.198 631.905 439.316C631.905 423.434 503.172 410.559 344.371 410.559C185.571 410.559 56.8376 423.434 56.8376 439.316C56.8376 455.198 185.571 468.072 344.371 468.072Z" fill="#E68087"/>
<path d="M344.61 467.839C502.875 467.839 631.173 455.048 631.173 439.27C631.173 423.492 502.875 410.701 344.61 410.701C186.346 410.701 58.0477 423.492 58.0477 439.27C58.0477 455.048 186.346 467.839 344.61 467.839Z" fill="#E58086"/>
<path d="M344.854 467.605C502.582 467.605 630.446 454.898 630.446 439.224C630.446 423.55 502.582 410.843 344.854 410.843C187.127 410.843 59.2629 423.55 59.2629 439.224C59.2629 454.898 187.127 467.605 344.854 467.605Z" fill="#E57F86"/>
<path d="M345.098 467.371C502.29 467.371 629.719 454.749 629.719 439.178C629.719 423.608 502.29 410.986 345.098 410.986C187.907 410.986 60.478 423.608 60.478 439.178C60.478 454.749 187.907 467.371 345.098 467.371Z" fill="#E57E85"/>
<path d="M345.343 467.137C501.995 467.137 628.987 454.599 628.987 439.132C628.987 423.666 501.995 411.128 345.343 411.128C188.69 411.128 61.6982 423.666 61.6982 439.132C61.6982 454.599 188.69 467.137 345.343 467.137Z" fill="#E47E85"/>
<path d="M345.587 466.903C501.703 466.903 628.26 454.449 628.26 439.087C628.26 423.724 501.703 411.271 345.587 411.271C189.47 411.271 62.9134 423.724 62.9134 439.087C62.9134 454.449 189.47 466.903 345.587 466.903Z" fill="#E47D84"/>
<path d="M345.826 466.669C501.405 466.669 627.528 454.299 627.528 439.041C627.528 423.782 501.405 411.413 345.826 411.413C190.246 411.413 64.1235 423.782 64.1235 439.041C64.1235 454.299 190.246 466.669 345.826 466.669Z" fill="#E47C84"/>
<path d="M346.07 466.435C501.113 466.435 626.801 454.15 626.801 438.995C626.801 423.841 501.113 411.555 346.07 411.555C191.026 411.555 65.3387 423.841 65.3387 438.995C65.3387 454.15 191.026 466.435 346.07 466.435Z" fill="#E37C83"/>
<path d="M346.314 466.201C500.821 466.201 626.073 454 626.073 438.949C626.073 423.898 500.821 411.697 346.314 411.697C191.807 411.697 66.5538 423.898 66.5538 438.949C66.5538 454 191.807 466.201 346.314 466.201Z" fill="#E37B82"/>
<path d="M346.558 465.968C500.529 465.968 625.346 453.851 625.346 438.904C625.346 423.957 500.529 411.84 346.558 411.84C192.587 411.84 67.769 423.957 67.769 438.904C67.769 453.851 192.587 465.968 346.558 465.968Z" fill="#E37A82"/>
<path d="M346.802 465.729C500.236 465.729 624.619 453.696 624.619 438.853C624.619 424.01 500.236 411.977 346.802 411.977C193.367 411.977 68.9841 424.01 68.9841 438.853C68.9841 453.696 193.367 465.729 346.802 465.729Z" fill="#E27A81"/>
<path d="M347.041 465.495C499.939 465.495 623.887 453.546 623.887 438.807C623.887 424.068 499.939 412.12 347.041 412.12C194.143 412.12 70.1942 424.068 70.1942 438.807C70.1942 453.546 194.143 465.495 347.041 465.495Z" fill="#E27981"/>
<path d="M347.285 465.261C499.647 465.261 623.16 453.396 623.16 438.761C623.16 424.126 499.647 412.262 347.285 412.262C194.923 412.262 71.4093 424.126 71.4093 438.761C71.4093 453.396 194.923 465.261 347.285 465.261Z" fill="#E27880"/>
<path d="M347.529 465.027C499.351 465.027 622.428 453.247 622.428 438.716C622.428 424.184 499.351 412.404 347.529 412.404C195.706 412.404 72.6296 424.184 72.6296 438.716C72.6296 453.247 195.706 465.027 347.529 465.027Z" fill="#E17880"/>
<path d="M347.773 464.793C499.059 464.793 621.701 453.097 621.701 438.67C621.701 424.242 499.059 412.546 347.773 412.546C196.487 412.546 73.8447 424.242 73.8447 438.67C73.8447 453.097 196.487 464.793 347.773 464.793Z" fill="#E1777F"/>
<path d="M348.012 464.559C498.762 464.559 620.969 452.948 620.969 438.624C620.969 424.301 498.762 412.689 348.012 412.689C197.262 412.689 75.0548 424.301 75.0548 438.624C75.0548 452.948 197.262 464.559 348.012 464.559Z" fill="#E0767E"/>
<path d="M348.256 464.326C498.469 464.326 620.242 452.798 620.242 438.579C620.242 424.359 498.469 412.832 348.256 412.832C198.042 412.832 76.2699 424.359 76.2699 438.579C76.2699 452.798 198.042 464.326 348.256 464.326Z" fill="#E0767E"/>
<path d="M348.5 464.091C498.177 464.091 619.515 452.648 619.515 438.533C619.515 424.417 498.177 412.974 348.5 412.974C198.823 412.974 77.4851 424.417 77.4851 438.533C77.4851 452.648 198.823 464.091 348.5 464.091Z" fill="#E0757D"/>
<path d="M348.744 463.858C497.885 463.858 618.788 452.499 618.788 438.487C618.788 424.475 497.885 413.116 348.744 413.116C199.603 413.116 78.7003 424.475 78.7003 438.487C78.7003 452.499 199.603 463.858 348.744 463.858Z" fill="#DF757D"/>
<path d="M348.988 463.624C497.593 463.624 618.061 452.349 618.061 438.441C618.061 424.533 497.593 413.258 348.988 413.258C200.383 413.258 79.9154 424.533 79.9154 438.441C79.9154 452.349 200.383 463.624 348.988 463.624Z" fill="#DF747C"/>
<path d="M349.227 463.39C497.295 463.39 617.329 452.2 617.329 438.395C617.329 424.591 497.295 413.401 349.227 413.401C201.159 413.401 81.1255 424.591 81.1255 438.395C81.1255 452.2 201.159 463.39 349.227 463.39Z" fill="#DF737C"/>
<path d="M349.471 463.156C497 463.156 616.596 452.05 616.596 438.349C616.596 424.649 497 413.543 349.471 413.543C201.942 413.543 82.3457 424.649 82.3457 438.349C82.3457 452.05 201.942 463.156 349.471 463.156Z" fill="#DE737B"/>
<path d="M349.715 462.922C496.708 462.922 615.869 451.9 615.869 438.304C615.869 424.708 496.708 413.686 349.715 413.686C202.722 413.686 83.5609 424.708 83.5609 438.304C83.5609 451.9 202.722 462.922 349.715 462.922Z" fill="#DE727B"/>
<path d="M349.959 462.688C496.416 462.688 615.142 451.75 615.142 438.258C615.142 424.765 496.416 413.828 349.959 413.828C203.503 413.828 84.7761 424.765 84.7761 438.258C84.7761 451.75 203.503 462.688 349.959 462.688Z" fill="#DE717A"/>
<path d="M350.203 462.454C496.123 462.454 614.415 451.601 614.415 438.212C614.415 424.824 496.123 413.97 350.203 413.97C204.283 413.97 85.9911 424.824 85.9911 438.212C85.9911 451.601 204.283 462.454 350.203 462.454Z" fill="#DD7179"/>
<path d="M350.442 462.221C495.826 462.221 613.683 451.451 613.683 438.167C613.683 424.882 495.826 414.113 350.442 414.113C205.058 414.113 87.2012 424.882 87.2012 438.167C87.2012 451.451 205.058 462.221 350.442 462.221Z" fill="#DD7079"/>
<path d="M350.686 461.987C495.534 461.987 612.956 451.301 612.956 438.121C612.956 424.94 495.534 414.255 350.686 414.255C205.839 414.255 88.4164 424.94 88.4164 438.121C88.4164 451.301 205.839 461.987 350.686 461.987Z" fill="#DD6F78"/>
<path d="M350.93 461.753C495.242 461.753 612.229 451.152 612.229 438.075C612.229 424.998 495.242 414.397 350.93 414.397C206.619 414.397 89.6316 424.998 89.6316 438.075C89.6316 451.152 206.619 461.753 350.93 461.753Z" fill="#DC6F78"/>
<path d="M351.174 461.524C494.949 461.524 611.502 451.005 611.502 438.029C611.502 425.054 494.949 414.535 351.174 414.535C207.399 414.535 90.8467 425.054 90.8467 438.029C90.8467 451.005 207.399 461.524 351.174 461.524Z" fill="#DC6E77"/>
<path d="M351.418 461.29C494.654 461.29 610.77 450.855 610.77 437.983C610.77 425.111 494.654 414.677 351.418 414.677C208.182 414.677 92.067 425.111 92.067 437.983C92.067 450.855 208.182 461.29 351.418 461.29Z" fill="#DC6D77"/>
<path d="M351.657 461.056C494.357 461.056 610.038 450.706 610.038 437.938C610.038 425.17 494.357 414.819 351.657 414.819C208.958 414.819 93.277 425.17 93.277 437.938C93.277 450.706 208.958 461.056 351.657 461.056Z" fill="#DB6D76"/>
<path d="M351.901 460.822C494.064 460.822 609.31 450.556 609.31 437.892C609.31 425.228 494.064 414.961 351.901 414.961C209.738 414.961 94.4922 425.228 94.4922 437.892C94.4922 450.556 209.738 460.822 351.901 460.822Z" fill="#DB6C75"/>
<path d="M352.145 460.588C493.772 460.588 608.583 450.406 608.583 437.846C608.583 425.286 493.772 415.104 352.145 415.104C210.519 415.104 95.7073 425.286 95.7073 437.846C95.7073 450.406 210.519 460.588 352.145 460.588Z" fill="#DA6C75"/>
<path d="M352.389 460.354C493.48 460.354 607.856 450.256 607.856 437.8C607.856 425.344 493.48 415.246 352.389 415.246C211.299 415.246 96.9225 425.344 96.9225 437.8C96.9225 450.256 211.299 460.354 352.389 460.354Z" fill="#DA6B74"/>
<path d="M352.633 460.121C493.188 460.121 607.129 450.107 607.129 437.755C607.129 425.402 493.188 415.389 352.633 415.389C212.079 415.389 98.1376 425.402 98.1376 437.755C98.1376 450.107 212.079 460.121 352.633 460.121Z" fill="#DA6A74"/>
<path d="M352.872 459.886C492.89 459.886 606.397 449.957 606.397 437.709C606.397 425.46 492.89 415.531 352.872 415.531C212.855 415.531 99.3477 425.46 99.3477 437.709C99.3477 449.957 212.855 459.886 352.872 459.886Z" fill="#D96A73"/>
<path d="M353.117 459.653C492.598 459.653 605.67 449.808 605.67 437.663C605.67 425.518 492.598 415.673 353.117 415.673C213.635 415.673 100.563 425.518 100.563 437.663C100.563 449.808 213.635 459.653 353.117 459.653Z" fill="#D96973"/>
<path d="M353.36 459.419C492.306 459.419 604.943 449.658 604.943 437.617C604.943 425.577 492.306 415.816 353.36 415.816C214.415 415.816 101.778 425.577 101.778 437.617C101.778 449.658 214.415 459.419 353.36 459.419Z" fill="#D96872"/>
<path d="M353.605 459.185C492.011 459.185 604.211 449.508 604.211 437.571C604.211 425.635 492.011 415.958 353.605 415.958C215.198 415.958 102.998 425.635 102.998 437.571C102.998 449.508 215.198 459.185 353.605 459.185Z" fill="#D86871"/>
<path d="M353.844 458.951C491.713 458.951 603.479 449.359 603.479 437.526C603.479 425.693 491.713 416.101 353.844 416.101C215.974 416.101 104.208 425.693 104.208 437.526C104.208 449.359 215.974 458.951 353.844 458.951Z" fill="#D86771"/>
<path d="M354.088 458.717C491.421 458.717 602.752 449.209 602.752 437.48C602.752 425.751 491.421 416.243 354.088 416.243C216.754 416.243 105.423 425.751 105.423 437.48C105.423 449.209 216.754 458.717 354.088 458.717Z" fill="#D86670"/>
<path d="M354.332 458.483C491.129 458.483 602.025 449.059 602.025 437.434C602.025 425.809 491.129 416.385 354.332 416.385C217.535 416.385 106.639 425.809 106.639 437.434C106.639 449.059 217.535 458.483 354.332 458.483Z" fill="#D76670"/>
<path d="M354.576 458.249C490.836 458.249 601.298 448.91 601.298 437.388C601.298 425.867 490.836 416.527 354.576 416.527C218.315 416.527 107.854 425.867 107.854 437.388C107.854 448.91 218.315 458.249 354.576 458.249Z" fill="#D7656F"/>
<path d="M354.82 458.011C490.544 458.011 600.571 448.755 600.571 437.338C600.571 425.921 490.544 416.665 354.82 416.665C219.095 416.665 109.069 425.921 109.069 437.338C109.069 448.755 219.095 458.011 354.82 458.011Z" fill="#D7646F"/>
<path d="M355.059 457.777C490.247 457.777 599.838 448.606 599.838 437.292C599.838 425.979 490.247 416.808 355.059 416.808C219.871 416.808 110.279 425.979 110.279 437.292C110.279 448.606 219.871 457.777 355.059 457.777Z" fill="#D6646E"/>
<path d="M355.303 457.543C489.954 457.543 599.111 448.456 599.111 437.246C599.111 426.037 489.954 416.95 355.303 416.95C220.651 416.95 111.494 426.037 111.494 437.246C111.494 448.456 220.651 457.543 355.303 457.543Z" fill="#D6636E"/>
<path d="M355.547 457.309C489.659 457.309 598.379 448.306 598.379 437.2C598.379 426.095 489.659 417.092 355.547 417.092C221.434 417.092 112.714 426.095 112.714 437.2C112.714 448.306 221.434 457.309 355.547 457.309Z" fill="#D5636D"/>
<path d="M355.791 457.075C489.367 457.075 597.652 448.156 597.652 437.155C597.652 426.153 489.367 417.234 355.791 417.234C222.215 417.234 113.93 426.153 113.93 437.155C113.93 448.156 222.215 457.075 355.791 457.075Z" fill="#D5626C"/>
<path d="M356.035 456.841C489.075 456.841 596.925 448.007 596.925 437.109C596.925 426.211 489.075 417.376 356.035 417.376C222.995 417.376 115.145 426.211 115.145 437.109C115.145 448.007 222.995 456.841 356.035 456.841Z" fill="#D5616C"/>
<path d="M356.274 456.607C488.777 456.607 596.193 447.857 596.193 437.063C596.193 426.269 488.777 417.519 356.274 417.519C223.77 417.519 116.355 426.269 116.355 437.063C116.355 447.857 223.77 456.607 356.274 456.607Z" fill="#D4616B"/>
<path d="M356.518 456.373C488.485 456.373 595.466 447.707 595.466 437.017C595.466 426.327 488.485 417.661 356.518 417.661C224.551 417.661 117.57 426.327 117.57 437.017C117.57 447.707 224.551 456.373 356.518 456.373Z" fill="#D4606B"/>
<path d="M356.762 456.14C488.193 456.14 594.739 447.558 594.739 436.972C594.739 426.385 488.193 417.804 356.762 417.804C225.331 417.804 118.785 426.385 118.785 436.972C118.785 447.558 225.331 456.14 356.762 456.14Z" fill="#D45F6A"/>
<path d="M357.006 455.906C487.901 455.906 594.012 447.408 594.012 436.926C594.012 426.444 487.901 417.946 357.006 417.946C226.111 417.946 120 426.444 120 436.926C120 447.408 226.111 455.906 357.006 455.906Z" fill="#D35F6A"/>
<path d="M357.25 455.672C487.608 455.672 593.285 447.258 593.285 436.88C593.285 426.502 487.608 418.088 357.25 418.088C226.892 418.088 121.215 426.502 121.215 436.88C121.215 447.258 226.892 455.672 357.25 455.672Z" fill="#D35E69"/>
<path d="M0 307.836V342.139C429.463 290.452 826.472 361.073 899 378.136V364.038C692.266 321.207 474.545 298.323 249.706 298.323C165.403 298.323 82.1017 301.551 0 307.836Z" fill="url(#paint5_radial)"/>
<path d="M707.911 261.766C710.194 260.164 712.97 259.229 715.964 259.229C722.203 259.229 727.49 263.296 729.321 268.919" stroke="#F7B548" stroke-width="3" stroke-miterlimit="10" stroke-linejoin="round"/>
<path d="M710.844 251.928C713.127 250.326 715.903 249.391 718.898 249.391C725.136 249.391 730.424 253.458 732.255 259.081" stroke="#F7B548" stroke-width="3" stroke-miterlimit="10" stroke-linejoin="round"/>
<path d="M713.773 242.095C716.056 240.493 718.832 239.558 721.827 239.558C728.065 239.558 733.353 243.625 735.183 249.248" stroke="#F7B548" stroke-width="3" stroke-miterlimit="10" stroke-linejoin="round"/>
<path d="M716.707 232.257C718.99 230.655 721.766 229.719 724.76 229.719C730.999 229.719 736.286 233.787 738.117 239.41" stroke="#F7B548" stroke-width="3" stroke-miterlimit="10" stroke-linejoin="round"/>
<path d="M721.984 285.515L704.825 283.659C703.721 283.542 702.918 282.546 703.04 281.442L703.538 276.841C703.655 275.738 704.652 274.934 705.755 275.056L722.915 276.912C724.018 277.029 724.821 278.026 724.699 279.129L724.201 283.73C724.084 284.834 723.093 285.632 721.984 285.515Z" fill="#3E8EED"/>
<path d="M657.596 319.829L635.271 317.114L640.513 308.781L654.505 310.484L657.596 319.829Z" fill="#33312D"/>
<path d="M681.762 322.803L659.432 320.083L664.674 311.75L678.671 313.458L681.762 322.803Z" fill="#33312D"/>
<path d="M705.831 325.844L683.501 323.129L688.743 314.795L702.74 316.499L705.831 325.844Z" fill="#33312D"/>
<path d="M702.369 296.044C702.079 296.024 701.799 295.882 701.616 295.633C701.286 295.18 701.382 294.545 701.835 294.209L707.875 289.776L709.289 279.683C709.365 279.129 709.878 278.753 710.438 278.819C710.992 278.895 711.383 279.409 711.302 279.968L709.828 290.487C709.792 290.757 709.645 291.006 709.421 291.164L703.035 295.846C702.842 295.999 702.603 296.06 702.369 296.044Z" fill="#C7E0F4"/>
<path d="M615.462 323.296C615.325 323.246 615.203 323.159 615.096 323.047C614.71 322.641 614.725 321.995 615.132 321.608L633.552 304.134C633.959 303.747 634.605 303.768 634.991 304.169C635.378 304.576 635.363 305.222 634.956 305.608L616.535 323.083C616.235 323.368 615.818 323.434 615.462 323.296Z" fill="#C7E0F4"/>
<path d="M720.845 336.592C720.423 336.694 719.966 336.511 719.732 336.114L707.036 314.318C706.752 313.835 706.919 313.209 707.402 312.93C707.885 312.65 708.511 312.813 708.79 313.296L721.486 335.092C721.771 335.575 721.603 336.201 721.12 336.48C721.033 336.536 720.942 336.572 720.845 336.592Z" fill="#C7E0F4"/>
<path d="M674.537 333.028C674.034 332.992 673.622 332.586 673.592 332.067L672.32 308.943C672.29 308.384 672.717 307.901 673.281 307.871C673.846 307.84 674.324 308.272 674.354 308.832L675.625 331.955C675.656 332.514 675.229 332.997 674.664 333.028C674.624 333.028 674.578 333.028 674.537 333.028Z" fill="#C7E0F4"/>
<path d="M723.931 320.577L611.37 306.946L677.806 258.563L723.931 320.577Z" fill="url(#paint6_radial)"/>
<path d="M688.458 288.657L644.016 283.171L635.734 289.201L690.838 296.329L688.458 288.657Z" fill="#2B88D8"/>
<path d="M694.661 317.033L723.931 320.577L677.806 258.563L677.634 258.685L694.661 317.033Z" fill="#3E8EED"/>
<path d="M688.534 296.029L707.499 298.485L701.377 290.253L686.302 288.393L688.534 296.029Z" fill="#2B579A"/>
<path d="M47.391 319.25C47.391 319.25 66.9707 309.035 77.1851 283.492C87.3995 257.953 89.9569 224.753 89.9569 224.753L105.281 279.236L114.646 220.497C114.646 220.497 121.459 218.794 130.398 215.387C125.288 231.988 135.08 271.147 140.19 280.09C145.3 289.034 151.259 303.926 157.217 274.981C163.176 246.036 163.176 221.346 163.176 221.346L175.094 271.147L184.459 248.588C184.459 248.588 187.866 271.574 197.231 282.643C206.596 293.711 221.066 293.711 258.528 279.236C295.984 264.761 335.998 312.437 335.998 312.437L47.391 319.25Z" fill="#E3646A"/>
<path d="M478.591 344.086L476.294 427.573L484.72 427.805L487.017 344.318L478.591 344.086Z" fill="#605D5A"/>
<path d="M463.65 428.792L485.156 429.381C486.671 429.422 487.861 428.095 487.653 426.59L485.212 408.983L477.118 408.5C477.118 408.5 469.354 410.249 465.18 414.708C462.699 417.357 461.962 423.504 461.748 426.707C461.677 427.82 462.541 428.761 463.65 428.792Z" fill="#E8D441"/>
<path d="M502.058 344.737L499.761 428.224L508.188 428.456L510.484 344.969L502.058 344.737Z" fill="#605D5A"/>
<path d="M520.772 430.363L499.265 429.773C497.75 429.732 496.632 428.339 496.927 426.849L500.328 409.405L508.437 409.364C508.437 409.364 516.094 411.535 520.015 416.223C522.343 419.004 522.74 425.182 522.78 428.395C522.796 429.503 521.88 430.393 520.772 430.363Z" fill="#E8D441"/>
<path d="M453.644 252.95L540.916 255.35C542.721 255.401 544.145 256.906 544.094 258.711L543.697 273.079C543.646 274.884 542.141 276.307 540.337 276.257L453.064 273.857C451.259 273.806 449.836 272.301 449.886 270.496L450.283 256.128C450.334 254.323 451.839 252.899 453.644 252.95Z" fill="#D65847"/>
<path d="M544.394 272.428C545.782 272.469 546.916 273.537 547.053 274.92C547.587 280.238 547.795 285.729 547.638 291.342C546.926 317.226 535.995 340.019 522.999 354.662C518.347 359.904 507.121 359.269 495.62 359.177C483.189 359.075 470.453 359.08 465.76 353.178C453.583 337.848 443.968 314.45 444.68 288.51C444.833 282.892 445.341 277.421 446.17 272.144C446.383 270.771 447.573 269.764 448.961 269.8L544.394 272.428Z" fill="#E8D441"/>
<path d="M444.934 298.714L546.829 301.521C546.168 306.539 545.136 311.405 543.799 316.082L447.136 313.423C446.068 308.679 445.316 303.763 444.934 298.714Z" fill="#FAE969"/>
<path d="M488.598 317.175L504.309 317.607C505.453 317.638 506.409 316.738 506.439 315.589L506.871 299.878C506.902 298.734 506.002 297.779 504.853 297.748L489.142 297.316C487.998 297.285 487.043 298.185 487.012 299.334L486.58 315.045C486.549 316.189 487.454 317.145 488.598 317.175Z" fill="#512BD4"/>
<path d="M517.254 254.699C512.774 260.19 505.895 263.617 498.264 263.409C490.632 263.2 483.951 259.397 479.782 253.667L517.254 254.699Z" fill="#C9B22D"/>
<path d="M505.575 211.197L520.07 188.791C520.721 187.784 522.282 188.404 522.069 189.579L518.072 211.553C517.869 212.667 516.796 213.394 515.688 213.18L505.575 211.197Z" fill="#C9B22D"/>
<path d="M495.62 209.352L490.119 183.239C489.87 182.069 488.197 182.085 487.973 183.259L483.824 205.203C483.616 206.311 484.353 207.379 485.467 207.572L495.62 209.352Z" fill="#C9B22D"/>
<path d="M537.881 251.923L451.666 235.938C450.247 235.673 449.51 234.087 450.222 232.831C463.639 209.194 483.717 195.207 503.135 198.807C522.557 202.406 536.284 222.662 540.337 249.538C540.555 250.967 539.299 252.187 537.881 251.923Z" fill="#FAE969"/>
<path d="M498.045 237.727C506.11 237.727 512.647 231.19 512.647 223.125C512.647 215.061 506.11 208.523 498.045 208.523C489.981 208.523 483.443 215.061 483.443 223.125C483.443 231.19 489.981 237.727 498.045 237.727Z" fill="#E8D441"/>
<path d="M498.045 233.68C503.875 233.68 508.6 228.955 508.6 223.125C508.6 217.296 503.875 212.57 498.045 212.57C492.216 212.57 487.49 217.296 487.49 223.125C487.49 228.955 492.216 233.68 498.045 233.68Z" fill="#D65847"/>
<path d="M569.449 288.779C569.104 283.187 562.636 280.014 547.312 278.062C547.521 280.644 547.612 284.071 547.622 286.308C555.813 287.437 559.276 288.703 560.689 289.45C558.965 290.966 553.393 294.58 535.964 300.056C523.736 303.895 511.89 306.702 511.773 306.727L513.639 314.643C514.188 314.516 527.265 311.42 540.509 307.144C566.424 298.78 569.734 293.375 569.449 288.779Z" fill="#C9B22D"/>
<path d="M518.382 332.993L487.531 342.47L458.937 335.489L435.264 345.678L407.936 336.15L391.757 270.12L419.086 279.653L442.758 269.459L471.358 276.445L502.209 266.968L518.382 332.993Z" fill="#FAF9F8"/>
<path d="M458.921 335.494L458.936 335.489L487.531 342.47L471.357 276.445L442.895 269.494L458.921 335.494Z" fill="#C7E0F4"/>
<path d="M419.131 279.632L419.086 279.653L391.757 270.12L407.936 336.15L435.188 345.652L419.131 279.632Z" fill="#C7E0F4"/>
<path d="M520.853 308.898L509.876 298.358L513.11 311.41L511.503 318.37L495.772 323.246L502.097 328.635L517.457 323.876L520.853 308.898Z" fill="#D65847"/>
<path d="M392.978 309.406L403.283 320.8L412.232 318.873L414.84 311.13L405.77 313.077L400.909 307.703L397.792 294.799L392.978 309.406Z" fill="#D65847"/>
<path d="M215.702 232.409H218.743V297.962H228.312V232.409H231.886C233.899 232.409 235.536 234.042 235.536 236.06V334.752C235.536 336.765 233.904 338.402 231.886 338.402H215.708C213.694 338.402 212.057 336.77 212.057 334.752V236.06C212.052 234.042 213.689 232.409 215.702 232.409Z" fill="#FFD590"/>
<path d="M302.451 381.095L317.618 376.814L316.067 371.323C312.132 357.413 308.059 343.034 301.394 317.562C299.218 309.239 310.906 296.426 325.707 280.202C331.788 273.537 338.682 265.976 345.729 257.531L333.623 247.439C326.805 255.614 320.033 263.032 314.064 269.581C295.333 290.111 281.804 304.942 286.146 321.553C292.847 347.178 296.945 361.638 300.9 375.62L302.451 381.095Z" fill="url(#paint7_linear)"/>
<path d="M299.411 381.761C300.636 400.522 286.288 420.946 285.307 421.968C284.326 422.99 319.285 413.579 319.285 413.579C319.285 413.579 322.672 386.215 315.223 376.662C314.532 375.777 299.411 381.761 299.411 381.761Z" fill="#A08BE8"/>
<path d="M317.16 411.596L286.619 420.31C286.619 420.31 280.848 427.077 279.923 431.048C279.216 434.089 280.97 439.966 281.834 442.569C282.073 443.296 282.841 443.698 283.578 443.49L313.062 435.172C314.008 434.902 314.557 433.921 314.282 432.975C313.337 429.716 311.949 422.603 312.62 420.275C313.627 416.792 317.16 411.596 317.16 411.596Z" fill="#D0C5F3"/>
<path d="M316.545 373.687C327.7 391.802 334.142 423.676 334.366 425.395C334.681 427.774 334.818 429.462 331.564 430.377C327.512 431.511 310.123 436.382 310.123 436.382L303.799 378.629L316.545 373.687Z" fill="#8065E0"/>
<path d="M299.411 381.761C300.753 391.808 294.916 408.088 280.634 427.424C278.967 429.681 278.357 431.745 279.048 434.216L281.265 442.127C281.59 443.297 282.805 443.978 283.975 443.653L313.296 435.442C314.125 435.208 314.608 434.354 314.374 433.525L311.816 424.393C311.018 421.551 311.186 419.924 313.515 417.016C319.351 409.73 319.016 390.755 315.645 378.136C312.274 365.517 299.411 381.761 299.411 381.761Z" fill="#A08BE8"/>
<path d="M278.779 432.193C278.768 432.843 278.85 433.515 279.048 434.216L281.265 442.127C281.59 443.297 282.805 443.978 283.975 443.653L313.296 435.442C314.125 435.208 314.608 434.354 314.374 433.525L311.817 424.393C311.679 423.905 311.572 423.458 311.501 423.031L278.779 432.193Z" fill="#D0C5F3"/>
<path d="M292.43 359.172L312.823 353.462C314.709 352.933 316.662 354.036 317.191 355.918L322.209 373.835C322.738 375.721 321.634 377.673 319.753 378.202L299.36 383.912C297.474 384.441 295.521 383.337 294.992 381.456L289.974 363.539C289.445 361.658 290.544 359.7 292.43 359.172Z" fill="url(#paint8_radial)"/>
<path d="M301.47 317.862C297.097 319.326 290.783 321.456 286.497 322.905C286.38 322.453 286.263 322.005 286.141 321.548C284.946 316.982 285.109 312.548 286.354 308.1L301.221 314.114C301.063 315.335 301.109 316.489 301.389 317.562C301.419 317.663 301.444 317.76 301.47 317.862Z" fill="#A08BE8"/>
<path d="M323.709 282.393L310.525 273.465C310.947 273.003 311.374 272.53 311.806 272.057L324.995 280.985C324.558 281.463 324.131 281.931 323.709 282.393Z" fill="#A08BE8"/>
<path d="M291.225 340.715L306.208 335.748C306.371 336.363 306.539 336.968 306.697 337.568L291.713 342.536C291.555 341.936 291.388 341.331 291.225 340.715Z" fill="#A08BE8"/>
<path d="M296.197 290.218C296.579 289.72 296.965 289.216 297.362 288.713L311.222 296.609C310.815 297.107 310.413 297.605 310.027 298.093L296.197 290.218Z" fill="#A08BE8"/>
<path d="M353.808 372.971C360.84 305.761 357.626 259.901 357.484 257.979L341.763 258.035C341.799 258.492 345.002 304.526 338.128 370.246L353.808 372.971Z" fill="url(#paint9_linear)"/>
<path d="M337.853 385.865C335.509 404.357 317.562 420.443 316.403 421.181C315.243 421.918 351.357 421.811 351.357 421.811C351.357 421.811 359.858 396.176 354.347 384.995C353.833 383.963 337.853 385.865 337.853 385.865Z" fill="#A08BE8"/>
<path d="M349.639 419.34L318.004 419.915C318.004 419.915 311.059 424.984 309.401 428.594C308.135 431.355 308.746 437.507 309.101 440.247C309.203 441.01 309.879 441.6 310.642 441.589L341.163 441.132C342.144 441.116 342.866 440.303 342.775 439.317C342.465 435.92 342.444 428.67 343.548 426.585C345.19 423.464 349.639 419.34 349.639 419.34Z" fill="#D0C5F3"/>
<path d="M356.203 382.458C363.733 402.882 364.032 435.422 363.931 437.145C363.788 439.535 363.611 441.203 360.24 441.249C356.05 441.304 338.047 441.538 338.047 441.538L342.755 383.958L356.203 382.458Z" fill="#8065E0"/>
<path d="M337.853 385.865C337.274 395.942 328.463 410.214 310.784 425.258C308.72 427.018 307.734 428.858 307.942 431.431L308.624 439.667C308.725 440.888 309.788 441.859 310.998 441.844L341.341 441.442C342.195 441.432 342.831 440.725 342.765 439.861L341.982 430.353C341.738 427.394 342.206 425.864 345.048 423.642C352.161 418.085 355.415 399.618 354.489 386.526C353.559 373.439 337.853 385.865 337.853 385.865Z" fill="#A08BE8"/>
<path d="M308.059 429.402C307.927 430.033 307.881 430.699 307.942 431.431L308.624 439.667C308.725 440.888 309.788 441.859 310.998 441.844L341.341 441.442C342.195 441.432 342.831 440.725 342.76 439.861L341.977 430.353C341.936 429.845 341.916 429.382 341.926 428.95L308.059 429.402Z" fill="#D0C5F3"/>
<path d="M335.27 362.182L356.375 361.903C358.328 361.877 360.036 363.448 360.199 365.406L361.739 384.06C361.902 386.023 360.453 387.634 358.501 387.66L337.396 387.939C335.443 387.965 333.735 386.394 333.572 384.436L332.032 365.782C331.869 363.819 333.318 362.208 335.27 362.182Z" fill="url(#paint10_radial)"/>
<path d="M358.252 300.133C358.241 300.753 358.231 301.384 358.221 302.019L342.409 301.801C342.419 301.165 342.434 300.54 342.444 299.914L358.252 300.133Z" fill="#A08BE8"/>
<path d="M341.768 321.507L357.611 321.726C357.586 322.351 357.555 322.977 357.525 323.607L341.682 323.389C341.712 322.758 341.743 322.133 341.768 321.507Z" fill="#A08BE8"/>
<path d="M358.257 278.535C358.267 279.15 358.277 279.775 358.287 280.421L342.5 280.207C342.495 279.567 342.485 278.936 342.475 278.321L358.257 278.535Z" fill="#A08BE8"/>
<path d="M340.518 343.09L356.391 343.309C356.345 343.934 356.304 344.56 356.259 345.19L340.38 344.972C340.426 344.346 340.472 343.716 340.518 343.09Z" fill="#A08BE8"/>
<path d="M266.291 206.439C260.897 185.969 264.293 169.608 264.293 169.608L259.473 169.623L259.351 169.532C266.144 131.923 298.989 103.344 338.57 103.232C383.165 103.1 419.426 139.148 419.553 183.747C419.686 228.342 383.638 264.603 339.038 264.731C303.849 264.832 273.857 242.405 262.702 211.035C262.382 209.698 262.407 207.303 266.291 206.439Z" fill="url(#paint11_radial)"/>
<path d="M263.037 211.96C263.037 211.96 260.785 207.664 266.291 206.444C260.963 186.229 264.207 170.025 264.288 169.633L301.536 169.389C301.536 169.389 306.814 168.84 306.829 173.66C306.844 178.48 306.686 192.106 306.727 207.171C306.737 210.267 304.205 211.772 302.207 211.777L262.702 212.026C262.915 211.981 263.037 211.96 263.037 211.96Z" fill="url(#paint12_radial)"/>
<path d="M267.929 198.736C269.505 199.911 277.574 206.261 277.574 206.261L266.256 206.291C265.519 203.475 264.949 200.734 264.512 198.106C265.61 197.592 266.708 197.826 267.929 198.736Z" fill="#A08BE8"/>
<path d="M263.037 211.961C263.037 211.961 260.785 207.664 266.291 206.444C266.286 206.424 266.281 206.403 266.276 206.378L302.131 206.139C304.048 206.134 306.508 204.985 306.722 203.124C306.722 204.456 306.727 205.803 306.727 207.166C306.737 209.978 304.653 211.467 302.777 211.727C302.588 211.747 302.4 211.772 302.207 211.772L296.574 211.788L262.702 212.017C262.915 211.981 263.037 211.961 263.037 211.961Z" fill="url(#paint13_radial)"/>
<path d="M269.306 225.073L408.551 224.666C405.439 229.984 401.738 234.911 397.538 239.365L280.411 239.705C276.175 235.277 272.444 230.371 269.306 225.073Z" fill="url(#paint14_radial)"/>
<path d="M284.066 243.32C277.121 236.909 271.31 229.298 266.952 220.807L284.005 220.756L284.066 243.32Z" fill="#512BD4"/>
<path d="M283.436 199.239C286.923 199.15 289.627 194.324 289.477 188.459C289.327 182.595 286.379 177.914 282.892 178.003C279.406 178.092 276.701 182.919 276.851 188.783C277.001 194.647 279.95 199.328 283.436 199.239Z" fill="#512BD4"/>
<path d="M283.182 182.99C285.515 185.273 285.551 189.01 283.273 191.344C281.712 192.94 279.465 193.464 277.452 192.899C277.101 191.633 276.887 190.24 276.847 188.776C276.77 185.903 277.391 183.28 278.443 181.343C280.126 181.16 281.875 181.709 283.182 182.99Z" fill="#8065E0"/>
<path d="M313.194 119.532C313.403 121.002 312.605 122.486 311.171 123.081C292.384 130.936 278.316 146.947 272.566 166.003C271.015 171.148 264.436 169.791 266.129 164.163C272.438 143.185 287.91 125.552 308.588 116.909C310.291 116.197 312.254 117 312.966 118.704C313.082 118.973 313.154 119.253 313.194 119.532Z" fill="url(#paint15_radial)"/>
<path d="M339.104 256.697C339.109 256.697 339.109 256.697 339.114 256.697C358.536 256.642 376.779 249.025 390.471 235.247C404.163 221.468 411.678 203.19 411.622 183.763C411.571 166.4 405.302 149.606 393.974 136.484C392.688 134.994 390.441 134.831 388.956 136.118C387.466 137.404 387.304 139.651 388.585 141.136C398.804 152.977 404.458 168.123 404.504 183.788C404.555 201.309 397.777 217.802 385.422 230.234C373.067 242.66 356.615 249.534 339.089 249.585C337.121 249.59 335.535 251.186 335.54 253.154C335.55 255.111 337.142 256.697 339.104 256.697Z" fill="url(#paint16_radial)"/>
<path d="M214.554 235.427L205.187 232.13L133.834 434.863L143.201 438.16L214.554 235.427Z" fill="#FFD590"/>
<path d="M143.19 438.152L133.819 434.853L133.753 445.179L136.773 446.241L143.19 438.152Z" fill="#33312D"/>
<path d="M218.443 436.16L228.373 436.16L228.373 334.85L218.443 334.85L218.443 436.16Z" fill="#FFD590"/>
<path d="M218.438 436.159H228.373L225.007 445.926H221.804L218.438 436.159Z" fill="#33312D"/>
<path d="M235.531 326.058V334.752C235.531 336.765 233.899 338.402 231.881 338.402H215.702C213.689 338.402 212.052 336.77 212.052 334.752V326.058H235.531Z" fill="#33312D"/>
<path d="M304.225 437.002L313.592 433.705L242.238 230.972L232.872 234.268L304.225 437.002Z" fill="#FFD590"/>
<path d="M304.221 437.013L313.591 433.718L313.657 444.045L310.642 445.107L304.221 437.013Z" fill="#33312D"/>
<path d="M214.497 219.104H203.378V232.689H214.497V219.104Z" fill="#33312D"/>
<path d="M268.178 200.083H259.799C258.634 200.083 257.689 199.138 257.689 197.973V180.203C257.689 179.039 258.634 178.094 259.799 178.094H268.178C269.342 178.094 270.288 179.039 270.288 180.203V197.973C270.288 199.138 269.342 200.083 268.178 200.083Z" fill="#33312D"/>
<path d="M243.712 219.104H232.593V232.689H243.712V219.104Z" fill="#33312D"/>
<path d="M211.737 174.063C211.737 175.608 210.481 176.864 208.935 176.864H168.088C166.542 176.864 165.286 178.12 165.286 179.666V201.406C165.286 202.952 166.542 204.208 168.088 204.208H193.123C194.669 204.208 195.924 205.463 195.924 207.009V220.188C195.924 221.733 197.18 222.989 198.726 222.989H247.479C249.025 222.989 250.281 221.733 250.281 220.188V211C250.281 209.882 250.947 208.87 251.979 208.428L260.114 204.94C261.141 204.497 261.812 203.486 261.812 202.367V185.767V176.874V174.073C261.812 172.527 260.556 171.271 259.011 171.271H214.543C212.992 171.261 211.737 172.517 211.737 174.063Z" fill="#33312D"/>
<path d="M259.006 171.26H214.538C212.993 171.26 211.737 172.516 211.737 174.061C211.737 175.607 210.481 176.863 208.935 176.863H182.334V204.201H193.123C194.669 204.201 195.924 205.457 195.924 207.003V220.181C195.924 221.727 197.18 222.983 198.726 222.983H247.479C249.025 222.983 250.281 221.727 250.281 220.181V210.994C250.281 209.875 250.947 208.864 251.979 208.421L260.114 204.933C261.141 204.491 261.812 203.479 261.812 202.361V185.76V176.868V174.067C261.807 172.516 260.551 171.26 259.006 171.26Z" fill="#F7B548"/>
<path d="M254.918 184.433H220.599C220.07 184.433 219.643 184.006 219.643 183.478V178.144C219.643 177.615 220.07 177.188 220.599 177.188H254.918C255.447 177.188 255.874 177.615 255.874 178.144V183.478C255.879 184.006 255.447 184.433 254.918 184.433Z" fill="#33312D"/>
<path d="M208.467 184.093C206.032 186.707 201.944 186.864 199.321 184.439L192.965 178.572C190.027 175.821 189.752 171.393 192.36 168.678C194.963 165.963 199.458 165.993 202.402 168.744L208.198 173.955C211.101 176.568 211.304 181.053 208.64 183.915L208.467 184.093Z" fill="#D0C5F3"/>
<path d="M222.007 175.262C218.102 175.953 214.401 173.269 213.847 169.344L212.743 161.57C212.204 157.584 214.797 153.989 218.534 153.547C222.271 153.104 225.739 155.977 226.278 159.968L227.386 167.849C227.884 171.367 225.505 174.647 222.007 175.262Z" fill="#D0C5F3"/>
<path d="M213.531 178.343C209.866 179.706 205.783 177.875 204.364 174.23L201.436 166.725C199.997 162.968 201.7 158.875 205.234 157.589C208.767 156.302 212.804 158.306 214.238 162.063L217.329 169.73C218.717 173.162 216.999 177.057 213.531 178.343Z" fill="#D0C5F3"/>
<path d="M158.321 190.637H3.99628" stroke="#72ACF1" stroke-width="6" stroke-miterlimit="10" stroke-linecap="round" stroke-linejoin="round" stroke-dasharray="2 2"/>
<path d="M198.98 249.579H248.537C250.296 249.579 251.562 247.896 251.084 246.208L247.505 233.625C247.179 232.486 246.142 231.703 244.958 231.703H202.559C201.375 231.703 200.338 232.486 200.012 233.625L196.433 246.208C195.955 247.896 197.226 249.579 198.98 249.579Z" fill="#E86E58"/>
<path d="M246.239 243.768L250.139 229.171C266.49 232.867 281.25 235.623 293.935 233.096C319.214 228.057 330.344 199.122 332.937 190.962L350.371 196.153C339.989 218.041 322.183 265.524 246.239 243.768Z" fill="url(#paint17_linear)"/>
<path d="M301.795 246.813C301.206 246.971 300.611 247.128 300.011 247.271L296.075 232.597C296.675 232.44 297.26 232.262 297.845 232.079L301.795 246.813Z" fill="#A08BE8"/>
<path d="M278.275 249.269C277.665 249.248 277.045 249.213 276.419 249.182L277.35 233.833C277.97 233.879 278.59 233.924 279.201 233.955L278.275 249.269Z" fill="#A08BE8"/>
<path d="M322.27 236.797C321.782 237.168 321.289 237.529 320.785 237.89L310.774 225.179C311.257 224.798 311.74 224.417 312.203 224.02L322.27 236.797Z" fill="#A08BE8"/>
<path d="M337.294 220.725C336.908 221.29 336.511 221.854 336.104 222.418L322.366 212.585C322.717 212.077 323.063 211.563 323.393 211.055L337.294 220.725Z" fill="#A08BE8"/>
<path d="M240.86 231.011L231.733 219.825C229.323 216.831 229.989 212.56 233.213 210.287C236.441 208.015 241.007 208.604 243.417 211.599L252.772 223.064L240.86 231.011Z" fill="#D0C5F3"/>
<path d="M252.655 249.02L240.214 257.592C236.884 259.855 232.506 259.143 230.432 256.006C228.357 252.869 229.374 248.491 232.704 246.229L245.461 237.438L252.655 249.02Z" fill="#D0C5F3"/>
<path d="M239.965 238.816L226.125 232.765C222.449 231.128 220.751 227.035 222.337 223.624C223.924 220.212 228.19 218.768 231.866 220.405L246.056 226.608L239.965 238.816Z" fill="#D0C5F3"/>
<path d="M245.456 244.464L230.523 246.717C226.542 247.291 222.927 244.729 222.449 240.997C221.971 237.265 224.814 233.772 228.8 233.197L244.114 230.884L245.456 244.464Z" fill="#D0C5F3"/>
<path d="M258.629 225.632C252.299 220.476 242.654 221.122 237.087 227.071C231.52 233.019 232.135 242.019 238.465 247.174C244.795 252.33 254.44 251.684 260.007 245.735C265.575 239.787 264.959 230.782 258.629 225.632Z" fill="url(#paint18_radial)"/>
<path d="M342.383 203.51C350.572 203.51 357.209 196.873 357.209 188.685C357.209 180.496 350.572 173.859 342.383 173.859C334.195 173.859 327.558 180.496 327.558 188.685C327.558 196.873 334.195 203.51 342.383 203.51Z" fill="url(#paint19_radial)"/>
<path d="M316.22 106.603C291.718 113.319 290.493 122.507 304.393 120.885C335.23 117.29 361.526 124.103 384.227 137.912C391.02 142.046 393.684 120.885 393.684 120.885L316.22 106.603Z" fill="#6E66DF"/>
<path d="M347.173 114.108C361.943 127.789 380.973 136.753 387.873 139.748C389.352 140.388 391.071 139.763 391.793 138.324L396.862 128.272C396.862 128.267 328.798 97.0852 347.173 114.108Z" fill="#33312D"/>
<path d="M315.559 99.2409C315.559 99.2409 326.012 47.6401 369.986 61.0474C418.44 75.8174 403.807 119.451 403.36 125.115C402.917 130.779 330.695 110.706 324.604 108.789C318.513 106.862 317.033 98.8138 315.559 99.2409Z" fill="url(#paint20_radial)"/>
<path d="M403.604 125.242L413.625 130.749C414.291 131.115 414.606 131.903 414.378 132.63L414.088 133.55C413.828 134.374 412.959 134.841 412.125 134.608C402.78 131.943 353.391 119.044 344.071 116.517C333.796 113.726 320.389 113.289 310.24 110.091L292.384 104.437C291.545 104.173 291.078 103.273 291.342 102.434L291.555 101.758C291.754 101.127 292.318 100.685 292.979 100.644L315.203 99.2664C315.431 99.2511 315.66 99.2867 315.879 99.3681C320.272 101.076 368.598 119.68 403.085 125.069C403.268 125.095 403.441 125.156 403.604 125.242Z" fill="#FAE969"/>
<path d="M325.026 102.175L327.669 95.3616C328.025 94.4515 329.032 93.9786 329.957 94.2939L339.577 97.5478C340.492 97.858 341.011 98.8291 340.756 99.7595L338.804 106.898C338.524 107.92 337.441 108.489 336.445 108.144L326.134 104.564C325.153 104.224 324.654 103.141 325.026 102.175Z" fill="#FAE969"/>
<path d="M380.262 120.015L382.265 112.669C382.494 111.819 383.368 111.321 384.217 111.545L394.503 114.306C395.291 114.519 395.789 115.287 395.667 116.09C395.215 118.999 394.193 125.374 393.883 125.268C393.567 125.156 384.985 122.913 381.39 121.978C380.531 121.754 380.028 120.87 380.262 120.015Z" fill="#FAE969"/>
<path d="M400.396 92.4889C399.267 86.6267 385.976 61.7643 354.586 63.1829C348.215 63.4727 343.736 68.435 353.406 67.8706C381.294 66.2436 395.596 84.5828 400.396 92.4889Z" fill="white"/>
<path d="M335.657 42.9219C337.538 42.9219 339.063 41.3967 339.063 39.5154C339.063 37.634 337.538 36.1089 335.657 36.1089C333.776 36.1089 332.25 37.634 332.25 39.5154C332.25 41.3967 333.776 42.9219 335.657 42.9219Z" fill="#72ACF1"/>
<path d="M476.981 107.625C478.236 107.625 479.253 106.607 479.253 105.352C479.253 104.097 478.236 103.08 476.981 103.08C475.726 103.08 474.708 104.097 474.708 105.352C474.708 106.607 475.726 107.625 476.981 107.625Z" fill="#72ACF1"/>
<path d="M299.904 29.301C303.667 29.301 306.717 26.2508 306.717 22.488C306.717 18.7253 303.667 15.675 299.904 15.675C296.141 15.675 293.091 18.7253 293.091 22.488C293.091 26.2508 296.141 29.301 299.904 29.301Z" fill="#106EBE"/>
<path d="M228.393 114.433C229.96 114.433 231.23 113.163 231.23 111.596C231.23 110.029 229.96 108.759 228.393 108.759C226.826 108.759 225.556 110.029 225.556 111.596C225.556 113.163 226.826 114.433 228.393 114.433Z" fill="#72ACF1"/>
<path d="M197.745 70.1636C200.878 70.1636 203.419 67.6233 203.419 64.4895C203.419 61.3558 200.878 58.8154 197.745 58.8154C194.611 58.8154 192.07 61.3558 192.07 64.4895C192.07 67.6233 194.611 70.1636 197.745 70.1636Z" fill="#106EBE"/>
<path d="M602.975 163.812C605.048 163.812 606.728 162.132 606.728 160.06C606.728 157.987 605.048 156.307 602.975 156.307C600.903 156.307 599.223 157.987 599.223 160.06C599.223 162.132 600.903 163.812 602.975 163.812Z" fill="#106EBE"/>
<path d="M437.816 66.7622C441.579 66.7622 444.629 63.7119 444.629 59.9492C444.629 56.1865 441.579 53.1362 437.816 53.1362C434.053 53.1362 431.003 56.1865 431.003 59.9492C431.003 63.7119 434.053 66.7622 437.816 66.7622Z" fill="#106EBE"/>
<path d="M512.734 17.9529C513.989 17.9529 515.006 16.9353 515.006 15.6802C515.006 14.425 513.989 13.4075 512.734 13.4075C511.479 13.4075 510.461 14.425 510.461 15.6802C510.461 16.9353 511.479 17.9529 512.734 17.9529Z" fill="#72ACF1"/>
<path d="M582.547 255.752C584.428 255.752 585.953 254.227 585.953 252.345C585.953 250.464 584.428 248.939 582.547 248.939C580.665 248.939 579.14 250.464 579.14 252.345C579.14 254.227 580.665 255.752 582.547 255.752Z" fill="#2B88D8"/>
<path d="M87.0742 148.488C89.5817 148.488 91.6145 146.455 91.6145 143.948C91.6145 141.44 89.5817 139.407 87.0742 139.407C84.5666 139.407 82.5339 141.44 82.5339 143.948C82.5339 146.455 84.5666 148.488 87.0742 148.488Z" fill="#106EBE"/>
<path d="M849.86 194.46C851.741 194.46 853.266 192.935 853.266 191.054C853.266 189.172 851.741 187.647 849.86 187.647C847.979 187.647 846.453 189.172 846.453 191.054C846.453 192.935 847.979 194.46 849.86 194.46Z" fill="#72ACF1"/>
<path d="M761.322 170.62C764.455 170.62 766.996 168.08 766.996 164.946C766.996 161.812 764.455 159.272 761.322 159.272C758.188 159.272 755.647 161.812 755.647 164.946C755.647 168.08 758.188 170.62 761.322 170.62Z" fill="#106EBE"/>
<path d="M549.056 200.129C551.249 200.129 553.027 198.351 553.027 196.158C553.027 193.965 551.249 192.188 549.056 192.188C546.863 192.188 545.085 193.965 545.085 196.158C545.085 198.351 546.863 200.129 549.056 200.129Z" fill="#106EBE"/>
<path d="M848.157 90.5974C850.038 90.5974 851.563 89.0723 851.563 87.1909C851.563 85.3096 850.038 83.7844 848.157 83.7844C846.275 83.7844 844.75 85.3096 844.75 87.1909C844.75 89.0723 846.275 90.5974 848.157 90.5974Z" fill="#72ACF1"/>
<path d="M737.486 161.539C739.994 161.539 742.027 159.506 742.027 156.999C742.027 154.491 739.994 152.458 737.486 152.458C734.979 152.458 732.946 154.491 732.946 156.999C732.946 159.506 734.979 161.539 737.486 161.539Z" fill="#106EBE"/>
<path d="M505.895 65.2778C504.782 68.5724 502.713 71.4145 499.997 73.4788C499.514 73.8296 499.494 74.5007 499.942 74.8922C502.636 77.2564 504.7 80.307 505.855 83.7847C506.155 84.6592 507.324 84.6592 507.624 83.7847C508.793 80.307 510.863 77.2564 513.537 74.8922C513.984 74.5007 513.964 73.8296 513.481 73.4788C510.766 71.4145 508.702 68.5673 507.583 65.2778C507.329 64.4592 506.175 64.4592 505.895 65.2778Z" fill="#2B88D8"/>
<path d="M619.967 176.772C619.169 179.339 617.689 181.556 615.742 183.163C615.396 183.437 615.381 183.961 615.701 184.266C617.634 186.107 619.113 188.486 619.942 191.196C620.155 191.877 620.994 191.877 621.208 191.196C622.047 188.486 623.526 186.107 625.448 184.266C625.768 183.961 625.753 183.437 625.407 183.163C623.46 181.556 621.981 179.334 621.182 176.772C620.994 176.136 620.166 176.136 619.967 176.772Z" fill="#2B88D8"/>
<path d="M784.349 204.674C783.383 207.72 781.593 210.348 779.244 212.26C778.827 212.586 778.807 213.206 779.198 213.567C781.532 215.753 783.322 218.57 784.318 221.788C784.577 222.597 785.589 222.597 785.848 221.788C786.865 218.575 788.65 215.753 790.968 213.567C791.355 213.206 791.339 212.586 790.917 212.26C788.563 210.354 786.779 207.72 785.813 204.674C785.589 203.917 784.593 203.917 784.349 204.674Z" fill="#2B88D8"/>
<path d="M166.181 85.798C165.068 89.0927 162.998 91.9348 160.283 93.999C159.8 94.3499 159.78 95.021 160.227 95.4125C162.922 97.7767 164.986 100.827 166.14 104.305C166.44 105.179 167.61 105.179 167.91 104.305C169.079 100.827 171.149 97.7767 173.823 95.4125C174.27 95.021 174.25 94.3499 173.767 93.999C171.052 91.9348 168.988 89.0876 167.869 85.798C167.615 84.9794 166.461 84.9794 166.181 85.798Z" fill="#2B88D8"/>
<defs>
<radialGradient id="paint0_radial" cx="0" cy="0" r="1" gradientUnits="userSpaceOnUse" gradientTransform="translate(646.928 256.242) scale(450.909)">
<stop stop-color="#3E8EED"/>
<stop offset="0.7064" stop-color="#2B579A"/>
</radialGradient>
<linearGradient id="paint1_linear" x1="494.103" y1="26.2468" x2="433.062" y2="372.424" gradientUnits="userSpaceOnUse">
<stop stop-color="#3E8EED"/>
<stop offset="0.7064" stop-color="#2B579A"/>
</linearGradient>
<linearGradient id="paint2_linear" x1="455.538" y1="260.618" x2="443.473" y2="375.412" gradientUnits="userSpaceOnUse">
<stop stop-color="#2B88D8"/>
<stop offset="0.4213" stop-color="#2B579A"/>
</linearGradient>
<radialGradient id="paint3_radial" cx="0" cy="0" r="1" gradientUnits="userSpaceOnUse" gradientTransform="translate(627.725 108.354) scale(117.796)">
<stop stop-color="#C7E0F4"/>
<stop offset="0.8309" stop-color="#72ACF1"/>
</radialGradient>
<radialGradient id="paint4_radial" cx="0" cy="0" r="1" gradientUnits="userSpaceOnUse" gradientTransform="translate(660.11 76.9055) scale(68.5957)">
<stop offset="0.1127" stop-color="#958FE7"/>
<stop offset="0.2695" stop-color="#6E66DF"/>
<stop offset="1" stop-color="#33312D"/>
</radialGradient>
<radialGradient id="paint5_radial" cx="0" cy="0" r="1" gradientUnits="userSpaceOnUse" gradientTransform="translate(662.452 338.916) scale(464.824)">
<stop offset="0.0655" stop-color="#E3646A"/>
<stop offset="0.277" stop-color="#EE8F94"/>
</radialGradient>
<radialGradient id="paint6_radial" cx="0" cy="0" r="1" gradientUnits="userSpaceOnUse" gradientTransform="translate(654.137 269.654) scale(45.4366)">
<stop stop-color="#C7E0F4"/>
<stop offset="0.5813" stop-color="#72ACF1"/>
</radialGradient>
<linearGradient id="paint7_linear" x1="309.365" y1="251.581" x2="330.796" y2="376.184" gradientUnits="userSpaceOnUse">
<stop offset="0.0615" stop-color="#958FE7"/>
<stop offset="0.2206" stop-color="#BBB7EF"/>
</linearGradient>
<radialGradient id="paint8_radial" cx="0" cy="0" r="1" gradientUnits="userSpaceOnUse" gradientTransform="translate(301.361 357.472) rotate(-15.6471) scale(24.9328)">
<stop stop-color="#8065E0"/>
<stop offset="1" stop-color="#512BD4"/>
</radialGradient>
<linearGradient id="paint9_linear" x1="328.604" y1="262.136" x2="362.159" y2="370.41" gradientUnits="userSpaceOnUse">
<stop offset="0.0388" stop-color="#958FE7"/>
<stop offset="0.1985" stop-color="#BBB7EF"/>
</linearGradient>
<radialGradient id="paint10_radial" cx="0" cy="0" r="1" gradientUnits="userSpaceOnUse" gradientTransform="translate(344.36 362.059) rotate(3.25051) scale(25.8678 25.9606)">
<stop stop-color="#8065E0"/>
<stop offset="1" stop-color="#512BD4"/>
</radialGradient>
<radialGradient id="paint11_radial" cx="0" cy="0" r="1" gradientUnits="userSpaceOnUse" gradientTransform="translate(324.019 161.703) rotate(-169.805) scale(80.761)">
<stop offset="0.4744" stop-color="#A08BE8"/>
<stop offset="0.8618" stop-color="#8065E0"/>
</radialGradient>
<radialGradient id="paint12_radial" cx="0" cy="0" r="1" gradientUnits="userSpaceOnUse" gradientTransform="translate(285.211 185.031) rotate(-169.805) scale(56.7634)">
<stop offset="0.2022" stop-color="#E1DFDD"/>
<stop offset="0.7337" stop-color="white"/>
</radialGradient>
<radialGradient id="paint13_radial" cx="0" cy="0" r="1" gradientUnits="userSpaceOnUse" gradientTransform="translate(302.243 209.488) rotate(-169.805) scale(33.8271)">
<stop stop-color="#512BD4"/>
<stop offset="0.5045" stop-color="#6645D9"/>
<stop offset="0.7759" stop-color="#7659DD"/>
<stop offset="1" stop-color="#8065E0"/>
</radialGradient>
<radialGradient id="paint14_radial" cx="0" cy="0" r="1" gradientUnits="userSpaceOnUse" gradientTransform="translate(382.663 232.985) rotate(-169.805) scale(50.2073)">
<stop offset="0.4614" stop-color="#A08BE8"/>
<stop offset="0.5268" stop-color="#A793EA"/>
<stop offset="0.8352" stop-color="#C5B7F0"/>
<stop offset="1" stop-color="#D0C5F3"/>
</radialGradient>
<radialGradient id="paint15_radial" cx="0" cy="0" r="1" gradientUnits="userSpaceOnUse" gradientTransform="translate(289.484 142.954) rotate(-97.9786) scale(25.0065)">
<stop offset="0.3607" stop-color="#BDB9F0"/>
<stop offset="0.5611" stop-color="#C3BCEB" stop-opacity="0.3855"/>
<stop offset="0.6338" stop-color="#CEC3E2" stop-opacity="0.3217"/>
<stop offset="0.8689" stop-color="#EDD6C9" stop-opacity="0.1152"/>
<stop offset="1" stop-color="#F9DDBF" stop-opacity="0"/>
</radialGradient>
<radialGradient id="paint16_radial" cx="0" cy="0" r="1" gradientUnits="userSpaceOnUse" gradientTransform="translate(373.584 195.975) rotate(180) scale(50.6666)">
<stop offset="0.4251" stop-color="#BDB9F0"/>
<stop offset="0.7746" stop-color="#C3BCEB" stop-opacity="0.3855"/>
<stop offset="0.812" stop-color="#CEC3E2" stop-opacity="0.3217"/>
<stop offset="0.9327" stop-color="#EDD6C9" stop-opacity="0.1152"/>
<stop offset="1" stop-color="#F9DDBF" stop-opacity="0"/>
</radialGradient>
<linearGradient id="paint17_linear" x1="320.843" y1="168.556" x2="275.659" y2="265.097" gradientUnits="userSpaceOnUse">
<stop offset="0.2239" stop-color="#958FE7"/>
<stop offset="0.4264" stop-color="#BBB7EF"/>
</linearGradient>
<radialGradient id="paint18_radial" cx="0" cy="0" r="1" gradientUnits="userSpaceOnUse" gradientTransform="translate(249.075 228.099) rotate(-3.14341) scale(25.7396 24.0212)">
<stop stop-color="#A08BE8"/>
<stop offset="1" stop-color="#8065E0"/>
</radialGradient>
<radialGradient id="paint19_radial" cx="0" cy="0" r="1" gradientUnits="userSpaceOnUse" gradientTransform="translate(341.72 182.485) rotate(180) scale(22.0215)">
<stop stop-color="#8065E0"/>
<stop offset="0.8628" stop-color="#512BD4"/>
</radialGradient>
<radialGradient id="paint20_radial" cx="0" cy="0" r="1" gradientUnits="userSpaceOnUse" gradientTransform="translate(355.41 67.9225) rotate(-162.518) scale(38.5964)">
<stop offset="0.1473" stop-color="#FAE969"/>
<stop offset="1" stop-color="#E8D441"/>
</radialGradient>
</defs>
</svg>
