<svg width="884" height="500" viewBox="0 0 884 500" fill="none" xmlns="http://www.w3.org/2000/svg">
<path d="M198.049 10.512C429.234 -27.4094 548.618 50.3301 719.163 38.9542C930.259 24.8706 967.583 382.598 658.523 461.798C503.138 501.616 177.203 547.125 52.1373 385.951C-32.0643 277.446 -34.4101 48.642 198.049 10.512Z" fill="#FCCF84"/>
<path d="M719.163 38.9542C548.618 50.3301 429.234 -27.4094 198.049 10.512C-34.4101 48.642 -32.0643 277.446 52.1373 385.951C71.9887 411.534 96.9108 431.905 125.401 447.923H702.264C963.422 347.788 919.715 25.5771 719.163 38.9542Z" fill="#FCCF84"/>
<path d="M323.124 286.749C323.252 275.273 321.617 251.976 309.779 232.468L298.202 239.505C308.94 257.197 309.751 277.848 309.499 286.853C309.476 287.598 316.423 288.271 323.124 286.749Z" fill="url(#paint0_linear)"/>
<path d="M309.504 286.725L320.224 286.678L330.232 344.041L308.718 344.141C307.083 344.15 305.841 342.827 305.945 341.186L309.504 286.725Z" fill="#522CD5"/>
<path d="M353.169 328.952C355.027 330.418 354.998 332.547 354.851 334.79L354.401 341.661C354.321 342.889 353.25 343.899 352.018 343.904L329.602 344.008C328.209 344.013 327.152 342.889 327.242 341.495L327.394 334.372C327.565 331.783 326.697 330.83 324.693 328.397C321.262 324.229 311.116 301.511 312.082 286.716L323.124 286.664C323.854 295.45 335.436 314.959 353.169 328.952Z" fill="url(#paint1_linear)"/>
<path d="M354.851 334.79C354.955 333.225 354.984 331.722 354.368 330.451L326.403 330.579C327.176 331.717 327.503 332.708 327.394 334.372L327.242 341.495C327.152 342.889 328.204 344.013 329.597 344.008L352.017 343.904C353.249 343.899 354.32 342.889 354.401 341.661L354.851 334.79Z" fill="url(#paint2_radial)"/>
<path d="M292.705 286.749C292.833 275.273 291.198 251.976 279.36 232.468L267.783 239.505C278.521 257.197 279.331 277.848 279.08 286.853C279.061 287.598 286.004 288.271 292.705 286.749Z" fill="url(#paint3_linear)"/>
<path d="M279.085 286.725L289.805 286.678L299.813 344.041L278.298 344.141C276.664 344.15 275.422 342.827 275.526 341.186L279.085 286.725Z" fill="#522CD5"/>
<path d="M322.75 328.952C324.608 330.418 324.579 332.547 324.432 334.79L323.982 341.661C323.901 342.889 322.83 343.899 321.598 343.904L299.183 344.008C297.79 344.013 296.733 342.889 296.823 341.495L296.975 334.372C297.145 331.783 296.278 330.83 294.274 328.397C290.843 324.229 280.696 301.511 281.663 286.716L292.705 286.664C293.435 295.45 305.022 314.959 322.75 328.952Z" fill="url(#paint4_linear)"/>
<path d="M324.432 334.79C324.536 333.225 324.565 331.722 323.949 330.451L295.984 330.579C296.757 331.717 297.083 332.708 296.974 334.372L296.823 341.495C296.733 342.889 297.785 344.013 299.178 344.008L321.598 343.904C322.83 343.899 323.901 342.889 323.982 341.661L324.432 334.79Z" fill="url(#paint5_radial)"/>
<path d="M880.656 247.281L499.54 256.528C499.218 256.533 498.901 256.59 498.597 256.694L482.76 262.233L877.201 263.655C878.561 258.202 879.713 252.739 880.656 247.281Z" fill="#FFEBC9"/>
<path d="M482.874 262.237C481.822 262.237 480.969 263.091 480.969 264.144L492.674 304.782L11.0125 303.436C20.0449 334.381 34.2428 362.885 52.1371 385.95C71.9885 411.533 96.9106 431.904 125.401 447.923H702.263C805.866 408.195 861.492 333.518 878.377 258.709L482.874 262.237Z" fill="#E9A841"/>
<path d="M125.401 447.923H702.263C731.483 436.718 756.884 422.734 778.678 406.749L77.4377 413.416C91.8583 426.679 107.961 438.117 125.401 447.923Z" fill="#D89739"/>
<path d="M18.1302 324.594L492.835 314.005C493.925 313.996 495.034 313.351 494.802 312.023L489.551 293.895L8.94617 295.976C11.5099 305.759 14.5808 315.333 18.1302 324.594Z" fill="#FFEBC9"/>
<path d="M259.528 292.259H242.368L252.201 297.072L259.528 292.259Z" fill="white"/>
<path d="M481.604 168.712H353.78C336.948 168.712 323.299 155.055 323.299 138.212V108.821C323.299 91.9776 336.948 78.3208 353.78 78.3208H481.604C498.437 78.3208 512.085 91.9776 512.085 108.821V138.212C512.085 155.06 498.437 168.712 481.604 168.712Z" fill="#FFEBC9"/>
<path d="M365.779 235.246C364.992 235.246 364.201 235.223 363.409 235.175C353.316 234.563 344.639 230.177 337.611 222.125L348.496 212.613C352.946 217.711 358.107 220.366 364.281 220.741C378.456 221.594 394.691 209.972 399.748 205.419L409.41 216.174C408.515 216.976 387.943 235.246 365.779 235.246Z" fill="#8A6FE8"/>
<path d="M362.05 207.923C366.855 189.467 363.756 174.734 363.756 174.734H368.096L368.205 174.649C361.988 140.782 332.341 115.123 296.704 115.123C256.551 115.123 223.999 147.695 223.999 187.874C223.999 228.053 256.551 260.625 296.704 260.625C328.389 260.625 355.334 240.344 365.296 212.048C365.575 210.844 365.552 208.691 362.05 207.923Z" fill="url(#paint6_radial)"/>
<path d="M359.386 224.719H234.013C236.828 229.503 240.174 233.932 243.969 237.935H349.43C353.226 233.932 356.571 229.503 359.386 224.719Z" fill="#D8CFF7"/>
<path d="M364.993 212.888C364.993 212.888 367.007 209.009 362.05 207.923C366.793 189.695 363.832 175.109 363.756 174.753H288.326C288.326 174.753 283.573 174.27 283.573 178.613C283.573 182.957 283.753 195.229 283.753 208.805C283.753 211.598 286.037 212.94 287.833 212.94L364.993 212.888Z" fill="url(#paint7_radial)"/>
<path d="M316.437 207.866C316.437 207.866 327.446 199.146 329.593 197.534C331.739 195.921 333.621 195.831 335.592 197.534C337.564 199.236 348.586 207.866 348.586 207.866H316.437Z" fill="#A08BE8"/>
<path d="M364.993 212.888C364.993 212.888 367.007 209.009 362.05 207.923C362.055 207.904 287.89 207.866 287.89 207.866C286.165 207.866 283.943 206.837 283.748 205.164C283.753 206.363 283.753 207.577 283.753 208.805C283.753 211.338 285.634 212.675 287.326 212.902C287.497 212.921 287.663 212.94 287.838 212.94H292.909L364.993 212.888Z" fill="#512BD4"/>
<path d="M306.139 200.932C309.28 200.885 311.762 196.563 311.683 191.279C311.604 185.994 308.995 181.748 305.854 181.795C302.714 181.842 300.232 186.164 300.31 191.448C300.389 196.733 302.999 200.979 306.139 200.932Z" fill="#512BD4"/>
<path d="M357.481 191.393C357.559 186.109 355.077 181.787 351.937 181.74C348.797 181.693 346.187 185.939 346.108 191.224C346.03 196.508 348.512 200.83 351.652 200.877C354.792 200.924 357.402 196.678 357.481 191.393Z" fill="#512BD4"/>
<path d="M305.955 186.566C307.116 185.404 308.68 184.892 310.201 185.029C311.092 186.694 311.651 188.875 311.689 191.27C311.713 192.763 311.523 194.176 311.177 195.442C309.381 195.955 307.372 195.504 305.955 194.091C303.875 192.014 303.875 188.643 305.955 186.566Z" fill="#8065E0"/>
<path d="M351.728 186.253C352.889 185.091 354.458 184.579 355.979 184.716C356.946 186.452 357.529 188.808 357.491 191.398C357.472 192.721 357.292 193.977 356.989 195.12C355.183 195.646 353.155 195.201 351.733 193.773C349.648 191.701 349.648 188.33 351.728 186.253Z" fill="#8065E0"/>
<path d="M343.88 219.807H320.863V242.838H343.88V219.807Z" fill="#512BD4"/>
<path d="M324.968 234.521C324.806 234.521 324.664 234.469 324.551 234.36C324.437 234.251 324.38 234.118 324.38 233.962C324.38 233.805 324.437 233.672 324.551 233.559C324.664 233.449 324.802 233.393 324.968 233.393C325.133 233.393 325.271 233.449 325.385 233.559C325.503 233.668 325.56 233.805 325.56 233.962C325.56 234.113 325.503 234.246 325.385 234.36C325.271 234.464 325.133 234.521 324.968 234.521Z" fill="white"/>
<path d="M331.474 234.426H330.417L327.631 230.026C327.56 229.917 327.503 229.798 327.455 229.679H327.432C327.455 229.807 327.465 230.082 327.465 230.5V234.421H326.531V228.437H327.659L330.351 232.733C330.465 232.913 330.536 233.032 330.569 233.098H330.583C330.555 232.942 330.54 232.672 330.54 232.292V228.437H331.474V234.426Z" fill="white"/>
<path d="M336.028 234.426H332.754V228.442H335.9V229.286H333.725V230.979H335.73V231.818H333.725V233.587H336.033V234.426H336.028Z" fill="white"/>
<path d="M340.686 229.286H339.009V234.431H338.042V229.286H336.369V228.442H340.686V229.286V229.286Z" fill="white"/>
<path d="M223.639 275.164C215.673 265.799 207.953 248.272 212.422 229.708C215.133 218.436 223.412 202.901 247.467 192.91L253.002 206.254C238.401 212.319 229.222 221.594 226.459 233.084C223.469 245.522 228.411 258.477 234.634 265.799L223.639 275.164Z" fill="url(#paint8_linear)"/>
<path d="M225.78 244.16L211.621 245.726L211.805 247.385L225.963 245.819L225.78 244.16Z" fill="#8A6FE8"/>
<path d="M257.4 210.73C264.773 210.73 270.75 204.75 270.75 197.372C270.75 189.995 264.773 184.014 257.4 184.014C250.027 184.014 244.05 189.995 244.05 197.372C244.05 204.75 250.027 210.73 257.4 210.73Z" fill="url(#paint9_radial)"/>
<path d="M257.959 122.739L270.73 116.636L257.665 94.4292L248.495 98.8013L257.959 122.739Z" fill="#8A6FE8"/>
<path d="M259.703 104.681C255.618 108.105 249.528 107.617 246.093 103.591C242.657 99.5648 243.178 93.5378 247.258 90.1141C251.343 86.6904 257.433 87.1788 260.869 91.2047C264.309 95.2306 263.788 101.258 259.703 104.681Z" fill="#D8CFF7"/>
<path d="M256.893 132.986C256.319 133.252 255.608 132.991 255.414 132.393C253.201 126.087 256.082 118.974 262.328 115.991C268.574 113.013 275.957 115.209 279.526 120.875C279.862 121.411 279.635 122.122 279.061 122.388L256.893 132.986Z" fill="#522CD5"/>
<path d="M406.681 205.51L404.008 192.204C403.269 188.662 399.805 186.39 396.265 187.13C392.725 187.87 390.455 191.336 391.194 194.878L393.938 208.526L406.681 205.51Z" fill="#8A6FE8"/>
<path d="M406.7 223.847C414.266 223.847 420.4 217.709 420.4 210.138C420.4 202.566 414.266 196.429 406.7 196.429C399.133 196.429 393 202.566 393 210.138C393 217.709 399.133 223.847 406.7 223.847Z" fill="url(#paint10_radial)"/>
<path d="M415.315 214.334L428.589 211.527C432.12 210.754 434.356 207.264 433.584 203.731C432.811 200.198 429.324 197.96 425.793 198.733L412.183 201.612L415.315 214.334Z" fill="#8A6FE8"/>
<path d="M412.254 206.761L423.509 199.184C426.495 197.145 427.263 193.067 425.22 190.079C423.182 187.092 419.107 186.324 416.121 188.367L404.582 196.14L412.254 206.761Z" fill="#8A6FE8"/>
<path d="M419.353 220.703H403.515L400.634 185.048H422.234L419.353 220.703Z" fill="white"/>
<path d="M421.661 192.128L422.234 185.048H400.634L401.207 192.128H421.661Z" fill="#E1DFDD"/>
<path d="M423.4 187.357H399.027C398.189 187.357 397.568 186.585 397.743 185.769L398.729 181.164C398.857 180.557 399.392 180.126 400.013 180.126H422.409C423.03 180.126 423.566 180.557 423.694 181.164L424.679 185.769C424.859 186.585 424.239 187.357 423.4 187.357Z" fill="#605D5A"/>
<path d="M424.243 226.545H418.509C414.912 226.545 411.998 223.628 411.998 220.029C411.998 216.43 414.912 213.514 418.509 213.514H424.243C427.84 213.514 430.755 216.43 430.755 220.029C430.755 223.628 427.84 226.545 424.243 226.545Z" fill="#8A6FE8"/>
<path d="M429.437 215.999H423.703C420.106 215.999 417.192 213.082 417.192 209.483C417.192 205.884 420.106 202.968 423.703 202.968H429.437C433.034 202.968 435.949 205.884 435.949 209.483C435.944 213.082 433.029 215.999 429.437 215.999Z" fill="#8A6FE8"/>
<path d="M257.054 276.7C256.376 276.7 255.831 276.15 255.831 275.477V262.93L252.518 259.615C252.291 259.388 252.158 259.075 252.158 258.752V247.737C252.158 247.059 252.708 246.513 253.381 246.513C254.054 246.513 254.603 247.063 254.603 247.737V258.245L257.916 261.559C258.143 261.787 258.276 262.1 258.276 262.422V275.477C258.276 276.15 257.726 276.7 257.054 276.7Z" fill="white"/>
<path d="M13.4526 311.369L224.795 309.159L224.241 253.261L1.2403 252.801C3.188 272.883 7.36775 292.633 13.4526 311.369Z" fill="#D89739"/>
<path d="M1.24545 252.81L222.592 254.721L246.192 233.933L0.0701904 233.326C0.217098 239.841 0.615169 246.342 1.24545 252.81Z" fill="#FFEBC9"/>
<path d="M1.68632 257.026L222.63 254.722L241.595 236.043L0.169861 236.731C0.411547 243.521 0.928092 250.297 1.68632 257.026Z" fill="#FEDEA7"/>
<path d="M260.286 239.832L241.6 239.836L245.443 247.883L260.286 239.832Z" fill="#C8C6C4"/>
<path d="M259.764 252.63L247.363 254.185L247.007 240.827L260.205 239.85C261.413 239.794 261.669 240.818 261.669 241.524V250.719C261.674 251.772 260.816 252.63 259.764 252.63Z" fill="white"/>
<path d="M261.944 300.742V294.673C261.944 293.335 260.864 292.254 259.527 292.254L250.452 293.568C249.116 293.568 248.036 292.487 248.036 291.149V240.965C248.036 239.628 246.955 238.547 245.619 238.547L225.042 240.851C223.706 240.851 222.625 241.933 222.625 243.27V306.722C222.625 308.059 223.436 309.368 225.042 309.14L259.532 303.161C260.864 303.161 261.944 302.079 261.944 300.742Z" fill="#EBA841"/>
<path d="M248.035 250.956V235.578C248.035 234.222 246.941 233.776 245.576 233.966L224.198 236.659C222.739 236.968 222.578 237.608 222.578 238.964V254.721L248.035 250.956Z" fill="#FAC670"/>
<path d="M614.616 372.341L627.378 327.454H610.209L597.836 370.961C597.262 372.981 597.476 375.148 598.442 377.012L620.104 418.978C621.573 421.818 624.454 423.45 627.449 423.45C628.724 423.45 630.018 423.151 631.231 422.525C635.283 420.429 636.87 415.445 634.781 411.391L614.616 372.341Z" fill="#FFE3B3"/>
<path d="M593.651 326.515H577.529V420.747H593.651V326.515Z" fill="#FFE3B3"/>
<path d="M564.734 417.973L579.292 403.429C582.638 400.086 588.069 400.086 591.415 403.429L605.973 417.973C607.266 419.267 606.352 421.477 604.518 421.477H566.18C564.36 421.477 563.441 419.267 564.734 417.973Z" fill="#F7B548"/>
<path d="M580.501 339.853H632.591C639.619 339.853 645.604 334.742 646.709 327.799L652.907 288.844C654.291 280.157 647.581 272.295 638.79 272.295H574.307C565.516 272.295 558.811 280.162 560.19 288.844L566.388 327.799C567.488 334.742 573.473 339.853 580.501 339.853Z" fill="#D89739"/>
<path d="M701.964 285.767L719.384 291.49L724.609 275.563L707.189 269.841L701.964 285.767Z" fill="#FFE5B9"/>
<path d="M714.656 316.272C714.101 315.461 714.329 314.375 715.177 313.877C717.94 312.274 720.153 309.695 721.224 306.418C723.551 299.329 719.693 291.694 712.608 289.366C712.206 289.233 713.575 282.405 713.575 282.405C713.845 282.481 714.115 282.538 714.381 282.623C724.096 285.814 729.384 296.28 726.195 306.001C724.584 310.918 721.105 314.697 716.807 316.822C716.058 317.201 715.139 316.969 714.656 316.272Z" fill="#FFE5B9"/>
<path d="M691.325 308.495C692.254 308.173 692.714 307.158 692.321 306.257C691.046 303.327 690.79 299.936 691.866 296.659C694.192 289.57 701.822 285.71 708.907 288.039C709.31 288.171 712.253 281.855 712.253 281.855C711.992 281.756 711.741 281.642 711.471 281.556C701.756 278.365 691.297 283.657 688.108 293.378C686.496 298.295 687.056 303.403 689.259 307.661C689.648 308.419 690.525 308.775 691.325 308.495Z" fill="#FFE5B9"/>
<path d="M438.621 223.984C439.493 223.52 440.554 223.908 440.957 224.814C442.242 227.726 444.549 230.196 447.668 231.628C454.444 234.739 462.463 231.761 465.571 224.98C465.747 224.596 472.376 226.725 472.376 226.725C472.272 226.986 472.182 227.247 472.068 227.503C467.808 236.802 456.819 240.885 447.525 236.617C442.834 234.464 439.474 230.59 437.844 226.09C437.541 225.288 437.863 224.387 438.621 223.984Z" fill="#FFE5B9"/>
<path d="M448.966 201.664C449.184 202.626 450.17 203.181 451.117 202.892C454.16 201.967 457.539 202.105 460.657 203.532C467.434 206.643 470.41 214.662 467.301 221.447C467.126 221.831 473.063 225.468 473.063 225.468C473.191 225.222 473.334 224.985 473.452 224.724C477.712 215.425 473.637 204.428 464.344 200.165C459.652 198.013 454.529 197.989 450.056 199.691C449.25 199.995 448.776 200.825 448.966 201.664Z" fill="#FFE5B9"/>
<path d="M677.511 221.817H486.831V237.949H677.511C716.39 237.949 708.58 265.33 708.58 266.496H724.702C724.702 266.046 732.327 221.817 677.511 221.817Z" fill="#FFE3B3"/>
<path d="M554.991 171.846C554.982 171.4 554.958 170.959 554.958 170.514C554.958 142.802 577.648 120.334 605.632 120.334C633.62 120.334 656.305 142.802 656.305 170.514C656.305 170.959 656.281 171.4 656.272 171.846H554.991Z" fill="#FFE5B9"/>
<path d="M596.352 161.443C601.974 161.443 606.532 156.882 606.532 151.257C606.532 145.632 601.974 141.071 596.352 141.071C590.731 141.071 586.173 145.632 586.173 151.257C586.173 156.882 590.731 161.443 596.352 161.443Z" fill="#D89739"/>
<path d="M592.471 158.597C596.46 158.597 599.694 155.362 599.694 151.371C599.694 147.38 596.46 144.144 592.471 144.144C588.483 144.144 585.249 147.38 585.249 151.371C585.249 155.362 588.483 158.597 592.471 158.597Z" fill="white"/>
<path d="M561.962 161.443C567.584 161.443 572.141 156.882 572.141 151.257C572.141 145.632 567.584 141.071 561.962 141.071C556.34 141.071 551.783 145.632 551.783 151.257C551.783 156.882 556.34 161.443 561.962 161.443Z" fill="#D89739"/>
<path d="M558.095 158.597C562.084 158.597 565.317 155.362 565.317 151.371C565.317 147.38 562.084 144.144 558.095 144.144C554.107 144.144 550.873 147.38 550.873 151.371C550.873 155.362 554.107 158.597 558.095 158.597Z" fill="white"/>
<path d="M704.216 275.06L726.347 277.35C727.863 277.507 729.223 276.402 729.38 274.884L730.678 262.314C730.834 260.796 729.73 259.435 728.214 259.279L706.083 256.988C704.566 256.832 703.206 257.937 703.05 259.454L701.751 272.025C701.6 273.547 702.699 274.903 704.216 275.06Z" fill="#F7B548"/>
<path d="M486.196 222.139C474.097 222.139 468.913 218.104 468.913 218.104L461.999 231.249C461.999 231.249 467.416 237.935 483.315 237.935C497.261 237.935 486.196 222.139 486.196 222.139Z" fill="#FFE5B9"/>
<path d="M481.651 220.755L481.656 243.019C481.656 244.545 482.892 245.783 484.418 245.783L497.048 245.778C498.574 245.778 499.81 244.541 499.81 243.014L499.806 220.75C499.806 219.223 498.569 217.986 497.043 217.986L484.414 217.991C482.888 217.991 481.651 219.228 481.651 220.755Z" fill="#F7B548"/>
<path d="M611.55 429.728L619.203 410.618C620.962 406.222 625.952 404.083 630.345 405.838L649.457 413.468C651.153 414.146 651.182 416.54 649.5 417.261L614.265 432.379C612.583 433.095 610.868 431.425 611.55 429.728Z" fill="#F7B548"/>
<path d="M548.399 208.924H535.225C530.273 208.924 526.259 212.94 526.259 217.896V241.145C526.259 246.101 530.273 250.117 535.225 250.117H548.399V208.924Z" fill="#D89739"/>
<path d="M639.164 311.72H572.582C560.028 311.72 549.389 302.478 547.627 290.044L534.149 195.12C531.993 179.932 543.774 166.351 559.104 166.351H652.646C667.977 166.351 679.758 179.932 677.602 195.12L664.124 290.044C662.352 302.482 651.713 311.72 639.164 311.72Z" fill="url(#paint11_radial)"/>
<path d="M556.764 242.122H605.324C608.57 242.122 611.195 239.49 611.195 236.247V218.626C611.195 215.378 608.565 212.75 605.324 212.75H556.764C553.517 212.75 550.892 215.382 550.892 218.626V236.247C550.892 239.49 553.522 242.122 556.764 242.122Z" fill="#FFE5B9"/>
<path d="M680.62 208.924H677.052L677.061 208.819H656.272C653.428 208.819 650.893 210.617 649.95 213.305L641.709 236.806C639.41 243.355 644.268 250.212 651.206 250.212H673.152L673.161 250.122H680.63C685.582 250.122 689.596 246.105 689.596 241.15V217.9C689.586 212.94 685.572 208.924 680.62 208.924Z" fill="#D89739"/>
<path d="M255.831 271.702V275.477C255.831 276.155 256.381 276.7 257.054 276.7C257.727 276.7 258.276 276.15 258.276 275.477V271.702H255.831Z" fill="#737373"/>
<path d="M447.668 106.261H440.592V98.5502C440.592 96.4258 438.868 94.6997 436.744 94.6997H393.791C391.639 94.6997 389.895 96.4447 389.895 98.5976V148.407C389.895 152.618 393.284 156.032 397.459 156.032H433.024C437.204 156.032 440.588 152.618 440.588 148.407V136.822H447.663C453.833 136.822 458.591 132.289 458.591 126.58V116.674C458.596 110.96 453.838 106.261 447.668 106.261ZM453.132 126.575C453.132 129.43 450.663 131.611 447.668 131.611H440.592V111.462H447.668C450.663 111.462 453.132 113.814 453.132 116.669V126.575Z" fill="#FCCF84"/>
<path d="M119.103 247.433H80.2152C78.6039 247.433 77.296 246.124 77.296 244.512C77.296 242.9 78.6039 241.591 80.2152 241.591H119.103C120.714 241.591 122.022 242.9 122.022 244.512C122.022 246.129 120.714 247.433 119.103 247.433Z" fill="#F7B548"/>
<path d="M74.2675 185.451H95.1378L98.9337 232.43H70.4764L74.2675 185.451Z" fill="white"/>
<path d="M70.1303 231.32H99.398C100.227 231.32 100.896 231.994 100.896 232.819C100.896 233.649 100.223 234.317 99.398 234.317H70.1303C69.301 234.317 68.6328 233.644 68.6328 232.819C68.6328 231.989 69.301 231.32 70.1303 231.32Z" fill="#E1DFDD"/>
<path d="M116.141 206.074H148.248C149.352 206.074 150.172 207.089 149.939 208.17L148.641 214.235C148.47 215.031 147.764 215.605 146.949 215.605H117.44C116.625 215.605 115.919 215.036 115.748 214.235L114.449 208.17C114.217 207.089 115.037 206.074 116.141 206.074Z" fill="url(#paint12_linear)"/>
<path d="M116.141 212.271H148.248C149.352 212.271 150.172 213.286 149.939 214.367L148.641 220.432C148.47 221.229 147.764 221.803 146.949 221.803H117.44C116.625 221.803 115.919 221.234 115.748 220.432L114.449 214.367C114.217 213.286 115.037 212.271 116.141 212.271Z" fill="url(#paint13_linear)"/>
<path d="M116.141 218.464H148.248C149.352 218.464 150.172 219.479 149.939 220.56L148.641 226.625C148.47 227.422 147.764 227.996 146.949 227.996H117.44C116.625 227.996 115.919 227.427 115.748 226.625L114.449 220.56C114.217 219.484 115.037 218.464 116.141 218.464Z" fill="url(#paint14_linear)"/>
<path d="M116.141 224.662H148.248C149.352 224.662 150.172 225.677 149.939 226.758L148.641 232.828C148.47 233.624 147.764 234.198 146.949 234.198H117.44C116.625 234.198 115.919 233.629 115.748 232.828L114.449 226.763C114.217 225.682 115.037 224.662 116.141 224.662Z" fill="url(#paint15_linear)"/>
<path d="M74.4997 178.101H95.37L99.1612 225.08H70.7086L74.4997 178.101Z" fill="white"/>
<path d="M70.3582 223.97H99.6259C100.455 223.97 101.123 224.643 101.123 225.468C101.123 226.298 100.45 226.967 99.6259 226.967H70.3582C69.5288 226.967 68.8607 226.293 68.8607 225.468C68.8607 224.643 69.5336 223.97 70.3582 223.97Z" fill="#E1DFDD"/>
<path d="M74.4997 171.903H95.37L99.1612 218.882H70.7086L74.4997 171.903Z" fill="white"/>
<path d="M70.3582 217.772H99.6259C100.455 217.772 101.123 218.446 101.123 219.271C101.123 220.101 100.45 220.769 99.6259 220.769H70.3582C69.5288 220.769 68.8607 220.096 68.8607 219.271C68.8607 218.446 69.5336 217.772 70.3582 217.772Z" fill="#E1DFDD"/>
<path d="M74.4997 165.706H95.37L99.1612 212.684H70.7086L74.4997 165.706Z" fill="white"/>
<path d="M70.3582 211.574H99.6259C100.455 211.574 101.123 212.248 101.123 213.073C101.123 213.903 100.45 214.571 99.6259 214.571H70.3582C69.5288 214.571 68.8607 213.898 68.8607 213.073C68.8607 212.248 69.5336 211.574 70.3582 211.574Z" fill="#E1DFDD"/>
<path d="M74.4997 159.508H95.37L99.1612 206.486H70.7086L74.4997 159.508Z" fill="white"/>
<path d="M70.3582 205.381H99.6259C100.455 205.381 101.123 206.055 101.123 206.88C101.123 207.71 100.45 208.378 99.6259 208.378H70.3582C69.5288 208.378 68.8607 207.705 68.8607 206.88C68.8607 206.05 69.5336 205.381 70.3582 205.381Z" fill="#E1DFDD"/>
<path d="M584.737 239.666C584.415 239.666 584.136 239.448 584.05 239.14L579.188 220.864L576.719 228.091C576.62 228.38 576.349 228.57 576.046 228.57H576.041C575.733 228.57 575.468 228.371 575.369 228.081L574.222 224.596L571.525 238.02C571.459 238.348 571.175 238.585 570.843 238.59C570.506 238.613 570.217 238.371 570.137 238.049L566.928 224.99L565.275 228.959C565.166 229.224 564.905 229.395 564.621 229.395H557.252C556.858 229.395 556.541 229.077 556.541 228.684C556.541 228.29 556.858 227.972 557.252 227.972H564.147L566.45 222.448C566.568 222.163 566.853 221.983 567.161 222.012C567.469 222.035 567.725 222.253 567.796 222.552L570.762 234.616L573.364 221.67C573.426 221.353 573.696 221.12 574.018 221.101C574.345 221.082 574.634 221.281 574.734 221.59L576.06 225.62L578.6 218.185C578.7 217.891 578.989 217.692 579.297 217.706C579.61 217.715 579.88 217.929 579.961 218.232L584.681 235.972C585.15 233.895 585.818 230.936 586.496 227.991C589.064 216.81 589.126 216.786 589.604 216.592C589.822 216.506 590.073 216.53 590.268 216.663C590.552 216.852 590.727 216.966 593.267 227.365L596.362 221.556C596.495 221.305 596.755 221.158 597.054 221.182C597.338 221.206 597.58 221.4 597.665 221.67L599.741 228.053H605.868C606.262 228.053 606.579 228.371 606.579 228.764C606.579 229.158 606.262 229.475 605.868 229.475H599.224C598.916 229.475 598.641 229.276 598.547 228.982L596.831 223.7L593.647 229.679C593.509 229.94 593.22 230.087 592.931 230.049C592.637 230.011 592.4 229.798 592.329 229.513C591.618 226.578 590.566 222.353 589.889 219.792C588.87 223.904 586.846 232.79 585.434 239.111C585.363 239.429 585.083 239.661 584.756 239.666C584.747 239.666 584.742 239.666 584.737 239.666Z" fill="#F7B548"/>
<defs>
<linearGradient id="paint0_linear" x1="305.706" y1="233.366" x2="317.194" y2="288.044" gradientUnits="userSpaceOnUse">
<stop stop-color="#522CD5"/>
<stop offset="0.4397" stop-color="#8A6FE8"/>
</linearGradient>
<linearGradient id="paint1_linear" x1="314.582" y1="285.285" x2="348.701" y2="346.074" gradientUnits="userSpaceOnUse">
<stop stop-color="#522CD5"/>
<stop offset="0.4397" stop-color="#8A6FE8"/>
</linearGradient>
<radialGradient id="paint2_radial" cx="0" cy="0" r="1" gradientUnits="userSpaceOnUse" gradientTransform="translate(339.972 319.021) rotate(-0.260908) scale(23.6226 23.6377)">
<stop offset="0.034" stop-color="#522CD5"/>
<stop offset="0.9955" stop-color="#8A6FE8"/>
</radialGradient>
<linearGradient id="paint3_linear" x1="275.287" y1="233.366" x2="286.775" y2="288.044" gradientUnits="userSpaceOnUse">
<stop stop-color="#522CD5"/>
<stop offset="0.4397" stop-color="#8A6FE8"/>
</linearGradient>
<linearGradient id="paint4_linear" x1="284.165" y1="285.285" x2="318.283" y2="346.074" gradientUnits="userSpaceOnUse">
<stop stop-color="#522CD5"/>
<stop offset="0.4397" stop-color="#8A6FE8"/>
</linearGradient>
<radialGradient id="paint5_radial" cx="0" cy="0" r="1" gradientUnits="userSpaceOnUse" gradientTransform="translate(309.554 319.021) rotate(-0.260908) scale(23.6226 23.6377)">
<stop offset="0.034" stop-color="#522CD5"/>
<stop offset="0.9955" stop-color="#8A6FE8"/>
</radialGradient>
<radialGradient id="paint6_radial" cx="0" cy="0" r="1" gradientUnits="userSpaceOnUse" gradientTransform="translate(347.671 169.073) scale(117.048 117.122)">
<stop offset="0.186" stop-color="#A08BE8"/>
<stop offset="0.684" stop-color="#8065E0"/>
<stop offset="0.8157" stop-color="#8065E0"/>
</radialGradient>
<radialGradient id="paint7_radial" cx="0" cy="0" r="1" gradientUnits="userSpaceOnUse" gradientTransform="translate(306.591 176.882) scale(63.027 63.067)">
<stop offset="0.3149" stop-color="#E1DFDD"/>
<stop offset="0.9267" stop-color="white"/>
</radialGradient>
<linearGradient id="paint8_linear" x1="232.054" y1="192.911" x2="232.054" y2="275.165" gradientUnits="userSpaceOnUse">
<stop offset="0.3393" stop-color="#967FE6"/>
<stop offset="1" stop-color="#8A6FE8"/>
</linearGradient>
<radialGradient id="paint9_radial" cx="0" cy="0" r="1" gradientUnits="userSpaceOnUse" gradientTransform="translate(260.526 194.215) scale(17.0559 17.0667)">
<stop stop-color="#8065E0"/>
<stop offset="1" stop-color="#512BD4"/>
</radialGradient>
<radialGradient id="paint10_radial" cx="0" cy="0" r="1" gradientUnits="userSpaceOnUse" gradientTransform="translate(406.7 210.138) scale(13.704 13.7127)">
<stop stop-color="#8065E0"/>
<stop offset="1" stop-color="#512BD4"/>
</radialGradient>
<radialGradient id="paint11_radial" cx="0" cy="0" r="1" gradientUnits="userSpaceOnUse" gradientTransform="translate(592.565 218.721) scale(72.3113 72.3572)">
<stop offset="0.1763" stop-color="#FCCF84"/>
<stop offset="0.3678" stop-color="#FBC873"/>
<stop offset="0.7735" stop-color="#F8BA54"/>
<stop offset="1" stop-color="#F7B548"/>
</radialGradient>
<linearGradient id="paint12_linear" x1="132.194" y1="206.073" x2="132.194" y2="215.604" gradientUnits="userSpaceOnUse">
<stop stop-color="#737373"/>
<stop offset="0.9977" stop-color="#605D5A"/>
<stop offset="1"/>
</linearGradient>
<linearGradient id="paint13_linear" x1="132.194" y1="212.27" x2="132.194" y2="221.801" gradientUnits="userSpaceOnUse">
<stop stop-color="#737373"/>
<stop offset="0.9977" stop-color="#605D5A"/>
<stop offset="1"/>
</linearGradient>
<linearGradient id="paint14_linear" x1="132.194" y1="218.467" x2="132.194" y2="227.998" gradientUnits="userSpaceOnUse">
<stop stop-color="#737373"/>
<stop offset="0.9977" stop-color="#605D5A"/>
<stop offset="1"/>
</linearGradient>
<linearGradient id="paint15_linear" x1="132.194" y1="224.664" x2="132.194" y2="234.195" gradientUnits="userSpaceOnUse">
<stop stop-color="#737373"/>
<stop offset="0.9977" stop-color="#605D5A"/>
<stop offset="1"/>
</linearGradient>
</defs>
</svg>
