<svg width="961" height="544" viewBox="0 0 961 544" fill="none" xmlns="http://www.w3.org/2000/svg">
<path d="M771.608 31.9481C572.62 -37.1948 205.529 11.2603 85.3953 125.682C70.2745 140.083 57.288 155.385 46.3229 171.243C46.3229 210.266 46.3229 284.588 46.3229 444.638C78.7195 481.065 127.106 502.881 188.304 498.643C233.163 495.533 269.211 497.099 302.61 501.12H839.173C916.706 461.515 961.163 393.068 960.993 292.615L930.994 162.336C902.876 107.805 852.777 60.1531 771.608 31.9481Z" fill="#FEDEA7"/>
<path d="M960.983 290.88C960.978 290.365 960.983 289.855 960.973 289.34C960.958 287.791 960.927 286.231 960.891 284.665C960.891 284.665 960.891 284.665 960.891 284.66C960.855 283.167 960.808 281.679 960.747 280.186C960.747 280.15 960.742 280.109 960.742 280.073C960.685 278.61 960.618 277.148 960.541 275.686C960.536 275.619 960.536 275.547 960.531 275.48C960.454 274.038 960.366 272.602 960.268 271.16C960.263 271.067 960.258 270.975 960.253 270.882C960.155 269.461 960.047 268.035 959.934 266.614C959.924 266.5 959.919 266.392 959.908 266.279C959.79 264.873 959.667 263.463 959.528 262.052C959.518 261.928 959.502 261.8 959.492 261.676C959.358 260.276 959.209 258.88 959.055 257.48C959.039 257.346 959.024 257.212 959.008 257.078C958.854 255.683 958.684 254.293 958.51 252.897C958.494 252.758 958.473 252.619 958.458 252.48C958.278 251.09 958.093 249.705 957.892 248.315C957.872 248.171 957.851 248.027 957.831 247.888C957.63 246.503 957.424 245.118 957.203 243.733C957.183 243.588 957.157 243.444 957.136 243.295C956.915 241.91 956.684 240.525 956.442 239.14C956.416 238.996 956.391 238.857 956.37 238.712C956.128 237.327 955.871 235.942 955.609 234.557C955.583 234.418 955.557 234.279 955.526 234.135C955.259 232.745 954.981 231.355 954.693 229.97C954.668 229.836 954.637 229.707 954.611 229.573C954.318 228.178 954.014 226.783 953.706 225.393C953.68 225.269 953.649 225.145 953.624 225.022C953.305 223.621 952.981 222.221 952.641 220.82C952.615 220.707 952.585 220.599 952.559 220.486C952.214 219.075 951.859 217.669 951.494 216.264C951.469 216.166 951.443 216.063 951.417 215.965C951.047 214.544 950.666 213.128 950.27 211.717C950.244 211.63 950.224 211.548 950.198 211.46C949.797 210.029 949.386 208.602 948.964 207.176C948.943 207.109 948.923 207.042 948.902 206.975C948.47 205.529 948.028 204.087 947.57 202.65C947.555 202.604 947.539 202.558 947.529 202.511C947.066 201.054 946.593 199.592 946.099 198.14C946.089 198.114 946.084 198.089 946.073 198.068C939.557 178.704 930.716 159.823 919.19 141.926L919.185 141.921C919.18 141.916 919.18 141.91 919.175 141.91C887.148 120.512 846.888 108.608 823.368 107.372C747.78 103.387 710.41 157.697 710.41 157.697C710.41 157.697 686.782 117.145 651.336 108.696C606.729 98.0634 566.942 120.522 566.942 120.522C566.942 120.522 528.441 42.225 460.613 43.9086C392.538 45.5974 368.906 91.2207 368.906 91.2207C368.906 91.2207 345.839 67.5672 300.265 77.7052C254.692 87.8431 247.944 132.339 247.944 132.339C247.944 132.339 148.044 115.585 67.4202 144.341C34.7921 181.242 14.2299 224.548 4.67392 268.189C-19.7405 389.963 52.9628 508.019 188.304 498.643H188.31C188.315 498.643 188.325 498.643 188.33 498.643C189.616 498.556 190.897 498.468 192.167 498.386H192.172C192.589 498.36 193 498.334 193.417 498.308C193.422 498.308 193.432 498.308 193.437 498.308C194.291 498.257 195.14 498.206 195.988 498.154C195.999 498.154 196.014 498.154 196.024 498.154C196.287 498.139 196.549 498.123 196.806 498.108C197.902 498.046 198.992 497.984 200.077 497.927C200.473 497.907 200.869 497.886 201.26 497.866C201.265 497.866 201.27 497.866 201.275 497.866C202.119 497.825 202.957 497.783 203.79 497.742C203.811 497.742 203.837 497.742 203.857 497.737C204.042 497.727 204.228 497.722 204.408 497.711C205.837 497.644 207.267 497.582 208.682 497.526C208.687 497.526 208.692 497.526 208.702 497.526C208.738 497.526 208.769 497.526 208.805 497.521C208.846 497.521 208.887 497.516 208.923 497.516C210.07 497.469 211.207 497.428 212.343 497.387C212.354 497.387 212.359 497.387 212.369 497.387C212.734 497.377 213.094 497.361 213.454 497.351C213.475 497.351 213.495 497.351 213.516 497.351C214.339 497.325 215.162 497.299 215.98 497.274C215.995 497.274 216.005 497.274 216.021 497.274C216.432 497.263 216.839 497.253 217.25 497.238C217.255 497.238 217.26 497.238 217.26 497.238C222.09 497.104 226.821 497.032 231.455 497.011C231.46 497.011 231.466 497.011 231.471 497.011C231.563 497.011 231.651 497.011 231.743 497.011C234.001 497.001 236.233 497.006 238.45 497.021C238.46 497.021 238.471 497.021 238.481 497.021C238.789 497.021 239.093 497.026 239.401 497.026C239.407 497.026 239.412 497.026 239.412 497.026C242.858 497.057 246.257 497.119 249.605 497.207C249.611 497.207 249.611 497.207 249.616 497.207C249.796 497.212 249.971 497.217 250.151 497.222C250.156 497.222 250.166 497.222 250.171 497.222C251.292 497.253 252.414 497.289 253.525 497.325C253.571 497.325 253.622 497.33 253.669 497.33C253.674 497.33 253.674 497.33 253.679 497.33C254.574 497.361 255.469 497.392 256.358 497.428C256.358 497.428 256.358 497.428 256.364 497.428C256.379 497.428 256.394 497.428 256.41 497.428C259.959 497.567 263.466 497.732 266.922 497.933C266.928 497.933 266.933 497.933 266.933 497.933C268.121 498 269.309 498.072 270.487 498.149C270.517 498.149 270.548 498.154 270.579 498.154C270.579 498.154 270.579 498.154 270.584 498.154C271.546 498.216 272.503 498.278 273.459 498.345C273.464 498.345 273.475 498.345 273.48 498.345C273.511 498.345 273.542 498.35 273.572 498.35C278.001 498.659 282.362 499.014 286.667 499.41H286.672C286.718 499.415 286.765 499.421 286.816 499.426C372.166 507.375 435.298 532.594 570.676 541.172C680.009 548.097 772.014 535.431 839.189 501.115C839.929 500.734 840.675 500.347 841.416 499.966C841.426 499.961 841.436 499.956 841.441 499.951C842.63 499.333 843.807 498.705 844.975 498.072C845.057 498.025 845.139 497.979 845.222 497.938C846.322 497.34 847.413 496.738 848.498 496.131C848.621 496.064 848.745 495.992 848.863 495.925C849.912 495.332 850.951 494.74 851.985 494.138C852.124 494.056 852.257 493.978 852.396 493.896C853.42 493.299 854.433 492.696 855.446 492.089C855.58 492.006 855.719 491.924 855.852 491.842C856.871 491.229 857.879 490.606 858.882 489.978C859 489.901 859.124 489.828 859.242 489.751C860.276 489.102 861.304 488.449 862.323 487.79C862.405 487.738 862.482 487.687 862.564 487.635C863.649 486.93 864.73 486.219 865.804 485.498C865.815 485.493 865.82 485.488 865.83 485.483C872.434 481.045 878.719 476.344 884.69 471.375C884.721 471.35 884.747 471.324 884.778 471.303C885.719 470.521 886.65 469.728 887.575 468.93C887.678 468.837 887.786 468.749 887.889 468.657C888.738 467.92 889.581 467.179 890.414 466.438C890.558 466.309 890.702 466.18 890.846 466.051C891.638 465.336 892.43 464.62 893.207 463.899C893.372 463.745 893.536 463.595 893.701 463.441C894.462 462.736 895.213 462.02 895.959 461.304C896.128 461.139 896.298 460.975 896.473 460.81C897.214 460.094 897.949 459.373 898.674 458.647C898.839 458.483 899.009 458.318 899.173 458.153C899.909 457.417 900.639 456.675 901.359 455.924C901.508 455.769 901.657 455.615 901.806 455.46C902.552 454.683 903.298 453.9 904.028 453.113C904.147 452.989 904.26 452.865 904.378 452.737C905.165 451.887 905.947 451.032 906.718 450.173C906.775 450.106 906.836 450.044 906.893 449.977C911.105 445.266 915.091 440.364 918.835 435.277C918.918 435.164 919 435.051 919.082 434.937C919.73 434.057 920.373 433.166 921.006 432.275C921.15 432.075 921.289 431.874 921.427 431.673C921.998 430.86 922.564 430.046 923.125 429.222C923.294 428.975 923.464 428.723 923.629 428.471C924.153 427.693 924.673 426.91 925.192 426.123C925.377 425.839 925.557 425.561 925.737 425.278C926.231 424.516 926.72 423.744 927.203 422.972C927.394 422.673 927.579 422.369 927.769 422.065C928.242 421.303 928.71 420.536 929.173 419.764C929.358 419.455 929.548 419.141 929.734 418.832C930.191 418.06 930.644 417.282 931.091 416.505C931.271 416.196 931.451 415.882 931.626 415.568C932.079 414.775 932.521 413.972 932.964 413.168C933.128 412.87 933.298 412.566 933.462 412.267C933.915 411.433 934.362 410.594 934.805 409.75C934.949 409.477 935.093 409.204 935.237 408.931C935.71 408.02 936.178 407.098 936.641 406.176C936.744 405.97 936.852 405.764 936.955 405.558C937.5 404.467 938.03 403.365 938.554 402.258C938.575 402.217 938.59 402.181 938.611 402.14C939.722 399.792 940.797 397.413 941.83 395.003C941.851 394.952 941.871 394.906 941.892 394.854C942.37 393.732 942.843 392.604 943.306 391.471C943.414 391.204 943.517 390.936 943.625 390.673C943.996 389.752 944.366 388.825 944.726 387.898C944.865 387.538 944.998 387.172 945.137 386.812C945.456 385.967 945.775 385.123 946.089 384.273C946.238 383.862 946.387 383.444 946.536 383.033C946.824 382.224 947.112 381.416 947.395 380.602C947.549 380.16 947.699 379.712 947.848 379.269C948.115 378.476 948.383 377.683 948.64 376.89C948.794 376.422 948.943 375.953 949.092 375.484C949.344 374.702 949.586 373.914 949.833 373.126C949.982 372.642 950.126 372.158 950.275 371.674C950.512 370.887 950.743 370.099 950.97 369.306C951.109 368.817 951.253 368.328 951.391 367.833C951.618 367.035 951.834 366.232 952.05 365.429C952.183 364.94 952.317 364.446 952.446 363.956C952.662 363.138 952.867 362.314 953.078 361.485C953.197 361.001 953.32 360.522 953.438 360.038C953.649 359.178 953.85 358.318 954.05 357.453C954.158 356.995 954.266 356.542 954.369 356.079C954.58 355.142 954.786 354.199 954.986 353.252C955.069 352.861 955.156 352.475 955.238 352.083C955.48 350.915 955.717 349.741 955.943 348.562C955.979 348.386 956.015 348.217 956.046 348.036C956.308 346.662 956.56 345.282 956.807 343.892C956.838 343.722 956.864 343.547 956.895 343.372C957.1 342.177 957.301 340.977 957.491 339.773C957.563 339.33 957.625 338.887 957.692 338.444C957.836 337.502 957.98 336.56 958.113 335.607C958.191 335.077 958.257 334.541 958.329 334.006C958.448 333.136 958.566 332.266 958.674 331.39C958.746 330.814 958.813 330.232 958.885 329.655C958.988 328.816 959.086 327.977 959.178 327.132C959.245 326.525 959.307 325.917 959.374 325.305C959.461 324.481 959.543 323.657 959.62 322.828C959.682 322.2 959.739 321.572 959.79 320.944C959.862 320.125 959.934 319.301 960.001 318.472C960.052 317.834 960.104 317.19 960.15 316.546C960.212 315.723 960.268 314.894 960.32 314.065C960.361 313.416 960.402 312.767 960.443 312.113C960.495 311.279 960.536 310.445 960.577 309.606C960.608 308.952 960.644 308.298 960.675 307.644C960.711 306.795 960.747 305.94 960.778 305.085C960.803 304.437 960.824 303.788 960.844 303.134C960.87 302.259 960.891 301.378 960.911 300.493C960.927 299.854 960.942 299.221 960.952 298.582C960.968 297.661 960.973 296.729 960.983 295.802C960.988 295.195 960.999 294.592 960.999 293.985C960.999 292.95 960.994 291.915 960.983 290.88Z" fill="url(#paint0_linear)"/>
<path d="M385.215 342.157C392.821 333.553 406.826 314.853 410.637 292.332L397.275 290.066C393.824 310.497 380.92 326.648 374.836 333.306C374.337 333.852 379.146 338.918 385.215 342.157Z" fill="url(#paint1_linear)"/>
<path d="M385.215 342.157C392.821 333.553 406.826 314.853 410.637 292.332L397.275 290.066C393.824 310.497 380.92 326.648 374.836 333.306C374.337 333.852 379.146 338.918 385.215 342.157Z" fill="url(#paint2_linear)"/>
<path d="M374.928 333.213L383.07 340.205C381.712 343.603 367.425 348.948 374.661 389.232L370.346 404.946L335.871 375.304C335.563 375.042 335.444 373.265 336.602 372.091L374.928 333.213Z" fill="#522CD5"/>
<path d="M382.931 395.349C383.584 397.624 382.916 399.406 381.337 401.007L375.746 406.625C374.882 407.5 373.411 407.562 372.475 406.758L365.825 401.048C364.766 400.142 364.704 398.598 365.686 397.599L370.459 392.306C372.28 390.457 373.164 389.057 372.326 386.014C367.373 368.009 367.317 349.298 378.318 336.117L385.271 342.09C380.072 349.221 374.347 365.414 382.931 395.349Z" fill="url(#paint3_linear)"/>
<path d="M372.47 406.758C373.406 407.562 374.877 407.5 375.741 406.619L381.332 401.002C382.211 400.111 382.792 399.159 383.039 398.103L372.521 389.072C372.259 390.277 371.524 391.214 370.454 392.306L365.681 397.599C364.699 398.592 364.76 400.137 365.82 401.048L372.47 406.758Z" fill="url(#paint4_radial)"/>
<path d="M436.291 344.963C436.471 333.476 434.943 310.152 423.186 290.571L411.573 297.558C422.235 315.316 422.95 335.989 422.661 345.004C422.631 345.751 429.579 346.461 436.291 344.963Z" fill="url(#paint5_linear)"/>
<path d="M436.291 344.963C436.471 333.476 434.943 310.152 423.186 290.571L411.573 297.558C422.235 315.316 422.95 335.989 422.661 345.004C422.631 345.751 429.579 346.461 436.291 344.963Z" fill="url(#paint6_linear)"/>
<path d="M422.667 344.88H433.395C434.578 348.345 435.17 366.582 468.456 389.639L468.399 402.315L421.628 402.284C419.992 402.284 418.748 401.012 418.861 399.37L422.667 344.88Z" fill="#522CD5"/>
<path d="M469.372 387.028C471.346 388.331 471.665 389.803 471.506 392.048L471.028 400.07C470.94 401.301 469.865 402.305 468.631 402.305H468.394C467.001 402.305 465.951 401.172 466.044 399.777L466.229 393.253C466.409 390.663 466.167 389.026 463.555 387.26C448.084 376.823 429.085 362.052 428.864 344.88H436.286C436.98 353.674 443.388 369.898 469.372 387.028Z" fill="url(#paint7_linear)"/>
<path d="M465.303 388.851C466.255 390.102 466.358 391.446 466.229 393.253L466.044 399.777C465.946 401.172 466.996 402.305 468.389 402.305H468.626C469.855 402.305 470.935 401.301 471.018 400.07L471.496 392.048C471.583 390.766 471.506 389.742 471.064 388.851H465.303V388.851Z" fill="url(#paint8_radial)"/>
<path d="M671.6 483.979C659.045 483.387 654.602 495.358 654.602 495.358C654.602 495.358 636.632 485.282 619.495 486.827C596.952 488.86 581.43 507.144 581.43 507.144C581.43 507.144 568.866 488.454 546.694 499.019C535.636 504.286 528.014 524.268 524.028 537.346C538.609 538.834 554.09 540.132 570.661 541.182C623.038 544.503 671.44 543.324 715.039 537.418C705.097 513.899 687.929 484.746 671.6 483.979Z" fill="#F7B548"/>
<path d="M867.913 479.963C870.516 473.502 870.516 468.657 865.964 463.806C861.412 458.961 862.713 456.269 864.663 447.65C866.54 439.36 855.791 430.581 854.968 429.922V429.876C854.968 429.876 854.958 429.886 854.942 429.897C854.927 429.886 854.916 429.876 854.916 429.876V429.922C854.093 430.581 843.344 439.36 845.222 447.65C847.171 456.269 848.472 458.956 843.92 463.806C839.369 468.651 839.369 473.502 841.971 479.963C844.573 486.425 842.619 486.425 838.721 496.12C838.026 497.845 838.093 499.621 838.674 501.377C848.575 496.347 857.941 490.848 866.74 484.875C866.689 483.557 867.044 482.121 867.913 479.963Z" fill="#E8A53F"/>
<path d="M524.907 537.429C517.491 525.448 508.177 512.751 495.962 499.55C480.296 482.626 464.038 481.997 434.779 503.936C405.514 525.875 404.63 506.444 393.397 505.816C388.604 505.548 383.167 509.389 378.508 513.884C419.884 522.029 464.64 531.328 524.907 537.429Z" fill="#F7B548"/>
<path d="M732.247 534.793C775.275 527.502 813.221 515.294 845.216 497.938V487.146H732.247V534.793Z" fill="#F7B548"/>
<path d="M732.248 534.793V487.146L686.52 440.833L646.712 483.377V542.732C677.036 541.934 705.611 539.309 732.248 534.793Z" fill="#FFD590"/>
<path d="M854.474 484.453L809.775 438.64C809.178 438.027 808.376 437.682 807.507 437.697H687.029L686.52 440.833L732.247 487.146L851.404 487.414L848.791 484.453H854.474Z" fill="#C4832D"/>
<path d="M732.335 490.179H853.821C855.457 490.179 856.779 488.851 856.779 487.218C856.779 487.218 856.691 484.258 853.821 484.258H732.783C731.147 484.258 730.633 485.586 730.633 487.218H730.545C730.545 488.851 730.705 490.179 732.335 490.179Z" fill="#FFF6E8"/>
<path d="M646.712 484.824V493.958L687.096 451.151L732.248 497.413V488.454L689.303 444.437C688.706 443.824 687.904 443.479 687.034 443.495C686.181 443.5 685.368 443.855 684.782 444.478L646.712 484.824Z" fill="#F7B548"/>
<path d="M675.493 495.348H662.985V510.758H675.493V495.348Z" fill="#F7B548"/>
<path d="M833.341 504.019V495.348H821.538V509.389C825.544 507.664 829.484 505.877 833.341 504.019Z" fill="#E29E3B"/>
<path d="M757.68 495.348H745.877V510.362H757.68V495.348Z" fill="#E29E3B"/>
<path d="M795.508 495.348H783.705V510.362H795.508V495.348Z" fill="#E29E3B"/>
<path d="M714.046 495.348H701.538V510.758H714.046V495.348Z" fill="#F7B548"/>
<path d="M105.922 460.491C98.855 456.182 104.25 451.553 103.273 446.759C101.853 439.814 94.5039 432.343 91.6598 438.665C89.5819 443.284 90.9397 446.291 91.9992 449.993C93.5267 455.332 88.3373 458.117 84.4851 461.083C80.6329 464.044 79.1722 468.41 82.4176 472.611C83.0862 473.476 83.549 474.254 83.4153 475.459C92.6112 480.978 102.507 485.643 113.06 489.335C113.487 487.589 113.328 485.653 112.608 483.65C110.088 476.648 110.633 474.763 113.472 471.803C117.432 467.674 112.988 464.801 105.922 460.491Z" fill="#E8A53F"/>
<path d="M633.936 542.959C636.847 539.89 638.19 535.885 636.318 531.189C633.535 524.212 630.403 517.771 632.99 515.089C635.577 512.406 637.624 504.091 633.191 499.874C628.757 495.657 621.665 487.471 623.146 482.487C624.622 477.503 623.578 470.274 620.431 467.555C613.338 461.428 608.607 471.391 608.236 478.29C607.866 485.19 613.781 491.708 606.39 497.84C598.999 503.972 594.365 508.066 598.999 513.94C602.327 518.157 603.062 520.84 600.846 530.808C599.868 535.195 600.336 539.355 602.322 542.645C613.05 542.954 623.588 543.062 633.936 542.959Z" fill="#E8A53F"/>
<path d="M364.832 489.571C359.993 479.068 347.351 486.07 347.351 486.07C347.351 486.07 346.811 470.989 327.714 466.953C307.867 462.757 297.051 484.186 297.051 484.186C297.051 484.186 281.452 466.685 272.307 493.073C272.307 493.073 272.446 495.235 272.672 498.293C310.577 500.863 343.416 506.979 378.719 513.925C371.93 503.767 365.861 491.806 364.832 489.571Z" fill="#F7B548"/>
<path d="M330.692 505.105V489.978H328.002V504.677C328.902 504.816 329.797 504.96 330.692 505.105Z" fill="#797673"/>
<path d="M342.753 473.013C339.523 463.318 337.913 463.318 340.063 456.856C342.213 450.394 342.213 445.544 338.448 440.699C334.683 435.854 335.758 433.161 337.373 424.542C338.926 416.253 330.034 407.474 329.35 406.815V406.769C329.35 406.769 329.34 406.779 329.329 406.789C329.319 406.779 329.309 406.769 329.309 406.769V406.815C328.625 407.474 319.732 416.258 321.285 424.542C322.9 433.161 323.975 435.854 320.211 440.699C316.446 445.544 316.446 450.394 318.596 456.856C320.745 463.318 319.136 463.318 315.906 473.013C312.676 482.708 329.319 494.015 329.319 494.015H329.355C329.35 494.015 345.978 482.708 342.753 473.013Z" fill="#E8A53F"/>
<path d="M623.625 188.373C622.838 179.893 617.823 171.5 609.512 164.75C599.73 156.806 585.843 151.163 568.233 147.976C547.373 144.202 521.755 144.027 492.089 147.451C472.324 149.731 454.472 149.175 439.032 145.793C425.866 142.909 414.381 137.961 404.897 131.098C388.47 119.21 380.956 103.681 379.403 93.1104L381.789 92.7603C383.271 102.842 390.492 117.696 406.312 129.141C415.528 135.809 426.71 140.618 439.552 143.434C454.729 146.761 472.314 147.306 491.817 145.051C521.719 141.596 547.573 141.782 568.665 145.597C586.682 148.856 600.933 154.669 611.034 162.871C619.855 170.033 625.178 179.007 626.027 188.141L623.625 188.373Z" fill="#C4832D"/>
<path d="M93.7993 470.428L112.531 433.831H221.2H266.388L284.044 469.893L259.393 470.454L93.7993 470.428Z" fill="#C4832D"/>
<path d="M274.992 469.377L255.628 468.301L216.36 431.143L179.242 468.842L103.931 470.994V485.828C128.325 496.033 156.592 500.841 188.31 498.643C221.118 496.367 249.204 496.594 274.997 498.452V469.377H274.992Z" fill="#FCCF84"/>
<path d="M955.701 235.031C890.389 236.19 821.594 237.899 768.234 226.433C737.123 219.745 711.675 210.255 692.717 197.615C675.91 186.406 667.398 174.904 663.221 167.232C658.701 158.932 658.14 153.207 658.135 153.15L655.733 153.181C654.74 169.462 647.185 183.25 633.88 193.053C621.896 201.889 606.128 206.842 589.49 207.001C547.686 207.424 526.836 181.057 524.727 154.772L522.325 154.968C523.709 172.221 531.562 186.504 545.043 196.271C556.959 204.906 572.749 209.581 589.515 209.416C606.657 209.251 622.92 204.134 635.31 195C647.339 186.133 654.869 174.142 657.348 160.045C660.29 168.643 668.478 184.259 691.092 199.428C710.276 212.294 735.961 222.154 767.437 228.729C798.764 235.273 834.982 237.935 877.34 237.93C881.177 237.93 937.669 237.611 956.144 237.42C956 236.627 955.856 235.829 955.701 235.031Z" fill="#C4832D"/>
<path d="M572.867 158.005C563.759 149.999 551.616 143.625 536.773 139.063C518.309 133.389 495.571 130.511 469.192 130.511C440.575 130.511 419.751 120.249 409.892 114.133C396.422 105.781 387.015 95.0719 387.015 88.0953C387.015 83.4872 386.408 81.5873 384.86 81.3195C384.186 81.2011 382.144 80.851 378.77 90.3453C378.251 91.5244 363.67 123.668 317.115 155.524C289.336 174.533 255.906 190.005 217.471 200.55C150.071 219.034 75.2534 222.7 18.0052 223.668C17.6812 224.476 17.3675 225.284 17.0486 226.098C74.4614 225.181 144.927 222.283 218.125 202.872C256.899 192.59 290.478 176.675 318.472 157.516C343.411 140.448 359.062 123.385 367.8 112.068C377.305 99.7624 380.848 91.6068 380.992 91.267L381.018 91.1949C382.072 88.2189 383.456 85.2995 384.31 84.1462C384.448 84.7538 384.598 85.9174 384.598 88.1005C384.598 95.9935 394.246 107.28 408.611 116.187C418.691 122.438 439.969 132.926 469.182 132.926C495.226 132.926 517.661 135.747 535.862 141.313C550.366 145.746 562.221 151.925 571.093 159.668C586.131 172.793 587.397 186.082 587.407 186.216L588.605 186.118L589.809 186.02C589.773 185.438 588.523 171.768 572.867 158.005Z" fill="#C4832D"/>
<path d="M600.218 82.9467L592.231 74.9507L520.613 146.647L448.989 74.9507L441.002 82.9467L518.982 161.012L520.613 159.38L522.238 161.012L600.218 82.9467Z" fill="#D89739"/>
<path d="M659.338 89.666H654.782V110.668H659.338V89.666Z" fill="#C4832D"/>
<path d="M664.466 127.942V127.314H669.846C669.846 127.314 664.466 124.621 664.466 116.543V110.719C664.466 106.626 661.149 103.305 657.06 103.305C652.972 103.305 649.654 106.626 649.654 110.719V116.867C649.613 116.888 649.582 116.903 649.582 116.903C649.582 123.365 644.383 127.314 644.383 127.314H649.654V128.266C649.613 128.287 649.582 128.302 649.582 128.302C649.582 134.764 644.383 138.713 644.383 138.713H650.745C650.76 138.734 650.77 138.76 650.786 138.785C650.04 139.12 649.582 139.341 649.582 139.341C649.582 145.803 644.383 149.752 644.383 149.752H669.846C669.846 149.752 664.466 147.059 664.466 138.981C664.466 138.883 664.451 138.801 664.446 138.713H669.846C669.846 138.713 664.466 136.02 664.466 127.942Z" fill="#F7B548"/>
<path d="M669.584 149.351H644.413C643.23 149.351 642.274 150.308 642.274 151.492V152.049C642.274 153.233 643.23 154.19 644.413 154.19H669.584C670.767 154.19 671.723 153.233 671.723 152.049V151.492C671.728 150.313 670.767 149.351 669.584 149.351Z" fill="#C4832D"/>
<path d="M669.584 137.771H644.413C643.23 137.771 642.274 138.729 642.274 139.913V140.469C642.274 141.653 643.23 142.611 644.413 142.611H669.584C670.767 142.611 671.723 141.653 671.723 140.469V139.913C671.728 138.734 670.767 137.771 669.584 137.771Z" fill="#C4832D"/>
<path d="M669.584 126.197H644.413C643.23 126.197 642.274 127.154 642.274 128.339V128.895C642.274 130.079 643.23 131.037 644.413 131.037H669.584C670.767 131.037 671.723 130.079 671.723 128.895V128.339C671.728 127.154 670.767 126.197 669.584 126.197Z" fill="#C4832D"/>
<path d="M508.691 184.821C511.705 182.571 512.255 178.271 509.905 175.331L505.255 169.518C502.853 166.553 498.687 166.012 495.956 168.303C493.225 170.6 492.958 174.863 495.36 177.829L500.081 183.719C502.185 186.35 505.996 186.834 508.691 184.821Z" fill="#8A6FE8"/>
<path d="M531.192 200.627L519.538 192.296C509.817 204.875 500.683 215.806 489.883 221.614C468.364 233.188 442.772 218.73 435.952 214.323L426.334 228.652C447.128 238.404 488.787 262.407 531.192 200.627Z" fill="#8A6FE8"/>
<path d="M511.088 223.997C511.52 223.611 511.957 223.215 512.389 222.813L502.453 212.14C502.026 212.546 501.599 212.953 501.172 213.35L511.088 223.997Z" fill="#A08BE8"/>
<path d="M471.398 241.431C471.979 241.405 472.56 241.375 473.142 241.333L472.797 225.985C472.216 226 471.63 226.005 471.054 226L471.398 241.431Z" fill="#A08BE8"/>
<path d="M450.718 238.744C451.345 238.924 451.973 239.099 452.61 239.264L456.725 223.771C456.159 223.611 455.599 223.441 455.048 223.271L450.718 238.744Z" fill="#A08BE8"/>
<path d="M503.085 402.351H407.397V407.932H503.085V402.351Z" fill="#C4832D"/>
<path d="M685.795 97.3836H351.398C350.236 97.3836 349.295 96.4414 349.295 95.2778V76.2582C349.295 75.0946 350.236 74.1523 351.398 74.1523H685.795C686.957 74.1523 687.898 75.0946 687.898 76.2582V95.2778C687.898 96.4414 686.957 97.3836 685.795 97.3836Z" fill="#E9A841"/>
<path d="M687.723 97.3836H678.548C677.386 97.3836 676.444 96.4414 676.444 95.2778V76.2582C676.444 75.0946 677.386 74.1523 678.548 74.1523H687.723C688.886 74.1523 689.827 75.0946 689.827 76.2582V95.2778C689.827 96.4414 688.886 97.3836 687.723 97.3836Z" fill="#D89739"/>
<path d="M537.055 538.593V40.5569C537.055 39.28 536.022 38.2451 534.746 38.2451H503.497C502.221 38.2451 501.187 39.28 501.187 40.5569V534.777C512.548 536.168 524.47 537.45 537.055 538.593Z" fill="#E9A841"/>
<path d="M537.055 538.593V40.5569C537.055 39.28 536.021 38.2451 534.746 38.2451H527.931C526.656 38.2451 525.622 39.28 525.622 40.5569V537.501C529.376 537.877 533.182 538.243 537.055 538.593Z" fill="#D89739"/>
<path d="M475.698 249.685C480.81 230.263 477.596 214.735 477.596 214.735L482.163 214.75L482.276 214.663C475.837 178.977 444.705 151.858 407.186 151.75C364.915 151.626 330.548 185.83 330.425 228.147C330.301 270.465 364.467 304.869 406.739 304.993C440.092 305.091 468.518 283.811 479.092 254.041C479.401 252.769 479.385 250.498 475.698 249.685Z" fill="url(#paint9_radial)"/>
<path d="M475.698 249.685C480.748 230.5 477.673 215.126 477.595 214.755L442.288 214.524C442.288 214.524 437.284 214.004 437.273 218.576C437.258 223.148 437.412 236.076 437.371 250.369C437.361 253.309 439.763 254.736 441.655 254.741C441.66 254.736 474.978 252.3 475.698 249.685Z" fill="url(#paint10_radial)"/>
<path d="M473.244 238.105C470.858 239.886 458.617 249.53 458.617 249.53L475.723 249.669C477.061 244.422 477.791 239.912 478.079 237.003C476.407 236.215 475.091 236.725 473.244 238.105Z" fill="#A08BE8"/>
<path d="M478.784 254.916C478.784 254.916 480.918 250.838 475.698 249.679C475.703 249.659 475.708 249.638 475.713 249.618L441.727 249.391C439.912 249.386 437.577 248.294 437.376 246.528C437.376 247.79 437.371 249.072 437.371 250.364C437.361 253.031 439.336 254.447 441.115 254.689C441.295 254.71 441.47 254.73 441.655 254.73L446.994 254.746L478.784 254.916Z" fill="#512BD4"/>
<path d="M472.843 267.36L340.865 266.974C343.812 272.02 347.32 276.695 351.306 280.922L462.326 281.246C466.332 277.045 469.865 272.391 472.843 267.36Z" fill="#D8CFF7"/>
<path d="M458.854 284.676C465.437 278.595 470.945 271.371 475.075 263.313L458.916 263.267L458.854 284.676Z" fill="#512BD4"/>
<path d="M412.257 148.82L397.471 148.681L399.698 133.498L410.318 133.601L412.257 148.82Z" fill="#D0C5F3"/>
<path d="M417.827 158.166C418.496 158.171 419.031 157.599 418.964 156.935C418.249 149.902 412.35 144.377 405.119 144.31C397.887 144.243 391.885 149.649 391.037 156.672C390.954 157.337 391.484 157.918 392.153 157.924L417.827 158.166Z" fill="url(#paint11_radial)"/>
<path d="M465.69 232.894C465.833 227.331 463.268 222.752 459.963 222.667C456.658 222.583 453.863 227.024 453.721 232.587C453.578 238.15 456.142 242.729 459.448 242.814C462.753 242.898 465.548 238.457 465.69 232.894Z" fill="#512BD4"/>
<path d="M459.692 227.426C457.481 229.594 457.445 233.142 459.61 235.35C461.091 236.864 463.22 237.358 465.128 236.828C465.463 235.628 465.663 234.305 465.699 232.915C465.771 230.186 465.185 227.699 464.187 225.861C462.583 225.697 460.927 226.217 459.692 227.426Z" fill="#8065E0"/>
<path d="M405.705 136.499C413.57 136.499 419.946 130.116 419.946 122.242C419.946 114.368 413.57 107.985 405.705 107.985C397.84 107.985 391.464 114.368 391.464 122.242C391.464 130.116 397.84 136.499 405.705 136.499Z" fill="url(#paint12_radial)"/>
<path d="M481.124 264.168C468.775 266.701 457.511 268.138 447.585 266.156C431.122 262.871 420.99 248.876 415.461 237.93C412.946 232.946 398.113 239.933 400.844 245.051C411.866 265.692 432.536 290.545 484.909 278.338C487.46 277.746 483.731 263.633 481.124 264.168Z" fill="url(#paint13_linear)"/>
<path d="M404.342 246.904C412.105 246.904 418.398 240.604 418.398 232.832C418.398 225.061 412.105 218.761 404.342 218.761C396.579 218.761 390.286 225.061 390.286 232.832C390.286 240.604 396.579 246.904 404.342 246.904Z" fill="url(#paint14_radial)"/>
<path d="M499.804 263.612L508.454 253.001C510.738 250.158 510.11 246.106 507.05 243.949C503.99 241.792 499.66 242.348 497.376 245.195L488.509 256.074L499.804 263.612Z" fill="#8A6FE8"/>
<path d="M488.628 280.695L500.421 288.831C503.579 290.978 507.729 290.303 509.694 287.327C511.659 284.351 510.692 280.196 507.539 278.049L495.447 269.708L488.628 280.695Z" fill="#8A6FE8"/>
<path d="M500.652 271.016L513.767 265.275C517.254 263.725 518.859 259.838 517.357 256.599C515.855 253.361 511.813 251.996 508.326 253.546L494.876 259.431L500.652 271.016Z" fill="#8A6FE8"/>
<path d="M495.447 276.376L509.601 278.513C513.376 279.058 516.801 276.628 517.254 273.086C517.707 269.543 515.012 266.233 511.237 265.687L496.723 263.494L495.447 276.376Z" fill="#8A6FE8"/>
<path d="M482.965 258.504C488.962 253.613 498.107 254.225 503.383 259.869C508.66 265.512 508.074 274.053 502.077 278.945C496.08 283.836 486.936 283.223 481.659 277.58C476.377 271.932 476.963 263.395 482.965 258.504Z" fill="url(#paint15_radial)"/>
<path d="M527.967 200.22C527.906 203.608 530.59 206.409 533.974 206.486L542.168 206.672C545.984 206.733 549.085 203.891 549.1 200.323C549.111 196.755 546.03 193.81 542.214 193.748L534.833 193.48C531.13 193.347 528.039 196.276 527.972 199.983L527.967 200.22Z" fill="#8A6FE8"/>
<path d="M526.98 187.693C530.056 189.856 534.309 189.037 536.361 185.886L540.429 179.651C542.492 176.438 541.71 172.309 538.681 170.43C535.651 168.545 531.521 169.621 529.454 172.834L525.334 179.162C523.503 181.983 524.228 185.757 526.98 187.693Z" fill="#8A6FE8"/>
<path d="M528.302 192.955C529.901 196.302 533.887 197.744 537.256 196.194L544.194 193.002C547.65 191.385 549.183 187.472 547.624 184.264C546.061 181.057 541.993 179.764 538.536 181.381L531.377 184.573C528.183 186.005 526.79 189.794 528.302 192.955Z" fill="#8A6FE8"/>
<path d="M553.647 412.499H539.185V264.796H553.647V256.594H535.086C532.823 256.594 530.992 258.432 530.992 260.693V416.598C530.992 418.863 532.828 420.696 535.086 420.696H553.647V412.499Z" fill="#C4832D"/>
<path d="M654.571 432.579C612.988 439.324 577.352 435.231 561.47 432.605C556.373 431.761 552.644 427.333 552.644 422.163V239.984H663.792C663.792 239.984 664.337 374.62 663.911 421.7C663.859 427.122 659.909 431.709 654.571 432.579Z" fill="white"/>
<path d="M654.571 432.579C612.988 439.324 577.352 435.231 561.47 432.605C556.373 431.761 552.644 427.333 552.644 422.163V239.984H663.792C663.792 239.984 664.337 374.62 663.911 421.7C663.859 427.122 659.909 431.709 654.571 432.579Z" fill="white"/>
<path d="M186.751 498.736C187.271 498.705 187.785 498.679 188.305 498.643C192.81 498.329 197.228 498.067 201.564 497.845V485.179H186.751V498.736V498.736Z" fill="#F7B548"/>
<path d="M241.562 497.047V485.185H226.749V497.047C231.795 496.986 236.727 496.986 241.562 497.047Z" fill="#F7B548"/>
<path d="M168.92 499.107C173.77 499.21 178.702 499.153 183.732 498.911V485.185H168.92V499.107Z" fill="#F7B548"/>
<path d="M259.393 497.547V485.179H244.581V497.088C249.616 497.181 254.548 497.335 259.393 497.547Z" fill="#F7B548"/>
<path d="M126.721 493.469C133.87 495.307 141.296 496.713 148.975 497.67V485.185H126.721V493.469V493.469Z" fill="#F7B548"/>
<path d="M663.792 239.984H552.644V255.807H628.027C631.463 255.807 634.25 258.582 634.26 262.021C634.358 288.491 634.713 392.419 634.374 435.097C640.91 434.515 647.674 433.697 654.602 432.569C659.93 431.704 663.859 427.106 663.911 421.7C664.337 374.625 663.792 239.984 663.792 239.984Z" fill="#FFF2DC"/>
<path d="M633.705 222.633H616.81C616.1 222.633 615.524 222.056 615.524 221.346V192.59C615.524 191.879 616.1 191.303 616.81 191.303H633.705C634.415 191.303 634.991 191.879 634.991 192.59V221.346C634.991 222.061 634.415 222.633 633.705 222.633Z" fill="#E9A841"/>
<path d="M637.254 218.051H612.5C611.852 218.051 611.327 218.576 611.327 219.225V234.074C611.327 234.722 611.852 235.248 612.5 235.248H637.254C637.902 235.248 638.427 234.722 638.427 234.074V219.225C638.427 218.576 637.902 218.051 637.254 218.051Z" fill="white"/>
<path d="M638.108 210.904H611.584V214.38H638.108V210.904Z" fill="white"/>
<path d="M638.108 204.108H611.584V207.583H638.108V204.108Z" fill="white"/>
<path d="M638.108 197.312H611.584V200.787H638.108V197.312Z" fill="white"/>
<path d="M638.108 190.515H611.584V193.991H638.108V190.515Z" fill="white"/>
<path d="M629.266 185.299H620.425V193.836H629.266V185.299Z" fill="white"/>
<path d="M552.644 234.295C552.644 234.295 581.065 224.811 608.848 224.811C636.631 224.811 665.052 236.823 665.052 236.823L552.644 234.295Z" fill="#C4832D"/>
<path d="M593.059 185.299H584.218V193.836H593.059V185.299Z" fill="white"/>
<path d="M597.498 222.633H580.602C579.893 222.633 579.317 222.056 579.317 221.346V192.59C579.317 191.879 579.893 191.303 580.602 191.303H597.498C598.207 191.303 598.783 191.879 598.783 192.59V221.346C598.783 222.061 598.207 222.633 597.498 222.633Z" fill="#E9A841"/>
<path d="M601.046 218.051H576.293C575.644 218.051 575.12 218.576 575.12 219.225V234.074C575.12 234.722 575.644 235.248 576.293 235.248H601.046C601.694 235.248 602.219 234.722 602.219 234.074V219.225C602.219 218.576 601.694 218.051 601.046 218.051Z" fill="white"/>
<path d="M601.9 210.904H575.377V214.38H601.9V210.904Z" fill="white"/>
<path d="M601.9 204.108H575.377V207.583H601.9V204.108Z" fill="white"/>
<path d="M601.9 197.312H575.377V200.787H601.9V197.312Z" fill="white"/>
<path d="M601.9 190.515H575.377V193.991H601.9V190.515Z" fill="white"/>
<path d="M672.567 245.045H543.433C542.775 245.045 542.24 244.51 542.24 243.851V234.228C542.24 233.569 542.775 233.033 543.433 233.033H672.567C673.225 233.033 673.76 233.569 673.76 234.228V243.851C673.765 244.51 673.23 245.045 672.567 245.045Z" fill="#E9A841"/>
<path d="M641.333 492.439C640.561 492.439 639.79 492.156 639.183 491.585C637.923 490.395 637.866 488.413 639.054 487.151L684.782 438.681C685.368 438.058 686.181 437.703 687.034 437.697C687.904 437.687 688.706 438.032 689.303 438.64L734.49 484.953C735.699 486.194 735.678 488.176 734.439 489.386C733.199 490.596 731.219 490.57 730.011 489.335L687.101 445.354L643.616 491.451C642.994 492.11 642.166 492.439 641.333 492.439Z" fill="#FFF6E8"/>
<path d="M178.702 467.081H256.703L216.355 431.138L178.702 467.081Z" fill="#F7B548"/>
<path d="M175.472 473.569H96.9315C95.2034 473.569 93.7993 472.164 93.7993 470.434C93.7993 468.704 95.2034 467.298 96.9315 467.298H174.212L213.65 429.398C214.838 428.255 216.71 428.229 217.929 429.341L258.992 466.762H280.912C282.64 466.762 284.044 468.168 284.044 469.898C284.044 471.628 282.64 473.034 280.912 473.034H257.778C256.996 473.034 256.245 472.74 255.669 472.215L215.877 435.952L177.643 472.699C177.056 473.255 176.28 473.569 175.472 473.569Z" fill="#FFF6E8"/>
<path d="M447.822 526.967V500.471L410.93 461.042L368.556 503.962V511.932C393.223 516.716 418.758 522.045 447.822 526.967Z" fill="#FFD590"/>
<path d="M410.93 461.042L410.457 458.138H341.235C340.433 458.128 339.687 458.447 339.132 459.013L298.517 500.641C307.337 501.64 315.952 502.819 324.484 504.127L368.551 503.967L410.93 461.042Z" fill="#C4832D"/>
<path d="M412.545 464.414C412.005 463.837 411.249 463.508 410.457 463.503C409.655 463.492 408.909 463.812 408.354 464.378L368.556 503.962H323.43C338.556 506.263 353.394 508.997 368.556 511.932C368.978 512.014 369.4 512.097 369.816 512.179L410.396 470.598L447.822 510.269V501.804L412.545 464.414Z" fill="#F7B548"/>
<path d="M421.15 522.194C424.956 522.909 428.818 523.62 432.743 524.325V511.562H421.15V522.194Z" fill="#F7B548"/>
<path d="M397.013 517.534V511.562H385.42V515.243C389.252 516.005 393.109 516.767 397.013 517.534Z" fill="#F7B548"/>
<path d="M454.92 503.967L412.545 459.049C412.005 458.473 411.249 458.143 410.457 458.138C409.655 458.128 408.909 458.447 408.354 459.013L367.111 501.285H303.969C316.441 502.814 328.553 504.683 340.629 506.773L368.525 506.866C368.597 506.866 368.674 506.861 368.746 506.856C368.772 506.856 368.798 506.851 368.818 506.845C369.482 506.784 370.125 506.511 370.624 505.996L410.39 465.238L450.692 507.958C451.263 508.565 452.034 508.869 452.801 508.869C453.516 508.869 454.23 508.606 454.791 508.076C455.969 506.969 456.02 505.131 454.92 503.967Z" fill="#FFF6E8"/>
<path d="M457.285 170.641C447.74 162.294 436.106 156.281 423.269 153.495C377.315 155.529 373.313 176.613 373.313 176.613C405.592 168.344 442.036 169.461 457.285 170.641Z" fill="url(#paint16_radial)"/>
<path d="M408.951 160.91C392.945 171.31 373.725 176.618 366.797 178.302C365.311 178.663 363.809 177.803 363.367 176.34L360.255 166.12C360.255 166.12 428.86 147.966 408.951 160.91Z" fill="#512BD4"/>
<path d="M440.879 152.121C440.879 152.121 439.449 102.183 396.216 107.61C348.575 113.587 355.199 156.749 354.7 162.114C354.202 167.48 424.899 160.39 430.896 159.581C436.888 158.773 439.567 151.482 440.879 152.121Z" fill="url(#paint17_radial)"/>
<path d="M354.443 162.202L344.193 165.734C343.509 165.971 343.087 166.656 343.185 167.371L343.309 168.283C343.417 169.096 344.152 169.673 344.97 169.585C354.13 168.602 402.341 164.529 411.45 163.675C421.5 162.727 434.09 164.483 444.083 163.134L461.673 160.735C462.501 160.621 463.082 159.859 462.969 159.03L462.881 158.361C462.799 157.738 462.341 157.234 461.729 157.089L441.198 152.203C440.987 152.152 440.766 152.147 440.55 152.193C436.173 153.078 388.033 162.66 354.953 162.125C354.783 162.115 354.608 162.145 354.443 162.202Z" fill="#FAE969"/>
<path d="M431.559 153.336L430.191 146.539C430.006 145.628 429.142 145.026 428.227 145.17L418.717 146.653C417.812 146.792 417.174 147.615 417.262 148.532L417.93 155.524C418.028 156.523 418.943 157.233 419.936 157.069L430.145 155.39C431.112 155.23 431.755 154.298 431.559 153.336Z" fill="#FAE969"/>
<path d="M377.094 161.085L376.41 153.892C376.333 153.063 375.597 152.45 374.769 152.528L364.714 153.444C363.943 153.516 363.351 154.149 363.341 154.927C363.29 157.723 363.218 163.85 363.526 163.793C363.84 163.736 372.218 163.031 375.726 162.738C376.559 162.666 377.176 161.924 377.094 161.085Z" fill="#FAE969"/>
<defs>
<linearGradient id="paint0_linear" x1="480.498" y1="43.8811" x2="480.498" y2="542.999" gradientUnits="userSpaceOnUse">
<stop stop-color="white"/>
<stop offset="0.4666" stop-color="#FEDEA7"/>
</linearGradient>
<linearGradient id="paint1_linear" x1="407.259" y1="290.177" x2="380.111" y2="339.05" gradientUnits="userSpaceOnUse">
<stop stop-color="#522CD5"/>
<stop offset="0.4397" stop-color="#8A6FE8"/>
</linearGradient>
<linearGradient id="paint2_linear" x1="392.854" y1="289.862" x2="392.851" y2="341.953" gradientUnits="userSpaceOnUse">
<stop offset="0.0804" stop-color="#522CD5"/>
<stop offset="0.4516" stop-color="#8A6FE8"/>
</linearGradient>
<linearGradient id="paint3_linear" x1="386.099" y1="337.803" x2="371.887" y2="407.017" gradientUnits="userSpaceOnUse">
<stop stop-color="#522CD5"/>
<stop offset="0.4397" stop-color="#8A6FE8"/>
</linearGradient>
<radialGradient id="paint4_radial" cx="0" cy="0" r="1" gradientUnits="userSpaceOnUse" gradientTransform="translate(385.25 384.814) rotate(40.6511) scale(21.2141 21.2176)">
<stop offset="0.034" stop-color="#522CD5"/>
<stop offset="0.9955" stop-color="#8A6FE8"/>
</radialGradient>
<linearGradient id="paint5_linear" x1="419.19" y1="291.274" x2="430.441" y2="346.049" gradientUnits="userSpaceOnUse">
<stop stop-color="#522CD5"/>
<stop offset="0.4397" stop-color="#8A6FE8"/>
</linearGradient>
<linearGradient id="paint6_linear" x1="419.19" y1="291.274" x2="430.441" y2="346.049" gradientUnits="userSpaceOnUse">
<stop stop-color="#522CD5"/>
<stop offset="0.4397" stop-color="#8A6FE8"/>
</linearGradient>
<linearGradient id="paint7_linear" x1="435.504" y1="341.196" x2="469.403" y2="402.214" gradientUnits="userSpaceOnUse">
<stop stop-color="#522CD5"/>
<stop offset="0.4397" stop-color="#8A6FE8"/>
</linearGradient>
<radialGradient id="paint8_radial" cx="0" cy="0" r="1" gradientUnits="userSpaceOnUse" gradientTransform="translate(463.851 387.421) scale(11.9698 11.9828)">
<stop offset="0.034" stop-color="#522CD5"/>
<stop offset="1" stop-color="#8A6FE8"/>
</radialGradient>
<radialGradient id="paint9_radial" cx="0" cy="0" r="1" gradientUnits="userSpaceOnUse" gradientTransform="translate(421.443 176.688) rotate(-10.2061) scale(76.5508 76.6295)">
<stop offset="0.4744" stop-color="#A08BE8"/>
<stop offset="0.8618" stop-color="#8065E0"/>
</radialGradient>
<radialGradient id="paint10_radial" cx="0" cy="0" r="1" gradientUnits="userSpaceOnUse" gradientTransform="translate(457.424 227.531) rotate(-10.2061) scale(50.2704 50.3221)">
<stop offset="0.2022" stop-color="#E1DFDD"/>
<stop offset="0.7337" stop-color="white"/>
</radialGradient>
<radialGradient id="paint11_radial" cx="0" cy="0" r="1" gradientUnits="userSpaceOnUse" gradientTransform="translate(404.218 152.439) rotate(-10.2061) scale(11.2821 11.2938)">
<stop stop-color="#8065E0"/>
<stop offset="0.8628" stop-color="#512BD4"/>
</radialGradient>
<radialGradient id="paint12_radial" cx="0" cy="0" r="1" gradientUnits="userSpaceOnUse" gradientTransform="translate(408.445 114.827) rotate(-10.2061) scale(19.8041 19.8245)">
<stop stop-color="#A08BE8"/>
<stop offset="1" stop-color="#8065E0"/>
</radialGradient>
<linearGradient id="paint13_linear" x1="424.53" y1="218.132" x2="460.915" y2="295.789" gradientUnits="userSpaceOnUse">
<stop offset="0.3393" stop-color="#967FE6"/>
<stop offset="1" stop-color="#8A6FE8"/>
</linearGradient>
<radialGradient id="paint14_radial" cx="0" cy="0" r="1" gradientUnits="userSpaceOnUse" gradientTransform="translate(404.971 226.95) scale(20.8728 20.8956)">
<stop stop-color="#8065E0"/>
<stop offset="0.8628" stop-color="#512BD4"/>
</radialGradient>
<radialGradient id="paint15_radial" cx="0" cy="0" r="1" gradientUnits="userSpaceOnUse" gradientTransform="translate(492.124 260.764) rotate(-176.853) scale(24.397 22.7931)">
<stop stop-color="#8065E0"/>
<stop offset="0.8628" stop-color="#512BD4"/>
</radialGradient>
<radialGradient id="paint16_radial" cx="0" cy="0" r="1" gradientUnits="userSpaceOnUse" gradientTransform="translate(452.659 116.886) scale(84.7163 84.8092)">
<stop offset="0.4744" stop-color="#A08BE8"/>
<stop offset="0.8618" stop-color="#8065E0"/>
</radialGradient>
<radialGradient id="paint17_radial" cx="0" cy="0" r="1" gradientUnits="userSpaceOnUse" gradientTransform="translate(387.955 124.417) scale(36.5209 36.5609)">
<stop offset="0.2319" stop-color="#FAE969"/>
<stop offset="0.9959" stop-color="#E8D441"/>
</radialGradient>
</defs>
</svg>
