<svg width="909" height="513" viewBox="0 0 909 513" fill="none" xmlns="http://www.w3.org/2000/svg">
<path d="M710.803 11.5691C691.864 11.5691 673.539 14.2304 656.196 19.1909C526.983 48.3866 396.185 25.2169 328.292 10.3356C305.38 3.61141 281.139 0 256.053 0C114.641 0 0 114.641 0 256.053C0 397.465 114.641 512.107 256.053 512.107C533.67 512.107 746.812 445.558 839.979 360.301C840.882 359.477 841.758 358.632 842.619 357.771C883.347 321.474 909 268.615 909 209.761C909 100.306 820.263 11.5691 710.803 11.5691Z" fill="url(#paint0_linear)"/>
<path d="M839.979 360.307C840.882 359.482 841.758 358.637 842.619 357.776C854.734 346.979 865.516 334.712 874.686 321.263C865.878 317.705 855.921 312.424 844.367 304.645C798.117 273.507 786.6 314.02 712.855 288.236C639.11 262.452 637.115 326.906 515.435 265.239C438.451 226.222 355.383 284.567 318.513 262.3C281.643 240.033 245.912 289.06 159.774 240.19C112.851 213.572 56.5648 231.996 0.0209966 253.135C0.00524915 254.101 0 255.077 0 256.053C0 279.974 3.28597 303.128 9.42222 325.095L834.641 365.052C836.457 363.477 838.241 361.897 839.979 360.307Z" fill="#27BEE0"/>
<path d="M297.905 292.923C222.758 292.923 93.0095 298.026 4.40912 303.59C26.6917 422.294 130.882 512.112 256.053 512.112C533.67 512.112 746.812 445.563 839.979 360.307C840.882 359.483 841.758 358.637 842.619 357.777C848.75 352.312 854.54 346.465 859.952 340.286C679.229 309.295 491.11 292.923 297.905 292.923Z" fill="#33D5F9"/>
<path d="M389.865 463.946C532.224 463.946 647.629 451.627 647.629 436.43C647.629 421.233 532.224 408.914 389.865 408.914C247.505 408.914 132.1 421.233 132.1 436.43C132.1 451.627 247.505 463.946 389.865 463.946Z" fill="#33D5F9"/>
<path d="M390.07 463.752C531.983 463.752 647.026 451.501 647.026 436.388C647.026 421.276 531.983 409.024 390.07 409.024C248.157 409.024 133.113 421.276 133.113 436.388C133.113 451.501 248.157 463.752 390.07 463.752Z" fill="#33D5F9"/>
<path d="M390.269 463.558C531.736 463.558 646.417 451.377 646.417 436.351C646.417 421.326 531.736 409.145 390.269 409.145C248.803 409.145 134.121 421.326 134.121 436.351C134.121 451.377 248.803 463.558 390.269 463.558Z" fill="#33D4F8"/>
<path d="M390.474 463.363C531.494 463.363 645.813 451.253 645.813 436.314C645.813 421.376 531.494 409.266 390.474 409.266C249.453 409.266 135.134 421.376 135.134 436.314C135.134 451.253 249.453 463.363 390.474 463.363Z" fill="#32D4F8"/>
<path d="M390.673 463.169C531.247 463.169 645.204 451.13 645.204 436.278C645.204 421.426 531.247 409.387 390.673 409.387C250.099 409.387 136.142 421.426 136.142 436.278C136.142 451.13 250.099 463.169 390.673 463.169Z" fill="#32D3F7"/>
<path d="M390.878 462.97C531.005 462.97 644.601 451.001 644.601 436.236C644.601 421.471 531.005 409.502 390.878 409.502C250.751 409.502 137.155 421.471 137.155 436.236C137.155 451.001 250.751 462.97 390.878 462.97Z" fill="#32D3F7"/>
<path d="M391.077 462.781C530.758 462.781 643.991 450.88 643.991 436.199C643.991 421.518 530.758 409.617 391.077 409.617C251.396 409.617 138.163 421.518 138.163 436.199C138.163 450.88 251.396 462.781 391.077 462.781Z" fill="#32D2F6"/>
<path d="M391.282 462.587C530.516 462.587 643.388 450.756 643.388 436.162C643.388 421.569 530.516 409.738 391.282 409.738C252.048 409.738 139.176 421.569 139.176 436.162C139.176 450.756 252.048 462.587 391.282 462.587Z" fill="#31D2F6"/>
<path d="M391.481 462.387C530.269 462.387 642.779 450.627 642.779 436.12C642.779 421.614 530.269 409.854 391.481 409.854C252.694 409.854 140.184 421.614 140.184 436.12C140.184 450.627 252.694 462.387 391.481 462.387Z" fill="#31D2F5"/>
<path d="M391.686 462.193C530.028 462.193 642.176 450.504 642.176 436.084C642.176 421.664 530.028 409.975 391.686 409.975C253.345 409.975 141.197 421.664 141.197 436.084C141.197 450.504 253.345 462.193 391.686 462.193Z" fill="#31D1F5"/>
<path d="M391.886 461.999C529.781 461.999 641.567 450.38 641.567 436.047C641.567 421.714 529.781 410.095 391.886 410.095C253.991 410.095 142.205 421.714 142.205 436.047C142.205 450.38 253.991 461.999 391.886 461.999Z" fill="#31D1F4"/>
<path d="M392.091 461.81C529.539 461.81 640.963 450.259 640.963 436.01C640.963 421.761 529.539 410.21 392.091 410.21C254.642 410.21 143.218 421.761 143.218 436.01C143.218 450.259 254.642 461.81 392.091 461.81Z" fill="#31D0F4"/>
<path d="M392.29 461.61C529.292 461.61 640.354 450.13 640.354 435.968C640.354 421.807 529.292 410.326 392.29 410.326C255.288 410.326 144.226 421.807 144.226 435.968C144.226 450.13 255.288 461.61 392.29 461.61Z" fill="#30D0F3"/>
<path d="M392.495 461.416C529.05 461.416 639.75 450.006 639.75 435.931C639.75 421.857 529.05 410.447 392.495 410.447C255.939 410.447 145.239 421.857 145.239 435.931C145.239 450.006 255.939 461.416 392.495 461.416Z" fill="#30D0F3"/>
<path d="M392.694 461.222C528.803 461.222 639.142 449.882 639.142 435.895C639.142 421.907 528.803 410.567 392.694 410.567C256.585 410.567 146.247 421.907 146.247 435.895C146.247 449.882 256.585 461.222 392.694 461.222Z" fill="#30CFF3"/>
<path d="M392.899 461.022C528.561 461.022 638.538 449.754 638.538 435.853C638.538 421.952 528.561 410.683 392.899 410.683C257.236 410.683 147.259 421.952 147.259 435.853C147.259 449.754 257.236 461.022 392.899 461.022Z" fill="#30CFF2"/>
<path d="M393.098 460.833C528.314 460.833 637.929 449.633 637.929 435.816C637.929 421.999 528.314 410.798 393.098 410.798C257.882 410.798 148.267 421.999 148.267 435.816C148.267 449.633 257.882 460.833 393.098 460.833Z" fill="#2FCEF2"/>
<path d="M393.303 460.639C528.073 460.639 637.325 449.509 637.325 435.779C637.325 422.049 528.073 410.919 393.303 410.919C258.533 410.919 149.281 422.049 149.281 435.779C149.281 449.509 258.533 460.639 393.303 460.639Z" fill="#2FCEF1"/>
<path d="M393.503 460.445C527.826 460.445 636.716 449.385 636.716 435.743C636.716 422.1 527.826 411.04 393.503 411.04C259.179 411.04 150.289 422.1 150.289 435.743C150.289 449.385 259.179 460.445 393.503 460.445Z" fill="#2FCDF1"/>
<path d="M393.707 460.245C527.584 460.245 636.113 449.256 636.113 435.7C636.113 422.144 527.584 411.155 393.707 411.155C259.83 411.155 151.302 422.144 151.302 435.7C151.302 449.256 259.83 460.245 393.707 460.245Z" fill="#2FCDF0"/>
<path d="M393.906 460.051C527.337 460.051 635.504 449.133 635.504 435.664C635.504 422.195 527.337 411.276 393.906 411.276C260.476 411.276 152.309 422.195 152.309 435.664C152.309 449.133 260.476 460.051 393.906 460.051Z" fill="#2FCDF0"/>
<path d="M394.111 459.862C527.095 459.862 634.9 449.012 634.9 435.627C634.9 422.242 527.095 411.392 394.111 411.392C261.127 411.392 153.322 422.242 153.322 435.627C153.322 449.012 261.127 459.862 394.111 459.862Z" fill="#2ECCEF"/>
<path d="M394.311 459.668C526.848 459.668 634.291 448.888 634.291 435.59C634.291 422.292 526.848 411.512 394.311 411.512C261.773 411.512 154.33 422.292 154.33 435.59C154.33 448.888 261.773 459.668 394.311 459.668Z" fill="#2ECCEF"/>
<path d="M394.515 459.469C526.606 459.469 633.687 448.759 633.687 435.548C633.687 422.337 526.606 411.628 394.515 411.628C262.424 411.628 155.343 422.337 155.343 435.548C155.343 448.759 262.424 459.469 394.515 459.469Z" fill="#2ECBEE"/>
<path d="M394.715 459.274C526.36 459.274 633.079 448.635 633.079 435.511C633.079 422.388 526.36 411.749 394.715 411.749C263.071 411.749 156.351 422.388 156.351 435.511C156.351 448.635 263.071 459.274 394.715 459.274Z" fill="#2ECBEE"/>
<path d="M394.92 459.08C526.118 459.08 632.475 448.511 632.475 435.475C632.475 422.438 526.118 411.869 394.92 411.869C263.721 411.869 157.364 422.438 157.364 435.475C157.364 448.511 263.721 459.08 394.92 459.08Z" fill="#2DCAED"/>
<path d="M395.119 458.886C525.871 458.886 631.866 448.386 631.866 435.433C631.866 422.48 525.871 411.979 395.119 411.979C264.367 411.979 158.372 422.48 158.372 435.433C158.372 448.386 264.367 458.886 395.119 458.886Z" fill="#2DCAED"/>
<path d="M395.324 458.692C525.629 458.692 631.263 448.262 631.263 435.396C631.263 422.53 525.629 412.101 395.324 412.101C265.019 412.101 159.385 422.53 159.385 435.396C159.385 448.262 265.019 458.692 395.324 458.692Z" fill="#2DCAED"/>
<path d="M395.523 458.497C525.382 458.497 630.653 448.138 630.653 435.359C630.653 422.58 525.382 412.221 395.523 412.221C265.664 412.221 160.393 422.58 160.393 435.359C160.393 448.138 265.664 458.497 395.523 458.497Z" fill="#2DC9EC"/>
<path d="M395.728 458.303C525.14 458.303 630.05 448.015 630.05 435.323C630.05 422.631 525.14 412.342 395.728 412.342C266.316 412.342 161.406 422.631 161.406 435.323C161.406 448.015 266.316 458.303 395.728 458.303Z" fill="#2DC9EC"/>
<path d="M395.928 458.104C524.893 458.104 629.441 447.885 629.441 435.28C629.441 422.675 524.893 412.457 395.928 412.457C266.962 412.457 162.414 422.675 162.414 435.28C162.414 447.885 266.962 458.104 395.928 458.104Z" fill="#2CC8EB"/>
<path d="M396.132 457.915C524.652 457.915 628.838 447.765 628.838 435.244C628.838 422.723 524.652 412.573 396.132 412.573C267.613 412.573 163.427 422.723 163.427 435.244C163.427 447.765 267.613 457.915 396.132 457.915Z" fill="#2CC8EB"/>
<path d="M396.332 457.721C524.405 457.721 628.229 447.641 628.229 435.207C628.229 422.773 524.405 412.693 396.332 412.693C268.259 412.693 164.435 422.773 164.435 435.207C164.435 447.641 268.259 457.721 396.332 457.721Z" fill="#2CC8EA"/>
<path d="M396.536 457.527C524.163 457.527 627.625 447.518 627.625 435.171C627.625 422.824 524.163 412.814 396.536 412.814C268.91 412.814 165.448 422.824 165.448 435.171C165.448 447.518 268.91 457.527 396.536 457.527Z" fill="#2CC7EA"/>
<path d="M396.736 457.327C523.916 457.327 627.016 447.388 627.016 435.128C627.016 422.868 523.916 412.93 396.736 412.93C269.556 412.93 166.456 422.868 166.456 435.128C166.456 447.388 269.556 457.327 396.736 457.327Z" fill="#2BC7E9"/>
<path d="M396.941 457.133C523.674 457.133 626.412 447.264 626.412 435.091C626.412 422.918 523.674 413.05 396.941 413.05C270.207 413.05 167.469 422.918 167.469 435.091C167.469 447.264 270.207 457.133 396.941 457.133Z" fill="#2BC6E9"/>
<path d="M397.14 456.944C523.427 456.944 625.803 447.144 625.803 435.055C625.803 422.966 523.427 413.166 397.14 413.166C270.853 413.166 168.476 422.966 168.476 435.055C168.476 447.144 270.853 456.944 397.14 456.944Z" fill="#2BC6E8"/>
<path d="M397.345 456.744C523.185 456.744 625.2 447.015 625.2 435.013C625.2 423.011 523.185 413.281 397.345 413.281C271.504 413.281 169.49 423.011 169.49 435.013C169.49 447.015 271.504 456.744 397.345 456.744Z" fill="#2BC5E8"/>
<path d="M397.544 456.55C522.939 456.55 624.591 446.891 624.591 434.976C624.591 423.061 522.939 413.402 397.544 413.402C272.15 413.402 170.498 423.061 170.498 434.976C170.498 446.891 272.15 456.55 397.544 456.55Z" fill="#2AC5E7"/>
<path d="M397.749 456.356C522.697 456.356 623.987 446.768 623.987 434.939C623.987 423.111 522.697 413.523 397.749 413.523C272.801 413.523 171.511 423.111 171.511 434.939C171.511 446.768 272.801 456.356 397.749 456.356Z" fill="#2AC5E7"/>
<path d="M397.949 456.162C522.45 456.162 623.378 446.644 623.378 434.903C623.378 423.162 522.45 413.644 397.949 413.644C273.447 413.644 172.519 423.162 172.519 434.903C172.519 446.644 273.447 456.162 397.949 456.162Z" fill="#2AC4E7"/>
<path d="M398.153 455.968C522.208 455.968 622.775 446.518 622.775 434.861C622.775 423.204 522.208 413.754 398.153 413.754C274.098 413.754 173.532 423.204 173.532 434.861C173.532 446.518 274.098 455.968 398.153 455.968Z" fill="#2AC4E6"/>
<path d="M398.353 455.773C521.961 455.773 622.166 446.394 622.166 434.824C622.166 423.254 521.961 413.875 398.353 413.875C274.744 413.875 174.539 423.254 174.539 434.824C174.539 446.394 274.744 455.773 398.353 455.773Z" fill="#2AC3E6"/>
<path d="M398.557 455.579C521.72 455.579 621.562 446.27 621.562 434.787C621.562 423.304 521.72 413.995 398.557 413.995C275.395 413.995 175.553 423.304 175.553 434.787C175.553 446.27 275.395 455.579 398.557 455.579Z" fill="#29C3E5"/>
<path d="M398.757 455.38C521.473 455.38 620.953 446.141 620.953 434.745C620.953 423.349 521.473 414.111 398.757 414.111C276.041 414.111 176.561 423.349 176.561 434.745C176.561 446.141 276.041 455.38 398.757 455.38Z" fill="#29C2E5"/>
<path d="M398.961 455.185C521.231 455.185 620.349 446.017 620.349 434.708C620.349 423.399 521.231 414.231 398.961 414.231C276.692 414.231 177.573 423.399 177.573 434.708C177.573 446.017 276.692 455.185 398.961 455.185Z" fill="#29C2E4"/>
<path d="M399.161 454.996C520.984 454.996 619.741 445.896 619.741 434.671C619.741 423.446 520.984 414.347 399.161 414.347C277.338 414.347 178.581 423.446 178.581 434.671C178.581 445.896 277.338 454.996 399.161 454.996Z" fill="#29C2E4"/>
<path d="M399.366 454.802C520.742 454.802 619.137 445.773 619.137 434.635C619.137 423.497 520.742 414.468 399.366 414.468C277.989 414.468 179.594 423.497 179.594 434.635C179.594 445.773 277.989 454.802 399.366 454.802Z" fill="#28C1E3"/>
<path d="M399.565 454.602C520.495 454.602 618.528 445.644 618.528 434.593C618.528 423.542 520.495 414.583 399.565 414.583C278.635 414.583 180.602 423.542 180.602 434.593C180.602 445.644 278.635 454.602 399.565 454.602Z" fill="#28C1E3"/>
<path d="M399.77 454.409C520.253 454.409 617.924 445.52 617.924 434.556C617.924 423.592 520.253 414.704 399.77 414.704C279.286 414.704 181.615 423.592 181.615 434.556C181.615 445.52 279.286 454.409 399.77 454.409Z" fill="#28C0E2"/>
<path d="M399.969 454.214C520.006 454.214 617.315 445.397 617.315 434.519C617.315 423.642 520.006 414.825 399.969 414.825C279.932 414.825 182.623 423.642 182.623 434.519C182.623 445.397 279.932 454.214 399.969 454.214Z" fill="#28C0E2"/>
<path d="M400.174 454.025C519.765 454.025 616.712 445.276 616.712 434.483C616.712 423.689 519.765 414.94 400.174 414.94C280.584 414.94 183.636 423.689 183.636 434.483C183.636 445.276 280.584 454.025 400.174 454.025Z" fill="#28C0E2"/>
<path d="M400.374 453.826C519.518 453.826 616.103 445.147 616.103 434.441C616.103 423.735 519.518 415.056 400.374 415.056C281.23 415.056 184.644 423.735 184.644 434.441C184.644 445.147 281.23 453.826 400.374 453.826Z" fill="#27BFE1"/>
<path d="M400.578 453.632C519.276 453.632 615.499 445.023 615.499 434.404C615.499 423.785 519.276 415.176 400.578 415.176C281.88 415.176 185.657 423.785 185.657 434.404C185.657 445.023 281.88 453.632 400.578 453.632Z" fill="#27BFE1"/>
<path d="M400.778 453.437C519.029 453.437 614.891 444.899 614.891 434.367C614.891 423.835 519.029 415.297 400.778 415.297C282.527 415.297 186.665 423.835 186.665 434.367C186.665 444.899 282.527 453.437 400.778 453.437Z" fill="#27BEE0"/>
<path d="M400.982 453.238C518.79 453.238 614.292 444.77 614.292 434.325C614.292 423.88 518.79 415.413 400.982 415.413C283.175 415.413 187.673 423.88 187.673 434.325C187.673 444.77 283.175 453.238 400.982 453.238Z" fill="#27BEE0"/>
<path d="M401.182 453.049C518.543 453.049 613.683 444.649 613.683 434.288C613.683 423.927 518.543 415.528 401.182 415.528C283.821 415.528 188.681 423.927 188.681 434.288C188.681 444.649 283.821 453.049 401.182 453.049Z" fill="#26BDDF"/>
<path d="M401.387 452.854C518.301 452.854 613.08 444.526 613.08 434.251C613.08 423.977 518.301 415.648 401.387 415.648C284.472 415.648 189.694 423.977 189.694 434.251C189.694 444.526 284.472 452.854 401.387 452.854Z" fill="#26BDDF"/>
<path d="M401.586 452.661C518.055 452.661 612.471 444.402 612.471 434.215C612.471 424.028 518.055 415.77 401.586 415.77C285.118 415.77 190.702 424.028 190.702 434.215C190.702 444.402 285.118 452.661 401.586 452.661Z" fill="#26BDDE"/>
<path d="M401.791 452.461C517.813 452.461 611.867 444.273 611.867 434.173C611.867 424.073 517.813 415.885 401.791 415.885C285.769 415.885 191.715 424.073 191.715 434.173C191.715 444.273 285.769 452.461 401.791 452.461Z" fill="#26BCDE"/>
<path d="M401.99 452.272C517.566 452.272 611.258 444.152 611.258 434.136C611.258 424.12 517.566 416 401.99 416C286.415 416 192.722 424.12 192.722 434.136C192.722 444.152 286.415 452.272 401.99 452.272Z" fill="#26BCDD"/>
<path d="M402.195 452.078C517.324 452.078 610.654 444.029 610.654 434.099C610.654 424.17 517.324 416.121 402.195 416.121C287.066 416.121 193.736 424.17 193.736 434.099C193.736 444.029 287.066 452.078 402.195 452.078Z" fill="#25BBDD"/>
<path d="M402.394 451.883C517.077 451.883 610.045 443.905 610.045 434.063C610.045 424.22 517.077 416.242 402.394 416.242C287.712 416.242 194.743 424.22 194.743 434.063C194.743 443.905 287.712 451.883 402.394 451.883Z" fill="#25BBDC"/>
<path d="M402.599 451.684C516.835 451.684 609.442 443.776 609.442 434.021C609.442 424.266 516.835 416.357 402.599 416.357C288.363 416.357 195.756 424.266 195.756 434.021C195.756 443.776 288.363 451.684 402.599 451.684Z" fill="#25BADC"/>
<path d="M402.799 451.49C516.588 451.49 608.833 443.652 608.833 433.984C608.833 424.316 516.588 416.478 402.799 416.478C289.009 416.478 196.764 424.316 196.764 433.984C196.764 443.652 289.009 451.49 402.799 451.49Z" fill="#25BADC"/>
<path d="M403.003 451.301C516.347 451.301 608.229 443.532 608.229 433.947C608.229 424.363 516.347 416.594 403.003 416.594C289.66 416.594 197.778 424.363 197.778 433.947C197.778 443.532 289.66 451.301 403.003 451.301Z" fill="#24BADB"/>
<path d="M403.203 451.101C516.1 451.101 607.621 443.402 607.621 433.905C607.621 424.408 516.1 416.709 403.203 416.709C290.306 416.709 198.785 424.408 198.785 433.905C198.785 443.402 290.306 451.101 403.203 451.101Z" fill="#24B9DB"/>
<path d="M403.408 450.907C515.858 450.907 607.017 443.279 607.017 433.868C607.017 424.458 515.858 416.83 403.408 416.83C290.958 416.83 199.799 424.458 199.799 433.868C199.799 443.279 290.958 450.907 403.408 450.907Z" fill="#24B9DA"/>
<path d="M403.607 450.713C515.611 450.713 606.408 443.155 606.408 433.832C606.408 424.509 515.611 416.951 403.607 416.951C291.603 416.951 200.806 424.509 200.806 433.832C200.806 443.155 291.603 450.713 403.607 450.713Z" fill="#24B8DA"/>
<path d="M403.812 450.519C515.369 450.519 605.804 443.031 605.804 433.795C605.804 424.559 515.369 417.071 403.812 417.071C292.254 417.071 201.819 424.559 201.819 433.795C201.819 443.031 292.254 450.519 403.812 450.519Z" fill="#24B8D9"/>
<path d="M404.017 450.325C515.128 450.325 605.201 442.905 605.201 433.753C605.201 424.601 515.128 417.182 404.017 417.182C292.906 417.182 202.833 424.601 202.833 433.753C202.833 442.905 292.906 450.325 404.017 450.325Z" fill="#23B8D9"/>
<path d="M404.216 450.13C514.88 450.13 604.591 442.782 604.591 433.716C604.591 424.651 514.88 417.302 404.216 417.302C293.551 417.302 203.84 424.651 203.84 433.716C203.84 442.782 293.551 450.13 404.216 450.13Z" fill="#23B7D8"/>
<path d="M404.421 449.936C514.639 449.936 603.988 442.658 603.988 433.679C603.988 424.701 514.639 417.423 404.421 417.423C294.203 417.423 204.853 424.701 204.853 433.679C204.853 442.658 294.203 449.936 404.421 449.936Z" fill="#23B7D8"/>
<path d="M404.62 449.736C514.392 449.736 603.379 442.529 603.379 433.637C603.379 424.746 514.392 417.538 404.62 417.538C294.849 417.538 205.861 424.746 205.861 433.637C205.861 442.529 294.849 449.736 404.62 449.736Z" fill="#23B6D7"/>
<path d="M404.825 449.542C514.15 449.542 602.776 442.405 602.776 433.601C602.776 424.797 514.15 417.659 404.825 417.659C295.5 417.659 206.874 424.797 206.874 433.601C206.874 442.405 295.5 449.542 404.825 449.542Z" fill="#22B6D7"/>
<path d="M405.024 449.353C513.903 449.353 602.167 442.284 602.167 433.564C602.167 424.844 513.903 417.774 405.024 417.774C296.146 417.774 207.882 424.844 207.882 433.564C207.882 442.284 296.146 449.353 405.024 449.353Z" fill="#22B5D6"/>
<path d="M405.229 449.159C513.661 449.159 601.563 442.161 601.563 433.527C601.563 424.894 513.661 417.896 405.229 417.896C296.797 417.896 208.895 424.894 208.895 433.527C208.895 442.161 296.797 449.159 405.229 449.159Z" fill="#22B5D6"/>
<path d="M810.012 78.4328C811.954 78.4328 813.529 76.8582 813.529 74.9159C813.529 72.9735 811.954 71.3989 810.012 71.3989C808.069 71.3989 806.495 72.9735 806.495 74.9159C806.495 76.8582 808.069 78.4328 810.012 78.4328Z" fill="#8EE8FC"/>
<path d="M734.718 127.486C736.66 127.486 738.235 125.911 738.235 123.969C738.235 122.027 736.66 120.452 734.718 120.452C732.775 120.452 731.201 122.027 731.201 123.969C731.201 125.911 732.775 127.486 734.718 127.486Z" fill="#8EE8FC"/>
<path d="M605.547 116.116C608.136 116.116 610.234 114.018 610.234 111.429C610.234 108.84 608.136 106.741 605.547 106.741C602.958 106.741 600.859 108.84 600.859 111.429C600.859 114.018 602.958 116.116 605.547 116.116Z" fill="#8EE8FC"/>
<path d="M808.789 167.411C807.965 170.062 806.437 172.351 804.427 174.009C804.07 174.293 804.054 174.833 804.385 175.148C806.379 177.049 807.907 179.505 808.762 182.303C808.983 183.006 809.849 183.006 810.069 182.303C810.936 179.505 812.463 177.049 814.447 175.148C814.778 174.833 814.762 174.293 814.405 174.009C812.395 172.351 810.867 170.057 810.043 167.411C809.844 166.75 808.993 166.75 808.789 167.411Z" fill="#8EE8FC"/>
<path d="M840.771 352.658C841.366 345.729 787.318 335.432 720.053 329.66C652.787 323.887 597.776 324.825 597.181 331.754C596.586 338.683 650.634 348.979 717.899 354.752C785.165 360.525 840.176 359.587 840.771 352.658Z" fill="#33D5F9"/>
<path d="M840.485 352.613C841.076 345.724 787.197 335.475 720.142 329.721C653.088 323.966 598.25 324.886 597.659 331.774C597.067 338.663 650.947 348.912 718.001 354.666C785.056 360.421 839.894 359.502 840.485 352.613Z" fill="#33D5F9"/>
<path d="M840.194 352.573C840.781 345.725 787.073 335.524 720.232 329.788C653.391 324.051 598.729 324.953 598.141 331.801C597.553 338.649 651.262 348.851 718.103 354.587C784.944 360.323 839.606 359.422 840.194 352.573Z" fill="#33D4F8"/>
<path d="M839.908 352.528C840.492 345.718 786.952 335.561 720.322 329.843C653.691 324.125 599.203 325.011 598.619 331.822C598.034 338.632 651.575 348.789 718.205 354.507C784.835 360.225 839.323 359.339 839.908 352.528Z" fill="#33D4F8"/>
<path d="M839.627 352.489C840.208 345.719 786.835 335.61 720.416 329.91C653.997 324.21 599.682 325.078 599.101 331.848C598.52 338.618 651.893 348.727 718.312 354.427C784.731 360.127 839.046 359.259 839.627 352.489Z" fill="#32D4F8"/>
<path d="M839.341 352.444C839.918 345.715 786.714 335.653 720.506 329.971C654.297 324.289 600.156 325.139 599.579 331.868C599.001 338.598 652.206 348.66 718.414 354.342C784.623 360.023 838.763 359.174 839.341 352.444Z" fill="#32D3F7"/>
<path d="M839.055 352.405C839.629 345.713 786.593 335.696 720.595 330.032C654.598 324.369 600.63 325.202 600.056 331.894C599.482 338.587 652.518 348.603 718.515 354.267C784.513 359.931 838.48 359.097 839.055 352.405Z" fill="#32D3F7"/>
<path d="M838.769 352.36C839.34 345.708 786.472 335.739 720.685 330.094C654.898 324.448 601.105 325.264 600.534 331.915C599.963 338.567 652.831 348.536 718.618 354.182C784.405 359.828 838.198 359.012 838.769 352.36Z" fill="#32D3F7"/>
<path d="M838.483 352.321C839.05 345.706 786.351 335.782 720.775 330.155C655.199 324.527 601.579 325.327 601.011 331.941C600.444 338.556 653.143 348.48 718.719 354.107C784.295 359.735 837.915 358.935 838.483 352.321Z" fill="#32D3F6"/>
<path d="M838.202 352.276C838.766 345.702 786.235 335.826 720.87 330.216C655.505 324.607 602.059 325.389 601.494 331.962C600.93 338.536 653.462 348.413 718.827 354.022C784.192 359.632 837.638 358.85 838.202 352.276Z" fill="#32D2F6"/>
<path d="M837.916 352.236C838.476 345.703 786.113 335.874 720.959 330.283C655.805 324.691 602.532 325.455 601.972 331.988C601.411 338.522 653.774 348.351 718.928 353.942C784.083 359.533 837.355 358.77 837.916 352.236Z" fill="#31D2F6"/>
<path d="M837.63 352.191C838.188 345.696 785.993 335.912 721.049 330.339C656.106 324.765 603.007 325.513 602.45 332.009C601.892 338.505 654.087 348.289 719.031 353.862C783.974 359.435 837.073 358.687 837.63 352.191Z" fill="#31D2F5"/>
<path d="M837.344 352.152C837.898 345.697 785.871 335.961 721.138 330.405C656.405 324.85 603.48 325.58 602.926 332.035C602.372 338.491 654.399 348.227 719.132 353.782C783.864 359.337 836.79 358.608 837.344 352.152Z" fill="#31D1F5"/>
<path d="M837.063 352.108C837.613 345.693 785.755 336.004 721.233 330.467C656.711 324.93 603.96 325.641 603.409 332.056C602.859 338.471 654.718 348.16 719.239 353.697C783.761 359.234 836.512 358.523 837.063 352.108Z" fill="#31D1F5"/>
<path d="M836.777 352.068C837.324 345.691 785.634 336.047 721.323 330.528C657.012 325.009 604.434 325.705 603.887 332.082C603.34 338.46 655.03 348.103 719.341 353.622C783.652 359.141 836.23 358.446 836.777 352.068Z" fill="#31D1F4"/>
<path d="M836.491 352.023C837.035 345.686 785.513 336.09 721.413 330.589C657.313 325.088 604.908 325.766 604.365 332.103C603.821 338.44 655.343 348.036 719.443 353.537C783.543 359.038 835.947 358.36 836.491 352.023Z" fill="#31D0F4"/>
<path d="M836.205 351.984C836.745 345.684 785.391 336.133 721.502 330.65C657.613 325.167 605.382 325.829 604.842 332.129C604.301 338.428 655.655 347.979 719.544 353.462C783.434 358.945 835.664 358.283 836.205 351.984Z" fill="#30D0F4"/>
<path d="M835.924 351.939C836.461 345.68 785.275 336.176 721.597 330.712C657.919 325.247 605.862 325.891 605.325 332.15C604.788 338.409 655.974 347.912 719.652 353.377C783.33 358.842 835.387 358.198 835.924 351.939Z" fill="#30D0F3"/>
<path d="M835.638 351.9C836.172 345.681 785.154 336.225 721.686 330.778C658.219 325.332 606.336 325.957 605.802 332.176C605.268 338.395 656.286 347.851 719.754 353.298C783.221 358.744 835.104 358.118 835.638 351.9Z" fill="#30D0F3"/>
<path d="M835.352 351.86C835.882 345.679 785.032 336.268 721.776 330.84C658.519 325.411 606.81 326.021 606.279 332.202C605.749 338.383 656.598 347.794 719.855 353.223C783.112 358.651 834.821 358.041 835.352 351.86Z" fill="#30CFF3"/>
<path d="M835.066 351.815C835.593 345.675 784.912 336.311 721.866 330.9C658.82 325.49 607.284 326.082 606.757 332.222C606.23 338.363 656.912 347.727 719.958 353.137C783.003 358.548 834.539 357.956 835.066 351.815Z" fill="#30CFF2"/>
<path d="M834.785 351.776C835.309 345.676 784.795 336.36 721.96 330.967C659.125 325.575 607.763 326.149 607.24 332.249C606.716 338.349 657.23 347.665 720.065 353.058C782.899 358.45 834.262 357.876 834.785 351.776Z" fill="#30CFF2"/>
<path d="M834.499 351.731C835.019 345.669 784.674 336.397 722.05 331.023C659.426 325.649 608.237 326.207 607.717 332.269C607.197 338.332 657.542 347.603 720.166 352.978C782.79 358.352 833.978 357.794 834.499 351.731Z" fill="#30CEF2"/>
<path d="M834.213 351.692C834.73 345.67 784.553 336.446 722.139 331.09C659.726 325.734 608.711 326.274 608.195 332.296C607.678 338.318 657.855 347.542 720.268 352.898C782.681 358.254 833.696 357.714 834.213 351.692Z" fill="#2FCEF1"/>
<path d="M833.927 351.647C834.44 345.665 784.431 336.489 722.229 331.151C660.027 325.813 609.186 326.335 608.672 332.316C608.159 338.298 658.168 347.474 720.37 352.812C782.572 358.15 833.414 357.629 833.927 351.647Z" fill="#2FCEF1"/>
<path d="M833.646 351.608C834.156 345.664 784.315 336.533 722.324 331.213C660.332 325.893 609.665 326.399 609.155 332.343C608.645 338.287 658.485 347.418 720.477 352.738C782.468 358.058 833.136 357.552 833.646 351.608Z" fill="#2FCDF1"/>
<path d="M833.36 351.563C833.867 345.659 784.194 336.575 722.414 331.273C660.633 325.972 610.139 326.46 609.632 332.363C609.126 338.267 658.798 347.351 720.579 352.653C782.36 357.954 832.853 357.467 833.36 351.563Z" fill="#2FCDF0"/>
<path d="M833.074 351.523C833.577 345.657 784.073 336.618 722.503 331.335C660.933 326.051 610.613 326.523 610.11 332.389C609.606 338.255 659.11 347.294 720.68 352.578C782.25 357.862 832.57 357.39 833.074 351.523Z" fill="#2FCDF0"/>
<path d="M832.788 351.479C833.288 345.653 783.952 336.662 722.593 331.396C661.234 326.13 611.088 326.584 610.588 332.41C610.088 338.236 659.424 347.227 720.783 352.493C782.142 357.759 832.288 357.305 832.788 351.479Z" fill="#2FCDF0"/>
<path d="M832.507 351.44C833.003 345.654 783.835 336.71 722.687 331.463C661.539 326.215 611.566 326.651 611.07 332.436C610.573 338.222 659.741 347.166 720.889 352.413C782.037 357.661 832.01 357.225 832.507 351.44Z" fill="#2ECCEF"/>
<path d="M832.221 351.395C832.714 345.647 783.715 336.748 722.778 331.519C661.84 326.289 612.041 326.709 611.548 332.457C611.055 338.205 660.054 347.104 720.991 352.333C781.929 357.563 831.728 357.142 832.221 351.395Z" fill="#2ECCEF"/>
<path d="M831.935 351.355C832.425 345.648 783.593 336.796 722.867 331.585C662.14 326.374 612.515 326.776 612.025 332.483C611.535 338.19 660.367 347.042 721.093 352.253C781.82 357.464 831.445 357.062 831.935 351.355Z" fill="#2ECCEF"/>
<path d="M831.649 351.311C832.135 345.644 783.472 336.84 722.956 331.647C662.441 326.453 612.989 326.837 612.503 332.504C612.016 338.171 660.68 346.975 721.195 352.168C781.711 357.361 831.163 356.977 831.649 351.311Z" fill="#2ECBEE"/>
<path d="M831.368 351.272C831.851 345.642 783.356 336.883 723.051 331.708C662.747 326.533 613.468 326.901 612.985 332.53C612.502 338.16 660.997 346.918 721.302 352.094C781.607 357.269 830.885 356.901 831.368 351.272Z" fill="#2ECBEE"/>
<path d="M831.082 351.226C831.562 345.638 783.235 336.926 723.141 331.769C663.047 326.612 613.942 326.962 613.463 332.551C612.983 338.14 661.31 346.851 721.404 352.008C781.498 357.165 830.602 356.815 831.082 351.226Z" fill="#2ECBEE"/>
<path d="M830.796 351.187C831.272 345.638 783.113 336.975 723.23 331.836C663.347 326.696 614.416 327.028 613.94 332.577C613.464 338.125 661.623 346.789 721.506 351.928C781.389 357.067 830.32 356.735 830.796 351.187Z" fill="#2DCAED"/>
<path d="M830.51 351.142C830.983 345.631 782.993 337.013 723.32 331.892C663.648 326.771 614.891 327.087 614.418 332.598C613.945 338.109 661.936 346.727 721.608 351.848C781.28 356.969 830.037 356.653 830.51 351.142Z" fill="#2DCAED"/>
<path d="M830.229 351.103C830.698 345.633 782.876 337.061 723.415 331.959C663.953 326.856 615.37 327.154 614.9 332.624C614.431 338.095 662.253 346.666 721.715 351.769C781.176 356.872 829.76 356.574 830.229 351.103Z" fill="#2DCAED"/>
<path d="M829.943 351.058C830.409 345.625 782.755 337.099 723.505 332.014C664.254 326.93 615.844 327.212 615.378 332.645C614.912 338.078 662.566 346.604 721.816 351.689C781.067 356.773 829.477 356.491 829.943 351.058Z" fill="#2DC9EC"/>
<path d="M829.652 351.018C830.114 345.626 782.631 337.147 723.594 332.081C664.557 327.014 616.323 327.279 615.86 332.671C615.398 338.064 662.881 346.542 721.918 351.609C780.955 356.675 829.189 356.411 829.652 351.018Z" fill="#2DC9EC"/>
<path d="M829.366 350.974C829.825 345.622 782.51 337.191 723.684 332.142C664.858 327.094 616.798 327.34 616.338 332.692C615.879 338.044 663.195 346.475 722.021 351.524C780.846 356.572 828.907 356.326 829.366 350.974Z" fill="#2DC9EC"/>
<path d="M829.085 350.934C829.541 345.62 782.394 337.234 723.779 332.203C665.163 327.173 617.277 327.404 616.821 332.718C616.365 338.033 663.512 346.419 722.127 351.449C780.742 356.479 828.629 356.249 829.085 350.934Z" fill="#2DC9EC"/>
<path d="M828.799 350.894C829.251 345.62 782.272 337.282 723.868 332.27C665.464 327.258 617.751 327.47 617.298 332.744C616.845 338.018 663.825 346.357 722.229 351.369C780.633 356.381 828.346 356.168 828.799 350.894Z" fill="#2CC8EB"/>
<path d="M828.513 350.85C828.962 345.616 782.151 337.325 723.957 332.331C665.764 327.337 618.225 327.531 617.776 332.765C617.327 337.999 664.138 346.29 722.331 351.284C780.524 356.278 828.064 356.083 828.513 350.85Z" fill="#2CC8EB"/>
<path d="M828.227 350.81C828.673 345.614 782.03 337.368 724.047 332.392C666.065 327.416 618.699 327.595 618.253 332.791C617.807 337.987 664.45 346.233 722.432 351.209C780.415 356.185 827.781 356.006 828.227 350.81Z" fill="#2CC8EB"/>
<path d="M827.946 350.766C828.388 345.61 781.914 337.412 724.142 332.454C666.37 327.496 619.179 327.656 618.736 332.812C618.294 337.968 664.768 346.166 722.54 351.124C780.312 356.082 827.504 355.921 827.946 350.766Z" fill="#2CC7EA"/>
<path d="M827.659 350.726C828.098 345.611 781.792 337.46 724.231 332.52C666.67 327.58 619.652 327.723 619.213 332.838C618.774 337.953 665.081 346.104 722.641 351.044C780.202 355.984 827.22 355.841 827.659 350.726Z" fill="#2CC7EA"/>
<path d="M827.374 350.682C827.809 345.604 781.671 337.498 724.321 332.576C666.971 327.655 620.127 327.781 619.691 332.859C619.255 337.937 665.393 346.043 722.743 350.964C780.093 355.886 826.938 355.759 827.374 350.682Z" fill="#2CC7EA"/>
<path d="M827.087 350.642C827.52 345.605 781.55 337.546 724.41 332.643C667.271 327.739 620.6 327.848 620.168 332.885C619.736 337.922 665.706 345.98 722.845 350.884C779.984 355.788 826.655 355.679 827.087 350.642Z" fill="#2BC6E9"/>
<path d="M826.807 350.598C827.236 345.598 781.434 337.585 724.506 332.699C667.578 327.814 621.08 327.906 620.651 332.906C620.222 337.906 666.024 345.919 722.952 350.804C779.881 355.69 826.378 355.597 826.807 350.598Z" fill="#2BC6E9"/>
<path d="M826.52 350.558C826.946 345.599 781.312 337.633 724.595 332.765C667.877 327.898 621.554 327.972 621.128 332.932C620.703 337.891 666.336 345.857 723.054 350.724C779.771 355.592 826.095 355.517 826.52 350.558Z" fill="#2BC6E9"/>
<path d="M826.235 350.513C826.657 345.595 781.191 337.676 724.685 332.827C668.178 327.978 622.028 328.034 621.606 332.953C621.184 337.871 666.649 345.79 723.156 350.639C779.663 355.489 825.813 355.432 826.235 350.513Z" fill="#2BC6E8"/>
<path d="M825.949 350.474C826.368 345.593 781.07 337.719 724.775 332.888C668.479 328.057 622.502 328.097 622.084 332.979C621.665 337.86 666.962 345.733 723.258 350.565C779.553 355.396 825.53 355.355 825.949 350.474Z" fill="#2BC5E8"/>
<path d="M825.668 350.429C826.083 345.589 780.954 337.763 724.869 332.95C668.784 328.136 622.982 328.159 622.566 333C622.151 337.84 667.28 345.666 723.365 350.479C779.45 355.293 825.252 355.27 825.668 350.429Z" fill="#2BC5E8"/>
<path d="M825.382 350.39C825.794 345.589 780.833 337.811 724.959 333.016C669.085 328.221 623.456 328.225 623.044 333.025C622.632 337.826 667.593 345.604 723.467 350.399C779.341 355.194 824.97 355.19 825.382 350.39Z" fill="#2AC5E7"/>
<path d="M825.096 350.345C825.505 345.582 780.712 337.848 725.049 333.072C669.385 328.295 623.93 328.283 623.521 333.046C623.113 337.809 667.905 345.542 723.569 350.319C779.232 355.096 824.687 355.107 825.096 350.345Z" fill="#2AC4E7"/>
<path d="M824.809 350.306C825.215 345.583 780.59 337.897 725.138 333.138C669.685 328.38 624.404 328.35 623.998 333.072C623.593 337.795 668.218 345.481 723.67 350.24C779.123 354.998 824.404 355.028 824.809 350.306Z" fill="#2AC4E7"/>
<path d="M824.524 350.261C824.926 345.576 780.47 337.935 725.228 333.194C669.986 328.454 624.878 328.408 624.476 333.093C624.074 337.778 668.531 345.419 723.772 350.159C779.014 354.9 824.122 354.945 824.524 350.261Z" fill="#2AC4E6"/>
<path d="M824.243 350.222C824.641 345.577 780.353 337.984 725.323 333.261C670.292 328.538 625.357 328.475 624.959 333.119C624.56 337.764 668.848 345.357 723.879 350.08C778.91 354.802 823.844 354.866 824.243 350.222Z" fill="#2AC3E6"/>
<path d="M823.957 350.176C824.352 345.572 780.232 338.026 725.412 333.322C670.592 328.617 625.832 328.536 625.437 333.14C625.041 337.744 669.161 345.29 723.981 349.994C778.801 354.699 823.562 354.78 823.957 350.176Z" fill="#2AC3E6"/>
<path d="M823.671 350.137C824.063 345.57 780.111 338.07 725.502 333.383C670.893 328.697 626.306 328.6 625.914 333.166C625.522 337.732 669.474 345.233 724.083 349.92C778.692 354.606 823.279 354.703 823.671 350.137Z" fill="#2AC3E5"/>
<path d="M823.385 350.092C823.773 345.566 779.99 338.113 725.591 333.445C671.193 328.776 626.78 328.661 626.392 333.187C626.003 337.713 669.787 345.166 724.185 349.835C778.583 354.503 822.996 354.618 823.385 350.092Z" fill="#29C3E5"/>
<path d="M823.104 350.053C823.489 345.568 779.873 338.162 725.686 333.511C671.499 328.861 627.259 328.728 626.874 333.213C626.489 337.699 670.105 345.105 724.292 349.755C778.479 354.405 822.719 354.539 823.104 350.053Z" fill="#29C2E5"/>
<path d="M822.818 350.008C823.2 345.56 779.752 338.199 725.776 333.567C671.799 328.935 627.733 328.786 627.352 333.234C626.97 337.682 670.417 345.043 724.394 349.675C778.37 354.307 822.436 354.456 822.818 350.008Z" fill="#29C2E4"/>
<path d="M822.532 349.969C822.91 345.561 779.631 338.248 725.865 333.634C672.1 329.02 628.207 328.852 627.829 333.26C627.451 337.667 670.73 344.981 724.496 349.595C778.261 354.209 822.154 354.376 822.532 349.969Z" fill="#29C2E4"/>
<path d="M822.246 349.924C822.621 345.557 779.51 338.291 725.955 333.695C672.4 329.099 628.682 328.914 628.307 333.281C627.932 337.648 671.043 344.914 724.598 349.51C778.153 354.106 821.871 354.291 822.246 349.924Z" fill="#29C1E4"/>
<path d="M821.965 349.884C822.336 345.555 779.394 338.334 726.05 333.756C672.706 329.178 629.161 328.977 628.789 333.307C628.418 337.636 671.36 344.857 724.704 349.435C778.048 354.013 821.593 354.214 821.965 349.884Z" fill="#29C1E3"/>
<path d="M821.679 349.845C822.047 345.556 779.272 338.383 726.139 333.823C673.006 329.263 629.635 329.044 629.267 333.333C628.898 337.622 671.673 344.796 724.806 349.355C777.939 353.915 821.31 354.134 821.679 349.845Z" fill="#28C1E3"/>
<path d="M821.393 349.8C821.758 345.549 779.151 338.42 726.229 333.879C673.307 329.337 630.109 329.102 629.744 333.354C629.379 337.605 671.986 344.733 724.908 349.275C777.83 353.817 821.028 354.052 821.393 349.8Z" fill="#28C0E3"/>
<path d="M821.107 349.761C821.468 345.55 779.03 338.469 726.318 333.945C673.607 329.422 630.583 329.168 630.222 333.379C629.86 337.591 672.298 344.671 725.01 349.195C777.721 353.719 820.745 353.972 821.107 349.761Z" fill="#28C0E2"/>
<path d="M820.826 349.717C821.184 345.546 778.914 338.513 726.413 334.007C673.913 329.502 631.062 329.23 630.704 333.401C630.347 337.572 672.617 344.605 725.117 349.111C777.618 353.616 820.468 353.887 820.826 349.717Z" fill="#28C0E2"/>
<path d="M820.54 349.677C820.894 345.544 778.793 338.556 726.503 334.068C674.213 329.581 631.536 329.294 631.182 333.427C630.827 337.56 672.929 344.548 725.218 349.036C777.508 353.523 820.185 353.81 820.54 349.677Z" fill="#28C0E2"/>
<path d="M820.254 349.632C820.605 345.539 778.671 338.599 726.592 334.129C674.514 329.66 632.011 329.355 631.659 333.447C631.308 337.54 673.242 344.481 725.321 348.95C777.399 353.42 819.902 353.725 820.254 349.632Z" fill="#28BFE1"/>
<path d="M819.968 349.592C820.315 345.54 778.55 338.647 726.682 334.195C674.814 329.744 632.485 329.421 632.137 333.473C631.789 337.526 673.554 344.419 725.422 348.87C777.291 353.321 819.62 353.645 819.968 349.592Z" fill="#27BFE1"/>
<path d="M819.687 349.548C820.031 345.533 778.434 338.685 726.777 334.252C675.12 329.819 632.964 329.48 632.62 333.494C632.275 337.509 673.872 344.357 725.529 348.79C777.187 353.224 819.342 353.563 819.687 349.548Z" fill="#27BFE1"/>
<path d="M819.401 349.508C819.742 345.534 778.313 338.733 726.866 334.318C675.42 329.903 633.438 329.546 633.097 333.52C632.756 337.494 674.185 344.295 725.631 348.71C777.078 353.125 819.06 353.483 819.401 349.508Z" fill="#27BEE0"/>
<path d="M819.11 349.463C819.447 345.529 778.189 338.776 726.956 334.38C675.723 329.983 633.917 329.608 633.58 333.542C633.242 337.475 674.501 344.229 725.733 348.625C776.966 353.022 818.772 353.397 819.11 349.463Z" fill="#27BEE0"/>
<path d="M802.605 273.617L774.805 270.615C773.666 270.494 772.837 269.465 772.963 268.326L773.918 259.471C774.039 258.332 775.068 257.502 776.207 257.628L804.006 260.631C805.145 260.752 805.975 261.78 805.849 262.92L804.893 271.775C804.773 272.914 803.744 273.738 802.605 273.617Z" fill="#19A0BF"/>
<path d="M704.483 325.3L670.788 321.195L678.699 308.624L699.816 311.196L704.483 325.3Z" fill="#19A0BF"/>
<path d="M740.948 329.783L707.254 325.678L715.164 313.106L736.282 315.679L740.948 329.783Z" fill="#19A0BF"/>
<path d="M777.272 334.376L743.573 330.276L751.489 317.699L772.606 320.271L777.272 334.376Z" fill="#19A0BF"/>
<path d="M772.05 289.407C771.614 289.375 771.194 289.165 770.916 288.782C770.412 288.1 770.564 287.139 771.246 286.635L780.364 279.948L782.501 264.715C782.616 263.875 783.388 263.308 784.233 263.408C785.073 263.523 785.655 264.3 785.54 265.14L783.314 281.013C783.256 281.423 783.036 281.79 782.7 282.037L773.063 289.108C772.758 289.333 772.401 289.428 772.05 289.407Z" fill="#27BEE0"/>
<path d="M640.894 330.529C640.69 330.45 640.501 330.324 640.343 330.156C639.761 329.542 639.787 328.571 640.401 327.988L668.201 301.616C668.815 301.034 669.786 301.06 670.368 301.674C670.951 302.288 670.925 303.259 670.311 303.842L642.511 330.214C642.065 330.634 641.435 330.739 640.894 330.529Z" fill="#77E3FB"/>
<path d="M799.928 350.596C799.287 350.748 798.6 350.47 798.253 349.871L779.089 316.98C778.663 316.245 778.91 315.306 779.64 314.881C780.369 314.455 781.309 314.702 781.739 315.432L800.904 348.323C801.329 349.058 801.083 349.997 800.353 350.423C800.216 350.507 800.075 350.564 799.928 350.596Z" fill="#77E3FB"/>
<path d="M730.051 345.21C729.29 345.158 728.665 344.544 728.623 343.762L726.707 308.865C726.66 308.02 727.311 307.296 728.156 307.249C729.007 307.207 729.726 307.852 729.773 308.697L731.689 343.594C731.736 344.439 731.085 345.163 730.24 345.21C730.177 345.216 730.114 345.216 730.051 345.21Z" fill="#77E3FB"/>
<path d="M804.584 326.423L634.721 305.852L734.98 232.836L804.584 326.423Z" fill="#BBF1FD"/>
<path d="M751.053 278.257L683.99 269.974L671.486 279.076L754.643 289.832L751.053 278.257Z" fill="#77E3FB"/>
<path d="M760.418 321.075L804.584 326.423L734.98 232.836L734.718 233.025L760.418 321.075Z" fill="#77E3FB"/>
<path d="M751.169 289.386L779.792 293.087L770.554 280.667L747.804 277.854L751.169 289.386Z" fill="#27BEE0"/>
<path d="M364.722 311.542C361.241 297.422 356.501 268.741 365.415 244.668L381.692 253.261C373.608 275.092 378.595 300.508 381.514 311.595C381.755 312.508 373.409 313.379 364.722 311.542Z" fill="url(#paint1_linear)"/>
<path d="M364.722 311.542C361.241 297.422 356.501 268.741 365.415 244.668L381.692 253.261C373.608 275.092 378.595 300.508 381.514 311.595C381.755 312.508 373.409 313.379 364.722 311.542Z" fill="url(#paint2_linear)"/>
<path d="M381.466 311.437H368.265C367.792 315.699 372.238 338.124 337.815 366.469L341.484 382.054L399.041 382.017C401.056 382.017 402.227 380.453 401.618 378.437L381.466 311.437Z" fill="#522CD5"/>
<path d="M335.946 363.262C333.883 364.863 333.909 366.674 334.738 369.43L337.604 379.293C338.061 380.804 339.673 382.043 341.184 382.043H341.473C343.19 382.043 344.161 380.652 343.646 378.936L341.568 370.91C340.612 367.724 340.444 365.708 343.158 363.54C359.236 350.706 378.427 332.549 373.829 311.437H364.69C366.344 322.256 363.063 342.202 335.946 363.262Z" fill="url(#paint3_linear)"/>
<path d="M341.463 365.498C340.644 367.036 340.901 368.684 341.573 370.91L343.652 378.936C344.166 380.652 343.195 382.043 341.478 382.043H341.184C339.667 382.043 338.056 380.805 337.604 379.293L334.738 369.43C334.266 367.855 334.072 366.59 334.361 365.498H341.463V365.498Z" fill="url(#paint4_radial)"/>
<path d="M391.13 311.542C387.649 297.422 382.909 268.741 391.822 244.668L408.1 253.261C400.016 275.092 405.003 300.508 407.922 311.595C408.158 312.508 399.812 313.379 391.13 311.542Z" fill="url(#paint5_linear)"/>
<path d="M391.13 311.542C387.649 297.422 382.909 268.741 391.822 244.668L408.1 253.261C400.016 275.092 405.003 300.508 407.922 311.595C408.158 312.508 399.812 313.379 391.13 311.542Z" fill="url(#paint6_linear)"/>
<path d="M407.874 311.437H394.673L378.511 382.028L425.475 382.091C427.49 382.091 428.635 380.458 428.026 378.442L407.874 311.437Z" fill="#522CD5"/>
<path d="M362.149 363.383C360.086 364.984 360.643 368.075 361.472 370.836L364.018 379.293C364.474 380.804 366.086 382.043 367.598 382.043H384.201C385.917 382.043 386.888 380.652 386.374 378.936L384.127 370.17C383.172 366.983 383.004 364.968 385.718 362.8C401.796 349.966 407.785 332.549 403.187 311.437H391.109C392.752 322.256 389.266 342.323 362.149 363.383Z" fill="url(#paint7_linear)"/>
<path d="M367.593 382.043C366.076 382.043 364.464 380.805 364.013 379.293L361.467 370.836C360.921 369.025 360.511 367.078 360.868 365.498H383.697C383.288 366.831 383.555 368.296 384.122 370.17L386.369 378.936C386.883 380.652 385.912 382.043 384.196 382.043H367.593Z" fill="url(#paint8_radial)"/>
<path d="M445.453 431.937L375.634 435.454V382.312H445.453V431.937Z" fill="#1BA6C5"/>
<path d="M375.896 435.454L323.095 430.766V382.312H375.896V435.454Z" fill="#0B7891"/>
<path d="M23.9887 317.164C23.9887 317.164 42.7807 307.359 52.5861 282.845C62.3915 258.332 64.8428 226.464 64.8428 226.464L79.5509 278.756L88.5375 222.375C88.5375 222.375 95.0727 220.742 103.655 217.472C98.7523 233.403 108.148 270.992 113.051 279.57C117.954 288.147 123.675 302.445 129.392 274.667C135.113 246.888 135.113 223.188 135.113 223.188L146.551 270.987L155.538 249.334C155.538 249.334 158.808 271.397 167.794 282.016C176.781 292.64 190.67 292.64 226.627 278.745C262.578 264.856 300.981 310.613 300.981 310.613L23.9887 317.164Z" fill="#19A0BF"/>
<path d="M534.207 340.172L531.836 426.365L540.535 426.605L542.906 340.411L534.207 340.172Z" fill="#19A0BF"/>
<path d="M518.784 427.622L540.987 428.231C542.552 428.273 543.78 426.903 543.565 425.349L541.045 407.171L532.688 406.672C532.688 406.672 524.673 408.478 520.364 413.082C517.802 415.816 517.041 422.163 516.82 425.47C516.747 426.619 517.639 427.59 518.784 427.622Z" fill="#1189A5"/>
<path d="M558.435 340.843L556.064 427.037L564.764 427.276L567.135 341.083L558.435 340.843Z" fill="#19A0BF"/>
<path d="M577.753 429.244L555.549 428.635C553.984 428.593 552.83 427.155 553.134 425.617L556.646 407.607L565.018 407.565C565.018 407.565 572.923 409.806 576.971 414.646C579.375 417.517 579.784 423.895 579.826 427.212C579.842 428.357 578.897 429.275 577.753 429.244Z" fill="#1189A5"/>
<path d="M508.453 246.08L598.555 248.558C600.418 248.61 601.888 250.164 601.836 252.027L601.426 266.861C601.374 268.725 599.82 270.195 597.956 270.142L507.855 267.664C505.991 267.612 504.522 266.058 504.574 264.195L504.984 249.361C505.036 247.497 506.59 246.027 508.453 246.08Z" fill="#1189A5"/>
<path d="M602.145 266.189C603.578 266.231 604.749 267.334 604.89 268.761C605.442 274.252 605.657 279.921 605.494 285.716C604.759 312.44 593.474 335.972 580.057 351.089C575.254 356.501 563.664 355.845 551.79 355.75C538.956 355.645 525.807 355.651 520.962 349.556C508.39 333.73 498.464 309.574 499.199 282.792C499.356 276.992 499.881 271.344 500.737 265.895C500.957 264.478 502.186 263.439 503.619 263.476L602.145 266.189Z" fill="#27BEE0"/>
<path d="M544.541 312.387L560.761 312.833C561.942 312.865 562.929 311.936 562.96 310.75L563.406 294.53C563.438 293.349 562.509 292.362 561.323 292.33L545.103 291.884C543.922 291.853 542.935 292.782 542.903 293.968L542.457 310.188C542.426 311.374 543.355 312.356 544.541 312.387Z" fill="#512BD4"/>
<path d="M574.125 247.886C569.501 253.555 562.399 257.093 554.52 256.878C546.641 256.662 539.743 252.736 535.439 246.82L574.125 247.886Z" fill="#27BEE0"/>
<path d="M562.068 202.974L577.033 179.841C577.705 178.801 579.317 179.442 579.096 180.654L574.97 203.341C574.76 204.491 573.653 205.241 572.508 205.021L562.068 202.974Z" fill="#BBF1FD"/>
<path d="M551.785 201.069L546.105 174.109C545.848 172.902 544.121 172.917 543.89 174.13L539.607 196.785C539.392 197.93 540.153 199.032 541.302 199.231L551.785 201.069Z" fill="#BBF1FD"/>
<path d="M595.421 245.025L506.411 228.522C504.947 228.249 504.185 226.611 504.92 225.314C518.773 200.911 539.502 186.471 559.548 190.187C579.6 193.903 593.773 214.816 597.956 242.563C598.182 244.038 596.885 245.293 595.421 245.025Z" fill="#27BEE0"/>
<path d="M554.294 230.364C562.62 230.364 569.369 223.614 569.369 215.288C569.369 206.962 562.62 200.213 554.294 200.213C545.968 200.213 539.218 206.962 539.218 215.288C539.218 223.614 545.968 230.364 554.294 230.364Z" fill="#BBF1FD"/>
<path d="M554.294 226.186C560.312 226.186 565.191 221.307 565.191 215.288C565.191 209.27 560.312 204.391 554.294 204.391C548.275 204.391 543.396 209.27 543.396 215.288C543.396 221.307 548.275 226.186 554.294 226.186Z" fill="#1189A5"/>
<path d="M628.013 283.071C627.656 277.297 620.979 274.021 605.158 272.005C605.373 274.672 605.468 278.21 605.478 280.519C613.935 281.685 617.51 282.992 618.969 283.763C617.189 285.328 611.436 289.06 593.442 294.713C580.818 298.676 568.587 301.574 568.467 301.6L570.393 309.773C570.96 309.642 584.461 306.445 598.135 302.03C624.89 293.396 628.307 287.816 628.013 283.071Z" fill="#1189A5"/>
<path d="M575.291 328.717L543.439 338.502L513.912 331.295L489.472 341.814L461.258 331.977L444.561 263.811L472.775 273.648L497.215 263.124L526.741 270.336L558.588 260.552L575.291 328.717Z" fill="#BBF1FD"/>
<path d="M513.897 331.3L513.912 331.295L543.439 338.502L526.741 270.336L497.357 263.161L513.897 331.3Z" fill="#77E3FB"/>
<path d="M472.817 273.627L472.775 273.648L444.56 263.812L461.258 331.977L489.399 341.788L472.817 273.627Z" fill="#77E3FB"/>
<path d="M577.842 303.841L566.504 292.96L569.847 306.435L568.183 313.621L551.948 318.655L558.478 324.224L574.33 319.305L577.842 303.841Z" fill="#1189A5"/>
<path d="M445.821 304.366L456.461 316.13L465.699 314.14L468.392 306.146L459.027 308.156L454.009 302.608L450.791 289.286L445.821 304.366Z" fill="#1189A5"/>
<path d="M262.798 224.874H265.937V292.551H275.816V224.874H279.506C281.585 224.874 283.275 226.559 283.275 228.642V330.534C283.275 332.612 281.59 334.302 279.506 334.302H262.804C260.725 334.302 259.035 332.618 259.035 330.534V228.642C259.03 226.559 260.72 224.874 262.798 224.874Z" fill="#BBF1FD"/>
<path d="M315.028 198.061C309.458 176.928 312.965 160.036 312.965 160.036L307.988 160.052L307.862 159.957C314.875 121.129 348.785 91.6237 389.649 91.5082C435.69 91.3717 473.127 128.588 473.258 174.634C473.394 220.674 436.178 258.111 390.132 258.242C353.803 258.347 322.838 235.193 311.322 202.806C310.991 201.425 311.012 198.953 315.028 198.061Z" fill="url(#paint9_radial)"/>
<path d="M315.028 198.061C309.527 177.19 312.875 160.461 312.959 160.057L351.415 159.805C351.415 159.805 356.863 159.238 356.879 164.214C356.895 169.191 356.732 183.258 356.774 198.812C356.785 202.008 354.17 203.562 352.108 203.567C352.108 203.562 317.238 202.612 315.028 198.061Z" fill="url(#paint10_radial)"/>
<path d="M317.505 186.581C319.867 188.339 332.087 197.898 332.087 197.898L314.986 198.05C313.878 193.825 313.043 189.578 312.387 185.636C314.03 184.869 315.678 185.221 317.505 186.581Z" fill="#A08BE8"/>
<path d="M311.668 203.762C311.668 203.762 309.343 199.326 315.028 198.066C315.022 198.045 315.017 198.024 315.012 197.998L352.029 197.751C354.008 197.746 356.548 196.56 356.769 194.639C356.769 196.014 356.774 197.405 356.774 198.812C356.785 201.715 354.632 203.253 352.695 203.52C352.501 203.541 352.307 203.567 352.108 203.567L346.292 203.583L311.668 203.762Z" fill="#512BD4"/>
<path d="M318.135 217.299L461.893 216.879C458.681 222.37 454.86 227.456 450.524 232.054L329.599 232.406C325.232 227.834 321.379 222.774 318.135 217.299Z" fill="#D8CFF7"/>
<path d="M333.378 236.138C326.208 229.519 320.208 221.661 315.71 212.895L333.315 212.842L333.378 236.138Z" fill="#512BD4"/>
<path d="M332.724 190.629C336.323 190.536 339.116 185.554 338.961 179.499C338.806 173.445 335.762 168.612 332.163 168.704C328.563 168.796 325.771 173.779 325.926 179.833C326.081 185.888 329.124 190.721 332.724 190.629Z" fill="#512BD4"/>
<path d="M332.465 173.851C334.874 176.208 334.911 180.066 332.559 182.476C330.948 184.124 328.628 184.665 326.549 184.082C326.187 182.775 325.966 181.337 325.924 179.825C325.846 176.859 326.486 174.151 327.573 172.151C329.31 171.962 331.116 172.529 332.465 173.851Z" fill="#8065E0"/>
<path d="M261.614 227.988L251.943 224.584L178.277 433.89L187.947 437.293L261.614 227.988Z" fill="#BBF1FD"/>
<path d="M187.935 437.286L178.261 433.879L178.193 444.54L181.311 445.637L187.935 437.286Z" fill="#0B7891"/>
<path d="M265.626 435.23L275.877 435.23L275.877 330.636L265.626 330.636L265.626 435.23Z" fill="#BBF1FD"/>
<path d="M265.623 435.233H275.879L272.399 445.311H269.098L265.623 435.233Z" fill="#0B7891"/>
<path d="M283.27 321.558V330.534C283.27 332.612 281.585 334.303 279.502 334.303H262.799C260.72 334.303 259.03 332.618 259.03 330.534V321.558H283.27Z" fill="#0B7891"/>
<path d="M354.185 436.094L363.855 432.69L290.189 223.385L280.519 226.788L354.185 436.094Z" fill="#BBF1FD"/>
<path d="M354.186 436.109L363.86 432.708L363.928 443.369L360.81 444.466L354.186 436.109Z" fill="#0B7891"/>
<path d="M261.554 211.142H250.074V225.168H261.554V211.142Z" fill="#0B7891"/>
<path d="M316.975 191.499H308.325C307.123 191.499 306.146 190.523 306.146 189.321V170.975C306.146 169.773 307.123 168.797 308.325 168.797H316.975C318.177 168.797 319.154 169.773 319.154 170.975V189.321C319.154 190.523 318.177 191.499 316.975 191.499Z" fill="#0B7891"/>
<path d="M291.716 211.142H280.236V225.168H291.716V211.142Z" fill="white"/>
<path d="M258.704 164.635C258.704 166.231 257.408 167.528 255.812 167.528H213.64C212.044 167.528 210.748 168.824 210.748 170.42V192.865C210.748 194.461 212.044 195.757 213.64 195.757H239.487C241.083 195.757 242.379 197.054 242.379 198.65V212.256C242.379 213.851 243.676 215.148 245.272 215.148H295.606C297.201 215.148 298.498 213.851 298.498 212.256V202.77C298.498 201.616 299.185 200.571 300.251 200.114L308.65 196.513C309.71 196.057 310.403 195.012 310.403 193.857V176.719V167.538V164.646C310.403 163.05 309.106 161.753 307.511 161.753H261.602C259.995 161.743 258.704 163.04 258.704 164.635Z" fill="#0B7891"/>
<path d="M307.506 161.742H261.597C260.001 161.742 258.704 163.039 258.704 164.634C258.704 166.23 257.408 167.527 255.812 167.527H228.349V195.751H239.487C241.083 195.751 242.38 197.048 242.38 198.644V212.249C242.38 213.845 243.676 215.142 245.272 215.142H295.606C297.202 215.142 298.498 213.845 298.498 212.249V202.764C298.498 201.609 299.186 200.565 300.251 200.108L308.65 196.507C309.71 196.051 310.403 195.006 310.403 193.851V176.713V167.532V164.64C310.398 163.039 309.102 161.742 307.506 161.742Z" fill="#BBF1FD"/>
<path d="M303.285 175.348H267.854C267.308 175.348 266.867 174.907 266.867 174.361V168.855C266.867 168.309 267.308 167.868 267.854 167.868H303.285C303.831 167.868 304.272 168.309 304.272 168.855V174.361C304.272 174.902 303.831 175.348 303.285 175.348Z" fill="#0B7891"/>
<path d="M255.329 174.991C252.815 177.689 248.594 177.851 245.886 175.348L239.324 169.29C236.29 166.45 236.007 161.878 238.7 159.075C241.387 156.272 246.027 156.304 249.067 159.144L255.051 164.524C258.048 167.222 258.258 171.852 255.507 174.807L255.329 174.991Z" fill="#8A6FE8"/>
<path d="M269.308 165.873C265.276 166.587 261.455 163.815 260.883 159.763L259.744 151.737C259.187 147.621 261.864 143.91 265.722 143.454C269.581 142.997 273.16 145.963 273.717 150.083L274.861 158.219C275.376 161.852 272.919 165.238 269.308 165.873Z" fill="#8A6FE8"/>
<path d="M260.557 169.054C256.773 170.461 252.558 168.571 251.093 164.807L248.07 157.06C246.584 153.18 248.343 148.955 251.991 147.627C255.639 146.299 259.807 148.367 261.287 152.246L264.478 160.162C265.911 163.705 264.137 167.726 260.557 169.054Z" fill="#8A6FE8"/>
<path d="M203.557 183.584H202.507C201.494 183.584 200.67 182.759 200.67 181.746C200.67 180.733 201.494 179.909 202.507 179.909H203.557C204.57 179.909 205.394 180.733 205.394 181.746C205.394 182.759 204.575 183.584 203.557 183.584ZM190.959 183.584H180.46C179.447 183.584 178.623 182.759 178.623 181.746C178.623 180.733 179.447 179.909 180.46 179.909H190.959C191.972 179.909 192.796 180.733 192.796 181.746C192.796 182.759 191.977 183.584 190.959 183.584ZM168.912 183.584H167.862C166.849 183.584 166.025 182.759 166.025 181.746C166.025 180.733 166.849 179.909 167.862 179.909H168.912C169.925 179.909 170.75 180.733 170.75 181.746C170.75 182.759 169.931 183.584 168.912 183.584ZM156.314 183.584H145.816C144.803 183.584 143.979 182.759 143.979 181.746C143.979 180.733 144.803 179.909 145.816 179.909H156.314C157.327 179.909 158.152 180.733 158.152 181.746C158.152 182.759 157.333 183.584 156.314 183.584ZM134.268 183.584H133.218C132.205 183.584 131.381 182.759 131.381 181.746C131.381 180.733 132.205 179.909 133.218 179.909H134.268C135.281 179.909 136.105 180.733 136.105 181.746C136.105 182.759 135.286 183.584 134.268 183.584ZM121.67 183.584H111.172C110.159 183.584 109.334 182.759 109.334 181.746C109.334 180.733 110.159 179.909 111.172 179.909H121.67C122.683 179.909 123.507 180.733 123.507 181.746C123.507 182.759 122.688 183.584 121.67 183.584ZM99.6236 183.584H98.5737C97.5606 183.584 96.7365 182.759 96.7365 181.746C96.7365 180.733 97.5606 179.909 98.5737 179.909H99.6236C100.637 179.909 101.461 180.733 101.461 181.746C101.461 182.759 100.642 183.584 99.6236 183.584ZM87.0256 183.584H76.5273C75.5142 183.584 74.6901 182.759 74.6901 181.746C74.6901 180.733 75.5142 179.909 76.5273 179.909H87.0256C88.0387 179.909 88.8628 180.733 88.8628 181.746C88.8628 182.759 88.0439 183.584 87.0256 183.584ZM64.9792 183.584H63.9294C62.9163 183.584 62.0922 182.759 62.0922 181.746C62.0922 180.733 62.9163 179.909 63.9294 179.909H64.9792C65.9923 179.909 66.8164 180.733 66.8164 181.746C66.8164 182.759 65.9975 183.584 64.9792 183.584ZM52.3812 183.584H41.883C40.8699 183.584 40.0458 182.759 40.0458 181.746C40.0458 180.733 40.8699 179.909 41.883 179.909H52.3812C53.3943 179.909 54.2184 180.733 54.2184 181.746C54.2184 182.759 53.3996 183.584 52.3812 183.584ZM30.3348 183.584H29.285C28.2719 183.584 27.4478 182.759 27.4478 181.746C27.4478 180.733 28.2719 179.909 29.285 179.909H30.3348C31.3479 179.909 32.172 180.733 32.172 181.746C32.172 182.759 31.3532 183.584 30.3348 183.584ZM17.7369 183.584H14.4457C13.4326 183.584 12.6085 182.759 12.6085 181.746C12.6085 180.733 13.4326 179.909 14.4457 179.909H17.7369C18.75 179.909 19.5741 180.733 19.5741 181.746C19.5741 182.759 18.7552 183.584 17.7369 183.584Z" fill="white"/>
<path d="M245.534 242.6H296.697C298.514 242.6 299.821 240.862 299.327 239.119L295.632 226.128C295.296 224.952 294.225 224.144 293.002 224.144H249.229C248.006 224.144 246.935 224.952 246.6 226.128L242.904 239.119C242.411 240.862 243.723 242.6 245.534 242.6Z" fill="#19A0BF"/>
<path d="M294.325 236.6L298.351 221.53C315.232 225.346 330.471 228.191 343.567 225.582C369.666 220.38 381.156 190.507 383.834 182.083L401.833 187.442C391.114 210.039 372.732 259.061 294.325 236.6Z" fill="#8A6FE8"/>
<path d="M288.771 223.43L279.349 211.882C276.861 208.79 277.549 204.381 280.877 202.035C284.21 199.688 288.924 200.297 291.412 203.389L301.07 215.226L288.771 223.43Z" fill="#8A6FE8"/>
<path d="M300.944 242.022L288.1 250.873C284.661 253.208 280.142 252.474 278 249.235C275.859 245.996 276.908 241.477 280.347 239.141L293.517 230.065L300.944 242.022Z" fill="#8A6FE8"/>
<path d="M287.848 231.493L273.559 225.246C269.764 223.556 268.011 219.33 269.649 215.808C271.287 212.286 275.691 210.795 279.486 212.485L294.136 218.889L287.848 231.493Z" fill="#8A6FE8"/>
<path d="M293.517 237.319L278.1 239.645C273.99 240.238 270.258 237.592 269.765 233.739C269.271 229.887 272.205 226.28 276.321 225.687L292.131 223.299L293.517 237.319Z" fill="#8A6FE8"/>
<path d="M307.117 217.876C300.582 212.554 290.624 213.22 284.877 219.362C279.129 225.503 279.764 234.794 286.299 240.117C292.834 245.44 302.792 244.773 308.54 238.631C314.288 232.49 313.647 223.194 307.117 217.876Z" fill="url(#paint11_radial)"/>
<path d="M393.586 195.037C402.04 195.037 408.893 188.184 408.893 179.731C408.893 171.277 402.04 164.424 393.586 164.424C385.133 164.424 378.28 171.277 378.28 179.731C378.28 188.184 385.133 195.037 393.586 195.037Z" fill="url(#paint12_radial)"/>
<path d="M366.574 94.9937C341.279 101.928 340.014 111.413 354.365 109.739C386.201 106.027 413.35 113.061 436.787 127.318C443.8 131.585 446.55 109.739 446.55 109.739L366.574 94.9937Z" fill="#6E66DF"/>
<path d="M398.531 102.737C413.78 116.862 433.428 126.116 440.551 129.208C442.078 129.869 443.852 129.224 444.598 127.738L449.831 117.361C449.831 117.361 379.561 85.1625 398.531 102.737Z" fill="#522CD5"/>
<path d="M365.892 87.388C365.892 87.388 376.684 34.1144 422.084 47.9564C472.109 63.2052 457.002 108.253 456.54 114.101C456.083 119.948 381.519 99.2248 375.23 97.2459C368.942 95.2617 367.414 86.9471 365.892 87.388Z" fill="url(#paint13_radial)"/>
<path d="M456.791 114.232L467.138 119.917C467.825 120.295 468.151 121.108 467.914 121.859L467.615 122.809C467.348 123.66 466.45 124.142 465.589 123.901C455.941 121.15 404.951 107.833 395.329 105.225C384.721 102.343 370.879 101.891 360.401 98.5896L341.966 92.7526C341.1 92.4796 340.617 91.5505 340.89 90.6844L341.111 89.9863C341.316 89.3354 341.898 88.8787 342.581 88.8367L365.525 87.4142C365.761 87.3985 365.997 87.4352 366.223 87.5192C370.758 89.2829 420.651 108.49 456.256 114.054C456.445 114.08 456.624 114.143 456.791 114.232Z" fill="#BBF1FD"/>
<path d="M375.666 90.4166L378.396 83.3828C378.763 82.4432 379.802 81.955 380.758 82.2804L390.689 85.6399C391.634 85.9601 392.169 86.9627 391.907 87.9233L389.891 95.2931C389.603 96.3481 388.485 96.9361 387.456 96.5791L376.81 92.8837C375.797 92.532 375.283 91.4139 375.666 90.4166Z" fill="#BBF1FD"/>
<path d="M432.687 108.836L434.756 101.251C434.992 100.374 435.895 99.8599 436.771 100.091L447.39 102.941C448.204 103.162 448.718 103.954 448.592 104.784C448.125 107.786 447.07 114.369 446.75 114.258C446.424 114.143 437.564 111.828 433.853 110.862C432.971 110.631 432.446 109.718 432.687 108.836Z" fill="#BBF1FD"/>
<path d="M453.479 80.4169C452.314 74.3646 438.593 48.6963 406.184 50.1608C399.607 50.46 394.983 55.5832 404.967 55.0005C433.753 53.3208 448.524 72.2545 453.479 80.4169Z" fill="#BBF1FD"/>
<path d="M724.151 77.5877C728.036 77.5877 731.185 74.4386 731.185 70.5539C731.185 66.6692 728.036 63.52 724.151 63.52C720.267 63.52 717.118 66.6692 717.118 70.5539C717.118 74.4386 720.267 77.5877 724.151 77.5877Z" fill="#8EE8FC"/>
<path d="M230.474 89.0306C233.71 89.0306 236.332 86.4078 236.332 83.1725C236.332 79.9372 233.71 77.3145 230.474 77.3145C227.239 77.3145 224.616 79.9372 224.616 83.1725C224.616 86.4078 227.239 89.0306 230.474 89.0306Z" fill="#8EE8FC"/>
<path d="M137.208 60.743C138.503 60.743 139.554 59.6925 139.554 58.3967C139.554 57.1008 138.503 56.0503 137.208 56.0503C135.912 56.0503 134.861 57.1008 134.861 58.3967C134.861 59.6925 135.912 60.743 137.208 60.743Z" fill="#72ACF1"/>
<path d="M109.859 156.797C112.448 156.797 114.547 154.699 114.547 152.11C114.547 149.521 112.448 147.422 109.859 147.422C107.271 147.422 105.172 149.521 105.172 152.11C105.172 154.699 107.271 156.797 109.859 156.797Z" fill="#8EE8FC"/>
<path d="M530.978 62.003C529.828 65.4044 527.692 68.3387 524.889 70.4698C524.39 70.832 524.369 71.5249 524.831 71.9291C527.613 74.37 529.744 77.5195 530.936 81.1099C531.245 82.0127 532.453 82.0127 532.762 81.1099C533.97 77.5195 536.106 74.37 538.867 71.9291C539.329 71.5249 539.308 70.832 538.809 70.4698C536.006 68.3387 533.875 65.3992 532.72 62.003C532.453 61.1579 531.266 61.1579 530.978 62.003Z" fill="#8EE8FC"/>
<path d="M163.049 52.0035C161.899 55.4049 159.763 58.3392 156.96 60.4703C156.461 60.8325 156.44 61.5254 156.902 61.9296C159.684 64.3705 161.82 67.5199 163.007 71.1104C163.316 72.0132 164.524 72.0132 164.833 71.1104C166.041 67.5199 168.177 64.3705 170.938 61.9296C171.4 61.5254 171.379 60.8325 170.88 60.4703C168.077 58.3392 165.946 55.3997 164.791 52.0035C164.524 51.1584 163.337 51.1584 163.049 52.0035Z" fill="#8EE8FC"/>
<defs>
<linearGradient id="paint0_linear" x1="454.499" y1="512.111" x2="454.499" y2="0" gradientUnits="userSpaceOnUse">
<stop offset="0.5634" stop-color="#33D5F9"/>
<stop offset="0.6349" stop-color="#29C3E5"/>
</linearGradient>
<linearGradient id="paint1_linear" x1="370.478" y1="245.633" x2="357.834" y2="310.172" gradientUnits="userSpaceOnUse">
<stop stop-color="#522CD5"/>
<stop offset="0.4397" stop-color="#8A6FE8"/>
</linearGradient>
<linearGradient id="paint2_linear" x1="370.478" y1="245.633" x2="357.834" y2="310.172" gradientUnits="userSpaceOnUse">
<stop stop-color="#522CD5"/>
<stop offset="0.4397" stop-color="#8A6FE8"/>
</linearGradient>
<linearGradient id="paint3_linear" x1="364.631" y1="306.91" x2="330.162" y2="376.98" gradientUnits="userSpaceOnUse">
<stop stop-color="#522CD5"/>
<stop offset="0.4397" stop-color="#8A6FE8"/>
</linearGradient>
<radialGradient id="paint4_radial" cx="0" cy="0" r="1" gradientUnits="userSpaceOnUse" gradientTransform="translate(342.859 363.743) rotate(180) scale(14.7331)">
<stop offset="0.034" stop-color="#522CD5"/>
<stop offset="1" stop-color="#8A6FE8"/>
</radialGradient>
<linearGradient id="paint5_linear" x1="396.884" y1="245.633" x2="384.24" y2="310.171" gradientUnits="userSpaceOnUse">
<stop stop-color="#522CD5"/>
<stop offset="0.4397" stop-color="#8A6FE8"/>
</linearGradient>
<linearGradient id="paint6_linear" x1="396.884" y1="245.633" x2="384.24" y2="310.171" gradientUnits="userSpaceOnUse">
<stop stop-color="#522CD5"/>
<stop offset="0.4397" stop-color="#8A6FE8"/>
</linearGradient>
<linearGradient id="paint7_linear" x1="394.24" y1="307.037" x2="359.197" y2="378.274" gradientUnits="userSpaceOnUse">
<stop stop-color="#522CD5"/>
<stop offset="0.4397" stop-color="#8A6FE8"/>
</linearGradient>
<radialGradient id="paint8_radial" cx="0" cy="0" r="1" gradientUnits="userSpaceOnUse" gradientTransform="translate(369.202 351.348) rotate(180) scale(26.9043)">
<stop offset="0.034" stop-color="#522CD5"/>
<stop offset="0.9955" stop-color="#8A6FE8"/>
</radialGradient>
<radialGradient id="paint9_radial" cx="0" cy="0" r="1" gradientUnits="userSpaceOnUse" gradientTransform="translate(374.589 151.698) rotate(-169.805) scale(83.3791)">
<stop offset="0.4744" stop-color="#A08BE8"/>
<stop offset="0.8618" stop-color="#8065E0"/>
</radialGradient>
<radialGradient id="paint10_radial" cx="0" cy="0" r="1" gradientUnits="userSpaceOnUse" gradientTransform="translate(315.511 151.774) rotate(-169.805) scale(55.1845)">
<stop offset="0.2022" stop-color="#E1DFDD"/>
<stop offset="0.7337" stop-color="white"/>
</radialGradient>
<radialGradient id="paint11_radial" cx="0" cy="0" r="1" gradientUnits="userSpaceOnUse" gradientTransform="translate(296.706 228.996) scale(15.2453)">
<stop stop-color="#8065E0"/>
<stop offset="0.8628" stop-color="#512BD4"/>
</radialGradient>
<radialGradient id="paint12_radial" cx="0" cy="0" r="1" gradientUnits="userSpaceOnUse" gradientTransform="translate(392.9 173.331) rotate(180) scale(22.7353)">
<stop stop-color="#8065E0"/>
<stop offset="0.8628" stop-color="#512BD4"/>
</radialGradient>
<radialGradient id="paint13_radial" cx="0" cy="0" r="1" gradientUnits="userSpaceOnUse" gradientTransform="translate(427.948 111.199) scale(79.3205)">
<stop offset="0.5634" stop-color="#77E3FB"/>
<stop offset="1" stop-color="#BBF1FD"/>
</radialGradient>
</defs>
</svg>
