<svg width="945" height="544" viewBox="0 0 945 544" fill="none" xmlns="http://www.w3.org/2000/svg">
<path d="M722.256 84.5601C613.82 75.1487 473.468 46.1034 332.432 8.74134C200.683 -26.1629 39.9935 44.7401 7.26136 198.562C-12.1032 289.558 8.54191 369.604 53.9818 428.193C255.614 428.96 709.495 430.035 911.601 426.971C931.318 394.735 942.945 357.734 944.583 319.654C948.947 218.201 882.193 98.4377 722.256 84.5601Z" fill="#E5E8D5"/>
<path d="M932.221 236.188C917.363 193.387 889.025 153.225 845.579 124.81C799.201 132.648 764.865 166.57 764.865 166.57C764.865 166.57 758.125 145.367 736.845 138.003C709.079 128.397 683.492 140.114 683.492 140.114C683.492 140.114 651.693 88.4788 575.623 91.3667C510.975 93.8197 472.51 142.914 472.51 142.914C472.51 142.914 314.563 -24.8145 112.422 142.914C100.804 135.8 64.3964 128.836 28.2381 138.629C19.0054 156.924 11.8647 176.924 7.26058 198.562C4.54308 211.33 2.61248 223.878 1.42969 236.188H932.221Z" fill="url(#paint0_linear)"/>
<path d="M897.5 373.649V325.649H850.579V352.921H712.075V391.104H504.675V362.738H483.942V345.283H427.202V384.556H26.7817C48.5217 428.95 82.3633 465.203 124.04 490.378H853.746C893.077 461.196 921.615 419.744 935.432 373.649H897.5Z" fill="#CAD0AB"/>
<path d="M95.2665 186.434L94.7679 185.056L153.614 163.711L153.82 163.755L229.387 179.983L229.079 181.415L153.717 165.231L95.2665 186.434Z" fill="#CAD0AB"/>
<path d="M113.869 210.426H96.0831C95.1936 210.426 94.4751 209.708 94.4751 208.818V192.805C94.4751 191.916 95.1936 191.198 96.0831 191.198H113.869C114.759 191.198 115.477 191.916 115.477 192.805V208.818C115.477 209.708 114.759 210.426 113.869 210.426Z" fill="#CAD0AB"/>
<path d="M97.8813 190.929H89.1521L94.3329 184.244H97.8813V190.929Z" fill="#B0B982"/>
<path d="M254.128 187.601L246.728 179.925H181.753L173.542 187.386L174.529 188.471L180.135 183.375L183.439 187.939H185.33L189.392 182.329L193.454 187.939H195.345L199.407 182.329L203.468 187.939H205.36L209.421 182.329L213.483 187.939H215.374L219.436 182.329L223.497 187.939H225.389L229.451 182.329L233.512 187.939H235.404L239.465 182.329L243.527 187.939H245.418L248.434 183.77L253.102 188.618L254.128 187.601ZM184.382 187.035L181.098 182.5L182.32 181.391H188.468L184.382 187.035ZM194.392 187.035L190.306 181.391H198.478L194.392 187.035ZM204.402 187.035L200.316 181.391H208.488L204.402 187.035ZM214.411 187.035L210.325 181.391H218.502L214.411 187.035ZM224.421 187.035L220.335 181.391H228.507L224.421 187.035ZM234.436 187.035L230.35 181.391H238.522L234.436 187.035ZM244.446 187.035L240.36 181.391H246.107L247.491 182.827L244.446 187.035Z" fill="#CAD0AB"/>
<path d="M160.306 206.111H147.759V209.473H160.306V206.111Z" fill="#A2AD6D"/>
<path d="M254.738 187.107H167.578V189.018H254.738V187.107Z" fill="#CAD0AB"/>
<path d="M127.686 189.883H87.2655V191.794H127.686V189.883Z" fill="#CAD0AB"/>
<path d="M162.349 361.272H145.57V209.585H162.349V361.272ZM147.525 359.317H160.394V211.54H147.525V359.317Z" fill="#CAD0AB"/>
<path d="M162.593 188.955H145.325L150.653 165.363H157.261L162.593 188.955ZM147.769 187H160.144L155.697 167.317H152.212L147.769 187Z" fill="#CAD0AB"/>
<path d="M161.029 187.65L148.067 182.334L148.072 180.975L157.178 177.242L149.807 173.724L149.783 172.414L156.601 168.867L157.28 170.167L151.762 173.035L159.304 176.631L159.265 177.97L150.281 181.655L161.586 186.297L161.029 187.65Z" fill="#CAD0AB"/>
<path d="M157.363 168.256H150.565C149.925 168.256 149.406 167.738 149.406 167.098V163.765C149.406 163.125 149.925 162.607 150.565 162.607H157.363C158.004 162.607 158.522 163.125 158.522 163.765V167.098C158.522 167.738 158.004 168.256 157.363 168.256Z" fill="#B0B982"/>
<path d="M168.307 199.167V188.002C168.307 187.459 167.867 187.02 167.324 187.02H127.461C126.919 187.02 126.479 187.459 126.479 188.002V200.037C126.479 200.58 126.919 201.019 127.461 201.019H137.412C137.578 201.019 137.745 201.058 137.891 201.141C141.503 203.165 146.821 206.287 147.984 206.971C148.136 207.059 148.307 207.108 148.483 207.108H167.989C168.356 207.108 168.693 206.903 168.859 206.58L171.229 202.041C171.508 201.503 171.244 200.843 170.667 200.653L168.986 200.096C168.58 199.969 168.307 199.592 168.307 199.167Z" fill="#B0B982"/>
<path d="M159.49 197.15L170.79 200.678C170.511 200.502 168.312 189.019 168.312 189.019H159.49V197.15Z" fill="#CAD0AB"/>
<path d="M148.209 220.522L161.796 211.052H159.03L146.845 219.544V221.499L159.03 229.992L146.845 238.484V240.444L159.03 248.937L146.845 257.429V259.389L159.03 267.882L146.845 276.374V278.329L159.03 286.822L146.845 295.314V297.274L159.03 305.767L146.845 314.259V316.219L159.03 324.711L146.845 333.204V335.159L159.03 343.651L146.845 352.144V354.104L155.931 360.437C156.86 360.451 157.808 360.461 158.747 360.471L148.204 353.122L161.792 343.651L148.204 334.181L161.792 324.711L148.204 315.241L161.792 305.771L148.204 296.301L161.792 286.831L148.204 277.361L161.792 267.891L148.204 258.421L161.792 248.951L148.204 239.481L161.792 230.011L148.209 220.522Z" fill="#CAD0AB"/>
<path d="M164.216 209.473H143.6V212.2H164.216V209.473Z" fill="#B0B982"/>
<path d="M161.797 219.71H146.386V221.23H161.797V219.71Z" fill="#CAD0AB"/>
<path d="M161.797 229.209H146.386V230.729H161.797V229.209Z" fill="#CAD0AB"/>
<path d="M161.797 238.787H146.386V240.307H161.797V238.787Z" fill="#CAD0AB"/>
<path d="M161.797 248.267H146.386V249.787H161.797V248.267Z" fill="#CAD0AB"/>
<path d="M161.797 257.576H146.386V259.095H161.797V257.576Z" fill="#CAD0AB"/>
<path d="M161.797 267.153H146.386V268.673H161.797V267.153Z" fill="#CAD0AB"/>
<path d="M161.797 276.667H146.386V278.187H161.797V276.667Z" fill="#CAD0AB"/>
<path d="M161.797 286.142H146.386V287.662H161.797V286.142Z" fill="#CAD0AB"/>
<path d="M161.797 295.554H146.386V297.073H161.797V295.554Z" fill="#CAD0AB"/>
<path d="M54.6069 428.993C86.6793 470.006 130.936 500.414 182.124 516.574C306.518 555.847 659.519 545.438 754.719 531.302C810.257 523.053 856.928 495.137 890.125 456.485C737.173 434.872 400.628 397.837 54.6069 428.993Z" fill="url(#paint1_radial)"/>
<path d="M579.876 320.509H573.737V377.168H579.876V320.509Z" fill="#889643"/>
<path d="M540.105 468.467L568.116 335.022L563.81 334.118L535.613 468.467H540.105Z" fill="#D7DCC0"/>
<path d="M612.501 468.467L584.49 335.022L588.796 334.118L616.992 468.467H612.501Z" fill="#D7DCC0"/>
<path d="M595.394 468.467L574.656 335.022L578.962 334.118L599.885 468.467H595.394Z" fill="#D7DCC0"/>
<path d="M590.33 338.648H562.51L564.465 329.178H588.375L590.33 338.648Z" fill="#889643"/>
<path d="M710.353 227.978L702.923 230.463L738.014 335.314L745.444 332.828L710.353 227.978Z" fill="#CAD0AB"/>
<path d="M718.213 407.743C718.301 404.024 717.881 394.456 712.075 385.89C705.54 376.254 694.719 371.187 679.909 370.835L679.729 378.35C691.967 378.644 700.755 382.597 705.848 390.107C710.437 396.875 710.765 404.566 710.691 407.562L718.213 407.743Z" fill="#889643"/>
<path d="M695.535 410.879C694.802 410.879 694.083 411.251 693.668 411.92L686.61 423.36C685.975 424.391 686.293 425.739 687.324 426.374C688.355 427.01 689.704 426.687 690.339 425.661L697.397 414.222C698.032 413.191 697.715 411.842 696.684 411.207C696.327 410.987 695.926 410.879 695.535 410.879Z" fill="#A08BE8"/>
<path d="M710.056 415.805C713.463 419.7 713.556 428.779 713.067 430.24C712.578 431.701 714.607 434.203 718.424 429.751C721.347 426.345 724.563 419.025 717.041 413.118C714.279 410.953 710.056 415.805 710.056 415.805Z" fill="#889643"/>
<path d="M719.733 416.367H710.046C707.974 416.367 706.292 414.686 706.292 412.614V401.854C706.292 399.783 707.974 398.102 710.046 398.102H719.733C721.806 398.102 723.487 399.783 723.487 401.854V412.614C723.487 414.686 721.806 416.367 719.733 416.367Z" fill="#5E7438"/>
<path d="M220.785 189.776H219.538V228.57H220.785V189.776Z" fill="#B0B982"/>
<path d="M255.907 272.9H177.006V443.673H255.907V272.9Z" fill="#B0B982"/>
<path d="M180.565 300.108L192.193 299.878V443.673H180.599L180.565 300.108Z" fill="#A2AD6D"/>
<path d="M91.9185 443.541H181.332V299.878L91.9185 314.019V443.541Z" fill="#BDC597"/>
<path d="M111.64 336.512H104.969V345.494H111.64V336.512Z" fill="#B0B982"/>
<path d="M129.71 336.512H123.038V345.494H129.71V336.512Z" fill="#B0B982"/>
<path d="M147.779 336.512H140.829V345.494H147.779V336.512Z" fill="#B0B982"/>
<path d="M165.57 336.512H158.898V345.494H165.57V336.512Z" fill="#B0B982"/>
<path d="M111.64 354.67H104.969V363.652H111.64V354.67Z" fill="#B0B982"/>
<path d="M129.71 354.67H123.038V363.652H129.71V354.67Z" fill="#B0B982"/>
<path d="M147.779 354.67H140.829V363.652H147.779V354.67Z" fill="#B0B982"/>
<path d="M165.57 354.67H158.898V363.652H165.57V354.67Z" fill="#B0B982"/>
<path d="M327.231 458.703L267.95 399.435C255.051 386.54 238.209 381.145 221.239 399.435C180.892 442.92 107.485 465.212 193.986 457.648C281.278 450.01 327.231 458.703 327.231 458.703Z" fill="#CAD0AB"/>
<path d="M228.165 462.886V369.794H221.298V429.927H124.587V369.794H117.725V462.886H107.574V467.26H134.91V462.886H124.587V435.962H221.298V462.886H211.215V467.26H238.551V462.886H228.165Z" fill="#889643"/>
<path d="M230.868 414.119H114.001C111.479 414.119 109.436 412.077 109.436 409.555V379.718C109.436 377.197 111.479 375.154 114.001 375.154H230.868C233.39 375.154 235.433 377.197 235.433 379.718V409.555C235.433 412.072 233.385 414.119 230.868 414.119Z" fill="white"/>
<path d="M139.743 375.149H122.603L109.436 399.948V410.811C109.436 412.634 110.912 414.109 112.735 414.109H119.054L139.743 375.149Z" fill="#E5E8D5"/>
<path d="M189.709 375.149L169.02 414.119H186.166L206.85 375.149H189.709Z" fill="#E5E8D5"/>
<path d="M231.987 375.149H223.263L202.574 414.114H219.714L235.428 384.517V378.59C235.433 376.694 233.888 375.149 231.987 375.149Z" fill="#E5E8D5"/>
<path d="M135.467 414.119H152.608L173.297 375.149H156.156L135.467 414.119Z" fill="#E5E8D5"/>
<path d="M588.4 353.024C589.226 356.65 591.982 365.826 599.71 372.706C608.409 380.447 620.14 382.709 634.587 379.421L632.916 372.091C620.98 374.808 611.489 373.127 604.709 367.092C598.605 361.658 596.396 354.28 595.731 351.357L588.4 353.024Z" fill="#889643"/>
<path d="M593.932 341.618C589.675 338.677 587.358 329.901 587.471 328.366C587.583 326.832 585.008 324.902 582.398 330.15C580.403 334.171 579.079 342.048 587.818 345.933C591.024 347.36 593.932 341.618 593.932 341.618Z" fill="#889643"/>
<path d="M686.508 201.147C685.941 201.66 685.697 202.456 685.956 203.14L689.123 211.379C689.167 211.496 689.226 211.604 689.294 211.701L696.141 221.44C696.664 222.183 697.749 222.29 698.566 221.684C699.367 221.088 699.621 219.984 699.098 219.241L692.354 209.654L689.25 201.586C688.918 200.731 687.916 200.384 687.002 200.809C686.821 200.897 686.655 201.01 686.508 201.147Z" fill="#889643"/>
<path d="M693.018 198.752C692.51 199.211 692.251 199.91 692.407 200.56L694.87 210.568C694.895 210.675 694.934 210.783 694.983 210.88L699.636 220.243C700.042 221.059 701.083 221.318 701.967 220.815C702.847 220.311 703.233 219.246 702.827 218.43L698.248 209.219L695.824 199.378C695.604 198.478 694.66 198.009 693.712 198.337C693.448 198.43 693.214 198.571 693.018 198.752Z" fill="#889643"/>
<path d="M592.955 339.698C592.178 339.698 591.425 339.288 591.024 338.555L581.904 321.916C581.322 320.851 581.708 319.512 582.774 318.931C583.839 318.349 585.174 318.735 585.76 319.8L594.88 336.439C595.462 337.504 595.076 338.843 594.01 339.425C593.673 339.61 593.311 339.698 592.955 339.698Z" fill="#5E7438"/>
<path d="M591.102 349.105C591.816 348.924 592.422 348.391 592.656 347.639L596.693 334.816C597.055 333.663 596.415 332.432 595.261 332.07C594.108 331.709 592.876 332.349 592.515 333.502L588.477 346.324C588.116 347.477 588.756 348.709 589.91 349.07C590.31 349.197 590.726 349.202 591.102 349.105Z" fill="#889643"/>
<path d="M584.812 345.034L594.206 342.659C596.215 342.151 598.253 343.368 598.761 345.376L601.4 355.809C601.909 357.817 600.692 359.855 598.683 360.363L589.289 362.738C587.28 363.246 585.242 362.029 584.734 360.021L582.094 349.588C581.586 347.585 582.803 345.542 584.812 345.034Z" fill="#5E7438"/>
<path d="M220.115 230.421C221.238 230.421 222.148 229.511 222.148 228.389C222.148 227.266 221.238 226.356 220.115 226.356C218.992 226.356 218.082 227.266 218.082 228.389C218.082 229.511 218.992 230.421 220.115 230.421Z" fill="#B0B982"/>
<path d="M242.364 241.162L220.12 228.951L199.011 240.976L198.527 240.126L220.115 227.832L220.355 227.963L242.838 240.307L242.364 241.162Z" fill="#B0B982"/>
<path d="M610.037 456.739L612.5 468.467H616.992L614.533 456.739H610.037Z" fill="#7A8B3F"/>
<path d="M593.571 456.739L595.394 468.467H599.886L598.058 456.739H593.571Z" fill="#7A8B3F"/>
<path d="M538.072 456.739L535.613 468.467H540.105L542.568 456.739H538.072Z" fill="#7A8B3F"/>
<path d="M247.329 239.461H192.95V248.731H247.329V239.461Z" fill="#B0B982"/>
<path d="M609.695 308.268H601.562V305.991C601.562 304.882 600.873 303.89 599.836 303.499L591.22 300.254C590.921 300.142 590.599 300.083 590.281 300.083H586.679L585.125 297.19H595.516C596.787 297.19 597.818 296.159 597.818 294.889V294.307C597.818 293.037 596.787 292.006 595.516 292.006H554.831C553.561 292.006 552.529 293.037 552.529 294.307V294.889C552.529 296.159 553.561 297.19 554.831 297.19H565.222L563.668 300.083H558.404C556.933 300.083 555.741 301.276 555.741 302.746V306.602H549.875V315.329H555.741V319.815C555.741 321.286 556.933 322.478 558.404 322.478H598.903C600.374 322.478 601.567 321.286 601.567 319.815V317.02H609.7C611.049 317.02 612.143 315.925 612.143 314.577V310.711C612.139 309.363 611.044 308.268 609.695 308.268Z" fill="#B0B982"/>
<path d="M537.671 317.938H550.066C551.239 317.938 552.188 316.99 552.188 315.818V306.543C552.188 305.37 551.239 304.422 550.066 304.422H537.671C536.498 304.422 535.55 305.37 535.55 306.543V315.818C535.545 316.986 536.498 317.938 537.671 317.938Z" fill="#889643"/>
<path d="M591.611 310.555H574.421V315.466H591.611V310.555Z" fill="#CAD0AB"/>
<path d="M786.767 401.576H775.271V447.948H783.077L786.767 401.576Z" fill="#889643"/>
<path d="M768.321 401.576H756.82L760.51 447.948H768.321V401.576Z" fill="#889643"/>
<path d="M772.256 418.024C789.413 418.024 803.321 404.118 803.321 386.965C803.321 369.812 789.413 355.907 772.256 355.907C755.099 355.907 741.19 369.812 741.19 386.965C741.19 404.118 755.099 418.024 772.256 418.024Z" fill="#5E7438"/>
<path d="M772.256 337.377C789.413 337.377 803.321 323.471 803.321 306.318C803.321 289.165 789.413 275.26 772.256 275.26C755.099 275.26 741.19 289.165 741.19 306.318C741.19 323.471 755.099 337.377 772.256 337.377Z" fill="#889643"/>
<path d="M738.986 398.36L723.233 317.64C722.857 314.323 725.452 311.41 728.795 311.41H814.763C818.106 311.41 820.701 314.318 820.325 317.64L805.819 398.36C805.496 401.19 803.106 403.325 800.257 403.325H744.548C741.703 403.325 739.308 401.19 738.986 398.36Z" fill="#B0B982"/>
<path d="M770.418 288.795H747.016C744.523 292.431 742.793 296.624 742.035 301.148H770.423C772.93 301.148 774.963 299.116 774.963 296.609V293.34C774.963 290.828 772.93 288.795 770.418 288.795Z" fill="#5E7438"/>
<path d="M764.954 299.615C767.545 299.615 769.646 297.514 769.646 294.923C769.646 292.333 767.545 290.232 764.954 290.232C762.362 290.232 760.261 292.333 760.261 294.923C760.261 297.514 762.362 299.615 764.954 299.615Z" fill="white"/>
<path d="M751.142 299.615C753.733 299.615 755.834 297.514 755.834 294.923C755.834 292.333 753.733 290.232 751.142 290.232C748.55 290.232 746.449 292.333 746.449 294.923C746.449 297.514 748.55 299.615 751.142 299.615Z" fill="white"/>
<path d="M765.951 469.473H747.192C745.731 469.473 744.612 468.144 744.886 466.708C746.889 456.109 755.008 447.685 765.433 445.207C766.894 444.86 768.297 445.989 768.297 447.494V467.133C768.292 468.428 767.241 469.473 765.951 469.473Z" fill="#5E7438"/>
<path d="M780.398 445.202C769.973 447.68 761.855 456.104 759.851 466.703C759.577 468.139 760.697 469.468 762.158 469.468H780.916C782.212 469.468 783.258 468.418 783.258 467.128V447.489C783.262 445.989 781.86 444.855 780.398 445.202Z" fill="#5E7438"/>
<path d="M439.113 253.144C445.008 263.62 449.138 281.881 441.371 298.857C436.66 309.162 425.799 322.512 400.829 327.589L398.014 313.751C413.17 310.667 423.717 303.489 428.522 292.983C433.722 281.612 431.405 268.257 426.796 260.068L439.113 253.144Z" fill="#8A6FE8"/>
<path d="M317.202 276.081L306.821 280.259L303.996 269.01L311.455 266.015L317.202 276.081Z" fill="#D0C5F3"/>
<path d="M314.881 295.49C320.754 295.49 325.516 290.73 325.516 284.857C325.516 278.985 320.754 274.224 314.881 274.224C309.007 274.224 304.245 278.985 304.245 284.857C304.245 290.73 309.007 295.49 314.881 295.49Z" fill="#512BD4"/>
<path d="M845.54 278.006C846.899 279.018 847.583 280.782 847.138 282.526L839.313 313.189C838.922 314.723 837.715 315.92 836.175 316.302L801.718 324.863C799.411 325.429 797.075 324.022 796.508 321.716C795.941 319.409 797.348 317.078 799.655 316.507L831.61 308.561L838.8 280.391C839.386 278.089 841.733 276.697 844.039 277.288C844.592 277.43 845.1 277.679 845.54 278.006Z" fill="#CAD0AB"/>
<path d="M840.012 282.184L845.677 283.631C846.596 283.865 847.466 283.382 847.646 282.531L848.58 278.119C848.609 277.972 848.663 277.831 848.736 277.703L854.235 268.087C854.763 267.158 854.147 265.908 853.003 265.595L839.186 261.813C838.018 261.495 836.991 262.34 837.172 263.469L839.098 275.495C839.122 275.646 839.122 275.793 839.108 275.939L838.57 280.215C838.458 281.085 839.093 281.95 840.012 282.184Z" fill="#889643"/>
<path d="M842.871 246.972C843.551 247.426 843.903 248.242 843.678 248.975C843.262 250.319 841.307 253.486 840.452 254.839L842.075 264.177C842.236 265.115 841.581 265.922 840.613 265.98C839.641 266.029 838.722 265.316 838.555 264.378L836.825 254.434C836.757 254.038 836.83 253.652 837.035 253.334C838.208 251.511 839.978 248.56 840.247 247.7C840.515 246.825 841.503 246.405 842.451 246.762C842.598 246.811 842.739 246.884 842.871 246.972Z" fill="#889643"/>
<path d="M862.627 266.371C862.319 266.371 862.006 266.323 861.703 266.22L589.998 175.874C588.463 175.361 587.627 173.704 588.14 172.165C588.653 170.626 590.31 169.795 591.85 170.308L863.556 260.654C865.09 261.167 865.926 262.824 865.413 264.363C865.002 265.594 863.859 266.371 862.627 266.371Z" fill="white"/>
<path d="M598.35 166.785L574.318 189.341C571.977 191.54 568.292 191.423 566.092 189.082L565.374 188.32C563.174 185.979 563.292 182.295 565.633 180.096L589.665 157.54C592.006 155.341 595.691 155.458 597.891 157.799L598.609 158.561C600.809 160.902 600.691 164.586 598.35 166.785Z" fill="#B0B982"/>
<path d="M586.243 160.732L578.785 167.732L587.465 176.977L594.924 169.978L586.243 160.732Z" fill="#889643"/>
<path d="M859.675 246.801C860.31 247.226 860.672 247.979 860.515 248.687L858.599 257.302C858.57 257.424 858.531 257.537 858.477 257.644L853.14 268.287C852.734 269.098 851.678 269.367 850.779 268.888C849.899 268.419 849.484 267.364 849.89 266.552L855.144 256.071L857.021 247.637C857.221 246.743 858.164 246.249 859.127 246.537C859.328 246.601 859.508 246.689 859.675 246.801Z" fill="#889643"/>
<path d="M852.886 245.394C853.458 245.775 853.82 246.425 853.756 247.089L852.798 257.351C852.788 257.463 852.764 257.571 852.73 257.678L849.509 267.622C849.23 268.492 848.233 268.898 847.29 268.536C846.342 268.17 845.804 267.173 846.087 266.303L849.259 256.515L850.203 246.425C850.291 245.501 851.156 244.9 852.138 245.086C852.407 245.14 852.661 245.247 852.886 245.394Z" fill="#889643"/>
<path d="M703.155 198.83C702.549 199.378 702.319 200.243 702.652 200.932C703.258 202.197 705.663 205.041 706.709 206.253L706.479 215.728C706.454 216.681 707.222 217.384 708.194 217.291C709.162 217.199 709.969 216.353 709.993 215.4L710.233 205.31C710.242 204.909 710.11 204.538 709.861 204.249C708.434 202.622 706.244 199.964 705.853 199.148C705.457 198.322 704.421 198.053 703.536 198.547C703.4 198.635 703.268 198.728 703.155 198.83Z" fill="#889643"/>
<path d="M711.18 233.241L705.794 235.508C704.919 235.875 703.986 235.523 703.683 234.712L702.109 230.485C702.055 230.343 701.982 230.211 701.889 230.099L695.032 221.396C694.372 220.556 694.797 219.227 695.882 218.748L708.991 212.972C710.1 212.483 711.239 213.167 711.224 214.316L711.092 226.498C711.092 226.649 711.112 226.796 711.151 226.937L712.314 231.086C712.554 231.922 712.05 232.874 711.18 233.241Z" fill="#889643"/>
<path d="M663.487 465.041C661.41 465.041 659.729 463.028 659.729 460.546V431.647C659.729 429.165 661.41 427.151 663.487 427.151C665.565 427.151 667.246 429.165 667.246 431.647V460.546C667.251 463.028 665.565 465.041 663.487 465.041Z" fill="#B0B982"/>
<path d="M653.82 468.799V466.722C653.82 463.419 656.498 460.741 659.802 460.741H672.016C675.32 460.741 677.998 463.419 677.998 466.722V468.799H653.82Z" fill="#5E7438"/>
<path d="M650.056 465.041C647.979 465.041 646.297 463.028 646.297 460.546V431.647C646.297 429.165 647.979 427.151 650.056 427.151C652.133 427.151 653.814 429.165 653.814 431.647V460.546C653.819 463.028 652.133 465.041 650.056 465.041Z" fill="#B0B982"/>
<path d="M659.728 468.799V466.722C659.728 463.419 657.05 460.741 653.746 460.741H641.532C638.228 460.741 635.549 463.419 635.549 466.722V468.799H659.728Z" fill="#5E7438"/>
<path d="M664.504 295.387V277.224C664.504 275.25 661.792 274.708 661.029 276.526L653.424 294.689C652.925 295.881 653.8 297.191 655.091 297.191H662.696C663.698 297.195 664.504 296.384 664.504 295.387Z" fill="#CAD0AB"/>
<path d="M677.168 295.387V277.224C677.168 275.25 674.455 274.708 673.693 276.526L666.087 294.689C665.589 295.881 666.464 297.191 667.754 297.191H675.359C676.361 297.195 677.168 296.384 677.168 295.387Z" fill="#CAD0AB"/>
<path d="M660.169 328.303H650.736V378.907H660.169V328.303Z" fill="#889643"/>
<path d="M692.573 324.15L690.98 306.06C690.32 298.564 684.04 292.812 676.513 292.812H633.717C626.19 292.812 619.91 298.564 619.25 306.06L617.656 324.15C617.481 326.133 619.045 327.844 621.039 327.844H645.584C646.655 332.496 650.814 335.965 655.789 335.965C660.765 335.965 664.924 332.496 665.995 327.844H689.191C691.18 327.844 692.744 326.133 692.573 324.15Z" fill="#B0B982"/>
<path d="M648.243 307.638H619.108L618.038 319.761H648.238C650.809 319.761 652.896 317.675 652.896 315.104V312.295C652.901 309.719 650.819 307.638 648.243 307.638Z" fill="#889643"/>
<path d="M618.996 317.846C621.536 317.846 623.595 315.787 623.595 313.248C623.595 310.708 621.536 308.649 618.996 308.649C616.456 308.649 614.397 310.708 614.397 313.248C614.397 315.787 616.456 317.846 618.996 317.846Z" fill="white"/>
<path d="M633.82 317.846C636.36 317.846 638.419 315.787 638.419 313.248C638.419 310.708 636.36 308.649 633.82 308.649C631.28 308.649 629.221 310.708 629.221 313.248C629.221 315.787 631.28 317.846 633.82 317.846Z" fill="white"/>
<path d="M623.384 431.926H686.84C694.245 431.926 700.051 425.583 699.401 418.209L693.218 348.039C693.032 345.958 691.292 344.36 689.201 344.36H620.809C618.839 344.36 617.192 345.865 617.021 347.829L610.818 418.209C610.173 425.578 615.984 431.926 623.384 431.926Z" fill="#889643"/>
<path d="M693.937 356.146L693.223 348.034C693.037 345.953 691.298 344.355 689.206 344.355H620.814C618.844 344.355 617.197 345.86 617.026 347.824L616.293 356.141H693.937V356.146Z" fill="#B0B982"/>
<path d="M625.955 352.447C627.167 352.447 628.15 351.465 628.15 350.253C628.15 349.041 627.167 348.059 625.955 348.059C624.743 348.059 623.761 349.041 623.761 350.253C623.761 351.465 624.743 352.447 625.955 352.447Z" fill="#E5E8D5"/>
<path d="M634.039 352.447C635.251 352.447 636.234 351.465 636.234 350.253C636.234 349.041 635.251 348.059 634.039 348.059C632.827 348.059 631.845 349.041 631.845 350.253C631.845 351.465 632.827 352.447 634.039 352.447Z" fill="#E5E8D5"/>
<path d="M642.123 352.447C643.335 352.447 644.318 351.465 644.318 350.253C644.318 349.041 643.335 348.059 642.123 348.059C640.911 348.059 639.929 349.041 639.929 350.253C639.929 351.465 640.911 352.447 642.123 352.447Z" fill="#E5E8D5"/>
<path d="M226.513 195.004H213.429C212.711 195.004 212.129 194.423 212.129 193.704V189.526C212.129 188.808 212.711 188.227 213.429 188.227H226.513C227.232 188.227 227.813 188.808 227.813 189.526V193.704C227.813 194.423 227.232 195.004 226.513 195.004Z" fill="#B0B982"/>
<path d="M156.767 189.019H148.971C148.6 189.019 148.302 189.317 148.302 189.688V192.845C148.302 193.328 148.615 193.754 149.074 193.895L156.762 196.299V189.019H156.767Z" fill="#CAD0AB"/>
<path d="M181.332 325.532V299.878L91.9185 314.019V325.532H181.332Z" fill="#CAD0AB"/>
<path d="M800.286 332.632C806.629 332.632 811.771 327.491 811.771 321.149C811.771 314.807 806.629 309.666 800.286 309.666C793.942 309.666 788.8 314.807 788.8 321.149C788.8 327.491 793.942 332.632 800.286 332.632Z" fill="#5E7438"/>
<path d="M338.692 489.796C384.794 489.796 422.167 487.232 422.167 484.069C422.167 480.906 384.794 478.342 338.692 478.342C292.59 478.342 255.217 480.906 255.217 484.069C255.217 487.232 292.59 489.796 338.692 489.796Z" fill="#889643"/>
<path d="M427.075 246.039L421.279 234.106C419.71 230.934 415.873 229.64 412.701 231.203C409.529 232.772 408.234 236.608 409.798 239.779L417.017 254.233L427.075 246.039Z" fill="#8A6FE8"/>
<path d="M439.123 254.228L444.709 242.193C446.176 238.978 444.758 235.181 441.537 233.71C438.321 232.244 434.524 233.661 433.052 236.881L427.324 249.22L439.123 254.228Z" fill="#8A6FE8"/>
<path d="M431.342 250.5L436.62 238.328C438.003 235.073 436.488 231.316 433.233 229.933C429.978 228.55 426.219 230.065 424.836 233.319L419.421 245.799L431.342 250.5Z" fill="#8A6FE8"/>
<path d="M441.229 258.89L449.167 248.257C451.264 245.408 450.653 241.402 447.803 239.305C444.954 237.209 440.946 237.82 438.849 240.669L430.711 251.57L441.229 258.89Z" fill="#8A6FE8"/>
<path d="M428.942 269.865C436.346 269.865 442.349 263.864 442.349 256.462C442.349 249.059 436.346 243.058 428.942 243.058C421.538 243.058 415.536 249.059 415.536 256.462C415.536 263.864 421.538 269.865 428.942 269.865Z" fill="url(#paint2_radial)"/>
<path d="M359.514 430.733C359.641 419.314 358.014 396.127 346.22 376.713L334.69 383.716C345.389 401.322 346.191 421.874 345.941 430.841C345.922 431.579 352.838 432.248 359.514 430.733Z" fill="url(#paint3_linear)"/>
<path d="M345.946 430.709L356.626 430.66L366.596 487.749L345.164 487.847C343.532 487.856 342.3 486.537 342.403 484.905L345.946 430.709Z" fill="#522CD5"/>
<path d="M389.441 472.733C391.293 474.194 391.264 476.31 391.117 478.538L390.673 485.379C390.594 486.601 389.524 487.607 388.297 487.612L365.971 487.715C364.583 487.72 363.532 486.601 363.62 485.213L363.771 478.123C363.938 475.547 363.077 474.599 361.078 472.176C357.662 468.027 347.554 445.422 348.517 430.694L359.514 430.646C360.243 439.392 371.777 458.806 389.441 472.733Z" fill="url(#paint4_linear)"/>
<path d="M391.112 478.543C391.215 476.984 391.244 475.489 390.633 474.228L362.779 474.355C363.551 475.489 363.874 476.476 363.766 478.127L363.615 485.218C363.522 486.606 364.578 487.725 365.961 487.72L388.292 487.617C389.519 487.612 390.584 486.606 390.667 485.384L391.112 478.543Z" fill="url(#paint5_radial)"/>
<path d="M305.437 430.987C305.208 419.568 306.625 396.372 318.238 376.85L329.831 383.745C319.294 401.449 318.678 422.006 319.005 430.968C319.04 431.706 312.128 432.444 305.437 430.987Z" fill="url(#paint6_linear)"/>
<path d="M293.761 477.013C293.746 475.489 293.966 474.15 294.616 471.922C304.587 444.67 305.433 430.929 305.433 430.929L319.03 430.865C319.03 430.865 319.963 444.342 330.178 471.501C330.985 473.436 331.078 475.205 331.185 476.842L331.244 485.56C331.249 486.874 330.178 487.954 328.864 487.959L328.209 487.964L296.845 488.106L296.19 488.11C294.871 488.115 293.795 487.05 293.79 485.731L293.761 477.013Z" fill="url(#paint7_linear)"/>
<path d="M293.761 477.014C293.761 476.769 293.766 476.525 293.776 476.286C293.844 475.528 294.196 474.673 295.853 474.668L329.392 474.517C330.604 474.561 331 475.489 331.127 476.075C331.146 476.334 331.166 476.593 331.181 476.847L331.239 485.565C331.244 486.386 330.829 487.114 330.193 487.549C329.812 487.808 329.353 487.964 328.859 487.964L328.204 487.969L296.841 488.111L296.186 488.116C295.526 488.121 294.925 487.852 294.494 487.422C294.059 486.992 293.791 486.396 293.786 485.736L293.761 477.014Z" fill="url(#paint8_radial)"/>
<path d="M249.367 455.903L231.542 416.684C230.922 415.321 231.528 413.718 232.887 413.098L288.4 387.874C289.763 387.253 291.366 387.859 291.987 389.217L309.812 428.436C310.433 429.8 309.827 431.403 308.468 432.023L252.955 457.247C251.591 457.868 249.983 457.267 249.367 455.903Z" fill="#737373"/>
<path d="M396.083 338.398C400.785 320.357 397.75 305.957 397.75 305.957H401.997L402.105 305.874C396.024 272.773 367.021 247.69 332.153 247.69C292.872 247.69 261.029 279.526 261.029 318.799C261.029 358.071 292.872 389.907 332.153 389.907C363.151 389.907 389.509 370.082 399.255 342.425C399.529 341.257 399.509 339.146 396.083 338.398Z" fill="url(#paint9_radial)"/>
<path d="M393.473 354.812H270.824C273.576 359.488 276.85 363.818 280.565 367.727H383.737C387.447 363.818 390.721 359.488 393.473 354.812Z" fill="#D8CFF7"/>
<path d="M315.365 263.992L284.48 281.666C282.872 282.585 280.829 281.788 280.272 280.019L276.528 268.15L315.365 263.992Z" fill="#512BD4"/>
<path d="M355.726 305.976H323.962C323.962 305.976 319.314 305.507 319.314 309.749C319.314 313.995 319.49 325.991 319.49 339.258C319.49 341.985 321.723 343.304 323.483 343.304H399.26C399.074 343.27 398.967 343.25 398.967 343.25C398.967 343.25 400.936 339.459 396.088 338.398C400.731 320.582 397.833 306.323 397.759 305.976H355.726Z" fill="url(#paint10_radial)"/>
<path d="M350.941 338.349C350.941 338.349 362.29 329.368 364.504 327.706C366.719 326.045 368.659 325.952 370.687 327.706C372.716 329.461 384.079 338.349 384.079 338.349H350.941Z" fill="#A08BE8"/>
<path d="M398.961 343.251C398.961 343.251 400.931 339.459 396.083 338.399C396.088 338.379 396.092 338.359 396.097 338.34H323.531C321.845 338.34 319.67 337.333 319.479 335.696C319.484 336.869 319.484 338.056 319.484 339.254C319.484 341.731 321.322 343.036 322.979 343.261C323.145 343.28 323.311 343.3 323.478 343.3H328.438H399.255C399.069 343.27 398.961 343.251 398.961 343.251Z" fill="#512BD4"/>
<path d="M393.501 321.751C393.578 316.587 391.15 312.363 388.079 312.317C385.007 312.271 382.455 316.421 382.378 321.586C382.301 326.751 384.728 330.975 387.8 331.02C390.871 331.066 393.424 326.916 393.501 321.751Z" fill="#512BD4"/>
<path d="M387.871 316.731C385.838 318.764 385.838 322.058 387.871 324.085C389.264 325.478 391.249 325.913 393.013 325.4C393.311 324.286 393.487 323.054 393.507 321.76C393.546 319.228 392.979 316.927 392.031 315.226C390.545 315.094 389.01 315.593 387.871 316.731Z" fill="#8065E0"/>
<path d="M343.272 331.083C346.344 331.037 348.771 326.813 348.694 321.648C348.617 316.484 346.065 312.334 342.993 312.38C339.922 312.425 337.494 316.649 337.571 321.814C337.648 326.979 340.201 331.129 343.272 331.083Z" fill="#512BD4"/>
<path d="M343.091 317.034C341.058 319.067 341.058 322.361 343.091 324.388C344.475 325.771 346.444 326.211 348.199 325.713C348.536 324.476 348.722 323.094 348.697 321.637C348.663 319.292 348.116 317.166 347.241 315.534C345.76 315.397 344.23 315.901 343.091 317.034Z" fill="#8065E0"/>
<path d="M378.571 351.123H355.619V371.421H378.571V351.123Z" fill="#512BD4"/>
<path d="M358.914 364.658C358.743 364.663 358.596 364.605 358.469 364.492C358.347 364.375 358.283 364.238 358.283 364.077C358.278 363.911 358.337 363.769 358.459 363.652C358.576 363.535 358.723 363.471 358.894 363.466C359.07 363.461 359.217 363.52 359.339 363.637C359.466 363.754 359.53 363.891 359.53 364.057C359.534 364.219 359.471 364.36 359.349 364.483C359.236 364.6 359.09 364.658 358.914 364.658Z" fill="white"/>
<path d="M365.81 364.458L364.691 364.477L361.665 359.865C361.587 359.747 361.524 359.625 361.475 359.503H361.45C361.475 359.64 361.49 359.928 361.499 360.373L361.563 364.526L360.571 364.541L360.473 358.203L361.665 358.184L364.588 362.689C364.71 362.875 364.794 363.007 364.828 363.075H364.847C364.818 362.909 364.798 362.625 364.794 362.225L364.73 358.14L365.717 358.125L365.81 364.458Z" fill="white"/>
<path d="M370.639 364.385L367.169 364.438L367.071 358.101L370.404 358.052L370.419 358.946L368.112 358.98L368.142 360.774L370.268 360.739L370.282 361.629L368.156 361.663L368.186 363.539L370.629 363.5L370.639 364.385Z" fill="white"/>
<path d="M375.488 358.863L373.713 358.892L373.796 364.336L372.77 364.35L372.687 358.907L370.913 358.936L370.898 358.042L375.473 357.974L375.488 358.863Z" fill="white"/>
<path d="M272.329 264.598C267.075 266.005 265.893 274.121 273.527 273.281C286.386 271.869 332.701 263.684 353.889 252.87C364.641 247.382 365.697 238.206 346.445 241.079C327.197 243.957 272.329 264.598 272.329 264.598Z" fill="#FAE969"/>
<path d="M270.726 264.984C271.029 266.728 272.672 267.906 274.421 267.642C280.492 266.723 295.037 264.192 312.989 258.871C331.675 253.329 341.821 247.788 345.663 245.408C346.792 244.71 347.3 243.337 346.899 242.071C344.46 234.375 329.153 204.396 297.031 214.042C264.563 223.795 268.962 254.79 270.726 264.984Z" fill="url(#paint11_radial)"/>
<path d="M292.97 215.449C287.877 217.453 283.845 220.043 280.668 222.994C305.643 212.996 324.852 231.418 329.348 237.116C331.86 240.297 335.379 239.041 335.379 239.041C337.52 238.377 337.295 236.1 335.907 234.345C330.184 227.094 315.365 212.058 292.97 215.449Z" fill="#FAE969"/>
<path d="M255.941 400.804C248.649 391.246 242.026 373.732 247.359 355.848C250.594 344.99 259.494 330.257 283.517 321.765L288.228 335.08C273.649 340.236 264.196 348.811 260.897 359.879C257.324 371.866 261.479 384.766 267.178 392.238L255.941 400.804Z" fill="url(#paint12_linear)"/>
<path d="M290.291 341.14C297.504 341.14 303.351 335.294 303.351 328.083C303.351 320.872 297.504 315.026 290.291 315.026C283.079 315.026 277.232 320.872 277.232 328.083C277.232 335.294 283.079 341.14 290.291 341.14Z" fill="url(#paint13_radial)"/>
<path d="M264.675 402.245L275.262 410.244C278.097 412.355 282.109 411.769 284.221 408.935C286.332 406.101 285.746 402.089 282.911 399.978L269.915 390.376L264.675 402.245Z" fill="#8A6FE8"/>
<path d="M250.228 400.418L250.712 413.675C250.863 417.208 253.854 419.944 257.388 419.793C260.922 419.641 263.659 416.651 263.507 413.118L263.009 399.523L250.228 400.418Z" fill="#8A6FE8"/>
<path d="M258.849 400.207L259.67 413.45C259.915 416.978 262.97 419.641 266.498 419.397C270.027 419.152 272.691 416.098 272.447 412.57L271.601 398.991L258.849 400.207Z" fill="#8A6FE8"/>
<path d="M246.23 397.217L243.986 410.293C243.414 413.782 245.775 417.075 249.265 417.647C252.755 418.219 256.049 415.859 256.621 412.37L258.923 398.961L246.23 397.217Z" fill="#8A6FE8"/>
<path d="M258.283 407.21C265.687 407.21 271.689 401.209 271.689 393.806C271.689 386.404 265.687 380.403 258.283 380.403C250.878 380.403 244.876 386.404 244.876 393.806C244.876 401.209 250.878 407.21 258.283 407.21Z" fill="url(#paint14_radial)"/>
<defs>
<linearGradient id="paint0_linear" x1="466.825" y1="236.189" x2="466.825" y2="68.3668" gradientUnits="userSpaceOnUse">
<stop stop-color="white" stop-opacity="0"/>
<stop offset="1" stop-color="white"/>
</linearGradient>
<radialGradient id="paint1_radial" cx="0" cy="0" r="1" gradientUnits="userSpaceOnUse" gradientTransform="translate(245.058 289.033) scale(308.681 308.612)">
<stop offset="0.1865" stop-color="#AEBD74"/>
<stop offset="0.6409" stop-color="#99AA66"/>
<stop offset="1" stop-color="#8D9F5F"/>
</radialGradient>
<radialGradient id="paint2_radial" cx="0" cy="0" r="1" gradientUnits="userSpaceOnUse" gradientTransform="translate(427.861 248.581) scale(30.6389 30.6321)">
<stop stop-color="#8065E0"/>
<stop offset="1" stop-color="#512BD4"/>
</radialGradient>
<linearGradient id="paint3_linear" x1="342.124" y1="377.63" x2="353.548" y2="432.049" gradientUnits="userSpaceOnUse">
<stop stop-color="#522CD5"/>
<stop offset="0.4397" stop-color="#8A6FE8"/>
</linearGradient>
<linearGradient id="paint4_linear" x1="350.997" y1="429.274" x2="384.936" y2="489.796" gradientUnits="userSpaceOnUse">
<stop stop-color="#522CD5"/>
<stop offset="0.4397" stop-color="#8A6FE8"/>
</linearGradient>
<radialGradient id="paint5_radial" cx="0" cy="0" r="1" gradientUnits="userSpaceOnUse" gradientTransform="translate(376.296 462.85) rotate(-0.260684) scale(23.5294 23.5242)">
<stop offset="0.034" stop-color="#522CD5"/>
<stop offset="0.9955" stop-color="#8A6FE8"/>
</radialGradient>
<linearGradient id="paint6_linear" x1="322.139" y1="377.665" x2="311.21" y2="432.184" gradientUnits="userSpaceOnUse">
<stop stop-color="#522CD5"/>
<stop offset="0.4397" stop-color="#8A6FE8"/>
</linearGradient>
<linearGradient id="paint7_linear" x1="312.214" y1="430.898" x2="312.474" y2="488.037" gradientUnits="userSpaceOnUse">
<stop stop-color="#522CD5"/>
<stop offset="0.4397" stop-color="#8A6FE8"/>
</linearGradient>
<radialGradient id="paint8_radial" cx="0" cy="0" r="1" gradientUnits="userSpaceOnUse" gradientTransform="translate(313.185 463.091) rotate(179.739) scale(25.7959 25.79)">
<stop offset="0.034" stop-color="#522CD5"/>
<stop offset="0.9955" stop-color="#8A6FE8"/>
</radialGradient>
<radialGradient id="paint9_radial" cx="0" cy="0" r="1" gradientUnits="userSpaceOnUse" gradientTransform="translate(355.693 293.534) scale(121.533 121.506)">
<stop offset="0.3472" stop-color="#A08BE8"/>
<stop offset="0.684" stop-color="#8065E0"/>
<stop offset="0.8157" stop-color="#8065E0"/>
</radialGradient>
<radialGradient id="paint10_radial" cx="0" cy="0" r="1" gradientUnits="userSpaceOnUse" gradientTransform="translate(328.351 303.534) scale(61.3744 61.3606)">
<stop offset="0.0933" stop-color="#E1DFDD"/>
<stop offset="0.6573" stop-color="white"/>
</radialGradient>
<radialGradient id="paint11_radial" cx="0" cy="0" r="1" gradientUnits="userSpaceOnUse" gradientTransform="translate(302.235 229.11) scale(33.7231 33.7155)">
<stop offset="0.3662" stop-color="#FAE969"/>
<stop offset="1" stop-color="#E8D441"/>
</radialGradient>
<linearGradient id="paint12_linear" x1="266.822" y1="400.804" x2="266.822" y2="321.765" gradientUnits="userSpaceOnUse">
<stop offset="0.3393" stop-color="#967FE6"/>
<stop offset="1" stop-color="#8A6FE8"/>
</linearGradient>
<radialGradient id="paint13_radial" cx="0" cy="0" r="1" gradientUnits="userSpaceOnUse" gradientTransform="translate(293.431 323.709) scale(15.8526 15.8491)">
<stop stop-color="#8065E0"/>
<stop offset="1" stop-color="#512BD4"/>
</radialGradient>
<radialGradient id="paint14_radial" cx="0" cy="0" r="1" gradientUnits="userSpaceOnUse" gradientTransform="translate(259.225 389.436) scale(30.0715 30.0649)">
<stop stop-color="#8065E0"/>
<stop offset="1" stop-color="#512BD4"/>
</radialGradient>
</defs>
</svg>
