<svg width="896" height="498" viewBox="0 0 896 498" fill="none" xmlns="http://www.w3.org/2000/svg">
<path d="M896 0H0V361.07H896V0Z" fill="url(#paint0_linear)"/>
<path d="M800.058 176.41C829.29 176.41 852.987 152.709 852.987 123.473C852.987 94.2368 829.29 70.5361 800.058 70.5361C770.827 70.5361 747.13 94.2368 747.13 123.473C747.13 152.709 770.827 176.41 800.058 176.41Z" fill="url(#paint1_radial)"/>
<path d="M0 253.578C94.2642 208.606 217.131 176.355 376.564 235.023C557.775 301.71 609.399 221.605 757.289 236.641C803.836 241.37 896 262.674 896 262.674V302.99H0V253.578Z" fill="#72ACF1"/>
<path d="M136.217 174.27H106.211V196.957H136.217V174.27Z" fill="#3E8EED"/>
<path d="M136.217 193.93H94.2642V282.692H136.217V193.93Z" fill="#A7CBF6"/>
<path d="M139.413 193.93H131.772L111.492 284.3H141.971L139.413 193.93Z" fill="#72ACF1"/>
<path d="M248.74 141.242C234.946 141.242 223.766 186.362 223.766 242.018V368.01H273.718V242.018C273.718 186.362 262.533 141.242 248.74 141.242Z" fill="url(#paint2_linear)"/>
<path d="M162.938 284.3L181.669 291.3V103.385L162.938 86.0293V284.3Z" fill="#3E8EED"/>
<path d="M162.938 86.0293H135.779V284.3H162.938V86.0293Z" fill="url(#paint3_linear)"/>
<path d="M227.002 74.6982C185.945 81.4392 155.461 166.617 182.187 286.197C208.912 405.777 217.26 162.017 217.26 162.017L227.002 74.6982Z" fill="url(#paint4_linear)"/>
<path d="M162.938 114.104H135.779V117.121H162.938V114.104Z" fill="#72ACF1"/>
<path d="M413.539 167.095L391.781 182.788V287.522H417.123V175.121L413.539 167.095Z" fill="#3E8EED"/>
<path d="M425.421 285.042V172.621L413.539 167.095V288.856L425.421 285.042Z" fill="url(#paint5_linear)"/>
<path d="M272.389 209.513L269.616 216.886L260.985 193.935L267.655 176.201C267.222 174.18 266.769 172.233 266.301 170.356L259.208 189.21L250.576 166.259L257.555 147.704C256.779 146.519 255.977 145.483 255.166 144.612L248.799 161.534L242.403 144.522C241.586 145.384 240.785 146.409 240.003 147.589L247.022 166.254L238.391 189.205L231.233 170.167C230.76 172.039 230.307 173.981 229.874 175.997L236.619 193.925L227.982 216.886L225.115 209.269C224.896 211.852 224.702 214.486 224.533 217.165L226.205 221.61L224.03 227.396C223.91 230.706 223.831 234.062 223.796 237.467L227.982 226.33L236.614 249.281L223.766 283.439V292.883L238.391 254.001L247.022 276.952L230.954 319.678L234.065 320.848L248.799 281.672L263.533 320.848L266.645 319.678L250.576 276.952L259.208 254.001L273.718 292.58V283.135L260.985 249.276L269.616 226.325L273.688 237.154C273.648 233.743 273.564 230.373 273.444 227.057L271.393 221.605L272.966 217.419C272.797 214.74 272.608 212.101 272.389 209.513ZM248.799 170.979L257.431 193.93L248.799 216.881L240.168 193.93L248.799 170.979ZM229.759 221.605L238.391 198.654L247.022 221.605L238.391 244.557L229.759 221.605ZM259.208 244.557L250.576 221.605L259.208 198.654L267.839 221.605L259.208 244.557ZM248.799 272.232L240.168 249.281L248.799 226.33L257.431 249.281L248.799 272.232Z" fill="#72ACF1"/>
<path d="M312.077 336.461H330.808V155.545L312.077 138.19V336.461Z" fill="#3E8EED"/>
<path d="M312.077 138.19H284.918V336.461H312.077V138.19Z" fill="url(#paint6_linear)"/>
<path d="M361.397 139.688H334.955V172.507H361.397V139.688Z" fill="#3E8EED"/>
<path d="M365.578 133.271H330.783V139.688H365.578V133.271Z" fill="#A7CBF6"/>
<path d="M375.086 321.49H320.808L329.121 166.642H366.773L375.086 321.49Z" fill="#A7CBF6"/>
<path d="M353.741 166.642H342.158V321.49H353.741V166.642Z" fill="#72ACF1"/>
<path d="M191.286 105.795H223.532L223.672 104.55H191.963C191.734 104.958 191.51 105.372 191.286 105.795Z" fill="#72ACF1"/>
<path d="M218.644 149.636L218.783 148.391H176.866C176.781 148.804 176.701 149.223 176.622 149.636H218.644Z" fill="#72ACF1"/>
<path d="M216.374 182.519C216.394 182.101 216.414 181.683 216.434 181.274H172.704C172.679 181.688 172.654 182.106 172.63 182.519H216.374Z" fill="#72ACF1"/>
<path d="M216.882 171.556C216.902 171.128 216.917 170.71 216.937 170.312H173.61C173.565 170.725 173.525 171.143 173.486 171.556H216.882Z" fill="#72ACF1"/>
<path d="M217.419 160.598L217.559 159.354H174.974C174.914 159.767 174.849 160.185 174.79 160.598H217.419Z" fill="#72ACF1"/>
<path d="M219.864 138.678L220.003 137.433H179.359C179.255 137.847 179.145 138.265 179.041 138.678H219.864Z" fill="#72ACF1"/>
<path d="M222.313 116.752L222.452 115.508H186.667C186.493 115.921 186.318 116.334 186.149 116.752H222.313Z" fill="#72ACF1"/>
<path d="M221.088 127.715L221.227 126.47H182.565C182.431 126.884 182.296 127.302 182.162 127.715H221.088Z" fill="#72ACF1"/>
<path d="M215.802 193.482C215.826 193.063 215.846 192.645 215.871 192.237H172.221C172.211 192.65 172.201 193.068 172.191 193.482H215.802Z" fill="#72ACF1"/>
<path d="M227.002 74.6985C225.916 74.8777 224.836 75.1117 223.766 75.4005V82.6194H209.724C209.211 83.0226 208.698 83.4359 208.191 83.864H223.761V93.5772H199.061C198.748 93.9854 198.434 94.4036 198.125 94.8218H223.761V103.704L227.002 74.6985Z" fill="#72ACF1"/>
<path d="M215.174 204.44C215.199 204.022 215.224 203.608 215.249 203.195H172.137C172.142 203.608 172.147 204.026 172.152 204.44H215.174Z" fill="#72ACF1"/>
<path d="M214.473 215.402C214.503 214.984 214.527 214.571 214.557 214.158H172.415C172.43 214.571 172.45 214.989 172.465 215.402H214.473Z" fill="#72ACF1"/>
<path d="M213.701 226.365C213.731 225.947 213.761 225.534 213.791 225.121H173.033C173.063 225.534 173.092 225.952 173.127 226.365H213.701Z" fill="#72ACF1"/>
<path d="M212.85 237.323C212.885 236.905 212.919 236.492 212.949 236.078H173.988C174.028 236.492 174.073 236.91 174.118 237.323H212.85Z" fill="#72ACF1"/>
<path d="M209.594 270.207C209.644 269.793 209.694 269.375 209.744 268.962H178.682C178.757 269.375 178.837 269.793 178.911 270.207H209.594Z" fill="#72ACF1"/>
<path d="M210.819 259.244C210.864 258.83 210.903 258.412 210.948 257.999H176.816C176.88 258.412 176.945 258.83 177.01 259.244H210.819Z" fill="#72ACF1"/>
<path d="M211.894 248.286C211.934 247.873 211.969 247.454 212.009 247.041H175.253C175.308 247.454 175.357 247.873 175.412 248.286H211.894Z" fill="#72ACF1"/>
<path d="M223.522 71.6963H233.264V299.187H196.174L223.522 71.6963Z" fill="#3E8EED"/>
<path d="M207.713 203.195L196.174 299.186H233.264V203.195H207.713Z" fill="#72ACF1"/>
<path d="M896 282.379C854.794 265.512 806.654 255.823 755.219 255.823C700.926 255.823 650.297 266.622 607.622 285.261C576.407 276.823 542.409 272.188 506.837 272.188C487.738 272.188 469.086 273.527 451.081 276.071C413.788 263.122 371.636 255.823 327.005 255.823C271.528 255.823 219.883 267.095 176.636 286.491C144.216 277.276 108.69 272.193 71.4311 272.193C46.7264 272.193 22.7833 274.428 0 278.62V410.607H896V282.379Z" fill="#2B88D8"/>
<path d="M896 290.13H0.0546875V497.856H896V290.13Z" fill="url(#paint7_radial)"/>
<path d="M557.277 407.963H123.026C120.895 407.963 119.163 406.236 119.163 404.1C119.163 401.969 120.89 400.236 123.026 400.236H557.282C559.413 400.236 561.145 401.964 561.145 404.1C561.14 406.231 559.413 407.963 557.277 407.963Z" fill="#33312D"/>
<path d="M540.821 357.211H496.538V386.356H540.821V357.211Z" fill="#33312D"/>
<path d="M293.116 350.505H231.044V390.418H293.116V350.505Z" fill="#33312D"/>
<path d="M516.564 363.23H506.564C495.856 363.23 487.18 373.217 487.18 385.529C487.18 397.846 495.861 407.828 506.564 407.828H516.564V363.23Z" fill="#33312D"/>
<path d="M515.922 407.828C526.627 407.828 535.305 397.845 535.305 385.529C535.305 373.214 526.627 363.23 515.922 363.23C505.216 363.23 496.538 373.214 496.538 385.529C496.538 397.845 505.216 407.828 515.922 407.828Z" fill="#737373"/>
<path d="M516.564 401.043C524.011 401.043 530.049 394.097 530.049 385.53C530.049 376.962 524.011 370.016 516.564 370.016C509.116 370.016 503.079 376.962 503.079 385.53C503.079 394.097 509.116 401.043 516.564 401.043Z" fill="white"/>
<path d="M516.798 389.831C518.862 389.831 520.536 387.905 520.536 385.53C520.536 383.154 518.862 381.228 516.798 381.228C514.733 381.228 513.059 383.154 513.059 385.53C513.059 387.905 514.733 389.831 516.798 389.831Z" fill="#C8C6C4"/>
<path d="M522.522 374.686C520.84 373.058 518.226 373.058 518.226 373.058C518.226 373.058 517.599 377.096 518.923 377.703C520.312 378.345 521.766 376.314 522.522 374.686Z" fill="#C8C6C4"/>
<path d="M510.023 394.859C511.287 396.831 513.831 397.428 513.831 397.428C513.831 397.428 515.369 393.645 514.224 392.748C513.015 391.807 511.133 393.45 510.023 394.859Z" fill="#C8C6C4"/>
<path d="M510.312 375.134C508.326 376.369 507.688 378.903 507.688 378.903C507.688 378.903 511.452 380.496 512.363 379.361C513.318 378.171 511.705 376.264 510.312 375.134Z" fill="#C8C6C4"/>
<path d="M523.369 394.78C525.33 393.5 525.907 390.951 525.907 390.951C525.907 390.951 522.109 389.442 521.223 390.597C520.292 391.812 521.955 393.684 523.369 394.78Z" fill="#C8C6C4"/>
<path d="M505.657 384.205C504.941 386.431 506.091 388.78 506.091 388.78C506.091 388.78 509.993 387.566 509.953 386.107C509.914 384.579 507.45 384.17 505.657 384.205Z" fill="#C8C6C4"/>
<path d="M527.604 384.18C527.883 381.855 526.31 379.774 526.31 379.774C526.31 379.774 522.711 381.711 523.025 383.135C523.353 384.624 525.852 384.559 527.604 384.18Z" fill="#C8C6C4"/>
<path d="M439.846 385.53C439.846 373.461 431.509 363.634 421.1 363.245V363.226H411.1C400.393 363.226 391.716 373.213 391.716 385.525C391.716 397.837 400.398 407.823 411.1 407.823H420.458H421.095V407.804C431.509 407.425 439.846 397.598 439.846 385.53Z" fill="#33312D"/>
<path d="M189.668 385.53C189.668 373.461 181.33 363.634 170.922 363.245V363.226H160.922C150.214 363.226 141.538 373.213 141.538 385.525C141.538 397.837 150.219 407.823 160.922 407.823H170.28H170.917V407.804C181.33 407.425 189.668 397.598 189.668 385.53Z" fill="#33312D"/>
<path d="M266.998 360.781H256.45C245.156 360.781 236.001 371.316 236.001 384.305C236.001 397.299 245.156 407.829 256.45 407.829H266.998V360.781Z" fill="#33312D"/>
<path d="M266.326 407.828C277.62 407.828 286.775 397.296 286.775 384.305C286.775 371.313 277.62 360.781 266.326 360.781C255.033 360.781 245.877 371.313 245.877 384.305C245.877 397.296 255.033 407.828 266.326 407.828Z" fill="#737373"/>
<path d="M266.998 400.669C274.855 400.669 281.225 393.343 281.225 384.305C281.225 375.267 274.855 367.94 266.998 367.94C259.141 367.94 252.772 375.267 252.772 384.305C252.772 393.343 259.141 400.669 266.998 400.669Z" fill="white"/>
<path d="M267.247 388.84C269.424 388.84 271.189 386.809 271.189 384.305C271.189 381.8 269.424 379.769 267.247 379.769C265.07 379.769 263.305 381.8 263.305 384.305C263.305 386.809 265.07 388.84 267.247 388.84Z" fill="#C8C6C4"/>
<path d="M273.285 372.864C271.508 371.151 268.755 371.151 268.755 371.151C268.755 371.151 268.093 375.413 269.492 376.05C270.955 376.727 272.489 374.582 273.285 372.864Z" fill="#C8C6C4"/>
<path d="M260.104 394.147C261.438 396.223 264.121 396.861 264.121 396.861C264.121 396.861 265.744 392.868 264.534 391.922C263.26 390.926 261.274 392.659 260.104 394.147Z" fill="#C8C6C4"/>
<path d="M260.407 373.342C258.312 374.646 257.64 377.32 257.64 377.32C257.64 377.32 261.607 378.997 262.573 377.803C263.578 376.543 261.876 374.532 260.407 373.342Z" fill="#C8C6C4"/>
<path d="M274.181 394.063C276.247 392.713 276.859 390.025 276.859 390.025C276.859 390.025 272.852 388.432 271.921 389.652C270.936 390.936 272.688 392.908 274.181 394.063Z" fill="#C8C6C4"/>
<path d="M255.494 382.911C254.738 385.261 255.952 387.735 255.952 387.735C255.952 387.735 260.069 386.45 260.029 384.917C259.984 383.304 257.386 382.871 255.494 382.911Z" fill="#C8C6C4"/>
<path d="M278.646 382.881C278.94 380.431 277.277 378.231 277.277 378.231C277.277 378.231 273.484 380.277 273.813 381.776C274.166 383.349 276.799 383.279 278.646 382.881Z" fill="#C8C6C4"/>
<path d="M264.947 358.038C255.579 358.038 246.206 364.406 241.796 378.624C237.385 392.843 235.733 393.157 225.259 393.157H125.589C123.892 393.157 122.414 391.997 122.01 390.349C120.741 385.161 118.332 373.835 119.158 365.431C120.258 354.18 121.761 351.7 127.979 350.172C163.256 341.504 209.002 340.289 209.002 340.289C209.002 340.289 241.278 315.87 281.225 315.87C321.171 315.87 433.888 313.833 463.65 316.591C493.412 319.35 526.604 342.191 526.604 342.191C526.604 342.191 551.836 345.233 558.452 349.664C562.19 352.168 560.931 371.878 560.931 377.917C560.931 383.956 559.552 386.366 553.489 386.366C547.426 386.366 538.884 386.366 538.884 386.366C538.884 386.366 538.332 360.791 513.761 360.791C491.232 360.791 490.689 390.638 490.689 390.638L290.852 390.424C290.852 390.414 291.957 358.038 264.947 358.038Z" fill="#33312D"/>
<path d="M196.219 355.464H225.583C227.843 355.464 229.386 357.754 228.53 359.85L227.081 363.405C226.593 364.605 225.429 365.386 224.134 365.386H195.562C193.571 365.386 192.068 363.579 192.431 361.623L193.088 358.068C193.367 356.559 194.681 355.464 196.219 355.464Z" fill="#E1DFDD"/>
<path d="M119.163 365.386H130.164C131.861 365.386 133.305 364.142 133.554 362.459L134.191 358.172C134.4 356.744 133.295 355.464 131.856 355.464H121.02C120.134 357.665 119.616 360.791 119.163 365.386Z" fill="#E1DFDD"/>
<path d="M227.773 373.666H119.183C119.696 380.128 121.114 386.67 122 390.289C122.413 391.977 123.927 393.157 125.659 393.157H225.264C226.12 393.157 226.917 393.157 227.659 393.142C228.978 392.151 229.948 390.647 229.948 389.194C229.948 387.68 230.59 381.372 231.029 377.28C231.233 375.348 229.719 373.666 227.773 373.666Z" fill="#605D5A"/>
<path d="M138.153 378.231H181.848C183.516 378.231 184.939 377.011 185.188 375.358L188.09 356.286C188.374 354.414 187.065 352.666 185.183 352.427C179.802 351.73 169.185 350.5 161.409 350.5C153.306 350.5 144.171 352.542 140.08 353.567C138.76 353.901 137.765 354.986 137.561 356.335L134.808 374.338C134.499 376.384 136.082 378.231 138.153 378.231Z" fill="white"/>
<path d="M140.966 372.371H180.549C181.38 372.371 182.077 371.759 182.192 370.937L183.765 359.367C183.899 358.372 183.127 357.485 182.122 357.485H142.937C142.13 357.485 141.439 358.068 141.304 358.864L139.333 370.435C139.159 371.445 139.94 372.371 140.966 372.371Z" fill="#B3AFAB"/>
<path d="M210.386 339.294H297.711C299.508 339.294 301.25 338.661 302.629 337.501L318.802 323.925C320.076 322.86 319.319 320.783 317.657 320.783H249.197C229.426 326.698 214.796 336.217 210.386 339.294Z" fill="#3E8EED"/>
<path d="M317.537 339.762H508.923C508.923 339.762 485.647 322.715 461.276 321.615C436.905 320.515 340.888 320.808 337.688 320.768C334.487 320.734 332.819 322.357 329.703 325.035C327.657 326.792 320.778 332.587 316.293 336.361C314.924 337.521 315.741 339.762 317.537 339.762Z" fill="#106EBE"/>
<path d="M545.539 365.864C543.538 365.864 541.921 367.482 541.921 369.484V386.356C544.957 386.356 549.711 386.356 553.494 386.356C559.557 386.356 560.936 383.946 560.936 377.907C560.936 375.458 561.145 370.753 561.14 365.859H545.539V365.864Z" fill="#737373"/>
<path d="M200.181 390.414H212.422C213.427 390.414 214.239 389.597 214.239 388.596V387.143C214.239 386.137 213.422 385.325 212.422 385.325H200.181C199.176 385.325 198.364 386.142 198.364 387.143V388.596C198.359 389.602 199.176 390.414 200.181 390.414Z" fill="#F7B548"/>
<path d="M132.812 385.321H120.89C121.284 387.267 121.677 388.97 122 390.289C122.01 390.334 122.03 390.374 122.045 390.419H132.817C133.823 390.419 134.634 389.602 134.634 388.601V387.148C134.629 386.137 133.813 385.321 132.812 385.321Z" fill="#F7B548"/>
<path d="M758.275 464.012H566.237C559.706 464.012 554.41 463.036 554.41 458.68V452.188C554.41 449.424 559.706 446.855 566.237 446.855H758.275C764.806 446.855 770.102 448.902 770.102 455.439V458.685C770.102 461.766 764.811 464.012 758.275 464.012Z" fill="url(#paint8_radial)"/>
<path d="M236.001 354.15H557.78C557.78 354.15 540.213 343.824 507.186 343.272C474.153 342.714 349.873 343.55 307.363 343.272C264.853 342.993 246.41 343.267 236.001 354.15Z" fill="url(#paint9_linear)"/>
<path d="M365.852 348.509H353.835C352.79 348.509 351.944 347.663 351.944 346.617C351.944 345.572 352.79 344.725 353.835 344.725H365.852C366.897 344.725 367.743 345.572 367.743 346.617C367.743 347.663 366.897 348.509 365.852 348.509Z" fill="#33312D"/>
<path d="M492.586 348.509H480.57C479.524 348.509 478.678 347.663 478.678 346.617C478.678 345.572 479.524 344.725 480.57 344.725H492.586C493.631 344.725 494.477 345.572 494.477 346.617C494.477 347.663 493.631 348.509 492.586 348.509Z" fill="#33312D"/>
<path d="M554.415 355.723V365.093C554.415 366.895 555.874 368.353 557.675 368.353H561.125C561.195 362.653 561.06 356.181 560.015 352.462H557.675C555.874 352.462 554.415 353.921 554.415 355.723Z" fill="#E86E58"/>
<path d="M205.159 355.464H196.219C194.686 355.464 193.367 356.559 193.088 358.068L192.431 361.623C192.068 363.579 193.571 365.386 195.562 365.386H203.029L205.159 355.464Z" fill="#B3AFAB"/>
<path d="M131.856 355.464H126.52L124.808 365.386H130.169C131.866 365.386 133.31 364.142 133.559 362.459L134.196 358.172C134.4 356.749 133.295 355.464 131.856 355.464Z" fill="#B3AFAB"/>
<path d="M227.773 373.666H223.452L221.048 393.157H225.259C226.116 393.157 226.912 393.157 227.654 393.142C228.973 392.151 229.944 390.647 229.944 389.194C229.944 387.68 230.586 381.372 231.024 377.28C231.233 375.348 229.72 373.666 227.773 373.666Z" fill="#737373"/>
<path d="M676.609 444.013L651.178 444.137C651.178 444.137 645.269 448.145 643.696 451.033C642.497 453.243 642.576 458.202 642.686 460.412C642.716 461.03 643.219 461.513 643.831 461.508L668.356 461.463C669.143 461.463 669.78 460.816 669.77 460.019C669.745 457.281 670.208 451.441 671.233 449.773C672.762 447.289 676.609 444.013 676.609 444.013Z" fill="#D0C5F3"/>
<path d="M684.32 414.375C689.009 430.904 687.093 457.111 686.894 458.495C686.625 460.417 686.366 461.761 683.658 461.761C680.288 461.761 665.828 461.761 665.828 461.761L673.424 415.441L684.32 414.375Z" fill="#8065E0"/>
<path d="M669.367 416.93C668.232 425.04 660.218 436.441 645.03 448.369C643.253 449.763 642.342 451.237 642.342 453.308V459.949C642.342 460.93 643.129 461.727 644.104 461.727H668.486C669.173 461.727 669.73 461.164 669.73 460.472V452.81C669.73 450.42 670.208 449.196 672.632 447.438C678.71 443.037 682.548 428.201 682.672 417.646C682.797 407.092 669.367 416.93 669.367 416.93Z" fill="#A08BE8"/>
<path d="M642.571 451.675C642.422 452.178 642.343 452.715 642.343 453.308V459.949C642.343 460.93 643.129 461.727 644.105 461.727H668.486C669.173 461.727 669.73 461.164 669.73 460.472V452.81C669.73 452.402 669.745 452.028 669.78 451.68H642.571V451.675Z" fill="#D0C5F3"/>
<path d="M706.735 444.013L681.303 444.137C681.303 444.137 675.395 448.145 673.822 451.033C672.622 453.243 672.702 458.202 672.811 460.412C672.841 461.03 673.344 461.513 673.956 461.508L698.482 461.463C699.268 461.463 699.905 460.816 699.895 460.019C699.871 457.281 700.333 451.441 701.359 449.773C702.887 447.289 706.735 444.013 706.735 444.013Z" fill="#D0C5F3"/>
<path d="M714.446 414.375C719.135 430.904 717.218 457.111 717.019 458.495C716.75 460.417 716.491 461.761 713.784 461.761C710.414 461.761 695.953 461.761 695.953 461.761L703.549 415.441L714.446 414.375Z" fill="#8065E0"/>
<path d="M699.492 416.93C698.357 425.04 690.343 436.441 675.156 448.369C673.379 449.763 672.468 451.237 672.468 453.308V459.949C672.468 460.93 673.254 461.727 674.23 461.727H698.611C699.298 461.727 699.855 461.164 699.855 460.472V452.81C699.855 450.42 700.333 449.196 702.758 447.438C708.835 443.037 712.673 428.201 712.798 417.646C712.922 407.092 699.492 416.93 699.492 416.93Z" fill="#A08BE8"/>
<path d="M672.697 451.675C672.548 452.178 672.468 452.715 672.468 453.308V459.949C672.468 460.93 673.254 461.727 674.23 461.727H698.611C699.298 461.727 699.856 461.164 699.856 460.472V452.81C699.856 452.402 699.871 452.028 699.905 451.68H672.697V451.675Z" fill="#D0C5F3"/>
<path d="M669.915 363.629L669.955 399.833L682.837 399.818L682.797 363.614L669.915 363.629Z" fill="url(#paint10_linear)"/>
<path d="M682.777 383.847H669.885V385.544H682.777V383.847Z" fill="#A08BE8"/>
<path d="M683.454 399.355H670.273C668.356 399.355 666.803 400.908 666.803 402.825V416.65C666.803 418.567 668.356 420.121 670.273 420.121H683.454C685.37 420.121 686.923 418.567 686.923 416.65V402.825C686.923 400.908 685.37 399.355 683.454 399.355Z" fill="url(#paint11_radial)"/>
<path d="M700.542 363.629L700.582 399.833L713.465 399.818L713.425 363.614L700.542 363.629Z" fill="url(#paint12_linear)"/>
<path d="M713.405 383.847H700.513V385.545H713.405V383.847Z" fill="#A08BE8"/>
<path d="M714.082 399.355H700.901C698.985 399.355 697.432 400.908 697.432 402.825V416.65C697.432 418.567 698.985 420.121 700.901 420.121H714.082C715.999 420.121 717.552 418.567 717.552 416.65V402.825C717.552 400.908 715.999 399.355 714.082 399.355Z" fill="url(#paint13_radial)"/>
<path d="M620.276 372.401C620.087 372.192 615.597 367.164 611.216 361.11C604.307 351.556 601.639 345.079 602.57 340.105C604.267 331.034 620.54 322.929 645.03 318.946L646.887 330.591C624.258 334.27 615.746 340.439 614.123 342.46C614.333 343.506 615.423 347.02 621.062 354.717C624.94 360.009 628.902 364.445 628.942 364.49L620.276 372.401Z" fill="url(#paint14_linear)"/>
<path d="M652.502 364.506L632.86 359.786C630.002 359.099 627.13 360.881 626.453 363.769L626.115 365.193C625.433 368.08 627.2 370.973 630.062 371.66L649.705 376.38C652.562 377.067 655.434 375.284 656.111 372.397L656.449 370.973C657.126 368.09 655.359 365.193 652.502 364.506Z" fill="#D0C5F3"/>
<path d="M617.458 376.832L617.936 389.543C618.086 392.928 620.928 395.552 624.283 395.397C627.638 395.248 630.236 392.38 630.087 388.995L629.599 375.961L617.458 376.832Z" fill="#D0C5F3"/>
<path d="M622.73 381.189L630.515 396.871C632.034 399.893 635.687 401.108 638.684 399.579C641.68 398.051 642.88 394.357 641.367 391.335L635.613 379.655L622.73 381.189Z" fill="#D0C5F3"/>
<path d="M628.33 376.26L639.45 389.762C641.591 392.37 645.424 392.734 648.012 390.573C650.601 388.413 650.959 384.544 648.819 381.93L637.494 368.18L628.33 376.26Z" fill="#D0C5F3"/>
<path d="M628.898 385.141C635.927 385.141 641.626 379.391 641.626 372.297C641.626 365.203 635.927 359.452 628.898 359.452C621.868 359.452 616.169 365.203 616.169 372.297C616.169 379.391 621.868 385.141 628.898 385.141Z" fill="url(#paint15_radial)"/>
<path d="M614.123 342.465C614.352 342.181 614.721 341.813 615.243 341.385L604.571 335.729C603.531 337.153 602.849 338.617 602.57 340.11C602.316 341.469 602.331 342.943 602.63 344.561L614.392 343.426C614.248 342.993 614.168 342.674 614.123 342.465Z" fill="#A08BE8"/>
<path d="M617.16 326.718L623.507 336.775C623.994 336.571 624.507 336.366 625.035 336.162L618.658 326.061C618.15 326.275 617.653 326.499 617.16 326.718Z" fill="#A08BE8"/>
<path d="M621.063 354.722C619.624 352.761 618.484 351.073 617.578 349.624L607.742 356.007C608.753 357.605 609.907 359.303 611.217 361.115C611.291 361.219 611.371 361.324 611.446 361.428L621.297 355.036C621.217 354.931 621.142 354.827 621.063 354.722Z" fill="#512BD4"/>
<path d="M621.024 358.68C623.76 356.317 624.131 352.262 621.853 349.623C619.575 346.984 615.51 346.76 612.774 349.123C610.038 351.486 609.666 355.541 611.944 358.18C614.222 360.819 618.287 361.042 621.024 358.68Z" fill="#33312D"/>
<path d="M632.929 327.952C626.712 311.732 627.977 298.066 627.977 298.066L624.079 298.519L623.974 298.454C626.065 267.129 650.048 240.793 682.06 237.084C718.124 232.902 750.719 259.019 754.86 295.423C759.002 331.826 733.122 364.719 697.058 368.901C668.6 372.202 642.308 356.629 630.445 332.035C630.062 330.964 629.863 329.008 632.929 327.952Z" fill="url(#paint16_radial)"/>
<path d="M630.794 332.752C630.794 332.752 628.584 329.451 632.929 327.948C626.787 311.927 627.947 298.405 627.977 298.076L695.724 290.225C695.724 290.225 699.945 289.294 700.393 293.227C700.841 297.16 701.946 308.297 703.345 320.594C703.634 323.123 701.717 324.582 700.105 324.766L630.53 332.832C630.699 332.782 630.794 332.752 630.794 332.752Z" fill="url(#paint17_radial)"/>
<path d="M665.449 324.129C665.449 324.129 658.346 319.683 656.967 318.867C655.588 318.05 654.468 318.13 653.418 319.28C652.368 320.43 646.434 326.335 646.434 326.335L665.449 324.129Z" fill="#A08BE8"/>
<path d="M630.794 332.752C630.794 332.752 628.584 329.451 632.929 327.948C632.924 327.933 632.919 327.913 632.909 327.898L699.532 320.176C701.08 319.997 702.972 318.832 702.972 317.293C703.091 318.379 703.216 319.479 703.345 320.589C703.604 322.884 702.056 324.293 700.562 324.672C700.413 324.707 700.264 324.741 700.109 324.761L695.555 325.289L630.535 332.827C630.699 332.782 630.794 332.752 630.794 332.752Z" fill="url(#paint18_radial)"/>
<path d="M637.056 342.888L749.663 329.834C747.627 334.46 745.079 338.821 742.082 342.843L647.36 353.826C643.537 350.595 640.073 346.931 637.056 342.888Z" fill="url(#paint19_radial)"/>
<path d="M682.373 315.797C685.199 315.521 687.11 311.41 686.641 306.616C686.172 301.822 683.5 298.159 680.674 298.436C677.848 298.713 675.937 302.823 676.406 307.618C676.875 312.412 679.547 316.074 682.373 315.797Z" fill="#512BD4"/>
<path d="M641.535 320.537C644.352 320.177 646.142 316.012 645.533 311.233C644.924 306.455 642.146 302.872 639.329 303.231C636.512 303.591 634.722 307.756 635.331 312.535C635.94 317.313 638.718 320.896 641.535 320.537Z" fill="#512BD4"/>
<path d="M681.109 302.761C679.945 301.83 678.486 301.531 677.137 301.81C676.51 303.413 676.231 305.445 676.445 307.62C676.58 308.974 676.893 310.234 677.336 311.344C679.004 311.623 680.761 311.006 681.886 309.577C683.539 307.481 683.19 304.429 681.109 302.761Z" fill="#8065E0"/>
<path d="M639.968 307.247C638.803 306.316 637.345 306.012 635.991 306.296C635.299 307.969 635.02 310.164 635.324 312.509C635.478 313.704 635.767 314.824 636.16 315.83C637.833 316.119 639.61 315.501 640.74 314.062C642.392 311.966 642.049 308.91 639.968 307.247Z" fill="#8065E0"/>
<path d="M692.364 297.12L662 300.64C660.501 300.815 659.277 301.77 658.655 303.07C657.938 302.761 657.166 302.507 656.385 302.333C654.01 301.805 650.6 301.765 647.166 304.17C646.265 303.179 644.946 302.617 643.547 302.781L613.183 306.301C610.833 306.575 609.151 308.765 609.424 311.2L610.435 320.082C610.714 322.516 612.844 324.269 615.194 323.995L645.558 320.475C647.908 320.201 649.59 318.01 649.316 315.576L648.316 306.794C650.287 305.275 652.482 304.648 654.861 304.927C656.28 305.091 657.455 305.544 658.296 305.992L659.257 314.426C659.536 316.86 661.666 318.613 664.016 318.339L694.38 314.819C696.73 314.545 698.412 312.355 698.138 309.92L697.128 301.039C696.844 298.599 694.714 296.847 692.364 297.12Z" fill="#33312D"/>
<path d="M743.749 387.431L732.276 382.518C732.31 382.438 736.153 373.068 737.179 360.373C738.508 343.894 734.7 329.755 725.854 318.339L735.675 310.587C746.442 324.483 751.246 342.206 749.568 361.832C748.319 376.434 743.939 386.988 743.749 387.431Z" fill="url(#paint20_linear)"/>
<path d="M729.548 326.32C736.399 326.32 741.953 320.716 741.953 313.803C741.953 306.891 736.399 301.287 729.548 301.287C722.697 301.287 717.143 306.891 717.143 313.803C717.143 320.716 722.697 326.32 729.548 326.32Z" fill="url(#paint21_radial)"/>
<path d="M715.361 387.048L731.584 374.91C733.943 373.143 737.278 373.646 739.026 376.025L739.892 377.2C741.644 379.585 741.146 382.946 738.787 384.713L722.564 396.851C720.204 398.618 716.869 398.115 715.122 395.735L714.256 394.561C712.504 392.176 713.002 388.815 715.361 387.048Z" fill="#D0C5F3"/>
<path d="M752.381 384.464L756.896 396.338C758.075 399.509 756.487 403.049 753.341 404.244C750.2 405.439 746.691 403.831 745.511 400.659L740.882 388.482L752.381 384.464Z" fill="#D0C5F3"/>
<path d="M749.235 390.562L748.189 408.072C747.975 411.453 745.083 414.021 741.733 413.802C738.383 413.583 735.84 410.666 736.054 407.285L736.79 394.267L749.235 390.562Z" fill="#D0C5F3"/>
<path d="M742.167 388.258L737.204 405.085C736.253 408.336 732.868 410.193 729.647 409.232C726.427 408.272 724.59 404.856 725.541 401.61L730.593 384.474L742.167 388.258Z" fill="#D0C5F3"/>
<path d="M740.096 397.682C747.125 397.682 752.824 391.931 752.824 384.837C752.824 377.743 747.125 371.993 740.096 371.993C733.066 371.993 727.368 377.743 727.368 384.837C727.368 391.931 733.066 397.682 740.096 397.682Z" fill="url(#paint22_radial)"/>
<path d="M748.926 341.758L737.059 346.791C737.124 347.399 737.179 348.011 737.228 348.628L749.857 351.894C749.758 348.434 749.449 345.054 748.926 341.758Z" fill="#A08BE8"/>
<path d="M745.845 329.391L734.376 334.285C734.54 334.778 734.7 335.276 734.854 335.779L746.348 330.875C746.183 330.377 746.014 329.884 745.845 329.391Z" fill="#A08BE8"/>
<path d="M749.499 362.608L737.144 360.816C737.099 361.339 737.05 361.861 736.995 362.374L749.34 364.167C749.394 363.649 749.449 363.131 749.499 362.608Z" fill="#A08BE8"/>
<path d="M652.487 356.694L673.563 354.249L671.423 335.44L650.347 337.88L652.487 356.694Z" fill="#512BD4"/>
<path d="M654.677 349.56C654.518 349.58 654.374 349.54 654.249 349.445C654.125 349.351 654.055 349.226 654.035 349.072C654.015 348.918 654.055 348.778 654.155 348.654C654.254 348.529 654.384 348.459 654.543 348.44C654.707 348.42 654.847 348.459 654.976 348.554C655.105 348.649 655.175 348.778 655.195 348.932C655.215 349.082 655.17 349.221 655.071 349.346C654.971 349.47 654.842 349.54 654.677 349.56Z" fill="white"/>
<path d="M661.054 348.708L660.014 348.833L656.768 344.805C656.688 344.705 656.614 344.596 656.554 344.481L656.529 344.486C656.564 344.611 656.609 344.88 656.659 345.298L657.112 349.181L656.191 349.291L655.499 343.366L656.604 343.237L659.745 347.175C659.879 347.339 659.964 347.449 660.004 347.513H660.019C659.974 347.359 659.929 347.095 659.884 346.722L659.436 342.903L660.352 342.794L661.054 348.708Z" fill="white"/>
<path d="M665.529 348.176L662.313 348.559L661.621 342.635L664.708 342.266L664.807 343.103L662.672 343.356L662.866 345.034L664.837 344.8L664.937 345.632L662.965 345.866L663.169 347.618L665.434 347.349L665.529 348.176Z" fill="white"/>
<path d="M669.501 342.54L667.854 342.734L668.451 347.827L667.5 347.942L666.903 342.848L665.26 343.043L665.161 342.206L669.397 341.703L669.501 342.54Z" fill="white"/>
<path d="M682.493 304.558C681.975 304.558 681.503 304.21 681.363 303.682C681.199 303.055 681.572 302.407 682.194 302.238L710.568 294.666C715.64 293.351 719.289 296.956 719.443 297.11C719.901 297.568 719.901 298.315 719.443 298.778C718.985 299.241 718.248 299.241 717.791 298.778C717.676 298.669 714.908 295.97 711.16 296.946L682.797 304.513C682.692 304.543 682.593 304.558 682.493 304.558Z" fill="#33312D"/>
<path d="M745.81 314.829C745.666 314.829 745.522 314.819 745.377 314.799C743.745 314.56 742.615 313.047 742.848 311.414C743.217 308.87 743.406 306.266 743.406 303.677C743.406 288.388 736.84 273.796 725.391 263.645C724.157 262.549 724.043 260.662 725.138 259.428C726.233 258.193 728.119 258.079 729.354 259.174C742.082 270.46 749.379 286.68 749.379 303.677C749.379 306.555 749.17 309.447 748.762 312.27C748.548 313.754 747.274 314.829 745.81 314.829Z" fill="url(#paint23_linear)"/>
<path d="M703.509 238.139C684.016 239.752 644.334 258.417 638.495 265.721C632.646 272.153 634.926 273.711 638.778 273.517C654.568 272.74 673.727 269.31 682.926 266.851C694.37 263.794 705.58 251.845 705.58 251.845C705.58 251.845 719.961 250.108 732.4 252.677C724.207 245.572 714.301 240.504 703.509 238.139Z" fill="#8065E0"/>
<path d="M642.78 253.578C629.948 265.004 627.18 269.634 635.548 268.663C650.541 266.925 654.618 266.532 665.768 265.158C691.473 261.996 700.931 248.529 701.065 245.567C701.185 242.914 642.78 253.578 642.78 253.578Z" fill="#33312D"/>
<path d="M719.622 233.405L641.516 242.461L642.78 253.578L720.887 244.522L719.622 233.405Z" fill="#F7B548"/>
<path d="M642.133 246.513C624.865 236.885 616.607 220.968 646.315 217.02C689.781 211.245 710.996 219.684 720.09 225.106C726.517 228.934 725.755 236.228 720.205 237.169C714.655 238.11 642.133 246.513 642.133 246.513Z" fill="#33312D"/>
<path d="M724.64 232.07C724.66 229.686 723.241 226.982 720.095 225.105C711.001 219.679 689.781 211.245 646.32 217.02C626.005 219.718 623.447 228.013 629.38 236.068C630.231 220.729 678.391 216.308 724.64 232.07Z" fill="url(#paint24_linear)"/>
<path d="M485.353 381.795H294.943V385.022H485.353V381.795Z" fill="#605D5A"/>
<path d="M758.129 50.3972L749.878 58.6489L758.129 66.9006L766.379 58.6489L758.129 50.3972Z" fill="#A7CBF6"/>
<path d="M713.438 43.681L708.388 48.7327L713.438 53.7843L718.489 48.7326L713.438 43.681Z" fill="#A7CBF6"/>
<path d="M676.854 118.405L671.803 123.456L676.854 128.508L681.905 123.456L676.854 118.405Z" fill="#A7CBF6"/>
<path d="M484.474 48.8919L476.224 57.1436L484.474 65.3952L492.725 57.1436L484.474 48.8919Z" fill="#A7CBF6"/>
<path d="M496.534 84.1602L491.483 89.2119L496.534 94.2636L501.585 89.2119L496.534 84.1602Z" fill="#A7CBF6"/>
<path d="M386.659 66.6495L381.609 71.7012L386.659 76.7529L391.71 71.7012L386.659 66.6495Z" fill="#A7CBF6"/>
<path d="M554.408 154.926L549.357 159.977L554.408 165.029L559.458 159.977L554.408 154.926Z" fill="#A7CBF6"/>
<path d="M45.2439 82.9546L53.4943 74.7029L45.2439 66.4512L36.9936 74.7029L45.2439 82.9546Z" fill="#A7CBF6"/>
<path d="M82.2325 42.758L87.2834 37.7063L82.2325 32.6546L77.1816 37.7063L82.2325 42.758Z" fill="#A7CBF6"/>
<path d="M173.64 69.0583L178.691 64.0066L173.64 58.9549L168.589 64.0066L173.64 69.0583Z" fill="#A7CBF6"/>
<path d="M487.961 328.216C480.112 324.896 470.778 322.048 461.281 321.62C436.909 320.52 340.893 320.813 337.692 320.774C334.492 320.734 332.824 322.362 329.708 325.04C328.971 325.672 327.612 326.822 325.965 328.216H487.961Z" fill="#3E8EED"/>
<path d="M376.564 318.847H367.012V341.32H376.564V318.847Z" fill="#33312D"/>
<path d="M372.164 331.393H372.144C371.034 331.393 370.133 330.492 370.133 329.381V327.051C370.133 325.941 371.034 325.04 372.144 325.04H372.164C373.274 325.04 374.175 325.941 374.175 327.051V329.381C374.175 330.492 373.274 331.393 372.164 331.393Z" fill="#605D5A"/>
<path d="M448.981 318.847H439.428V341.32H448.981V318.847Z" fill="#33312D"/>
<path d="M444.575 331.393C443.46 331.393 442.554 330.487 442.554 329.371V327.061C442.554 325.946 443.46 325.04 444.575 325.04C445.69 325.04 446.596 325.946 446.596 327.061V329.371C446.596 330.487 445.69 331.393 444.575 331.393Z" fill="#605D5A"/>
<defs>
<linearGradient id="paint0_linear" x1="448" y1="361.07" x2="448" y2="0" gradientUnits="userSpaceOnUse">
<stop offset="0.2579" stop-color="#A7CBF6"/>
<stop offset="0.4902" stop-color="#72ACF1"/>
</linearGradient>
<radialGradient id="paint1_radial" cx="0" cy="0" r="1" gradientUnits="userSpaceOnUse" gradientTransform="translate(861.529 7.76538) scale(206.916 206.948)">
<stop stop-color="#A7CBF6"/>
<stop offset="0.9731" stop-color="#72ACF1"/>
</radialGradient>
<linearGradient id="paint2_linear" x1="273.717" y1="254.626" x2="223.766" y2="254.626" gradientUnits="userSpaceOnUse">
<stop stop-color="#72ACF1"/>
<stop offset="0.4649" stop-color="#A7CBF6"/>
</linearGradient>
<linearGradient id="paint3_linear" x1="149.359" y1="284.303" x2="149.359" y2="86.0297" gradientUnits="userSpaceOnUse">
<stop stop-color="#72ACF1"/>
<stop offset="0.511" stop-color="#A4C9F6"/>
</linearGradient>
<linearGradient id="paint4_linear" x1="199.562" y1="319.209" x2="199.562" y2="74.7004" gradientUnits="userSpaceOnUse">
<stop stop-color="#72ACF1"/>
<stop offset="0.4799" stop-color="#A7CBF6"/>
</linearGradient>
<linearGradient id="paint5_linear" x1="419.479" y1="288.857" x2="419.479" y2="167.096" gradientUnits="userSpaceOnUse">
<stop stop-color="#72ACF1"/>
<stop offset="0.5963" stop-color="#A7CBF6"/>
</linearGradient>
<linearGradient id="paint6_linear" x1="298.497" y1="336.461" x2="298.497" y2="138.188" gradientUnits="userSpaceOnUse">
<stop offset="0.199" stop-color="#72ACF1"/>
<stop offset="0.864" stop-color="#A7CBF6"/>
</linearGradient>
<radialGradient id="paint7_radial" cx="0" cy="0" r="1" gradientUnits="userSpaceOnUse" gradientTransform="translate(332.317 315.815) scale(325.164 325.214)">
<stop offset="0.2427" stop-color="#797673"/>
<stop offset="0.6972" stop-color="#605D5A"/>
</radialGradient>
<radialGradient id="paint8_radial" cx="0" cy="0" r="1" gradientUnits="userSpaceOnUse" gradientTransform="translate(662.264 455.428) scale(76.6211 62.4914)">
<stop offset="0.352" stop-color="#33312D"/>
<stop offset="1" stop-color="#605D5A"/>
</radialGradient>
<linearGradient id="paint9_linear" x1="396.889" y1="354.149" x2="396.889" y2="343.074" gradientUnits="userSpaceOnUse">
<stop offset="0.0508" stop-color="#33312D"/>
<stop offset="0.0645" stop-color="#33312D"/>
<stop offset="0.8717" stop-color="#605D5A"/>
</linearGradient>
<linearGradient id="paint10_linear" x1="676.377" y1="363.614" x2="676.377" y2="399.833" gradientUnits="userSpaceOnUse">
<stop offset="0.2368" stop-color="#958FE7"/>
<stop offset="0.4881" stop-color="#BBB7EF"/>
</linearGradient>
<radialGradient id="paint11_radial" cx="0" cy="0" r="1" gradientUnits="userSpaceOnUse" gradientTransform="translate(677.634 401.741) scale(18.8089 18.8118)">
<stop stop-color="#8065E0"/>
<stop offset="1" stop-color="#512BD4"/>
</radialGradient>
<linearGradient id="paint12_linear" x1="707.004" y1="363.614" x2="707.004" y2="399.833" gradientUnits="userSpaceOnUse">
<stop offset="0.2368" stop-color="#958FE7"/>
<stop offset="0.4881" stop-color="#BBB7EF"/>
</linearGradient>
<radialGradient id="paint13_radial" cx="0" cy="0" r="1" gradientUnits="userSpaceOnUse" gradientTransform="translate(708.058 400.44) scale(21.6033 21.6066)">
<stop stop-color="#8065E0"/>
<stop offset="1" stop-color="#512BD4"/>
</radialGradient>
<linearGradient id="paint14_linear" x1="646.399" y1="320.319" x2="607.294" y2="359.419" gradientUnits="userSpaceOnUse">
<stop offset="0.1765" stop-color="#958FE7"/>
<stop offset="0.4534" stop-color="#BBB7EF"/>
</linearGradient>
<radialGradient id="paint15_radial" cx="0" cy="0" r="1" gradientUnits="userSpaceOnUse" gradientTransform="translate(627.912 367.689) scale(23.8684 23.8722)">
<stop stop-color="#A08BE8"/>
<stop offset="0.792" stop-color="#8065E0"/>
</radialGradient>
<radialGradient id="paint16_radial" cx="0" cy="0" r="1" gradientUnits="userSpaceOnUse" gradientTransform="translate(667.542 290.937) scale(97.7881 97.8035)">
<stop offset="0.3472" stop-color="#A08BE8"/>
<stop offset="0.684" stop-color="#8065E0"/>
<stop offset="0.8157" stop-color="#8065E0"/>
</radialGradient>
<radialGradient id="paint17_radial" cx="0" cy="0" r="1" gradientUnits="userSpaceOnUse" gradientTransform="translate(680.042 299.15) scale(51.5327 51.5408)">
<stop offset="0.0933" stop-color="#E1DFDD"/>
<stop offset="0.6573" stop-color="white"/>
</radialGradient>
<radialGradient id="paint18_radial" cx="0" cy="0" r="1" gradientUnits="userSpaceOnUse" gradientTransform="translate(679.921 324.795) scale(40.2172 40.2236)">
<stop offset="0.1574" stop-color="#512BD4"/>
<stop offset="0.9968" stop-color="#8065E0"/>
</radialGradient>
<radialGradient id="paint19_radial" cx="0" cy="0" r="1" gradientUnits="userSpaceOnUse" gradientTransform="translate(729.442 340.924) scale(40.7054 40.7118)">
<stop offset="0.4614" stop-color="#A08BE8"/>
<stop offset="0.5268" stop-color="#A793EA"/>
<stop offset="0.8352" stop-color="#C5B7F0"/>
<stop offset="1" stop-color="#D0C5F3"/>
</radialGradient>
<linearGradient id="paint20_linear" x1="719.091" y1="320.167" x2="754.387" y2="381.291" gradientUnits="userSpaceOnUse">
<stop offset="0.1765" stop-color="#958FE7"/>
<stop offset="0.3186" stop-color="#BBB7EF"/>
</linearGradient>
<radialGradient id="paint21_radial" cx="0" cy="0" r="1" gradientUnits="userSpaceOnUse" gradientTransform="translate(730.969 310.025) scale(15.7987 15.8012)">
<stop stop-color="#8065E0"/>
<stop offset="1" stop-color="#512BD4"/>
</radialGradient>
<radialGradient id="paint22_radial" cx="0" cy="0" r="1" gradientUnits="userSpaceOnUse" gradientTransform="translate(739.382 380.897) scale(25.6091 25.6131)">
<stop stop-color="#A08BE8"/>
<stop offset="0.792" stop-color="#8065E0"/>
<stop offset="1" stop-color="#8065E0"/>
</radialGradient>
<linearGradient id="paint23_linear" x1="736.883" y1="314.828" x2="736.883" y2="258.418" gradientUnits="userSpaceOnUse">
<stop stop-color="#8065E0"/>
<stop offset="1" stop-color="#A08BE8"/>
</linearGradient>
<linearGradient id="paint24_linear" x1="724.638" y1="225.573" x2="626.577" y2="225.573" gradientUnits="userSpaceOnUse">
<stop offset="0.0508" stop-color="#33312D"/>
<stop offset="0.0645" stop-color="#33312D"/>
<stop offset="0.8717" stop-color="#605D5A"/>
</linearGradient>
</defs>
</svg>
