<svg width="897" height="642" viewBox="0 0 897 642" fill="none" xmlns="http://www.w3.org/2000/svg">
<path d="M897 0H0V640.507H897V0Z" fill="#2B579A"/>
<path d="M894.449 428.588L0.973633 482.678V603.799H894.449V428.588Z" fill="#106EBE"/>
<path d="M418.872 422.966C429.588 422.966 438.276 414.277 438.276 403.558C438.276 392.839 429.588 384.15 418.872 384.15C408.156 384.15 399.469 392.839 399.469 403.558C399.469 414.277 408.156 422.966 418.872 422.966Z" fill="#9078E4"/>
<path d="M622.32 509.784L314.383 522.693L0 535.454V642H897V481.877L644.851 489.389L622.32 509.784Z" fill="#E0BB95"/>
<path d="M206.011 217.252V183.525C206.011 183.089 206.364 182.736 206.8 182.736H291.02C291.456 182.736 291.808 183.089 291.808 183.525V217.252H297.575V183.525C297.575 179.91 294.634 176.968 291.02 176.968H206.8C203.185 176.968 200.244 179.91 200.244 183.525V217.252H206.011Z" fill="#A08BE8"/>
<path d="M263.094 163.11H234.931V183.384H234.963C234.963 183.435 234.956 183.48 234.956 183.531C234.956 191.299 241.255 197.6 249.022 197.6C256.788 197.6 263.087 191.299 263.087 183.531C263.087 183.48 263.087 183.435 263.081 183.384H263.087V163.11H263.094Z" fill="#D0C5F3"/>
<path d="M279.554 146.176L336.905 146.176L336.905 138.786L279.554 138.786L279.554 146.176Z" fill="#A08BE8"/>
<path d="M339.291 138.784L343.584 138.784L343.584 119.703L339.291 119.703L339.291 138.784Z" fill="#D0C5F3"/>
<path d="M351.211 136.607V152.618C351.211 158.149 346.726 162.636 341.195 162.636C335.665 162.636 331.18 158.149 331.18 152.618V136.607C331.18 136.229 331.487 135.921 331.865 135.921H350.525C350.904 135.921 351.211 136.229 351.211 136.607Z" fill="#D0C5F3"/>
<path d="M293.257 124.749C297.64 123.999 306.464 122.717 315.883 122.717C324.412 122.717 335.274 123.538 342.009 124.134C348.744 123.538 359.605 122.717 368.134 122.717C377.554 122.717 386.378 123.993 390.761 124.749C391.421 124.864 391.395 125.589 390.729 125.678C385.743 126.313 375.324 127.492 366.942 127.492C359.586 127.492 348.788 126.358 342.009 125.544C335.229 126.358 324.432 127.492 317.075 127.492C308.694 127.492 298.274 126.313 293.289 125.678C292.629 125.589 292.597 124.858 293.257 124.749Z" fill="#A08BE8"/>
<path d="M218.872 138.786H161.521V146.176H218.872V138.786Z" fill="#A08BE8"/>
<path d="M159.137 119.705H154.844V138.786H159.137V119.705Z" fill="#D0C5F3"/>
<path d="M147.212 136.607V152.618C147.212 158.149 151.698 162.636 157.228 162.636C162.758 162.636 167.243 158.149 167.243 152.618V136.607C167.243 136.229 166.936 135.921 166.558 135.921H147.898C147.52 135.921 147.212 136.229 147.212 136.607Z" fill="#D0C5F3"/>
<path d="M205.166 124.749C200.783 123.999 191.959 122.717 182.539 122.717C174.01 122.717 163.148 123.538 156.413 124.134C149.679 123.538 138.817 122.717 130.288 122.717C120.868 122.717 112.044 123.993 107.661 124.749C107.001 124.865 107.027 125.589 107.693 125.679C112.679 126.313 123.098 127.492 131.48 127.492C138.836 127.492 149.634 126.358 156.413 125.544C163.193 126.358 173.991 127.492 181.347 127.492C189.729 127.492 200.148 126.313 205.134 125.679C205.8 125.589 205.826 124.858 205.166 124.749Z" fill="#A08BE8"/>
<path d="M249.028 192.21C253.82 192.21 257.704 188.324 257.704 183.531C257.704 178.738 253.82 174.853 249.028 174.853C244.236 174.853 240.352 178.738 240.352 183.531C240.352 188.324 244.236 192.21 249.028 192.21Z" fill="white"/>
<path d="M273.385 166.328H224.607C219.558 166.328 215.463 162.232 215.463 157.181V137.37C215.463 132.319 219.558 128.223 224.607 128.223H273.385C278.434 128.223 282.529 132.319 282.529 137.37V157.181C282.523 162.239 278.434 166.328 273.385 166.328Z" fill="#A08BE8"/>
<path d="M215.463 156.137V157.188C215.463 162.239 219.558 166.334 224.607 166.334H273.385C278.434 166.334 282.529 162.239 282.529 157.188V156.137H215.463Z" fill="#D0C5F3"/>
<path d="M248.784 149.548C251.577 149.548 253.84 147.284 253.84 144.491C253.84 141.698 251.577 139.433 248.784 139.433C245.992 139.433 243.729 141.698 243.729 144.491C243.729 147.284 245.992 149.548 248.784 149.548Z" fill="#F7B548"/>
<path d="M268.009 149.548C270.801 149.548 273.065 147.284 273.065 144.491C273.065 141.698 270.801 139.433 268.009 139.433C265.217 139.433 262.953 141.698 262.953 144.491C262.953 147.284 265.217 149.548 268.009 149.548Z" fill="#F7B548"/>
<path d="M229.561 149.548C232.353 149.548 234.617 147.284 234.617 144.491C234.617 141.698 232.353 139.433 229.561 139.433C226.768 139.433 224.505 141.698 224.505 144.491C224.505 147.284 226.768 149.548 229.561 149.548Z" fill="#F7B548"/>
<path d="M533.704 407.699L533.768 463.911L553.947 463.891L553.883 407.673L533.704 407.699Z" fill="url(#paint0_linear)"/>
<path d="M553.85 439.086H533.652V441.721H553.85V439.086Z" fill="#A08BE8"/>
<path d="M581.688 407.699L581.752 463.911L601.93 463.891L601.866 407.673L581.688 407.699Z" fill="url(#paint1_linear)"/>
<path d="M601.834 439.086H581.636V441.721H601.834V439.086Z" fill="#A08BE8"/>
<path d="M472.763 313.35C474.91 286.437 485.9 268.169 485.9 268.169L480.094 266.15L479.992 265.99C504.041 223.591 555.625 203.055 603.314 219.63C657.039 238.301 685.452 296.999 666.785 350.731C648.119 404.468 589.434 432.888 535.716 414.217C493.327 399.482 466.695 359.832 466.516 317.356C466.689 315.619 467.727 312.748 472.763 313.35Z" fill="url(#paint2_radial)"/>
<path d="M466.522 318.619C466.522 318.619 465.625 312.498 472.77 313.35C474.891 286.763 485.631 268.631 485.894 268.195L586.813 303.268C586.813 303.268 593.394 304.832 591.376 310.639C589.357 316.446 583.417 332.778 577.112 350.929C575.817 354.66 572.133 355.397 569.73 354.564L466.093 318.548C466.362 318.593 466.522 318.619 466.522 318.619Z" fill="white"/>
<path d="M521.241 330.111C521.241 330.111 514.211 319.061 512.808 316.984C511.411 314.908 509.777 314.254 507.521 315.145C505.266 316.036 492.911 320.266 492.911 320.266L521.241 330.111Z" fill="#A08BE8"/>
<path d="M466.523 318.619C466.523 318.619 465.626 312.498 472.771 313.35C472.771 313.325 472.777 313.293 472.777 313.267L572.018 347.757C574.325 348.558 577.779 348.212 578.81 346.065C578.246 347.667 577.682 349.289 577.112 350.929C575.933 354.314 572.8 355.23 570.429 354.749C570.192 354.698 569.961 354.647 569.724 354.564L562.938 352.205L466.087 318.542C466.362 318.593 466.523 318.619 466.523 318.619Z" fill="url(#paint3_radial)"/>
<path d="M468.528 337.053L636.264 395.348C630.279 400.437 623.743 404.802 616.803 408.391L475.705 359.352C472.488 352.237 470.073 344.757 468.528 337.053Z" fill="url(#paint4_radial)"/>
<path d="M651.618 247.543L637.565 233.449L654.015 221.008L664.101 231.128L651.618 247.543Z" fill="#B09FEB"/>
<path d="M669.612 234.59C680.049 234.59 688.509 226.127 688.509 215.688C688.509 205.249 680.049 196.786 669.612 196.786C659.175 196.786 650.715 205.249 650.715 215.688C650.715 226.127 659.175 234.59 669.612 234.59Z" fill="url(#paint5_radial)"/>
<path d="M648.151 261.753C648.786 262.388 649.843 262.349 650.4 261.651C656.347 254.235 655.892 243.377 649.023 236.487C642.153 229.597 631.298 229.116 623.865 235.045C623.16 235.602 623.122 236.66 623.756 237.294L648.151 261.753Z" fill="url(#paint6_radial)"/>
<path d="M524.284 411.365C539.663 419.524 566.244 424.857 590.543 413.012C605.294 405.821 624.236 389.63 630.702 353.301L610.568 349.718C606.64 371.767 596.618 387.297 581.585 394.623C565.302 402.558 545.892 399.674 533.871 393.297L524.284 411.365Z" fill="#B09FEB"/>
<path d="M604.575 369.832L603.514 371.938L621.531 381.024L622.593 378.918L604.575 369.832Z" fill="#A08BE8"/>
<path d="M566.493 398.926L564.148 399.178L566.306 419.247L568.65 418.995L566.493 398.926Z" fill="#A08BE8"/>
<path d="M593.811 411.295L588.371 390.508C589.031 390.021 589.672 389.515 590.3 388.996L606.659 401.86C602.385 405.891 597.983 408.961 593.811 411.295Z" fill="#A08BE8"/>
<path d="M622.347 368.434C632.79 368.434 641.257 359.966 641.257 349.519C641.257 339.073 632.79 330.605 622.347 330.605C611.903 330.605 603.437 339.073 603.437 349.519C603.437 359.966 611.903 368.434 622.347 368.434Z" fill="url(#paint7_radial)"/>
<path d="M563.032 320.019C565.592 312.991 564.279 306.059 560.099 304.536C555.919 303.013 550.455 307.475 547.896 314.503C545.336 321.532 546.649 328.464 550.829 329.987C555.009 331.51 560.473 327.047 563.032 320.019Z" fill="#512BD4"/>
<path d="M501.848 298.433C504.197 291.332 502.677 284.442 498.454 283.044C494.231 281.647 488.903 286.27 486.554 293.372C484.205 300.473 485.725 307.363 489.948 308.76C494.172 310.158 499.5 305.534 501.848 298.433Z" fill="#512BD4"/>
<path d="M557.74 310.87C556.728 308.774 554.87 307.364 552.774 306.845C550.807 308.658 549.045 311.312 547.885 314.504C547.161 316.491 546.757 318.465 546.629 320.324C548.795 321.843 551.691 322.176 554.242 320.946C557.99 319.119 559.554 314.613 557.74 310.87Z" fill="#8065E0"/>
<path d="M496.647 289.167C495.634 287.071 493.769 285.655 491.674 285.135C489.572 287.007 487.701 289.891 486.548 293.372C485.958 295.154 485.612 296.916 485.49 298.583C487.663 300.127 490.578 300.473 493.148 299.23C496.896 297.423 498.46 292.917 496.647 289.167Z" fill="#8065E0"/>
<path d="M89.0586 536.614C89.0586 536.614 121.246 515.149 126.61 509.784C131.973 504.419 133.05 490.465 133.05 490.465L316.53 485.101C316.53 485.101 348.718 521.59 360.521 524.808C372.325 528.025 89.0586 536.614 89.0586 536.614Z" fill="#E0BB95"/>
<path d="M379.297 522.122C390.024 514.61 398.072 505.489 398.072 505.489L484.446 502.272C484.446 502.272 494.641 515.687 502.689 517.834C510.738 519.981 368.563 529.634 379.297 522.122Z" fill="#E0BB95"/>
<path d="M768.962 162.771C799.776 162.771 824.756 137.784 824.756 106.963C824.756 76.1407 799.776 51.1546 768.962 51.1546C738.147 51.1546 713.167 76.1407 713.167 106.963C713.167 137.784 738.147 162.771 768.962 162.771Z" fill="url(#paint8_radial)"/>
<path d="M459.589 503.342L466.189 514.187C466.952 515.437 466.087 517.046 464.619 517.104L379.655 520.161L398.072 505.496L459.589 503.342Z" fill="url(#paint9_radial)"/>
<path d="M87.2199 536.659L121.419 512.232L130.429 492.843C130.884 491.331 132.146 490.292 133.582 490.247L257.333 486.882L269.848 517.975L271.457 518.11C274.75 518.392 277.23 514.847 276.154 511.386L270.329 492.568H273.116C275.596 492.568 277.922 493.907 279.345 496.157L298.716 527.09C299.28 527.987 298.729 529.217 297.742 529.256L87.9824 539.293C86.6624 539.37 86.1049 537.454 87.2199 536.659Z" fill="url(#paint10_radial)"/>
<path d="M414.322 549.587L496.531 546.805C497.659 546.805 498.569 547.722 498.569 548.844V557.823C498.569 558.951 497.652 559.862 496.531 559.862H404.166C402.122 559.862 401.346 557.182 403.083 556.093L413.233 549.895C413.56 549.696 413.938 549.587 414.322 549.587Z" fill="url(#paint11_radial)"/>
<path d="M622.32 509.784L644.851 489.395L839.059 483.492L856.065 496.131C857.187 496.965 858.622 497.259 859.981 496.939L874.444 493.536C875.462 493.292 876.539 493.574 877.314 494.279L884.44 500.759C885.677 501.887 884.908 503.951 883.235 503.989L622.32 509.784Z" fill="url(#paint12_radial)"/>
<path d="M544.187 532.506L504.348 532.698C504.348 532.698 495.089 538.922 492.628 543.408C490.744 546.837 490.879 554.542 491.039 557.971C491.084 558.926 491.879 559.676 492.833 559.676L531.262 559.605C532.499 559.605 533.492 558.599 533.479 557.362C533.441 553.106 534.165 544.043 535.773 541.453C538.164 537.588 544.187 532.506 544.187 532.506Z" fill="#D0C5F3"/>
<path d="M556.273 486.491C563.617 512.155 560.611 552.843 560.31 554.997C559.887 557.977 559.484 560.067 555.241 560.067C549.968 560.067 507.162 560.067 507.162 560.067L539.209 488.145L556.273 486.491Z" fill="#8065E0"/>
<path d="M532.846 490.453C531.071 503.047 518.511 520.744 494.718 539.268C491.937 541.434 490.508 543.716 490.508 546.94V557.253C490.508 558.778 491.745 560.015 493.27 560.015H517.652C518.729 560.015 519.6 559.144 519.6 558.067V546.158C519.6 542.453 520.35 540.543 524.15 537.819C533.666 530.987 553.492 507.951 553.691 491.561C553.883 475.172 532.846 490.453 532.846 490.453Z" fill="#A08BE8"/>
<path d="M490.86 544.402C490.629 545.184 490.501 546.023 490.501 546.94V557.253C490.501 558.778 491.738 560.015 493.263 560.015H517.408C518.485 560.015 519.356 559.144 519.356 558.067V546.158C519.356 545.523 519.382 544.947 519.433 544.402H490.86Z" fill="#D0C5F3"/>
<path d="M591.607 532.506L551.768 532.698C551.768 532.698 542.509 538.922 540.048 543.408C538.164 546.837 538.299 554.542 538.459 557.971C538.504 558.926 539.298 559.676 540.253 559.676L578.682 559.605C579.919 559.605 580.912 558.599 580.899 557.362C580.861 553.106 581.585 544.043 583.193 541.453C585.583 537.588 591.607 532.506 591.607 532.506Z" fill="#D0C5F3"/>
<path d="M603.693 486.491C611.037 512.155 608.031 552.843 607.73 554.997C607.307 557.977 606.903 560.067 602.661 560.067C597.388 560.067 554.582 560.067 554.582 560.067L586.629 488.145L603.693 486.491Z" fill="#8065E0"/>
<path d="M580.265 490.453C578.49 503.047 565.931 520.744 542.138 539.268C539.357 541.434 537.928 543.716 537.928 546.94V557.253C537.928 558.778 539.164 560.015 540.69 560.015H565.072C566.149 560.015 567.02 559.144 567.02 558.067V546.158C567.02 542.453 567.77 540.543 571.57 537.819C581.086 530.987 600.912 507.951 601.111 491.561C601.303 475.172 580.265 490.453 580.265 490.453Z" fill="#A08BE8"/>
<path d="M538.28 544.402C538.049 545.184 537.921 546.023 537.921 546.94V557.253C537.921 558.778 539.158 560.015 540.683 560.015H564.828C565.905 560.015 566.776 559.144 566.776 558.067V546.158C566.776 545.523 566.802 544.947 566.853 544.402H538.28Z" fill="#D0C5F3"/>
<path d="M554.863 463.167H534.307C531.276 463.167 528.821 465.622 528.821 468.654V489.927C528.821 492.959 531.276 495.414 534.307 495.414H554.863C557.894 495.414 560.349 492.959 560.349 489.927V468.654C560.349 465.622 557.894 463.167 554.863 463.167Z" fill="url(#paint13_radial)"/>
<path d="M602.847 463.167H582.29C579.259 463.167 576.805 465.622 576.805 468.654V489.927C576.805 492.959 579.259 495.414 582.29 495.414H602.847C605.878 495.414 608.332 492.959 608.332 489.927V468.654C608.332 465.622 605.878 463.167 602.847 463.167Z" fill="url(#paint14_radial)"/>
<path d="M784.271 444.464L780.522 444.547L779.478 396.053L783.226 395.969L784.271 444.464Z" fill="#3E8EED"/>
<path d="M786.494 392.143L777.433 392.348C776.056 392.38 774.96 393.521 774.992 394.905L775.05 397.405C775.082 398.783 776.222 399.879 777.606 399.847L786.667 399.642C788.045 399.61 789.141 398.469 789.109 397.085L789.051 394.585C789.019 393.207 787.878 392.111 786.494 392.143Z" fill="#3E8EED"/>
<path d="M798.836 451.636L765.591 452.386C763.714 452.431 762.156 450.938 762.112 449.06L762.041 446.028C761.996 444.15 763.489 442.592 765.367 442.548L798.612 441.798C800.489 441.753 802.046 443.246 802.091 445.124L802.162 448.156C802.207 450.034 800.72 451.591 798.836 451.636Z" fill="#3E8EED"/>
<path d="M683.626 468.545L702.241 503.99L809.947 501.547L809.069 462.661L683.626 468.545Z" fill="#2B88D8"/>
<path d="M782.969 366.921L759.625 403.545C759.33 404.007 759.644 404.622 760.189 404.654C769.16 405.218 778.157 401.02 783.328 392.906C788.499 384.791 788.512 374.863 784.212 366.966C783.95 366.485 783.264 366.46 782.969 366.921Z" fill="#A7CBF6"/>
<path d="M809.3 472.974L809.069 462.661L683.626 468.545L687.247 475.448L809.3 472.974Z" fill="#106EBE"/>
<path d="M729.514 444.496L729.284 433.017C729.213 429.677 726.451 427.03 723.113 427.1L691.169 427.825C689.266 427.87 687.529 429.357 686.6 431.754L675.789 459.488C673.707 464.827 676.475 471.525 680.717 471.429L819.842 468.276C822.847 468.205 825.205 464.603 825.109 460.219L824.885 450.194C824.846 448.374 823.34 446.932 821.521 446.97L733.942 448.746C731.539 448.784 729.559 446.887 729.514 444.496Z" fill="#A7CBF6"/>
<path d="M721.498 464.129L683.889 464.981C681.762 465.032 680.359 461.699 681.358 458.994L690.272 434.978C690.74 433.722 691.63 432.94 692.617 432.914L720.774 432.279C722.299 432.247 723.581 434.016 723.626 436.241L724.164 460.046C724.221 462.263 723.023 464.096 721.498 464.129Z" fill="#72ACF1"/>
<path d="M723.663 437.74C720.844 438.061 718.326 439.009 717.544 441.086C716.531 443.778 715.397 446.701 714.321 449.431L691.457 449.893L690.451 447.733C689.97 446.701 688.919 446.047 687.779 446.066L686.138 446.098L681.358 458.988C680.352 461.693 681.755 465.026 683.882 464.975L721.491 464.122C723.016 464.09 724.214 462.257 724.163 460.033L723.663 437.74Z" fill="#2B88D8"/>
<path d="M664.197 522.981L832.049 519.507C834.323 519.462 836.169 520.436 836.124 521.667L836.066 523.366C836.015 524.942 833.663 526.25 830.748 526.32L649.407 530.724C647.786 530.762 647.062 529.666 648.344 529.109L661.006 523.628C661.922 523.231 663.044 523.007 664.197 522.981Z" fill="#BF8F68"/>
<path d="M725.823 501.33L721.786 500.836C721.632 499.875 721.42 498.926 721.145 498.009L724.599 495.843C724.9 495.657 725.015 495.273 724.874 494.952L723.727 492.356C723.586 492.036 723.227 491.863 722.881 491.959L718.94 493.055C718.441 492.234 717.889 491.459 717.287 490.722L719.664 487.382C719.87 487.094 719.831 486.697 719.575 486.453L717.524 484.492C717.268 484.248 716.871 484.229 716.595 484.447L713.353 486.985C712.584 486.421 711.776 485.908 710.937 485.447L711.86 481.428C711.936 481.082 711.751 480.729 711.424 480.601L708.784 479.576C708.45 479.447 708.079 479.582 707.906 479.89L705.868 483.498C704.958 483.28 704.029 483.114 703.087 483.011L702.395 478.922C702.337 478.576 702.03 478.319 701.677 478.326L698.845 478.39C698.492 478.396 698.198 478.665 698.153 479.018L697.647 483.152C696.705 483.306 695.788 483.517 694.891 483.78L692.667 480.236C692.482 479.934 692.097 479.819 691.777 479.96L689.182 481.107C688.855 481.248 688.688 481.607 688.784 481.953L689.906 485.991C689.111 486.479 688.348 487.017 687.624 487.6L684.203 485.165C683.914 484.96 683.517 484.998 683.273 485.254L681.313 487.305C681.069 487.562 681.05 487.959 681.268 488.235L683.863 491.555C683.312 492.311 682.806 493.093 682.357 493.92L678.256 492.984C677.91 492.907 677.557 493.093 677.429 493.42L676.404 496.067C676.276 496.401 676.41 496.772 676.718 496.945L680.383 499.016C680.166 499.913 679.999 500.83 679.89 501.759L675.75 502.458C675.398 502.515 675.148 502.823 675.154 503.176L675.218 506.009C675.225 506.361 675.494 506.656 675.846 506.701L680.005 507.207C680.153 508.143 680.358 509.059 680.62 509.95L677.064 512.181C676.763 512.367 676.648 512.751 676.788 513.072L677.935 515.668C678.076 515.995 678.435 516.161 678.781 516.065L682.806 514.943C683.293 515.745 683.831 516.514 684.414 517.238L681.992 520.642C681.787 520.93 681.825 521.327 682.082 521.571L684.132 523.532C684.388 523.776 684.786 523.795 685.061 523.577L688.336 521.02C689.098 521.584 689.893 522.097 690.726 522.558L689.803 526.596C689.726 526.942 689.912 527.295 690.239 527.423L692.879 528.448C693.212 528.577 693.584 528.442 693.757 528.134L695.788 524.539C696.698 524.763 697.634 524.936 698.589 525.045L699.274 529.096C699.332 529.442 699.639 529.698 699.992 529.692L702.824 529.628C703.177 529.621 703.471 529.352 703.516 529L704.016 524.936C704.977 524.789 705.913 524.577 706.829 524.308L709.002 527.775C709.187 528.077 709.572 528.192 709.892 528.051L712.488 526.904C712.814 526.763 712.981 526.404 712.885 526.058L711.795 522.135C712.622 521.635 713.404 521.084 714.147 520.481L717.467 522.846C717.755 523.052 718.152 523.013 718.396 522.757L720.357 520.706C720.6 520.449 720.619 520.052 720.401 519.776L717.896 516.571C718.473 515.796 718.992 514.982 719.459 514.123L723.413 515.027C723.759 515.104 724.112 514.918 724.24 514.591L725.265 511.944C725.393 511.61 725.259 511.239 724.951 511.066L721.414 509.066C721.638 508.143 721.811 507.194 721.914 506.226L725.912 505.553C726.258 505.496 726.515 505.188 726.508 504.836L726.444 502.003C726.444 501.669 726.175 501.374 725.823 501.33ZM700.998 508.278C698.665 508.329 696.724 506.483 696.672 504.143C696.621 501.81 698.467 499.875 700.806 499.817C703.138 499.766 705.073 501.612 705.131 503.951C705.182 506.291 703.33 508.226 700.998 508.278Z" fill="#605D5A"/>
<path d="M700.832 516.443C707.69 516.443 713.251 510.882 713.251 504.022C713.251 497.161 707.69 491.6 700.832 491.6C693.973 491.6 688.413 497.161 688.413 504.022C688.413 510.882 693.973 516.443 700.832 516.443Z" fill="#C8C6C4"/>
<path d="M700.831 514.463C706.596 514.463 711.27 509.788 711.27 504.022C711.27 498.255 706.596 493.58 700.831 493.58C695.066 493.58 690.393 498.255 690.393 504.022C690.393 509.788 695.066 514.463 700.831 514.463Z" fill="#B3AFAB"/>
<path d="M700.831 507.399C702.696 507.399 704.208 505.887 704.208 504.022C704.208 502.156 702.696 500.644 700.831 500.644C698.966 500.644 697.454 502.156 697.454 504.022C697.454 505.887 698.966 507.399 700.831 507.399Z" fill="#E1DFDD"/>
<path d="M780.279 500.227L776.242 499.734C776.088 498.772 775.876 497.824 775.601 496.907L779.055 494.741C779.356 494.555 779.471 494.17 779.33 493.85L778.183 491.254C778.042 490.933 777.683 490.76 777.337 490.856L773.396 491.952C772.897 491.132 772.346 490.356 771.743 489.619L774.121 486.28C774.326 485.992 774.287 485.594 774.031 485.351L771.98 483.389C771.724 483.146 771.327 483.126 771.051 483.344L767.809 485.883C767.04 485.319 766.232 484.806 765.393 484.344L766.316 480.326C766.392 479.979 766.207 479.627 765.88 479.499L763.24 478.473C762.906 478.345 762.535 478.48 762.362 478.787L760.324 482.396C759.414 482.178 758.485 482.011 757.543 481.909L756.851 477.819C756.793 477.473 756.486 477.217 756.133 477.223L753.301 477.287C752.949 477.294 752.654 477.563 752.609 477.916L752.103 482.05C751.161 482.203 750.244 482.415 749.347 482.678L747.124 479.133C746.938 478.832 746.553 478.717 746.233 478.858L743.638 480.005C743.311 480.146 743.144 480.505 743.24 480.851L744.362 484.889C743.567 485.376 742.805 485.915 742.081 486.498L738.659 484.062C738.37 483.857 737.973 483.896 737.729 484.152L735.769 486.203C735.525 486.459 735.506 486.857 735.724 487.132L738.319 490.453C737.768 491.209 737.262 491.991 736.813 492.818L732.712 491.882C732.366 491.805 732.014 491.991 731.885 492.318L730.86 494.965C730.732 495.298 730.866 495.67 731.174 495.843L734.839 497.913C734.622 498.811 734.455 499.727 734.346 500.657L730.206 501.355C729.854 501.413 729.604 501.721 729.61 502.073L729.675 504.906C729.681 505.259 729.95 505.553 730.303 505.598L734.461 506.105C734.609 507.04 734.814 507.957 735.077 508.848L731.52 511.078C731.219 511.264 731.104 511.649 731.245 511.969L732.392 514.565C732.533 514.886 732.891 515.059 733.237 514.963L737.262 513.841C737.749 514.642 738.287 515.411 738.87 516.136L736.448 519.539C736.243 519.828 736.281 520.225 736.538 520.469L738.588 522.43C738.844 522.673 739.242 522.693 739.517 522.475L742.792 519.917C743.554 520.481 744.349 520.994 745.182 521.456L744.259 525.494C744.182 525.84 744.368 526.192 744.695 526.32L747.335 527.346C747.668 527.474 748.04 527.34 748.213 527.032L750.244 523.436C751.154 523.66 752.09 523.834 753.045 523.942L753.73 527.993C753.788 528.339 754.095 528.596 754.448 528.589L757.28 528.525C757.633 528.519 757.927 528.25 757.972 527.897L758.472 523.834C759.433 523.686 760.369 523.475 761.285 523.205L763.458 526.673C763.643 526.974 764.028 527.09 764.348 526.949L766.944 525.801C767.27 525.66 767.437 525.301 767.341 524.955L766.252 521.033C767.078 520.533 767.86 519.981 768.603 519.379L771.923 521.744C772.211 521.949 772.608 521.911 772.852 521.654L774.813 519.603C775.056 519.347 775.075 518.949 774.857 518.674L772.352 515.469C772.929 514.693 773.448 513.879 773.915 513.021L777.869 513.924C778.215 514.001 778.568 513.815 778.696 513.488L779.721 510.841C779.849 510.508 779.715 510.136 779.407 509.963L775.87 507.963C776.094 507.04 776.267 506.092 776.37 505.124L780.368 504.451C780.714 504.393 780.971 504.086 780.964 503.733L780.9 500.9C780.9 500.567 780.631 500.272 780.279 500.227ZM755.454 507.175C753.122 507.226 751.18 505.38 751.129 503.041C751.077 500.708 752.923 498.772 755.262 498.714C757.594 498.663 759.536 500.509 759.587 502.849C759.638 505.188 757.787 507.124 755.454 507.175Z" fill="#605D5A"/>
<path d="M755.294 515.341C762.152 515.341 767.712 509.78 767.712 502.919C767.712 496.059 762.152 490.497 755.294 490.497C748.435 490.497 742.875 496.059 742.875 502.919C742.875 509.78 748.435 515.341 755.294 515.341Z" fill="#C8C6C4"/>
<path d="M755.294 513.36C761.059 513.36 765.733 508.686 765.733 502.919C765.733 497.153 761.059 492.478 755.294 492.478C749.529 492.478 744.855 497.153 744.855 502.919C744.855 508.686 749.529 513.36 755.294 513.36Z" fill="#B3AFAB"/>
<path d="M755.294 506.297C757.159 506.297 758.671 504.785 758.671 502.919C758.671 501.054 757.159 499.541 755.294 499.541C753.429 499.541 751.917 501.054 751.917 502.919C751.917 504.785 753.429 506.297 755.294 506.297Z" fill="#E1DFDD"/>
<path d="M834.74 499.125L830.703 498.631C830.549 497.67 830.337 496.721 830.062 495.805L833.516 493.638C833.817 493.452 833.932 493.068 833.791 492.747L832.644 490.151C832.503 489.824 832.144 489.658 831.798 489.754L827.857 490.85C827.358 490.03 826.806 489.254 826.204 488.517L828.582 485.178C828.787 484.889 828.748 484.492 828.492 484.248L826.441 482.287C826.185 482.043 825.788 482.024 825.512 482.242L822.27 484.78C821.501 484.216 820.693 483.703 819.854 483.242L820.777 479.223C820.853 478.877 820.668 478.524 820.341 478.396L817.701 477.371C817.368 477.243 816.996 477.377 816.823 477.685L814.785 481.293C813.875 481.075 812.946 480.909 812.004 480.806L811.312 476.717C811.254 476.371 810.947 476.114 810.594 476.121L807.762 476.185C807.409 476.191 807.115 476.461 807.07 476.813L806.564 480.947C805.622 481.101 804.705 481.313 803.808 481.575L801.585 478.031C801.399 477.73 801.014 477.614 800.694 477.755L798.099 478.903C797.772 479.044 797.605 479.403 797.701 479.749L798.823 483.787C798.028 484.274 797.266 484.812 796.541 485.395L793.12 482.96C792.831 482.755 792.434 482.793 792.19 483.05L790.23 485.101C789.986 485.357 789.967 485.754 790.185 486.03L792.78 489.35C792.229 490.106 791.723 490.888 791.274 491.715L787.173 490.779C786.827 490.703 786.474 490.888 786.346 491.215L785.321 493.862C785.193 494.196 785.327 494.568 785.635 494.741L789.3 496.811C789.082 497.708 788.916 498.625 788.807 499.554L784.667 500.253C784.315 500.31 784.065 500.618 784.071 500.971L784.136 503.804C784.142 504.156 784.411 504.451 784.764 504.496L788.922 505.002C789.07 505.938 789.275 506.855 789.537 507.746L785.981 509.976C785.68 510.162 785.565 510.547 785.705 510.867L786.853 513.463C786.994 513.783 787.352 513.956 787.698 513.86L791.723 512.739C792.21 513.54 792.748 514.309 793.331 515.033L790.909 518.437C790.704 518.725 790.742 519.123 790.999 519.366L793.049 521.327C793.305 521.571 793.703 521.59 793.978 521.372L797.253 518.815C798.015 519.379 798.81 519.892 799.643 520.353L798.72 524.391C798.643 524.737 798.829 525.09 799.156 525.218L801.796 526.244C802.129 526.372 802.501 526.237 802.674 525.929L804.705 522.334C805.615 522.558 806.551 522.731 807.506 522.84L808.191 526.891C808.249 527.237 808.556 527.493 808.909 527.487L811.741 527.423C812.094 527.416 812.388 527.147 812.433 526.795L812.933 522.731C813.894 522.584 814.83 522.372 815.746 522.103L817.919 525.571C818.104 525.872 818.489 525.987 818.809 525.846L821.404 524.699C821.731 524.558 821.898 524.199 821.802 523.853L820.712 519.93C821.539 519.43 822.321 518.879 823.064 518.276L826.384 520.642C826.672 520.847 827.069 520.808 827.313 520.552L829.274 518.501C829.517 518.244 829.536 517.847 829.318 517.571L826.813 514.367C827.39 513.591 827.909 512.777 828.376 511.918L832.33 512.822C832.676 512.899 833.029 512.713 833.157 512.386L834.182 509.739C834.31 509.406 834.176 509.034 833.868 508.861L830.331 506.861C830.555 505.938 830.728 504.989 830.831 504.022L834.829 503.349C835.175 503.291 835.432 502.983 835.425 502.631L835.361 499.798C835.355 499.464 835.086 499.17 834.74 499.125ZM809.909 506.073C807.576 506.124 805.634 504.278 805.583 501.939C805.532 499.605 807.377 497.67 809.716 497.612C812.049 497.561 813.984 499.407 814.042 501.746C814.093 504.079 812.247 506.021 809.909 506.073Z" fill="#605D5A"/>
<path d="M809.749 514.238C816.607 514.238 822.167 508.677 822.167 501.817C822.167 494.956 816.607 489.395 809.749 489.395C802.89 489.395 797.33 494.956 797.33 501.817C797.33 508.677 802.89 514.238 809.749 514.238Z" fill="#C8C6C4"/>
<path d="M809.748 512.258C815.513 512.258 820.187 507.583 820.187 501.817C820.187 496.05 815.513 491.376 809.748 491.376C803.983 491.376 799.31 496.05 799.31 501.817C799.31 507.583 803.983 512.258 809.748 512.258Z" fill="#B3AFAB"/>
<path d="M809.748 505.195C811.613 505.195 813.125 503.682 813.125 501.817C813.125 499.951 811.613 498.439 809.748 498.439C807.883 498.439 806.371 499.951 806.371 501.817C806.371 503.682 807.883 505.195 809.748 505.195Z" fill="#E1DFDD"/>
<path d="M406.653 348.93C406.121 348.93 405.596 348.712 405.218 348.282L404.365 347.321C403.66 346.526 403.731 345.315 404.525 344.603C405.32 343.898 406.531 343.969 407.236 344.763L408.088 345.725C408.793 346.52 408.723 347.731 407.928 348.443C407.563 348.769 407.108 348.93 406.653 348.93ZM393.036 333.598C392.504 333.598 391.979 333.38 391.6 332.951L390.748 331.989C390.043 331.194 390.114 329.983 390.908 329.272C391.703 328.566 392.914 328.637 393.619 329.432L394.471 330.393C395.176 331.188 395.106 332.399 394.311 333.111C393.946 333.438 393.491 333.598 393.036 333.598ZM379.419 318.26C378.887 318.26 378.362 318.042 377.983 317.613L377.131 316.651C376.426 315.856 376.497 314.645 377.291 313.933C378.086 313.228 379.297 313.299 380.002 314.094L380.854 315.055C381.559 315.85 381.489 317.061 380.694 317.773C380.329 318.1 379.874 318.26 379.419 318.26ZM365.802 302.928C365.27 302.928 364.745 302.71 364.366 302.281L363.514 301.319C362.809 300.525 362.88 299.313 363.674 298.602C364.469 297.897 365.68 297.967 366.385 298.762L367.237 299.723C367.942 300.518 367.872 301.73 367.077 302.441C366.712 302.768 366.257 302.928 365.802 302.928ZM352.185 287.59C351.653 287.59 351.127 287.372 350.749 286.943L349.897 285.981C349.192 285.187 349.263 283.975 350.057 283.264C350.852 282.559 352.063 282.629 352.768 283.424L353.62 284.385C354.325 285.18 354.255 286.392 353.46 287.103C353.095 287.43 352.64 287.59 352.185 287.59ZM338.568 272.259C338.036 272.259 337.51 272.041 337.132 271.611L336.28 270.65C335.575 269.855 335.646 268.644 336.44 267.938C337.235 267.233 338.446 267.304 339.157 268.099L340.01 269.06C340.714 269.855 340.644 271.066 339.849 271.771C339.478 272.098 339.023 272.259 338.568 272.259ZM324.951 256.92C324.419 256.92 323.893 256.703 323.515 256.273L322.663 255.312C321.958 254.517 322.029 253.305 322.823 252.594C323.618 251.889 324.829 251.959 325.534 252.754L326.386 253.716C327.091 254.51 327.021 255.722 326.226 256.433C325.861 256.76 325.406 256.92 324.951 256.92ZM311.334 241.589C310.802 241.589 310.276 241.371 309.898 240.941L309.046 239.98C308.341 239.185 308.412 237.974 309.206 237.262C310.001 236.557 311.212 236.628 311.917 237.423L312.769 238.384C313.474 239.179 313.404 240.39 312.609 241.102C312.244 241.429 311.789 241.589 311.334 241.589Z" fill="#F7B548"/>
<path d="M54.9679 411.045C60.556 411.045 65.0861 406.513 65.0861 400.924C65.0861 395.334 60.556 390.803 54.9679 390.803C49.3797 390.803 44.8496 395.334 44.8496 400.924C44.8496 406.513 49.3797 411.045 54.9679 411.045Z" fill="#106EBE"/>
<path d="M152.363 368.094C159.066 368.094 164.5 362.659 164.5 355.954C164.5 349.25 159.066 343.815 152.363 343.815C145.66 343.815 140.227 349.25 140.227 355.954C140.227 362.659 145.66 368.094 152.363 368.094Z" fill="#106EBE"/>
<path d="M89.59 250.408C91.4622 250.408 92.9799 248.89 92.9799 247.018C92.9799 245.145 91.4622 243.627 89.59 243.627C87.7179 243.627 86.2002 245.145 86.2002 247.018C86.2002 248.89 87.7179 250.408 89.59 250.408Z" fill="#106EBE"/>
<path d="M113.018 345.225C115.389 345.225 117.311 343.302 117.311 340.93C117.311 338.559 115.389 336.636 113.018 336.636C110.647 336.636 108.725 338.559 108.725 340.93C108.725 343.302 110.647 345.225 113.018 345.225Z" fill="#106EBE"/>
<path d="M273.25 421.781C275.622 421.781 277.544 419.858 277.544 417.486C277.544 415.114 275.622 413.192 273.25 413.192C270.879 413.192 268.957 415.114 268.957 417.486C268.957 419.858 270.879 421.781 273.25 421.781Z" fill="#106EBE"/>
<path d="M295.422 327.336C299.768 327.336 303.291 323.812 303.291 319.465C303.291 315.118 299.768 311.594 295.422 311.594C291.076 311.594 287.553 315.118 287.553 319.465C287.553 323.812 291.076 327.336 295.422 327.336Z" fill="#106EBE"/>
<path d="M428.472 221.444C430.054 221.444 431.336 220.161 431.336 218.579C431.336 216.996 430.054 215.713 428.472 215.713C426.89 215.713 425.607 216.996 425.607 218.579C425.607 220.161 426.89 221.444 428.472 221.444Z" fill="#106EBE"/>
<path d="M462.805 131.293C467.548 131.293 471.392 127.448 471.392 122.704C471.392 117.961 467.548 114.116 462.805 114.116C458.063 114.116 454.219 117.961 454.219 122.704C454.219 127.448 458.063 131.293 462.805 131.293Z" fill="#106EBE"/>
<path d="M271.104 26.1125C273.079 26.1125 274.68 24.5112 274.68 22.536C274.68 20.5607 273.079 18.9594 271.104 18.9594C269.129 18.9594 267.528 20.5607 267.528 22.536C267.528 24.5112 269.129 26.1125 271.104 26.1125Z" fill="#106EBE"/>
<path d="M200.289 78.344C204.239 78.344 207.44 75.1415 207.44 71.1909C207.44 67.2404 204.239 64.0379 200.289 64.0379C196.339 64.0379 193.138 67.2404 193.138 71.1909C193.138 75.1415 196.339 78.344 200.289 78.344Z" fill="#106EBE"/>
<path d="M79.4013 49.0075C83.3509 49.0075 86.5527 45.8049 86.5527 41.8544C86.5527 37.9039 83.3509 34.7014 79.4013 34.7014C75.4518 34.7014 72.25 37.9039 72.25 41.8544C72.25 45.8049 75.4518 49.0075 79.4013 49.0075Z" fill="#106EBE"/>
<path d="M567.955 157.765C570.719 157.765 572.96 155.524 572.96 152.759C572.96 149.994 570.719 147.753 567.955 147.753C565.191 147.753 562.95 149.994 562.95 152.759C562.95 155.524 565.191 157.765 567.955 157.765Z" fill="#106EBE"/>
<path d="M572.966 44.7131C576.915 44.7131 580.117 41.5105 580.117 37.56C580.117 33.6095 576.915 30.4069 572.966 30.4069C569.016 30.4069 565.814 33.6095 565.814 37.56C565.814 41.5105 569.016 44.7131 572.966 44.7131Z" fill="#106EBE"/>
<path d="M613.74 75.4853C618.482 75.4853 622.327 71.64 622.327 66.8965C622.327 62.153 618.482 58.3077 613.74 58.3077C608.998 58.3077 605.153 62.153 605.153 66.8965C605.153 71.64 608.998 75.4853 613.74 75.4853Z" fill="#106EBE"/>
<path d="M686.278 43.2901C687.86 43.2901 689.143 42.0073 689.143 40.425C689.143 38.8427 687.86 37.5599 686.278 37.5599C684.696 37.5599 683.414 38.8427 683.414 40.425C683.414 42.0073 684.696 43.2901 686.278 43.2901Z" fill="#106EBE"/>
<path d="M738.497 227.885C740.869 227.885 742.791 225.963 742.791 223.591C742.791 221.219 740.869 219.296 738.497 219.296C736.126 219.296 734.204 221.219 734.204 223.591C734.204 225.963 736.126 227.885 738.497 227.885Z" fill="#106EBE"/>
<path d="M28.612 145.599C31.7724 145.599 34.3344 143.037 34.3344 139.876C34.3344 136.715 31.7724 134.152 28.612 134.152C25.4516 134.152 22.8896 136.715 22.8896 139.876C22.8896 143.037 25.4516 145.599 28.612 145.599Z" fill="#106EBE"/>
<path d="M873.687 119.128C877.637 119.128 880.839 115.925 880.839 111.975C880.839 108.024 877.637 104.822 873.687 104.822C869.738 104.822 866.536 108.024 866.536 111.975C866.536 115.925 869.738 119.128 873.687 119.128Z" fill="#106EBE"/>
<path d="M837.629 233.609C840.001 233.609 841.923 231.686 841.923 229.315C841.923 226.943 840.001 225.02 837.629 225.02C835.258 225.02 833.336 226.943 833.336 229.315C833.336 231.686 835.258 233.609 837.629 233.609Z" fill="#106EBE"/>
<path d="M814.74 259.363C818.69 259.363 821.892 256.16 821.892 252.209C821.892 248.259 818.69 245.056 814.74 245.056C810.791 245.056 807.589 248.259 807.589 252.209C807.589 256.16 810.791 259.363 814.74 259.363Z" fill="#106EBE"/>
<path d="M863.883 356.448C866.254 356.448 868.176 354.525 868.176 352.154C868.176 349.782 866.254 347.859 863.883 347.859C861.512 347.859 859.59 349.782 859.59 352.154C859.59 354.525 861.512 356.448 863.883 356.448Z" fill="#106EBE"/>
<path d="M744.637 343.789C747.401 343.789 749.641 341.548 749.641 338.783C749.641 336.019 747.401 333.777 744.637 333.777C741.873 333.777 739.632 336.019 739.632 338.783C739.632 341.548 741.873 343.789 744.637 343.789Z" fill="#106EBE"/>
<path d="M680.98 395.309C683.351 395.309 685.273 393.386 685.273 391.015C685.273 388.643 683.351 386.72 680.98 386.72C678.609 386.72 676.687 388.643 676.687 391.015C676.687 393.386 678.609 395.309 680.98 395.309Z" fill="#106EBE"/>
<path d="M438.488 308.017C440.859 308.017 442.781 306.095 442.781 303.723C442.781 301.351 440.859 299.429 438.488 299.429C436.117 299.429 434.194 301.351 434.194 303.723C434.194 306.095 436.117 308.017 438.488 308.017Z" fill="#106EBE"/>
<path d="M397.732 231.776C400.892 231.776 403.454 229.213 403.454 226.052C403.454 222.891 400.892 220.328 397.732 220.328C394.572 220.328 392.01 222.891 392.01 226.052C392.01 229.213 394.572 231.776 397.732 231.776Z" fill="#106EBE"/>
<path d="M825.128 37.0344C829.474 37.0344 832.997 33.5105 832.997 29.1635C832.997 24.8165 829.474 21.2925 825.128 21.2925C820.782 21.2925 817.259 24.8165 817.259 29.1635C817.259 33.5105 820.782 37.0344 825.128 37.0344Z" fill="#2B88D8"/>
<path d="M437.616 16.338C436.213 20.4913 433.605 24.0743 430.183 26.6766C429.574 27.1188 429.548 27.9649 430.112 28.4584C433.509 31.4389 436.117 35.2846 437.565 39.6687C437.943 40.7712 439.417 40.7712 439.795 39.6687C441.269 35.2846 443.877 31.4389 447.247 28.4584C447.811 27.9649 447.786 27.1188 447.177 26.6766C443.755 24.0743 441.153 20.4849 439.744 16.338C439.417 15.306 437.968 15.306 437.616 16.338Z" fill="#2B88D8"/>
<path d="M502.157 164.847C500.754 169.001 498.146 172.584 494.724 175.186C494.115 175.628 494.089 176.474 494.653 176.968C498.05 179.948 500.658 183.794 502.106 188.178C502.484 189.281 503.958 189.281 504.336 188.178C505.81 183.794 508.418 179.948 511.788 176.968C512.352 176.474 512.327 175.628 511.718 175.186C508.296 172.584 505.694 168.994 504.285 164.847C503.958 163.815 502.51 163.815 502.157 164.847Z" fill="#2B88D8"/>
<path d="M161.001 260.753C159.597 264.907 156.989 268.49 153.568 271.092C152.959 271.534 152.933 272.38 153.497 272.874C156.893 275.854 159.501 279.7 160.95 284.084C161.328 285.187 162.801 285.187 163.18 284.084C164.653 279.7 167.261 275.854 170.632 272.874C171.196 272.38 171.17 271.534 170.562 271.092C167.14 268.49 164.538 264.9 163.128 260.753C162.808 259.721 161.353 259.721 161.001 260.753Z" fill="#2B88D8"/>
<path d="M761.586 266.586C760.182 270.74 757.574 274.322 754.152 276.925C753.544 277.367 753.518 278.213 754.082 278.707C757.478 281.687 760.08 285.533 761.535 289.917C761.913 291.019 763.386 291.019 763.765 289.917C765.238 285.533 767.846 281.687 771.217 278.707C771.781 278.213 771.755 277.367 771.147 276.925C767.725 274.322 765.123 270.733 763.713 266.586C763.393 265.554 761.938 265.554 761.586 266.586Z" fill="#2B88D8"/>
<path d="M220.98 354.07C219.577 358.223 216.969 361.806 213.547 364.409C212.938 364.851 212.913 365.697 213.477 366.191C216.873 369.171 219.474 373.017 220.929 377.401C221.307 378.503 222.781 378.503 223.159 377.401C224.633 373.017 227.241 369.171 230.612 366.191C231.175 365.697 231.15 364.851 230.541 364.409C227.119 361.806 224.518 358.217 223.108 354.07C222.781 353.038 221.333 353.038 220.98 354.07Z" fill="#2B88D8"/>
<path d="M491.813 338.774L481.648 367.466L510.333 377.632L520.498 348.94L491.813 338.774Z" fill="#512BD4"/>
<path d="M490.424 358.941C490.219 358.871 490.072 358.743 489.982 358.557C489.892 358.371 489.879 358.179 489.943 357.986C490.014 357.794 490.142 357.653 490.334 357.563C490.526 357.474 490.725 357.467 490.924 357.538C491.129 357.608 491.283 357.743 491.372 357.929C491.468 358.121 491.481 358.313 491.411 358.506C491.34 358.698 491.212 358.832 491.02 358.922C490.834 359.005 490.635 359.012 490.424 358.941Z" fill="white"/>
<path d="M498.576 361.697L497.256 361.23L495.724 354.519C495.686 354.352 495.666 354.179 495.66 354.012L495.628 354C495.596 354.166 495.493 354.512 495.308 355.038L493.577 359.928L492.411 359.518L495.051 352.064L496.455 352.564L497.916 359.102C497.98 359.371 498.018 359.557 498.025 359.659L498.044 359.666C498.082 359.454 498.185 359.114 498.351 358.647L500.056 353.839L501.216 354.25L498.576 361.697Z" fill="white"/>
<path d="M504.253 363.71L500.171 362.262L502.811 354.807L506.733 356.198L506.361 357.249L503.65 356.288L502.901 358.397L505.4 359.281L505.028 360.326L502.529 359.441L501.747 361.646L504.624 362.665L504.253 363.71Z" fill="white"/>
<path d="M512.327 359.364L510.238 358.621L507.969 365.024L506.765 364.595L509.033 358.191L506.95 357.454L507.322 356.403L512.699 358.307L512.327 359.364Z" fill="white"/>
<path d="M520.991 438.503H431.266C426.018 438.503 421.314 434.247 420.763 428.998L414.714 371.453C414.163 366.203 417.969 361.947 423.218 361.947H512.936C518.184 361.947 522.888 366.203 523.439 371.453L529.488 428.998C530.046 434.247 526.239 438.503 520.991 438.503Z" fill="#E1DFDD"/>
<path d="M521.599 402.584L513.871 384.99C511.846 380.285 514.012 374.831 518.716 372.805C523.419 370.78 528.872 372.946 530.897 377.651L538.824 395.694L521.599 402.584Z" fill="#B09FEB"/>
<path d="M531.864 418.602L512.666 419.339C507.546 419.499 503.272 415.48 503.105 410.365C502.945 405.244 506.963 400.969 512.076 400.802L531.762 400.046L531.864 418.602Z" fill="#B09FEB"/>
<path d="M531.333 405.25L512.122 405.5C507.002 405.532 502.824 401.405 502.798 396.283C502.766 391.162 506.893 386.983 512.013 386.951L531.711 386.695L531.333 405.25Z" fill="#B09FEB"/>
<path d="M535.268 426.748L516.069 427.485C510.949 427.645 506.675 423.627 506.509 418.512C506.348 413.391 510.366 409.115 515.48 408.949L535.165 408.192L535.268 426.748Z" fill="#B09FEB"/>
<path d="M531.089 427.62C541.805 427.62 550.492 418.93 550.492 408.212C550.492 397.493 541.805 388.803 531.089 388.803C520.373 388.803 511.686 397.493 511.686 408.212C511.686 418.93 520.373 427.62 531.089 427.62Z" fill="#9078E4"/>
<path d="M423.582 423.953H416.457C412.048 423.953 408.466 420.377 408.466 415.961C408.466 411.551 412.042 407.968 416.457 407.968H423.582C427.991 407.968 431.573 411.545 431.573 415.961C431.573 420.377 427.997 423.953 423.582 423.953Z" fill="#B09FEB"/>
<path d="M427.997 411.192H413.823C409.414 411.192 405.832 407.615 405.832 403.199C405.832 398.79 409.408 395.207 413.823 395.207H427.997C432.406 395.207 435.988 398.783 435.988 403.199C435.982 407.615 432.406 411.192 427.997 411.192Z" fill="#B09FEB"/>
<path d="M426.024 394.046L415.413 396.822C411.145 397.937 406.781 395.386 405.666 391.117C404.551 386.849 407.101 382.484 411.369 381.368L421.981 378.593C426.249 377.478 430.612 380.029 431.727 384.298C432.849 388.56 430.292 392.925 426.024 394.046Z" fill="#B09FEB"/>
<path d="M492.898 274.508C494.699 274.835 496.595 274.04 497.589 272.38C510.36 250.992 531.647 235.654 555.985 230.295C558.426 229.757 559.964 227.347 559.426 224.905C558.888 222.469 556.478 220.924 554.037 221.463C527.271 227.353 503.868 244.223 489.822 267.74C488.541 269.881 489.239 272.662 491.386 273.938C491.866 274.226 492.379 274.412 492.898 274.508Z" fill="url(#paint15_linear)"/>
<defs>
<linearGradient id="paint0_linear" x1="543.826" y1="407.676" x2="543.826" y2="463.91" gradientUnits="userSpaceOnUse">
<stop offset="0.2368" stop-color="#958FE7"/>
<stop offset="0.4881" stop-color="#BBB7EF"/>
</linearGradient>
<linearGradient id="paint1_linear" x1="591.809" y1="407.676" x2="591.809" y2="463.91" gradientUnits="userSpaceOnUse">
<stop offset="0.2368" stop-color="#958FE7"/>
<stop offset="0.4881" stop-color="#BBB7EF"/>
</linearGradient>
<radialGradient id="paint2_radial" cx="0" cy="0" r="1" gradientUnits="userSpaceOnUse" gradientTransform="translate(544.705 269.73) scale(103.003 103.028)">
<stop offset="0.186" stop-color="#A08BE8"/>
<stop offset="0.684" stop-color="#8065E0"/>
<stop offset="0.8157" stop-color="#8065E0"/>
</radialGradient>
<radialGradient id="paint3_radial" cx="0" cy="0" r="1" gradientUnits="userSpaceOnUse" gradientTransform="translate(535.398 348.824) scale(101.737 101.762)">
<stop stop-color="#512BD4"/>
<stop offset="0.5107" stop-color="#6645D9"/>
</radialGradient>
<radialGradient id="paint4_radial" cx="0" cy="0" r="1" gradientUnits="userSpaceOnUse" gradientTransform="translate(614.387 397.086) scale(64.4424 64.4579)">
<stop offset="0.4614" stop-color="#A08BE8"/>
<stop offset="0.5268" stop-color="#A793EA"/>
<stop offset="0.8352" stop-color="#C5B7F0"/>
<stop offset="1" stop-color="#D0C5F3"/>
</radialGradient>
<radialGradient id="paint5_radial" cx="0" cy="0" r="1" gradientUnits="userSpaceOnUse" gradientTransform="translate(652.273 194.601) scale(54.7183 54.7315)">
<stop stop-color="#A08BE8"/>
<stop offset="0.714" stop-color="#8065E0"/>
</radialGradient>
<radialGradient id="paint6_radial" cx="0" cy="0" r="1" gradientUnits="userSpaceOnUse" gradientTransform="translate(640.405 237.921) scale(15.6251 15.6289)">
<stop stop-color="#8065E0"/>
<stop offset="1" stop-color="#512BD4"/>
</radialGradient>
<radialGradient id="paint7_radial" cx="0" cy="0" r="1" gradientUnits="userSpaceOnUse" gradientTransform="translate(620.157 342.632) scale(24.1933 24.1991)">
<stop stop-color="#8065E0"/>
<stop offset="1" stop-color="#512BD4"/>
</radialGradient>
<radialGradient id="paint8_radial" cx="0" cy="0" r="1" gradientUnits="userSpaceOnUse" gradientTransform="translate(755.084 170.584) scale(155.565 155.603)">
<stop offset="0.2518" stop-color="#106EBE"/>
<stop offset="0.5255" stop-color="#1F7DCD"/>
<stop offset="0.8182" stop-color="#2B88D8"/>
</radialGradient>
<radialGradient id="paint9_radial" cx="0" cy="0" r="1" gradientUnits="userSpaceOnUse" gradientTransform="translate(359.048 543.706) scale(115.896 115.924)">
<stop offset="0.1359" stop-color="#E0BB95"/>
<stop offset="0.8007" stop-color="#BF8F68"/>
</radialGradient>
<radialGradient id="paint10_radial" cx="0" cy="0" r="1" gradientUnits="userSpaceOnUse" gradientTransform="translate(65.6698 611.327) scale(210.338 210.389)">
<stop offset="0.1359" stop-color="#E0BB95"/>
<stop offset="0.8007" stop-color="#BF8F68"/>
</radialGradient>
<radialGradient id="paint11_radial" cx="0" cy="0" r="1" gradientUnits="userSpaceOnUse" gradientTransform="translate(393.205 568.535) scale(82.571 82.5906)">
<stop offset="0.1359" stop-color="#E0BB95"/>
<stop offset="0.8007" stop-color="#BF8F68"/>
</radialGradient>
<radialGradient id="paint12_radial" cx="0" cy="0" r="1" gradientUnits="userSpaceOnUse" gradientTransform="translate(670.186 548.586) scale(119.59 119.619)">
<stop offset="0.1359" stop-color="#E0BB95"/>
<stop offset="0.8007" stop-color="#BF8F68"/>
</radialGradient>
<radialGradient id="paint13_radial" cx="0" cy="0" r="1" gradientUnits="userSpaceOnUse" gradientTransform="translate(542.951 471.191) scale(23.2812 23.2868)">
<stop stop-color="#8065E0"/>
<stop offset="1" stop-color="#512BD4"/>
</radialGradient>
<radialGradient id="paint14_radial" cx="0" cy="0" r="1" gradientUnits="userSpaceOnUse" gradientTransform="translate(588.287 469.376) scale(24.3436 24.3495)">
<stop stop-color="#8065E0"/>
<stop offset="1" stop-color="#512BD4"/>
</radialGradient>
<linearGradient id="paint15_linear" x1="554.651" y1="253.519" x2="494.204" y2="242.511" gradientUnits="userSpaceOnUse">
<stop stop-color="#BDB9F0"/>
<stop offset="0.2325" stop-color="#CEC3E2" stop-opacity="0.7675"/>
<stop offset="0.7251" stop-color="#EDD6C9" stop-opacity="0.2749"/>
<stop offset="1" stop-color="#F9DDBF" stop-opacity="0"/>
</linearGradient>
</defs>
</svg>
