<svg width="954" height="547" viewBox="0 0 954 547" fill="none" xmlns="http://www.w3.org/2000/svg">
<path d="M774.904 67.2024C626.508 71.1365 577.038 27.978 397.689 8.92461C161.603 -16.1551 3.49102 54.8233 0.0518155 246.414C-1.71371 344.722 41.3274 450.96 177.008 504.635C371.328 581.512 737.252 549.054 861.16 440.836C1020.05 302.069 964.357 62.1813 774.904 67.2024Z" fill="#F7B548"/>
<path d="M182.462 506.743C183.422 507.105 184.391 507.467 185.361 507.83C185.861 508.013 186.361 508.202 186.866 508.386C187.907 508.768 188.958 509.146 190.009 509.524C190.397 509.661 190.78 509.804 191.167 509.937C192.484 510.406 193.811 510.866 195.142 511.325C195.765 511.539 196.398 511.754 197.025 511.963C197.821 512.233 198.617 512.499 199.418 512.769C200.102 512.999 200.791 513.223 201.475 513.448C202.271 513.708 203.072 513.968 203.868 514.223C204.521 514.432 205.174 514.647 205.833 514.856L429.192 545.523H496.808C499.165 545.411 501.523 545.288 503.875 545.166C504.258 545.145 504.646 545.125 505.028 545.105C507.059 544.992 509.085 544.875 511.116 544.752C511.534 544.727 511.953 544.702 512.366 544.676C514.525 544.543 516.678 544.406 518.831 544.263C519.04 544.247 519.25 544.237 519.454 544.222C526.761 543.727 534.058 543.16 541.324 542.518C541.589 542.492 541.86 542.472 542.125 542.446C544.283 542.252 546.442 542.058 548.595 541.854C548.871 541.829 549.146 541.803 549.422 541.778C551.769 541.553 554.111 541.324 556.448 541.084C556.453 541.084 556.463 541.084 556.469 541.084L628.804 531.154C629.988 530.95 631.167 530.735 632.345 530.526C632.866 530.434 633.381 530.343 633.902 530.246C635.04 530.041 636.178 529.832 637.315 529.623C637.821 529.531 638.326 529.434 638.826 529.342C642.627 528.638 646.408 527.909 650.164 527.164C650.628 527.072 651.093 526.98 651.552 526.888C652.675 526.663 653.797 526.434 654.915 526.204C655.435 526.097 655.956 525.99 656.471 525.883C657.609 525.648 658.742 525.413 659.874 525.174C660.175 525.112 660.477 525.046 660.778 524.98C663.186 524.469 665.589 523.949 667.977 523.423C668.279 523.357 668.575 523.291 668.876 523.224C669.998 522.974 671.116 522.724 672.228 522.474C672.733 522.362 673.238 522.245 673.744 522.132C674.841 521.882 675.943 521.632 677.035 521.377C677.479 521.275 677.923 521.168 678.367 521.066C682.01 520.214 685.628 519.341 689.22 518.448C689.695 518.331 690.169 518.214 690.639 518.096C691.71 517.826 692.782 517.555 693.848 517.285C694.328 517.162 694.802 517.04 695.282 516.917C698.879 515.994 702.451 515.045 705.987 514.08C706.365 513.978 706.743 513.876 707.115 513.774C708.176 513.483 709.238 513.187 710.294 512.891C710.764 512.759 711.233 512.631 711.697 512.498C712.759 512.197 713.815 511.901 714.871 511.595C715.198 511.503 715.524 511.407 715.851 511.31C718.219 510.626 720.576 509.932 722.913 509.228C722.995 509.202 723.076 509.182 723.158 509.156C724.224 508.835 725.281 508.513 726.342 508.187C726.781 508.054 727.215 507.921 727.653 507.784C728.684 507.467 729.71 507.146 730.73 506.824C731.128 506.702 731.521 506.574 731.919 506.447C735.318 505.37 738.685 504.278 742.012 503.161C742.38 503.038 742.747 502.916 743.115 502.788C744.125 502.446 745.13 502.104 746.13 501.762C746.533 501.625 746.931 501.487 747.334 501.349C748.365 500.992 749.391 500.635 750.411 500.278C750.488 500.252 750.57 500.221 750.646 500.196C752.917 499.395 755.172 498.583 757.407 497.762C757.627 497.68 757.846 497.604 758.065 497.522C759.066 497.155 760.061 496.782 761.05 496.41C761.428 496.267 761.811 496.124 762.188 495.981C763.173 495.609 764.153 495.236 765.133 494.864C765.408 494.756 765.689 494.649 765.964 494.542C769.179 493.302 772.353 492.037 775.486 490.751C775.818 490.613 776.149 490.48 776.481 490.343C777.435 489.95 778.379 489.557 779.323 489.159C779.634 489.026 779.951 488.893 780.262 488.761C783.375 487.444 786.441 486.107 789.467 484.75C789.702 484.643 789.937 484.541 790.172 484.434C791.1 484.015 792.019 483.592 792.937 483.168C793.248 483.025 793.56 482.883 793.871 482.735C794.8 482.301 795.733 481.872 796.652 481.433C796.744 481.387 796.841 481.341 796.933 481.301C799.05 480.301 801.142 479.285 803.209 478.265C803.219 478.259 803.234 478.254 803.245 478.249C804.158 477.795 805.061 477.341 805.964 476.887C806.245 476.744 806.531 476.601 806.811 476.458C807.689 476.009 808.567 475.56 809.434 475.111C809.654 474.999 809.868 474.882 810.087 474.769C812.909 473.295 815.685 471.805 818.4 470.289C818.624 470.167 818.849 470.039 819.073 469.917C819.91 469.447 820.742 468.978 821.568 468.503C821.813 468.36 822.058 468.223 822.303 468.08C825.013 466.518 827.671 464.936 830.268 463.334C830.391 463.258 830.518 463.181 830.641 463.105C831.437 462.61 832.228 462.115 833.014 461.615C833.253 461.461 833.493 461.308 833.733 461.155C834.519 460.655 835.3 460.155 836.07 459.65C836.187 459.573 836.3 459.497 836.412 459.425C838.923 457.782 841.372 456.119 843.76 454.435C843.974 454.287 844.183 454.134 844.398 453.986C845.117 453.476 845.837 452.96 846.546 452.445C846.735 452.307 846.924 452.169 847.112 452.032C849.398 450.358 851.623 448.669 853.787 446.955C853.955 446.822 854.123 446.689 854.287 446.557C854.95 446.031 855.603 445.5 856.251 444.97C856.46 444.801 856.665 444.628 856.874 444.459C857.532 443.913 858.19 443.372 858.838 442.821L551.259 524.24L918.351 372.879C918.351 372.879 918.351 372.874 918.356 372.874C919.162 371.522 919.953 370.169 920.734 368.812C920.8 368.7 920.861 368.582 920.928 368.47C921.657 367.194 922.372 365.919 923.076 364.643C923.132 364.541 923.188 364.439 923.244 364.337C923.964 363.026 924.673 361.709 925.367 360.388C925.393 360.336 925.418 360.285 925.449 360.234C926.173 358.857 926.883 357.474 927.582 356.086L929.924 351.315C940.491 329.185 947.482 306.447 951.085 283.929L513.805 523.194L947.931 197.097V197.091C947.747 196.346 947.554 195.601 947.36 194.862C947.278 194.54 947.191 194.219 947.11 193.897C946.921 193.193 946.732 192.494 946.538 191.79C946.441 191.443 946.344 191.101 946.247 190.754C946.048 190.05 945.849 189.351 945.64 188.652C945.553 188.356 945.461 188.06 945.37 187.764C944.65 185.376 943.89 183.008 943.078 180.661C942.976 180.365 942.874 180.069 942.772 179.773C942.538 179.104 942.298 178.441 942.058 177.778C941.93 177.421 941.798 177.068 941.67 176.711C941.43 176.063 941.191 175.415 940.941 174.767C940.808 174.415 940.67 174.068 940.532 173.716C940.277 173.058 940.022 172.4 939.762 171.746C939.67 171.517 939.573 171.287 939.481 171.058C938.925 169.69 938.353 168.328 937.767 166.98C937.649 166.71 937.532 166.44 937.415 166.169C937.144 165.552 936.869 164.945 936.588 164.332C936.42 163.96 936.246 163.582 936.078 163.21C935.807 162.618 935.532 162.031 935.251 161.444C935.067 161.056 934.884 160.674 934.695 160.291C934.414 159.709 934.134 159.133 933.848 158.556C933.664 158.183 933.47 157.811 933.286 157.438C932.633 156.147 931.965 154.867 931.281 153.591C931.205 153.443 931.128 153.3 931.046 153.152C930.75 152.606 930.449 152.065 930.148 151.519C929.924 151.121 929.704 150.718 929.48 150.32C929.184 149.795 928.883 149.269 928.577 148.749C928.337 148.34 928.102 147.927 927.857 147.519C927.556 147.009 927.25 146.493 926.944 145.988C926.694 145.57 926.439 145.156 926.184 144.743C925.877 144.243 925.571 143.748 925.26 143.253C924.974 142.799 924.683 142.355 924.392 141.906C923.857 141.074 923.316 140.253 922.77 139.431C922.479 138.997 922.188 138.559 921.892 138.125C921.576 137.66 921.254 137.201 920.933 136.737C920.637 136.313 920.346 135.895 920.045 135.477C919.718 135.022 919.397 134.568 919.065 134.114C918.759 133.691 918.448 133.267 918.137 132.849C917.81 132.41 917.489 131.971 917.157 131.532C916.815 131.078 916.463 130.629 916.116 130.175C915.652 129.573 915.187 128.976 914.713 128.384C914.259 127.812 913.804 127.241 913.345 126.679C913.019 126.276 912.682 125.878 912.35 125.48C911.998 125.057 911.641 124.628 911.284 124.21C910.937 123.802 910.59 123.398 910.238 122.995C909.88 122.582 909.523 122.174 909.161 121.766C908.809 121.368 908.457 120.97 908.1 120.577C907.717 120.153 907.334 119.735 906.946 119.316C906.605 118.944 906.268 118.576 905.921 118.209C905.242 117.49 904.558 116.775 903.869 116.066C903.864 116.061 903.859 116.056 903.854 116.051L521.138 496.588L821.318 71.2541C820.67 71.1164 820.012 70.9888 819.359 70.8561C818.905 70.7643 818.451 70.6775 817.996 70.5857C817.348 70.4632 816.7 70.3357 816.047 70.2183C815.527 70.1213 815.001 70.0346 814.476 69.9428C813.465 69.7693 812.45 69.6009 811.424 69.4427C810.873 69.3559 810.327 69.2743 809.776 69.1927C809.174 69.1059 808.572 69.0192 807.965 68.9375C807.317 68.8508 806.668 68.7691 806.015 68.6875C805.255 68.5905 804.495 68.4987 803.729 68.4119C802.928 68.3201 802.127 68.2334 801.321 68.1517C800.8 68.1007 800.28 68.0497 799.754 68.0037C798.989 67.9323 798.218 67.866 797.443 67.8047C797.004 67.769 796.565 67.7333 796.126 67.6976C794.983 67.6108 793.83 67.5394 792.677 67.4731C792.269 67.4475 791.855 67.4322 791.447 67.4118C790.549 67.3659 789.646 67.3251 788.743 67.2894C788.355 67.274 787.967 67.2587 787.574 67.2485C786.344 67.2077 785.105 67.1771 783.865 67.1618C783.609 67.1567 783.354 67.1567 783.099 67.1567C782.038 67.1465 780.976 67.1414 779.905 67.1465C779.543 67.1465 779.18 67.1516 778.818 67.1516C777.517 67.1618 776.211 67.1822 774.894 67.2179C773.634 67.2536 772.378 67.2792 771.133 67.3098C770.746 67.32 770.358 67.3251 769.975 67.3302C769.113 67.3455 768.255 67.3659 767.398 67.3761C766.954 67.3812 766.51 67.3914 766.066 67.3965C765.265 67.4067 764.464 67.4169 763.663 67.4271C763.224 67.4322 762.785 67.4373 762.347 67.4424C761.525 67.4475 760.709 67.4577 759.892 67.4577C759.499 67.4577 759.101 67.4629 758.708 67.4629C757.8 67.468 756.892 67.468 755.989 67.468C755.703 67.468 755.412 67.468 755.126 67.468C752.667 67.4628 750.233 67.4475 747.829 67.4169C746.641 67.4016 745.462 67.3812 744.288 67.3608C744.125 67.3557 743.962 67.3557 743.798 67.3506C742.773 67.3302 741.752 67.3098 740.742 67.2843C740.553 67.2792 740.359 67.274 740.17 67.2689C739.155 67.2434 738.145 67.2179 737.139 67.1873C736.986 67.1822 736.838 67.1771 736.685 67.172C735.568 67.1363 734.46 67.1006 733.353 67.0597C733.328 67.0597 733.307 67.0597 733.282 67.0597C727.368 66.8454 721.607 66.5495 715.978 66.177L494.139 505.212L621.885 52.2109C621.875 52.2109 621.865 52.2058 621.849 52.2058C620.926 52.0017 620.002 51.7976 619.084 51.5935C619.048 51.5833 619.012 51.5782 618.982 51.5731C604.587 48.3686 590.192 44.8631 575.211 41.2351C574.598 41.0871 573.986 40.9391 573.374 40.7911C573.144 40.735 572.914 40.6789 572.685 40.6227C570.715 40.1482 568.73 39.6685 566.74 39.1889C566.715 39.1838 566.689 39.1787 566.664 39.1685C565.704 38.9389 564.745 38.7092 563.786 38.4745C563.714 38.4592 563.643 38.4388 563.571 38.4235C562.633 38.199 561.694 37.9744 560.75 37.7499C560.694 37.7346 560.632 37.7244 560.576 37.7091C559.586 37.4744 558.591 37.2346 557.596 36.9998C557.591 36.9998 557.591 36.9998 557.586 36.9998C552.483 35.7854 547.294 34.5658 541.997 33.3463C541.946 33.3361 541.895 33.3208 541.849 33.3106C540.844 33.081 539.834 32.8462 538.818 32.6166C538.767 32.6064 538.711 32.5911 538.66 32.5809C534.389 31.6063 530.042 30.6317 525.618 29.6673L478.714 466.799L430.009 12.7825C419.712 11.415 408.96 10.1189 397.693 8.92487C394.657 8.6034 391.642 8.30234 388.636 8.01149C388.269 7.97577 387.896 7.94005 387.529 7.90433C384.641 7.62878 381.768 7.36855 378.91 7.12362C378.472 7.0879 378.038 7.04708 377.599 7.01136C374.721 6.76643 371.859 6.54191 369.006 6.3276C368.674 6.30209 368.343 6.28168 368.016 6.25616C365.026 6.03675 362.051 5.83264 359.092 5.64384C359.081 5.64384 359.076 5.64384 359.066 5.64384C352.851 5.25093 346.697 4.93457 340.605 4.68964C340.462 4.68454 340.314 4.67943 340.171 4.66923C337.211 4.55187 334.267 4.44981 331.338 4.36817C331.185 4.36307 331.032 4.35796 330.874 4.35796C327.899 4.27632 324.939 4.20999 321.995 4.16406C321.995 4.16406 321.995 4.16406 321.99 4.16406L463.283 505.202L214.022 11.9099C214.017 11.9099 214.017 11.9099 214.012 11.9099C211.9 12.2824 209.802 12.6753 207.715 13.0733C207.435 13.1244 207.159 13.1805 206.879 13.2315C204.807 13.6346 202.745 14.048 200.699 14.4766C200.49 14.5225 200.286 14.5633 200.077 14.6093C198.061 15.0379 196.051 15.4767 194.061 15.9257C193.964 15.9462 193.872 15.9666 193.775 15.987C191.724 16.4564 189.688 16.9412 187.662 17.4361C187.417 17.4974 187.172 17.5586 186.922 17.6198C182.845 18.6302 178.819 19.6966 174.859 20.8192C174.676 20.8702 174.492 20.9213 174.308 20.9723C172.293 21.5489 170.292 22.1357 168.307 22.7378C168.302 22.7378 168.292 22.7429 168.287 22.7429C166.241 23.3655 164.21 24.0084 162.199 24.6615C162.179 24.6666 162.159 24.6768 162.138 24.682C160.148 25.33 158.173 25.9933 156.214 26.672C156.132 26.7026 156.051 26.7281 155.969 26.7587C152.055 28.1212 148.203 29.5448 144.422 31.0297C144.361 31.0552 144.304 31.0756 144.243 31.1011C134.625 34.8873 125.424 39.0817 116.668 43.6843H116.663L436.285 496.558L43.6335 104.825C42.6436 106.151 41.669 107.499 40.7097 108.851C40.6331 108.958 40.5566 109.065 40.4801 109.172C40.0514 109.779 39.6279 110.392 39.2044 111.009C39.0666 111.208 38.9288 111.412 38.7911 111.611C37.4389 113.596 36.1173 115.607 34.8314 117.648C34.7498 117.78 34.663 117.908 34.5814 118.041C34.1885 118.668 33.8007 119.301 33.4129 119.934C33.2802 120.148 33.1475 120.367 33.0148 120.587C31.7749 122.633 30.5656 124.71 29.3919 126.812C29.3052 126.97 29.2133 127.129 29.1266 127.287C28.7694 127.935 28.4122 128.583 28.0601 129.236C27.9326 129.471 27.805 129.705 27.6825 129.94C26.5497 132.053 25.4527 134.191 24.3913 136.359C24.2995 136.543 24.2127 136.722 24.1209 136.905C23.7994 137.569 23.4779 138.237 23.1616 138.906C23.0391 139.161 22.9217 139.416 22.7993 139.676C22.4778 140.355 22.1614 141.038 21.8502 141.722C21.8502 141.727 21.8451 141.732 21.8451 141.737C21.1613 143.238 20.4929 144.753 19.8397 146.284C19.753 146.493 19.6611 146.702 19.5693 146.912C19.2784 147.595 18.9927 148.279 18.712 148.968C18.5998 149.244 18.4875 149.514 18.3752 149.79C18.0895 150.489 17.8037 151.193 17.5282 151.897C17.5282 151.902 17.5231 151.907 17.5231 151.912C16.9159 153.453 16.324 155.015 15.7423 156.581C15.6555 156.821 15.5637 157.061 15.4769 157.296C15.2218 157.995 14.9717 158.694 14.7217 159.398C14.6197 159.694 14.5125 159.99 14.4105 160.286C14.1604 161.005 13.9104 161.72 13.6655 162.444C13.6604 162.454 13.6604 162.459 13.6553 162.47C13.1195 164.057 12.599 165.659 12.0938 167.271C12.0122 167.532 11.9305 167.797 11.8489 168.057C11.6295 168.772 11.4101 169.491 11.1958 170.216C11.1039 170.527 11.007 170.843 10.9151 171.16C10.6957 171.894 10.4814 172.634 10.2722 173.379C10.2722 173.384 10.2722 173.384 10.2722 173.389C9.80783 175.033 9.3588 176.686 8.92507 178.354C8.84853 178.64 8.77709 178.926 8.70055 179.212C8.51175 179.946 8.32806 180.686 8.14436 181.421C8.06272 181.753 7.98107 182.09 7.89943 182.426C7.71573 183.182 7.53204 183.937 7.35344 184.697L404.898 483.316L1.33228 280.99C1.49556 282.755 1.67926 284.516 1.87826 286.281C1.89357 286.439 1.91398 286.598 1.93439 286.756C2.01604 287.455 2.09768 288.154 2.17932 288.853C2.20483 289.062 2.23035 289.277 2.25586 289.486C2.3375 290.149 2.41915 290.807 2.50589 291.471C2.53141 291.685 2.56202 291.899 2.58754 292.114C2.67938 292.797 2.77123 293.486 2.86818 294.17C2.8937 294.343 2.91411 294.522 2.93962 294.696C3.05698 295.522 3.17945 296.349 3.30191 297.181C3.30701 297.206 3.30701 297.232 3.31212 297.257C3.57746 299.023 3.86321 300.788 4.16427 302.554C4.18468 302.686 4.21019 302.819 4.2306 302.947C4.35306 303.671 4.48063 304.396 4.6133 305.12C4.64902 305.314 4.68474 305.513 4.72046 305.707C4.84292 306.381 4.96539 307.049 5.09295 307.723C5.13377 307.927 5.16949 308.131 5.21032 308.34C5.34299 309.034 5.48076 309.723 5.61853 310.417C5.65425 310.585 5.68486 310.749 5.71548 310.917C5.88387 311.744 6.05226 312.565 6.22575 313.392C6.23085 313.417 6.23595 313.443 6.24106 313.468C6.61355 315.239 7.00646 317.004 7.41467 318.77C7.43509 318.867 7.4606 318.964 7.48101 319.061C7.6596 319.821 7.8382 320.576 8.02189 321.337C8.06272 321.505 8.10354 321.673 8.14436 321.847C8.31275 322.541 8.48624 323.235 8.65973 323.924C8.70565 324.107 8.75158 324.291 8.8026 324.48C8.9812 325.189 9.1649 325.893 9.35369 326.598C9.39452 326.746 9.43023 326.893 9.47106 327.041C9.69047 327.873 9.91499 328.7 10.1446 329.526C10.1497 329.542 10.1548 329.562 10.1599 329.578C10.6498 331.343 11.1549 333.109 11.6805 334.869C11.6958 334.92 11.7111 334.971 11.7264 335.022C11.9663 335.818 12.2061 336.614 12.4561 337.405C12.5021 337.548 12.548 337.691 12.5888 337.839C12.8133 338.548 13.0378 339.262 13.2623 339.972C13.3134 340.135 13.3695 340.298 13.4205 340.462C13.6502 341.176 13.89 341.895 14.1247 342.61C14.1706 342.742 14.2166 342.88 14.2574 343.013C14.5329 343.834 14.8136 344.661 15.0993 345.483C15.1044 345.498 15.1095 345.513 15.1146 345.528C15.7218 347.284 16.3495 349.034 16.9975 350.779C17.0026 350.8 17.0128 350.815 17.0179 350.835C17.319 351.652 17.6302 352.468 17.9415 353.279C17.9925 353.407 18.0385 353.535 18.0895 353.662C18.365 354.377 18.6457 355.091 18.9263 355.805C18.9876 355.958 19.0488 356.111 19.11 356.265C19.3958 356.974 19.6815 357.688 19.9724 358.397C20.0234 358.525 20.0795 358.658 20.1306 358.785C20.4571 359.581 20.7888 360.377 21.1256 361.173C21.1409 361.204 21.1511 361.235 21.1664 361.27C21.8961 362.995 22.6513 364.72 23.4218 366.434L413.583 527.306L71.4585 436.729C72.2596 437.55 73.0709 438.367 73.8873 439.183C73.9588 439.255 74.0302 439.321 74.0966 439.392C74.8109 440.102 75.5304 440.806 76.255 441.51C76.403 441.653 76.5509 441.796 76.6989 441.939C77.4388 442.653 78.1889 443.367 78.9441 444.077C79.0002 444.128 79.0564 444.184 79.1125 444.235C79.9595 445.031 80.8168 445.827 81.6791 446.618C81.72 446.653 81.7608 446.689 81.8016 446.73C82.5823 447.444 83.3732 448.154 84.1692 448.863C84.3325 449.006 84.4907 449.149 84.654 449.297C85.399 449.96 86.1491 450.618 86.9094 451.271C87.0165 451.363 87.1237 451.455 87.2258 451.547C88.9658 453.047 90.7313 454.537 92.5325 456.012C92.7111 456.155 92.8897 456.303 93.0632 456.446C93.8184 457.063 94.5787 457.675 95.3441 458.282C95.4972 458.405 95.6452 458.527 95.7983 458.645C97.6199 460.089 99.4722 461.523 101.355 462.941C101.549 463.089 101.743 463.232 101.937 463.38C102.707 463.957 103.478 464.528 104.259 465.1C104.452 465.243 104.646 465.385 104.84 465.528C106.749 466.916 108.683 468.294 110.652 469.651C110.861 469.794 111.071 469.942 111.285 470.085C112.076 470.626 112.867 471.167 113.663 471.703C113.897 471.861 114.132 472.019 114.367 472.177C115.336 472.825 116.311 473.468 117.291 474.111C117.311 474.121 117.326 474.137 117.347 474.147C118.373 474.815 119.403 475.473 120.444 476.137C120.664 476.275 120.883 476.412 121.102 476.55C121.919 477.065 122.74 477.576 123.567 478.086C123.838 478.254 124.108 478.423 124.383 478.586C125.292 479.142 126.21 479.698 127.129 480.25C127.256 480.326 127.389 480.408 127.517 480.484C128.578 481.117 129.649 481.745 130.726 482.372C130.951 482.5 131.175 482.627 131.4 482.76C132.252 483.25 133.109 483.74 133.971 484.23C134.278 484.403 134.584 484.571 134.89 484.745C135.773 485.24 136.655 485.73 137.548 486.215C137.763 486.332 137.972 486.449 138.186 486.567C139.288 487.169 140.401 487.766 141.518 488.358C141.733 488.47 141.952 488.587 142.171 488.7C143.075 489.174 143.983 489.649 144.896 490.118C145.228 490.292 145.565 490.46 145.902 490.634C146.774 491.077 147.652 491.521 148.529 491.96C148.81 492.098 149.086 492.241 149.361 492.379C150.509 492.945 151.662 493.511 152.821 494.073C153.01 494.165 153.203 494.256 153.392 494.348C154.362 494.813 155.341 495.277 156.326 495.736C156.689 495.905 157.051 496.073 157.413 496.241C158.286 496.65 159.169 497.053 160.051 497.451C160.383 497.604 160.715 497.752 161.051 497.905C162.24 498.441 163.439 498.976 164.644 499.502C164.776 499.563 164.914 499.619 165.052 499.681C166.129 500.15 167.21 500.614 168.297 501.079C168.675 501.237 169.052 501.395 169.43 501.558C170.328 501.936 171.231 502.314 172.14 502.686C172.507 502.839 172.874 502.992 173.247 503.14C174.492 503.65 175.742 504.15 177.002 504.651C178.365 505.191 179.743 505.722 181.12 506.253C181.569 506.406 182.018 506.574 182.462 506.743Z" fill="url(#paint0_radial)"/>
<path d="M932.868 344.931C891.128 363.163 834.743 387.151 777.2 410.424C601.627 481.423 537.39 496.971 514.417 497.512C473.958 498.466 390.131 487.026 294.068 459.334C217.324 437.208 107.494 397.254 10.563 330.965C10.961 332.374 11.3692 333.787 11.7927 335.19C108.33 400.535 217.074 440.035 293.277 462.002C385.952 488.72 467.355 500.344 509.631 500.344C511.31 500.344 512.932 500.323 514.489 500.288C556.535 499.298 681.142 452.271 778.272 412.991C834.509 390.248 889.669 366.807 931.148 348.718C931.73 347.462 932.301 346.197 932.868 344.931Z" fill="white"/>
<path d="M511.56 412.568L485.929 401.719L490.532 400.643C491.588 400.393 492.246 399.336 492.001 398.275L490.986 393.938C490.736 392.881 489.68 392.223 488.618 392.468L459.313 399.331C458.257 399.581 457.599 400.638 457.844 401.699L458.859 406.036C459.109 407.092 460.166 407.751 461.227 407.506L475.81 404.087L509.167 418.206L511.56 412.568Z" fill="#605D5A"/>
<path d="M439.536 336.695C418.518 309.549 411.614 290.465 417.808 276.647C425.442 259.609 448.578 258.002 468.993 256.583L470.269 274.907C457.303 275.81 437.704 277.167 434.576 284.158C433.458 286.658 433.933 290.786 435.949 296.098C438.888 303.844 444.985 313.718 454.068 325.449L439.536 336.695Z" fill="url(#paint1_linear)"/>
<path d="M454.115 325.536L438.22 329.195C439.858 333.353 453.181 349.942 435.658 387.886L447.088 402.357L506.152 388.595C508.285 388.1 508.734 386.33 507.08 384.564L454.115 325.536Z" fill="#522CD5"/>
<path d="M429.846 386.814C428.469 388.84 430.994 391.616 432.928 393.703L439.858 401.101C441.098 402.423 443.419 403.204 445.022 402.831L450.099 401.653C451.91 401.229 452.242 399.673 450.839 398.173L444.068 390.411C441.46 387.625 440.271 385.758 442.052 383.028C452.604 366.903 461.126 346.37 445.675 327.47L434.454 330.077C441.613 339.93 447.94 360.178 429.846 386.814Z" fill="url(#paint2_linear)"/>
<path d="M429.561 388.794L441.266 386.075C441.501 387.442 442.521 388.764 444.057 390.402L450.829 398.163C452.237 399.663 451.905 401.219 450.094 401.643L445.017 402.822C443.414 403.194 441.093 402.419 439.853 401.092L432.923 393.693C431.566 392.244 429.948 390.443 429.561 388.794Z" fill="url(#paint3_radial)"/>
<path d="M417.803 225.717C415.283 225.717 412.788 225.421 410.313 224.829C391.719 220.385 377.395 199.903 366.527 162.204L383.197 157.397C391.805 187.258 402.863 205.215 414.344 207.955C424.391 210.358 435.658 201.02 443.337 192.769L456.038 204.587C442.965 218.635 430.137 225.717 417.803 225.717Z" fill="#8A6FE8"/>
<path d="M580.732 426.176L508.391 413.078L577.665 388.457L577.104 386.881L507.794 411.516L555.331 355.377L554.055 354.3L506.534 410.419L519.638 338.058L517.989 337.762L504.891 410.103L480.27 340.829L478.694 341.39L503.329 410.7L447.19 363.163L446.113 364.439L502.232 411.96L429.871 398.857L429.575 400.505L501.916 413.603L432.642 438.224L433.203 439.801L502.513 415.165L454.976 471.305L456.252 472.381L503.778 416.262L490.67 488.623L492.318 488.919L505.416 416.578L530.037 485.852L531.614 485.291L506.978 415.981L563.118 463.518L564.194 462.242L508.075 414.721L580.436 427.825L580.732 426.176Z" fill="#B3AFAB"/>
<path d="M502.354 329.444C455.374 329.444 417.293 367.526 417.293 414.506C417.293 461.486 455.374 499.568 502.354 499.568C549.335 499.568 587.416 461.486 587.416 414.506C587.416 367.526 549.335 329.444 502.354 329.444ZM502.354 479.989C466.192 479.989 436.872 450.669 436.872 414.506C436.872 378.343 466.192 349.023 502.354 349.023C538.517 349.023 567.837 378.343 567.837 414.506C567.837 450.669 538.522 479.989 502.354 479.989Z" fill="#605D5A"/>
<path d="M502.355 345.155C464.054 345.155 433.005 376.205 433.005 414.506C433.005 452.807 464.054 483.856 502.355 483.856C540.656 483.856 571.706 452.807 571.706 414.506C571.706 376.205 540.661 345.155 502.355 345.155ZM502.355 477.447C467.596 477.447 439.414 449.265 439.414 414.506C439.414 379.746 467.596 351.564 502.355 351.564C537.115 351.564 565.297 379.746 565.297 414.506C565.297 449.265 537.12 477.447 502.355 477.447Z" fill="#FAF9F8"/>
<path d="M504.223 430.329C512.962 430.329 520.046 423.245 520.046 414.506C520.046 405.767 512.962 398.683 504.223 398.683C495.484 398.683 488.399 405.767 488.399 414.506C488.399 423.245 495.484 430.329 504.223 430.329Z" fill="#605D5A"/>
<path d="M515.668 301.073L514.479 300.961C512.086 300.737 509.963 302.497 509.744 304.89L500.416 404.949C496.614 406.464 493.93 410.169 493.93 414.506C493.93 420.191 498.538 424.798 504.223 424.798C509.907 424.798 514.515 420.191 514.515 414.506C514.515 411.072 512.826 408.041 510.244 406.173L519.597 305.814C519.821 303.416 518.061 301.298 515.668 301.073Z" fill="#E86E58"/>
<path d="M511.06 300.997C498.421 299.752 476.551 295.302 473.76 294.572C468.994 293.327 464.641 304.518 474.587 309.906C484.532 315.295 517.276 318.193 530.328 318.815C543.386 319.438 535.507 296.848 535.507 296.848L511.06 300.997Z" fill="#605D5A"/>
<path d="M396.525 134.512L388.565 156.642C388.228 157.581 387.708 158.444 387.039 159.178C386.371 159.918 385.56 160.515 384.656 160.939C383.753 161.362 382.779 161.607 381.784 161.653C380.789 161.699 379.794 161.551 378.855 161.214C377.916 160.878 377.053 160.357 376.314 159.689C375.574 159.02 374.977 158.209 374.553 157.306C374.13 156.403 373.885 155.428 373.839 154.433C373.793 153.438 373.941 152.443 374.278 151.504L382.233 129.374C382.911 127.481 384.32 125.934 386.141 125.077C387.963 124.22 390.05 124.123 391.943 124.802C393.836 125.48 395.382 126.889 396.245 128.71C397.102 130.532 397.204 132.619 396.525 134.512V134.512Z" fill="#8A6FE8"/>
<path d="M359.949 162.071L347.045 152.932C346.228 152.346 345.539 151.606 345.009 150.754C344.478 149.901 344.121 148.952 343.963 147.962C343.799 146.972 343.835 145.962 344.065 144.982C344.294 144.003 344.713 143.084 345.3 142.268C345.886 141.451 346.626 140.763 347.478 140.232C348.331 139.701 349.28 139.349 350.27 139.186C351.259 139.023 352.275 139.058 353.25 139.288C354.224 139.517 355.148 139.936 355.964 140.523L369.206 149.927L359.949 162.071Z" fill="#8A6FE8"/>
<path d="M359.036 153.571L348.05 134.726C347.55 133.859 347.223 132.9 347.091 131.905C346.958 130.91 347.024 129.899 347.285 128.935C347.545 127.965 347.989 127.057 348.601 126.266C349.213 125.47 349.974 124.802 350.841 124.302C351.709 123.802 352.668 123.475 353.663 123.342C354.658 123.21 355.668 123.276 356.633 123.536C357.602 123.797 358.511 124.246 359.307 124.853C360.103 125.465 360.771 126.225 361.271 127.093L369.481 141.079L359.036 153.571Z" fill="#8A6FE8"/>
<path d="M368.006 151.05L361.577 130.18C360.98 128.246 361.169 126.154 362.113 124.363C363.057 122.572 364.674 121.23 366.608 120.633C368.542 120.036 370.634 120.23 372.425 121.174C374.216 122.118 375.558 123.735 376.16 125.669L382.722 146.881L368.006 151.05Z" fill="#8A6FE8"/>
<path d="M358.337 145.805C359.791 142.998 362.041 140.692 364.807 139.166C367.572 137.64 370.731 136.972 373.879 137.242C377.028 137.513 380.028 138.707 382.493 140.681C384.962 142.656 386.789 145.315 387.748 148.325C388.708 151.336 388.749 154.561 387.871 157.597C386.993 160.633 385.238 163.337 382.819 165.373C380.401 167.409 377.436 168.68 374.298 169.032C371.16 169.379 367.986 168.792 365.179 167.338C363.317 166.373 361.658 165.052 360.306 163.45C358.954 161.847 357.928 159.99 357.296 157.99C356.658 155.99 356.423 153.887 356.602 151.795C356.78 149.703 357.372 147.667 358.337 145.805Z" fill="url(#paint4_radial)"/>
<path d="M421.85 109.728C434.039 109.728 443.919 99.8474 443.919 87.659C443.919 75.4705 434.039 65.5898 421.85 65.5898C409.662 65.5898 399.781 75.4705 399.781 87.659C399.781 99.8474 409.662 109.728 421.85 109.728Z" fill="url(#paint5_radial)"/>
<path d="M550.535 44.1382C562.723 44.1382 572.604 34.2575 572.604 22.0691C572.604 9.88068 562.723 0 550.535 0C538.346 0 528.466 9.88068 528.466 22.0691C528.466 34.2575 538.346 44.1382 550.535 44.1382Z" fill="url(#paint6_radial)"/>
<path d="M679.847 126.2C692.035 126.2 701.916 116.319 701.916 104.131C701.916 91.9422 692.035 82.0615 679.847 82.0615C667.658 82.0615 657.778 91.9422 657.778 104.131C657.778 116.319 667.658 126.2 679.847 126.2Z" fill="url(#paint7_radial)"/>
<path d="M556.342 444.081H526.955C525.669 444.081 524.628 443.04 524.628 441.755V438.014C524.628 436.728 525.669 435.688 526.955 435.688H556.342C557.627 435.688 558.668 436.728 558.668 438.014V441.755C558.668 443.04 557.627 444.081 556.342 444.081Z" fill="#605D5A"/>
<path d="M504.223 419.44C506.948 419.44 509.157 417.231 509.157 414.506C509.157 411.781 506.948 409.572 504.223 409.572C501.498 409.572 499.288 411.781 499.288 414.506C499.288 417.231 501.498 419.44 504.223 419.44Z" fill="#FAF9F8"/>
<path d="M518.193 362.607C510.651 347.987 497.935 318.3 501.645 293.378L522.03 302.272C518.667 324.872 530.817 351.187 536.94 362.663C537.445 363.612 528.357 364.51 518.193 362.607Z" fill="url(#paint8_linear)"/>
<path d="M518.193 362.607C510.651 347.987 497.935 318.3 501.645 293.378L522.03 302.272C518.667 324.872 532.215 351.187 538.343 362.663C538.843 363.612 528.357 364.51 518.193 362.607Z" fill="url(#paint9_linear)"/>
<path d="M538.053 362.5H522.117C522.694 366.908 531.756 386.038 504.666 418.961L512.381 435.606L574.731 435.57C576.981 435.57 577.879 433.952 576.68 431.865L538.053 362.5Z" fill="#522CD5"/>
<path d="M499.145 416.603C497.257 418.262 499.068 421.532 500.466 423.992L505.492 432.743C506.39 434.31 508.508 435.59 510.202 435.59H515.56C517.473 435.59 518.198 434.151 517.177 432.376L512.401 423.303C510.508 420.007 509.799 417.92 512.269 415.675C526.878 402.387 540.584 384.359 529.985 362.5H518.142C522.78 373.695 523.944 394.805 499.145 416.603Z" fill="url(#paint10_linear)"/>
<path d="M498.364 418.466H510.723C510.611 419.849 511.294 421.364 512.407 423.303L517.183 432.376C518.203 434.151 517.479 435.59 515.565 435.59H510.207C508.518 435.59 506.401 434.31 505.503 432.743L500.477 423.992C499.487 422.267 498.328 420.155 498.364 418.466Z" fill="url(#paint11_radial)"/>
<path d="M432.029 190.437C439.239 167.679 452.343 154.141 452.343 154.141L447.74 151.248L447.684 151.09C476.846 119.362 525.382 111.947 563.163 135.721C605.729 162.505 618.522 218.721 591.738 261.288C564.954 303.854 508.738 316.647 466.171 289.863C432.585 268.727 417.542 229.268 425.844 192.646C426.339 191.177 427.804 188.911 432.029 190.437Z" fill="url(#paint12_radial)"/>
<path d="M423.594 209.965L556.494 293.593C550.319 296.782 543.824 299.241 537.134 300.951L425.339 230.605C423.982 223.834 423.39 216.91 423.594 209.965Z" fill="#D8CFF7"/>
<path d="M579.512 144.222L565.811 133.18L579.083 120.673L588.916 128.598L579.512 144.222Z" fill="#8A6FE8"/>
<path d="M589.727 129.924C596.649 129.924 602.259 124.313 602.259 117.392C602.259 110.471 596.649 104.86 589.727 104.86C582.806 104.86 577.195 110.471 577.195 117.392C577.195 124.313 582.806 129.924 589.727 129.924Z" fill="#D8CFF7"/>
<path d="M577.828 157.045C578.446 157.545 579.369 157.407 579.798 156.739C584.314 149.651 582.875 140.15 576.18 134.751C569.48 129.353 559.892 129.97 553.927 135.889C553.366 136.451 553.427 137.379 554.044 137.879L577.828 157.045Z" fill="url(#paint13_radial)"/>
<path d="M431.999 190.417C439.122 167.939 451.986 154.463 452.302 154.137L532.261 204.449C532.261 204.449 537.619 207.108 534.726 211.71C531.833 216.313 523.459 229.197 514.412 243.571C512.55 246.531 509.233 246.429 507.325 245.23C507.325 245.235 431.468 195.402 431.999 190.417Z" fill="url(#paint14_radial)"/>
<path d="M479.143 220.334C479.143 220.334 472.974 202.862 471.703 199.551C470.433 196.239 468.397 194.821 465.003 195.336C461.61 195.851 443.23 197.739 443.23 197.739L479.143 220.334Z" fill="#A08BE8"/>
<path d="M425.569 193.708C425.569 193.708 426.018 188.258 431.999 190.417C432.004 190.391 510.651 239.821 510.651 239.821C512.483 240.974 515.525 241.362 516.841 239.719C516.04 240.99 515.229 242.275 514.412 243.571C512.723 246.255 509.84 246.419 507.896 245.531C507.702 245.439 507.513 245.347 507.33 245.23L501.957 241.847L425.569 193.708Z" fill="#512BD4"/>
<path d="M508.401 214.144C512.006 208.6 512.255 202.366 508.957 200.222C505.659 198.077 500.063 200.834 496.458 206.378C492.852 211.923 492.603 218.156 495.901 220.301C499.199 222.445 504.795 219.689 508.401 214.144Z" fill="#512BD4"/>
<path d="M460.02 183.382C463.459 177.732 463.522 171.494 460.162 169.449C456.801 167.403 451.289 170.325 447.85 175.975C444.412 181.625 444.348 187.863 447.709 189.908C451.069 191.954 456.581 189.032 460.02 183.382Z" fill="#512BD4"/>
<path d="M505.702 205.204C505.248 203.199 503.926 201.612 502.227 200.745C500.171 201.913 498.124 203.847 496.486 206.368C495.466 207.934 494.726 209.557 494.246 211.129C495.808 212.869 498.242 213.736 500.681 213.18C504.273 212.363 506.518 208.792 505.702 205.204Z" fill="#8065E0"/>
<path d="M457.389 174.343C456.93 172.333 455.613 170.746 453.909 169.883C451.725 171.077 449.541 173.185 447.852 175.955C446.99 177.369 446.342 178.823 445.903 180.237C447.464 181.997 449.914 182.875 452.368 182.319C455.955 181.502 458.206 177.93 457.389 174.343Z" fill="#8065E0"/>
<path d="M473.078 235.53L448.206 219.878L434.362 241.879L459.234 257.53L473.078 235.53Z" fill="#512BD4"/>
<path d="M443.138 236.407C442.949 236.29 442.832 236.127 442.776 235.917C442.725 235.708 442.755 235.514 442.868 235.336C442.98 235.157 443.143 235.045 443.358 234.999C443.572 234.953 443.771 234.989 443.96 235.106C444.148 235.228 444.271 235.392 444.322 235.601C444.378 235.815 444.348 236.009 444.235 236.193C444.123 236.371 443.96 236.479 443.745 236.525C443.526 236.565 443.327 236.525 443.138 236.407Z" fill="white"/>
<path d="M450.715 241.025L449.496 240.255L449.47 233.152C449.47 232.973 449.486 232.794 449.521 232.626L449.491 232.611C449.424 232.774 449.236 233.101 448.93 233.585L446.077 238.116L444.995 237.438L449.343 230.529L450.644 231.35L450.634 238.264C450.634 238.555 450.634 238.749 450.618 238.846L450.639 238.856C450.721 238.652 450.904 238.336 451.175 237.897L453.976 233.448L455.053 234.126L450.715 241.025Z" fill="white"/>
<path d="M455.981 244.342L452.2 241.964L456.548 235.055L460.181 237.341L459.568 238.316L457.053 236.734L455.823 238.688L458.14 240.148L457.533 241.117L455.216 239.658L453.93 241.699L456.594 243.378L455.981 244.342Z" fill="white"/>
<path d="M465.09 241.786L463.156 240.566L459.421 246.5L458.303 245.796L462.038 239.862L460.104 238.647L460.717 237.673L465.702 240.811L465.09 241.786Z" fill="white"/>
<path d="M593.789 268.294C584.859 267.498 574.726 264.824 563.423 259.247L571.424 243.03C589.181 251.792 605.49 252.792 618.588 245.923C632.769 238.489 640.892 223.15 642.652 211.246L660.542 213.889C658.292 229.12 648.153 250.842 626.987 261.941C619.098 266.074 607.97 269.559 593.789 268.294Z" fill="url(#paint15_linear)"/>
<path d="M628.258 191.437L636.162 214.69C636.912 216.573 638.361 218.093 640.203 218.946C642.045 219.793 644.143 219.905 646.061 219.252C647.98 218.599 649.582 217.236 650.531 215.445C651.48 213.654 651.705 211.562 651.159 209.608L643.255 186.355C642.964 185.319 642.469 184.349 641.79 183.513C641.117 182.676 640.275 181.982 639.326 181.482C638.372 180.977 637.331 180.675 636.254 180.589C635.182 180.502 634.101 180.635 633.08 180.982C632.06 181.329 631.121 181.875 630.32 182.599C629.518 183.319 628.875 184.196 628.421 185.176C627.972 186.156 627.722 187.212 627.697 188.289C627.666 189.365 627.86 190.437 628.258 191.437Z" fill="#8A6FE8"/>
<path d="M665.947 220.895L679.586 211.587C681.245 210.353 682.362 208.521 682.694 206.48C683.031 204.439 682.556 202.346 681.383 200.647C680.204 198.948 678.413 197.769 676.387 197.366C674.361 196.963 672.254 197.361 670.514 198.484L656.532 208.041L665.947 220.895Z" fill="#8A6FE8"/>
<path d="M667.059 212.032L678.851 192.575C679.938 190.764 680.264 188.595 679.754 186.544C679.244 184.493 677.938 182.727 676.126 181.64C674.315 180.553 672.146 180.227 670.095 180.737C668.043 181.247 666.283 182.554 665.191 184.365L656.384 198.785L667.059 212.032Z" fill="#8A6FE8"/>
<path d="M657.736 209.235L664.819 187.564C665.145 186.569 665.273 185.518 665.196 184.477C665.12 183.431 664.834 182.416 664.364 181.482C663.895 180.548 663.242 179.716 662.451 179.032C661.66 178.349 660.736 177.828 659.741 177.502C658.746 177.175 657.7 177.048 656.654 177.124C655.608 177.201 654.593 177.486 653.659 177.961C652.725 178.43 651.893 179.084 651.21 179.88C650.526 180.67 650.005 181.594 649.679 182.589L642.464 204.648L657.736 209.235Z" fill="#8A6FE8"/>
<path d="M644.296 225.569C647.112 227.288 650.373 228.136 653.664 227.998C656.96 227.865 660.139 226.753 662.808 224.809C665.477 222.864 667.502 220.175 668.645 217.078C669.783 213.981 669.977 210.618 669.207 207.408C668.431 204.204 666.727 201.295 664.303 199.06C661.879 196.825 658.843 195.361 655.588 194.851C652.332 194.34 648.995 194.805 646 196.193C643.005 197.581 640.489 199.821 638.769 202.637C637.626 204.505 636.861 206.582 636.524 208.745C636.182 210.909 636.274 213.118 636.784 215.251C637.3 217.379 638.228 219.39 639.514 221.16C640.8 222.931 642.423 224.426 644.296 225.569Z" fill="url(#paint16_radial)"/>
<path d="M558.897 266.738C568.132 266.738 575.618 259.251 575.618 250.016C575.618 240.781 568.132 233.295 558.897 233.295C549.662 233.295 542.175 240.781 542.175 250.016C542.175 259.251 549.662 266.738 558.897 266.738Z" fill="url(#paint17_radial)"/>
<defs>
<radialGradient id="paint0_radial" cx="0" cy="0" r="1" gradientUnits="userSpaceOnUse" gradientTransform="translate(468.138 376.751) scale(571.919)">
<stop offset="0.2776" stop-color="#FCCF84"/>
<stop offset="0.9823" stop-color="#F7B548"/>
</radialGradient>
<linearGradient id="paint1_linear" x1="442.553" y1="257.043" x2="443.89" y2="336.642" gradientUnits="userSpaceOnUse">
<stop stop-color="#522CD5"/>
<stop offset="0.3045" stop-color="#8A6FE8"/>
</linearGradient>
<linearGradient id="paint2_linear" x1="433.512" y1="325.294" x2="420.368" y2="398.746" gradientUnits="userSpaceOnUse">
<stop stop-color="#522CD5"/>
<stop offset="0.4397" stop-color="#8A6FE8"/>
</linearGradient>
<radialGradient id="paint3_radial" cx="0" cy="0" r="1" gradientUnits="userSpaceOnUse" gradientTransform="translate(439.675 373.235) rotate(166.914) scale(27.6704 26.461)">
<stop offset="0.034" stop-color="#522CD5"/>
<stop offset="0.9955" stop-color="#8A6FE8"/>
</radialGradient>
<radialGradient id="paint4_radial" cx="0" cy="0" r="1" gradientUnits="userSpaceOnUse" gradientTransform="translate(374.617 143.955) scale(25.1848)">
<stop stop-color="#8065E0"/>
<stop offset="1" stop-color="#512BD4"/>
</radialGradient>
<radialGradient id="paint5_radial" cx="0" cy="0" r="1" gradientUnits="userSpaceOnUse" gradientTransform="translate(417.708 81.585) scale(22.0697)">
<stop offset="0.4204" stop-color="#ED9583"/>
<stop offset="0.9824" stop-color="#E86E58"/>
</radialGradient>
<radialGradient id="paint6_radial" cx="0" cy="0" r="1" gradientUnits="userSpaceOnUse" gradientTransform="translate(542.563 13.3988) scale(22.0697)">
<stop offset="0.4204" stop-color="#ED9583"/>
<stop offset="0.9824" stop-color="#E86E58"/>
</radialGradient>
<radialGradient id="paint7_radial" cx="0" cy="0" r="1" gradientUnits="userSpaceOnUse" gradientTransform="translate(673.501 97.0029) scale(22.0697)">
<stop offset="0.4204" stop-color="#ED9583"/>
<stop offset="0.9824" stop-color="#E86E58"/>
</radialGradient>
<linearGradient id="paint8_linear" x1="508.074" y1="294.527" x2="496.104" y2="358.412" gradientUnits="userSpaceOnUse">
<stop stop-color="#522CD5"/>
<stop offset="0.4397" stop-color="#8A6FE8"/>
</linearGradient>
<linearGradient id="paint9_linear" x1="508.465" y1="294.6" x2="496.495" y2="358.485" gradientUnits="userSpaceOnUse">
<stop stop-color="#522CD5"/>
<stop offset="0.4397" stop-color="#8A6FE8"/>
</linearGradient>
<linearGradient id="paint10_linear" x1="517.878" y1="357.154" x2="487.5" y2="425.962" gradientUnits="userSpaceOnUse">
<stop stop-color="#522CD5"/>
<stop offset="0.4397" stop-color="#8A6FE8"/>
</linearGradient>
<radialGradient id="paint11_radial" cx="0" cy="0" r="1" gradientUnits="userSpaceOnUse" gradientTransform="translate(512.423 405.569) rotate(180) scale(28.4461 26.4001)">
<stop offset="0.034" stop-color="#522CD5"/>
<stop offset="0.9955" stop-color="#8A6FE8"/>
</radialGradient>
<radialGradient id="paint12_radial" cx="0" cy="0" r="1" gradientUnits="userSpaceOnUse" gradientTransform="translate(499.468 153.068) rotate(-147.82) scale(114.782)">
<stop offset="0.3472" stop-color="#A08BE8"/>
<stop offset="0.684" stop-color="#8065E0"/>
<stop offset="0.7596" stop-color="#8065E0"/>
</radialGradient>
<radialGradient id="paint13_radial" cx="0" cy="0" r="1" gradientUnits="userSpaceOnUse" gradientTransform="translate(570.066 136.608) scale(13.8047)">
<stop stop-color="#8065E0"/>
<stop offset="1" stop-color="#512BD4"/>
</radialGradient>
<radialGradient id="paint14_radial" cx="0" cy="0" r="1" gradientUnits="userSpaceOnUse" gradientTransform="translate(515.011 198.016) scale(88.3822)">
<stop offset="0.0933" stop-color="#E1DFDD"/>
<stop offset="0.6573" stop-color="white"/>
</radialGradient>
<linearGradient id="paint15_linear" x1="563.424" y1="239.902" x2="660.544" y2="239.902" gradientUnits="userSpaceOnUse">
<stop offset="0.1526" stop-color="#9780E6"/>
<stop offset="1" stop-color="#8A6FE8"/>
</linearGradient>
<radialGradient id="paint16_radial" cx="0" cy="0" r="1" gradientUnits="userSpaceOnUse" gradientTransform="translate(651.017 201.02) scale(28.5881)">
<stop stop-color="#8065E0"/>
<stop offset="1" stop-color="#512BD4"/>
</radialGradient>
<radialGradient id="paint17_radial" cx="0" cy="0" r="1" gradientUnits="userSpaceOnUse" gradientTransform="translate(556.567 243.889) scale(16.7222)">
<stop stop-color="#8065E0"/>
<stop offset="1" stop-color="#512BD4"/>
</radialGradient>
</defs>
</svg>
