<svg width="949" height="547" viewBox="0 0 949 547" fill="none" xmlns="http://www.w3.org/2000/svg">
<path d="M948.799 321.158C953.183 219.224 886.13 98.9043 725.48 84.9567C616.56 75.5012 475.581 46.3197 333.915 8.78233C201.577 -26.2856 40.1708 44.9499 7.29251 199.493C-9.20801 277.052 3.2177 346.692 35.2319 401.972H929.804C941.013 376.58 947.596 349.161 948.799 321.158Z" fill="url(#paint0_linear)"/>
<path d="M235.29 404.412C235.143 390.926 237.063 363.546 250.986 340.614L264.599 348.882C251.972 369.678 251.02 393.945 251.315 404.535C251.339 405.409 243.175 406.204 235.29 404.412Z" fill="url(#paint1_linear)"/>
<path d="M320.022 404.412C320.169 390.926 318.249 363.546 304.326 340.614L290.713 348.882C303.34 369.678 304.292 393.945 303.997 404.535C303.973 405.409 312.142 406.204 320.022 404.412Z" fill="url(#paint2_linear)"/>
<path d="M734.42 164.116H729.265C727.763 164.116 726.525 165.285 726.432 166.782L724.689 196.086C724.591 197.716 725.887 199.091 727.522 199.091H736.163C737.793 199.091 739.089 197.716 738.995 196.086L737.252 166.782C737.159 165.285 735.917 164.116 734.42 164.116Z" fill="#D2F6FE"/>
<path d="M737.63 173.208H726.054L724.694 196.086C724.596 197.716 725.892 199.09 727.527 199.09H736.167C737.797 199.09 739.093 197.716 739 196.086L737.63 173.208Z" fill="#1DACCC"/>
<path d="M738.151 167.381C738.151 167.361 738.156 167.341 738.156 167.317V163.6C738.156 162.923 737.679 162.373 737.09 162.373H726.452C725.863 162.373 725.386 162.923 725.386 163.6V167.317C725.386 167.336 725.391 167.356 725.391 167.381H738.151Z" fill="#179BB8"/>
<path d="M753.139 164.116H747.984C746.482 164.116 745.245 165.285 745.152 166.782L743.409 196.086C743.311 197.716 744.607 199.091 746.242 199.091H754.882C756.512 199.091 757.808 197.716 757.715 196.086L755.972 166.782C755.879 165.285 754.641 164.116 753.139 164.116Z" fill="#D2F6FE"/>
<path d="M756.35 173.208H744.774L743.414 196.086C743.316 197.716 744.612 199.09 746.247 199.09H754.887C756.517 199.09 757.813 197.716 757.72 196.086L756.35 173.208Z" fill="#77E3FB"/>
<path d="M756.87 167.381C756.87 167.361 756.875 167.341 756.875 167.317V163.6C756.875 162.923 756.399 162.373 755.81 162.373H745.171C744.582 162.373 744.106 162.923 744.106 163.6V167.317C744.106 167.336 744.111 167.356 744.111 167.381H756.87Z" fill="#179BB8"/>
<path d="M771.859 164.116H766.704C765.202 164.116 763.965 165.285 763.871 166.782L762.129 196.086C762.03 197.716 763.326 199.091 764.961 199.091H773.602C775.232 199.091 776.528 197.716 776.435 196.086L774.692 166.782C774.603 165.285 773.361 164.116 771.859 164.116Z" fill="#D2F6FE"/>
<path d="M775.074 173.208H763.498L762.138 196.086C762.04 197.716 763.336 199.09 764.971 199.09H773.611C775.241 199.09 776.537 197.716 776.444 196.086L775.074 173.208Z" fill="#27BEE0"/>
<path d="M775.59 167.381C775.59 167.361 775.595 167.341 775.595 167.317V163.6C775.595 162.923 775.119 162.373 774.529 162.373H763.891C763.302 162.373 762.825 162.923 762.825 163.6V167.317C762.825 167.336 762.83 167.356 762.83 167.381H775.59Z" fill="#179BB8"/>
<path d="M870.268 198.943H846.654C845.318 198.943 844.238 197.863 844.238 196.528V174.362C844.238 173.026 845.318 171.946 846.654 171.946H870.268C871.603 171.946 872.683 173.026 872.683 174.362V196.528C872.683 197.863 871.599 198.943 870.268 198.943Z" fill="#179BB8"/>
<path d="M873.842 174.926V166.87C873.842 165.309 872.575 164.042 871.014 164.042H845.608C844.047 164.042 842.78 165.309 842.78 166.87V174.926H873.842Z" fill="#D2F6FE"/>
<path d="M858.461 192.948C864.152 192.948 868.766 189.634 868.766 185.545C868.766 181.456 864.152 178.142 858.461 178.142C852.77 178.142 848.156 181.456 848.156 185.545C848.156 189.634 852.77 192.948 858.461 192.948Z" fill="#1DACCC"/>
<path d="M836.668 149.505H821.145C820.089 149.505 819.235 150.36 819.235 151.415V197.141C819.235 198.197 820.089 199.051 821.145 199.051H836.668C837.724 199.051 838.578 198.197 838.578 197.141V151.415C838.578 150.365 837.724 149.505 836.668 149.505Z" fill="#77E3FB"/>
<path d="M836.717 149.505C832.387 148.092 833.163 139.48 833.163 139.48H824.812C824.812 139.48 825.588 148.092 821.258 149.505H836.717Z" fill="#77E3FB"/>
<path d="M832.662 140.644H824.93C824.125 140.644 823.477 139.991 823.477 139.191V134.006C823.477 133.201 824.13 132.553 824.93 132.553H832.662C833.467 132.553 834.115 133.206 834.115 134.006V139.191C834.115 139.996 833.462 140.644 832.662 140.644Z" fill="#179BB8"/>
<path d="M838.578 156.133H819.131V174.274H838.578V156.133Z" fill="#D2F6FE"/>
<path d="M810.962 173.621H791.099C789.749 173.621 788.654 174.715 788.654 176.065V196.651C788.654 198.001 789.749 199.096 791.099 199.096H810.962C812.312 199.096 813.407 198.001 813.407 196.651V176.065C813.407 174.71 812.312 173.621 810.962 173.621Z" fill="#1DACCC"/>
<path d="M811.026 173.615C805.483 171.809 806.48 160.787 806.48 160.787H795.792C795.792 160.787 796.784 171.809 791.246 173.615H811.026Z" fill="#1DACCC"/>
<path d="M805.832 162.28H795.935C794.909 162.28 794.074 161.445 794.074 160.419V153.786C794.074 152.76 794.909 151.926 795.935 151.926H805.832C806.858 151.926 807.693 152.76 807.693 153.786V160.419C807.693 161.445 806.858 162.28 805.832 162.28Z" fill="#179BB8"/>
<path d="M813.328 177.759H788.659V191.981H813.328V177.759Z" fill="#77E3FB"/>
<path d="M396.279 338.92C379.141 333.117 350.735 319.985 324.96 275.378L338.299 267.67C349.679 287.366 362.856 302.453 377.466 312.503C389.485 320.77 400.104 324.045 407.134 326.21L408.489 326.627L403.913 341.336L402.593 340.928C400.722 340.364 398.601 339.711 396.279 338.92Z" fill="#8A6FE8"/>
<path d="M351.903 309.768C361.251 289.689 360.789 272.206 360.789 272.206L365.753 273.115L365.895 273.041C365.866 233.049 337.332 197.529 296.584 190.077C250.676 181.682 206.654 212.091 198.259 257.998C189.863 303.906 220.272 347.929 266.18 356.324C302.407 362.947 337.45 345.41 354.751 315.164C355.325 313.843 355.747 311.374 351.903 309.768Z" fill="url(#paint3_radial)"/>
<path d="M351.904 309.768C361.138 289.934 360.799 272.648 360.79 272.226L274.551 256.452C274.551 256.452 269.219 254.906 268.311 259.869C267.403 264.832 265.041 278.893 262.209 294.402C261.624 297.593 263.956 299.606 266.014 299.984C266.009 299.979 350.627 312.459 351.904 309.768Z" fill="url(#paint4_radial)"/>
<path d="M300.875 300.47C300.875 300.47 316.055 292.399 319 290.931C321.946 289.463 324.229 289.767 326.227 292.251C328.225 294.735 339.605 307.554 339.605 307.554L300.875 300.47Z" fill="#A08BE8"/>
<path d="M354.235 316.052C354.235 316.052 357.348 312.041 351.904 309.768C351.913 309.749 267.128 294.196 267.128 294.196C265.154 293.837 262.832 292.193 262.96 290.239C262.714 291.608 262.459 292.998 262.204 294.397C261.674 297.289 263.544 299.213 265.429 299.827C265.616 299.886 265.807 299.94 266.004 299.979L271.802 301.039L354.235 316.052Z" fill="#512BD4"/>
<path d="M345.349 328.4L202.014 302.184C204.233 308.237 207.13 313.996 210.635 319.362L331.21 341.415C336.38 337.639 341.132 333.275 345.349 328.4Z" fill="#D8CFF7"/>
<path d="M301.266 281.911C302.327 275.865 300.274 270.453 296.68 269.822C293.085 269.191 289.311 273.58 288.25 279.626C287.188 285.672 289.242 291.085 292.836 291.716C296.43 292.347 300.205 287.957 301.266 281.911Z" fill="#512BD4"/>
<path d="M295.754 275.275C292.932 277.194 292.195 281.038 294.115 283.861C295.421 285.786 297.62 286.733 299.78 286.542C300.448 285.172 300.973 283.601 301.273 281.893C301.754 279.148 301.587 276.541 300.934 274.445C299.235 273.959 297.335 274.2 295.754 275.275Z" fill="#8065E0"/>
<path d="M349.771 290.612C351.013 284.6 349.122 279.129 345.548 278.391C341.974 277.653 338.07 281.928 336.829 287.939C335.588 293.951 337.479 299.422 341.053 300.16C344.627 300.898 348.53 296.623 349.771 290.612Z" fill="#512BD4"/>
<path d="M344.333 283.469C341.51 285.389 340.773 289.233 342.693 292.056C344.009 293.99 346.223 294.942 348.398 294.736C348.997 293.499 349.473 292.105 349.782 290.597C350.391 287.652 350.244 284.839 349.517 282.644C347.813 282.153 345.914 282.394 344.333 283.469Z" fill="#8065E0"/>
<path d="M390.03 307.068L398.386 328.974C399.873 332.877 404.247 334.835 408.15 333.348C412.053 331.86 414.012 327.486 412.525 323.583L404.169 301.677C402.681 297.774 398.307 295.815 394.404 297.303C390.501 298.791 388.542 303.165 390.03 307.068Z" fill="#8A6FE8"/>
<path d="M403.344 347.453C412.14 347.453 419.27 340.322 419.27 331.527C419.27 322.731 412.14 315.601 403.344 315.601C394.549 315.601 387.418 322.731 387.418 331.527C387.418 340.322 394.549 347.453 403.344 347.453Z" fill="url(#paint5_radial)"/>
<path d="M408.828 265.377H406.722C406.413 265.377 406.162 265.132 406.162 264.823C406.162 264.332 406.157 263.792 406.152 263.208C406.138 261.16 406.123 258.612 406.162 255.279C406.216 250.767 402.593 248.19 401.297 247.419C401.047 247.272 400.949 246.957 401.076 246.692L401.994 244.787C402.137 244.493 402.495 244.38 402.775 244.542C404.454 245.509 409.471 248.936 409.388 255.323C409.349 258.627 409.363 261.155 409.378 263.188C409.383 263.782 409.388 264.322 409.388 264.823C409.393 265.127 409.142 265.377 408.828 265.377Z" fill="white"/>
<path d="M418.421 297.681C418.337 293.631 416.516 290.077 413.781 287.956C413.428 287.681 413.217 287.259 413.217 286.807V265.687C413.217 264.881 412.564 264.233 411.764 264.233H403.855C403.049 264.233 402.401 264.886 402.401 265.687V286.935C402.401 287.376 402.2 287.789 401.856 288.069C399.196 290.204 397.438 293.705 397.355 297.686H397.35V297.932C397.35 297.951 397.35 297.966 397.35 297.986C397.35 298.005 397.35 298.02 397.35 298.04V362.687C397.35 364.194 398.572 365.416 400.079 365.416H415.956C417.326 365.416 418.436 364.307 418.436 362.937V297.691H418.421V297.681Z" fill="white"/>
<path d="M411.626 266.605H404.007V275.619H411.626V266.605Z" fill="#E0BB95"/>
<path d="M413.212 268.298V265.682C413.212 264.877 412.559 264.229 411.759 264.229H403.85C403.045 264.229 402.396 264.881 402.396 265.682V268.298H413.212Z" fill="#605D5A"/>
<path d="M397.34 298.123V362.677C397.34 364.184 398.562 365.406 400.069 365.406H415.947C417.316 365.406 418.426 364.297 418.426 362.927V298.123H397.34Z" fill="#E8D441"/>
<path d="M423.463 329.254H411.504C407.414 329.254 404.1 325.94 404.1 321.85C404.1 317.761 407.414 314.447 411.504 314.447H423.468C427.557 314.447 430.871 317.761 430.871 321.85C430.871 325.94 427.552 329.254 423.463 329.254Z" fill="#8A6FE8"/>
<path d="M423.669 342.868L410.325 340.511C406.299 339.804 403.609 335.965 404.316 331.934C405.023 327.909 408.862 325.218 412.893 325.925L426.237 328.282C430.262 328.989 432.953 332.828 432.246 336.859C431.534 340.884 427.695 343.575 423.669 342.868Z" fill="#8A6FE8"/>
<path d="M417.444 355.823L408.141 351.405C404.439 349.667 402.843 345.258 404.581 341.556C406.319 337.855 410.728 336.259 414.429 337.997L423.733 342.415C427.434 344.153 429.03 348.562 427.292 352.264C425.554 355.965 421.146 357.561 417.444 355.823Z" fill="#8A6FE8"/>
<path d="M298.53 313.681L293.697 341.985L322.001 346.818L326.834 318.514L298.53 313.681Z" fill="#512BD4"/>
<path d="M300.511 332.631C300.31 332.597 300.153 332.504 300.035 332.342C299.917 332.18 299.878 332.008 299.907 331.816C299.942 331.625 300.04 331.473 300.202 331.36C300.364 331.247 300.546 331.208 300.747 331.242C300.948 331.276 301.11 331.375 301.228 331.537C301.346 331.699 301.39 331.875 301.361 332.067C301.326 332.253 301.228 332.406 301.061 332.518C300.894 332.631 300.713 332.666 300.511 332.631Z" fill="white"/>
<path d="M308.529 333.888L307.228 333.667L304.724 327.673C304.66 327.521 304.611 327.369 304.581 327.211L304.552 327.207C304.552 327.369 304.508 327.707 304.419 328.223L303.595 333.044L302.446 332.847L303.703 325.488L305.087 325.724L307.498 331.571C307.601 331.812 307.664 331.979 307.689 332.067L307.709 332.072C307.709 331.871 307.748 331.537 307.827 331.075L308.637 326.333L309.78 326.529L308.529 333.888Z" fill="white"/>
<path d="M314.135 334.845L310.109 334.158L311.366 326.799L315.235 327.462L315.058 328.497L312.382 328.041L312.029 330.123L314.493 330.545L314.317 331.576L311.852 331.153L311.479 333.328L314.317 333.814L314.135 334.845Z" fill="white"/>
<path d="M320.94 329.499L318.878 329.145L317.798 335.464L316.605 335.262L317.685 328.944L315.628 328.591L315.804 327.555L321.111 328.463L320.94 329.499Z" fill="white"/>
<path d="M300.639 201.987L248.197 206.818C245.678 207.049 243.445 205.193 243.214 202.675L238.255 148.867C238.025 146.349 239.88 144.115 242.399 143.884L294.841 139.054C297.36 138.823 299.594 140.679 299.824 143.197L304.783 197.004C305.018 199.523 303.163 201.757 300.639 201.987Z" fill="url(#paint6_linear)"/>
<path d="M296.938 114.791C293.29 115.125 289.932 116.338 287.05 118.193C282.676 111.826 275.081 107.948 266.838 108.704C258.595 109.465 251.84 114.664 248.703 121.723C245.531 120.427 242.011 119.848 238.364 120.187C226.232 121.306 217.307 132.043 218.426 144.169C219.546 156.3 230.283 165.226 242.409 164.106C250.652 163.345 257.407 158.146 260.544 151.086C263.716 152.383 267.236 152.962 270.883 152.623C274.531 152.284 277.889 151.077 280.771 149.221C285.145 155.588 292.74 159.467 300.983 158.711C313.114 157.591 322.039 146.855 320.92 134.728C319.801 122.597 309.064 113.672 296.938 114.791Z" fill="white"/>
<path d="M230.931 336.073C228.358 336.073 225.575 336.009 222.673 335.847C204.587 334.831 191.057 330.53 182.455 323.068C172.862 314.746 169.632 302.679 173.82 290.784C179.225 275.427 195.303 265.034 214.789 264.292L215.373 279.688C199.427 280.292 190.855 288.795 188.356 295.894C187.159 299.297 186.113 305.841 192.554 311.428C198.435 316.529 209.153 319.656 223.547 320.466C235.05 321.114 244.535 320.004 244.633 319.99L246.464 335.287C246.116 335.327 239.748 336.073 230.931 336.073Z" fill="url(#paint7_linear)"/>
<path d="M216.31 286.4C224.881 286.4 231.829 279.452 231.829 270.881C231.829 262.31 224.881 255.362 216.31 255.362C207.74 255.362 200.792 262.31 200.792 270.881C200.792 279.452 207.74 286.4 216.31 286.4Z" fill="url(#paint8_radial)"/>
<path d="M254.903 321.904L264.575 309.454C267.128 306.115 266.494 301.343 263.161 298.791C259.823 296.238 255.051 296.871 252.498 300.204L242.581 312.974L254.903 321.904Z" fill="#927BE5"/>
<path d="M291.105 354.738C288.533 354.625 286.211 353.152 284.885 350.943L242.109 280.346C241.231 278.883 239.321 278.431 237.882 279.344L234.799 281.298C233.356 282.212 232.953 284.131 233.896 285.55L279.652 354.674C281.075 356.81 281.409 359.491 280.54 361.901C278.537 367.449 279.745 375.323 284.252 382.432C290.678 392.58 301.376 397.337 308.141 393.051C314.906 388.765 315.181 377.061 308.755 366.914C304.081 359.53 297.144 355.003 291.105 354.738Z" fill="#E0BB95"/>
<path d="M248.84 343.51L264.373 346.22C268.517 346.913 272.44 344.114 273.132 339.971C273.824 335.827 271.026 331.905 266.882 331.212L250.956 328.434L248.84 343.51Z" fill="#927BE5"/>
<path d="M254.373 337.619L270.137 337.246C274.335 337.118 277.639 333.608 277.511 329.411C277.383 325.213 273.873 321.909 269.676 322.037L253.514 322.42L254.373 337.619Z" fill="#927BE5"/>
<path d="M245.89 327.398L268.861 325.925C272.946 325.694 276.073 322.199 275.847 318.114C275.616 314.03 272.121 310.902 268.036 311.128L244.677 312.621L245.89 327.398Z" fill="#927BE5"/>
<path d="M246.396 343.388C254.964 343.388 261.909 336.442 261.909 327.874C261.909 319.306 254.964 312.36 246.396 312.36C237.828 312.36 230.882 319.306 230.882 327.874C230.882 336.442 237.828 343.388 246.396 343.388Z" fill="url(#paint9_radial)"/>
<path d="M172.028 166.497C169.774 166.497 167.83 167.798 166.888 169.683H36.6656C35.723 167.793 33.7789 166.497 31.5255 166.497C28.354 166.497 25.7815 169.07 25.7815 172.241C25.7815 175.413 28.354 177.985 31.5255 177.985C33.7789 177.985 35.723 176.684 36.6656 174.799H166.888C167.83 176.689 169.774 177.985 172.028 177.985C175.199 177.985 177.772 175.413 177.772 172.241C177.777 169.07 175.204 166.497 172.028 166.497Z" fill="#179BB8"/>
<path d="M115.545 266.884H115.319C114.268 266.884 113.414 266.03 113.414 264.98V178.888C113.414 177.838 114.268 176.983 115.319 176.983H115.545C116.595 176.983 117.45 177.838 117.45 178.888V264.98C117.45 266.03 116.595 266.884 115.545 266.884Z" fill="#A4ECFC"/>
<path d="M144.019 241.135V179.001C144.019 177.887 143.116 176.983 142.002 176.983C140.887 176.983 139.984 177.887 139.984 179.001V241.198C135.786 242.431 132.649 247.232 132.649 252.981C132.649 259.663 136.881 265.078 142.1 265.078C147.319 265.078 151.551 259.663 151.551 252.981C151.546 247.144 148.315 242.274 144.019 241.135Z" fill="#A4ECFC"/>
<path d="M124.991 260.36C124.991 260.306 125.001 260.257 125.001 260.203C125.001 260.149 124.991 260.105 124.991 260.051V255.632H105.77V260.188C105.77 260.193 105.77 260.198 105.77 260.203C105.77 260.208 105.77 260.213 105.77 260.218V260.517H105.79C106.021 264.204 110.223 267.145 115.383 267.145C120.543 267.145 124.745 264.204 124.976 260.517H124.986V260.36H124.991Z" fill="#A4ECFC"/>
<path d="M72.7984 255.328V240.29C72.7984 239.642 72.553 239.019 72.1062 238.547C72.1062 238.547 67.997 234.104 66.4506 232.538C65.0759 231.144 64.7568 228.179 64.693 227.369V179.006C64.693 177.892 63.7897 176.988 62.6752 176.988C61.5608 176.988 60.6575 177.892 60.6575 179.006V227.246L60.6526 227.177C60.6526 227.177 60.6526 230.918 59.0521 232.543C57.5056 234.114 53.3964 238.552 53.3964 238.552C52.9546 239.024 52.7042 239.647 52.7042 240.295V255.774C52.7042 259.952 57.2111 263.345 62.7636 263.345C68.3161 263.345 72.823 259.957 72.823 255.774C72.8279 255.617 72.8131 255.475 72.7984 255.328ZM59.1012 254.955C59.1012 255.421 58.7232 255.799 58.2568 255.799C57.7904 255.799 57.4123 255.421 57.4123 254.955V241.464C57.4123 240.997 57.7904 240.619 58.2568 240.619C58.7232 240.619 59.1012 240.997 59.1012 241.464V254.955ZM63.5687 256.776C63.5687 257.242 63.1907 257.62 62.7243 257.62C62.2579 257.62 61.8799 257.242 61.8799 256.776V239.77C61.8799 239.303 62.2579 238.925 62.7243 238.925C63.1907 238.925 63.5687 239.303 63.5687 239.77V256.776ZM68.0363 254.955C68.0363 255.421 67.6583 255.799 67.1919 255.799C66.7255 255.799 66.3475 255.421 66.3475 254.955V241.464C66.3475 240.997 66.7255 240.619 67.1919 240.619C67.6583 240.619 68.0363 240.997 68.0363 241.464V254.955Z" fill="#A4ECFC"/>
<path d="M94.744 251.155C94.6115 246.427 93.4087 244.615 91.1504 243.982V179.001C91.1504 177.887 90.247 176.983 89.1326 176.983C88.0182 176.983 87.1148 177.887 87.1148 179.001V244.066C85.0381 244.772 83.9335 246.628 83.8059 251.15C83.6292 257.561 83.6292 266.997 83.6292 266.997H84.5178C84.5178 266.997 86.2999 253.997 87.0117 251.68C87.6401 249.633 87.5763 248.008 89.275 247.654C90.9736 248.003 90.9098 249.633 91.5382 251.68C92.2501 253.997 94.0322 266.997 94.0322 266.997H94.9208C94.9208 267.002 94.9208 257.566 94.744 251.155Z" fill="#A4ECFC"/>
<path d="M62.813 180.793C62.5283 180.793 62.2926 180.562 62.2926 180.273V169.241C62.2926 168.951 62.5233 168.721 62.813 168.721C63.0977 168.721 63.3334 168.951 63.3334 169.241V180.273C63.3334 180.557 63.1027 180.793 62.813 180.793Z" fill="#138FAB"/>
<path d="M89.1864 180.793C88.9017 180.793 88.666 180.562 88.666 180.273V169.241C88.666 168.951 88.8968 168.721 89.1864 168.721C89.4712 168.721 89.7068 168.951 89.7068 169.241V180.273C89.7068 180.557 89.4712 180.793 89.1864 180.793Z" fill="#138FAB"/>
<path d="M115.555 180.793C115.27 180.793 115.035 180.562 115.035 180.273V169.241C115.035 168.951 115.265 168.721 115.555 168.721C115.84 168.721 116.075 168.951 116.075 169.241V180.273C116.075 180.557 115.845 180.793 115.555 180.793Z" fill="#138FAB"/>
<path d="M141.928 180.793C141.643 180.793 141.408 180.562 141.408 180.273V169.241C141.408 168.951 141.638 168.721 141.928 168.721C142.218 168.721 142.448 168.951 142.448 169.241V180.273C142.448 180.557 142.218 180.793 141.928 180.793Z" fill="#138FAB"/>
<path d="M898.222 198.943H708.984V211.713H898.222V198.943Z" fill="#77E3FB"/>
<path d="M729.162 205.91H720.453V226.809H729.162V205.91Z" fill="#77E3FB"/>
<path d="M886.724 205.91H878.015V226.809H886.724V205.91Z" fill="#77E3FB"/>
<path d="M66.8584 445.253H904.727C915.41 430.741 924.34 415.011 931.316 398.457H33.2339C42.7041 415.433 54.0007 431.089 66.8584 445.253Z" fill="#1189A5"/>
<path d="M904.727 445.253H66.8584C70.5601 449.328 74.3845 453.285 78.3415 457.109H895.38C898.63 453.26 901.747 449.303 904.727 445.253Z" fill="#1FB1D1"/>
<path d="M90.9783 468.548H885.045C888.752 464.719 892.311 460.762 895.728 456.692H77.9094C82.1266 460.796 86.4862 464.748 90.9783 468.548Z" fill="#0B7891"/>
<path d="M90.9781 468.548C117.499 490.999 148.669 508.172 182.931 518.992C307.881 558.449 662.458 547.992 758.083 533.789C808.994 526.228 852.486 502.207 885.045 468.548H90.9781Z" fill="#179BB8"/>
<path d="M757.239 344.86L731.293 418.403C731.072 419.056 731.258 419.783 731.769 420.249L752.811 431.207L779.802 361.911L757.239 344.86Z" fill="#29C3E5"/>
<path d="M776.027 361.484L752.408 429.813C752.113 430.662 752.761 431.546 753.665 431.517L793.598 430.27C794.339 430.27 795.002 429.798 795.242 429.096L818.12 362.564C818.238 362.225 818.056 361.857 817.718 361.739L816.117 361.184C816.048 361.16 815.98 361.15 815.906 361.15L776.645 361.047C776.361 361.042 776.115 361.219 776.027 361.484Z" fill="#19A0BF"/>
<path d="M757.892 344.208H797.943C798.13 344.208 798.311 344.276 798.454 344.394L818.062 361.091C818.621 361.567 818.283 362.485 817.546 362.48L775.895 362.205C775.698 362.205 775.512 362.132 775.37 361.999L757.362 345.577C756.832 345.096 757.175 344.208 757.892 344.208Z" fill="#8EE8FC"/>
<path d="M765.654 431.183L772.252 394.102L773.637 434.531L765.654 431.183Z" fill="#29C3E5"/>
<path d="M773.788 392.531L798.492 391.956C799.43 391.937 800.201 392.968 800.201 394.254V431.443C800.201 432.68 799.484 433.696 798.581 433.74L774.588 434.894C773.656 434.938 772.875 433.932 772.85 432.655L772.139 394.892C772.114 393.611 772.855 392.55 773.788 392.531Z" fill="#1DACCC"/>
<path d="M779.802 359.869C779.675 359.869 779.552 359.824 779.454 359.731L765.717 347.153C765.506 346.957 765.491 346.633 765.683 346.417C765.879 346.206 766.208 346.191 766.419 346.382L780.156 358.96C780.367 359.157 780.382 359.481 780.19 359.697C780.087 359.815 779.945 359.869 779.802 359.869Z" fill="#0B7891"/>
<path d="M794.604 360.016C794.476 360.016 794.353 359.972 794.255 359.879L780.519 347.301C780.308 347.104 780.293 346.78 780.484 346.564C780.681 346.353 781.01 346.338 781.221 346.53L794.957 359.108C795.168 359.304 795.183 359.628 794.992 359.844C794.888 359.957 794.746 360.016 794.604 360.016Z" fill="#0B7891"/>
<path d="M809.411 360.163C809.283 360.163 809.16 360.119 809.062 360.026L795.321 347.448C795.109 347.251 795.095 346.927 795.286 346.711C795.483 346.5 795.812 346.485 796.023 346.677L809.759 359.255C809.97 359.451 809.985 359.775 809.793 359.991C809.69 360.104 809.548 360.163 809.411 360.163Z" fill="#0B7891"/>
<path d="M779.262 349.377L771.653 342.803C771.653 342.803 779.002 320.628 781.968 311.732C784.52 304.073 792.591 313.362 789.97 321.227C787.348 329.091 786.97 331.718 783.602 335.464C780.23 339.21 780.981 340.334 780.981 344.458C780.981 348.582 779.262 349.377 779.262 349.377Z" fill="#0B7891"/>
<path d="M771.658 342.671L781.457 351.439L778.462 358.833L768.82 350.02L771.658 342.671Z" fill="#BBF1FD"/>
<path d="M777.893 336.711C778.601 336.711 779.174 335.913 779.174 334.929C779.174 333.945 778.601 333.147 777.893 333.147C777.185 333.147 776.612 333.945 776.612 334.929C776.612 335.913 777.185 336.711 777.893 336.711Z" fill="#19A0BF"/>
<path d="M781.167 327.481C781.875 327.481 782.449 326.683 782.449 325.699C782.449 324.715 781.875 323.917 781.167 323.917C780.46 323.917 779.886 324.715 779.886 325.699C779.886 326.683 780.46 327.481 781.167 327.481Z" fill="#19A0BF"/>
<path d="M784.447 318.257C785.155 318.257 785.728 317.459 785.728 316.474C785.728 315.49 785.155 314.692 784.447 314.692C783.739 314.692 783.166 315.49 783.166 316.474C783.166 317.459 783.739 318.257 784.447 318.257Z" fill="#19A0BF"/>
<path d="M808.547 349.289L800.938 342.715C800.938 342.715 808.287 320.539 811.252 311.643C813.805 303.985 821.876 313.273 819.255 321.138C816.633 329.008 816.255 331.63 812.887 335.376C809.514 339.121 810.265 340.246 810.265 344.37C810.265 348.493 808.547 349.289 808.547 349.289Z" fill="#0B7891"/>
<path d="M800.938 342.587L810.737 351.356L807.703 358.833L798.056 350.015L800.938 342.587Z" fill="#BBF1FD"/>
<path d="M807.173 336.623C807.881 336.623 808.454 335.825 808.454 334.841C808.454 333.856 807.881 333.059 807.173 333.059C806.465 333.059 805.891 333.856 805.891 334.841C805.891 335.825 806.465 336.623 807.173 336.623Z" fill="#19A0BF"/>
<path d="M810.452 327.398C811.16 327.398 811.734 326.6 811.734 325.616C811.734 324.631 811.16 323.833 810.452 323.833C809.745 323.833 809.171 324.631 809.171 325.616C809.171 326.6 809.745 327.398 810.452 327.398Z" fill="#19A0BF"/>
<path d="M813.727 318.173C814.434 318.173 815.008 317.375 815.008 316.391C815.008 315.407 814.434 314.609 813.727 314.609C813.019 314.609 812.445 315.407 812.445 316.391C812.445 317.375 813.019 318.173 813.727 318.173Z" fill="#19A0BF"/>
<path d="M793.745 349.485L786.136 342.911C786.136 342.911 793.485 320.736 796.451 311.84C799.003 304.181 807.074 313.47 804.453 321.335C801.831 329.204 801.453 331.826 798.085 335.572C794.717 339.318 795.464 340.442 795.464 344.566C795.464 348.69 793.745 349.485 793.745 349.485Z" fill="#0B7891"/>
<path d="M786.136 342.779L795.935 351.547L792.965 358.798L783.362 349.942L786.136 342.779Z" fill="#BBF1FD"/>
<path d="M792.371 336.819C793.079 336.819 793.652 336.021 793.652 335.037C793.652 334.052 793.079 333.254 792.371 333.254C791.663 333.254 791.09 334.052 791.09 335.037C791.09 336.021 791.663 336.819 792.371 336.819Z" fill="#19A0BF"/>
<path d="M795.651 327.594C796.358 327.594 796.932 326.796 796.932 325.812C796.932 324.828 796.358 324.03 795.651 324.03C794.943 324.03 794.369 324.828 794.369 325.812C794.369 326.796 794.943 327.594 795.651 327.594Z" fill="#19A0BF"/>
<path d="M798.925 318.364C799.633 318.364 800.206 317.566 800.206 316.582C800.206 315.598 799.633 314.8 798.925 314.8C798.217 314.8 797.644 315.598 797.644 316.582C797.644 317.566 798.217 318.364 798.925 318.364Z" fill="#19A0BF"/>
<path d="M96.1433 429.645C96.2621 426.537 91.658 423.838 85.8596 423.617C80.0613 423.395 75.2646 425.735 75.1458 428.843C75.027 431.95 79.6311 434.649 85.4294 434.871C91.2277 435.093 96.0245 432.753 96.1433 429.645Z" fill="#19A0BF"/>
<path d="M94.6117 427.826C94.6963 425.612 90.7234 423.663 85.738 423.472C80.7525 423.282 76.6424 424.922 76.5578 427.135C76.4731 429.349 80.4461 431.298 85.4315 431.489C90.417 431.679 94.5271 430.039 94.6117 427.826Z" fill="#33D5F9"/>
<path d="M83.6683 424.388L86.5206 430.628C86.5452 430.687 86.6041 430.721 86.6679 430.721L88.0818 430.672C88.1947 430.667 88.2684 430.549 88.2193 430.446L85.2491 424.226C85.2245 424.172 85.1656 424.138 85.1067 424.138L83.8106 424.162C83.6928 424.167 83.6192 424.285 83.6683 424.388Z" fill="#19A0BF"/>
<path d="M87.0731 412.157C87.1919 409.049 82.5878 406.35 76.7894 406.128C70.9911 405.907 66.1944 408.247 66.0756 411.354C65.9568 414.462 70.5609 417.161 76.3592 417.383C82.1575 417.604 86.9543 415.265 87.0731 412.157Z" fill="#19A0BF"/>
<path d="M85.5409 410.337C85.6255 408.124 81.6526 406.175 76.6672 405.984C71.6817 405.793 67.5716 407.433 67.487 409.647C67.4023 411.861 71.3753 413.81 76.3607 414C81.3462 414.191 85.4563 412.551 85.5409 410.337Z" fill="#33D5F9"/>
<path d="M74.6008 406.901L77.4531 413.141C77.4777 413.2 77.5366 413.234 77.6004 413.234L79.0143 413.185C79.1272 413.18 79.2009 413.063 79.1518 412.959L76.1816 406.739C76.157 406.685 76.0981 406.651 76.0392 406.651L74.7431 406.675C74.6253 406.68 74.5517 406.798 74.6008 406.901Z" fill="#19A0BF"/>
<path d="M455.464 429.631C455.582 426.523 450.978 423.824 445.18 423.602C439.382 423.38 434.585 425.72 434.466 428.828C434.347 431.936 438.951 434.635 444.75 434.856C450.548 435.078 455.345 432.738 455.464 429.631Z" fill="#19A0BF"/>
<path d="M453.931 427.816C454.016 425.602 450.043 423.653 445.058 423.462C440.072 423.272 435.962 424.912 435.877 427.126C435.793 429.339 439.766 431.288 444.751 431.479C449.737 431.669 453.847 430.029 453.931 427.816Z" fill="#33D5F9"/>
<path d="M441.898 430.088L446.812 424.364C446.851 424.315 446.92 424.295 446.979 424.315L448.206 424.604C448.314 424.639 448.349 424.771 448.275 424.86L443.429 430.594C443.39 430.638 443.326 430.658 443.267 430.638L441.971 430.339C441.863 430.304 441.824 430.172 441.898 430.088Z" fill="#19A0BF"/>
<path d="M446.393 412.147C446.511 409.039 441.907 406.34 436.109 406.118C430.311 405.897 425.514 408.236 425.395 411.344C425.276 414.452 429.88 417.151 435.679 417.373C441.477 417.594 446.274 415.254 446.393 412.147Z" fill="#19A0BF"/>
<path d="M444.861 410.327C444.945 408.113 440.972 406.164 435.987 405.974C431.001 405.783 426.891 407.423 426.807 409.637C426.722 411.851 430.695 413.8 435.68 413.99C440.666 414.181 444.776 412.541 444.861 410.327Z" fill="#33D5F9"/>
<path d="M433.93 406.901L436.782 413.141C436.807 413.2 436.865 413.234 436.929 413.234L438.343 413.185C438.456 413.18 438.53 413.062 438.481 412.959L435.51 406.739C435.486 406.685 435.427 406.65 435.368 406.65L434.072 406.675C433.954 406.68 433.881 406.798 433.93 406.901Z" fill="#19A0BF"/>
<path d="M430.169 440.344H110.945C110.248 440.344 109.605 439.961 109.271 439.347L91.1796 406.037C90.4874 404.765 91.4103 403.219 92.8537 403.219H412.083C412.78 403.219 413.423 403.602 413.757 404.215L431.848 437.526C432.536 438.797 431.617 440.344 430.169 440.344Z" fill="#1FB1D1"/>
<path d="M412.942 435.645H126.424L111.362 407.917H397.88L412.942 435.645Z" fill="#0B7891"/>
<path d="M582.278 432.223H476.858C475.174 432.223 473.627 431.286 472.847 429.788L461.855 408.668C460.956 406.945 462.208 404.883 464.152 404.883H569.67C571.354 404.883 572.901 405.82 573.681 407.318L584.629 428.355C585.542 430.117 584.266 432.223 582.278 432.223Z" fill="#1FB1D1"/>
<path d="M406.069 422.999L403.683 418.605H262.336L256.533 407.917H251.476L257.279 418.605H117.165L119.556 422.999H259.665L266.538 435.645H271.595L264.722 422.999H406.069Z" fill="#19A0BF"/>
<path d="M642.216 543.171L648.137 411.751H628.593V543.785C633.202 543.588 637.744 543.382 642.216 543.171Z" fill="url(#paint10_linear)"/>
<path d="M616.781 411.751H597.236L603.231 544.747C607.796 544.595 612.318 544.433 616.781 544.261V411.751Z" fill="url(#paint11_linear)"/>
<path d="M623.472 439.715C652.636 439.715 676.277 416.073 676.277 386.91C676.277 357.746 652.636 334.104 623.472 334.104C594.308 334.104 570.666 357.746 570.666 386.91C570.666 416.073 594.308 439.715 623.472 439.715Z" fill="#0B7891"/>
<path d="M623.472 302.61C652.636 302.61 676.277 278.968 676.277 249.805C676.277 220.641 652.636 196.999 623.472 196.999C594.308 196.999 570.666 220.641 570.666 249.805C570.666 278.968 594.308 302.61 623.472 302.61Z" fill="url(#paint12_radial)"/>
<path d="M561.206 405.885L540.15 269.054C539.507 263.409 543.92 258.465 549.6 258.465H695.719C701.399 258.465 705.813 263.409 705.17 269.054L680.392 405.885C679.847 410.691 675.777 414.324 670.941 414.324H570.652C565.821 414.319 561.756 410.691 561.206 405.885Z" fill="url(#paint13_linear)"/>
<path d="M614.64 220.015H580.574C576.342 226.196 573.396 233.324 572.105 241.017H614.64C618.906 241.017 622.363 237.561 622.363 233.295V227.737C622.363 223.471 618.906 220.015 614.64 220.015Z" fill="#0B7891"/>
<path d="M596.185 238.405C600.591 238.405 604.163 234.834 604.163 230.427C604.163 226.021 600.591 222.45 596.185 222.45C591.779 222.45 588.208 226.021 588.208 230.427C588.208 234.834 591.779 238.405 596.185 238.405Z" fill="white"/>
<path d="M572.699 238.405C577.105 238.405 580.677 234.834 580.677 230.427C580.677 226.021 577.105 222.45 572.699 222.45C568.293 222.45 564.721 226.021 564.721 230.427C564.721 234.834 568.293 238.405 572.699 238.405Z" fill="white"/>
<path d="M466.94 316.872C465.595 309.017 456.154 297.097 456.154 297.097C456.154 297.097 463.086 296.316 469.277 298.967C475.468 301.618 480.854 306.312 480.854 306.312C480.854 306.312 486.264 301.26 488.817 298.064C491.374 294.868 496.711 288.658 496.711 288.658C496.711 288.658 503.157 288.147 503.378 292.183C503.599 296.218 511.017 292.237 510.624 296.66C510.227 301.078 518.263 300.342 518.263 300.342L510.624 312.257C510.624 312.257 505.936 314.078 514.93 311.55C523.924 309.022 529.815 296.66 529.815 296.66C529.815 296.66 532.481 300.234 533.728 304.628C534.975 309.022 533.149 314.157 533.149 314.157C533.149 314.157 539.403 305.585 544.7 302.006C549.998 298.427 556.184 296.218 556.184 296.218C556.184 296.218 555.3 309.115 553.091 314.157C550.881 319.199 466.94 316.872 466.94 316.872Z" fill="#27BEE0"/>
<path d="M456.361 308.481C456.361 308.57 456.356 308.663 456.356 308.751C456.356 337.02 479.273 359.937 507.542 359.937C535.81 359.937 558.727 337.02 558.727 308.751C558.727 308.663 558.722 308.57 558.722 308.481H456.361Z" fill="#D2F6FE"/>
<path d="M470.481 319.67C472.322 319.67 473.814 318.177 473.814 316.336C473.814 314.495 472.322 313.003 470.481 313.003C468.64 313.003 467.147 314.495 467.147 316.336C467.147 318.177 468.64 319.67 470.481 319.67Z" fill="#8EE8FC"/>
<path d="M485.361 319.67C487.202 319.67 488.694 318.177 488.694 316.336C488.694 314.495 487.202 313.003 485.361 313.003C483.52 313.003 482.027 314.495 482.027 316.336C482.027 318.177 483.52 319.67 485.361 319.67Z" fill="#8EE8FC"/>
<path d="M500.246 319.67C502.087 319.67 503.579 318.177 503.579 316.336C503.579 314.495 502.087 313.003 500.246 313.003C498.405 313.003 496.912 314.495 496.912 316.336C496.912 318.177 498.405 319.67 500.246 319.67Z" fill="#8EE8FC"/>
<path d="M515.131 319.67C516.973 319.67 518.465 318.177 518.465 316.336C518.465 314.495 516.973 313.003 515.131 313.003C513.29 313.003 511.798 314.495 511.798 316.336C511.798 318.177 513.29 319.67 515.131 319.67Z" fill="#8EE8FC"/>
<path d="M530.017 319.67C531.858 319.67 533.35 318.177 533.35 316.336C533.35 314.495 531.858 313.003 530.017 313.003C528.176 313.003 526.683 314.495 526.683 316.336C526.683 318.177 528.176 319.67 530.017 319.67Z" fill="#8EE8FC"/>
<path d="M544.902 319.67C546.743 319.67 548.235 318.177 548.235 316.336C548.235 314.495 546.743 313.003 544.902 313.003C543.061 313.003 541.568 314.495 541.568 316.336C541.568 318.177 543.061 319.67 544.902 319.67Z" fill="#8EE8FC"/>
<path d="M477.722 331.281C479.563 331.281 481.055 329.788 481.055 327.947C481.055 326.106 479.563 324.614 477.722 324.614C475.881 324.614 474.388 326.106 474.388 327.947C474.388 329.788 475.881 331.281 477.722 331.281Z" fill="#8EE8FC"/>
<path d="M492.607 331.281C494.448 331.281 495.94 329.788 495.94 327.947C495.94 326.106 494.448 324.614 492.607 324.614C490.766 324.614 489.273 326.106 489.273 327.947C489.273 329.788 490.766 331.281 492.607 331.281Z" fill="#8EE8FC"/>
<path d="M507.492 331.281C509.333 331.281 510.826 329.788 510.826 327.947C510.826 326.106 509.333 324.614 507.492 324.614C505.651 324.614 504.159 326.106 504.159 327.947C504.159 329.788 505.651 331.281 507.492 331.281Z" fill="#8EE8FC"/>
<path d="M522.377 331.281C524.218 331.281 525.711 329.788 525.711 327.947C525.711 326.106 524.218 324.614 522.377 324.614C520.536 324.614 519.044 326.106 519.044 327.947C519.044 329.788 520.536 331.281 522.377 331.281Z" fill="#8EE8FC"/>
<path d="M537.263 331.281C539.104 331.281 540.597 329.788 540.597 327.947C540.597 326.106 539.104 324.614 537.263 324.614C535.422 324.614 533.93 326.106 533.93 327.947C533.93 329.788 535.422 331.281 537.263 331.281Z" fill="#8EE8FC"/>
<path d="M485.361 342.892C487.202 342.892 488.694 341.399 488.694 339.558C488.694 337.717 487.202 336.225 485.361 336.225C483.52 336.225 482.027 337.717 482.027 339.558C482.027 341.399 483.52 342.892 485.361 342.892Z" fill="#8EE8FC"/>
<path d="M500.246 342.892C502.087 342.892 503.579 341.399 503.579 339.558C503.579 337.717 502.087 336.225 500.246 336.225C498.405 336.225 496.912 337.717 496.912 339.558C496.912 341.399 498.405 342.892 500.246 342.892Z" fill="#8EE8FC"/>
<path d="M515.131 342.892C516.973 342.892 518.465 341.399 518.465 339.558C518.465 337.717 516.973 336.225 515.131 336.225C513.29 336.225 511.798 337.717 511.798 339.558C511.798 341.399 513.29 342.892 515.131 342.892Z" fill="#8EE8FC"/>
<path d="M530.017 342.892C531.858 342.892 533.35 341.399 533.35 339.558C533.35 337.717 531.858 336.225 530.017 336.225C528.176 336.225 526.683 337.717 526.683 339.558C526.683 341.399 528.176 342.892 530.017 342.892Z" fill="#8EE8FC"/>
<path d="M492.607 354.502C494.448 354.502 495.94 353.009 495.94 351.168C495.94 349.327 494.448 347.835 492.607 347.835C490.766 347.835 489.273 349.327 489.273 351.168C489.273 353.009 490.766 354.502 492.607 354.502Z" fill="#8EE8FC"/>
<path d="M507.492 354.502C509.333 354.502 510.826 353.009 510.826 351.168C510.826 349.327 509.333 347.835 507.492 347.835C505.651 347.835 504.159 349.327 504.159 351.168C504.159 353.009 505.651 354.502 507.492 354.502Z" fill="#8EE8FC"/>
<path d="M522.377 354.502C524.218 354.502 525.711 353.009 525.711 351.168C525.711 349.327 524.218 347.835 522.377 347.835C520.536 347.835 519.044 349.327 519.044 351.168C519.044 353.009 520.536 354.502 522.377 354.502Z" fill="#8EE8FC"/>
<path d="M555.398 356.177C556.572 358.804 559.247 360.595 562.301 360.502L631.607 358.396C634.302 358.313 636.732 356.756 637.935 354.341L674.932 280.008C676.729 276.389 675.256 271.995 671.643 270.199C668.025 268.397 663.636 269.87 661.834 273.488L626.791 343.903L561.859 345.877C557.819 346 554.647 349.373 554.77 353.413C554.794 354.4 555.02 355.333 555.398 356.177Z" fill="#29C3E5"/>
<path d="M514.149 339.804C514.65 341.1 515.877 341.989 517.178 341.886C519.56 341.694 525.539 339.627 528.102 338.709L542.992 344.866C544.494 345.484 546.07 344.699 546.522 343.108C546.969 341.513 546.124 339.721 544.622 339.102L528.765 332.548C528.136 332.288 527.464 332.268 526.86 332.489C523.404 333.756 517.851 335.597 516.319 335.719C514.773 335.842 513.708 337.325 513.943 339.028C513.982 339.298 514.051 339.559 514.149 339.804Z" fill="#0B7891"/>
<path d="M573.632 348.13L573.931 358.062C573.98 359.672 572.851 360.939 571.378 360.919L563.71 360.831C563.454 360.826 563.204 360.865 562.964 360.939L544.966 366.491C543.233 367.027 541.382 365.534 541.289 363.521L540.145 339.195C540.046 337.138 541.833 335.754 543.645 336.47L562.885 344.134C563.126 344.227 563.371 344.291 563.621 344.311L570.917 345.003C572.385 345.145 573.583 346.525 573.632 348.13Z" fill="#0B7891"/>
<path d="M507.63 367.621C508.096 368.838 509.211 369.712 510.453 369.712L525.461 369.727C525.672 369.727 525.878 369.703 526.079 369.653L545.717 364.749C547.209 364.376 548.049 362.721 547.587 361.052C547.131 359.422 545.54 358.337 544.043 358.71L524.705 363.541L510.011 363.526C508.45 363.526 507.286 364.906 507.404 366.615C507.433 366.968 507.512 367.307 507.63 367.621Z" fill="#0B7891"/>
<path d="M507.817 355.833C508.239 356.923 509.181 357.763 510.311 357.905L527.69 360.124C527.881 360.149 528.068 360.154 528.259 360.134L545.953 358.48C547.499 358.337 548.545 356.84 548.29 355.136C548.03 353.433 546.576 352.171 545.03 352.313L527.616 353.943L510.522 351.764C508.956 351.562 507.64 352.775 507.586 354.474C507.571 354.95 507.655 355.411 507.817 355.833Z" fill="#0B7891"/>
<path d="M396.098 372.952H265.375C263.942 372.952 262.69 374.238 262.651 375.913C262.606 377.641 263.795 379.059 265.267 379.059H270.52C272.032 379.059 273.26 380.488 273.26 382.255V417.23C273.26 424.83 278.542 430.996 285.062 430.996H375.155C381.674 430.996 386.957 424.835 386.957 417.23V382.255C386.957 380.493 388.184 379.059 389.696 379.059H396C397.433 379.059 398.685 377.773 398.725 376.099C398.759 374.371 397.571 372.952 396.098 372.952Z" fill="#D2F6FE"/>
<path d="M265.449 379.06H270.515C272.027 379.06 273.255 380.488 273.255 382.256V385.118H386.947V382.256C386.947 380.493 388.174 379.06 389.686 379.06H392.74V379.011H265.449V379.06Z" fill="#77E3FB"/>
<path d="M669.213 294.544C679.996 294.544 688.737 285.803 688.737 275.019C688.737 264.236 679.996 255.495 669.213 255.495C658.43 255.495 649.688 264.236 649.688 275.019C649.688 285.803 658.43 294.544 669.213 294.544Z" fill="#0B7891"/>
<defs>
<linearGradient id="paint0_linear" x1="474.498" y1="401.972" x2="474.498" y2="-0.000598986" gradientUnits="userSpaceOnUse">
<stop offset="0.2029" stop-color="#33D5F9"/>
<stop offset="0.6349" stop-color="#29C3E5"/>
</linearGradient>
<linearGradient id="paint1_linear" x1="255.778" y1="341.649" x2="242.284" y2="405.915" gradientUnits="userSpaceOnUse">
<stop stop-color="#522CD5"/>
<stop offset="0.4397" stop-color="#8A6FE8"/>
</linearGradient>
<linearGradient id="paint2_linear" x1="299.735" y1="341.587" x2="313.229" y2="405.854" gradientUnits="userSpaceOnUse">
<stop stop-color="#522CD5"/>
<stop offset="0.4397" stop-color="#8A6FE8"/>
</linearGradient>
<radialGradient id="paint3_radial" cx="0" cy="0" r="1" gradientUnits="userSpaceOnUse" gradientTransform="translate(308.652 222.899) scale(146.226)">
<stop offset="0.186" stop-color="#A08BE8"/>
<stop offset="0.684" stop-color="#8065E0"/>
<stop offset="0.8157" stop-color="#8065E0"/>
</radialGradient>
<radialGradient id="paint4_radial" cx="0" cy="0" r="1" gradientUnits="userSpaceOnUse" gradientTransform="translate(332.961 242.27) scale(84.5778)">
<stop offset="0.0933" stop-color="#E1DFDD"/>
<stop offset="0.6573" stop-color="white"/>
</radialGradient>
<radialGradient id="paint5_radial" cx="0" cy="0" r="1" gradientUnits="userSpaceOnUse" gradientTransform="translate(403.342 331.528) scale(15.9279)">
<stop stop-color="#8065E0"/>
<stop offset="1" stop-color="#512BD4"/>
</radialGradient>
<linearGradient id="paint6_linear" x1="274.905" y1="198.501" x2="266.165" y2="132.488" gradientUnits="userSpaceOnUse">
<stop offset="0.3374" stop-color="white"/>
<stop offset="0.5193" stop-color="#F6F5F4"/>
<stop offset="0.7826" stop-color="#E1DFDD"/>
</linearGradient>
<linearGradient id="paint7_linear" x1="209.241" y1="264.295" x2="209.241" y2="336.075" gradientUnits="userSpaceOnUse">
<stop stop-color="#9780E6"/>
<stop offset="1" stop-color="#8A6FE8"/>
</linearGradient>
<radialGradient id="paint8_radial" cx="0" cy="0" r="1" gradientUnits="userSpaceOnUse" gradientTransform="translate(220.459 264.589) scale(19.6922)">
<stop stop-color="#8065E0"/>
<stop offset="1" stop-color="#512BD4"/>
</radialGradient>
<radialGradient id="paint9_radial" cx="0" cy="0" r="1" gradientUnits="userSpaceOnUse" gradientTransform="translate(245.347 320.031) scale(23.7954)">
<stop stop-color="#8065E0"/>
<stop offset="1" stop-color="#512BD4"/>
</radialGradient>
<linearGradient id="paint10_linear" x1="638.368" y1="543.782" x2="638.368" y2="411.75" gradientUnits="userSpaceOnUse">
<stop offset="0.7006" stop-color="#2ECCEF"/>
<stop offset="0.7572" stop-color="#25BCDD"/>
<stop offset="0.8086" stop-color="#1FB1D1"/>
</linearGradient>
<linearGradient id="paint11_linear" x1="607.011" y1="544.744" x2="607.011" y2="411.75" gradientUnits="userSpaceOnUse">
<stop offset="0.7006" stop-color="#2ECCEF"/>
<stop offset="0.7572" stop-color="#25BCDD"/>
<stop offset="0.8086" stop-color="#1FB1D1"/>
</linearGradient>
<radialGradient id="paint12_radial" cx="0" cy="0" r="1" gradientUnits="userSpaceOnUse" gradientTransform="translate(592.002 188.965) scale(89.9312)">
<stop offset="0.3553" stop-color="#1FB1D1"/>
<stop offset="0.3649" stop-color="#1FB0D0"/>
<stop offset="0.694" stop-color="#1594B1"/>
<stop offset="0.8776" stop-color="#1189A5"/>
</radialGradient>
<linearGradient id="paint13_linear" x1="622.665" y1="414.321" x2="622.665" y2="258.466" gradientUnits="userSpaceOnUse">
<stop stop-color="#2ECCEF"/>
<stop offset="0.2439" stop-color="#8EE8FC"/>
</linearGradient>
</defs>
</svg>
