<svg width="913" height="519" viewBox="0 0 913 519" fill="none" xmlns="http://www.w3.org/2000/svg">
<path d="M470.997 516.615C275.435 502.279 26.1465 464.185 1.92273 247.149C-17.9368 69.196 121.183 38.9933 182.625 43.0885C237.781 46.7678 343.752 29.3547 421.023 16.0563C520.971 -1.14648 868.329 -51.1206 908.474 193.833C940.883 391.606 783.949 539.552 470.997 516.615Z" fill="#3E8EED"/>
<path d="M874.391 106.41C774.697 -37.5924 506.782 1.29491 421.023 16.0562C343.752 29.3546 237.781 46.7678 182.625 43.0884C121.183 38.9932 -17.9368 69.1959 1.92273 247.144C3.49329 261.201 6.01304 274.504 9.3939 287.103C257.763 273.633 433.333 224.461 247.082 225.376C27.815 226.457 584.018 95.1126 874.391 106.41Z" fill="url(#paint0_linear)"/>
<path d="M881.534 366.145L593.51 378.278L577.129 394.708C577.129 394.708 406.829 393.979 121.207 431.638C217.006 490.855 353.669 508.014 470.996 516.61C682.626 532.125 822.9 469.488 881.534 366.145Z" fill="#A3C9F6"/>
<path d="M260.223 179.082V153.336C260.223 153.004 260.492 152.734 260.824 152.734H325.129C325.462 152.734 325.731 153.004 325.731 153.336V179.082H330.134V153.336C330.134 150.577 327.889 148.331 325.129 148.331H260.824C258.065 148.331 255.819 150.577 255.819 153.336V179.082H260.223Z" fill="#A7CBF6"/>
<path d="M303.807 137.753H282.308V153.229H282.333C282.333 153.268 282.328 153.302 282.328 153.341C282.328 159.271 287.137 164.081 293.067 164.081C298.997 164.081 303.807 159.271 303.807 153.341C303.807 153.302 303.807 153.268 303.802 153.229H303.807V137.753Z" fill="#A7CBF6"/>
<path d="M316.374 124.827L360.164 124.827L360.164 119.186L316.374 119.186L316.374 124.827Z" fill="white"/>
<path d="M361.986 119.185L365.264 119.185L365.264 104.619L361.986 104.619L361.986 119.185Z" fill="#A7CBF6"/>
<path d="M371.091 117.521V129.743C371.091 133.965 367.666 137.39 363.444 137.39C359.222 137.39 355.797 133.965 355.797 129.743V117.521C355.797 117.232 356.031 116.998 356.32 116.998H370.568C370.856 116.998 371.091 117.232 371.091 117.521Z" fill="#A7CBF6"/>
<path d="M326.842 108.47C330.188 107.897 336.925 106.919 344.118 106.919C350.63 106.919 358.923 107.545 364.065 108C369.208 107.545 377.501 106.919 384.013 106.919C391.205 106.919 397.942 107.893 401.289 108.47C401.793 108.558 401.773 109.111 401.265 109.179C397.458 109.664 389.503 110.564 383.103 110.564C377.486 110.564 369.242 109.698 364.065 109.077C358.889 109.698 350.645 110.564 345.028 110.564C338.628 110.564 330.673 109.664 326.866 109.179C326.357 109.111 326.338 108.553 326.842 108.47Z" fill="white"/>
<path d="M270.043 119.185H226.253V124.826H270.043V119.185Z" fill="white"/>
<path d="M224.433 104.619H221.155V119.185H224.433V104.619Z" fill="#A7CBF6"/>
<path d="M215.332 117.521V129.743C215.332 133.965 218.757 137.39 222.979 137.39C227.202 137.39 230.627 133.965 230.627 129.743V117.521C230.627 117.232 230.392 116.998 230.103 116.998H215.856C215.567 116.998 215.332 117.232 215.332 117.521Z" fill="#A7CBF6"/>
<path d="M259.577 108.47C256.23 107.897 249.493 106.919 242.301 106.919C235.789 106.919 227.495 107.545 222.353 108C217.211 107.545 208.918 106.919 202.406 106.919C195.213 106.919 188.476 107.893 185.129 108.47C184.626 108.558 184.645 109.111 185.154 109.179C188.96 109.664 196.916 110.564 203.316 110.564C208.932 110.564 217.177 109.698 222.353 109.077C227.53 109.698 235.774 110.564 241.391 110.564C247.79 110.564 255.746 109.664 259.552 109.179C260.061 109.111 260.081 108.553 259.577 108.47Z" fill="white"/>
<path d="M293.068 159.966C296.726 159.966 299.692 157 299.692 153.341C299.692 149.682 296.726 146.716 293.068 146.716C289.409 146.716 286.443 149.682 286.443 153.341C286.443 157 289.409 159.966 293.068 159.966Z" fill="white"/>
<path d="M311.665 140.214H274.421C270.566 140.214 267.439 137.087 267.439 133.232V118.108C267.439 114.253 270.566 111.126 274.421 111.126H311.665C315.52 111.126 318.647 114.253 318.647 118.108V133.232C318.647 137.087 315.52 140.214 311.665 140.214Z" fill="white"/>
<path d="M267.445 132.43V133.232C267.445 137.088 270.571 140.214 274.427 140.214H311.665C315.521 140.214 318.647 137.088 318.647 133.232V132.43H267.445Z" fill="#A7CBF6"/>
<path d="M292.887 127.405C295.019 127.405 296.747 125.676 296.747 123.544C296.747 121.412 295.019 119.684 292.887 119.684C290.755 119.684 289.027 121.412 289.027 123.544C289.027 125.676 290.755 127.405 292.887 127.405Z" fill="#227BE5"/>
<path d="M307.565 127.405C309.697 127.405 311.425 125.676 311.425 123.544C311.425 121.412 309.697 119.684 307.565 119.684C305.433 119.684 303.704 121.412 303.704 123.544C303.704 125.676 305.433 127.405 307.565 127.405Z" fill="#227BE5"/>
<path d="M278.209 127.405C280.341 127.405 282.069 125.676 282.069 123.544C282.069 121.412 280.341 119.684 278.209 119.684C276.076 119.684 274.348 121.412 274.348 123.544C274.348 125.676 276.076 127.405 278.209 127.405Z" fill="#227BE5"/>
<path d="M165.78 433.444C165.78 433.444 188.932 415.101 192.68 410.683C196.427 406.265 196.369 395.584 196.369 395.584L335.654 380.025C335.654 380.025 362.432 405.77 371.611 407.483C380.79 409.195 165.78 433.444 165.78 433.444Z" fill="#A3C9F6"/>
<path d="M390.664 406.549C398.551 400.399 404.329 393.133 404.329 393.133L470.062 387.291C470.062 387.291 478.36 397.12 484.579 398.441C490.803 399.758 382.776 412.699 390.664 406.549Z" fill="#A3C9F6"/>
<path d="M679.994 152.788C707.872 152.788 730.472 130.188 730.472 102.31C730.472 74.4318 707.872 51.832 679.994 51.832C652.115 51.832 629.516 74.4318 629.516 102.31C629.516 130.188 652.115 152.788 679.994 152.788Z" fill="#549BEF"/>
<path d="M451.152 389.081L456.608 397.09C457.239 398.015 456.642 399.277 455.526 399.37L390.859 405.031L404.329 393.127L451.152 389.081Z" fill="url(#paint1_radial)"/>
<path d="M164.385 433.595L188.883 412.875L194.524 397.56C194.774 396.381 195.669 395.515 196.76 395.388L290.72 385.089L302.188 407.962L303.421 407.967C305.946 407.977 307.609 405.125 306.577 402.561L300.97 388.612L303.089 388.435C304.977 388.279 306.827 389.155 308.055 390.774L324.729 413.095C325.213 413.741 324.871 414.714 324.122 414.807L165.124 435.552C164.131 435.689 163.588 434.27 164.385 433.595Z" fill="url(#paint2_radial)"/>
<path d="M397.993 440.949L559.897 424.192C561.233 424.069 561.796 424.03 561.923 424.911L563.562 432.607C563.689 433.493 562.711 434.305 561.38 434.427L387.141 450.098C384.719 450.319 383.5 448.303 385.428 447.261L396.75 441.311C397.107 441.115 397.543 440.988 397.993 440.949Z" fill="url(#paint3_radial)"/>
<path d="M577.129 394.708L597.708 373.244L761.007 359.319L785.994 377.75L577.129 394.708Z" fill="#A3C9F6"/>
<path d="M698.057 338.564L695.205 338.779L692.504 301.849L695.357 301.634L698.057 338.564Z" fill="#0064DA"/>
<path d="M697.705 298.59L690.807 299.104C689.755 299.182 688.967 300.097 689.045 301.149L689.187 303.052C689.265 304.104 690.18 304.892 691.232 304.814L698.131 304.3C699.183 304.222 699.971 303.307 699.892 302.255L699.75 300.352C699.672 299.305 698.757 298.512 697.705 298.59Z" fill="#0064DA"/>
<path d="M709.447 343.462L684.123 345.341C682.689 345.448 681.447 344.372 681.339 342.943L681.168 340.634C681.06 339.2 682.136 337.958 683.565 337.85L708.89 335.971C710.323 335.864 711.566 336.94 711.674 338.369L711.845 340.678C711.953 342.112 710.876 343.354 709.447 343.462Z" fill="#0064DA"/>
<path d="M622.26 360.87L637.843 387.159L719.874 381.077L717.677 351.461L622.26 360.87Z" fill="#227BE5"/>
<path d="M694.026 279.504L677.66 308.337C677.454 308.704 677.714 309.154 678.134 309.159C684.994 309.237 691.692 305.685 695.318 299.295C698.943 292.905 698.561 285.336 694.975 279.485C694.76 279.132 694.236 279.137 694.026 279.504Z" fill="#A7CBF6"/>
<path d="M718.264 359.319L717.677 351.461L622.26 360.87L625.293 365.988L718.264 359.319Z" fill="#0064DA"/>
<path d="M656.303 340.737L655.677 331.993C655.496 329.449 653.279 327.541 650.74 327.727L626.409 329.532C624.96 329.64 623.698 330.844 623.077 332.703L615.919 354.27C614.544 358.419 616.912 363.419 620.146 363.179L726.112 355.322C728.402 355.15 730.061 352.308 729.811 348.971L729.244 341.338C729.141 339.954 727.937 338.912 726.548 339.009L659.836 343.795C658.02 343.927 656.435 342.557 656.303 340.737Z" fill="#A7CBF6"/>
<path d="M650.965 356.016L622.318 358.14C620.699 358.262 619.495 355.776 620.156 353.673L626.012 335.012C626.321 334.038 626.971 333.402 627.72 333.348L649.165 331.758C650.329 331.67 651.371 332.976 651.498 334.669L652.844 352.797C652.966 354.49 652.125 355.933 650.965 356.016Z" fill="#72ACF1"/>
<path d="M651.582 335.814C649.443 336.167 647.56 336.989 647.046 338.603C646.381 340.697 645.627 342.968 644.918 345.091L627.5 346.339L626.648 344.734C626.242 343.966 625.415 343.506 624.549 343.569L623.302 343.657L620.161 353.668C619.5 355.772 620.704 358.252 622.323 358.135L650.97 356.012C652.134 355.924 652.971 354.485 652.849 352.792L651.582 335.814Z" fill="#0064DA"/>
<path d="M609.578 403.129L737.434 393.901C739.166 393.774 740.609 394.449 740.629 395.389L740.653 396.685C740.678 397.889 738.936 398.975 736.715 399.146L598.613 409.617C597.38 409.709 596.783 408.902 597.737 408.428L607.175 403.755C607.855 403.408 608.702 403.192 609.578 403.129Z" fill="#76AFF2"/>
<path d="M655.721 384.208L652.624 383.988C652.467 383.259 652.267 382.55 652.022 381.86L654.571 380.074C654.791 379.917 654.865 379.624 654.742 379.384L653.769 377.452C653.646 377.212 653.367 377.094 653.108 377.182L650.148 378.171C649.737 377.569 649.282 376.996 648.798 376.453L650.481 373.811C650.628 373.581 650.583 373.283 650.378 373.107L648.739 371.693C648.533 371.517 648.23 371.517 648.025 371.693L645.652 373.753C645.045 373.351 644.409 372.989 643.748 372.676L644.291 369.579C644.34 369.315 644.184 369.051 643.924 368.968L641.87 368.292C641.615 368.209 641.331 368.327 641.214 368.566L639.8 371.399C639.1 371.267 638.386 371.179 637.657 371.14L636.972 368.048C636.913 367.784 636.669 367.602 636.399 367.622L634.242 367.784C633.973 367.803 633.757 368.018 633.738 368.287L633.513 371.458C632.803 371.61 632.109 371.81 631.433 372.045L629.599 369.432C629.442 369.212 629.149 369.139 628.909 369.261L626.976 370.235C626.736 370.357 626.619 370.636 626.707 370.895L627.725 373.934C627.138 374.335 626.575 374.775 626.051 375.25L623.346 373.528C623.116 373.381 622.817 373.425 622.641 373.63L621.227 375.269C621.051 375.475 621.051 375.778 621.227 375.984L623.336 378.41C622.945 379.007 622.592 379.629 622.279 380.275L619.118 379.722C618.854 379.673 618.59 379.829 618.507 380.089L617.832 382.144C617.748 382.398 617.866 382.682 618.106 382.799L620.983 384.233C620.85 384.923 620.762 385.627 620.713 386.342L617.582 387.036C617.318 387.095 617.137 387.34 617.156 387.609L617.318 389.766C617.337 390.036 617.553 390.251 617.822 390.27L621.017 390.495C621.164 391.205 621.359 391.895 621.594 392.565L618.972 394.405C618.751 394.561 618.678 394.855 618.8 395.095L619.774 397.027C619.896 397.267 620.175 397.384 620.435 397.296L623.458 396.284C623.859 396.876 624.305 397.438 624.779 397.972L623.067 400.663C622.92 400.892 622.964 401.191 623.17 401.367L624.809 402.781C625.014 402.957 625.318 402.957 625.523 402.781L627.92 400.702C628.522 401.103 629.153 401.46 629.804 401.778L629.256 404.895C629.207 405.159 629.364 405.423 629.623 405.506L631.678 406.182C631.932 406.265 632.216 406.147 632.334 405.908L633.738 403.089C634.442 403.226 635.162 403.319 635.891 403.368L636.571 406.431C636.629 406.695 636.874 406.876 637.143 406.857L639.301 406.695C639.57 406.676 639.785 406.46 639.805 406.191L640.025 403.075C640.749 402.923 641.459 402.727 642.144 402.488L643.939 405.046C644.096 405.267 644.389 405.34 644.629 405.218L646.562 404.244C646.801 404.122 646.919 403.843 646.831 403.583L645.842 400.633C646.449 400.222 647.026 399.767 647.57 399.283L650.192 400.951C650.422 401.098 650.72 401.054 650.897 400.848L652.311 399.209C652.487 399.004 652.487 398.701 652.311 398.495L650.275 396.151C650.681 395.535 651.048 394.894 651.371 394.224L654.424 394.757C654.688 394.806 654.953 394.649 655.036 394.39L655.711 392.335C655.794 392.081 655.677 391.797 655.437 391.68L652.663 390.295C652.8 389.581 652.893 388.852 652.932 388.113L655.956 387.442C656.22 387.384 656.401 387.139 656.381 386.87L656.22 384.712C656.205 384.443 655.99 384.228 655.721 384.208ZM637.06 390.476C635.279 390.608 633.733 389.272 633.601 387.496C633.469 385.72 634.804 384.169 636.581 384.037C638.361 383.905 639.908 385.241 640.04 387.017C640.177 388.798 638.841 390.344 637.06 390.476Z" fill="#0064DA"/>
<path d="M636.772 396.724C642.008 396.724 646.254 392.479 646.254 387.242C646.254 382.005 642.008 377.76 636.772 377.76C631.535 377.76 627.29 382.005 627.29 387.242C627.29 392.479 631.535 396.724 636.772 396.724Z" fill="#A3C9F6"/>
<path d="M636.771 395.212C641.173 395.212 644.742 391.644 644.742 387.242C644.742 382.84 641.173 379.271 636.771 379.271C632.37 379.271 628.801 382.84 628.801 387.242C628.801 391.644 632.37 395.212 636.771 395.212Z" fill="#81B5F3"/>
<path d="M636.771 389.82C638.195 389.82 639.35 388.666 639.35 387.242C639.35 385.817 638.195 384.663 636.771 384.663C635.347 384.663 634.193 385.817 634.193 387.242C634.193 388.666 635.347 389.82 636.771 389.82Z" fill="#A7CBF6"/>
<path d="M697.201 381.233L694.104 381.013C693.947 380.284 693.747 379.575 693.502 378.885L696.051 377.099C696.271 376.942 696.345 376.649 696.222 376.409L695.249 374.476C695.126 374.237 694.847 374.119 694.588 374.207L691.628 375.196C691.217 374.594 690.762 374.021 690.278 373.478L691.961 370.836C692.107 370.606 692.063 370.308 691.858 370.132L690.219 368.718C690.013 368.542 689.71 368.542 689.505 368.718L687.132 370.778C686.525 370.376 685.889 370.014 685.228 369.701L685.771 366.604C685.82 366.34 685.664 366.076 685.404 365.992L683.35 365.317C683.095 365.234 682.811 365.352 682.694 365.591L681.28 368.424C680.58 368.292 679.866 368.204 679.137 368.165L678.452 365.073C678.393 364.808 678.149 364.627 677.879 364.647L675.722 364.808C675.453 364.828 675.237 365.043 675.218 365.312L674.993 368.483C674.283 368.635 673.589 368.835 672.913 369.07L671.079 366.457C670.922 366.237 670.628 366.164 670.389 366.286L668.456 367.26C668.216 367.382 668.099 367.661 668.187 367.92L669.205 370.959C668.618 371.36 668.055 371.8 667.531 372.275L664.826 370.552C664.596 370.406 664.297 370.45 664.121 370.655L662.707 372.294C662.531 372.5 662.531 372.803 662.707 373.009L664.816 375.435C664.425 376.032 664.072 376.654 663.759 377.3L660.598 376.747C660.334 376.698 660.07 376.854 659.987 377.114L659.312 379.169C659.228 379.423 659.346 379.707 659.586 379.824L662.463 381.258C662.33 381.948 662.242 382.652 662.193 383.366L659.062 384.061C658.798 384.12 658.617 384.365 658.636 384.634L658.798 386.791C658.817 387.06 659.033 387.276 659.302 387.295L662.497 387.52C662.644 388.23 662.839 388.92 663.074 389.59L660.452 391.43C660.231 391.586 660.158 391.88 660.28 392.12L661.254 394.052C661.376 394.292 661.655 394.409 661.915 394.321L664.938 393.308C665.339 393.9 665.785 394.463 666.259 394.996L664.547 397.687C664.4 397.917 664.444 398.216 664.65 398.392L666.289 399.806C666.494 399.982 666.797 399.982 667.003 399.806L669.4 397.727C670.002 398.128 670.633 398.485 671.284 398.803L670.736 401.92C670.687 402.184 670.844 402.448 671.103 402.531L673.158 403.206C673.412 403.29 673.696 403.172 673.814 402.932L675.218 400.114C675.922 400.251 676.642 400.344 677.371 400.393L678.051 403.456C678.109 403.72 678.354 403.901 678.623 403.882L680.781 403.72C681.05 403.701 681.265 403.485 681.285 403.216L681.505 400.1C682.229 399.948 682.939 399.752 683.624 399.512L685.419 402.071C685.576 402.291 685.869 402.365 686.109 402.243L688.042 401.269C688.281 401.147 688.399 400.868 688.311 400.608L687.322 397.658C687.929 397.247 688.506 396.792 689.05 396.308L691.672 397.976C691.902 398.123 692.2 398.079 692.377 397.873L693.791 396.234C693.967 396.029 693.967 395.725 693.791 395.52L691.755 393.176C692.161 392.56 692.528 391.919 692.851 391.249L695.904 391.782C696.168 391.831 696.433 391.674 696.516 391.415L697.191 389.36C697.274 389.106 697.157 388.822 696.917 388.704L694.143 387.32C694.28 386.605 694.373 385.876 694.412 385.138L697.436 384.467C697.7 384.409 697.881 384.164 697.861 383.895L697.7 381.737C697.685 381.468 697.47 381.253 697.201 381.233ZM678.545 387.501C676.764 387.633 675.218 386.297 675.086 384.521C674.954 382.745 676.289 381.194 678.065 381.062C679.841 380.93 681.392 382.266 681.525 384.042C681.657 385.823 680.321 387.369 678.545 387.501Z" fill="#0064DA"/>
<path d="M678.251 393.744C683.488 393.744 687.733 389.499 687.733 384.262C687.733 379.025 683.488 374.78 678.251 374.78C673.015 374.78 668.769 379.025 668.769 384.262C668.769 389.499 673.015 393.744 678.251 393.744Z" fill="#A3C9F6"/>
<path d="M678.251 392.232C682.653 392.232 686.222 388.664 686.222 384.262C686.222 379.86 682.653 376.292 678.251 376.292C673.85 376.292 670.281 379.86 670.281 384.262C670.281 388.664 673.85 392.232 678.251 392.232Z" fill="#81B5F3"/>
<path d="M678.251 386.841C679.675 386.841 680.83 385.686 680.83 384.262C680.83 382.838 679.675 381.684 678.251 381.684C676.827 381.684 675.673 382.838 675.673 384.262C675.673 385.686 676.827 386.841 678.251 386.841Z" fill="#A7CBF6"/>
<path d="M738.682 378.259L735.584 378.038C735.428 377.309 735.227 376.6 734.983 375.91L737.532 374.124C737.752 373.968 737.825 373.674 737.703 373.434L736.729 371.502C736.607 371.262 736.328 371.145 736.069 371.233L733.109 372.221C732.698 371.619 732.243 371.047 731.758 370.504L733.441 367.862C733.588 367.632 733.544 367.333 733.339 367.157L731.7 365.743C731.494 365.567 731.191 365.567 730.985 365.743L728.612 367.803C728.006 367.402 727.37 367.04 726.709 366.726L727.252 363.629C727.301 363.365 727.145 363.101 726.885 363.018L724.83 362.343C724.576 362.259 724.292 362.377 724.175 362.617L722.761 365.45C722.061 365.317 721.347 365.229 720.618 365.19L719.933 362.098C719.874 361.834 719.629 361.653 719.36 361.672L717.203 361.834C716.933 361.853 716.718 362.069 716.699 362.338L716.474 365.508C715.764 365.66 715.069 365.86 714.394 366.095L712.559 363.483C712.403 363.262 712.109 363.189 711.869 363.311L709.937 364.285C709.697 364.407 709.58 364.686 709.668 364.946L710.685 367.984C710.098 368.385 709.541 368.825 709.012 369.3L706.306 367.578C706.077 367.431 705.778 367.475 705.602 367.681L704.188 369.32C704.012 369.525 704.012 369.828 704.188 370.034L706.297 372.461C705.905 373.058 705.553 373.679 705.24 374.325L702.079 373.772C701.815 373.723 701.551 373.88 701.468 374.139L700.792 376.194C700.709 376.448 700.827 376.732 701.066 376.85L703.943 378.283C703.811 378.973 703.723 379.677 703.674 380.392L700.543 381.087C700.279 381.145 700.098 381.39 700.117 381.659L700.279 383.817C700.298 384.086 700.514 384.301 700.783 384.321L703.978 384.546C704.124 385.255 704.32 385.945 704.555 386.615L701.932 388.455C701.712 388.612 701.639 388.905 701.761 389.145L702.735 391.078C702.857 391.317 703.136 391.435 703.395 391.347L706.419 390.334C706.82 390.926 707.265 391.489 707.74 392.022L706.028 394.713C705.881 394.943 705.925 395.241 706.13 395.417L707.769 396.831C707.975 397.007 708.278 397.007 708.484 396.831L710.881 394.752C711.483 395.153 712.114 395.51 712.765 395.828L712.217 398.945C712.168 399.209 712.325 399.473 712.584 399.557L714.639 400.232C714.893 400.315 715.177 400.198 715.294 399.958L716.699 397.14C717.403 397.277 718.122 397.37 718.851 397.418L719.531 400.481C719.59 400.746 719.835 400.927 720.104 400.907L722.262 400.746C722.531 400.726 722.746 400.511 722.766 400.242L722.986 397.125C723.71 396.973 724.419 396.778 725.104 396.538L726.9 399.097C727.056 399.317 727.35 399.39 727.59 399.268L729.522 398.294C729.762 398.172 729.88 397.893 729.791 397.634L728.803 394.683C729.41 394.272 729.987 393.817 730.53 393.333L733.153 395.001C733.383 395.148 733.681 395.104 733.857 394.899L735.271 393.26C735.447 393.054 735.447 392.751 735.271 392.545L733.236 390.202C733.642 389.585 734.009 388.944 734.332 388.274L737.385 388.807C737.649 388.856 737.913 388.7 737.997 388.44L738.672 386.385C738.755 386.131 738.638 385.847 738.398 385.73L735.624 384.345C735.761 383.631 735.854 382.902 735.893 382.163L738.916 381.493C739.181 381.434 739.362 381.189 739.342 380.92L739.181 378.763C739.171 378.489 738.956 378.278 738.682 378.259ZM720.026 384.526C718.245 384.658 716.699 383.323 716.567 381.547C716.434 379.77 717.77 378.219 719.546 378.087C721.322 377.955 722.873 379.291 723.005 381.067C723.137 382.843 721.802 384.394 720.026 384.526Z" fill="#0064DA"/>
<path d="M719.732 390.769C724.969 390.769 729.214 386.524 729.214 381.287C729.214 376.05 724.969 371.805 719.732 371.805C714.496 371.805 710.25 376.05 710.25 381.287C710.25 386.524 714.496 390.769 719.732 390.769Z" fill="#A3C9F6"/>
<path d="M719.732 389.257C724.134 389.257 727.702 385.689 727.702 381.287C727.702 376.885 724.134 373.317 719.732 373.317C715.33 373.317 711.762 376.885 711.762 381.287C711.762 385.689 715.33 389.257 719.732 389.257Z" fill="#81B5F3"/>
<path d="M719.733 383.866C721.157 383.866 722.311 382.711 722.311 381.287C722.311 379.863 721.157 378.709 719.733 378.709C718.308 378.709 717.154 379.863 717.154 381.287C717.154 382.711 718.308 383.866 719.733 383.866Z" fill="#A7CBF6"/>
<path d="M413.424 279.602C413.018 279.602 412.617 279.436 412.328 279.108L411.677 278.374C411.139 277.767 411.193 276.843 411.8 276.3C412.406 275.761 413.331 275.815 413.869 276.422L414.52 277.156C415.058 277.763 415.004 278.687 414.398 279.23C414.119 279.48 413.771 279.602 413.424 279.602ZM403.027 267.894C402.621 267.894 402.22 267.728 401.931 267.4L401.28 266.666C400.742 266.059 400.796 265.134 401.403 264.591C402.009 264.053 402.934 264.107 403.472 264.714L404.123 265.448C404.661 266.054 404.607 266.979 404.001 267.522C403.722 267.772 403.374 267.894 403.027 267.894ZM392.63 256.186C392.224 256.186 391.823 256.019 391.534 255.692L390.883 254.958C390.345 254.351 390.399 253.426 391.006 252.883C391.612 252.345 392.537 252.399 393.075 253.005L393.726 253.739C394.264 254.346 394.21 255.271 393.604 255.814C393.325 256.063 392.977 256.186 392.63 256.186ZM382.233 244.482C381.827 244.482 381.426 244.316 381.137 243.988L380.486 243.254C379.948 242.648 380.002 241.723 380.609 241.18C381.215 240.642 382.14 240.695 382.678 241.302L383.329 242.036C383.867 242.643 383.813 243.567 383.207 244.111C382.928 244.36 382.58 244.482 382.233 244.482ZM371.836 232.779C371.43 232.779 371.029 232.613 370.74 232.285L370.089 231.551C369.551 230.944 369.605 230.02 370.212 229.476C370.818 228.938 371.743 228.992 372.281 229.599L372.932 230.333C373.47 230.939 373.416 231.864 372.81 232.407C372.531 232.657 372.183 232.779 371.836 232.779ZM361.439 221.071C361.033 221.071 360.632 220.904 360.343 220.577L359.692 219.843C359.154 219.236 359.208 218.311 359.815 217.773C360.421 217.235 361.346 217.289 361.889 217.895L362.54 218.629C363.078 219.236 363.024 220.161 362.418 220.699C362.134 220.948 361.782 221.071 361.439 221.071ZM351.042 209.363C350.636 209.363 350.235 209.196 349.946 208.868L349.295 208.134C348.757 207.528 348.811 206.603 349.418 206.06C350.024 205.522 350.949 205.576 351.487 206.182L352.138 206.916C352.676 207.523 352.622 208.448 352.016 208.991C351.737 209.24 351.385 209.363 351.042 209.363ZM340.645 197.659C340.239 197.659 339.838 197.493 339.549 197.165L338.898 196.431C338.36 195.824 338.414 194.9 339.021 194.357C339.627 193.818 340.552 193.872 341.09 194.479L341.741 195.213C342.279 195.819 342.225 196.744 341.619 197.287C341.34 197.537 340.987 197.659 340.645 197.659Z" fill="white"/>
<path d="M84.3158 335.282C86.8829 335.282 88.9639 333.2 88.9639 330.633C88.9639 328.066 86.8829 325.985 84.3158 325.985C81.7487 325.985 79.6677 328.066 79.6677 330.633C79.6677 333.2 81.7487 335.282 84.3158 335.282Z" fill="#81B5F3"/>
<path d="M888.12 195.854C889.549 195.854 890.708 194.695 890.708 193.265C890.708 191.836 889.549 190.677 888.12 190.677C886.69 190.677 885.532 191.836 885.532 193.265C885.532 194.695 886.69 195.854 888.12 195.854Z" fill="#81B5F3"/>
<path d="M184.264 351.398C186.075 351.398 187.542 349.93 187.542 348.12C187.542 346.309 186.075 344.842 184.264 344.842C182.454 344.842 180.986 346.309 180.986 348.12C180.986 349.93 182.454 351.398 184.264 351.398Z" fill="#81B5F3"/>
<path d="M361.219 336.91C364.537 336.91 367.227 334.22 367.227 330.902C367.227 327.584 364.537 324.894 361.219 324.894C357.901 324.894 355.211 327.584 355.211 330.902C355.211 334.22 357.901 336.91 361.219 336.91Z" fill="#81B5F3"/>
<path d="M313.158 55.3792C314.666 55.3792 315.888 54.1569 315.888 52.6491C315.888 51.1413 314.666 49.9189 313.158 49.9189C311.65 49.9189 310.428 51.1413 310.428 52.6491C310.428 54.1569 311.65 55.3792 313.158 55.3792Z" fill="#81B5F3"/>
<path d="M116.04 153.879C119.056 153.879 121.501 151.434 121.501 148.419C121.501 145.403 119.056 142.958 116.04 142.958C113.025 142.958 110.58 145.403 110.58 148.419C110.58 151.434 113.025 153.879 116.04 153.879Z" fill="#81B5F3"/>
<path d="M536.583 133.672C538.694 133.672 540.405 131.961 540.405 129.851C540.405 127.741 538.694 126.03 536.583 126.03C534.473 126.03 532.762 127.741 532.762 129.851C532.762 131.961 534.473 133.672 536.583 133.672Z" fill="#81B5F3"/>
<path d="M542.259 47.3794C544.253 47.3794 545.87 45.7627 545.87 43.7685C545.87 41.7743 544.253 40.1577 542.259 40.1577C540.265 40.1577 538.648 41.7743 538.648 43.7685C538.648 45.7627 540.265 47.3794 542.259 47.3794Z" fill="#81B5F3"/>
<path d="M742.987 201.461C746.608 201.461 749.544 198.525 749.544 194.904C749.544 191.283 746.608 188.348 742.987 188.348C739.366 188.348 736.431 191.283 736.431 194.904C736.431 198.525 739.366 201.461 742.987 201.461Z" fill="#81B5F3"/>
<path d="M66.2911 195.198C68.7041 195.198 70.6603 193.242 70.6603 190.829C70.6603 188.416 68.7041 186.459 66.2911 186.459C63.878 186.459 61.9219 188.416 61.9219 190.829C61.9219 193.242 63.878 195.198 66.2911 195.198Z" fill="#81B5F3"/>
<path d="M769.746 140.581C772.761 140.581 775.206 138.136 775.206 135.12C775.206 132.105 772.761 129.66 769.746 129.66C766.73 129.66 764.285 132.105 764.285 135.12C764.285 138.136 766.73 140.581 769.746 140.581Z" fill="#81B5F3"/>
<path d="M416.076 204.342C418.489 204.342 420.445 202.386 420.445 199.973C420.445 197.56 418.489 195.604 416.076 195.604C413.663 195.604 411.707 197.56 411.707 199.973C411.707 202.386 413.663 204.342 416.076 204.342Z" fill="#81B5F3"/>
<path d="M478.15 55.5161C477.079 58.6866 475.087 61.4216 472.475 63.408C472.01 63.7456 471.99 64.3915 472.421 64.7682C475.014 67.0433 477.005 69.9789 478.111 73.3256C478.4 74.1671 479.525 74.1671 479.814 73.3256C480.939 69.9789 482.93 67.0433 485.504 64.7682C485.934 64.3915 485.915 63.7456 485.45 63.408C482.837 61.4216 480.851 58.6817 479.775 55.5161C479.525 54.7284 478.419 54.7284 478.15 55.5161Z" fill="#81B5F3"/>
<path d="M841.717 257.703C840.646 260.873 838.655 263.608 836.042 265.595C835.577 265.932 835.558 266.578 835.988 266.955C838.581 269.23 840.568 272.165 841.678 275.512C841.967 276.354 843.092 276.354 843.381 275.512C844.506 272.165 846.498 269.23 849.071 266.955C849.502 266.578 849.482 265.932 849.017 265.595C846.405 263.608 844.418 260.868 843.342 257.703C843.097 256.915 841.987 256.915 841.717 257.703Z" fill="#81B5F3"/>
<path d="M221.41 291.716C220.338 294.887 218.347 297.622 215.734 299.608C215.27 299.946 215.25 300.592 215.681 300.968C218.274 303.244 220.26 306.179 221.371 309.526C221.659 310.367 222.785 310.367 223.073 309.526C224.199 306.179 226.19 303.244 228.764 300.968C229.194 300.592 229.175 299.946 228.71 299.608C226.097 297.622 224.111 294.882 223.034 291.716C222.785 290.929 221.674 290.929 221.41 291.716Z" fill="#81B5F3"/>
<path d="M513.603 374.897C511.435 362.401 509.106 336.817 518.608 314.149L532.508 320.446C523.887 341.006 526.651 363.605 528.515 373.395C528.672 374.207 521.201 375.763 513.603 374.897Z" fill="url(#paint4_linear)"/>
<path d="M528.491 373.258L516.758 374.477L515.946 438.189L539.49 435.748C541.281 435.562 542.406 433.972 542 432.201L528.491 373.258Z" fill="#522CD5"/>
<path d="M488.2 424.46C486.429 426.28 486.835 428.595 487.392 431.022L489.095 438.458C489.398 439.789 490.749 440.763 492.099 440.621L516.631 438.077C518.158 437.92 519.112 436.565 518.764 435.058L517.341 427.313C516.7 424.514 517.478 423.369 519.239 420.478C522.253 415.526 529.338 389.566 525.663 373.552L513.583 374.804C514.341 384.467 505.119 407.106 488.2 424.46Z" fill="url(#paint5_linear)"/>
<path d="M487.392 431.022C487.006 429.329 486.708 427.69 487.153 426.237L517.757 423.062C517.111 424.397 516.93 425.513 517.346 427.313L518.769 435.058C519.117 436.565 518.158 437.921 516.636 438.077L492.104 440.621C490.759 440.758 489.408 439.785 489.1 438.459L487.392 431.022Z" fill="url(#paint6_radial)"/>
<path d="M573.01 368.748C571.234 356.213 565.563 330.976 549.348 310.975L537.846 319.904C552.558 338.041 556.883 360.484 558.111 370.338C558.209 371.155 565.925 371.135 573.01 368.748Z" fill="url(#paint7_linear)"/>
<path d="M594.004 417.768C593.75 416.099 593.265 414.656 592.165 412.293C576.381 383.631 573.015 368.679 573.015 368.679L558.077 370.23C558.077 370.23 559.447 385.104 553.047 416.065C552.504 418.281 552.715 420.229 552.891 422.034L554.373 431.59C554.598 433.028 555.968 434.085 557.412 433.933L558.131 433.86L592.59 430.288L593.309 430.215C594.758 430.063 595.751 428.771 595.521 427.323L594.004 417.768Z" fill="url(#paint8_linear)"/>
<path d="M594.004 417.768C593.965 417.499 593.911 417.235 593.857 416.975C593.647 416.153 593.114 415.258 591.289 415.449L554.442 419.27C553.121 419.461 552.847 420.527 552.812 421.183C552.837 421.467 552.861 421.756 552.891 422.034L554.373 431.59C554.515 432.49 555.102 433.239 555.875 433.64C556.34 433.88 556.869 433.992 557.412 433.938L558.131 433.865L592.59 430.293L593.309 430.22C594.034 430.147 594.645 429.784 595.046 429.261C595.448 428.737 595.638 428.052 595.526 427.328L594.004 417.768Z" fill="url(#paint9_radial)"/>
<path d="M463.902 252.438C465.541 231.893 473.932 217.949 473.932 217.949L469.499 216.408L469.421 216.285C487.784 183.92 527.17 168.244 563.581 180.896C604.602 195.149 626.296 239.956 612.044 280.972C597.791 321.987 552.984 343.687 511.968 329.434C479.603 318.186 459.269 287.919 459.132 255.495C459.264 254.17 460.052 251.978 463.902 252.438Z" fill="url(#paint10_radial)"/>
<path d="M467.185 255.246C468.765 235.436 476.858 222 476.858 222L472.582 220.513L472.503 220.396C490.205 189.19 528.183 174.081 563.283 186.274C602.831 200.012 623.747 243.21 610.008 282.758C596.269 322.306 553.072 343.222 513.524 329.483C482.318 318.641 462.718 289.456 462.586 258.201C462.713 256.915 463.476 254.801 467.185 255.246Z" fill="url(#paint11_radial)"/>
<path d="M460.668 270.531L588.74 315.03C584.17 318.915 579.179 322.247 573.881 324.987L466.148 287.553C463.692 282.122 461.847 276.412 460.668 270.531Z" fill="#D8CFF7"/>
<path d="M568.797 184.184L554.501 179.037L561.801 165.088L572.066 168.782L568.797 184.184Z" fill="#8A6FE8"/>
<path d="M569.253 171.85C575.227 171.85 580.07 167.007 580.07 161.032C580.07 155.058 575.227 150.214 569.253 150.214C563.278 150.214 558.435 155.058 558.435 161.032C558.435 167.007 563.278 171.85 569.253 171.85Z" fill="#D8CFF7"/>
<path d="M571.033 195.125C571.679 195.355 572.393 194.983 572.555 194.317C574.243 187.257 570.387 179.913 563.401 177.393C556.414 174.879 548.762 178.083 545.562 184.6C545.259 185.217 545.577 185.961 546.217 186.191L571.033 195.125Z" fill="url(#paint12_radial)"/>
<path d="M463.903 252.438C465.522 232.143 473.722 218.301 473.923 217.969L550.978 244.742C550.978 244.742 556.003 245.935 554.462 250.368C552.921 254.801 548.385 267.268 543.571 281.124C542.582 283.971 539.769 284.534 537.934 283.898C537.934 283.903 463.927 254.268 463.903 252.438Z" fill="url(#paint13_radial)"/>
<path d="M512.198 269.284C512.198 269.284 503.607 255.785 501.899 253.25C500.192 250.711 498.2 249.914 495.441 251.005C492.686 252.101 477.592 257.258 477.592 257.258L512.198 269.284Z" fill="#A08BE8"/>
<path d="M459.133 256.46C459.133 256.46 458.448 251.787 463.903 252.438C463.903 252.419 539.681 278.702 539.681 278.702C541.443 279.314 544.08 279.05 544.868 277.411C544.437 278.634 544.006 279.872 543.571 281.124C542.671 283.707 540.278 284.407 538.468 284.04C538.287 284.001 538.111 283.962 537.93 283.898L532.748 282.098L459.133 256.46Z" fill="url(#paint14_radial)"/>
<path d="M532.826 257.527C534.78 252.163 533.777 246.871 530.586 245.708C527.394 244.546 523.223 247.952 521.268 253.317C519.314 258.682 520.317 263.973 523.508 265.136C526.7 266.299 530.871 262.892 532.826 257.527Z" fill="#512BD4"/>
<path d="M486.111 241.055C487.905 235.634 486.744 230.375 483.52 229.308C480.295 228.241 476.227 231.771 474.434 237.192C472.64 242.612 473.8 247.872 477.025 248.939C480.25 250.005 484.318 246.476 486.111 241.055Z" fill="#512BD4"/>
<path d="M528.785 250.544C528.012 248.944 526.593 247.868 524.993 247.472C523.491 248.856 522.146 250.882 521.26 253.318C520.707 254.835 520.399 256.342 520.301 257.761C521.955 258.921 524.167 259.175 526.114 258.236C528.971 256.841 530.17 253.402 528.785 250.544Z" fill="#8065E0"/>
<path d="M482.133 233.978C481.36 232.378 479.936 231.297 478.336 230.9C476.731 232.329 475.303 234.531 474.422 237.188C473.972 238.548 473.708 239.893 473.615 241.165C475.273 242.344 477.5 242.609 479.462 241.659C482.324 240.28 483.518 236.84 482.133 233.978Z" fill="#8065E0"/>
<path d="M478.442 271.844L470.681 293.746L492.583 301.507L500.343 279.605L478.442 271.844Z" fill="#512BD4"/>
<path d="M477.386 287.239C477.23 287.186 477.117 287.088 477.049 286.946C476.98 286.804 476.97 286.657 477.019 286.51C477.073 286.364 477.171 286.256 477.318 286.187C477.465 286.119 477.616 286.114 477.768 286.168C477.924 286.222 478.042 286.324 478.11 286.466C478.184 286.613 478.194 286.76 478.14 286.907C478.086 287.053 477.988 287.156 477.841 287.225C477.695 287.288 477.543 287.293 477.386 287.239Z" fill="white"/>
<path d="M483.61 289.348L482.602 288.991L481.432 283.869C481.403 283.741 481.388 283.609 481.383 283.482L481.359 283.472C481.335 283.599 481.256 283.864 481.114 284.265L479.793 287.998L478.903 287.685L480.919 281.995L481.99 282.376L483.106 287.367C483.155 287.572 483.184 287.714 483.189 287.793L483.204 287.797C483.233 287.636 483.311 287.377 483.438 287.019L484.74 283.35L485.625 283.663L483.61 289.348Z" fill="white"/>
<path d="M487.945 290.884L484.828 289.779L486.844 284.088L489.838 285.15L489.554 285.953L487.485 285.219L486.912 286.828L488.82 287.503L488.537 288.301L486.628 287.626L486.031 289.309L488.228 290.087L487.945 290.884Z" fill="white"/>
<path d="M494.105 287.563L492.51 286.995L490.778 291.883L489.858 291.555L491.59 286.667L490 286.105L490.284 285.302L494.389 286.755L494.105 287.563Z" fill="white"/>
<path d="M422.755 336.113C430.937 336.113 437.57 329.48 437.57 321.298C437.57 313.115 430.937 306.482 422.755 306.482C414.573 306.482 407.94 313.115 407.94 321.298C407.94 329.48 414.573 336.113 422.755 336.113Z" fill="url(#paint15_radial)"/>
<path d="M500.721 347.973H432.218C428.211 347.973 424.619 344.724 424.199 340.717L419.58 296.79C419.159 292.783 422.065 289.534 426.072 289.534H494.575C498.582 289.534 502.174 292.783 502.594 296.79L507.213 340.717C507.634 344.724 504.728 347.973 500.721 347.973Z" fill="url(#paint16_linear)"/>
<path d="M426.351 336.866H420.911C417.544 336.866 414.809 334.136 414.809 330.765C414.809 327.399 417.539 324.664 420.911 324.664H426.351C429.717 324.664 432.452 327.394 432.452 330.765C432.448 334.136 429.717 336.866 426.351 336.866Z" fill="#8A6FE8"/>
<path d="M429.717 327.125H418.894C415.528 327.125 412.793 324.395 412.793 321.024C412.793 317.658 415.523 314.923 418.894 314.923H429.717C433.083 314.923 435.818 317.653 435.818 321.024C435.818 324.395 433.088 327.125 429.717 327.125Z" fill="#8A6FE8"/>
<path d="M428.21 314.037L420.108 316.156C416.849 317.007 413.517 315.06 412.666 311.801C411.815 308.543 413.762 305.211 417.02 304.359L425.123 302.241C428.381 301.389 431.713 303.337 432.565 306.595C433.421 309.849 431.469 313.181 428.21 314.037Z" fill="#8A6FE8"/>
<path d="M529.079 333.065C521.055 333.065 513.364 331.817 506.758 330.193C502.56 329.16 499.992 324.923 501.019 320.725C502.052 316.527 506.289 313.959 510.487 314.986C530.013 319.781 545.386 317.618 556.175 308.557C567.629 298.938 571 283.648 570.471 275.712C570.183 271.397 573.446 267.669 577.761 267.38C582.077 267.101 585.805 270.355 586.094 274.67C587.014 288.438 581.23 307.965 566.239 320.549C554.976 330.007 541.624 333.065 529.079 333.065Z" fill="url(#paint17_linear)"/>
<path d="M501.185 320.559L495.285 307.129C493.739 303.537 495.392 299.374 498.984 297.828C502.575 296.281 506.739 297.935 508.285 301.526L514.337 315.299L501.185 320.559Z" fill="#8A6FE8"/>
<path d="M505.75 333.055L491.092 333.618C487.182 333.74 483.919 330.672 483.792 326.768C483.669 322.859 486.737 319.595 490.641 319.468L505.672 318.891L505.75 333.055Z" fill="#8A6FE8"/>
<path d="M505.344 322.864L490.676 323.054C486.766 323.079 483.576 319.928 483.557 316.019C483.532 312.109 486.683 308.919 490.593 308.895L505.633 308.699L505.344 322.864Z" fill="#8A6FE8"/>
<path d="M508.348 339.274L493.69 339.836C489.781 339.959 486.517 336.891 486.39 332.987C486.268 329.077 489.335 325.814 493.24 325.687L508.27 325.109L508.348 339.274Z" fill="#8A6FE8"/>
<path d="M508.436 339.665C516.619 339.665 523.252 333.032 523.252 324.85C523.252 316.668 516.619 310.035 508.436 310.035C500.254 310.035 493.621 316.668 493.621 324.85C493.621 333.032 500.254 339.665 508.436 339.665Z" fill="url(#paint18_radial)"/>
<path d="M579.679 288.218C587.861 288.218 594.494 281.585 594.494 273.403C594.494 265.221 587.861 258.588 579.679 258.588C571.496 258.588 564.864 265.221 564.864 273.403C564.864 281.585 571.496 288.218 579.679 288.218Z" fill="url(#paint19_radial)"/>
<defs>
<linearGradient id="paint0_linear" x1="437.196" y1="287.102" x2="437.196" y2="-0.00077007" gradientUnits="userSpaceOnUse">
<stop offset="0.00919726" stop-color="#2980E7"/>
<stop offset="0.3047" stop-color="#3085E9"/>
<stop offset="1" stop-color="#0064DA"/>
</linearGradient>
<radialGradient id="paint1_radial" cx="0" cy="0" r="1" gradientUnits="userSpaceOnUse" gradientTransform="translate(458.816 398.831) rotate(-2.94624) scale(88.492)">
<stop stop-color="#3E8EED"/>
<stop offset="0.7624" stop-color="#A3C9F6"/>
</radialGradient>
<radialGradient id="paint2_radial" cx="0" cy="0" r="1" gradientUnits="userSpaceOnUse" gradientTransform="translate(267.484 373.726) rotate(-1.75358) scale(121.254)">
<stop stop-color="#3E8EED"/>
<stop offset="0.7624" stop-color="#A3C9F6"/>
</radialGradient>
<radialGradient id="paint3_radial" cx="0" cy="0" r="1" gradientUnits="userSpaceOnUse" gradientTransform="translate(503.172 445.358) rotate(-5.19177) scale(151.899 101.086)">
<stop stop-color="#3E8EED"/>
<stop offset="0.7624" stop-color="#A3C9F6"/>
</radialGradient>
<linearGradient id="paint4_linear" x1="523.008" y1="314.548" x2="517.077" y2="375.208" gradientUnits="userSpaceOnUse">
<stop offset="0.1149" stop-color="#522CD5"/>
<stop offset="0.5087" stop-color="#8A6FE8"/>
</linearGradient>
<linearGradient id="paint5_linear" x1="522.581" y1="372.298" x2="493.868" y2="441.712" gradientUnits="userSpaceOnUse">
<stop stop-color="#522CD5"/>
<stop offset="0.4397" stop-color="#8A6FE8"/>
</linearGradient>
<radialGradient id="paint6_radial" cx="0" cy="0" r="1" gradientUnits="userSpaceOnUse" gradientTransform="translate(500.989 412.034) rotate(174.08) scale(25.9882 26.0577)">
<stop offset="0.034" stop-color="#522CD5"/>
<stop offset="0.9955" stop-color="#8A6FE8"/>
</radialGradient>
<linearGradient id="paint7_linear" x1="545.254" y1="312.229" x2="564.144" y2="371.528" gradientUnits="userSpaceOnUse">
<stop offset="0.085" stop-color="#522CD5"/>
<stop offset="0.5382" stop-color="#8A6FE8"/>
</linearGradient>
<linearGradient id="paint8_linear" x1="565.414" y1="369.46" x2="571.942" y2="432.416" gradientUnits="userSpaceOnUse">
<stop stop-color="#522CD5"/>
<stop offset="0.4397" stop-color="#8A6FE8"/>
</linearGradient>
<radialGradient id="paint9_radial" cx="0" cy="0" r="1" gradientUnits="userSpaceOnUse" gradientTransform="translate(570.062 404.834) rotate(-5.92011) scale(28.4916 28.5678)">
<stop offset="0.034" stop-color="#522CD5"/>
<stop offset="0.9955" stop-color="#8A6FE8"/>
</radialGradient>
<radialGradient id="paint10_radial" cx="0" cy="0" r="1" gradientUnits="userSpaceOnUse" gradientTransform="translate(520.292 126.535) scale(93.4749)">
<stop offset="0.186" stop-color="#D0C5F3"/>
<stop offset="1" stop-color="#A08BE8"/>
</radialGradient>
<radialGradient id="paint11_radial" cx="0" cy="0" r="1" gradientUnits="userSpaceOnUse" gradientTransform="translate(520.143 223.144) scale(75.8223)">
<stop offset="0.186" stop-color="#A08BE8"/>
<stop offset="0.684" stop-color="#8065E0"/>
<stop offset="0.8157" stop-color="#8065E0"/>
</radialGradient>
<radialGradient id="paint12_radial" cx="0" cy="0" r="1" gradientUnits="userSpaceOnUse" gradientTransform="translate(557.891 181.21) rotate(-25.2786) scale(11.9297)">
<stop stop-color="#8065E0"/>
<stop offset="1" stop-color="#512BD4"/>
</radialGradient>
<radialGradient id="paint13_radial" cx="0" cy="0" r="1" gradientUnits="userSpaceOnUse" gradientTransform="translate(539.014 233.691) scale(67.3316)">
<stop offset="0.0933" stop-color="#E1DFDD"/>
<stop offset="0.6573" stop-color="white"/>
</radialGradient>
<radialGradient id="paint14_radial" cx="0" cy="0" r="1" gradientUnits="userSpaceOnUse" gradientTransform="translate(511.839 279.518) scale(77.4143)">
<stop stop-color="#512BD4"/>
<stop offset="0.5107" stop-color="#6645D9"/>
</radialGradient>
<radialGradient id="paint15_radial" cx="0" cy="0" r="1" gradientUnits="userSpaceOnUse" gradientTransform="translate(422.755 321.3) scale(14.8201)">
<stop stop-color="#8065E0"/>
<stop offset="1" stop-color="#512BD4"/>
</radialGradient>
<linearGradient id="paint16_linear" x1="463.398" y1="289.533" x2="463.398" y2="347.972" gradientUnits="userSpaceOnUse">
<stop stop-color="#E1DFDD"/>
<stop offset="0.1762" stop-color="#B3AFAB"/>
</linearGradient>
<linearGradient id="paint17_linear" x1="543.49" y1="267.369" x2="543.49" y2="333.063" gradientUnits="userSpaceOnUse">
<stop offset="0.4836" stop-color="#9780E6"/>
<stop offset="0.9269" stop-color="#8A6FE8"/>
</linearGradient>
<radialGradient id="paint18_radial" cx="0" cy="0" r="1" gradientUnits="userSpaceOnUse" gradientTransform="translate(507.046 319.918) scale(24.8744)">
<stop stop-color="#8065E0"/>
<stop offset="1" stop-color="#512BD4"/>
</radialGradient>
<radialGradient id="paint19_radial" cx="0" cy="0" r="1" gradientUnits="userSpaceOnUse" gradientTransform="translate(578.292 268.471) scale(24.8745)">
<stop stop-color="#8065E0"/>
<stop offset="1" stop-color="#512BD4"/>
</radialGradient>
</defs>
</svg>
