<svg width="953" height="538" viewBox="0 0 953 538" fill="none" xmlns="http://www.w3.org/2000/svg">
<path d="M565.912 1.80865C386.003 13.1977 334.76 54.1891 186.733 43.9374C21.0184 32.4667 -49.9986 213.447 38.0433 356.18H932.835C945.979 323.711 952.069 289.462 952.895 255.907C957.618 64.4356 802.746 -13.1812 565.912 1.80865Z" fill="url(#paint0_linear)"/>
<path d="M167.077 165.866C197.028 165.866 221.308 141.586 221.308 111.634C221.308 81.6828 197.028 57.4023 167.077 57.4023C137.125 57.4023 112.845 81.6828 112.845 111.634C112.845 141.586 137.125 165.866 167.077 165.866Z" fill="url(#paint1_radial)"/>
<path d="M789.603 228.707C636.47 213.304 586.273 285.887 395.383 227.049C302.531 198.431 109.943 208.907 0.68335 243.743C2.02984 261.227 5.38586 279.001 10.8636 296.674H949.207C951.37 283.082 952.558 269.438 952.895 255.907C952.931 254.464 952.956 253.025 952.971 251.597C912.99 245.13 825.203 232.287 789.603 228.707Z" fill="#72ACF1"/>
<path d="M589.312 229.773L620.056 229.773L620.056 206.531L589.312 206.531L589.312 229.773Z" fill="#3E8EED"/>
<path d="M589.311 317.61L632.297 317.61L632.297 226.676L589.311 226.676L589.311 317.61Z" fill="#A7CBF6"/>
<path d="M586.038 226.677H593.867L614.646 319.258H583.416L586.038 226.677Z" fill="#72ACF1"/>
<path d="M561.934 319.259L542.741 326.425V133.918L561.934 116.138V319.259Z" fill="#3E8EED"/>
<path d="M561.934 319.258H589.761V116.138H561.934V319.258Z" fill="url(#paint2_linear)"/>
<path d="M589.761 144.898H561.934V147.989H589.761V144.898Z" fill="#72ACF1"/>
<path d="M470.582 183.238C486.903 183.238 500.133 224.02 500.133 274.33V388.215H441.031V274.33C441.031 224.025 454.261 183.238 470.582 183.238Z" fill="url(#paint3_linear)"/>
<path d="M441.918 252.097L443.78 255.882L441.352 260.809C441.209 263.808 441.112 266.847 441.061 269.933L445.881 260.146L456.097 280.894L441.031 311.501V320.039L458.198 285.168L468.414 305.916L449.4 344.536L453.083 345.591L470.516 310.18L487.948 345.591L491.631 344.536L472.617 305.916L482.833 285.168L500.138 320.314V311.776L484.934 280.899L495.15 260.151L500.108 270.219C500.062 267.143 499.97 264.103 499.827 261.115L497.251 255.882L499.23 251.863C499.031 249.445 498.802 247.063 498.542 244.727L495.15 251.613L484.934 230.865L492.911 214.661C492.396 212.84 491.86 211.08 491.304 209.392L482.833 226.601L472.617 205.853L480.925 188.981C480.002 187.915 479.053 186.986 478.09 186.206L470.521 201.584L462.993 186.288C462.029 187.073 461.085 188.012 460.167 189.083L468.424 205.853L458.208 226.601L449.818 209.555C449.262 211.249 448.727 213.013 448.217 214.834L456.107 230.865L445.891 251.613L442.612 244.947C442.346 247.288 442.117 249.675 441.918 252.097ZM480.731 230.865L470.516 251.613L460.3 230.865L470.516 210.116L480.731 230.865ZM482.833 276.63L472.617 255.882L482.833 235.134L493.049 255.882L482.833 276.63ZM447.987 255.882L458.203 235.134L468.419 255.882L458.203 276.63L447.987 255.882ZM460.3 280.899L470.516 260.151L480.731 280.899L470.516 301.647L460.3 280.899Z" fill="#72ACF1"/>
<path d="M387.074 201.253L415.529 201.253L415.529 170.539L387.074 170.539L387.074 201.253Z" fill="#3E8EED"/>
<path d="M382.581 170.537L420.022 170.537L420.022 164.534L382.581 164.534L382.581 170.537Z" fill="#A7CBF6"/>
<path d="M372.349 340.675H430.753L421.812 195.765H381.29L372.349 340.675Z" fill="#A7CBF6"/>
<path d="M395.321 340.673L407.781 340.673L407.781 195.762L395.321 195.762L395.321 340.673Z" fill="#72ACF1"/>
<path d="M496.293 104.529C538.36 111.435 569.595 198.692 542.216 321.202C514.832 443.706 506.279 193.984 506.279 193.984L496.293 104.529Z" fill="url(#paint4_linear)"/>
<path d="M532.888 136.381H499.848L499.705 135.105H532.194C532.429 135.529 532.658 135.952 532.888 136.381Z" fill="#72ACF1"/>
<path d="M504.856 181.299L504.713 180.024H547.663C547.75 180.448 547.832 180.876 547.913 181.299H504.856Z" fill="#72ACF1"/>
<path d="M507.182 214.987C507.162 214.559 507.141 214.13 507.121 213.712H551.927C551.953 214.135 551.978 214.564 552.004 214.987H507.182Z" fill="#72ACF1"/>
<path d="M506.662 203.756C506.641 203.317 506.626 202.889 506.605 202.481H550.999C551.045 202.904 551.085 203.333 551.126 203.756H506.662Z" fill="#72ACF1"/>
<path d="M506.111 192.525L505.968 191.25H549.601C549.663 191.673 549.729 192.102 549.79 192.525H506.111Z" fill="#72ACF1"/>
<path d="M503.606 170.069L503.464 168.793H545.108C545.215 169.217 545.327 169.645 545.434 170.069H503.606Z" fill="#72ACF1"/>
<path d="M501.097 147.612L500.954 146.337H537.616C537.794 146.76 537.973 147.184 538.146 147.612H501.097Z" fill="#72ACF1"/>
<path d="M502.352 158.842L502.209 157.567H541.824C541.961 157.991 542.099 158.419 542.237 158.842H502.352Z" fill="#72ACF1"/>
<path d="M507.769 226.213C507.743 225.785 507.723 225.356 507.697 224.938H552.422C552.432 225.361 552.443 225.79 552.448 226.213H507.769Z" fill="#72ACF1"/>
<path d="M496.293 104.529C497.405 104.713 498.511 104.953 499.608 105.248V112.644H513.996C514.521 113.057 515.047 113.48 515.567 113.919H499.613V123.87H524.921C525.242 124.288 525.564 124.716 525.88 125.145H499.613V134.244L496.293 104.529Z" fill="#72ACF1"/>
<path d="M508.411 237.444C508.386 237.016 508.36 236.592 508.335 236.169H552.509C552.504 236.592 552.498 237.021 552.493 237.444H508.411Z" fill="#72ACF1"/>
<path d="M509.13 248.675C509.1 248.247 509.074 247.823 509.044 247.4H552.223C552.208 247.823 552.187 248.252 552.172 248.675H509.13Z" fill="#72ACF1"/>
<path d="M509.921 259.901C509.89 259.472 509.859 259.049 509.829 258.625H551.59C551.56 259.049 551.529 259.477 551.493 259.901H509.921Z" fill="#72ACF1"/>
<path d="M510.793 271.132C510.757 270.703 510.722 270.28 510.691 269.856H550.611C550.57 270.28 550.525 270.708 550.479 271.132H510.793Z" fill="#72ACF1"/>
<path d="M514.128 304.819C514.077 304.396 514.026 303.967 513.975 303.544H545.801C545.725 303.967 545.643 304.396 545.567 304.819H514.128Z" fill="#72ACF1"/>
<path d="M512.874 293.589C512.828 293.165 512.787 292.737 512.741 292.313H547.714C547.648 292.737 547.582 293.165 547.515 293.589H512.874Z" fill="#72ACF1"/>
<path d="M511.772 282.357C511.732 281.934 511.696 281.505 511.655 281.082H549.316C549.26 281.505 549.209 281.934 549.153 282.357H511.772Z" fill="#72ACF1"/>
<path d="M499.858 101.454H489.876V334.509H527.879L499.858 101.454Z" fill="#3E8EED"/>
<path d="M516.056 236.164L527.879 334.508H489.876V236.164H516.056Z" fill="#72ACF1"/>
<path d="M787.461 248.364C731.24 248.364 678.819 259.426 634.634 278.522C602.308 269.877 567.111 265.129 530.276 265.129C510.497 265.129 491.188 266.501 472.541 269.107C433.926 255.841 390.277 248.364 344.068 248.364C286.628 248.364 237.466 255.882 184.999 268.219C118.287 262.946 62.4332 265.072 4.77905 272.968C14.2606 319.452 38.0485 366.442 78.1014 406.928H905.008C915.78 391.862 924.502 375.994 931.397 359.653C931.397 357.669 931.397 355.659 931.397 353.63C931.397 347.04 934.983 341.175 940.18 335.569C946.035 316.688 949.718 297.398 951.559 278.16C903.422 263.451 830.523 248.364 787.461 248.364Z" fill="#3E8EED"/>
<path d="M949.304 296.052C792.367 289.569 378.705 276.125 10.5679 295.7C23.2116 337.084 47.4535 377.963 84.6859 413.385C203.819 526.735 567.856 574.729 765.182 506.236C884.28 464.898 935.926 381.396 949.304 296.052Z" fill="#60A2F0"/>
<path d="M761.154 54.9913L752.7 63.4448L761.154 71.8983L769.607 63.4448L761.154 54.9913Z" fill="#A7CBF6"/>
<path d="M705.776 74.0591L700.6 79.2344L705.776 84.4097L710.951 79.2344L705.776 74.0591Z" fill="#A7CBF6"/>
<path d="M641.492 140.103L636.316 145.278L641.492 150.453L646.667 145.278L641.492 140.103Z" fill="#A7CBF6"/>
<path d="M267.479 100.668L259.026 109.121L267.479 117.575L275.933 109.121L267.479 100.668Z" fill="#A7CBF6"/>
<path d="M299.271 145.792L294.095 150.967L299.271 156.142L304.446 150.967L299.271 145.792Z" fill="#A7CBF6"/>
<path d="M400.616 62.6709L395.441 67.8462L400.616 73.0215L405.791 67.8462L400.616 62.6709Z" fill="#A7CBF6"/>
<path d="M543.463 79.7505L538.287 84.9258L543.463 90.101L548.638 84.9258L543.463 79.7505Z" fill="#A7CBF6"/>
<path d="M63.0866 174.225L71.54 165.771L63.0866 157.317L54.6331 165.771L63.0866 174.225Z" fill="#A7CBF6"/>
<path d="M850.4 137.92L855.575 132.745L850.4 127.57L845.225 132.745L850.4 137.92Z" fill="#A7CBF6"/>
<path d="M609.332 41.3691L614.507 36.1938L609.332 31.0186L604.157 36.1938L609.332 41.3691Z" fill="#A7CBF6"/>
<path d="M81.4158 384.191H591.592C594.096 384.191 596.126 382.161 596.126 379.656C596.126 377.152 594.096 375.117 591.592 375.117H81.4158C78.9115 375.117 76.8816 377.147 76.8816 379.656C76.8765 382.161 78.9064 384.191 81.4158 384.191Z" fill="#0064DA"/>
<path d="M100.753 358.814L152.777 358.814L152.777 324.581L100.753 324.581L100.753 358.814Z" fill="#0064DA"/>
<path d="M391.76 363.58L464.685 363.58L464.685 316.698L391.76 316.698L391.76 363.58Z" fill="#0064DA"/>
<path d="M129.252 331.647H140.998C153.576 331.647 163.771 343.378 163.771 357.842C163.771 372.307 153.576 384.038 140.998 384.038H129.252V331.647Z" fill="#0064DA"/>
<path d="M130.001 384.038C142.579 384.038 152.774 372.31 152.774 357.843C152.774 343.375 142.579 331.647 130.001 331.647C117.424 331.647 107.229 343.375 107.229 357.843C107.229 372.31 117.424 384.038 130.001 384.038Z" fill="#1C77E2"/>
<path d="M129.252 376.066C138.001 376.066 145.094 367.907 145.094 357.842C145.094 347.778 138.001 339.619 129.252 339.619C120.503 339.619 113.41 347.778 113.41 357.842C113.41 367.907 120.503 376.066 129.252 376.066Z" fill="#A3C9F6"/>
<path d="M128.971 362.892C131.396 362.892 133.362 360.631 133.362 357.842C133.362 355.054 131.396 352.793 128.971 352.793C126.546 352.793 124.58 355.054 124.58 357.842C124.58 360.631 126.546 362.892 128.971 362.892Z" fill="#60A2F0"/>
<path d="M122.249 345.107C124.228 343.199 127.298 343.199 127.298 343.199C127.298 343.199 128.033 347.943 126.482 348.657C124.845 349.401 123.136 347.014 122.249 345.107Z" fill="#60A2F0"/>
<path d="M136.933 368.803C135.449 371.118 132.46 371.822 132.46 371.822C132.46 371.822 130.655 367.375 132.001 366.324C133.419 365.217 135.627 367.15 136.933 368.803Z" fill="#60A2F0"/>
<path d="M136.591 345.632C138.927 347.085 139.677 350.059 139.677 350.059C139.677 350.059 135.255 351.931 134.184 350.594C133.056 349.197 134.954 346.958 136.591 345.632Z" fill="#60A2F0"/>
<path d="M121.254 368.711C118.954 367.206 118.271 364.217 118.271 364.217C118.271 364.217 122.734 362.448 123.774 363.799C124.865 365.222 122.917 367.42 121.254 368.711Z" fill="#60A2F0"/>
<path d="M142.059 356.292C142.9 358.908 141.549 361.663 141.549 361.663C141.549 361.663 136.969 360.235 137.009 358.526C137.06 356.726 139.957 356.246 142.059 356.292Z" fill="#60A2F0"/>
<path d="M116.282 356.256C115.95 353.527 117.802 351.079 117.802 351.079C117.802 351.079 122.03 353.354 121.657 355.022C121.27 356.781 118.337 356.7 116.282 356.256Z" fill="#60A2F0"/>
<path d="M219.38 357.842C219.38 343.663 229.173 332.126 241.403 331.667V331.647H253.149C265.727 331.647 275.922 343.378 275.922 357.842C275.922 372.307 265.727 384.038 253.149 384.038H242.153H241.403V384.017C229.173 383.563 219.38 372.021 219.38 357.842Z" fill="#0064DA"/>
<path d="M513.296 357.842C513.296 343.663 523.089 332.126 535.32 331.667V331.647H547.066C559.643 331.647 569.839 343.378 569.839 357.842C569.839 372.307 559.643 384.038 547.066 384.038H536.069H535.32V384.017C523.094 383.563 513.296 372.021 513.296 357.842Z" fill="#0064DA"/>
<path d="M422.444 328.77H434.838C448.109 328.77 458.866 341.143 458.866 356.404C458.866 371.664 448.109 384.037 434.838 384.037H422.444V328.77Z" fill="#0064DA"/>
<path d="M423.235 384.037C436.505 384.037 447.263 371.665 447.263 356.404C447.263 341.142 436.505 328.77 423.235 328.77C409.965 328.77 399.207 341.142 399.207 356.404C399.207 371.665 409.965 384.037 423.235 384.037Z" fill="#1C77E2"/>
<path d="M422.444 375.627C431.675 375.627 439.158 367.02 439.158 356.404C439.158 345.787 431.675 337.181 422.444 337.181C413.213 337.181 405.73 345.787 405.73 356.404C405.73 367.02 413.213 375.627 422.444 375.627Z" fill="#A3C9F6"/>
<path d="M422.153 361.729C424.711 361.729 426.784 359.345 426.784 356.404C426.784 353.463 424.711 351.079 422.153 351.079C419.595 351.079 417.522 353.463 417.522 356.404C417.522 359.345 419.595 361.729 422.153 361.729Z" fill="#6BA8F1"/>
<path d="M415.059 342.969C417.145 340.955 420.383 340.955 420.383 340.955C420.383 340.955 421.159 345.958 419.521 346.713C417.797 347.503 415.992 344.984 415.059 342.969Z" fill="#6BA8F1"/>
<path d="M430.548 367.966C428.982 370.409 425.83 371.154 425.83 371.154C425.83 371.154 423.923 366.462 425.346 365.355C426.84 364.187 429.171 366.222 430.548 367.966Z" fill="#6BA8F1"/>
<path d="M430.191 343.525C432.655 345.055 433.445 348.197 433.445 348.197C433.445 348.197 428.784 350.171 427.651 348.763C426.463 347.284 428.462 344.923 430.191 343.525Z" fill="#6BA8F1"/>
<path d="M414.007 367.869C411.58 366.283 410.861 363.126 410.861 363.126C410.861 363.126 415.568 361.259 416.665 362.687C417.817 364.192 415.762 366.508 414.007 367.869Z" fill="#6BA8F1"/>
<path d="M435.96 354.766C436.847 357.525 435.424 360.432 435.424 360.432C435.424 360.432 430.589 358.923 430.635 357.122C430.681 355.225 433.736 354.72 435.96 354.766Z" fill="#6BA8F1"/>
<path d="M408.76 354.731C408.413 351.849 410.366 349.269 410.366 349.269C410.366 349.269 414.824 351.671 414.436 353.43C414.028 355.282 410.932 355.2 408.76 354.731Z" fill="#6BA8F1"/>
<path d="M424.859 325.552C435.865 325.552 446.877 333.029 452.054 349.733C457.236 366.436 459.179 366.804 471.481 366.804H588.579C590.574 366.804 592.308 365.442 592.782 363.504C594.276 357.409 597.102 344.107 596.133 334.233C594.837 321.018 593.078 318.101 585.774 316.305C544.329 306.12 490.582 304.697 490.582 304.697C490.582 304.697 452.661 276.013 405.732 276.013C358.804 276.013 226.379 273.621 191.411 276.859C156.444 280.098 117.452 306.931 117.452 306.931C117.452 306.931 87.8033 310.506 80.0355 315.709C75.639 318.651 77.1232 341.802 77.1232 348.896C77.1232 355.991 78.74 358.817 85.8652 358.817C92.9903 358.817 103.028 358.817 103.028 358.817C103.028 358.817 103.676 328.776 132.543 328.776C159.014 328.776 159.647 363.835 159.647 363.835L394.425 363.585C394.42 363.58 393.124 325.552 424.859 325.552Z" fill="#1C77E2"/>
<path d="M505.606 322.527H471.107C468.45 322.527 466.644 325.22 467.644 327.679L469.347 331.856C469.919 333.264 471.291 334.187 472.811 334.187H506.381C508.717 334.187 510.482 332.065 510.058 329.765L509.283 325.588C508.952 323.813 507.406 322.527 505.606 322.527Z" fill="#A3C9F6"/>
<path d="M596.131 334.187H583.207C581.212 334.187 579.514 332.723 579.223 330.749L578.479 325.715C578.229 324.037 579.529 322.533 581.223 322.533H593.953C594.988 325.108 595.595 328.786 596.131 334.187Z" fill="#A3C9F6"/>
<path d="M468.526 343.908H596.106C595.504 351.497 593.836 359.184 592.796 363.437C592.311 365.416 590.536 366.809 588.496 366.809H471.479C470.474 366.809 469.541 366.804 468.664 366.793C467.113 365.625 465.976 363.866 465.976 362.152C465.976 360.372 465.221 352.966 464.711 348.157C464.466 345.882 466.246 343.908 468.526 343.908Z" fill="#0064DA"/>
<path d="M573.817 349.269H522.483C520.519 349.269 518.851 347.836 518.56 345.897L515.148 323.497C514.812 321.293 516.352 319.248 518.56 318.963C524.88 318.147 537.355 316.703 546.49 316.703C556.012 316.703 566.743 319.1 571.548 320.304C573.098 320.692 574.266 321.972 574.506 323.553L577.74 344.699C578.112 347.101 576.25 349.269 573.817 349.269Z" fill="#A3C9F6"/>
<path d="M570.517 342.388H524.012C523.038 342.388 522.212 341.669 522.084 340.705L520.238 327.113C520.08 325.945 520.988 324.904 522.166 324.904H568.202C569.15 324.904 569.961 325.588 570.119 326.526L572.435 340.119C572.639 341.302 571.721 342.388 570.517 342.388Z" fill="#6BA8F1"/>
<path d="M488.953 303.529H386.36C384.248 303.529 382.198 302.784 380.581 301.422L361.583 285.473C360.088 284.219 360.976 281.781 362.924 281.781H443.356C466.588 288.738 483.776 299.918 488.953 303.529Z" fill="#72ACF1"/>
<path d="M363.072 304.084H138.219C138.219 304.084 165.561 284.06 194.195 282.77C222.828 281.48 335.632 281.821 339.391 281.775C343.15 281.735 345.108 283.642 348.77 286.789C351.173 288.855 359.252 295.659 364.52 300.096C366.142 301.453 365.178 304.084 363.072 304.084Z" fill="#72ACF1"/>
<path d="M501.219 363.585H486.29C485.26 363.585 484.428 362.749 484.428 361.723V359.469C484.428 358.439 485.265 357.607 486.29 357.607H501.219C502.249 357.607 503.08 358.444 503.08 359.469V361.723C503.085 362.749 502.249 363.585 501.219 363.585Z" fill="#60A2F0"/>
<path d="M580.096 357.598H594.101C593.637 359.883 593.178 361.887 592.801 363.432C592.791 363.483 592.765 363.529 592.75 363.58H580.096C578.918 363.58 577.959 362.621 577.959 361.443V359.735C577.959 358.557 578.913 357.598 580.096 357.598Z" fill="#60A2F0"/>
<path d="M306.024 314.357H320.708C321.779 314.357 322.646 313.49 322.646 312.419V311.853C322.646 310.782 321.779 309.915 320.708 309.915H306.024C304.953 309.915 304.086 310.782 304.086 311.853V312.419C304.086 313.49 304.953 314.357 306.024 314.357Z" fill="#60A2F0"/>
<path d="M157.13 314.357H171.814C172.885 314.357 173.752 313.49 173.752 312.419V311.853C173.752 310.782 172.885 309.915 171.814 309.915H157.13C156.059 309.915 155.192 310.782 155.192 311.853V312.419C155.192 313.49 156.059 314.357 157.13 314.357Z" fill="#60A2F0"/>
<path d="M84.7822 322.828V333.835C84.7822 335.952 83.0685 337.665 80.9518 337.665H76.8971C76.8154 330.969 76.9736 323.364 78.2027 318.998H80.9518C83.0634 318.998 84.7822 320.712 84.7822 322.828Z" fill="#2980E7"/>
<path d="M495.098 322.527H505.6C507.4 322.527 508.951 323.813 509.277 325.588L510.053 329.765C510.476 332.065 508.711 334.187 506.375 334.187H497.603L495.098 322.527Z" fill="#6BA8F1"/>
<path d="M581.218 322.527H587.491L589.506 334.182H583.207C581.207 334.182 579.514 332.718 579.223 330.744L578.479 325.71C578.224 324.032 579.524 322.527 581.218 322.527Z" fill="#6BA8F1"/>
<path d="M468.526 343.908H473.606L476.432 366.804H471.479C470.474 366.804 469.541 366.799 468.664 366.788C467.113 365.62 465.976 363.861 465.976 362.147C465.976 360.367 465.221 352.961 464.711 348.152C464.466 345.882 466.246 343.908 468.526 343.908Z" fill="#2980E7"/>
<path d="M165.92 357.248L389.62 357.248L389.62 353.459L165.92 353.459L165.92 357.248Z" fill="#0064DA"/>
<path d="M293.721 305.909L304.947 305.909L304.947 279.515L293.721 279.515L293.721 305.909Z" fill="#1C77E2"/>
<path d="M208.641 305.909L219.866 305.909L219.866 279.515L208.641 279.515L208.641 305.909Z" fill="#1C77E2"/>
<path d="M408.189 281.786H443.356C466.588 288.738 483.771 299.918 488.953 303.529H475.253L408.189 281.786Z" fill="#A3C9F6"/>
<path d="M95.2072 334.743C97.5533 334.743 99.4608 336.645 99.4608 338.996V358.816C95.8957 358.816 90.3108 358.816 85.8634 358.816C78.7382 358.816 77.1214 355.991 77.1214 348.896C77.1214 346.014 76.8766 340.491 76.8817 334.748H95.2072V334.743Z" fill="#0064DA"/>
<path d="M733.678 453.708C785.561 453.708 827.621 448.548 827.621 442.182C827.621 435.815 785.561 430.655 733.678 430.655C681.794 430.655 639.735 435.815 639.735 442.182C639.735 448.548 681.794 453.708 733.678 453.708Z" fill="#4995EE"/>
<path d="M711.848 386.996C711.077 374.444 711.562 348.963 723.288 327.648L736.186 335.37C725.552 354.701 725.817 377.285 726.582 387.144C726.644 387.955 719.177 388.679 711.848 386.996Z" fill="url(#paint5_linear)"/>
<path d="M726.563 387.006L714.975 386.93L707.314 449.659L730.571 449.812C732.341 449.822 733.611 448.378 733.402 446.588L726.563 387.006Z" fill="#522CD5"/>
<path d="M681.7 433.098C679.772 434.699 679.92 437.025 680.205 439.478L681.067 446.996C681.22 448.343 682.434 449.449 683.766 449.454L707.997 449.618C709.502 449.628 710.583 448.399 710.41 446.874L709.854 439.08C709.527 436.25 710.415 435.209 712.445 432.547C715.923 427.992 725.639 403.169 723.778 386.981L711.843 386.899C711.537 396.513 700.092 417.827 681.7 433.098Z" fill="url(#paint6_linear)"/>
<path d="M680.206 439.479C680.007 437.765 679.894 436.123 680.486 434.735L710.716 434.939C709.94 436.184 709.645 437.265 709.854 439.086L710.41 446.879C710.583 448.404 709.507 449.633 708.002 449.623L683.771 449.46C682.44 449.45 681.226 448.343 681.073 447.002L680.206 439.479Z" fill="url(#paint7_radial)"/>
<path d="M770.527 387.399C770.145 374.847 767.33 349.345 753.645 327.863L741.45 335.416C753.86 354.9 755.665 377.494 755.803 387.348C755.813 388.159 763.351 388.985 770.527 387.399Z" fill="url(#paint8_linear)"/>
<path d="M785.742 438.014C785.676 436.342 785.359 434.868 784.533 432.414C772.211 402.44 770.533 387.327 770.533 387.327L755.777 387.23C755.777 387.23 755.512 402.042 745.924 431.874C745.153 434.001 745.148 435.944 745.128 437.739L745.546 447.323C745.612 448.766 746.831 449.954 748.26 449.965L748.974 449.97L783.008 450.199L783.722 450.204C785.155 450.214 786.262 449.047 786.196 447.593L785.742 438.014Z" fill="url(#paint9_linear)"/>
<path d="M785.741 438.014C785.731 437.744 785.711 437.479 785.685 437.214C785.568 436.382 785.145 435.439 783.344 435.428L746.948 435.184C745.638 435.229 745.255 436.25 745.153 436.892C745.148 437.178 745.143 437.463 745.138 437.739L745.556 447.322C745.597 448.225 746.091 449.031 746.8 449.505C747.229 449.791 747.734 449.959 748.269 449.964L748.983 449.969L783.018 450.199L783.732 450.204C784.446 450.209 785.084 449.918 785.532 449.449C785.981 448.975 786.241 448.322 786.206 447.598L785.741 438.014Z" fill="url(#paint10_radial)"/>
<path d="M661.064 356.139C660.845 355.894 655.673 350.11 650.629 343.138C642.667 332.137 639.597 324.675 640.673 318.947C642.627 308.502 661.37 299.168 689.58 294.583L691.722 307.992C665.66 312.225 655.857 319.33 653.985 321.661C654.225 322.864 655.479 326.914 661.977 335.778C666.445 341.873 671.01 346.979 671.056 347.03L661.064 356.139Z" fill="#8A6FE8"/>
<path d="M698.179 347.045L675.554 341.613C672.259 340.822 668.954 342.873 668.174 346.198L667.786 347.84C667.001 351.166 669.036 354.496 672.331 355.287L694.956 360.719C698.251 361.509 701.556 359.459 702.336 356.133L702.724 354.491C703.509 351.171 701.474 347.84 698.179 347.045Z" fill="#8A6FE8"/>
<path d="M657.82 361.239L658.366 375.877C658.539 379.779 661.814 382.798 665.675 382.62C669.541 382.446 672.529 379.141 672.356 375.245L671.795 360.234L657.82 361.239Z" fill="#8A6FE8"/>
<path d="M663.89 366.258L672.856 384.318C674.601 387.802 678.813 389.194 682.266 387.435C685.719 385.675 687.101 381.421 685.352 377.938L678.727 364.488L663.89 366.258Z" fill="#8A6FE8"/>
<path d="M670.342 360.582L683.149 376.127C685.617 379.131 690.029 379.555 693.008 377.061C695.986 374.572 696.404 370.114 693.936 367.11L680.894 351.273L670.342 360.582Z" fill="#8A6FE8"/>
<path d="M670.995 370.813C679.093 370.813 685.658 364.188 685.658 356.017C685.658 347.845 679.093 341.221 670.995 341.221C662.896 341.221 656.331 347.845 656.331 356.017C656.331 364.188 662.896 370.813 670.995 370.813Z" fill="url(#paint11_radial)"/>
<path d="M661.972 335.778C660.315 333.519 659.004 331.576 657.958 329.908L646.63 337.257C647.793 339.098 649.124 341.052 650.629 343.138C650.716 343.26 650.802 343.378 650.894 343.5L662.243 336.14C662.151 336.018 662.059 335.895 661.972 335.778Z" fill="#D8CFF7"/>
<path d="M661.929 340.337C665.082 337.615 665.512 332.945 662.889 329.907C660.266 326.868 655.583 326.612 652.43 329.335C649.276 332.058 648.846 336.728 651.47 339.766C654.093 342.804 658.776 343.06 661.929 340.337Z" fill="#512BD4"/>
<path d="M675.641 304.947C668.48 286.27 669.939 270.525 669.939 270.525L665.451 271.045L665.328 270.969C667.736 234.894 695.359 204.562 732.235 200.288C773.777 195.474 811.32 225.555 816.089 267.47C820.858 309.389 791.052 347.275 749.514 352.089C716.735 355.889 686.449 337.956 672.785 309.634C672.336 308.42 672.107 306.166 675.641 304.947Z" fill="url(#paint12_radial)"/>
<path d="M673.183 310.481C673.183 310.481 670.638 306.676 675.641 304.952C668.567 286.504 669.903 270.928 669.934 270.55L747.969 261.507C747.969 261.507 752.829 260.436 753.345 264.965C753.86 269.495 755.135 282.322 756.746 296.485C757.078 299.398 754.875 301.076 753.013 301.29L672.877 310.578C673.07 310.511 673.183 310.481 673.183 310.481Z" fill="url(#paint13_radial)"/>
<path d="M713.093 300.546C713.093 300.546 704.912 295.425 703.321 294.486C701.729 293.548 700.444 293.635 699.235 294.961C698.027 296.287 691.192 303.086 691.192 303.086L713.093 300.546Z" fill="#A08BE8"/>
<path d="M673.183 310.481C673.183 310.481 670.638 306.676 675.641 304.952C675.636 304.931 675.626 304.911 675.621 304.896L752.36 296.001C754.145 295.792 756.323 294.45 756.323 292.686C756.461 293.935 756.604 295.205 756.752 296.485C757.052 299.127 755.267 300.749 753.543 301.188C753.37 301.229 753.197 301.269 753.018 301.29L747.775 301.897L672.887 310.578C673.07 310.511 673.183 310.481 673.183 310.481Z" fill="#512BD4"/>
<path d="M680.39 322.15L810.091 307.12C807.75 312.449 804.812 317.468 801.359 322.099L692.253 334.743C687.857 331.025 683.868 326.802 680.39 322.15Z" fill="#D8CFF7"/>
<path d="M732.597 290.956C735.852 290.638 738.052 285.903 737.511 280.38C736.971 274.858 733.894 270.639 730.64 270.957C727.385 271.276 725.185 276.011 725.725 281.534C726.266 287.056 729.342 291.275 732.597 290.956Z" fill="#512BD4"/>
<path d="M685.555 296.402C688.799 295.989 690.86 291.191 690.158 285.686C689.456 280.181 686.257 276.054 683.013 276.468C679.769 276.881 677.708 281.679 678.41 287.184C679.112 292.689 682.311 296.816 685.555 296.402Z" fill="#512BD4"/>
<path d="M731.138 275.936C729.796 274.865 728.118 274.518 726.563 274.845C725.839 276.691 725.517 279.032 725.762 281.536C725.915 283.097 726.277 284.55 726.787 285.826C728.705 286.142 730.735 285.433 732.03 283.791C733.933 281.373 733.53 277.859 731.138 275.936Z" fill="#8065E0"/>
<path d="M683.745 281.103C682.404 280.027 680.721 279.685 679.165 280.012C678.369 281.94 678.048 284.469 678.395 287.167C678.573 288.545 678.905 289.835 679.359 290.993C681.287 291.324 683.332 290.615 684.638 288.958C686.54 286.54 686.142 283.021 683.745 281.103Z" fill="#8065E0"/>
<path d="M744.098 269.443L709.125 273.498C707.401 273.697 705.988 274.799 705.274 276.293C704.448 275.941 703.56 275.645 702.657 275.441C699.924 274.834 695.991 274.788 692.038 277.558C691.003 276.415 689.483 275.768 687.866 275.956L652.893 280.011C650.185 280.327 648.247 282.852 648.568 285.652L649.731 295.883C650.052 298.683 652.506 300.703 655.214 300.387L690.187 296.332C692.895 296.016 694.833 293.491 694.512 290.691L693.359 280.577C695.629 278.833 698.159 278.104 700.898 278.425C702.535 278.619 703.886 279.139 704.85 279.654L705.957 289.365C706.279 292.165 708.732 294.185 711.44 293.869L746.413 289.814C749.121 289.498 751.059 286.973 750.738 284.173L749.575 273.942C749.259 271.147 746.806 269.127 744.098 269.443Z" fill="#33312D"/>
<path d="M803.287 373.449L790.072 367.788C790.113 367.696 794.54 356.909 795.723 342.286C797.253 323.308 792.867 307.023 782.682 293.879L793.994 284.954C806.398 300.958 811.927 321.365 809.994 343.97C808.551 360.785 803.501 372.939 803.287 373.449Z" fill="url(#paint14_linear)"/>
<path d="M786.931 303.075C794.821 303.075 801.217 296.62 801.217 288.656C801.217 280.693 794.821 274.238 786.931 274.238C779.041 274.238 772.645 280.693 772.645 288.656C772.645 296.62 779.041 303.075 786.931 303.075Z" fill="url(#paint15_radial)"/>
<path d="M770.589 373.006L789.271 359.026C791.99 356.991 795.831 357.567 797.845 360.311L798.84 361.668C800.854 364.412 800.283 368.288 797.565 370.318L778.882 384.298C776.164 386.333 772.323 385.757 770.308 383.013L769.314 381.656C767.299 378.912 767.87 375.041 770.589 373.006Z" fill="#8A6FE8"/>
<path d="M813.228 370.033L818.43 383.707C819.792 387.359 817.961 391.434 814.34 392.811C810.719 394.183 806.679 392.336 805.317 388.685L799.982 374.664L813.228 370.033Z" fill="#8A6FE8"/>
<path d="M809.601 377.056L808.398 397.217C808.148 401.114 804.822 404.067 800.961 403.817C797.1 403.567 794.173 400.206 794.418 396.309L795.264 381.314L809.601 377.056Z" fill="#8A6FE8"/>
<path d="M801.461 374.399L795.744 393.775C794.647 397.519 790.751 399.656 787.043 398.549C783.335 397.442 781.213 393.51 782.31 389.766L788.129 370.028L801.461 374.399Z" fill="#8A6FE8"/>
<path d="M799.079 385.257C807.178 385.257 813.743 378.633 813.743 370.461C813.743 362.289 807.178 355.665 799.079 355.665C790.981 355.665 784.416 362.289 784.416 370.461C784.416 378.633 790.981 385.257 799.079 385.257Z" fill="url(#paint16_radial)"/>
<path d="M698.169 338.048L722.442 335.238L719.978 313.572L695.701 316.387L698.169 338.048Z" fill="#512BD4"/>
<path d="M700.694 329.832C700.511 329.852 700.348 329.811 700.205 329.704C700.062 329.592 699.98 329.449 699.96 329.276C699.94 329.097 699.986 328.939 700.098 328.796C700.21 328.653 700.363 328.572 700.547 328.551C700.735 328.531 700.898 328.572 701.041 328.684C701.189 328.796 701.271 328.939 701.291 329.118C701.312 329.291 701.266 329.449 701.148 329.592C701.031 329.73 700.878 329.811 700.694 329.832Z" fill="white"/>
<path d="M708.034 328.853L706.841 328.995L703.102 324.354C703.005 324.237 702.929 324.114 702.857 323.982L702.832 323.987C702.873 324.13 702.924 324.441 702.98 324.92L703.505 329.393L702.449 329.521L701.648 322.696L702.924 322.543L706.54 327.078C706.693 327.266 706.79 327.394 706.835 327.465H706.856C706.805 327.287 706.754 326.986 706.703 326.552L706.188 322.156L707.244 322.028L708.034 328.853Z" fill="white"/>
<path d="M713.19 328.235L709.487 328.679L708.687 321.855L712.241 321.432L712.354 322.391L709.89 322.686L710.115 324.619L712.384 324.349L712.496 325.308L710.227 325.578L710.461 327.598L713.068 327.287L713.19 328.235Z" fill="white"/>
<path d="M717.765 321.748L715.868 321.972L716.556 327.838L715.46 327.97L714.771 322.105L712.879 322.329L712.767 321.37L717.648 320.789L717.765 321.748Z" fill="white"/>
<path d="M732.729 278.007C732.132 278.007 731.587 277.604 731.429 276.997C731.24 276.273 731.668 275.528 732.387 275.335L765.065 266.618C770.91 265.103 775.108 269.26 775.286 269.434C775.812 269.964 775.812 270.826 775.286 271.356C774.761 271.887 773.909 271.887 773.384 271.356C773.256 271.229 770.064 268.123 765.744 269.245L733.071 277.961C732.959 277.992 732.841 278.007 732.729 278.007Z" fill="#33312D"/>
<path d="M756.935 201.518C734.484 203.379 688.775 224.872 682.052 233.282C675.315 240.693 677.941 242.483 682.379 242.264C700.561 241.366 722.631 237.419 733.234 234.588C746.418 231.069 759.327 217.308 759.327 217.308C759.327 217.308 775.893 215.309 790.22 218.262C780.774 210.076 769.365 204.241 756.935 201.518Z" fill="#8065E0"/>
<path d="M686.984 219.297C672.204 232.456 669.011 237.786 678.65 236.669C695.92 234.669 700.617 234.216 713.46 232.634C743.068 228.993 753.962 213.483 754.12 210.076C754.258 207.015 686.984 219.297 686.984 219.297Z" fill="#33312D"/>
<path d="M775.495 196.065L685.531 206.49L686.984 219.297L776.954 208.867L775.495 196.065Z" fill="#F7B548"/>
<path d="M686.24 211.157C666.348 200.064 656.841 181.738 691.054 177.194C741.119 170.543 765.555 180.259 776.036 186.507C783.437 190.919 782.559 199.319 776.169 200.395C769.783 201.477 686.24 211.157 686.24 211.157Z" fill="#33312D"/>
<path d="M781.274 194.525C781.295 191.781 779.662 188.664 776.036 186.507C765.56 180.259 741.119 170.543 691.054 177.194C667.659 180.3 664.711 189.853 671.54 199.13C672.535 181.468 728.006 176.373 781.274 194.525Z" fill="url(#paint17_linear)"/>
<defs>
<linearGradient id="paint0_linear" x1="476.5" y1="356.182" x2="476.5" y2="-0.00197441" gradientUnits="userSpaceOnUse">
<stop offset="0.2579" stop-color="#A7CBF6"/>
<stop offset="0.4902" stop-color="#72ACF1"/>
</linearGradient>
<radialGradient id="paint1_radial" cx="0" cy="0" r="1" gradientUnits="userSpaceOnUse" gradientTransform="translate(230.057 -6.90305) scale(212.01)">
<stop stop-color="#A7CBF6"/>
<stop offset="0.9731" stop-color="#72ACF1"/>
</radialGradient>
<linearGradient id="paint2_linear" x1="575.847" y1="319.259" x2="575.847" y2="116.136" gradientUnits="userSpaceOnUse">
<stop stop-color="#72ACF1"/>
<stop offset="0.511" stop-color="#A4C9F6"/>
</linearGradient>
<linearGradient id="paint3_linear" x1="441.032" y1="285.729" x2="500.136" y2="285.729" gradientUnits="userSpaceOnUse">
<stop stop-color="#72ACF1"/>
<stop offset="0.4649" stop-color="#A7CBF6"/>
</linearGradient>
<linearGradient id="paint4_linear" x1="524.408" y1="355.019" x2="524.408" y2="104.53" gradientUnits="userSpaceOnUse">
<stop stop-color="#72ACF1"/>
<stop offset="0.4799" stop-color="#A7CBF6"/>
</linearGradient>
<linearGradient id="paint5_linear" x1="727.677" y1="328.497" x2="715.233" y2="387.64" gradientUnits="userSpaceOnUse">
<stop offset="0.1149" stop-color="#522CD5"/>
<stop offset="0.5087" stop-color="#8A6FE8"/>
</linearGradient>
<linearGradient id="paint6_linear" x1="721.233" y1="385.527" x2="685.461" y2="450.676" gradientUnits="userSpaceOnUse">
<stop stop-color="#522CD5"/>
<stop offset="0.4397" stop-color="#8A6FE8"/>
</linearGradient>
<radialGradient id="paint7_radial" cx="0" cy="0" r="1" gradientUnits="userSpaceOnUse" gradientTransform="translate(695.402 422.249) rotate(-179.617) scale(25.5336 25.8474)">
<stop offset="0.034" stop-color="#522CD5"/>
<stop offset="0.9955" stop-color="#8A6FE8"/>
</radialGradient>
<linearGradient id="paint8_linear" x1="749.388" y1="328.695" x2="761.554" y2="389.183" gradientUnits="userSpaceOnUse">
<stop offset="0.085" stop-color="#522CD5"/>
<stop offset="0.5382" stop-color="#8A6FE8"/>
</linearGradient>
<linearGradient id="paint9_linear" x1="763.222" y1="387.306" x2="762.807" y2="450.093" gradientUnits="userSpaceOnUse">
<stop stop-color="#522CD5"/>
<stop offset="0.4397" stop-color="#8A6FE8"/>
</linearGradient>
<radialGradient id="paint10_radial" cx="0" cy="0" r="1" gradientUnits="userSpaceOnUse" gradientTransform="translate(763.841 422.655) rotate(0.382764) scale(27.9933 28.3373)">
<stop offset="0.034" stop-color="#522CD5"/>
<stop offset="0.9955" stop-color="#8A6FE8"/>
</radialGradient>
<radialGradient id="paint11_radial" cx="0" cy="0" r="1" gradientUnits="userSpaceOnUse" gradientTransform="translate(669.86 350.712) scale(27.4923)">
<stop stop-color="#8065E0"/>
<stop offset="1" stop-color="#512BD4"/>
</radialGradient>
<radialGradient id="paint12_radial" cx="0" cy="0" r="1" gradientUnits="userSpaceOnUse" gradientTransform="translate(706.152 249.372) scale(112.635)">
<stop offset="0.3472" stop-color="#A08BE8"/>
<stop offset="0.684" stop-color="#8065E0"/>
<stop offset="0.8157" stop-color="#8065E0"/>
</radialGradient>
<radialGradient id="paint13_radial" cx="0" cy="0" r="1" gradientUnits="userSpaceOnUse" gradientTransform="translate(729.905 271.779) scale(59.3566)">
<stop offset="0.0933" stop-color="#E1DFDD"/>
<stop offset="0.6573" stop-color="white"/>
</radialGradient>
<linearGradient id="paint14_linear" x1="796.52" y1="284.955" x2="796.52" y2="373.45" gradientUnits="userSpaceOnUse">
<stop offset="0.4836" stop-color="#9780E6"/>
<stop offset="0.9269" stop-color="#8A6FE8"/>
</linearGradient>
<radialGradient id="paint15_radial" cx="0" cy="0" r="1" gradientUnits="userSpaceOnUse" gradientTransform="translate(788.565 284.304) scale(18.1973)">
<stop stop-color="#8065E0"/>
<stop offset="1" stop-color="#512BD4"/>
</radialGradient>
<radialGradient id="paint16_radial" cx="0" cy="0" r="1" gradientUnits="userSpaceOnUse" gradientTransform="translate(798.255 365.923) scale(29.4973)">
<stop stop-color="#8065E0"/>
<stop offset="1" stop-color="#512BD4"/>
</radialGradient>
<linearGradient id="paint17_linear" x1="781.272" y1="187.045" x2="668.323" y2="187.045" gradientUnits="userSpaceOnUse">
<stop offset="0.0508" stop-color="#33312D"/>
<stop offset="0.0645" stop-color="#33312D"/>
<stop offset="0.8717" stop-color="#605D5A"/>
</linearGradient>
</defs>
</svg>
