<svg width="886" height="508" viewBox="0 0 886 508" fill="none" xmlns="http://www.w3.org/2000/svg">
<path d="M15.1469 368.004C21.8716 385.106 30.0683 400.114 39.7645 413.334L39.9153 413.425C42.1051 416.448 44.3771 419.411 46.7223 422.31C53.2138 430.244 60.0574 437.478 67.0243 444.076C100.556 475.299 144.484 495.821 193.705 499.662C271.718 506.695 543.421 513.86 675.949 494.582C680.122 493.973 684.177 493.205 688.118 492.295C752.261 478.925 808.01 440.637 843.837 387.301V368.004H15.1469V368.004Z" fill="#ED9583"/>
<path d="M656.588 0.765087C631.747 -1.17374 607.477 0.614187 584.322 5.65332C582.74 5.95512 581.154 6.28893 579.559 6.65932C456.923 35.033 364.378 60.5396 183.525 81.533C177.806 82.196 172.37 83.202 167.209 84.5144C78.6543 102.915 9.01659 177.546 0.815308 272.009H884.844C884.967 270.702 885.081 269.394 885.182 268.081C895.856 131.124 793.51 11.4424 656.588 0.765087Z" fill="url(#paint0_linear)"/>
<path d="M656.588 0.765087C631.747 -1.17374 607.477 0.614187 584.322 5.65332C582.74 5.95512 581.154 6.28893 579.559 6.65932C456.923 35.033 364.378 60.5396 183.525 81.533C177.806 82.196 172.37 83.202 167.209 84.5144C78.6543 102.915 9.01659 177.546 0.815308 272.009H884.844C884.967 270.702 885.081 269.394 885.182 268.081C895.856 131.124 793.51 11.4424 656.588 0.765087Z" fill="url(#paint1_linear)"/>
<path d="M3.67692 251.089C1.75232 263.28 1.24945 266.156 0.646014 273.898C-1.35173 299.514 1.33631 324.413 7.98328 347.756H865.46C876.135 323.132 882.978 296.345 885.182 268.086C885.625 262.388 885.868 256.723 885.927 251.094C885.932 251.089 572.573 230.082 3.67692 251.089Z" fill="#F6B29F"/>
<path d="M748.768 261.35C743.753 255.973 736.974 248.881 724.402 239.351C695.218 217.279 642.545 207.406 604.702 228.509C599.856 231.212 594.548 233.649 588.871 235.711C564.966 235.748 538.977 235.88 511.809 236.091C502.419 232.707 493.015 227.91 483.813 221.422C440.562 190.926 373.205 192.344 325.698 219.295C278.191 246.247 283.865 236.315 258.342 225.679C233.596 215.367 166.871 208.385 126.641 241.569C126.623 241.56 126.609 241.551 126.591 241.541C119.597 237.952 107.889 236.292 98.4534 237.627C80.0806 240.225 71.4359 251.199 64.8849 261.2C394.746 249.64 748.768 261.35 748.768 261.35Z" fill="#ED9583"/>
<path d="M771.685 251.551L885.795 257.148C886.224 244.701 885.726 232.423 884.359 220.379C855.568 221.321 806.163 234.509 771.685 251.551Z" fill="#ED9583"/>
<path d="M55.5957 275.055C57.6895 276.948 60.4689 278.105 63.5135 278.105C66.5627 278.105 69.3376 276.952 71.4314 275.055H55.5957Z" fill="#FEE7DE"/>
<path d="M38.8274 275.055C40.9211 276.948 43.7006 278.105 46.7452 278.105C49.7944 278.105 52.5693 276.952 54.6631 275.055H38.8274Z" fill="#FEE7DE"/>
<path d="M196.06 251.995C213.996 251.995 228.536 237.91 228.536 220.535C228.536 203.159 213.996 189.074 196.06 189.074C178.124 189.074 163.584 203.159 163.584 220.535C163.584 237.91 178.124 251.995 196.06 251.995Z" fill="#E86E58"/>
<path d="M312.181 205.444C334.207 205.444 352.062 188.145 352.062 166.805C352.062 145.465 334.207 128.166 312.181 128.166C290.155 128.166 272.299 145.465 272.299 166.805C272.299 188.145 290.155 205.444 312.181 205.444Z" fill="#E86E58"/>
<path d="M252.605 178.868H246.223V253.097H252.605V178.868Z" fill="#ED9583"/>
<path d="M257.377 182.059H276.143C276.143 182.059 274.264 176.815 267.873 175.324C263.06 174.199 258.136 173.838 255.471 173.723L271.064 166.22C271.064 166.22 265.748 162.557 259.837 164.326C257.277 165.095 255.206 166.439 253.679 167.719C253.679 167.692 253.679 167.66 253.679 167.637C253.679 161.254 249.309 157.829 249.309 157.829L249.304 157.851V157.829C249.304 157.829 244.934 161.258 244.934 167.637C244.934 167.687 244.934 167.742 244.934 167.806C243.398 166.503 241.29 165.113 238.671 164.326C232.764 162.552 227.443 166.22 227.443 166.22L243.036 173.723C240.371 173.838 235.452 174.199 230.634 175.324C224.243 176.815 222.364 182.059 222.364 182.059H241.13C239.201 183.751 237.199 185.772 235.599 187.967C232.764 191.868 234.3 197.067 234.3 197.067L249.258 185.617L264.216 197.067C264.216 197.067 265.752 191.868 262.918 187.967C261.309 185.772 259.306 183.751 257.377 182.059Z" fill="#ED9583"/>
<path d="M158.721 318.209L233.584 318.209L233.584 220.421L158.721 220.421L158.721 318.209Z" fill="#FEE7DE"/>
<path d="M266.328 286.755L358.265 286.755L358.265 166.662L266.328 166.662L266.328 286.755Z" fill="#FEE7DE"/>
<path d="M302.963 132.618L323.288 132.618L323.288 115.832L302.963 115.832L302.963 132.618Z" fill="#FEE7DE"/>
<path d="M323.284 115.837L315.837 106.024H310.406C310.406 106.024 302.37 115.837 302.959 115.837C303.554 115.837 323.284 115.837 323.284 115.837Z" fill="#E86E58"/>
<path d="M390.655 291.718V291.709H399.163V300.182H407.629V308.651H416.1V317.124H424.571V325.593H433.038V334.048L433.056 334.066H441.509V342.507L389.937 342.539L390.655 291.718Z" fill="#FDCFBD"/>
<path d="M324.333 193.343L333.686 193.343L333.686 180.612L324.333 180.612L324.333 193.343Z" fill="#FDCFBD"/>
<path d="M289.609 193.343L298.962 193.343L298.962 180.612L289.609 180.612L289.609 193.343Z" fill="#FDCFBD"/>
<path d="M206.906 346.24L281.769 346.24L281.769 272.002L206.906 272.002L206.906 346.24Z" fill="#FDCFBD"/>
<path d="M276.715 272.005C276.651 254.684 262.141 240.659 244.243 240.659C226.346 240.659 211.836 254.684 211.772 272.005H276.715Z" fill="#E86E58"/>
<path d="M259 286.272H354.956V268.306H391.939V342.539L259 342.064V286.272Z" fill="#FEE7DE"/>
<path d="M353.351 289.728L354.956 286.271V342.2L335.861 342.063L353.351 289.728Z" fill="#FEDBCE"/>
<path d="M373.864 298.33C378.17 298.33 381.663 301.824 381.663 306.131V324.248H366.065V306.131C366.065 301.824 369.557 298.33 373.864 298.33Z" fill="#F6B29F"/>
<path d="M113.485 299.638V341.515H207.013V295.097L125.499 297.073L113.485 299.638Z" fill="#FDCFBD"/>
<path d="M228.682 302.861C232.988 302.861 236.48 306.355 236.48 310.662V328.779H220.883V310.662C220.883 306.355 224.375 302.861 228.682 302.861Z" fill="#F6B29F"/>
<path d="M185.705 231.23C188.228 231.23 190.272 233.274 190.272 235.798V250.38H181.138V235.798C181.138 233.274 183.181 231.23 185.705 231.23Z" fill="#FDCFBD"/>
<path d="M209.5 231.23C212.023 231.23 214.067 233.274 214.067 235.798V250.38H204.933V235.798C204.933 233.274 206.976 231.23 209.5 231.23Z" fill="#FDCFBD"/>
<path d="M282.922 272.009H205.637V276.737H282.922V272.009Z" fill="#FEE7DE"/>
<path d="M350.91 175.557H266.296V171.145H355.006L350.91 175.557Z" fill="#FDCFBD"/>
<path d="M226.295 228.176H158.605V224.632H229.587L226.295 228.176Z" fill="#FDCFBD"/>
<path d="M328.651 274.616C331.673 274.616 334.123 276.404 334.123 278.608V287.296H323.175V278.608C323.179 276.404 325.63 274.616 328.651 274.616Z" fill="#F6B29F"/>
<path d="M310.69 274.616C313.712 274.616 316.162 276.404 316.162 278.608V287.296H305.214V278.608C305.218 276.404 307.668 274.616 310.69 274.616Z" fill="#F6B29F"/>
<path d="M343.505 283.473H298.283V286.624H343.505V283.473Z" fill="#F6B29F"/>
<path d="M311.467 258.465H363.701L338.174 243.929L311.467 258.465Z" fill="#E86E58"/>
<path d="M336.518 287.506L339.828 287.506L339.828 259.375L336.518 259.375L336.518 287.506Z" fill="#F6B29F"/>
<path d="M311.474 262.485L363.703 262.485L363.703 258.466L311.474 258.466L311.474 262.485Z" fill="#F6B29F"/>
<path d="M259.002 291.475L354.958 291.475L354.958 286.276L259.002 286.276L259.002 291.475Z" fill="#ED9583"/>
<path d="M394.746 267.981H354.531V272.874H394.746V267.981Z" fill="#FDCFBD"/>
<path d="M206.898 282.883H158.724V294.585H206.898V282.883Z" fill="#FEDBCE"/>
<path d="M206.935 283.51L201.385 287.14L202.487 274.844L195.552 285.878L192.087 273.427L187.991 284.616L182.633 273.902L181.847 287.456L174.596 282.883L181.216 298.485L206.739 298.33L206.935 296.478V283.51Z" fill="#ED9583"/>
<path d="M206.903 310.315V310.306H198.391V318.779H189.925V327.248H181.454V335.721H172.987V344.19H172.983L207.621 344.661L206.903 310.315Z" fill="#FEE7DE"/>
<path d="M638.993 432.63L462.172 432.452C459.767 432.416 458.574 427.989 458.61 425.584C458.647 423.179 460.622 421.263 463.027 421.299L639.125 423.929C641.53 423.965 643.446 425.941 643.409 428.346C643.372 430.747 641.397 432.663 638.993 432.63Z" fill="url(#paint2_radial)"/>
<path d="M753.893 319.932C753.358 319.932 752.924 319.497 752.924 318.962V276.116C752.924 275.581 753.358 275.146 753.893 275.146C754.428 275.146 754.862 275.581 754.862 276.116V318.962C754.867 319.497 754.432 319.932 753.893 319.932Z" fill="#FDC9B5"/>
<path d="M752.924 315.203V278.681L733.184 315.203H752.924Z" fill="#FEEDE6"/>
<path d="M771.027 315.203L755.036 286.692V315.203H771.027Z" fill="#FEEDE6"/>
<path d="M777.82 318.614H729.961V320.549C729.961 320.549 734.537 321.87 736.471 324.947C739.287 325.034 761.984 324.947 766.913 324.947C771.836 324.947 777.82 318.614 777.82 318.614Z" fill="#ED9583"/>
<path d="M820.358 269.435C822.452 271.328 825.231 272.485 828.276 272.485C831.325 272.485 834.1 271.333 836.194 269.435H820.358Z" fill="#FEE7DE"/>
<path d="M803.59 269.435C805.683 271.328 808.463 272.485 811.508 272.485C814.557 272.485 817.332 271.333 819.425 269.435H803.59Z" fill="#FEE7DE"/>
<path d="M770.547 269.435C772.641 271.328 775.42 272.485 778.465 272.485C781.509 272.485 784.289 271.333 786.383 269.435H770.547Z" fill="#FEE7DE"/>
<path d="M206.899 294.818H122.947L113.466 299.638H206.899V294.818Z" fill="#FEE7DE"/>
<path d="M394.746 267.981L386.074 263.683H356.492V267.981H394.746Z" fill="#FEE7DE"/>
<path d="M8.50433 349.563C8.49062 349.563 8.4769 349.563 8.45862 349.563C8.55462 349.901 8.64605 350.235 8.73291 350.569C12.509 363.912 21.108 384.224 32.4042 402.57C444.498 402.958 810.735 426.96 810.735 426.96C833.24 405.057 851.673 378.865 864.66 349.563C864.669 349.563 422.756 328.775 8.50433 349.563Z" fill="#FDC9B5"/>
<path d="M6.32825 341.496C7.09626 344.67 7.93284 347.784 8.82886 350.834C8.84715 350.834 8.86543 350.834 8.88829 350.834C389.937 336.027 864.098 350.834 864.098 350.834C865.483 347.756 866.809 344.642 868.07 341.496C868.07 341.501 433.055 329.136 6.32825 341.496Z" fill="#ED9583"/>
<path d="M575.394 372.554C575.527 360.633 573.831 336.43 561.524 316.164L549.492 323.471C560.655 341.853 561.492 363.304 561.232 372.664C561.209 373.437 568.427 374.137 575.394 372.554Z" fill="url(#paint3_linear)"/>
<path d="M561.241 372.532L572.382 372.481L582.782 432.078L560.418 432.178C558.717 432.187 557.428 430.811 557.538 429.11L561.241 372.532Z" fill="#522CD5"/>
<path d="M606.618 416.402C608.547 417.924 608.52 420.133 608.364 422.465L607.898 429.608C607.816 430.883 606.7 431.935 605.42 431.94L582.124 432.045C580.674 432.05 579.577 430.883 579.673 429.434L579.829 422.035C580.002 419.347 579.102 418.359 577.022 415.826C573.456 411.495 562.914 387.895 563.915 372.522L575.39 372.472C576.153 381.594 588.19 401.86 606.618 416.402Z" fill="url(#paint4_linear)"/>
<path d="M608.364 422.466C608.469 420.838 608.501 419.278 607.861 417.961L578.796 418.094C579.6 419.278 579.939 420.307 579.824 422.036L579.669 429.434C579.573 430.884 580.67 432.054 582.119 432.045L605.42 431.94C606.7 431.936 607.811 430.884 607.898 429.608L608.364 422.466Z" fill="url(#paint5_radial)"/>
<path d="M518.973 372.819C518.73 360.898 520.211 336.681 532.331 316.305L544.427 323.503C533.432 341.986 532.788 363.445 533.135 372.801C533.158 373.574 525.949 374.342 518.973 372.819Z" fill="url(#paint6_linear)"/>
<path d="M506.785 420.865C506.771 419.274 506.999 417.874 507.676 415.551C518.081 387.105 518.959 372.755 518.959 372.755L533.144 372.691C533.144 372.691 534.118 386.762 544.779 415.113C545.62 417.134 545.72 418.976 545.825 420.687L545.885 429.786C545.889 431.158 544.774 432.288 543.402 432.292L542.717 432.297L509.989 432.448L509.303 432.452C507.927 432.457 506.803 431.346 506.798 429.969L506.785 420.865Z" fill="url(#paint7_linear)"/>
<path d="M506.785 420.865C506.78 420.609 506.789 420.357 506.799 420.106C506.872 419.315 507.233 418.423 508.965 418.414L543.96 418.254C545.222 418.3 545.643 419.269 545.771 419.877C545.789 420.147 545.812 420.421 545.826 420.682L545.885 429.782C545.89 430.641 545.455 431.4 544.792 431.853C544.395 432.123 543.915 432.283 543.403 432.288L542.717 432.292L509.989 432.443L509.304 432.448C508.613 432.452 507.992 432.173 507.539 431.725C507.087 431.277 506.803 430.655 506.799 429.965L506.785 420.865Z" fill="url(#paint8_radial)"/>
<path d="M677.663 256.805C673.695 268.749 662.463 284.808 643.847 290.748C632.547 294.356 614.562 295.349 593.053 279.586L601.79 267.661C614.846 277.227 627.833 280.341 639.354 276.664C651.825 272.682 660.533 261.483 663.633 252.146L677.663 256.805Z" fill="#8A6FE8"/>
<path d="M521.066 308.175H470.309C462.002 308.175 455.273 301.44 455.273 293.136V220.617C455.273 212.308 462.007 205.577 470.309 205.577H521.066C529.372 205.577 536.102 212.313 536.102 220.617V293.136C536.106 301.444 529.372 308.175 521.066 308.175Z" fill="#FEE7DE"/>
<path d="M670.156 253.467L665.009 240.563C663.615 237.133 659.701 235.487 656.277 236.882C652.849 238.277 651.203 242.191 652.597 245.616L657.877 258.845L670.156 253.467Z" fill="#8A6FE8"/>
<path d="M671.03 272.151C678.776 272.151 685.055 265.87 685.055 258.122C685.055 250.374 678.776 244.093 671.03 244.093C663.284 244.093 657.004 250.374 657.004 258.122C657.004 265.87 663.284 272.151 671.03 272.151Z" fill="url(#paint9_radial)"/>
<path d="M612.72 276.157C617.639 257.271 614.467 242.191 614.467 242.191H618.91L619.02 242.104C612.656 207.447 582.306 181.186 545.816 181.186C504.709 181.186 471.383 214.521 471.383 255.639C471.383 296.757 504.709 330.092 545.816 330.092C578.256 330.092 605.84 309.336 616.035 280.377C616.332 279.147 616.305 276.943 612.72 276.157Z" fill="url(#paint10_radial)"/>
<path d="M612.907 276.156C617.767 257.5 614.731 242.575 614.658 242.209H537.436C537.436 242.209 532.572 241.715 532.572 246.16C532.572 250.604 532.755 263.165 532.755 277.057C532.755 279.915 535.096 281.292 536.933 281.292C536.929 281.292 612.212 279.133 612.907 276.156Z" fill="url(#paint11_radial)"/>
<path d="M563.746 276.129C563.746 276.129 575.622 266.728 577.94 264.986C580.258 263.243 582.288 263.152 584.409 264.986C586.53 266.819 598.425 276.129 598.425 276.129H563.746Z" fill="#A08BE8"/>
<path d="M615.733 281.214C615.733 281.214 617.977 277.222 612.898 276.111C612.903 276.093 536.984 276.098 536.984 276.098C535.219 276.098 532.943 275.041 532.746 273.331C532.751 274.561 532.751 275.8 532.751 277.058C532.751 279.651 534.675 281.018 536.408 281.251C536.582 281.269 536.755 281.292 536.934 281.292H542.122L615.733 281.214Z" fill="#512BD4"/>
<path d="M610.05 293.346H481.701C484.581 298.243 488.005 302.775 491.89 306.867H599.86C603.746 302.775 607.17 298.239 610.05 293.346Z" fill="#D8CFF7"/>
<path d="M502.592 188.786L515.525 182.499L507.251 170.098L497.961 174.615L502.592 188.786Z" fill="#D0C5F3"/>
<path d="M501.586 199.313C501.001 199.596 500.293 199.317 500.073 198.704C497.774 192.229 500.658 184.922 506.981 181.849C513.303 178.777 520.832 181.022 524.499 186.834C524.846 187.382 524.622 188.114 524.041 188.398L501.586 199.313Z" fill="#512BD4"/>
<path d="M555.673 269.005C558.889 268.957 561.431 264.535 561.35 259.129C561.27 253.722 558.597 249.378 555.381 249.426C552.165 249.474 549.623 253.896 549.703 259.302C549.784 264.709 552.456 269.053 555.673 269.005Z" fill="#512BD4"/>
<path d="M608.229 259.239C608.31 253.832 605.768 249.411 602.552 249.363C599.335 249.315 596.663 253.659 596.582 259.065C596.502 264.472 599.044 268.893 602.26 268.941C605.476 268.989 608.149 264.645 608.229 259.239Z" fill="#512BD4"/>
<path d="M555.476 254.299C556.665 253.11 558.269 252.589 559.819 252.726C560.733 254.432 561.305 256.659 561.341 259.114C561.364 260.641 561.172 262.086 560.82 263.385C558.982 263.911 556.921 263.449 555.476 262C553.35 259.873 553.35 256.425 555.476 254.299Z" fill="#8065E0"/>
<path d="M602.274 253.979C603.463 252.79 605.072 252.265 606.627 252.406C607.619 254.185 608.213 256.595 608.172 259.247C608.153 260.601 607.971 261.89 607.655 263.056C605.808 263.596 603.733 263.139 602.274 261.68C600.149 259.558 600.149 256.11 602.274 253.979Z" fill="#8065E0"/>
<path d="M670.015 263.161C669.059 263.335 668.035 263.051 667.299 262.311C666.115 261.117 666.12 259.187 667.313 257.999L739.296 186.463C740.489 185.279 742.418 185.283 743.607 186.477C744.791 187.67 744.786 189.6 743.593 190.789L671.61 262.324C671.158 262.777 670.595 263.056 670.015 263.161Z" fill="white"/>
<path d="M755.708 188.292H720.16C716.941 188.292 714.331 185.681 714.331 182.462V170.513C714.331 167.294 716.941 164.683 720.16 164.683H755.708C758.926 164.683 761.536 167.294 761.536 170.513V182.462C761.536 185.681 758.926 188.292 755.708 188.292Z" fill="white"/>
<path d="M751.648 164.688H732.512V188.296H751.648V164.688Z" fill="#A08BE8"/>
<path d="M743.602 186.476C742.414 185.283 740.485 185.274 739.291 186.463L727.817 197.867L731.822 202.486L743.593 190.789C744.782 189.604 744.791 187.674 743.602 186.476Z" fill="#2B0B98"/>
<path d="M692.859 232.611L667.313 257.999C666.12 259.183 666.111 261.117 667.299 262.311C668.035 263.051 669.059 263.335 670.015 263.161C670.6 263.056 671.158 262.777 671.61 262.324L696.886 237.202L692.859 232.611Z" fill="#2B0B98"/>
<path d="M686.541 270.478L678.198 272.005C675.286 272.54 672.497 270.61 671.962 267.697L671.491 265.127C670.956 262.215 672.886 259.425 675.798 258.89L684.141 257.363C687.053 256.828 689.841 258.758 690.376 261.671L690.847 264.24C691.377 267.149 689.448 269.943 686.541 270.478Z" fill="#8A6FE8"/>
<path d="M689.393 261.287L681.05 262.814C678.138 263.349 675.35 261.419 674.815 258.506L674.344 255.937C673.809 253.024 675.738 250.234 678.65 249.699L686.993 248.172C689.905 247.637 692.694 249.567 693.229 252.48L693.7 255.049C694.235 257.962 692.305 260.752 689.393 261.287Z" fill="#8A6FE8"/>
<path d="M692.059 252.242L683.716 253.769C680.804 254.304 678.015 252.374 677.48 249.461L677.009 246.892C676.474 243.979 678.404 241.189 681.316 240.654L689.659 239.127C692.571 238.592 695.359 240.522 695.894 243.435L696.365 246.005C696.895 248.917 694.966 251.711 692.059 252.242Z" fill="#8A6FE8"/>
<path d="M501.507 325.052L450.429 354.551L465.544 380.738L516.622 351.24L501.507 325.052Z" fill="white"/>
<path d="M590.773 289.481H566.749V310.731H590.773V289.481Z" fill="#512BD4"/>
<path d="M570.448 303.136C570.265 303.136 570.114 303.077 569.986 302.953C569.858 302.83 569.794 302.683 569.794 302.51C569.794 302.336 569.858 302.185 569.986 302.062C570.114 301.938 570.269 301.874 570.448 301.874C570.63 301.874 570.786 301.938 570.914 302.062C571.042 302.185 571.111 302.336 571.111 302.51C571.111 302.679 571.047 302.83 570.914 302.953C570.786 303.072 570.63 303.136 570.448 303.136Z" fill="white"/>
<path d="M577.703 303.031H576.523L573.415 298.124C573.337 298.001 573.273 297.873 573.218 297.74H573.191C573.213 297.882 573.227 298.188 573.227 298.659V303.036H572.185V296.359H573.442L576.445 301.147C576.573 301.344 576.656 301.481 576.692 301.559H576.711C576.679 301.38 576.665 301.083 576.665 300.662V296.359H577.703V303.031Z" fill="white"/>
<path d="M582.786 303.031H579.134V296.354H582.64V297.296H580.212V299.185H582.448V300.122H580.212V302.098H582.786V303.031V303.031Z" fill="white"/>
<path d="M587.98 297.296H586.11V303.031H585.031V297.296H583.166V296.354H587.98V297.296V297.296Z" fill="white"/>
<path d="M487.036 210.127C505.029 211.384 522.963 197.735 522.963 197.735C522.963 197.735 551.704 189.28 559.503 187.871C564.87 186.902 572.066 182.992 554.269 181.095C536.472 179.192 487.036 210.127 487.036 210.127Z" fill="#512BD4"/>
<path d="M483.562 209.77C481.482 212.427 479.575 215.234 477.865 218.166C494.538 222.962 506.35 238.423 506.35 256.032C506.35 273.829 494.181 288.476 477.952 293.346C479.694 296.258 481.934 299.473 484.042 302.111C502.734 295.156 516.092 277.126 516.092 256.032C516.088 235.144 502.762 216.675 483.562 209.77Z" fill="#FEE7DE"/>
<path d="M495.996 194.666C495.996 194.666 472.732 207.15 470.889 207.785C469.047 208.421 472.032 215.436 487.324 211.247C502.616 207.058 522.095 191.113 522.095 191.113L495.996 194.666Z" fill="#DC624F"/>
<path d="M525.107 148.208C525.116 148.084 525.112 147.961 525.094 147.837C524.86 146.465 522.863 145.661 520.632 146.04C518.401 146.42 516.782 147.842 517.016 149.214C517.043 149.383 517.103 149.543 517.18 149.694C483.63 158.789 495.799 197.849 495.799 197.849L565.588 183.82C565.588 183.815 560.696 144.403 525.107 148.208Z" fill="#E86E58"/>
<path d="M467.397 344.972C459.241 335.387 451.342 317.448 455.913 298.449C458.688 286.912 467.164 271.017 491.79 260.792L497.459 274.451C482.51 280.656 473.116 290.154 470.286 301.91C467.223 314.641 472.284 327.897 478.656 335.392L467.397 344.972Z" fill="#8A6FE8"/>
<path d="M478.478 342.338L491.402 347.418C494.853 348.749 498.734 347.025 500.065 343.572C501.395 340.12 499.672 336.238 496.22 334.907L482.967 329.699L478.478 342.338Z" fill="#8A6FE8"/>
<path d="M467.191 346.256L469.179 360.007C469.733 363.665 473.152 366.184 476.809 365.626C480.467 365.073 482.985 361.653 482.428 357.995L480.389 343.897L467.191 346.256Z" fill="#8A6FE8"/>
<path d="M474.245 345.626L480.114 358.214C481.701 361.557 485.696 362.984 489.043 361.397C492.384 359.81 493.811 355.814 492.224 352.466L486.208 339.558L474.245 345.626Z" fill="#8A6FE8"/>
<path d="M460.301 340.129L460.315 354.021C460.347 357.725 463.369 360.697 467.072 360.669C470.775 360.637 473.746 357.615 473.719 353.911L473.705 339.667L460.301 340.129Z" fill="#8A6FE8"/>
<path d="M474.317 354.094C482.064 354.094 488.343 347.813 488.343 340.065C488.343 332.317 482.064 326.036 474.317 326.036C466.571 326.036 460.292 332.317 460.292 340.065C460.292 347.813 466.571 354.094 474.317 354.094Z" fill="url(#paint12_radial)"/>
<path d="M498.386 279.033C505.935 279.033 512.055 272.912 512.055 265.361C512.055 257.81 505.935 251.688 498.386 251.688C490.837 251.688 484.718 257.81 484.718 265.361C484.718 272.912 490.837 279.033 498.386 279.033Z" fill="url(#paint13_radial)"/>
<defs>
<linearGradient id="paint0_linear" x1="443.381" y1="272.01" x2="443.381" y2="0.00145917" gradientUnits="userSpaceOnUse">
<stop offset="0.2982" stop-color="#FDD5C5"/>
<stop offset="0.3486" stop-color="#FDC9B5"/>
</linearGradient>
<linearGradient id="paint1_linear" x1="443.381" y1="272.01" x2="443.381" y2="0.00145917" gradientUnits="userSpaceOnUse">
<stop offset="0.2982" stop-color="#FDD5C5"/>
<stop offset="0.3486" stop-color="#FDC9B5"/>
</linearGradient>
<radialGradient id="paint2_radial" cx="0" cy="0" r="1" gradientUnits="userSpaceOnUse" gradientTransform="translate(551.008 428.186) rotate(0.853953) scale(87.9031 87.926)">
<stop offset="0.6077" stop-color="#E86E58"/>
<stop offset="1" stop-color="#ED9583"/>
</radialGradient>
<linearGradient id="paint3_linear" x1="557.442" y1="317.035" x2="569.373" y2="373.842" gradientUnits="userSpaceOnUse">
<stop stop-color="#522CD5"/>
<stop offset="0.4397" stop-color="#8A6FE8"/>
</linearGradient>
<linearGradient id="paint4_linear" x1="566.557" y1="371.032" x2="601.996" y2="434.199" gradientUnits="userSpaceOnUse">
<stop stop-color="#522CD5"/>
<stop offset="0.4397" stop-color="#8A6FE8"/>
</linearGradient>
<radialGradient id="paint5_radial" cx="0" cy="0" r="1" gradientUnits="userSpaceOnUse" gradientTransform="translate(592.907 406.084) rotate(-0.260809) scale(24.551 24.5574)">
<stop offset="0.034" stop-color="#522CD5"/>
<stop offset="0.9955" stop-color="#8A6FE8"/>
</radialGradient>
<linearGradient id="paint6_linear" x1="536.417" y1="317.154" x2="525.003" y2="374.065" gradientUnits="userSpaceOnUse">
<stop stop-color="#522CD5"/>
<stop offset="0.4397" stop-color="#8A6FE8"/>
</linearGradient>
<linearGradient id="paint7_linear" x1="526.089" y1="372.728" x2="526.361" y2="432.377" gradientUnits="userSpaceOnUse">
<stop stop-color="#522CD5"/>
<stop offset="0.4397" stop-color="#8A6FE8"/>
</linearGradient>
<radialGradient id="paint8_radial" cx="0" cy="0" r="1" gradientUnits="userSpaceOnUse" gradientTransform="translate(527.102 406.334) rotate(179.739) scale(26.9161 26.9231)">
<stop offset="0.034" stop-color="#522CD5"/>
<stop offset="0.9955" stop-color="#8A6FE8"/>
</radialGradient>
<radialGradient id="paint9_radial" cx="0" cy="0" r="1" gradientUnits="userSpaceOnUse" gradientTransform="translate(669.468 251.259) scale(28.0693 28.0768)">
<stop stop-color="#8065E0"/>
<stop offset="1" stop-color="#512BD4"/>
</radialGradient>
<radialGradient id="paint10_radial" cx="0" cy="0" r="1" gradientUnits="userSpaceOnUse" gradientTransform="translate(565.881 243.391) scale(93.8211 93.846)">
<stop offset="0.3472" stop-color="#A08BE8"/>
<stop offset="0.684" stop-color="#8065E0"/>
<stop offset="0.7596" stop-color="#8065E0"/>
</radialGradient>
<radialGradient id="paint11_radial" cx="0" cy="0" r="1" gradientUnits="userSpaceOnUse" gradientTransform="translate(539.433 242.506) scale(95.8097 95.8349)">
<stop offset="0.0933" stop-color="#E1DFDD"/>
<stop offset="0.6573" stop-color="white"/>
</radialGradient>
<radialGradient id="paint12_radial" cx="0" cy="0" r="1" gradientUnits="userSpaceOnUse" gradientTransform="translate(473.782 334.108) scale(22.0549 22.0607)">
<stop stop-color="#8065E0"/>
<stop offset="1" stop-color="#512BD4"/>
</radialGradient>
<radialGradient id="paint13_radial" cx="0" cy="0" r="1" gradientUnits="userSpaceOnUse" gradientTransform="translate(500.362 261.112) scale(18.4986 18.5035)">
<stop stop-color="#8065E0"/>
<stop offset="0.8258" stop-color="#512BD4"/>
</radialGradient>
</defs>
</svg>
