<svg width="928" height="524" viewBox="0 0 928 524" fill="none" xmlns="http://www.w3.org/2000/svg">
<path d="M815.932 89.9463C638.872 -35.4141 240.585 -7.84566 144.078 41.6952C-21.7388 126.818 -10.0289 306.203 13.6193 373.968C15.3102 378.813 17.4379 384.053 20.0023 389.568L901.176 378.269C947.919 298.129 941.861 179.106 815.932 89.9463Z" fill="url(#paint0_linear)"/>
<path d="M918.421 339.809C878.061 322.554 815.586 305.349 743.763 319.019C604.626 345.506 553.166 330.866 494.358 317.415C392.62 294.142 330.202 309.656 217.922 344.851C160.734 362.776 109.035 373.745 13.8224 374.542C21.4496 396.108 37.5519 425.256 62.9418 452.042L830.795 447.878C870.738 426.089 903.111 386.826 918.421 339.809Z" fill="#72ACF1"/>
<path d="M902.791 375.446C804.065 356.439 701.789 344.79 596.923 341.256L365.321 346.649C248.487 356.048 135.349 375.41 27.203 403.619C63.9321 469.257 156.489 557.604 317.943 509.81C505.768 454.211 606.566 440.454 736.309 464.153C803.11 476.361 868.321 436.829 902.791 375.446Z" fill="url(#paint1_linear)"/>
<path d="M313.947 338.473C312.555 325.25 307.564 298.656 291.319 277.791L278.929 287.434C293.66 306.36 297.352 330.013 298.271 340.413C298.347 341.276 306.431 341.124 313.947 338.473Z" fill="url(#paint2_linear)"/>
<path d="M298.261 340.265L310.601 338.772L329.796 403.451L305.03 406.442C303.146 406.67 301.542 405.314 301.445 403.415L298.261 340.265Z" fill="#522CD5"/>
<path d="M354.19 383.022C356.526 384.459 356.775 386.912 356.907 389.512L357.308 397.479C357.379 398.906 356.282 400.211 354.865 400.379L329.064 403.497C327.459 403.69 326.093 402.537 326.012 400.917L325.235 392.701C325.083 389.7 323.956 388.72 321.325 386.186C316.821 381.849 302.095 357.064 301.232 339.905L313.937 338.372C315.953 348.385 331.903 369.286 354.19 383.022Z" fill="url(#paint3_linear)"/>
<path d="M356.907 389.512C356.816 387.694 356.648 385.962 355.77 384.586L323.585 388.476C324.626 389.684 325.134 390.781 325.23 392.706L326.007 400.922C326.089 402.537 327.455 403.694 329.059 403.501L354.861 400.384C356.277 400.211 357.374 398.906 357.303 397.484L356.907 389.512Z" fill="url(#paint4_radial)"/>
<path d="M245.891 346.679C244.089 333.507 242.611 306.487 253.417 282.356L267.747 288.775C257.947 310.661 259.993 334.518 261.577 344.836C261.714 345.684 253.823 347.461 245.891 346.679Z" fill="url(#paint5_linear)"/>
<path d="M238.574 401.471C238.351 399.709 238.427 398.129 238.879 395.469C246.745 362.619 245.871 346.608 245.871 346.608L261.582 344.709C261.582 344.709 264.472 360.171 279.934 390.203C281.128 392.33 281.473 394.362 281.813 396.24L283.052 406.31C283.235 407.828 282.143 409.22 280.625 409.408L279.868 409.499L243.627 413.876L242.87 413.968C241.347 414.15 239.96 413.064 239.772 411.54L238.574 401.471Z" fill="url(#paint6_linear)"/>
<path d="M238.574 401.471C238.539 401.186 238.513 400.907 238.493 400.628C238.473 399.744 238.762 398.708 240.677 398.475L279.432 393.793C280.838 393.681 281.422 394.702 281.646 395.362C281.702 395.656 281.758 395.956 281.813 396.245L283.052 406.315C283.169 407.265 282.783 408.163 282.108 408.752C281.702 409.103 281.194 409.341 280.625 409.413L279.869 409.504L243.627 413.881L242.87 413.973C242.109 414.064 241.382 413.841 240.819 413.399C240.26 412.957 239.864 412.307 239.773 411.545L238.574 401.471Z" fill="url(#paint7_radial)"/>
<path d="M375.624 286.708C339.606 283.895 318.431 265.223 314.282 232.496L330.907 230.388C332.222 240.768 335.493 248.821 340.911 255.001C349.092 264.34 362.472 269.458 380.666 270.22L379.966 286.962C378.498 286.906 377.051 286.82 375.624 286.708Z" fill="#8A6FE8"/>
<path d="M312.236 169.843C299.734 156.026 281.869 147.891 263.223 147.525Z" fill="url(#paint8_linear)"/>
<path d="M584.198 307.193L570.203 307.051L569.375 390.269L578.876 390.365L584.198 307.193Z" fill="url(#paint9_linear)"/>
<path d="M561.748 306.969L547.758 306.827L551.414 390.086L560.915 390.182L561.748 306.969Z" fill="url(#paint10_linear)"/>
<path d="M563.56 320.416C584.437 320.416 601.361 303.492 601.361 282.616C601.361 261.739 584.437 244.815 563.56 244.815C542.684 244.815 525.76 261.739 525.76 282.616C525.76 303.492 542.684 320.416 563.56 320.416Z" fill="#106EBE"/>
<path d="M541.801 224.706C562.678 224.706 579.602 207.782 579.602 186.906C579.602 166.029 562.678 149.105 541.801 149.105C520.925 149.105 504.001 166.029 504.001 186.906C504.001 207.782 520.925 224.706 541.801 224.706Z" fill="url(#paint11_linear)"/>
<path d="M524.876 305.451L486.69 213.565C485.344 209.726 487.645 205.572 491.61 204.673L593.617 181.482C597.583 180.578 601.447 183.33 601.894 187.372L608.673 286.642C609.054 290.085 606.789 293.264 603.413 294.031L532.813 309.838C529.436 310.61 526.019 308.721 524.876 305.451Z" fill="url(#paint12_radial)"/>
<path d="M539.735 165.501L567.506 159.189C571.442 162.835 574.631 167.34 576.753 172.509L543.071 180.167C540.095 180.842 537.13 178.978 536.454 176.003L535.571 172.123C534.89 169.137 536.754 166.177 539.735 165.501Z" fill="#106EBE"/>
<path d="M547.869 177.003C551.022 177.003 553.577 174.448 553.577 171.296C553.577 168.143 551.022 165.588 547.869 165.588C544.717 165.588 542.162 168.143 542.162 171.296C542.162 174.448 544.717 177.003 547.869 177.003Z" fill="white"/>
<path d="M525.979 181.98C529.131 181.98 531.686 179.424 531.686 176.272C531.686 173.12 529.131 170.564 525.979 170.564C522.826 170.564 520.271 173.12 520.271 176.272C520.271 179.424 522.826 181.98 525.979 181.98Z" fill="white"/>
<path d="M557.782 415.212L534.956 414.984C533.174 414.963 531.833 413.333 532.179 411.587C534.743 398.709 544.726 388.553 557.442 385.668C559.224 385.262 560.915 386.659 560.9 388.487L560.661 412.389C560.641 413.968 559.356 415.227 557.782 415.212Z" fill="#2B88D8"/>
<path d="M572.899 385.82C585.558 388.964 595.334 399.318 597.639 412.241C597.954 413.993 596.578 415.598 594.795 415.583L571.97 415.354C570.396 415.339 569.131 414.049 569.146 412.475L569.385 388.573C569.405 386.745 571.127 385.384 572.899 385.82Z" fill="#2B88D8"/>
<path d="M543.65 281.879C545.143 283.301 547.402 283.758 549.398 282.869L594.724 262.634C596.486 261.846 597.675 260.156 597.812 258.231L602.108 198.945C602.316 196.061 600.148 193.553 597.263 193.344C594.379 193.136 591.87 195.304 591.662 198.189L587.59 254.351L545.122 273.307C542.482 274.486 541.294 277.583 542.477 280.229C542.766 280.864 543.167 281.417 543.65 281.879Z" fill="#C7E0F4"/>
<path d="M494.23 208.929C495.876 209.33 497.297 210.518 497.922 212.234C498.907 214.951 497.506 217.957 494.789 218.948L446.045 236.654L471.628 268.219C473.451 270.469 473.106 273.764 470.856 275.587C468.612 277.405 465.311 277.065 463.488 274.816L433.274 237.538C432.208 236.223 431.842 234.471 432.294 232.841C432.746 231.206 433.96 229.896 435.554 229.317L491.209 209.096C492.219 208.731 493.265 208.695 494.23 208.929Z" fill="#C7E0F4"/>
<path d="M483.049 310.534C482.151 310.783 481.171 310.514 480.642 309.798L474.254 301.16C474.163 301.038 474.092 300.911 474.036 300.774L468.511 287.378C468.09 286.358 468.689 285.175 469.842 284.728C470.974 284.296 472.279 284.753 472.695 285.774L478.134 298.966L484.39 307.421C485.055 308.32 484.756 309.579 483.72 310.234C483.512 310.372 483.283 310.468 483.049 310.534Z" fill="#106EBE"/>
<path d="M489.762 305.415C488.954 305.639 488.071 305.446 487.507 304.857L478.839 295.787C478.743 295.686 478.661 295.579 478.59 295.462L472.019 284.565C471.446 283.615 471.862 282.376 472.954 281.797C474.045 281.218 475.391 281.523 475.965 282.473L482.429 293.197L490.955 302.119C491.737 302.937 491.595 304.207 490.645 304.963C490.376 305.182 490.072 305.329 489.762 305.415Z" fill="#106EBE"/>
<path d="M496.303 294.955C495.343 295.219 494.307 294.889 493.815 294.097C492.911 292.644 491.56 288.323 491.001 286.454L481.125 280.498C480.129 279.898 479.911 278.649 480.637 277.715C481.369 276.781 482.755 276.506 483.75 277.106L494.267 283.453C494.683 283.707 494.983 284.083 495.11 284.525C495.846 287.053 497.151 291.035 497.73 291.969C498.319 292.913 497.918 294.157 496.836 294.741C496.663 294.833 496.481 294.904 496.303 294.955Z" fill="#106EBE"/>
<path d="M466.215 264.233L460.366 268.28C459.416 268.935 459.167 270.123 459.807 270.966L463.118 275.343C463.23 275.491 463.316 275.648 463.372 275.821L467.825 288.546C468.257 289.775 469.902 290.202 471.1 289.399L485.598 279.716C486.822 278.898 486.863 277.278 485.679 276.542L473.086 268.717C472.929 268.62 472.791 268.503 472.67 268.371L469.171 264.461C468.465 263.684 467.16 263.578 466.215 264.233Z" fill="#106EBE"/>
<path d="M599.64 205.298C607.361 205.298 613.62 199.039 613.62 191.319C613.62 183.598 607.361 177.339 599.64 177.339C591.919 177.339 585.66 183.598 585.66 191.319C585.66 199.039 591.919 205.298 599.64 205.298Z" fill="url(#paint13_radial)"/>
<path d="M490.189 230.185C497.909 230.185 504.168 223.926 504.168 216.205C504.168 208.485 497.909 202.226 490.189 202.226C482.468 202.226 476.209 208.485 476.209 216.205C476.209 223.926 482.468 230.185 490.189 230.185Z" fill="url(#paint14_radial)"/>
<path d="M416.608 394.864L386.516 397.297C385.592 397.373 384.688 396.977 384.114 396.251L379.118 389.903C378.396 388.989 378.325 387.725 378.935 386.734L385.998 375.268C386.491 374.471 387.354 373.973 388.293 373.953L394.524 373.806C394.981 373.796 395.423 373.674 395.819 373.45L405.218 368.154C406.061 367.682 407.087 367.677 407.93 368.149L418.863 374.243C419.472 374.583 419.929 375.131 420.143 375.791C420.716 377.528 421.742 381.118 421.529 383.916C421.326 386.597 419.848 390.797 418.975 393.092C418.594 394.092 417.675 394.778 416.608 394.864Z" fill="white"/>
<path d="M223.549 427.186L185.205 429.024C183.834 429.09 182.651 428.064 182.524 426.693L181.467 415.237C181.371 414.191 181.919 413.191 182.859 412.714L208.899 399.419C209.676 399.023 210.595 399.049 211.351 399.48L221.705 405.457C222.361 405.838 222.818 406.488 222.95 407.229L225.961 424.159C226.225 425.693 225.092 427.11 223.549 427.186Z" fill="white"/>
<path d="M307.98 483.323L328.287 475.417C328.632 475.28 328.932 475.041 329.135 474.731L332.41 469.796C332.923 469.024 332.766 467.993 332.05 467.404L322.265 459.401C321.929 459.127 321.513 458.984 321.081 458.995L300.653 459.472C300.008 459.487 299.419 459.848 299.109 460.416L292.167 473.249C291.695 474.117 292.015 475.204 292.878 475.681L306.452 483.222C306.919 483.481 307.483 483.521 307.98 483.323Z" fill="white"/>
<path d="M408.464 419.884C406.676 419.493 406.016 417.284 407.306 415.984C409.845 413.425 413.491 410.205 415.553 410.428C418.102 410.708 424.028 413.871 426.816 415.425C427.709 415.923 428.171 416.954 427.948 417.954L427.141 421.575C426.861 422.819 425.632 423.611 424.383 423.337L408.464 419.884Z" fill="white"/>
<path d="M522.688 327.104L496.415 326.464C495.419 326.439 494.515 325.9 494.013 325.042L480.998 302.602C480.49 301.729 480.485 300.652 480.978 299.769L492.439 279.401C492.977 278.441 494.023 277.878 495.12 277.954L500.599 278.325C501.036 278.355 501.472 278.284 501.879 278.116L507.373 275.857C508.013 275.593 508.729 275.572 509.384 275.796L527.538 282.001C528.299 282.26 528.919 282.834 529.239 283.575L537.45 302.648C537.932 303.77 537.648 305.07 536.749 305.888L528.375 313.495C527.924 313.906 527.614 314.454 527.497 315.054L525.567 324.798C525.288 326.169 524.074 327.139 522.688 327.104Z" fill="white"/>
<path d="M515.121 302.44C515.761 303.115 516.736 303.394 517.559 303.059L527.502 298.992C527.639 298.936 527.771 298.86 527.888 298.773L539.562 290.186C540.45 289.531 540.557 288.211 539.795 287.231C539.049 286.276 537.698 285.987 536.81 286.642L525.313 295.097L515.578 299.078C514.543 299.504 514.146 300.733 514.695 301.83C514.812 302.064 514.959 302.262 515.121 302.44Z" fill="#106EBE"/>
<path d="M512.044 294.584C512.618 295.193 513.471 295.488 514.258 295.279L526.374 292.024C526.506 291.989 526.633 291.938 526.755 291.877L538.023 285.971C539.009 285.458 539.293 284.179 538.663 283.123C538.028 282.061 536.723 281.625 535.738 282.137L524.648 287.952L512.735 291.156C511.643 291.451 511.105 292.608 511.526 293.751C511.638 294.066 511.821 294.345 512.044 294.584Z" fill="#106EBE"/>
<path d="M511.877 282.244C512.562 282.965 513.613 283.224 514.446 282.798C515.969 282.026 519.367 279.03 520.814 277.725L532.351 277.755C533.514 277.755 534.347 276.806 534.209 275.628C534.072 274.45 533.026 273.495 531.863 273.49L519.58 273.459C519.092 273.459 518.64 273.627 518.3 273.937C516.355 275.719 513.176 278.446 512.196 278.944C511.206 279.446 510.902 280.716 511.521 281.777C511.633 281.955 511.75 282.107 511.877 282.244Z" fill="#106EBE"/>
<path d="M553.537 271.591L556.436 278.086C556.908 279.142 556.502 280.284 555.522 280.675L550.419 282.701C550.251 282.768 550.094 282.864 549.952 282.976L539.542 291.547C538.536 292.375 536.906 291.888 536.297 290.577L528.924 274.78C528.299 273.444 529.106 272.043 530.503 272.028L545.331 271.87C545.513 271.87 545.696 271.84 545.864 271.789L550.886 270.266C551.901 269.956 553.069 270.54 553.537 271.591Z" fill="#106EBE"/>
<path d="M753.457 379.544L674.357 367.997C672.899 367.784 671.889 366.428 672.102 364.97L673.082 358.242C673.296 356.785 674.651 355.774 676.109 355.987L755.209 367.535C756.666 367.748 757.677 369.104 757.463 370.561L756.483 377.29C756.27 378.747 754.914 379.757 753.457 379.544Z" fill="#2B88D8"/>
<path d="M766.736 400.135L761.185 366.483L759.291 366.798L761.993 383.159L719.998 351.128L721.069 350.762L720.445 348.949L718.17 349.731L714.569 346.984L713.407 348.512L715.991 350.483L664.059 368.398L671.757 353.712L670.061 352.818L654.228 383.027L648.789 382.306L648.54 384.211L658.839 385.577L659.092 383.672L656.249 383.297L662.759 370.876L717.819 351.879L762.445 385.917L764.73 399.754L761.912 399.221L761.556 401.105L771.763 403.045L772.118 401.156L766.736 400.135Z" fill="white"/>
<path d="M706.323 258.51C711.294 233.095 732.272 213.286 736.212 209.751C736.562 209.437 737.101 209.477 737.4 209.848C740.584 213.799 756.468 235.212 753.162 265.416C753 266.925 751.603 267.986 750.1 267.762L708.567 261.699C707.049 261.476 706.028 260.024 706.323 258.51Z" fill="url(#paint15_radial)"/>
<path d="M753.456 263.33L706.586 256.485L701.211 293.296L748.081 300.141L753.456 263.33Z" fill="white"/>
<path d="M695.882 295.904L702.905 281.782L749.689 288.612L752.502 303.902L695.882 295.904Z" fill="#C7E0F4"/>
<path d="M750.557 302.77L698.29 295.137C697.01 294.95 695.766 295.63 695.228 296.803L669.31 353.351C668.502 355.114 669.614 357.16 671.534 357.439L758.388 370.119C760.307 370.398 761.958 368.758 761.688 366.839L753.02 305.243C752.837 303.963 751.837 302.952 750.557 302.77Z" fill="white"/>
<path d="M696.304 329.968C700.046 329.968 703.078 326.935 703.078 323.194C703.078 319.453 700.046 316.42 696.304 316.42C692.563 316.42 689.53 319.453 689.53 323.194C689.53 326.935 692.563 329.968 696.304 329.968Z" fill="#C7E0F4"/>
<path d="M743.753 336.894C747.494 336.894 750.527 333.861 750.527 330.12C750.527 326.379 747.494 323.346 743.753 323.346C740.011 323.346 736.978 326.379 736.978 330.12C736.978 333.861 740.011 336.894 743.753 336.894Z" fill="#C7E0F4"/>
<path d="M673.549 344.095L760.266 356.759L759.987 354.779L674.382 342.282L673.549 344.095Z" fill="#C7E0F4"/>
<path d="M690.51 307.086L754.594 316.445L754.315 314.465L691.343 305.269L690.51 307.086Z" fill="#C7E0F4"/>
<path d="M730.549 264.653L727.901 264.267L725.271 282.275L727.919 282.662L730.549 264.653Z" fill="#C7E0F4"/>
<path d="M720.109 263.124L717.461 262.737L714.831 280.746L717.479 281.132L720.109 263.124Z" fill="#C7E0F4"/>
<path d="M741.461 266.243L738.813 265.856L736.184 283.865L738.832 284.252L741.461 266.243Z" fill="#C7E0F4"/>
<path d="M728.255 315.957L716.149 314.19C713.3 313.774 710.655 315.744 710.238 318.593L705.404 351.706C704.988 354.555 706.958 357.201 709.807 357.617L721.913 359.384C724.761 359.801 727.407 357.831 727.823 354.982L732.658 321.868C733.079 319.019 731.104 316.374 728.255 315.957Z" fill="#2B88D8"/>
<path d="M740.701 317.776L737.004 317.237C735.019 316.948 733.176 318.319 732.886 320.304L727.595 356.546C727.305 358.532 728.676 360.375 730.662 360.664L734.359 361.203C736.344 361.492 738.188 360.121 738.477 358.135L743.768 321.894C744.058 319.908 742.687 318.065 740.701 317.776Z" fill="#A7CBF6"/>
<path d="M726.717 362.263L704.418 359.007L699.854 390.255L722.154 393.512L726.717 362.263Z" fill="#72ACF1"/>
<path d="M723.643 367.181L705.901 364.59L705.533 367.107L723.276 369.698L723.643 367.181Z" fill="white"/>
<path d="M722.673 373.823L704.931 371.232L704.563 373.749L722.305 376.34L722.673 373.823Z" fill="white"/>
<path d="M721.703 380.465L703.961 377.874L703.594 380.391L721.336 382.982L721.703 380.465Z" fill="white"/>
<path d="M720.733 387.106L702.991 384.516L702.623 387.033L720.366 389.624L720.733 387.106Z" fill="white"/>
<path d="M819.009 170.153C817.074 174.871 813.789 178.852 809.62 181.625C808.878 182.097 808.792 183.077 809.406 183.691C813.139 187.398 815.886 192.055 817.252 197.26C817.607 198.57 819.324 198.677 819.842 197.422C821.878 192.436 825.184 188.155 829.322 184.941C830.013 184.407 830.049 183.427 829.368 182.864C825.58 179.588 822.817 175.231 821.487 170.306C821.182 169.087 819.491 168.98 819.009 170.153Z" fill="#C7E0F4"/>
<path d="M326.418 40.126C325.794 42.1166 324.6 43.8482 323.001 45.1228C322.716 45.3411 322.716 45.7423 322.986 45.9708C324.636 47.3469 325.916 49.1496 326.652 51.2164C326.845 51.7343 327.546 51.7191 327.713 51.191C328.368 49.0887 329.562 47.2352 331.136 45.7829C331.4 45.5442 331.38 45.1431 331.085 44.9349C329.43 43.7365 328.15 42.0607 327.439 40.1006C327.266 39.6182 326.576 39.6335 326.418 40.126Z" fill="#C7E0F4"/>
<path d="M118.536 94.1813C117.104 97.8679 114.62 100.996 111.436 103.21C110.868 103.586 110.817 104.347 111.304 104.815C114.25 107.633 116.448 111.198 117.586 115.204C117.88 116.21 119.211 116.271 119.592 115.29C121.095 111.396 123.588 108.034 126.747 105.48C127.275 105.058 127.285 104.297 126.752 103.87C123.766 101.392 121.562 98.0558 120.455 94.2625C120.206 93.3231 118.896 93.2672 118.536 94.1813Z" fill="#C7E0F4"/>
<path d="M261.77 104.078C264.687 104.078 267.052 101.714 267.052 98.7972C267.052 95.8805 264.687 93.5161 261.77 93.5161C258.854 93.5161 256.489 95.8805 256.489 98.7972C256.489 101.714 258.854 104.078 261.77 104.078Z" fill="#C7E0F4"/>
<path d="M709.66 88.1892C712.689 88.1892 715.144 85.7338 715.144 82.7049C715.144 79.6761 712.689 77.2207 709.66 77.2207C706.631 77.2207 704.176 79.6761 704.176 82.7049C704.176 85.7338 706.631 88.1892 709.66 88.1892Z" fill="#C7E0F4"/>
<path d="M84.2087 249.644C87.1254 249.644 89.4898 247.28 89.4898 244.363C89.4898 241.446 87.1254 239.082 84.2087 239.082C81.2921 239.082 78.9276 241.446 78.9276 244.363C78.9276 247.28 81.2921 249.644 84.2087 249.644Z" fill="#C7E0F4"/>
<path d="M473.391 50.9375C477.474 50.9375 480.784 47.6273 480.784 43.5439C480.784 39.4606 477.474 36.1504 473.391 36.1504C469.307 36.1504 465.997 39.4606 465.997 43.5439C465.997 47.6273 469.307 50.9375 473.391 50.9375Z" fill="#C7E0F4"/>
<path d="M492.148 301.754L506.158 312.357C506.209 312.393 506.27 312.413 506.331 312.413L524.069 311.915C524.241 311.91 524.373 312.068 524.343 312.24L522.484 321.645C522.459 321.772 522.342 321.868 522.21 321.863L499.445 321.31C499.349 321.31 499.268 321.259 499.217 321.173L488.319 302.384C488.218 302.211 488.335 301.993 488.533 301.978L491.971 301.704C492.031 301.699 492.092 301.714 492.148 301.754Z" fill="#C7E0F4"/>
<path d="M408.337 386.13L395.454 379.889C394.418 379.387 393.169 379.905 392.798 380.996L389.573 390.365C389.091 391.767 390.305 393.163 391.762 392.879L407.87 389.751C409.682 389.395 410.002 386.932 408.337 386.13Z" fill="#C7E0F4"/>
<path d="M212.91 419.747L196.574 413.648C196.34 413.562 196.092 413.526 195.843 413.542L188.292 414.095C187.007 414.191 186.266 415.603 186.926 416.71C188.693 419.681 191.628 424.327 192.72 424.302C193.735 424.276 204.577 423.596 212.412 423.098C214.281 422.987 214.662 420.402 212.91 419.747Z" fill="#C7E0F4"/>
<path d="M629.864 122.628C628.808 125.345 626.975 127.655 624.624 129.285C624.208 129.565 624.167 130.123 624.527 130.468C626.701 132.545 628.321 135.181 629.159 138.136C629.377 138.878 630.357 138.923 630.641 138.202C631.748 135.328 633.592 132.85 635.922 130.966C636.308 130.656 636.318 130.093 635.927 129.778C633.729 127.95 632.104 125.487 631.286 122.689C631.093 121.998 630.128 121.953 629.864 122.628Z" fill="#C7E0F4"/>
<path d="M172.698 455.801L162.273 456.446L164.923 449.555L172.154 449.788L172.698 455.801Z" fill="white"/>
<path d="M475.803 418.65L476.428 411.007L486.365 406.762L492.824 408.215L494.104 411.398L490.275 419.518L475.803 418.65Z" fill="white"/>
<path d="M469.08 388.695L454.684 391.036L455.775 386.191L460.178 385.689L466.15 383.541L469.801 385.064L469.08 388.695Z" fill="white"/>
<path d="M460.02 396.129L464.834 396.017L466.124 399.602L458.908 400.171L460.02 396.129Z" fill="white"/>
<path d="M387.278 410.672L383.556 405.939L378.341 406.061L375.193 408.946L378.468 411.683L387.278 410.672Z" fill="white"/>
<path d="M293.406 448.732L305.685 447.371L306.629 441.998L299.586 438.413L291.126 442.892L293.406 448.732Z" fill="white"/>
<path d="M391.31 275.984L399.349 262.43C401.466 258.805 400.242 254.148 396.617 252.031C392.991 249.913 388.335 251.137 386.217 254.763L377.975 268.661L391.31 275.984Z" fill="#D0C5F3"/>
<path d="M391.899 290.309L405.533 298.21C409.179 300.292 413.826 299.022 415.908 295.371C417.99 291.725 416.72 287.079 413.069 284.997L399.089 276.893L391.899 290.309Z" fill="#8A6FE8"/>
<path d="M395.144 281.397L410.744 283.616C414.908 284.179 418.736 281.26 419.295 277.101C419.859 272.937 416.939 269.108 412.78 268.549L396.779 266.274L395.144 281.397Z" fill="#8A6FE8"/>
<path d="M338.266 231.257C341.104 209.3 335.376 192.786 335.376 192.786L340.378 192.151L340.49 192.04C328.374 153.95 290.456 128.727 249.386 133.942C203.11 139.818 170.362 182.092 176.237 228.363C182.112 274.633 224.382 307.391 270.657 301.516C307.173 296.88 335.26 269.581 342.597 235.538C342.755 234.111 342.409 231.628 338.266 231.257Z" fill="url(#paint16_radial)"/>
<path d="M342.384 236.543C342.384 236.543 344.141 231.785 338.266 231.257C341.069 209.569 335.523 193.202 335.386 192.806L248.461 203.841C248.461 203.841 242.911 203.983 243.551 208.98C244.186 213.981 246.186 228.093 248.172 243.723C248.578 246.938 251.412 248.151 253.483 247.892L342.749 236.558C342.516 236.548 342.384 236.543 342.384 236.543Z" fill="url(#paint17_radial)"/>
<path d="M288.268 237.802C288.268 237.802 300.292 225.523 302.654 223.233C305.015 220.943 307.285 220.547 309.935 222.309C312.586 224.071 327.307 232.846 327.307 232.846L288.268 237.802Z" fill="#A08BE8"/>
<path d="M342.383 236.543C342.383 236.543 344.14 231.785 338.265 231.257C338.27 231.231 338.27 231.211 338.275 231.186L252.792 242.037C250.802 242.291 248.095 241.428 247.628 239.529C247.806 240.91 247.984 242.306 248.166 243.718C248.537 246.633 250.898 247.902 252.879 247.918C253.077 247.918 253.275 247.912 253.473 247.887L259.318 247.146L342.739 236.558C342.515 236.548 342.383 236.543 342.383 236.543Z" fill="#512BD4"/>
<path d="M337.646 250.99L193.167 269.331C197.108 274.43 201.612 279.041 206.573 283.093L328.11 267.666C331.898 262.502 335.102 256.911 337.646 250.99Z" fill="#D0C5F3"/>
<path d="M205.892 148.15L219.557 139.228L208.467 126.457L198.656 132.865L205.892 148.15Z" fill="#8A6FE8"/>
<path d="M198.966 133.257C205.386 133.257 210.59 128.053 210.59 121.633C210.59 115.214 205.386 110.01 198.966 110.01C192.547 110.01 187.343 115.214 187.343 121.633C187.343 128.053 192.547 133.257 198.966 133.257Z" fill="#D0C5F3"/>
<path d="M206.268 160.139C205.654 160.541 204.811 160.332 204.481 159.672C200.967 152.715 203.171 144.078 209.848 139.716C216.526 135.354 225.321 136.806 230.282 142.818C230.749 143.387 230.607 144.24 229.987 144.641L206.268 160.139Z" fill="url(#paint18_radial)"/>
<path d="M384.82 304.263L374.532 288.963C372.308 285.723 373.131 281.295 376.371 279.071L377.112 278.563C380.352 276.339 384.78 277.162 387.004 280.401L397.292 295.701C399.516 298.941 398.693 303.369 395.454 305.593L394.712 306.101C391.473 308.325 387.039 307.503 384.82 304.263Z" fill="#8A6FE8"/>
<path d="M394.524 300.825L390.243 294.594C388.019 291.355 388.842 286.927 392.082 284.702L392.823 284.195C396.063 281.97 400.491 282.793 402.715 286.033L406.996 292.263C409.22 295.503 408.397 299.931 405.158 302.155L404.416 302.663C401.176 304.882 396.748 304.06 394.524 300.825Z" fill="#8A6FE8"/>
<path d="M272.797 231.368C276.409 230.855 278.637 225.516 277.774 219.444C276.911 213.372 273.284 208.866 269.671 209.379C266.059 209.892 263.831 215.231 264.694 221.303C265.557 227.375 269.184 231.881 272.797 231.368Z" fill="#512BD4"/>
<path d="M325.25 224.671C328.876 224.266 331.263 218.996 330.581 212.9C329.9 206.805 326.408 202.192 322.782 202.598C319.156 203.003 316.769 208.273 317.45 214.368C318.132 220.464 321.624 225.076 325.25 224.671Z" fill="#512BD4"/>
<path d="M270.495 214.865C271.663 213.357 273.394 212.539 275.161 212.473C276.431 214.261 277.396 216.688 277.787 219.445C278.03 221.162 278.02 222.817 277.807 224.325C275.811 225.178 273.43 224.955 271.591 223.533C268.9 221.446 268.408 217.561 270.495 214.865Z" fill="#8065E0"/>
<path d="M323.199 207.812C324.367 206.303 326.103 205.481 327.871 205.42C329.242 207.278 330.252 209.909 330.587 212.895C330.76 214.423 330.735 215.896 330.552 217.257C328.551 218.125 326.149 217.907 324.301 216.475C321.604 214.393 321.107 210.508 323.199 207.812Z" fill="#8065E0"/>
<path d="M387.725 295.905C396.514 295.905 403.64 288.779 403.64 279.99C403.64 271.201 396.514 264.076 387.725 264.076C378.936 264.076 371.811 271.201 371.811 279.99C371.811 288.779 378.936 295.905 387.725 295.905Z" fill="url(#paint19_radial)"/>
<path d="M395.667 214.159L410.962 230.089C411.952 231.119 412.272 232.628 411.784 233.973L407.184 246.704C406.722 247.988 406.986 249.426 407.884 250.451L414.207 257.708C414.983 258.601 415.298 259.81 415.049 260.968L411.104 279.315C410.865 280.437 410.124 281.386 409.098 281.894L393.493 289.628C392.346 290.197 390.99 290.141 389.893 289.486L370.378 277.801C369.449 277.243 368.804 276.313 368.611 275.242L365.686 259.058C365.539 258.236 365.666 257.388 366.052 256.646L371.176 246.836C371.49 246.231 371.638 245.551 371.597 244.871L370.891 233.054C370.846 232.292 371.033 231.536 371.424 230.886L380.743 215.464C381.372 214.418 382.474 213.742 383.693 213.656L392.686 213.011C393.798 212.935 394.895 213.357 395.667 214.159Z" fill="white"/>
<path d="M390.244 279.366L387.573 269.291C387.476 268.92 387.476 268.524 387.588 268.153L395.525 240.753C395.845 239.651 395.231 238.493 394.139 238.137L378.036 232.912C376.498 232.414 374.985 233.745 375.289 235.334L378.184 250.426C378.356 251.335 377.925 252.249 377.112 252.691L370.506 256.296C369.612 256.784 369.186 257.84 369.5 258.815L374.37 273.942C374.533 274.455 374.888 274.882 375.355 275.146L387.146 281.757C388.787 282.681 390.726 281.183 390.244 279.366Z" fill="#C7E0F4"/>
<path d="M318.276 248.393L293.106 251.269L295.981 276.438L321.151 273.563L318.276 248.393Z" fill="#512BD4"/>
<path d="M299.444 266.838C299.267 266.858 299.109 266.818 298.972 266.711C298.835 266.604 298.754 266.467 298.733 266.3C298.713 266.127 298.759 265.975 298.871 265.843C298.982 265.706 299.124 265.629 299.302 265.609C299.485 265.589 299.642 265.629 299.78 265.741C299.922 265.848 300.003 265.985 300.023 266.157C300.044 266.325 299.993 266.477 299.881 266.614C299.774 266.741 299.627 266.818 299.444 266.838Z" fill="white"/>
<path d="M306.548 265.924L305.391 266.056L301.795 261.597C301.704 261.486 301.628 261.364 301.562 261.242L301.536 261.247C301.577 261.384 301.623 261.684 301.674 262.141L302.161 266.432L301.135 266.548L300.389 260.008L301.623 259.866L305.106 264.223C305.254 264.406 305.35 264.527 305.391 264.598H305.411C305.36 264.431 305.314 264.136 305.264 263.725L304.781 259.51L305.802 259.394L306.548 265.924Z" fill="white"/>
<path d="M311.535 265.355L307.955 265.766L307.209 259.226L310.647 258.835L310.753 259.754L308.372 260.028L308.585 261.882L310.779 261.633L310.885 262.552L308.692 262.801L308.915 264.736L311.439 264.446L311.535 265.355Z" fill="white"/>
<path d="M315.984 259.155L314.15 259.363L314.79 264.984L313.729 265.106L313.089 259.485L311.261 259.693L311.154 258.774L315.877 258.236L315.984 259.155Z" fill="white"/>
<path d="M197.382 326.494L212.118 318.486C203.729 303.044 200.388 288.389 202.19 274.927C203.775 263.086 209.381 251.843 218.846 241.514L206.481 230.18C188.891 249.38 173.033 281.676 197.382 326.494Z" fill="url(#paint20_linear)"/>
<path d="M212.646 328.729L227.189 334.797C231.074 336.386 235.517 334.528 237.107 330.638C238.696 326.753 236.837 322.31 232.948 320.721L218.034 314.495L212.646 328.729Z" fill="#8A6FE8"/>
<path d="M197.351 332.329L201.835 347.436C203.059 351.452 207.304 353.717 211.321 352.493C215.337 351.269 217.602 347.024 216.378 343.008L211.783 327.515L197.351 332.329Z" fill="#8A6FE8"/>
<path d="M207.852 329.226L212.722 344.216C214.048 348.203 218.349 350.356 222.335 349.035C226.321 347.71 228.474 343.409 227.154 339.423L222.162 324.052L207.852 329.226Z" fill="#8A6FE8"/>
<path d="M190.222 328.536L191.674 344.227C192.091 348.406 195.813 351.458 199.992 351.041C204.171 350.625 207.223 346.903 206.807 342.724L205.319 326.631L190.222 328.536Z" fill="#8A6FE8"/>
<path d="M204.755 338.402C213.544 338.402 220.669 331.277 220.669 322.488C220.669 313.698 213.544 306.573 204.755 306.573C195.965 306.573 188.84 313.698 188.84 322.488C188.84 331.277 195.965 338.402 204.755 338.402Z" fill="url(#paint21_radial)"/>
<path d="M212.103 250.436C220.668 250.436 227.611 243.493 227.611 234.928C227.611 226.363 220.668 219.42 212.103 219.42C203.538 219.42 196.595 226.363 196.595 234.928C196.595 243.493 203.538 250.436 212.103 250.436Z" fill="url(#paint22_radial)"/>
<path d="M422.606 91.7238C379.656 76.9418 342.5 71.7318 339.626 80.0952C336.747 88.4587 369.231 107.222 412.186 122.004C455.135 136.791 492.291 141.996 495.165 133.632C498.039 125.269 465.555 106.506 422.606 91.7238ZM412.876 119.983C373.984 106.597 344.476 89.8703 346.974 82.6241C349.467 75.3778 383.018 80.3542 421.91 93.7448C460.802 107.13 490.311 123.857 487.812 131.104C485.319 138.35 451.769 133.373 412.876 119.983Z" fill="#72ACF1"/>
<path d="M422.606 91.7238C379.656 76.9418 342.5 71.7318 339.626 80.0952C336.747 88.4587 369.231 107.222 412.186 122.004C455.135 136.791 492.291 141.996 495.165 133.632C498.039 125.269 465.555 106.506 422.606 91.7238ZM412.876 119.983C373.984 106.597 344.476 89.8703 346.974 82.6241C349.467 75.3778 383.018 80.3542 421.91 93.7448C460.802 107.13 490.311 123.857 487.812 131.104C485.319 138.35 451.769 133.373 412.876 119.983Z" fill="#C7E0F4"/>
<path d="M419.234 142.864C441.154 142.864 458.924 125.094 458.924 103.174C458.924 81.2545 441.154 63.4849 419.234 63.4849C397.314 63.4849 379.545 81.2545 379.545 103.174C379.545 125.094 397.314 142.864 419.234 142.864Z" fill="url(#paint23_linear)"/>
<path d="M459.65 106.597L458.467 108.547C477.585 117.723 486.939 124.918 485.319 129.615C482.826 136.862 454.211 130.458 415.319 117.073C376.427 103.687 348.213 90.8602 350.712 83.614C352.347 78.866 363.584 78.3785 384.663 83.0554L385.531 80.9379C360.086 75.0271 341.622 74.3009 339.626 80.0949C336.747 88.4584 369.231 107.222 412.186 122.004C455.135 136.791 492.291 141.996 495.165 133.632C497.125 127.935 482.653 117.403 459.65 106.597Z" fill="#C7E0F4"/>
<defs>
<linearGradient id="paint0_linear" x1="452.753" y1="423.398" x2="485.759" y2="0.97459" gradientUnits="userSpaceOnUse">
<stop offset="0.1299" stop-color="#C7E0F4"/>
<stop offset="0.198" stop-color="#B6D4F5"/>
<stop offset="0.2689" stop-color="#A8CBF6"/>
<stop offset="0.3896" stop-color="#9DC5F5"/>
<stop offset="0.7799" stop-color="#7EB3F2"/>
<stop offset="0.9976" stop-color="#72ACF1"/>
</linearGradient>
<linearGradient id="paint1_linear" x1="440.882" y1="798.058" x2="496.57" y2="-144.991" gradientUnits="userSpaceOnUse">
<stop offset="0.2689" stop-color="#A8CBF6"/>
<stop offset="0.309" stop-color="#B1D1F6"/>
<stop offset="0.3775" stop-color="#BDD9F5"/>
</linearGradient>
<linearGradient id="paint2_linear" x1="286.885" y1="279.441" x2="307.411" y2="340.831" gradientUnits="userSpaceOnUse">
<stop stop-color="#522CD5"/>
<stop offset="0.4397" stop-color="#8A6FE8"/>
</linearGradient>
<linearGradient id="paint3_linear" x1="303.814" y1="338.254" x2="351.201" y2="403.67" gradientUnits="userSpaceOnUse">
<stop stop-color="#522CD5"/>
<stop offset="0.4397" stop-color="#8A6FE8"/>
</linearGradient>
<radialGradient id="paint4_radial" cx="0" cy="0" r="1" gradientUnits="userSpaceOnUse" gradientTransform="translate(337.679 373.332) rotate(-6.89192) scale(27.3864)">
<stop offset="0.034" stop-color="#522CD5"/>
<stop offset="0.9955" stop-color="#8A6FE8"/>
</radialGradient>
<linearGradient id="paint5_linear" x1="258.009" y1="282.743" x2="252.695" y2="347.253" gradientUnits="userSpaceOnUse">
<stop stop-color="#522CD5"/>
<stop offset="0.4397" stop-color="#8A6FE8"/>
</linearGradient>
<linearGradient id="paint6_linear" x1="253.614" y1="346.004" x2="261.596" y2="412.044" gradientUnits="userSpaceOnUse">
<stop stop-color="#522CD5"/>
<stop offset="0.4397" stop-color="#8A6FE8"/>
</linearGradient>
<radialGradient id="paint7_radial" cx="0" cy="0" r="1" gradientUnits="userSpaceOnUse" gradientTransform="translate(259.064 383.1) rotate(173.108) scale(30.0245)">
<stop offset="0.034" stop-color="#522CD5"/>
<stop offset="0.9955" stop-color="#8A6FE8"/>
</radialGradient>
<linearGradient id="paint8_linear" x1="270.313" y1="165.597" x2="305.033" y2="151.839" gradientUnits="userSpaceOnUse">
<stop stop-color="#BDB9F0"/>
<stop offset="0.2325" stop-color="#CEC3E2" stop-opacity="0.7675"/>
<stop offset="0.7251" stop-color="#EDD6C9" stop-opacity="0.2749"/>
<stop offset="1" stop-color="#F9DDBF" stop-opacity="0"/>
</linearGradient>
<linearGradient id="paint9_linear" x1="577.74" y1="390.369" x2="575.794" y2="306.903" gradientUnits="userSpaceOnUse">
<stop offset="0.6283" stop-color="#72ACF1"/>
<stop offset="0.6693" stop-color="#69A7F0"/>
<stop offset="0.8306" stop-color="#4A95EE"/>
<stop offset="0.9205" stop-color="#3E8EED"/>
</linearGradient>
<linearGradient id="paint10_linear" x1="556.68" y1="390.261" x2="554.731" y2="306.646" gradientUnits="userSpaceOnUse">
<stop offset="0.6283" stop-color="#72ACF1"/>
<stop offset="0.6693" stop-color="#69A7F0"/>
<stop offset="0.8306" stop-color="#4A95EE"/>
<stop offset="0.9205" stop-color="#3E8EED"/>
</linearGradient>
<linearGradient id="paint11_linear" x1="566.846" y1="200.592" x2="500.508" y2="164.327" gradientUnits="userSpaceOnUse">
<stop offset="0.6886" stop-color="#3E8EED"/>
<stop offset="0.7056" stop-color="#4290ED"/>
<stop offset="0.8867" stop-color="#65A4F0"/>
<stop offset="0.9841" stop-color="#72ACF1"/>
</linearGradient>
<radialGradient id="paint12_radial" cx="0" cy="0" r="1" gradientUnits="userSpaceOnUse" gradientTransform="translate(519.88 190.006) rotate(-1.33515) scale(162.607)">
<stop offset="0.204" stop-color="#72ACF1"/>
<stop offset="0.2915" stop-color="#69A7F0"/>
<stop offset="0.6359" stop-color="#4A95EE"/>
<stop offset="0.828" stop-color="#3E8EED"/>
</radialGradient>
<radialGradient id="paint13_radial" cx="0" cy="0" r="1" gradientUnits="userSpaceOnUse" gradientTransform="translate(594.806 186.29) rotate(-1.33515) scale(17.6148)">
<stop offset="0.2011" stop-color="#3E8EED"/>
<stop offset="1" stop-color="#106EBE"/>
</radialGradient>
<radialGradient id="paint14_radial" cx="0" cy="0" r="1" gradientUnits="userSpaceOnUse" gradientTransform="translate(485.542 210.136) rotate(-1.33515) scale(18.6679)">
<stop offset="0.2011" stop-color="#3E8EED"/>
<stop offset="1" stop-color="#106EBE"/>
</radialGradient>
<radialGradient id="paint15_radial" cx="0" cy="0" r="1" gradientUnits="userSpaceOnUse" gradientTransform="translate(715.162 226.61) rotate(-2.93479) scale(53.614)">
<stop offset="0.204" stop-color="#72ACF1"/>
<stop offset="0.2915" stop-color="#69A7F0"/>
<stop offset="0.6359" stop-color="#4A95EE"/>
<stop offset="0.828" stop-color="#3E8EED"/>
</radialGradient>
<radialGradient id="paint16_radial" cx="0" cy="0" r="1" gradientUnits="userSpaceOnUse" gradientTransform="translate(275.368 169.603) rotate(-1.33515) scale(121.541)">
<stop offset="0.186" stop-color="#A08BE8"/>
<stop offset="0.684" stop-color="#8065E0"/>
<stop offset="0.8157" stop-color="#8065E0"/>
</radialGradient>
<radialGradient id="paint17_radial" cx="0" cy="0" r="1" gradientUnits="userSpaceOnUse" gradientTransform="translate(258.359 192.473) rotate(-1.33515) scale(82.5374)">
<stop offset="0.0933" stop-color="#E1DFDD"/>
<stop offset="0.6573" stop-color="white"/>
</radialGradient>
<radialGradient id="paint18_radial" cx="0" cy="0" r="1" gradientUnits="userSpaceOnUse" gradientTransform="translate(216.122 142.826) rotate(-1.33515) scale(12.7628)">
<stop stop-color="#8065E0"/>
<stop offset="1" stop-color="#512BD4"/>
</radialGradient>
<radialGradient id="paint19_radial" cx="0" cy="0" r="1" gradientUnits="userSpaceOnUse" gradientTransform="translate(387.733 280.009) rotate(4.46769) scale(15.9175)">
<stop stop-color="#8065E0"/>
<stop offset="1" stop-color="#512BD4"/>
</radialGradient>
<linearGradient id="paint20_linear" x1="226.052" y1="240.876" x2="183.423" y2="318.853" gradientUnits="userSpaceOnUse">
<stop offset="0.2495" stop-color="#967FE6"/>
<stop offset="1" stop-color="#8A6FE8"/>
</linearGradient>
<radialGradient id="paint21_radial" cx="0" cy="0" r="1" gradientUnits="userSpaceOnUse" gradientTransform="translate(202.68 319.241) rotate(-1.33515) scale(33.2765)">
<stop stop-color="#8065E0"/>
<stop offset="1" stop-color="#512BD4"/>
</radialGradient>
<radialGradient id="paint22_radial" cx="0" cy="0" r="1" gradientUnits="userSpaceOnUse" gradientTransform="translate(214.517 228.402) rotate(-1.33515) scale(20.6278)">
<stop stop-color="#8065E0"/>
<stop offset="1" stop-color="#512BD4"/>
</radialGradient>
<linearGradient id="paint23_linear" x1="395.639" y1="60.7312" x2="442.188" y2="144.828" gradientUnits="userSpaceOnUse">
<stop offset="0.2218" stop-color="#C7E0F4"/>
<stop offset="0.5406" stop-color="#B3D3F5"/>
<stop offset="0.8039" stop-color="#A7CBF6"/>
</linearGradient>
</defs>
</svg>
