<svg width="943" height="532" viewBox="0 0 943 532" fill="none" xmlns="http://www.w3.org/2000/svg">
<path d="M757.871 43.4563C611.465 53.5906 560.783 13.0481 382.844 1.78885C148.604 -13.0369 -4.57209 63.73 0.104148 253.105C0.37655 264.082 1.21898 275.134 2.69197 286.171L933.636 287.261C968.942 161.891 897.295 33.8062 757.871 43.4563Z" fill="url(#paint0_linear)"/>
<path d="M810.096 193.757C804.699 193.757 727.17 193.757 727.17 193.757L692.333 157.936L698.235 146.132C699.042 144.517 698.371 142.555 696.737 141.773C689.089 138.126 673.915 131.26 667.897 128.738C667.509 128.572 667.09 128.491 666.666 128.491H588.911C588.205 128.491 587.524 128.758 587.009 129.238L570.746 144.25C569.414 145.476 567.674 146.162 565.863 146.162H522.546C520.003 146.162 517.577 145.072 515.887 143.175L503.599 129.364C503.039 128.733 502.237 128.375 501.399 128.375H439.065C438.343 128.375 437.647 128.627 437.097 129.086L416.606 146.162H367.403C367.12 146.162 366.843 146.192 366.57 146.232H348.274L344.359 150.732C343.33 151.913 344.173 153.759 345.737 153.759H370.127L356.451 171.258H345.167L316.378 207.73V265.307C346.584 263.446 760.085 264.324 760.085 264.324C760.085 264.324 811.075 203.079 813.531 200.133C815.988 197.192 815.494 193.757 810.096 193.757Z" fill="#FAF9F8"/>
<path d="M490.639 135.72L455.479 96.8064C455.308 96.6147 455.061 96.5088 454.803 96.5088H444.094C443.509 96.5088 443.075 97.0586 443.211 97.6287L452.589 136.542C452.685 136.95 453.053 137.238 453.472 137.238H489.969C490.75 137.233 491.164 136.305 490.639 135.72Z" fill="#FAF9F8"/>
<path d="M428.764 111.229H451.333C451.61 111.229 451.868 111.103 452.044 110.886L456.478 105.342C456.952 104.747 456.529 103.869 455.767 103.869H433.072C432.789 103.869 432.527 104 432.356 104.217L428.043 109.761C427.583 110.361 428.007 111.229 428.764 111.229Z" fill="#FAF9F8"/>
<path d="M648.885 135.72L613.725 96.8064C613.554 96.6147 613.306 96.5088 613.054 96.5088H602.345C601.76 96.5088 601.326 97.0586 601.462 97.6287L610.84 136.542C610.936 136.95 611.304 137.238 611.722 137.238H648.214C649.001 137.233 649.415 136.305 648.885 135.72Z" fill="#FAF9F8"/>
<path d="M2.28845 283.059C13.0534 370.802 63.4326 458.238 185.761 500.698C380.927 568.44 740.982 520.971 858.806 408.863C898.45 371.145 923.199 327.173 934.776 283.059H2.28845Z" fill="#76AFF2"/>
<path d="M761.644 275.608V262.361H316.504V276.103L761.644 275.608Z" fill="#3E8EED"/>
<path d="M587.014 111.229H609.583C609.861 111.229 610.118 111.103 610.294 110.886L614.729 105.342C615.203 104.747 614.779 103.869 614.017 103.869H591.322C591.04 103.869 590.777 104 590.606 104.217L586.293 109.761C585.834 110.361 586.258 111.229 587.014 111.229Z" fill="#FAF9F8"/>
<path d="M678.94 133.591H603.303C602.133 133.591 601.184 134.539 601.184 135.71V136.416C601.184 137.682 602.208 138.706 603.475 138.706H690.174C686.623 137.066 682.653 135.261 678.94 133.591Z" fill="#C7E0F4"/>
<path d="M507.367 133.591H448.871C447.585 133.591 446.541 134.635 446.541 135.921V136.597C446.541 137.758 447.484 138.701 448.644 138.701H511.917L507.367 133.591Z" fill="#C7E0F4"/>
<path d="M667.121 149.643L690.764 192.263C691.274 193.187 692.247 193.757 693.302 193.757H727.17L692.333 157.936L698.235 146.132C698.366 145.869 698.452 145.602 698.508 145.33H669.658C667.449 145.33 666.051 147.706 667.121 149.643Z" fill="#72ACF1"/>
<path d="M671.671 157.845H692.379L698.235 146.137C698.366 145.875 698.452 145.607 698.508 145.335H669.658C667.449 145.335 666.046 147.711 667.121 149.643L671.671 157.845Z" fill="#2B88D8"/>
<path d="M620.106 103.869H602.96L604.736 111.229H626.755L620.106 103.869Z" fill="#72ACF1"/>
<path d="M446.485 111.229H468.509L461.745 103.748H444.684L446.485 111.229Z" fill="#72ACF1"/>
<path d="M745.633 253.372H728.926C727.644 253.372 726.61 252.333 726.61 251.057V248.575C726.61 247.294 727.649 246.26 728.926 246.26H745.638C746.919 246.26 747.954 247.299 747.954 248.575V251.057C747.954 252.333 746.914 253.372 745.633 253.372Z" fill="#A3C9F6" stroke="#A7CBF6" stroke-miterlimit="10"/>
<path d="M773.877 218.202H771.486C768.081 218.202 765.322 215.443 765.322 212.038V211.119C765.322 207.714 768.081 204.955 771.486 204.955H773.877C777.282 204.955 780.041 207.714 780.041 211.119V212.038C780.041 215.438 777.282 218.202 773.877 218.202Z" fill="#A3C9F6" stroke="#A7CBF6" stroke-miterlimit="10"/>
<path d="M712.92 179.107H692.5L695.496 184.505H718.171L712.92 179.107Z" fill="#A3C9F6" stroke="#A7CBF6" stroke-miterlimit="10"/>
<path d="M699.834 165.648H685.033L688.03 171.046H705.085L699.834 165.648Z" fill="#A3C9F6" stroke="#A7CBF6" stroke-miterlimit="10"/>
<path d="M669.053 192.021L646.368 149.88C645.591 148.442 644.088 147.544 642.453 147.544H587.917C586.823 147.544 585.768 147.948 584.951 148.679L569.934 162.117C569.116 162.849 568.062 163.247 566.967 163.247H380.382C379.01 163.247 377.714 163.883 376.871 164.963L356.305 191.401C354.035 194.321 356.113 198.574 359.816 198.574H633.504C633.429 198.917 633.388 199.27 633.388 199.633V208.92C633.388 211.634 635.588 213.828 638.296 213.828H650.287C653.001 213.828 655.195 211.629 655.195 208.92V199.633C655.195 199.27 655.155 198.912 655.079 198.574H665.138C668.503 198.574 670.647 194.982 669.053 192.021Z" fill="#2B88D8"/>
<path d="M1.8446 279.22C2.36419 283.962 2.99979 288.704 3.75142 293.445C444.094 286.474 803.736 290.817 931.986 292.875C933.464 288.073 934.776 283.266 935.941 278.458C803.493 274.882 407.703 266.387 1.8446 279.22Z" fill="#A3C9F6"/>
<path d="M185.756 500.698C238.804 519.111 304.039 529.008 373.275 531.414C503.135 318.406 571.255 272.501 571.255 272.501H524.887C524.887 272.501 343.951 315.404 70.2124 429.763C98.3203 458.824 136.113 483.466 185.756 500.698Z" fill="url(#paint1_linear)"/>
<path d="M572.486 275.966H570.726V261.912C570.726 260.096 572.204 258.623 574.015 258.623H588.26C588.689 258.623 589.098 258.442 589.39 258.129L635.421 207.911C636.042 207.235 636.925 206.847 637.848 206.847H653.803C655.604 206.847 657.077 208.31 657.092 210.11L657.143 222.545L655.382 222.55L655.332 210.121C655.327 209.288 654.636 208.607 653.798 208.607H637.843C637.414 208.607 637 208.789 636.713 209.102L590.682 259.319C590.061 259.995 589.179 260.384 588.255 260.384H574.01C573.167 260.384 572.476 261.07 572.476 261.917V275.966H572.486Z" fill="#6BA8F1"/>
<path d="M656.689 216.517H637.848C637.172 216.517 636.526 216.8 636.072 217.299L590.041 267.517C589.582 268.016 588.941 268.299 588.265 268.299H571.397C570.065 268.299 568.985 269.378 568.985 270.71V276.804C568.985 278.135 570.065 279.215 571.397 279.215H593.179C593.855 279.215 594.5 278.932 594.954 278.433L641.555 227.655C642.014 227.156 642.655 226.873 643.331 226.873H656.739C658.081 226.873 659.161 225.779 659.15 224.442L659.1 218.913C659.09 217.581 658.015 216.517 656.689 216.517Z" fill="#6BA8F1"/>
<path d="M653.98 183.229H372.619C370.379 183.229 368.568 185.045 368.568 187.279C368.568 189.519 370.384 191.33 372.619 191.33H653.98C656.22 191.33 658.03 189.514 658.03 187.279C658.03 185.045 656.215 183.229 653.98 183.229Z" fill="#72ACF1"/>
<path d="M647.826 169.604H381.85C379.611 169.604 377.8 171.42 377.8 173.654C377.8 175.894 379.616 177.705 381.85 177.705H647.826C650.065 177.705 651.876 175.889 651.876 173.654C651.876 171.42 650.06 169.604 647.826 169.604Z" fill="#72ACF1"/>
<path d="M640.834 155.62H586.737C584.498 155.62 582.687 157.436 582.687 159.671C582.687 161.911 584.503 163.722 586.737 163.722H640.834C643.074 163.722 644.885 161.906 644.885 159.671C644.885 157.431 643.069 155.62 640.834 155.62Z" fill="#72ACF1"/>
<path d="M385.291 84.6696C383.818 84.6696 382.42 84.9672 381.144 85.5019C382.521 82.6164 383.318 79.3981 383.318 75.988C383.318 63.7602 373.406 53.8528 361.183 53.8528C358.953 53.8528 356.809 54.1908 354.782 54.8012C350.433 42.306 338.584 33.3218 324.605 33.3218C309.043 33.3218 296.094 44.4449 293.234 59.1647C292.033 58.8569 290.777 58.6804 289.481 58.6804C283.982 58.6804 279.18 61.6062 276.506 65.9697C272.456 62.4032 267.154 60.224 261.333 60.224C248.636 60.224 238.345 70.5147 238.345 83.2117C238.345 95.9087 248.636 106.199 261.333 106.199H385.296C391.243 106.199 396.061 101.382 396.061 95.4345C396.056 89.4921 391.233 84.6696 385.291 84.6696Z" fill="#D8E8FB"/>
<path d="M842.331 129.873C843.92 126.357 844.803 122.458 844.803 118.347C844.803 102.87 832.257 90.3197 816.776 90.3197C811.968 90.3197 807.443 91.5304 803.488 93.6642C799.73 86.047 791.886 80.8008 782.816 80.8008C770.089 80.8008 759.773 91.1167 759.773 103.844C759.773 104.863 759.844 105.862 759.975 106.845C759.248 106.684 758.497 106.593 757.725 106.593C752.03 106.593 747.414 111.209 747.414 116.904C747.414 117.116 747.434 117.318 747.444 117.525C745.81 116.909 744.049 116.556 742.198 116.556C734.5 116.556 728.169 122.387 727.372 129.868H842.331V129.873Z" fill="#D8E8FB"/>
<path d="M695.94 83.6003C696.338 83.6003 696.722 83.681 697.07 83.8273C696.697 83.0404 696.48 82.1677 696.48 81.2395C696.48 77.9102 699.178 75.2114 702.508 75.2114C703.113 75.2114 703.698 75.3022 704.253 75.4686C705.439 72.0686 708.662 69.6221 712.466 69.6221C716.703 69.6221 720.229 72.6488 721.006 76.6591C721.334 76.5784 721.672 76.528 722.025 76.528C723.523 76.528 724.83 77.325 725.556 78.5104C726.661 77.5419 728.104 76.9467 729.688 76.9467C733.143 76.9467 735.948 79.7463 735.948 83.2069C735.948 86.6623 733.148 89.4671 729.688 89.4671H695.945C694.326 89.4671 693.014 88.1555 693.014 86.5362C693.014 84.9119 694.326 83.6003 695.94 83.6003Z" fill="#D8E8FB"/>
<path d="M550.497 206.792C550.422 207.341 550.381 207.901 550.381 208.476C550.381 213.506 553.347 217.587 557.005 217.587H583.993C587.65 217.587 590.616 213.511 590.616 208.476C590.616 207.901 590.571 207.336 590.5 206.792H550.497Z" fill="#A3C9F6" stroke="#A7CBF6" stroke-miterlimit="10"/>
<path d="M502.146 206.792C502.07 207.341 502.03 207.901 502.03 208.476C502.03 213.506 504.996 217.587 508.653 217.587H535.641C539.299 217.587 542.265 213.511 542.265 208.476C542.265 207.901 542.219 207.336 542.149 206.792H502.146Z" fill="#A3C9F6" stroke="#A7CBF6" stroke-miterlimit="10"/>
<path d="M453.79 206.792C453.714 207.341 453.674 207.901 453.674 208.476C453.674 213.506 456.64 217.587 460.297 217.587H487.285C490.942 217.587 493.909 213.511 493.909 208.476C493.909 207.901 493.863 207.336 493.793 206.792H453.79Z" fill="#A3C9F6" stroke="#A7CBF6" stroke-miterlimit="10"/>
<path d="M405.439 206.792C405.363 207.341 405.323 207.901 405.323 208.476C405.323 213.506 408.289 217.587 411.946 217.587H438.934C442.591 217.587 445.557 213.511 445.557 208.476C445.557 207.901 445.512 207.336 445.441 206.792H405.439Z" fill="#A3C9F6" stroke="#A7CBF6" stroke-miterlimit="10"/>
<path d="M357.082 206.792C357.006 207.341 356.966 207.901 356.966 208.476C356.966 213.506 359.932 217.587 363.589 217.587H390.577C394.234 217.587 397.201 213.511 397.201 208.476C397.201 207.901 397.155 207.336 397.085 206.792H357.082Z" fill="#A3C9F6" stroke="#A7CBF6" stroke-miterlimit="10"/>
<path d="M231.217 448.609C283.663 448.609 326.179 444.948 326.179 440.432C326.179 435.916 283.663 432.255 231.217 432.255C178.771 432.255 136.255 435.916 136.255 440.432C136.255 444.948 178.771 448.609 231.217 448.609Z" fill="#3E8EED"/>
<path d="M275.729 281.893L275.467 266.326C295.08 265.998 309.623 260.176 318.683 249.028C335.113 228.815 329.342 197.408 329.282 197.095L344.576 194.169C344.879 195.748 351.719 233.072 330.77 258.85C318.673 273.726 300.155 281.479 275.729 281.893Z" fill="#8A6FE8"/>
<path d="M304.538 198.119L322.643 213.207C325.871 215.896 330.663 215.462 333.352 212.234C336.041 209.005 335.607 204.213 332.378 201.524L314.274 186.436C311.045 183.748 306.253 184.181 303.564 187.41C300.876 190.633 301.309 195.431 304.538 198.119Z" fill="#8A6FE8"/>
<path d="M350.13 203.391L356.642 188.944C358.352 185.08 356.602 180.565 352.743 178.86C348.879 177.15 344.364 178.895 342.659 182.759L335.985 197.575L350.13 203.391Z" fill="#8A6FE8"/>
<path d="M346.609 195.582L346.533 173.729C346.503 169.507 343.053 166.107 338.83 166.137C334.608 166.168 331.208 169.618 331.238 173.84L331.243 190.089L346.609 195.582Z" fill="#8A6FE8"/>
<path d="M337.569 197.943L332.53 176.655C331.566 172.544 327.45 169.992 323.339 170.96C319.227 171.924 316.675 176.04 317.643 180.151L322.774 201.832L337.569 197.943Z" fill="#8A6FE8"/>
<path d="M334.734 218.055C343.574 218.055 350.74 210.889 350.74 202.049C350.74 193.209 343.574 186.043 334.734 186.043C325.894 186.043 318.728 193.209 318.728 202.049C318.728 210.889 325.894 218.055 334.734 218.055Z" fill="url(#paint2_radial)"/>
<path d="M253.811 378.52C253.962 365.031 252.04 337.65 238.113 314.723L224.498 322.991C237.129 343.784 238.077 368.053 237.785 378.641C237.759 379.519 245.927 380.316 253.811 378.52Z" fill="url(#paint3_linear)"/>
<path d="M237.794 378.495L250.406 378.439L262.174 445.864L236.871 445.98C234.944 445.99 233.486 444.436 233.613 442.509L237.794 378.495Z" fill="#522CD5"/>
<path d="M289.147 428.128C291.332 429.853 291.296 432.35 291.125 434.988L290.595 443.064C290.499 444.507 289.238 445.698 287.79 445.703L261.428 445.824C259.788 445.829 258.548 444.507 258.653 442.868L258.83 434.499C259.027 431.457 258.008 430.337 255.652 427.477C251.616 422.579 239.686 395.878 240.821 378.485L253.806 378.424C254.668 388.75 268.293 411.678 289.147 428.128Z" fill="url(#paint4_linear)"/>
<path d="M291.125 434.988C291.246 433.147 291.281 431.382 290.56 429.894L257.67 430.045C258.578 431.382 258.961 432.547 258.835 434.504L258.658 442.873C258.552 444.512 259.793 445.834 261.433 445.829L287.8 445.708C289.248 445.703 290.509 444.512 290.605 443.07L291.125 434.988Z" fill="url(#paint5_radial)"/>
<path d="M184.273 378.823C184 365.334 185.67 337.942 199.386 314.884L213.077 323.026C200.637 343.935 199.905 368.209 200.299 378.797C200.329 379.675 192.172 380.543 184.273 378.823Z" fill="url(#paint6_linear)"/>
<path d="M170.481 433.177C170.466 431.376 170.728 429.792 171.49 427.164C183.264 394.98 184.257 378.752 184.257 378.752L200.309 378.682C200.309 378.682 201.409 394.602 213.475 426.675C214.428 428.96 214.539 431.048 214.661 432.98L214.731 443.276C214.736 444.83 213.475 446.106 211.921 446.111L211.145 446.116L174.113 446.283L173.336 446.288C171.777 446.293 170.506 445.037 170.501 443.478L170.481 433.177Z" fill="url(#paint7_linear)"/>
<path d="M170.481 433.177C170.476 432.889 170.486 432.602 170.501 432.319C170.582 431.426 170.995 430.417 172.952 430.407L212.552 430.226C213.979 430.276 214.453 431.371 214.6 432.062C214.62 432.369 214.645 432.677 214.665 432.975L214.736 443.271C214.741 444.239 214.247 445.102 213.5 445.616C213.051 445.924 212.511 446.106 211.926 446.106L211.149 446.111L174.118 446.277L173.341 446.282C172.559 446.287 171.853 445.974 171.343 445.465C170.829 444.955 170.511 444.254 170.506 443.472L170.481 433.177Z" fill="url(#paint8_radial)"/>
<path d="M294.247 281.152C299.816 259.365 296.078 242.012 296.078 242.012L301.199 241.986L301.325 241.886C293.808 201.989 258.694 171.888 216.643 172.08C169.265 172.297 131.038 210.877 131.255 258.25C131.472 305.628 170.052 343.855 217.425 343.643C254.81 343.471 286.489 319.414 298.091 285.994C298.424 284.577 298.379 282.035 294.247 281.152Z" fill="url(#paint9_radial)"/>
<path d="M291.377 300.966L143.261 301.642C146.605 307.267 150.58 312.473 155.075 317.169L279.704 316.604C284.158 311.862 288.078 306.621 291.377 300.966Z" fill="#D8CFF7"/>
<path d="M245.806 321.424L273.606 321.298L273.494 296.711L245.694 296.838L245.806 321.424Z" fill="#512BD4"/>
<path d="M250.617 312.235C250.43 312.235 250.274 312.175 250.143 312.054C250.012 311.928 249.946 311.776 249.946 311.605C249.946 311.428 250.012 311.277 250.138 311.151C250.269 311.025 250.425 310.959 250.607 310.959C250.793 310.959 250.955 311.02 251.081 311.146C251.212 311.272 251.283 311.423 251.283 311.6C251.283 311.771 251.217 311.922 251.086 312.049C250.96 312.175 250.803 312.235 250.617 312.235Z" fill="white"/>
<path d="M258.007 312.114H256.806L253.628 307.125C253.548 306.999 253.482 306.868 253.427 306.732H253.396C253.422 306.878 253.437 307.191 253.437 307.665L253.447 312.119H252.382L252.367 305.324L253.649 305.319L256.721 310.192C256.852 310.394 256.933 310.535 256.973 310.611H256.993C256.963 310.429 256.948 310.127 256.943 309.698L256.933 305.319H257.992L258.007 312.114Z" fill="white"/>
<path d="M263.183 312.104L259.46 312.109L259.445 305.314L263.016 305.309V306.268L260.544 306.273L260.549 308.195L262.829 308.189V309.143L260.549 309.148L260.554 311.156L263.177 311.151L263.183 312.104Z" fill="white"/>
<path d="M268.464 306.257L266.558 306.262L266.568 312.104H265.468L265.458 306.262L263.556 306.267V305.309L268.459 305.299L268.464 306.257Z" fill="white"/>
<path d="M294.429 281.146C299.933 259.627 296.356 242.445 296.265 242.026L207.271 242.43C207.271 242.43 201.661 241.885 201.681 247.005C201.707 252.125 201.979 266.598 202.055 282.599C202.07 285.893 204.774 287.467 206.892 287.457C206.892 287.462 292.21 284.708 294.429 281.146Z" fill="url(#paint10_radial)"/>
<path d="M241.336 281.429C241.336 281.429 254.971 270.533 257.634 268.515C260.298 266.497 262.633 266.376 265.09 268.48C267.547 270.583 281.303 281.242 281.303 281.242L241.336 281.429Z" fill="#A08BE8"/>
<path d="M297.748 287.089C297.748 287.089 300.291 282.403 294.429 281.152C294.434 281.126 206.932 281.479 206.932 281.479C204.895 281.49 202.271 280.284 202.034 278.312C202.044 279.724 202.054 281.157 202.06 282.604C202.075 285.591 204.299 287.16 206.297 287.417C206.499 287.437 206.695 287.462 206.902 287.462L212.875 287.432L297.748 287.089Z" fill="#512BD4"/>
<path d="M228.436 273.185C232.14 273.113 235.045 268.005 234.924 261.777C234.802 255.549 231.7 250.558 227.996 250.63C224.291 250.703 221.386 255.81 221.508 262.038C221.629 268.267 224.731 273.257 228.436 273.185Z" fill="#512BD4"/>
<path d="M288.953 261.713C289.018 255.484 286.067 250.404 282.362 250.365C278.657 250.327 275.601 255.345 275.536 261.574C275.471 267.803 278.422 272.883 282.127 272.922C285.832 272.96 288.888 267.942 288.953 261.713Z" fill="#512BD4"/>
<path d="M228.129 256.267C229.491 254.89 231.338 254.28 233.128 254.436C234.188 256.393 234.864 258.961 234.919 261.791C234.955 263.551 234.738 265.221 234.339 266.714C232.226 267.33 229.85 266.81 228.17 265.145C225.708 262.699 225.688 258.729 228.129 256.267Z" fill="#8065E0"/>
<path d="M282.131 255.652C283.498 254.275 285.344 253.664 287.135 253.821C288.285 255.864 288.981 258.638 288.951 261.695C288.936 263.254 288.729 264.737 288.376 266.089C286.252 266.72 283.856 266.205 282.166 264.53C279.709 262.089 279.694 258.114 282.131 255.652Z" fill="#8065E0"/>
<path d="M110.371 348.238C109.932 346.841 99.8486 313.764 116.243 288.764C125.717 274.321 141.693 265.806 163.737 263.456L165.427 279.295C148.392 281.111 136.34 287.215 129.606 297.435C117.328 316.069 125.495 343.219 125.575 343.491L110.371 348.238Z" fill="url(#paint11_linear)"/>
<path d="M160.992 285.066C169.693 285.066 176.746 278.013 176.746 269.312C176.746 260.611 169.693 253.558 160.992 253.558C152.292 253.558 145.238 260.611 145.238 269.312C145.238 278.013 152.292 285.066 160.992 285.066Z" fill="url(#paint12_radial)"/>
<path d="M146.964 334.548L123.603 331.435C119.441 330.88 115.617 333.806 115.062 337.968C114.507 342.129 117.433 345.953 121.595 346.508L144.956 349.621C149.118 350.175 152.941 347.25 153.496 343.088C154.056 338.926 151.13 335.103 146.964 334.548Z" fill="#8A6FE8"/>
<path d="M105.584 354.398L107.778 370.091C108.394 374.268 112.278 377.158 116.455 376.543C120.631 375.927 123.522 372.043 122.906 367.866L120.657 351.774L105.584 354.398Z" fill="#8A6FE8"/>
<path d="M112.727 359.129L124.445 377.577C126.72 381.133 131.452 382.167 135.008 379.892C138.565 377.617 139.604 372.886 137.324 369.329L128.657 355.583L112.727 359.129Z" fill="#8A6FE8"/>
<path d="M119.113 352.309L134.726 367.629C137.732 370.59 142.575 370.555 145.541 367.548C148.507 364.542 148.467 359.699 145.46 356.733L129.565 341.125L119.113 352.309Z" fill="#8A6FE8"/>
<path d="M119.32 363.326C128.16 363.326 135.326 356.16 135.326 347.32C135.326 338.48 128.16 331.314 119.32 331.314C110.48 331.314 103.314 338.48 103.314 347.32C103.314 356.16 110.48 363.326 119.32 363.326Z" fill="url(#paint13_radial)"/>
<path d="M208.375 167.267L224.397 167.131L221.632 138.105L210.136 138.191L208.375 167.267Z" fill="#8A6FE8"/>
<path d="M218.813 149.591C212.986 151.145 206.973 147.725 205.374 141.949C203.775 136.173 207.2 130.246 213.027 128.692C218.853 127.138 224.866 130.558 226.465 136.334C228.064 142.11 224.644 148.038 218.813 149.591Z" fill="#D8CFF7"/>
<path d="M202.377 177.26C201.661 177.26 201.061 176.65 201.147 175.944C201.898 168.417 208.264 162.505 216.093 162.445C223.927 162.384 230.445 168.175 231.393 175.692C231.479 176.403 230.909 177.023 230.193 177.023L202.377 177.26Z" fill="#522CD5"/>
<path d="M169.745 172.252C169.745 172.252 165.82 172.252 161.447 172.252C157.073 172.252 153.749 165.31 160.241 160.932C169.75 154.52 227.242 120.036 254.86 120.036C282.474 120.036 281.939 142.388 276.895 151.574C272.667 159.272 260.445 169.987 260.445 169.987L169.745 172.252Z" fill="white"/>
<path d="M193.444 183.117C193.444 183.117 210.51 201.58 239.248 201.782C268.087 201.984 279.508 201.378 283.887 201.378C286.702 201.378 287.256 199.668 283.72 197.151C278.812 193.66 258.821 179.042 258.821 179.042L193.444 183.117Z" fill="url(#paint14_radial)"/>
<path d="M265.722 176.328H169.745V184.474H265.722V176.328Z" fill="#F7B548"/>
<path d="M169.745 176.328H265.722V164.821C265.722 164.821 237.049 162.445 169.745 172.257C169.745 174.971 169.745 176.328 169.745 176.328Z" fill="#6E66DF"/>
<path d="M261.671 144.875C261.04 144.875 260.526 145.43 260.526 146.116C260.526 149.753 258.125 152.785 254.861 153.38V141.985H259.174C259.804 141.985 260.319 141.43 260.319 140.744C260.319 140.058 259.804 139.503 259.174 139.503H254.861V138.484C256.425 137.985 257.524 136.426 257.524 134.63C257.524 132.41 255.855 130.604 253.807 130.604C251.758 130.604 250.089 132.41 250.089 134.63C250.089 136.355 251.093 137.858 252.571 138.423V139.508H248.419C247.788 139.508 247.274 140.063 247.274 140.749C247.274 141.435 247.788 141.99 248.419 141.99H252.571V153.385C249.307 152.795 246.906 149.763 246.906 146.121C246.906 145.44 246.391 144.88 245.761 144.88C245.13 144.88 244.615 145.435 244.615 146.121C244.615 151.065 248.076 155.267 252.571 155.882V157.219C252.571 157.9 253.085 158.46 253.716 158.46C254.346 158.46 254.861 157.905 254.861 157.219V155.882C259.355 155.267 262.816 151.065 262.816 146.121C262.816 145.43 262.301 144.875 261.671 144.875ZM253.807 133.081C254.593 133.081 255.234 133.772 255.234 134.63C255.234 135.483 254.593 136.174 253.807 136.174C253.02 136.174 252.379 135.483 252.379 134.63C252.374 133.777 253.015 133.081 253.807 133.081Z" fill="#F7B548"/>
<defs>
<linearGradient id="paint0_linear" x1="471.279" y1="287.263" x2="471.279" y2="-0.00195194" gradientUnits="userSpaceOnUse">
<stop offset="0.4788" stop-color="#C7E0F4"/>
<stop offset="0.7642" stop-color="#B3D3F5"/>
<stop offset="1" stop-color="#A7CBF6"/>
</linearGradient>
<linearGradient id="paint1_linear" x1="320.736" y1="531.413" x2="320.736" y2="272.499" gradientUnits="userSpaceOnUse">
<stop offset="0.2125" stop-color="#72ACF1"/>
<stop offset="0.989" stop-color="#3E8EED"/>
</linearGradient>
<radialGradient id="paint2_radial" cx="0" cy="0" r="1" gradientUnits="userSpaceOnUse" gradientTransform="translate(334.875 194.538) scale(16.0062)">
<stop stop-color="#8065E0"/>
<stop offset="1" stop-color="#512BD4"/>
</radialGradient>
<linearGradient id="paint3_linear" x1="233.537" y1="315.693" x2="247.031" y2="379.961" gradientUnits="userSpaceOnUse">
<stop offset="0.2942" stop-color="#522CD5"/>
<stop offset="0.5497" stop-color="#8A6FE8"/>
</linearGradient>
<linearGradient id="paint4_linear" x1="243.816" y1="376.801" x2="283.903" y2="448.27" gradientUnits="userSpaceOnUse">
<stop stop-color="#522CD5"/>
<stop offset="0.4397" stop-color="#8A6FE8"/>
</linearGradient>
<radialGradient id="paint5_radial" cx="0" cy="0" r="1" gradientUnits="userSpaceOnUse" gradientTransform="translate(273.624 416.454) rotate(-0.260741) scale(27.7819)">
<stop offset="0.034" stop-color="#522CD5"/>
<stop offset="0.9955" stop-color="#8A6FE8"/>
</radialGradient>
<linearGradient id="paint6_linear" x1="198.653" y1="314.887" x2="198.651" y2="379.814" gradientUnits="userSpaceOnUse">
<stop offset="0.2769" stop-color="#522CD5"/>
<stop offset="0.5939" stop-color="#8A6FE8"/>
</linearGradient>
<linearGradient id="paint7_linear" x1="192.334" y1="378.718" x2="192.641" y2="446.199" gradientUnits="userSpaceOnUse">
<stop stop-color="#522CD5"/>
<stop offset="0.4397" stop-color="#8A6FE8"/>
</linearGradient>
<radialGradient id="paint8_radial" cx="0" cy="0" r="1" gradientUnits="userSpaceOnUse" gradientTransform="translate(193.48 416.737) rotate(179.739) scale(30.4581)">
<stop offset="0.034" stop-color="#522CD5"/>
<stop offset="0.9955" stop-color="#8A6FE8"/>
</radialGradient>
<radialGradient id="paint9_radial" cx="0" cy="0" r="1" gradientUnits="userSpaceOnUse" gradientTransform="translate(236.263 225.134) rotate(179.739) scale(85.4289)">
<stop offset="0.4744" stop-color="#A08BE8"/>
<stop offset="0.8618" stop-color="#8065E0"/>
</radialGradient>
<radialGradient id="paint10_radial" cx="0" cy="0" r="1" gradientUnits="userSpaceOnUse" gradientTransform="translate(294.237 228.049) rotate(179.739) scale(88.5317)">
<stop offset="0.0933" stop-color="#E1DFDD"/>
<stop offset="0.6573" stop-color="white"/>
</radialGradient>
<linearGradient id="paint11_linear" x1="136.164" y1="263.46" x2="136.164" y2="348.239" gradientUnits="userSpaceOnUse">
<stop offset="0.2495" stop-color="#967FE6"/>
<stop offset="1" stop-color="#8A6FE8"/>
</linearGradient>
<radialGradient id="paint12_radial" cx="0" cy="0" r="1" gradientUnits="userSpaceOnUse" gradientTransform="translate(158.086 264.014) rotate(-0.260742) scale(15.7556)">
<stop stop-color="#8065E0"/>
<stop offset="1" stop-color="#512BD4"/>
</radialGradient>
<radialGradient id="paint13_radial" cx="0" cy="0" r="1" gradientUnits="userSpaceOnUse" gradientTransform="translate(118.961 340.978) scale(16.0091)">
<stop stop-color="#8065E0"/>
<stop offset="1" stop-color="#512BD4"/>
</radialGradient>
<radialGradient id="paint14_radial" cx="0" cy="0" r="1" gradientUnits="userSpaceOnUse" gradientTransform="translate(266.982 169.554) rotate(-109.862) scale(37.4263 40.5215)">
<stop offset="0.0563" stop-color="#B3AFAB"/>
<stop offset="0.4362" stop-color="#8B8884"/>
<stop offset="0.7945" stop-color="#6C6965"/>
<stop offset="0.9938" stop-color="#605D5A"/>
</radialGradient>
</defs>
</svg>
