<svg width="909" height="501" viewBox="0 0 909 501" fill="none" xmlns="http://www.w3.org/2000/svg">
<path d="M864.922 12.9631C804.242 23.1713 749.825 27.8664 622.779 6.15427C531.27 -9.48579 491.629 7.22641 392.061 27.8664C292.493 48.5064 280.057 7.85648 172.455 7.85648C64.8535 7.85648 0 37.1549 0 37.1549C0 37.1549 11.2177 170.522 1.01564 317.172C-5.2153 406.724 55.9007 492.896 55.9007 492.896C55.9007 492.896 236.12 511.91 418.971 491.682C518.021 480.722 678.461 500.757 770.295 498.318C862.129 495.879 887.601 439.828 902.521 334.971C877.962 237.549 908.005 221.238 908.005 150.873C908 90.0913 885.326 48.354 864.922 12.9631Z" fill="url(#paint0_radial)"/>
<path d="M326.761 33.1772C278.798 29.4832 250.939 7.85742 172.455 7.85742C64.8586 7.85742 0 37.1558 0 37.1558C0 37.1558 2.03127 61.3273 3.58012 100.402C80.4486 109.091 115.635 75.5294 149.532 48.9799C188.65 18.3502 208.206 37.918 265.178 49.8285C291.452 55.3264 312.116 45.4332 326.761 33.1772Z" fill="url(#paint1_linear)"/>
<path d="M286.526 117.627C310.433 117.627 329.813 98.2358 329.813 74.3149C329.813 50.3941 310.433 31.0024 286.526 31.0024C262.62 31.0024 243.24 50.3941 243.24 74.3149C243.24 98.2358 262.62 117.627 286.526 117.627Z" fill="url(#paint2_linear)"/>
<path d="M3.69693 268.129L537.602 213.002C537.602 213.002 532.768 199.634 520.265 182.713C499.008 153.938 458.728 141.286 382.966 154.98C347.323 161.423 342.214 158.938 365.716 149.014C389.218 139.091 371.302 139.182 317.239 146.652C227.868 158.999 144.261 175.315 102.046 186.6C66.7528 196.036 75.5584 186.6 98.3442 178.308C141.615 162.556 65.8895 167.363 5.2864 179.868C5.38289 207.154 4.96648 236.996 3.69693 268.129Z" fill="url(#paint3_linear)"/>
<path d="M890.836 354.017C850.982 370.576 800.109 373.894 762.292 372.116C749.835 371.527 741.72 363.153 751.734 349.499C758.295 340.562 747.311 336.466 737.073 336.664C723.022 336.934 730.71 330.826 743.888 322.635C770.203 306.284 679.263 350.561 587.434 320.023C567.873 313.519 762.286 199.293 762.286 199.293L890.836 354.017Z" fill="url(#paint4_linear)"/>
<path d="M211.303 500.687L210.11 499.737L211.374 498.146L212.568 499.096L211.303 500.687ZM128.661 497.917L127.346 496.368L128.509 495.382L129.824 496.932L128.661 497.917ZM214.462 496.708L213.269 495.758L214.533 494.168L215.726 495.118L214.462 496.708ZM125.375 494.04L124.06 492.491L125.223 491.505L126.538 493.055L125.375 494.04ZM217.621 492.724L216.427 491.774L217.692 490.184L218.885 491.134L217.621 492.724ZM122.095 490.164L120.78 488.614L121.942 487.628L123.258 489.178L122.095 490.164ZM220.779 488.746L219.586 487.796L220.85 486.205L222.044 487.155L220.779 488.746ZM118.809 486.287L117.494 484.737L118.657 483.751L119.972 485.301L118.809 486.287ZM223.938 484.767L222.744 483.817L224.009 482.227L225.202 483.177L223.938 484.767ZM115.529 482.41L114.213 480.86L115.376 479.874L116.692 481.424L115.529 482.41ZM227.091 480.789L225.898 479.838L227.162 478.248L228.356 479.198L227.091 480.789ZM112.248 478.533L110.933 476.983L112.096 475.997L113.411 477.547L112.248 478.533ZM230.25 476.81L229.057 475.86L230.321 474.269L231.514 475.22L230.25 476.81ZM233.409 472.826L232.215 471.876L233.48 470.286L234.673 471.236L233.409 472.826ZM113.954 469.945L112.619 469.208L113.599 467.43L114.935 468.167L113.954 469.945ZM234.978 469.468L232.972 469.153L233.211 467.649L235.216 467.964L234.978 469.468ZM229.961 468.68L227.955 468.365L228.193 466.861L230.199 467.176L229.961 468.68ZM224.943 467.892L222.937 467.577L223.176 466.073L225.182 466.388L224.943 467.892ZM219.926 467.1L217.92 466.785L218.159 465.281L220.165 465.596L219.926 467.1ZM214.914 466.312L212.908 465.997L213.147 464.493L215.153 464.808L214.914 466.312ZM209.897 465.525L207.891 465.21L208.129 463.705L210.135 464.021L209.897 465.525ZM116.402 465.494L115.067 464.757L116.047 462.979L117.382 463.716L116.402 465.494ZM204.879 464.737L202.874 464.422L203.112 462.918L205.118 463.233L204.879 464.737ZM199.862 463.949L197.856 463.634L198.095 462.13L200.101 462.445L199.862 463.949ZM194.845 463.157L192.839 462.842L193.078 461.338L195.084 461.653L194.845 463.157ZM189.828 462.369L187.822 462.054L188.06 460.55L190.066 460.865L189.828 462.369ZM184.81 461.582L182.805 461.267L183.043 459.762L185.049 460.077L184.81 461.582ZM118.85 461.043L117.514 460.306L118.494 458.528L119.83 459.264L118.85 461.043ZM179.793 460.794L177.787 460.479L178.026 458.975L180.032 459.29L179.793 460.794ZM174.781 460.001L172.775 459.686L173.014 458.182L175.02 458.497L174.781 460.001ZM169.764 459.214L167.758 458.899L167.997 457.395L170.002 457.71L169.764 459.214ZM164.747 458.426L162.741 458.111L162.979 456.607L164.985 456.922L164.747 458.426ZM159.729 457.638L157.723 457.323L157.957 455.819L159.963 456.134L159.729 457.638ZM154.712 456.851L152.706 456.536L152.945 455.032L154.951 455.347L154.712 456.851ZM121.298 456.592L119.962 455.855L120.942 454.077L122.278 454.813L121.298 456.592ZM149.695 456.063L147.689 455.748L147.928 454.244L149.933 454.559L149.695 456.063ZM144.678 455.271L142.672 454.956L142.905 453.452L144.911 453.767L144.678 455.271ZM139.66 454.483L137.654 454.168L137.893 452.664L139.899 452.979L139.66 454.483ZM134.648 453.695L132.642 453.38L132.881 451.876L134.887 452.191L134.648 453.695ZM129.631 452.908L127.625 452.593L127.864 451.089L129.87 451.404L129.631 452.908ZM123.745 452.135L123.298 451.907L123.303 451.887L122.415 451.399L123.009 450.316L124.852 450.606L124.614 452.11L123.826 451.988L123.745 452.135Z" fill="#2B88D8"/>
<path d="M550.257 57.7043L549.338 56.4899L550.958 55.2654L551.877 56.4798L550.257 57.7043ZM546.87 56.1698L545.209 54.996L546.088 53.7511L547.748 54.9249L546.87 56.1698ZM554.304 54.6404L553.385 53.4259L555.005 52.2014L555.924 53.4158L554.304 54.6404ZM494.387 53.5428L494.026 52.0642L496.002 51.5815L496.362 53.0601L494.387 53.5428ZM542.721 53.243L541.06 52.0693L541.939 50.8243L543.599 51.9981L542.721 53.243ZM499.318 52.3335L498.957 50.8548L500.933 50.3721L501.293 51.8508L499.318 52.3335ZM558.357 51.5764L557.438 50.362L559.057 49.1374L559.977 50.3518L558.357 51.5764ZM504.254 51.1241L503.893 49.6455L505.869 49.1628L506.229 50.6414L504.254 51.1241ZM491.975 50.743L491.02 48.9494L492.366 48.2329L493.32 50.0266L491.975 50.743ZM538.572 50.3111L536.912 49.1374L537.79 47.8925L539.451 49.0662L538.572 50.3111ZM509.185 49.9199L508.824 48.4412L510.799 47.9585L511.16 49.4372L509.185 49.9199ZM514.116 48.7106L513.755 47.2319L515.73 46.7492L516.091 48.2278L514.116 48.7106ZM562.404 48.5073L561.485 47.2929L563.105 46.0683L564.024 47.2827L562.404 48.5073ZM519.051 47.5012L518.691 46.0226L520.666 45.5399L521.027 47.0185L519.051 47.5012ZM534.423 47.3843L532.763 46.2106L533.641 44.9657L535.302 46.1394L534.423 47.3843ZM523.982 46.2919L523.622 44.8132L525.597 44.3305L525.958 45.8092L523.982 46.2919ZM489.583 46.2614L488.628 44.4677L489.974 43.7513L490.928 45.5449L489.583 46.2614ZM566.456 45.4433L565.537 44.2289L567.157 43.0043L568.076 44.2187L566.456 45.4433ZM528.913 45.0876L528.553 43.609L530.528 43.1263L530.889 44.6049L528.913 45.0876ZM570.509 42.3793L569.59 41.1649L571.21 39.9403L572.129 41.1548L570.509 42.3793ZM487.191 41.7797L486.236 39.9861L487.582 39.2696L488.537 41.0633L487.191 41.7797ZM574.556 39.3153L573.637 38.1009L575.257 36.8763L576.176 38.0908L574.556 39.3153ZM484.799 37.2981L483.844 35.5044L485.19 34.788L486.145 36.5816L484.799 37.2981ZM578.609 36.2514L577.689 35.0369L579.309 33.8124L580.228 35.0268L578.609 36.2514ZM582.656 33.1874L581.737 31.973L583.357 30.7484L584.276 31.9628L582.656 33.1874ZM482.407 32.8164L481.453 31.0228L482.798 30.3063L483.753 32.1L482.407 32.8164ZM586.708 30.1183L585.789 28.9039L587.409 27.6793L588.328 28.8937L586.708 30.1183ZM480.015 28.3348L479.061 26.5411L480.406 25.8247L481.361 27.6183L480.015 28.3348ZM590.761 27.0543L589.841 25.8399L591.461 24.6153L592.381 25.8297L590.761 27.0543ZM594.808 23.9903L593.889 22.7759L595.509 21.5513L596.428 22.7658L594.808 23.9903ZM477.619 23.8531L476.664 22.0595L478.01 21.343L478.964 23.1367L477.619 23.8531ZM598.86 20.9263L597.941 19.7119L599.561 18.4873L600.48 19.7018L598.86 20.9263ZM475.227 19.3715L474.724 18.4264L476.07 17.7099L476.572 18.655L475.227 19.3715ZM602.908 17.8624L601.988 16.6479L603.608 15.4234L604.528 16.6378L602.908 17.8624ZM606.96 14.7984L606.041 13.584L607.661 12.3594L608.58 13.5738L606.96 14.7984Z" fill="#2B88D8"/>
<path d="M609.565 362.889C690.747 362.889 756.558 297.038 756.558 215.807C756.558 134.576 690.747 68.7256 609.565 68.7256C528.383 68.7256 462.572 134.576 462.572 215.807C462.572 297.038 528.383 362.889 609.565 362.889Z" fill="url(#paint5_linear)"/>
<path opacity="0.16" d="M463.278 224.328C463.278 143.1 529.086 77.2468 610.271 77.2468C685.885 77.2468 748.154 134.38 756.34 207.855C752.211 130.32 688.079 68.7256 609.565 68.7256C528.385 68.7256 462.572 134.578 462.572 215.807C462.572 221.376 462.892 226.869 463.496 232.281C463.354 229.648 463.278 226.996 463.278 224.328Z" fill="url(#paint6_linear)"/>
<path d="M802.597 359.205C802.755 359.128 802.912 359.052 803.069 358.981C802.171 358.254 801.262 357.528 800.342 356.801C800.038 356.944 799.733 357.096 799.428 357.238C770.848 370.658 738.018 378.107 710.022 382.365L712.287 387.924C740.471 383.635 773.829 372.711 802.597 359.205Z" fill="url(#paint7_linear)"/>
<path d="M708.859 389.946C711.344 389.946 713.358 387.931 713.358 385.444C713.358 382.958 711.344 380.942 708.859 380.942C706.374 380.942 704.36 382.958 704.36 385.444C704.36 387.931 706.374 389.946 708.859 389.946Z" fill="#72ACF1"/>
<path d="M84.8108 44.7167C84.6483 44.6506 84.4909 44.5795 84.3334 44.5084C85.2069 43.7513 86.0905 42.9942 86.9842 42.2371C87.294 42.3692 87.6038 42.5064 87.9136 42.6436C116.946 55.057 150.015 61.3578 178.143 64.6352L176.076 70.2702C147.745 66.9624 114.026 57.2064 84.8108 44.7167Z" fill="url(#paint8_linear)"/>
<path d="M179.402 72.1707C181.887 72.1707 183.901 70.1551 183.901 67.6687C183.901 65.1824 181.887 63.1667 179.402 63.1667C176.917 63.1667 174.903 65.1824 174.903 67.6687C174.903 70.1551 176.917 72.1707 179.402 72.1707Z" fill="#72ACF1"/>
<path d="M107.333 106.469L105.509 105.539L106.2 104.177L108.028 105.107L107.333 106.469ZM110.572 104.899L109.602 103.725L111.167 102.43L112.137 103.603L110.572 104.899ZM102.777 104.152L100.959 103.227L101.645 101.866L103.463 102.785L102.777 104.152ZM98.2273 101.85L96.4094 100.931L97.0949 99.5688L98.9129 100.488L98.2273 101.85ZM114.483 101.662L113.513 100.488L115.077 99.1928L116.047 100.367L114.483 101.662ZM93.6824 99.5535L91.8644 98.6389L92.5499 97.2771L94.3679 98.1918L93.6824 99.5535ZM118.398 98.4255L117.428 97.2517L118.992 95.956L119.962 97.1298L118.398 98.4255ZM89.1323 97.267L87.3143 96.3524L87.9948 94.9906L89.8128 95.9052L89.1323 97.267ZM7.04344 96.2202L6.25632 94.9144L7.99814 93.8575L8.78525 95.1633L7.04344 96.2202ZM122.313 95.1888L121.343 94.015L122.907 92.7193L123.877 93.893L122.313 95.1888ZM84.5823 94.9855L82.7643 94.076L83.4447 92.7142L85.2627 93.6237L84.5823 94.9855ZM11.4005 93.5831L10.6134 92.2772L12.3552 91.2203L13.1423 92.5262L11.4005 93.5831ZM80.0271 92.7142L78.2041 91.8097L78.8795 90.4429L80.7025 91.3524L80.0271 92.7142ZM126.223 91.9469L125.253 90.7732L126.818 89.4774L127.787 90.6512L126.223 91.9469ZM15.7525 90.951L14.9654 89.6451L16.7072 88.5882L17.4943 89.8941L15.7525 90.951ZM75.472 90.448L73.6439 89.5435L74.3193 88.1766L76.1474 89.0811L75.472 90.448ZM130.139 88.7102L129.169 87.5364L130.733 86.2407L131.703 87.4145L130.139 88.7102ZM20.1045 88.3138L19.3174 87.008L21.0592 85.9561L21.8463 87.262L20.1045 88.3138ZM70.9118 88.197L69.0887 87.2976L69.759 85.9307L71.5872 86.8301L70.9118 88.197ZM66.3414 85.9511L64.5133 85.0568L65.1785 83.6848L67.0067 84.5791L66.3414 85.9511ZM24.4616 85.6818L23.6745 84.3759L25.4214 83.3241L26.2085 84.6299L24.4616 85.6818ZM134.054 85.4734L133.688 85.0314L133.673 85.0517L132.602 84.2895L133.485 83.0446L135.369 84.381L134.054 85.4734ZM61.771 83.7255L59.9378 82.8413L60.598 81.4694L62.4312 82.3535L61.771 83.7255ZM28.8238 83.0598L28.0417 81.754L29.7886 80.7072L30.5707 82.0131L28.8238 83.0598ZM130.118 82.5212L128.463 81.3424L129.346 80.0975L131.002 81.2763L130.118 82.5212ZM57.1854 81.5202C56.5608 81.2204 55.9464 80.9308 55.3471 80.6463L55.9972 79.2692C56.5964 79.5538 57.2108 79.8434 57.8355 80.1432L57.1854 81.5202ZM33.1961 80.443L32.4191 79.132L34.1711 78.0904L34.9481 79.4013L33.1961 80.443ZM125.98 79.5792L124.324 78.4003L125.208 77.1554L126.863 78.3343L125.98 79.5792ZM52.5846 79.3455C51.9498 79.0457 51.3303 78.7611 50.7412 78.4867L51.376 77.1046C51.9701 77.379 52.5897 77.6636 53.2295 77.9634L52.5846 79.3455ZM37.5786 77.8516L36.8067 76.5355C37.4465 76.1595 38.0356 75.8191 38.5739 75.5091L39.3356 76.8302C38.8024 77.1351 38.2133 77.4806 37.5786 77.8516ZM47.9635 77.2266C47.2931 76.9268 46.6736 76.6575 46.1048 76.4136L46.7041 75.0112C47.2779 75.2601 47.9076 75.5345 48.583 75.8343L47.9635 77.2266ZM121.836 76.6372L120.18 75.4583L121.064 74.2134L122.719 75.3923L121.836 76.6372ZM41.9864 75.3465L41.2806 73.9949C41.8544 73.6951 42.0575 73.6189 42.1845 73.5783C42.2708 73.5528 42.3724 73.5376 42.4841 73.5376C42.6822 73.5376 42.997 73.5732 43.8044 73.8526L43.3118 75.2957C42.8599 75.1382 42.6364 75.0874 42.545 75.0721C42.4587 75.1128 42.2911 75.189 41.9864 75.3465ZM117.697 73.6951L116.042 72.5163L116.925 71.2714L118.581 72.4502L117.697 73.6951ZM113.558 70.7531L111.903 69.5742L112.787 68.3293L114.442 69.5082L113.558 70.7531ZM114.026 66.8304L112.715 66.0529L113.746 64.305L115.056 65.0824L114.026 66.8304ZM116.61 62.4554L115.3 61.678L116.331 59.93L117.641 60.7075L116.61 62.4554ZM119.195 58.0805L117.885 57.303L118.916 55.5551L120.226 56.3325L119.195 58.0805ZM121.775 53.7055L120.465 52.9281L121.501 51.1802L122.811 51.9576L121.775 53.7055ZM124.36 49.3306L123.05 48.5532L124.08 46.8052L125.391 47.5826L124.36 49.3306ZM126.944 44.9556L125.634 44.1782L126.665 42.4303L127.975 43.2077L126.944 44.9556ZM129.529 40.5807L128.219 39.8033L129.255 38.0553L130.565 38.8327L129.529 40.5807ZM132.114 36.2057L130.804 35.4283L131.835 33.6804L133.145 34.4578L132.114 36.2057ZM134.694 31.8308L133.384 31.0534L134.415 29.3054L135.725 30.0829L134.694 31.8308Z" fill="#2B88D8"/>
<path d="M237.03 190.207L236.149 190.702L236.895 192.031L237.776 191.536L237.03 190.207Z" fill="#2B88D8"/>
<path d="M241.455 187.723L239.684 188.718L240.43 190.047L242.201 189.051L241.455 187.723Z" fill="#2B88D8"/>
<path d="M245.882 185.233L244.112 186.228L244.858 187.557L246.629 186.561L245.882 185.233Z" fill="#2B88D8"/>
<path d="M250.31 182.743L248.539 183.738L249.285 185.067L251.056 184.072L250.31 182.743Z" fill="#2B88D8"/>
<path d="M254.749 180.252L252.978 181.248L253.724 182.577L255.495 181.582L254.749 180.252Z" fill="#2B88D8"/>
<path d="M259.166 177.768L257.396 178.763L258.142 180.092L259.913 179.097L259.166 177.768Z" fill="#2B88D8"/>
<path d="M263.593 175.278L261.823 176.273L262.569 177.602L264.34 176.607L263.593 175.278Z" fill="#2B88D8"/>
<path d="M268.033 172.787L266.262 173.782L267.008 175.112L268.779 174.116L268.033 172.787Z" fill="#2B88D8"/>
<path d="M272.45 170.303L270.68 171.298L271.426 172.627L273.197 171.632L272.45 170.303Z" fill="#2B88D8"/>
<path d="M276.873 167.816L275.102 168.811L275.848 170.14L277.619 169.144L276.873 167.816Z" fill="#2B88D8"/>
<path d="M280.285 167.657L280.062 167.261L280.037 167.297L278.914 166.494L279.798 165.249L281.9 166.753L280.285 167.657Z" fill="#2B88D8"/>
<path d="M275.669 162.299L274.783 163.539L276.436 164.721L277.322 163.48L275.669 162.299Z" fill="#2B88D8"/>
<path d="M271.524 159.346L270.638 160.586L272.291 161.767L273.177 160.527L271.524 159.346Z" fill="#2B88D8"/>
<path d="M267.399 156.4L266.514 157.64L268.167 158.821L269.052 157.581L267.399 156.4Z" fill="#2B88D8"/>
<path d="M263.263 153.438L262.377 154.679L264.03 155.86L264.916 154.619L263.263 153.438Z" fill="#2B88D8"/>
<path d="M259.143 150.488L258.257 151.729L259.91 152.91L260.796 151.67L259.143 150.488Z" fill="#2B88D8"/>
<path d="M255.011 147.543L254.126 148.784L255.778 149.965L256.664 148.725L255.011 147.543Z" fill="#2B88D8"/>
<path d="M250.878 144.578L249.992 145.818L251.645 147L252.531 145.759L250.878 144.578Z" fill="#2B88D8"/>
<path d="M246.746 141.626L245.86 142.867L247.513 144.048L248.398 142.808L246.746 141.626Z" fill="#2B88D8"/>
<path d="M242.614 138.675L241.728 139.915L243.381 141.097L244.266 139.856L242.614 138.675Z" fill="#2B88D8"/>
<path d="M238.477 135.72L237.592 136.96L239.245 138.142L240.13 136.902L238.477 135.72Z" fill="#2B88D8"/>
<path d="M235.139 128.092L234.427 129.995L235.854 130.53L236.566 128.627L235.139 128.092Z" fill="#2B88D8"/>
<path d="M236.923 123.332L236.21 125.236L237.637 125.77L238.35 123.867L236.923 123.332Z" fill="#2B88D8"/>
<path d="M238.702 118.571L237.989 120.474L239.416 121.009L240.129 119.105L238.702 118.571Z" fill="#2B88D8"/>
<path d="M240.484 113.815L239.771 115.719L241.198 116.253L241.91 114.35L240.484 113.815Z" fill="#2B88D8"/>
<path d="M249.162 107.642L247.196 108.151L247.578 109.627L249.544 109.117L249.162 107.642Z" fill="#2B88D8"/>
<path d="M254.077 106.366L252.111 106.876L252.493 108.352L254.459 107.842L254.077 106.366Z" fill="#2B88D8"/>
<path d="M259.003 105.11L257.037 105.619L257.418 107.095L259.385 106.586L259.003 105.11Z" fill="#2B88D8"/>
<path d="M263.927 103.836L261.961 104.345L262.343 105.821L264.309 105.311L263.927 103.836Z" fill="#2B88D8"/>
<path d="M268.84 102.564L266.874 103.073L267.255 104.549L269.222 104.039L268.84 102.564Z" fill="#2B88D8"/>
<path d="M273.756 101.289L271.789 101.798L272.171 103.274L274.137 102.764L273.756 101.289Z" fill="#2B88D8"/>
<path d="M3.41762 274.8C2.79808 288.728 2.00589 302.884 1.01564 317.173C-2.33089 365.241 13.7314 412.339 29.3265 445.657C144.698 462.191 291.853 476.795 463.202 488.781C561.048 485.839 691.146 500.428 770.29 498.324C832.462 496.673 864.211 470.438 882.873 421.135C604.568 400.779 427.075 369.926 427.075 335.379C427.075 300.384 609.22 269.175 893.791 248.84C895.381 233.012 898.753 219.511 901.815 204.999C523.495 218.942 207.972 243.637 3.41762 274.8Z" fill="url(#paint9_radial)"/>
<path d="M3.76801 266.493C3.10785 283.078 2.20393 300.034 1.01563 317.173C-2.04143 361.136 11.1263 404.286 25.3351 436.826C205.875 462.938 465.467 484.269 774.469 498.172C837.124 495.326 867.898 466.414 885.742 413.086C605.787 392.736 427.075 361.786 427.075 327.127C427.075 292.092 609.657 260.847 894.807 240.512C896.985 225.289 900.596 211.818 903.491 196.681C524.648 210.604 208.632 235.309 3.76801 266.493Z" fill="url(#paint10_radial)"/>
<path d="M864.922 12.964C804.242 23.1722 749.825 27.8673 622.779 6.15513C611.998 4.31064 601.938 2.92346 592.416 1.93262C655.553 159.944 758.539 297.706 888.947 402.771C894.629 383.107 898.89 360.49 902.521 334.972C877.962 237.55 908.005 221.239 908.005 150.874C908 90.0921 885.326 48.3548 864.922 12.964Z" fill="#6E66DF"/>
<path d="M615.034 4.89527C607.133 3.66561 599.617 2.68493 592.406 1.93799C655.543 159.949 758.529 297.712 888.936 402.777C889.536 400.709 890.12 398.615 890.683 396.486C770.889 289.562 675.932 155.727 615.034 4.89527Z" fill="url(#paint11_linear)"/>
<path opacity="0.44" d="M696.519 205.823C709.189 222.337 722.458 238.444 736.312 254.115C784.585 249.221 837.626 244.714 894.787 240.639C896.955 225.416 900.56 211.961 903.455 196.849C832.147 199.466 763.058 202.469 696.519 205.823Z" fill="url(#paint12_radial)"/>
<path d="M709.748 222.631C708.707 221.341 707.671 220.05 706.64 218.754C707.671 220.055 708.712 221.341 709.748 222.631Z" fill="url(#paint13_radial)"/>
<path d="M714.623 228.627C713.597 227.377 712.576 226.127 711.561 224.877C712.576 226.127 713.597 227.377 714.623 228.627Z" fill="url(#paint14_radial)"/>
<path d="M702.689 213.76C702.684 213.76 702.684 213.76 702.679 213.76C703.415 214.7 704.167 215.634 704.908 216.569C704.167 215.634 703.43 214.7 702.689 213.76Z" fill="url(#paint15_radial)"/>
<path d="M719.533 234.562C718.533 233.363 717.533 232.164 716.542 230.964C717.533 232.169 718.533 233.368 719.533 234.562Z" fill="url(#paint16_radial)"/>
<path d="M736.322 254.115C738.561 256.65 740.811 259.176 743.076 261.686C789.236 257.082 839.658 252.829 893.776 248.962C894.06 246.122 894.401 243.353 894.787 240.639C837.632 244.709 784.595 249.221 736.322 254.115Z" fill="url(#paint17_radial)"/>
<path d="M724.505 240.466C723.53 239.318 722.555 238.17 721.59 237.021C722.555 238.175 723.53 239.318 724.505 240.466Z" fill="url(#paint18_radial)"/>
<path d="M734.646 252.209C733.706 251.137 732.762 250.065 731.828 248.993C732.762 250.065 733.701 251.137 734.646 252.209Z" fill="url(#paint19_radial)"/>
<path d="M729.537 246.345C728.583 245.243 727.628 244.135 726.683 243.027C727.628 244.14 728.583 245.243 729.537 246.345Z" fill="url(#paint20_radial)"/>
<path d="M526.674 76.7184C526.654 76.7184 524.729 76.7031 522.845 75.7529C520.367 74.503 519.112 72.2825 519.112 69.1473C519.112 68.9136 518.925 68.7256 518.691 68.7256C518.457 68.7256 518.27 68.9136 518.27 69.1473C518.27 76.6167 511.013 76.7184 510.703 76.7184C510.475 76.7184 510.292 76.9013 510.282 77.1299C510.276 77.3586 510.449 77.5517 510.678 77.5619C510.698 77.5619 512.628 77.6889 514.522 78.7001C517.005 80.0263 518.27 82.1909 518.27 85.1329C518.27 85.3666 518.457 85.5546 518.691 85.5546C518.925 85.5546 519.112 85.3666 519.112 85.1329C519.112 82.3026 520.377 80.1736 522.865 78.8017C524.765 77.7549 526.699 77.5619 526.72 77.5619C526.943 77.5415 527.111 77.3484 527.1 77.1198C527.085 76.8962 526.897 76.7184 526.674 76.7184Z" fill="#3E8EED"/>
<path d="M511.166 70.1078C511.545 70.1078 511.852 69.8007 511.852 69.4218C511.852 69.043 511.545 68.7358 511.166 68.7358C510.788 68.7358 510.481 69.043 510.481 69.4218C510.481 69.8007 510.788 70.1078 511.166 70.1078Z" fill="#3E8EED"/>
<path d="M512.887 71.8302C513.265 71.8302 513.572 71.5231 513.572 71.1442C513.572 70.7654 513.265 70.4583 512.887 70.4583C512.508 70.4583 512.201 70.7654 512.201 71.1442C512.201 71.5231 512.508 71.8302 512.887 71.8302Z" fill="#3E8EED"/>
<path d="M514.613 73.5528C514.992 73.5528 515.299 73.2457 515.299 72.8669C515.299 72.488 514.992 72.1809 514.613 72.1809C514.235 72.1809 513.928 72.488 513.928 72.8669C513.928 73.2457 514.235 73.5528 514.613 73.5528Z" fill="#3E8EED"/>
<path d="M522.921 81.8656C523.3 81.8656 523.607 81.5585 523.607 81.1796C523.607 80.8008 523.3 80.4937 522.921 80.4937C522.542 80.4937 522.236 80.8008 522.236 81.1796C522.236 81.5585 522.542 81.8656 522.921 81.8656Z" fill="#3E8EED"/>
<path d="M524.643 83.588C525.021 83.588 525.328 83.2809 525.328 82.902C525.328 82.5232 525.021 82.2161 524.643 82.2161C524.264 82.2161 523.957 82.5232 523.957 82.902C523.957 83.2809 524.264 83.588 524.643 83.588Z" fill="#3E8EED"/>
<path d="M526.364 85.3107C526.743 85.3107 527.05 85.0035 527.05 84.6247C527.05 84.2458 526.743 83.9387 526.364 83.9387C525.986 83.9387 525.679 84.2458 525.679 84.6247C525.679 85.0035 525.986 85.3107 526.364 85.3107Z" fill="#3E8EED"/>
<path d="M511.165 85.3107C511.544 85.3107 511.851 85.0035 511.851 84.6247C511.851 84.2458 511.544 83.9387 511.165 83.9387C510.787 83.9387 510.48 84.2458 510.48 84.6247C510.48 85.0035 510.787 85.3107 511.165 85.3107Z" fill="#3E8EED"/>
<path d="M512.887 83.588C513.265 83.588 513.572 83.2809 513.572 82.902C513.572 82.5232 513.265 82.2161 512.887 82.2161C512.508 82.2161 512.201 82.5232 512.201 82.902C512.201 83.2809 512.508 83.588 512.887 83.588Z" fill="#3E8EED"/>
<path d="M514.613 81.8656C514.992 81.8656 515.299 81.5585 515.299 81.1796C515.299 80.8008 514.992 80.4937 514.613 80.4937C514.235 80.4937 513.928 80.8008 513.928 81.1796C513.928 81.5585 514.235 81.8656 514.613 81.8656Z" fill="#3E8EED"/>
<path d="M522.921 73.5531C523.3 73.5531 523.607 73.246 523.607 72.8671C523.607 72.4883 523.3 72.1812 522.921 72.1812C522.542 72.1812 522.236 72.4883 522.236 72.8671C522.236 73.246 522.542 73.5531 522.921 73.5531Z" fill="#3E8EED"/>
<path d="M524.643 71.8302C525.021 71.8302 525.328 71.5231 525.328 71.1442C525.328 70.7654 525.021 70.4583 524.643 70.4583C524.264 70.4583 523.957 70.7654 523.957 71.1442C523.957 71.5231 524.264 71.8302 524.643 71.8302Z" fill="#3E8EED"/>
<path d="M526.364 70.1078C526.743 70.1078 527.05 69.8007 527.05 69.4218C527.05 69.043 526.743 68.7358 526.364 68.7358C525.986 68.7358 525.679 69.043 525.679 69.4218C525.679 69.8007 525.986 70.1078 526.364 70.1078Z" fill="#3E8EED"/>
<path d="M355.158 120.026C356.428 119.939 357.372 119.767 358.789 119.548C359.515 119.436 359.515 118.379 358.789 118.273C357.418 118.064 356.529 117.963 355.219 117.922C354.884 117.912 354.615 117.658 354.589 117.328C354.503 116.078 354.336 114.685 354.117 113.298C354.005 112.572 352.954 112.577 352.843 113.298C352.639 114.665 352.533 116.027 352.492 117.338C352.482 117.673 352.223 117.948 351.883 117.968C350.623 118.034 349.466 118.151 348.46 118.283C347.719 118.379 347.714 119.452 348.455 119.563C349.623 119.731 350.882 119.899 351.949 119.995C352.269 120.026 352.518 120.28 352.533 120.6C352.599 121.891 352.716 123.08 352.853 124.101C352.949 124.843 354.021 124.853 354.132 124.106C354.3 122.932 354.468 121.672 354.564 120.61C354.589 120.295 354.838 120.046 355.158 120.026Z" fill="#3E8EED"/>
<path d="M421.926 164.72C421.926 164.72 420.083 165.782 418.828 167.82C418.265 166.224 415.731 164.72 415.731 164.72C415.731 164.72 417.889 163.658 418.828 161.621C419.895 163.592 421.926 164.72 421.926 164.72Z" fill="#3E8EED"/>
<path d="M467.97 122.18C468.926 122.18 469.702 121.404 469.702 120.448C469.702 119.491 468.926 118.715 467.97 118.715C467.014 118.715 466.238 119.491 466.238 120.448C466.238 121.404 467.014 122.18 467.97 122.18Z" fill="#3E8EED"/>
<path d="M56.9366 225.279C56.9366 225.279 55.0932 226.341 53.8389 228.378C53.2753 226.783 50.7412 225.279 50.7412 225.279C50.7412 225.279 52.8995 224.217 53.8389 222.179C54.9054 224.15 56.9366 225.279 56.9366 225.279Z" fill="#3E8EED"/>
<path d="M461.47 101.246C461.47 101.246 459.627 102.308 458.372 104.345C457.809 102.75 455.275 101.246 455.275 101.246C455.275 101.246 457.433 100.184 458.372 98.146C459.439 100.118 461.47 101.246 461.47 101.246Z" fill="#3E8EED"/>
<path d="M444.869 108.654C445.716 108.654 446.403 107.967 446.403 107.119C446.403 106.272 445.716 105.585 444.869 105.585C444.022 105.585 443.336 106.272 443.336 107.119C443.336 107.967 444.022 108.654 444.869 108.654Z" fill="#3E8EED"/>
<path d="M265.107 493.705C267.314 493.705 269.103 491.915 269.103 489.706C269.103 487.498 267.314 485.708 265.107 485.708C262.899 485.708 261.11 487.498 261.11 489.706C261.11 491.915 262.899 493.705 265.107 493.705Z" fill="#3E8EED"/>
<path d="M249.212 487.003C250.255 487.003 251.101 486.157 251.101 485.113C251.101 484.069 250.255 483.223 249.212 483.223C248.169 483.223 247.323 484.069 247.323 485.113C247.323 486.157 248.169 487.003 249.212 487.003Z" fill="#3E8EED"/>
<path d="M48.0549 155.752C48.8962 155.752 49.5783 155.07 49.5783 154.228C49.5783 153.386 48.8962 152.703 48.0549 152.703C47.2135 152.703 46.5314 153.386 46.5314 154.228C46.5314 155.07 47.2135 155.752 48.0549 155.752Z" fill="#3E8EED"/>
<path d="M41.956 157.724C41.956 157.724 38.7364 159.583 36.5528 163.13C35.5676 160.345 31.1496 157.724 31.1496 157.724C31.1496 157.724 34.9176 155.864 36.5528 152.317C38.4063 155.757 41.956 157.724 41.956 157.724Z" fill="#3E8EED"/>
<path d="M54.753 158.445C55.2466 158.445 55.6468 158.045 55.6468 157.551C55.6468 157.057 55.2466 156.656 54.753 156.656C54.2594 156.656 53.8593 157.057 53.8593 157.551C53.8593 158.045 54.2594 158.445 54.753 158.445Z" fill="#3E8EED"/>
<path d="M71.9173 129.528C72.7362 129.528 73.4001 128.863 73.4001 128.044C73.4001 127.225 72.7362 126.56 71.9173 126.56C71.0983 126.56 70.4344 127.225 70.4344 128.044C70.4344 128.863 71.0983 129.528 71.9173 129.528Z" fill="#3E8EED"/>
<path d="M62.6344 179.395C63.529 179.395 64.2543 178.669 64.2543 177.774C64.2543 176.879 63.529 176.153 62.6344 176.153C61.7397 176.153 61.0144 176.879 61.0144 177.774C61.0144 178.669 61.7397 179.395 62.6344 179.395Z" fill="#3E8EED"/>
<path d="M574.896 19.2751C576.352 19.2751 577.532 18.0944 577.532 16.6379C577.532 15.1814 576.352 14.0007 574.896 14.0007C573.441 14.0007 572.261 15.1814 572.261 16.6379C572.261 18.0944 573.441 19.2751 574.896 19.2751Z" fill="#3E8EED"/>
<path d="M110.801 474.793C112.018 474.793 113.005 473.806 113.005 472.588C113.005 471.37 112.018 470.382 110.801 470.382C109.584 470.382 108.597 471.37 108.597 472.588C108.597 473.806 109.584 474.793 110.801 474.793Z" fill="#3E8EED"/>
<path d="M791.065 392.792C792.038 392.792 792.827 392.002 792.827 391.028C792.827 390.055 792.038 389.265 791.065 389.265C790.091 389.265 789.302 390.055 789.302 391.028C789.302 392.002 790.091 392.792 791.065 392.792Z" fill="#3E8EED"/>
<path d="M696.788 357.391C697.537 357.391 698.144 356.783 698.144 356.034C698.144 355.285 697.537 354.677 696.788 354.677C696.039 354.677 695.432 355.285 695.432 356.034C695.432 356.783 696.039 357.391 696.788 357.391Z" fill="#3E8EED"/>
<path d="M461.115 78.4308C461.911 78.4308 462.557 77.7847 462.557 76.9877C462.557 76.1908 461.911 75.5447 461.115 75.5447C460.318 75.5447 459.672 76.1908 459.672 76.9877C459.672 77.7847 460.318 78.4308 461.115 78.4308Z" fill="#3E8EED"/>
<path d="M823.677 384.555C824.946 384.469 825.891 384.296 827.308 384.078C828.034 383.966 828.034 382.909 827.308 382.802C825.936 382.594 825.048 382.492 823.738 382.452C823.402 382.441 823.133 382.187 823.108 381.857C823.022 380.607 822.854 379.215 822.636 377.828C822.524 377.101 821.473 377.106 821.361 377.828C821.158 379.195 821.051 380.556 821.011 381.867C821 382.203 820.741 382.477 820.406 382.497C819.147 382.563 817.989 382.68 816.984 382.812C816.242 382.909 816.237 383.981 816.979 384.093C818.147 384.261 819.406 384.428 820.472 384.525C820.792 384.555 821.041 384.809 821.056 385.129C821.122 386.42 821.239 387.609 821.371 388.63C821.468 389.372 822.539 389.382 822.651 388.636C822.818 387.462 822.986 386.202 823.082 385.14C823.113 384.825 823.362 384.576 823.677 384.555Z" fill="#3E8EED"/>
<path d="M42.6009 77.3638C43.9695 77.3638 45.0791 76.2537 45.0791 74.8842C45.0791 73.5147 43.9695 72.4045 42.6009 72.4045C41.2322 72.4045 40.1227 73.5147 40.1227 74.8842C40.1227 76.2537 41.2322 77.3638 42.6009 77.3638Z" fill="#3E8EED"/>
<path d="M106.875 107.826C108.244 107.826 109.354 106.716 109.354 105.346C109.354 103.977 108.244 102.866 106.875 102.866C105.507 102.866 104.397 103.977 104.397 105.346C104.397 106.716 105.507 107.826 106.875 107.826Z" fill="#3E8EED"/>
<path d="M133.805 86.5557C135.174 86.5557 136.283 85.4456 136.283 84.0761C136.283 82.7066 135.174 81.5964 133.805 81.5964C132.436 81.5964 131.327 82.7066 131.327 84.0761C131.327 85.4456 132.436 86.5557 133.805 86.5557Z" fill="#3E8EED"/>
<path d="M112.69 72.0894C114.059 72.0894 115.168 70.9792 115.168 69.6098C115.168 68.2403 114.059 67.1301 112.69 67.1301C111.321 67.1301 110.212 68.2403 110.212 69.6098C110.212 70.9792 111.321 72.0894 112.69 72.0894Z" fill="#3E8EED"/>
<path d="M137.395 28.2637C138.764 28.2637 139.874 27.1536 139.874 25.7841C139.874 24.4146 138.764 23.3044 137.395 23.3044C136.027 23.3044 134.917 24.4146 134.917 25.7841C134.917 27.1536 136.027 28.2637 137.395 28.2637Z" fill="#3E8EED"/>
<path d="M279.204 102.933C280.572 102.933 281.682 101.823 281.682 100.453C281.682 99.0836 280.572 97.9734 279.204 97.9734C277.835 97.9734 276.726 99.0836 276.726 100.453C276.726 101.823 277.835 102.933 279.204 102.933Z" fill="#3E8EED"/>
<path d="M280.29 168.963C281.659 168.963 282.769 167.853 282.769 166.484C282.769 165.114 281.659 164.004 280.29 164.004C278.922 164.004 277.812 165.114 277.812 166.484C277.812 167.853 278.922 168.963 280.29 168.963Z" fill="#3E8EED"/>
<path d="M243.093 113.024C244.461 113.024 245.571 111.914 245.571 110.544C245.571 109.175 244.461 108.064 243.093 108.064C241.724 108.064 240.615 109.175 240.615 110.544C240.615 111.914 241.724 113.024 243.093 113.024Z" fill="#3E8EED"/>
<path d="M234.587 136.164C235.955 136.164 237.065 135.053 237.065 133.684C237.065 132.315 235.955 131.204 234.587 131.204C233.218 131.204 232.109 132.315 232.109 133.684C232.109 135.053 233.218 136.164 234.587 136.164Z" fill="#3E8EED"/>
<path d="M491.782 6.46509C463.466 11.648 432.773 19.4273 392.056 27.8673C341.772 38.2889 313.715 33.0806 284.394 25.3724C300.502 65.2855 339.583 93.4508 385.241 93.4508C437.826 93.4508 481.691 56.0986 491.782 6.46509Z" fill="url(#paint21_linear)"/>
<path d="M495.479 55.7632C496.847 55.7632 497.957 54.6531 497.957 53.2836C497.957 51.9141 496.847 50.804 495.479 50.804C494.11 50.804 493 51.9141 493 53.2836C493 54.6531 494.11 55.7632 495.479 55.7632Z" fill="#3E8EED"/>
<path d="M551.019 59.188C552.387 59.188 553.497 58.0779 553.497 56.7084C553.497 55.3389 552.387 54.2288 551.019 54.2288C549.65 54.2288 548.541 55.3389 548.541 56.7084C548.541 58.0779 549.65 59.188 551.019 59.188Z" fill="#3E8EED"/>
<path d="M742.258 433.762C742.426 438.731 686.302 444.661 616.898 447.013C547.494 449.366 491.101 447.242 490.928 442.273C490.756 437.303 546.885 431.373 616.289 429.021C685.692 426.668 742.091 428.792 742.258 433.762Z" fill="url(#paint22_radial)"/>
<path d="M65.082 406.206C64.9805 401.237 129.453 395.881 209.089 394.245C288.725 392.609 353.366 395.312 353.467 400.282C353.569 405.251 289.096 410.607 209.46 412.243C129.824 413.879 65.1887 411.176 65.082 406.206Z" fill="url(#paint23_radial)"/>
<path d="M145.957 491.332C146.852 491.332 147.577 490.606 147.577 489.711C147.577 488.816 146.852 488.09 145.957 488.09C145.063 488.09 144.337 488.816 144.337 489.711C144.337 490.606 145.063 491.332 145.957 491.332Z" fill="#3E8EED"/>
<path d="M680.467 359.479C680.467 359.479 677.247 361.339 675.064 364.886C674.078 362.101 669.66 359.479 669.66 359.479C669.66 359.479 673.428 357.619 675.064 354.073C676.917 357.513 680.467 359.479 680.467 359.479Z" fill="#3E8EED"/>
<path d="M330.808 154.167C330.808 154.167 328.965 155.229 327.711 157.266C327.147 155.671 324.613 154.167 324.613 154.167C324.613 154.167 326.771 153.105 327.711 151.067C328.777 153.039 330.808 154.167 330.808 154.167Z" fill="#3E8EED"/>
<path d="M307.951 198.978C308.798 198.978 309.485 198.291 309.485 197.443C309.485 196.596 308.798 195.909 307.951 195.909C307.104 195.909 306.418 196.596 306.418 197.443C306.418 198.291 307.104 198.978 307.951 198.978Z" fill="#3E8EED"/>
<path d="M319.21 405.936C363.066 403.796 398.452 398.638 398.246 394.414C398.04 390.19 362.321 388.5 318.465 390.639C274.608 392.779 239.223 397.938 239.429 402.162C239.635 406.386 275.354 408.076 319.21 405.936Z" fill="#594539"/>
<path d="M382.276 447.054C374.862 440.774 401.436 392.207 423.541 394.336C439.71 395.891 438.293 387.355 455.178 380.8C481.118 370.729 508.149 445.997 508.149 445.997C508.149 445.997 453.04 455.464 382.276 447.054Z" fill="#9B643D"/>
<path d="M476.055 334.8C477.014 336.446 478.903 337.437 480.909 337.158L526.41 330.816C528.177 330.567 529.67 329.368 530.29 327.691L549.353 276.056C550.277 273.54 548.998 270.751 546.484 269.826C543.975 268.896 541.187 270.182 540.258 272.697L522.2 321.609L479.574 327.549C476.923 327.92 475.074 330.369 475.44 333.021C475.531 333.672 475.75 334.271 476.055 334.8Z" fill="#72ACF1"/>
<path d="M443.676 341.502C443.986 342.31 444.722 342.889 445.54 342.894L455.483 342.93C455.62 342.93 455.757 342.914 455.889 342.879L468.91 339.662C469.9 339.418 470.458 338.321 470.154 337.218C469.854 336.136 468.803 335.414 467.808 335.658L454.985 338.824L445.25 338.788C444.214 338.783 443.442 339.698 443.519 340.831C443.544 341.07 443.595 341.293 443.676 341.502Z" fill="#2B88D8"/>
<path d="M443.818 333.687C444.092 334.413 444.722 334.967 445.469 335.064L456.981 336.563C457.108 336.578 457.235 336.583 457.357 336.573L469.082 335.511C470.108 335.419 470.799 334.429 470.636 333.301C470.469 332.168 469.504 331.329 468.483 331.426L456.94 332.472L445.616 330.994C444.58 330.857 443.706 331.659 443.666 332.787C443.661 333.102 443.712 333.407 443.818 333.687Z" fill="#2B88D8"/>
<path d="M487.44 328.702L487.623 335.287C487.653 336.354 486.902 337.193 485.927 337.178L480.848 337.106C480.681 337.106 480.513 337.127 480.351 337.178L468.417 340.826C467.269 341.177 466.045 340.186 465.985 338.849L465.268 322.721C465.208 321.36 466.391 320.44 467.589 320.923L480.325 326.034C480.483 326.095 480.645 326.136 480.813 326.156L485.647 326.629C486.617 326.72 487.409 327.635 487.44 328.702Z" fill="#2B88D8"/>
<path d="M534.504 438.98C532.163 438.98 530.056 437.349 529.543 434.966L513.811 361.796C513.44 360.069 513.994 358.27 515.268 357.05C516.548 355.831 518.366 355.363 520.072 355.816L572.337 364.967C575.049 365.683 575.846 372.929 575.13 375.643C574.414 378.356 571.631 379.977 568.924 379.255L526.76 368.244L539.476 432.832C540.065 435.576 538.323 438.279 535.581 438.868C535.215 438.945 534.855 438.98 534.504 438.98Z" fill="#3E8EED"/>
<path d="M577.872 447.913C576.724 447.913 575.592 447.522 574.678 446.78C573.408 445.749 572.708 444.173 572.804 442.537L576.77 373.905C576.933 371.105 579.33 368.966 582.133 369.123C584.931 369.286 593.401 371.989 593.239 374.789L584.423 433.752L646.819 418.64C649.525 417.898 652.318 419.489 653.06 422.197C653.801 424.905 652.212 427.7 649.505 428.442L579.213 447.725C578.771 447.857 578.324 447.913 577.872 447.913Z" fill="#3E8EED"/>
<path d="M585.987 384.499C605.308 384.499 620.971 368.827 620.971 349.494C620.971 330.162 605.308 314.49 585.987 314.49C566.666 314.49 551.004 330.162 551.004 349.494C551.004 368.827 566.666 384.499 585.987 384.499Z" fill="#605D5A"/>
<path d="M543.518 328.158H628.461L631.229 303.021H540.746L543.518 328.158Z" fill="#3E8EED"/>
<path d="M550.862 326.063L569.027 326.062L569.027 307.887L550.862 307.887L550.862 326.063Z" fill="white"/>
<path d="M585.987 293.611C605.308 293.611 620.971 277.939 620.971 258.606C620.971 239.274 605.308 223.602 585.987 223.602C566.666 223.602 551.004 239.274 551.004 258.606C551.004 277.939 566.666 293.611 585.987 293.611Z" fill="url(#paint24_radial)"/>
<path d="M534.362 302.838L530.782 271.36C530.356 267.62 533.281 264.343 537.044 264.343H633.854C637.617 264.343 640.542 267.62 640.116 271.36L636.535 302.838C636.175 306.024 633.478 308.433 630.274 308.433H540.624C537.419 308.433 534.728 306.029 534.362 302.838Z" fill="url(#paint25_radial)"/>
<path d="M543.909 324.678H626.999C630.761 324.678 633.687 327.955 633.26 331.695L629.599 363.905C628.598 366.1 626.394 367.604 623.865 367.604H547.175C544.468 367.604 542.132 365.887 541.248 363.432L537.638 331.69C537.221 327.955 540.146 324.678 543.909 324.678Z" fill="url(#paint26_radial)"/>
<path d="M568.726 238.856H557.108C554.304 242.956 552.349 247.682 551.496 252.778H568.726C571.55 252.778 573.84 250.487 573.84 247.662V243.978C573.84 241.147 571.55 238.856 568.726 238.856Z" fill="#605D5A"/>
<path d="M562.572 251.051C565.491 251.051 567.858 248.682 567.858 245.761C567.858 242.84 565.491 240.471 562.572 240.471C559.652 240.471 557.285 242.84 557.285 245.761C557.285 248.682 559.652 251.051 562.572 251.051Z" fill="white"/>
<path d="M583.346 251.051C586.266 251.051 588.633 248.682 588.633 245.761C588.633 242.84 586.266 240.471 583.346 240.471C580.427 240.471 578.06 242.84 578.06 245.761C578.06 248.682 580.427 251.051 583.346 251.051Z" fill="white"/>
<path d="M608.758 269.877C607.194 269.775 605.609 270.436 604.589 271.782C602.969 273.911 603.38 276.955 605.513 278.581L643.706 307.661L612.409 328.519C610.18 330.003 609.58 333.016 611.063 335.247C612.546 337.472 615.557 338.077 617.787 336.593L654.746 311.959C656.051 311.091 656.853 309.642 656.904 308.077C656.955 306.507 656.244 305.013 654.995 304.063L611.388 270.857C610.596 270.258 609.682 269.938 608.758 269.877Z" fill="url(#paint27_linear)"/>
<path d="M590.669 362.782C591.395 363.25 592.335 363.28 592.995 362.792L601.019 356.918C601.13 356.837 601.232 356.74 601.318 356.639L609.89 346.319C610.54 345.531 610.342 344.322 609.443 343.611C608.56 342.914 607.285 342.96 606.63 343.748L598.19 353.91L590.334 359.662C589.501 360.272 589.42 361.471 590.151 362.335C590.309 362.513 590.481 362.665 590.669 362.782Z" fill="#2B88D8"/>
<path d="M583.25 345.363C584.027 345.861 585.027 345.856 585.682 345.287C586.881 344.251 589.263 340.8 590.273 339.307L600.643 336.761C601.689 336.502 602.222 335.465 601.841 334.434C601.455 333.407 600.303 332.782 599.256 333.036L588.216 335.75C587.78 335.856 587.409 336.11 587.175 336.466C585.825 338.499 583.58 341.664 582.813 342.325C582.036 342.996 582.046 344.205 582.839 345.023C582.966 345.155 583.103 345.267 583.25 345.363Z" fill="#2B88D8"/>
<path d="M618.295 326.487L622.347 331.675C623.002 332.518 622.895 333.636 622.103 334.205L617.975 337.162C617.838 337.259 617.716 337.381 617.619 337.513L610.18 347.538C609.464 348.504 607.889 348.433 607.052 347.391L596.905 334.835C596.047 333.773 596.458 332.335 597.708 332.01L610.987 328.56C611.15 328.519 611.307 328.453 611.449 328.367L615.618 325.877C616.456 325.384 617.64 325.648 618.295 326.487Z" fill="#2B88D8"/>
<path d="M603.268 285.705C610.412 285.705 616.202 279.91 616.202 272.763C616.202 265.615 610.412 259.821 603.268 259.821C596.125 259.821 590.334 265.615 590.334 272.763C590.334 279.91 596.125 285.705 603.268 285.705Z" fill="#605D5A"/>
<path d="M154.905 253.093L134.115 339.576L148.4 340.044L169.185 253.566L154.905 253.093Z" fill="url(#paint28_linear)"/>
<path d="M149.817 274.267L164.122 274.617L164.498 273.062L150.187 272.707L149.817 274.267Z" fill="#A08BE8"/>
<path d="M146.297 358.29C146.572 373.539 161.105 386.628 162.075 387.228C163.045 387.827 130.596 388.132 130.596 388.132C130.596 388.132 125.497 367.05 131.561 357.756C132.124 356.893 146.297 358.29 146.297 358.29Z" fill="#A08BE8"/>
<path d="M132.383 386.064L160.76 386.191C160.76 386.191 166.498 390.302 167.631 393.264C168.499 395.53 167.336 400.617 166.742 402.883C166.575 403.513 165.909 404.011 165.229 404.011L137.842 403.965C136.964 403.965 136.395 403.299 136.573 402.486C137.192 399.677 137.929 393.686 137.141 391.978C135.973 389.428 132.383 386.064 132.383 386.064Z" fill="#D0C5F3"/>
<path d="M130.144 355.673C121.348 372.624 117.855 399.504 117.773 400.922C117.662 402.893 117.662 404.27 120.683 404.27C124.446 404.27 140.6 404.27 140.6 404.27L142.083 356.766L130.144 355.673Z" fill="#8065E0"/>
<path d="M146.297 358.29C145.82 366.608 152.32 378.3 166.722 390.536C168.403 391.963 169.109 393.472 168.662 395.602L167.235 402.41C167.022 403.416 165.97 404.235 164.884 404.235H137.649C136.882 404.235 136.38 403.655 136.527 402.944L138.177 395.083C138.69 392.634 138.421 391.374 136.09 389.575C130.25 385.063 129.153 369.845 131.286 359.022C133.414 348.199 146.297 358.29 146.297 358.29Z" fill="#A08BE8"/>
<path d="M168.758 393.925C168.814 394.443 168.789 394.992 168.662 395.602L167.235 402.41C167.022 403.417 165.97 404.235 164.884 404.235H137.649C136.882 404.235 136.38 403.655 136.527 402.944L138.177 395.083C138.264 394.662 138.33 394.28 138.365 393.925H168.758Z" fill="#D0C5F3"/>
<path d="M150.858 338.702H133.394C131.236 338.702 129.143 340.323 128.727 342.325L125.782 356.38C125.36 358.382 126.772 360.003 128.93 360.003H146.394C148.552 360.003 150.644 358.382 151.061 356.38L154.006 342.325C154.428 340.323 153.016 338.702 150.858 338.702Z" fill="url(#paint29_radial)"/>
<path d="M138.157 323.275L137.771 324.835L152.051 325.303L152.437 323.743L138.157 323.275Z" fill="#A08BE8"/>
<path d="M141.712 307.981L156.002 308.403L156.378 306.843L142.088 306.421L141.712 307.981Z" fill="#A08BE8"/>
<path d="M145.764 291.126L160.064 291.513L160.44 289.953L146.135 289.566L145.764 291.126Z" fill="#A08BE8"/>
<path d="M233.241 321.162C231.946 319.221 203 273.149 195.119 242.463L206.317 239.77C213.528 267.854 243.854 313.906 244.154 314.358L233.241 321.162Z" fill="url(#paint30_linear)"/>
<path d="M242.453 338.021C249.372 338.021 254.981 332.409 254.981 325.486C254.981 318.563 249.372 312.95 242.453 312.95C235.534 312.95 229.925 318.563 229.925 325.486C229.925 332.409 235.534 338.021 242.453 338.021Z" fill="url(#paint31_radial)"/>
<path d="M248.1 333.235C247.125 330.135 248.841 326.832 251.939 325.852L257.479 324.104C260.577 323.128 263.878 324.846 264.858 327.945C265.833 331.045 264.116 334.347 261.019 335.328L255.478 337.076C252.381 338.052 249.075 336.334 248.1 333.235Z" fill="#D0C5F3"/>
<path d="M127.066 251.605L112.888 239.796C110.359 237.692 106.606 238.038 104.504 240.563C102.402 243.093 102.747 246.848 105.271 248.952L119.449 260.761C121.978 262.865 125.731 262.519 127.833 259.994C129.936 257.463 129.595 253.708 127.066 251.605Z" fill="#D0C5F3"/>
<path d="M199.192 355.246L186.187 351.867L187.38 346.847C190.412 334.134 193.545 320.984 198.628 297.722C200.289 290.12 190.046 278.906 177.076 264.714C171.744 258.881 181.505 248.993 186.74 254.719C203.153 272.681 215.01 285.664 211.7 300.831C206.586 324.236 203.437 337.452 200.39 350.236L199.192 355.246Z" fill="url(#paint32_linear)"/>
<path d="M201.792 352.919C201.183 369.936 213.863 387.949 214.721 388.838C215.579 389.733 185.608 382.36 185.608 382.36C185.608 382.36 182.094 357.711 188.218 348.819C188.787 347.995 201.792 352.919 201.792 352.919Z" fill="#A08BE8"/>
<path d="M187.38 380.495L213.573 387.385C213.573 387.385 218.641 393.32 219.52 396.882C220.19 399.606 218.834 404.987 218.159 407.37C217.971 408.035 217.326 408.427 216.696 408.259L191.412 401.694C190.6 401.481 190.112 400.612 190.325 399.748C191.057 396.77 192.072 390.287 191.448 388.198C190.503 385.083 187.38 380.495 187.38 380.495Z" fill="#D0C5F3"/>
<path d="M187.03 346.171C177.955 362.929 173.207 391.984 173.054 393.544C172.841 395.708 172.76 397.243 175.553 397.959C179.026 398.854 193.941 402.695 193.941 402.695L197.993 350.226L187.03 346.171Z" fill="#8065E0"/>
<path d="M201.792 352.919C200.878 362.055 206.225 376.598 218.824 393.625C220.297 395.617 220.861 397.461 220.327 399.722L218.626 406.953C218.372 408.02 217.357 408.681 216.351 408.422L191.209 401.948C190.498 401.765 190.071 401.003 190.249 400.251L192.214 391.902C192.829 389.301 192.651 387.837 190.6 385.282C185.46 378.879 185.313 361.695 187.893 350.17C190.473 338.636 201.792 352.919 201.792 352.919Z" fill="#A08BE8"/>
<path d="M220.515 397.878C220.535 398.467 220.485 399.072 220.332 399.717L218.631 406.948C218.377 408.015 217.362 408.676 216.356 408.416L191.214 401.943C190.503 401.76 190.077 400.998 190.254 400.246L192.22 391.897C192.326 391.45 192.402 391.044 192.458 390.652L220.515 397.878Z" fill="#D0C5F3"/>
<path d="M207.215 332.249L189.726 327.747C188.111 327.33 186.471 328.392 186.065 330.115L182.205 346.491C181.799 348.214 182.779 349.947 184.399 350.363L201.888 354.865C203.503 355.282 205.143 354.22 205.55 352.497L209.409 336.121C209.81 334.398 208.83 332.665 207.215 332.249Z" fill="url(#paint33_radial)"/>
<path d="M198.567 297.996C202.32 299.18 207.743 300.903 211.425 302.071C211.517 301.66 211.603 301.253 211.694 300.831C212.603 296.66 212.365 292.656 211.202 288.667L198.689 294.592C198.852 295.694 198.841 296.736 198.623 297.717C198.608 297.818 198.588 297.905 198.567 297.996Z" fill="#A08BE8"/>
<path d="M178.828 266.63L189.843 258.119C189.472 257.712 189.096 257.3 188.721 256.889L177.706 265.4C178.082 265.817 178.453 266.223 178.828 266.63Z" fill="#A08BE8"/>
<path d="M207.815 318.347L194.946 314.343C194.82 314.901 194.698 315.455 194.571 316.004L207.439 320.008C207.566 319.459 207.688 318.905 207.815 318.347Z" fill="#A08BE8"/>
<path d="M202.417 272.808C202.081 272.371 201.741 271.929 201.391 271.487L189.777 279.089C190.137 279.526 190.488 279.963 190.828 280.395L202.417 272.808Z" fill="#A08BE8"/>
<path d="M233.998 242.59C241.351 226.783 240.985 213.023 240.985 213.023L244.89 213.739L245.002 213.683C244.977 182.2 222.531 154.238 190.473 148.374C154.357 141.763 119.723 165.701 113.117 201.844C106.51 237.987 130.433 272.636 166.554 279.246C195.053 284.46 222.623 270.654 236.232 246.843C236.689 245.802 237.019 243.856 233.998 242.59Z" fill="url(#paint34_radial)"/>
<path d="M235.831 247.54C235.831 247.54 238.279 244.384 233.998 242.591C241.265 226.976 240.995 213.368 240.985 213.038L173.141 200.625C173.141 200.625 168.946 199.41 168.23 203.313C167.514 207.22 165.661 218.287 163.426 230.497C162.969 233.007 164.802 234.593 166.417 234.892L236.09 247.641C235.927 247.575 235.831 247.54 235.831 247.54Z" fill="url(#paint35_radial)"/>
<path d="M201.436 236.579C201.436 236.579 208.901 232.606 210.349 231.884C211.796 231.163 212.918 231.315 213.903 232.535C214.883 233.754 220.48 240.065 220.48 240.065L201.436 236.579Z" fill="#A08BE8"/>
<path d="M235.831 247.539C235.831 247.539 238.279 244.384 233.998 242.59C234.008 242.575 234.013 242.56 234.018 242.539L167.301 230.334C165.747 230.05 163.919 228.759 164.02 227.219C163.827 228.297 163.629 229.394 163.426 230.492C163.01 232.768 164.482 234.282 165.965 234.765C166.113 234.811 166.265 234.857 166.417 234.882L170.977 235.715L236.09 247.631C235.927 247.575 235.831 247.539 235.831 247.539Z" fill="url(#paint36_radial)"/>
<path d="M228.838 257.26L116.072 236.625C117.819 241.391 120.099 245.924 122.851 250.151L217.712 267.509C221.785 264.531 225.522 261.096 228.838 257.26Z" fill="url(#paint37_radial)"/>
<path d="M215.764 251.362L194.658 247.5L191.244 266.179L212.35 270.041L215.764 251.362Z" fill="#512BD4"/>
<path d="M195.256 146.646L182.632 144.253L186.872 131.626L195.932 133.344L195.256 146.646Z" fill="#D0C5F3"/>
<path d="M198.582 155.488C199.151 155.594 199.7 155.188 199.745 154.614C200.213 148.491 196.018 142.866 189.848 141.697C183.678 140.529 177.716 144.223 175.913 150.091C175.741 150.645 176.106 151.225 176.675 151.331L198.582 155.488Z" fill="url(#paint38_radial)"/>
<path d="M194.157 220.659C194.993 215.899 193.376 211.638 190.548 211.141C187.719 210.644 184.749 214.1 183.914 218.859C183.079 223.619 184.695 227.88 187.524 228.377C190.353 228.874 193.322 225.418 194.157 220.659Z" fill="#512BD4"/>
<path d="M189.823 215.441C187.598 216.95 187.024 219.979 188.533 222.199C189.558 223.713 191.29 224.46 192.991 224.308C193.519 223.231 193.931 221.996 194.164 220.649C194.545 218.49 194.413 216.437 193.895 214.786C192.56 214.405 191.067 214.593 189.823 215.441Z" fill="#8065E0"/>
<path d="M232.318 227.509C233.295 222.777 231.806 218.47 228.994 217.888C226.181 217.307 223.11 220.673 222.133 225.405C221.157 230.138 222.645 234.445 225.458 235.026C228.27 235.607 231.342 232.242 232.318 227.509Z" fill="#512BD4"/>
<path d="M228.041 221.89C225.817 223.399 225.243 226.427 226.751 228.648C227.787 230.172 229.529 230.919 231.24 230.757C231.713 229.786 232.088 228.683 232.332 227.499C232.809 225.177 232.693 222.967 232.124 221.239C230.778 220.853 229.285 221.046 228.041 221.89Z" fill="#8065E0"/>
<path d="M193.738 135.305C200.57 135.305 206.108 129.763 206.108 122.927C206.108 116.091 200.57 110.549 193.738 110.549C186.906 110.549 181.367 116.091 181.367 122.927C181.367 129.763 186.906 135.305 193.738 135.305Z" fill="url(#paint39_radial)"/>
<path d="M189.878 156.753C189.904 157.978 190.747 159.075 191.991 159.375C208.292 163.298 221.82 174.476 228.996 189.217C230.931 193.196 236.1 191.234 233.983 186.875C226.106 170.64 211.217 158.328 193.281 154.014C191.803 153.659 190.31 154.568 189.955 156.052C189.899 156.286 189.873 156.519 189.878 156.753Z" fill="url(#paint40_radial)"/>
<path d="M172.826 271.899C172.699 270.685 171.765 269.658 170.5 269.465C149.456 266.244 131.875 250.995 125.721 230.614C125.279 229.156 123.74 228.332 122.283 228.774C120.825 229.217 120.003 230.756 120.444 232.214C127.214 254.618 146.536 271.381 169.667 274.922C171.17 275.151 172.577 274.119 172.811 272.615C172.846 272.366 172.851 272.133 172.826 271.899Z" fill="url(#paint41_radial)"/>
<path d="M315.858 375.993C315.178 375.993 314.487 375.82 313.852 375.46L73.9689 238.759C72.0188 237.646 71.3384 235.167 72.4505 233.215C73.5626 231.264 76.0408 230.583 77.9908 231.696L317.869 368.392C319.819 369.504 320.5 371.984 319.387 373.935C318.641 375.251 317.27 375.993 315.858 375.993Z" fill="#9B643D"/>
<path d="M92.4687 247.311L91.5394 259.689C91.3159 262.986 93.8042 265.847 97.1051 266.071C100.401 266.294 103.26 263.804 103.483 260.502L104.438 247.809L92.4687 247.311Z" fill="#D0C5F3"/>
<path d="M96.0285 248.886L96.0996 266.005C96.125 269.313 98.8266 271.97 102.132 271.945C105.438 271.919 108.094 269.216 108.069 265.908L108.059 253.18L96.0285 248.886Z" fill="#D0C5F3"/>
<path d="M103.666 251.381L107.622 268.047C108.379 271.269 111.603 273.261 114.818 272.503C118.037 271.746 120.028 268.52 119.271 265.303L115.244 248.327L103.666 251.381Z" fill="#D0C5F3"/>
<path d="M237.131 338.179C233.967 337.442 232.002 334.276 232.738 331.111L234.059 325.45C234.795 322.284 237.959 320.318 241.122 321.055C244.286 321.792 246.251 324.957 245.515 328.123L244.195 333.783C243.453 336.949 240.295 338.92 237.131 338.179Z" fill="#D0C5F3"/>
<path d="M244.758 342.188C241.595 341.451 239.629 338.285 240.366 335.12L241.686 329.459C242.422 326.294 245.586 324.327 248.75 325.064C251.914 325.801 253.879 328.966 253.142 332.132L251.822 337.793C251.081 340.958 247.917 342.925 244.758 342.188Z" fill="#D0C5F3"/>
<path d="M229.158 333.717C225.995 332.981 224.029 329.815 224.766 326.649L226.086 320.989C226.822 317.823 229.986 315.857 233.15 316.594C236.313 317.33 238.279 320.496 237.542 323.662L236.222 329.322C235.481 332.483 232.322 334.454 229.158 333.717Z" fill="#D0C5F3"/>
<path d="M102.077 256.498C101.792 255.995 95.089 244.069 89.9144 231.518C84.5264 218.455 87.5936 211.006 91.1128 207.052C98.7403 198.49 114.909 198.084 141.996 205.777L138.67 217.51C126.513 214.059 116.788 212.383 109.76 212.525C105.032 212.621 101.645 213.561 100.213 215.167C98.5371 217.047 98.8926 221.31 101.183 226.869C106.063 238.708 112.629 250.39 112.695 250.502L102.077 256.498Z" fill="url(#paint42_linear)"/>
<path d="M91.1128 207.052C90.148 208.135 89.2238 209.476 88.4925 211.127C94.1598 213.714 98.5625 215.629 99.634 216.092C99.7864 215.741 99.9794 215.431 100.213 215.167C100.345 215.015 100.502 214.872 100.67 214.735L95.0535 203.8C93.5504 204.71 92.2351 205.792 91.1128 207.052Z" fill="#A08BE8"/>
<path d="M87.9897 225.858C88.1167 226.336 88.2589 226.828 88.4062 227.326L100.355 224.684C100.182 224.181 100.035 223.698 99.8981 223.226L87.9897 225.858Z" fill="#A08BE8"/>
<path d="M108.673 212.565C109.029 212.545 109.389 212.535 109.76 212.525C109.902 212.52 110.054 212.525 110.197 212.525L109.978 200.314C109.46 200.32 108.952 200.335 108.455 200.355L108.673 212.565Z" fill="#A08BE8"/>
<path d="M120.775 213.419C121.267 213.495 121.77 213.577 122.278 213.663L124.116 201.6C123.608 201.514 123.11 201.432 122.613 201.356L120.775 213.419Z" fill="#A08BE8"/>
<path d="M236.593 302.346C236.334 301.919 236.07 301.482 235.801 301.04L224.517 306.645L224.664 306.939C224.867 307.29 225.065 307.635 225.263 307.976L236.593 302.346Z" fill="#A08BE8"/>
<path d="M215.858 291.116C216.097 291.568 216.341 292.016 216.58 292.463L227.62 287.056C227.371 286.614 227.122 286.172 226.873 285.725L215.858 291.116Z" fill="#A08BE8"/>
<path d="M207.84 275.283C208.058 275.74 208.282 276.198 208.5 276.655L219.251 271.462C219.022 271.01 218.794 270.553 218.565 270.1L207.84 275.283Z" fill="#A08BE8"/>
<path d="M104.372 261.076C111.291 261.076 116.9 255.464 116.9 248.541C116.9 241.617 111.291 236.005 104.372 236.005C97.453 236.005 91.8441 241.617 91.8441 248.541C91.8441 255.464 97.453 261.076 104.372 261.076Z" fill="url(#paint43_radial)"/>
<path d="M141.849 224.288C148.591 224.288 154.057 218.819 154.057 212.072C154.057 205.326 148.591 199.857 141.849 199.857C135.107 199.857 129.641 205.326 129.641 212.072C129.641 218.819 135.107 224.288 141.849 224.288Z" fill="url(#paint44_radial)"/>
<path d="M273.943 352.67L295.063 364.708C296.49 362.345 297.952 359.896 299.242 357.731L278.208 345.745L273.943 352.67Z" fill="#594539"/>
<path d="M304.331 356.446C303.092 358.31 298.993 356.476 298.993 356.476L293.961 364.047C293.961 364.047 297.231 367.121 295.997 368.981L288.365 380.465C287.562 381.669 288.004 383.366 289.34 384.26L306.26 395.52C330.214 411.46 346.876 393.884 346.876 393.884C346.876 393.884 356.707 371.593 332.758 355.653L315.584 344.225C314.385 343.428 312.832 343.656 312.115 344.733L304.331 356.446Z" fill="#797673"/>
<path d="M655.777 417.553L661.54 437.888C661.992 439.473 660.89 441.094 659.25 441.241C647.149 442.334 635.525 436.125 629.634 425.581C628.806 424.102 629.604 422.238 631.234 421.775L652.516 415.734C653.923 415.337 655.381 416.15 655.777 417.553Z" fill="#605D5A"/>
<path d="M539.324 443.213L516.838 443.401C515.223 443.736 513.689 442.527 513.654 440.881C513.42 428.726 521.494 418.782 532.417 413.645C533.951 412.924 535.754 413.848 536.099 415.51L541.36 440.088C541.665 441.516 540.751 442.913 539.324 443.213Z" fill="#605D5A"/>
<path d="M467.31 348.026L466.624 347.869C462.679 346.964 460.216 343.031 461.12 339.083L469.102 304.246C469.61 302.026 468.224 299.81 466.005 299.297L464.654 298.987C462.435 298.479 460.221 299.866 459.708 302.087L451.593 337.488C450.76 341.121 447.139 343.392 443.508 342.559L442.381 342.3C440.634 341.898 438.897 342.991 438.496 344.734L436.536 353.295L467.782 360.465L469.742 351.903C470.143 350.171 469.052 348.428 467.31 348.026Z" fill="#BF8F68"/>
<path d="M436.531 353.306C436.043 355.44 433.753 365.419 432.504 370.872C430.808 378.275 426.349 380.978 426.349 380.978L430.072 381.832C436.358 377.945 438.212 369.865 438.212 369.865C438.212 369.865 438.984 377.899 433.86 382.701L436.826 383.382C440.929 378.625 443.112 370.699 443.112 370.699C443.112 370.699 442 379.662 440.304 384.179L456.3 387.848C456.3 387.848 461.815 386.481 463.491 379.154C464.598 374.327 467.102 363.397 467.772 360.475L436.531 353.306Z" fill="#797673"/>
<path d="M437.949 347.11L436.529 353.306L467.777 360.475L469.196 354.28L437.949 347.11Z" fill="#FAF9F8"/>
<path d="M591.421 347.853L579.66 342.254L574.896 347.726L574.973 352.183L587.719 353.443L592.812 350.633L591.421 347.853Z" fill="#FAE969"/>
<path d="M586.15 356.41C586.8 356.827 587.638 356.903 588.293 356.537L598.449 350.907C598.561 350.846 598.662 350.775 598.759 350.689L607.564 342.869C608.331 342.188 608.306 340.978 607.503 340.165C606.696 339.352 605.426 339.251 604.66 339.937L595.996 347.635L586.007 353.173C585.093 353.682 584.865 354.845 585.5 355.775C585.672 356.034 585.896 356.248 586.15 356.41Z" fill="#2B88D8"/>
<path d="M448.043 323.072C448.373 323.931 449.186 324.525 450.044 324.459C451.623 324.337 455.584 322.976 457.286 322.371L467.137 326.482C468.128 326.893 469.179 326.375 469.478 325.323C469.778 324.266 469.219 323.077 468.229 322.666L457.738 318.291C457.321 318.118 456.874 318.103 456.473 318.25C454.183 319.083 450.496 320.298 449.485 320.374C448.46 320.455 447.754 321.431 447.906 322.564C447.937 322.737 447.982 322.91 448.043 323.072Z" fill="#2B88D8"/>
<path d="M461.861 359.118C460.465 365.612 457.961 377.136 457.159 379.946C456.549 382.08 454.361 384.753 452.141 386.892L456.305 387.847C456.305 387.847 461.82 386.481 463.496 379.153C464.603 374.326 467.107 363.397 467.777 360.475L461.861 359.118Z" fill="#605D5A"/>
<path d="M463.146 352.889L461.81 359.108L467.782 360.475L469.199 354.276L463.146 352.889Z" fill="#C7E0F4"/>
<path d="M430.417 419.158L428.868 415.891L423.531 415.027L420.778 417.441L421.124 420.368L430.417 419.158Z" fill="#FAE969"/>
<path d="M462.729 432.746L470.479 430.022L474.069 433.132C474.069 433.132 471.2 434.331 469.524 436.003C467.843 437.685 462.729 432.746 462.729 432.746Z" fill="#FAE969"/>
<path d="M433.535 410.231C433.535 410.231 434.124 405.825 437.054 404.357C439.989 402.888 445.271 403.767 445.271 403.767L445.565 407.583L441.162 411.989L433.535 410.231Z" fill="#FAE969"/>
<path d="M292.93 373.605L288.365 380.475C287.562 381.679 288.004 383.376 289.34 384.27L306.26 395.53C330.214 411.47 346.876 393.894 346.876 393.894C346.876 393.894 347.785 391.831 348.374 388.523C334.165 386.735 312.613 382.69 292.93 373.605Z" fill="url(#paint45_linear)"/>
<path d="M480.757 256.599C480.859 259.562 434.175 263.545 376.492 265.497C318.809 267.448 271.962 266.635 271.866 263.672C271.764 260.71 318.448 256.726 376.131 254.775C433.814 252.824 480.655 253.642 480.757 256.599Z" fill="url(#paint46_radial)"/>
<path d="M300.395 233.068L432.717 228.957L432.738 223.683L300.415 227.794L300.395 233.068Z" fill="#B3AFAB"/>
<path d="M379.005 204.979L380.402 200.37C380.62 199.659 380.209 198.927 379.503 198.755L376.563 198.033C375.908 197.871 375.217 198.247 374.978 198.897L372.922 204.512C372.597 205.401 373.272 206.31 374.206 206.234L377.807 205.95C378.366 205.904 378.843 205.518 379.005 204.979Z" fill="#797673"/>
<path d="M312.73 259.927C313.258 259.912 313.771 259.628 314.065 259.135L325.715 239.669C326.162 238.922 325.933 237.971 325.197 237.55C324.466 237.128 323.506 237.392 323.059 238.139L311.41 257.605C310.963 258.352 311.191 259.302 311.928 259.724C312.176 259.877 312.456 259.938 312.73 259.927Z" fill="#797673"/>
<path d="M415.233 257.372C414.705 257.387 414.197 257.138 413.903 256.665L402.406 237.921C401.964 237.199 402.202 236.234 402.939 235.766C403.675 235.299 404.63 235.502 405.072 236.224L416.569 254.968C417.01 255.69 416.772 256.655 416.035 257.123C415.787 257.285 415.507 257.367 415.233 257.372Z" fill="#797673"/>
<path d="M363.045 266.493C363.903 266.467 364.604 265.746 364.604 264.887L364.685 243.754C364.69 242.895 363.994 242.219 363.136 242.245C362.278 242.27 361.577 242.992 361.577 243.851L361.496 264.983C361.491 265.847 362.186 266.518 363.045 266.493Z" fill="#797673"/>
<path d="M337.674 202.759L338.624 200.101C338.801 199.613 339.299 199.309 339.807 199.395L348.516 200.818C348.993 200.894 349.344 201.3 349.354 201.788L349.374 202.835C349.384 203.424 348.907 203.922 348.318 203.933L338.634 204.121C337.923 204.136 337.43 203.44 337.674 202.759Z" fill="#797673"/>
<path d="M354.056 204.954L354.843 204.522C355.107 204.38 355.209 204.049 355.077 203.795L352.36 198.597C352.223 198.338 351.903 198.246 351.639 198.389L350.852 198.821C350.588 198.963 350.486 199.293 350.618 199.547L353.335 204.745C353.467 205.005 353.792 205.096 354.056 204.954Z" fill="#797673"/>
<path d="M332.256 204.674C332.484 203.912 333.068 203.333 333.845 203.16L334.784 203.13C334.79 203.114 334.795 203.104 334.795 203.094L394.783 201.229C394.788 201.244 394.793 201.255 394.793 201.27L395.799 201.244C396.505 201.366 397.084 201.91 397.312 202.657L399.247 209.105C399.45 209.776 399.349 210.497 398.968 211.092C398.592 211.681 398.003 212.032 397.363 212.052L332.139 214.08C331.494 214.1 330.915 213.785 330.539 213.216C330.163 212.647 330.072 211.93 330.275 211.244L332.256 204.674Z" fill="#B3AFAB"/>
<path d="M297.429 233.155L432.631 228.952C429.076 233.907 419.24 238.404 405.671 241.645C395.235 246.843 381.946 248.993 365.086 249.516C348.277 250.04 332.347 248.988 324.593 244.222C310.892 241.833 300.974 237.926 297.429 233.155Z" fill="#E1DFDD"/>
<path d="M331.753 249.115C340.807 251.447 352.137 252.473 364.512 252.092C387.435 251.381 403.873 246.107 410.302 240.665C397.028 243.383 381.275 245.207 364.38 245.736C347.648 246.254 332.047 245.431 318.875 243.576C321.607 245.715 326.06 247.651 331.753 249.115Z" fill="#797673"/>
<path d="M330.773 210.573L399.455 208.439C420.494 210.878 431.483 216.711 432.773 223.881L297.323 228.088C298.674 220.837 309.708 214.318 330.773 210.573Z" fill="url(#paint47_linear)"/>
<path d="M403.005 218.592C404.122 218.556 405.031 217.621 405.036 216.509C405.041 215.391 404.137 214.512 403.02 214.547C401.903 214.583 400.994 215.518 400.989 216.63C400.989 217.748 401.893 218.627 403.005 218.592Z" fill="#F7B548"/>
<path d="M387.725 219.064C388.842 219.029 389.751 218.094 389.756 216.981C389.761 215.863 388.857 214.984 387.74 215.02C386.623 215.055 385.714 215.99 385.709 217.103C385.703 218.226 386.607 219.1 387.725 219.064Z" fill="#F7B548"/>
<path d="M372.439 219.542C373.556 219.506 374.465 218.571 374.471 217.458C374.476 216.341 373.572 215.462 372.454 215.497C371.337 215.533 370.428 216.468 370.423 217.58C370.423 218.698 371.322 219.577 372.439 219.542Z" fill="#F7B548"/>
<path d="M357.154 220.014C358.271 219.979 359.18 219.044 359.185 217.931C359.19 216.813 358.286 215.934 357.169 215.97C356.052 216.005 355.143 216.94 355.138 218.053C355.138 219.171 356.042 220.05 357.154 220.014Z" fill="#F7B548"/>
<path d="M341.874 220.492C342.991 220.456 343.9 219.521 343.905 218.409C343.91 217.291 343.006 216.412 341.889 216.447C340.772 216.483 339.863 217.418 339.858 218.531C339.852 219.649 340.756 220.528 341.874 220.492Z" fill="#F7B548"/>
<path d="M300.41 229.537L432.733 225.426L432.738 223.683L300.415 227.794L300.41 229.537Z" fill="#797673"/>
<path d="M342.087 184.735C346.815 173.211 361.414 167.51 375.278 171.981C389.141 176.453 397.155 189.435 393.62 201.346L342.087 184.735Z" fill="#3E8EED"/>
<path d="M326.588 220.964C327.705 220.929 328.614 219.994 328.62 218.881C328.625 217.763 327.721 216.884 326.604 216.92C325.486 216.955 324.577 217.89 324.572 219.003C324.572 220.121 325.471 221 326.588 220.964Z" fill="#F7B548"/>
<path d="M382.032 175.086C379.98 173.821 377.726 172.764 375.278 171.976C361.414 167.51 346.81 173.206 342.087 184.73L352.071 187.947C356.722 177.683 369.372 172.302 382.032 175.086Z" fill="#72ACF1"/>
<path d="M341.889 184.598C342.036 184.182 342.498 183.948 342.91 184.08L393.26 200.314C393.671 200.447 393.89 200.899 393.742 201.321C393.631 201.641 393.326 201.864 392.986 201.874C392.894 201.88 392.808 201.864 392.722 201.839L342.371 185.604C342.168 185.538 342.011 185.401 341.919 185.208C341.823 185.015 341.813 184.801 341.889 184.598Z" fill="#A7CBF6"/>
<defs>
<radialGradient id="paint0_radial" cx="0" cy="0" r="1" gradientUnits="userSpaceOnUse" gradientTransform="translate(82.9448 -29.785) scale(242.145 242.291)">
<stop stop-color="#106EBE"/>
<stop offset="1" stop-color="#2B579A"/>
</radialGradient>
<linearGradient id="paint1_linear" x1="326.761" y1="54.8288" x2="0" y2="54.8288" gradientUnits="userSpaceOnUse">
<stop offset="0.0799" stop-color="#2B579A"/>
<stop offset="0.5027" stop-color="#106EBE"/>
<stop offset="0.9989" stop-color="#28C2D1" stop-opacity="0.2"/>
</linearGradient>
<linearGradient id="paint2_linear" x1="227.61" y1="46.825" x2="318.194" y2="89.0397" gradientUnits="userSpaceOnUse">
<stop stop-color="#28C2D1" stop-opacity="0.5"/>
<stop offset="0.0897" stop-color="#29AEC7" stop-opacity="0.5609"/>
<stop offset="0.2815" stop-color="#2A88B3" stop-opacity="0.6911"/>
<stop offset="0.4594" stop-color="#2A6DA5" stop-opacity="0.8119"/>
<stop offset="0.6166" stop-color="#2B5D9D" stop-opacity="0.9186"/>
<stop offset="0.7366" stop-color="#2B579A"/>
</linearGradient>
<linearGradient id="paint3_linear" x1="241.819" y1="-36.2109" x2="282.334" y2="352.244" gradientUnits="userSpaceOnUse">
<stop offset="0.1969" stop-color="#2B88D8"/>
<stop offset="0.6625" stop-color="#2B579A"/>
</linearGradient>
<linearGradient id="paint4_linear" x1="520.615" y1="343.559" x2="812.373" y2="281.456" gradientUnits="userSpaceOnUse">
<stop offset="0.0523" stop-color="#28C2D1" stop-opacity="0.7"/>
<stop offset="1" stop-color="#2B579A"/>
</linearGradient>
<linearGradient id="paint5_linear" x1="348.895" y1="215.808" x2="688.128" y2="215.808" gradientUnits="userSpaceOnUse">
<stop offset="0.0956" stop-color="#2B88D8"/>
<stop offset="1" stop-color="#2B579A"/>
</linearGradient>
<linearGradient id="paint6_linear" x1="869.938" y1="150.503" x2="530.953" y2="150.503" gradientUnits="userSpaceOnUse">
<stop offset="0.7156" stop-color="#106EBE"/>
<stop offset="1" stop-color="#72ACF1"/>
</linearGradient>
<linearGradient id="paint7_linear" x1="791.045" y1="387.224" x2="720.356" y2="357.474" gradientUnits="userSpaceOnUse">
<stop offset="0.0927" stop-color="#2B579A" stop-opacity="0"/>
<stop offset="0.9157" stop-color="#3E8EED"/>
</linearGradient>
<linearGradient id="paint8_linear" x1="97.3811" y1="72.31" x2="166.991" y2="40.1133" gradientUnits="userSpaceOnUse">
<stop offset="0.081" stop-color="#2B579A" stop-opacity="0"/>
<stop offset="0.2808" stop-color="#2B69B1" stop-opacity="0.2175"/>
<stop offset="0.5332" stop-color="#2B7AC6" stop-opacity="0.4921"/>
<stop offset="0.7769" stop-color="#2B84D4" stop-opacity="0.7572"/>
<stop offset="1" stop-color="#2B88D8"/>
</linearGradient>
<radialGradient id="paint9_radial" cx="0" cy="0" r="1" gradientUnits="userSpaceOnUse" gradientTransform="translate(286.39 421.185) scale(335.093 335.294)">
<stop offset="0.0537" stop-color="#FAE969"/>
<stop offset="0.8685" stop-color="#F7B548"/>
</radialGradient>
<radialGradient id="paint10_radial" cx="0" cy="0" r="1" gradientUnits="userSpaceOnUse" gradientTransform="translate(812.244 34.5273) scale(724.562 724.997)">
<stop offset="0.0537" stop-color="#9E673D"/>
<stop offset="1" stop-color="#F7B548"/>
</radialGradient>
<linearGradient id="paint11_linear" x1="741.55" y1="402.772" x2="741.55" y2="1.93383" gradientUnits="userSpaceOnUse">
<stop offset="0.5749" stop-color="#6E66DF"/>
<stop offset="1" stop-color="#958FE7"/>
</linearGradient>
<radialGradient id="paint12_radial" cx="0" cy="0" r="1" gradientUnits="userSpaceOnUse" gradientTransform="translate(929.705 219.404) scale(258.831 258.987)">
<stop offset="0.02" stop-color="#6E66DF"/>
<stop offset="1" stop-color="#958FE7"/>
</radialGradient>
<radialGradient id="paint13_radial" cx="0" cy="0" r="1" gradientUnits="userSpaceOnUse" gradientTransform="translate(710.073 221.257) scale(7.63317 6.88855)">
<stop offset="0.02" stop-color="#6E66DF"/>
<stop offset="0.2953" stop-color="#7972E1"/>
<stop offset="1" stop-color="#958FE7"/>
</radialGradient>
<radialGradient id="paint14_radial" cx="0" cy="0" r="1" gradientUnits="userSpaceOnUse" gradientTransform="translate(714.94 227.295) scale(7.39412 6.6729)">
<stop offset="0.02" stop-color="#6E66DF"/>
<stop offset="0.2953" stop-color="#7972E1"/>
<stop offset="1" stop-color="#958FE7"/>
</radialGradient>
<radialGradient id="paint15_radial" cx="0" cy="0" r="1" gradientUnits="userSpaceOnUse" gradientTransform="translate(705.14 215.574) scale(5.53722 4.99704)">
<stop offset="0.02" stop-color="#6E66DF"/>
<stop offset="0.2953" stop-color="#7972E1"/>
<stop offset="1" stop-color="#958FE7"/>
</radialGradient>
<radialGradient id="paint16_radial" cx="0" cy="0" r="1" gradientUnits="userSpaceOnUse" gradientTransform="translate(719.845 233.286) scale(7.1002 6.40728)">
<stop offset="0.02" stop-color="#6E66DF"/>
<stop offset="0.2953" stop-color="#7972E1"/>
<stop offset="1" stop-color="#958FE7"/>
</radialGradient>
<radialGradient id="paint17_radial" cx="0" cy="0" r="1" gradientUnits="userSpaceOnUse" gradientTransform="translate(911.292 254.19) scale(88.5258 88.5789)">
<stop offset="0.02" stop-color="#6E66DF"/>
<stop offset="0.2953" stop-color="#7972E1"/>
<stop offset="1" stop-color="#958FE7"/>
</radialGradient>
<radialGradient id="paint18_radial" cx="0" cy="0" r="1" gradientUnits="userSpaceOnUse" gradientTransform="translate(724.806 239.244) scale(6.80765 6.14344)">
<stop offset="0.02" stop-color="#6E66DF"/>
<stop offset="0.2953" stop-color="#7972E1"/>
<stop offset="1" stop-color="#958FE7"/>
</radialGradient>
<radialGradient id="paint19_radial" cx="0" cy="0" r="1" gradientUnits="userSpaceOnUse" gradientTransform="translate(734.939 251.067) scale(6.36699 5.74585)">
<stop offset="0.02" stop-color="#6E66DF"/>
<stop offset="0.2953" stop-color="#7972E1"/>
<stop offset="1" stop-color="#958FE7"/>
</radialGradient>
<radialGradient id="paint20_radial" cx="0" cy="0" r="1" gradientUnits="userSpaceOnUse" gradientTransform="translate(729.835 245.17) scale(6.55594 5.91634)">
<stop offset="0.02" stop-color="#6E66DF"/>
<stop offset="0.2953" stop-color="#7972E1"/>
<stop offset="1" stop-color="#958FE7"/>
</radialGradient>
<linearGradient id="paint21_linear" x1="284.397" y1="49.9576" x2="491.782" y2="49.9576" gradientUnits="userSpaceOnUse">
<stop offset="0.2043" stop-color="#6E66DF"/>
<stop offset="1" stop-color="#2B579A"/>
</linearGradient>
<radialGradient id="paint22_radial" cx="0" cy="0" r="1" gradientUnits="userSpaceOnUse" gradientTransform="translate(731.19 450.983) scale(210.052 210.178)">
<stop offset="0.0104" stop-color="#9B643D" stop-opacity="0"/>
<stop offset="0.5593" stop-color="#9C653E" stop-opacity="0.7101"/>
<stop offset="1" stop-color="#BF8F68"/>
</radialGradient>
<radialGradient id="paint23_radial" cx="0" cy="0" r="1" gradientUnits="userSpaceOnUse" gradientTransform="translate(232.514 382.62) rotate(-179.485) scale(240.897 210.203)">
<stop offset="0.2755" stop-color="#9B643D" stop-opacity="0.7"/>
<stop offset="1" stop-color="#BF8F68" stop-opacity="0"/>
</radialGradient>
<radialGradient id="paint24_radial" cx="0" cy="0" r="1" gradientUnits="userSpaceOnUse" gradientTransform="translate(617.908 277.107) scale(60.006 60.0422)">
<stop offset="0.5076" stop-color="#3E8EED"/>
<stop offset="1" stop-color="#72ACF1"/>
</radialGradient>
<radialGradient id="paint25_radial" cx="0" cy="0" r="1" gradientUnits="userSpaceOnUse" gradientTransform="translate(666.122 352.045) scale(95.6155 95.673)">
<stop offset="0.6476" stop-color="#72ACF1"/>
<stop offset="1" stop-color="#72ACF1"/>
</radialGradient>
<radialGradient id="paint26_radial" cx="0" cy="0" r="1" gradientUnits="userSpaceOnUse" gradientTransform="translate(622.846 406.754) scale(78.5837 78.6309)">
<stop offset="0.6476" stop-color="#72ACF1"/>
<stop offset="1" stop-color="#A7CBF6"/>
</radialGradient>
<linearGradient id="paint27_linear" x1="630.25" y1="269.868" x2="630.25" y2="337.409" gradientUnits="userSpaceOnUse">
<stop offset="0.1245" stop-color="#3E8EED"/>
<stop offset="0.3079" stop-color="#72ACF1"/>
</linearGradient>
<linearGradient id="paint28_linear" x1="151.65" y1="253.096" x2="151.65" y2="340.046" gradientUnits="userSpaceOnUse">
<stop offset="0.1788" stop-color="#958FE7"/>
<stop offset="0.4497" stop-color="#BBB7EF"/>
</linearGradient>
<radialGradient id="paint29_radial" cx="0" cy="0" r="1" gradientUnits="userSpaceOnUse" gradientTransform="translate(142.87 342.078) scale(20.8537 19.3227)">
<stop stop-color="#8065E0"/>
<stop offset="0.8628" stop-color="#512BD4"/>
</radialGradient>
<linearGradient id="paint30_linear" x1="219.634" y1="239.766" x2="219.634" y2="321.16" gradientUnits="userSpaceOnUse">
<stop offset="0.2711" stop-color="#958FE7"/>
<stop offset="0.4645" stop-color="#BBB7EF"/>
</linearGradient>
<radialGradient id="paint31_radial" cx="0" cy="0" r="1" gradientUnits="userSpaceOnUse" gradientTransform="translate(248.483 326.05) rotate(86.7744) scale(18.0525 18.0418)">
<stop stop-color="#A08BE8"/>
<stop offset="1" stop-color="#8065E0"/>
</radialGradient>
<linearGradient id="paint32_linear" x1="197.225" y1="254.935" x2="183.524" y2="353.063" gradientUnits="userSpaceOnUse">
<stop offset="0.1359" stop-color="#958FE7"/>
<stop offset="0.2754" stop-color="#BBB7EF"/>
</linearGradient>
<radialGradient id="paint33_radial" cx="0" cy="0" r="1" gradientUnits="userSpaceOnUse" gradientTransform="translate(199.57 331.027) rotate(-165.563) scale(21.2593 22.5419)">
<stop stop-color="#8065E0"/>
<stop offset="1" stop-color="#512BD4"/>
</radialGradient>
<radialGradient id="paint34_radial" cx="0" cy="0" r="1" gradientUnits="userSpaceOnUse" gradientTransform="translate(193.73 197.887) scale(66.4908 66.5308)">
<stop offset="0.4744" stop-color="#A08BE8"/>
<stop offset="0.8618" stop-color="#8065E0"/>
</radialGradient>
<radialGradient id="paint35_radial" cx="0" cy="0" r="1" gradientUnits="userSpaceOnUse" gradientTransform="translate(196.461 197.588) scale(64.4386 64.4774)">
<stop offset="0.2022" stop-color="#E1DFDD"/>
<stop offset="0.7337" stop-color="white"/>
</radialGradient>
<radialGradient id="paint36_radial" cx="0" cy="0" r="1" gradientUnits="userSpaceOnUse" gradientTransform="translate(170.279 235.907) scale(56.6818 56.716)">
<stop stop-color="#512BD4"/>
<stop offset="0.5045" stop-color="#6645D9"/>
<stop offset="0.7759" stop-color="#7659DD"/>
<stop offset="1" stop-color="#8065E0"/>
</radialGradient>
<radialGradient id="paint37_radial" cx="0" cy="0" r="1" gradientUnits="userSpaceOnUse" gradientTransform="translate(135.823 247.13) scale(41.3358 41.3607)">
<stop offset="0.4614" stop-color="#A08BE8"/>
<stop offset="0.5268" stop-color="#A793EA"/>
<stop offset="0.8352" stop-color="#C5B7F0"/>
<stop offset="1" stop-color="#D0C5F3"/>
</radialGradient>
<radialGradient id="paint38_radial" cx="0" cy="0" r="1" gradientUnits="userSpaceOnUse" gradientTransform="translate(187.824 148.493) scale(9.79947 9.80538)">
<stop stop-color="#8065E0"/>
<stop offset="0.8628" stop-color="#512BD4"/>
</radialGradient>
<radialGradient id="paint39_radial" cx="0" cy="0" r="1" gradientUnits="userSpaceOnUse" gradientTransform="translate(197.214 117.004) scale(17.2015 17.2119)">
<stop stop-color="#A08BE8"/>
<stop offset="1" stop-color="#8065E0"/>
</radialGradient>
<radialGradient id="paint40_radial" cx="0" cy="0" r="1" gradientUnits="userSpaceOnUse" gradientTransform="translate(212.143 172.652) rotate(-91.1854) scale(20.6008 20.5885)">
<stop offset="0.3607" stop-color="#BDB9F0"/>
<stop offset="0.5611" stop-color="#C3BCEB" stop-opacity="0.3855"/>
<stop offset="0.6338" stop-color="#CEC3E2" stop-opacity="0.3217"/>
<stop offset="0.8689" stop-color="#EDD6C9" stop-opacity="0.1152"/>
<stop offset="1" stop-color="#F9DDBF" stop-opacity="0"/>
</radialGradient>
<radialGradient id="paint41_radial" cx="0" cy="0" r="1" gradientUnits="userSpaceOnUse" gradientTransform="translate(146.578 251.886) rotate(83.988) scale(24.7651 24.7505)">
<stop stop-color="#BDB9F0"/>
<stop offset="0.5266" stop-color="#C3BCEB" stop-opacity="0.3855"/>
<stop offset="0.605" stop-color="#CEC3E2" stop-opacity="0.3217"/>
<stop offset="0.8586" stop-color="#EDD6C9" stop-opacity="0.1152"/>
<stop offset="1" stop-color="#F9DDBF" stop-opacity="0"/>
</radialGradient>
<linearGradient id="paint42_linear" x1="136.03" y1="233.858" x2="85.5692" y2="223.144" gradientUnits="userSpaceOnUse">
<stop offset="0.2012" stop-color="#958FE7"/>
<stop offset="0.4954" stop-color="#BBB7EF"/>
</linearGradient>
<radialGradient id="paint43_radial" cx="0" cy="0" r="1" gradientUnits="userSpaceOnUse" gradientTransform="translate(110.409 249.103) rotate(86.7744) scale(18.0525 18.0418)">
<stop stop-color="#A08BE8"/>
<stop offset="1" stop-color="#8065E0"/>
</radialGradient>
<radialGradient id="paint44_radial" cx="0" cy="0" r="1" gradientUnits="userSpaceOnUse" gradientTransform="translate(142.398 206.966) scale(18.1301 18.141)">
<stop stop-color="#8065E0"/>
<stop offset="0.8628" stop-color="#512BD4"/>
</radialGradient>
<linearGradient id="paint45_linear" x1="287.964" y1="387.906" x2="348.378" y2="387.906" gradientUnits="userSpaceOnUse">
<stop offset="0.0521" stop-color="#797673"/>
<stop offset="0.7483" stop-color="#B1ADA9"/>
</linearGradient>
<radialGradient id="paint46_radial" cx="0" cy="0" r="1" gradientUnits="userSpaceOnUse" gradientTransform="translate(376.292 260.145) rotate(-0.850404) scale(161.026 90.5519)">
<stop offset="0.00096184" stop-color="#9B643D" stop-opacity="0.7"/>
<stop offset="1" stop-color="#BF8F68" stop-opacity="0"/>
</radialGradient>
<linearGradient id="paint47_linear" x1="365.126" y1="209.49" x2="365.637" y2="225.95" gradientUnits="userSpaceOnUse">
<stop offset="0.4711" stop-color="white"/>
<stop offset="0.8215" stop-color="#E1DFDD"/>
</linearGradient>
</defs>
</svg>
