<svg width="952" height="548" viewBox="0 0 952 548" fill="none" xmlns="http://www.w3.org/2000/svg">
<path d="M231.973 8.2903C229.466 8.50688 227.019 8.73331 224.63 8.95482C221.562 9.24032 218.602 9.53566 215.746 9.831C215.534 9.85069 215.322 9.8753 215.115 9.89499C212.392 10.1805 209.767 10.466 207.245 10.7564C201.429 11.4259 196.164 12.1051 191.515 12.7943C80.4681 29.2744 4.5999 123.784 0.201957 225.987C-2.4378 287.295 20.7191 355.239 74.4548 402.813C74.7011 403.035 74.9522 403.252 75.2034 403.473C77.6412 405.614 80.148 407.711 82.709 409.764C83.3197 410.256 83.9402 410.743 84.5558 411.231C86.0875 412.432 87.6437 413.613 89.2197 414.785C90.2145 415.523 91.2143 416.252 92.2239 416.975C93.9673 418.225 95.7354 419.456 97.533 420.662C130.619 442.916 172.603 458.338 224.226 462.812C224.241 462.812 224.251 462.812 224.266 462.817C333.525 472.298 474.934 501.556 617.027 539.193C749.783 574.353 911.69 502.93 944.682 347.983C944.682 347.978 944.682 347.978 944.682 347.973C949.626 324.75 951.98 302.23 952 280.596C952 279.439 951.995 278.282 951.98 277.131C951.956 274.915 951.906 272.705 951.833 270.505C951.828 270.431 951.828 270.352 951.823 270.279C951.749 268.132 951.655 265.996 951.532 263.87C951.271 259.238 950.902 254.645 950.429 250.102C950.227 248.167 950.005 246.243 949.764 244.328C949.611 243.112 949.454 241.901 949.286 240.695C949.139 239.617 948.981 238.544 948.818 237.476C948.011 232.12 947.055 226.834 945.952 221.621C945.332 218.697 944.667 215.793 943.958 212.918C941.633 203.482 938.826 194.292 935.561 185.373C934.851 183.433 934.118 181.509 933.364 179.594C932.611 177.679 931.837 175.779 931.04 173.889C930.641 172.944 930.237 172.003 929.833 171.068C928.203 167.317 926.484 163.621 924.691 159.983C924.243 159.072 923.79 158.167 923.327 157.261C921.49 153.648 919.574 150.089 917.58 146.584C901.618 118.566 880.663 94.1758 855.905 74.2304C854.792 73.3345 853.669 72.4485 852.541 71.5723C851.655 70.8832 850.764 70.199 849.867 69.5197C849.188 69.0028 848.503 68.4909 847.818 67.9839C843.081 64.4644 838.215 61.1024 833.231 57.898C832.369 57.3467 831.507 56.7954 830.635 56.2539C811.482 44.263 790.621 34.625 768.478 27.6352C673.546 -2.3371 446.448 -3.59231 300.178 3.75187C300.035 3.76172 299.888 3.76664 299.745 3.77156C296.805 3.91923 293.894 4.07183 291.023 4.22442C289.55 4.30318 288.088 4.38194 286.635 4.46562C280.818 4.79049 275.15 5.13014 269.649 5.47963C262.665 5.92264 255.948 6.39026 249.521 6.86773C243.394 7.33044 237.538 7.80299 231.973 8.2903Z" fill="url(#paint0_radial)"/>
<path d="M520.588 52.8087C374.712 26.3756 235.017 123.145 208.57 268.945C195.687 339.97 212.057 409.528 249.102 465.249C354.51 476.684 485.473 504.348 617.027 539.188C618.436 539.562 619.844 539.917 621.258 540.266C679.933 501.291 723.273 439.427 736.831 364.671C763.283 218.87 666.464 79.2419 520.588 52.8087Z" fill="#FEDBCE"/>
<path d="M777.57 30.6729C775.324 36.3188 773.039 41.9795 770.69 47.655C751.896 93.1377 729.207 144.695 659.859 272.666H663.652C681.317 240.105 699.825 205.634 717.732 170.153C739.682 126.659 757.969 87.0832 773.64 49.1613C776.038 43.3529 778.382 37.5642 780.672 31.7902C779.638 31.4112 778.604 31.0371 777.57 30.6729Z" fill="white"/>
<path d="M873.679 89.9336C872.97 91.5186 872.271 93.1134 871.557 94.6935C838.969 167.038 800.392 235.227 756.816 297.574H760.929C804.017 235.626 842.185 167.968 874.492 96.2441C875.068 94.9692 875.63 93.6894 876.201 92.4095C875.359 91.5777 874.521 90.7507 873.679 89.9336Z" fill="white"/>
<path d="M766.705 303.732C766.4 303.732 766.089 303.692 765.784 303.609L653.861 273.799C651.955 273.292 650.822 271.338 651.329 269.433C651.836 267.528 653.792 266.4 655.697 266.903L767.621 296.712C769.527 297.219 770.66 299.174 770.152 301.079C769.724 302.678 768.281 303.732 766.705 303.732Z" fill="#797673"/>
<path d="M677.091 312.829C669.207 323.003 651.3 342.88 625.799 355.205L619.091 344.228C642.223 333.05 657.451 315.167 663.489 307.119C663.986 306.459 671.428 308.723 677.091 312.829Z" fill="url(#paint1_linear)"/>
<path d="M677.091 312.829C669.207 323.003 651.3 342.88 625.799 355.205L619.091 344.228C642.223 333.05 657.451 315.167 663.489 307.119C663.986 306.459 671.428 308.723 677.091 312.829Z" fill="url(#paint2_linear)"/>
<path d="M663.405 307.236L674.131 311.696C677.746 309.141 679.755 294.32 729.615 284.761L746.911 274.69L701.44 255.812C701.036 255.645 698.894 256.246 697.859 257.732L663.405 307.236Z" fill="#522CD5"/>
<path d="M739.347 289.683C742.238 289.358 744.144 288.059 745.563 286.021L750.522 278.82C751.3 277.702 750.926 276.368 749.695 275.856L740.928 272.214C739.535 271.633 737.688 272.194 736.806 273.459L731.985 279.804C730.35 282.157 728.956 283.496 725.1 283.963C702.302 286.71 680.145 294.089 667.862 309.097L677.023 312.907C683.903 305.454 701.337 293.936 739.347 289.683Z" fill="url(#paint3_linear)"/>
<path d="M749.699 275.856C750.93 276.368 751.3 277.702 750.522 278.819L745.562 286.021C744.774 287.158 743.824 288.054 742.647 288.689L728.788 282.925C730.133 282.216 731.024 281.187 731.989 279.804L736.811 273.459C737.692 272.189 739.539 271.633 740.933 272.214L749.699 275.856Z" fill="url(#paint4_radial)"/>
<path d="M691.689 361.633C679.003 364.405 653.408 367.988 632.812 359.694L641.504 345.591C660.185 353.118 682.923 349.249 692.896 346.911C693.718 346.719 693.91 354.053 691.689 361.633Z" fill="url(#paint5_linear)"/>
<path d="M691.689 361.633C679.003 364.405 653.408 367.988 632.812 359.694L641.504 345.591C660.185 353.118 682.923 349.249 692.896 346.911C693.718 346.719 693.91 354.053 691.689 361.633Z" fill="url(#paint6_linear)"/>
<path d="M692.753 346.945L691.842 358.522C695.565 359.019 710.93 348.062 736.771 376.464L752.443 380.653L756.269 331.607C756.304 331.168 755.008 330.11 753.186 330.602L692.753 346.945Z" fill="#522CD5"/>
<path d="M735.078 387.702C736.349 389.543 738.264 389.843 740.751 389.174L749.523 386.757C750.887 386.388 752.089 384.999 752.192 383.67L752.936 374.21C753.054 372.703 751.897 371.822 750.345 372.241L742.465 374.037C739.594 374.815 737.806 374.918 736.083 372.497C725.883 358.143 711.291 348.146 692.369 351.759L691.591 361.648C701.239 360.422 718.387 363.503 735.078 387.702Z" fill="url(#paint7_linear)"/>
<path d="M752.192 383.67C752.088 384.999 750.887 386.387 749.523 386.756L740.751 389.173C739.367 389.547 738.166 389.606 737.146 389.277L738.323 374.318C739.471 374.706 740.781 374.495 742.47 374.037L750.35 372.24C751.896 371.822 753.054 372.703 752.94 374.204L752.192 383.67Z" fill="url(#paint8_radial)"/>
<path d="M461.636 402.898L465.975 388.687C480.873 393.23 494.19 393.526 505.557 389.573C515.559 386.098 524.326 379.241 531.615 369.194L543.651 377.917C530.098 396.587 504.872 416.08 461.636 402.898Z" fill="#8A6FE8"/>
<path d="M456.983 390.051L449.132 378.508C447.064 375.416 447.891 371.232 450.984 369.165C454.077 367.098 458.263 367.924 460.332 371.016L468.384 382.854L456.983 390.051Z" fill="#8A6FE8"/>
<path d="M456.574 403.961L442.661 402.75C438.957 402.401 436.234 399.118 436.583 395.411C436.933 391.709 440.218 388.987 443.927 389.337L458.194 390.577L456.574 403.961Z" fill="#8A6FE8"/>
<path d="M457.406 394.294L443.528 392.728C439.834 392.285 437.194 388.933 437.637 385.241C438.081 381.55 441.435 378.911 445.128 379.354L459.361 380.959L457.406 394.294Z" fill="#8A6FE8"/>
<path d="M461.134 409.474L447.251 410.995C443.548 411.374 440.238 408.682 439.859 404.985C439.48 401.283 442.174 397.976 445.872 397.597L460.11 396.036L461.134 409.474Z" fill="#8A6FE8"/>
<path d="M463.803 409.888C471.593 409.888 477.908 403.576 477.908 395.79C477.908 388.004 471.593 381.692 463.803 381.692C456.013 381.692 449.698 388.004 449.698 395.79C449.698 403.576 456.013 409.888 463.803 409.888Z" fill="url(#paint9_radial)"/>
<path d="M523.163 381.643C511.294 365.503 508.595 349.924 508.595 349.924L504.355 351.612L504.217 351.573C497.125 316.117 516.106 279.549 550.92 265.692C590.142 250.078 634.599 269.202 650.221 308.404C665.843 347.605 646.709 392.04 607.487 407.653C576.539 419.974 542.331 410.661 521.607 386.925C520.853 385.867 520.041 383.75 523.163 381.643Z" fill="url(#paint10_radial)"/>
<path d="M523.134 381.653C511.412 365.714 508.635 350.327 508.571 349.953L582.252 320.625C582.252 320.625 586.709 318.307 588.394 322.545C590.083 326.783 594.678 338.828 599.957 352.069C601.041 354.791 599.332 356.991 597.579 357.69C597.579 357.69 524.981 383.385 523.134 381.653Z" fill="url(#paint11_radial)"/>
<path d="M567.355 363.962C567.355 363.962 552.452 359.507 549.581 358.73C546.709 357.952 544.739 358.631 543.405 361.186C542.075 363.741 534.264 377.129 534.264 377.129L567.355 363.962Z" fill="#A08BE8"/>
<path d="M522.188 387.639C522.188 387.639 518.711 384.641 523.134 381.653C523.119 381.638 595.55 352.764 595.55 352.764C597.234 352.094 599.002 350.224 598.544 348.516C599.007 349.687 599.48 350.873 599.957 352.07C600.942 354.541 599.627 356.578 598.061 357.455C597.904 357.538 597.746 357.622 597.579 357.691L592.624 359.66L522.188 387.639Z" fill="#512BD4"/>
<path d="M532.235 397.016L654.698 348.27C653.806 354.034 652.26 359.655 650.113 365.035L547.098 406.038C541.834 403.607 536.845 400.589 532.235 397.016Z" fill="#D8CFF7"/>
<path d="M564.779 258.815L550.512 262.645L548.591 247.464L558.835 244.712L564.779 258.815Z" fill="#8A6FE8"/>
<path d="M551.95 249.832C557.76 249.832 562.469 245.124 562.469 239.317C562.469 233.511 557.76 228.803 551.95 228.803C546.14 228.803 541.43 233.511 541.43 239.317C541.43 245.124 546.14 249.832 551.95 249.832Z" fill="#D8CFF7"/>
<path d="M572.639 266.297C573.285 266.125 573.649 265.431 573.403 264.811C570.827 258.244 563.676 254.523 556.702 256.394C549.729 258.264 545.405 265.067 546.468 272.042C546.567 272.701 547.232 273.12 547.877 272.948L572.639 266.297Z" fill="url(#paint12_radial)"/>
<path d="M575.054 353.092C578.14 351.917 579.039 346.761 577.062 341.576C575.085 336.391 570.981 333.14 567.895 334.315C564.809 335.491 563.91 340.647 565.887 345.832C567.864 351.017 571.968 354.268 575.054 353.092Z" fill="#512BD4"/>
<path d="M530.538 370.744C533.587 369.477 534.332 364.297 532.201 359.173C530.071 354.05 525.872 350.923 522.823 352.19C519.773 353.457 519.029 358.637 521.16 363.76C523.29 368.884 527.489 372.011 530.538 370.744Z" fill="#512BD4"/>
<path d="M569.625 339.001C568.039 338.317 566.31 338.43 564.882 339.153C564.66 341.127 564.956 343.47 565.857 345.823C566.418 347.29 567.147 348.594 567.98 349.697C569.935 349.5 571.723 348.279 572.555 346.345C573.771 343.51 572.461 340.221 569.625 339.001Z" fill="#8065E0"/>
<path d="M524.794 356.494C523.203 355.81 521.474 355.923 520.046 356.647C519.775 358.719 520.125 361.244 521.169 363.755C521.701 365.04 522.366 366.196 523.11 367.191C525.075 367.004 526.882 365.778 527.719 363.834C528.941 361.003 527.631 357.715 524.794 356.494Z" fill="#8065E0"/>
<path d="M574.025 376.088L551.108 385.21L559.18 405.468L582.098 396.346L574.025 376.088Z" fill="#512BD4"/>
<path d="M559.519 396.943C559.347 397.011 559.174 397.011 559.007 396.943C558.839 396.874 558.721 396.755 558.657 396.593C558.593 396.426 558.598 396.263 558.672 396.096C558.746 395.929 558.874 395.81 559.046 395.746C559.224 395.677 559.396 395.677 559.563 395.751C559.736 395.82 559.854 395.938 559.918 396.106C559.982 396.268 559.977 396.436 559.898 396.603C559.824 396.755 559.696 396.874 559.519 396.943Z" fill="white"/>
<path d="M566.424 394.132L565.296 394.575L560.489 391.045C560.366 390.957 560.258 390.858 560.159 390.75L560.135 390.76C560.214 390.888 560.337 391.173 560.514 391.621L562.149 395.805L561.149 396.194L558.652 389.815L559.854 389.347L564.518 392.803C564.715 392.946 564.843 393.044 564.907 393.103L564.927 393.098C564.833 392.941 564.705 392.66 564.547 392.256L562.942 388.146L563.937 387.757L566.424 394.132Z" fill="white"/>
<path d="M571.285 392.232L567.788 393.595L565.291 387.216L568.645 385.906L568.995 386.807L566.67 387.713L567.375 389.519L569.517 388.682L569.866 389.578L567.724 390.415L568.463 392.3L570.925 391.341L571.285 392.232Z" fill="white"/>
<path d="M574.107 384.809L572.319 385.507L574.461 390.986L573.427 391.39L571.285 385.911L569.502 386.61L569.152 385.709L573.757 383.908L574.107 384.809Z" fill="white"/>
<path d="M658.387 403.853L644.178 399.477C648.763 384.601 649.098 371.291 645.173 359.916C641.721 349.908 634.885 341.132 624.853 333.817L633.614 321.812C652.26 335.407 671.694 360.674 658.387 403.853Z" fill="url(#paint13_linear)"/>
<path d="M645.518 408.465L633.945 416.282C630.847 418.344 626.666 417.503 624.602 414.407C622.539 411.31 623.381 407.131 626.479 405.069L638.343 397.055L645.518 408.465Z" fill="#8A6FE8"/>
<path d="M659.44 408.913L658.189 422.813C657.83 426.515 654.535 429.227 650.832 428.868C647.128 428.509 644.414 425.216 644.774 421.514L646.054 407.259L659.44 408.913Z" fill="#8A6FE8"/>
<path d="M649.768 408.057L648.163 421.923C647.71 425.615 644.346 428.243 640.652 427.79C636.959 427.337 634.329 423.976 634.782 420.284L636.427 406.063L649.768 408.057Z" fill="#8A6FE8"/>
<path d="M664.966 404.375L666.454 418.256C666.823 421.958 664.124 425.256 660.421 425.63C656.717 425.999 653.418 423.302 653.043 419.6L651.521 405.369L664.966 404.375Z" fill="#8A6FE8"/>
<path d="M651.285 415.765C659.075 415.765 665.39 409.453 665.39 401.668C665.39 393.882 659.075 387.57 651.285 387.57C643.495 387.57 637.18 393.882 637.18 401.668C637.18 409.453 643.495 415.765 651.285 415.765Z" fill="url(#paint14_radial)"/>
<path d="M626.335 339.129C634.087 339.129 640.371 332.848 640.371 325.1C640.371 317.352 634.087 311.071 626.335 311.071C618.583 311.071 612.299 317.352 612.299 325.1C612.299 332.848 618.583 339.129 626.335 339.129Z" fill="url(#paint15_radial)"/>
<path d="M185.191 13.8236C210.466 54.763 239.533 95.0132 272.83 135.224C297.78 165.359 325.65 196.173 358.026 229.438C387.073 259.288 416.49 287.768 444.128 314.384C444.434 314.679 444.813 314.822 445.192 314.822C445.635 314.822 446.079 314.62 446.399 314.226C446.985 313.498 446.921 312.39 446.256 311.745C386.655 254.345 328.723 197.472 275.219 132.866C242.394 93.2313 213.692 53.557 188.703 13.228C187.526 13.42 186.359 13.6169 185.191 13.8236Z" fill="white"/>
<path d="M179.247 204.064L178.74 188.987C178.631 184.97 181.803 181.623 185.827 181.514C189.845 181.406 193.194 184.576 193.303 188.598L193.825 204.059L179.247 204.064Z" fill="#8A6FE8"/>
<path d="M186.275 224.747C194.696 224.747 201.522 217.924 201.522 209.508C201.522 201.091 194.696 194.268 186.275 194.268C177.854 194.268 171.027 201.091 171.027 209.508C171.027 217.924 177.854 224.747 186.275 224.747Z" fill="url(#paint16_radial)"/>
<path d="M347.344 302.836C340.981 292.164 326.315 271.574 304.345 260.243L296.874 274.365C316.795 284.638 329.329 302.703 334.185 311.165C334.589 311.859 342.011 308.029 347.344 302.836Z" fill="url(#paint17_linear)"/>
<path d="M334.126 311.037L344.631 304.406L398.613 344.13L366.448 363.982C364.936 364.912 363.045 364.39 362.217 362.82L334.126 311.037Z" fill="#522CD5"/>
<path d="M402.257 322.703C404.818 322.781 406.094 325.026 407.222 327.182L410.689 333.783C411.309 334.964 410.886 336.5 409.753 337.204L391.644 348.383C390.359 349.175 388.748 348.732 388.044 347.393L384.158 340.728C382.853 338.243 381.627 337.43 378.283 336.736C365.389 334.049 344.577 323.254 337.115 309.043L347.295 302.762C352.934 310.461 372.59 321.792 402.257 322.703Z" fill="url(#paint18_linear)"/>
<path d="M407.221 327.182C406.458 325.73 405.626 324.258 404.385 323.411L381.297 337.661C382.567 338.287 383.35 339.182 384.158 340.723L388.044 347.388C388.748 348.727 390.358 349.17 391.644 348.377L409.753 337.204C410.885 336.505 411.309 334.964 410.689 333.783L407.221 327.182Z" fill="url(#paint19_radial)"/>
<path d="M379.878 266.204C366.132 267.715 349.462 268.389 322.03 261.311L325.054 247.026C349.516 254.72 369.9 252.2 382.227 250.6C383.049 250.492 380.976 259.608 379.878 266.204Z" fill="url(#paint20_linear)"/>
<path d="M379.479 266.258L380.976 253.888C385.024 252.101 401.848 249.468 435.672 211.629L450.329 209.208L443.168 257.87C442.912 259.622 441.296 261.148 439.484 261.271L379.479 266.258Z" fill="#522CD5"/>
<path d="M434.106 208.518C435.869 206.205 438.716 205.959 440.853 205.801L448.447 205.284C449.807 205.191 450.757 206.195 450.565 207.514L449.954 211.693C449.738 213.185 448.309 214.484 446.768 214.588L438.844 215.464C435.982 215.661 434.116 216.163 431.737 219.229C417.667 237.368 399.375 257.22 380.183 260.036L381.429 250.782C391.353 248.724 410.919 238.924 434.106 208.518Z" fill="url(#paint21_linear)"/>
<path d="M435.933 206.963L434.52 216.606C435.82 215.818 437.159 215.582 438.844 215.464L446.768 214.588C448.309 214.484 449.738 213.185 449.954 211.693L450.565 207.509C450.757 206.19 449.807 205.186 448.447 205.279L440.853 205.796C439.351 205.914 437.509 206.082 435.933 206.963Z" fill="url(#paint22_radial)"/>
<path d="M351.781 190.463C345.788 171.551 334.889 160.299 334.889 160.299L338.716 157.892L338.765 157.759C314.515 131.39 274.155 125.227 242.739 144.985C207.344 167.244 196.706 213.967 218.976 249.345C241.247 284.722 287.994 295.354 323.389 273.095C351.318 255.532 363.828 222.734 356.923 192.299C356.509 191.083 355.293 189.198 351.781 190.463Z" fill="url(#paint23_radial)"/>
<path d="M229.141 152.058L240.533 142.883L229.501 132.482L221.321 139.073L229.141 152.058Z" fill="#8A6FE8"/>
<path d="M220.38 140.008C226.135 140.008 230.801 135.345 230.801 129.592C230.801 123.84 226.135 119.177 220.38 119.177C214.624 119.177 209.959 123.84 209.959 129.592C209.959 135.345 214.624 140.008 220.38 140.008Z" fill="#D8CFF7"/>
<path d="M230.545 162.716C230.032 163.129 229.264 163.016 228.91 162.46C225.152 156.568 226.349 148.672 231.919 144.188C237.489 139.704 245.462 140.216 250.422 145.133C250.889 145.596 250.835 146.374 250.323 146.787L230.545 162.716Z" fill="url(#paint24_radial)"/>
<path d="M351.806 190.448C345.887 171.768 335.185 160.565 334.924 160.294L268.437 202.114C268.437 202.114 263.98 204.325 266.389 208.149C268.797 211.974 275.756 222.68 283.281 234.632C284.828 237.088 287.59 237.009 289.171 236.01C289.166 236.01 352.402 192.181 351.806 190.448Z" fill="url(#paint25_radial)"/>
<path d="M311.427 215.853C311.427 215.853 316.559 201.332 317.613 198.58C318.667 195.828 320.361 194.647 323.183 195.075C326.005 195.504 341.287 197.069 341.287 197.069L311.427 215.853Z" fill="#A08BE8"/>
<path d="M357.155 193.185C357.155 193.185 356.78 188.657 351.806 190.448C351.801 190.429 286.403 231.511 286.403 231.511C284.882 232.466 282.355 232.79 281.257 231.427C281.922 232.48 282.596 233.549 283.276 234.631C284.68 236.861 287.078 236.999 288.693 236.261C288.851 236.187 289.014 236.108 289.166 236.01L293.638 233.199L357.155 193.185Z" fill="#512BD4"/>
<path d="M298.62 215.282C301.363 213.499 301.157 208.318 298.159 203.71C295.161 199.102 290.507 196.812 287.764 198.594C285.021 200.377 285.228 205.558 288.226 210.166C291.224 214.774 295.877 217.064 298.62 215.282Z" fill="#512BD4"/>
<path d="M338.732 190.001C341.527 188.301 341.475 183.116 338.616 178.421C335.756 173.725 331.173 171.297 328.377 172.998C325.582 174.698 325.635 179.883 328.494 184.578C331.353 189.274 335.937 191.702 338.732 190.001Z" fill="#512BD4"/>
<path d="M290.521 202.74C290.9 201.071 291.998 199.757 293.411 199.033C295.12 200.008 296.824 201.613 298.184 203.705C299.031 205.009 299.646 206.358 300.045 207.662C298.745 209.109 296.726 209.828 294.692 209.365C291.707 208.691 289.841 205.723 290.521 202.74Z" fill="#8065E0"/>
<path d="M330.693 177.094C331.072 175.425 332.171 174.106 333.589 173.387C335.406 174.382 337.224 176.134 338.622 178.433C339.336 179.609 339.878 180.815 340.243 181.992C338.942 183.453 336.908 184.187 334.864 183.719C331.885 183.04 330.018 180.077 330.693 177.094Z" fill="#8065E0"/>
<path d="M207.23 267.419C203.064 267.419 198.755 266.543 194.691 264.161C183.714 257.727 177.902 242.551 176.922 217.772L191.052 217.211C191.796 235.98 195.632 248.325 201.847 251.973C206.176 254.513 212.845 253.43 222.222 248.665C232.362 243.516 248.787 230.25 248.949 230.112L257.853 241.089C257.134 241.67 240.104 255.428 228.629 261.261C225.068 263.063 216.504 267.419 207.23 267.419Z" fill="url(#paint26_linear)"/>
<path d="M246.285 253.883C253.964 253.883 260.188 247.661 260.188 239.987C260.188 232.312 253.964 226.091 246.285 226.091C238.607 226.091 232.382 232.312 232.382 239.987C232.382 247.661 238.607 253.883 246.285 253.883Z" fill="url(#paint27_radial)"/>
<path d="M358.795 206.697L248.28 276.201C253.411 278.854 258.814 280.897 264.379 282.32L357.342 223.857C358.469 218.225 358.967 212.471 358.795 206.697Z" fill="#D8CFF7"/>
<path d="M329.148 246.221L349.832 233.212L338.32 214.926L317.636 227.935L329.148 246.221Z" fill="#512BD4"/>
<path d="M328.127 237.801C327.969 237.9 327.807 237.934 327.629 237.895C327.452 237.855 327.319 237.767 327.225 237.619C327.132 237.472 327.102 237.309 327.147 237.132C327.186 236.955 327.29 236.817 327.442 236.718C327.6 236.62 327.767 236.585 327.945 236.625C328.122 236.659 328.26 236.753 328.353 236.9C328.447 237.048 328.472 237.211 328.427 237.388C328.388 237.565 328.284 237.703 328.127 237.801Z" fill="white"/>
<path d="M334.313 233.77L333.298 234.41L327.96 231.885C327.827 231.821 327.699 231.747 327.58 231.658L327.556 231.673C327.654 231.781 327.832 232.037 328.088 232.441L330.466 236.197L329.57 236.763L325.94 231.028L327.019 230.344L332.205 232.825C332.422 232.928 332.564 232.997 332.638 233.041L332.653 233.031C332.53 232.894 332.353 232.648 332.126 232.283L329.787 228.591L330.678 228.025L334.313 233.77Z" fill="white"/>
<path d="M338.681 231.003L335.539 232.992L331.909 227.257L334.923 225.347L335.436 226.154L333.347 227.474L334.377 229.098L336.302 227.882L336.81 228.685L334.884 229.9L335.958 231.594L338.169 230.196L338.681 231.003Z" fill="white"/>
<path d="M340.025 223.256L338.42 224.274L341.537 229.202L340.607 229.787L337.489 224.86L335.884 225.874L335.371 225.067L339.508 222.448L340.025 223.256Z" fill="white"/>
<path d="M360.892 371.572C361.168 371.774 361.483 371.872 361.789 371.872C362.306 371.872 362.808 371.602 363.123 371.1C363.621 370.297 363.429 369.205 362.69 368.663C301.434 323.397 243.611 270.235 190.816 210.64C150.505 165.138 113.032 115.806 79.3255 63.9092C78.4784 64.6328 77.6411 65.3662 76.8088 66.1046C110.569 118.065 148.092 167.461 188.461 213.032C241.424 272.82 299.434 326.158 360.892 371.572Z" fill="white"/>
<path d="M183.769 227.637L189.979 226.17C193.869 225.249 196.283 221.351 195.362 217.462C194.441 213.574 190.54 211.162 186.65 212.082L180.439 213.549C176.549 214.469 174.135 218.368 175.056 222.257C175.972 226.145 179.878 228.552 183.769 227.637Z" fill="#8A6FE8"/>
<path d="M176.947 219.151L183.158 217.684C187.048 216.764 189.461 212.865 188.54 208.976C187.62 205.088 183.719 202.676 179.828 203.596L173.618 205.063C169.727 205.984 167.314 209.882 168.235 213.771C169.151 217.66 173.052 220.071 176.947 219.151Z" fill="#8A6FE8"/>
<path d="M170.348 211.319L176.558 209.852C180.449 208.932 182.862 205.033 181.941 201.144C181.02 197.256 177.12 194.844 173.229 195.764L167.019 197.231C163.128 198.152 160.715 202.05 161.636 205.939C162.552 209.827 166.457 212.239 170.348 211.319Z" fill="#8A6FE8"/>
<path d="M353.761 379.61C352.589 379.61 351.437 379.024 350.767 377.961C349.728 376.312 350.225 374.127 351.875 373.088L451.048 310.667C452.698 309.629 454.879 310.121 455.924 311.775C456.963 313.424 456.465 315.609 454.815 316.648L355.643 379.064C355.056 379.433 354.406 379.61 353.761 379.61Z" fill="#797673"/>
<defs>
<radialGradient id="paint0_radial" cx="0" cy="0" r="1" gradientUnits="userSpaceOnUse" gradientTransform="translate(493.735 335.196) scale(387.399 387.2)">
<stop offset="0.5324" stop-color="#FDC9B5"/>
<stop offset="1" stop-color="#ED9583"/>
</radialGradient>
<linearGradient id="paint1_linear" x1="622.283" y1="352.578" x2="658.938" y2="299.992" gradientUnits="userSpaceOnUse">
<stop stop-color="#522CD5"/>
<stop offset="0.4397" stop-color="#8A6FE8"/>
</linearGradient>
<linearGradient id="paint2_linear" x1="622.283" y1="352.578" x2="658.938" y2="299.992" gradientUnits="userSpaceOnUse">
<stop stop-color="#522CD5"/>
<stop offset="0.4397" stop-color="#8A6FE8"/>
</linearGradient>
<linearGradient id="paint3_linear" x1="671.743" y1="314.842" x2="743.687" y2="266.316" gradientUnits="userSpaceOnUse">
<stop stop-color="#522CD5"/>
<stop offset="0.4397" stop-color="#8A6FE8"/>
</linearGradient>
<radialGradient id="paint4_radial" cx="0" cy="0" r="1" gradientUnits="userSpaceOnUse" gradientTransform="translate(727.612 295.907) rotate(22.5825) scale(22.9693 22.9598)">
<stop offset="0.034" stop-color="#522CD5"/>
<stop offset="0.9955" stop-color="#8A6FE8"/>
</radialGradient>
<linearGradient id="paint5_linear" x1="634.29" y1="355.223" x2="689.481" y2="370.498" gradientUnits="userSpaceOnUse">
<stop stop-color="#522CD5"/>
<stop offset="0.4397" stop-color="#8A6FE8"/>
</linearGradient>
<linearGradient id="paint6_linear" x1="634.29" y1="355.223" x2="689.481" y2="370.498" gradientUnits="userSpaceOnUse">
<stop offset="0.1383" stop-color="#522CD5"/>
<stop offset="0.5468" stop-color="#8A6FE8"/>
</linearGradient>
<linearGradient id="paint7_linear" x1="687.441" y1="360.056" x2="746.311" y2="394.168" gradientUnits="userSpaceOnUse">
<stop stop-color="#522CD5"/>
<stop offset="0.4397" stop-color="#8A6FE8"/>
</linearGradient>
<radialGradient id="paint8_radial" cx="0" cy="0" r="1" gradientUnits="userSpaceOnUse" gradientTransform="translate(725.119 384.323) rotate(94.4933) scale(22.9575 22.9703)">
<stop offset="0.034" stop-color="#522CD5"/>
<stop offset="0.9955" stop-color="#8A6FE8"/>
</radialGradient>
<radialGradient id="paint9_radial" cx="0" cy="0" r="1" gradientUnits="userSpaceOnUse" gradientTransform="translate(464.525 387.486) scale(23.7824 23.7701)">
<stop stop-color="#8065E0"/>
<stop offset="1" stop-color="#512BD4"/>
</radialGradient>
<radialGradient id="paint10_radial" cx="0" cy="0" r="1" gradientUnits="userSpaceOnUse" gradientTransform="translate(555.587 332.729) rotate(158.294) scale(96.3443 96.3082)">
<stop offset="0.3472" stop-color="#A08BE8"/>
<stop offset="0.684" stop-color="#8065E0"/>
<stop offset="0.7596" stop-color="#8065E0"/>
</radialGradient>
<radialGradient id="paint11_radial" cx="0" cy="0" r="1" gradientUnits="userSpaceOnUse" gradientTransform="translate(539.957 318.566) scale(69.3811 69.3453)">
<stop offset="0.0933" stop-color="#E1DFDD"/>
<stop offset="0.6573" stop-color="white"/>
</radialGradient>
<radialGradient id="paint12_radial" cx="0" cy="0" r="1" gradientUnits="userSpaceOnUse" gradientTransform="translate(558.585 260.243) scale(11.3478 11.3419)">
<stop stop-color="#8065E0"/>
<stop offset="1" stop-color="#512BD4"/>
</radialGradient>
<linearGradient id="paint13_linear" x1="631.766" y1="322.488" x2="661.017" y2="402.896" gradientUnits="userSpaceOnUse">
<stop offset="0.1526" stop-color="#9780E6"/>
<stop offset="1" stop-color="#8A6FE8"/>
</linearGradient>
<radialGradient id="paint14_radial" cx="0" cy="0" r="1" gradientUnits="userSpaceOnUse" gradientTransform="translate(651.594 391.842) scale(22.0187 22.0074)">
<stop stop-color="#8065E0"/>
<stop offset="1" stop-color="#512BD4"/>
</radialGradient>
<radialGradient id="paint15_radial" cx="0" cy="0" r="1" gradientUnits="userSpaceOnUse" gradientTransform="translate(621.1 321.142) scale(14.0378 14.0306)">
<stop stop-color="#8065E0"/>
<stop offset="1" stop-color="#512BD4"/>
</radialGradient>
<radialGradient id="paint16_radial" cx="0" cy="0" r="1" gradientUnits="userSpaceOnUse" gradientTransform="translate(187.272 200.367) scale(23.4073 23.3953)">
<stop stop-color="#8065E0"/>
<stop offset="0.6947" stop-color="#512BD4"/>
</radialGradient>
<linearGradient id="paint17_linear" x1="300.594" y1="263.657" x2="342.061" y2="307.699" gradientUnits="userSpaceOnUse">
<stop offset="0.1239" stop-color="#522CD5"/>
<stop offset="0.5252" stop-color="#8A6FE8"/>
</linearGradient>
<linearGradient id="paint18_linear" x1="340.858" y1="302.107" x2="408.399" y2="339.996" gradientUnits="userSpaceOnUse">
<stop stop-color="#522CD5"/>
<stop offset="0.4397" stop-color="#8A6FE8"/>
</linearGradient>
<radialGradient id="paint19_radial" cx="0" cy="0" r="1" gradientUnits="userSpaceOnUse" gradientTransform="translate(386.013 320.135) rotate(-31.6807) scale(24.9211 24.9153)">
<stop offset="0.034" stop-color="#522CD5"/>
<stop offset="0.9955" stop-color="#8A6FE8"/>
</radialGradient>
<linearGradient id="paint20_linear" x1="321.044" y1="257.269" x2="380.049" y2="241.64" gradientUnits="userSpaceOnUse">
<stop offset="0.1352" stop-color="#522CD5"/>
<stop offset="0.5155" stop-color="#8A6FE8"/>
</linearGradient>
<linearGradient id="paint21_linear" x1="376.742" y1="253.536" x2="454.964" y2="216.888" gradientUnits="userSpaceOnUse">
<stop stop-color="#522CD5"/>
<stop offset="0.4397" stop-color="#8A6FE8"/>
</linearGradient>
<radialGradient id="paint22_radial" cx="0" cy="0" r="1" gradientUnits="userSpaceOnUse" gradientTransform="translate(422.278 224.473) rotate(-81.6647) scale(22.4326 22.4428)">
<stop offset="0.034" stop-color="#522CD5"/>
<stop offset="0.9955" stop-color="#8A6FE8"/>
</radialGradient>
<radialGradient id="paint23_radial" cx="0" cy="0" r="1" gradientUnits="userSpaceOnUse" gradientTransform="translate(293.594 187.694) rotate(-32.167) scale(95.4321 95.4108)">
<stop offset="0.3472" stop-color="#A08BE8"/>
<stop offset="0.684" stop-color="#8065E0"/>
<stop offset="0.7596" stop-color="#8065E0"/>
</radialGradient>
<radialGradient id="paint24_radial" cx="0" cy="0" r="1" gradientUnits="userSpaceOnUse" gradientTransform="translate(237.928 147.623) scale(11.4792 11.4733)">
<stop stop-color="#8065E0"/>
<stop offset="1" stop-color="#512BD4"/>
</radialGradient>
<radialGradient id="paint25_radial" cx="0" cy="0" r="1" gradientUnits="userSpaceOnUse" gradientTransform="translate(303.311 172.414) scale(74.391 74.3527)">
<stop offset="0.0933" stop-color="#E1DFDD"/>
<stop offset="0.6573" stop-color="white"/>
</radialGradient>
<linearGradient id="paint26_linear" x1="257.853" y1="242.312" x2="176.92" y2="242.312" gradientUnits="userSpaceOnUse">
<stop offset="0.1526" stop-color="#9780E6"/>
<stop offset="1" stop-color="#8A6FE8"/>
</linearGradient>
<radialGradient id="paint27_radial" cx="0" cy="0" r="1" gradientUnits="userSpaceOnUse" gradientTransform="translate(243.938 232.748) scale(26.4441 26.4305)">
<stop stop-color="#8065E0"/>
<stop offset="0.6947" stop-color="#512BD4"/>
</radialGradient>
</defs>
</svg>
