<svg width="903" height="488" viewBox="0 0 903 488" fill="none" xmlns="http://www.w3.org/2000/svg">
<path d="M902.019 200.389C901.316 100.456 857.813 73.3823 786.869 73.3823C725.804 73.3823 687.422 126.053 687.422 126.053C687.422 126.053 662.998 85.2752 626.357 76.7766C580.249 66.0862 539.122 88.6695 539.122 88.6695C539.122 88.6695 499.313 9.95001 429.198 11.6446C358.828 13.3444 334.404 59.2214 334.404 59.2214C334.404 59.2214 310.558 35.4355 263.45 45.6287C216.347 55.8219 209.366 100.562 209.366 100.562C209.366 100.562 0 69.9828 0 205.909C0 206.335 0 452.124 0 452.124C0 471.917 16.479 487.965 36.8029 487.965H865.216C885.54 487.965 902.019 471.917 902.019 452.124C902.019 452.124 902.113 202.418 902.019 200.389Z" fill="url(#paint0_linear)"/>
<path d="M522.914 487.965H674.033C667.489 471.221 654.069 454.615 638.861 453.981C628.983 453.57 625.487 461.911 625.487 461.911C625.487 461.911 611.347 454.889 597.864 455.964C580.124 457.38 567.912 470.125 567.912 470.125C567.912 470.125 558.024 457.101 540.576 464.463C531.016 468.491 525.733 479.146 522.914 487.965Z" fill="url(#paint1_radial)"/>
<path d="M838.666 438.323C834.451 428.13 832.341 428.13 835.155 421.331C837.968 414.532 837.968 409.438 833.045 404.339C828.127 399.24 829.533 396.409 831.638 387.347C833.665 378.63 822.047 369.396 821.156 368.701V368.655C821.156 368.655 821.14 368.665 821.125 368.681C821.109 368.67 821.093 368.655 821.093 368.655V368.701C820.202 369.396 808.584 378.63 810.611 387.347C812.721 396.409 814.128 399.24 809.204 404.339C804.286 409.438 804.286 414.532 807.094 421.331C809.908 428.13 807.798 428.13 803.583 438.323C799.368 448.516 821.109 460.409 821.109 460.409H821.151C821.156 460.414 842.881 448.516 838.666 438.323Z" fill="url(#paint2_radial)"/>
<path d="M427.244 383.11L411.182 381.466L411.797 375.804C413.355 361.46 414.97 346.625 417.273 320.449C418.028 311.895 403.993 301.27 386.232 287.825C378.933 282.299 370.654 276.033 362.073 268.915L372.545 256.941C380.855 263.831 388.978 269.98 396.146 275.409C418.627 292.432 434.872 304.725 433.366 321.799C431.048 348.131 429.427 363.043 427.859 377.468L427.244 383.11Z" fill="url(#paint3_linear)"/>
<path d="M430.433 383.252C432.454 401.913 450.491 419.57 451.663 420.407C452.836 421.244 415.892 417.906 415.892 417.906C415.892 417.906 407.718 391.568 413.584 380.908C414.121 379.923 430.433 383.252 430.433 383.252Z" fill="#A08BE8"/>
<path d="M417.695 415.597L450.048 419.001C450.048 419.001 457.05 424.679 458.676 428.429C459.916 431.295 459.166 437.379 458.744 440.083C458.624 440.839 457.92 441.367 457.144 441.285L425.926 438.094C424.926 437.993 424.202 437.115 424.311 436.141C424.697 432.777 424.869 425.547 423.78 423.365C422.159 420.113 417.695 415.597 417.695 415.597Z" fill="#D0C5F3"/>
<path d="M411.724 378.208C403.607 397.915 402.638 430.352 402.711 432.077C402.805 434.472 402.961 436.156 406.405 436.501C410.692 436.932 429.104 438.779 429.104 438.779L425.457 380.908L411.724 378.208Z" fill="#8065E0"/>
<path d="M430.433 383.252C430.818 393.359 439.545 408.387 457.326 424.984C459.405 426.922 460.379 428.85 460.108 431.397L459.244 439.555C459.113 440.763 458.009 441.641 456.769 441.514L425.733 438.399C424.858 438.312 424.223 437.546 424.311 436.694L425.306 427.282C425.619 424.349 425.166 422.782 422.305 420.311C415.142 414.131 412.188 395.414 413.402 382.43C414.615 369.451 430.433 383.252 430.433 383.252Z" fill="#A08BE8"/>
<path d="M460.025 429.362C460.145 430.002 460.182 430.671 460.103 431.397L459.239 439.555C459.108 440.763 458.004 441.641 456.764 441.514L425.728 438.399C424.853 438.312 424.218 437.546 424.306 436.694L425.301 427.282C425.353 426.78 425.385 426.318 425.385 425.887L460.025 429.362Z" fill="#D0C5F3"/>
<path d="M433.559 359.857L411.974 357.69C409.979 357.492 408.197 358.903 407.989 360.846L406.035 379.32C405.832 381.263 407.28 382.998 409.275 383.201L430.86 385.368C432.856 385.565 434.637 384.155 434.846 382.212L436.799 363.738C437.003 361.795 435.554 360.055 433.559 359.857Z" fill="url(#paint4_radial)"/>
<path d="M417.246 320.758C421.914 321.458 428.661 322.488 433.241 323.183C433.282 322.722 433.324 322.26 433.366 321.788C433.777 317.095 432.845 312.767 430.813 308.596L416.845 317.024C417.215 318.201 417.371 319.337 417.272 320.443C417.267 320.55 417.257 320.651 417.246 320.758Z" fill="#A08BE8"/>
<path d="M388.634 289.641L400.398 278.631C399.892 278.245 399.376 277.855 398.861 277.464L387.097 288.474C387.612 288.865 388.123 289.25 388.634 289.641Z" fill="#A08BE8"/>
<path d="M431.569 341.5L415.574 339.15C415.512 339.785 415.454 340.409 415.397 341.023L431.391 343.372C431.449 342.758 431.506 342.134 431.569 341.5Z" fill="#A08BE8"/>
<path d="M417.773 292.675C417.304 292.249 416.825 291.823 416.34 291.391L403.717 301.503C404.217 301.924 404.706 302.346 405.181 302.762L417.773 292.675Z" fill="#A08BE8"/>
<path d="M503.888 487.964C495.369 481.703 486.622 484.879 471.518 477.862C454.581 469.993 437.008 469.704 405.373 479.902C373.739 490.1 372.78 481.069 360.636 480.775C352.618 480.582 342.927 484.966 337.269 487.964H503.888Z" fill="#4E9668"/>
<path d="M849.096 472.104H726.966V487.964H849.096V472.104Z" fill="#F7B548"/>
<path d="M634.495 468.141V487.964H726.965V472.104L677.529 423.396L634.495 468.141Z" fill="#FFD590"/>
<path d="M859.105 469.273L810.783 421.092C810.137 420.448 809.272 420.088 808.334 420.098H678.086L677.534 423.396L726.966 472.104L855.786 472.388L852.957 469.273H859.105Z" fill="#797673"/>
<path d="M727.06 475.29H858.396C860.163 475.29 861.595 473.895 861.595 472.175C861.595 472.175 861.496 469.06 858.396 469.06H727.544C725.778 469.06 725.215 470.455 725.215 472.175H725.116C725.121 473.895 725.293 475.29 727.06 475.29Z" fill="white"/>
<path d="M634.495 469.658V479.263L678.154 434.243L726.965 482.896V473.474L680.535 427.181C679.889 426.536 679.024 426.176 678.086 426.186C677.164 426.191 676.283 426.567 675.653 427.221L634.495 469.658Z" fill="#F7B548"/>
<path d="M665.609 480.729H652.089V487.965H665.609V480.729Z" fill="#F7B548"/>
<path d="M836.26 480.729H823.495V487.964H836.26V480.729Z" fill="#BF8F68"/>
<path d="M754.464 480.729H741.7V487.964H754.464V480.729Z" fill="#BF8F68"/>
<path d="M795.362 480.729H782.597V487.964H795.362V480.729Z" fill="#BF8F68"/>
<path d="M707.288 480.729H693.768V487.964H707.288V480.729Z" fill="#F7B548"/>
<path d="M40.4757 480.034H36.8184V487.964H40.4757V480.034Z" fill="#797673"/>
<path d="M41.6221 482.302C55.1522 482.302 59.8047 475.788 57.0799 468.426C54.3551 461.063 54.9438 459.08 58.0125 455.964C62.2846 451.626 57.4863 448.602 49.8433 444.071C42.2056 439.541 47.7072 434.726 46.9778 429.626C46.2485 424.527 38.668 415.75 34.3438 421.696C30.0196 427.643 33.0622 429.342 34.7919 433.026C36.5215 436.709 29.7747 444.635 25.612 447.75C21.4493 450.865 21.7306 454.828 24.4345 456.812C27.1385 458.796 24.3824 463.55 21.9963 468.705C18.2035 476.919 32.0566 482.302 41.6221 482.302Z" fill="url(#paint5_radial)"/>
<path d="M618.209 479.319C616.021 475.285 613.556 471.561 615.593 470.008C617.63 468.456 617.63 465.351 614.14 462.915C610.649 460.475 604.835 454.27 605.997 451.388C607.159 448.506 609.487 447.176 605.705 442.519C601.923 437.861 596.4 444.736 596.108 448.724C595.817 452.717 600.469 456.482 594.655 460.033C588.841 463.58 585.194 465.949 588.84 469.344C591.456 471.784 592.039 473.337 590.294 479.101C589.216 482.657 590.357 485.96 593.915 487.97H613.124C617.391 486.123 620.267 483.104 618.209 479.319Z" fill="url(#paint6_radial)"/>
<path d="M329.751 474.656C324.515 463.611 310.85 470.973 310.85 470.973C310.85 470.973 310.266 455.112 289.625 450.865C268.165 446.451 256.474 468.989 256.474 468.989C256.474 468.989 239.609 450.581 229.721 478.335C229.721 478.335 230.018 482.739 230.445 487.965H351.539C341.041 483.51 331.611 478.578 329.751 474.656Z" fill="url(#paint7_radial)"/>
<path d="M292.844 470.546H289.937V488H292.844V470.546Z" fill="#797673"/>
<path d="M305.88 452.707C302.389 442.514 300.644 442.514 302.972 435.715C305.301 428.916 305.301 423.822 301.227 418.723C297.158 413.624 298.32 410.793 300.065 401.731C301.743 393.014 292.131 383.78 291.391 383.085V383.039C291.391 383.039 291.38 383.049 291.365 383.064C291.349 383.054 291.339 383.039 291.339 383.039V383.085C290.599 383.78 280.987 393.014 282.664 401.731C284.409 410.793 285.571 413.624 281.502 418.723C277.433 423.822 277.433 428.916 279.757 435.715C282.086 442.514 280.341 442.514 276.85 452.707C273.359 462.9 291.354 474.793 291.354 474.793H291.391C291.391 474.793 309.37 462.9 305.88 452.707Z" fill="url(#paint8_radial)"/>
<path d="M609.534 157.886C608.68 148.966 603.267 140.143 594.28 133.044C583.709 124.693 568.694 118.757 549.657 115.403C527.103 111.43 499.407 111.248 467.335 114.85C445.964 117.25 426.666 116.666 409.979 113.105C395.745 110.07 383.33 104.87 373.077 97.6498C355.316 85.1481 347.194 68.8156 345.517 57.699L348.096 57.3286C349.695 67.9328 357.499 83.5498 374.604 95.5899C384.57 102.602 396.657 107.66 410.542 110.618C426.948 114.114 445.959 114.693 467.043 112.323C499.365 108.69 527.322 108.883 550.126 112.897C569.6 116.326 585.011 122.435 595.926 131.061C605.46 138.595 611.217 148.032 612.134 157.637L609.534 157.886Z" fill="#797673"/>
<path d="M401.487 379.36C370.123 318.693 356.593 274.978 356.036 273.151L371.514 268.656C371.65 269.092 385.242 312.965 415.913 372.287L401.487 379.36Z" fill="url(#paint9_linear)"/>
<path d="M421.868 386.773C430.902 403.344 454.404 413.167 455.811 413.517C457.217 413.867 421.67 424.213 421.67 424.213C421.67 424.213 403.982 402.756 405.337 390.731C405.462 389.62 421.868 386.773 421.868 386.773Z" fill="#A08BE8"/>
<path d="M422.457 421.412L453.774 412.802C453.774 412.802 462.448 415.521 465.392 418.408C467.643 420.615 469.279 426.531 469.925 429.19C470.107 429.931 469.654 430.677 468.898 430.89L438.717 439.287C437.748 439.556 436.743 439.008 436.472 438.059C435.544 434.797 432.924 428.028 431.079 426.405C428.334 423.974 422.457 421.412 422.457 421.412Z" fill="#D0C5F3"/>
<path d="M402.581 388.899C402.607 410.128 414.152 440.57 414.882 442.148C415.887 444.335 416.674 445.842 420.008 444.908C424.15 443.747 441.937 438.764 441.937 438.764L416.361 386.408L402.581 388.899Z" fill="#8065E0"/>
<path d="M421.868 386.773C426.104 396.008 439.962 406.774 462.823 415.699C465.496 416.744 467.137 418.175 467.861 420.636L470.19 428.515C470.534 429.682 469.841 430.895 468.648 431.235L438.66 439.637C437.816 439.875 436.93 439.398 436.685 438.576L433.997 429.479C433.158 426.648 432.142 425.354 428.542 424.106C419.529 420.981 409.604 404.689 405.754 392.207C401.904 379.726 421.868 386.773 421.868 386.773Z" fill="#A08BE8"/>
<path d="M467.007 418.779C467.366 419.327 467.653 419.935 467.861 420.636L470.19 428.515C470.534 429.682 469.841 430.895 468.648 431.235L438.66 439.637C437.816 439.875 436.93 439.398 436.685 438.576L433.997 429.479C433.851 428.992 433.705 428.556 433.538 428.155L467.007 418.779Z" fill="#D0C5F3"/>
<path d="M415.793 363.931L394.938 369.771C393.01 370.309 391.895 372.272 392.453 374.145L397.725 391.989C398.277 393.866 400.294 394.952 402.216 394.409L423.071 388.569C424.999 388.032 426.114 386.068 425.557 384.196L420.284 366.351C419.732 364.479 417.721 363.393 415.793 363.931Z" fill="url(#paint10_radial)"/>
<path d="M370.618 312.691C370.852 313.269 371.092 313.853 371.337 314.441L386.81 309.667C386.565 309.078 386.326 308.495 386.091 307.921L370.618 312.691Z" fill="#A08BE8"/>
<path d="M394.604 327.866L379.105 332.646C379.36 333.219 379.615 333.798 379.871 334.381L395.37 329.597C395.115 329.018 394.854 328.44 394.604 327.866Z" fill="#A08BE8"/>
<path d="M362.756 292.543C362.97 293.121 363.188 293.71 363.413 294.309L378.855 289.544C378.631 288.946 378.407 288.357 378.193 287.779L362.756 292.543Z" fill="#A08BE8"/>
<path d="M403.685 347.639L388.154 352.429C388.425 352.997 388.696 353.57 388.972 354.149L404.503 349.354C404.232 348.781 403.956 348.212 403.685 347.639Z" fill="#A08BE8"/>
<path d="M36.7405 454.524L56.9966 416.034H174.47H223.323L242.412 453.96L215.764 454.549L36.7405 454.524Z" fill="#797673"/>
<path d="M232.628 487.964V453.417L211.689 452.281L169.239 413.202L129.107 452.849L47.6865 455.112V487.964H232.628Z" fill="#FFFACF"/>
<path d="M902.045 210.516C902.045 209.612 902.045 208.77 902.04 207.979C849.404 208.938 803.666 205.558 765.874 197.912C732.192 191.098 704.725 180.9 684.234 167.602C666.062 155.81 656.861 143.719 652.344 135.652C647.457 126.925 646.848 120.903 646.843 120.842L644.243 120.872C643.17 137.996 635 152.497 620.621 162.807C607.664 172.097 590.617 177.308 572.633 177.475C527.437 177.922 504.898 150.188 502.617 122.547L500.022 122.75C501.517 140.893 510.009 155.917 524.582 166.191C537.46 175.273 554.533 180.19 572.664 180.012C591.196 179.84 608.779 174.456 622.174 164.852C635.178 155.526 643.321 142.918 646.004 128.092C649.182 137.139 658.039 153.557 682.489 169.509C703.224 183.041 730.993 193.412 765.024 200.327C798.889 207.207 839.083 210.673 884.873 210.673C890.5 210.673 896.231 210.622 902.045 210.516Z" fill="#797673"/>
<path d="M278.168 123.333C248.138 143.324 211.898 159.255 170.447 170.687C120.99 184.325 63.9411 191.545 0.765623 192.189C0.671844 193.026 0.583276 193.874 0.505127 194.731C64.0244 194.107 121.396 186.852 171.156 173.132C212.877 161.63 249.378 145.582 279.637 125.434C306.598 107.488 323.52 89.5367 332.966 77.6388C343.24 64.7007 347.069 56.1209 347.225 55.7607L347.256 55.6846C348.397 52.5541 349.887 49.4844 350.815 48.2718C350.961 48.9111 351.122 50.1389 351.122 52.4272C351.122 60.7279 361.558 72.5954 377.083 81.9667C387.982 88.5423 410.984 99.5727 442.567 99.5727C470.726 99.5727 494.978 102.541 514.651 108.391C530.333 113.054 543.144 119.548 552.736 127.691C568.991 141.492 570.361 155.47 570.376 155.607L571.674 155.506L572.971 155.404C572.924 154.801 571.569 140.422 554.648 125.951C544.801 117.529 531.672 110.826 515.625 106.026C495.666 100.06 471.081 97.0307 442.567 97.0307C411.63 97.0307 389.118 86.2388 378.453 79.8053C363.892 71.0226 353.722 59.7639 353.722 52.4221C353.722 47.5767 353.071 45.5776 351.393 45.2986C350.664 45.1768 348.455 44.8064 344.813 54.7865C344.261 56.0245 328.495 89.831 278.168 123.333Z" fill="#797673"/>
<path d="M584.23 47.0134L575.592 38.6011L498.162 114.007L420.737 38.6011L412.099 47.0134L496.401 129.112L498.162 127.397L499.928 129.112L584.23 47.0134Z" fill="#9B643D"/>
<path d="M648.14 54.0762H643.216V76.1623H648.14V54.0762Z" fill="#797673"/>
<path d="M653.688 94.3365V93.6769H659.502C659.502 93.6769 653.688 90.8458 653.688 82.3472V76.2232C653.688 71.9156 650.104 68.4248 645.68 68.4248C641.257 68.4248 637.673 71.9156 637.673 76.2232V82.6922C637.626 82.7125 637.595 82.7278 637.595 82.7278C637.595 89.5266 631.973 93.6769 631.973 93.6769H637.673V94.6816C637.626 94.7018 637.595 94.7171 637.595 94.7171C637.595 101.516 631.973 105.666 631.973 105.666H638.85C638.866 105.692 638.882 105.717 638.897 105.737C638.09 106.087 637.595 106.326 637.595 106.326C637.595 113.125 631.973 117.275 631.973 117.275H659.502C659.502 117.275 653.688 114.444 653.688 105.945C653.688 105.844 653.672 105.758 653.667 105.661H659.502C659.502 105.661 653.688 102.83 653.688 94.3365Z" fill="#F7B548"/>
<path d="M659.367 116.849H631.864C630.666 116.849 629.697 117.793 629.697 118.96V119.832C629.697 120.999 630.666 121.943 631.864 121.943H659.367C660.566 121.943 661.535 120.999 661.535 119.832V118.96C661.535 117.793 660.566 116.849 659.367 116.849Z" fill="#797673"/>
<path d="M659.367 104.671H631.864C630.666 104.671 629.697 105.615 629.697 106.782V107.655C629.697 108.822 630.666 109.765 631.864 109.765H659.367C660.566 109.765 661.535 108.822 661.535 107.655V106.782C661.535 105.615 660.566 104.671 659.367 104.671Z" fill="#797673"/>
<path d="M659.367 92.4946H631.864C630.666 92.4946 629.697 93.4384 629.697 94.6053V95.478C629.697 96.645 630.666 97.5887 631.864 97.5887H659.367C660.566 97.5887 661.535 96.645 661.535 95.478V94.6053C661.535 93.4384 660.566 92.4946 659.367 92.4946Z" fill="#797673"/>
<path d="M485.278 154.151C488.534 151.787 489.128 147.261 486.59 144.171L481.563 138.057C478.963 134.937 474.462 134.368 471.508 136.778C468.554 139.193 468.267 143.674 470.862 146.794L475.962 152.989C478.244 155.754 482.365 156.267 485.278 154.151Z" fill="#D0C5F3"/>
<path d="M509.603 170.773L497 162.01C486.486 175.243 476.619 186.735 464.938 192.844C441.671 205.015 414.006 189.809 406.634 185.177L396.24 200.246C418.721 210.505 463.761 235.747 509.603 170.773Z" fill="url(#paint11_linear)"/>
<path d="M467.679 208.395C468.247 208.146 468.82 207.887 469.388 207.613L462.928 193.818C462.349 194.077 461.771 194.315 461.193 194.543L467.679 208.395Z" fill="#A08BE8"/>
<path d="M487.873 195.35C488.342 194.944 488.81 194.528 489.279 194.107L478.536 182.879C478.078 183.31 477.614 183.736 477.151 184.152L487.873 195.35Z" fill="#A08BE8"/>
<path d="M444.958 213.687C445.584 213.662 446.214 213.626 446.844 213.585L446.469 197.446C445.839 197.461 445.208 197.471 444.583 197.461L444.958 213.687Z" fill="#A08BE8"/>
<path d="M422.603 210.861C423.28 211.048 423.957 211.231 424.65 211.409L429.094 195.112C428.485 194.944 427.88 194.767 427.281 194.584L422.603 210.861Z" fill="#A08BE8"/>
<path d="M479.213 440.956H387.118V446.826H479.213V440.956Z" fill="#605D5A"/>
<path d="M676.888 62.1943H315.085C313.908 62.1943 312.955 61.2658 312.955 60.1191V39.8342C312.955 38.6875 313.908 37.759 315.085 37.759H676.888C678.066 37.759 679.019 38.6875 679.019 39.8342V60.114C679.019 61.2658 678.066 62.1943 676.888 62.1943Z" fill="#BF8F68"/>
<path d="M678.972 62.1943H668.766C667.588 62.1943 666.635 61.2658 666.635 60.1191V39.8342C666.635 38.6875 667.588 37.759 668.766 37.759H678.972C680.149 37.759 681.103 38.6875 681.103 39.8342V60.114C681.103 61.2658 680.149 62.1943 678.972 62.1943Z" fill="#9B643D"/>
<path d="M513.604 487.833H477.395C477.27 487.833 477.166 487.731 477.166 487.609V2.27812C477.166 1.01983 478.213 0 479.505 0H513.604C514.896 0 515.943 1.01983 515.943 2.27812V485.56C515.943 486.813 514.896 487.833 513.604 487.833Z" fill="#BF8F68"/>
<path d="M515.943 487.833H505.925C504.633 487.833 503.585 486.813 503.585 485.554V2.27812C503.585 1.01983 504.633 0 505.925 0H513.604C514.896 0 515.943 1.01983 515.943 2.27812V487.833Z" fill="#9B643D"/>
<path d="M449.611 222.363C455.139 201.936 451.658 185.609 451.658 185.609L456.597 185.624L456.722 185.532C449.762 148.002 416.106 119.482 375.547 119.37C329.85 119.239 292.693 155.212 292.563 199.719C292.433 244.226 329.366 280.402 375.062 280.529C411.12 280.63 441.853 258.25 453.284 226.945C453.617 225.615 453.596 223.225 449.611 222.363Z" fill="url(#paint12_radial)"/>
<path d="M452.945 227.873C452.945 227.873 455.253 223.586 449.611 222.368C455.07 202.195 451.747 186.025 451.663 185.634L413.495 185.39C413.495 185.39 408.088 184.842 408.072 189.652C408.056 194.462 408.218 208.06 408.176 223.094C408.166 226.184 410.76 227.685 412.808 227.69L453.289 227.939C453.075 227.893 452.945 227.873 452.945 227.873Z" fill="url(#paint13_radial)"/>
<path d="M447.933 214.676C446.318 215.848 438.05 222.185 438.05 222.185L449.647 222.216C450.402 219.405 450.986 216.67 451.434 214.047C450.309 213.535 449.183 213.768 447.933 214.676Z" fill="#A08BE8"/>
<path d="M452.945 227.873C452.945 227.873 455.253 223.586 449.611 222.368C449.616 222.348 449.621 222.327 449.626 222.302L412.886 222.063C410.922 222.058 408.4 220.912 408.181 219.055C408.181 220.384 408.176 221.729 408.176 223.088C408.166 225.894 410.302 227.381 412.224 227.64C412.417 227.66 412.61 227.685 412.808 227.685L418.58 227.7L453.289 227.934C453.075 227.893 452.945 227.873 452.945 227.873Z" fill="url(#paint14_radial)"/>
<path d="M446.521 240.958L303.837 240.552C307.026 245.859 310.818 250.776 315.122 255.221L435.143 255.56C439.483 251.141 443.307 246.25 446.521 240.958Z" fill="url(#paint15_radial)"/>
<path d="M431.397 259.168C438.514 252.77 444.469 245.175 448.934 236.701L431.459 236.651L431.397 259.168Z" fill="#512BD4"/>
<path d="M381.027 116.291L365.038 116.144L367.445 100.177L378.928 100.283L381.027 116.291Z" fill="#D0C5F3"/>
<path d="M387.045 126.119C387.764 126.124 388.347 125.525 388.274 124.825C387.498 117.427 381.121 111.618 373.306 111.547C365.491 111.476 359 117.163 358.083 124.546C357.994 125.241 358.567 125.855 359.286 125.865L387.045 126.119Z" fill="url(#paint16_radial)"/>
<path d="M438.791 204.71C438.945 198.858 436.174 194.042 432.601 193.953C429.029 193.864 426.007 198.536 425.853 204.388C425.699 210.24 428.47 215.056 432.043 215.145C435.615 215.234 438.637 210.562 438.791 204.71Z" fill="#512BD4"/>
<path d="M432.303 198.963C429.912 201.241 429.876 204.97 432.21 207.299C433.809 208.892 436.112 209.415 438.175 208.851C438.534 207.588 438.753 206.198 438.795 204.737C438.873 201.87 438.238 199.252 437.159 197.319C435.435 197.136 433.642 197.684 432.303 198.963Z" fill="#8065E0"/>
<path d="M373.942 103.332C382.445 103.332 389.337 96.6196 389.337 88.3392C389.337 80.0588 382.445 73.3462 373.942 73.3462C365.44 73.3462 358.547 80.0588 358.547 88.3392C358.547 96.6196 365.44 103.332 373.942 103.332Z" fill="url(#paint17_radial)"/>
<path d="M401.549 135.637C401.336 137.103 402.154 138.585 403.623 139.178C422.873 147.017 437.284 162.995 443.182 182.011C444.771 187.146 451.512 185.791 449.777 180.174C443.312 159.24 427.458 141.644 406.269 133.019C404.524 132.309 402.513 133.11 401.784 134.81C401.669 135.079 401.591 135.358 401.549 135.637Z" fill="url(#paint18_radial)"/>
<path d="M470.158 259.615L466.162 245.048C449.407 248.737 434.283 251.487 421.284 248.965C395.38 243.937 383.976 215.062 381.319 206.919L363.454 212.099C374.093 233.942 392.338 281.325 470.158 259.615Z" fill="url(#paint19_linear)"/>
<path d="M413.23 262.654C413.834 262.811 414.444 262.968 415.058 263.11L419.091 248.467C418.476 248.31 417.877 248.133 417.278 247.95L413.23 262.654Z" fill="#A08BE8"/>
<path d="M437.336 265.105C437.961 265.084 438.597 265.049 439.238 265.018L438.284 249.701C437.649 249.746 437.013 249.792 436.388 249.822L437.336 265.105Z" fill="#A08BE8"/>
<path d="M392.25 252.659C392.75 253.029 393.255 253.389 393.771 253.749L404.029 241.065C403.534 240.684 403.039 240.304 402.565 239.908L392.25 252.659Z" fill="#A08BE8"/>
<path d="M376.854 236.621C377.25 237.184 377.656 237.747 378.073 238.31L392.15 228.497C391.791 227.99 391.437 227.478 391.098 226.97L376.854 236.621Z" fill="#A08BE8"/>
<path d="M371.639 219.441C380.029 219.441 386.831 212.817 386.831 204.645C386.831 196.474 380.029 189.85 371.639 189.85C363.249 189.85 356.447 196.474 356.447 204.645C356.447 212.817 363.249 219.441 371.639 219.441Z" fill="url(#paint20_radial)"/>
<path d="M374.999 272.517C374.994 272.517 374.994 272.517 374.989 272.517C355.087 272.461 336.394 264.861 322.363 251.111C308.328 237.366 300.633 219.121 300.69 199.734C300.742 182.407 307.166 165.648 318.774 152.553C320.092 151.066 322.395 150.904 323.916 152.188C325.443 153.471 325.609 155.714 324.296 157.195C313.824 169.012 308.031 184.127 307.984 199.759C307.932 217.243 314.877 233.703 327.537 246.108C340.197 258.508 357.056 265.368 375.015 265.419C377.031 265.424 378.657 267.017 378.651 268.981C378.641 270.934 377.01 272.517 374.999 272.517Z" fill="url(#paint21_radial)"/>
<path d="M475.671 246.884L485.023 235.722C487.492 232.734 486.809 228.472 483.506 226.204C480.198 223.936 475.52 224.524 473.05 227.513L463.464 238.954L475.671 246.884Z" fill="#D0C5F3"/>
<path d="M463.584 264.856L476.332 273.41C479.745 275.668 484.231 274.958 486.356 271.827C488.482 268.696 487.44 264.328 484.027 262.07L470.956 253.298L463.584 264.856Z" fill="#D0C5F3"/>
<path d="M476.587 254.678L490.769 248.64C494.536 247.006 496.276 242.922 494.65 239.517C493.025 236.113 488.654 234.672 484.887 236.305L470.346 242.495L476.587 254.678Z" fill="#D0C5F3"/>
<path d="M470.961 260.31L486.262 262.558C490.342 263.131 494.046 260.574 494.536 256.85C495.026 253.125 492.113 249.64 488.029 249.066L472.336 246.758L470.961 260.31Z" fill="#D0C5F3"/>
<path d="M457.462 241.516C463.948 236.371 473.832 237.016 479.536 242.952C485.241 248.888 484.611 257.869 478.125 263.014C471.638 268.159 461.755 267.514 456.05 261.578C450.345 255.642 450.976 246.656 457.462 241.516Z" fill="url(#paint22_radial)"/>
<path d="M506.117 170.347C506.05 173.909 508.952 176.856 512.609 176.938L521.471 177.135C525.597 177.201 528.952 174.213 528.963 170.458C528.978 166.704 525.644 163.609 521.518 163.543L513.536 163.264C509.535 163.122 506.19 166.207 506.117 170.103V170.347Z" fill="#D0C5F3"/>
<path d="M505.049 157.175C508.373 159.448 512.973 158.591 515.193 155.278L519.59 148.717C521.82 145.338 520.976 140.995 517.699 139.016C514.422 137.037 509.957 138.169 507.727 141.543L503.278 148.2C501.288 151.168 502.074 155.135 505.049 157.175Z" fill="#D0C5F3"/>
<path d="M506.482 162.706C508.212 166.227 512.52 167.744 516.162 166.115L523.664 162.761C527.4 161.062 529.062 156.947 527.368 153.573C525.68 150.199 521.283 148.839 517.548 150.539L509.811 153.898C506.352 155.394 504.846 159.382 506.482 162.706Z" fill="#D0C5F3"/>
<path d="M533.881 393.598H518.246V238.259H533.881V229.634H513.818C511.374 229.634 509.389 231.567 509.389 233.946V397.91C509.389 400.29 511.374 402.223 513.818 402.223H533.881V393.598Z" fill="#605D5A"/>
<path d="M642.987 414.714C598.031 421.807 559.503 417.5 542.337 414.745C536.825 413.857 532.792 409.199 532.792 403.76V212.169H652.954C652.954 212.169 653.542 353.763 653.079 403.278C653.032 408.976 648.765 413.801 642.987 414.714Z" fill="white"/>
<path d="M642.987 414.714C598.031 421.807 559.503 417.5 542.337 414.745C536.825 413.857 532.792 409.199 532.792 403.76V212.169H652.954C652.954 212.169 653.542 353.763 653.079 403.278C653.032 408.976 648.765 413.801 642.987 414.714Z" fill="white"/>
<path d="M153.245 474.372H137.229V487.964H153.245V474.372Z" fill="#E0BB95"/>
<path d="M196.487 474.372H180.472V487.964H196.487V474.372Z" fill="#E0BB95"/>
<path d="M133.968 474.372H117.953V487.964H133.968V474.372Z" fill="#E0BB95"/>
<path d="M215.764 474.372H199.748V487.964H215.764V474.372Z" fill="#E0BB95"/>
<path d="M96.3887 474.372H72.3293V487.964H96.3887V474.372Z" fill="#E0BB95"/>
<path d="M400.7 487.964L355.342 442.087L311.72 487.964H400.7Z" fill="#E38BB0"/>
<path d="M357.755 447.445C357.119 446.816 356.249 446.461 355.343 446.461C354.436 446.461 353.566 446.816 352.93 447.45L331.466 468.73L313.174 487.969H321.551L355.343 454.467L389.181 487.964H398.684L357.755 447.445Z" fill="#CE6F9F"/>
<path d="M377.448 129.006C360.146 139.945 339.369 145.526 331.877 147.297C330.273 147.677 328.647 146.769 328.168 145.232L324.807 134.485C324.802 134.485 398.976 115.393 377.448 129.006Z" fill="#605D5A"/>
<path d="M411.964 119.761C411.964 119.761 410.422 67.2428 363.678 72.9457C312.178 79.2321 319.332 124.627 318.795 130.269C318.253 135.911 394.683 128.458 401.169 127.605C407.65 126.758 410.552 119.092 411.964 119.761Z" fill="url(#paint23_radial)"/>
<path d="M318.524 130.36L307.442 134.074C306.703 134.323 306.249 135.043 306.353 135.794L306.484 136.753C306.604 137.611 307.401 138.219 308.281 138.123C318.185 137.093 370.305 132.806 380.152 131.903C391.015 130.908 404.628 132.755 415.433 131.334L434.45 128.808C435.346 128.691 435.976 127.889 435.851 127.017L435.752 126.311C435.664 125.657 435.169 125.124 434.507 124.972L412.308 119.837C412.078 119.781 411.844 119.781 411.609 119.827C406.879 120.761 354.832 130.837 319.066 130.274C318.889 130.274 318.701 130.304 318.524 130.36Z" fill="#FAE969"/>
<path d="M401.893 121.04L400.414 113.891C400.216 112.937 399.278 112.298 398.288 112.45L388.009 114.013C387.029 114.16 386.342 115.028 386.435 115.987L387.159 123.338C387.264 124.389 388.259 125.135 389.327 124.962L400.361 123.196C401.409 123.029 402.102 122.05 401.893 121.04Z" fill="#FAE969"/>
<path d="M343.011 129.188L342.271 121.623C342.187 120.75 341.39 120.111 340.494 120.187L329.626 121.151C328.793 121.227 328.152 121.897 328.142 122.709C328.089 125.647 328.006 132.09 328.339 132.035C328.678 131.979 337.738 131.233 341.526 130.923C342.427 130.852 343.094 130.071 343.011 129.188Z" fill="#FAE969"/>
<path d="M327.485 98.6999C329.647 93.1289 347.413 70.9413 378.86 77.6742C385.242 79.039 388.894 84.681 379.23 82.4841C351.357 76.1368 333.711 91.7386 327.485 98.6999Z" fill="white"/>
<path d="M652.959 212.169H532.797V228.811H614.291C618.006 228.811 621.017 231.734 621.033 235.346C621.137 263.181 621.522 372.485 621.158 417.368C628.222 416.759 635.537 415.891 643.029 414.709C648.791 413.801 653.037 408.966 653.089 403.283C653.548 353.768 652.959 212.169 652.959 212.169Z" fill="url(#paint24_radial)"/>
<path d="M620.517 193.92H602.079C601.36 193.92 600.776 193.351 600.776 192.651V162.239C600.776 161.539 601.36 160.971 602.079 160.971H620.517C621.236 160.971 621.819 161.539 621.819 162.239V192.651C621.819 193.351 621.241 193.92 620.517 193.92Z" fill="#72ACF1"/>
<path d="M624.346 189.099H597.426C596.77 189.099 596.239 189.617 596.239 190.256V206.025C596.239 206.665 596.77 207.182 597.426 207.182H624.346C625.002 207.182 625.534 206.665 625.534 206.025V190.256C625.534 189.617 625.002 189.099 624.346 189.099Z" fill="white"/>
<path d="M625.196 181.58H596.52V185.238H625.196V181.58Z" fill="white"/>
<path d="M625.196 174.436H596.52V178.094H625.196V174.436Z" fill="white"/>
<path d="M625.196 167.287H596.52V170.945H625.196V167.287Z" fill="white"/>
<path d="M625.196 160.138H596.52V163.796H625.196V160.138Z" fill="white"/>
<path d="M615.635 154.654H606.075V163.629H615.635V154.654Z" fill="white"/>
<path d="M532.797 206.183C532.797 206.183 563.52 196.208 593.561 196.208C623.601 196.208 654.324 208.841 654.324 208.841L532.797 206.183Z" fill="#605D5A"/>
<path d="M576.493 154.654H566.933V163.629H576.493V154.654Z" fill="white"/>
<path d="M581.374 193.92H562.937C562.218 193.92 561.634 193.351 561.634 192.651V162.239C561.634 161.539 562.218 160.971 562.937 160.971H581.374C582.093 160.971 582.677 161.539 582.677 162.239V192.651C582.677 193.351 582.093 193.92 581.374 193.92Z" fill="#72ACF1"/>
<path d="M585.204 189.099H558.284C557.628 189.099 557.096 189.617 557.096 190.256V206.025C557.096 206.665 557.628 207.182 558.284 207.182H585.204C585.86 207.182 586.392 206.665 586.392 206.025V190.256C586.392 189.617 585.86 189.099 585.204 189.099Z" fill="white"/>
<path d="M586.048 181.58H557.373V185.238H586.048V181.58Z" fill="white"/>
<path d="M586.048 174.436H557.373V178.094H586.048V174.436Z" fill="white"/>
<path d="M586.048 167.287H557.373V170.945H586.048V167.287Z" fill="white"/>
<path d="M586.048 160.138H557.373V163.796H586.048V160.138Z" fill="white"/>
<path d="M662.53 217.487H522.758C522.091 217.487 521.549 216.96 521.549 216.31V206.031C521.549 205.381 522.091 204.854 522.758 204.854H662.53C663.197 204.854 663.738 205.381 663.738 206.031V216.31C663.738 216.96 663.197 217.487 662.53 217.487Z" fill="#3E8EED"/>
<path d="M628.675 477.67C627.842 477.67 627.003 477.37 626.352 476.772C624.992 475.523 624.93 473.433 626.216 472.109L675.648 421.138C676.279 420.483 677.159 420.113 678.081 420.103C679.019 420.093 679.889 420.453 680.53 421.097L729.383 469.805C730.691 471.109 730.665 473.195 729.326 474.468C727.987 475.742 725.846 475.716 724.538 474.412L678.149 428.16L631.135 476.635C630.473 477.32 629.577 477.67 628.675 477.67Z" fill="white"/>
<path d="M128.529 451.002H212.857L169.239 413.202L128.529 451.002Z" fill="#F4EDBE"/>
<path d="M125.038 457.821H40.1269C38.2566 457.821 36.7405 456.345 36.7405 454.524C36.7405 452.702 38.2566 451.226 40.1269 451.226H123.673L166.306 411.366C167.593 410.164 169.614 410.138 170.932 411.305L215.326 450.657H239.021C240.891 450.657 242.407 452.134 242.407 453.955C242.407 455.777 240.891 457.253 239.021 457.253H214.013C213.169 457.253 212.356 456.949 211.731 456.396L168.708 418.256L127.372 456.898C126.752 457.492 125.913 457.821 125.038 457.821Z" fill="#E8D441"/>
<path d="M357.755 440.342C357.119 439.713 356.249 439.358 355.342 439.358C354.436 439.358 353.566 439.713 352.93 440.347L304.895 487.97H314.387L355.342 447.364L396.36 487.97H405.863L357.755 440.342Z" fill="white"/>
<defs>
<linearGradient id="paint0_linear" x1="451.03" y1="487.964" x2="451.03" y2="11.6174" gradientUnits="userSpaceOnUse">
<stop offset="0.0781" stop-color="#A7CBF6"/>
<stop offset="0.2434" stop-color="#72ACF1"/>
</linearGradient>
<radialGradient id="paint1_radial" cx="0" cy="0" r="1" gradientUnits="userSpaceOnUse" gradientTransform="translate(566.672 520.054) scale(95.8104 93.3067)">
<stop offset="0.187" stop-color="#56A84F"/>
<stop offset="0.8208" stop-color="#4E9668"/>
</radialGradient>
<radialGradient id="paint2_radial" cx="0" cy="0" r="1" gradientUnits="userSpaceOnUse" gradientTransform="translate(813.283 422.673) scale(76.5758 74.5746)">
<stop offset="0.27" stop-color="#4E9668"/>
<stop offset="0.2961" stop-color="#4C9466"/>
<stop offset="0.748" stop-color="#2D7C4F"/>
<stop offset="1" stop-color="#217346"/>
</radialGradient>
<linearGradient id="paint3_linear" x1="397.77" y1="256.937" x2="397.77" y2="383.111" gradientUnits="userSpaceOnUse">
<stop offset="0.0615" stop-color="#958FE7"/>
<stop offset="0.2206" stop-color="#BBB7EF"/>
</linearGradient>
<radialGradient id="paint4_radial" cx="0" cy="0" r="1" gradientUnits="userSpaceOnUse" gradientTransform="translate(424.256 359.735) rotate(-174.269) scale(25.542 24.8881)">
<stop stop-color="#8065E0"/>
<stop offset="1" stop-color="#512BD4"/>
</radialGradient>
<radialGradient id="paint5_radial" cx="0" cy="0" r="1" gradientUnits="userSpaceOnUse" gradientTransform="translate(22.6277 458.769) scale(54.9401 53.5043)">
<stop offset="0.27" stop-color="#4E9668"/>
<stop offset="0.296" stop-color="#4C9466"/>
<stop offset="0.747" stop-color="#2D7C4F"/>
<stop offset="0.9984" stop-color="#217346"/>
</radialGradient>
<radialGradient id="paint6_radial" cx="0" cy="0" r="1" gradientUnits="userSpaceOnUse" gradientTransform="translate(578.586 481.389) scale(57.4117 43.7731)">
<stop offset="0.27" stop-color="#4E9668"/>
<stop offset="0.296" stop-color="#4C9466"/>
<stop offset="0.747" stop-color="#2D7C4F"/>
<stop offset="0.9984" stop-color="#217346"/>
</radialGradient>
<radialGradient id="paint7_radial" cx="0" cy="0" r="1" gradientUnits="userSpaceOnUse" gradientTransform="translate(278.124 504.161) scale(70.1742 68.3403)">
<stop offset="0.187" stop-color="#56A84F"/>
<stop offset="0.8208" stop-color="#4E9668"/>
</radialGradient>
<radialGradient id="paint8_radial" cx="0" cy="0" r="1" gradientUnits="userSpaceOnUse" gradientTransform="translate(257.185 456.195) scale(92.4056 89.9909)">
<stop offset="0.27" stop-color="#4E9668"/>
<stop offset="0.296" stop-color="#4C9466"/>
<stop offset="0.747" stop-color="#2D7C4F"/>
<stop offset="0.9984" stop-color="#217346"/>
</radialGradient>
<linearGradient id="paint9_linear" x1="385.973" y1="268.654" x2="385.973" y2="379.358" gradientUnits="userSpaceOnUse">
<stop offset="0.0388" stop-color="#958FE7"/>
<stop offset="0.1985" stop-color="#BBB7EF"/>
</linearGradient>
<radialGradient id="paint10_radial" cx="0" cy="0" r="1" gradientUnits="userSpaceOnUse" gradientTransform="translate(407.086 367.15) rotate(164.352) scale(25.4983 24.9302)">
<stop stop-color="#8065E0"/>
<stop offset="1" stop-color="#512BD4"/>
</radialGradient>
<linearGradient id="paint11_linear" x1="401.964" y1="160.392" x2="499.655" y2="208.011" gradientUnits="userSpaceOnUse">
<stop offset="0.2239" stop-color="#958FE7"/>
<stop offset="0.4264" stop-color="#BBB7EF"/>
</linearGradient>
<radialGradient id="paint12_radial" cx="0" cy="0" r="1" gradientUnits="userSpaceOnUse" gradientTransform="translate(390.459 177.717) rotate(-9.93412) scale(82.6891 80.6585)">
<stop offset="0.4744" stop-color="#A08BE8"/>
<stop offset="0.8618" stop-color="#8065E0"/>
</radialGradient>
<radialGradient id="paint13_radial" cx="0" cy="0" r="1" gradientUnits="userSpaceOnUse" gradientTransform="translate(430.225 200.996) rotate(-9.93414) scale(58.1185 56.6914)">
<stop offset="0.2022" stop-color="#E1DFDD"/>
<stop offset="0.7337" stop-color="white"/>
</radialGradient>
<radialGradient id="paint14_radial" cx="0" cy="0" r="1" gradientUnits="userSpaceOnUse" gradientTransform="translate(412.773 225.402) rotate(-9.93411) scale(34.6347 33.7842)">
<stop stop-color="#512BD4"/>
<stop offset="0.5045" stop-color="#6645D9"/>
<stop offset="0.7759" stop-color="#7659DD"/>
<stop offset="1" stop-color="#8065E0"/>
</radialGradient>
<radialGradient id="paint15_radial" cx="0" cy="0" r="1" gradientUnits="userSpaceOnUse" gradientTransform="translate(330.366 248.851) rotate(-9.93414) scale(51.4059 50.1436)">
<stop offset="0.4614" stop-color="#A08BE8"/>
<stop offset="0.5268" stop-color="#A793EA"/>
<stop offset="0.8352" stop-color="#C5B7F0"/>
<stop offset="1" stop-color="#D0C5F3"/>
</radialGradient>
<radialGradient id="paint16_radial" cx="0" cy="0" r="1" gradientUnits="userSpaceOnUse" gradientTransform="translate(372.349 120.095) rotate(-9.93414) scale(12.1868 11.8875)">
<stop stop-color="#8065E0"/>
<stop offset="0.8628" stop-color="#512BD4"/>
</radialGradient>
<radialGradient id="paint17_radial" cx="0" cy="0" r="1" gradientUnits="userSpaceOnUse" gradientTransform="translate(376.918 80.5381) rotate(-9.93413) scale(21.3921 20.8668)">
<stop stop-color="#A08BE8"/>
<stop offset="1" stop-color="#8065E0"/>
</radialGradient>
<radialGradient id="paint18_radial" cx="0" cy="0" r="1" gradientUnits="userSpaceOnUse" gradientTransform="translate(425.873 159.013) rotate(-81.8102) scale(24.9677 25.6108)">
<stop offset="0.3607" stop-color="#BDB9F0"/>
<stop offset="0.5611" stop-color="#C3BCEB" stop-opacity="0.3855"/>
<stop offset="0.6338" stop-color="#CEC3E2" stop-opacity="0.3217"/>
<stop offset="0.8689" stop-color="#EDD6C9" stop-opacity="0.1152"/>
<stop offset="1" stop-color="#F9DDBF" stop-opacity="0"/>
</radialGradient>
<linearGradient id="paint19_linear" x1="393.71" y1="184.551" x2="438.033" y2="281.794" gradientUnits="userSpaceOnUse">
<stop offset="0.2239" stop-color="#958FE7"/>
<stop offset="0.4264" stop-color="#BBB7EF"/>
</linearGradient>
<radialGradient id="paint20_radial" cx="0" cy="0" r="1" gradientUnits="userSpaceOnUse" gradientTransform="translate(372.32 198.459) scale(22.5655 21.9758)">
<stop stop-color="#8065E0"/>
<stop offset="0.8628" stop-color="#512BD4"/>
</radialGradient>
<radialGradient id="paint21_radial" cx="0" cy="0" r="1" gradientUnits="userSpaceOnUse" gradientTransform="translate(339.669 211.921) scale(51.9181 50.5614)">
<stop offset="0.4251" stop-color="#BDB9F0"/>
<stop offset="0.7746" stop-color="#C3BCEB" stop-opacity="0.3855"/>
<stop offset="0.812" stop-color="#CEC3E2" stop-opacity="0.3217"/>
<stop offset="0.9327" stop-color="#EDD6C9" stop-opacity="0.1152"/>
<stop offset="1" stop-color="#F9DDBF" stop-opacity="0"/>
</radialGradient>
<radialGradient id="paint22_radial" cx="0" cy="0" r="1" gradientUnits="userSpaceOnUse" gradientTransform="translate(467.255 243.986) rotate(-176.939) scale(26.3733 23.9731)">
<stop stop-color="#A08BE8"/>
<stop offset="1" stop-color="#8065E0"/>
</radialGradient>
<radialGradient id="paint23_radial" cx="0" cy="0" r="1" gradientUnits="userSpaceOnUse" gradientTransform="translate(377.183 82.1798) rotate(-7.47407) scale(39.5302 38.5327)">
<stop offset="0.1473" stop-color="#FAE969"/>
<stop offset="1" stop-color="#E8D441"/>
</radialGradient>
<radialGradient id="paint24_radial" cx="0" cy="0" r="1" gradientUnits="userSpaceOnUse" gradientTransform="translate(562.405 315.634) scale(259.878 253.087)">
<stop stop-color="#C7E0F4"/>
<stop offset="0.1868" stop-color="#D4E7F7"/>
<stop offset="0.6999" stop-color="#F3F8FD"/>
<stop offset="0.9862" stop-color="white"/>
</radialGradient>
</defs>
</svg>
