<svg width="896" height="499" viewBox="0 0 896 499" fill="none" xmlns="http://www.w3.org/2000/svg">
<path d="M895.866 0H1.04956V265.166H895.866V0Z" fill="url(#paint0_radial)"/>
<path d="M150.893 161.649C179.241 161.649 202.222 138.653 202.222 110.286C202.222 81.9194 179.241 58.9236 150.893 58.9236C122.545 58.9236 99.5638 81.9194 99.5638 110.286C99.5638 138.653 122.545 161.649 150.893 161.649Z" fill="url(#paint1_radial)"/>
<path d="M895.587 241.119V219.139C894.025 219.119 892.453 219.129 890.867 219.169C870.681 219.716 835.618 229.044 811.2 241.114H895.587V241.119Z" fill="#E86E58"/>
<path d="M895.378 240.577H0.472595V354.173H895.378V240.577Z" fill="#E0BB95"/>
<path d="M416.003 268.744C418.466 270.969 421.729 272.328 425.305 272.328C428.887 272.328 432.15 270.969 434.607 268.744H416.003Z" fill="#FADCBD"/>
<path d="M396.31 268.744C398.773 270.969 402.036 272.328 405.612 272.328C409.194 272.328 412.457 270.969 414.914 268.744H396.31Z" fill="#FADCBD"/>
<path d="M755.658 226.789C721.375 200.851 659.501 189.249 615.046 214.047C609.356 217.222 603.118 220.084 596.453 222.509C568.373 222.548 537.842 222.708 505.927 222.952C494.894 218.974 483.852 213.335 473.043 205.709C422.236 169.872 343.111 171.539 287.311 203.211C231.505 234.883 238.17 223.215 208.186 210.712C179.116 198.592 100.738 190.389 53.4777 229.387C24.9506 213.071 6.21277 223.489 0.243713 230.413C0.382991 239.741 0.243713 252.637 0.243713 252.637H784.294C778.39 246.321 770.421 237.988 755.658 226.789Z" fill="url(#paint2_linear)"/>
<path d="M18.2753 294.085H0.368103V348.563H18.2753V294.085Z" fill="#FFFACF"/>
<path d="M135.01 241.647C156.078 241.647 173.157 225.094 173.157 204.674C173.157 184.255 156.078 167.701 135.01 167.701C113.942 167.701 96.8629 184.255 96.8629 204.674C96.8629 225.094 113.942 241.647 135.01 241.647Z" fill="url(#paint3_radial)"/>
<path d="M271.418 186.934C297.291 186.934 318.265 166.606 318.265 141.53C318.265 116.454 297.291 96.1252 271.418 96.1252C245.545 96.1252 224.571 116.454 224.571 141.53C224.571 166.606 245.545 186.934 271.418 186.934Z" fill="url(#paint4_radial)"/>
<path d="M186.453 155.706H178.957V242.941H186.453V155.706Z" fill="#ED9583"/>
<path d="M192.054 159.459H214.095C214.095 159.459 211.887 153.292 204.38 151.54C198.725 150.22 192.945 149.797 189.811 149.658L208.126 140.843C208.126 140.843 201.878 136.537 194.939 138.618C191.93 139.519 189.498 141.102 187.702 142.605C187.702 142.57 187.702 142.535 187.702 142.505C187.702 135.004 182.564 130.978 182.564 130.978L182.559 131.007V130.978C182.559 130.978 177.42 135.004 177.42 142.505C177.42 142.565 177.42 142.63 177.42 142.704C175.615 141.171 173.142 139.539 170.063 138.613C163.124 136.527 156.877 140.838 156.877 140.838L175.192 149.653C172.063 149.787 166.283 150.211 160.622 151.535C153.116 153.287 150.908 159.454 150.908 159.454H172.948C170.68 161.445 168.327 163.819 166.452 166.397C163.119 170.982 164.925 177.094 164.925 177.094L182.499 163.64L200.073 177.094C200.073 177.094 201.878 170.982 198.546 166.397C196.675 163.819 194.323 161.445 192.054 159.459Z" fill="#ED9583"/>
<path d="M91.1531 319.453L179.092 319.453L179.092 204.538L91.1531 204.538L91.1531 319.453Z" fill="#FFFACF"/>
<path d="M895.955 377.97H0V498.241H895.955V377.97Z" fill="url(#paint5_radial)"/>
<path d="M896 356.303H0V447.257H896V356.303Z" fill="url(#paint6_radial)"/>
<path d="M790.303 321.481C789.671 321.481 789.164 320.968 789.164 320.341V269.989C789.164 269.357 789.676 268.849 790.303 268.849C790.935 268.849 791.442 269.362 791.442 269.989V320.336C791.442 320.968 790.93 321.481 790.303 321.481Z" fill="#FFFACF"/>
<path d="M789.159 315.921V273.005L765.969 315.921H789.159Z" fill="#FFD590"/>
<path d="M810.424 315.921L791.641 282.417V315.921H810.424Z" fill="#FFD590"/>
<path d="M818.407 319.928H762.189V322.202C762.189 322.202 767.561 323.755 769.834 327.374C773.142 327.479 799.804 327.374 805.594 327.374C811.384 327.374 818.407 319.928 818.407 319.928Z" fill="#E86E58"/>
<path d="M217.557 282.491L325.557 282.491L325.557 141.364L217.557 141.364L217.557 282.491Z" fill="#FFFACF"/>
<path d="M260.592 101.357L284.469 101.357L284.469 81.6312L260.592 81.6312L260.592 101.357Z" fill="#FADCBD"/>
<path d="M284.465 81.6358L275.721 70.1079H269.334C269.334 70.1079 259.893 81.6358 260.589 81.6358C261.285 81.6358 284.465 81.6358 284.465 81.6358Z" fill="#E86E58"/>
<path d="M234.544 216.371C237.509 216.371 239.911 218.775 239.911 221.742V238.875H229.182V221.742C229.177 218.775 231.579 216.371 234.544 216.371Z" fill="#FFD590"/>
<path d="M259.435 216.371C262.4 216.371 264.802 218.775 264.802 221.742V238.875H254.073V221.742C254.073 218.775 256.475 216.371 259.435 216.371Z" fill="#FFD590"/>
<path d="M363.605 288.326V288.316H373.598V298.271H383.547V308.226H393.495V318.181H403.443V328.131L403.448 328.136H413.392V338.071L413.412 338.091H423.34V348.011L362.759 348.046L363.605 288.326Z" fill="#FADCBD"/>
<path d="M285.696 172.716L296.684 172.716L296.684 157.753L285.696 157.753L285.696 172.716Z" fill="#FFD590"/>
<path d="M244.908 172.716L255.896 172.716L255.896 157.753L244.908 157.753L244.908 172.716Z" fill="#FFD590"/>
<path d="M218.328 195.859V195.849H208.335V205.804H198.387V215.759H188.438V225.714H178.49V235.664L178.485 235.669H168.541V245.604L168.521 245.624H158.593V255.544L219.174 255.579L218.328 195.859Z" fill="#FFD590"/>
<path d="M147.755 352.398L235.694 352.398L235.694 265.158L147.755 265.158L147.755 352.398Z" fill="#FADCBD"/>
<path d="M229.759 265.156C229.684 244.798 212.638 228.317 191.617 228.317C170.596 228.317 153.549 244.798 153.474 265.156H229.759Z" fill="url(#paint7_radial)"/>
<path d="M208.952 281.925H321.667V260.81H365.117V348.045L208.952 347.488V281.925Z" fill="#FFD590"/>
<path d="M319.782 285.986L321.667 281.925V347.652L299.239 347.488L319.782 285.986Z" fill="#E0BB95"/>
<path d="M343.877 296.096C348.936 296.096 353.04 300.202 353.04 305.264V348.046H334.715V305.264C334.72 300.197 338.818 296.096 343.877 296.096Z" fill="#E0BB95"/>
<path d="M75.7473 292.019V263.777H15.2211V346.562H150.893V292.019H75.7473Z" fill="#FFD590"/>
<path d="M173.331 301.417C178.39 301.417 182.494 305.523 182.494 310.585V353.367H164.169V310.585C164.174 305.523 168.273 301.417 173.331 301.417Z" fill="#E0BB95"/>
<path d="M122.853 217.242C125.818 217.242 128.22 219.647 128.22 222.613V239.746H117.491V222.613C117.486 219.647 119.888 217.242 122.853 217.242Z" fill="#FFD590"/>
<path d="M150.798 217.242C153.763 217.242 156.165 219.647 156.165 222.613V239.746H145.436V222.613C145.436 219.647 147.839 217.242 150.798 217.242Z" fill="#FFD590"/>
<path d="M128.215 232.13V222.608C128.215 219.641 125.813 217.237 122.848 217.237C119.884 217.237 117.481 219.641 117.481 222.608V225.699L128.215 232.13Z" fill="#E0BB95"/>
<path d="M156.165 232.269V222.608C156.165 219.641 153.763 217.237 150.798 217.237C147.834 217.237 145.431 219.641 145.431 222.608V225.838L156.165 232.269Z" fill="#E0BB95"/>
<path d="M353.04 321.63V305.259C353.04 300.197 348.936 296.091 343.877 296.091C338.818 296.091 334.715 300.197 334.715 305.259V310.655L353.04 321.63Z" fill="#ED9583"/>
<path d="M237.051 265.166H146.267V270.72H237.051V265.166Z" fill="#FFFACF"/>
<path d="M316.912 151.818H217.522V146.632H321.727L316.912 151.818Z" fill="#FADCBD"/>
<path d="M170.531 213.653H91.0182V209.487H174.396L170.531 213.653Z" fill="#FADCBD"/>
<path d="M182.494 324.363V310.585C182.494 305.523 178.39 301.417 173.331 301.417C168.273 301.417 164.169 305.523 164.169 310.585V313.387L182.494 324.363Z" fill="#ED9583"/>
<path d="M290.768 268.227C294.319 268.227 297.199 270.327 297.199 272.921V283.129H284.336V272.921C284.341 270.327 287.216 268.227 290.768 268.227Z" fill="#FADCBD"/>
<path d="M269.672 268.227C273.224 268.227 276.104 270.327 276.104 272.921V283.129H263.24V272.921C263.24 270.327 266.12 268.227 269.672 268.227Z" fill="#FADCBD"/>
<path d="M308.217 278.64H255.098V282.343H308.217V278.64Z" fill="#FADCBD"/>
<path d="M270.587 249.247H331.939L301.96 232.16L270.587 249.247Z" fill="#ED9583"/>
<path d="M300.016 283.372L303.9 283.372L303.9 250.312L300.016 250.312L300.016 283.372Z" fill="#FFD590"/>
<path d="M270.583 253.97L331.94 253.97L331.94 249.247L270.583 249.247L270.583 253.97Z" fill="#FFD590"/>
<path d="M208.953 288.038L321.669 288.038L321.669 281.925L208.953 281.925L208.953 288.038Z" fill="#ED9583"/>
<path d="M368.41 260.432H321.17V266.186H368.41V260.432Z" fill="#FFFACF"/>
<path d="M868.373 262.134C870.835 264.359 874.098 265.718 877.675 265.718C881.251 265.718 884.52 264.359 886.977 262.134H868.373Z" fill="#FADCBD"/>
<path d="M848.68 262.134C851.143 264.359 854.406 265.718 857.982 265.718C861.564 265.718 864.827 264.359 867.284 262.134H848.68Z" fill="#FADCBD"/>
<path d="M809.866 262.134C812.329 264.359 815.592 265.718 819.168 265.718C822.75 265.718 826.013 264.359 828.47 262.134H809.866Z" fill="#FADCBD"/>
<path d="M147.749 277.943H91.1574V291.696H147.749V277.943Z" fill="#FFD590"/>
<path d="M147.794 278.674L141.268 282.945L142.561 268.495L134.418 281.462L130.349 266.833L125.534 279.979L119.242 267.386L118.317 283.313L109.801 277.943L117.575 296.28L147.56 296.096L147.794 293.915V278.674Z" fill="#ED9583"/>
<path d="M75.7821 291.969V263.916H37.988V302.113H147.744V291.969H75.7821Z" fill="#FFFACF"/>
<path d="M147.749 310.177V310.167H137.756V320.122H127.807V330.077H117.859V340.032H107.911V349.987H107.906L148.595 350.539L147.749 310.177Z" fill="#FFFACF"/>
<path d="M79.4481 262.318H12.2614V267.689H79.4481V262.318Z" fill="#FFFACF"/>
<path d="M62.4115 285.165C62.4115 285.12 62.4164 285.076 62.4164 285.026V277.525C62.4164 274.762 60.178 272.522 57.4174 272.522C54.6567 272.522 52.4183 274.762 52.4183 277.525V285.026C52.4183 285.071 52.4232 285.12 52.4232 285.165H62.4115Z" fill="#FFD590"/>
<path d="M40.5349 329.062C43.4995 329.062 45.9021 331.466 45.9021 334.432V351.565H35.1677V334.432C35.1677 331.466 37.5703 329.062 40.5349 329.062Z" fill="#E0BB95"/>
<path d="M68.48 329.062C71.4446 329.062 73.8472 331.466 73.8472 334.432V351.565H63.1178V334.432C63.1178 331.466 65.5203 329.062 68.48 329.062Z" fill="#E0BB95"/>
<path d="M45.8971 343.949V334.427C45.8971 331.461 43.4945 329.057 40.5299 329.057C37.5653 329.057 35.1627 331.461 35.1627 334.427V337.518L45.8971 343.949Z" fill="#ED9583"/>
<path d="M73.8471 344.089V334.427C73.8471 331.461 71.4446 329.057 68.48 329.057C65.5153 329.057 63.1128 331.461 63.1128 334.427V337.658L73.8471 344.089Z" fill="#ED9583"/>
<path d="M895.254 346.826H0V357.797H895.254V346.826Z" fill="#E86E58"/>
<path d="M540.06 311.317H477.833C468.795 311.317 461.473 303.985 461.473 294.946V207.118C461.473 198.074 468.8 190.747 477.833 190.747H540.06C549.098 190.747 556.42 198.079 556.42 207.118V294.946C556.42 303.985 549.093 311.317 540.06 311.317Z" fill="#2B0B98"/>
<path d="M592.096 327.563L592.046 375.312L574.91 375.292L574.964 327.543L592.096 327.563Z" fill="url(#paint8_linear)"/>
<path d="M574.994 356.463L592.14 356.463L592.14 354.223L574.994 354.223L574.994 356.463Z" fill="#A08BE8"/>
<path d="M551.352 327.563L551.302 375.312L534.171 375.292L534.22 327.543L551.352 327.563Z" fill="url(#paint9_linear)"/>
<path d="M534.25 356.463L551.396 356.463L551.396 354.223L534.25 354.223L534.25 356.463Z" fill="#A08BE8"/>
<path d="M713.889 247.023L707.84 231.861C706.199 227.834 701.608 225.893 697.584 227.536C693.56 229.178 691.62 233.773 693.261 237.799L699.464 253.349L713.889 247.023Z" fill="#D0C5F3"/>
<path d="M635.172 279.237L665.599 295.767L673.598 280.6L643.166 264.075L635.172 279.237Z" fill="url(#paint10_linear)"/>
<path d="M658.515 272.423L650.522 287.586L652.295 288.522L660.288 273.359L658.515 272.423Z" fill="#A08BE8"/>
<path d="M683.459 294.17L713.298 266.755L701.712 254.128L671.873 281.543L683.459 294.17Z" fill="#D0C5F3"/>
<path d="M687.766 266.919L686.289 268.276L697.875 280.905L699.352 279.548L687.766 266.919Z" fill="#A08BE8"/>
<path d="M714.914 268.983C724.015 268.983 731.393 261.6 731.393 252.493C731.393 243.385 724.015 236.002 714.914 236.002C705.812 236.002 698.434 243.385 698.434 252.493C698.434 261.6 705.812 268.983 714.914 268.983Z" fill="url(#paint11_radial)"/>
<path d="M671.971 279.74L665.604 295.767C665.604 295.767 674.956 301.536 683.437 294.145C677.338 284.842 673.911 279.615 673.911 279.615L671.971 279.74Z" fill="#A08BE8"/>
<path d="M646.419 273.687C652.199 251.493 648.468 233.773 648.468 233.773H653.686L653.815 233.673C646.339 192.947 610.684 162.082 567.826 162.082C519.537 162.082 480.39 201.255 480.39 249.576C480.39 297.898 519.537 337.071 567.826 337.071C605.929 337.071 638.336 312.676 650.314 278.65C650.662 277.201 650.632 274.608 646.419 273.687Z" fill="url(#paint12_radial)"/>
<path d="M650.179 279.655C650.179 279.655 652.602 274.991 646.638 273.687C652.343 251.766 648.781 234.22 648.692 233.792H557.977C557.977 233.792 552.262 233.215 552.262 238.436C552.262 243.658 552.476 258.421 552.476 274.742C552.476 278.097 555.222 279.72 557.385 279.72H650.542C650.313 279.68 650.179 279.655 650.179 279.655Z" fill="url(#paint13_radial)"/>
<path d="M598.612 273.617C598.612 273.617 607.331 266.709 609.033 265.434C610.734 264.155 612.221 264.086 613.783 265.434C615.345 266.783 624.075 273.617 624.075 273.617H598.612Z" fill="#A08BE8"/>
<path d="M650.179 279.655C650.179 279.655 652.602 274.991 646.638 273.687C646.643 273.662 646.648 273.642 646.653 273.618H557.45C555.376 273.618 552.705 272.378 552.471 270.367C552.476 271.811 552.476 273.269 552.476 274.747C552.476 277.794 554.739 279.401 556.769 279.675C556.973 279.7 557.176 279.72 557.385 279.72H563.484H650.542C650.314 279.68 650.179 279.655 650.179 279.655Z" fill="url(#paint14_radial)"/>
<path d="M643.285 293.886H492.512C495.894 299.64 499.918 304.966 504.485 309.779H631.317C635.879 304.966 639.903 299.64 643.285 293.886Z" fill="url(#paint15_radial)"/>
<path d="M517.049 171.011L532.246 163.62L522.521 149.051L511.613 154.357L517.049 171.011Z" fill="#D0C5F3"/>
<path d="M515.871 183.38C515.184 183.714 514.348 183.385 514.095 182.668C511.394 175.058 514.781 166.472 522.213 162.858C529.639 159.244 538.483 161.887 542.791 168.712C543.199 169.359 542.94 170.215 542.254 170.548L515.871 183.38Z" fill="#512BD4"/>
<path d="M579.405 265.284C583.182 265.228 586.167 260.03 586.072 253.675C585.978 247.32 582.839 242.214 579.062 242.27C575.285 242.327 572.3 247.524 572.395 253.879C572.489 260.234 575.628 265.34 579.405 265.284Z" fill="#512BD4"/>
<path d="M641.142 253.806C641.237 247.451 638.252 242.254 634.475 242.198C630.698 242.141 627.559 247.247 627.465 253.602C627.37 259.957 630.355 265.155 634.132 265.211C637.909 265.267 641.048 260.161 641.142 253.806Z" fill="#512BD4"/>
<path d="M579.177 247.998C580.575 246.6 582.455 245.987 584.281 246.152C585.355 248.157 586.027 250.776 586.072 253.658C586.097 255.454 585.873 257.152 585.46 258.675C583.301 259.292 580.879 258.75 579.182 257.047C576.68 254.554 576.68 250.497 579.177 247.998Z" fill="#8065E0"/>
<path d="M634.147 247.625C635.545 246.226 637.43 245.609 639.261 245.778C640.425 247.869 641.121 250.701 641.077 253.817C641.052 255.41 640.838 256.923 640.47 258.292C638.301 258.924 635.859 258.386 634.147 256.674C631.65 254.18 631.65 250.129 634.147 247.625Z" fill="#8065E0"/>
<path d="M713.72 258.416C712.596 258.62 711.397 258.287 710.532 257.416C709.139 256.012 709.144 253.742 710.546 252.348L795.103 168.284C796.506 166.89 798.774 166.895 800.167 168.299C801.56 169.702 801.555 171.972 800.152 173.366L715.595 257.435C715.063 257.963 714.406 258.292 713.72 258.416Z" fill="white"/>
<path d="M814.89 170.434H772.127C768.625 170.434 765.785 167.592 765.785 164.088V149.036C765.785 145.532 768.625 142.689 772.127 142.689H814.89C818.392 142.689 821.233 145.532 821.233 149.036V164.088C821.233 167.592 818.392 170.434 814.89 170.434Z" fill="white"/>
<path d="M809.618 142.689H787.139V170.429H809.618V142.689Z" fill="#A08BE8"/>
<path d="M800.167 168.299C798.774 166.895 796.506 166.89 795.103 168.284L781.623 181.688L786.324 187.114L800.152 173.366C801.555 171.972 801.565 169.702 800.167 168.299Z" fill="#2B0B98"/>
<path d="M740.561 222.514L710.551 252.349C709.149 253.742 709.144 256.012 710.537 257.416C711.402 258.287 712.601 258.62 713.725 258.416C714.411 258.292 715.068 257.963 715.6 257.436L745.291 227.914L740.561 222.514Z" fill="#2B0B98"/>
<path d="M733.592 266.928L722.877 268.894C719.709 269.476 716.675 267.376 716.093 264.205L715.371 260.273C714.789 257.102 716.888 254.066 720.057 253.484L730.772 251.517C733.94 250.935 736.974 253.036 737.556 256.206L738.278 260.138C738.855 263.309 736.761 266.345 733.592 266.928Z" fill="#D0C5F3"/>
<path d="M736.945 256.126L726.23 258.093C723.062 258.675 720.027 256.574 719.445 253.404L718.724 249.472C718.142 246.301 720.241 243.265 723.41 242.682L734.124 240.716C737.293 240.134 740.327 242.234 740.909 245.405L741.63 249.337C742.212 252.508 740.113 255.549 736.945 256.126Z" fill="#D0C5F3"/>
<path d="M740.073 245.499L729.359 247.466C726.19 248.048 723.156 245.947 722.574 242.777L721.853 238.845C721.271 235.674 723.37 232.638 726.539 232.055L737.253 230.089C740.422 229.507 743.456 231.607 744.038 234.778L744.759 238.71C745.336 241.881 743.242 244.922 740.073 245.499Z" fill="#D0C5F3"/>
<path d="M515.783 331.146L455.781 365.812L471.746 393.481L531.748 358.815L515.783 331.146Z" fill="white"/>
<path d="M620.637 289.346H592.419V314.318H620.637V289.346Z" fill="#512BD4"/>
<path d="M596.761 305.389C596.547 305.389 596.368 305.319 596.219 305.175C596.07 305.03 595.995 304.856 595.995 304.657C595.995 304.453 596.07 304.279 596.219 304.135C596.368 303.99 596.547 303.916 596.761 303.916C596.98 303.916 597.159 303.99 597.309 304.135C597.463 304.279 597.537 304.453 597.537 304.657C597.537 304.856 597.463 305.03 597.309 305.175C597.159 305.319 596.98 305.389 596.761 305.389Z" fill="white"/>
<path d="M605.287 305.269H603.9L600.248 299.505C600.154 299.361 600.079 299.207 600.02 299.052H599.99C600.02 299.222 600.035 299.58 600.035 300.128V305.269H598.806V297.425H600.283L603.815 303.054C603.964 303.288 604.059 303.448 604.103 303.537H604.123C604.089 303.328 604.069 302.98 604.069 302.482V297.43H605.287V305.269Z" fill="white"/>
<path d="M611.256 305.269H606.963V297.425H611.082V298.53H608.232V300.75H610.858V301.85H608.232V304.169H611.256V305.269Z" fill="white"/>
<path d="M617.355 298.53H615.156V305.269H613.888V298.53H611.694V297.425H617.35V298.53H617.355Z" fill="white"/>
<path d="M498.774 196.088C519.91 197.566 540.98 181.529 540.98 181.529C540.98 181.529 574.74 171.594 583.903 169.936C590.21 168.796 598.656 164.202 577.755 161.972C556.853 159.742 498.774 196.088 498.774 196.088Z" fill="#512BD4"/>
<path d="M624.159 457.411H417.277C414.456 457.411 412.163 455.121 412.163 452.294C412.163 449.472 414.451 447.177 417.277 447.177H624.159C626.985 447.177 629.273 449.467 629.273 452.294C629.273 455.121 626.985 457.411 624.159 457.411Z" fill="url(#paint16_radial)"/>
<path d="M583.197 433.574L617.021 433.738C617.021 433.738 624.881 439.024 626.97 442.832C628.566 445.749 628.457 452.289 628.318 455.206C628.278 456.017 627.606 456.654 626.796 456.654L594.17 456.595C593.12 456.59 592.28 455.738 592.29 454.688C592.324 451.075 591.703 443.374 590.345 441.174C588.31 437.894 583.197 433.574 583.197 433.574Z" fill="#D0C5F3"/>
<path d="M572.935 394.49C566.697 416.292 569.249 450.855 569.508 452.682C569.871 455.216 570.209 456.988 573.81 456.988C578.292 456.988 597.527 456.988 597.527 456.988L587.425 395.894L572.935 394.49Z" fill="#8065E0"/>
<path d="M592.827 397.855C594.334 408.552 604.999 423.584 625.204 439.323C627.567 441.159 628.78 443.101 628.78 445.838V454.594C628.78 455.888 627.731 456.938 626.437 456.938H594.006C593.09 456.938 592.349 456.196 592.349 455.28V445.171C592.349 442.02 591.712 440.403 588.484 438.088C580.401 432.284 575.298 412.718 575.133 398.796C574.964 384.879 592.827 397.855 592.827 397.855Z" fill="#A08BE8"/>
<path d="M628.472 443.683C628.666 444.35 628.775 445.057 628.775 445.838V454.594C628.775 455.888 627.726 456.938 626.432 456.938H594.001C593.085 456.938 592.344 456.196 592.344 455.28V445.171C592.344 444.634 592.324 444.141 592.275 443.678H628.472V443.683Z" fill="#D0C5F3"/>
<path d="M543.119 433.574L576.944 433.738C576.944 433.738 584.803 439.024 586.892 442.832C588.489 445.749 588.38 452.289 588.24 455.206C588.201 456.017 587.529 456.654 586.718 456.654L554.093 456.595C553.043 456.59 552.202 455.738 552.212 454.688C552.247 451.075 551.625 443.374 550.267 441.174C548.233 437.894 543.119 433.574 543.119 433.574Z" fill="#D0C5F3"/>
<path d="M532.862 394.49C526.625 416.292 529.177 450.855 529.435 452.682C529.798 455.216 530.137 456.988 533.738 456.988C538.22 456.988 557.455 456.988 557.455 456.988L547.352 395.894L532.862 394.49Z" fill="#8065E0"/>
<path d="M552.754 397.855C554.262 408.552 564.926 423.584 585.132 439.323C587.494 441.159 588.708 443.101 588.708 445.838V454.594C588.708 455.888 587.659 456.938 586.365 456.938H553.933C553.018 456.938 552.277 456.196 552.277 455.28V445.171C552.277 442.02 551.64 440.403 548.412 438.088C540.329 432.284 535.225 412.718 535.061 398.796C534.892 384.879 552.754 397.855 552.754 397.855Z" fill="#A08BE8"/>
<path d="M588.4 443.683C588.594 444.35 588.703 445.057 588.703 445.838V454.594C588.703 455.888 587.654 456.938 586.36 456.938H553.928C553.013 456.938 552.272 456.196 552.272 455.28V445.171C552.272 444.634 552.252 444.141 552.202 443.678H588.4V443.683Z" fill="#D0C5F3"/>
<path d="M572.94 374.68H592.772C594.687 374.68 596.239 376.233 596.239 378.149V398.597C596.239 400.513 594.687 402.066 592.772 402.066H572.94C571.025 402.066 569.473 400.513 569.473 398.597V378.149C569.473 376.233 571.025 374.68 572.94 374.68Z" fill="url(#paint17_radial)"/>
<path d="M532.201 374.68H552.033C553.948 374.68 555.5 376.233 555.5 378.149V398.597C555.5 400.513 553.948 402.066 552.033 402.066H532.201C530.286 402.066 528.734 400.513 528.734 398.597V378.149C528.734 376.233 530.286 374.68 532.201 374.68Z" fill="url(#paint18_radial)"/>
<path d="M491.328 265.389C492.954 265.34 494.477 266.38 494.959 268.018C503.017 295.21 526.302 315.642 554.282 320.072C556.281 320.391 557.649 322.267 557.331 324.273C557.012 326.274 555.132 327.643 553.133 327.324C522.377 322.451 496.785 299.993 487.926 270.103C487.349 268.157 488.458 266.116 490.398 265.539C490.711 265.444 491.02 265.399 491.328 265.389Z" fill="url(#paint19_radial)"/>
<path d="M640.723 231.329C639.097 231.378 637.575 230.338 637.092 228.7C629.034 201.508 605.75 181.076 577.77 176.646C575.77 176.327 574.402 174.451 574.721 172.445C575.039 170.444 576.919 169.075 578.919 169.394C609.674 174.267 635.267 196.725 644.126 226.615C644.703 228.561 643.594 230.602 641.654 231.179C641.345 231.269 641.032 231.319 640.723 231.329Z" fill="url(#paint20_radial)"/>
<path d="M494.695 195.675C492.248 198.801 490.015 202.096 488.005 205.54C507.594 211.18 521.467 229.347 521.467 250.039C521.467 270.954 507.171 288.166 488.11 293.891C490.154 297.315 492.785 301.093 495.263 304.189C517.224 296.016 532.912 274.827 532.912 250.039C532.907 225.49 517.254 203.788 494.695 195.675Z" fill="#2B0B98"/>
<path d="M509.305 177.92C509.305 177.92 481.976 192.589 479.813 193.336C477.649 194.082 481.156 202.33 499.122 197.407C517.084 192.484 539.971 173.744 539.971 173.744L509.305 177.92Z" fill="white"/>
<path d="M543.502 123.327C543.512 123.183 543.512 123.038 543.487 122.894C543.214 121.281 540.866 120.336 538.245 120.779C535.623 121.227 533.723 122.894 533.997 124.507C534.032 124.706 534.096 124.895 534.191 125.069C494.775 135.756 509.076 181.658 509.076 181.658L591.056 165.173C591.056 165.173 585.306 118.857 543.502 123.327Z" fill="url(#paint21_radial)"/>
<path d="M475.709 354.556C466.129 343.292 456.847 322.213 462.219 299.888C465.477 286.335 475.435 267.654 504.365 255.639L511.021 271.686C493.462 278.978 482.424 290.138 479.101 303.955C475.505 318.912 481.449 334.492 488.935 343.297L475.709 354.556Z" fill="url(#paint22_linear)"/>
<path d="M484.614 267.036L483.06 268.303L493.889 281.587L495.442 280.319L484.614 267.036Z" fill="#A08BE8"/>
<path d="M478.277 317.271L461.251 319.155L461.471 321.148L478.498 319.265L478.277 317.271Z" fill="#A08BE8"/>
<path d="M463.04 296.862L481.265 297.569C481.549 296.937 481.847 296.31 482.165 295.687L468.511 284.468C465.954 288.759 464.213 292.97 463.04 296.862Z" fill="#A08BE8"/>
<path d="M488.93 356.657L504.112 362.63C508.171 364.193 512.722 362.167 514.284 358.11C515.846 354.049 513.821 349.494 509.767 347.931L494.198 341.809L488.93 356.657Z" fill="#D0C5F3"/>
<path d="M474.997 348.479L475.017 364.805C475.052 369.155 478.604 372.654 482.951 372.62C487.299 372.585 490.796 369.031 490.761 364.68L490.741 347.941L474.997 348.479Z" fill="#D0C5F3"/>
<path d="M486.339 348.484L486.771 364.805C486.916 369.15 490.557 372.56 494.904 372.415C499.247 372.271 502.654 368.628 502.51 364.277L502.067 347.543L486.339 348.484Z" fill="#D0C5F3"/>
<path d="M467.974 345.865L467.994 362.192C468.029 366.542 471.58 370.041 475.928 370.006C480.275 369.971 483.772 366.417 483.737 362.067L483.717 345.328L467.974 345.865Z" fill="#D0C5F3"/>
<path d="M483.837 365.278C492.938 365.278 500.316 357.895 500.316 348.787C500.316 339.68 492.938 332.297 483.837 332.297C474.735 332.297 467.357 339.68 467.357 348.787C467.357 357.895 474.735 365.278 483.837 365.278Z" fill="url(#paint23_radial)"/>
<path d="M512.115 277.067C520.983 277.067 528.172 269.873 528.172 260.999C528.172 252.126 520.983 244.932 512.115 244.932C503.247 244.932 496.058 252.126 496.058 260.999C496.058 269.873 503.247 277.067 512.115 277.067Z" fill="url(#paint24_radial)"/>
<defs>
<radialGradient id="paint0_radial" cx="0" cy="0" r="1" gradientUnits="userSpaceOnUse" gradientTransform="translate(92.8334 -153.271) scale(396.574 396.834)">
<stop offset="0.00749843" stop-color="#FFD590"/>
<stop offset="1" stop-color="#F7B548"/>
</radialGradient>
<radialGradient id="paint1_radial" cx="0" cy="0" r="1" gradientUnits="userSpaceOnUse" gradientTransform="translate(141.555 160.742) scale(172.04 172.154)">
<stop stop-color="#F7B548"/>
<stop offset="0.9113" stop-color="#FFE5B9"/>
</radialGradient>
<linearGradient id="paint2_linear" x1="392.256" y1="252.639" x2="392.256" y2="179.145" gradientUnits="userSpaceOnUse">
<stop offset="0.0818" stop-color="#ED9583"/>
<stop offset="0.4997" stop-color="#E97964"/>
<stop offset="0.7327" stop-color="#E86E58"/>
</linearGradient>
<radialGradient id="paint3_radial" cx="0" cy="0" r="1" gradientUnits="userSpaceOnUse" gradientTransform="translate(170.67 201.551) scale(63.8967 63.9387)">
<stop offset="0.0818" stop-color="#ED9583"/>
<stop offset="0.4997" stop-color="#E97964"/>
<stop offset="0.7327" stop-color="#E86E58"/>
</radialGradient>
<radialGradient id="paint4_radial" cx="0" cy="0" r="1" gradientUnits="userSpaceOnUse" gradientTransform="translate(290.578 139.896) scale(66.7989 66.8428)">
<stop offset="0.0818" stop-color="#ED9583"/>
<stop offset="0.4997" stop-color="#E97964"/>
<stop offset="0.7327" stop-color="#E86E58"/>
</radialGradient>
<radialGradient id="paint5_radial" cx="0" cy="0" r="1" gradientUnits="userSpaceOnUse" gradientTransform="translate(807.41 245.953) scale(497.501 497.829)">
<stop offset="0.1302" stop-color="#BF8F68"/>
<stop offset="0.748" stop-color="#E0BB95"/>
</radialGradient>
<radialGradient id="paint6_radial" cx="0" cy="0" r="1" gradientUnits="userSpaceOnUse" gradientTransform="translate(615.846 185.351) scale(451.879 452.176)">
<stop offset="0.2507" stop-color="#E0BB95"/>
<stop offset="1" stop-color="#FADCBD"/>
</radialGradient>
<radialGradient id="paint7_radial" cx="0" cy="0" r="1" gradientUnits="userSpaceOnUse" gradientTransform="translate(213.086 242.607) scale(50.1827 50.2158)">
<stop offset="0.0818" stop-color="#ED9583"/>
<stop offset="0.4997" stop-color="#E97964"/>
<stop offset="0.7327" stop-color="#E86E58"/>
</radialGradient>
<linearGradient id="paint8_linear" x1="583.503" y1="327.543" x2="583.503" y2="375.311" gradientUnits="userSpaceOnUse">
<stop offset="0.2368" stop-color="#958FE7"/>
<stop offset="0.4881" stop-color="#BBB7EF"/>
</linearGradient>
<linearGradient id="paint9_linear" x1="542.762" y1="327.543" x2="542.762" y2="375.311" gradientUnits="userSpaceOnUse">
<stop offset="0.2368" stop-color="#958FE7"/>
<stop offset="0.4881" stop-color="#BBB7EF"/>
</linearGradient>
<linearGradient id="paint10_linear" x1="635.171" y1="279.919" x2="673.596" y2="279.919" gradientUnits="userSpaceOnUse">
<stop offset="0.2368" stop-color="#958FE7"/>
<stop offset="0.5439" stop-color="#BBB7EF"/>
</linearGradient>
<radialGradient id="paint11_radial" cx="0" cy="0" r="1" gradientUnits="userSpaceOnUse" gradientTransform="translate(713.081 244.428) scale(32.9731 32.9947)">
<stop stop-color="#A08BE8"/>
<stop offset="0.7086" stop-color="#8065E0"/>
<stop offset="1" stop-color="#8065E0"/>
</radialGradient>
<radialGradient id="paint12_radial" cx="0" cy="0" r="1" gradientUnits="userSpaceOnUse" gradientTransform="translate(591.397 235.182) scale(110.211 110.284)">
<stop offset="0.3472" stop-color="#A08BE8"/>
<stop offset="0.684" stop-color="#8065E0"/>
<stop offset="0.7596" stop-color="#8065E0"/>
</radialGradient>
<radialGradient id="paint13_radial" cx="0" cy="0" r="1" gradientUnits="userSpaceOnUse" gradientTransform="translate(560.396 234.142) scale(113.275 113.35)">
<stop offset="0.0933" stop-color="#E1DFDD"/>
<stop offset="0.6573" stop-color="white"/>
</radialGradient>
<radialGradient id="paint14_radial" cx="0" cy="0" r="1" gradientUnits="userSpaceOnUse" gradientTransform="translate(579.909 274.621) scale(61.5399 61.5805)">
<stop offset="0.1574" stop-color="#512BD4"/>
<stop offset="0.9968" stop-color="#8065E0"/>
</radialGradient>
<radialGradient id="paint15_radial" cx="0" cy="0" r="1" gradientUnits="userSpaceOnUse" gradientTransform="translate(529.149 301.552) scale(53.6018 53.637)">
<stop offset="0.4614" stop-color="#A08BE8"/>
<stop offset="0.5268" stop-color="#A793EA"/>
<stop offset="0.8352" stop-color="#C5B7F0"/>
<stop offset="1" stop-color="#D0C5F3"/>
</radialGradient>
<radialGradient id="paint16_radial" cx="0" cy="0" r="1" gradientUnits="userSpaceOnUse" gradientTransform="translate(520.718 452.295) scale(76.8438 76.8945)">
<stop offset="0.4026" stop-color="#BF8F68"/>
<stop offset="0.9129" stop-color="#E0BB95"/>
</radialGradient>
<radialGradient id="paint17_radial" cx="0" cy="0" r="1" gradientUnits="userSpaceOnUse" gradientTransform="translate(585.153 383.704) scale(17.1675 17.1788)">
<stop stop-color="#8065E0"/>
<stop offset="1" stop-color="#512BD4"/>
</radialGradient>
<radialGradient id="paint18_radial" cx="0" cy="0" r="1" gradientUnits="userSpaceOnUse" gradientTransform="translate(543.82 382.647) scale(18.3106 18.3227)">
<stop stop-color="#8065E0"/>
<stop offset="1" stop-color="#512BD4"/>
</radialGradient>
<radialGradient id="paint19_radial" cx="0" cy="0" r="1" gradientUnits="userSpaceOnUse" gradientTransform="translate(522.325 296.574) rotate(178.188) scale(32.9466 32.9682)">
<stop stop-color="#BDB9F0"/>
<stop offset="0.3603" stop-color="#C3BCEB" stop-opacity="0.4"/>
<stop offset="0.4662" stop-color="#CEC3E2" stop-opacity="0.3338"/>
<stop offset="0.8089" stop-color="#EDD6C9" stop-opacity="0.1195"/>
<stop offset="1" stop-color="#F9DDBF" stop-opacity="0"/>
</radialGradient>
<radialGradient id="paint20_radial" cx="0" cy="0" r="1" gradientUnits="userSpaceOnUse" gradientTransform="translate(609.516 200.329) rotate(-1.81204) scale(32.9466 32.9682)">
<stop stop-color="#BDB9F0"/>
<stop offset="0.5266" stop-color="#C3BCEB" stop-opacity="0.7"/>
<stop offset="0.605" stop-color="#CEC3E2" stop-opacity="0.5841"/>
<stop offset="0.8586" stop-color="#EDD6C9" stop-opacity="0.2092"/>
<stop offset="1" stop-color="#F9DDBF" stop-opacity="0"/>
</radialGradient>
<radialGradient id="paint21_radial" cx="0" cy="0" r="1" gradientUnits="userSpaceOnUse" gradientTransform="translate(528.643 231) rotate(152.377) scale(91.8696 91.904)">
<stop offset="0.0997" stop-color="#A08BE8"/>
<stop offset="0.2404" stop-color="#B2A1EC"/>
<stop offset="0.5891" stop-color="#DCD4F6"/>
<stop offset="0.8532" stop-color="#F5F3FD"/>
<stop offset="1" stop-color="white"/>
</radialGradient>
<linearGradient id="paint22_linear" x1="520.02" y1="271.301" x2="456.222" y2="335.057" gradientUnits="userSpaceOnUse">
<stop offset="0.134" stop-color="#958FE7"/>
<stop offset="0.3616" stop-color="#BBB7EF"/>
</linearGradient>
<radialGradient id="paint23_radial" cx="0" cy="0" r="1" gradientUnits="userSpaceOnUse" gradientTransform="translate(483.21 341.789) scale(25.9079 25.9249)">
<stop stop-color="#A08BE8"/>
<stop offset="0.8091" stop-color="#8065E0"/>
<stop offset="1" stop-color="#8065E0"/>
</radialGradient>
<radialGradient id="paint24_radial" cx="0" cy="0" r="1" gradientUnits="userSpaceOnUse" gradientTransform="translate(514.433 256.006) scale(21.7302 21.7445)">
<stop stop-color="#8065E0"/>
<stop offset="0.8258" stop-color="#512BD4"/>
</radialGradient>
</defs>
</svg>
