<svg width="915" height="520" viewBox="0 0 915 520" fill="none" xmlns="http://www.w3.org/2000/svg">
<path d="M552.039 510.844C1049.29 461.267 962.951 20.9552 723.726 55.5595C587.951 75.2011 456.655 57.8637 317.513 14.0675C118.688 -48.515 -34.2962 107.245 6.67796 293C39.218 440.533 129.138 553.005 552.039 510.844Z" fill="#6FD0C3"/>
<path d="M325.364 138.362C349.026 138.362 368.208 119.161 368.208 95.4764C368.208 71.7913 349.026 52.5908 325.364 52.5908C301.702 52.5908 282.52 71.7913 282.52 95.4764C282.52 119.161 301.702 138.362 325.364 138.362Z" fill="url(#paint0_radial)"/>
<path d="M6.67776 293C18.7308 347.638 38.6499 397.466 80.4383 436.413C225.522 473.537 416.937 485.285 671.654 488.812C745.68 467.802 800.698 435.864 839.511 398.639C614.158 378.735 474.614 351.15 474.614 320.671C474.614 286.917 645.708 256.72 914.945 236.565C915.277 221.633 913.985 206.977 911.196 192.87C572.048 206.66 209.789 240.258 2.42554 268.936C3.48608 276.89 4.89344 284.915 6.67776 293Z" fill="#CFEFEB"/>
<path d="M112.536 363.587C112.436 358.666 176.249 353.363 255.071 351.743C333.893 350.123 397.873 352.8 397.973 357.72C398.074 362.641 334.26 367.944 255.438 369.564C176.616 371.184 112.637 368.507 112.536 363.587Z" fill="url(#paint1_radial)"/>
<path d="M361.678 382.411C405.086 380.293 440.109 375.185 439.906 371.002C439.702 366.82 404.348 365.147 360.94 367.266C317.532 369.384 282.508 374.492 282.712 378.674C282.916 382.857 318.27 384.53 361.678 382.411Z" fill="#52A898"/>
<path d="M233.157 306.237C236.544 295.027 241.576 272.261 235.569 253.148L222.28 259.97C227.723 277.303 222.642 297.477 219.837 306.282C219.606 307.006 226.185 307.696 233.157 306.237Z" fill="url(#paint2_linear)"/>
<path d="M233.157 306.237C236.544 295.027 241.576 272.261 235.569 253.148L222.28 259.97C227.723 277.303 222.642 297.477 219.837 306.282C219.606 307.006 226.185 307.696 233.157 306.237Z" fill="url(#paint3_linear)"/>
<path d="M219.877 306.156H230.347L240.038 362.193L202.788 362.244C201.189 362.244 200.355 360.945 200.923 359.346L219.877 306.156Z" fill="#522CD5"/>
<path d="M253.84 347.392C255.403 348.665 254.83 351.12 254.046 353.308L251.653 360.02C251.226 361.222 249.894 362.203 248.693 362.203H235.524C234.162 362.203 233.453 361.097 233.941 359.738L236.112 352.78C237.012 350.254 237.233 348.655 235.177 346.929C222.994 336.741 219.013 322.915 223.602 306.151H233.182C231.392 314.74 233.267 330.673 253.84 347.392Z" fill="url(#paint4_linear)"/>
<path d="M248.693 362.208C249.894 362.208 251.226 361.227 251.653 360.025L254.046 353.313C254.558 351.874 254.971 350.33 254.759 349.072H236.655C236.921 350.128 236.64 351.296 236.112 352.78L233.941 359.738C233.453 361.101 234.167 362.203 235.524 362.203H248.693V362.208Z" fill="url(#paint5_radial)"/>
<path d="M723.726 55.5594C587.951 75.201 456.655 57.8636 317.513 14.0675C160.607 -35.3234 32.2465 51.2728 5.23529 181.278C127.731 160.851 166.302 108.326 283.842 80.8711C418.5 49.4214 517.98 85.6205 479.092 106.706C425.231 135.912 415.258 142.789 504.902 131.419C576.667 122.313 679.384 95.8891 742.529 53.7934C736.377 54.0551 730.104 54.6387 723.726 55.5594Z" fill="url(#paint6_radial)"/>
<path d="M723.726 55.5595C704.435 58.3518 685.235 60.3945 666.089 61.7227C718.981 170.858 791.656 268.599 879.46 350.269C969.244 209.513 878.475 33.1759 723.726 55.5595Z" fill="#92D5CD"/>
<path d="M786.574 426.249C786.74 431.17 731.19 437.041 662.496 439.371C593.802 441.7 537.985 439.597 537.814 434.677C537.648 429.756 593.199 423.885 661.893 421.555C730.587 419.226 786.408 421.334 786.574 426.249Z" fill="url(#paint7_radial)"/>
<path d="M430.272 439.416C422.934 433.197 449.236 385.11 471.116 387.218C487.119 388.757 485.717 380.305 502.429 373.815C528.103 363.843 554.858 438.37 554.858 438.37C554.858 438.37 500.313 447.738 430.272 439.416Z" fill="#52A898"/>
<path d="M477.921 411.795L476.388 408.555L471.105 407.705L468.381 410.09L468.723 412.988L477.921 411.795Z" fill="#CFEFEB"/>
<path d="M509.903 425.248L517.573 422.552L521.127 425.631C521.127 425.631 518.287 426.818 516.628 428.473C514.97 430.129 509.903 425.248 509.903 425.248Z" fill="#CFEFEB"/>
<path d="M481.007 402.95C481.007 402.95 481.59 398.588 484.49 397.134C487.396 395.68 492.623 396.55 492.623 396.55L492.914 400.329L488.557 404.691L481.007 402.95Z" fill="#CFEFEB"/>
<path d="M188.126 306.584C189.529 295.435 194.203 272.805 208.297 253.812L218.611 260.604C205.829 277.831 202.305 297.89 201.35 306.639C201.27 307.359 194.434 308.038 188.126 306.584Z" fill="url(#paint8_linear)"/>
<path d="M201.36 306.508L190.951 306.498L173.615 362.258L194.505 362.273C196.093 362.273 197.475 360.985 197.591 359.396L201.36 306.508Z" fill="#522CD5"/>
<path d="M153.334 347.688C151.334 349.117 151.083 351.185 150.927 353.363L150.449 360.04C150.364 361.232 151.274 362.208 152.465 362.213L174.229 362.228C175.581 362.228 176.757 361.131 176.852 359.778L177.651 352.86C177.832 350.345 178.802 349.419 181.069 347.044C184.955 342.984 197.827 320.877 198.852 306.508L188.131 306.498C186.261 315.036 172.414 334.029 153.334 347.688Z" fill="url(#paint9_linear)"/>
<path d="M150.927 353.364C151.037 351.844 151.203 350.38 151.972 349.147L179.124 349.168C178.219 350.279 177.772 351.24 177.657 352.855L176.857 359.773C176.762 361.127 175.586 362.223 174.234 362.223L152.465 362.208C151.269 362.208 150.364 361.232 150.449 360.035L150.927 353.364Z" fill="url(#paint10_radial)"/>
<path d="M574.556 151.111C574.521 151.111 571.229 151.086 568.002 149.456C563.76 147.312 561.609 143.509 561.609 138.151C561.609 137.753 561.287 137.426 560.885 137.426C560.488 137.426 560.161 137.748 560.161 138.151C560.161 150.935 547.741 151.111 547.213 151.111C546.821 151.111 546.505 151.423 546.495 151.81C546.485 152.203 546.781 152.53 547.173 152.55C547.208 152.55 550.516 152.771 553.753 154.502C558.005 156.771 560.161 160.479 560.161 165.51C560.161 165.908 560.483 166.235 560.885 166.235C561.282 166.235 561.609 165.913 561.609 165.51C561.609 160.665 563.77 157.018 568.027 154.673C571.274 152.882 574.591 152.55 574.622 152.55C575.004 152.515 575.29 152.183 575.275 151.795C575.26 151.418 574.943 151.111 574.556 151.111Z" fill="#CFECE9"/>
<path d="M548.018 139.791C548.665 139.791 549.189 139.266 549.189 138.619C549.189 137.971 548.665 137.446 548.018 137.446C547.371 137.446 546.847 137.971 546.847 138.619C546.847 139.266 547.371 139.791 548.018 139.791Z" fill="#CFECE9"/>
<path d="M550.963 142.739C551.61 142.739 552.134 142.214 552.134 141.567C552.134 140.919 551.61 140.395 550.963 140.395C550.316 140.395 549.792 140.919 549.792 141.567C549.792 142.214 550.316 142.739 550.963 142.739Z" fill="#CFECE9"/>
<path d="M553.909 145.687C554.556 145.687 555.08 145.162 555.08 144.515C555.08 143.868 554.556 143.343 553.909 143.343C553.262 143.343 552.738 143.868 552.738 144.515C552.738 145.162 553.262 145.687 553.909 145.687Z" fill="#CFECE9"/>
<path d="M568.133 159.921C568.78 159.921 569.304 159.396 569.304 158.748C569.304 158.101 568.78 157.576 568.133 157.576C567.486 157.576 566.962 158.101 566.962 158.748C566.962 159.396 567.486 159.921 568.133 159.921Z" fill="#CFECE9"/>
<path d="M571.078 162.874C571.725 162.874 572.249 162.349 572.249 161.702C572.249 161.054 571.725 160.529 571.078 160.529C570.431 160.529 569.907 161.054 569.907 161.702C569.907 162.349 570.431 162.874 571.078 162.874Z" fill="#CFECE9"/>
<path d="M574.024 165.822C574.671 165.822 575.195 165.297 575.195 164.65C575.195 164.002 574.671 163.478 574.024 163.478C573.377 163.478 572.853 164.002 572.853 164.65C572.853 165.297 573.377 165.822 574.024 165.822Z" fill="#CFECE9"/>
<path d="M548.018 165.822C548.665 165.822 549.189 165.297 549.189 164.65C549.189 164.002 548.665 163.478 548.018 163.478C547.371 163.478 546.847 164.002 546.847 164.65C546.847 165.297 547.371 165.822 548.018 165.822Z" fill="#CFECE9"/>
<path d="M550.963 162.874C551.61 162.874 552.134 162.349 552.134 161.702C552.134 161.054 551.61 160.529 550.963 160.529C550.316 160.529 549.792 161.054 549.792 161.702C549.792 162.349 550.316 162.874 550.963 162.874Z" fill="#CFECE9"/>
<path d="M553.909 159.921C554.556 159.921 555.08 159.396 555.08 158.748C555.08 158.101 554.556 157.576 553.909 157.576C553.262 157.576 552.738 158.101 552.738 158.748C552.738 159.396 553.262 159.921 553.909 159.921Z" fill="#CFECE9"/>
<path d="M568.133 145.687C568.78 145.687 569.304 145.162 569.304 144.515C569.304 143.868 568.78 143.343 568.133 143.343C567.486 143.343 566.962 143.868 566.962 144.515C566.962 145.162 567.486 145.687 568.133 145.687Z" fill="#CFECE9"/>
<path d="M571.078 142.739C571.725 142.739 572.249 142.214 572.249 141.567C572.249 140.919 571.725 140.395 571.078 140.395C570.431 140.395 569.907 140.919 569.907 141.567C569.907 142.214 570.431 142.739 571.078 142.739Z" fill="#CFECE9"/>
<path d="M574.024 139.791C574.671 139.791 575.195 139.266 575.195 138.619C575.195 137.971 574.671 137.446 574.024 137.446C573.377 137.446 572.853 137.971 572.853 138.619C572.853 139.266 573.377 139.791 574.024 139.791Z" fill="#CFECE9"/>
<path d="M451.739 100.07C453.895 99.9239 455.499 99.6321 457.901 99.2548C459.133 99.0636 459.133 97.2725 457.901 97.0864C455.574 96.7342 454.066 96.5581 451.84 96.4927C451.277 96.4776 450.809 96.0449 450.774 95.4764C450.628 93.3482 450.342 90.9886 449.97 88.629C449.779 87.3964 447.99 87.4014 447.804 88.634C447.457 90.9584 447.276 93.2728 447.211 95.5016C447.195 96.0751 446.748 96.543 446.18 96.5732C444.039 96.6889 442.069 96.8851 440.365 97.1065C439.103 97.2675 439.093 99.0938 440.355 99.2799C442.34 99.5667 444.481 99.8485 446.291 100.014C446.829 100.065 447.256 100.497 447.281 101.041C447.392 103.234 447.598 105.252 447.819 106.993C447.98 108.256 449.804 108.266 449.99 107.008C450.277 105.015 450.558 102.877 450.724 101.066C450.779 100.523 451.206 100.105 451.739 100.07Z" fill="#CFECE9"/>
<path d="M527.746 250.838C527.847 253.772 481.64 257.716 424.547 259.648C367.454 261.58 321.086 260.775 320.991 257.842C320.89 254.909 367.097 250.964 424.19 249.032C481.284 247.1 527.646 247.905 527.746 250.838Z" fill="url(#paint11_radial)"/>
<path d="M523.092 328.268C524.042 329.898 525.912 330.879 527.897 330.602L572.933 324.323C574.682 324.077 576.159 322.889 576.773 321.229L595.641 270.103C596.556 267.612 595.289 264.85 592.801 263.934C590.319 263.014 587.559 264.287 586.639 266.777L568.766 315.207L526.575 321.088C523.952 321.455 522.122 323.88 522.484 326.507C522.574 327.151 522.785 327.744 523.092 328.268Z" fill="#45897C"/>
<path d="M491.045 334.899C491.351 335.699 492.08 336.273 492.889 336.278L502.731 336.313C502.866 336.313 503.002 336.298 503.133 336.263L516.02 333.078C517 332.837 517.553 331.75 517.252 330.658C516.955 329.586 515.915 328.872 514.929 329.113L502.238 332.248L492.603 332.213C491.577 332.208 490.813 333.113 490.889 334.235C490.914 334.472 490.964 334.693 491.045 334.899Z" fill="#605D5A"/>
<path d="M491.185 327.166C491.457 327.885 492.08 328.434 492.819 328.529L504.213 330.014C504.339 330.029 504.465 330.034 504.585 330.024L516.191 328.972C517.206 328.882 517.89 327.901 517.729 326.784C517.563 325.662 516.608 324.832 515.598 324.927L504.173 325.964L492.965 324.499C491.939 324.364 491.075 325.159 491.034 326.275C491.024 326.582 491.08 326.884 491.185 327.166Z" fill="#605D5A"/>
<path d="M534.361 322.225L534.542 328.746C534.572 329.802 533.828 330.632 532.863 330.617L527.837 330.547C527.671 330.547 527.505 330.567 527.345 330.617L515.533 334.23C514.397 334.577 513.185 333.596 513.125 332.273L512.416 316.304C512.356 314.955 513.527 314.045 514.713 314.523L527.319 319.584C527.475 319.644 527.636 319.685 527.802 319.705L532.587 320.173C533.547 320.268 534.331 321.174 534.361 322.225Z" fill="#605D5A"/>
<path d="M580.945 431.422C578.628 431.422 576.542 429.807 576.034 427.447L560.463 354.999C560.096 353.288 560.644 351.507 561.905 350.299C563.172 349.092 564.971 348.629 566.66 349.077L618.391 358.138C621.075 358.847 621.864 366.022 621.155 368.708C620.446 371.395 617.692 373 615.013 372.286L573.28 361.383L585.866 425.334C586.449 428.051 584.725 430.727 582.01 431.311C581.648 431.387 581.292 431.422 580.945 431.422Z" fill="#45897C"/>
<path d="M623.869 440.266C622.733 440.266 621.612 439.879 620.707 439.144C619.451 438.123 618.757 436.563 618.853 434.943L622.778 366.988C622.939 364.215 625.311 362.097 628.086 362.253C630.855 362.414 639.239 365.091 639.078 367.863L630.353 426.244L692.11 411.282C694.79 410.547 697.554 412.122 698.288 414.804C699.022 417.485 697.448 420.252 694.769 420.987L625.196 440.08C624.758 440.206 624.311 440.266 623.869 440.266Z" fill="#45897C"/>
<path d="M631.901 377.477C651.024 377.477 666.527 361.96 666.527 342.818C666.527 323.676 651.024 308.158 631.901 308.158C612.777 308.158 597.275 323.676 597.275 342.818C597.275 361.96 612.777 377.477 631.901 377.477Z" fill="#605D5A"/>
<path d="M631.901 287.48C651.024 287.48 666.527 271.963 666.527 252.821C666.527 233.679 651.024 218.161 631.901 218.161C612.777 218.161 597.275 233.679 597.275 252.821C597.275 271.963 612.777 287.48 631.901 287.48Z" fill="#45897C"/>
<path d="M592.616 355.375L582.292 265.459C581.869 261.756 584.764 258.511 588.489 258.511H674.257C677.982 258.511 680.877 261.756 680.455 265.459L670.397 355.24C670.04 358.394 667.371 360.779 664.2 360.779L598.818 360.915C595.641 360.91 592.972 358.53 592.616 355.375Z" fill="#52A898"/>
<path d="M614.817 233.265H603.316C600.542 237.325 598.607 242.004 597.762 247.05H614.817C617.611 247.05 619.878 244.781 619.878 241.984V238.336C619.878 235.534 617.611 233.265 614.817 233.265Z" fill="#605D5A"/>
<path d="M608.725 245.34C611.615 245.34 613.957 242.995 613.957 240.102C613.957 237.21 611.615 234.865 608.725 234.865C605.835 234.865 603.492 237.21 603.492 240.102C603.492 242.995 605.835 245.34 608.725 245.34Z" fill="#CFECE9"/>
<path d="M629.287 245.34C632.177 245.34 634.52 242.995 634.52 240.102C634.52 237.21 632.177 234.865 629.287 234.865C626.397 234.865 624.055 237.21 624.055 240.102C624.055 242.995 626.397 245.34 629.287 245.34Z" fill="#CFECE9"/>
<path d="M654.439 263.985C652.891 263.884 651.323 264.538 650.312 265.871C648.709 267.979 649.116 270.993 651.227 272.603L689.03 301.396L658.053 322.049C655.846 323.518 655.253 326.502 656.721 328.71C658.188 330.914 661.169 331.513 663.376 330.044L699.957 305.653C701.249 304.792 702.043 303.358 702.093 301.809C702.143 300.254 701.44 298.775 700.203 297.834L657.042 264.956C656.253 264.362 655.354 264.04 654.439 263.985Z" fill="#45897C"/>
<path d="M636.535 355.974C637.254 356.437 638.184 356.467 638.837 355.985L646.779 350.168C646.889 350.088 646.99 349.992 647.075 349.892L655.559 339.674C656.203 338.894 656.007 337.696 655.117 336.992C654.243 336.303 652.981 336.348 652.332 337.128L643.979 347.19L636.203 352.885C635.379 353.489 635.298 354.676 636.022 355.532C636.178 355.708 636.349 355.854 636.535 355.974Z" fill="#605D5A"/>
<path d="M629.192 338.723C629.961 339.216 630.951 339.211 631.599 338.647C632.785 337.621 635.143 334.205 636.143 332.725L646.407 330.205C647.442 329.948 647.97 328.922 647.593 327.901C647.211 326.884 646.07 326.265 645.034 326.517L634.107 329.204C633.675 329.309 633.308 329.561 633.077 329.913C631.74 331.925 629.518 335.06 628.759 335.714C627.99 336.378 628 337.575 628.784 338.385C628.91 338.516 629.046 338.632 629.192 338.723Z" fill="#605D5A"/>
<path d="M663.873 320.037L667.884 325.174C668.533 326.009 668.427 327.116 667.643 327.679L663.557 330.607C663.421 330.703 663.3 330.824 663.205 330.955L655.841 340.881C655.132 341.837 653.574 341.767 652.745 340.735L642.702 328.303C641.853 327.252 642.26 325.828 643.497 325.506L656.64 322.09C656.801 322.049 656.957 321.984 657.098 321.898L661.224 319.433C662.059 318.94 663.225 319.207 663.873 320.037Z" fill="#605D5A"/>
<path d="M649.005 279.657C656.076 279.657 661.807 273.92 661.807 266.843C661.807 259.765 656.076 254.028 649.005 254.028C641.935 254.028 636.203 259.765 636.203 266.843C636.203 273.92 641.935 279.657 649.005 279.657Z" fill="#605D5A"/>
<path d="M260.314 302.966C259.032 301.044 230.382 255.427 222.582 225.044L233.665 222.377C240.802 250.185 270.819 295.782 271.115 296.23L260.314 302.966Z" fill="#8A6FE8"/>
<path d="M269.431 319.66C276.28 319.66 281.831 314.103 281.831 307.248C281.831 300.393 276.28 294.836 269.431 294.836C262.583 294.836 257.032 300.393 257.032 307.248C257.032 314.103 262.583 319.66 269.431 319.66Z" fill="url(#paint12_radial)"/>
<path d="M275.026 314.92C274.061 311.851 275.76 308.581 278.826 307.61L284.309 305.879C287.375 304.913 290.642 306.614 291.613 309.683C292.578 312.752 290.879 316.022 287.813 316.993L282.329 318.724C279.263 319.695 275.991 317.989 275.026 314.92Z" fill="#8A6FE8"/>
<path d="M177.672 245.893L163.638 234.201C161.135 232.118 157.421 232.46 155.34 234.96C153.259 237.466 153.601 241.184 156.099 243.267L170.132 254.959C172.636 257.042 176.35 256.7 178.431 254.199C180.512 251.694 180.175 247.976 177.672 245.893Z" fill="#8A6FE8"/>
<path d="M283.51 236.967C290.788 221.316 290.426 207.691 290.426 207.691L294.291 208.401L294.402 208.345C294.377 177.172 272.161 149.486 240.43 143.68C204.683 137.134 170.404 160.836 163.865 196.623C157.325 232.404 181.004 266.717 216.756 273.262C244.964 278.424 272.251 264.754 285.722 241.178C286.174 240.142 286.501 238.22 283.51 236.967Z" fill="url(#paint13_radial)"/>
<path d="M285.324 241.868C285.324 241.868 287.747 238.744 283.51 236.968C290.702 221.507 290.436 208.033 290.426 207.706L223.275 195.415C223.275 195.415 219.123 194.213 218.414 198.077C217.706 201.946 215.871 212.904 213.66 224.993C213.207 227.479 215.022 229.049 216.62 229.345L285.581 241.969C285.42 241.903 285.324 241.868 285.324 241.868Z" fill="url(#paint14_radial)"/>
<path d="M244.878 229.843C244.878 229.843 255.333 224.279 257.358 223.268C259.384 222.256 260.957 222.468 262.334 224.178C263.711 225.889 271.547 234.729 271.547 234.729L244.878 229.843Z" fill="#A08BE8"/>
<path d="M285.324 241.868C285.324 241.868 287.747 238.743 283.51 236.967C283.52 236.952 283.525 236.937 283.53 236.917L217.495 224.827C215.957 224.546 214.147 223.268 214.248 221.743C214.057 222.81 213.861 223.897 213.66 224.988C213.248 227.242 214.705 228.742 216.173 229.219C216.319 229.265 216.469 229.31 216.62 229.335L221.134 230.16L285.581 241.958C285.42 241.903 285.324 241.868 285.324 241.868Z" fill="#512BD4"/>
<path d="M278.403 251.488L166.79 231.056C168.519 235.775 170.776 240.263 173.5 244.449L267.39 261.636C271.422 258.692 275.121 255.291 278.403 251.488Z" fill="#D8CFF7"/>
<path d="M244.079 215.256C244.905 210.543 243.306 206.324 240.506 205.832C237.706 205.34 234.767 208.762 233.94 213.474C233.114 218.187 234.713 222.406 237.513 222.898C240.313 223.39 243.252 219.969 244.079 215.256Z" fill="#512BD4"/>
<path d="M239.786 210.081C237.585 211.575 237.017 214.574 238.51 216.772C239.525 218.271 241.239 219.011 242.923 218.86C243.445 217.794 243.853 216.571 244.084 215.238C244.461 213.099 244.33 211.067 243.817 209.432C242.495 209.054 241.018 209.246 239.786 210.081Z" fill="#8065E0"/>
<path d="M281.849 222.035C282.816 217.349 281.343 213.084 278.559 212.509C275.775 211.934 272.735 215.266 271.769 219.952C270.802 224.637 272.275 228.902 275.059 229.478C277.843 230.053 280.883 226.721 281.849 222.035Z" fill="#512BD4"/>
<path d="M277.614 216.466C275.413 217.96 274.845 220.958 276.337 223.157C277.363 224.666 279.087 225.406 280.781 225.245C281.248 224.284 281.62 223.192 281.861 222.02C282.334 219.721 282.218 217.532 281.655 215.822C280.323 215.444 278.846 215.63 277.614 216.466Z" fill="#8065E0"/>
<path d="M364.528 369.05C363.855 369.05 363.171 368.879 362.543 368.522L125.117 233.174C123.187 232.072 122.514 229.617 123.614 227.685C124.715 225.753 127.168 225.079 129.098 226.181L366.524 361.529C368.454 362.631 369.128 365.086 368.027 367.018C367.288 368.321 365.931 369.05 364.528 369.05Z" fill="#797673"/>
<path d="M143.423 241.637L142.503 253.893C142.282 257.158 144.745 259.99 148.012 260.212C151.274 260.433 154.104 257.968 154.325 254.698L155.27 242.13L143.423 241.637Z" fill="#8A6FE8"/>
<path d="M146.946 243.201L147.016 260.151C147.041 263.426 149.715 266.058 152.987 266.033C156.26 266.007 158.888 263.331 158.863 260.056L158.853 247.452L146.946 243.201Z" fill="#8A6FE8"/>
<path d="M154.511 245.666L158.426 262.168C159.175 265.358 162.367 267.33 165.548 266.581C168.735 265.831 170.705 262.636 169.956 259.452L165.971 242.643L154.511 245.666Z" fill="#8A6FE8"/>
<path d="M264.169 319.821C261.037 319.091 259.092 315.957 259.821 312.822L261.128 307.217C261.857 304.083 264.988 302.136 268.119 302.866C271.251 303.595 273.196 306.729 272.467 309.864L271.16 315.469C270.426 318.603 267.3 320.55 264.169 319.821Z" fill="#8A6FE8"/>
<path d="M271.713 323.79C268.582 323.061 266.637 319.926 267.365 316.792L268.672 311.187C269.401 308.053 272.532 306.106 275.664 306.835C278.795 307.565 280.74 310.699 280.012 313.834L278.705 319.438C277.976 322.568 274.845 324.52 271.713 323.79Z" fill="#8A6FE8"/>
<path d="M256.278 315.398C253.146 314.669 251.201 311.534 251.93 308.4L253.237 302.795C253.966 299.661 257.097 297.714 260.228 298.443C263.36 299.173 265.305 302.307 264.576 305.441L263.269 311.046C262.535 314.181 259.404 316.128 256.278 315.398Z" fill="#8A6FE8"/>
<path d="M152.937 250.733C152.656 250.235 146.021 238.427 140.899 226C135.566 213.065 138.602 205.689 142.086 201.775C149.635 193.297 165.639 192.895 192.449 200.512L189.157 212.129C177.129 208.713 167.498 207.053 160.542 207.193C155.863 207.289 152.51 208.22 151.093 209.81C149.434 211.671 149.786 215.892 152.053 221.396C156.883 233.119 163.382 244.686 163.447 244.796L152.937 250.733Z" fill="url(#paint15_linear)"/>
<path d="M155.209 255.271C162.058 255.271 167.609 249.714 167.609 242.859C167.609 236.004 162.058 230.447 155.209 230.447C148.361 230.447 142.81 236.004 142.81 242.859C142.81 249.714 148.361 255.271 155.209 255.271Z" fill="url(#paint16_radial)"/>
<path d="M192.303 218.84C198.977 218.84 204.386 213.425 204.386 206.745C204.386 200.065 198.977 194.65 192.303 194.65C185.63 194.65 180.22 200.065 180.22 206.745C180.22 213.425 185.63 218.84 192.303 218.84Z" fill="url(#paint17_radial)"/>
<path d="M298.921 332.202L319.825 344.121C321.237 341.782 322.685 339.357 323.962 337.213L303.143 325.345L298.921 332.202Z" fill="#594539"/>
<path d="M328.998 335.94C327.771 337.787 323.715 335.97 323.715 335.97L318.734 343.467C318.734 343.467 321.971 346.511 320.75 348.352L313.195 359.728C312.401 360.92 312.838 362.6 314.16 363.486L330.908 374.635C354.617 390.418 371.108 373.015 371.108 373.015C371.108 373.015 380.839 350.943 357.135 335.16L340.136 323.845C338.95 323.055 337.412 323.282 336.703 324.348L328.998 335.94Z" fill="#797673"/>
<path d="M700.977 410.205L706.682 430.34C707.129 431.91 706.038 433.515 704.415 433.66C692.437 434.742 680.932 428.594 675.102 418.154C674.282 416.69 675.071 414.844 676.685 414.386L697.75 408.404C699.137 408.012 700.585 408.817 700.977 410.205Z" fill="#605D5A"/>
<path d="M585.715 435.607L563.458 435.794C561.86 436.126 560.342 434.928 560.307 433.298C560.076 421.264 568.067 411.418 578.879 406.331C580.397 405.617 582.181 406.532 582.523 408.178L587.73 432.513C588.032 433.927 587.127 435.316 585.715 435.607Z" fill="#605D5A"/>
<path d="M514.437 341.364L513.758 341.208C509.853 340.313 507.415 336.418 508.31 332.509L516.211 298.016C516.714 295.817 515.342 293.623 513.145 293.115L511.808 292.808C509.612 292.305 507.42 293.679 506.913 295.877L498.881 330.929C498.056 334.527 494.473 336.776 490.879 335.951L489.763 335.694C488.034 335.297 486.315 336.378 485.918 338.104L483.978 346.581L514.904 353.68L516.845 345.203C517.242 343.482 516.161 341.762 514.437 341.364Z" fill="#52A898"/>
<path d="M483.973 346.591C483.49 348.704 481.224 358.586 479.987 363.984C478.308 371.314 473.895 373.991 473.895 373.991L477.579 374.836C483.802 370.987 485.637 362.988 485.637 362.988C485.637 362.988 486.401 370.942 481.329 375.697L484.264 376.371C488.326 371.662 490.487 363.813 490.487 363.813C490.487 363.813 489.386 372.688 487.707 377.161L503.54 380.793C503.54 380.793 508.999 379.44 510.657 372.185C511.753 367.405 514.231 356.583 514.894 353.69L483.973 346.591Z" fill="#797673"/>
<path d="M485.378 340.455L483.973 346.589L514.901 353.688L516.306 347.553L485.378 340.455Z" fill="#FAF9F8"/>
<path d="M637.279 341.188L625.638 335.644L620.924 341.067L620.999 345.474L633.61 346.727L638.656 343.94L637.279 341.188Z" fill="#CFEFEB"/>
<path d="M632.062 349.665C632.705 350.078 633.534 350.153 634.183 349.791L644.235 344.217C644.346 344.156 644.446 344.086 644.542 344L653.257 336.257C654.016 335.583 653.991 334.386 653.197 333.581C652.398 332.776 651.141 332.675 650.382 333.354L641.808 340.977L631.921 346.461C631.016 346.964 630.79 348.116 631.418 349.037C631.589 349.293 631.81 349.504 632.062 349.665Z" fill="#605D5A"/>
<path d="M495.367 316.656C495.694 317.506 496.498 318.095 497.348 318.029C498.911 317.909 502.831 316.56 504.515 315.962L514.266 320.032C515.246 320.439 516.287 319.926 516.583 318.885C516.88 317.838 516.327 316.661 515.347 316.253L504.963 311.922C504.55 311.751 504.108 311.735 503.711 311.881C501.444 312.707 497.795 313.909 496.795 313.984C495.78 314.065 495.081 315.031 495.232 316.153C495.262 316.324 495.307 316.495 495.367 316.656Z" fill="#605D5A"/>
<path d="M509.039 352.342C507.656 358.772 505.179 370.182 504.384 372.964C503.781 375.078 501.615 377.724 499.418 379.842L503.54 380.788C503.54 380.788 508.998 379.435 510.657 372.18C511.753 367.4 514.231 356.578 514.894 353.685L509.039 352.342Z" fill="#605D5A"/>
<path d="M510.315 346.174L508.993 352.332L514.904 353.69L516.307 347.552L510.315 346.174Z" fill="#C8C6C4"/>
<path d="M317.714 352.926L313.195 359.728C312.401 360.92 312.838 362.601 314.16 363.486L330.908 374.635C354.617 390.418 371.108 373.015 371.108 373.015C371.108 373.015 372.007 370.973 372.59 367.697C358.522 365.926 337.195 361.927 317.714 352.926Z" fill="url(#paint18_linear)"/>
<path d="M241.209 260.199L262.12 264.046L265.519 245.535L244.609 241.688L241.209 260.199Z" fill="#512BD4"/>
<path d="M246.12 253.957C245.979 253.932 245.873 253.862 245.793 253.751C245.713 253.635 245.688 253.515 245.713 253.384C245.738 253.253 245.808 253.147 245.924 253.067C246.039 252.991 246.165 252.966 246.306 252.991C246.446 253.017 246.557 253.087 246.637 253.203C246.718 253.318 246.748 253.439 246.723 253.575C246.698 253.706 246.627 253.811 246.512 253.887C246.391 253.962 246.261 253.988 246.12 253.957Z" fill="white"/>
<path d="M251.694 254.918L250.789 254.747L249.11 250.541C249.07 250.436 249.035 250.325 249.015 250.219L248.995 250.214C248.995 250.325 248.96 250.561 248.889 250.924L248.266 254.274L247.467 254.124L248.422 249.007L249.387 249.188L251.005 253.288C251.076 253.459 251.116 253.575 251.136 253.635L251.151 253.641C251.151 253.5 251.186 253.268 251.247 252.946L251.86 249.651L252.654 249.802L251.694 254.918Z" fill="white"/>
<path d="M255.584 255.643L252.785 255.12L253.74 250.003L256.429 250.506L256.293 251.225L254.433 250.878L254.162 252.327L255.876 252.649L255.74 253.369L254.026 253.047L253.745 254.561L255.715 254.928L255.584 255.643Z" fill="white"/>
<path d="M260.379 251.99L258.947 251.724L258.127 256.116L257.298 255.96L258.117 251.568L256.69 251.301L256.826 250.582L260.515 251.271L260.379 251.99Z" fill="white"/>
<path d="M233.353 138.699L246.522 140.535L247.783 116.351L238.334 115.022L233.353 138.699Z" fill="#8A6FE8"/>
<path d="M244.069 125.452C239.098 126.016 234.574 122.479 233.966 117.538C233.358 112.597 236.887 108.145 241.857 107.581C246.828 107.018 251.352 110.555 251.96 115.495C252.574 120.431 249.045 124.889 244.069 125.452Z" fill="#D8CFF7"/>
<path d="M227.211 146.18C226.623 146.09 226.2 145.521 226.361 144.948C227.894 138.855 233.835 134.775 240.274 135.68C246.708 136.586 251.357 142.135 251.221 148.429C251.206 149.023 250.663 149.466 250.075 149.375L227.211 146.18Z" fill="#522CD5"/>
<path d="M349.228 227.539L480.198 223.469L480.218 218.247L349.249 222.312L349.228 227.539Z" fill="#6FD0C3"/>
<path d="M361.437 254.134C361.96 254.119 362.467 253.837 362.759 253.349L374.289 234.075C374.731 233.335 374.505 232.394 373.776 231.977C373.053 231.559 372.103 231.821 371.66 232.56L360.13 251.835C359.688 252.574 359.914 253.515 360.643 253.933C360.889 254.079 361.165 254.144 361.437 254.134Z" fill="#52A898"/>
<path d="M462.892 251.603C462.37 251.618 461.867 251.372 461.575 250.904L450.196 232.344C449.759 231.629 449.995 230.674 450.724 230.211C451.453 229.748 452.397 229.949 452.835 230.663L464.214 249.223C464.651 249.938 464.415 250.894 463.686 251.357C463.435 251.513 463.164 251.593 462.892 251.603Z" fill="#52A898"/>
<path d="M411.237 260.634C412.087 260.609 412.781 259.895 412.781 259.045L412.861 238.12C412.866 237.27 412.177 236.601 411.328 236.626C410.479 236.651 409.785 237.365 409.785 238.216L409.704 259.14C409.699 259.99 410.388 260.659 411.237 260.634Z" fill="#52A898"/>
<path d="M346.293 227.625L480.112 223.464C476.594 228.369 466.858 232.822 453.428 236.032C443.099 241.179 429.945 243.307 413.258 243.825C396.621 244.343 380.854 243.302 373.179 238.582C359.618 236.213 349.801 232.349 346.293 227.625Z" fill="#AFE5DE"/>
<path d="M380.261 243.427C389.222 245.737 400.436 246.753 412.685 246.376C435.374 245.671 451.644 240.449 458.007 235.061C444.868 237.752 429.277 239.558 412.554 240.082C395.993 240.595 380.552 239.78 367.514 237.943C370.223 240.056 374.631 241.978 380.261 243.427Z" fill="#52A898"/>
<path d="M349.243 224.037L480.213 219.967L480.218 218.247L349.248 222.312L349.243 224.037Z" fill="#52A898"/>
<path d="M390.494 179.678C395.173 168.267 409.624 162.622 423.346 167.05C437.067 171.472 444.999 184.332 441.501 196.125L390.494 179.678Z" fill="#CFEFEB"/>
<path d="M430.031 170.129C428 168.876 425.768 167.83 423.346 167.05C409.624 162.627 395.168 168.267 390.494 179.678L400.376 182.863C404.98 172.695 417.5 167.372 430.031 170.129Z" fill="#EFFAF8"/>
<path d="M390.293 179.542C390.439 179.129 390.896 178.898 391.303 179.029L441.139 195.103C441.546 195.234 441.762 195.682 441.616 196.099C441.506 196.416 441.204 196.638 440.867 196.648C440.777 196.653 440.692 196.638 440.606 196.613L390.771 180.538C390.57 180.473 390.414 180.337 390.323 180.146C390.233 179.96 390.223 179.743 390.293 179.542Z" fill="#EFFAF8"/>
<path d="M380.758 199.42C380.984 198.666 381.562 198.092 382.331 197.921L383.261 197.891C383.266 197.876 383.271 197.866 383.271 197.856L442.647 196.009C442.652 196.024 442.657 196.034 442.657 196.05L443.652 196.024C444.351 196.145 444.924 196.683 445.15 197.423L447.065 203.808C447.266 204.472 447.165 205.186 446.788 205.775C446.416 206.358 445.833 206.706 445.2 206.726L380.643 208.733C380.004 208.753 379.431 208.441 379.059 207.878C378.687 207.314 378.597 206.605 378.798 205.926L380.758 199.42Z" fill="#52A898"/>
<path d="M379.296 205.266L447.276 203.153C468.1 205.568 478.977 211.344 480.253 218.443L346.188 222.609C347.525 215.429 358.447 208.974 379.296 205.266Z" fill="url(#paint19_linear)"/>
<path d="M450.789 213.201C451.895 213.165 452.795 212.24 452.8 211.138C452.805 210.031 451.91 209.161 450.804 209.196C449.699 209.231 448.799 210.157 448.794 211.259C448.794 212.371 449.684 213.236 450.789 213.201Z" fill="#6FD0C3"/>
<path d="M435.665 213.674C436.771 213.639 437.671 212.713 437.676 211.611C437.681 210.504 436.786 209.634 435.68 209.669C434.574 209.704 433.675 210.63 433.67 211.732C433.665 212.839 434.559 213.709 435.665 213.674Z" fill="#6FD0C3"/>
<path d="M420.536 214.142C421.642 214.106 422.542 213.181 422.547 212.079C422.552 210.972 421.657 210.102 420.551 210.137C419.445 210.172 418.546 211.098 418.541 212.2C418.541 213.306 419.43 214.177 420.536 214.142Z" fill="#6FD0C3"/>
<path d="M405.407 214.614C406.513 214.579 407.413 213.653 407.418 212.551C407.423 211.445 406.528 210.574 405.422 210.609C404.316 210.645 403.417 211.57 403.412 212.672C403.412 213.779 404.301 214.649 405.407 214.614Z" fill="#6FD0C3"/>
<path d="M390.283 215.082C391.389 215.047 392.288 214.121 392.293 213.019C392.298 211.912 391.404 211.042 390.298 211.077C389.192 211.112 388.293 212.038 388.287 213.14C388.282 214.247 389.177 215.117 390.283 215.082Z" fill="#6FD0C3"/>
<path d="M375.154 215.555C376.26 215.52 377.16 214.594 377.165 213.492C377.17 212.386 376.275 211.515 375.169 211.55C374.063 211.586 373.164 212.511 373.159 213.613C373.159 214.72 374.048 215.585 375.154 215.555Z" fill="#6FD0C3"/>
<path d="M660.073 165.53C662.78 165.53 664.974 163.334 664.974 160.625C664.974 157.916 662.78 155.72 660.073 155.72C657.367 155.72 655.172 157.916 655.172 160.625C655.172 163.334 657.367 165.53 660.073 165.53Z" fill="#CFECE9"/>
<path d="M57.4584 196.593C60.8117 196.593 63.5301 193.872 63.5301 190.515C63.5301 187.159 60.8117 184.438 57.4584 184.438C54.1051 184.438 51.3867 187.159 51.3867 190.515C51.3867 193.872 54.1051 196.593 57.4584 196.593Z" fill="#CFECE9"/>
<path d="M320.101 506.909C322.053 506.909 323.635 505.325 323.635 503.372C323.635 501.419 322.053 499.835 320.101 499.835C318.15 499.835 316.568 501.419 316.568 503.372C316.568 505.325 318.15 506.909 320.101 506.909Z" fill="#CFECE9"/>
<path d="M772.611 303.273C776.059 303.273 778.854 300.476 778.854 297.025C778.854 293.574 776.059 290.776 772.611 290.776C769.164 290.776 766.369 293.574 766.369 297.025C766.369 300.476 769.164 303.273 772.611 303.273Z" fill="#CFECE9"/>
<path d="M159.28 92.1307C159.245 92.1307 155.928 92.1056 152.676 90.4604C148.404 88.302 146.232 84.4683 146.232 79.0698C146.232 78.6674 145.906 78.3403 145.503 78.3403C145.101 78.3403 144.775 78.6674 144.775 79.0698C144.775 91.9546 132.259 92.1307 131.726 92.1307C131.334 92.1307 131.013 92.4427 131.003 92.8351C130.993 93.2275 131.294 93.5596 131.686 93.5847C131.721 93.5847 135.054 93.8061 138.316 95.5519C142.603 97.8411 144.775 101.574 144.775 106.646C144.775 107.048 145.101 107.375 145.503 107.375C145.906 107.375 146.232 107.048 146.232 106.646C146.232 101.765 148.409 98.0876 152.701 95.723C155.973 93.9218 159.316 93.5847 159.346 93.5797C159.733 93.5445 160.019 93.2074 160.004 92.82C159.989 92.4376 159.673 92.1307 159.28 92.1307Z" fill="#CFECE9"/>
<path d="M132.541 80.7149C133.19 80.7149 133.717 80.1878 133.717 79.5376C133.717 78.8874 133.19 78.3604 132.541 78.3604C131.891 78.3604 131.364 78.8874 131.364 79.5376C131.364 80.1878 131.891 80.7149 132.541 80.7149Z" fill="#CFECE9"/>
<path d="M135.506 83.6886C136.156 83.6886 136.682 83.1615 136.682 82.5113C136.682 81.8611 136.156 81.334 135.506 81.334C134.857 81.334 134.33 81.8611 134.33 82.5113C134.33 83.1615 134.857 83.6886 135.506 83.6886Z" fill="#CFECE9"/>
<path d="M138.477 86.6617C139.126 86.6617 139.653 86.1346 139.653 85.4844C139.653 84.8342 139.126 84.3071 138.477 84.3071C137.827 84.3071 137.301 84.8342 137.301 85.4844C137.301 86.1346 137.827 86.6617 138.477 86.6617Z" fill="#CFECE9"/>
<path d="M152.807 101.005C153.456 101.005 153.983 100.478 153.983 99.8282C153.983 99.178 153.456 98.6509 152.807 98.6509C152.157 98.6509 151.631 99.178 151.631 99.8282C151.631 100.478 152.157 101.005 152.807 101.005Z" fill="#CFECE9"/>
<path d="M155.777 103.979C156.427 103.979 156.953 103.452 156.953 102.802C156.953 102.152 156.427 101.625 155.777 101.625C155.128 101.625 154.601 102.152 154.601 102.802C154.601 103.452 155.128 103.979 155.777 103.979Z" fill="#CFECE9"/>
<path d="M158.748 106.947C159.397 106.947 159.924 106.42 159.924 105.77C159.924 105.12 159.397 104.593 158.748 104.593C158.098 104.593 157.571 105.12 157.571 105.77C157.571 106.42 158.098 106.947 158.748 106.947Z" fill="#CFECE9"/>
<path d="M132.541 106.948C133.19 106.948 133.717 106.421 133.717 105.771C133.717 105.12 133.19 104.593 132.541 104.593C131.891 104.593 131.365 105.12 131.365 105.771C131.365 106.421 131.891 106.948 132.541 106.948Z" fill="#CFECE9"/>
<path d="M135.506 103.98C136.156 103.98 136.682 103.452 136.682 102.802C136.682 102.152 136.156 101.625 135.506 101.625C134.857 101.625 134.33 102.152 134.33 102.802C134.33 103.452 134.857 103.98 135.506 103.98Z" fill="#CFECE9"/>
<path d="M138.477 101.006C139.126 101.006 139.653 100.479 139.653 99.8287C139.653 99.1785 139.126 98.6514 138.477 98.6514C137.827 98.6514 137.301 99.1785 137.301 99.8287C137.301 100.479 137.827 101.006 138.477 101.006Z" fill="#CFECE9"/>
<path d="M152.807 86.6617C153.456 86.6617 153.983 86.1346 153.983 85.4844C153.983 84.8342 153.456 84.3071 152.807 84.3071C152.157 84.3071 151.63 84.8342 151.63 85.4844C151.63 86.1346 152.157 86.6617 152.807 86.6617Z" fill="#CFECE9"/>
<path d="M155.777 83.6886C156.427 83.6886 156.953 83.1615 156.953 82.5113C156.953 81.8611 156.427 81.334 155.777 81.334C155.128 81.334 154.601 81.8611 154.601 82.5113C154.601 83.1615 155.128 83.6886 155.777 83.6886Z" fill="#CFECE9"/>
<path d="M158.747 80.7149C159.397 80.7149 159.924 80.1878 159.924 79.5376C159.924 78.8874 159.397 78.3604 158.747 78.3604C158.098 78.3604 157.571 78.8874 157.571 79.5376C157.571 80.1878 158.098 80.7149 158.747 80.7149Z" fill="#CFECE9"/>
<path d="M751.777 344.051C754.547 343.864 756.613 343.492 759.699 343.004C761.282 342.758 761.282 340.458 759.699 340.222C756.708 339.774 754.773 339.538 751.913 339.457C751.189 339.437 750.591 338.879 750.541 338.154C750.35 335.422 749.983 332.383 749.511 329.355C749.264 327.775 746.967 327.775 746.731 329.36C746.284 332.348 746.053 335.322 745.967 338.179C745.947 338.914 745.374 339.518 744.645 339.553C741.896 339.699 739.368 339.955 737.176 340.237C735.553 340.448 735.543 342.793 737.161 343.029C739.714 343.397 742.464 343.759 744.786 343.97C745.48 344.036 746.027 344.594 746.063 345.288C746.208 348.111 746.465 350.702 746.756 352.936C746.967 354.561 749.31 354.571 749.546 352.951C749.913 350.395 750.275 347.638 750.486 345.313C750.546 344.639 751.089 344.101 751.777 344.051Z" fill="#CFECE9"/>
<path d="M277.765 487.766C277.765 487.766 272.95 490.543 269.683 495.856C268.215 491.69 261.6 487.766 261.6 487.766C261.6 487.766 267.235 484.989 269.683 479.676C272.462 484.823 277.765 487.766 277.765 487.766Z" fill="#CFECE9"/>
<defs>
<radialGradient id="paint0_radial" cx="0" cy="0" r="1" gradientUnits="userSpaceOnUse" gradientTransform="translate(344.062 132.245) scale(101.167 101.265)">
<stop offset="0.0135" stop-color="#B6E3DE"/>
<stop offset="1" stop-color="#6FD0C3"/>
</radialGradient>
<radialGradient id="paint1_radial" cx="0" cy="0" r="1" gradientUnits="userSpaceOnUse" gradientTransform="translate(232.932 391.705) rotate(-179.485) scale(179.592 156.768)">
<stop stop-color="#6FD0C3"/>
<stop offset="0.9583" stop-color="#CFEFEB"/>
</radialGradient>
<linearGradient id="paint2_linear" x1="231.609" y1="253.854" x2="241.447" y2="304.57" gradientUnits="userSpaceOnUse">
<stop stop-color="#522CD5"/>
<stop offset="0.4397" stop-color="#8A6FE8"/>
</linearGradient>
<linearGradient id="paint3_linear" x1="231.609" y1="253.854" x2="241.447" y2="304.57" gradientUnits="userSpaceOnUse">
<stop stop-color="#522CD5"/>
<stop offset="0.4397" stop-color="#8A6FE8"/>
</linearGradient>
<linearGradient id="paint4_linear" x1="230.879" y1="302.662" x2="257.519" y2="358.252" gradientUnits="userSpaceOnUse">
<stop stop-color="#522CD5"/>
<stop offset="0.4397" stop-color="#8A6FE8"/>
</linearGradient>
<radialGradient id="paint5_radial" cx="0" cy="0" r="1" gradientUnits="userSpaceOnUse" gradientTransform="translate(248.804 337.838) scale(21.3378 21.3585)">
<stop offset="0.034" stop-color="#522CD5"/>
<stop offset="0.9955" stop-color="#8A6FE8"/>
</radialGradient>
<radialGradient id="paint6_radial" cx="0" cy="0" r="1" gradientUnits="userSpaceOnUse" gradientTransform="translate(333.795 61.0541) scale(317.616 317.924)">
<stop offset="0.0135" stop-color="#B6E3DE"/>
<stop offset="1" stop-color="#6FD0C3"/>
</radialGradient>
<radialGradient id="paint7_radial" cx="0" cy="0" r="1" gradientUnits="userSpaceOnUse" gradientTransform="translate(622.926 438.835) scale(147.31 147.452)">
<stop stop-color="#6FD0C3"/>
<stop offset="0.9583" stop-color="#CFEFEB"/>
</radialGradient>
<linearGradient id="paint8_linear" x1="212.058" y1="254.624" x2="200.462" y2="309.222" gradientUnits="userSpaceOnUse">
<stop stop-color="#522CD5"/>
<stop offset="0.4397" stop-color="#8A6FE8"/>
</linearGradient>
<linearGradient id="paint9_linear" x1="196.586" y1="305.145" x2="159.395" y2="366.751" gradientUnits="userSpaceOnUse">
<stop stop-color="#522CD5"/>
<stop offset="0.4397" stop-color="#8A6FE8"/>
</linearGradient>
<radialGradient id="paint10_radial" cx="0" cy="0" r="1" gradientUnits="userSpaceOnUse" gradientTransform="translate(167.459 337.989) rotate(-179.956) scale(22.9358 22.9629)">
<stop offset="0.034" stop-color="#522CD5"/>
<stop offset="0.9955" stop-color="#8A6FE8"/>
</radialGradient>
<radialGradient id="paint11_radial" cx="0" cy="0" r="1" gradientUnits="userSpaceOnUse" gradientTransform="translate(417.763 254.81) rotate(-0.850713) scale(104.521 58.798)">
<stop stop-color="#6FD0C3"/>
<stop offset="0.9583" stop-color="#CFEFEB"/>
</radialGradient>
<radialGradient id="paint12_radial" cx="0" cy="0" r="1" gradientUnits="userSpaceOnUse" gradientTransform="translate(275.53 307.862) rotate(86.7756) scale(17.8746 17.8573)">
<stop stop-color="#8065E0"/>
<stop offset="0.8628" stop-color="#512BD4"/>
</radialGradient>
<radialGradient id="paint13_radial" cx="0" cy="0" r="1" gradientUnits="userSpaceOnUse" gradientTransform="translate(243.654 192.702) scale(65.8111 65.875)">
<stop offset="0.4744" stop-color="#A08BE8"/>
<stop offset="0.8618" stop-color="#8065E0"/>
</radialGradient>
<radialGradient id="paint14_radial" cx="0" cy="0" r="1" gradientUnits="userSpaceOnUse" gradientTransform="translate(246.356 192.407) scale(63.7799 63.8418)">
<stop offset="0.2022" stop-color="#E1DFDD"/>
<stop offset="0.7337" stop-color="white"/>
</radialGradient>
<linearGradient id="paint15_linear" x1="192.448" y1="222.914" x2="138.006" y2="222.914" gradientUnits="userSpaceOnUse">
<stop offset="0.2495" stop-color="#967FE6"/>
<stop offset="1" stop-color="#8A6FE8"/>
</linearGradient>
<radialGradient id="paint16_radial" cx="0" cy="0" r="1" gradientUnits="userSpaceOnUse" gradientTransform="translate(161.309 243.468) rotate(86.7756) scale(17.8746 17.8573)">
<stop stop-color="#8065E0"/>
<stop offset="0.8628" stop-color="#512BD4"/>
</radialGradient>
<radialGradient id="paint17_radial" cx="0" cy="0" r="1" gradientUnits="userSpaceOnUse" gradientTransform="translate(192.847 201.692) scale(17.9448 17.9622)">
<stop stop-color="#8065E0"/>
<stop offset="0.8628" stop-color="#512BD4"/>
</radialGradient>
<linearGradient id="paint18_linear" x1="312.798" y1="367.089" x2="372.594" y2="367.089" gradientUnits="userSpaceOnUse">
<stop offset="0.0521" stop-color="#797673"/>
<stop offset="0.7483" stop-color="#B1ADA9"/>
</linearGradient>
<linearGradient id="paint19_linear" x1="413.168" y1="204.413" x2="413.673" y2="220.71" gradientUnits="userSpaceOnUse">
<stop offset="0.4711" stop-color="white"/>
<stop offset="0.8215" stop-color="#B6E3DE"/>
</linearGradient>
</defs>
</svg>
