<svg width="953" height="533" viewBox="0 0 953 533" fill="none" xmlns="http://www.w3.org/2000/svg">
<path d="M633.273 11.4321C438.787 62.8527 334.898 73.94 202.425 45.6951C45.2163 12.1831 -111.59 261.031 109.414 427.449C119.776 435.251 130.936 442.541 142.764 449.347H868.963C967.846 357.337 960.17 218.794 941.588 160.051C920.983 94.9359 827.764 -39.9833 633.273 11.4321Z" fill="#CFEFEB"/>
<path d="M952.916 250.402C922.673 245.391 894.126 235.597 894.126 235.597L841.657 204.296C841.657 204.296 824.573 201.975 798.951 195.023C773.329 188.066 753.804 173 753.804 173L720.861 169.522C720.861 169.522 670.457 197.454 574.557 231.659C360.197 161.569 308.437 134.748 308.437 134.748L286.476 138.226L219.369 170.685L193.747 161.412C193.747 161.412 131.484 198.684 0.54947 220.389C-4.46743 287.831 24.7474 363.689 109.419 427.449C123.349 437.936 138.692 447.501 155.197 456.205L729.408 467.443C729.408 467.443 732.396 461.639 735.656 451.746L860.134 457.195C929.818 398.046 951.455 316.847 952.916 250.402Z" fill="url(#paint0_linear)"/>
<path d="M193.747 161.412L219.369 170.685C219.369 170.685 212.453 174.935 226.284 179.571C240.114 184.207 273.465 210.486 273.465 210.486C273.465 210.486 239.301 194.257 216.521 188.077C193.747 181.892 192.12 177.255 201.877 178.033C211.64 178.804 205.945 171.076 200.25 169.532C194.555 167.988 193.747 161.412 193.747 161.412Z" fill="#AFE5DE"/>
<path d="M328.776 152.521C332.843 157.929 340.165 170.293 340.165 170.293L313.323 165.657C313.323 165.657 318.205 171.842 329.594 175.702C340.984 179.566 358.063 184.974 338.543 183.43C319.018 181.887 284.041 180.338 314.142 191.931C344.238 203.524 359.696 217.433 359.696 217.433C359.696 217.433 367.831 215.889 382.47 218.204C397.114 220.525 424.769 230.569 424.769 230.569C424.769 230.569 415.007 218.976 401.995 205.839C388.978 192.703 402.809 190.382 419.08 206.611C435.351 222.841 446.735 228.249 469.515 230.569C492.289 232.89 502.052 239.07 502.052 239.07C502.052 239.07 467.074 238.298 469.515 239.07C471.955 239.842 484.972 248.342 484.972 248.342L449.995 249.886C449.995 249.886 420.712 259.93 467.079 271.523C497.306 279.08 567.981 259.706 613.524 245.302C605.091 241.923 596.158 238.679 586.661 235.586C362.131 162.57 308.442 134.748 308.442 134.748C308.442 134.748 324.713 147.112 328.776 152.521Z" fill="#AFE5DE"/>
<path d="M894.131 235.602L841.662 204.301C841.662 204.301 824.578 201.981 798.956 195.029C773.335 188.072 753.809 173.006 753.809 173.006L720.866 169.527C720.866 169.527 746.081 193.485 764.792 198.122C783.504 202.758 779.436 206.622 771.301 206.622C763.165 206.622 733.883 202.758 733.883 202.758C733.883 202.758 785.945 215.895 803.838 220.531C821.736 225.167 820.109 223.623 816.041 217.438C811.973 211.258 820.109 213.574 833.939 222.074C847.769 230.575 871.357 235.211 871.357 235.211C871.357 235.211 860.781 242.168 846.956 243.712C833.125 245.255 822.554 246.032 806.283 243.712C790.012 241.391 787.572 246.804 819.3 255.305C851.024 263.805 855.905 250.669 886.001 265.349C901.375 272.848 928.426 276.113 951.21 277.516C952.18 268.275 952.728 259.206 952.921 250.397C922.673 245.391 894.131 235.602 894.131 235.602Z" fill="#AFE5DE"/>
<path d="M59.8653 382.146L899.127 415.773C914.517 395.173 925.938 373.249 934.209 351.069C921.307 353.259 903.966 356.441 905.004 355.523L834.757 341.943L698.811 375.46L449.953 330.339L332.087 346.965L167.969 288.994L118.347 306.559C90.4517 321.959 53.2161 308.535 11.1044 300.577C20.5541 328.086 36.3975 355.674 59.8653 382.146Z" fill="#8FDAD0"/>
<path d="M822.643 381.822C758.184 376.779 653.794 404.93 653.794 404.93C653.794 404.93 582.061 366.787 525.691 376.524C469.337 386.26 425.63 395.047 392.436 385.478C294.246 357.165 212.171 331.288 36.361 351.575C53.6385 377.848 77.6174 403.501 109.414 427.443C287.394 561.466 697.09 545.163 797.652 497.216C854.293 470.207 891.654 432.231 915.507 390.901C880.337 384.779 838.778 383.089 822.643 381.822Z" fill="#6FD0C3"/>
<path d="M545.482 132.521C551.037 130.388 558.583 132.615 559.37 134.242C560.158 135.869 559.98 139.535 557.926 137.548C555.167 134.878 549.263 134.779 546.588 136.14C543.913 137.501 545.482 132.521 545.482 132.521Z" fill="#F7B548"/>
<path d="M506.484 126.993L503.898 126.545C503.001 126.388 502.13 127.077 501.921 128.104L501.243 131.452C501.055 132.37 501.457 133.293 502.198 133.653L504.633 134.837C505.613 135.311 506.761 134.623 507.006 133.408L507.835 129.324C508.059 128.219 507.444 127.16 506.484 126.993Z" fill="#F7B548"/>
<path d="M444.634 444.361L452.868 443.167C454.057 442.995 454.772 441.748 454.313 440.637L448.425 426.265C448.102 425.482 447.288 425.013 446.449 425.138L445.672 425.253C444.832 425.373 444.185 426.051 444.097 426.896L442.527 442.348C442.412 443.542 443.445 444.533 444.634 444.361Z" fill="#512BD4"/>
<path d="M227.619 458.328L199.363 310.345L174.644 462.849L227.619 458.328Z" fill="#57AA9A"/>
<path d="M269.386 432.779L306.909 303.252L346.486 433.806L269.386 432.779Z" fill="#57AA9A"/>
<path d="M211.395 447.996L229.898 377.061L249.433 447.996H211.395Z" fill="#64BFAF"/>
<path d="M249.799 448.32L278.07 349.119L307.368 446.781L249.799 448.32Z" fill="#57AA9A"/>
<path d="M328.87 466.807L361.255 355.783L393.119 465.78L328.87 466.807Z" fill="#64BFAF"/>
<path d="M72.7469 395.799L42.5986 292.754L29.4253 340.394C40.4082 359.23 54.7132 377.827 72.7469 395.799Z" fill="#57AA9A"/>
<path d="M85.0908 237.448L56.9659 378.845C71.3439 395.569 88.7205 411.872 109.409 427.449C115.281 431.871 121.409 436.122 127.766 440.221L85.0908 237.448Z" fill="#64BFAF"/>
<path d="M135.155 285.766L102.034 421.754C104.444 423.663 106.905 425.561 109.409 427.449C128.23 441.623 149.648 454.108 173.012 465.06L183.27 464.684L135.155 285.766Z" fill="#57AA9A"/>
<path d="M793.084 499.281C793.022 499.307 792.959 499.334 792.896 499.36C792.959 499.334 793.022 499.307 793.084 499.281Z" fill="#64BFAF"/>
<path d="M795.509 498.212C795.436 498.243 795.363 498.28 795.29 498.311C795.363 498.28 795.436 498.243 795.509 498.212Z" fill="#64BFAF"/>
<path d="M800.176 472.627L770.08 329.63L744.37 458.901C763.973 463.381 782.805 468.012 800.176 472.627Z" fill="#64BFAF"/>
<path d="M804.333 493.931C804.432 493.878 804.531 493.831 804.63 493.779C804.531 493.831 804.432 493.878 804.333 493.931Z" fill="#64BFAF"/>
<path d="M801.229 495.479C800.046 496.064 798.851 496.642 797.652 497.216C798.851 496.648 800.046 496.064 801.229 495.479Z" fill="#64BFAF"/>
<path d="M753.976 461.117L735.009 396.284L719.04 453.279C730.894 455.829 742.586 458.453 753.976 461.117Z" fill="#57AA9A"/>
<path d="M815.289 473.842L792.792 364.795L767.081 494.066C786.685 498.546 803.498 486.504 815.289 473.842Z" fill="#57AA9A"/>
<path d="M878.345 434.761L859.377 369.927L843.409 426.922C855.263 429.467 866.955 432.09 878.345 434.761Z" fill="#57AA9A"/>
<path d="M850.58 450.724L825.318 330.704L797.193 472.1C799.274 474.52 801.423 476.924 803.624 479.323C821.089 470.765 836.682 461.154 850.58 450.724Z" fill="#64BFAF"/>
<path d="M670.733 493.008C670.733 493.008 658.431 513.2 702.582 521.534C744.01 515.401 777.215 506.963 797.652 497.216C843.363 475.422 876.515 446.479 900.144 414.396C841.23 423.313 761.142 444.226 670.733 493.008Z" fill="#57AA9A"/>
<path d="M551.047 425.436C385.25 408.909 222.273 430.583 160.949 459.177C356.551 558.378 705.862 540.981 797.647 497.216C808.427 492.074 818.507 486.541 827.931 480.658C754.758 458.53 636.267 433.931 551.047 425.436Z" fill="#64BFAF"/>
<path d="M165.794 461.591C362.266 558.091 706.618 540.621 797.652 497.216C801.162 495.542 804.588 493.821 807.952 492.068C734.717 469.998 616.757 445.539 531.84 437.075C384.451 422.385 239.295 437.884 165.794 461.591Z" fill="#57AA9A"/>
<path d="M408.728 524.752C491.428 444.862 628.496 442.76 679.411 445.045C634.66 436.367 589.472 429.264 551.047 425.431C538.708 424.2 526.385 423.183 514.119 422.364C427.904 421.545 325.115 435.668 236.771 489.832C290.08 506.947 349.187 518.196 408.728 524.752Z" fill="#7FD5CA"/>
<path d="M611.542 350.579C599.918 341.572 577.832 321.395 567.673 293.974L583.954 287.94C593.164 312.811 613.253 330.052 622.499 336.973C623.26 337.546 618.41 345.061 611.542 350.579Z" fill="url(#paint1_linear)"/>
<path d="M611.542 350.579C599.918 341.572 577.832 321.395 567.673 293.974L583.954 287.94C593.164 312.811 613.253 330.052 622.499 336.973C623.26 337.546 618.41 345.061 611.542 350.579Z" fill="url(#paint2_linear)"/>
<path d="M622.363 336.884L613.779 347.616L650.05 419.908L680.637 381.786C681.946 380.148 681.607 377.848 679.875 376.654L622.363 336.884Z" fill="#522CD5"/>
<path d="M627.051 417.582C626.77 420.601 629.184 422.745 631.552 424.382L638.811 429.399C640.11 430.296 641.977 430.025 642.963 428.789L653.763 415.293C654.879 413.9 654.592 411.939 653.116 410.922L645.847 405.405C643.114 403.517 641.669 401.963 641.998 397.937C643.948 374.114 636.303 354.646 619.317 340.691L611.464 350.511C619.698 358.24 630.733 377.89 627.051 417.582Z" fill="url(#paint3_linear)"/>
<path d="M642.958 428.794C641.972 430.025 640.105 430.301 638.806 429.404L631.547 424.388C629.993 423.313 628.439 422.015 627.62 420.398L642.467 401.843C643.083 403.293 644.23 404.304 645.842 405.415L653.111 410.933C654.582 411.95 654.874 413.905 653.758 415.303L642.958 428.794Z" fill="url(#paint4_radial)"/>
<path d="M531.95 359.043C531.72 344.341 533.676 314.485 548.742 289.427L563.621 298.371C549.957 321.098 549.045 347.559 549.415 359.1C549.446 360.055 540.549 360.962 531.95 359.043Z" fill="url(#paint5_linear)"/>
<path d="M531.95 359.043C531.72 344.341 533.676 314.485 548.742 289.427L563.621 298.371C549.957 321.098 549.045 347.559 549.415 359.1C549.446 360.055 540.549 360.962 531.95 359.043Z" fill="url(#paint6_linear)"/>
<path d="M549.405 358.938H535.663L501.875 432.424L550.75 432.487C552.847 432.487 554.432 430.787 554.286 428.685L549.405 358.938Z" fill="#522CD5"/>
<path d="M489.322 413.013C486.787 414.682 486.62 417.9 486.824 420.773L487.439 429.576C487.549 431.151 488.931 432.439 490.506 432.439H507.794C509.582 432.439 510.928 430.99 510.803 429.206L510.568 420.085C510.338 416.768 510.646 414.672 513.999 412.413C533.822 399.052 544.247 380.92 544.528 358.943H531.955C531.063 370.197 522.61 391.089 489.322 413.013Z" fill="url(#paint7_linear)"/>
<path d="M490.506 432.44C488.925 432.44 487.549 431.152 487.439 429.577L486.824 420.774C486.693 418.891 486.735 416.862 487.481 415.214H511.246C510.5 416.602 510.427 418.13 510.563 420.08L510.797 429.201C510.923 430.985 509.577 432.435 507.788 432.435H490.506V432.44Z" fill="url(#paint8_radial)"/>
<path d="M504.455 251.383C512.137 246.069 519.954 238.424 527.329 227.555L511.73 216.969C500.142 234.048 485.869 243.347 470.463 243.863C453.78 244.421 438.521 234.695 430.803 224.812L415.945 236.416C425.822 249.062 446.192 263.539 471.094 262.705C480.367 262.397 492.247 259.826 504.455 251.383Z" fill="#8A6FE8"/>
<path d="M582.426 141.731L665.737 145.423C677.059 145.924 686.644 137.152 687.145 125.83C687.645 114.508 678.874 104.923 667.552 104.422L584.241 100.73C572.919 100.229 563.334 109.001 562.833 120.323C562.333 131.645 571.104 141.23 582.426 141.731Z" fill="url(#paint9_linear)"/>
<path d="M605.717 295.852L674.425 298.897C683.891 299.315 691.901 291.988 692.324 282.522L697.737 160.39C698.154 150.925 690.827 142.915 681.361 142.492L612.653 139.447C603.187 139.029 595.177 146.357 594.755 155.822L589.341 277.954C588.924 287.424 596.257 295.435 605.717 295.852Z" fill="#2B0B98"/>
<path d="M673.804 298.871L674.425 298.898C683.89 299.315 691.901 291.988 692.323 282.522L697.736 160.39C698.154 150.925 690.826 142.915 681.361 142.492L680.74 142.466C671.275 142.049 663.265 149.376 662.842 158.842L657.429 280.973C657.007 290.439 664.339 298.454 673.804 298.871Z" fill="#512BD4"/>
<path d="M705.372 238.043C703.88 236.911 704.386 234.992 705.476 234.153C706.566 233.308 706.973 230.862 707.233 226.591C707.489 222.32 706.529 216.672 703.937 214.434C701.34 212.197 699.854 208.86 699.917 207.822C699.979 206.784 700.183 203.42 700.183 203.42L696.73 203.212L695.129 203.118L691.677 202.909C691.677 202.909 691.473 206.278 691.411 207.311C691.348 208.349 689.471 211.483 686.623 213.391C683.781 215.3 682.149 220.792 681.893 225.063C681.638 229.334 681.747 231.811 682.728 232.781C683.708 233.751 683.979 235.717 682.363 236.656C680.746 237.6 680.756 241.756 680.668 243.18C680.584 244.604 679.286 266.1 679.14 268.562C678.994 271.023 680.297 275.258 681.878 277.041C683.458 278.825 687.14 278.137 687.14 278.137C687.14 278.137 688.449 278.455 689.799 278.721C690.081 278.877 690.336 278.976 690.55 278.992C690.769 279.008 691.046 279.008 691.353 278.997C691.656 279.039 691.932 279.075 692.151 279.086C692.365 279.096 692.631 279.028 692.928 278.908C694.3 278.804 695.64 278.648 695.64 278.648C695.64 278.648 699.213 279.774 700.996 278.189C702.78 276.609 704.584 272.556 704.735 270.095C704.881 267.633 706.18 246.137 706.263 244.713C706.352 243.3 706.863 239.175 705.372 238.043Z" fill="#72ACF1"/>
<path d="M680.673 243.185C680.595 244.489 679.505 262.559 679.208 267.529L704.798 269.072C705.095 264.103 706.185 246.032 706.263 244.729C706.31 243.962 706.472 242.413 706.383 240.968L681.007 239.44C680.746 240.859 680.72 242.418 680.673 243.185Z" fill="white"/>
<path d="M701.132 205.657L701.465 200.145C701.507 199.41 700.949 198.784 700.219 198.737L691.958 198.241C691.223 198.2 690.597 198.758 690.55 199.488L690.217 205L701.132 205.657Z" fill="#F9F8F7"/>
<path d="M688.067 124.722C688.55 113.82 681.394 104.647 672.083 104.235C662.772 103.822 654.832 112.325 654.348 123.227C653.865 134.129 661.021 143.302 670.332 143.715C679.643 144.128 687.583 135.625 688.067 124.722Z" fill="#512BD4"/>
<path d="M493.384 236.317C488.185 211.983 493.076 192.958 493.076 192.958L487.418 192.708L487.282 192.593C497.348 148.808 537.498 117.074 583.986 119.134C636.361 121.455 676.934 165.793 674.613 218.168C672.292 270.543 627.954 311.116 575.579 308.796C534.255 306.965 500.278 278.965 488.925 241.506C488.618 239.92 488.774 237.114 493.384 236.317Z" fill="url(#paint10_radial)"/>
<path d="M495.814 258.36L659.343 265.609C655.395 271.685 650.775 277.26 645.596 282.261L508.038 276.165C503.313 270.725 499.209 264.759 495.814 258.36Z" fill="#D8CFF7"/>
<path d="M604.746 118.643L586.942 114.226L593.988 96.5732L606.77 99.744L604.746 118.643Z" fill="#8A6FE8"/>
<path d="M603.135 101.752C610.35 101.752 616.199 95.9032 616.199 88.6883C616.199 81.4734 610.35 75.6245 603.135 75.6245C595.92 75.6245 590.071 81.4734 590.071 88.6883C590.071 95.9032 595.92 101.752 603.135 101.752Z" fill="#D8CFF7"/>
<path d="M608.783 131.509C609.586 131.707 610.399 131.175 610.509 130.351C611.667 121.668 606.133 113.319 597.429 111.155C588.725 108.996 579.933 113.788 576.892 122.007C576.606 122.784 577.075 123.64 577.878 123.838L608.783 131.509Z" fill="url(#paint11_radial)"/>
<path d="M553.803 256L523.201 254.643L522 281.713L552.603 283.07L553.803 256Z" fill="#512BD4"/>
<path d="M527.146 272.238C526.917 272.228 526.724 272.145 526.567 271.983C526.411 271.816 526.338 271.628 526.348 271.409C526.359 271.19 526.447 271.002 526.614 270.851C526.781 270.7 526.985 270.632 527.214 270.643C527.449 270.653 527.642 270.742 527.798 270.909C527.955 271.075 528.033 271.268 528.022 271.487C528.012 271.707 527.923 271.889 527.751 272.04C527.584 272.181 527.386 272.249 527.146 272.238Z" fill="white"/>
<path d="M536.403 272.52L534.901 272.452L531.219 266.027C531.125 265.866 531.052 265.699 530.995 265.527H530.959C530.979 265.709 530.979 266.1 530.953 266.695L530.708 272.27L529.378 272.212L529.754 263.712L531.355 263.785L534.912 270.053C535.063 270.314 535.157 270.491 535.198 270.591H535.219C535.193 270.361 535.188 269.98 535.214 269.443L535.459 263.967L536.784 264.025L536.403 272.52Z" fill="white"/>
<path d="M542.875 272.807L538.218 272.598L538.593 264.098L543.063 264.296L543.011 265.495L539.918 265.36L539.814 267.769L542.666 267.894L542.614 269.083L539.762 268.958L539.652 271.472L542.932 271.618L542.875 272.807Z" fill="white"/>
<path d="M549.816 265.798L547.433 265.693L547.109 273L545.733 272.937L546.056 265.631L543.678 265.527L543.73 264.327L549.863 264.598L549.816 265.798Z" fill="white"/>
<path d="M603.813 138.894C603.813 138.894 628.548 141.251 633.477 141.892C640.694 142.831 640.767 153.225 640.851 155.832C640.934 158.44 639.119 158.163 637.424 155.41C635.729 152.656 638.697 145.136 633.743 144.896C628.788 144.656 601.3 144.609 601.3 144.609L603.813 138.894Z" fill="#F7B548"/>
<path d="M599.302 137.986L602.264 138.195C603.292 138.268 604.079 139.134 604.058 140.166L603.98 143.52C603.959 144.437 603.292 145.214 602.384 145.376L599.406 145.903C598.207 146.117 597.112 145.178 597.143 143.958L597.237 139.869C597.263 138.769 598.202 137.908 599.302 137.986Z" fill="#F7B548"/>
<path d="M578.598 129.632C559.813 128.046 554.989 134.164 555.542 145.872C556.027 156.192 566.082 166.268 575.704 166.805C585.988 167.379 596.397 159.556 598.848 147.984C601.299 136.411 597.596 131.238 578.598 129.632Z" fill="#F7B548"/>
<path d="M578.332 132.553C562.504 131.218 558.442 136.37 558.911 146.237C559.323 154.931 567.793 163.421 575.897 163.869C584.559 164.349 593.331 157.762 595.396 148.015C597.451 138.268 594.337 133.903 578.332 132.553Z" fill="#C7E0F4"/>
<path d="M526.286 123.431C507.501 121.846 502.677 127.963 503.23 139.671C503.715 149.992 513.77 160.067 523.391 160.604C533.675 161.178 544.085 153.355 546.536 141.783C548.987 130.211 545.284 125.037 526.286 123.431Z" fill="#F7B548"/>
<path d="M526.019 126.356C510.192 125.021 506.129 130.174 506.598 140.041C507.01 148.734 515.48 157.224 523.584 157.673C532.246 158.153 541.018 151.566 543.083 141.819C545.143 132.072 542.025 127.707 526.019 126.356Z" fill="white"/>
<path d="M560.908 136.886C559.245 139.201 558.718 142.351 558.906 146.236C559.318 154.93 567.787 163.42 575.891 163.869C584.324 164.338 592.866 158.101 595.213 148.771C584.329 145.501 572.856 141.579 560.908 136.886Z" fill="white"/>
<path d="M542.645 143.499C542.812 142.951 542.958 142.388 543.078 141.814C545.143 132.067 542.025 127.702 526.02 126.351C517.723 125.653 512.664 126.737 509.79 129.345C521.065 134.732 532.043 139.42 542.645 143.499Z" fill="#C7E0F4"/>
<path d="M661.69 159.055C661.554 161.991 662.566 165.532 664.782 171.107C645.158 177.459 630.978 195.565 630.045 216.692C629.101 237.954 641.951 256.285 660.376 264.352C657.799 268.655 655.52 271.857 652.511 275.106C630.926 264.42 616.501 241.708 617.633 216.144C618.811 189.532 636.835 166.763 661.69 159.055Z" fill="#2B0B98"/>
<path d="M675.458 242.403C668.996 235.654 660.219 229.146 648.324 223.576L640.334 240.65C659.03 249.401 670.462 262.022 673.403 277.161C676.584 293.547 669.393 310.146 660.845 319.33L674.649 332.17C685.58 320.42 696.662 298.021 691.911 273.563C690.138 264.452 685.726 253.125 675.458 242.403Z" fill="url(#paint12_linear)"/>
<path d="M660.209 333.818L643.453 339.559C638.978 341.056 634.133 338.647 632.637 334.172C631.14 329.698 633.549 324.853 638.024 323.356L655.202 317.468L660.209 333.818Z" fill="#8A6FE8"/>
<path d="M675.708 325.625L674.905 343.32C674.66 348.034 670.639 351.653 665.925 351.408C661.21 351.163 657.591 347.142 657.836 342.428L658.66 324.285L675.708 325.625Z" fill="#8A6FE8"/>
<path d="M663.411 325.077L662.154 342.746C661.789 347.45 657.674 350.97 652.97 350.6C648.266 350.235 644.746 346.12 645.116 341.416L646.404 323.299L663.411 325.077Z" fill="#8A6FE8"/>
<path d="M683.452 323.126L682.649 340.821C682.404 345.536 678.383 349.155 673.669 348.91C668.954 348.665 665.335 344.644 665.58 339.929L666.404 321.786L683.452 323.126Z" fill="#8A6FE8"/>
<path d="M666.107 343.418C675.986 343.418 683.995 335.41 683.995 325.531C683.995 315.652 675.986 307.643 666.107 307.643C656.228 307.643 648.219 315.652 648.219 325.531C648.219 335.41 656.228 343.418 666.107 343.418Z" fill="url(#paint13_radial)"/>
<path d="M639.656 246.454C649.285 246.454 657.09 238.649 657.09 229.02C657.09 219.392 649.285 211.586 639.656 211.586C630.028 211.586 622.222 219.392 622.222 229.02C622.222 238.649 630.028 246.454 639.656 246.454Z" fill="url(#paint14_radial)"/>
<path d="M493.347 236.317C488.21 212.28 492.919 193.438 493.034 192.979L591.422 197.339C591.422 197.339 597.648 196.985 597.398 202.648C597.148 208.307 596.204 224.296 595.422 241.991C595.26 245.631 592.204 247.253 589.857 247.148C589.857 247.143 495.141 241.594 493.347 236.317Z" fill="url(#paint15_radial)"/>
<path d="M554.202 238.945C554.202 238.945 539.605 226.299 536.747 223.952C533.889 221.605 531.313 221.37 528.502 223.587C525.691 225.803 510.014 236.984 510.014 236.984L554.202 238.945Z" fill="#A08BE8"/>
<path d="M574.823 218.431C575.231 211.548 572.243 205.771 568.149 205.528C564.055 205.286 560.405 210.668 559.997 217.551C559.589 224.434 562.577 230.211 566.671 230.453C570.765 230.696 574.414 225.313 574.823 218.431Z" fill="#512BD4"/>
<path d="M515.117 215.468C515.32 208.575 512.161 202.89 508.061 202.769C503.961 202.649 500.474 208.138 500.271 215.031C500.068 221.923 503.227 227.608 507.327 227.729C511.427 227.85 514.915 222.36 515.117 215.468Z" fill="#512BD4"/>
<path d="M567.75 211.717C566.3 210.137 564.293 209.381 562.306 209.469C561.049 211.592 560.188 214.398 560.006 217.521C559.891 219.467 560.053 221.318 560.428 222.987C562.739 223.759 565.393 223.289 567.317 221.527C570.144 218.94 570.337 214.544 567.75 211.717Z" fill="#8065E0"/>
<path d="M508.064 208.667C506.614 207.081 504.601 206.325 502.609 206.419C501.248 208.63 500.351 211.665 500.252 215.045C500.2 216.771 500.361 218.419 500.695 219.926C503.016 220.719 505.691 220.249 507.626 218.476C510.458 215.884 510.656 211.493 508.064 208.667Z" fill="#8065E0"/>
<path d="M489.222 242.611C489.222 242.611 486.818 237.443 493.347 236.312C493.342 236.286 590.081 240.525 590.081 240.525C592.334 240.625 595.291 239.409 595.636 237.24C595.563 238.804 595.489 240.385 595.422 241.986C595.276 245.287 592.746 246.924 590.525 247.122C590.306 247.138 590.081 247.154 589.857 247.143L583.245 246.851L489.222 242.611Z" fill="#512BD4"/>
<path d="M419.148 226.898L424.702 210.079C426.214 205.61 431.064 203.211 435.533 204.718C440.003 206.231 442.402 211.081 440.895 215.55L435.2 232.802L419.148 226.898Z" fill="#8A6FE8"/>
<path d="M418.397 250.778C428.276 250.778 436.285 242.77 436.285 232.891C436.285 223.012 428.276 215.003 418.397 215.003C408.518 215.003 400.509 223.012 400.509 232.891C400.509 242.77 408.518 250.778 418.397 250.778Z" fill="url(#paint16_radial)"/>
<path d="M420.081 243.852C421.39 243.586 422.657 244.483 422.845 245.808L448.811 429.634C448.988 430.907 448.096 432.08 446.824 432.257C446.036 432.367 445.285 432.064 444.785 431.517C444.482 431.183 444.268 430.755 444.206 430.27L418.24 246.46C418.068 245.24 418.219 244.348 419.424 244.103L420.081 243.852Z" fill="white"/>
<path d="M425.766 261.647L419.914 262.465C417.354 262.825 414.986 261.036 414.626 258.471L406.272 198.565C405.912 196.004 407.701 193.637 410.266 193.277L416.118 192.458C418.678 192.098 421.046 193.887 421.406 196.453L429.76 256.358C430.115 258.919 428.326 261.287 425.766 261.647Z" fill="#2B0B98"/>
<path d="M407.194 250.653L414.626 251.555C419.283 252.119 423.523 248.802 424.086 244.14C424.649 239.482 421.333 235.243 416.67 234.679L409.239 233.777C404.582 233.214 400.342 236.531 399.779 241.193C399.215 245.85 402.537 250.085 407.194 250.653Z" fill="#8A6FE8"/>
<path d="M402.417 238.423L409.849 239.325C414.506 239.889 418.746 236.572 419.309 231.91C419.872 227.252 416.555 223.013 411.893 222.449L404.462 221.547C399.805 220.984 395.565 224.301 395.002 228.963C394.438 233.625 397.755 237.86 402.417 238.423Z" fill="#8A6FE8"/>
<path d="M398.329 227.122L405.76 228.025C410.418 228.588 414.657 225.271 415.221 220.609C415.784 215.952 412.467 211.712 407.805 211.149L400.373 210.246C395.716 209.683 391.476 213 390.913 217.662C390.35 222.319 393.667 226.559 398.329 227.122Z" fill="#8A6FE8"/>
<defs>
<linearGradient id="paint0_linear" x1="431.153" y1="504.864" x2="497.634" y2="127.831" gradientUnits="userSpaceOnUse">
<stop offset="0.3328" stop-color="#BFEAE4"/>
<stop offset="0.7982" stop-color="#8FDAD0"/>
</linearGradient>
<linearGradient id="paint1_linear" x1="571.643" y1="290.687" x2="617.402" y2="345.73" gradientUnits="userSpaceOnUse">
<stop stop-color="#522CD5"/>
<stop offset="0.4397" stop-color="#8A6FE8"/>
</linearGradient>
<linearGradient id="paint2_linear" x1="571.643" y1="290.687" x2="617.402" y2="345.73" gradientUnits="userSpaceOnUse">
<stop stop-color="#522CD5"/>
<stop offset="0.4397" stop-color="#8A6FE8"/>
</linearGradient>
<linearGradient id="paint3_linear" x1="610.585" y1="344.282" x2="645.072" y2="428.331" gradientUnits="userSpaceOnUse">
<stop stop-color="#522CD5"/>
<stop offset="0.4397" stop-color="#8A6FE8"/>
</linearGradient>
<radialGradient id="paint4_radial" cx="0" cy="0" r="1" gradientUnits="userSpaceOnUse" gradientTransform="translate(623.763 401.689) rotate(128.662) scale(28.0068)">
<stop offset="0.034" stop-color="#522CD5"/>
<stop offset="0.9955" stop-color="#8A6FE8"/>
</radialGradient>
<linearGradient id="paint5_linear" x1="553.822" y1="290.388" x2="539.435" y2="360.505" gradientUnits="userSpaceOnUse">
<stop stop-color="#522CD5"/>
<stop offset="0.4397" stop-color="#8A6FE8"/>
</linearGradient>
<linearGradient id="paint6_linear" x1="553.822" y1="290.388" x2="539.435" y2="360.505" gradientUnits="userSpaceOnUse">
<stop stop-color="#522CD5"/>
<stop offset="0.4397" stop-color="#8A6FE8"/>
</linearGradient>
<linearGradient id="paint7_linear" x1="536.259" y1="354.355" x2="492.173" y2="433.796" gradientUnits="userSpaceOnUse">
<stop stop-color="#522CD5"/>
<stop offset="0.4397" stop-color="#8A6FE8"/>
</linearGradient>
<radialGradient id="paint8_radial" cx="0" cy="0" r="1" gradientUnits="userSpaceOnUse" gradientTransform="translate(499.544 400.484) rotate(180) scale(28.0082)">
<stop offset="0.034" stop-color="#522CD5"/>
<stop offset="0.9955" stop-color="#8A6FE8"/>
</radialGradient>
<linearGradient id="paint9_linear" x1="625.885" y1="102.583" x2="624.067" y2="143.583" gradientUnits="userSpaceOnUse">
<stop offset="0.2835" stop-color="#512BD4" stop-opacity="0.9725"/>
<stop offset="0.4387" stop-color="#2B0B98" stop-opacity="0.9725"/>
</linearGradient>
<radialGradient id="paint10_radial" cx="0" cy="0" r="1" gradientUnits="userSpaceOnUse" gradientTransform="translate(557.487 152.437) rotate(-177.461) scale(119.648)">
<stop offset="0.3472" stop-color="#A08BE8"/>
<stop offset="0.684" stop-color="#8065E0"/>
<stop offset="0.7596" stop-color="#8065E0"/>
</radialGradient>
<radialGradient id="paint11_radial" cx="0" cy="0" r="1" gradientUnits="userSpaceOnUse" gradientTransform="translate(593.929 120.772) rotate(2.53908) scale(14.0083)">
<stop stop-color="#8065E0"/>
<stop offset="1" stop-color="#512BD4"/>
</radialGradient>
<linearGradient id="paint12_linear" x1="641.665" y1="227.035" x2="691.698" y2="323.307" gradientUnits="userSpaceOnUse">
<stop offset="0.1526" stop-color="#9780E6"/>
<stop offset="1" stop-color="#8A6FE8"/>
</linearGradient>
<radialGradient id="paint13_radial" cx="0" cy="0" r="1" gradientUnits="userSpaceOnUse" gradientTransform="translate(664.916 313.321) rotate(2.53908) scale(34.2706)">
<stop stop-color="#8065E0"/>
<stop offset="1" stop-color="#512BD4"/>
</radialGradient>
<radialGradient id="paint14_radial" cx="0" cy="0" r="1" gradientUnits="userSpaceOnUse" gradientTransform="translate(638.451 221.728) rotate(2.53908) scale(17.4343)">
<stop stop-color="#8065E0"/>
<stop offset="1" stop-color="#512BD4"/>
</radialGradient>
<radialGradient id="paint15_radial" cx="0" cy="0" r="1" gradientUnits="userSpaceOnUse" gradientTransform="translate(527.746 185.042) rotate(2.53908) scale(74.2496)">
<stop offset="0.0933" stop-color="#E1DFDD"/>
<stop offset="0.6573" stop-color="white"/>
</radialGradient>
<radialGradient id="paint16_radial" cx="0" cy="0" r="1" gradientUnits="userSpaceOnUse" gradientTransform="translate(421.246 221.349) rotate(2.53908) scale(25.9212)">
<stop stop-color="#8065E0"/>
<stop offset="1" stop-color="#512BD4"/>
</radialGradient>
</defs>
</svg>
