<svg width="825" height="483" viewBox="0 0 825 483" fill="none" xmlns="http://www.w3.org/2000/svg">
<path d="M711.735 56.0991C545.875 -42.9109 194.215 9.17913 111.975 59.8491C77.9245 80.8291 53.4146 105.949 36.1646 132.819C158.855 157.859 717.605 271.199 817.715 279.449C838.845 208.099 816.195 118.449 711.735 56.0991Z" fill="url(#paint0_radial)"/>
<path d="M188.775 119.029C142.305 117.299 94.7447 116.689 46.9047 117.589C-20.3153 204.849 -1.4753 316.749 19.2047 363.869C43.0147 418.089 135.895 525.739 298.775 463.359C461.655 400.979 550.185 381.769 666.995 393.819C738.105 401.149 802.215 344.449 820.015 270.879C672.865 200.909 401.385 126.929 188.775 119.029Z" fill="#FDD696"/>
<path d="M370.395 293.319L333.354 450.359C393.644 428.179 443.504 412.599 489.244 402.889L446.184 314.449L417.145 332.519L397.634 291.789L370.395 293.319Z" fill="#D59235"/>
<path d="M446.195 314.449L390.895 301.589L397.635 291.789C397.635 291.789 117.415 237.979 4.00461 216.239C-6.65539 276.389 5.88461 333.539 19.1946 363.859C43.0046 418.079 135.885 525.729 298.765 463.349C364.655 438.109 418.375 419.949 466.735 408.049L446.195 314.449Z" fill="url(#paint1_linear)"/>
<path d="M162.465 329.579C231.82 329.579 288.045 325.08 288.045 319.529C288.045 313.979 231.82 309.479 162.465 309.479C93.1086 309.479 36.8845 313.979 36.8845 319.529C36.8845 325.08 93.1086 329.579 162.465 329.579Z" fill="#E29E3B"/>
<path d="M823.125 254.799C802.925 236.289 776.815 230.759 736.175 229.589C716.165 212.609 684.515 191.969 646.895 189.579C589.745 185.949 567.255 173.709 543.535 160.969C510.685 143.329 483.655 144.109 447.465 149.369C418.175 122.329 379.405 134.389 379.405 134.389C379.405 134.389 339.975 113.359 318.075 113.359C302.565 113.359 281.305 120.629 270.205 124.879C466.785 145.209 691.115 209.569 820.035 270.859C821.295 265.589 822.335 260.229 823.125 254.799Z" fill="#E29E3B"/>
<path d="M159.565 118.099C155.085 115.799 149.995 113.359 145.465 111.619C136.625 108.219 114.095 114.309 104.425 117.219C122.905 117.309 141.305 117.619 159.565 118.099Z" fill="#E29E3B"/>
<path d="M188.775 119.029C206.355 119.679 224.335 120.789 242.605 122.309C236.265 118.419 225.705 112.909 213.795 110.749C202.275 108.659 189.505 114.069 181.095 118.769C183.665 118.849 186.225 118.929 188.775 119.029Z" fill="#E29E3B"/>
<path d="M668.275 200.759L628.135 187.259L631.665 197.819L665.785 208.629L668.275 200.759Z" fill="#C4832D"/>
<path d="M638.365 190.699L628.135 187.259L631.665 197.819L641.825 201.039L638.365 190.699Z" fill="#CE8C32"/>
<path d="M725.195 171.659C741.553 171.659 754.815 158.398 754.815 142.039C754.815 125.681 741.553 112.419 725.195 112.419C708.836 112.419 695.575 125.681 695.575 142.039C695.575 158.398 708.836 171.659 725.195 171.659Z" fill="url(#paint2_linear)"/>
<path d="M682.175 111.889C681.395 114.189 679.955 116.179 678.055 117.619C677.715 117.869 677.705 118.329 678.015 118.609C679.895 120.259 681.345 122.389 682.145 124.819C682.355 125.429 683.175 125.429 683.375 124.819C684.195 122.389 685.635 120.259 687.505 118.609C687.815 118.339 687.805 117.869 687.465 117.619C685.565 116.179 684.125 114.189 683.345 111.889C683.175 111.319 682.375 111.319 682.175 111.889Z" fill="#FDD696"/>
<path d="M478.165 117.299C477.135 120.349 475.215 122.989 472.705 124.899C472.255 125.229 472.235 125.849 472.655 126.209C475.155 128.399 477.065 131.219 478.135 134.449C478.415 135.259 479.495 135.259 479.775 134.449C480.865 131.229 482.775 128.399 485.255 126.209C485.665 125.849 485.655 125.229 485.205 124.899C482.685 122.989 480.775 120.349 479.745 117.299C479.495 116.539 478.425 116.539 478.165 117.299Z" fill="#FDD696"/>
<path d="M451.854 22.2191C451.434 23.4691 450.654 24.5391 449.624 25.3191C449.444 25.4491 449.434 25.7091 449.604 25.8491C450.624 26.7391 451.404 27.8991 451.844 29.2091C451.954 29.5391 452.404 29.5391 452.514 29.2091C452.954 27.8891 453.734 26.7391 454.754 25.8491C454.924 25.6991 454.914 25.4491 454.734 25.3191C453.704 24.5391 452.924 23.4591 452.504 22.2191C452.394 21.9091 451.954 21.9091 451.854 22.2191Z" fill="#FDD696"/>
<path d="M431.275 57.3191C430.475 59.6791 428.995 61.7291 427.045 63.2091C426.695 63.4591 426.685 63.9391 427.005 64.2191C428.945 65.9191 430.425 68.1091 431.255 70.5991C431.465 71.2291 432.305 71.2291 432.525 70.5991C433.365 68.0991 434.845 65.9091 436.775 64.2191C437.095 63.9391 437.085 63.4591 436.735 63.2091C434.785 61.7291 433.305 59.6891 432.505 57.3191C432.295 56.7291 431.475 56.7291 431.275 57.3191Z" fill="#FDD696"/>
<path d="M518.935 106.399C520.774 106.399 522.265 104.908 522.265 103.069C522.265 101.23 520.774 99.7391 518.935 99.7391C517.095 99.7391 515.604 101.23 515.604 103.069C515.604 104.908 517.095 106.399 518.935 106.399Z" fill="#FDD696"/>
<path d="M698.325 179.619C700.236 179.619 701.785 178.07 701.785 176.159C701.785 174.248 700.236 172.699 698.325 172.699C696.414 172.699 694.865 174.248 694.865 176.159C694.865 178.07 696.414 179.619 698.325 179.619Z" fill="#FDD696"/>
<path d="M377.505 112.289C380.355 112.289 382.665 109.979 382.665 107.129C382.665 104.279 380.355 101.969 377.505 101.969C374.655 101.969 372.345 104.279 372.345 107.129C372.345 109.979 374.655 112.289 377.505 112.289Z" fill="#FDD696"/>
<path d="M551.675 151.469C553.343 151.469 554.695 150.117 554.695 148.449C554.695 146.781 553.343 145.429 551.675 145.429C550.007 145.429 548.655 146.781 548.655 148.449C548.655 150.117 550.007 151.469 551.675 151.469Z" fill="#FDD696"/>
<path d="M205.915 56.2591C205.325 57.9991 204.235 59.5091 202.795 60.5991C202.535 60.7891 202.525 61.1391 202.765 61.3491C204.195 62.5991 205.285 64.2191 205.895 66.0591C206.055 66.5191 206.675 66.5191 206.835 66.0591C207.455 64.2191 208.545 62.5991 209.965 61.3491C210.205 61.1391 210.195 60.7891 209.935 60.5991C208.495 59.5091 207.405 57.9991 206.815 56.2591C206.675 55.8291 206.065 55.8291 205.915 56.2591Z" fill="#FDD696"/>
<path d="M731.275 240.059L728.345 239.029L741.745 201.039L744.685 202.069L731.275 240.059Z" fill="#E29E3B"/>
<path d="M747.505 199.759L742.105 197.859C740.555 197.309 738.855 198.129 738.315 199.679L738.225 199.939C737.675 201.489 738.495 203.189 740.045 203.729L745.445 205.629C746.995 206.179 748.695 205.359 749.235 203.809L749.325 203.549C749.865 202.009 749.055 200.309 747.505 199.759Z" fill="#E29E3B"/>
<path d="M753.005 179.429L724.125 201.039C723.755 201.309 723.825 201.879 724.235 202.069C731.045 205.139 739.265 204.519 745.665 199.729C752.065 194.939 754.985 187.229 753.955 179.829C753.895 179.379 753.375 179.159 753.005 179.429Z" fill="#FFEED0"/>
<path d="M654.515 216.029L617.445 204.289C615.245 203.589 614.025 201.239 614.725 199.039L615.655 196.089C616.355 193.889 618.355 192.209 620.555 192.899L657.975 205.109C660.175 205.809 661.395 208.159 660.695 210.359L659.765 213.309C659.065 215.509 656.715 216.729 654.515 216.029Z" fill="#F8BB55"/>
<path d="M661.634 217.719L624.564 205.979C622.364 205.279 621.144 202.929 621.844 200.729L622.474 198.739C623.174 196.539 625.524 195.319 627.724 196.019L664.794 207.759C666.994 208.459 668.214 210.809 667.514 213.009L666.884 214.999C666.184 217.199 663.834 218.419 661.634 217.719Z" fill="#CE8B32"/>
<path d="M671.145 221.509L627.245 207.319C625.045 206.619 623.825 204.269 624.525 202.069L625.435 199.189C626.135 196.989 628.975 195.619 631.175 196.319L674.705 210.129C676.905 210.829 678.825 213.129 678.195 215.919L676.935 219.409C676.165 221.439 673.345 222.209 671.145 221.509Z" fill="#F8BB55"/>
<path d="M671.405 220.809L634.335 209.069C632.135 208.369 630.915 206.019 631.615 203.819L632.245 201.829C632.945 199.629 635.295 198.409 637.495 199.109L674.565 210.849C676.765 211.549 677.985 213.899 677.285 216.099L676.655 218.089C675.955 220.289 673.605 221.509 671.405 220.809Z" fill="#CE8B32"/>
<path d="M637.115 207.959C639.053 207.959 640.625 206.388 640.625 204.449C640.625 202.511 639.053 200.939 637.115 200.939C635.176 200.939 633.604 202.511 633.604 204.449C633.604 206.388 635.176 207.959 637.115 207.959Z" fill="#EEAB42"/>
<path d="M645.664 210.669C647.603 210.669 649.174 209.098 649.174 207.159C649.174 205.221 647.603 203.649 645.664 203.649C643.726 203.649 642.154 205.221 642.154 207.159C642.154 209.098 643.726 210.669 645.664 210.669Z" fill="#EEAB42"/>
<path d="M654.215 213.379C656.153 213.379 657.725 211.808 657.725 209.869C657.725 207.931 656.153 206.359 654.215 206.359C652.276 206.359 650.705 207.931 650.705 209.869C650.705 211.808 652.276 213.379 654.215 213.379Z" fill="#EEAB42"/>
<path d="M662.764 216.089C664.703 216.089 666.274 214.518 666.274 212.579C666.274 210.641 664.703 209.069 662.764 209.069C660.826 209.069 659.254 210.641 659.254 212.579C659.254 214.518 660.826 216.089 662.764 216.089Z" fill="#EEAB42"/>
<path d="M671.315 218.789C673.253 218.789 674.825 217.218 674.825 215.279C674.825 213.341 673.253 211.769 671.315 211.769C669.376 211.769 667.805 213.341 667.805 215.279C667.805 217.218 669.376 218.789 671.315 218.789Z" fill="#EEAB42"/>
<path d="M652.215 166.789L645.455 185.979L619.825 174.779L617.425 182.349C617.035 183.569 617.715 184.869 618.935 185.259L673.585 202.569C674.915 202.989 676.335 202.249 676.755 200.919L679.705 191.609C680.045 190.529 679.695 189.339 678.815 188.619L652.215 166.789Z" fill="#FFE5B9"/>
<path d="M651.105 173.869L623.715 163.369L636.765 154.989C637.215 154.709 637.765 154.639 638.265 154.799L654.235 159.859C654.895 160.069 655.265 160.769 655.055 161.439L651.105 173.869Z" fill="#F1AE44"/>
<path d="M650.504 171.119L624.934 163.019C624.164 162.779 623.344 163.199 623.094 163.969L619.274 176.019C619.034 176.789 619.454 177.609 620.224 177.859L645.794 185.959C646.564 186.199 647.384 185.779 647.634 185.009L651.454 172.959C651.694 172.189 651.274 171.369 650.504 171.119Z" fill="#C4832D"/>
<path d="M647.055 157.579L638.265 154.789C637.765 154.629 637.215 154.699 636.765 154.979L623.715 163.359L640.025 168.919L647.055 157.579Z" fill="white"/>
<path d="M640.485 167.949L625.275 163.129C624.315 162.829 623.285 163.359 622.975 164.319L619.375 175.679C619.075 176.639 619.605 177.669 620.565 177.979L635.775 182.799L640.485 167.949Z" fill="#E29E3B"/>
<path d="M575.955 172.369L571.135 169.889L607.455 132.749L611.305 136.509L575.955 172.369Z" fill="#FFE5B9"/>
<path d="M631.184 176.829L624.644 174.759C623.884 174.519 623.064 174.939 622.824 175.699L620.924 181.689C620.684 182.449 621.104 183.269 621.864 183.509L628.404 185.579C629.164 185.819 629.984 185.399 630.224 184.639L632.124 178.649C632.374 177.889 631.954 177.069 631.184 176.829Z" fill="#CE8B32"/>
<path d="M628.675 181.749L624.345 180.339C623.825 180.169 623.405 179.789 623.185 179.289L604.075 136.029L609.025 133.849L629.595 180.739C629.845 181.329 629.285 181.949 628.675 181.749Z" fill="#FFE5B9"/>
<path d="M606.125 131.579L600.225 137.799C599.435 138.629 599.565 139.969 600.495 140.639L604.655 143.609C605.175 143.979 605.845 144.059 606.435 143.829L611.415 141.899C612.425 141.509 612.895 140.349 612.455 139.369L609.205 132.119C608.675 130.879 607.055 130.599 606.125 131.579Z" fill="#E29E3B"/>
<path d="M598.905 179.709L597.565 179.279L581.725 174.259C581.725 174.259 577.785 182.669 587.265 185.979C587.245 185.989 587.585 186.109 587.705 186.149C588.365 186.359 591.145 187.249 592.035 187.539C592.555 187.709 598.905 179.709 598.905 179.709Z" fill="#C4832D"/>
<path d="M593.734 177.109L598.754 175.139L597.654 177.709L602.324 176.129L601.154 178.779L605.574 177.109L604.324 180.189L593.734 177.109Z" fill="#E29E3B"/>
<path d="M604.335 180.209C604.335 180.209 598.875 189.699 591.745 187.439C582.975 184.659 586.475 175.779 586.475 175.779L602.315 180.799L604.335 180.209Z" fill="#F8BB55"/>
<path d="M582.405 168.419L577.865 166.979L577.875 166.999C577.535 166.919 577.175 166.969 576.865 167.189C576.305 167.589 576.175 168.369 576.575 168.929L580.965 175.069C581.125 175.289 581.345 175.449 581.605 175.529L587.065 177.259C587.385 177.369 582.405 168.419 582.405 168.419Z" fill="#C4832D"/>
<path d="M733.015 240.989C735.835 225.889 729.964 211.689 718.354 207.559C706.734 203.429 693.225 210.719 685.875 224.209L733.015 240.989Z" fill="#FFEED0"/>
<path d="M709.394 232.579L713.564 220.859C714.344 218.659 713.334 216.299 711.314 215.579C709.284 214.859 707.014 216.049 706.234 218.249L702.064 229.969L709.394 232.579Z" fill="#E29E3B"/>
<path d="M721.604 224.126C722.165 222.55 721.443 220.853 719.991 220.336C718.54 219.819 716.908 220.679 716.347 222.255C715.786 223.832 716.508 225.529 717.96 226.045C719.411 226.562 721.043 225.703 721.604 224.126Z" fill="#F7B548"/>
<path d="M702.868 217.455C703.429 215.878 702.707 214.181 701.255 213.665C699.803 213.148 698.172 214.007 697.611 215.584C697.05 217.16 697.772 218.857 699.223 219.374C700.675 219.89 702.307 219.031 702.868 217.455Z" fill="#F7B548"/>
<path d="M729.486 226.929C730.047 225.352 729.325 223.655 727.874 223.139C726.422 222.622 724.79 223.481 724.229 225.058C723.668 226.634 724.39 228.331 725.842 228.848C727.294 229.365 728.925 228.505 729.486 226.929Z" fill="#F7B548"/>
<path d="M608.264 203.319L589.424 200.659L580.624 197.089L570.504 195.449L563.794 191.359L594.894 198.199L608.264 203.319Z" fill="#E29E3B"/>
<path d="M640.495 234.569L596.104 221.429C596.104 221.429 613.924 214.129 623.854 215.299C633.774 216.469 640.495 234.569 640.495 234.569Z" fill="#FAF9F8"/>
<path d="M573.414 190.699L538.834 182.479C538.834 182.479 552.184 176.139 559.844 176.619C567.504 177.099 573.414 190.699 573.414 190.699Z" fill="#FAF9F8"/>
<path d="M586.465 175.289C586.465 175.289 592.455 172.219 595.515 172.519C598.585 172.809 601.505 180.409 601.505 180.409L586.465 175.289Z" fill="#FAF9F8"/>
<path d="M602.205 182.059L586.105 176.959C585.845 176.879 585.625 176.719 585.465 176.499L581.075 170.359C580.675 169.799 580.805 169.019 581.365 168.619C581.925 168.219 582.705 168.349 583.105 168.909L587.255 174.719L604.415 180.149L603.155 181.989C602.855 182.129 602.515 182.159 602.205 182.059Z" fill="#FFE5B9"/>
<path d="M571.905 172.599L580.315 174.249C581.445 174.469 582.505 173.649 582.565 172.499L582.845 167.399C582.875 166.759 582.595 166.149 582.085 165.779L577.785 162.609C576.915 161.969 575.685 162.189 575.085 163.089L570.695 169.709C569.955 170.819 570.585 172.339 571.905 172.599Z" fill="#E29E3B"/>
<path d="M634.075 226.829H632.175V228.729H634.075V226.829Z" fill="#FBC977"/>
<path d="M631.004 224.059H629.544V225.519H631.004V224.059Z" fill="#FBC977"/>
<path d="M629.104 227.269H627.645V228.729H629.104V227.269Z" fill="#FBC977"/>
<path d="M626.325 224.639H624.575V226.389H626.325V224.639Z" fill="#FBC977"/>
<path d="M626.775 219.829H625.165V221.439H626.775V219.829Z" fill="#FBC977"/>
<path d="M637.435 228.589H635.825V230.199H637.435V228.589Z" fill="#FBC977"/>
<path d="M631.875 228.439H630.125V230.189H631.875V228.439Z" fill="#FBC977"/>
<path d="M630.275 221.579H629.104V222.749H630.275V221.579Z" fill="#FBC977"/>
<path d="M570.834 187.849H569.524V189.159H570.834V187.849Z" fill="#FBC977"/>
<path d="M567.765 186.529H566.455V187.839H567.765V186.529Z" fill="#FBC977"/>
<path d="M567.475 183.759H566.165V185.069H567.475V183.759Z" fill="#FBC977"/>
<path d="M564.275 184.919H562.665V186.529H564.275V184.919Z" fill="#FBC977"/>
<path d="M563.544 181.129H562.375V182.299H563.544V181.129Z" fill="#FBC977"/>
<path d="M558.425 182.439H556.965V183.899H558.425V182.439Z" fill="#FBC977"/>
<path d="M592.305 239.539C674.195 277.859 730.755 311.099 782.645 343.919C786.575 339.379 790.275 334.589 793.735 329.589C742.035 298.189 658.075 253.609 595.815 224.649C394.295 130.899 217.315 132.649 166.495 130.019C115.675 127.389 147.325 135.759 216.435 137.909C329.455 141.409 516.005 203.829 592.305 239.539Z" fill="url(#paint3_radial)"/>
<path d="M781.095 345.669C698.195 298.279 601.275 250.709 528.345 221.139C439.735 185.209 377.935 176.789 377.935 176.789L381.215 181.799C381.215 181.799 659.775 286.849 567.745 270.859C515.525 261.789 634.585 326.029 707.005 391.249C735.285 384.679 760.975 368.299 781.095 345.669Z" fill="url(#paint4_linear)"/>
<path d="M281.915 252.679H35.1946V262.509H281.915V252.679Z" fill="#F7B548"/>
<path d="M135.535 214.709L132.965 206.199C132.565 204.879 133.335 203.499 134.655 203.139L140.145 201.629C141.375 201.289 142.655 201.949 143.085 203.139L146.885 213.479C147.485 215.119 146.225 216.849 144.475 216.759L137.765 216.439C136.725 216.399 135.835 215.699 135.535 214.709Z" fill="#C4832D"/>
<path d="M258.725 313.289C257.745 313.289 256.785 312.789 256.245 311.889L234.665 276.279C233.835 274.909 234.275 273.129 235.645 272.299C237.015 271.469 238.795 271.909 239.625 273.279L261.205 308.889C262.035 310.259 261.595 312.039 260.225 312.869C259.755 313.159 259.235 313.289 258.725 313.289Z" fill="#FFE9C5"/>
<path d="M67.6046 314.459C68.5846 314.459 69.5446 313.959 70.0846 313.059L91.6646 277.449C92.4946 276.079 92.0546 274.299 90.6846 273.469C89.3146 272.639 87.5346 273.079 86.7046 274.449L65.1246 310.059C64.2946 311.429 64.7346 313.209 66.1046 314.039C66.5746 314.329 67.0946 314.459 67.6046 314.459Z" fill="#FFE9C5"/>
<path d="M164.855 328.439C163.255 328.439 161.955 327.139 161.955 325.539V286.159C161.955 284.559 163.255 283.259 164.855 283.259C166.455 283.259 167.755 284.559 167.755 286.159V325.539C167.755 327.139 166.455 328.439 164.855 328.439Z" fill="#FFE9C5"/>
<path d="M212.625 208.169L210.865 203.269C210.545 202.369 209.605 201.839 208.665 202.019L192.415 205.179C191.525 205.349 190.865 206.129 190.845 207.039L190.795 208.999C190.765 210.099 191.655 210.999 192.755 210.989L210.815 210.779C212.155 210.749 213.075 209.429 212.625 208.169Z" fill="#C4832D"/>
<path d="M181.815 213.089L180.845 212.589C180.225 212.269 179.975 211.499 180.305 210.869L185.155 201.519C185.475 200.899 186.245 200.649 186.875 200.979L187.845 201.479C188.465 201.799 188.715 202.569 188.385 203.199L183.535 212.549C183.215 213.169 182.445 213.409 181.815 213.089Z" fill="#C4832D"/>
<path d="M222.715 211.429C222.295 210.019 221.205 208.979 219.765 208.699H218.015C218.005 208.679 218.005 208.649 217.995 208.629H106.145C106.135 208.649 106.135 208.679 106.125 208.699L104.255 208.709C102.935 208.979 101.855 210.019 101.425 211.429L97.7746 223.559C97.3946 224.819 97.5746 226.169 98.2746 227.249C98.9746 228.329 100.065 228.949 101.265 228.949H222.875C224.075 228.949 225.165 228.329 225.865 227.249C226.565 226.169 226.745 224.819 226.365 223.559L222.715 211.429Z" fill="#EBA841"/>
<path d="M287.454 262.499H35.3545C41.9445 271.529 60.2545 279.339 85.5345 284.589C104.964 293.679 129.724 296.909 161.154 296.909C192.494 296.909 222.204 294.029 236.704 284.699C262.285 279.449 280.805 271.599 287.454 262.499Z" fill="#FEDEA7"/>
<path d="M223.335 294.239C206.435 299.109 185.295 301.679 162.225 301.679C119.485 301.679 88.8746 292.809 76.9146 283.029C101.645 287.329 131.005 289.819 162.515 289.819C193.715 289.819 224.975 287.069 249.535 282.039C244.415 286.189 233.955 291.179 223.335 294.239Z" fill="#C4832D"/>
<path d="M225.435 222.339H97.3745C58.1245 228.099 37.5945 239.609 35.1345 253.049H287.685C285.225 239.619 264.695 228.099 225.435 222.339Z" fill="url(#paint5_linear)"/>
<path d="M90.6745 241.469C88.5945 241.469 86.9045 239.779 86.9045 237.699C86.9045 235.619 88.5945 233.929 90.6745 233.929C92.7545 233.929 94.4445 235.619 94.4445 237.699C94.4445 239.779 92.7645 241.469 90.6745 241.469Z" fill="#F7B548"/>
<path d="M119.175 241.469C117.095 241.469 115.405 239.779 115.405 237.699C115.405 235.619 117.095 233.929 119.175 233.929C121.255 233.929 122.945 235.619 122.945 237.699C122.945 239.779 121.255 241.469 119.175 241.469Z" fill="#F7B548"/>
<path d="M147.675 241.469C145.595 241.469 143.905 239.779 143.905 237.699C143.905 235.619 145.595 233.929 147.675 233.929C149.755 233.929 151.445 235.619 151.445 237.699C151.445 239.779 149.755 241.469 147.675 241.469Z" fill="#F7B548"/>
<path d="M176.165 241.469C174.085 241.469 172.395 239.779 172.395 237.699C172.395 235.619 174.085 233.929 176.165 233.929C178.245 233.929 179.935 235.619 179.935 237.699C179.935 239.779 178.255 241.469 176.165 241.469Z" fill="#F7B548"/>
<path d="M204.665 241.469C202.585 241.469 200.895 239.779 200.895 237.699C200.895 235.619 202.585 233.929 204.665 233.929C206.745 233.929 208.435 235.619 208.435 237.699C208.435 239.779 206.745 241.469 204.665 241.469Z" fill="#F7B548"/>
<path d="M281.915 252.679H35.1946V255.929H281.915V252.679Z" fill="#C4832D"/>
<path d="M204.525 174.839C195.795 153.629 168.615 143.849 142.725 152.989C116.835 162.129 101.805 186.789 108.315 208.779L204.525 174.839Z" fill="url(#paint6_radial)"/>
<path d="M204.905 174.569C204.635 173.799 203.775 173.399 203.005 173.659L108.995 206.839C108.225 207.109 107.815 207.969 108.085 208.739C108.295 209.329 108.855 209.729 109.495 209.729C109.665 209.729 109.825 209.699 109.995 209.649L204.005 176.469C204.385 176.339 204.685 176.069 204.855 175.709C205.015 175.349 205.035 174.939 204.905 174.569Z" fill="#E29E3B"/>
<path d="M233.165 241.469C231.085 241.469 229.395 239.779 229.395 237.699C229.395 235.619 231.085 233.929 233.165 233.929C235.245 233.929 236.935 235.619 236.935 237.699C236.935 239.779 235.245 241.469 233.165 241.469Z" fill="#F7B548"/>
<path d="M511.375 49.4691C511.375 91.3891 545.355 125.369 587.275 125.369C629.195 125.369 663.174 91.3891 663.174 49.4691C663.174 43.5791 662.485 37.8491 661.215 32.3491C621.045 17.5591 574.885 8.49913 526.615 3.85913C517.045 16.5591 511.375 32.3491 511.375 49.4691Z" fill="url(#paint7_linear)"/>
<path d="M304.175 327.559C300.065 327.369 294.895 325.499 286.465 322.759L288.435 311.919C299.935 316.559 303.655 316.729 304.775 316.539C304.935 315.859 305.155 313.839 304.065 308.899C300.445 292.429 295.705 277.949 295.655 277.809L306.105 274.369C306.305 274.979 311.075 289.529 314.815 306.539C316.205 312.849 317.135 320.639 311.995 324.989C309.885 326.769 307.295 327.559 304.175 327.559Z" fill="url(#paint8_linear)"/>
<path d="M258.595 300.769L259.005 299.129C259.005 299.129 255.955 299.369 254.875 299.379C254.865 299.379 254.855 299.379 254.845 299.379C254.825 299.379 254.795 299.379 254.775 299.379C253.725 299.389 252.715 299.979 252.225 300.989L237.755 330.639C237.235 331.699 237.765 332.979 238.875 333.359L244.135 335.179C244.615 335.349 245.145 335.439 245.645 335.399C246.135 335.399 249.915 335.159 249.915 335.159C249.915 335.159 266.435 304.189 258.595 300.769Z" fill="url(#paint9_radial)"/>
<path d="M256.375 300.749L241.905 330.399C241.385 331.459 241.915 332.739 243.025 333.119L248.285 334.939C249.205 335.259 250.285 335.299 251.065 334.719C266.555 323.129 279.425 320.329 287.395 323.069C288.695 319.069 289.345 316.559 290.175 312.729C284.475 309.989 266.705 302.239 260.095 299.369C258.685 298.759 257.045 299.369 256.375 300.749Z" fill="#522CD5"/>
<path d="M319.064 329.799C314.954 329.609 309.784 327.739 301.354 324.999L303.324 314.159C314.824 318.799 318.544 318.969 319.664 318.779C319.824 318.099 320.044 316.079 318.954 311.139C315.334 294.669 310.594 280.189 310.544 280.049L320.994 276.609C321.194 277.219 325.964 291.769 329.704 308.779C331.094 315.089 332.024 322.879 326.884 327.229C324.764 328.999 322.184 329.799 319.064 329.799Z" fill="url(#paint10_linear)"/>
<path d="M273.475 303.009L273.885 301.369C273.885 301.369 270.835 301.609 269.755 301.619C269.745 301.619 269.735 301.619 269.725 301.619C269.705 301.619 269.675 301.619 269.655 301.619C268.605 301.629 267.595 302.219 267.105 303.229L252.635 332.879C252.115 333.939 252.645 335.219 253.755 335.599L259.015 337.419C259.495 337.589 260.025 337.679 260.525 337.639C261.015 337.639 264.795 337.399 264.795 337.399C264.795 337.399 281.315 306.419 273.475 303.009Z" fill="url(#paint11_radial)"/>
<path d="M271.254 302.979L256.784 332.629C256.264 333.689 256.794 334.969 257.904 335.349L263.164 337.169C264.084 337.489 265.164 337.529 265.944 336.949C281.434 325.359 294.304 322.559 302.274 325.299C303.574 321.299 304.224 318.789 305.054 314.959C299.354 312.219 281.584 304.469 274.974 301.599C273.574 300.989 271.934 301.599 271.254 302.979Z" fill="#522CD5"/>
<path d="M384.885 205.179L328.925 219.909C327.725 220.229 326.955 221.399 327.145 222.629L329.155 235.849C329.345 237.079 330.425 237.969 331.665 237.909L389.465 235.319C390.905 235.259 391.975 233.949 391.755 232.529L387.895 207.169C387.695 205.739 386.285 204.809 384.885 205.179Z" fill="url(#paint12_radial)"/>
<path d="M365.725 210.219L328.925 219.909C327.725 220.229 326.955 221.399 327.145 222.629L329.155 235.849C329.345 237.079 330.425 237.969 331.665 237.909L369.675 236.209L365.725 210.219Z" fill="url(#paint13_radial)"/>
<path d="M344.205 247.709C345.255 234.839 341.465 225.379 341.465 225.379L344.365 224.869L344.425 224.799C336.325 202.949 313.545 189.299 289.775 193.469C262.985 198.159 245.075 223.679 249.765 250.469C254.455 277.259 279.975 295.169 306.765 290.479C327.905 286.779 343.505 270.099 346.845 250.079C346.895 249.239 346.625 247.809 344.205 247.709Z" fill="url(#paint14_radial)"/>
<path d="M346.615 250.969C346.615 250.969 347.515 248.149 344.085 247.999C345.165 235.299 341.515 225.899 341.425 225.679L323.565 229.379C323.565 229.379 320.335 229.599 320.835 232.499C321.335 235.399 322.855 243.559 324.415 252.619C324.735 254.479 326.415 255.119 327.615 254.909L346.835 250.979C346.695 250.969 346.615 250.969 346.615 250.969Z" fill="white"/>
<path d="M346.645 250.939C346.645 250.939 347.515 248.109 344.075 247.999C344.075 247.989 344.075 247.969 344.075 247.959L327.095 251.709C325.945 251.919 324.335 251.509 324.005 250.419C324.155 251.219 324.305 252.029 324.455 252.839C324.765 254.529 326.185 255.189 327.335 255.129C327.445 255.119 327.565 255.109 327.685 255.089L331.065 254.469L346.855 250.939C346.715 250.939 346.645 250.939 346.645 250.939Z" fill="url(#paint15_radial)"/>
<path d="M344.225 259.509L260.535 273.869C262.965 276.739 265.705 279.309 268.695 281.539L339.095 269.459C341.175 266.359 342.895 263.019 344.225 259.509Z" fill="#D8CFF7"/>
<path d="M271.245 198.329L279.715 194.009L274.085 185.909L268.005 189.009L271.245 198.329Z" fill="#8A6FE8"/>
<path d="M269.365 190.659C273.109 190.659 276.145 187.624 276.145 183.879C276.145 180.135 273.109 177.099 269.365 177.099C265.62 177.099 262.585 180.135 262.585 183.879C262.585 187.624 265.62 190.659 269.365 190.659Z" fill="#D8CFF7"/>
<path d="M270.705 205.299C270.325 205.489 269.845 205.319 269.695 204.919C268.095 200.669 269.905 195.799 274.055 193.689C278.195 191.579 283.205 192.969 285.705 196.769C285.945 197.129 285.805 197.619 285.425 197.809L270.705 205.299Z" fill="url(#paint16_radial)"/>
<path d="M335.945 258.069L342.515 257.029C343.225 256.919 343.895 257.399 344.015 258.119L345.925 270.119C346.035 270.829 345.555 271.499 344.835 271.619L338.265 272.659C337.555 272.769 336.885 272.289 336.765 271.569L334.855 259.569C334.745 258.859 335.235 258.189 335.945 258.069Z" fill="#512BD4"/>
<path d="M337.765 267.339C337.705 267.349 337.635 267.319 337.585 267.259C337.525 267.199 337.495 267.119 337.475 267.019C337.455 266.919 337.465 266.829 337.505 266.759C337.535 266.679 337.585 266.639 337.655 266.629C337.725 266.619 337.785 266.649 337.835 266.709C337.895 266.769 337.925 266.849 337.945 266.949C337.965 267.049 337.955 267.129 337.915 267.209C337.885 267.289 337.835 267.329 337.765 267.339Z" fill="white"/>
<path d="M340.345 266.869L339.925 266.939L338.375 264.329C338.335 264.259 338.305 264.189 338.275 264.119H338.265C338.285 264.199 338.315 264.369 338.365 264.639L338.755 267.129L338.385 267.189L337.785 263.399L338.235 263.329L339.735 265.879C339.795 265.989 339.835 266.059 339.855 266.099H339.865C339.835 265.999 339.805 265.829 339.765 265.589L339.375 263.149L339.745 263.089L340.345 266.869Z" fill="white"/>
<path d="M342.155 266.579L340.855 266.789L340.255 262.999L341.505 262.799L341.585 263.329L340.715 263.469L340.885 264.539L341.685 264.409L341.765 264.939L340.965 265.069L341.145 266.189L342.065 266.039L342.155 266.579Z" fill="white"/>
<path d="M343.485 263.029L342.815 263.139L343.335 266.399L342.955 266.459L342.435 263.199L341.775 263.309L341.695 262.779L343.415 262.509L343.485 263.029Z" fill="white"/>
<path d="M341.175 242.669L334.045 245.189C333.245 245.469 332.385 244.959 332.255 244.119L330.565 232.999C330.435 232.159 331.105 231.409 331.955 231.439L339.515 231.719C340.165 231.739 340.705 232.229 340.805 232.869L342.065 241.179C342.165 241.829 341.795 242.449 341.175 242.669Z" fill="#605D5A"/>
<path d="M396.725 213.069L340.765 227.799C339.565 228.119 338.795 229.289 338.985 230.519L340.995 243.739C341.185 244.969 342.265 245.859 343.505 245.799L401.305 243.209C402.745 243.149 403.815 241.839 403.595 240.419L399.735 215.059C399.525 213.629 398.115 212.699 396.725 213.069Z" fill="url(#paint17_radial)"/>
<path d="M377.565 218.109L340.765 227.799C339.565 228.119 338.795 229.289 338.985 230.519L340.995 243.739C341.185 244.969 342.265 245.859 343.505 245.799L381.515 244.099L377.565 218.109Z" fill="url(#paint18_radial)"/>
<path d="M356.325 254.239L350.915 246.099C342.385 251.769 334.045 254.469 326.135 254.119C319.175 253.809 312.355 251.139 305.865 246.179L299.925 253.949C311.985 263.169 331.565 270.699 356.325 254.239Z" fill="url(#paint19_linear)"/>
<path d="M354.475 244.219L352.065 235.349C351.405 232.989 348.965 231.609 346.605 232.269C344.245 232.929 342.865 235.369 343.525 237.729L345.995 246.819L354.475 244.219Z" fill="#8A6FE8"/>
<path d="M361.605 249.969L366.955 242.499C368.365 240.499 367.885 237.729 365.885 236.319C363.885 234.909 361.115 235.389 359.705 237.389L354.225 245.049L361.605 249.969Z" fill="#8A6FE8"/>
<path d="M356.415 246.239L361.575 238.639C362.935 236.599 362.385 233.849 360.355 232.489C358.315 231.129 355.565 231.679 354.205 233.709L348.915 241.509L356.415 246.239Z" fill="#8A6FE8"/>
<path d="M362.415 254.609L369.115 248.329C370.885 246.639 370.965 243.839 369.275 242.059C367.585 240.289 364.785 240.209 363.005 241.899L356.135 248.339L362.415 254.609Z" fill="#8A6FE8"/>
<path d="M354.425 259.359C359.55 259.359 363.705 255.204 363.705 250.079C363.705 244.954 359.55 240.799 354.425 240.799C349.299 240.799 345.145 244.954 345.145 250.079C345.145 255.204 349.299 259.359 354.425 259.359Z" fill="url(#paint20_radial)"/>
<path d="M301.805 258.469C306.797 258.469 310.845 254.422 310.845 249.429C310.845 244.436 306.797 240.389 301.805 240.389C296.812 240.389 292.765 244.436 292.765 249.429C292.765 254.422 296.812 258.469 301.805 258.469Z" fill="url(#paint21_radial)"/>
<path d="M346.705 88.9592C348.544 88.9592 350.035 87.4683 350.035 85.6292C350.035 83.7901 348.544 82.2992 346.705 82.2992C344.865 82.2992 343.375 83.7901 343.375 85.6292C343.375 87.4683 344.865 88.9592 346.705 88.9592Z" fill="#FDD696"/>
<defs>
<radialGradient id="paint0_radial" cx="0" cy="0" r="1" gradientUnits="userSpaceOnUse" gradientTransform="translate(522.714 367.799) scale(295.844)">
<stop offset="0.4014" stop-color="#FEDBA1"/>
<stop offset="1" stop-color="#F9BE5C"/>
</radialGradient>
<linearGradient id="paint1_linear" x1="233.378" y1="482.231" x2="233.378" y2="216.239" gradientUnits="userSpaceOnUse">
<stop offset="0.158" stop-color="#FCCF84"/>
<stop offset="0.2506" stop-color="#FBC873"/>
<stop offset="0.4466" stop-color="#F8BA54"/>
<stop offset="0.556" stop-color="#F7B548"/>
</linearGradient>
<linearGradient id="paint2_linear" x1="680.714" y1="142.037" x2="749.083" y2="142.037" gradientUnits="userSpaceOnUse">
<stop offset="0.3803" stop-color="#FDD696"/>
<stop offset="1" stop-color="#F9BE5C"/>
</linearGradient>
<radialGradient id="paint3_radial" cx="0" cy="0" r="1" gradientUnits="userSpaceOnUse" gradientTransform="translate(506.674 246.765) scale(242.749)">
<stop offset="0.2156" stop-color="#FAC670"/>
<stop offset="0.6321" stop-color="#FCD088"/>
<stop offset="0.9718" stop-color="#FDD696"/>
</radialGradient>
<linearGradient id="paint4_linear" x1="781.095" y1="284.021" x2="377.932" y2="284.021" gradientUnits="userSpaceOnUse">
<stop offset="0.2156" stop-color="#FAC670"/>
<stop offset="0.6321" stop-color="#FCD088"/>
<stop offset="0.9718" stop-color="#FDD696"/>
</linearGradient>
<linearGradient id="paint5_linear" x1="161.405" y1="222.344" x2="161.405" y2="253.052" gradientUnits="userSpaceOnUse">
<stop offset="0.6246" stop-color="white"/>
<stop offset="0.6255" stop-color="white"/>
<stop offset="0.7467" stop-color="#FEECCC"/>
<stop offset="0.8384" stop-color="#FEE0AD"/>
<stop offset="0.8894" stop-color="#FEDBA1"/>
</linearGradient>
<radialGradient id="paint6_radial" cx="0" cy="0" r="1" gradientUnits="userSpaceOnUse" gradientTransform="translate(152.834 149.908) scale(151.724)">
<stop offset="0.0507" stop-color="white"/>
<stop offset="0.0537" stop-color="white"/>
<stop offset="0.4882" stop-color="#FEECCC"/>
<stop offset="0.8171" stop-color="#FEE0AD"/>
<stop offset="1" stop-color="#FEDBA1"/>
</radialGradient>
<linearGradient id="paint7_linear" x1="473.325" y1="64.6132" x2="648.479" y2="64.6132" gradientUnits="userSpaceOnUse">
<stop offset="0.3803" stop-color="#FDD696"/>
<stop offset="1" stop-color="#F9BE5C"/>
</linearGradient>
<linearGradient id="paint8_linear" x1="287.144" y1="282.728" x2="311.737" y2="325.325" gradientUnits="userSpaceOnUse">
<stop offset="0.227" stop-color="#522CD5"/>
<stop offset="0.5013" stop-color="#8A6FE8"/>
</linearGradient>
<radialGradient id="paint9_radial" cx="0" cy="0" r="1" gradientUnits="userSpaceOnUse" gradientTransform="translate(241.809 346.095) scale(24.6883)">
<stop offset="0.034" stop-color="#522CD5"/>
<stop offset="0.9955" stop-color="#8A6FE8"/>
</radialGradient>
<linearGradient id="paint10_linear" x1="302.027" y1="284.961" x2="326.62" y2="327.557" gradientUnits="userSpaceOnUse">
<stop offset="0.1164" stop-color="#522CD5"/>
<stop offset="0.4102" stop-color="#8A6FE8"/>
</linearGradient>
<radialGradient id="paint11_radial" cx="0" cy="0" r="1" gradientUnits="userSpaceOnUse" gradientTransform="translate(256.692 348.327) scale(24.6883)">
<stop offset="0.034" stop-color="#522CD5"/>
<stop offset="0.9955" stop-color="#8A6FE8"/>
</radialGradient>
<radialGradient id="paint12_radial" cx="0" cy="0" r="1" gradientUnits="userSpaceOnUse" gradientTransform="translate(367.608 180.883) scale(40.8227)">
<stop offset="0.7353" stop-color="#B3AFAB"/>
<stop offset="1" stop-color="#797673"/>
</radialGradient>
<radialGradient id="paint13_radial" cx="0" cy="0" r="1" gradientUnits="userSpaceOnUse" gradientTransform="translate(354.239 199.311) scale(29.9534)">
<stop offset="0.4961" stop-color="#797673"/>
<stop offset="1" stop-color="#797673"/>
</radialGradient>
<radialGradient id="paint14_radial" cx="0" cy="0" r="1" gradientUnits="userSpaceOnUse" gradientTransform="translate(293.941 203.737) rotate(-4.03704) scale(70.863)">
<stop offset="0.186" stop-color="#A08BE8"/>
<stop offset="0.684" stop-color="#8065E0"/>
<stop offset="0.8157" stop-color="#8065E0"/>
</radialGradient>
<radialGradient id="paint15_radial" cx="0" cy="0" r="1" gradientUnits="userSpaceOnUse" gradientTransform="translate(329.848 250.748) rotate(-4.4967) scale(20.0249)">
<stop stop-color="#512BD4"/>
<stop offset="0.0463" stop-color="#6645D9"/>
<stop offset="0.4202" stop-color="#7659DD"/>
<stop offset="0.7291" stop-color="#8065E0"/>
</radialGradient>
<radialGradient id="paint16_radial" cx="0" cy="0" r="1" gradientUnits="userSpaceOnUse" gradientTransform="translate(277.516 195.887) rotate(4.81835) scale(7.44156)">
<stop stop-color="#8065E0"/>
<stop offset="1" stop-color="#512BD4"/>
</radialGradient>
<radialGradient id="paint17_radial" cx="0" cy="0" r="1" gradientUnits="userSpaceOnUse" gradientTransform="translate(379.444 188.771) scale(40.8227)">
<stop offset="0.7353" stop-color="#B3AFAB"/>
<stop offset="1" stop-color="#797673"/>
</radialGradient>
<radialGradient id="paint18_radial" cx="0" cy="0" r="1" gradientUnits="userSpaceOnUse" gradientTransform="translate(366.075 207.199) scale(29.9534)">
<stop offset="0.4961" stop-color="#797673"/>
<stop offset="1" stop-color="#797673"/>
</radialGradient>
<linearGradient id="paint19_linear" x1="307.883" y1="240.163" x2="350.31" y2="264.658" gradientUnits="userSpaceOnUse">
<stop offset="0.2495" stop-color="#967FE6"/>
<stop offset="0.5327" stop-color="#8A70E8"/>
<stop offset="1" stop-color="#8A6FE8"/>
</linearGradient>
<radialGradient id="paint20_radial" cx="0" cy="0" r="1" gradientUnits="userSpaceOnUse" gradientTransform="translate(352.652 245.007) scale(15.1811)">
<stop stop-color="#8065E0"/>
<stop offset="1" stop-color="#512BD4"/>
</radialGradient>
<radialGradient id="paint21_radial" cx="0" cy="0" r="1" gradientUnits="userSpaceOnUse" gradientTransform="translate(303.044 245.6) rotate(-3.8358) scale(12.0275)">
<stop stop-color="#8065E0"/>
<stop offset="1" stop-color="#512BD4"/>
</radialGradient>
</defs>
</svg>
