<svg width="581" height="742" viewBox="0 0 581 742" fill="none" xmlns="http://www.w3.org/2000/svg">
<path d="M489.492 122.09C487.842 66.46 450.302 29.07 396.792 11.44C378.622 7.43 359.742 4.36 340.222 2.28C329.372 1.13 318.412 0.36 307.402 0C233.452 2.81 151.542 32.65 91.6915 91.85C-15.9485 198.33 -31.5085 484.72 59.3315 627.6C122.752 727.37 236.802 750.3 340.222 739.32C541.772 717.93 608.461 588.62 570.052 408.34C540.852 271.4 492.902 237.33 489.492 122.09Z" fill="#6FD0C3"/>
<path d="M193.562 336.14C181.062 336.14 176.442 318.47 174.912 312.62C174.072 309.4 172.782 305.15 172.762 305.11L188.072 300.45C188.132 300.64 189.472 305.04 190.392 308.57C191.672 313.46 192.902 316.45 193.832 318.24C196.412 314.1 201.352 302.92 207.172 273.33L222.872 276.42C219.142 295.37 215.202 309.79 211.152 319.26C208.112 326.37 203.022 335.86 193.972 336.14C193.832 336.14 193.692 336.14 193.562 336.14Z" fill="url(#paint0_linear)"/>
<path d="M188.341 301.3L176.021 304.56C173.611 300.95 178.021 283.37 133.771 263.34L121.321 248.54L173.521 234.76C173.991 234.64 175.801 235.72 176.171 237.63L188.341 301.3Z" fill="#522CD5"/>
<path d="M122.221 267.32C119.551 266.43 118.261 264.57 117.761 261.95L116.041 252.7C115.771 251.26 116.701 249.78 118.111 249.41L128.171 246.75C129.771 246.33 131.321 247.3 131.631 248.94L133.581 257.17C134.161 260.2 134.931 262 138.471 263.23C159.401 270.5 177.731 283.04 183.201 302.67L172.681 305.46C169.231 295.57 157.261 279.07 122.221 267.32Z" fill="url(#paint1_linear)"/>
<path d="M118.121 249.41C116.711 249.78 115.781 251.27 116.051 252.7L117.771 261.95C118.051 263.41 118.591 264.62 119.451 265.57L135.361 261.36C134.361 260.29 133.941 258.94 133.591 257.16L131.641 248.93C131.331 247.3 129.781 246.32 128.181 246.74L118.121 249.41Z" fill="url(#paint2_radial)"/>
<path d="M150.282 305.73C148.242 305.73 146.342 305.25 144.522 304.3C138.252 301.02 124.172 288.91 121.412 286.51L131.892 274.42C137.592 279.36 146.642 286.79 150.822 289.46C152.432 288.83 156.822 286.46 166.172 277.64C174.372 269.91 183.712 259.78 191.812 250.89L203.632 261.67C176.552 291.36 161.432 305.73 150.282 305.73Z" fill="url(#paint3_linear)"/>
<path d="M293.061 468.57C203.391 477.8 149.011 459.98 186.071 449.15C205.421 443.49 179.051 438.67 146.261 441.89C91.6314 447.26 42.3514 457.53 5.67139 467.21C14.0614 527.85 31.8114 584.31 59.3214 627.6C122.741 727.37 236.791 750.3 340.211 739.32C511.041 721.19 584.971 625.53 580.161 487.02C462.941 455.11 337.281 464.02 293.061 468.57Z" fill="#8FDAD0"/>
<path d="M576.351 550.02C518.161 539.77 421.751 523.51 393.221 519.53C291.771 505.38 129.221 496.8 10.8813 498.35C20.5113 547.04 36.5813 591.82 59.3213 627.6C122.741 727.37 236.791 750.3 340.211 739.32C483.731 724.1 558.851 654.13 576.351 550.02Z" fill="#7BC4B9"/>
<path d="M574.432 560.3C525.272 552.43 434.661 538.84 410.762 535.51C298.822 519.91 128.762 515.04 15.0415 517.47C24.8815 558.74 39.5915 596.56 59.3215 627.61C122.742 727.38 236.791 750.31 340.211 739.33C478.961 724.6 553.802 658.73 574.432 560.3Z" fill="#57AA9A"/>
<path d="M183.012 501.4C247.202 504.24 313.012 510.21 379.832 519.53C386.412 520.45 392.972 521.4 399.522 522.38C392.202 520.69 380.732 514.28 378.532 506.72C373.122 488.16 376.302 467.38 376.302 467.38L363.992 470.9C363.992 470.9 363.252 506.35 345.322 504.22C333.602 502.82 333.912 477.67 333.912 477.67C333.912 477.67 328.332 511.9 308.612 503.34C301.242 498.54 300.802 483.62 300.802 483.62L289.352 481.62C289.352 481.62 281.142 495.69 275.872 492.17C270.602 488.65 271.932 459.46 271.932 459.46C271.932 459.46 262.902 490.87 250.142 480.23C246.052 476.82 243.332 456.73 243.332 456.73C243.332 456.73 240.522 500.37 224.152 497.02C215.592 495.9 212.582 484.55 212.582 484.55L199.102 476.34C199.082 476.34 199.722 491.67 183.012 501.4Z" fill="#52A898"/>
<path d="M283.062 546.51C341.562 549.22 459.512 572.7 502.842 586.41C546.172 600.12 542.122 607.92 487.562 597.94C449.562 590.99 304.572 564.27 273.392 559.6C242.212 554.93 222.582 543.7 283.062 546.51Z" fill="#45897C"/>
<path d="M402.741 91.12C402.741 91.12 398.791 93.4 396.111 97.75C394.911 94.34 389.481 91.12 389.481 91.12C389.481 91.12 394.101 88.84 396.111 84.49C398.391 88.72 402.741 91.12 402.741 91.12Z" fill="#BBE5E0"/>
<path d="M473.532 232.98C473.532 232.98 469.302 235.42 466.442 240.07C465.152 236.42 459.352 232.98 459.352 232.98C459.352 232.98 464.292 230.54 466.442 225.89C468.872 230.41 473.532 232.98 473.532 232.98Z" fill="#BBE5E0"/>
<path d="M155.061 416.84C158.401 416.84 161.101 414.14 161.101 410.8C161.101 407.46 158.391 404.76 155.061 404.76C151.721 404.76 149.021 407.47 149.021 410.8C149.021 414.14 151.721 416.84 155.061 416.84Z" fill="#BBE5E0"/>
<path d="M387.302 283.34C389.832 283.34 391.882 281.29 391.882 278.76C391.882 276.23 389.832 274.18 387.302 274.18C384.772 274.18 382.722 276.23 382.722 278.76C382.722 281.29 384.772 283.34 387.302 283.34Z" fill="#BBE5E0"/>
<path d="M122.411 169.13C122.411 169.13 117.741 171.82 114.571 176.97C113.141 172.93 106.731 169.13 106.731 169.13C106.731 169.13 112.191 166.44 114.571 161.29C117.271 166.28 122.411 169.13 122.411 169.13Z" fill="#BBE5E0"/>
<path d="M406.722 313.15C408.572 313.15 410.072 311.65 410.072 309.8C410.072 307.95 408.572 306.45 406.722 306.45C404.872 306.45 403.372 307.95 403.372 309.8C403.372 311.65 404.872 313.15 406.722 313.15Z" fill="#BBE5E0"/>
<path d="M76.8416 356.66C78.9216 356.52 80.4616 356.24 82.7716 355.88C83.9616 355.69 83.9616 353.97 82.7716 353.8C80.5316 353.46 79.0816 353.29 76.9416 353.23C76.4016 353.21 75.9516 352.8 75.9116 352.25C75.7716 350.21 75.4916 347.93 75.1416 345.67C74.9516 344.49 73.2316 344.49 73.0616 345.67C72.7216 347.91 72.5516 350.13 72.4916 352.27C72.4716 352.82 72.0516 353.27 71.5016 353.3C69.4416 353.41 67.5416 353.6 65.9016 353.81C64.6816 353.97 64.6816 355.72 65.8916 355.9C67.8016 356.18 69.8616 356.44 71.6016 356.61C72.1216 356.66 72.5316 357.08 72.5616 357.6C72.6716 359.71 72.8616 361.65 73.0816 363.32C73.2416 364.54 74.9916 364.55 75.1716 363.33C75.4516 361.42 75.7116 359.36 75.8816 357.61C75.9116 357.1 76.3216 356.69 76.8416 356.66Z" fill="#BBE5E0"/>
<path d="M284.052 284.36C303.412 273.9 313.402 259.69 313.402 259.69L316.822 263.35L316.982 263.38C340.662 231.49 338.982 186.27 310.932 156.18C279.322 122.27 226.212 120.41 192.312 152.02C158.412 183.63 156.542 236.74 188.152 270.64C213.092 297.39 251.422 304.19 283.132 290.34C284.362 289.64 286.162 287.92 284.052 284.36Z" fill="url(#paint4_radial)"/>
<path d="M284.052 284.36C303.172 274.03 313.142 260.05 313.392 259.71L287.092 231.29C287.092 231.29 283.762 226.9 280.092 230.31C276.432 233.73 266.212 243.53 254.762 254.21C252.402 256.41 253.072 259.39 254.482 260.91C254.482 260.91 280.332 285.76 284.052 284.36Z" fill="url(#paint5_radial)"/>
<path d="M291.311 273.75C288.091 273.17 271.211 270.61 271.211 270.61L284.021 284.37C284.031 284.37 284.031 284.37 284.041 284.37C288.451 281.99 292.371 279.41 295.801 276.85C295.121 275.14 293.631 274.16 291.311 273.75Z" fill="#A08BE8"/>
<path d="M282.181 290.75C282.181 290.75 287.041 289.4 284.051 284.36C284.071 284.35 258.801 256.97 258.801 256.97C257.441 255.51 256.561 252.83 257.821 251.35C256.811 252.3 255.791 253.25 254.751 254.22C252.611 256.21 252.961 258.85 254.101 260.46C254.221 260.62 254.331 260.78 254.471 260.92L258.461 265.2L282.181 290.75Z" fill="#512BD4"/>
<path d="M267.782 295.32L169.092 189.46C167.272 195.6 166.162 201.91 165.782 208.26L248.802 297.31C255.162 297.37 261.532 296.71 267.782 295.32Z" fill="#D8CFF7"/>
<path d="M243.452 297.1C253.252 297.81 263.152 296.8 272.692 294.07L260.612 281.11L243.452 297.1Z" fill="#512BD4"/>
<path d="M317.062 158.04L306.082 146.1L319.882 136.51L327.762 145.08L317.062 158.04Z" fill="#8A6FE8"/>
<path d="M313.772 169.5C314.272 170.04 315.132 170.04 315.612 169.49C320.692 163.65 320.682 154.79 315.312 148.96C309.942 143.13 301.122 142.38 294.872 146.96C294.282 147.39 294.212 148.25 294.712 148.79L313.772 169.5Z" fill="url(#paint6_radial)"/>
<path d="M289.951 263.8C294.501 259.74 296.241 254.26 293.831 251.56C291.421 248.85 285.771 249.95 281.221 254C276.671 258.06 274.931 263.54 277.341 266.24C279.751 268.95 285.401 267.86 289.951 263.8Z" fill="#512BD4"/>
<path d="M289.832 254.88C286.442 254.73 283.582 257.36 283.432 260.75C283.332 263.07 284.532 265.14 286.392 266.27C287.602 265.64 288.812 264.81 289.952 263.79C292.182 261.8 293.732 259.47 294.452 257.29C293.382 255.9 291.722 254.96 289.832 254.88Z" fill="#8065E0"/>
<path d="M330.952 146.79C337.422 146.79 342.662 141.55 342.662 135.08C342.662 128.61 337.422 123.36 330.952 123.36C324.482 123.36 319.242 128.61 319.242 135.08C319.242 141.55 324.482 146.79 330.952 146.79Z" fill="#D8CFF7"/>
<path d="M366.712 571.33C368.292 569.04 367.482 565.73 364.892 563.94C362.302 562.15 358.922 562.55 357.342 564.84C355.762 567.13 356.572 570.44 359.162 572.23C361.742 574.02 365.132 573.62 366.712 571.33Z" fill="#357266"/>
<path d="M281.902 558.35C283.482 556.06 282.672 552.75 280.082 550.96C277.492 549.17 274.112 549.57 272.532 551.86C270.952 554.15 271.762 557.46 274.352 559.25C276.942 561.05 280.322 560.64 281.902 558.35Z" fill="#357266"/>
<path d="M367.882 558.89L331.162 545.98C329.262 545.31 327.972 543.51 328.062 541.66L334.362 410.42C334.462 408.27 332.702 406.24 330.432 405.89L324.452 404.98C322.172 404.63 320.252 406.1 320.142 408.25L313.842 539.36C313.752 541.21 312.302 542.59 310.372 542.68L272.402 544.3C270.592 544.38 269.182 545.61 268.962 547.32C268.632 549.82 270.912 552.23 273.572 552.2L312.892 551.74C313.122 551.74 313.362 551.75 313.602 551.79L326.562 553.77C326.802 553.81 327.032 553.86 327.262 553.94L365.962 566.33C368.592 567.17 371.062 565.49 370.972 562.93C370.932 561.15 369.662 559.51 367.882 558.89Z" fill="#AFE5DE"/>
<path d="M330.111 361.61C330.111 361.61 333.181 355.61 340.711 353.52C348.241 351.43 358.011 357.15 358.011 357.15L330.111 361.61Z" fill="white"/>
<path d="M369.292 360.22L325.502 366.63L324.392 362.58L368.182 356.16L369.292 360.22Z" fill="#AFE5DE"/>
<path d="M342.891 384.77L351.381 386.07C352.901 386.3 354.181 385.33 354.251 383.89L354.541 377.95C354.611 376.51 353.441 375.16 351.921 374.93L348.131 374.35C347.001 374.18 346.021 373.37 345.651 372.31L342.861 364.23C342.411 362.91 341.021 362.02 339.651 362.17L332.351 362.95C330.511 363.15 329.631 365.05 330.621 366.69L340.681 383.3C341.151 384.08 341.981 384.63 342.891 384.77Z" fill="#357266"/>
<path d="M325.192 370.11L325.152 369.31C324.452 369.34 323.732 369.21 323.052 368.9C322.012 368.42 321.182 367.59 320.712 366.58L308.872 340.69C308.412 339.68 308.362 338.6 308.752 337.65C309.142 336.7 309.912 336 310.922 335.67L321.482 332.22L314.922 319.44L304.982 322.68C300.512 324.14 297.102 327.26 295.392 331.46C293.682 335.66 293.862 340.44 295.912 344.92L307.752 370.81C309.802 375.29 313.472 378.93 318.082 381.07C318.952 381.47 319.832 381.8 320.712 382.08L325.192 370.11Z" fill="#45897C"/>
<path d="M311.492 291.95L302.452 294.96C301.272 295.35 299.862 294.71 299.312 293.52L297.852 290.38C297.302 289.19 297.812 287.91 299.002 287.52L308.042 284.51C309.222 284.12 310.632 284.76 311.182 285.95L312.642 289.09C313.182 290.27 312.672 291.56 311.492 291.95Z" fill="white"/>
<path d="M336.181 339.11L322.281 343.74C321.111 344.13 319.731 343.5 319.181 342.33L298.211 297.14C297.671 295.97 298.171 294.71 299.341 294.32L313.241 289.69C314.411 289.3 315.791 289.93 316.341 291.1L337.311 336.29C337.851 337.46 337.351 338.72 336.181 339.11Z" fill="#45897C"/>
<path d="M316.231 326.58C319.311 322.13 317.721 315.71 312.691 312.23C307.661 308.75 301.091 309.54 298.021 313.98C294.941 318.43 296.531 324.85 301.561 328.33C306.591 331.81 313.161 331.02 316.231 326.58Z" fill="#357266"/>
<path d="M335.121 350.69L327.161 352.86L322.792 342.01L330.751 339.85L335.121 350.69Z" fill="#357266"/>
<path d="M350.882 345.45L344.072 349.67L336.932 340.02L343.742 335.8L350.882 345.45Z" fill="#357266"/>
<path d="M348.262 342.19L322.842 346.05C321.832 346.2 320.762 345.63 320.302 344.69L319.992 344.06C319.482 343.03 319.842 341.88 320.822 341.43L343.212 331.02C344.332 330.5 345.782 331.08 346.332 332.27L349.682 339.45C350.242 340.69 349.572 341.99 348.262 342.19Z" fill="#AFE5DE"/>
<path d="M368.762 393.67L299.692 383.11C297.752 382.81 296.092 384.16 296.002 386.11L295.472 397.16C295.382 399.11 296.882 400.93 298.822 401.24L367.892 411.8C369.832 412.1 371.492 410.75 371.582 408.8L372.112 397.75C372.202 395.8 370.712 393.97 368.762 393.67Z" fill="#52A898"/>
<path d="M380.241 417.2L275.251 401.14L275.551 395.03L380.531 411.08L380.241 417.2Z" fill="#AFE5DE"/>
<path d="M489.492 122.09C489.442 120.34 489.352 118.61 489.232 116.9C482.162 111.44 473.302 108.18 463.672 108.18C440.552 108.18 421.812 126.92 421.812 150.04C421.812 173.16 440.552 191.9 463.672 191.9C476.302 191.9 487.612 186.3 495.292 177.45C492.162 160.91 490.102 142.82 489.492 122.09Z" fill="url(#paint7_radial)"/>
<path d="M458.311 135.8C469.681 130.77 480.201 126.42 489.521 122.94C489.511 122.65 489.501 122.37 489.491 122.08C489.441 120.48 489.361 118.91 489.251 117.34C478.521 120.95 466.751 125.52 454.581 130.9C410.771 150.29 378.311 172.92 382.091 181.45C384.701 187.36 404.041 184.94 430.251 176.44L429.151 174.29C407.421 181.1 395.561 181.59 393.421 176.75C390.151 169.37 418.641 153.36 458.311 135.8Z" fill="#8FDAD0"/>
<path d="M270.002 326.1L278.302 312.76C263.872 302.99 251.292 293.76 244.192 282.34C230.042 259.59 244.062 230.58 248.412 222.81L232.082 213.28C222.862 236.73 199.522 283.99 270.002 326.1Z" fill="url(#paint8_linear)"/>
<path d="M243.411 229.45C251.921 229.45 258.821 222.55 258.821 214.04C258.821 205.53 251.921 198.63 243.411 198.63C234.901 198.63 228.001 205.53 228.001 214.04C228.001 222.55 234.901 229.45 243.411 229.45Z" fill="url(#paint9_radial)"/>
<path d="M283.392 318.38L296.932 311.92C300.522 310.17 301.802 305.87 299.772 302.3C297.752 298.73 293.192 297.26 289.602 299L275.722 305.62L283.392 318.38Z" fill="#8A6FE8"/>
<path d="M264.341 330.54L277.151 339.62C280.581 342.02 285.141 341.34 287.341 338.1C289.541 334.87 288.541 330.3 285.111 327.91L271.971 318.6L264.341 330.54Z" fill="#8A6FE8"/>
<path d="M278.711 326.99L294.401 327.45C298.581 327.55 301.991 324.45 302.021 320.54C302.051 316.63 298.681 313.38 294.491 313.29L278.401 312.82L278.711 326.99Z" fill="#8A6FE8"/>
<path d="M274.401 327.96L288.321 335.23C292.041 337.14 296.461 335.85 298.191 332.34C299.921 328.83 298.311 324.44 294.591 322.53L280.321 315.08L274.401 327.96Z" fill="#8A6FE8"/>
<path d="M274.952 303.82C283.362 304.95 289.732 312.73 289.172 321.18C288.622 329.63 281.362 335.56 272.952 334.43C264.542 333.3 258.172 325.52 258.732 317.07C259.282 308.61 266.542 302.68 274.952 303.82Z" fill="url(#paint10_radial)"/>
<path d="M388.531 572.97C391.141 571.79 392.181 568.47 390.861 565.56C389.541 562.65 386.361 561.24 383.751 562.42C381.141 563.6 380.101 566.92 381.421 569.83C382.741 572.75 385.921 574.15 388.531 572.97Z" fill="#357266"/>
<path d="M501.752 592.78C504.362 591.6 505.402 588.28 504.082 585.37C502.762 582.46 499.582 581.05 496.972 582.23C494.362 583.41 493.322 586.73 494.642 589.64C495.962 592.56 499.142 593.96 501.752 592.78Z" fill="#357266"/>
<path d="M471.312 587.46C473.922 586.28 474.962 582.96 473.642 580.05C472.322 577.14 469.142 575.73 466.532 576.91C463.922 578.09 462.882 581.41 464.202 584.32C465.522 587.24 468.702 588.64 471.312 587.46Z" fill="#357266"/>
<path d="M488.252 409.63L420.912 397.84L421.262 393.15L488.612 404.93L488.252 409.63Z" fill="#357266"/>
<path d="M486.982 426.45L409.782 412.94L410.132 408.25L487.342 421.76L486.982 426.45Z" fill="#357266"/>
<path d="M455.632 387.9L473.562 391.04L469.912 376.29L451.972 373.15L455.632 387.9Z" fill="#357266"/>
<path d="M446.181 382.76L479.121 388.52L478.861 391.97L445.921 386.2L446.181 382.76Z" fill="#52A898"/>
<path d="M491.481 407.44L427.011 396.16C426.301 396.04 425.771 395.28 425.831 394.47L426.621 384.04C426.681 383.23 427.311 382.68 428.021 382.8L492.491 394.08C493.201 394.2 493.731 394.96 493.671 395.77L492.881 406.2C492.821 407.01 492.191 407.57 491.481 407.44Z" fill="#45897C"/>
<path d="M483.052 405.97L418.582 394.69C417.872 394.57 417.342 393.81 417.402 393L418.192 382.57C418.252 381.76 418.882 381.21 419.592 381.33L484.062 392.61C484.772 392.73 485.302 393.49 485.242 394.3L484.452 404.73C484.392 405.54 483.762 406.09 483.052 405.97Z" fill="#AFE5DE"/>
<path d="M490.302 423.15L425.832 411.86C425.122 411.74 424.592 410.98 424.652 410.17L425.442 399.74C425.502 398.93 426.132 398.38 426.842 398.5L491.312 409.78C492.022 409.9 492.552 410.66 492.492 411.47L491.702 421.9C491.642 422.72 491.012 423.27 490.302 423.15Z" fill="#45897C"/>
<path d="M471.481 419.85L407.011 408.57C406.301 408.45 405.771 407.69 405.831 406.88L406.621 396.45C406.681 395.64 407.311 395.09 408.021 395.21L472.491 406.49C473.201 406.61 473.731 407.37 473.671 408.18L472.881 418.61C472.811 419.42 472.191 419.98 471.481 419.85Z" fill="#AFE5DE"/>
<path d="M452.722 416.66L428.062 412.35L428.822 402.19L453.482 406.5L452.722 416.66Z" fill="#7BC4B9"/>
<path d="M486.892 381.8L434.912 372.7C433.182 372.4 431.902 370.66 432.042 368.83L433.242 331.4C433.392 329.45 434.992 328.13 436.832 328.45L490.232 337.66C491.962 337.96 493.242 339.7 493.102 341.53L490.272 379.01C490.122 380.85 488.612 382.1 486.892 381.8Z" fill="#52A898"/>
<path d="M485.351 377.66L437.031 369.2C436.361 369.08 435.871 368.41 435.921 367.7L436.851 333.82C436.911 333 437.591 332.44 438.361 332.57L488.111 341.14C488.781 341.26 489.271 341.93 489.221 342.64L486.661 376.57C486.601 377.3 486.011 377.78 485.351 377.66Z" fill="white"/>
<path d="M380.852 563.62L507.132 585.72C509.292 586.1 511.192 584.42 511.372 581.97L522.312 436.85C522.492 434.4 520.892 432.11 518.742 431.73L392.392 410.09C390.232 409.71 388.002 411.58 387.822 414.03L377.272 558.51C377.092 560.95 378.692 563.24 380.852 563.62Z" fill="#45897C"/>
<path d="M381.111 563.67L475.262 580.15C477.562 580.55 479.582 578.89 479.762 576.44L490.702 431.32C490.882 428.87 489.172 426.56 486.872 426.15L389.542 409.44C387.242 409.04 385.222 410.7 385.042 413.15L377.282 558.51C377.092 560.95 378.801 563.27 381.111 563.67Z" fill="#AFE5DE"/>
<path d="M463.711 459.3L409.541 449.82C408.401 449.62 407.561 448.42 407.661 447.13L409.321 425.09C409.421 423.8 410.421 422.92 411.551 423.12L465.721 432.6C466.861 432.8 467.701 434 467.601 435.29L465.941 457.33C465.851 458.62 464.851 459.5 463.711 459.3Z" fill="#7BC4B9"/>
<path d="M439.412 443.21L416.642 439.23C416.002 439.12 415.522 438.44 415.582 437.71L416.122 430.54C416.172 429.81 416.742 429.31 417.382 429.42L440.152 433.4C440.792 433.51 441.272 434.19 441.212 434.92L440.672 442.09C440.622 442.82 440.052 443.32 439.412 443.21Z" fill="#AFE5DE"/>
<path d="M393.732 468.19L398.572 455.2L393.841 454.37C392.991 454.22 392.242 454.83 392.172 455.74L392.151 456.01L390.941 472.04L390.792 473.95L389.581 489.98L389.431 491.89L388.221 507.92L388.072 509.83L386.861 525.86L386.711 527.77L385.621 542.19C385.561 543.01 386.072 543.78 386.792 544.03L472.721 559.07C473.461 559.07 474.082 558.5 474.142 557.68L474.271 555.96L388.881 541.02C388.411 540.94 388.121 540.4 388.281 539.95L393.121 526.96L475.361 541.35L475.611 538.01L390.221 523.07C389.751 522.99 389.461 522.45 389.621 522L394.461 509.01L476.702 523.4L476.952 520.06L391.561 505.12C391.091 505.04 390.801 504.5 390.961 504.05L395.801 491.06L478.042 505.45L478.292 502.11L392.901 487.17C392.431 487.09 392.141 486.55 392.301 486.1L397.142 473.11L479.382 487.5L479.632 484.16L394.241 469.22C393.861 469.17 393.562 468.64 393.732 468.19Z" fill="#7BC4B9"/>
<path d="M495.672 483.85C494.862 483.88 494.082 483.38 493.712 482.5C493.212 481.32 493.662 479.92 494.712 479.36L526.652 462.5C527.702 461.94 528.952 462.44 529.442 463.62C529.942 464.8 529.492 466.2 528.442 466.76L496.502 483.62C496.232 483.76 495.952 483.84 495.672 483.85Z" fill="#7BC4B9"/>
<path d="M529.001 412L530.141 391.45L520.481 390.01L519.341 410.62C519.291 411.54 518.751 412.3 517.971 412.5C510.271 414.48 504.541 422.13 504.581 431.98C504.631 442.12 511.161 451.5 519.931 453.93C531.081 457.02 541.131 448.5 541.821 436.05C542.341 426.69 537.391 417.96 530.111 414.1C529.391 413.71 528.961 412.86 529.001 412Z" fill="white"/>
<path d="M530.962 395.22L519.252 393.47C518.322 393.33 517.612 392.36 517.672 391.31L517.682 391.19C517.742 390.13 518.541 389.39 519.471 389.53L531.182 391.28C532.112 391.42 532.822 392.39 532.762 393.44L532.752 393.56C532.692 394.62 531.892 395.36 530.962 395.22Z" fill="white"/>
<path d="M509.492 424.69C508.662 426.58 508.142 428.71 508.012 431C507.482 440.53 513.862 449.27 522.262 450.52C530.662 451.77 537.892 445.07 538.422 435.54C538.552 433.25 538.272 431.01 537.662 428.9L509.492 424.69Z" fill="#52A898"/>
<path d="M500.282 452.59L499.872 459.19L546.512 466.33L547.082 458.64L500.282 452.59Z" fill="#357266"/>
<path d="M548.722 461.17L501.592 454.16C500.352 453.98 499.412 452.69 499.492 451.29L499.832 445.19C499.912 443.79 500.972 442.8 502.212 442.98L549.342 449.99C550.582 450.17 551.522 451.46 551.442 452.86L551.102 458.96C551.032 460.37 549.962 461.36 548.722 461.17Z" fill="#45897C"/>
<path d="M543.532 460.4L498.442 453.75C497.202 453.57 496.262 452.28 496.342 450.88L496.682 444.78C496.762 443.38 497.822 442.39 499.062 442.57L544.152 449.22C545.392 449.4 546.332 450.69 546.252 452.09L545.912 458.19C545.832 459.59 544.772 460.58 543.532 460.4Z" fill="#7BC4B9"/>
<path d="M540.072 456.83C541.232 456.55 541.912 455.23 541.582 453.88C541.262 452.53 540.052 451.67 538.892 451.94C537.732 452.22 537.052 453.54 537.382 454.89C537.712 456.24 538.912 457.11 540.072 456.83Z" fill="#45897C"/>
<path d="M538.431 434.33C538.421 432.46 538.151 430.63 537.661 428.9L509.491 424.7C508.811 426.26 508.351 427.98 508.131 429.82L538.431 434.33Z" fill="#7BC4B9"/>
<path d="M470.312 366.88C470.292 366.88 470.272 366.88 470.252 366.88C470.012 366.86 469.822 366.65 469.782 366.39L468.042 354.4L463.802 362.25C463.682 362.48 463.442 362.58 463.212 362.51C462.982 362.44 462.832 362.21 462.832 361.94L462.802 348.4L458.832 356.52C458.722 356.74 458.512 356.86 458.292 356.82C458.072 356.78 457.902 356.6 457.852 356.36L455.962 346L452.252 364.29C452.192 364.57 451.972 364.77 451.712 364.75C451.452 364.73 451.252 364.51 451.222 364.22L450.182 352.03L447.562 356.95C447.442 357.17 447.222 357.27 447.002 357.22C446.782 357.17 446.622 356.96 446.592 356.71L445.802 349.1L442.142 362.43C442.052 362.74 441.762 362.91 441.492 362.82C441.212 362.72 441.062 362.39 441.142 362.08L445.532 346.08C445.602 345.81 445.842 345.64 446.082 345.67C446.332 345.7 446.522 345.91 446.552 346.19L447.452 354.85L450.102 349.88C450.222 349.66 450.452 349.55 450.662 349.61C450.882 349.67 451.052 349.88 451.072 350.13L451.952 360.47L455.472 343.08C455.522 342.81 455.712 342.62 455.992 342.62C456.242 342.62 456.452 342.82 456.502 343.09L458.592 354.55L462.852 345.83C462.972 345.59 463.212 345.48 463.442 345.54C463.672 345.61 463.832 345.84 463.832 346.11L463.862 359.84L467.862 352.41C467.972 352.2 468.192 352.09 468.412 352.14C468.632 352.19 468.792 352.38 468.832 352.62L470.462 363.88L475.702 346.82C475.782 346.55 476.022 346.39 476.272 346.43C476.522 346.47 476.712 346.71 476.712 346.99L476.992 357.06L480.732 351.46C480.862 351.27 481.082 351.18 481.292 351.25C481.502 351.31 481.652 351.51 481.672 351.75L482.662 361.69C482.692 362.01 482.492 362.31 482.202 362.34C481.932 362.38 481.652 362.14 481.622 361.82L480.772 353.36L476.932 359.12C476.802 359.32 476.562 359.4 476.352 359.33C476.142 359.25 475.992 359.04 475.982 358.79L475.742 350.25L470.752 366.49C470.722 366.71 470.532 366.87 470.312 366.88Z" fill="#7BC4B9"/>
<path d="M486.131 460.33L553.061 470.25C553.671 470.34 554.201 469.85 554.241 469.15L554.341 467.29C554.381 466.59 553.911 465.95 553.301 465.86L486.371 455.94C485.761 455.85 485.231 456.34 485.191 457.04L485.091 458.9C485.051 459.6 485.511 460.24 486.131 460.33Z" fill="#AFE5DE"/>
<path d="M341.622 58.69C400.742 58.69 432.562 69.11 476.412 72.26C460.792 43.57 432.322 23.14 396.792 11.43C378.622 7.42 359.742 4.35 340.222 2.27C329.372 1.13 318.412 0.36 307.402 0C233.452 2.81 151.542 32.65 91.6916 91.85C74.4516 108.91 59.5716 130.58 47.1216 155.54C131.042 153.66 249.442 107.92 213.842 98.49C178.222 89.06 211.742 58.69 341.622 58.69Z" fill="url(#paint11_radial)"/>
<path d="M517.632 512.92C517.632 512.92 517.272 514.16 516.332 516.11L514.582 539.38C535.112 542.47 555.392 545.85 575.422 549.52C564.882 539.15 565.022 521.87 565.022 521.87C565.022 521.87 557.042 536.78 553.832 534.14C550.632 531.5 551.822 507.25 551.822 507.25C551.822 507.25 543.501 536.9 532.721 535C521.941 533.09 525.782 518.01 525.782 518.01L517.632 512.92Z" fill="#52A898"/>
<path d="M112.641 499.18C106.231 492.63 102.841 468.37 102.841 468.37C102.841 468.37 90.3714 481.02 83.6814 464.84C80.4014 456.92 77.6814 439.03 77.6814 439.03C77.6814 439.03 77.1814 459.98 74.2014 470.21C71.2214 480.44 68.2314 490.43 62.2714 475.08C56.3014 459.74 60.0314 424.65 60.0314 424.65L43.6214 434.88C43.6214 434.88 37.6714 479.48 21.9614 498.24C50.3814 498.02 81.0614 498.35 112.641 499.18Z" fill="#52A898"/>
<path d="M107.671 609.51C72.0213 610.38 79.1813 617.78 94.5213 622.38C109.861 626.98 118.161 632.1 98.0013 633.59C77.8313 635.08 77.7213 644.18 111.661 650.05C145.601 655.92 175.251 655.06 201.861 651.33C228.471 647.6 221.091 640.82 221.091 640.82C221.091 640.82 232.111 640.28 248.361 633.96C260.251 629.33 244.821 621.87 232.891 621.43C220.951 620.98 107.671 609.51 107.671 609.51Z" fill="#45897C"/>
<path d="M178.811 617.08C185.671 610.54 190.071 602.13 190.641 592.85C191.991 571.14 172.001 552.92 145.981 552.16C119.961 551.4 97.7613 568.4 96.4113 590.12C95.8513 599.1 98.9613 607.49 104.621 614.29C130.381 619.84 157.031 618.92 178.811 617.08Z" fill="url(#paint12_radial)"/>
<path d="M224.651 635.96C231.511 629.42 235.911 621.01 236.481 611.73C237.831 590.02 217.841 571.8 191.821 571.04C165.801 570.29 143.601 587.28 142.251 609C141.691 617.98 144.801 626.37 150.461 633.17C176.231 638.72 202.881 637.8 224.651 635.96Z" fill="url(#paint13_radial)"/>
<path d="M195.131 648.35C203.171 641.69 208.381 632.75 208.971 623.26C210.361 601.06 186.551 582.34 155.801 581.44C125.051 580.55 99.0013 597.82 97.6113 620.03C97.0313 629.22 100.791 637.8 107.551 644.79C138.031 650.58 169.421 650.14 195.131 648.35Z" fill="url(#paint14_radial)"/>
<path d="M177.271 594.06C177.581 590.09 168.151 586.11 156.201 585.19C144.261 584.26 134.331 586.73 134.021 590.71C133.711 594.68 143.141 598.66 155.091 599.58C167.031 600.5 176.961 598.03 177.271 594.06Z" fill="#599F93"/>
<path d="M154.681 599.54C156.781 599.72 158.811 599.79 160.751 599.76L164.121 544.17C164.221 542.44 161.321 542.18 160.951 543.89L149.021 598.58C149.001 598.66 149.031 598.73 149.021 598.81C150.821 599.13 152.711 599.38 154.681 599.54Z" fill="#88D3C8"/>
<path d="M183.551 530.37C182.441 536.38 174.191 540.74 164.661 540.2C154.791 539.64 147.301 534.05 147.931 527.71C147.941 527.64 147.961 527.58 147.961 527.52C145.351 529.27 143.711 531.49 143.461 533.97C142.831 540.39 151.801 546.13 163.511 546.8C175.221 547.46 185.221 542.8 185.861 536.37C186.071 534.24 185.201 532.19 183.551 530.37Z" fill="#88D3C8"/>
<path d="M174.361 548.15C173.591 552.29 167.911 555.31 161.331 554.93C154.521 554.54 149.361 550.69 149.791 546.32C149.801 546.28 149.811 546.24 149.821 546.18C148.031 547.39 146.881 548.91 146.721 550.63C146.281 555.06 152.471 559.02 160.551 559.48C168.631 559.94 175.521 556.72 175.961 552.29C176.101 550.82 175.511 549.4 174.361 548.15Z" fill="#88D3C8"/>
<path d="M173.601 530.39C173.851 527.52 170.271 524.87 165.611 524.47C160.951 524.07 156.971 526.08 156.731 528.95C156.481 531.82 160.061 534.47 164.721 534.87C169.381 535.27 173.351 533.26 173.601 530.39Z" fill="#CFECE9"/>
<path d="M219.771 585.83C220.711 582.77 214.231 578.06 205.301 575.31C196.371 572.56 188.361 572.81 187.421 575.88C186.481 578.94 192.961 583.65 201.891 586.4C210.821 589.14 218.831 588.89 219.771 585.83Z" fill="#599F93"/>
<path d="M227.851 533.78L194.811 583.39C194.781 583.44 194.781 583.49 194.751 583.54C196.641 584.5 198.811 585.4 201.191 586.17C202.791 586.69 204.371 587.11 205.891 587.44C205.901 587.43 205.911 587.42 205.921 587.41L230.151 534.73C230.751 533.44 228.651 532.58 227.851 533.78Z" fill="#88D3C8"/>
<path d="M244.061 528.32C241.631 532.74 235.471 534.81 229.991 532.94C224.311 531 221.531 525.59 223.761 520.85C223.791 520.8 223.811 520.76 223.841 520.71C221.781 521.65 220.151 523.09 219.281 524.95C217.011 529.75 220.631 535.52 227.371 537.81C234.101 540.1 241.391 538.07 243.661 533.27C244.411 531.66 244.501 529.97 244.061 528.32Z" fill="#88D3C8"/>
<path d="M233.231 541.95C231.561 544.98 227.341 546.4 223.591 545.11C219.701 543.78 217.791 540.07 219.321 536.82C219.341 536.79 219.351 536.75 219.371 536.72C217.961 537.36 216.841 538.35 216.241 539.62C214.681 542.92 217.171 546.86 221.791 548.43C226.411 550 231.411 548.61 232.961 545.32C233.471 544.24 233.531 543.07 233.231 541.95Z" fill="#88D3C8"/>
<path d="M240.361 525.84C240.991 523.35 238.731 520.63 235.321 519.76C231.901 518.89 228.621 520.2 227.991 522.68C227.361 525.17 229.621 527.89 233.031 528.76C236.441 529.64 239.721 528.33 240.361 525.84Z" fill="#CFECE9"/>
<path d="M124.821 565.36C131.611 562.18 136.481 558.25 135.701 556.58C134.921 554.91 128.781 556.14 121.991 559.32C115.201 562.5 110.331 566.43 111.111 568.1C111.901 569.77 118.031 568.54 124.821 565.36Z" fill="#599F93"/>
<path d="M125.181 565.17C126.701 564.44 128.121 563.68 129.381 562.93L97.9713 517.61C97.3513 516.72 95.7713 517.44 96.2413 518.4L119.971 567.33C121.611 566.76 123.371 566.04 125.181 565.17Z" fill="#88D3C8"/>
<path d="M101.331 506.55C103.191 510.21 100.871 514.9 95.9511 517.21C90.8611 519.6 84.9211 518.51 82.6911 514.8C82.6611 514.76 82.6511 514.72 82.6311 514.68C82.0511 516.37 82.1211 518.06 82.9911 519.51C85.2611 523.27 91.9911 524.04 98.0311 521.21C104.081 518.38 107.141 513.04 104.871 509.27C104.131 508.02 102.881 507.12 101.331 506.55Z" fill="#88D3C8"/>
<path d="M106.291 518.68C107.691 521.44 105.941 524.97 102.241 526.71C98.4013 528.5 93.9213 527.69 92.2413 524.89C92.2213 524.86 92.2113 524.83 92.2013 524.81C91.7613 526.08 91.8213 527.36 92.4813 528.46C94.1913 531.29 99.2613 531.87 103.811 529.74C108.361 527.61 110.671 523.58 108.971 520.75C108.401 519.79 107.461 519.11 106.291 518.68Z" fill="#88D3C8"/>
<path d="M92.0913 513.06C95.5013 512 97.6513 509.18 96.9013 506.77C96.1513 504.35 92.7813 503.25 89.3713 504.31C85.9613 505.37 83.8113 508.19 84.5613 510.6C85.3113 513.02 88.6813 514.12 92.0913 513.06Z" fill="#CFECE9"/>
<path d="M138.352 279.3L130.222 289.11C126.162 287.57 119.542 270.7 71.8819 280.1L53.1519 275.29L87.6319 233.75C87.9419 233.38 90.0419 233.2 91.4519 234.55L138.352 279.3Z" fill="#522CD5"/>
<path d="M64.7916 290.05C62.1016 290.87 59.9816 290.11 58.0416 288.27L51.2716 281.74C50.2116 280.73 50.1116 278.98 51.0416 277.86L57.6816 269.84C58.7416 268.56 60.5716 268.46 61.7716 269.61L68.1416 275.18C70.3716 277.31 72.0516 278.33 75.6416 277.27C96.9016 271.03 119.102 270.59 134.962 283.39L128.012 291.77C119.462 285.73 100.132 279.26 64.7916 290.05Z" fill="url(#paint15_linear)"/>
<path d="M51.0416 277.86C50.1116 278.99 50.2116 280.73 51.2716 281.74L58.0416 288.27C59.1216 289.3 60.2616 289.97 61.5116 290.24L72.0216 277.57C70.5916 277.28 69.4616 276.43 68.1416 275.18L61.7716 269.61C60.5716 268.46 58.7416 268.57 57.6816 269.84L51.0416 277.86Z" fill="url(#paint16_radial)"/>
<path d="M334.471 365.08C329.851 364.37 325.641 366.61 324.101 370.59L317.981 386.36C315.631 392.42 320.361 399.63 327.401 400.7L338.041 402.33C345.081 403.41 350.431 397.74 348.691 391.06L344.171 373.66C343.021 369.27 339.091 365.79 334.471 365.08Z" fill="#52A898"/>
<path d="M337.721 377C338.911 375.28 338.301 372.79 336.351 371.44C334.401 370.09 331.861 370.39 330.671 372.12C329.481 373.84 330.091 376.33 332.041 377.68C333.981 379.02 336.531 378.72 337.721 377Z" fill="#7BC4B9"/>
<defs>
<linearGradient id="paint0_linear" x1="215.378" y1="272.097" x2="181.356" y2="331.025" gradientUnits="userSpaceOnUse">
<stop stop-color="#522CD5"/>
<stop offset="0.4397" stop-color="#8A6FE8"/>
</linearGradient>
<linearGradient id="paint1_linear" x1="176.626" y1="309.101" x2="118.529" y2="248.635" gradientUnits="userSpaceOnUse">
<stop stop-color="#522CD5"/>
<stop offset="0.4397" stop-color="#8A6FE8"/>
</linearGradient>
<radialGradient id="paint2_radial" cx="0" cy="0" r="1" gradientUnits="userSpaceOnUse" gradientTransform="translate(130.934 276.657) rotate(165.173) scale(25.1909)">
<stop offset="0.034" stop-color="#522CD5"/>
<stop offset="0.9955" stop-color="#8A6FE8"/>
</radialGradient>
<linearGradient id="paint3_linear" x1="179.891" y1="244.002" x2="144.934" y2="304.55" gradientUnits="userSpaceOnUse">
<stop stop-color="#522CD5"/>
<stop offset="0.4397" stop-color="#8A6FE8"/>
</linearGradient>
<radialGradient id="paint4_radial" cx="0" cy="0" r="1" gradientUnits="userSpaceOnUse" gradientTransform="translate(262.071 172.655) rotate(36.6407) scale(83.9441)">
<stop offset="0.4744" stop-color="#A08BE8"/>
<stop offset="0.8618" stop-color="#8065E0"/>
</radialGradient>
<radialGradient id="paint5_radial" cx="0" cy="0" r="1" gradientUnits="userSpaceOnUse" gradientTransform="translate(275.888 235.182) rotate(36.6407) scale(58.6762)">
<stop offset="0.2022" stop-color="#E1DFDD"/>
<stop offset="0.7337" stop-color="white"/>
</radialGradient>
<radialGradient id="paint6_radial" cx="0" cy="0" r="1" gradientUnits="userSpaceOnUse" gradientTransform="translate(308.036 154.221) rotate(36.6405) scale(12.3508)">
<stop stop-color="#8065E0"/>
<stop offset="0.8628" stop-color="#512BD4"/>
</radialGradient>
<radialGradient id="paint7_radial" cx="0" cy="0" r="1" gradientUnits="userSpaceOnUse" gradientTransform="translate(421.092 179.196) scale(103.549)">
<stop offset="0.0135" stop-color="#B6E3DE"/>
<stop offset="1" stop-color="#6FD0C3"/>
</radialGradient>
<linearGradient id="paint8_linear" x1="249.594" y1="197.435" x2="249.594" y2="335.208" gradientUnits="userSpaceOnUse">
<stop offset="0.2495" stop-color="#967FE6"/>
<stop offset="0.5015" stop-color="#8A6FE8"/>
</linearGradient>
<radialGradient id="paint9_radial" cx="0" cy="0" r="1" gradientUnits="userSpaceOnUse" gradientTransform="translate(248.487 210.148) rotate(46.8436) scale(22.8893)">
<stop stop-color="#8065E0"/>
<stop offset="0.8628" stop-color="#512BD4"/>
</radialGradient>
<radialGradient id="paint10_radial" cx="0" cy="0" r="1" gradientUnits="userSpaceOnUse" gradientTransform="translate(280.217 312.725) rotate(-130.016) scale(26.753 24.9674)">
<stop stop-color="#8065E0"/>
<stop offset="0.8628" stop-color="#512BD4"/>
</radialGradient>
<radialGradient id="paint11_radial" cx="0" cy="0" r="1" gradientUnits="userSpaceOnUse" gradientTransform="translate(248.788 107.866) scale(234.019)">
<stop offset="0.1458" stop-color="#64C0B0"/>
<stop offset="0.982" stop-color="#6FD0C3"/>
</radialGradient>
<radialGradient id="paint12_radial" cx="0" cy="0" r="1" gradientUnits="userSpaceOnUse" gradientTransform="translate(118.33 552.594) rotate(-4.2207) scale(58.9028)">
<stop offset="0.2334" stop-color="#9FE0D7"/>
<stop offset="0.8296" stop-color="#60A69B"/>
</radialGradient>
<radialGradient id="paint13_radial" cx="0" cy="0" r="1" gradientUnits="userSpaceOnUse" gradientTransform="translate(207.907 573.72) rotate(-4.22075) scale(57.0884)">
<stop offset="0.2334" stop-color="#9FE0D7"/>
<stop offset="0.8296" stop-color="#60A69B"/>
</radialGradient>
<radialGradient id="paint14_radial" cx="0" cy="0" r="1" gradientUnits="userSpaceOnUse" gradientTransform="translate(144.744 587.55) rotate(-4.22075) scale(71.5537)">
<stop offset="0.2334" stop-color="#9FE0D7"/>
<stop offset="0.8296" stop-color="#60A69B"/>
</radialGradient>
<linearGradient id="paint15_linear" x1="133.41" y1="292.439" x2="50.992" y2="276.973" gradientUnits="userSpaceOnUse">
<stop stop-color="#522CD5"/>
<stop offset="0.4397" stop-color="#8A6FE8"/>
</linearGradient>
<radialGradient id="paint16_radial" cx="0" cy="0" r="1" gradientUnits="userSpaceOnUse" gradientTransform="translate(77.2941 292.581) rotate(129.657) scale(25.1916)">
<stop offset="0.034" stop-color="#522CD5"/>
<stop offset="0.9955" stop-color="#8A6FE8"/>
</radialGradient>
</defs>
</svg>
