<svg width="382" height="366" viewBox="0 0 382 366" fill="none" xmlns="http://www.w3.org/2000/svg">
<path d="M225.242 1.93783C357.322 16.5778 401.472 63.4278 367.572 146.778C347.482 196.178 423.662 244.728 345.802 323.428C295.232 374.538 134.442 385.758 60.312 316.728C-5.99804 254.988 -22.008 123.548 34.362 55.5178C73.712 8.01783 157.472 -5.57217 225.242 1.93783Z" fill="#6FD0C3"/>
<path d="M144.322 149.988C137.272 149.988 134.662 140.018 133.802 136.718C133.322 134.898 132.602 132.508 132.592 132.478L141.232 129.848C141.262 129.948 142.022 132.438 142.542 134.428C143.262 137.188 143.962 138.878 144.482 139.878C145.942 137.548 148.722 131.228 152.012 114.538L160.872 116.278C158.772 126.978 156.542 135.108 154.252 140.448C152.532 144.458 149.662 149.818 144.562 149.968C144.472 149.988 144.392 149.988 144.322 149.988Z" fill="url(#paint0_linear)"/>
<path d="M141.372 130.328L134.422 132.168C133.062 130.128 135.552 120.208 110.582 108.908L103.552 100.558L133.002 92.7778C133.262 92.7078 134.292 93.3178 134.492 94.3978L141.372 130.328Z" fill="#522CD5"/>
<path d="M104.062 111.148C102.562 110.648 101.832 109.598 101.542 108.118L100.572 102.898C100.412 102.088 100.942 101.248 101.742 101.038L107.422 99.5378C108.322 99.2978 109.202 99.8478 109.372 100.768L110.472 105.418C110.802 107.128 111.232 108.148 113.232 108.838C125.042 112.938 135.382 120.018 138.472 131.098L132.532 132.668C130.592 127.088 123.842 117.778 104.062 111.148Z" fill="url(#paint1_linear)"/>
<path d="M101.752 101.038C100.952 101.248 100.432 102.088 100.582 102.898L101.552 108.118C101.712 108.938 102.012 109.628 102.502 110.158L111.482 107.778C110.922 107.178 110.682 106.418 110.482 105.408L109.382 100.758C109.202 99.8378 108.332 99.2878 107.432 99.5278L101.752 101.038Z" fill="url(#paint2_radial)"/>
<path d="M119.902 132.818C118.752 132.818 117.682 132.548 116.652 132.008C113.112 130.158 105.172 123.318 103.612 121.968L109.532 115.148C112.742 117.938 117.862 122.128 120.212 123.628C121.122 123.268 123.592 121.938 128.872 116.958C133.502 112.598 138.772 106.878 143.342 101.868L150.012 107.948C134.722 124.718 126.192 132.818 119.902 132.818Z" fill="url(#paint3_linear)"/>
<path d="M345.802 323.428C380.262 288.598 384.542 259.668 380.352 233.968C304.122 217.348 223.802 222.208 195.132 224.718C135.652 229.928 99.5821 219.868 124.162 213.758C136.992 210.568 119.512 207.838 97.7521 209.658C63.0621 212.558 31.6521 217.998 7.68213 223.248C17.1321 259.608 35.0721 293.218 60.3121 316.728C134.442 385.748 295.232 374.528 345.802 323.428Z" fill="#8FDAD0"/>
<path d="M345.802 323.428C365.062 303.958 374.892 286.338 379.082 270.088C340.212 264.288 279.852 255.648 261.562 253.478C195.762 245.668 91.2019 240.868 13.2119 241.478C23.4219 270.728 39.3519 297.218 60.3119 316.738C134.442 385.748 295.232 374.528 345.802 323.428Z" fill="url(#paint4_linear)"/>
<path d="M345.802 323.428C362.792 306.248 372.452 290.508 377.372 275.888C344.022 271.388 288.372 264.298 273.202 262.498C201.072 253.948 92.562 251.108 17.272 252.208C27.452 277.178 41.952 299.638 60.322 316.738C134.442 385.748 295.232 374.528 345.802 323.428Z" fill="#57AA9A"/>
<path d="M137.522 244.078C218.452 247.988 258.102 253.198 261.802 253.748C257.672 252.798 249.932 250.508 248.692 246.238C245.642 235.768 247.432 224.038 247.432 224.038L240.482 226.028C240.482 226.028 240.062 246.028 229.942 244.828C223.332 244.038 223.502 229.848 223.502 229.848C223.502 229.848 220.352 249.168 209.222 244.338C205.062 241.628 204.812 233.208 204.812 233.208L198.352 232.078C198.352 232.078 193.722 240.018 190.742 238.028C187.772 236.038 188.522 219.568 188.522 219.568C188.522 219.568 185.452 237.238 178.252 231.228C175.942 229.308 174.162 213.928 174.162 213.928C174.162 213.928 171.682 237.398 162.442 235.508C157.612 234.878 155.912 228.468 155.912 228.468L148.302 223.838C148.312 223.848 146.952 238.588 137.522 244.078Z" fill="#52A898"/>
<path d="M194.822 268.698C227.832 270.228 294.392 283.478 318.842 291.208C343.292 298.948 341.012 303.348 310.222 297.718C288.782 293.798 206.962 278.718 189.372 276.088C171.782 273.458 160.692 267.108 194.822 268.698Z" fill="#45897C"/>
<path d="M262.352 11.7278C262.352 11.7278 260.122 13.0178 258.612 15.4678C257.932 13.5478 254.872 11.7278 254.872 11.7278C254.872 11.7278 257.482 10.4378 258.612 7.98782C259.902 10.3678 262.352 11.7278 262.352 11.7278Z" fill="#BBE5E0"/>
<path d="M122.592 195.528C124.472 195.528 126.002 193.998 126.002 192.118C126.002 190.238 124.472 188.708 122.592 188.708C120.712 188.708 119.182 190.238 119.182 192.118C119.182 193.998 120.712 195.528 122.592 195.528Z" fill="#BBE5E0"/>
<path d="M344.792 113.428C347.352 113.428 349.432 111.348 349.432 108.788C349.432 106.228 347.352 104.148 344.792 104.148C342.232 104.148 340.152 106.228 340.152 108.788C340.142 111.358 342.222 113.428 344.792 113.428Z" fill="#BBE5E0"/>
<path d="M104.172 55.7478C104.172 55.7478 101.532 57.2678 99.752 60.1678C98.942 57.8878 95.332 55.7478 95.332 55.7478C95.332 55.7478 98.412 54.2278 99.752 51.3278C101.272 54.1378 104.172 55.7478 104.172 55.7478Z" fill="#BBE5E0"/>
<path d="M70.6421 154.588C71.8121 154.508 72.6821 154.348 73.9921 154.148C74.6621 154.038 74.6621 153.068 73.9921 152.978C72.7321 152.788 71.9121 152.688 70.7021 152.658C70.4021 152.648 70.1421 152.418 70.1221 152.108C70.0421 150.958 69.8821 149.668 69.6921 148.398C69.5821 147.728 68.6121 147.728 68.5221 148.398C68.3321 149.658 68.2321 150.918 68.2021 152.118C68.1921 152.428 67.9521 152.678 67.6421 152.698C66.4821 152.758 65.4121 152.868 64.4821 152.988C63.7921 153.078 63.7921 154.068 64.4721 154.168C65.5521 154.328 66.7121 154.468 67.6921 154.568C67.9821 154.598 68.2121 154.838 68.2321 155.128C68.2921 156.318 68.4021 157.418 68.5221 158.358C68.6121 159.048 69.6021 159.048 69.7021 158.368C69.8621 157.288 70.0021 156.128 70.1021 155.138C70.1121 154.838 70.3421 154.608 70.6421 154.588Z" fill="#BBE5E0"/>
<path d="M195.382 120.768C206.302 114.868 211.942 106.848 211.942 106.848L213.872 108.918L213.962 108.938C227.322 90.9378 226.372 65.4278 210.552 48.4478C192.712 29.3178 162.742 28.2678 143.612 46.0978C124.482 63.9278 123.432 93.9078 141.262 113.038C155.332 128.128 176.962 131.968 194.862 124.158C195.552 123.748 196.572 122.778 195.382 120.768Z" fill="url(#paint5_radial)"/>
<path d="M195.382 120.768C206.172 114.938 211.802 107.048 211.942 106.858L197.102 90.8178C197.102 90.8178 195.222 88.3378 193.152 90.2678C191.082 92.1978 185.322 97.7278 178.862 103.758C177.532 104.998 177.912 106.678 178.702 107.538C178.692 107.538 193.282 121.558 195.382 120.768Z" fill="url(#paint6_radial)"/>
<path d="M199.482 114.778C197.672 114.458 188.142 113.008 188.142 113.008L195.372 120.768H195.382C197.872 119.418 200.082 117.968 202.022 116.518C201.622 115.568 200.792 115.008 199.482 114.778Z" fill="#A08BE8"/>
<path d="M194.322 124.368C194.322 124.368 197.062 123.608 195.382 120.758C195.392 120.748 181.132 105.298 181.132 105.298C180.362 104.478 179.872 102.958 180.582 102.128C180.012 102.668 179.432 103.198 178.852 103.748C177.642 104.868 177.842 106.358 178.482 107.268C178.552 107.358 178.612 107.448 178.692 107.528L180.942 109.948L194.322 124.368Z" fill="#512BD4"/>
<path d="M186.202 126.948L130.512 67.2078C129.482 70.6678 128.862 74.2378 128.642 77.8178L175.492 128.068C179.082 128.108 182.672 127.738 186.202 126.948Z" fill="#D8CFF7"/>
<path d="M172.472 127.958C178.002 128.358 183.592 127.788 188.972 126.248L182.152 118.938L172.472 127.958Z" fill="#512BD4"/>
<path d="M214.002 49.4878L207.802 42.7478L215.592 37.3378L220.042 42.1778L214.002 49.4878Z" fill="#8A6FE8"/>
<path d="M212.152 55.9578C212.432 56.2578 212.922 56.2578 213.192 55.9478C216.062 52.6478 216.052 47.6578 213.022 44.3678C209.992 41.0778 205.012 40.6578 201.492 43.2378C201.162 43.4778 201.122 43.9678 201.402 44.2678L212.152 55.9578Z" fill="url(#paint7_radial)"/>
<path d="M198.712 109.168C201.282 106.878 202.262 103.788 200.902 102.258C199.542 100.728 196.352 101.348 193.792 103.638C191.222 105.928 190.242 109.018 191.602 110.548C192.952 112.068 196.142 111.458 198.712 109.168Z" fill="#512BD4"/>
<path d="M198.642 104.128C196.732 104.048 195.112 105.528 195.032 107.438C194.972 108.748 195.652 109.918 196.702 110.548C197.382 110.188 198.072 109.728 198.712 109.148C199.972 108.028 200.842 106.708 201.252 105.478C200.642 104.708 199.712 104.178 198.642 104.128Z" fill="#8065E0"/>
<path d="M221.842 43.1378C225.492 43.1378 228.452 40.1778 228.452 36.5278C228.452 32.8778 225.492 29.9178 221.842 29.9178C218.192 29.9178 215.232 32.8778 215.232 36.5278C215.232 40.1778 218.192 43.1378 221.842 43.1378Z" fill="#D8CFF7"/>
<path d="M242.022 282.698C242.912 281.408 242.452 279.538 240.992 278.528C239.532 277.518 237.622 277.748 236.732 279.038C235.842 280.328 236.302 282.198 237.762 283.208C239.222 284.218 241.132 283.988 242.022 282.698Z" fill="#357266"/>
<path d="M194.172 275.378C195.062 274.088 194.602 272.218 193.142 271.208C191.682 270.198 189.772 270.428 188.882 271.718C187.992 273.008 188.452 274.878 189.912 275.888C191.372 276.898 193.272 276.668 194.172 275.378Z" fill="#357266"/>
<path d="M242.682 275.678L221.962 268.398C220.892 268.018 220.162 267.008 220.212 265.958L223.772 191.898C223.832 190.688 222.832 189.538 221.552 189.338L218.182 188.828C216.892 188.628 215.812 189.458 215.752 190.678L212.192 264.658C212.142 265.698 211.322 266.478 210.232 266.528L188.802 267.438C187.782 267.488 186.982 268.178 186.862 269.138C186.672 270.548 187.962 271.908 189.462 271.888L211.652 271.628C211.782 271.628 211.922 271.638 212.052 271.658L219.362 272.778C219.502 272.798 219.632 272.828 219.762 272.878L241.602 279.868C243.082 280.338 244.482 279.398 244.432 277.948C244.402 276.958 243.692 276.028 242.682 275.678Z" fill="#AFE5DE"/>
<path d="M221.372 164.358C221.372 164.358 223.102 160.968 227.352 159.788C231.602 158.608 237.112 161.838 237.112 161.838L221.372 164.358Z" fill="white"/>
<path d="M243.482 163.578L218.772 167.198L218.142 164.908L242.852 161.288L243.482 163.578Z" fill="#AFE5DE"/>
<path d="M228.582 177.428L233.372 178.158C234.232 178.288 234.952 177.738 234.992 176.928L235.152 173.578C235.192 172.768 234.532 172.008 233.672 171.878L231.532 171.548C230.892 171.448 230.342 170.998 230.132 170.398L228.562 165.838C228.312 165.098 227.522 164.588 226.752 164.678L222.632 165.118C221.592 165.228 221.102 166.308 221.652 167.228L227.332 176.598C227.602 177.038 228.072 177.348 228.582 177.428Z" fill="#357266"/>
<path d="M218.592 169.158L218.572 168.708C218.182 168.728 217.772 168.648 217.392 168.478C216.802 168.208 216.332 167.738 216.072 167.168L209.392 152.558C209.132 151.988 209.102 151.378 209.322 150.838C209.542 150.298 209.972 149.908 210.542 149.718L216.502 147.768L212.802 140.558L207.192 142.388C204.672 143.208 202.742 144.968 201.782 147.338C200.822 149.708 200.922 152.408 202.072 154.938L208.752 169.548C209.912 172.078 211.982 174.128 214.582 175.338C215.072 175.568 215.572 175.748 216.062 175.908L218.592 169.158Z" fill="#45897C"/>
<path d="M210.862 125.048L205.762 126.748C205.092 126.968 204.302 126.608 203.992 125.938L203.172 124.168C202.862 123.498 203.152 122.778 203.822 122.558L208.922 120.858C209.592 120.638 210.382 120.998 210.692 121.668L211.512 123.438C211.822 124.098 211.532 124.828 210.862 125.048Z" fill="white"/>
<path d="M224.792 151.658L216.952 154.268C216.292 154.488 215.512 154.128 215.202 153.468L203.372 127.968C203.072 127.308 203.352 126.598 204.012 126.378L211.852 123.768C212.512 123.548 213.292 123.908 213.602 124.568L225.432 150.068C225.742 150.728 225.452 151.438 224.792 151.658Z" fill="#45897C"/>
<path d="M213.542 144.588C215.282 142.078 214.382 138.458 211.552 136.488C208.712 134.528 205.012 134.968 203.272 137.478C201.532 139.988 202.432 143.608 205.272 145.578C208.102 147.538 211.802 147.098 213.542 144.588Z" fill="#357266"/>
<path d="M224.202 158.198L219.712 159.418L217.242 153.298L221.732 152.078L224.202 158.198Z" fill="#357266"/>
<path d="M233.092 155.238L229.252 157.618L225.222 152.168L229.062 149.788L233.092 155.238Z" fill="#357266"/>
<path d="M231.612 153.398L217.272 155.578C216.702 155.658 216.102 155.338 215.842 154.808L215.672 154.448C215.382 153.868 215.592 153.218 216.142 152.968L228.772 147.098C229.402 146.808 230.222 147.128 230.532 147.808L232.422 151.858C232.732 152.558 232.352 153.288 231.612 153.398Z" fill="#AFE5DE"/>
<path d="M243.182 182.448L204.212 176.488C203.112 176.318 202.182 177.078 202.132 178.178L201.832 184.418C201.782 185.518 202.622 186.548 203.722 186.718L242.692 192.678C243.792 192.848 244.722 192.088 244.772 190.988L245.072 184.748C245.122 183.648 244.282 182.618 243.182 182.448Z" fill="#52A898"/>
<path d="M249.662 195.728L190.422 186.668L190.592 183.218L249.832 192.278L249.662 195.728Z" fill="#AFE5DE"/>
<path d="M187.452 144.318L192.132 136.788C183.992 131.278 176.892 126.068 172.882 119.618C164.902 106.778 172.812 90.4078 175.262 86.0278L166.052 80.6478C160.852 93.8878 147.682 120.558 187.452 144.318Z" fill="url(#paint8_linear)"/>
<path d="M172.452 89.7778C177.252 89.7778 181.152 85.8878 181.152 81.0778C181.152 76.2778 177.262 72.3778 172.452 72.3778C167.642 72.3778 163.752 76.2678 163.752 81.0778C163.752 85.8878 167.642 89.7778 172.452 89.7778Z" fill="url(#paint9_radial)"/>
<path d="M195.012 139.968L202.652 136.318C204.682 135.328 205.402 132.908 204.252 130.888C203.112 128.878 200.542 128.048 198.512 129.028L190.682 132.768L195.012 139.968Z" fill="#8A6FE8"/>
<path d="M184.262 146.828L191.492 151.948C193.432 153.298 196.002 152.918 197.242 151.088C198.482 149.268 197.922 146.688 195.982 145.338L188.572 140.088L184.262 146.828Z" fill="#8A6FE8"/>
<path d="M192.362 144.818L201.212 145.078C203.572 145.138 205.492 143.388 205.512 141.178C205.532 138.968 203.632 137.138 201.262 137.088L192.182 136.818L192.362 144.818Z" fill="#8A6FE8"/>
<path d="M189.932 145.368L197.782 149.468C199.882 150.548 202.372 149.818 203.352 147.838C204.332 145.858 203.422 143.378 201.322 142.298L193.272 138.098L189.932 145.368Z" fill="#8A6FE8"/>
<path d="M190.242 131.748C194.992 132.388 198.582 136.778 198.262 141.548C197.952 146.318 193.852 149.658 189.112 149.028C184.362 148.388 180.772 143.998 181.092 139.228C181.402 134.448 185.502 131.108 190.242 131.748Z" fill="url(#paint10_radial)"/>
<path d="M254.342 283.628C255.812 282.958 256.402 281.088 255.652 279.448C254.912 277.808 253.112 277.008 251.642 277.678C250.172 278.348 249.582 280.218 250.332 281.858C251.072 283.498 252.872 284.288 254.342 283.628Z" fill="#357266"/>
<path d="M318.222 294.808C319.692 294.138 320.282 292.268 319.532 290.628C318.792 288.988 316.992 288.188 315.522 288.858C314.052 289.528 313.462 291.398 314.212 293.038C314.962 294.678 316.752 295.468 318.222 294.808Z" fill="#357266"/>
<path d="M301.052 291.798C302.522 291.128 303.112 289.258 302.362 287.618C301.622 285.978 299.822 285.178 298.352 285.848C296.882 286.518 296.292 288.388 297.042 290.028C297.782 291.678 299.582 292.468 301.052 291.798Z" fill="#357266"/>
<path d="M310.602 191.458L272.602 184.808L272.802 182.158L310.802 188.808L310.602 191.458Z" fill="#357266"/>
<path d="M309.892 200.948L266.332 193.328L266.532 190.678L310.102 198.298L309.892 200.948Z" fill="#357266"/>
<path d="M292.202 179.188L302.322 180.958L300.262 172.638L290.142 170.868L292.202 179.188Z" fill="#357266"/>
<path d="M286.872 176.288L305.462 179.538L305.312 181.488L286.722 178.228L286.872 176.288Z" fill="#52A898"/>
<path d="M312.432 190.218L276.052 183.848C275.652 183.778 275.352 183.348 275.382 182.898L275.832 177.008C275.862 176.548 276.222 176.238 276.622 176.308L313.002 182.678C313.402 182.748 313.702 183.178 313.672 183.628L313.222 189.518C313.182 189.978 312.832 190.288 312.432 190.218Z" fill="#45897C"/>
<path d="M307.672 189.388L271.292 183.018C270.892 182.948 270.592 182.518 270.622 182.068L271.072 176.178C271.102 175.718 271.462 175.408 271.862 175.478L308.242 181.848C308.642 181.918 308.942 182.348 308.912 182.798L308.462 188.688C308.432 189.148 308.072 189.458 307.672 189.388Z" fill="#AFE5DE"/>
<path d="M311.762 199.088L275.382 192.718C274.982 192.648 274.682 192.218 274.712 191.768L275.162 185.878C275.192 185.418 275.552 185.108 275.952 185.178L312.332 191.548C312.732 191.618 313.032 192.048 313.002 192.498L312.552 198.388C312.522 198.838 312.162 199.148 311.762 199.088Z" fill="#45897C"/>
<path d="M301.142 197.218L264.762 190.848C264.362 190.778 264.062 190.348 264.092 189.898L264.542 184.008C264.572 183.548 264.932 183.238 265.332 183.308L301.712 189.678C302.112 189.748 302.412 190.178 302.382 190.628L301.932 196.518C301.892 196.978 301.542 197.298 301.142 197.218Z" fill="#AFE5DE"/>
<path d="M290.562 195.418L276.642 192.988L277.072 187.258L290.992 189.688L290.562 195.418Z" fill="#7BC4B9"/>
<path d="M309.842 175.748L280.512 170.618C279.532 170.448 278.812 169.468 278.892 168.438L279.572 147.318C279.652 146.218 280.562 145.468 281.602 145.658L311.732 150.858C312.712 151.028 313.432 152.008 313.352 153.038L311.752 174.188C311.662 175.218 310.812 175.918 309.842 175.748Z" fill="#52A898"/>
<path d="M308.972 173.418L281.702 168.648C281.322 168.578 281.052 168.198 281.072 167.798L281.592 148.678C281.622 148.218 282.012 147.898 282.442 147.968L310.512 152.808C310.892 152.878 311.162 153.258 311.142 153.658L309.702 172.808C309.672 173.208 309.342 173.478 308.972 173.418Z" fill="white"/>
<path d="M250.002 278.348L321.262 290.818C322.482 291.028 323.552 290.088 323.652 288.698L329.822 206.808C329.922 205.428 329.022 204.138 327.812 203.918L256.512 191.708C255.292 191.498 254.032 192.548 253.932 193.928L247.982 275.458C247.882 276.838 248.782 278.138 250.002 278.348Z" fill="#45897C"/>
<path d="M250.152 278.378L303.282 287.678C304.582 287.908 305.722 286.968 305.822 285.588L311.992 203.698C312.092 202.318 311.132 201.008 309.832 200.778L254.912 191.348C253.612 191.118 252.472 192.058 252.372 193.438L247.992 275.458C247.882 276.838 248.842 278.148 250.152 278.378Z" fill="#AFE5DE"/>
<path d="M296.762 219.478L266.192 214.128C265.552 214.018 265.072 213.338 265.132 212.608L266.072 200.168C266.132 199.438 266.692 198.948 267.332 199.058L297.902 204.408C298.542 204.518 299.022 205.198 298.962 205.928L298.022 218.368C297.962 219.098 297.402 219.598 296.762 219.478Z" fill="#7BC4B9"/>
<path d="M283.042 210.408L270.192 208.158C269.832 208.098 269.562 207.708 269.592 207.298L269.892 203.248C269.922 202.838 270.242 202.558 270.602 202.618L283.452 204.868C283.812 204.928 284.082 205.318 284.052 205.728L283.752 209.778C283.732 210.188 283.412 210.468 283.042 210.408Z" fill="#AFE5DE"/>
<path d="M257.272 224.498L260.002 217.168L257.332 216.698C256.852 216.618 256.432 216.958 256.392 217.468L256.382 217.618L255.702 226.668L255.622 227.748L254.942 236.798L254.862 237.878L254.182 246.928L254.102 248.008L253.422 257.058L253.342 258.138L252.722 266.278C252.692 266.738 252.972 267.178 253.382 267.318L301.872 275.808C302.292 275.808 302.642 275.488 302.672 275.028L302.742 274.058L254.562 265.628C254.292 265.578 254.132 265.278 254.222 265.028L256.952 257.698L303.362 265.818L303.502 263.938L255.322 255.508C255.052 255.458 254.892 255.158 254.982 254.908L257.712 247.578L304.122 255.698L304.262 253.818L256.082 245.388C255.812 245.338 255.652 245.038 255.742 244.788L258.472 237.458L304.882 245.578L305.022 243.698L256.842 235.268C256.572 235.218 256.412 234.918 256.502 234.668L259.232 227.338L305.642 235.458L305.782 233.578L257.602 225.148C257.342 225.048 257.172 224.758 257.272 224.498Z" fill="#7BC4B9"/>
<path d="M314.792 233.338C314.332 233.358 313.892 233.068 313.682 232.578C313.402 231.908 313.652 231.118 314.242 230.808L332.262 221.298C332.852 220.978 333.562 221.268 333.832 221.928C334.112 222.598 333.862 223.388 333.272 223.698L315.252 233.208C315.112 233.288 314.952 233.328 314.792 233.338Z" fill="#7BC4B9"/>
<path d="M333.602 192.788L334.242 181.188L328.792 180.378L328.152 192.008C328.122 192.528 327.822 192.958 327.382 193.068C323.032 194.188 319.802 198.498 319.822 204.058C319.852 209.778 323.532 215.068 328.482 216.448C334.772 218.188 340.442 213.388 340.832 206.358C341.122 201.078 338.332 196.148 334.222 193.968C333.822 193.758 333.582 193.278 333.602 192.788Z" fill="white"/>
<path d="M334.712 183.328L328.102 182.338C327.582 182.258 327.172 181.708 327.212 181.118L327.222 181.048C327.252 180.448 327.712 180.028 328.232 180.108L334.842 181.098C335.362 181.178 335.772 181.728 335.732 182.318L335.722 182.388C335.682 182.988 335.232 183.398 334.712 183.328Z" fill="white"/>
<path d="M322.592 199.948C322.122 201.018 321.832 202.218 321.752 203.508C321.452 208.888 325.052 213.818 329.792 214.518C334.532 215.218 338.612 211.438 338.912 206.068C338.982 204.778 338.832 203.508 338.482 202.318L322.592 199.948Z" fill="#52A898"/>
<path d="M317.392 215.698L317.162 219.418L343.482 223.448L343.802 219.108L317.392 215.698Z" fill="#357266"/>
<path d="M344.732 220.538L318.142 216.578C317.442 216.478 316.912 215.748 316.962 214.958L317.152 211.518C317.202 210.728 317.792 210.168 318.492 210.268L345.082 214.228C345.782 214.328 346.312 215.058 346.272 215.848L346.082 219.288C346.032 220.088 345.432 220.648 344.732 220.538Z" fill="#45897C"/>
<path d="M341.802 220.108L316.362 216.358C315.662 216.258 315.132 215.528 315.182 214.738L315.372 211.298C315.422 210.508 316.012 209.948 316.712 210.048L342.152 213.798C342.852 213.898 343.382 214.628 343.342 215.418L343.152 218.858C343.102 219.648 342.502 220.208 341.802 220.108Z" fill="#7BC4B9"/>
<path d="M339.852 218.088C340.502 217.928 340.892 217.188 340.702 216.428C340.522 215.668 339.842 215.178 339.182 215.338C338.532 215.498 338.142 216.238 338.332 216.998C338.522 217.758 339.202 218.248 339.852 218.088Z" fill="#45897C"/>
<path d="M338.922 205.388C338.912 204.328 338.762 203.298 338.492 202.328L322.592 199.958C322.212 200.838 321.952 201.808 321.822 202.848L338.922 205.388Z" fill="#7BC4B9"/>
<path d="M300.482 167.328C300.472 167.328 300.462 167.328 300.452 167.328C300.312 167.318 300.212 167.198 300.182 167.048L299.202 160.278L296.812 164.708C296.742 164.838 296.612 164.898 296.482 164.858C296.352 164.818 296.272 164.688 296.272 164.538L296.252 156.898L294.012 161.478C293.952 161.598 293.832 161.668 293.712 161.648C293.592 161.628 293.492 161.528 293.462 161.388L292.392 155.538L290.302 165.858C290.272 166.018 290.142 166.128 290.002 166.118C289.852 166.108 289.742 165.978 289.722 165.818L289.132 158.938L287.652 161.718C287.582 161.838 287.462 161.898 287.332 161.868C287.212 161.838 287.122 161.718 287.102 161.578L286.652 157.288L284.582 164.808C284.532 164.978 284.372 165.078 284.212 165.028C284.052 164.968 283.972 164.788 284.012 164.608L286.492 155.578C286.532 155.428 286.662 155.328 286.802 155.348C286.942 155.368 287.052 155.488 287.072 155.638L287.582 160.528L289.082 157.728C289.152 157.608 289.282 157.538 289.402 157.578C289.522 157.608 289.622 157.728 289.632 157.868L290.132 163.698L292.122 153.888C292.152 153.738 292.262 153.628 292.412 153.628C292.552 153.628 292.672 153.738 292.702 153.898L293.882 160.368L296.282 155.448C296.352 155.308 296.482 155.248 296.612 155.288C296.742 155.328 296.832 155.458 296.832 155.608L296.852 163.358L299.112 159.168C299.172 159.048 299.302 158.988 299.422 159.018C299.542 159.048 299.632 159.158 299.662 159.288L300.582 165.638L303.542 156.008C303.592 155.858 303.722 155.768 303.862 155.788C304.002 155.808 304.112 155.948 304.112 156.108L304.272 161.788L306.382 158.628C306.452 158.518 306.582 158.468 306.702 158.508C306.822 158.538 306.902 158.658 306.912 158.788L307.472 164.398C307.492 164.578 307.372 164.748 307.212 164.768C307.062 164.788 306.902 164.658 306.882 164.478L306.402 159.708L304.232 162.958C304.162 163.068 304.022 163.118 303.902 163.078C303.782 163.028 303.702 162.918 303.692 162.778L303.552 157.958L300.732 167.118C300.712 167.238 300.612 167.328 300.482 167.328Z" fill="#7BC4B9"/>
<path d="M309.412 220.068L347.182 225.668C347.522 225.718 347.822 225.438 347.852 225.048L347.912 223.998C347.932 223.598 347.672 223.238 347.322 223.188L309.552 217.588C309.212 217.538 308.912 217.818 308.882 218.208L308.822 219.258C308.802 219.648 309.062 220.018 309.412 220.068Z" fill="#AFE5DE"/>
<path d="M217.032 20.9278C248.882 20.9278 292.782 23.1678 336.282 31.6678C310.992 17.1978 274.152 7.35783 225.242 1.93783C157.472 -5.57217 73.712 8.01783 34.362 55.5178C25.872 65.7678 19.042 77.4578 13.752 90.1178C73.192 86.2378 149.662 55.9778 125.252 49.5178C99.662 42.7478 123.742 20.9278 217.032 20.9278Z" fill="url(#paint11_radial)"/>
<path d="M341.702 249.178C341.702 249.178 339.942 255.978 336.222 258.958C332.502 261.938 328.592 262.678 328.592 262.678C340.172 264.418 363.612 267.488 374.922 269.558C368.972 263.708 368.442 254.228 368.442 254.228C368.442 254.228 363.932 262.638 362.132 261.148C360.322 259.658 361.002 245.978 361.002 245.978C361.002 245.978 356.302 262.708 350.222 261.638C344.142 260.558 346.302 252.048 346.302 252.048L341.702 249.178Z" fill="#52A898"/>
<path d="M98.8419 242.538C94.7319 238.338 92.5619 222.788 92.5619 222.788C92.5619 222.788 81.5919 229.228 78.7319 219.208C77.2219 213.918 76.4419 203.978 76.4419 203.978C76.4419 203.978 76.5619 213.508 74.6419 220.068C72.7319 226.628 68.9219 230.868 65.7119 220.808C62.9219 212.068 65.1219 194.758 65.1219 194.758L54.6119 201.318C54.6119 201.318 50.0819 232.898 30.9219 241.268C49.1319 241.148 78.6019 242.018 98.8419 242.538Z" fill="#52A898"/>
<path d="M91.5022 303.238C67.6522 303.818 72.4422 308.778 82.7022 311.848C92.9622 314.918 98.5222 318.348 85.0322 319.348C71.5422 320.348 71.4622 326.438 94.1722 330.358C116.882 334.288 136.722 333.708 154.522 331.208C172.332 328.708 167.392 324.168 167.392 324.168C167.392 324.168 174.762 323.808 185.642 319.578C193.602 316.478 183.272 311.488 175.292 311.198C167.292 310.918 91.5022 303.238 91.5022 303.238Z" fill="#45897C"/>
<path d="M139.102 308.308C143.692 303.928 146.632 298.308 147.022 292.088C147.932 277.558 134.552 265.368 117.142 264.868C99.7321 264.368 84.8821 275.738 83.9721 290.268C83.6021 296.278 85.6721 301.898 89.4721 306.438C106.692 310.148 124.532 309.538 139.102 308.308Z" fill="url(#paint12_radial)"/>
<path d="M169.772 320.938C174.362 316.558 177.302 310.938 177.692 304.718C178.602 290.188 165.222 277.998 147.812 277.498C130.402 276.998 115.552 288.368 114.642 302.898C114.272 308.908 116.342 314.528 120.142 319.068C137.372 322.788 155.212 322.168 169.772 320.938Z" fill="url(#paint13_radial)"/>
<path d="M150.022 329.228C155.402 324.778 158.882 318.788 159.282 312.438C160.212 297.578 144.282 285.058 123.702 284.458C103.132 283.868 85.6921 295.418 84.7721 310.278C84.3921 316.428 86.9021 322.168 91.4221 326.848C111.822 330.718 132.822 330.428 150.022 329.228Z" fill="url(#paint14_radial)"/>
<path d="M138.072 292.908C138.282 290.248 131.972 287.588 123.972 286.968C115.972 286.348 109.332 287.998 109.132 290.658C108.922 293.318 115.232 295.978 123.232 296.598C131.222 297.218 137.862 295.558 138.072 292.908Z" fill="#599F93"/>
<path d="M122.952 296.568C124.352 296.688 125.712 296.728 127.012 296.718L129.262 259.518C129.332 258.358 127.392 258.188 127.142 259.328L119.162 295.918C119.152 295.968 119.172 296.018 119.162 296.068C120.372 296.298 121.642 296.468 122.952 296.568Z" fill="#88D3C8"/>
<path d="M142.272 250.288C141.532 254.308 136.012 257.228 129.632 256.868C123.022 256.498 118.022 252.758 118.432 248.518C118.442 248.468 118.452 248.438 118.452 248.388C116.712 249.558 115.602 251.038 115.442 252.698C115.022 256.998 121.022 260.838 128.852 261.288C136.682 261.728 143.382 258.608 143.802 254.308C143.962 252.878 143.382 251.508 142.272 250.288Z" fill="#88D3C8"/>
<path d="M136.132 262.178C135.612 264.948 131.812 266.968 127.412 266.718C122.852 266.458 119.402 263.878 119.692 260.958C119.702 260.928 119.702 260.898 119.712 260.868C118.512 261.678 117.752 262.698 117.632 263.848C117.342 266.818 121.482 269.458 126.882 269.768C132.292 270.078 136.902 267.918 137.192 264.958C137.292 263.968 136.892 263.018 136.132 262.178Z" fill="#88D3C8"/>
<path d="M135.612 250.298C135.772 248.378 133.382 246.608 130.262 246.338C127.142 246.068 124.482 247.418 124.322 249.338C124.162 251.258 126.552 253.038 129.672 253.298C132.792 253.568 135.452 252.218 135.612 250.298Z" fill="#CFECE9"/>
<path d="M166.512 287.398C167.142 285.348 162.812 282.198 156.832 280.358C150.852 278.518 145.492 278.688 144.862 280.738C144.232 282.788 148.562 285.938 154.542 287.778C160.522 289.618 165.882 289.448 166.512 287.398Z" fill="#599F93"/>
<path d="M171.912 252.568L149.802 285.768C149.782 285.798 149.782 285.838 149.762 285.868C151.032 286.518 152.482 287.118 154.072 287.628C155.142 287.978 156.202 288.258 157.222 288.478C157.232 288.468 157.232 288.468 157.242 288.458L173.462 253.208C173.852 252.338 172.452 251.768 171.912 252.568Z" fill="#88D3C8"/>
<path d="M182.762 248.918C181.142 251.878 177.022 253.258 173.352 252.008C169.552 250.708 167.692 247.088 169.182 243.918C169.202 243.888 169.212 243.858 169.232 243.818C167.852 244.448 166.762 245.408 166.182 246.658C164.662 249.868 167.092 253.728 171.592 255.258C176.092 256.788 180.972 255.438 182.492 252.218C183.002 251.148 183.052 250.018 182.762 248.918Z" fill="#88D3C8"/>
<path d="M175.512 258.028C174.392 260.058 171.572 261.008 169.062 260.148C166.462 259.258 165.182 256.778 166.202 254.598C166.212 254.578 166.222 254.548 166.232 254.528C165.282 254.958 164.542 255.618 164.142 256.468C163.102 258.678 164.762 261.308 167.852 262.368C170.942 263.418 174.292 262.488 175.322 260.288C175.672 259.568 175.722 258.788 175.512 258.028Z" fill="#88D3C8"/>
<path d="M180.282 247.258C180.702 245.598 179.192 243.778 176.902 243.198C174.612 242.618 172.422 243.488 171.992 245.158C171.572 246.818 173.082 248.638 175.372 249.228C177.662 249.798 179.862 248.918 180.282 247.258Z" fill="#CFECE9"/>
<path d="M102.982 273.698C107.522 271.568 110.782 268.938 110.262 267.828C109.742 266.708 105.632 267.538 101.092 269.658C96.5523 271.788 93.2923 274.418 93.8123 275.528C94.3323 276.648 98.4323 275.828 102.982 273.698Z" fill="#599F93"/>
<path d="M103.213 273.578C104.233 273.088 105.173 272.578 106.023 272.078L85.0026 241.748C84.5926 241.158 83.5326 241.638 83.8426 242.278L99.7226 275.018C100.833 274.638 102.013 274.148 103.213 273.578Z" fill="#88D3C8"/>
<path d="M87.2624 234.348C88.5124 236.798 86.9524 239.938 83.6624 241.478C80.2524 243.078 76.2824 242.348 74.7924 239.868C74.7724 239.838 74.7624 239.818 74.7524 239.788C74.3624 240.918 74.4124 242.048 74.9924 243.018C76.5124 245.538 81.0124 246.048 85.0524 244.158C89.1024 242.268 91.1524 238.688 89.6324 236.168C89.1324 235.338 88.2924 234.728 87.2624 234.348Z" fill="#88D3C8"/>
<path d="M90.5824 242.468C91.5224 244.318 90.3524 246.678 87.8724 247.838C85.3024 249.038 82.3124 248.498 81.1824 246.618C81.1724 246.598 81.1624 246.578 81.1524 246.558C80.8624 247.408 80.9024 248.258 81.3424 248.998C82.4824 250.898 85.8824 251.278 88.9224 249.848C91.9624 248.418 93.5124 245.728 92.3724 243.828C91.9924 243.208 91.3624 242.748 90.5824 242.468Z" fill="#88D3C8"/>
<path d="M81.0825 238.708C83.3625 237.998 84.8025 236.118 84.3025 234.498C83.8025 232.878 81.5425 232.138 79.2625 232.848C76.9825 233.558 75.5425 235.438 76.0425 237.058C76.5425 238.678 78.8025 239.418 81.0825 238.708Z" fill="#CFECE9"/>
<path d="M113.162 117.908L108.572 123.448C106.282 122.578 102.542 113.058 75.652 118.368L65.082 115.658L84.542 92.2178C84.712 92.0078 85.902 91.9078 86.702 92.6678L113.162 117.908Z" fill="#522CD5"/>
<path d="M71.6519 123.978C70.1319 124.438 68.9319 124.018 67.8419 122.978L64.0219 119.288C63.4219 118.718 63.3719 117.728 63.8919 117.098L67.6419 112.578C68.2419 111.858 69.2719 111.798 69.9519 112.448L73.5519 115.588C74.8119 116.788 75.7619 117.368 77.7819 116.768C89.7819 113.248 102.302 112.998 111.252 120.218L107.332 124.948C102.512 121.538 91.6019 117.888 71.6519 123.978Z" fill="url(#paint15_linear)"/>
<path d="M63.9018 117.098C63.3718 117.738 63.4318 118.718 64.0318 119.288L67.8518 122.968C68.4618 123.548 69.1018 123.928 69.8118 124.078L75.7418 116.928C74.9318 116.768 74.2918 116.288 73.5518 115.578L69.9518 112.438C69.2718 111.788 68.2418 111.848 67.6418 112.568L63.9018 117.098Z" fill="url(#paint16_radial)"/>
<path d="M223.832 166.318C221.222 165.918 218.852 167.178 217.982 169.428L214.532 178.328C213.202 181.748 215.872 185.818 219.852 186.418L225.852 187.338C229.822 187.948 232.842 184.748 231.862 180.978L229.312 171.158C228.652 168.678 226.442 166.718 223.832 166.318Z" fill="#52A898"/>
<path d="M225.662 173.038C226.332 172.068 225.992 170.658 224.892 169.898C223.792 169.138 222.352 169.308 221.682 170.278C221.012 171.248 221.352 172.658 222.452 173.418C223.562 174.188 224.992 174.008 225.662 173.038Z" fill="#7BC4B9"/>
<path d="M89.3321 52.5778C89.3321 52.5778 86.202 54.3778 84.092 57.8178C83.142 55.1178 78.8521 52.5778 78.8521 52.5778C78.8521 52.5778 82.502 50.7778 84.092 47.3378C85.892 50.6778 89.3321 52.5778 89.3321 52.5778Z" fill="#BBE5E0"/>
<path d="M308.782 97.7378C322.667 97.7378 333.922 86.4823 333.922 72.5978C333.922 58.7134 322.667 47.4578 308.782 47.4578C294.898 47.4578 283.642 58.7134 283.642 72.5978C283.642 86.4823 294.898 97.7378 308.782 97.7378Z" fill="url(#paint17_radial)"/>
<path d="M359.552 61.4078C358.352 57.7878 347.022 58.0378 331.292 61.4278C331.672 62.1878 332.002 62.9678 332.302 63.7578C343.462 61.4878 351.182 61.2878 351.972 63.6878C353.272 67.6078 335.632 76.9678 312.592 84.6078C289.542 92.2378 269.802 95.2478 268.512 91.3278C267.712 88.9078 274.142 84.3978 284.622 79.5178C284.382 78.6878 284.192 77.8478 284.032 76.9978C268.982 83.7778 259.432 90.4878 260.652 94.1678C262.412 99.4878 285.982 96.4678 313.292 87.4178C340.602 78.3678 361.322 66.7278 359.552 61.4078Z" fill="url(#paint18_radial)"/>
<path d="M24.7318 164.528C27.2918 164.528 29.3718 162.448 29.3718 159.888C29.3718 157.328 27.2918 155.248 24.7318 155.248C22.1718 155.248 20.0918 157.328 20.0918 159.888C20.0918 162.458 22.1718 164.528 24.7318 164.528Z" fill="#BBE5E0"/>
<path d="M320.962 129.498C320.962 129.498 317.822 131.308 315.692 134.768C314.732 132.058 310.422 129.498 310.422 129.498C310.422 129.498 314.092 127.688 315.692 124.228C317.502 127.588 320.962 129.498 320.962 129.498Z" fill="#BBE5E0"/>
<defs>
<linearGradient id="paint0_linear" x1="156.629" y1="113.846" x2="137.431" y2="147.098" gradientUnits="userSpaceOnUse">
<stop stop-color="#522CD5"/>
<stop offset="0.4397" stop-color="#8A6FE8"/>
</linearGradient>
<linearGradient id="paint1_linear" x1="134.749" y1="134.763" x2="101.966" y2="100.643" gradientUnits="userSpaceOnUse">
<stop stop-color="#522CD5"/>
<stop offset="0.4397" stop-color="#8A6FE8"/>
</linearGradient>
<radialGradient id="paint2_radial" cx="0" cy="0" r="1" gradientUnits="userSpaceOnUse" gradientTransform="translate(108.967 116.457) rotate(165.173) scale(14.2149)">
<stop offset="0.034" stop-color="#522CD5"/>
<stop offset="0.9955" stop-color="#8A6FE8"/>
</radialGradient>
<linearGradient id="paint3_linear" x1="136.605" y1="97.9922" x2="116.879" y2="132.159" gradientUnits="userSpaceOnUse">
<stop stop-color="#522CD5"/>
<stop offset="0.4397" stop-color="#8A6FE8"/>
</linearGradient>
<linearGradient id="paint4_linear" x1="13.2099" y1="303.28" x2="379.083" y2="303.28" gradientUnits="userSpaceOnUse">
<stop offset="0.1536" stop-color="#6DB5AA"/>
<stop offset="0.4557" stop-color="#6FD0C3"/>
<stop offset="1" stop-color="#7BC4B9"/>
</linearGradient>
<radialGradient id="paint5_radial" cx="0" cy="0" r="1" gradientUnits="userSpaceOnUse" gradientTransform="translate(182.992 57.7668) rotate(36.6407) scale(47.3696)">
<stop offset="0.4744" stop-color="#A08BE8"/>
<stop offset="0.8618" stop-color="#8065E0"/>
</radialGradient>
<radialGradient id="paint6_radial" cx="0" cy="0" r="1" gradientUnits="userSpaceOnUse" gradientTransform="translate(190.746 93.0534) rotate(36.6407) scale(33.1112)">
<stop offset="0.2022" stop-color="#E1DFDD"/>
<stop offset="0.7337" stop-color="white"/>
</radialGradient>
<radialGradient id="paint7_radial" cx="0" cy="0" r="1" gradientUnits="userSpaceOnUse" gradientTransform="translate(208.838 47.34) rotate(36.6405) scale(6.96905)">
<stop stop-color="#8065E0"/>
<stop offset="0.8628" stop-color="#512BD4"/>
</radialGradient>
<linearGradient id="paint8_linear" x1="175.938" y1="71.7153" x2="175.938" y2="149.459" gradientUnits="userSpaceOnUse">
<stop offset="0.2495" stop-color="#967FE6"/>
<stop offset="0.5015" stop-color="#8A6FE8"/>
</linearGradient>
<radialGradient id="paint9_radial" cx="0" cy="0" r="1" gradientUnits="userSpaceOnUse" gradientTransform="translate(175.257 78.9108) rotate(46.8436) scale(12.9164)">
<stop stop-color="#8065E0"/>
<stop offset="0.8628" stop-color="#512BD4"/>
</radialGradient>
<radialGradient id="paint10_radial" cx="0" cy="0" r="1" gradientUnits="userSpaceOnUse" gradientTransform="translate(193.2 136.776) rotate(-130.016) scale(15.0967 14.0891)">
<stop stop-color="#8065E0"/>
<stop offset="0.8628" stop-color="#512BD4"/>
</radialGradient>
<radialGradient id="paint11_radial" cx="0" cy="0" r="1" gradientUnits="userSpaceOnUse" gradientTransform="translate(165.269 62.4992) scale(174.316)">
<stop offset="0.1458" stop-color="#64C0B0"/>
<stop offset="0.982" stop-color="#6FD0C3"/>
</radialGradient>
<radialGradient id="paint12_radial" cx="0" cy="0" r="1" gradientUnits="userSpaceOnUse" gradientTransform="translate(98.59 265.097) rotate(-4.2207) scale(39.4124)">
<stop offset="0.2334" stop-color="#9FE0D7"/>
<stop offset="0.8296" stop-color="#60A69B"/>
</radialGradient>
<radialGradient id="paint13_radial" cx="0" cy="0" r="1" gradientUnits="userSpaceOnUse" gradientTransform="translate(158.508 279.319) rotate(-4.22075) scale(38.1984)">
<stop offset="0.2334" stop-color="#9FE0D7"/>
<stop offset="0.8296" stop-color="#60A69B"/>
</radialGradient>
<radialGradient id="paint14_radial" cx="0" cy="0" r="1" gradientUnits="userSpaceOnUse" gradientTransform="translate(116.307 288.572) rotate(-4.22075) scale(47.8774)">
<stop offset="0.2334" stop-color="#9FE0D7"/>
<stop offset="0.8296" stop-color="#60A69B"/>
</radialGradient>
<linearGradient id="paint15_linear" x1="110.427" y1="125.345" x2="63.9193" y2="116.618" gradientUnits="userSpaceOnUse">
<stop stop-color="#522CD5"/>
<stop offset="0.4397" stop-color="#8A6FE8"/>
</linearGradient>
<radialGradient id="paint16_radial" cx="0" cy="0" r="1" gradientUnits="userSpaceOnUse" gradientTransform="translate(78.7454 125.461) rotate(129.657) scale(14.2152)">
<stop offset="0.034" stop-color="#522CD5"/>
<stop offset="0.9955" stop-color="#8A6FE8"/>
</radialGradient>
<radialGradient id="paint17_radial" cx="0" cy="0" r="1" gradientUnits="userSpaceOnUse" gradientTransform="translate(288.778 65.1316) rotate(135.701) scale(52.8859)">
<stop stop-color="#B6E3DE"/>
<stop offset="1" stop-color="#6FD0C3"/>
</radialGradient>
<radialGradient id="paint18_radial" cx="0" cy="0" r="1" gradientUnits="userSpaceOnUse" gradientTransform="translate(301.497 80.3971) scale(64.2941)">
<stop stop-color="#B6E3DE"/>
<stop offset="1" stop-color="#6FD0C3"/>
</radialGradient>
</defs>
</svg>
