<svg width="379" height="362" viewBox="0 0 379 362" fill="none" xmlns="http://www.w3.org/2000/svg">
<path d="M186.67 361.438C309.84 367.048 373.5 312.238 377.89 255.158C379.09 239.538 376.11 225.578 371.64 212.188C371.56 212.038 371.5 211.898 371.49 211.758C371.49 211.758 371.49 211.758 371.49 211.748C368.09 201.648 363.85 191.878 359.94 181.958C359.92 181.918 359.91 181.878 359.9 181.848C359.19 180.038 358.49 178.228 357.8 176.408C357.67 176.068 357.55 175.728 357.42 175.398C357.25 174.938 357.08 174.478 356.91 174.008C356.75 173.578 356.6 173.158 356.45 172.728C356.25 172.168 356.05 171.618 355.86 171.058C355.65 170.468 355.45 169.868 355.24 169.268C355.11 168.898 354.99 168.528 354.87 168.158C354.7 167.638 354.53 167.128 354.36 166.608C354.25 166.258 354.14 165.918 354.03 165.568C353.78 164.768 353.53 163.958 353.29 163.148C353.21 162.878 353.13 162.608 353.06 162.338C352.88 161.728 352.71 161.108 352.53 160.498C352.44 160.168 352.35 159.838 352.26 159.508C352.08 158.848 351.91 158.188 351.74 157.528C351.68 157.298 351.62 157.068 351.56 156.848C351.35 155.998 351.15 155.138 350.95 154.268C350.89 153.978 350.82 153.698 350.76 153.408C350.62 152.758 350.48 152.108 350.35 151.458C350.29 151.168 350.23 150.878 350.18 150.598C350.01 149.708 349.85 148.818 349.7 147.918C349.67 147.758 349.65 147.588 349.62 147.428C349.5 146.668 349.38 145.898 349.28 145.128C349.24 144.838 349.2 144.538 349.16 144.248C349.06 143.508 348.98 142.758 348.9 142.008C348.88 141.808 348.85 141.598 348.83 141.398C348.74 140.468 348.66 139.528 348.59 138.588C348.57 138.338 348.56 138.078 348.54 137.828C348.49 137.088 348.46 136.348 348.43 135.598C348.42 135.318 348.41 135.038 348.4 134.758C348.37 133.788 348.35 132.808 348.35 131.828C348.35 131.748 348.35 131.668 348.35 131.578C348.35 130.668 348.37 129.748 348.4 128.828C348.41 128.538 348.42 128.248 348.43 127.958C348.46 127.148 348.51 126.338 348.57 125.518C348.59 125.298 348.6 125.078 348.61 124.858C348.69 123.848 348.78 122.828 348.9 121.798C348.93 121.558 348.96 121.318 348.99 121.078C349.09 120.258 349.2 119.428 349.32 118.588C349.36 118.298 349.4 117.998 349.45 117.698C349.61 116.638 349.79 115.578 349.99 114.508C356.29 81.0384 346.13 55.1684 326.06 36.5584C325 35.5784 323.92 34.6184 322.81 33.6784C320.03 31.3284 317.09 29.1084 314 27.0084C313.38 26.5884 312.76 26.1784 312.13 25.7684C310.87 24.9484 309.58 24.1484 308.28 23.3684C306.32 22.1984 304.31 21.0784 302.25 19.9884C299.5 18.5484 296.67 17.1884 293.76 15.9084C292.31 15.2684 290.83 14.6484 289.34 14.0384C283.37 11.6284 277.1 9.53838 270.61 7.74838C268.99 7.29838 267.35 6.87838 265.69 6.46838C264.03 6.05838 262.37 5.67838 260.69 5.30838C258.17 4.75838 255.62 4.24838 253.05 3.77838C251.33 3.46838 249.61 3.17838 247.87 2.90838C247 2.76838 246.13 2.63838 245.26 2.51838C243.51 2.26838 241.76 2.02838 239.99 1.81838C228.51 0.418378 216.66 -0.161622 204.69 0.0383777C202.85 0.0683777 201 0.118378 199.16 0.188378C188.08 0.608378 176.94 1.69838 165.95 3.44838C164.12 3.73838 162.29 4.04838 160.46 4.37838C158.64 4.70838 156.82 5.05838 155 5.41838C150.47 6.32838 145.97 7.35838 141.52 8.50838C139.74 8.96838 137.97 9.43838 136.21 9.93838C124.77 13.1484 113.71 17.1284 103.3 21.8584C94.5598 25.8284 86.1998 31.0084 78.2998 37.1884C76.0398 38.9584 73.8198 40.7984 71.6398 42.7284C54.1798 58.1184 39.1898 78.4184 27.5098 101.128C26.7798 102.548 26.0598 103.978 25.3598 105.418C20.4298 115.478 16.1398 125.978 12.5598 136.698C12.0498 138.228 11.5498 139.768 11.0698 141.308C6.24979 156.708 2.89979 172.508 1.22979 188.088C1.05979 189.648 0.909788 191.198 0.779788 192.758C-1.76021 222.268 1.80979 250.788 12.8898 274.148C16.9598 282.728 21.6698 290.618 27.0498 297.848C34.5898 307.968 43.4598 316.778 53.7698 324.358C56.7198 326.528 59.7798 328.588 62.9698 330.558C64.5598 331.538 66.1898 332.498 67.8398 333.438C71.1498 335.308 74.5798 337.078 78.1298 338.758C104.79 351.338 138.48 358.538 180.36 361.108C182.26 361.228 184.15 361.328 186.03 361.418C186.23 361.418 186.45 361.428 186.67 361.438Z" fill="url(#paint0_linear)"/>
<path d="M278.98 48.1784C278.98 48.1784 276.46 49.6784 274.77 52.5084C273.96 50.3184 270.44 48.2984 270.44 48.2984C270.44 48.2984 273.4 46.7884 274.65 43.9684C276.15 46.6684 278.98 48.1784 278.98 48.1784Z" fill="#4ADAFA"/>
<path d="M52.8696 208.348C52.8396 208.348 50.1896 208.318 47.5896 206.988C44.1796 205.248 42.4596 202.178 42.4796 197.858C42.4796 197.538 42.2196 197.278 41.8996 197.278C41.5796 197.278 41.3196 197.538 41.3196 197.858C41.2696 208.148 31.2596 208.248 30.8396 208.248C30.5296 208.248 30.2696 208.498 30.2596 208.808C30.2496 209.118 30.4896 209.388 30.7996 209.408C30.8296 209.408 33.4896 209.598 36.0996 211.008C39.5196 212.848 41.2396 215.838 41.2296 219.898C41.2296 220.218 41.4896 220.478 41.8096 220.478C42.1296 220.478 42.3896 220.218 42.3896 219.898C42.4096 215.998 44.1596 213.068 47.5996 211.198C50.2196 209.768 52.8996 209.518 52.9196 209.508C53.2296 209.478 53.4596 209.218 53.4496 208.908C53.4396 208.598 53.1796 208.348 52.8696 208.348Z" fill="#77E3FB"/>
<path d="M31.5294 199.128C32.0485 199.128 32.4694 198.708 32.4694 198.188C32.4694 197.669 32.0485 197.248 31.5294 197.248C31.0102 197.248 30.5894 197.669 30.5894 198.188C30.5894 198.708 31.0102 199.128 31.5294 199.128Z" fill="#77E3FB"/>
<path d="M33.8892 201.518C34.4084 201.518 34.8292 201.098 34.8292 200.578C34.8292 200.059 34.4084 199.638 33.8892 199.638C33.3701 199.638 32.9492 200.059 32.9492 200.578C32.9492 201.098 33.3701 201.518 33.8892 201.518Z" fill="#77E3FB"/>
<path d="M36.2593 203.898C36.7785 203.898 37.1993 203.478 37.1993 202.958C37.1993 202.439 36.7785 202.018 36.2593 202.018C35.7402 202.018 35.3193 202.439 35.3193 202.958C35.3193 203.478 35.7402 203.898 36.2593 203.898Z" fill="#77E3FB"/>
<path d="M47.6695 215.418C48.1886 215.418 48.6095 214.998 48.6095 214.478C48.6095 213.959 48.1886 213.538 47.6695 213.538C47.1503 213.538 46.7295 213.959 46.7295 214.478C46.7295 214.998 47.1503 215.418 47.6695 215.418Z" fill="#77E3FB"/>
<path d="M50.0294 217.798C50.5485 217.798 50.9694 217.378 50.9694 216.858C50.9694 216.339 50.5485 215.918 50.0294 215.918C49.5102 215.918 49.0894 216.339 49.0894 216.858C49.0894 217.378 49.5102 217.798 50.0294 217.798Z" fill="#77E3FB"/>
<path d="M52.3897 220.188C52.9089 220.188 53.3297 219.768 53.3297 219.248C53.3297 218.729 52.9089 218.308 52.3897 218.308C51.8706 218.308 51.4497 218.729 51.4497 219.248C51.4497 219.768 51.8706 220.188 52.3897 220.188Z" fill="#77E3FB"/>
<path d="M31.4297 220.088C31.9489 220.088 32.3697 219.668 32.3697 219.148C32.3697 218.629 31.9489 218.208 31.4297 218.208C30.9106 218.208 30.4897 218.629 30.4897 219.148C30.4897 219.668 30.9106 220.088 31.4297 220.088Z" fill="#77E3FB"/>
<path d="M33.8199 217.728C34.339 217.728 34.7599 217.308 34.7599 216.788C34.7599 216.269 34.339 215.848 33.8199 215.848C33.3007 215.848 32.8799 216.269 32.8799 216.788C32.8799 217.308 33.3007 217.728 33.8199 217.728Z" fill="#77E3FB"/>
<path d="M36.1998 215.358C36.7189 215.358 37.1398 214.938 37.1398 214.418C37.1398 213.899 36.7189 213.478 36.1998 213.478C35.6806 213.478 35.2598 213.899 35.2598 214.418C35.2598 214.938 35.6806 215.358 36.1998 215.358Z" fill="#77E3FB"/>
<path d="M47.7198 203.958C48.2389 203.958 48.6598 203.538 48.6598 203.018C48.6598 202.499 48.2389 202.078 47.7198 202.078C47.2006 202.078 46.7798 202.499 46.7798 203.018C46.7798 203.538 47.2006 203.958 47.7198 203.958Z" fill="#77E3FB"/>
<path d="M50.0997 201.588C50.6188 201.588 51.0397 201.168 51.0397 200.648C51.0397 200.129 50.6188 199.708 50.0997 199.708C49.5805 199.708 49.1597 200.129 49.1597 200.648C49.1597 201.168 49.5805 201.588 50.0997 201.588Z" fill="#77E3FB"/>
<path d="M52.4898 199.228C53.009 199.228 53.4298 198.808 53.4298 198.288C53.4298 197.769 53.009 197.348 52.4898 197.348C51.9707 197.348 51.5498 197.769 51.5498 198.288C51.5498 198.808 51.9707 199.228 52.4898 199.228Z" fill="#77E3FB"/>
<path d="M222.54 307.448L218.7 311.348L218.67 307.978C218.66 307.358 218.15 306.848 217.53 306.858C216.91 306.858 216.4 307.378 216.41 307.998L216.44 311.368L212.54 307.528C212.1 307.088 211.38 307.098 210.94 307.538C210.5 307.978 210.51 308.698 210.95 309.138L214.85 312.978L211.48 313.008C210.86 313.008 210.35 313.528 210.36 314.148C210.37 314.768 210.88 315.278 211.5 315.268L214.87 315.238L211.03 319.138C210.59 319.578 210.6 320.298 211.04 320.738C211.48 321.178 212.2 321.168 212.64 320.728L216.48 316.828L216.51 320.198C216.52 320.818 217.03 321.328 217.65 321.318C218.25 321.318 218.78 320.778 218.77 320.178L218.74 316.808L222.64 320.648C223.08 321.088 223.8 321.078 224.24 320.638C224.68 320.198 224.67 319.478 224.23 319.038L220.33 315.198L223.7 315.168C224.3 315.168 224.83 314.628 224.82 314.028C224.81 313.408 224.3 312.898 223.68 312.908L220.31 312.938L224.15 309.038C224.59 308.598 224.58 307.878 224.14 307.438C223.7 306.998 222.98 306.998 222.54 307.448Z" fill="#A4ECFC"/>
<path d="M301.65 80.2884C303.4 80.1484 304.7 79.8884 306.65 79.5584C307.65 79.3884 307.63 77.9384 306.63 77.7984C304.74 77.5384 303.51 77.4084 301.7 77.3884C301.24 77.3784 300.86 77.0384 300.82 76.5784C300.68 74.8584 300.42 72.9384 300.09 71.0284C299.92 70.0284 298.47 70.0484 298.33 71.0584C298.07 72.9484 297.95 74.8284 297.93 76.6384C297.92 77.0984 297.57 77.4884 297.11 77.5184C295.37 77.6384 293.78 77.8184 292.4 78.0184C291.38 78.1684 291.39 79.6484 292.41 79.7784C294.03 79.9884 295.77 80.1884 297.24 80.3084C297.68 80.3384 298.03 80.6884 298.06 81.1284C298.18 82.9084 298.36 84.5384 298.56 85.9484C298.71 86.9684 300.19 86.9584 300.32 85.9384C300.53 84.3184 300.73 82.5784 300.85 81.1084C300.88 80.6684 301.22 80.3284 301.65 80.2884Z" fill="#4ADAFA"/>
<path d="M335.12 46.3384C293 -6.87162 180.34 -13.1616 103.28 21.8584C54.6598 43.9584 17.9198 103.428 5.00977 164.338C18.1798 148.038 35.0298 130.138 57.8498 112.898C117.21 68.0484 197.23 35.3284 226.63 30.7284C274.01 23.3284 229.59 50.7184 208.86 64.0384C188.13 77.3584 174.2 94.9484 209.79 78.1984C249.74 59.3984 305.81 48.9884 335.12 46.3384Z" fill="url(#paint1_radial)"/>
<path d="M371.48 211.758C371.48 211.758 371.48 211.748 371.48 211.758C369.6 206.168 367.46 200.698 365.27 195.238C334.12 263.238 267.93 287.798 228.44 298.818C198.71 307.118 145.75 319.728 102.5 348.158C124.53 355.038 150.32 359.268 180.33 361.108C182.23 361.228 184.12 361.328 186 361.418C186.22 361.428 186.44 361.438 186.66 361.448C309.83 367.058 373.49 312.248 377.88 255.168C379.08 239.548 376.1 225.588 371.63 212.198C371.55 212.038 371.49 211.898 371.48 211.758Z" fill="url(#paint2_linear)"/>
<path d="M270.46 74.6184C272.63 74.6184 274.39 72.8588 274.39 70.6884C274.39 68.5179 272.63 66.7584 270.46 66.7584C268.289 66.7584 266.53 68.5179 266.53 70.6884C266.53 72.8588 268.289 74.6184 270.46 74.6184Z" fill="#77E3FB"/>
<path d="M332.18 147.328C334.781 147.328 336.89 145.22 336.89 142.618C336.89 140.017 334.781 137.908 332.18 137.908C329.578 137.908 327.47 140.017 327.47 142.618C327.47 145.22 329.578 147.328 332.18 147.328Z" fill="#4ADAFA"/>
<path d="M348.74 267.638C351.777 267.638 354.24 265.176 354.24 262.138C354.24 259.101 351.777 256.638 348.74 256.638C345.702 256.638 343.24 259.101 343.24 262.138C343.24 265.176 345.702 267.638 348.74 267.638Z" fill="#A4ECFC"/>
<path d="M187 27.7384C189.17 27.7384 190.93 25.9789 190.93 23.8084C190.93 21.6379 189.17 19.8784 187 19.8784C184.829 19.8784 183.07 21.6379 183.07 23.8084C183.07 25.9789 184.829 27.7384 187 27.7384Z" fill="#77E3FB"/>
<path d="M96.5799 143.318C98.3141 143.318 99.7199 141.913 99.7199 140.178C99.7199 138.444 98.3141 137.038 96.5799 137.038C94.8458 137.038 93.4399 138.444 93.4399 140.178C93.4399 141.913 94.8458 143.318 96.5799 143.318Z" fill="#4ADAFA"/>
<path d="M224.87 272.718C226.83 272.718 228.42 271.129 228.42 269.168C228.42 267.208 226.83 265.618 224.87 265.618C222.909 265.618 221.32 267.208 221.32 269.168C221.32 271.129 222.909 272.718 224.87 272.718Z" fill="#77E3FB"/>
<path d="M130.44 289.678C133.478 289.678 135.94 287.216 135.94 284.178C135.94 281.141 133.478 278.678 130.44 278.678C127.402 278.678 124.94 281.141 124.94 284.178C124.94 287.216 127.402 289.678 130.44 289.678Z" fill="#A4ECFC"/>
<path d="M95.2898 25.8884C95.2898 26.0684 95.2798 26.2484 95.2798 26.4284C95.2798 41.2484 107.29 53.2584 122.11 53.2584C136.93 53.2584 148.94 41.2484 148.94 26.4284C148.94 19.4884 146.3 13.1584 141.98 8.39838C128.48 11.8484 115.44 16.3384 103.29 21.8584C100.58 23.0884 97.9198 24.4384 95.2898 25.8884Z" fill="url(#paint3_radial)"/>
<path d="M189.82 186.238C192.19 184.308 194.55 182.238 196.89 180.018C200.14 176.938 203.33 173.578 206.42 169.988C228.91 143.778 237.05 114.538 224.6 104.678C212.16 94.8184 183.84 108.078 161.35 134.288C158.73 137.348 156.3 140.448 154.07 143.558C152.29 146.048 150.64 148.538 149.13 151.008C148.42 152.168 148.7 153.668 149.76 154.508L189.82 186.238Z" fill="#FEDEA7"/>
<path d="M193.27 174.448C197.72 170.828 202.14 166.538 206.31 161.688C223.98 141.098 230.37 118.118 220.59 110.378C210.81 102.638 188.57 113.048 170.9 133.638C167.19 137.968 163.97 142.398 161.3 146.768C160.75 147.678 160.96 148.858 161.8 149.518L193.27 174.448Z" fill="#FABF5D"/>
<path d="M164.48 186.268C164.48 186.268 148.93 201.058 143.97 212.058C139.01 223.058 132.2 231.488 126.77 236.228C121.34 240.968 114.72 249.348 110.86 256.638C107 263.918 99.73 275.418 94.86 278.878C89.98 282.338 83.45 290.788 81.98 295.168C80.51 299.548 74.53 306.718 72.14 308.668C69.75 310.618 60.46 321.888 57.97 327.198C55.48 332.508 60.73 326.858 63.49 325.568C66.25 324.278 71.5 321.488 74.26 315.058C77.02 308.628 81.16 301.558 86.4 297.628C91.65 293.698 98.82 287.258 103.24 278.698C107.66 270.138 116.48 259.268 122.83 253.338C129.18 247.408 137.18 238.758 141.6 229.618C146.01 220.478 151.26 214.838 157.88 208.548C164.5 202.258 170.3 190.188 170.3 190.188L164.48 186.268Z" fill="url(#paint4_linear)"/>
<path d="M147.3 173.638C147.3 173.638 131.75 188.428 126.79 199.428C121.83 210.428 115.02 218.858 109.59 223.598C104.16 228.338 97.5398 236.718 93.6798 244.008C89.8198 251.288 82.5498 262.788 77.6798 266.248C72.7998 269.708 66.2698 278.158 64.7998 282.538C63.3298 286.918 57.3498 294.088 54.9598 296.038C52.5698 297.988 43.2798 309.258 40.7898 314.568C38.2998 319.878 43.5498 314.228 46.3098 312.938C49.0698 311.648 54.3198 308.858 57.0798 302.428C59.8398 295.998 63.9798 288.928 69.2198 284.998C74.4698 281.068 81.6398 274.628 86.0598 266.068C90.4698 257.498 99.2998 246.638 105.65 240.708C112 234.778 120 226.128 124.42 216.988C128.83 207.848 134.08 202.208 140.7 195.918C147.32 189.628 153.12 177.558 153.12 177.558L147.3 173.638Z" fill="url(#paint5_linear)"/>
<path d="M182.82 219.748C189.64 216.758 202.72 209.798 209.48 198.998L200.69 195.388C194.56 205.178 182.71 211.048 177.3 213.328C176.85 213.508 179.23 216.978 182.82 219.748Z" fill="url(#paint6_linear)"/>
<path d="M182.82 219.748C189.64 216.758 202.72 209.798 209.48 198.998L200.69 195.388C194.56 205.178 182.71 211.048 177.3 213.328C176.85 213.508 179.23 216.978 182.82 219.748Z" fill="url(#paint7_linear)"/>
<path d="M177.37 213.288L181.7 218.358C180.14 219.848 169.67 225.008 169.56 246.898L162.09 250.268L143.24 228.168C142.58 227.398 142.82 226.468 143.83 226.078L177.37 213.288Z" fill="#522CD5"/>
<path d="M171.46 246.628C171.49 247.908 170.76 248.458 169.37 248.978L164.46 250.898C163.7 251.188 162.68 250.948 162.18 250.368L162.08 250.258C161.52 249.598 161.76 248.798 162.62 248.468L166.53 246.808C168.12 246.198 168.99 245.648 168.97 243.938C168.86 233.838 169.87 220.908 179.87 216.208L182.86 219.718C177.98 222.408 171.04 229.778 171.46 246.628Z" fill="url(#paint8_linear)"/>
<path d="M168.75 245.198C168.4 245.978 167.65 246.388 166.54 246.818L162.63 248.478C161.77 248.808 161.53 249.608 162.09 250.258L162.19 250.368C162.69 250.948 163.71 251.188 164.47 250.898L169.38 248.978C170.17 248.678 170.74 248.368 171.08 247.918L168.75 245.198Z" fill="url(#paint9_radial)"/>
<path d="M168.92 207.418C176.19 205.798 190.36 201.478 199.07 192.178L191.14 186.938C183.24 195.368 170.49 198.848 164.74 200.038C164.26 200.148 165.93 204.008 168.92 207.418Z" fill="url(#paint10_linear)"/>
<path d="M168.92 207.418C176.19 205.798 190.36 201.478 199.07 192.178L191.14 186.938C183.24 195.368 170.49 198.848 164.74 200.038C164.26 200.148 165.93 204.008 168.92 207.418Z" fill="url(#paint11_linear)"/>
<path d="M164.82 200.028L168.09 205.828C166.28 206.988 155.63 204.998 149.07 226.018L141.94 231.988L128.09 207.398C127.97 207.178 128.39 206.318 129.45 206.128L164.82 200.028Z" fill="#522CD5"/>
<path d="M152.66 231.468C152.44 232.728 151.52 233.348 150.07 233.608L144.92 234.468C144.12 234.608 143.16 234.178 142.79 233.508L140.12 228.768C139.69 228.018 140.08 227.278 140.99 227.118L145.52 226.148C147.2 225.858 148.16 225.478 148.47 223.798C150.3 213.868 155.47 205.138 166.19 202.448L168.99 207.408C163.66 209.098 155.49 214.838 152.66 231.468Z" fill="url(#paint12_linear)"/>
<path d="M142.79 233.498C143.17 234.168 144.13 234.598 144.92 234.458L150.07 233.598C150.88 233.458 151.52 233.198 151.97 232.778L147.74 225.278C147.24 225.758 146.51 225.968 145.52 226.138L140.99 227.108C140.08 227.268 139.69 227.998 140.12 228.758L142.79 233.498Z" fill="url(#paint13_radial)"/>
<path d="M275.22 207.408L273.2 199.498C264.91 201.608 257.6 201.438 251.47 198.978C246.07 196.818 241.44 192.828 237.7 187.128L230.88 191.608C237.84 202.198 251.17 213.538 275.22 207.408Z" fill="#8A6FE8"/>
<path d="M170.14 192.528L163.12 187.068C162.56 186.628 162.55 185.838 163.09 185.438L169.14 181.018C169.53 180.728 170.1 180.748 170.5 181.068L174.69 184.328C175.09 184.638 175.23 185.168 175.02 185.598L171.79 192.218C171.51 192.808 170.7 192.968 170.14 192.528Z" fill="#D59235"/>
<path d="M175.13 186.068L168.51 180.918C167.77 180.338 167.63 179.328 168.2 178.658L183.09 160.948C183.66 160.278 184.72 160.188 185.46 160.768L192.08 165.918C192.82 166.498 192.96 167.508 192.39 168.178L177.5 185.888C176.93 186.568 175.87 186.648 175.13 186.068Z" fill="white"/>
<path d="M152.83 179.188L145.81 173.728C145.25 173.288 145.24 172.498 145.78 172.098L151.83 167.678C152.22 167.388 152.79 167.408 153.19 167.728L157.38 170.988C157.78 171.298 157.92 171.828 157.71 172.258L154.48 178.878C154.2 179.468 153.39 179.628 152.83 179.188Z" fill="#D59235"/>
<path d="M157.82 172.728L151.2 167.578C150.46 166.998 150.32 165.988 150.89 165.318L165.78 147.608C166.35 146.938 167.41 146.848 168.15 147.428L174.77 152.578C175.51 153.158 175.65 154.168 175.08 154.838L160.19 172.548C159.62 173.228 158.56 173.308 157.82 172.728Z" fill="white"/>
<path d="M174.77 152.578L172.63 150.918L158 168.328C157.43 168.998 156.37 169.088 155.63 168.508L151.15 165.028L150.89 165.328C150.32 165.998 150.46 167.018 151.2 167.588L157.82 172.738C158.56 173.318 159.62 173.238 160.19 172.558L175.08 154.848C175.65 154.168 175.51 153.148 174.77 152.578Z" fill="#FDD696"/>
<path d="M192.08 165.918L189.94 164.258L175.31 181.668C174.74 182.338 173.68 182.428 172.94 181.848L169.77 179.378L168.46 178.358L168.2 178.658C167.63 179.328 167.77 180.348 168.51 180.918L175.13 186.068C175.87 186.648 176.93 186.568 177.5 185.888L192.39 168.178C192.96 167.508 192.82 166.488 192.08 165.918Z" fill="#FDD696"/>
<path d="M189.82 186.238C192.6 183.978 195.38 181.508 198.11 178.848C200.94 176.098 157.15 139.368 155.25 141.928C153.01 144.948 150.97 147.988 149.13 150.998C148.42 152.158 148.7 153.658 149.76 154.498L189.82 186.238Z" fill="#E29E3B"/>
<path d="M276.76 204.548L280.81 197.358C281.88 195.438 281.18 193.008 279.26 191.948C277.34 190.878 274.91 191.578 273.84 193.498L269.69 200.878L276.76 204.548Z" fill="#8A6FE8"/>
<path d="M274.07 214.448C278.676 214.448 282.41 210.714 282.41 206.108C282.41 201.502 278.676 197.768 274.07 197.768C269.464 197.768 265.73 201.502 265.73 206.108C265.73 210.714 269.464 214.448 274.07 214.448Z" fill="url(#paint14_radial)"/>
<path d="M255.79 223.458L227.09 199.558L229.99 196.078L258.69 219.978C259.4 220.568 260.47 220.478 261.06 219.758L269.44 209.688L272.92 212.588L264.54 222.658C262.35 225.298 258.43 225.658 255.79 223.458Z" fill="#D2F6FE"/>
<path d="M267.92 215.248L267.61 214.988C265.71 213.408 265.45 210.578 267.03 208.678L276.88 196.848C278.46 194.948 281.29 194.688 283.19 196.268L283.5 196.528C285.4 198.108 285.66 200.938 284.08 202.838L274.23 214.668C272.64 216.578 269.82 216.828 267.92 215.248Z" fill="#FEDEA7"/>
<path d="M271.54 215.088L268.64 212.588C267.05 211.218 266.88 208.828 268.24 207.238L268.46 206.978C269.83 205.388 272.22 205.218 273.81 206.578L276.71 209.078C278.3 210.448 278.47 212.838 277.11 214.428L276.89 214.688C275.52 216.278 273.12 216.458 271.54 215.088Z" fill="#8A6FE8"/>
<path d="M276.86 212.978L273.96 210.478C272.37 209.108 272.2 206.718 273.56 205.128L273.78 204.868C275.15 203.278 277.54 203.108 279.13 204.468L282.03 206.968C283.62 208.338 283.79 210.728 282.43 212.318L282.21 212.578C280.83 214.168 278.44 214.348 276.86 212.978Z" fill="#8A6FE8"/>
<path d="M282.03 210.838L279.13 208.338C277.54 206.968 277.37 204.578 278.73 202.988L278.95 202.728C280.32 201.138 282.71 200.968 284.3 202.328L287.2 204.828C288.79 206.198 288.96 208.588 287.6 210.178L287.38 210.438C286.01 212.028 283.62 212.208 282.03 210.838Z" fill="#8A6FE8"/>
<path d="M242.34 195.108C251.78 188.368 256.07 180.278 256.07 180.278L258.1 181.968H258.18C268.48 163.728 264.63 140.188 247.98 126.288C229.22 110.628 201.32 113.138 185.65 131.898C169.98 150.658 172.5 178.558 191.26 194.228C206.06 206.588 226.56 207.628 242.24 198.308C242.84 197.848 243.67 196.828 242.34 195.108Z" fill="url(#paint15_radial)"/>
<path d="M242.42 195.178C251.74 188.518 256.05 180.548 256.15 180.358L220.91 150.938C220.91 150.938 218.88 148.858 217.18 150.888C215.49 152.918 210.79 158.718 205.49 165.048C204.4 166.348 204.94 167.868 205.78 168.568C205.79 168.568 240.28 195.858 242.42 195.178Z" fill="url(#paint16_radial)"/>
<path d="M221.87 178.008C221.87 178.008 230.87 178.248 232.59 178.328C234.31 178.418 235.27 179.148 235.54 180.798C235.81 182.448 237.69 191.218 237.69 191.218L221.87 178.008Z" fill="#A08BE8"/>
<path d="M241.86 198.648C241.86 198.648 244.31 197.628 242.42 195.178C242.43 195.168 207.8 166.218 207.8 166.218C206.99 165.548 206.36 164.198 206.92 163.338C206.45 163.898 205.98 164.468 205.5 165.038C204.51 166.218 204.87 167.578 205.57 168.348C205.64 168.428 205.71 168.498 205.79 168.568L208.16 170.548L241.86 198.648Z" fill="#512BD4"/>
<path d="M234.57 201.928L176 153.018C175.45 156.348 175.29 159.718 175.5 163.068L224.77 204.208C228.1 203.828 231.39 203.068 234.57 201.928Z" fill="#D0C5F3"/>
<path d="M245.96 120.688L252.65 126.018L257.18 118.398L252.37 114.578L245.96 120.688Z" fill="#8A6FE8"/>
<path d="M257.23 119.278C260.593 119.278 263.32 116.552 263.32 113.188C263.32 109.825 260.593 107.098 257.23 107.098C253.866 107.098 251.14 109.825 251.14 113.188C251.14 116.552 253.866 119.278 257.23 119.278Z" fill="#D8CFF7"/>
<path d="M240.06 122.858C239.76 122.618 239.72 122.168 240 121.888C242.88 118.998 247.54 118.668 250.81 121.268C254.08 123.868 254.81 128.488 252.63 131.938C252.42 132.268 251.98 132.338 251.67 132.098L240.06 122.858Z" fill="url(#paint17_radial)"/>
<path d="M225.383 167.755C227.406 165.257 227.842 162.257 226.357 161.054C224.872 159.851 222.028 160.901 220.005 163.399C217.982 165.897 217.546 168.897 219.031 170.1C220.516 171.302 223.36 170.252 225.383 167.755Z" fill="#512BD4"/>
<path d="M246.739 185.669C248.836 183.232 249.361 180.247 247.913 179C246.464 177.754 243.59 178.718 241.494 181.155C239.397 183.591 238.871 186.577 240.32 187.823C241.768 189.07 244.642 188.105 246.739 185.669Z" fill="#512BD4"/>
<path d="M224.54 163.328C225.54 163.238 226.47 163.608 227.12 164.268C226.89 165.398 226.3 166.628 225.38 167.768C224.81 168.478 224.17 169.058 223.52 169.518C222.48 169.058 221.72 168.058 221.61 166.848C221.45 165.058 222.76 163.488 224.54 163.328Z" fill="#8065E0"/>
<path d="M246.05 181.038C247.05 180.948 247.98 181.318 248.63 181.978C248.41 183.168 247.76 184.488 246.73 185.688C246.2 186.298 245.63 186.818 245.04 187.228C243.99 186.768 243.22 185.768 243.11 184.548C242.95 182.768 244.27 181.198 246.05 181.038Z" fill="#8065E0"/>
<path d="M222.8 207.318L150.67 146.728C149.24 145.528 149.05 143.388 150.26 141.958L155.67 135.518C156.87 134.088 159 133.908 160.43 135.108L237.97 200.208C240.03 201.938 239.36 203.928 236.77 204.688L225.92 207.968C224.85 208.288 223.67 208.048 222.8 207.318Z" fill="#FABF5D"/>
<path d="M237.98 200.208L160.44 135.108C159.01 133.908 156.88 134.088 155.68 135.518L155 136.328C156.1 135.928 157.37 136.108 158.33 136.918L235.87 202.018C236.9 202.888 237.25 203.808 237.01 204.618C239.41 203.808 239.98 201.898 237.98 200.208Z" fill="#FEDEA7"/>
<path d="M227.253 192.818L216.292 183.666L208.197 193.36L219.158 202.512L227.253 192.818Z" fill="#512BD4"/>
<path d="M212.77 191.308C212.69 191.238 212.64 191.148 212.63 191.048C212.62 190.938 212.65 190.848 212.71 190.778C212.78 190.698 212.86 190.658 212.97 190.648C213.08 190.638 213.17 190.668 213.25 190.738C213.33 190.808 213.38 190.898 213.39 190.998C213.4 191.108 213.38 191.198 213.31 191.278C213.24 191.358 213.16 191.398 213.05 191.408C212.95 191.408 212.85 191.378 212.77 191.308Z" fill="white"/>
<path d="M216.12 194.028L215.58 193.578L216.03 190.158C216.04 190.068 216.06 189.988 216.09 189.908L216.08 189.898C216.04 189.968 215.93 190.118 215.75 190.328L214.08 192.328L213.6 191.928L216.14 188.888L216.71 189.368L216.26 192.698C216.24 192.838 216.23 192.928 216.22 192.978L216.23 192.988C216.28 192.898 216.39 192.758 216.55 192.558L218.19 190.598L218.66 190.998L216.12 194.028Z" fill="white"/>
<path d="M218.44 195.958L216.77 194.568L219.31 191.528L220.91 192.868L220.55 193.298L219.44 192.368L218.72 193.228L219.74 194.078L219.38 194.508L218.36 193.658L217.61 194.558L218.78 195.538L218.44 195.958Z" fill="white"/>
<path d="M222.99 195.328L222.14 194.618L219.96 197.238L219.47 196.828L221.65 194.208L220.8 193.498L221.16 193.068L223.36 194.898L222.99 195.328Z" fill="white"/>
<path d="M154.06 118.848L155.2 126.928C163.67 125.728 170.91 126.698 176.74 129.808C181.87 132.548 186.04 137.008 189.14 143.088L196.41 139.378C190.66 128.088 178.64 115.368 154.06 118.848Z" fill="url(#paint18_linear)"/>
<path d="M150.449 125.428L145.209 131.028C143.819 132.528 143.919 134.868 145.419 136.258C146.919 137.648 149.259 137.548 150.649 136.048L156.019 130.308L150.449 125.428Z" fill="#8A6FE8"/>
<path d="M151.41 117.838L143.76 117.308C141.72 117.178 139.97 118.738 139.84 120.768C139.71 122.808 141.27 124.558 143.3 124.688L151.14 125.228L151.41 117.838Z" fill="#8A6FE8"/>
<path d="M151.04 123.158L143.38 122.828C141.34 122.758 139.62 124.348 139.55 126.388C139.48 128.428 141.07 130.148 143.11 130.218L150.97 130.558L151.04 123.158Z" fill="#8A6FE8"/>
<path d="M154.349 115.238L146.949 113.228C144.969 112.708 142.949 113.888 142.429 115.858C141.909 117.838 143.089 119.858 145.059 120.378L152.649 122.438L154.349 115.238Z" fill="#8A6FE8"/>
<path d="M154.639 130.628C158.914 130.628 162.379 127.163 162.379 122.888C162.379 118.614 158.914 115.148 154.639 115.148C150.365 115.148 146.899 118.614 146.899 122.888C146.899 127.163 150.365 130.628 154.639 130.628Z" fill="url(#paint19_radial)"/>
<path d="M194.51 150.678C199 150.678 202.64 147.038 202.64 142.548C202.64 138.058 199 134.418 194.51 134.418C190.02 134.418 186.38 138.058 186.38 142.548C186.38 147.038 190.02 150.678 194.51 150.678Z" fill="url(#paint20_radial)"/>
<path d="M82.2298 84.5984C82.2298 84.5984 77.7798 87.1484 74.7598 92.0384C73.4098 88.1984 67.3198 84.5684 67.3198 84.5684C67.3198 84.5684 72.5198 82.0184 74.7898 77.1284C77.3398 81.8784 82.2298 84.5984 82.2298 84.5984Z" fill="#77E3FB"/>
<path d="M313.19 334.128C313.19 314.218 297.05 298.088 277.15 298.088C257.24 298.088 241.11 314.228 241.11 334.128C241.11 343.508 244.7 352.048 250.57 358.468C274.74 354.788 295.47 348.258 312.77 339.678C313.04 337.868 313.19 336.018 313.19 334.128Z" fill="url(#paint21_radial)"/>
<path d="M213.33 326.518C216.367 326.518 218.83 324.056 218.83 321.018C218.83 317.981 216.367 315.518 213.33 315.518C210.292 315.518 207.83 317.981 207.83 321.018C207.83 324.056 210.292 326.518 213.33 326.518Z" fill="#A4ECFC"/>
<defs>
<linearGradient id="paint0_linear" x1="189.061" y1="361.835" x2="189.061" y2="-0.00161754" gradientUnits="userSpaceOnUse">
<stop offset="0.2393" stop-color="#33D5F9"/>
<stop offset="0.6349" stop-color="#24BADB"/>
</linearGradient>
<radialGradient id="paint1_radial" cx="0" cy="0" r="1" gradientUnits="userSpaceOnUse" gradientTransform="translate(174.135 51.513) scale(241.454)">
<stop offset="0.1068" stop-color="#33D4F8"/>
<stop offset="0.7354" stop-color="#27BEE0"/>
</radialGradient>
<linearGradient id="paint2_linear" x1="155.667" y1="401.311" x2="363.51" y2="193.468" gradientUnits="userSpaceOnUse">
<stop stop-color="#33D5F9"/>
<stop offset="0.412" stop-color="#77E3FB"/>
</linearGradient>
<radialGradient id="paint3_radial" cx="0" cy="0" r="1" gradientUnits="userSpaceOnUse" gradientTransform="translate(98.9535 -2.49312) scale(63.3132)">
<stop offset="0.3813" stop-color="#77E3FB"/>
<stop offset="0.979" stop-color="#2CC7EA"/>
</radialGradient>
<linearGradient id="paint4_linear" x1="113.821" y1="337.953" x2="137.475" y2="182.149" gradientUnits="userSpaceOnUse">
<stop stop-color="white" stop-opacity="0"/>
<stop offset="0.9936" stop-color="#60DEFA"/>
</linearGradient>
<linearGradient id="paint5_linear" x1="96.6385" y1="325.321" x2="120.293" y2="169.517" gradientUnits="userSpaceOnUse">
<stop stop-color="white" stop-opacity="0"/>
<stop offset="0.9936" stop-color="#60DEFA"/>
</linearGradient>
<linearGradient id="paint6_linear" x1="207.4" y1="197.386" x2="186.944" y2="223.075" gradientUnits="userSpaceOnUse">
<stop stop-color="#522CD5"/>
<stop offset="0.4397" stop-color="#8A6FE8"/>
</linearGradient>
<linearGradient id="paint7_linear" x1="207.4" y1="197.386" x2="186.944" y2="223.075" gradientUnits="userSpaceOnUse">
<stop stop-color="#522CD5"/>
<stop offset="0.4397" stop-color="#8A6FE8"/>
</linearGradient>
<linearGradient id="paint8_linear" x1="184.662" y1="218.337" x2="169.034" y2="253.578" gradientUnits="userSpaceOnUse">
<stop stop-color="#522CD5"/>
<stop offset="0.4397" stop-color="#8A6FE8"/>
</linearGradient>
<radialGradient id="paint9_radial" cx="0" cy="0" r="1" gradientUnits="userSpaceOnUse" gradientTransform="translate(169.003 244.141) rotate(49.4975) scale(7.43472 7.4342)">
<stop offset="0.034" stop-color="#522CD5"/>
<stop offset="1" stop-color="#8A6FE8"/>
</radialGradient>
<linearGradient id="paint10_linear" x1="197.319" y1="190.108" x2="172.305" y2="211.386" gradientUnits="userSpaceOnUse">
<stop stop-color="#522CD5"/>
<stop offset="0.4397" stop-color="#8A6FE8"/>
</linearGradient>
<linearGradient id="paint11_linear" x1="197.319" y1="190.108" x2="172.305" y2="211.386" gradientUnits="userSpaceOnUse">
<stop stop-color="#522CD5"/>
<stop offset="0.4397" stop-color="#8A6FE8"/>
</linearGradient>
<linearGradient id="paint12_linear" x1="170.546" y1="205.486" x2="148.168" y2="237.446" gradientUnits="userSpaceOnUse">
<stop stop-color="#522CD5"/>
<stop offset="0.4397" stop-color="#8A6FE8"/>
</linearGradient>
<radialGradient id="paint13_radial" cx="0" cy="0" r="1" gradientUnits="userSpaceOnUse" gradientTransform="translate(157.076 227.311) rotate(60.582) scale(13.1716 13.1709)">
<stop offset="0.034" stop-color="#522CD5"/>
<stop offset="0.9955" stop-color="#8A6FE8"/>
</radialGradient>
<radialGradient id="paint14_radial" cx="0" cy="0" r="1" gradientUnits="userSpaceOnUse" gradientTransform="translate(273.371 203.001) rotate(-6.92105) scale(12.0431)">
<stop stop-color="#8065E0"/>
<stop offset="1" stop-color="#512BD4"/>
</radialGradient>
<radialGradient id="paint15_radial" cx="0" cy="0" r="1" gradientUnits="userSpaceOnUse" gradientTransform="translate(234.417 137.7) rotate(39.8599) scale(46.8803)">
<stop offset="0.3472" stop-color="#A08BE8"/>
<stop offset="0.684" stop-color="#8065E0"/>
<stop offset="0.7596" stop-color="#8065E0"/>
</radialGradient>
<radialGradient id="paint16_radial" cx="0" cy="0" r="1" gradientUnits="userSpaceOnUse" gradientTransform="translate(224.923 159.567) rotate(-6.92105) scale(47.2285)">
<stop offset="0.0933" stop-color="#E1DFDD"/>
<stop offset="0.6573" stop-color="white"/>
</radialGradient>
<radialGradient id="paint17_radial" cx="0" cy="0" r="1" gradientUnits="userSpaceOnUse" gradientTransform="translate(246.644 122.098) rotate(-6.92105) scale(6.71401)">
<stop stop-color="#8065E0"/>
<stop offset="1" stop-color="#512BD4"/>
</radialGradient>
<linearGradient id="paint18_linear" x1="196.423" y1="130.676" x2="154.065" y2="130.676" gradientUnits="userSpaceOnUse">
<stop offset="0.2495" stop-color="#967FE6"/>
<stop offset="1" stop-color="#8A6FE8"/>
</linearGradient>
<radialGradient id="paint19_radial" cx="0" cy="0" r="1" gradientUnits="userSpaceOnUse" gradientTransform="translate(154.656 119.181) rotate(-6.92105) scale(12.2169)">
<stop stop-color="#8065E0"/>
<stop offset="1" stop-color="#512BD4"/>
</radialGradient>
<radialGradient id="paint20_radial" cx="0" cy="0" r="1" gradientUnits="userSpaceOnUse" gradientTransform="translate(196.88 141.599) rotate(4.45056) scale(8.12802)">
<stop stop-color="#8065E0"/>
<stop offset="1" stop-color="#512BD4"/>
</radialGradient>
<radialGradient id="paint21_radial" cx="0" cy="0" r="1" gradientUnits="userSpaceOnUse" gradientTransform="translate(246.043 283.432) scale(85.1423)">
<stop offset="0.3813" stop-color="#77E3FB"/>
<stop offset="0.979" stop-color="#2CC7EA"/>
</radialGradient>
</defs>
</svg>
