<svg width="567" height="738" viewBox="0 0 567 738" fill="none" xmlns="http://www.w3.org/2000/svg">
<path d="M278.418 736.004C480.408 752.724 570.128 638.174 566.138 453.894C563.098 313.904 522.368 271.454 540.588 157.614C563.848 12.2739 316.628 -54.8461 155.478 53.4439C29.8179 137.894 -39.0721 416.314 23.4079 573.674C67.0279 683.554 174.768 727.424 278.418 736.004Z" fill="url(#paint0_linear)"/>
<path d="M425.678 182.784C425.678 182.784 421.868 185.044 419.328 189.314C418.108 186.014 412.798 182.964 412.798 182.964C412.798 182.964 417.258 180.694 419.148 176.434C421.428 180.494 425.678 182.784 425.678 182.784Z" fill="#4ADAFA"/>
<path d="M122.678 294.514C122.678 294.514 115.968 298.364 111.418 305.734C109.388 299.934 100.198 294.474 100.198 294.474C100.198 294.474 108.038 290.624 111.458 283.254C115.308 290.414 122.678 294.514 122.678 294.514Z" fill="#4ADAFA"/>
<path d="M84.728 424.314C84.688 424.314 80.678 424.264 76.768 422.264C71.628 419.644 69.038 415.014 69.068 408.504C69.068 408.024 68.678 407.624 68.198 407.624C67.718 407.624 67.318 408.014 67.318 408.494C67.248 424.014 52.148 424.154 51.508 424.154C51.038 424.154 50.648 424.524 50.628 425.004C50.608 425.474 50.978 425.874 51.448 425.904C51.488 425.904 55.508 426.194 59.438 428.314C64.598 431.094 67.198 435.604 67.168 441.714C67.168 442.194 67.558 442.594 68.038 442.594C68.518 442.594 68.918 442.204 68.918 441.724C68.948 435.844 71.588 431.424 76.778 428.604C80.738 426.454 84.768 426.064 84.808 426.064C85.278 426.024 85.628 425.624 85.608 425.154C85.578 424.684 85.188 424.314 84.728 424.314Z" fill="#77E3FB"/>
<path d="M52.5379 410.414C53.3222 410.414 53.9579 409.778 53.9579 408.994C53.9579 408.21 53.3222 407.574 52.5379 407.574C51.7537 407.574 51.1179 408.21 51.1179 408.994C51.1179 409.778 51.7537 410.414 52.5379 410.414Z" fill="#77E3FB"/>
<path d="M56.108 414.014C56.8922 414.014 57.528 413.378 57.528 412.594C57.528 411.81 56.8922 411.174 56.108 411.174C55.3237 411.174 54.688 411.81 54.688 412.594C54.688 413.378 55.3237 414.014 56.108 414.014Z" fill="#77E3FB"/>
<path d="M59.6678 417.614C60.452 417.614 61.0878 416.978 61.0878 416.194C61.0878 415.41 60.452 414.774 59.6678 414.774C58.8836 414.774 58.2478 415.41 58.2478 416.194C58.2478 416.978 58.8836 417.614 59.6678 417.614Z" fill="#77E3FB"/>
<path d="M76.868 434.974C77.6522 434.974 78.288 434.338 78.288 433.554C78.288 432.77 77.6522 432.134 76.868 432.134C76.0838 432.134 75.448 432.77 75.448 433.554C75.448 434.338 76.0838 434.974 76.868 434.974Z" fill="#77E3FB"/>
<path d="M80.4381 438.574C81.2223 438.574 81.8581 437.938 81.8581 437.154C81.8581 436.37 81.2223 435.734 80.4381 435.734C79.6538 435.734 79.0181 436.37 79.0181 437.154C79.0181 437.938 79.6538 438.574 80.4381 438.574Z" fill="#77E3FB"/>
<path d="M83.9981 442.164C84.7824 442.164 85.4181 441.528 85.4181 440.744C85.4181 439.96 84.7824 439.324 83.9981 439.324C83.2139 439.324 82.5781 439.96 82.5781 440.744C82.5781 441.528 83.2139 442.164 83.9981 442.164Z" fill="#77E3FB"/>
<path d="M52.398 442.024C53.1823 442.024 53.818 441.388 53.818 440.604C53.818 439.82 53.1823 439.184 52.398 439.184C51.6138 439.184 50.978 439.82 50.978 440.604C50.978 441.388 51.6138 442.024 52.398 442.024Z" fill="#77E3FB"/>
<path d="M55.9881 438.454C56.7724 438.454 57.4081 437.818 57.4081 437.034C57.4081 436.25 56.7724 435.614 55.9881 435.614C55.2039 435.614 54.5681 436.25 54.5681 437.034C54.5681 437.818 55.2039 438.454 55.9881 438.454Z" fill="#77E3FB"/>
<path d="M59.588 434.894C60.3722 434.894 61.008 434.258 61.008 433.474C61.008 432.69 60.3722 432.054 59.588 432.054C58.8037 432.054 58.168 432.69 58.168 433.474C58.168 434.258 58.8037 434.894 59.588 434.894Z" fill="#77E3FB"/>
<path d="M76.9481 417.694C77.7323 417.694 78.3681 417.058 78.3681 416.274C78.3681 415.49 77.7323 414.854 76.9481 414.854C76.1638 414.854 75.5281 415.49 75.5281 416.274C75.5281 417.058 76.1638 417.694 76.9481 417.694Z" fill="#77E3FB"/>
<path d="M80.5482 414.124C81.3324 414.124 81.9682 413.488 81.9682 412.704C81.9682 411.92 81.3324 411.284 80.5482 411.284C79.7639 411.284 79.1282 411.92 79.1282 412.704C79.1282 413.488 79.7639 414.124 80.5482 414.124Z" fill="#77E3FB"/>
<path d="M84.148 410.564C84.9323 410.564 85.568 409.928 85.568 409.144C85.568 408.36 84.9323 407.724 84.148 407.724C83.3638 407.724 82.728 408.36 82.728 409.144C82.728 409.928 83.3638 410.564 84.148 410.564Z" fill="#77E3FB"/>
<path d="M340.578 573.754L334.788 579.644L334.748 574.554C334.738 573.614 333.968 572.854 333.028 572.864C332.088 572.874 331.328 573.644 331.338 574.584L331.378 579.674L325.488 573.884C324.818 573.224 323.738 573.234 323.078 573.904C322.418 574.574 322.428 575.654 323.098 576.314L328.988 582.104L323.898 582.144C322.958 582.154 322.198 582.924 322.208 583.864C322.218 584.804 322.988 585.564 323.928 585.554L329.018 585.514L323.228 591.404C322.568 592.074 322.578 593.154 323.248 593.814C323.918 594.474 324.998 594.464 325.658 593.794L331.448 587.904L331.488 592.994C331.498 593.934 332.268 594.694 333.208 594.684C334.118 594.674 334.908 593.874 334.898 592.964L334.858 587.874L340.748 593.664C341.418 594.324 342.498 594.314 343.158 593.644C343.818 592.974 343.808 591.894 343.138 591.234L337.248 585.444L342.338 585.404C343.248 585.394 344.038 584.594 344.028 583.684C344.018 582.744 343.248 581.984 342.308 581.994L337.218 582.034L343.008 576.144C343.668 575.474 343.658 574.394 342.988 573.734C342.318 573.074 341.238 573.084 340.578 573.754Z" fill="#A4ECFC"/>
<path d="M460.378 194.474C463.018 194.264 464.978 193.874 467.908 193.374C469.408 193.114 469.388 190.924 467.868 190.724C465.008 190.334 463.168 190.144 460.438 190.104C459.748 190.094 459.168 189.574 459.118 188.884C458.898 186.284 458.508 183.394 458.018 180.524C457.758 179.024 455.578 179.054 455.368 180.564C454.978 183.414 454.798 186.244 454.758 188.974C454.748 189.674 454.208 190.254 453.518 190.304C450.898 190.484 448.488 190.754 446.408 191.054C444.868 191.274 444.888 193.514 446.428 193.714C448.868 194.034 451.488 194.334 453.708 194.514C454.368 194.564 454.898 195.094 454.938 195.754C455.118 198.434 455.398 200.904 455.698 203.024C455.918 204.564 458.158 204.544 458.358 203.004C458.678 200.564 458.978 197.934 459.158 195.724C459.208 195.044 459.728 194.524 460.378 194.474Z" fill="#4ADAFA"/>
<path d="M155.478 53.4439C80.8178 103.624 26.1978 222.254 7.26782 343.294C29.8478 311.684 60.9278 271.604 111.158 233.654C200.668 166.024 321.338 116.674 365.668 109.744C437.108 98.5839 370.138 139.884 338.878 159.974C307.618 180.064 286.618 206.584 340.278 181.334C406.918 149.974 503.308 134.084 541.918 132.414C534.598 4.88389 306.998 -48.3761 155.478 53.4439Z" fill="url(#paint1_radial)"/>
<path d="M566.138 453.894C565.628 430.184 564.028 409.284 561.818 390.354C517.878 503.724 411.708 543.364 349.488 560.724C291.508 576.904 174.928 603.954 107.218 679.434C110.288 681.584 113.398 683.664 116.558 685.674C116.688 685.754 116.818 685.834 116.948 685.924C118.338 686.804 119.738 687.674 121.138 688.534C121.428 688.714 121.718 688.884 122.008 689.064C123.278 689.834 124.558 690.594 125.838 691.344C126.168 691.534 126.488 691.724 126.818 691.914C128.118 692.664 129.418 693.404 130.728 694.124C131.008 694.284 131.288 694.434 131.568 694.594C133.048 695.414 134.538 696.214 136.038 697.004C136.138 697.054 136.228 697.104 136.328 697.154C139.638 698.894 142.988 700.574 146.368 702.194C146.458 702.234 146.538 702.274 146.628 702.314C148.168 703.044 149.708 703.764 151.258 704.474C151.578 704.614 151.888 704.764 152.208 704.904C153.548 705.514 154.888 706.104 156.238 706.694C156.618 706.864 156.998 707.024 157.388 707.194C158.708 707.764 160.028 708.324 161.358 708.874C161.728 709.024 162.088 709.184 162.458 709.334C163.888 709.924 165.328 710.494 166.768 711.064C167.018 711.164 167.258 711.264 167.508 711.354C170.968 712.704 174.458 714.004 177.978 715.244C178.068 715.274 178.168 715.304 178.258 715.344C179.858 715.904 181.468 716.454 183.078 716.994C183.458 717.124 183.848 717.244 184.238 717.374C185.568 717.814 186.908 718.254 188.248 718.674C188.718 718.824 189.188 718.974 189.658 719.114C190.938 719.514 192.218 719.904 193.498 720.294C193.978 720.444 194.468 720.584 194.948 720.724C196.278 721.114 197.608 721.504 198.938 721.884C199.348 722.004 199.768 722.124 200.178 722.234C201.798 722.684 203.428 723.134 205.058 723.564C205.168 723.594 205.288 723.624 205.398 723.654C207.208 724.134 209.028 724.594 210.848 725.054C210.978 725.084 211.118 725.114 211.248 725.154C212.858 725.554 214.468 725.944 216.078 726.314C216.558 726.424 217.038 726.534 217.528 726.644C218.798 726.934 220.078 727.224 221.348 727.504C221.928 727.634 222.498 727.754 223.078 727.874C224.278 728.134 225.478 728.384 226.678 728.634C227.278 728.754 227.878 728.884 228.478 729.004C229.688 729.244 230.898 729.484 232.108 729.714C232.678 729.824 233.248 729.934 233.818 730.044C235.168 730.294 236.528 730.544 237.888 730.784C238.298 730.854 238.718 730.934 239.128 731.004C240.918 731.314 242.708 731.614 244.498 731.904C244.668 731.934 244.838 731.954 245.008 731.984C246.598 732.234 248.188 732.484 249.778 732.714C250.348 732.794 250.928 732.874 251.498 732.964C252.698 733.134 253.888 733.304 255.088 733.464C255.748 733.554 256.408 733.644 257.068 733.724C258.188 733.874 259.308 734.014 260.428 734.154C261.118 734.234 261.798 734.324 262.488 734.404C263.598 734.534 264.718 734.664 265.828 734.784C266.498 734.854 267.158 734.934 267.828 735.004C269.028 735.134 270.238 735.254 271.438 735.374C272.008 735.434 272.568 735.484 273.138 735.544C274.898 735.714 276.658 735.864 278.408 736.014H278.418C291.038 737.054 303.228 737.594 314.978 737.624C438.378 737.984 513.918 683.474 546.848 591.474C547.628 589.284 548.388 587.074 549.128 584.844C551.338 578.144 553.328 571.254 555.098 564.184C555.688 561.824 556.258 559.454 556.798 557.054C557.888 552.264 558.878 547.384 559.778 542.434C561.578 532.524 562.998 522.304 564.038 511.794C565.888 493.374 566.568 474.054 566.138 453.894Z" fill="url(#paint2_linear)"/>
<path d="M316.838 38.3639C320.107 38.3639 322.758 35.7134 322.758 32.4439C322.758 29.1744 320.107 26.5239 316.838 26.5239C313.568 26.5239 310.918 29.1744 310.918 32.4439C310.918 35.7134 313.568 38.3639 316.838 38.3639Z" fill="#77E3FB"/>
<path d="M357.858 52.7439C359.818 52.7439 361.408 51.1545 361.408 49.1939C361.408 47.2333 359.818 45.6439 357.858 45.6439C355.897 45.6439 354.308 47.2333 354.308 49.1939C354.308 51.1545 355.897 52.7439 357.858 52.7439Z" fill="#77E3FB"/>
<path d="M505.918 332.294C509.839 332.294 513.018 329.115 513.018 325.194C513.018 321.273 509.839 318.094 505.918 318.094C501.997 318.094 498.818 321.273 498.818 325.194C498.818 329.115 501.997 332.294 505.918 332.294Z" fill="#4ADAFA"/>
<path d="M517.488 544.254C520.106 544.254 522.228 542.132 522.228 539.514C522.228 536.896 520.106 534.774 517.488 534.774C514.87 534.774 512.748 536.896 512.748 539.514C512.748 542.132 514.87 544.254 517.488 544.254Z" fill="#A4ECFC"/>
<path d="M511.068 584.924C515.646 584.924 519.358 581.212 519.358 576.634C519.358 572.055 515.646 568.344 511.068 568.344C506.489 568.344 502.778 572.055 502.778 576.634C502.778 581.212 506.489 584.924 511.068 584.924Z" fill="#A4ECFC"/>
<path d="M87.4378 197.434C90.7074 197.434 93.3578 194.783 93.3578 191.514C93.3578 188.244 90.7074 185.594 87.4378 185.594C84.1683 185.594 81.5178 188.244 81.5178 191.514C81.5178 194.783 84.1683 197.434 87.4378 197.434Z" fill="#77E3FB"/>
<path d="M276.648 167.294C279.918 167.294 282.568 164.643 282.568 161.374C282.568 158.104 279.918 155.454 276.648 155.454C273.378 155.454 270.728 158.104 270.728 161.374C270.728 164.643 273.378 167.294 276.648 167.294Z" fill="#4ADAFA"/>
<path d="M142.418 331.044C145.036 331.044 147.158 328.922 147.158 326.304C147.158 323.686 145.036 321.564 142.418 321.564C139.8 321.564 137.678 323.686 137.678 326.304C137.678 328.922 139.8 331.044 142.418 331.044Z" fill="#4ADAFA"/>
<path d="M309.858 488.844C313.127 488.844 315.778 486.193 315.778 482.924C315.778 479.654 313.127 477.004 309.858 477.004C306.588 477.004 303.938 479.654 303.938 482.924C303.938 486.193 306.588 488.844 309.858 488.844Z" fill="#77E3FB"/>
<path d="M278.878 664.454C283.456 664.454 287.168 660.742 287.168 656.164C287.168 651.585 283.456 647.874 278.878 647.874C274.299 647.874 270.588 651.585 270.588 656.164C270.588 660.742 274.299 664.454 278.878 664.454Z" fill="#A4ECFC"/>
<path d="M205.538 142.464C227.883 142.464 245.998 124.349 245.998 102.004C245.998 79.6584 227.883 61.5439 205.538 61.5439C183.192 61.5439 165.078 79.6584 165.078 102.004C165.078 124.349 183.192 142.464 205.538 142.464Z" fill="url(#paint3_radial)"/>
<path d="M164.988 104.104L165.308 106.404C145.178 115.994 136.298 123.264 137.748 128.274C139.488 134.314 170.228 127.184 211.078 113.244C251.918 99.3039 281.128 85.6139 279.098 80.3639C277.198 75.4439 288.908 70.5339 290.738 76.7039C293.678 86.5939 259.248 105.664 214.148 121.064C169.048 136.464 130.238 141.304 127.408 132.474C125.458 126.444 140.768 115.394 164.988 104.104Z" fill="url(#paint4_linear)"/>
<path d="M418.156 654.212C438.193 654.212 454.436 637.969 454.436 617.932C454.436 597.895 438.193 581.652 418.156 581.652C398.12 581.652 381.876 597.895 381.876 617.932C381.876 637.969 398.12 654.212 418.156 654.212Z" fill="url(#paint5_radial)"/>
<path d="M459.426 641.462C459.316 641.652 459.216 641.842 459.106 642.022" stroke="#92D5CD" stroke-width="4.7698" stroke-linecap="round" stroke-linejoin="round"/>
<path d="M415.246 669.792H414.566C413.246 669.772 412.196 668.692 412.216 667.372C412.236 666.052 413.266 665.012 414.636 665.022H415.246H415.776C415.786 665.022 415.796 665.022 415.796 665.022C417.106 665.022 418.166 666.072 418.176 667.382C418.186 668.702 417.126 669.772 415.816 669.792H415.246ZM427.646 668.252C426.576 668.252 425.606 667.532 425.336 666.452C425.016 665.172 425.786 663.882 427.066 663.552C427.436 663.462 427.806 663.362 428.166 663.262C429.436 662.912 430.746 663.652 431.106 664.922C431.456 666.192 430.716 667.502 429.446 667.862C429.046 667.972 428.636 668.082 428.236 668.182C428.036 668.222 427.836 668.252 427.646 668.252ZM402.756 668.222C402.556 668.222 402.366 668.202 402.166 668.142C401.756 668.042 401.356 667.932 400.956 667.812C399.686 667.452 398.956 666.132 399.316 664.862C399.676 663.592 400.996 662.862 402.256 663.222C402.626 663.322 402.986 663.422 403.356 663.522C404.636 663.852 405.396 665.152 405.076 666.422C404.786 667.502 403.816 668.222 402.756 668.222ZM439.866 663.412C439.026 663.412 438.216 662.972 437.776 662.182C437.136 661.032 437.556 659.582 438.706 658.942C439.036 658.762 439.366 658.572 439.696 658.372C440.836 657.702 442.296 658.082 442.966 659.222C443.636 660.362 443.256 661.822 442.116 662.482C441.756 662.692 441.386 662.902 441.026 663.102C440.656 663.312 440.256 663.412 439.866 663.412ZM390.556 663.322C390.156 663.322 389.756 663.222 389.386 663.012C389.026 662.812 388.656 662.602 388.306 662.382C387.176 661.712 386.796 660.252 387.466 659.112C388.136 657.982 389.596 657.602 390.736 658.272C391.066 658.462 391.396 658.652 391.726 658.842C392.876 659.492 393.286 660.942 392.636 662.092C392.206 662.882 391.396 663.322 390.556 663.322ZM450.426 655.592C449.796 655.592 449.176 655.352 448.706 654.862C447.796 653.912 447.816 652.402 448.766 651.492C449.036 651.232 449.306 650.962 449.576 650.692C450.496 649.752 452.006 649.742 452.946 650.662C453.886 651.582 453.896 653.092 452.976 654.032C452.676 654.332 452.376 654.632 452.076 654.922C451.616 655.362 451.016 655.592 450.426 655.592ZM380.026 655.462C379.426 655.462 378.826 655.242 378.366 654.792C378.066 654.502 377.766 654.202 377.476 653.902C376.556 652.962 376.566 651.452 377.506 650.532C378.446 649.612 379.956 649.622 380.876 650.562C381.146 650.832 381.406 651.102 381.686 651.372C382.626 652.292 382.656 653.802 381.736 654.742C381.266 655.222 380.646 655.462 380.026 655.462ZM371.896 645.142C371.086 645.142 370.296 644.722 369.846 643.982C369.626 643.622 369.416 643.262 369.216 642.892C368.566 641.742 368.976 640.292 370.126 639.642C371.276 638.992 372.726 639.402 373.376 640.552C373.566 640.882 373.756 641.212 373.946 641.532C374.616 642.662 374.256 644.132 373.116 644.802C372.726 645.032 372.306 645.142 371.896 645.142ZM366.696 633.072C365.656 633.072 364.706 632.392 364.406 631.342C364.286 630.942 364.186 630.532 364.076 630.122C363.746 628.842 364.516 627.542 365.796 627.222C367.076 626.892 368.366 627.662 368.696 628.942C368.786 629.312 368.886 629.672 368.996 630.032C369.356 631.302 368.626 632.622 367.356 632.982C367.126 633.042 366.906 633.072 366.696 633.072Z" fill="#A4ECFC"/>
<path d="M371.156 592.302C371.266 592.112 371.366 591.922 371.476 591.742" stroke="#92D5CD" stroke-width="4.7698" stroke-linecap="round" stroke-linejoin="round"/>
<path d="M460.996 597.732C460.106 597.732 459.246 597.222 458.836 596.362C458.666 596.002 458.496 595.652 458.316 595.302C457.726 594.122 458.206 592.692 459.376 592.102C460.546 591.512 461.986 591.992 462.576 593.162C462.766 593.552 462.956 593.942 463.146 594.332C463.706 595.522 463.196 596.942 462.006 597.502C461.686 597.662 461.336 597.732 460.996 597.732ZM453.606 586.322C452.936 586.322 452.266 586.042 451.796 585.492C451.536 585.192 451.276 584.902 451.016 584.602C450.136 583.622 450.216 582.112 451.186 581.232C452.166 580.352 453.676 580.432 454.556 581.402C454.846 581.722 455.136 582.052 455.416 582.372C456.276 583.372 456.156 584.872 455.156 585.732C454.716 586.132 454.156 586.322 453.606 586.322ZM379.626 583.462C379.016 583.462 378.406 583.232 377.936 582.762C377.006 581.832 377.006 580.322 377.936 579.392C378.246 579.082 378.556 578.782 378.866 578.482C379.816 577.572 381.326 577.612 382.236 578.572C383.146 579.522 383.106 581.032 382.146 581.942C381.856 582.212 381.576 582.492 381.296 582.762C380.846 583.232 380.236 583.462 379.626 583.462ZM443.426 577.302C442.966 577.302 442.506 577.172 442.106 576.902C441.776 576.682 441.446 576.472 441.116 576.252C440.006 575.542 439.676 574.072 440.376 572.962C441.086 571.852 442.556 571.522 443.666 572.222C444.036 572.452 444.396 572.692 444.756 572.932C445.856 573.662 446.146 575.142 445.416 576.242C444.956 576.932 444.196 577.302 443.426 577.302ZM390.476 575.252C389.646 575.252 388.836 574.812 388.396 574.032C387.746 572.882 388.156 571.432 389.306 570.782C389.686 570.572 390.066 570.362 390.446 570.162C391.616 569.542 393.056 569.982 393.676 571.152C394.296 572.312 393.856 573.762 392.686 574.382C392.336 574.572 391.986 574.762 391.646 574.952C391.266 575.152 390.866 575.252 390.476 575.252ZM431.226 571.312C430.976 571.312 430.726 571.272 430.466 571.192C430.096 571.072 429.716 570.952 429.346 570.832C428.086 570.452 427.376 569.112 427.766 567.852C428.156 566.592 429.486 565.882 430.746 566.272C431.156 566.402 431.576 566.532 431.986 566.672C433.236 567.092 433.906 568.442 433.496 569.692C433.146 570.682 432.216 571.312 431.226 571.312ZM403.106 570.232C402.036 570.232 401.066 569.512 400.796 568.422C400.476 567.142 401.256 565.852 402.536 565.532C402.956 565.432 403.376 565.332 403.796 565.232C405.076 564.952 406.356 565.752 406.646 567.042C406.936 568.332 406.126 569.602 404.836 569.892C404.446 569.982 404.066 570.072 403.686 570.162C403.486 570.212 403.296 570.232 403.106 570.232ZM417.866 568.802C417.826 568.802 417.786 568.802 417.746 568.802C417.356 568.782 416.956 568.772 416.566 568.762C415.246 568.732 414.206 567.632 414.246 566.322C414.276 565.002 415.336 563.952 416.686 564.002C417.116 564.012 417.546 564.032 417.976 564.052C419.296 564.122 420.306 565.232 420.236 566.552C420.176 567.802 419.126 568.802 417.866 568.802Z" fill="#A4ECFC"/>
<path d="M371.156 598.172C374.398 598.172 377.026 595.544 377.026 592.302C377.026 589.06 374.398 586.432 371.156 586.432C367.914 586.432 365.286 589.06 365.286 592.302C365.286 595.544 367.914 598.172 371.156 598.172Z" fill="#A4ECFC"/>
<path d="M459.426 647.332C462.668 647.332 465.296 644.704 465.296 641.462C465.296 638.22 462.668 635.592 459.426 635.592C456.184 635.592 453.556 638.22 453.556 641.462C453.556 644.704 456.184 647.332 459.426 647.332Z" fill="#A4ECFC"/>
<path d="M277.348 389.714C280.918 386.814 284.478 383.684 287.998 380.344C292.898 375.694 297.718 370.644 302.368 365.214C336.278 325.684 348.548 281.594 329.788 266.724C311.018 251.854 268.318 271.844 234.418 311.374C230.458 315.984 226.798 320.664 223.448 325.354C220.768 329.104 218.278 332.854 215.998 336.594C214.938 338.334 215.348 340.604 216.948 341.874L277.348 389.714Z" fill="#FEDEA7"/>
<path d="M282.548 371.924C289.258 366.464 295.928 359.994 302.208 352.674C328.848 321.624 338.488 286.974 323.748 275.294C309.008 263.614 275.458 279.314 248.818 310.364C243.218 316.894 238.378 323.574 234.348 330.174C233.508 331.544 233.838 333.324 235.098 334.324L282.548 371.924Z" fill="#FABF5D"/>
<path d="M239.138 389.754C239.138 389.754 215.688 412.064 208.208 428.644C200.718 445.224 190.458 457.934 182.268 465.084C174.078 472.234 164.088 484.874 158.268 495.854C152.448 506.834 141.488 524.174 134.128 529.394C126.768 534.604 116.928 547.354 114.708 553.954C112.488 560.554 103.478 571.364 99.8677 574.314C96.2577 577.264 82.2477 594.244 78.5077 602.254C74.7677 610.254 82.6777 601.744 86.8377 599.804C90.9977 597.864 98.9177 593.654 103.068 583.964C107.228 574.274 113.468 563.614 121.378 557.684C129.288 551.754 140.108 542.054 146.768 529.134C153.428 516.214 166.738 499.834 176.318 490.894C185.888 481.944 197.958 468.914 204.618 455.124C211.268 441.344 219.178 432.834 229.168 423.344C239.158 413.864 247.888 395.664 247.888 395.664L239.138 389.754Z" fill="url(#paint6_linear)"/>
<path d="M213.228 370.704C213.228 370.704 189.778 393.014 182.298 409.594C174.808 426.174 164.548 438.884 156.358 446.034C148.168 453.184 138.188 465.824 132.358 476.804C126.538 487.784 115.578 505.124 108.218 510.344C100.858 515.554 91.0178 528.304 88.7978 534.904C86.5778 541.504 77.5678 552.314 73.9578 555.264C70.3478 558.214 56.3378 575.194 52.5978 583.204C48.8578 591.214 56.7678 582.694 60.9278 580.754C65.0878 578.814 73.0078 574.604 77.1578 564.914C81.3178 555.224 87.5578 544.564 95.4678 538.634C103.378 532.704 114.198 523.004 120.858 510.084C127.518 497.164 140.828 480.784 150.408 471.844C159.978 462.894 172.048 449.864 178.708 436.074C185.358 422.294 193.268 413.784 203.258 404.294C213.248 394.814 221.978 376.614 221.978 376.614L213.228 370.704Z" fill="url(#paint7_linear)"/>
<path d="M266.788 440.234C277.068 435.724 296.798 425.224 306.988 408.944L293.738 403.494C284.498 418.254 266.628 427.104 258.468 430.544C257.788 430.834 261.388 436.064 266.788 440.234Z" fill="url(#paint8_linear)"/>
<path d="M266.788 440.234C277.068 435.724 296.798 425.224 306.988 408.944L293.738 403.494C284.498 418.254 266.628 427.104 258.468 430.544C257.788 430.834 261.388 436.064 266.788 440.234Z" fill="url(#paint9_linear)"/>
<path d="M258.578 430.504L265.098 438.144C262.748 440.384 246.958 448.174 246.788 481.184L235.528 486.264L207.108 452.944C206.108 451.774 206.478 450.374 208.008 449.794L258.578 430.504Z" fill="#522CD5"/>
<path d="M249.658 480.774C249.708 482.704 248.598 483.524 246.518 484.324L239.118 487.224C237.978 487.664 236.428 487.294 235.678 486.424L235.538 486.254C234.688 485.264 235.048 484.054 236.348 483.564L242.238 481.064C244.638 480.144 245.948 479.314 245.918 476.734C245.748 461.504 247.278 442.014 262.348 434.924L266.868 440.214C259.498 444.244 249.028 455.354 249.658 480.774Z" fill="url(#paint10_linear)"/>
<path d="M245.578 478.614C245.048 479.794 243.918 480.414 242.238 481.054L236.348 483.554C235.048 484.044 234.688 485.254 235.538 486.244L235.678 486.414C236.428 487.294 237.978 487.654 239.118 487.214L246.518 484.314C247.708 483.864 248.568 483.394 249.088 482.714L245.578 478.614Z" fill="url(#paint11_radial)"/>
<path d="M245.838 421.644C256.798 419.194 278.168 412.684 291.298 398.664L279.338 390.764C267.428 403.474 248.188 408.724 239.518 410.524C238.808 410.684 241.328 416.504 245.838 421.644Z" fill="url(#paint12_linear)"/>
<path d="M245.838 421.644C256.798 419.194 278.168 412.684 291.298 398.664L279.338 390.764C267.428 403.474 248.188 408.724 239.518 410.524C238.808 410.684 241.328 416.504 245.838 421.644Z" fill="url(#paint13_linear)"/>
<path d="M239.648 410.504L244.578 419.254C241.838 421.004 225.798 418.004 215.888 449.704L205.128 458.704L184.248 421.624C184.058 421.294 184.698 419.994 186.298 419.714L239.648 410.504Z" fill="#522CD5"/>
<path d="M221.318 457.904C220.998 459.814 219.598 460.744 217.408 461.124L209.648 462.424C208.448 462.634 206.998 461.984 206.428 460.974L202.398 453.824C201.758 452.684 202.348 451.574 203.708 451.334L210.538 449.874C213.068 449.434 214.518 448.874 214.978 446.334C217.748 431.354 225.538 418.194 241.698 414.134L245.908 421.604C237.898 424.174 225.578 432.844 221.318 457.904Z" fill="url(#paint14_linear)"/>
<path d="M206.428 460.984C206.998 461.984 208.438 462.644 209.648 462.434L217.408 461.134C218.628 460.924 219.598 460.534 220.268 459.904L213.888 448.594C213.128 449.314 212.028 449.634 210.538 449.884L203.708 451.344C202.338 451.584 201.758 452.694 202.398 453.834L206.428 460.984Z" fill="url(#paint15_radial)"/>
<path d="M406.138 421.624L403.098 409.694C390.608 412.884 379.578 412.614 370.328 408.914C362.188 405.654 355.198 399.644 349.558 391.054L339.268 397.814C349.758 413.784 369.868 430.874 406.138 421.624Z" fill="#8A6FE8"/>
<path d="M247.668 399.194L237.078 390.954C236.238 390.294 236.218 389.094 237.038 388.494L246.168 381.834C246.758 381.404 247.608 381.434 248.218 381.904L254.538 386.824C255.148 387.294 255.358 388.094 255.038 388.744L250.168 398.724C249.738 399.614 248.518 399.854 247.668 399.194Z" fill="#D59235"/>
<path d="M255.208 389.454L245.228 381.694C244.108 380.824 243.898 379.294 244.758 378.284L267.208 351.574C268.068 350.554 269.658 350.434 270.778 351.304L280.758 359.064C281.878 359.934 282.088 361.464 281.228 362.474L258.778 389.184C257.918 390.204 256.318 390.324 255.208 389.454Z" fill="white"/>
<path d="M221.568 379.084L210.978 370.844C210.138 370.184 210.118 368.984 210.938 368.384L220.068 361.724C220.658 361.294 221.508 361.324 222.118 361.794L228.438 366.714C229.048 367.184 229.258 367.984 228.938 368.634L224.068 378.614C223.638 379.504 222.408 379.734 221.568 379.084Z" fill="#D59235"/>
<path d="M229.098 369.344L219.118 361.584C217.998 360.714 217.788 359.184 218.648 358.174L241.098 331.464C241.958 330.444 243.548 330.324 244.668 331.194L254.648 338.954C255.768 339.824 255.978 341.354 255.118 342.364L232.668 369.074C231.818 370.084 230.218 370.214 229.098 369.344Z" fill="white"/>
<path d="M254.648 338.944L251.418 336.434L229.348 362.684C228.488 363.704 226.898 363.824 225.778 362.954L219.028 357.704L218.638 358.164C217.778 359.184 217.998 360.714 219.108 361.574L229.088 369.334C230.208 370.204 231.798 370.084 232.658 369.064L255.108 342.354C255.978 341.344 255.768 339.814 254.648 338.944Z" fill="#FDD696"/>
<path d="M280.758 359.064L277.528 356.554L255.458 382.804C254.598 383.824 253.008 383.944 251.888 383.074L247.108 379.354L245.138 377.824L244.748 378.284C243.888 379.304 244.108 380.834 245.218 381.694L255.198 389.454C256.318 390.324 257.908 390.204 258.768 389.184L281.218 362.474C282.088 361.454 281.868 359.924 280.758 359.064Z" fill="#FDD696"/>
<path d="M277.348 389.714C281.548 386.304 285.728 382.584 289.848 378.574C294.118 374.424 228.078 319.034 225.218 322.904C221.848 327.464 218.768 332.034 215.998 336.584C214.938 338.324 215.348 340.594 216.948 341.864L277.348 389.714Z" fill="#E29E3B"/>
<path d="M408.448 417.314L414.558 406.464C416.168 403.564 415.118 399.904 412.218 398.294C409.318 396.684 405.658 397.734 404.048 400.634L397.788 411.754L408.448 417.314Z" fill="#8A6FE8"/>
<path d="M404.398 432.244C411.346 432.244 416.978 426.612 416.978 419.664C416.978 412.716 411.346 407.084 404.398 407.084C397.45 407.084 391.818 412.716 391.818 419.664C391.818 426.612 397.45 432.244 404.398 432.244Z" fill="url(#paint16_radial)"/>
<path d="M376.838 445.834L333.568 409.794L337.938 404.544L381.208 440.584C382.288 441.484 383.888 441.334 384.778 440.254L397.418 425.074L402.668 429.444L390.028 444.624C386.728 448.604 380.808 449.144 376.838 445.834Z" fill="white"/>
<path d="M395.308 433.614L394.458 432.904C391.698 430.604 391.318 426.504 393.618 423.744L408.788 405.524C411.088 402.764 415.188 402.384 417.948 404.684L418.798 405.394C421.558 407.694 421.938 411.794 419.638 414.554L404.468 432.774C402.168 435.534 398.068 435.914 395.308 433.614Z" fill="#FEDEA7"/>
<path d="M400.738 433.344L396.038 429.294C393.738 427.314 393.478 423.834 395.458 421.534L396.068 420.824C398.048 418.524 401.528 418.264 403.828 420.244L408.528 424.294C410.828 426.274 411.088 429.754 409.108 432.054L408.498 432.764C406.518 435.074 403.038 435.334 400.738 433.344Z" fill="#8A6FE8"/>
<path d="M408.758 430.174L404.058 426.124C401.758 424.144 401.498 420.664 403.478 418.364L404.088 417.654C406.068 415.354 409.548 415.094 411.848 417.074L416.548 421.124C418.848 423.104 419.108 426.584 417.128 428.884L416.518 429.594C414.538 431.904 411.058 432.154 408.758 430.174Z" fill="#8A6FE8"/>
<path d="M416.568 426.944L411.868 422.894C409.568 420.914 409.308 417.434 411.288 415.134L411.898 414.424C413.878 412.124 417.358 411.864 419.658 413.844L424.358 417.894C426.658 419.874 426.918 423.354 424.938 425.654L424.328 426.364C422.348 428.674 418.868 428.934 416.568 426.944Z" fill="#8A6FE8"/>
<path d="M356.538 403.084C370.768 392.914 377.248 380.724 377.248 380.724L380.308 383.274H380.428C395.958 355.774 390.158 320.264 365.048 299.304C336.758 275.684 294.678 279.464 271.058 307.754C247.438 336.044 251.218 378.124 279.508 401.744C301.828 420.384 332.738 421.954 356.388 407.894C357.308 407.214 358.558 405.684 356.538 403.084Z" fill="url(#paint17_radial)"/>
<path d="M356.668 403.184C370.728 393.144 377.218 381.124 377.368 380.834L324.228 336.464C324.228 336.464 321.168 333.324 318.608 336.384C316.048 339.444 308.968 348.184 300.988 357.744C299.348 359.714 300.168 362.004 301.428 363.054C301.438 363.064 353.438 404.214 356.668 403.184Z" fill="url(#paint18_radial)"/>
<path d="M325.678 377.304C325.678 377.304 339.248 377.654 341.848 377.794C344.438 377.934 345.888 379.024 346.298 381.514C346.708 383.994 349.548 397.234 349.548 397.234L325.678 377.304Z" fill="#A08BE8"/>
<path d="M355.828 408.414C355.828 408.414 359.528 406.874 356.668 403.184C356.678 403.174 304.458 359.524 304.458 359.524C303.238 358.504 302.288 356.474 303.128 355.184C302.428 356.034 301.708 356.884 300.988 357.754C299.498 359.534 300.038 361.584 301.098 362.744C301.208 362.854 301.318 362.974 301.438 363.074L305.008 366.054L355.828 408.414Z" fill="#512BD4"/>
<path d="M344.838 413.374L256.518 339.624C255.688 344.644 255.438 349.734 255.758 354.784L330.058 416.824C335.078 416.234 340.038 415.084 344.838 413.374Z" fill="#D0C5F3"/>
<path d="M362.008 290.864L372.098 298.894L378.918 287.404L371.678 281.644L362.008 290.864Z" fill="#8A6FE8"/>
<path d="M379.008 288.724C384.078 288.724 388.188 284.614 388.188 279.544C388.188 274.474 384.078 270.364 379.008 270.364C373.938 270.364 369.828 274.474 369.828 279.544C369.828 284.614 373.938 288.724 379.008 288.724Z" fill="#D8CFF7"/>
<path d="M353.108 294.124C352.658 293.764 352.598 293.074 353.018 292.664C357.368 288.304 364.388 287.804 369.318 291.734C374.248 295.664 375.348 302.614 372.068 307.824C371.758 308.314 371.078 308.424 370.628 308.054L353.108 294.124Z" fill="url(#paint19_radial)"/>
<path d="M330.99 361.828C334.042 358.06 334.7 353.535 332.46 351.72C330.219 349.905 325.929 351.489 322.877 355.257C319.825 359.026 319.167 363.551 321.407 365.366C323.648 367.18 327.938 365.597 330.99 361.828Z" fill="#512BD4"/>
<path d="M363.185 388.845C366.348 385.17 367.141 380.666 364.956 378.785C362.771 376.904 358.435 378.36 355.272 382.035C352.109 385.711 351.316 390.215 353.501 392.095C355.687 393.976 360.022 392.521 363.185 388.845Z" fill="#512BD4"/>
<path d="M329.708 355.154C331.208 355.014 332.608 355.584 333.598 356.574C333.248 358.274 332.358 360.134 330.978 361.844C330.118 362.914 329.148 363.794 328.168 364.484C326.598 363.784 325.448 362.284 325.288 360.464C325.048 357.764 327.028 355.394 329.708 355.154Z" fill="#8065E0"/>
<path d="M362.138 381.864C363.638 381.724 365.048 382.294 366.038 383.284C365.698 385.074 364.718 387.074 363.168 388.874C362.378 389.794 361.508 390.574 360.628 391.194C359.048 390.504 357.878 388.994 357.718 387.154C357.468 384.474 359.458 382.104 362.138 381.864Z" fill="#8065E0"/>
<path d="M327.088 421.494L218.328 330.124C216.168 328.314 215.888 325.094 217.708 322.934L225.878 313.234C227.688 311.084 230.908 310.804 233.058 312.614L349.988 410.784C353.098 413.404 352.078 416.384 348.178 417.534L331.818 422.474C330.168 422.964 328.398 422.594 327.088 421.494Z" fill="#FABF5D"/>
<path d="M349.978 410.774L233.048 312.604C230.898 310.794 227.678 311.064 225.868 313.224L224.838 314.444C226.498 313.844 228.418 314.114 229.858 315.334L346.788 413.504C348.338 414.804 348.858 416.204 348.518 417.424C352.128 416.204 352.988 413.314 349.978 410.774Z" fill="#FEDEA7"/>
<path d="M333.79 399.623L317.264 385.825L305.055 400.447L321.581 414.246L333.79 399.623Z" fill="#512BD4"/>
<path d="M311.958 397.354C311.838 397.254 311.758 397.124 311.748 396.964C311.728 396.804 311.768 396.664 311.868 396.554C311.968 396.434 312.098 396.364 312.258 396.354C312.418 396.344 312.558 396.384 312.688 396.494C312.818 396.604 312.888 396.734 312.898 396.894C312.918 397.054 312.878 397.194 312.778 397.314C312.678 397.434 312.548 397.494 312.388 397.504C312.228 397.504 312.088 397.454 311.958 397.354Z" fill="white"/>
<path d="M317.008 401.454L316.198 400.774L316.878 395.614C316.898 395.484 316.928 395.354 316.968 395.234L316.948 395.214C316.878 395.324 316.718 395.544 316.448 395.864L313.938 398.874L313.218 398.274L317.048 393.684L317.918 394.404L317.238 399.424C317.208 399.634 317.188 399.774 317.168 399.844L317.178 399.854C317.258 399.714 317.418 399.504 317.658 399.214L320.128 396.254L320.848 396.854L317.008 401.454Z" fill="white"/>
<path d="M320.508 404.374L317.998 402.274L321.828 397.684L324.238 399.704L323.698 400.354L322.028 398.954L320.938 400.254L322.478 401.544L321.938 402.184L320.398 400.894L319.268 402.254L321.038 403.734L320.508 404.374Z" fill="white"/>
<path d="M327.378 403.404L326.088 402.334L322.798 406.274L322.058 405.654L325.348 401.714L324.068 400.644L324.608 399.994L327.918 402.764L327.378 403.404Z" fill="white"/>
<path d="M223.428 288.084L225.158 300.274C237.928 298.464 248.858 299.934 257.648 304.624C265.378 308.754 271.678 315.484 276.348 324.644L287.308 319.044C278.618 302.024 260.488 282.844 223.428 288.084Z" fill="url(#paint20_linear)"/>
<path d="M217.978 298.004L210.078 306.444C207.988 308.704 208.128 312.234 210.388 314.324C212.648 316.414 216.178 316.274 218.268 314.014L226.368 305.354L217.978 298.004Z" fill="#8A6FE8"/>
<path d="M219.428 286.564L207.888 285.774C204.808 285.584 202.168 287.924 201.978 291.004C201.788 294.084 204.128 296.724 207.198 296.914L219.028 297.724L219.428 286.564Z" fill="#8A6FE8"/>
<path d="M218.868 294.584L207.318 294.084C204.238 293.974 201.648 296.374 201.538 299.454C201.428 302.534 203.828 305.124 206.908 305.234L218.758 305.744L218.868 294.584Z" fill="#8A6FE8"/>
<path d="M223.868 282.634L212.708 279.604C209.728 278.814 206.678 280.594 205.888 283.574C205.098 286.554 206.878 289.604 209.858 290.394L221.298 293.494L223.868 282.634Z" fill="#8A6FE8"/>
<path d="M224.298 305.854C230.749 305.854 235.978 300.625 235.978 294.174C235.978 287.723 230.749 282.494 224.298 282.494C217.847 282.494 212.618 287.723 212.618 294.174C212.618 300.625 217.847 305.854 224.298 305.854Z" fill="url(#paint21_radial)"/>
<path d="M284.428 336.074C291.193 336.074 296.678 330.589 296.678 323.824C296.678 317.058 291.193 311.574 284.428 311.574C277.662 311.574 272.178 317.058 272.178 323.824C272.178 330.589 277.662 336.074 284.428 336.074Z" fill="url(#paint22_radial)"/>
<defs>
<linearGradient id="paint0_linear" x1="283.129" y1="737.615" x2="283.129" y2="0.00386893" gradientUnits="userSpaceOnUse">
<stop offset="0.2393" stop-color="#33D5F9"/>
<stop offset="0.6349" stop-color="#24BADB"/>
</linearGradient>
<radialGradient id="paint1_radial" cx="0" cy="0" r="1" gradientUnits="userSpaceOnUse" gradientTransform="translate(281.188 107.618) scale(431.693)">
<stop offset="0.1068" stop-color="#33D4F8"/>
<stop offset="0.7354" stop-color="#27BEE0"/>
</radialGradient>
<linearGradient id="paint2_linear" x1="202.918" y1="775.137" x2="574.758" y2="403.297" gradientUnits="userSpaceOnUse">
<stop stop-color="#33D5F9"/>
<stop offset="0.412" stop-color="#77E3FB"/>
</linearGradient>
<radialGradient id="paint3_radial" cx="0" cy="0" r="1" gradientUnits="userSpaceOnUse" gradientTransform="translate(170.626 41.9107) scale(106.261)">
<stop offset="0.3813" stop-color="#77E3FB"/>
<stop offset="0.979" stop-color="#2CC7EA"/>
</radialGradient>
<linearGradient id="paint4_linear" x1="290.903" y1="105.333" x2="127.231" y2="105.333" gradientUnits="userSpaceOnUse">
<stop offset="0.000330688" stop-color="#77E3FB" stop-opacity="0"/>
<stop offset="1" stop-color="#60DEFA"/>
</linearGradient>
<radialGradient id="paint5_radial" cx="0" cy="0" r="1" gradientUnits="userSpaceOnUse" gradientTransform="translate(402.727 586.778) rotate(-6.92105) scale(83.715)">
<stop offset="0.3813" stop-color="#A4ECFC"/>
<stop offset="0.979" stop-color="#2CC7EA"/>
</radialGradient>
<linearGradient id="paint6_linear" x1="162.741" y1="618.512" x2="198.411" y2="383.564" gradientUnits="userSpaceOnUse">
<stop stop-color="white" stop-opacity="0"/>
<stop offset="0.9936" stop-color="#60DEFA"/>
</linearGradient>
<linearGradient id="paint7_linear" x1="136.832" y1="599.464" x2="172.501" y2="364.516" gradientUnits="userSpaceOnUse">
<stop stop-color="white" stop-opacity="0"/>
<stop offset="0.9936" stop-color="#60DEFA"/>
</linearGradient>
<linearGradient id="paint8_linear" x1="303.897" y1="406.566" x2="273.051" y2="445.305" gradientUnits="userSpaceOnUse">
<stop stop-color="#522CD5"/>
<stop offset="0.4397" stop-color="#8A6FE8"/>
</linearGradient>
<linearGradient id="paint9_linear" x1="303.897" y1="406.566" x2="273.051" y2="445.305" gradientUnits="userSpaceOnUse">
<stop stop-color="#522CD5"/>
<stop offset="0.4397" stop-color="#8A6FE8"/>
</linearGradient>
<linearGradient id="paint10_linear" x1="269.588" y1="438.143" x2="246.022" y2="491.286" gradientUnits="userSpaceOnUse">
<stop stop-color="#522CD5"/>
<stop offset="0.4397" stop-color="#8A6FE8"/>
</linearGradient>
<radialGradient id="paint11_radial" cx="0" cy="0" r="1" gradientUnits="userSpaceOnUse" gradientTransform="translate(245.984 476.995) rotate(49.4975) scale(11.2114 11.2107)">
<stop offset="0.034" stop-color="#522CD5"/>
<stop offset="1" stop-color="#8A6FE8"/>
</radialGradient>
<linearGradient id="paint12_linear" x1="288.645" y1="395.533" x2="250.925" y2="427.619" gradientUnits="userSpaceOnUse">
<stop stop-color="#522CD5"/>
<stop offset="0.4397" stop-color="#8A6FE8"/>
</linearGradient>
<linearGradient id="paint13_linear" x1="288.645" y1="395.533" x2="250.925" y2="427.619" gradientUnits="userSpaceOnUse">
<stop stop-color="#522CD5"/>
<stop offset="0.4397" stop-color="#8A6FE8"/>
</linearGradient>
<linearGradient id="paint14_linear" x1="248.331" y1="418.724" x2="214.585" y2="466.918" gradientUnits="userSpaceOnUse">
<stop stop-color="#522CD5"/>
<stop offset="0.4397" stop-color="#8A6FE8"/>
</linearGradient>
<radialGradient id="paint15_radial" cx="0" cy="0" r="1" gradientUnits="userSpaceOnUse" gradientTransform="translate(227.984 451.651) rotate(60.582) scale(19.8623 19.8613)">
<stop offset="0.034" stop-color="#522CD5"/>
<stop offset="0.9955" stop-color="#8A6FE8"/>
</radialGradient>
<radialGradient id="paint16_radial" cx="0" cy="0" r="1" gradientUnits="userSpaceOnUse" gradientTransform="translate(403.342 414.984) rotate(-6.92105) scale(18.1607)">
<stop stop-color="#8065E0"/>
<stop offset="1" stop-color="#512BD4"/>
</radialGradient>
<radialGradient id="paint17_radial" cx="0" cy="0" r="1" gradientUnits="userSpaceOnUse" gradientTransform="translate(344.683 316.52) rotate(39.8599) scale(70.6942)">
<stop offset="0.3472" stop-color="#A08BE8"/>
<stop offset="0.684" stop-color="#8065E0"/>
<stop offset="0.7596" stop-color="#8065E0"/>
</radialGradient>
<radialGradient id="paint18_radial" cx="0" cy="0" r="1" gradientUnits="userSpaceOnUse" gradientTransform="translate(330.284 349.486) rotate(-6.92105) scale(71.2193)">
<stop offset="0.0933" stop-color="#E1DFDD"/>
<stop offset="0.6573" stop-color="white"/>
</radialGradient>
<radialGradient id="paint19_radial" cx="0" cy="0" r="1" gradientUnits="userSpaceOnUse" gradientTransform="translate(363.039 292.984) rotate(-6.92104) scale(10.1246)">
<stop stop-color="#8065E0"/>
<stop offset="1" stop-color="#512BD4"/>
</radialGradient>
<linearGradient id="paint20_linear" x1="287.308" y1="305.921" x2="223.433" y2="305.921" gradientUnits="userSpaceOnUse">
<stop offset="0.2495" stop-color="#967FE6"/>
<stop offset="1" stop-color="#8A6FE8"/>
</linearGradient>
<radialGradient id="paint21_radial" cx="0" cy="0" r="1" gradientUnits="userSpaceOnUse" gradientTransform="translate(224.324 288.585) rotate(-6.92106) scale(18.4229)">
<stop stop-color="#8065E0"/>
<stop offset="1" stop-color="#512BD4"/>
</radialGradient>
<radialGradient id="paint22_radial" cx="0" cy="0" r="1" gradientUnits="userSpaceOnUse" gradientTransform="translate(287.997 322.394) rotate(4.45056) scale(12.2568)">
<stop stop-color="#8065E0"/>
<stop offset="1" stop-color="#512BD4"/>
</radialGradient>
</defs>
</svg>
