<svg width="830" height="455" viewBox="0 0 830 455" fill="none" xmlns="http://www.w3.org/2000/svg">
<path d="M147.402 435.339C-6.20822 372.489 -9.52822 212.459 6.27178 150.529C20.9118 93.1486 95.4018 -30.1214 265.872 6.76858C403.732 36.5986 480.772 59.8986 640.512 15.3086C792.202 -27.0314 922.892 186.309 739.742 341.209C592.242 465.939 236.792 471.909 147.402 435.339Z" fill="url(#paint0_linear)"/>
<path d="M33.9717 339.059C56.4417 377.659 92.2217 412.759 147.392 435.329C236.062 471.609 586.452 466.029 736.082 344.229C610.302 342.419 331.722 334.709 33.9717 339.059Z" fill="#81B5F3"/>
<path d="M658.712 374.189L642.662 242.469L629.962 250.428L653.982 374.189H658.712Z" fill="#1C77E2"/>
<path d="M634.512 243.349L674.622 219.859L349.902 230.579L282.802 252.189L634.512 243.349Z" fill="#3E8EED"/>
<path d="M305.382 396.409H299.962L317.132 259.749L333.312 258.499L305.382 396.409Z" fill="#3E8EED"/>
<path d="M343.362 374.189L366.802 256.019L352.572 257.879L338.642 374.189H343.362Z" fill="#1C77E2"/>
<path d="M609.312 396.409H614.742L597.312 253.539L580.572 252.289L609.312 396.409Z" fill="#3E8EED"/>
<path d="M593.832 212.979C593.832 212.979 597.192 189.969 590.622 168.049C585.182 149.889 593.282 130.939 593.282 114.419C596.582 127.559 595.272 141.509 597.612 153.779C600.372 168.279 604.682 176.249 606.222 187.649C607.602 197.839 607.872 212.699 607.872 212.699L593.832 212.979Z" fill="#1C77E2"/>
<path d="M606.222 212.699C606.222 212.699 607.602 195.079 605.122 184.069C601.272 166.999 604.842 147.449 607.602 135.339C608.702 145.529 608.462 150.579 610.082 162.599C612.012 176.919 616.802 178.729 618.342 190.129C619.722 200.319 619.992 212.699 619.992 212.699H606.222Z" fill="#3E8EED"/>
<path d="M613.562 212.679C613.562 212.679 607.012 202.019 613.222 192.589C620.562 181.459 628.462 181.459 629.302 168.909C631.582 181.819 626.282 181.599 622.212 194.129C618.412 205.819 625.702 213.239 625.702 213.239L613.562 212.679Z" fill="#1C77E2"/>
<path d="M597.045 185.393C597.548 185.324 597.797 184.114 597.601 182.692C597.405 181.269 596.839 180.172 596.335 180.242C595.832 180.311 595.583 181.521 595.779 182.943C595.975 184.365 596.542 185.462 597.045 185.393Z" fill="#549BEF"/>
<path d="M597.982 178.13C598.431 178.068 598.673 177.135 598.523 176.046C598.373 174.958 597.887 174.125 597.439 174.187C596.99 174.249 596.748 175.182 596.898 176.27C597.048 177.359 597.533 178.191 597.982 178.13Z" fill="#549BEF"/>
<path d="M594.34 172.827C594.844 172.757 595.112 171.69 594.941 170.442C594.769 169.195 594.221 168.24 593.718 168.309C593.215 168.379 592.946 169.446 593.118 170.694C593.29 171.941 593.837 172.896 594.34 172.827Z" fill="#549BEF"/>
<path d="M592.438 165.175C592.761 165.13 592.934 164.451 592.824 163.658C592.715 162.865 592.365 162.258 592.042 162.302C591.719 162.347 591.546 163.026 591.655 163.819C591.765 164.612 592.115 165.219 592.438 165.175Z" fill="#549BEF"/>
<path d="M617.567 208.091C618.075 208.068 618.434 206.887 618.369 205.453C618.305 204.018 617.841 202.874 617.334 202.896C616.826 202.919 616.467 204.101 616.531 205.535C616.596 206.97 617.06 208.114 617.567 208.091Z" fill="#549BEF"/>
<path d="M619.595 203.279C620.047 203.251 620.359 202.339 620.291 201.242C620.222 200.145 619.801 199.278 619.349 199.306C618.897 199.334 618.586 200.246 618.654 201.343C618.722 202.44 619.143 203.307 619.595 203.279Z" fill="#549BEF"/>
<path d="M617.967 198.286C618 197.497 617.767 196.847 617.447 196.833C617.127 196.82 616.841 197.449 616.808 198.238C616.776 199.027 617.008 199.678 617.329 199.691C617.649 199.704 617.934 199.075 617.967 198.286Z" fill="#549BEF"/>
<path d="M588.332 212.979C588.332 212.979 591.322 202.069 586.682 191.779C580.352 177.739 582.002 164.249 583.382 151.309C584.202 162.489 588.612 178.569 594.392 190.399C598.902 199.639 600.172 212.699 600.172 212.699L588.332 212.979Z" fill="#3E8EED"/>
<path d="M618.372 237.549C610.782 239.279 601.152 239.559 594.372 237.549C583.792 234.419 584.132 216.089 584.132 216.089C584.132 213.959 585.662 211.629 587.802 211.789C609.102 214.279 625.012 211.789 625.012 211.789C627.792 211.789 628.412 213.959 628.412 216.089C628.412 216.089 627.752 235.409 618.372 237.549Z" fill="#C1E1FB"/>
<path d="M267.942 321.739C266.952 317.629 263.032 311.779 253.012 312.109L249.002 312.389L248.822 312.249L246.572 312.549L156.312 318.769C148.522 318.769 141.792 323.699 139.942 330.759L122.622 404.709H128.492L145.472 332.019C146.422 328.399 148.832 326.509 152.162 326.009C165.252 326.019 179.242 326.709 188.122 327.189C186.512 329.899 185.302 333.409 184.702 338.169L182.682 386.099H188.392L190.382 338.689C190.972 333.479 192.742 329.999 194.992 327.559C195.262 327.569 195.522 327.589 195.742 327.589C195.872 327.599 195.982 327.579 196.102 327.579C202.702 328.739 208.502 331.209 209.882 338.939L218.382 416.609H224.112L216.162 338.889C215.372 332.109 211.192 326.989 204.432 324.209L253.782 317.319C257.732 317.139 261.162 319.179 262.462 323.249L285.132 397.259L289.972 394.749L267.942 321.739Z" fill="#D8E8FB"/>
<path d="M179.102 314.669C179.102 314.669 153.912 321.069 141.212 321.069C128.512 321.069 122.202 309.739 118.922 292.079C115.642 274.419 109.322 221.189 112.782 205.729C115.242 194.739 122.612 190.419 134.892 190.029C142.262 189.789 158.642 189.249 173.802 191.599C188.952 193.949 199.292 215.739 208.612 230.059C236.462 272.839 254.632 300.529 254.632 300.529L179.102 314.669Z" fill="#549BEF"/>
<path d="M256.872 312.379L177.342 322.859C171.262 322.859 129.512 316.419 129.512 310.349V304.879C129.512 298.799 151.822 294.949 157.902 294.949L256.882 284.899C262.962 284.899 267.882 289.829 267.882 295.899V301.369C267.872 307.449 262.952 312.379 256.872 312.379Z" fill="#1C77E2"/>
<path d="M443.122 227.578C439.742 228.658 441.152 231.568 444.762 231.508C460.962 231.208 477.032 231.838 484.852 232.398C494.672 233.098 502.012 231.588 504.332 229.738C506.182 228.268 505.602 225.658 500.992 225.178C490.702 224.108 446.192 226.598 443.122 227.578Z" fill="#0064DA"/>
<path d="M468.122 224.709C439.762 226.049 435.062 229.499 451.322 229.389C467.572 229.279 477.372 229.659 485.192 230.219C502.822 231.479 510.232 225.899 499.872 225.019C489.532 224.139 474.332 224.409 468.122 224.709Z" fill="#BDD8F9"/>
<path d="M488.482 226.659L484.092 227.749L455.312 204.209L481.172 204.519L488.482 226.659Z" fill="#0064DA"/>
<path d="M484.222 227.749H456.532L448.722 204.209H476.412L484.222 227.749Z" fill="#3E8EED"/>
<path d="M556.762 91.1985L550.172 91.3185C551.092 91.5785 551.772 92.3985 551.742 93.4085L549.312 209.879C549.292 211.059 548.332 211.989 547.152 211.999H554.362C555.542 211.999 556.502 211.059 556.522 209.879L558.952 93.4085C558.982 92.1785 557.992 91.1785 556.762 91.1985Z" fill="#3E8EED"/>
<path d="M383.632 101.479L548.772 94.9286L548.012 209.719L381.112 208.469L383.632 101.479Z" fill="#D8E8FB"/>
<path d="M258.622 264.139L634.512 255.499V243.349L257.782 251.479L258.622 264.139Z" fill="#1C77E2"/>
<path d="M634.512 255.499L673.942 232.509L674.622 219.859L634.512 243.349V255.499Z" fill="#0064DA"/>
<path d="M388.052 103.929C388.052 103.929 384.802 104.039 384.802 107.329C384.802 193.459 384.802 203.199 384.802 203.199C384.802 203.199 384.802 206.599 388.052 206.489C541.482 201.129 541.482 201.129 541.482 201.129C541.482 201.129 544.742 201.019 544.742 197.609C544.742 111.479 544.742 101.739 544.742 101.739C544.742 101.739 544.742 98.4486 541.482 98.5586L388.052 103.929Z" fill="#479CDF"/>
<path d="M465.052 152.519L384.802 155.319V204.899C384.802 204.899 384.802 206.599 388.062 206.489C419.842 205.379 445.022 207.899 465.032 207.199L465.052 152.519Z" fill="white"/>
<path d="M465.052 152.779V101.239L388.062 103.929C388.062 103.929 384.802 104.039 384.802 107.329C384.802 127.209 384.802 143.019 384.802 155.579L465.052 152.779Z" fill="#BDD8F9"/>
<path d="M465.052 152.519L545.022 149.729L544.012 204.979C544.012 204.979 544.012 206.679 540.762 206.789C509.102 207.899 484.972 205.669 465.032 206.369L465.052 152.519Z" fill="#BDD8F9"/>
<path d="M465.052 152.779V101.239L542.052 96.9786C542.052 96.9786 545.012 98.4486 545.012 101.739C545.012 121.619 545.012 137.429 545.012 149.989L465.052 152.779Z" fill="white"/>
<path d="M513.262 185.229L497.502 185.779C493.932 185.899 491.852 190.009 493.922 192.849L500.992 202.549C503.852 202.449 506.772 202.349 509.772 202.239L516.842 192.049C518.912 189.059 516.832 185.099 513.262 185.229Z" fill="#549BEF"/>
<path d="M488.372 171.149V155.999C488.372 155.299 489.272 155.929 489.672 156.489C490.972 158.329 492.882 160.619 493.522 164.509C494.532 170.629 488.372 171.149 488.372 171.149Z" fill="#227BE5"/>
<path d="M522.242 169.969V155.769C522.242 155.069 521.342 153.879 520.942 154.469C519.642 156.399 517.732 159.769 517.092 163.699C516.092 169.879 522.242 169.969 522.242 169.969Z" fill="#227BE5"/>
<path d="M472.152 206.369C487.692 205.829 517.532 207.119 538.992 206.369C538.722 206.129 538.282 205.299 538.012 205.109C531.172 200.369 516.232 197.299 505.132 197.689C493.772 198.089 483.602 199.389 473.552 205.109C473.332 205.239 472.362 206.189 472.152 206.369Z" fill="white"/>
<path d="M505.252 193.579C511.282 193.369 517.332 192.539 521.902 191.159C523.082 187.669 523.752 183.769 523.752 179.679C523.752 165.219 515.472 153.789 505.252 154.149C495.032 154.509 486.752 166.519 486.752 180.979C486.752 185.069 487.412 188.919 488.602 192.329C493.422 193.379 499.222 193.789 505.252 193.579Z" fill="white"/>
<path d="M489.652 182.159C489.822 182.479 490.092 182.789 490.482 183.069L500.722 190.659C503.002 192.349 507.762 192.179 510.042 190.329L520.282 182.029C520.672 181.719 520.932 181.389 521.112 181.059L489.652 182.159Z" fill="#549BEF"/>
<path d="M523.752 180.609C523.752 180.209 523.742 179.809 523.732 179.409C523.722 179.249 523.722 179.099 523.712 178.939C523.702 178.699 523.692 178.469 523.672 178.239C523.662 178.039 523.642 177.849 523.632 177.649C523.622 177.479 523.602 177.309 523.582 177.129C523.562 176.899 523.542 176.659 523.512 176.429C523.342 174.909 523.072 173.439 522.722 172.029C518.302 171.029 512.062 170.519 505.132 170.759C498.342 170.999 492.212 171.909 487.802 173.179C487.442 174.629 487.172 176.139 486.992 177.689C486.962 177.949 486.932 178.219 486.912 178.489C486.902 178.609 486.892 178.729 486.882 178.859C486.862 179.099 486.842 179.329 486.832 179.569C486.822 179.749 486.812 179.929 486.802 180.109C486.792 180.309 486.782 180.519 486.772 180.719C486.762 181.089 486.752 181.459 486.752 181.829C491.202 182.999 497.892 183.609 505.382 183.349C512.732 183.089 519.302 182.049 523.752 180.609Z" fill="#227BE5"/>
<path d="M514.678 178.5C516.196 176.956 516.219 174.518 514.729 173.055C513.24 171.591 510.803 171.657 509.286 173.201C507.768 174.746 507.745 177.184 509.234 178.647C510.723 180.11 513.161 180.044 514.678 178.5Z" fill="#A3C9F6"/>
<path d="M501.209 178.973C502.726 177.429 502.749 174.991 501.26 173.527C499.771 172.064 497.334 172.13 495.816 173.674C494.299 175.218 494.276 177.656 495.765 179.12C497.254 180.583 499.692 180.517 501.209 178.973Z" fill="#A3C9F6"/>
<path d="M415.752 114.389V101.809C415.752 100.439 417.572 99.9986 418.082 101.249L423.182 113.659C423.512 114.469 422.932 115.399 422.062 115.429L416.962 115.609C416.302 115.629 415.752 115.079 415.752 114.389Z" fill="white"/>
<path d="M433.822 113.759V101.179C433.822 99.8086 432.002 99.4986 431.492 100.779L426.392 113.539C426.062 114.379 426.642 115.269 427.512 115.239L432.612 115.059C433.272 115.029 433.822 114.449 433.822 113.759Z" fill="white"/>
<path d="M428.172 150.229L421.852 150.449V132.949L428.172 132.729V150.229Z" fill="#227BE5"/>
<path d="M449.892 133.129L448.822 120.639C448.382 115.459 444.172 111.629 439.122 111.799L410.442 112.799C405.402 112.979 401.192 117.109 400.742 122.309L399.672 134.879C399.552 136.259 400.602 137.409 401.942 137.359L418.392 136.789C419.112 139.989 421.892 142.289 425.232 142.179C428.572 142.059 431.352 139.559 432.072 136.319L447.622 135.779C448.962 135.719 450.012 134.499 449.892 133.129Z" fill="#3E8EED"/>
<path d="M439.462 122.049L410.562 123.059C408.572 123.129 406.952 124.799 406.952 126.799V127.979C406.952 129.969 408.572 131.539 410.562 131.469L439.462 130.459C441.452 130.389 443.072 128.719 443.072 126.719V125.539C443.072 123.539 441.462 121.979 439.462 122.049Z" fill="#A3C9F6"/>
<path d="M423.146 127.787C423.829 126.151 423.118 124.297 421.558 123.647C419.998 122.996 418.181 123.795 417.498 125.431C416.816 127.068 417.527 128.921 419.087 129.572C420.646 130.222 422.464 129.423 423.146 127.787Z" fill="#227BE5"/>
<path d="M433.085 127.447C433.767 125.811 433.056 123.957 431.496 123.307C429.937 122.656 428.119 123.455 427.437 125.092C426.754 126.728 427.466 128.581 429.025 129.232C430.585 129.882 432.402 129.083 433.085 127.447Z" fill="#227BE5"/>
<path d="M450.812 153.169L450.332 147.569C450.212 146.129 449.042 145.069 447.642 145.119L401.802 146.719C400.482 146.769 399.382 147.849 399.262 149.209L398.772 154.989L450.812 153.169Z" fill="#227BE5"/>
<path d="M406.569 151.249C406.895 150.469 406.555 149.585 405.811 149.275C405.067 148.964 404.2 149.345 403.875 150.125C403.549 150.905 403.889 151.788 404.633 152.099C405.377 152.409 406.244 152.028 406.569 151.249Z" fill="#A3C9F6"/>
<path d="M411.988 151.058C412.313 150.278 411.974 149.394 411.229 149.084C410.485 148.774 409.618 149.154 409.293 149.934C408.968 150.714 409.307 151.598 410.052 151.908C410.796 152.219 411.663 151.838 411.988 151.058Z" fill="#A3C9F6"/>
<path d="M417.406 150.868C417.731 150.088 417.391 149.204 416.647 148.894C415.903 148.583 415.036 148.964 414.711 149.744C414.386 150.523 414.725 151.407 415.47 151.718C416.214 152.028 417.081 151.647 417.406 150.868Z" fill="#A3C9F6"/>
<path d="M429.612 159.129L410.512 159.799C408.272 159.879 406.402 161.649 406.192 163.889L405.202 174.449C404.962 177.009 406.972 179.139 409.522 179.049L430.592 178.309C433.152 178.219 435.152 175.949 434.912 173.409L433.922 162.919C433.732 160.689 431.852 159.049 429.612 159.129Z" fill="#549BEF"/>
<path d="M434.532 196.039L405.612 197.049C400.062 197.239 395.552 192.899 395.552 187.339V182.999C395.552 177.449 400.052 172.789 405.612 172.589L434.532 171.579C440.082 171.389 444.592 175.729 444.592 181.289V185.629C444.582 191.179 440.082 195.839 434.532 196.039Z" fill="#3E8EED"/>
<path d="M433.302 190.299L407.232 191.209C406.122 191.249 405.222 190.379 405.222 189.269V188.399C405.222 187.289 406.122 186.359 407.232 186.319L433.302 185.409C434.412 185.369 435.312 186.239 435.312 187.349V188.219C435.312 189.329 434.412 190.259 433.302 190.299Z" fill="#BDD8F9"/>
<path d="M417.053 168.768C418.512 167.283 418.532 164.937 417.098 163.527C415.665 162.118 413.319 162.18 411.86 163.665C410.4 165.151 410.38 167.497 411.814 168.906C413.248 170.315 415.593 170.253 417.053 168.768Z" fill="white"/>
<path d="M428.606 168.369C430.065 166.884 430.086 164.538 428.652 163.129C427.218 161.72 424.872 161.781 423.413 163.267C421.954 164.752 421.933 167.098 423.367 168.507C424.801 169.916 427.146 169.854 428.606 168.369Z" fill="white"/>
<path d="M408.622 186.289V187.259C408.622 187.779 409.042 188.189 409.562 188.169L411.562 188.099C412.082 188.079 412.502 187.649 412.502 187.129V186.159C412.502 186.149 412.502 186.139 412.502 186.139L408.622 186.279V186.289Z" fill="#76AFF2"/>
<path d="M416.352 188.829L414.352 188.899C413.832 188.919 413.412 189.349 413.412 189.869V190.839C413.412 190.889 413.422 190.949 413.432 190.999L417.282 190.869C417.292 190.819 417.302 190.769 417.302 190.709V189.739C417.292 189.209 416.872 188.809 416.352 188.829Z" fill="#76AFF2"/>
<path d="M418.202 185.959V186.929C418.202 187.449 418.622 187.859 419.142 187.839L421.142 187.769C421.662 187.749 422.082 187.319 422.082 186.799V185.829C422.082 185.819 422.082 185.809 422.082 185.809L418.202 185.949C418.202 185.939 418.202 185.949 418.202 185.959Z" fill="#76AFF2"/>
<path d="M425.792 188.499L423.792 188.569C423.272 188.589 422.852 189.019 422.852 189.539V190.509C422.852 190.559 422.862 190.619 422.872 190.669L426.722 190.539C426.732 190.489 426.742 190.439 426.742 190.379V189.409C426.732 188.879 426.312 188.479 425.792 188.499Z" fill="#76AFF2"/>
<path d="M427.642 185.629V186.599C427.642 187.119 428.062 187.529 428.582 187.509L430.582 187.439C431.102 187.419 431.522 186.989 431.522 186.469V185.499C431.522 185.489 431.522 185.479 431.522 185.479L427.642 185.619C427.642 185.609 427.642 185.619 427.642 185.629Z" fill="#76AFF2"/>
<path d="M425.122 200.159L415.652 200.489C414.792 200.519 414.092 199.849 414.092 198.979V198.309C414.092 197.449 414.792 196.729 415.652 196.689L425.122 196.359C425.982 196.329 426.682 196.999 426.682 197.869V198.539C426.682 199.409 425.982 200.129 425.122 200.159Z" fill="#227BE5"/>
<path d="M425.122 203.769L415.652 204.099C414.792 204.129 414.092 203.459 414.092 202.589V201.919C414.092 201.059 414.792 200.339 415.652 200.299L425.122 199.969C425.982 199.939 426.682 200.609 426.682 201.479V202.149C426.682 203.019 425.982 203.739 425.122 203.769Z" fill="#227BE5"/>
<path d="M414.102 205.579C418.442 205.429 422.622 205.279 426.672 205.139C426.602 204.239 425.852 203.559 424.932 203.589L415.852 203.909C414.922 203.939 414.182 204.679 414.102 205.579Z" fill="#227BE5"/>
<path d="M416.743 166.858C417.436 166.152 417.445 165.038 416.763 164.368C416.082 163.698 414.968 163.727 414.275 164.432C413.582 165.138 413.573 166.252 414.254 166.922C414.936 167.591 416.05 167.563 416.743 166.858Z" fill="#3E8EED"/>
<path d="M428.289 166.452C428.982 165.747 428.991 164.632 428.31 163.963C427.628 163.293 426.514 163.322 425.821 164.027C425.128 164.732 425.119 165.846 425.8 166.516C426.482 167.186 427.596 167.157 428.289 166.452Z" fill="#3E8EED"/>
<path d="M520.141 141.902C528.223 133.677 528.334 120.679 520.388 112.871C512.442 105.064 499.449 105.402 491.366 113.628C483.284 121.854 483.173 134.851 491.119 142.659C499.065 150.467 512.058 150.128 520.141 141.902Z" fill="#227BE5"/>
<path d="M537.492 139.869C537.742 137.669 536.032 135.799 533.832 135.869L477.042 137.709C474.832 137.779 473.112 139.759 473.362 141.949L474.532 152.449L536.292 150.289L537.492 139.869Z" fill="#549BEF"/>
<path d="M507.262 116.159L522.722 115.659C524.362 118.009 525.502 120.739 525.992 123.719L507.242 124.329C505.582 124.379 504.242 123.079 504.252 121.429L504.262 119.269C504.262 117.599 505.602 116.219 507.262 116.159Z" fill="#549BEF"/>
<path d="M514.092 122.171C515.311 120.93 515.325 118.967 514.124 117.787C512.922 116.606 510.96 116.655 509.741 117.896C508.521 119.137 508.507 121.1 509.708 122.28C510.91 123.461 512.872 123.412 514.092 122.171Z" fill="#BDD8F9"/>
<path d="M500.85 122.604C502.07 121.363 502.084 119.4 500.883 118.22C499.681 117.039 497.719 117.088 496.499 118.329C495.28 119.57 495.266 121.533 496.467 122.713C497.669 123.894 499.631 123.845 500.85 122.604Z" fill="#BDD8F9"/>
<path d="M539.996 143.78C542.69 141.038 542.728 136.706 540.081 134.105C537.434 131.504 533.104 131.618 530.41 134.36C527.715 137.101 527.677 141.433 530.325 144.034C532.972 146.636 537.302 146.522 539.996 143.78Z" fill="#227BE5"/>
<path d="M480.376 145.864C483.07 143.122 483.108 138.79 480.461 136.189C477.813 133.588 473.483 133.702 470.789 136.444C468.095 139.185 468.057 143.517 470.704 146.118C473.351 148.72 477.681 148.606 480.376 145.864Z" fill="#227BE5"/>
<path d="M478.462 152.309L478.362 141.509C478.342 139.939 477.062 138.719 475.492 138.789C473.922 138.859 472.662 140.189 472.672 141.759L472.772 152.509L478.462 152.309Z" fill="#76AFF2"/>
<path d="M538.082 150.229L537.982 139.429C537.962 137.859 536.682 136.639 535.112 136.709C533.542 136.779 532.282 138.109 532.292 139.679L532.392 150.429L538.082 150.229Z" fill="#76AFF2"/>
<path d="M498.329 177.567C499.126 176.755 499.137 175.473 498.353 174.703C497.569 173.932 496.287 173.966 495.49 174.777C494.692 175.589 494.681 176.871 495.465 177.641C496.249 178.412 497.531 178.378 498.329 177.567Z" fill="#549BEF"/>
<path d="M511.823 177.089C512.62 176.278 512.631 174.995 511.847 174.225C511.063 173.455 509.781 173.488 508.984 174.3C508.186 175.111 508.176 176.394 508.96 177.164C509.743 177.934 511.025 177.901 511.823 177.089Z" fill="#549BEF"/>
<path d="M452.182 185.589L445.642 182.049V177.559L449.092 175.389V179.939L452.172 181.609L455.262 179.719V171.639L458.702 173.699L458.712 181.589L452.182 185.589Z" fill="#549BEF"/>
<path d="M452.192 183.269C452.092 183.249 451.982 183.229 451.882 183.219C450.792 183.149 449.822 183.979 449.712 185.069C449.702 185.209 448.162 199.329 438.842 204.949C438.752 204.999 438.672 205.069 438.592 205.139C440.792 205.059 442.962 204.989 445.072 204.909C452.372 197.389 453.602 185.889 453.662 185.329C453.762 184.339 453.122 183.479 452.192 183.269Z" fill="#549BEF"/>
<path d="M453.944 185.85C455.012 184.762 455.029 183.046 453.981 182.016C452.933 180.987 451.217 181.033 450.149 182.121C449.08 183.208 449.064 184.924 450.112 185.954C451.16 186.984 452.875 186.937 453.944 185.85Z" fill="#3E8EED"/>
<path d="M484.612 196.049L444.922 197.439C443.872 197.479 443.032 198.349 443.032 199.399V199.869C443.032 200.919 443.882 201.729 444.922 201.699L484.612 200.309C485.662 200.269 486.502 199.399 486.502 198.349V197.879C486.512 196.829 485.662 196.019 484.612 196.049Z" fill="#0064DA"/>
<path d="M549.542 91.1985L383.192 97.7485C382.032 97.7685 381.092 98.6985 381.072 99.8585L378.642 209.779C378.612 210.989 379.592 211.989 380.802 211.989H547.152C548.332 211.989 549.292 211.049 549.312 209.869L551.742 93.3985C551.772 92.1785 550.772 91.1785 549.542 91.1985ZM540.272 203.129C540.252 204.159 539.402 204.989 538.372 204.989H388.512C387.442 204.989 386.592 204.119 386.612 203.049L388.742 106.329C388.762 105.309 389.592 104.489 390.612 104.469L540.472 98.7085C541.552 98.6885 542.432 99.5685 542.412 100.649L540.272 203.129Z" fill="#0064DA"/>
<path d="M412.962 237.618C408.472 239.358 408.892 243.219 413.222 243.779C415.822 244.119 420.012 244.478 424.382 244.478C452.442 244.468 469.342 245.848 482.822 247.308C499.742 249.148 512.452 246.038 516.522 242.038C519.762 238.858 517.202 234.939 509.262 233.749C491.532 231.099 418.282 235.548 412.962 237.618Z" fill="#0064DA"/>
<path d="M453.602 232.009C439.172 232.629 428.232 233.559 420.802 234.939C416.782 235.689 404.382 240.129 413.422 241.339C416.022 241.689 420.042 241.769 424.462 241.809C452.512 242.049 469.422 243.179 482.902 244.639C513.292 247.939 526.242 235.879 508.402 233.629C490.562 231.389 464.322 231.549 453.602 232.009Z" fill="#BDD8F9"/>
<path d="M417.982 239.429C465.902 237.759 489.542 240.719 494.862 241.409C495.522 241.499 496.182 241.329 496.652 240.959C498.092 239.829 501.482 237.249 505.482 234.809C505.932 234.539 505.752 233.979 505.182 233.919C459.812 228.919 427.832 233.899 427.832 233.899C424.932 234.599 420.262 236.729 417.532 238.519C417.032 238.839 417.342 239.449 417.982 239.429Z" fill="#8DBCF4"/>
<path d="M319.522 307.209C309.452 296.679 287.292 276.969 259.212 269.779L254.942 286.449C280.402 292.979 299.462 311.009 307.232 319.409C307.882 320.099 314.792 314.539 319.522 307.209Z" fill="url(#paint1_linear)"/>
<path d="M319.522 307.209C309.452 296.679 287.292 276.969 259.212 269.779L254.942 286.449C280.402 292.979 299.462 311.009 307.232 319.409C307.882 320.099 314.792 314.539 319.522 307.209Z" fill="url(#paint2_linear)"/>
<path d="M307.132 319.279L316.832 309.708C320.992 311.778 326.232 330.428 377.932 325.518L397.342 332.639L357.742 371.849C356.692 373.429 352.962 372.909 351.602 371.319L307.132 319.279Z" fill="#522CD5"/>
<path d="M386.532 315.709C389.482 315.119 391.662 316.159 393.522 318.319L400.032 325.989C401.052 327.179 400.972 329.049 399.862 330.139L391.942 337.959C390.682 339.199 388.722 339.119 387.572 337.769L381.382 331.169C379.242 328.669 377.562 327.399 373.622 328.139C350.332 332.509 326.672 330.609 311.172 315.289L319.452 307.119C327.912 314.459 347.782 323.409 386.532 315.709Z" fill="url(#paint3_linear)"/>
<path d="M399.862 330.149C400.972 329.049 401.052 327.179 400.032 325.999L393.522 318.329C392.492 317.119 391.352 316.289 390.032 315.869L377.502 328.229C378.992 328.689 380.112 329.719 381.372 331.189L387.562 337.789C388.722 339.139 390.672 339.219 391.932 337.979L399.862 330.149Z" fill="url(#paint4_radial)"/>
<path d="M301.942 324.799L285.112 320.369C288.892 306.029 291.292 296.309 292.362 289.069C293.522 281.289 292.642 279.159 292.462 278.829C292.102 278.599 289.952 277.579 281.312 278.319C257.992 280.329 253.182 281.389 252.992 281.439C253.232 281.389 253.312 281.349 253.312 281.349L248.402 264.649C251.352 263.779 262.802 262.449 279.812 260.979C289.682 260.129 299.662 260.339 305.762 267.599C313.972 277.319 310.312 293.029 301.942 324.799Z" fill="url(#paint5_linear)"/>
<path d="M287.232 312.249L300.492 315.959L292.782 389.499L266.452 382.139C264.452 381.579 263.392 379.529 264.092 377.569L287.232 312.249Z" fill="#522CD5"/>
<path d="M318.822 377.368C320.572 379.808 319.882 382.068 318.922 384.758L315.982 392.998C315.452 394.468 313.792 395.328 312.292 394.908L279.162 385.638C277.452 385.158 276.562 383.418 277.152 381.748L279.902 373.128C281.012 370.028 279.442 367.518 279.072 363.528C278.342 355.618 284.202 330.908 290.522 313.168L304.032 316.948C301.882 327.938 301.822 353.688 318.822 377.368Z" fill="url(#paint6_linear)"/>
<path d="M279.912 373.139L277.162 381.759C276.562 383.429 277.462 385.169 279.172 385.649L312.302 394.919C313.812 395.339 315.472 394.479 315.992 393.009L318.932 384.769C319.642 382.789 320.192 381.039 319.732 379.269L279.932 368.139C280.312 369.859 280.522 371.409 279.912 373.139Z" fill="url(#paint7_radial)"/>
<path d="M299.362 214.259L287.702 203.889C297.302 193.089 300.962 182.389 298.022 173.749C294.532 163.489 281.832 155.789 262.262 152.079L265.172 136.749C297.632 142.909 308.982 157.529 312.792 168.719C317.622 182.909 312.852 199.079 299.362 214.259Z" fill="#8A6FE8"/>
<path d="M255.342 171.649L270.252 153.799C272.482 151.129 272.132 147.149 269.452 144.919L268.332 143.989C265.662 141.759 261.682 142.109 259.452 144.789L244.542 162.639C242.312 165.309 242.662 169.289 245.342 171.519L246.462 172.449C249.132 174.679 253.112 174.319 255.342 171.649Z" fill="#8A6FE8"/>
<path d="M260.742 128.909L247.382 122.869C243.812 121.289 239.632 122.899 238.042 126.469C236.462 130.039 238.072 134.219 241.642 135.809L255.342 141.999L260.742 128.909Z" fill="#8A6FE8"/>
<path d="M253.512 132.159L233.292 132.199C229.382 132.219 226.232 135.409 226.262 139.319C226.282 143.229 229.472 146.379 233.382 146.349L248.422 146.359L253.512 132.159Z" fill="#8A6FE8"/>
<path d="M255.682 140.529L235.982 145.169C232.182 146.059 229.812 149.859 230.702 153.669C231.592 157.469 235.392 159.839 239.202 158.949L259.262 154.229L255.682 140.529Z" fill="#8A6FE8"/>
<path d="M259.482 157.959C267.661 157.959 274.292 151.328 274.292 143.149C274.292 134.969 267.661 128.339 259.482 128.339C251.302 128.339 244.672 134.969 244.672 143.149C244.672 151.328 251.302 157.959 259.482 157.959Z" fill="url(#paint8_radial)"/>
<path d="M299.492 211.949C295.342 191.769 285.312 178.969 285.312 178.969L289.522 176.899L289.582 176.769C267.402 146.919 226.402 136.209 191.842 153.219C152.902 172.389 136.882 219.489 156.052 258.429C175.222 297.369 222.322 313.389 261.262 294.219C291.982 279.089 308.442 246.569 304.592 214.399C304.302 213.099 303.252 211.019 299.492 211.949Z" fill="url(#paint9_radial)"/>
<path d="M299.492 211.949C295.392 192.019 285.562 179.299 285.322 178.989L212.172 214.999C212.172 214.999 207.332 216.799 209.402 221.009C211.472 225.219 217.502 237.029 223.982 250.179C225.312 252.889 228.172 253.099 229.912 252.239C229.922 252.239 299.892 214.889 299.492 211.949Z" fill="url(#paint10_radial)"/>
<path d="M255.372 233.739C255.372 233.739 262.232 219.299 263.622 216.569C265.002 213.839 266.882 212.809 269.752 213.549C272.622 214.299 288.222 217.559 288.222 217.559L255.372 233.739Z" fill="#A08BE8"/>
<path d="M304.712 215.349C304.712 215.349 304.812 210.629 299.492 211.949C299.492 211.929 227.552 247.299 227.552 247.299C225.882 248.119 223.232 248.189 222.252 246.659C222.822 247.819 223.412 248.999 223.992 250.189C225.202 252.639 227.662 253.039 229.412 252.459C229.582 252.399 229.762 252.339 229.922 252.249L234.842 249.829L304.712 215.349Z" fill="#512BD4"/>
<path d="M304.922 229.499L183.352 289.349C188.362 292.639 193.722 295.339 199.312 297.399L301.582 247.049C303.342 241.369 304.472 235.479 304.922 229.499Z" fill="#D0C5F3"/>
<path d="M197.372 145.269L183.902 152.279L178.602 137.459L188.282 132.429L197.372 145.269Z" fill="#8A6FE8"/>
<path d="M179.272 138.909C185.242 138.909 190.082 134.069 190.082 128.099C190.082 122.128 185.242 117.289 179.272 117.289C173.302 117.289 168.462 122.128 168.462 128.099C168.462 134.069 173.302 138.909 179.272 138.909Z" fill="#D0C5F3"/>
<path d="M206.922 151.039C207.532 150.719 207.742 149.949 207.362 149.379C203.322 143.359 195.312 141.199 188.732 144.629C182.142 148.049 179.312 155.849 181.922 162.609C182.172 163.249 182.932 163.519 183.532 163.209L206.922 151.039Z" fill="url(#paint11_radial)"/>
<path d="M275.475 264.655L298.512 253.22L288.397 232.843L265.36 244.278L275.475 264.655Z" fill="#512BD4"/>
<path d="M275.712 255.059C275.562 255.139 275.402 255.149 275.242 255.099C275.082 255.049 274.972 254.949 274.892 254.809C274.822 254.659 274.812 254.509 274.862 254.349C274.922 254.189 275.022 254.079 275.172 253.999C275.332 253.919 275.482 253.909 275.642 253.959C275.802 254.009 275.922 254.109 275.992 254.259C276.062 254.399 276.072 254.559 276.012 254.709C275.972 254.869 275.862 254.979 275.712 255.059Z" fill="white"/>
<path d="M281.802 251.949L280.802 252.439L276.132 249.589C276.012 249.519 275.902 249.439 275.802 249.339L275.782 249.349C275.862 249.459 276.002 249.709 276.192 250.109L278.012 253.809L277.132 254.249L274.352 248.609L275.412 248.089L279.952 250.879C280.142 250.989 280.272 251.079 280.332 251.119L280.352 251.109C280.252 250.969 280.112 250.729 279.942 250.369L278.152 246.739L279.032 246.309L281.802 251.949Z" fill="white"/>
<path d="M286.102 249.829L283.012 251.349L280.232 245.709L283.202 244.249L283.592 245.039L281.542 246.049L282.332 247.649L284.222 246.719L284.612 247.509L282.722 248.439L283.542 250.109L285.722 249.039L286.102 249.829Z" fill="white"/>
<path d="M288.092 242.819L286.512 243.599L288.902 248.449L287.992 248.899L285.602 244.049L284.022 244.829L283.632 244.039L287.702 242.029L288.092 242.819Z" fill="white"/>
<path d="M245.533 231.061C248.584 229.47 248.888 224.02 246.212 218.888C243.537 213.756 238.894 210.885 235.843 212.476C232.792 214.066 232.488 219.516 235.164 224.649C237.84 229.781 242.482 232.652 245.533 231.061Z" fill="#512BD4"/>
<path d="M290.084 208.633C293.181 207.134 293.648 201.696 291.127 196.486C288.606 191.276 284.051 188.268 280.954 189.767C277.857 191.265 277.391 196.704 279.912 201.913C282.433 207.123 286.987 210.131 290.084 208.633Z" fill="#512BD4"/>
<path d="M238.292 217.119C238.862 215.409 240.142 214.139 241.692 213.529C243.382 214.719 245.002 216.579 246.222 218.909C246.982 220.359 247.492 221.839 247.772 223.249C246.262 224.629 244.072 225.189 241.992 224.499C238.932 223.479 237.272 220.179 238.292 217.119Z" fill="#8065E0"/>
<path d="M282.972 194.289C283.542 192.579 284.822 191.309 286.382 190.699C288.182 191.919 289.912 193.939 291.152 196.499C291.782 197.799 292.232 199.119 292.492 200.389C290.982 201.789 288.772 202.349 286.682 201.659C283.612 200.649 281.962 197.349 282.972 194.289Z" fill="#8065E0"/>
<path d="M112.072 210.958C110.482 230.768 115.962 276.058 118.932 292.078C122.212 309.738 128.762 321.518 141.452 321.518L177.222 322.919C179.032 322.919 180.002 320.799 178.822 319.419C161.622 299.499 121.422 247.998 112.072 210.958Z" fill="#0064DA"/>
<path d="M180.442 256.809C163.092 255.869 149.302 252.779 139.452 247.629C129.832 242.599 123.742 235.629 121.352 226.909C115.892 206.939 132.352 184.969 145.192 176.399L153.512 188.889C144.202 195.099 132.682 211.449 135.822 222.949C138.762 233.689 154.892 240.399 181.252 241.829L180.442 256.809Z" fill="url(#paint12_linear)"/>
<path d="M183.202 264.538C191.171 264.538 197.632 258.078 197.632 250.108C197.632 242.139 191.171 235.678 183.202 235.678C175.232 235.678 168.772 242.139 168.772 250.108C168.772 258.078 175.232 264.538 183.202 264.538Z" fill="url(#paint13_radial)"/>
<path d="M176.592 195.339L153.362 196.569C149.882 196.749 146.912 194.079 146.732 190.599L146.652 189.139C146.472 185.659 149.142 182.689 152.622 182.509L175.852 181.279C179.332 181.099 182.302 183.769 182.482 187.249L182.562 188.709C182.742 192.189 180.062 195.159 176.592 195.339Z" fill="#8A6FE8"/>
<path d="M139.152 174.019L142.332 159.709C143.202 155.899 147.002 153.519 150.812 154.399C154.622 155.269 157.002 159.069 156.122 162.879L152.862 177.559L139.152 174.019Z" fill="#8A6FE8"/>
<path d="M146.092 170.189L158.252 154.039C160.612 150.929 165.052 150.319 168.162 152.679C171.272 155.039 171.882 159.479 169.522 162.589L160.512 174.629L146.092 170.189Z" fill="#8A6FE8"/>
<path d="M151.482 176.949L167.002 163.969C169.992 161.459 174.462 161.849 176.972 164.839C179.482 167.829 179.092 172.299 176.102 174.809L160.292 188.029L151.482 176.949Z" fill="#8A6FE8"/>
<path d="M151.302 196.369C159.481 196.369 166.112 189.738 166.112 181.559C166.112 173.379 159.481 166.749 151.302 166.749C143.122 166.749 136.492 173.379 136.492 181.559C136.492 189.738 143.122 196.369 151.302 196.369Z" fill="url(#paint14_radial)"/>
<defs>
<linearGradient id="paint0_linear" x1="414.634" y1="454.908" x2="414.634" y2="-0.00140996" gradientUnits="userSpaceOnUse">
<stop offset="0.221" stop-color="#C7E0F4"/>
<stop offset="0.3665" stop-color="#B6D4F5"/>
<stop offset="0.518" stop-color="#A8CBF6"/>
<stop offset="0.5978" stop-color="#9DC5F5"/>
<stop offset="0.856" stop-color="#7EB3F2"/>
<stop offset="1" stop-color="#72ACF1"/>
</linearGradient>
<linearGradient id="paint1_linear" x1="256.389" y1="274.266" x2="315.351" y2="313.725" gradientUnits="userSpaceOnUse">
<stop stop-color="#522CD5"/>
<stop offset="0.4397" stop-color="#8A6FE8"/>
</linearGradient>
<linearGradient id="paint2_linear" x1="256.389" y1="274.266" x2="315.351" y2="313.725" gradientUnits="userSpaceOnUse">
<stop offset="0.129" stop-color="#522CD5"/>
<stop offset="0.5785" stop-color="#8A6FE8"/>
</linearGradient>
<linearGradient id="paint3_linear" x1="313.942" y1="305.958" x2="399.959" y2="331.212" gradientUnits="userSpaceOnUse">
<stop stop-color="#522CD5"/>
<stop offset="0.4397" stop-color="#8A6FE8"/>
</linearGradient>
<radialGradient id="paint4_radial" cx="0" cy="0" r="1" gradientUnits="userSpaceOnUse" gradientTransform="translate(373.547 311.734) rotate(-44.6111) scale(26.9323)">
<stop offset="0.034" stop-color="#522CD5"/>
<stop offset="0.9955" stop-color="#8A6FE8"/>
</radialGradient>
<linearGradient id="paint5_linear" x1="273.112" y1="255.652" x2="298.707" y2="325.972" gradientUnits="userSpaceOnUse">
<stop offset="0.0624" stop-color="#522CD5"/>
<stop offset="0.3999" stop-color="#8A6FE8"/>
</linearGradient>
<linearGradient id="paint6_linear" x1="285.008" y1="314.479" x2="304.69" y2="397.093" gradientUnits="userSpaceOnUse">
<stop stop-color="#522CD5"/>
<stop offset="0.4397" stop-color="#8A6FE8"/>
</linearGradient>
<radialGradient id="paint7_radial" cx="0" cy="0" r="1" gradientUnits="userSpaceOnUse" gradientTransform="translate(303.22 359.537) rotate(15.629) scale(31.376)">
<stop offset="0.034" stop-color="#522CD5"/>
<stop offset="0.9955" stop-color="#8A6FE8"/>
</radialGradient>
<radialGradient id="paint8_radial" cx="0" cy="0" r="1" gradientUnits="userSpaceOnUse" gradientTransform="translate(259.482 135.825) scale(19.5319)">
<stop stop-color="#8065E0"/>
<stop offset="0.8628" stop-color="#512BD4"/>
</radialGradient>
<radialGradient id="paint9_radial" cx="0" cy="0" r="1" gradientUnits="userSpaceOnUse" gradientTransform="translate(239.773 201.794) scale(69.0146)">
<stop offset="0.4744" stop-color="#A08BE8"/>
<stop offset="0.8618" stop-color="#8065E0"/>
</radialGradient>
<radialGradient id="paint10_radial" cx="0" cy="0" r="1" gradientUnits="userSpaceOnUse" gradientTransform="translate(270.645 142.402) scale(89.5424)">
<stop offset="0.456" stop-color="#E1DFDD"/>
<stop offset="0.8188" stop-color="white"/>
</radialGradient>
<radialGradient id="paint11_radial" cx="0" cy="0" r="1" gradientUnits="userSpaceOnUse" gradientTransform="translate(193.63 149.436) scale(13.3839)">
<stop stop-color="#8065E0"/>
<stop offset="0.8628" stop-color="#512BD4"/>
</radialGradient>
<linearGradient id="paint12_linear" x1="150.763" y1="256.809" x2="150.763" y2="176.402" gradientUnits="userSpaceOnUse">
<stop offset="0.2296" stop-color="#9780E6"/>
<stop offset="0.9374" stop-color="#8A6FE8"/>
</linearGradient>
<radialGradient id="paint13_radial" cx="0" cy="0" r="1" gradientUnits="userSpaceOnUse" gradientTransform="translate(183.671 244.402) scale(16.5597)">
<stop stop-color="#8065E0"/>
<stop offset="0.8628" stop-color="#512BD4"/>
</radialGradient>
<radialGradient id="paint14_radial" cx="0" cy="0" r="1" gradientUnits="userSpaceOnUse" gradientTransform="translate(151.789 175.723) scale(19.4626)">
<stop stop-color="#8065E0"/>
<stop offset="0.8628" stop-color="#512BD4"/>
</radialGradient>
</defs>
</svg>
