<svg width="851" height="478" viewBox="0 0 851 478" fill="none" xmlns="http://www.w3.org/2000/svg">
<path d="M517.27 0.0389375C356.53 1.56894 308.94 35.6189 177.63 19.4189C9.97993 -1.26106 -59.9801 206.779 69.0899 343.499C169.75 450.119 491.59 510.269 670.57 458.719C795.54 422.719 842.82 332.169 849.68 244.799C863.05 74.5289 728.86 -1.98106 517.27 0.0389375Z" fill="url(#paint0_linear)"/>
<path d="M837.4 144.809C794.3 143.489 727.82 157.629 650.53 167.619C584.95 176.099 494.07 129.279 406.38 133.379C269.42 139.779 207.82 173.059 156.92 171.099C81.4301 168.179 52.2001 155.469 4.87012 151.849C1.77012 171.049 1.49012 191.299 4.27012 211.849L850.23 208.449C849.02 185.209 844.67 164.009 837.4 144.809Z" fill="#FEE1D6"/>
<path d="M72.4299 98.539C74.5065 98.539 76.1899 96.8556 76.1899 94.779C76.1899 92.7025 74.5065 91.019 72.4299 91.019C70.3533 91.019 68.6699 92.7025 68.6699 94.779C68.6699 96.8556 70.3533 98.539 72.4299 98.539Z" fill="#FEDBCE"/>
<path d="M849.69 244.799C849.9 242.179 850.07 239.579 850.2 236.999C850.28 235.529 850.32 234.089 850.37 232.629C850.41 231.629 850.46 230.619 850.49 229.629C850.49 229.549 850.5 229.469 850.5 229.379C850.55 227.419 850.57 225.469 850.58 223.539C850.58 223.529 850.58 223.519 850.58 223.509C850.58 222.979 850.6 222.449 850.6 221.929C850.6 219.689 850.56 217.479 850.51 215.269C850.5 215.059 850.51 214.839 850.5 214.619C850.43 212.229 850.33 209.859 850.2 207.509C850.2 207.499 850.2 207.489 850.2 207.479C850.2 207.469 850.2 207.459 850.2 207.449C850.13 206.259 850.04 205.079 849.96 203.899C849.9 203.029 849.84 202.159 849.77 201.289C849.67 200.029 849.56 198.769 849.43 197.519C849.36 196.819 849.29 196.129 849.21 195.439C848.89 192.459 848.53 189.509 848.1 186.599C730.35 178.699 592.96 174.169 446.23 174.169C281.72 174.169 128.95 179.869 2.43994 189.619C2.47994 191.079 2.54994 192.549 2.61994 194.019C2.63994 194.349 2.64994 194.679 2.66994 195.009C2.73994 196.289 2.81994 197.569 2.91994 198.849C2.92994 198.939 2.92994 199.039 2.93994 199.129C2.94994 199.259 2.95994 199.389 2.96994 199.509C3.08994 201.019 3.21994 202.529 3.36994 204.049C3.38994 204.259 3.40994 204.469 3.43994 204.679C3.56994 205.969 3.70994 207.269 3.86994 208.559C3.90994 208.899 3.94994 209.249 3.99994 209.599C4.17994 211.029 4.36994 212.469 4.57994 213.909C4.57994 213.929 4.57994 213.939 4.58994 213.959C4.58994 213.999 4.59994 214.029 4.59994 214.069C4.81994 215.589 5.05994 217.109 5.31994 218.639C5.33994 218.779 5.36994 218.929 5.38994 219.069C5.41994 219.239 5.44994 219.409 5.47994 219.589C5.68994 220.819 5.91994 222.059 6.14994 223.299C6.16994 223.429 6.19994 223.549 6.21994 223.679C6.25994 223.879 6.28994 224.069 6.32994 224.269C6.91994 227.279 7.56994 230.299 8.28994 233.319C8.30994 233.399 8.32994 233.469 8.33994 233.549C8.40994 233.829 8.47994 234.109 8.53994 234.389C8.84994 235.649 9.15994 236.909 9.48994 238.159C9.55994 238.429 9.62994 238.699 9.69994 238.969C10.0999 240.479 10.5199 241.989 10.9599 243.499C11.0299 243.739 11.0999 243.979 11.1699 244.219C11.5399 245.489 11.9299 246.759 12.3199 248.029C12.4399 248.399 12.5499 248.779 12.6699 249.149V249.159C13.0999 250.519 13.5399 251.879 13.9999 253.229C14.0499 253.369 14.0899 253.509 14.1399 253.649C14.6499 255.149 15.1799 256.639 15.7199 258.139C15.8399 258.479 15.9699 258.829 16.0999 259.169C16.5399 260.359 16.9899 261.539 17.4499 262.729C17.5499 262.999 17.6599 263.269 17.7599 263.539C17.7999 263.639 17.8399 263.739 17.8799 263.839C18.4699 265.329 19.0699 266.829 19.6899 268.319C19.6899 268.329 19.6999 268.339 19.7099 268.359V268.369C20.3199 269.829 20.9499 271.279 21.5999 272.739C21.6699 272.909 21.7499 273.079 21.8299 273.249C21.9299 273.469 22.0199 273.689 22.1199 273.899C22.6499 275.079 23.1899 276.259 23.7499 277.449C23.8899 277.749 24.0299 278.059 24.1699 278.359C24.1799 278.379 24.1799 278.389 24.1899 278.409C24.8899 279.879 25.5999 281.339 26.3299 282.799C26.4599 283.059 26.5999 283.319 26.7299 283.579C27.3399 284.789 27.9599 285.999 28.5999 287.209C28.8099 287.609 29.0299 288.019 29.2399 288.419C29.9099 289.669 30.5899 290.919 31.2799 292.169C31.3099 292.219 31.3299 292.269 31.3599 292.309C31.4499 292.469 31.5299 292.629 31.6199 292.779C32.4299 294.219 33.2499 295.649 34.0899 297.079C34.1899 297.249 34.2899 297.409 34.3799 297.569C34.4899 297.759 34.6099 297.949 34.7199 298.139C35.3899 299.259 36.0599 300.379 36.7499 301.489C36.9699 301.849 37.1899 302.209 37.4099 302.559C37.4299 302.589 37.4499 302.619 37.4699 302.649C38.3599 304.079 39.2599 305.499 40.1799 306.919C40.1899 306.939 40.2099 306.959 40.2199 306.979C40.2199 306.989 40.2299 306.989 40.2299 306.999C41.1299 308.389 42.0599 309.769 42.9999 311.149C43.0699 311.249 43.1299 311.339 43.1999 311.439C43.4099 311.739 43.6099 312.039 43.8199 312.339C44.5699 313.429 45.3399 314.529 46.1199 315.619C46.1999 315.729 46.2699 315.839 46.3499 315.949C46.5199 316.189 46.6899 316.429 46.8599 316.659C47.8599 318.039 48.8699 319.419 49.8999 320.789C49.9399 320.839 49.9699 320.889 50.0099 320.929C50.1699 321.139 50.3299 321.349 50.4899 321.549C51.3499 322.689 52.2299 323.819 53.1099 324.959C53.4199 325.359 53.7399 325.759 54.0499 326.159C54.9499 327.299 55.8699 328.429 56.7999 329.569C56.9999 329.809 57.1899 330.059 57.3899 330.299C58.4999 331.639 59.6299 332.979 60.7799 334.319C61.0799 334.669 61.3799 335.009 61.6799 335.359C62.5799 336.389 63.4899 337.419 64.4099 338.449C64.5399 338.589 64.6699 338.729 64.7899 338.879C65.0099 339.119 65.2199 339.359 65.4399 339.599C66.6399 340.929 67.8599 342.249 69.0999 343.559C169.76 450.179 491.6 510.329 670.58 458.779C795.54 422.729 842.83 332.169 849.69 244.799Z" fill="#ED9583"/>
<path d="M157.07 180.489L133.53 171.459L110.39 182.659C125.55 181.859 141.12 181.139 157.07 180.489Z" fill="#E86E58"/>
<path d="M56.74 174.479C48.04 175.679 43.6 179.479 43.6 179.479C43.6 179.479 27.13 172.089 13.46 174.129C9.51995 174.719 5.75995 176.829 2.38995 179.539C2.31995 183.069 2.33995 186.629 2.44995 190.199C27.31 187.969 53.97 185.979 82.22 184.269C77.82 181.539 63.99 173.479 56.74 174.479Z" fill="#E86E58"/>
<path d="M0.65 193.279C0.43 192.529 0.22 191.769 0 190.989C0.22 191.759 0.43 192.529 0.65 193.279Z" fill="#3E8EED"/>
<path d="M1.18994 195.089C1.24994 195.289 1.30994 195.509 1.36994 195.709C1.31994 195.499 1.24994 195.299 1.18994 195.089Z" fill="#3E8EED"/>
<path d="M326.82 39.959C328.897 39.959 330.58 38.2756 330.58 36.199C330.58 34.1224 328.897 32.439 326.82 32.439C324.743 32.439 323.06 34.1224 323.06 36.199C323.06 38.2756 324.743 39.959 326.82 39.959Z" fill="#FEDBCE"/>
<path d="M713.05 66.0588C716.507 66.0588 719.31 63.2561 719.31 59.7988C719.31 56.3415 716.507 53.5388 713.05 53.5388C709.593 53.5388 706.79 56.3415 706.79 59.7988C706.79 63.2561 709.593 66.0588 713.05 66.0588Z" fill="#7BDDEF"/>
<path d="M286.31 91.269C302.403 91.269 315.45 78.2226 315.45 62.129C315.45 46.0354 302.403 32.989 286.31 32.989C270.216 32.989 257.17 46.0354 257.17 62.129C257.17 78.2226 270.216 91.269 286.31 91.269Z" fill="url(#paint1_radial)"/>
<path d="M670.82 16.009C661.66 26.249 656.06 39.749 656.06 54.569C656.06 86.529 681.97 112.439 713.93 112.439C743.92 112.439 768.58 89.629 771.51 60.419C744.12 40.729 710.24 25.999 670.82 16.009Z" fill="url(#paint2_radial)"/>
<path d="M126.33 52.2089C125.1 55.8389 122.82 58.9789 119.83 61.2589C119.3 61.6489 119.28 62.3889 119.77 62.8189C122.75 65.4289 125.02 68.7889 126.3 72.6289C126.63 73.5889 127.92 73.5889 128.25 72.6289C129.54 68.7889 131.82 65.4289 134.78 62.8189C135.27 62.3889 135.25 61.6489 134.72 61.2589C131.72 58.9789 129.45 55.8389 128.22 52.2089C127.91 51.3089 126.64 51.3089 126.33 52.2089Z" fill="#FEDBCE"/>
<path d="M548.92 47.479C550.301 47.479 551.42 46.3597 551.42 44.979C551.42 43.5983 550.301 42.479 548.92 42.479C547.539 42.479 546.42 43.5983 546.42 44.979C546.42 46.3597 547.539 47.479 548.92 47.479Z" fill="#FEDBCE"/>
<path d="M471.97 62.699C474.737 62.699 476.98 60.4559 476.98 57.689C476.98 54.922 474.737 52.679 471.97 52.679C469.203 52.679 466.96 54.922 466.96 57.689C466.96 60.4559 469.203 62.699 471.97 62.699Z" fill="#FEDBCE"/>
<path d="M616.43 42.5888C615.2 46.2188 612.92 49.3588 609.93 51.6388C609.4 52.0288 609.38 52.7688 609.87 53.1988C612.85 55.8088 615.12 59.1688 616.4 63.0088C616.73 63.9688 618.02 63.9688 618.35 63.0088C619.64 59.1688 621.92 55.8088 624.88 53.1988C625.37 52.7688 625.35 52.0288 624.82 51.6388C621.82 49.3588 619.55 46.2188 618.32 42.5888C618.01 41.6888 616.74 41.6888 616.43 42.5888Z" fill="#FEDBCE"/>
<path d="M346.22 288.949C481.37 288.949 590.93 283.894 590.93 277.659C590.93 271.424 481.37 266.369 346.22 266.369C211.07 266.369 101.51 271.424 101.51 277.659C101.51 283.894 211.07 288.949 346.22 288.949Z" fill="#EA7F6B"/>
<path d="M850.1 205.979C849.83 201.629 849.45 197.359 848.96 193.149C629.11 178.349 282.08 174.159 3.16992 202.039C4.60992 218.349 7.97992 234.929 13.4099 251.409C226.93 213.779 542.19 190.849 763.83 219.759C894.77 236.839 801.43 215.359 766.63 207.359C732.24 199.449 784.73 200.509 850.1 205.979Z" fill="url(#paint3_radial)"/>
<path d="M529.42 121.389L518.75 136.399C516.38 139.739 511.42 139.739 509.04 136.399L498.37 121.389C495.57 117.449 498.39 111.979 503.22 111.979H524.56C529.4 111.979 532.22 117.439 529.42 121.389Z" fill="#D8604D"/>
<path d="M581.74 173.469C579.95 179.909 576.82 185.569 573.61 190.129C576.14 190.979 578.88 191.899 581.44 192.769C584.6 187.949 587.56 182.159 589.39 175.599C592.04 166.109 589.19 157.089 581.16 149.509C574.97 143.669 567.01 139.989 562.07 138.609L559.94 146.259C565.7 147.869 586.28 157.199 581.74 173.469Z" fill="#E86E58"/>
<path d="M568.43 209.699C569.12 209.149 570.73 207.829 572.59 206.109C571.45 207.279 570.11 208.549 568.51 209.929C567.54 210.759 567.44 212.219 568.27 213.189C569.1 214.159 569.55 215.039 570.52 214.209C577.7 208.009 586.16 199.119 580.61 191.059C580.52 190.919 580.43 190.789 580.33 190.659C580.32 190.649 580.31 190.629 580.3 190.619C580.29 190.609 580.28 190.599 580.28 190.599C580.25 190.569 580.23 190.529 580.2 190.499C579.16 189.289 577.75 188.609 576.12 188.529C572.4 188.359 568.24 191.539 566.44 193.079C566 193.459 565.7 193.739 565.59 193.849C564.67 194.729 564.64 196.199 565.53 197.119C566.41 198.039 567.87 198.059 568.8 197.179C570.21 195.819 572.89 193.479 574.99 193.579C575.37 193.599 575.74 193.909 575.75 193.909C575.98 195.659 571.54 201.299 565.55 206.089C564.56 206.879 564.39 208.339 565.19 209.339C565.98 210.329 567.43 210.489 568.43 209.699Z" fill="#FEE1D6"/>
<path d="M440.44 117.879C441.36 111.259 443.69 105.229 446.26 100.269C443.64 99.769 440.8 99.219 438.15 98.709C435.67 103.919 433.51 110.049 432.57 116.789C431.22 126.549 435.25 135.099 444.22 141.539C451.14 146.499 459.52 149.079 464.6 149.779L465.69 141.909C459.77 141.089 438.12 134.609 440.44 117.879Z" fill="#E86E58"/>
<path d="M490.86 91.739V71.219C490.86 70.269 492.08 71.159 492.62 71.939C494.39 74.499 496.96 77.689 497.83 82.989C499.2 91.329 490.86 91.739 490.86 91.739Z" fill="#FEE1D6"/>
<path d="M536.73 91.739V72.499C536.73 71.549 535.51 69.889 534.97 70.669C533.2 73.229 530.63 77.689 529.76 82.989C528.4 91.329 536.73 91.739 536.73 91.739Z" fill="#FEE1D6"/>
<path d="M510.36 204.739H502.42V286.439H510.36V204.739Z" fill="#E86E58"/>
<path d="M526.24 204.739H518.3V286.439H526.24V204.739Z" fill="#E86E58"/>
<path d="M477.71 157.559H466.43C462.14 157.559 458.66 154.079 458.66 149.789V143.059C458.66 138.769 462.14 135.289 466.43 135.289H477.71C482 135.289 485.48 138.769 485.48 143.059V149.789C485.48 154.079 482 157.559 477.71 157.559Z" fill="#D8604D"/>
<path d="M560.79 156.289H549.51C545.22 156.289 541.74 152.809 541.74 148.519V141.789C541.74 137.499 545.22 134.019 549.51 134.019H560.79C565.08 134.019 568.56 137.499 568.56 141.789V148.519C568.56 152.809 565.08 156.289 560.79 156.289Z" fill="#D8604D"/>
<path d="M513.55 128.479C498.16 128.479 484.64 130.789 476.88 134.279C472.51 136.249 470.8 149.209 472.48 155.899C477.77 176.979 491.45 210.609 513.89 210.609C536.19 210.609 549.46 177.639 554.63 156.469C556.31 149.589 554.39 136.059 549.69 134.049C541.85 130.689 528.59 128.479 513.55 128.479Z" fill="#F1A18E"/>
<path d="M540.3 286.449C539.91 285.089 537.29 276.339 533.42 275.609C530.51 275.059 518.31 278.679 518.31 278.679V286.449H540.3Z" fill="#9FCDB3"/>
<path d="M488.38 286.449C488.77 285.089 491.39 276.339 495.26 275.609C498.17 275.059 510.37 278.679 510.37 278.679V286.449H488.38Z" fill="#9FCDB3"/>
<path d="M513.72 122.919C521.89 122.919 530.08 122.079 536.28 120.429C537.88 115.759 538.78 110.509 538.78 104.969C538.78 85.389 527.56 69.509 513.72 69.509C499.88 69.509 488.66 85.379 488.66 104.969C488.66 110.509 489.56 115.759 491.16 120.429C497.7 122.079 505.56 122.919 513.72 122.919Z" fill="#E86E58"/>
<path d="M434.36 81.7391C434.49 82.6091 434.82 84.6691 435.38 87.1391C434.93 85.5691 434.51 83.7691 434.12 81.6891C433.88 80.4391 432.67 79.6091 431.42 79.8491C430.17 80.0891 429.34 81.2991 429.58 82.5491C431.35 91.8691 434.64 102.379 444.4 101.609C444.56 101.609 444.73 101.589 444.89 101.569C444.91 101.569 444.92 101.569 444.94 101.569C444.95 101.569 444.96 101.559 444.97 101.559C445.01 101.549 445.05 101.549 445.09 101.539C446.66 101.239 447.96 100.359 448.83 98.9891C450.84 95.8491 450.17 91.9391 449.73 89.6091C449.62 89.0391 449.53 87.3691 449.49 87.2091C449.18 85.9691 447.93 85.2191 446.69 85.5191C445.45 85.8291 444.7 87.0791 445 88.3191C445.47 90.2191 446.2 93.4891 445.07 95.2491C444.87 95.5691 444.41 95.7391 444.41 95.7391C442.78 95.0691 440.07 88.6291 438.92 81.0391C438.73 79.7891 437.55 78.9091 436.29 79.0991C435.04 79.2991 434.17 80.4791 434.36 81.7391Z" fill="#FEE1D6"/>
<path d="M492.6 106.709C492.84 107.149 493.19 107.579 493.72 107.989L507.59 118.749C510.68 121.139 517.12 121.139 520.21 118.749L534.08 107.989C534.61 107.579 534.96 107.149 535.2 106.709H492.6Z" fill="#F2A694"/>
<path d="M538.78 106.219C538.78 105.669 538.96 100.739 537.86 94.439C531.87 92.869 522.94 91.999 513.56 91.999C504.36 91.999 495.77 92.859 489.8 94.379C488.27 100.749 488.67 105.619 488.67 106.129C494.7 107.919 503.76 109.059 513.9 109.059C523.84 109.059 532.75 107.959 538.78 106.219Z" fill="#D8604D"/>
<path d="M522.83 104.469C525.708 104.469 528.04 102.136 528.04 99.2591C528.04 96.3817 525.708 94.0491 522.83 94.0491C519.953 94.0491 517.62 96.3817 517.62 99.2591C517.62 102.136 519.953 104.469 522.83 104.469Z" fill="#FEE1D6"/>
<path d="M504.59 104.469C507.467 104.469 509.8 102.136 509.8 99.2591C509.8 96.3817 507.467 94.0491 504.59 94.0491C501.712 94.0491 499.38 96.3817 499.38 99.2591C499.38 102.136 501.712 104.469 504.59 104.469Z" fill="#FEE1D6"/>
<path d="M522.16 103.189C523.877 103.189 525.27 101.797 525.27 100.079C525.27 98.3614 523.877 96.969 522.16 96.969C520.442 96.969 519.05 98.3614 519.05 100.079C519.05 101.797 520.442 103.189 522.16 103.189Z" fill="#F2A694"/>
<path d="M503.87 103.349C505.587 103.349 506.98 101.957 506.98 100.239C506.98 98.5213 505.587 97.1289 503.87 97.1289C502.152 97.1289 500.76 98.5213 500.76 100.239C500.76 101.957 502.152 103.349 503.87 103.349Z" fill="#F2A694"/>
<path d="M513.59 205.349C513.45 201.439 512.44 191.469 505.93 183.469C498.61 174.469 487.14 170.989 471.85 173.119L472.12 181.039C484.76 179.269 494.06 181.929 499.77 188.949C504.91 195.269 505.72 203.289 505.83 206.439L513.59 205.349Z" fill="#EB8875"/>
<path d="M510.08 209.249C509.32 209.369 508.6 209.879 508.22 210.659L501.64 223.859C501.05 225.049 501.46 226.409 502.56 226.899C503.66 227.389 505.03 226.829 505.62 225.639L512.2 212.439C512.79 211.249 512.38 209.889 511.28 209.399C510.9 209.229 510.49 209.179 510.08 209.249Z" fill="#FDC9B5"/>
<path d="M505.77 216.909C509.52 220.419 510.17 229.929 509.76 231.539C509.35 233.149 511.59 235.439 515.25 230.119C518.05 226.049 520.92 217.829 512.81 212.909C509.82 211.099 505.77 216.909 505.77 216.909Z" fill="#FDC9B5"/>
<path d="M513.82 214.449L507.56 215.479C504.39 215.999 501.68 213.809 501.49 210.589L501.05 203.089C500.86 199.869 503.28 196.839 506.44 196.319L512.7 195.289C515.87 194.769 518.58 196.959 518.77 200.179L519.21 207.679C519.4 210.899 516.98 213.929 513.82 214.449Z" fill="#D8604D"/>
<path d="M475.75 282.609C473.58 282.609 471.64 280.849 471.41 278.679L467.07 240.089C466.84 237.919 468.42 236.159 470.59 236.159C472.76 236.159 474.7 237.919 474.93 240.089L479.27 278.679C479.5 280.859 477.92 282.609 475.75 282.609Z" fill="#FDC9B5"/>
<path d="M466.06 286.539L465.83 284.369C465.47 280.919 467.97 278.119 471.42 278.119H484.18C487.63 278.119 490.72 280.919 491.09 284.369L491.32 286.539H466.06Z" fill="#106EBE"/>
<path d="M461.72 282.609C459.55 282.609 457.61 280.849 457.38 278.679L453.04 240.089C452.81 237.919 454.39 236.159 456.56 236.159C458.73 236.159 460.67 237.919 460.9 240.089L465.24 278.679C465.47 280.859 463.89 282.609 461.72 282.609Z" fill="#FDC9B5"/>
<path d="M408.15 213.099C407.26 209.289 405.64 199.399 409.84 189.969C414.56 179.369 424.72 173.009 440.04 171.089L441.84 178.799C429.18 180.389 420.9 185.389 417.22 193.649C413.91 201.089 415.22 209.039 415.93 212.119L408.15 213.099Z" fill="#EB8875"/>
<path d="M440.79 123.519L439.2 108.379C439.03 106.739 441.24 106.279 442.03 107.799L449.96 122.939C450.48 123.929 449.87 125.029 448.79 125.029H442.45C441.62 125.019 440.87 124.349 440.79 123.519Z" fill="#D8604D"/>
<path d="M463.24 123.519L461.65 108.379C461.48 106.739 459.17 106.279 458.7 107.799L453.95 122.939C453.64 123.929 454.48 125.029 455.56 125.029H461.9C462.72 125.019 463.33 124.349 463.24 123.519Z" fill="#D8604D"/>
<path d="M437.86 240.369H490.73C496.9 240.369 501.18 235.079 500 228.939L488.7 170.459C488.36 168.729 486.77 167.389 485.03 167.389H428.05C426.41 167.389 425.17 168.639 425.2 170.279L426.2 228.929C426.3 235.089 431.69 240.369 437.86 240.369Z" fill="#E86E58"/>
<path d="M461.4 172.739H453.54L451.33 151.689H459.18L461.4 172.739Z" fill="#D8604D"/>
<path d="M472.24 286.539L472.01 284.369C471.65 280.919 468.56 278.119 465.1 278.119H452.34C448.89 278.119 446.39 280.919 446.75 284.369L446.98 286.539H472.24Z" fill="#106EBE"/>
<path d="M412.55 215.949C413.31 215.869 414.14 216.179 414.71 216.819L424.51 227.839C425.39 228.829 425.35 230.249 424.42 231.019C423.49 231.779 422.01 231.599 421.13 230.599L411.33 219.579C410.45 218.589 410.49 217.169 411.42 216.399C411.76 216.139 412.15 215.989 412.55 215.949Z" fill="#FDC9B5"/>
<path d="M418.72 222.219C416.01 226.589 417.87 235.929 418.69 237.379C419.51 238.829 417.94 241.619 413.02 237.439C409.25 234.239 404.34 227.059 410.89 220.189C413.29 217.669 418.72 222.219 418.72 222.219Z" fill="#FDC9B5"/>
<path d="M410.31 221.939L416.62 221.299C419.81 220.979 421.86 218.149 421.2 214.999L419.66 207.649C419 204.489 415.88 202.199 412.69 202.519L406.38 203.159C403.19 203.479 401.14 206.309 401.8 209.459L403.34 216.809C403.99 219.969 407.11 222.269 410.31 221.939Z" fill="#D8604D"/>
<path d="M490 177.229L488.69 170.469C488.35 168.739 486.76 167.399 485.02 167.399H428.04C426.4 167.399 425.16 168.649 425.19 170.289L425.31 177.219H490V177.229Z" fill="#D8604D"/>
<path d="M485.74 147.489L482.83 132.419C481.62 126.169 475.89 121.379 469.62 121.379H433.97C427.7 121.379 422.97 126.169 423.08 132.419L423.34 147.489C423.37 149.139 424.82 150.569 426.48 150.569H446.93C448.23 154.439 452 157.339 456.14 157.339C460.29 157.339 463.45 154.449 463.93 150.569H483.26C484.91 150.559 486.06 149.139 485.74 147.489Z" fill="#EB8875"/>
<path d="M470.77 133.719H435.97C433.18 133.719 431.16 135.979 431.45 138.769C431.74 141.559 434.24 143.819 437.03 143.819H471.83C474.62 143.819 476.64 141.559 476.35 138.769C476.06 135.989 473.56 133.719 470.77 133.719Z" fill="#D8604D"/>
<path d="M450.987 141.19C452.371 139.732 452.181 137.305 450.562 135.769C448.944 134.233 446.51 134.17 445.126 135.629C443.743 137.087 443.933 139.514 445.551 141.05C447.17 142.586 449.604 142.648 450.987 141.19Z" fill="#FEE1D6"/>
<path d="M463.337 141.19C464.721 139.731 464.531 137.304 462.912 135.768C461.294 134.233 458.86 134.17 457.476 135.628C456.092 137.086 456.283 139.514 457.901 141.049C459.52 142.585 461.954 142.648 463.337 141.19Z" fill="#FEE1D6"/>
<path d="M434.241 173.647C434.903 172.95 434.812 171.79 434.039 171.056C433.266 170.323 432.103 170.293 431.441 170.99C430.78 171.687 430.87 172.847 431.644 173.581C432.417 174.315 433.58 174.344 434.241 173.647Z" fill="#FDC9B5"/>
<path d="M440.973 173.651C441.634 172.954 441.544 171.794 440.771 171.061C439.997 170.327 438.834 170.297 438.173 170.994C437.512 171.691 437.602 172.851 438.375 173.585C439.149 174.319 440.312 174.348 440.973 173.651Z" fill="#FDC9B5"/>
<path d="M447.712 173.649C448.373 172.951 448.283 171.792 447.509 171.058C446.736 170.324 445.573 170.295 444.912 170.992C444.25 171.689 444.341 172.849 445.114 173.582C445.887 174.316 447.05 174.346 447.712 173.649Z" fill="#FDC9B5"/>
<path d="M174.03 219.889H167.54V270.079H174.03V219.889Z" fill="#E86E58"/>
<path d="M209.04 219.889H202.55V270.079H209.04V219.889Z" fill="#E86E58"/>
<path d="M115.64 202.739C110.75 191.879 110.24 179.639 114.26 169.169C118.48 158.149 127.62 149.279 140.67 143.519L143.65 150.279C132.28 155.289 124.71 162.539 121.16 171.809C117.85 180.459 118.29 190.619 122.38 199.699L115.64 202.739Z" fill="#D8604D"/>
<path d="M241.93 153.119L241.77 145.729C254.62 145.459 263.51 140.619 265.56 132.789C267.66 124.759 262.02 115.449 251.2 109.069L254.95 102.699C268.69 110.799 275.66 123.339 272.71 134.659C271.61 138.859 266.15 152.609 241.93 153.119Z" fill="#D8604D"/>
<path d="M174.25 229.339H167.72C163.56 229.339 160.18 225.969 160.18 221.799V211.989C160.18 207.829 163.55 204.449 167.72 204.449H174.25C178.41 204.449 181.79 207.819 181.79 211.989V221.799C181.79 225.959 178.41 229.339 174.25 229.339Z" fill="#D8604D"/>
<path d="M209.21 229.339H202.68C198.52 229.339 195.14 225.969 195.14 221.799V211.989C195.14 207.829 198.51 204.449 202.68 204.449H209.21C213.37 204.449 216.75 207.819 216.75 211.989V221.799C216.74 225.959 213.37 229.339 209.21 229.339Z" fill="#D8604D"/>
<path d="M179.72 277.179C179.72 278.989 179.18 280.669 178.26 282.079C176.66 284.509 173.91 286.119 170.78 286.119C165.84 286.119 161.84 282.119 161.84 277.179C161.84 272.239 165.84 268.239 170.78 268.239C175.72 268.239 179.72 272.239 179.72 277.179Z" fill="#D8604D"/>
<path d="M170.79 263.519C163.25 263.519 157.13 269.629 157.13 277.179H184.44C184.44 269.639 178.33 263.519 170.79 263.519Z" fill="#FDC9B5"/>
<path d="M205.8 286.119C210.738 286.119 214.74 282.116 214.74 277.179C214.74 272.242 210.738 268.239 205.8 268.239C200.863 268.239 196.86 272.242 196.86 277.179C196.86 282.116 200.863 286.119 205.8 286.119Z" fill="#D8604D"/>
<path d="M205.8 263.519C198.26 263.519 192.14 269.629 192.14 277.179H219.45C219.46 269.639 213.34 263.519 205.8 263.519Z" fill="#FDC9B5"/>
<path d="M220.35 214.229H158.25C154.37 214.229 151.23 211.079 151.23 207.209V201.119C151.23 197.239 154.38 194.099 158.25 194.099H220.35C224.23 194.099 227.37 197.249 227.37 201.119V207.209C227.37 211.089 224.23 214.229 220.35 214.229Z" fill="#D8604D"/>
<path d="M188.32 121.239C188.28 121.239 188.25 121.239 188.21 121.239C188.17 121.239 188.14 121.239 188.1 121.239C165.07 121.239 139.29 130.179 139.29 148.399C139.29 166.619 147.88 193.429 154.42 199.619C160.82 205.689 178.19 205.359 187.95 205.299C197.71 205.359 215.61 205.679 222.01 199.619C228.54 193.429 237.14 166.619 237.14 148.399C237.13 130.179 211.35 121.239 188.32 121.239Z" fill="#E86E58"/>
<path d="M209.58 123.769C209.66 123.079 209.71 122.349 209.71 121.579V103.039C209.71 91.839 200.63 82.759 189.43 82.759H184.03C172.83 82.759 163.75 91.839 163.75 103.039V122.809C163.75 123.139 163.76 123.459 163.77 123.769H209.58Z" fill="#E86E58"/>
<path d="M211.59 127.779H162.51C161.32 127.779 160.35 126.809 160.35 125.619V123.749C160.35 122.559 161.32 121.589 162.51 121.589H211.59C212.78 121.589 213.75 122.559 213.75 123.749V125.619C213.75 126.819 212.78 127.779 211.59 127.779Z" fill="#FEE1D6"/>
<path d="M176.71 113.219C180.471 113.219 183.52 110.17 183.52 106.409C183.52 102.648 180.471 99.5991 176.71 99.5991C172.949 99.5991 169.9 102.648 169.9 106.409C169.9 110.17 172.949 113.219 176.71 113.219Z" fill="#FEE1D6"/>
<path d="M196.41 113.219C200.171 113.219 203.22 110.17 203.22 106.409C203.22 102.648 200.171 99.5991 196.41 99.5991C192.649 99.5991 189.6 102.648 189.6 106.409C189.6 110.17 192.649 113.219 196.41 113.219Z" fill="#FEE1D6"/>
<path d="M117.06 217.319C116.55 217.319 116.05 217.069 115.76 216.599C113.7 213.339 113.19 209.309 113.18 206.169C111.75 208.429 110.34 211.599 110.35 215.309C110.35 216.159 109.67 216.849 108.82 216.859C108.82 216.859 108.82 216.859 108.81 216.859C107.96 216.859 107.27 216.169 107.27 215.329C107.24 206.429 113.81 200.449 114.09 200.199C114.58 199.759 115.3 199.679 115.88 200.009C116.46 200.339 116.76 200.989 116.63 201.639C116.61 201.719 115.11 209.799 118.37 214.959C118.82 215.679 118.61 216.629 117.89 217.079C117.63 217.239 117.34 217.319 117.06 217.319Z" fill="#FEE1D6"/>
<path d="M124.17 215.369C123.79 215.369 123.41 215.229 123.12 214.949C117.65 209.799 115.24 202.229 115.14 201.909C114.89 201.099 115.34 200.229 116.15 199.979C116.96 199.729 117.82 200.179 118.08 200.989C118.1 201.059 120.36 208.119 125.23 212.699C125.85 213.279 125.88 214.259 125.3 214.879C124.99 215.209 124.58 215.369 124.17 215.369Z" fill="#FEE1D6"/>
<path d="M133.79 208.609C133.2 208.609 132.64 208.269 132.38 207.699C132.35 207.649 129.58 201.729 122.9 200.209C122.07 200.019 121.55 199.199 121.74 198.369C121.93 197.539 122.75 197.019 123.58 197.209C131.8 199.079 135.05 206.149 135.19 206.449C135.54 207.229 135.19 208.139 134.41 208.479C134.22 208.559 134 208.609 133.79 208.609Z" fill="#FEE1D6"/>
<path d="M118.44 205.469C121.671 205.469 124.29 202.85 124.29 199.619C124.29 196.388 121.671 193.769 118.44 193.769C115.209 193.769 112.59 196.388 112.59 199.619C112.59 202.85 115.209 205.469 118.44 205.469Z" fill="#EB8875"/>
<path d="M239.51 91.919C239.85 91.539 240.37 91.329 240.91 91.409C244.72 91.999 248.09 94.259 250.47 96.319C249.71 93.759 248.24 90.609 245.43 88.179C244.79 87.619 244.72 86.649 245.27 86.009C245.83 85.369 246.8 85.299 247.44 85.859C254.17 91.679 254.36 100.559 254.37 100.939C254.38 101.599 253.96 102.189 253.34 102.409C252.72 102.629 252.02 102.419 251.62 101.899C251.57 101.839 246.47 95.389 240.44 94.459C239.6 94.329 239.02 93.539 239.15 92.699C239.19 92.399 239.32 92.129 239.51 91.919Z" fill="#FEE1D6"/>
<path d="M236.31 98.549C236.56 98.269 236.91 98.069 237.32 98.029C244.8 97.279 252.09 100.449 252.39 100.579C253.17 100.919 253.52 101.829 253.18 102.609C252.84 103.389 251.93 103.739 251.15 103.399C251.08 103.369 244.28 100.429 237.63 101.089C236.78 101.169 236.03 100.559 235.95 99.709C235.89 99.279 236.04 98.859 236.31 98.549Z" fill="#FEE1D6"/>
<path d="M235.08 110.249C235.47 109.809 236.09 109.609 236.69 109.789C236.75 109.809 243.03 111.609 248.57 107.569C249.26 107.069 250.22 107.219 250.72 107.909C251.22 108.599 251.07 109.559 250.38 110.059C243.57 115.029 236.11 112.839 235.79 112.739C234.98 112.489 234.52 111.629 234.77 110.819C234.83 110.599 234.94 110.409 235.08 110.249Z" fill="#FEE1D6"/>
<path d="M251.94 110.429C255.171 110.429 257.79 107.81 257.79 104.579C257.79 101.348 255.171 98.729 251.94 98.729C248.709 98.729 246.09 101.348 246.09 104.579C246.09 107.81 248.709 110.429 251.94 110.429Z" fill="#EB8875"/>
<path d="M145.4 159.869C145.56 148.939 149.49 139.339 154.84 135.249C156.47 133.999 157.84 131.929 156.15 130.509C154.02 129.139 153.31 128.339 145.13 128.339C136.96 128.339 131.48 134.449 131.48 141.989V150.319C131.48 156.679 135.83 162.019 141.71 163.539C143.61 164.009 145.36 163.309 145.4 159.869Z" fill="#ED9583"/>
<path d="M230.39 159.869C230.23 148.939 226.3 139.339 220.95 135.249C219.32 133.999 217.95 131.929 219.64 130.509C221.77 129.139 222.48 128.339 230.66 128.339C238.84 128.339 244.31 134.449 244.31 141.989V150.319C244.31 156.679 239.96 162.019 234.08 163.539C232.18 164.009 230.44 163.309 230.39 159.869Z" fill="#ED9583"/>
<path d="M179.29 110.119C181.135 110.119 182.63 108.624 182.63 106.779C182.63 104.934 181.135 103.439 179.29 103.439C177.446 103.439 175.95 104.934 175.95 106.779C175.95 108.624 177.446 110.119 179.29 110.119Z" fill="#E86E58"/>
<path d="M199.12 109.939C200.965 109.939 202.46 108.444 202.46 106.599C202.46 104.754 200.965 103.259 199.12 103.259C197.275 103.259 195.78 104.754 195.78 106.599C195.78 108.444 197.275 109.939 199.12 109.939Z" fill="#E86E58"/>
<path d="M182.52 124.709C180.77 124.709 179.35 126.069 179.23 127.779H185.81C185.69 126.069 184.27 124.709 182.52 124.709Z" fill="#F1A18E"/>
<path d="M192.11 124.709C190.36 124.709 188.94 126.069 188.82 127.779H195.4C195.28 126.069 193.85 124.709 192.11 124.709Z" fill="#F1A18E"/>
<path d="M172.94 124.709C171.19 124.709 169.77 126.069 169.65 127.779H176.23C176.11 126.069 174.68 124.709 172.94 124.709Z" fill="#F1A18E"/>
<path d="M201.69 124.709C199.94 124.709 198.52 126.069 198.4 127.779H204.98C204.86 126.069 203.44 124.709 201.69 124.709Z" fill="#F1A18E"/>
<path d="M783.58 182.909L764.87 171.569L745.83 176.969L730.28 166.259L702.06 178.999C730.49 179.909 757.47 181.539 783.58 182.909Z" fill="#E86E58"/>
<path d="M846.74 178.479C842.57 176.309 836.01 173.999 828.22 175.159C821.32 176.189 813.5 180.369 807.47 184.219C821.41 185.039 834.98 185.929 848.13 186.879C847.71 184.049 847.25 181.249 846.74 178.479Z" fill="#E86E58"/>
<path d="M202.85 178.789C201.54 179.139 200.63 180.399 200.77 181.799C200.86 182.739 203.24 204.879 219.04 213.859C220.4 214.629 222.12 214.159 222.89 212.799C223.66 211.449 223.19 209.719 221.83 208.949C208.58 201.419 206.4 181.429 206.38 181.229C206.22 179.679 204.84 178.549 203.29 178.709C203.14 178.729 202.99 178.749 202.85 178.789Z" fill="#F1A18E"/>
<path d="M314.66 251.249C316.02 251.249 317.22 250.259 317.44 248.879C317.59 247.949 320.97 225.939 308 213.199C306.89 212.109 305.1 212.119 304.01 213.239C302.92 214.349 302.93 216.139 304.05 217.229C314.92 227.909 311.9 247.779 311.87 247.979C311.62 249.519 312.67 250.969 314.21 251.209C314.36 251.239 314.51 251.249 314.66 251.249Z" fill="#F1A18E"/>
<path d="M296.11 203.139H308.07C310.4 203.139 312.28 205.029 312.28 207.349V215.859C312.28 222.979 305.59 224.269 296.97 224.269C288.34 224.279 296.11 203.139 296.11 203.139Z" fill="#E86E58"/>
<path d="M264.98 256.859C253.74 256.859 244.6 265.999 244.6 277.239H239.47C239.47 263.169 250.91 251.729 264.98 251.729C279.05 251.729 290.49 263.169 290.49 277.239H285.36C285.36 265.999 276.22 256.859 264.98 256.859Z" fill="#F1A18E"/>
<path d="M288.41 286.169C292.397 286.169 295.63 282.937 295.63 278.949C295.63 274.962 292.397 271.729 288.41 271.729C284.422 271.729 281.19 274.962 281.19 278.949C281.19 282.937 284.422 286.169 288.41 286.169Z" fill="#D8604D"/>
<path d="M242.23 286.169C246.218 286.169 249.45 282.937 249.45 278.949C249.45 274.962 246.218 271.729 242.23 271.729C238.243 271.729 235.01 274.962 235.01 278.949C235.01 282.937 238.243 286.169 242.23 286.169Z" fill="#D8604D"/>
<path d="M233.15 203.139H221.19C218.86 203.139 216.98 205.029 216.98 207.349V215.859C216.98 222.979 223.67 224.269 232.29 224.269C240.91 224.269 233.15 203.139 233.15 203.139Z" fill="#E86E58"/>
<path d="M251.37 131.839H278.51C281.7 131.839 284.36 134.259 284.66 137.439L286.07 152.399C286.41 156.019 283.56 159.149 279.92 159.149H249.97C246.33 159.149 243.48 156.019 243.82 152.399L245.23 137.439C245.52 134.259 248.19 131.839 251.37 131.839Z" fill="#E86E58"/>
<path d="M242.22 184.539H287.67C294.36 184.539 299.79 179.109 299.79 172.419V161.909C299.79 155.219 294.36 149.789 287.67 149.789H242.22C235.53 149.789 230.1 155.219 230.1 161.909V172.419C230.09 179.109 235.52 184.539 242.22 184.539Z" fill="#FDC9B5"/>
<path d="M245.7 176.329H283.62C284.96 176.329 286.05 175.239 286.05 173.899V171.799C286.05 170.459 284.96 169.369 283.62 169.369H245.7C244.36 169.369 243.27 170.459 243.27 171.799V173.899C243.27 175.239 244.36 176.329 245.7 176.329Z" fill="#E86E58"/>
<path d="M272.92 146.459C275.83 146.459 278.19 144.099 278.19 141.189C278.19 138.278 275.83 135.919 272.92 135.919C270.009 135.919 267.65 138.278 267.65 141.189C267.65 144.099 270.009 146.459 272.92 146.459Z" fill="#FEE1D6"/>
<path d="M256.5 146.459C259.411 146.459 261.77 144.099 261.77 141.189C261.77 138.278 259.411 135.919 256.5 135.919C253.589 135.919 251.23 138.278 251.23 141.189C251.23 144.099 253.589 146.459 256.5 146.459Z" fill="#FEE1D6"/>
<path d="M281.21 169.399V170.779C281.21 171.519 280.61 172.119 279.87 172.119H277.03C276.29 172.119 275.69 171.519 275.69 170.779V169.399C275.69 169.389 275.69 169.379 275.69 169.369H281.2C281.2 169.379 281.21 169.389 281.21 169.399Z" fill="#FDC9B5"/>
<path d="M270.22 173.379H273.06C273.8 173.379 274.4 173.979 274.4 174.719V176.099C274.4 176.179 274.39 176.249 274.38 176.329H268.91C268.9 176.259 268.89 176.179 268.89 176.099V174.719C268.88 173.979 269.48 173.379 270.22 173.379Z" fill="#FDC9B5"/>
<path d="M267.59 169.399V170.779C267.59 171.519 266.99 172.119 266.25 172.119H263.41C262.67 172.119 262.07 171.519 262.07 170.779V169.399C262.07 169.389 262.07 169.379 262.07 169.369H267.58C267.59 169.379 267.59 169.389 267.59 169.399Z" fill="#FDC9B5"/>
<path d="M256.81 173.379H259.65C260.39 173.379 260.99 173.979 260.99 174.719V176.099C260.99 176.179 260.98 176.249 260.97 176.329H255.5C255.49 176.259 255.48 176.179 255.48 176.099V174.719C255.47 173.979 256.07 173.379 256.81 173.379Z" fill="#FDC9B5"/>
<path d="M254.18 169.399V170.779C254.18 171.519 253.58 172.119 252.84 172.119H250C249.26 172.119 248.66 171.519 248.66 170.779V169.399C248.66 169.389 248.66 169.379 248.66 169.369H254.17C254.18 169.379 254.18 169.389 254.18 169.399Z" fill="#FDC9B5"/>
<path d="M257.42 189.929H271.56C272.6 189.929 273.44 189.089 273.44 188.049V186.419C273.44 185.379 272.6 184.539 271.56 184.539H257.42C256.38 184.539 255.54 185.379 255.54 186.419V188.049C255.54 189.089 256.38 189.929 257.42 189.929Z" fill="#E86E58"/>
<path d="M257.42 195.059H271.56C272.6 195.059 273.44 194.219 273.44 193.179V191.549C273.44 190.509 272.6 189.669 271.56 189.669H257.42C256.38 189.669 255.54 190.509 255.54 191.549V193.179C255.54 194.219 256.38 195.059 257.42 195.059Z" fill="#E86E58"/>
<path d="M257.42 200.189H271.56C272.6 200.189 273.44 199.349 273.44 198.309V196.679C273.44 195.639 272.6 194.799 271.56 194.799H257.42C256.38 194.799 255.54 195.639 255.54 196.679V198.309C255.54 199.349 256.38 200.189 257.42 200.189Z" fill="#E86E58"/>
<path d="M296.57 200.189C298.2 200.189 299.53 201.509 299.53 203.149V227.809C299.53 246.089 284.76 260.909 266.55 260.909H263.08C244.87 260.909 230.1 246.089 230.1 227.809V203.149C230.1 201.519 231.42 200.189 233.06 200.189H296.57Z" fill="#FDC9B5"/>
<path d="M201.64 182.649C202.1 182.649 202.56 182.619 203.02 182.569C204.15 182.439 204.96 181.429 204.83 180.299C204.7 179.169 203.68 178.359 202.56 178.489C200.43 178.729 198.34 178.129 196.66 176.789C194.98 175.449 193.93 173.549 193.69 171.419C193.45 169.289 194.05 167.199 195.39 165.519C196.1 164.629 195.95 163.339 195.06 162.639C194.17 161.929 192.88 162.079 192.18 162.959C190.16 165.489 189.25 168.659 189.61 171.879C189.97 175.099 191.57 177.979 194.1 179.999C196.27 181.739 198.91 182.649 201.64 182.649Z" fill="#FDC9B5"/>
<path d="M202.79 182.649C203.2 182.649 203.61 182.529 203.97 182.279C206.62 180.419 208.39 177.639 208.95 174.449C209.51 171.259 208.8 168.039 206.94 165.389C206.49 164.749 205.98 164.149 205.42 163.609C204.6 162.819 203.3 162.849 202.52 163.659C201.73 164.479 201.76 165.779 202.57 166.559C202.94 166.919 203.28 167.319 203.58 167.739C204.81 169.489 205.28 171.619 204.91 173.729C204.54 175.839 203.37 177.679 201.61 178.909C200.68 179.559 200.46 180.839 201.11 181.769C201.51 182.349 202.15 182.649 202.79 182.649Z" fill="#FDC9B5"/>
<path d="M203.27 184.279C205.396 184.279 207.12 182.555 207.12 180.429C207.12 178.303 205.396 176.579 203.27 176.579C201.144 176.579 199.42 178.303 199.42 180.429C199.42 182.555 201.144 184.279 203.27 184.279Z" fill="#FEDBCE"/>
<path d="M317.22 248.349C316.85 248.069 316.47 247.819 316.07 247.579C315.1 246.999 313.84 247.319 313.26 248.299C312.68 249.269 313 250.539 313.98 251.109C315.82 252.209 317.13 253.949 317.65 256.029C318.18 258.109 317.87 260.259 316.77 262.099C315.68 263.939 313.93 265.249 311.85 265.769C310.75 266.049 310.09 267.169 310.37 268.269C310.65 269.369 311.77 270.029 312.86 269.749C316 268.949 318.64 266.979 320.29 264.199C321.94 261.419 322.42 258.149 321.62 255.019C320.94 252.319 319.4 249.999 317.22 248.349Z" fill="#FDC9B5"/>
<path d="M316.3 247.659C315.98 247.409 315.58 247.259 315.14 247.249C311.9 247.129 308.82 248.279 306.44 250.479C304.07 252.679 302.69 255.679 302.57 258.909C302.54 259.689 302.59 260.479 302.71 261.249C302.88 262.369 303.93 263.139 305.05 262.959C306.17 262.779 306.94 261.739 306.76 260.619C306.68 260.109 306.65 259.589 306.67 259.069C306.75 256.929 307.66 254.949 309.23 253.489C310.8 252.029 312.84 251.279 314.98 251.349C316.11 251.389 317.07 250.509 317.11 249.379C317.14 248.669 316.81 248.049 316.3 247.659Z" fill="#FDC9B5"/>
<path d="M314.58 252.989C316.706 252.989 318.43 251.265 318.43 249.139C318.43 247.013 316.706 245.289 314.58 245.289C312.454 245.289 310.73 247.013 310.73 249.139C310.73 251.265 312.454 252.989 314.58 252.989Z" fill="#FEDBCE"/>
<path d="M275.51 142.909C276.896 142.909 278.02 141.785 278.02 140.399C278.02 139.013 276.896 137.889 275.51 137.889C274.124 137.889 273 139.013 273 140.399C273 141.785 274.124 142.909 275.51 142.909Z" fill="#ED9583"/>
<path d="M259.09 142.909C260.476 142.909 261.6 141.785 261.6 140.399C261.6 139.013 260.476 137.889 259.09 137.889C257.704 137.889 256.58 139.013 256.58 140.399C256.58 141.785 257.704 142.909 259.09 142.909Z" fill="#ED9583"/>
<path d="M428.28 98.6788L433.24 89.4088C434.54 86.9288 433.59 83.8688 431.11 82.5588C428.63 81.2588 425.57 82.2088 424.26 84.6888L419.18 94.1888L428.28 98.6788Z" fill="#8A6FE8"/>
<path d="M423.99 99.189L413.49 103.039C417.53 114.039 418.31 124.029 415.81 132.739C413.62 140.399 408.83 147.269 401.58 153.169L408.64 161.849C422.11 150.889 435.71 131.119 423.99 99.189Z" fill="#8A6FE8"/>
<path d="M421.83 92.6289L416.12 69.7189C415.41 67.0089 412.64 65.3889 409.93 66.0889C407.22 66.7989 405.6 69.5689 406.3 72.2789L412.07 95.4489L421.83 92.6289Z" fill="#8A6FE8"/>
<path d="M421.72 99.519L408.89 84.109C407.05 81.999 403.85 81.779 401.74 83.619C399.63 85.459 399.41 88.659 401.25 90.769L414.26 106.379L421.72 99.519Z" fill="#8A6FE8"/>
<path d="M424.28 95.639L431.15 73.049C431.94 70.359 430.39 67.549 427.71 66.759C425.02 65.969 422.21 67.519 421.42 70.199L414.47 93.049L424.28 95.639Z" fill="#8A6FE8"/>
<path d="M419.07 109.729C424.93 109.729 429.68 104.979 429.68 99.119C429.68 93.2593 424.93 88.509 419.07 88.509C413.21 88.509 408.46 93.2593 408.46 99.119C408.46 104.979 413.21 109.729 419.07 109.729Z" fill="url(#paint4_radial)"/>
<path d="M344.33 239.319C347.05 230.329 351.09 212.069 346.27 196.739L335.6 202.209C339.97 216.109 335.89 232.289 333.64 239.349C333.45 239.929 338.73 240.489 344.33 239.319Z" fill="url(#paint5_linear)"/>
<path d="M333.67 239.249H342.08L336.82 284.229H319.95C318.67 284.229 318 283.189 318.45 281.909L333.67 239.249Z" fill="#522CD5"/>
<path d="M356.23 272.689C357.35 273.849 356.9 275.309 356.27 277.069L354.35 282.449C354.01 283.409 352.94 284.199 351.97 284.199H331.5C330.41 284.199 329.83 283.309 330.22 282.219L332.21 276.639C332.93 274.609 332.47 273.859 331.46 271.949C329.73 268.669 331.55 250.839 335.68 239.249H344.34C342.91 246.139 344.24 260.279 356.23 272.689Z" fill="url(#paint6_linear)"/>
<path d="M332.22 276.649L330.23 282.229C329.84 283.319 330.42 284.209 331.51 284.209H351.98C352.94 284.209 354.01 283.419 354.36 282.459L356.28 277.079C356.74 275.779 357.1 274.649 356.81 273.679H332.31C332.66 274.569 332.68 275.339 332.22 276.649Z" fill="url(#paint7_radial)"/>
<path d="M372.73 238.609C372.87 229.529 371.66 211.099 362.36 195.619L353.17 201.139C361.61 215.179 362.17 231.509 361.94 238.639C361.92 239.229 367.42 239.789 372.73 238.609Z" fill="url(#paint8_linear)"/>
<path d="M361.95 238.539H370.44L388.74 283.959H361.13C359.83 283.959 358.86 282.909 358.95 281.609L361.95 238.539Z" fill="#522CD5"/>
<path d="M399.23 272.039C400.79 273.069 400.72 274.959 400.6 276.729L400.22 282.169C400.15 283.139 399.3 283.939 398.33 283.939H382.78C381.68 283.939 380.85 283.049 380.92 281.939L381.06 276.309C381.2 274.259 380.75 273.289 378.94 271.569C371.96 264.949 363.17 250.249 363.99 238.549H372.73C373.27 245.489 381.14 260.079 399.23 272.039Z" fill="url(#paint9_linear)"/>
<path d="M400.59 276.729C400.67 275.539 400.72 274.299 400.27 273.299H380.45C381 274.179 381.14 275.029 381.05 276.299L380.91 281.929C380.83 283.029 381.66 283.929 382.77 283.929H398.32C399.29 283.929 400.15 283.129 400.21 282.159L400.59 276.729Z" fill="url(#paint10_radial)"/>
<path d="M355.54 208.829C387.086 208.829 412.66 183.255 412.66 151.709C412.66 120.162 387.086 94.5889 355.54 94.5889C323.993 94.5889 298.42 120.162 298.42 151.709C298.42 183.255 323.993 208.829 355.54 208.829Z" fill="url(#paint11_radial)"/>
<path d="M306.29 180.639H404.79C402.58 184.399 399.95 187.869 396.97 191.019H314.11C311.13 187.869 308.5 184.399 306.29 180.639Z" fill="#D8CFF7"/>
<path d="M360.98 91.519H349.94L351.5 80.189H359.43L360.98 91.519Z" fill="#8A6FE8"/>
<path d="M365.21 98.449C365.71 98.449 366.11 98.019 366.05 97.519C365.47 92.279 361.02 88.209 355.63 88.209C350.23 88.209 345.79 92.279 345.21 97.519C345.15 98.009 345.55 98.449 346.05 98.449H365.21Z" fill="url(#paint12_radial)"/>
<path d="M375.93 176.489H357.5V194.919H375.93V176.489Z" fill="#512BD4"/>
<path d="M360.79 188.269C360.66 188.269 360.55 188.229 360.46 188.139C360.37 188.049 360.32 187.949 360.32 187.819C360.32 187.699 360.37 187.589 360.46 187.499C360.55 187.409 360.66 187.369 360.79 187.369C360.92 187.369 361.03 187.409 361.13 187.499C361.22 187.589 361.27 187.699 361.27 187.819C361.27 187.939 361.22 188.049 361.13 188.139C361.03 188.219 360.92 188.269 360.79 188.269Z" fill="white"/>
<path d="M366 188.189H365.15L362.92 184.669C362.86 184.579 362.82 184.489 362.78 184.389H362.76C362.78 184.489 362.79 184.709 362.79 185.049V188.189H362.04V183.399H362.94L365.1 186.839C365.19 186.979 365.25 187.079 365.28 187.129H365.29C365.27 186.999 365.26 186.789 365.26 186.489V183.399H366V188.189Z" fill="white"/>
<path d="M369.65 188.189H367.03V183.399H369.55V184.069H367.81V185.429H369.42V186.099H367.81V187.519H369.66V188.189H369.65Z" fill="white"/>
<path d="M373.37 184.079H372.03V188.199H371.25V184.079H369.91V183.409H373.37V184.079Z" fill="white"/>
<path d="M355.61 82.5088C359.951 82.5088 363.47 78.9898 363.47 74.6488C363.47 70.3079 359.951 66.7888 355.61 66.7888C351.269 66.7888 347.75 70.3079 347.75 74.6488C347.75 78.9898 351.269 82.5088 355.61 82.5088Z" fill="#D0C5F3"/>
<path d="M408.74 151.709C408.74 157.899 407.55 163.799 405.39 169.219C404.87 170.529 403.59 171.389 402.18 171.389H329.72C328.31 171.389 327.04 170.529 326.51 169.219C324.35 163.799 323.16 157.899 323.16 151.709C323.16 149.179 323.36 146.699 323.75 144.279C324.01 142.619 325.47 141.409 327.15 141.409H404.75C406.43 141.409 407.89 142.619 408.15 144.279C408.54 146.699 408.74 149.179 408.74 151.709Z" fill="white"/>
<path d="M383.06 167.419C383.06 167.419 373.95 160.209 372.17 158.869C370.39 157.539 368.83 157.459 367.2 158.869C365.57 160.279 356.44 167.419 356.44 167.419H383.06Z" fill="#A08BE8"/>
<path d="M408.15 144.279C407.89 142.619 406.43 141.409 404.75 141.409H400.77C402.45 141.409 403.91 142.619 404.17 144.279C404.56 146.699 404.76 149.179 404.76 151.709C404.76 155.359 404.33 158.899 403.55 162.309C403.32 163.279 403.06 164.269 402.78 165.229C402.38 166.579 400.99 167.399 399.57 167.399H328.13C326.81 167.399 325.61 166.759 325.21 165.479C324.92 164.539 324.43 162.579 324.43 162.579C325.94 170.819 327.39 171.379 329.13 171.379H329.54H398.21H402.19C403.6 171.379 404.87 170.519 405.4 169.209C407.56 163.789 408.75 157.889 408.75 151.699C408.74 149.179 408.54 146.699 408.15 144.279Z" fill="#512BD4"/>
<path d="M349.131 161.177C351.566 161.141 353.491 157.794 353.43 153.702C353.369 149.61 351.346 146.323 348.91 146.359C346.475 146.395 344.55 149.742 344.611 153.834C344.672 157.926 346.696 161.214 349.131 161.177Z" fill="#512BD4"/>
<path d="M393.199 153.792C393.26 149.7 391.335 146.353 388.9 146.317C386.465 146.281 384.441 149.568 384.38 153.66C384.319 157.752 386.244 161.099 388.679 161.135C391.115 161.172 393.138 157.884 393.199 153.792Z" fill="#512BD4"/>
<path d="M390.01 146.589C391.9 147.439 393.26 150.349 393.21 153.799C393.21 153.899 393.2 153.989 393.2 154.089C391.61 155.049 389.52 154.849 388.15 153.479C386.54 151.869 386.54 149.259 388.15 147.649C388.68 147.119 389.32 146.769 390.01 146.589Z" fill="#8065E0"/>
<path d="M348.39 147.889C348.97 147.309 349.68 146.939 350.42 146.779C352.13 147.789 353.38 150.489 353.43 153.689C353.43 153.909 353.43 154.119 353.42 154.329C351.84 155.279 349.75 155.079 348.39 153.709C346.78 152.109 346.78 149.499 348.39 147.889Z" fill="#8065E0"/>
<path d="M295.87 217.019L305.58 211.459C299.76 201.289 297.32 191.569 298.32 182.569C299.2 174.649 302.77 167.079 308.93 160.049L300.52 152.679C289.07 165.739 278.97 187.509 295.87 217.019Z" fill="#8A6FE8"/>
<path d="M306.07 218.289L315.85 222.119C318.46 223.119 321.4 221.819 322.4 219.199C323.4 216.589 322.1 213.649 319.48 212.649L309.45 208.719L306.07 218.289Z" fill="#8A6FE8"/>
<path d="M295.93 220.919L299.14 230.919C300.01 233.579 302.88 235.029 305.54 234.149C308.2 233.279 309.65 230.409 308.77 227.749L305.48 217.489L295.93 220.919Z" fill="#8A6FE8"/>
<path d="M302.89 218.689L306.36 228.609C307.3 231.249 310.2 232.619 312.84 231.679C315.48 230.739 316.85 227.839 315.91 225.199L312.36 215.029L302.89 218.689Z" fill="#8A6FE8"/>
<path d="M291.12 218.489L292.32 228.929C292.66 231.709 295.19 233.689 297.97 233.349C300.75 233.009 302.73 230.479 302.39 227.699L301.16 216.999L291.12 218.489Z" fill="#8A6FE8"/>
<path d="M300.72 224.859C306.58 224.859 311.33 220.109 311.33 214.249C311.33 208.389 306.58 203.639 300.72 203.639C294.86 203.639 290.11 208.389 290.11 214.249C290.11 220.109 294.86 224.859 300.72 224.859Z" fill="url(#paint13_radial)"/>
<path d="M304.75 166.469C310.52 166.469 315.2 161.789 315.2 156.019C315.2 150.249 310.52 145.569 304.75 145.569C298.98 145.569 294.3 150.249 294.3 156.019C294.3 161.789 298.98 166.469 304.75 166.469Z" fill="url(#paint14_radial)"/>
<path d="M236.79 384.759L338.37 398.049C339.6 398.209 340.73 398.769 341.59 399.639L383.52 442.049C385.78 444.339 385.6 448.129 383.13 450.379C380.84 452.469 377.38 452.489 375.23 450.419L338.97 415.619C337.95 414.639 336.57 414.089 335.13 414.079L227.41 413.699C223.27 413.689 220.66 409.459 222.44 405.659L230.59 388.209C231.7 385.839 234.23 384.419 236.79 384.759Z" fill="#FEE7DE"/>
<path d="M566.96 254.539H351.17V385.609H566.96V254.539Z" fill="#ED9583"/>
<path d="M329.74 277.279C329.44 277.259 329.13 277.419 328.98 277.699L327.14 281.149C327.11 281.199 327.09 281.249 327.08 281.299L325.65 286.349C325.54 286.729 325.77 287.109 326.16 287.179C326.54 287.249 326.95 286.999 327.06 286.619L328.47 281.639L330.28 278.259C330.47 277.899 330.34 277.479 329.98 277.319C329.9 277.309 329.82 277.289 329.74 277.279Z" fill="#106EBE"/>
<path d="M332.07 278.609C331.8 278.589 331.52 278.719 331.35 278.959L328.77 282.719C328.74 282.759 328.72 282.799 328.7 282.849L326.86 287.099C326.7 287.469 326.87 287.869 327.24 287.999C327.61 288.129 328.04 287.929 328.2 287.559L330.01 283.369L332.54 279.669C332.77 279.329 332.69 278.899 332.36 278.699C332.28 278.649 332.17 278.619 332.07 278.609Z" fill="#106EBE"/>
<path d="M334.49 281.809C334.17 281.779 333.84 281.969 333.7 282.279C333.45 282.849 333.13 284.449 332.99 285.139L329.93 287.899C329.62 288.179 329.59 288.629 329.85 288.899C330.11 289.179 330.57 289.179 330.88 288.899L334.13 285.959C334.26 285.839 334.35 285.689 334.38 285.529C334.55 284.599 334.87 283.119 335.03 282.749C335.2 282.379 335.03 281.969 334.66 281.839C334.61 281.819 334.55 281.809 334.49 281.809Z" fill="#106EBE"/>
<path d="M325.53 294.599L323.51 293.589C323.18 293.429 323.07 293.029 323.25 292.689L324.21 290.929C324.24 290.869 324.27 290.809 324.28 290.749L325.38 285.999C325.49 285.539 326.01 285.279 326.42 285.479L331.41 287.859C331.83 288.059 331.89 288.619 331.52 288.959L327.63 292.559C327.58 292.599 327.54 292.659 327.5 292.709L326.47 294.309C326.28 294.629 325.86 294.759 325.53 294.599Z" fill="#106EBE"/>
<path d="M336.73 315.798C338.83 313.997 339.218 311.004 337.597 309.113C335.975 307.222 332.958 307.15 330.858 308.951C328.757 310.752 328.369 313.745 329.99 315.636C331.612 317.527 334.629 317.599 336.73 315.798Z" fill="#72ACF1"/>
<path d="M765.99 337.799L745.06 360.979L781.76 396.879C789.44 389.399 796.38 381.549 802.63 373.389L765.99 337.799Z" fill="#FEE7DE"/>
<path d="M689.78 301.709L610.11 237.289C609.14 236.509 607.96 236.069 606.74 236.049L547.11 234.919C543.89 234.859 541.27 237.599 541.35 240.949C541.42 244.049 543.79 246.569 546.77 246.699L596.97 248.969C598.39 249.029 599.73 249.649 600.73 250.699L675.28 328.459C678.14 331.449 683 330.429 684.53 326.519L691.55 308.589C692.51 306.139 691.78 303.329 689.78 301.709Z" fill="#FEE7DE"/>
<path d="M689.78 337.289L610.11 401.709C609.14 402.489 607.96 402.929 606.74 402.949L547.11 404.079C543.89 404.139 541.27 401.399 541.35 398.049C541.42 394.949 543.79 392.429 546.77 392.299L596.97 390.029C598.39 389.969 599.73 389.349 600.73 388.299L675.28 310.539C678.14 307.549 683 308.569 684.53 312.479L691.55 330.409C692.51 332.859 691.78 335.669 689.78 337.289Z" fill="#FEE7DE"/>
<path d="M750.64 297.209C752.91 297.299 755.21 297.589 757.51 298.099C779.2 302.919 793.13 325.099 788.62 347.639C784.11 370.179 762.87 384.549 741.18 379.729C739.67 379.399 738.21 378.969 736.78 378.469L736.77 378.519L671.38 355.489C668.72 354.549 667.14 351.689 667.71 348.839L678.32 295.819C678.83 293.289 681.06 291.539 683.55 291.749L750.64 297.209Z" fill="#FBC3AF"/>
<path d="M751.082 363.518C764.144 362.593 773.953 350.822 772.991 337.226C772.028 323.629 760.659 313.357 747.598 314.281C734.536 315.206 724.727 326.977 725.689 340.573C726.651 354.17 738.02 364.442 751.082 363.518Z" fill="#FEE7DE"/>
<path d="M750.085 349.423C755.665 349.028 759.856 343.996 759.444 338.184C759.033 332.372 754.176 327.981 748.595 328.376C743.014 328.771 738.824 333.802 739.235 339.614C739.646 345.427 744.504 349.818 750.085 349.423Z" fill="#ED9583"/>
<path d="M353.14 254.499H332.48C329.77 254.499 327.56 256.789 327.56 259.619V380.389C327.56 383.219 329.76 385.509 332.48 385.509H353.14V254.499Z" fill="white"/>
<path d="M565.05 385.499H585.19C587.9 385.499 590.11 383.209 590.11 380.379V259.619C590.11 256.789 587.91 254.499 585.19 254.499H565.05V385.499Z" fill="white"/>
<path d="M607.11 376.369V263.409C607.11 254.669 600.31 247.589 591.91 247.589H330.64C322.25 247.589 315.44 254.669 315.44 263.409V376.379C315.44 385.119 322.24 392.199 330.64 392.199H591.91C600.3 392.189 607.11 385.109 607.11 376.369ZM332.76 385.499C330.05 385.499 327.84 383.209 327.84 380.379V259.619C327.84 256.789 330.04 254.499 332.76 254.499H585.2C587.91 254.499 590.12 256.789 590.12 259.619V380.389C590.12 383.209 587.92 385.509 585.2 385.509H332.76V385.499Z" fill="#CC5444"/>
<path d="M340.1 327.429C345.187 327.429 349.31 323.135 349.31 317.839C349.31 312.543 345.187 308.249 340.1 308.249C335.014 308.249 330.89 312.543 330.89 317.839C330.89 323.135 335.014 327.429 340.1 327.429Z" fill="#CC5444"/>
<path d="M271.05 328.789L208.94 399.579C206.28 402.609 207.9 407.479 211.78 408.199C211.81 408.209 211.84 408.209 211.87 408.219C218.12 409.379 231.53 412.589 237.95 413.589C239.82 413.879 241.69 413.049 242.78 411.439L283.12 341.669C283.8 340.659 284.8 339.939 285.95 339.639L337.23 324.269C340.16 323.479 341.75 320.179 340.59 317.269L340.1 316.029C339.17 313.689 336.76 312.389 334.39 312.939L273.62 327.219C272.64 327.459 271.73 328.009 271.05 328.789Z" fill="#FEE7DE"/>
<path d="M258.55 441.009L274.18 417.189C275.73 414.829 275.25 411.599 273.06 409.679L232.47 373.949C230.53 372.239 227.7 372.209 225.84 373.879L181.18 414.079C205.14 424.109 231.18 433.129 258.55 441.009Z" fill="#FBC3AF"/>
<path d="M378.93 295.669V274.729H404.14V268.729H372.93V295.669H378.93Z" fill="white"/>
<path d="M378.93 341.619H372.93V370.739H404.14V364.739H378.93V341.619Z" fill="white"/>
<path d="M454.43 299.879C423.93 317.219 414.09 353.299 479.29 385.499C479.37 385.539 479.45 385.579 479.53 385.609H566.96V254.539H432.57C483.12 280.519 478.57 286.159 454.43 299.879Z" fill="#F4AC99"/>
<path d="M538.14 295.669V274.729H512.93V268.729H544.14V295.669H538.14Z" fill="white"/>
<path d="M538.14 341.619H544.14V370.739H512.93V364.739H538.14V341.619Z" fill="white"/>
<path d="M443.66 293.028L441.14 294.656L480.05 354.892L482.57 353.265L443.66 293.028Z" fill="#FDC9B5"/>
<path d="M451.03 274.415L448.51 276.043L469.834 309.055L472.354 307.427L451.03 274.415Z" fill="#FDC9B5"/>
<defs>
<linearGradient id="paint0_linear" x1="426.473" y1="477.459" x2="426.473" y2="-0.00105298" gradientUnits="userSpaceOnUse">
<stop offset="0.8604" stop-color="#FDC9B5"/>
<stop offset="1" stop-color="#F2A694"/>
</linearGradient>
<radialGradient id="paint1_radial" cx="0" cy="0" r="1" gradientUnits="userSpaceOnUse" gradientTransform="translate(330.658 35.9235) scale(65.6738)">
<stop stop-color="#F8B8A4"/>
<stop offset="0.9751" stop-color="#FEDBCE"/>
</radialGradient>
<radialGradient id="paint2_radial" cx="0" cy="0" r="1" gradientUnits="userSpaceOnUse" gradientTransform="translate(752.385 16.3434) scale(108.683)">
<stop stop-color="#F8B8A4"/>
<stop offset="1" stop-color="#FEDBCE"/>
</radialGradient>
<radialGradient id="paint3_radial" cx="0" cy="0" r="1" gradientUnits="userSpaceOnUse" gradientTransform="translate(433.426 289.044) scale(407.542)">
<stop offset="0.4896" stop-color="#F4AC99"/>
<stop offset="1" stop-color="#ED9583"/>
</radialGradient>
<radialGradient id="paint4_radial" cx="0" cy="0" r="1" gradientUnits="userSpaceOnUse" gradientTransform="translate(419.145 94.1212) rotate(179.703) scale(15.9126)">
<stop stop-color="#8065E0"/>
<stop offset="1" stop-color="#512BD4"/>
</radialGradient>
<linearGradient id="paint5_linear" x1="343.045" y1="197.332" x2="350.928" y2="238.011" gradientUnits="userSpaceOnUse">
<stop stop-color="#522CD5"/>
<stop offset="0.4397" stop-color="#8A6FE8"/>
</linearGradient>
<linearGradient id="paint6_linear" x1="334.907" y1="239.619" x2="355.541" y2="282.717" gradientUnits="userSpaceOnUse">
<stop stop-color="#522CD5"/>
<stop offset="0.4397" stop-color="#8A6FE8"/>
</linearGradient>
<radialGradient id="paint7_radial" cx="0" cy="0" r="1" gradientUnits="userSpaceOnUse" gradientTransform="translate(346.851 264.659) scale(19.1227)">
<stop offset="0.034" stop-color="#522CD5"/>
<stop offset="0.9955" stop-color="#8A6FE8"/>
</radialGradient>
<linearGradient id="paint8_linear" x1="359.219" y1="196.22" x2="368.103" y2="239.518" gradientUnits="userSpaceOnUse">
<stop stop-color="#522CD5"/>
<stop offset="0.4397" stop-color="#8A6FE8"/>
</linearGradient>
<linearGradient id="paint9_linear" x1="369.171" y1="235.664" x2="396.624" y2="285.133" gradientUnits="userSpaceOnUse">
<stop stop-color="#522CD5"/>
<stop offset="0.4397" stop-color="#8A6FE8"/>
</linearGradient>
<radialGradient id="paint10_radial" cx="0" cy="0" r="1" gradientUnits="userSpaceOnUse" gradientTransform="translate(390.106 264.194) scale(18.2062)">
<stop offset="0.034" stop-color="#522CD5"/>
<stop offset="0.9955" stop-color="#8A6FE8"/>
</radialGradient>
<radialGradient id="paint11_radial" cx="0" cy="0" r="1" gradientUnits="userSpaceOnUse" gradientTransform="translate(359.148 114.216) scale(61.256)">
<stop offset="0.186" stop-color="#A08BE8"/>
<stop offset="0.7272" stop-color="#8065E0"/>
</radialGradient>
<radialGradient id="paint12_radial" cx="0" cy="0" r="1" gradientUnits="userSpaceOnUse" gradientTransform="translate(355.978 90.8884) scale(13.8761)">
<stop stop-color="#8065E0"/>
<stop offset="1" stop-color="#512BD4"/>
</radialGradient>
<radialGradient id="paint13_radial" cx="0" cy="0" r="1" gradientUnits="userSpaceOnUse" gradientTransform="translate(299.896 208.733) rotate(171.037) scale(14.9734)">
<stop stop-color="#8065E0"/>
<stop offset="1" stop-color="#512BD4"/>
</radialGradient>
<radialGradient id="paint14_radial" cx="0" cy="0" r="1" gradientUnits="userSpaceOnUse" gradientTransform="translate(303.11 150.227) rotate(1.78779) scale(10.4516)">
<stop stop-color="#8065E0"/>
<stop offset="1" stop-color="#512BD4"/>
</radialGradient>
</defs>
</svg>
