<svg width="221" height="238" viewBox="0 0 221 238" fill="none" xmlns="http://www.w3.org/2000/svg">
<path d="M121.584 221.238L97.4332 221.358C97.4332 221.358 91.821 225.141 90.3286 227.867C89.189 229.952 89.2653 234.633 89.3654 236.718C89.394 237.302 89.8708 237.756 90.4526 237.756L113.745 237.713C114.494 237.713 115.095 237.101 115.09 236.35C115.066 233.763 115.509 228.254 116.477 226.681C117.932 224.332 121.584 221.238 121.584 221.238Z" fill="#D0C5F3"/>
<path d="M128.908 193.272C133.362 208.872 131.54 233.6 131.354 234.911C131.097 236.723 130.854 237.99 128.283 237.99C125.084 237.99 111.352 237.99 111.352 237.99L118.566 194.276L128.908 193.272Z" fill="#8065E0"/>
<path d="M114.709 195.682C113.632 203.334 106.022 214.094 91.5977 225.351C89.9098 226.666 89.042 228.058 89.042 230.014V236.278C89.042 237.206 89.7906 237.957 90.7156 237.957H113.87C114.523 237.957 115.053 237.426 115.053 236.771V229.54C115.053 227.288 115.506 226.131 117.809 224.471C123.578 220.32 127.221 206.318 127.34 196.357C127.459 186.395 114.709 195.682 114.709 195.682Z" fill="#A08BE8"/>
<path d="M89.256 228.474C89.1177 228.952 89.0366 229.459 89.0366 230.014V236.278C89.0366 237.206 89.7852 237.957 90.7103 237.957H113.865C114.518 237.957 115.047 237.426 115.047 236.771V229.54C115.047 229.153 115.061 228.804 115.095 228.474H89.256Z" fill="#D0C5F3"/>
<path d="M150.194 221.238L126.043 221.358C126.043 221.358 120.43 225.141 118.938 227.867C117.798 229.952 117.875 234.633 117.975 236.718C118.003 237.302 118.48 237.756 119.062 237.756L142.355 237.713C143.103 237.713 143.704 237.101 143.699 236.35C143.675 233.763 144.119 228.254 145.087 226.681C146.541 224.332 150.194 221.238 150.194 221.238Z" fill="#D0C5F3"/>
<path d="M157.517 193.272C161.971 208.872 160.15 233.6 159.964 234.911C159.706 236.723 159.463 237.99 156.893 237.99C153.693 237.99 139.961 237.99 139.961 237.99L147.175 194.276L157.517 193.272Z" fill="#8065E0"/>
<path d="M143.318 195.682C142.24 203.334 134.63 214.094 120.207 225.351C118.519 226.666 117.651 228.058 117.651 230.014V236.278C117.651 237.206 118.399 237.957 119.325 237.957H142.479C143.132 237.957 143.661 237.426 143.661 236.771V229.54C143.661 227.288 144.114 226.131 146.417 224.471C152.187 220.32 155.83 206.318 155.949 196.357C156.068 186.395 143.318 195.682 143.318 195.682Z" fill="#A08BE8"/>
<path d="M117.865 228.474C117.727 228.952 117.646 229.459 117.646 230.014V236.278C117.646 237.206 118.395 237.957 119.32 237.957H142.474C143.127 237.957 143.657 237.426 143.657 236.771V229.54C143.657 229.153 143.671 228.804 143.704 228.474H117.865Z" fill="#D0C5F3"/>
<path d="M115.229 145.383L115.267 179.547L127.497 179.538L127.459 145.369L115.229 145.383Z" fill="url(#paint0_linear)"/>
<path d="M127.44 164.464H115.2V166.066H127.44V164.464Z" fill="#A08BE8"/>
<path d="M128.055 179.098H115.591C113.755 179.098 112.267 180.59 112.267 182.431V195.362C112.267 197.203 113.755 198.695 115.591 198.695H128.055C129.89 198.695 131.378 197.203 131.378 195.362V182.431C131.378 180.59 129.89 179.098 128.055 179.098Z" fill="url(#paint1_radial)"/>
<path d="M144.314 145.383L144.353 179.547L156.583 179.538L156.545 145.369L144.314 145.383Z" fill="url(#paint2_linear)"/>
<path d="M156.526 164.464H144.286V166.066H156.526V164.464Z" fill="#A08BE8"/>
<path d="M157.141 179.098H144.677C142.841 179.098 141.354 180.59 141.354 182.431V195.362C141.354 197.203 142.841 198.695 144.677 198.695H157.141C158.977 198.695 160.464 197.203 160.464 195.362V182.431C160.464 180.59 158.977 179.098 157.141 179.098Z" fill="url(#paint3_radial)"/>
<path d="M25.1235 92.4684L27.4218 81.0151C28.056 77.9688 31.0313 76.0129 34.0687 76.6489C37.106 77.285 39.0562 80.269 38.422 83.3153L36.0666 95.0604L25.1235 92.4684Z" fill="#D0C5F3"/>
<path d="M84.5451 104.983L65.3054 120.545L57.7383 110.904L76.9827 95.3425L84.5451 104.983Z" fill="url(#paint4_linear)"/>
<path d="M67.279 103.23L66.1548 104.117L73.7181 113.757L74.8423 112.87L67.279 103.23Z" fill="#A08BE8"/>
<path d="M59.0865 111.319L34.6064 95.8768L28.095 106.26L52.575 121.702L59.0865 111.319Z" fill="#D0C5F3"/>
<path d="M46.0584 103.103L39.5469 113.487L40.7578 114.251L47.2692 103.867L46.0584 103.103Z" fill="#A08BE8"/>
<path d="M25.1093 108.25C31.6059 108.25 36.8725 102.968 36.8725 96.452C36.8725 89.9363 31.6059 84.6543 25.1093 84.6543C18.6127 84.6543 13.3462 89.9363 13.3462 96.452C13.3462 102.968 18.6127 108.25 25.1093 108.25Z" fill="url(#paint5_radial)"/>
<path d="M58.768 110.086L65.3004 120.545C65.3004 120.545 59.4785 125.815 52.5693 121.702C55.6544 114.371 57.39 110.244 57.39 110.244L58.768 110.086Z" fill="#A08BE8"/>
<path d="M188.883 166.205L178.045 170.475C175.15 171.595 171.899 170.146 170.783 167.243C169.667 164.34 171.112 161.078 174.006 159.959L185.121 155.579L188.883 166.205Z" fill="#D0C5F3"/>
<path d="M17.7093 100.062L6.31326 97.6475C3.28069 96.9827 1.35911 93.9795 2.02188 90.9381C2.68466 87.8966 5.67909 85.9694 8.71167 86.6341L20.3985 89.1113L17.7093 100.062Z" fill="#D0C5F3"/>
<path d="M20.341 93.5444L10.6806 87.0215C8.12005 85.2664 7.46204 81.7563 9.21197 79.1883C10.9619 76.6202 14.4618 75.9603 17.0223 77.7153L26.9306 84.4056L20.341 93.5444Z" fill="#D0C5F3"/>
<path d="M79.6192 106.834C75.4947 90.9524 78.1554 78.2749 78.1554 78.2749H74.4314L74.3408 78.2031C79.6764 49.0605 105.129 26.9763 135.731 26.9763C170.205 26.9763 198.152 55.0047 198.152 89.58C198.152 124.155 170.205 152.184 135.731 152.184C108.529 152.184 85.3935 134.729 76.8441 110.382C76.5914 109.35 76.6105 107.494 79.6192 106.834Z" fill="url(#paint6_radial)"/>
<path d="M76.954 111.105C76.954 111.105 75.2232 107.767 79.4812 106.834C75.4091 91.1485 77.9506 78.5952 78.0125 78.2892H142.774C142.774 78.2892 146.856 77.8731 146.856 81.6128C146.856 85.3525 146.703 95.9115 146.703 107.594C146.703 109.995 144.744 111.152 143.199 111.152H76.6965C76.8634 111.124 76.954 111.105 76.954 111.105Z" fill="url(#paint7_radial)"/>
<path d="M110.574 106.786C110.574 106.786 104.352 101.846 103.136 100.933C101.92 100.02 100.857 99.9669 99.7457 100.933C98.6348 101.899 92.3979 106.786 92.3979 106.786H110.574Z" fill="#A08BE8"/>
<path d="M76.954 111.105C76.954 111.105 75.2232 107.767 79.4812 106.834C79.4764 106.82 79.4716 106.801 79.4668 106.786H143.151C144.634 106.786 146.541 105.901 146.703 104.457C146.703 105.49 146.698 106.533 146.698 107.59C146.698 109.77 145.082 110.923 143.633 111.114C143.489 111.133 143.342 111.148 143.194 111.148H138.84H76.6965C76.8634 111.124 76.954 111.105 76.954 111.105Z" fill="url(#paint8_radial)"/>
<path d="M168.38 215.332H214.135C217.373 215.332 220 212.697 220 209.45V183.311C220 180.064 217.373 177.429 214.135 177.429H168.38C165.142 177.429 162.515 180.064 162.515 183.311V209.455C162.519 212.702 165.142 215.332 168.38 215.332Z" fill="#BF8F68"/>
<path d="M176.018 180.37V173.163C176.018 169.591 178.917 166.688 182.474 166.688H200.307C203.869 166.688 206.763 169.596 206.763 173.163V180.37C206.763 183.942 203.864 186.845 200.307 186.845H182.474C178.917 186.845 176.018 183.942 176.018 180.37ZM182.474 170.031C180.753 170.031 179.356 171.437 179.356 173.158V180.365C179.356 182.091 180.758 183.493 182.474 183.493H200.307C202.029 183.493 203.426 182.087 203.426 180.365V173.158C203.426 171.432 202.024 170.031 200.307 170.031H182.474Z" fill="#BF8F68"/>
<path d="M165.581 185.798L162.52 183.316C162.52 180.069 165.147 177.434 168.384 177.434H214.14C217.378 177.434 220.005 180.069 220.005 183.316V186.132L194.676 192.918L165.581 185.798Z" fill="#E0BB95"/>
<path d="M198.824 160.352L198.81 172.034C198.786 175.148 196.25 177.649 193.145 177.625C190.041 177.601 187.548 175.057 187.571 171.944L187.586 159.964L198.824 160.352Z" fill="#D0C5F3"/>
<path d="M190.728 160.352L190.418 172.03C190.313 175.143 187.714 177.577 184.615 177.472C181.511 177.367 179.084 174.76 179.189 171.652L179.508 159.677L190.728 160.352Z" fill="#D0C5F3"/>
<path d="M203.841 158.482L203.826 170.165C203.802 173.278 201.266 175.779 198.162 175.755C195.057 175.731 192.564 173.187 192.588 170.074L192.602 158.094L203.841 158.482Z" fill="#D0C5F3"/>
<path d="M168.38 177.434H172.99C169.753 177.434 167.126 180.069 167.126 183.316V209.455C167.126 212.702 169.753 215.337 172.99 215.337H168.38C165.142 215.337 162.515 212.702 162.515 209.455V183.316C162.519 180.064 165.142 177.434 168.38 177.434Z" fill="#9B643D"/>
<path d="M81.7744 121.286H189.417C186.999 125.403 184.129 129.215 180.867 132.658H90.319C87.0623 129.215 84.1871 125.403 81.7744 121.286Z" fill="url(#paint9_radial)"/>
<path d="M94.8485 135.906L114.994 135.906L114.994 118.035L94.8485 118.035L94.8485 135.906Z" fill="#512BD4"/>
<path d="M99.2885 129.839C99.1529 129.839 99.0406 129.797 98.9424 129.708C98.8488 129.619 98.7974 129.511 98.7974 129.38C98.7974 129.254 98.8395 129.141 98.933 129.048C99.0266 128.954 99.1389 128.907 99.2745 128.903C99.4102 128.903 99.5271 128.945 99.6207 129.034C99.7189 129.123 99.7704 129.235 99.7704 129.361C99.7704 129.488 99.7236 129.595 99.63 129.689C99.5411 129.792 99.4242 129.839 99.2885 129.839Z" fill="white"/>
<path d="M104.658 129.68L103.783 129.694L101.426 126.094C101.365 126.005 101.318 125.907 101.276 125.809H101.257C101.276 125.916 101.29 126.141 101.295 126.487L101.346 129.726L100.574 129.74L100.5 124.798L101.43 124.784L103.709 128.299C103.807 128.444 103.868 128.547 103.896 128.598H103.91C103.886 128.467 103.872 128.247 103.868 127.934L103.821 124.746L104.588 124.732L104.658 129.68Z" fill="white"/>
<path d="M108.425 129.623L105.721 129.666L105.646 124.723L108.242 124.681L108.252 125.378L106.455 125.406L106.479 126.806L108.135 126.782L108.144 127.475L106.488 127.498L106.511 128.959L108.415 128.931L108.425 129.623Z" fill="white"/>
<path d="M112.204 125.317L110.819 125.341L110.885 129.586L110.085 129.6L110.019 125.355L108.639 125.378L108.63 124.681L112.194 124.625L112.204 125.317Z" fill="white"/>
<path d="M168.804 33.3653L157.956 28.0762L164.899 17.651L172.685 21.4481L168.804 33.3653Z" fill="#D0C5F3"/>
<path d="M172.771 22.9736C179.097 22.9736 184.224 17.8308 184.224 11.4868C184.224 5.14282 179.097 0 172.771 0C166.446 0 161.318 5.14282 161.318 11.4868C161.318 17.8308 166.446 22.9736 172.771 22.9736Z" fill="url(#paint10_radial)"/>
<path d="M169.648 42.2172C170.139 42.4563 170.735 42.222 170.916 41.7055C172.842 36.2586 170.425 30.1183 165.123 27.5311C159.82 24.9487 153.507 26.8377 150.432 31.7203C150.141 32.1794 150.327 32.7963 150.818 33.0354L169.648 42.2172Z" fill="url(#paint11_radial)"/>
<path d="M198.319 164.699C205.156 156.636 211.784 141.558 207.951 125.58C205.624 115.882 198.514 102.516 177.863 93.9174L173.109 105.399C185.645 110.617 193.527 118.603 195.897 128.488C198.467 139.19 194.223 150.338 188.878 156.641L198.319 164.699Z" fill="url(#paint12_linear)"/>
<path d="M191.964 102.073L184.233 111.578L185.341 112.485L193.072 102.98L191.964 102.073Z" fill="#A08BE8"/>
<path d="M196.457 138.026L196.3 139.452L208.456 140.8L208.613 139.374L196.457 138.026Z" fill="#A08BE8"/>
<path d="M207.364 123.414L194.352 123.921C194.151 123.466 193.937 123.022 193.708 122.577L203.459 114.552C205.285 117.618 206.525 120.631 207.364 123.414Z" fill="#A08BE8"/>
<path d="M192.516 172.369C199.013 172.369 204.279 167.087 204.279 160.572C204.279 154.056 199.013 148.774 192.516 148.774C186.019 148.774 180.753 154.056 180.753 160.572C180.753 167.087 186.019 172.369 192.516 172.369Z" fill="url(#paint13_radial)"/>
<path d="M172.328 109.249C178.658 109.249 183.79 104.102 183.79 97.7527C183.79 91.4034 178.658 86.2563 172.328 86.2563C165.997 86.2563 160.865 91.4034 160.865 97.7527C160.865 104.102 165.997 109.249 172.328 109.249Z" fill="url(#paint14_radial)"/>
<path d="M16.9368 107.915L33.6398 101.942C34.6364 101.588 35.1513 100.488 34.7985 99.4934L23.1641 66.7641C22.8112 65.7646 21.7146 65.2481 20.7228 65.602L4.01976 71.5702C3.02321 71.9241 2.50824 73.024 2.86109 74.0187L14.4955 106.748C14.8483 107.747 15.9403 108.269 16.9368 107.915Z" fill="#605D5A"/>
<path d="M7.25284 73.0097C7.31006 73.1149 7.37682 73.2201 7.47218 73.3109L8.2494 74.057C8.83112 74.6117 9.67509 74.7934 10.4285 74.5208L17.9241 71.838C18.6822 71.5654 19.221 70.8912 19.3212 70.0925L19.4547 69.0213C19.469 68.8922 19.4594 68.7679 19.4356 68.6483L20.518 68.261C21.0282 68.0792 21.5861 68.347 21.7672 68.8539L32.4719 98.9722C32.653 99.4839 32.386 100.043 31.8806 100.225L17.5712 105.342C17.061 105.524 16.5032 105.256 16.322 104.749L5.61735 74.6308C5.43616 74.1191 5.70318 73.5596 6.20861 73.3779L7.25284 73.0097Z" fill="#BBE5E0"/>
<path d="M30.8076 94.2952L32.4717 98.9817C32.6529 99.4934 32.3859 100.053 31.8804 100.235L17.5711 105.352C17.0609 105.533 16.503 105.266 16.3218 104.759L14.6577 100.072L30.8076 94.2952Z" fill="#6ECFC3"/>
<path d="M19.9405 77.7679L22.4772 76.8593C22.9111 76.7063 23.1352 76.2281 22.9826 75.7929L22.1816 73.5453C22.029 73.1101 21.5522 72.8853 21.1183 73.0383L18.5816 73.947C18.1477 74.1 17.9236 74.5782 18.0762 75.0134L18.8772 77.261C19.0298 77.6962 19.5066 77.921 19.9405 77.7679Z" fill="#92D5CD"/>
<path d="M14.9723 79.5421L17.509 78.6335C17.9429 78.4804 18.167 78.0022 18.0144 77.5671L17.2133 75.3194C17.0607 74.8842 16.5839 74.6595 16.15 74.8125L13.6133 75.7211C13.1794 75.8742 12.9553 76.3524 13.1079 76.7876L13.909 79.0352C14.0615 79.4704 14.5384 79.6999 14.9723 79.5421Z" fill="#92D5CD"/>
<path d="M21.5855 82.3923L24.1222 81.4837C24.5561 81.3307 24.7802 80.8524 24.6277 80.4173L23.8266 78.1696C23.674 77.7345 23.1972 77.5097 22.7633 77.6627L20.2266 78.5713C19.7927 78.7244 19.5686 79.2026 19.7212 79.6378L20.5222 81.8854C20.6748 82.3206 21.1516 82.5453 21.5855 82.3923Z" fill="#92D5CD"/>
<path d="M16.6173 84.1665L19.154 83.2579C19.5879 83.1048 19.812 82.6266 19.6594 82.1914L18.8583 79.9438C18.7058 79.5086 18.2289 79.2839 17.795 79.4369L15.2584 80.3455C14.8244 80.4985 14.6003 80.9768 14.7529 81.4119L15.554 83.6596C15.7066 84.0948 16.1834 84.3243 16.6173 84.1665Z" fill="#92D5CD"/>
<path d="M23.2306 87.0167L25.7673 86.1081C26.2012 85.9551 26.4253 85.4768 26.2727 85.0417L25.4716 82.794C25.319 82.3589 24.8422 82.1341 24.4083 82.2871L21.8716 83.1957C21.4377 83.3488 21.2136 83.827 21.3662 84.2622L22.1673 86.5098C22.3198 86.945 22.7967 87.1745 23.2306 87.0167Z" fill="#92D5CD"/>
<path d="M18.2623 88.7956L20.799 87.887C21.2329 87.734 21.457 87.2558 21.3044 86.8206L20.5034 84.573C20.3508 84.1378 19.874 83.913 19.4401 84.0661L16.9034 84.9747C16.4695 85.1277 16.2454 85.6059 16.3979 86.0411L17.199 88.2887C17.3516 88.7239 17.8284 88.9487 18.2623 88.7956Z" fill="#92D5CD"/>
<path d="M10.0084 81.3162L12.5451 80.4076C12.979 80.2546 13.2031 79.7764 13.0505 79.3412L12.2495 77.0936C12.0969 76.6584 11.6201 76.4337 11.1861 76.5867L8.64946 77.4953C8.21556 77.6483 7.99145 78.1265 8.14403 78.5617L8.94509 80.8093C9.09767 81.2445 9.57449 81.4741 10.0084 81.3162Z" fill="#92D5CD"/>
<path d="M11.6534 85.9454L14.1901 85.0368C14.624 84.8838 14.8481 84.4056 14.6955 83.9704L13.8945 81.7227C13.7419 81.2876 13.2651 81.0628 12.8312 81.2158L10.2945 82.1245C9.86058 82.2775 9.63647 82.7557 9.78905 83.1909L10.5901 85.4385C10.7379 85.8737 11.2195 86.0984 11.6534 85.9454Z" fill="#92D5CD"/>
<path d="M13.2936 90.5698L15.8302 89.6612C16.2641 89.5082 16.4882 89.0299 16.3357 88.5948L15.5346 86.3471C15.382 85.912 14.9052 85.6872 14.4713 85.8402L11.9346 86.7488C11.5007 86.9019 11.2766 87.3801 11.4292 87.8153L12.2302 90.0629C12.3828 90.4981 12.8597 90.7228 13.2936 90.5698Z" fill="#92D5CD"/>
<path d="M10.0468 110.569H14.9724C18.0574 110.569 20.5607 108.058 20.5607 104.964C20.5607 101.87 18.0574 99.3595 14.9724 99.3595H10.0468C6.9618 99.3595 4.4585 101.87 4.4585 104.964C4.4585 108.063 6.9618 110.569 10.0468 110.569Z" fill="#D0C5F3"/>
<path d="M5.58833 101.497H10.5139C13.5989 101.497 16.1022 98.9864 16.1022 95.8923C16.1022 92.7982 13.5989 90.2876 10.5139 90.2876H5.58833C2.50331 90.2876 0 92.7935 0 95.8923C0 98.9864 2.50331 101.497 5.58833 101.497Z" fill="#D0C5F3"/>
<path d="M132.489 92.6473C132.556 88.0997 130.425 84.3805 127.729 84.3402C125.033 84.2999 122.792 87.9538 122.724 92.5014C122.657 97.0489 124.788 100.768 127.484 100.808C130.181 100.849 132.421 97.1949 132.489 92.6473Z" fill="#512BD4"/>
<path d="M88.4047 100.782C91.101 100.742 93.232 97.0225 93.1645 92.4749C93.0969 87.9273 90.8563 84.2735 88.16 84.3138C85.4636 84.3541 83.3326 88.0733 83.4002 92.6208C83.4677 97.1684 85.7083 100.822 88.4047 100.782Z" fill="#512BD4"/>
<path d="M127.645 88.4513C126.648 87.4519 125.304 87.0119 124.002 87.1315C123.234 88.5661 122.753 90.4407 122.724 92.5019C122.705 93.7883 122.867 95.0029 123.163 96.0933C124.703 96.5332 126.434 96.1459 127.645 94.9312C129.428 93.1427 129.428 90.2399 127.645 88.4513Z" fill="#8065E0"/>
<path d="M88.35 88.1883C87.3534 87.1888 86.004 86.7488 84.7023 86.8684C83.8727 88.3652 83.372 90.3881 83.4054 92.6214C83.4245 93.7595 83.577 94.8403 83.8393 95.8254C85.389 96.2797 87.1293 95.8924 88.35 94.6681C90.1285 92.8748 90.1285 89.9768 88.35 88.1883Z" fill="#8065E0"/>
<path d="M88.1738 63.6749C89.28 63.9857 90.4959 63.5218 91.1015 62.4841C99.0405 48.8501 112.749 39.6826 127.936 37.2198C132.036 36.5551 131.669 31.3616 127.182 32.0837C110.46 34.7809 95.369 44.8617 86.6337 59.8634C85.9137 61.102 86.3285 62.6897 87.5635 63.4118C87.7589 63.5314 87.964 63.6175 88.1738 63.6749Z" fill="url(#paint15_radial)"/>
<path d="M188.372 108.857C187.247 108.642 186.069 109.206 185.554 110.292C176.962 128.397 158.5 140.104 138.516 140.123C137.086 140.123 135.932 141.29 135.932 142.72C135.932 144.154 137.095 145.312 138.521 145.312C160.483 145.292 180.781 132.419 190.227 112.52C190.842 111.224 190.294 109.679 189.002 109.063C188.797 108.962 188.582 108.895 188.372 108.857Z" fill="url(#paint16_radial)"/>
<defs>
<linearGradient id="paint0_linear" x1="121.363" y1="145.37" x2="121.363" y2="179.549" gradientUnits="userSpaceOnUse">
<stop offset="0.2368" stop-color="#958FE7"/>
<stop offset="0.4881" stop-color="#BBB7EF"/>
</linearGradient>
<radialGradient id="paint1_radial" cx="0" cy="0" r="1" gradientUnits="userSpaceOnUse" gradientTransform="translate(121.552 183.931) scale(11.8598 11.8946)">
<stop stop-color="#8065E0"/>
<stop offset="1" stop-color="#512BD4"/>
</radialGradient>
<linearGradient id="paint2_linear" x1="150.448" y1="145.37" x2="150.448" y2="179.549" gradientUnits="userSpaceOnUse">
<stop offset="0.2368" stop-color="#958FE7"/>
<stop offset="0.4881" stop-color="#BBB7EF"/>
</linearGradient>
<radialGradient id="paint3_radial" cx="0" cy="0" r="1" gradientUnits="userSpaceOnUse" gradientTransform="translate(150.91 184.383) scale(12.373 12.4093)">
<stop stop-color="#8065E0"/>
<stop offset="1" stop-color="#512BD4"/>
</radialGradient>
<linearGradient id="paint4_linear" x1="79.7422" y1="97.6639" x2="62.4844" y2="118.171" gradientUnits="userSpaceOnUse">
<stop offset="0.1399" stop-color="#958FE7"/>
<stop offset="0.4881" stop-color="#BBB7EF"/>
</linearGradient>
<radialGradient id="paint5_radial" cx="0" cy="0" r="1" gradientUnits="userSpaceOnUse" gradientTransform="translate(27.8409 91.9139) scale(13.0955 13.1339)">
<stop offset="0.1607" stop-color="#A08BE8"/>
<stop offset="1" stop-color="#8065E0"/>
</radialGradient>
<radialGradient id="paint6_radial" cx="0" cy="0" r="1" gradientUnits="userSpaceOnUse" gradientTransform="translate(123.498 74.3189) scale(62.1645 62.3469)">
<stop offset="0.4744" stop-color="#A08BE8"/>
<stop offset="0.8618" stop-color="#8065E0"/>
</radialGradient>
<radialGradient id="paint7_radial" cx="0" cy="0" r="1" gradientUnits="userSpaceOnUse" gradientTransform="translate(107.933 68.5536) scale(64.66 64.8497)">
<stop offset="0.0933" stop-color="#E1DFDD"/>
<stop offset="0.6573" stop-color="white"/>
</radialGradient>
<radialGradient id="paint8_radial" cx="0" cy="0" r="1" gradientUnits="userSpaceOnUse" gradientTransform="translate(134.392 107.589) scale(44.1162 44.2456)">
<stop offset="0.0764" stop-color="#512BD4"/>
<stop offset="0.47" stop-color="#6645D9"/>
<stop offset="0.7374" stop-color="#7659DD"/>
<stop offset="0.9583" stop-color="#8065E0"/>
</radialGradient>
<radialGradient id="paint9_radial" cx="0" cy="0" r="1" gradientUnits="userSpaceOnUse" gradientTransform="translate(163.73 127.084) scale(38.2672 38.3794)">
<stop offset="0.4614" stop-color="#A08BE8"/>
<stop offset="0.5268" stop-color="#A793EA"/>
<stop offset="0.8352" stop-color="#C5B7F0"/>
<stop offset="1" stop-color="#D0C5F3"/>
</radialGradient>
<radialGradient id="paint10_radial" cx="0" cy="0" r="1" gradientUnits="userSpaceOnUse" gradientTransform="translate(174.478 7.2422) scale(15.2844 15.3292)">
<stop stop-color="#A08BE8"/>
<stop offset="0.9913" stop-color="#8065E0"/>
</radialGradient>
<radialGradient id="paint11_radial" cx="0" cy="0" r="1" gradientUnits="userSpaceOnUse" gradientTransform="translate(162.054 31.0829) scale(9.39006 9.41761)">
<stop stop-color="#8065E0"/>
<stop offset="1" stop-color="#512BD4"/>
</radialGradient>
<linearGradient id="paint12_linear" x1="173.598" y1="96.3848" x2="209.43" y2="158.265" gradientUnits="userSpaceOnUse">
<stop offset="0.12" stop-color="#958FE7"/>
<stop offset="0.3165" stop-color="#BBB7EF"/>
</linearGradient>
<radialGradient id="paint13_radial" cx="0" cy="0" r="1" gradientUnits="userSpaceOnUse" gradientTransform="translate(192.355 156.273) scale(13.8342 13.8748)">
<stop stop-color="#A08BE8"/>
<stop offset="0.9913" stop-color="#8065E0"/>
</radialGradient>
<radialGradient id="paint14_radial" cx="0" cy="0" r="1" gradientUnits="userSpaceOnUse" gradientTransform="translate(172.105 93.2047) scale(11.465 11.4986)">
<stop stop-color="#8065E0"/>
<stop offset="1" stop-color="#512BD4"/>
</radialGradient>
<radialGradient id="paint15_radial" cx="0" cy="0" r="1" gradientUnits="userSpaceOnUse" gradientTransform="translate(108.52 47.9095) rotate(-164.376) scale(19.3364 19.3849)">
<stop offset="0.3607" stop-color="#BDB9F0"/>
<stop offset="0.5611" stop-color="#C3BCEB" stop-opacity="0.3855"/>
<stop offset="0.6338" stop-color="#CEC3E2" stop-opacity="0.3217"/>
<stop offset="0.8689" stop-color="#EDD6C9" stop-opacity="0.1152"/>
<stop offset="1" stop-color="#F9DDBF" stop-opacity="0"/>
</radialGradient>
<radialGradient id="paint16_radial" cx="0" cy="0" r="1" gradientUnits="userSpaceOnUse" gradientTransform="translate(163.213 127.062) rotate(10.7789) scale(23.2428 23.3062)">
<stop stop-color="#BDB9F0"/>
<stop offset="0.5266" stop-color="#C3BCEB" stop-opacity="0.3855"/>
<stop offset="0.605" stop-color="#CEC3E2" stop-opacity="0.3217"/>
<stop offset="0.8586" stop-color="#EDD6C9" stop-opacity="0.1152"/>
<stop offset="1" stop-color="#F9DDBF" stop-opacity="0"/>
</radialGradient>
</defs>
</svg>
