<svg width="325" height="237" viewBox="0 0 325 237" fill="none" xmlns="http://www.w3.org/2000/svg">
<path d="M222.595 194.912C225.538 208.869 240.186 220.851 241.113 221.398C242.04 221.945 214.589 222.226 214.589 222.226C214.589 222.226 206.521 202.928 210.006 194.427C210.334 193.633 222.595 194.912 222.595 194.912Z" fill="#A08BE8"/>
<path d="M215.74 220.337L239.82 220.456C239.82 220.456 245.415 224.219 246.903 226.93C248.04 229.004 247.964 233.661 247.864 235.735C247.835 236.315 247.36 236.767 246.78 236.767L223.556 236.724C222.809 236.724 222.21 236.115 222.215 235.368C222.239 232.795 221.797 227.315 220.831 225.75C219.377 223.41 215.74 220.337 215.74 220.337Z" fill="#D0C5F3"/>
<path d="M208.433 192.52C203.992 208.036 205.808 232.633 205.994 233.937C206.25 235.74 206.493 237 209.055 237C212.245 237 225.937 237 225.937 237L218.744 193.519L208.433 192.52Z" fill="#8065E0"/>
<path d="M222.595 194.912C223.67 202.523 231.257 213.226 245.639 224.423C247.322 225.731 248.187 227.116 248.187 229.061V235.292C248.187 236.215 247.44 236.962 246.518 236.962H223.432C222.781 236.962 222.253 236.434 222.253 235.782V228.59C222.253 226.35 221.801 225.199 219.505 223.548C213.752 219.419 210.12 205.491 210.001 195.583C209.882 185.675 222.595 194.912 222.595 194.912Z" fill="#A08BE8"/>
<path d="M247.968 227.529C248.106 228.005 248.187 228.509 248.187 229.061V235.292C248.187 236.215 247.441 236.962 246.518 236.962H223.432C222.781 236.962 222.253 236.434 222.253 235.782V228.59C222.253 228.205 222.239 227.858 222.206 227.529H247.968Z" fill="#D0C5F3"/>
<path d="M105.019 194.912C102.077 208.869 87.429 220.851 86.502 221.398C85.5749 221.945 113.025 222.226 113.025 222.226C113.025 222.226 121.093 202.928 117.609 194.427C117.28 193.633 105.019 194.912 105.019 194.912Z" fill="#A08BE8"/>
<path d="M111.875 220.337L87.7951 220.456C87.7951 220.456 82.1994 224.219 80.7114 226.93C79.5751 229.004 79.6512 233.661 79.751 235.735C79.7795 236.315 80.2549 236.767 80.835 236.767L104.059 236.724C104.806 236.724 105.405 236.115 105.4 235.368C105.376 232.795 105.818 227.315 106.783 225.75C108.233 223.41 111.875 220.337 111.875 220.337Z" fill="#D0C5F3"/>
<path d="M119.177 192.52C123.618 208.036 121.802 232.633 121.616 233.937C121.359 235.739 121.117 237 118.554 237C115.364 237 101.672 237 101.672 237L108.865 193.519L119.177 192.52Z" fill="#8065E0"/>
<path d="M105.019 194.912C103.945 202.523 96.3573 213.226 81.976 224.423C80.293 225.731 79.4277 227.116 79.4277 229.061V235.292C79.4277 236.215 80.1741 236.962 81.0964 236.962H104.183C104.834 236.962 105.362 236.434 105.362 235.782V228.59C105.362 226.35 105.813 225.199 108.11 223.548C113.862 219.419 117.494 205.491 117.613 195.583C117.732 185.68 105.019 194.912 105.019 194.912Z" fill="#A08BE8"/>
<path d="M79.6464 227.529C79.5086 228.005 79.4277 228.509 79.4277 229.061V235.292C79.4277 236.215 80.1741 236.962 81.0964 236.962H104.183C104.834 236.962 105.362 236.434 105.362 235.782V228.59C105.362 228.205 105.376 227.858 105.409 227.529H79.6464Z" fill="#D0C5F3"/>
<path d="M112.327 192.501C108.913 192.501 106.146 189.732 106.146 186.317V164.017C106.146 161.244 107.996 158.809 110.663 158.062L151.525 146.646C154.815 145.728 158.224 147.649 159.141 150.941C160.059 154.233 158.138 157.643 154.853 158.561L118.507 168.717V186.326C118.507 189.732 115.74 192.501 112.327 192.501Z" fill="url(#paint0_linear)"/>
<path d="M125.802 154.063L124.419 154.414L127.412 166.241L128.795 165.891L125.802 154.063Z" fill="#A08BE8"/>
<path d="M105.947 178.563H118.374C120.205 178.563 121.688 180.048 121.688 181.879V194.741C121.688 196.573 120.205 198.057 118.374 198.057H105.947C104.117 198.057 102.633 196.573 102.633 194.741V181.879C102.633 180.048 104.117 178.563 105.947 178.563Z" fill="url(#paint1_radial)"/>
<path d="M112.983 157.41L110.663 158.057C107.991 158.804 106.146 161.239 106.146 164.013V166.667L118.431 169.778H118.507L119.121 168.536L112.983 157.41Z" fill="#A08BE8"/>
<path d="M214.637 192.501C218.05 192.501 220.817 189.732 220.817 186.317V164.017C220.817 161.244 218.968 158.809 216.301 158.062L175.439 146.646C172.149 145.728 168.74 147.649 167.822 150.941C166.905 154.233 168.826 157.643 172.111 158.561L208.456 168.717V186.326C208.456 189.732 211.223 192.501 214.637 192.501Z" fill="url(#paint2_linear)"/>
<path d="M201.155 154.075L198.162 165.903L199.545 166.253L202.537 154.425L201.155 154.075Z" fill="#A08BE8"/>
<path d="M221.017 178.563H208.59C206.759 178.563 205.276 180.048 205.276 181.879V194.741C205.276 196.573 206.759 198.057 208.59 198.057H221.017C222.847 198.057 224.331 196.573 224.331 194.741V181.879C224.331 180.048 222.847 178.563 221.017 178.563Z" fill="url(#paint3_radial)"/>
<path d="M213.98 157.41L216.3 158.057C218.972 158.804 220.817 161.239 220.817 164.013V166.667L208.532 169.778H208.456L207.843 168.536L213.98 157.41Z" fill="#A08BE8"/>
<path d="M69.064 85.3788L80.3836 82.7816C83.4025 82.1109 86.3977 84.0184 87.068 87.0389C87.7383 90.0594 85.8319 93.0562 82.813 93.7269L71.2081 96.3907L69.064 85.3788Z" fill="#D0C5F3"/>
<path d="M81.0211 123.716L69.2568 97.3763L58.1233 102.354L69.8876 128.694L81.0211 123.716Z" fill="#D0C5F3"/>
<path d="M74.7668 109.711L63.6333 114.689L64.2152 115.992L75.3488 111.014L74.7668 109.711Z" fill="#A08BE8"/>
<path d="M92.4261 105.338L73.2192 126.858L82.3187 134.987L101.521 113.467L92.4261 105.338Z" fill="url(#paint4_linear)"/>
<path d="M84.8856 113.868L83.9355 114.933L93.0314 123.06L93.9814 121.995L84.8856 113.868Z" fill="#A08BE8"/>
<path d="M78.9005 119.037L79.7848 119.48L82.3187 134.987C82.3187 134.987 77.17 136.086 74.037 133.86C70.4571 131.315 68.8169 126.272 68.8169 126.272L78.9005 119.037Z" fill="#A08BE8"/>
<path d="M62.0845 104.929C68.562 104.929 73.813 99.6751 73.813 93.1941C73.813 86.7131 68.562 81.4592 62.0845 81.4592C55.607 81.4592 50.356 86.7131 50.356 93.1941C50.356 99.6751 55.607 104.929 62.0845 104.929Z" fill="url(#paint5_radial)"/>
<path d="M256.159 128.709L267.923 102.369L256.789 97.3914L245.025 123.731L256.159 128.709Z" fill="#D0C5F3"/>
<path d="M251.271 109.689L250.689 110.992L261.822 115.97L262.404 114.667L251.271 109.689Z" fill="#A08BE8"/>
<path d="M233.62 105.338L252.827 126.858L243.732 134.987L224.525 113.467L233.62 105.338Z" fill="url(#paint6_linear)"/>
<path d="M241.168 113.86L232.072 121.987L233.022 123.051L242.118 114.924L241.168 113.86Z" fill="#A08BE8"/>
<path d="M247.146 119.037L246.262 119.48L243.728 134.987C243.728 134.987 248.876 136.086 252.009 133.86C255.589 131.315 257.229 126.272 257.229 126.272L247.146 119.037Z" fill="#A08BE8"/>
<path d="M257.22 85.3788L245.9 82.7816C242.881 82.1109 239.886 84.0184 239.216 87.0389C238.545 90.0594 240.452 93.0562 243.471 93.7269L255.076 96.3907L257.22 85.3788Z" fill="#D0C5F3"/>
<path d="M325 82.1584H0V88.1567H325V82.1584Z" fill="#B3AFAB"/>
<path d="M101.473 115.888C107.785 115.888 112.902 110.769 112.902 104.453C112.902 98.1378 107.785 93.0181 101.473 93.0181C95.1609 93.0181 90.0439 98.1378 90.0439 104.453C90.0439 110.769 95.1609 115.888 101.473 115.888Z" fill="url(#paint7_radial)"/>
<path d="M225.833 115.888C232.145 115.888 237.262 110.769 237.262 104.453C237.262 98.1378 232.145 93.0181 225.833 93.0181C219.521 93.0181 214.404 98.1378 214.404 104.453C214.404 110.769 219.521 115.888 225.833 115.888Z" fill="url(#paint8_radial)"/>
<path d="M163.767 161.158C198.14 161.158 226.004 133.279 226.004 98.888C226.004 64.4969 198.14 36.6174 163.767 36.6174C129.395 36.6174 101.53 64.4969 101.53 98.888C101.53 133.279 129.395 161.158 163.767 161.158Z" fill="url(#paint9_radial)"/>
<path d="M112.151 98.8879C112.151 105.633 113.454 112.069 115.807 117.972C116.377 119.404 117.761 120.341 119.301 120.341H208.242C209.783 120.341 211.166 119.404 211.737 117.972C214.09 112.069 215.392 105.633 215.392 98.8879C215.392 96.129 215.169 93.4271 214.751 90.7872C214.461 88.9748 212.878 87.6525 211.042 87.6525H116.501C114.666 87.6525 113.083 88.9748 112.793 90.7872C112.374 93.4271 112.151 96.129 112.151 98.8879Z" fill="url(#paint10_radial)"/>
<path d="M217.432 130.42H110.106C112.517 134.516 115.379 138.307 118.631 141.732H208.912C212.16 138.307 215.022 134.516 217.432 130.42Z" fill="url(#paint11_radial)"/>
<path d="M173.874 127.191H153.788V144.966H173.874V127.191Z" fill="#512BD4"/>
<path d="M157.289 137.839C157.153 137.839 157.041 137.797 156.942 137.708C156.849 137.619 156.797 137.511 156.797 137.38C156.797 137.254 156.839 137.141 156.933 137.048C157.027 136.954 157.139 136.907 157.275 136.903C157.41 136.903 157.527 136.945 157.621 137.034C157.719 137.123 157.77 137.235 157.77 137.361C157.77 137.488 157.724 137.595 157.63 137.689C157.541 137.792 157.424 137.839 157.289 137.839Z" fill="white"/>
<path d="M162.658 137.68L161.783 137.694L159.426 134.094C159.365 134.005 159.318 133.907 159.276 133.809H159.257C159.276 133.916 159.29 134.141 159.295 134.487L159.346 137.726L158.574 137.74L158.5 132.798L159.43 132.784L161.709 136.299C161.807 136.444 161.868 136.547 161.896 136.598H161.91C161.886 136.467 161.872 136.247 161.868 135.934L161.821 132.746L162.588 132.732L162.658 137.68Z" fill="white"/>
<path d="M166.425 137.623L163.721 137.666L163.646 132.723L166.242 132.681L166.252 133.378L164.455 133.406L164.479 134.806L166.135 134.782L166.144 135.475L164.488 135.498L164.511 136.959L166.415 136.931L166.425 137.623Z" fill="white"/>
<path d="M170.204 133.317L168.819 133.341L168.885 137.586L168.085 137.6L168.019 133.355L166.639 133.378L166.63 132.681L170.194 132.625L170.204 133.317Z" fill="white"/>
<path d="M214.751 90.7872C214.461 88.9748 212.878 87.6525 211.042 87.6525H206.702C208.537 87.6525 210.12 88.9748 210.41 90.7872C210.829 93.4271 211.052 96.129 211.052 98.8879C211.052 104.116 210.263 109.153 208.813 113.905C208.28 115.213 206.868 115.998 205.428 115.998H122.144C120.604 115.998 119.082 115.108 118.65 113.629C118.341 112.578 118.06 111.503 117.808 110.442C116.953 106.727 116.491 102.86 116.491 98.8879C116.491 96.129 116.715 93.4271 117.133 90.7872C117.423 88.9748 119.006 87.6525 120.842 87.6525H116.501C114.666 87.6525 113.083 88.9748 112.793 90.7872C112.374 93.4271 112.151 96.129 112.151 98.8879C112.151 105.633 113.454 112.069 115.807 117.972C116.377 119.404 117.761 120.341 119.301 120.341H123.642H203.906H208.242H208.247C209.787 120.341 211.171 119.404 211.741 117.972C214.095 112.069 215.397 105.633 215.397 98.8879C215.393 96.129 215.169 93.4271 214.751 90.7872Z" fill="url(#paint12_radial)"/>
<path d="M154.749 115.998C154.749 115.998 160.953 111.084 162.165 110.176C163.377 109.267 164.438 109.215 165.545 110.176C166.653 111.137 172.871 115.998 172.871 115.998H154.749Z" fill="#A08BE8"/>
<path d="M303.021 112.797H293.256C291.264 112.797 289.648 111.179 289.648 109.186V59.0597C289.648 57.0666 291.264 55.4493 293.256 55.4493H303.021C305.013 55.4493 306.63 57.0666 306.63 59.0597V109.186C306.63 111.179 305.013 112.797 303.021 112.797Z" fill="url(#paint13_radial)"/>
<path d="M316.628 106.151H309.126C307.595 106.151 306.354 104.91 306.354 103.378V64.8677C306.354 63.336 307.595 62.0945 309.126 62.0945H316.628C318.159 62.0945 319.399 63.336 319.399 64.8677V103.378C319.399 104.91 318.159 106.151 316.628 106.151Z" fill="url(#paint14_radial)"/>
<path d="M23.2622 112.797H33.0273C35.0193 112.797 36.6357 111.179 36.6357 109.186V59.0597C36.6357 57.0666 35.0193 55.4493 33.0273 55.4493H23.2622C21.2702 55.4493 19.6538 57.0666 19.6538 59.0597V109.186C19.6538 111.179 21.2702 112.797 23.2622 112.797Z" fill="url(#paint15_radial)"/>
<path d="M67.6997 92.0905C70.7899 92.0905 73.2953 89.5837 73.2953 86.4918V79.6326C73.2953 76.5407 70.7899 74.0339 67.6997 74.0339C64.6094 74.0339 62.104 76.5407 62.104 79.6326V86.4918C62.104 89.5837 64.6094 92.0905 67.6997 92.0905Z" fill="#D0C5F3"/>
<path d="M58.6806 92.0905C61.7708 92.0905 64.2763 89.5837 64.2763 86.4918V79.6326C64.2763 76.5407 61.7708 74.0339 58.6806 74.0339C55.5904 74.0339 53.085 76.5407 53.085 79.6326V86.4918C53.085 89.5837 55.5904 92.0905 58.6806 92.0905Z" fill="#D0C5F3"/>
<path d="M49.6572 90.5399C52.7474 90.5399 55.2528 88.0331 55.2528 84.9412V79.9847C55.2528 76.8928 52.7474 74.386 49.6572 74.386C46.567 74.386 44.0615 76.8928 44.0615 79.9847V84.9412C44.0615 88.0331 46.567 90.5399 49.6572 90.5399Z" fill="#D0C5F3"/>
<path d="M169.724 32.7312H157.696L159.393 20.3779H168.027L169.724 32.7312Z" fill="#D0C5F3"/>
<path d="M163.772 22.8514C170.078 22.8514 175.191 17.7359 175.191 11.4257C175.191 5.11546 170.078 0 163.772 0C157.465 0 152.352 5.11546 152.352 11.4257C152.352 17.7359 157.465 22.8514 163.772 22.8514Z" fill="url(#paint16_radial)"/>
<path d="M174.326 40.2802C174.868 40.2802 175.301 39.8092 175.243 39.2717C174.606 33.5589 169.767 29.1161 163.891 29.1161C158.01 29.1161 153.175 33.5589 152.538 39.2717C152.476 39.8092 152.913 40.2802 153.455 40.2802H174.326Z" fill="url(#paint17_radial)"/>
<path d="M264.698 104.929C271.176 104.929 276.427 99.6751 276.427 93.1941C276.427 86.7131 271.176 81.4592 264.698 81.4592C258.221 81.4592 252.97 86.7131 252.97 93.1941C252.97 99.6751 258.221 104.929 264.698 104.929Z" fill="url(#paint18_radial)"/>
<path d="M258.58 92.0905C255.489 92.0905 252.984 89.5837 252.984 86.4918V79.6326C252.984 76.5407 255.489 74.0339 258.58 74.0339C261.67 74.0339 264.175 76.5407 264.175 79.6326V86.4918C264.18 89.5837 261.675 92.0905 258.58 92.0905Z" fill="#D0C5F3"/>
<path d="M267.603 92.0905C264.513 92.0905 262.007 89.5837 262.007 86.4918V79.6326C262.007 76.5407 264.513 74.0339 267.603 74.0339C270.693 74.0339 273.199 76.5407 273.199 79.6326V86.4918C273.199 89.5837 270.693 92.0905 267.603 92.0905Z" fill="#D0C5F3"/>
<path d="M276.626 90.5399C273.536 90.5399 271.031 88.0331 271.031 84.9412V79.9847C271.031 76.8928 273.536 74.386 276.626 74.386C279.717 74.386 282.222 76.8928 282.222 79.9847V84.9412C282.222 88.0331 279.717 90.5399 276.626 90.5399Z" fill="#D0C5F3"/>
<path d="M141.953 109.86C144.641 109.82 146.766 106.121 146.698 101.597C146.631 97.074 144.397 93.4396 141.709 93.4797C139.02 93.5198 136.895 97.2192 136.963 101.743C137.03 106.266 139.264 109.9 141.953 109.86Z" fill="#512BD4"/>
<path d="M141.826 108.187C144.342 108.187 146.381 106.147 146.381 103.63C146.381 101.114 144.342 99.0735 141.826 99.0735C139.311 99.0735 137.272 101.114 137.272 103.63C137.272 106.147 139.311 108.187 141.826 108.187Z" fill="#8065E0"/>
<path d="M190.657 101.7C190.725 97.1771 188.6 93.4777 185.912 93.4376C183.223 93.3975 180.989 97.0319 180.922 101.555C180.854 106.079 182.979 109.778 185.668 109.818C188.356 109.858 190.59 106.224 190.657 101.7Z" fill="#512BD4"/>
<path d="M185.764 108.097C188.28 108.097 190.319 106.057 190.319 103.54C190.319 101.023 188.28 98.9832 185.764 98.9832C183.249 98.9832 181.21 101.023 181.21 103.54C181.21 106.057 183.249 108.097 185.764 108.097Z" fill="#8065E0"/>
<path d="M113.325 77.3542C114.452 77.5635 115.617 76.9975 116.125 75.9129C122.805 61.6998 135.608 51.4062 150.474 47.6151C154.487 46.5924 153.664 41.4789 149.271 42.5967C132.903 46.7493 118.807 58.0751 111.457 73.7153C110.848 75.0044 111.404 76.5456 112.693 77.1497C112.902 77.2448 113.111 77.3162 113.325 77.3542Z" fill="url(#paint19_radial)"/>
<path d="M214.608 116.926C213.467 116.811 212.355 117.473 211.936 118.595C205 137.294 187.7 150.532 167.86 152.321C166.439 152.449 165.393 153.705 165.521 155.122C165.65 156.545 166.905 157.591 168.322 157.463C190.134 155.493 209.15 140.942 216.771 120.388C217.266 119.052 216.586 117.568 215.25 117.068C215.041 116.992 214.822 116.945 214.608 116.926Z" fill="url(#paint20_radial)"/>
<path d="M9.65596 106.151H17.158C18.6889 106.151 19.9297 104.91 19.9297 103.378V64.8677C19.9297 63.336 18.6889 62.0945 17.158 62.0945H9.65596C8.12512 62.0945 6.88428 63.336 6.88428 64.8677V103.378C6.88428 104.91 8.12512 106.151 9.65596 106.151Z" fill="url(#paint21_radial)"/>
<defs>
<linearGradient id="paint0_linear" x1="158.096" y1="148.728" x2="102.133" y2="181.02" gradientUnits="userSpaceOnUse">
<stop offset="0.3155" stop-color="#958FE7"/>
<stop offset="0.4497" stop-color="#BBB7EF"/>
</linearGradient>
<radialGradient id="paint1_radial" cx="0" cy="0" r="1" gradientUnits="userSpaceOnUse" gradientTransform="translate(111.767 181.877) scale(14.031 14.0386)">
<stop stop-color="#8065E0"/>
<stop offset="1" stop-color="#512BD4"/>
</radialGradient>
<linearGradient id="paint2_linear" x1="168.868" y1="148.728" x2="224.83" y2="181.02" gradientUnits="userSpaceOnUse">
<stop offset="0.3155" stop-color="#958FE7"/>
<stop offset="0.4497" stop-color="#BBB7EF"/>
</linearGradient>
<radialGradient id="paint3_radial" cx="0" cy="0" r="1" gradientUnits="userSpaceOnUse" gradientTransform="translate(214.987 182.94) scale(14.7481 14.7561)">
<stop stop-color="#8065E0"/>
<stop offset="0.8564" stop-color="#512BD4"/>
</radialGradient>
<linearGradient id="paint4_linear" x1="95.0491" y1="106.856" x2="79.679" y2="133.464" gradientUnits="userSpaceOnUse">
<stop offset="0.1886" stop-color="#958FE7"/>
<stop offset="0.4497" stop-color="#BBB7EF"/>
</linearGradient>
<radialGradient id="paint5_radial" cx="0" cy="0" r="1" gradientUnits="userSpaceOnUse" gradientTransform="translate(62.1909 97.5795) scale(11.7292 11.7356)">
<stop stop-color="#A08BE8"/>
<stop offset="0.9913" stop-color="#8065E0"/>
</radialGradient>
<linearGradient id="paint6_linear" x1="232.456" y1="113.339" x2="241.764" y2="123.54" gradientUnits="userSpaceOnUse">
<stop stop-color="#958FE7"/>
<stop offset="0.4995" stop-color="#BBB7EF"/>
</linearGradient>
<radialGradient id="paint7_radial" cx="0" cy="0" r="1" gradientUnits="userSpaceOnUse" gradientTransform="translate(101.628 99.1636) scale(11.4291 11.4353)">
<stop stop-color="#8065E0"/>
<stop offset="1" stop-color="#512BD4"/>
</radialGradient>
<radialGradient id="paint8_radial" cx="0" cy="0" r="1" gradientUnits="userSpaceOnUse" gradientTransform="translate(227.573 97.7599) scale(11.4291 11.4353)">
<stop stop-color="#8065E0"/>
<stop offset="1" stop-color="#512BD4"/>
</radialGradient>
<radialGradient id="paint9_radial" cx="0" cy="0" r="1" gradientUnits="userSpaceOnUse" gradientTransform="translate(154.278 80.6206) scale(62.2383 62.2719)">
<stop offset="0.4744" stop-color="#A08BE8"/>
<stop offset="0.8618" stop-color="#8065E0"/>
</radialGradient>
<radialGradient id="paint10_radial" cx="0" cy="0" r="1" gradientUnits="userSpaceOnUse" gradientTransform="translate(181.401 76.3464) scale(59.8832 59.9156)">
<stop offset="0.0933" stop-color="#E1DFDD"/>
<stop offset="0.8998" stop-color="white"/>
</radialGradient>
<radialGradient id="paint11_radial" cx="0" cy="0" r="1" gradientUnits="userSpaceOnUse" gradientTransform="translate(196.16 136.524) scale(38.1546 38.1753)">
<stop offset="0.4614" stop-color="#A08BE8"/>
<stop offset="0.5268" stop-color="#A793EA"/>
<stop offset="0.8352" stop-color="#C5B7F0"/>
<stop offset="1" stop-color="#D0C5F3"/>
</radialGradient>
<radialGradient id="paint12_radial" cx="0" cy="0" r="1" gradientUnits="userSpaceOnUse" gradientTransform="translate(180.906 105.907) scale(54.7474 54.7769)">
<stop stop-color="#512BD4"/>
<stop offset="0.7715" stop-color="#6645D9"/>
<stop offset="0.8738" stop-color="#7659DD"/>
<stop offset="0.9583" stop-color="#8065E0"/>
</radialGradient>
<radialGradient id="paint13_radial" cx="0" cy="0" r="1" gradientUnits="userSpaceOnUse" gradientTransform="translate(302.995 83.8968) scale(27.8173 27.8324)">
<stop offset="0.4591" stop-color="#737373"/>
<stop offset="0.7954" stop-color="#605D5A"/>
</radialGradient>
<radialGradient id="paint14_radial" cx="0" cy="0" r="1" gradientUnits="userSpaceOnUse" gradientTransform="translate(312.876 84.1245) scale(21.5394 21.5511)">
<stop stop-color="#B3AFAB"/>
<stop offset="0.7664" stop-color="#797673"/>
</radialGradient>
<radialGradient id="paint15_radial" cx="0" cy="0" r="1" gradientUnits="userSpaceOnUse" gradientTransform="translate(28.145 84.1245) scale(21.1348 21.1462)">
<stop offset="0.4423" stop-color="#737373"/>
<stop offset="0.9949" stop-color="#605D5A"/>
</radialGradient>
<radialGradient id="paint16_radial" cx="0" cy="0" r="1" gradientUnits="userSpaceOnUse" gradientTransform="translate(165.902 6.62277) scale(11.4199 11.426)">
<stop stop-color="#A08BE8"/>
<stop offset="1" stop-color="#8065E0"/>
</radialGradient>
<radialGradient id="paint17_radial" cx="0" cy="0" r="1" gradientUnits="userSpaceOnUse" gradientTransform="translate(163.924 32.4197) scale(8.94906 8.9539)">
<stop stop-color="#8065E0"/>
<stop offset="1" stop-color="#512BD4"/>
</radialGradient>
<radialGradient id="paint18_radial" cx="0" cy="0" r="1" gradientUnits="userSpaceOnUse" gradientTransform="translate(264.44 99.3262) scale(11.7292 11.7356)">
<stop stop-color="#A08BE8"/>
<stop offset="0.9913" stop-color="#8065E0"/>
</radialGradient>
<radialGradient id="paint19_radial" cx="0" cy="0" r="1" gradientUnits="userSpaceOnUse" gradientTransform="translate(132.123 59.9049) rotate(-169.514) scale(19.2746 19.2843)">
<stop offset="0.3607" stop-color="#BDB9F0"/>
<stop offset="0.5611" stop-color="#C3BCEB" stop-opacity="0.3855"/>
<stop offset="0.6338" stop-color="#CEC3E2" stop-opacity="0.3217"/>
<stop offset="0.8689" stop-color="#EDD6C9" stop-opacity="0.1152"/>
<stop offset="1" stop-color="#F9DDBF" stop-opacity="0"/>
</radialGradient>
<radialGradient id="paint20_radial" cx="0" cy="0" r="1" gradientUnits="userSpaceOnUse" gradientTransform="translate(191.215 137.143) rotate(5.65605) scale(23.1703 23.1826)">
<stop stop-color="#BDB9F0"/>
<stop offset="0.5266" stop-color="#C3BCEB" stop-opacity="0.3855"/>
<stop offset="0.605" stop-color="#CEC3E2" stop-opacity="0.3217"/>
<stop offset="0.8586" stop-color="#EDD6C9" stop-opacity="0.1152"/>
<stop offset="1" stop-color="#F9DDBF" stop-opacity="0"/>
</radialGradient>
<radialGradient id="paint21_radial" cx="0" cy="0" r="1" gradientUnits="userSpaceOnUse" gradientTransform="translate(13.4073 84.1245) scale(24.1335 24.1465)">
<stop stop-color="#B3AFAB"/>
<stop offset="0.9065" stop-color="#797673"/>
</radialGradient>
</defs>
</svg>
