<svg width="102" height="132" viewBox="0 0 102 132" fill="none" xmlns="http://www.w3.org/2000/svg">
<path d="M50.849 131.006C78.9322 131.006 101.698 108.266 101.698 80.2142C101.698 52.1626 78.9322 29.4222 50.849 29.4222C22.7659 29.4222 0 52.1626 0 80.2142C0 108.266 22.7659 131.006 50.849 131.006Z" fill="url(#paint0_radial)"/>
<path d="M93.021 80.2142C93.021 85.7137 91.9579 90.9651 90.0354 95.7805C89.5699 96.9474 88.4375 97.712 87.1797 97.712H14.5184C13.2606 97.712 12.1281 96.9474 11.6626 95.7805C9.74009 90.9651 8.677 85.7137 8.677 80.2142C8.677 77.9653 8.85829 75.7588 9.20295 73.6059C9.43795 72.1282 10.7338 71.0507 12.2311 71.0507H89.4692C90.9665 71.0507 92.2623 72.1282 92.4973 73.6059C92.8397 75.761 93.021 77.9653 93.021 80.2142Z" fill="url(#paint1_radial)"/>
<path d="M7.00732 105.937H94.6906C92.7233 109.277 90.3823 112.368 87.7279 115.163H13.97C11.3156 112.368 8.97683 109.277 7.00732 105.937Z" fill="url(#paint2_radial)"/>
<path d="M9.19856 73.6081C9.43355 72.1304 10.7294 71.0529 12.2267 71.0529H15.7718C14.2745 71.0529 12.9787 72.1304 12.7437 73.6081C12.4012 75.761 12.2177 77.9675 12.2177 80.2164C12.2177 84.4797 12.8623 88.5886 14.0462 92.4651C14.4826 93.5314 15.6353 94.1731 16.8102 94.1731H84.8566C86.1144 94.1731 87.3565 93.4465 87.7124 92.2415C87.9653 91.3831 88.1936 90.509 88.4017 89.6438C89.1 86.6124 89.4782 83.4602 89.4782 80.2187C89.4782 77.9697 89.2969 75.7632 88.9523 73.6103C88.7173 72.1326 87.4214 71.0551 85.9242 71.0551H89.4693C90.9665 71.0551 92.2624 72.1326 92.4974 73.6103C92.8398 75.7632 93.0233 77.9697 93.0233 80.2187C93.0233 85.7182 91.9602 90.9695 90.0377 95.7849C89.5722 96.9519 88.4397 97.7164 87.182 97.7164H83.6368H18.0613H14.5185H14.514C13.2562 97.7164 12.1237 96.9519 11.6582 95.7849C9.73569 90.9695 8.67261 85.7182 8.67261 80.2187C8.67261 77.9652 8.85613 75.761 9.19856 73.6081Z" fill="url(#paint3_radial)"/>
<path d="M58.219 94.1709C58.219 94.1709 53.1497 90.1626 52.1583 89.4204C51.1668 88.6781 50.3029 88.6379 49.3965 89.4204C48.4901 90.2028 43.4119 94.1709 43.4119 94.1709H58.219Z" fill="#A08BE8"/>
<path d="M32.7677 88.8159C34.964 88.7832 36.6998 85.7664 36.6447 82.0775C36.5897 78.3887 34.7647 75.4248 32.5685 75.4575C30.3722 75.4902 28.6364 78.5071 28.6914 82.1959C28.7465 85.8847 30.5715 88.8486 32.7677 88.8159Z" fill="#512BD4"/>
<path d="M72.5597 82.1646C72.6147 78.4758 70.8789 75.4589 68.6827 75.4263C66.4864 75.3936 64.6614 78.3574 64.6064 82.0463C64.5513 85.7351 66.2871 88.752 68.4834 88.7847C70.6796 88.8173 72.5046 85.8535 72.5597 82.1646Z" fill="#512BD4"/>
<path d="M32.6355 78.7903C31.183 80.2411 31.183 82.593 32.6355 84.0438C33.6248 85.032 35.0325 85.3449 36.2881 84.9873C36.5298 84.1042 36.6618 83.1183 36.6462 82.0743C36.6215 80.3999 36.2299 78.8797 35.6055 77.715C34.5424 77.6211 33.4479 77.9788 32.6355 78.7903Z" fill="#8065E0"/>
<path d="M68.532 78.5734C67.0795 80.0243 67.0795 82.3761 68.532 83.827C69.528 84.8218 70.9447 85.1325 72.2069 84.7659C72.4218 83.9678 72.5449 83.0915 72.5606 82.1659C72.5874 80.3574 72.1823 78.712 71.5042 77.5003C70.4433 77.4042 69.3467 77.7596 68.532 78.5734Z" fill="#8065E0"/>
<path d="M55.6922 26.6971H45.8671L47.2524 16.6191H54.3068L55.6922 26.6971Z" fill="#D0C5F3"/>
<path d="M50.831 18.6401C55.9841 18.6401 60.1615 14.4674 60.1615 9.32006C60.1615 4.17273 55.9841 0 50.831 0C45.6779 0 41.5005 4.17273 41.5005 9.32006C41.5005 14.4674 45.6779 18.6401 50.831 18.6401Z" fill="url(#paint4_radial)"/>
<path d="M59.4499 32.8561C59.893 32.8561 60.2466 32.4738 60.1974 32.0334C59.6782 27.3745 55.7235 23.7506 50.9206 23.7506C46.1177 23.7506 42.163 27.3745 41.6437 32.0334C41.5945 32.4738 41.9481 32.8561 42.3913 32.8561H59.4499Z" fill="url(#paint5_radial)"/>
<path d="M59.1164 102.246H42.7113V118.632H59.1164V102.246Z" fill="#512BD4"/>
<path d="M45.6343 112.715C45.5179 112.715 45.4194 112.677 45.3389 112.599C45.2583 112.52 45.218 112.426 45.218 112.317C45.218 112.205 45.2583 112.111 45.3389 112.031C45.4194 111.952 45.5179 111.912 45.6343 111.912C45.7529 111.912 45.8514 111.952 45.932 112.031C46.0148 112.109 46.0573 112.205 46.0573 112.317C46.0573 112.426 46.0148 112.52 45.932 112.599C45.8536 112.677 45.7529 112.715 45.6343 112.715Z" fill="white"/>
<path d="M50.2715 112.65H49.5173L47.5299 109.52C47.4806 109.442 47.4381 109.359 47.4045 109.274H47.3866C47.4023 109.366 47.409 109.561 47.409 109.86V112.652H46.7421V108.394H47.5455L49.4658 111.45C49.5464 111.577 49.6001 111.664 49.6225 111.711H49.6337C49.6135 111.599 49.6046 111.407 49.6046 111.139V108.394H50.2693V112.65H50.2715Z" fill="white"/>
<path d="M53.5212 112.65H51.1869V108.391H53.4294V108.99H51.8785V110.195H53.3086V110.792H51.8785V112.051H53.5234V112.65H53.5212Z" fill="white"/>
<path d="M56.8381 108.99H55.643V112.65H54.9536V108.99H53.7607V108.391H56.8381V108.99V108.99Z" fill="white"/>
<path d="M5.91965 86.2749C6.87083 86.3151 7.71458 86.9903 7.92496 87.965C11.4432 104.168 24.1488 117.097 40.2942 120.904C41.4491 121.177 42.1652 122.332 41.8922 123.486C41.6191 124.639 40.4621 125.355 39.3072 125.082C21.5593 120.899 7.59373 106.686 3.72634 88.8771C3.47567 87.7191 4.212 86.5767 5.37132 86.3241C5.55484 86.2816 5.73837 86.2659 5.91965 86.2749Z" fill="url(#paint6_radial)"/>
<path d="M94.657 72.9443C93.7058 72.904 92.862 72.2289 92.6516 71.2542C89.1334 55.0508 76.4279 42.1225 60.2824 38.3154C59.1275 38.0426 58.4114 36.8868 58.6844 35.7333C58.9574 34.5797 60.1145 33.8644 61.2694 34.1371C79.0173 38.3198 92.9829 52.5336 96.8503 70.3421C97.1009 71.5001 96.3646 72.6425 95.2053 72.8951C95.0218 72.9376 94.836 72.9532 94.657 72.9443Z" fill="url(#paint7_radial)"/>
<defs>
<radialGradient id="paint0_radial" cx="0" cy="0" r="1" gradientUnits="userSpaceOnUse" gradientTransform="translate(64.047 49.4797) scale(69.1833 69.1057)">
<stop offset="0.186" stop-color="#A08BE8"/>
<stop offset="0.7272" stop-color="#8065E0"/>
</radialGradient>
<radialGradient id="paint1_radial" cx="0" cy="0" r="1" gradientUnits="userSpaceOnUse" gradientTransform="translate(18.342 65.6533) scale(58.8937 58.8277)">
<stop offset="0.0933" stop-color="#E1DFDD"/>
<stop offset="0.6573" stop-color="white"/>
</radialGradient>
<radialGradient id="paint2_radial" cx="0" cy="0" r="1" gradientUnits="userSpaceOnUse" gradientTransform="translate(10.856 109.654) scale(31.1721 31.1372)">
<stop offset="0.4614" stop-color="#A08BE8"/>
<stop offset="0.5268" stop-color="#A793EA"/>
<stop offset="0.8352" stop-color="#C5B7F0"/>
<stop offset="1" stop-color="#D0C5F3"/>
</radialGradient>
<radialGradient id="paint3_radial" cx="0" cy="0" r="1" gradientUnits="userSpaceOnUse" gradientTransform="translate(40.2726 88.0226) scale(42.4457 42.3981)">
<stop stop-color="#512BD4"/>
<stop offset="0.4098" stop-color="#6645D9"/>
<stop offset="0.7102" stop-color="#7659DD"/>
<stop offset="0.9583" stop-color="#8065E0"/>
</radialGradient>
<radialGradient id="paint4_radial" cx="0" cy="0" r="1" gradientUnits="userSpaceOnUse" gradientTransform="translate(51.306 3.96618) scale(20.3808 20.3579)">
<stop offset="0.1717" stop-color="#A08BE8"/>
<stop offset="0.9987" stop-color="#8065E0"/>
</radialGradient>
<radialGradient id="paint5_radial" cx="0" cy="0" r="1" gradientUnits="userSpaceOnUse" gradientTransform="translate(51.2365 26.1323) scale(12.352 12.3381)">
<stop stop-color="#8065E0"/>
<stop offset="1" stop-color="#512BD4"/>
</radialGradient>
<radialGradient id="paint6_radial" cx="0" cy="0" r="1" gradientUnits="userSpaceOnUse" gradientTransform="translate(22.7623 105.543) rotate(-177.527) scale(19.2956 19.2741)">
<stop stop-color="#BDB9F0"/>
<stop offset="0.3603" stop-color="#C3BCEB" stop-opacity="0.4"/>
<stop offset="0.4662" stop-color="#CEC3E2" stop-opacity="0.3338"/>
<stop offset="0.8089" stop-color="#EDD6C9" stop-opacity="0.1195"/>
<stop offset="1" stop-color="#F9DDBF" stop-opacity="0"/>
</radialGradient>
<radialGradient id="paint7_radial" cx="0" cy="0" r="1" gradientUnits="userSpaceOnUse" gradientTransform="translate(77.7526 53.5237) rotate(2.47309) scale(19.2956 19.2741)">
<stop stop-color="#BDB9F0"/>
<stop offset="0.5266" stop-color="#C3BCEB" stop-opacity="0.7"/>
<stop offset="0.605" stop-color="#CEC3E2" stop-opacity="0.5841"/>
<stop offset="0.8586" stop-color="#EDD6C9" stop-opacity="0.2092"/>
<stop offset="1" stop-color="#F9DDBF" stop-opacity="0"/>
</radialGradient>
</defs>
</svg>
