<svg width="280" height="269" viewBox="0 0 280 269" fill="none" xmlns="http://www.w3.org/2000/svg">
<path d="M207.164 269H72.4422C32.4325 269 0 236.587 0 196.601C0 156.615 32.4325 124.202 72.4422 124.202H207.164C247.173 124.202 279.606 156.615 279.606 196.601C279.606 236.587 247.173 269 207.164 269Z" fill="#C7E0F4"/>
<path d="M279.606 196.601C279.606 193.767 279.439 190.975 279.12 188.224C267.68 191.918 235.433 198.316 223.854 198.436C208.149 198.607 199.67 201.303 212.081 203.305C225.071 205.399 257.434 206.152 234.253 215.565C202.649 228.399 75.0745 244.298 2.61377 215.94C11.0792 246.536 39.1309 269 72.4377 269H207.159C247.173 269 279.606 236.587 279.606 196.601Z" fill="url(#paint0_radial)"/>
<path d="M111.208 186.005C107.747 186.005 103.672 185.015 99.1201 182.154L102.775 171.261C107.095 173.975 112.286 174.095 113.743 173.411C118.327 171.261 123.938 161.807 125.793 147.891L137.714 149.481C137.099 154.109 133.287 177.53 118.85 184.299C116.847 185.233 114.265 186.005 111.208 186.005Z" fill="url(#paint1_linear)"/>
<path d="M184.168 107.105L190.963 97.1885C200.151 103.471 208.69 105.233 215.009 102.145C222.512 98.4784 227.161 88.03 228.101 72.7227L240.105 73.4577C238.546 98.8529 228.471 108.95 220.287 112.944C209.911 118.011 197.084 115.94 184.168 107.105Z" fill="url(#paint2_linear)"/>
<path d="M206.727 103.637L205.456 115.426L206.836 115.575L208.107 103.785L206.727 103.637Z" fill="#A08BE8"/>
<path d="M225.047 50.425L224.266 67.2026C224.127 70.1938 226.44 72.7273 229.428 72.866C232.421 73.0047 234.956 70.6931 235.095 67.7065L235.877 50.929C236.016 47.9378 233.703 45.4043 230.714 45.2656C227.721 45.1269 225.186 47.4385 225.047 50.425Z" fill="#D0C5F3"/>
<path d="M241.678 78.5941L252.692 76.0791C255.62 75.3903 257.438 72.4545 256.744 69.5234C256.055 66.5923 253.118 64.7801 250.185 65.4735L238.888 68.0533L241.678 78.5941Z" fill="#D0C5F3"/>
<path d="M244.601 73.2358L256.99 63.7906C259.377 61.9552 259.825 58.534 257.989 56.1485C256.152 53.7629 252.729 53.3145 250.342 55.1499L241.109 62.1447L244.601 73.2358Z" fill="#D0C5F3"/>
<path d="M239.365 69.1166L249.296 57.0963C251.216 54.7801 250.897 51.3451 248.579 49.4264C246.262 47.5078 242.825 47.8268 240.905 50.143L230.788 62.3852L239.365 69.1166Z" fill="#D0C5F3"/>
<path d="M235.812 80.6791C242.115 80.6791 247.224 75.5727 247.224 69.2737C247.224 62.9747 242.115 57.8683 235.812 57.8683C229.509 57.8683 224.4 62.9747 224.4 69.2737C224.4 75.5727 229.509 80.6791 235.812 80.6791Z" fill="url(#paint3_radial)"/>
<path d="M228.068 107.258C222.545 103.079 218.335 100.046 218.335 100.046L217.267 100.859L220.412 112.88C222.887 111.655 225.538 109.865 228.068 107.258Z" fill="#A08BE8"/>
<path d="M225.031 89.5785L224.528 90.8711L235.587 95.1698L236.09 93.8771L225.031 89.5785Z" fill="#A08BE8"/>
<path d="M161.931 230.35L158.323 233.327C157.902 233.674 157.833 234.248 158.17 234.543C159.683 235.875 160.243 238.21 159.396 240.142C158.277 242.708 155.159 243.092 153.401 243.092H149.969C149.524 243.092 149.233 242.731 149.321 242.287L151.167 232.791C151.255 232.347 150.963 231.987 150.519 231.987H147.508C147.063 231.987 146.629 232.347 146.545 232.791L144.7 242.287C144.612 242.731 144.181 243.092 143.737 243.092H131.062C130.618 243.092 130.327 242.731 130.415 242.287L132.159 233.309C132.247 232.865 131.955 232.505 131.511 232.505H128.5C128.055 232.505 127.621 232.865 127.537 233.309L125.793 242.287C125.705 242.731 125.275 243.092 124.831 243.092H103.593C103.381 243.092 103.159 243.175 102.978 243.327L99.3792 246.337C98.7732 246.846 98.9629 247.715 99.6799 247.715H154.576C159.803 247.715 163.98 245.292 165.752 241.233C167.542 237.132 166.33 232.523 162.954 230.244C162.667 230.05 162.25 230.091 161.931 230.35Z" fill="white"/>
<path d="M146.499 148.899L140.064 176.92L151.842 177.336L158.277 149.315L146.499 148.899Z" fill="url(#paint4_linear)"/>
<path d="M143.395 162.417L143.076 163.804L154.854 164.225L155.173 162.838L143.395 162.417Z" fill="#A08BE8"/>
<path d="M122.527 161.53L121.894 162.796L133.31 165.982L133.944 164.72L122.527 161.53Z" fill="#A08BE8"/>
<path d="M194.72 120.138C201.418 105.755 201.085 93.2357 201.085 93.2357L204.642 93.8876L204.744 93.8367C204.726 65.1869 184.274 39.7455 155.071 34.4103C122.171 28.3956 90.6221 50.1754 84.6084 83.0555C78.5901 115.936 100.383 147.466 133.287 153.48C159.248 158.224 184.362 145.663 196.76 123.998C197.171 123.055 197.477 121.289 194.72 120.138Z" fill="url(#paint5_radial)"/>
<path d="M196.39 124.641C196.39 124.641 198.619 121.77 194.72 120.138C201.339 105.931 201.094 93.5502 201.085 93.2497L139.282 81.9552C139.282 81.9552 135.461 80.8503 134.809 84.4009C134.157 87.9561 132.468 98.0254 130.433 109.135C130.017 111.419 131.687 112.861 133.158 113.134L196.626 124.734C196.477 124.673 196.39 124.641 196.39 124.641Z" fill="url(#paint6_radial)"/>
<path d="M165.058 114.669C165.058 114.669 171.858 111.053 173.177 110.397C174.495 109.74 175.517 109.879 176.415 110.989C177.308 112.098 182.405 117.84 182.405 117.84L165.058 114.669Z" fill="#A08BE8"/>
<path d="M196.39 124.641C196.39 124.641 198.62 121.77 194.72 120.138C194.729 120.124 194.734 120.11 194.738 120.092L133.967 108.982C132.552 108.723 130.886 107.549 130.979 106.148C130.803 107.128 130.623 108.127 130.438 109.126C130.058 111.197 131.4 112.575 132.751 113.014C132.885 113.055 133.024 113.097 133.162 113.12L137.317 113.878L196.63 124.72C196.478 124.673 196.39 124.641 196.39 124.641Z" fill="url(#paint7_radial)"/>
<path d="M190.024 133.481L87.3008 114.706C88.8921 119.042 90.9692 123.166 93.4764 127.013L179.889 142.806C183.599 140.096 186.999 136.976 190.024 133.481Z" fill="url(#paint8_radial)"/>
<path d="M178.109 128.112L158.883 124.598L155.773 141.593L174.999 145.107L178.109 128.112Z" fill="#512BD4"/>
<path d="M160.496 136.292C160.363 136.262 160.263 136.196 160.187 136.088C160.116 135.98 160.09 135.864 160.119 135.736C160.147 135.613 160.213 135.512 160.325 135.442C160.437 135.372 160.557 135.351 160.69 135.377C160.823 135.407 160.927 135.474 160.999 135.581C161.075 135.69 161.1 135.811 161.072 135.934C161.044 136.057 160.974 136.152 160.862 136.222C160.752 136.303 160.628 136.322 160.496 136.292Z" fill="white"/>
<path d="M165.766 137.332L164.91 137.151L163.412 133.117C163.373 133.017 163.349 132.911 163.33 132.806L163.312 132.802C163.306 132.911 163.27 133.133 163.197 133.471L162.527 136.641L161.771 136.483L162.798 131.647L163.709 131.841L165.148 135.775C165.211 135.938 165.247 136.052 165.263 136.108L165.277 136.111C165.283 135.978 165.319 135.761 165.384 135.454L166.047 132.336L166.799 132.493L165.766 137.332Z" fill="white"/>
<path d="M169.451 138.115L166.805 137.555L167.832 132.719L170.372 133.256L170.226 133.938L168.469 133.566L168.18 134.935L169.8 135.281L169.655 135.958L168.035 135.613L167.733 137.042L169.596 137.438L169.451 138.115Z" fill="white"/>
<path d="M174.093 134.758L172.738 134.473L171.857 138.626L171.074 138.462L171.955 134.308L170.604 134.024L170.75 133.342L174.238 134.08L174.093 134.758Z" fill="white"/>
<path d="M230.354 167.697V234.996" stroke="white" stroke-width="3" stroke-miterlimit="10" stroke-linecap="round" stroke-linejoin="round"/>
<path d="M219.723 153.527V182.574" stroke="white" stroke-width="3" stroke-miterlimit="10" stroke-linecap="round" stroke-linejoin="round"/>
<path d="M190.658 168.404V213.036" stroke="white" stroke-width="3" stroke-miterlimit="10" stroke-linecap="round" stroke-linejoin="round"/>
<path d="M85.27 208.51V237.558" stroke="white" stroke-width="3" stroke-miterlimit="10" stroke-linecap="round" stroke-linejoin="round"/>
<path d="M159.429 32.8431L147.933 30.661L151.791 19.1724L160.048 20.7396L159.429 32.8431Z" fill="#D0C5F3"/>
<path d="M162.458 40.8875C162.977 40.9846 163.476 40.6147 163.518 40.0923C163.943 34.5214 160.122 29.4035 154.502 28.3402C148.881 27.2768 143.45 30.6379 141.808 35.9777C141.651 36.4816 141.984 37.0087 142.502 37.1057L162.458 40.8875Z" fill="url(#paint9_radial)"/>
<path d="M150.112 193.568C150.338 207.133 162.324 218.778 163.124 219.31C163.925 219.842 137.159 220.114 137.159 220.114C137.159 220.114 132.954 201.358 137.955 193.097C138.422 192.324 150.112 193.568 150.112 193.568Z" fill="#A08BE8"/>
<path d="M138.635 218.279L162.042 218.395C162.042 218.395 166.774 222.052 167.709 224.687C168.421 226.702 167.468 231.229 166.978 233.244C166.839 233.808 166.293 234.248 165.729 234.248L143.14 234.206C142.414 234.206 141.947 233.614 142.095 232.888C142.604 230.387 143.214 225.061 142.567 223.54C141.595 221.266 138.635 218.279 138.635 218.279Z" fill="#D0C5F3"/>
<path d="M136.784 191.243C129.531 206.324 126.649 230.23 126.584 231.497C126.492 233.249 126.492 234.474 128.985 234.474C132.089 234.474 145.412 234.474 145.412 234.474L146.633 192.214L136.784 191.243Z" fill="#8065E0"/>
<path d="M150.112 193.568C149.714 200.965 155.08 211.367 166.955 222.25C168.343 223.522 168.925 224.867 168.555 226.758L167.376 232.814C167.2 233.711 166.335 234.437 165.437 234.437H142.974C142.34 234.437 141.928 233.924 142.049 233.291L143.409 226.3C143.834 224.123 143.612 223.004 141.688 221.4C136.872 217.387 135.97 203.85 137.728 194.22C139.486 184.59 150.112 193.568 150.112 193.568Z" fill="#A08BE8"/>
<path d="M168.634 225.269C168.68 225.732 168.662 226.222 168.555 226.758L167.376 232.814C167.2 233.711 166.335 234.437 165.437 234.437H142.974C142.34 234.437 141.928 233.924 142.049 233.291L143.409 226.3C143.483 225.926 143.534 225.588 143.561 225.269H168.634Z" fill="#D0C5F3"/>
<path d="M153.873 176.143H139.468C137.687 176.143 135.961 177.586 135.619 179.366L133.186 191.867C132.839 193.647 134.004 195.089 135.781 195.089H150.186C151.967 195.089 153.692 193.647 154.035 191.867L156.468 179.366C156.815 177.586 155.654 176.143 153.873 176.143Z" fill="url(#paint10_radial)"/>
<path d="M31.1929 91.1322L38.4232 100.739C48.4939 93.1711 58.5368 89.2598 68.2744 89.1258C76.8417 89.0056 85.4043 91.7933 93.7263 97.4198L100.462 87.4614C84.9926 77.0038 60.4196 69.1582 31.1929 91.1322Z" fill="url(#paint11_linear)"/>
<path d="M79.1443 78.0655L76.6431 89.6571L77.9996 89.9495L80.5009 78.3578L79.1443 78.0655Z" fill="#A08BE8"/>
<path d="M31.2161 102.186L28.4406 113.134C27.7235 116.056 29.5092 119.005 32.4328 119.727C35.3563 120.443 38.3077 118.659 39.0293 115.737L41.8743 104.512L31.2161 102.186Z" fill="#D0C5F3"/>
<path d="M27.0526 91.7194L16.8061 96.4859C14.0861 97.7757 12.925 101.026 14.2156 103.744C15.5062 106.463 18.7583 107.623 21.4783 106.333L31.9838 101.447L27.0526 91.7194Z" fill="#D0C5F3"/>
<path d="M30.3604 98.839L20.2434 103.864C17.5558 105.224 16.4779 108.501 17.8379 111.188C19.198 113.874 22.4778 114.951 25.1654 113.592L35.5414 108.437L30.3604 98.839Z" fill="#D0C5F3"/>
<path d="M28.991 86.2686L18.0137 88.95C15.0947 89.6851 13.323 92.6439 14.0585 95.5658C14.794 98.483 17.7546 100.254 20.6782 99.5186L31.9331 96.7724L28.991 86.2686Z" fill="#D0C5F3"/>
<path d="M34.8101 107.341C41.1129 107.341 46.2223 102.235 46.2223 95.9357C46.2223 89.6366 41.1129 84.5303 34.8101 84.5303C28.5074 84.5303 23.3979 89.6366 23.3979 95.9357C23.3979 102.235 28.5074 107.341 34.8101 107.341Z" fill="url(#paint12_radial)"/>
<path d="M66.2311 77.3077L64.8438 77.3397L65.1178 89.1946L66.5052 89.1626L66.2311 77.3077Z" fill="#A08BE8"/>
<path d="M51.5866 80.1745L50.2871 80.661L54.4495 91.7653L55.7491 91.2787L51.5866 80.1745Z" fill="#A08BE8"/>
<path d="M97.5475 103.402C103.689 103.402 108.668 98.4263 108.668 92.2881C108.668 86.1499 103.689 81.174 97.5475 81.174C91.4057 81.174 86.4268 86.1499 86.4268 92.2881C86.4268 98.4263 91.4057 103.402 97.5475 103.402Z" fill="url(#paint13_radial)"/>
<path d="M48.6605 183.106L46.4955 178.959C46.2457 178.478 45.6952 178.288 45.3344 178.557C43.7153 179.759 41.3145 179.819 39.6029 178.594C37.3269 176.966 37.5998 173.841 37.9653 172.121L38.6777 168.765C38.7702 168.33 39.1819 168.122 39.6029 168.298L48.5124 172.08C48.9288 172.255 49.3451 172.047 49.4376 171.613L50.0621 168.668C50.1546 168.233 49.891 167.734 49.4746 167.558L40.5651 163.776C40.1487 163.601 39.885 163.101 39.9776 162.667L42.6144 150.277C42.7069 149.842 43.1186 149.634 43.5395 149.81L51.9634 153.383C52.3797 153.559 52.7961 153.351 52.8886 152.916L53.5131 149.971C53.6056 149.537 53.3419 149.038 52.9256 148.862L44.5017 145.288C44.0854 145.113 43.8217 144.613 43.9142 144.179L48.332 123.421C48.3783 123.212 48.3413 122.977 48.2303 122.769L46.0329 118.626C45.6629 117.928 44.7747 117.933 44.622 118.636L33.1959 172.297C32.1088 177.405 33.6123 181.996 37.2159 184.571C40.8565 187.174 45.6212 186.948 48.5541 184.118C48.7992 183.883 48.8501 183.471 48.6605 183.106Z" fill="white"/>
<path d="M87.1159 179.199C73.7932 176.596 59.9015 185.898 59.2168 186.569C58.5322 187.239 63.8289 161.021 63.8289 161.021C63.8289 161.021 83.0589 160.813 90.1089 167.419C90.7658 168.03 87.1159 179.199 87.1159 179.199Z" fill="#A08BE8"/>
<path d="M65.323 162.842L60.3409 185.699C60.3409 185.699 55.7797 189.569 53.0041 189.93C50.8808 190.207 46.6527 188.335 44.7792 187.433C44.2565 187.183 43.9419 186.555 44.0576 186.005L48.7992 163.929C48.9518 163.221 49.6272 162.884 50.3072 163.18C52.6479 164.197 57.7365 165.898 59.3602 165.584C61.7796 165.112 65.323 162.842 65.323 162.842Z" fill="#D0C5F3"/>
<path d="M92.1669 166.656C78.9182 156.43 56.117 148.64 54.8911 148.312C53.1934 147.859 51.9953 147.6 51.4772 150.041C50.8342 153.074 48.0586 166.102 48.0586 166.102L89.1647 176.088L92.1669 166.656Z" fill="#8065E0"/>
<path d="M87.1156 179.199C79.9547 177.276 68.6627 180.355 55.5389 189.698C54.0031 190.789 52.5691 191.081 50.7927 190.327L45.1074 187.914C44.2655 187.558 43.7382 186.559 43.9232 185.681L48.5954 163.721C48.7249 163.101 49.317 162.805 49.9092 163.055L56.4688 165.838C58.5134 166.707 59.656 166.721 61.6221 165.172C66.5533 161.298 79.9917 163.231 89.0493 166.952C98.1115 170.679 87.1156 179.199 87.1156 179.199Z" fill="#A08BE8"/>
<path d="M52.2404 190.715C51.7778 190.665 51.306 190.544 50.7971 190.327L45.1118 187.914C44.2699 187.558 43.7426 186.559 43.9276 185.681L48.5998 163.721C48.7293 163.101 49.3214 162.805 49.9136 163.055L56.4731 165.838C56.8247 165.986 57.1439 166.106 57.4492 166.203L52.2404 190.715Z" fill="#D0C5F3"/>
<path d="M103.39 186.499L106.387 172.422C106.757 170.679 105.702 168.695 104.033 167.988L92.3012 163.013C90.6312 162.306 88.9797 163.143 88.6097 164.881L85.6121 178.959C85.242 180.702 86.2967 182.685 87.9667 183.392L99.698 188.367C101.368 189.079 103.019 188.242 103.39 186.499Z" fill="url(#paint14_radial)"/>
<path d="M115.708 172.084L118.586 184.41C118.674 184.373 118.766 184.331 118.85 184.294C120.718 183.42 122.407 182.26 123.938 180.905L116.74 171.099C116.393 171.46 116.046 171.788 115.708 172.084Z" fill="#A08BE8"/>
<path d="M158.435 100.181C159.196 95.8509 157.724 91.9739 155.147 91.5218C152.57 91.0698 149.865 94.2138 149.104 98.5442C148.344 102.875 149.816 106.752 152.392 107.204C154.969 107.656 157.675 104.512 158.435 100.181Z" fill="#512BD4"/>
<path d="M154.483 95.4318C152.457 96.8049 151.934 99.5603 153.308 101.581C154.243 102.958 155.82 103.638 157.37 103.499C157.851 102.519 158.226 101.396 158.438 100.171C158.785 98.2057 158.665 96.338 158.193 94.8354C156.972 94.4887 155.612 94.6644 154.483 95.4318Z" fill="#8065E0"/>
<path d="M193.198 106.416C194.087 102.11 192.731 98.1906 190.169 97.6619C187.607 97.1333 184.809 100.195 183.92 104.501C183.03 108.807 184.386 112.726 186.948 113.255C189.51 113.783 192.308 110.721 193.198 106.416Z" fill="#512BD4"/>
<path d="M189.293 101.299C187.267 102.672 186.744 105.427 188.118 107.447C189.062 108.834 190.649 109.514 192.208 109.366C192.638 108.483 192.98 107.48 193.202 106.403C193.637 104.29 193.531 102.279 193.013 100.707C191.791 100.36 190.427 100.531 189.293 101.299Z" fill="#8065E0"/>
<path d="M158.045 22.5242C164.269 22.5242 169.314 17.482 169.314 11.2621C169.314 5.0422 164.269 0 158.045 0C151.822 0 146.776 5.0422 146.776 11.2621C146.776 17.482 151.822 22.5242 158.045 22.5242Z" fill="url(#paint15_radial)"/>
<path d="M154.529 42.0387C154.553 43.1529 155.32 44.1515 156.454 44.4242C171.303 47.9933 183.627 58.1643 190.163 71.5762C191.925 75.1962 196.635 73.4116 194.706 69.4449C187.531 54.6738 173.968 43.4719 157.629 39.5468C156.283 39.2232 154.923 40.0507 154.599 41.4007C154.548 41.6087 154.525 41.826 154.529 42.0387Z" fill="url(#paint16_radial)"/>
<path d="M138.996 146.805C138.88 145.7 138.029 144.766 136.877 144.59C117.707 141.659 101.692 127.785 96.0855 109.241C95.683 107.914 94.2814 107.165 92.9537 107.568C91.6261 107.97 90.8767 109.371 91.2792 110.698C97.4455 131.081 115.047 146.333 136.118 149.555C137.488 149.763 138.769 148.825 138.982 147.456C139.014 147.23 139.019 147.013 138.996 146.805Z" fill="url(#paint17_radial)"/>
<defs>
<radialGradient id="paint0_radial" cx="0" cy="0" r="1" gradientUnits="userSpaceOnUse" gradientTransform="translate(168.363 168.057) scale(144.959 144.872)">
<stop offset="0.3255" stop-color="#A7CBF6"/>
<stop offset="1" stop-color="#C7E0F4"/>
</radialGradient>
<linearGradient id="paint1_linear" x1="118.416" y1="147.888" x2="118.416" y2="186.004" gradientUnits="userSpaceOnUse">
<stop offset="0.1788" stop-color="#958FE7"/>
<stop offset="0.4497" stop-color="#BBB7EF"/>
</linearGradient>
<linearGradient id="paint2_linear" x1="184.17" y1="94.1878" x2="240.107" y2="94.1878" gradientUnits="userSpaceOnUse">
<stop offset="0.2584" stop-color="#958FE7"/>
<stop offset="0.4497" stop-color="#BBB7EF"/>
</linearGradient>
<radialGradient id="paint3_radial" cx="0" cy="0" r="1" gradientUnits="userSpaceOnUse" gradientTransform="translate(239.02 63.8122) scale(15.8713 15.8618)">
<stop stop-color="#A08BE8"/>
<stop offset="1" stop-color="#8065E0"/>
</radialGradient>
<linearGradient id="paint4_linear" x1="149.171" y1="148.898" x2="149.171" y2="177.338" gradientUnits="userSpaceOnUse">
<stop offset="0.1788" stop-color="#958FE7"/>
<stop offset="0.4497" stop-color="#BBB7EF"/>
</linearGradient>
<radialGradient id="paint5_radial" cx="0" cy="0" r="1" gradientUnits="userSpaceOnUse" gradientTransform="translate(158.04 79.462) scale(60.5694 60.5333)">
<stop offset="0.4744" stop-color="#A08BE8"/>
<stop offset="0.8618" stop-color="#8065E0"/>
</radialGradient>
<radialGradient id="paint6_radial" cx="0" cy="0" r="1" gradientUnits="userSpaceOnUse" gradientTransform="translate(160.528 79.1905) scale(58.6999 58.665)">
<stop offset="0.2022" stop-color="#E1DFDD"/>
<stop offset="0.7337" stop-color="white"/>
</radialGradient>
<radialGradient id="paint7_radial" cx="0" cy="0" r="1" gradientUnits="userSpaceOnUse" gradientTransform="translate(136.677 114.055) scale(51.634 51.6032)">
<stop stop-color="#512BD4"/>
<stop offset="0.5045" stop-color="#6645D9"/>
<stop offset="0.7759" stop-color="#7659DD"/>
<stop offset="1" stop-color="#8065E0"/>
</radialGradient>
<radialGradient id="paint8_radial" cx="0" cy="0" r="1" gradientUnits="userSpaceOnUse" gradientTransform="translate(105.29 124.266) scale(37.6546 37.6322)">
<stop offset="0.4614" stop-color="#A08BE8"/>
<stop offset="0.5268" stop-color="#A793EA"/>
<stop offset="0.8352" stop-color="#C5B7F0"/>
<stop offset="1" stop-color="#D0C5F3"/>
</radialGradient>
<radialGradient id="paint9_radial" cx="0" cy="0" r="1" gradientUnits="userSpaceOnUse" gradientTransform="translate(152.66 34.5208) scale(8.92678 8.92145)">
<stop stop-color="#8065E0"/>
<stop offset="0.8628" stop-color="#512BD4"/>
</radialGradient>
<radialGradient id="paint10_radial" cx="0" cy="0" r="1" gradientUnits="userSpaceOnUse" gradientTransform="translate(147.278 179.147) scale(17.1992 17.189)">
<stop stop-color="#8065E0"/>
<stop offset="0.8628" stop-color="#512BD4"/>
</radialGradient>
<linearGradient id="paint11_linear" x1="100.462" y1="88.9119" x2="31.1949" y2="88.9119" gradientUnits="userSpaceOnUse">
<stop offset="0.1788" stop-color="#958FE7"/>
<stop offset="0.4497" stop-color="#BBB7EF"/>
</linearGradient>
<radialGradient id="paint12_radial" cx="0" cy="0" r="1" gradientUnits="userSpaceOnUse" gradientTransform="translate(35.6378 91.3427) scale(16.1318 16.1222)">
<stop stop-color="#A08BE8"/>
<stop offset="1" stop-color="#8065E0"/>
</radialGradient>
<radialGradient id="paint13_radial" cx="0" cy="0" r="1" gradientUnits="userSpaceOnUse" gradientTransform="translate(98.0449 87.6409) scale(16.5155 16.5057)">
<stop stop-color="#8065E0"/>
<stop offset="0.8628" stop-color="#512BD4"/>
</radialGradient>
<radialGradient id="paint14_radial" cx="0" cy="0" r="1" gradientUnits="userSpaceOnUse" gradientTransform="translate(102.364 176.906) scale(16.3155 16.3058)">
<stop stop-color="#8065E0"/>
<stop offset="0.8628" stop-color="#512BD4"/>
</radialGradient>
<radialGradient id="paint15_radial" cx="0" cy="0" r="1" gradientUnits="userSpaceOnUse" gradientTransform="translate(161.213 5.87066) scale(15.6696 15.6603)">
<stop stop-color="#A08BE8"/>
<stop offset="1" stop-color="#8065E0"/>
</radialGradient>
<radialGradient id="paint16_radial" cx="0" cy="0" r="1" gradientUnits="userSpaceOnUse" gradientTransform="translate(174.834 56.4967) rotate(-91.1868) scale(18.7438 18.7549)">
<stop offset="0.3607" stop-color="#BDB9F0"/>
<stop offset="0.5611" stop-color="#C3BCEB" stop-opacity="0.3855"/>
<stop offset="0.6338" stop-color="#CEC3E2" stop-opacity="0.3217"/>
<stop offset="0.8689" stop-color="#EDD6C9" stop-opacity="0.1152"/>
<stop offset="1" stop-color="#F9DDBF" stop-opacity="0"/>
</radialGradient>
<radialGradient id="paint17_radial" cx="0" cy="0" r="1" gradientUnits="userSpaceOnUse" gradientTransform="translate(115.081 128.528) rotate(83.9808) scale(22.5329 22.546)">
<stop stop-color="#BDB9F0"/>
<stop offset="0.5266" stop-color="#C3BCEB" stop-opacity="0.3855"/>
<stop offset="0.605" stop-color="#CEC3E2" stop-opacity="0.3217"/>
<stop offset="0.8586" stop-color="#EDD6C9" stop-opacity="0.1152"/>
<stop offset="1" stop-color="#F9DDBF" stop-opacity="0"/>
</radialGradient>
</defs>
</svg>
