<svg width="896" height="642" viewBox="0 0 896 642" fill="none" xmlns="http://www.w3.org/2000/svg">
<g clip-path="url(#clip0)">
<path d="M942.57 -1H-46V496.237H942.57V-1Z" fill="#C3F2F4"/>
<g opacity="0.6">
<path opacity="0.6" d="M4.35352 304.715V470.014" stroke="#7BDDEF" stroke-width="6" stroke-miterlimit="10"/>
<path opacity="0.6" d="M44.6084 304.715V470.014" stroke="#7BDDEF" stroke-width="6" stroke-miterlimit="10"/>
<path opacity="0.6" d="M84.8613 304.715V470.014" stroke="#7BDDEF" stroke-width="6" stroke-miterlimit="10"/>
<path opacity="0.6" d="M125.123 304.715V470.014" stroke="#7BDDEF" stroke-width="6" stroke-miterlimit="10"/>
<path opacity="0.6" d="M165.376 304.715V470.014" stroke="#7BDDEF" stroke-width="6" stroke-miterlimit="10"/>
<path opacity="0.6" d="M205.631 304.715V470.014" stroke="#7BDDEF" stroke-width="6" stroke-miterlimit="10"/>
<path opacity="0.6" d="M245.891 304.715V470.014" stroke="#7BDDEF" stroke-width="6" stroke-miterlimit="10"/>
<path opacity="0.6" d="M286.146 304.715V470.014" stroke="#7BDDEF" stroke-width="6" stroke-miterlimit="10"/>
<path opacity="0.6" d="M326.405 304.715V470.014" stroke="#7BDDEF" stroke-width="6" stroke-miterlimit="10"/>
<path opacity="0.6" d="M366.66 304.715V470.014" stroke="#7BDDEF" stroke-width="6" stroke-miterlimit="10"/>
<path opacity="0.6" d="M406.913 304.715V470.014" stroke="#7BDDEF" stroke-width="6" stroke-miterlimit="10"/>
<path opacity="0.6" d="M447.174 304.715V470.014" stroke="#7BDDEF" stroke-width="6" stroke-miterlimit="10"/>
<path opacity="0.6" d="M487.428 304.715V470.014" stroke="#7BDDEF" stroke-width="6" stroke-miterlimit="10"/>
<path opacity="0.6" d="M527.682 304.715V470.014" stroke="#7BDDEF" stroke-width="6" stroke-miterlimit="10"/>
<path opacity="0.6" d="M567.942 304.715V470.014" stroke="#7BDDEF" stroke-width="6" stroke-miterlimit="10"/>
<path opacity="0.6" d="M608.195 304.715V470.014" stroke="#7BDDEF" stroke-width="6" stroke-miterlimit="10"/>
<path opacity="0.6" d="M648.45 304.715V470.014" stroke="#7BDDEF" stroke-width="6" stroke-miterlimit="10"/>
<path opacity="0.6" d="M688.71 304.715V470.014" stroke="#7BDDEF" stroke-width="6" stroke-miterlimit="10"/>
<path opacity="0.6" d="M728.965 304.715V470.014" stroke="#7BDDEF" stroke-width="6" stroke-miterlimit="10"/>
<path opacity="0.6" d="M769.225 304.715V470.014" stroke="#7BDDEF" stroke-width="6" stroke-miterlimit="10"/>
<path opacity="0.6" d="M809.479 304.715V470.014" stroke="#7BDDEF" stroke-width="6" stroke-miterlimit="10"/>
<path opacity="0.6" d="M849.732 304.715V470.014" stroke="#7BDDEF" stroke-width="6" stroke-miterlimit="10"/>
<path opacity="0.6" d="M889.993 304.715V470.014" stroke="#7BDDEF" stroke-width="6" stroke-miterlimit="10"/>
</g>
<g opacity="0.4">
<path opacity="0.4" d="M-46 302.963H942.853" stroke="#7BDDEF" stroke-width="6" stroke-miterlimit="10"/>
<path opacity="0.4" d="M-46 338.269H942.853" stroke="#7BDDEF" stroke-width="6" stroke-miterlimit="10"/>
<path opacity="0.4" d="M-46 373.576H942.853" stroke="#7BDDEF" stroke-width="6" stroke-miterlimit="10"/>
<path opacity="0.4" d="M-46 408.882H942.853" stroke="#7BDDEF" stroke-width="6" stroke-miterlimit="10"/>
<path opacity="0.4" d="M-46 444.189H942.853" stroke="#7BDDEF" stroke-width="6" stroke-miterlimit="10"/>
</g>
<path d="M942.853 -1H-46V300.703H942.853V-1Z" fill="#7BDDEF"/>
<path d="M241.376 542.187L287.903 542.412C287.903 542.412 298.717 549.672 301.587 554.91C303.783 558.916 303.635 567.903 303.443 571.908C303.391 573.025 302.467 573.898 301.349 573.898L256.472 573.815C255.034 573.809 253.871 572.64 253.884 571.196C253.929 566.227 253.082 555.648 251.207 552.625C248.414 548.125 241.376 542.187 241.376 542.187Z" fill="#D0C5F3"/>
<path d="M227.262 488.476C218.684 518.435 222.19 565.932 222.549 568.442C223.044 571.921 223.512 574.361 228.47 574.361C234.634 574.361 261.095 574.361 261.095 574.361L247.2 490.408L227.262 488.476Z" fill="#8065E0"/>
<path d="M254.622 493.098C256.696 507.798 271.362 528.456 299.153 550.083C302.402 552.612 304.071 555.276 304.071 559.038V571.074C304.071 572.852 302.627 574.296 300.848 574.296H256.24C254.982 574.296 253.961 573.276 253.961 572.018V558.126C253.961 553.799 253.088 551.578 248.644 548.388C237.529 540.415 230.505 513.518 230.28 494.395C230.055 475.265 254.622 493.098 254.622 493.098Z" fill="#A08BE8"/>
<path d="M303.655 556.078C303.924 556.996 304.072 557.966 304.072 559.038V571.074C304.072 572.852 302.627 574.297 300.849 574.297H256.241C254.983 574.297 253.962 573.276 253.962 572.018V558.126C253.962 557.388 253.936 556.707 253.865 556.078H303.655Z" fill="#D0C5F3"/>
<path d="M186.258 542.187L232.785 542.412C232.785 542.412 243.598 549.672 246.469 554.91C248.665 558.916 248.517 567.903 248.324 571.908C248.273 573.025 247.348 573.898 246.231 573.898L201.354 573.815C199.916 573.809 198.753 572.64 198.766 571.196C198.811 566.227 197.964 555.648 196.089 552.625C193.289 548.125 186.258 542.187 186.258 542.187Z" fill="#D0C5F3"/>
<path d="M172.144 488.476C163.566 518.435 167.072 565.932 167.431 568.442C167.926 571.921 168.394 574.361 173.351 574.361C179.516 574.361 205.977 574.361 205.977 574.361L192.082 490.408L172.144 488.476Z" fill="#8065E0"/>
<path d="M199.504 493.098C201.578 507.798 216.244 528.456 244.035 550.083C247.284 552.612 248.953 555.276 248.953 559.038V571.074C248.953 572.852 247.508 574.296 245.73 574.296H201.122C199.864 574.296 198.843 573.276 198.843 572.018V558.126C198.843 553.799 197.97 551.578 193.526 548.388C182.411 540.415 175.386 513.518 175.162 494.395C174.937 475.265 199.504 493.098 199.504 493.098Z" fill="#A08BE8"/>
<path d="M248.537 556.078C248.807 556.996 248.954 557.966 248.954 559.038V571.074C248.954 572.852 247.51 574.297 245.731 574.297H201.117C199.858 574.297 198.838 573.276 198.838 572.018V558.126C198.838 557.388 198.812 556.707 198.741 556.078H248.537Z" fill="#D0C5F3"/>
<path d="M247.849 396.5L247.778 462.118L224.213 462.093L224.284 396.474L247.849 396.5Z" fill="url(#paint0_linear)"/>
<path d="M224.322 436.223L247.907 436.223L247.907 433.148L224.322 433.148L224.322 436.223Z" fill="#A08BE8"/>
<path d="M229.626 461.252H252.196C256.132 461.252 259.317 464.442 259.317 468.371V491.763C259.317 495.698 256.126 498.882 252.196 498.882H229.626C225.69 498.882 222.505 495.691 222.505 491.763V468.371C222.505 464.442 225.696 461.252 229.626 461.252Z" fill="#512BD4"/>
<path d="M191.811 396.5L191.741 471.446L168.169 471.42L168.24 396.474L191.811 396.5Z" fill="url(#paint1_linear)"/>
<path d="M168.28 426.638L191.865 426.638L191.865 423.564L168.28 423.564L168.28 426.638Z" fill="#A08BE8"/>
<path d="M373.819 383.783C350.703 375.958 312.394 358.253 277.637 298.11L295.629 287.717C310.975 314.274 328.749 334.61 348.449 348.168C364.656 359.319 378.981 363.729 388.459 366.649L390.289 367.214L384.118 387.05L382.34 386.498C379.81 385.721 376.952 384.842 373.819 383.783Z" fill="#B09FEB"/>
<path d="M338.033 366.277C338.765 366.765 339.491 367.247 340.216 367.715L351.98 350.518C351.254 350.056 350.529 349.58 349.797 349.086L338.033 366.277Z" fill="#A08BE8"/>
<path d="M310.468 342.821C313.473 345.979 316.459 348.894 319.419 351.596C324.357 344.355 329.77 336.658 331.426 334.315C330.714 333.641 330.007 332.961 329.307 332.267L310.468 342.821Z" fill="#A08BE8"/>
<path d="M313.974 344.471C326.585 317.394 325.955 293.828 325.955 293.828L332.646 295.054L332.832 294.958C332.794 241.035 294.312 193.147 239.36 183.101C177.448 171.783 118.078 212.784 106.758 274.679C95.4371 336.575 136.442 395.928 198.361 407.246C247.213 416.175 294.479 392.526 317.807 351.75C318.584 349.972 319.155 346.64 313.974 344.471Z" fill="url(#paint2_radial)"/>
<path d="M317.113 352.951C317.113 352.951 321.313 347.545 313.974 344.477C326.431 317.734 325.968 294.425 325.955 293.86L209.65 272.593C209.65 272.593 202.458 270.513 201.231 277.202C200.005 283.891 196.827 302.847 193 323.762C192.21 328.063 195.356 330.778 198.13 331.285L317.563 353.124C317.28 353.008 317.113 352.951 317.113 352.951Z" fill="white"/>
<path d="M258.155 334.174C258.155 334.174 270.953 327.369 273.431 326.137C275.91 324.898 277.836 325.161 279.525 327.247C281.207 329.34 290.8 340.144 290.8 340.144L258.155 334.174Z" fill="#A08BE8"/>
<path d="M317.113 352.951C317.113 352.951 321.313 347.545 313.973 344.477C313.986 344.451 313.999 344.419 314.012 344.394L199.639 323.486C196.98 322.998 193.847 320.783 194.02 318.151C193.686 320 193.346 321.874 192.999 323.762C192.287 327.665 194.81 330.258 197.353 331.08C197.61 331.157 197.867 331.234 198.13 331.285L205.951 332.717L317.569 353.124C317.28 353.008 317.113 352.951 317.113 352.951Z" fill="#8065E0"/>
<path d="M305.132 369.59L111.824 334.245C114.816 342.41 118.727 350.171 123.453 357.406L286.061 387.134C293.035 382.05 299.443 376.169 305.132 369.59Z" fill="url(#paint3_radial)"/>
<path d="M245.677 306.909C247.108 298.759 244.339 291.463 239.491 290.612C234.643 289.761 229.553 295.678 228.122 303.828C226.69 311.978 229.46 319.274 234.308 320.125C239.156 320.976 244.246 315.059 245.677 306.909Z" fill="#512BD4"/>
<path d="M238.25 297.969C234.442 300.556 233.453 305.736 236.041 309.549C237.8 312.143 240.767 313.427 243.682 313.163C244.587 311.321 245.287 309.203 245.692 306.898C246.34 303.201 246.116 299.683 245.236 296.858C242.937 296.197 240.375 296.518 238.25 297.969Z" fill="#8065E0"/>
<path d="M311.095 318.639C312.768 310.535 310.218 303.16 305.397 302.165C300.577 301.17 295.312 306.932 293.639 315.036C291.965 323.139 294.516 330.515 299.336 331.51C304.157 332.505 309.421 326.742 311.095 318.639Z" fill="#512BD4"/>
<path d="M303.757 309.017C299.949 311.604 298.96 316.784 301.548 320.597C303.32 323.203 306.312 324.487 309.247 324.211C310.056 322.542 310.698 320.661 311.115 318.633C311.937 314.659 311.738 310.865 310.756 307.906C308.451 307.238 305.888 307.566 303.757 309.017Z" fill="#8065E0"/>
<path d="M365.15 340.208L376.895 370.989C378.77 375.906 384.285 378.378 389.204 376.497L390.45 376.022C395.368 374.147 397.84 368.633 395.959 363.716L384.215 332.935C382.34 328.018 376.824 325.546 371.905 327.427L370.66 327.902C365.741 329.783 363.275 335.291 365.15 340.208Z" fill="#B09FEB"/>
<path d="M383.341 395.286C395.203 395.286 404.82 385.673 404.82 373.814C404.82 361.954 395.203 352.341 383.341 352.341C371.479 352.341 361.862 361.954 361.862 373.814C361.862 385.673 371.479 395.286 383.341 395.286Z" fill="#9078E4"/>
<path d="M231.975 405.108C228.508 404.954 225.374 402.97 223.589 399.992L165.902 304.812C164.72 302.841 162.139 302.231 160.2 303.457L156.045 306.089C154.1 307.322 153.554 309.909 154.832 311.822L216.545 405.018C218.465 407.894 218.914 411.514 217.739 414.763C215.036 422.248 216.667 432.859 222.741 442.443C231.41 456.129 245.838 462.535 254.963 456.758C264.087 450.981 264.459 435.202 255.791 421.516C249.472 411.566 240.117 405.467 231.975 405.108Z" fill="#9B643D"/>
<path d="M150.826 379.944C147.358 379.944 143.608 379.861 139.692 379.636C115.304 378.262 97.0489 372.465 85.4523 362.406C72.5138 351.185 68.1602 334.919 73.8044 318.877C81.0924 298.174 102.777 284.154 129.058 283.159L129.842 303.913C108.337 304.728 96.7728 316.193 93.4017 325.765C91.79 330.354 90.3773 339.175 99.0651 346.711C106.995 353.586 121.449 357.804 140.86 358.895C156.374 359.768 169.164 358.272 169.293 358.253L171.765 378.878C171.303 378.936 162.711 379.944 150.826 379.944Z" fill="#B09FEB"/>
<path d="M92.5346 336.106C92.3356 335.105 92.2264 334.129 92.2007 333.185L71.499 329.597C71.0431 335.406 71.8779 341.087 73.9455 346.39C83.1983 341.383 90.3835 337.326 92.5346 336.106Z" fill="#A08BE8"/>
<path d="M106.705 351.609C105.903 351.224 105.126 350.819 104.387 350.402L93.7861 368.261C94.531 368.691 95.3015 369.102 96.0849 369.506L106.705 351.609Z" fill="#A08BE8"/>
<path d="M130.202 357.926C129.322 357.81 128.461 357.688 127.614 357.56L125.944 378.307C126.798 378.429 127.659 378.545 128.538 378.654L130.202 357.926Z" fill="#A08BE8"/>
<path d="M84.2129 301.987L98.2109 317.541C98.7631 316.887 99.3539 316.245 99.9832 315.609L86.0493 300.132C85.4136 300.736 84.8101 301.358 84.2129 301.987Z" fill="#A08BE8"/>
<path d="M131.107 312.964C142.664 312.964 152.034 303.598 152.034 292.044C152.034 280.49 142.664 271.123 131.107 271.123C119.55 271.123 110.181 280.49 110.181 292.044C110.181 303.598 119.55 312.964 131.107 312.964Z" fill="url(#paint4_radial)"/>
<path d="M183.15 360.84L196.191 344.053C199.633 339.553 198.779 333.115 194.284 329.674C189.783 326.233 183.342 327.087 179.901 331.581L166.525 348.797L183.15 360.84Z" fill="#B09FEB"/>
<path d="M390.745 296.691H387.901C387.483 296.691 387.143 296.357 387.143 295.94C387.143 295.273 387.137 294.554 387.13 293.764C387.111 291.004 387.085 287.569 387.143 283.076C387.22 276.99 382.327 273.517 380.587 272.477C380.247 272.278 380.118 271.855 380.292 271.502L381.525 268.934C381.717 268.536 382.199 268.382 382.578 268.607C384.838 269.91 391.606 274.532 391.497 283.14C391.439 287.589 391.465 291.004 391.484 293.745C391.49 294.541 391.497 295.273 391.497 295.947C391.503 296.351 391.163 296.691 390.745 296.691Z" fill="white"/>
<path d="M403.676 340.247C403.561 334.784 401.108 329.995 397.416 327.132C396.934 326.76 396.652 326.188 396.652 325.585V297.109C396.652 296.024 395.772 295.151 394.693 295.151H384.028C382.943 295.151 382.069 296.03 382.069 297.109V325.752C382.069 326.349 381.8 326.907 381.331 327.28C377.748 330.155 375.372 334.88 375.256 340.247H375.25V340.574C375.25 340.6 375.25 340.619 375.25 340.645C375.25 340.67 375.25 340.69 375.25 340.715V427.877C375.25 429.912 376.9 431.562 378.936 431.562H400.344C402.193 431.562 403.689 430.066 403.689 428.218V340.247H403.676Z" fill="white"/>
<path d="M394.52 298.347H384.239V310.499H394.52V298.347Z" fill="#E0BB95"/>
<path d="M396.652 300.633V297.109C396.652 296.024 395.772 295.151 394.693 295.151H384.028C382.943 295.151 382.069 296.03 382.069 297.109V300.633H396.652Z" fill="#605D5A"/>
<path d="M375.25 340.837V427.877C375.25 429.912 376.9 431.562 378.936 431.562H400.344C402.193 431.562 403.689 430.066 403.689 428.218V340.837H375.25Z" fill="#E8D441"/>
<path d="M411.132 370.745H393.692C388.536 370.745 384.362 366.566 384.362 361.418V360.115C384.362 354.96 388.542 350.787 393.692 350.787H411.132C416.288 350.787 420.462 354.966 420.462 360.115V361.418C420.468 366.572 416.288 370.745 411.132 370.745Z" fill="#B09FEB"/>
<path d="M410.753 389.104L392.755 385.927C387.322 384.97 383.694 379.796 384.651 374.366C385.608 368.935 390.783 365.308 396.216 366.264L414.214 369.442C419.646 370.398 423.274 375.572 422.317 381.003C421.367 386.428 416.185 390.054 410.753 389.104Z" fill="#B09FEB"/>
<path d="M402.361 406.571L389.814 400.614C384.818 398.271 382.673 392.327 385.011 387.339C387.354 382.345 393.3 380.201 398.29 382.537L410.837 388.495C415.832 390.838 417.977 396.782 415.64 401.77C413.296 406.764 407.35 408.908 402.361 406.571Z" fill="#B09FEB"/>
<path d="M241.992 349.752L235.475 387.914L273.647 394.429L280.164 356.268L241.992 349.752Z" fill="#512BD4"/>
<path d="M244.658 375.303C244.388 375.258 244.176 375.129 244.016 374.918C243.855 374.699 243.804 374.468 243.842 374.212C243.887 373.955 244.016 373.749 244.24 373.595C244.459 373.441 244.709 373.39 244.979 373.435C245.255 373.48 245.467 373.614 245.627 373.833C245.788 374.051 245.846 374.289 245.807 374.545C245.762 374.802 245.627 375.001 245.403 375.155C245.178 375.296 244.934 375.348 244.658 375.303Z" fill="white"/>
<path d="M255.471 376.991L253.718 376.689L250.34 368.607C250.257 368.402 250.193 368.197 250.148 367.985L250.109 367.978C250.109 368.197 250.051 368.652 249.929 369.352L248.819 375.855L247.265 375.592L248.96 365.674L250.828 365.995L254.077 373.878C254.219 374.205 254.302 374.43 254.341 374.552L254.366 374.558C254.366 374.289 254.418 373.839 254.527 373.21L255.619 366.816L257.166 367.08L255.471 376.991Z" fill="white"/>
<path d="M263.035 378.281L257.603 377.357L259.298 367.439L264.512 368.331L264.274 369.731L260.665 369.115L260.184 371.92L263.51 372.485L263.272 373.878L259.946 373.313L259.445 376.246L263.272 376.901L263.035 378.281Z" fill="white"/>
<path d="M272.21 371.079L269.43 370.604L267.972 379.122L266.367 378.846L267.825 370.328L265.051 369.853L265.288 368.453L272.448 369.673L272.21 371.079Z" fill="white"/>
<path d="M246.822 194.495L176.825 200.94C173.223 201.274 170.038 198.623 169.704 195.022L163.084 123.208C162.75 119.607 165.402 116.423 169.004 116.089L239.001 109.644C242.603 109.31 245.788 111.961 246.122 115.563L252.742 187.376C253.07 190.977 250.418 194.161 246.822 194.495Z" fill="url(#paint5_linear)"/>
<path d="M242.186 76.8925C237.267 77.3483 232.74 78.9788 228.855 81.4759C222.954 72.8932 212.713 67.6615 201.598 68.6821C190.483 69.7028 181.371 76.7192 177.14 86.2391C172.863 84.493 168.112 83.7163 163.193 84.1656C146.839 85.6742 134.799 100.15 136.301 116.506C137.81 132.856 152.29 144.893 168.651 143.391C179.766 142.37 188.878 135.354 193.109 125.834C197.386 127.58 202.137 128.356 207.056 127.907C211.974 127.451 216.501 125.821 220.386 123.324C226.287 131.906 236.529 137.138 247.644 136.118C263.998 134.609 276.038 120.133 274.535 103.777C273.026 87.4203 258.547 75.384 242.186 76.8925Z" fill="white"/>
<path d="M258.739 207.231C258.444 209.26 259.407 211.346 261.307 212.386C285.701 225.802 303.68 248.963 310.635 275.938C311.328 278.64 314.089 280.264 316.792 279.571C319.496 278.871 321.12 276.117 320.427 273.415C312.786 243.751 293.015 218.279 266.181 203.527C263.735 202.179 260.665 203.071 259.317 205.517C259.015 206.076 258.823 206.653 258.739 207.231Z" fill="url(#paint6_linear)"/>
<path d="M182.431 382.024L203.692 381.523C209.355 381.35 213.805 376.619 213.632 370.957C213.458 365.295 208.726 360.846 203.062 361.02L181.263 361.533L182.431 382.024Z" fill="#B09FEB"/>
<path d="M171.534 368.248L203.338 366.213C208.995 365.898 213.323 361.052 213.009 355.396C212.694 349.741 207.846 345.414 202.189 345.729L169.846 347.796L171.534 368.248Z" fill="#B09FEB"/>
<path d="M174.977 389.965L195.922 393.617C201.509 394.554 206.8 390.78 207.731 385.195C208.668 379.61 204.893 374.321 199.306 373.383L177.828 369.641L174.977 389.965Z" fill="#B09FEB"/>
<path d="M172.234 390.382C184.096 390.382 193.712 380.768 193.712 368.909C193.712 357.05 184.096 347.436 172.234 347.436C160.371 347.436 150.755 357.05 150.755 368.909C150.755 380.768 160.371 390.382 172.234 390.382Z" fill="#9078E4"/>
<path d="M942.686 489.67H-45.833V641H942.686V489.67Z" fill="#BF8F68"/>
<path d="M942.57 468.39H-45.8584V518.718H942.57V468.39Z" fill="#797673"/>
<path d="M389.319 468.39H-19.4941V518.718H389.319V468.39Z" fill="#B3AFAB"/>
<path d="M942.57 518.718H-45.8584V537.34H942.57V518.718Z" fill="#E0BB95"/>
<path d="M377.826 508.023H-7.15269C-9.34872 508.023 -11.1338 506.245 -11.1338 504.043V482.179C-11.1338 479.983 -9.35514 478.199 -7.15269 478.199H377.826C380.022 478.199 381.807 479.977 381.807 482.179V504.043C381.807 506.238 380.022 508.023 377.826 508.023Z" fill="#33312D"/>
<path d="M381.807 490.421H187.735V478.199H183.24V490.421H-11.1338V494.915H183.24V508.023H187.735V494.915H381.807V490.421Z" fill="#737373"/>
<path d="M366.525 429.662H190.227C188.294 429.662 186.605 431.247 186.547 433.308C186.49 435.439 188.088 437.185 190.079 437.185H197.162C199.203 437.185 200.854 438.944 200.854 441.12V484.214C200.854 493.579 207.981 501.174 216.772 501.174H338.272C347.063 501.174 354.19 493.579 354.19 484.214V441.12C354.19 438.944 355.847 437.185 357.882 437.185H366.384C368.316 437.185 370.005 435.6 370.063 433.539C370.114 431.408 368.516 429.662 366.525 429.662Z" fill="white"/>
<path d="M190.329 437.185H197.161C199.203 437.185 200.853 438.944 200.853 441.12V444.651H354.183V441.12C354.183 438.944 355.833 437.185 357.875 437.185H361.991V437.128H190.329V437.185Z" fill="#E1DFDD"/>
<path d="M587.161 508.607H452.427C449.319 508.607 446.802 506.091 446.802 502.984V481.851C446.802 478.744 449.319 476.228 452.427 476.228H587.161C590.269 476.228 592.786 478.744 592.786 481.851V502.984C592.786 506.091 590.269 508.607 587.161 508.607Z" fill="#BF8F68"/>
<path d="M869.491 492.424H824.929C822.392 492.424 820.331 490.37 820.331 487.828V385.888C820.331 383.353 822.386 381.292 824.929 381.292H869.491C872.028 381.292 874.089 383.346 874.089 385.888V487.828C874.089 490.363 872.028 492.424 869.491 492.424Z" fill="#BF8F68"/>
<path d="M835.594 361.816H831.382V429.45H835.594V361.816Z" fill="#E1DFDD"/>
<path d="M833.719 321.881H833.084C831.145 321.881 829.571 323.454 829.571 325.392V386.768C829.571 388.706 831.145 390.279 833.084 390.279H833.719C835.659 390.279 837.232 388.706 837.232 386.768V325.392C837.232 323.454 835.659 321.881 833.719 321.881Z" fill="#B3AFAB"/>
<path d="M849.104 361.816H844.892V429.45H849.104V361.816Z" fill="#E1DFDD"/>
<path d="M847.229 321.881H846.593C844.654 321.881 843.081 323.454 843.081 325.392V386.768C843.081 388.706 844.654 390.279 846.593 390.279H847.229C849.168 390.279 850.741 388.706 850.741 386.768V325.392C850.741 323.454 849.168 321.881 847.229 321.881Z" fill="#B3AFAB"/>
<path d="M862.608 361.816H858.396V429.45H862.608V361.816Z" fill="#E1DFDD"/>
<path d="M860.733 321.881H860.097C858.158 321.881 856.585 323.454 856.585 325.392V386.768C856.585 388.706 858.158 390.279 860.097 390.279H860.733C862.672 390.279 864.245 388.706 864.245 386.768V325.392C864.245 323.454 862.672 321.881 860.733 321.881Z" fill="#B3AFAB"/>
<path d="M407.883 508.248C411.791 508.248 414.959 505.08 414.959 501.174C414.959 497.267 411.791 494.099 407.883 494.099C403.975 494.099 400.807 497.267 400.807 501.174C400.807 505.08 403.975 508.248 407.883 508.248Z" fill="#B3AFAB"/>
<path d="M407.883 490.273C411.791 490.273 414.959 487.106 414.959 483.199C414.959 479.292 411.791 476.125 407.883 476.125C403.975 476.125 400.807 479.292 400.807 483.199C400.807 487.106 403.975 490.273 407.883 490.273Z" fill="#B3AFAB"/>
<path d="M609.256 329.501C623.799 329.501 635.589 317.714 635.589 303.175C635.589 288.635 623.799 276.849 609.256 276.849C594.712 276.849 582.923 288.635 582.923 303.175C582.923 317.714 594.712 329.501 609.256 329.501Z" fill="#512BD4"/>
<path d="M725.492 483.244H699.133V639.973H717.035L725.492 483.244Z" fill="url(#paint7_linear)"/>
<path d="M683.202 483.244H656.843L665.299 639.973H683.202V483.244Z" fill="url(#paint8_linear)"/>
<path d="M692.223 520.945C731.551 520.945 763.433 489.072 763.433 449.754C763.433 410.437 731.551 378.564 692.223 378.564C652.895 378.564 621.013 410.437 621.013 449.754C621.013 489.072 652.895 520.945 692.223 520.945Z" fill="#2B579A"/>
<path d="M605.77 406.36H778.677L784.322 355.236H600.132L605.77 406.36Z" fill="#2B88D8"/>
<path d="M620.712 402.098L657.691 402.098L657.691 365.129L620.712 365.129L620.712 402.098Z" fill="#2B579A"/>
<path d="M692.223 336.093C731.551 336.093 763.433 304.22 763.433 264.903C763.433 225.585 731.551 193.712 692.223 193.712C652.895 193.712 621.013 225.585 621.013 264.903C621.013 304.22 652.895 336.093 692.223 336.093Z" fill="#2B88D8"/>
<path d="M587.142 354.87L579.86 290.856C578.994 283.249 584.946 276.579 592.606 276.579H789.67C797.331 276.579 803.283 283.249 802.416 290.856L795.135 354.87C794.396 361.354 788.913 366.245 782.389 366.245H599.894C593.364 366.245 587.874 361.347 587.142 354.87Z" fill="url(#paint9_radial)"/>
<path d="M606.565 399.285H775.704C783.364 399.285 789.317 405.955 788.45 413.562L780.995 479.072C778.96 483.54 774.471 486.595 769.328 486.595H613.224C607.715 486.595 602.963 483.103 601.165 478.115L593.819 413.562C592.953 405.949 598.905 399.285 606.565 399.285Z" fill="url(#paint10_radial)"/>
<path d="M680.313 224.73H634.369C628.661 233.063 624.686 242.679 622.946 253.046H680.313C686.066 253.046 690.728 248.386 690.728 242.634V235.136C690.728 229.391 686.066 224.73 680.313 224.73Z" fill="#2B579A"/>
<path d="M655.418 249.528C661.358 249.528 666.174 244.714 666.174 238.776C666.174 232.837 661.358 228.023 655.418 228.023C649.478 228.023 644.663 232.837 644.663 238.776C644.663 244.714 649.478 249.528 655.418 249.528Z" fill="white"/>
<path d="M623.749 249.528C629.689 249.528 634.504 244.714 634.504 238.776C634.504 232.837 629.689 228.023 623.749 228.023C617.808 228.023 612.993 232.837 612.993 238.776C612.993 244.714 617.808 249.528 623.749 249.528Z" fill="white"/>
<path d="M488.019 355.82C486.202 345.228 473.469 329.16 473.469 329.16C473.469 329.16 482.811 328.108 491.165 331.683C499.519 335.259 506.775 341.588 506.775 341.588C506.775 341.588 514.069 334.771 517.518 330.464C520.966 326.156 528.164 317.779 528.164 317.779C528.164 317.779 536.858 317.092 537.153 322.529C537.449 327.966 547.459 322.606 546.926 328.563C546.393 334.521 557.226 333.526 557.226 333.526L546.926 349.587C546.926 349.587 540.602 352.039 552.731 348.637C564.861 345.228 572.804 328.563 572.804 328.563C572.804 328.563 576.399 333.384 578.082 339.309C579.764 345.235 577.298 352.155 577.298 352.155C577.298 352.155 585.729 340.6 592.876 335.772C600.023 330.951 608.364 327.966 608.364 327.966C608.364 327.966 607.169 345.356 604.19 352.148C601.211 358.94 488.019 355.82 488.019 355.82Z" fill="#56A84F"/>
<path d="M466.848 344.008C466.848 344.13 466.842 344.252 466.842 344.374C466.842 382.486 497.747 413.389 535.875 413.389C574.004 413.389 604.909 382.492 604.909 344.374C604.909 344.252 604.902 344.13 604.902 344.008H466.848Z" fill="white"/>
<path d="M485.888 359.094C488.371 359.094 490.383 357.082 490.383 354.6C490.383 352.119 488.371 350.107 485.888 350.107C483.406 350.107 481.394 352.119 481.394 354.6C481.394 357.082 483.406 359.094 485.888 359.094Z" fill="#C7E0F4"/>
<path d="M505.967 359.094C508.449 359.094 510.461 357.082 510.461 354.6C510.461 352.119 508.449 350.107 505.967 350.107C503.484 350.107 501.472 352.119 501.472 354.6C501.472 357.082 503.484 359.094 505.967 359.094Z" fill="#C7E0F4"/>
<path d="M526.039 359.094C528.521 359.094 530.534 357.082 530.534 354.6C530.534 352.119 528.521 350.107 526.039 350.107C523.556 350.107 521.544 352.119 521.544 354.6C521.544 357.082 523.556 359.094 526.039 359.094Z" fill="#C7E0F4"/>
<path d="M546.111 359.094C548.593 359.094 550.606 357.082 550.606 354.6C550.606 352.119 548.593 350.107 546.111 350.107C543.629 350.107 541.616 352.119 541.616 354.6C541.616 357.082 543.629 359.094 546.111 359.094Z" fill="#C7E0F4"/>
<path d="M566.183 359.094C568.666 359.094 570.678 357.082 570.678 354.6C570.678 352.119 568.666 350.107 566.183 350.107C563.701 350.107 561.688 352.119 561.688 354.6C561.688 357.082 563.701 359.094 566.183 359.094Z" fill="#C7E0F4"/>
<path d="M586.257 359.094C588.739 359.094 590.751 357.082 590.751 354.6C590.751 352.119 588.739 350.107 586.257 350.107C583.774 350.107 581.762 352.119 581.762 354.6C581.762 357.082 583.774 359.094 586.257 359.094Z" fill="#C7E0F4"/>
<path d="M495.66 374.751C498.142 374.751 500.155 372.739 500.155 370.257C500.155 367.775 498.142 365.764 495.66 365.764C493.177 365.764 491.165 367.775 491.165 370.257C491.165 372.739 493.177 374.751 495.66 374.751Z" fill="#C7E0F4"/>
<path d="M515.732 374.751C518.214 374.751 520.227 372.739 520.227 370.257C520.227 367.775 518.214 365.764 515.732 365.764C513.25 365.764 511.237 367.775 511.237 370.257C511.237 372.739 513.25 374.751 515.732 374.751Z" fill="#C7E0F4"/>
<path d="M535.805 374.751C538.288 374.751 540.3 372.739 540.3 370.257C540.3 367.775 538.288 365.764 535.805 365.764C533.323 365.764 531.311 367.775 531.311 370.257C531.311 372.739 533.323 374.751 535.805 374.751Z" fill="#C7E0F4"/>
<path d="M555.884 374.751C558.367 374.751 560.379 372.739 560.379 370.257C560.379 367.775 558.367 365.764 555.884 365.764C553.402 365.764 551.39 367.775 551.39 370.257C551.39 372.739 553.402 374.751 555.884 374.751Z" fill="#C7E0F4"/>
<path d="M575.957 374.751C578.439 374.751 580.451 372.739 580.451 370.257C580.451 367.775 578.439 365.764 575.957 365.764C573.474 365.764 571.462 367.775 571.462 370.257C571.462 372.739 573.474 374.751 575.957 374.751Z" fill="#C7E0F4"/>
<path d="M505.967 390.407C508.449 390.407 510.461 388.396 510.461 385.914C510.461 383.432 508.449 381.42 505.967 381.42C503.484 381.42 501.472 383.432 501.472 385.914C501.472 388.396 503.484 390.407 505.967 390.407Z" fill="#C7E0F4"/>
<path d="M526.039 390.407C528.521 390.407 530.534 388.396 530.534 385.914C530.534 383.432 528.521 381.42 526.039 381.42C523.556 381.42 521.544 383.432 521.544 385.914C521.544 388.396 523.556 390.407 526.039 390.407Z" fill="#C7E0F4"/>
<path d="M546.111 390.407C548.593 390.407 550.606 388.396 550.606 385.914C550.606 383.432 548.593 381.42 546.111 381.42C543.629 381.42 541.616 383.432 541.616 385.914C541.616 388.396 543.629 390.407 546.111 390.407Z" fill="#C7E0F4"/>
<path d="M566.183 390.407C568.666 390.407 570.678 388.396 570.678 385.914C570.678 383.432 568.666 381.42 566.183 381.42C563.701 381.42 561.688 383.432 561.688 385.914C561.688 388.396 563.701 390.407 566.183 390.407Z" fill="#C7E0F4"/>
<path d="M515.732 406.064C518.214 406.064 520.227 404.052 520.227 401.571C520.227 399.089 518.214 397.077 515.732 397.077C513.25 397.077 511.237 399.089 511.237 401.571C511.237 404.052 513.25 406.064 515.732 406.064Z" fill="#C7E0F4"/>
<path d="M535.805 406.064C538.288 406.064 540.3 404.052 540.3 401.571C540.3 399.089 538.288 397.077 535.805 397.077C533.323 397.077 531.311 399.089 531.311 401.571C531.311 404.052 533.323 406.064 535.805 406.064Z" fill="#C7E0F4"/>
<path d="M555.884 406.064C558.367 406.064 560.379 404.052 560.379 401.571C560.379 399.089 558.367 397.077 555.884 397.077C553.402 397.077 551.39 399.089 551.39 401.571C551.39 404.052 553.402 406.064 555.884 406.064Z" fill="#C7E0F4"/>
<path d="M753.911 325.225C768.454 325.225 780.244 313.439 780.244 298.9C780.244 284.36 768.454 272.574 753.911 272.574C739.368 272.574 727.578 284.36 727.578 298.9C727.578 313.439 739.368 325.225 753.911 325.225Z" fill="#2B579A"/>
<path d="M600.414 408.317C602 411.861 605.602 414.275 609.724 414.153L703.19 411.315C706.825 411.206 710.106 409.107 711.724 405.852L761.622 305.633C764.05 300.755 762.059 294.83 757.185 292.403C752.305 289.977 746.385 291.96 743.951 296.839L696.686 391.775L609.127 394.432C603.682 394.599 599.399 399.151 599.566 404.594C599.605 405.917 599.907 407.175 600.414 408.317Z" fill="#106EBE"/>
<path d="M544.782 386.241C545.456 387.994 547.113 389.188 548.866 389.047C552.076 388.79 560.141 385.997 563.596 384.758L583.675 393.059C585.697 393.893 587.829 392.834 588.439 390.684C589.043 388.533 587.9 386.119 585.877 385.285L564.495 376.445C563.647 376.099 562.742 376.067 561.926 376.368C557.264 378.082 549.771 380.56 547.716 380.727C545.629 380.894 544.197 382.89 544.512 385.189C544.563 385.561 544.653 385.914 544.782 386.241Z" fill="#3E8EED"/>
<path d="M625.007 397.469L625.411 410.86C625.475 413.029 623.954 414.737 621.963 414.711L611.625 414.596C611.278 414.589 610.938 414.641 610.617 414.743L586.345 422.235C584.008 422.954 581.51 420.944 581.382 418.229L579.834 385.432C579.706 382.659 582.107 380.791 584.554 381.761L610.501 392.089C610.822 392.218 611.156 392.301 611.49 392.333L621.327 393.264C623.324 393.444 624.942 395.305 625.007 397.469Z" fill="#3E8EED"/>
<path d="M535.998 423.743C536.627 425.38 538.129 426.561 539.805 426.561L560.045 426.58C560.327 426.58 560.603 426.542 560.873 426.478L587.36 419.866C589.376 419.359 590.506 417.131 589.884 414.884C589.267 412.683 587.123 411.225 585.1 411.726L559.024 418.235L539.208 418.21C537.102 418.21 535.529 420.071 535.696 422.376C535.728 422.864 535.831 423.319 535.998 423.743Z" fill="#3E8EED"/>
<path d="M536.248 407.855C536.813 409.325 538.091 410.455 539.613 410.648L563.057 413.639C563.313 413.671 563.57 413.678 563.821 413.652L587.688 411.424C589.768 411.232 591.181 409.216 590.834 406.918C590.488 404.62 588.523 402.919 586.442 403.111L562.954 405.307L539.896 402.367C537.783 402.097 536.011 403.734 535.934 406.019C535.915 406.661 536.024 407.284 536.248 407.855Z" fill="#3E8EED"/>
<path d="M168.136 452.278L191.721 452.278L191.721 449.203L168.136 449.203L168.136 452.278Z" fill="#A08BE8"/>
</g>
<defs>
<linearGradient id="paint0_linear" x1="236.03" y1="396.476" x2="236.03" y2="462.118" gradientUnits="userSpaceOnUse">
<stop offset="0.2368" stop-color="#958FE7"/>
<stop offset="0.4881" stop-color="#BBB7EF"/>
</linearGradient>
<linearGradient id="paint1_linear" x1="179.99" y1="396.476" x2="179.99" y2="471.448" gradientUnits="userSpaceOnUse">
<stop offset="0.2368" stop-color="#958FE7"/>
<stop offset="0.4881" stop-color="#BBB7EF"/>
</linearGradient>
<radialGradient id="paint2_radial" cx="0" cy="0" r="1" gradientUnits="userSpaceOnUse" gradientTransform="translate(243.959 264.657) scale(197.207 197.153)">
<stop offset="0.186" stop-color="#A08BE8"/>
<stop offset="0.684" stop-color="#8065E0"/>
<stop offset="0.8157" stop-color="#8065E0"/>
</radialGradient>
<radialGradient id="paint3_radial" cx="0" cy="0" r="1" gradientUnits="userSpaceOnUse" gradientTransform="translate(148.212 356.447) scale(98.8722 98.8451)">
<stop offset="0.4614" stop-color="#A08BE8"/>
<stop offset="0.5268" stop-color="#A793EA"/>
<stop offset="0.8352" stop-color="#C5B7F0"/>
<stop offset="1" stop-color="#D0C5F3"/>
</radialGradient>
<radialGradient id="paint4_radial" cx="0" cy="0" r="1" gradientUnits="userSpaceOnUse" gradientTransform="translate(136.698 283.56) scale(26.5577 26.5505)">
<stop stop-color="#8065E0"/>
<stop offset="1" stop-color="#512BD4"/>
</radialGradient>
<linearGradient id="paint5_linear" x1="212.473" y1="189.748" x2="200.696" y2="100.773" gradientUnits="userSpaceOnUse">
<stop offset="0.3374" stop-color="white"/>
<stop offset="0.5193" stop-color="#F6F5F4"/>
<stop offset="0.7826" stop-color="#E1DFDD"/>
</linearGradient>
<linearGradient id="paint6_linear" x1="284.521" y1="275.453" x2="294.414" y2="207.497" gradientUnits="userSpaceOnUse">
<stop stop-color="#BDB9F0"/>
<stop offset="0.2325" stop-color="#CEC3E2" stop-opacity="0.7675"/>
<stop offset="0.7251" stop-color="#EDD6C9" stop-opacity="0.2749"/>
<stop offset="1" stop-color="#F9DDBF" stop-opacity="0"/>
</linearGradient>
<linearGradient id="paint7_linear" x1="712.313" y1="639.975" x2="712.313" y2="483.246" gradientUnits="userSpaceOnUse">
<stop offset="0.5372" stop-color="#72ACF1"/>
<stop offset="0.5695" stop-color="#69A7F0"/>
<stop offset="0.697" stop-color="#4A95EE"/>
<stop offset="0.7681" stop-color="#3E8EED"/>
</linearGradient>
<linearGradient id="paint8_linear" x1="670.023" y1="639.975" x2="670.023" y2="483.246" gradientUnits="userSpaceOnUse">
<stop offset="0.5372" stop-color="#72ACF1"/>
<stop offset="0.5695" stop-color="#69A7F0"/>
<stop offset="0.697" stop-color="#4A95EE"/>
<stop offset="0.7681" stop-color="#3E8EED"/>
</linearGradient>
<radialGradient id="paint9_radial" cx="0" cy="0" r="1" gradientUnits="userSpaceOnUse" gradientTransform="translate(644.876 276.313) scale(172.83 172.783)">
<stop offset="0.204" stop-color="#72ACF1"/>
<stop offset="0.2915" stop-color="#69A7F0"/>
<stop offset="0.6359" stop-color="#4A95EE"/>
<stop offset="0.828" stop-color="#3E8EED"/>
</radialGradient>
<radialGradient id="paint10_radial" cx="0" cy="0" r="1" gradientUnits="userSpaceOnUse" gradientTransform="translate(618.974 413.484) scale(147.091 147.05)">
<stop offset="0.0536" stop-color="#72ACF1"/>
<stop offset="1" stop-color="#3E8EED"/>
</radialGradient>
<clipPath id="clip0">
<rect width="896" height="642" fill="white"/>
</clipPath>
</defs>
</svg>
