<svg width="902" height="640" viewBox="0 0 902 640" fill="none" xmlns="http://www.w3.org/2000/svg">
<path d="M902 0H0V499.279H902V0Z" fill="url(#paint0_linear)"/>
<path d="M1.42969 477.96C97.3559 480.825 147.467 469.371 203.306 449.34C308.505 411.593 366.896 395.306 461.02 425.015C515.428 442.187 562.974 460.538 692.96 433.604C810.364 409.279 899.133 493.709 899.133 493.709L902 588.157L1.42969 568.114V477.96Z" fill="#72ACF1"/>
<path d="M902 521.553C791.632 486.511 675.716 463.916 555.901 455.398H340.372C222.629 463.769 108.65 485.742 0 519.752V640H902V521.553Z" fill="#C7E0F4"/>
<path d="M633.768 391.582L615.068 390.96L611.361 502.151L624.066 502.574L633.768 391.582Z" fill="url(#paint1_linear)"/>
<path d="M603.762 390.582L585.055 389.96L587.357 501.349L600.055 501.773L603.762 390.582Z" fill="url(#paint2_linear)"/>
<path d="M606.942 408.632C634.866 408.632 657.503 386.006 657.503 358.097C657.503 330.187 634.866 307.562 606.942 307.562C579.018 307.562 556.382 330.187 556.382 358.097C556.382 386.006 579.018 408.632 606.942 408.632Z" fill="#106EBE"/>
<path d="M540.657 340.117L660.966 315.709L657.67 279.346L529.505 305.344L540.657 340.117Z" fill="#2B88D8"/>
<path d="M586.601 327.702L612.331 322.483L607.109 296.766L581.379 301.985L586.601 327.702Z" fill="#106EBE"/>
<path d="M580.829 280.038C608.753 280.038 631.389 257.413 631.389 229.503C631.389 201.593 608.753 178.968 580.829 178.968C552.905 178.968 530.269 201.593 530.269 229.503C530.269 257.413 552.905 280.038 580.829 280.038Z" fill="url(#paint3_linear)"/>
<path d="M520.418 306.921L506.303 263.417C504.623 258.245 507.829 252.771 513.158 251.688L650.276 223.869C655.605 222.786 660.69 226.587 661.165 232.003L665.141 277.564C665.545 282.179 662.415 286.358 657.875 287.275L530.891 313.036C526.357 313.959 521.848 311.331 520.418 306.921Z" fill="url(#paint4_radial)"/>
<path d="M540.209 335.079L657.895 311.203C663.224 310.119 668.309 313.92 668.784 319.337L672.85 365.962C672.067 369.359 669.374 372.115 665.789 372.839L557.171 394.876C553.336 395.652 549.54 393.895 547.584 390.678L533.353 346.809C531.68 341.636 534.88 336.162 540.209 335.079Z" fill="url(#paint5_radial)"/>
<path d="M578.725 200.832L616.056 193.256C621.205 198.249 625.329 204.37 628.003 211.344L582.727 220.529C578.725 221.343 574.82 218.754 574.012 214.754L572.954 209.543C572.139 205.543 574.724 201.646 578.725 200.832Z" fill="#106EBE"/>
<path d="M589.429 216.466C593.647 216.466 597.067 213.048 597.067 208.831C597.067 204.615 593.647 201.197 589.429 201.197C585.211 201.197 581.791 204.615 581.791 208.831C581.791 213.048 585.211 216.466 589.429 216.466Z" fill="white"/>
<path d="M559.999 222.44C564.218 222.44 567.637 219.022 567.637 214.805C567.637 210.589 564.218 207.171 559.999 207.171C555.781 207.171 552.361 210.589 552.361 214.805C552.361 219.022 555.781 222.44 559.999 222.44Z" fill="white"/>
<path d="M595.085 535.129L564.565 534.116C562.186 534.04 560.442 531.815 560.961 529.489C564.79 512.362 578.456 499.1 595.553 495.632C597.952 495.145 600.17 497.061 600.087 499.503L599.023 531.444C598.952 533.552 597.188 535.2 595.085 535.129Z" fill="#2B88D8"/>
<path d="M616.216 496.318C633.044 500.914 645.793 515.054 648.474 532.399C648.839 534.751 646.947 536.853 644.568 536.776L614.048 535.764C611.945 535.693 610.297 533.931 610.367 531.828L611.432 499.888C611.522 497.439 613.856 495.677 616.216 496.318Z" fill="#2B88D8"/>
<path d="M580.341 356.488C582.29 358.43 585.298 359.116 587.998 357.988L649.236 332.355C651.615 331.361 653.257 329.131 653.501 326.567L661.094 247.463C661.459 243.611 658.638 240.195 654.79 239.823C650.942 239.458 647.518 242.278 647.146 246.124L639.957 321.054L582.579 345.066C579.013 346.559 577.327 350.661 578.821 354.232C579.193 355.103 579.712 355.86 580.341 356.488Z" fill="#C7E0F4"/>
<path d="M516.538 257.456C518.731 258.04 520.591 259.681 521.373 261.988C522.611 265.654 520.642 269.622 516.974 270.859L451.247 293.012L484.473 335.996C486.839 339.053 486.275 343.457 483.209 345.816C480.15 348.181 475.751 347.617 473.384 344.553L434.143 293.794C432.758 291.999 432.322 289.653 432.982 287.486C433.636 285.32 435.304 283.602 437.452 282.878L512.498 257.591C513.851 257.136 515.249 257.117 516.538 257.456Z" fill="#C7E0F4"/>
<path d="M498.421 392.902C497.209 393.203 495.914 392.812 495.228 391.844L486.955 380.102C486.839 379.935 486.75 379.762 486.673 379.576L479.702 361.5C479.169 360.122 480.003 358.558 481.568 358.001C483.094 357.462 484.826 358.109 485.352 359.488L492.213 377.288L500.313 388.78C501.172 390.005 500.73 391.678 499.325 392.524C499.043 392.697 498.736 392.825 498.421 392.902Z" fill="#106EBE"/>
<path d="M507.553 386.268C506.469 386.537 505.289 386.261 504.558 385.454L493.252 373.064C493.13 372.929 493.021 372.782 492.931 372.628L484.485 357.86C483.748 356.571 484.344 354.93 485.819 354.193C487.294 353.456 489.09 353.905 489.821 355.193L498.132 369.724L509.252 381.909C510.272 383.024 510.048 384.723 508.746 385.704C508.38 385.979 507.976 386.165 507.553 386.268Z" fill="#106EBE"/>
<path d="M516.622 372.493C515.333 372.814 513.96 372.346 513.325 371.269C512.165 369.301 510.491 363.481 509.805 360.968L496.78 352.7C495.471 351.866 495.215 350.193 496.215 348.969C497.222 347.745 499.088 347.418 500.397 348.251L514.262 357.058C514.813 357.411 515.198 357.924 515.358 358.52C516.269 361.923 517.885 367.288 518.629 368.551C519.386 369.833 518.808 371.48 517.346 372.23C517.109 372.339 516.865 372.429 516.622 372.493Z" fill="#106EBE"/>
<path d="M477.348 330.496L469.402 335.726C468.113 336.573 467.748 338.156 468.568 339.303L472.859 345.258C473 345.457 473.109 345.674 473.186 345.905L478.746 363.051C479.285 364.705 481.471 365.333 483.1 364.295L502.788 351.809C504.449 350.751 504.558 348.591 502.994 347.572L486.397 336.72C486.191 336.585 486.005 336.425 485.851 336.246L481.292 330.913C480.375 329.836 478.63 329.65 477.348 330.496Z" fill="#106EBE"/>
<path d="M658.029 255.892C668.353 255.892 676.723 247.527 676.723 237.208C676.723 226.889 668.353 218.523 658.029 218.523C647.705 218.523 639.335 226.889 639.335 237.208C639.335 247.527 647.705 255.892 658.029 255.892Z" fill="url(#paint6_radial)"/>
<path d="M510.901 285.736C521.225 285.736 529.595 277.371 529.595 267.052C529.595 256.733 521.225 248.367 510.901 248.367C500.577 248.367 492.207 256.733 492.207 267.052C492.207 277.371 500.577 285.736 510.901 285.736Z" fill="url(#paint7_radial)"/>
<path d="M406.952 503.542L366.64 505.856C365.402 505.926 364.209 505.375 363.459 504.381L356.975 495.741C356.045 494.497 355.987 492.805 356.828 491.504L366.627 476.403C367.313 475.351 368.48 474.717 369.737 474.717H378.074C378.683 474.717 379.28 474.569 379.818 474.281L392.548 467.493C393.69 466.884 395.062 466.916 396.172 467.57L410.601 476.05C411.403 476.524 411.999 477.274 412.268 478.159C412.98 480.498 414.237 485.325 413.865 489.062C413.506 492.639 411.403 498.202 410.165 501.247C409.626 502.567 408.376 503.458 406.952 503.542Z" fill="white"/>
<path d="M147.795 540.725L96.4653 541.994C94.6248 542.039 93.0793 540.629 92.951 538.796L91.8928 523.451C91.7967 522.047 92.5662 520.733 93.8296 520.124L129.069 503.17C130.121 502.663 131.352 502.728 132.346 503.33L146 511.637C146.865 512.163 147.455 513.047 147.609 514.047L151.104 536.77C151.419 538.815 149.867 540.674 147.795 540.725Z" fill="white"/>
<path d="M258.946 618.38L286.349 608.445C286.817 608.278 287.221 607.964 287.503 607.56L292.037 601.06C292.743 600.048 292.569 598.657 291.627 597.856L278.788 586.856C278.352 586.485 277.794 586.279 277.217 586.279H249.884C249.018 586.279 248.223 586.741 247.794 587.491L238.11 604.426C237.456 605.573 237.847 607.028 238.982 607.701L256.9 618.2C257.522 618.559 258.272 618.63 258.946 618.38Z" fill="white"/>
<path d="M395.28 536.725C392.901 536.148 392.086 533.174 393.856 531.476C397.332 528.13 402.302 523.944 405.053 524.309C408.459 524.758 416.276 529.174 419.957 531.341C421.137 532.04 421.721 533.424 421.394 534.757L420.201 539.571C419.791 541.231 418.117 542.244 416.456 541.84L395.28 536.725Z" fill="white"/>
<path d="M550.899 416.285L515.788 414.612C514.46 414.548 513.261 413.798 512.626 412.638L495.92 382.242C495.273 381.057 495.292 379.621 495.984 378.454L511.94 351.591C512.69 350.328 514.101 349.604 515.57 349.738L522.881 350.405C523.464 350.456 524.048 350.379 524.593 350.168L532.006 347.322C532.872 346.988 533.828 346.982 534.693 347.303L558.774 356.161C559.788 356.533 560.596 357.315 561 358.315L571.389 384.063C571.998 385.576 571.581 387.306 570.35 388.377L558.915 398.28C558.293 398.818 557.864 399.536 557.691 400.337L554.811 413.298C554.407 415.112 552.759 416.375 550.899 416.285Z" fill="white"/>
<path d="M541.555 383.082C542.388 384.005 543.684 384.409 544.793 383.986L558.216 378.858C558.402 378.788 558.581 378.691 558.742 378.582L574.62 367.468C575.826 366.622 576.012 364.859 575.024 363.526C574.056 362.225 572.26 361.802 571.055 362.648L555.42 373.589L542.279 378.608C540.881 379.14 540.317 380.775 541.01 382.262C541.157 382.569 541.343 382.839 541.555 383.082Z" fill="#106EBE"/>
<path d="M537.682 372.487C538.432 373.32 539.567 373.743 540.625 373.48L556.927 369.506C557.107 369.461 557.28 369.404 557.44 369.32L572.697 361.776C574.031 361.116 574.448 359.423 573.639 357.988C572.825 356.552 571.087 355.924 569.76 356.584L554.747 364.007L538.714 367.916C537.246 368.275 536.489 369.807 537.015 371.346C537.156 371.782 537.393 372.16 537.682 372.487Z" fill="#106EBE"/>
<path d="M537.848 355.994C538.74 356.981 540.144 357.353 541.266 356.815C543.331 355.828 547.968 351.93 549.943 350.232L565.366 350.629C566.918 350.668 568.06 349.424 567.919 347.847C567.771 346.271 566.399 344.957 564.847 344.918L548.423 344.495C547.775 344.476 547.166 344.694 546.698 345.098C544.043 347.418 539.708 350.963 538.387 351.597C537.046 352.238 536.604 353.924 537.399 355.366C537.527 355.597 537.681 355.808 537.848 355.994Z" fill="#106EBE"/>
<path d="M593.886 343.046L597.56 351.815C598.157 353.238 597.58 354.757 596.259 355.244L589.377 357.795C589.147 357.879 588.935 358 588.743 358.148L574.557 369.282C573.191 370.352 571.023 369.654 570.247 367.884L560.884 346.54C560.095 344.739 561.211 342.886 563.078 342.905L582.907 343.155C583.15 343.155 583.394 343.13 583.625 343.066L590.384 341.188C591.744 340.809 593.289 341.63 593.886 343.046Z" fill="#106EBE"/>
<path d="M796.544 498.119L691.287 477.204C689.459 476.838 688.273 475.069 688.638 473.242L690.492 463.942C690.857 462.115 692.627 460.929 694.455 461.295L799.712 482.21C801.54 482.575 802.726 484.344 802.361 486.171L800.507 495.472C800.148 497.292 798.372 498.478 796.544 498.119Z" fill="#797673"/>
<path d="M812.679 526.476L807.575 481.171L805.022 481.46L807.504 503.49L753.609 457.853L755.065 457.429L754.353 454.968L751.262 455.859L746.638 451.949L744.983 453.904L748.299 456.712L677.704 477.075L688.998 457.994L686.792 456.686L663.57 495.933L656.355 494.6L655.894 497.119L669.553 499.644L670.021 497.125L666.257 496.427L675.8 480.293L750.653 458.705L807.927 507.202L810.024 525.835L806.299 524.925L805.696 527.418L819.195 530.706L819.804 528.213L812.679 526.476Z" fill="#B3AFAB"/>
<path d="M741.687 333.259C750.069 299.665 779.447 274.654 784.956 270.205C785.443 269.808 786.161 269.904 786.533 270.417C790.516 275.91 810.268 305.588 803.785 345.681C803.464 347.681 801.521 349.001 799.539 348.604L744.477 337.662C742.457 337.271 741.193 335.258 741.687 333.259Z" fill="url(#paint8_radial)"/>
<path d="M804.329 342.918L742.191 330.57L732.49 379.343L794.628 391.691L804.329 342.918Z" fill="white"/>
<path d="M725.187 382.467L735.531 364.096L797.551 376.422L800.264 397.023L725.187 382.467Z" fill="#C7E0F4"/>
<path d="M797.743 395.376L728.45 381.608C726.757 381.268 725.045 382.089 724.243 383.62L685.746 457.34C684.547 459.641 685.893 462.448 688.433 462.948L803.579 485.831C806.125 486.338 808.44 484.261 808.209 481.678L800.854 398.85C800.706 397.126 799.436 395.709 797.743 395.376Z" fill="white"/>
<path d="M723.878 427.983C728.883 427.983 732.94 423.928 732.94 418.926C732.94 413.924 728.883 409.869 723.878 409.869C718.873 409.869 714.816 413.924 714.816 418.926C714.816 423.928 718.873 427.983 723.878 427.983Z" fill="#FAE969"/>
<path d="M786.777 440.482C791.782 440.482 795.839 436.427 795.839 431.425C795.839 426.423 791.782 422.368 786.777 422.368C781.773 422.368 777.716 426.423 777.716 431.425C777.716 436.427 781.773 440.482 786.777 440.482Z" fill="#FAE969"/>
<path d="M692.044 445.276L807.01 468.121L806.773 465.461L693.282 442.911L692.044 445.276Z" fill="#E1DFDD"/>
<path d="M717.24 397.03L802.194 413.913L801.963 411.247L718.478 394.658L717.24 397.03Z" fill="#E1DFDD"/>
<path d="M773.633 343.104L770.123 342.407L765.377 366.265L768.887 366.962L773.633 343.104Z" fill="#E1DFDD"/>
<path d="M759.8 340.355L756.29 339.658L751.544 363.516L755.054 364.213L759.8 340.355Z" fill="#E1DFDD"/>
<path d="M788.1 345.983L784.59 345.285L779.844 369.143L783.354 369.841L788.1 345.983Z" fill="#E1DFDD"/>
<path d="M767.435 411.535L750.62 408.196C747.054 407.484 743.591 409.805 742.88 413.368L733.997 458.006C733.286 461.57 735.607 465.031 739.173 465.743L755.988 469.082C759.553 469.794 763.016 467.474 763.728 463.91L772.61 419.272C773.316 415.702 771.001 412.24 767.435 411.535Z" fill="#797673"/>
<path d="M783.814 414.785L778.382 413.708C775.9 413.215 773.483 414.83 772.989 417.31L763.331 465.865C762.837 468.345 764.453 470.762 766.935 471.255L772.367 472.332C774.849 472.826 777.266 471.211 777.76 468.73L787.418 420.176C787.912 417.695 786.296 415.279 783.814 414.785Z" fill="#B3AFAB"/>
<path d="M761.832 473.169L732.27 467.295L724.033 508.699L753.596 514.574L761.832 473.169Z" fill="#C8C6C4"/>
<path d="M757.393 479.517L733.869 474.843L733.206 478.175L756.731 482.849L757.393 479.517Z" fill="white"/>
<path d="M755.643 488.318L732.119 483.643L731.456 486.975L754.981 491.65L755.643 488.318Z" fill="white"/>
<path d="M753.892 497.125L730.367 492.45L729.704 495.782L753.229 500.457L753.892 497.125Z" fill="white"/>
<path d="M752.14 505.925L728.616 501.251L727.953 504.583L751.478 509.257L752.14 505.925Z" fill="white"/>
<path d="M383.704 154.893C418.372 154.893 446.475 126.804 446.475 92.1538C446.475 57.5039 418.372 29.4146 383.704 29.4146C349.037 29.4146 320.934 57.5039 320.934 92.1538C320.934 126.804 349.037 154.893 383.704 154.893Z" fill="url(#paint9_linear)"/>
<path d="M649.275 35.6898C647.62 40.5613 644.568 44.7725 640.547 47.8236C639.829 48.3492 639.803 49.3363 640.463 49.9132C644.452 53.4065 647.511 57.919 649.217 63.0661C649.66 64.3609 651.391 64.3609 651.834 63.0661C653.565 57.919 656.624 53.4065 660.587 49.9132C661.248 49.3363 661.222 48.3428 660.504 47.8236C656.483 44.7661 653.431 40.5613 651.776 35.6898C651.398 34.4784 649.685 34.4784 649.275 35.6898Z" fill="#C7E0F4"/>
<path d="M847.65 147.49C845.456 153.951 841.403 159.534 836.074 163.585C835.125 164.277 835.086 165.591 835.965 166.36C841.256 170.994 845.309 176.981 847.573 183.801C848.156 185.519 850.458 185.519 851.042 183.801C853.344 176.975 857.397 170.994 862.65 166.36C863.528 165.591 863.49 164.277 862.541 163.585C857.211 159.534 853.158 153.951 850.965 147.49C850.465 145.887 848.201 145.887 847.65 147.49Z" fill="#C7E0F4"/>
<path d="M297.404 26.6392C296.506 29.28 294.852 31.5555 292.678 33.2092C292.293 33.4913 292.274 34.0297 292.633 34.3438C294.794 36.2347 296.449 38.6832 297.372 41.4651C297.61 42.1637 298.552 42.1637 298.79 41.4651C299.726 38.6768 301.387 36.2347 303.529 34.3438C303.888 34.0297 303.869 33.4913 303.484 33.2092C301.31 31.5555 299.649 29.2736 298.757 26.6392C298.552 25.9854 297.622 25.9854 297.404 26.6392Z" fill="#C7E0F4"/>
<path d="M118.833 42.9329C117.134 47.939 113.998 52.2656 109.868 55.4C109.13 55.9384 109.105 56.9576 109.785 57.5473C113.889 61.1368 117.025 65.7775 118.782 71.0592C119.237 72.386 121.014 72.386 121.469 71.0592C123.252 65.7711 126.388 61.1368 130.467 57.5473C131.146 56.9512 131.114 55.9384 130.383 55.4C126.253 52.2592 123.111 47.939 121.418 42.9329C121.014 41.6894 119.257 41.6894 118.833 42.9329Z" fill="#C7E0F4"/>
<path d="M209.129 110.088C213.029 110.088 216.19 106.929 216.19 103.031C216.19 99.1337 213.029 95.9741 209.129 95.9741C205.23 95.9741 202.068 99.1337 202.068 103.031C202.068 106.929 205.23 110.088 209.129 110.088Z" fill="#C7E0F4"/>
<path d="M808.523 102.8C812.572 102.8 815.854 99.5203 815.854 95.4741C815.854 91.4278 812.572 88.1477 808.523 88.1477C804.475 88.1477 801.193 91.4278 801.193 95.4741C801.193 99.5203 804.475 102.8 808.523 102.8Z" fill="#C7E0F4"/>
<path d="M53.6193 223.145C57.5189 223.145 60.6801 219.985 60.6801 216.087C60.6801 212.19 57.5189 209.03 53.6193 209.03C49.7198 209.03 46.5586 212.19 46.5586 216.087C46.5586 219.985 49.7198 223.145 53.6193 223.145Z" fill="#C7E0F4"/>
<path d="M493.817 45.6571C499.278 45.6571 503.706 41.2319 503.706 35.7732C503.706 30.3144 499.278 25.8893 493.817 25.8893C488.355 25.8893 483.928 30.3144 483.928 35.7732C483.928 41.2319 488.355 45.6571 493.817 45.6571Z" fill="#C7E0F4"/>
<path d="M510.856 381.454L529.255 396.062C529.319 396.113 529.402 396.139 529.479 396.139L553.208 396.03C553.439 396.03 553.612 396.241 553.56 396.472L550.777 408.984C550.739 409.157 550.585 409.273 550.405 409.266L519.982 407.818C519.853 407.811 519.744 407.741 519.68 407.632L505.693 382.185C505.565 381.954 505.726 381.666 505.989 381.653L510.593 381.39C510.702 381.371 510.785 381.396 510.856 381.454Z" fill="#C7E0F4"/>
<path d="M396.166 491.607L379.133 482.864C377.76 482.158 376.08 482.812 375.541 484.261L370.937 496.683C370.251 498.542 371.828 500.446 373.784 500.112L395.422 496.433C397.859 496.016 398.365 492.735 396.166 491.607Z" fill="#C7E0F4"/>
<path d="M133.802 530.456L112.145 521.797C111.837 521.675 111.503 521.617 111.17 521.637L101.057 522.143C99.3314 522.226 98.3053 524.098 99.1519 525.598C101.422 529.623 105.206 535.924 106.668 535.924C108.027 535.924 122.54 535.353 133.038 534.93C135.539 534.828 136.129 531.386 133.802 530.456Z" fill="#C7E0F4"/>
<path d="M699.88 146.387C698.63 150.079 696.315 153.271 693.268 155.585C692.723 155.983 692.704 156.733 693.204 157.168C696.231 159.816 698.546 163.239 699.842 167.136C700.175 168.116 701.49 168.116 701.823 167.136C703.138 163.239 705.453 159.816 708.461 157.168C708.961 156.733 708.942 155.983 708.397 155.585C705.351 153.271 703.036 150.079 701.785 146.387C701.49 145.464 700.194 145.464 699.88 146.387Z" fill="#C7E0F4"/>
<path d="M445.629 523.22L431.668 523.752L435.432 514.631L445.097 515.169L445.629 523.22Z" fill="white"/>
<path d="M485.364 537.167L486.435 526.976L499.858 521.611L508.451 523.752L510.061 528.046L504.693 538.783L485.364 537.167Z" fill="white"/>
<path d="M477.309 496.92L457.98 499.606L459.59 493.164L465.497 492.632L473.551 489.946L478.38 492.094L477.309 496.92Z" fill="white"/>
<path d="M464.958 506.58H471.403L473.013 511.413L463.349 511.951L464.958 506.58Z" fill="white"/>
<path d="M367.242 523.752L362.413 517.316H355.43L351.133 521.072L355.43 524.829L367.242 523.752Z" fill="white"/>
<path d="M442.23 590.606L451.228 579.049C451.741 578.389 452.607 578.113 453.402 578.357L467.69 582.639C468.011 582.735 468.351 582.748 468.684 582.684L480.446 580.235C480.85 580.152 481.273 580.19 481.651 580.357L487.776 582.978C488.289 583.196 488.687 583.619 488.879 584.145L490.341 588.17C490.578 588.824 490.463 589.561 490.033 590.106L485.429 595.965C485.044 596.452 484.46 596.734 483.838 596.734H448.849C448.496 596.734 448.15 596.644 447.848 596.465L442.82 593.593C441.756 592.991 441.474 591.574 442.23 590.606Z" fill="white"/>
<path d="M541.202 568.114L552.656 570.979L558.383 565.967L546.929 557.384L537.617 558.102L541.202 568.114Z" fill="white"/>
<path d="M240.534 571.697L256.996 570.261L258.432 563.108L249.121 558.102L237.667 563.826L240.534 571.697Z" fill="white"/>
<path d="M251.68 359.077L255.137 420.599L233.037 421.842L229.574 360.321L251.68 359.077Z" fill="url(#paint10_linear)"/>
<path d="M231.741 397.559L253.862 396.293L253.697 393.406L231.575 394.673L231.741 397.559Z" fill="#9078E4"/>
<path d="M199.907 361.449L203.37 422.97L181.271 424.207L177.808 362.686L199.907 361.449Z" fill="url(#paint11_linear)"/>
<path d="M179.979 399.931L202.101 398.664L201.935 395.778L179.814 397.044L179.979 399.931Z" fill="#9078E4"/>
<path d="M376.823 343.873L387.995 326.009C390.938 321.227 389.444 314.965 384.66 312.023C379.876 309.081 373.61 310.574 370.667 315.356L359.213 333.675L376.823 343.873Z" fill="#D0C5F3"/>
<path d="M283.148 286.467L289.183 330.772L311.077 327.528L305.043 283.224L283.148 286.467Z" fill="#B09FEB"/>
<path d="M308.052 305.613L286.153 308.857L286.533 311.418L308.432 308.174L308.052 305.613Z" fill="#A08BE8"/>
<path d="M304.494 348.072L355.836 358.236L360.137 336.529L308.795 326.365L304.494 348.072Z" fill="#B09FEB"/>
<path d="M333.56 331.328L329.259 353.032L331.8 353.536L336.102 331.832L333.56 331.328Z" fill="#9078E4"/>
<path d="M310.737 325.176L289.183 330.772C289.183 330.772 290.318 344.912 304.497 348.104C309.525 334.656 312.346 327.092 312.346 327.092L310.737 325.176Z" fill="#9078E4"/>
<path d="M377.17 363.032L395.152 374.019C399.962 376.916 406.215 375.358 409.107 370.551C412.006 365.744 410.447 359.494 405.637 356.603L387.193 345.335L377.17 363.032Z" fill="#B09FEB"/>
<path d="M381.787 351.225L402.578 354.674C408.125 355.552 413.339 351.777 414.218 346.232C415.096 340.688 411.319 335.477 405.772 334.598L384.448 331.06L381.787 351.225Z" fill="#B09FEB"/>
<path d="M307.287 282.448C311.763 253.194 304.626 230.939 304.626 230.939L311.334 230.247L311.487 230.099C296.475 178.814 246.562 143.932 191.48 149.618C129.421 156.027 84.312 211.504 90.7315 273.532C97.1509 335.56 152.649 380.646 214.708 374.237C263.678 369.179 302.086 333.566 312.956 288.294C313.206 286.397 312.821 283.07 307.287 282.448Z" fill="url(#paint12_radial)"/>
<path d="M312.629 289.64C312.629 289.64 315.124 283.333 307.287 282.448C311.712 253.553 304.805 231.503 304.632 230.965L188.056 243.009C188.056 243.009 180.636 243.021 181.329 249.726C182.021 256.431 184.26 275.352 186.421 296.3C186.863 300.607 190.615 302.319 193.392 302.036L313.104 289.672C312.802 289.653 312.629 289.64 312.629 289.64Z" fill="white"/>
<path d="M251.313 288.14C251.313 288.14 261.6 278.115 263.62 276.25C265.64 274.385 267.538 274.096 269.725 275.622C271.912 277.147 284.039 284.762 284.039 284.762L251.313 288.14Z" fill="#A08BE8"/>
<path d="M312.629 289.64C312.629 289.64 315.123 283.333 307.287 282.448C307.293 282.416 307.293 282.391 307.299 282.358L192.66 294.197C189.992 294.473 186.394 293.236 185.83 290.685C186.022 292.537 186.221 294.409 186.42 296.306C186.824 300.216 189.941 301.979 192.596 302.062C192.859 302.069 193.122 302.069 193.391 302.043L201.228 301.235L313.103 289.678C312.802 289.653 312.629 289.64 312.629 289.64Z" fill="url(#paint13_radial)"/>
<path d="M305.85 308.799L112.087 328.817C117.198 335.752 123.079 342.053 129.582 347.63L292.575 330.791C297.802 324.003 302.266 316.632 305.85 308.799Z" fill="url(#paint14_radial)"/>
<path d="M132.878 167.257L151.424 155.752L136.995 138.343L123.675 146.599L132.878 167.257Z" fill="#B09FEB"/>
<path d="M121.674 149.464C133.121 149.464 142.401 140.189 142.401 128.747C142.401 117.306 133.121 108.031 121.674 108.031C110.227 108.031 100.947 117.306 100.947 128.747C100.947 140.189 110.227 149.464 121.674 149.464Z" fill="url(#paint15_radial)"/>
<path d="M133 183.295C132.166 183.814 131.044 183.506 130.621 182.615C126.138 173.206 129.351 161.732 138.419 156.111C147.487 150.489 159.197 152.701 165.642 160.893C166.251 161.668 166.033 162.803 165.193 163.322L133 183.295Z" fill="url(#paint16_radial)"/>
<path d="M366.639 381.653L360.162 375.538C356.103 371.705 355.917 365.308 359.758 361.25C363.593 357.193 369.993 357.007 374.053 360.846L380.53 366.961C384.589 370.794 384.775 377.191 380.934 381.249C377.105 385.306 370.699 385.486 366.639 381.653Z" fill="#B09FEB"/>
<path d="M383.75 375.294L377.272 369.179C373.213 365.346 373.027 358.949 376.868 354.892C380.703 350.834 387.104 350.649 391.163 354.488L397.64 360.603C401.7 364.436 401.886 370.833 398.044 374.89C394.209 378.948 387.809 379.127 383.75 375.294Z" fill="#B09FEB"/>
<path d="M219.765 280.583C224.612 280.009 227.759 272.943 226.794 264.801C225.83 256.659 221.118 250.524 216.271 251.097C211.424 251.671 208.277 258.737 209.242 266.879C210.206 275.021 214.918 281.156 219.765 280.583Z" fill="#512BD4"/>
<path d="M290.111 273.216C294.973 272.787 298.329 265.818 297.607 257.652C296.885 249.485 292.359 243.212 287.497 243.642C282.635 244.071 279.28 251.039 280.001 259.206C280.723 267.373 285.25 273.645 290.111 273.216Z" fill="#512BD4"/>
<path d="M217.184 258.431C218.794 256.45 221.128 255.412 223.501 255.379C225.143 257.809 226.361 261.084 226.797 264.776C227.073 267.077 227.003 269.289 226.675 271.295C223.982 272.372 220.801 272 218.39 270.039C214.843 267.174 214.305 261.969 217.184 258.431Z" fill="#8065E0"/>
<path d="M287.875 250.643C289.485 248.662 291.826 247.624 294.198 247.592C295.975 250.117 297.245 253.662 297.597 257.668C297.777 259.713 297.7 261.687 297.411 263.494C294.705 264.597 291.498 264.231 289.074 262.257C285.534 259.386 284.996 254.181 287.875 250.643Z" fill="#8065E0"/>
<path d="M371.911 370.391C383.67 370.391 393.203 360.863 393.203 349.11C393.203 337.357 383.67 327.83 371.911 327.83C360.153 327.83 350.62 337.357 350.62 349.11C350.62 360.863 360.153 370.391 371.911 370.391Z" fill="#9078E4"/>
<path d="M115.948 405.343L135.905 395.101C125.17 374.205 121.162 354.514 123.99 336.579C126.478 320.804 134.321 305.953 147.301 292.441L131.115 276.91C106.995 302.017 84.7806 344.687 115.948 405.343Z" fill="#B09FEB"/>
<path d="M108.06 310.684L107.092 313.087L127.627 321.353L128.595 318.951L108.06 310.684Z" fill="#9078E4"/>
<path d="M136.283 408.805L155.542 417.368C160.691 419.612 166.681 417.266 168.932 412.119C171.183 406.972 168.829 400.985 163.68 398.735L143.934 389.953L136.283 408.805Z" fill="#B09FEB"/>
<path d="M115.717 413.138L121.245 433.47C122.752 438.88 128.363 442.04 133.776 440.527C139.188 439.021 142.35 433.412 140.837 428.002L135.174 407.157L115.717 413.138Z" fill="#B09FEB"/>
<path d="M129.864 409.317L135.905 429.502C137.553 434.867 143.242 437.886 148.61 436.239C153.977 434.591 156.998 428.906 155.35 423.541L149.155 402.844L129.864 409.317Z" fill="#B09FEB"/>
<path d="M106.303 407.85L107.758 428.867C108.182 434.463 113.068 438.655 118.673 438.232C124.272 437.809 128.466 432.925 128.043 427.323L126.555 405.773L106.303 407.85Z" fill="#B09FEB"/>
<path d="M125.927 421.503C137.686 421.503 147.218 411.975 147.218 400.222C147.218 388.469 137.686 378.941 125.927 378.941C114.168 378.941 104.636 388.469 104.636 400.222C104.636 411.975 114.168 421.503 125.927 421.503Z" fill="#9078E4"/>
<path d="M101.627 336.591L101.246 339.152L123.145 342.403L123.525 339.841L101.627 336.591Z" fill="#9078E4"/>
<path d="M123.984 360.264L102.235 364.398L102.719 366.942L124.467 362.808L123.984 360.264Z" fill="#9078E4"/>
<path d="M138.477 304.158C149.934 304.158 159.223 294.874 159.223 283.422C159.223 271.97 149.934 262.687 138.477 262.687C127.019 262.687 117.73 271.97 117.73 283.422C117.73 294.874 127.019 304.158 138.477 304.158Z" fill="url(#paint17_radial)"/>
<path d="M384.577 261.386L404.534 283.153C405.829 284.563 406.208 286.583 405.515 288.371L398.967 305.241C398.307 306.946 398.621 308.869 399.788 310.273L408.016 320.163C409.029 321.381 409.408 323.009 409.042 324.548L403.194 348.944C402.834 350.431 401.821 351.68 400.43 352.328L379.324 362.173C377.772 362.898 375.957 362.782 374.514 361.872L348.785 345.649C347.56 344.873 346.727 343.611 346.502 342.175L343.097 320.452C342.924 319.349 343.123 318.221 343.661 317.241L350.818 304.286C351.261 303.485 351.472 302.588 351.44 301.671L350.863 285.858C350.825 284.839 351.1 283.833 351.646 282.974L364.587 262.655C365.466 261.277 366.953 260.411 368.589 260.334L380.633 259.757C382.12 259.687 383.563 260.283 384.577 261.386Z" fill="white"/>
<path d="M375.297 348.36L372.039 334.816C371.917 334.316 371.937 333.791 372.091 333.297L383.557 296.921C384.019 295.46 383.236 293.89 381.787 293.383L360.419 285.897C358.38 285.179 356.314 286.916 356.674 289.05L360.073 309.305C360.278 310.523 359.669 311.734 358.572 312.299L349.626 316.914C348.414 317.542 347.817 318.939 348.202 320.247L354.243 340.617C354.448 341.303 354.904 341.893 355.519 342.258L371.077 351.462C373.245 352.744 375.881 350.802 375.297 348.36Z" fill="#C7E0F4"/>
<path d="M251.525 500.093L295.596 496.433C295.596 496.433 306.44 502.407 309.595 507.125C312.007 510.733 312.616 519.252 312.763 523.066C312.808 524.13 312.007 525.034 310.942 525.123L268.449 528.777C267.083 528.892 265.884 527.88 265.782 526.514C265.41 521.81 263.723 511.862 261.703 509.157C258.682 505.125 251.525 500.093 251.525 500.093Z" fill="#D0C5F3"/>
<path d="M233.69 450.43C228.066 479.498 235.339 524.168 235.89 526.514C236.647 529.77 237.301 532.04 241.989 531.623C247.825 531.11 295.153 526.95 295.153 526.95L252.724 450.603L233.69 450.43Z" fill="#8065E0"/>
<path d="M259.978 452.526C263.165 466.269 278.774 484.601 306.883 502.753C310.166 504.875 311.975 507.259 312.289 510.817L313.289 522.207C313.437 523.893 312.193 525.38 310.506 525.527L283.546 527.899C282.353 528.001 281.301 527.123 281.198 525.931L280.044 512.785C279.685 508.689 278.672 506.657 274.202 504.01C263.011 497.388 238.853 473.858 237.045 455.769C235.236 437.694 259.978 452.526 259.978 452.526Z" fill="#A08BE8"/>
<path d="M311.648 508.054C311.981 508.9 312.206 509.81 312.289 510.823L313.29 522.213C313.437 523.899 312.193 525.386 310.506 525.534L283.809 527.88C282.616 527.982 281.564 527.104 281.462 525.912L280.307 512.765C280.243 512.067 280.16 511.426 280.051 510.836L311.648 508.054Z" fill="#D0C5F3"/>
<path d="M199.093 504.702L243.163 501.042C243.163 501.042 254.008 507.016 257.163 511.733C259.574 515.342 260.183 523.861 260.331 527.668C260.376 528.732 259.574 529.636 258.51 529.726L216.017 533.379C214.651 533.495 213.452 532.482 213.349 531.117C212.977 526.412 211.29 516.464 209.27 513.759C206.25 509.733 199.093 504.702 199.093 504.702Z" fill="#D0C5F3"/>
<path d="M181.258 455.039C175.634 484.107 182.906 528.777 183.457 531.123C184.214 534.379 184.868 536.648 189.556 536.232C195.392 535.719 242.72 531.559 242.72 531.559L200.292 455.212L181.258 455.039Z" fill="#8065E0"/>
<path d="M207.552 457.141C210.739 470.884 226.348 489.216 254.457 507.368C257.74 509.49 259.548 511.874 259.863 515.432L260.863 526.822C261.011 528.508 259.767 529.995 258.08 530.142L231.12 532.514C229.927 532.617 228.875 531.738 228.772 530.546L227.618 517.4C227.259 513.304 226.246 511.272 221.776 508.625C210.585 502.003 186.427 478.473 184.619 460.384C182.804 442.302 207.552 457.141 207.552 457.141Z" fill="#A08BE8"/>
<path d="M259.214 512.669C259.548 513.515 259.772 514.425 259.856 515.438L260.856 526.828C261.003 528.514 259.759 530.001 258.073 530.149L231.375 532.495C230.182 532.597 229.131 531.719 229.028 530.527L227.874 517.38C227.81 516.682 227.726 516.041 227.617 515.451L259.214 512.669Z" fill="#D0C5F3"/>
<path d="M232.768 420.47L255.284 419.182C258.599 418.99 261.44 421.528 261.633 424.842L262.967 448.122C263.159 451.436 260.62 454.276 257.304 454.468L234.788 455.757C231.472 455.949 228.631 453.411 228.439 450.097L227.105 426.816C226.913 423.496 229.452 420.656 232.768 420.47Z" fill="url(#paint18_radial)"/>
<path d="M180.212 423.477L202.729 422.188C206.044 421.996 208.885 424.534 209.077 427.848L210.411 451.129C210.604 454.443 208.064 457.282 204.749 457.474L182.232 458.763C178.917 458.955 176.076 456.417 175.884 453.103L174.55 429.822C174.364 426.509 176.897 423.669 180.212 423.477Z" fill="url(#paint19_radial)"/>
<path d="M280.062 304.71L246.314 307.771L249.378 341.502L283.125 338.44L280.062 304.71Z" fill="#512BD4"/>
<path d="M254.277 328.791C254.04 328.81 253.828 328.753 253.648 328.605C253.469 328.458 253.366 328.272 253.347 328.048C253.328 327.817 253.392 327.618 253.546 327.439C253.7 327.259 253.892 327.163 254.129 327.137C254.373 327.118 254.585 327.176 254.764 327.323C254.95 327.471 255.053 327.657 255.072 327.887C255.091 328.112 255.027 328.31 254.867 328.49C254.713 328.669 254.521 328.765 254.277 328.791Z" fill="white"/>
<path d="M263.8 327.791L262.248 327.932L257.579 321.862C257.464 321.708 257.361 321.548 257.278 321.375L257.239 321.381C257.291 321.567 257.342 321.965 257.393 322.58L257.913 328.33L256.54 328.451L255.745 319.683L257.4 319.535L261.921 325.471C262.113 325.714 262.235 325.887 262.293 325.977H262.318C262.261 325.746 262.203 325.355 262.152 324.804L261.639 319.157L263.005 319.035L263.8 327.791Z" fill="white"/>
<path d="M270.482 327.182L265.679 327.618L264.884 318.849L269.495 318.433L269.604 319.67L266.41 319.958L266.635 322.439L269.578 322.17L269.687 323.4L266.744 323.67L266.981 326.259L270.361 325.952L270.482 327.182Z" fill="white"/>
<path d="M276.626 319.035L274.169 319.26L274.856 326.791L273.438 326.919L272.752 319.388L270.302 319.612L270.193 318.375L276.523 317.798L276.626 319.035Z" fill="white"/>
<path d="M279.39 200.845C277.672 201.479 275.664 201.024 274.395 199.557C258.106 180.699 234.473 169.277 209.552 168.206C207.058 168.097 205.121 165.988 205.224 163.495C205.333 161.002 207.443 159.066 209.937 159.168C237.34 160.341 263.326 172.911 281.244 193.647C282.879 195.538 282.667 198.39 280.776 200.024C280.352 200.39 279.884 200.665 279.39 200.845Z" fill="url(#paint20_linear)"/>
<defs>
<linearGradient id="paint0_linear" x1="451" y1="499.278" x2="451" y2="0" gradientUnits="userSpaceOnUse">
<stop offset="0.1299" stop-color="#C7E0F4"/>
<stop offset="0.198" stop-color="#B6D4F5"/>
<stop offset="0.2689" stop-color="#A8CBF6"/>
</linearGradient>
<linearGradient id="paint1_linear" x1="622.566" y1="502.573" x2="622.566" y2="390.96" gradientUnits="userSpaceOnUse">
<stop offset="0.6283" stop-color="#72ACF1"/>
<stop offset="0.6693" stop-color="#69A7F0"/>
<stop offset="0.8306" stop-color="#4A95EE"/>
<stop offset="0.9205" stop-color="#3E8EED"/>
</linearGradient>
<linearGradient id="paint2_linear" x1="594.408" y1="501.774" x2="594.408" y2="389.962" gradientUnits="userSpaceOnUse">
<stop offset="0.6283" stop-color="#72ACF1"/>
<stop offset="0.6693" stop-color="#69A7F0"/>
<stop offset="0.8306" stop-color="#4A95EE"/>
<stop offset="0.9205" stop-color="#3E8EED"/>
</linearGradient>
<linearGradient id="paint3_linear" x1="613.914" y1="248.597" x2="526.361" y2="198.023" gradientUnits="userSpaceOnUse">
<stop offset="0.6886" stop-color="#3E8EED"/>
<stop offset="0.7056" stop-color="#4290ED"/>
<stop offset="0.8867" stop-color="#65A4F0"/>
<stop offset="0.9841" stop-color="#72ACF1"/>
</linearGradient>
<radialGradient id="paint4_radial" cx="0" cy="0" r="1" gradientUnits="userSpaceOnUse" gradientTransform="translate(550.878 228.584) scale(156.161 156.082)">
<stop offset="0.204" stop-color="#72ACF1"/>
<stop offset="0.2915" stop-color="#69A7F0"/>
<stop offset="0.6359" stop-color="#4A95EE"/>
<stop offset="0.828" stop-color="#3E8EED"/>
</radialGradient>
<radialGradient id="paint5_radial" cx="0" cy="0" r="1" gradientUnits="userSpaceOnUse" gradientTransform="translate(576.774 326.076) scale(138.337 138.267)">
<stop offset="0.204" stop-color="#72ACF1"/>
<stop offset="0.2915" stop-color="#69A7F0"/>
<stop offset="0.6359" stop-color="#4A95EE"/>
<stop offset="0.828" stop-color="#3E8EED"/>
</radialGradient>
<radialGradient id="paint6_radial" cx="0" cy="0" r="1" gradientUnits="userSpaceOnUse" gradientTransform="translate(651.748 230.352) scale(23.5604 23.5486)">
<stop offset="0.2011" stop-color="#3E8EED"/>
<stop offset="1" stop-color="#106EBE"/>
</radialGradient>
<radialGradient id="paint7_radial" cx="0" cy="0" r="1" gradientUnits="userSpaceOnUse" gradientTransform="translate(504.899 258.82) scale(24.969 24.9565)">
<stop offset="0.2011" stop-color="#3E8EED"/>
<stop offset="1" stop-color="#106EBE"/>
</radialGradient>
<radialGradient id="paint8_radial" cx="0" cy="0" r="1" gradientUnits="userSpaceOnUse" gradientTransform="translate(755.671 291.232) scale(71.708 71.6719)">
<stop offset="0.204" stop-color="#72ACF1"/>
<stop offset="0.2915" stop-color="#69A7F0"/>
<stop offset="0.6359" stop-color="#4A95EE"/>
<stop offset="0.828" stop-color="#3E8EED"/>
</radialGradient>
<linearGradient id="paint9_linear" x1="307.163" y1="92.1521" x2="557.319" y2="92.1521" gradientUnits="userSpaceOnUse">
<stop offset="0.2218" stop-color="#C7E0F4"/>
<stop offset="0.5406" stop-color="#B3D3F5"/>
<stop offset="0.8039" stop-color="#A7CBF6"/>
</linearGradient>
<linearGradient id="paint10_linear" x1="242.357" y1="359.079" x2="242.357" y2="421.842" gradientUnits="userSpaceOnUse">
<stop offset="0.2368" stop-color="#958FE7"/>
<stop offset="0.4881" stop-color="#BBB7EF"/>
</linearGradient>
<linearGradient id="paint11_linear" x1="190.589" y1="361.447" x2="190.589" y2="424.21" gradientUnits="userSpaceOnUse">
<stop offset="0.2368" stop-color="#958FE7"/>
<stop offset="0.4881" stop-color="#BBB7EF"/>
</linearGradient>
<radialGradient id="paint12_radial" cx="0" cy="0" r="1" gradientUnits="userSpaceOnUse" gradientTransform="translate(225.121 198.099) scale(162.566 162.484)">
<stop offset="0.186" stop-color="#A08BE8"/>
<stop offset="0.684" stop-color="#8065E0"/>
<stop offset="0.8157" stop-color="#8065E0"/>
</radialGradient>
<radialGradient id="paint13_radial" cx="0" cy="0" r="1" gradientUnits="userSpaceOnUse" gradientTransform="translate(218.323 288.02) scale(110.073 110.018)">
<stop stop-color="#512BD4"/>
<stop offset="0.0463" stop-color="#6645D9"/>
<stop offset="0.4202" stop-color="#7659DD"/>
<stop offset="0.7291" stop-color="#8065E0"/>
</radialGradient>
<radialGradient id="paint14_radial" cx="0" cy="0" r="1" gradientUnits="userSpaceOnUse" gradientTransform="translate(139.195 337.648) scale(102.974 102.922)">
<stop offset="0.4614" stop-color="#A08BE8"/>
<stop offset="0.5268" stop-color="#A793EA"/>
<stop offset="0.8352" stop-color="#C5B7F0"/>
<stop offset="1" stop-color="#D0C5F3"/>
</radialGradient>
<radialGradient id="paint15_radial" cx="0" cy="0" r="1" gradientUnits="userSpaceOnUse" gradientTransform="translate(130.815 115.985) scale(49.4668 49.4419)">
<stop offset="0.186" stop-color="#A08BE8"/>
<stop offset="0.684" stop-color="#8065E0"/>
<stop offset="0.8157" stop-color="#8065E0"/>
</radialGradient>
<radialGradient id="paint16_radial" cx="0" cy="0" r="1" gradientUnits="userSpaceOnUse" gradientTransform="translate(146.733 160.467) scale(17.0707 17.0621)">
<stop stop-color="#8065E0"/>
<stop offset="1" stop-color="#512BD4"/>
</radialGradient>
<radialGradient id="paint17_radial" cx="0" cy="0" r="1" gradientUnits="userSpaceOnUse" gradientTransform="translate(141.92 274.79) scale(27.5905 27.5766)">
<stop stop-color="#8065E0"/>
<stop offset="1" stop-color="#512BD4"/>
</radialGradient>
<radialGradient id="paint18_radial" cx="0" cy="0" r="1" gradientUnits="userSpaceOnUse" gradientTransform="translate(250.137 429.718) scale(23.9214 23.9094)">
<stop stop-color="#8065E0"/>
<stop offset="1" stop-color="#512BD4"/>
</radialGradient>
<radialGradient id="paint19_radial" cx="0" cy="0" r="1" gradientUnits="userSpaceOnUse" gradientTransform="translate(195.625 432.418) scale(23.3871 23.3753)">
<stop stop-color="#8065E0"/>
<stop offset="1" stop-color="#512BD4"/>
</radialGradient>
<linearGradient id="paint20_linear" x1="214.96" y1="190.811" x2="272.631" y2="169.49" gradientUnits="userSpaceOnUse">
<stop stop-color="#BDB9F0"/>
<stop offset="0.2325" stop-color="#CEC3E2" stop-opacity="0.7675"/>
<stop offset="0.7251" stop-color="#EDD6C9" stop-opacity="0.2749"/>
<stop offset="1" stop-color="#F9DDBF" stop-opacity="0"/>
</linearGradient>
</defs>
</svg>
