<svg width="896" height="642" viewBox="0 0 896 642" fill="none" xmlns="http://www.w3.org/2000/svg">
<g clip-path="url(#clip0)">
<path d="M926.778 0H-159.465V414.946H926.778V0Z" fill="url(#paint0_linear)"/>
<path d="M492.874 216.725H294.349C272.89 216.725 255.491 199.309 255.491 177.83V123.308C255.491 101.829 272.89 84.4127 294.349 84.4127H492.874C514.333 84.4127 531.732 101.829 531.732 123.308V177.83C531.732 199.315 514.333 216.725 492.874 216.725Z" fill="#FADCBD"/>
<path d="M132.701 420.026L154.565 428.625C160.407 430.874 166.968 427.96 169.215 422.112C171.463 416.264 168.551 409.697 162.709 407.448L140.289 398.631L132.701 420.026Z" fill="#D0C5F3"/>
<path d="M112.644 408.246L112.668 431.757C112.716 438.022 117.833 443.06 124.092 443.011C130.351 442.963 135.383 437.841 135.335 431.576L135.311 407.466L112.644 408.246Z" fill="#D0C5F3"/>
<path d="M128.974 408.246L129.596 431.751C129.807 438.016 135.045 442.92 141.304 442.709C147.563 442.497 152.462 437.254 152.251 430.989L151.611 406.885L128.974 408.246Z" fill="#D0C5F3"/>
<path d="M102.53 404.478L102.554 427.99C102.603 434.255 107.72 439.292 113.979 439.244C120.238 439.195 125.27 434.073 125.222 427.809L125.197 403.698L102.53 404.478Z" fill="#D0C5F3"/>
<path d="M125.373 432.441C138.476 432.441 149.097 421.809 149.097 408.693C149.097 395.578 138.476 384.946 125.373 384.946C112.27 384.946 101.648 395.578 101.648 408.693C101.648 421.809 112.27 432.441 125.373 432.441Z" fill="#927BE5"/>
<path d="M1.02354 269.729H48.0072C49.6202 269.729 50.8225 271.216 50.4842 272.795L48.5811 281.672C48.3334 282.839 47.3004 283.674 46.1042 283.674H2.92656C1.73037 283.674 0.697295 282.839 0.4496 281.672L-1.45343 272.795C-1.79174 271.216 -0.589507 269.729 1.02354 269.729Z" fill="url(#paint1_linear)"/>
<path d="M1.02354 278.8H48.0072C49.6202 278.8 50.8225 280.287 50.4842 281.866L48.5811 290.743C48.3334 291.91 47.3004 292.744 46.1042 292.744H2.92656C1.73037 292.744 0.697295 291.91 0.4496 290.743L-1.45343 281.866C-1.79174 280.287 -0.589507 278.8 1.02354 278.8Z" fill="url(#paint2_linear)"/>
<path d="M1.02354 287.87H48.0072C49.6202 287.87 50.8225 289.358 50.4842 290.936L48.5811 299.814C48.3334 300.981 47.3004 301.815 46.1042 301.815H2.92656C1.73037 301.815 0.697295 300.981 0.4496 299.814L-1.45343 290.936C-1.79174 289.358 -0.589507 287.87 1.02354 287.87Z" fill="url(#paint3_linear)"/>
<path d="M1.02354 296.941H48.0072C49.6202 296.941 50.8225 298.429 50.4842 300.007L48.5811 308.884C48.3334 310.052 47.3004 310.886 46.1042 310.886H2.92656C1.73037 310.886 0.697295 310.052 0.4496 308.884L-1.45343 300.007C-1.79174 298.429 -0.589507 296.941 1.02354 296.941Z" fill="url(#paint4_linear)"/>
<path d="M594.31 345.301C594.31 345.301 611.57 372.743 634.811 392.493C657.563 378.554 681.432 351.493 681.432 351.493L594.31 345.301Z" fill="#F7B548"/>
<path d="M437.475 125.31H427.12V114.02C427.12 110.905 424.601 108.384 421.49 108.384H358.641C355.494 108.384 352.944 110.936 352.944 114.092V187.003C352.944 193.171 357.898 198.166 364.012 198.166H416.058C422.172 198.166 427.126 193.165 427.126 187.003V170.047H437.481C446.507 170.047 453.473 163.413 453.473 155.056V140.555C453.467 132.192 446.501 125.31 437.475 125.31ZM445.468 155.05C445.468 159.229 441.855 162.421 437.469 162.421H427.114V132.929H437.469C441.855 132.929 445.468 136.37 445.468 140.549V155.05Z" fill="#E0BB95"/>
<path d="M251.269 327.601L251.208 419.222L230.359 419.197L230.426 327.576L251.269 327.601Z" fill="url(#paint5_linear)"/>
<path d="M230.459 362.776L251.326 362.776L251.326 360.054L230.459 360.054L230.459 362.776Z" fill="#A08BE8"/>
<path d="M201.699 327.601L201.639 415.841L180.79 415.823L180.85 327.576L201.699 327.601Z" fill="url(#paint6_linear)"/>
<path d="M180.883 362.776L201.75 362.776L201.75 360.054L180.883 360.054L180.883 362.776Z" fill="#A08BE8"/>
<path d="M230.459 385.15L251.326 385.15L251.326 382.429L230.459 382.429L230.459 385.15Z" fill="#A08BE8"/>
<path d="M180.883 385.15L201.75 385.15L201.75 382.429L180.883 382.429L180.883 385.15Z" fill="#A08BE8"/>
<path d="M230.459 406.315L251.326 406.315L251.326 403.594L230.459 403.594L230.459 406.315Z" fill="#A08BE8"/>
<path d="M180.883 406.315L201.75 406.315L201.75 403.594L180.883 403.594L180.883 406.315Z" fill="#A08BE8"/>
<path d="M377.497 270.588L373.582 251.11C372.501 245.927 367.432 242.601 362.255 243.678C357.077 244.76 353.755 249.834 354.83 255.016L358.841 274.99L377.497 270.588Z" fill="#B09FEB"/>
<path d="M276.226 291.874L309.024 318.342L321.916 301.942L289.118 275.474L276.226 291.874Z" fill="#B09FEB"/>
<path d="M330.715 320.307L372.44 294.039L361.341 276.374L319.615 302.642L330.715 320.307Z" fill="#B09FEB"/>
<path d="M341.823 288.681L339.757 289.982L350.857 307.647L352.923 306.346L341.823 288.681Z" fill="#A08BE8"/>
<path d="M377.527 297.437C388.601 297.437 397.578 288.451 397.578 277.367C397.578 266.282 388.601 257.296 377.527 257.296C366.453 257.296 357.476 266.282 357.476 277.367C357.476 288.451 366.453 297.437 377.527 297.437Z" fill="#927BE5"/>
<path d="M320.158 300.557L309.023 318.348C309.023 318.348 318.949 327.31 330.724 320.32C325.468 307.844 322.508 300.83 322.508 300.83L320.158 300.557Z" fill="#A08BE8"/>
<path d="M130.846 363.013L149.32 370.282C154.256 372.186 159.802 369.719 161.699 364.779C163.602 359.838 161.137 354.287 156.201 352.388L137.256 344.938L130.846 363.013Z" fill="#D0C5F3"/>
<path d="M390.135 283.504L409.558 279.392C414.723 278.261 417.998 273.152 416.868 267.981C415.738 262.811 410.633 259.533 405.468 260.664L385.556 264.879L390.135 283.504Z" fill="#B09FEB"/>
<path d="M385.652 272.42L402.121 261.323C406.489 258.336 407.613 252.373 404.628 248.001C401.644 243.629 395.687 242.504 391.319 245.492L374.434 256.867L385.652 272.42Z" fill="#B09FEB"/>
<path d="M312.19 262.031C319.222 235.018 314.685 213.454 314.685 213.454H321.035L321.192 213.333C312.099 163.764 268.716 126.199 216.561 126.199C157.803 126.199 110.173 173.875 110.173 232.69C110.173 291.505 157.803 339.181 216.561 339.181C262.923 339.181 302.355 309.489 316.926 268.072C317.349 266.306 317.313 263.15 312.19 262.031Z" fill="url(#paint7_radial)"/>
<path d="M316.497 269.294C316.497 269.294 319.445 263.621 312.19 262.031C319.131 235.351 314.799 213.998 314.691 213.478H204.315C204.315 213.478 197.361 212.77 197.361 219.126C197.361 225.482 197.621 243.448 197.621 263.319C197.621 267.407 200.962 269.372 203.596 269.372H316.944C316.66 269.324 316.497 269.294 316.497 269.294Z" fill="white"/>
<path d="M259.201 261.946C259.201 261.946 269.81 253.541 271.882 251.986C273.954 250.432 275.767 250.348 277.664 251.986C279.561 253.625 290.187 261.946 290.187 261.946H259.201Z" fill="#A08BE8"/>
<path d="M316.497 269.293C316.497 269.293 319.446 263.621 312.19 262.031C312.196 262.001 312.202 261.976 312.208 261.946H203.669C201.144 261.946 197.893 260.44 197.609 257.991C197.615 259.745 197.615 261.523 197.615 263.319C197.615 267.026 200.364 268.985 202.841 269.318C203.089 269.348 203.337 269.372 203.59 269.372H211.009H316.938C316.66 269.324 316.497 269.293 316.497 269.293Z" fill="url(#paint8_radial)"/>
<path d="M113.9 353.059L113.925 372.93C113.967 378.228 118.292 382.485 123.579 382.442C128.871 382.4 133.124 378.07 133.082 372.779L133.058 352.406L113.9 353.059Z" fill="#D0C5F3"/>
<path d="M127.698 353.059L128.224 372.924C128.399 378.216 132.833 382.364 138.12 382.182C143.406 382.007 147.55 377.574 147.369 372.277L146.825 351.91L127.698 353.059Z" fill="#D0C5F3"/>
<path d="M105.352 349.878L105.376 369.749C105.418 375.047 109.744 379.304 115.03 379.262C120.322 379.219 124.575 374.89 124.533 369.598L124.509 349.225L105.352 349.878Z" fill="#D0C5F3"/>
<path d="M308.287 286.613H124.835C128.955 293.615 133.849 300.098 139.401 305.958H293.721C299.279 300.098 304.173 293.615 308.287 286.613Z" fill="url(#paint9_radial)"/>
<path d="M159.959 137.06L178.452 128.061L166.617 110.331L153.344 116.789L159.959 137.06Z" fill="#B09FEB"/>
<path d="M153.199 119.378C163.98 119.378 172.719 110.63 172.719 99.8391C172.719 89.0483 163.98 80.3006 153.199 80.3006C142.419 80.3006 133.68 89.0483 133.68 99.8391C133.68 110.63 142.419 119.378 153.199 119.378Z" fill="url(#paint10_radial)"/>
<path d="M158.529 152.111C157.695 152.516 156.68 152.117 156.366 151.246C153.079 141.982 157.199 131.532 166.237 127.136C175.275 122.74 186.035 125.951 191.279 134.266C191.774 135.052 191.46 136.098 190.626 136.503L158.529 152.111Z" fill="url(#paint11_radial)"/>
<path d="M109.659 360.455C98.0052 346.746 86.7078 321.088 93.2446 293.918C97.2138 277.421 109.327 254.684 144.524 240.061L152.625 259.594C131.257 268.471 117.827 282.053 113.785 298.87C109.405 317.078 116.643 336.042 125.747 346.758L109.659 360.455Z" fill="#B09FEB"/>
<path d="M120.495 253.931L118.604 255.475L131.782 271.646L133.673 270.102L120.495 253.931Z" fill="#A08BE8"/>
<path d="M112.798 315.073L92.0762 317.366L92.3444 319.794L113.066 317.501L112.798 315.073Z" fill="#A08BE8"/>
<path d="M94.2412 290.235L116.419 291.094C116.763 290.32 117.132 289.558 117.519 288.808L100.905 275.153C97.7875 280.372 95.673 285.494 94.2412 290.235Z" fill="#A08BE8"/>
<path d="M124.654 373.505C135.728 373.505 144.705 364.519 144.705 353.434C144.705 342.349 135.728 333.363 124.654 333.363C113.58 333.363 104.603 342.349 104.603 353.434C104.603 364.519 113.58 373.505 124.654 373.505Z" fill="#927BE5"/>
<path d="M159.059 266.137C169.85 266.137 178.597 257.381 178.597 246.58C178.597 235.779 169.85 227.024 159.059 227.024C148.269 227.024 139.521 235.779 139.521 246.58C139.521 257.381 148.269 266.137 159.059 266.137Z" fill="url(#paint12_radial)"/>
<path d="M230.38 251.79C234.974 251.722 238.604 245.396 238.489 237.662C238.374 229.928 234.557 223.714 229.963 223.782C225.369 223.851 221.738 230.176 221.853 237.91C221.968 245.645 225.786 251.859 230.38 251.79Z" fill="#512BD4"/>
<path d="M305.503 237.836C305.618 230.102 301.987 223.776 297.393 223.708C292.799 223.639 288.982 229.854 288.867 237.588C288.752 245.322 292.382 251.647 296.976 251.716C301.57 251.784 305.388 245.57 305.503 237.836Z" fill="#512BD4"/>
<path d="M230.106 230.761C231.804 229.062 234.093 228.312 236.317 228.511C237.621 230.948 238.443 234.141 238.491 237.649C238.522 239.838 238.25 241.9 237.742 243.756C235.114 244.506 232.172 243.847 230.1 241.779C227.067 238.737 227.067 233.803 230.106 230.761Z" fill="#8065E0"/>
<path d="M297.086 230.307C298.789 228.602 301.079 227.858 303.302 228.058C304.722 230.604 305.568 234.051 305.513 237.842C305.483 239.777 305.223 241.622 304.776 243.291C302.136 244.065 299.17 243.406 297.086 241.325C294.047 238.284 294.047 233.349 297.086 230.307Z" fill="#8065E0"/>
<path d="M396.044 292.829H372.863L368.652 240.636H400.255L396.044 292.829Z" fill="white"/>
<path d="M399.415 251.007L400.255 240.636H368.652L369.486 251.007H399.415Z" fill="#E1DFDD"/>
<path d="M401.964 244.022H366.302C365.076 244.022 364.164 242.891 364.423 241.694L365.867 234.951C366.054 234.063 366.84 233.428 367.746 233.428H400.52C401.427 233.428 402.212 234.063 402.399 234.951L403.843 241.694C404.097 242.891 403.185 244.022 401.964 244.022Z" fill="#605D5A"/>
<path d="M403.493 301.38H394.515C389.416 301.38 385.284 297.244 385.284 292.14V291.553C385.284 286.449 389.416 282.313 394.515 282.313H403.493C408.592 282.313 412.724 286.449 412.724 291.553V292.14C412.724 297.244 408.592 301.38 403.493 301.38Z" fill="#B09FEB"/>
<path d="M411.087 285.947H402.109C397.01 285.947 392.878 281.811 392.878 276.707V276.121C392.878 271.017 397.01 266.881 402.109 266.881H411.087C416.186 266.881 420.318 271.017 420.318 276.121V276.707C420.318 281.805 416.186 285.947 411.087 285.947Z" fill="#B09FEB"/>
<path d="M285.608 279.422H251.928V313.136H285.608V279.422Z" fill="#512BD4"/>
<path d="M257.927 300.957C257.692 300.957 257.486 300.878 257.317 300.721C257.148 300.557 257.069 300.364 257.069 300.14C257.069 299.91 257.154 299.717 257.317 299.554C257.486 299.39 257.686 299.312 257.927 299.312C258.169 299.312 258.374 299.39 258.543 299.554C258.713 299.717 258.797 299.91 258.797 300.14C258.797 300.364 258.713 300.557 258.543 300.721C258.374 300.878 258.169 300.957 257.927 300.957Z" fill="white"/>
<path d="M267.448 300.824H265.902L261.824 294.383C261.721 294.22 261.637 294.051 261.57 293.875H261.534C261.564 294.063 261.582 294.462 261.582 295.079V300.824H260.211V292.061H261.86L265.799 298.35C265.968 298.61 266.071 298.792 266.119 298.888H266.144C266.101 298.659 266.083 298.266 266.083 297.709V292.061H267.448V300.824Z" fill="white"/>
<path d="M274.118 300.824H269.327V292.061H273.931V293.295H270.747V295.774H273.683V297.002H270.747V299.59H274.124V300.824H274.118Z" fill="white"/>
<path d="M280.927 293.295H278.474V300.824H277.054V293.295H274.607V292.061H280.927V293.295Z" fill="white"/>
<path d="M283.209 176.094C281.59 176.693 279.699 176.264 278.503 174.879C263.158 157.088 240.895 146.312 217.419 145.302C215.068 145.199 213.244 143.21 213.341 140.857C213.443 138.505 215.431 136.679 217.781 136.775C243.596 137.882 268.075 149.741 284.955 169.303C286.495 171.087 286.296 173.778 284.514 175.32C284.121 175.665 283.674 175.925 283.209 176.094Z" fill="url(#paint13_linear)"/>
<path d="M926.391 418.32V361.489H503.326V418.32H-161V638.91H926.445V418.32H926.391Z" fill="url(#paint14_linear)"/>
<path d="M926.445 602.85H-160.323V642H926.445V602.85Z" fill="#737373"/>
<path d="M-160.209 415.75L503.9 415.575L506.643 423.642C503.942 428.335 499.091 434.394 493.152 434.394L-160.209 434.569V415.75Z" fill="#6264A7"/>
<path d="M926.669 372.888H523.97C520.876 372.888 517.934 371.527 515.929 369.163L504.003 355.109H926.669V372.888Z" fill="#6264A7"/>
<path d="M926.56 349.038H496.922C493.013 349.038 489.842 352.213 489.842 356.125C489.842 360.038 493.013 363.212 496.922 363.212H926.56V349.038Z" fill="#FFFACF"/>
<path d="M176.677 374.793C175.686 374.793 174.888 373.988 174.888 373.003V354.637L170.043 349.788C169.705 349.449 169.518 348.995 169.518 348.524V332.402C169.518 331.41 170.321 330.612 171.306 330.612C172.297 330.612 173.094 331.416 173.094 332.402V347.78L177.939 352.63C178.278 352.968 178.465 353.422 178.465 353.894V373.003C178.465 373.988 177.667 374.793 176.677 374.793Z" fill="white"/>
<path d="M153.695 311.079H-160.323V416.947H153.695V311.079Z" fill="#605D5A"/>
<path d="M153.695 311.079H-160.323V339.35H153.695V311.079Z" fill="white"/>
<path d="M183.836 409.987V401.104C183.836 399.151 182.253 397.566 180.302 397.566H167.017C165.065 397.566 163.482 395.982 163.482 394.029V314.545C163.482 312.591 161.9 311.007 159.948 311.007H129.832C127.881 311.007 126.298 312.591 126.298 314.545V409.987C126.298 411.941 127.881 413.525 129.832 413.525H180.296C182.253 413.525 183.836 411.941 183.836 409.987Z" fill="#737373"/>
<path d="M39.8213 330.17H-17.0823C-19.4384 330.17 -21.3535 328.26 -21.3535 325.895C-21.3535 323.537 -19.4444 321.62 -17.0823 321.62H39.8213C42.1774 321.62 44.0925 323.531 44.0925 325.895C44.0925 328.26 42.1835 330.17 39.8213 330.17Z" fill="#F7B548"/>
<path d="M180.639 339.562H163.482L161.978 311.993L181.95 320.834C182.863 321.317 183.436 322.273 183.436 323.307V336.768C183.436 338.31 182.186 339.562 180.639 339.562Z" fill="white"/>
<path d="M163.481 339.562V314.605C163.481 312.616 161.874 311.007 159.887 311.007H129.831C127.843 311.007 126.236 312.616 126.236 314.605V339.562H163.481Z" fill="#E1DFDD"/>
<path d="M174.888 367.476V372.997C174.888 373.988 175.691 374.787 176.676 374.787C177.667 374.787 178.464 373.982 178.464 372.997V367.476H174.888Z" fill="#505C6D"/>
<path d="M509.966 413.416H-160.323V425.402H509.966C512.981 425.402 515.421 422.959 515.421 419.941V418.877C515.421 415.859 512.981 413.416 509.966 413.416Z" fill="#FFFACF"/>
<path d="M681.764 514.791L700.438 449.089H675.312L657.212 512.778C656.372 515.735 656.686 518.903 658.1 521.637L689.793 583.064C691.938 587.225 696.161 589.613 700.541 589.613C702.407 589.613 704.304 589.178 706.075 588.265C712.001 585.199 714.327 577.906 711.264 571.968L681.764 514.791Z" fill="url(#paint15_linear)"/>
<path d="M651.086 447.71H627.501V585.64H651.086V447.71Z" fill="url(#paint16_linear)"/>
<path d="M608.779 603.358L630.087 582.066C634.987 577.174 642.925 577.174 647.825 582.066L669.132 603.358C671.023 605.251 669.682 608.486 667.006 608.486H610.906C608.223 608.486 606.882 605.251 608.779 603.358Z" fill="white"/>
<path d="M631.844 467.236H708.068C718.35 467.236 727.11 459.756 728.723 449.59L737.792 392.572C739.815 379.854 729.998 368.346 717.136 368.346H622.776C609.914 368.346 600.097 379.86 602.121 392.572L611.189 449.59C612.802 459.756 621.562 467.236 631.844 467.236Z" fill="#2B579A"/>
<path d="M809.571 388.07L835.062 396.446L842.708 373.131L817.217 364.755L809.571 388.07Z" fill="#2B579A"/>
<path d="M828.152 432.719C827.337 431.534 827.675 429.937 828.92 429.217C832.961 426.871 836.2 423.098 837.77 418.296C841.172 407.919 835.529 396.744 825.162 393.34C824.576 393.146 826.582 383.15 826.582 383.15C826.974 383.259 827.373 383.344 827.76 383.471C841.975 388.139 849.714 403.462 845.05 417.692C842.688 424.888 837.601 430.421 831.318 433.535C830.201 434.079 828.853 433.741 828.152 432.719Z" fill="#2B579A"/>
<path d="M794.006 421.338C795.366 420.866 796.036 419.385 795.462 418.06C793.596 413.773 793.227 408.808 794.798 404.013C798.199 393.636 809.364 387.988 819.731 391.392C820.317 391.586 824.624 382.34 824.624 382.34C824.243 382.195 823.875 382.025 823.482 381.898C809.267 377.23 793.964 384.976 789.294 399.205C786.932 406.401 787.754 413.876 790.974 420.11C791.554 421.223 792.84 421.749 794.006 421.338Z" fill="#2B579A"/>
<path d="M424.232 297.637C425.507 296.959 427.066 297.528 427.646 298.852C429.525 303.115 432.902 306.732 437.463 308.824C447.383 313.378 459.109 309.024 463.658 299.094C463.918 298.532 473.614 301.652 473.614 301.652C473.463 302.033 473.33 302.414 473.161 302.789C466.927 316.401 450.845 322.376 437.245 316.129C430.376 312.978 425.465 307.312 423.078 300.721C422.656 299.542 423.127 298.223 424.232 297.637Z" fill="#2B579A"/>
<path d="M439.373 264.958C439.693 266.367 441.137 267.177 442.52 266.76C446.973 265.405 451.914 265.605 456.476 267.697C466.396 272.251 470.745 283.988 466.196 293.918C465.936 294.48 474.63 299.802 474.63 299.802C474.817 299.439 475.023 299.088 475.198 298.713C481.433 285.101 475.47 269.009 461.871 262.762C455.002 259.612 447.504 259.576 440.961 262.067C439.789 262.521 439.101 263.736 439.373 264.958Z" fill="#2B579A"/>
<path d="M773.798 294.456H494.777V318.064H773.798C830.689 318.064 819.259 358.145 819.259 359.85H842.844C842.85 359.203 854.003 294.456 773.798 294.456Z" fill="#72ACF1"/>
<path d="M594.515 221.315C594.497 220.662 594.467 220.021 594.467 219.362C594.467 178.797 627.664 145.913 668.618 145.913C709.573 145.913 742.77 178.797 742.77 219.362C742.77 220.015 742.74 220.662 742.722 221.315H594.515Z" fill="url(#paint17_linear)"/>
<path d="M655.037 206.088C663.265 206.088 669.935 199.412 669.935 191.176C669.935 182.94 663.265 176.264 655.037 176.264C646.809 176.264 640.139 182.94 640.139 191.176C640.139 199.412 646.809 206.088 655.037 206.088Z" fill="#2B579A"/>
<path d="M649.358 201.922C655.194 201.922 659.925 197.186 659.925 191.345C659.925 185.504 655.194 180.769 649.358 180.769C643.523 180.769 638.792 185.504 638.792 191.345C638.792 197.186 643.523 201.922 649.358 201.922Z" fill="#F7B548"/>
<path d="M604.718 206.088C612.946 206.088 619.616 199.412 619.616 191.176C619.616 182.94 612.946 176.264 604.718 176.264C596.49 176.264 589.82 182.94 589.82 191.176C589.82 199.412 596.49 206.088 604.718 206.088Z" fill="#2B579A"/>
<path d="M599.058 201.922C604.893 201.922 609.624 197.186 609.624 191.345C609.624 185.504 604.893 180.769 599.058 180.769C593.222 180.769 588.491 185.504 588.491 191.345C588.491 197.186 593.222 201.922 599.058 201.922Z" fill="#F7B548"/>
<path d="M812.36 372.344L845.78 375.803C847.714 376.002 849.448 374.593 849.647 372.658L851.653 353.222C851.852 351.287 850.444 349.552 848.511 349.352L815.09 345.893C813.157 345.694 811.423 347.103 811.224 349.038L809.218 368.473C809.019 370.409 810.42 372.138 812.36 372.344Z" fill="white"/>
<path d="M493.854 294.934C476.152 294.934 468.564 289.026 468.564 289.026L458.451 308.262C458.451 308.262 466.377 318.052 489.643 318.052C510.038 318.052 493.854 294.934 493.854 294.934Z" fill="#2B579A"/>
<path d="M487.202 292.388L487.208 326.022C487.208 327.969 488.785 329.548 490.73 329.548L510.25 329.542C512.195 329.542 513.772 327.963 513.772 326.016L513.766 292.382C513.766 290.434 512.189 288.856 510.244 288.856L490.724 288.862C488.779 288.862 487.202 290.441 487.202 292.388Z" fill="white"/>
<path d="M679.601 604.665L690.802 576.69C693.375 570.262 700.673 567.13 707.107 569.694L735.073 580.857C737.556 581.849 737.598 585.35 735.139 586.408L683.582 608.535C681.111 609.599 678.604 607.156 679.601 604.665Z" fill="white"/>
<path d="M584.872 275.589H565.594C558.351 275.589 552.473 281.467 552.473 288.723V322.757C552.473 330.013 558.345 335.891 565.594 335.891H584.872V275.589Z" fill="url(#paint18_radial)"/>
<path d="M717.686 426.055H620.257C601.891 426.055 586.323 412.527 583.737 394.331L564.012 255.385C560.858 233.149 578.094 213.272 600.532 213.272H737.411C759.849 213.272 777.085 233.156 773.931 255.385L754.206 394.331C751.614 412.533 736.052 426.055 717.686 426.055Z" fill="url(#paint19_radial)"/>
<path d="M596.007 324.178H669.276C673.415 324.178 676.762 320.822 676.762 316.685V288.675C676.762 284.532 673.409 281.182 669.276 281.182H596.007C591.868 281.182 588.521 284.538 588.521 288.675V316.685C588.515 320.822 591.868 324.178 596.007 324.178Z" fill="url(#paint20_radial)"/>
<path d="M778.341 275.589H773.115L773.128 275.437H742.709C738.547 275.437 734.837 278.068 733.454 282.005L721.389 316.407C718.03 325.992 725.135 336.024 735.284 336.024H767.394L767.406 335.891H778.335C785.579 335.891 791.457 330.013 791.457 322.757V288.723C791.463 281.466 785.591 275.589 778.341 275.589Z" fill="url(#paint21_radial)"/>
<path d="M739.881 219.41H593.131C591.361 219.41 589.929 220.843 589.929 222.615C589.929 224.387 591.361 225.82 593.131 225.82H755.202C755.341 225.82 755.516 225.808 755.704 225.79C752.067 221.351 744.769 219.803 739.881 219.41Z" fill="#72ACF1"/>
<path d="M668.836 266.324H653.66V272.402H668.836V266.324Z" fill="#F7B548"/>
<path d="M647.087 266.324H631.911V272.402H647.087V266.324Z" fill="#2B579A"/>
</g>
<defs>
<linearGradient id="paint0_linear" x1="383.656" y1="414.948" x2="383.656" y2="0" gradientUnits="userSpaceOnUse">
<stop stop-color="#FADCBD"/>
<stop offset="0.1337" stop-color="#E8C5A1"/>
<stop offset="0.2153" stop-color="#E0BB95"/>
</linearGradient>
<linearGradient id="paint1_linear" x1="24.5165" y1="269.727" x2="24.5165" y2="283.678" gradientUnits="userSpaceOnUse">
<stop stop-color="#737373"/>
<stop offset="0.9977" stop-color="#605D5A"/>
<stop offset="1"/>
</linearGradient>
<linearGradient id="paint2_linear" x1="24.5165" y1="278.797" x2="24.5165" y2="292.749" gradientUnits="userSpaceOnUse">
<stop stop-color="#737373"/>
<stop offset="0.9977" stop-color="#605D5A"/>
<stop offset="1"/>
</linearGradient>
<linearGradient id="paint3_linear" x1="24.5165" y1="287.868" x2="24.5165" y2="301.82" gradientUnits="userSpaceOnUse">
<stop stop-color="#737373"/>
<stop offset="0.9977" stop-color="#605D5A"/>
<stop offset="1"/>
</linearGradient>
<linearGradient id="paint4_linear" x1="24.5165" y1="296.939" x2="24.5165" y2="310.89" gradientUnits="userSpaceOnUse">
<stop stop-color="#737373"/>
<stop offset="0.9977" stop-color="#605D5A"/>
<stop offset="1"/>
</linearGradient>
<linearGradient id="paint5_linear" x1="240.816" y1="327.577" x2="240.816" y2="419.219" gradientUnits="userSpaceOnUse">
<stop offset="0.2368" stop-color="#958FE7"/>
<stop offset="0.4881" stop-color="#BBB7EF"/>
</linearGradient>
<linearGradient id="paint6_linear" x1="191.244" y1="327.577" x2="191.244" y2="415.844" gradientUnits="userSpaceOnUse">
<stop offset="0.2368" stop-color="#958FE7"/>
<stop offset="0.4881" stop-color="#BBB7EF"/>
</linearGradient>
<radialGradient id="paint7_radial" cx="0" cy="0" r="1" gradientUnits="userSpaceOnUse" gradientTransform="translate(291.151 205.161) scale(171.273 171.438)">
<stop offset="0.186" stop-color="#A08BE8"/>
<stop offset="0.684" stop-color="#8065E0"/>
<stop offset="0.8157" stop-color="#8065E0"/>
</radialGradient>
<radialGradient id="paint8_radial" cx="0" cy="0" r="1" gradientUnits="userSpaceOnUse" gradientTransform="translate(231.144 274.951) scale(74.6091 74.6813)">
<stop stop-color="#512BD4"/>
<stop offset="0.0463" stop-color="#6645D9"/>
<stop offset="0.4202" stop-color="#7659DD"/>
<stop offset="0.7291" stop-color="#8065E0"/>
</radialGradient>
<radialGradient id="paint9_radial" cx="0" cy="0" r="1" gradientUnits="userSpaceOnUse" gradientTransform="translate(152.47 296.394) scale(65.2199 65.2829)">
<stop offset="0.4614" stop-color="#A08BE8"/>
<stop offset="0.5268" stop-color="#A793EA"/>
<stop offset="0.8352" stop-color="#C5B7F0"/>
<stop offset="1" stop-color="#D0C5F3"/>
</radialGradient>
<radialGradient id="paint10_radial" cx="0" cy="0" r="1" gradientUnits="userSpaceOnUse" gradientTransform="translate(158.299 90.2684) scale(38.7266 38.764)">
<stop stop-color="#A08BE8"/>
<stop offset="0.5884" stop-color="#8065E0"/>
<stop offset="0.8157" stop-color="#8065E0"/>
</radialGradient>
<radialGradient id="paint11_radial" cx="0" cy="0" r="1" gradientUnits="userSpaceOnUse" gradientTransform="translate(172.557 131.931) scale(16.0038 16.0192)">
<stop stop-color="#8065E0"/>
<stop offset="1" stop-color="#512BD4"/>
</radialGradient>
<radialGradient id="paint12_radial" cx="0" cy="0" r="1" gradientUnits="userSpaceOnUse" gradientTransform="translate(163.632 241.963) scale(24.9573 24.9814)">
<stop stop-color="#8065E0"/>
<stop offset="1" stop-color="#512BD4"/>
</radialGradient>
<linearGradient id="paint13_linear" x1="222.485" y1="166.627" x2="276.832" y2="146.565" gradientUnits="userSpaceOnUse">
<stop stop-color="#BDB9F0"/>
<stop offset="0.2325" stop-color="#CEC3E2" stop-opacity="0.7675"/>
<stop offset="0.7251" stop-color="#EDD6C9" stop-opacity="0.2749"/>
<stop offset="1" stop-color="#F9DDBF" stop-opacity="0"/>
</linearGradient>
<linearGradient id="paint14_linear" x1="382.723" y1="638.908" x2="382.723" y2="361.488" gradientUnits="userSpaceOnUse">
<stop stop-color="#BDB9F0"/>
<stop offset="0.1424" stop-color="#AAA8E0"/>
<stop offset="0.394" stop-color="#8C8DC8"/>
</linearGradient>
<linearGradient id="paint15_linear" x1="684.68" y1="449.09" x2="684.68" y2="589.612" gradientUnits="userSpaceOnUse">
<stop offset="0.1763" stop-color="#106EBE"/>
<stop offset="0.2358" stop-color="#1F7DCD"/>
<stop offset="0.2994" stop-color="#2B88D8"/>
</linearGradient>
<linearGradient id="paint16_linear" x1="639.293" y1="447.71" x2="639.293" y2="585.642" gradientUnits="userSpaceOnUse">
<stop offset="0.1763" stop-color="#106EBE"/>
<stop offset="0.2358" stop-color="#1F7DCD"/>
<stop offset="0.2994" stop-color="#2B88D8"/>
</linearGradient>
<linearGradient id="paint17_linear" x1="619.659" y1="183.617" x2="767.963" y2="183.617" gradientUnits="userSpaceOnUse">
<stop offset="0.3714" stop-color="white"/>
<stop offset="0.4886" stop-color="#F0F0EF"/>
<stop offset="0.7517" stop-color="#D3D1D0"/>
<stop offset="0.8986" stop-color="#C8C6C4"/>
</linearGradient>
<radialGradient id="paint18_radial" cx="0" cy="0" r="1" gradientUnits="userSpaceOnUse" gradientTransform="translate(549.797 286.934) scale(56.5812 56.6358)">
<stop stop-color="#4A78B0"/>
<stop offset="0.5565" stop-color="#3663A2"/>
<stop offset="0.9964" stop-color="#2B579A"/>
<stop offset="0.9968" stop-color="#2B66AD"/>
<stop offset="0.9977" stop-color="#2B7FCC"/>
<stop offset="0.9982" stop-color="#2B88D8"/>
</radialGradient>
<radialGradient id="paint19_radial" cx="0" cy="0" r="1" gradientUnits="userSpaceOnUse" gradientTransform="translate(594.66 230.936) scale(137.052 137.184)">
<stop stop-color="#72ACF1"/>
<stop offset="0.328" stop-color="#569EE7"/>
<stop offset="0.7581" stop-color="#378EDC"/>
<stop offset="0.9982" stop-color="#2B88D8"/>
</radialGradient>
<radialGradient id="paint20_radial" cx="0" cy="0" r="1" gradientUnits="userSpaceOnUse" gradientTransform="translate(604.05 282.063) scale(58.3785 58.4349)">
<stop offset="0.0219" stop-color="#C7E0F4"/>
<stop offset="0.2844" stop-color="#B3D3F5"/>
<stop offset="0.5013" stop-color="#A7CBF6"/>
</radialGradient>
<radialGradient id="paint21_radial" cx="0" cy="0" r="1" gradientUnits="userSpaceOnUse" gradientTransform="translate(732.855 295.378) scale(101.121 101.218)">
<stop offset="0.1402" stop-color="#2B579A"/>
<stop offset="0.3566" stop-color="#2B66AD"/>
<stop offset="0.7684" stop-color="#2B7FCC"/>
<stop offset="0.9982" stop-color="#2B88D8"/>
</radialGradient>
<clipPath id="clip0">
<rect width="896" height="642" fill="white"/>
</clipPath>
</defs>
</svg>
