<svg width="580" height="301" viewBox="0 0 580 301" fill="none" xmlns="http://www.w3.org/2000/svg">
<path d="M306.567 157.609H300.691V211.88H306.567V157.609Z" fill="#797673"/>
<path d="M268.502 299.33L295.312 171.51L291.19 170.644L264.199 299.33H268.502Z" fill="#A5B9D1"/>
<path d="M337.788 299.33L310.979 171.51L315.1 170.644L342.091 299.33H337.788Z" fill="#A5B9D1"/>
<path d="M321.415 299.33L301.566 171.51L305.688 170.644L325.718 299.33H321.415Z" fill="#A5B9D1"/>
<path d="M316.572 174.983H289.941L291.812 165.912H314.701L316.572 174.983Z" fill="#797673"/>
<path d="M431.444 68.9802L424.333 71.3608L457.918 171.791L465.029 169.411L431.444 68.9802Z" fill="#9078E4"/>
<path d="M438.97 241.165C439.054 237.604 438.652 228.439 433.095 220.234C426.84 211.004 416.483 206.151 402.309 205.814L402.136 213.012C413.85 213.293 422.261 217.08 427.135 224.274C431.528 230.756 431.841 238.123 431.771 240.992L438.97 241.165Z" fill="#797673"/>
<path d="M417.265 244.17C416.563 244.17 415.876 244.526 415.478 245.167L408.723 256.124C408.115 257.112 408.419 258.404 409.406 259.012C410.393 259.621 411.684 259.312 412.293 258.329L419.047 247.372C419.656 246.384 419.352 245.092 418.364 244.484C418.018 244.269 417.639 244.17 417.265 244.17Z" fill="#A08BE8"/>
<path d="M431.163 250.456C434.423 254.187 434.512 262.883 434.044 264.282C433.576 265.682 435.518 268.078 439.171 263.814C441.969 260.552 445.047 253.541 437.847 247.882C435.204 245.804 431.163 250.456 431.163 250.456Z" fill="#A08BE8"/>
<path d="M440.425 249.427H431.154C429.17 249.427 427.561 247.817 427.561 245.832V235.526C427.561 233.541 429.17 231.931 431.154 231.931H440.425C442.409 231.931 444.018 233.541 444.018 235.526V245.832C444.018 247.817 442.409 249.427 440.425 249.427Z" fill="#8065E0"/>
<path d="M314.721 188.753C315.511 192.226 318.15 201.016 325.545 207.606C333.872 215.02 345.099 217.187 358.927 214.037L357.327 207.016C345.904 209.619 336.819 208.009 330.331 202.228C324.488 197.024 322.374 189.956 321.738 187.157L314.721 188.753Z" fill="#797673"/>
<path d="M320.016 177.829C315.942 175.011 313.725 166.605 313.832 165.135C313.94 163.666 311.474 161.817 308.976 166.844C307.068 170.696 305.8 178.241 314.164 181.962C317.238 183.328 320.016 177.829 320.016 177.829Z" fill="#A08BE8"/>
<path d="M408.625 43.2735C408.082 43.765 407.848 44.5279 408.096 45.1832L411.127 53.0745C411.169 53.1868 411.225 53.2898 411.291 53.3834L417.845 62.7117C418.345 63.4231 419.384 63.5261 420.165 62.9457C420.932 62.3747 421.175 61.3169 420.675 60.6055L414.219 51.4223L411.249 43.6948C410.931 42.8757 409.972 42.5434 409.097 42.9506C408.924 43.0395 408.765 43.1472 408.625 43.2735Z" fill="#512BD4"/>
<path d="M414.851 40.9849C414.365 41.4248 414.117 42.0942 414.267 42.7167L416.624 52.3023C416.648 52.4053 416.685 52.5083 416.732 52.6019L421.185 61.5698C421.573 62.3514 422.57 62.5995 423.417 62.1174C424.259 61.6353 424.628 60.6149 424.24 59.8333L419.857 51.0105L417.536 41.584C417.326 40.7228 416.423 40.2734 415.516 40.587C415.268 40.676 415.043 40.8117 414.851 40.9849Z" fill="#512BD4"/>
<path d="M319.085 175.989C318.341 175.989 317.621 175.596 317.237 174.894L308.508 158.957C307.951 157.937 308.321 156.654 309.341 156.097C310.36 155.54 311.638 155.91 312.199 156.93L320.928 172.867C321.485 173.888 321.115 175.17 320.095 175.727C319.772 175.905 319.426 175.989 319.085 175.989Z" fill="#A5B9D1"/>
<path d="M317.312 184.999C317.995 184.826 318.575 184.316 318.8 183.595L322.664 171.314C323.01 170.209 322.397 169.03 321.293 168.683C320.189 168.337 319.01 168.95 318.664 170.055L314.8 182.336C314.454 183.441 315.067 184.62 316.171 184.967C316.555 185.084 316.947 185.088 317.312 184.999Z" fill="#A08BE8"/>
<path d="M311.287 181.101L320.278 178.826C322.201 178.339 324.151 179.504 324.638 181.428L327.164 191.421C327.651 193.345 326.486 195.297 324.563 195.783L315.572 198.058C313.649 198.545 311.699 197.379 311.212 195.456L308.686 185.463C308.2 183.539 309.365 181.587 311.287 181.101Z" fill="#8065E0"/>
<path d="M335.434 288.097L337.787 299.33H342.091L339.733 288.097H335.434Z" fill="#797673"/>
<path d="M319.669 288.097L321.414 299.33H325.718L323.968 288.097H319.669Z" fill="#797673"/>
<path d="M266.556 288.097L264.199 299.33H268.502L270.855 288.097H266.556Z" fill="#797673"/>
<path d="M335.106 145.884H327.322V143.703C327.322 142.641 326.662 141.691 325.671 141.316L317.424 138.208C317.138 138.101 316.829 138.045 316.525 138.045H313.078L311.59 135.274H321.535C322.752 135.274 323.739 134.286 323.739 133.069V132.512C323.739 131.295 322.752 130.308 321.535 130.308H282.596C281.38 130.308 280.393 131.295 280.393 132.512V133.069C280.393 134.286 281.38 135.274 282.596 135.274H292.542L291.054 138.045H286.016C284.608 138.045 283.467 139.187 283.467 140.595V144.288H277.853V152.648H283.467V156.944C283.467 158.353 284.608 159.495 286.016 159.495H324.777C326.185 159.495 327.327 158.353 327.327 156.944V154.267H335.111C336.402 154.267 337.445 153.219 337.445 151.927V148.225C337.44 146.933 336.397 145.884 335.106 145.884Z" fill="#A5B9D1"/>
<path d="M266.173 155.142H278.036C279.159 155.142 280.066 154.234 280.066 153.111V144.227C280.066 143.104 279.159 142.196 278.036 142.196H266.173C265.05 142.196 264.143 143.104 264.143 144.227V153.111C264.138 154.234 265.05 155.142 266.173 155.142Z" fill="#797673"/>
<path d="M317.798 148.075H301.346V152.779H317.798V148.075Z" fill="#C7E0F4"/>
<path d="M504.583 235.254H493.576V279.677H501.051L504.583 235.254Z" fill="#9078E4"/>
<path d="M486.923 235.254H475.921L479.453 279.677H486.923V235.254Z" fill="#9078E4"/>
<path d="M490.694 251.013C507.115 251.013 520.427 237.694 520.427 221.264C520.427 204.834 507.115 191.515 490.694 191.515C474.273 191.515 460.961 204.834 460.961 221.264C460.961 237.694 474.273 251.013 490.694 251.013Z" fill="#512BD4"/>
<path d="M454.595 203.127H526.789L529.142 181.765H452.242L454.595 203.127Z" fill="#8065E0"/>
<path d="M460.832 201.35L476.273 201.35L476.273 185.9L460.832 185.9L460.832 201.35Z" fill="#512BD4"/>
<path d="M490.694 173.766C507.115 173.766 520.427 160.447 520.427 144.017C520.427 127.587 507.115 114.267 490.694 114.267C474.273 114.267 460.961 127.587 460.961 144.017C460.961 160.447 474.273 173.766 490.694 173.766Z" fill="url(#paint0_radial)"/>
<path d="M446.815 181.611L443.775 154.862C443.414 151.684 445.898 148.894 449.098 148.894H531.378C534.578 148.894 537.062 151.679 536.701 154.862L533.661 181.611C533.352 184.321 531.064 186.366 528.337 186.366H452.143C449.416 186.366 447.124 184.321 446.815 181.611Z" fill="url(#paint1_radial)"/>
<path d="M454.927 200.169H525.545C528.745 200.169 531.228 202.954 530.868 206.137L527.758 233.513C526.911 235.38 525.035 236.653 522.883 236.653H457.706C455.404 236.653 453.421 235.193 452.672 233.11L449.604 206.137C449.243 202.959 451.732 200.169 454.927 200.169Z" fill="url(#paint2_radial)"/>
<path d="M488.935 127.232H466.537C464.152 130.715 462.496 134.731 461.771 139.065H488.94C491.34 139.065 493.286 137.118 493.286 134.717V131.585C493.286 129.18 491.335 127.232 488.935 127.232Z" fill="#512BD4"/>
<path d="M483.705 137.59C486.185 137.59 488.196 135.579 488.196 133.097C488.196 130.616 486.185 128.604 483.705 128.604C481.225 128.604 479.214 130.616 479.214 133.097C479.214 135.579 481.225 137.59 483.705 137.59Z" fill="#A7CBF6"/>
<path d="M470.481 137.59C472.961 137.59 474.972 135.579 474.972 133.097C474.972 130.616 472.961 128.604 470.481 128.604C468.001 128.604 465.99 130.616 465.99 133.097C465.99 135.579 468.001 137.59 470.481 137.59Z" fill="#A7CBF6"/>
<path d="M484.655 300.294H466.701C465.302 300.294 464.231 299.021 464.493 297.645C466.411 287.493 474.181 279.424 484.159 277.051C485.557 276.719 486.9 277.8 486.9 279.241V298.052C486.895 299.288 485.894 300.294 484.655 300.294Z" fill="#512BD4"/>
<path d="M498.487 277.046C488.505 279.419 480.739 287.488 478.821 297.64C478.559 299.017 479.631 300.29 481.029 300.29H498.983C500.223 300.29 501.224 299.283 501.224 298.048V279.237C501.229 277.8 499.886 276.714 498.487 277.046Z" fill="#512BD4"/>
<path d="M517.522 169.221C523.593 169.221 528.515 164.297 528.515 158.222C528.515 152.147 523.593 147.223 517.522 147.223C511.451 147.223 506.529 152.147 506.529 158.222C506.529 164.297 511.451 169.221 517.522 169.221Z" fill="#512BD4"/>
<path d="M466.206 200.169H454.927C451.727 200.169 449.243 202.954 449.604 206.137L452.672 233.11C453.421 235.193 455.409 236.653 457.706 236.653H469.003L466.206 200.169Z" fill="#FFD590"/>
<path d="M462.276 148.894H449.098C445.898 148.894 443.414 151.679 443.775 154.862L446.815 181.611C447.124 184.321 449.411 186.366 452.139 186.366H465.148L462.276 148.894Z" fill="#FFD590"/>
<path d="M91.2656 284.507L111.881 284.61C111.881 284.61 116.671 287.83 117.944 290.152C118.917 291.93 118.851 295.913 118.767 297.692C118.744 298.188 118.332 298.577 117.836 298.572L97.9504 298.534C97.3142 298.534 96.7949 298.015 96.8043 297.374C96.823 295.169 96.4488 290.479 95.6208 289.141C94.3858 287.142 91.2656 284.507 91.2656 284.507Z" fill="#D0C5F3"/>
<path d="M85.0115 260.693C81.2083 273.976 82.7661 295.038 82.9251 296.152C83.145 297.697 83.3555 298.778 85.5494 298.778C88.2813 298.778 100.004 298.778 100.004 298.778L93.8481 261.549L85.0115 260.693Z" fill="#8065E0"/>
<path d="M97.1364 262.743C98.0532 269.263 104.556 278.422 116.868 288.013C118.309 289.131 119.048 290.315 119.048 291.982V297.318C119.048 298.109 118.407 298.745 117.621 298.745H97.8567C97.3001 298.745 96.8463 298.291 96.8463 297.734V291.575C96.8463 289.656 96.458 288.668 94.4933 287.259C89.5675 283.725 86.4567 271.799 86.3538 263.314C86.2508 254.833 97.1364 262.743 97.1364 262.743Z" fill="#A08BE8"/>
<path d="M118.861 290.666C118.978 291.074 119.048 291.504 119.048 291.977V297.313C119.048 298.104 118.407 298.74 117.621 298.74H97.8567C97.3001 298.74 96.8463 298.286 96.8463 297.729V291.57C96.8463 291.242 96.8323 290.943 96.8042 290.662H118.861V290.666Z" fill="#D0C5F3"/>
<path d="M66.8413 284.507L87.4569 284.61C87.4569 284.61 92.247 287.83 93.5194 290.152C94.4924 291.93 94.427 295.913 94.3428 297.692C94.3194 298.188 93.9077 298.577 93.4119 298.572L73.526 298.534C72.8898 298.534 72.3706 298.015 72.3799 297.374C72.3987 295.169 72.0244 290.479 71.1964 289.141C69.9615 287.142 66.8413 284.507 66.8413 284.507Z" fill="#D0C5F3"/>
<path d="M60.592 260.693C56.7889 273.976 58.3466 295.038 58.5057 296.152C58.7255 297.697 58.936 298.778 61.13 298.778C63.8619 298.778 75.5847 298.778 75.5847 298.778L69.4286 261.549L60.592 260.693Z" fill="#8065E0"/>
<path d="M72.712 262.743C73.6289 269.263 80.1312 278.422 92.4435 288.013C93.8843 289.131 94.6234 290.315 94.6234 291.982V297.318C94.6234 298.109 93.9825 298.745 93.1966 298.745H73.4324C72.8757 298.745 72.422 298.291 72.422 297.734V291.575C72.422 289.656 72.0337 288.668 70.069 287.259C65.1431 283.725 62.0324 271.799 61.9294 263.314C61.8265 254.833 72.712 262.743 72.712 262.743Z" fill="#A08BE8"/>
<path d="M94.4363 290.666C94.5532 291.074 94.6234 291.504 94.6234 291.977V297.313C94.6234 298.104 93.9825 298.74 93.1966 298.74H73.4324C72.8757 298.74 72.422 298.286 72.422 297.729V291.57C72.422 291.242 72.408 290.943 72.3799 290.662H94.4363V290.666Z" fill="#D0C5F3"/>
<path d="M96.6921 219.907L96.6594 249.001L86.2183 248.991L86.251 219.893L96.6921 219.907Z" fill="url(#paint3_linear)"/>
<path d="M86.2693 237.519L96.7197 237.519L96.7197 236.157L86.2693 236.157L86.2693 237.519Z" fill="#A08BE8"/>
<path d="M86.1668 248.617H95.9576C97.7586 248.617 99.2181 250.077 99.2181 251.879V262.045C99.2181 263.847 97.7586 265.307 95.9576 265.307H86.1668C84.3658 265.307 82.9062 263.847 82.9062 262.045V251.879C82.9062 250.077 84.3658 248.617 86.1668 248.617Z" fill="url(#paint4_radial)"/>
<path d="M71.8615 219.907L71.8288 249.001L61.3877 248.991L61.4204 219.893L71.8615 219.907Z" fill="url(#paint5_linear)"/>
<path d="M61.4358 237.519L71.8862 237.519L71.8862 236.157L61.4358 236.157L61.4358 237.519Z" fill="#A08BE8"/>
<path d="M61.3367 248.617H71.1275C72.9285 248.617 74.388 250.077 74.388 251.879V262.045C74.388 263.847 72.9285 265.307 71.1275 265.307H61.3367C59.5357 265.307 58.0762 263.847 58.0762 262.045V251.879C58.0762 250.077 59.5357 248.617 61.3367 248.617Z" fill="url(#paint6_radial)"/>
<path d="M155.142 119.875C159.736 128.047 162.954 142.285 156.901 155.526C153.229 163.563 144.767 173.972 125.311 177.932L123.117 167.139C134.929 164.733 143.148 159.135 146.89 150.944C150.946 142.074 149.136 131.66 145.548 125.271L155.142 119.875Z" fill="#D0C5F3"/>
<path d="M134.985 163.034L133.864 163.635L138.991 173.216L140.112 172.615L134.985 163.034Z" fill="#A08BE8"/>
<path d="M149.156 142.298L149.051 143.567L159.876 144.463L159.981 143.195L149.156 142.298Z" fill="#A08BE8"/>
<path d="M156.027 157.305L144.772 154.651C144.519 155.011 144.257 155.362 143.981 155.709L151.115 164.344C153.229 161.99 154.824 159.584 156.027 157.305Z" fill="#A08BE8"/>
<path d="M55.1612 115.054L45.2253 119.056L42.5215 108.281L49.6553 105.412L55.1612 115.054Z" fill="#D0C5F3"/>
<path d="M52.9399 133.645C58.5616 133.645 63.119 129.085 63.119 123.46C63.119 117.835 58.5616 113.275 52.9399 113.275C47.3181 113.275 42.7607 117.835 42.7607 123.46C42.7607 129.085 47.3181 133.645 52.9399 133.645Z" fill="#512BD4"/>
<path d="M128.249 186.357C131.912 172.287 129.55 161.059 129.55 161.059H132.857L132.941 160.993C128.202 135.18 105.603 115.615 78.4293 115.615C47.817 115.615 23.0054 140.446 23.0054 171.07C23.0054 201.695 47.8217 226.525 78.4293 226.525C102.581 226.525 123.127 211.065 130.719 189.493C130.939 188.585 130.92 186.942 128.249 186.357Z" fill="url(#paint7_radial)"/>
<path d="M96.8044 161.072H72.0536C72.0536 161.072 68.4282 160.703 68.4282 164.017C68.4282 167.33 68.5639 176.682 68.5639 187.031C68.5639 189.16 70.3041 190.185 71.6747 190.185H130.724C130.579 190.162 130.495 190.143 130.495 190.143C130.495 190.143 132.029 187.19 128.249 186.361C131.865 172.465 129.606 161.344 129.55 161.077H96.8044" fill="white"/>
<path d="M100.645 186.315C100.645 186.315 106.169 181.938 107.25 181.129C108.33 180.319 109.271 180.272 110.262 181.129C111.249 181.985 116.783 186.315 116.783 186.315H100.645Z" fill="#A08BE8"/>
<path d="M130.495 190.143C130.495 190.143 132.03 187.19 128.25 186.361C128.254 186.347 128.259 186.333 128.259 186.319H71.7172C70.4027 186.319 68.7093 185.533 68.5596 184.26C68.5596 185.173 68.5643 186.099 68.5643 187.035C68.5643 188.964 69.9957 189.984 71.2868 190.157C71.4178 190.171 71.5441 190.185 71.6751 190.185H75.539H130.724C130.579 190.157 130.495 190.143 130.495 190.143Z" fill="#8065E0"/>
<path d="M126.219 199.163H30.6445C32.7917 202.809 35.3411 206.183 38.2321 209.235H118.631C121.522 206.183 124.072 202.809 126.219 199.163Z" fill="url(#paint8_linear)"/>
<path d="M114.609 196.284H96.7202V212.114H114.609V196.284Z" fill="#512BD4"/>
<path d="M65.3493 128.332L41.2861 142.116C40.0324 142.833 38.4373 142.21 38.0069 140.834L35.0879 131.576L65.3493 128.332Z" fill="#605D5A"/>
<path d="M31.8185 128.805C27.7254 129.9 26.8038 136.233 32.7541 135.578C42.7742 134.478 78.8643 128.094 95.3774 119.659C103.756 115.381 104.579 108.22 89.5768 110.462C74.5747 112.709 31.8185 128.805 31.8185 128.805Z" fill="#FAE969"/>
<path d="M30.5692 129.105C30.8031 130.467 32.0849 131.384 33.4508 131.178C38.1802 130.462 49.5148 128.492 63.5064 124.34C78.0641 120.02 85.9698 115.7 88.9683 113.842C89.8478 113.299 90.2454 112.227 89.932 111.239C88.0327 105.239 76.1041 81.8597 51.0725 89.3813C25.765 96.9871 29.1939 121.157 30.5692 129.105Z" fill="#E8D441"/>
<path d="M47.9008 90.4765C43.9339 92.0398 40.7903 94.0571 38.311 96.3599C60.082 91.7917 72.0435 104.265 75.5285 108.716C76.2302 109.615 77.4231 109.975 78.513 109.638L80.1316 109.133C81.7969 108.613 82.4378 106.582 81.3572 105.211C76.8991 99.5567 65.3541 87.832 47.9008 90.4765Z" fill="#FAE969"/>
<path d="M19.0433 235.025C13.3597 227.569 8.19992 213.916 12.3539 199.963C14.8753 191.496 21.8126 180.01 40.529 173.382L44.2011 183.764C32.8385 187.784 25.4755 194.473 22.9026 203.104C20.1192 212.451 23.3563 222.514 27.7957 228.341L19.0433 235.025Z" fill="#D0C5F3"/>
<path d="M27.6555 179.94L26.6279 180.691L33.0344 189.468L34.062 188.718L27.6555 179.94Z" fill="#A08BE8"/>
<path d="M21.8086 210.696L10.9639 211.312L11.036 212.583L21.8807 211.967L21.8086 210.696Z" fill="#A08BE8"/>
<path d="M12.9766 198.081L24.4889 199.144C24.6901 198.751 24.9006 198.367 25.1251 197.983L16.8592 190.419C15.0957 193.05 13.856 195.657 12.9766 198.081Z" fill="#A08BE8"/>
<path d="M45.8149 188.5C51.4367 188.5 55.994 183.941 55.994 178.316C55.994 172.691 51.4367 168.131 45.8149 168.131C40.1931 168.131 35.6357 172.691 35.6357 178.316C35.6357 183.941 40.1931 188.5 45.8149 188.5Z" fill="url(#paint9_radial)"/>
<path d="M126.241 173.375C126.301 169.348 124.408 166.055 122.014 166.019C119.619 165.983 117.629 169.219 117.569 173.246C117.509 177.273 119.402 180.566 121.796 180.602C124.191 180.638 126.181 177.402 126.241 173.375Z" fill="#512BD4"/>
<path d="M121.854 169.46C120.269 171.042 120.269 173.612 121.854 175.198C122.94 176.284 124.483 176.626 125.859 176.223C126.093 175.353 126.228 174.393 126.242 173.387C126.27 171.412 125.831 169.619 125.092 168.295C123.936 168.187 122.739 168.575 121.854 169.46Z" fill="#8065E0"/>
<path d="M87.101 180.651C89.4957 180.615 91.3884 177.322 91.3284 173.295C91.2684 169.268 89.2785 166.032 86.8838 166.068C84.4891 166.104 82.5965 169.397 82.6564 173.424C82.7164 177.451 84.7063 180.687 87.101 180.651Z" fill="#512BD4"/>
<path d="M86.9569 169.699C85.3757 171.281 85.3757 173.85 86.9569 175.437C88.0328 176.514 89.5671 176.86 90.9378 176.467C91.1997 175.503 91.3447 174.426 91.326 173.289C91.298 171.459 90.8723 169.802 90.1893 168.529C89.0385 168.421 87.8457 168.814 86.9569 169.699Z" fill="#8065E0"/>
<path d="M152.407 114.333L147.888 105.028C146.667 102.557 143.673 101.541 141.203 102.768C138.733 103.989 137.718 106.985 138.943 109.456L144.571 120.727L152.407 114.333Z" fill="#D0C5F3"/>
<path d="M161.79 120.717L166.145 111.333C167.287 108.824 166.183 105.861 163.675 104.719C161.168 103.577 158.207 104.682 157.066 107.191L152.598 116.814L161.79 120.717Z" fill="#D0C5F3"/>
<path d="M155.728 117.811L159.844 108.319C160.925 105.782 159.741 102.852 157.206 101.771C154.67 100.689 151.742 101.874 150.661 104.41L146.442 114.146L155.728 117.811Z" fill="#D0C5F3"/>
<path d="M163.436 124.354L169.621 116.06C171.253 113.837 170.776 110.715 168.559 109.082C166.337 107.448 163.217 107.926 161.584 110.144L155.241 118.649L163.436 124.354Z" fill="#D0C5F3"/>
<path d="M153.861 132.91C159.63 132.91 164.307 128.231 164.307 122.458C164.307 116.686 159.63 112.007 153.861 112.007C148.092 112.007 143.415 116.686 143.415 122.458C143.415 128.231 148.092 132.91 153.861 132.91Z" fill="#927BE5"/>
<path d="M13.7245 277.561L0.233394 247.854C-0.360701 246.548 0.21936 245.013 1.51982 244.419L43.9017 225.144C45.2068 224.55 46.7412 225.13 47.3353 226.431L60.8264 256.139C61.4205 257.444 60.8404 258.98 59.54 259.574L17.1581 278.848C15.8529 279.443 14.3139 278.862 13.7245 277.561Z" fill="#737373"/>
<path d="M25.8545 236.153L34.1017 242.392C36.3096 244.039 39.4392 243.581 41.0858 241.371C42.7324 239.162 42.274 236.031 40.066 234.383L29.9383 226.895L25.8545 236.153Z" fill="#D0C5F3"/>
<path d="M14.5947 234.725L14.9736 245.064C15.0953 247.821 17.4202 249.956 20.1755 249.834C22.9308 249.712 25.0639 247.386 24.9423 244.629L24.554 234.028L14.5947 234.725Z" fill="#D0C5F3"/>
<path d="M21.312 234.561L21.9529 244.887C22.1447 247.639 24.5257 249.712 27.2764 249.525C30.027 249.333 32.0993 246.951 31.9122 244.199L31.2526 233.607L21.312 234.561Z" fill="#D0C5F3"/>
<path d="M11.479 232.23L9.72949 242.429C9.28041 245.149 11.1235 247.718 13.8414 248.168C16.5593 248.617 19.1274 246.773 19.5765 244.053L21.3682 233.597L11.479 232.23Z" fill="#D0C5F3"/>
<path d="M20.8676 240.019C26.6367 240.019 31.3134 235.339 31.3134 229.567C31.3134 223.795 26.6367 219.116 20.8676 219.116C15.0986 219.116 10.4219 223.795 10.4219 229.567C10.4219 235.339 15.0986 240.019 20.8676 240.019Z" fill="#927BE5"/>
<path d="M125.115 156.046C124.165 156.046 123.277 155.465 122.926 154.525C118.407 142.454 108.995 132.667 97.1037 127.682C95.9108 127.181 95.3495 125.81 95.85 124.621C96.3506 123.427 97.7212 122.866 98.9094 123.366C111.984 128.847 122.336 139.608 127.304 152.886C127.758 154.099 127.145 155.447 125.934 155.901C125.662 155.999 125.386 156.046 125.115 156.046Z" fill="url(#paint10_radial)"/>
<path d="M560.83 116.898C562.131 117.867 562.786 119.556 562.36 121.227L554.871 150.598C554.496 152.067 553.341 153.214 551.867 153.579L518.888 161.779C516.68 162.322 514.444 160.974 513.901 158.765C513.359 156.556 514.706 154.323 516.914 153.776L547.498 146.165L554.379 119.182C554.941 116.978 557.186 115.644 559.394 116.21C559.927 116.346 560.414 116.584 560.83 116.898Z" fill="#9078E4"/>
<path d="M555.539 120.9L560.961 122.285C561.841 122.51 562.673 122.047 562.846 121.232L563.74 117.006C563.768 116.865 563.819 116.729 563.89 116.608L569.152 107.397C569.657 106.507 569.068 105.309 567.973 105.01L554.749 101.387C553.631 101.083 552.649 101.892 552.822 102.973L554.665 114.492C554.688 114.637 554.688 114.778 554.674 114.918L554.16 119.014C554.057 119.847 554.665 120.675 555.539 120.9Z" fill="#512BD4"/>
<path d="M558.276 87.1674C558.926 87.6027 559.263 88.3844 559.048 89.0864C558.65 90.3736 556.779 93.4065 555.961 94.703L557.514 103.648C557.668 104.546 557.041 105.318 556.115 105.375C555.184 105.421 554.305 104.738 554.146 103.839L552.49 94.3146C552.424 93.9355 552.494 93.5657 552.691 93.2615C553.813 91.5156 555.507 88.6886 555.764 87.8648C556.021 87.027 556.966 86.6245 557.874 86.9662C558.019 87.0177 558.155 87.0879 558.276 87.1674Z" fill="#512BD4"/>
<path d="M577.189 105.754C576.894 105.754 576.595 105.707 576.305 105.609L316.255 19.0706C314.786 18.5792 313.986 16.9925 314.477 15.5181C314.968 14.0437 316.554 13.2481 318.028 13.7395L578.078 100.277C579.547 100.769 580.347 102.356 579.855 103.83C579.462 105.009 578.363 105.754 577.189 105.754Z" fill="#A5B9D1"/>
<path d="M324.245 10.3649L301.243 31.9701C299.003 34.0763 295.476 33.964 293.37 31.722L292.683 30.9919C290.578 28.7499 290.69 25.2208 292.931 23.1146L315.932 1.50934C318.173 -0.59689 321.7 -0.484559 323.805 1.75741L324.493 2.48756C326.602 4.72953 326.49 8.25863 324.245 10.3649Z" fill="#A08BE8"/>
<path d="M312.66 4.56728L305.522 11.2719L313.83 20.1274L320.969 13.4229L312.66 4.56728Z" fill="#512BD4"/>
<path d="M574.363 87.0081C574.971 87.4153 575.318 88.1361 575.168 88.8148L573.334 97.0665C573.306 97.1835 573.269 97.2912 573.217 97.3941L568.109 107.588C567.721 108.365 566.71 108.623 565.849 108.164C565.007 107.715 564.61 106.704 564.998 105.927L570.027 95.887L571.823 87.8085C572.015 86.9519 572.918 86.4792 573.839 86.7553C574.026 86.8162 574.204 86.9004 574.363 87.0081Z" fill="#512BD4"/>
<path d="M567.861 85.6601C568.408 86.0252 568.755 86.6477 568.694 87.2843L567.777 97.1133C567.768 97.221 567.744 97.324 567.711 97.4269L564.629 106.952C564.362 107.785 563.408 108.173 562.505 107.827C561.597 107.476 561.083 106.521 561.354 105.688L564.39 96.313L565.293 86.6477C565.377 85.7631 566.205 85.1874 567.145 85.3653C567.407 85.4167 567.651 85.515 567.861 85.6601Z" fill="#512BD4"/>
<path d="M424.558 41.0597C423.977 41.5839 423.758 42.4123 424.076 43.0723C424.656 44.2846 426.957 47.0086 427.958 48.1694L427.739 57.2449C427.715 58.1576 428.45 58.8316 429.381 58.7427C430.307 58.6537 431.079 57.844 431.102 56.9313L431.331 47.2661C431.341 46.8822 431.214 46.5265 430.976 46.2504C429.61 44.6918 427.514 42.1456 427.14 41.3639C426.761 40.5729 425.769 40.3155 424.922 40.7882C424.787 40.8725 424.665 40.9614 424.558 41.0597Z" fill="#512BD4"/>
<path d="M432.234 74.0197L427.079 76.1915C426.242 76.5425 425.348 76.2055 425.058 75.4286L423.552 71.3799C423.501 71.2442 423.43 71.1178 423.346 71.0102L416.783 62.6742C416.152 61.8691 416.559 60.596 417.597 60.1373L430.143 54.605C431.205 54.1369 432.295 54.7922 432.281 55.8921L432.155 67.5606C432.155 67.7057 432.173 67.8461 432.211 67.9819L433.324 71.9556C433.549 72.756 433.072 73.6687 432.234 74.0197Z" fill="#512BD4"/>
<path d="M386.592 296.044C384.604 296.044 382.995 294.116 382.995 291.738V264.058C382.995 261.68 384.604 259.752 386.592 259.752C388.58 259.752 390.189 261.68 390.189 264.058V291.738C390.194 294.121 388.58 296.044 386.592 296.044Z" fill="#797673"/>
<path d="M377.338 299.648V297.659C377.338 294.495 379.902 291.93 383.064 291.93H394.754C397.917 291.93 400.48 294.495 400.48 297.659V299.648H377.338Z" fill="#605D5A"/>
<path d="M373.737 296.044C371.748 296.044 370.139 294.116 370.139 291.738V264.058C370.139 261.68 371.748 259.752 373.737 259.752C375.725 259.752 377.334 261.68 377.334 264.058V291.738C377.338 294.121 375.725 296.044 373.737 296.044Z" fill="#797673"/>
<path d="M382.995 299.648V297.659C382.995 294.495 380.431 291.93 377.269 291.93H365.579C362.417 291.93 359.853 294.495 359.853 297.659V299.648H382.995Z" fill="#605D5A"/>
<path d="M387.565 133.547V116.149C387.565 114.258 384.969 113.739 384.239 115.48L376.96 132.877C376.483 134.019 377.32 135.274 378.555 135.274H385.834C386.788 135.278 387.565 134.501 387.565 133.547Z" fill="#B7B5B4"/>
<path d="M399.686 133.547V116.149C399.686 114.258 397.089 113.739 396.36 115.48L389.081 132.877C388.604 134.019 389.441 135.274 390.676 135.274H397.955C398.909 135.278 399.686 134.501 399.686 133.547Z" fill="#B7B5B4"/>
<path d="M383.411 165.074H374.382V213.546H383.411V165.074Z" fill="#797673"/>
<path d="M414.425 161.096L412.9 143.769C412.269 136.589 406.258 131.08 399.054 131.08H358.094C350.89 131.08 344.879 136.589 344.247 143.769L342.722 161.096C342.554 162.996 344.051 164.635 345.96 164.635H369.452C370.476 169.09 374.457 172.414 379.22 172.414C383.982 172.414 387.963 169.09 388.987 164.635H411.188C413.097 164.635 414.594 162.996 414.425 161.096Z" fill="url(#paint11_radial)"/>
<path d="M372.002 145.276H344.117L343.092 156.888H371.997C374.458 156.888 376.455 154.89 376.455 152.428V149.737C376.46 147.275 374.462 145.276 372.002 145.276Z" fill="#512BD4"/>
<path d="M344.009 155.053C346.44 155.053 348.411 153.082 348.411 150.649C348.411 148.217 346.44 146.245 344.009 146.245C341.578 146.245 339.607 148.217 339.607 150.649C339.607 153.082 341.578 155.053 344.009 155.053Z" fill="#E8D441"/>
<path d="M358.192 155.053C360.623 155.053 362.594 153.082 362.594 150.649C362.594 148.217 360.623 146.245 358.192 146.245C355.761 146.245 353.79 148.217 353.79 150.649C353.79 153.082 355.761 155.053 358.192 155.053Z" fill="#E8D441"/>
<path d="M348.209 264.325H408.943C416.03 264.325 421.587 258.249 420.965 251.186L415.047 183.974C414.869 181.98 413.204 180.45 411.202 180.45H345.744C343.859 180.45 342.282 181.892 342.119 183.773L336.182 251.186C335.56 258.249 341.122 264.325 348.209 264.325Z" fill="url(#paint12_radial)"/>
<path d="M338.722 222.392H418.429L417.55 212.39H339.602L338.722 222.392Z" fill="#D0C5F3"/>
<path d="M359.483 226.043H346.726C345.917 226.043 345.262 225.388 345.262 224.578V211.814C345.262 211.004 345.917 210.349 346.726 210.349H359.483C360.292 210.349 360.947 211.004 360.947 211.814V224.578C360.947 225.388 360.292 226.043 359.483 226.043Z" fill="#512BD4"/>
<path d="M415.73 191.744L415.047 183.974C414.869 181.98 413.204 180.45 411.202 180.45H345.744C343.858 180.45 342.282 181.892 342.118 183.773L341.417 191.739H415.73V191.744Z" fill="#F7B548"/>
<path d="M350.665 188.201C351.825 188.201 352.765 187.26 352.765 186.099C352.765 184.939 351.825 183.998 350.665 183.998C349.505 183.998 348.564 184.939 348.564 186.099C348.564 187.26 349.505 188.201 350.665 188.201Z" fill="white"/>
<path d="M358.402 188.201C359.562 188.201 360.503 187.26 360.503 186.099C360.503 184.939 359.562 183.998 358.402 183.998C357.242 183.998 356.302 184.939 356.302 186.099C356.302 187.26 357.242 188.201 358.402 188.201Z" fill="white"/>
<path d="M366.144 188.201C367.304 188.201 368.245 187.26 368.245 186.099C368.245 184.939 367.304 183.998 366.144 183.998C364.984 183.998 364.044 184.939 364.044 186.099C364.044 187.26 364.984 188.201 366.144 188.201Z" fill="white"/>
<path d="M99.2885 206.839C99.1529 206.839 99.0406 206.797 98.9424 206.708C98.8488 206.619 98.7974 206.511 98.7974 206.38C98.7974 206.254 98.8395 206.141 98.933 206.048C99.0266 205.954 99.1389 205.907 99.2745 205.903C99.4102 205.903 99.5271 205.945 99.6207 206.034C99.7189 206.123 99.7704 206.235 99.7704 206.361C99.7704 206.488 99.7236 206.595 99.63 206.689C99.5411 206.792 99.4242 206.839 99.2885 206.839Z" fill="white"/>
<path d="M104.658 206.68L103.783 206.694L101.426 203.094C101.365 203.005 101.318 202.907 101.276 202.809H101.257C101.276 202.916 101.29 203.141 101.295 203.487L101.346 206.726L100.574 206.74L100.5 201.798L101.43 201.784L103.709 205.299C103.807 205.444 103.868 205.547 103.896 205.598H103.91C103.886 205.467 103.872 205.247 103.868 204.934L103.821 201.746L104.588 201.732L104.658 206.68Z" fill="white"/>
<path d="M108.425 206.623L105.721 206.666L105.646 201.723L108.242 201.681L108.252 202.378L106.455 202.406L106.479 203.806L108.135 203.782L108.144 204.475L106.488 204.498L106.511 205.959L108.415 205.931L108.425 206.623Z" fill="white"/>
<path d="M112.204 202.317L110.819 202.341L110.885 206.586L110.085 206.6L110.019 202.355L108.639 202.378L108.63 201.681L112.194 201.625L112.204 202.317Z" fill="white"/>
<defs>
<radialGradient id="paint0_radial" cx="0" cy="0" r="1" gradientUnits="userSpaceOnUse" gradientTransform="translate(473.021 137.891) scale(29.7328 29.7493)">
<stop offset="0.3472" stop-color="#A08BE8"/>
<stop offset="0.684" stop-color="#8065E0"/>
<stop offset="0.8157" stop-color="#8065E0"/>
</radialGradient>
<radialGradient id="paint1_radial" cx="0" cy="0" r="1" gradientUnits="userSpaceOnUse" gradientTransform="translate(553.788 171.211) scale(72.1604 72.2004)">
<stop offset="0.1096" stop-color="#BF8F68"/>
<stop offset="0.761" stop-color="#F7B548"/>
</radialGradient>
<radialGradient id="paint2_radial" cx="0" cy="0" r="1" gradientUnits="userSpaceOnUse" gradientTransform="translate(546.546 230.799) scale(61.4136 61.4476)">
<stop offset="0.1096" stop-color="#BF8F68"/>
<stop offset="0.761" stop-color="#F7B548"/>
</radialGradient>
<linearGradient id="paint3_linear" x1="91.4548" y1="219.894" x2="91.4548" y2="249.002" gradientUnits="userSpaceOnUse">
<stop offset="0.2368" stop-color="#958FE7"/>
<stop offset="0.4881" stop-color="#BBB7EF"/>
</linearGradient>
<radialGradient id="paint4_radial" cx="0" cy="0" r="1" gradientUnits="userSpaceOnUse" gradientTransform="translate(93.238 252.276) scale(11.8991 11.9057)">
<stop stop-color="#8065E0"/>
<stop offset="1" stop-color="#512BD4"/>
</radialGradient>
<linearGradient id="paint5_linear" x1="66.6249" y1="219.894" x2="66.6249" y2="249.002" gradientUnits="userSpaceOnUse">
<stop offset="0.2368" stop-color="#958FE7"/>
<stop offset="0.4881" stop-color="#BBB7EF"/>
</linearGradient>
<radialGradient id="paint6_radial" cx="0" cy="0" r="1" gradientUnits="userSpaceOnUse" gradientTransform="translate(68.6544 253.451) scale(11.2043 11.2106)">
<stop stop-color="#8065E0"/>
<stop offset="1" stop-color="#512BD4"/>
</radialGradient>
<radialGradient id="paint7_radial" cx="0" cy="0" r="1" gradientUnits="userSpaceOnUse" gradientTransform="translate(96.778 151.371) scale(94.7055 94.758)">
<stop offset="0.3472" stop-color="#A08BE8"/>
<stop offset="0.684" stop-color="#8065E0"/>
<stop offset="0.8157" stop-color="#8065E0"/>
</radialGradient>
<linearGradient id="paint8_linear" x1="30.6434" y1="204.197" x2="126.219" y2="204.197" gradientUnits="userSpaceOnUse">
<stop offset="0.2368" stop-color="#958FE7"/>
<stop offset="0.8039" stop-color="#BDB9F0"/>
</linearGradient>
<radialGradient id="paint9_radial" cx="0" cy="0" r="1" gradientUnits="userSpaceOnUse" gradientTransform="translate(48.2601 174.903) scale(12.3533 12.3601)">
<stop stop-color="#8065E0"/>
<stop offset="1" stop-color="#512BD4"/>
</radialGradient>
<radialGradient id="paint10_radial" cx="0" cy="0" r="1" gradientUnits="userSpaceOnUse" gradientTransform="translate(111.559 139.615) scale(16.16 16.169)">
<stop stop-color="#BDB9F0"/>
<stop offset="0.2325" stop-color="#CEC3E2" stop-opacity="0.7675"/>
<stop offset="0.7251" stop-color="#EDD6C9" stop-opacity="0.2749"/>
<stop offset="1" stop-color="#F9DDBF" stop-opacity="0"/>
</radialGradient>
<radialGradient id="paint11_radial" cx="0" cy="0" r="1" gradientUnits="userSpaceOnUse" gradientTransform="translate(424.589 166.352) scale(58.818 58.8506)">
<stop offset="0.2858" stop-color="#8065E0"/>
<stop offset="0.6908" stop-color="#A08BE8"/>
</radialGradient>
<radialGradient id="paint12_radial" cx="0" cy="0" r="1" gradientUnits="userSpaceOnUse" gradientTransform="translate(423.883 227.797) scale(86.4065 86.4544)">
<stop offset="0.2858" stop-color="#8065E0"/>
<stop offset="0.6908" stop-color="#A08BE8"/>
</radialGradient>
</defs>
</svg>
