<svg width="1344" height="777" viewBox="0 0 1344 777" fill="none" xmlns="http://www.w3.org/2000/svg">
<path d="M1096.9 91.6925C940.4 121.397 818.836 125.651 588.695 39.034C510.31 9.5245 389.821 -3.40829 307.734 0.764361C146.36 8.9714 72.0926 79.9147 103.726 167.288C122.659 219.581 83.7681 265.472 56.3246 288.116C-4.68087 338.448 -22.0029 402.25 33.7873 459.651C84.8177 512.146 148.223 543.185 69.2043 556.801C-9.81483 570.417 35.6016 621.27 91.9125 648.502C196.569 699.127 470.418 739.064 613.234 744.75C912.452 762.652 1369.42 755.446 1224.47 513.22C1458.81 295.307 1312.14 50.8281 1096.9 91.6925Z" fill="url(#paint0_linear)"/>
<path d="M1224.48 513.22C1227.09 510.796 1229.63 508.381 1232.14 505.965L1170.87 494.146L975.174 555.435L584.179 502.321L401.627 536.369L141.82 457.373L65.6896 488.168C105.809 522.794 132.252 545.926 69.2044 556.793C19.6954 565.325 19.0364 588.474 39.2956 611.273H1251.08C1255.26 583.911 1247.39 551.498 1224.48 513.22Z" fill="#A7CBF6"/>
<path d="M907.057 604.466C907.057 604.466 792.621 549.985 705.433 569.059C618.27 588.116 550.129 607.19 498.358 592.216C479.303 586.701 340.816 522.265 105.403 541.599C101.619 548.049 90.5376 553.133 69.2207 556.801C-9.79838 570.417 35.6181 621.27 91.9289 648.502C196.585 699.127 470.435 739.064 613.25 744.75C890.655 761.351 1303.66 756.365 1246.88 562.519C1225.45 559.437 1199.88 557.859 1168.63 556.801C1067.81 553.393 907.057 604.466 907.057 604.466Z" fill="url(#paint1_linear)"/>
<path d="M246.802 656.107H239V708.774H246.802V656.107Z" fill="#9B643D"/>
<path d="M222.971 512.732C230.823 537.849 261.895 557.631 278.794 564.081C279.843 556.834 280.193 549.521 278.981 543.6C275.116 524.705 261.374 530.716 261.374 530.716C261.374 530.716 270.82 511.821 266.524 496.367C264.084 487.59 253.214 489.925 253.214 489.925C253.214 489.925 249.349 466.735 236.461 467.597C223.573 468.46 225.721 513.968 225.721 513.968C225.721 513.968 224.615 513.326 222.971 512.732Z" fill="url(#paint2_radial)"/>
<path d="M243.767 521.85C238.617 524.616 237.372 528.43 237.372 528.43C237.372 528.43 235.753 520.703 225.713 513.977C225.713 513.977 209.823 504.533 208.961 525.144C208.098 545.755 214.542 560.779 214.542 560.779C214.542 560.779 196.935 550.473 196.073 568.937C195.21 587.401 209.815 605.865 209.815 605.865C209.815 605.865 203.444 607.768 200.824 613.828C204.925 614.665 209.595 615.056 214.843 615.161C242.043 615.731 258.364 563.634 258.649 552.189C258.942 540.745 255.386 515.62 243.767 521.85Z" fill="url(#paint3_radial)"/>
<path d="M270.812 595.567C270.812 595.567 278.208 575.24 279.534 557.354C276.158 542.136 258.6 539.248 246.868 554.369C235.957 568.441 237.942 571.279 231.401 589.247C231.401 589.247 217.016 573.427 209.823 605.864C209.823 605.864 194.397 610.476 201.663 628.192C212.402 654.383 243.751 662.11 243.751 662.11C243.751 662.11 281.975 644.508 283.692 611.444C284.815 589.995 270.812 595.567 270.812 595.567Z" fill="url(#paint4_radial)"/>
<path d="M261.44 593.843C261.44 593.843 256.517 589.369 256.802 584.887C257.095 580.414 262.595 575.379 262.595 575.379C262.595 575.379 266.94 580.69 266.94 585.733C266.948 590.768 261.44 593.843 261.44 593.843Z" fill="#56A84F"/>
<path d="M224.924 549.969C224.924 549.969 218.805 547.553 217.528 543.559C216.251 539.566 219.619 533.506 219.619 533.506C219.619 533.506 225.493 536.825 227.234 541.225C228.967 545.617 224.924 549.969 224.924 549.969Z" fill="#56A84F"/>
<path d="M243.003 516.368C243.003 516.368 238.772 512.821 238.723 509.015C238.674 505.208 242.759 500.669 242.759 500.669C242.759 500.669 246.575 504.956 246.9 509.218C247.217 513.488 243.003 516.368 243.003 516.368Z" fill="#56A84F"/>
<path d="M231.303 615.43C231.303 615.43 227.072 611.883 227.023 608.077C226.974 604.27 231.058 599.731 231.058 599.731C231.058 599.731 234.874 604.018 235.2 608.28C235.517 612.55 231.303 615.43 231.303 615.43Z" fill="#56A84F"/>
<path d="M247.396 642.987C247.396 642.987 245.289 637.887 247.005 634.487C248.722 631.088 254.45 628.965 254.45 628.965C254.45 628.965 255.85 634.528 254.157 638.457C252.465 642.385 247.396 642.987 247.396 642.987Z" fill="#56A84F"/>
<path d="M220.645 627.191C220.645 627.191 215.153 626.646 212.964 623.539C210.775 620.424 211.589 614.372 211.589 614.372C211.589 614.372 217.162 615.755 219.831 619.098C222.5 622.441 220.645 627.191 220.645 627.191Z" fill="#56A84F"/>
<path d="M247.966 558.965C247.966 558.965 245.761 553.905 247.404 550.473C249.048 547.041 254.735 544.804 254.735 544.804C254.735 544.804 256.24 550.343 254.629 554.304C253.018 558.265 247.966 558.965 247.966 558.965Z" fill="#56A84F"/>
<path d="M169.118 676.409L140.966 550.449L122.66 661.386C136.654 666.543 152.259 671.561 169.118 676.409Z" fill="url(#paint5_linear)"/>
<path d="M328.002 663.021L323.332 677.328L392.905 677.141L389.121 663.021H405.687L379.659 599.374H393.857L372.955 555.109H386.363L358.757 499.425V498.628L358.562 499.026L358.366 498.628V499.425L330.76 555.109H344.169L323.267 599.374H337.464L311.437 663.021H328.002Z" fill="url(#paint6_linear)"/>
<path d="M368.024 664.574L371.156 624.792L356.275 631.697L360.002 614.169L345.649 619.48L360.531 572.198L348.31 576.981L358.936 537.67L344.592 541.924L357.602 500.962L330.76 555.109H344.169L323.267 599.374H337.464L311.437 663.021H328.002L325.512 672.253L368.024 664.574Z" fill="url(#paint7_linear)"/>
<path d="M304.83 666.852L299.436 689.065L339.075 688.358L335.731 677.897H344.868L330.508 628.232H338.343L326.806 593.696H334.21L318.979 550.245V549.627L318.873 549.936L318.759 549.627V550.245L303.528 593.696H310.932L299.395 628.232H307.23L295.693 666.852H304.83Z" fill="#217346"/>
<path d="M1205.26 666.445L1173.17 522.834L1148.72 671.024L1205.26 666.445Z" fill="url(#paint8_linear)"/>
<path d="M748.336 643.516C487.399 629.144 233.565 674.726 141.17 723.821C135.442 726.863 137.012 735.461 143.448 736.25C256.151 750.086 463.364 767.988 564.14 771.99C747.01 782.93 1007.15 774.316 1148.71 710.669C1046.88 677.182 905.487 652.17 748.336 643.516Z" fill="#BF8F68"/>
<path d="M1010.88 751.086C1062.96 741.203 1110.23 727.978 1148.72 710.669C1046.88 677.182 905.487 652.17 748.336 643.516C527.51 631.348 311.778 662.126 194.665 701.632C552.846 618.089 808.967 658.946 1010.88 751.086Z" fill="url(#paint9_radial)"/>
<path d="M1246.52 618.309C1235.48 605.742 1212.26 603.815 1194.06 622.628C1182.17 634.91 1161.81 636.244 1154.55 624.442C1140.1 600.96 1117.31 606.279 1107.77 628.981C1101.99 642.751 1093.66 658.075 1079.16 647.144C1055.1 628.981 1032.84 641.694 1041.92 663.029C1055.14 694.076 1056 709.79 1037.38 706.154C1011.45 701.095 995.165 708.139 1013.32 729.759C1018.86 736.364 1025.23 742.074 1031.62 746.913C1142.99 723.211 1228.52 682.859 1246.52 618.309Z" fill="url(#paint10_radial)"/>
<path d="M603.259 746.108L543.311 748.833L525.598 739.3L548.762 717.509L582.82 725.684L603.259 746.108Z" fill="#9B643D"/>
<path d="M612.794 724.317C612.794 724.317 623.697 709.335 627.781 706.61C631.865 703.885 644.127 703.885 644.127 703.885V728.401L612.794 724.317Z" fill="#9B643D"/>
<path d="M279.021 731.134L289.916 699.802L321.249 688.911L352.581 699.802L334.877 717.509L279.021 731.134Z" fill="#9B643D"/>
<path d="M390.732 732.492L413.888 727.042L405.719 714.785L388.006 724.317L390.732 732.492Z" fill="#9B643D"/>
<path d="M849.217 698.232L825.028 694.084L814.784 694.255L820.724 688.081L841.536 681.777L850.917 687.927L849.217 698.232Z" fill="#9B643D"/>
<path d="M677.258 577.616C670.098 611.558 634.437 640.693 632.183 642.019C629.929 643.345 696.736 644.028 696.736 644.028C696.736 644.028 716.377 597.104 707.891 576.42C707.102 574.5 677.258 577.616 677.258 577.616Z" fill="#A08BE8"/>
<path d="M693.945 639.441L635.34 639.726C635.34 639.726 621.72 648.876 618.099 655.473C615.333 660.516 615.52 671.838 615.764 676.889C615.829 678.296 616.993 679.394 618.4 679.394L674.931 679.289C676.745 679.28 678.21 677.808 678.193 675.994C678.136 669.739 679.21 656.408 681.562 652.601C685.085 646.916 693.945 639.441 693.945 639.441Z" fill="#D0C5F3"/>
<path d="M711.723 571.792C722.528 609.525 718.11 669.349 717.663 672.513C717.036 676.897 716.442 679.972 710.202 679.972C702.44 679.972 669.105 679.972 669.105 679.972L686.607 574.224L711.723 571.792Z" fill="#8065E0"/>
<path d="M677.258 577.616C674.646 596.128 656.169 622.156 621.167 649.389C617.074 652.569 614.967 655.928 614.967 660.67V675.832C614.967 678.077 616.781 679.89 619.027 679.89H675.216C676.802 679.89 678.088 678.605 678.088 677.019V659.523C678.088 654.074 679.186 651.276 684.784 647.257C698.786 637.212 707.63 603.343 707.915 579.242C708.2 555.15 677.258 577.616 677.258 577.616Z" fill="#A08BE8"/>
<path d="M615.496 656.937C615.154 658.092 614.967 659.32 614.967 660.662V675.823C614.967 678.068 616.781 679.882 619.027 679.882H675.216C676.802 679.882 678.088 678.597 678.088 677.011V659.515C678.088 658.58 678.12 657.734 678.202 656.937H615.496Z" fill="#D0C5F3"/>
<path d="M681.896 547.073H711.983C711.983 502.508 736.905 465.963 751.086 451.517C753.112 449.451 727.825 431.866 721.682 439.349C703.245 461.806 681.896 500.775 681.896 547.073Z" fill="url(#paint11_linear)"/>
<path d="M675.224 534.01H716.043C719.176 534.01 721.714 536.548 721.714 539.68V575.745C721.714 578.877 719.176 581.414 716.043 581.414H675.224C672.091 581.414 669.553 578.877 669.553 575.745V539.68C669.553 536.548 672.091 534.01 675.224 534.01Z" fill="url(#paint12_radial)"/>
<path d="M688.803 500.939L687.913 504.296L716.603 511.895L717.492 508.538L688.803 500.939Z" fill="#A08BE8"/>
<path d="M701.094 470.496L699.781 473.712L727.259 484.925L728.572 481.709L701.094 470.496Z" fill="#A08BE8"/>
<path d="M849.193 553.198L868.728 530.326C834.824 501.394 823.205 458.715 821.415 438.56C821.163 435.68 791.36 443.481 793.069 453.014C798.186 481.596 813.971 523.135 849.193 553.198Z" fill="url(#paint13_linear)"/>
<path d="M843.003 501.087L818.594 517.968L820.57 520.824L844.98 503.943L843.003 501.087Z" fill="#A08BE8"/>
<path d="M829.771 475.208L803.399 488.822L804.993 491.908L831.365 478.294L829.771 475.208Z" fill="#A08BE8"/>
<path d="M777.634 199.295H907.741C925.421 199.295 939.757 184.963 939.757 167.288C939.757 149.614 925.421 135.282 907.741 135.282H777.634C759.954 135.282 745.618 149.614 745.618 167.288C745.618 184.963 759.954 199.295 777.634 199.295Z" fill="url(#paint14_linear)"/>
<path d="M824.589 437.828H931.889C946.673 437.828 958.649 425.846 958.649 411.075V220.402C958.649 205.623 946.665 193.65 931.889 193.65H824.589C809.805 193.65 797.829 205.631 797.829 220.402V411.075C797.829 425.855 809.813 437.828 824.589 437.828Z" fill="#2B0B98"/>
<path d="M930.921 437.828H931.889C946.673 437.828 958.649 425.846 958.649 411.075V220.402C958.649 205.623 946.665 193.65 931.889 193.65H930.921C916.138 193.65 904.161 205.631 904.161 220.402V411.075C904.161 425.855 916.138 437.828 930.921 437.828Z" fill="#512BD4"/>
<path d="M529.032 343.272L536.525 316.682C538.576 309.614 545.963 305.539 553.042 307.581C560.112 309.63 564.188 317.016 562.146 324.092L554.457 351.357L529.032 343.272Z" fill="#C7BEED"/>
<path d="M667.348 383.526L619.018 416.736L602.86 392.636L651.189 359.426L667.348 383.526Z" fill="url(#paint15_linear)"/>
<path d="M626.804 376.254L623.986 378.142L640.142 402.243L642.961 400.355L626.804 376.254Z" fill="#A08BE8"/>
<path d="M605.95 393.852L550.826 353.012L533.546 376.321L588.67 417.161L605.95 393.852Z" fill="#D0C5F3"/>
<path d="M576.635 372.156L559.355 395.466L562.081 397.485L579.36 374.176L576.635 372.156Z" fill="#A08BE8"/>
<path d="M528.283 380.565C543.696 380.565 556.191 368.075 556.191 352.666C556.191 337.258 543.696 324.767 528.283 324.767C512.87 324.767 500.376 337.258 500.376 352.666C500.376 368.075 512.87 380.565 528.283 380.565Z" fill="url(#paint16_radial)"/>
<path d="M605.447 390.904L619.018 416.745C619.018 416.745 604.292 428.116 588.687 417.176C597.303 400.445 602.16 391.034 602.16 391.034L605.447 390.904Z" fill="#A08BE8"/>
<path d="M645.388 352.821C635.6 315.267 641.914 285.286 641.914 285.286H633.078L632.858 285.115C645.518 216.197 705.906 163.978 778.505 163.978C860.299 163.978 926.601 230.26 926.601 312.03C926.601 393.799 860.299 460.082 778.505 460.082C713.969 460.082 659.081 418.803 638.79 361.223C638.212 358.767 638.261 354.383 645.388 352.821Z" fill="url(#paint17_radial)"/>
<path d="M639.334 362.923C639.334 362.923 635.234 355.033 645.331 352.821C635.665 315.723 641.702 286.034 641.849 285.318H795.493C795.493 285.318 805.175 284.334 805.175 293.176C805.175 302.017 804.809 326.988 804.809 354.61C804.809 360.288 800.155 363.029 796.494 363.029H638.724C639.115 362.964 639.334 362.923 639.334 362.923Z" fill="url(#paint18_radial)"/>
<path d="M719.094 352.707C719.094 352.707 704.327 341.019 701.447 338.863C698.567 336.708 696.044 336.586 693.4 338.863C690.756 341.141 675.972 352.707 675.972 352.707H719.094Z" fill="#A08BE8"/>
<path d="M639.334 362.923C639.334 362.923 635.234 355.033 645.331 352.821C645.323 352.78 645.315 352.74 645.298 352.707H796.388C799.903 352.707 804.427 350.608 804.817 347.208C804.809 349.649 804.809 352.121 804.809 354.618C804.809 359.775 800.977 362.492 797.535 362.956C797.194 362.996 796.844 363.037 796.494 363.037H786.169H638.724C639.115 362.964 639.334 362.923 639.334 362.923Z" fill="url(#paint19_radial)"/>
<path d="M650.701 386.999H906.073C900.337 396.735 893.527 405.748 885.798 413.89H670.977C663.247 405.748 656.429 396.735 650.701 386.999Z" fill="url(#paint20_linear)"/>
<path d="M810.831 161.782L782.777 156.121L792.54 128.132L812.686 132.191L810.831 161.782Z" fill="#D0C5F3"/>
<path d="M806.966 136.502C821.974 136.502 834.141 124.339 834.141 109.335C834.141 94.3308 821.974 82.1677 806.966 82.1677C791.957 82.1677 779.791 94.3308 779.791 109.335C779.791 124.339 791.957 136.502 806.966 136.502Z" fill="url(#paint21_radial)"/>
<path d="M818.006 181.547C819.267 181.799 820.504 180.912 820.618 179.627C821.822 166.011 812.62 153.388 798.911 150.622C785.201 147.857 771.825 155.933 767.651 168.948C767.261 170.176 768.05 171.477 769.311 171.729L818.006 181.547Z" fill="url(#paint22_radial)"/>
<path d="M771.081 319.261C771.241 308.508 766.184 299.714 759.786 299.618C753.388 299.523 748.071 308.163 747.911 318.916C747.751 329.67 752.807 338.464 759.205 338.559C765.604 338.655 770.92 330.015 771.081 319.261Z" fill="#512BD4"/>
<path d="M666.508 338.513C672.906 338.417 677.963 329.623 677.803 318.87C677.642 308.116 672.326 299.476 665.928 299.572C659.529 299.667 654.473 308.462 654.633 319.215C654.793 329.968 660.11 338.608 666.508 338.513Z" fill="#512BD4"/>
<path d="M759.597 309.354C757.229 306.987 754.04 305.946 750.956 306.23C749.141 309.622 747.994 314.055 747.921 318.935C747.872 321.978 748.263 324.849 748.963 327.427C752.624 328.468 756.716 327.557 759.597 324.678C763.827 320.44 763.827 313.583 759.597 309.354Z" fill="#8065E0"/>
<path d="M666.363 308.719C663.996 306.352 660.798 305.311 657.706 305.596C655.737 309.134 654.55 313.925 654.631 319.196C654.672 321.888 655.038 324.45 655.656 326.768C659.334 327.842 663.459 326.931 666.363 324.035C670.594 319.806 670.594 312.949 666.363 308.719Z" fill="#8065E0"/>
<path d="M740.94 379.313H693.147V421.576H740.94V379.313Z" fill="#512BD4"/>
<path d="M700.503 406.464C700.145 406.464 699.835 406.342 699.583 406.106C699.331 405.862 699.201 405.569 699.201 405.227C699.201 404.886 699.331 404.585 699.583 404.341C699.835 404.097 700.145 403.967 700.503 403.967C700.869 403.967 701.178 404.089 701.43 404.341C701.69 404.585 701.821 404.886 701.821 405.227C701.821 405.569 701.69 405.862 701.43 406.106C701.178 406.342 700.869 406.464 700.503 406.464Z" fill="white"/>
<path d="M714.936 406.26H712.585L706.401 396.508C706.247 396.264 706.116 396.003 706.011 395.743H705.954C706.002 396.028 706.027 396.638 706.027 397.565V406.268H703.952V392.994H706.45L712.43 402.519C712.682 402.917 712.845 403.186 712.918 403.332H712.951C712.894 402.982 712.861 402.388 712.861 401.543V392.994H714.928V406.26H714.936Z" fill="white"/>
<path d="M725.049 406.26H717.784V392.986H724.765V394.857H719.932V398.614H724.382V400.477H719.932V404.398H725.049V406.26Z" fill="white"/>
<path d="M735.382 394.857H731.664V406.26H729.516V394.857H725.806V392.986H735.391V394.857H735.382Z" fill="white"/>
<path d="M975.914 340.872C973.514 339.213 974.165 336.187 975.808 334.796C977.452 333.406 977.915 329.566 978.021 322.897C978.127 316.219 976.239 307.491 972.041 304.189C967.843 300.887 965.296 295.787 965.321 294.168C965.345 292.549 965.426 287.287 965.426 287.287L960.032 287.197L957.534 287.157L952.14 287.067C952.14 287.067 952.059 292.33 952.034 293.948C952.01 295.567 949.3 300.586 944.996 303.75C940.692 306.922 938.536 315.584 938.43 322.262C938.325 328.94 938.666 332.787 940.261 334.227C941.856 335.667 942.417 338.717 939.96 340.295C937.503 341.873 937.804 348.356 937.771 350.576C937.739 352.805 937.202 386.381 937.145 390.229C937.08 394.076 939.407 400.583 941.994 403.259C944.581 405.927 950.269 404.601 950.269 404.601C950.269 404.601 952.335 405 954.459 405.325C954.906 405.553 955.313 405.691 955.647 405.691C955.988 405.699 956.42 405.675 956.9 405.642C957.371 405.691 957.803 405.723 958.153 405.732C958.486 405.74 958.901 405.61 959.349 405.398C961.48 405.138 963.555 404.804 963.555 404.804C963.555 404.804 969.202 406.309 971.87 403.723C974.547 401.136 977.077 394.702 977.134 390.855C977.199 387.008 977.728 353.431 977.761 351.202C977.81 348.998 978.314 342.524 975.914 340.872Z" fill="#72ACF1"/>
<path d="M937.78 350.584C937.747 352.618 937.3 380.85 937.178 388.618L977.176 389.253C977.298 381.485 977.745 353.252 977.778 351.219C977.794 350.023 977.94 347.599 977.704 345.346L938.048 344.72C937.731 346.957 937.796 349.389 937.78 350.584Z" fill="#2B0B98"/>
<path d="M967.061 290.695L967.2 282.081C967.216 280.934 966.305 279.991 965.158 279.975L952.253 279.771C951.106 279.755 950.162 280.666 950.146 281.813L950.008 290.426L967.061 290.695Z" fill="#F9F8F7"/>
<path d="M719.42 187.493C727.93 183.784 739.85 186.736 741.184 189.217C742.519 191.698 742.494 197.424 739.166 194.471C734.683 190.494 725.473 190.754 721.397 193.056C717.321 195.358 719.42 187.493 719.42 187.493Z" fill="#F7B548"/>
<path d="M810.773 193.39C810.773 193.39 849.485 195.358 857.215 196.009C868.532 196.969 869.354 213.163 869.671 217.222C869.98 221.273 867.133 220.972 864.301 216.799C861.47 212.626 865.579 200.702 857.833 200.67C850.087 200.637 807.25 202.459 807.25 202.459L810.773 193.39Z" fill="#F7B548"/>
<path d="M803.686 192.292L808.316 192.414C809.919 192.454 811.212 193.756 811.245 195.358L811.359 200.588C811.391 202.02 810.407 203.28 808.999 203.59L804.394 204.614C802.539 205.029 800.766 203.638 800.725 201.743L800.586 195.366C800.554 193.65 801.962 192.251 803.686 192.292Z" fill="#F7B548"/>
<path d="M658.251 181.571L654.191 181.051C652.784 180.872 651.474 181.994 651.222 183.613L650.392 188.875C650.164 190.323 650.847 191.722 652.027 192.235L655.908 193.91C657.47 194.585 659.211 193.43 659.512 191.519L660.521 185.101C660.798 183.377 659.765 181.766 658.251 181.571Z" fill="#F7B548"/>
<path d="M770.833 180.701C741.445 179.53 734.35 189.396 736.018 207.6C737.49 223.648 753.852 238.655 768.888 238.825C784.949 239.004 800.644 226.096 803.662 207.901C806.681 189.705 800.554 181.897 770.833 180.701Z" fill="#F7B548"/>
<path d="M770.621 185.272C745.862 184.28 739.882 192.601 741.29 207.933C742.535 221.451 756.318 234.091 768.977 234.238C782.508 234.392 795.729 223.517 798.276 208.185C800.823 192.853 795.664 186.272 770.621 185.272Z" fill="#C7E0F4"/>
<path d="M688.876 174.658C659.488 173.486 652.393 183.353 654.061 201.556C655.534 217.604 671.896 232.611 686.931 232.782C702.992 232.961 718.687 220.052 721.706 201.857C724.716 183.67 718.598 175.845 688.876 174.658Z" fill="#F7B548"/>
<path d="M688.656 179.229C663.898 178.236 657.917 186.557 659.325 201.89C660.57 215.408 674.353 228.048 687.013 228.194C700.543 228.349 713.765 217.474 716.311 202.142C718.858 186.81 713.7 180.229 688.656 179.229Z" fill="white"/>
<path d="M531.66 369.626C533.686 369.121 535.72 370.431 536.102 372.481L589.281 657.116C589.639 659.084 588.337 660.971 586.368 661.337C585.147 661.565 583.951 661.142 583.138 660.321C582.641 659.816 582.283 659.166 582.145 658.417L528.975 373.806C528.625 371.919 528.796 370.52 530.659 370.057L531.66 369.626Z" fill="white"/>
<path d="M541.749 396.955L532.685 398.631C528.714 399.363 524.898 396.744 524.166 392.774L506.999 300.008C506.266 296.039 508.886 292.224 512.857 291.492L521.921 289.816C525.891 289.084 529.707 291.703 530.439 295.673L547.607 388.439C548.339 392.408 545.719 396.223 541.749 396.955Z" fill="#2B0B98"/>
<path d="M510.107 379.834L529.178 381.289C534.426 381.688 539.015 377.759 539.413 372.513L539.983 365.095C540.382 359.849 536.452 355.261 531.204 354.863L512.133 353.407C506.885 353.008 502.296 356.937 501.897 362.183L501.328 369.601C500.929 374.856 504.859 379.435 510.107 379.834Z" fill="#C7BEED"/>
<path d="M501.816 361.117L520.888 362.573C526.135 362.972 530.724 359.043 531.123 353.797L531.692 346.379C532.091 341.133 528.161 336.545 522.913 336.147L503.842 334.691C498.594 334.292 494.005 338.221 493.607 343.467L493.037 350.885C492.63 356.14 496.568 360.719 501.816 361.117Z" fill="#C7BEED"/>
<path d="M494.664 343.784L513.736 345.24C518.983 345.639 523.572 341.71 523.971 336.464L524.541 329.046C524.939 323.799 521.009 319.212 515.762 318.813L496.69 317.357C491.442 316.959 486.854 320.887 486.455 326.134L485.885 333.552C485.479 338.806 489.416 343.386 494.664 343.784Z" fill="#C7BEED"/>
<path d="M583.789 680.354L596.538 677.93C598.377 677.58 599.402 675.588 598.613 673.888L588.442 651.894C587.889 650.69 586.587 650.023 585.286 650.275L584.081 650.503C582.78 650.747 581.82 651.853 581.738 653.171L580.363 677.361C580.257 679.232 581.942 680.704 583.789 680.354Z" fill="#512BD4"/>
<path d="M867.597 574.452C888.995 600.805 884.764 642.41 884.089 644.704C883.414 647.006 935.127 604.498 935.127 604.498C935.127 604.498 912.997 561.796 890.118 553.995C887.994 553.271 867.597 574.452 867.597 574.452Z" fill="#A08BE8"/>
<path d="M929.351 603.351L884.691 641.206C884.691 641.206 881.502 655.823 883.959 662.378C885.838 667.389 894.951 674.522 899.133 677.605C900.296 678.467 902.062 678.427 903.136 677.516L946.347 641.117C947.731 639.945 947.682 638.058 946.233 636.903C941.238 632.934 931.499 623.702 930.286 619.741C928.488 613.844 929.351 603.351 929.351 603.351Z" fill="#D0C5F3"/>
<path d="M889.386 548.57C927.553 565.814 971.553 606.995 973.709 609.313C976.704 612.526 978.681 614.877 973.905 618.887C967.957 623.873 942.434 645.297 942.434 645.297L872.088 566.269L889.386 548.57Z" fill="#8065E0"/>
<path d="M867.597 574.452C880.265 587.995 886.725 616.552 881.485 656.506C880.875 661.175 881.925 664.68 885.675 667.722L897.685 677.442C899.458 678.882 902.29 678.874 904.006 677.434L947.047 641.32C948.259 640.303 948.227 638.652 946.974 637.635L933.118 626.419C928.797 622.929 927.422 620.424 928.529 614.259C931.303 598.821 911.239 571.426 892.38 555.801C873.52 540.176 867.597 574.452 867.597 574.452Z" fill="#A08BE8"/>
<path d="M883.121 664.989C883.772 665.949 884.601 666.852 885.667 667.722L897.676 677.442C899.45 678.882 902.281 678.874 903.998 677.434L947.039 641.32C948.251 640.303 948.219 638.652 946.966 637.635L933.11 626.419C932.369 625.817 931.726 625.256 931.157 624.686L883.121 664.989Z" fill="#D0C5F3"/>
<path d="M833.034 546.162L860.632 523.005C864.041 520.142 869.671 520.134 873.194 522.989L897.969 543.039C901.492 545.894 901.59 550.53 898.181 553.393L870.583 576.55C867.174 579.413 861.543 579.421 858.02 576.566L833.245 556.516C829.714 553.661 829.617 549.025 833.034 546.162Z" fill="url(#paint23_radial)"/>
<path d="M914.779 196.293C929.32 196.293 941.108 182.495 941.108 165.474C941.108 148.453 929.32 134.655 914.779 134.655C900.238 134.655 888.45 148.453 888.45 165.474C888.45 182.495 900.238 196.293 914.779 196.293Z" fill="#512BD4"/>
<path d="M660.92 285.017C664.15 272.459 669.349 260.356 676.468 249.204C678.527 245.983 677.583 241.705 674.353 239.647C671.131 237.589 666.851 238.533 664.793 241.762C656.225 255.182 650.156 269.831 646.657 285.017H660.92Z" fill="url(#paint24_linear)"/>
<path d="M743.771 193.227C741.339 196.952 740.737 201.898 741.29 207.933C742.535 221.451 756.318 234.091 768.978 234.238C782.158 234.384 795.03 224.079 798.048 209.381C780.865 205.037 762.713 199.718 743.771 193.227Z" fill="white"/>
<path d="M715.758 204.802C715.978 203.931 716.165 203.053 716.32 202.15C718.858 186.818 713.708 180.237 688.665 179.237C675.687 178.716 667.876 180.758 663.581 185.02C681.521 192.625 698.957 199.173 715.758 204.802Z" fill="#C7E0F4"/>
<path d="M766.162 443.334C766.78 440.447 769.278 438.226 772.37 438.08C823.767 435.721 869.907 403.601 889.906 356.237C891.338 352.845 895.243 351.259 898.636 352.691C902.029 354.122 903.615 358.027 902.184 361.418C880.199 413.483 829.486 448.792 772.98 451.387C769.303 451.558 766.186 448.711 766.024 445.042C765.999 444.457 766.048 443.879 766.162 443.334Z" fill="url(#paint25_radial)"/>
<path d="M902.371 220.809C902.362 225.396 904.177 230.846 908.025 239.378C877.881 250.627 857.027 279.82 857.027 312.802C857.027 345.997 878.32 373.668 907.594 384.974C903.876 391.855 900.548 397.004 896.081 402.266C861.706 387.105 837.647 352.715 837.647 312.802C837.655 271.263 864.171 234.539 902.371 220.809Z" fill="#2B0B98"/>
<path d="M929.594 349.73C919.058 339.66 904.925 330.128 886 322.27L874.724 349.429C904.462 361.768 923.159 380.655 928.789 404.032C934.883 429.344 924.818 455.706 912.134 470.607L934.533 489.656C950.757 470.591 966.476 434.924 957.388 397.15C953.995 383.071 946.339 365.729 929.594 349.73Z" fill="url(#paint26_linear)"/>
<path d="M919.466 341.554L901.121 364.037L903.75 366.181L922.095 343.698L919.466 341.554Z" fill="#A08BE8"/>
<path d="M930.101 426.604L929.729 429.975L958.573 433.164L958.946 429.793L930.101 426.604Z" fill="#A08BE8"/>
<path d="M955.988 392.034L925.119 393.23C924.639 392.156 924.127 391.099 923.59 390.049L946.721 371.065C951.058 378.32 954.003 385.446 955.988 392.034Z" fill="#A08BE8"/>
<path d="M912.142 493.219L886.424 503.321C879.549 505.965 871.835 502.54 869.191 495.675C866.547 488.802 869.972 481.091 876.839 478.448L903.209 468.085L912.142 493.219Z" fill="#C7BEED"/>
<path d="M935.737 479.383L935.705 507.006C935.648 514.367 929.627 520.288 922.264 520.223C914.901 520.166 908.977 514.147 909.043 506.786L909.075 478.456L935.737 479.383Z" fill="#C7BEED"/>
<path d="M916.528 479.383L915.795 506.998C915.551 514.351 909.384 520.118 902.021 519.874C894.658 519.63 888.897 513.464 889.141 506.103L889.898 477.789L916.528 479.383Z" fill="#C7BEED"/>
<path d="M947.633 474.95L947.6 502.573C947.544 509.934 941.523 515.855 934.159 515.79C926.796 515.733 920.873 509.714 920.938 502.353L920.971 474.023L947.633 474.95Z" fill="#C7BEED"/>
<path d="M920.767 507.803C936.179 507.803 948.674 495.312 948.674 479.904C948.674 464.496 936.179 452.005 920.767 452.005C905.354 452.005 892.859 464.496 892.859 479.904C892.859 495.312 905.354 507.803 920.767 507.803Z" fill="url(#paint27_radial)"/>
<path d="M872.869 358.539C887.891 358.539 900.068 346.365 900.068 331.348C900.068 316.33 887.891 304.156 872.869 304.156C857.847 304.156 845.669 316.33 845.669 331.348C845.669 346.365 857.847 358.539 872.869 358.539Z" fill="url(#paint28_radial)"/>
<defs>
<linearGradient id="paint0_linear" x1="672.004" y1="750.802" x2="672.004" y2="-0.000223757" gradientUnits="userSpaceOnUse">
<stop offset="0.1466" stop-color="white"/>
<stop offset="0.3781" stop-color="#C7E0F4"/>
</linearGradient>
<linearGradient id="paint1_linear" x1="639.484" y1="537.99" x2="639.484" y2="750.802" gradientUnits="userSpaceOnUse">
<stop stop-color="#4E9668"/>
<stop offset="0.5244" stop-color="#569C70"/>
<stop offset="0.9597" stop-color="#9FCDB3"/>
</linearGradient>
<radialGradient id="paint2_radial" cx="0" cy="0" r="1" gradientUnits="userSpaceOnUse" gradientTransform="translate(248.939 497.09) scale(85.6679 85.6426)">
<stop offset="0.1922" stop-color="#4E9668"/>
<stop offset="1" stop-color="#217346"/>
</radialGradient>
<radialGradient id="paint3_radial" cx="0" cy="0" r="1" gradientUnits="userSpaceOnUse" gradientTransform="translate(237.38 573.249) scale(76.9798 76.9571)">
<stop offset="0.1922" stop-color="#4E9668"/>
<stop offset="1" stop-color="#217346"/>
</radialGradient>
<radialGradient id="paint4_radial" cx="0" cy="0" r="1" gradientUnits="userSpaceOnUse" gradientTransform="translate(251.472 624.049) scale(90.4064 90.3797)">
<stop offset="0.1922" stop-color="#4E9668"/>
<stop offset="1" stop-color="#217346"/>
</radialGradient>
<linearGradient id="paint5_linear" x1="145.89" y1="676.409" x2="145.89" y2="550.446" gradientUnits="userSpaceOnUse">
<stop offset="0.1922" stop-color="#4E9668"/>
<stop offset="1" stop-color="#217346"/>
</linearGradient>
<linearGradient id="paint6_linear" x1="358.562" y1="498.629" x2="358.562" y2="677.327" gradientUnits="userSpaceOnUse">
<stop offset="0.1922" stop-color="#4E9668"/>
<stop offset="1" stop-color="#217346"/>
</linearGradient>
<linearGradient id="paint7_linear" x1="308.619" y1="493.736" x2="351.214" y2="638.947" gradientUnits="userSpaceOnUse">
<stop offset="0.1922" stop-color="#4E9668"/>
<stop offset="1" stop-color="#217346"/>
</linearGradient>
<linearGradient id="paint8_linear" x1="1176.99" y1="671.027" x2="1176.99" y2="522.837" gradientUnits="userSpaceOnUse">
<stop offset="0.1922" stop-color="#4E9668"/>
<stop offset="1" stop-color="#217346"/>
</linearGradient>
<radialGradient id="paint9_radial" cx="0" cy="0" r="1" gradientUnits="userSpaceOnUse" gradientTransform="translate(634.891 580.215) scale(482.302 482.159)">
<stop offset="0.2724" stop-color="#E0BB95"/>
<stop offset="0.7492" stop-color="#BF8F68"/>
</radialGradient>
<radialGradient id="paint10_radial" cx="0" cy="0" r="1" gradientUnits="userSpaceOnUse" gradientTransform="translate(1095.42 767.436) scale(168.821 168.771)">
<stop offset="0.1922" stop-color="#4E9668"/>
<stop offset="1" stop-color="#217346"/>
</radialGradient>
<linearGradient id="paint11_linear" x1="726.273" y1="437.294" x2="706.167" y2="551.355" gradientUnits="userSpaceOnUse">
<stop offset="0.2368" stop-color="#958FE7"/>
<stop offset="0.3961" stop-color="#BBB7EF"/>
</linearGradient>
<radialGradient id="paint12_radial" cx="0" cy="0" r="1" gradientUnits="userSpaceOnUse" gradientTransform="translate(692.852 535.483) scale(46.0122 45.9986)">
<stop stop-color="#8065E0"/>
<stop offset="1" stop-color="#512BD4"/>
</radialGradient>
<linearGradient id="paint13_linear" x1="821.299" y1="437.394" x2="841.935" y2="554.435" gradientUnits="userSpaceOnUse">
<stop offset="0.2368" stop-color="#958FE7"/>
<stop offset="0.3907" stop-color="#BBB7EF"/>
</linearGradient>
<linearGradient id="paint14_linear" x1="842.687" y1="135.281" x2="842.687" y2="199.292" gradientUnits="userSpaceOnUse">
<stop offset="0.2835" stop-color="#512BD4" stop-opacity="0.9725"/>
<stop offset="0.4387" stop-color="#2B0B98" stop-opacity="0.9725"/>
</linearGradient>
<linearGradient id="paint15_linear" x1="657.479" y1="365.714" x2="612.741" y2="410.465" gradientUnits="userSpaceOnUse">
<stop offset="0.2368" stop-color="#958FE7"/>
<stop offset="0.5386" stop-color="#BBB7EF"/>
</linearGradient>
<radialGradient id="paint16_radial" cx="0" cy="0" r="1" gradientUnits="userSpaceOnUse" gradientTransform="translate(531.939 334.478) scale(40.4414 40.4295)">
<stop stop-color="#A08BE8"/>
<stop offset="0.9941" stop-color="#8065E0"/>
</radialGradient>
<radialGradient id="paint17_radial" cx="0" cy="0" r="1" gradientUnits="userSpaceOnUse" gradientTransform="translate(738.586 287.663) rotate(180) scale(186.671 186.616)">
<stop offset="0.3472" stop-color="#A08BE8"/>
<stop offset="0.684" stop-color="#8065E0"/>
<stop offset="0.7596" stop-color="#8065E0"/>
</radialGradient>
<radialGradient id="paint18_radial" cx="0" cy="0" r="1" gradientUnits="userSpaceOnUse" gradientTransform="translate(758.706 290.975) scale(116.393 116.359)">
<stop offset="0.0933" stop-color="#E1DFDD"/>
<stop offset="0.6573" stop-color="white"/>
</radialGradient>
<radialGradient id="paint19_radial" cx="0" cy="0" r="1" gradientUnits="userSpaceOnUse" gradientTransform="translate(752.309 357.065) scale(82.4158 82.3915)">
<stop offset="0.1574" stop-color="#512BD4"/>
<stop offset="0.9968" stop-color="#8065E0"/>
</radialGradient>
<linearGradient id="paint20_linear" x1="968.28" y1="401.605" x2="712.915" y2="399.955" gradientUnits="userSpaceOnUse">
<stop offset="0.2368" stop-color="#958FE7"/>
<stop offset="0.8039" stop-color="#BDB9F0"/>
</linearGradient>
<radialGradient id="paint21_radial" cx="0" cy="0" r="1" gradientUnits="userSpaceOnUse" gradientTransform="translate(799.321 93.4158) scale(27.1787 27.1707)">
<stop stop-color="#A08BE8"/>
<stop offset="1" stop-color="#8065E0"/>
</radialGradient>
<radialGradient id="paint22_radial" cx="0" cy="0" r="1" gradientUnits="userSpaceOnUse" gradientTransform="translate(794.138 165.831) scale(21.8553 21.8488)">
<stop stop-color="#8065E0"/>
<stop offset="1" stop-color="#512BD4"/>
</radialGradient>
<radialGradient id="paint23_radial" cx="0" cy="0" r="1" gradientUnits="userSpaceOnUse" gradientTransform="translate(860.124 538.549) scale(32.1473 32.1378)">
<stop stop-color="#8065E0"/>
<stop offset="1" stop-color="#512BD4"/>
</radialGradient>
<linearGradient id="paint24_linear" x1="662.116" y1="285.019" x2="662.116" y2="238.562" gradientUnits="userSpaceOnUse">
<stop offset="0.2368" stop-color="#958FE7"/>
<stop offset="0.8039" stop-color="#BDB9F0"/>
<stop offset="0.997" stop-color="#D0C5F3" stop-opacity="0.9725"/>
</linearGradient>
<radialGradient id="paint25_radial" cx="0" cy="0" r="1" gradientUnits="userSpaceOnUse" gradientTransform="translate(834.32 401.349) rotate(102.091) scale(59.7954 59.8114)">
<stop stop-color="#BDB9F0"/>
<stop offset="0.2968" stop-color="#C3BCEB" stop-opacity="0.4"/>
<stop offset="0.4132" stop-color="#CEC3E2" stop-opacity="0.3338"/>
<stop offset="0.7899" stop-color="#EDD6C9" stop-opacity="0.1195"/>
<stop offset="1" stop-color="#F9DDBF" stop-opacity="0"/>
</radialGradient>
<linearGradient id="paint26_linear" x1="875.885" y1="328.109" x2="960.484" y2="474.682" gradientUnits="userSpaceOnUse">
<stop offset="0.1156" stop-color="#958FE7"/>
<stop offset="0.3468" stop-color="#BBB7EF"/>
</linearGradient>
<radialGradient id="paint27_radial" cx="0" cy="0" r="1" gradientUnits="userSpaceOnUse" gradientTransform="translate(918.089 460.951) scale(53.4679 53.4521)">
<stop stop-color="#A08BE8"/>
<stop offset="0.6647" stop-color="#8065E0"/>
</radialGradient>
<radialGradient id="paint28_radial" cx="0" cy="0" r="1" gradientUnits="userSpaceOnUse" gradientTransform="translate(870.508 320.062) scale(27.2004 27.1924)">
<stop stop-color="#8065E0"/>
<stop offset="1" stop-color="#512BD4"/>
</radialGradient>
</defs>
</svg>
