<svg width="1410" height="782" viewBox="0 0 1410 782" fill="none" xmlns="http://www.w3.org/2000/svg">
<path d="M0 775.524C61.9405 287.312 459.066 86.9255 735.966 174.365C1012.87 261.805 1136.74 229.019 1205.97 178.012C1275.19 127.006 1410 159.792 1410 389.325C1410 618.858 1238.76 764.599 1238.76 764.599L0 775.524Z" fill="url(#paint0_radial)"/>
<path d="M1338.68 640.13C1376.23 576.672 1410 491.264 1410 389.325C1410 159.792 1275.19 126.998 1205.97 178.004C1136.74 229.011 1012.87 261.805 735.966 174.357C559.994 118.789 335.479 179.473 179.277 356.392C528.293 321.925 1067.52 413.012 1338.68 640.13Z" fill="#72ACF1"/>
<path d="M794.349 733.461C785.651 730.866 776.814 730.638 768.524 732.392C763.285 705.816 743.865 682.969 716.097 674.695C696.326 668.803 676.049 671.415 659.175 680.398C655.152 674.776 649.31 670.395 642.17 668.265C640.367 667.726 638.555 667.367 636.752 667.147C634.508 649.816 622.35 634.573 604.521 629.261C587.786 624.276 570.438 629.343 558.974 640.971C552.168 635.495 544.213 631.22 535.327 628.576C498.641 617.642 460.029 638.523 449.103 675.209C446.215 684.903 445.545 694.735 446.81 704.151C429.006 700.145 410.891 710.557 405.604 728.312C403.866 734.155 403.719 740.087 404.918 745.66C383.132 744.73 362.341 754.946 349.709 772.44L829.501 768.205C824.458 752.073 811.762 738.651 794.349 733.461Z" fill="url(#paint1_radial)"/>
<path d="M596.582 770.261C590.217 749.136 571.091 733.551 548.17 732.449C548.203 731.617 548.219 730.785 548.219 729.952C548.219 699.68 527.436 674.262 499.351 667.188C502.092 662.194 503.651 656.466 503.651 650.371C503.651 631.848 489.265 616.695 471.061 615.447C474.961 606.781 477.123 597.169 477.123 587.051C477.123 548.766 446.092 517.734 407.807 517.734C398.537 517.734 389.692 519.562 381.606 522.859C373.936 508.448 358.767 498.632 341.305 498.632C322.701 498.632 306.699 509.77 299.592 525.739C297.797 525.429 295.961 525.258 294.085 525.258C286.635 525.258 279.781 527.787 274.322 532.03C260.719 518.599 242.026 510.301 221.398 510.301C192.431 510.301 167.282 526.653 154.676 550.626C147.226 546.579 138.691 544.27 129.617 544.27C102.796 544.27 80.667 564.375 77.4929 590.348C74.9552 590.046 72.3767 589.883 69.7575 589.883C63.6866 589.883 57.8116 590.723 52.2467 592.281C27.0658 645.222 8.77986 706.297 0 775.524L596.582 770.261Z" fill="url(#paint2_radial)"/>
<path d="M736.39 291.686C736.39 291.686 689.856 343.41 676.58 380.186C663.304 416.97 643.427 445.921 627.075 462.607C610.723 479.294 591.425 508.049 580.776 532.561C570.128 557.072 549.541 596.06 534.65 608.454C519.758 620.849 500.779 649.816 497.123 664.332C493.476 678.848 475.957 703.523 468.711 710.434C461.473 717.354 434.277 756.088 427.594 773.868C420.911 791.648 436.439 772.081 445.039 767.226C453.64 762.371 469.894 752.024 477.189 730.564C484.484 709.104 496.079 685.221 512.039 671.186C527.999 657.16 549.582 634.565 561.683 605.761C573.792 576.958 599.601 539.643 618.621 518.877C637.65 498.11 661.337 468.156 673.3 437.508C685.262 406.86 700.79 387.301 720.618 365.311C740.446 343.32 756.129 302.864 756.129 302.864L736.39 291.686Z" fill="url(#paint3_linear)"/>
<path d="M677.689 255.187C677.689 255.187 631.154 306.912 617.879 343.688C604.603 380.472 584.726 409.422 568.374 426.109C552.021 442.796 532.724 471.55 522.075 496.062C511.427 520.574 490.84 559.561 475.948 571.956C461.057 584.35 442.077 613.317 438.422 627.834C434.774 642.35 417.256 667.025 410.01 673.936C402.772 680.855 375.576 719.59 368.893 737.37C362.21 755.15 377.738 735.583 386.338 730.728C394.939 725.865 411.193 715.526 418.488 694.066C425.782 672.606 437.377 648.723 453.338 634.688C469.298 620.661 490.881 598.067 502.982 569.263C515.091 540.459 540.9 503.145 559.92 482.378C578.949 461.612 602.636 431.658 614.598 401.01C626.561 370.362 642.089 350.803 661.917 328.812C681.745 306.822 697.428 266.366 697.428 266.366L677.689 255.187Z" fill="url(#paint4_linear)"/>
<path d="M756.259 310.502L732.196 294.615C730.279 293.35 730.034 290.772 731.699 289.352L750.156 273.546C751.355 272.518 753.183 272.437 754.562 273.351L768.931 282.84C770.319 283.754 770.89 285.419 770.319 286.863L761.555 309.066C760.764 311.065 758.177 311.767 756.259 310.502Z" fill="url(#paint5_linear)"/>
<path d="M770.784 288.373L748.108 273.4C745.57 271.727 744.869 268.487 746.533 266.162L790.196 205.176C791.86 202.851 795.263 202.328 797.801 204.001L820.477 218.974C823.014 220.647 823.716 223.886 822.051 226.212L778.389 287.198C776.724 289.523 773.313 290.045 770.784 288.373Z" fill="white"/>
<path d="M696.955 271.751L672.892 255.864C670.974 254.6 670.729 252.021 672.394 250.601L690.851 234.796C692.051 233.768 693.879 233.686 695.258 234.6L709.627 244.09C711.014 245.004 711.585 246.668 711.014 248.113L702.25 270.315C701.467 272.314 698.88 273.016 696.955 271.751Z" fill="url(#paint6_radial)"/>
<path d="M711.479 249.622L688.803 234.649C686.266 232.976 685.564 229.737 687.228 227.411L730.891 166.426C732.556 164.1 735.958 163.578 738.496 165.251L761.172 180.224C763.71 181.896 764.411 185.136 762.747 187.461L719.084 248.447C717.419 250.773 714.017 251.295 711.479 249.622Z" fill="white"/>
<path d="M761.171 180.224L753.844 175.385L710.932 235.318C709.267 237.644 705.865 238.166 703.327 236.493L687.987 226.359L687.236 227.411C685.572 229.737 686.281 232.976 688.811 234.649L711.487 249.622C714.025 251.295 717.427 250.773 719.092 248.447L762.754 187.461C764.411 185.144 763.709 181.896 761.171 180.224Z" fill="#E1DFDD"/>
<path d="M820.468 218.974L813.141 214.135L770.229 274.069C768.564 276.394 765.162 276.916 762.624 275.244L751.763 268.071L747.284 265.109L746.533 266.162C744.868 268.487 745.578 271.727 748.108 273.4L770.784 288.373C773.321 290.045 776.724 289.523 778.389 287.198L822.051 226.212C823.716 223.886 823.006 220.647 820.468 218.974Z" fill="#E1DFDD"/>
<path d="M788.507 404.127L775.704 378.603C776.324 378.293 839.073 346.266 856.698 301.844L883.241 312.379C861.577 366.975 791.485 402.642 788.507 404.127Z" fill="url(#paint7_linear)"/>
<path d="M720.675 437.834L752.702 483.154C752.702 483.154 753.142 498.682 750.05 505.103C747.684 510.015 738.855 516.094 734.832 518.689C733.706 519.415 732.221 519.122 731.446 518.036L700.422 474.423C699.427 473.019 699.761 471.077 701.165 470.098C706.02 466.695 715.706 458.536 717.338 454.627C719.785 448.777 720.675 437.834 720.675 437.834Z" fill="#D0C5F3"/>
<path d="M763.032 386.901C728.002 399.345 684.323 435.672 682.128 437.761C679.093 440.658 677.053 442.804 680.488 447.61C684.756 453.591 703.099 479.269 703.099 479.269L774.97 407.586L763.032 386.901Z" fill="#8065E0"/>
<path d="M777.507 416.668C764.672 428.867 754.782 457.426 753.053 499.391C752.849 504.295 751.421 507.771 747.765 510.374L736.08 518.714C734.351 519.946 731.952 519.546 730.719 517.816L699.802 474.52C698.929 473.297 699.215 471.599 700.431 470.726L713.919 461.098C718.121 458.095 719.671 455.712 719.688 449.193C719.72 432.873 740.968 407.415 759.376 393.935C777.785 380.455 777.507 416.668 777.507 416.668Z" fill="#A08BE8"/>
<path d="M750.352 507.91C749.65 508.808 748.81 509.624 747.765 510.366L736.08 518.705C734.351 519.938 731.952 519.538 730.719 517.808L699.802 474.512C698.929 473.288 699.215 471.591 700.439 470.718L713.927 461.09C714.645 460.576 715.281 460.078 715.852 459.58L750.352 507.91Z" fill="url(#paint8_linear)"/>
<path d="M833.372 336.166L854.236 355.028L856.698 352.304L835.834 333.442L833.372 336.166Z" fill="#A08BE8"/>
<path d="M788.833 367.147L807.739 393.625C809.567 396.179 808.971 399.737 806.417 401.556L779.139 421.034C776.585 422.861 773.028 422.266 771.208 419.712L752.302 393.233C750.474 390.679 751.07 387.122 753.624 385.302L780.902 365.825C783.464 363.997 787.013 364.593 788.833 367.147Z" fill="url(#paint9_radial)"/>
<path d="M810.417 356.598L828.854 377.839L831.627 375.432L813.19 354.191L810.417 356.598Z" fill="#A08BE8"/>
<path d="M818.281 285.231C835.433 268.92 852.242 249.859 867.827 228.554C933.897 138.193 952.852 41.639 910.152 12.9086C867.452 -15.8218 779.286 34.1239 713.209 124.493C699.321 143.48 687.522 162.746 677.934 181.595C675.943 185.511 677.216 190.293 680.855 192.741L818.281 285.231Z" fill="#F7B548"/>
<path d="M826.457 246.244C839.929 233.425 853.14 218.452 865.379 201.717C917.283 130.727 932.175 54.8742 898.63 32.3044C865.086 9.72646 795.818 48.9747 743.914 119.972C733.004 134.888 723.735 150.025 716.203 164.835C714.637 167.911 715.64 171.664 718.496 173.59L826.457 246.244Z" fill="url(#paint10_radial)"/>
<path d="M745.799 378.937L731.462 354.238C732.066 353.887 792.742 318.107 807.633 272.69L834.773 281.592C816.47 337.404 748.679 377.265 745.799 378.937Z" fill="url(#paint11_linear)"/>
<path d="M680.146 416.708L714.874 459.988C714.874 459.988 716.261 475.458 713.568 482.06C711.504 487.102 703.058 493.712 699.199 496.543C698.122 497.335 696.62 497.131 695.78 496.094L662.162 454.447C661.085 453.109 661.297 451.151 662.643 450.082C667.278 446.394 676.449 437.654 677.845 433.656C679.925 427.683 680.146 416.708 680.146 416.708Z" fill="#D0C5F3"/>
<path d="M719.329 363.295C685.123 377.844 643.737 416.774 641.673 418.985C638.817 422.061 636.916 424.33 640.628 428.916C645.255 434.627 665.124 459.147 665.124 459.147L732.499 383.221L719.329 363.295Z" fill="#8065E0"/>
<path d="M735.583 392.115C723.515 405.073 715.379 434.187 716.203 476.177C716.301 481.081 715.086 484.638 711.601 487.462L700.447 496.503C698.799 497.841 696.375 497.588 695.037 495.94L661.542 454.602C660.595 453.436 660.775 451.722 661.941 450.784L674.817 440.347C678.824 437.1 680.235 434.619 679.852 428.116C678.897 411.829 698.546 385.122 716.106 370.541C733.665 355.96 735.583 392.115 735.583 392.115Z" fill="#A08BE8"/>
<path d="M714.033 484.85C713.388 485.789 712.597 486.662 711.601 487.461L700.447 496.502C698.799 497.841 696.375 497.588 695.037 495.939L661.542 454.602C660.595 453.435 660.775 451.722 661.941 450.783L674.817 440.347C675.503 439.792 676.107 439.254 676.645 438.723L714.033 484.85Z" fill="url(#paint12_linear)"/>
<path d="M786.406 308.348L808.381 325.904L810.673 323.035L788.698 305.479L786.406 308.348Z" fill="#A08BE8"/>
<path d="M743.873 341.998L764.354 367.277C766.329 369.717 765.954 373.299 763.514 375.274L737.468 396.383C735.028 398.357 731.446 397.982 729.471 395.542L708.991 370.264C707.016 367.824 707.391 364.242 709.831 362.267L735.877 341.158C738.317 339.183 741.899 339.559 743.873 341.998Z" fill="url(#paint13_radial)"/>
<path d="M764.748 330.131L784.445 350.21L787.067 347.639L767.37 327.559L764.748 330.131Z" fill="#A08BE8"/>
<path d="M1103.83 322.513L1115.11 298.246C1118.07 291.759 1115.21 284.097 1108.72 281.135C1102.23 278.173 1094.57 281.029 1091.61 287.524L1080.04 312.411L1103.83 322.513Z" fill="#D0C5F3"/>
<path d="M976.817 264.791L991.349 319.698L1018.43 312.183L1003.91 257.276L976.817 264.791Z" fill="url(#paint14_linear)"/>
<path d="M1011.13 285.073L984.054 292.582L984.932 295.751L1012.01 288.242L1011.13 285.073Z" fill="#A08BE8"/>
<path d="M1013.35 339.19L1079.63 343.975L1081.65 315.946L1015.37 311.161L1013.35 339.19Z" fill="#D0C5F3"/>
<path d="M1047.31 313.424L1045.29 341.453L1048.57 341.69L1050.59 313.661L1047.31 313.424Z" fill="#A08BE8"/>
<path d="M1095.54 355.266C1110.47 355.266 1122.57 343.163 1122.57 328.233C1122.57 313.303 1110.47 301.2 1095.54 301.2C1080.61 301.2 1068.51 313.303 1068.51 328.233C1068.51 343.163 1080.61 355.266 1095.54 355.266Z" fill="#927BE5"/>
<path d="M1017.63 309.278L991.35 319.698C991.35 319.698 994.989 337.348 1013.36 339.159C1017.59 321.42 1019.97 311.449 1019.97 311.449L1017.63 309.278Z" fill="#A08BE8"/>
<path d="M1040.85 388.917L942.105 318.906L950.6 306.928L1049.35 376.938C1051.8 378.676 1055.22 378.097 1056.95 375.641L1081.51 341.003L1093.49 349.497L1068.93 384.135C1062.51 393.193 1049.91 395.339 1040.85 388.917Z" fill="#F7B548"/>
<path d="M1084.52 363.973L1070.32 353.904C1067.4 351.831 1066.71 347.792 1068.79 344.871L1106.95 291.041C1109.02 288.12 1113.06 287.434 1115.98 289.507L1130.18 299.576C1133.1 301.649 1133.79 305.688 1131.71 308.609L1093.55 362.439C1091.48 365.36 1087.44 366.045 1084.52 363.973Z" fill="#605D5A"/>
<path d="M1091.81 359.501L1077.41 348.926C1073.15 345.801 1072.24 339.812 1075.36 335.552L1079.25 330.273C1082.37 326.013 1088.36 325.1 1092.62 328.225L1107.02 338.8C1111.28 341.925 1112.19 347.914 1109.07 352.174L1105.19 357.453C1102.05 361.712 1096.07 362.634 1091.81 359.501Z" fill="#D0C5F3"/>
<path d="M1108.47 351.366L1094.06 340.791C1089.8 337.666 1088.89 331.676 1092.02 327.417L1095.9 322.138C1099.02 317.878 1105.01 316.964 1109.27 320.09L1123.68 330.664C1127.93 333.79 1128.85 339.779 1125.72 344.038L1121.84 349.318C1118.71 353.577 1112.72 354.491 1108.47 351.366Z" fill="#D0C5F3"/>
<path d="M1124.66 343.141L1110.26 332.566C1106 329.441 1105.09 323.451 1108.21 319.192L1112.1 313.913C1115.22 309.653 1121.21 308.739 1125.47 311.865L1139.87 322.44C1144.13 325.565 1145.05 331.554 1141.92 335.813L1138.04 341.093C1134.9 345.352 1128.92 346.274 1124.66 343.141Z" fill="#D0C5F3"/>
<path d="M990.223 300.669C1019.03 276.508 1030.88 249.288 1030.88 249.288L1037.85 254.249L1038.12 254.241C1066.81 192.724 1048.46 117.598 991.153 76.8563C926.594 30.9579 837.049 46.086 791.151 110.646C745.252 175.205 760.38 264.75 824.94 310.649C875.881 346.87 942.375 345.075 990.713 310.991C992.557 309.4 994.98 305.9 990.223 300.669Z" fill="url(#paint15_radial)"/>
<path d="M989.587 312.215C989.587 312.215 997.257 308.291 990.525 300.873C1018.98 277.006 1030.87 250.177 1031.17 249.524L909.891 163.3C909.891 163.3 902.8 157.091 897.839 164.067C892.878 171.044 879.145 190.97 863.641 212.781C860.451 217.269 862.589 222.042 865.477 224.099L990.019 312.64C989.742 312.379 989.587 312.215 989.587 312.215Z" fill="url(#paint16_radial)"/>
<path d="M932.363 259.389C932.363 259.389 950.583 258.451 954.068 258.361C957.552 258.271 959.616 259.593 960.416 262.874C961.216 266.154 966.397 283.591 966.397 283.591L932.363 259.389Z" fill="#A08BE8"/>
<path d="M989.586 312.215C989.586 312.215 997.257 308.291 990.525 300.873C990.557 300.849 990.582 300.824 990.615 300.8L871.352 216.012C868.578 214.038 866.187 209.844 867.786 206.939C866.424 208.873 865.036 210.823 863.633 212.789C860.736 216.861 862.238 221.161 864.694 223.454C864.947 223.682 865.191 223.903 865.469 224.099L873.62 229.892L990.011 312.64C989.741 312.379 989.586 312.215 989.586 312.215Z" fill="url(#paint17_radial)"/>
<path d="M966.846 324.675L765.268 181.366C764.33 192.268 764.648 203.21 766.182 213.981L935.749 334.532C946.422 332.435 956.858 329.147 966.846 324.675Z" fill="#D0C5F3"/>
<path d="M983.222 59.2804L1006.18 74.8084L1018.89 49.04L1002.4 37.8938L983.222 59.2804Z" fill="#D0C5F3"/>
<path d="M1022.07 52.6302C1036.6 52.6302 1048.39 40.8485 1048.39 26.3151C1048.39 11.7817 1036.6 0 1022.07 0C1007.54 0 995.755 11.7817 995.755 26.3151C995.755 40.8485 1007.54 52.6302 1022.07 52.6302Z" fill="url(#paint18_radial)"/>
<path d="M964.699 67.7503C963.663 67.0485 963.443 65.5961 964.25 64.6414C972.835 54.5642 987.808 52.3366 999.027 59.9251C1010.25 67.5136 1013.76 82.2338 1007.6 93.9593C1007.02 95.069 1005.59 95.4036 1004.55 94.7018L964.699 67.7503Z" fill="url(#paint19_radial)"/>
<path d="M928.566 216.53C934.475 207.949 935.129 198.144 930.026 194.629C924.922 191.115 915.994 195.222 910.085 203.803C904.175 212.384 903.521 222.189 908.625 225.704C913.728 229.219 922.656 225.112 928.566 216.53Z" fill="#512BD4"/>
<path d="M1002.03 269.095C1008.19 260.694 1009.14 250.912 1004.14 247.247C999.146 243.582 990.099 247.421 983.937 255.822C977.774 264.223 976.828 274.004 981.824 277.669C986.82 281.335 995.867 277.496 1002.03 269.095Z" fill="#512BD4"/>
<path d="M924.725 202.435C927.924 201.896 931.024 202.859 933.301 204.817C932.828 208.514 931.245 212.659 928.56 216.551C926.887 218.974 924.97 221.031 922.971 222.671C919.503 221.439 916.777 218.419 916.116 214.527C915.162 208.815 919.013 203.397 924.725 202.435Z" fill="#8065E0"/>
<path d="M998.677 254.257C1001.88 253.719 1004.98 254.69 1007.26 256.648C1006.84 260.548 1005.07 264.995 1002.05 269.116C1000.51 271.221 998.791 273.033 996.987 274.518C993.487 273.302 990.737 270.266 990.076 266.35C989.113 260.638 992.965 255.22 998.677 254.257Z" fill="#8065E0"/>
<path d="M962.031 93.3636C932.738 78.211 898.508 75.8121 867.477 86.5829L860.304 74.9145C895.522 61.81 934.754 64.16 968.192 81.4504C971.48 83.1477 972.77 87.1949 971.064 90.4833C969.367 93.7716 965.32 95.0609 962.031 93.3636Z" fill="url(#paint20_linear)"/>
<path d="M930.167 345.034L681.843 167.364C676.914 163.839 675.788 156.993 679.313 152.064L695.192 129.903C698.717 124.982 705.563 123.856 710.483 127.381L977.437 318.254C984.536 323.337 982.847 329.914 974.695 333.031L940.457 346.356C937.022 347.669 933.154 347.172 930.167 345.034Z" fill="#E86E58"/>
<path d="M977.437 318.262L710.483 127.39C705.563 123.865 698.717 124.991 695.192 129.911L693.193 132.702C696.644 131.135 700.806 131.396 704.111 133.762L971.064 324.635C974.605 327.172 975.96 330.077 975.413 332.745C982.945 329.522 984.324 323.19 977.437 318.262Z" fill="#EE8F94"/>
<path d="M940.868 297.049L903.141 270.229L879.422 303.593L917.148 330.413L940.868 297.049Z" fill="#512BD4"/>
<path d="M893.718 295.823C893.433 295.619 893.261 295.349 893.196 295.023C893.139 294.688 893.196 294.387 893.392 294.117C893.588 293.848 893.849 293.685 894.191 293.628C894.526 293.579 894.844 293.652 895.13 293.856C895.423 294.06 895.595 294.338 895.66 294.672C895.725 295.015 895.66 295.317 895.464 295.594C895.277 295.863 895.007 296.018 894.665 296.067C894.322 296.108 894.012 296.035 893.718 295.823Z" fill="white"/>
<path d="M905.232 303.77L903.379 302.457L903.975 291.286C903.991 291 904.032 290.731 904.097 290.462L904.056 290.429C903.934 290.682 903.616 291.172 903.094 291.906L898.206 298.777L896.566 297.61L904.016 287.133L905.99 288.536L905.362 299.413C905.338 299.87 905.313 300.172 905.289 300.327L905.313 300.343C905.46 300.033 905.77 299.544 906.243 298.883L911.041 292.126L912.673 293.285L905.232 303.77Z" fill="white"/>
<path d="M913.22 309.441L907.483 305.361L914.933 294.884L920.441 298.801L919.388 300.278L915.578 297.569L913.464 300.539L916.981 303.036L915.937 304.505L912.42 302.008L910.217 305.108L914.256 307.981L913.22 309.441Z" fill="white"/>
<path d="M927.769 306.235L924.831 304.146L918.434 313.146L916.737 311.938L923.134 302.938L920.205 300.857L921.257 299.38L928.821 304.758L927.769 306.235Z" fill="white"/>
<path d="M685.784 76.4323L691.512 102.258C718.57 96.2522 742.241 97.566 761.865 106.158C779.131 113.714 793.737 127.096 805.275 145.937L827.837 132.114C806.377 97.1008 764.322 59.0113 685.784 76.4323Z" fill="url(#paint21_linear)"/>
<path d="M793.697 93.8733L778.129 114.826L780.579 116.646L796.146 95.6934L793.697 93.8733Z" fill="#A08BE8"/>
<path d="M675.756 98.6021L660.228 118.006C656.124 123.204 657.013 130.743 662.219 134.848C667.417 138.952 674.956 138.062 679.061 132.857L694.98 112.955L675.756 98.6021Z" fill="#D0C5F3"/>
<path d="M676.947 73.8455L652.092 74.0739C645.467 74.18 640.187 79.6389 640.294 86.2564C640.4 92.8821 645.858 98.1614 652.476 98.0554L677.959 97.8187L676.947 73.8455Z" fill="#D0C5F3"/>
<path d="M677.086 91.1199L652.248 91.9766C645.63 92.2541 640.49 97.8353 640.767 104.453C641.044 111.07 646.626 116.211 653.243 115.934L678.718 115.052L677.086 91.1199Z" fill="#D0C5F3"/>
<path d="M685.8 64.6903L661.378 60.0719C654.859 58.8888 648.617 63.2053 647.433 69.7249C646.25 76.2445 650.567 82.4867 657.086 83.6698L682.129 88.4106L685.8 64.6903Z" fill="#D0C5F3"/>
<path d="M688.648 114.456C702.514 114.456 713.755 103.215 713.755 89.3489C713.755 75.4825 702.514 64.2415 688.648 64.2415C674.782 64.2415 663.541 75.4825 663.541 89.3489C663.541 103.215 674.782 114.456 688.648 114.456Z" fill="url(#paint22_radial)"/>
<path d="M765.701 79.4226L755.453 103.429L758.26 104.628L768.508 80.6207L765.701 79.4226Z" fill="#A08BE8"/>
<path d="M733.561 72.8169L731.784 98.8599L734.828 99.0677L736.606 73.0247L733.561 72.8169Z" fill="#A08BE8"/>
<path d="M821.537 165.047C836.084 165.047 847.877 153.254 847.877 138.707C847.877 124.16 836.084 112.367 821.537 112.367C806.99 112.367 795.198 124.16 795.198 138.707C795.198 153.254 806.99 165.047 821.537 165.047Z" fill="url(#paint23_radial)"/>
<defs>
<radialGradient id="paint0_radial" cx="0" cy="0" r="1" gradientUnits="userSpaceOnUse" gradientTransform="translate(461.841 1297.25) scale(874.763)">
<stop offset="0.3292" stop-color="white"/>
<stop offset="0.8156" stop-color="#A7CBF6"/>
</radialGradient>
<radialGradient id="paint1_radial" cx="0" cy="0" r="1" gradientUnits="userSpaceOnUse" gradientTransform="translate(812.25 392.729) scale(473.592)">
<stop offset="0.3292" stop-color="white"/>
<stop offset="1" stop-color="#A7CBF6"/>
</radialGradient>
<radialGradient id="paint2_radial" cx="0" cy="0" r="1" gradientUnits="userSpaceOnUse" gradientTransform="translate(619.541 177.637) scale(684.862)">
<stop offset="0.3292" stop-color="white"/>
<stop offset="1" stop-color="#A7CBF6"/>
</radialGradient>
<linearGradient id="paint3_linear" x1="610.827" y1="794.617" x2="648.073" y2="285.211" gradientUnits="userSpaceOnUse">
<stop stop-color="white" stop-opacity="0"/>
<stop offset="0.9936" stop-color="#FAE969"/>
</linearGradient>
<linearGradient id="paint4_linear" x1="552.124" y1="758.12" x2="589.37" y2="248.715" gradientUnits="userSpaceOnUse">
<stop stop-color="white" stop-opacity="0"/>
<stop offset="0.9936" stop-color="#FAE969"/>
</linearGradient>
<linearGradient id="paint5_linear" x1="749.577" y1="291.926" x2="776.711" y2="291.926" gradientUnits="userSpaceOnUse">
<stop offset="0.0607" stop-color="#797673"/>
<stop offset="0.8227" stop-color="#605D5A"/>
</linearGradient>
<radialGradient id="paint6_radial" cx="0" cy="0" r="1" gradientUnits="userSpaceOnUse" gradientTransform="translate(689.539 247.92) scale(37.3458)">
<stop stop-color="#797673"/>
<stop offset="0.6238" stop-color="#605D5A"/>
</radialGradient>
<linearGradient id="paint7_linear" x1="848.866" y1="298.228" x2="802.852" y2="410.024" gradientUnits="userSpaceOnUse">
<stop offset="0.2319" stop-color="#958FE7"/>
<stop offset="0.4062" stop-color="#BBB7EF"/>
</linearGradient>
<linearGradient id="paint8_linear" x1="707.533" y1="508.119" x2="742.704" y2="471.113" gradientUnits="userSpaceOnUse">
<stop stop-color="#958FE7"/>
<stop offset="1" stop-color="#BBB7EF"/>
</linearGradient>
<radialGradient id="paint9_radial" cx="0" cy="0" r="1" gradientUnits="userSpaceOnUse" gradientTransform="translate(784.479 383.578) scale(28.7231)">
<stop stop-color="#8065E0"/>
<stop offset="1" stop-color="#512BD4"/>
</radialGradient>
<radialGradient id="paint10_radial" cx="0" cy="0" r="1" gradientUnits="userSpaceOnUse" gradientTransform="translate(854.692 -31.3161) rotate(18.656) scale(162.393)">
<stop stop-color="#E3646A"/>
<stop offset="0.8525" stop-color="#F6B249"/>
</radialGradient>
<linearGradient id="paint11_linear" x1="799.638" y1="269.597" x2="760.515" y2="383.992" gradientUnits="userSpaceOnUse">
<stop offset="0.2368" stop-color="#958FE7"/>
<stop offset="0.3837" stop-color="#BBB7EF"/>
</linearGradient>
<linearGradient id="paint12_linear" x1="728.176" y1="477.747" x2="676.509" y2="465.53" gradientUnits="userSpaceOnUse">
<stop stop-color="#958FE7"/>
<stop offset="0.9957" stop-color="#BBB7EF"/>
</linearGradient>
<radialGradient id="paint13_radial" cx="0" cy="0" r="1" gradientUnits="userSpaceOnUse" gradientTransform="translate(740.602 351.876) scale(41.1671)">
<stop stop-color="#8065E0"/>
<stop offset="0.0233" stop-color="#7D62DF"/>
<stop offset="0.2367" stop-color="#6A4ADA"/>
<stop offset="0.4623" stop-color="#5C39D7"/>
<stop offset="0.7058" stop-color="#542ED5"/>
<stop offset="1" stop-color="#512BD4"/>
</radialGradient>
<linearGradient id="paint14_linear" x1="982.163" y1="261.704" x2="1013.09" y2="315.271" gradientUnits="userSpaceOnUse">
<stop offset="0.2699" stop-color="#958FE7"/>
<stop offset="0.8454" stop-color="#BBB7EF"/>
</linearGradient>
<radialGradient id="paint15_radial" cx="0" cy="0" r="1" gradientUnits="userSpaceOnUse" gradientTransform="translate(953.233 196.891) rotate(35.4098) scale(180.785)">
<stop offset="0.3472" stop-color="#A08BE8"/>
<stop offset="0.684" stop-color="#8065E0"/>
<stop offset="0.7596" stop-color="#8065E0"/>
</radialGradient>
<radialGradient id="paint16_radial" cx="0" cy="0" r="1" gradientUnits="userSpaceOnUse" gradientTransform="translate(932.172 183.523) scale(123.101)">
<stop offset="0.0933" stop-color="#E1DFDD"/>
<stop offset="0.6573" stop-color="white"/>
</radialGradient>
<radialGradient id="paint17_radial" cx="0" cy="0" r="1" gradientUnits="userSpaceOnUse" gradientTransform="translate(893.769 242.999) scale(77.314)">
<stop offset="0.1574" stop-color="#512BD4"/>
<stop offset="0.9968" stop-color="#8065E0"/>
</radialGradient>
<radialGradient id="paint18_radial" cx="0" cy="0" r="1" gradientUnits="userSpaceOnUse" gradientTransform="translate(1035.02 18.0511) rotate(39.0133) scale(33.4596)">
<stop offset="0.186" stop-color="#A08BE8"/>
<stop offset="0.684" stop-color="#8065E0"/>
<stop offset="0.8157" stop-color="#8065E0"/>
</radialGradient>
<radialGradient id="paint19_radial" cx="0" cy="0" r="1" gradientUnits="userSpaceOnUse" gradientTransform="translate(993.867 65.7824) scale(21.7025)">
<stop stop-color="#8065E0"/>
<stop offset="1" stop-color="#512BD4"/>
</radialGradient>
<linearGradient id="paint20_linear" x1="879.801" y1="105.423" x2="955.979" y2="58.569" gradientUnits="userSpaceOnUse">
<stop stop-color="#8065E0"/>
<stop offset="0.4307" stop-color="#A08BE8"/>
</linearGradient>
<linearGradient id="paint21_linear" x1="802.65" y1="157.306" x2="703.782" y2="58.4375" gradientUnits="userSpaceOnUse">
<stop offset="0.2368" stop-color="#958FE7"/>
<stop offset="0.3837" stop-color="#BBB7EF"/>
</linearGradient>
<radialGradient id="paint22_radial" cx="0" cy="0" r="1" gradientUnits="userSpaceOnUse" gradientTransform="translate(691.168 79.3894) scale(46.8893)">
<stop offset="0.186" stop-color="#A08BE8"/>
<stop offset="0.684" stop-color="#8065E0"/>
<stop offset="0.8157" stop-color="#8065E0"/>
</radialGradient>
<radialGradient id="paint23_radial" cx="0" cy="0" r="1" gradientUnits="userSpaceOnUse" gradientTransform="translate(828.94 135.037) scale(26.3456)">
<stop stop-color="#8065E0"/>
<stop offset="1" stop-color="#512BD4"/>
</radialGradient>
</defs>
</svg>
