<svg width="1298" height="721" viewBox="0 0 1298 721" fill="none" xmlns="http://www.w3.org/2000/svg">
<path d="M1227.61 720.007H69.3953C31.0704 720.007 0 688.921 0 650.584V69.4377C0 31.0934 31.0704 0.00732422 69.3953 0.00732422H1227.61C1265.94 0.00732422 1297.01 31.0934 1297.01 69.4377V650.584C1297 688.921 1265.94 720.007 1227.61 720.007Z" fill="#E3646A"/>
<path d="M404.901 0.00732422H301.604V720.007H404.901V0.00732422Z" fill="url(#paint0_linear)"/>
<path d="M603.936 0.00732422H500.64V720.007H603.936V0.00732422Z" fill="url(#paint1_linear)"/>
<path d="M205.867 0.00732422H102.57V720.007H205.867V0.00732422Z" fill="url(#paint2_linear)"/>
<path d="M1201.05 0.00732422H1097.75V720.007H1201.05V0.00732422Z" fill="url(#paint3_linear)"/>
<path d="M802.978 0.00732422H699.682V720.007H802.978V0.00732422Z" fill="url(#paint4_linear)"/>
<path d="M1002.01 0.00732422H898.716V720.007H1002.01V0.00732422Z" fill="url(#paint5_linear)"/>
<path d="M659.067 685.785C843.363 685.785 992.765 536.308 992.765 351.919C992.765 167.53 843.363 18.0527 659.067 18.0527C474.771 18.0527 325.369 167.53 325.369 351.919C325.369 536.308 474.771 685.785 659.067 685.785Z" fill="#FFFACF"/>
<path d="M500.64 645.84C532.333 662.98 567.115 675.132 603.936 681.255V22.5898C567.115 28.7137 532.333 40.8723 500.64 58.0056V645.84Z" fill="url(#paint6_linear)"/>
<path d="M699.682 683.339C736.273 678.898 771.033 668.533 802.978 653.231V50.6141C771.026 35.312 736.265 24.9475 699.682 20.5066V683.339Z" fill="url(#paint7_linear)"/>
<path d="M404.901 568.276V135.569C355.298 193.842 325.361 269.381 325.361 351.919C325.361 434.457 355.298 510.004 404.901 568.276Z" fill="url(#paint8_linear)"/>
<path d="M898.716 584.246C956.929 524.149 992.765 442.219 992.765 351.919C992.765 261.619 956.929 179.696 898.716 119.592V584.246Z" fill="url(#paint9_linear)"/>
<path d="M1214.14 0.00732422C1195.59 52.8308 1173.69 104.587 1148.78 154.348C1109.59 232.623 1062.83 306.176 1009.81 372.959C1009.17 373.76 1009.3 374.924 1010.1 375.562C1010.45 375.836 1010.85 375.962 1011.25 375.962C1011.8 375.962 1012.34 375.725 1012.71 375.265C1065.91 308.259 1112.82 234.469 1152.12 155.942C1177.28 105.669 1199.38 53.3794 1218.06 0.00732422H1214.14V0.00732422Z" fill="#E1DFDD"/>
<path d="M411.481 201.263C440.255 233.061 472.385 265.585 509.709 300.689C543.203 332.191 577.119 362.246 608.982 390.33C609.33 390.641 609.767 390.789 610.205 390.789C610.716 390.789 611.227 390.574 611.598 390.159C612.272 389.388 612.198 388.217 611.435 387.542C542.706 326.971 475.912 266.957 414.223 198.772C355.12 133.441 307.585 68.0291 269.875 0.00732422H265.644C303.65 68.9187 351.66 135.139 411.481 201.263Z" fill="#E1DFDD"/>
<path d="M538.801 320.047C561.283 323.517 593.999 317.2 595.8 316.733C598.297 316.088 599.66 315.287 599.638 312.062C599.608 307.696 599.66 288.872 599.66 288.872L538.631 305.857L538.801 320.047Z" fill="#8065E0"/>
<path d="M540.002 300.4C550.539 297.679 568.797 284.72 582.336 263.309C583.921 260.811 585.729 259.402 588.464 259.076L592.843 258.913C594.14 258.757 595.303 259.654 595.444 260.907L598.971 292.297C599.068 293.179 598.408 293.987 597.497 294.099L587.389 295.292C584.24 295.663 582.691 296.471 580.728 299.866C575.807 308.37 556.786 315.621 542.877 317.422C528.968 319.217 540.002 300.4 540.002 300.4Z" fill="#A08BE8"/>
<path d="M587.471 259.313C588.115 259.046 588.879 259.083 589.657 258.987L597.986 258.275C599.282 258.119 600.876 258.698 601.016 259.951L599.623 292.09C599.72 292.972 599.06 293.78 598.149 293.891L587.389 295.3C586.848 295.366 586.359 295.441 585.907 295.544L587.471 259.313Z" fill="#D0C5F3"/>
<path d="M524.507 304.167L526.396 320.974C506.152 323.361 493.562 324.873 479.713 327.35C475.941 328.024 477.001 309.519 483.581 308.711C494.415 307.392 507.871 306.131 524.507 304.167Z" fill="url(#paint10_linear)"/>
<path d="M509.843 323.005L507.753 323.265L506.99 306.161L509.102 305.931L509.843 323.005Z" fill="#A08BE8"/>
<path d="M496.971 324.666L494.889 324.94L494.178 307.533L496.29 307.303L496.971 324.666Z" fill="#A08BE8"/>
<path d="M517.394 303.032L518.735 322.486C519.047 325.274 521.64 327.261 524.523 326.92L541.477 324.925C544.359 324.584 546.442 322.049 546.13 319.261L544.789 299.807C544.478 297.02 541.884 295.033 539.002 295.374L522.048 297.368C519.165 297.709 517.083 300.245 517.394 303.032Z" fill="url(#paint11_radial)"/>
<path d="M302.531 267.668L301.946 250.268C301.82 245.627 305.48 241.772 310.119 241.646C314.758 241.52 318.611 245.182 318.737 249.816L319.337 267.661L302.531 267.668Z" fill="#D0C5F3"/>
<path d="M303.873 291.037C313.58 291.037 321.449 283.163 321.449 273.451C321.449 263.739 313.58 255.866 303.873 255.866C294.165 255.866 286.296 263.739 286.296 273.451C286.296 283.163 294.165 291.037 303.873 291.037Z" fill="url(#paint12_radial)"/>
<path d="M488.079 390.53C497.994 411.014 522.847 435.539 524.255 436.755C526.204 438.446 527.634 439.565 530.279 437.259C533.57 434.398 548.723 423.625 548.723 423.625L499.661 382.323L488.079 390.53Z" fill="#8065E0"/>
<path d="M504.923 380.358C513.14 387.49 534.17 395.164 559.475 394.155C562.432 394.037 564.618 394.726 566.433 396.802L569.057 400.316C569.916 401.295 569.842 402.763 568.894 403.586L545.07 424.322C544.396 424.908 543.359 424.819 542.751 424.13L536.03 416.478C533.933 414.099 532.392 413.276 528.479 413.587C518.683 414.366 501.921 402.815 492.548 392.391C483.174 381.967 504.923 380.358 504.923 380.358Z" fill="#A08BE8"/>
<path d="M565.678 396.113C566.263 396.491 566.671 397.143 567.182 397.729L572.495 404.179C573.355 405.158 573.792 406.803 572.843 407.626L545.619 424.73C544.945 425.316 543.907 425.227 543.299 424.537L536.03 416.479C535.675 416.071 535.326 415.715 534.985 415.396L565.678 396.113Z" fill="#D0C5F3"/>
<path d="M491.229 368.719L478.469 379.817C465.012 364.5 456.616 354.996 446.717 344.995C444.019 342.274 459.84 332.636 464.249 337.596C471.488 345.766 480.166 356.13 491.229 368.719Z" fill="url(#paint13_linear)"/>
<path d="M488.116 362.217L472.874 374.368C470.762 376.207 470.599 379.469 472.511 381.648L483.781 394.474C485.7 396.654 488.968 396.928 491.08 395.09L506.323 382.938C508.435 381.1 508.598 377.838 506.686 375.658L495.415 362.832C493.503 360.645 490.235 360.371 488.116 362.217Z" fill="url(#paint14_radial)"/>
<path d="M466.998 366.895L465.59 365.316L479.232 354.988L480.617 356.597L466.998 366.895Z" fill="#A08BE8"/>
<path d="M458.513 357.487L457.112 355.908L471.028 345.432L472.414 347.041L458.513 357.487Z" fill="#A08BE8"/>
<path d="M502.515 241.616C495.601 219.79 483.033 206.801 483.033 206.801L487.443 204.021L487.502 203.865C459.544 173.424 413.008 166.322 376.78 189.126C335.966 214.823 323.702 268.751 349.385 309.579C375.069 350.407 428.97 362.684 469.777 336.988C501.981 316.711 516.401 278.863 508.443 243.737C507.961 242.328 506.561 240.156 502.515 241.616Z" fill="url(#paint15_radial)"/>
<path d="M508.701 244.76C508.701 244.76 508.272 239.533 502.536 241.601C495.712 220.042 483.374 207.112 483.07 206.801L406.405 255.065C406.405 255.065 401.27 257.615 404.042 262.027C406.82 266.438 414.845 278.797 423.515 292.594C425.301 295.433 428.48 295.337 430.31 294.188L509.035 244.626C508.827 244.708 508.701 244.76 508.701 244.76Z" fill="white"/>
<path d="M465.701 264.71C465.701 264.71 469.399 254.235 470.162 252.248C470.918 250.261 472.141 249.408 474.178 249.72C476.216 250.031 487.227 251.158 487.227 251.158L465.701 264.71Z" fill="#A08BE8"/>
<path d="M508.701 244.76C508.701 244.76 508.272 239.533 502.536 241.601C502.529 241.579 502.521 241.557 502.514 241.535L427.124 288.998C425.368 290.103 422.456 290.473 421.188 288.902C421.959 290.117 422.737 291.356 423.523 292.601C425.138 295.174 427.909 295.329 429.769 294.484C429.955 294.395 430.14 294.306 430.31 294.195L435.46 290.948L509.035 244.626C508.827 244.708 508.701 244.76 508.701 244.76Z" fill="#8065E0"/>
<path d="M510.598 260.351L383.175 340.576C389.095 343.638 395.32 345.995 401.737 347.634L508.924 280.153C510.221 273.659 510.791 267.016 510.598 260.351Z" fill="url(#paint16_linear)"/>
<path d="M361.1 197.289L374.239 186.695L361.515 174.692L352.09 182.298L361.1 197.289Z" fill="#D0C5F3"/>
<path d="M348.858 184.804C357.706 184.804 364.879 177.628 364.879 168.775C364.879 159.923 357.706 152.747 348.858 152.747C340.011 152.747 332.838 159.923 332.838 168.775C332.838 177.628 340.011 184.804 348.858 184.804Z" fill="url(#paint17_radial)"/>
<path d="M362.723 209.588C362.13 210.063 361.241 209.937 360.833 209.292C356.506 202.493 357.884 193.382 364.301 188.2C370.726 183.025 379.914 183.61 385.635 189.289C386.176 189.823 386.116 190.72 385.524 191.195L362.723 209.588Z" fill="url(#paint18_radial)"/>
<path d="M441.212 270.258C444.375 268.201 444.138 262.222 440.682 256.905C437.227 251.589 431.861 248.947 428.698 251.004C425.535 253.062 425.772 259.041 429.227 264.357C432.683 269.674 438.048 272.316 441.212 270.258Z" fill="#512BD4"/>
<path d="M487.459 241.076C490.683 239.114 490.624 233.131 487.328 227.713C484.032 222.295 478.748 219.494 475.524 221.457C472.301 223.42 472.36 229.403 475.656 234.821C478.952 240.238 484.236 243.039 487.459 241.076Z" fill="#512BD4"/>
<path d="M431.874 255.784C432.312 253.857 433.579 252.337 435.209 251.506C437.18 252.626 439.144 254.487 440.715 256.896C441.693 258.401 442.404 259.958 442.863 261.463C441.367 263.131 439.032 263.962 436.691 263.428C433.245 262.649 431.089 259.224 431.874 255.784Z" fill="#8065E0"/>
<path d="M478.194 226.181C478.632 224.253 479.899 222.733 481.536 221.903C483.633 223.052 485.723 225.069 487.338 227.73C488.161 229.087 488.783 230.481 489.206 231.837C487.709 233.528 485.36 234.373 483.004 233.832C479.565 233.046 477.416 229.628 478.194 226.181Z" fill="#8065E0"/>
<path d="M476.417 305.974L500.263 290.961L486.99 269.858L463.145 284.871L476.417 305.974Z" fill="#512BD4"/>
<path d="M475.238 296.256C475.06 296.367 474.868 296.404 474.667 296.367C474.467 296.323 474.312 296.219 474.201 296.048C474.089 295.878 474.06 295.685 474.112 295.485C474.156 295.285 474.275 295.122 474.453 295.011C474.638 294.892 474.83 294.855 475.031 294.899C475.238 294.944 475.394 295.048 475.505 295.218C475.609 295.389 475.638 295.574 475.586 295.782C475.534 295.982 475.423 296.137 475.238 296.256Z" fill="white"/>
<path d="M482.366 291.6L481.196 292.342L475.038 289.428C474.882 289.354 474.734 289.265 474.601 289.169L474.571 289.183C474.682 289.309 474.89 289.606 475.179 290.073L477.92 294.41L476.883 295.063L472.696 288.442L473.941 287.656L479.921 290.518C480.173 290.636 480.336 290.718 480.418 290.77L480.432 290.755C480.292 290.599 480.092 290.31 479.825 289.895L477.128 285.632L478.158 284.98L482.366 291.6Z" fill="white"/>
<path d="M487.405 288.405L483.781 290.696L479.595 284.075L483.07 281.873L483.663 282.807L481.255 284.335L482.44 286.21L484.656 284.809L485.241 285.736L483.026 287.137L484.263 289.094L486.812 287.478L487.405 288.405Z" fill="white"/>
<path d="M488.953 279.464L487.101 280.635L490.695 286.322L489.628 286.996L486.034 281.31L484.189 282.481L483.596 281.547L488.368 278.522L488.953 279.464Z" fill="white"/>
<path d="M475.467 312.618C462.722 326.363 445.227 334.63 426.694 335.861C424.33 336.016 422.359 337.736 421.87 340.057C421.426 342.199 423.115 344.201 425.301 344.112C446.613 343.215 466.842 333.933 481.447 318.179C482.981 316.525 482.885 313.938 481.232 312.411C479.58 310.869 476.994 310.965 475.467 312.618Z" fill="url(#paint19_linear)"/>
<path d="M458.876 200.907C442.544 191.543 423.293 188.889 405.168 193.315C402.997 193.849 400.744 192.848 399.655 190.891C398.528 188.874 399.603 186.324 401.833 185.731C422.381 180.319 444.36 183.166 462.929 193.812C464.886 194.932 465.56 197.43 464.441 199.387C463.33 201.352 460.832 202.027 458.876 200.907Z" fill="url(#paint20_radial)"/>
<path d="M326.814 338.767C322.012 338.767 317.04 337.751 312.357 335.008C299.701 327.579 293.002 310.068 291.868 281.466L308.155 280.821C309.015 302.484 313.431 316.733 320.604 320.944C325.599 323.873 333.283 322.627 344.102 317.126C355.795 311.18 374.735 295.871 374.92 295.715L385.183 308.385C384.353 309.06 364.717 324.94 351.482 331.665C347.384 333.74 337.507 338.767 326.814 338.767Z" fill="url(#paint21_linear)"/>
<path d="M380.87 314.82C389.726 314.82 396.906 307.637 396.906 298.777C396.906 289.916 389.726 282.733 380.87 282.733C372.014 282.733 364.835 289.916 364.835 298.777C364.835 307.637 372.014 314.82 380.87 314.82Z" fill="url(#paint22_radial)"/>
<path d="M179.702 120.156C220.102 177.983 265.355 232.897 314.202 283.371C375.269 346.462 442.159 402.755 513.015 450.678C513.333 450.893 513.696 450.997 514.052 450.997C514.645 450.997 515.23 450.708 515.586 450.182C516.156 449.336 515.934 448.18 515.089 447.609C444.464 399.842 377.788 343.734 316.914 280.843C268.208 230.525 223.088 175.774 182.807 118.124C150.195 71.4617 126.053 30.3669 109.662 0.00732422H105.453C121.911 30.6264 146.416 72.507 179.702 120.156Z" fill="#E1DFDD"/>
<path d="M298.804 293.076L307.881 290.933C311.838 289.999 314.291 286.025 313.357 282.066L312.905 280.153C311.971 276.194 308 273.74 304.043 274.674L294.965 276.817C291.008 277.751 288.556 281.725 289.489 285.684L289.941 287.597C290.875 291.556 294.847 294.01 298.804 293.076Z" fill="#D0C5F3"/>
<path d="M290.935 283.282L300.012 281.139C303.969 280.205 306.422 276.231 305.488 272.272L305.036 270.36C304.102 266.401 300.131 263.947 296.174 264.881L287.096 267.023C283.139 267.958 280.687 271.931 281.62 275.89L282.072 277.803C283.006 281.762 286.978 284.216 290.935 283.282Z" fill="#D0C5F3"/>
<path d="M283.332 274.237L292.402 272.094C296.359 271.16 298.811 267.186 297.878 263.227L297.426 261.315C296.492 257.356 292.52 254.902 288.563 255.836L279.486 257.978C275.529 258.913 273.076 262.886 274.01 266.845L274.462 268.758C275.403 272.725 279.367 275.179 283.332 274.237Z" fill="#D0C5F3"/>
<path d="M680.601 481.809L685.558 465.558C702.571 470.748 717.784 471.096 730.767 466.574C742.193 462.6 752.204 454.756 760.526 443.272L774.271 453.244C758.799 474.595 729.989 496.881 680.601 481.809Z" fill="#D0C5F3"/>
<path d="M743.257 460.813L741.601 461.854L750.517 476.046L752.173 475.004L743.257 460.813Z" fill="#A08BE8"/>
<path d="M675.295 467.115L666.329 453.918C663.965 450.382 664.906 445.6 668.441 443.235C671.975 440.87 676.755 441.811 679.119 445.348L688.315 458.886L675.295 467.115Z" fill="#D0C5F3"/>
<path d="M674.821 483.025L658.926 481.638C654.695 481.238 651.59 477.487 651.983 473.253C652.383 469.02 656.132 465.914 660.364 466.307L676.658 467.73L674.821 483.025Z" fill="#D0C5F3"/>
<path d="M675.769 471.971L659.919 470.184C655.695 469.68 652.687 465.847 653.191 461.621C653.695 457.395 657.526 454.385 661.749 454.89L678 456.728L675.769 471.971Z" fill="#D0C5F3"/>
<path d="M680.029 489.327L664.172 491.069C659.941 491.506 656.162 488.429 655.732 484.196C655.295 479.963 658.37 476.182 662.601 475.752L678.859 473.965L680.029 489.327Z" fill="#D0C5F3"/>
<path d="M683.083 489.801C691.98 489.801 699.193 482.585 699.193 473.684C699.193 464.782 691.98 457.566 683.083 457.566C674.186 457.566 666.974 464.782 666.974 473.684C666.974 482.585 674.186 489.801 683.083 489.801Z" fill="url(#paint23_radial)"/>
<path d="M728.388 467.343L726.535 467.969L731.896 483.85L733.75 483.224L728.388 467.343Z" fill="#A08BE8"/>
<path d="M711.182 469.698L711.021 486.46L712.977 486.479L713.138 469.717L711.182 469.698Z" fill="#A08BE8"/>
<path d="M1076.47 0.00741381C1064.35 34.8301 1050.08 70.0754 1033.58 106.003C1011.68 153.688 985.154 207.876 902.139 345.321C901.613 346.195 901.895 347.337 902.769 347.864C903.065 348.042 903.399 348.13 903.725 348.13C904.355 348.13 904.962 347.812 905.311 347.233C927.274 310.869 950.601 272.005 973.098 231.897C998.166 187.199 1019.06 146.519 1036.95 107.545C1053.69 71.0911 1068.14 35.3342 1080.4 0H1076.47V0.00741381Z" fill="#E1DFDD"/>
<path d="M1020.56 380.996C1020.21 380.996 1019.86 380.952 1019.51 380.855L891.676 346.774C889.498 346.196 888.208 343.957 888.786 341.784C889.364 339.605 891.602 338.315 893.773 338.893L1021.6 372.974C1023.78 373.553 1025.07 375.792 1024.49 377.964C1024.01 379.788 1022.36 380.996 1020.56 380.996Z" fill="#B3AFAB"/>
<path d="M947.326 399.805C968.534 391.575 1001.03 390.834 1002.89 390.901C1005.47 390.997 1006.61 391.583 1007.64 394.637C1009.57 400.376 1013.47 417.138 1013.47 417.138L950.216 413.706L947.326 399.805Z" fill="#8065E0"/>
<path d="M952.728 418.74C963.599 419.125 984.221 427.844 1002.05 445.837C1004.13 447.943 1006.2 448.921 1008.95 448.647L1013.26 447.869C1014.56 447.735 1015.51 446.616 1015.37 445.363L1012.06 413.943C1011.96 413.053 1011.15 412.416 1010.23 412.505L1000.1 413.52C996.944 413.839 995.262 413.387 992.609 410.488C985.97 403.245 965.837 400.265 951.869 401.503C937.901 402.741 952.728 418.74 952.728 418.74Z" fill="#A08BE8"/>
<path d="M1007.92 448.632C1008.61 448.758 1009.34 448.558 1010.13 448.476L1018.41 447.379C1019.71 447.246 1021.15 446.341 1021.01 445.088L1012.73 414.01C1012.64 413.12 1011.82 412.482 1010.9 412.571L1000.09 413.52C999.552 413.572 999.056 413.602 998.589 413.602L1007.92 448.632Z" fill="#D0C5F3"/>
<path d="M936.789 418.391L935.018 401.569C914.737 403.601 902.117 404.839 888.06 405.402C884.229 405.558 889.246 423.396 895.848 422.765C906.704 421.727 920.116 420.059 936.789 418.391Z" fill="url(#paint24_linear)"/>
<path d="M918.412 403.156L916.308 403.356L919.249 420.222L921.361 419.993L918.412 403.156Z" fill="#A08BE8"/>
<path d="M905.482 404.312L903.385 404.49L906.438 421.639L908.55 421.409L905.482 404.312Z" fill="#A08BE8"/>
<path d="M930.083 421.031L927.208 401.747C926.911 398.96 929.016 396.461 931.905 396.172L948.889 394.467C951.779 394.178 954.358 396.202 954.647 398.997L957.522 418.28C957.819 421.068 955.714 423.566 952.824 423.855L935.84 425.56C932.958 425.85 930.379 423.826 930.083 421.031Z" fill="url(#paint25_radial)"/>
<path d="M928.274 357.776C941.827 339.493 969.815 320.87 971.423 319.936C973.654 318.638 974.876 318.164 977.44 320.559C981.575 324.421 993.298 337.114 993.298 337.114L938.137 367.992L928.274 357.776Z" fill="#8065E0"/>
<path d="M942.939 370.906C952.343 365.427 974.432 361.802 999.108 367.503C1001.99 368.17 1004.27 367.896 1006.44 366.198L1009.67 363.233C1010.7 362.432 1010.9 360.979 1010.12 359.985L990.571 335.179C990.023 334.482 988.986 334.371 988.259 334.941L980.234 341.206C977.737 343.156 976.062 343.675 972.283 342.644C962.806 340.057 944.184 348.286 933.032 356.783C921.88 365.279 942.939 370.906 942.939 370.906Z" fill="#A08BE8"/>
<path d="M1005.56 366.739C1006.21 366.48 1006.73 365.916 1007.34 365.434L1013.77 360.081C1014.8 359.281 1015.53 357.746 1014.74 356.76L991.172 334.889C990.623 334.192 989.586 334.081 988.86 334.652L980.22 341.221C979.79 341.554 979.39 341.844 978.997 342.096L1005.56 366.739Z" fill="#D0C5F3"/>
<path d="M927.319 379.788L916.849 366.502C900.776 379.046 890.765 386.823 879.176 394.808C876.019 396.98 889.773 409.398 895.026 405.336C903.652 398.67 914.107 390.1 927.319 379.788Z" fill="url(#paint26_linear)"/>
<path d="M923.058 385.6L910.342 370.824C908.608 368.622 909.053 365.39 911.343 363.603L924.807 353.098C927.096 351.311 930.357 351.652 932.091 353.854L944.807 368.63C946.54 370.832 946.096 374.064 943.806 375.851L930.342 386.356C928.052 388.143 924.792 387.802 923.058 385.6Z" fill="url(#paint27_radial)"/>
<path d="M903.169 377.067L901.502 378.357L912.98 391.049L914.64 389.729L903.169 377.067Z" fill="#A08BE8"/>
<path d="M893.092 384.74L891.417 386.03L903.14 398.908L904.807 397.588L893.092 384.74Z" fill="#A08BE8"/>
<path d="M750.878 457.507C737.324 439.054 734.242 421.246 734.242 421.246L729.403 423.173L729.247 423.129C721.148 382.59 742.823 340.783 782.585 324.94C827.379 307.088 878.16 328.951 895.996 373.775C913.832 418.599 891.988 469.398 847.186 487.243C811.84 501.33 772.774 490.683 749.099 463.541C748.24 462.333 747.306 459.916 750.878 457.507Z" fill="url(#paint28_radial)"/>
<path d="M749.767 464.364C749.767 464.364 745.795 460.932 750.848 457.521C737.459 439.298 734.287 421.705 734.213 421.275L818.362 387.743C818.362 387.743 823.452 385.088 825.379 389.937C827.306 394.778 832.559 408.553 838.584 423.692C839.821 426.806 837.872 429.319 835.864 430.12L749.448 464.55C749.648 464.431 749.767 464.364 749.767 464.364Z" fill="white"/>
<path d="M791.218 441.359C791.218 441.359 780.577 438.179 778.532 437.623C776.487 437.067 775.071 437.549 774.123 439.38C773.174 441.211 767.595 450.775 767.595 450.775L791.218 441.359Z" fill="#A08BE8"/>
<path d="M749.766 464.364C749.766 464.364 745.794 460.932 750.848 457.521C750.833 457.499 750.818 457.484 750.803 457.462L833.552 424.493C835.478 423.729 837.494 421.587 836.968 419.637C837.494 420.979 838.035 422.335 838.583 423.699C839.709 426.524 838.205 428.852 836.419 429.86C836.241 429.957 836.056 430.053 835.864 430.127L830.21 432.381L749.447 464.557C749.647 464.431 749.766 464.364 749.766 464.364Z" fill="#8065E0"/>
<path d="M761.237 475.085L901.102 419.355C900.087 425.946 898.324 432.366 895.864 438.52L778.206 485.397C772.204 482.617 766.506 479.17 761.237 475.085Z" fill="url(#paint29_linear)"/>
<path d="M798.406 317.081L782.111 321.456L779.918 304.1L791.619 300.956L798.406 317.081Z" fill="#D0C5F3"/>
<path d="M782.6 306.413C791.448 306.413 798.62 299.237 798.62 290.384C798.62 281.532 791.448 274.355 782.6 274.355C773.752 274.355 766.579 281.532 766.579 290.384C766.579 299.237 773.752 306.413 782.6 306.413Z" fill="url(#paint30_radial)"/>
<path d="M807.387 325.637C808.12 325.437 808.535 324.644 808.261 323.939C805.319 316.429 797.153 312.173 789.188 314.316C781.222 316.459 776.279 324.236 777.495 332.206C777.606 332.962 778.369 333.436 779.103 333.236L807.387 325.637Z" fill="url(#paint31_radial)"/>
<path d="M810.146 424.861C813.672 423.516 814.701 417.622 812.443 411.695C810.186 405.768 805.498 402.053 801.971 403.397C798.445 404.742 797.417 410.636 799.674 416.563C801.932 422.49 806.62 426.205 810.146 424.861Z" fill="#512BD4"/>
<path d="M759.299 445.039C762.783 443.59 763.636 437.668 761.203 431.811C758.77 425.955 753.973 422.382 750.488 423.831C747.004 425.28 746.152 431.202 748.585 437.058C751.018 442.915 755.815 446.488 759.299 445.039Z" fill="#512BD4"/>
<path d="M803.942 408.753C802.126 407.975 800.155 408.101 798.525 408.924C798.273 411.178 798.614 413.861 799.636 416.553C800.274 418.228 801.111 419.718 802.059 420.979C804.29 420.749 806.335 419.355 807.283 417.146C808.677 413.913 807.18 410.155 803.942 408.753Z" fill="#8065E0"/>
<path d="M752.737 428.756C750.922 427.977 748.951 428.103 747.313 428.934C747.002 431.299 747.402 434.19 748.595 437.059C749.203 438.527 749.966 439.847 750.811 440.989C753.056 440.774 755.123 439.372 756.079 437.156C757.472 433.908 755.976 430.15 752.737 428.756Z" fill="#8065E0"/>
<path d="M808.962 451.148L782.789 461.577L792.009 484.74L818.182 474.311L808.962 451.148Z" fill="#512BD4"/>
<path d="M792.404 474.996C792.204 475.07 792.011 475.07 791.819 474.996C791.626 474.914 791.493 474.781 791.418 474.595C791.344 474.402 791.352 474.217 791.433 474.024C791.522 473.832 791.663 473.698 791.863 473.624C792.063 473.542 792.263 473.55 792.456 473.631C792.649 473.713 792.782 473.846 792.863 474.039C792.937 474.225 792.93 474.417 792.841 474.603C792.745 474.788 792.604 474.914 792.404 474.996Z" fill="white"/>
<path d="M800.288 471.785L798.999 472.29L793.508 468.256C793.367 468.153 793.241 468.041 793.13 467.915L793.1 467.93C793.189 468.079 793.33 468.405 793.53 468.916L795.397 473.698L794.256 474.143L791.403 466.848L792.774 466.314L798.102 470.266C798.324 470.429 798.473 470.54 798.547 470.607L798.569 470.599C798.458 470.421 798.317 470.095 798.139 469.635L796.301 464.935L797.435 464.49L800.288 471.785Z" fill="white"/>
<path d="M805.838 469.613L801.844 471.178L798.991 463.882L802.822 462.385L803.222 463.415L800.57 464.453L801.377 466.522L803.823 465.565L804.223 466.588L801.777 467.545L802.622 469.702L805.431 468.605L805.838 469.613Z" fill="white"/>
<path d="M809.062 461.124L807.017 461.925L809.462 468.19L808.284 468.649L805.838 462.385L803.801 463.178L803.4 462.147L808.662 460.086L809.062 461.124Z" fill="white"/>
<path d="M870.884 361.231C859.213 346.559 842.385 336.995 824.001 334.37C821.652 334.037 819.814 332.176 819.51 329.818C819.228 327.646 821.066 325.778 823.237 326.037C844.423 328.543 863.889 339.33 877.272 356.137C878.68 357.902 878.383 360.475 876.62 361.876C874.856 363.284 872.292 362.995 870.884 361.231Z" fill="url(#paint32_linear)"/>
<path d="M743.712 398.248C745.772 379.535 754.975 362.402 769.233 350.362C770.937 348.924 771.463 346.507 770.529 344.475C769.559 342.377 766.869 341.74 765.083 343.2C748.603 356.619 737.955 376.066 735.606 397.351C735.361 399.59 736.976 401.606 739.214 401.858C741.452 402.103 743.468 400.487 743.712 398.248Z" fill="url(#paint33_radial)"/>
<path d="M905.318 482.899L889.09 477.894C894.329 460.887 894.707 445.667 890.224 432.663C886.282 421.223 878.472 411.185 867.016 402.822L877.019 389.099C898.323 404.646 920.516 433.53 905.318 482.899Z" fill="#D0C5F3"/>
<path d="M898.631 411.292L884.424 420.174L885.46 421.834L899.668 412.952L898.631 411.292Z" fill="#A08BE8"/>
<path d="M890.625 488.177L877.405 497.111C873.863 499.469 869.091 498.505 866.734 494.969C864.378 491.425 865.341 486.65 868.876 484.293L882.429 475.129L890.625 488.177Z" fill="#D0C5F3"/>
<path d="M906.519 488.689L905.089 504.584C904.681 508.817 900.917 511.916 896.686 511.509C892.454 511.101 889.357 507.335 889.765 503.101L891.232 486.798L906.519 488.689Z" fill="#D0C5F3"/>
<path d="M895.478 487.71L893.648 503.561C893.129 507.78 889.291 510.782 885.074 510.263C880.858 509.744 877.857 505.904 878.368 501.686L880.25 485.427L895.478 487.71Z" fill="#D0C5F3"/>
<path d="M912.832 483.492L914.529 499.357C914.951 503.591 911.868 507.364 907.637 507.787C903.406 508.21 899.634 505.125 899.212 500.892L897.471 484.619L912.832 483.492Z" fill="#D0C5F3"/>
<path d="M897.204 496.518C906.101 496.518 913.314 489.302 913.314 480.4C913.314 471.499 906.101 464.283 897.204 464.283C888.307 464.283 881.095 471.499 881.095 480.4C881.095 489.302 888.307 496.518 897.204 496.518Z" fill="url(#paint34_radial)"/>
<path d="M906.913 429.745L891.025 435.066L891.646 436.922L907.534 431.602L906.913 429.745Z" fill="#A08BE8"/>
<path d="M893.331 450.349L893.307 452.306L910.059 452.512L910.083 450.555L893.331 450.349Z" fill="#A08BE8"/>
<path d="M868.712 408.901C877.568 408.901 884.748 401.719 884.748 392.858C884.748 383.997 877.568 376.814 868.712 376.814C859.856 376.814 852.677 383.997 852.677 392.858C852.677 401.719 859.856 408.901 868.712 408.901Z" fill="url(#paint35_radial)"/>
<path d="M362.397 325.155C362.938 324.799 363.486 324.436 364.027 324.065L355.35 310.253L355.32 310.268C354.787 310.632 354.253 310.987 353.72 311.343L362.397 325.155Z" fill="#A08BE8"/>
<path d="M338.685 319.639L336.832 320.373L342.049 335.831C342.679 335.601 343.294 335.371 343.886 335.141L338.685 319.639Z" fill="#A08BE8"/>
<path d="M296.21 311.506C296.403 312.144 296.595 312.766 296.795 313.374L312.164 307.903C311.971 307.295 311.779 306.672 311.593 306.027L296.21 311.506Z" fill="#A08BE8"/>
<path d="M308 331.835C309.363 333.036 310.816 334.096 312.357 335.001C314.61 336.32 316.929 337.232 319.263 337.833L322.116 321.641C321.59 321.441 320.627 321.122 320.086 320.662C317.218 323.665 311.498 328.832 308 331.835Z" fill="#A08BE8"/>
<path d="M504.789 459.931C503.433 459.931 502.114 459.256 501.335 458.026C500.135 456.12 500.706 453.6 502.61 452.406L616.955 380.359C618.859 379.157 621.379 379.728 622.572 381.634C623.772 383.539 623.201 386.06 621.297 387.253L506.952 459.301C506.285 459.723 505.537 459.931 504.789 459.931Z" fill="#B3AFAB"/>
<defs>
<linearGradient id="paint0_linear" x1="353.254" y1="0.00742428" x2="353.254" y2="720.008" gradientUnits="userSpaceOnUse">
<stop offset="0.3268" stop-color="#E3646A"/>
<stop offset="1" stop-color="#EE8F94"/>
</linearGradient>
<linearGradient id="paint1_linear" x1="552.291" y1="0.00742428" x2="552.291" y2="720.008" gradientUnits="userSpaceOnUse">
<stop offset="0.3268" stop-color="#E3646A"/>
<stop offset="1" stop-color="#EE8F94"/>
</linearGradient>
<linearGradient id="paint2_linear" x1="154.218" y1="0.00742428" x2="154.218" y2="720.008" gradientUnits="userSpaceOnUse">
<stop offset="0.3268" stop-color="#E3646A"/>
<stop offset="1" stop-color="#EE8F94"/>
</linearGradient>
<linearGradient id="paint3_linear" x1="1149.4" y1="0.00742428" x2="1149.4" y2="720.008" gradientUnits="userSpaceOnUse">
<stop offset="0.3268" stop-color="#E3646A"/>
<stop offset="1" stop-color="#EE8F94"/>
</linearGradient>
<linearGradient id="paint4_linear" x1="751.328" y1="0.00742428" x2="751.328" y2="720.008" gradientUnits="userSpaceOnUse">
<stop offset="0.3268" stop-color="#E3646A"/>
<stop offset="1" stop-color="#EE8F94"/>
</linearGradient>
<linearGradient id="paint5_linear" x1="950.364" y1="0.00742428" x2="950.364" y2="720.008" gradientUnits="userSpaceOnUse">
<stop offset="0.3268" stop-color="#E3646A"/>
<stop offset="1" stop-color="#EE8F94"/>
</linearGradient>
<linearGradient id="paint6_linear" x1="552.291" y1="681.258" x2="552.291" y2="22.5875" gradientUnits="userSpaceOnUse">
<stop offset="0.4862" stop-color="#FFFACF"/>
<stop offset="1" stop-color="#FAE969"/>
</linearGradient>
<linearGradient id="paint7_linear" x1="751.328" y1="683.338" x2="751.328" y2="20.5073" gradientUnits="userSpaceOnUse">
<stop offset="0.4862" stop-color="#FFFACF"/>
<stop offset="1" stop-color="#FAE969"/>
</linearGradient>
<linearGradient id="paint8_linear" x1="365.132" y1="568.273" x2="365.132" y2="135.572" gradientUnits="userSpaceOnUse">
<stop offset="0.4862" stop-color="#FFFACF"/>
<stop offset="1" stop-color="#FAE969"/>
</linearGradient>
<linearGradient id="paint9_linear" x1="945.74" y1="584.246" x2="945.74" y2="119.599" gradientUnits="userSpaceOnUse">
<stop offset="0.4862" stop-color="#FFFACF"/>
<stop offset="1" stop-color="#FAE969"/>
</linearGradient>
<linearGradient id="paint10_linear" x1="477.198" y1="322.963" x2="525.763" y2="308.337" gradientUnits="userSpaceOnUse">
<stop offset="0.2368" stop-color="#958FE7"/>
<stop offset="0.3961" stop-color="#BBB7EF"/>
</linearGradient>
<radialGradient id="paint11_radial" cx="0" cy="0" r="1" gradientUnits="userSpaceOnUse" gradientTransform="translate(526.984 303.766) scale(15.1157 15.1234)">
<stop stop-color="#8065E0"/>
<stop offset="1" stop-color="#512BD4"/>
</radialGradient>
<radialGradient id="paint12_radial" cx="0" cy="0" r="1" gradientUnits="userSpaceOnUse" gradientTransform="translate(305.025 262.906) scale(26.9892 27.0028)">
<stop stop-color="#A08BE8"/>
<stop offset="1" stop-color="#8065E0"/>
</radialGradient>
<linearGradient id="paint13_linear" x1="448.882" y1="340.464" x2="488.521" y2="372.123" gradientUnits="userSpaceOnUse">
<stop offset="0.2368" stop-color="#958FE7"/>
<stop offset="0.3961" stop-color="#BBB7EF"/>
</linearGradient>
<radialGradient id="paint14_radial" cx="0" cy="0" r="1" gradientUnits="userSpaceOnUse" gradientTransform="translate(485.068 370.964) scale(18.0399 18.049)">
<stop stop-color="#8065E0"/>
<stop offset="1" stop-color="#512BD4"/>
</radialGradient>
<radialGradient id="paint15_radial" cx="0" cy="0" r="1" gradientUnits="userSpaceOnUse" gradientTransform="translate(435.523 238.391) rotate(-32.1933) scale(110.067 110.092)">
<stop offset="0.3472" stop-color="#A08BE8"/>
<stop offset="0.684" stop-color="#8065E0"/>
<stop offset="0.7596" stop-color="#8065E0"/>
</radialGradient>
<linearGradient id="paint16_linear" x1="356.717" y1="367.416" x2="483.658" y2="286.43" gradientUnits="userSpaceOnUse">
<stop offset="0.2368" stop-color="#958FE7"/>
<stop offset="0.8039" stop-color="#BDB9F0"/>
</linearGradient>
<radialGradient id="paint17_radial" cx="0" cy="0" r="1" gradientUnits="userSpaceOnUse" gradientTransform="translate(346.042 163.285) scale(16.0201 16.0282)">
<stop stop-color="#A08BE8"/>
<stop offset="1" stop-color="#8065E0"/>
</radialGradient>
<radialGradient id="paint18_radial" cx="0" cy="0" r="1" gradientUnits="userSpaceOnUse" gradientTransform="translate(371.234 192.169) scale(13.2358 13.2425)">
<stop stop-color="#8065E0"/>
<stop offset="1" stop-color="#512BD4"/>
</radialGradient>
<linearGradient id="paint19_linear" x1="425.672" y1="322.257" x2="478.964" y2="333.379" gradientUnits="userSpaceOnUse">
<stop stop-color="#8065E0"/>
<stop offset="1" stop-color="#A08BE8"/>
</linearGradient>
<radialGradient id="paint20_radial" cx="0" cy="0" r="1" gradientUnits="userSpaceOnUse" gradientTransform="translate(432.196 193.427) rotate(-119.119) scale(24.557 24.5504)">
<stop offset="0.2632" stop-color="#BDB9F0"/>
<stop offset="0.4345" stop-color="#CEC3E2" stop-opacity="0.7675"/>
<stop offset="0.7974" stop-color="#EDD6C9" stop-opacity="0.2749"/>
<stop offset="1" stop-color="#F9DDBF" stop-opacity="0"/>
</radialGradient>
<linearGradient id="paint21_linear" x1="385.182" y1="309.788" x2="291.865" y2="309.788" gradientUnits="userSpaceOnUse">
<stop offset="0.3021" stop-color="#958FE7"/>
<stop offset="0.4799" stop-color="#BBB7EF"/>
</linearGradient>
<radialGradient id="paint22_radial" cx="0" cy="0" r="1" gradientUnits="userSpaceOnUse" gradientTransform="translate(378.164 290.421) scale(30.4907 30.5061)">
<stop stop-color="#8065E0"/>
<stop offset="0.6947" stop-color="#512BD4"/>
</radialGradient>
<radialGradient id="paint23_radial" cx="0" cy="0" r="1" gradientUnits="userSpaceOnUse" gradientTransform="translate(683.905 464.188) scale(27.1626 27.1762)">
<stop stop-color="#A08BE8"/>
<stop offset="1" stop-color="#8065E0"/>
</radialGradient>
<linearGradient id="paint24_linear" x1="886.564" y1="410.191" x2="937.142" y2="414.021" gradientUnits="userSpaceOnUse">
<stop offset="0.2368" stop-color="#958FE7"/>
<stop offset="0.3961" stop-color="#BBB7EF"/>
</linearGradient>
<radialGradient id="paint25_radial" cx="0" cy="0" r="1" gradientUnits="userSpaceOnUse" gradientTransform="translate(937.289 403.425) scale(15.3764 15.3841)">
<stop stop-color="#8065E0"/>
<stop offset="1" stop-color="#512BD4"/>
</radialGradient>
<linearGradient id="paint26_linear" x1="880.453" y1="399.668" x2="925.285" y2="375.938" gradientUnits="userSpaceOnUse">
<stop offset="0.2368" stop-color="#958FE7"/>
<stop offset="0.3961" stop-color="#BBB7EF"/>
</linearGradient>
<radialGradient id="paint27_radial" cx="0" cy="0" r="1" gradientUnits="userSpaceOnUse" gradientTransform="translate(918.082 364.666) scale(18.0289 18.038)">
<stop stop-color="#8065E0"/>
<stop offset="1" stop-color="#512BD4"/>
</radialGradient>
<radialGradient id="paint28_radial" cx="0" cy="0" r="1" gradientUnits="userSpaceOnUse" gradientTransform="translate(787.641 401.444) rotate(158.274) scale(110.053 110.093)">
<stop offset="0.3472" stop-color="#A08BE8"/>
<stop offset="0.684" stop-color="#8065E0"/>
<stop offset="0.7596" stop-color="#8065E0"/>
</radialGradient>
<linearGradient id="paint29_linear" x1="938.345" y1="413.784" x2="798.11" y2="468.562" gradientUnits="userSpaceOnUse">
<stop offset="0.5041" stop-color="#958FE7"/>
<stop offset="0.8039" stop-color="#BDB9F0"/>
</linearGradient>
<radialGradient id="paint30_radial" cx="0" cy="0" r="1" gradientUnits="userSpaceOnUse" gradientTransform="translate(783.862 285.888) scale(16.0236 16.0317)">
<stop stop-color="#A08BE8"/>
<stop offset="1" stop-color="#8065E0"/>
</radialGradient>
<radialGradient id="paint31_radial" cx="0" cy="0" r="1" gradientUnits="userSpaceOnUse" gradientTransform="translate(791.332 318.711) scale(12.9606 12.9672)">
<stop stop-color="#8065E0"/>
<stop offset="1" stop-color="#512BD4"/>
</radialGradient>
<linearGradient id="paint32_linear" x1="821.719" y1="347.901" x2="875.695" y2="340.828" gradientUnits="userSpaceOnUse">
<stop stop-color="#8065E0"/>
<stop offset="1" stop-color="#A08BE8"/>
</linearGradient>
<radialGradient id="paint33_radial" cx="0" cy="0" r="1" gradientUnits="userSpaceOnUse" gradientTransform="translate(753.272 372.321) rotate(-114.755) scale(24.5573 24.5493)">
<stop offset="0.2632" stop-color="#BDB9F0"/>
<stop offset="0.4345" stop-color="#CEC3E2" stop-opacity="0.7675"/>
<stop offset="0.7974" stop-color="#EDD6C9" stop-opacity="0.2749"/>
<stop offset="1" stop-color="#F9DDBF" stop-opacity="0"/>
</radialGradient>
<radialGradient id="paint34_radial" cx="0" cy="0" r="1" gradientUnits="userSpaceOnUse" gradientTransform="translate(897.561 469.167) scale(25.1483 25.1609)">
<stop stop-color="#A08BE8"/>
<stop offset="1" stop-color="#8065E0"/>
</radialGradient>
<radialGradient id="paint35_radial" cx="0" cy="0" r="1" gradientUnits="userSpaceOnUse" gradientTransform="translate(862.732 388.336) scale(16.0331 16.0411)">
<stop stop-color="#8065E0"/>
<stop offset="1" stop-color="#512BD4"/>
</radialGradient>
</defs>
</svg>
