<svg width="636" height="300" viewBox="0 0 636 300" fill="none" xmlns="http://www.w3.org/2000/svg">
<path d="M389 247.96L392.84 247.99L409.95 194.59C412.14 187.4 414.47 186.03 417.14 186.15L450.57 190.79C445.99 192.66 443.16 196.11 442.62 200.69L438.36 241.32H442.24L446.87 200.72C447.81 195.51 451.73 193.85 456.21 193.06C456.29 193.06 456.36 193.07 456.45 193.07C456.6 193.06 456.78 193.06 456.96 193.05C458.48 194.7 459.68 197.04 460.08 200.56L460.33 249.17H464.2L463.93 200.21C463.52 197 462.71 194.63 461.61 192.81C467.63 192.49 477.1 192.02 485.97 192.01C488.23 192.35 489.86 193.62 490.5 196.06L502.95 246.42H506.93L494.25 195.2C493 190.44 488.43 187.12 483.16 187.12L422.01 182.93L420.49 182.73L420.37 182.82L417.66 182.63C410.87 182.4 408.22 186.35 407.55 189.12L389 247.96Z" fill="#E1DFDD"/>
<path d="M467.73 184.35C467.73 184.35 484.8 188.66 493.4 188.66C502 188.66 506.28 181.02 508.5 169.12C510.72 157.21 515 121.33 512.66 110.91C511 103.5 506 100.59 497.68 100.33C492.69 100.17 481.59 99.8 471.32 101.39C461.06 102.98 454.05 117.66 447.74 127.32C428.88 156.16 416.56 174.83 416.56 174.83L467.73 184.35Z" fill="#84817D"/>
<path d="M415.04 182.8L468.92 189.87C473.04 189.87 501.32 185.53 501.32 181.44V177.75C501.32 173.65 486.2 171.06 482.09 171.06L415.04 164.29C410.92 164.29 407.59 167.61 407.59 171.71V175.4C407.59 179.48 410.93 182.8 415.04 182.8Z" fill="#6D6A66"/>
<path d="M513.14 114.43C514.21 127.78 510.5 158.32 508.49 169.12C506.27 181.03 501.83 188.96 493.23 188.96L469 189.9C467.77 189.9 467.11 188.47 467.92 187.54C479.57 174.12 506.8 139.4 513.14 114.43Z" fill="#605D5A"/>
<path d="M443.18 196.16C441.89 195.24 441.74 193.24 442.85 191.69L455.72 173.74C456.83 172.2 463.74 172.54 462.63 174.08L447.52 195.04C446.42 196.58 444.47 197.08 443.18 196.16Z" fill="#57AA9A"/>
<path d="M432.76 192.03L433.68 190.74C435.15 188.69 438 188.22 440.06 189.69L447.65 195.13C449.7 196.6 450.17 199.45 448.7 201.51L447.78 202.8L432.76 192.03Z" fill="#38776B"/>
<path d="M424.31 192.47C423.13 191.41 423.2 189.4 424.47 187.99L439.24 171.56C440.51 170.15 442.49 169.86 443.67 170.93C444.85 171.99 444.78 174 443.51 175.41L428.74 191.84C427.48 193.25 425.49 193.53 424.31 192.47Z" fill="#57AA9A"/>
<path d="M427.89 199.55L428.95 198.37C430.64 196.49 430.48 193.6 428.61 191.92L421.67 185.68C419.79 183.99 416.9 184.15 415.22 186.02L414.16 187.2L427.89 199.55Z" fill="#38776B"/>
<path d="M468.24 78.34V65.21C468.24 63.78 466.28 63.39 465.73 64.71L460.23 77.85C459.87 78.71 460.5 79.66 461.44 79.66H466.94C467.66 79.65 468.24 79.07 468.24 78.34Z" fill="#9FE0D7"/>
<path d="M477.4 78.34V65.21C477.4 63.78 475.44 63.39 474.89 64.71L469.39 77.85C469.03 78.71 469.66 79.66 470.6 79.66H476.1C476.82 79.65 477.4 79.07 477.4 78.34Z" fill="#9FE0D7"/>
<path d="M465.11 102.15H458.29V138.75H465.11V102.15Z" fill="#45897C"/>
<path d="M488.54 99.14L487.39 86.06C486.91 80.64 482.37 76.48 476.93 76.48H445.99C440.55 76.48 436.01 80.64 435.53 86.06L434.38 99.14C434.25 100.58 435.38 101.81 436.83 101.81H454.58C455.35 105.17 458.36 107.68 461.96 107.68C465.56 107.68 468.56 105.17 469.34 101.81H486.11C487.53 101.82 488.66 100.58 488.54 99.14Z" fill="#64BFAF"/>
<path d="M456.49 87.2H435.43L434.66 95.97H456.5C458.36 95.97 459.87 94.46 459.87 92.6V90.57C459.86 88.71 458.35 87.2 456.49 87.2Z" fill="#38776B"/>
<path d="M435.34 94.59C437.179 94.59 438.67 93.0992 438.67 91.2601C438.67 89.4209 437.179 87.9301 435.34 87.9301C433.501 87.9301 432.01 89.4209 432.01 91.2601C432.01 93.0992 433.501 94.59 435.34 94.59Z" fill="#CFECE9"/>
<path d="M446.06 94.59C447.899 94.59 449.39 93.0992 449.39 91.2601C449.39 89.4209 447.899 87.9301 446.06 87.9301C444.221 87.9301 442.73 89.4209 442.73 91.2601C442.73 93.0992 444.221 94.59 446.06 94.59Z" fill="#CFECE9"/>
<path d="M434.2 173.29L478.11 176.03C485.36 176.03 494.68 162.06 494.19 156.43L490.01 114.95C489.87 113.36 488.54 112.14 486.94 112.14H434.68C433.17 112.14 431.92 113.29 431.78 114.79L425.37 158.19C424.88 163.83 425.38 171.92 434.2 173.29Z" fill="#57AA9A"/>
<path d="M280.18 246.55L294.55 189.44C295.34 186.3 298.22 184.11 301.55 184.11H362.29C365.46 184.11 368.3 186.17 369.2 189.11L385.06 240.92H388.91L372.73 188.08C371.37 183.63 367.07 180.52 362.28 180.52H301.54C296.5 180.52 292.15 183.83 290.95 188.58L276.36 246.54H280.18V246.55Z" fill="#E1DFDD"/>
<path d="M290.89 241.32L303.33 189.44C304.12 186.3 307 184.11 310.33 184.11H354.54C357.71 184.11 360.55 186.17 361.45 189.11L379.3 246.8H383.15L364.98 188.08C363.62 183.63 359.32 180.52 354.53 180.52H310.32C305.28 180.52 300.93 183.83 299.73 188.58L287.07 241.31H290.89V241.32Z" fill="#E1DFDD"/>
<path d="M284.03 170.69L298.67 111.16C300.75 102.75 308.74 96.8 317.93 96.8H340.99C351.28 96.8 357.94 101.78 360.89 111.04C366.22 127.75 373.5 154.03 377.28 169.29C378.63 174.68 282.27 180.06 284.03 170.69Z" fill="#84817D"/>
<path d="M368.87 180.83H292.69C287.84 180.83 283.91 176.9 283.91 172.05C283.91 167.2 287.84 163.27 292.69 163.27H368.87C373.72 163.27 377.65 167.2 377.65 172.05C377.66 176.89 373.72 180.83 368.87 180.83Z" fill="#6D6A66"/>
<path d="M182.59 191.85C181.9 188.99 179.16 184.93 172.16 185.16L169.36 185.35L169.23 185.26L167.66 185.47L104.63 189.79C99.19 189.79 94.49 193.22 93.2 198.12L81.11 249.51H85.21L97.08 199C97.74 196.48 99.43 195.17 101.75 194.82C110.89 194.82 120.66 195.31 126.86 195.64C125.73 197.52 124.89 199.96 124.47 203.27L123.06 236.58H127.05L128.44 203.63C128.85 200.01 130.09 197.59 131.66 195.89C131.85 195.9 132.03 195.91 132.19 195.91C132.28 195.91 132.36 195.9 132.44 195.9C137.05 196.71 141.1 198.42 142.06 203.79L148 257.77H152L146.45 203.76C145.9 199.05 142.98 195.49 138.26 193.56L172.72 188.78C175.48 188.66 177.88 190.07 178.78 192.9L194.61 244.33L197.99 242.58L182.59 191.85Z" fill="#E1DFDD"/>
<path d="M120.55 186.94C120.55 186.94 102.96 191.38 94.09 191.38C85.22 191.38 80.82 183.51 78.53 171.24C76.24 158.97 71.83 121.98 74.24 111.24C75.96 103.6 81.1 100.6 89.68 100.33C94.82 100.17 106.27 99.78 116.85 101.42C127.43 103.06 134.65 118.2 141.16 128.15C160.61 157.88 173.3 177.12 173.3 177.12L120.55 186.94Z" fill="#84817D"/>
<path d="M174.86 185.34L119.32 192.62C115.08 192.62 85.92 188.15 85.92 183.93V180.13C85.92 175.91 101.5 173.23 105.74 173.23L174.85 166.25C179.09 166.25 182.53 169.67 182.53 173.9V177.7C182.54 181.92 179.1 185.34 174.86 185.34Z" fill="#6D6A66"/>
<path d="M541.65 253.7L531.77 163.15L522.98 168.51L538.41 253.66L541.65 253.7Z" fill="#C8C6C4"/>
<path d="M191.79 261.33L188.07 261.29L201.03 167.63L212.15 166.92L191.79 261.33Z" fill="#C8C6C4"/>
<path d="M219.99 246.41L237.09 165.5L227.31 166.66L216.75 246.37L219.99 246.41Z" fill="#C8C6C4"/>
<path d="M518.04 268.53L521.76 268.57L511.03 170.36L499.54 169.36L518.04 268.53Z" fill="#C8C6C4"/>
<path d="M204.26 124.64C204 125.34 197.65 141.94 183.17 146.3C174.81 148.82 165.69 146.76 156.06 140.18L160.37 133.3C167.81 138.38 174.59 140.06 180.52 138.29C191.34 135.06 196.59 121.47 196.65 121.34L204.26 124.64Z" fill="#8A6FE8"/>
<path d="M150.45 192.01C151.77 185.34 153.3 171.58 148.15 158.86L140.28 161.64C144.95 173.18 143.21 185.3 142.08 190.52C141.98 190.95 146.17 192.14 150.45 192.01Z" fill="url(#paint0_linear)"/>
<path d="M142.09 190.45L148.68 191.65L148.6 226.22L135.38 223.82C134.37 223.64 133.76 222.72 134 221.78L142.09 190.45Z" fill="#522CD5"/>
<path d="M164.31 220.04C165.29 221.11 165.04 222.34 164.71 223.63L163.69 227.58C163.51 228.29 162.74 228.75 161.98 228.62L148.21 226.12C147.35 225.96 146.83 225.19 147.04 224.39L147.9 220.26C148.28 218.77 147.86 218.12 146.89 216.47C145.24 213.65 141.47 199.25 143.67 190.74L150.45 191.97C149.96 197.17 154.95 209.86 164.31 220.04Z" fill="url(#paint1_linear)"/>
<path d="M164.71 223.63C164.94 222.73 165.12 221.86 164.88 221.05L147.7 217.93C148.05 218.68 148.14 219.3 147.9 220.25L147.04 224.38C146.83 225.18 147.36 225.96 148.21 226.11L161.98 228.61C162.74 228.75 163.5 228.28 163.69 227.57L164.71 223.63Z" fill="url(#paint2_radial)"/>
<path d="M124.75 188.45C131.56 180.99 135.75 176.67 135.55 174.52C135.5 173.99 134.83 172.91 131.92 170.81C129.46 169.04 126.6 167.01 126.59 167.01L131.72 160.43C131.72 160.43 134.62 162.48 137.11 164.27C140.44 166.67 143.56 169.45 143.93 173.56C144.44 179.2 141.59 182.23 131.54 193.24L124.75 188.45Z" fill="url(#paint3_linear)"/>
<path d="M173.54 132.69C174.71 121.4 171.35 113.04 171.35 113.04L174.03 112.64L174.09 112.58C166.93 93.27 146.09 80.95 124.04 84.26C99.2 87.99 82.25 110.15 86.17 133.75C90.1 157.35 113.42 173.45 138.26 169.72C157.86 166.78 172.55 152.36 175.94 134.81C176.01 134.08 175.78 132.82 173.54 132.69Z" fill="url(#paint4_radial)"/>
<path d="M173.63 142.79L95.97 154.46C98.18 157.01 100.68 159.3 103.42 161.3L168.76 151.48C170.72 148.77 172.36 145.86 173.63 142.79Z" fill="#D8CFF7"/>
<path d="M151.37 156.48L165.95 154.29L163.91 142.04L149.33 144.23L151.37 156.48Z" fill="#512BD4"/>
<path d="M153.15 151.53C153.05 151.54 152.97 151.53 152.89 151.47C152.81 151.42 152.77 151.35 152.75 151.26C152.74 151.17 152.76 151.09 152.81 151.02C152.87 150.95 152.94 150.9 153.04 150.89C153.14 150.88 153.23 150.89 153.31 150.95C153.39 151 153.44 151.07 153.45 151.16C153.46 151.25 153.44 151.33 153.38 151.4C153.33 151.47 153.25 151.51 153.15 151.53Z" fill="white"/>
<path d="M157.02 150.9L156.39 150.99L154.32 148.75C154.27 148.69 154.22 148.63 154.18 148.57H154.17C154.19 148.64 154.23 148.79 154.27 149.03L154.63 151.25L154.07 151.33L153.52 147.94L154.19 147.84L156.19 150.03C156.27 150.12 156.33 150.18 156.35 150.22H156.36C156.33 150.13 156.3 149.98 156.26 149.77L155.9 147.59L156.46 147.51L157.02 150.9Z" fill="white"/>
<path d="M159.74 150.5L157.79 150.79L157.24 147.4L159.11 147.12L159.19 147.6L157.89 147.79L158.05 148.75L159.25 148.57L159.33 149.04L158.13 149.22L158.29 150.22L159.66 150.02L159.74 150.5Z" fill="white"/>
<path d="M162.04 147.18L161.04 147.33L161.52 150.24L160.94 150.33L160.46 147.42L159.46 147.57L159.38 147.09L161.95 146.71L162.04 147.18Z" fill="white"/>
<path d="M173.64 132.68C174.79 121.53 171.53 113.24 171.45 113.04L124.79 120.05C124.79 120.05 121.8 120.21 122.23 122.76C122.65 125.31 123.96 132.5 125.29 140.48C125.56 142.12 127.11 142.7 128.22 142.53C128.22 142.52 172.76 134.62 173.64 132.68Z" fill="url(#paint5_radial)"/>
<path d="M145.8 136.88C145.8 136.88 152.08 130.41 153.31 129.2C154.54 127.99 155.76 127.75 157.22 128.61C158.68 129.47 166.75 133.73 166.75 133.73L145.8 136.88Z" fill="#A08BE8"/>
<path d="M175.86 135.38C175.86 135.38 176.82 132.85 173.64 132.67C173.64 132.66 127.76 139.53 127.76 139.53C126.69 139.69 125.22 139.29 124.93 138.33C125.05 139.03 125.17 139.75 125.29 140.47C125.54 141.96 126.83 142.57 127.9 142.55C128.01 142.55 128.11 142.54 128.22 142.53L131.36 142.06L175.86 135.38Z" fill="#512BD4"/>
<path d="M138.433 133.757C140.363 133.382 141.442 130.574 140.843 127.483C140.244 124.393 138.193 122.191 136.263 122.565C134.333 122.94 133.254 125.748 133.853 128.839C134.453 131.929 136.503 134.131 138.433 133.757Z" fill="#512BD4"/>
<path d="M136.85 125.35C137.45 124.56 138.37 124.11 139.33 124.05C140.04 124.95 140.6 126.17 140.86 127.58C141.02 128.46 141.04 129.3 140.95 130.08C139.89 130.55 138.6 130.47 137.59 129.77C136.1 128.74 135.77 126.76 136.85 125.35Z" fill="#8065E0"/>
<path d="M189.68 113.36L191.04 126.05C191.26 128.14 193.1 129.73 195.13 129.6L195.49 129.58C197.53 129.44 198.99 127.64 198.77 125.54L197.41 112.85C197.19 110.76 195.35 109.17 193.32 109.3L192.96 109.32C190.92 109.46 189.45 111.26 189.68 113.36Z" fill="#8A6FE8"/>
<path d="M204.63 132.77L212.15 130.03C214.15 129.29 215.11 126.99 214.29 124.91C213.47 122.83 211.19 121.74 209.19 122.48L201.48 125.29L204.63 132.77Z" fill="#8A6FE8"/>
<path d="M206.1 128.61L213.82 120.7C215.31 119.17 215.24 116.63 213.67 115.04C212.1 113.45 209.63 113.4 208.14 114.93L202.38 120.79L206.1 128.61Z" fill="#8A6FE8"/>
<path d="M201.93 126.03L207.62 116.44C208.72 114.59 208.11 112.11 206.25 110.89C204.39 109.68 201.99 110.19 200.89 112.04L195.09 121.81L201.93 126.03Z" fill="#8A6FE8"/>
<path d="M191.25 126.48C191.02 121.85 194.5 118.07 199.01 118.05C203.52 118.03 207.37 121.76 207.6 126.39C207.83 131.02 204.35 134.8 199.84 134.82C195.33 134.85 191.48 131.11 191.25 126.48Z" fill="url(#paint6_radial)"/>
<path d="M119.32 82.4901L127.72 81.2001L123.93 66.9401L117.9 67.8601L119.32 82.4901Z" fill="#8A6FE8"/>
<path d="M123.37 72.88C120.44 74.1 117.01 72.86 115.7 70.1C114.4 67.34 115.71 64.13 118.65 62.91C121.58 61.69 125.01 62.93 126.32 65.69C127.62 68.45 126.31 71.66 123.37 72.88Z" fill="#D8CFF7"/>
<path d="M116.97 87.9301C116.59 87.9801 116.23 87.7301 116.22 87.3701C116.01 83.5601 118.87 80.1301 122.98 79.5001C127.08 78.8701 130.97 81.2601 132.08 84.9301C132.18 85.2801 131.93 85.6301 131.56 85.6801L116.97 87.9301Z" fill="#522CD5"/>
<path d="M124.83 188.41L130.13 192.13L121.5 229.17L102.64 215.95C101.83 215.38 101.72 214.31 102.4 213.55L124.83 188.41Z" fill="#522CD5"/>
<path d="M132.06 225.21C132.54 226.53 131.66 227.8 130.74 228.83L127.91 232C127.4 232.57 126.49 232.68 125.88 232.25L119.22 227.57C118.53 227.09 118.44 226.17 119.01 225.53L121.79 222.13C122.86 220.94 123.35 220.05 122.73 218.29C119.03 207.85 120.35 198.14 126.72 189.73L131.57 193.14C128.58 197.65 125.69 207.87 132.06 225.21Z" fill="url(#paint7_linear)"/>
<path d="M125.88 232.26C126.49 232.69 127.4 232.57 127.91 232.01L130.74 228.84C131.35 228.16 131.93 227.38 132.12 226.55L122.96 220.11C122.84 220.84 122.42 221.44 121.79 222.14L119.01 225.54C118.44 226.18 118.53 227.1 119.22 227.58L125.88 232.26Z" fill="url(#paint8_radial)"/>
<path d="M166.772 129.498C168.702 129.124 169.781 126.315 169.181 123.225C168.582 120.134 166.531 117.933 164.601 118.307C162.671 118.681 161.592 121.49 162.192 124.581C162.791 127.671 164.842 129.873 166.772 129.498Z" fill="#512BD4"/>
<path d="M165.19 121.09C165.79 120.3 166.71 119.85 167.67 119.79C168.38 120.69 168.94 121.91 169.2 123.32C169.36 124.2 169.38 125.04 169.29 125.82C168.23 126.29 166.94 126.21 165.93 125.51C164.44 124.49 164.11 122.51 165.19 121.09Z" fill="#8065E0"/>
<path d="M82.82 158.32C82.03 152.38 86.6 143.62 96.42 136.43C98.25 135.09 103.64 141.53 101.81 142.88C91.62 150.37 90.63 156.51 90.86 157.48C91.48 160.05 96.23 162.62 102.67 163.87C104.86 164.29 106.3 166.5 105.89 168.8C105.49 171.1 103.39 172.62 101.2 172.2C95.28 171.06 85.05 167.89 83.05 159.57C82.95 159.15 82.87 158.73 82.82 158.32Z" fill="url(#paint9_linear)"/>
<path d="M113.9 155.55L102.76 160.62C100.92 161.46 100.15 163.7 101.04 165.63L101.2 165.97C102.09 167.9 104.3 168.79 106.14 167.95L117.28 162.88C119.12 162.04 119.89 159.8 119 157.87L118.84 157.53C117.95 155.6 115.74 154.71 113.9 155.55Z" fill="#8A6FE8"/>
<path d="M101.69 175.77L107.03 182.24C108.46 183.96 110.93 184.2 112.53 182.8C114.14 181.39 114.28 178.86 112.84 177.15L107.37 170.51L101.69 175.77Z" fill="#8A6FE8"/>
<path d="M106.06 175.96L116.23 181.1C118.2 182.08 120.5 181.27 121.38 179.28C122.25 177.29 121.37 174.88 119.4 173.9L111.85 170.06L106.06 175.96Z" fill="#8A6FE8"/>
<path d="M106.86 171.16L117.81 173.83C119.92 174.35 121.97 173.02 122.39 170.87C122.81 168.71 121.43 166.54 119.32 166.02L108.17 163.3L106.86 171.16Z" fill="#8A6FE8"/>
<path d="M102.44 160.96C106.61 159.37 111.38 161.62 113.1 165.98C114.82 170.34 112.83 175.17 108.67 176.76C104.51 178.35 99.73 176.1 98.01 171.74C96.29 167.38 98.28 162.55 102.44 160.96Z" fill="url(#paint10_radial)"/>
<path d="M102.67 144.93C107.287 144.93 111.03 141.375 111.03 136.99C111.03 132.605 107.287 129.05 102.67 129.05C98.0529 129.05 94.31 132.605 94.31 136.99C94.31 141.375 98.0529 144.93 102.67 144.93Z" fill="url(#paint11_radial)"/>
<path d="M298 136.16L310.62 101.98C311.23 100.32 310.38 98.47 308.72 97.86C307.06 97.25 305.21 98.1 304.6 99.76L292.64 132.14C292.64 132.14 297.59 137.27 298 136.16Z" fill="#29C3E5"/>
<path d="M313.78 218.59C312.33 219.14 310.64 218.62 309.77 217.27L282.91 175.64C282.28 174.66 282.2 173.42 282.7 172.36C283.21 171.31 284.22 170.59 285.39 170.47L319.91 163.91C321.76 163.72 323.95 168.02 324.14 169.87C324.33 171.72 322.99 173.37 321.14 173.56L292.44 176.61L315.42 213.63C316.43 215.19 315.98 217.27 314.42 218.28C314.21 218.4 314 218.51 313.78 218.59Z" fill="#29C3E5"/>
<path d="M300.15 180.21C299.85 179.51 299.79 178.72 300 177.97C300.29 176.93 301.07 176.09 302.09 175.72L344.86 160.19C346.61 159.56 348.53 160.46 349.17 162.2C349.8 163.95 350.38 169.8 348.63 170.44L310.47 180.49L335.98 214.5C337.14 215.95 336.9 218.07 335.45 219.23C334 220.39 331.88 220.15 330.72 218.7L300.6 180.97C300.42 180.74 300.27 180.48 300.15 180.21Z" fill="#29C3E5"/>
<path d="M334.89 173.76C347.686 173.76 358.06 163.386 358.06 150.59C358.06 137.794 347.686 127.42 334.89 127.42C322.094 127.42 311.72 137.794 311.72 150.59C311.72 163.386 322.094 173.76 334.89 173.76Z" fill="#60DEFA"/>
<path d="M334.89 113.6C347.686 113.6 358.06 103.226 358.06 90.43C358.06 77.6336 347.686 67.26 334.89 67.26C322.094 67.26 311.72 77.6336 311.72 90.43C311.72 103.226 322.094 113.6 334.89 113.6Z" fill="#29C3E5"/>
<path d="M308.6 158.99L301.69 98.88C301.41 96.4 303.35 94.23 305.84 94.23H363.23C365.72 94.23 367.66 96.4 367.38 98.88L360.65 158.9C360.41 161.01 358.63 162.6 356.5 162.6L312.75 162.69C310.62 162.69 308.84 161.1 308.6 158.99Z" fill="#60DEFA"/>
<path d="M346.32 77.36H354.01C355.87 80.07 357.16 83.2 357.73 86.58H346.32C344.45 86.58 342.93 85.06 342.93 83.19V80.75C342.93 78.87 344.45 77.36 346.32 77.36Z" fill="#0F849E"/>
<path d="M350.4 85.4301C352.333 85.4301 353.9 83.8631 353.9 81.9301C353.9 79.9971 352.333 78.4301 350.4 78.4301C348.467 78.4301 346.9 79.9971 346.9 81.9301C346.9 83.8631 348.467 85.4301 350.4 85.4301Z" fill="#D2F6FE"/>
<path d="M336.64 85.4301C338.573 85.4301 340.14 83.8631 340.14 81.9301C340.14 79.9971 338.573 78.4301 336.64 78.4301C334.707 78.4301 333.14 79.9971 333.14 81.9301C333.14 83.8631 334.707 85.4301 336.64 85.4301Z" fill="#D2F6FE"/>
<path d="M338.99 219.67L328.13 228.5C327.28 229.19 326.01 228.94 325.49 227.98C321.66 220.9 322.4 212.21 327.26 205.87C327.94 204.98 329.29 204.98 329.99 205.85L339.23 217.22C339.86 217.96 339.74 219.06 338.99 219.67Z" fill="#179BB8"/>
<path d="M317.75 220.08L303.86 225.46C302.94 226.05 301.7 225.66 301.3 224.64C298.31 217.17 300.99 209.12 306.56 203.39C307.34 202.59 308.68 202.74 309.28 203.68L318.29 217.67C318.81 218.48 318.57 219.56 317.75 220.08Z" fill="#179BB8"/>
<path d="M519.75 172.03L547.01 156.58L547.58 147.91L519.85 163.69L519.75 172.03Z" fill="#848484"/>
<path d="M519.85 163.69L547.58 147.91L209.86 147.89L163.66 161.26L164.37 161.89L519.85 163.69Z" fill="#B2B2B2"/>
<path d="M163.49 169.86L519.75 172.03L519.85 163.69L163.65 161.25L163.49 169.86Z" fill="#848484"/>
<path d="M183.9 157.71L205.81 151.14C205.81 151.14 225.68 151.37 234.2 151.3C235.82 151.29 225.05 158.33 224.83 158.33C224.55 158.32 183.9 157.71 183.9 157.71Z" fill="#E1DFDD"/>
<path d="M222.38 158.84H186.21C184.8 158.84 183.91 159.17 183.91 157.75H224.82C224.93 158.25 222.72 158.84 222.38 158.84Z" fill="#737373"/>
<path d="M262.17 104.62L233.27 111.28C232.58 111.36 231.99 111.91 231.86 112.6L222.49 158.86L223.58 158.65L264.61 106.44C264.84 105.57 263.34 104.49 262.17 104.62Z" fill="#B3AFAB"/>
<path d="M262.95 105.33L234.91 111.82C234.22 111.9 233.63 112.45 233.5 113.14C233.5 113.14 225.14 153.9 224.7 156.09C224.26 158.28 222.49 158.86 222.49 158.86L224.16 158.76L251.78 152.91C252.66 152.8 253.38 152.17 253.6 151.31L264.7 107.39C264.98 106.21 264.12 105.19 262.95 105.33Z" fill="#E1DFDD"/>
<path d="M330.59 157.97C330.59 157.97 346.8 151.79 348.36 151.14C349.82 150.53 350.9 149.3 350.9 149.3L321.96 146.63L330.59 157.97Z" fill="#C8C6C4"/>
<path d="M330.99 158.98C330.99 158.98 348.5 151.79 350.01 151.14C351.46 150.51 350.91 149.3 350.91 149.3L329.91 157.61L330.99 158.98Z" fill="#737373"/>
<path d="M330.72 155.55L336.74 152.74L328.18 151.83L330.72 155.55Z" fill="#848484"/>
<path d="M348.89 99.4601C347.9 99.1601 346.77 99.3401 345.91 100.05C344.54 101.18 344.35 103.2 345.47 104.57L365.68 129.11L342.34 137.8C340.68 138.42 339.83 140.27 340.45 141.93C341.07 143.59 342.92 144.44 344.58 143.82L372.14 133.56C373.11 133.2 373.85 132.39 374.12 131.38C374.39 130.38 374.16 129.31 373.5 128.51L350.43 100.5C350.01 99.9901 349.47 99.6401 348.89 99.4601Z" fill="#29C3E5"/>
<path d="M321.28 153.31C321.55 153.81 322.09 154.13 322.63 154.06L329.16 153.22C329.25 153.21 329.34 153.18 329.42 153.15L337.69 149.9C338.32 149.65 338.59 148.89 338.29 148.19C338 147.51 337.24 147.12 336.61 147.37L328.47 150.57L322.08 151.39C321.4 151.48 320.97 152.15 321.12 152.88C321.15 153.04 321.21 153.18 321.28 153.31Z" fill="#1DACCC"/>
<path d="M324.54 149.57C325.14 149.69 325.76 149.45 326.03 148.95C326.52 148.03 327.18 145.33 327.45 144.16L333.25 140.12C333.83 139.71 333.92 138.94 333.44 138.4C332.96 137.86 332.1 137.74 331.51 138.15L325.33 142.45C325.09 142.62 324.92 142.86 324.86 143.14C324.51 144.72 323.87 147.2 323.55 147.8C323.23 148.4 323.52 149.14 324.21 149.46C324.32 149.51 324.43 149.55 324.54 149.57Z" fill="#1DACCC"/>
<path d="M346.44 137.38L348.26 141.34C348.56 141.98 348.32 142.69 347.72 142.93L344.61 144.21C344.51 144.25 344.41 144.31 344.33 144.38L338.01 149.71C337.4 150.22 336.4 149.94 336.01 149.14L331.37 139.51C330.98 138.7 331.46 137.83 332.32 137.81L341.41 137.6C341.52 137.6 341.63 137.58 341.74 137.55L344.81 136.58C345.43 136.39 346.15 136.74 346.44 137.38Z" fill="#1DACCC"/>
<path d="M321.04 151.59C321.4 151.96 321.92 152.13 322.4 152L329.8 149.91C329.88 149.89 329.96 149.86 330.03 149.82L336.89 146.12C337.49 145.8 337.65 145.01 337.26 144.37C336.86 143.73 336.06 143.47 335.46 143.79L328.71 147.43L321.43 149.48C320.76 149.67 320.44 150.38 320.71 151.08C320.78 151.27 320.9 151.44 321.04 151.59Z" fill="#1DACCC"/>
<path d="M350.21 114.84C354.943 114.84 358.78 111.003 358.78 106.27C358.78 101.537 354.943 97.7 350.21 97.7C345.477 97.7 341.64 101.537 341.64 106.27C341.64 111.003 345.477 114.84 350.21 114.84Z" fill="#1DACCC"/>
<path d="M330.32 159.03L278.48 153.72C277.61 153.63 276.73 152.87 276.52 152.02L266.73 112.77C266.52 111.92 267.05 111.31 267.92 111.4L319.76 116.71C320.63 116.8 321.51 117.56 321.72 118.41L331.51 157.66C331.73 158.5 331.19 159.11 330.32 159.03Z" fill="#E1DFDD"/>
<path d="M330.32 159.03C330.33 159.03 330.34 159.02 330.36 159.03C330.38 158.88 330.38 158.72 330.34 158.54L320.55 119.29C320.34 118.44 319.46 117.68 318.59 117.59L266.75 112.28C266.74 112.28 266.73 112.29 266.71 112.28C266.69 112.43 266.69 112.59 266.73 112.77L276.52 152.02C276.73 152.87 277.61 153.63 278.48 153.72L330.32 159.03Z" fill="#737373"/>
<path d="M486.75 151.94L485.17 146.43C495.87 143.36 502.1 139.45 501.83 135.98C501.46 131.02 489.91 125.15 481.08 124L481.82 118.31C491.9 119.62 506.87 126.51 507.55 135.55C508.06 142.31 501.06 147.82 486.75 151.94Z" fill="#57AA9A"/>
<path d="M490.56 121.15L490.01 114.95C489.87 113.36 488.54 112.14 486.94 112.14H434.68C433.17 112.14 431.92 113.29 431.78 114.79L431.22 121.15H490.56Z" fill="#64BFAF"/>
<path d="M438.61 118.33C439.538 118.33 440.29 117.578 440.29 116.65C440.29 115.722 439.538 114.97 438.61 114.97C437.682 114.97 436.93 115.722 436.93 116.65C436.93 117.578 437.682 118.33 438.61 118.33Z" fill="#9FE0D7"/>
<path d="M444.79 118.33C445.718 118.33 446.47 117.578 446.47 116.65C446.47 115.722 445.718 114.97 444.79 114.97C443.862 114.97 443.11 115.722 443.11 116.65C443.11 117.578 443.862 118.33 444.79 118.33Z" fill="#9FE0D7"/>
<path d="M450.97 118.33C451.898 118.33 452.65 117.578 452.65 116.65C452.65 115.722 451.898 114.97 450.97 114.97C450.042 114.97 449.29 115.722 449.29 116.65C449.29 117.578 450.042 118.33 450.97 118.33Z" fill="#9FE0D7"/>
<path d="M463.26 158.62C463.26 158.62 481.82 151.12 483.58 150.25C483.83 150.13 483.83 149.37 483.83 149.37L453.34 149.3L463.26 158.62Z" fill="#E1DFDD"/>
<path d="M463.58 159.59C463.58 159.59 481 152.02 482.72 151.23C484.39 150.47 483.92 149.32 483.92 149.32L462.54 158.31L463.58 159.59Z" fill="#6D6A66"/>
<path d="M463.68 156.21L470.61 152.88L461.29 152.73L463.68 156.21Z" fill="#E1DFDD"/>
<path d="M462.85 159.7L406.42 159.05C405.47 159.04 404.6 158.36 404.46 157.54L398.11 119.42C397.97 118.6 398.63 117.94 399.58 117.95L456.01 118.6C456.96 118.61 457.83 119.29 457.97 120.11L464.32 158.23C464.45 159.05 463.79 159.71 462.85 159.7Z" fill="#B3AFAB"/>
<path d="M462.85 159.7C462.87 159.7 462.88 159.69 462.89 159.69C462.93 159.54 462.95 159.38 462.92 159.21L456.57 121.09C456.43 120.27 455.55 119.59 454.61 119.58L398.18 118.93C398.16 118.93 398.15 118.94 398.14 118.94C398.1 119.09 398.08 119.25 398.11 119.42L404.46 157.54C404.6 158.36 405.48 159.04 406.42 159.05L462.85 159.7Z" fill="#E1DFDD"/>
<path d="M485.54 149.88C482.47 147.39 475.53 147.59 474.43 148C473.33 148.41 471.36 146.94 474.65 143.9C477.17 141.57 482.66 138.9 487.39 144.47C489.13 146.52 485.54 149.88 485.54 149.88Z" fill="#38776B"/>
<path d="M487.23 150.85C486.96 151.34 486.45 151.69 485.85 151.73L475.59 152.31C474.67 152.36 473.88 151.66 473.82 150.73C473.77 149.81 474.47 149.02 475.4 148.96L485.66 148.38C486.58 148.33 487.37 149.03 487.43 149.96C487.44 150.28 487.37 150.59 487.23 150.85Z" fill="#38776B"/>
<path d="M483.8 152.4C481.94 149.29 482.95 145.25 486.07 143.39L486.77 142.97C489.88 141.11 493.92 142.12 495.78 145.24C497.64 148.35 496.63 152.39 493.51 154.25L492.81 154.67C489.7 156.53 485.67 155.51 483.8 152.4Z" fill="#64BFAF"/>
<path d="M437.47 46.13H372.19V79.45L410.92 78.64L427.27 86.9L423.8 78.37L437.47 78.08V46.13Z" fill="#AFE5DE"/>
<path d="M250.51 55.08L176.41 57.43V98.21H185.64L183.86 110.36L199.35 98.21H250.51V55.08Z" fill="#D8CFF7"/>
<path d="M236.42 73.47H189.51C188.65 73.47 187.95 72.77 187.95 71.91C187.95 71.05 188.65 70.35 189.51 70.35H236.42C237.28 70.35 237.98 71.05 237.98 71.91C237.98 72.77 237.28 73.47 236.42 73.47Z" fill="#AE9CEB"/>
<path d="M219.01 81.8101H189.5C188.64 81.8101 187.94 81.1101 187.94 80.2501C187.94 79.3901 188.64 78.6901 189.5 78.6901H219.01C219.87 78.6901 220.57 79.3901 220.57 80.2501C220.57 81.1101 219.88 81.8101 219.01 81.8101Z" fill="#AE9CEB"/>
<path d="M388.52 67.03C390.359 67.03 391.85 65.5391 391.85 63.7C391.85 61.8609 390.359 60.37 388.52 60.37C386.681 60.37 385.19 61.8609 385.19 63.7C385.19 65.5391 386.681 67.03 388.52 67.03Z" fill="white"/>
<path d="M401.04 67.03C402.879 67.03 404.37 65.5391 404.37 63.7C404.37 61.8609 402.879 60.37 401.04 60.37C399.201 60.37 397.71 61.8609 397.71 63.7C397.71 65.5391 399.201 67.03 401.04 67.03Z" fill="white"/>
<path d="M413.55 67.03C415.389 67.03 416.88 65.5391 416.88 63.7C416.88 61.8609 415.389 60.37 413.55 60.37C411.711 60.37 410.22 61.8609 410.22 63.7C410.22 65.5391 411.711 67.03 413.55 67.03Z" fill="white"/>
<path d="M73.75 114.87C72.64 128.64 76.47 160.11 78.54 171.24C80.83 183.51 85.4 191.7 94.27 191.7L119.25 192.67C120.51 192.67 121.19 191.19 120.37 190.24C108.35 176.39 80.28 140.61 73.75 114.87Z" fill="#605D5A"/>
<defs>
<linearGradient id="paint0_linear" x1="145.732" y1="158.962" x2="146.492" y2="192.151" gradientUnits="userSpaceOnUse">
<stop offset="0.252" stop-color="#522CD5"/>
<stop offset="0.5558" stop-color="#8A6FE8"/>
</linearGradient>
<linearGradient id="paint1_linear" x1="146.025" y1="189.983" x2="159.505" y2="229.708" gradientUnits="userSpaceOnUse">
<stop stop-color="#522CD5"/>
<stop offset="0.4397" stop-color="#8A6FE8"/>
</linearGradient>
<radialGradient id="paint2_radial" cx="0" cy="0" r="1" gradientUnits="userSpaceOnUse" gradientTransform="translate(157.337 212.708) rotate(10.2964) scale(14.7473 14.0108)">
<stop offset="0.034" stop-color="#522CD5"/>
<stop offset="0.9955" stop-color="#8A6FE8"/>
</radialGradient>
<linearGradient id="paint3_linear" x1="127.608" y1="161.83" x2="137.961" y2="190.89" gradientUnits="userSpaceOnUse">
<stop offset="0.252" stop-color="#522CD5"/>
<stop offset="0.5558" stop-color="#8A6FE8"/>
</linearGradient>
<radialGradient id="paint4_radial" cx="0" cy="0" r="1" gradientUnits="userSpaceOnUse" gradientTransform="translate(138.601 109.187) rotate(171.455) scale(45.2943 43.1346)">
<stop offset="0.4744" stop-color="#A08BE8"/>
<stop offset="0.8618" stop-color="#8065E0"/>
</radialGradient>
<radialGradient id="paint5_radial" cx="0" cy="0" r="1" gradientUnits="userSpaceOnUse" gradientTransform="translate(169.254 106.204) rotate(171.455) scale(46.9395 44.7013)">
<stop offset="0.0933" stop-color="#E1DFDD"/>
<stop offset="0.6573" stop-color="white"/>
</radialGradient>
<radialGradient id="paint6_radial" cx="0" cy="0" r="1" gradientUnits="userSpaceOnUse" gradientTransform="translate(196.401 127.863) rotate(-103.418) scale(8.45734 8.11261)">
<stop stop-color="#8065E0"/>
<stop offset="1" stop-color="#512BD4"/>
</radialGradient>
<linearGradient id="paint7_linear" x1="130.647" y1="190.056" x2="125.141" y2="232.138" gradientUnits="userSpaceOnUse">
<stop stop-color="#522CD5"/>
<stop offset="0.4397" stop-color="#8A6FE8"/>
</linearGradient>
<radialGradient id="paint8_radial" cx="0" cy="0" r="1" gradientUnits="userSpaceOnUse" gradientTransform="translate(131.797 217.548) rotate(35.1098) scale(13.1967 13.4402)">
<stop offset="0.034" stop-color="#522CD5"/>
<stop offset="0.9955" stop-color="#8A6FE8"/>
</radialGradient>
<linearGradient id="paint9_linear" x1="88.8648" y1="138.858" x2="99.6495" y2="173.279" gradientUnits="userSpaceOnUse">
<stop offset="0.2495" stop-color="#967FE6"/>
<stop offset="0.6748" stop-color="#8A6FE8"/>
</linearGradient>
<radialGradient id="paint10_radial" cx="0" cy="0" r="1" gradientUnits="userSpaceOnUse" gradientTransform="translate(109.092 170.766) rotate(114.167) scale(8.23116 8.33255)">
<stop stop-color="#8065E0"/>
<stop offset="1" stop-color="#512BD4"/>
</radialGradient>
<radialGradient id="paint11_radial" cx="0" cy="0" r="1" gradientUnits="userSpaceOnUse" gradientTransform="translate(100.698 134.673) rotate(-8.5451) scale(8.35363 7.95531)">
<stop stop-color="#8065E0"/>
<stop offset="1" stop-color="#512BD4"/>
</radialGradient>
</defs>
</svg>
