<svg width="636" height="300" viewBox="0 0 636 300" fill="none" xmlns="http://www.w3.org/2000/svg">
<path d="M546.39 154.55L582.18 155.42V120.52L552.67 118.89L546.39 118.54V154.55Z" fill="#70D6E0"/>
<path d="M546.39 154.55L552.73 154.7V118.89L546.39 118.54V154.55Z" fill="#28C2D1"/>
<path d="M545.51 118.5L554.09 118.97L583.39 120.58V111.45L554.08 109.6L545.51 109.06V118.5Z" fill="#CFF1F5"/>
<path d="M545.51 119.55L554.11 118.97V109.6L545.51 110.11V119.55Z" fill="#70D6E0"/>
<path d="M501.94 153.47L550.05 154.64V118.75L518.61 117.01L501.94 119.78V153.47Z" fill="#E86E58"/>
<path d="M501.94 153.47L518.87 153.88V117.03L501.94 118.78V153.47Z" fill="#CC5444"/>
<path d="M501 119.73L520.29 117.11L551.32 118.82V109.43L520.16 107.46L501 109.93V119.73Z" fill="#FDC9B5"/>
<path d="M501 119.73L520.34 117.11V107.47L501 109.93V119.73Z" fill="#EA7F6B"/>
<path d="M546.36 199.46L582.15 198.94V164.04L546.36 163.45V199.46Z" fill="#70D6E0"/>
<path d="M546.36 199.46L552.7 199.37V163.55L546.36 163.45V199.46Z" fill="#28C2D1"/>
<path d="M545.48 163.43L583.36 164.06V154.93L545.48 154V163.43Z" fill="#CFF1F5"/>
<path d="M545.48 163.43L554.08 163.58V154.21L545.48 154V163.43Z" fill="#70D6E0"/>
<path d="M552.67 244.48L582.11 242.92V208.03L546.35 208.83L552.67 244.48Z" fill="#E86E58"/>
<path d="M546.35 243.8L552.68 244.48V207.9L546.35 208.04V243.8Z" fill="#CC5444"/>
<path d="M553.79 208.66L583.32 208V198.88L553.88 199.29L553.79 208.66Z" fill="#FDC9B5"/>
<path d="M545.47 208.4L554.06 208.66V199.29L545.47 198.96V208.4Z" fill="#EA7F6B"/>
<path d="M512.39 199.94L550.27 199.4V163.51L512.39 162.88V199.94Z" fill="#98C2F5"/>
<path d="M512.39 199.94L519.11 199.84V163L512.39 162.88V199.94Z" fill="#3E8EED"/>
<path d="M511.46 162.87L551.54 163.53V154.15L511.46 153.16V162.87Z" fill="#D8E8FB"/>
<path d="M511.46 162.87L520.57 163.02V153.38L511.46 153.16V162.87Z" fill="#98C2F5"/>
<path d="M519.11 246.27L550.26 244.61V208.74L512.41 209.59L519.11 246.27Z" fill="#E86E58"/>
<path d="M512.41 245.57L519.12 246.27V208.77L511.89 208.4L512.41 245.57Z" fill="#CC5444"/>
<path d="M520.29 209.41L551.53 208.71V199.33L520.39 199.77L520.29 209.41Z" fill="#FDC9B5"/>
<path d="M511.48 209.14L520.58 209.4V199.77L511.48 199.43V209.14Z" fill="#EA7F6B"/>
<path d="M465.26 200.61L516.27 199.89V162.95L465.26 162.1V200.61Z" fill="#98C2F5"/>
<path d="M465.26 200.61L483.23 200.36V162.4L465.26 162.1V200.61Z" fill="#3E8EED"/>
<path d="M464.26 162.09L484.68 162.42L517.62 162.97V153.31L484.69 152.49L464.26 154.89V162.09Z" fill="#D8E8FB"/>
<path d="M464.26 163.12L484.78 162.43V152.5L464.26 153.02V163.12Z" fill="#98C2F5"/>
<path d="M483.26 248.18L516.28 246.42V209.5L465.33 210.64L483.26 248.18Z" fill="#70D6E0"/>
<path d="M465.33 246.27L483.27 248.18V210.24L465.33 208.48V246.27Z" fill="#28C2D1"/>
<path d="M484.52 210.21L517.63 209.47V199.81L484.62 200.28L484.52 210.21Z" fill="#CFF1F5"/>
<path d="M464.32 210.18L484.82 210.2V200.28L464.32 200.09V210.18Z" fill="#70D6E0"/>
<path d="M164.33 141.1L228.68 142.67V105.97L190.69 103.88L164.33 108.29V141.1Z" fill="#98C2F5"/>
<path d="M164.33 141.1L188.82 141.7V103.98L164.33 108.29V141.1Z" fill="#3E8EED"/>
<path d="M163.11 108.23L190.56 104.07L230.3 106.05V96.4399L190.44 94.1899L163.11 98.1799V108.23Z" fill="#D8E8FB"/>
<path d="M163.11 108.23L190.69 104.07V94.21L163.11 98.18V108.23Z" fill="#98C2F5"/>
<path d="M264.99 188.2L308.2 187.9V153.2L264.99 152.41V188.2Z" fill="#F7B548"/>
<path d="M264.99 188.2L272.64 188.15V152.55L264.99 152.41V188.2Z" fill="#E29E3B"/>
<path d="M263.93 152.39L309.65 153.23V144.15L263.93 143.01V152.39Z" fill="#FEDEA7"/>
<path d="M263.93 152.39L274.31 152.58V143.27L263.93 143.01V152.39Z" fill="#FCCF84"/>
<path d="M224 188.49L269.71 188.17V152.5L224 151.66V188.49Z" fill="#70D6E0"/>
<path d="M224 188.49L232.1 188.43V151.81L224 151.66V188.49Z" fill="#28C2D1"/>
<path d="M222.88 151.64L271.25 152.52V143.19L222.88 141.99V151.64Z" fill="#CFF1F5"/>
<path d="M222.88 151.64L233.86 151.84V142.26L222.88 141.99V151.64Z" fill="#70D6E0"/>
<path d="M164.33 188.9L228.68 188.45V151.75L164.33 150.57V188.9Z" fill="#E86E58"/>
<path d="M164.33 188.9L188.82 188.73V151.02L164.33 150.57V188.9Z" fill="#CC5444"/>
<path d="M163.11 150.55L230.3 151.78V142.17L163.11 140.5V150.55Z" fill="#FDC9B5"/>
<path d="M163.11 150.55L190.69 151.05V141.19L163.11 140.5V150.55Z" fill="#EA7F6B"/>
<path d="M316.72 187.58L178.66 188.51V207.67L316.72 204.97V187.58Z" fill="#A7A4A0"/>
<path d="M107.57 215.24L101.62 215.39V215.45C92.3 216.28 84.82 225.75 84.82 237.13C84.82 248.9 92.81 258.01 102.55 257.5L107.56 257.24V215.24H107.57Z" fill="#6D6A66"/>
<path d="M124.81 235.56C124.81 247.03 117.14 256.73 107.58 257.23C97.9 257.74 89.96 248.65 89.96 236.92C89.96 225.19 97.9 215.48 107.58 215.23C117.14 214.99 124.81 224.09 124.81 235.56Z" fill="#56534F"/>
<path d="M225.65 212.19L220.56 212.32V212.37C212.6 213.12 206.2 221.85 206.2 232.37C206.2 243.24 213.02 251.69 221.35 251.26L225.64 251.03V212.19H225.65Z" fill="#6D6A66"/>
<path d="M240.41 231.03C240.41 241.65 233.84 250.6 225.65 251.03C217.37 251.46 210.59 243.03 210.59 232.2C210.59 221.37 217.37 212.4 225.65 212.19C233.84 211.98 240.41 220.41 240.41 231.03Z" fill="#56534F"/>
<path d="M442.66 134.33C441.3 139.76 433.18 150.23 425.61 153.2C420.97 155.01 418.56 149.06 423.29 147.22C428.39 145.25 435.77 136.6 436.85 132.35L442.66 134.33Z" fill="#8A6FE8"/>
<path d="M432.3 126.14L433.78 135.43C434.04 137.08 435.46 138.23 436.95 137.98C438.43 137.74 439.42 136.21 439.16 134.56L437.7 125.3C437.44 123.65 436.03 122.49 434.53 122.72C433.04 122.96 432.04 124.48 432.3 126.14Z" fill="#8A6FE8"/>
<path d="M443.56 139.81L448.63 137.28C449.97 136.6 450.53 134.82 449.88 133.3C449.23 131.79 447.61 131.1 446.27 131.78L441.06 134.36L443.56 139.81Z" fill="#8A6FE8"/>
<path d="M444.4 136.59L449.37 130.17C450.32 128.93 450.17 127.03 449.03 125.92C447.88 124.81 446.17 124.91 445.22 126.15L441.49 130.91L444.4 136.59Z" fill="#8A6FE8"/>
<path d="M441.4 134.89L444.92 127.31C445.6 125.85 445.07 124.01 443.74 123.2C442.4 122.38 440.76 122.91 440.08 124.36L436.47 132.09L441.4 134.89Z" fill="#8A6FE8"/>
<path d="M439.68 141.69C442.84 141.78 445.38 139.03 445.38 135.54C445.38 132.05 442.83 129.13 439.68 129.01C436.51 128.89 433.93 131.64 433.93 135.16C433.93 138.67 436.51 141.6 439.68 141.69Z" fill="url(#paint0_radial)"/>
<path d="M447.83 159.88L488.82 144.85L476.96 104.95L435.24 118.91L447.83 159.88Z" fill="#F7B548"/>
<path d="M447.83 159.88L452.98 158.12L440.49 117.28L435.24 118.91L447.83 159.88Z" fill="#E29E3B"/>
<path d="M434.01 121.95L479.25 106.73L476.14 96.2799L430.7 111.19L434.01 121.95Z" fill="#FEDEA7"/>
<path d="M434.01 121.95L442.1 119.19L438.83 108.49L430.7 111.19L434.01 121.95Z" fill="#FCCF84"/>
<path d="M386.85 218.32C390.7 213.8 397.77 204.06 399.9 192.32L393.41 191C391.47 201.69 384.91 210.13 381.81 213.63C381.56 213.92 383.89 216.61 386.85 218.32Z" fill="url(#paint1_linear)"/>
<path d="M386.85 218.32C390.7 213.8 397.77 204.06 399.9 192.32L393.41 191C391.47 201.69 384.91 210.13 381.81 213.63C381.56 213.92 383.89 216.61 386.85 218.32Z" fill="url(#paint2_linear)"/>
<path d="M381.86 213.58L385.82 217.29L376.45 249.53L362.09 236.5C361.47 235.93 361.45 234.96 362.06 234.33L381.86 213.58Z" fill="#522CD5"/>
<path d="M385.13 246.65C385.43 247.84 384.64 248.92 383.84 249.78L381.37 252.42C380.93 252.89 380.19 252.94 379.74 252.53L374.73 247.97C374.21 247.5 374.19 246.68 374.71 246.14L377.17 243.29C378.11 242.3 378.56 241.54 378.18 239.93C375.92 230.4 377.64 221.87 383.29 214.9L386.9 218.29C384.22 222.05 381.23 230.88 385.13 246.65Z" fill="url(#paint3_linear)"/>
<path d="M379.74 252.52C380.19 252.93 380.93 252.89 381.37 252.41L383.84 249.77C384.37 249.21 384.88 248.55 385.09 247.83L378.24 241.55C378.09 242.19 377.71 242.69 377.17 243.28L374.71 246.13C374.21 246.67 374.21 247.49 374.73 247.96L379.74 252.52Z" fill="url(#paint4_radial)"/>
<path d="M409.9 219.72C410.66 213.75 411.3 201.65 406.82 191.53L400.8 195.22C404.9 204.43 404.02 215.21 403.35 219.91C403.29 220.3 406.59 220.58 409.9 219.72Z" fill="url(#paint5_linear)"/>
<path d="M409.9 219.72C410.66 213.75 411.3 201.65 406.82 191.53L400.8 195.22C404.9 204.43 404.02 215.21 403.35 219.91C403.29 220.3 406.59 220.58 409.9 219.72Z" fill="url(#paint6_linear)"/>
<path d="M403.35 219.84L408.51 219.71L417.72 249.09L399.43 249.96C398.63 250 398.12 249.33 398.27 248.46L403.35 219.84Z" fill="#522CD5"/>
<path d="M423.23 241.05C424.09 241.68 424 242.98 423.8 244.14L423.18 247.7C423.07 248.33 422.5 248.88 421.92 248.9L415.55 249.2C414.89 249.23 414.46 248.67 414.58 247.94L415.08 244.23C415.32 242.88 415.3 242.04 414.15 241.17C407.37 236.02 404.29 228.76 405.2 219.8L409.91 219.68C409.72 224.25 411.92 232.64 423.23 241.05Z" fill="url(#paint7_linear)"/>
<path d="M421.92 248.9C422.5 248.87 423.06 248.33 423.18 247.7L423.8 244.14C423.93 243.38 424.01 242.56 423.81 241.91L415.05 242.27C415.26 242.82 415.22 243.44 415.08 244.24L414.58 247.95C414.46 248.68 414.89 249.24 415.55 249.21L421.92 248.9Z" fill="url(#paint8_radial)"/>
<path d="M432.91 160.59C432.26 150.67 428.61 143.81 428.61 143.81L430.56 143.14L430.6 143.09C422.61 127.08 404.96 118.54 388.17 123.96C368.77 130.22 358.17 152.5 364.91 173.42C371.59 194.15 392.54 204.9 411.33 197.79C425.81 192.3 434.83 177.74 434.99 162.13C434.94 161.47 434.6 160.41 432.91 160.59Z" fill="url(#paint9_radial)"/>
<path d="M432.91 160.59C432.27 150.78 428.71 143.98 428.62 143.82L413.32 149.04C413.32 149.04 411.06 149.56 411.74 151.74C412.42 153.93 414.42 160.08 416.54 166.88C416.97 168.29 432.95 161.99 432.91 160.59Z" fill="url(#paint10_radial)"/>
<path d="M432.91 160.55C432.88 160.18 432.85 159.81 432.82 159.44C432.66 157.6 432.39 155.87 432.07 154.28C431.32 154.23 430.71 154.66 430.15 155.53C429.39 156.73 425.56 163.18 425.56 163.18L432.91 160.55Z" fill="#A08BE8"/>
<path d="M434.99 162.57C434.99 162.57 435.3 160.33 432.92 160.58C432.92 160.57 432.92 160.56 432.92 160.55L418.29 165.73C417.5 166.02 416.32 165.86 415.98 165.06C416.17 165.66 416.35 166.27 416.54 166.88C416.94 168.15 418 168.51 418.81 168.34C418.89 168.32 418.97 168.3 419.05 168.28L421.36 167.44L434.99 162.57Z" fill="#512BD4"/>
<path d="M434.27 169.34L375.91 190.65C378.05 192.6 380.4 194.27 382.88 195.63L431.83 177.51C432.92 174.9 433.74 172.17 434.27 169.34Z" fill="#D8CFF7"/>
<path d="M430.85 179.67C432.77 175.77 434.05 171.51 434.64 167.09L427.75 169.6L430.85 179.67Z" fill="#512BD4"/>
<path d="M390 121.78L383.28 123.89L381.92 116.1L386.77 114.61L390 121.78Z" fill="#8A6FE8"/>
<path d="M393.95 125.51C394.25 125.42 394.4 125.06 394.28 124.74C392.88 121.42 389.36 119.58 386.08 120.6C382.79 121.63 380.89 125.18 381.6 128.75C381.67 129.09 382 129.3 382.31 129.2L393.95 125.51Z" fill="url(#paint11_radial)"/>
<path d="M424.97 159.87C426.4 159.4 426.95 156.87 426.2 154.22C425.44 151.57 423.67 149.79 422.23 150.25C420.79 150.71 420.23 153.25 421 155.91C421.75 158.57 423.53 160.34 424.97 159.87Z" fill="#512BD4"/>
<path d="M422.8 152.53C422.17 153.89 422.68 155.58 423.93 156.3C424.79 156.79 425.78 156.7 426.52 156.15C426.49 155.53 426.38 154.88 426.19 154.21C425.82 152.91 425.21 151.82 424.5 151.1C423.79 151.27 423.15 151.76 422.8 152.53Z" fill="#8065E0"/>
<path d="M383.25 117.07C386.08 117.2 388.37 114.86 388.37 111.84C388.37 108.82 386.08 106.26 383.25 106.11C380.4 105.96 378.09 108.3 378.09 111.34C378.09 114.38 380.41 116.94 383.25 117.07Z" fill="#D8CFF7"/>
<path d="M446.6 161.34L441.91 156.53C436.96 162.04 432.31 166.81 427.16 168.99C416.79 173.38 405.8 164.54 402.88 161.88L397.59 168.45C406.76 174.65 424.5 189.05 446.6 161.34Z" fill="url(#paint12_linear)"/>
<path d="M444.99 154.97L445.43 148.28C445.54 146.5 444.28 145.02 442.62 144.97C440.96 144.93 439.53 146.33 439.42 148.13L438.97 155.02L444.99 154.97Z" fill="#8A6FE8"/>
<path d="M399.01 170.97C402.66 171 405.6 167.85 405.6 163.93C405.6 160.01 402.66 156.78 399.01 156.71C395.34 156.64 392.36 159.8 392.36 163.75C392.36 167.7 395.34 170.94 399.01 170.97Z" fill="url(#paint13_radial)"/>
<path d="M444.82 165.27L450.75 162.96C452.31 162.34 453.13 160.5 452.57 158.87C452.01 157.23 450.29 156.41 448.71 157.02L442.62 159.37L444.82 165.27Z" fill="#8A6FE8"/>
<path d="M446.6 158.16L450.31 152.57C451.29 151.08 451.04 149.04 449.76 148.01C448.47 146.98 446.63 147.35 445.65 148.85L441.82 154.59L446.6 158.16Z" fill="#8A6FE8"/>
<path d="M447.11 161.42L452.2 157.39C453.54 156.31 453.86 154.3 452.92 152.9C451.97 151.49 450.12 151.23 448.77 152.3L443.53 156.43L447.11 161.42Z" fill="#8A6FE8"/>
<path d="M437.02 157.06C438.24 153.51 441.88 151.58 445.16 152.74C448.42 153.9 450.08 157.67 448.89 161.2C447.69 164.74 444.08 166.69 440.79 165.56C437.5 164.43 435.81 160.62 437.02 157.06Z" fill="url(#paint14_radial)"/>
<path d="M137.74 218.14L132.02 218.29V218.35C123.06 219.16 115.86 228.44 115.86 239.6C115.86 251.14 123.54 260.09 132.91 259.59L137.73 259.34V218.14H137.74Z" fill="#6D6A66"/>
<path d="M256.24 215.09L251.37 215.22V215.27C243.74 216 237.62 224.54 237.62 234.84C237.62 245.48 244.16 253.76 252.14 253.34L256.25 253.12V215.09H256.24Z" fill="#6D6A66"/>
<path d="M286.34 214.31L281.67 214.43V214.48C274.36 215.19 268.5 223.55 268.5 233.62C268.5 244.03 274.76 252.14 282.41 251.74L286.35 251.53V214.31H286.34Z" fill="#6D6A66"/>
<path d="M60.36 198.15C60.36 198.15 60.43 197.04 60.5 195.78C60.91 188.58 82.46 181.87 85.68 173.73C90.21 162.27 94.48 143.74 98.76 131.33C99.84 128.2 102.76 126.16 106.07 126.21L149.31 125.16C152.48 125.2 161.24 127.73 161.24 131.01L167.34 226.98L60.93 222.06L60.36 198.15Z" fill="#E29E3B"/>
<path d="M95.67 141.79C92.24 153.21 88.97 165.42 85.68 173.74C85.57 174.02 85.4 174.29 85.25 174.56L118.6 174.64C120.88 174.65 122.91 173.19 123.66 171L132.72 144.63C133.23 143.15 132.15 141.56 130.6 141.52L95.67 141.79Z" fill="#3E8EED"/>
<path d="M316.62 204.85L180.12 207.5V131.6C180.12 128.35 177.59 125.65 174.5 125.61L149.4 125.28C146.27 125.24 143.5 127.23 142.48 130.27C138.43 142.35 133.36 162.7 129.07 173.85C126.03 181.77 106.46 188.38 105.25 195.29C104.04 202.21 105.25 216.86 105.25 216.86L115 232.15L180.11 227.33V223.46L316.61 219.35V204.85H316.62Z" fill="#FCCF84"/>
<path d="M139.26 176.67H141.85C142.62 176.67 143.36 176.43 143.99 175.98L149.71 171.85C150.33 171.4 151.07 171.16 151.83 171.17L168.43 171.25C170.42 171.26 172.03 169.57 172.03 167.49V144.35C172.03 142.26 170.42 140.53 168.43 140.48L148.06 139.97C146.44 139.93 145 140.99 144.51 142.58L135.67 171.65C134.92 174.14 136.73 176.67 139.26 176.67Z" fill="#3E8EED"/>
<path d="M168.73 167.46V144.27C168.73 142.18 167.11 140.44 165.11 140.39L148.06 139.96C146.43 139.92 145 140.98 144.51 142.57L135.67 171.64C134.96 173.97 136.51 176.3 138.78 176.61C139.41 176.54 140.03 176.35 140.56 175.97L146.31 171.83C146.93 171.38 147.68 171.14 148.44 171.15L151.83 171.17L165.11 171.23C167.11 171.24 168.73 169.56 168.73 167.46Z" fill="#98C2F5"/>
<path d="M107.91 195.41L62.65 195.9C61.38 195.91 60.36 196.93 60.36 198.17L60.65 210.25L105 209.38V207.52C105 205.33 104.27 203.57 106.44 203.54L107.92 203.52C109.11 203.5 110.08 202.51 110.08 201.31V197.58C110.07 196.36 109.1 195.4 107.91 195.41Z" fill="#A7A4A0"/>
<path d="M92.61 201.3L102.24 201.16V197.64L92.61 197.76V201.3Z" fill="white"/>
<path d="M63.8 201.72L73.79 201.57V197.99L63.8 198.11V201.72Z" fill="white"/>
<path d="M115.04 239.6C94.41 240.28 69.01 239.59 60.31 239.97C58.19 240.06 56.38 238.64 56.02 236.61L54.69 213.61C54.31 211.5 55.98 209.53 58.18 209.49L125.27 208.2C128.25 208.14 129.64 211.8 127.49 213.95C123.49 217.95 119.78 224.52 119.38 235.17C119.28 237.54 117.39 239.52 115.04 239.6Z" fill="#6D6A66"/>
<path d="M91.2 231.3L70.85 231.36C69.21 231.41 67.88 230.15 67.88 228.53L67.05 216.7C67.05 215.08 68.38 213.74 70.02 213.7L90.9 213.25C92.49 213.21 93.78 214.48 93.78 216.07L94.08 228.32C94.09 229.91 92.8 231.25 91.2 231.3Z" fill="#56534F"/>
<path d="M312.58 219.5L147.11 224.48V232.38L312.58 226.55V219.5Z" fill="#6D6A66"/>
<path d="M299.9 232.39C299.9 242.57 293.86 251.14 286.34 251.53C278.74 251.93 272.51 243.84 272.51 233.46C272.51 223.08 278.73 214.5 286.34 214.3C293.86 214.11 299.9 222.21 299.9 232.39Z" fill="#56534F"/>
<path d="M294.06 232.62C294.06 238.42 290.61 243.28 286.34 243.48C282.04 243.68 278.53 239.09 278.53 233.23C278.53 227.37 282.04 222.5 286.34 222.37C290.61 222.23 294.06 226.82 294.06 232.62Z" fill="#E6E4E3"/>
<path d="M286.34 224.55C286 224.56 285.68 224.64 285.36 224.72C288.29 225.26 290.52 228.61 290.52 232.76C290.52 236.91 288.29 240.43 285.36 241.2C285.68 241.26 286.01 241.31 286.34 241.29C289.73 241.14 292.47 237.28 292.47 232.68C292.47 228.08 289.73 224.44 286.34 224.55Z" fill="#A7A4A0"/>
<path d="M270.39 233.55C270.39 243.95 264.09 252.71 256.24 253.12C248.3 253.54 241.81 245.28 241.81 234.67C241.81 224.06 248.31 215.29 256.24 215.09C264.09 214.88 270.39 223.15 270.39 233.55Z" fill="#56534F"/>
<path d="M264.3 233.79C264.3 239.71 260.7 244.68 256.24 244.89C251.75 245.1 248.09 240.41 248.09 234.42C248.09 228.43 251.75 223.46 256.24 223.32C260.71 223.17 264.3 227.86 264.3 233.79Z" fill="#E6E4E3"/>
<path d="M256.24 225.55C255.89 225.56 255.55 225.64 255.21 225.72C258.27 226.27 260.6 229.69 260.6 233.93C260.6 238.17 258.27 241.77 255.21 242.56C255.55 242.62 255.88 242.67 256.24 242.65C259.78 242.49 262.64 238.55 262.64 233.85C262.64 229.15 259.78 225.43 256.24 225.55Z" fill="#A7A4A0"/>
<path d="M154.33 238.09C154.33 249.34 146.95 258.85 137.75 259.34C128.44 259.83 120.8 250.91 120.8 239.41C120.8 227.91 128.43 218.39 137.75 218.15C146.95 217.91 154.33 226.84 154.33 238.09Z" fill="#56534F"/>
<path d="M147.19 238.37C147.19 244.78 142.97 250.18 137.74 250.42C132.47 250.67 128.17 245.6 128.17 239.11C128.17 232.62 132.47 227.22 137.74 227.05C142.98 226.89 147.19 231.96 147.19 238.37Z" fill="#E6E4E3"/>
<path d="M137.74 229.48C137.33 229.49 136.93 229.58 136.54 229.67C140.13 230.26 142.86 233.95 142.86 238.54C142.86 243.13 140.13 247.04 136.54 247.91C136.93 247.97 137.33 248.02 137.74 248C141.89 247.81 145.24 243.53 145.24 238.44C145.25 233.36 141.9 229.34 137.74 229.48Z" fill="#A7A4A0"/>
<path d="M268.21 186.97L263.84 187.04L263.46 138.44L267.83 138.52L268.21 186.97Z" fill="#6D6A66"/>
<path d="M274.61 187.86L263.61 187.95C262.82 187.96 262.21 187.18 262.34 186.31L263.78 176.09L267.98 175.9C267.98 175.9 271.96 177 274.06 179.63C275.3 181.18 275.62 184.74 275.7 186.59C275.72 187.22 275.17 187.85 274.61 187.86Z" fill="#4995EE"/>
<path d="M255.98 186.85L251.54 186.92L251.15 137.9L255.6 137.98L255.98 186.85Z" fill="#6D6A66"/>
<path d="M244.79 188.05L256.23 187.92C257.03 187.91 257.63 186.94 257.49 186.06L255.88 175.83L251.61 175.71C251.61 175.71 247.53 176.9 245.4 179.61C244.13 181.23 243.85 184.87 243.8 186.76C243.77 187.42 244.2 188.06 244.79 188.05Z" fill="#4995EE"/>
<path d="M281.48 86.2799L235.79 83.73C234.81 83.68 234.03 84.4999 234.04 85.5699L234.11 94.11C234.12 95.18 234.92 96.0899 235.89 96.1399L281.57 98.3C282.48 98.34 283.22 97.54 283.21 96.5L283.15 88.2499C283.14 87.2099 282.4 86.3299 281.48 86.2799Z" fill="#76AFF2"/>
<path d="M233.74 93.6999C232.99 93.6599 232.36 94.2499 232.27 95.0699C231.93 98.2099 231.76 101.46 231.78 104.81C231.9 120.22 237.59 134.07 244.41 143.06C246.84 146.26 252.79 146.14 258.84 146.35C265.32 146.57 271.89 146.86 274.35 143.56C280.7 135.04 285.78 121.9 285.67 107.03C285.65 103.81 285.44 100.66 285.08 97.6099C284.98 96.8199 284.39 96.1899 283.69 96.1599L233.74 93.6999Z" fill="#4995EE"/>
<path d="M255.08 59.5399L247.64 45.5799C247.3 44.9499 246.47 45.2199 246.57 45.9199L248.47 59.0599C248.57 59.7199 249.13 60.2099 249.72 60.1499L255.08 59.5399Z" fill="#0064DA"/>
<path d="M260.31 59.0099L263.43 44.1399C263.57 43.4699 264.44 43.5899 264.55 44.2799L266.49 57.2499C266.59 57.8999 266.2 58.4799 265.62 58.54L260.31 59.0099Z" fill="#0064DA"/>
<path d="M237.47 81.8399L282.65 76.6199C283.37 76.5399 283.76 75.6599 283.41 74.9099C276.82 60.6499 266.64 51.4599 256.49 52.4399C246.19 53.4299 238.63 64.6199 236.17 80.3199C236.03 81.1499 236.7 81.9299 237.47 81.8399Z" fill="#4995EE"/>
<path d="M266.41 66.1C267.09 70.77 264.31 74.93 260.16 75.4C255.99 75.87 252.03 72.43 251.33 67.71C250.63 62.98 253.47 58.81 257.66 58.39C261.81 57.97 265.72 61.42 266.41 66.1Z" fill="white"/>
<path d="M264.34 66.32C264.84 69.7 262.81 72.71 259.82 73.05C256.81 73.39 253.95 70.9 253.45 67.49C252.95 64.08 255 61.06 258.02 60.75C261.01 60.44 263.84 62.94 264.34 66.32Z" fill="#6D6A66"/>
<path d="M219.86 102.41C220.11 99.0699 223.7 97.4399 232.09 96.9199C231.95 98.4499 231.86 100.48 231.84 101.81C227.36 102.15 225.46 102.77 224.67 103.16C225.6 104.13 228.61 106.5 238 110.4C244.52 113.11 250.79 115.17 250.85 115.19L249.78 119.77C249.49 119.68 242.56 117.42 235.47 114.44C221.43 108.52 219.66 105.15 219.86 102.41Z" fill="#6D6A66"/>
<path d="M250.9 133.93L301.52 135.5V95.26L259.81 92.74L250.9 92.21V133.93Z" fill="#E86E58"/>
<path d="M250.9 133.93L259.9 134.21V92.75L250.9 92.21V133.93Z" fill="#CC5444"/>
<path d="M258.96 92.8099L303.21 95.3599V84.8299L261.73 82.0199L258.96 92.8099Z" fill="#FDC9B5"/>
<path d="M249.65 94.3799L261.86 92.8699V82.0199L249.65 83.9599V94.3799Z" fill="#EA7F6B"/>
<path d="M246.88 116.04L250.9 112.12V117.7L251.75 121.91L259.96 125.25L256.6 128.2L248.54 124.95L246.88 116.04Z" fill="#76AFF2"/>
<path d="M303.8 119.82L298.62 125.96L294.2 124.6L292.97 120.11L297.46 121.5L299.91 118.61L301.57 111.41L303.8 119.82Z" fill="#76AFF2"/>
<path d="M161.95 179.43H171.37V176.74L161.95 176.73V179.43Z" fill="#A7A4A0"/>
<defs>
<radialGradient id="paint0_radial" cx="0" cy="0" r="1" gradientUnits="userSpaceOnUse" gradientTransform="translate(434.956 136.067) rotate(-109.673) scale(21.1843 23.3467)">
<stop stop-color="#8065E0"/>
<stop offset="0.8628" stop-color="#512BD4"/>
</radialGradient>
<linearGradient id="paint1_linear" x1="398.468" y1="191.429" x2="383.763" y2="216.461" gradientUnits="userSpaceOnUse">
<stop stop-color="#522CD5"/>
<stop offset="0.4397" stop-color="#8A6FE8"/>
</linearGradient>
<linearGradient id="paint2_linear" x1="398.468" y1="191.429" x2="383.763" y2="216.461" gradientUnits="userSpaceOnUse">
<stop stop-color="#522CD5"/>
<stop offset="0.4397" stop-color="#8A6FE8"/>
</linearGradient>
<linearGradient id="paint3_linear" x1="386.391" y1="215.626" x2="377.934" y2="252.254" gradientUnits="userSpaceOnUse">
<stop stop-color="#522CD5"/>
<stop offset="0.4397" stop-color="#8A6FE8"/>
</linearGradient>
<radialGradient id="paint4_radial" cx="0" cy="0" r="1" gradientUnits="userSpaceOnUse" gradientTransform="translate(386.571 239.957) rotate(38.5815) scale(12.158 11.9182)">
<stop offset="0.034" stop-color="#522CD5"/>
<stop offset="0.9955" stop-color="#8A6FE8"/>
</radialGradient>
<linearGradient id="paint5_linear" x1="402.842" y1="192.257" x2="408.39" y2="219.978" gradientUnits="userSpaceOnUse">
<stop stop-color="#522CD5"/>
<stop offset="0.4397" stop-color="#8A6FE8"/>
</linearGradient>
<linearGradient id="paint6_linear" x1="402.842" y1="192.257" x2="408.39" y2="219.978" gradientUnits="userSpaceOnUse">
<stop stop-color="#522CD5"/>
<stop offset="0.4397" stop-color="#8A6FE8"/>
</linearGradient>
<linearGradient id="paint7_linear" x1="405.832" y1="219.462" x2="421.338" y2="249.307" gradientUnits="userSpaceOnUse">
<stop stop-color="#522CD5"/>
<stop offset="0.4397" stop-color="#8A6FE8"/>
</linearGradient>
<radialGradient id="paint8_radial" cx="0" cy="0" r="1" gradientUnits="userSpaceOnUse" gradientTransform="translate(420.032 235.639) scale(12.44 11.0108)">
<stop offset="0.034" stop-color="#522CD5"/>
<stop offset="0.9955" stop-color="#8A6FE8"/>
</radialGradient>
<radialGradient id="paint9_radial" cx="0" cy="0" r="1" gradientUnits="userSpaceOnUse" gradientTransform="translate(390.646 142.919) rotate(-26.2438) scale(32.1782 30.0208)">
<stop offset="0.4744" stop-color="#A08BE8"/>
<stop offset="0.8618" stop-color="#8065E0"/>
</radialGradient>
<radialGradient id="paint10_radial" cx="0" cy="0" r="1" gradientUnits="userSpaceOnUse" gradientTransform="translate(421.652 153.092) rotate(-26.2437) scale(24.9439 23.2716)">
<stop offset="0.2022" stop-color="#E1DFDD"/>
<stop offset="0.7337" stop-color="white"/>
</radialGradient>
<radialGradient id="paint11_radial" cx="0" cy="0" r="1" gradientUnits="userSpaceOnUse" gradientTransform="translate(386.669 124.696) rotate(-26.2437) scale(5.51625 5.14639)">
<stop stop-color="#8065E0"/>
<stop offset="0.8628" stop-color="#512BD4"/>
</radialGradient>
<linearGradient id="paint12_linear" x1="402.025" y1="151.459" x2="441.012" y2="175.966" gradientUnits="userSpaceOnUse">
<stop offset="0.3344" stop-color="#9780E6"/>
<stop offset="0.8488" stop-color="#8A6FE8"/>
</linearGradient>
<radialGradient id="paint13_radial" cx="0" cy="0" r="1" gradientUnits="userSpaceOnUse" gradientTransform="translate(398.174 160.97) rotate(-16.8789) scale(10.4216 9.4392)">
<stop stop-color="#8065E0"/>
<stop offset="0.8628" stop-color="#512BD4"/>
</radialGradient>
<radialGradient id="paint14_radial" cx="0" cy="0" r="1" gradientUnits="userSpaceOnUse" gradientTransform="translate(440.692 155.868) rotate(155.622) scale(12.3829 10.7104)">
<stop stop-color="#8065E0"/>
<stop offset="0.8628" stop-color="#512BD4"/>
</radialGradient>
</defs>
</svg>
