<svg width="636" height="300" viewBox="0 0 636 300" fill="none" xmlns="http://www.w3.org/2000/svg">
<path d="M116.15 223.18C116.41 226.68 119.64 235.41 121.01 238.57C188.88 241.53 317 250.53 516.94 265C516.98 263.53 516.84 262.24 516.88 260.77C515.76 218.68 491.21 186.16 457.49 171.56C457.55 169.72 457.6 167.89 457.47 166.05C455.76 143.59 436.49 124.83 414.65 124.17C407.3 124.13 400.45 125.95 394.84 129.45C382.26 96.01 350.31 71.17 314.71 70.1C278.37 69.19 249.73 93.31 242.83 127.26C233.63 121.84 223.25 118.59 212.24 118.26C178.84 117.44 153.78 144.42 156.42 178.84C156.41 179.02 156.41 179.21 156.4 179.39C132.37 178.67 114.14 198.33 116.15 223.18Z" fill="url(#paint0_radial)"/>
<path d="M231.95 191.46C231.94 210.7 217.03 225.63 199.11 224.84C181.68 224.07 167.91 208.64 167.92 190.36C167.93 172.08 181.71 157.12 199.14 156.95C217.06 156.78 231.96 172.23 231.95 191.46Z" fill="#F8B84F"/>
<path d="M204.98 166.37L193.92 167.78C193.74 167.8 193.6 167.97 193.6 168.17L193.58 210.79C193.58 210.99 193.72 211.17 193.91 211.19L204.89 212.6C205.11 212.63 205.3 212.45 205.3 212.22L205.4 166.76C205.4 166.52 205.21 166.34 204.98 166.37Z" fill="#1572E0"/>
<path d="M197.7 171.99L189.85 172.9C189.6 172.93 189.42 173.15 189.42 173.42L189.41 210.16C189.41 210.42 189.58 210.64 189.82 210.69L198.63 212.36C198.92 212.42 199.18 212.2 199.2 211.9C199.44 207.67 199.82 181.27 199.52 178.04C199.27 175.31 198.53 173.14 198.22 172.32C198.13 172.1 197.92 171.97 197.7 171.99Z" fill="#84817D"/>
<path d="M205.3 212.61L213.72 212.9C214.72 212.93 215.53 212.11 215.53 211.06L215.55 168.24C215.55 167.19 214.74 166.34 213.74 166.34L205.31 166.36C204.32 166.36 203.52 167.21 203.52 168.25L203.5 210.67C203.52 211.7 204.32 212.58 205.3 212.61Z" fill="#4995EE"/>
<path d="M198.76 212.39L202.51 212.52C203.06 212.54 203.51 212.08 203.51 211.5L203.52 172.97C203.52 172.39 203.07 171.91 202.52 171.91L198.77 171.9C198.22 171.9 197.78 172.37 197.78 172.95L197.77 211.3C197.77 211.88 198.21 212.37 198.76 212.39Z" fill="#B3AFAB"/>
<path d="M191.25 211.51L183.94 211.41C183.75 211.4 183.56 211.37 183.38 211.32L176.9 209.39L189.41 209.4L191.25 211.51Z" fill="#C4832D"/>
<path d="M189.01 180.11L183.28 180.68C183.08 180.7 182.91 180.86 182.86 181.07L176.54 208.73C176.47 209.06 176.7 209.38 177.01 209.39L184.29 209.54C184.52 209.54 184.72 209.37 184.76 209.13L189.54 180.74C189.6 180.39 189.34 180.08 189.01 180.11Z" fill="#E29E3B"/>
<path d="M184.5 209.9L190.57 211.47C191.27 211.65 191.96 211.19 192.11 210.45L197.51 183.31C197.66 182.56 197.21 181.81 196.5 181.65L190.37 180.22C189.67 180.06 188.98 180.53 188.83 181.28L183.51 208.24C183.36 208.97 183.81 209.72 184.5 209.9Z" fill="white"/>
<path d="M188.18 194.33L192.97 195.51C193.28 195.59 193.59 195.38 193.65 195.05L195.55 185.58C195.62 185.25 195.42 184.92 195.1 184.85L190.29 183.71C189.98 183.64 189.68 183.85 189.61 184.17L187.72 193.59C187.68 193.92 187.87 194.25 188.18 194.33Z" fill="#FBC977"/>
<path d="M203.53 180.96V169.79H215.56L215.55 181.07L203.53 180.96Z" fill="#A3C9F6"/>
<path d="M198.96 185.18L198.97 178.89L202.45 178.92V185.22L198.96 185.18Z" fill="white"/>
<path d="M413.8 70.41L341.99 77.56C339.43 77.81 337.36 80.18 337.36 82.84V229.03C337.36 231.69 339.43 233.93 341.99 234.02L413.8 236.68C416.71 236.79 419.07 234.56 419.07 231.71V75.05C419.07 72.19 416.7 70.12 413.8 70.41Z" fill="#84817D"/>
<path d="M414.71 57.28L341.55 65.35C339.68 65.56 338.17 67.3 338.17 69.24V79.29L418.55 71.38V60.63C418.55 58.55 416.83 57.05 414.71 57.28Z" fill="#9C9894"/>
<path d="M409.46 53.44L345.6 60.72C338.99 61.47 333.69 67.62 333.69 74.45V223.07C333.69 229.91 338.99 235.65 345.6 235.91L409.46 238.37C416.91 238.66 423.02 232.92 423.02 225.54V65.25C423.03 57.88 416.92 52.6 409.46 53.44ZM417.35 224.63C417.35 229.2 413.57 232.78 408.95 232.62L346.07 230.49C341.94 230.35 338.62 226.77 338.62 222.5V74.67C338.62 70.4 341.94 66.57 346.07 66.12L408.95 59.25C413.58 58.74 417.35 62.04 417.35 66.61V224.63Z" fill="#56534F"/>
<path d="M355.61 64.84V66C355.61 68.8 357.82 70.85 360.56 70.56L393.83 67.1C396.74 66.8 399.11 64.19 399.11 61.28V60.08L355.61 64.84Z" fill="#56534F"/>
<path d="M387.93 63.8C387.93 64.59 387.29 65.29 386.51 65.37C385.73 65.45 385.09 64.88 385.09 64.1C385.09 63.32 385.72 62.61 386.51 62.53C387.29 62.44 387.93 63.01 387.93 63.8Z" fill="#6D6A66"/>
<path d="M372.37 66.66L381.35 65.71C381.9 65.65 382.34 65.15 382.34 64.58V64.5C382.34 63.93 381.9 63.52 381.35 63.58L372.37 64.55C371.83 64.61 371.4 65.11 371.4 65.67V65.75C371.4 66.31 371.83 66.72 372.37 66.66Z" fill="#6D6A66"/>
<path d="M391.06 229.96L362.89 229.06C362.44 229.05 362.07 228.66 362.07 228.2C362.07 227.74 362.43 227.38 362.89 227.39L391.06 228.25C391.53 228.26 391.92 228.66 391.92 229.13C391.92 229.6 391.54 229.97 391.06 229.96Z" fill="#9C9894"/>
<path d="M290.26 174.92L223.1 175.33V50.2499L290.26 42.0099V174.92Z" fill="#81B5F3"/>
<path d="M288.52 31.1999C284.64 28.8799 279.55 28.4499 256.13 31.6199C256.07 31.6299 256.01 31.6399 255.95 31.6399C255.89 31.6499 255.83 31.6599 255.78 31.6599C233.32 34.7199 228.69 36.4099 225.2 39.5699C222.54 41.9799 221.59 45.3499 221.59 48.2799C221.59 52.6999 221.59 76.7899 221.59 97.41C221.59 114.02 221.59 128.39 221.59 128.39C221.59 149.01 221.59 173.1 221.59 177.52C221.59 180.45 222.54 183.7 225.2 185.76C228.69 188.47 233.32 189.56 255.78 189.74C255.84 189.74 255.9 189.74 255.96 189.74C256.02 189.74 256.08 189.74 256.13 189.74C279.55 189.89 284.64 188.81 288.52 185.99C291.52 183.81 292.6 180.35 292.6 177.23C292.6 172.52 292.6 146.84 292.6 124.85C292.6 124.85 292.6 109.54 292.6 91.8199C292.6 69.8299 292.6 44.1499 292.6 39.4399C292.6 36.3199 291.52 32.9999 288.52 31.1999ZM287.91 172.81L225.84 173.3V52.4799L287.91 45.0199V172.81Z" fill="#505050"/>
<path d="M263.86 42.1299L247.85 44.1399C247.11 44.2299 246.52 43.6399 246.52 42.8199C246.52 41.9999 247.12 41.2599 247.85 41.1699L263.86 39.1199C264.62 39.0199 265.23 39.6199 265.23 40.4499C265.23 41.2799 264.62 42.0299 263.86 42.1299Z" fill="#797673"/>
<path d="M284.49 36.6299C285.04 37.3199 284.92 38.4399 284.21 39.1199C283.5 39.7999 282.49 39.7999 281.94 39.0999C281.39 38.4099 281.52 37.2999 282.22 36.6099C282.92 35.9299 283.94 35.9299 284.49 36.6299Z" fill="#797673"/>
<path d="M272.6 181.69C272.6 182.73 271.83 183.57 270.88 183.57C269.93 183.57 269.16 182.73 269.16 181.69C269.16 180.66 269.93 179.81 270.88 179.81C271.83 179.81 272.6 180.65 272.6 181.69Z" fill="#797673"/>
<path d="M259.41 181.67C259.41 183.12 258.34 184.29 257.03 184.29C255.72 184.29 254.66 183.11 254.66 181.67C254.66 180.23 255.72 179.05 257.03 179.05C258.35 179.05 259.41 180.22 259.41 181.67Z" fill="#797673"/>
<path d="M240.45 182.78L245.4 182.79V179.84L240.45 179.85V182.78Z" fill="#797673"/>
<path d="M281.05 103.63L231.38 107.06V86.9199L281.05 82.5599V103.63Z" fill="#3E8EED"/>
<path d="M281.05 77.3399L231.38 81.9299V58.6699L281.05 53.0099V77.3399Z" fill="#3E8EED"/>
<path d="M281.05 159.02L231.38 160.03V111.28L281.05 108.04V159.02Z" fill="#3E8EED"/>
<path d="M262.92 64.4099L239.81 66.8499C239.14 66.9199 238.59 66.3699 238.59 65.6099C238.59 64.8499 239.13 64.1899 239.81 64.1199L262.92 61.6199C263.62 61.5399 264.19 62.1099 264.19 62.8799C264.19 63.6499 263.62 64.3399 262.92 64.4099Z" fill="#A3C9F6"/>
<path d="M272.88 69.7199L239.8 73.0199C239.13 73.0899 238.58 72.5299 238.58 71.7799C238.58 71.0299 239.12 70.3599 239.8 70.2899L272.88 66.9099C273.59 66.8399 274.17 67.4099 274.17 68.1899C274.17 68.9599 273.59 69.6399 272.88 69.7199Z" fill="#A3C9F6"/>
<path d="M268.57 92.5599L239.8 94.8599C239.13 94.9099 238.58 94.3499 238.58 93.5899C238.58 92.8299 239.12 92.1799 239.8 92.1299L268.57 89.7599C269.28 89.6999 269.85 90.2799 269.85 91.0599C269.85 91.8299 269.28 92.4999 268.57 92.5599Z" fill="#A3C9F6"/>
<path d="M260.64 99.4799L239.8 101.02C239.13 101.07 238.58 100.5 238.58 99.7499C238.58 98.9999 239.12 98.3399 239.8 98.2899L260.64 96.6899C261.34 96.6399 261.9 97.2199 261.9 97.9899C261.9 98.7599 261.34 99.4299 260.64 99.4799Z" fill="#A3C9F6"/>
<path d="M407.32 142.53L347.54 144.95V122.29L407.32 118.69V142.53Z" fill="#60DEFA"/>
<path d="M407.32 112.78L347.54 116.67V90.49L407.32 85.24V112.78Z" fill="#60DEFA"/>
<path d="M407.32 205.23L347.54 204.55V149.7L407.32 147.52V205.23Z" fill="#60DEFA"/>
<path d="M385.41 97.71L357.62 99.91C356.82 99.97 356.16 99.34 356.16 98.49C356.16 97.64 356.81 96.9 357.62 96.84L385.41 94.57C386.25 94.5 386.94 95.15 386.94 96.02C386.94 96.89 386.26 97.65 385.41 97.71Z" fill="white"/>
<path d="M397.44 103.94L357.63 106.85C356.83 106.91 356.17 106.27 356.17 105.42C356.17 104.57 356.82 103.84 357.63 103.77L397.44 100.76C398.3 100.69 399 101.36 399 102.23C399 103.12 398.3 103.88 397.44 103.94Z" fill="white"/>
<path d="M392.24 129.66L357.63 131.45C356.83 131.49 356.17 130.84 356.17 129.99C356.17 129.14 356.82 128.42 357.63 128.38L392.24 126.49C393.09 126.44 393.79 127.12 393.79 127.99C393.78 128.87 393.09 129.61 392.24 129.66Z" fill="white"/>
<path d="M382.67 137.25L357.63 138.4C356.83 138.44 356.17 137.78 356.17 136.93C356.17 136.08 356.82 135.36 357.63 135.32L382.67 134.11C383.51 134.07 384.19 134.74 384.19 135.61C384.19 136.48 383.51 137.21 382.67 137.25Z" fill="white"/>
<path d="M385.41 156.63L357.62 157.45C356.82 157.47 356.16 156.81 356.16 155.96C356.16 155.11 356.81 154.4 357.62 154.38L385.41 153.49C386.25 153.46 386.94 154.15 386.94 155.02C386.94 155.89 386.26 156.61 385.41 156.63Z" fill="white"/>
<path d="M390.51 163.63L357.63 164.4C356.83 164.42 356.17 163.75 356.17 162.9C356.17 162.05 356.82 161.35 357.63 161.33L390.51 160.47C391.36 160.45 392.05 161.14 392.05 162.01C392.05 162.88 391.36 163.61 390.51 163.63Z" fill="white"/>
<path d="M398.89 170.62L357.62 171.34C356.82 171.35 356.16 170.68 356.16 169.83C356.16 168.98 356.81 168.28 357.62 168.27L398.89 167.44C399.75 167.42 400.46 168.12 400.46 169C400.46 169.88 399.76 170.61 398.89 170.62Z" fill="white"/>
<path d="M391.37 177.9L357.62 178.29C356.82 178.3 356.16 177.62 356.16 176.77C356.16 175.92 356.81 175.23 357.62 175.21L391.37 174.73C392.22 174.72 392.92 175.42 392.92 176.29C392.92 177.16 392.23 177.89 391.37 177.9Z" fill="white"/>
<path d="M375.91 184.9L357.62 185C356.82 185 356.16 184.32 356.16 183.47C356.16 182.62 356.81 181.93 357.62 181.92L375.91 181.77C376.74 181.76 377.42 182.46 377.42 183.32C377.42 184.2 376.74 184.9 375.91 184.9Z" fill="white"/>
<path d="M195.82 114.11L154.8 116.57C150.52 116.83 147.09 112.88 147.09 107.75V80.35C147.09 75.23 150.53 70.71 154.8 70.26L195.82 65.94C200.49 65.45 204.3 69.44 204.3 74.85V103.8C204.3 109.21 200.48 113.83 195.82 114.11Z" fill="#C5D43B"/>
<path d="M195.81 101.38L223.1 92.3199L195.75 84.6899L195.81 101.38Z" fill="#C5D43B"/>
<path d="M441.2 172.72L506.95 171.72C514.53 171.6 520.74 165.75 520.74 158.63V120.61C520.74 113.5 514.53 108.13 506.95 108.61L441.2 112.78C434.44 113.21 429.01 118.92 429.01 125.54V160.93C429.01 167.54 434.43 172.82 441.2 172.72Z" fill="#F7B548"/>
<path d="M436.95 163.03L407.32 167.54L432.59 143.46L436.95 163.03Z" fill="#F7B548"/>
<path d="M496.34 129.16L445.67 131.59C444.24 131.66 443.08 130.58 443.08 129.18C443.08 127.78 444.24 126.59 445.67 126.51L496.34 123.87C497.89 123.79 499.15 124.91 499.15 126.37C499.15 127.84 497.89 129.09 496.34 129.16Z" fill="white"/>
<path d="M496.34 141.5L445.67 143.45C444.24 143.51 443.08 142.42 443.08 141.02C443.08 139.62 444.24 138.44 445.67 138.38L496.34 136.22C497.89 136.15 499.15 137.29 499.15 138.75C499.15 140.21 497.89 141.44 496.34 141.5Z" fill="white"/>
<path d="M477.06 154.4L445.68 155.31C444.25 155.35 443.09 154.25 443.09 152.85C443.09 151.45 444.25 150.28 445.68 150.23L477.06 149.19C478.57 149.14 479.79 150.27 479.79 151.71C479.79 153.15 478.56 154.36 477.06 154.4Z" fill="white"/>
<path d="M191.02 87.2999L159.27 90.0199C158.37 90.0999 157.63 89.2799 157.63 88.1999C157.63 87.1199 158.36 86.1699 159.27 86.0899L191.02 83.2499C191.98 83.1599 192.77 83.9999 192.77 85.1199C192.77 86.2399 191.98 87.2199 191.02 87.2999Z" fill="white"/>
<path d="M180.55 97.56L159.27 99.19C158.37 99.26 157.63 98.44 157.63 97.36C157.63 96.28 158.36 95.34 159.27 95.27L180.55 93.56C181.49 93.48 182.26 94.32 182.26 95.43C182.26 96.53 181.49 97.49 180.55 97.56Z" fill="white"/>
<path d="M357.51 209.36L305.43 208.04C303.82 207.94 302.51 206.5 302.51 204.83L302.16 136.67C302.16 135 303.47 133.65 305.08 133.66L338.99 132.42C339.78 132.43 340.55 132.74 341.12 133.3L359.73 151.41C360.36 152.02 360.71 152.85 360.71 153.72L360.69 206.39C360.68 208.14 359.26 209.47 357.51 209.36Z" fill="#3E8EED"/>
<path d="M359.72 151.42L341.11 133.31C340.84 133.05 340.53 132.85 340.2 132.7L339.96 149.73C339.96 151.46 341.35 152.89 343.07 152.93L360.4 152.41C360.24 152.05 360.01 151.71 359.72 151.42Z" fill="#81B5F3"/>
<path d="M321.24 182.72C321.24 183.9 321.57 184.75 322.23 185.27C322.89 185.8 323.86 186.07 325.14 186.09V188.52C322.99 188.5 321.33 188.01 320.16 187.03C318.99 186.06 318.41 184.68 318.41 182.91V177.68C318.41 176.48 318.06 175.63 317.35 175.13C316.65 174.63 315.62 174.39 314.29 174.41V171.98C315.74 171.93 316.79 171.64 317.44 171.1C318.09 170.56 318.42 169.74 318.42 168.63V163.35C318.42 161.57 319.03 160.17 320.24 159.14C321.46 158.12 323.09 157.58 325.15 157.52V159.93C322.55 160.06 321.25 161.24 321.25 163.47V168.57C321.25 171.05 319.99 172.53 317.49 173.02V173.23C319.99 173.64 321.24 175.09 321.24 177.57V182.72Z" fill="white"/>
<path d="M328.95 165.66C328.95 164.09 329.62 163.3 330.97 163.27C332.38 163.24 333.08 164.01 333.08 165.58C333.08 166.34 332.89 166.92 332.51 167.34C332.13 167.75 331.62 167.97 330.97 167.98C330.39 167.99 329.9 167.82 329.52 167.46C329.14 167.09 328.95 166.49 328.95 165.66ZM328.94 181.02C328.94 180.24 329.11 179.65 329.46 179.25C329.81 178.85 330.31 178.64 330.96 178.63C331.62 178.62 332.14 178.82 332.51 179.22C332.88 179.62 333.07 180.21 333.07 180.99C333.07 181.75 332.88 182.33 332.5 182.74C332.12 183.15 331.61 183.36 330.96 183.36C330.38 183.36 329.89 183.18 329.51 182.82C329.13 182.46 328.94 181.86 328.94 181.02Z" fill="white"/>
<path d="M344.76 172.63C342.16 172.21 340.87 170.75 340.87 168.23V163.05C340.87 160.79 339.56 159.66 336.93 159.65V157.22C339.05 157.16 340.73 157.63 341.95 158.62C343.18 159.61 343.79 161 343.79 162.8V168.18C343.79 169.32 344.13 170.15 344.82 170.67C345.51 171.19 346.61 171.45 348.13 171.45V173.94C346.7 173.96 345.62 174.24 344.89 174.77C344.16 175.3 343.79 176.18 343.79 177.4V182.73C343.79 184.52 343.19 185.93 342 186.93C340.81 187.94 339.12 188.45 336.92 188.48V186.03C338.2 186 339.18 185.71 339.85 185.17C340.52 184.63 340.86 183.76 340.86 182.57V177.36C340.86 176.03 341.18 175 341.82 174.29C342.46 173.58 343.44 173.1 344.75 172.84L344.76 172.63Z" fill="white"/>
<defs>
<radialGradient id="paint0_radial" cx="0" cy="0" r="1" gradientUnits="userSpaceOnUse" gradientTransform="translate(280.762 351.608) rotate(-0.885957) scale(181.557)">
<stop offset="0.1159" stop-color="white"/>
<stop offset="0.9695" stop-color="#B8D6F7"/>
</radialGradient>
</defs>
</svg>
