<svg width="636" height="300" viewBox="0 0 636 300" fill="none" xmlns="http://www.w3.org/2000/svg">
<path d="M223.56 230.75C223.15 230.75 222.76 230.5 222.61 230.1C222.41 229.57 222.67 228.98 223.19 228.78L337.5 184.48C337.73 184.39 337.99 184.39 338.22 184.47L454.2 226.61L509.99 206.11C510.52 205.91 511.11 206.19 511.3 206.72C511.49 207.25 511.22 207.84 510.69 208.03L454.55 228.66C454.33 228.74 454.08 228.74 453.85 228.66L337.88 186.52L223.93 230.68C223.81 230.73 223.68 230.75 223.56 230.75Z" fill="#908D89"/>
<path d="M293.2 171.85C293.08 171.85 292.96 171.83 292.85 171.79L180.68 130.35L125.05 150.73C124.82 150.81 124.56 150.81 124.33 150.73L96.61 140.2C96.08 140 95.82 139.41 96.02 138.88C96.22 138.35 96.8099 138.08 97.3399 138.29L124.7 148.69L180.33 128.31C180.56 128.23 180.81 128.23 181.04 128.31L293.57 169.88C294.1 170.08 294.37 170.66 294.18 171.19C294.01 171.59 293.62 171.85 293.2 171.85Z" fill="#908D89"/>
<path d="M322.03 164.64C321.91 164.64 321.79 164.62 321.68 164.58L225.23 129.1C224.82 128.95 224.56 128.56 224.56 128.13C224.56 127.7 224.84 127.31 225.24 127.17L255.17 116.64C255.71 116.45 256.29 116.73 256.47 117.27C256.66 117.8 256.38 118.39 255.84 118.57L228.59 128.16L322.37 162.66C322.9 162.85 323.17 163.44 322.98 163.97C322.84 164.38 322.44 164.64 322.03 164.64Z" fill="#908D89"/>
<path d="M365.26 171.29C364.84 171.29 364.44 171.03 364.3 170.61C364.11 170.08 364.39 169.49 364.93 169.31L445.31 141.04C445.54 140.96 445.79 140.96 446.01 141.05L499.97 161.42L560.58 138.28C561.11 138.08 561.7 138.34 561.9 138.87C562.1 139.4 561.84 139.99 561.31 140.19L500.34 163.47C500.11 163.56 499.85 163.56 499.61 163.47L445.64 143.09L365.62 171.24C365.49 171.27 365.38 171.29 365.26 171.29Z" fill="#908D89"/>
<path d="M337.43 163.96C337.02 163.96 336.63 163.71 336.47 163.3C336.27 162.77 336.54 162.18 337.07 161.98L470.78 111.66C471.31 111.46 471.9 111.73 472.1 112.26C472.3 112.79 472.03 113.38 471.5 113.58L337.79 163.9C337.67 163.94 337.55 163.96 337.43 163.96Z" fill="#908D89"/>
<path d="M257.17 205.11C257.05 205.11 256.93 205.09 256.81 205.05L174.91 174.72L101.61 201.43C101.08 201.62 100.49 201.35 100.3 200.82C100.11 200.29 100.38 199.7 100.91 199.51L174.56 172.68C174.79 172.6 175.04 172.6 175.27 172.68L257.17 203.01L297.28 188.72C297.81 188.53 298.4 188.81 298.59 189.34C298.78 189.87 298.5 190.46 297.97 190.65L257.5 205.06C257.4 205.09 257.29 205.11 257.17 205.11Z" fill="#908D89"/>
<path d="M480.55 90.59L458.15 82.81L480.55 75.03L502.94 82.81L480.55 90.59Z" fill="#DDDBDA"/>
<path d="M458.15 82.8101V109.48L480.55 117.14V90.5901L458.15 82.8101Z" fill="#BBB8B4"/>
<path d="M502.96 82.8101V109.48L480.55 117.14V90.5901L502.96 82.8101Z" fill="#908D89"/>
<path d="M445.41 150.42L412.06 138.83L445.41 127.25L478.76 138.83L445.41 150.42Z" fill="#FCCF84"/>
<path d="M412.06 138.83V142.62L445.41 154.02V150.42L412.06 138.83Z" fill="#F7B548"/>
<path d="M478.79 138.83V142.62L445.41 154.02V150.42L478.79 138.83Z" fill="#E29E3B"/>
<path d="M331.45 188.81L278.16 170.3L331.45 151.78L384.74 170.3L331.45 188.81Z" fill="#DDDBDA"/>
<path d="M331.45 182.99L294.91 170.3L331.45 157.6L367.99 170.3L331.45 182.99Z" fill="#CC5444"/>
<path d="M278.16 170.3V191.04L331.45 209.26V188.81L278.16 170.3Z" fill="#BBB8B4"/>
<path d="M384.79 170.3V191.04L331.45 209.26V188.81L384.79 170.3Z" fill="#908D89"/>
<path d="M260.54 97.5L236.27 89.07L260.54 80.64L284.81 89.07L260.54 97.5Z" fill="#A3C9F6"/>
<path d="M236.27 89.0701V116.94L260.54 125.24V97.5001L236.27 89.0701Z" fill="#3E8EED"/>
<path d="M284.83 89.0701V116.94L260.54 125.24V97.5001L284.83 89.0701Z" fill="#0064DA"/>
<path d="M419.51 110.13V138.88L445.15 147.65V119.03L419.51 110.13Z" fill="#F7B548"/>
<path d="M470.81 110.13V138.88L445.15 147.65V119.03L470.81 110.13Z" fill="#E29E3B"/>
<path d="M445.15 119.03L419.51 110.13L445.15 101.22L470.79 110.13L445.15 119.03Z" fill="#FCCF84"/>
<path d="M499.11 219.87L465.75 208.29L499.11 196.7L532.46 208.29L499.11 219.87Z" fill="#A3C9F6"/>
<path d="M465.75 208.29V212.07L499.11 223.48V219.87L465.75 208.29Z" fill="#3E8EED"/>
<path d="M532.49 208.29V212.07L499.11 223.48V219.87L532.49 208.29Z" fill="#0064DA"/>
<path d="M498.85 171.88L473.2 162.98L498.85 154.07L524.49 162.98L498.85 171.88Z" fill="#A3C9F6"/>
<path d="M473.2 162.98V208.1L498.85 216.86V171.88L473.2 162.98Z" fill="#3E8EED"/>
<path d="M524.51 162.98V208.1L498.85 216.86V171.88L524.51 162.98Z" fill="#0064DA"/>
<path d="M565.91 119.64L543.52 111.86L565.91 104.08L588.31 111.86L565.91 119.64Z" fill="#F4AC99"/>
<path d="M543.52 111.86V138.53L565.91 146.19V119.64L543.52 111.86Z" fill="#E86E58"/>
<path d="M588.33 111.86V138.53L565.91 146.19V119.64L588.33 111.86Z" fill="#CC5444"/>
<path d="M219.73 244.8L186.37 233.22L219.73 221.63L253.08 233.22L219.73 244.8Z" fill="#DDDBDA"/>
<path d="M186.37 233.22V237L219.73 248.41V244.8L186.37 233.22Z" fill="#BBB8B4"/>
<path d="M253.11 233.22V237L219.73 248.41V244.8L253.11 233.22Z" fill="#908D89"/>
<path d="M219.46 213.42L193.82 204.51L219.46 195.61L245.1 204.51L219.46 213.42Z" fill="#DDDBDA"/>
<path d="M193.82 204.51V233.26L219.46 242.03V213.42L193.82 204.51Z" fill="#BBB8B4"/>
<path d="M245.13 204.51V233.26L219.46 242.03V213.42L245.13 204.51Z" fill="#908D89"/>
<path d="M89.55 145.58L56.2 133.99L89.55 122.41L122.9 133.99L89.55 145.58Z" fill="#FCCF84"/>
<path d="M56.2 133.99V137.78L89.55 149.18V145.58L56.2 133.99Z" fill="#F7B548"/>
<path d="M122.93 133.99V137.78L89.55 149.18V145.58L122.93 133.99Z" fill="#E29E3B"/>
<path d="M89.2899 97.59L63.6499 88.68L89.2899 79.78L114.93 88.68L89.2899 97.59Z" fill="#FCCF84"/>
<path d="M63.6499 88.6801V133.8L89.2899 142.57V97.59L63.6499 88.6801Z" fill="#F7B548"/>
<path d="M114.95 88.6801V133.8L89.2898 142.57V97.59L114.95 88.6801Z" fill="#E29E3B"/>
<path d="M176.34 155.86L152.07 147.43L176.34 139L200.6 147.43L176.34 155.86Z" fill="#F4AC99"/>
<path d="M152.07 147.43V175.3L176.34 183.6V155.86L152.07 147.43Z" fill="#E86E58"/>
<path d="M200.63 147.43V175.3L176.34 183.6V155.86L200.63 147.43Z" fill="#CC5444"/>
<path d="M95.8301 186.31L71.5701 177.88L95.8301 169.45L120.1 177.88L95.8301 186.31Z" fill="#A3C9F6"/>
<path d="M71.5701 177.88V205.75L95.8301 214.05V186.31L71.5701 177.88Z" fill="#3E8EED"/>
<path d="M120.12 177.88V205.75L95.8301 214.05V186.31L120.12 177.88Z" fill="#0064DA"/>
<path d="M304.66 147.65V168.34L312.74 171.06V150.54L304.66 147.65Z" fill="#3E8EED"/>
<path d="M337.51 132.8V158.08L328.66 161.26V136.19L337.51 132.8Z" fill="#A3C9F6"/>
<path d="M344.73 141.04V168.34L352.81 171.06V143.94L344.73 141.04Z" fill="#FCCF84"/>
<path d="M358.05 126.4V140.67L363.05 142.46V128.31L358.05 126.4Z" fill="#E86E58"/>
<path d="M342.42 161.03V175.29L337.43 177.09V162.94L342.42 161.03Z" fill="#A3C9F6"/>
<path d="M323.61 180.26L329.08 182.16V169.45L323.61 167.49V180.26Z" fill="#F4AC99"/>
<path d="M362.4 147.61V161.88L357.41 163.67V149.52L362.4 147.61Z" fill="#3E8EED"/>
<path d="M325.58 132.19V146.46L320.58 148.26V134.11L325.58 132.19Z" fill="#BBB8B4"/>
<path d="M313.07 105.64V129.29L321.15 132.01V108.54L313.07 105.64Z" fill="#A3C9F6"/>
<path d="M323.1 95.3401V109.61L318.11 111.41V97.2601L323.1 95.3401Z" fill="#3E8EED"/>
<path d="M340.17 107.4V128.43L347.35 130.86V109.97L340.17 107.4Z" fill="#F4AC99"/>
<path d="M335 112.5V126.76L330 128.56V114.41L335 112.5Z" fill="#E86E58"/>
<path d="M349.27 86.23V100.5L344.28 102.3V88.15L349.27 86.23Z" fill="#FCCF84"/>
<path d="M332.43 100.3V86.03L327.43 84.24V98.38L332.43 100.3Z" fill="#A3C9F6"/>
<path d="M359.26 106.5V120.77L354.27 122.56V108.42L359.26 106.5Z" fill="#FCCF84"/>
<path d="M345.7 137.98V123.71L350.7 121.92V136.07L345.7 137.98Z" fill="#3E8EED"/>
<path d="M304.31 123.06V137.33L309.31 139.12V124.97L304.31 123.06Z" fill="#FCCF84"/>
<path d="M316.68 73.53V87.8L311.69 89.59V75.44L316.68 73.53Z" fill="#FCCF84"/>
<path d="M345.13 60.3V74.57L340.14 76.3701V62.2201L345.13 60.3Z" fill="#E86E58"/>
<path d="M333.57 63.7601V49.4901L328.58 47.6901V61.8401L333.57 63.7601Z" fill="#FCCF84"/>
<path d="M320.83 40.5V59.95L314.18 62.19V42.88L320.83 40.5Z" fill="#3E8EED"/>
<path d="M334.47 25.28V39.55L339.46 41.34V27.19L334.47 25.28Z" fill="#BBB8B4"/>
</svg>
