<svg width="636" height="300" viewBox="0 0 636 300" fill="none" xmlns="http://www.w3.org/2000/svg">
<path d="M453.4 159.29L452.03 240.22L501.08 238.73L502.49 160.62L453.4 159.29Z" fill="#A7A4A0"/>
<path d="M456.42 152.44L451.05 152.27C449.27 152.21 447.8 153.89 447.76 156.01L446.4 236.56C446.36 238.68 447.78 240.35 449.56 240.3L454.92 240.14L456.42 152.44Z" fill="#84817D"/>
<path d="M552.23 155.5L500.6 153.85L499.07 238.79L550.67 237.22C552.2 237.17 553.46 235.55 553.5 233.59L554.93 159.14C554.97 157.18 553.76 155.55 552.23 155.5Z" fill="#84817D"/>
<path d="M554.83 164.41L554.93 159.15C554.97 157.19 553.76 155.55 552.23 155.51L451.05 152.28C449.27 152.22 447.8 153.9 447.76 156.02L447.66 161.71L554.83 164.41Z" fill="#BBB8B4"/>
<path d="M480.16 175.37L462.44 175.09L462.48 172.42L480.21 172.74L480.16 175.37Z" fill="#84817D"/>
<path d="M480.04 181.96L462.32 181.76L462.37 179.09L480.09 179.32L480.04 181.96Z" fill="#84817D"/>
<path d="M479.93 188.54L462.21 188.43L462.25 185.76L479.98 185.91L479.93 188.54Z" fill="#84817D"/>
<path d="M479.82 194.95L462.09 194.92L462.14 192.26L479.86 192.32L479.82 194.95Z" fill="#84817D"/>
<path d="M479.7 201.53L461.98 201.59L462.03 198.92L479.75 198.9L479.7 201.53Z" fill="#84817D"/>
<path d="M479.58 208.11L461.87 208.25L461.91 205.58L479.63 205.48L479.58 208.11Z" fill="#84817D"/>
<path d="M505.477 173.172L505.436 175.762L507.376 175.793L507.417 173.203L505.477 173.172Z" fill="#666666"/>
<path d="M507.25 182.26L505.32 182.24L505.37 179.65L507.3 179.68L507.25 182.26Z" fill="#666666"/>
<path d="M507.14 188.71L505.2 188.7L505.25 186.12L507.18 186.13L507.14 188.71Z" fill="#666666"/>
<path d="M507.02 195.17L505.08 195.16L505.13 192.58L507.07 192.59L507.02 195.17Z" fill="#666666"/>
<path d="M506.9 201.62H504.97L505.01 199.04H506.95L506.9 201.62Z" fill="#666666"/>
<path d="M506.78 208.07L504.85 208.08L504.9 205.5L506.83 205.49L506.78 208.07Z" fill="#666666"/>
<path d="M506.67 214.51L504.73 214.54L504.78 211.96L506.71 211.93L506.67 214.51Z" fill="#666666"/>
<path d="M506.55 220.96L504.62 220.99L504.66 218.41L506.6 218.38L506.55 220.96Z" fill="#666666"/>
<path d="M506.43 227.4L504.5 227.44L504.55 224.86L506.48 224.82L506.43 227.4Z" fill="#666666"/>
<path d="M547.69 176.45L511.66 175.87L511.71 173.3L547.74 173.94L547.69 176.45Z" fill="#666666"/>
<path d="M536.43 176.27L529.94 176.16L529.99 173.62L536.48 173.74L536.43 176.27Z" fill="#666666"/>
<path d="M532.57 188.88L511.42 188.74L511.47 186.17L532.62 186.34L532.57 188.88Z" fill="#666666"/>
<path d="M547.34 195.23L511.31 195.17L511.35 192.6L547.38 192.73L547.34 195.23Z" fill="#666666"/>
<path d="M537.9 201.52L511.19 201.6L511.24 199.03L537.94 199L537.9 201.52Z" fill="#666666"/>
<path d="M542.05 207.79L511.07 208.03L511.12 205.46L542.1 205.28L542.05 207.79Z" fill="#666666"/>
<path d="M546.98 214L510.95 214.46L511 211.89L547.02 211.5L546.98 214Z" fill="#666666"/>
<path d="M539.2 220.39L510.84 220.88L510.88 218.31L539.24 217.87L539.2 220.39Z" fill="#666666"/>
<path d="M525.13 226.99L510.72 227.31L510.77 224.74L525.18 224.44L525.13 226.99Z" fill="#666666"/>
<path d="M529.29 188.86L522.09 188.81L522.14 186.26L529.33 186.32L529.29 188.86Z" fill="#666666"/>
<path d="M523.39 195.19L517.64 195.18L517.69 192.62L523.44 192.64L523.39 195.19Z" fill="#666666"/>
<path d="M537.9 201.52L531.78 201.54L531.83 199.01L537.94 199L537.9 201.52Z" fill="#666666"/>
<path d="M523.39 214.3L517 214.38L517.05 211.82L523.44 211.75L523.39 214.3Z" fill="#666666"/>
<path d="M530.44 220.54L523.41 220.66L523.46 218.12L530.49 218.01L530.44 220.54Z" fill="#666666"/>
<path d="M523.7 220.66L516.6 220.78L516.64 218.22L523.74 218.11L523.7 220.66Z" fill="#666666"/>
<path d="M528.93 195.2L523.23 195.19L523.271 192.64L528.98 192.66L528.93 195.2Z" fill="#666666"/>
<path d="M539.42 195.22L533.8 195.21L533.85 192.68L539.47 192.7L539.42 195.22Z" fill="#666666"/>
<path d="M528.93 214.23L522.59 214.31L522.64 211.76L528.98 211.7L528.93 214.23Z" fill="#666666"/>
<path d="M535.92 220.45L528.95 220.57L529 218.03L535.97 217.92L535.92 220.45Z" fill="#666666"/>
<path d="M519.4 227.11L514.45 227.22L514.5 224.66L519.45 224.56L519.4 227.11Z" fill="#666666"/>
<path d="M400.71 262.67L244.44 269.66C240.61 269.83 237.53 266.82 237.58 262.93L238.89 155.61C238.94 151.7 242.1 148.62 245.94 148.74L402.44 153.45C405.55 153.54 408.02 156.46 407.97 159.96L406.43 256.11C406.37 259.59 403.82 262.53 400.71 262.67Z" fill="#84817D"/>
<path d="M276.52 149.65L244.29 148.68C241.36 148.59 238.94 150.94 238.9 153.93L237.55 264.58C237.51 267.55 239.87 269.85 242.79 269.72L274.96 268.28L276.52 149.65Z" fill="#666666"/>
<path d="M407.86 166.72L408.02 156.9C408.05 155.08 406.77 153.57 405.16 153.52L242.6 148.63C240.6 148.57 238.96 150.17 238.94 152.19L238.81 163.16L407.86 166.72Z" fill="#666666"/>
<path d="M253.28 156.39C253.26 157.93 252.03 159.14 250.52 159.11C249.01 159.07 247.8 157.8 247.82 156.25C247.84 154.71 249.08 153.49 250.59 153.53C252.1 153.57 253.3 154.85 253.28 156.39Z" fill="#908D89"/>
<path d="M263.56 156.65C263.54 158.18 262.32 159.39 260.83 159.35C259.34 159.31 258.15 158.04 258.16 156.51C258.18 154.98 259.41 153.77 260.9 153.81C262.39 153.85 263.58 155.12 263.56 156.65Z" fill="#908D89"/>
<path d="M273.71 156.91C273.69 158.43 272.49 159.63 271.02 159.59C269.55 159.56 268.37 158.29 268.39 156.77C268.41 155.25 269.62 154.05 271.09 154.09C272.56 154.13 273.73 155.39 273.71 156.91Z" fill="#908D89"/>
<path d="M524.96 214.13L422.56 215.41C419.52 215.45 417.1 212.67 417.15 209.2L418.38 133.24C418.44 129.76 420.96 127.05 423.99 127.2L526.47 132.2C529.08 132.33 531.14 135.03 531.08 138.24L529.77 208.27C529.73 211.48 527.57 214.1 524.96 214.13Z" fill="#D5D3D0"/>
<path d="M531.02 142.27L531.16 134.9C531.19 133.54 530.31 132.39 529.21 132.34L420.84 127.05C419.55 126.99 418.48 128.13 418.45 129.61L418.32 137.6L531.02 142.27Z" fill="#BBB8B4"/>
<path d="M427.75 132.82C427.73 133.94 426.92 134.82 425.94 134.77C424.96 134.73 424.18 133.78 424.2 132.66C424.22 131.53 425.03 130.66 426.01 130.71C426.99 130.75 427.77 131.7 427.75 132.82Z" fill="#B2B2B2"/>
<path d="M434.45 133.12C434.43 134.24 433.63 135.11 432.66 135.07C431.69 135.03 430.91 134.09 430.93 132.97C430.95 131.85 431.75 130.98 432.73 131.02C433.7 131.06 434.47 132 434.45 133.12Z" fill="#B2B2B2"/>
<path d="M441.09 133.42C441.07 134.53 440.28 135.4 439.32 135.36C438.36 135.32 437.59 134.38 437.61 133.27C437.63 132.16 438.43 131.29 439.39 131.33C440.34 131.37 441.11 132.31 441.09 133.42Z" fill="#B2B2B2"/>
<path d="M435.64 171.97L431.73 171.9L431.77 169.43L435.68 169.5L435.64 171.97Z" fill="#A7A4A0"/>
<path d="M435.52 179.03L431.61 178.98L431.65 176.5L435.56 176.56L435.52 179.03Z" fill="#A7A4A0"/>
<path d="M435.36 186.1L431.45 186.07L431.49 183.6L435.4 183.63L435.36 186.1Z" fill="#A7A4A0"/>
<path d="M435.24 193.15L431.33 193.14L431.37 190.67L435.28 190.69L435.24 193.15Z" fill="#A7A4A0"/>
<path d="M435.13 200.18L431.22 200.19L431.26 197.72L435.17 197.71L435.13 200.18Z" fill="#A7A4A0"/>
<path d="M435.01 207.23L431.1 207.25L431.14 204.78L435.05 204.76L435.01 207.23Z" fill="#A7A4A0"/>
<path d="M508.52 179.96L427.37 178.92L427.41 176.44L508.57 177.62L508.52 179.96Z" fill="#A7A4A0"/>
<path d="M520.16 186.75L440.46 186.12L440.5 183.66L520.2 184.43L520.16 186.75Z" fill="#A7A4A0"/>
<path d="M514.1 193.36L440.34 193.14L440.38 190.69L514.14 191.03L514.1 193.36Z" fill="#A7A4A0"/>
<path d="M519.91 200.02L440.22 200.18L440.26 197.72L519.96 197.7L519.91 200.02Z" fill="#A7A4A0"/>
<path d="M474.14 206.96L440.1 207.2L440.15 204.74L474.18 204.56L474.14 206.96Z" fill="#A7A4A0"/>
<path d="M512.51 153.2L431.77 150.56L431.81 148.08L512.56 150.86L512.51 153.2Z" fill="#A7A4A0"/>
<path d="M520.65 160.11L440.93 157.9L440.97 155.44L520.69 157.79L520.65 160.11Z" fill="#A7A4A0"/>
<path d="M516.58 166.67L436.37 164.84L436.41 162.37L516.62 164.34L516.58 166.67Z" fill="#A7A4A0"/>
<path d="M505.13 173.12L423.53 171.67L423.57 169.18L505.17 170.78L505.13 173.12Z" fill="#A7A4A0"/>
<path d="M262.25 200.28L251.61 200.3L251.65 197.05H262.29L262.25 200.28Z" fill="#908D89"/>
<path d="M262.15 208.44L251.51 208.51L251.55 205.26L262.19 205.21L262.15 208.44Z" fill="#908D89"/>
<path d="M262.04 216.6L251.41 216.72L251.45 213.47L262.08 213.37L262.04 216.6Z" fill="#908D89"/>
<path d="M261.94 224.75L251.3 224.93L251.35 221.68L261.98 221.52L261.94 224.75Z" fill="#908D89"/>
<path d="M261.83 232.9L251.2 233.14L251.24 229.89L261.88 229.67L261.83 232.9Z" fill="#908D89"/>
<path d="M261.73 241.05L251.1 241.34L251.14 238.09L261.77 237.82L261.73 241.05Z" fill="#908D89"/>
<path d="M338.16 200.14L291.19 200.23L291.23 197.05L338.2 197.06L338.16 200.14Z" fill="#A7A4A0"/>
<path d="M348.14 207.84L299.1 208.18L299.14 205.03L348.18 204.79L348.14 207.84Z" fill="#A7A4A0"/>
<path d="M338.36 215.68L306.92 216.06L306.96 212.92L338.4 212.6L338.36 215.68Z" fill="#A7A4A0"/>
<path d="M356.83 223.12L306.81 223.98L306.86 220.84L356.88 220.09L356.83 223.12Z" fill="#A7A4A0"/>
<path d="M330.91 231.37L306.7 231.9L306.75 228.77L330.95 228.28L330.91 231.37Z" fill="#C4C1BE"/>
<path d="M347.68 238.7L298.66 240.04L298.71 236.89L347.73 235.65L347.68 238.7Z" fill="#A7A4A0"/>
<path d="M310.36 200.19L291.19 200.23L291.23 197.05L310.4 197.06L310.36 200.19Z" fill="#C4C1BE"/>
<path d="M307.95 239.79L298.66 240.04L298.71 236.89L307.99 236.65L307.95 239.79Z" fill="#C4C1BE"/>
<path d="M277.62 226.9L91.98 230.36C87.39 230.45 83.68 227.06 83.72 222.79L84.76 105.02C84.8 100.73 88.58 97.4599 93.18 97.7199L279.19 108.2C282.86 108.41 285.78 111.66 285.73 115.46L284.35 219.91C284.28 223.71 281.28 226.84 277.62 226.9Z" fill="#C4C1BE"/>
<path d="M285.61 122.83L285.75 112.16C285.78 110.19 284.26 108.5 282.37 108.39L89.1599 97.4999C86.7699 97.3699 84.7999 99.0599 84.7799 101.29L84.6699 113.33L285.61 122.83Z" fill="#666666"/>
<path d="M254.65 116.68L135 110.67L135.06 105.26L254.71 111.65L254.65 116.68Z" fill="#908D89"/>
<path d="M102.01 106.38C101.99 108.06 100.52 109.36 98.7102 109.27C96.9002 109.18 95.4402 107.74 95.4602 106.04C95.4802 104.35 96.9602 103.06 98.7702 103.15C100.58 103.25 102.03 104.69 102.01 106.38Z" fill="#908D89"/>
<path d="M114.33 107.02C114.31 108.69 112.86 109.98 111.08 109.89C109.3 109.8 107.86 108.37 107.87 106.69C107.89 105.01 109.35 103.73 111.13 103.82C112.91 103.91 114.34 105.34 114.33 107.02Z" fill="#908D89"/>
<path d="M208.59 141.39L106.92 137.94L106.97 133.19L208.64 136.91L208.59 141.39Z" fill="#A7A4A0"/>
<path d="M100.46 137.73L95.46 137.56L95.51 132.77L100.51 132.96L100.46 137.73Z" fill="#A7A4A0"/>
<path d="M100.34 151.35L95.3398 151.22L95.3798 146.44L100.38 146.59L100.34 151.35Z" fill="#A7A4A0"/>
<path d="M100.16 165.02L95.1602 164.93L95.2001 160.15L100.2 160.25L100.16 165.02Z" fill="#A7A4A0"/>
<path d="M100.03 178.63L95.04 178.58L95.08 173.8L100.08 173.87L100.03 178.63Z" fill="#A7A4A0"/>
<path d="M99.9102 192.2L94.9102 192.18L94.9602 187.41L99.9501 187.44L99.9102 192.2Z" fill="#A7A4A0"/>
<path d="M99.79 205.79L94.79 205.82L94.83 201.05L99.83 201.04L99.79 205.79Z" fill="#A7A4A0"/>
<path d="M208.44 154.18L106.79 151.52L106.84 146.77L208.49 149.7L208.44 154.18Z" fill="#A7A4A0"/>
<path d="M208.29 166.96L106.67 165.09L106.71 160.35L208.34 162.49L208.29 166.96Z" fill="#A7A4A0"/>
<path d="M208.14 179.74L106.54 178.66L106.59 173.91L208.19 175.27L208.14 179.74Z" fill="#A7A4A0"/>
<path d="M208 192.52L106.42 192.23L106.46 187.49L208.05 188.06L208 192.52Z" fill="#A7A4A0"/>
<path d="M207.85 205.29L106.29 205.77L106.33 201.04L207.9 200.82L207.85 205.29Z" fill="#A7A4A0"/>
<path d="M353.56 192.81L135.27 192.15C130.9 192.14 127.37 188.74 127.41 184.57L128.85 37.46C128.89 33.26 132.5 30.2 136.88 30.62L355.65 51.77C358.98 52.09 361.62 55.3 361.57 58.93L359.67 186.27C359.61 189.9 356.88 192.82 353.56 192.81Z" fill="#29C3E5"/>
<path d="M188.05 35.5799L135 30.4499C131.64 30.1299 128.89 32.4599 128.86 35.6699L127.39 186.36C127.36 189.55 130.06 192.14 133.4 192.15L186.31 192.31L188.05 35.5799Z" fill="#1FB1D1"/>
<path d="M361.41 69.3L361.6 56.61C361.64 54.26 359.93 52.19 357.78 51.99L134.07 30.36C131.23 30.09 128.9 32.06 128.87 34.77L128.73 49.43L361.41 69.3Z" fill="#666666"/>
<path d="M326.3 60.72L188.08 48.42L188.15 41.87L326.38 54.71L326.3 60.72Z" fill="#908D89"/>
<path d="M149.27 41.75C149.25 43.8 147.51 45.31 145.37 45.12C143.23 44.93 141.51 43.11 141.53 41.05C141.55 38.99 143.31 37.49 145.45 37.69C147.58 37.88 149.29 39.7 149.27 41.75Z" fill="#908D89"/>
<path d="M163.79 43.07C163.77 45.1 162.05 46.6 159.95 46.41C157.85 46.22 156.15 44.42 156.17 42.38C156.19 40.34 157.92 38.84 160.02 39.04C162.13 39.24 163.81 41.04 163.79 43.07Z" fill="#908D89"/>
<path d="M178.07 44.3699C178.05 46.3799 176.36 47.8699 174.3 47.6799C172.23 47.4999 170.57 45.7099 170.59 43.6899C170.61 41.6699 172.31 40.1799 174.38 40.3799C176.44 40.5699 178.09 42.3599 178.07 44.3699Z" fill="#908D89"/>
<path d="M225.52 82.1299L203.81 80.5999C202.54 80.5099 201.52 79.41 201.53 78.15C201.54 76.89 202.59 75.9399 203.86 76.0299L225.58 77.62C226.82 77.71 227.81 78.79 227.79 80.04C227.77 81.27 226.76 82.2099 225.52 82.1299Z" fill="#F8B84F"/>
<path d="M322.22 99.03L302.31 97.76C301.18 97.69 300.28 96.67 300.3 95.48C300.32 94.29 301.24 93.39 302.37 93.46L322.28 94.79C323.38 94.86 324.25 95.87 324.23 97.04C324.21 98.2 323.31 99.1 322.22 99.03Z" fill="#908D89"/>
<path d="M292.01 97.1L251.26 94.5C250.06 94.42 249.1 93.37 249.11 92.14C249.13 90.91 250.11 89.98 251.31 90.06L292.07 92.78C293.21 92.86 294.12 93.88 294.1 95.08C294.08 96.26 293.15 97.17 292.01 97.1Z" fill="#EEEDEC"/>
<path d="M239.66 93.75L217.38 92.33C216.13 92.25 215.12 91.17 215.14 89.92C215.15 88.67 216.18 87.72 217.43 87.8L239.71 89.28C240.93 89.36 241.9 90.43 241.88 91.66C241.87 92.89 240.87 93.83 239.66 93.75Z" fill="white"/>
<path d="M335.79 109.89L269.98 106.12C268.81 106.05 267.87 105.02 267.88 103.8C267.9 102.59 268.86 101.66 270.03 101.73L335.84 105.68C336.92 105.74 337.77 106.74 337.76 107.9C337.75 109.06 336.87 109.95 335.79 109.89Z" fill="#EEEDEC"/>
<path d="M258.06 105.43L230.72 103.86C229.49 103.79 228.5 102.72 228.52 101.48C228.53 100.24 229.55 99.29 230.78 99.36L258.12 101C259.31 101.07 260.26 102.12 260.24 103.34C260.22 104.57 259.25 105.5 258.06 105.43Z" fill="#908D89"/>
<path d="M321.93 119.17L291.44 117.62C290.3 117.56 289.39 116.55 289.4 115.35C289.42 114.15 290.35 113.23 291.49 113.3L321.98 114.93C323.07 114.99 323.95 115.98 323.93 117.15C323.93 118.33 323.03 119.23 321.93 119.17Z" fill="#908D89"/>
<path d="M280.14 117.05L230.59 114.53C229.36 114.47 228.37 113.41 228.39 112.17C228.4 110.93 229.42 109.97 230.65 110.04L280.2 112.69C281.36 112.75 282.28 113.78 282.26 114.98C282.24 116.18 281.29 117.11 280.14 117.05Z" fill="#179BB8"/>
<path d="M275.02 127.22C273.86 127.17 272.93 126.15 272.94 124.94C272.95 123.73 273.91 122.8 275.08 122.85L345.29 126.1C346.35 126.15 347.2 127.12 347.18 128.27C347.16 129.42 346.29 130.32 345.23 130.27L275.02 127.22Z" fill="#EEEDEC"/>
<path d="M265.27 126.74L243.71 125.79C242.5 125.74 241.53 124.69 241.54 123.46C241.56 122.23 242.55 121.28 243.76 121.33L265.32 122.34C266.5 122.4 267.44 123.42 267.42 124.63C267.41 125.85 266.44 126.79 265.27 126.74Z" fill="#908D89"/>
<path d="M338.08 139.92L271.36 137.4C270.19 137.36 269.25 136.34 269.27 135.13C269.29 133.92 270.25 132.98 271.42 133.03L338.15 135.73C339.22 135.77 340.08 136.75 340.06 137.9C340.03 139.06 339.15 139.96 338.08 139.92Z" fill="#908D89"/>
<path d="M259.16 136.94L243.58 136.35C242.37 136.3 241.4 135.27 241.41 134.04C241.43 132.81 242.42 131.85 243.63 131.9L259.21 132.53C260.4 132.58 261.34 133.6 261.33 134.82C261.32 136.04 260.35 136.99 259.16 136.94Z" fill="#179BB8"/>
<path d="M303.59 148.8L247.56 147.05C246.36 147.01 245.39 145.99 245.41 144.76C245.43 143.53 246.41 142.57 247.62 142.61L303.65 144.51C304.77 144.55 305.66 145.54 305.65 146.72C305.63 147.91 304.71 148.83 303.59 148.8Z" fill="#EEEDEC"/>
<path d="M235.62 146.68L216.74 146.09C215.49 146.05 214.49 145.01 214.5 143.76C214.51 142.51 215.54 141.53 216.79 141.57L235.67 142.21C236.89 142.25 237.87 143.28 237.85 144.52C237.84 145.75 236.84 146.72 235.62 146.68Z" fill="#F8B84F"/>
<path d="M323.03 159.45L269.02 158.12C267.85 158.09 266.91 157.09 266.93 155.88C266.95 154.67 267.91 153.71 269.08 153.75L323.09 155.23C324.18 155.26 325.05 156.23 325.04 157.4C325.01 158.56 324.12 159.48 323.03 159.45Z" fill="#EEEDEC"/>
<path d="M258.6 157.86L230.08 157.16C228.85 157.13 227.86 156.1 227.88 154.86C227.89 153.62 228.91 152.64 230.13 152.68L258.65 153.46C259.84 153.49 260.78 154.5 260.77 155.72C260.75 156.93 259.78 157.89 258.6 157.86Z" fill="#179BB8"/>
<path d="M289.32 168.88L252.75 168.22C251.55 168.2 250.6 167.19 250.61 165.97C250.63 164.75 251.61 163.78 252.8 163.8L289.37 164.56C290.51 164.58 291.42 165.57 291.4 166.76C291.4 167.95 290.46 168.9 289.32 168.88Z" fill="#908D89"/>
<path d="M241.2 168.01L202.81 167.31C201.54 167.29 200.52 166.25 200.53 164.99C200.54 163.73 201.59 162.73 202.86 162.76L241.25 163.56C242.46 163.59 243.43 164.6 243.41 165.83C243.41 167.05 242.41 168.03 241.2 168.01Z" fill="white"/>
<path d="M160.13 77.52L139.96 76.1L140.01 71.35L160.18 72.83L160.13 77.52Z" fill="#666666"/>
<path d="M171.33 89.39L151.43 88.12L151.48 83.4L171.38 84.73L171.33 89.39Z" fill="#666666"/>
<path d="M171.21 100.45L151.32 99.31L151.37 94.6L171.26 95.79L171.21 100.45Z" fill="#666666"/>
<path d="M171.09 111.51L151.2 110.5L151.25 105.79L171.14 106.86L171.09 111.51Z" fill="#666666"/>
<path d="M170.97 122.57L151.09 121.69L151.14 116.98L171.02 117.91L170.97 122.57Z" fill="#666666"/>
<path d="M159.55 133.19L139.4 132.43L139.45 127.69L159.6 128.51L159.55 133.19Z" fill="#666666"/>
<path d="M170.73 144.66L150.86 144.04L150.91 139.33L170.78 140.01L170.73 144.66Z" fill="#666666"/>
<path d="M170.62 155.7L150.74 155.21L150.79 150.51L170.67 151.05L170.62 155.7Z" fill="#666666"/>
<path d="M159.2 166.52L139.06 166.16L139.11 161.43L159.25 161.85L159.2 166.52Z" fill="#666666"/>
<path d="M493.52 195.25L385.97 195.08C382.78 195.08 380.22 192.18 380.27 188.62L381.47 110.62C381.52 107.04 384.17 104.31 387.37 104.51L495.01 111.29C497.75 111.46 499.91 114.27 499.85 117.56L498.56 189.32C498.51 192.6 496.25 195.26 493.52 195.25Z" fill="#A7A4A0"/>
<path d="M499.78 121.69L499.92 114.14C499.95 112.74 499.03 111.55 497.87 111.48L384.04 104.31C382.68 104.22 381.55 105.38 381.53 106.9L381.4 115.1L499.78 121.69Z" fill="#666666"/>
<path d="M391.32 110.35C391.3 111.5 390.45 112.39 389.42 112.33C388.39 112.27 387.56 111.29 387.58 110.13C387.6 108.97 388.45 108.09 389.48 108.15C390.52 108.21 391.34 109.2 391.32 110.35Z" fill="#908D89"/>
<path d="M398.37 110.77C398.35 111.92 397.51 112.8 396.49 112.74C395.47 112.68 394.65 111.7 394.67 110.55C394.69 109.4 395.53 108.52 396.56 108.58C397.58 108.64 398.39 109.62 398.37 110.77Z" fill="#908D89"/>
<path d="M418.53 117.17L381.4 115.11L380.25 190.15C380.21 192.87 382.16 195.08 384.6 195.08L417.27 195.13L418.53 117.17Z" fill="#6D6A66"/>
<path d="M427.86 129.23L425.55 129.12L425.6 126.2L427.91 126.32L427.86 129.23Z" fill="#CCCAC7"/>
<path d="M427.74 136.5L425.43 136.4L425.48 133.49L427.79 133.59L427.74 136.5Z" fill="#CCCAC7"/>
<path d="M427.62 143.77L425.32 143.68L425.36 140.77L427.67 140.86L427.62 143.77Z" fill="#CCCAC7"/>
<path d="M427.5 151.03L425.2 150.96L425.24 148.05L427.55 148.12L427.5 151.03Z" fill="#CCCAC7"/>
<path d="M427.38 158.29L425.08 158.23L425.13 155.32L427.43 155.39L427.38 158.29Z" fill="#CCCAC7"/>
<path d="M427.26 165.55L424.96 165.5L425.01 162.59L427.31 162.65L427.26 165.55Z" fill="#CCCAC7"/>
<path d="M424.894 169.846L424.845 172.755L427.154 172.795L427.204 169.885L424.894 169.846Z" fill="#CCCAC7"/>
<path d="M427.03 180.07L424.72 180.04L424.77 177.13L427.07 177.17L427.03 180.07Z" fill="#CCCAC7"/>
<path d="M426.91 187.32L424.6 187.31L424.65 184.4L426.95 184.42L426.91 187.32Z" fill="#CCCAC7"/>
<path d="M407.86 128.28L392.33 127.54L392.38 124.56L407.9 125.33L407.86 128.28Z" fill="#A7A4A0"/>
<path d="M407.74 135.65L392.21 134.99L392.26 132.01L407.79 132.7L407.74 135.65Z" fill="#A7A4A0"/>
<path d="M407.62 143.02L392.1 142.44L392.14 139.46L407.67 140.07L407.62 143.02Z" fill="#A7A4A0"/>
<path d="M407.5 150.38L391.98 149.88L392.03 146.9L407.55 147.44L407.5 150.38Z" fill="#A7A4A0"/>
<path d="M407.39 157.75L391.86 157.33L391.91 154.35L407.43 154.8L407.39 157.75Z" fill="#A7A4A0"/>
<path d="M407.27 165.11L391.75 164.77L391.79 161.79L407.32 162.17L407.27 165.11Z" fill="#A7A4A0"/>
<path d="M407.15 172.47L391.63 172.2L391.68 169.23L407.2 169.53L407.15 172.47Z" fill="#A7A4A0"/>
<path d="M407.03 179.83L391.52 179.64L391.56 176.67L407.08 176.89L407.03 179.83Z" fill="#A7A4A0"/>
<path d="M406.92 187.18L391.4 187.07L391.45 184.1L406.96 184.24L406.92 187.18Z" fill="#A7A4A0"/>
<path d="M475.71 131.5L432.96 129.47L433.01 126.57L475.76 128.69L475.71 131.5Z" fill="#84817D"/>
<path d="M462.38 130.87L454.69 130.5L454.74 127.65L462.43 128.03L462.38 130.87Z" fill="#CCCAC7"/>
<path d="M457.85 144.89L432.73 143.96L432.77 141.06L457.89 142.05L457.85 144.89Z" fill="#84817D"/>
<path d="M475.34 152.58L432.61 151.2L432.65 148.3L475.39 149.77L475.34 152.58Z" fill="#84817D"/>
<path d="M464.19 159.3L432.49 158.43L432.53 155.54L464.24 156.47L464.19 159.3Z" fill="#84817D"/>
<path d="M469.13 166.48L432.37 165.67L432.41 162.77L469.18 163.66L469.13 166.48Z" fill="#84817D"/>
<path d="M474.97 173.63L432.25 172.9L432.29 170.01L475.02 170.83L474.97 173.63Z" fill="#84817D"/>
<path d="M465.79 180.54L432.13 180.13L432.18 177.24L465.84 177.71L465.79 180.54Z" fill="#84817D"/>
<path d="M449.13 187.48L432.01 187.36L432.06 184.47L449.18 184.62L449.13 187.48Z" fill="#84817D"/>
<path d="M453.95 144.75L445.41 144.43L445.46 141.56L454 141.9L453.95 144.75Z" fill="#666666"/>
<path d="M446.97 151.66L440.14 151.44L440.18 148.56L447.02 148.79L446.97 151.66Z" fill="#666666"/>
<path d="M464.19 159.3L456.94 159.1L456.99 156.25L464.24 156.47L464.19 159.3Z" fill="#666666"/>
<path d="M447.03 173.15L439.44 173.02L439.48 170.15L447.08 170.29L447.03 173.15Z" fill="#666666"/>
<path d="M455.42 180.41L447.08 180.31L447.13 177.45L455.47 177.57L455.42 180.41Z" fill="#666666"/>
<path d="M447.41 180.31L438.98 180.21L439.03 177.33L447.46 177.45L447.41 180.31Z" fill="#CCCAC7"/>
<path d="M453.55 151.87L446.78 151.65L446.82 148.79L453.6 149.02L453.55 151.87Z" fill="#CCCAC7"/>
<path d="M465.97 152.27L459.32 152.06L459.37 149.22L466.02 149.45L465.97 152.27Z" fill="#CCCAC7"/>
<path d="M453.6 173.27L446.08 173.14L446.13 170.27L453.65 170.42L453.6 173.27Z" fill="#CCCAC7"/>
<path d="M461.91 180.49L453.65 180.39L453.69 177.54L461.96 177.66L461.91 180.49Z" fill="#CCCAC7"/>
<path d="M442.33 187.43L436.45 187.39L436.5 184.51L442.38 184.56L442.33 187.43Z" fill="#666666"/>
</svg>
