<svg width="636" height="300" viewBox="0 0 636 300" fill="none" xmlns="http://www.w3.org/2000/svg">
<path d="M234.79 73.63C234.8 73.54 234.84 73.45 234.84 73.36C237.74 53.89 225.22 37.46 206.87 36.67C200.86 36.41 195 37.89 189.71 40.63C187.46 20.98 172.79 6.01998 152.86 5.15998C133.36 4.31998 114.8 17.26 106.47 35.79C103.52 33.59 99.91 32.23 95.86 32.05C83.84 31.54 72.54 41.48 70.64 54.24C70.49 55.29 70.43 56.33 70.42 57.35C51.39 64.42 36.61 81.92 34.16 105.92C34.08 106.73 34.02 107.53 33.97 108.34C143.96 107.92 214.44 107.82 251.71 108.8C252.6 107.09 254.76 102.23 255.04 100.21C257.15 86.1 248.07 74.21 234.79 73.63Z" fill="url(#paint0_radial)"/>
<path d="M505.47 143.29V69.2099C505.47 67.5099 504.42 66.0599 503.14 65.9399L413.89 58.1699C412.38 58.0399 411.16 59.4099 411.16 61.2499V141.58L505.47 143.29Z" fill="#B3AFAB"/>
<path d="M507.38 143.29V69.2099C507.38 67.5099 506.33 66.0599 505.05 65.9399L415.8 58.1699C414.29 58.0399 413.07 59.4099 413.07 61.2499V141.58L507.38 143.29Z" fill="#6D6A66"/>
<path d="M427.33 133.58L418.7 133.35V65.24L427.33 65.95V133.58Z" fill="#908D89"/>
<path d="M503.1 135.48L427.32 133.59V65.9399L503.1 72.1099V135.48Z" fill="#F7B548"/>
<path d="M424.88 78.55L420.54 78.24V72.95L424.88 73.27V78.55Z" fill="#B3AFAB"/>
<path d="M424.88 86.0799L420.54 85.7899V80.5199L424.88 80.8099V86.0799Z" fill="#B3AFAB"/>
<path d="M424.88 92.8599L420.54 92.5899V87.3199L424.88 87.5899V92.8599Z" fill="#B3AFAB"/>
<path d="M424.88 100.38L420.54 100.15V94.86L424.88 95.11V100.38Z" fill="#B3AFAB"/>
<path d="M424.88 107.17L420.54 106.96V101.67L424.88 101.9V107.17Z" fill="#B3AFAB"/>
<path d="M424.88 114.69L420.54 114.52V109.23L424.88 109.42V114.69Z" fill="#B3AFAB"/>
<path d="M413.07 141.45V142.69C413.07 143.11 413.36 143.49 413.76 143.55L456.24 152.24C457.25 152.41 459.26 152.58 460.31 152.56L549.5 153.25C549.69 153.25 549.86 153.14 549.86 153V150.59C549.86 150.44 549.69 150.32 549.48 150.3L428.41 143.37L413.07 141.45Z" fill="#9C9894"/>
<path d="M413.23 141.49L456.86 149.42C458.27 149.65 459.73 149.76 461.18 149.74L549.59 150.33L507.32 143.22L413.23 141.49Z" fill="#CCCAC7"/>
<path d="M472.22 112.34C471.46 112.34 470.92 112.28 470.94 113.87C470.96 116.07 471.02 117.75 470.56 121.17C470.1 124.59 470.66 126.02 472.41 126.29C474.42 126.6 475.28 124.86 476.99 123.54C478.37 122.49 479.93 121.32 480.68 120.83C481.44 120.33 481.5 119.28 480.18 117.98C479.05 116.87 478.38 116.28 478.35 114.6C478.31 112.94 477.72 112.52 477.13 113.59C476.54 114.66 475.53 115.77 474.19 115.35C473.18 115.03 472.99 114.32 473.01 113.5C473.04 112.67 472.75 112.34 472.22 112.34Z" fill="white"/>
<path d="M470.08 118.65L469.53 123.96C469.53 123.96 467.52 123.69 466.24 123.65C464.96 123.61 462.71 123.69 462.71 123.69L462.6 121.34C462.6 121.34 464.74 121.95 466.84 121.03C468.94 120.11 470.08 118.65 470.08 118.65Z" fill="white"/>
<path d="M457.55 112C457.55 112 460.03 116.78 460.59 117.67C461.43 119.06 462.54 117.27 461.09 115.72C459.13 113.64 457.55 112 457.55 112Z" fill="white"/>
<path d="M450.31 114.44C452.05 113.81 452.35 114.12 453.88 111.78C455.39 109.45 456 110.84 456.99 112.52C457.98 114.2 460.71 119.24 461.44 120.56C462.15 121.88 462.13 123.85 461.19 124.72C460.25 125.6 459.39 126.46 457.16 125.16C454.91 123.86 452.16 123.23 451.09 122.89C450.02 122.55 449.33 122.18 449.52 120.31C449.71 118.44 449.77 117.35 449.63 116.3C449.48 115.26 449.39 114.77 450.31 114.44Z" fill="white"/>
<path d="M463.7 89.8799C463.74 89.9899 463.62 90.1499 463.43 90.2399C463.24 90.3399 463.07 90.3199 463.03 90.2199C462.99 90.1099 463.11 89.9499 463.3 89.8599C463.47 89.7599 463.66 89.7599 463.7 89.8799Z" fill="white"/>
<path d="M473.44 111.75C473.4 111.79 473.36 111.81 473.34 111.83C473.51 112.08 473.66 112.5 473.59 113.22C473.49 114.23 474.09 114.81 474.85 114.67C476.03 114.46 476.72 112.95 476.93 112.4C475.71 111.33 473.86 111.41 473.44 111.75Z" fill="white"/>
<path d="M467.73 90.8499C467.54 90.7399 467.35 90.6199 467.16 90.5099C468.13 89.9199 468.19 88.5799 467.45 87.8499C466.78 87.1999 466.15 87.8499 466.07 88.5399C466.03 88.9599 466.05 89.4599 466.09 89.8799C465.4 89.4999 464.81 89.2299 464.18 89.2299C463.84 89.2299 463.4 89.4199 462.94 89.7299C463.04 87.8199 462.6 87.1699 461.83 87.4599C461.07 87.7699 461.24 89.2899 462.14 90.3299C461.83 90.6199 461.55 90.8999 461.36 91.1499C460.79 91.9499 460.6 92.4299 461.67 93.9399C462.93 95.7199 464.17 96.3899 465.87 95.3299C467.78 94.1599 468.66 93.5699 468.7 92.5599C468.76 91.5399 468.28 91.1599 467.73 90.8499ZM467.08 88.1199C467.16 88.0399 467.33 88.1399 467.44 88.3499C467.57 88.5399 467.61 88.7699 467.54 88.8499C467.47 88.9299 467.29 88.8299 467.18 88.6199C467.06 88.4299 467 88.1999 467.08 88.1199ZM464.71 89.9199C464.73 89.8099 464.92 89.8099 465.11 89.8799C465.3 89.9799 465.43 90.1299 465.42 90.2199C465.4 90.3299 465.21 90.3299 465.02 90.2599C464.8 90.1799 464.67 90.0299 464.71 89.9199ZM462.26 87.7199C462.36 87.6799 462.49 87.8299 462.57 88.0599C462.65 88.2899 462.65 88.5199 462.55 88.5599C462.45 88.5999 462.32 88.4499 462.24 88.2199C462.17 87.9899 462.19 87.7599 462.26 87.7199ZM467.75 92.6099C466.74 93.3499 464.75 94.6299 463.74 94.4399C462.71 94.2499 461.91 93.7299 461.41 93.0799C461.01 92.5799 461.03 92.2199 461.49 92.6999C461.93 93.1799 462.6 93.6699 463.71 93.8499C464.82 94.0299 466.59 92.6999 467.61 92.1499C468.28 91.7899 468.76 91.8799 467.75 92.6099Z" fill="white"/>
<path d="M474.11 97.7499C471.51 93.4099 471.66 90.9499 471.47 87.7599C471.28 84.5699 470.32 79.1399 464.65 79.2599C459.32 79.3599 459.99 85.9799 460.16 89.0599C460.33 92.1399 460.71 94.7099 458.98 97.1599C457.24 99.6199 455.2 104.04 454.51 106.2C453.69 108.8 453.94 110.54 453.94 110.54C453.94 110.54 454.38 109.83 455.33 109.83C455.56 109.83 455.77 109.87 455.96 109.94C455.18 107.25 456.88 103.12 457.45 102.26C457.7 101.88 457.83 101.67 457.62 102.22C456.89 104.17 455.67 107.21 456.45 110.24C456.72 110.45 456.87 110.68 456.87 110.68C456.87 110.68 456.47 106.17 458.93 101.99C459.56 100.92 460.76 100.6 460.76 100.6C460.76 100.6 458.64 100.05 460.57 97.2399C461.47 95.9399 461.14 93.8999 461.14 93.8999C461.14 93.8999 460.47 93.3799 460.47 92.1999C460.47 91.0199 461.37 90.3499 461.37 90.3499C461.37 90.3499 460.66 88.9599 461.05 87.1599C461.43 85.3599 462.52 85.3799 463.28 86.6099C464.02 87.8499 463.62 88.7499 463.62 88.7499L465.17 88.8499C465.17 88.8499 465 87.6499 465.28 87.0199C465.57 86.3699 466.06 85.6999 466.94 85.6999C467.82 85.6999 468.93 86.7699 468.95 88.3599C468.97 89.9499 468.59 90.8099 468.59 90.8099C468.59 90.8099 469.51 91.5499 469.14 92.8199C468.76 94.0799 468.89 94.2899 469.03 94.7099C469.16 95.1299 470.08 97.7099 471.72 102.6C473.36 107.47 472.83 111.56 472.83 111.56C472.83 111.56 473.04 111.58 473.23 111.77C473.25 111.75 473.27 111.71 473.29 111.69C473.37 111.58 473.67 111.38 474.13 111.27C476.36 106.38 473.79 103 472.95 102.18C472.59 101.84 472.8 101.99 472.99 102.12C475.47 103.9 475.89 107.64 474.65 111.19C475.38 111.15 476.29 111.38 477.15 112.3C477.4 112.34 477.93 112.38 478.07 111.98C479.23 108.31 476.7 102.06 474.11 97.7499ZM468.01 83.0399C467.61 83.3499 467.38 82.6799 467.38 82.4699C467.38 81.7299 467.91 81.3999 468.24 81.9199C468.57 82.4099 468.4 82.7299 468.01 83.0399ZM471.39 95.0699C470.93 95.6199 470.24 95.2399 469.94 93.9999C469.81 93.4499 469.94 93.1799 470.49 93.5599C471.05 93.9699 471.87 94.5199 471.39 95.0699Z" fill="white"/>
<path d="M325.55 172V71.9199C325.55 69.6499 323.93 67.6799 321.9 67.5299L178.32 56.9599C175.82 56.7699 173.79 58.6799 173.79 61.2199C173.79 61.2199 173.79 163.32 173.79 165.65C173.79 167.98 175.68 169.15 175.68 169.15L325.55 172Z" fill="#B3AFAB"/>
<path d="M255.06 68.6199L252.65 68.4499V65.8699L255.06 66.0399V68.6199Z" fill="#848484"/>
<path fill-rule="evenodd" clip-rule="evenodd" d="M181.82 154.35C181.82 155.57 182.87 156.66 184.07 156.68L317.14 157.31C318.19 157.31 319.05 156.35 319.05 155.17V78.47C319.05 77.29 318.19 76.25 317.14 76.2L184.28 67.32C182.92 67.24 181.82 68.29 181.82 69.67V153.95" fill="#848484"/>
<path d="M327.46 172V71.9199C327.46 69.6499 325.84 67.6799 323.81 67.5299L180.24 56.9599C177.74 56.7699 175.71 58.6799 175.71 61.2199V170.68L327.46 172Z" fill="#625F5B"/>
<path d="M256.97 68.6199L254.56 68.4499V65.8699L256.97 66.0399V68.6199Z" fill="#B3AFAB"/>
<path fill-rule="evenodd" clip-rule="evenodd" d="M183.73 154.35C183.73 155.57 184.78 156.66 185.98 156.68L319.05 157.31C320.1 157.31 320.96 156.35 320.96 155.17V78.47C320.96 77.29 320.1 76.25 319.05 76.2L186.2 67.32C184.84 67.24 183.74 68.29 183.74 69.67V153.95" fill="#29C3E5"/>
<path d="M175.69 169.25V171.26C175.69 171.95 176.19 172.54 176.87 172.65L240.4 183.52C242.12 183.81 245.54 184.07 247.32 184.05L399.93 181.99L399.76 178.59L193.28 169.76L175.69 169.25Z" fill="#9C9894"/>
<path d="M175.69 169L241.73 179.49C244.14 179.87 246.6 180.04 249.08 180.02L400.49 178.51L326.87 168.52L175.69 169Z" fill="#CCCAC7"/>
<path d="M451.51 122.71L288.17 117.02C284.33 116.89 281.2 120.21 281.2 124.45V243.82V245.25V259.12C281.2 262.75 283.89 265.5 287.18 265.25L451.54 254.32C454.06 254.13 456.11 251.42 456.11 248.25V236.2L456.85 129.55C456.84 125.89 454.47 122.83 451.51 122.71Z" fill="#B3AFAB"/>
<path d="M353.32 255.73L349.5 276.69C349.14 281.2 352.56 285.19 356.93 286.37L368.58 291.11C373.26 292.52 377.67 292.73 381.63 292.24L418.9 288.09C422.66 287.92 422.4 284.42 417.45 283.98L394.15 281.29C390.48 280.89 387.02 277.97 387.71 274.09L391.53 251.91L353.32 255.73Z" fill="#BBB8B4"/>
<path d="M458.54 236.22L459.28 129.57C459.28 125.88 456.91 122.81 453.95 122.71L290.61 117.02C286.77 116.89 283.64 120.21 283.64 124.45V245.25C283.64 245.86 284.1 246.32 284.63 246.28L457.76 237.21C458.19 237.2 458.54 236.76 458.54 236.22Z" fill="#625F5B"/>
<path d="M283.66 243.84V259.14C283.66 262.77 286.35 265.52 289.64 265.27L454 254.34C456.52 254.15 458.57 251.44 458.57 248.27V234.97L283.66 243.84Z" fill="#DDDBDA"/>
<path d="M379.93 247.07C379.93 249.02 378.59 250.68 376.95 250.8C375.29 250.91 373.95 249.42 373.95 247.48C373.95 245.53 375.29 243.87 376.95 243.76C378.59 243.63 379.93 245.12 379.93 247.07Z" fill="#C8C6C4"/>
<path d="M451.18 228.79L292.34 235.8V127.95L451.92 132.21L451.18 228.79Z" fill="#8DBCF4"/>
<path d="M451.93 131.48L292.35 127.12V131.28L451.93 135.14V131.48Z" fill="#C7E0F4"/>
<path d="M421.56 221.15L328.19 224.66C327.41 224.7 326.78 225.44 326.78 226.32V233.67L422.77 229.35V222.55C422.76 221.76 422.22 221.11 421.56 221.15Z" fill="#3085E9"/>
<path d="M354.75 230.47L351.62 230.64C351.26 230.66 350.97 230.33 350.97 229.93V226.32C350.97 225.9 351.26 225.56 351.62 225.54L354.75 225.39C355.11 225.37 355.4 225.7 355.4 226.1V229.71C355.4 230.11 355.1 230.45 354.75 230.47Z" fill="#8DBCF4"/>
<path d="M346.2 228.45C346.2 229.96 345.13 231.22 343.83 231.3C342.51 231.38 341.44 230.19 341.44 228.68C341.44 227.17 342.51 225.89 343.83 225.83C345.13 225.77 346.2 226.96 346.2 228.45Z" fill="#8DBCF4"/>
<path d="M364.94 227.38C364.94 228.87 363.91 230.11 362.63 230.19C361.35 230.27 360.32 229.1 360.32 227.61C360.32 226.12 361.35 224.86 362.63 224.8C363.9 224.74 364.94 225.89 364.94 227.38Z" fill="#8DBCF4"/>
<path d="M374.41 227.03C374.41 228.5 373.4 229.74 372.14 229.82C370.88 229.88 369.87 228.75 369.87 227.26C369.87 225.79 370.88 224.55 372.14 224.47C373.38 224.42 374.41 225.56 374.41 227.03Z" fill="#8DBCF4"/>
<path d="M382.68 229.44L379.68 229.59C379.34 229.61 379.05 229.3 379.05 228.88V225.35C379.05 224.95 379.34 224.61 379.68 224.59L382.68 224.44C383.02 224.42 383.29 224.75 383.29 225.15V228.68C383.31 229.08 383.03 229.42 382.68 229.44Z" fill="#8DBCF4"/>
<path d="M400.12 228.62L397.22 228.77C396.9 228.79 396.61 228.48 396.61 228.08V224.58C396.61 224.18 396.88 223.84 397.22 223.84L400.12 223.71C400.44 223.69 400.71 224 400.71 224.4V227.88C400.72 228.27 400.45 228.6 400.12 228.62Z" fill="#8DBCF4"/>
<path d="M336.44 231.29L331.89 231.54V226.34L336.44 226.13V231.29Z" fill="#8DBCF4"/>
<path d="M418.02 227.51L415.19 227.66C414.87 227.68 414.6 227.37 414.6 226.97V223.53C414.6 223.13 414.87 222.8 415.19 222.79L418.02 222.66C418.34 222.64 418.61 222.95 418.61 223.35V226.77C418.6 227.17 418.35 227.49 418.02 227.51Z" fill="#8DBCF4"/>
<path d="M391.99 226.29C391.99 227.74 391 228.96 389.77 229.04C388.55 229.1 387.55 227.97 387.55 226.52C387.55 225.07 388.54 223.85 389.77 223.77C391.01 223.73 391.99 224.86 391.99 226.29Z" fill="#8DBCF4"/>
<path d="M409.88 225.68C409.88 227.11 408.92 228.32 407.74 228.37C406.56 228.43 405.58 227.32 405.58 225.89C405.58 224.46 406.54 223.25 407.74 223.2C408.93 223.14 409.88 224.24 409.88 225.68Z" fill="#8DBCF4"/>
<path d="M244.76 112.34L244.91 92.6499L225.23 94.3699L225.1 111.6L244.76 112.34Z" fill="white"/>
<path d="M247.99 112.46L273.36 113.42L273.51 90.1499L248.14 92.3699L247.99 112.46Z" fill="white"/>
<path d="M247.97 115.88L247.82 136.11L273.19 140.35L273.34 116.76L247.97 115.88Z" fill="white"/>
<path d="M244.74 115.76L225.08 115.07V132.32L244.58 135.57L244.74 115.76Z" fill="white"/>
<path d="M349.79 173.58C347.5 173.6 346.24 174.94 345.59 176.06C344.9 174.51 343.53 173.61 341.77 173.61C340.26 173.61 339 174.34 338.14 175.62C338.12 174.99 338.1 174.44 338.1 174.34L338.08 174L336.13 174.02V174.4C336.15 175.57 336.15 176.96 336.13 178.24L336.07 189.7L338.08 189.66L338.12 181.08C338.14 178.54 339.06 175.85 341.6 175.83C343.41 175.81 344.26 177.03 344.24 179.63L344.2 189.56L346.13 189.52L346.17 180.6C346.19 177.58 347.45 175.77 349.53 175.75C351.76 175.73 352.22 177.77 352.22 179.49L352.18 189.4L354.11 189.36L354.15 179.29C354.16 173.99 350.82 173.58 349.79 173.58Z" fill="white"/>
<path d="M366.88 186.04L366.92 178.48C366.94 175.18 365.32 173.51 362.11 173.53C358.1 173.55 357.37 176.66 357.24 178L357.18 178.4L359.05 178.38L359.11 178.11C359.38 176.94 359.7 175.63 362.05 175.61C364.67 175.59 364.99 177.21 364.99 178.65V179.78H362.91C357.7 179.84 356.59 182.61 356.57 184.92C356.55 187.31 357.96 189.68 361.12 189.62C363.2 189.58 364.39 188.65 365.04 187.73C365.08 188.3 365.14 188.69 365.21 188.95L365.29 189.2L367.1 189.16L367.02 188.72C366.96 188.26 366.87 187.24 366.88 186.04ZM362.85 181.78L365.01 181.76V181.91C364.99 185.35 364.34 187.49 361.17 187.55C359.58 187.57 358.55 186.52 358.57 184.84C358.59 182.75 359.91 181.8 362.85 181.78Z" fill="white"/>
<path d="M378.35 184.24C377.72 186.32 376.73 187.26 375.08 187.3C372.35 187.34 371.37 184.19 371.39 181.45C371.41 177.82 372.88 175.55 375.25 175.53C376.89 175.51 377.94 176.52 378.36 178.51L378.42 178.78L380.27 178.76L380.23 178.36C379.98 176.09 378.55 173.43 375.26 173.45C371.25 173.47 369.41 177.52 369.41 181.53C369.39 186.36 371.61 189.44 375.05 189.38C377.63 189.34 379.44 187.58 380.19 184.43L380.3 183.97L378.41 183.99L378.35 184.24Z" fill="white"/>
<path d="M390.46 167.68C385.61 167.68 382.32 172.02 382.3 178.43C382.28 184.87 385.47 189.13 390.21 189.05C395.75 188.95 398.23 183.51 398.25 178.14C398.27 171.88 395.16 167.68 390.46 167.68ZM396.25 178.21C396.25 180.23 395.79 186.83 390.29 186.92C386.18 186.98 384.33 182.53 384.33 178.36C384.35 174.44 385.95 169.88 390.39 169.86C394.47 169.82 396.26 174.02 396.25 178.21Z" fill="white"/>
<path d="M406.71 176.56C403.65 175.68 402.77 174.88 402.77 172.99C402.77 170.93 403.99 169.8 406.21 169.78C408.41 169.78 409.67 170.87 410.05 173.14L410.11 173.43L412 173.41L411.96 173.03C411.75 170.57 410.15 167.66 406.29 167.68C402.26 167.68 400.81 170.6 400.79 173.11C400.77 176.47 402.89 177.79 406.06 178.69C409.63 179.7 410.3 180.98 410.3 182.99C410.3 185.32 408.91 186.62 406.38 186.66C403.9 186.7 402.46 185.44 401.97 182.8L401.91 182.53L399.98 182.55L400.02 182.95C400.21 184.73 401.24 188.81 406.32 188.74C410.68 188.66 412.22 185.53 412.24 182.88C412.27 180.42 411.6 178 406.71 176.56Z" fill="white"/>
<defs>
<radialGradient id="paint0_radial" cx="0" cy="0" r="1" gradientUnits="userSpaceOnUse" gradientTransform="translate(129.773 195.065) rotate(-174.97) scale(140.372 146.265)">
<stop offset="0.1159" stop-color="white"/>
<stop offset="1" stop-color="#B8D6F7"/>
</radialGradient>
</defs>
</svg>
