<svg width="636" height="300" viewBox="0 0 636 300" fill="none" xmlns="http://www.w3.org/2000/svg">
<path d="M496.09 189.48C496.09 189.33 496.14 189.18 496.14 189.04C497.79 157.93 472.24 134.09 439.07 135.79C428.21 136.35 417.93 139.61 408.91 144.78C401.25 114.21 372.11 93.0301 336.08 94.8801C300.83 96.6901 269.8 120.03 258.21 150.53C252.49 147.54 245.75 145.97 238.43 146.35C216.71 147.47 198.19 164.93 197.12 185.31C197.05 186.98 197.13 188.63 197.29 190.23C164.34 204.42 141.27 237.17 141.27 275.32C141.27 276.61 141.32 277.88 141.37 279.16C339.24 260.84 465.34 247.94 532.59 243.5C533.51 240.45 537.26 231.26 537.41 228.04C538.62 205.52 520.09 188.27 496.09 189.48Z" fill="url(#paint0_radial)"/>
<path d="M404.42 104.66L465.25 107.48C466.19 107.52 466.93 108.3 466.93 109.24L467.14 217.98C467.14 218.91 466.42 219.68 465.49 219.74L404.45 223.57C403.44 223.63 402.58 222.84 402.58 221.82C402.58 207.89 402.58 120.22 402.58 106.4C402.58 105.41 403.42 104.62 404.42 104.66Z" fill="#76AFF2"/>
<path d="M405.95 144.53L384.44 143.65L406.83 159.45L405.95 144.53Z" fill="#76AFF2"/>
<path d="M466.96 117.81L466.94 105.73C466.94 104.79 466.2 104.02 465.26 103.97L404.43 101.15C403.43 101.1 402.59 101.89 402.59 102.9C402.59 105.34 402.59 110.08 402.59 116.3L466.96 117.81Z" fill="#605D5A"/>
<path d="M442.38 128.94C442.37 128.94 442.36 128.94 442.35 128.94L412.72 128.28C411.99 128.26 411.42 127.66 411.44 126.94C411.46 126.21 412.06 125.65 412.78 125.66L442.41 126.32C443.14 126.34 443.71 126.94 443.69 127.66C443.68 128.37 443.09 128.94 442.38 128.94Z" fill="#F7B548"/>
<path d="M430.53 135.52C430.52 135.52 430.51 135.52 430.51 135.52L412.62 135.19C411.89 135.18 411.32 134.58 411.33 133.85C411.34 133.12 412 132.54 412.67 132.56L430.56 132.89C431.29 132.9 431.86 133.5 431.85 134.23C431.83 134.95 431.24 135.52 430.53 135.52Z" fill="white"/>
<path d="M454.12 142.77H454.11L422.51 142.44C421.78 142.43 421.2 141.84 421.21 141.11C421.22 140.39 421.77 139.8 422.54 139.81L454.14 140.14C454.87 140.15 455.45 140.74 455.44 141.47C455.43 142.19 454.84 142.77 454.12 142.77Z" fill="white"/>
<path d="M446.88 149.46H422.74C422.01 149.46 421.43 148.87 421.43 148.15C421.43 147.43 422.02 146.84 422.74 146.84H446.88C447.61 146.84 448.19 147.43 448.19 148.15C448.19 148.87 447.61 149.46 446.88 149.46Z" fill="white"/>
<path d="M412.64 160.1C411.92 160.1 411.33 159.52 411.33 158.79C411.33 158.06 411.91 157.47 412.64 157.47L437 157.36C437.68 157.42 438.32 157.94 438.32 158.67C438.32 159.4 437.74 159.99 437.01 159.99L412.64 160.1C412.65 160.1 412.64 160.1 412.64 160.1Z" fill="#F7B548"/>
<path d="M412.64 167.35C411.92 167.35 411.34 166.78 411.33 166.06C411.32 165.33 411.9 164.74 412.62 164.73L448.72 164.18C449.53 164.15 450.04 164.75 450.05 165.47C450.06 166.2 449.48 166.79 448.76 166.8L412.66 167.35C412.65 167.35 412.65 167.35 412.64 167.35Z" fill="white"/>
<path d="M422.74 174.37C422.03 174.37 421.45 173.8 421.43 173.09C421.41 172.36 421.98 171.76 422.71 171.74L453.22 170.97C453.95 170.96 454.55 171.52 454.57 172.25C454.59 172.98 454.02 173.58 453.29 173.6L422.78 174.37C422.76 174.37 422.75 174.37 422.74 174.37Z" fill="white"/>
<path d="M433.82 181.06C433.11 181.06 432.53 180.5 432.51 179.79C432.49 179.07 433.06 178.46 433.78 178.44L458.69 177.67C459.42 177.65 460.02 178.22 460.04 178.94C460.06 179.66 459.49 180.27 458.77 180.29L433.86 181.06C433.85 181.06 433.83 181.06 433.82 181.06Z" fill="white"/>
<path d="M152.3 31.13L351.56 47.27C353.27 47.41 354.59 48.84 354.59 50.55V193.58C354.59 195.35 353.19 196.81 351.42 196.87L153 204.1C151.14 204.17 149.6 202.69 149.59 200.83L148.75 34.43C148.73 32.5 150.38 30.97 152.3 31.13Z" fill="#1DACCC"/>
<path d="M348.88 146.72C350.2 147.16 382.68 169.98 382.68 169.98L351.08 169.54L348.88 146.72Z" fill="#1DACCC"/>
<path d="M354.59 62.52V45.3C354.59 43.58 353.27 42.16 351.56 42.02L152.3 24.12C150.38 23.96 148.73 25.49 148.74 27.42L148.81 48.54L354.59 62.52Z" fill="#605D5A"/>
<path d="M214.57 70.78C214.54 70.78 214.51 70.78 214.47 70.78L165.31 68.15C164.34 68.1 163.6 67.27 163.66 66.31C163.71 65.34 164.53 64.6 165.5 64.65L214.66 67.28C215.63 67.33 216.37 68.16 216.31 69.12C216.27 70.05 215.49 70.78 214.57 70.78Z" fill="#F7B548"/>
<path d="M209.14 79.0101C209.11 79.0101 209.09 79.0101 209.06 79.0101L165.44 77.0301C164.47 76.9901 163.73 76.1701 163.77 75.2001C163.81 74.2301 164.63 73.5001 165.6 73.5301L209.22 75.5101C210.19 75.5501 210.93 76.3701 210.89 77.3401C210.84 78.2701 210.07 79.0101 209.14 79.0101Z" fill="white"/>
<path d="M261.6 89.64C261.57 89.64 261.55 89.64 261.52 89.64L189.14 86.42C188.17 86.38 187.43 85.56 187.47 84.59C187.51 83.62 188.36 82.88 189.3 82.92L261.68 86.14C262.65 86.18 263.39 87 263.35 87.97C263.31 88.91 262.53 89.64 261.6 89.64Z" fill="white"/>
<path d="M277.89 98.51C277.87 98.51 277.84 98.51 277.82 98.51L190.13 94.97C189.16 94.93 188.41 94.12 188.45 93.15C188.49 92.18 189.25 91.43 190.27 91.47L277.96 95.01C278.93 95.05 279.68 95.86 279.64 96.83C279.6 97.77 278.83 98.51 277.89 98.51Z" fill="white"/>
<path d="M256.31 105.51C256.29 105.51 256.27 105.51 256.25 105.51L213.68 104.02C212.71 103.99 211.96 103.18 211.99 102.21C212.02 101.24 212.84 100.5 213.8 100.52L256.37 102.01C257.34 102.04 258.09 102.85 258.06 103.82C258.03 104.77 257.25 105.51 256.31 105.51Z" fill="white"/>
<path d="M279.42 114.23C279.4 114.23 279.39 114.23 279.37 114.23L214.35 112.42C213.38 112.39 212.62 111.59 212.65 110.62C212.68 109.65 213.48 108.89 214.45 108.92L279.47 110.73C280.44 110.76 281.2 111.56 281.17 112.53C281.15 113.48 280.37 114.23 279.42 114.23Z" fill="white"/>
<path d="M246.34 141.72C246.33 141.72 246.33 141.72 246.32 141.72L165.66 140.9C164.69 140.89 163.92 140.1 163.93 139.13C163.94 138.16 164.76 137.39 165.7 137.4L246.36 138.22C247.33 138.23 248.1 139.02 248.09 139.99C248.08 140.95 247.3 141.72 246.34 141.72Z" fill="#F7B548"/>
<path d="M313.82 149.79L230.03 149.46C229.06 149.46 228.28 148.67 228.29 147.7C228.29 146.74 229.08 145.96 230.04 145.96C230.04 145.96 230.04 145.96 230.05 145.96L313.83 146.29C314.8 146.29 315.58 147.08 315.57 148.05C315.57 149.01 314.79 149.79 313.82 149.79Z" fill="white"/>
<path d="M221.59 149.67L190.04 149.63C189.07 149.63 188.29 148.84 188.29 147.88C188.29 146.91 189.08 146.13 190.04 146.13L221.59 146.17C222.56 146.17 223.34 146.96 223.34 147.92C223.34 148.88 222.56 149.67 221.59 149.67Z" fill="white"/>
<path d="M281.23 157.36H249.46C248.49 157.36 247.71 156.58 247.71 155.61C247.71 154.64 248.49 153.86 249.46 153.86H281.23C282.2 153.86 282.98 154.64 282.98 155.61C282.98 156.58 282.2 157.36 281.23 157.36Z" fill="white"/>
<path d="M190.04 157.85C189.08 157.85 188.29 157.07 188.29 156.11C188.28 155.14 189.06 154.35 190.03 154.35L241.33 154.07H241.34C242.3 154.07 243.09 154.85 243.09 155.81C243.1 156.78 242.32 157.57 241.35 157.57L190.04 157.85C190.05 157.85 190.04 157.85 190.04 157.85Z" fill="white"/>
<path d="M213.58 166.08C212.62 166.08 211.84 165.31 211.83 164.35C211.82 163.38 212.6 162.59 213.56 162.58L278.25 161.92C279.21 161.93 280.01 162.69 280.02 163.65C280.03 164.62 279.25 165.41 278.29 165.42L213.6 166.08C213.59 166.08 213.59 166.08 213.58 166.08Z" fill="white"/>
<path d="M239.3 174.22C238.35 174.22 237.58 173.47 237.55 172.51C237.52 171.54 238.29 170.74 239.25 170.71L267.03 169.98C268.02 169.95 268.8 170.72 268.83 171.68C268.86 172.65 268.09 173.45 267.13 173.48L239.35 174.21C239.33 174.22 239.31 174.22 239.3 174.22Z" fill="white"/>
<path d="M239.9 182.46C238.95 182.46 238.17 181.7 238.15 180.75C238.13 179.78 238.89 178.98 239.86 178.96L296.9 177.55C297.82 177.51 298.67 178.29 298.69 179.26C298.71 180.23 297.95 181.03 296.98 181.05L239.94 182.46C239.93 182.45 239.91 182.46 239.9 182.46Z" fill="white"/>
<path d="M289.63 66.0601L374.89 71.6601V124.99L289.96 122.69L289.63 66.0601Z" fill="#C8C6C4"/>
<path d="M324.12 105.99L306.65 97.4001V95.6201L324.12 87.8301V90.5401L309.9 96.5401L324.12 103.25V105.99Z" fill="white"/>
<path d="M339.33 84.6101L329.42 110.67L326.4 110.51L336.31 84.4501L339.33 84.6101Z" fill="white"/>
<path d="M341.6 104.16L355.83 98.9801L341.6 91.4501V88.7401L359.07 98.3601V100.14L341.6 106.9V104.16Z" fill="white"/>
<defs>
<radialGradient id="paint0_radial" cx="0" cy="0" r="1" gradientUnits="userSpaceOnUse" gradientTransform="translate(350.756 351.247) scale(227.255)">
<stop offset="0.1159" stop-color="white"/>
<stop offset="0.9695" stop-color="#B8D6F7"/>
</radialGradient>
</defs>
</svg>
