<svg width="636" height="300" viewBox="0 0 636 300" fill="none" xmlns="http://www.w3.org/2000/svg">
<path d="M542.15 148.78L422.67 149.19C420.05 149.2 417.93 146.97 417.93 144.22V46.32C417.93 43.57 420.06 41.49 422.67 41.7L542.15 50.86C544.31 51.03 546.06 53.18 546.06 55.67V144.25C546.06 146.74 544.32 148.77 542.15 148.78Z" fill="#BDD8F9"/>
<path d="M428.41 42.14L421.87 41.64C419.7 41.47 417.94 43.44 417.94 46.03V144.51C417.94 147.1 419.7 149.2 421.87 149.19L428.41 149.17V42.14Z" fill="#81B5F3"/>
<path d="M542.82 50.91L481.7 46.23V148.99L542.82 148.78C544.61 148.77 546.06 146.87 546.06 144.52V55.4C546.06 53.06 544.62 51.04 542.82 50.91Z" fill="#81B5F3"/>
<path d="M546.06 61.69V55.4C546.06 53.05 544.61 51.04 542.82 50.9L421.86 41.63C419.69 41.46 417.93 43.43 417.93 46.02V52.97L546.06 61.69Z" fill="#84817D"/>
<path d="M467.21 228.32L277.43 240.56C273.94 240.79 271.1 238.28 271.1 234.96V88.37C271.1 85.05 273.94 82.48 277.43 82.62L467.21 90.53C469.86 90.64 471.99 93.06 471.99 95.93V222.82C472 225.69 469.86 228.15 467.21 228.32Z" fill="#29C3E5"/>
<path d="M472 107.23V94.87C472 92.58 470.5 90.67 468.65 90.59L275.54 82.55C273.09 82.45 271.1 84.51 271.1 87.15V101.44L472 107.23Z" fill="#56534F"/>
<path d="M288.75 92.75C288.75 94.75 287.26 96.32 285.42 96.26C283.57 96.2 282.07 94.53 282.07 92.52C282.07 90.51 283.57 88.95 285.42 89.02C287.26 89.08 288.75 90.75 288.75 92.75Z" fill="#908D89"/>
<path d="M301.29 93.19C301.29 95.17 299.82 96.73 298.01 96.67C296.19 96.61 294.72 94.95 294.72 92.96C294.72 90.97 296.2 89.42 298.01 89.48C299.82 89.55 301.29 91.21 301.29 93.19Z" fill="#908D89"/>
<path d="M312.41 156.83V149.34C312.41 146.54 310.35 144.28 307.81 144.28L132.54 144.24C129.33 144.24 126.73 146.8 126.73 149.95V158.4L312.41 156.83Z" fill="#84817D"/>
<path d="M513.6 170.45C512.52 170.88 511.45 171.39 510.4 171.99C508.96 172.81 507.62 173.77 506.38 174.83L508.61 180.26C507.38 181.48 506.3 182.84 505.4 184.3L499.47 183.8C498.13 186.54 497.22 189.49 496.79 192.5L502.07 194.83C501.96 196.83 502.12 198.84 502.57 200.8C501.29 201.82 499.12 203.46 497.74 204.5C498.09 205.62 498.52 206.72 499.03 207.8C499.74 209.28 500.57 210.64 501.5 211.88L506.86 209.23C508.02 210.54 509.35 211.64 510.78 212.52L509.84 218.72C512.35 219.9 515.05 220.58 517.84 220.75L520.54 214.98C522.09 214.9 523.66 214.61 525.2 214.11L528.28 218.9C529.39 218.43 530.49 217.86 531.57 217.2C533.04 216.3 534.39 215.28 535.63 214.14L533.42 208.89C534.64 207.62 535.7 206.21 536.57 204.7L542 205.49C543.34 202.67 544.23 199.64 544.61 196.55C543.04 195.97 540.82 195.15 539.57 194.65C539.67 192.88 539.55 191.09 539.19 189.34L543.84 185.92C543.48 184.62 543.02 183.33 542.44 182.08C541.73 180.54 540.89 179.12 539.94 177.83L535.02 180.6C533.84 179.21 532.49 178.05 531.01 177.12L532.22 171.21C529.87 169.99 527.31 169.22 524.67 168.92L522.43 174.55C520.55 174.5 518.62 174.76 516.72 175.35L513.6 170.45ZM530.57 189.13C533.11 194.6 530.95 201.55 525.72 204.69C520.45 207.86 514.04 205.98 511.44 200.46C508.82 194.92 511.05 187.88 516.39 184.77C521.68 181.67 528.02 183.64 530.57 189.13Z" fill="#A7A4A0"/>
<path d="M544.66 160.14C544.25 160.3 543.85 160.49 543.46 160.72C542.92 161.03 542.42 161.39 541.96 161.8L542.79 163.89C542.33 164.35 541.93 164.87 541.59 165.42L539.38 165.2C538.88 166.24 538.54 167.36 538.39 168.51L540.35 169.43C540.31 170.19 540.37 170.96 540.54 171.72C540.06 172.1 539.26 172.71 538.74 173.1C538.87 173.53 539.03 173.95 539.22 174.37C539.48 174.94 539.79 175.47 540.14 175.95L542.14 174.98C542.58 175.49 543.07 175.93 543.61 176.28L543.26 178.65C544.2 179.13 545.22 179.42 546.27 179.51L547.29 177.31C547.88 177.29 548.47 177.2 549.06 177.02L550.23 178.9C550.65 178.73 551.07 178.52 551.48 178.28C552.04 177.95 552.56 177.56 553.03 177.14L552.18 175.08C552.65 174.6 553.05 174.06 553.39 173.48L555.48 173.83C556 172.74 556.34 171.57 556.49 170.37C555.88 170.13 555.03 169.8 554.55 169.6C554.59 168.91 554.54 168.22 554.41 167.54L556.2 166.24C556.06 165.73 555.88 165.23 555.66 164.74C555.39 164.14 555.06 163.58 554.7 163.08L552.81 164.13C552.36 163.59 551.84 163.13 551.28 162.77L551.74 160.49C550.84 160.01 549.87 159.71 548.86 159.58L548.01 161.75C547.3 161.73 546.57 161.82 545.85 162.04L544.66 160.14ZM551.09 167.41C552.06 169.54 551.23 172.21 549.24 173.39C547.24 174.57 544.83 173.79 543.85 171.65C542.87 169.51 543.7 166.82 545.71 165.65C547.71 164.48 550.12 165.27 551.09 167.41Z" fill="#A7A4A0"/>
<path d="M289.3 124.47L282.15 124.37V116.61L289.3 116.74V124.47Z" fill="#77E3FB"/>
<path d="M436.69 126.48L297.94 124.59V116.91L436.69 119.53V126.48Z" fill="#77E3FB"/>
<path d="M289.3 140.41L282.15 140.39V132.63L289.3 132.69V140.41Z" fill="#77E3FB"/>
<path d="M436.69 140.83L297.94 140.44V132.76L436.69 133.88V140.83Z" fill="#77E3FB"/>
<path d="M436.69 155.18L297.94 156.29V148.61L436.69 148.23V155.18Z" fill="#77E3FB"/>
<path d="M436.69 169.54L297.94 172.14V164.46L436.69 162.58V169.54Z" fill="#77E3FB"/>
<path d="M436.69 183.91L297.94 188.02V180.33L436.69 176.95V183.91Z" fill="#77E3FB"/>
<path d="M436.69 198.26L297.94 203.87V196.18L436.69 191.31V198.26Z" fill="#77E3FB"/>
<path d="M464.62 208.8L344.6 214.72V122.96L464.62 124.79V208.8Z" fill="#179BB8"/>
<path d="M464.62 166.46L344.6 168.48V136.38L464.62 137.08V166.46Z" fill="#33D5F9"/>
<path d="M370.05 145.99L354.69 146.01V142.56L370.05 142.58V145.99Z" fill="#0D7E98"/>
<path d="M373.49 154.5L354.69 154.63V151.18L373.49 151.1V154.5Z" fill="#0D7E98"/>
<path d="M367.69 163.08L354.69 163.25V159.81L367.69 159.67V163.08Z" fill="#0D7E98"/>
<path d="M389.98 145.97L383.17 145.98V142.6L389.98 142.61V145.97Z" fill="#0D7E98"/>
<path d="M391.52 154.37L383.17 154.43V151.05L391.52 151.01V154.37Z" fill="#0D7E98"/>
<path d="M388.93 162.8L383.17 162.88V159.5L388.93 159.44V162.8Z" fill="#0D7E98"/>
<path d="M424.021 145.94L400.431 145.96V142.63L424.021 142.66V145.94Z" fill="#0D7E98"/>
<path d="M424.021 154.14L400.431 154.31V150.97L424.021 150.86V154.14Z" fill="#0D7E98"/>
<path d="M423.971 162.34L400.431 162.65V159.31L423.971 159.06V162.34Z" fill="#0D7E98"/>
<path d="M452.25 145.91L432.32 145.93V142.67L452.25 142.7V145.91Z" fill="#0D7E98"/>
<path d="M456.69 153.91L432.32 154.08V150.82L456.69 150.71V153.91Z" fill="#0D7E98"/>
<path d="M449.2 162L432.32 162.23V158.97L449.2 158.79V162Z" fill="#0D7E98"/>
<path d="M370.05 176.7L354.69 177.05V173.6L370.05 173.29V176.7Z" fill="#77E3FB"/>
<path d="M373.49 185.13L354.69 185.67V182.22L373.49 181.72V185.13Z" fill="#77E3FB"/>
<path d="M367.69 193.84L354.69 194.29V190.85L367.69 190.42V193.84Z" fill="#77E3FB"/>
<path d="M373.49 202.14L354.69 202.92V199.47L373.49 198.74V202.14Z" fill="#77E3FB"/>
<path d="M389.98 176.24L383.17 176.4V173.02L389.98 172.88V176.24Z" fill="#77E3FB"/>
<path d="M391.52 184.6L383.17 184.84V181.46L391.52 181.24V184.6Z" fill="#77E3FB"/>
<path d="M388.93 193.09L383.17 193.29V189.91L388.93 189.72V193.09Z" fill="#77E3FB"/>
<path d="M391.52 201.39L383.17 201.74V198.36L391.52 198.04V201.39Z" fill="#77E3FB"/>
<path d="M424.071 175.45L400.431 176V172.66L424.071 172.17V175.45Z" fill="#77E3FB"/>
<path d="M424.021 183.65L400.431 184.34V181L424.021 180.37V183.65Z" fill="#77E3FB"/>
<path d="M424.071 191.85L400.431 192.68V189.35L424.071 188.57V191.85Z" fill="#77E3FB"/>
<path d="M423.971 200.05L400.431 201.03V197.69L423.971 196.77V200.05Z" fill="#77E3FB"/>
<path d="M452.25 174.81L432.32 175.26V172.01L452.25 171.6V174.81Z" fill="#77E3FB"/>
<path d="M456.69 182.7L432.32 183.41V180.15L456.69 179.5V182.7Z" fill="#77E3FB"/>
<path d="M449.2 190.97L432.32 191.56V188.3L449.2 187.75V190.97Z" fill="#77E3FB"/>
<path d="M456.69 198.7L432.32 199.71V196.45L456.69 195.5V198.7Z" fill="#77E3FB"/>
<path d="M306.85 261.04L133.73 274.86C129.87 275.17 126.72 272.7 126.72 269.35V150.3C126.72 146.95 129.87 144.23 133.73 144.24L306.85 144.28C309.92 144.28 312.41 146.69 312.41 149.66V255.22C312.41 258.19 309.92 260.79 306.85 261.04Z" fill="#84817D"/>
<path d="M457.63 71.2599L436.19 70.0499V66.7999L457.63 68.0599V71.2599Z" fill="#60A2F0"/>
<path d="M457.63 79.2499L436.19 78.1799V74.9299L457.63 76.0499V79.2499Z" fill="#60A2F0"/>
<path d="M457.63 87.2399L436.19 86.2999V83.0499L457.63 84.0399V87.2399Z" fill="#60A2F0"/>
<path d="M490.26 73.09L487.95 72.96V69.83L490.26 69.97V73.09Z" fill="#3085E9"/>
<path d="M490.26 80.88L487.95 80.76V77.64L490.26 77.76V80.88Z" fill="#3085E9"/>
<path d="M490.26 88.67L487.95 88.57V85.45L490.26 85.56V88.67Z" fill="#3085E9"/>
<path d="M490.26 96.47L487.95 96.38V93.26L490.26 93.35V96.47Z" fill="#3085E9"/>
<path d="M490.26 104.26L487.95 104.19V101.06L490.26 101.14V104.26Z" fill="#3085E9"/>
<path d="M490.26 112.05L487.95 112V108.87L490.26 108.94V112.05Z" fill="#3085E9"/>
<path d="M490.26 119.85L487.95 119.8V116.68L490.26 116.73V119.85Z" fill="#3085E9"/>
<path d="M490.26 127.64L487.95 127.61V124.49L490.26 124.52V127.64Z" fill="#3085E9"/>
<path d="M490.26 135.43L487.95 135.42V132.29L490.26 132.32V135.43Z" fill="#3085E9"/>
<path d="M537.97 75.76L495.37 73.37V70.27L537.97 72.76V75.76Z" fill="#3085E9"/>
<path d="M524.72 75.02L517.06 74.59V71.54L524.72 71.99V75.02Z" fill="#77E3FB"/>
<path d="M520.45 90L495.37 88.9V85.79L520.45 86.95V90Z" fill="#3085E9"/>
<path d="M537.97 98.2699L495.37 96.6599V93.5499L537.97 95.2699V98.2699Z" fill="#3085E9"/>
<path d="M527.01 105.42L495.37 104.42V101.32L527.01 102.4V105.42Z" fill="#3085E9"/>
<path d="M532.04 113.12L495.37 112.18V109.08L532.04 110.11V113.12Z" fill="#3085E9"/>
<path d="M537.97 120.77L495.37 119.95V116.84L537.97 117.77V120.77Z" fill="#3085E9"/>
<path d="M528.96 128.16L495.37 127.71V124.6L528.96 125.13V128.16Z" fill="#3085E9"/>
<path d="M512.49 135.59L495.37 135.47V132.37L512.49 132.53V135.59Z" fill="#3085E9"/>
<path d="M516.57 89.83L508.05 89.45V86.38L516.57 86.77V89.83Z" fill="#F7B548"/>
<path d="M509.73 97.2L502.9 96.94V93.86L509.73 94.13V97.2Z" fill="#F7B548"/>
<path d="M527.01 105.42L519.79 105.19V102.15L527.01 102.4V105.42Z" fill="#F7B548"/>
<path d="M510.15 120.23L502.56 120.09V117L510.15 117.16V120.23Z" fill="#F7B548"/>
<path d="M518.63 128.02L510.31 127.91V124.84L518.63 124.97V128.02Z" fill="#F7B548"/>
<path d="M510.65 127.91L502.22 127.8V124.71L510.65 124.84V127.91Z" fill="#77E3FB"/>
<path d="M516.29 97.45L509.53 97.19V94.12L516.29 94.4V97.45Z" fill="#E56B56"/>
<path d="M528.66 97.92L522.04 97.67V94.63L528.66 94.89V97.92Z" fill="#77E3FB"/>
<path d="M516.7 120.36L509.2 120.21V117.14L516.7 117.31V120.36Z" fill="#E56B56"/>
<path d="M525.1 128.1L516.87 127.99V124.94L525.1 125.07V128.1Z" fill="#E56B56"/>
<path d="M505.69 135.55L499.81 135.5V132.41L505.69 132.47V135.55Z" fill="#F7B548"/>
<path d="M312.41 159.64V149.34C312.41 146.54 310.35 144.28 307.81 144.28L132.54 144.24C129.33 144.24 126.73 146.8 126.73 149.95V161.57L312.41 159.64Z" fill="#CCCAC7"/>
<path d="M255.6 178.81L144.05 181.34V177.38L255.6 175.12V178.81Z" fill="#56534F"/>
<path d="M271.15 189.42L144.05 193.23V189.27L271.15 185.77V189.42Z" fill="#56534F"/>
<path d="M263.68 200.66L144.05 205.13V201.16L263.68 196.99V200.66Z" fill="#56534F"/>
<path d="M240.29 212.72L144.05 217.02V213.05L240.29 208.99V212.72Z" fill="#56534F"/>
<path d="M285.3 221.56L144.05 228.91V224.95L285.3 217.95V221.56Z" fill="#56534F"/>
<path d="M271.15 233.26L144.05 240.8V236.84L271.15 229.61V233.26Z" fill="#56534F"/>
<path d="M145.91 152.76C145.91 154.95 144.12 156.74 141.9 156.75C139.68 156.77 137.87 155 137.87 152.8C137.87 150.6 139.68 148.81 141.9 148.81C144.12 148.8 145.91 150.57 145.91 152.76Z" fill="#908D89"/>
<path d="M159.78 152.69C159.78 154.86 158.02 156.63 155.84 156.65C153.65 156.67 151.88 154.91 151.88 152.73C151.88 150.55 153.66 148.78 155.84 148.77C158.02 148.76 159.78 150.52 159.78 152.69Z" fill="#908D89"/>
<path d="M173.42 152.62C173.42 154.77 171.69 156.53 169.54 156.55C167.39 156.57 165.64 154.83 165.64 152.66C165.64 150.5 167.39 148.74 169.54 148.73C171.69 148.73 173.42 150.47 173.42 152.62Z" fill="#908D89"/>
<path d="M156.54 199.21V181.36L277.64 178.53V195.16L156.54 199.21ZM158.17 182.94V197.53L276.02 193.59V180.19L158.17 182.94Z" fill="#F7B548"/>
<path d="M338.64 66.2799L354.1 61.1699V58.9299L338.64 52.2799V66.2799Z" fill="#C8C6C4"/>
<path d="M193.21 58.29L338.64 66.27C339.33 66.31 339.88 63.21 339.88 59.34C339.88 55.48 339.32 52.31 338.64 52.26L193.21 42.85V58.29Z" fill="#F9BE5C"/>
<path d="M183.86 57.7799L195.52 58.4199C196.35 58.4699 197.03 55.0599 197.03 50.8099C197.03 46.5599 196.36 43.0699 195.52 43.0199L183.86 42.2699V57.7799Z" fill="#C8C6C4"/>
<path d="M193.21 52.5599V58.2899L338.64 66.2699C339.22 66.2999 339.7 64.1199 339.84 61.1399L193.21 52.5599Z" fill="#CB8930"/>
<path d="M183.86 52.0199V57.7799L195.52 58.4199C196.22 58.4599 196.8 56.0599 196.97 52.7799L183.86 52.0199Z" fill="#84817D"/>
<path d="M183.86 42.2599C184.7 42.3099 185.39 45.8299 185.39 50.1099C185.39 54.3899 184.71 57.8299 183.86 57.7799C183.01 57.7299 182.33 54.2199 182.33 49.9299C182.33 45.6399 183.02 42.2099 183.86 42.2599Z" fill="#E6E4E3"/>
<path d="M352.01 58.0199C352.72 60.4099 352.03 61.8599 352.03 61.8599C352.03 61.8599 354.48 61.0399 355.23 60.7699C355.9 60.5299 356.01 59.6899 355.19 59.3499C354.08 58.9099 352.8 58.3599 352.01 58.0199Z" fill="#84817D"/>
</svg>
