<svg width="636" height="300" viewBox="0 0 636 300" fill="none" xmlns="http://www.w3.org/2000/svg">
<path d="M427.35 188.53C427.35 187.36 428.6 187.23 428.6 187.23L428.57 183.26C428.57 183.26 427.42 183.19 427.39 182.21L427.56 164.18C427.59 162.99 428.88 162.71 428.88 162.71L428.86 158.37C428.86 158.37 427.68 158.62 427.65 157.09C427.65 157.04 427.63 156.99 427.63 156.95L427.78 141.01C427.79 140.01 428.37 139.09 429.26 138.66L429.17 134.34C429.17 134.34 428.16 133.76 428.19 132.35C428.21 130.94 428.39 117.51 428.45 116.42C428.61 114.89 430.01 114.06 430.01 114.06L447.54 102.81L522.5 106.18L522.33 230.42L446.84 236.03C446.84 236.03 429.76 233.38 428.42 233.12C427.08 232.86 427.04 231.47 427.04 231.47L427.11 213.74C427.11 213.74 427.07 212.35 428.47 212.19C428.63 210.74 428.47 208.11 428.47 208.11C427.73 208.13 427.15 207.53 427.15 206.77C427.13 206.79 427.35 189.15 427.35 188.53Z" fill="#797673"/>
<path d="M428.86 158.38L447.98 153.69L447.8 158.2C447.8 158.2 446.5 158.55 444.93 158.97C443.94 159.24 428.87 162.74 428.87 162.74L428.86 158.38Z" fill="#605D5A"/>
<path d="M429.17 134.4L447.87 125.7L447.69 130.21L429.09 138.74L429.17 134.4Z" fill="#605D5A"/>
<path d="M428.61 187.3L428.57 183.26L447.78 179.48L447.87 184.04L428.61 187.3Z" fill="#605D5A"/>
<path d="M428.46 212.16L428.42 208.12L447.86 208.27L447.83 212.55L428.46 212.16Z" fill="#605D5A"/>
<path d="M447.74 126.32L524.36 127.72C524.98 127.71 525.49 127.14 525.52 126.44L525.37 106.55C525.4 105.8 524.86 105.18 524.19 105.19L447.84 102.74C447.19 102.75 446.66 103.35 446.65 104.08L446.52 125C446.54 125.74 447.08 126.33 447.74 126.32Z" fill="#B3AFAB"/>
<path d="M467.13 118.35L512.85 119.28L512.8 109.83L467.08 108.83L467.13 118.35Z" fill="#522CD5"/>
<path d="M473.23 116.96L506.92 117.79L506.88 110.83L473.19 109.98L473.23 116.96Z" fill="#957EE6"/>
<path d="M452.28 113.6C452.29 115.15 453.42 116.38 454.81 116.35C456.2 116.32 457.32 115.05 457.31 113.5C457.3 111.95 456.17 110.72 454.78 110.75C453.39 110.77 452.27 112.05 452.28 113.6Z" fill="white"/>
<path d="M488.42 112.67L475.5 112.39L475.51 115.06L488.43 115.34L488.42 112.67Z" fill="white"/>
<path d="M447.78 153.69L524.41 153.4C525.03 153.37 525.55 152.8 525.57 152.1L525.42 132.22C525.45 131.47 524.91 130.86 524.24 130.89L447.89 130.12C447.24 130.15 446.71 130.75 446.7 131.48L446.57 152.4C446.57 153.14 447.12 153.72 447.78 153.69Z" fill="#B3AFAB"/>
<path d="M467.17 145.3L512.89 145.23L512.84 135.78L467.12 135.79L467.17 145.3Z" fill="#522CD5"/>
<path d="M473.27 143.78L506.96 143.86L506.92 136.91L473.23 136.8L473.27 143.78Z" fill="#957EE6"/>
<path d="M452.32 140.88C452.33 142.43 453.46 143.64 454.85 143.58C456.24 143.52 457.36 142.22 457.35 140.67C457.34 139.12 456.21 137.92 454.82 137.97C453.43 138.03 452.31 139.33 452.32 140.88Z" fill="white"/>
<path d="M488.46 139.16H475.54L475.55 141.83H488.47L488.46 139.16Z" fill="white"/>
<path d="M447.78 179.5L523.61 178.17C524.4 178.13 525.04 177.39 525.05 176.49L525.34 158.64C525.35 157.72 524.68 157.01 523.86 157.06L448.28 158.14C447.49 158.19 446.58 158.97 446.56 159.85L446.3 177.86C446.26 178.79 446.94 179.54 447.78 179.5Z" fill="#F7B548"/>
<path d="M466.16 172.21L512.49 171.8L512.44 162.63L466.11 162.98L466.16 172.21Z" fill="#522CD5"/>
<path d="M471.95 170.8L506.76 170.45L506.72 163.55L471.91 163.87L471.95 170.8Z" fill="#957EE6"/>
<path d="M452.22 167.52C452.23 169.22 453.48 170.55 455.01 170.48C456.54 170.41 457.77 168.97 457.76 167.27C457.75 165.57 456.5 164.24 454.98 164.31C453.44 164.38 452.21 165.81 452.22 167.52Z" fill="white"/>
<path d="M487.272 165.951L474.342 166.036L474.359 168.706L487.289 168.621L487.272 165.951Z" fill="white"/>
<path d="M447.86 208.29L523.77 205.59C524.46 205.51 525.01 204.85 525.01 204.07L525.23 183.72C525.24 182.89 524.64 182.24 523.9 182.27L447.75 184.07C447.02 184.1 446.43 184.77 446.41 185.58L446.42 206.81C446.4 207.69 447.07 208.38 447.86 208.29Z" fill="#B3AFAB"/>
<path d="M451.96 193.93C451.97 195.63 453.22 196.95 454.75 196.88C456.28 196.8 457.51 195.36 457.5 193.66C457.49 191.96 456.24 190.64 454.72 190.71C453.18 190.79 451.95 192.23 451.96 193.93Z" fill="white"/>
<path d="M465.24 198.56L511.59 197.16L511.54 187.99L465.19 189.33L465.24 198.56Z" fill="#522CD5"/>
<path d="M471.04 197.13L505.85 196.14L505.81 189.24L471 190.2L471.04 197.13Z" fill="#957EE6"/>
<path d="M486.35 192.02L473.42 192.36L473.43 195.03L486.36 194.69L486.35 192.02Z" fill="white"/>
<path d="M447 236.09L523.65 232.12C524.27 232.06 524.79 231.47 524.81 230.76L524.66 210.9C524.69 210.15 524.15 209.56 523.48 209.62L447.11 212.51C446.45 212.57 445.92 213.2 445.92 213.93L445.79 234.84C445.79 235.59 446.33 236.15 447 236.09Z" fill="#B3AFAB"/>
<path d="M466.4 226.76L512.13 224.5L512.07 215.06L466.34 217.26L466.4 226.76Z" fill="#522CD5"/>
<path d="M472.5 224.96L506.19 223.42L506.15 216.47L472.46 217.98L472.5 224.96Z" fill="#957EE6"/>
<path d="M451.54 223.06C451.55 224.61 452.68 225.76 454.07 225.63C455.46 225.51 456.58 224.15 456.57 222.61C456.56 221.06 455.43 219.91 454.04 220.03C452.65 220.16 451.53 221.51 451.54 223.06Z" fill="white"/>
<path d="M487.69 219.61L474.76 220.23L474.78 222.9L487.71 222.27L487.69 219.61Z" fill="white"/>
<path d="M387.28 105.67C386.09 105.97 384.91 106.36 383.75 106.84C382.16 107.49 380.69 108.29 379.32 109.19L381.76 114.79C380.4 115.85 379.22 117.07 378.22 118.41L371.69 117.25C370.21 119.8 369.2 122.6 368.73 125.52L374.54 128.41C374.41 130.37 374.58 132.36 375.08 134.35C373.66 135.21 371.28 136.58 369.76 137.45C370.15 138.59 370.61 139.73 371.18 140.84C371.95 142.38 372.87 143.81 373.89 145.14L379.8 143.13C381.08 144.55 382.53 145.79 384.11 146.81L383.06 152.81C385.82 154.25 388.8 155.24 391.86 155.71L394.85 150.32C396.56 150.42 398.29 150.31 400 149.99L403.39 155.07C404.62 154.73 405.83 154.3 407.02 153.77C408.64 153.05 410.14 152.19 411.51 151.21L409.08 145.78C410.43 144.67 411.6 143.39 412.57 142L418.57 143.39C420.06 140.76 421.05 137.86 421.47 134.86C419.73 134.11 417.28 133.05 415.9 132.42C416.01 130.68 415.88 128.91 415.5 127.14L420.64 124.29C420.24 122.96 419.73 121.64 419.1 120.35C418.32 118.75 417.39 117.25 416.34 115.87L410.9 118.06C409.6 116.56 408.11 115.26 406.48 114.18L407.83 108.48C405.24 107.02 402.42 105.97 399.5 105.38L397.02 110.69C394.94 110.43 392.82 110.47 390.73 110.84L387.28 105.67ZM405.96 125.98C408.75 131.66 406.35 138.27 400.57 140.79C394.75 143.32 387.7 140.75 384.83 135.01C381.96 129.26 384.42 122.57 390.31 120.09C396.17 117.63 403.16 120.29 405.96 125.98Z" fill="#A7A4A0"/>
<path d="M411.81 222.71C411.77 248.05 391.2 268.5 365.13 268.38C338.2 268.26 315.74 246.38 315.77 219.51C315.8 192.63 338.32 172.23 365.26 173.91C391.34 175.52 411.85 197.35 411.81 222.71Z" fill="#F7B548"/>
<path d="M386.82 221.87C386.8 233.55 377.21 242.86 365.28 242.63C359.96 242.53 354.92 240.5 350.97 237.1C352.99 235.72 354.6 234.57 354.46 234.53C354.1 234.43 341.29 227.81 341.29 227.81L343.56 242.06C343.56 242.06 345.47 240.8 347.69 239.31C352.44 243.69 358.69 246.27 365.27 246.38C379.28 246.62 390.5 235.67 390.52 221.99L386.82 221.87Z" fill="white"/>
<path d="M377.98 210.78C378.32 210.91 389.99 218.46 389.99 218.46L388.99 204.51C388.99 204.51 387.33 205.41 385.3 206.53C380.64 200.33 373.35 196.31 365.34 195.91C351.07 195.2 339.25 206.13 339.24 220.28C339.24 221.49 339.33 222.72 339.5 223.92L343.4 223.51C343.25 222.49 343.18 221.45 343.18 220.42C343.19 208.4 353.21 199.1 365.34 199.68C372.01 200 378.09 203.25 382.08 208.33C379.78 209.6 377.84 210.73 377.98 210.78Z" fill="white"/>
<path d="M371.87 184.06H369.62V165.23L468.42 166.34L468.39 168.59L371.87 167.51V184.06Z" fill="#908D89"/>
<path d="M360.14 184.15H357.89V130.02L371.11 130.48L371.03 132.73L360.14 132.35V184.15Z" fill="#908D89"/>
<path d="M336.05 88.5L336.08 64.33C336.08 60.54 333.39 58.24 330.06 58.01L111.4 40.03C107.23 39.73 103.83 41.79 103.83 46.05V75.23C148.88 77.68 297.38 85.81 336.05 88.5Z" fill="#605D5A"/>
<path d="M103.83 72.35V200.5C103.83 204.76 105.32 206.73 109.76 206.69L330.88 205.04C334.43 205.01 335.92 203.46 335.92 199.67L336.05 85.43L103.83 72.35Z" fill="#A7CBF6"/>
<path d="M277.49 136.93L174.41 134.05C171.43 133.97 169 131.35 169 128.21L169.01 101.22C169.01 98.08 171.44 95.64 174.42 95.78L277.52 100.6C280.2 100.73 282.37 103.23 282.37 106.2L282.35 131.69C282.34 134.66 280.17 137.01 277.49 136.93Z" fill="white"/>
<path d="M277.62 138.33C277.57 138.33 277.51 138.33 277.46 138.33L174.38 135.45C170.65 135.35 167.62 132.1 167.62 128.21L167.63 101.22C167.63 99.26 168.38 97.47 169.74 96.17C171.03 94.94 172.71 94.31 174.5 94.39L277.6 99.21C281.01 99.37 283.77 102.51 283.77 106.21L283.75 131.7C283.75 133.59 283.01 135.39 281.73 136.64C280.59 137.73 279.14 138.33 277.62 138.33ZM174.18 97.17C173.24 97.17 172.34 97.53 171.66 98.19C170.85 98.96 170.41 100.04 170.41 101.23L170.4 128.22C170.4 130.61 172.22 132.61 174.45 132.67L277.53 135.55C278.3 135.57 279.15 135.25 279.77 134.65C280.52 133.92 280.95 132.85 280.95 131.7L280.97 106.21C280.97 103.98 279.39 102.09 277.45 102L174.35 97.18C174.3 97.17 174.24 97.17 174.18 97.17Z" fill="#F7B548"/>
<path d="M233.49 152.2L150.93 150.59V145.56L233.49 147.37V152.2Z" fill="white"/>
<path d="M298.7 169.05L150.93 167.37V162.33L298.7 164.38V169.05Z" fill="white"/>
<path d="M262.77 184.5L150.92 184.14V179.11L262.78 179.74L262.77 184.5Z" fill="white"/>
<path d="M233.96 106.37C233.58 106.35 233.21 106.15 232.98 105.8L225 93.56C224.63 92.99 224.77 92.24 225.31 91.89C225.86 91.54 226.6 91.72 226.97 92.29L234.94 104.52C235.31 105.09 235.17 105.83 234.63 106.18C234.42 106.32 234.19 106.38 233.96 106.37Z" fill="#797673"/>
<path d="M242.08 104.6C241.44 104.57 240.91 104.02 240.9 103.37L240.66 89.07C240.65 88.4 241.17 87.88 241.82 87.9C242.49 87.96 243.01 88.48 243.02 89.14L243.26 103.42C243.27 104.08 242.75 104.61 242.1 104.59C242.1 104.6 242.09 104.6 242.08 104.6Z" fill="#797673"/>
<path d="M249.19 108.27C248.89 108.26 248.58 108.12 248.35 107.87C247.9 107.38 247.91 106.62 248.37 106.18L258.26 96.71C258.71 96.27 259.44 96.32 259.9 96.81C260.35 97.3 260.34 98.06 259.88 98.49L250 107.96C249.79 108.18 249.49 108.28 249.19 108.27Z" fill="#797673"/>
<path d="M228.85 111.74C228.7 111.73 228.55 111.7 228.41 111.64L215.15 105.79C214.53 105.52 214.22 104.79 214.47 104.18C214.71 103.56 215.42 103.29 216.04 103.56L229.29 109.42C229.9 109.69 230.2 110.41 229.96 111.02C229.77 111.48 229.32 111.76 228.85 111.74Z" fill="#797673"/>
<path d="M213.62 120.65C213.04 120.63 212.52 120.19 212.42 119.59C212.31 118.92 212.75 118.31 213.41 118.22L227.49 116.31C228.18 116.22 228.76 116.69 228.87 117.35C228.98 118.01 228.54 118.62 227.89 118.71L213.82 120.64C213.76 120.65 213.69 120.65 213.62 120.65Z" fill="#797673"/>
<path d="M240.59 118.4L243.69 150.89C243.82 152.23 245.45 152.77 246.29 151.76L254.48 141.92L268.04 139.9C269.28 139.72 269.65 138.08 268.64 137.28L242.96 117.11C241.92 116.29 240.47 117.08 240.59 118.4Z" fill="#797673"/>
<path d="M160.26 64.2999L276.24 71.5999C278.04 71.6999 279.52 69.9799 279.52 67.7999C279.52 65.6999 278.14 63.9399 276.41 63.8299L160.46 55.9999C158.4 55.8799 156.7 57.6999 156.69 60.0499C156.69 62.3099 158.27 64.1899 160.26 64.2999Z" fill="#C8C6C4"/>
<path d="M139.03 58.4799C139.03 60.4399 140.43 62.0599 142.17 62.1099C143.91 62.1599 145.32 60.6099 145.32 58.6599C145.32 56.7099 143.92 55.0899 142.19 55.0299C140.46 54.9799 139.04 56.5199 139.03 58.4799Z" fill="#E86E58"/>
<path d="M128.14 57.84C128.14 59.81 129.56 61.44 131.32 61.49C133.08 61.54 134.5 59.99 134.51 58.02C134.51 56.06 133.1 54.42 131.34 54.37C129.58 54.32 128.15 55.87 128.14 57.84Z" fill="#FAE969"/>
<path d="M116.93 57.1899C116.92 59.1699 118.37 60.8199 120.15 60.8699C121.93 60.9199 123.37 59.3599 123.38 57.3799C123.38 55.4099 121.95 53.7599 120.17 53.7099C118.38 53.6499 116.93 55.2099 116.93 57.1899Z" fill="#56A84F"/>
<path d="M324.79 74.4699L316.49 73.8999V65.1399L324.78 65.7599L324.79 74.4699Z" fill="#C8C6C4"/>
</svg>
