<svg width="636" height="300" viewBox="0 0 636 300" fill="none" xmlns="http://www.w3.org/2000/svg">
<path d="M213.63 223.45C312.91 247.73 451.92 235.43 489.43 185.67C532.76 128.2 443.67 79.86 374.51 119C328.55 145.01 264.13 151.59 222.87 152.51C152.92 154.08 146.16 206.95 213.63 223.45Z" fill="url(#paint0_radial)"/>
<path d="M429.61 87.2099L305.53 93.8799V35.16L429.61 26.45V87.2099Z" fill="#BBB8B4"/>
<path d="M351.37 91.4199L305.53 93.8799V35.1599L351.37 31.9399V91.4199Z" fill="#848484"/>
<path d="M521.13 132.27L408.26 136.85C404.56 137 401.57 133.95 401.57 130.03V62.7699C401.57 58.8499 404.56 55.4899 408.26 55.2599L521.13 48.1799C525.06 47.9299 528.26 51.0199 528.26 55.0699V124.66C528.25 128.7 525.06 132.11 521.13 132.27Z" fill="#F7B548"/>
<path d="M478.07 120.64L462.86 121.31C461.93 121.35 461.18 120.6 461.18 119.63C461.18 118.66 461.93 117.85 462.86 117.8L478.07 117.11C479 117.07 479.76 117.82 479.76 118.79C479.76 119.78 479.01 120.6 478.07 120.64Z" fill="white"/>
<path d="M456.79 121.58L438.37 122.39C437.46 122.43 436.72 121.68 436.72 120.72C436.72 119.76 437.46 118.95 438.37 118.91L456.79 118.08C457.71 118.04 458.46 118.79 458.46 119.75C458.46 120.72 457.71 121.54 456.79 121.58Z" fill="white"/>
<path d="M455.46 112.31L428.47 113.57C427.56 113.61 426.83 112.87 426.83 111.91C426.83 110.95 427.57 110.14 428.47 110.1L455.46 108.82C456.38 108.78 457.13 109.52 457.13 110.49C457.13 111.46 456.38 112.27 455.46 112.31Z" fill="white"/>
<path d="M493.04 101.14L447.56 103.38C446.64 103.43 445.9 102.68 445.9 101.72C445.9 100.76 446.64 99.94 447.56 99.89L493.04 97.61C493.98 97.56 494.74 98.32 494.74 99.29C494.74 100.26 493.98 101.1 493.04 101.14Z" fill="white"/>
<path d="M440.31 103.73L418.62 104.8C417.72 104.84 416.98 104.11 416.98 103.15C416.98 102.19 417.71 101.38 418.62 101.34L440.31 100.25C441.22 100.2 441.97 100.95 441.97 101.91C441.97 102.87 441.23 103.69 440.31 103.73Z" fill="white"/>
<path d="M513.59 90.66L484.98 92.14C484.04 92.19 483.28 91.44 483.28 90.47C483.28 89.5 484.04 88.67 484.98 88.62L513.59 87.11C514.54 87.06 515.31 87.81 515.31 88.8C515.31 89.78 514.54 90.61 513.59 90.66Z" fill="white"/>
<path d="M478.07 92.5L438.37 94.55C437.46 94.6 436.72 93.86 436.72 92.9C436.72 91.94 437.46 91.12 438.37 91.07L478.07 88.98C479 88.93 479.76 89.68 479.76 90.65C479.76 91.62 479.01 92.45 478.07 92.5Z" fill="white"/>
<path d="M473.18 83.38L428.47 85.8C427.56 85.85 426.83 85.11 426.83 84.15C426.83 83.19 427.57 82.37 428.47 82.32L473.18 79.86C474.11 79.81 474.87 80.55 474.87 81.52C474.87 82.5 474.11 83.33 473.18 83.38Z" fill="white"/>
<path d="M503.29 72.31L489 73.11C488.06 73.16 487.3 72.42 487.3 71.44C487.3 70.47 488.06 69.63 489 69.58L503.28 68.76C504.23 68.71 504.99 69.45 504.99 70.43C505 71.41 504.23 72.25 503.29 72.31Z" fill="white"/>
<path d="M482.61 73.4799L445.4 75.5899C444.48 75.6399 443.74 74.8999 443.74 73.9399C443.74 72.9799 444.48 72.1499 445.4 72.0999L482.61 69.9599C483.55 69.9099 484.3 70.6499 484.3 71.6199C484.3 72.5899 483.55 73.4199 482.61 73.4799Z" fill="white"/>
<path d="M438.37 75.98L428.47 76.54C427.56 76.59 426.83 75.86 426.83 74.9C426.83 73.94 427.57 73.12 428.47 73.07L438.37 72.5C439.28 72.45 440.02 73.18 440.02 74.15C440.03 75.11 439.29 75.93 438.37 75.98Z" fill="white"/>
<path d="M467.31 64.99L418.63 67.87C417.73 67.92 416.99 67.19 416.99 66.24C416.99 65.28 417.72 64.47 418.63 64.41L467.31 61.48C468.24 61.42 468.99 62.16 468.99 63.13C468.99 64.1 468.24 64.93 467.31 64.99Z" fill="white"/>
<path d="M314.09 44.8L311.4 44.98V42.05L314.09 41.86V44.8Z" fill="#BBB8B4"/>
<path d="M335.4 43.3699L317.43 44.5799V41.6299L335.4 40.4099V43.3699Z" fill="#BBB8B4"/>
<path d="M314.09 51.3699L311.4 51.5499V48.6099L314.09 48.4399V51.3699Z" fill="#BBB8B4"/>
<path d="M340.91 49.6199L317.43 51.1599V48.2099L340.91 46.6599V49.6199Z" fill="#BBB8B4"/>
<path d="M314.09 57.95L311.4 58.12V55.18L314.09 55.01V57.95Z" fill="#BBB8B4"/>
<path d="M331.1 56.8699L317.43 57.7399V54.7899L331.1 53.9099V56.8699Z" fill="#BBB8B4"/>
<path d="M314.09 64.52L311.4 64.69V61.75L314.09 61.58V64.52Z" fill="#BBB8B4"/>
<path d="M340.91 62.8599L317.43 64.3099V61.3699L340.91 59.8999V62.8599Z" fill="#BBB8B4"/>
<path d="M314.09 71.0899L311.4 71.2599V68.3199L314.09 68.1599V71.0899Z" fill="#BBB8B4"/>
<path d="M335.4 69.82L317.43 70.89V67.95L335.4 66.86V69.82Z" fill="#BBB8B4"/>
<path d="M363.01 41.5099L357.41 41.8799V38.9099L363.01 38.5299V41.5099Z" fill="#848484"/>
<path d="M367.06 47.9099L357.41 48.5399V45.5599L367.06 44.9199V47.9099Z" fill="#848484"/>
<path d="M389.46 53.1499L357.41 55.1899V52.2199L389.46 50.1499V53.1499Z" fill="#848484"/>
<path d="M375.78 60.71L357.41 61.84V58.87L375.78 57.72V60.71Z" fill="#848484"/>
<path d="M381.21 67.0699L357.41 68.4999V65.5199L381.21 64.0699V67.0699Z" fill="#848484"/>
<path d="M314.09 77.67L311.4 77.83V74.89L314.09 74.73V77.67Z" fill="#BBB8B4"/>
<path d="M330.57 76.7099L317.43 77.4699V74.5299L330.57 73.7599V76.7099Z" fill="#BBB8B4"/>
<path d="M314.09 84.2399L311.4 84.3899V81.4599L314.09 81.2999V84.2399Z" fill="#BBB8B4"/>
<path d="M340.91 82.73L317.43 84.05V81.11L340.91 79.77V82.73Z" fill="#BBB8B4"/>
<path d="M375.78 74.08L357.41 75.15V72.17L375.78 71.09V74.08Z" fill="#848484"/>
<path d="M363.01 81.4899L357.41 81.7999V78.8299L363.01 78.5099V81.4899Z" fill="#848484"/>
<path d="M455.32 258.15L446.22 174.81L438.14 179.73L452.34 258.11L455.32 258.15Z" fill="#C8C6C4"/>
<path d="M240.27 265.25L236.84 265.21L248.76 179.01L259 178.35L240.27 265.25Z" fill="#C8C6C4"/>
<path d="M264.44 251.52L280.17 177.05L271.17 178.11L261.45 251.48L264.44 251.52Z" fill="#C8C6C4"/>
<path d="M423.94 271.79L427.37 271.84L417.49 181.44L406.92 180.52L423.94 271.79Z" fill="#C8C6C4"/>
<path d="M456.99 188.15L482.07 173.93L482.6 165.95L457.08 180.47L456.99 188.15Z" fill="#848484"/>
<path d="M457.08 180.47L482.6 165.95L256.42 165.85L213.9 178.16L214.54 178.74L457.08 180.47Z" fill="#B2B2B2"/>
<path d="M213.9 178.16V184.81L456.99 188.15L457.08 180.47L213.9 178.16Z" fill="#9C9894"/>
<path d="M360.98 164.65C359.46 165.14 360.09 166.45 361.72 166.42C369.03 166.28 376.27 166.57 379.8 166.82C384.23 167.14 387.54 166.46 388.59 165.62C389.42 164.96 389.16 163.78 387.08 163.56C382.44 163.08 362.36 164.2 360.98 164.65Z" fill="#797673"/>
<path d="M372.25 163.35C359.46 163.96 357.34 165.51 364.67 165.46C372 165.41 376.42 165.58 379.95 165.83C387.9 166.4 391.24 163.88 386.57 163.49C381.91 163.1 375.05 163.22 372.25 163.35Z" fill="#B3AFAB"/>
<path d="M381.44 164.23L379.46 164.73L366.47 154.11L378.14 154.25L381.44 164.23Z" fill="#605D5A"/>
<path d="M379.51 164.73H367.02L363.5 154.11H375.99L379.51 164.73Z" fill="#797673"/>
<path d="M412.23 103.13L409.26 103.18C409.67 103.3 409.98 103.67 409.97 104.12L408.88 156.66C408.87 157.19 408.44 157.61 407.91 157.61H411.16C411.69 157.61 412.12 157.19 412.13 156.66L413.22 104.12C413.24 103.57 412.79 103.12 412.23 103.13Z" fill="#B3AFAB"/>
<path d="M334.14 107.77L408.63 104.82L408.29 156.59L333.01 156.03L334.14 107.77Z" fill="#D8E8FB"/>
<path d="M350.19 169.62C348.14 170.56 348.28 172.82 350.22 173.23C351.39 173.48 353.27 173.77 355.24 173.84C367.89 174.34 375.49 175.46 381.55 176.56C389.15 177.94 394.93 176.36 396.82 174.09C398.32 172.29 397.23 169.94 393.66 169.1C385.7 167.23 352.62 168.5 350.19 169.62Z" fill="#797673"/>
<path d="M368.59 167.07C362.07 167.17 357.13 167.51 353.76 168.19C351.94 168.56 346.28 170.93 350.34 171.8C351.51 172.05 353.32 172.17 355.31 172.27C367.96 172.92 375.56 173.89 381.62 174.99C395.27 177.48 401.28 170.65 393.27 169.01C385.26 167.38 373.43 166.99 368.59 167.07Z" fill="#B3AFAB"/>
<path d="M352.43 170.77C374.06 170.66 384.67 172.83 387.06 173.33C387.36 173.39 387.66 173.31 387.87 173.1C388.54 172.46 390.1 171.02 391.94 169.66C392.15 169.51 392.07 169.18 391.82 169.13C371.44 165.37 356.95 167.71 356.95 167.71C355.63 168.07 353.5 169.23 352.24 170.23C352.01 170.4 352.14 170.77 352.43 170.77Z" fill="#797673"/>
<path d="M407.1 124.45L370.07 125.59V116.94L407.23 115.67L407.1 124.45Z" fill="#927BE5"/>
<path d="M381.55 150.05H372.49L372.56 141.81L381.65 141.66L381.55 150.05Z" fill="#4995EE"/>
<path d="M392.28 149.96H383.23L383.29 141.72L392.39 141.56L392.28 149.96Z" fill="#28C2D1"/>
<path d="M402.72 149.96L393.82 149.93L393.81 141.53L402.91 141.37L402.72 149.96Z" fill="#F7B548"/>
<path d="M400.317 127.802L377.031 128.231L377.069 130.28L400.355 129.852L400.317 127.802Z" fill="#B3AFAB"/>
<path d="M400.395 131.879L377.05 132.339L377.09 134.389L400.436 133.929L400.395 131.879Z" fill="#B3AFAB"/>
<path d="M377.08 138.5L377.06 136.45L394.79 136.18L394.82 138.24L377.08 138.5Z" fill="#B3AFAB"/>
<path d="M374.27 113.52L374.21 111.47L390.37 110.88L390.43 112.93L374.27 113.52Z" fill="#B3AFAB"/>
<path d="M371.29 106.1L336.18 107.77L335.04 156.03L370.33 156L371.29 106.1Z" fill="#84817D"/>
<path d="M356.632 111.755L341.939 112.231L342.006 114.28L356.698 113.804L356.632 111.755Z" fill="#B3AFAB"/>
<path d="M361.259 116.24L346.596 116.697L346.66 118.746L361.322 118.289L361.259 116.24Z" fill="#B3AFAB"/>
<path d="M364.008 120.906L346.643 121.365L346.697 123.414L364.062 122.956L364.008 120.906Z" fill="#B3AFAB"/>
<path d="M357.415 125.896L341.776 126.152L341.81 128.202L357.448 127.946L357.415 125.896Z" fill="#B3AFAB"/>
<path d="M363.44 130.35L346.693 130.664L346.732 132.713L363.478 132.4L363.44 130.35Z" fill="#B3AFAB"/>
<path d="M366.194 134.935L351.207 135.25L351.25 137.3L366.237 136.985L366.194 134.935Z" fill="#B3AFAB"/>
<path d="M360.906 139.799L351.177 139.913L351.201 141.962L360.93 141.849L360.906 139.799Z" fill="#B3AFAB"/>
<path d="M365.674 144.474L346.744 144.637L346.762 146.687L365.692 146.524L365.674 144.474Z" fill="#B3AFAB"/>
<path d="M363.052 149.161L351.222 149.247L351.237 151.297L363.067 151.211L363.052 149.161Z" fill="#B3AFAB"/>
<path d="M408.98 103.13L333.94 106.09C333.42 106.1 332.99 106.52 332.98 107.04L331.89 156.62C331.88 157.17 332.32 157.61 332.86 157.61H407.9C408.43 157.61 408.86 157.19 408.87 156.66L409.96 104.12C409.98 103.57 409.53 103.12 408.98 103.13ZM404.8 153.62C404.79 154.09 404.41 154.46 403.94 154.46H336.34C335.86 154.46 335.47 154.07 335.48 153.59L336.44 109.97C336.45 109.51 336.82 109.14 337.28 109.13L404.88 106.53C405.37 106.52 405.76 106.92 405.75 107.4L404.8 153.62Z" fill="#605D5A"/>
<path d="M347.93 112.03L341.92 112.22L341.99 114.28L347.93 114.08V112.03Z" fill="#F7B548"/>
<path d="M352.39 121.21L346.6 121.37L346.66 123.42L352.39 123.27V121.21Z" fill="#F7B548"/>
<path d="M352.77 144.57L346.72 144.62L346.73 146.67L352.77 146.62V144.57Z" fill="#F7B548"/>
<path d="M286.783 190.615L276.229 191.97L276.406 193.349L286.96 191.994L286.783 190.615Z" fill="#A08BE8"/>
<path d="M139.33 144.09C138.44 155.66 141.51 182.11 143.17 191.46C145 201.77 148.67 208.65 155.78 208.65C161.61 208.65 174.07 208.65 178.36 208.65C170.24 186.21 151.45 155.65 139.33 144.09Z" fill="#179BB8"/>
<path d="M178.17 272.52L179.86 222.03C180.45 216.79 181.97 214.05 185.26 212.28L183.61 208.71C177.99 211.75 176.7 216.95 176.18 221.65L174.47 272.53L178.17 272.52Z" fill="#C8C6C4"/>
<path d="M200.14 224.13L204.75 278.26H208.46L203.82 223.68L203.8 223.5C202.16 213.91 200.98 210.95 195.75 208.42L194.24 212.06C197.68 213.73 198.57 214.96 200.14 224.13Z" fill="#C8C6C4"/>
<path d="M142.53 278.26L156 218.8C156.79 215.3 159.68 212.86 163.01 212.86H223.85C227.02 212.86 229.87 215.15 230.77 218.44L245.39 272.52H249.25L234.31 217.29C232.94 212.33 228.64 208.86 223.85 208.86H163.01C157.97 208.86 153.6 212.56 152.41 217.85L138.72 278.26H142.53Z" fill="#C8C6C4"/>
<path d="M234.31 208.89H156.75C152.32 208.89 148.73 205.3 148.73 200.87C148.73 196.44 152.32 192.85 156.75 192.85H234.31C238.74 192.85 242.33 196.44 242.33 200.87C242.33 205.29 238.74 208.89 234.31 208.89Z" fill="url(#paint1_linear)"/>
<path d="M138.91 141.04C140.21 134.62 144.12 132.1 150.63 131.87C154.53 131.73 159 131.41 167.03 132.79C175.06 134.17 179.99 139.42 190.23 152.79C207.77 175.68 221.8 208.66 221.8 208.66H190.17C192.45 206.56 193.78 204.04 193.78 201.32C193.78 194.03 184.23 188.13 172.46 188.13C160.69 188.13 151.14 194.04 151.14 201.32C151.14 204.04 152.47 206.56 154.75 208.66C154.53 208.66 154.31 208.66 154.11 208.66C147.38 208.66 143.91 201.78 142.18 191.47C140.43 181.15 137.08 150.06 138.91 141.04Z" fill="url(#paint2_radial)"/>
<path d="M289.94 225.7C291.28 217.13 292.58 199.73 285.85 185.12L276.44 190.33C282.54 203.58 280.91 219 279.75 225.73C279.66 226.29 284.77 226.82 289.94 225.7Z" fill="url(#paint3_linear)"/>
<path d="M289.94 225.7C291.28 217.13 292.58 199.73 285.85 185.12L276.44 190.33C282.54 203.58 280.91 219 279.75 225.73C279.66 226.29 284.77 226.82 289.94 225.7Z" fill="url(#paint4_linear)"/>
<path d="M279.78 225.64H287.79C288.31 228.22 286.84 241.83 309.28 259.03L307.91 268.49L272.98 268.47C271.76 268.47 270.96 267.52 271.22 266.3L279.78 225.64Z" fill="#522CD5"/>
<path d="M310.24 257.08C311.58 258.05 311.66 259.15 311.31 260.82L310.11 266.8C309.92 267.72 309.01 268.47 308.09 268.47H307.91C306.87 268.47 306.2 267.63 306.42 266.58L307.24 261.71C307.65 259.78 307.64 258.56 305.87 257.24C295.41 249.45 282.77 238.43 284.41 225.62H289.95C289.55 232.2 292.63 244.31 310.24 257.08Z" fill="url(#paint5_linear)"/>
<path d="M307.01 258.44C307.59 259.37 307.52 260.37 307.24 261.72L306.42 266.59C306.2 267.63 306.87 268.47 307.91 268.48H308.09C309.01 268.48 309.92 267.73 310.11 266.81L311.31 260.83C311.51 259.87 311.56 259.11 311.32 258.44H307.01Z" fill="url(#paint6_radial)"/>
<path d="M273.52 225.7C274.86 217.13 276.16 199.73 269.43 185.12L260.02 190.33C266.12 203.58 264.49 219 263.33 225.73C263.24 226.29 268.35 226.82 273.52 225.7Z" fill="url(#paint7_linear)"/>
<path d="M273.52 225.7C274.86 217.13 276.16 199.73 269.43 185.12L260.02 190.33C266.12 203.58 264.49 219 263.33 225.73C263.24 226.29 268.35 226.82 273.52 225.7Z" fill="url(#paint8_linear)"/>
<path d="M263.35 225.64H271.36C271.88 228.22 270.41 241.83 292.85 259.03L291.48 268.49L256.55 268.47C255.33 268.47 254.53 267.52 254.79 266.3L263.35 225.64Z" fill="#522CD5"/>
<path d="M293.82 257.08C295.16 258.05 295.24 259.15 294.89 260.82L293.69 266.8C293.5 267.72 292.59 268.47 291.67 268.47H291.49C290.45 268.47 289.78 267.63 290 266.58L290.82 261.71C291.23 259.78 291.22 258.56 289.45 257.24C278.99 249.45 266.35 238.43 267.99 225.62H273.53C273.12 232.2 276.21 244.31 293.82 257.08Z" fill="url(#paint9_linear)"/>
<path d="M290.59 258.44C291.17 259.37 291.1 260.37 290.82 261.72L290 266.6C289.78 267.64 290.45 268.48 291.49 268.49H291.67C292.59 268.49 293.5 267.74 293.69 266.82L294.89 260.84C295.09 259.88 295.14 259.12 294.9 258.45L290.59 258.44Z" fill="url(#paint10_radial)"/>
<path d="M285.408 179.187L274.792 179.901L274.885 181.288L285.501 180.574L285.408 179.187Z" fill="#A08BE8"/>
<path d="M321.66 155.85C324.91 141.85 322.27 130.81 322.27 130.81L325.54 130.72L325.62 130.65C320.25 105.26 297.38 86.5299 270.51 87.2499C240.24 88.0599 216.36 113.26 217.17 143.53C217.98 173.8 243.18 197.68 273.45 196.87C297.34 196.23 317.24 180.4 324.18 158.88C324.38 157.98 324.32 156.36 321.66 155.85Z" fill="url(#paint11_radial)"/>
<path d="M321.66 155.85C324.87 142.02 322.34 131.09 322.28 130.82L296.99 131.41C296.99 131.41 293.4 131.14 293.48 134.41C293.56 137.68 293.95 146.93 294.22 157.15C294.29 159.26 321.12 157.81 321.66 155.85Z" fill="url(#paint12_radial)"/>
<path d="M321.67 155.8C321.79 155.27 321.9 154.75 322.01 154.23C322.54 151.61 322.88 149.11 323.07 146.78C321.94 146.39 320.82 146.69 319.61 147.65C317.94 148.98 309.38 156.13 309.38 156.13L321.67 155.8Z" fill="#A08BE8"/>
<path d="M323.98 159.53C323.98 159.53 325.42 156.57 321.66 155.85C321.66 155.84 321.67 155.82 321.67 155.81L297.33 156.37C296.03 156.4 294.33 155.67 294.15 154.42C294.18 155.32 294.2 156.24 294.23 157.16C294.28 159.07 295.73 160.04 297.01 160.18C297.14 160.19 297.27 160.2 297.4 160.2L301.22 160.1L323.98 159.53Z" fill="#512BD4"/>
<path d="M319.99 168.56L225.47 171.09C227.69 174.64 230.3 177.91 233.24 180.84L312.75 178.71C315.54 175.63 317.97 172.22 319.99 168.56Z" fill="#D8CFF7"/>
<path d="M310.34 181.24C314.92 176.75 318.72 171.46 321.5 165.61L309.93 165.92L310.34 181.24Z" fill="#512BD4"/>
<path d="M274.09 85.06L263.5 85.27L264.77 74.36L272.37 74.21L274.09 85.06Z" fill="#8A6FE8"/>
<path d="M278.28 91.6199C278.76 91.6099 279.13 91.1899 279.07 90.7199C278.41 85.6999 274.07 81.8799 268.89 81.9799C263.71 82.0799 259.53 86.0799 259.07 91.1199C259.03 91.5999 259.42 91.9999 259.89 91.9899L278.28 91.6199Z" fill="url(#paint13_radial)"/>
<path d="M309.882 151.301C312.251 151.291 314.159 148.056 314.143 144.074C314.126 140.092 312.193 136.872 309.823 136.881C307.454 136.891 305.546 140.127 305.563 144.109C305.579 148.091 307.513 151.311 309.882 151.301Z" fill="#512BD4"/>
<path d="M309.73 140.28C308.19 141.88 308.24 144.42 309.84 145.95C310.93 147 312.47 147.31 313.82 146.89C314.03 146.03 314.15 145.07 314.15 144.08C314.14 142.13 313.67 140.36 312.92 139.07C311.76 138.97 310.59 139.38 309.73 140.28Z" fill="#8065E0"/>
<path d="M268.54 76.5C272.765 76.5 276.19 73.0749 276.19 68.8499C276.19 64.625 272.765 61.2 268.54 61.2C264.315 61.2 260.89 64.625 260.89 68.8499C260.89 73.0749 264.315 76.5 268.54 76.5Z" fill="#D8CFF7"/>
<path d="M336.25 178.98L343.52 172.4C345.44 170.63 345.43 167.7 343.5 165.85C341.57 164 338.44 163.92 336.52 165.69L329.07 172.43L336.25 178.98Z" fill="#8A6FE8"/>
<path d="M325.67 189.65L335.06 193.79C337.57 194.88 340.4 193.85 341.39 191.49C342.38 189.13 341.14 186.34 338.63 185.25L329.01 181L325.67 189.65Z" fill="#8A6FE8"/>
<path d="M334.95 184.12L345.05 182.32C347.74 181.82 349.5 179.39 349 176.88C348.49 174.38 345.9 172.75 343.22 173.25L332.87 175.1L334.95 184.12Z" fill="#8A6FE8"/>
<path d="M332.27 188.12L342.43 189.51C345.14 189.86 347.57 188.09 347.86 185.55C348.15 183.01 346.18 180.67 343.47 180.32L333.05 178.9L332.27 188.12Z" fill="#8A6FE8"/>
<path d="M331.75 187.48L331.04 177.24C319.66 177.59 309.47 177.52 301.34 174.2C285.14 167.57 281.46 146.85 280.78 141.07L268.49 142.28C272.58 158.21 278.31 192.17 331.75 187.48Z" fill="url(#paint14_linear)"/>
<path d="M275.07 154.55C280.632 154.55 285.14 150.041 285.14 144.48C285.14 138.918 280.632 134.41 275.07 134.41C269.509 134.41 265 138.918 265 144.48C265 150.041 269.509 154.55 275.07 154.55Z" fill="url(#paint15_radial)"/>
<path d="M324.71 172.45C329.71 170.05 335.97 172 338.71 176.81C341.45 181.62 339.61 187.47 334.62 189.87C329.62 192.27 323.36 190.32 320.62 185.51C317.88 180.7 319.72 174.85 324.71 172.45Z" fill="url(#paint16_radial)"/>
<defs>
<radialGradient id="paint0_radial" cx="0" cy="0" r="1" gradientUnits="userSpaceOnUse" gradientTransform="translate(335.526 165.051) rotate(169.845) scale(236.79 136.832)">
<stop offset="0.1821" stop-color="#E1EFF9"/>
<stop offset="0.9144" stop-color="#B8D6F7"/>
</radialGradient>
<linearGradient id="paint1_linear" x1="195.53" y1="192.85" x2="195.53" y2="208.89" gradientUnits="userSpaceOnUse">
<stop offset="0.7648" stop-color="#22B5D6"/>
<stop offset="1" stop-color="#1595B2"/>
</linearGradient>
<radialGradient id="paint2_radial" cx="0" cy="0" r="1" gradientUnits="userSpaceOnUse" gradientTransform="translate(161.244 151.908) rotate(180) scale(60.6453 64.0597)">
<stop stop-color="#22B5D6"/>
<stop offset="0.8095" stop-color="#1189A5"/>
</radialGradient>
<linearGradient id="paint3_linear" x1="282.827" y1="185.723" x2="290.768" y2="225.539" gradientUnits="userSpaceOnUse">
<stop stop-color="#522CD5"/>
<stop offset="0.4397" stop-color="#8A6FE8"/>
</linearGradient>
<linearGradient id="paint4_linear" x1="282.827" y1="185.723" x2="290.768" y2="225.539" gradientUnits="userSpaceOnUse">
<stop stop-color="#522CD5"/>
<stop offset="0.4397" stop-color="#8A6FE8"/>
</linearGradient>
<linearGradient id="paint5_linear" x1="289.744" y1="222.874" x2="312.236" y2="266.566" gradientUnits="userSpaceOnUse">
<stop stop-color="#522CD5"/>
<stop offset="0.4397" stop-color="#8A6FE8"/>
</linearGradient>
<radialGradient id="paint6_radial" cx="0" cy="0" r="1" gradientUnits="userSpaceOnUse" gradientTransform="translate(306.088 257.377) scale(8.93978)">
<stop offset="0.034" stop-color="#522CD5"/>
<stop offset="1" stop-color="#8A6FE8"/>
</radialGradient>
<linearGradient id="paint7_linear" x1="266.407" y1="185.723" x2="274.348" y2="225.538" gradientUnits="userSpaceOnUse">
<stop stop-color="#522CD5"/>
<stop offset="0.4397" stop-color="#8A6FE8"/>
</linearGradient>
<linearGradient id="paint8_linear" x1="266.407" y1="185.723" x2="274.348" y2="225.538" gradientUnits="userSpaceOnUse">
<stop stop-color="#522CD5"/>
<stop offset="0.4397" stop-color="#8A6FE8"/>
</linearGradient>
<linearGradient id="paint9_linear" x1="273.324" y1="222.874" x2="295.816" y2="266.566" gradientUnits="userSpaceOnUse">
<stop stop-color="#522CD5"/>
<stop offset="0.4397" stop-color="#8A6FE8"/>
</linearGradient>
<radialGradient id="paint10_radial" cx="0" cy="0" r="1" gradientUnits="userSpaceOnUse" gradientTransform="translate(289.666 257.377) scale(8.93981)">
<stop offset="0.034" stop-color="#522CD5"/>
<stop offset="1" stop-color="#8A6FE8"/>
</radialGradient>
<radialGradient id="paint11_radial" cx="0" cy="0" r="1" gradientUnits="userSpaceOnUse" gradientTransform="translate(270.025 113.259) rotate(-11.8999) scale(46.683)">
<stop offset="0.4744" stop-color="#A08BE8"/>
<stop offset="0.8618" stop-color="#8065E0"/>
</radialGradient>
<radialGradient id="paint12_radial" cx="0" cy="0" r="1" gradientUnits="userSpaceOnUse" gradientTransform="translate(308.093 140.331) rotate(-11.8999) scale(35.8637)">
<stop offset="0.2022" stop-color="#E1DFDD"/>
<stop offset="0.7337" stop-color="white"/>
</radialGradient>
<radialGradient id="paint13_radial" cx="0" cy="0" r="1" gradientUnits="userSpaceOnUse" gradientTransform="translate(268.38 87.8125) rotate(-11.8999) scale(8.07912)">
<stop stop-color="#8065E0"/>
<stop offset="0.8628" stop-color="#512BD4"/>
</radialGradient>
<linearGradient id="paint14_linear" x1="291.775" y1="127.984" x2="309.421" y2="198.18" gradientUnits="userSpaceOnUse">
<stop offset="0.3344" stop-color="#9780E6"/>
<stop offset="0.8488" stop-color="#8A6FE8"/>
</linearGradient>
<radialGradient id="paint15_radial" cx="0" cy="0" r="1" gradientUnits="userSpaceOnUse" gradientTransform="translate(275.729 140.246) rotate(4.36443) scale(14.9535)">
<stop stop-color="#8065E0"/>
<stop offset="0.8628" stop-color="#512BD4"/>
</radialGradient>
<radialGradient id="paint16_radial" cx="0" cy="0" r="1" gradientUnits="userSpaceOnUse" gradientTransform="translate(330.959 175.553) rotate(-163.374) scale(17.4784 16.3118)">
<stop stop-color="#8065E0"/>
<stop offset="0.8628" stop-color="#512BD4"/>
</radialGradient>
</defs>
</svg>
