<svg width="636" height="300" viewBox="0 0 636 300" fill="none" xmlns="http://www.w3.org/2000/svg">
<path d="M130.34 125.95C216.49 33.83 391.06 5.57999 464.5 69.87C571.53 163.57 466.95 285.41 381.07 261.82C332.65 248.52 255.75 245.68 197.21 257.86C131.01 271.64 76 184.06 130.34 125.95Z" fill="url(#paint0_linear)"/>
<path d="M496.76 108.79C501.74 150.88 474.94 173.6 421.06 176.01C360.3 178.73 309.72 215.88 294.29 250.33C326.39 251.26 357.19 255.27 381.06 261.82C455.39 282.23 543.72 193.72 496.76 108.79Z" fill="url(#paint1_radial)"/>
<path d="M261.17 250.48C285.77 217.58 314.44 179.81 335.25 154.23C348.71 137.68 332.59 112.19 307.29 135.31C264.67 174.26 221.16 222.49 189.88 258.96C192.3 258.72 194.75 258.37 197.21 257.85C217.02 253.73 238.95 251.33 261.17 250.48Z" fill="url(#paint2_linear)"/>
<path d="M291.9 179.74C293.59 179.16 322.45 169.12 334.29 155.4C346.37 141.4 339.34 125.21 339.2 124.9V124.89H339.19V124.88V124.89C338.86 124.8 321.82 120.22 309.74 134.22C297.9 147.95 292.2 177.97 291.87 179.72L291.82 179.78C291.82 179.78 291.85 179.77 291.86 179.77C291.86 179.78 291.85 179.81 291.85 179.81L291.9 179.74Z" fill="#F7B548"/>
<path d="M335.78 127.91C335.78 127.91 324.87 127.99 315.65 135.28C312.31 137.92 308.04 144.1 308.04 144.1L313.35 143.36C313.35 143.36 309.24 148.73 308.28 155.38C307.32 162.03 302.7 167.39 302.7 167.39C302.7 167.39 310.03 165.48 313.79 163.3C322.56 158.21 326.97 148.64 326.97 148.64C326.97 148.64 327.74 153.9 326.94 156.52C330.39 152.77 340.25 142.71 335.78 127.91Z" fill="#FFE5B9"/>
<path d="M380.27 112.04L380.53 138.72L352.73 166.39L349.31 163.44C349.31 163.44 357.82 146.31 352.14 131.73C347.77 120.54 380.27 112.04 380.27 112.04Z" fill="#B2B2B2"/>
<path d="M346.37 82.8L319.94 86.46L296.64 118.01L300.06 120.96C300.06 120.96 315.76 110.03 331.01 113.52C342.72 116.19 346.37 82.8 346.37 82.8Z" fill="#6D6A66"/>
<path d="M380.27 112.04L380.53 138.72L352.73 166.39L349.31 163.44C349.31 163.44 357.82 146.31 352.14 131.73C347.77 120.54 380.27 112.04 380.27 112.04Z" fill="#6D6A66"/>
<path d="M415.34 72.81C425.1 48.07 419.85 31.78 419.77 31.53V31.52H419.76V31.51V31.52C419.5 31.48 402.61 28.67 379.57 41.95C356.35 55.34 334.62 89.1 327.26 111.13C324.78 118.54 335.76 128.54 335.93 128.69C336.11 128.84 347.6 138.23 354.57 134.69C375.29 124.18 405.5 97.74 415.34 72.81Z" fill="#3E8EED"/>
<path d="M415.34 72.81C425.1 48.07 419.85 31.78 419.77 31.53V31.52H419.76V31.51V31.52C419.5 31.48 402.61 28.67 379.57 41.95C356.35 55.34 334.62 89.1 327.26 111.13C324.78 118.54 335.76 128.54 335.93 128.69C336.11 128.84 347.6 138.23 354.57 134.69C375.29 124.18 405.5 97.74 415.34 72.81Z" fill="white"/>
<path d="M417.39 67.02C417.69 66.08 417.99 65.14 418.25 64.24C418.4 63.7 418.53 63.19 418.67 62.66C418.88 61.85 419.1 61.04 419.28 60.25C419.4 59.71 419.51 59.2 419.62 58.68C419.78 57.94 419.93 57.19 420.06 56.48C420.15 55.97 420.23 55.47 420.31 54.97C420.42 54.27 420.53 53.58 420.62 52.91C420.68 52.43 420.74 51.97 420.79 51.51C420.86 50.85 420.93 50.21 420.99 49.58C421.03 49.15 421.06 48.72 421.09 48.3C421.13 47.68 421.16 47.08 421.19 46.49C421.21 46.1 421.22 45.72 421.23 45.34C421.24 44.75 421.25 44.19 421.24 43.64C421.24 43.31 421.24 42.97 421.23 42.65C421.22 42.09 421.2 41.56 421.17 41.04C421.16 40.77 421.15 40.48 421.13 40.22C421.1 39.68 421.05 39.18 421.01 38.69C420.99 38.49 420.98 38.26 420.96 38.07C420.9 37.52 420.84 37.01 420.77 36.53C420.76 36.43 420.74 36.31 420.73 36.21C420.57 35.06 420.39 34.11 420.23 33.37C420.2 33.22 420.17 33.11 420.14 32.98C420.1 32.79 420.05 32.6 420.01 32.45C419.97 32.29 419.94 32.17 419.9 32.05C419.89 32 419.87 31.94 419.86 31.9C406.42 77.05 384.48 112.35 346.57 134.72C349.35 135.62 352.21 135.92 354.57 134.72C375.28 124.2 405.49 97.76 415.33 72.83C415.92 71.34 416.45 69.88 416.93 68.45C417.11 67.95 417.24 67.5 417.39 67.02Z" fill="#B0D1F7"/>
<path d="M386.71 80.5901C392.647 80.5901 397.46 75.7771 397.46 69.8401C397.46 63.903 392.647 59.0901 386.71 59.0901C380.773 59.0901 375.96 63.903 375.96 69.8401C375.96 75.7771 380.773 80.5901 386.71 80.5901Z" fill="#F7B548"/>
<path d="M362.04 98.4401C362.04 98.4301 362.03 98.4301 362.03 98.4301L362.02 98.4201C359.77 96.6301 346.84 106.81 346.84 106.81L323.76 141.41L324.01 141.62L325.02 142.49L325.14 142.59L355.98 114.68C355.97 114.68 364.15 100.4 362.04 98.4401Z" fill="#6D6A66"/>
<path d="M428.63 212.02C443.95 212.02 456.37 199.6 456.37 184.28C456.37 168.96 443.95 156.54 428.63 156.54C413.31 156.54 400.89 168.96 400.89 184.28C400.89 199.6 413.31 212.02 428.63 212.02Z" fill="url(#paint3_linear)"/>
<path d="M380.18 224.16C380.18 224.16 387.92 228.78 393.17 237.6C395.53 230.67 406.16 224.16 406.16 224.16C406.16 224.16 397.1 219.54 393.17 210.72C388.71 219.27 380.18 224.16 380.18 224.16Z" fill="#9FE4EB"/>
<path d="M454.6 104.55C454.63 104.55 457.85 104.52 460.99 102.88C465.13 100.72 467.22 96.8901 467.22 91.4901C467.22 91.0901 467.53 90.7601 467.92 90.7601C468.31 90.7601 468.62 91.0901 468.62 91.4901C468.62 104.37 480.73 104.55 481.24 104.55C481.62 104.55 481.93 104.86 481.94 105.26C481.95 105.65 481.66 105.98 481.28 106.01C481.25 106.01 478.02 106.23 474.86 107.98C470.71 110.27 468.61 114 468.61 119.08C468.61 119.48 468.3 119.81 467.91 119.81C467.52 119.81 467.21 119.48 467.21 119.08C467.21 114.2 465.1 110.52 460.95 108.16C457.78 106.36 454.55 106.02 454.52 106.02C454.15 105.98 453.87 105.65 453.88 105.26C453.92 104.86 454.23 104.55 454.6 104.55Z" fill="#70D6E0"/>
<path d="M480.48 93.1401C481.11 93.1401 481.62 92.6118 481.62 91.9601C481.62 91.3084 481.11 90.7801 480.48 90.7801C479.85 90.7801 479.34 91.3084 479.34 91.9601C479.34 92.6118 479.85 93.1401 480.48 93.1401Z" fill="#70D6E0"/>
<path d="M477.61 96.1101C478.24 96.1101 478.75 95.5818 478.75 94.9301C478.75 94.2784 478.24 93.7501 477.61 93.7501C476.98 93.7501 476.47 94.2784 476.47 94.9301C476.47 95.5818 476.98 96.1101 477.61 96.1101Z" fill="#70D6E0"/>
<path d="M474.73 99.0901C475.36 99.0901 475.87 98.5618 475.87 97.9101C475.87 97.2584 475.36 96.7301 474.73 96.7301C474.1 96.7301 473.59 97.2584 473.59 97.9101C473.59 98.5618 474.1 99.0901 474.73 99.0901Z" fill="#70D6E0"/>
<path d="M460.87 113.43C461.5 113.43 462.01 112.902 462.01 112.25C462.01 111.598 461.5 111.07 460.87 111.07C460.24 111.07 459.73 111.598 459.73 112.25C459.73 112.902 460.24 113.43 460.87 113.43Z" fill="#70D6E0"/>
<path d="M458 116.4C458.63 116.4 459.14 115.872 459.14 115.22C459.14 114.568 458.63 114.04 458 114.04C457.37 114.04 456.86 114.568 456.86 115.22C456.86 115.872 457.37 116.4 458 116.4Z" fill="#70D6E0"/>
<path d="M455.12 119.38C455.75 119.38 456.26 118.852 456.26 118.2C456.26 117.548 455.75 117.02 455.12 117.02C454.49 117.02 453.98 117.548 453.98 118.2C453.98 118.852 454.49 119.38 455.12 119.38Z" fill="#70D6E0"/>
<path d="M480.48 119.38C481.11 119.38 481.62 118.852 481.62 118.2C481.62 117.548 481.11 117.02 480.48 117.02C479.85 117.02 479.34 117.548 479.34 118.2C479.34 118.852 479.85 119.38 480.48 119.38Z" fill="#70D6E0"/>
<path d="M477.61 116.4C478.24 116.4 478.75 115.872 478.75 115.22C478.75 114.568 478.24 114.04 477.61 114.04C476.98 114.04 476.47 114.568 476.47 115.22C476.47 115.872 476.98 116.4 477.61 116.4Z" fill="#70D6E0"/>
<path d="M474.73 113.43C475.36 113.43 475.87 112.902 475.87 112.25C475.87 111.598 475.36 111.07 474.73 111.07C474.1 111.07 473.59 111.598 473.59 112.25C473.59 112.902 474.1 113.43 474.73 113.43Z" fill="#70D6E0"/>
<path d="M460.87 99.0901C461.5 99.0901 462.01 98.5618 462.01 97.9101C462.01 97.2584 461.5 96.7301 460.87 96.7301C460.24 96.7301 459.73 97.2584 459.73 97.9101C459.73 98.5618 460.24 99.0901 460.87 99.0901Z" fill="#70D6E0"/>
<path d="M458 96.1101C458.63 96.1101 459.14 95.5818 459.14 94.9301C459.14 94.2784 458.63 93.7501 458 93.7501C457.37 93.7501 456.86 94.2784 456.86 94.9301C456.86 95.5818 457.37 96.1101 458 96.1101Z" fill="#70D6E0"/>
<path d="M455.12 93.1401C455.75 93.1401 456.26 92.6118 456.26 91.9601C456.26 91.3084 455.75 90.7801 455.12 90.7801C454.49 90.7801 453.98 91.3084 453.98 91.9601C453.98 92.6118 454.49 93.1401 455.12 93.1401Z" fill="#70D6E0"/>
<path d="M194.06 220.95C197.191 220.95 199.73 218.411 199.73 215.28C199.73 212.149 197.191 209.61 194.06 209.61C190.929 209.61 188.39 212.149 188.39 215.28C188.39 218.411 190.929 220.95 194.06 220.95Z" fill="#70D6E0"/>
<path d="M336.23 193.89C339.118 193.89 341.46 191.549 341.46 188.66C341.46 185.772 339.118 183.43 336.23 183.43C333.342 183.43 331 185.772 331 188.66C331 191.549 333.342 193.89 336.23 193.89Z" fill="#70D6E0"/>
<path d="M465.69 225.88C468.054 225.88 469.97 223.964 469.97 221.6C469.97 219.236 468.054 217.32 465.69 217.32C463.326 217.32 461.41 219.236 461.41 221.6C461.41 223.964 463.326 225.88 465.69 225.88Z" fill="#70D6E0"/>
<path d="M130.34 125.95C106.87 151.04 103.81 181.63 113.22 207.18C135.43 191.96 153.36 190.74 175.26 191.07C244.64 192.13 237.26 142.73 249.87 109.1C262.48 75.4701 289.87 68.1501 324.37 62.6301C339.32 60.2401 348.65 48.1501 354.44 35.0801C276.62 34.2701 185.41 67.0601 130.34 125.95Z" fill="url(#paint4_radial)"/>
<path d="M214.56 137.93C214.56 137.93 219.42 140.73 222.71 146.08C224.19 141.88 230.86 137.93 230.86 137.93C230.86 137.93 225.18 135.13 222.71 129.78C219.92 134.97 214.56 137.93 214.56 137.93Z" fill="#9FE4EB"/>
<path d="M137.82 172.46C139.985 172.46 141.74 170.705 141.74 168.54C141.74 166.375 139.985 164.62 137.82 164.62C135.655 164.62 133.9 166.375 133.9 168.54C133.9 170.705 135.655 172.46 137.82 172.46Z" fill="#70D6E0"/>
<path d="M306.22 61.6801C308.865 61.6801 311.01 59.5355 311.01 56.8901C311.01 54.2447 308.865 52.1001 306.22 52.1001C303.575 52.1001 301.43 54.2447 301.43 56.8901C301.43 59.5355 303.575 61.6801 306.22 61.6801Z" fill="#70D6E0"/>
<path d="M203.73 124.39C215.206 124.39 224.51 115.086 224.51 103.61C224.51 92.1335 215.206 82.83 203.73 82.83C192.254 82.83 182.95 92.1335 182.95 103.61C182.95 115.086 192.254 124.39 203.73 124.39Z" fill="url(#paint5_linear)"/>
<path d="M419.32 132.39C421.363 132.39 423.02 130.734 423.02 128.69C423.02 126.647 421.363 124.99 419.32 124.99C417.277 124.99 415.62 126.647 415.62 128.69C415.62 130.734 417.277 132.39 419.32 132.39Z" fill="#CFF1F5"/>
<path d="M269.17 130.92C271.213 130.92 272.87 129.263 272.87 127.22C272.87 125.177 271.213 123.52 269.17 123.52C267.127 123.52 265.47 125.177 265.47 127.22C265.47 129.263 267.127 130.92 269.17 130.92Z" fill="#CFF1F5"/>
<path d="M156.77 178.71C158.3 178.71 159.54 177.47 159.54 175.94C159.54 174.41 158.3 173.17 156.77 173.17C155.24 173.17 154 174.41 154 175.94C154 177.47 155.24 178.71 156.77 178.71Z" fill="#CFF1F5"/>
<path d="M167.59 127.72C171.29 127.72 174.29 124.72 174.29 121.02C174.29 117.32 171.29 114.32 167.59 114.32C163.89 114.32 160.89 117.32 160.89 121.02C160.89 124.72 163.89 127.72 167.59 127.72Z" fill="#CFF1F5"/>
<path d="M401.66 52.89C407.07 57.56 412.97 60.88 418.65 62.77C423.7 43.76 419.84 31.74 419.77 31.52V31.51H419.76V31.5V31.51C419.54 31.47 407.17 29.43 389.19 37.12C391.88 42.61 396.11 48.11 401.66 52.89Z" fill="#DDDBDA"/>
<path d="M410.14 58.92C412.97 60.55 415.84 61.84 418.65 62.77C423.24 45.49 420.47 34 419.87 31.88C417.58 41.54 414.25 50.54 410.14 58.92Z" fill="#908D89"/>
<defs>
<linearGradient id="paint0_linear" x1="309.083" y1="35.058" x2="309.083" y2="264.783" gradientUnits="userSpaceOnUse">
<stop offset="0.1499" stop-color="#138FAB"/>
<stop offset="0.6542" stop-color="#28C2D1"/>
<stop offset="1" stop-color="#28C2D1"/>
</linearGradient>
<radialGradient id="paint1_radial" cx="0" cy="0" r="1" gradientUnits="userSpaceOnUse" gradientTransform="translate(391.461 130.484) scale(173.292)">
<stop stop-color="#88DDE5"/>
<stop offset="1" stop-color="#28C2D1"/>
</radialGradient>
<linearGradient id="paint2_linear" x1="189.873" y1="192.51" x2="340.11" y2="192.51" gradientUnits="userSpaceOnUse">
<stop offset="0.0208" stop-color="#70D6E0" stop-opacity="0"/>
<stop offset="1" stop-color="#88DDE5"/>
</linearGradient>
<linearGradient id="paint3_linear" x1="400.891" y1="184.283" x2="456.375" y2="184.283" gradientUnits="userSpaceOnUse">
<stop offset="0.0208" stop-color="#88DDE5" stop-opacity="0.3"/>
<stop offset="1" stop-color="#88DDE5"/>
</linearGradient>
<radialGradient id="paint4_radial" cx="0" cy="0" r="1" gradientUnits="userSpaceOnUse" gradientTransform="translate(277.704 225.167) scale(176.223)">
<stop stop-color="#88DDE5"/>
<stop offset="1" stop-color="#28C2D1"/>
</radialGradient>
<linearGradient id="paint5_linear" x1="182.956" y1="103.607" x2="224.507" y2="103.607" gradientUnits="userSpaceOnUse">
<stop offset="0.0208" stop-color="#88DDE5" stop-opacity="0.3"/>
<stop offset="1" stop-color="#88DDE5"/>
</linearGradient>
</defs>
</svg>
