<svg width="636" height="300" viewBox="0 0 636 300" fill="none" xmlns="http://www.w3.org/2000/svg">
<path d="M457.27 123.76V46.2001C457.27 44.4301 456.18 42.9001 454.82 42.7801L361.38 34.6501C359.8 34.5101 358.52 35.9601 358.52 37.8801V121.97L457.27 123.76Z" fill="#B3AFAB"/>
<path d="M459.27 123.76V46.2001C459.27 44.4301 458.18 42.9001 456.82 42.7801L363.38 34.6501C361.8 34.5101 360.52 35.9601 360.52 37.8801V121.97L459.27 123.76Z" fill="#6D6A66"/>
<path d="M375.45 113.58L366.4 113.36V42.04L375.45 42.78V113.58Z" fill="#908D89"/>
<path d="M454.78 115.57L375.45 113.58V42.78L454.78 49.23V115.57Z" fill="#29C3E5"/>
<path d="M372.88 55.9701L368.35 55.6501V50.1101L372.88 50.4501V55.9701Z" fill="#F7B548"/>
<path d="M372.88 63.8501L368.35 63.5601V58.0201L372.88 58.3301V63.8501Z" fill="#F7B548"/>
<path d="M372.88 70.9501L368.35 70.6801V65.1401L372.88 65.4301V70.9501Z" fill="#F7B548"/>
<path d="M372.88 78.8301L368.35 78.5901V73.0601L372.88 73.3101V78.8301Z" fill="#F7B548"/>
<path d="M372.88 85.9301L368.35 85.7101V80.1801L372.88 80.4101V85.9301Z" fill="#F7B548"/>
<path d="M372.88 93.8101L368.35 93.6301V88.0901L372.88 88.2901V93.8101Z" fill="#F7B548"/>
<path d="M428.14 71L403.91 69.73C398.67 69.46 394.41 65.24 394.41 60.3C394.42 55.36 398.7 51.63 403.94 51.96L428.2 53.49C433.26 53.81 437.33 57.97 437.3 62.78C437.3 67.58 433.2 71.26 428.14 71Z" fill="white"/>
<path d="M411.26 65.63L402.6 61.56V60.73L411.28 57.17V58.43L404.23 61.17L411.27 64.35L411.26 65.63Z" fill="#F7B548"/>
<path d="M418.77 55.76L413.87 67.81L412.38 67.73L417.28 55.66L418.77 55.76Z" fill="#F7B548"/>
<path d="M419.85 64.8301L426.78 62.4801L419.87 58.9401V57.6801L428.35 62.2001V63.0201L419.85 66.09V64.8301Z" fill="#F7B548"/>
<path d="M432.78 77.84L389.15 75.73V73.81L432.79 75.97L432.78 77.84Z" fill="white"/>
<path d="M385.1 75.54L382.85 75.43V73.5L385.1 73.61V75.54Z" fill="white"/>
<path d="M446.4 84.07L394.9 81.75V79.84L446.41 82.21L446.4 84.07Z" fill="white"/>
<path d="M385.1 81.31L382.85 81.21V79.28L385.1 79.39V81.31Z" fill="white"/>
<path d="M423.11 88.66L402.16 87.79V85.89L423.11 86.78V88.66Z" fill="white"/>
<path d="M385.1 87.08L382.85 86.99V85.06L385.1 85.16V87.08Z" fill="white"/>
<path d="M445.6 95.16L394.88 93.22L394.89 91.31L445.61 93.31L445.6 95.16Z" fill="white"/>
<path d="M385.1 92.85L382.85 92.76V90.84L385.1 90.93V92.85Z" fill="white"/>
<path d="M420.57 99.84L402.14 99.2V97.3L420.58 97.96L420.57 99.84Z" fill="white"/>
<path d="M385.1 98.61L382.85 98.53V96.61L385.1 96.69V98.61Z" fill="white"/>
<path d="M429.72 105.76L409.88 105.14L409.89 103.25L429.73 103.9L429.72 105.76Z" fill="white"/>
<path d="M385.1 104.36L382.85 104.29V102.37L385.1 102.44V104.36Z" fill="white"/>
<path d="M268.9 153.81V49.04C268.9 46.66 267.19 44.6 265.08 44.45L114.74 33.37C112.13 33.18 110.01 35.18 110.01 37.84C110.01 37.84 110.01 144.73 110.01 147.18C110.01 149.62 112 150.85 112 150.85L268.9 153.81Z" fill="#B3AFAB"/>
<path d="M195.09 45.5801L192.58 45.4001V42.7001L195.09 42.8801V45.5801Z" fill="#848484"/>
<path fill-rule="evenodd" clip-rule="evenodd" d="M118.41 135.33C118.41 136.61 119.52 137.76 120.77 137.76L260.09 138.43C261.2 138.44 262.09 137.43 262.09 136.19V55.9C262.09 54.66 261.19 53.59 260.09 53.52L120.99 44.23C119.57 44.14 118.42 45.24 118.42 46.69V134.92" fill="#848484"/>
<path d="M270.9 153.81V49.04C270.9 46.66 269.19 44.6 267.08 44.45L116.74 33.37C114.13 33.18 112.01 35.18 112.01 37.84V152.44L270.9 153.81Z" fill="#625F5B"/>
<path d="M197.09 45.5801L194.58 45.4001V42.7001L197.09 42.8801V45.5801Z" fill="#B3AFAB"/>
<path fill-rule="evenodd" clip-rule="evenodd" d="M120.41 135.33C120.41 136.61 121.52 137.76 122.77 137.76L262.09 138.43C263.2 138.44 264.09 137.43 264.09 136.19V55.9C264.09 54.66 263.19 53.59 262.09 53.52L122.99 44.23C121.57 44.14 120.42 45.24 120.42 46.69V134.92" fill="#F7B548"/>
<path d="M112 150.93V153.03C112 153.76 112.52 154.37 113.24 154.5L179.77 165.88C181.57 166.18 185.16 166.47 187.01 166.44L346.79 164.28L346.6 160.72L130.43 151.47L112 150.93Z" fill="#9C9894"/>
<path d="M112 150.67L181.14 161.65C183.66 162.05 186.25 162.23 188.83 162.21L347.35 160.64L270.28 150.18L112 150.67Z" fill="#CCCAC7"/>
<path d="M184.16 86.94L167.04 78.38V76.63L184.16 69.36V71.98L170.26 77.57L184.16 84.28V86.94Z" fill="white"/>
<path d="M198.7 66.6L189.27 91.49L186.37 91.32L195.84 66.37L198.7 66.6Z" fill="white"/>
<path d="M200.84 85.33L214.09 80.56L200.84 73.19V70.6L217.07 80.02V81.7L200.84 87.95V85.33Z" fill="white"/>
<path d="M230.96 105.82L155.25 102.25C154.27 102.2 153.47 101.39 153.47 100.43C153.47 99.47 154.27 98.73 155.25 98.78L230.96 102.56C231.83 102.6 232.53 103.37 232.53 104.27C232.53 105.16 231.83 105.86 230.96 105.82Z" fill="white"/>
<path d="M230.96 113.98L155.25 110.92C154.27 110.88 153.47 110.07 153.47 109.11C153.47 108.15 154.27 107.41 155.25 107.45L230.96 110.71C231.83 110.75 232.53 111.51 232.53 112.41C232.53 113.31 231.83 114.01 230.96 113.98Z" fill="white"/>
<path d="M230.96 122.14L155.25 119.6C154.27 119.57 153.47 118.76 153.47 117.8C153.47 116.84 154.27 116.09 155.25 116.13L230.96 118.88C231.83 118.91 232.53 119.67 232.53 120.57C232.53 121.46 231.83 122.17 230.96 122.14Z" fill="white"/>
<path d="M360.53 121.83V123.13C360.53 123.58 360.84 123.96 361.26 124.04L405.75 133.13C406.81 133.32 408.91 133.49 410 133.48L503.37 134.2C503.58 134.2 503.75 134.08 503.75 133.94V131.41C503.75 131.25 503.58 131.12 503.35 131.11L376.59 123.85L360.53 121.83Z" fill="#9C9894"/>
<path d="M360.69 121.87L406.37 130.16C407.85 130.41 409.37 130.52 410.89 130.51L503.46 131.12L459.19 123.67L360.69 121.87Z" fill="#CCCAC7"/>
<path d="M400.78 102.22L229.77 96.2601C225.75 96.1201 222.47 99.6101 222.47 104.05V229.04V230.53V245.05C222.47 248.85 225.28 251.73 228.73 251.46L400.8 240.03C403.44 239.83 405.57 236.99 405.57 233.68V221.06L406.35 109.41C406.35 105.54 403.86 102.32 400.78 102.22Z" fill="#B3AFAB"/>
<path d="M297.97 241.47L293.97 263.41C293.59 268.13 297.16 272.32 301.75 273.54L313.95 278.5C318.86 279.98 323.46 280.19 327.61 279.69L366.62 275.35C370.55 275.18 370.27 271.51 365.1 271.04L340.7 268.21C336.86 267.78 333.24 264.74 333.96 260.68L337.96 237.46L297.97 241.47Z" fill="#BBB8B4"/>
<path d="M408.13 221.05L408.91 109.4C408.91 105.54 406.42 102.32 403.34 102.22L232.33 96.2601C228.31 96.1201 225.03 99.6101 225.03 104.05V230.53C225.03 231.17 225.5 231.65 226.08 231.62L407.34 222.11C407.78 222.07 408.13 221.61 408.13 221.05Z" fill="#625F5B"/>
<path d="M225.02 229.03V245.05C225.02 248.86 227.83 251.73 231.28 251.46L403.35 240.03C405.99 239.83 408.12 236.99 408.12 233.68V219.76L225.02 229.03Z" fill="#DDDBDA"/>
<path d="M325.83 232.41C325.83 234.44 324.43 236.19 322.7 236.31C320.97 236.43 319.56 234.87 319.56 232.83C319.56 230.79 320.97 229.04 322.7 228.93C324.43 228.82 325.83 230.38 325.83 232.41Z" fill="#C8C6C4"/>
<path d="M400.43 213.28L234.14 220.61V107.7L401.21 112.16L400.43 213.28Z" fill="#8DBCF4"/>
<path d="M401.21 111.39L234.14 106.83V111.2L401.21 115.24V111.39Z" fill="#C7E0F4"/>
<path d="M369.41 205.27L271.65 208.96C270.84 209 270.18 209.78 270.18 210.7V218.41L370.68 213.9V206.76C370.68 205.91 370.11 205.24 369.41 205.27Z" fill="#3085E9"/>
<path d="M299.46 215.03L296.19 215.2C295.81 215.22 295.51 214.88 295.51 214.45V210.66C295.51 210.23 295.81 209.86 296.19 209.84L299.46 209.68C299.83 209.66 300.14 210 300.14 210.43V214.2C300.14 214.65 299.84 215.01 299.46 215.03Z" fill="#8DBCF4"/>
<path d="M290.5 212.92C290.5 214.49 289.39 215.83 288.01 215.9C286.63 215.97 285.51 214.75 285.51 213.17C285.51 211.59 286.63 210.25 288.01 210.19C289.39 210.12 290.5 211.34 290.5 212.92Z" fill="#8DBCF4"/>
<path d="M310.13 211.79C310.13 213.34 309.05 214.66 307.72 214.73C306.38 214.8 305.3 213.59 305.3 212.04C305.3 210.48 306.39 209.17 307.72 209.1C309.05 209.04 310.13 210.24 310.13 211.79Z" fill="#8DBCF4"/>
<path d="M320.04 211.43C320.04 212.97 318.98 214.27 317.66 214.34C316.34 214.41 315.27 213.21 315.27 211.67C315.27 210.13 316.34 208.82 317.66 208.76C318.98 208.7 320.04 209.89 320.04 211.43Z" fill="#8DBCF4"/>
<path d="M328.72 213.95L325.59 214.11C325.23 214.13 324.94 213.8 324.94 213.38V209.68C324.94 209.26 325.23 208.9 325.59 208.88L328.72 208.73C329.08 208.71 329.37 209.04 329.37 209.46V213.15C329.36 213.58 329.07 213.93 328.72 213.95Z" fill="#8DBCF4"/>
<path d="M346.96 213.1L343.92 213.26C343.57 213.28 343.29 212.95 343.29 212.54V208.89C343.29 208.47 343.57 208.12 343.92 208.1L346.96 207.95C347.31 207.93 347.59 208.26 347.59 208.67V212.31C347.59 212.73 347.31 213.08 346.96 213.1Z" fill="#8DBCF4"/>
<path d="M280.29 215.9L275.52 216.15V210.72L280.29 210.48V215.9Z" fill="#8DBCF4"/>
<path d="M365.71 211.93L362.75 212.08C362.41 212.1 362.14 211.78 362.14 211.37V207.77C362.14 207.36 362.41 207.01 362.75 207L365.71 206.86C366.05 206.84 366.32 207.16 366.32 207.57V211.16C366.32 211.56 366.04 211.91 365.71 211.93Z" fill="#8DBCF4"/>
<path d="M338.46 210.66C338.46 212.18 337.43 213.46 336.15 213.53C334.87 213.6 333.83 212.42 333.83 210.89C333.83 209.37 334.87 208.08 336.15 208.02C337.42 207.96 338.46 209.14 338.46 210.66Z" fill="#8DBCF4"/>
<path d="M357.19 210.01C357.19 211.51 356.19 212.77 354.94 212.84C353.7 212.91 352.69 211.74 352.69 210.24C352.69 208.74 353.7 207.47 354.94 207.41C356.19 207.35 357.19 208.51 357.19 210.01Z" fill="#8DBCF4"/>
<path d="M351.81 131.82L246.73 128.71C245.5 128.67 244.5 127.75 244.5 126.64C244.5 125.53 245.5 124.67 246.73 124.71L351.81 128.12C352.86 128.15 353.71 129.01 353.71 130.02C353.71 131.05 352.86 131.85 351.81 131.82Z" fill="white"/>
<path d="M337.02 140.45L258.82 138.68C257.61 138.65 256.63 137.74 256.63 136.65C256.63 135.56 257.61 134.69 258.82 134.72L337.02 136.71C338.1 136.74 338.97 137.59 338.97 138.62C338.97 139.65 338.09 140.47 337.02 140.45Z" fill="white"/>
<path d="M371.45 150.06L269.69 148.47C268.5 148.45 267.53 147.56 267.53 146.47C267.53 145.38 268.5 144.52 269.69 144.54L371.45 146.43C372.47 146.45 373.29 147.28 373.29 148.28C373.29 149.27 372.47 150.07 371.45 150.06Z" fill="white"/>
<path d="M326.6 158.49L282.5 158.11C281.33 158.1 280.38 157.22 280.38 156.14C280.38 155.06 281.33 154.2 282.5 154.22L326.6 154.73C327.69 154.74 328.58 155.59 328.58 156.63C328.58 157.67 327.69 158.5 326.6 158.49Z" fill="white"/>
<path d="M363.45 167.7L260.35 167.53C259.14 167.53 258.16 166.64 258.16 165.55C258.16 164.46 259.14 163.57 260.35 163.58L363.45 164.05C364.48 164.05 365.32 164.88 365.32 165.88C365.32 166.88 364.48 167.7 363.45 167.7Z" fill="white"/>
<path d="M319.37 176.82L272.19 177.07C271 177.08 270.04 176.2 270.04 175.12C270.04 174.04 271 173.15 272.19 173.15L319.37 173.04C320.48 173.04 321.37 173.88 321.37 174.92C321.37 175.96 320.48 176.81 319.37 176.82Z" fill="white"/>
<path d="M331.01 185.86L282.31 186.46C281.14 186.47 280.19 185.61 280.19 184.54C280.19 183.46 281.14 182.58 282.31 182.57L331.01 182.11C332.1 182.1 332.97 182.93 332.97 183.96C332.97 184.99 332.09 185.85 331.01 185.86Z" fill="white"/>
<path d="M285.84 129.86L266.16 129.28C264.96 129.24 263.99 128.33 263.99 127.24C263.99 126.15 264.96 125.3 266.16 125.34L285.84 125.98C287 126.02 287.94 126.92 287.94 127.99C287.94 129.06 287.01 129.9 285.84 129.86Z" fill="#FCCF84"/>
<path d="M315.17 139.95L283.79 139.24C282.62 139.21 281.67 138.32 281.67 137.25C281.67 136.17 282.62 135.33 283.79 135.36L315.17 136.16C316.28 136.19 317.18 137.06 317.18 138.11C317.18 139.16 316.28 139.98 315.17 139.95Z" fill="#FCCF84"/>
<path d="M325.77 149.34L305.25 149.02C304.12 149 303.2 148.13 303.2 147.07C303.2 146.01 304.12 145.17 305.25 145.19L325.77 145.57C326.86 145.59 327.75 146.45 327.75 147.49C327.75 148.53 326.86 149.36 325.77 149.34Z" fill="#FCCF84"/>
<path d="M304.96 167.6L283.48 167.56C282.31 167.56 281.36 166.68 281.36 165.61C281.36 164.53 282.31 163.67 283.48 163.67L304.96 163.77C306.09 163.78 307 164.63 307 165.69C307.01 166.75 306.09 167.6 304.96 167.6Z" fill="#FCCF84"/>
<path d="M304.54 130.42L285.41 129.85C284.25 129.82 283.3 128.92 283.3 127.84C283.3 126.76 284.25 125.93 285.41 125.96L304.54 126.58C305.67 126.62 306.59 127.5 306.59 128.56C306.59 129.62 305.67 130.45 304.54 130.42Z" fill="#549BEF"/>
<path d="M323.14 167.63L302.25 167.59C301.11 167.59 300.19 166.73 300.19 165.67C300.19 164.61 301.11 163.75 302.25 163.76L323.14 163.86C324.24 163.87 325.13 164.71 325.13 165.75C325.13 166.79 324.23 167.63 323.14 167.63Z" fill="#549BEF"/>
<path d="M320.49 185.99L307.25 186.15C306.12 186.16 305.21 185.32 305.21 184.26C305.21 183.2 306.13 182.34 307.25 182.33L320.49 182.21C321.59 182.2 322.49 183.04 322.49 184.08C322.49 185.12 321.59 185.98 320.49 185.99Z" fill="#FCCF84"/>
<path d="M323 195.13L300 195.57C298.86 195.59 297.93 194.75 297.93 193.69C297.93 192.63 298.86 191.75 300 191.73L323 191.35C324.1 191.33 324.99 192.16 324.99 193.2C324.98 194.25 324.1 195.11 323 195.13Z" fill="white"/>
<path d="M391.99 189.1L336.01 189.97V158.84L391.99 159.32V189.1Z" fill="#3085E9"/>
<path d="M358.67 181.47L344.68 175.62V174.23L358.67 167.47V169.56L347.31 174.81L358.67 179.37V181.47Z" fill="white"/>
<path d="M370.61 164.42L362.86 184.82L360.48 184.85L368.26 164.41L370.61 164.42Z" fill="white"/>
<path d="M372.37 179.26L383.31 174.7L372.37 169.57V167.5L385.77 174.1V175.45L372.37 181.36V179.26Z" fill="white"/>
<path d="M515.64 184.2L480.12 184.83C477.65 184.81 475.66 182.77 475.66 180.26V102.41C475.66 99.82 477.78 97.74 480.33 97.85L515.85 99.31C518.26 99.41 520.16 101.42 520.16 103.87V179.63C520.16 182.17 518.13 184.22 515.64 184.2Z" fill="#605D5A"/>
<path d="M517.64 184.2L482.12 184.83C479.65 184.81 477.66 182.77 477.66 180.26V102.41C477.66 99.82 479.78 97.74 482.33 97.85L517.85 99.31C520.26 99.41 522.16 101.42 522.16 103.87V179.63C522.16 182.17 520.13 184.22 517.64 184.2Z" fill="#605D5A"/>
<path d="M516.81 181.08L482.97 181.73C481.64 181.72 480.56 180.62 480.56 179.26V103.3C480.56 101.9 481.71 100.78 483.09 100.83L516.93 102.22C518.23 102.27 519.26 103.36 519.26 104.69V178.61C519.26 179.98 518.16 181.08 516.81 181.08Z" fill="#3E8EED"/>
<path d="M489.33 136.32C492.561 136.32 495.18 133.701 495.18 130.47C495.18 127.239 492.561 124.62 489.33 124.62C486.099 124.62 483.48 127.239 483.48 130.47C483.48 133.701 486.099 136.32 489.33 136.32Z" fill="#AACDF6"/>
<path d="M514.98 142.44C514.98 142.44 514.97 142.44 514.98 142.44L485.43 142.23C484.82 142.23 484.33 141.73 484.33 141.12C484.33 140.51 484.83 140.02 485.43 140.02H485.44L514.98 140.23C515.59 140.23 516.08 140.73 516.08 141.34C516.08 141.95 515.58 142.44 514.98 142.44Z" fill="#AACDF6"/>
<path d="M514.87 149.01L485.42 148.86C484.81 148.86 484.32 148.36 484.32 147.75C484.32 147.14 484.82 146.65 485.42 146.65C485.42 146.65 485.42 146.65 485.43 146.65L514.87 146.8C515.48 146.8 515.97 147.3 515.97 147.91C515.97 148.52 515.48 149.01 514.87 149.01Z" fill="#AACDF6"/>
<path d="M485.43 155.47C484.82 155.47 484.33 154.98 484.33 154.37C484.33 153.76 484.82 153.27 485.43 153.26L510.97 153.16C511.58 153.16 512.07 153.65 512.07 154.26C512.07 154.87 511.58 155.36 510.97 155.37L485.43 155.47C485.44 155.47 485.44 155.47 485.43 155.47Z" fill="#AACDF6"/>
<path d="M519.26 120.32V104.69C519.26 103.37 518.23 102.28 516.93 102.22L483.09 100.83C481.71 100.77 480.56 101.89 480.56 103.3V119.86L519.26 120.32Z" fill="#C5D43B"/>
<path d="M519.26 110.09V104.69C519.26 103.37 518.23 102.28 516.93 102.22L483.09 100.83C481.71 100.77 480.56 101.89 480.56 103.3V108.69L519.26 110.09Z" fill="white"/>
</svg>
