<svg width="636" height="300" viewBox="0 0 636 300" fill="none" xmlns="http://www.w3.org/2000/svg">
<path d="M140.55 157.73C140.55 157.55 140.49 157.37 140.49 157.2C138.18 119.74 165.85 90.65 202.29 92.2C214.22 92.72 225.56 96.5 235.54 102.59C243.46 65.65 275.11 39.7 314.7 41.4C353.43 43.07 387.87 70.74 401.08 107.32C407.31 103.64 414.69 101.65 422.73 102C446.6 103.03 467.21 123.8 468.71 148.34C468.82 150.36 468.76 152.34 468.6 154.28C505 170.9 531.16 206.59 531.77 252.56C531.79 254.11 531.76 255.65 531.72 257.19C314.2 238 174.8 226.03 100.89 221.66C99.4399 218.27 96.0199 208.67 95.8099 204.8C94.1199 177.67 114.18 156.61 140.55 157.73Z" fill="url(#paint0_radial)"/>
<path d="M324.45 160.44C323.21 160.79 321.97 161.22 320.75 161.74C319.09 162.45 317.54 163.3 316.11 164.26L318.3 169.93C316.86 171.04 315.59 172.31 314.51 173.69L308.01 172.62C306.4 175.22 305.26 178.06 304.64 181.01L310.28 183.89C310.05 185.87 310.12 187.89 310.52 189.9C309.06 190.76 306.61 192.15 305.05 193.02C305.38 194.17 305.78 195.32 306.29 196.45C306.98 198.01 307.82 199.46 308.77 200.81L314.81 198.84C316.03 200.3 317.44 201.58 319 202.64L317.62 208.74C320.36 210.27 323.37 211.34 326.51 211.91L329.91 206.43C331.69 206.56 333.51 206.48 335.32 206.18L338.63 211.52C339.95 211.19 341.27 210.77 342.57 210.25C344.35 209.54 346.01 208.67 347.54 207.67L345.22 201.93C346.74 200.78 348.07 199.46 349.2 198L355.66 199.53C357.45 196.75 358.7 193.69 359.35 190.5C357.47 189.7 354.84 188.58 353.37 187.91C353.59 186.07 353.55 184.19 353.23 182.33L359.05 179.26C358.69 177.85 358.2 176.46 357.58 175.09C356.81 173.4 355.88 171.83 354.81 170.38L348.76 172.79C347.44 171.24 345.9 169.9 344.21 168.8L345.98 162.78C343.27 161.32 340.32 160.3 337.25 159.78L334.34 165.37C332.17 165.15 329.95 165.25 327.75 165.68L324.45 160.44ZM342.99 181.18C345.67 187.12 342.73 194.04 336.44 196.62C330.19 199.18 323.02 196.47 320.38 190.59C317.75 184.72 320.62 177.86 326.82 175.24C333.06 172.6 340.31 175.25 342.99 181.18Z" fill="#8DBCF4"/>
<path d="M189.54 143.86C188.16 144.28 186.8 144.8 185.45 145.44C183.62 146.3 181.91 147.33 180.33 148.5L182.82 155.36C181.24 156.7 179.84 158.23 178.66 159.9L171.45 158.6C169.7 161.74 168.47 165.17 167.81 168.73L174.08 172.22C173.85 174.61 173.95 177.06 174.4 179.49C172.79 180.53 170.1 182.19 168.38 183.24C168.75 184.63 169.21 186.02 169.78 187.39C170.56 189.27 171.5 191.03 172.57 192.67L179.24 190.32C180.61 192.09 182.19 193.64 183.92 194.94L182.45 202.31C185.5 204.17 188.85 205.49 192.34 206.19L196.06 199.57C198.04 199.74 200.06 199.65 202.07 199.29L205.81 205.78C207.28 205.39 208.74 204.89 210.18 204.26C212.15 203.4 213.99 202.36 215.69 201.16L213.05 194.19C214.73 192.8 216.21 191.2 217.45 189.44L224.68 191.32C226.65 187.96 228.02 184.24 228.71 180.36C226.61 179.39 223.65 178.01 222.01 177.2C222.23 174.97 222.17 172.69 221.8 170.42L228.27 166.7C227.85 164.99 227.29 163.29 226.58 161.63C225.7 159.58 224.65 157.67 223.44 155.91L216.71 158.83C215.22 156.94 213.49 155.32 211.59 153.98L213.5 146.67C210.47 144.9 207.17 143.67 203.75 143.03L200.57 149.81C198.16 149.55 195.69 149.66 193.25 150.19L189.54 143.86ZM210.37 169.01C213.42 176.22 210.21 184.61 203.24 187.71C196.32 190.79 188.33 187.48 185.35 180.35C182.38 173.24 185.49 164.94 192.34 161.78C199.23 158.59 207.32 161.81 210.37 169.01Z" fill="white"/>
<path d="M393.84 167.44L245.8 165.04C244.19 165.05 242.88 163.79 242.86 162.23L241.89 68.2801C241.87 66.7101 243.17 65.3601 244.78 65.2801L393.46 57.2701C395.32 57.1701 396.83 58.4601 396.84 60.1501L397.18 164.39C397.19 166.06 395.69 167.43 393.84 167.44Z" fill="#625F5B"/>
<path d="M384.31 158.79L254.07 157.87C253.56 157.87 253.14 157.48 253.13 156.98L252.3 72.97C252.3 72.47 252.71 72.04 253.22 72.02L383.94 65.43C384.52 65.4 385 65.81 385 66.34L385.35 157.82C385.36 158.35 384.89 158.78 384.31 158.79Z" fill="#A08BE8"/>
<path d="M385.05 78.32L385 66.7901C385 66.0101 384.36 65.42 383.57 65.46L253.55 72.0001C252.86 72.0301 252.3 72.65 252.31 73.38L252.42 84.21L385.05 78.32Z" fill="#D6CDF5"/>
<path d="M370.21 105L264.82 108.41L264.69 93.69L370.14 89.52L370.21 105Z" stroke="#D6CDF5" stroke-width="2" stroke-miterlimit="10"/>
<path d="M318.3 145.86L264.41 145.67L264.23 115.53L318.19 114.13L318.3 145.86Z" fill="#7354DD"/>
<path d="M428.99 239.5L378.42 236.35C377.16 236.31 376.14 235.25 376.14 233.99L375.9 138.15C375.9 136.88 376.92 135.83 378.18 135.81L428.26 135.69C429.59 135.67 430.67 136.71 430.67 138.02L431.38 237.24C431.39 238.53 430.32 239.55 428.99 239.5Z" fill="white"/>
<path d="M425.75 229.39L380.65 226.5C380.15 226.49 379.75 226.07 379.75 225.57L379.57 146.7C379.57 146.2 379.97 145.79 380.47 145.78L425.02 146.1C425.54 146.09 425.97 146.51 425.97 147.02L426.7 228.49C426.69 229.01 426.27 229.41 425.75 229.39Z" fill="#A08BE8"/>
<path d="M191.08 244.83L153.55 241.47C152.46 241.46 151.57 240.56 151.55 239.45L150.32 158C150.3 156.88 151.17 155.94 152.26 155.9L190.08 156.52C191.21 156.48 192.15 157.37 192.16 158.51L193.09 242.79C193.11 243.92 192.21 244.84 191.08 244.83Z" fill="#625F5B"/>
<path d="M188.82 234.7L155.02 231.92C154.59 231.92 154.24 231.56 154.23 231.13L153.23 165.19C153.22 164.75 153.57 164.38 154 164.37L188.14 165.14C188.59 165.13 188.95 165.48 188.96 165.93L189.61 233.91C189.62 234.34 189.26 234.7 188.82 234.7Z" fill="#A08BE8"/>
<path d="M218.23 109.1C217.5 109.33 216.78 109.61 216.07 109.96C215.1 110.43 214.2 110.98 213.36 111.6L214.67 115.15C213.83 115.87 213.09 116.68 212.46 117.56L208.63 116.96C207.69 118.62 207.03 120.42 206.68 122.29L210.02 124.03C209.89 125.28 209.94 126.56 210.18 127.82C209.32 128.39 207.89 129.29 206.97 129.86C207.17 130.58 207.41 131.3 207.71 132.01C208.12 132.98 208.62 133.89 209.19 134.73L212.74 133.4C213.46 134.3 214.3 135.09 215.22 135.74L214.43 139.61C216.04 140.53 217.81 141.16 219.66 141.47L221.63 137.97C222.67 138.03 223.74 137.95 224.79 137.73L226.75 141.04C227.52 140.81 228.29 140.53 229.04 140.18C230.07 139.7 231.03 139.13 231.92 138.48L230.55 134.91C231.43 134.17 232.2 133.32 232.85 132.39L236.61 133.26C237.64 131.5 238.35 129.56 238.71 127.55C237.62 127.08 236.09 126.41 235.23 126.01C235.35 124.85 235.32 123.68 235.12 122.51L238.48 120.52C238.26 119.64 237.98 118.78 237.61 117.93C237.16 116.88 236.61 115.91 235.98 115.02L232.48 116.6C231.71 115.64 230.81 114.82 229.81 114.15L230.81 110.36C229.23 109.47 227.5 108.87 225.71 108.57L224.03 112.11C222.76 112 221.46 112.08 220.18 112.38L218.23 109.1ZM229.15 121.91C230.74 125.6 229.06 129.98 225.4 131.69C221.76 133.39 217.55 131.79 215.98 128.12C214.41 124.46 216.07 120.1 219.69 118.38C223.32 116.65 227.56 118.23 229.15 121.91Z" fill="#A8B82F"/>
<path d="M389.1 169.31C391.259 169.31 393.01 167.309 393.01 164.84C393.01 162.371 391.259 160.37 389.1 160.37C386.941 160.37 385.19 162.371 385.19 164.84C385.19 167.309 386.941 169.31 389.1 169.31Z" fill="#7354DD"/>
<path d="M403.1 169.49C405.259 169.49 407.01 167.489 407.01 165.02C407.01 162.551 405.259 160.55 403.1 160.55C400.941 160.55 399.19 162.551 399.19 165.02C399.19 167.489 400.941 169.49 403.1 169.49Z" fill="#7354DD"/>
<path d="M417.1 169.68C419.259 169.68 421.01 167.679 421.01 165.21C421.01 162.741 419.259 160.74 417.1 160.74C414.941 160.74 413.19 162.741 413.19 165.21C413.19 167.679 414.941 169.68 417.1 169.68Z" fill="#7354DD"/>
<path d="M419.39 190.04L386.61 189.02C385.72 189.02 385 188.3 385 187.41V178.91C385 178.02 385.72 177.3 386.61 177.3L419.39 178.11C420.28 178.11 421 178.83 421 179.72V188.43C421 189.32 420.28 190.04 419.39 190.04Z" fill="#C9BDF2"/>
<path d="M419.39 206.51L386.61 205.02C385.72 205.02 385 204.3 385 203.41V194.91C385 194.02 385.72 193.3 386.61 193.3L419.39 194.51C420.28 194.51 421 195.23 421 196.12V204.9C421 205.79 420.28 206.51 419.39 206.51Z" fill="#C9BDF2"/>
<path d="M154.07 221.24L154.23 231.12C154.24 231.56 154.59 231.91 155.02 231.91L188.82 234.69C189.26 234.69 189.62 234.33 189.61 233.88L189.5 223.72L154.07 221.24Z" fill="#7354DD"/>
<path d="M167.15 201.13V206.62C167.15 207.29 167.67 207.83 168.34 207.87L173.93 208.17C174.65 208.21 175.25 207.64 175.25 206.92V201.4C175.25 200.73 174.73 200.18 174.06 200.15L168.47 199.88C167.75 199.84 167.15 200.41 167.15 201.13Z" fill="#7354DD"/>
<path d="M178.45 177.52L184.13 177.68C184.83 177.7 185.42 177.13 185.42 176.43V170.68C185.42 170 184.88 169.44 184.19 169.43L178.51 169.31C177.81 169.29 177.23 169.86 177.23 170.56V176.28C177.23 176.95 177.77 177.5 178.45 177.52Z" fill="#7354DD"/>
<path d="M184.29 190.32L178.53 190.11C177.82 190.08 177.23 190.65 177.23 191.36V196.95C177.23 197.62 177.76 198.18 178.44 198.2L184.2 198.41C184.91 198.44 185.5 197.87 185.5 197.16V191.57C185.5 190.9 184.96 190.34 184.29 190.32Z" fill="#8970E2"/>
<path d="M167.15 190.99V196.58C167.15 197.25 167.68 197.81 168.36 197.83L173.95 198.03C174.66 198.06 175.25 197.49 175.25 196.78V191.19C175.25 190.52 174.72 189.96 174.04 189.94L168.45 189.74C167.74 189.72 167.15 190.29 167.15 190.99Z" fill="#7354DD"/>
<path d="M167.15 211.26V216.84C167.15 217.5 167.67 218.05 168.33 218.09L173.92 218.42C174.64 218.46 175.25 217.89 175.25 217.17V211.59C175.25 210.93 174.73 210.38 174.07 210.34L168.48 210.01C167.76 209.97 167.15 210.54 167.15 211.26Z" fill="#C9BDF2"/>
<path d="M168.36 187.6L173.95 187.77C174.66 187.79 175.24 187.22 175.24 186.52V180.93C175.24 180.25 174.7 179.7 174.03 179.68L168.44 179.51C167.73 179.49 167.15 180.06 167.15 180.76V186.35C167.15 187.03 167.69 187.58 168.36 187.6Z" fill="#AE9CEB"/>
<path d="M167.15 170.33V175.99C167.15 176.67 167.69 177.22 168.37 177.24L173.96 177.39C174.66 177.41 175.25 176.84 175.25 176.14V170.45C175.25 169.77 174.71 169.21 174.02 169.2L168.43 169.08C167.73 169.07 167.15 169.63 167.15 170.33Z" fill="#8970E2"/>
<path d="M184.2 180L178.52 179.83C177.81 179.81 177.23 180.38 177.23 181.08V186.67C177.23 187.35 177.77 187.9 178.44 187.92L184.12 188.09C184.83 188.11 185.41 187.54 185.41 186.84V181.25C185.41 180.57 184.88 180.02 184.2 180Z" fill="#7354DD"/>
<path d="M178.41 218.7L184.09 219.04C184.81 219.08 185.42 218.51 185.42 217.79V212.21C185.42 211.55 184.9 211 184.24 210.96L178.56 210.62C177.84 210.58 177.23 211.15 177.23 211.87V217.45C177.23 218.11 177.75 218.66 178.41 218.7Z" fill="#7354DD"/>
<path d="M177.23 201.61V207.16C177.23 207.83 177.75 208.37 178.42 208.41L184.22 208.72C184.94 208.76 185.54 208.19 185.54 207.47V201.89C185.54 201.22 185.02 200.67 184.35 200.64L178.55 200.36C177.83 200.33 177.23 200.9 177.23 201.61Z" fill="#AE9CEB"/>
<path d="M163.99 209.75L158.33 209.41C157.61 209.37 157 209.94 157 210.66V216.24C157 216.9 157.52 217.45 158.18 217.49L163.84 217.83C164.56 217.87 165.17 217.3 165.17 216.58V211C165.17 210.33 164.65 209.79 163.99 209.75Z" fill="#8970E2"/>
<path d="M163.95 179.37L158.29 179.2C157.58 179.18 157 179.75 157 180.45V186.04C157 186.72 157.54 187.27 158.21 187.29L163.87 187.46C164.58 187.48 165.16 186.92 165.16 186.21V180.62C165.17 179.95 164.63 179.4 163.95 179.37Z" fill="#7354DD"/>
<path d="M163.97 199.66L158.31 199.39C157.6 199.36 157 199.93 157 200.64V206.07C157 206.74 157.52 207.28 158.19 207.32L163.85 207.62C164.57 207.66 165.17 207.09 165.17 206.37V200.91C165.17 200.24 164.64 199.69 163.97 199.66Z" fill="#C9BDF2"/>
<path d="M163.94 168.98L158.28 168.86C157.58 168.84 157 169.41 157 170.11V175.71C157 176.39 157.54 176.94 158.22 176.96L163.88 177.12C164.58 177.14 165.17 176.57 165.17 175.87V170.24C165.17 169.56 164.62 169 163.94 168.98Z" fill="#C9BDF2"/>
<path d="M163.96 189.58L158.3 189.37C157.59 189.34 157 189.91 157 190.62V196.21C157 196.88 157.53 197.44 158.21 197.46L163.87 197.67C164.58 197.7 165.17 197.13 165.17 196.42V190.83C165.17 190.16 164.63 189.6 163.96 189.58Z" fill="#8970E2"/>
<path d="M170.58 240.61C172.325 240.61 173.74 239.276 173.74 237.63C173.74 235.984 172.325 234.65 170.58 234.65C168.835 234.65 167.42 235.984 167.42 237.63C167.42 239.276 168.835 240.61 170.58 240.61Z" fill="#9C9894"/>
<defs>
<radialGradient id="paint0_radial" cx="0" cy="0" r="1" gradientUnits="userSpaceOnUse" gradientTransform="translate(312.723 306.848) scale(197.777)">
<stop offset="0.1159" stop-color="white"/>
<stop offset="1" stop-color="#B8D6F7"/>
</radialGradient>
</defs>
</svg>
