<svg width="636" height="300" viewBox="0 0 636 300" fill="none" xmlns="http://www.w3.org/2000/svg">
<path d="M532.61 126.39C532.62 126.26 532.67 126.12 532.67 125.99C535.65 97.7901 513.56 74.9101 483.33 74.8701C473.43 74.8601 463.93 77.3401 455.49 81.6101C449.98 53.4601 424.5 32.8201 391.67 32.7901C359.54 32.7601 330.23 52.5001 318.24 79.6701C299.87 69.7001 254.69 85.0701 268.72 127.36C247.47 126.53 214.67 141.39 228.2 190.14C396.13 183.33 504.42 178.04 563.2 177.24C564.83 174.98 567.51 170.86 568.32 163.42C570.53 143 554.48 126.43 532.61 126.39Z" fill="url(#paint0_radial)"/>
<path d="M377.21 125.08L373.76 118.99L373.48 119.1C372.46 119.51 348.23 128.81 322.14 104.32L321.92 104.11L316.5 108.56L316.72 108.77C318.31 110.27 319.97 111.71 321.65 113.06C332 121.37 342.13 125.24 350.82 126.8C365.95 129.52 376.76 125.26 376.93 125.19L377.21 125.08Z" fill="url(#paint1_linear)"/>
<path d="M321.37 93.43L325.29 102.49C325.99 104.1 325.25 105.98 323.63 106.68C322.02 107.38 320.14 106.64 319.44 105.02L315.52 95.96C314.82 94.35 315.56 92.47 317.18 91.77C318.8 91.07 320.67 91.81 321.37 93.43Z" fill="#8A6FE8"/>
<path d="M318.1 112.37L311.53 113.28C309.78 113.51 308.17 112.28 307.94 110.52C307.71 108.77 308.94 107.16 310.7 106.93L317.44 106L318.1 112.37Z" fill="#8A6FE8"/>
<path d="M315.38 110.03L306.61 107.42C304.92 106.91 303.96 105.12 304.47 103.43C304.98 101.74 306.77 100.78 308.46 101.29L314.99 103.21L315.38 110.03Z" fill="#8A6FE8"/>
<path d="M317.4 106.68L309.44 102.14C307.9 101.27 307.36 99.31 308.24 97.77C309.11 96.23 311.07 95.69 312.61 96.57L320.71 101.19L317.4 106.68Z" fill="#8A6FE8"/>
<path d="M319.38 112.72C323.08 112.72 326.08 109.72 326.08 106.02C326.08 102.32 323.08 99.32 319.38 99.32C315.679 99.32 312.68 102.32 312.68 106.02C312.68 109.72 315.679 112.72 319.38 112.72Z" fill="url(#paint2_radial)"/>
<path d="M397.34 160.2L390.62 156.75C387.63 166.26 390.05 177.55 391.76 183.3C393.99 183.21 396.2 183.11 398.4 183.02C396.96 178.32 394.7 168.61 397.34 160.2Z" fill="url(#paint3_linear)"/>
<path d="M412.52 160.85L404.99 160.17C405.68 168.85 410.7 177.23 414.45 182.35C417.11 182.24 419.76 182.13 422.37 182.02C419.37 178.38 413.24 169.94 412.52 160.85Z" fill="url(#paint4_linear)"/>
<path d="M371.1 125.32C371.69 115.92 375.42 109.49 375.42 109.49L373.38 108.82L373.34 108.76C381.48 93.84 399.36 86.38 416.09 91.88C434.94 98.08 445.19 118.39 438.99 137.23C432.79 156.08 412.48 166.33 393.64 160.13C378.77 155.24 369.25 141.56 368.94 126.75C369 126.15 369.34 125.14 371.1 125.32Z" fill="url(#paint5_radial)"/>
<path d="M369.69 133.58L428.61 152.97C426.55 154.78 424.3 156.34 421.9 157.63L372.32 141.32C371.16 138.86 370.27 136.26 369.69 133.58Z" fill="#D8CFF7"/>
<path d="M374.176 144.041L385.266 147.579L388.396 137.766L377.306 134.228L374.176 144.041Z" fill="#512BD4"/>
<path d="M377.27 141C377.2 140.98 377.14 140.93 377.11 140.87C377.07 140.8 377.07 140.73 377.09 140.67C377.11 140.6 377.16 140.55 377.23 140.51C377.3 140.48 377.37 140.47 377.44 140.49C377.51 140.51 377.57 140.56 377.61 140.63C377.65 140.7 377.65 140.77 377.63 140.84C377.61 140.91 377.56 140.96 377.49 140.99C377.42 141.02 377.35 141.03 377.27 141Z" fill="white"/>
<path d="M380.23 141.91L379.75 141.76L379.13 139.36C379.11 139.3 379.1 139.24 379.1 139.18H379.09C379.08 139.24 379.05 139.37 378.98 139.56L378.41 141.34L377.99 141.2L378.86 138.49L379.37 138.65L379.96 140.99C379.99 141.09 380 141.15 380.01 141.19H380.02C380.03 141.11 380.06 140.99 380.12 140.82L380.68 139.07L381.1 139.21L380.23 141.91Z" fill="white"/>
<path d="M382.3 142.57L380.82 142.09L381.69 139.38L383.11 139.84L382.99 140.22L382 139.9L381.75 140.67L382.66 140.96L382.54 141.34L381.63 141.05L381.37 141.85L382.41 142.19L382.3 142.57Z" fill="white"/>
<path d="M385.15 140.92L384.39 140.68L383.64 143.01L383.2 142.87L383.95 140.54L383.19 140.3L383.31 139.92L385.27 140.55L385.15 140.92Z" fill="white"/>
<path d="M371.03 125.3C371.62 116.02 375.26 109.63 375.35 109.48L410.75 121.13C410.75 121.13 413.06 121.64 412.38 123.67C411.71 125.71 409.73 131.44 407.64 137.8C407.21 139.11 405.93 139.39 405.09 139.11C405.09 139.11 371.45 127 371.03 125.3Z" fill="url(#paint6_radial)"/>
<path d="M392.15 132.26C392.15 132.26 388.12 126.16 387.32 125.01C386.52 123.86 385.6 123.51 384.35 124.03C383.1 124.55 376.24 127.02 376.24 127.02L392.15 132.26Z" fill="#A08BE8"/>
<path d="M368.94 127.23C368.94 127.23 368.53 125.04 371.03 125.29C371.03 125.28 405.85 136.72 405.85 136.72C406.66 136.99 407.86 136.85 408.21 136.09C408.02 136.65 407.84 137.22 407.65 137.8C407.26 138.99 406.17 139.33 405.34 139.17C405.26 139.15 405.18 139.14 405.09 139.11L402.71 138.33L368.94 127.23Z" fill="#512BD4"/>
<path d="M402.551 127.117C403.402 124.654 402.904 122.246 401.437 121.739C399.97 121.232 398.091 122.818 397.239 125.281C396.388 127.745 396.886 130.153 398.353 130.66C399.82 131.167 401.699 129.581 402.551 127.117Z" fill="#512BD4"/>
<path d="M381.076 119.912C381.854 117.424 381.284 115.031 379.802 114.568C378.321 114.105 376.49 115.747 375.712 118.235C374.935 120.724 375.505 123.116 376.986 123.579C378.468 124.042 380.299 122.4 381.076 119.912Z" fill="#512BD4"/>
<path d="M400.66 123.94C400.29 123.22 399.64 122.73 398.91 122.56C398.23 123.2 397.63 124.14 397.25 125.26C397.01 125.96 396.88 126.65 396.85 127.3C397.61 127.82 398.63 127.92 399.51 127.47C400.79 126.82 401.31 125.23 400.66 123.94Z" fill="#8065E0"/>
<path d="M379.22 116.73C378.85 116 378.2 115.52 377.46 115.35C376.74 116.02 376.1 117.03 375.72 118.25C375.53 118.87 375.41 119.49 375.38 120.07C376.15 120.6 377.17 120.7 378.05 120.25C379.35 119.6 379.87 118.02 379.22 116.73Z" fill="#8065E0"/>
<path d="M420.01 91.03L413.64 88.91L418.49 77.7L423.06 79.22L420.01 91.03Z" fill="#8A6FE8"/>
<path d="M418.14 82.64C420.26 84.01 423.1 83.43 424.48 81.33C425.86 79.24 425.26 76.43 423.14 75.06C421.02 73.69 418.18 74.27 416.8 76.37C415.42 78.47 416.01 81.27 418.14 82.64Z" fill="#C9BDF2"/>
<path d="M421.11 95.79C421.4 95.88 421.71 95.72 421.77 95.42C422.44 92.33 420.67 89.15 417.56 88.11C414.45 87.07 411.1 88.54 409.75 91.41C409.62 91.68 409.77 92 410.06 92.09L421.11 95.79Z" fill="#522CD5"/>
<path d="M418.49 133.47L418.31 133.69C417.65 134.5 400.94 152.58 361.03 141.88L360.69 141.79L358.71 148.15L359.05 148.24C361.5 148.9 363.96 149.48 366.36 149.96C407.26 158.13 424.47 137.05 424.64 136.83L424.82 136.6L418.49 133.47Z" fill="url(#paint7_linear)"/>
<path d="M422.22 141.15C425.865 141.15 428.82 138.195 428.82 134.55C428.82 130.905 425.865 127.95 422.22 127.95C418.575 127.95 415.62 130.905 415.62 134.55C415.62 138.195 418.575 141.15 422.22 141.15Z" fill="url(#paint8_radial)"/>
<path d="M355.51 132.38L362.18 139.66C363.37 140.96 363.28 142.97 361.98 144.16C360.68 145.35 358.67 145.26 357.48 143.96L350.81 136.68C349.62 135.38 349.71 133.37 351.01 132.18C352.31 130.99 354.32 131.08 355.51 132.38Z" fill="#8A6FE8"/>
<path d="M358.61 151.35L352.69 154.36C351.11 155.15 349.18 154.51 348.39 152.93C347.6 151.35 348.24 149.42 349.82 148.63L355.89 145.55L358.61 151.35Z" fill="#8A6FE8"/>
<path d="M355.28 150.03L346.14 150.43C344.37 150.5 342.88 149.12 342.81 147.36C342.74 145.59 344.12 144.1 345.88 144.03L352.68 143.71L355.28 150.03Z" fill="#8A6FE8"/>
<path d="M356.09 146.2L347.09 144.51C345.35 144.19 344.2 142.52 344.53 140.78C344.85 139.04 346.52 137.89 348.26 138.22L357.43 139.94L356.09 146.2Z" fill="#8A6FE8"/>
<path d="M357.75 151.63C361.451 151.63 364.45 148.63 364.45 144.93C364.45 141.23 361.451 138.23 357.75 138.23C354.05 138.23 351.05 141.23 351.05 144.93C351.05 148.63 354.05 151.63 357.75 151.63Z" fill="url(#paint9_radial)"/>
<path d="M279.655 27.1897L273.179 18.9503L159.565 108.257L166.042 116.497L279.655 27.1897Z" fill="#F7B548"/>
<path d="M101.48 231.12H96.9399V282.69H101.48V231.12Z" fill="#A7A4A0"/>
<path d="M114.79 231.12H110.25V282.69H114.79V231.12Z" fill="#A7A4A0"/>
<path d="M300.17 231.12H295.63V282.69H300.17V231.12Z" fill="#A7A4A0"/>
<path d="M286.85 231.12H282.31V282.69H286.85V231.12Z" fill="#A7A4A0"/>
<path d="M304.48 235.9H109.82C105.02 235.9 101.14 232.01 101.14 227.22C101.14 222.42 105.03 218.54 109.82 218.54H304.48C309.28 218.54 313.16 222.43 313.16 227.22C313.16 232.02 309.28 235.9 304.48 235.9Z" fill="#797672"/>
<path d="M89.6198 234.8C85.4398 234.8 82.0498 231.4 82.0498 227.23C82.0498 223.05 85.4498 219.66 89.6198 219.66H284.28C288.46 219.66 291.85 223.06 291.85 227.23C291.85 231.41 288.45 234.8 284.28 234.8H89.6198Z" fill="#605D5A"/>
<path d="M284.28 220.76C287.84 220.76 290.75 223.66 290.75 227.22C290.75 230.78 287.85 233.68 284.28 233.68H89.6199C86.0599 233.68 83.1599 230.78 83.1599 227.22C83.1599 223.66 86.0599 220.76 89.6199 220.76H284.28ZM284.28 218.54H89.6199C84.8299 218.54 80.9399 222.43 80.9399 227.22C80.9399 232.02 84.8299 235.9 89.6199 235.9H284.28C289.08 235.9 292.96 232.01 292.96 227.22C292.96 222.43 289.08 218.54 284.28 218.54Z" fill="#A7A4A0"/>
<path d="M160.19 171.84H106.19V218.48H160.19V171.84Z" fill="#70D6E0"/>
<path d="M160.2 171.84H149.15V218.48H160.2V171.84Z" fill="#28C2D1"/>
<path d="M161.81 179.02H103.86V168.96H148.1L161.81 179.02Z" fill="#CFF1F5"/>
<path d="M161.81 179.59L148.12 179.02V168.96L161.81 169.96V179.59Z" fill="#70D6E0"/>
<path d="M90.0801 231.29C92.2782 231.29 94.0601 229.508 94.0601 227.31C94.0601 225.112 92.2782 223.33 90.0801 223.33C87.882 223.33 86.1001 225.112 86.1001 227.31C86.1001 229.508 87.882 231.29 90.0801 231.29Z" fill="#9C9894"/>
<path d="M122.27 231.29C124.468 231.29 126.25 229.508 126.25 227.31C126.25 225.112 124.468 223.33 122.27 223.33C120.072 223.33 118.29 225.112 118.29 227.31C118.29 229.508 120.072 231.29 122.27 231.29Z" fill="#9C9894"/>
<path d="M154.47 231.29C156.668 231.29 158.45 229.508 158.45 227.31C158.45 225.112 156.668 223.33 154.47 223.33C152.272 223.33 150.49 225.112 150.49 227.31C150.49 229.508 152.272 231.29 154.47 231.29Z" fill="#9C9894"/>
<path d="M186.67 231.29C188.868 231.29 190.65 229.508 190.65 227.31C190.65 225.112 188.868 223.33 186.67 223.33C184.472 223.33 182.69 225.112 182.69 227.31C182.69 229.508 184.472 231.29 186.67 231.29Z" fill="#9C9894"/>
<path d="M218.87 231.29C221.068 231.29 222.85 229.508 222.85 227.31C222.85 225.112 221.068 223.33 218.87 223.33C216.672 223.33 214.89 225.112 214.89 227.31C214.89 229.508 216.672 231.29 218.87 231.29Z" fill="#9C9894"/>
<path d="M251.07 231.29C253.268 231.29 255.05 229.508 255.05 227.31C255.05 225.112 253.268 223.33 251.07 223.33C248.872 223.33 247.09 225.112 247.09 227.31C247.09 229.508 248.872 231.29 251.07 231.29Z" fill="#9C9894"/>
<path d="M283.27 231.29C285.468 231.29 287.25 229.508 287.25 227.31C287.25 225.112 285.468 223.33 283.27 223.33C281.072 223.33 279.29 225.112 279.29 227.31C279.29 229.508 281.072 231.29 283.27 231.29Z" fill="#9C9894"/>
<path d="M174.65 109.41H157.93V273.62H174.65V109.41Z" fill="#F7B548"/>
<path d="M184.24 282.28V271.71C184.24 262.28 176.6 254.64 167.17 254.64H165.42C155.99 254.64 148.35 262.28 148.35 271.71V282.28H184.24Z" fill="#F7B548"/>
<path d="M184.25 274.24H148.35V282.29H184.25V274.24Z" fill="#605D5A"/>
<path d="M165.67 121.25C172.435 121.25 177.92 115.765 177.92 109C177.92 102.235 172.435 96.75 165.67 96.75C158.904 96.75 153.42 102.235 153.42 109C153.42 115.765 158.904 121.25 165.67 121.25Z" fill="#605D5A"/>
<path d="M165.67 113.18C167.978 113.18 169.85 111.309 169.85 109C169.85 106.691 167.978 104.82 165.67 104.82C163.361 104.82 161.49 106.691 161.49 109C161.49 111.309 163.361 113.18 165.67 113.18Z" fill="#9C9894"/>
<path d="M494.97 179.15C515.82 178.39 533.85 177.83 549.18 177.49V143.32H494.97V179.15Z" fill="#70D6E0"/>
<path d="M549.18 143.32H538.09V177.76C541.94 177.66 545.62 177.57 549.18 177.49V143.32Z" fill="#28C2D1"/>
<path d="M550.81 150.52H492.63V140.43H537.04L550.81 150.52Z" fill="#CFF1F5"/>
<path d="M550.81 151.1L537.06 150.52V140.43L550.81 141.44V151.1Z" fill="#70D6E0"/>
<path d="M503.8 101.61H449.8V148.25H503.8V101.61Z" fill="#F7B548"/>
<path d="M503.81 101.61H492.76V148.25H503.81V101.61Z" fill="#E29E3B"/>
<path d="M505.43 108.79H447.47V98.73H491.71L505.43 108.79Z" fill="#FEDEA7"/>
<path d="M505.429 109.36L491.729 108.79V98.73L505.429 99.74V109.36Z" fill="#FCCF84"/>
<path d="M415.08 182.33C434.66 181.51 452.72 180.77 469.29 180.13V150.36H415.08V182.33Z" fill="#E86E58"/>
<path d="M469.3 180.12V150.35H458.21V180.55C461.97 180.41 465.67 180.27 469.3 180.12Z" fill="#CC5444"/>
<path d="M470.92 157.56H412.75V147.47H457.15L470.92 157.56Z" fill="#FDC9B5"/>
<path d="M470.92 158.14L457.17 157.56V147.47L470.92 148.48V158.14Z" fill="#ED9583"/>
<path d="M466.97 180.22C487.09 179.43 505.07 178.77 520.98 178.27V150.49H466.97V180.22Z" fill="#98C2F5"/>
<path d="M509.92 178.63C513.7 178.5 517.39 178.38 520.97 178.27V150.49H509.92V178.63Z" fill="#3E8EED"/>
<path d="M522.59 157.66H464.64V147.61H508.87L522.59 157.66Z" fill="#D8E8FB"/>
<path d="M522.59 158.24L508.89 157.66V147.61L522.59 148.61V158.24Z" fill="#98C2F5"/>
<path d="M306.43 69.12H295.38V115.76H306.43V69.12Z" fill="#E29E3B"/>
<path d="M308.05 76.87L294.35 76.3V66.24L308.05 67.25V76.87Z" fill="#FCCF84"/>
<path d="M253.77 75.8601C253.43 75.8601 253.1 75.7101 252.88 75.4101L242.15 61.0701C241.94 60.7901 241.88 60.4301 241.97 60.1001C242.07 59.7701 242.31 59.5001 242.64 59.3701L275.75 46.6801C275.99 46.5901 276.25 46.5801 276.49 46.6601L313 58.7301C313.34 58.8401 313.6 59.1101 313.71 59.4501C313.82 59.7901 313.75 60.1601 313.54 60.4501L302.72 75.0001C302.36 75.4901 301.66 75.5901 301.17 75.2301C300.68 74.8601 300.58 74.1701 300.94 73.6801L310.85 60.3701L276.17 48.9101L244.8 60.9301L254.65 74.0901C255.02 74.5801 254.92 75.2701 254.43 75.6401C254.23 75.7901 254 75.8601 253.77 75.8601Z" fill="#797672"/>
<path d="M295.73 76.33H252.42V115.76H295.73V76.33Z" fill="#F7B548"/>
<path d="M294.31 66.24H250.1V76.3H294.31V66.24Z" fill="#FEDEA7"/>
<path d="M279.92 22.66H272.37C270.8 22.66 269.54 23.93 269.54 25.49V50.25C269.54 51.82 270.81 53.08 272.37 53.08H279.92C281.49 53.08 282.75 51.81 282.75 50.25V25.5C282.75 23.93 281.48 22.66 279.92 22.66Z" fill="#9C9894"/>
<path d="M276.05 34.77C281.54 34.77 285.99 30.3197 285.99 24.83C285.99 19.3403 281.54 14.89 276.05 14.89C270.56 14.89 266.11 19.3403 266.11 24.83C266.11 30.3197 270.56 34.77 276.05 34.77Z" fill="#605D5A"/>
<path d="M220.64 230.76L217.29 250.68C217.02 252.27 216.02 253.64 214.58 254.37L199.98 261.83L197.04 258.14L210.6 249.49C211.33 249.02 211.78 248.2 211.78 247.33L212.19 229.2L220.64 230.76Z" fill="url(#paint10_linear)"/>
<path d="M224.02 224.48H231.66L229.21 269.95H224.02V224.48Z" fill="url(#paint11_linear)"/>
<path d="M220.64 234.06C232.05 234.06 241.3 224.81 241.3 213.4C241.3 201.99 232.05 192.74 220.64 192.74C209.23 192.74 199.98 201.99 199.98 213.4C199.98 224.81 209.23 234.06 220.64 234.06Z" fill="#106EBE"/>
<path d="M209.15 181.67C220.56 181.67 229.81 172.42 229.81 161.01C229.81 149.6 220.56 140.35 209.15 140.35C197.74 140.35 188.49 149.6 188.49 161.01C188.49 172.42 197.74 181.67 209.15 181.67Z" fill="url(#paint12_linear)"/>
<path d="M244.52 215.76L242.6 161.39C242.37 159.18 240.27 157.66 238.1 158.14L182.27 170.38C180.1 170.86 178.83 173.12 179.55 175.22L199.6 225.65C200.21 227.44 202.07 228.49 203.92 228.08L241.62 219.78C243.46 219.37 244.71 217.64 244.52 215.76Z" fill="url(#paint13_radial)"/>
<path d="M218.24 152.4L217.77 150.28C217.41 148.65 215.8 147.62 214.17 147.98L189.95 153.38C188.87 156.1 188.38 159.06 188.54 162.1L215.93 156C217.57 155.64 218.6 154.03 218.24 152.4Z" fill="#106EBE"/>
<path d="M212.91 155.62C214.633 155.62 216.03 154.223 216.03 152.5C216.03 150.777 214.633 149.38 212.91 149.38C211.187 149.38 209.79 150.777 209.79 152.5C209.79 154.223 211.187 155.62 212.91 155.62Z" fill="white"/>
<path d="M222.5 153.19C224.223 153.19 225.62 151.793 225.62 150.07C225.62 148.347 224.223 146.95 222.5 146.95C220.777 146.95 219.38 148.347 219.38 150.07C219.38 151.793 220.777 153.19 222.5 153.19Z" fill="white"/>
<path d="M225.59 283.65H238.06C239.03 283.65 239.78 282.77 239.59 281.81C238.26 274.76 232.86 269.16 225.93 267.51C224.96 267.28 224.03 268.03 224.03 269.03V282.09C224.04 282.95 224.73 283.65 225.59 283.65Z" fill="#2B88D8"/>
<path d="M201.35 257.55C203.6 264.31 201.67 271.85 196.37 276.69C195.65 277.35 194.51 277.18 194 276.35L187.44 265.74C186.99 265.01 187.21 264.05 187.95 263.6L199.06 256.73C199.91 256.21 201.04 256.6 201.35 257.55Z" fill="#2B88D8"/>
<path d="M222.16 189.99C214.97 188.12 209.17 181.88 203.96 175.28L208.88 171.39C215.73 180.06 220.57 183.77 225.54 184.23C230.51 184.69 236.38 181.79 244.01 175.11L248.14 179.83C239.13 187.71 231.77 191.1 224.97 190.47C224 190.39 223.07 190.22 222.16 189.99Z" fill="#C7E0F4"/>
<path d="M205.21 179.01C209.451 179.01 212.89 175.572 212.89 171.33C212.89 167.088 209.451 163.65 205.21 163.65C200.968 163.65 197.53 167.088 197.53 171.33C197.53 175.572 200.968 179.01 205.21 179.01Z" fill="url(#paint14_radial)"/>
<path d="M252.31 176.24L249.14 173.52C248.47 172.95 248.4 171.94 248.97 171.28L265.82 151.66C266.39 150.99 267.4 150.92 268.06 151.49L271.23 154.21C271.9 154.78 271.97 155.79 271.4 156.45L254.55 176.07C253.98 176.74 252.98 176.82 252.31 176.24Z" fill="#797672"/>
<path d="M253.76 165.79L252.69 164.87C252.33 164.56 252.29 164.02 252.6 163.66L254.81 161.09C255.12 160.73 255.66 160.69 256.02 161L257.09 161.92C257.45 162.23 257.49 162.77 257.18 163.13L254.97 165.7C254.66 166.05 254.12 166.09 253.76 165.79Z" fill="#797672"/>
<path d="M258.21 160.53L257.14 159.61C256.78 159.3 256.74 158.76 257.05 158.4L259.26 155.83C259.57 155.47 260.11 155.43 260.47 155.74L261.54 156.66C261.9 156.97 261.94 157.51 261.63 157.87L259.42 160.44C259.11 160.79 258.57 160.83 258.21 160.53Z" fill="#797672"/>
<path d="M204.96 208.1C181.6 208.1 168.19 194.41 165.22 180.4L167.39 179.94C170.28 193.53 183.74 206.8 207.41 205.83C236.06 204.64 249.16 174.17 249.29 173.86L251.34 174.72C251.21 175.04 237.58 206.8 207.5 208.05C206.64 208.08 205.79 208.1 204.96 208.1Z" fill="#797672"/>
<path d="M254.45 161.52C254.63 162.06 254.49 162.68 254.08 163C253.33 163.6 251.03 164.59 250.03 165.01L247.19 171.03C246.9 171.64 246.23 171.82 245.7 171.45C245.16 171.07 244.96 170.28 245.24 169.68L248.27 163.27C248.39 163.02 248.58 162.82 248.82 162.73C250.17 162.18 252.28 161.22 252.76 160.84C253.25 160.45 253.94 160.62 254.31 161.22C254.37 161.32 254.41 161.42 254.45 161.52Z" fill="#106EBE"/>
<path d="M263.46 168.4C263.63 168.91 263.52 169.49 263.16 169.83L258.72 173.96C258.66 174.02 258.59 174.07 258.52 174.11L251.45 177.98C250.91 178.27 250.24 177.99 249.95 177.34C249.67 176.71 249.87 175.93 250.4 175.63L257.36 171.82L261.71 167.77C262.17 167.34 262.87 167.45 263.27 168.02C263.36 168.14 263.42 168.27 263.46 168.4Z" fill="#106EBE"/>
<path d="M260.41 164.78C260.56 165.24 260.5 165.76 260.2 166.11L255.62 171.58C255.57 171.64 255.51 171.69 255.45 171.74L249.79 176.09C249.3 176.47 248.61 176.29 248.25 175.69C247.89 175.09 248 174.29 248.5 173.91L254.07 169.63L258.58 164.25C258.99 163.76 259.69 163.77 260.14 164.29C260.25 164.43 260.35 164.6 260.41 164.78Z" fill="#106EBE"/>
<path d="M238.95 180.48L241.39 183.66C241.79 184.18 242.44 184.26 242.87 183.85L245.12 181.71C245.19 181.64 245.28 181.58 245.37 181.54L252.12 178.32C252.77 178.01 252.94 177.04 252.45 176.38L246.59 168.48C246.1 167.81 245.21 167.87 244.86 168.59L241.11 176.27C241.06 176.37 241.01 176.45 240.94 176.53L238.96 178.75C238.56 179.2 238.55 179.96 238.95 180.48Z" fill="#106EBE"/>
<path d="M173.41 181.1H158.55C157.02 181.1 155.77 179.85 155.77 178.32V156.19C155.77 154.66 157.02 153.41 158.55 153.41H173.41C174.94 153.41 176.19 154.66 176.19 156.19V178.32C176.2 179.85 174.94 181.1 173.41 181.1Z" fill="#9C9894"/>
<path d="M161.5 175.21C163.207 175.21 164.59 173.827 164.59 172.12C164.59 170.413 163.207 169.03 161.5 169.03C159.794 169.03 158.41 170.413 158.41 172.12C158.41 173.827 159.794 175.21 161.5 175.21Z" fill="#605D5A"/>
<path d="M170.38 175.21C172.087 175.21 173.47 173.827 173.47 172.12C173.47 170.413 172.087 169.03 170.38 169.03C168.673 169.03 167.29 170.413 167.29 172.12C167.29 173.827 168.673 175.21 170.38 175.21Z" fill="#605D5A"/>
<path d="M161.5 165.54C163.207 165.54 164.59 164.157 164.59 162.45C164.59 160.743 163.207 159.36 161.5 159.36C159.794 159.36 158.41 160.743 158.41 162.45C158.41 164.157 159.794 165.54 161.5 165.54Z" fill="#605D5A"/>
<path d="M170.38 165.54C172.087 165.54 173.47 164.157 173.47 162.45C173.47 160.743 172.087 159.36 170.38 159.36C168.673 159.36 167.29 160.743 167.29 162.45C167.29 164.157 168.673 165.54 170.38 165.54Z" fill="#605D5A"/>
<defs>
<radialGradient id="paint0_radial" cx="0" cy="0" r="1" gradientUnits="userSpaceOnUse" gradientTransform="translate(443.388 170.255) scale(131.029 129.718)">
<stop offset="0.1169" stop-color="#D8E8FB"/>
<stop offset="0.9695" stop-color="#B8D6F7"/>
</radialGradient>
<linearGradient id="paint1_linear" x1="315.921" y1="111.775" x2="377.606" y2="122.875" gradientUnits="userSpaceOnUse">
<stop offset="0.2495" stop-color="#967FE6"/>
<stop offset="1" stop-color="#8A6FE8"/>
</linearGradient>
<radialGradient id="paint2_radial" cx="0" cy="0" r="1" gradientUnits="userSpaceOnUse" gradientTransform="translate(321.906 105.587) rotate(-105.843) scale(6.70421)">
<stop stop-color="#8065E0"/>
<stop offset="1" stop-color="#512BD4"/>
</radialGradient>
<linearGradient id="paint3_linear" x1="393.8" y1="156.755" x2="393.8" y2="183.308" gradientUnits="userSpaceOnUse">
<stop stop-color="#522CD5"/>
<stop offset="0.4397" stop-color="#8A6FE8"/>
</linearGradient>
<linearGradient id="paint4_linear" x1="413.681" y1="160.167" x2="413.681" y2="182.349" gradientUnits="userSpaceOnUse">
<stop stop-color="#522CD5"/>
<stop offset="0.4397" stop-color="#8A6FE8"/>
</linearGradient>
<radialGradient id="paint5_radial" cx="0" cy="0" r="1" gradientUnits="userSpaceOnUse" gradientTransform="translate(401.399 110.584) rotate(18.2103) scale(35.7751)">
<stop offset="0.4744" stop-color="#A08BE8"/>
<stop offset="0.8618" stop-color="#8065E0"/>
</radialGradient>
<radialGradient id="paint6_radial" cx="0" cy="0" r="1" gradientUnits="userSpaceOnUse" gradientTransform="translate(377.927 104.263) rotate(18.2103) scale(37.0745)">
<stop offset="0.0933" stop-color="#E1DFDD"/>
<stop offset="0.6573" stop-color="white"/>
</radialGradient>
<linearGradient id="paint7_linear" x1="361.233" y1="135.484" x2="422.586" y2="147.74" gradientUnits="userSpaceOnUse">
<stop offset="0.2495" stop-color="#967FE6"/>
<stop offset="1" stop-color="#8A6FE8"/>
</linearGradient>
<radialGradient id="paint8_radial" cx="0" cy="0" r="1" gradientUnits="userSpaceOnUse" gradientTransform="translate(423.594 132.454) rotate(-165.618) scale(6.59838)">
<stop stop-color="#8065E0"/>
<stop offset="1" stop-color="#512BD4"/>
</radialGradient>
<radialGradient id="paint9_radial" cx="0" cy="0" r="1" gradientUnits="userSpaceOnUse" gradientTransform="translate(359.975 143.056) rotate(-124.909) scale(6.70461)">
<stop stop-color="#8065E0"/>
<stop offset="1" stop-color="#512BD4"/>
</radialGradient>
<linearGradient id="paint10_linear" x1="208.839" y1="261.831" x2="208.839" y2="229.198" gradientUnits="userSpaceOnUse">
<stop offset="0.6283" stop-color="#72ACF1"/>
<stop offset="0.6693" stop-color="#69A7F0"/>
<stop offset="0.8306" stop-color="#4A95EE"/>
<stop offset="0.9205" stop-color="#3E8EED"/>
</linearGradient>
<linearGradient id="paint11_linear" x1="227.84" y1="269.954" x2="227.84" y2="224.481" gradientUnits="userSpaceOnUse">
<stop offset="0.6283" stop-color="#72ACF1"/>
<stop offset="0.6693" stop-color="#69A7F0"/>
<stop offset="0.8306" stop-color="#4A95EE"/>
<stop offset="0.9205" stop-color="#3E8EED"/>
</linearGradient>
<linearGradient id="paint12_linear" x1="193.016" y1="171.959" x2="227.32" y2="148.92" gradientUnits="userSpaceOnUse">
<stop offset="0.6886" stop-color="#3E8EED"/>
<stop offset="0.7056" stop-color="#4290ED"/>
<stop offset="0.8867" stop-color="#65A4F0"/>
<stop offset="0.9841" stop-color="#72ACF1"/>
</linearGradient>
<radialGradient id="paint13_radial" cx="0" cy="0" r="1" gradientUnits="userSpaceOnUse" gradientTransform="translate(223.518 172.174) rotate(167.632) scale(95.2543)">
<stop offset="0.204" stop-color="#72ACF1"/>
<stop offset="0.2915" stop-color="#69A7F0"/>
<stop offset="0.6359" stop-color="#4A95EE"/>
<stop offset="0.828" stop-color="#3E8EED"/>
</radialGradient>
<radialGradient id="paint14_radial" cx="0" cy="0" r="1" gradientUnits="userSpaceOnUse" gradientTransform="translate(206.34 167.557) rotate(161.507) scale(9.68098)">
<stop offset="0.2011" stop-color="#3E8EED"/>
<stop offset="1" stop-color="#106EBE"/>
</radialGradient>
</defs>
</svg>
