<svg width="636" height="300" viewBox="0 0 636 300" fill="none" xmlns="http://www.w3.org/2000/svg">
<path d="M451.15 220.32C449.35 213.01 446.89 198.16 451.51 185.69L459.94 190.14C455.75 201.45 458.34 214.61 459.85 220.35C459.97 220.82 455.65 221.27 451.15 220.32Z" fill="url(#paint0_linear)"/>
<path d="M451.15 220.32C449.35 213.01 446.89 198.16 451.51 185.69L459.94 190.14C455.75 201.45 458.34 214.61 459.85 220.35C459.97 220.82 455.65 221.27 451.15 220.32Z" fill="url(#paint1_linear)"/>
<path d="M459.82 220.27H452.98C452.74 222.48 455.04 234.09 437.21 248.77L439.11 256.84L468.92 256.82C469.96 256.82 470.57 256.01 470.26 254.97L459.82 220.27Z" fill="#522CD5"/>
<path d="M436.25 247.11C435.18 247.94 435.2 248.88 435.63 250.31L437.12 255.42C437.36 256.2 438.19 256.84 438.98 256.84H439.13C440.02 256.84 440.52 256.12 440.26 255.23L439.18 251.07C438.68 249.42 438.6 248.38 440 247.25C448.33 240.6 458.27 231.2 455.88 220.27H451.15C451.99 225.87 450.29 236.2 436.25 247.11Z" fill="url(#paint2_linear)"/>
<path d="M439.11 248.26C438.69 249.06 438.82 249.91 439.17 251.06L440.25 255.22C440.52 256.11 440.01 256.83 439.13 256.83H438.98C438.2 256.83 437.36 256.19 437.13 255.41L435.64 250.3C435.39 249.48 435.29 248.83 435.44 248.26H439.11Z" fill="url(#paint3_radial)"/>
<path d="M467.06 223.11C465.26 215.8 462.8 200.95 467.42 188.48L475.85 192.93C471.66 204.24 474.25 217.4 475.76 223.14C475.88 223.61 471.56 224.06 467.06 223.11Z" fill="url(#paint4_linear)"/>
<path d="M467.06 223.11C465.26 215.8 462.8 200.95 467.42 188.48L475.85 192.93C471.66 204.24 474.25 217.4 475.76 223.14C475.88 223.61 471.56 224.06 467.06 223.11Z" fill="url(#paint5_linear)"/>
<path d="M475.73 223.06H468.89L460.52 259.62L484.84 259.65C485.88 259.65 486.48 258.8 486.16 257.76L475.73 223.06Z" fill="#522CD5"/>
<path d="M452.05 249.96C450.98 250.79 451.27 252.39 451.7 253.82L453.02 258.2C453.26 258.98 454.09 259.62 454.88 259.62H463.48C464.37 259.62 464.87 258.9 464.61 258.01L463.45 253.47C462.95 251.82 462.87 250.78 464.27 249.65C472.6 243 475.7 233.98 473.32 223.05H467.06C467.9 228.66 466.1 239.05 452.05 249.96Z" fill="url(#paint6_linear)"/>
<path d="M454.87 259.62C454.09 259.62 453.25 258.98 453.02 258.2L451.7 253.82C451.42 252.88 451.21 251.87 451.39 251.05H463.21C463 251.74 463.14 252.5 463.43 253.47L464.59 258.01C464.86 258.9 464.35 259.62 463.47 259.62H454.87Z" fill="url(#paint7_radial)"/>
<path d="M141.33 248.58L137.32 243.63C152.06 231.9 153.49 216.16 152.39 209.4L158.98 208.55C160.37 217.09 158.21 235.15 141.33 248.58Z" fill="#70D6E0"/>
<path d="M201.66 215.67V77.06C201.66 73.86 204.18 71.22 207.28 71.16L411.88 60.02C415.33 59.95 418.13 62.63 418.13 66.01V224.85C418.13 228.23 415.32 230.92 411.88 230.84L207.28 221.57C204.17 221.51 201.66 218.86 201.66 215.67Z" fill="#B2D5F8"/>
<path d="M306.65 145.23L387.85 144.92C390.92 144.92 393.42 147.38 393.42 150.4L393.43 171.43C393.43 174.46 390.94 176.9 387.86 176.87L306.65 176.23C303.7 176.21 301.32 173.79 301.32 170.83V150.59C301.32 147.63 303.7 145.23 306.65 145.23Z" fill="white"/>
<path d="M325.53 176.39L296.83 176.16C294.82 176.14 293.18 174.49 293.18 172.46V148.92C293.18 146.89 294.81 145.24 296.83 145.24L325.53 145.18V176.39Z" fill="#F7B548"/>
<path d="M306.65 182.71L387.86 183.48C390.93 183.51 393.43 185.99 393.43 189.02L393.79 210.73C393.79 213.76 391.29 216.17 388.22 216.12L306.65 213.71C303.7 213.66 301.32 211.22 301.32 208.26V188.02C301.32 185.06 303.7 182.68 306.65 182.71Z" fill="white"/>
<path d="M325.65 214.29L296.83 213.54C294.82 213.5 293.18 211.83 293.18 209.8V186.26C293.18 184.23 294.81 182.6 296.83 182.62L325.53 182.89L325.65 214.29Z" fill="#F7B548"/>
<path d="M448.2 74.93L448.33 56.09C448.33 52.69 445.48 49.99 441.98 50.07L234.28 63.53C231.14 63.6 228.58 66.27 228.58 69.49V85.48L448.2 74.93Z" fill="#84817D"/>
<path d="M369.42 197.67L336.13 197.09L336.14 195.08L369.42 195.65V197.67Z" fill="#B2B2B2"/>
<path d="M377.15 204.71L335.99 203.96L336 201.95L377.15 202.68V204.71Z" fill="#B2B2B2"/>
<path d="M375.14 159.66L337.26 159.52V157.51L375.14 157.63V159.66Z" fill="#B2B2B2"/>
<path d="M337.55 166.96L337.53 164.95L365.27 164.8L365.29 166.83L337.55 166.96Z" fill="#B2B2B2"/>
<path d="M318.09 160.81C317.19 156.64 315.85 154.92 314.38 154.91C313.48 154.91 312.62 155.45 311.74 155.8C310.87 156.15 307.64 156.16 306.83 155.79C305.96 155.39 305.09 154.89 304.2 154.89C302.74 154.89 301.41 156.59 300.52 160.74C299.63 164.89 300.18 167.62 301.98 167.63C303.32 167.64 304.79 165.19 306.29 164.59C307.26 164.2 309.19 164.29 309.19 164.29C309.19 164.29 311.32 164.22 312.3 164.62C313.81 165.24 315.29 167.71 316.64 167.72C318.43 167.72 318.99 164.98 318.09 160.81Z" fill="white"/>
<path d="M307.44 159.3C307.44 160.34 306.6 161.18 305.57 161.17C304.54 161.17 303.7 160.32 303.7 159.29C303.7 158.26 304.54 157.42 305.57 157.42C306.6 157.42 307.44 158.27 307.44 159.3Z" fill="#F7B548"/>
<path d="M315.03 159.33C315.03 160.37 314.19 161.21 313.15 161.21C312.11 161.21 311.28 160.36 311.28 159.32C311.28 158.28 312.12 157.44 313.15 157.44C314.19 157.45 315.03 158.29 315.03 159.33Z" fill="#F7B548"/>
<path d="M313.1 188.93L305.02 188.84C301.84 188.8 299.26 191.37 299.26 194.57V199.02C299.26 202.22 301.84 204.86 305.02 204.9L308.66 204.96L310.96 204.99L313.75 207.77C313.98 208 314.37 207.81 314.33 207.49L313.98 204.97C316.77 204.59 318.91 202.2 318.91 199.29V194.82C318.9 191.6 316.3 188.97 313.1 188.93Z" fill="white"/>
<path d="M306.53 199.88C306.53 200.65 305.91 201.26 305.15 201.25C304.39 201.24 303.77 200.61 303.77 199.84C303.77 199.07 304.39 198.46 305.15 198.47C305.91 198.48 306.53 199.12 306.53 199.88Z" fill="#F7B548"/>
<path d="M310.5 199.94C310.5 200.71 309.88 201.32 309.11 201.31C308.34 201.3 307.73 200.67 307.73 199.9C307.73 199.13 308.35 198.52 309.11 198.53C309.88 198.54 310.5 199.17 310.5 199.94Z" fill="#F7B548"/>
<path d="M314.48 199.99C314.48 200.76 313.86 201.38 313.09 201.36C312.32 201.35 311.7 200.72 311.7 199.95C311.7 199.18 312.32 198.57 313.09 198.58C313.86 198.59 314.48 199.22 314.48 199.99Z" fill="#F7B548"/>
<path d="M203.7 149.36C204.08 149.83 204.21 150.47 204 151.07L200.37 161.38C200.04 162.31 199.03 162.8 198.1 162.47C197.17 162.14 196.68 161.12 197.01 160.2L200.64 149.89C200.97 148.96 201.99 148.47 202.91 148.8C203.23 148.91 203.51 149.11 203.7 149.36Z" fill="#70D6E0"/>
<path d="M194.59 139.37C194.21 141.78 192.83 147.89 188.17 152.63C183 157.9 175.39 159.78 165.55 158.24L164.6 164.28C176.5 166.15 185.9 163.68 192.53 156.92C198.42 150.91 200.15 143.31 200.62 140.33L194.59 139.37Z" fill="#70D6E0"/>
<path d="M200.48 135.85C207.36 132.22 205.85 125.89 204.01 122.74C201.6 118.62 199.62 120.33 199.79 121.57C199.97 122.81 198.57 130.06 195.28 132.68C195.28 132.69 197.95 137.18 200.48 135.85Z" fill="#70D6E0"/>
<path d="M195.05 121.85C194.07 121.97 193.38 122.86 193.5 123.84L194.86 134.69C194.98 135.67 195.87 136.36 196.85 136.24C197.83 136.12 198.52 135.23 198.4 134.25L197.04 123.4C196.96 122.76 196.55 122.25 196.01 122C195.72 121.86 195.39 121.81 195.05 121.85Z" fill="#70D6E0"/>
<path d="M205.57 137.19L204 145.8C203.7 147.46 202.11 148.56 200.45 148.26L192.7 146.85C191.04 146.55 189.94 144.96 190.24 143.3L191.81 134.69C192.11 133.03 193.7 131.93 195.36 132.23L203.11 133.64C204.77 133.95 205.87 135.54 205.57 137.19Z" fill="#9FE4EB"/>
<path d="M471.7 191.68H462.91V192.83H471.7V191.68Z" fill="#A08BE8"/>
<path d="M471.7 180.64H462.91V181.79H471.7V180.64Z" fill="#A08BE8"/>
<path d="M414.88 118.76C416.7 125.34 427.46 138.16 437.39 141.9C443.42 144.17 446.55 137.17 440.41 134.86C433.76 132.36 424.05 121.77 422.62 116.62L414.88 118.76Z" fill="#8A6FE8"/>
<path d="M428.61 109.4L426.67 120.44C426.32 122.41 424.45 123.72 422.48 123.38C420.51 123.03 419.2 121.16 419.54 119.19L421.48 108.15C421.83 106.18 423.7 104.87 425.67 105.21C427.64 105.56 428.96 107.43 428.61 109.4Z" fill="#8A6FE8"/>
<path d="M413.67 125.32L406.87 122.07C405.06 121.19 404.31 119.02 405.19 117.21C406.07 115.4 408.24 114.65 410.05 115.53L417.03 118.86L413.67 125.32Z" fill="#8A6FE8"/>
<path d="M412.55 121.4L405.86 113.44C404.57 111.9 404.78 109.6 406.33 108.32C407.87 107.03 410.17 107.24 411.45 108.79L416.44 114.69L412.55 121.4Z" fill="#8A6FE8"/>
<path d="M416.56 119.49L411.85 110.21C410.94 108.42 411.65 106.23 413.44 105.32C415.23 104.41 417.42 105.12 418.33 106.91L423.13 116.36L416.56 119.49Z" fill="#8A6FE8"/>
<path d="M418.85 127.72C423.053 127.72 426.46 124.313 426.46 120.11C426.46 115.907 423.053 112.5 418.85 112.5C414.647 112.5 411.24 115.907 411.24 120.11C411.24 124.313 414.647 127.72 418.85 127.72Z" fill="url(#paint8_radial)"/>
<path d="M427.81 150.55C428.67 138.7 433.45 130.63 433.45 130.63L430.89 129.76L430.84 129.69C441.29 110.96 463.93 101.77 484.96 108.91C508.66 116.96 521.34 142.69 513.3 166.39C505.25 190.09 479.52 202.77 455.82 194.73C437.12 188.38 425.28 171.02 425.07 152.34C425.14 151.57 425.59 150.3 427.81 150.55Z" fill="url(#paint9_radial)"/>
<path d="M427.81 150.55C428.66 138.85 433.33 130.84 433.44 130.64L453.26 137.29C453.26 137.29 456.16 137.96 455.29 140.52C454.42 143.08 451.86 150.28 449.14 158.29C448.58 159.94 427.76 152.22 427.81 150.55Z" fill="url(#paint10_radial)"/>
<path d="M427.81 150.5C427.84 150.05 427.88 149.62 427.92 149.18C428.14 146.98 428.49 144.92 428.91 143.04C429.9 143.01 430.71 143.52 431.43 144.57C432.43 146.03 437.43 153.77 437.43 153.77L427.81 150.5Z" fill="#A08BE8"/>
<path d="M425.08 152.89C425.08 152.89 424.67 150.2 427.81 150.55C427.81 150.54 427.81 150.53 427.81 150.51L446.89 156.91C447.91 157.26 449.43 157.09 449.87 156.14C449.63 156.85 449.38 157.56 449.14 158.29C448.63 159.78 447.26 160.2 446.21 159.99C446.11 159.97 446 159.95 445.9 159.91L442.91 158.89L425.08 152.89Z" fill="#512BD4"/>
<path d="M426.02 160.99L500.01 186.11C497.39 188.37 494.53 190.31 491.49 191.91L429.25 170.78C427.81 167.66 426.72 164.37 426.02 160.99Z" fill="#D8CFF7"/>
<path d="M430.53 173.36C428.01 168.69 426.31 163.59 425.54 158.3L434.6 161.38L430.53 173.36Z" fill="#512BD4"/>
<path d="M482.68 106.3L490.99 109.06L492.65 100.14L486.69 98.16L482.68 106.3Z" fill="#8A6FE8"/>
<path d="M477.77 110.46C477.4 110.34 477.2 109.91 477.37 109.55C479.12 105.75 483.48 103.79 487.54 105.14C491.6 106.49 493.93 110.67 493.06 114.76C492.98 115.15 492.57 115.37 492.2 115.25L477.77 110.46Z" fill="url(#paint11_radial)"/>
<path d="M443.377 145.189C444.364 142.049 443.652 139.028 441.787 138.442C439.922 137.855 437.61 139.926 436.622 143.066C435.635 146.206 436.347 149.227 438.212 149.813C440.077 150.4 442.39 148.329 443.377 145.189Z" fill="#512BD4"/>
<path d="M441.04 141.17C441.86 142.81 441.2 144.8 439.57 145.62C438.45 146.18 437.16 146.05 436.2 145.39C436.24 144.65 436.38 143.88 436.63 143.09C437.11 141.55 437.92 140.27 438.83 139.43C439.75 139.65 440.58 140.26 441.04 141.17Z" fill="#8065E0"/>
<path d="M491.02 101.19C494.511 101.19 497.34 98.3604 497.34 94.87C497.34 91.3795 494.511 88.55 491.02 88.55C487.53 88.55 484.7 91.3795 484.7 94.87C484.7 98.3604 487.53 101.19 491.02 101.19Z" fill="#D8CFF7"/>
<path d="M409.66 147.41L416.25 142.07C422.45 149.15 428.24 155.27 434.83 158.31C447.96 164.37 462.57 154.91 466.44 152.07L472.64 160.18C460.69 166.68 436.94 182.35 409.66 147.41Z" fill="url(#paint12_linear)"/>
<path d="M471.43 163.29C476.025 163.29 479.75 159.565 479.75 154.97C479.75 150.375 476.025 146.65 471.43 146.65C466.835 146.65 463.11 150.375 463.11 154.97C463.11 159.565 466.835 163.29 471.43 163.29Z" fill="url(#paint13_radial)"/>
<path d="M339.95 95.8499L419.11 108.91C422.04 109.39 424.03 112.16 423.54 115.1L420.23 135.15C419.75 138.08 416.98 140.07 414.04 139.58L334.88 126.52C331.95 126.04 329.96 123.27 330.45 120.33L333.76 100.28C334.25 97.3599 337.02 95.3699 339.95 95.8499Z" fill="white"/>
<path d="M353.58 129.61L325.09 124.91C323.07 124.58 321.71 122.67 322.04 120.66L325.9 97.2899C326.23 95.2699 328.14 93.9099 330.15 94.2399L358.64 98.9399L353.58 129.61Z" fill="#F7B548"/>
<path d="M412.33 139.92L413.18 131.87C413.42 129.73 415.38 128.3 417.56 128.69C419.74 129.08 421.31 131.13 421.07 133.27L420.2 141.53L412.33 139.92Z" fill="#8A6FE8"/>
<path d="M410.37 152.18L403.03 147.93C401.08 146.79 400.39 144.39 401.48 142.59C402.57 140.78 405.04 140.25 406.98 141.39L414.51 145.74L410.37 152.18Z" fill="#8A6FE8"/>
<path d="M409.54 143.29L405.82 135.67C404.84 133.63 405.61 131.27 407.52 130.39C409.44 129.51 411.79 130.44 412.76 132.48L416.57 140.29L409.54 143.29Z" fill="#8A6FE8"/>
<path d="M408.17 147.03L402.29 140.92C400.73 139.28 400.73 136.8 402.29 135.37C403.84 133.94 406.37 134.11 407.92 135.75L413.95 142.01L408.17 147.03Z" fill="#8A6FE8"/>
<path d="M422.31 144.44C421.48 139.94 417.12 136.71 412.58 137.22C408.04 137.74 405.03 141.81 405.86 146.32C406.69 150.83 411.05 154.05 415.59 153.54C420.13 153.03 423.14 148.94 422.31 144.44Z" fill="url(#paint14_radial)"/>
<path d="M282.24 93.11L194.53 114.21C193.79 114.39 193.33 115.12 193.51 115.86L204.91 165.18C205.08 165.92 205.81 166.38 206.55 166.22L294.7 147.02C295.45 146.86 295.92 146.11 295.75 145.36L283.9 94.14C283.73 93.39 282.99 92.93 282.24 93.11Z" fill="#3E8EED"/>
<path d="M262.77 141.92C271.872 141.92 279.25 134.542 279.25 125.44C279.25 116.338 271.872 108.96 262.77 108.96C253.668 108.96 246.29 116.338 246.29 125.44C246.29 134.542 253.668 141.92 262.77 141.92Z" fill="white"/>
<path d="M259.12 109.37L263.13 125.87L278.03 131.64C279.27 128.6 279.63 125.17 278.83 121.73C276.79 112.88 267.97 107.36 259.12 109.37Z" fill="#F7B548"/>
<path d="M263.12 125.79L263.14 125.87L278.04 131.64C279.28 128.6 279.64 125.17 278.84 121.73C278.58 120.59 278.2 119.51 277.72 118.49L263.12 125.79Z" fill="#0064DA"/>
<path d="M214.756 147.248L208.92 148.597L210.38 154.911L216.216 153.562L214.756 147.248Z" fill="#B2D5F8"/>
<path d="M220.992 132.367L215.156 133.716L219.563 152.783L225.399 151.434L220.992 132.367Z" fill="#B2D5F8"/>
<path d="M231.23 134.807L225.394 136.156L228.747 150.663L234.583 149.314L231.23 134.807Z" fill="#B2D5F8"/>
<path d="M238.088 122.631L232.252 123.98L237.929 148.542L243.765 147.193L238.088 122.631Z" fill="#B2D5F8"/>
<path d="M220.993 132.373L215.157 133.722L215.826 136.616L221.662 135.267L220.993 132.373Z" fill="white"/>
<path d="M238.084 122.631L232.248 123.98L233.714 130.323L239.55 128.974L238.084 122.631Z" fill="white"/>
<path d="M368.26 110.864L367.916 112.834L404.621 119.243L404.965 117.272L368.26 110.864Z" fill="#B2B2B2"/>
<path d="M367.245 118.202L366.921 120.176L393.91 124.604L394.234 122.63L367.245 118.202Z" fill="#B2B2B2"/>
<path d="M333.12 118.47L335.53 102.75L346.99 112.7L333.12 118.47Z" fill="white"/>
<path d="M148.02 254.74L148.77 253.22C149.96 250.81 149.03 247.76 146.71 246.4L138.1 241.39C135.77 240.03 132.92 240.89 131.73 243.3L130.98 244.82L148.02 254.74Z" fill="#1BA1B5"/>
<path d="M164.16 252.68C165.85 252.8 167.22 251.26 167.22 249.24V225.73C167.22 223.71 165.85 221.98 164.16 221.86C162.47 221.74 161.1 223.28 161.1 225.3V248.81C161.1 250.83 162.47 252.56 164.16 252.68Z" fill="#70D6E0"/>
<path d="M156.3 255.18V253.49C156.3 250.8 158.48 248.78 161.17 248.97L171.11 249.66C173.8 249.85 175.98 252.18 175.98 254.87V256.56L156.3 255.18Z" fill="#1BA1B5"/>
<path d="M152.41 114.29V99.52C152.41 97.91 154.62 97.47 155.24 98.95L161.43 113.72C161.84 114.69 161.12 115.75 160.07 115.75H153.88C153.07 115.76 152.41 115.1 152.41 114.29Z" fill="#1BA1B5"/>
<path d="M142.11 114.29V99.52C142.11 97.91 144.32 97.47 144.94 98.95L151.13 113.72C151.54 114.69 150.82 115.75 149.77 115.75H143.58C142.77 115.76 142.11 115.1 142.11 114.29Z" fill="#1BA1B5"/>
<path d="M155.94 141.07H163.61V182.23H155.94V141.07Z" fill="#1BA1B5"/>
<path d="M129.58 137.69L130.91 123.91C131.45 117.81 136.56 113.13 142.68 113.13L177.46 112.2C183.58 112.2 188.69 116.88 189.23 122.98L190.53 137.69C190.67 139.3 189.4 140.69 187.78 140.69H167.8C166.93 144.47 163.55 147.3 159.5 147.3C155.45 147.3 152.07 144.48 151.2 140.69H132.33C130.71 140.69 129.44 139.3 129.58 137.69Z" fill="#70D6E0"/>
<path d="M165.64 124.26H189.34L190.21 134.12H165.64C163.55 134.12 161.85 132.42 161.85 130.33V128.05C161.85 125.95 163.54 124.26 165.64 124.26Z" fill="#1BA1B5"/>
<path d="M189.41 125.08C187.35 125.09 185.69 126.76 185.69 128.82C185.69 130.89 187.36 132.56 189.43 132.56C189.65 132.56 189.86 132.53 190.07 132.5L189.41 125.08Z" fill="white"/>
<path d="M177.37 132.56C175.3 132.56 173.63 130.89 173.63 128.82C173.63 126.75 175.3 125.08 177.37 125.08C179.44 125.08 181.11 126.75 181.11 128.82C181.11 130.89 179.44 132.56 177.37 132.56Z" fill="white"/>
<path d="M185.86 225.36L134.24 223.26C128.22 223.26 123.49 218.1 124.02 212.1L129.05 157.13C129.2 155.44 130.62 154.14 132.32 154.14H187.95C189.55 154.14 190.89 155.36 191.03 156.96L196.07 214.21C196.61 220.19 191.88 225.36 185.86 225.36Z" fill="#1BA1B5"/>
<path d="M128.47 163.71L129.05 157.11C129.2 155.42 130.62 154.12 132.32 154.12H187.95C189.55 154.12 190.89 155.34 191.03 156.94L191.63 163.71H128.47Z" fill="#70D6E0"/>
<path d="M183.77 160.71C182.78 160.71 181.98 159.91 181.98 158.93C181.98 157.94 182.78 157.15 183.77 157.15C184.76 157.15 185.55 157.95 185.55 158.93C185.55 159.91 184.75 160.71 183.77 160.71Z" fill="white"/>
<path d="M177.19 160.71C176.2 160.71 175.4 159.91 175.4 158.93C175.4 157.94 176.2 157.15 177.19 157.15C178.18 157.15 178.97 157.95 178.97 158.93C178.98 159.91 178.18 160.71 177.19 160.71Z" fill="white"/>
<path d="M170.62 160.71C169.63 160.71 168.83 159.91 168.83 158.93C168.83 157.94 169.63 157.15 170.62 157.15C171.61 157.15 172.4 157.95 172.4 158.93C172.4 159.91 171.6 160.71 170.62 160.71Z" fill="white"/>
<path d="M197.01 165.94C198.48 166.99 198.75 169.09 197.54 170.44C195.01 173.28 190.8 177.04 184.98 179.04C176.85 181.84 168.26 180.46 159.41 174.95C157.91 174.02 157.51 172 158.53 170.56C159.46 169.25 161.25 168.9 162.62 169.74C169.85 174.23 176.69 175.42 182.98 173.25C187.55 171.68 190.9 168.68 192.93 166.41C193.99 165.24 195.73 165.03 197.01 165.94Z" fill="#70D6E0"/>
<path d="M198.27 158.59C202.39 157.72 206.88 151.85 207.27 150.67C207.67 149.48 210.21 148.84 210.52 153.6C210.76 157.24 209.28 163.58 201.5 163.75C198.65 163.81 198.27 158.59 198.27 158.59Z" fill="#70D6E0"/>
<path d="M204.84 162.95L198.54 158.22C197.19 157.21 195.28 157.48 194.27 158.83L189.02 165.83C188.01 167.18 188.28 169.09 189.63 170.1L195.93 174.83C197.28 175.84 199.19 175.57 200.2 174.22L205.45 167.22C206.47 165.88 206.19 163.96 204.84 162.95Z" fill="#9FE4EB"/>
<defs>
<linearGradient id="paint0_linear" x1="454.133" y1="186.146" x2="447.585" y2="219.57" gradientUnits="userSpaceOnUse">
<stop stop-color="#522CD5"/>
<stop offset="0.4397" stop-color="#8A6FE8"/>
</linearGradient>
<linearGradient id="paint1_linear" x1="454.133" y1="186.146" x2="447.585" y2="219.57" gradientUnits="userSpaceOnUse">
<stop stop-color="#522CD5"/>
<stop offset="0.4397" stop-color="#8A6FE8"/>
</linearGradient>
<linearGradient id="paint2_linear" x1="451.105" y1="217.922" x2="433.254" y2="254.21" gradientUnits="userSpaceOnUse">
<stop stop-color="#522CD5"/>
<stop offset="0.4397" stop-color="#8A6FE8"/>
</linearGradient>
<radialGradient id="paint3_radial" cx="0" cy="0" r="1" gradientUnits="userSpaceOnUse" gradientTransform="translate(439.831 247.355) rotate(180) scale(7.62999)">
<stop offset="0.034" stop-color="#522CD5"/>
<stop offset="1" stop-color="#8A6FE8"/>
</radialGradient>
<linearGradient id="paint4_linear" x1="470.041" y1="188.937" x2="463.494" y2="222.36" gradientUnits="userSpaceOnUse">
<stop stop-color="#522CD5"/>
<stop offset="0.4397" stop-color="#8A6FE8"/>
</linearGradient>
<linearGradient id="paint5_linear" x1="470.041" y1="188.937" x2="463.494" y2="222.36" gradientUnits="userSpaceOnUse">
<stop stop-color="#522CD5"/>
<stop offset="0.4397" stop-color="#8A6FE8"/>
</linearGradient>
<linearGradient id="paint6_linear" x1="468.671" y1="220.779" x2="450.523" y2="257.671" gradientUnits="userSpaceOnUse">
<stop stop-color="#522CD5"/>
<stop offset="0.4397" stop-color="#8A6FE8"/>
</linearGradient>
<radialGradient id="paint7_radial" cx="0" cy="0" r="1" gradientUnits="userSpaceOnUse" gradientTransform="translate(455.706 243.726) rotate(180) scale(13.9332)">
<stop offset="0.034" stop-color="#522CD5"/>
<stop offset="0.9955" stop-color="#8A6FE8"/>
</radialGradient>
<radialGradient id="paint8_radial" cx="0" cy="0" r="1" gradientUnits="userSpaceOnUse" gradientTransform="translate(424.958 121.483) rotate(-72.4402) scale(25.5419)">
<stop stop-color="#8065E0"/>
<stop offset="0.8628" stop-color="#512BD4"/>
</radialGradient>
<radialGradient id="paint9_radial" cx="0" cy="0" r="1" gradientUnits="userSpaceOnUse" gradientTransform="translate(478.8 129.449) rotate(-150.882) scale(38.5781)">
<stop offset="0.4744" stop-color="#A08BE8"/>
<stop offset="0.8618" stop-color="#8065E0"/>
</radialGradient>
<radialGradient id="paint10_radial" cx="0" cy="0" r="1" gradientUnits="userSpaceOnUse" gradientTransform="translate(442.129 141.506) rotate(-150.882) scale(29.6374)">
<stop offset="0.2022" stop-color="#E1DFDD"/>
<stop offset="0.7337" stop-color="white"/>
</radialGradient>
<radialGradient id="paint11_radial" cx="0" cy="0" r="1" gradientUnits="userSpaceOnUse" gradientTransform="translate(486.32 109.773) rotate(-150.882) scale(6.67916)">
<stop stop-color="#8065E0"/>
<stop offset="0.8628" stop-color="#512BD4"/>
</radialGradient>
<linearGradient id="paint12_linear" x1="468.491" y1="138.272" x2="416.113" y2="167.16" gradientUnits="userSpaceOnUse">
<stop offset="0.3344" stop-color="#9780E6"/>
<stop offset="0.8488" stop-color="#8A6FE8"/>
</linearGradient>
<radialGradient id="paint13_radial" cx="0" cy="0" r="1" gradientUnits="userSpaceOnUse" gradientTransform="translate(472.523 151.609) rotate(-161.078) scale(12.358)">
<stop stop-color="#8065E0"/>
<stop offset="0.8628" stop-color="#512BD4"/>
</radialGradient>
<radialGradient id="paint14_radial" cx="0" cy="0" r="1" gradientUnits="userSpaceOnUse" gradientTransform="translate(416.897 142.36) rotate(37.2328) scale(14.4435 13.4795)">
<stop stop-color="#8065E0"/>
<stop offset="0.8628" stop-color="#512BD4"/>
</radialGradient>
</defs>
</svg>
