<svg width="636" height="300" viewBox="0 0 636 300" fill="none" xmlns="http://www.w3.org/2000/svg">
<path d="M414.16 258.61L224.16 252.11C220.79 251.99 218.07 248.93 218.07 245.27V120.15C218.07 116.49 220.79 113.4 224.16 113.25L414.16 104.98C418.3 104.8 421.67 107.96 421.67 112.05V251.48C421.66 255.56 418.3 258.76 414.16 258.61Z" fill="#B3AFAB"/>
<path d="M411.3 258.52L221.82 252.04C218.46 251.93 215.75 248.87 215.75 245.21V120.24C215.75 116.58 218.46 113.49 221.82 113.35L411.3 105.1C415.43 104.92 418.78 108.08 418.78 112.16V251.39C418.78 255.47 415.42 258.66 411.3 258.52Z" fill="#625F5B"/>
<path d="M405.94 243.74L226.22 238.93C225.29 238.91 224.54 238.06 224.54 237.05V123.23C224.54 122.22 225.29 121.37 226.22 121.33L405.94 114.33C407.07 114.29 407.98 115.15 407.98 116.27V241.78C407.98 242.89 407.06 243.77 405.94 243.74Z" fill="white"/>
<path d="M165.07 272.31C165.07 270.65 165.07 269.58 165.07 269.03C165.07 268.58 217.1 254.66 217.1 254.66L416.53 257.61V259.86C416.53 259.86 416.48 261.84 414.36 262.53C412.25 263.22 355.74 281.45 355.74 281.45C352.84 282.39 349.79 282.79 346.73 282.64L166.46 273.99C165.32 273.93 165.04 273.35 165.07 272.31Z" fill="#9C9894"/>
<path d="M166.09 270.28L346.74 278.56C349.8 278.7 352.86 278.29 355.75 277.35L416.64 257.57L217.1 250.86L165.76 268.01C164.65 268.38 164.92 270.23 166.09 270.28Z" fill="#CCCAC7"/>
<path d="M272.56 149.75L253.84 150.17C252.77 150.19 251.9 149.28 251.9 148.14C251.9 147 252.77 146.04 253.84 146.02L272.56 145.56C273.65 145.53 274.54 146.45 274.54 147.61C274.54 148.76 273.65 149.72 272.56 149.75Z" fill="#BBB8B4"/>
<path d="M368.11 158.09L346.66 158.46C345.48 158.48 344.52 157.52 344.52 156.31C344.52 155.11 345.48 154.11 346.66 154.09L368.11 153.67C369.32 153.65 370.3 154.62 370.3 155.84C370.3 157.06 369.32 158.07 368.11 158.09Z" fill="#BBB8B4"/>
<path d="M335.96 158.64L296.05 159.32C294.93 159.34 294.02 158.4 294.02 157.23C294.02 156.06 294.93 155.09 296.05 155.07L335.96 154.3C337.13 154.28 338.08 155.23 338.08 156.43C338.08 157.63 337.13 158.62 335.96 158.64Z" fill="#908D89"/>
<path d="M285.35 159.5L265.55 159.84C264.47 159.86 263.59 158.94 263.59 157.78C263.59 156.63 264.47 155.67 265.55 155.65L285.35 155.27C286.46 155.25 287.36 156.18 287.36 157.35C287.36 158.52 286.46 159.48 285.35 159.5Z" fill="#CEDB59"/>
<path d="M383.51 168.4L314.06 169.21C312.92 169.22 311.99 168.27 311.99 167.09C311.99 165.91 312.91 164.93 314.06 164.92L383.51 163.95C384.74 163.93 385.74 164.92 385.74 166.15C385.73 167.38 384.73 168.39 383.51 168.4Z" fill="#BBB8B4"/>
<path d="M302.58 169.34L277.4 169.63C276.3 169.64 275.41 168.71 275.41 167.55C275.41 166.39 276.3 165.43 277.4 165.42L302.58 165.07C303.71 165.05 304.63 166 304.63 167.18C304.63 168.36 303.71 169.33 302.58 169.34Z" fill="#BBB8B4"/>
<path d="M368.11 179.07L335.67 179.27C334.5 179.28 333.56 178.31 333.56 177.11C333.56 175.91 334.51 174.93 335.67 174.92L368.11 174.64C369.32 174.63 370.3 175.61 370.3 176.83C370.3 178.05 369.32 179.07 368.11 179.07Z" fill="#CEDB59"/>
<path d="M324.21 179.35L277.4 179.64C276.3 179.65 275.41 178.71 275.41 177.55C275.41 176.39 276.3 175.44 277.4 175.43L324.21 175.03C325.37 175.02 326.3 175.98 326.3 177.17C326.31 178.36 325.37 179.34 324.21 179.35Z" fill="#BBB8B4"/>
<path d="M319.27 189.65C318.12 189.65 317.19 188.69 317.19 187.5C317.19 186.31 318.12 185.35 319.27 185.34L394.75 185.06C395.99 185.06 397 186.06 397 187.29C397 188.52 395.99 189.53 394.75 189.53L319.27 189.65Z" fill="#908D89"/>
<path d="M309.74 189.61L289.42 189.63C288.31 189.63 287.41 188.68 287.41 187.52C287.41 186.36 288.31 185.4 289.42 185.4L309.74 185.34C310.88 185.34 311.8 186.29 311.8 187.48C311.8 188.65 310.87 189.61 309.74 189.61Z" fill="#BBB8B4"/>
<path d="M386.62 200.14L315.8 199.81C314.66 199.8 313.73 198.84 313.73 197.65C313.73 196.46 314.66 195.51 315.8 195.51L386.62 195.68C387.85 195.68 388.85 196.68 388.85 197.92C388.85 199.15 387.85 200.15 386.62 200.14Z" fill="#BBB8B4"/>
<path d="M304.01 199.76L289.42 199.69C288.31 199.68 287.41 198.73 287.41 197.56C287.41 196.39 288.31 195.45 289.42 195.45L304.01 195.48C305.14 195.48 306.06 196.44 306.06 197.62C306.06 198.81 305.14 199.76 304.01 199.76Z" fill="#CEDB59"/>
<path d="M348.75 210.35L293.22 209.79C292.1 209.78 291.2 208.82 291.2 207.65C291.2 206.48 292.1 205.54 293.22 205.55L348.75 205.98C349.94 205.99 350.9 206.98 350.9 208.19C350.9 209.39 349.93 210.36 348.75 210.35Z" fill="#BBB8B4"/>
<path d="M282.27 209.68L265.55 209.51C264.47 209.5 263.59 208.55 263.59 207.4C263.59 206.25 264.47 205.32 265.55 205.33L282.27 205.46C283.37 205.47 284.27 206.42 284.27 207.59C284.28 208.75 283.38 209.69 282.27 209.68Z" fill="#CEDB59"/>
<path d="M369.94 221.07L313.77 220.2C312.63 220.18 311.7 219.21 311.7 218.02C311.7 216.84 312.62 215.89 313.77 215.9L369.94 216.64C371.15 216.66 372.14 217.66 372.14 218.88C372.14 220.11 371.15 221.09 369.94 221.07Z" fill="#BBB8B4"/>
<path d="M303.72 220.04L277.4 219.63C276.3 219.61 275.41 218.66 275.41 217.5C275.41 216.34 276.3 215.41 277.4 215.42L303.72 215.77C304.85 215.78 305.77 216.75 305.77 217.93C305.77 219.11 304.85 220.06 303.72 220.04Z" fill="#CEDB59"/>
<path d="M334.19 230.82L298.32 230.07C297.2 230.05 296.29 229.08 296.29 227.9C296.29 226.72 297.2 225.79 298.32 225.81L334.19 226.48C335.36 226.5 336.31 227.49 336.31 228.69C336.31 229.89 335.36 230.84 334.19 230.82Z" fill="#908D89"/>
<path d="M287.59 229.84L253.85 229.13C252.78 229.11 251.91 228.16 251.91 227.01C251.91 225.86 252.78 224.95 253.85 224.97L287.59 225.6C288.7 225.62 289.6 226.59 289.6 227.76C289.6 228.93 288.7 229.87 287.59 229.84Z" fill="#BBB8B4"/>
<path d="M245.9 120.57L225.87 121.35C225.13 121.38 224.53 122.05 224.53 122.86V237.43C224.53 238.23 225.13 238.9 225.87 238.92L245.9 239.46V120.57Z" fill="#D5D3D0"/>
<path d="M237.37 150.54L232.77 150.64V146.54L237.37 146.42V150.54Z" fill="#EEEDEC"/>
<path d="M237.37 160.32L232.77 160.4V156.29L237.37 156.2V160.32Z" fill="#EEEDEC"/>
<path d="M237.37 170.1L232.77 170.16V166.05L237.37 165.98V170.1Z" fill="#EEEDEC"/>
<path d="M237.37 179.88L232.77 179.91V175.8L237.37 175.77V179.88Z" fill="#EEEDEC"/>
<path d="M237.37 189.66L232.77 189.67V185.56L237.37 185.55V189.66Z" fill="#EEEDEC"/>
<path d="M237.37 199.45L232.77 199.42V195.32L237.37 195.33V199.45Z" fill="#EEEDEC"/>
<path d="M237.37 209.23L232.77 209.18V205.07L237.37 205.11V209.23Z" fill="#EEEDEC"/>
<path d="M237.37 219.01L232.77 218.94V214.83L237.37 214.89V219.01Z" fill="#EEEDEC"/>
<path d="M237.37 228.79L232.77 228.69V224.58L237.37 224.67V228.79Z" fill="#EEEDEC"/>
<path d="M407.98 125.77V115.86C407.98 114.97 407.25 114.28 406.36 114.32L225.88 121.35C225.14 121.38 224.54 122.05 224.54 122.86V131.85L407.98 125.77Z" fill="#CEDB59"/>
<path d="M387.47 49.2C387.47 72.24 368.95 91.86 346.58 93.01C324.72 94.13 307.37 77.12 307.37 55.03C307.37 32.94 324.72 13.4 346.58 11.34C368.95 9.23998 387.47 26.17 387.47 49.2Z" fill="#6BA8F1"/>
<path d="M386.75 56.97C385.89 56.72 384.97 56.59 383.99 56.61C382.03 56.65 380.12 57.28 378.41 58.33C377.61 51.7 372.81 46.97 366.39 47.14C360.15 47.31 354.29 52.08 351.72 58.48C350.78 57.81 349.64 57.43 348.36 57.46C347.44 57.48 346.53 57.71 345.68 58.11C345.68 58.11 344.88 66.79 344.47 66.84C344.47 66.81 344.48 66.78 344.48 66.76C344.72 60.85 340.61 54.56 335.83 55.22C334.27 55.44 332.8 56.16 331.51 57.22C330.58 52.23 325.79 50.01 321.55 50.64C316.58 51.38 312.21 56.02 310.59 61.81C310.05 61.47 308.92 61.33 307.87 61.41C310.82 80.29 326.86 94.04 346.58 93.03C366.36 92 383.13 76.52 386.75 56.97Z" fill="url(#paint0_linear)"/>
<path d="M346.31 84.32C346.7 83.75 353.36 73.85 353.35 67.33C353.35 60.68 346.42 58.41 346.28 58.36C346.14 58.42 339.27 61.64 339.28 68.24C339.28 74.71 345.9 83.78 346.29 84.31V84.34L346.3 84.33L346.31 84.34V84.32Z" fill="#F7B548"/>
<path d="M346.01 60C346.01 60 342.46 62.82 341.5 67.01C341.15 68.53 341.5 71.17 341.5 71.17L343.03 69.63C343.03 69.63 343.21 72.03 344.77 73.96C346.34 75.89 346.34 78.43 346.34 78.43C346.34 78.43 348.21 76.08 348.83 74.57C350.27 71.04 349 67.49 349 67.49C349 67.49 350.75 68.63 351.23 69.5C351.31 67.66 351.7 62.58 346.01 60Z" fill="#FFE5B9"/>
<path d="M356.17 42.39L363.94 50.74L362.64 68.3L360.65 68.43C360.65 68.43 358.55 60.31 352.5 57.47C347.87 55.3 356.17 42.39 356.17 42.39Z" fill="#B2B2B2"/>
<path d="M336.74 43.91L329.2 53.29L330.48 70.37L332.41 70.25C332.41 70.25 334.44 61.97 340.38 58.32C344.97 55.51 336.74 43.91 336.74 43.91Z" fill="#6D6A66"/>
<path d="M356.17 42.39L363.94 50.74L362.64 68.3L360.65 68.43C360.65 68.43 358.55 60.31 352.5 57.47C347.87 55.3 356.17 42.39 356.17 42.39Z" fill="#6D6A66"/>
<path d="M356.57 18.94C352.72 8.13 346.35 4.8 346.25 4.75C346.15 4.82 339.83 9.37 336.07 20.79C332.29 32.25 334.7 49.55 338.49 58.74C339.77 61.84 346.19 61.58 346.29 61.57C346.39 61.56 352.85 60.94 354.15 57.64C358.01 47.8 360.46 29.88 356.57 18.94Z" fill="#3E8EED"/>
<path d="M356.57 18.94C352.72 8.13 346.35 4.8 346.25 4.75C346.15 4.82 339.83 9.37 336.07 20.79C332.29 32.25 334.7 49.55 338.49 58.74C339.77 61.84 346.19 61.58 346.29 61.57C346.39 61.56 352.85 60.94 354.15 57.64C358.01 47.8 360.46 29.88 356.57 18.94Z" fill="white"/>
<path d="M355.59 16.49C355.42 16.1 355.25 15.71 355.08 15.35C354.98 15.13 354.87 14.93 354.77 14.73C354.61 14.41 354.45 14.09 354.28 13.79C354.17 13.58 354.05 13.39 353.94 13.19C353.78 12.91 353.62 12.63 353.46 12.36C353.34 12.17 353.23 11.99 353.11 11.81C352.95 11.56 352.79 11.31 352.63 11.07C352.52 10.9 352.4 10.74 352.29 10.58C352.13 10.35 351.97 10.13 351.8 9.92003C351.69 9.77003 351.58 9.63003 351.47 9.49003C351.31 9.29003 351.15 9.09003 350.99 8.90003C350.88 8.78003 350.78 8.65003 350.68 8.53003C350.52 8.34003 350.36 8.17003 350.2 8.00003C350.1 7.90003 350.01 7.79003 349.91 7.70003C349.75 7.53003 349.59 7.37003 349.43 7.22003C349.35 7.14003 349.26 7.06003 349.18 6.98003C349.02 6.82003 348.86 6.68003 348.71 6.55003C348.65 6.49003 348.58 6.43003 348.52 6.38003C348.34 6.23003 348.18 6.09003 348.02 5.97003C347.99 5.94003 347.95 5.91003 347.92 5.88003C347.54 5.58003 347.21 5.34003 346.95 5.17003C346.9 5.13003 346.86 5.11003 346.81 5.08003C346.74 5.04003 346.67 4.99003 346.62 4.96003C346.56 4.92003 346.52 4.90003 346.47 4.87003C346.45 4.86003 346.43 4.85003 346.41 4.84003C354.84 23.12 357.68 41.16 351.52 60.16C352.69 59.58 353.73 58.77 354.16 57.66C358.02 47.81 360.47 29.9 356.58 18.96C356.35 18.31 356.11 17.68 355.86 17.08C355.76 16.86 355.67 16.68 355.59 16.49Z" fill="#DDDBDA"/>
<path d="M350.94 26.75C350.94 29.38 348.85 31.7 346.27 31.91C343.7 32.13 341.62 30.18 341.61 27.55C341.61 24.93 343.69 22.62 346.26 22.39C348.85 22.17 350.94 24.12 350.94 26.75Z" fill="#F7B548"/>
<path d="M346.28 43.88C346.27 43.88 346.27 43.88 346.27 43.88C345.02 44.02 343.67 51.27 343.67 51.27L345.9 69.38L346.04 69.37L346.62 69.33H346.69L348.9 50.89C348.9 50.89 347.53 43.83 346.28 43.88Z" fill="#6D6A66"/>
<path d="M346.37 17.14C349.48 16.85 352.37 16 354.79 14.76C351.03 7.25 346.34 4.8 346.25 4.75C346.17 4.81 341.53 8.15 337.84 16.25C340.26 17.08 343.19 17.43 346.37 17.14Z" fill="#C4C1BE"/>
<path d="M350.88 16.3C352.28 15.9 353.6 15.38 354.79 14.76C351.37 7.94002 347.19 5.29002 346.39 4.83002C348.38 8.54002 349.84 12.39 350.88 16.3Z" fill="#9C9894"/>
<path d="M388.86 209.46V75.24C388.86 73.99 389.87 72.92 391.12 72.85L493.9 66.63C495.29 66.55 496.41 67.54 496.41 68.86V210.48C496.41 211.8 495.28 212.85 493.9 212.83L391.12 211.74C389.88 211.73 388.86 210.7 388.86 209.46Z" fill="#625F5B"/>
<path d="M397.28 201.12V83.16C397.28 82.76 397.6 82.43 398 82.4L486.34 77.5C486.78 77.48 487.13 77.79 487.13 78.21V201.59C487.13 202 486.78 202.34 486.34 202.34L398 201.84C397.61 201.84 397.28 201.52 397.28 201.12Z" fill="#8DBCF4"/>
<path d="M403.32 195.36V101.69C403.32 101.29 403.64 100.96 404.05 100.94L479.8 97.47C480.23 97.45 480.58 97.77 480.58 98.18V195.53C480.58 195.94 480.23 196.28 479.8 196.28L404.05 196.09C403.64 196.08 403.32 195.76 403.32 195.36Z" fill="white"/>
<path d="M462.79 92.81L451.61 93.35C450.56 93.4 450.07 92.73 450.07 91.93C450.07 87.61 446.29 84.34 441.81 84.58C437.4 84.81 433.63 88.39 433.63 92.63C433.63 93.34 433.46 94.24 432.02 94.3L420.97 94.84C419.76 94.9 418.78 95.91 418.78 97.1V105.37C418.78 106.56 419.76 107.48 420.97 107.43L462.79 105.67C464.06 105.62 465.08 104.59 465.08 103.37V94.9C465.08 93.68 464.06 92.74 462.79 92.81ZM441.82 89.34C443.66 89.25 445.15 90.62 445.15 92.4C445.15 94.19 443.66 95.7 441.82 95.79C439.99 95.88 438.5 94.51 438.5 92.73C438.5 90.95 439.98 89.43 441.82 89.34Z" fill="#FBC977"/>
<path d="M418.78 103.82V105.37C418.78 106.56 419.76 107.48 420.97 107.43L462.79 105.67C464.06 105.62 465.08 104.59 465.08 103.37V101.78L418.78 103.82Z" fill="#EEAB42"/>
<path d="M451.1 122.39L412.42 123.71V120.52L451.1 119.14V122.39Z" fill="#C4C1BE"/>
<path d="M451.1 136.53L412.42 137.58V134.4L451.1 133.29V136.53Z" fill="#C4C1BE"/>
<path d="M451.1 150.68L412.42 151.46V148.27L451.1 147.43V150.68Z" fill="#C4C1BE"/>
<path d="M451.1 164.83L412.42 165.33V162.15L451.1 161.58V164.83Z" fill="#C4C1BE"/>
<path d="M451.1 178.97L412.42 179.21V176.02L451.1 175.73V178.97Z" fill="#C4C1BE"/>
<path d="M494.1 139.84C494.1 141.28 492.86 142.48 491.34 142.52C489.82 142.56 488.59 141.42 488.59 139.98C488.59 138.54 489.82 137.34 491.34 137.3C492.87 137.25 494.1 138.39 494.1 139.84Z" fill="#84817D"/>
<path d="M471.23 120.05C471.23 122.66 469.02 124.85 466.31 124.93C463.6 125.02 461.41 122.99 461.41 120.39C461.41 117.79 463.6 115.61 466.31 115.51C469.03 115.4 471.23 117.44 471.23 120.05Z" fill="#549BEF"/>
<path d="M471.23 134.26C471.23 136.87 469.02 139.04 466.31 139.11C463.6 139.18 461.41 137.13 461.41 134.53C461.41 131.93 463.6 129.76 466.31 129.68C469.03 129.6 471.23 131.65 471.23 134.26Z" fill="#C4C1BE"/>
<path d="M471.23 148.47C471.23 151.08 469.02 153.23 466.31 153.28C463.6 153.33 461.41 151.27 461.41 148.67C461.41 146.07 463.6 143.92 466.31 143.86C469.03 143.8 471.23 145.86 471.23 148.47Z" fill="#549BEF"/>
<path d="M471.23 162.68C471.23 165.29 469.02 167.43 466.31 167.46C463.6 167.49 461.41 165.41 461.41 162.82C461.41 160.23 463.6 158.08 466.31 158.04C469.03 157.99 471.23 160.07 471.23 162.68Z" fill="#C4C1BE"/>
<path d="M471.23 176.89C471.23 179.5 469.02 181.62 466.31 181.64C463.6 181.65 461.41 179.56 461.41 176.96C461.41 174.36 463.6 172.24 466.31 172.21C469.03 172.19 471.23 174.29 471.23 176.89Z" fill="#C4C1BE"/>
<path d="M510.66 104.64L484.67 138.09L474.04 130.74L499.76 97.37L510.66 104.64Z" fill="#F7B548"/>
<path d="M484.67 138.09L471.88 143.61L474.04 130.74L484.67 138.09Z" fill="#D5D3D0"/>
<path d="M478.13 140.91L471.88 143.61L472.93 137.3L478.13 140.91Z" fill="#797673"/>
<path d="M510.73 104.55L484.67 138.09L480.56 135.25L506.51 101.74L510.73 104.55Z" fill="#E29E3B"/>
<path d="M499.61 97.56L504.57 91.12C505.36 90.09 506.86 89.82 507.92 90.52L515.05 95.23C516.11 95.93 516.33 97.34 515.52 98.37L510.5 104.83L499.61 97.56Z" fill="#9C9894"/>
<path d="M242.25 104.96L171.29 108.35C169.05 108.46 167.25 106.51 167.25 104V47.65C167.25 45.14 169.06 42.95 171.29 42.76L242.25 36.69C244.68 36.48 246.65 38.44 246.65 41.06V100C246.66 102.63 244.68 104.85 242.25 104.96Z" fill="#CEDB59"/>
<path d="M246.66 49.7V41.48C246.66 38.63 244.52 36.5 241.88 36.73L171.65 42.74C169.22 42.95 167.25 45.33 167.25 48.05V55.91L246.66 49.7Z" fill="#A8B82F"/>
<path d="M184.05 36.62L179.44 37.03V49.61L184.05 49.24V36.62Z" fill="#9C9894"/>
<path d="M233.33 32.26L228.44 32.7V45.63L233.33 45.24V32.26Z" fill="#9C9894"/>
<path d="M187.44 90.76L178.37 91.28V101.37L187.44 100.91V90.76Z" fill="white"/>
<path d="M203.06 89.86L193.82 90.39V100.58L203.06 100.1V89.86Z" fill="white"/>
<path d="M218.95 88.95L209.55 89.49V99.77L218.95 99.28V88.95Z" fill="white"/>
<path d="M235.14 88.02L225.57 88.57V98.94L235.14 98.45V88.02Z" fill="white"/>
<path d="M187.44 75.45L178.37 76.05V86.14L187.44 85.6V75.45Z" fill="white"/>
<path d="M203.06 74.42L193.82 75.03V85.21L203.06 84.65V74.42Z" fill="white"/>
<path d="M218.95 73.37L209.55 73.99V84.26L218.95 83.7V73.37Z" fill="white"/>
<path d="M235.14 72.3L225.57 72.93V83.3L235.14 82.72V72.3Z" fill="white"/>
<path d="M203.06 58.97L193.82 59.66V69.84L203.06 69.21V58.97Z" fill="#9C9894"/>
<path d="M218.95 57.78L209.55 58.48V68.76L218.95 68.11V57.78Z" fill="white"/>
<path d="M235.14 56.57L225.57 57.28V67.65L235.14 66.99V56.57Z" fill="white"/>
<path d="M136.73 232.23L100.41 231.35C98 231.29 96.05 228.96 96.05 226.14V139.36C96.05 136.54 98 134.19 100.41 134.11L136.73 132.87C139.25 132.78 141.3 135.06 141.3 137.95V227.1C141.31 230 139.26 232.29 136.73 232.23Z" fill="#444444"/>
<path d="M135.54 228.5L101.56 227.75C100.24 227.72 99.17 226.45 99.17 224.9V139.92C99.17 138.38 100.24 137.09 101.56 137.05L135.54 135.95C136.92 135.91 138.04 137.15 138.04 138.73V225.69C138.04 227.28 136.92 228.53 135.54 228.5Z" fill="#76AFF2"/>
<path d="M125.11 226.35L111.8 226.07C111.5 226.06 111.25 225.77 111.25 225.42C111.25 225.07 111.5 224.79 111.8 224.79L125.11 225.06C125.42 225.07 125.67 225.36 125.67 225.72C125.67 226.07 125.42 226.36 125.11 226.35Z" fill="#7F7F7F"/>
<path d="M138.04 147.45V138.73C138.04 137.15 136.92 135.9 135.54 135.95L101.56 137.05C100.24 137.09 99.17 138.38 99.17 139.92V148.44L138.04 147.45Z" fill="#2980E7"/>
<path d="M107.16 136.87V138.24C107.16 139.76 108.22 140.97 109.53 140.93L128.17 140.37C129.51 140.33 130.6 139.05 130.6 137.5V136.11L107.16 136.87Z" fill="#444444"/>
<path d="M125.46 137.83C125.46 138.36 125.09 138.79 124.64 138.81C124.19 138.82 123.82 138.41 123.82 137.89C123.82 137.37 124.19 136.93 124.64 136.91C125.09 136.89 125.46 137.3 125.46 137.83Z" fill="#A7A4A0"/>
<path d="M115.56 139.06L121.28 138.88C121.74 138.87 122.11 138.43 122.11 137.9C122.11 137.37 121.74 136.96 121.28 136.97L115.56 137.15C115.11 137.16 114.74 137.6 114.74 138.13C114.74 138.66 115.11 139.07 115.56 139.06Z" fill="#A7A4A0"/>
<path d="M132.78 178.64L104.05 178.85V169.22L132.78 168.84V178.64Z" fill="white"/>
<path d="M132.78 193.83L104.05 193.79V184.16L132.78 184.04V193.83Z" fill="#2980E7"/>
<path d="M109.85 159.82C109.85 161.59 108.62 163.04 107.11 163.07C105.6 163.1 104.38 161.69 104.38 159.93C104.38 158.17 105.6 156.72 107.11 156.68C108.62 156.64 109.85 158.05 109.85 159.82Z" fill="#FFE5B9"/>
<path d="M121.26 159.61C121.26 161.39 120.01 162.85 118.48 162.88C116.95 162.91 115.71 161.49 115.71 159.72C115.71 157.95 116.95 156.48 118.48 156.45C120.01 156.41 121.26 157.83 121.26 159.61Z" fill="#FFE5B9"/>
<path d="M132.81 159.39C132.81 161.18 131.55 162.65 129.99 162.68C128.44 162.71 127.18 161.28 127.18 159.49C127.18 157.7 128.44 156.23 129.99 156.2C131.55 156.17 132.81 157.6 132.81 159.39Z" fill="#FFE5B9"/>
<path d="M202.85 151.91L199.76 142.62L167.07 143.52C165.48 143.56 164.19 145.05 164.19 146.84V217.36L242.6 218.56V154.68C242.6 152.67 241.09 151.07 239.22 151.11L202.85 151.91Z" fill="#F9C163"/>
<path d="M238.28 209.36L167.78 208.64L160.61 162.82L230.51 161.67L238.28 209.36Z" fill="#FFF2DC"/>
<path d="M233.04 155.02L162.24 156.44C160.36 156.48 158.87 157.73 158.54 159.56L163.96 217.35L242.35 218.55L236.32 158.68C236.67 156.85 234.99 154.98 233.04 155.02Z" fill="#EEAB42"/>
<path d="M230.19 181.64L166.27 181.97L166.52 183.58L180.76 183.52L188.77 193.23L213.73 193.26L217.67 183.36L230.46 183.3L230.19 181.64ZM212.61 191.61L189.25 191.6L182.58 183.52L215.89 183.38L212.61 191.61Z" fill="white"/>
<path d="M190.57 192.27C190.73 193.28 190.12 194.1 189.21 194.1C188.3 194.1 187.44 193.28 187.28 192.27C187.12 191.26 187.73 190.44 188.63 190.44C189.54 190.44 190.41 191.26 190.57 192.27Z" fill="#908D89"/>
<path d="M214.68 192.29C214.85 193.32 214.22 194.15 213.29 194.14C212.36 194.14 211.47 193.31 211.3 192.28C211.14 191.26 211.76 190.43 212.69 190.43C213.63 190.43 214.52 191.26 214.68 192.29Z" fill="#908D89"/>
<path d="M231.49 182.52C231.66 183.55 231.02 184.4 230.07 184.4C229.12 184.4 228.21 183.57 228.04 182.54C227.87 181.51 228.51 180.67 229.46 180.66C230.41 180.65 231.32 181.48 231.49 182.52Z" fill="#908D89"/>
<defs>
<linearGradient id="paint0_linear" x1="347.309" y1="47.1364" x2="347.309" y2="93.0687" gradientUnits="userSpaceOnUse">
<stop stop-color="#CAE0FA"/>
<stop offset="0.6112" stop-color="#BDD8F9"/>
</linearGradient>
</defs>
</svg>
