<svg width="636" height="300" viewBox="0 0 636 300" fill="none" xmlns="http://www.w3.org/2000/svg">
<path d="M346.49 233.77L530.5 242.2C533.29 242.32 535.61 240.11 535.61 237.32L535.82 105.87C535.82 103.13 533.56 100.92 530.82 100.97L346.79 104.64C344.14 104.69 342 106.87 342 109.52L341.81 228.86C341.82 231.49 343.86 233.66 346.49 233.77Z" fill="url(#paint0_radial)"/>
<path d="M535.8 118.85L535.82 105.88C535.82 103.14 533.56 100.93 530.82 100.98L346.79 104.65C344.14 104.7 342 106.88 342 109.53L341.98 120.2L535.8 118.85Z" fill="#797672"/>
<path d="M389.67 108.58L373.77 108.67V114.85L389.67 114.76V108.58Z" fill="#DDDBDA"/>
<path d="M524.73 107.25L419.99 108.3V114.48L524.73 113.41V107.25Z" fill="#DDDBDA"/>
<path d="M361.39 150.4L217.17 149.91C214.31 149.91 212.01 147.59 212.01 144.73L212.2 32.41C212.2 29.69 214.34 27.41 217.06 27.25L361.28 18.16C364.26 17.97 366.79 20.34 366.79 23.34L366.6 145.21C366.57 148.08 364.25 150.4 361.39 150.4Z" fill="#DDF3FF"/>
<path d="M450.84 138.69C444.33 138.69 437.89 140.13 432 142.92C426.12 145.71 420.91 149.75 416.77 154.77C416.1 153.28 415.51 151.77 415.05 150.22C414.33 147.18 412.82 148.52 412.49 150.45C412.23 151.91 411.7 159.35 411.3 163.18C407.02 171.78 405.67 181.51 407.44 190.95C409.21 200.38 414.02 208.98 421.11 215.42C428.2 221.88 437.22 225.85 446.78 226.71C456.34 227.59 465.92 225.34 474.07 220.27C482.23 215.2 488.51 207.63 491.97 198.68C495.44 189.73 495.88 179.91 493.25 170.68C490.62 161.46 485.04 153.35 477.39 147.56C469.76 141.8 460.42 138.69 450.84 138.69ZM450.84 141.6C458.35 141.6 465.72 143.64 472.14 147.55C469.3 147.22 465.42 146.92 463.26 146.76C463.17 146.76 463.1 146.78 463.03 146.83C462.96 146.88 462.91 146.95 462.89 147.04C462.87 147.11 462.87 147.2 462.91 147.27C462.93 147.34 463 147.41 463.07 147.46L470.23 151.5C470.35 151.57 470.44 151.66 470.49 151.76C470.56 151.88 470.58 151.99 470.58 152.13C470.58 152.25 470.53 152.39 470.46 152.48C470.39 152.6 470.3 152.67 470.18 152.74L467.88 153.86C467.74 153.93 467.62 154.02 467.55 154.14C467.48 154.26 467.43 154.42 467.43 154.56C467.43 154.7 467.48 154.86 467.55 154.98C467.62 155.1 467.74 155.21 467.88 155.26C471.37 156.86 479.81 161.3 482.6 167.81C482.62 167.9 482.65 167.97 482.65 168.07C482.65 168.16 482.6 168.23 482.56 168.33C482.51 168.4 482.44 168.47 482.37 168.52C482.3 168.57 482.21 168.59 482.11 168.59C481.25 168.59 480.39 168.59 479.79 168.59C479.7 168.59 479.6 168.61 479.51 168.64C479.42 168.69 479.35 168.73 479.28 168.8C479.21 168.87 479.16 168.96 479.14 169.06C479.12 169.15 479.12 169.25 479.12 169.34C479.82 173.8 479.84 178.33 479.17 182.79C479.15 182.88 479.1 182.98 479.05 183.05C478.98 183.12 478.91 183.17 478.82 183.21C478.73 183.23 478.63 183.26 478.54 183.23C478.45 183.21 478.35 183.18 478.28 183.14C477.77 182.79 477.26 182.44 476.84 182.19C476.77 182.14 476.68 182.12 476.56 182.1C476.47 182.1 476.37 182.12 476.28 182.15C476.19 182.2 476.12 182.24 476.07 182.34C476.02 182.41 475.98 182.5 475.98 182.6C475.47 186.67 472.19 203.47 452.22 203.79C441.67 203.95 438.27 198.45 438.27 198.45C441.32 198.68 444.38 198.45 447.36 197.8C450.36 196.99 455.55 192.87 457.99 191.25C458.25 191.09 458.43 190.81 458.5 190.51C458.57 190.21 458.52 189.88 458.36 189.63C457.41 188.03 455.1 185.24 451.08 186.77C448.06 187.93 444.75 190.3 439.15 189.21C434.66 188.33 432.45 184.01 432.18 181.33C432.16 181.07 432.18 180.8 432.25 180.56C432.32 180.3 432.46 180.07 432.64 179.89C432.8 179.68 433.04 179.54 433.27 179.43C433.5 179.31 433.76 179.27 434.04 179.24L437.78 179.08C438.01 179.08 438.22 179.01 438.43 178.92C438.64 178.83 438.82 178.69 438.96 178.5C439.1 178.34 439.22 178.13 439.29 177.9C439.36 177.69 439.38 177.46 439.34 177.23L439.15 175.72C439.08 175.14 439.15 174.54 439.36 173.98C439.57 173.42 439.9 172.93 440.34 172.54L449.22 164.38C449.34 164.26 449.43 164.12 449.45 163.96C449.5 163.8 449.47 163.63 449.4 163.5C449.33 163.36 449.24 163.22 449.1 163.13C448.96 163.04 448.8 162.99 448.63 162.99C446 163.06 442.91 163.32 440.03 163.43C437.57 163.52 437.96 162.99 436.82 161.36C435.68 159.73 436.42 157.99 438.52 155.39C440.64 152.79 439.15 152.09 437.43 152.88C434.87 154.06 430.57 158.02 428.55 157.57C425.36 157.08 422.16 156.83 418.95 156.78C422.81 152.06 427.67 148.25 433.18 145.63C438.7 142.97 444.73 141.6 450.84 141.6Z" fill="#DF972B"/>
<path d="M366.76 33.71L366.78 23.35C366.78 20.35 364.27 17.98 361.27 18.17L217.05 27.23C214.33 27.39 212.19 29.65 212.19 32.39L212.17 41.34L366.76 33.71Z" fill="#9C9894"/>
<path d="M222.09 36.45C220.93 36.45 219.95 35.5 219.95 34.31C219.95 33.15 220.9 32.17 222.09 32.17C223.25 32.17 224.23 33.12 224.23 34.31C224.23 35.5 223.28 36.45 222.09 36.45Z" fill="#F2F1F0"/>
<path d="M229.67 36.13C228.51 36.13 227.53 35.18 227.53 33.99C227.53 32.83 228.48 31.85 229.67 31.85C230.83 31.85 231.81 32.8 231.81 33.99C231.79 35.17 230.84 36.13 229.67 36.13Z" fill="#F2F1F0"/>
<path d="M249.13 30.23L237.39 30.86V35.37L249.13 34.74V30.23Z" fill="#F2F1F0"/>
<path d="M343.16 24.9L266.6 29.08V33.59L343.16 29.41V24.9Z" fill="#F2F1F0"/>
<path d="M352.04 24.32V28.83L357.55 28.53V24.02L352.04 24.32Z" fill="#F2F1F0"/>
<path d="M379.72 273.13C358.52 274.97 329.01 273.78 313.11 269.18C309.95 268.27 308.88 267.27 308.88 265.14L309.11 136.32C309.11 134.09 311.13 132.28 313.62 132.28L380.23 132.19C382.74 132.19 384.76 134 384.76 136.26L384.53 269.12C384.53 271.44 383.95 272.67 379.72 273.13Z" fill="#605D5A"/>
<path d="M377.82 259.98L315.51 256.29C314.93 256.27 314.46 255.83 314.46 255.29L314.67 148.17C314.67 147.61 315.16 147.17 315.79 147.17L378.1 147.08C378.7 147.08 379.22 147.52 379.22 148.08L379 258.98C379 259.56 378.47 260.01 377.82 259.98Z" fill="#98C2F5"/>
<path d="M347.33 140.22C348.31 140.22 349.1 139.57 349.1 138.78C349.1 137.98 348.31 137.34 347.33 137.34C346.35 137.34 345.56 137.98 345.56 138.78C345.57 139.58 346.36 140.22 347.33 140.22Z" fill="#908D89"/>
<path d="M321.85 140.22C322.83 140.22 323.62 139.57 323.62 138.78C323.62 137.98 322.83 137.34 321.85 137.34C320.87 137.34 320.08 137.98 320.08 138.78C320.08 139.58 320.88 140.22 321.85 140.22Z" fill="#908D89"/>
<path d="M347.29 222.46C362.21 222.46 374.31 210.09 374.31 194.83C374.31 179.57 362.21 167.2 347.29 167.2C332.37 167.2 320.27 179.57 320.27 194.83C320.27 210.09 332.37 222.46 347.29 222.46Z" fill="white"/>
<path d="M347.29 203.91C352.2 203.91 356.17 199.84 356.17 194.82C356.17 189.8 352.19 185.73 347.29 185.73C342.38 185.73 338.41 189.8 338.41 194.82C338.41 199.85 342.38 203.91 347.29 203.91Z" fill="#D8F3FE"/>
<path d="M322.85 197.18L322.76 190.95L329.78 194.13L322.85 197.18Z" fill="#E3646A"/>
<path d="M371.77 198.15L371.86 191.9L364.84 195.11L371.77 198.15Z" fill="#E3646A"/>
<path d="M344.38 169.69L350.63 169.6L347.42 176.62L344.38 169.69Z" fill="#E3646A"/>
<path d="M343.8 219.95L350.05 220.04L346.84 213.02L343.8 219.95Z" fill="#E3646A"/>
<path d="M327.9 207.75L349.64 198.13L365.87 180.52L344.34 190.88L327.9 207.75Z" fill="#9C9894"/>
<path d="M239.62 198.24L99.37 194.38C96.86 194.31 94.86 192.24 94.86 189.73L95.02 81.96C95.02 79.47 97 77.43 99.46 77.34L239.73 71.86C242.36 71.77 244.54 73.86 244.54 76.48L244.35 193.59C244.38 196.22 242.22 198.31 239.62 198.24Z" fill="#F4F3F2"/>
<path d="M244.55 90.87L244.57 76.49C244.57 73.86 242.38 71.75 239.76 71.87L99.49 77.37C97 77.46 95.05 79.51 95.03 81.99L95 94.45L244.55 90.87Z" fill="#6BA8F1"/>
<path d="M103.18 89.8899C101.76 89.8899 100.58 88.7299 100.58 87.2899C100.58 85.8699 101.74 84.6899 103.18 84.6899C104.6 84.6899 105.78 85.8499 105.78 87.2899C105.79 88.7299 104.63 89.8899 103.18 89.8899Z" fill="#A3C9F6"/>
<path d="M112.41 89.73C110.99 89.73 109.81 88.57 109.81 87.13C109.81 85.71 110.97 84.53 112.41 84.53C113.83 84.53 115.01 85.69 115.01 87.13C115 88.57 113.83 89.73 112.41 89.73Z" fill="#A3C9F6"/>
<path d="M121.78 89.47C120.36 89.47 119.18 88.31 119.18 86.87C119.18 85.45 120.34 84.27 121.78 84.27C123.2 84.27 124.38 85.43 124.38 86.87C124.39 88.31 123.23 89.47 121.78 89.47Z" fill="#A3C9F6"/>
<path d="M214.62 81.11L132.22 83.78V89.12L214.62 86.42V81.11Z" fill="white"/>
<path d="M235.5 85.99L228.04 86.15V80.71L235.5 80.55V85.99Z" fill="#A3C9F6"/>
<path d="M169.66 155.21C176.66 155.21 182.31 149.84 182.31 143.24C182.31 136.62 176.64 131.27 169.66 131.27C162.69 131.27 157.01 136.64 157.01 143.24C156.99 149.84 162.66 155.21 169.66 155.21Z" fill="#6BAFE9"/>
<path d="M152.94 140.59C153.52 136.78 155.52 133.32 158.59 130.81C161.66 128.3 165.59 126.91 169.63 126.91C170.16 126.91 201.23 126.98 201.23 126.98C198.42 121.98 194.32 117.73 189.35 114.62C184.35 111.51 178.61 109.62 172.66 109.14C166.71 108.68 160.71 109.6 155.22 111.88C149.73 114.16 144.97 117.71 141.32 122.17L152.94 140.59Z" fill="#E96F5F"/>
<path d="M180.61 131.18C182.45 132.69 183.93 134.55 184.96 136.64C185.98 138.73 186.52 141.01 186.52 143.31C186.54 146.17 185.75 149 184.22 151.47L166.04 176.98C167.23 177.1 168.43 177.14 169.64 177.14C175.43 177.14 181.15 175.82 186.29 173.26C191.43 170.7 195.82 167.01 199.12 162.5C202.42 157.99 204.49 152.79 205.19 147.33C205.89 141.89 205.17 136.36 203.1 131.23L180.61 131.18Z" fill="#F2D850"/>
<path d="M174.33 158.32C172.82 158.74 171.24 158.95 169.66 158.95C163.38 158.95 158.22 155.86 155.01 150.91L138.83 125.79C135.97 130.37 134.3 135.53 133.95 140.85C133.6 146.17 134.58 151.47 136.79 156.37C139.02 161.25 142.42 165.57 146.74 168.99C151.06 172.41 156.18 174.8 161.64 175.98L174.33 158.32Z" fill="#8DE265"/>
<path d="M316.48 109.73C315.52 110.23 314.51 110.69 313.47 111.08C310.33 112.26 306.86 112.93 303.2 112.93C289.66 112.93 277.86 103.61 277.86 91.66C277.86 88.3 279.8 85.39 282.56 83.85C270.31 84.36 267.17 97.13 267.17 104.61C267.17 125.75 286.65 127.9 290.85 127.9C293.11 127.9 296.53 127.24 298.59 126.6C298.72 126.56 298.84 126.52 298.97 126.47C306.91 123.73 313.62 118.34 318.03 111.35C318.64 110.34 317.53 109.18 316.48 109.73Z" fill="url(#paint1_linear)"/>
<path d="M280.61 124.29C278.06 122.71 275.86 120.63 274.1 118.17C271.39 114.37 269.77 109.69 269.77 104.6C269.77 97.12 273.25 90.5 278.62 86.3C279.84 85.35 281.4 84.39 282.55 83.84C283.44 83.42 284.97 82.66 287 82.68C290.36 82.73 292.9 84.44 294.35 86.39C295.46 87.89 296.15 89.73 296.17 91.73C296.17 91.67 303.17 68.95 273.26 68.95C260.7 68.95 250.36 80.87 250.36 91.33C250.36 97.96 251.9 103.26 253.83 107.36C258.12 116.5 266.08 123.58 275.82 126.7C279.35 127.83 283.1 128.44 287 128.44C291.05 128.44 294.94 127.77 298.58 126.56C296.52 127.21 294.34 127.56 292.08 127.56C287.88 127.58 283.96 126.36 280.61 124.29Z" fill="url(#paint2_linear)"/>
<path d="M293.95 97.8C293.72 98.1 293 98.5099 293 99.4199C293 100.17 293.49 100.88 294.35 101.49C298.47 104.36 306.22 103.97 306.24 103.97C309.44 103.96 312.32 103.08 314.9 101.57C316.07 100.88 317.16 100.07 318.14 99.1399C321.5 95.95 323.55 91.44 323.61 86.44C323.68 80.03 321.33 75.76 320.37 73.87C314.31 62.02 301.21 55.2 286.98 55.2C266.92 55.2 250.63 71.3199 250.36 91.3099C250.5 80.8499 260.89 72.41 273.24 72.41C274.24 72.41 279.95 72.51 285.26 75.29C289.93 77.74 292.38 80.71 294.09 83.65C295.86 86.7 296.17 90.5599 296.17 92.0999C296.17 93.6399 295.4 95.92 293.95 97.8Z" fill="url(#paint3_linear)"/>
<defs>
<radialGradient id="paint0_radial" cx="0" cy="0" r="1" gradientUnits="userSpaceOnUse" gradientTransform="translate(416.965 22.6186) scale(144.303 144.213)">
<stop stop-color="#FFE3B3"/>
<stop offset="1" stop-color="#F7B548"/>
</radialGradient>
<linearGradient id="paint1_linear" x1="267.159" y1="105.868" x2="318.192" y2="105.868" gradientUnits="userSpaceOnUse">
<stop offset="1" stop-color="#114A8B"/>
</linearGradient>
<linearGradient id="paint2_linear" x1="294.064" y1="83.7281" x2="262.187" y2="118.45" gradientUnits="userSpaceOnUse">
<stop stop-color="#1B9DE2"/>
<stop offset="0.1616" stop-color="#1595DF"/>
<stop offset="0.6675" stop-color="#0680D7"/>
<stop offset="1" stop-color="#0078D4"/>
</linearGradient>
<linearGradient id="paint3_linear" x1="250.362" y1="79.5964" x2="323.618" y2="79.5964" gradientUnits="userSpaceOnUse">
<stop offset="0.4198" stop-color="#66C1EF"/>
<stop offset="0.6431" stop-color="#74CCAF"/>
<stop offset="0.8853" stop-color="#82D76F"/>
<stop offset="1" stop-color="#88DB56"/>
</linearGradient>
</defs>
</svg>
