<svg width="636" height="300" viewBox="0 0 636 300" fill="none" xmlns="http://www.w3.org/2000/svg">
<path d="M458.4 246.08H185.53C181.17 246.08 177.63 242.53 177.63 238.18V49.13C177.63 44.77 181.18 41.23 185.53 41.23H458.4C462.76 41.23 466.3 44.78 466.3 49.13V238.17C466.31 242.53 462.76 246.08 458.4 246.08Z" fill="#A3C9F6"/>
<path d="M129.34 233.9C134.87 227.95 145.1 214.98 148.19 199.13L138.78 197.3C135.98 211.68 126.57 222.87 122.16 227.47C121.79 227.85 125.11 231.51 129.34 233.9Z" fill="url(#paint0_linear)"/>
<path d="M129.34 233.9C134.87 227.95 145.1 214.98 148.19 199.13L138.78 197.3C135.98 211.68 126.57 222.87 122.16 227.47C121.79 227.85 125.11 231.51 129.34 233.9Z" fill="url(#paint1_linear)"/>
<path d="M122.22 227.4L127.86 232.48L114.55 275.12L94.48 257.08C93.62 256.3 93.6 255.02 94.44 254.21L122.22 227.4Z" fill="#522CD5"/>
<path d="M126.88 271.8C127.3 273.42 126.18 274.8 125.04 275.91L121.53 279.29C120.9 279.89 119.86 279.91 119.21 279.33L112.12 272.94C111.39 272.28 111.37 271.19 112.08 270.5L115.55 266.84C116.87 265.57 117.52 264.59 116.98 262.42C113.79 249.61 116.22 238.32 124.23 229.2L129.39 233.85C125.58 238.81 121.33 250.5 126.88 271.8Z" fill="url(#paint2_linear)"/>
<path d="M119.21 279.34C119.86 279.92 120.9 279.91 121.53 279.3L125.04 275.92C125.79 275.2 126.52 274.35 126.82 273.4L117.07 264.61C116.86 265.46 116.33 266.11 115.55 266.86L112.08 270.52C111.37 271.21 111.39 272.3 112.12 272.96L119.21 279.34Z" fill="url(#paint3_radial)"/>
<path d="M162.89 236.57C164.01 228.45 164.96 211.96 158.34 198.12L149.52 203.06C155.53 215.61 154.24 230.22 153.25 236.6C153.16 237.13 158.01 237.63 162.89 236.57Z" fill="url(#paint4_linear)"/>
<path d="M162.89 236.57C164.01 228.45 164.96 211.96 158.34 198.12L149.52 203.06C155.53 215.61 154.24 230.22 153.25 236.6C153.16 237.13 158.01 237.63 162.89 236.57Z" fill="url(#paint5_linear)"/>
<path d="M153.25 236.51H160.84L174.52 277.09L147.52 277.13C146.36 277.13 145.6 276.19 145.83 275.03L153.25 236.51Z" fill="#522CD5"/>
<path d="M182.77 266.38C184.06 267.3 183.93 269.08 183.62 270.67L182.68 275.53C182.51 276.4 181.66 277.11 180.79 277.11H171.24C170.25 277.11 169.61 276.31 169.8 275.32L170.55 270.28C170.9 268.45 170.87 267.29 169.18 266.04C159.14 258.66 154.61 248.65 155.95 236.51H162.89C162.62 242.73 165.87 254.27 182.77 266.38Z" fill="url(#paint6_linear)"/>
<path d="M180.8 277.11C181.67 277.11 182.52 276.4 182.69 275.53L183.63 270.67C183.83 269.63 183.95 268.51 183.64 267.6H170.51C170.83 268.37 170.76 269.21 170.56 270.29L169.81 275.33C169.62 276.32 170.27 277.12 171.25 277.12H180.8V277.11Z" fill="url(#paint7_radial)"/>
<path d="M146.589 204.487L156.779 204.487L156.779 203.157L146.589 203.157L146.589 204.487Z" fill="#A08BE8"/>
<path d="M146.589 191.692L156.779 191.692L156.779 190.362L146.589 190.362L146.589 191.692Z" fill="#A08BE8"/>
<path d="M315.82 72.09H188.69V258.41H315.82V72.09Z" fill="#F7B548"/>
<path d="M260.2 61.54V40.86C260.2 37.68 257.78 35.09 254.8 35.09H138.48C135.5 35.09 133.08 37.67 133.08 40.86V61.54H260.2Z" fill="#84817D"/>
<path d="M251.4 200.65C257.464 200.65 262.38 195.734 262.38 189.67C262.38 183.606 257.464 178.69 251.4 178.69C245.336 178.69 240.42 183.606 240.42 189.67C240.42 195.734 245.336 200.65 251.4 200.65Z" fill="#FFD590"/>
<path d="M220.99 200.65C227.054 200.65 231.97 195.734 231.97 189.67C231.97 183.606 227.054 178.69 220.99 178.69C214.926 178.69 210.01 183.606 210.01 189.67C210.01 195.734 214.926 200.65 220.99 200.65Z" fill="#FFD590"/>
<path d="M281.8 200.65C287.864 200.65 292.78 195.734 292.78 189.67C292.78 183.606 287.864 178.69 281.8 178.69C275.736 178.69 270.82 183.606 270.82 189.67C270.82 195.734 275.736 200.65 281.8 200.65Z" fill="#FFD590"/>
<path d="M292.78 165.03H210.86V170.94H292.78V165.03Z" fill="#FFD590"/>
<path d="M238.02 43.63H154.4V51.31H238.02V43.63Z" fill="#C8C6C4"/>
<path d="M277.58 221.91H226.91C223.65 221.91 221 219.26 221 216C221 212.74 223.65 210.09 226.91 210.09H277.58C280.84 210.09 283.49 212.74 283.49 216C283.49 219.26 280.84 221.91 277.58 221.91Z" fill="white"/>
<path d="M212.44 118.65C210.33 126.28 197.86 141.14 186.36 145.46C179.38 148.09 175.75 139.98 182.87 137.3C190.58 134.4 201.83 122.13 203.48 116.17L212.44 118.65Z" fill="#8A6FE8"/>
<path d="M196.53 107.8L198.78 120.6C199.18 122.88 201.35 124.4 203.63 124C205.91 123.6 207.43 121.43 207.03 119.15L204.78 106.35C204.38 104.07 202.21 102.55 199.93 102.95C197.65 103.35 196.13 105.52 196.53 107.8Z" fill="#8A6FE8"/>
<path d="M213.85 126.25L221.73 122.49C223.82 121.47 224.7 118.95 223.68 116.86C222.66 114.77 220.14 113.89 218.05 114.91L209.97 118.77L213.85 126.25Z" fill="#8A6FE8"/>
<path d="M215.14 121.71L222.89 112.48C224.38 110.69 224.14 108.03 222.35 106.54C220.56 105.05 217.9 105.29 216.41 107.08L210.63 113.92L215.14 121.71Z" fill="#8A6FE8"/>
<path d="M210.5 119.49L215.96 108.74C217.02 106.67 216.19 104.13 214.12 103.07C212.05 102.01 209.51 102.84 208.45 104.91L202.89 115.86L210.5 119.49Z" fill="#8A6FE8"/>
<path d="M207.84 129.03C212.711 129.03 216.66 125.081 216.66 120.21C216.66 115.339 212.711 111.39 207.84 111.39C202.969 111.39 199.02 115.339 199.02 120.21C199.02 125.081 202.969 129.03 207.84 129.03Z" fill="url(#paint8_radial)"/>
<path d="M197.46 155.49C196.46 141.76 190.92 132.41 190.92 132.41L193.89 131.4L193.94 131.32C181.83 109.62 155.6 98.96 131.22 107.24C103.76 116.56 89.0499 146.39 98.3799 173.85C107.71 201.31 137.53 216.02 164.99 206.69C186.66 199.33 200.38 179.21 200.63 157.56C200.55 156.67 200.04 155.2 197.46 155.49Z" fill="url(#paint9_radial)"/>
<path d="M197.46 155.49C196.48 141.93 191.06 132.65 190.93 132.42L167.96 140.13C167.96 140.13 164.6 140.9 165.61 143.87C166.62 146.84 169.59 155.19 172.74 164.46C173.39 166.37 197.52 157.43 197.46 155.49Z" fill="url(#paint10_radial)"/>
<path d="M197.46 155.43C197.42 154.91 197.37 154.4 197.33 153.9C197.07 151.35 196.67 148.97 196.18 146.78C195.03 146.74 194.1 147.34 193.26 148.56C192.11 150.25 186.31 159.22 186.31 159.22L197.46 155.43Z" fill="#A08BE8"/>
<path d="M200.63 158.2C200.63 158.2 201.11 155.08 197.46 155.49C197.46 155.48 197.46 155.46 197.46 155.45L175.35 162.86C174.17 163.26 172.41 163.07 171.89 161.97C172.17 162.79 172.45 163.62 172.74 164.46C173.33 166.19 174.92 166.67 176.13 166.43C176.25 166.4 176.37 166.38 176.49 166.34L179.96 165.16L200.63 158.2Z" fill="#512BD4"/>
<path d="M199.54 167.59L113.79 196.7C116.83 199.32 120.14 201.57 123.67 203.42L195.8 178.93C197.46 175.31 198.72 171.51 199.54 167.59Z" fill="#D8CFF7"/>
<path d="M194.31 181.92C197.23 176.51 199.2 170.6 200.09 164.46L189.59 168.03L194.31 181.92Z" fill="#512BD4"/>
<path d="M133.87 104.21L124.24 107.41L122.31 97.07L129.23 94.78L133.87 104.21Z" fill="#8A6FE8"/>
<path d="M139.56 109.03C139.99 108.89 140.22 108.39 140.03 107.98C138 103.58 132.95 101.31 128.24 102.87C123.53 104.43 120.84 109.28 121.85 114.02C121.95 114.47 122.42 114.73 122.85 114.58L139.56 109.03Z" fill="url(#paint11_radial)"/>
<path d="M185.397 154.684C187.562 154.003 188.39 150.5 187.245 146.859C186.101 143.219 183.418 140.819 181.252 141.5C179.087 142.181 178.259 145.684 179.403 149.325C180.548 152.965 183.231 155.365 185.397 154.684Z" fill="#512BD4"/>
<path d="M182.13 144.62C181.18 146.52 181.94 148.82 183.84 149.78C185.14 150.43 186.63 150.28 187.75 149.51C187.7 148.66 187.54 147.76 187.25 146.84C186.69 145.06 185.76 143.57 184.7 142.6C183.62 142.85 182.66 143.56 182.13 144.62Z" fill="#8065E0"/>
<path d="M124.2 98.29C128.248 98.29 131.53 95.0083 131.53 90.96C131.53 86.9118 128.248 83.63 124.2 83.63C120.152 83.63 116.87 86.9118 116.87 90.96C116.87 95.0083 120.152 98.29 124.2 98.29Z" fill="#D8CFF7"/>
<path d="M218.57 156.24L211.3 149.63C203.66 157.41 196.56 164.11 188.73 167.19C173.13 173.33 156.86 161.42 152.57 157.88L144.86 166.86C158.25 175.16 184.7 194.86 218.57 156.24Z" fill="url(#paint12_linear)"/>
<path d="M216.06 147.38L216.73 138.02C216.89 135.53 214.94 133.5 212.38 133.5C209.81 133.5 207.6 135.52 207.44 138.01L206.75 147.61L216.06 147.38Z" fill="#8A6FE8"/>
<path d="M146.91 170.25C152.234 170.25 156.55 165.934 156.55 160.61C156.55 155.286 152.234 150.97 146.91 150.97C141.586 150.97 137.27 155.286 137.27 160.61C137.27 165.934 141.586 170.25 146.91 170.25Z" fill="url(#paint13_radial)"/>
<path d="M264.68 137.21L216.48 151C215.3 151.33 214.08 150.65 213.75 149.47L199.16 98.5C198.83 97.32 199.51 96.1 200.69 95.77L248.88 81.98C250.06 81.65 251.28 82.33 251.61 83.51L266.2 134.48C266.54 135.66 265.85 136.88 264.68 137.21Z" fill="white"/>
<path d="M215.8 161.76L225.04 158.41C227.5 157.5 228.77 154.91 227.9 152.63C227.02 150.35 224.32 149.23 221.86 150.14L212.39 153.57L215.8 161.76Z" fill="#8A6FE8"/>
<path d="M218.56 151.79L224.35 143.86C225.88 141.74 225.49 138.88 223.48 137.48C221.47 136.08 218.6 136.67 217.07 138.79L211.13 146.92L218.56 151.79Z" fill="#8A6FE8"/>
<path d="M219.35 156.33L227.3 150.56C229.41 149.01 229.92 146.17 228.43 144.23C226.95 142.28 224.04 141.96 221.93 143.51L213.78 149.43L219.35 156.33Z" fill="#8A6FE8"/>
<path d="M203.75 150.5C205.62 145.53 211.25 142.73 216.32 144.25C221.4 145.77 224 151.03 222.13 155.99C220.26 160.95 214.63 163.76 209.56 162.24C204.49 160.72 201.88 155.47 203.75 150.5Z" fill="url(#paint14_radial)"/>
<path d="M247.94 118.33C246.81 116.74 247.18 114.53 248.77 113.4C249.37 112.98 250.05 112.77 250.73 112.75C250.47 111.46 250.06 110.23 249.54 109.06C249.53 109.06 249.53 109.07 249.52 109.07C247.93 110.2 245.72 109.83 244.59 108.24C243.46 106.65 243.83 104.45 245.41 103.31C244.45 102.42 243.39 101.64 242.25 100.97C241.77 102.34 240.46 103.33 238.92 103.33C236.97 103.33 235.39 101.75 235.39 99.8C235.39 99.42 235.45 99.06 235.56 98.72C234.84 98.63 234.11 98.58 233.37 98.58C232.67 98.58 231.98 98.63 231.3 98.7C231.4 99.03 231.46 99.38 231.46 99.74C231.46 101.69 229.88 103.27 227.93 103.27C226.39 103.27 225.08 102.28 224.6 100.9C223.41 101.58 222.3 102.4 221.3 103.33C221.59 103.55 221.86 103.81 222.08 104.12C223.21 105.71 222.84 107.92 221.25 109.05C220.01 109.94 218.38 109.9 217.19 109.08C216.65 110.28 216.25 111.56 215.99 112.89C217.1 112.88 218.2 113.4 218.89 114.37C220.02 115.96 219.65 118.17 218.06 119.3C217.45 119.74 216.74 119.95 216.04 119.95C216.31 121.25 216.73 122.49 217.27 123.66C217.29 123.65 217.3 123.63 217.32 123.62C218.91 122.49 221.12 122.86 222.25 124.45C223.38 126.03 223.01 128.23 221.44 129.37C222.41 130.26 223.48 131.03 224.63 131.69C225.14 130.37 226.42 129.43 227.93 129.43C229.88 129.43 231.46 131.01 231.46 132.96C231.46 133.28 231.41 133.59 231.33 133.88C232 133.96 232.68 134 233.37 134C234.1 134 234.82 133.95 235.53 133.86C235.44 133.54 235.38 133.21 235.38 132.86C235.38 130.91 236.96 129.33 238.91 129.33C240.43 129.33 241.72 130.29 242.22 131.63C243.37 130.96 244.45 130.17 245.42 129.27C245.17 129.07 244.95 128.84 244.76 128.57C243.63 126.98 244 124.77 245.59 123.64C246.8 122.78 248.36 122.79 249.54 123.54C250.07 122.36 250.48 121.11 250.74 119.8C249.66 119.78 248.61 119.27 247.94 118.33ZM233.37 125.52C228.28 125.52 224.16 121.39 224.16 116.31C224.16 111.22 228.29 107.1 233.37 107.1C238.46 107.1 242.58 111.23 242.58 116.31C242.58 121.4 238.46 125.52 233.37 125.52Z" fill="#C8C6C4"/>
<path d="M338.12 175.74H437.93C440.9 175.74 443.31 173.33 443.31 170.36V143.35C443.31 140.38 440.9 137.97 437.93 137.97H338.12C335.15 137.97 332.74 140.38 332.74 143.35V170.36C332.74 173.33 335.15 175.74 338.12 175.74Z" fill="white"/>
<path d="M362.3 137.96H327.21C324.73 137.96 322.72 139.97 322.72 142.45V171.24C322.72 173.72 324.73 175.73 327.21 175.73H362.3V137.96Z" fill="#84817D"/>
<path d="M356.63 148.55H329.38V164.22H356.63V148.55Z" fill="white"/>
<path d="M338.99 225.59H438.8C441.77 225.59 444.18 223.18 444.18 220.21V193.2C444.18 190.23 441.77 187.82 438.8 187.82H338.99C336.02 187.82 333.61 190.23 333.61 193.2V220.21C333.61 223.18 336.02 225.59 338.99 225.59Z" fill="white"/>
<path d="M363.17 187.81H328.08C325.6 187.81 323.59 189.82 323.59 192.3V221.09C323.59 223.57 325.6 225.58 328.08 225.58H363.17V187.81Z" fill="#84817D"/>
<path d="M331.76 153.86L342.45 160.67C342.72 160.84 343.03 160.93 343.35 160.93C343.69 160.93 344.01 160.83 344.29 160.64L354.47 153.74C354.84 153.49 355.09 153.11 355.18 152.67C355.26 152.23 355.17 151.78 354.92 151.41C354.67 151.04 354.29 150.79 353.85 150.7C353.41 150.62 352.96 150.71 352.59 150.96L343.33 157.24L333.57 151.02C333.19 150.78 332.74 150.7 332.3 150.8C331.86 150.9 331.49 151.16 331.25 151.54C331.01 151.92 330.93 152.37 331.03 152.8C331.13 153.23 331.38 153.62 331.76 153.86Z" fill="#F7B548"/>
<path d="M357.68 200.12C357.55 199.69 357.26 199.34 356.86 199.13C356.46 198.92 356.01 198.88 355.58 199.01C355.15 199.14 354.8 199.43 354.59 199.83L349.78 208.96L349.5 209L343.26 202.16C342.95 201.82 342.52 201.62 342.06 201.61C341.61 201.6 341.16 201.77 340.84 202.09L329.08 213.73C328.76 214.04 328.58 214.47 328.58 214.91C328.58 215.36 328.75 215.78 329.07 216.1C329.4 216.43 329.83 216.6 330.26 216.6C330.69 216.6 331.11 216.44 331.44 216.12L341.83 205.84L341.3 205.31L342.08 205.85L348.8 213.22C349.17 213.62 349.71 213.82 350.25 213.75C350.79 213.68 351.27 213.35 351.52 212.87L357.56 201.4C357.77 201 357.81 200.55 357.68 200.12Z" fill="#F7B548"/>
<path d="M544.8 67.41L495.67 59.65H495.66H495.65L446.51 67.41C446.51 67.41 445.73 95.18 450.13 118.64C457.15 156.1 494.62 170.79 495.64 171.15C495.64 171.15 495.65 171.16 495.65 171.15H495.66C496.68 170.79 534.48 156.15 541.17 118.64C545.94 91.91 544.8 67.41 544.8 67.41Z" fill="#8065E0"/>
<path d="M538.42 72.7L495.66 65.86H495.65H495.64L452.88 72.7C452.88 72.7 452.2 97.19 456.03 117.87C462.14 150.9 494.74 163.85 495.63 164.17H495.64H495.65C496.54 163.85 529.43 150.95 535.25 117.87C539.42 94.3 538.42 72.7 538.42 72.7Z" fill="#BBACEF"/>
<path d="M483.19 99.68V91.42C483.19 85.29 488.18 80.3 494.31 80.3H496.91C503.04 80.3 508.03 85.29 508.03 91.42V99.68H513.48V91.42C513.48 82.28 506.04 74.84 496.9 74.84H494.3C485.16 74.84 477.72 82.28 477.72 91.42V99.68H483.19Z" fill="#8065E0"/>
<path d="M513.37 137.37H477.27C473.19 137.37 469.88 134.06 469.88 129.98V105.62C469.88 101.54 473.19 98.23 477.27 98.23H513.37C517.45 98.23 520.76 101.54 520.76 105.62V129.98C520.76 134.06 517.45 137.37 513.37 137.37Z" fill="#8065E0"/>
<path d="M514.67 117.87L514.65 114.94C507.41 114.98 496.91 115.03 493.39 114.98C492.71 110.94 489.2 107.86 484.97 107.86C480.26 107.86 476.42 111.69 476.42 116.41C476.42 121.12 480.25 124.96 484.97 124.96C489.17 124.96 492.67 121.91 493.38 117.91C494.6 117.93 496.48 117.94 499.07 117.94C500.23 117.94 501.55 117.94 502.99 117.93V121.86H505.92V117.92C506.81 117.92 507.74 117.91 508.71 117.91V123.63H511.64V117.89C512.61 117.88 513.62 117.88 514.67 117.87ZM484.97 122.02C481.87 122.02 479.35 119.5 479.35 116.4C479.35 113.3 481.87 110.78 484.97 110.78C488.07 110.78 490.59 113.3 490.59 116.4C490.59 119.5 488.07 122.02 484.97 122.02Z" fill="white"/>
<defs>
<linearGradient id="paint0_linear" x1="145.789" y1="197.641" x2="125.767" y2="231.724" gradientUnits="userSpaceOnUse">
<stop stop-color="#522CD5"/>
<stop offset="0.4397" stop-color="#8A6FE8"/>
</linearGradient>
<linearGradient id="paint1_linear" x1="145.789" y1="197.641" x2="125.767" y2="231.724" gradientUnits="userSpaceOnUse">
<stop stop-color="#522CD5"/>
<stop offset="0.4397" stop-color="#8A6FE8"/>
</linearGradient>
<linearGradient id="paint2_linear" x1="129.367" y1="230.341" x2="118.079" y2="279.229" gradientUnits="userSpaceOnUse">
<stop stop-color="#522CD5"/>
<stop offset="0.4397" stop-color="#8A6FE8"/>
</linearGradient>
<radialGradient id="paint3_radial" cx="0" cy="0" r="1" gradientUnits="userSpaceOnUse" gradientTransform="translate(127.236 262.902) rotate(42.029) scale(15.4679)">
<stop offset="0.034" stop-color="#522CD5"/>
<stop offset="0.9955" stop-color="#8A6FE8"/>
</radialGradient>
<linearGradient id="paint4_linear" x1="155.404" y1="198.642" x2="162.978" y2="236.488" gradientUnits="userSpaceOnUse">
<stop stop-color="#522CD5"/>
<stop offset="0.4397" stop-color="#8A6FE8"/>
</linearGradient>
<linearGradient id="paint5_linear" x1="155.404" y1="198.642" x2="162.978" y2="236.488" gradientUnits="userSpaceOnUse">
<stop stop-color="#522CD5"/>
<stop offset="0.4397" stop-color="#8A6FE8"/>
</linearGradient>
<linearGradient id="paint6_linear" x1="160.822" y1="233.985" x2="182.801" y2="276.289" gradientUnits="userSpaceOnUse">
<stop stop-color="#522CD5"/>
<stop offset="0.4397" stop-color="#8A6FE8"/>
</linearGradient>
<radialGradient id="paint7_radial" cx="0" cy="0" r="1" gradientUnits="userSpaceOnUse" gradientTransform="translate(177.97 259.46) scale(15.468)">
<stop offset="0.034" stop-color="#522CD5"/>
<stop offset="0.9955" stop-color="#8A6FE8"/>
</radialGradient>
<radialGradient id="paint8_radial" cx="0" cy="0" r="1" gradientUnits="userSpaceOnUse" gradientTransform="translate(200.75 121.508) rotate(-107.56) scale(29.6007)">
<stop stop-color="#8065E0"/>
<stop offset="0.8628" stop-color="#512BD4"/>
</radialGradient>
<radialGradient id="paint9_radial" cx="0" cy="0" r="1" gradientUnits="userSpaceOnUse" gradientTransform="translate(138.147 131.174) rotate(-29.118) scale(44.7083)">
<stop offset="0.4744" stop-color="#A08BE8"/>
<stop offset="0.8618" stop-color="#8065E0"/>
</radialGradient>
<radialGradient id="paint10_radial" cx="0" cy="0" r="1" gradientUnits="userSpaceOnUse" gradientTransform="translate(180.646 145.146) rotate(-29.1181) scale(34.3469)">
<stop offset="0.2022" stop-color="#E1DFDD"/>
<stop offset="0.7337" stop-color="white"/>
</radialGradient>
<radialGradient id="paint11_radial" cx="0" cy="0" r="1" gradientUnits="userSpaceOnUse" gradientTransform="translate(129.433 108.37) rotate(-29.118) scale(7.74053)">
<stop stop-color="#8065E0"/>
<stop offset="0.8628" stop-color="#512BD4"/>
</radialGradient>
<linearGradient id="paint12_linear" x1="151.35" y1="141.523" x2="210.034" y2="178.413" gradientUnits="userSpaceOnUse">
<stop offset="0.3344" stop-color="#9780E6"/>
<stop offset="0.8488" stop-color="#8A6FE8"/>
</linearGradient>
<radialGradient id="paint13_radial" cx="0" cy="0" r="1" gradientUnits="userSpaceOnUse" gradientTransform="translate(146.037 156.655) rotate(-18.9223) scale(14.3218)">
<stop stop-color="#8065E0"/>
<stop offset="0.8628" stop-color="#512BD4"/>
</radialGradient>
<radialGradient id="paint14_radial" cx="0" cy="0" r="1" gradientUnits="userSpaceOnUse" gradientTransform="translate(209.929 148.623) rotate(152.889) scale(16.7379 15.6208)">
<stop stop-color="#8065E0"/>
<stop offset="0.8628" stop-color="#512BD4"/>
</radialGradient>
</defs>
</svg>
