<svg width="636" height="300" viewBox="0 0 636 300" fill="none" xmlns="http://www.w3.org/2000/svg">
<path d="M492.15 287.95C555.23 287.95 606.37 284.41 606.37 280.05C606.37 275.68 555.23 272.15 492.15 272.15C429.07 272.15 377.93 275.69 377.93 280.05C377.93 284.41 429.07 287.95 492.15 287.95Z" fill="#D1C5F4"/>
<path d="M477.4 234.73C477.29 224.67 478.73 204.24 489.22 187.13L499.47 193.3C489.95 208.82 489.24 226.93 489.47 234.82C489.5 235.47 483.34 236.06 477.4 234.73Z" fill="url(#paint0_linear)"/>
<path d="M489.47 234.71L479.97 234.67L471.1 284.97L490.16 285.05C491.61 285.06 492.71 283.89 492.62 282.46L489.47 234.71Z" fill="#522CD5"/>
<path d="M450.77 271.74C449.13 273.03 449.15 274.89 449.28 276.86L449.67 282.89C449.74 283.97 450.69 284.86 451.78 284.86L471.65 284.95C472.88 284.96 473.82 283.97 473.74 282.75L473.61 276.51C473.46 274.24 474.23 273.41 476.01 271.27C479.05 267.61 488.04 247.7 487.19 234.72L477.41 234.68C476.75 242.36 466.49 259.46 450.77 271.74Z" fill="url(#paint1_linear)"/>
<path d="M449.29 276.85C449.2 275.48 449.18 274.16 449.72 273.04L474.5 273.15C473.82 274.15 473.53 275.01 473.62 276.47L473.75 282.71C473.83 283.93 472.89 284.92 471.66 284.91L451.79 284.82C450.71 284.81 449.75 283.93 449.68 282.85L449.29 276.85Z" fill="url(#paint2_radial)"/>
<path d="M524.11 234.73C524.22 224.67 522.78 204.24 512.29 187.13L502.03 193.3C511.55 208.82 512.27 226.93 512.04 234.82C512.02 235.47 518.17 236.06 524.11 234.73Z" fill="url(#paint3_linear)"/>
<path d="M512.04 234.71L521.54 234.67L530.41 284.97L511.35 285.05C509.9 285.06 508.8 283.89 508.89 282.46L512.04 234.71Z" fill="#512BD4"/>
<path d="M550.73 271.74C552.37 273.03 552.35 274.89 552.22 276.86L551.83 282.89C551.76 283.97 550.81 284.86 549.72 284.86L529.85 284.95C528.62 284.96 527.68 283.97 527.76 282.75L527.9 276.51C528.04 274.24 527.28 273.41 525.5 271.27C522.46 267.61 513.47 247.7 514.33 234.72L524.11 234.68C524.75 242.36 535.02 259.46 550.73 271.74Z" fill="url(#paint4_linear)"/>
<path d="M552.22 276.85C552.31 275.48 552.34 274.16 551.8 273.04L527.02 273.15C527.7 274.15 527.99 275.01 527.9 276.47L527.76 282.71C527.68 283.93 528.62 284.92 529.85 284.91L549.72 284.82C550.8 284.81 551.76 283.93 551.83 282.85L552.22 276.85Z" fill="url(#paint5_radial)"/>
<path d="M396.32 151.67L406.36 145.65C414.02 158.17 423.33 165.34 434.03 166.99C453.42 169.98 471.67 154.45 471.85 154.29L479.56 163.04C478.65 163.83 456.95 182.27 432.23 178.47C417.94 176.27 405.86 167.26 396.32 151.67Z" fill="#8A6FE8"/>
<path d="M446.08 160.99C441.85 144.92 444.58 132.08 444.58 132.08H440.76L440.67 132.01C446.14 102.51 472.24 80.16 503.6 80.16C538.94 80.16 567.6 108.53 567.6 143.53C567.6 178.53 538.95 206.9 503.6 206.9C475.71 206.9 451.85 189.2 443.09 164.55C442.84 163.51 443 161.66 446.08 160.99Z" fill="url(#paint6_radial)"/>
<path d="M445.95 160.99C441.77 145.11 444.38 132.41 444.45 132.09H510.84C510.84 132.09 515.03 131.67 515.03 135.45C515.03 139.24 514.88 149.92 514.88 161.75C514.88 164.19 512.86 165.35 511.28 165.35C511.26 165.36 450.5 163.26 445.95 160.99Z" fill="url(#paint7_radial)"/>
<path d="M486.6 160.92C486.6 160.92 476.39 152.92 474.4 151.44C472.41 149.96 470.67 149.87 468.84 151.44C467.01 153.01 456.79 160.92 456.79 160.92H486.6Z" fill="#A08BE8"/>
<path d="M443.36 165.31C443.36 165.31 441.58 161.93 445.94 160.99C445.94 160.97 511.21 160.94 511.21 160.94C512.73 160.94 514.68 160.04 514.85 158.59C514.85 159.63 514.85 160.69 514.85 161.76C514.85 163.97 513.2 165.13 511.71 165.33C511.57 165.35 511.41 165.36 511.26 165.36H506.79L443.36 165.31Z" fill="#512BD4"/>
<path d="M448.29 175.62H558.87C556.39 179.79 553.44 183.65 550.11 187.13H457.05C453.71 183.64 450.77 179.79 448.29 175.62Z" fill="#D8CFF7"/>
<path d="M515.14 78.65L502.83 77.53L505.71 65.16L514.56 65.97L515.14 78.65Z" fill="#8A6FE8"/>
<path d="M510.56 67.58C515.43 67.58 519.37 63.68 519.37 58.86C519.37 54.04 515.43 50.14 510.56 50.14C505.7 50.14 501.76 54.04 501.76 58.86C501.76 63.67 505.7 67.58 510.56 67.58Z" fill="#D8CFF7"/>
<path d="M519.14 86.73C519.7 86.78 520.19 86.34 520.18 85.79C520.06 79.95 515.53 74.99 509.5 74.45C503.48 73.91 498.11 77.96 496.92 83.68C496.81 84.22 497.21 84.73 497.77 84.79L519.14 86.73Z" fill="url(#paint8_radial)"/>
<path d="M500.27 146.62C500.34 142.02 498.16 138.26 495.39 138.21C492.63 138.17 490.33 141.87 490.26 146.47C490.19 151.07 492.37 154.83 495.14 154.88C497.91 154.92 500.21 151.22 500.27 146.62Z" fill="#512BD4"/>
<path d="M455.1 154.87C457.86 154.83 460.05 151.07 459.98 146.46C459.91 141.86 457.61 138.16 454.85 138.2C452.09 138.24 449.9 142 449.97 146.61C450.04 151.21 452.34 154.91 455.1 154.87Z" fill="#512BD4"/>
<path d="M495.33 142.38C494.31 141.37 492.93 140.93 491.6 141.04C490.81 142.49 490.32 144.39 490.28 146.48C490.26 147.78 490.43 149.01 490.73 150.11C492.31 150.56 494.08 150.16 495.33 148.93C497.15 147.13 497.15 144.19 495.33 142.38Z" fill="#8065E0"/>
<path d="M455.03 142.12C454.01 141.11 452.62 140.66 451.29 140.78C450.44 142.29 449.92 144.34 449.96 146.6C449.98 147.76 450.13 148.85 450.4 149.84C451.99 150.3 453.77 149.91 455.02 148.67C456.86 146.87 456.86 143.93 455.03 142.12Z" fill="#8065E0"/>
<path d="M461.73 190.32L482.67 190.23L482.59 171.89L461.65 171.98L461.73 190.32Z" fill="#512BD4"/>
<path d="M465.35 183.47C465.22 183.47 465.09 183.43 465 183.34C464.91 183.25 464.86 183.14 464.86 183C464.86 182.87 464.91 182.75 465 182.66C465.09 182.57 465.22 182.52 465.35 182.52C465.5 182.52 465.61 182.57 465.71 182.66C465.82 182.75 465.87 182.86 465.87 183C465.87 183.13 465.82 183.25 465.72 183.34C465.61 183.42 465.49 183.47 465.35 183.47Z" fill="white"/>
<path d="M470.91 183.38H470L467.6 179.65C467.54 179.56 467.49 179.46 467.45 179.35H467.43C467.45 179.46 467.46 179.69 467.46 180.05L467.47 183.38H466.66L466.65 178.31H467.61L469.92 181.94C470.01 182.09 470.09 182.2 470.11 182.25H470.12C470.1 182.12 470.09 181.89 470.08 181.56L470.07 178.29H470.86L470.91 183.38Z" fill="white"/>
<path d="M474.82 183.37L472.02 183.38L472.01 178.31L474.7 178.3V179.02H472.84V180.45H474.55V181.16H472.84V182.65H474.81L474.82 183.37Z" fill="white"/>
<path d="M478.8 179.01H477.36L477.37 183.37H476.54L476.53 179.01H475.1V178.29L478.8 178.28V179.01Z" fill="white"/>
<path d="M399.11 125.28L406.72 141.17C408.08 144.01 406.86 147.38 404 148.72C401.14 150.06 397.73 148.85 396.37 146.03L388.76 130.14C387.41 127.3 388.62 123.93 391.48 122.59C394.35 121.23 397.76 122.44 399.11 125.28Z" fill="#8A6FE8"/>
<path d="M394.4 159.2L382.63 161.22C379.49 161.73 376.52 159.63 376.01 156.52C375.49 153.41 377.61 150.47 380.74 149.96L392.8 147.89L394.4 159.2Z" fill="#8A6FE8"/>
<path d="M389.37 155.2L373.44 151.08C370.36 150.27 368.53 147.15 369.35 144.1C370.17 141.05 373.32 139.24 376.4 140.05L388.26 143.08L389.37 155.2Z" fill="#8A6FE8"/>
<path d="M392.78 149.11L378.2 141.51C375.38 140.05 374.29 136.6 375.77 133.81C377.25 131.02 380.73 129.94 383.54 131.4L398.39 139.14L392.78 149.11Z" fill="#8A6FE8"/>
<path d="M396.31 159.77C402.97 159.77 408.37 154.42 408.37 147.82C408.37 141.22 402.97 135.87 396.31 135.87C389.65 135.87 384.25 141.22 384.25 147.82C384.25 154.43 389.65 159.77 396.31 159.77Z" fill="url(#paint9_radial)"/>
<path d="M587.44 209.26C587.77 208.22 595.37 183.54 583.02 164.89C575.89 154.11 563.85 147.76 547.24 146L545.97 157.81C558.81 159.16 567.88 163.72 572.96 171.34C582.21 185.24 576.06 205.5 576 205.7L587.44 209.26Z" fill="url(#paint10_linear)"/>
<path d="M559.86 199.04L577.46 196.72C580.59 196.31 583.48 198.49 583.9 201.59C584.32 204.69 582.11 207.55 578.98 207.97L561.38 210.29C558.25 210.7 555.36 208.52 554.94 205.42C554.53 202.31 556.73 199.46 559.86 199.04Z" fill="#8A6FE8"/>
<path d="M591.04 213.85L589.38 225.56C588.92 228.68 585.99 230.83 582.85 230.37C579.7 229.91 577.53 227.01 577.99 223.9L579.69 211.89L591.04 213.85Z" fill="#8A6FE8"/>
<path d="M585.66 217.38L576.83 231.15C575.12 233.8 571.55 234.58 568.87 232.88C566.19 231.18 565.41 227.65 567.12 225L573.65 214.74L585.66 217.38Z" fill="#8A6FE8"/>
<path d="M580.85 212.3L569.09 223.73C566.82 225.94 563.18 225.91 560.94 223.67C558.71 221.43 558.74 217.81 561 215.6L572.98 203.96L580.85 212.3Z" fill="#8A6FE8"/>
<path d="M580.69 220.52C587.35 220.52 592.75 215.17 592.75 208.57C592.75 201.97 587.35 196.62 580.69 196.62C574.03 196.62 568.63 201.97 568.63 208.57C568.62 215.17 574.02 220.52 580.69 220.52Z" fill="url(#paint11_radial)"/>
<path d="M543.92 161.66C550.41 161.66 555.67 156.45 555.67 150.02C555.67 143.59 550.41 138.38 543.92 138.38C537.43 138.38 532.17 143.59 532.17 150.02C532.17 156.45 537.43 161.66 543.92 161.66Z" fill="url(#paint12_radial)"/>
<path d="M362.8 98.19H95.3999V34.84L362.8 44.2V98.19Z" fill="#CEDB59"/>
<path d="M297.04 111.04H29.63V165.03H297.04V111.04Z" fill="#CCCAC7"/>
<path d="M352 226.79L84.5901 234.84V172.8H352V226.79Z" fill="#33D5F9"/>
<path d="M226.69 81.4C229.58 81.4 231.92 79.08 231.92 76.22C231.92 73.36 229.58 71.04 226.69 71.04C223.8 71.04 221.46 73.36 221.46 76.22C221.45 79.09 223.8 81.4 226.69 81.4Z" fill="#78881B"/>
<path d="M205.48 81.4C208.37 81.4 210.71 79.08 210.71 76.22C210.71 73.36 208.37 71.04 205.48 71.04C202.59 71.04 200.25 73.36 200.25 76.22C200.25 79.09 202.6 81.4 205.48 81.4Z" fill="#78881B"/>
<path d="M184.27 81.4C187.16 81.4 189.5 79.08 189.5 76.22C189.5 73.36 187.16 71.04 184.27 71.04C181.38 71.04 179.04 73.36 179.04 76.22C179.04 79.09 181.39 81.4 184.27 81.4Z" fill="#78881B"/>
<path d="M247.71 132.35H120.5C119.93 132.35 119.47 131.89 119.47 131.33C119.47 130.77 119.93 130.31 120.5 130.31H247.71C248.28 130.31 248.74 130.77 248.74 131.33C248.74 131.89 248.28 132.35 247.71 132.35Z" fill="#9C9894"/>
<path d="M224.63 143.77H119.34C118.77 143.77 118.31 143.31 118.31 142.75C118.31 142.19 118.78 141.73 119.34 141.73H224.63C225.2 141.73 225.66 142.19 225.66 142.75C225.66 143.31 225.2 143.77 224.63 143.77Z" fill="#9C9894"/>
<path d="M171.75 194.15C171.18 194.15 170.72 193.7 170.72 193.14C170.72 192.58 171.17 192.12 171.74 192.11L239.82 191.73C239.82 191.73 239.82 191.73 239.83 191.73C240.4 191.73 240.86 192.18 240.86 192.74C240.86 193.3 240.41 193.76 239.84 193.77L171.75 194.15Z" fill="#1DACCC"/>
<path d="M171.36 205.57C170.79 205.57 170.34 205.12 170.33 204.56C170.32 204 170.78 203.53 171.35 203.53L324.81 201.63C325.39 201.62 325.86 202.08 325.86 202.64C325.86 203.2 325.4 203.67 324.84 203.67L171.38 205.57C171.36 205.57 171.36 205.57 171.36 205.57Z" fill="#1DACCC"/>
<path d="M171.75 217.67C171.19 217.67 170.73 217.23 170.72 216.67C170.71 216.11 171.15 215.64 171.73 215.63L281.73 212.97C282.3 212.94 282.77 213.4 282.78 213.97C282.79 214.53 282.35 215 281.77 215.01L171.77 217.67C171.76 217.67 171.76 217.67 171.75 217.67Z" fill="#1DACCC"/>
<path d="M138.38 73.86C155.88 73.86 170.06 59.81 170.06 42.49C170.06 25.16 155.88 11.12 138.38 11.12C120.88 11.12 106.7 25.16 106.7 42.49C106.7 59.81 120.88 73.86 138.38 73.86Z" fill="#EEF3C4"/>
<path d="M135.22 58.98H141.17V43.18H135.22V58.98Z" fill="#B2C133"/>
<path d="M162.47 55.97C162.36 54.74 161.32 53.8 160.07 53.8H116.87C115.55 53.8 114.45 54.8 114.34 56.1L113.79 62.27C119.6 69.34 128.45 73.86 138.37 73.86C148.33 73.86 157.21 69.3 163.02 62.19L162.47 55.97Z" fill="#B2C133"/>
<path d="M114.76 42.37L115.76 31.06C116.17 26.37 120.14 22.77 124.9 22.77H151.93C156.68 22.77 160.65 26.36 161.07 31.06L162.07 42.37C162.18 43.61 161.19 44.68 159.93 44.68H144.42C143.75 47.59 141.12 49.76 137.97 49.76C134.83 49.76 132.2 47.59 131.52 44.68H116.88C115.64 44.69 114.65 43.62 114.76 42.37Z" fill="#78881B"/>
<path d="M125.01 32.05H151.39C153.51 32.05 155.22 33.75 155.22 35.85C155.22 37.95 153.5 39.65 151.39 39.65H125.01C122.89 39.65 121.18 37.95 121.18 35.85C121.18 33.75 122.89 32.05 125.01 32.05Z" fill="#D5E06D"/>
<path d="M149.64 38.43C151.24 38.43 152.54 37.14 152.54 35.55C152.54 33.96 151.24 32.67 149.64 32.67C148.04 32.67 146.74 33.96 146.74 35.55C146.73 37.15 148.03 38.43 149.64 38.43Z" fill="white"/>
<path d="M140.28 38.43C141.88 38.43 143.18 37.14 143.18 35.55C143.18 33.96 141.88 32.67 140.28 32.67C138.68 32.67 137.38 33.96 137.38 35.55C137.38 37.15 138.68 38.43 140.28 38.43Z" fill="white"/>
<path d="M126.49 214.69C143.99 214.69 158.17 200.64 158.17 183.32C158.17 165.99 143.99 151.95 126.49 151.95C108.99 151.95 94.8101 166 94.8101 183.32C94.8101 200.64 108.99 214.69 126.49 214.69Z" fill="#A4ECFC"/>
<path d="M137 163.28H116.4C113.98 163.28 111.96 165.1 111.74 167.49L110.68 178.74C110.42 181.46 112.58 183.82 115.34 183.82H138.08C140.84 183.82 143 181.47 142.74 178.74L141.68 167.49C141.45 165.11 139.42 163.28 137 163.28Z" fill="#0B7891"/>
<path d="M140.17 202.92H113.23C106.06 202.92 100.24 197.16 100.24 190.05V189.65C100.24 182.55 106.06 176.78 113.23 176.78H140.17C147.34 176.78 153.16 182.54 153.16 189.65V190.05C153.16 197.16 147.35 202.92 140.17 202.92Z" fill="#1DACCC"/>
<path d="M140.56 196.75H113.28C111.84 196.75 110.68 195.59 110.68 194.17V194.09C110.68 192.67 111.85 191.51 113.28 191.51H140.56C142 191.51 143.16 192.67 143.16 194.09V194.17C143.15 195.59 142 196.75 140.56 196.75Z" fill="#0B7891"/>
<path d="M120.64 174.29C122.85 174.29 124.64 172.52 124.64 170.33C124.64 168.14 122.85 166.37 120.64 166.37C118.43 166.37 116.64 168.14 116.64 170.33C116.64 172.51 118.43 174.29 120.64 174.29Z" fill="white"/>
<path d="M133.11 174.29C135.32 174.29 137.11 172.52 137.11 170.33C137.11 168.14 135.32 166.37 133.11 166.37C130.9 166.37 129.11 168.14 129.11 170.33C129.11 172.51 130.9 174.29 133.11 174.29Z" fill="white"/>
<path d="M114.36 191.54V192.57C114.36 193.12 114.81 193.57 115.37 193.57H117.53C118.09 193.57 118.54 193.12 118.54 192.57V191.54C118.54 191.53 118.54 191.52 118.54 191.51H114.35C114.36 191.52 114.36 191.53 114.36 191.54Z" fill="#A4ECFC"/>
<path d="M122.69 194.54H120.53C119.97 194.54 119.52 194.99 119.52 195.54V196.57C119.52 196.63 119.53 196.68 119.54 196.74H123.7C123.71 196.69 123.72 196.63 123.72 196.57V195.54C123.71 194.98 123.26 194.54 122.69 194.54Z" fill="#A4ECFC"/>
<path d="M124.68 191.54V192.57C124.68 193.12 125.13 193.57 125.69 193.57H127.85C128.41 193.57 128.86 193.12 128.86 192.57V191.54C128.86 191.53 128.86 191.52 128.86 191.51H124.67C124.69 191.52 124.68 191.53 124.68 191.54Z" fill="#A4ECFC"/>
<path d="M132.88 194.54H130.72C130.16 194.54 129.71 194.99 129.71 195.54V196.57C129.71 196.63 129.72 196.68 129.73 196.74H133.89C133.9 196.69 133.91 196.63 133.91 196.57V195.54C133.89 194.98 133.44 194.54 132.88 194.54Z" fill="#A4ECFC"/>
<path d="M134.87 191.54V192.57C134.87 193.12 135.32 193.57 135.88 193.57H138.04C138.6 193.57 139.05 193.12 139.05 192.57V191.54C139.05 191.53 139.05 191.52 139.05 191.51H134.86C134.87 191.52 134.87 191.53 134.87 191.54Z" fill="#A4ECFC"/>
<path d="M131.83 206.97H122.27C121.15 206.97 120.25 206.08 120.25 204.97V204.91C120.25 203.8 121.15 202.91 122.27 202.91H131.83C132.95 202.91 133.85 203.8 133.85 204.91V204.97C133.84 206.07 132.94 206.97 131.83 206.97Z" fill="#0B7891"/>
<path d="M131.83 210.83H122.27C121.15 210.83 120.25 209.94 120.25 208.83V208.77C120.25 207.66 121.15 206.77 122.27 206.77H131.83C132.95 206.77 133.85 207.66 133.85 208.77V208.83C133.84 209.93 132.94 210.83 131.83 210.83Z" fill="#0B7891"/>
<path d="M131.83 210.64H122.27C121.15 210.64 120.25 211.53 120.25 212.64V212.7C120.25 213.3 120.53 213.85 120.96 214.21C122.73 214.52 124.54 214.69 126.4 214.69H126.6C128.94 214.68 131.21 214.42 133.4 213.94C133.68 213.6 133.85 213.17 133.85 212.69V212.63C133.84 211.53 132.94 210.64 131.83 210.64Z" fill="#0B7891"/>
<path d="M121.77 171.64C122.82 171.64 123.67 170.8 123.67 169.76C123.67 168.72 122.82 167.88 121.77 167.88C120.72 167.88 119.87 168.72 119.87 169.76C119.87 170.8 120.72 171.64 121.77 171.64Z" fill="#33D5F9"/>
<path d="M134.24 171.64C135.29 171.64 136.14 170.8 136.14 169.76C136.14 168.72 135.29 167.88 134.24 167.88C133.19 167.88 132.34 168.72 132.34 169.76C132.34 170.8 133.19 171.64 134.24 171.64Z" fill="#33D5F9"/>
<path d="M73.2499 148.98C90.7499 148.98 104.93 134.93 104.93 117.61C104.93 100.28 90.7499 86.24 73.2499 86.24C55.7499 86.24 41.5699 100.29 41.5699 117.61C41.5699 134.94 55.7499 148.98 73.2499 148.98Z" fill="#B3AFAB"/>
<path d="M73.25 148.98C85.84 148.98 96.71 141.7 101.82 131.17C94.19 127.42 84.1 125.56 74.59 125.56C74.56 125.56 74.54 125.56 74.51 125.56C74.48 125.56 74.46 125.56 74.43 125.56C64.06 125.56 53.02 127.77 45.22 132.22C50.52 142.19 61.08 148.98 73.25 148.98Z" fill="#908D89"/>
<path d="M91.88 127.6C91.95 127.04 91.98 126.45 91.98 125.84V110.91C91.98 101.89 84.59 94.57 75.48 94.57H71.1C61.99 94.57 54.6 101.88 54.6 110.91V126.84C54.6 127.11 54.61 127.36 54.62 127.61H91.88V127.6Z" fill="#908D89"/>
<path d="M92.76 130.84H54.35C52.96 130.84 51.84 129.72 51.84 128.35C51.84 126.98 52.97 125.86 54.35 125.86H92.75C94.14 125.86 95.26 126.98 95.26 128.35C95.28 129.72 94.15 130.84 92.76 130.84Z" fill="white"/>
<path d="M65.14 119.1C68.2 119.1 70.68 116.64 70.68 113.61C70.68 110.58 68.2 108.12 65.14 108.12C62.08 108.12 59.6 110.58 59.6 113.61C59.6 116.65 62.08 119.1 65.14 119.1Z" fill="white"/>
<path d="M81.18 119.1C84.24 119.1 86.72 116.64 86.72 113.61C86.72 110.58 84.24 108.12 81.18 108.12C78.12 108.12 75.64 110.58 75.64 113.61C75.64 116.65 78.12 119.1 81.18 119.1Z" fill="white"/>
<path d="M66.63 114.96C68.13 114.96 69.35 113.75 69.35 112.27C69.35 110.78 68.13 109.58 66.63 109.58C65.13 109.58 63.91 110.79 63.91 112.27C63.91 113.75 65.13 114.96 66.63 114.96Z" fill="#CCCAC7"/>
<path d="M83.1399 114.96C84.6399 114.96 85.8599 113.75 85.8599 112.27C85.8599 110.78 84.6399 109.58 83.1399 109.58C81.6399 109.58 80.4199 110.79 80.4199 112.27C80.4199 113.75 81.6399 114.96 83.1399 114.96Z" fill="#CCCAC7"/>
<path d="M69.28 128.18C67.74 128.18 66.48 129.37 66.36 130.87H72.18C72.09 129.36 70.83 128.18 69.28 128.18Z" fill="#DDDBDA"/>
<path d="M77.75 128.18C76.21 128.18 74.95 129.37 74.83 130.87H80.65C80.57 129.36 79.31 128.18 77.75 128.18Z" fill="#DDDBDA"/>
<path d="M60.8 128.18C59.26 128.18 58 129.37 57.88 130.87H63.7C63.61 129.36 62.35 128.18 60.8 128.18Z" fill="#DDDBDA"/>
<path d="M86.2401 128.18C84.7001 128.18 83.4401 129.37 83.3201 130.87H89.1401C89.0401 129.36 87.7801 128.18 86.2401 128.18Z" fill="#DDDBDA"/>
<defs>
<linearGradient id="paint0_linear" x1="492.627" y1="187.95" x2="482.648" y2="235.936" gradientUnits="userSpaceOnUse">
<stop stop-color="#522CD5"/>
<stop offset="0.4397" stop-color="#8A6FE8"/>
</linearGradient>
<linearGradient id="paint1_linear" x1="486.206" y1="234.161" x2="456.449" y2="287.731" gradientUnits="userSpaceOnUse">
<stop stop-color="#522CD5"/>
<stop offset="0.4397" stop-color="#8A6FE8"/>
</linearGradient>
<radialGradient id="paint2_radial" cx="0" cy="0" r="1" gradientUnits="userSpaceOnUse" gradientTransform="translate(462.337 263.024) rotate(-179.742) scale(20.9316 20.7281)">
<stop offset="0.034" stop-color="#522CD5"/>
<stop offset="0.9955" stop-color="#8A6FE8"/>
</radialGradient>
<linearGradient id="paint3_linear" x1="508.896" y1="187.986" x2="518.874" y2="235.971" gradientUnits="userSpaceOnUse">
<stop stop-color="#522CD5"/>
<stop offset="0.4397" stop-color="#8A6FE8"/>
</linearGradient>
<linearGradient id="paint4_linear" x1="515.254" y1="234.076" x2="545.01" y2="287.647" gradientUnits="userSpaceOnUse">
<stop stop-color="#522CD5"/>
<stop offset="0.4397" stop-color="#8A6FE8"/>
</linearGradient>
<radialGradient id="paint5_radial" cx="0" cy="0" r="1" gradientUnits="userSpaceOnUse" gradientTransform="translate(539.19 263.114) rotate(-0.258208) scale(20.9316 20.7281)">
<stop offset="0.034" stop-color="#522CD5"/>
<stop offset="0.9955" stop-color="#8A6FE8"/>
</radialGradient>
<radialGradient id="paint6_radial" cx="0" cy="0" r="1" gradientUnits="userSpaceOnUse" gradientTransform="translate(486.072 113.959) scale(74.7074 73.9809)">
<stop offset="0.4744" stop-color="#A08BE8"/>
<stop offset="0.7708" stop-color="#8065E0"/>
</radialGradient>
<radialGradient id="paint7_radial" cx="0" cy="0" r="1" gradientUnits="userSpaceOnUse" gradientTransform="translate(443.735 125.754) scale(65.8773 65.237)">
<stop offset="0.0933" stop-color="#E1DFDD"/>
<stop offset="0.6573" stop-color="white"/>
</radialGradient>
<radialGradient id="paint8_radial" cx="0" cy="0" r="1" gradientUnits="userSpaceOnUse" gradientTransform="translate(508.034 78.9749) rotate(-20.5058) scale(9.61432 9.54392)">
<stop stop-color="#8065E0"/>
<stop offset="1" stop-color="#512BD4"/>
</radialGradient>
<radialGradient id="paint9_radial" cx="0" cy="0" r="1" gradientUnits="userSpaceOnUse" gradientTransform="translate(390.855 146.523) rotate(104.567) scale(11.9489 12.0517)">
<stop stop-color="#8065E0"/>
<stop offset="1" stop-color="#512BD4"/>
</radialGradient>
<linearGradient id="paint10_linear" x1="568.002" y1="145.995" x2="568.002" y2="209.255" gradientUnits="userSpaceOnUse">
<stop offset="0.3344" stop-color="#9780E6"/>
<stop offset="0.8488" stop-color="#8A6FE8"/>
</linearGradient>
<radialGradient id="paint11_radial" cx="0" cy="0" r="1" gradientUnits="userSpaceOnUse" gradientTransform="translate(580.862 203.84) rotate(180) scale(12.0616 11.9445)">
<stop stop-color="#8065E0"/>
<stop offset="1" stop-color="#512BD4"/>
</radialGradient>
<radialGradient id="paint12_radial" cx="0" cy="0" r="1" gradientUnits="userSpaceOnUse" gradientTransform="translate(543.678 145.435) scale(11.7535 11.6392)">
<stop stop-color="#8065E0"/>
<stop offset="1" stop-color="#512BD4"/>
</radialGradient>
</defs>
</svg>
