<svg width="636" height="300" viewBox="0 0 636 300" fill="none" xmlns="http://www.w3.org/2000/svg">
<path d="M418.01 85.74H330.69V149.37H418.01V85.74Z" fill="#E86E58"/>
<path d="M418.01 85.74H402.94V149.37H418.01V85.74Z" fill="#CC5444"/>
<path d="M420.08 85.74H327.66V69.08H399.84L420.08 85.74Z" fill="#FDC9B5"/>
<path d="M420.08 86.8L399.64 85.74V69.08L420.08 70.92V86.8Z" fill="#EA7F6B"/>
<path d="M543.9 95.97H440.97V184.86H543.9V95.97Z" fill="#98C2F5"/>
<path d="M543.89 95.97H522.84V184.86H543.89V95.97Z" fill="#3E8EED"/>
<path d="M546.98 109.65H436.53V90.47H520.84L546.98 109.65Z" fill="#D8E8FB"/>
<path d="M546.98 110.73L520.88 109.65V90.47L546.98 92.4V110.73Z" fill="#98C2F5"/>
<path d="M410.36 275.81H336.67V165.52H423.73L410.36 275.81Z" fill="#70D6E0"/>
<path d="M426.52 274.22L410.24 275.81V165.52H426.52V274.22Z" fill="#28C2D1"/>
<path d="M429.63 149.3H333.72V167.32H429.63V149.3Z" fill="#CFF1F5"/>
<path d="M429.62 149.3H406.48V167.32H429.62V149.3Z" fill="#70D6E0"/>
<path d="M523.08 275.81H440.97V186.92H543.89L523.08 275.81Z" fill="#98C2F5"/>
<path d="M543.89 273.78L522.84 275.81V186.92H543.89V273.78Z" fill="#3E8EED"/>
<path d="M521.22 200.6H436.53V181.43H521.48L521.22 200.6Z" fill="#D8E8FB"/>
<path d="M546.98 199.3L520.88 200.6V181.43L546.98 181.19V199.3Z" fill="#98C2F5"/>
<path d="M360.84 141.58H273.52V205.21H360.84V141.58Z" fill="#98C2F5"/>
<path d="M360.83 141.58H345.76V205.21H360.83V141.58Z" fill="#3E8EED"/>
<path d="M362.91 124.91H270.49V141.58H362.91V124.91Z" fill="#D8E8FB"/>
<path d="M362.91 124.91H342.46V141.58H362.91V124.91Z" fill="#98C2F5"/>
<path d="M344.6 285.43H272.33V221.8H359.64L344.6 285.43Z" fill="#98C2F5"/>
<path d="M359.64 283.62L344.57 285.43V221.8H359.64V283.62Z" fill="#3E8EED"/>
<path d="M341.92 221.8H269.3V205.13H341.69L341.92 221.8Z" fill="#D8E8FB"/>
<path d="M361.72 221L341.27 221.8V205.13L361.72 204.33V221Z" fill="#98C2F5"/>
<path d="M234.91 96.84C232.44 105.76 217.88 123.1 204.45 128.16C196.29 131.23 192.06 121.76 200.36 118.63C209.36 115.25 222.51 100.91 224.44 93.95L234.91 96.84Z" fill="#8A6FE8"/>
<path d="M216.33 84.17L218.96 99.11C219.43 101.77 221.96 103.55 224.63 103.08C227.29 102.61 229.07 100.08 228.6 97.41L225.97 82.47C225.5 79.81 222.97 78.03 220.3 78.5C217.65 78.97 215.87 81.5 216.33 84.17Z" fill="#8A6FE8"/>
<path d="M236.55 105.71L245.76 101.32C248.2 100.13 249.22 97.18 248.03 94.74C246.84 92.3 243.89 91.28 241.45 92.47L232.01 96.98L236.55 105.71Z" fill="#8A6FE8"/>
<path d="M238.07 100.41L247.11 89.6301C248.85 87.5401 248.57 84.4301 246.48 82.6901C244.39 80.9501 241.28 81.2301 239.54 83.3201L232.78 91.3201L238.07 100.41Z" fill="#8A6FE8"/>
<path d="M232.64 97.81L239.01 85.25C240.25 82.82 239.28 79.86 236.86 78.63C234.43 77.39 231.47 78.36 230.24 80.78L223.75 93.57L232.64 97.81Z" fill="#8A6FE8"/>
<path d="M229.54 108.96C235.23 108.96 239.85 104.35 239.85 98.65C239.85 92.95 235.24 88.34 229.54 88.34C223.85 88.34 219.23 92.95 219.23 98.65C219.23 104.35 223.84 108.96 229.54 108.96Z" fill="url(#paint0_radial)"/>
<path d="M244.303 138.319L321.199 111.865L298.473 45.8057L221.577 72.2591L244.303 138.319Z" fill="#F7B548"/>
<path d="M244.3 138.31L253.72 135.29L231 69.23L221.58 72.25L244.3 138.31Z" fill="#E29E3B"/>
<path d="M219.381 77.2842L302.839 48.5732L296.938 31.4201L213.48 60.131L219.381 77.2842Z" fill="#FEDEA7"/>
<path d="M219.37 77.2801L233.91 72.2201L228.01 55.0601L213.47 60.1201L219.37 77.2801Z" fill="#FCCF84"/>
<path d="M137.87 231.42C144.33 224.47 156.28 209.32 159.89 190.82L148.89 188.67C145.62 205.45 134.64 218.53 129.48 223.9C129.06 224.36 132.93 228.64 137.87 231.42Z" fill="url(#paint1_linear)"/>
<path d="M137.87 231.42C144.33 224.47 156.28 209.32 159.89 190.82L148.89 188.67C145.62 205.45 134.64 218.53 129.48 223.9C129.06 224.36 132.93 228.64 137.87 231.42Z" fill="url(#paint2_linear)"/>
<path d="M129.55 223.83L136.14 229.77L120.6 279.57L97.1499 258.5C96.1399 257.59 96.1199 256.1 97.0999 255.15L129.55 223.83Z" fill="#522CD5"/>
<path d="M135 275.69C135.5 277.58 134.18 279.2 132.84 280.49L128.74 284.44C128.01 285.14 126.79 285.17 126.03 284.49L117.75 277.03C116.89 276.26 116.87 274.99 117.71 274.18L121.76 269.91C123.31 268.43 124.06 267.28 123.43 264.75C119.7 249.79 122.54 236.6 131.9 225.95L137.93 231.38C133.48 237.16 128.51 250.81 135 275.69Z" fill="url(#paint3_linear)"/>
<path d="M126.04 284.48C126.79 285.16 128.01 285.14 128.75 284.43L132.85 280.48C133.73 279.64 134.59 278.64 134.93 277.53L123.55 267.27C123.31 268.25 122.68 269.02 121.77 269.9L117.72 274.17C116.89 274.97 116.9 276.25 117.76 277.02L126.04 284.48Z" fill="url(#paint4_radial)"/>
<path d="M177.04 234.55C178.36 225.07 179.45 205.81 171.73 189.65L161.42 195.42C168.43 210.08 166.92 227.15 165.78 234.58C165.67 235.2 171.35 235.78 177.04 234.55Z" fill="url(#paint5_linear)"/>
<path d="M177.04 234.55C178.36 225.07 179.45 205.81 171.73 189.65L161.42 195.42C168.43 210.08 166.92 227.15 165.78 234.58C165.67 235.2 171.35 235.78 177.04 234.55Z" fill="url(#paint6_linear)"/>
<path d="M165.79 234.47H174.65L190.63 281.87L159.11 281.91C157.76 281.91 156.87 280.81 157.13 279.46L165.79 234.47Z" fill="#522CD5"/>
<path d="M200.26 269.36C201.77 270.43 201.61 272.51 201.26 274.37L200.16 280.04C199.97 281.05 198.97 281.88 197.95 281.88H186.81C185.66 281.88 184.91 280.95 185.12 279.8L185.99 273.91C186.4 271.78 186.37 270.42 184.38 268.97C172.65 260.35 167.37 248.66 168.93 234.48H177.04C176.74 241.74 180.53 255.22 200.26 269.36Z" fill="url(#paint7_linear)"/>
<path d="M197.96 281.89C198.98 281.89 199.97 281.06 200.17 280.05L201.27 274.38C201.5 273.17 201.64 271.85 201.28 270.79H185.95C186.32 271.68 186.24 272.67 186 273.93L185.13 279.82C184.91 280.97 185.67 281.9 186.82 281.9H197.96V281.89Z" fill="url(#paint8_radial)"/>
<path d="M217.42 139.86C216.26 123.83 209.78 112.91 209.78 112.91L213.24 111.73L213.3 111.64C199.17 86.29 168.53 73.83 140.08 83.5C108.01 94.39 90.8299 129.21 101.72 161.28C112.61 193.35 147.43 210.52 179.5 199.64C204.8 191.04 220.83 167.56 221.11 142.27C221.03 141.24 220.43 139.51 217.42 139.86Z" fill="url(#paint9_radial)"/>
<path d="M217.42 139.86C216.27 124.02 209.95 113.18 209.79 112.92L182.97 121.92C182.97 121.92 179.05 122.83 180.22 126.29C181.4 129.75 184.87 139.51 188.55 150.34C189.3 152.56 217.48 142.12 217.42 139.86Z" fill="url(#paint10_radial)"/>
<path d="M217.42 139.79C217.37 139.19 217.32 138.59 217.27 138C216.98 135.02 216.5 132.24 215.93 129.69C214.59 129.64 213.5 130.34 212.52 131.77C211.17 133.74 204.4 144.22 204.4 144.22L217.42 139.79Z" fill="#A08BE8"/>
<path d="M221.12 143.01C221.12 143.01 221.68 139.37 217.43 139.84C217.43 139.83 217.43 139.8 217.43 139.79L191.62 148.45C190.24 148.92 188.18 148.69 187.58 147.42C187.91 148.38 188.23 149.35 188.56 150.32C189.25 152.34 191.11 152.9 192.52 152.62C192.66 152.59 192.8 152.56 192.94 152.52L196.99 151.14L221.12 143.01Z" fill="#512BD4"/>
<path d="M219.84 153.98L119.7 187.98C123.24 191.03 127.12 193.66 131.23 195.82L215.46 167.22C217.43 163 218.9 158.57 219.84 153.98Z" fill="#D8CFF7"/>
<path d="M213.74 170.73C217.15 164.42 219.45 157.51 220.5 150.35L208.24 154.51L213.74 170.73Z" fill="#512BD4"/>
<path d="M143.16 79.98L131.92 83.71L129.66 71.64L137.74 68.96L143.16 79.98Z" fill="#8A6FE8"/>
<path d="M149.8 85.6001C150.31 85.4301 150.57 84.8601 150.35 84.3701C147.99 79.2401 142.07 76.5801 136.58 78.4101C131.09 80.2401 127.93 85.8901 129.12 91.4301C129.23 91.9501 129.78 92.2601 130.3 92.0901L149.8 85.6001Z" fill="url(#paint11_radial)"/>
<path d="M203.33 138.89C205.86 138.09 206.83 134.01 205.49 129.76C204.16 125.51 201.02 122.72 198.49 123.51C195.96 124.31 194.99 128.39 196.33 132.64C197.67 136.89 200.8 139.69 203.33 138.89Z" fill="#512BD4"/>
<path d="M199.51 127.16C198.4 129.37 199.29 132.06 201.5 133.19C203.02 133.96 204.76 133.78 206.06 132.87C206.01 131.87 205.82 130.83 205.47 129.75C204.82 127.67 203.73 125.93 202.49 124.81C201.26 125.1 200.13 125.92 199.51 127.16Z" fill="#8065E0"/>
<path d="M131.87 73.06C136.6 73.06 140.43 69.23 140.43 64.5C140.43 59.77 136.6 55.94 131.87 55.94C127.14 55.94 123.31 59.77 123.31 64.5C123.31 69.22 127.14 73.06 131.87 73.06Z" fill="#D8CFF7"/>
<path d="M242.07 140.72L233.58 133.01C224.66 142.09 216.36 149.92 207.22 153.52C189.01 160.7 170 146.79 164.99 142.64L155.99 153.13C171.63 162.83 202.51 185.84 242.07 140.72Z" fill="url(#paint12_linear)"/>
<path d="M239.14 130.38L239.93 119.45C240.12 116.54 237.85 114.17 234.85 114.17C231.85 114.17 229.27 116.52 229.08 119.45L228.28 130.66L239.14 130.38Z" fill="#8A6FE8"/>
<path d="M158.38 157.1C164.6 157.1 169.65 152.06 169.65 145.83C169.65 139.6 164.61 134.56 158.38 134.56C152.16 134.56 147.11 139.6 147.11 145.83C147.11 152.06 152.16 157.1 158.38 157.1Z" fill="url(#paint13_radial)"/>
<path d="M238.84 147.19L249.63 143.28C252.49 142.22 253.99 139.19 252.96 136.54C251.94 133.87 248.78 132.57 245.91 133.63L234.85 137.64L238.84 147.19Z" fill="#8A6FE8"/>
<path d="M242.05 135.54L248.82 126.28C250.61 123.8 250.15 120.47 247.81 118.83C245.46 117.2 242.11 117.88 240.33 120.36L233.39 129.86L242.05 135.54Z" fill="#8A6FE8"/>
<path d="M242.99 140.84L252.28 134.1C254.75 132.29 255.33 128.98 253.61 126.7C251.87 124.43 248.48 124.06 246.02 125.86L236.5 132.77L242.99 140.84Z" fill="#8A6FE8"/>
<path d="M224.76 134.02C226.94 128.22 233.51 124.95 239.45 126.73C245.38 128.51 248.42 134.64 246.23 140.45C244.05 146.26 237.48 149.52 231.54 147.74C225.63 145.97 222.59 139.83 224.76 134.02Z" fill="url(#paint14_radial)"/>
<defs>
<radialGradient id="paint0_radial" cx="0" cy="0" r="1" gradientUnits="userSpaceOnUse" gradientTransform="translate(221.281 100.217) rotate(-107.56) scale(34.5669)">
<stop stop-color="#8065E0"/>
<stop offset="0.8628" stop-color="#512BD4"/>
</radialGradient>
<linearGradient id="paint1_linear" x1="157.053" y1="189.081" x2="133.669" y2="228.888" gradientUnits="userSpaceOnUse">
<stop stop-color="#522CD5"/>
<stop offset="0.4397" stop-color="#8A6FE8"/>
</linearGradient>
<linearGradient id="paint2_linear" x1="157.053" y1="189.081" x2="133.669" y2="228.888" gradientUnits="userSpaceOnUse">
<stop stop-color="#522CD5"/>
<stop offset="0.4397" stop-color="#8A6FE8"/>
</linearGradient>
<linearGradient id="paint3_linear" x1="136.612" y1="227.042" x2="123.43" y2="284.133" gradientUnits="userSpaceOnUse">
<stop stop-color="#522CD5"/>
<stop offset="0.4397" stop-color="#8A6FE8"/>
</linearGradient>
<radialGradient id="paint4_radial" cx="0" cy="0" r="1" gradientUnits="userSpaceOnUse" gradientTransform="translate(135.378 265.327) rotate(42.0289) scale(18.063)">
<stop offset="0.034" stop-color="#522CD5"/>
<stop offset="0.9955" stop-color="#8A6FE8"/>
</radialGradient>
<linearGradient id="paint5_linear" x1="165.383" y1="190.807" x2="174.228" y2="234.998" gradientUnits="userSpaceOnUse">
<stop stop-color="#522CD5"/>
<stop offset="0.4397" stop-color="#8A6FE8"/>
</linearGradient>
<linearGradient id="paint6_linear" x1="165.383" y1="190.807" x2="174.228" y2="234.998" gradientUnits="userSpaceOnUse">
<stop stop-color="#522CD5"/>
<stop offset="0.4397" stop-color="#8A6FE8"/>
</linearGradient>
<linearGradient id="paint7_linear" x1="171.186" y1="233.303" x2="196.851" y2="282.703" gradientUnits="userSpaceOnUse">
<stop stop-color="#522CD5"/>
<stop offset="0.4397" stop-color="#8A6FE8"/>
</linearGradient>
<radialGradient id="paint8_radial" cx="0" cy="0" r="1" gradientUnits="userSpaceOnUse" gradientTransform="translate(194.657 261.275) scale(18.0632)">
<stop offset="0.034" stop-color="#522CD5"/>
<stop offset="0.9955" stop-color="#8A6FE8"/>
</radialGradient>
<radialGradient id="paint9_radial" cx="0" cy="0" r="1" gradientUnits="userSpaceOnUse" gradientTransform="translate(148.152 111.434) rotate(-29.118) scale(52.2093)">
<stop offset="0.4744" stop-color="#A08BE8"/>
<stop offset="0.8618" stop-color="#8065E0"/>
</radialGradient>
<radialGradient id="paint10_radial" cx="0" cy="0" r="1" gradientUnits="userSpaceOnUse" gradientTransform="translate(197.808 127.747) rotate(-29.118) scale(40.1094)">
<stop offset="0.2022" stop-color="#E1DFDD"/>
<stop offset="0.7337" stop-color="white"/>
</radialGradient>
<radialGradient id="paint11_radial" cx="0" cy="0" r="1" gradientUnits="userSpaceOnUse" gradientTransform="translate(138.003 84.7962) rotate(-29.118) scale(9.03068)">
<stop stop-color="#8065E0"/>
<stop offset="0.8628" stop-color="#512BD4"/>
</radialGradient>
<linearGradient id="paint12_linear" x1="163.623" y1="123.486" x2="232.157" y2="166.566" gradientUnits="userSpaceOnUse">
<stop offset="0.3344" stop-color="#9780E6"/>
<stop offset="0.8488" stop-color="#8A6FE8"/>
</linearGradient>
<radialGradient id="paint13_radial" cx="0" cy="0" r="1" gradientUnits="userSpaceOnUse" gradientTransform="translate(157.363 141.195) rotate(-18.9226) scale(16.7246)">
<stop stop-color="#8065E0"/>
<stop offset="0.8628" stop-color="#512BD4"/>
</radialGradient>
<radialGradient id="paint14_radial" cx="0" cy="0" r="1" gradientUnits="userSpaceOnUse" gradientTransform="translate(232.022 131.842) rotate(152.889) scale(19.5461 18.2416)">
<stop stop-color="#8065E0"/>
<stop offset="0.8628" stop-color="#512BD4"/>
</radialGradient>
</defs>
</svg>
