<svg width="636" height="300" viewBox="0 0 636 300" fill="none" xmlns="http://www.w3.org/2000/svg">
<path d="M399.506 173.273L398.802 175.441L520.106 214.813L520.809 212.644L399.506 173.273Z" fill="#908D89"/>
<path d="M416.97 156.5L416.6 156.37L214 87.14L214.74 84.99L416.96 154.09L513.13 120.56L513.88 122.71L416.97 156.5Z" fill="#908D89"/>
<path d="M297.18 172.87L200.38 137.44L128.35 161.45L127.63 159.29L200.41 135.03L297.96 170.74L297.18 172.87Z" fill="#908D89"/>
<path d="M226.18 230.04L225.42 227.89L369.85 178.34L370.61 180.48L226.18 230.04Z" fill="#908D89"/>
<path d="M94.1599 137.17L67.1699 127.8L94.1599 118.42L121.16 127.8L94.1599 137.17Z" fill="#DDDBDA"/>
<path d="M67.1699 127.8V158.8L94.1599 168.03V137.17L67.1699 127.8Z" fill="#BBB8B4"/>
<path d="M121.18 127.8V158.8L94.1599 168.03V137.17L121.18 127.8Z" fill="#CC5444"/>
<path d="M406.19 147.4L379.19 138.03L406.19 128.65L433.18 138.03L406.19 147.4Z" fill="#BBACEF"/>
<path d="M379.19 138.03V169.03L406.19 178.26V147.4L379.19 138.03Z" fill="#3E8EED"/>
<path d="M433.21 138.03V169.03L406.19 178.26V147.4L433.21 138.03Z" fill="#7354DD"/>
<path d="M352.49 147.32L325.5 137.95L352.49 128.57L379.49 137.95L352.49 147.32Z" fill="#A3C9F6"/>
<path d="M325.5 137.95V168.95L352.49 178.18V147.32L325.5 137.95Z" fill="#3E8EED"/>
<path d="M379.51 137.95V168.95L352.49 178.18V147.32L379.51 137.95Z" fill="#0064DA"/>
<path d="M325.5 156.65L298.51 147.27L325.5 137.9L352.5 147.27L325.5 156.65Z" fill="#A3C9F6"/>
<path d="M298.51 147.27V178.27L325.5 187.51V156.65L298.51 147.27Z" fill="#3E8EED"/>
<path d="M352.52 147.27V178.27L325.5 187.51V156.65L352.52 147.27Z" fill="#7354DD"/>
<path d="M352.44 116.53L325.45 107.16L352.44 97.78L379.44 107.16L352.44 116.53Z" fill="#DDDBDA"/>
<path d="M325.45 107.16V138.16L352.44 147.39V116.53L325.45 107.16Z" fill="#3E8EED"/>
<path d="M379.46 107.16V138.16L352.44 147.39V116.53L379.46 107.16Z" fill="#908D89"/>
<path d="M379.27 156.65L352.28 147.27L379.27 137.9L406.27 147.27L379.27 156.65Z" fill="#FCCF84"/>
<path d="M352.28 147.27V178.27L379.27 187.51V156.65L352.28 147.27Z" fill="#F7B548"/>
<path d="M406.29 147.27V178.27L379.27 187.51V156.65L406.29 147.27Z" fill="#E29E3B"/>
<path d="M298.51 165.91L271.51 156.54L298.51 147.16L325.5 156.54L298.51 165.91Z" fill="#BDD8F9"/>
<path d="M271.51 156.54V187.54L298.51 196.77V165.91L271.51 156.54Z" fill="#8DBCF4"/>
<path d="M325.53 156.54V187.54L298.51 196.77V165.91L325.53 156.54Z" fill="#549BEF"/>
<path d="M325.4 125.85L298.4 116.47L325.4 107.09L352.39 116.47L325.4 125.85Z" fill="#F4AC99"/>
<path d="M298.4 116.47V147.47L325.4 156.7V125.85L298.4 116.47Z" fill="#E86E58"/>
<path d="M352.41 116.47V147.47L325.4 156.7V125.85L352.41 116.47Z" fill="#CC5444"/>
<path d="M325.4 94.94L298.4 85.56L325.4 76.19L352.39 85.56L325.4 94.94Z" fill="#FCCF84"/>
<path d="M298.4 85.56V116.56L325.4 125.8V94.94L298.4 85.56Z" fill="#F7B548"/>
<path d="M352.41 85.56V116.56L325.4 125.8V94.94L352.41 85.56Z" fill="#E29E3B"/>
<path d="M546.6 210.18L519.6 200.8L546.6 191.43L573.59 200.8L546.6 210.18Z" fill="#DDDBDA"/>
<path d="M519.6 200.8V231.8L546.6 241.04V210.18L519.6 200.8Z" fill="#3E8EED"/>
<path d="M573.62 200.8V231.8L546.6 241.04V210.18L573.62 200.8Z" fill="#908D89"/>
<path d="M519.68 219.43L492.69 210.05L519.68 200.67L546.68 210.05L519.68 219.43Z" fill="#FCCF84"/>
<path d="M492.69 210.05V241.05L519.68 250.28V219.43L492.69 210.05Z" fill="#F7B548"/>
<path d="M546.7 210.05V241.05L519.68 250.28V219.43L546.7 210.05Z" fill="#E29E3B"/>
<path d="M506.77 94.26L479.78 84.88L506.77 75.5L533.77 84.88L506.77 94.26Z" fill="#DDDBDA"/>
<path d="M479.78 84.88V115.88L506.77 125.11V94.26L479.78 84.88Z" fill="#BBB8B4"/>
<path d="M533.79 84.88V115.88L506.77 125.11V94.26L533.79 84.88Z" fill="#0064DA"/>
<path d="M533.53 103.5L506.53 94.13L533.53 84.75L560.52 94.13L533.53 103.5Z" fill="#F4AC99"/>
<path d="M506.53 94.13V125.13L533.53 134.36V103.5L506.53 94.13Z" fill="#F7B548"/>
<path d="M560.54 94.13V125.13L533.53 134.36V103.5L560.54 94.13Z" fill="#E29E3B"/>
<path d="M533.5 72.71L506.5 63.33L533.5 53.96L560.49 63.33L533.5 72.71Z" fill="#BDD8F9"/>
<path d="M506.5 63.33V94.33L533.5 103.57V72.71L506.5 63.33Z" fill="#8DBCF4"/>
<path d="M560.52 63.33V94.33L533.5 103.57V72.71L560.52 63.33Z" fill="#549BEF"/>
<path d="M209.28 62.87L182.28 53.49L209.28 44.11L236.27 53.49L209.28 62.87Z" fill="#A3C9F6"/>
<path d="M182.28 53.49V84.49L209.28 93.72V62.87L182.28 53.49Z" fill="#3E8EED"/>
<path d="M236.29 53.49V84.49L209.28 93.72V62.87L236.29 53.49Z" fill="#0064DA"/>
<path d="M121.12 146.52L94.1199 137.15L121.12 127.77L148.11 137.15L121.12 146.52Z" fill="#BBACEF"/>
<path d="M94.1199 137.15V168.15L121.12 177.38V146.52L94.1199 137.15Z" fill="#3E8EED"/>
<path d="M148.13 137.15V168.15L121.12 177.38V146.52L148.13 137.15Z" fill="#7354DD"/>
<path d="M94.2 155.77L67.21 146.39L94.2 137.02L121.2 146.39L94.2 155.77Z" fill="#FCCF84"/>
<path d="M67.21 146.39V177.39L94.2 186.63V155.77L67.21 146.39Z" fill="#F7B548"/>
<path d="M121.22 146.39V177.39L94.2 186.63V155.77L121.22 146.39Z" fill="#E29E3B"/>
<path d="M212.45 224.18L185.46 214.81L212.45 205.43L239.45 214.81L212.45 224.18Z" fill="#F4AC99"/>
<path d="M185.46 214.81V245.81L212.45 255.04V224.18L185.46 214.81Z" fill="#E86E58"/>
<path d="M239.47 214.81V245.81L212.45 255.04V224.18L239.47 214.81Z" fill="#CC5444"/>
<path d="M305.59 96.27V110.77L318.21 115.08V100.66L305.59 96.27Z" fill="#E29E3B"/>
<path d="M301.07 107.49C300.6 107.49 300.17 107.2 300 106.74C299.79 106.15 300.09 105.5 300.68 105.28L308.02 102.66C308.61 102.44 309.26 102.75 309.48 103.34C309.69 103.93 309.39 104.58 308.8 104.8L301.46 107.42C301.33 107.47 301.2 107.49 301.07 107.49Z" fill="#FCCF84"/>
<path d="M307.58 109.55C307.11 109.55 306.68 109.26 306.51 108.8C306.3 108.21 306.6 107.56 307.19 107.34L314.53 104.72C315.12 104.5 315.77 104.81 315.99 105.4C316.2 105.99 315.9 106.64 315.31 106.86L307.97 109.48C307.84 109.53 307.71 109.55 307.58 109.55Z" fill="#FCCF84"/>
<path d="M232.59 225.59V240.09L219.97 244.4V229.98L232.59 225.59Z" fill="#E86E58"/>
<path d="M237.11 236.81C237.58 236.81 238.01 236.52 238.18 236.06C238.39 235.47 238.09 234.82 237.5 234.6L230.16 231.98C229.57 231.76 228.92 232.07 228.7 232.66C228.49 233.25 228.79 233.9 229.38 234.12L236.72 236.74C236.85 236.79 236.98 236.81 237.11 236.81Z" fill="#F4AC99"/>
<path d="M230.6 238.87C231.07 238.87 231.5 238.58 231.67 238.12C231.88 237.53 231.58 236.88 230.99 236.66L223.65 234.04C223.06 233.82 222.41 234.13 222.19 234.72C221.98 235.31 222.28 235.96 222.87 236.18L230.21 238.8C230.34 238.85 230.47 238.87 230.6 238.87Z" fill="#F4AC99"/>
<path d="M546.6 205.48L533.12 200.8L546.6 196.12L560.07 200.8L546.6 205.48Z" fill="#908D89"/>
<path d="M548.69 191.75C548.84 191.31 549.26 190.99 549.75 190.98C550.38 190.97 550.89 191.48 550.9 192.1L550.97 199.89C550.98 200.52 550.48 201.03 549.85 201.04C549.22 201.05 548.71 200.54 548.7 199.92L548.63 192.13C548.62 192.01 548.64 191.88 548.69 191.75Z" fill="#BBB8B4"/>
<path d="M542.78 193.74C542.93 193.3 543.35 192.98 543.84 192.97C544.47 192.96 544.98 193.47 544.99 194.09L545.06 201.88C545.07 202.51 544.57 203.02 543.94 203.03C543.31 203.04 542.8 202.53 542.79 201.91L542.72 194.12C542.72 193.99 542.74 193.86 542.78 193.74Z" fill="#BBB8B4"/>
<path d="M379.34 151.59L365.86 146.91L379.34 142.23L392.82 146.91L379.34 151.59Z" fill="#E29E3B"/>
<path d="M381.43 137.86C381.58 137.42 382 137.1 382.49 137.09C383.12 137.08 383.63 137.59 383.64 138.21L383.71 146C383.72 146.63 383.22 147.14 382.59 147.15C381.96 147.16 381.45 146.65 381.44 146.03L381.37 138.24C381.36 138.11 381.38 137.98 381.43 137.86Z" fill="#F7B548"/>
<path d="M375.52 139.84C375.67 139.4 376.09 139.08 376.58 139.07C377.21 139.06 377.72 139.57 377.73 140.19L377.8 147.98C377.81 148.61 377.31 149.12 376.68 149.13C376.05 149.14 375.54 148.63 375.53 148.01L375.46 140.22C375.46 140.09 375.48 139.96 375.52 139.84Z" fill="#F7B548"/>
<path d="M120.51 141.73L107.04 137.05L120.51 132.36L133.99 137.05L120.51 141.73Z" fill="#7354DD"/>
<path d="M122.6 128C122.75 127.56 123.17 127.24 123.66 127.23C124.29 127.22 124.8 127.73 124.81 128.35L124.88 136.14C124.89 136.77 124.39 137.28 123.76 137.29C123.13 137.3 122.62 136.79 122.61 136.17L122.54 128.38C122.54 128.25 122.56 128.12 122.6 128Z" fill="#A08BE8"/>
<path d="M116.7 129.98C116.85 129.54 117.27 129.22 117.76 129.21C118.39 129.2 118.9 129.71 118.91 130.33L118.98 138.12C118.99 138.75 118.49 139.26 117.86 139.27C117.23 139.28 116.72 138.77 116.71 138.15L116.64 130.36C116.63 130.23 116.66 130.1 116.7 129.98Z" fill="#A08BE8"/>
</svg>
