<svg width="636" height="300" viewBox="0 0 636 300" fill="none" xmlns="http://www.w3.org/2000/svg">
<path d="M337.27 143.72L423.79 143.35C428.64 143.36 432.61 139.93 432.61 135.68V81.34C432.61 77.09 428.64 73.89 423.79 74.19L337.27 79.54C333.22 79.79 329.96 83.1 329.96 86.94V136.74C329.97 140.59 333.22 143.71 337.27 143.72Z" fill="#AFE5DE"/>
<path d="M352.92 99.12C352.52 99.12 352.19 98.81 352.17 98.41C352.15 98 352.47 97.64 352.88 97.62L416.95 95.36C417.36 95.34 417.72 95.66 417.74 96.07C417.76 96.48 417.44 96.84 417.03 96.86L352.96 99.12C352.94 99.12 352.93 99.12 352.92 99.12Z" fill="#1DACCC"/>
<path d="M343.89 109.16C343.49 109.16 343.16 108.85 343.14 108.45C343.12 108.04 343.44 107.68 343.85 107.66L407.92 105.89C408.33 105.87 408.69 106.19 408.71 106.6C408.73 107.01 408.41 107.37 408 107.39L343.93 109.16C343.91 109.16 343.9 109.16 343.89 109.16Z" fill="#1DACCC"/>
<path d="M350.52 118.68C350.12 118.68 349.79 118.37 349.77 117.97C349.75 117.56 350.07 117.2 350.48 117.18L414.55 115.92C414.97 115.91 415.32 116.22 415.34 116.63C415.36 117.04 415.04 117.4 414.63 117.42L350.56 118.68C350.54 118.68 350.53 118.68 350.52 118.68Z" fill="#1DACCC"/>
<path d="M344.51 127.69C344.11 127.69 343.78 127.38 343.76 126.98C343.74 126.57 344.06 126.21 344.47 126.19L398.6 125.32C399 125.31 399.37 125.62 399.39 126.03C399.41 126.44 399.09 126.8 398.68 126.82L344.55 127.69C344.54 127.69 344.52 127.69 344.51 127.69Z" fill="#1DACCC"/>
<path d="M105.42 209.33L225.86 212.97V127.29L105.42 129.64V209.33Z" fill="#C8C6C4"/>
<path d="M105.42 209.33L225.86 215.66V202.06L105.42 197.05V209.33Z" fill="#72ACF1"/>
<path d="M189.08 163.71C189.08 177.79 176.66 188.96 161.78 188.67C147.35 188.39 135.98 177.37 135.98 164.07C135.98 150.77 147.35 139.6 161.78 139.12C176.67 138.63 189.08 149.63 189.08 163.71Z" fill="white"/>
<path d="M154.27 174.13V153.21L174.8 162.88L154.27 174.13Z" fill="#72ACF1"/>
<path d="M378.98 123.41L297.25 124.69C293.53 124.75 290.54 121.81 290.54 118.13V66.75C290.54 63.07 293.53 59.83 297.25 59.52L378.98 54.81C383.42 54.44 387.06 57.43 387.06 61.5V115.92C387.06 119.98 383.43 123.34 378.98 123.41Z" fill="#57CACF"/>
<path d="M385.08 43.83L362.76 77.82L352.08 72.2L373.91 38.45L385.08 43.83Z" fill="#F7B548"/>
<path d="M362.76 77.82L351.07 84.24L352.08 72.2L362.76 77.82Z" fill="#FAF9F8"/>
<path d="M356.77 81.11L351.07 84.24L351.56 78.34L356.77 81.11Z" fill="#797673"/>
<path d="M385.14 43.74L362.76 77.82L358.62 75.64L380.8 41.66L385.14 43.74Z" fill="#F7B548"/>
<path d="M373.79 38.65L378.05 32.06C378.73 31 380.16 30.56 381.24 31.07L388.58 34.52C389.68 35.04 390.01 36.32 389.31 37.38L384.95 44.02L373.79 38.65Z" fill="#B3AFAB"/>
<path d="M315.34 99.64C315.34 102.38 313.06 104.69 310.26 104.8C307.48 104.9 305.24 102.78 305.24 100.07C305.24 97.36 307.48 95.05 310.26 94.92C313.06 94.78 315.34 96.9 315.34 99.64Z" fill="white"/>
<path d="M333.51 98.88C333.51 101.68 331.14 104.03 328.24 104.14C325.35 104.25 323.02 102.09 323.02 99.32C323.02 96.55 325.35 94.2 328.24 94.06C331.14 93.93 333.51 96.08 333.51 98.88Z" fill="white"/>
<path d="M352.4 98.09C352.4 100.94 349.94 103.35 346.92 103.46C343.92 103.57 341.5 101.37 341.5 98.55C341.5 95.73 343.92 93.33 346.92 93.19C349.94 93.04 352.4 95.23 352.4 98.09Z" fill="white"/>
<path d="M484.41 249.61L380.33 243.36C378.94 243.24 377.82 242.02 377.82 240.64V162.15C377.82 160.77 378.94 159.65 380.33 159.65L484.41 160.58C486.14 160.58 487.54 161.83 487.54 163.38V247.08C487.54 248.63 486.13 249.76 484.41 249.61Z" fill="#C8C6C4"/>
<path d="M425.54 168.83C424.66 169.06 423.8 169.33 422.94 169.67C421.77 170.13 420.69 170.68 419.68 171.3L421.19 174.96C420.18 175.68 419.28 176.49 418.52 177.38L413.99 176.68C412.86 178.35 412.05 180.18 411.61 182.08L415.53 183.96C415.36 185.24 415.4 186.55 415.67 187.84C414.65 188.39 412.93 189.27 411.84 189.83C412.06 190.58 412.34 191.32 412.69 192.05C413.17 193.06 413.74 194 414.4 194.89L418.63 193.66C419.48 194.61 420.46 195.45 421.55 196.15L420.56 200.09C422.48 201.11 424.59 201.83 426.8 202.22L429.22 198.68C430.48 198.78 431.77 198.74 433.05 198.56L435.38 202.07C436.32 201.87 437.26 201.61 438.19 201.28C439.46 200.83 440.64 200.28 441.74 199.64L440.11 195.87C441.2 195.13 442.15 194.27 442.96 193.33L447.58 194.37C448.87 192.56 449.78 190.57 450.25 188.48C448.91 187.95 447.02 187.2 445.98 186.76C446.14 185.56 446.12 184.33 445.89 183.11L450.06 181.12C449.8 180.2 449.46 179.28 449.02 178.39C448.47 177.28 447.81 176.26 447.05 175.31L442.72 176.87C441.78 175.85 440.69 174.98 439.49 174.26L440.76 170.34C438.84 169.39 436.75 168.73 434.58 168.39L432.5 172.02C430.97 171.88 429.4 171.94 427.85 172.22L425.54 168.83ZM438.57 182.32C440.46 186.2 438.34 190.7 433.87 192.34C429.44 193.97 424.39 192.16 422.57 188.33C420.75 184.52 422.79 180.09 427.16 178.41C431.57 176.71 436.69 178.45 438.57 182.32Z" fill="white"/>
<path d="M432.08 213.14V196.49L430.5 196.46V213.08L407.1 212.21V223.86L408.61 223.94V213.72L453.64 215.48V223.9L455.3 223.98V214.01L432.08 213.14Z" fill="white"/>
<path d="M416.43 231.23L398.92 230.23V220.75L416.43 221.57V231.23Z" fill="white"/>
<path d="M463.47 233.93L444.17 232.82V222.88L463.47 223.79V233.93Z" fill="white"/>
<path d="M362 137.69L292.24 165.65L303.99 241.55C301.92 240.17 299.47 241.31 296.81 241.72C294.21 242.11 291.67 239.76 290.11 241.63L278.71 167.71L203.79 161.73L217.41 250.76L288.69 252.84C291.58 256.22 294.62 257.06 299.03 256.39C303.43 255.72 306.21 253.82 307.85 249.97L375.46 227L362 137.69Z" fill="#0064DA"/>
<path d="M349.88 131.46C349.88 131.46 299.05 148.73 292.62 151.9C286.2 155.07 284.13 160.04 285.64 168.7C287.15 177.36 296.85 242.4 296.85 242.4L364.24 218.32L349.88 131.46Z" fill="#F7B548"/>
<path d="M214.03 152.11C214.03 152.11 267.18 153.59 274.26 154.7C281.34 155.81 284.79 159.95 285.91 168.66C287.04 177.37 296.86 242.4 296.86 242.4L225.62 239.57L214.03 152.11Z" fill="#FCCF84"/>
<path d="M273.02 171.25C272.94 171.26 272.85 171.27 272.77 171.26L229.54 169.5C228.82 169.47 228.25 168.86 228.28 168.14C228.31 167.41 228.95 166.85 229.64 166.88L272.87 168.64C273.6 168.67 274.16 169.28 274.13 170C274.1 170.64 273.62 171.15 273.02 171.25Z" fill="#B3AFAB"/>
<path d="M274.88 183.49C274.8 183.5 274.71 183.51 274.63 183.5L231.39 181.73C230.67 181.7 230.11 181.09 230.13 180.37C230.16 179.64 230.8 179.08 231.49 179.11L274.73 180.88C275.45 180.91 276.01 181.52 275.99 182.24C275.96 182.88 275.48 183.4 274.88 183.49Z" fill="#B3AFAB"/>
<path d="M276.74 195.73C276.66 195.74 276.57 195.75 276.49 195.74L233.25 193.97C232.53 193.94 231.97 193.33 231.99 192.61C232.02 191.88 232.66 191.31 233.35 191.35L276.59 193.12C277.31 193.15 277.87 193.76 277.85 194.48C277.82 195.12 277.34 195.63 276.74 195.73Z" fill="#B3AFAB"/>
<path d="M278.59 207.97C278.51 207.98 278.42 207.99 278.34 207.98L235.11 206.22C234.39 206.19 233.82 205.58 233.85 204.86C233.88 204.13 234.52 203.56 235.21 203.6L278.44 205.36C279.17 205.39 279.73 206 279.7 206.72C279.68 207.36 279.2 207.87 278.59 207.97Z" fill="#B3AFAB"/>
<path d="M298.53 167.37C298.61 167.36 298.7 167.34 298.77 167.31L339.53 152.78C340.21 152.54 340.57 151.79 340.33 151.1C340.09 150.42 339.31 150.07 338.65 150.3L297.89 164.83C297.21 165.07 296.85 165.82 297.09 166.51C297.31 167.11 297.92 167.46 298.53 167.37Z" fill="#B3AFAB"/>
<path d="M300.39 179.61C300.47 179.6 300.56 179.58 300.63 179.55L341.39 165.02C342.07 164.78 342.43 164.03 342.19 163.34C341.95 162.66 341.17 162.31 340.51 162.54L299.75 177.07C299.07 177.31 298.71 178.06 298.95 178.75C299.17 179.36 299.78 179.7 300.39 179.61Z" fill="#B3AFAB"/>
<path d="M302.25 191.85C302.33 191.84 302.42 191.82 302.49 191.79L343.25 177.26C343.93 177.02 344.29 176.27 344.05 175.58C343.81 174.9 343.03 174.54 342.37 174.78L301.61 189.31C300.93 189.55 300.57 190.3 300.81 190.99C301.03 191.59 301.64 191.94 302.25 191.85Z" fill="#B3AFAB"/>
<path d="M304.11 204.09C304.19 204.08 304.28 204.06 304.35 204.03L345.11 189.5C345.79 189.26 346.15 188.51 345.91 187.82C345.67 187.14 344.89 186.78 344.23 187.02L303.47 201.55C302.79 201.79 302.43 202.54 302.67 203.23C302.89 203.83 303.5 204.18 304.11 204.09Z" fill="#B3AFAB"/>
<path d="M292.27 244.79C293.68 243.61 295.39 242.78 297.34 242.49C299.14 242.22 300.88 242.45 302.47 243.04L366.57 221.14L354.77 140.16L349.69 131.5L362.1 215.56C362.1 215.56 309.68 234.11 305 235.96C300.32 237.81 296.96 242.3 296.96 242.3C296.96 242.3 294.57 239.34 288.25 238.71C281.93 238.08 226.99 237.11 226.99 237.11L214.25 152.27L211.93 162.52L224.45 243.44L292.27 244.79Z" fill="#8DBCF4"/>
</svg>
