<svg width="636" height="300" viewBox="0 0 636 300" fill="none" xmlns="http://www.w3.org/2000/svg">
<path d="M528.54 128.23C528.54 155.81 504.37 177.8 475.31 177.36C447.05 176.93 424.7 155.34 424.7 129.12C424.7 102.9 447.05 80.92 475.31 80.01C504.37 79.08 528.54 100.66 528.54 128.23Z" fill="#D5D3D0"/>
<path d="M296.09 268.28L294.37 268.17V255.96L141.48 247.38C141.08 247.36 140.76 246.98 140.76 246.54V207.53L142.21 207.58V245.82L295.23 254.27C295.7 254.3 296.09 254.71 296.09 255.19V268.28Z" fill="#C4C1BE"/>
<path d="M310.28 269.17L308.54 269.06V249.67L191.12 243.51C190.7 243.49 190.35 243.1 190.35 242.64V99.57L191.88 99.53V241.9L309.41 247.95C309.89 247.97 310.28 248.39 310.28 248.88V269.17Z" fill="#C4C1BE"/>
<path d="M324.69 270.07L322.92 269.96V243.49L241.85 239.36C241.4 239.34 241.04 238.94 241.04 238.47V219.7L242.66 219.76V237.7L323.81 241.76C324.3 241.79 324.69 242.2 324.69 242.69V270.07Z" fill="#C4C1BE"/>
<path d="M339.31 270.99L337.51 270.88V236.83L321.33 236.1C320.84 236.08 320.45 235.66 320.45 235.18V93.08L322.21 93.03V234.37L338.41 235.08C338.91 235.1 339.31 235.52 339.31 236.01V270.99Z" fill="#C4C1BE"/>
<path d="M354.16 271.92L352.34 271.8V216.92L354.16 216.98V271.92Z" fill="#C4C1BE"/>
<path d="M369.24 272.86L367.39 272.74V259.15C367.39 258.65 367.8 258.27 368.32 258.29L477.3 264.31V160.63L479.36 160.64V265.39C479.36 265.92 478.9 266.32 478.33 266.29L369.24 260.17V272.86Z" fill="#C4C1BE"/>
<path d="M180.84 164.12C180.84 188.45 162.82 207.58 141.08 206.87C119.88 206.17 103.06 186.76 103.06 163.49C103.06 140.22 119.87 121.08 141.08 120.73C162.82 120.37 180.84 139.79 180.84 164.12Z" fill="#3E8EED"/>
<path d="M141.29 147.23C128.04 147.25 116.34 153.75 108.52 163.92C116.34 174.22 128.04 180.92 141.29 181.16C154.75 181.4 166.97 174.95 175.34 164.48C166.97 153.87 154.74 147.21 141.29 147.23Z" fill="#D8F3FE"/>
<path d="M110.72 166.59C118.45 158.51 129.22 153.48 141.29 153.5C153.53 153.53 164.74 158.75 172.97 167.2C173.79 166.32 174.59 165.42 175.34 164.47C166.97 153.86 154.74 147.2 141.29 147.22C128.04 147.24 116.34 153.74 108.52 163.91C109.22 164.84 109.96 165.72 110.72 166.59Z" fill="#BDD8F9"/>
<path d="M430.4 222.56L301.45 217.93C297.65 217.79 294.57 214.56 294.57 210.7V128.92C294.57 125.07 297.64 121.9 301.45 121.84L430.4 119.95C434.76 119.89 438.3 123.2 438.3 127.34V215.33C438.3 219.49 434.76 222.72 430.4 222.56Z" fill="#F7B548"/>
<path d="M155.76 163.92C155.76 172.9 149.16 180.06 141.09 179.92C133.09 179.78 126.66 172.51 126.66 163.68C126.66 154.85 133.09 147.68 141.09 147.67C149.16 147.67 155.76 154.94 155.76 163.92Z" fill="#085A7E"/>
<path d="M147.88 163.85C147.88 168.01 144.83 171.34 141.09 171.29C137.36 171.24 134.35 167.86 134.35 163.74C134.35 159.62 137.36 156.28 141.09 156.3C144.83 156.32 147.88 159.7 147.88 163.85Z" fill="#60A2F0"/>
<path d="M359.41 10.08L300.1 14.3C286.63 15.26 275.85 27.05 275.85 40.65V69.1C275.85 82.7 286.63 93.4 300.1 93L341.3 91.77L359.93 112.64V91.19C374.22 90.49 385.88 78.6 385.88 64.38V34.25C385.88 19.86 373.95 9.03998 359.41 10.08Z" fill="#B3AFAB"/>
<path d="M344.92 75.4L338.84 60.21L319.51 61.1L313.65 76.59L308.08 76.8L326.92 27.7L331.64 27.4L350.85 75.17L344.92 75.4ZM337.08 55.22L331.44 40.53C330.71 38.68 329.96 36.4 329.19 33.69C328.71 35.83 328.01 38.19 327.11 40.77L321.46 55.98L337.08 55.22Z" fill="white"/>
<path d="M195.96 43.05L147.74 45.91C140.11 46.36 133.98 53.53 133.98 61.92V85.36C133.98 93.75 140.11 100.38 147.74 100.16L149.62 100.11V114.51L164.44 99.69L195.96 98.8C204.08 98.57 210.73 91.28 210.73 82.52V58.04C210.72 49.28 204.08 42.57 195.96 43.05Z" fill="#C5D43B"/>
<path d="M156.9 76.01C156.9 78.56 155.02 80.69 152.71 80.78C150.41 80.87 148.54 78.89 148.54 76.36C148.54 73.83 150.4 71.69 152.71 71.59C155.02 71.48 156.9 73.46 156.9 76.01Z" fill="white"/>
<path d="M172.97 75.34C172.97 77.91 171.06 80.07 168.71 80.16C166.36 80.25 164.47 78.25 164.47 75.7C164.47 73.14 166.37 70.99 168.71 70.88C171.06 70.77 172.97 72.77 172.97 75.34Z" fill="white"/>
<path d="M189.04 74.82C189.04 77.32 187.16 79.43 184.85 79.52C182.54 79.61 180.68 77.66 180.68 75.17C180.68 72.68 182.55 70.58 184.85 70.47C187.16 70.38 189.04 72.32 189.04 74.82Z" fill="white"/>
<path d="M251.95 219.03L233.55 218.34V168.46L251.95 168.65V219.03Z" fill="#797672"/>
<path d="M233.55 168.46V176.84L245.8 182.48V218.8L251.95 219.03V168.65L233.55 168.46Z" fill="#625F5B"/>
<path d="M274.43 116.82L212.26 117.91V106.89L274.43 105.43V116.82Z" fill="#797672"/>
<path d="M242.12 64.95L241.66 64.97C229.23 65.54 219.27 76.5 219.27 89.45V136.21C219.27 149.16 229.23 159.72 241.66 159.79H242.12C254.73 159.86 265.08 149.15 265.08 135.87V87.94C265.07 74.66 254.73 64.37 242.12 64.95Z" fill="#D5D3D0"/>
<path d="M219.27 109.77V113.89L265.07 112.99V108.76L219.27 109.77Z" fill="#B3AFAB"/>
<path d="M265.07 116.88L219.27 117.68V121.81L265.07 121.11V116.88Z" fill="#B3AFAB"/>
<path d="M219.27 89.69V90.13L265.08 88.63V88.18C265.08 86.89 264.95 85.64 264.77 84.41L219.56 86C219.39 87.21 219.27 88.44 219.27 89.69Z" fill="#B3AFAB"/>
<path d="M219.27 101.85V105.97L265.07 104.87V100.64L219.27 101.85Z" fill="#B3AFAB"/>
<path d="M219.27 93.93V98.05L265.07 96.75V92.52L219.27 93.93Z" fill="#B3AFAB"/>
<path d="M272.02 105.47V136.53C272.02 153.94 258.38 167.96 241.88 167.8C225.67 167.64 212.7 153.8 212.7 136.94V106.86L209.55 106.93V136.96C209.55 155.63 223.91 170.99 241.88 171.2C260.21 171.41 275.39 155.85 275.39 136.5V105.38L272.02 105.47Z" fill="#B3AFAB"/>
<path d="M270.66 222.44L215.63 220.3V215.04L270.66 217.02V222.44Z" fill="#797672"/>
<path d="M294.58 175.29L438.3 177.23V175.83L294.58 173.98V175.29Z" fill="#797672"/>
<path d="M307.93 185.71C306.57 185.68 305.47 184.48 305.47 183.03V166.85C305.47 165.39 306.57 164.22 307.93 164.23C309.29 164.24 310.39 165.43 310.39 166.89V183.11C310.39 184.57 309.29 185.74 307.93 185.71Z" fill="white"/>
<path d="M317.07 196.98C315.7 196.95 314.59 195.73 314.59 194.27V156.84C314.59 155.38 315.7 154.2 317.07 154.2C318.44 154.2 319.56 155.39 319.56 156.86V194.39C319.56 195.85 318.44 197.01 317.07 196.98Z" fill="white"/>
<path d="M326.3 207.86C324.92 207.82 323.79 206.59 323.79 205.12V145.49C323.79 144.02 324.91 142.83 326.3 142.82C327.69 142.82 328.81 144 328.81 145.48V205.27C328.81 206.74 327.68 207.9 326.3 207.86Z" fill="white"/>
<path d="M335.61 203.41C334.21 203.37 333.08 202.14 333.08 200.67V150.94C333.08 149.46 334.21 148.27 335.61 148.27C337.01 148.27 338.15 149.47 338.15 150.95V200.81C338.15 202.28 337.01 203.45 335.61 203.41Z" fill="white"/>
<path d="M345.02 187.41C343.61 187.38 342.47 186.16 342.47 184.67V165.43C342.47 163.95 343.61 162.75 345.02 162.76C346.43 162.77 347.58 163.98 347.58 165.47V184.76C347.58 186.26 346.44 187.44 345.02 187.41Z" fill="white"/>
<path d="M354.52 198.66C353.09 198.62 351.94 197.39 351.94 195.9V154.22C351.94 152.73 353.09 151.52 354.52 151.52C355.95 151.52 357.11 152.73 357.11 154.23V196.02C357.11 197.51 355.95 198.69 354.52 198.66Z" fill="white"/>
<path d="M364.12 210.01C362.68 209.97 361.52 208.72 361.52 207.22V143.64C361.52 142.14 362.69 140.92 364.12 140.92C365.56 140.91 366.73 142.13 366.73 143.63V207.38C366.73 208.88 365.56 210.06 364.12 210.01Z" fill="white"/>
<path d="M373.81 204.47C372.36 204.43 371.18 203.18 371.18 201.67V150.96C371.18 149.45 372.36 148.23 373.81 148.23C375.27 148.23 376.45 149.45 376.45 150.96V201.8C376.44 203.32 375.26 204.51 373.81 204.47Z" fill="white"/>
<path d="M383.59 187.65C382.12 187.62 380.93 186.37 380.93 184.86V166.01C380.93 164.5 382.12 163.28 383.59 163.29C385.06 163.3 386.25 164.54 386.25 166.05V184.96C386.25 186.47 385.06 187.68 383.59 187.65Z" fill="white"/>
<path d="M423.9 188.42C422.37 188.39 421.13 187.12 421.13 185.57V166.33C421.13 164.79 422.37 163.54 423.9 163.55C425.43 163.56 426.67 164.82 426.67 166.37V185.66C426.67 187.22 425.43 188.45 423.9 188.42Z" fill="white"/>
<path d="M393.47 195.53C391.99 195.5 390.79 194.24 390.79 192.72V156.1C390.79 154.58 391.99 153.35 393.47 153.35C394.95 153.35 396.16 154.59 396.16 156.12V192.84C396.16 194.36 394.96 195.57 393.47 195.53Z" fill="white"/>
<path d="M403.45 211.48C401.95 211.43 400.74 210.16 400.74 208.63V145.32C400.74 143.79 401.95 142.55 403.45 142.54C404.95 142.53 406.17 143.77 406.17 145.3V208.78C406.17 210.32 404.95 211.53 403.45 211.48Z" fill="white"/>
<path d="M413.53 197.03C412.02 196.99 410.79 195.72 410.79 194.19V156.43C410.79 154.89 412.01 153.65 413.53 153.66C415.04 153.66 416.27 154.91 416.27 156.45V194.31C416.28 195.85 415.05 197.07 413.53 197.03Z" fill="white"/>
<path d="M401.69 287.91L265.18 278.48V264.63L401.69 273.05V287.91Z" fill="#C4C1BE"/>
<path d="M438.3 133.88V126.58C438.3 122.86 435.12 119.89 431.2 119.94L300.75 121.85C297.34 121.9 294.58 124.75 294.58 128.21V135L438.3 133.88Z" fill="#797672"/>
<path d="M506.24 143.87L563.31 197.31C566.89 200.68 566.66 205.8 562.83 208.72C559.02 211.62 553.09 211.26 549.57 207.93L493.47 155.09L506.24 143.87Z" fill="#3E8EED"/>
<path d="M503.79 164.86L516.72 153.72L563.32 197.3C566.9 200.67 566.68 205.79 562.84 208.71C559.03 211.62 553.1 211.25 549.58 207.92L503.79 164.86Z" fill="#085A7E"/>
<path d="M442.49 160.74C416.46 149.13 405.36 119.96 417.29 95.18C429.36 70.1 460.9 57.96 488.1 68.62C516.03 79.57 528.39 110.13 515.12 136.17C502.01 161.89 469.2 172.65 442.49 160.74ZM444.92 155.83C468.75 166.39 497.92 156.73 509.54 133.84C521.3 110.7 510.35 83.54 485.56 73.74C461.34 64.17 433.18 74.93 422.38 97.31C411.69 119.45 421.63 145.51 444.92 155.83Z" fill="#3E8EED"/>
</svg>
