<svg width="636" height="300" viewBox="0 0 636 300" fill="none" xmlns="http://www.w3.org/2000/svg">
<path d="M129.19 166.28C129.18 166.13 129.11 165.98 129.09 165.82C124.16 133.46 148.42 105.91 183.27 104.26C194.68 103.73 205.77 106.08 215.73 110.55C220.59 77.8 248.87 52.65 286.73 50.87C323.77 49.13 358.63 70.33 373.89 101.03C379.56 97.32 386.45 94.98 394.14 94.62C416.97 93.55 438.13 109.9 441.35 131.1C441.6 132.84 441.69 134.57 441.68 136.27C477.59 147.71 505.1 179.57 509.03 219.46C509.16 220.81 509.25 222.15 509.32 223.48C300.55 224.72 167.37 224.24 96.5998 226.53C95.0998 224.13 90.8498 218.71 89.9698 210.86C87.3198 187.31 103.97 167.49 129.19 166.28Z" fill="url(#paint0_radial)"/>
<path d="M176.94 57.84L405.01 38.66L404.34 205.34L174.26 202.6L176.94 57.84Z" fill="#CFEFEB"/>
<path d="M209.02 173.85C209.02 173.85 355.77 164.61 358.84 164.03C359.72 144.09 359.5 123.35 358.72 102.77C338.25 96.15 328.52 84.77 328.52 84.77L324.51 87.6L314.02 77.69L310.59 76.63C310.59 76.63 302.5 84.81 268.98 106.2C253.99 95.76 246.11 87.24 246.11 87.24L240.96 88.3C240.96 88.3 237.91 92.9 233.9 95.02C229.89 97.14 227.22 97.85 227.22 97.85L219.02 107.4C219.02 107.4 214.56 110.39 209.83 111.92C210.06 132.21 208.87 141.74 209.02 173.85Z" fill="url(#paint1_linear)"/>
<path d="M327.5 87.25C326.61 87.72 325.72 90.08 327.25 89.84C328.78 89.6 328.52 91.02 324.96 92.91C321.4 94.8 316.06 99.75 316.06 99.75C316.06 99.75 321.27 91.73 323.44 90.32C325.6 88.91 324.52 87.61 324.52 87.61L328.53 84.78C328.52 84.77 328.39 86.78 327.5 87.25Z" fill="#AFE5DE"/>
<path d="M310.59 76.64C310.59 76.64 302.2 85.13 267.09 107.41C265.61 108.35 264.21 109.34 262.89 110.37C270.01 114.77 281.06 120.68 285.79 118.37C293.04 114.83 288.46 111.77 288.46 111.77L282.99 111.3C282.99 111.3 285.03 108.71 285.41 108.47C285.79 108.23 280.32 108.47 280.32 108.47C280.32 108.47 281.85 106.58 285.41 105.88C288.97 105.17 290.75 103.52 293.3 98.57C295.84 93.62 298.01 94.33 295.97 98.33C293.94 102.34 292.41 105.88 292.41 105.88C292.41 105.88 296.73 102.81 299.02 102.11C301.31 101.4 302.58 101.87 302.58 101.87C302.58 101.87 305 97.63 309.7 94.09C314.41 90.55 308.94 91.02 305.89 91.5C302.84 91.97 305.51 90.32 307.29 89.14C309.07 87.96 309.83 86.07 309.83 86.07L305.63 87.48C305.63 87.48 306.77 83.71 307.41 82.06C308.04 80.41 310.59 76.64 310.59 76.64Z" fill="#AFE5DE"/>
<path d="M209.83 111.93C209.86 114.62 209.95 117.39 210.1 120.21C213.66 119.78 217.89 118.79 220.29 116.5C225 112.02 225.76 116.03 230.72 113.43C235.68 110.84 235.3 109.18 232.76 109.89C230.22 110.6 228.56 110.36 226.4 109.89C224.24 109.42 222.59 107.3 222.59 107.3C222.59 107.3 226.28 105.89 228.44 103.29C230.6 100.7 231.87 99.99 231.24 101.88C230.6 103.77 230.35 104.24 233.15 102.82C235.95 101.41 244.09 97.4 244.09 97.4C244.09 97.4 239.51 98.58 238.24 98.58C236.97 98.58 236.33 97.4 239.26 95.99C242.19 94.57 246.13 87.26 246.13 87.26L240.98 88.32C240.98 88.32 237.93 92.92 233.92 95.04C229.91 97.16 227.24 97.87 227.24 97.87L219.04 107.42C219.02 107.41 214.56 110.4 209.83 111.93Z" fill="#AFE5DE"/>
<path d="M359.43 126.64C352.85 129.07 344.67 133.76 340.31 129.06L332.55 123.7L306.89 141.39L288.46 136.32L249.55 150.09L228.3 139.86L217.32 144C217.48 144.28 211.04 142.4 209.02 141.74C209.46 149.8 209.17 157.13 209.02 163.44L359.14 152.74C359.72 142.04 359.14 134.71 359.43 126.64Z" fill="#6FD0C3"/>
<path d="M302.26 151.27C270.58 164.28 212.39 157.57 208.88 152C209.03 167.1 208.29 194.37 208.29 202.87L357.82 203.75C358.99 168.27 359.14 152 359.73 141.74C332.24 135.55 318.68 144.53 302.26 151.27Z" fill="#64BFAF"/>
<path d="M306.22 204.05L296.89 142.25L289.07 204.05H306.22Z" fill="#519F90"/>
<path d="M236.63 134.28L225.96 203.22L247.96 203.48L236.63 134.28Z" fill="#57AA9A"/>
<path d="M281.54 104.85L274.95 119.36L278.55 118.02L272.32 136.76L277.57 134.09L269.3 163.77L275.37 160.42L265.56 196.13L299.23 195.24L288.21 151.72L292.81 153.28L286.66 135.65L289.9 136.99L284.75 122.03L287.81 123.15L281.54 104.85Z" fill="#57AA9A"/>
<path d="M259.22 86.48L268.36 104.09L263.37 102.46L272 125.22L264.73 121.97L276.19 158.01L267.78 153.95L281.38 197.3L234.7 196.22L249.97 143.38L243.6 145.28L252.13 123.87L247.64 125.5L254.77 107.34L250.53 108.7L259.22 86.48Z" fill="#45897C"/>
<path d="M350.5 169.94L353.74 171.11L348.6 158.02L351.66 158.99L345.38 142.96L338.79 155.67L342.39 154.5L336.16 170.92L341.41 168.57L333.14 194.57L339.21 191.64L335.17 204.52L358.06 204.79L352.06 184.01L356.65 185.38L350.5 169.94Z" fill="#57AA9A"/>
<path d="M191.52 202.81L343.44 204.62C322.86 194.38 294.6 182.13 274.11 180.3C217.09 175.2 198.76 193.2 198.76 193.2C198.76 193.2 191.84 196.88 191.52 202.81Z" fill="#4E9A8B"/>
<path d="M316.49 184.89L319.73 186.06L314.59 172.97L317.65 173.95L311.37 157.92L304.78 170.62L308.38 169.45L302.15 185.87L307.4 183.52L300.86 204.07L319.59 204.29L318.05 198.97L322.64 200.33L316.49 184.89Z" fill="#45897C"/>
<path d="M236.87 183.23L240 92.34L277.53 68.49L293.17 201.12L236.87 183.23Z" stroke="#C2E8E3" stroke-width="1.5759" stroke-miterlimit="10"/>
<path d="M201.69 125.18L310.76 89.21L330.31 93.9L361.58 152.93" stroke="#C2E8E3" stroke-width="1.5759" stroke-miterlimit="10"/>
<path d="M361.97 109.41L311.54 153.72L260.33 132.21L210.29 136.91" stroke="#C2E8E3" stroke-width="1.5759" stroke-miterlimit="10"/>
<path d="M301.38 204.54V110.71L326.4 121.66V157.23L361.97 171.7" stroke="#C2E8E3" stroke-width="1.5759" stroke-miterlimit="10"/>
<path d="M244.21 87.94H235.41V96.74H244.21V87.94Z" fill="white"/>
<path d="M281.44 63.9H272.64V72.7H281.44V63.9Z" fill="white"/>
<path d="M264.73 128.99H255.93V137.79H264.73V128.99Z" fill="white"/>
<path d="M306.37 106.71H297.57V115.51H306.37V106.71Z" fill="white"/>
<path d="M334.51 89.41H325.71V98.21H334.51V89.41Z" fill="white"/>
<path d="M330.7 152.74H321.9V161.54H330.7V152.74Z" fill="white"/>
<path d="M241.57 177.37H232.77V186.17H241.57V177.37Z" fill="white"/>
<path d="M256.05 229.42C251.5 230.86 253.41 234.92 258.29 234.89C280.37 234.78 302.57 235.97 313.49 236.91C327.3 238.1 337.7 236.11 341 233.53C343.63 231.47 342.8 227.74 336.23 226.99C321.67 225.31 260.2 228.1 256.05 229.42Z" fill="#797673"/>
<path d="M290.19 225.81C251.51 227.24 245.21 231.93 267.18 232.06C289.46 232.19 303.04 232.91 313.96 233.84C338.85 235.97 349.4 228.15 334.64 226.74C320.01 225.34 298.78 225.5 290.19 225.81Z" fill="#B3AFAB"/>
<path d="M318.56 228.93L312.4 230.35L272.5 198.2L308.22 198.69L318.56 228.93Z" fill="#605D5A"/>
<path d="M312.58 230.35L274.27 229.9L263.52 198.18L301.58 198.26L312.58 230.35Z" fill="#797673"/>
<path d="M410.98 33.28L407.07 33.31C408.43 33.63 409.44 34.78 409.42 36.24L406.27 205.57C406.24 207.28 404.82 208.63 403.08 208.62L407.9 208.27C409.65 208.28 411.07 206.92 411.1 205.21L414.26 36.33C414.29 34.55 412.8 33.16 410.98 33.28Z" fill="#B3AFAB"/>
<path d="M224.09 244.13C218.1 246.88 218.86 253 224.56 254.36C227.99 255.18 235.13 255.82 240.97 256.18C278.93 258.54 302.18 262.46 320.94 266.34C344.81 271.27 360.75 266.63 366.79 259.57C371.61 253.93 368.53 247.65 357.11 244.78C331.92 238.46 231.23 240.85 224.09 244.13Z" fill="#797673"/>
<path d="M279.05 237.18C259.36 237.2 244.59 238.04 234.61 239.95C229.23 240.98 212.69 247.91 224.58 250.78C228.02 251.61 233.35 252.08 239.25 252.51C277.2 255.26 300.46 258.75 319.23 262.61C362.35 271.46 381.63 250.13 355.89 244.48C330.54 238.92 293.83 237.17 279.05 237.18Z" fill="#B3AFAB"/>
<path d="M230.7 247.75C295.79 248.6 328.75 255.99 336.25 257.72C337.18 257.94 338.12 257.68 338.81 257.04C340.91 255.07 345.84 250.6 351.65 246.42C352.3 245.95 352.06 244.91 351.26 244.75C287.7 232.04 244.04 238.63 244.04 238.63C240.14 239.66 233.82 243.1 230.12 246.08C229.45 246.62 229.84 247.74 230.7 247.75Z" fill="#797673"/>
<path d="M382.41 272C391.49 273.01 396.93 271.25 406.95 264.24C416.97 257.23 415.21 250.22 406.2 249.22C397.19 248.22 382.41 255.23 376.9 260.99C371.39 266.75 375.44 271.22 382.41 272Z" fill="#B3AFAB"/>
<path d="M408.2 260.44C396.65 268.52 389.51 271.26 379.08 269.82C377.17 269.56 375.71 268.88 374.58 267.5C375.42 269.9 377.25 271.62 381.23 272.06C390.31 273.07 396.94 271.24 406.95 264.23C411.46 261.07 413.57 257.92 413.71 255.31C412.44 257.19 411.01 258.47 408.2 260.44Z" fill="#797673"/>
<path d="M386.73 261.15C386.59 261.15 386.45 261.08 386.36 260.96C386.22 260.76 386.26 260.48 386.47 260.33C398.52 251.79 407.26 250.48 407.63 250.43C407.89 250.39 408.1 250.57 408.14 250.81C408.17 251.06 408 251.28 407.76 251.32C407.67 251.33 398.84 252.66 386.99 261.06C386.91 261.12 386.82 261.15 386.73 261.15Z" fill="#9C9894"/>
<path d="M402.19 253.52C403.808 253.52 405.12 253.028 405.12 252.42C405.12 251.812 403.808 251.32 402.19 251.32C400.572 251.32 399.26 251.812 399.26 252.42C399.26 253.028 400.572 253.52 402.19 253.52Z" fill="#797673"/>
<path d="M213.71 54.75L176.94 57.84L174.26 202.6L211.26 203.04L213.71 54.75Z" fill="#6D6A66"/>
<path d="M356.88 42.71L355.09 204.76L404.34 205.34L405.01 38.66L356.88 42.71Z" fill="#84817D"/>
<path d="M356.88 42.71L355.09 204.76L404.34 205.34L405.01 38.66L356.88 42.71Z" fill="#6D6A66"/>
<path d="M213.14 89.56L213.71 54.75L176.94 57.84L176.3 92.31L213.14 89.56Z" fill="#84817D"/>
<path d="M362.67 65.97C362.13 65.97 361.67 65.55 361.62 65C361.57 64.42 362.01 63.92 362.59 63.87L376.75 62.75C377.33 62.7 377.83 63.14 377.88 63.72C377.93 64.3 377.49 64.8 376.91 64.85L362.75 65.97C362.72 65.97 362.69 65.97 362.67 65.97Z" fill="#A7A4A0"/>
<path d="M362.57 72.47C362.02 72.47 361.56 72.05 361.52 71.49C361.48 70.91 361.92 70.41 362.5 70.37L388.84 68.53C389.41 68.51 389.92 68.93 389.96 69.51C390 70.09 389.56 70.59 388.98 70.63L362.64 72.47C362.62 72.47 362.6 72.47 362.57 72.47Z" fill="#A7A4A0"/>
<path d="M362.48 78.98C361.93 78.98 361.47 78.55 361.43 78C361.39 77.42 361.83 76.92 362.41 76.88L384.57 75.46C385.16 75.42 385.65 75.86 385.69 76.44C385.73 77.02 385.29 77.52 384.71 77.56L362.55 78.98C362.53 78.98 362.5 78.98 362.48 78.98Z" fill="#A7A4A0"/>
<path d="M362.39 85.49C361.84 85.49 361.38 85.07 361.34 84.51C361.3 83.93 361.74 83.43 362.32 83.39L375.19 82.5C375.75 82.47 376.27 82.9 376.31 83.48C376.35 84.06 375.91 84.56 375.33 84.6L362.46 85.49C362.44 85.48 362.41 85.49 362.39 85.49Z" fill="#A7A4A0"/>
<path d="M362.2 98.5C361.65 98.5 361.19 98.07 361.15 97.52C361.11 96.94 361.55 96.44 362.13 96.4L379.98 95.2C380.55 95.18 381.06 95.6 381.1 96.18C381.14 96.76 380.7 97.26 380.12 97.3L362.27 98.5C362.25 98.49 362.23 98.5 362.2 98.5Z" fill="#A7A4A0"/>
<path d="M362.11 105C361.55 105 361.09 104.56 361.06 104C361.03 103.42 361.48 102.93 362.06 102.9L388.3 101.56C388.82 101.52 389.37 101.98 389.4 102.56C389.43 103.14 388.98 103.63 388.4 103.66L362.16 105C362.15 105 362.13 105 362.11 105Z" fill="#A7A4A0"/>
<path d="M361.92 118.01C361.36 118.01 360.9 117.57 360.87 117.01C360.84 116.43 361.29 115.94 361.87 115.91L378.43 115.14C379.02 115.11 379.5 115.56 379.53 116.14C379.56 116.72 379.11 117.21 378.53 117.24L361.97 118.01C361.96 118.01 361.94 118.01 361.92 118.01Z" fill="#A7A4A0"/>
<path d="M361.83 124.52C361.27 124.52 360.8 124.08 360.78 123.51C360.76 122.93 361.21 122.44 361.79 122.42L366.29 122.24C366.84 122.2 367.36 122.67 367.38 123.25C367.4 123.83 366.95 124.32 366.37 124.34L361.87 124.52C361.86 124.52 361.85 124.52 361.83 124.52Z" fill="#A7A4A0"/>
<path d="M361.74 131.02C361.18 131.02 360.71 130.57 360.69 130.01C360.67 129.43 361.12 128.94 361.7 128.92L374.19 128.47C374.78 128.42 375.26 128.9 375.28 129.48C375.3 130.06 374.85 130.55 374.27 130.57L361.78 131.02C361.76 131.02 361.75 131.02 361.74 131.02Z" fill="#A7A4A0"/>
<path d="M361.65 137.53C361.09 137.53 360.62 137.08 360.6 136.51C360.58 135.93 361.04 135.45 361.62 135.43L368.05 135.22C368.56 135.17 369.12 135.66 369.13 136.24C369.15 136.82 368.69 137.31 368.11 137.32L361.68 137.53C361.67 137.53 361.66 137.53 361.65 137.53Z" fill="#A7A4A0"/>
<path d="M361.55 144.03C360.98 144.03 360.52 143.58 360.5 143.01C360.48 142.43 360.94 141.95 361.52 141.93L381.53 141.36C382.11 141.36 382.59 141.8 382.61 142.38C382.63 142.96 382.17 143.44 381.59 143.46L361.58 144.03C361.57 144.03 361.56 144.03 361.55 144.03Z" fill="#A7A4A0"/>
<path d="M361.46 150.54C360.89 150.54 360.42 150.09 360.41 149.52C360.4 148.94 360.85 148.46 361.43 148.44L366.14 148.32C366.76 148.33 367.2 148.77 367.22 149.34C367.24 149.91 366.78 150.4 366.2 150.42L361.49 150.54C361.48 150.54 361.47 150.54 361.46 150.54Z" fill="#A7A4A0"/>
<path d="M361.37 157.04C360.8 157.04 360.33 156.58 360.32 156.01C360.31 155.43 360.77 154.95 361.35 154.94L370.7 154.74C370.71 154.74 370.72 154.74 370.72 154.74C371.29 154.74 371.76 155.2 371.77 155.77C371.78 156.35 371.32 156.83 370.74 156.84L361.39 157.04C361.38 157.04 361.37 157.04 361.37 157.04Z" fill="#A7A4A0"/>
<path d="M361.27 163.55C360.7 163.55 360.23 163.09 360.22 162.52C360.21 161.94 360.67 161.46 361.25 161.45L364.68 161.39C365.23 161.39 365.74 161.84 365.75 162.42C365.76 163 365.3 163.48 364.72 163.49L361.29 163.55C361.29 163.55 361.28 163.55 361.27 163.55Z" fill="#A7A4A0"/>
<path d="M361.18 170.05C360.61 170.05 360.14 169.59 360.13 169.01C360.12 168.43 360.59 167.95 361.17 167.95L376.43 167.74C376.44 167.74 376.44 167.74 376.44 167.74C377.01 167.74 377.48 168.2 377.49 168.78C377.5 169.36 377.03 169.84 376.45 169.84L361.19 170.05C361.19 170.05 361.19 170.05 361.18 170.05Z" fill="#A7A4A0"/>
<path d="M361.09 176.56C360.51 176.56 360.04 176.1 360.04 175.52C360.03 174.94 360.5 174.47 361.08 174.46L387.1 174.21H387.11C387.69 174.21 388.16 174.67 388.16 175.25C388.17 175.83 387.7 176.3 387.12 176.31L361.1 176.56H361.09Z" fill="#A7A4A0"/>
<path d="M361 183.07C360.42 183.07 359.95 182.6 359.95 182.03C359.95 181.45 360.41 180.98 360.99 180.97L380.39 180.86C380.88 180.84 381.44 181.32 381.45 181.9C381.45 182.48 380.99 182.95 380.41 182.96L361 183.07Z" fill="#A7A4A0"/>
<path d="M200.59 71.99C200.05 71.99 199.59 71.58 199.54 71.03C199.49 70.45 199.92 69.94 200.5 69.89L207.32 69.3C207.9 69.23 208.41 69.68 208.46 70.26C208.51 70.84 208.08 71.35 207.5 71.4L200.68 71.99C200.65 71.98 200.62 71.99 200.59 71.99Z" fill="#BBB8B4"/>
<path d="M189.38 72.87C188.84 72.87 188.38 72.45 188.33 71.9C188.28 71.32 188.72 70.82 189.29 70.77L193.46 70.44C194.06 70.4 194.54 70.83 194.59 71.4C194.64 71.98 194.2 72.48 193.63 72.53L189.46 72.86C189.43 72.87 189.4 72.87 189.38 72.87Z" fill="#BBB8B4"/>
<path d="M200.52 78.58C199.98 78.58 199.52 78.16 199.47 77.61C199.43 77.03 199.86 76.53 200.44 76.48L208.95 75.83C209.52 75.79 210.03 76.22 210.08 76.8C210.12 77.38 209.69 77.88 209.11 77.93L200.6 78.58C200.57 78.58 200.54 78.58 200.52 78.58Z" fill="#BBB8B4"/>
<path d="M189.26 79.41C188.72 79.41 188.25 78.99 188.21 78.44C188.17 77.86 188.6 77.36 189.18 77.31L193.55 76.98C194.13 76.95 194.63 77.37 194.68 77.95C194.72 78.53 194.29 79.03 193.71 79.08L189.34 79.41C189.31 79.41 189.29 79.41 189.26 79.41Z" fill="#BBB8B4"/>
<path d="M189.15 85.95C188.6 85.95 188.14 85.53 188.1 84.97C188.06 84.39 188.5 83.89 189.07 83.85L195.38 83.4C195.94 83.34 196.46 83.8001 196.5 84.3701C196.54 84.9501 196.1 85.45 195.53 85.49L189.22 85.9401C189.2 85.9501 189.17 85.95 189.15 85.95Z" fill="#BBB8B4"/>
<path d="M188.92 99.04C188.37 99.04 187.91 98.61 187.87 98.05C187.83 97.47 188.27 96.97 188.85 96.94L208.68 95.72C209.25 95.69 209.76 96.13 209.79 96.7C209.83 97.28 209.39 97.78 208.81 97.81L188.98 99.03C188.96 99.03 188.94 99.04 188.92 99.04Z" fill="#A7A4A0"/>
<path d="M188.8 105.58C188.25 105.58 187.79 105.15 187.75 104.59C187.72 104.01 188.16 103.51 188.74 103.48L201.34 102.73C201.91 102.69 202.42 103.14 202.45 103.72C202.48 104.3 202.04 104.8 201.46 104.83L188.86 105.58C188.84 105.58 188.82 105.58 188.8 105.58Z" fill="#A7A4A0"/>
<path d="M188.69 112.12C188.14 112.12 187.68 111.69 187.64 111.14C187.6 110.56 188.04 110.06 188.62 110.03L204.41 109.04C204.98 109 205.49 109.44 205.52 110.02C205.56 110.6 205.12 111.1 204.54 111.13L188.75 112.12C188.73 112.12 188.71 112.12 188.69 112.12Z" fill="#A7A4A0"/>
<path d="M200.42 118.02C199.86 118.02 199.39 117.58 199.37 117.01C199.35 116.43 199.8 115.94 200.38 115.92L208.44 115.59C209 115.54 209.51 116.02 209.53 116.6C209.55 117.18 209.1 117.67 208.52 117.69L200.46 118.02C200.45 118.02 200.43 118.02 200.42 118.02Z" fill="#A7A4A0"/>
<path d="M188.57 118.66C188.01 118.66 187.55 118.22 187.52 117.66C187.49 117.08 187.94 116.59 188.52 116.56L191.67 116.41C192.24 116.36 192.74 116.83 192.77 117.41C192.8 117.99 192.35 118.48 191.77 118.51L188.62 118.66C188.61 118.66 188.59 118.66 188.57 118.66Z" fill="#A7A4A0"/>
<path d="M200.42 124.66C199.85 124.66 199.38 124.2 199.37 123.63C199.36 123.05 199.82 122.57 200.4 122.56L203.28 122.51C203.29 122.51 203.29 122.51 203.3 122.51C203.87 122.51 204.34 122.97 204.35 123.54C204.36 124.12 203.9 124.6 203.32 124.61L200.44 124.66C200.43 124.66 200.43 124.66 200.42 124.66Z" fill="#A7A4A0"/>
<path d="M188.46 125.2C187.9 125.2 187.44 124.76 187.41 124.2C187.38 123.62 187.83 123.13 188.41 123.1L191.56 122.96C192.14 122.95 192.63 123.38 192.66 123.96C192.69 124.54 192.24 125.03 191.66 125.06L188.51 125.2C188.49 125.2 188.47 125.2 188.46 125.2Z" fill="#A7A4A0"/>
<path d="M200.32 131.21C199.76 131.21 199.29 130.76 199.27 130.19C199.25 129.61 199.71 129.12 200.28 129.11L208.25 128.85C208.84 128.78 209.32 129.28 209.33 129.86C209.35 130.44 208.89 130.93 208.32 130.94L200.35 131.2C200.35 131.21 200.33 131.21 200.32 131.21Z" fill="#A7A4A0"/>
<path d="M188.34 131.75C187.78 131.75 187.31 131.31 187.29 130.74C187.27 130.16 187.72 129.67 188.3 129.65L191.38 129.53C191.96 129.47 192.45 129.96 192.47 130.54C192.49 131.12 192.04 131.61 191.46 131.63L188.38 131.75C188.37 131.75 188.36 131.75 188.34 131.75Z" fill="#A7A4A0"/>
<path d="M200.42 137.76C199.85 137.76 199.38 137.3 199.37 136.73C199.36 136.15 199.82 135.67 200.4 135.66L205.34 135.56C205.35 135.56 205.35 135.56 205.36 135.56C205.93 135.56 206.4 136.02 206.41 136.59C206.42 137.17 205.96 137.65 205.38 137.66L200.44 137.76C200.43 137.76 200.43 137.76 200.42 137.76Z" fill="#A7A4A0"/>
<path d="M188.23 138.29C187.67 138.29 187.2 137.84 187.18 137.28C187.16 136.7 187.61 136.21 188.19 136.19L191.1 136.09C191.66 136.04 192.17 136.52 192.19 137.1C192.21 137.68 191.76 138.17 191.18 138.19L188.27 138.29C188.25 138.29 188.24 138.29 188.23 138.29Z" fill="#A7A4A0"/>
<path d="M188.11 144.83C187.55 144.83 187.08 144.38 187.06 143.81C187.04 143.23 187.5 142.75 188.08 142.73L208.07 142.1C208.65 142.08 209.13 142.54 209.15 143.12C209.17 143.7 208.71 144.18 208.13 144.2L188.14 144.83C188.13 144.83 188.12 144.83 188.11 144.83Z" fill="#A7A4A0"/>
<path d="M188 151.37C187.43 151.37 186.97 150.92 186.95 150.35C186.93 149.77 187.39 149.29 187.97 149.27L196.24 149.05C196.79 149.03 197.3 149.49 197.32 150.07C197.34 150.65 196.88 151.13 196.3 151.15L188.03 151.37C188.02 151.37 188.01 151.37 188 151.37Z" fill="#A7A4A0"/>
<path d="M187.88 157.92C187.31 157.92 186.84 157.47 186.83 156.9C186.82 156.32 187.28 155.84 187.85 155.82L206.79 155.36C206.8 155.36 206.81 155.36 206.82 155.36C207.39 155.36 207.86 155.81 207.87 156.38C207.88 156.96 207.42 157.44 206.85 157.46L187.91 157.92C187.9 157.92 187.89 157.92 187.88 157.92Z" fill="#A7A4A0"/>
<path d="M187.77 164.46C187.2 164.46 186.74 164.01 186.72 163.44C186.7 162.86 187.16 162.38 187.74 162.36L202.4 161.95C202.96 161.94 203.46 162.39 203.48 162.97C203.5 163.55 203.04 164.03 202.46 164.05L187.8 164.46C187.79 164.46 187.78 164.46 187.77 164.46Z" fill="#A7A4A0"/>
<path d="M205.36 170.65H200.38C199.8 170.65 199.33 170.18 199.33 169.6C199.33 169.02 199.8 168.55 200.38 168.55H205.36C205.94 168.55 206.41 169.02 206.41 169.6C206.41 170.18 205.94 170.65 205.36 170.65Z" fill="#A7A4A0"/>
<path d="M187.65 171C187.08 171 186.61 170.54 186.6 169.96C186.59 169.38 187.06 168.9 187.64 168.89L190.98 168.84C191.57 168.84 192.04 169.3 192.05 169.88C192.06 170.46 191.59 170.94 191.01 170.95L187.67 171C187.66 171 187.66 171 187.65 171Z" fill="#A7A4A0"/>
<path d="M200.52 177.39C199.94 177.39 199.47 176.92 199.47 176.35C199.47 175.77 199.93 175.3 200.51 175.29L207.64 175.24C208.23 175.27 208.69 175.7 208.7 176.28C208.7 176.86 208.24 177.33 207.66 177.34L200.52 177.39Z" fill="#A7A4A0"/>
<path d="M187.54 177.54C186.96 177.54 186.5 177.08 186.49 176.5C186.48 175.92 186.95 175.45 187.53 175.44L190.54 175.41H190.55C191.13 175.41 191.59 175.87 191.6 176.45C191.61 177.03 191.14 177.5 190.56 177.51L187.55 177.54C187.54 177.54 187.54 177.54 187.54 177.54Z" fill="#A7A4A0"/>
<path d="M187.42 184.09C186.84 184.09 186.37 183.63 186.37 183.05C186.36 182.47 186.83 182 187.41 181.99L198.16 181.89C198.78 181.93 199.22 182.35 199.22 182.93C199.23 183.51 198.76 183.98 198.18 183.99L187.42 184.09C187.42 184.09 187.43 184.09 187.42 184.09Z" fill="#A7A4A0"/>
<path d="M356.67 62.06L397.18 59.06V52.83L356.74 55.82L356.67 62.06Z" fill="#908D89"/>
<path d="M356.31 94.39L397.18 92.12V85.89L356.38 88.15L356.31 94.39Z" fill="#908D89"/>
<path d="M356.09 113.97L396.68 112.03V105.8L356.16 107.74L356.09 113.97Z" fill="#908D89"/>
<path d="M362.76 59.46C362.22 59.46 361.76 59.04 361.71 58.49C361.66 57.91 362.1 57.41 362.68 57.36L389.06 55.32C389.65 55.27 390.14 55.71 390.19 56.29C390.24 56.87 389.8 57.37 389.22 57.42L362.84 59.46C362.81 59.46 362.79 59.46 362.76 59.46Z" fill="#C4C1BE"/>
<path d="M362.29 91.99C361.74 91.99 361.27 91.56 361.24 91C361.21 90.42 361.65 89.92 362.23 89.89L382.72 88.75C383.29 88.71 383.8 89.16 383.83 89.74C383.86 90.32 383.42 90.82 382.84 90.85L362.35 91.99C362.33 91.99 362.31 91.99 362.29 91.99Z" fill="#C4C1BE"/>
<path d="M362.02 111.51C361.46 111.51 361 111.07 360.97 110.51C360.94 109.93 361.39 109.44 361.97 109.41L388.19 108.16C388.74 108.11 389.26 108.58 389.29 109.16C389.32 109.74 388.87 110.23 388.29 110.26L362.07 111.51C362.05 111.51 362.03 111.51 362.02 111.51Z" fill="#C4C1BE"/>
<path d="M406.14 33.18L176.35 52.82C174.86 52.91 173.66 54.23 173.63 55.8L171.1 204.37C171.07 206 172.33 207.35 173.88 207.36L403.07 208.62C404.81 208.63 406.23 207.27 406.26 205.57L409.41 36.24C409.45 34.45 407.96 33.06 406.14 33.18ZM392.9 195.76C392.87 197.25 391.63 198.45 390.11 198.44L183.77 197.93C182.39 197.93 181.28 196.74 181.31 195.3L183.56 64.16C183.58 62.77 184.64 61.61 185.97 61.54L392.78 44.69C394.37 44.59 395.66 45.81 395.64 47.38L392.9 195.76Z" fill="#605D5A"/>
<defs>
<radialGradient id="paint0_radial" cx="0" cy="0" r="1" gradientUnits="userSpaceOnUse" gradientTransform="translate(297.876 320.482) rotate(174.37) scale(238.739)">
<stop offset="0.1159" stop-color="white"/>
<stop offset="0.9695" stop-color="#B8D6F7"/>
</radialGradient>
<linearGradient id="paint1_linear" x1="294.318" y1="197.547" x2="277.788" y2="103.805" gradientUnits="userSpaceOnUse">
<stop offset="0.3328" stop-color="#BFEAE4"/>
<stop offset="0.7982" stop-color="#8FDAD0"/>
</linearGradient>
</defs>
</svg>
