<svg width="636" height="300" viewBox="0 0 636 300" fill="none" xmlns="http://www.w3.org/2000/svg">
<path d="M233.39 243.48C234.58 243.48 235.71 242.89 236.34 241.8L266.56 189.6C267.51 187.95 266.91 185.79 265.22 184.79C263.53 183.78 261.39 184.31 260.44 185.96L230.22 238.16C229.27 239.81 229.87 241.97 231.56 242.97C232.13 243.32 232.77 243.48 233.39 243.48Z" fill="#908D89"/>
<path d="M477.42 242.98C476.23 242.98 475.06 242.37 474.36 241.28L439.43 188.64C438.37 186.98 438.83 184.83 440.46 183.83C442.08 182.83 444.26 183.37 445.31 185.02L480.24 237.66C481.3 239.32 480.84 241.47 479.21 242.47C478.66 242.82 478.04 242.98 477.42 242.98Z" fill="#908D89"/>
<path d="M357.09 247.14C355.15 247.13 353.53 245.56 353.47 243.63L351.89 200.34C351.83 198.41 353.35 196.84 355.28 196.85C357.22 196.86 358.84 198.43 358.9 200.36L360.48 243.65C360.54 245.58 359.02 247.14 357.09 247.14Z" fill="#908D89"/>
<path d="M502.73 172.16L197.88 171.36C206.21 182.29 228.65 191.78 259.43 198.21C283.28 209.25 313.35 213.23 351.36 213.33C389.26 213.43 425.08 210.05 442.24 198.82C472.95 192.56 495.05 183.13 502.73 172.16Z" fill="#52A898"/>
<path d="M426.43 210.29C406.18 216.12 380.72 219.16 352.82 219.09C301.14 218.95 263.63 207.64 248.79 195.79C278.86 201.06 314.61 204.66 352.71 204.76C390.44 204.86 427 200.72 456.56 195.7C450.54 200.7 439.16 206.63 426.43 210.29Z" fill="#625F5B"/>
<path d="M416.16 105.67C413.79 74.86 383.65 50.25 347.49 50.21C311.33 50.17 282.49 74.72 281.76 105.53L416.16 105.67Z" fill="#CFEFEB"/>
<path d="M416.16 105.67C413.79 74.86 383.65 50.25 347.49 50.21C311.33 50.17 282.49 74.72 281.76 105.53L416.16 105.67Z" fill="#BADBF9"/>
<path d="M380.71 57.76C370.82 53 359.5 50.22 347.48 50.21C311.32 50.17 282.48 74.72 281.75 105.53C281.75 105.53 286.36 105.51 292.63 105.54C293.79 95.91 319.18 41.35 380.71 57.76Z" fill="#E1EFF9"/>
<path d="M502.55 171.95L197.68 171.37L197.3 159.5L502.17 160.07L502.55 171.95Z" fill="#6FD0C3"/>
<path d="M502.3 163.99L197.43 163.42L197.3 159.5L502.17 160.07L502.3 163.99Z" fill="#45897C"/>
<path d="M416.74 105.5C416.71 104.41 415.8 103.5 414.72 103.49L283.4 103.38C282.32 103.38 281.46 104.28 281.49 105.38C281.51 106.23 282.06 106.99 282.85 107.27C283.06 107.35 283.28 107.38 283.51 107.39L414.83 107.5C415.36 107.5 415.84 107.29 416.2 106.91C416.56 106.54 416.75 106.03 416.74 105.5Z" fill="#EFFAF8"/>
<path d="M422.46 110.26C421.89 108.56 420.54 107.29 418.78 106.95L416.66 106.94C416.65 106.91 416.64 106.88 416.63 106.85L281.38 106.49C281.37 106.52 281.36 106.55 281.36 106.58H279.09C277.51 106.9 276.24 108.16 275.77 109.86L271.83 124.5C271.42 126.02 271.69 127.65 272.58 128.96C273.47 130.27 274.81 131.02 276.26 131.02L423.33 131.41C424.78 131.41 426.07 130.67 426.88 129.37C427.69 128.07 427.85 126.44 427.35 124.92L422.46 110.26Z" fill="#52A898"/>
<path d="M426.17 123.46L271.3 123.05C224.05 129.88 199.68 143.73 197.23 159.95L502.64 160.75C499.14 144.51 473.87 130.54 426.17 123.46Z" fill="url(#paint0_linear)"/>
<path d="M298.42 146.22C295.9 146.21 293.8 144.17 293.71 141.65C293.63 139.14 295.6 137.1 298.12 137.11C300.64 137.12 302.74 139.16 302.83 141.68C302.91 144.19 300.93 146.23 298.42 146.22Z" fill="#A3C9F6"/>
<path d="M332.88 146.31C330.36 146.3 328.26 144.26 328.17 141.74C328.09 139.23 330.06 137.19 332.58 137.2C335.1 137.21 337.2 139.25 337.29 141.77C337.37 144.28 335.39 146.32 332.88 146.31Z" fill="#A3C9F6"/>
<path d="M367.34 146.4C364.82 146.39 362.72 144.35 362.63 141.83C362.55 139.32 364.52 137.28 367.04 137.29C369.56 137.3 371.66 139.34 371.75 141.86C371.83 144.37 369.86 146.41 367.34 146.4Z" fill="#A3C9F6"/>
<path d="M401.8 146.49C399.28 146.48 397.18 144.44 397.09 141.92C397.01 139.41 398.98 137.37 401.5 137.38C404.02 137.39 406.12 139.43 406.21 141.95C406.29 144.46 404.32 146.5 401.8 146.49Z" fill="#A3C9F6"/>
<path d="M436.26 146.58C433.74 146.57 431.64 144.53 431.55 142.01C431.47 139.5 433.44 137.46 435.96 137.47C438.48 137.48 440.58 139.52 440.67 142.04C440.75 144.56 438.78 146.59 436.26 146.58Z" fill="#A3C9F6"/>
<path d="M289.83 129.69C289.83 129.69 275.61 135.7 269.64 153.15C260.68 152.92 232.43 153.15 214.98 153.15C225.32 135.92 258.85 129.61 258.85 129.61L289.83 129.69Z" fill="#625F5B"/>
<path d="M289.85 129.73C289.85 129.73 288.93 106.3 275.15 90.23C266.65 90.46 244.6 90.46 231.05 90.23C247.82 104.01 258.32 129.73 258.32 129.73H289.85Z" fill="#6FD0C3"/>
<path d="M182.21 207.28C184.35 200.19 187.54 185.8 183.74 173.72L175.33 178.03C178.78 188.99 175.56 201.74 173.78 207.3C173.64 207.77 177.8 208.21 182.21 207.28Z" fill="url(#paint1_linear)"/>
<path d="M182.21 207.28C184.35 200.19 187.54 185.8 183.74 173.72L175.33 178.03C178.78 188.99 175.56 201.74 173.78 207.3C173.64 207.77 177.8 208.21 182.21 207.28Z" fill="url(#paint2_linear)"/>
<path d="M173.81 207.23H180.44L186.57 242.65L163 242.69C161.99 242.69 161.46 241.87 161.82 240.86L173.81 207.23Z" fill="#522CD5"/>
<path d="M195.3 233.3C196.29 234.1 195.93 235.66 195.43 237.04L193.92 241.28C193.65 242.04 192.81 242.66 192.05 242.66H183.72C182.86 242.66 182.41 241.96 182.72 241.1L184.09 236.7C184.66 235.1 184.8 234.09 183.5 233C175.79 226.56 173.27 217.82 176.17 207.22H182.23C181.1 212.66 182.29 222.73 195.3 233.3Z" fill="url(#paint3_linear)"/>
<path d="M192.05 242.66C192.81 242.66 193.65 242.04 193.92 241.28L195.43 237.04C195.75 236.13 196.01 235.15 195.88 234.36H184.42C184.59 235.03 184.41 235.76 184.08 236.7L182.71 241.1C182.4 241.96 182.85 242.66 183.71 242.66H192.05Z" fill="url(#paint4_radial)"/>
<path d="M154.1 207.58C154.99 200.53 157.95 186.23 166.86 174.22L173.39 178.51C165.3 189.4 163.07 202.08 162.47 207.61C162.42 208.07 158.1 208.5 154.1 207.58Z" fill="url(#paint5_linear)"/>
<path d="M162.48 207.53L155.89 207.52L144.92 242.77L158.14 242.78C159.15 242.78 160.02 241.97 160.09 240.96L162.48 207.53Z" fill="#522CD5"/>
<path d="M132.09 233.56C130.82 234.46 130.66 235.77 130.57 237.15L130.27 241.37C130.22 242.12 130.79 242.74 131.55 242.74L145.32 242.75C146.18 242.75 146.92 242.06 146.98 241.2L147.49 236.83C147.6 235.24 148.22 234.65 149.65 233.15C152.11 230.58 160.25 216.61 160.9 207.53L154.12 207.52C152.92 212.92 144.16 224.93 132.09 233.56Z" fill="url(#paint6_linear)"/>
<path d="M130.57 237.15C130.64 236.19 130.75 235.27 131.23 234.49L148.41 234.5C147.84 235.2 147.56 235.81 147.48 236.83L146.97 241.2C146.91 242.06 146.17 242.75 145.31 242.75L131.54 242.74C130.78 242.74 130.21 242.12 130.26 241.37L130.57 237.15Z" fill="url(#paint7_radial)"/>
<path d="M217.69 152.59C219.41 141.81 216.82 133.59 216.82 133.59L219.29 133.35L219.35 133.3C213.93 114.36 195.61 101.38 175.3 103.36C152.41 105.59 135.67 125.94 137.89 148.83C140.11 171.72 160.47 188.46 183.36 186.24C201.42 184.48 215.65 171.44 219.76 154.77C219.87 154.06 219.73 152.83 217.69 152.59Z" fill="url(#paint8_radial)"/>
<path d="M219.65 155.25C219.65 155.25 220.58 152.93 217.7 152.59C219.39 141.94 216.9 133.8 216.84 133.6L173.85 137.78C173.85 137.78 171.11 137.77 171.35 140.24C171.59 142.71 172.37 149.69 173.12 157.43C173.27 159.02 174.65 159.66 175.68 159.56L219.83 155.27C219.71 155.26 219.65 155.25 219.65 155.25Z" fill="url(#paint9_radial)"/>
<path d="M192.95 154.96C192.95 154.96 198.35 149.76 199.4 148.8C200.45 147.84 201.45 147.69 202.59 148.49C203.73 149.29 210.02 153.3 210.02 153.3L192.95 154.96Z" fill="#A08BE8"/>
<path d="M219.65 155.25C219.65 155.25 220.58 152.93 217.7 152.59C217.7 152.58 217.7 152.57 217.7 152.56L175.42 156.67C174.44 156.77 173.11 156.3 172.91 155.36C172.98 156.04 173.05 156.74 173.11 157.43C173.25 158.87 174.4 159.53 175.37 159.57C175.47 159.57 175.56 159.57 175.66 159.56L178.55 159.28L219.81 155.27C219.71 155.26 219.65 155.25 219.65 155.25Z" fill="#512BD4"/>
<path d="M217.11 162.3L145.65 169.25C147.52 171.82 149.67 174.16 152.06 176.23L212.17 170.38C214.11 167.89 215.77 165.18 217.11 162.3Z" fill="#D8CFF7"/>
<path d="M187.272 152.012C189.062 151.825 190.259 149.233 189.945 146.223C189.63 143.213 187.923 140.924 186.133 141.111C184.342 141.298 183.145 143.89 183.46 146.9C183.774 149.911 185.481 152.199 187.272 152.012Z" fill="#512BD4"/>
<path d="M186.43 143.83C185.35 145.12 185.52 147.04 186.81 148.12C187.69 148.85 188.86 149.01 189.86 148.62C189.99 147.88 190.03 147.07 189.94 146.22C189.8 144.85 189.37 143.64 188.77 142.74C187.9 142.74 187.03 143.11 186.43 143.83Z" fill="#8065E0"/>
<path d="M211.25 149.483C213.046 149.35 214.319 146.795 214.094 143.777C213.87 140.759 212.232 138.421 210.437 138.554C208.642 138.688 207.368 141.243 207.593 144.261C207.817 147.279 209.455 149.617 211.25 149.483Z" fill="#512BD4"/>
<path d="M210.55 141.15C209.47 142.44 209.64 144.36 210.93 145.44C211.81 146.18 212.99 146.33 214 145.94C214.12 145.27 214.15 144.55 214.1 143.79C213.99 142.31 213.54 141 212.9 140.06C212.02 140.06 211.16 140.43 210.55 141.15Z" fill="#8065E0"/>
<path d="M132.49 172.2C132.31 171.89 128.11 164.42 124.87 156.57C121.5 148.39 123.42 143.73 125.62 141.26C130.4 135.9 140.52 135.65 157.49 140.46L155.41 147.8C147.8 145.64 141.71 144.59 137.3 144.68C134.34 144.74 132.22 145.33 131.32 146.33C130.27 147.51 130.49 150.18 131.93 153.65C134.99 161.06 139.1 168.37 139.14 168.44L132.49 172.2Z" fill="url(#paint10_linear)"/>
<path d="M145.72 171.44L137.09 161.76C135.98 160.52 134.07 160.41 132.83 161.52L131.77 162.46C130.53 163.57 130.42 165.48 131.53 166.72L140.16 176.4C141.27 177.64 143.18 177.75 144.42 176.64L145.48 175.7C146.72 174.59 146.83 172.69 145.72 171.44Z" fill="#8A6FE8"/>
<path d="M159.1 185.09L150.22 182.09L152.48 175.39L161.33 178.38C161.26 177.11 160.94 175.84 160.34 174.63C157.98 169.86 152.19 167.9 147.42 170.27C146.23 170.86 145.21 171.66 144.39 172.61C139.02 170.31 117.68 161.59 112.62 159.88C106.53 157.82 102.14 168.31 109.98 170.77C116.13 172.7 135.97 178.18 142.09 179.69C142.19 180.88 142.5 182.06 143.06 183.19C145.42 187.96 151.21 189.92 155.98 187.55C157.22 186.93 158.27 186.09 159.1 185.09ZM108.79 166.56C108.09 165.15 108.67 163.43 110.08 162.73C111.49 162.03 113.21 162.61 113.91 164.02C114.61 165.43 114.03 167.15 112.62 167.85C111.21 168.55 109.49 167.97 108.79 166.56Z" fill="#B3AFAB"/>
<path d="M125.8 163.87L120.47 172.7C119.42 174.48 120.02 176.78 121.8 177.83C123.58 178.88 125.88 178.28 126.93 176.5L131.02 169.66L125.8 163.87Z" fill="#8A6FE8"/>
<path d="M127.3 169.21L122.55 178.81C121.64 180.67 122.41 182.91 124.27 183.83C126.13 184.74 128.37 183.97 129.29 182.11L132.85 174.98L127.3 169.21Z" fill="#8A6FE8"/>
<path d="M130.93 171.76L129.5 182.39C129.22 184.44 130.66 186.33 132.71 186.61C134.76 186.89 136.65 185.45 136.93 183.4L138.38 172.58L130.93 171.76Z" fill="#8A6FE8"/>
<path d="M132.33 175.84C136.665 175.84 140.18 172.325 140.18 167.99C140.18 163.655 136.665 160.14 132.33 160.14C127.995 160.14 124.48 163.655 124.48 167.99C124.48 172.325 127.995 175.84 132.33 175.84Z" fill="url(#paint11_radial)"/>
<path d="M157.4 152.04C161.625 152.04 165.05 148.615 165.05 144.39C165.05 140.165 161.625 136.74 157.4 136.74C153.175 136.74 149.75 140.165 149.75 144.39C149.75 148.615 153.175 152.04 157.4 152.04Z" fill="url(#paint12_radial)"/>
<path d="M195.98 174.05L209.368 172.76L208.227 160.915L194.839 162.204L195.98 174.05Z" fill="#512BD4"/>
<path d="M197.89 169.41C197.8 169.42 197.72 169.4 197.65 169.34C197.58 169.28 197.54 169.22 197.54 169.13C197.53 169.04 197.56 168.97 197.61 168.9C197.67 168.83 197.74 168.8 197.83 168.79C197.92 168.78 198 168.8 198.07 168.86C198.14 168.91 198.18 168.98 198.19 169.07C198.2 169.15 198.17 169.23 198.11 169.3C198.05 169.36 197.98 169.4 197.89 169.41Z" fill="white"/>
<path d="M201.45 169.02L200.87 169.07L199.12 166.81C199.08 166.75 199.04 166.69 199.01 166.63H199C199.02 166.7 199.04 166.85 199.06 167.08L199.26 169.23L198.75 169.28L198.44 166.01L199.06 165.95L200.75 168.16C200.82 168.25 200.87 168.31 200.89 168.35H200.9C200.88 168.26 200.86 168.12 200.84 167.91L200.64 165.8L201.15 165.75L201.45 169.02Z" fill="white"/>
<path d="M203.94 168.79L202.15 168.96L201.84 165.69L203.56 165.53L203.6 165.99L202.41 166.1L202.5 167.03L203.6 166.93L203.64 167.39L202.54 167.49L202.63 168.46L203.89 168.34L203.94 168.79Z" fill="white"/>
<path d="M206.23 165.74L205.31 165.83L205.57 168.64L205.04 168.69L204.78 165.88L203.86 165.97L203.82 165.51L206.18 165.29L206.23 165.74Z" fill="white"/>
<path d="M170.14 101.56L178.47 100.39L175.05 85.47L169.07 86.3L170.14 101.56Z" fill="#8A6FE8"/>
<path d="M174.36 91.64C171.43 92.85 168.07 91.48 166.84 88.58C165.61 85.68 166.99 82.36 169.92 81.16C172.85 79.95 176.21 81.32 177.44 84.22C178.66 87.12 177.29 90.44 174.36 91.64Z" fill="#D8CFF7"/>
<path d="M167.7 107.17C167.33 107.22 166.97 106.94 166.97 106.57C166.85 102.6 169.75 99.09 173.83 98.52C177.91 97.95 181.69 100.52 182.7 104.37C182.79 104.73 182.54 105.1 182.17 105.14L167.7 107.17Z" fill="#522CD5"/>
<path d="M241.09 144.43C238.59 144.43 236.57 146.46 236.57 148.96V153.1C250.24 153.05 263.9 153.01 269.64 153.16C270.77 149.85 272.2 146.96 273.77 144.43H241.09Z" fill="#C4C1BE"/>
<path d="M218.08 140.7C218.28 142.95 218.37 145.62 218.15 148.59C223.39 150.01 227.6 151.54 230.71 153.17H242.38C239.19 148.07 231.27 144.05 218.08 140.7Z" fill="#9B86E7"/>
<path d="M244.9 147.5H244.79C243.99 147.5 243.34 148.15 243.34 148.95V153.08C244.35 153.08 245.36 153.07 246.35 153.07V148.95C246.35 148.15 245.7 147.5 244.9 147.5Z" fill="#A7A4A0"/>
<path d="M252.31 147.5H252.2C251.4 147.5 250.75 148.15 250.75 148.95V153.08C251.76 153.08 252.77 153.07 253.76 153.07V148.95C253.76 148.15 253.11 147.5 252.31 147.5Z" fill="#A7A4A0"/>
<path d="M259.72 147.5H259.61C258.81 147.5 258.16 148.15 258.16 148.95V153.08C259.17 153.08 260.18 153.07 261.17 153.07V148.95C261.17 148.15 260.52 147.5 259.72 147.5Z" fill="#A7A4A0"/>
<path d="M267.12 147.5H267.01C266.21 147.5 265.56 148.15 265.56 148.95V153.08C266.57 153.08 267.58 153.07 268.57 153.07V148.95C268.57 148.15 267.92 147.5 267.12 147.5Z" fill="#A7A4A0"/>
<path d="M263.06 139.46H251.81V144.43H263.06V139.46Z" fill="#A7A4A0"/>
<path d="M267.91 140.87H246.33C245.06 140.87 244.03 139.84 244.03 138.57V137.49C244.03 136.22 245.06 135.19 246.33 135.19H267.91C269.18 135.19 270.21 136.22 270.21 137.49V138.57C270.21 139.83 269.18 140.87 267.91 140.87Z" fill="#E6E4E3"/>
<defs>
<linearGradient id="paint0_linear" x1="349.935" y1="160.749" x2="349.935" y2="123.049" gradientUnits="userSpaceOnUse">
<stop offset="0.0225" stop-color="#6FD0C3"/>
<stop offset="0.2708" stop-color="#CFEFEB"/>
</linearGradient>
<linearGradient id="paint1_linear" x1="181.175" y1="174.218" x2="187.388" y2="206.279" gradientUnits="userSpaceOnUse">
<stop stop-color="#522CD5"/>
<stop offset="0.4397" stop-color="#8A6FE8"/>
</linearGradient>
<linearGradient id="paint2_linear" x1="181.175" y1="174.218" x2="187.388" y2="206.279" gradientUnits="userSpaceOnUse">
<stop stop-color="#522CD5"/>
<stop offset="0.4397" stop-color="#8A6FE8"/>
</linearGradient>
<linearGradient id="paint3_linear" x1="180.774" y1="205.024" x2="197.603" y2="240.176" gradientUnits="userSpaceOnUse">
<stop stop-color="#522CD5"/>
<stop offset="0.4397" stop-color="#8A6FE8"/>
</linearGradient>
<radialGradient id="paint4_radial" cx="0" cy="0" r="1" gradientUnits="userSpaceOnUse" gradientTransform="translate(192.117 227.259) scale(13.5011)">
<stop offset="0.034" stop-color="#522CD5"/>
<stop offset="0.9955" stop-color="#8A6FE8"/>
</radialGradient>
<linearGradient id="paint5_linear" x1="169.276" y1="174.785" x2="161.953" y2="209.3" gradientUnits="userSpaceOnUse">
<stop stop-color="#522CD5"/>
<stop offset="0.4397" stop-color="#8A6FE8"/>
</linearGradient>
<linearGradient id="paint6_linear" x1="159.474" y1="206.668" x2="135.976" y2="245.631" gradientUnits="userSpaceOnUse">
<stop stop-color="#522CD5"/>
<stop offset="0.4397" stop-color="#8A6FE8"/>
</linearGradient>
<radialGradient id="paint7_radial" cx="0" cy="0" r="1" gradientUnits="userSpaceOnUse" gradientTransform="translate(141.058 227.43) rotate(-179.956) scale(14.5123 14.5153)">
<stop offset="0.034" stop-color="#522CD5"/>
<stop offset="0.9955" stop-color="#8A6FE8"/>
</radialGradient>
<radialGradient id="paint8_radial" cx="0" cy="0" r="1" gradientUnits="userSpaceOnUse" gradientTransform="translate(185.846 132.595) rotate(-15.921) scale(41.639)">
<stop offset="0.4744" stop-color="#A08BE8"/>
<stop offset="0.8618" stop-color="#8065E0"/>
</radialGradient>
<radialGradient id="paint9_radial" cx="0" cy="0" r="1" gradientUnits="userSpaceOnUse" gradientTransform="translate(192.494 129.902) rotate(-15.921) scale(40.3539)">
<stop offset="0.2022" stop-color="#E1DFDD"/>
<stop offset="0.7337" stop-color="white"/>
</radialGradient>
<linearGradient id="paint10_linear" x1="157.491" y1="154.614" x2="123.044" y2="154.614" gradientUnits="userSpaceOnUse">
<stop offset="0.2495" stop-color="#967FE6"/>
<stop offset="1" stop-color="#8A6FE8"/>
</linearGradient>
<radialGradient id="paint11_radial" cx="0" cy="0" r="1" gradientUnits="userSpaceOnUse" gradientTransform="translate(136.038 169.664) rotate(113.34) scale(11.2995)">
<stop stop-color="#8065E0"/>
<stop offset="0.8628" stop-color="#512BD4"/>
</radialGradient>
<radialGradient id="paint12_radial" cx="0" cy="0" r="1" gradientUnits="userSpaceOnUse" gradientTransform="translate(157.743 141.199) scale(11.3543)">
<stop stop-color="#8065E0"/>
<stop offset="0.8628" stop-color="#512BD4"/>
</radialGradient>
</defs>
</svg>
