<svg width="636" height="300" viewBox="0 0 636 300" fill="none" xmlns="http://www.w3.org/2000/svg">
<path d="M285.16 249.69C285.13 248.97 283.33 247.21 282.62 250.65C280.03 248.84 274.65 247.15 265.99 246.54C229.82 244.03 189.17 248.12 169.06 252.65C165.2 253.52 162.33 254.58 160.38 255.73C160.37 253.43 158.52 254.22 158.21 254.99C157.71 256.22 157.44 257.5 157.08 259.48C157.07 259.55 157.07 259.62 157.09 259.68C156.57 265.82 175.78 271.75 203.78 265.94C243.56 257.68 267.08 256.61 277.92 256.24C282 256.1 284.3 254.9 284.44 253.38C284.95 251.68 285.19 250.38 285.16 249.69Z" fill="#B3AFAB"/>
<path d="M266.72 243.13C230.55 240.62 189.9 244.71 169.79 249.24C142.66 255.35 164.73 270.79 204.51 262.53C244.29 254.27 267.81 253.2 278.65 252.83C289.5 252.47 287.69 244.59 266.72 243.13Z" fill="#E1DFDD"/>
<path d="M477.63 262.16C516.08 262.16 547.24 259.46 547.24 256.14C547.24 252.81 516.07 250.12 477.63 250.12C439.18 250.12 408.02 252.82 408.02 256.14C408.01 259.46 439.18 262.16 477.63 262.16Z" fill="#D1C5F4"/>
<path d="M466.52 226.79C465.51 220.38 464.53 207.38 469.59 196.47L476.67 200.37C472.07 210.27 473.31 221.8 474.18 226.82C474.25 227.23 470.4 227.63 466.52 226.79Z" fill="url(#paint0_linear)"/>
<path d="M466.52 226.79C465.51 220.38 464.53 207.38 469.59 196.47L476.67 200.37C472.07 210.27 473.31 221.8 474.18 226.82C474.25 227.23 470.4 227.63 466.52 226.79Z" fill="url(#paint1_linear)"/>
<path d="M474.17 226.74H468.13C467.74 228.67 472.94 236.13 457.16 250.54L454.42 258.76L479.97 258.74C480.2 258.74 480.79 258.03 480.6 257.12L474.17 226.74Z" fill="#522CD5"/>
<path d="M451.34 250.14C450.33 250.86 450.1 251.87 450.37 253.11L451.33 257.52C451.48 258.2 452.15 258.76 452.85 258.76H457.78C458.57 258.76 459.06 258.13 458.9 257.35L458.24 253.37C457.93 251.92 457.94 251.02 459.27 250.03C467.14 244.21 472.9 236.31 471.66 226.74H466.51C466.82 231.65 464.6 240.59 451.34 250.14Z" fill="url(#paint2_linear)"/>
<path d="M452.85 258.76C452.16 258.76 451.47 258.2 451.33 257.52L450.37 253.11C450.22 252.41 450.24 251.8 450.44 251.27H458.24C458 251.88 458.06 252.54 458.24 253.39L458.9 257.37C459.06 258.15 458.56 258.78 457.78 258.78L452.85 258.76Z" fill="url(#paint3_radial)"/>
<path d="M486.37 226.27C482.47 220.82 475.55 209.42 475.33 197.99L483.82 199.26C484.03 209.62 490.5 219.62 493.64 223.86C493.91 224.21 490.45 225.79 486.37 226.27Z" fill="url(#paint4_linear)"/>
<path d="M486.37 226.27C482.47 220.82 475.55 209.42 475.33 197.99L483.82 199.26C484.03 209.62 490.5 219.62 493.64 223.86C493.91 224.21 490.45 225.79 486.37 226.27Z" fill="url(#paint5_linear)"/>
<path d="M493.61 223.8L487.89 225.71C488.41 227.57 496.76 232.64 488.45 250.61L489.64 258.88L513.83 250.79C514.04 250.72 514.29 249.89 513.68 249.13L493.61 223.8Z" fill="#522CD5"/>
<path d="M482.75 252.08C482.13 253.06 482.37 254.02 483.2 255.06L486.14 258.73C486.59 259.3 487.5 259.59 488.15 259.36L492.82 257.81C493.56 257.56 493.74 256.83 493.23 256.19L490.77 252.82C489.82 251.62 489.4 250.79 490.2 249.48C494.98 241.75 496.79 232.83 491.22 224.59L486.34 226.22C488.89 230.54 490.9 239.28 482.75 252.08Z" fill="url(#paint6_linear)"/>
<path d="M488.15 259.37C487.5 259.59 486.59 259.3 486.14 258.73L483.2 255.06C482.74 254.48 482.47 253.92 482.41 253.37L489.79 250.91C489.84 251.53 490.21 252.11 490.76 252.82L493.22 256.19C493.74 256.84 493.55 257.56 492.81 257.81L488.15 259.37Z" fill="url(#paint7_radial)"/>
<path d="M437.9 170.95C436.79 170.95 435.69 170.82 434.61 170.56C426.44 168.62 420.14 159.69 415.37 143.24L422.7 141.15C426.48 154.18 431.34 162.02 436.4 163.22C440.81 164.27 445.77 160.19 449.14 156.59L454.72 161.75C448.96 167.86 443.33 170.95 437.9 170.95Z" fill="#8A6FE8"/>
<path d="M414.43 147.99L408.06 145.22C407.66 145.05 407.29 144.79 406.99 144.47C406.69 144.15 406.45 143.78 406.29 143.37C406.13 142.96 406.06 142.52 406.07 142.09C406.08 141.66 406.18 141.22 406.36 140.83C406.53 140.43 406.8 140.07 407.12 139.77C407.44 139.47 407.82 139.23 408.23 139.08C408.64 138.93 409.09 138.85 409.52 138.86C409.96 138.87 410.4 138.97 410.8 139.15L417.33 142.01L414.43 147.99Z" fill="#8A6FE8"/>
<path d="M413.04 143.99L408.21 135.77C407.99 135.39 407.85 134.97 407.79 134.54C407.73 134.11 407.76 133.66 407.88 133.25C408 132.83 408.19 132.43 408.46 132.08C408.73 131.73 409.06 131.44 409.44 131.22C409.82 131 410.25 130.86 410.68 130.81C411.12 130.75 411.57 130.78 411.98 130.9C412.41 131.02 412.81 131.21 413.16 131.48C413.51 131.75 413.8 132.08 414.02 132.45L417.63 138.55L413.04 143.99Z" fill="#8A6FE8"/>
<path d="M416.99 142.89L414.16 133.78C413.9 132.94 413.98 132.02 414.39 131.24C414.81 130.46 415.52 129.87 416.36 129.61C417.21 129.35 418.13 129.44 418.91 129.84C419.7 130.25 420.29 130.96 420.55 131.8L423.44 141.05L416.99 142.89Z" fill="#8A6FE8"/>
<path d="M196.5 253.22L191.94 252.3L204.83 221.21L220.37 221.3L196.5 253.22Z" fill="#B3AFAB"/>
<path d="M264.94 218.14L253.17 248.52L196.5 253.22L210.73 220.36L264.94 218.14Z" fill="#C8C6C4"/>
<path d="M116.64 225.78L123.89 226.27V56.69L116.19 56.19C114.68 56.13 113.47 56.76 113.47 57.58V223.91C113.46 224.87 114.89 225.71 116.64 225.78Z" fill="#B3AFAB"/>
<path d="M345.11 215.85L124.14 226.27C122.04 226.37 120.15 225.4 120.15 224.24V58.46C120.15 57.3 122.03 56.48 124.11 56.73L345.08 74.93C346.77 75.13 348.04 75.98 348.04 76.93V214.1C348.03 215.02 346.79 215.77 345.11 215.85Z" fill="#E1DFDD"/>
<path d="M337.89 210.77L134.86 220.35C133.25 220.43 131.78 219.68 131.78 218.79V64.82C131.78 63.92 133.23 63.3 134.84 63.49L337.87 79.54C339.18 79.69 340.14 80.35 340.14 81.07V209.4C340.15 210.13 339.19 210.71 337.89 210.77Z" fill="#605D5A"/>
<path d="M180.2 68.91L134.84 63.49C133.23 63.3 131.79 63.92 131.79 64.82V218.78C131.79 219.68 133.25 220.42 134.87 220.34L180.21 218.2L180.2 68.91Z" fill="#797673"/>
<path d="M337.86 79.54L134.84 63.49C133.23 63.3 131.79 63.92 131.79 64.82V81.83L340.15 92.43V81.09C340.15 80.35 339.18 79.7 337.86 79.54Z" fill="#797673"/>
<path d="M210.74 129.9L90 128.21V74.5L210.74 81.28V129.9Z" fill="#64BFAF"/>
<path d="M321.78 190.28L228.14 194.05V152.4L321.78 153.26V190.28Z" fill="#2CC7EA"/>
<path d="M310.41 102.2L240.93 99.37V54.71L310.41 63.19V102.2Z" fill="#957EE6"/>
<path d="M444.15 155.56C447.32 145.63 453.08 139.72 453.08 139.72L451.06 138.46L451.03 138.39C463.85 124.55 485.19 121.31 501.8 131.68C520.51 143.36 526.14 167.9 514.36 186.47C502.58 205.04 477.87 210.63 459.16 198.94C444.39 189.72 437.79 172.5 441.43 156.52C441.65 155.88 442.29 154.89 444.15 155.56Z" fill="url(#paint8_radial)"/>
<path d="M440.45 164.08L498.88 200.57C496.17 201.96 493.31 203.04 490.36 203.78L441.22 173.09C440.61 170.13 440.35 167.11 440.45 164.08Z" fill="#D8CFF7"/>
<path d="M508.98 135.39L502.96 130.57L508.79 125.12L513.11 128.57L508.98 135.39Z" fill="#8A6FE8"/>
<path d="M513.47 129.15C516.52 129.15 518.98 126.7 518.98 123.68C518.98 120.66 516.51 118.21 513.47 118.21C510.43 118.21 507.96 120.66 507.96 123.68C507.96 126.7 510.43 129.15 513.47 129.15Z" fill="#D8CFF7"/>
<path d="M508.24 140.99C508.51 141.21 508.92 141.14 509.1 140.85C511.08 137.75 510.45 133.61 507.5 131.26C504.56 128.91 500.34 129.18 497.72 131.75C497.47 131.99 497.5 132.4 497.77 132.62L508.24 140.99Z" fill="url(#paint9_radial)"/>
<path d="M444.14 155.55C447.27 145.74 452.93 139.86 453.06 139.72L488.21 161.68C488.21 161.68 490.56 162.84 489.29 164.84C488.02 166.85 484.33 172.47 480.36 178.74C479.54 180.03 478.09 179.98 477.25 179.46C477.26 179.47 443.91 157.72 444.14 155.55Z" fill="url(#paint10_radial)"/>
<path d="M464.86 168.6C464.86 168.6 462.15 160.98 461.6 159.53C461.05 158.08 460.15 157.47 458.65 157.69C457.15 157.91 449.08 158.74 449.08 158.74L464.86 168.6Z" fill="#A08BE8"/>
<path d="M441.31 156.99C441.31 156.99 441.5 154.61 444.14 155.55C444.14 155.54 478.71 177.1 478.71 177.1C479.52 177.6 480.85 177.78 481.43 177.05C481.08 177.6 480.72 178.17 480.36 178.73C479.62 179.9 478.35 179.97 477.49 179.59C477.4 179.55 477.32 179.51 477.24 179.45L474.88 177.97L441.31 156.99Z" fill="#512BD4"/>
<path d="M477.71 165.91C479.3 163.49 479.41 160.77 477.96 159.83C476.51 158.89 474.05 160.1 472.47 162.52C470.88 164.94 470.77 167.66 472.22 168.6C473.66 169.54 476.12 168.33 477.71 165.91Z" fill="#512BD4"/>
<path d="M456.46 152.49C457.97 150.02 458 147.3 456.53 146.41C455.05 145.52 452.63 146.79 451.12 149.26C449.61 151.73 449.58 154.45 451.05 155.34C452.52 156.23 454.95 154.95 456.46 152.49Z" fill="#512BD4"/>
<path d="M476.54 162C476.34 161.12 475.76 160.44 475.02 160.05C474.11 160.56 473.21 161.4 472.49 162.5C472.04 163.18 471.71 163.89 471.51 164.57C472.2 165.33 473.27 165.71 474.34 165.47C475.91 165.13 476.9 163.57 476.54 162Z" fill="#8065E0"/>
<path d="M455.3 148.53C455.1 147.65 454.52 146.96 453.78 146.58C452.82 147.1 451.85 148.02 451.12 149.23C450.74 149.85 450.46 150.48 450.26 151.1C450.95 151.87 452.02 152.25 453.1 152.01C454.67 151.66 455.66 150.1 455.3 148.53Z" fill="#8065E0"/>
<path d="M462.2 175.23L451.27 168.4L445.18 178L456.11 184.83L462.2 175.23Z" fill="#512BD4"/>
<path d="M449.03 175.62C448.95 175.57 448.9 175.49 448.87 175.41C448.85 175.31 448.86 175.24 448.91 175.16C448.96 175.08 449.03 175.03 449.12 175.02C449.22 175 449.3 175.02 449.38 175.07C449.47 175.12 449.52 175.2 449.54 175.28C449.56 175.38 449.55 175.46 449.5 175.54C449.45 175.62 449.38 175.67 449.29 175.68C449.21 175.68 449.12 175.67 449.03 175.62Z" fill="white"/>
<path d="M452.36 177.63L451.82 177.29L451.81 174.19C451.81 174.11 451.82 174.04 451.83 173.96L451.82 173.95C451.79 174.02 451.7 174.16 451.58 174.37L450.33 176.35L449.85 176.05L451.76 173.04L452.34 173.4V176.42C452.34 176.55 452.34 176.63 452.33 176.67L452.34 176.68C452.38 176.59 452.46 176.45 452.57 176.27L453.8 174.33L454.28 174.63L452.36 177.63Z" fill="white"/>
<path d="M454.68 179.08L453.02 178.04L454.94 175.03L456.53 176.02L456.26 176.44L455.15 175.75L454.61 176.6L455.63 177.24L455.36 177.66L454.34 177.02L453.78 177.91L454.96 178.64L454.68 179.08Z" fill="white"/>
<path d="M458.68 177.96L457.83 177.43L456.19 180.02L455.69 179.71L457.33 177.12L456.48 176.59L456.75 176.17L458.94 177.54L458.68 177.96Z" fill="white"/>
<path d="M463.3 209.28L462.59 201.5C480.05 199.94 489.51 189.45 493.49 183.56C494.97 181.38 501.93 185.07 500.02 187.88C495.16 195.07 483.9 207.44 463.3 209.28Z" fill="url(#paint11_linear)"/>
<path d="M499.92 188.85C503.98 188.85 507.27 185.58 507.27 181.56C507.27 177.53 503.98 174.27 499.92 174.27C495.86 174.27 492.57 177.54 492.57 181.56C492.58 185.59 495.87 188.85 499.92 188.85Z" fill="url(#paint12_radial)"/>
<path d="M457.3 192.64L465.68 199.39C466.34 199.98 466.75 200.81 466.82 201.69C466.89 202.57 466.62 203.45 466.05 204.13C465.49 204.81 464.68 205.27 463.8 205.38C462.91 205.5 462.02 205.27 461.3 204.75L452.92 198C452.54 197.72 452.21 197.37 451.97 196.97C451.73 196.56 451.57 196.12 451.51 195.65C451.45 195.19 451.48 194.71 451.61 194.26C451.74 193.81 451.96 193.38 452.26 193.03C452.56 192.66 452.93 192.36 453.35 192.14C453.77 191.92 454.23 191.79 454.7 191.75C455.18 191.71 455.64 191.77 456.1 191.92C456.54 192.09 456.95 192.33 457.3 192.64Z" fill="#8A6FE8"/>
<path d="M463.69 212.53L457.77 216.7C457.01 217.19 456.08 217.37 455.19 217.2C454.3 217.03 453.51 216.51 452.98 215.78C452.45 215.04 452.25 214.13 452.39 213.24C452.54 212.35 453.02 211.55 453.75 211L459.82 206.73L463.69 212.53Z" fill="#8A6FE8"/>
<path d="M459.87 211.63L450.05 213.51C449.14 213.68 448.2 213.48 447.43 212.97C446.66 212.45 446.14 211.65 445.96 210.74C445.79 209.83 445.99 208.9 446.51 208.13C447.04 207.37 447.84 206.85 448.76 206.67L456.05 205.25L459.87 211.63Z" fill="#8A6FE8"/>
<path d="M460.14 207.4L450.13 207.01C449.68 206.99 449.22 206.88 448.8 206.7C448.38 206.51 448 206.24 447.69 205.91C447.38 205.57 447.14 205.19 446.97 204.75C446.8 204.33 446.74 203.86 446.76 203.41C446.78 202.96 446.89 202.5 447.08 202.09C447.28 201.68 447.55 201.3 447.88 200.99C448.22 200.68 448.61 200.44 449.04 200.28C449.47 200.12 449.94 200.05 450.39 200.07L460.59 200.46L460.14 207.4Z" fill="#8A6FE8"/>
<path d="M468.93 204.37C469.21 205.78 469.06 207.25 468.5 208.58C467.95 209.91 467 211.04 465.79 211.84C464.59 212.64 463.17 213.06 461.71 213.06C460.26 213.06 458.84 212.63 457.64 211.83C456.44 211.03 455.5 209.89 454.95 208.56C454.4 207.23 454.26 205.76 454.54 204.35C454.83 202.94 455.53 201.65 456.56 200.63C457.59 199.62 458.89 198.92 460.32 198.65C461.26 198.47 462.24 198.47 463.18 198.66C464.12 198.85 465.02 199.22 465.82 199.75C466.62 200.28 467.3 200.97 467.84 201.77C468.37 202.54 468.74 203.43 468.93 204.37Z" fill="url(#paint13_radial)"/>
<path d="M387.99 146.85C424.31 146.85 453.75 117.62 453.75 81.57C453.75 45.52 424.31 16.29 387.99 16.29C351.67 16.29 322.23 45.52 322.23 81.57C322.23 117.62 351.67 146.85 387.99 146.85Z" fill="#B6E3DE"/>
<path d="M391.49 39.17C387.37 38.21 384.72 38.83 383.91 36.39C383.09 33.95 382.65 35.98 376.28 35.82C369.91 35.66 367.89 34.44 362.06 34.52C356.23 34.61 348.51 40.56 346.15 42.53C343.8 44.51 341.93 48.94 343.82 53.95C345.72 58.96 347.96 62.86 341.92 66.2C335.87 69.55 337.63 70.99 337.95 81.19C338.27 91.4 335.71 89.61 334.91 94.52C334.11 99.43 335.07 102.27 337.72 104.57C340.37 106.88 339.25 106.86 342.56 102.44C345.87 98.02 353.99 99.29 360.15 97.42C366.31 95.57 368.59 96.59 370.65 95.6C372.71 94.62 369.59 86.65 370.32 85.06C371.05 83.47 373.64 73.61 375.69 72.3C377.74 70.99 379.81 72.08 376.62 77.99C373.43 83.9 371.91 88.65 377.48 90.53C383.06 92.41 392.27 96.56 389.48 92.1C386.69 87.64 385.9 82.34 388.47 79.17C391.05 76.02 391.12 78.29 392.51 85.47C393.89 92.65 396.62 99 397.38 103.33C398.13 107.66 395.84 107.75 393.95 111.53C392.06 115.31 392.39 117.06 393.56 118.71C394.74 120.36 396.75 116.32 399.81 113.86C402.87 111.4 407.62 112.27 410.25 110.42C412.87 108.57 414.88 111.23 412.39 114.9C409.9 118.57 410.3 118.76 412.82 119.25C415.33 119.74 415.79 121.23 414.82 123.67C413.86 126.11 417.57 127.15 419.74 123.49C421.9 119.82 419.26 116.08 425.11 114.57C430.96 113.06 435.48 100.71 437 95.63C438.52 90.56 446.66 85.44 441.89 80.73C437.12 76.02 440.16 64.44 436.73 62.1C433.3 59.76 434.39 59.13 427.41 58.54C420.43 57.95 420.65 55.01 414.58 54.2C408.52 53.38 412.05 49.87 409.1 47.89C406.14 45.91 403.01 46.42 398.68 46.38C394.32 46.36 395.85 40.19 391.49 39.17Z" fill="#6FCFCE"/>
<path d="M343.71 126.49C343.8 127.75 343.91 128.98 344.07 130.18C344.68 130.72 345.31 131.25 345.95 131.77C345.73 130.43 345.55 129.04 345.43 127.59C349.04 129.88 352.84 132.04 356.85 134.06C356.54 135.63 356.28 137.15 356.06 138.6C356.6 138.89 357.12 139.19 357.66 139.47C357.86 138.01 358.11 136.47 358.43 134.84C359.8 135.52 361.18 136.17 362.59 136.81C364.89 137.84 367.19 138.8 369.48 139.69C368.47 140.96 367.49 142.15 366.54 143.25C367.12 143.45 367.71 143.64 368.3 143.82C369.23 142.73 370.18 141.56 371.14 140.33C375.44 141.94 379.71 143.29 383.91 144.41C382.92 145.14 381.93 145.82 380.95 146.46C381.8 146.55 382.66 146.63 383.5 146.69C384.31 146.13 385.11 145.54 385.92 144.92C388.57 145.58 391.19 146.12 393.77 146.57C395.79 146.39 397.81 146.13 399.79 145.76C395.84 145.27 391.77 144.55 387.61 143.56C390.15 141.48 392.68 139.1 395.2 136.46C401.44 137.81 407.5 138.63 413.22 138.92C410.56 141.05 407.82 142.95 405.03 144.6C407.09 144.05 409.12 143.4 411.12 142.65C412.71 141.51 414.28 140.31 415.81 139.01C416.94 139.04 418.05 139.04 419.15 139.02C420.21 138.46 421.25 137.87 422.28 137.25C420.78 137.33 419.27 137.37 417.71 137.37C420.97 134.45 424.09 131.16 427.01 127.57C429.83 127.54 432.53 127.36 435.15 127.06C435.75 126.44 436.35 125.82 436.94 125.17C434.21 125.56 431.35 125.81 428.37 125.88C431.01 122.48 433.45 118.82 435.7 114.92C438.88 114.88 441.95 114.68 444.88 114.33C445.22 113.74 445.54 113.14 445.87 112.54C442.93 112.95 439.85 113.18 436.65 113.24C437.81 111.14 438.91 108.97 439.93 106.74C441.62 103.05 443.04 99.34 444.22 95.62C447.26 95.12 450.1 94.39 452.69 93.44C452.81 92.81 452.91 92.18 453.01 91.54C450.52 92.54 447.77 93.32 444.79 93.86C446.67 87.56 447.83 81.28 448.33 75.17C450.14 74.39 451.74 73.45 453.13 72.36C453.03 71.7 452.95 71.05 452.83 70.39C451.6 71.52 450.14 72.49 448.46 73.3C448.86 66.5 448.41 59.95 447.14 53.87C447.23 53.74 447.31 53.62 447.4 53.48C446.12 50.79 444.64 48.19 442.99 45.69C443.91 48.16 444.68 50.75 445.28 53.44C442.72 56.42 437.79 57.93 431.49 57.98C432.15 51.91 432.18 46.29 431.59 41.27C434.42 41.05 436.59 40.26 437.82 38.89C437.44 38.45 437.05 38.01 436.66 37.58C435.8 38.71 433.96 39.41 431.36 39.6C430.85 36.19 430.03 33.11 428.9 30.41C427.9 29.62 426.86 28.86 425.8 28.12C427.59 31.25 428.83 35.14 429.51 39.65C426.22 39.6 422.02 38.88 417.27 37.37C418.2 31.63 418.41 26.82 417.75 23.33C416.91 22.92 416.08 22.5 415.22 22.11C415.18 22.09 415.14 22.08 415.1 22.06C411.95 23.87 408.35 27.29 404.52 31.9C400.16 29.53 396.63 27.01 394.05 24.62C398.57 21.62 402.98 19.72 407.06 19.08C405.85 18.71 404.64 18.39 403.41 18.09C399.96 19.1 396.36 20.88 392.72 23.32C390.1 20.56 388.87 18.06 389.19 16.28C388.61 16.27 388.02 16.27 387.44 16.28C387.19 18.59 388.6 21.38 391.3 24.3C387.19 27.23 383.03 31.01 378.95 35.48C374.66 31.1 372 26.69 371.49 22.83C376.51 19.8 381.69 17.58 386.88 16.27C384.52 16.31 382.17 16.48 379.83 16.77C376.99 17.9 374.18 19.26 371.42 20.88C371.48 19.95 371.68 19.07 372.04 18.24C371.36 18.4 370.69 18.59 370.02 18.78C369.75 19.79 369.62 20.84 369.67 21.94C364.63 25.09 359.79 29.03 355.28 33.66C354.18 30.96 353.62 28.34 353.65 25.88C353.08 26.23 352.52 26.59 351.97 26.96C352.12 29.52 352.83 32.21 354.04 34.96C349.95 39.34 346.17 44.31 342.81 49.77C340.49 46.36 338.73 42.98 337.55 39.68C337.14 40.16 336.73 40.65 336.34 41.16C337.64 44.5 339.5 47.89 341.87 51.3C340.16 54.2 338.58 57.23 337.13 60.4C335.91 63.05 334.85 65.73 333.89 68.4C331.02 65.23 328.51 62.01 326.38 58.81C326.13 59.45 325.89 60.08 325.67 60.72C327.86 63.89 330.39 67.07 333.26 70.19C331.81 74.51 330.71 78.83 329.92 83.11C327.15 80.05 324.73 76.95 322.68 73.87C322.58 74.72 322.49 75.57 322.42 76.43C324.49 79.37 326.87 82.31 329.55 85.19C328.81 89.81 328.46 94.36 328.48 98.77C326.57 96.79 324.82 94.8 323.21 92.79C323.41 93.96 323.66 95.12 323.93 96.28C325.36 97.94 326.89 99.59 328.53 101.23C328.66 104.82 329.03 108.3 329.65 111.66C331.2 114.62 332.98 117.47 334.97 120.18C337.7 122.35 340.62 124.46 343.71 126.49ZM345.28 125.47C345.11 122.23 345.18 118.76 345.49 115.12C349.81 118.05 354.47 120.83 359.41 123.41C358.55 126.52 357.82 129.5 357.21 132.32C353.01 130.17 349.03 127.88 345.28 125.47ZM375.71 80.09C375.4 80.76 375.09 81.42 374.79 82.09C372.81 86.42 370.92 90.81 369.14 95.19C363.11 91.96 357.51 88.44 352.36 84.73C353.86 80.51 355.58 76.24 357.54 71.97C358 70.96 358.47 69.96 358.95 68.98C363.94 72.91 369.56 76.67 375.71 80.09ZM359.73 67.4C362.32 62.2 365.12 57.29 368.06 52.73C372.56 56.68 377.88 60.45 383.84 63.86C381.29 68.61 378.8 73.53 376.45 78.52C370.3 75.09 364.68 71.34 359.73 67.4ZM368.48 96.8C366.86 100.87 365.34 104.92 363.96 108.88C358.28 105.85 352.98 102.56 348.11 99.09C349.09 94.96 350.32 90.73 351.78 86.41C356.91 90.1 362.5 93.59 368.48 96.8ZM363.39 110.54C362.09 114.37 360.9 118.1 359.88 121.68C354.83 119.03 350.07 116.16 345.67 113.14C346.08 109.22 346.76 105.12 347.69 100.89C352.53 104.32 357.78 107.56 363.39 110.54ZM393.69 68.88C397.49 70.6 401.3 72.06 405.04 73.29C403.17 78.13 401.09 83.2 398.74 88.47C394.81 87.12 390.84 85.56 386.87 83.76C383.8 82.37 380.83 80.89 377.98 79.35C380.43 74.16 382.89 69.27 385.33 64.69C387.99 66.17 390.78 67.58 393.69 68.88ZM386.14 63.17C388.93 58.01 391.7 53.28 394.38 49.02C396.56 50.22 398.83 51.36 401.21 52.44C404.5 53.93 407.77 55.18 410.96 56.21C409.49 61.02 407.72 66.21 405.65 71.69C401.94 70.46 398.18 69.02 394.39 67.31C391.54 66.02 388.78 64.63 386.14 63.17ZM386.15 85.34C390.13 87.13 394.09 88.7 398.04 90.06C397.73 90.75 397.42 91.45 397.1 92.14C395.05 96.62 392.99 100.87 390.93 104.91C387.08 103.52 383.21 101.96 379.35 100.21C376.38 98.87 373.49 97.46 370.67 95.98C372.4 91.73 374.3 87.33 376.38 82.79C376.67 82.16 376.95 81.54 377.24 80.92C380.11 82.47 383.07 83.95 386.15 85.34ZM373.28 113.46C370.61 112.25 368 110.99 365.47 109.68C366.82 105.83 368.33 101.8 370.01 97.61C372.8 99.07 375.67 100.47 378.61 101.8C382.45 103.54 386.3 105.09 390.12 106.48C388.05 110.49 385.99 114.28 383.96 117.82C380.41 116.51 376.84 115.07 373.28 113.46ZM383.07 119.33C380.98 122.91 378.92 126.24 376.92 129.29C373.87 128.15 370.82 126.91 367.76 125.53C365.59 124.56 363.48 123.53 361.41 122.47C362.4 118.97 363.57 115.24 364.91 111.33C367.4 112.61 369.94 113.86 372.56 115.04C376.07 116.63 379.58 118.05 383.07 119.33ZM370.58 138.28C368.16 137.34 365.73 136.34 363.3 135.25C361.76 134.56 360.26 133.83 358.77 133.1C359.34 130.33 360.05 127.36 360.92 124.19C362.91 125.2 364.95 126.18 367.02 127.11C369.99 128.45 372.97 129.67 375.93 130.78C374.1 133.52 372.31 136.02 370.58 138.28ZM385.63 143.09C381.22 141.97 376.74 140.58 372.23 138.9C373.98 136.58 375.76 134.06 377.56 131.37C382.87 133.3 388.15 134.86 393.3 136.06C390.76 138.7 388.19 141.06 385.63 143.09ZM394.68 134.61C389.41 133.42 384.01 131.84 378.54 129.88C380.59 126.74 382.64 123.41 384.68 119.91C390.75 122.05 396.74 123.74 402.59 124.98C400.02 128.49 397.36 131.71 394.68 134.61ZM399.69 90.62C406.42 92.84 413.03 94.42 419.33 95.38C418.81 96.61 418.26 97.86 417.7 99.09C415.83 103.17 413.82 107.09 411.72 110.81C405.49 109.54 399.06 107.76 392.55 105.48C394.67 101.34 396.72 97.11 398.67 92.84C399.02 92.11 399.36 91.36 399.69 90.62ZM400.4 89.03C402.63 83.97 404.73 78.86 406.66 73.81C413.27 75.87 419.67 77.17 425.62 77.72C424.12 82.97 422.25 88.34 420.01 93.76C413.74 92.83 407.14 91.24 400.4 89.03ZM391.76 107.05C398.22 109.32 404.62 111.09 410.83 112.38C408.55 116.32 406.15 120.02 403.69 123.48C397.79 122.25 391.71 120.56 385.57 118.4C387.67 114.75 389.74 110.95 391.76 107.05ZM415.13 137.36C409.27 137.17 403.03 136.39 396.56 135.03C399.23 132.1 401.88 128.86 404.43 125.36C411.53 126.77 418.37 127.5 424.77 127.58C421.73 131.2 418.5 134.47 415.13 137.36ZM426.12 125.93C419.68 125.93 412.74 125.25 405.51 123.85C407.97 120.39 410.35 116.67 412.62 112.74C419.97 114.16 427.04 114.89 433.66 114.95C431.36 118.87 428.84 122.54 426.12 125.93ZM438.31 106.05C437.16 108.55 435.93 110.96 434.62 113.3C428.02 113.3 420.92 112.6 413.52 111.19C415.55 107.57 417.49 103.78 419.29 99.82C419.93 98.42 420.53 97.03 421.13 95.64C428.78 96.67 435.94 96.76 442.28 95.93C441.16 99.3 439.85 102.69 438.31 106.05ZM442.83 94.19C436.59 95.09 429.47 95.04 421.81 94.03C424.07 88.56 425.94 83.15 427.45 77.88C434.77 78.38 441.31 77.73 446.5 75.9C445.94 81.88 444.73 88.02 442.83 94.19ZM445.65 55.5C446.75 61.34 447.09 67.6 446.63 74.09C441.66 76.01 435.21 76.73 427.9 76.24C429.47 70.51 430.56 64.98 431.22 59.74C437.5 59.71 442.57 58.29 445.65 55.5ZM426.07 76.1C420.21 75.56 413.84 74.26 407.27 72.21C409.26 66.9 411.04 61.68 412.56 56.71C418.61 58.54 424.34 59.55 429.39 59.72C428.73 64.92 427.62 70.42 426.07 76.1ZM429.7 41.36C430.28 46.31 430.24 51.91 429.58 57.97C424.65 57.81 419 56.82 413.06 55.02C414.76 49.29 416.08 43.91 416.95 39.09C421.73 40.59 426.12 41.35 429.7 41.36ZM416.02 23.49C416.64 26.54 416.51 31.08 415.61 36.85C413.64 36.16 411.59 35.35 409.48 34.4C408.29 33.86 407.14 33.31 406.04 32.74C409.86 28.18 413.26 25.04 416.02 23.49ZM404.89 34.1C406.13 34.75 407.42 35.37 408.74 35.97C410.98 36.97 413.17 37.84 415.31 38.57C414.49 43.21 413.21 48.57 411.45 54.53C408.33 53.52 405.13 52.29 401.92 50.84C399.62 49.8 397.41 48.69 395.3 47.53C398.68 42.29 401.9 37.78 404.89 34.1ZM392.58 25.62C395.31 28.22 399 30.87 403.38 33.28C400.3 37.11 397.09 41.66 393.87 46.71C388.51 43.63 383.9 40.23 380.25 36.76C384.33 32.29 388.49 28.52 392.58 25.62ZM379.07 38.08C382.78 41.61 387.47 45.07 392.92 48.19C390.15 52.6 387.37 57.37 384.66 62.34C378.72 58.94 373.44 55.2 368.99 51.3C372.23 46.44 375.61 42.01 379.07 38.08ZM369.88 23.84C370.68 27.91 373.45 32.38 377.76 36.79C374.29 40.74 370.89 45.2 367.64 50.1C362.34 45.25 358.37 40.2 356.03 35.37C360.37 30.84 365.03 26.96 369.88 23.84ZM354.83 36.65C357.34 41.58 361.41 46.66 366.73 51.54C363.78 56.11 360.97 61.05 358.35 66.3C352.49 61.48 347.62 56.41 343.91 51.34C347.16 45.92 350.83 40.99 354.83 36.65ZM338.71 61.12C340.02 58.26 341.45 55.51 342.98 52.86C346.77 57.95 351.7 63.03 357.56 67.83C357.02 68.95 356.48 70.09 355.96 71.24C354.06 75.4 352.37 79.55 350.91 83.66C344.97 79.26 339.7 74.6 335.22 69.84C336.22 66.93 337.39 64.02 338.71 61.12ZM334.62 71.65C339.14 76.38 344.41 80.99 350.32 85.35C348.84 89.64 347.61 93.88 346.62 98.01C340.86 93.78 335.74 89.31 331.4 84.72C332.12 80.4 333.19 76.03 334.62 71.65ZM331.05 86.79C335.41 91.3 340.5 95.68 346.18 99.81C345.23 104.03 344.54 108.13 344.1 112.06C338.92 108.39 334.26 104.51 330.2 100.52C330.1 96.08 330.37 91.48 331.05 86.79ZM343.91 114.03C343.58 117.64 343.48 121.08 343.59 124.34C339.51 121.61 335.72 118.74 332.3 115.78C331.25 111.74 330.59 107.44 330.33 102.98C334.34 106.81 338.89 110.52 343.91 114.03Z" fill="#1FB1D1"/>
<path d="M427.73 132.99L426.26 143.15C426.2 143.58 426.05 144 425.83 144.37C425.61 144.75 425.32 145.07 424.97 145.33C424.62 145.59 424.22 145.78 423.79 145.89C423.36 146 422.93 146.03 422.49 145.96C422.05 145.9 421.63 145.76 421.26 145.54C420.88 145.32 420.55 145.03 420.29 144.68C420.03 144.33 419.83 143.94 419.73 143.51C419.62 143.09 419.59 142.65 419.66 142.22L421.13 132.06C421.26 131.19 421.72 130.41 422.43 129.88C423.14 129.35 424.02 129.13 424.91 129.25C425.78 129.38 426.57 129.84 427.11 130.54C427.62 131.25 427.85 132.12 427.73 132.99Z" fill="#8A6FE8"/>
<path d="M412.29 141.18C412.67 139.86 413.43 138.67 414.49 137.77C415.55 136.87 416.84 136.31 418.22 136.15C419.6 135.99 421 136.24 422.24 136.86C423.47 137.49 424.5 138.46 425.17 139.67C425.85 140.88 426.15 142.25 426.04 143.63C425.93 145 425.42 146.31 424.55 147.39C423.69 148.47 422.53 149.28 421.21 149.71C419.89 150.13 418.47 150.16 417.14 149.79C416.25 149.54 415.42 149.12 414.7 148.56C413.97 147.99 413.37 147.29 412.92 146.5C412.47 145.7 412.18 144.82 412.07 143.91C411.96 142.99 412.04 142.06 412.29 141.18Z" fill="url(#paint14_radial)"/>
<defs>
<linearGradient id="paint0_linear" x1="474.247" y1="197.163" x2="468.298" y2="226.915" gradientUnits="userSpaceOnUse">
<stop stop-color="#522CD5"/>
<stop offset="0.4397" stop-color="#8A6FE8"/>
</linearGradient>
<linearGradient id="paint1_linear" x1="474.247" y1="197.163" x2="468.298" y2="226.915" gradientUnits="userSpaceOnUse">
<stop stop-color="#522CD5"/>
<stop offset="0.4397" stop-color="#8A6FE8"/>
</linearGradient>
<linearGradient id="paint2_linear" x1="469.849" y1="225.814" x2="452.776" y2="258.898" gradientUnits="userSpaceOnUse">
<stop stop-color="#522CD5"/>
<stop offset="0.4397" stop-color="#8A6FE8"/>
</linearGradient>
<radialGradient id="paint3_radial" cx="0" cy="0" r="1" gradientUnits="userSpaceOnUse" gradientTransform="translate(453.445 244.824) rotate(180) scale(11.9252 11.8372)">
<stop offset="0.034" stop-color="#522CD5"/>
<stop offset="0.9955" stop-color="#8A6FE8"/>
</radialGradient>
<linearGradient id="paint4_linear" x1="482.53" y1="197.027" x2="486.446" y2="226.263" gradientUnits="userSpaceOnUse">
<stop stop-color="#522CD5"/>
<stop offset="0.4397" stop-color="#8A6FE8"/>
</linearGradient>
<linearGradient id="paint5_linear" x1="482.53" y1="197.027" x2="486.446" y2="226.263" gradientUnits="userSpaceOnUse">
<stop offset="0.149" stop-color="#522CD5"/>
<stop offset="0.4991" stop-color="#8A6FE8"/>
</linearGradient>
<linearGradient id="paint6_linear" x1="491.714" y1="224.513" x2="487.431" y2="259.283" gradientUnits="userSpaceOnUse">
<stop stop-color="#522CD5"/>
<stop offset="0.4397" stop-color="#8A6FE8"/>
</linearGradient>
<radialGradient id="paint7_radial" cx="0" cy="0" r="1" gradientUnits="userSpaceOnUse" gradientTransform="translate(482.358 246.594) rotate(161.55) scale(11.9036 11.8329)">
<stop offset="0.034" stop-color="#522CD5"/>
<stop offset="0.9955" stop-color="#8A6FE8"/>
</radialGradient>
<radialGradient id="paint8_radial" cx="0" cy="0" r="1" gradientUnits="userSpaceOnUse" gradientTransform="translate(473.439 138.957) rotate(-148.011) scale(50.352 50.1896)">
<stop offset="0.3472" stop-color="#A08BE8"/>
<stop offset="0.684" stop-color="#8065E0"/>
<stop offset="0.7596" stop-color="#8065E0"/>
</radialGradient>
<radialGradient id="paint9_radial" cx="0" cy="0" r="1" gradientUnits="userSpaceOnUse" gradientTransform="translate(504.826 132.173) scale(6.0684 6.0236)">
<stop stop-color="#8065E0"/>
<stop offset="1" stop-color="#512BD4"/>
</radialGradient>
<radialGradient id="paint10_radial" cx="0" cy="0" r="1" gradientUnits="userSpaceOnUse" gradientTransform="translate(457.332 138.305) scale(38.8518 38.5654)">
<stop offset="0.0933" stop-color="#E1DFDD"/>
<stop offset="0.6573" stop-color="white"/>
</radialGradient>
<linearGradient id="paint11_linear" x1="481.469" y1="182.908" x2="481.469" y2="209.28" gradientUnits="userSpaceOnUse">
<stop offset="0.1526" stop-color="#9780E6"/>
<stop offset="1" stop-color="#8A6FE8"/>
</linearGradient>
<radialGradient id="paint12_radial" cx="0" cy="0" r="1" gradientUnits="userSpaceOnUse" gradientTransform="translate(498.886 178.943) scale(7.35079 7.2966)">
<stop stop-color="#8065E0"/>
<stop offset="1" stop-color="#512BD4"/>
</radialGradient>
<radialGradient id="paint13_radial" cx="0" cy="0" r="1" gradientUnits="userSpaceOnUse" gradientTransform="translate(457.882 203.458) rotate(110.454) scale(12.4858 12.556)">
<stop stop-color="#8065E0"/>
<stop offset="1" stop-color="#512BD4"/>
</radialGradient>
<radialGradient id="paint14_radial" cx="0" cy="0" r="1" gradientUnits="userSpaceOnUse" gradientTransform="translate(419.119 139.03) rotate(-11.5524) scale(11.0684 10.9931)">
<stop stop-color="#8065E0"/>
<stop offset="1" stop-color="#512BD4"/>
</radialGradient>
</defs>
</svg>
