<svg width="636" height="300" viewBox="0 0 636 300" fill="none" xmlns="http://www.w3.org/2000/svg">
<path d="M522.97 40.96L461.97 58.18L462.13 115.99C460.65 114.78 458.56 115.41 456.41 115.48C454.31 115.55 452.59 113.57 451.13 114.82L451.02 58.87L394.61 50.01L394.66 115.25L448.68 123.02C450.55 125.8 452.84 126.7 456.41 126.61C459.98 126.52 462.43 125.36 464.2 122.63L522.87 111.26L522.97 40.96Z" fill="#0F849E"/>
<path d="M513.51 35.45C513.51 35.45 469.49 45.84 463.96 47.86C458.46 49.87 456.22 53.48 456.37 60.06C456.52 66.64 456.36 116 456.36 116L514.47 103.59L513.51 35.45Z" fill="#BBF1FD"/>
<path d="M403.28 43.59C403.28 43.59 443.66 47.64 449.07 48.89C454.51 50.14 456.74 53.45 456.58 60.05C456.42 66.65 456.36 116 456.36 116L401.99 107.87L403.28 43.59Z" fill="#77E3FB"/>
<path d="M446.11 61.15C446.04 61.15 445.98 61.15 445.91 61.14L412.91 57.16C412.37 57.1 412.01 56.61 412.12 56.09C412.23 55.56 412.77 55.19 413.29 55.25L446.31 59.19C446.87 59.26 447.24 59.75 447.13 60.29C447.04 60.77 446.6 61.12 446.11 61.15Z" fill="#B3AFAB"/>
<path d="M446.11 70.39C446.04 70.39 445.98 70.39 445.91 70.38L412.9 66.23C412.36 66.16 412.01 65.68 412.11 65.15C412.22 64.62 412.76 64.25 413.28 64.32L446.3 68.44C446.86 68.51 447.23 69 447.12 69.54C447.03 70.01 446.6 70.36 446.11 70.39Z" fill="#B3AFAB"/>
<path d="M446.11 79.63C446.04 79.63 445.98 79.63 445.91 79.62L412.9 75.3C412.36 75.23 412.01 74.74 412.11 74.22C412.22 73.69 412.76 73.32 413.28 73.39L446.3 77.68C446.86 77.75 447.23 78.25 447.12 78.78C447.03 79.26 446.59 79.6 446.11 79.63Z" fill="#B3AFAB"/>
<path d="M446.1 88.86C446.03 88.86 445.97 88.86 445.9 88.85L412.9 84.35C412.36 84.28 412 83.79 412.11 83.26C412.22 82.73 412.76 82.36 413.28 82.44L446.3 86.9C446.86 86.98 447.23 87.47 447.12 88.01C447.03 88.5 446.59 88.84 446.1 88.86Z" fill="#B3AFAB"/>
<path d="M466.79 59.87C466.86 59.87 466.93 59.86 466.99 59.84L502.1 51.32C502.7 51.18 503.09 50.62 502.98 50.08C502.86 49.54 502.26 49.22 501.68 49.37L466.58 57.93C466 58.07 465.63 58.61 465.74 59.14C465.85 59.6 466.29 59.9 466.79 59.87Z" fill="#B3AFAB"/>
<path d="M466.79 69.21C466.86 69.21 466.93 69.2 466.99 69.18L502.1 60.84C502.7 60.7 503.09 60.14 502.98 59.6C502.86 59.06 502.26 58.74 501.68 58.88L466.58 67.26C466 67.4 465.63 67.94 465.74 68.47C465.84 68.94 466.29 69.24 466.79 69.21Z" fill="#B3AFAB"/>
<path d="M466.78 78.56C466.85 78.56 466.92 78.55 466.98 78.53L502.09 70.37C502.69 70.23 503.08 69.68 502.97 69.14C502.85 68.6 502.25 68.27 501.67 68.41L466.57 76.6C465.99 76.73 465.62 77.27 465.73 77.8C465.84 78.28 466.28 78.58 466.78 78.56Z" fill="#B3AFAB"/>
<path d="M466.78 87.9C466.85 87.9 466.92 87.89 466.98 87.87L502.09 79.9C502.69 79.76 503.08 79.21 502.97 78.67C502.85 78.13 502.25 77.8 501.67 77.94L466.57 85.95C465.99 86.08 465.62 86.62 465.73 87.15C465.84 87.62 466.28 87.93 466.78 87.9Z" fill="#B3AFAB"/>
<path d="M452.44 117.37C453.69 116.62 455.15 116.15 456.72 116.1C458.18 116.05 459.54 116.38 460.73 116.97L515.96 107.01L516.5 42.48L513.33 35.48L512.98 102.36C512.98 102.36 467.57 110.92 463.6 111.9C459.65 112.88 456.44 115.93 456.44 115.93C456.44 115.93 454.91 113.52 450 112.5C445.12 111.49 403.28 106.2 403.28 106.2L403.41 43.73L400.52 51.06L400.67 110.57L452.44 117.37Z" fill="#22B5D6"/>
<path d="M249.6 170.93L249.65 34.27C249.65 33 250.62 31.89 251.82 31.78L351.44 22.98C352.8 22.86 353.9 23.86 353.9 25.21L353.84 170.9C353.84 172.25 352.74 173.35 351.38 173.35L251.77 173.24C250.57 173.23 249.6 172.2 249.6 170.93Z" fill="#625F5B"/>
<path d="M257.68 162.35L257.73 42.14C257.73 41.74 258.04 41.38 258.42 41.35L344.03 34.33C344.46 34.3 344.8 34.61 344.8 35.04L344.75 161.85C344.75 162.28 344.4 162.62 343.98 162.62L258.37 163.07C257.99 163.08 257.68 162.75 257.68 162.35Z" fill="#8DBCF4"/>
<path d="M263.49 156.41L263.53 60.9C263.53 60.5 263.84 60.15 264.23 60.12L337.63 54.99C338.05 54.96 338.39 55.28 338.39 55.7L338.35 155.7C338.35 156.12 338.01 156.47 337.58 156.47L264.18 157.13C263.8 157.14 263.49 156.82 263.49 156.41Z" fill="white"/>
<path d="M321.06 50.57L310.2 51.37C309.18 51.44 308.71 50.77 308.71 49.94C308.71 45.51 305.04 42.25 300.71 42.6C296.43 42.94 292.78 46.68 292.78 51.01C292.78 51.74 292.61 52.66 291.23 52.76L280.55 53.54C279.38 53.63 278.43 54.68 278.43 55.89V64.34C278.43 65.55 279.38 66.48 280.55 66.4L321.07 63.75C322.3 63.67 323.3 62.59 323.3 61.34V52.66C323.29 51.42 322.29 50.48 321.06 50.57ZM300.7 47.47C302.48 47.33 303.92 48.71 303.92 50.53C303.92 52.36 302.47 53.94 300.69 54.07C298.91 54.2 297.48 52.83 297.48 51.01C297.48 49.19 298.92 47.61 300.7 47.47Z" fill="#FDD696"/>
<path d="M278.42 62.76V64.35C278.42 65.56 279.37 66.49 280.54 66.41L321.06 63.76C322.29 63.68 323.29 62.6 323.29 61.35V59.72L278.42 62.76Z" fill="#F7B548"/>
<path d="M309.68 81.12L272.28 83.18V79.93L309.68 77.8V81.12Z" fill="#C4C1BE"/>
<path d="M309.68 95.61L272.27 97.34L272.28 94.09L309.68 92.29V95.61Z" fill="#C4C1BE"/>
<path d="M309.67 110.1L272.27 111.5V108.25L309.67 106.78V110.1Z" fill="#C4C1BE"/>
<path d="M309.67 124.59L272.26 125.66V122.41L309.67 121.27V124.59Z" fill="#C4C1BE"/>
<path d="M309.66 139.08L272.26 139.82V136.57L309.66 135.76V139.08Z" fill="#C4C1BE"/>
<path d="M351.6 98.27C351.6 99.76 350.39 101.01 348.9 101.07C347.41 101.13 346.21 99.98 346.21 98.5C346.21 97.02 347.41 95.76 348.9 95.7C350.39 95.63 351.6 96.78 351.6 98.27Z" fill="#84817D"/>
<path d="M329.27 78.34C329.27 81.02 327.12 83.3 324.48 83.44C321.84 83.58 319.72 81.54 319.72 78.87C319.72 76.21 321.85 73.92 324.49 73.77C327.12 73.62 329.27 75.67 329.27 78.34Z" fill="#549BEF"/>
<path d="M329.26 92.93C329.26 95.61 327.11 97.87 324.47 97.99C321.83 98.11 319.71 96.04 319.71 93.38C319.71 90.72 321.84 88.45 324.48 88.32C327.11 88.19 329.26 90.25 329.26 92.93Z" fill="#C4C1BE"/>
<path d="M329.26 107.51C329.26 110.19 327.11 112.43 324.47 112.53C321.83 112.62 319.71 110.54 319.71 107.88C319.71 105.22 321.84 102.97 324.48 102.86C327.11 102.76 329.26 104.84 329.26 107.51Z" fill="#549BEF"/>
<path d="M329.25 122.1C329.25 124.78 327.1 127.01 324.46 127.08C321.82 127.15 319.7 125.05 319.7 122.39C319.7 119.73 321.83 117.5 324.47 117.41C327.1 117.32 329.25 119.42 329.25 122.1Z" fill="#C4C1BE"/>
<path d="M329.25 136.68C329.25 139.36 327.1 141.57 324.46 141.61C321.82 141.66 319.7 139.54 319.7 136.88C319.7 134.22 321.83 132.01 324.47 131.95C327.1 131.89 329.25 134.01 329.25 136.68Z" fill="#C4C1BE"/>
<path d="M443.01 242.63L375.45 239.92C373.36 239.84 371.66 238.1 371.66 236.05L371.69 153.04C371.69 150.99 373.38 149.3 375.48 149.28L418.98 148.71C420.01 148.7 421 149.06 421.74 149.74L445.87 171.5C446.68 172.23 447.14 173.24 447.14 174.3L447.12 238.92C447.12 241.06 445.28 242.72 443.01 242.63Z" fill="#8DBCF4"/>
<path d="M445.88 171.5L421.75 149.74C421.4 149.43 421 149.19 420.57 149.02L420.56 168.83C420.56 170.95 422.36 172.68 424.59 172.68L446.76 172.7C446.55 172.25 446.26 171.84 445.88 171.5Z" fill="#CAE0FA"/>
<path d="M432.33 201.53C432.33 213.99 421.75 223.77 408.88 223.39C396.2 223.01 386.06 212.87 386.06 200.75C386.06 188.62 396.21 178.83 408.89 178.88C421.76 178.93 432.33 189.08 432.33 201.53Z" fill="#908D89"/>
<path d="M408.9 178.88C396.22 178.83 386.07 188.62 386.07 200.75C386.07 212.88 396.21 223.02 408.89 223.39C421.76 223.77 432.33 213.99 432.34 201.53L408.9 201.13V178.88Z" fill="#F8B84F"/>
<path d="M408.89 201.13L427.15 215.45C430.38 211.68 432.33 206.85 432.33 201.53L408.89 201.13Z" fill="#FDD696"/>
<path d="M417.57 180.54C414.88 179.49 411.96 178.89 408.9 178.88L408.89 201.14L417.57 180.54Z" fill="white"/>
<path d="M536.24 75.4L489.07 133.9L481.07 128.51L527.82 70.14L536.24 75.4Z" fill="#F7B548"/>
<path d="M489.07 133.9L479.44 137.88L481.07 128.51L489.07 133.9Z" fill="#C4C1BE"/>
<path d="M484.15 135.93L479.44 137.88L480.24 133.28L484.15 135.93Z" fill="#797673"/>
<path d="M536.29 75.34L489.07 133.9L485.98 131.82L533.04 73.3L536.29 75.34Z" fill="#EBA841"/>
<path d="M527.71 70.28L531.55 65.49C532.16 64.72 533.32 64.51 534.14 65.02L539.64 68.43C540.46 68.94 540.62 69.97 540 70.74L536.13 75.54L527.71 70.28Z" fill="#9C9894"/>
<path d="M272.97 147.55L151.91 149.36C150.31 149.38 149.01 147.94 149.01 146.13L149.03 97.67C149.03 95.86 150.33 94.33 151.93 94.24L272.99 87.93C274.87 87.83 276.4 89.35 276.4 91.31L276.38 143.95C276.38 145.91 274.85 147.53 272.97 147.55Z" fill="#C4C1BE"/>
<path d="M206.89 137L264.05 135.72L264.06 100.27L206.91 102.82L206.89 137Z" fill="white"/>
<path d="M221.15 115.98L211.58 136.89L260.48 135.8L250.82 113.7L241.26 135.15L231.11 135.39L221.15 115.98Z" fill="#CAE0FA"/>
<path d="M236.18 106.87L225.28 136.59L248.6 136.06L236.18 106.87Z" fill="#3E8EED"/>
<path d="M193.73 108.06L160.29 109.45C159.47 109.48 158.81 108.77 158.81 107.85C158.81 106.93 159.47 106.16 160.29 106.12L193.73 104.65C194.59 104.61 195.28 105.34 195.28 106.28C195.28 107.24 194.58 108.03 193.73 108.06Z" fill="white"/>
<path d="M193.73 117.13L160.29 118.32C159.47 118.35 158.81 117.63 158.81 116.71C158.81 115.79 159.47 115.02 160.29 114.99L193.73 113.72C194.59 113.69 195.28 114.42 195.28 115.36C195.28 116.32 194.58 117.1 193.73 117.13Z" fill="white"/>
<path d="M185.33 126.45L160.29 127.19C159.47 127.21 158.81 126.49 158.81 125.57C158.81 124.65 159.47 123.89 160.29 123.86L185.33 123.06C186.18 123.03 186.86 123.77 186.86 124.7C186.86 125.65 186.17 126.43 185.33 126.45Z" fill="white"/>
<path d="M175.9 231.46L116.23 229.08C114.38 229.01 112.89 227.22 112.89 225.08L112.92 138.76C112.92 136.63 114.41 134.86 116.26 134.81L154.65 133.84C155.56 133.82 156.43 134.19 157.09 134.88L178.42 157.33C179.14 158.09 179.54 159.14 179.54 160.24L179.51 227.55C179.54 229.79 177.91 231.54 175.9 231.46Z" fill="#77E3FB"/>
<path d="M178.44 157.34L157.11 134.89C156.81 134.57 156.45 134.32 156.07 134.15L156.06 154.77C156.06 156.98 157.65 158.76 159.62 158.74L179.23 158.57C179.04 158.11 178.78 157.69 178.44 157.34Z" fill="#22B5D6"/>
<path d="M165.44 184.78L171.22 184.83L171.21 216.65L165.43 216.47L165.44 184.78Z" fill="#1595B2"/>
<path d="M157.24 180.69L162.95 180.73L162.94 216.4L157.22 216.23L157.24 180.69Z" fill="#22B5D6"/>
<path d="M149.11 198.36L154.77 198.46L154.76 216.15L149.11 215.98V198.36Z" fill="#1595B2"/>
<path d="M141.09 192.68L146.68 192.76L146.67 215.91L141.08 215.74L141.09 192.68Z" fill="#22B5D6"/>
<path d="M133.14 201.5L138.67 201.61V215.67L133.13 215.5L133.14 201.5Z" fill="#1595B2"/>
<path d="M125.28 206.81L130.75 206.94V215.43L125.28 215.26V206.81Z" fill="#22B5D6"/>
<path d="M147.99 170.4L119.85 170.42C119.27 170.42 118.81 169.88 118.81 169.22C118.81 168.55 119.28 168.01 119.85 168.01L147.99 167.94C148.59 167.94 149.08 168.49 149.08 169.17C149.08 169.85 148.59 170.4 147.99 170.4Z" fill="#9C9894"/>
<path d="M147.99 177.78L119.85 177.66C119.27 177.66 118.81 177.12 118.81 176.45C118.81 175.78 119.28 175.25 119.85 175.25L147.99 175.32C148.59 175.32 149.08 175.87 149.08 176.55C149.07 177.23 148.59 177.78 147.99 177.78Z" fill="#9C9894"/>
<path d="M147.98 185.16L119.84 184.9C119.26 184.89 118.8 184.35 118.8 183.69C118.8 183.02 119.27 182.49 119.84 182.49L147.98 182.7C148.58 182.7 149.07 183.26 149.07 183.94C149.07 184.62 148.58 185.16 147.98 185.16Z" fill="#9C9894"/>
<path d="M288.38 199.12C288.37 223.17 269.72 241.84 247.32 240.86C225.53 239.9 208.31 220.61 208.32 197.75C208.33 174.89 225.56 156.19 247.35 155.98C269.75 155.75 288.39 175.07 288.38 199.12Z" fill="#F8B84F"/>
<path d="M254.66 167.74L240.83 169.51C240.6 169.54 240.42 169.75 240.42 170L240.4 223.28C240.4 223.53 240.58 223.75 240.82 223.78L254.55 225.54C254.83 225.58 255.06 225.36 255.06 225.06L255.18 168.22C255.18 167.93 254.93 167.7 254.66 167.74Z" fill="#1572E0"/>
<path d="M245.55 174.77L235.74 175.91C235.43 175.95 235.2 176.22 235.2 176.56L235.18 222.5C235.18 222.82 235.4 223.1 235.69 223.16L246.7 225.25C247.06 225.32 247.39 225.06 247.42 224.67C247.73 219.38 248.19 186.38 247.82 182.34C247.51 178.92 246.58 176.22 246.19 175.19C246.09 174.9 245.83 174.74 245.55 174.77Z" fill="#84817D"/>
<path d="M255.06 225.55L265.59 225.91C266.84 225.95 267.86 224.92 267.86 223.61L267.88 170.07C267.88 168.76 266.86 167.69 265.61 167.7L255.08 167.72C253.85 167.72 252.85 168.78 252.85 170.08L252.83 223.11C252.82 224.42 253.82 225.51 255.06 225.55Z" fill="#4995EE"/>
<path d="M246.87 225.27L251.56 225.43C252.25 225.45 252.81 224.88 252.81 224.15L252.83 175.98C252.83 175.25 252.27 174.66 251.58 174.66L246.89 174.65C246.21 174.65 245.65 175.23 245.65 175.96L245.63 223.91C245.64 224.64 246.19 225.25 246.87 225.27Z" fill="#B3AFAB"/>
<path d="M237.49 224.18L228.35 224.06C228.11 224.05 227.88 224.01 227.65 223.94L219.55 221.52L235.19 221.53L237.49 224.18Z" fill="#C4832D"/>
<path d="M234.69 184.92L227.52 185.63C227.26 185.66 227.05 185.85 226.99 186.12L219.09 220.71C219 221.12 219.29 221.52 219.68 221.53L228.78 221.71C229.07 221.72 229.32 221.5 229.37 221.19L235.35 185.69C235.43 185.27 235.09 184.88 234.69 184.92Z" fill="#E29E3B"/>
<path d="M229.05 222.17L236.64 224.13C237.52 224.36 238.38 223.79 238.57 222.85L245.32 188.92C245.51 187.98 244.94 187.05 244.05 186.84L236.39 185.05C235.51 184.85 234.65 185.44 234.47 186.37L227.81 220.08C227.62 221.01 228.18 221.94 229.05 222.17Z" fill="white"/>
<path d="M233.65 202.69L239.64 204.16C240.03 204.26 240.41 204 240.49 203.58L242.87 191.74C242.95 191.33 242.7 190.92 242.31 190.82L236.3 189.4C235.91 189.31 235.53 189.57 235.45 189.98L233.09 201.76C233.02 202.19 233.26 202.6 233.65 202.69Z" fill="#FBC977"/>
<path d="M252.84 185.99V172.01L267.88 172.02L267.87 186.12L252.84 185.99Z" fill="#A3C9F6"/>
<path d="M247.13 191.26V183.4L251.49 183.43L251.48 191.32L247.13 191.26Z" fill="white"/>
<path d="M347.35 277.21L283.11 273.16C281.12 273.03 279.51 271.26 279.51 269.2L279.54 185.77C279.54 183.71 281.15 182.05 283.14 182.06L324.5 182.33C325.48 182.34 326.42 182.72 327.13 183.41L350.08 205.75C350.85 206.5 351.29 207.53 351.29 208.59L351.27 273.55C351.26 275.71 349.5 277.35 347.35 277.21Z" fill="#9C9894"/>
<path d="M350.07 205.76L327.12 183.42C326.79 183.1 326.41 182.85 326 182.67V202.58C326 204.72 327.71 206.48 329.83 206.53L350.91 206.98C350.71 206.52 350.44 206.11 350.07 205.76Z" fill="#C4C1BE"/>
<path d="M303.98 244.77C303.98 246.22 304.39 247.29 305.2 247.98C306.01 248.67 307.21 249.07 308.79 249.17V252.17C306.14 252.01 304.1 251.29 302.65 250.01C301.21 248.73 300.49 247 300.49 244.82V238.37C300.49 236.89 300.06 235.82 299.19 235.16C298.32 234.5 297.06 234.13 295.41 234.07V231.08C297.2 231.12 298.49 230.83 299.29 230.2C300.09 229.58 300.49 228.58 300.49 227.22V220.71C300.49 218.51 301.24 216.82 302.74 215.64C304.24 214.46 306.26 213.9 308.8 213.96V216.93C305.59 216.93 303.99 218.3 303.99 221.04V227.33C303.99 230.39 302.44 232.14 299.36 232.57V232.83C302.45 233.5 303.99 235.37 303.99 238.42L303.98 244.77Z" fill="white"/>
<path d="M313.48 224.23C313.48 222.3 314.31 221.36 315.97 221.41C317.7 221.46 318.57 222.46 318.57 224.4C318.57 225.33 318.34 226.04 317.87 226.53C317.4 227.02 316.77 227.25 315.96 227.22C315.24 227.2 314.65 226.95 314.18 226.48C313.72 226.01 313.48 225.26 313.48 224.23ZM313.47 243.17C313.47 242.21 313.68 241.49 314.11 241.02C314.54 240.54 315.16 240.32 315.96 240.36C316.78 240.39 317.42 240.67 317.87 241.18C318.33 241.69 318.56 242.43 318.56 243.39C318.56 244.32 318.33 245.03 317.86 245.51C317.39 245.99 316.76 246.21 315.95 246.18C315.23 246.15 314.64 245.9 314.17 245.42C313.71 244.96 313.47 244.21 313.47 243.17Z" fill="white"/>
<path d="M332.99 233.84C329.79 233.16 328.19 231.26 328.19 228.16V221.77C328.19 218.99 326.57 217.5 323.34 217.33V214.33C325.96 214.4 328.03 215.08 329.54 216.38C331.05 217.68 331.81 219.44 331.81 221.65V228.29C331.81 229.69 332.23 230.74 333.08 231.43C333.93 232.12 335.29 232.51 337.17 232.61V235.68C335.41 235.61 334.07 235.88 333.17 236.49C332.26 237.1 331.81 238.15 331.81 239.66V246.23C331.81 248.44 331.07 250.13 329.6 251.3C328.13 252.46 326.04 252.99 323.34 252.89V249.87C324.92 249.92 326.12 249.63 326.95 249C327.78 248.37 328.19 247.33 328.19 245.85V239.42C328.19 237.77 328.58 236.53 329.37 235.7C330.16 234.86 331.36 234.33 332.99 234.1V233.84Z" fill="white"/>
</svg>
