<svg width="636" height="300" viewBox="0 0 636 300" fill="none" xmlns="http://www.w3.org/2000/svg">
<path d="M413.5 227.15L207.53 232.2C203.66 232.29 200.51 229.57 200.51 226.12V85.87C200.51 82.42 203.66 79.81 207.53 80.05L413.5 92.54C416.52 92.72 418.95 95.33 418.95 98.36V221.53C418.96 224.56 416.52 227.08 413.5 227.15Z" fill="#B3AFAB"/>
<path d="M415.99 227.09L210.71 232.12C206.85 232.21 203.71 229.5 203.71 226.05V86.05C203.71 82.6 206.85 80 210.71 80.24L415.99 92.69C419 92.87 421.43 95.47 421.43 98.5V221.48C421.42 224.5 418.99 227.02 415.99 227.09Z" fill="#625F5B"/>
<path d="M410.68 214.36L217.44 217.53C216.39 217.55 215.54 216.8 215.54 215.86V91.14C215.54 90.2 216.39 89.48 217.44 89.54L410.68 100.29C411.51 100.34 412.19 101.05 412.19 101.89V212.81C412.19 213.66 411.51 214.35 410.68 214.36Z" fill="#33D5F9"/>
<path d="M474.29 247.08C474.29 245.48 474.29 244.45 474.29 243.92C474.29 243.49 419.97 229.7 419.97 229.7L206.13 231.17V233.4C206.13 233.4 206.18 235.36 208.5 236.06C210.81 236.76 272.26 255.05 272.26 255.05C275.39 255.98 278.69 256.39 281.99 256.26L472.83 248.7C474.04 248.64 474.32 248.07 474.29 247.08Z" fill="#9C9894"/>
<path d="M473.24 245.12L282 252.25C278.69 252.37 275.4 251.96 272.27 251.02L206.02 231.13L419.97 226.02L473.58 242.93C474.72 243.29 474.45 245.07 473.24 245.12Z" fill="#CCCAC7"/>
<path d="M312 110.64L240.49 107.33C235.62 107.1 231.65 103.33 231.65 98.91V51.45C231.65 47.02 235.62 43.76 240.49 44.16L312 50.05C316.46 50.42 320.05 54.12 320.05 58.32V103.4C320.05 107.6 316.46 110.84 312 110.64Z" fill="#84817D"/>
<path d="M260.15 62.66C259.19 62.83 258.24 63.06 257.29 63.35C256 63.75 254.79 64.26 253.67 64.86L255.35 69.03C254.22 69.74 253.23 70.57 252.37 71.5L247.25 70.37C245.96 72.15 245.04 74.13 244.53 76.23L249 78.58C248.81 79.99 248.85 81.45 249.16 82.91C248 83.47 246.05 84.35 244.8 84.92C245.05 85.77 245.37 86.61 245.77 87.45C246.31 88.6 246.97 89.68 247.72 90.69L252.5 89.51C253.45 90.6 254.55 91.57 255.76 92.38L254.66 96.69C256.79 97.87 259.11 98.72 261.53 99.22L264.15 95.44C265.51 95.59 266.89 95.59 268.26 95.44L270.74 99.29C271.74 99.1 272.72 98.84 273.7 98.52C275.03 98.07 276.26 97.52 277.4 96.87L275.7 92.8C276.83 92.05 277.82 91.18 278.66 90.21L283.39 91.5C284.7 89.65 285.62 87.59 286.09 85.42C284.73 84.8 282.82 83.91 281.75 83.39C281.91 82.13 281.89 80.83 281.66 79.53L285.9 77.69C285.64 76.71 285.29 75.72 284.84 74.75C284.29 73.55 283.61 72.42 282.84 71.37L278.4 72.72C277.43 71.57 276.3 70.56 275.04 69.71L276.37 65.63C274.37 64.46 272.17 63.57 269.87 63.01L267.65 66.75C266.01 66.47 264.32 66.41 262.64 66.58L260.15 62.66ZM274.1 78.23C276.08 82.49 273.86 87.19 269.14 88.75C264.39 90.32 258.89 88.12 256.88 83.83C254.86 79.53 257.12 74.78 261.91 73.25C266.67 71.73 272.12 73.97 274.1 78.23Z" fill="white"/>
<path d="M290.6 55.53C290.09 55.62 289.58 55.74 289.07 55.9C288.38 56.12 287.74 56.39 287.14 56.71L288.04 58.98C287.44 59.36 286.91 59.81 286.45 60.31L283.73 59.68C283.05 60.64 282.56 61.71 282.29 62.85L284.66 64.15C284.56 64.92 284.58 65.71 284.74 66.5C284.12 66.8 283.09 67.27 282.42 67.57C282.56 68.03 282.72 68.49 282.93 68.95C283.22 69.58 283.57 70.17 283.97 70.72L286.51 70.11C287.02 70.71 287.6 71.24 288.25 71.69L287.66 74.03C288.79 74.69 290.04 75.17 291.33 75.45L292.74 73.41C293.47 73.5 294.21 73.51 294.95 73.44L296.28 75.56C296.82 75.46 297.35 75.33 297.87 75.16C298.58 74.93 299.25 74.63 299.87 74.28L298.95 72.04C299.56 71.64 300.09 71.17 300.55 70.64L303.11 71.38C303.82 70.37 304.32 69.25 304.57 68.06C303.83 67.71 302.8 67.22 302.22 66.92C302.31 66.23 302.3 65.52 302.17 64.8L304.47 63.81C304.33 63.27 304.14 62.73 303.9 62.19C303.6 61.53 303.24 60.91 302.82 60.33L300.42 61.05C299.9 60.42 299.29 59.86 298.61 59.39L299.33 57.16C298.25 56.51 297.07 56.02 295.83 55.72L294.64 57.76C293.76 57.6 292.85 57.56 291.95 57.66L290.6 55.53ZM298.09 64.07C299.15 66.41 297.96 68.96 295.42 69.79C292.87 70.62 289.93 69.39 288.85 67.04C287.77 64.69 288.98 62.12 291.54 61.3C294.1 60.49 297.02 61.73 298.09 64.07Z" fill="white"/>
<path d="M546.05 175.83L492.17 175.36C490 175.34 488.24 173.46 488.24 171.17V132.55C488.24 130.25 490 128.46 492.17 128.55L546.05 130.7C548.06 130.78 549.68 132.63 549.68 134.83V171.87C549.68 174.07 548.06 175.85 546.05 175.83Z" fill="#CCCAC7"/>
<path d="M549.68 139.36V133.29C549.68 131.94 548.68 130.8 547.45 130.75L490.64 128.49C489.31 128.44 488.23 129.54 488.23 130.95V137.28L549.68 139.36Z" fill="#84817D"/>
<path d="M495.26 133.4C495.26 134.35 494.53 135.1 493.63 135.07C492.73 135.04 492 134.24 492 133.28C492 132.33 492.73 131.58 493.63 131.61C494.54 131.64 495.26 132.44 495.26 133.4Z" fill="#CCCAC7"/>
<path d="M501.07 133.61C501.07 134.56 500.35 135.3 499.46 135.27C498.57 135.24 497.84 134.44 497.84 133.49C497.84 132.54 498.56 131.8 499.46 131.83C500.34 131.86 501.07 132.66 501.07 133.61Z" fill="#CCCAC7"/>
<path d="M506.82 133.82C506.82 134.77 506.1 135.51 505.22 135.47C504.33 135.44 503.61 134.65 503.61 133.7C503.61 132.75 504.33 132.01 505.22 132.05C506.11 132.08 506.82 132.88 506.82 133.82Z" fill="#CCCAC7"/>
<path d="M512.84 162.96L499.92 156.64V155.22L512.84 148.65V150.78L502.34 155.86L512.84 160.78V162.96Z" fill="white"/>
<path d="M523.92 145.82L516.73 166.48L514.53 166.45L521.74 145.76L523.92 145.82Z" fill="white"/>
<path d="M525.56 161.04L535.75 156.64L525.56 151.12V149L538.05 156.07V157.45L525.56 163.17V161.04Z" fill="white"/>
<path d="M264.73 193.45L240.89 193.52C237.41 193.53 234.58 196.1 234.58 199.26V217.24L270.82 216.65V199.04C270.82 195.94 268.1 193.44 264.73 193.45Z" fill="#77E3FB"/>
<path d="M309.82 193.32L287.21 193.39C283.91 193.4 281.23 195.9 281.23 198.98V216.49L315.6 215.93V198.77C315.6 195.75 313.02 193.31 309.82 193.32Z" fill="#E8FAFE"/>
<path d="M352.62 193.2L331.16 193.26C328.03 193.27 325.49 195.71 325.49 198.7V215.76L358.12 215.23V198.5C358.11 195.56 355.66 193.19 352.62 193.2Z" fill="#29C3E5"/>
<path d="M393.3 193.08L372.89 193.14C369.92 193.15 367.5 195.52 367.5 198.45V215.08L398.52 214.57V198.26C398.53 195.39 396.19 193.07 393.3 193.08Z" fill="#77E3FB"/>
<path d="M309.82 154.14L287.21 153.68C283.91 153.61 281.23 156.05 281.23 159.13V180.55C281.23 183.63 283.91 186.12 287.21 186.13L309.82 186.16C313.02 186.16 315.6 183.72 315.6 180.71V159.72C315.6 156.7 313.02 154.21 309.82 154.14Z" fill="#29C3E5"/>
<path d="M352.62 155.01L331.16 154.57C328.03 154.51 325.49 156.88 325.49 159.88V180.75C325.49 183.75 328.04 186.18 331.16 186.18L352.62 186.21C355.66 186.21 358.11 183.84 358.11 180.9V160.44C358.11 157.51 355.66 155.07 352.62 155.01Z" fill="#77E3FB"/>
<path d="M393.3 155.84L372.89 155.42C369.92 155.36 367.5 157.68 367.5 160.6V180.94C367.5 183.86 369.92 186.23 372.89 186.24L393.3 186.27C396.19 186.27 398.52 183.95 398.52 181.09V161.14C398.53 158.27 396.19 155.9 393.3 155.84Z" fill="#BBF1FD"/>
<path d="M352.62 116.83L331.16 115.89C328.03 115.75 325.49 118.07 325.49 121.07V141.94C325.49 144.94 328.04 147.43 331.16 147.51L352.62 148.04C355.66 148.11 358.11 145.79 358.11 142.85V122.39C358.11 119.45 355.66 116.96 352.62 116.83Z" fill="#A4ECFC"/>
<path d="M393.3 118.6L372.89 117.71C369.92 117.58 367.5 119.84 367.5 122.76V143.1C367.5 146.02 369.92 148.45 372.89 148.52L393.3 149.02C396.19 149.09 398.52 146.83 398.52 143.96V124.01C398.53 121.15 396.19 118.73 393.3 118.6Z" fill="#29C3E5"/>
<path d="M410.25 239.36C410.25 255.52 397.09 269.3 380.56 270.13C363.68 270.99 349.73 258.09 349.73 241.3C349.73 224.51 363.68 210.72 380.56 210.49C397.09 210.27 410.25 223.2 410.25 239.36Z" fill="#1FB1D1"/>
<path d="M372.37 251.28L369.04 251.41V231.29L380.56 230.99V233.75L372.37 233.98V240.26L380.05 240.01V242.78L372.37 243.04V251.28Z" fill="white"/>
<path d="M395.14 238.62L394.39 242.49L398.06 242.37V244.64L393.94 244.79L392.85 250.5L390.42 250.59L391.51 244.87L388.11 244.99L387.01 250.72L384.61 250.81L385.66 245.08L382.21 245.2V242.91L386.12 242.78L386.9 238.89L383.26 239V236.71L387.3 236.59L388.4 230.82L390.87 230.75L389.77 236.51L393.22 236.41L394.31 230.66L396.68 230.6L395.59 236.34L399.01 236.24V238.51L395.14 238.62ZM388.53 242.69L391.95 242.57L392.73 238.69L389.31 238.8L388.53 242.69Z" fill="white"/>
<path d="M464.23 142.53C464.23 158.14 451.96 170.66 436.54 170.48C420.81 170.3 407.83 157.03 407.83 140.84C407.83 124.65 420.81 112.16 436.54 112.92C451.96 113.67 464.23 126.92 464.23 142.53Z" fill="#3E8EED"/>
<path d="M430.92 134.02C429.13 133.96 427.72 134.55 426.69 135.81C425.66 137.07 425.14 138.84 425.14 141.11C425.14 143.49 425.64 145.31 426.63 146.56C427.62 147.81 429.05 148.45 430.92 148.5C431.73 148.52 432.51 148.46 433.26 148.32C434.01 148.18 434.79 147.99 435.6 147.75V150.46C434.12 151 432.43 151.24 430.54 151.2C427.75 151.13 425.6 150.22 424.1 148.46C422.59 146.7 421.84 144.21 421.84 140.99C421.84 138.97 422.21 137.21 422.94 135.71C423.67 134.22 424.73 133.09 426.11 132.34C427.49 131.58 429.1 131.24 430.95 131.31C432.89 131.38 434.68 131.86 436.32 132.75L435.21 135.34C434.57 135.01 433.9 134.72 433.18 134.46C432.46 134.19 431.71 134.05 430.92 134.02Z" fill="white"/>
<path d="M449.84 140.01L449.14 143.7L452.56 143.8V146L448.72 145.89L447.7 151.34L445.43 151.29L446.45 145.84L443.28 145.75L442.26 151.21L440.03 151.16L441.01 145.69L437.79 145.6V143.39L441.43 143.5L442.16 139.79L438.77 139.68V137.47L442.53 137.59L443.55 132.08L445.85 132.16L444.83 137.66L448.04 137.77L449.06 132.28L451.27 132.36L450.26 137.84L453.45 137.94V140.13L449.84 140.01ZM443.68 143.55L446.87 143.64L447.6 139.94L444.41 139.84L443.68 143.55Z" fill="white"/>
<path d="M483.69 179.96C483.69 194.04 472.77 205.57 459.09 205.73C445.16 205.89 433.68 194.23 433.68 179.68C433.68 165.14 445.16 153.61 459.09 153.92C472.78 154.22 483.69 165.88 483.69 179.96Z" fill="#F7B548"/>
<path d="M474.26 168.67L469.48 173.44L465.98 169.62L470.77 164.87C469.95 164.47 469.04 164.23 468.08 164.2C464.27 164.07 461.12 167.18 461.05 171.15C461.03 172.14 461.21 173.09 461.55 173.96C458.3 176.71 447.5 186.43 444.68 189.22C441.27 192.6 446.64 199.15 450.87 194.74C454.17 191.3 462.32 181.45 465.29 177.94C466.07 178.29 466.93 178.49 467.83 178.51C471.62 178.61 474.73 175.49 474.8 171.55C474.81 170.54 474.62 169.56 474.26 168.67ZM447.73 194.09C446.57 194.07 445.65 193.09 445.67 191.9C445.69 190.71 446.65 189.76 447.8 189.78C448.95 189.8 449.87 190.78 449.85 191.96C449.84 193.16 448.89 194.11 447.73 194.09Z" fill="white"/>
<path d="M169.39 103.7C169.39 122.3 153.32 136.88 133.07 136.27C112.33 135.64 95.14 119.38 95.14 99.96C95.14 80.54 112.33 66.01 133.07 67.47C153.32 68.9 169.39 85.11 169.39 103.7Z" fill="#F7B548"/>
<path d="M128.96 91.36L133.19 91.6L124.44 114.27L120.1 114.08L111.25 90.36L115.53 90.6L120.81 105.33C121.09 106.03 121.38 106.93 121.69 108.03C122 109.13 122.2 109.94 122.29 110.48C122.44 109.68 122.67 108.76 122.98 107.72C123.29 106.68 123.54 105.91 123.74 105.41L128.96 91.36Z" fill="white"/>
<path d="M136.47 91.78L143.79 92.19C147.16 92.38 149.59 92.98 151.09 93.97C152.58 94.97 153.33 96.45 153.33 98.43C153.33 99.76 152.96 100.85 152.23 101.69C151.5 102.54 150.44 103.04 149.06 103.2V103.36C150.77 103.75 152.03 104.4 152.83 105.33C153.63 106.26 154.03 107.48 154.03 108.99C154.03 111.04 153.27 112.6 151.75 113.69C150.22 114.78 148.1 115.27 145.36 115.15L136.46 114.77V91.78H136.47ZM140.5 101.49L144.37 101.69C146.05 101.78 147.27 101.59 148.04 101.13C148.81 100.68 149.19 99.85 149.19 98.67C149.19 97.6 148.78 96.8 147.95 96.28C147.12 95.76 145.8 95.44 143.99 95.34L140.51 95.15V101.49H140.5ZM140.5 104.53V111.8L144.77 111.99C146.45 112.07 147.71 111.82 148.56 111.26C149.41 110.7 149.84 109.78 149.84 108.48C149.84 107.29 149.41 106.39 148.54 105.78C147.67 105.16 146.35 104.81 144.57 104.73L140.5 104.53Z" fill="white"/>
<path d="M229.02 129.23L187.94 137.07L188.06 181.76C187.04 180.77 185.6 181.18 184.12 181.15C182.66 181.12 181.46 179.51 180.44 180.43L180.35 136.69L138.4 124.31L138.46 178.42L178.73 186.75C180.04 188.98 181.65 189.75 184.13 189.79C186.6 189.83 188.28 189 189.49 186.95L228.98 180.4L229.02 129.23Z" fill="#1572E0"/>
<path d="M223.21 124.37C223.21 124.37 193.05 128.22 189.29 129.28C185.52 130.34 183.97 132.94 184.08 138.07C184.19 143.2 184.08 181.56 184.08 181.56L223.82 174.48L223.21 124.37Z" fill="#CAE0FA"/>
<path d="M145.18 119.93C145.18 119.93 175.15 127.23 178.98 128.71C182.79 130.18 184.34 132.95 184.23 138.07C184.12 143.19 184.09 181.55 184.09 181.55L144.2 172.68L145.18 119.93Z" fill="#A3C9F6"/>
<path d="M176.9 138.08C176.85 138.08 176.81 138.07 176.76 138.06L152.57 131.99C152.16 131.89 151.89 131.46 151.97 131.04C152.05 130.62 152.46 130.37 152.86 130.47L177.04 136.56C177.44 136.66 177.7 137.08 177.62 137.49C177.55 137.86 177.25 138.1 176.9 138.08Z" fill="#B3AFAB"/>
<path d="M176.9 145.34C176.85 145.34 176.81 145.33 176.76 145.32L152.57 139.36C152.16 139.26 151.89 138.84 151.97 138.42C152.05 138 152.46 137.74 152.86 137.84L177.04 143.82C177.44 143.92 177.7 144.33 177.62 144.75C177.55 145.11 177.25 145.35 176.9 145.34Z" fill="#B3AFAB"/>
<path d="M176.9 152.6C176.85 152.6 176.81 152.59 176.76 152.58L152.57 146.74C152.16 146.64 151.89 146.22 151.97 145.8C152.05 145.38 152.46 145.12 152.86 145.22L177.04 151.08C177.44 151.18 177.7 151.59 177.62 152C177.55 152.37 177.25 152.61 176.9 152.6Z" fill="#B3AFAB"/>
<path d="M176.9 159.85C176.85 159.85 176.81 159.84 176.76 159.83L152.57 154.1C152.16 154 151.89 153.58 151.97 153.16C152.05 152.74 152.46 152.47 152.86 152.58L177.04 158.33C177.44 158.42 177.7 158.84 177.62 159.25C177.55 159.62 177.25 159.86 176.9 159.85Z" fill="#B3AFAB"/>
<path d="M191.23 138.77C191.28 138.77 191.32 138.77 191.37 138.76L216.08 135.11C216.46 135.05 216.71 134.67 216.63 134.26C216.56 133.85 216.17 133.56 215.81 133.62L191.09 137.25C190.7 137.31 190.44 137.7 190.52 138.12C190.59 138.49 190.89 138.76 191.23 138.77Z" fill="#B3AFAB"/>
<path d="M191.23 145.96C191.28 145.96 191.32 145.96 191.37 145.95L216.08 142.19C216.46 142.13 216.71 141.75 216.63 141.34C216.56 140.93 216.17 140.65 215.81 140.71L191.09 144.45C190.7 144.51 190.44 144.9 190.52 145.32C190.59 145.68 190.89 145.95 191.23 145.96Z" fill="#B3AFAB"/>
<path d="M191.23 153.15C191.28 153.15 191.32 153.15 191.37 153.14L216.08 149.27C216.46 149.21 216.71 148.82 216.63 148.41C216.56 148 216.17 147.71 215.81 147.78L191.09 151.63C190.7 151.69 190.44 152.08 190.52 152.5C190.59 152.87 190.89 153.14 191.23 153.15Z" fill="#B3AFAB"/>
<path d="M191.23 160.34C191.28 160.34 191.32 160.34 191.37 160.33L216.08 156.35C216.46 156.29 216.71 155.9 216.63 155.49C216.56 155.08 216.17 154.8 215.81 154.87L191.09 158.83C190.7 158.9 190.44 159.29 190.52 159.7C190.59 160.06 190.89 160.33 191.23 160.34Z" fill="#B3AFAB"/>
<path d="M181.37 182.48C182.24 181.94 183.26 181.63 184.35 181.65C185.36 181.67 186.3 181.98 187.12 182.47L224.76 176.1L225.08 129.78L223.12 124.36L222.92 172.58C222.92 172.58 191.79 178.06 189.09 178.66C186.38 179.26 184.16 181.5 184.16 181.5C184.16 181.5 183.09 179.56 179.66 178.57C176.21 177.57 145.21 171.37 145.21 171.37L145.29 120.05L143.05 125.78L143.18 174.84L181.37 182.48Z" fill="#4995EE"/>
</svg>
