<svg width="636" height="300" viewBox="0 0 636 300" fill="none" xmlns="http://www.w3.org/2000/svg">
<path d="M341.48 253.94C403.413 253.94 453.62 251.106 453.62 247.61C453.62 244.114 403.413 241.28 341.48 241.28C279.547 241.28 229.34 244.114 229.34 247.61C229.34 251.106 279.547 253.94 341.48 253.94Z" fill="#D5D3D0"/>
<path d="M150.56 283.19C212.493 283.19 262.7 280.356 262.7 276.86C262.7 273.364 212.493 270.53 150.56 270.53C88.6267 270.53 38.4199 273.364 38.4199 276.86C38.4199 280.356 88.6267 283.19 150.56 283.19Z" fill="#D5D3D0"/>
<path d="M537.83 241.26C536.48 238.84 533.01 234.08 533.01 234.08H519.89L515.86 240.39C515.35 241 515.01 241.9 515.01 242.95C515.01 244.78 515.98 246.27 517.19 246.27H535.9C537.1 246.27 538.08 244.78 538.08 242.95C538.06 242.37 537.85 241.3 537.83 241.26Z" fill="#E29E3B"/>
<path d="M574.01 241.26C572.66 238.84 569.19 234.08 569.19 234.08H556.07L552.04 240.39C551.53 241 551.19 241.9 551.19 242.95C551.19 244.78 552.16 246.27 553.37 246.27H572.08C573.28 246.27 574.26 244.78 574.26 242.95C574.25 242.37 574.03 241.3 574.01 241.26Z" fill="#E29E3B"/>
<path d="M558.07 241.26C556.72 238.84 553.25 234.08 553.25 234.08H540.13L536.1 240.39C535.59 241 535.25 241.9 535.25 242.95C535.25 244.78 536.22 246.27 537.43 246.27H556.14C557.34 246.27 558.32 244.78 558.32 242.95C558.3 242.37 558.09 241.3 558.07 241.26Z" fill="#F7B548"/>
<path d="M594.25 241.26C592.9 238.84 589.43 234.08 589.43 234.08H576.31L572.28 240.39C571.77 241 571.43 241.9 571.43 242.95C571.43 244.78 572.4 246.27 573.61 246.27H592.32C593.52 246.27 594.5 244.78 594.5 242.95C594.49 242.37 594.27 241.3 594.25 241.26Z" fill="#F7B548"/>
<path d="M258.35 199.64H250.06V201.5H258.35V199.64Z" fill="#797672"/>
<path d="M292.9 199.64H284.61V201.5H292.9V199.64Z" fill="#797672"/>
<path d="M391.69 153.83H279.71V199.81H391.69V153.83Z" fill="#F7B548"/>
<path d="M245.246 199.802H279.716V153.822H245.246V199.802Z" fill="#FDD696"/>
<path d="M259.41 174.31V177.41H264.53V178.78H265.8V174.31H259.41Z" fill="#E29E3B"/>
<path d="M291.03 158.37H287.99V195.24H291.03V158.37Z" fill="#E29E3B"/>
<path d="M300.3 158.37H297.26V195.24H300.3V158.37Z" fill="#E29E3B"/>
<path d="M309.57 158.37H306.53V195.24H309.57V158.37Z" fill="#E29E3B"/>
<path d="M318.84 158.37H315.8V195.24H318.84V158.37Z" fill="#E29E3B"/>
<path d="M328.12 158.37H325.08V195.24H328.12V158.37Z" fill="#E29E3B"/>
<path d="M337.39 158.37H334.35V195.24H337.39V158.37Z" fill="#E29E3B"/>
<path d="M346.66 158.37H343.62V195.24H346.66V158.37Z" fill="#E29E3B"/>
<path d="M355.93 158.37H352.89V195.24H355.93V158.37Z" fill="#E29E3B"/>
<path d="M365.21 158.37H362.17V195.24H365.21V158.37Z" fill="#E29E3B"/>
<path d="M374.48 158.37H371.44V195.24H374.48V158.37Z" fill="#E29E3B"/>
<path d="M383.75 158.37H380.71V195.24H383.75V158.37Z" fill="#E29E3B"/>
<path d="M276.49 197.48H247.73V156.11H276.49V157.89H249.51V195.7H276.49V197.48Z" fill="#F7B548"/>
<path d="M258.61 156.13H256.85V197.48H258.61V156.13Z" fill="#FFF2DC"/>
<path d="M268.25 156.13H266.49V197.48H268.25V156.13Z" fill="#FFF2DC"/>
<path d="M387.44 199.64H379.15V201.5H387.44V199.64Z" fill="#797672"/>
<path d="M407.33 62.67H416.68C417.25 62.67 417.71 62.21 417.71 61.64V53.95C417.71 53.27 417.06 52.77 416.4 52.96L407.05 55.6C406.61 55.73 406.3 56.13 406.3 56.59V61.63C406.29 62.21 406.76 62.67 407.33 62.67Z" fill="#84817D"/>
<path d="M421.03 86.88H403.3C402.59 86.88 402.02 87.45 402.02 88.16V92.76C402.02 93.47 402.59 94.04 403.3 94.04H421.03C421.74 94.04 422.31 93.47 422.31 92.76V88.16C422.32 87.46 421.74 86.88 421.03 86.88Z" fill="#84817D"/>
<path d="M560.83 148.93H545.52V200.68H560.83V148.93Z" fill="#9C9894"/>
<path d="M534.15 204.99V226.94L517.53 232.39V238.82H566.83V232.52L548.27 226.81L548.1 205.5L534.15 204.99Z" fill="#BBB8B4"/>
<path d="M537.83 204.99V226.94L521.21 232.39V238.82H570.51V232.52L551.95 226.81L551.78 205.5L537.83 204.99Z" fill="#84817D"/>
<path d="M555.97 204.99V226.94L539.35 232.39V238.82H588.65V232.52L570.09 226.81L569.92 205.5L555.97 204.99Z" fill="#BBB8B4"/>
<path d="M559.65 204.99V226.94L543.03 232.39V238.82H592.33V232.52L573.77 226.81L573.6 205.5L559.65 204.99Z" fill="#84817D"/>
<path d="M86.65 205.56L95.32 215.09C97.21 217.19 97.04 220.41 94.95 222.3C92.85 224.19 89.63 224.02 87.74 221.93L80.71 214.03L86.65 205.56Z" fill="#8A6FE8"/>
<path d="M95.8999 256.78L51.2799 245.66C49.7199 245.27 48.7799 243.69 49.1599 242.14L56.7899 211.51C57.1799 209.95 58.7599 209.01 60.3099 209.39L104.93 220.51C106.49 220.9 107.43 222.48 107.05 224.03L99.4199 254.66C99.0299 256.22 97.4499 257.17 95.8999 256.78Z" fill="#4A4844"/>
<path d="M163.85 230.8C164.04 223.73 163.41 207.53 154.98 193.65L164.07 188.13C173.36 203.44 174.65 221.71 174.55 230.72C169.28 231.91 163.84 231.39 163.85 230.8Z" fill="url(#paint0_linear)"/>
<path d="M161.06 273.43C160.97 274.72 161.95 275.75 163.23 275.75L180.12 275.67L172.26 230.66L163.85 230.7L161.06 273.43Z" fill="#522CD5"/>
<path d="M174.55 230.65L165.88 230.69C165.12 242.3 173.09 260.12 175.78 263.39C177.35 265.3 178.04 266.05 177.9 268.08L177.78 273.67C177.71 274.76 178.53 275.64 179.63 275.64L197.23 275.56C198.2 275.56 199.04 274.76 199.1 273.8L199.45 268.41C199.56 266.65 199.59 264.98 198.13 263.83C184.22 252.85 175.12 237.55 174.55 230.65Z" fill="url(#paint1_linear)"/>
<path d="M199.11 273.8C199.05 274.77 198.2 275.56 197.24 275.56L179.64 275.64C178.55 275.65 177.72 274.77 177.79 273.67L177.91 268.08C177.99 266.78 177.74 266 177.13 265.1L199.08 265C199.56 266 199.54 267.17 199.46 268.4L199.11 273.8Z" fill="url(#paint2_radial)"/>
<path d="M138.37 188.86L127.63 187.52L121.59 236.11L132.33 237.44L138.37 188.86Z" fill="url(#paint3_linear)"/>
<path d="M114.23 273.55C113.98 274.85 114.84 275.9 116.14 275.89L133.23 275.81L130.87 230.3L122.36 230.34L114.23 273.55Z" fill="#522CD5"/>
<path d="M133.17 230.3L124.4 230.34C122.19 242.08 119.91 257.97 119.84 262.91C119.8 265.54 120.1 266.15 119.71 268.2L118.84 273.85C118.63 274.96 119.36 275.85 120.47 275.85L144.91 275.74C145.88 275.74 146.84 274.93 147.02 273.96L148.05 268.51C148.39 266.73 148.42 265.21 147.11 264.02C135.93 253.88 132.9 237.27 133.17 230.3Z" fill="url(#paint4_linear)"/>
<path d="M119.89 265.19L147.89 265.06C148.36 266.05 148.29 267.21 148.05 268.5L147.02 273.95C146.84 274.92 145.89 275.73 144.91 275.73L120.47 275.84C119.36 275.84 118.63 274.95 118.84 273.84L119.71 268.19C119.96 266.91 119.94 266.19 119.89 265.19Z" fill="url(#paint5_radial)"/>
<path d="M218.52 146.85C232.5 129.65 227.94 104.73 227.74 103.68L217.53 105.63C217.57 105.84 221.42 126.81 210.46 140.3C204.41 147.74 194.7 151.63 181.61 151.85L181.78 162.24C198.07 161.97 210.44 156.79 218.52 146.85Z" fill="#8A6FE8"/>
<path d="M201 161C196.95 184.03 178.82 203.07 154.45 207.12C123.56 212.26 94.3598 191.38 89.2198 160.49C84.0798 129.6 104.96 100.4 135.85 95.26C163.26 90.7 189.35 106.64 198.46 131.88L198.39 131.96L195.05 132.51C195.05 132.51 199.32 143.44 197.98 158.24C200.77 158.38 201.07 160.03 201 161Z" fill="url(#paint6_radial)"/>
<path d="M192.11 182.93L110.98 196.42C107.55 193.83 104.41 190.85 101.63 187.53L198.07 171.49C196.52 175.53 194.52 179.36 192.11 182.93Z" fill="#D8CFF7"/>
<path d="M79.8199 211.64L78.0999 222.35C77.6699 225.14 75.0599 227.05 72.2799 226.62C69.4899 226.19 67.5799 223.58 68.0099 220.8L69.6899 210.35L79.8199 211.64Z" fill="#8A6FE8"/>
<path d="M86.6201 212.56L85.1701 223.31C84.8101 226.11 82.2601 228.09 79.4601 227.73C76.6601 227.37 74.6801 224.82 75.0401 222.02L76.4601 211.53L86.6201 212.56Z" fill="#8A6FE8"/>
<path d="M76.7099 210.57L72.8299 220.7C71.8399 223.34 68.8899 224.68 66.2599 223.68C63.6199 222.69 62.2799 219.74 63.2799 217.11L67.0699 207.23L76.7099 210.57Z" fill="#8A6FE8"/>
<path d="M82.73 206.93C79.44 200.2 78.44 189.28 83.09 180.46C87.39 172.32 97.36 165.91 109.56 164.15L107.92 154.02C87.82 156.93 78.57 167.06 74.36 175.06C67.41 188.22 69.87 202.94 74.09 211.55L82.73 206.93Z" fill="url(#paint7_linear)"/>
<path d="M122.21 157.89C122.21 152.14 117.55 147.48 111.8 147.48C106.05 147.48 101.39 152.14 101.39 157.89C101.39 163.64 106.05 168.3 111.8 168.3C117.55 168.31 122.21 163.65 122.21 157.89Z" fill="url(#paint8_radial)"/>
<path d="M87.6898 206.43C87.6898 200.53 82.8998 195.75 77.0098 195.75C71.1098 195.75 66.3298 200.53 66.3298 206.43C66.3298 212.33 71.1198 217.11 77.0098 217.11C82.9098 217.12 87.6898 212.33 87.6898 206.43Z" fill="url(#paint9_radial)"/>
<path d="M141.53 171.59C140.15 171.82 138.22 171.08 137.86 168.93C136.12 158.49 134.42 149.08 133.86 145.74C133.31 142.4 137.02 142.16 137.02 142.16L195.05 132.51C195.15 132.77 199.3 143.61 197.98 158.23C192.15 163.17 141.53 171.59 141.53 171.59Z" fill="url(#paint10_radial)"/>
<path d="M189.1 159.74C189.1 159.74 179 154.24 177.18 153.12C175.35 152.01 173.84 152.34 172.32 153.93C170.8 155.52 163.05 164.07 163.05 164.07L189.1 159.74Z" fill="#A08BE8"/>
<path d="M145.43 170.94L141.53 171.59C141.4 171.61 141.27 171.62 141.13 171.62C139.8 171.66 138.19 170.88 137.86 168.93C137.7 167.99 137.55 167.05 137.39 166.13C137.75 167.39 139.59 167.9 140.92 167.68C140.92 167.68 197.98 158.22 197.98 158.24C201.93 158.44 200.88 161.68 200.88 161.68L145.43 170.94Z" fill="#512BD4"/>
<path d="M190.5 153.53C192.92 153.16 194.38 149.56 193.77 145.49C193.15 141.42 190.7 138.41 188.27 138.78C185.85 139.15 184.38 142.74 185 146.82C185.62 150.89 188.08 153.9 190.5 153.53Z" fill="#512BD4"/>
<path d="M191.77 140.55C192.74 141.76 193.48 143.5 193.78 145.5C193.93 146.52 193.96 147.51 193.87 148.43C192.55 149.07 190.93 148.98 189.66 148.07C187.8 146.74 187.36 144.15 188.7 142.28C189.44 141.23 190.58 140.64 191.77 140.55Z" fill="#8065E0"/>
<path d="M155.51 159.38C157.92 158.94 159.27 155.3 158.54 151.25C157.8 147.2 155.26 144.27 152.84 144.71C150.43 145.15 149.07 148.79 149.81 152.84C150.54 156.89 153.09 159.82 155.51 159.38Z" fill="#512BD4"/>
<path d="M156.59 146.64C157.49 147.81 158.2 149.41 158.53 151.25C158.74 152.4 158.77 153.51 158.67 154.52C157.36 155.14 155.75 155.05 154.48 154.15C152.62 152.82 152.18 150.23 153.52 148.36C154.27 147.32 155.41 146.73 156.59 146.64Z" fill="#8065E0"/>
<path d="M185.93 170.42L167.61 173.38L170.23 189.58L188.55 186.62L185.93 170.42Z" fill="#512BD4"/>
<path d="M184.04 181.03C183.94 180.96 183.88 180.87 183.86 180.75C183.84 180.63 183.87 180.53 183.94 180.43C184.01 180.33 184.11 180.27 184.23 180.25C184.35 180.23 184.46 180.25 184.56 180.32C184.66 180.39 184.72 180.48 184.74 180.6C184.76 180.71 184.74 180.82 184.66 180.92C184.59 181.02 184.49 181.07 184.37 181.09C184.25 181.12 184.14 181.1 184.04 181.03Z" fill="white"/>
<path d="M178.75 177.34L179.45 177.23L179.92 180.11C179.97 180.39 179.99 180.6 179.99 180.72H180C180.02 180.66 180.06 180.56 180.12 180.42L181.61 176.88L182.45 176.74L183.19 181.22L182.49 181.34L182.01 178.4C181.96 178.08 181.93 177.88 181.93 177.78H181.91C181.89 177.88 181.86 177.97 181.82 178.06L180.27 181.69L179.48 181.82L178.75 177.34Z" fill="white"/>
<path d="M175.98 181.76L177.71 181.48L177.49 180.15L175.99 180.4L175.89 179.77L177.39 179.52L177.18 178.25L175.55 178.52L175.45 177.89L177.81 177.5L178.55 181.98L176.1 182.38L175.98 181.76Z" fill="white"/>
<path d="M171.86 178.48L175.09 177.95L175.19 178.58L173.94 178.78L174.57 182.63L173.85 182.75L173.22 178.9L171.96 179.11L171.86 178.48Z" fill="white"/>
<path d="M130.84 80.51L138.6 79.22L141.97 90.06L131.16 91.86L130.84 80.51Z" fill="#8577E5"/>
<path d="M141.66 73.75C141.66 69.44 138.16 65.95 133.86 65.95C129.56 65.95 126.06 69.44 126.06 73.75C126.06 78.06 129.56 81.55 133.86 81.55C138.16 81.55 141.66 78.06 141.66 73.75Z" fill="#D8CFF7"/>
<path d="M146.91 96.21C147.4 96.13 147.72 95.64 147.58 95.17C146.16 90.13 141.14 86.87 135.86 87.75C130.58 88.63 126.89 93.34 127.17 98.57C127.2 99.06 127.66 99.42 128.14 99.34L146.91 96.21Z" fill="url(#paint11_radial)"/>
<path d="M221.5 98.57L224.7 88.21C225.51 85.51 228.36 83.98 231.06 84.8C233.76 85.61 235.29 88.46 234.47 91.16L231.34 101.26L221.5 98.57Z" fill="#8A6FE8"/>
<path d="M224.46 104.45L229.63 94.91C230.96 92.42 234.04 91.48 236.53 92.81C239.02 94.14 239.96 97.22 238.63 99.71L233.59 109.01L224.46 104.45Z" fill="#8A6FE8"/>
<path d="M215.08 102.31L218.18 78.47C218.51 75.67 221.05 73.67 223.85 74C226.65 74.33 228.65 76.87 228.32 79.67L225.26 103.25L215.08 102.31Z" fill="#8A6FE8"/>
<path d="M215.87 111.52L204.8 94.32C203.22 91.99 203.83 88.81 206.17 87.23C208.5 85.65 211.68 86.27 213.26 88.6L224.18 105.59L215.87 111.52Z" fill="#8A6FE8"/>
<path d="M233.92 106.97C233.92 101.07 229.14 96.29 223.24 96.29C217.34 96.29 212.56 101.07 212.56 106.97C212.56 112.87 217.35 117.65 223.24 117.65C229.13 117.66 233.92 112.87 233.92 106.97Z" fill="url(#paint12_radial)"/>
<path d="M137.78 106.84L112.49 119.69C111.17 120.36 109.58 119.64 109.2 118.21L106.69 108.61L137.78 106.84Z" fill="#605D5A"/>
<path d="M103.5 105.61C99.26 106.52 98 112.94 104.11 112.57C114.4 111.96 151.6 107.28 168.9 99.52C177.68 95.58 178.89 88.31 163.44 89.83C147.99 91.35 103.5 105.61 103.5 105.61Z" fill="#FCCF84"/>
<path d="M102.21 105.85C102.38 107.25 103.64 108.25 105.05 108.11C109.92 107.62 121.6 106.18 136.11 102.66C151.21 98.99 159.5 94.98 162.66 93.24C163.59 92.73 164.04 91.66 163.77 90.63C162.13 84.4 151.14 59.92 125.19 66.33C98.93 72.81 101.2 97.67 102.21 105.85Z" fill="url(#paint13_linear)"/>
<path d="M121.88 67.29C117.75 68.68 114.43 70.58 111.78 72.81C134.25 69.26 145.84 82.6 149.18 87.33C149.85 88.28 151.05 88.72 152.18 88.42L153.86 87.99C155.59 87.54 156.35 85.5 155.31 84.05C151.05 78.05 139.85 65.48 121.88 67.29Z" fill="#FCCF84"/>
<path d="M292.77 246.93H284.48V248.79H292.77V246.93Z" fill="#797672"/>
<path d="M258.23 246.93H249.94V248.79H258.23V246.93Z" fill="#797672"/>
<path d="M391.57 201.12H279.59V247.1H391.57V201.12Z" fill="#9C9894"/>
<path d="M245.121 247.105H279.591V201.125H245.121V247.105Z" fill="#C4C1BE"/>
<path d="M259.28 221.6V224.7H264.4V226.07H265.68V221.6H259.28Z" fill="#908D89"/>
<path d="M290.91 205.67H287.87V242.54H290.91V205.67Z" fill="#797672"/>
<path d="M300.18 205.67H297.14V242.54H300.18V205.67Z" fill="#797672"/>
<path d="M309.45 205.67H306.41V242.54H309.45V205.67Z" fill="#797672"/>
<path d="M318.72 205.67H315.68V242.54H318.72V205.67Z" fill="#797672"/>
<path d="M327.99 205.67H324.95V242.54H327.99V205.67Z" fill="#797672"/>
<path d="M337.27 205.67H334.23V242.54H337.27V205.67Z" fill="#797672"/>
<path d="M346.54 205.67H343.5V242.54H346.54V205.67Z" fill="#797672"/>
<path d="M355.81 205.67H352.77V242.54H355.81V205.67Z" fill="#797672"/>
<path d="M365.08 205.67H362.04V242.54H365.08V205.67Z" fill="#797672"/>
<path d="M374.36 205.67H371.32V242.54H374.36V205.67Z" fill="#797672"/>
<path d="M383.63 205.67H380.59V242.54H383.63V205.67Z" fill="#797672"/>
<path d="M276.36 244.78H247.61V203.41H276.36V205.19H249.39V243H276.36V244.78Z" fill="#908D89"/>
<path d="M258.49 203.42H256.73V244.77H258.49V203.42Z" fill="#E6E4E3"/>
<path d="M268.13 203.42H266.37V244.77H268.13V203.42Z" fill="#E6E4E3"/>
<path d="M387.31 246.93H379.02V248.79H387.31V246.93Z" fill="#797672"/>
<path d="M480.22 93.52H368.24V139.5H480.22V93.52Z" fill="#9C9894"/>
<path d="M333.77 139.504H368.24V93.5238H333.77V139.504Z" fill="#CCCAC7"/>
<path d="M347.93 114V117.1H353.05V118.47H354.33V114H347.93Z" fill="#908D89"/>
<path d="M379.56 98.07H376.52V134.94H379.56V98.07Z" fill="#84817D"/>
<path d="M388.83 98.07H385.79V134.94H388.83V98.07Z" fill="#84817D"/>
<path d="M398.1 98.07H395.06V134.94H398.1V98.07Z" fill="#84817D"/>
<path d="M407.37 98.07H404.33V134.94H407.37V98.07Z" fill="#84817D"/>
<path d="M416.64 98.07H413.6V134.94H416.64V98.07Z" fill="#84817D"/>
<path d="M425.92 98.07H422.88V134.94H425.92V98.07Z" fill="#84817D"/>
<path d="M435.19 98.07H432.15V134.94H435.19V98.07Z" fill="#84817D"/>
<path d="M444.46 98.07H441.42V134.94H444.46V98.07Z" fill="#84817D"/>
<path d="M453.73 98.07H450.69V134.94H453.73V98.07Z" fill="#84817D"/>
<path d="M463.01 98.07H459.97V134.94H463.01V98.07Z" fill="#84817D"/>
<path d="M472.28 98.07H469.24V134.94H472.28V98.07Z" fill="#84817D"/>
<path d="M365.01 137.18H336.26V95.81H365.01V97.59H338.04V135.4H365.01V137.18Z" fill="#908D89"/>
<path d="M347.14 95.82H345.38V137.17H347.14V95.82Z" fill="#EEEDEC"/>
<path d="M356.78 95.82H355.02V137.17H356.78V95.82Z" fill="#EEEDEC"/>
<path d="M346.88 139.33H338.59V141.19H346.88V139.33Z" fill="#797672"/>
<path d="M381.42 139.33H373.13V141.19H381.42V139.33Z" fill="#797672"/>
<path d="M475.96 139.33H467.67V141.19H475.96V139.33Z" fill="#797672"/>
<path d="M300.05 199.66H291.76V201.52H300.05V199.66Z" fill="#797672"/>
<path d="M433.39 153.85H321.41V199.83H433.39V153.85Z" fill="#3085E9"/>
<path d="M286.942 199.835H321.412V153.855H286.942V199.835Z" fill="#81B5F3"/>
<path d="M301.1 174.33V177.43H306.22V178.8H307.5V174.33H301.1Z" fill="#3085E9"/>
<path d="M332.72 158.4H329.68V195.27H332.72V158.4Z" fill="#0064DA"/>
<path d="M341.99 158.4H338.95V195.27H341.99V158.4Z" fill="#0064DA"/>
<path d="M351.27 158.4H348.23V195.27H351.27V158.4Z" fill="#0064DA"/>
<path d="M360.54 158.4H357.5V195.27H360.54V158.4Z" fill="#0064DA"/>
<path d="M369.81 158.4H366.77V195.27H369.81V158.4Z" fill="#0064DA"/>
<path d="M379.08 158.4H376.04V195.27H379.08V158.4Z" fill="#0064DA"/>
<path d="M388.35 158.4H385.31V195.27H388.35V158.4Z" fill="#0064DA"/>
<path d="M397.63 158.4H394.59V195.27H397.63V158.4Z" fill="#0064DA"/>
<path d="M406.9 158.4H403.86V195.27H406.9V158.4Z" fill="#0064DA"/>
<path d="M416.17 158.4H413.13V195.27H416.17V158.4Z" fill="#0064DA"/>
<path d="M425.44 158.4H422.4V195.27H425.44V158.4Z" fill="#0064DA"/>
<path d="M318.18 197.51H289.42V156.14H318.18V157.92H291.2V195.73H318.18V197.51Z" fill="#3085E9"/>
<path d="M300.31 156.15H298.55V197.5H300.31V156.15Z" fill="#BDD8F9"/>
<path d="M309.94 156.15H308.18V197.5H309.94V156.15Z" fill="#BDD8F9"/>
<path d="M334.59 199.66H326.3V201.52H334.59V199.66Z" fill="#797672"/>
<path d="M429.13 199.66H420.84V201.52H429.13V199.66Z" fill="#797672"/>
<path d="M578.42 95.82H575.8V131.76H578.42V95.82Z" fill="#E29E3B"/>
<path d="M551.27 149.18L464.51 32.99L446.76 17.77L443.97 19.29L461.72 35.78L522.61 128.38L545.52 148.93L551.27 149.18Z" fill="#F7B548"/>
<path d="M405.28 55.63L482.19 25.21L486.25 27.41L406.21 59.2L405.28 55.63Z" fill="#F7B548"/>
<path d="M547.21 148.21C546.88 148.21 546.55 148.12 546.26 147.94C545.41 147.41 545.14 146.29 545.67 145.44L574.75 98.38L483.78 27.85L445.34 19.77L407.98 58.12L405.37 55.58L443.42 16.51C443.85 16.06 444.49 15.87 445.1 16L484.93 24.37C485.2 24.43 485.45 24.54 485.67 24.71L578.27 96.5C579.01 97.07 579.19 98.1 578.7 98.89L548.77 147.34C548.42 147.9 547.82 148.21 547.21 148.21Z" fill="#F7B548"/>
<path d="M572.84 144.4C572.04 144.4 571.31 143.87 571.09 143.07L564.1 118.02H523.12C522.33 118.02 521.63 117.51 521.39 116.75C521.15 116 521.43 115.17 522.07 114.72L562.15 86.31C562.97 85.73 564.1 85.92 564.68 86.74C565.26 87.56 565.07 88.69 564.25 89.27L528.83 114.38H565.49C566.31 114.38 567.02 114.92 567.24 115.71L574.6 142.09C574.87 143.06 574.31 144.06 573.34 144.33C573.16 144.38 573 144.4 572.84 144.4Z" fill="#F7B548"/>
<path d="M567.26 90.07L568.31 90.19L578.67 91.59L598.97 107.32L595.16 111.64L567.26 90.07Z" fill="#F7B548"/>
<path d="M598.21 116.7C601.43 116.7 604.04 114.09 604.04 110.87C604.04 107.65 601.43 105.04 598.21 105.04C594.99 105.04 592.38 107.65 592.38 110.87C592.38 114.09 594.99 116.7 598.21 116.7Z" fill="#F7B548"/>
<path d="M416.41 88.52H407.85V59.41H416.41V88.52ZM408.8 87.57H415.46V60.36H408.8V87.57Z" fill="#84817D"/>
<path d="M594.06 135.82H581.29V156.96H594.06V135.82Z" fill="#C4C1BE"/>
<path d="M578.38 139.29H553.47V149.61H578.38V139.29Z" fill="#84817D"/>
<path d="M565.81 140.89H555.16V144.57H565.81V140.89Z" fill="#81B5F3"/>
<path d="M581.38 129.22H573.01V148.33H581.38V129.22Z" fill="#F7B548"/>
<path d="M586.29 147.66H540.54V151.3H586.29V147.66Z" fill="#84817D"/>
<path d="M300.05 246.93H291.76V248.79H300.05V246.93Z" fill="#797672"/>
<path d="M433.39 201.12H321.41V247.1H433.39V201.12Z" fill="#D8604D"/>
<path d="M286.942 247.105H321.412V201.125H286.942V247.105Z" fill="#ED9583"/>
<path d="M301.1 221.6V224.7H306.22V226.07H307.5V221.6H301.1Z" fill="#CC5444"/>
<path d="M332.72 205.67H329.68V242.54H332.72V205.67Z" fill="#CC5444"/>
<path d="M341.99 205.67H338.95V242.54H341.99V205.67Z" fill="#CC5444"/>
<path d="M351.27 205.67H348.23V242.54H351.27V205.67Z" fill="#CC5444"/>
<path d="M360.54 205.67H357.5V242.54H360.54V205.67Z" fill="#CC5444"/>
<path d="M369.81 205.67H366.77V242.54H369.81V205.67Z" fill="#CC5444"/>
<path d="M379.08 205.67H376.04V242.54H379.08V205.67Z" fill="#CC5444"/>
<path d="M388.35 205.67H385.31V242.54H388.35V205.67Z" fill="#CC5444"/>
<path d="M397.63 205.67H394.59V242.54H397.63V205.67Z" fill="#CC5444"/>
<path d="M406.9 205.67H403.86V242.54H406.9V205.67Z" fill="#CC5444"/>
<path d="M416.17 205.67H413.13V242.54H416.17V205.67Z" fill="#CC5444"/>
<path d="M425.44 205.67H422.4V242.54H425.44V205.67Z" fill="#CC5444"/>
<path d="M318.18 244.78H289.42V203.41H318.18V205.19H291.2V243H318.18V244.78Z" fill="#D8604D"/>
<path d="M300.31 203.42H298.55V244.77H300.31V203.42Z" fill="#FDC9B5"/>
<path d="M309.94 203.42H308.18V244.77H309.94V203.42Z" fill="#FDC9B5"/>
<path d="M334.59 246.93H326.3V248.79H334.59V246.93Z" fill="#797672"/>
<path d="M429.13 246.93H420.84V248.79H429.13V246.93Z" fill="#797672"/>
<path d="M556.6 160.34L545.52 154.4V200.68H556.6V160.34Z" fill="#B3AFAB"/>
<path d="M573.89 210.4H533.17C532.44 210.4 531.85 209.81 531.85 209.08V200.22C531.85 199.49 532.44 198.9 533.17 198.9H573.89C574.62 198.9 575.21 199.49 575.21 200.22V209.08C575.21 209.81 574.62 210.4 573.89 210.4Z" fill="#3E8EED"/>
<path d="M573.89 198.9H558.95V210.4H573.89C574.62 210.4 575.21 209.81 575.21 209.08V200.22C575.21 199.49 574.62 198.9 573.89 198.9Z" fill="#1C77E2"/>
<defs>
<linearGradient id="paint0_linear" x1="160.987" y1="188.781" x2="169.995" y2="231.678" gradientUnits="userSpaceOnUse">
<stop offset="0.1342" stop-color="#522CD5"/>
<stop offset="0.53" stop-color="#8A6FE8"/>
</linearGradient>
<linearGradient id="paint1_linear" x1="166.418" y1="230.392" x2="193.179" y2="278.101" gradientUnits="userSpaceOnUse">
<stop stop-color="#522CD5"/>
<stop offset="0.4397" stop-color="#8A6FE8"/>
</linearGradient>
<radialGradient id="paint2_radial" cx="0" cy="0" r="1" gradientUnits="userSpaceOnUse" gradientTransform="translate(187.644 256.089) rotate(-0.261043) scale(18.5463)">
<stop offset="0.034" stop-color="#522CD5"/>
<stop offset="0.9955" stop-color="#8A6FE8"/>
</radialGradient>
<linearGradient id="paint3_linear" x1="124.797" y1="188.123" x2="135.152" y2="236.843" gradientUnits="userSpaceOnUse">
<stop offset="0.1194" stop-color="#522CD5"/>
<stop offset="0.5181" stop-color="#8A6FE8"/>
</linearGradient>
<linearGradient id="paint4_linear" x1="116.57" y1="234.522" x2="139.777" y2="278.75" gradientUnits="userSpaceOnUse">
<stop stop-color="#522CD5"/>
<stop offset="0.4397" stop-color="#8A6FE8"/>
</linearGradient>
<radialGradient id="paint5_radial" cx="0" cy="0" r="1" gradientUnits="userSpaceOnUse" gradientTransform="translate(134.622 256.025) rotate(-0.261003) scale(20.1844 20.1631)">
<stop offset="0.034" stop-color="#522CD5"/>
<stop offset="0.9955" stop-color="#8A6FE8"/>
</radialGradient>
<radialGradient id="paint6_radial" cx="0" cy="0" r="1" gradientUnits="userSpaceOnUse" gradientTransform="translate(151.361 139.907) rotate(-9.43901) scale(56.4667)">
<stop offset="0.4744" stop-color="#A08BE8"/>
<stop offset="0.8618" stop-color="#8065E0"/>
</radialGradient>
<linearGradient id="paint7_linear" x1="109.568" y1="182.778" x2="70.0017" y2="182.778" gradientUnits="userSpaceOnUse">
<stop offset="0.2296" stop-color="#9780E6"/>
<stop offset="0.9374" stop-color="#8A6FE8"/>
</linearGradient>
<radialGradient id="paint8_radial" cx="0" cy="0" r="1" gradientUnits="userSpaceOnUse" gradientTransform="translate(111.457 154.306) scale(10.4137)">
<stop stop-color="#8065E0"/>
<stop offset="1" stop-color="#512BD4"/>
</radialGradient>
<radialGradient id="paint9_radial" cx="0" cy="0" r="1" gradientUnits="userSpaceOnUse" gradientTransform="translate(76.4417 198.451) scale(20.7649)">
<stop stop-color="#8065E0"/>
<stop offset="1" stop-color="#512BD4"/>
</radialGradient>
<radialGradient id="paint10_radial" cx="0" cy="0" r="1" gradientUnits="userSpaceOnUse" gradientTransform="translate(191.251 129.704) rotate(-9.43902) scale(43.9869)">
<stop offset="0.0933" stop-color="#E1DFDD"/>
<stop offset="0.8998" stop-color="white"/>
</radialGradient>
<radialGradient id="paint11_radial" cx="0" cy="0" r="1" gradientUnits="userSpaceOnUse" gradientTransform="translate(136.22 90.5899) rotate(170.561) scale(8.15279)">
<stop stop-color="#8065E0"/>
<stop offset="1" stop-color="#512BD4"/>
</radialGradient>
<radialGradient id="paint12_radial" cx="0" cy="0" r="1" gradientUnits="userSpaceOnUse" gradientTransform="translate(223.34 101.941) rotate(180) scale(16.0202)">
<stop stop-color="#8065E0"/>
<stop offset="1" stop-color="#512BD4"/>
</radialGradient>
<linearGradient id="paint13_linear" x1="133.907" y1="65.3865" x2="131.699" y2="109.601" gradientUnits="userSpaceOnUse">
<stop offset="0.5634" stop-color="#F7B548"/>
<stop offset="1" stop-color="#FCCF84"/>
</linearGradient>
</defs>
</svg>
