<svg width="636" height="300" viewBox="0 0 636 300" fill="none" xmlns="http://www.w3.org/2000/svg">
<path d="M335.67 140.54V151.89L332.65 151.93V140.62L335.67 140.54Z" fill="#60DEFA"/>
<path d="M347.92 140.23V151.73L344.81 151.77V140.31L347.92 140.23Z" fill="#60DEFA"/>
<path d="M355.94 149.61L324.38 150.09V154.98L355.94 154.68V149.61Z" fill="#19A0BF"/>
<path d="M437.72 37.87V50.51L433.97 50.94V38.34L437.72 37.87Z" fill="#ED9583"/>
<path d="M452.95 35.95V48.78L449.08 49.22V36.44L452.95 35.95Z" fill="#ED9583"/>
<path d="M462.94 45.41L423.72 49.94V55.37L462.94 51.06V45.41Z" fill="#BF453C"/>
<path d="M351.91 46.02C351.54 46.09 351.21 46.38 351.13 46.75C350.98 47.43 351 49.22 351.02 49.99L348.23 53.79C347.95 54.17 348.02 54.66 348.38 54.88C348.74 55.1 349.26 54.97 349.54 54.59L352.52 50.54C352.64 50.38 352.7 50.19 352.69 50.01C352.66 48.97 352.66 47.3 352.76 46.87C352.86 46.43 352.57 46.05 352.12 46.01C352.05 46.01 351.98 46.01 351.91 46.02Z" fill="#56534F"/>
<path d="M122.89 225.41C122.68 225.4 122.48 225.32 122.29 225.17C121.76 224.75 121.6 223.94 121.93 223.35L124.52 218.76C124.84 218.2 124.83 217.46 124.49 216.87L121.76 212.02C121.41 211.4 121.55 210.6 122.07 210.23C122.59 209.86 123.3 210.06 123.65 210.68L126.39 215.54C127.22 217.02 127.25 218.88 126.45 220.28L123.85 224.87C123.64 225.25 123.27 225.44 122.89 225.41Z" fill="#0B7891"/>
<path d="M142.13 181.97C141.78 183.26 140.68 186.53 138.06 188.95C135.13 191.65 131.4 192.38 127 191.14L127.69 188.57C131.33 189.59 134.34 189.04 136.62 186.93C138.68 185.02 139.56 182.4 139.84 181.36L142.13 181.97Z" fill="#33D5F9"/>
<path d="M271.73 109.41L272.8 105.36C273.08 104.28 272.54 103.24 271.59 103.05C270.65 102.85 269.66 103.57 269.38 104.65L268.29 108.78L271.73 109.41Z" fill="#8A6FE8"/>
<path d="M382.09 58.65L484.41 47.25V153.1L382.09 154.12V58.65Z" fill="#ED9583"/>
<path d="M522.58 50.32L484.41 47.25V153.1L522.58 152.72V50.32Z" fill="url(#paint0_radial)"/>
<path d="M380.59 120.64L375.09 120.89L382.74 143.71L386.53 143.63L380.59 120.64Z" fill="#B3AFAB"/>
<path d="M372.9 120.99L367.49 121.23L369.22 144L372.9 143.92V120.99Z" fill="#B3AFAB"/>
<path d="M360.23 114.44C360.23 122.81 366.68 129.35 374.76 129.05C382.98 128.75 389.76 121.5 389.76 112.86C389.76 104.22 382.99 97.7 374.76 98.27C366.68 98.84 360.23 106.07 360.23 114.44Z" fill="#56534F"/>
<path d="M360.23 75.1C360.23 83.47 366.68 89.74 374.76 89.09C382.98 88.43 389.76 80.89 389.76 72.26C389.76 63.63 382.99 57.39 374.76 58.31C366.68 59.22 360.23 66.73 360.23 75.1Z" fill="#797672"/>
<path d="M359.22 120.05L352.04 81.37C351.87 79.78 353.05 78.27 354.56 78.12L395.41 74.3C397.07 74.14 398.37 75.5 398.18 77.2L390.99 118.54C390.83 119.97 389.66 121.1 388.26 121.16L361.78 122.34C360.47 122.41 359.37 121.42 359.22 120.05Z" fill="#908D89"/>
<path d="M373.89 65.11L362.92 66.27C361.77 68.17 360.97 70.3 360.62 72.54L373.89 71.23C375.08 71.11 376.05 70.01 376.05 68.76V67.14C376.05 65.89 375.09 64.99 373.89 65.11Z" fill="#56534F"/>
<path d="M373.53 68.18C373.53 69.46 372.54 70.6 371.31 70.72C370.09 70.84 369.1 69.91 369.1 68.63C369.1 67.35 370.09 66.22 371.31 66.09C372.53 65.96 373.53 66.9 373.53 68.18Z" fill="white"/>
<path d="M367.03 68.85C367.03 70.12 366.05 71.25 364.84 71.37C363.64 71.49 362.66 70.56 362.66 69.29C362.66 68.02 363.63 66.89 364.84 66.77C366.05 66.64 367.03 67.57 367.03 68.85Z" fill="white"/>
<path d="M371.78 154.57L363.01 154.65C362.33 154.66 361.82 154.01 361.94 153.31C362.87 148.11 366.64 143.91 371.54 142.59C372.23 142.4 372.89 142.95 372.89 143.69V153.4C372.89 154.05 372.39 154.57 371.78 154.57Z" fill="#56534F"/>
<path d="M384.77 142.3C380.15 143.64 377.64 147.88 378.43 153.14C378.54 153.85 379.29 154.51 379.99 154.5L389.09 154.41C389.72 154.4 390.06 153.87 389.84 153.22L386.53 143.4C386.29 142.65 385.42 142.11 384.77 142.3Z" fill="#56534F"/>
<path d="M275.74 83.35L271.56 83.3C270.95 88.14 270.24 92.46 268.37 95.77C264.67 102.33 256.29 102.98 254.01 103.02L253.69 108.18C260.16 107.18 274.06 106.28 275.74 83.35Z" fill="#8A6FE8"/>
<path d="M261.09 106.67C261.27 106.61 261.45 106.55 261.63 106.49L260.43 101.92C260.27 101.97 260.11 102.03 259.95 102.08L261.09 106.67Z" fill="#A08BE8"/>
<path d="M382.09 154.12L484.41 153.1V258.95L382.09 249.59V154.12Z" fill="#57AA9A"/>
<path d="M522.58 152.72L484.41 153.1V258.95L522.58 252.47V152.72Z" fill="url(#paint1_radial)"/>
<path d="M137.23 156.56L191.69 156.02V232.17L137.23 227.19V156.56Z" fill="#8065E0"/>
<path d="M211.25 156.53L191.69 156.02V232.17L211.25 226.86V156.53Z" fill="#512BD4"/>
<path d="M298.04 154.96L382.09 154.12V249.59L298.04 241.9V154.96Z" fill="url(#paint2_radial)"/>
<path d="M227.75 155.66L298.01 154.96V241.9L227.75 235.47V155.66Z" fill="#A7A4A0"/>
<path d="M324 28.57L340.27 26.42L368.34 102.89L296.3 136.04L281.82 137.24L324 28.57Z" fill="#E29E3B"/>
<path d="M350.99 104.92L368.44 102.94L296.36 135.98L281.82 137.24L350.99 104.92Z" fill="#C4832D"/>
<path d="M258.34 65.7L323.88 28.5L351.34 104.79L281.82 137.24L258.34 65.7Z" fill="url(#paint3_radial)"/>
<path d="M107.53 205.33C107.75 205.34 107.95 205.47 108.06 205.71L109.89 209.72C110.06 210.08 109.93 210.54 109.61 210.75C109.29 210.96 108.9 210.83 108.73 210.47L106.9 206.47C106.74 206.11 106.86 205.65 107.18 205.44C107.3 205.35 107.42 205.32 107.53 205.33Z" fill="#A08BE8"/>
<path d="M140.2 194.17C141.51 194.86 143.74 193.87 144.04 193.55C144.34 193.22 145.18 193.61 144.51 195.38C144 196.73 142.56 198.6 140.31 196.77C139.49 196.1 140.2 194.17 140.2 194.17Z" fill="#1DACCC"/>
<path d="M138.95 194.41C138.93 194.15 139 193.9 139.16 193.75L141.92 191.17C142.17 190.94 142.54 191.03 142.74 191.39C142.94 191.74 142.9 192.22 142.65 192.45L139.88 195.03C139.63 195.26 139.27 195.16 139.07 194.81C139 194.69 138.96 194.55 138.95 194.41Z" fill="#1DACCC"/>
<path d="M115.87 224.42C116.5 224.46 117.05 223.79 117.1 222.93L117.75 212.91C117.81 212.05 117.34 211.33 116.72 211.3C116.09 211.27 115.54 211.95 115.49 212.81L114.84 222.8C114.78 223.66 115.24 224.38 115.87 224.42Z" fill="#0B7891"/>
<path d="M118.7 225.89L118.75 225.17C118.82 224.02 118.08 223.05 117.08 222.99L113.41 222.78C112.42 222.72 111.57 223.6 111.49 224.74L111.44 225.45L118.7 225.89Z" fill="#1595B2"/>
<path d="M126.74 226.49L126.79 225.76C126.87 224.6 126.1 223.62 125.09 223.56L121.35 223.35C120.34 223.29 119.47 224.18 119.4 225.32L119.35 226.04L126.74 226.49Z" fill="#1595B2"/>
<path d="M119.4 165.49L119.81 159.15C119.85 158.46 120.69 158.25 120.88 158.89L122.78 165.21C122.91 165.63 122.61 166.09 122.21 166.09L119.89 166.12C119.6 166.12 119.38 165.84 119.4 165.49Z" fill="#60DEFA"/>
<path d="M115.58 165.54L115.99 159.23C116.03 158.54 116.86 158.34 117.05 158.97L118.94 165.26C119.06 165.67 118.77 166.13 118.38 166.14L116.09 166.17C115.78 166.17 115.55 165.89 115.58 165.54Z" fill="#60DEFA"/>
<path d="M118.82 194.59L121.68 194.66L122.84 176.97H119.97L118.82 194.59Z" fill="#0B7891"/>
<path d="M110.33 175.52L111.21 169.28C111.57 166.69 113.58 164.68 115.83 164.65L128.9 164.48C131.24 164.45 133.07 166.46 133.1 169.12L133.17 175.53C133.18 176.23 132.65 176.84 132.03 176.84L124.43 176.83C123.99 178.46 122.64 179.67 121.12 179.66C119.61 179.65 118.43 178.44 118.21 176.82L111.25 176.81C110.66 176.79 110.24 176.21 110.33 175.52Z" fill="#1DACCC"/>
<path d="M124.08 169.73L133.11 169.67L133.16 173.96L123.8 173.98C123.01 173.98 122.42 173.25 122.48 172.35L122.54 171.37C122.6 170.47 123.29 169.74 124.08 169.73Z" fill="#0B7891"/>
<path d="M131.57 171.66C131.51 172.56 132.11 173.28 132.9 173.28C133.7 173.28 134.39 172.55 134.45 171.64C134.51 170.74 133.91 170.01 133.12 170.02C132.32 170.03 131.63 170.76 131.57 171.66Z" fill="#BBF1FD"/>
<path d="M126.97 171.68C126.91 172.57 127.5 173.3 128.29 173.29C129.08 173.29 129.76 172.56 129.82 171.66C129.88 170.76 129.29 170.04 128.5 170.05C127.71 170.06 127.03 170.79 126.97 171.68Z" fill="#BBF1FD"/>
<path d="M128.87 213.5L109.64 212.65C107.45 212.55 105.88 210.31 106.24 207.79L109.62 183.75C109.72 183.03 110.27 182.49 110.89 182.49L131.72 182.66C132.34 182.67 132.82 183.2 132.82 183.9L133.11 208.83C133.14 211.44 131.17 213.6 128.87 213.5Z" fill="#1DACCC"/>
<path d="M109.22 186.54L109.61 183.75C109.71 183.03 110.26 182.49 110.88 182.49L131.71 182.66C132.33 182.67 132.81 183.2 132.81 183.9L132.84 186.85L109.22 186.54Z" fill="#1595B2"/>
<path d="M129.29 184.72C129.26 185.15 129.54 185.5 129.92 185.5C130.3 185.5 130.63 185.16 130.65 184.73C130.68 184.3 130.4 183.95 130.02 183.95C129.65 183.95 129.32 184.29 129.29 184.72Z" fill="#33D5F9"/>
<path d="M126.79 184.7C126.76 185.13 127.04 185.47 127.42 185.48C127.79 185.48 128.12 185.14 128.15 184.72C128.18 184.29 127.9 183.94 127.52 183.94C127.14 183.93 126.82 184.27 126.79 184.7Z" fill="#33D5F9"/>
<path d="M124.3 184.67C124.27 185.09 124.55 185.44 124.92 185.45C125.29 185.45 125.62 185.11 125.65 184.69C125.68 184.26 125.4 183.92 125.03 183.91C124.65 183.9 124.33 184.24 124.3 184.67Z" fill="#33D5F9"/>
<path d="M240.52 137.53C242.6 134.94 246.46 129.28 247.51 122.57L243.82 122.07C242.87 128.13 239.35 133.02 237.69 135.02C237.56 135.18 238.87 136.63 240.52 137.53Z" fill="url(#paint4_linear)"/>
<path d="M240.52 137.53C242.6 134.94 246.46 129.28 247.51 122.57L243.82 122.07C242.87 128.13 239.35 133.02 237.69 135.02C237.56 135.18 238.87 136.63 240.52 137.53Z" fill="url(#paint5_linear)"/>
<path d="M237.72 134.99L239.93 136.97C239.56 137.98 235.69 139.65 237.64 151.4L236.47 156.01L227.24 147.5C227.16 147.42 227.13 146.91 227.43 146.57L237.72 134.99Z" fill="#522CD5"/>
<path d="M239.9 153.17C240.08 153.84 239.9 154.36 239.47 154.84L237.95 156.5C237.72 156.76 237.32 156.78 237.06 156.55L235.26 154.89C234.97 154.63 234.96 154.18 235.22 153.88L236.51 152.32C237 151.77 237.24 151.36 237.02 150.47C235.68 145.22 235.67 139.75 238.64 135.81L240.53 137.51C239.12 139.64 237.57 144.43 239.9 153.17Z" fill="url(#paint6_linear)"/>
<path d="M237.06 156.55C237.31 156.78 237.71 156.76 237.95 156.5L239.47 154.84C239.71 154.58 239.87 154.29 239.93 153.98L237.07 151.37C237 151.72 236.8 152 236.51 152.32L235.22 153.88C234.96 154.17 234.97 154.62 235.26 154.89L237.06 156.55Z" fill="url(#paint7_radial)"/>
<path d="M254.74 138.33C254.79 134.9 254.36 127.95 251.07 122.26L247.84 124.48C250.81 129.63 251.01 135.77 250.93 138.46C250.91 138.67 252.85 138.83 254.74 138.33Z" fill="url(#paint8_linear)"/>
<path d="M254.74 138.33C254.79 134.9 254.36 127.95 251.07 122.26L247.84 124.48C250.81 129.63 251.01 135.77 250.93 138.46C250.91 138.67 252.85 138.83 254.74 138.33Z" fill="url(#paint9_linear)"/>
<path d="M250.92 138.41L253.92 138.33C254.25 139.35 254.42 144.79 263.88 151.55L263.86 155.37L250.62 155.48C250.16 155.48 249.82 155.11 249.85 154.62L250.92 138.41Z" fill="#522CD5"/>
<path d="M264.15 150.77C264.72 151.16 264.81 151.6 264.76 152.28L264.62 154.7C264.6 155.07 264.29 155.38 263.93 155.38H263.86C263.46 155.38 263.16 155.05 263.19 154.62L263.24 152.65C263.29 151.87 263.22 151.38 262.47 150.85C258.06 147.78 252.71 143.47 252.64 138.36L254.72 138.3C254.93 140.93 256.74 145.74 264.15 150.77Z" fill="url(#paint10_linear)"/>
<path d="M262.98 151.33C263.25 151.7 263.28 152.11 263.25 152.65L263.2 154.62C263.17 155.04 263.47 155.38 263.87 155.38H263.94C264.29 155.38 264.6 155.07 264.63 154.7L264.77 152.28C264.8 151.89 264.77 151.58 264.65 151.32L262.98 151.33Z" fill="url(#paint11_radial)"/>
<path d="M266 106.34C266.15 100.26 264.22 96.06 264.22 96.06L265.5 95.65L265.53 95.61C261.38 85.92 251.06 81.07 240.97 84.49C229.86 88.26 223.1 100.7 225.63 112.44C228.17 124.24 239.23 131.27 250.58 128.01C259.73 125.38 266.26 116.86 267.25 107.31C267.24 106.91 267.09 106.26 266 106.34Z" fill="url(#paint12_radial)"/>
<path d="M266 106.34C266.15 100.34 264.27 96.16 264.22 96.06L254.43 99.13C254.43 99.13 253.03 99.42 253.32 100.73C253.61 102.04 254.49 105.72 255.4 109.83C255.59 110.67 256.34 110.88 256.86 110.72C256.87 110.72 265.97 107.16 266 106.34Z" fill="url(#paint13_radial)"/>
<path d="M264.75 103.3C264.26 104.03 261.79 107.87 261.79 107.87L266.05 106.43C266.08 104.79 265.99 103.42 265.89 102.55C265.43 102.48 265.13 102.74 264.75 103.3Z" fill="#A08BE8"/>
<path d="M267.21 107.59C267.21 107.59 267.54 106.22 266 106.34C266 106.33 266 106.33 266 106.32L256.54 109.18C256.04 109.33 255.33 109.22 255.16 108.73C255.24 109.09 255.32 109.46 255.41 109.83C255.58 110.6 256.22 110.84 256.72 110.76C256.77 110.75 256.82 110.74 256.87 110.73L258.34 110.28L267.21 107.59Z" fill="#512BD4"/>
<path d="M266.37 111.72L230.69 122.44C231.77 123.62 232.97 124.66 234.27 125.54L264.34 116.64C265.18 115.08 265.87 113.43 266.37 111.72Z" fill="#D8CFF7"/>
<path d="M263.91 117.21C265.19 114.89 266.14 112.33 266.7 109.64L262.67 111.01L263.91 117.21Z" fill="#512BD4"/>
<path d="M242.13 83.21L238.19 84.52L237.84 80.07L240.65 79.11L242.13 83.21Z" fill="#8A6FE8"/>
<path d="M244.21 85.33C244.39 85.27 244.5 85.06 244.44 84.88C243.8 82.96 241.88 81.95 239.96 82.6C238.04 83.24 236.8 85.3 237.01 87.34C237.03 87.53 237.21 87.65 237.38 87.59L244.21 85.33Z" fill="url(#paint14_radial)"/>
<path d="M263.59 102.36C263.88 103.98 263.45 105.5 262.62 105.77C261.8 106.03 260.9 104.93 260.61 103.32C260.32 101.71 260.75 100.19 261.57 99.92C262.4 99.65 263.3 100.74 263.59 102.36Z" fill="#512BD4"/>
<path d="M261.79 101.31C261.37 102.13 261.57 103.15 262.23 103.6C262.68 103.91 263.24 103.86 263.68 103.54C263.69 103.16 263.67 102.77 263.59 102.36C263.45 101.57 263.16 100.9 262.8 100.46C262.4 100.55 262.02 100.85 261.79 101.31Z" fill="#8065E0"/>
<path d="M235.04 77.97C234.41 75.84 235.53 73.39 237.56 72.49C239.6 71.59 241.78 72.6 242.43 74.75C243.08 76.9 241.93 79.37 239.88 80.25C237.84 81.13 235.68 80.1 235.04 77.97Z" fill="#D8CFF7"/>
<path d="M268.49 110.08C265.19 111.87 262.13 113.25 259.25 113.51C254.5 113.95 250.84 110.79 248.64 108.13C247.64 106.93 244.1 110.16 245.16 111.38C249.45 116.34 256.69 121.78 270.51 113.88C271.19 113.5 269.19 109.7 268.49 110.08Z" fill="url(#paint15_linear)"/>
<path d="M248.51 105.05C249.74 106.87 249.3 109.5 247.53 110.91C245.77 112.32 243.36 111.99 242.14 110.18C240.93 108.37 241.36 105.77 243.11 104.35C244.87 102.93 247.29 103.24 248.51 105.05Z" fill="url(#paint16_radial)"/>
<path d="M270.94 115.49L276.15 113.97C277.14 113.76 277.84 112.71 277.71 111.64C277.57 110.57 276.66 109.87 275.67 110.09L271.87 110.89L270.94 115.49Z" fill="#8A6FE8"/>
<path d="M272.22 111.7L275.21 108.89C276.01 108.13 276.18 106.85 275.6 106.03C275.02 105.21 273.91 105.17 273.12 105.93L270.07 108.82L272.22 111.7Z" fill="#8A6FE8"/>
<path d="M272.65 112.93L276.23 111.43C277.19 111.02 277.72 109.86 277.43 108.84C277.13 107.82 276.12 107.33 275.17 107.75L271.51 109.31L272.65 112.93Z" fill="#8A6FE8"/>
<path d="M268 109.25C269.21 107.31 271.55 106.69 273.23 107.88C274.91 109.07 275.28 111.63 274.04 113.58C272.81 115.52 270.46 116.12 268.8 114.92C267.15 113.72 266.79 111.19 268 109.25Z" fill="url(#paint17_radial)"/>
<path d="M364.99 104.06C365.46 104.69 366.29 104.97 367.1 104.7L381.64 99.78C382.38 99.53 382.95 98.88 383.13 98.1L387.19 80.5C387.46 79.32 386.77 78.21 385.64 78.03C384.52 77.85 383.39 78.67 383.12 79.85L379.38 96.11L366.07 100.68C365 101.05 364.36 102.24 364.64 103.35C364.72 103.61 364.84 103.85 364.99 104.06Z" fill="#B3AFAB"/>
<path d="M366.92 101.21L367.61 103.94C367.72 104.38 367.5 104.83 367.1 104.94L365.04 105.54C364.97 105.56 364.91 105.59 364.85 105.63L360.41 108.62C359.98 108.91 359.41 108.64 359.26 108.09L357.49 101.49C357.34 100.93 357.73 100.41 358.24 100.45L363.79 100.98C363.86 100.99 363.93 100.98 364 100.97L365.99 100.56C366.4 100.48 366.81 100.76 366.92 101.21Z" fill="#56534F"/>
<path d="M350.76 103.77C350.97 104.08 351.34 104.23 351.67 104.09C352.28 103.85 353.71 102.8 354.32 102.34L358.59 102.82C359.02 102.87 359.39 102.52 359.41 102.05C359.43 101.57 359.1 101.15 358.67 101.1L354.12 100.6C353.94 100.58 353.76 100.63 353.62 100.74C352.8 101.37 351.47 102.32 351.08 102.48C350.69 102.64 350.5 103.13 350.66 103.57C350.69 103.65 350.72 103.71 350.76 103.77Z" fill="#56534F"/>
<path d="M350.73 111.89C350.92 112.19 351.26 112.34 351.58 112.24L355.49 111.07C355.54 111.05 355.6 111.03 355.65 111L360.51 108.09C360.88 107.87 361 107.34 360.78 106.92C360.56 106.51 360.07 106.34 359.7 106.56L354.92 109.43L351.1 110.59C350.7 110.71 350.48 111.18 350.61 111.64C350.64 111.72 350.68 111.81 350.73 111.89Z" fill="#56534F"/>
<path d="M350.08 108.65C350.25 108.91 350.55 109.07 350.85 109.02L355.5 108.25C355.55 108.24 355.6 108.23 355.65 108.21L360.2 106.34C360.6 106.18 360.78 105.68 360.61 105.23C360.44 104.78 359.98 104.55 359.58 104.72L355.11 106.57L350.54 107.34C350.12 107.41 349.86 107.85 349.94 108.31C349.96 108.43 350.01 108.55 350.08 108.65Z" fill="#56534F"/>
<path d="M379.34 78.09C379.9 74.93 382.8 72.61 385.82 72.91C388.86 73.21 390.88 76.04 390.3 79.24C389.72 82.43 386.79 84.74 383.76 84.4C380.75 84.07 378.78 81.25 379.34 78.09Z" fill="#56534F"/>
<path d="M350.1 48.32L349.62 47.99L349.69 46.84L349.67 46.85C349.68 46.54 349.58 46.25 349.35 46.09L345.76 43.6C345.62 43.5 345.45 43.47 345.28 43.51C344.32 43.73 342.79 44.03 342.4 44C342 43.97 341.63 44.35 341.58 44.83C341.57 44.91 341.57 44.98 341.58 45.06C341.62 45.44 341.87 45.74 342.2 45.76C342.81 45.8 344.46 45.46 345.17 45.31L345.83 45.77C344.87 45.98 343.51 46.24 343.14 46.21C342.74 46.18 342.37 46.56 342.32 47.04C342.31 47.12 342.31 47.19 342.32 47.27C342.36 47.65 342.61 47.95 342.94 47.98C343.55 48.02 345.2 47.69 345.92 47.53L348.77 49.52L349.91 52.61C349.91 52.61 350.12 51.33 350.39 49.34L350.38 49.33C350.48 48.94 350.39 48.52 350.1 48.32Z" fill="#56534F"/>
<path d="M137.83 196.38C138.15 197.13 137.8 197.99 137.1 198.18C135.66 198.55 133.5 198.83 131.14 198.13C127.83 197.16 125.17 194.66 123.2 190.71C122.85 190.02 123.11 189.14 123.75 188.88L123.8 188.86C124.31 188.65 124.89 188.88 125.16 189.43C126.79 192.79 128.93 194.88 131.56 195.64C133.51 196.21 135.3 195.93 136.45 195.61C136.99 195.46 137.56 195.75 137.81 196.33L137.83 196.38Z" fill="#33D5F9"/>
<path d="M141.39 197.3L140.34 194.11C140.12 193.43 139.53 193.06 139.03 193.29L136.45 194.49C135.95 194.72 135.73 195.45 135.95 196.13L136.99 199.31C137.21 199.99 137.8 200.36 138.29 200.13L140.89 198.95C141.39 198.72 141.61 197.98 141.39 197.3Z" fill="#0B7891"/>
<path d="M206.38 206.16L197.6 207.48V176.08L206.38 176.22V206.16Z" fill="#8065E0"/>
<path d="M209.44 186.67L201.83 186.44V183.63L209.44 183.83V186.67Z" fill="#BBACEF"/>
<path d="M209.44 197.96L201.83 197.62V194.81L209.44 195.12V197.96Z" fill="#BBACEF"/>
<path d="M330.64 116.26L336.24 115.68L312.15 126.78L306.96 127.27L330.64 116.26Z" fill="#A36623"/>
<path d="M434.54 85.22C433.13 86.74 432.17 88.6 431.77 90.56C431.38 92.52 431.57 94.51 432.31 96.29L409.86 119.95C409.53 120.29 409.27 120.69 409.09 121.13C408.91 121.57 408.82 122.03 408.82 122.5C408.82 122.96 408.91 123.42 409.09 123.84C409.27 124.26 409.53 124.64 409.86 124.95L410.41 125.58C411.8 126.92 414.12 126.27 415.51 124.73L438.22 101.9C441.94 102.44 446.59 101.38 449.58 98.21C452.69 95.78 453.39 91.28 451.88 87.62L444.21 95.58L439.68 94.45L438.21 90.17L445.79 82.22C443.89 81.62 441.8 81.58 439.8 82.12C437.82 82.65 435.99 83.73 434.54 85.22ZM411.25 120.54C412.92 119.26 414.12 119.67 414.78 120.38C415.1 120.78 415.27 121.28 415.27 121.8C415.27 122.32 415.1 122.84 414.78 123.26C414.04 124.41 412.36 124.38 411.25 123.41C410.89 123.03 410.69 122.53 410.69 122C410.69 121.47 410.89 120.95 411.25 120.54Z" fill="#E86E58"/>
<path d="M450.79 120.72L448.49 123.03C447 124.53 444.72 124.62 443.93 123.21L428.56 109.85C427.13 108.51 426.74 106.27 428.27 104.96L418.04 95.57L414.49 95.07L409.49 87.64L412.35 85.28L419.54 89.75L420.95 93.2L430.86 102.14C431.44 101.68 432.13 101.4 432.86 101.32C433.58 101.24 434.3 101.37 434.92 101.7L450.79 116.26C452.4 117.66 452.4 119.88 450.79 120.72Z" fill="white"/>
<path d="M292.14 72.86C291.53 73.45 290.94 74.1 290.39 74.8C289.63 75.75 288.96 76.76 288.38 77.81L290.81 80.86C290.26 82.01 289.83 83.21 289.53 84.43L285.72 85.64C285.39 87.81 285.38 90.01 285.67 92.13L289.41 92.37C289.71 93.74 290.19 95.06 290.85 96.27C290.23 97.27 289.17 98.9 288.5 99.94C288.93 100.61 289.41 101.25 289.93 101.85C290.65 102.68 291.44 103.4 292.26 104.03L295.19 100.95C296.19 101.56 297.26 102 298.37 102.25L298.95 106.73C300.82 106.95 302.75 106.79 304.64 106.24L305.32 101.57C306.35 101.13 307.36 100.54 308.31 99.81L311.38 102.41C312.05 101.8 312.7 101.13 313.32 100.39C314.16 99.38 314.9 98.31 315.54 97.19L312.93 94.04C313.53 92.82 313.98 91.54 314.28 90.24L318.28 89.34C318.66 86.96 318.67 84.55 318.3 82.23C317.06 82.26 315.32 82.3 314.34 82.3C314.05 81.02 313.6 79.79 313 78.65L315.57 74.89C315.05 74.07 314.46 73.3 313.8 72.58C312.99 71.7 312.11 70.95 311.19 70.32L308.35 73.7C307.27 73.07 306.11 72.65 304.92 72.44L304.57 68C302.74 67.85 300.88 68.07 299.07 68.64L298.68 73.15C297.43 73.65 296.22 74.37 295.1 75.31L292.14 72.86ZM307 80.94C309.83 84.06 309.74 89.53 306.79 93.1C303.86 96.65 299.25 96.96 296.48 93.83C293.73 90.72 293.82 85.36 296.68 81.81C299.56 78.25 304.18 77.84 307 80.94Z" fill="#FFE5B9"/>
<path d="M310.88 56.46C310.63 56.7 310.39 56.97 310.16 57.25C309.85 57.64 309.57 58.05 309.33 58.48L310.33 59.68C310.1 60.15 309.93 60.63 309.81 61.13L308.24 61.66C308.11 62.54 308.1 63.42 308.22 64.27L309.76 64.32C309.88 64.87 310.08 65.39 310.35 65.87C310.09 66.28 309.66 66.95 309.38 67.38C309.56 67.64 309.75 67.89 309.97 68.13C310.27 68.45 310.59 68.73 310.93 68.97L312.13 67.69C312.54 67.92 312.97 68.08 313.42 68.16L313.66 69.94C314.42 70 315.2 69.9 315.96 69.65L316.23 67.78C316.64 67.59 317.05 67.34 317.43 67.03L318.66 68.01C318.93 67.76 319.19 67.48 319.43 67.18C319.76 66.77 320.06 66.34 320.31 65.88L319.27 64.67C319.51 64.18 319.69 63.67 319.81 63.15L321.39 62.75C321.54 61.81 321.54 60.86 321.4 59.95C320.91 59.98 320.22 60.01 319.83 60.02C319.71 59.52 319.54 59.04 319.3 58.59L320.32 57.08C320.11 56.76 319.88 56.46 319.62 56.18C319.3 55.84 318.95 55.55 318.58 55.31L317.44 56.67C317.01 56.43 316.54 56.27 316.06 56.2L315.92 54.43C315.18 54.38 314.43 54.48 313.7 54.72L313.54 56.52C313.03 56.73 312.54 57.03 312.08 57.41L310.88 56.46ZM316.9 59.55C318.03 60.76 318 62.92 316.82 64.38C315.64 65.83 313.78 66.02 312.65 64.81C311.53 63.6 311.57 61.45 312.73 60.01C313.9 58.55 315.77 58.34 316.9 59.55Z" fill="#FFE5B9"/>
<path d="M414.79 181.72V224.36L456.86 226.99L414.79 181.72ZM422.3 200.19L439.98 219.24L422.3 218.25V200.19Z" fill="#92D5CD"/>
<path d="M449.49 200.08L446.94 202.45L452.37 207.91L455.09 205.41C455.3 205.17 455.38 204.84 455.32 204.47C455.25 204.1 455.04 203.73 454.74 203.44L451.86 200.56C451.52 200.21 451.09 199.96 450.65 199.87C450.2 199.78 449.79 199.85 449.49 200.08Z" fill="#45897C"/>
<path d="M431.44 227.14L450.95 209.22L445.54 203.76L426.24 221.69L431.44 227.14Z" fill="#45897C"/>
<path d="M429.93 228.52L430.07 228.39L424.88 222.94L424.74 223.07L423.04 230.11L429.93 228.52Z" fill="#45897C"/>
<path d="M261.16 191.45C259.75 191.4 258.38 190.86 257.21 189.89C256.05 188.93 255.15 187.59 254.62 186.04C254.09 184.49 253.95 182.8 254.22 181.18C254.49 179.56 255.16 178.07 256.14 176.91C257.13 175.75 258.39 174.96 259.77 174.66C261.15 174.35 262.59 174.54 263.9 175.2C265.21 175.86 266.34 176.97 267.14 178.39C267.94 179.81 268.36 181.47 268.36 183.16C268.36 185.43 267.59 187.57 266.24 189.13C264.88 190.67 263.05 191.51 261.16 191.45ZM261.16 177.33C260.23 177.31 259.33 177.62 258.56 178.22C257.79 178.81 257.2 179.67 256.85 180.67C256.5 181.67 256.41 182.78 256.59 183.86C256.77 184.94 257.21 185.94 257.86 186.73C258.51 187.52 259.34 188.08 260.25 188.32C261.16 188.56 262.1 188.48 262.96 188.08C263.82 187.68 264.56 186.99 265.08 186.08C265.6 185.17 265.88 184.1 265.88 182.99C265.88 181.51 265.37 180.08 264.49 179.01C263.6 177.97 262.4 177.36 261.16 177.33Z" fill="#D5D3D0"/>
<path d="M262.55 172.09L259.91 172.06V183.8L262.55 183.87V172.09Z" fill="#D5D3D0"/>
<path d="M261.22 206.3C260.87 206.28 260.53 206.1 260.29 205.79C260.04 205.48 259.9 205.08 259.9 204.66V194.2C259.9 193.78 260.04 193.39 260.29 193.11C260.54 192.83 260.87 192.67 261.22 192.68C261.57 192.69 261.91 192.87 262.16 193.17C262.41 193.47 262.55 193.88 262.55 194.29V204.79C262.53 205.2 262.38 205.57 262.14 205.85C261.89 206.13 261.57 206.29 261.22 206.3Z" fill="#D5D3D0"/>
<path d="M276.09 220.78L274.65 217.17L275.4 216.66L276.91 220.27L276.09 220.78Z" fill="#D5D3D0"/>
<path d="M274.65 199.32L248.21 198.18V199.72L274.65 200.91V199.32Z" fill="#D5D3D0"/>
<path d="M255.84 187.29L246.05 218.48L247.13 218.78L251.82 212.51L259.31 190.04L255.84 187.29Z" fill="#D5D3D0"/>
<path d="M265.94 187.82L276.57 217.85L274.31 218.66L270.85 213.75L262.94 190.56L265.94 187.82Z" fill="#D5D3D0"/>
<path d="M148.56 200.5C148.44 200.5 148.32 200.46 148.21 200.39C148.1 200.32 148 200.22 147.92 200.1C147.75 199.85 147.66 199.53 147.66 199.2C147.66 198.87 147.75 198.56 147.92 198.33C148 198.21 148.1 198.12 148.21 198.06C148.32 198 148.44 197.97 148.56 197.98C148.74 197.99 148.92 198.07 149.07 198.22C149.22 198.37 149.34 198.57 149.41 198.8C149.48 199.03 149.5 199.29 149.46 199.53C149.42 199.77 149.34 199.99 149.21 200.16C149.13 200.28 149.02 200.37 148.91 200.42C148.8 200.49 148.68 200.51 148.56 200.5ZM161.64 201.28L159.8 201.18L153.56 187.53V200.85L152.15 200.78V184.12L153.91 184.17L160.2 197.76V184.36L161.64 184.4V201.28ZM171.38 201.79L164.53 201.43V184.48L170.88 184.66V186.63L166.47 186.49V191.72L170.39 191.87V193.84L166.47 193.68V199.56L171.37 199.8V201.79H171.38ZM180.38 186.95L177.36 186.85V202.11L175.36 202.01V186.8L172.38 186.71V184.73L180.39 184.96V186.95H180.38Z" fill="white"/>
<path d="M308.62 150.32L281 245.76L284.72 246.13L312.59 150.26" fill="#E6E4E3"/>
<path d="M309.9 150.3L282.2 245.88L285.93 246.25L313.88 150.24" fill="#908D89"/>
<path d="M329.91 164.75L306.59 164.72V161.52L329.91 161.47V164.75Z" fill="#797672"/>
<path d="M325.63 179.43L302.53 179.01V175.84L325.63 176.17V179.43Z" fill="#797672"/>
<path d="M321.39 193.97L298.5 193.18V190.01L321.39 190.72V193.97Z" fill="#797672"/>
<path d="M317.19 208.37L294.52 207.21V204.06L317.19 205.13V208.37Z" fill="#797672"/>
<path d="M313.02 222.63L290.57 221.11V217.97L313.02 219.41V222.63Z" fill="#797672"/>
<path d="M308.9 236.76L286.65 234.88V231.76L308.9 233.56V236.76Z" fill="#797672"/>
<path d="M301.88 247.81L305.79 248.19L335.09 149.92L330.91 149.98L301.88 247.81Z" fill="#E6E4E3"/>
<path d="M303.14 247.93L307.06 248.32L336.45 149.9L332.26 149.96L303.14 247.93Z" fill="#908D89"/>
<defs>
<radialGradient id="paint0_radial" cx="0" cy="0" r="1" gradientUnits="userSpaceOnUse" gradientTransform="translate(524.592 90.2151) scale(102.653)">
<stop stop-color="#E86E58"/>
<stop offset="0.9413" stop-color="#CC5444"/>
</radialGradient>
<radialGradient id="paint1_radial" cx="0" cy="0" r="1" gradientUnits="userSpaceOnUse" gradientTransform="translate(520.319 173.086) scale(93.412)">
<stop stop-color="#57AA9A"/>
<stop offset="0.9413" stop-color="#45897C"/>
</radialGradient>
<radialGradient id="paint2_radial" cx="0" cy="0" r="1" gradientUnits="userSpaceOnUse" gradientTransform="translate(363.483 224.002) scale(113.818)">
<stop offset="0.1701" stop-color="#29C3E5"/>
<stop offset="0.9336" stop-color="#33D5F9"/>
</radialGradient>
<radialGradient id="paint3_radial" cx="0" cy="0" r="1" gradientUnits="userSpaceOnUse" gradientTransform="translate(264.951 58.53) scale(68.2375)">
<stop offset="0.1159" stop-color="#FAC369"/>
<stop offset="1" stop-color="#F7B548"/>
</radialGradient>
<linearGradient id="paint4_linear" x1="247.015" y1="121.711" x2="239.021" y2="136.116" gradientUnits="userSpaceOnUse">
<stop stop-color="#522CD5"/>
<stop offset="0.4397" stop-color="#8A6FE8"/>
</linearGradient>
<linearGradient id="paint5_linear" x1="242.89" y1="121.645" x2="242.89" y2="137.109" gradientUnits="userSpaceOnUse">
<stop offset="0.0804" stop-color="#522CD5"/>
<stop offset="0.4516" stop-color="#8A6FE8"/>
</linearGradient>
<linearGradient id="paint6_linear" x1="241.403" y1="136.572" x2="237.24" y2="156.867" gradientUnits="userSpaceOnUse">
<stop stop-color="#522CD5"/>
<stop offset="0.4397" stop-color="#8A6FE8"/>
</linearGradient>
<radialGradient id="paint7_radial" cx="0" cy="0" r="1" gradientUnits="userSpaceOnUse" gradientTransform="translate(241.179 150.072) rotate(37.357) scale(6.63135 6.47205)">
<stop offset="0.034" stop-color="#522CD5"/>
<stop offset="0.9955" stop-color="#8A6FE8"/>
</radialGradient>
<linearGradient id="paint8_linear" x1="249.826" y1="122.326" x2="253.142" y2="138.489" gradientUnits="userSpaceOnUse">
<stop stop-color="#522CD5"/>
<stop offset="0.4397" stop-color="#8A6FE8"/>
</linearGradient>
<linearGradient id="paint9_linear" x1="249.826" y1="122.326" x2="253.142" y2="138.489" gradientUnits="userSpaceOnUse">
<stop stop-color="#522CD5"/>
<stop offset="0.4397" stop-color="#8A6FE8"/>
</linearGradient>
<linearGradient id="paint10_linear" x1="254.411" y1="137.393" x2="264.321" y2="155.252" gradientUnits="userSpaceOnUse">
<stop stop-color="#522CD5"/>
<stop offset="0.4397" stop-color="#8A6FE8"/>
</linearGradient>
<radialGradient id="paint11_radial" cx="0" cy="0" r="1" gradientUnits="userSpaceOnUse" gradientTransform="translate(262.549 150.876) scale(3.94501 3.5114)">
<stop offset="0.034" stop-color="#522CD5"/>
<stop offset="1" stop-color="#8A6FE8"/>
</radialGradient>
<radialGradient id="paint12_radial" cx="0" cy="0" r="1" gradientUnits="userSpaceOnUse" gradientTransform="translate(246.434 91.1717) rotate(-21.16) scale(23.6961 21.8107)">
<stop offset="0.4744" stop-color="#A08BE8"/>
<stop offset="0.8618" stop-color="#8065E0"/>
</radialGradient>
<radialGradient id="paint13_radial" cx="0" cy="0" r="1" gradientUnits="userSpaceOnUse" gradientTransform="translate(259.606 101.911) rotate(-21.16) scale(15.3714 14.1484)">
<stop offset="0.2022" stop-color="#E1DFDD"/>
<stop offset="0.7337" stop-color="white"/>
</radialGradient>
<radialGradient id="paint14_radial" cx="0" cy="0" r="1" gradientUnits="userSpaceOnUse" gradientTransform="translate(240.109 84.7893) rotate(-21.16) scale(3.18666 2.93311)">
<stop stop-color="#8065E0"/>
<stop offset="0.8628" stop-color="#512BD4"/>
</radialGradient>
<linearGradient id="paint15_linear" x1="250.302" y1="102.163" x2="264.793" y2="120.454" gradientUnits="userSpaceOnUse">
<stop offset="0.3393" stop-color="#967FE6"/>
<stop offset="1" stop-color="#8A6FE8"/>
</linearGradient>
<radialGradient id="paint16_radial" cx="0" cy="0" r="1" gradientUnits="userSpaceOnUse" gradientTransform="translate(245.053 105.904) rotate(-11.8842) scale(6.5118 5.86051)">
<stop stop-color="#8065E0"/>
<stop offset="0.8628" stop-color="#512BD4"/>
</radialGradient>
<radialGradient id="paint17_radial" cx="0" cy="0" r="1" gradientUnits="userSpaceOnUse" gradientTransform="translate(270.317 109.237) rotate(169.837) scale(7.11279 6.6381)">
<stop stop-color="#8065E0"/>
<stop offset="0.8628" stop-color="#512BD4"/>
</radialGradient>
</defs>
</svg>
