<svg width="636" height="300" viewBox="0 0 636 300" fill="none" xmlns="http://www.w3.org/2000/svg">
<path d="M445.07 151.28C445.08 151.16 445.12 151.03 445.13 150.91C447.9 124.71 427.37 103.46 399.29 103.42C390.09 103.41 381.27 105.71 373.43 109.68C368.31 83.53 344.64 64.36 314.14 64.33C284.29 64.3 257.06 82.64 245.93 107.88C228.86 98.62 186.89 112.89 199.93 152.18C180.19 151.41 149.72 165.21 162.29 210.51C318.3 204.18 418.9 199.27 473.51 198.52C475.02 196.42 477.51 192.59 478.26 185.68C480.3 166.7 465.39 151.31 445.07 151.28Z" fill="url(#paint0_radial)"/>
<path d="M269.3 106.75H266.38V191.34H269.3V106.75Z" fill="#BBB8B4"/>
<path d="M316.27 91.8H313.35V191.34H316.27V91.8Z" fill="#BBB8B4"/>
<path d="M363.24 70.07H360.32V191.34H363.24V70.07Z" fill="#BBB8B4"/>
<path d="M410.2 90.48H407.28V191.35H410.2V90.48Z" fill="#BBB8B4"/>
<path d="M266.38 206.17C324.78 203.7 372.4 201.66 410.1 200.29V177.61H266.38V206.17Z" fill="#9C9894"/>
<path d="M410.1 200.29C419.68 199.94 428.62 199.64 436.93 199.38V173.12L410.1 177.61V200.29Z" fill="#B3AFAB"/>
<path d="M408.26 129.15H267.81V132.07H408.26V129.15Z" fill="#BBB8B4"/>
<path d="M408.99 152.95H251.79V155.87H408.99V152.95Z" fill="#BBB8B4"/>
<path d="M532.16 202.77L527.21 208.33C525.88 209.8 523.61 209.92 522.13 208.59C520.66 207.26 520.54 204.99 521.87 203.51L527.97 196.8L532.16 202.77Z" fill="#8A6FE8"/>
<path d="M546.96 213.16L521.67 219.63C520.95 219.81 520.21 219.38 520.03 218.66L517.34 208.13C517.16 207.41 517.59 206.67 518.31 206.49L543.6 200.02C544.32 199.84 545.06 200.27 545.24 200.99L547.93 211.52C548.12 212.24 547.68 212.98 546.96 213.16Z" fill="#4A4844"/>
<path d="M509.53 217.54L524.29 213.77C524.8 213.64 525.32 213.95 525.45 214.46C525.58 214.97 525.27 215.49 524.76 215.62L510 219.39C509.49 219.52 508.97 219.21 508.84 218.7C508.71 218.19 509.02 217.67 509.53 217.54Z" fill="#4A4844"/>
<path d="M520.74 212.57L517.6 213.37C517.23 213.46 516.86 213.24 516.76 212.87L516.06 210.15C515.97 209.78 516.19 209.41 516.56 209.31L519.7 208.51C520.07 208.42 520.44 208.64 520.54 209.01L521.24 211.73C521.33 212.1 521.11 212.48 520.74 212.57Z" fill="#4A4844"/>
<path d="M466.11 214.52C466.04 208.18 466.94 195.32 473.48 184.55L479.88 188.43C473.94 198.2 473.5 209.6 473.64 214.58C473.65 214.99 469.81 215.36 466.11 214.52Z" fill="url(#paint1_linear)"/>
<path d="M473.63 214.51L467.71 214.48L462.18 246.16L474.07 246.21C474.98 246.21 475.66 245.48 475.6 244.58L473.63 214.51Z" fill="#522CD5"/>
<path d="M449.5 237.83C448.47 238.64 448.49 239.81 448.57 241.05L448.82 244.85C448.87 245.53 449.46 246.09 450.14 246.09L462.53 246.14C463.3 246.14 463.88 245.52 463.83 244.75L463.75 240.82C463.66 239.39 464.14 238.87 465.24 237.52C467.14 235.22 472.74 222.67 472.21 214.5L466.11 214.47C465.7 219.33 459.3 230.1 449.5 237.83Z" fill="url(#paint2_linear)"/>
<path d="M448.57 241.05C448.51 240.18 448.5 239.36 448.84 238.65L464.29 238.72C463.86 239.35 463.68 239.9 463.74 240.81L463.82 244.74C463.87 245.51 463.29 246.13 462.52 246.13L450.13 246.08C449.45 246.08 448.86 245.52 448.81 244.84L448.57 241.05Z" fill="url(#paint3_radial)"/>
<path d="M495.83 219.26L503.39 218.32L499.14 184.12L491.58 185.06L495.83 219.26Z" fill="url(#paint4_linear)"/>
<path d="M502.84 214.26L496.85 214.23L495.19 246.26L507.22 246.31C508.13 246.31 508.74 245.58 508.56 244.66L502.84 214.26Z" fill="#522CD5"/>
<path d="M485.42 237.95C484.5 238.79 484.52 239.86 484.76 241.11L485.48 244.95C485.61 245.64 486.28 246.2 486.96 246.2L504.16 246.28C504.94 246.28 505.45 245.66 505.31 244.87L504.7 240.89C504.43 239.45 504.64 239.02 504.61 237.16C504.56 233.68 502.95 222.5 501.4 214.24L495.23 214.21C495.42 219.13 493.29 230.82 485.42 237.95Z" fill="url(#paint5_linear)"/>
<path d="M504.7 240.9L505.31 244.88C505.46 245.66 504.94 246.29 504.16 246.29L486.96 246.21C486.27 246.21 485.6 245.64 485.48 244.96L484.76 241.12C484.59 240.21 484.54 239.4 484.87 238.7L504.58 238.79C504.55 239.49 504.53 240 504.7 240.9Z" fill="url(#paint6_radial)"/>
<path d="M461.02 166.32L461.14 159C451.93 158.84 445.09 156.11 440.83 150.87C433.11 141.37 435.82 126.62 435.85 126.47L428.67 125.1C428.53 125.84 425.31 143.38 435.16 155.49C440.84 162.48 449.55 166.13 461.02 166.32Z" fill="#8A6FE8"/>
<path d="M449.61 163.51C448.67 153.09 451.67 145.4 451.67 145.4L449.32 145.01L449.27 144.96C455.68 127.19 474.04 115.98 493.34 119.19C515.08 122.81 529.78 143.36 526.16 165.1C522.54 186.84 501.99 201.54 480.25 197.92C463.09 195.07 450.33 181.67 447.48 165.46C447.44 164.77 447.65 163.61 449.61 163.51Z" fill="url(#paint7_radial)"/>
<path d="M449.54 172.84L517.42 184.13C515.47 186.47 513.26 188.56 510.84 190.39L453.74 180.89C452.05 178.37 450.64 175.68 449.54 172.84Z" fill="#D8CFF7"/>
<path d="M539.92 200.19L541.1 207.54C541.4 209.5 540.06 211.34 538.09 211.64C536.13 211.94 534.29 210.6 533.99 208.63L532.78 201.09L539.92 200.19Z" fill="#8A6FE8"/>
<path d="M535.15 201.01L536.15 208.39C536.4 210.36 535.01 212.16 533.04 212.41C531.07 212.66 529.27 211.27 529.02 209.3L528 201.73L535.15 201.01Z" fill="#8A6FE8"/>
<path d="M541.76 197.99L544.42 204.94C545.12 206.8 544.18 208.87 542.32 209.57C540.46 210.27 538.39 209.33 537.69 207.47L534.96 200.34L541.76 197.99Z" fill="#8A6FE8"/>
<path d="M536.81 201.02C539.78 194.96 541.51 184.6 536.62 175.34C533.65 169.72 527.14 162.58 513 160.53L511.84 167.66C520.43 168.9 527.44 173.41 530.47 179.14C533.75 185.35 533.04 193.03 530.73 197.77L536.81 201.02Z" fill="url(#paint8_linear)"/>
<path d="M510.27 170.59C514.32 170.59 517.6 167.31 517.6 163.26C517.6 159.21 514.32 155.93 510.27 155.93C506.22 155.93 502.94 159.21 502.94 163.26C502.94 167.31 506.22 170.59 510.27 170.59Z" fill="url(#paint9_radial)"/>
<path d="M534.76 204.95C538.91 204.95 542.28 201.58 542.28 197.43C542.28 193.28 538.91 189.91 534.76 189.91C530.61 189.91 527.24 193.28 527.24 197.43C527.24 201.58 530.61 204.95 534.76 204.95Z" fill="url(#paint10_radial)"/>
<path d="M449.61 163.51C448.68 153.22 451.6 145.59 451.67 145.41L492.51 152.2C492.51 152.2 495.13 152.37 494.74 154.72C494.35 157.07 493.15 163.69 491.93 171.04C491.68 172.55 490.32 173.07 489.35 172.91C489.34 172.9 453.72 166.97 449.61 163.51Z" fill="url(#paint11_radial)"/>
<path d="M474.21 167.62C474.21 167.62 468.76 161.6 467.68 160.48C466.61 159.36 465.54 159.13 464.26 159.91C462.97 160.69 455.87 164.57 455.87 164.57L474.21 167.62Z" fill="#A08BE8"/>
<path d="M447.57 165.93C447.57 165.93 446.83 163.65 449.61 163.51C449.61 163.5 489.77 170.16 489.77 170.16C490.71 170.32 492 169.96 492.25 169.07C492.14 169.72 492.03 170.37 491.92 171.04C491.69 172.41 490.55 172.97 489.62 172.94C489.53 172.94 489.43 172.93 489.34 172.92L486.59 172.46L447.57 165.93Z" fill="#512BD4"/>
<path d="M458.75 155.47C459.18 152.6 458.15 150.07 456.45 149.81C454.75 149.55 453.01 151.67 452.58 154.53C452.15 157.4 453.18 159.93 454.88 160.19C456.58 160.45 458.31 158.34 458.75 155.47Z" fill="#512BD4"/>
<path d="M456.15 152.27C457.09 153.58 456.78 155.4 455.47 156.34C454.57 156.98 453.43 157.04 452.5 156.59C452.44 155.94 452.45 155.25 452.56 154.53C452.77 153.12 453.3 151.9 453.98 151.05C454.82 151.12 455.63 151.53 456.15 152.27Z" fill="#8065E0"/>
<path d="M483.52 159.7C484.04 156.85 483.08 154.29 481.39 153.98C479.69 153.67 477.9 155.74 477.38 158.59C476.86 161.44 477.82 164.01 479.51 164.31C481.21 164.62 483 162.55 483.52 159.7Z" fill="#512BD4"/>
<path d="M480.91 156.56C481.85 157.87 481.54 159.69 480.23 160.63C479.34 161.27 478.21 161.33 477.28 160.89C477.21 160.17 477.23 159.39 477.38 158.59C477.61 157.29 478.11 156.17 478.75 155.35C479.58 155.41 480.38 155.82 480.91 156.56Z" fill="#8065E0"/>
<path d="M456.25 183.49L469.14 185.57L470.98 174.17L458.08 172.08L456.25 183.49Z" fill="#512BD4"/>
<path d="M459.19 179.6C459.1 179.58 459.04 179.55 458.99 179.48C458.94 179.41 458.92 179.34 458.94 179.26C458.95 179.18 458.99 179.11 459.06 179.06C459.13 179.01 459.21 178.99 459.29 179.01C459.38 179.03 459.45 179.06 459.5 179.13C459.55 179.2 459.57 179.27 459.56 179.36C459.55 179.44 459.51 179.51 459.44 179.56C459.35 179.59 459.27 179.61 459.19 179.6Z" fill="white"/>
<path d="M462.62 180.11L462.06 180.02L460.97 177.46C460.94 177.4 460.92 177.33 460.91 177.26H460.9C460.9 177.33 460.88 177.47 460.85 177.7L460.51 179.77L460.02 179.69L460.54 176.54L461.13 176.64L462.18 179.13C462.23 179.23 462.25 179.3 462.27 179.34H462.28C462.28 179.25 462.3 179.11 462.33 178.91L462.66 176.88L463.15 176.96L462.62 180.11Z" fill="white"/>
<path d="M465.02 180.51L463.29 180.23L463.81 177.08L465.47 177.35L465.4 177.8L464.25 177.61L464.1 178.5L465.16 178.67L465.09 179.11L464.03 178.94L463.88 179.87L465.1 180.07L465.02 180.51Z" fill="white"/>
<path d="M467.92 178.2L467.04 178.05L466.59 180.76L466.08 180.68L466.53 177.97L465.65 177.83L465.72 177.38L467.99 177.75L467.92 178.2Z" fill="white"/>
<path d="M496.65 116.79L489.04 115.52L491.41 107.89L496.87 108.8L496.65 116.79Z" fill="#8577E5"/>
<path d="M494.75 109.53C497.78 109.53 500.24 107.07 500.24 104.04C500.24 101.01 497.78 98.55 494.75 98.55C491.72 98.55 489.26 101.01 489.26 104.04C489.26 107.08 491.72 109.53 494.75 109.53Z" fill="#D8CFF7"/>
<path d="M498.76 122.05C499.1 122.11 499.43 121.85 499.45 121.51C499.65 117.83 497.05 114.51 493.34 113.9C489.62 113.28 486.09 115.58 485.09 119.12C485 119.46 485.22 119.8 485.56 119.85L498.76 122.05Z" fill="url(#paint12_radial)"/>
<path d="M426.13 123.4L423.93 116.29C423.36 114.39 424.43 112.39 426.33 111.81C428.23 111.24 430.23 112.31 430.81 114.21L433.07 121.5L426.13 123.4Z" fill="#8A6FE8"/>
<path d="M424.54 128.86L420.99 122.31C420.06 120.56 420.72 118.38 422.47 117.45C424.22 116.52 426.4 117.18 427.33 118.93L430.97 125.65L424.54 128.86Z" fill="#8A6FE8"/>
<path d="M430.42 124.8L428.26 108.21C428.03 106.24 429.43 104.45 431.4 104.22C433.37 103.99 435.16 105.39 435.39 107.36L437.57 124.14L430.42 124.8Z" fill="#8A6FE8"/>
<path d="M431.18 126.45L438.86 114.49C439.97 112.85 442.2 112.41 443.85 113.52C445.5 114.63 445.93 116.86 444.82 118.51L437.03 130.62L431.18 126.45Z" fill="#8A6FE8"/>
<path d="M431.84 134.94C435.99 134.94 439.36 131.57 439.36 127.42C439.36 123.27 435.99 119.9 431.84 119.9C427.69 119.9 424.32 123.27 424.32 127.42C424.32 131.57 427.69 134.94 431.84 134.94Z" fill="url(#paint13_radial)"/>
<path d="M513.87 128.57L512.1 135.33C511.84 136.34 510.71 136.84 509.79 136.37L491.99 127.33L513.87 128.57Z" fill="#605D5A"/>
<path d="M473.92 115.36C463.05 114.29 463.9 119.4 470.08 122.18C482.26 127.65 508.44 130.94 515.68 131.37C519.98 131.62 519.09 127.11 516.11 126.47C516.12 126.46 484.79 116.43 473.92 115.36Z" fill="#FCCF84"/>
<path d="M500.86 98.82C482.59 94.31 474.85 111.54 473.7 115.93C473.51 116.65 473.83 117.4 474.48 117.76C476.7 118.99 482.54 121.81 493.17 124.39C503.38 126.87 511.6 127.88 515.03 128.22C516.02 128.32 516.9 127.61 517.03 126.63C517.73 120.87 519.33 103.38 500.86 98.82Z" fill="url(#paint14_linear)"/>
<path d="M479.64 111.29C478.91 112.31 479.44 113.75 480.66 114.07L481.84 114.37C482.64 114.58 483.48 114.27 483.95 113.6C486.3 110.27 494.45 100.88 510.27 103.38C508.41 101.81 506.07 100.48 503.16 99.5C490.53 98.22 482.64 107.06 479.64 111.29Z" fill="#FCCF84"/>
<path d="M231.981 58.2084L224.251 51.5078L169.624 114.525L177.354 121.225L231.981 58.2084Z" fill="#CCCAC7"/>
<path d="M244.6 73.66L250 67.43L224.62 45.43L214.64 56.93L233.94 73.66H244.6Z" fill="#E86E58"/>
<path d="M314.64 49.79H251.13V82.38H314.64V49.79Z" fill="#F7B548"/>
<path d="M314.64 49.79H307.55V82.38H314.64V49.79Z" fill="#FFE5B9"/>
<path d="M226.1 60.39C228.176 60.39 229.86 58.7066 229.86 56.63C229.86 54.5534 228.176 52.87 226.1 52.87C224.023 52.87 222.34 54.5534 222.34 56.63C222.34 58.7066 224.023 60.39 226.1 60.39Z" fill="#FDC9B5"/>
<path d="M251.54 41.11H242.62V86.11H251.54V41.11Z" fill="#625F5B"/>
<path d="M302.72 82.45H242.62V86.11H302.72V82.45Z" fill="#797672"/>
<path d="M189.1 198.44L189.05 198.43C188.62 198.37 188.33 197.98 188.39 197.55L190.11 185.48C190.17 185.05 190.57 184.76 190.99 184.82L191.04 184.83C191.47 184.89 191.76 185.29 191.7 185.71L189.98 197.78C189.92 198.21 189.52 198.5 189.1 198.44Z" fill="#625F5B"/>
<path d="M190.05 186.82C190.18 186.98 190.23 187.21 190.15 187.42L188.89 191.01C188.78 191.33 188.42 191.5 188.1 191.39C187.78 191.28 187.61 190.92 187.72 190.6L188.98 187.01C189.09 186.69 189.45 186.52 189.77 186.63C189.88 186.67 189.98 186.74 190.05 186.82Z" fill="#3E8EED"/>
<path d="M171.69 177.58V172.44C171.69 171.88 172.46 171.73 172.67 172.24L174.82 177.38C174.96 177.72 174.71 178.09 174.35 178.09H172.2C171.92 178.09 171.69 177.86 171.69 177.58Z" fill="#0064DA"/>
<path d="M168.11 177.58V172.44C168.11 171.88 168.88 171.73 169.09 172.24L171.24 177.38C171.38 177.72 171.13 178.09 170.77 178.09H168.62C168.34 178.09 168.11 177.86 168.11 177.58Z" fill="#0064DA"/>
<path d="M172.92 186.9H175.59V201.23H172.92V186.9Z" fill="#0064DA"/>
<path d="M163.74 185.72L164.2 180.92C164.39 178.8 166.17 177.17 168.3 177.17L180.41 176.85C182.54 176.85 184.32 178.48 184.51 180.6L184.96 185.72C185.01 186.28 184.57 186.77 184 186.77H177.05C176.75 188.09 175.57 189.07 174.16 189.07C172.75 189.07 171.57 188.09 171.27 186.77H164.7C164.14 186.77 163.69 186.29 163.74 185.72Z" fill="#3E8EED"/>
<path d="M176.3 181.05H184.55L184.85 184.48H176.3C175.57 184.48 174.98 183.89 174.98 183.16V182.36C174.98 181.64 175.57 181.05 176.3 181.05Z" fill="#0064DA"/>
<path d="M184.58 181.33C183.86 181.33 183.28 181.91 183.28 182.63C183.28 183.35 183.86 183.93 184.58 183.93C184.66 183.93 184.73 183.92 184.8 183.91L184.58 181.33Z" fill="white"/>
<path d="M180.38 183.94C179.66 183.94 179.08 183.36 179.08 182.64C179.08 181.92 179.66 181.34 180.38 181.34C181.1 181.34 181.68 181.92 181.68 182.64C181.69 183.36 181.1 183.94 180.38 183.94Z" fill="white"/>
<path d="M183.34 216.25L165.37 215.52C163.27 215.52 161.63 213.72 161.81 211.63L163.56 192.49C163.61 191.9 164.11 191.45 164.7 191.45H184.07C184.63 191.45 185.09 191.88 185.14 192.43L186.9 212.36C187.08 214.45 185.44 216.25 183.34 216.25Z" fill="#0064DA"/>
<path d="M163.36 194.79L163.56 192.49C163.61 191.9 164.11 191.45 164.7 191.45H184.07C184.63 191.45 185.09 191.88 185.14 192.43L185.35 194.79H163.36Z" fill="#3E8EED"/>
<path d="M182.61 193.74C182.27 193.74 181.99 193.46 181.99 193.12C181.99 192.78 182.27 192.5 182.61 192.5C182.95 192.5 183.23 192.78 183.23 193.12C183.23 193.46 182.95 193.74 182.61 193.74Z" fill="#A3C9F6"/>
<path d="M180.32 193.74C179.98 193.74 179.7 193.46 179.7 193.12C179.7 192.78 179.98 192.5 180.32 192.5C180.66 192.5 180.94 192.78 180.94 193.12C180.94 193.46 180.67 193.74 180.32 193.74Z" fill="#A3C9F6"/>
<path d="M178.03 193.74C177.69 193.74 177.41 193.46 177.41 193.12C177.41 192.78 177.69 192.5 178.03 192.5C178.37 192.5 178.65 192.78 178.65 193.12C178.65 193.46 178.38 193.74 178.03 193.74Z" fill="#A3C9F6"/>
<path d="M187.72 192.6C188.23 192.97 188.32 193.7 187.91 194.17C187.03 195.16 185.56 196.47 183.54 197.17C180.71 198.14 177.72 197.66 174.64 195.75C174.12 195.43 173.98 194.72 174.33 194.22C174.65 193.76 175.28 193.64 175.75 193.94C178.27 195.5 180.65 195.92 182.84 195.16C184.43 194.61 185.6 193.57 186.3 192.78C186.66 192.35 187.27 192.28 187.72 192.6Z" fill="#3E8EED"/>
<path d="M188.16 190.04C189.59 189.74 191.16 187.69 191.3 187.28C191.44 186.87 192.32 186.64 192.43 188.3C192.51 189.57 192 191.77 189.29 191.83C188.29 191.85 188.16 190.04 188.16 190.04Z" fill="#3E8EED"/>
<path d="M190.44 191.55L188.25 189.9C187.78 189.55 187.11 189.64 186.76 190.11L184.93 192.55C184.58 193.02 184.67 193.69 185.14 194.04L187.33 195.69C187.8 196.04 188.47 195.95 188.82 195.48L190.65 193.04C191.01 192.57 190.91 191.91 190.44 191.55Z" fill="#0064DA"/>
<path d="M177.24 122.56L168.69 115.15C167.01 113.69 166.83 111.15 168.29 109.48L174.13 102.74C175.59 101.06 178.13 100.88 179.8 102.34L188.35 109.75C190.03 111.21 190.21 113.75 188.75 115.42L182.91 122.16C181.46 123.84 178.92 124.02 177.24 122.56Z" fill="#625F5B"/>
<path d="M186.722 117.934L172.094 105.253L103.876 183.949L118.504 196.63L186.722 117.934Z" fill="#CC5444"/>
<path d="M201.3 204.79L200.88 183C200.87 182.45 200.66 181.93 200.29 181.53L183.06 162.85C182.63 162.38 182.06 162.11 181.39 162.13L153.37 162.55C152.64 162.56 151.97 162.92 151.56 163.53L140.97 179.1C140.72 179.47 140.58 179.91 140.58 180.36V197.17H138.87V220.21H199.48V207.04C200.53 206.82 201.32 205.9 201.3 204.79ZM180.46 166.61L196.44 183.93L196.69 197.15H164.71L164.16 166.84L180.46 166.61ZM145.05 181.03L154.6 166.99L159.7 166.91L160.25 197.15H145.05V181.03Z" fill="#625F5B"/>
<path d="M101.55 180.62L116.49 180.73C118.54 180.75 120.29 182.21 120.66 184.23L128.67 228.08H101.55V180.62Z" fill="#E86E58"/>
<path d="M211.72 201.72H198.27C197.33 201.72 196.42 202.04 195.7 202.64L186.77 209.94C185.9 210.65 185.4 211.71 185.4 212.82V216.31C185.4 217.65 184.32 218.73 182.98 218.73H159.76C158.05 218.73 156.5 217.75 155.77 216.21L147.7 199.18C147.11 197.94 145.86 197.15 144.49 197.15H101.55V224.87C101.55 226.64 102.99 228.08 104.76 228.08H233.35C235.14 228.08 236.59 226.63 236.59 224.84V213.37L214.09 202.43C213.38 201.97 212.56 201.72 211.72 201.72Z" fill="#E86E58"/>
<path d="M98.1399 232.23H108.41C109.44 232.23 110.27 231.4 110.27 230.37V220.81C110.27 219.78 109.44 218.95 108.41 218.95H96.4899C95.3399 218.95 94.4599 219.99 94.6499 221.13L96.2899 230.69C96.4599 231.58 97.2299 232.23 98.1399 232.23Z" fill="#625F5B"/>
<path d="M239.15 232.23H228.88C227.85 232.23 227.02 231.4 227.02 230.37V220.81C227.02 219.78 227.85 218.95 228.88 218.95H240.79C241.94 218.95 242.82 219.99 242.63 221.13L240.99 230.69C240.83 231.58 240.05 232.23 239.15 232.23Z" fill="#625F5B"/>
<path d="M110.89 192.37C112.834 192.37 114.41 190.794 114.41 188.85C114.41 186.906 112.834 185.33 110.89 185.33C108.946 185.33 107.37 186.906 107.37 188.85C107.37 190.794 108.946 192.37 110.89 192.37Z" fill="#FDC9B5"/>
<path d="M193.98 221.51H143.06V232.58H193.98V221.51Z" fill="#797672"/>
<path d="M205.07 246.2C214.962 246.2 222.98 238.181 222.98 228.29C222.98 218.399 214.962 210.38 205.07 210.38C195.179 210.38 187.16 218.399 187.16 228.29C187.16 238.181 195.179 246.2 205.07 246.2Z" fill="#625F5B"/>
<path d="M205.07 237.94C210.399 237.94 214.72 233.62 214.72 228.29C214.72 222.96 210.399 218.64 205.07 218.64C199.74 218.64 195.42 222.96 195.42 228.29C195.42 233.62 199.74 237.94 205.07 237.94Z" fill="white"/>
<path d="M205.07 232.01C207.125 232.01 208.79 230.344 208.79 228.29C208.79 226.235 207.125 224.57 205.07 224.57C203.016 224.57 201.35 226.235 201.35 228.29C201.35 230.344 203.016 232.01 205.07 232.01Z" fill="#B3AFAB"/>
<path d="M198.82 229.26C199.317 229.26 199.72 228.857 199.72 228.36C199.72 227.863 199.317 227.46 198.82 227.46C198.323 227.46 197.92 227.863 197.92 228.36C197.92 228.857 198.323 229.26 198.82 229.26Z" fill="#B3AFAB"/>
<path d="M211.35 229.26C211.847 229.26 212.25 228.857 212.25 228.36C212.25 227.863 211.847 227.46 211.35 227.46C210.853 227.46 210.45 227.863 210.45 228.36C210.45 228.857 210.853 229.26 211.35 229.26Z" fill="#B3AFAB"/>
<path d="M205.09 223C205.587 223 205.99 222.597 205.99 222.1C205.99 221.603 205.587 221.2 205.09 221.2C204.593 221.2 204.19 221.603 204.19 222.1C204.19 222.597 204.593 223 205.09 223Z" fill="#B3AFAB"/>
<path d="M205.09 235.52C205.587 235.52 205.99 235.117 205.99 234.62C205.99 234.123 205.587 233.72 205.09 233.72C204.593 233.72 204.19 234.123 204.19 234.62C204.19 235.117 204.593 235.52 205.09 235.52Z" fill="#B3AFAB"/>
<path d="M200.66 224.83C201.157 224.83 201.56 224.427 201.56 223.93C201.56 223.433 201.157 223.03 200.66 223.03C200.163 223.03 199.76 223.433 199.76 223.93C199.76 224.427 200.163 224.83 200.66 224.83Z" fill="#B3AFAB"/>
<path d="M209.51 233.68C210.007 233.68 210.41 233.277 210.41 232.78C210.41 232.283 210.007 231.88 209.51 231.88C209.013 231.88 208.61 232.283 208.61 232.78C208.61 233.277 209.013 233.68 209.51 233.68Z" fill="#B3AFAB"/>
<path d="M209.51 224.83C210.007 224.83 210.41 224.427 210.41 223.93C210.41 223.433 210.007 223.03 209.51 223.03C209.013 223.03 208.61 223.433 208.61 223.93C208.61 224.427 209.013 224.83 209.51 224.83Z" fill="#B3AFAB"/>
<path d="M200.66 233.68C201.157 233.68 201.56 233.277 201.56 232.78C201.56 232.283 201.157 231.88 200.66 231.88C200.163 231.88 199.76 232.283 199.76 232.78C199.76 233.277 200.163 233.68 200.66 233.68Z" fill="#B3AFAB"/>
<path d="M132.19 246.2C142.081 246.2 150.1 238.181 150.1 228.29C150.1 218.399 142.081 210.38 132.19 210.38C122.298 210.38 114.28 218.399 114.28 228.29C114.28 238.181 122.298 246.2 132.19 246.2Z" fill="#625F5B"/>
<path d="M132.19 237.94C137.519 237.94 141.84 233.62 141.84 228.29C141.84 222.96 137.519 218.64 132.19 218.64C126.86 218.64 122.54 222.96 122.54 228.29C122.54 233.62 126.86 237.94 132.19 237.94Z" fill="white"/>
<path d="M132.19 232.01C134.244 232.01 135.91 230.344 135.91 228.29C135.91 226.235 134.244 224.57 132.19 224.57C130.135 224.57 128.47 226.235 128.47 228.29C128.47 230.344 130.135 232.01 132.19 232.01Z" fill="#B3AFAB"/>
<path d="M125.94 229.26C126.437 229.26 126.84 228.857 126.84 228.36C126.84 227.863 126.437 227.46 125.94 227.46C125.442 227.46 125.04 227.863 125.04 228.36C125.04 228.857 125.442 229.26 125.94 229.26Z" fill="#B3AFAB"/>
<path d="M138.46 229.26C138.957 229.26 139.36 228.857 139.36 228.36C139.36 227.863 138.957 227.46 138.46 227.46C137.963 227.46 137.56 227.863 137.56 228.36C137.56 228.857 137.963 229.26 138.46 229.26Z" fill="#B3AFAB"/>
<path d="M132.2 223C132.697 223 133.1 222.597 133.1 222.1C133.1 221.603 132.697 221.2 132.2 221.2C131.703 221.2 131.3 221.603 131.3 222.1C131.3 222.597 131.703 223 132.2 223Z" fill="#B3AFAB"/>
<path d="M132.2 235.52C132.697 235.52 133.1 235.117 133.1 234.62C133.1 234.123 132.697 233.72 132.2 233.72C131.703 233.72 131.3 234.123 131.3 234.62C131.3 235.117 131.703 235.52 132.2 235.52Z" fill="#B3AFAB"/>
<path d="M127.77 224.83C128.267 224.83 128.67 224.427 128.67 223.93C128.67 223.433 128.267 223.03 127.77 223.03C127.273 223.03 126.87 223.433 126.87 223.93C126.87 224.427 127.273 224.83 127.77 224.83Z" fill="#B3AFAB"/>
<path d="M136.63 233.68C137.127 233.68 137.529 233.277 137.529 232.78C137.529 232.283 137.127 231.88 136.63 231.88C136.132 231.88 135.729 232.283 135.729 232.78C135.729 233.277 136.132 233.68 136.63 233.68Z" fill="#B3AFAB"/>
<path d="M136.63 224.83C137.127 224.83 137.529 224.427 137.529 223.93C137.529 223.433 137.127 223.03 136.63 223.03C136.132 223.03 135.729 223.433 135.729 223.93C135.729 224.427 136.132 224.83 136.63 224.83Z" fill="#B3AFAB"/>
<path d="M127.77 233.68C128.267 233.68 128.67 233.277 128.67 232.78C128.67 232.283 128.267 231.88 127.77 231.88C127.273 231.88 126.87 232.283 126.87 232.78C126.87 233.277 127.273 233.68 127.77 233.68Z" fill="#B3AFAB"/>
<path d="M176.12 237.01H167.28C166.17 237.01 165.27 236.11 165.27 235V221.14C165.27 220.03 166.17 219.13 167.28 219.13H176.12C177.23 219.13 178.13 220.03 178.13 221.14V235C178.14 236.1 177.24 237.01 176.12 237.01Z" fill="#E86E58"/>
<defs>
<radialGradient id="paint0_radial" cx="0" cy="0" r="1" gradientUnits="userSpaceOnUse" gradientTransform="translate(362.185 192.023) scale(121.727 120.509)">
<stop offset="0.1169" stop-color="#D8E8FB"/>
<stop offset="0.9695" stop-color="#B8D6F7"/>
</radialGradient>
<linearGradient id="paint1_linear" x1="475.651" y1="185.003" x2="469.311" y2="215.197" gradientUnits="userSpaceOnUse">
<stop offset="0.1342" stop-color="#522CD5"/>
<stop offset="0.53" stop-color="#8A6FE8"/>
</linearGradient>
<linearGradient id="paint2_linear" x1="471.829" y1="214.291" x2="452.993" y2="247.872" gradientUnits="userSpaceOnUse">
<stop stop-color="#522CD5"/>
<stop offset="0.4397" stop-color="#8A6FE8"/>
</linearGradient>
<radialGradient id="paint3_radial" cx="0" cy="0" r="1" gradientUnits="userSpaceOnUse" gradientTransform="translate(456.783 232.355) rotate(-179.739) scale(13.0522)">
<stop offset="0.034" stop-color="#522CD5"/>
<stop offset="0.9955" stop-color="#8A6FE8"/>
</radialGradient>
<linearGradient id="paint4_linear" x1="501.123" y1="184.54" x2="493.835" y2="218.832" gradientUnits="userSpaceOnUse">
<stop offset="0.1194" stop-color="#522CD5"/>
<stop offset="0.5181" stop-color="#8A6FE8"/>
</linearGradient>
<linearGradient id="paint5_linear" x1="506.915" y1="217.198" x2="490.58" y2="248.328" gradientUnits="userSpaceOnUse">
<stop stop-color="#522CD5"/>
<stop offset="0.4397" stop-color="#8A6FE8"/>
</linearGradient>
<radialGradient id="paint6_radial" cx="0" cy="0" r="1" gradientUnits="userSpaceOnUse" gradientTransform="translate(494.212 232.317) rotate(-179.739) scale(14.2051 14.19)">
<stop offset="0.034" stop-color="#522CD5"/>
<stop offset="0.9955" stop-color="#8A6FE8"/>
</radialGradient>
<radialGradient id="paint7_radial" cx="0" cy="0" r="1" gradientUnits="userSpaceOnUse" gradientTransform="translate(482.331 150.533) rotate(-170.561) scale(39.7392)">
<stop offset="0.4744" stop-color="#A08BE8"/>
<stop offset="0.8618" stop-color="#8065E0"/>
</radialGradient>
<linearGradient id="paint8_linear" x1="511.842" y1="180.778" x2="539.692" y2="180.778" gradientUnits="userSpaceOnUse">
<stop offset="0.2296" stop-color="#9780E6"/>
<stop offset="0.9374" stop-color="#8A6FE8"/>
</linearGradient>
<radialGradient id="paint9_radial" cx="0" cy="0" r="1" gradientUnits="userSpaceOnUse" gradientTransform="translate(510.513 160.738) rotate(180) scale(7.32878)">
<stop stop-color="#8065E0"/>
<stop offset="1" stop-color="#512BD4"/>
</radialGradient>
<radialGradient id="paint10_radial" cx="0" cy="0" r="1" gradientUnits="userSpaceOnUse" gradientTransform="translate(535.157 191.813) rotate(180) scale(14.6136)">
<stop stop-color="#8065E0"/>
<stop offset="1" stop-color="#512BD4"/>
</radialGradient>
<radialGradient id="paint11_radial" cx="0" cy="0" r="1" gradientUnits="userSpaceOnUse" gradientTransform="translate(454.35 143.35) rotate(-170.561) scale(30.9564)">
<stop offset="0.0933" stop-color="#E1DFDD"/>
<stop offset="0.8998" stop-color="white"/>
</radialGradient>
<radialGradient id="paint12_radial" cx="0" cy="0" r="1" gradientUnits="userSpaceOnUse" gradientTransform="translate(493.027 115.999) rotate(9.4389) scale(5.73764)">
<stop stop-color="#8065E0"/>
<stop offset="1" stop-color="#512BD4"/>
</radialGradient>
<radialGradient id="paint13_radial" cx="0" cy="0" r="1" gradientUnits="userSpaceOnUse" gradientTransform="translate(431.762 123.88) scale(11.2744)">
<stop stop-color="#8065E0"/>
<stop offset="1" stop-color="#512BD4"/>
</radialGradient>
<linearGradient id="paint14_linear" x1="494.734" y1="98.0872" x2="496.289" y2="129.208" gradientUnits="userSpaceOnUse">
<stop offset="0.5634" stop-color="#F7B548"/>
<stop offset="1" stop-color="#FCCF84"/>
</linearGradient>
</defs>
</svg>
