<svg width="636" height="300" viewBox="0 0 636 300" fill="none" xmlns="http://www.w3.org/2000/svg">
<path d="M205.88 176.35C191.88 176.35 178.32 172.43 165.75 164.63L171.86 154.78C215.37 181.79 256.68 145.13 257.09 144.76L264.87 153.35C264.38 153.79 252.73 164.24 234.81 170.92C225.09 174.55 215.38 176.35 205.88 176.35Z" fill="url(#paint0_linear)"/>
<path d="M245.68 144.06C230.18 144.06 201.01 138.14 174.12 99.96L183.6 93.29C216.84 140.5 252.33 132.06 253.82 131.68L256.8 142.88C256.27 143.02 252.17 144.06 245.68 144.06Z" fill="url(#paint1_linear)"/>
<path d="M374.22 204.12L371.44 193.53C390.58 188.49 399.4 184.9 403.42 182.79C398.78 181.52 388.55 179.79 366.15 178.9L366.59 167.97C408.07 169.62 416.37 173.95 417.18 181.32C417.94 188.4 411.15 194.4 374.22 204.12Z" fill="url(#paint2_linear)"/>
<path d="M282.8 212.68C274.22 212.4 261.09 211.34 249.92 209.23C232.77 205.98 224.54 201.28 223.25 194.01C221.68 185.15 230.84 177.4 253.85 168.11L257.95 178.26C237.89 186.36 234.63 191.06 234.12 192.13C234.79 192.92 238.29 196.05 253.44 198.74C263.69 200.57 275.51 201.48 283.16 201.73L282.8 212.68Z" fill="url(#paint3_linear)"/>
<path d="M248.8 123.91C247.99 123.2 228.8 104.66 229.56 82.51C230 69.72 235.29 57.24 248.35 47.26L255.52 56.64C245.42 64.35 241.73 75.29 241.41 84.35C240.8 100.89 256.45 114.91 256.61 115.05L248.8 123.91Z" fill="url(#paint4_linear)"/>
<path d="M374.91 127.64L375.8 115.75C386.81 116.57 395 113.83 398.88 108.04C403.49 101.16 402.27 89.89 395.45 76.29L406.11 70.95C417.43 93.51 413.81 107.19 408.79 114.67C402.41 124.18 390.38 128.8 374.91 127.64Z" fill="url(#paint5_linear)"/>
<path d="M446.35 103.24L435 99.45C429.49 112.26 422.04 122.22 412.76 127.72C404.6 132.55 391.16 134.67 380.07 133.85L378.13 144.99C398.76 146.52 428.65 143.25 446.35 103.24Z" fill="url(#paint6_linear)"/>
<path d="M451.56 173.71L375.01 162.15L376.68 151.02L453.2 162.58L451.56 173.71Z" fill="url(#paint7_linear)"/>
<path d="M368.69 134.31C362.52 134.31 357.51 129.3 357.51 123.13C357.51 116.96 362.52 111.95 368.69 111.95C374.86 111.95 379.87 116.96 379.87 123.13C379.87 129.31 374.86 134.31 368.69 134.31Z" fill="url(#paint8_radial)"/>
<path d="M370.79 150.06C364.62 150.06 359.61 145.05 359.61 138.88C359.61 132.71 364.62 127.7 370.79 127.7C376.96 127.7 381.97 132.71 381.97 138.88C381.97 145.06 376.96 150.06 370.79 150.06Z" fill="url(#paint9_radial)"/>
<path d="M369.37 165.6C363.2 165.6 358.19 160.59 358.19 154.42C358.19 148.25 363.2 143.24 369.37 143.24C375.54 143.24 380.55 148.25 380.55 154.42C380.55 160.61 375.55 165.6 369.37 165.6Z" fill="url(#paint10_radial)"/>
<path d="M362.19 181.16C356.02 181.16 351.01 176.15 351.01 169.98C351.01 163.81 356.02 158.8 362.19 158.8C368.36 158.8 373.37 163.81 373.37 169.98C373.37 176.16 368.37 181.16 362.19 181.16Z" fill="url(#paint11_radial)"/>
<path d="M343.6 232.91C343.7 223.25 342.34 203.66 332.37 187.26L322.62 193.17C331.66 208.06 332.34 225.42 332.12 233C332.12 233.63 337.96 234.19 343.6 232.91Z" fill="url(#paint12_linear)"/>
<path d="M332.14 232.89L341.17 232.85L349.59 281.11L331.48 281.19C330.1 281.19 329.06 280.08 329.15 278.7L332.14 232.89Z" fill="#522CD5"/>
<path d="M368.9 268.41C370.46 269.65 370.43 271.44 370.32 273.32L369.95 279.1C369.89 280.13 368.98 280.98 367.94 280.99L349.07 281.08C347.9 281.08 347.01 280.14 347.09 278.97L347.22 272.98C347.36 270.8 346.63 270.01 344.94 267.96C342.06 264.46 333.52 245.35 334.33 232.89L343.63 232.85C344.22 240.23 353.97 256.64 368.9 268.41Z" fill="url(#paint13_linear)"/>
<path d="M370.31 273.32C370.4 272.01 370.43 270.74 369.9 269.68L346.36 269.78C347.02 270.73 347.29 271.57 347.2 272.97L347.07 278.96C346.99 280.13 347.88 281.08 349.05 281.07L367.92 280.98C368.95 280.98 369.85 280.13 369.93 279.09L370.31 273.32Z" fill="url(#paint14_radial)"/>
<path d="M295.99 233.12C295.8 223.47 296.99 203.86 306.81 187.36L316.61 193.19C307.71 208.15 307.18 225.53 307.47 233.1C307.48 233.73 301.65 234.36 295.99 233.12Z" fill="url(#paint15_linear)"/>
<path d="M286.13 272.03C286.12 270.74 286.31 269.61 286.85 267.73C295.27 244.69 295.99 233.07 295.99 233.07L307.48 233.02C307.48 233.02 308.27 244.42 316.91 267.37C317.59 269.01 317.67 270.5 317.76 271.88L317.81 279.25C317.81 280.36 316.91 281.27 315.8 281.28H315.25L288.75 281.4H288.2C287.08 281.4 286.18 280.51 286.17 279.39L286.13 272.03Z" fill="url(#paint16_linear)"/>
<path d="M286.13 272.03C286.13 271.82 286.13 271.62 286.14 271.41C286.2 270.77 286.49 270.04 287.89 270.04L316.24 269.91C317.26 269.95 317.61 270.73 317.71 271.22C317.72 271.44 317.74 271.66 317.76 271.88L317.81 279.25C317.81 279.95 317.46 280.56 316.92 280.92C316.6 281.14 316.21 281.27 315.8 281.27H315.25L288.75 281.39H288.2C287.65 281.39 287.13 281.17 286.77 280.81C286.41 280.45 286.18 279.95 286.18 279.38L286.13 272.03Z" fill="url(#paint17_radial)"/>
<path d="M315.32 200.41C349.06 200.41 376.42 173.06 376.42 139.31C376.42 105.57 349.07 78.21 315.32 78.21C281.58 78.21 254.22 105.56 254.22 139.31C254.23 173.06 281.58 200.41 315.32 200.41Z" fill="url(#paint18_radial)"/>
<path d="M262.65 170.25H368.01C365.64 174.27 362.83 177.99 359.64 181.35H271.01C267.83 177.99 265.01 174.27 262.65 170.25Z" fill="#D8CFF7"/>
<path d="M321.14 74.94H309.33L311 62.81H319.49L321.14 74.94Z" fill="url(#paint19_linear)"/>
<path d="M325.66 82.34C326.19 82.34 326.61 81.88 326.56 81.35C325.93 75.75 321.19 71.38 315.41 71.38C309.64 71.38 304.89 75.73 304.26 81.35C304.2 81.88 304.62 82.34 305.16 82.34H325.66Z" fill="url(#paint20_radial)"/>
<path d="M337.14 165.81H317.42V185.53H337.14V165.81Z" fill="#512BD4"/>
<path d="M320.94 178.4C320.8 178.4 320.68 178.35 320.58 178.26C320.48 178.17 320.44 178.05 320.44 177.93C320.44 177.81 320.49 177.69 320.58 177.58C320.68 177.49 320.8 177.44 320.94 177.44C321.08 177.44 321.2 177.49 321.3 177.58C321.4 177.67 321.45 177.79 321.45 177.93C321.45 178.06 321.4 178.17 321.3 178.26C321.19 178.36 321.08 178.4 320.94 178.4Z" fill="white"/>
<path d="M326.5 178.33H325.6L323.22 174.57C323.16 174.48 323.1 174.38 323.07 174.27H323.04C323.05 174.39 323.07 174.62 323.07 174.98V178.34H322.27V173.21H323.24L325.55 176.88C325.65 177.03 325.7 177.14 325.74 177.19H325.75C325.72 177.05 325.71 176.83 325.71 176.49V173.19H326.51V178.33H326.5Z" fill="white"/>
<path d="M330.4 178.33H327.59V173.2H330.28V173.92H328.41V175.38H330.12V176.1H328.41V177.62H330.38V178.33H330.4Z" fill="white"/>
<path d="M334.4 173.92H332.97V178.32H332.15V173.92H330.72V173.2H334.42V173.92H334.4Z" fill="white"/>
<path d="M315.39 65.31C320.04 65.31 323.8 61.54 323.8 56.9C323.8 52.26 320.04 48.49 315.39 48.49C310.75 48.49 306.98 52.26 306.98 56.9C306.98 61.54 310.74 65.31 315.39 65.31Z" fill="#D0C5F3"/>
<path d="M255 49.36L266.63 49.99C269.72 50.18 272.08 52.84 271.9 55.94C271.71 59.03 269.05 61.39 265.95 61.21L254.02 60.58L255 49.36Z" fill="url(#paint21_linear)"/>
<path d="M252.66 61.57C259.1 60.69 263.61 54.77 262.73 48.33C261.85 41.89 255.93 37.38 249.49 38.26C243.05 39.14 238.54 45.06 239.42 51.5C240.29 57.94 246.22 62.44 252.66 61.57Z" fill="url(#paint22_radial)"/>
<path d="M246.44 43.11L247.17 31.49C247.39 28.39 250.07 26.07 253.17 26.29C256.27 26.51 258.59 29.19 258.37 32.29L257.61 44.2L246.44 43.11Z" fill="url(#paint23_linear)"/>
<path d="M253.25 44.79L258.29 34.29C259.66 31.51 263.02 30.35 265.8 31.71C268.58 33.08 269.74 36.44 268.38 39.22L263.22 49.97L253.25 44.79Z" fill="#D0C5F3"/>
<path d="M239.3 44.84L246.15 57.78C247.04 59.47 249.14 60.11 250.82 59.21L278.7 44.44C280.39 43.55 281.03 41.45 280.13 39.77L273.28 26.84C272.39 25.15 270.29 24.51 268.61 25.41L240.74 40.18C239.06 41.07 238.41 43.15 239.3 44.84Z" fill="#505050"/>
<path d="M271.61 28.9C271.52 28.98 271.42 29.05 271.34 29.16L270.72 30.04C270.26 30.7 270.19 31.56 270.57 32.27L274.29 39.3C274.66 40.01 275.41 40.45 276.21 40.43L277.28 40.4C277.41 40.4 277.52 40.36 277.64 40.32L278.18 41.34C278.44 41.82 278.24 42.41 277.78 42.67L249.63 57.58C249.15 57.84 248.56 57.64 248.3 57.18L241.19 43.76C240.93 43.28 241.13 42.69 241.59 42.43L269.76 27.5C270.24 27.24 270.83 27.44 271.09 27.9L271.61 28.9Z" fill="#F7B548"/>
<path d="M254.02 55.24L249.64 57.56C249.16 57.82 248.57 57.62 248.31 57.16L241.2 43.74C240.94 43.26 241.14 42.67 241.6 42.41L245.98 40.09L254.02 55.24Z" fill="#969696"/>
<path d="M269.06 42.72L269.69 43.92C270.08 44.65 270.99 44.94 271.72 44.55L272.63 44.07C273.36 43.68 273.65 42.77 273.26 42.04L272.63 40.84C272.24 40.11 271.33 39.82 270.6 40.21L269.69 40.69C268.96 41.07 268.68 41.98 269.06 42.72Z" fill="#FFD590"/>
<path d="M266.6 38.05L267.23 39.25C267.62 39.98 268.53 40.27 269.26 39.88L270.17 39.4C270.9 39.01 271.19 38.1 270.8 37.37L270.17 36.17C269.78 35.44 268.87 35.15 268.14 35.54L267.23 36.02C266.49 36.42 266.22 37.33 266.6 38.05Z" fill="#FFD590"/>
<path d="M264.74 45.01L265.37 46.21C265.76 46.94 266.67 47.23 267.4 46.84L268.31 46.36C269.04 45.97 269.33 45.06 268.94 44.33L268.31 43.13C267.92 42.4 267.01 42.11 266.28 42.5L265.37 42.98C264.63 43.36 264.35 44.27 264.74 45.01Z" fill="#FFD590"/>
<path d="M262.28 40.35L262.91 41.55C263.3 42.28 264.21 42.57 264.94 42.18L265.85 41.7C266.58 41.31 266.87 40.4 266.48 39.67L265.85 38.47C265.46 37.74 264.55 37.45 263.82 37.84L262.91 38.32C262.17 38.7 261.89 39.63 262.28 40.35Z" fill="#FFD590"/>
<path d="M260.42 47.3L261.05 48.5C261.44 49.23 262.35 49.52 263.08 49.13L263.99 48.65C264.72 48.26 265.01 47.35 264.62 46.62L263.99 45.42C263.6 44.69 262.69 44.4 261.96 44.79L261.05 45.27C260.31 45.65 260.02 46.56 260.42 47.3Z" fill="#FFD590"/>
<path d="M257.95 42.64L258.58 43.84C258.97 44.57 259.88 44.86 260.61 44.47L261.52 43.99C262.25 43.6 262.54 42.69 262.15 41.96L261.52 40.76C261.13 40.03 260.22 39.74 259.49 40.13L258.58 40.61C257.85 40.99 257.55 41.9 257.95 42.64Z" fill="#FFD590"/>
<path d="M264.13 33.4L264.76 34.6C265.15 35.33 266.06 35.62 266.79 35.23L267.7 34.75C268.43 34.36 268.72 33.45 268.33 32.72L267.7 31.52C267.31 30.79 266.4 30.5 265.67 30.89L264.76 31.37C264.03 31.76 263.74 32.67 264.13 33.4Z" fill="#FFD590"/>
<path d="M259.8 35.7L260.43 36.9C260.82 37.63 261.73 37.92 262.46 37.53L263.37 37.05C264.1 36.66 264.39 35.75 264 35.02L263.37 33.82C262.98 33.09 262.07 32.8 261.34 33.19L260.43 33.67C259.7 34.03 259.42 34.96 259.8 35.7Z" fill="#FFD590"/>
<path d="M255.49 37.99L256.12 39.19C256.51 39.92 257.42 40.21 258.15 39.82L259.06 39.34C259.79 38.95 260.08 38.04 259.69 37.31L259.06 36.11C258.67 35.38 257.76 35.09 257.03 35.48L256.12 35.96C255.37 36.33 255.1 37.26 255.49 37.99Z" fill="#FFD590"/>
<path d="M234.97 37.05L235.68 41.92C236.12 44.97 238.96 47.08 242.02 46.65C245.07 46.21 247.18 43.37 246.75 40.31L246.04 35.44C245.6 32.39 242.76 30.28 239.7 30.71C236.65 31.16 234.52 34 234.97 37.05Z" fill="url(#paint24_linear)"/>
<path d="M243.28 31.34L243.99 36.21C244.43 39.26 247.27 41.37 250.33 40.94C253.38 40.5 255.49 37.66 255.06 34.6L254.35 29.73C253.91 26.68 251.07 24.57 248.01 25C244.95 25.43 242.83 28.28 243.28 31.34Z" fill="url(#paint25_linear)"/>
<path d="M377.33 67.03L390.8 76.83C393.21 78.58 396.56 78.04 398.31 75.65C400.06 73.24 399.52 69.89 397.13 68.14L383.66 58.34C381.25 56.59 377.9 57.13 376.15 59.52C374.41 61.93 374.94 65.29 377.33 67.03Z" fill="url(#paint26_linear)"/>
<path d="M410.02 74.56L418.21 66.92C420.37 64.87 420.48 61.45 418.43 59.28C416.38 57.11 412.96 57.01 410.79 59.06L402.39 66.89L410.02 74.56Z" fill="#D0C5F3"/>
<path d="M409.85 68.51L415.76 54.24C416.89 51.47 415.57 48.33 412.81 47.18C410.04 46.05 406.9 47.37 405.75 50.13L401.32 60.72L409.85 68.51Z" fill="#D0C5F3"/>
<path d="M403.31 67.58L405.83 52.33C406.32 49.38 404.34 46.6 401.4 46.11C398.45 45.62 395.67 47.6 395.18 50.54L392.6 66.07L403.31 67.58Z" fill="#D0C5F3"/>
<path d="M400.35 80.81C406.6 80.81 411.67 75.75 411.67 69.49C411.67 63.24 406.61 58.17 400.35 58.17C394.1 58.17 389.03 63.23 389.03 69.49C389.03 75.74 394.09 80.81 400.35 80.81Z" fill="url(#paint27_radial)"/>
<path d="M257.41 134.31C263.58 134.31 268.59 129.3 268.59 123.13C268.59 116.96 263.58 111.95 257.41 111.95C251.24 111.95 246.23 116.96 246.23 123.13C246.23 129.31 251.23 134.31 257.41 134.31Z" fill="url(#paint28_radial)"/>
<path d="M255.3 150.06C261.47 150.06 266.48 145.05 266.48 138.88C266.48 132.71 261.47 127.7 255.3 127.7C249.13 127.7 244.12 132.71 244.12 138.88C244.13 145.06 249.13 150.06 255.3 150.06Z" fill="url(#paint29_radial)"/>
<path d="M256.71 165.6C262.88 165.6 267.89 160.59 267.89 154.42C267.89 148.25 262.88 143.24 256.71 143.24C250.54 143.24 245.53 148.25 245.53 154.42C245.53 160.61 250.54 165.6 256.71 165.6Z" fill="url(#paint30_radial)"/>
<path d="M463.48 165.25L471.32 157.03C473.39 154.83 473.29 151.35 471.09 149.28C468.89 147.21 465.41 147.31 463.34 149.51L455.29 157.93L463.48 165.25Z" fill="url(#paint31_linear)"/>
<path d="M455.66 176.32L465.33 182.28C467.92 183.85 471.29 183.03 472.85 180.44C474.42 177.85 473.6 174.48 471.01 172.92L461.09 166.8L455.66 176.32Z" fill="url(#paint32_linear)"/>
<path d="M459.81 169.59L469.62 175.3C472.25 176.81 475.6 175.89 477.1 173.27C478.6 170.65 477.69 167.29 475.07 165.79L465 159.92L459.81 169.59Z" fill="url(#paint33_linear)"/>
<path d="M450 177.7L458.32 185.43C460.55 187.46 464.03 187.32 466.06 185.1C468.09 182.87 467.95 179.39 465.73 177.36L457.19 169.43L450 177.7Z" fill="url(#paint34_linear)"/>
<path d="M457.23 180.43C463.57 180.43 468.7 175.29 468.7 168.96C468.7 162.62 463.56 157.49 457.23 157.49C450.9 157.49 445.76 162.63 445.76 168.96C445.76 175.29 450.89 180.43 457.23 180.43Z" fill="url(#paint35_radial)"/>
<path d="M262.61 181.16C268.78 181.16 273.79 176.15 273.79 169.98C273.79 163.81 268.78 158.8 262.61 158.8C256.44 158.8 251.43 163.81 251.43 169.98C251.43 176.16 256.44 181.16 262.61 181.16Z" fill="url(#paint36_radial)"/>
<path d="M191.99 82.7L198.69 73.52C200.48 71.09 203.92 70.57 206.35 72.37C208.78 74.16 209.3 77.6 207.5 80.03L200.64 89.44L191.99 82.7Z" fill="#D0C5F3"/>
<path d="M174.74 92.59L163.41 91.75C160.4 91.51 158.14 88.87 158.39 85.85C158.63 82.84 161.27 80.58 164.29 80.83L175.91 81.69L174.74 92.59Z" fill="#D0C5F3"/>
<path d="M175.97 88.49L168.62 79.84C166.68 77.52 166.98 74.06 169.32 72.11C171.64 70.17 175.1 70.47 177.05 72.81L184.58 81.7L175.97 88.49Z" fill="#D0C5F3"/>
<path d="M176.08 102.6L164.77 101.57C161.76 101.27 159.55 98.6 159.85 95.58C160.15 92.57 162.82 90.36 165.84 90.66L177.43 91.72L176.08 102.6Z" fill="url(#paint37_linear)"/>
<path d="M171.96 102.05C177 105.9 184.19 104.93 188.03 99.9C191.88 94.86 190.91 87.67 185.88 83.83C180.84 79.98 173.65 80.95 169.81 85.98C165.96 91 166.93 98.2 171.96 102.05Z" fill="url(#paint38_radial)"/>
<path d="M215.59 95.39H145.97C135.77 95.57 135 94.12 134.73 93.77H224.36C224.11 94.07 223.55 95.57 215.59 95.39Z" fill="#505050"/>
<path d="M215.32 92.59V46.93C215.32 44.96 213.72 43.36 211.75 43.36H147.36C145.39 43.36 143.79 44.96 143.79 46.93V92.58H215.32V92.59Z" fill="#505050"/>
<path d="M210.15 86.13H148.96C147.89 86.13 147.03 85.27 147.03 84.2V48.22C147.03 47.15 147.89 46.29 148.96 46.29H210.15C211.22 46.29 212.08 47.15 212.08 48.22V84.22C212.07 85.27 211.22 86.13 210.15 86.13Z" fill="#72ACF1"/>
<path d="M224.26 93.77H134.83C134.38 93.77 134.02 93.41 134.02 92.96C134.02 92.51 134.38 92.15 134.83 92.15H224.26C224.71 92.15 225.07 92.51 225.07 92.96C225.09 93.41 224.71 93.77 224.26 93.77Z" fill="#969696"/>
<path d="M148.96 86.13H173.06C172.83 81.13 168.71 77.15 163.67 77.15C161.64 77.15 159.73 77.81 158.2 78.91C157.52 72.61 153.01 67.46 147.05 65.8V84.2C147.03 85.27 147.89 86.13 148.96 86.13Z" fill="#A7CBF6"/>
<path d="M173.31 86.13H177.95C176.28 85.37 174.64 85.48 173.31 86.13Z" fill="#7BDDEF"/>
<path d="M161.63 73.5C161.26 73.5 160.95 73.38 160.68 73.13C160.42 72.87 160.28 72.58 160.28 72.22C160.28 71.86 160.41 71.56 160.68 71.29C160.94 71.03 161.26 70.9 161.63 70.9C162 70.9 162.33 71.03 162.6 71.29C162.87 71.55 163 71.84 163 72.22C163 72.57 162.86 72.88 162.6 73.13C162.34 73.38 162.02 73.5 161.63 73.5Z" fill="white"/>
<path d="M176.6 73.29H174.17L167.77 63.19C167.6 62.93 167.47 62.67 167.37 62.39H167.31C167.36 62.69 167.39 63.32 167.39 64.27V73.27H165.24V59.55H167.83L174.02 69.41C174.28 69.82 174.44 70.09 174.52 70.26H174.56C174.5 69.9 174.47 69.28 174.47 68.41V59.55H176.61V73.29H176.6Z" fill="white"/>
<path d="M186.15 73.35H178.63V59.6H185.85V61.53H180.85V65.42H185.46V67.35H180.85V71.42H186.16V73.34H186.15V73.35Z" fill="white"/>
<path d="M196.84 61.54H192.99V73.35H190.76V61.54H186.94V59.6H196.86L196.84 61.54Z" fill="white"/>
<path d="M410.83 64.96H383.18C380.51 64.96 378.34 62.8 378.34 60.12V35.52C378.34 32.85 380.5 30.68 383.18 30.68H410.83C413.5 30.68 415.67 32.84 415.67 35.52V60.12C415.67 62.79 413.51 64.96 410.83 64.96Z" fill="#28C2D1"/>
<path d="M410.61 45.56L398.2 34.16C397.9 33.89 397.44 33.89 397.14 34.16L393.38 37.6C392.88 38.05 392.07 37.7 392.07 37.02V36.27C392.07 35.84 391.72 35.48 391.28 35.48H389.35C388.93 35.48 388.56 35.83 388.56 36.27V41.67C388.56 41.89 388.47 42.09 388.32 42.25L384.73 45.56C384.2 46.04 384.55 46.93 385.26 46.93H385.81C386.23 46.93 386.6 47.28 386.6 47.72V58.76C386.6 59.18 386.95 59.55 387.39 59.55H407.97C408.39 59.55 408.76 59.2 408.76 58.76V47.7C408.76 47.28 409.11 46.91 409.55 46.91H410.1C410.79 46.91 411.12 46.04 410.61 45.56Z" fill="white"/>
<path d="M395.28 46.53V44.07C395.28 42.72 396.39 41.61 397.74 41.61C399.09 41.61 400.2 42.72 400.2 44.07V46.53H401.85V44.07C401.85 41.8 400.01 39.97 397.75 39.97C395.49 39.97 393.65 41.81 393.65 44.07V46.53H395.28Z" fill="#969696"/>
<path d="M402.23 55.62H393.1C391.86 55.62 390.86 54.62 390.86 53.37V48.27C390.86 47.03 391.86 46.02 393.1 46.02H402.23C403.47 46.02 404.47 47.02 404.47 48.27V53.37C404.47 54.63 403.46 55.62 402.23 55.62Z" fill="#969696"/>
<path d="M398.81 49.93C398.81 49.27 398.28 48.75 397.63 48.75C396.97 48.75 396.45 49.28 396.45 49.93C396.45 50.41 396.73 50.83 397.15 51.01L396.89 53.12H398.44L398.17 51C398.54 50.79 398.81 50.39 398.81 49.93Z" fill="white"/>
<path d="M410.27 24.44C416.59 24.43 421.78 29.51 421.82 35.81C421.82 35.87 421.81 35.95 421.81 36.03L423.15 36.02L423.16 36.01C423.22 28.88 417.39 23.08 410.26 23.11L410.27 24.44Z" fill="#C7E0F4"/>
<path d="M410.31 29L410.32 30.34C413.37 30.35 415.87 32.81 415.9 35.86C415.9 35.92 415.89 36 415.89 36.08L417.23 36.07L417.24 36.06C417.33 32.18 414.19 29 410.31 29Z" fill="#C7E0F4"/>
<path d="M410.3 26.05L410.31 27.39C415 27.39 418.85 31.16 418.87 35.84C418.87 35.9 418.86 35.98 418.86 36.06L420.2 36.05L420.21 36.04C420.29 30.52 415.8 26.05 410.3 26.05Z" fill="#C7E0F4"/>
<path d="M411.65 37.12C412.87 37.12 413.87 36.13 413.87 34.9C413.87 33.68 412.88 32.68 411.65 32.68C410.43 32.68 409.43 33.67 409.43 34.9C409.44 36.13 410.43 37.12 411.65 37.12Z" fill="#C7E0F4"/>
<path d="M421 56.64C418.95 54.57 415.63 54.5 413.49 56.47L409.11 60.53C406.93 62.56 406.83 65.99 408.87 68.17C410.91 70.35 414.33 70.45 416.51 68.41L420.84 64.4C423.08 62.33 423.15 58.8 421 56.64Z" fill="url(#paint39_linear)"/>
<path d="M417.15 47.09C415.1 45.02 411.78 44.95 409.64 46.92L405.26 50.98C403.08 53.01 402.98 56.44 405.02 58.62C407.06 60.8 410.48 60.9 412.66 58.86L416.99 54.85C419.23 52.79 419.3 49.27 417.15 47.09Z" fill="url(#paint40_linear)"/>
<path d="M192.26 156.77L178.79 166.57C176.38 168.32 173.03 167.78 171.28 165.39C169.53 162.98 170.07 159.63 172.46 157.88L185.93 148.08C188.34 146.33 191.69 146.87 193.44 149.26C195.19 151.67 194.67 155.03 192.26 156.77Z" fill="url(#paint41_linear)"/>
<path d="M169.26 170.55C175.51 170.55 180.58 165.49 180.58 159.23C180.58 152.98 175.52 147.91 169.26 147.91C163 147.91 157.94 152.97 157.94 159.23C157.96 165.49 163.02 170.55 169.26 170.55Z" fill="url(#paint42_radial)"/>
<path d="M160.06 154.79H187.71C190.38 154.79 192.55 152.63 192.55 149.95V125.34C192.55 122.67 190.39 120.5 187.71 120.5H160.06C157.39 120.5 155.22 122.66 155.22 125.34V149.94C155.21 152.61 157.38 154.79 160.06 154.79Z" fill="#28C2D1"/>
<path d="M176 134.03H181.41V131.75H176V134.03Z" fill="#FEFFFF"/>
<path d="M177.97 138.6H179.46V133.91H177.97V138.6Z" fill="white"/>
<path d="M163.29 125.91H184.01C184.92 125.91 185.67 126.66 185.67 127.57V131.34C185.67 132.25 184.92 133 184.01 133H172.84C171.93 133 171.18 133.75 171.18 134.66V144.74C171.18 146.03 172.22 147.07 173.51 147.07H185.65V148.6C185.65 149.5 184.93 150.22 184.03 150.22H169.52H163.56H163.29C162.38 150.22 161.63 149.47 161.63 148.56V148.29V147.08V127.56C161.64 126.66 162.37 125.91 163.29 125.91Z" fill="#505050"/>
<path d="M179.57 128.91H181.98C182.33 128.91 182.61 128.63 182.61 128.28C182.61 127.93 182.33 127.65 181.98 127.65H179.57C179.22 127.65 178.94 127.93 178.94 128.28C178.94 128.63 179.22 128.91 179.57 128.91Z" fill="#B3AFAB"/>
<path d="M163.92 131.68H169.08C169.41 131.68 169.69 131.41 169.69 131.07V128.43C169.69 128.1 169.42 127.82 169.08 127.82H163.92C163.59 127.82 163.31 128.09 163.31 128.43V131.07C163.31 131.41 163.58 131.68 163.92 131.68Z" fill="#72ACF1"/>
<path d="M168.22 135.37C168.8 135.37 169.28 134.89 169.28 134.31C169.28 133.73 168.8 133.25 168.22 133.25C167.64 133.25 167.16 133.73 167.16 134.31C167.16 134.9 167.63 135.37 168.22 135.37Z" fill="#77D672"/>
<path d="M164.69 135.37C165.27 135.37 165.75 134.89 165.75 134.31C165.75 133.73 165.27 133.25 164.69 133.25C164.11 133.25 163.63 133.73 163.63 134.31C163.65 134.9 164.11 135.37 164.69 135.37Z" fill="#F7B548"/>
<path d="M173.54 139.41L174.93 146.43C175.01 146.83 175.35 147.11 175.75 147.11H181.79C182.19 147.11 182.54 146.83 182.61 146.43L182.93 144.83H184.58C185.53 144.83 186.29 144.06 186.29 143.12V141.6C186.29 140.65 185.52 139.89 184.58 139.89H183.91L184 139.41C184.1 138.88 183.7 138.41 183.18 138.41H174.36C173.85 138.39 173.44 138.88 173.54 139.41Z" fill="white"/>
<path d="M183.12 143.97L183.75 140.75H184.6C185.08 140.75 185.45 141.12 185.45 141.6V143.12C185.45 143.6 185.08 143.97 184.6 143.97H183.12Z" fill="white"/>
<path d="M160.92 114.86C154.6 114.85 149.41 119.93 149.37 126.23C149.37 126.29 149.38 126.37 149.38 126.45L148.04 126.44L148.03 126.43C147.97 119.3 153.8 113.5 160.93 113.53L160.92 114.86Z" fill="#C7E0F4"/>
<path d="M160.89 119.42L160.88 120.75C157.83 120.76 155.33 123.22 155.3 126.27C155.3 126.33 155.31 126.41 155.31 126.49L153.97 126.48L153.96 126.47C153.87 122.6 157.02 119.42 160.89 119.42Z" fill="#C7E0F4"/>
<path d="M160.91 116.47L160.9 117.81C156.21 117.81 152.36 121.58 152.34 126.26C152.34 126.32 152.35 126.4 152.35 126.48L151.01 126.47L151 126.46C150.91 120.95 155.41 116.47 160.91 116.47Z" fill="#C7E0F4"/>
<path d="M159.55 127.56C160.77 127.56 161.77 126.57 161.77 125.34C161.77 124.12 160.78 123.12 159.55 123.12C158.32 123.12 157.33 124.11 157.33 125.34C157.34 126.57 158.33 127.56 159.55 127.56Z" fill="#C7E0F4"/>
<path d="M148.59 146.37C150.64 144.3 153.96 144.23 156.1 146.2L160.48 150.26C162.66 152.29 162.76 155.72 160.72 157.9C158.69 160.08 155.26 160.18 153.08 158.14L148.75 154.13C146.52 152.07 146.44 148.54 148.59 146.37Z" fill="url(#paint43_linear)"/>
<path d="M152.44 136.83C154.49 134.76 157.81 134.69 159.95 136.66L164.33 140.72C166.51 142.75 166.61 146.18 164.57 148.36C162.54 150.54 159.11 150.64 156.93 148.6L152.6 144.59C150.38 142.53 150.31 139.01 152.44 136.83Z" fill="url(#paint44_linear)"/>
<path d="M425.37 172.01L429.05 172.56C429.63 172.65 430.17 172.25 430.25 171.67L432.26 158.35C432.35 157.77 431.95 157.23 431.37 157.15L427.69 156.6C427.11 156.51 426.57 156.91 426.49 157.49L424.48 170.81C424.39 171.38 424.8 171.92 425.37 172.01Z" fill="#F7B548"/>
<path d="M425.63 168.61L429.83 169.24C430 169.27 430.15 169.15 430.16 168.98L431.38 160.88C431.41 160.71 431.29 160.56 431.12 160.55L426.92 159.92C426.75 159.89 426.6 160.01 426.59 160.18L425.37 168.28C425.33 168.43 425.46 168.59 425.63 168.61Z" fill="#505050"/>
<path d="M426.31 165.68L426.19 166.43L430.08 167.02L430.2 166.27L426.31 165.68Z" fill="#969696"/>
<path d="M426.12 166.93L426 167.68L429.89 168.27L430.01 167.52L426.12 166.93Z" fill="#969696"/>
<path d="M428.65 164.51C427.71 164.51 426.95 163.74 426.95 162.81C426.95 161.88 427.72 161.11 428.65 161.11C429.58 161.11 430.35 161.88 430.35 162.81C430.35 163.74 429.59 164.51 428.65 164.51Z" fill="#969696"/>
<path d="M441.48 109.45L453.64 111.33C456.89 111.81 459.9 109.57 460.38 106.32C460.86 103.07 458.62 100.06 455.37 99.58L442.9 97.65L441.48 109.45Z" fill="url(#paint45_linear)"/>
<path d="M457.83 78.89C457.37 78.89 456.98 79.26 456.98 79.74V94.28C456.98 94.74 457.35 95.13 457.83 95.13H489.56C490.02 95.13 490.41 94.76 490.41 94.28V79.72C490.41 79.26 490.04 78.87 489.56 78.87H457.83V78.89Z" fill="#7BDDEF"/>
<path d="M448.15 89.24C448.15 89.24 449.41 100.7 451.37 104.08C452.04 105.24 453.28 105.93 454.62 105.93H493.54C494.88 105.93 496.12 105.22 496.79 104.08C498.75 100.71 500.01 89.24 500.01 89.24C500.01 89.24 498.75 77.78 496.79 74.4C496.12 73.24 494.88 72.55 493.54 72.55H454.62C453.28 72.55 452.04 73.26 451.37 74.4C449.43 77.77 448.15 89.24 448.15 89.24Z" fill="#E5E5E1"/>
<path d="M451.38 104.07C452.05 105.23 453.29 105.92 454.63 105.92H493.55C494.89 105.92 496.13 105.21 496.8 104.07C498.76 100.7 500.02 89.23 500.02 89.23H448.17C448.15 89.24 449.43 100.7 451.38 104.07Z" fill="#969696"/>
<path d="M489.57 97.52H457.84C456.04 97.52 454.58 96.05 454.58 94.26V79.72C454.58 77.92 456.05 76.46 457.84 76.46H489.57C491.37 76.46 492.83 77.93 492.83 79.72V94.26C492.84 96.06 491.37 97.52 489.57 97.52Z" fill="#505050"/>
<path d="M462.73 102.81C463.54 102.81 464.2 102.15 464.2 101.34C464.2 100.53 463.54 99.87 462.73 99.87C461.92 99.87 461.26 100.53 461.26 101.34C461.26 102.16 461.92 102.81 462.73 102.81Z" fill="#505050"/>
<path d="M470.1 102.81C470.91 102.81 471.57 102.15 471.57 101.34C471.57 100.53 470.91 99.87 470.1 99.87C469.29 99.87 468.63 100.53 468.63 101.34C468.63 102.16 469.28 102.81 470.1 102.81Z" fill="#505050"/>
<path d="M477.47 102.81C478.28 102.81 478.94 102.15 478.94 101.34C478.94 100.53 478.28 99.87 477.47 99.87C476.66 99.87 476 100.53 476 101.34C476.01 102.16 476.66 102.81 477.47 102.81Z" fill="#505050"/>
<path d="M484.84 102.81C485.65 102.81 486.31 102.15 486.31 101.34C486.31 100.53 485.65 99.87 484.84 99.87C484.03 99.87 483.37 100.53 483.37 101.34C483.37 102.16 484.03 102.81 484.84 102.81Z" fill="#505050"/>
<path d="M457.83 78.89C457.37 78.89 456.98 79.26 456.98 79.74V94.28C456.98 94.74 457.35 95.13 457.83 95.13H489.56C490.02 95.13 490.41 94.76 490.41 94.28V79.72C490.41 79.26 490.04 78.87 489.56 78.87H457.83V78.89Z" fill="#72ACF1"/>
<path d="M462.07 78.89H457.83C457.37 78.89 456.98 79.26 456.98 79.74V94.28C456.98 94.74 457.35 95.13 457.83 95.13H468.88L462.07 78.89Z" fill="#A7CBF6"/>
<path d="M479.12 82.72V83.51L475.28 91.53H474.04L477.86 83.74V83.71H473.55V82.72H479.12Z" fill="white"/>
<path d="M482.94 83.83H482.91L481.38 84.65L481.15 83.75L483.07 82.72H484.09V91.53H482.94V83.83Z" fill="white"/>
<path d="M487.58 85.8C486.61 85.8 485.82 85.01 485.82 84.04C485.82 83.07 486.61 82.28 487.58 82.28C488.55 82.28 489.34 83.07 489.34 84.04C489.34 85.01 488.55 85.8 487.58 85.8ZM487.58 83.13C487.08 83.13 486.67 83.54 486.67 84.04C486.67 84.54 487.08 84.95 487.58 84.95C488.08 84.95 488.49 84.54 488.49 84.04C488.49 83.54 488.09 83.13 487.58 83.13Z" fill="white"/>
<path d="M444.4 96.81L451.15 86.52C452.93 83.76 452.14 80.09 449.39 78.32C446.63 76.54 442.96 77.33 441.19 80.08L431.97 93.82L444.4 96.81Z" fill="url(#paint46_linear)"/>
<path d="M440.94 113.81C447.8 113.81 453.37 108.25 453.37 101.38C453.37 94.52 447.81 88.95 440.94 88.95C434.08 88.95 428.51 94.51 428.51 101.38C428.51 108.25 434.07 113.81 440.94 113.81Z" fill="url(#paint47_radial)"/>
<path d="M300.78 204.31L309.6 195C311.93 192.5 311.8 188.59 309.3 186.26C306.8 183.93 302.89 184.06 300.56 186.56L291.51 196.11L300.78 204.31Z" fill="url(#paint48_linear)"/>
<path d="M358.67 197.77L347.68 191.15C344.76 189.37 343.84 185.55 345.65 182.64C347.43 179.72 351.25 178.8 354.16 180.59L365.43 187.39L358.67 197.77Z" fill="url(#paint49_linear)"/>
<path d="M360.04 195.96C355.51 184.34 350.15 179.96 344.89 180.6C341.68 180.97 311.43 184.57 308.23 184.95C302.96 185.57 298.69 191.09 296.79 203.47C294.88 215.85 297.76 223.5 304.22 222.74C309.04 222.17 313.6 214.45 318.81 212.05C322.2 210.48 329.15 209.9 329.15 209.9C329.15 209.9 336.79 208.75 340.42 209.49C346.02 210.61 352.13 217.06 356.96 216.5C363.44 215.7 364.57 207.57 360.04 195.96Z" fill="url(#paint50_radial)"/>
<path d="M306.89 188.23C310.39 187.82 343.39 183.9 346.89 183.49C349.52 183.18 352.16 183.93 354.71 185.92C351.55 181.79 348.21 180.19 344.88 180.58C341.67 180.95 311.42 184.55 308.22 184.93C304.91 185.33 301.99 187.66 299.8 192.43C301.86 189.9 304.26 188.55 306.89 188.23Z" fill="#605D5A"/>
<path d="M290 199.97L290.42 199.25C292.04 196.51 295.57 195.59 298.3 197.22L308.95 203.72C311.69 205.34 312.59 208.87 310.98 211.6L310.56 212.32C308.94 215.06 305.41 215.98 302.68 214.35L292.03 207.85C289.29 206.25 288.39 202.72 290 199.97Z" fill="url(#paint51_linear)"/>
<path d="M289.05 208.11C290.78 205.16 294.57 204.19 297.51 205.92L304.03 209.77C306.98 211.5 307.95 215.29 306.22 218.23C304.49 221.18 300.7 222.15 297.76 220.42L291.24 216.57C288.29 214.85 287.31 211.05 289.05 208.11Z" fill="url(#paint52_linear)"/>
<path d="M284.43 214.51C285.9 211.43 289.58 210.11 292.67 211.59L297.62 213.95C300.7 215.42 302.02 219.1 300.54 222.19C299.07 225.27 295.39 226.59 292.3 225.11L287.35 222.75C284.29 221.29 282.96 217.6 284.43 214.51Z" fill="url(#paint53_linear)"/>
<path d="M289.14 220.01C296.3 220.01 302.1 214.2 302.1 207.05C302.1 199.89 296.29 194.09 289.14 194.09C281.99 194.09 276.18 199.9 276.18 207.05C276.18 214.2 281.99 220.01 289.14 220.01Z" fill="url(#paint54_radial)"/>
<path d="M366.28 191.09L365.67 190.51C363.38 188.29 359.73 188.37 357.52 190.65L349.46 198.24C347.24 200.53 347.32 204.18 349.6 206.39L350.21 206.97C352.5 209.19 356.15 209.11 358.36 206.83L366.42 199.24C368.63 196.95 368.56 193.3 366.28 191.09Z" fill="url(#paint55_linear)"/>
<path d="M369.48 197.85C367.02 195.48 363.11 195.54 360.74 198L355.47 203.45C353.1 205.91 353.16 209.82 355.62 212.19C358.08 214.56 361.99 214.5 364.36 212.04L369.63 206.59C372 204.13 371.94 200.22 369.48 197.85Z" fill="url(#paint56_linear)"/>
<path d="M375.08 203.54C372.85 200.95 368.94 200.67 366.36 202.91L362.23 206.49C359.64 208.72 359.36 212.63 361.6 215.21C363.83 217.8 367.74 218.08 370.32 215.84L374.45 212.26C377.04 210.03 377.32 206.13 375.08 203.54Z" fill="url(#paint57_linear)"/>
<path d="M369.46 211.69C376.62 211.69 382.42 205.88 382.42 198.73C382.42 191.57 376.61 185.77 369.46 185.77C362.31 185.77 356.5 191.58 356.5 198.73C356.51 205.88 362.32 211.69 369.46 211.69Z" fill="url(#paint58_radial)"/>
<path d="M328.79 184.22L328.65 182.96C328.56 182.11 327.7 181.53 326.73 181.65L325.52 181.79C324.55 181.91 323.86 182.68 323.95 183.52L324.09 184.78L328.79 184.22Z" fill="#33312D"/>
<path d="M318.04 185.42L318.01 185.21C317.92 184.39 317.3 183.77 316.64 183.84L307.08 184.95C306.42 185.03 305.97 185.76 306.06 186.59L306.09 186.8L318.04 185.42Z" fill="#33312D"/>
<path d="M346.68 181.94L346.65 181.73C346.56 180.91 345.94 180.29 345.28 180.36L335.72 181.47C335.06 181.55 334.61 182.28 334.7 183.11L334.73 183.32L346.68 181.94Z" fill="#33312D"/>
<path d="M371.69 139.48C371.69 146.23 370.39 152.67 368.03 158.58C367.46 160.01 366.07 160.95 364.53 160.95H285.47C283.92 160.95 282.55 160.01 281.97 158.58C279.61 152.67 278.31 146.23 278.31 139.48C278.31 136.72 278.53 134.01 278.95 131.37C279.23 129.55 280.83 128.24 282.66 128.24H367.34C369.18 128.24 370.77 129.57 371.05 131.37C371.47 134.02 371.69 136.73 371.69 139.48Z" fill="white"/>
<path d="M343.67 156.62C343.67 156.62 333.73 148.75 331.78 147.3C329.83 145.85 328.14 145.77 326.36 147.3C324.58 148.83 314.63 156.62 314.63 156.62H343.67Z" fill="#A08BE8"/>
<path d="M371.05 131.38C370.77 129.56 369.17 128.25 367.34 128.25H362.99C364.83 128.25 366.42 129.58 366.7 131.38C367.12 134.02 367.34 136.72 367.34 139.49C367.34 143.47 366.88 147.33 366.03 151.05C365.77 152.12 365.49 153.19 365.18 154.24C364.74 155.72 363.22 156.61 361.68 156.61H283.73C282.29 156.61 280.97 155.9 280.54 154.51C280.23 153.48 279.69 151.34 279.69 151.34C281.34 160.33 282.91 160.95 284.82 160.95H285.27H360.2H364.55C366.1 160.95 367.47 160.01 368.05 158.58C370.41 152.67 371.71 146.23 371.71 139.48C371.69 136.73 371.47 134.02 371.05 131.38Z" fill="#512BD4"/>
<path d="M304.29 149.66C306.93 149.62 309.01 145.99 308.95 141.55C308.88 137.11 306.69 133.55 304.05 133.59C301.41 133.63 299.33 137.26 299.39 141.7C299.46 146.14 301.65 149.7 304.29 149.66Z" fill="#512BD4"/>
<path d="M352.09 141.66C352.16 137.22 350.07 133.59 347.43 133.55C344.79 133.51 342.6 137.08 342.53 141.51C342.46 145.95 344.55 149.58 347.19 149.62C349.83 149.66 352.02 146.1 352.09 141.66Z" fill="#512BD4"/>
<path d="M300.51 145.4C300.51 146.53 300.94 147.56 301.62 148.36C302.39 149.2 303.31 149.67 304.29 149.66C306.66 149.62 308.58 146.69 308.9 142.87C308.08 141.63 306.68 140.82 305.09 140.82C302.56 140.82 300.51 142.87 300.51 145.4Z" fill="#8065E0"/>
<path d="M352 143C351.19 141.69 349.76 140.81 348.11 140.81C345.59 140.81 343.54 142.86 343.54 145.38C343.54 146.29 343.81 147.13 344.27 147.85C345.07 148.93 346.07 149.59 347.19 149.61C349.57 149.66 351.56 146.8 352 143Z" fill="#8065E0"/>
<defs>
<linearGradient id="paint0_linear" x1="171.286" y1="177.125" x2="258.369" y2="138.609" gradientUnits="userSpaceOnUse">
<stop offset="0.2495" stop-color="#967FE6"/>
<stop offset="1" stop-color="#8A6FE8"/>
</linearGradient>
<linearGradient id="paint1_linear" x1="259.639" y1="133.14" x2="171.906" y2="107.584" gradientUnits="userSpaceOnUse">
<stop offset="0.2495" stop-color="#967FE6"/>
<stop offset="1" stop-color="#8A6FE8"/>
</linearGradient>
<linearGradient id="paint2_linear" x1="366.14" y1="186.046" x2="417.221" y2="186.046" gradientUnits="userSpaceOnUse">
<stop offset="0.2495" stop-color="#967FE6"/>
<stop offset="1" stop-color="#8A6FE8"/>
</linearGradient>
<linearGradient id="paint3_linear" x1="223.083" y1="190.399" x2="283.165" y2="190.399" gradientUnits="userSpaceOnUse">
<stop offset="0.2495" stop-color="#967FE6"/>
<stop offset="1" stop-color="#8A6FE8"/>
</linearGradient>
<linearGradient id="paint4_linear" x1="231.109" y1="57.7596" x2="265.278" y2="113.885" gradientUnits="userSpaceOnUse">
<stop offset="0.2495" stop-color="#967FE6"/>
<stop offset="1" stop-color="#8A6FE8"/>
</linearGradient>
<linearGradient id="paint5_linear" x1="368.483" y1="116.565" x2="416.437" y2="88.7239" gradientUnits="userSpaceOnUse">
<stop offset="0.2495" stop-color="#967FE6"/>
<stop offset="1" stop-color="#8A6FE8"/>
</linearGradient>
<linearGradient id="paint6_linear" x1="376.94" y1="142.539" x2="448.533" y2="107.734" gradientUnits="userSpaceOnUse">
<stop offset="0.2495" stop-color="#967FE6"/>
<stop offset="1" stop-color="#8A6FE8"/>
</linearGradient>
<linearGradient id="paint7_linear" x1="375.014" y1="162.369" x2="453.212" y2="162.369" gradientUnits="userSpaceOnUse">
<stop offset="0.2495" stop-color="#967FE6"/>
<stop offset="1" stop-color="#8A6FE8"/>
</linearGradient>
<radialGradient id="paint8_radial" cx="0" cy="0" r="1" gradientUnits="userSpaceOnUse" gradientTransform="translate(370.461 116.932) rotate(178.212) scale(11.1776)">
<stop stop-color="#8065E0"/>
<stop offset="1" stop-color="#512BD4"/>
</radialGradient>
<radialGradient id="paint9_radial" cx="0" cy="0" r="1" gradientUnits="userSpaceOnUse" gradientTransform="translate(372.565 132.686) rotate(178.212) scale(11.1776)">
<stop stop-color="#8065E0"/>
<stop offset="1" stop-color="#512BD4"/>
</radialGradient>
<radialGradient id="paint10_radial" cx="0" cy="0" r="1" gradientUnits="userSpaceOnUse" gradientTransform="translate(371.15 148.227) rotate(178.212) scale(11.1776)">
<stop stop-color="#8065E0"/>
<stop offset="1" stop-color="#512BD4"/>
</radialGradient>
<radialGradient id="paint11_radial" cx="0" cy="0" r="1" gradientUnits="userSpaceOnUse" gradientTransform="translate(367.858 166.905) rotate(-135.142) scale(11.1783)">
<stop stop-color="#8065E0"/>
<stop offset="1" stop-color="#512BD4"/>
</radialGradient>
<linearGradient id="paint12_linear" x1="329.064" y1="187.946" x2="338.721" y2="233.935" gradientUnits="userSpaceOnUse">
<stop offset="0.252" stop-color="#522CD5"/>
<stop offset="0.5558" stop-color="#8A6FE8"/>
</linearGradient>
<linearGradient id="paint13_linear" x1="334.893" y1="232.57" x2="363.579" y2="283.711" gradientUnits="userSpaceOnUse">
<stop stop-color="#522CD5"/>
<stop offset="0.4397" stop-color="#8A6FE8"/>
</linearGradient>
<radialGradient id="paint14_radial" cx="0" cy="0" r="1" gradientUnits="userSpaceOnUse" gradientTransform="translate(357.765 260.074) rotate(-0.260886) scale(19.8828)">
<stop offset="0.034" stop-color="#522CD5"/>
<stop offset="0.9955" stop-color="#8A6FE8"/>
</radialGradient>
<linearGradient id="paint15_linear" x1="310.126" y1="188.032" x2="300.886" y2="234.11" gradientUnits="userSpaceOnUse">
<stop offset="0.258" stop-color="#522CD5"/>
<stop offset="0.5602" stop-color="#8A6FE8"/>
</linearGradient>
<linearGradient id="paint16_linear" x1="301.769" y1="233.045" x2="301.99" y2="281.338" gradientUnits="userSpaceOnUse">
<stop stop-color="#522CD5"/>
<stop offset="0.4397" stop-color="#8A6FE8"/>
</linearGradient>
<radialGradient id="paint17_radial" cx="0" cy="0" r="1" gradientUnits="userSpaceOnUse" gradientTransform="translate(302.518 260.248) rotate(179.739) scale(21.798)">
<stop offset="0.034" stop-color="#522CD5"/>
<stop offset="0.9955" stop-color="#8A6FE8"/>
</radialGradient>
<radialGradient id="paint18_radial" cx="0" cy="0" r="1" gradientUnits="userSpaceOnUse" gradientTransform="translate(319.182 99.2081) scale(65.5164)">
<stop offset="0.186" stop-color="#A08BE8"/>
<stop offset="0.7272" stop-color="#8065E0"/>
</radialGradient>
<linearGradient id="paint19_linear" x1="309.334" y1="68.8713" x2="321.143" y2="68.8713" gradientUnits="userSpaceOnUse">
<stop offset="0.2495" stop-color="#967FE6"/>
<stop offset="1" stop-color="#8A6FE8"/>
</linearGradient>
<radialGradient id="paint20_radial" cx="0" cy="0" r="1" gradientUnits="userSpaceOnUse" gradientTransform="translate(315.789 74.2553) scale(14.8412)">
<stop stop-color="#8065E0"/>
<stop offset="1" stop-color="#512BD4"/>
</radialGradient>
<linearGradient id="paint21_linear" x1="254.021" y1="55.2901" x2="271.906" y2="55.2901" gradientUnits="userSpaceOnUse">
<stop offset="0.2495" stop-color="#967FE6"/>
<stop offset="1" stop-color="#8A6FE8"/>
</linearGradient>
<radialGradient id="paint22_radial" cx="0" cy="0" r="1" gradientUnits="userSpaceOnUse" gradientTransform="translate(255.87 51.9693) rotate(81.7109) scale(13.089)">
<stop stop-color="#8065E0"/>
<stop offset="1" stop-color="#512BD4"/>
</radialGradient>
<linearGradient id="paint23_linear" x1="246.435" y1="35.2447" x2="258.388" y2="35.2447" gradientUnits="userSpaceOnUse">
<stop offset="0.2495" stop-color="#967FE6"/>
<stop offset="1" stop-color="#8A6FE8"/>
</linearGradient>
<linearGradient id="paint24_linear" x1="234.913" y1="38.6775" x2="246.802" y2="38.6775" gradientUnits="userSpaceOnUse">
<stop offset="0.2495" stop-color="#967FE6"/>
<stop offset="1" stop-color="#8A6FE8"/>
</linearGradient>
<linearGradient id="paint25_linear" x1="243.22" y1="32.9728" x2="255.109" y2="32.9728" gradientUnits="userSpaceOnUse">
<stop offset="0.2495" stop-color="#967FE6"/>
<stop offset="1" stop-color="#8A6FE8"/>
</linearGradient>
<linearGradient id="paint26_linear" x1="375.123" y1="67.5832" x2="399.341" y2="67.5832" gradientUnits="userSpaceOnUse">
<stop offset="0.2495" stop-color="#967FE6"/>
<stop offset="1" stop-color="#8A6FE8"/>
</linearGradient>
<radialGradient id="paint27_radial" cx="0" cy="0" r="1" gradientUnits="userSpaceOnUse" gradientTransform="translate(400.277 63.2329) rotate(-30.1394) scale(15.7302)">
<stop stop-color="#8065E0"/>
<stop offset="1" stop-color="#512BD4"/>
</radialGradient>
<radialGradient id="paint28_radial" cx="0" cy="0" r="1" gradientUnits="userSpaceOnUse" gradientTransform="translate(255.633 116.89) rotate(1.78789) scale(11.1776)">
<stop stop-color="#8065E0"/>
<stop offset="1" stop-color="#512BD4"/>
</radialGradient>
<radialGradient id="paint29_radial" cx="0" cy="0" r="1" gradientUnits="userSpaceOnUse" gradientTransform="translate(253.53 132.645) rotate(1.78789) scale(11.1776)">
<stop stop-color="#8065E0"/>
<stop offset="1" stop-color="#512BD4"/>
</radialGradient>
<radialGradient id="paint30_radial" cx="0" cy="0" r="1" gradientUnits="userSpaceOnUse" gradientTransform="translate(254.943 148.187) rotate(1.78789) scale(11.1776)">
<stop stop-color="#8065E0"/>
<stop offset="1" stop-color="#512BD4"/>
</radialGradient>
<linearGradient id="paint31_linear" x1="455.285" y1="156.525" x2="472.809" y2="156.525" gradientUnits="userSpaceOnUse">
<stop offset="0.2495" stop-color="#967FE6"/>
<stop offset="1" stop-color="#8A6FE8"/>
</linearGradient>
<linearGradient id="paint32_linear" x1="455.659" y1="174.94" x2="473.648" y2="174.94" gradientUnits="userSpaceOnUse">
<stop offset="0.2495" stop-color="#967FE6"/>
<stop offset="1" stop-color="#8A6FE8"/>
</linearGradient>
<linearGradient id="paint33_linear" x1="459.805" y1="167.973" x2="477.827" y2="167.973" gradientUnits="userSpaceOnUse">
<stop offset="0.2495" stop-color="#967FE6"/>
<stop offset="1" stop-color="#8A6FE8"/>
</linearGradient>
<linearGradient id="paint34_linear" x1="450.005" y1="178.137" x2="467.501" y2="178.137" gradientUnits="userSpaceOnUse">
<stop offset="0.2495" stop-color="#967FE6"/>
<stop offset="1" stop-color="#8A6FE8"/>
</linearGradient>
<radialGradient id="paint35_radial" cx="0" cy="0" r="1" gradientUnits="userSpaceOnUse" gradientTransform="translate(451.403 167.503) rotate(103.35) scale(16.1838)">
<stop stop-color="#8065E0"/>
<stop offset="1" stop-color="#512BD4"/>
</radialGradient>
<radialGradient id="paint36_radial" cx="0" cy="0" r="1" gradientUnits="userSpaceOnUse" gradientTransform="translate(256.967 166.914) rotate(-44.8581) scale(11.1783)">
<stop stop-color="#8065E0"/>
<stop offset="1" stop-color="#512BD4"/>
</radialGradient>
<linearGradient id="paint37_linear" x1="159.829" y1="96.6216" x2="177.435" y2="96.6216" gradientUnits="userSpaceOnUse">
<stop offset="0.2495" stop-color="#967FE6"/>
<stop offset="1" stop-color="#8A6FE8"/>
</linearGradient>
<radialGradient id="paint38_radial" cx="0" cy="0" r="1" gradientUnits="userSpaceOnUse" gradientTransform="translate(179.227 89.7751) rotate(129.382) scale(16.1834)">
<stop stop-color="#8065E0"/>
<stop offset="1" stop-color="#512BD4"/>
</radialGradient>
<linearGradient id="paint39_linear" x1="407.411" y1="62.4516" x2="422.567" y2="62.4516" gradientUnits="userSpaceOnUse">
<stop offset="0.2495" stop-color="#967FE6"/>
<stop offset="1" stop-color="#8A6FE8"/>
</linearGradient>
<linearGradient id="paint40_linear" x1="403.561" y1="52.9085" x2="418.716" y2="52.9085" gradientUnits="userSpaceOnUse">
<stop offset="0.2495" stop-color="#967FE6"/>
<stop offset="1" stop-color="#8A6FE8"/>
</linearGradient>
<linearGradient id="paint41_linear" x1="170.256" y1="157.323" x2="194.477" y2="157.323" gradientUnits="userSpaceOnUse">
<stop offset="0.2495" stop-color="#967FE6"/>
<stop offset="1" stop-color="#8A6FE8"/>
</linearGradient>
<radialGradient id="paint42_radial" cx="0" cy="0" r="1" gradientUnits="userSpaceOnUse" gradientTransform="translate(169.243 152.932) rotate(-149.861) scale(15.7301)">
<stop stop-color="#8065E0"/>
<stop offset="1" stop-color="#512BD4"/>
</radialGradient>
<linearGradient id="paint43_linear" x1="147.029" y1="152.189" x2="162.185" y2="152.189" gradientUnits="userSpaceOnUse">
<stop offset="0.2495" stop-color="#967FE6"/>
<stop offset="1" stop-color="#8A6FE8"/>
</linearGradient>
<linearGradient id="paint44_linear" x1="150.89" y1="142.648" x2="166.035" y2="142.648" gradientUnits="userSpaceOnUse">
<stop offset="0.2495" stop-color="#967FE6"/>
<stop offset="1" stop-color="#8A6FE8"/>
</linearGradient>
<linearGradient id="paint45_linear" x1="441.479" y1="104.521" x2="460.436" y2="104.521" gradientUnits="userSpaceOnUse">
<stop offset="0.2495" stop-color="#967FE6"/>
<stop offset="1" stop-color="#8A6FE8"/>
</linearGradient>
<linearGradient id="paint46_linear" x1="431.962" y1="87.0886" x2="452.102" y2="87.0886" gradientUnits="userSpaceOnUse">
<stop offset="0.2495" stop-color="#967FE6"/>
<stop offset="1" stop-color="#8A6FE8"/>
</linearGradient>
<radialGradient id="paint47_radial" cx="0" cy="0" r="1" gradientUnits="userSpaceOnUse" gradientTransform="translate(435.736 93.9466) rotate(54.1342) scale(17.516)">
<stop stop-color="#8065E0"/>
<stop offset="1" stop-color="#512BD4"/>
</radialGradient>
<linearGradient id="paint48_linear" x1="291.51" y1="194.451" x2="311.271" y2="194.451" gradientUnits="userSpaceOnUse">
<stop offset="0.2495" stop-color="#967FE6"/>
<stop offset="1" stop-color="#8A6FE8"/>
</linearGradient>
<linearGradient id="paint49_linear" x1="344.726" y1="188.723" x2="365.432" y2="188.723" gradientUnits="userSpaceOnUse">
<stop offset="0.2495" stop-color="#967FE6"/>
<stop offset="1" stop-color="#8A6FE8"/>
</linearGradient>
<radialGradient id="paint50_radial" cx="0" cy="0" r="1" gradientUnits="userSpaceOnUse" gradientTransform="translate(327.141 225.639) scale(50.5541)">
<stop offset="0.2667" stop-color="#605D5A"/>
<stop offset="1" stop-color="#33312D"/>
</radialGradient>
<linearGradient id="paint51_linear" x1="289.206" y1="205.788" x2="311.792" y2="205.788" gradientUnits="userSpaceOnUse">
<stop offset="0.2495" stop-color="#967FE6"/>
<stop offset="1" stop-color="#8A6FE8"/>
</linearGradient>
<linearGradient id="paint52_linear" x1="288.19" y1="213.173" x2="307.072" y2="213.173" gradientUnits="userSpaceOnUse">
<stop offset="0.2495" stop-color="#967FE6"/>
<stop offset="1" stop-color="#8A6FE8"/>
</linearGradient>
<linearGradient id="paint53_linear" x1="283.827" y1="218.351" x2="301.145" y2="218.351" gradientUnits="userSpaceOnUse">
<stop offset="0.2495" stop-color="#967FE6"/>
<stop offset="1" stop-color="#8A6FE8"/>
</linearGradient>
<radialGradient id="paint54_radial" cx="0" cy="0" r="1" gradientUnits="userSpaceOnUse" gradientTransform="translate(283.444 203.351) rotate(120.537) scale(12.9557)">
<stop stop-color="#8065E0"/>
<stop offset="1" stop-color="#512BD4"/>
</radialGradient>
<linearGradient id="paint55_linear" x1="347.847" y1="198.736" x2="368.034" y2="198.736" gradientUnits="userSpaceOnUse">
<stop offset="0.2495" stop-color="#967FE6"/>
<stop offset="1" stop-color="#8A6FE8"/>
</linearGradient>
<linearGradient id="paint56_linear" x1="353.73" y1="205.021" x2="371.365" y2="205.021" gradientUnits="userSpaceOnUse">
<stop offset="0.2495" stop-color="#967FE6"/>
<stop offset="1" stop-color="#8A6FE8"/>
</linearGradient>
<linearGradient id="paint57_linear" x1="360.083" y1="209.374" x2="376.59" y2="209.374" gradientUnits="userSpaceOnUse">
<stop offset="0.2495" stop-color="#967FE6"/>
<stop offset="1" stop-color="#8A6FE8"/>
</linearGradient>
<radialGradient id="paint58_radial" cx="0" cy="0" r="1" gradientUnits="userSpaceOnUse" gradientTransform="translate(373.949 193.748) rotate(44.0028) scale(12.9558)">
<stop stop-color="#8065E0"/>
<stop offset="1" stop-color="#512BD4"/>
</radialGradient>
</defs>
</svg>
