<svg width="636" height="300" viewBox="0 0 636 300" fill="none" xmlns="http://www.w3.org/2000/svg">
<path d="M215.22 120.04L152.49 122.38V190.42H215.22V120.04Z" fill="#FBC977"/>
<path d="M295.77 116.92L233.04 119.26V190.42H295.77V116.92Z" fill="#57AA9A"/>
<path d="M376.37 132.7L359.05 114.32L313.59 116.25V190.42H376.32L376.37 132.7Z" fill="#F7B548"/>
<path d="M456.88 110.35L394.14 112.79V190.42H456.88V110.35Z" fill="#6BA8F1"/>
<path d="M175.55 58.43L158.46 40.73L112.86 44.95V113L175.6 109.71L175.55 58.43Z" fill="#6BA8F1"/>
<path d="M256.15 31.99L193.42 37.62V108.78L256.15 105.49V31.99Z" fill="#F7B548"/>
<path d="M336.7 24.31L273.97 30.38V104.56L336.7 101.27V24.31Z" fill="#6BA8F1"/>
<path d="M417.21 36.99L399.8 18.51L354.52 22.7V100.33L417.47 96.98L417.21 36.99Z" fill="#57AA9A"/>
<path d="M498.49 9.86L434.53 15.7V95.91L498.49 92.55V9.86Z" fill="#F7B548"/>
<path d="M386.89 228.56C388.21 226.05 388.99 223.21 389.05 220.21C389.22 210.57 381.84 203.01 372.56 203.33C372.08 203.35 371.6 203.4 371.12 203.45C371.36 189.88 360.97 179.25 347.92 179.7C345.07 179.8 342.34 180.44 339.79 181.49C337.72 175.79 332.4 171.89 326.07 172.11C324.83 172.15 323.64 172.37 322.48 172.7C319.15 163.78 310.77 157.67 300.82 158.02C288.63 158.44 278.43 168.37 276.93 180.73C276 180.56 275.03 180.49 274.03 180.52C266.33 180.79 259.95 187.33 259.49 195.27C257.33 194.7 255.04 194.41 252.67 194.49C238.92 194.96 227.57 206.93 227.31 221.21C227.22 226.37 228.6 231.12 231.04 235.07C297.69 225.31 351.93 225.48 386.89 228.56Z" fill="#BDD8F9"/>
<path d="M323.74 246.41L307.69 263.68V217.46H302.07V263.69L286.01 246.41L281.89 250.25L304.87 274.96L327.85 250.25L323.74 246.41Z" fill="#8065E0"/>
<path d="M307.689 217.46H302.069V214.98H307.689V217.46ZM307.689 207.48H302.069V201.86H307.689V207.48ZM307.689 194.37H302.069V188.75H307.689V194.37ZM307.689 181.26H302.069V175.64H307.689V181.26Z" fill="#8065E0"/>
<path d="M340.2 280.13H268.06V285.75H340.2V280.13Z" fill="#8065E0"/>
<path d="M169.59 138.98C168.67 139.67 167.77 140.41 166.94 141.21C165.79 142.31 164.78 143.47 163.89 144.69L167.65 148.11C166.81 149.43 166.17 150.81 165.73 152.21L159.87 153.72C159.39 156.22 159.38 158.73 159.86 161.14L165.62 161.25C166.1 162.8 166.84 164.28 167.86 165.62C166.92 166.79 165.32 168.7 164.29 169.92C164.96 170.66 165.69 171.36 166.5 172.02C167.61 172.92 168.81 173.7 170.08 174.36L174.5 170.71C176.02 171.35 177.64 171.78 179.29 172.01L180.2 177.03C183 177.16 185.87 176.86 188.67 176.14L189.63 170.87C191.15 170.33 192.62 169.61 194.01 168.74L198.52 171.47C199.49 170.76 200.43 169.98 201.32 169.13C202.53 167.98 203.59 166.75 204.5 165.48L200.68 162.11C201.53 160.74 202.17 159.3 202.6 157.85L208.35 156.7C208.86 154.06 208.86 151.41 208.31 148.88C206.54 148.95 204.02 149.05 202.61 149.07C202.17 147.66 201.52 146.31 200.63 145.07L204.31 140.86C203.55 139.96 202.69 139.12 201.73 138.34C200.54 137.38 199.27 136.56 197.91 135.88L193.79 139.68C192.19 139 190.49 138.55 188.73 138.33L188.17 133.35C185.46 133.21 182.7 133.47 179.98 134.13L179.45 139.21C177.58 139.8 175.77 140.63 174.08 141.71L169.59 138.98ZM191.9 147.74C196.09 151.14 196 157.21 191.71 161.31C187.42 165.42 180.55 165.98 176.37 162.59C172.18 159.19 172.27 153.12 176.56 149.02C180.85 144.91 187.71 144.34 191.9 147.74Z" fill="white"/>
<path d="M297.88 82.93C297.34 75.49 293.51 69.64 288.42 62.09C283.33 54.54 284.33 36.71 304.16 35.11C323.77 33.52 327.08 50.84 320.09 62.62C314.58 71.88 312.5 74.72 312.69 82.63C312.88 90.54 298.56 92.45 297.88 82.93Z" fill="white"/>
<path d="M317.57 49.61C317.36 49.43 317.02 49.45 316.81 49.66C316.05 50.43 313.52 51.77 310.08 52.7L310.35 49.31C310.37 49.03 310.15 48.8 309.85 48.8C309.56 48.8 309.29 49.03 309.27 49.31L308.97 52.98C306.19 53.62 302.91 53.96 299.51 53.56L299.1 50.43C299.06 50.15 298.79 49.97 298.5 50.03C298.21 50.08 297.99 50.36 298.03 50.63L298.39 53.4C296.55 53.1 294.69 52.56 292.87 51.73C292.61 51.61 292.28 51.72 292.14 51.98C291.99 52.23 292.09 52.54 292.35 52.66C294.4 53.6 296.48 54.17 298.53 54.48L302.42 84.35C302.45 84.57 302.63 84.74 302.85 84.76C302.88 84.76 302.9 84.77 302.92 84.76L306.96 84.69C307.25 84.68 307.5 84.45 307.53 84.18L309.97 53.78C313.76 52.8 316.59 51.29 317.54 50.33C317.78 50.13 317.78 49.81 317.57 49.61ZM306.52 83.69L303.46 83.75L299.67 54.64C302.96 54.99 306.14 54.67 308.9 54.07L306.52 83.69Z" fill="#6BA8F1"/>
<path d="M299.37 91.76L301.01 95.05L309.35 94.94L311.44 91.81L299.37 91.76Z" fill="#1572E0"/>
<path d="M312.69 82.63L297.88 82.94L297.61 93.25L313.09 92.9L312.69 82.63Z" fill="#1572E0"/>
<path d="M312.96 89.6L312.93 88.92L297.71 89.27L297.69 89.96L312.96 89.6Z" fill="#6BA8F1"/>
<path d="M297.8 86.05L312.8 85.59L312.77 84.91L297.81 85.36L297.8 86.05Z" fill="#6BA8F1"/>
<path d="M158.43 40.7L158.83 59.89L175.55 58.43L158.43 40.7Z" fill="#B0D1F7"/>
<path d="M359 114.34L359.51 133.35L376.41 132.72L359 114.34Z" fill="#FFD590"/>
<path d="M399.81 18.46L400.32 38.15L417.22 37L399.81 18.46Z" fill="#7FD5CA"/>
<path d="M124.76 75L124.28 71.26L163.23 67.66L163.7 71.39L124.76 75Z" fill="#D8E8FB"/>
<path d="M124.74 86.24L124.3 82.5L163.05 79.28L163.49 83.02L124.74 86.24Z" fill="#D8E8FB"/>
<path d="M124.72 97.48L124.32 93.74L162.87 90.9L163.28 94.64L124.72 97.48Z" fill="#D8E8FB"/>
<path d="M366.54 55.86L366.07 52.13L405.01 48.52L405.49 52.25L366.54 55.86Z" fill="#C2E8E3"/>
<path d="M366.52 68.02L366.08 64.28L404.83 61.06L405.27 64.79L366.52 68.02Z" fill="#C2E8E3"/>
<path d="M366.51 80.17L366.1 76.43L404.66 73.6L405.06 77.34L366.51 80.17Z" fill="#C2E8E3"/>
<path d="M325.1 147.87L324.73 144.12L363.68 141.65L364.05 145.39L325.1 147.87Z" fill="#FFECCD"/>
<path d="M325.07 160.02L324.76 156.28L363.51 154.37L363.82 158.11L325.07 160.02Z" fill="#FFECCD"/>
<path d="M325.05 172.18L324.79 168.43L363.34 167.08L363.6 170.82L325.05 172.18Z" fill="#FFECCD"/>
<path d="M215.02 77.53V56.63C215.02 54.88 216.82 53.77 218.42 54.51L236.51 62.99C238.24 63.8 238.49 66.16 236.97 67.21L218.88 79.65C217.27 80.74 215.02 79.52 215.02 77.53Z" fill="white"/>
<path d="M193.42 92.93V108.78L256.15 105.49V88.85L193.42 92.93Z" fill="#FFD590"/>
<path d="M282.58 137.55L276.39 143.52L271.72 138.69L277.88 132.74C276.79 132.23 275.59 131.93 274.33 131.89C269.36 131.72 265.32 135.61 265.32 140.58C265.32 141.82 265.57 143.01 266.03 144.11C261.88 147.51 249.32 157.84 245.79 161.24C241.54 165.34 248.5 173.6 253.81 168.24C257.97 164.04 267.2 153.5 270.99 149.14C272.02 149.59 273.15 149.86 274.32 149.9C279.29 150.07 283.33 146.18 283.33 141.21C283.35 139.91 283.07 138.68 282.58 137.55ZM249.82 167.35C248.35 167.3 247.15 166.06 247.15 164.59C247.15 163.12 248.34 161.96 249.82 162.02C251.29 162.07 252.49 163.31 252.49 164.78C252.49 166.25 251.29 167.4 249.82 167.35Z" fill="#C2E8E3"/>
<path d="M417.47 160.51L399.89 154.36L399.83 152.59L416.87 142.43L416.96 145.13L403.08 153.06L417.37 157.79L417.47 160.51Z" fill="#D8E8FB"/>
<path d="M431.83 137.13L422.88 164.44L419.89 164.7L428.84 137.39L431.83 137.13Z" fill="#D8E8FB"/>
<path d="M434.72 156.29L448.64 149.18L434.3 143.64L434.21 140.94L451.82 148.12L451.88 149.89L434.81 159.02L434.72 156.29Z" fill="#D8E8FB"/>
<path d="M451.66 34.26C450.74 34.95 449.84 35.69 449.01 36.49C447.86 37.59 446.85 38.75 445.96 39.97L449.72 43.39C448.88 44.71 448.24 46.09 447.8 47.49L441.94 49C441.46 51.5 441.45 54.01 441.93 56.42L447.69 56.53C448.17 58.08 448.91 59.56 449.93 60.9C448.99 62.07 447.39 63.98 446.36 65.2C447.03 65.94 447.76 66.64 448.57 67.3C449.68 68.2 450.88 68.98 452.15 69.64L456.57 65.99C458.09 66.63 459.71 67.06 461.36 67.29L462.27 72.31C465.07 72.44 467.94 72.14 470.74 71.42L471.7 66.15C473.22 65.61 474.69 64.89 476.08 64.02L480.59 66.75C481.56 66.04 482.5 65.26 483.39 64.41C484.6 63.26 485.66 62.03 486.57 60.76L482.75 57.39C483.6 56.02 484.24 54.58 484.67 53.13L490.42 51.98C490.93 49.34 490.93 46.69 490.38 44.16C488.61 44.23 486.09 44.33 484.68 44.35C484.24 42.94 483.59 41.59 482.7 40.35L486.38 36.14C485.62 35.24 484.76 34.4 483.8 33.62C482.61 32.66 481.34 31.84 479.98 31.16L475.86 34.96C474.26 34.28 472.56 33.83 470.8 33.61L470.24 28.63C467.53 28.49 464.77 28.75 462.05 29.41L461.52 34.49C459.65 35.08 457.84 35.91 456.15 36.99L451.66 34.26ZM473.97 43.01C478.16 46.41 478.07 52.48 473.78 56.58C469.49 60.69 462.62 61.25 458.44 57.86C454.25 54.46 454.34 48.39 458.63 44.29C462.92 40.19 469.78 39.62 473.97 43.01Z" fill="#FEDEA7"/>
</svg>
