<svg width="636" height="300" viewBox="0 0 636 300" fill="none" xmlns="http://www.w3.org/2000/svg">
<path d="M493.51 88.84C493.7 87.97 493.9 87.1 493.9 86.24C493.9 79.97 488.37 74.86 481.58 74.86V74.76C481.58 66.08 474.02 59.04 464.61 59.04C461.51 59.04 458.69 59.81 456.17 61.16C453.55 52.48 444.92 46.12 434.74 46.12C424.75 46.12 416.31 52.19 413.5 60.58C411.85 59.62 409.91 59.13 407.78 59.13C401.67 59.13 396.63 63.76 396.63 69.45C396.63 70.12 396.73 70.7 396.82 71.28C389.35 71.95 383.63 77.74 383.63 84.78C383.63 86.8 384.12 88.83 384.99 90.56C436.88 88.84 471.21 88.55 493.51 88.84Z" fill="#E5F0FC"/>
<path d="M384.51 255.16C383.25 254.87 272.69 254.87 271.43 255.16C268.81 255.74 268.33 257.76 270.46 258.63C270.46 258.63 270.46 258.63 270.56 258.63C274.92 260.56 298.97 262.1 328.07 262.1C356.97 262.1 380.92 260.65 385.48 258.63H385.58C387.61 257.76 387.03 255.73 384.51 255.16Z" fill="#E86E58"/>
<path d="M348.33 252.26C340.38 248.02 331.36 229.22 331.36 208.58C331.36 191.03 331.94 153.82 363.17 149L330.88 142.15L329.04 142.34L294.9 149C326.13 153.82 326.71 191.04 326.71 208.58C326.71 229.02 315.65 247.92 307.6 252.26C285.59 252.84 269.87 254.38 269.87 256.12C269.87 258.34 295.96 260.27 328.06 260.27C360.16 260.27 386.25 258.44 386.25 256.12C386.16 254.38 370.45 252.84 348.33 252.26Z" fill="url(#paint0_linear)"/>
<path d="M425.24 142.16C423.2 141.77 234 141.97 232.54 142.26C229.34 143.03 228.08 145.54 233.32 146.5C243.41 148.62 282.49 150.26 329.04 150.26C376.85 150.26 416.71 148.62 425.53 146.31C430.38 145.34 429.51 142.93 425.24 142.16Z" fill="#E86E58"/>
<path d="M329.04 148.04C383.35 148.04 427.38 145.88 427.38 143.22C427.38 140.56 383.35 138.4 329.04 138.4C274.73 138.4 230.7 140.56 230.7 143.22C230.7 145.88 274.73 148.04 329.04 148.04Z" fill="#FDC9B5"/>
<path d="M362.4 137.34H326.71L318.76 138.5L357.55 139.37L362.4 137.34Z" fill="#B3AFAB"/>
<path d="M348.72 137.63L346 137.82L329.42 124.32L344.35 124.51L348.72 137.63Z" fill="#605D5A"/>
<path d="M346.1 137.82H330.1L325.64 124.32H341.64L346.1 137.82Z" fill="#797673"/>
<path d="M388 59.53L384.22 59.63C384.71 59.82 385.09 60.21 385.09 60.79L383.73 127.61C383.73 128.28 383.15 128.86 382.47 128.86H386.64C387.32 128.86 387.9 128.28 387.9 127.61L389.26 60.79C389.26 60.11 388.68 59.53 388 59.53Z" fill="#B3AFAB"/>
<path d="M353.86 138.49H318.75V141.19H353.86V138.49Z" fill="#797673"/>
<path d="M353.76 141.19L362.39 140.13V137.43L353.76 138.49V141.19Z" fill="#605D5A"/>
<path d="M288.11 65.41L383.34 61.65L382.95 127.5L286.65 126.83L288.11 65.41Z" fill="url(#paint1_radial)"/>
<path d="M129.06 101.86C127.99 115.84 131.68 147.85 133.72 159.13C135.95 171.57 140.41 179.96 149.04 179.96C156.12 179.96 171.25 179.96 176.48 179.96C166.69 152.76 143.81 115.84 129.06 101.86Z" fill="url(#paint2_linear)"/>
<path d="M176.29 264.12L178.33 196.05C179.01 189.69 180.85 186.41 184.92 184.29L182.88 179.95C175.99 183.61 174.44 189.88 173.86 195.57L171.82 264.02H176.28V264.12H176.29Z" fill="#C8C6C4"/>
<path d="M203.06 198.66L208.68 264.13H213.24L207.62 198.09V197.9C205.58 186.33 204.23 182.76 197.83 179.68L195.99 184.11C200.05 186.12 201.12 187.57 203.06 198.66Z" fill="#C8C6C4"/>
<path d="M132.94 264.12L149.33 192.19C150.3 187.95 153.79 184.96 157.86 184.96H231.86C235.74 184.96 239.23 187.76 240.3 191.71L260.57 264.12H265.22L244.56 190.36C242.91 184.38 237.67 180.14 231.86 180.14H157.86C151.75 180.14 146.42 184.58 144.96 191.03L128.28 264.11H132.94V264.12Z" fill="#C8C6C4"/>
<path d="M244.66 180.24H150.2C144.77 180.24 140.41 175.9 140.41 170.5C140.41 165.1 144.77 160.76 150.2 160.76H244.56C249.99 160.76 254.35 165.1 254.35 170.5C254.35 175.9 250 180.24 244.66 180.24Z" fill="url(#paint3_linear)"/>
<path d="M128.58 98.1C130.13 90.29 134.88 87.3 142.84 87.01C147.59 86.82 153.02 86.43 162.82 88.17C172.61 89.81 178.63 96.17 191.04 112.37C212.38 140.04 229.44 179.96 229.44 179.96H190.94C193.75 177.45 195.3 174.37 195.3 171.09C195.3 162.32 183.66 155.09 169.31 155.09C154.96 155.09 143.42 162.22 143.42 171.09C143.42 174.37 145.07 177.45 147.78 179.96C147.49 179.96 147.3 179.96 147 179.96C138.85 179.96 134.59 171.67 132.45 159.13C130.42 146.69 126.35 109.09 128.58 98.1Z" fill="url(#paint4_radial)"/>
<path d="M333.13 64.45L332.86 102.63L336.26 102.65L336.53 64.47L333.13 64.45Z" fill="#D1C5F4"/>
<path d="M320.79 91.35L323.31 89.04L334.56 101.28L346.1 89.23L348.52 91.54L334.56 106.29L320.79 91.35Z" fill="#D1C5F4"/>
<path d="M336.6 62.42H333.21V57.41H336.6V62.42ZM336.6 50.66H333.21V45.65H336.6V50.66ZM336.7 38.9H333.31V33.89H336.7V38.9ZM336.79 27.14H333.4V22.13H336.79V27.14Z" fill="#D1C5F4"/>
<path d="M303.05 116.13L303.53 93.86H306.92L306.53 112.76L361.61 112.37L361.9 92.7H365.29L365 115.74L303.05 116.13Z" fill="#D1C5F4"/>
<path d="M383.83 59.53L287.82 63.29C287.14 63.29 286.66 63.87 286.56 64.54L285.2 127.59C285.2 128.26 285.78 128.84 286.46 128.84H382.47C383.15 128.84 383.73 128.26 383.73 127.59L385.09 60.77C385.09 60.11 384.51 59.53 383.83 59.53ZM378.49 123.74C378.49 124.32 378.01 124.8 377.42 124.8H290.91C290.33 124.8 289.84 124.32 289.84 123.64L291.1 68.2C291.1 67.62 291.58 67.14 292.17 67.14L378.67 63.86C379.25 63.86 379.83 64.34 379.83 65.02L378.49 123.74Z" fill="#605D5A"/>
<defs>
<linearGradient id="paint0_linear" x1="328.066" y1="142.158" x2="328.066" y2="260.267" gradientUnits="userSpaceOnUse">
<stop offset="0.7665" stop-color="#CC5444"/>
<stop offset="0.9755" stop-color="#ED9583"/>
</linearGradient>
<radialGradient id="paint1_radial" cx="0" cy="0" r="1" gradientUnits="userSpaceOnUse" gradientTransform="translate(328.899 67.5891) scale(74.268 73.8354)">
<stop stop-color="#A08BE8"/>
<stop offset="1" stop-color="#8065E0"/>
</radialGradient>
<linearGradient id="paint2_linear" x1="118.885" y1="141.678" x2="166.552" y2="140.591" gradientUnits="userSpaceOnUse">
<stop stop-color="#E86E58"/>
<stop offset="0.423" stop-color="#E86E58"/>
<stop offset="1" stop-color="#CC5444"/>
</linearGradient>
<linearGradient id="paint3_linear" x1="197.386" y1="160.805" x2="197.386" y2="180.217" gradientUnits="userSpaceOnUse">
<stop offset="0.7648" stop-color="#E86E58"/>
<stop offset="1" stop-color="#CC5444"/>
</linearGradient>
<radialGradient id="paint4_radial" cx="0" cy="0" r="1" gradientUnits="userSpaceOnUse" gradientTransform="translate(132.291 74.7351) rotate(180) scale(73.8 77.5008)">
<stop stop-color="#ED9583"/>
<stop offset="0.8095" stop-color="#CC5444"/>
</radialGradient>
</defs>
</svg>
