<svg width="636" height="300" viewBox="0 0 636 300" fill="none" xmlns="http://www.w3.org/2000/svg">
<path d="M412.11 184.69C412.11 183.65 413.22 183.54 413.22 183.54L413.19 180.02C413.19 180.02 412.17 179.95 412.14 179.09L412.29 163.07C412.32 162.01 413.46 161.77 413.46 161.77L413.45 157.91C413.45 157.91 412.4 158.13 412.37 156.77C412.37 156.73 412.36 156.68 412.35 156.64L412.48 142.48C412.49 141.59 413.01 140.77 413.8 140.4L413.72 136.56L412.85 134.79L413.08 120.64L414.47 118.54L430.04 108.55L496.63 111.54L496.48 221.91L429.42 226.9C429.42 226.9 414.25 224.54 413.05 224.32C411.86 224.09 411.82 222.86 411.82 222.86L411.88 207.11C411.88 207.11 411.84 205.87 413.09 205.73C413.23 204.44 413.09 202.11 413.09 202.11C412.44 202.13 411.91 201.6 411.92 200.92C411.91 200.9 412.11 185.23 412.11 184.69Z" fill="#797673"/>
<path d="M413.45 157.9L430.44 153.73L430.28 157.73C430.28 157.73 429.13 158.04 427.73 158.42C426.85 158.66 413.46 161.77 413.46 161.77L413.45 157.9Z" fill="#605D5A"/>
<path d="M413.73 136.6L430.34 128.87L430.18 132.88L413.66 140.46L413.73 136.6Z" fill="#605D5A"/>
<path d="M413.24 183.59L413.2 180L430.26 176.64L430.35 180.69L413.24 183.59Z" fill="#605D5A"/>
<path d="M413.1 205.68L413.06 202.09L430.33 202.22L430.31 206.02L413.1 205.68Z" fill="#605D5A"/>
<path d="M430.23 129.42L498.3 130.66C498.85 130.65 499.31 130.15 499.33 129.53L499.19 111.86C499.22 111.19 498.74 110.64 498.14 110.65L430.32 108.47C429.74 108.48 429.27 109.01 429.26 109.66L429.15 128.24C429.16 128.9 429.64 129.43 430.23 129.42Z" fill="#B3AFAB"/>
<path d="M447.46 122.34L488.07 123.17L488.02 114.77L447.41 113.88L447.46 122.34Z" fill="#522CD5"/>
<path d="M452.87 121.11L482.8 121.84L482.76 115.66L452.84 114.9L452.87 121.11Z" fill="#957EE6"/>
<path d="M434.26 118.12C434.27 119.5 435.28 120.59 436.51 120.57C437.74 120.55 438.74 119.41 438.73 118.04C438.72 116.67 437.72 115.57 436.48 115.59C435.25 115.61 434.25 116.74 434.26 118.12Z" fill="white"/>
<path d="M466.37 117.3L454.89 117.05L454.9 119.42L466.38 119.67L466.37 117.3Z" fill="white"/>
<path d="M430.26 153.74L498.33 153.48C498.88 153.46 499.34 152.95 499.36 152.32L499.22 134.66C499.25 133.99 498.77 133.45 498.17 133.48L430.34 132.8C429.76 132.82 429.29 133.36 429.28 134.01L429.17 152.59C429.19 153.25 429.67 153.76 430.26 153.74Z" fill="#B3AFAB"/>
<path d="M447.49 146.28L488.1 146.22L488.06 137.82L447.44 137.83L447.49 146.28Z" fill="#522CD5"/>
<path d="M452.91 144.93L482.83 145.01L482.8 138.83L452.87 138.73L452.91 144.93Z" fill="#957EE6"/>
<path d="M434.29 142.35C434.3 143.73 435.31 144.8 436.54 144.75C437.77 144.7 438.77 143.54 438.76 142.17C438.75 140.8 437.75 139.72 436.51 139.77C435.28 139.82 434.29 140.98 434.29 142.35Z" fill="white"/>
<path d="M466.4 140.83H454.92L454.93 143.2H466.41L466.4 140.83Z" fill="white"/>
<path d="M430.26 176.66L497.62 175.48C498.32 175.45 498.89 174.78 498.9 173.99L499.15 158.13C499.15 157.31 498.56 156.68 497.83 156.72L430.69 157.68C429.99 157.72 429.18 158.42 429.16 159.2L428.93 175.2C428.91 176.03 429.51 176.7 430.26 176.66Z" fill="#F7B548"/>
<path d="M446.59 170.19L487.75 169.82L487.71 161.67L446.54 161.99L446.59 170.19Z" fill="#522CD5"/>
<path d="M451.74 168.93L482.66 168.62L482.62 162.5L451.7 162.78L451.74 168.93Z" fill="#957EE6"/>
<path d="M434.21 166.02C434.22 167.53 435.33 168.71 436.69 168.65C438.05 168.59 439.14 167.31 439.13 165.8C439.12 164.29 438.01 163.11 436.66 163.17C435.29 163.23 434.2 164.5 434.21 166.02Z" fill="white"/>
<path d="M465.342 164.626L453.862 164.701L453.878 167.071L465.358 166.996L465.342 164.626Z" fill="white"/>
<path d="M430.33 202.24L497.77 199.84C498.39 199.77 498.87 199.18 498.87 198.49L499.07 180.41C499.08 179.67 498.55 179.09 497.89 179.12L430.24 180.72C429.59 180.75 429.07 181.34 429.05 182.06L429.06 200.92C429.04 201.71 429.63 202.32 430.33 202.24Z" fill="#B3AFAB"/>
<path d="M433.98 189.49C433.99 191 435.1 192.17 436.46 192.11C437.82 192.04 438.91 190.76 438.9 189.25C438.89 187.74 437.78 186.57 436.43 186.63C435.06 186.69 433.97 187.97 433.98 189.49Z" fill="white"/>
<path d="M445.78 193.6L486.95 192.35L486.9 184.2L445.73 185.4L445.78 193.6Z" fill="#522CD5"/>
<path d="M450.92 192.32L481.85 191.44L481.82 185.32L450.89 186.17L450.92 192.32Z" fill="#957EE6"/>
<path d="M464.52 187.78L453.04 188.08L453.05 190.46L464.54 190.15L464.52 187.78Z" fill="white"/>
<path d="M429.57 226.93L497.66 223.41C498.21 223.36 498.67 222.83 498.69 222.2L498.55 204.56C498.58 203.89 498.1 203.37 497.5 203.43L429.65 206C429.07 206.05 428.6 206.61 428.59 207.26L428.48 225.84C428.5 226.49 428.98 226.99 429.57 226.93Z" fill="#B3AFAB"/>
<path d="M446.8 218.65L487.43 216.64L487.38 208.25L446.75 210.21L446.8 218.65Z" fill="#522CD5"/>
<path d="M452.22 217.04L482.15 215.68L482.12 209.51L452.18 210.84L452.22 217.04Z" fill="#957EE6"/>
<path d="M433.6 215.36C433.61 216.73 434.62 217.76 435.85 217.65C437.08 217.54 438.08 216.34 438.07 214.96C438.06 213.59 437.06 212.56 435.82 212.67C434.59 212.78 433.59 213.98 433.6 215.36Z" fill="white"/>
<path d="M465.72 212.29L454.23 212.84L454.25 215.22L465.73 214.66L465.72 212.29Z" fill="white"/>
<path d="M376.52 111.08C375.46 111.35 374.41 111.69 373.38 112.12C371.97 112.7 370.66 113.41 369.45 114.21L371.62 119.19C370.41 120.13 369.36 121.22 368.47 122.41L362.67 121.38C361.35 123.65 360.46 126.13 360.04 128.73L365.2 131.29C365.09 133.03 365.24 134.8 365.68 136.56C364.42 137.32 362.31 138.54 360.95 139.32C361.29 140.34 361.71 141.34 362.21 142.33C362.9 143.7 363.71 144.97 364.62 146.15L369.87 144.37C371.01 145.63 372.3 146.73 373.7 147.64L372.77 152.97C375.22 154.25 377.87 155.12 380.59 155.55L383.25 150.77C384.77 150.86 386.31 150.76 387.82 150.48L390.83 154.99C391.92 154.69 393 154.3 394.06 153.84C395.5 153.2 396.83 152.44 398.05 151.57L395.89 146.74C397.09 145.75 398.13 144.62 398.99 143.38L404.32 144.61C405.64 142.27 406.52 139.7 406.9 137.03C405.36 136.37 403.18 135.42 401.96 134.86C402.06 133.31 401.94 131.74 401.6 130.17L406.17 127.64C405.82 126.46 405.37 125.29 404.8 124.14C404.11 122.72 403.28 121.39 402.35 120.16L397.52 122.1C396.37 120.77 395.04 119.61 393.59 118.66L394.79 113.59C392.49 112.29 389.98 111.36 387.39 110.84L385.18 115.56C383.33 115.33 381.45 115.37 379.59 115.7L376.52 111.08ZM393.11 129.12C395.59 134.17 393.46 140.04 388.33 142.27C383.16 144.52 376.89 142.23 374.35 137.14C371.8 132.03 373.99 126.09 379.22 123.89C384.41 121.7 390.62 124.06 393.11 129.12Z" fill="#A7A4A0"/>
<path d="M398.31 215.05C398.27 237.56 380 255.72 356.84 255.62C332.92 255.51 312.96 236.07 312.99 212.2C313.01 188.32 333.02 170.2 356.96 171.69C380.12 173.13 398.34 192.52 398.31 215.05Z" fill="#F7B548"/>
<path d="M376.11 214.31C376.09 224.68 367.58 232.96 356.97 232.75C352.24 232.66 347.77 230.86 344.26 227.84C346.06 226.61 347.49 225.59 347.36 225.56C347.04 225.47 335.66 219.59 335.66 219.59L337.68 232.25C337.68 232.25 339.38 231.13 341.35 229.81C345.57 233.7 351.12 235.99 356.97 236.09C369.41 236.3 379.38 226.58 379.4 214.42L376.11 214.31Z" fill="white"/>
<path d="M368.26 204.45C368.56 204.56 378.93 211.27 378.93 211.27L378.04 198.88C378.04 198.88 376.56 199.68 374.76 200.67C370.62 195.16 364.15 191.59 357.03 191.23C344.35 190.6 333.85 200.31 333.84 212.88C333.84 213.96 333.92 215.04 334.07 216.11L337.54 215.74C337.41 214.83 337.34 213.91 337.35 212.99C337.36 202.32 346.26 194.05 357.04 194.56C362.96 194.84 368.37 197.73 371.91 202.24C369.86 203.4 368.13 204.41 368.26 204.45Z" fill="white"/>
<path d="M362.83 180.72H360.83V163.99L448.6 164.97L448.58 166.97L362.83 166.01V180.72Z" fill="#908D89"/>
<path d="M352.41 180.79H350.41V132.71L362.15 133.12L362.08 135.12L352.41 134.78V180.79Z" fill="#908D89"/>
<path d="M331.01 95.82L331.03 74.35C331.03 70.98 328.64 68.94 325.68 68.73L131.43 52.76C127.72 52.5 124.71 54.32 124.71 58.11V84.03C164.73 86.21 296.65 93.43 331.01 95.82Z" fill="#605D5A"/>
<path d="M124.71 81.48V195.32C124.71 199.1 126.03 200.85 129.98 200.82L326.42 199.36C329.57 199.34 330.89 197.95 330.9 194.59L331.02 93.11L124.71 81.48Z" fill="#A7CBF6"/>
<path d="M278.98 138.85L187.41 136.29C184.76 136.22 182.6 133.89 182.61 131.1L182.62 107.12C182.62 104.33 184.78 102.16 187.43 102.29L279.02 106.57C281.4 106.68 283.33 108.91 283.32 111.55L283.3 134.19C283.29 136.83 281.37 138.92 278.98 138.85Z" fill="white"/>
<path d="M279.1 140.09C279.05 140.09 279 140.09 278.95 140.09L187.38 137.53C184.07 137.44 181.37 134.55 181.38 131.1L181.39 107.12C181.39 105.38 182.06 103.79 183.27 102.63C184.41 101.54 185.9 100.98 187.49 101.05L279.08 105.33C282.11 105.47 284.56 108.26 284.56 111.54L284.54 134.18C284.54 135.86 283.88 137.46 282.74 138.57C281.73 139.56 280.45 140.09 279.1 140.09ZM187.21 103.52C186.37 103.52 185.58 103.84 184.97 104.42C184.25 105.1 183.86 106.06 183.86 107.12L183.85 131.1C183.85 133.23 185.46 135 187.45 135.06L279.02 137.62C279.71 137.64 280.46 137.36 281.01 136.82C281.68 136.17 282.06 135.22 282.06 134.2L282.08 111.56C282.08 109.58 280.68 107.9 278.95 107.82L187.36 103.54C187.32 103.52 187.26 103.52 187.21 103.52Z" fill="#F7B548"/>
<path d="M239.9 152.41L166.55 150.98V146.51L239.9 148.12V152.41Z" fill="white"/>
<path d="M297.83 167.38L166.55 165.88V161.41L297.83 163.23V167.38Z" fill="white"/>
<path d="M265.91 181.1L166.55 180.78V176.31L265.91 176.88V181.1Z" fill="white"/>
<path d="M240.31 111.69C239.97 111.68 239.64 111.5 239.44 111.19L232.35 100.32C232.02 99.81 232.14 99.15 232.63 98.84C233.12 98.53 233.78 98.69 234.11 99.2L241.19 110.06C241.52 110.56 241.4 111.23 240.91 111.54C240.73 111.65 240.52 111.7 240.31 111.69Z" fill="#797673"/>
<path d="M247.53 110.13C246.96 110.11 246.49 109.62 246.48 109.03L246.27 96.33C246.26 95.74 246.72 95.28 247.3 95.3C247.9 95.35 248.35 95.82 248.36 96.41L248.57 109.1C248.58 109.69 248.12 110.16 247.54 110.14C247.54 110.13 247.53 110.13 247.53 110.13Z" fill="#797673"/>
<path d="M253.85 113.39C253.58 113.38 253.31 113.26 253.11 113.04C252.71 112.6 252.72 111.93 253.13 111.53L261.92 103.12C262.32 102.73 262.97 102.77 263.37 103.21C263.77 103.65 263.76 104.32 263.35 104.71L254.58 113.12C254.37 113.31 254.11 113.4 253.85 113.39Z" fill="#797673"/>
<path d="M235.77 116.46C235.64 116.45 235.51 116.42 235.38 116.37L223.6 111.17C223.05 110.93 222.78 110.29 223 109.74C223.22 109.19 223.85 108.95 224.39 109.19L236.16 114.4C236.7 114.64 236.97 115.28 236.75 115.82C236.6 116.24 236.2 116.48 235.77 116.46Z" fill="#797673"/>
<path d="M222.25 124.39C221.73 124.37 221.28 123.98 221.19 123.45C221.09 122.86 221.49 122.31 222.07 122.23L234.58 120.53C235.19 120.45 235.71 120.87 235.81 121.46C235.91 122.05 235.52 122.59 234.94 122.67L222.44 124.38C222.37 124.38 222.31 124.39 222.25 124.39Z" fill="#797673"/>
<path d="M246.21 122.39L248.96 151.25C249.07 152.44 250.52 152.92 251.27 152.03L258.54 143.29L270.58 141.49C271.68 141.33 272.01 139.87 271.12 139.16L248.31 121.24C247.39 120.51 246.09 121.21 246.21 122.39Z" fill="#797673"/>
<path d="M174.84 74.33L277.88 80.82C279.48 80.91 280.8 79.38 280.8 77.44C280.8 75.57 279.57 74.01 278.03 73.92L175.03 66.96C173.2 66.85 171.69 68.47 171.68 70.55C171.67 72.55 173.08 74.23 174.84 74.33Z" fill="#C8C6C4"/>
<path d="M155.99 69.15C155.99 70.89 157.24 72.33 158.78 72.37C160.32 72.41 161.57 71.04 161.58 69.31C161.58 67.58 160.34 66.13 158.8 66.09C157.25 66.04 155.99 67.41 155.99 69.15Z" fill="#E86E58"/>
<path d="M146.31 68.59C146.31 70.34 147.57 71.79 149.14 71.83C150.7 71.87 151.97 70.49 151.97 68.75C151.97 67.01 150.71 65.55 149.15 65.51C147.59 65.46 146.31 66.84 146.31 68.59Z" fill="#FAE969"/>
<path d="M136.35 68.01C136.35 69.77 137.63 71.23 139.21 71.27C140.79 71.31 142.07 69.93 142.08 68.17C142.08 66.42 140.81 64.96 139.23 64.91C137.64 64.86 136.35 66.25 136.35 68.01Z" fill="#56A84F"/>
<path d="M321 83.36L313.63 82.85V75.07L321 75.62V83.36Z" fill="#C8C6C4"/>
</svg>
