<svg width="636" height="300" viewBox="0 0 636 300" fill="none" xmlns="http://www.w3.org/2000/svg">
<path d="M317.51 294.34C384.176 294.34 438.22 290.602 438.22 285.99C438.22 281.378 384.176 277.64 317.51 277.64C250.844 277.64 196.8 281.378 196.8 285.99C196.8 290.602 250.844 294.34 317.51 294.34Z" fill="#D1C5F4"/>
<path d="M311.88 5.54999C303.92 5.57999 296.23 8.43999 290.19 13.62C284.15 18.8 280.15 25.97 278.92 33.84C277.69 41.7 279.3 49.75 283.47 56.53C287.64 63.31 294.08 68.39 301.66 70.85C302.6 71.12 303.68 70.71 303.68 68.69V63.02C295.21 64.37 293.05 61.54 292.11 58.57C291.36 56.54 289.93 54.82 288.07 53.71C286.99 53.04 287.26 52.09 288.47 51.96C289.95 51.82 292.37 52.64 293.99 55.6C296.28 59.51 300.18 59.92 303.68 58.3C303.73 57.42 303.96 56.56 304.35 55.77C304.74 54.98 305.29 54.28 305.97 53.71C296.15 52.63 291.71 48.72 290.5 40.35C289.69 34.41 291.58 30.77 294 28.34C292.95 25.4 293.05 22.17 294.27 19.3C294.27 19.3 298.17 18.76 303.28 22.81C308.87 21.28 314.75 21.23 320.36 22.68C325.47 18.76 329.24 19.17 329.24 19.17C330.47 22.04 330.57 25.27 329.51 28.21C333.01 32.12 333.28 36.71 332.87 41.16C332.2 47.1 328.3 52.49 317.67 53.71C318.47 54.35 319.09 55.18 319.49 56.12C319.89 57.06 320.05 58.09 319.96 59.11V68.82C319.96 70.3 320.77 70.98 321.98 70.71C329.54 68.27 335.98 63.22 340.15 56.46C344.32 49.7 345.94 41.67 344.72 33.83C343.5 25.98 339.53 18.82 333.51 13.64C327.49 8.45999 319.83 5.58999 311.88 5.54999Z" fill="#191717"/>
<path d="M235.04 32.69H172.29V98.3H235.04V32.69Z" fill="#F0DB4F"/>
<path d="M200.51 63.2H206.48V84.65C206.48 90.04 202.92 93.25 198.11 93.25C190.65 93.25 188.82 87.74 188.82 87.74L193.75 84.76C193.75 84.76 195.13 87.86 197.54 87.86C199.95 87.86 200.52 86.14 200.52 83.39V63.2H200.51Z" fill="#323330"/>
<path d="M223.8 70.54L228.27 67.67C227.58 66.16 226.46 64.89 225.05 64.02C223.64 63.14 222.01 62.7 220.35 62.74C214.38 62.74 211.4 66.53 211.4 71.34C211.4 76.16 215.99 78.91 219.2 80.17C222.53 81.55 224.25 82.81 224.25 84.76C224.25 86.25 222.99 87.74 220.35 87.74C216.22 87.86 214.38 83.95 214.38 83.95L209.68 87.05C209.68 87.05 212.2 93.13 220.46 93.13C228.72 93.13 230.1 87.39 230.1 84.64C230.1 81.89 229.18 78.1 223.33 75.58C217.48 72.94 217.14 71.79 217.14 70.3C217.14 68.81 218.4 67.78 220.24 67.78C222.08 67.78 223.8 70.43 223.8 70.54Z" fill="#323330"/>
<path d="M347.23 182.56L347.07 172.9C359.24 172.7 368.27 169.08 373.89 162.16C384.09 149.62 380.5 130.13 380.47 129.93L389.96 128.12C390.15 129.1 394.39 152.26 381.39 168.26C373.88 177.5 362.38 182.31 347.23 182.56Z" fill="#8A6FE8"/>
<path d="M365.1 130.58L376.34 139.94C378.34 141.61 381.32 141.34 382.99 139.34C384.66 137.34 384.39 134.36 382.39 132.69L371.15 123.33C369.15 121.66 366.17 121.93 364.5 123.93C362.83 125.93 363.1 128.91 365.1 130.58Z" fill="#8A6FE8"/>
<path d="M393.4 133.85L397.44 124.88C398.5 122.48 397.42 119.68 395.02 118.62C392.62 117.56 389.82 118.64 388.76 121.04L384.62 130.23L393.4 133.85Z" fill="#8A6FE8"/>
<path d="M391.21 129L391.16 115.44C391.14 112.82 389 110.71 386.38 110.73C383.76 110.75 381.65 112.89 381.67 115.51V125.59L391.21 129Z" fill="#8A6FE8"/>
<path d="M385.61 130.47L382.48 117.26C381.88 114.71 379.33 113.13 376.78 113.72C374.23 114.32 372.65 116.87 373.24 119.42L376.42 132.87L385.61 130.47Z" fill="#8A6FE8"/>
<path d="M383.85 142.95C389.334 142.95 393.78 138.504 393.78 133.02C393.78 127.536 389.334 123.09 383.85 123.09C378.366 123.09 373.92 127.536 373.92 133.02C373.92 138.504 378.366 142.95 383.85 142.95Z" fill="url(#paint0_radial)"/>
<path d="M335.3 249.24C335.39 240.87 334.2 223.88 325.56 209.65L317.11 214.78C324.95 227.68 325.54 242.75 325.36 249.32C325.34 249.86 330.41 250.35 335.3 249.24Z" fill="url(#paint1_linear)"/>
<path d="M325.36 249.22L333.18 249.18L340.48 291.02L324.78 291.09C323.59 291.1 322.68 290.13 322.76 288.94L325.36 249.22Z" fill="#522CD5"/>
<path d="M357.23 280.02C358.59 281.09 358.56 282.64 358.46 284.28L358.13 289.29C358.07 290.19 357.29 290.92 356.39 290.93L340.03 291C339.01 291 338.24 290.18 338.31 289.17L338.42 283.98C338.54 282.09 337.91 281.4 336.45 279.62C333.95 276.58 326.54 260.01 327.25 249.22L335.31 249.18C335.83 255.58 344.29 269.81 357.23 280.02Z" fill="url(#paint2_linear)"/>
<path d="M358.46 284.28C358.53 283.14 358.56 282.04 358.11 281.12L337.7 281.21C338.26 282.04 338.5 282.76 338.42 283.98L338.31 289.17C338.24 290.19 339.01 291.01 340.03 291L356.39 290.93C357.29 290.93 358.07 290.19 358.13 289.29L358.46 284.28Z" fill="url(#paint3_radial)"/>
<path d="M292.15 249.42C291.98 241.05 293.02 224.05 301.53 209.74L310.03 214.79C302.31 227.77 301.86 242.83 302.1 249.4C302.11 249.95 297.05 250.49 292.15 249.42Z" fill="url(#paint4_linear)"/>
<path d="M283.59 283.16C283.58 282.04 283.74 281.06 284.22 279.43C291.53 259.46 292.14 249.38 292.14 249.38L302.1 249.33C302.1 249.33 302.78 259.21 310.27 279.11C310.86 280.53 310.93 281.82 311.01 283.02L311.05 289.41C311.05 290.37 310.27 291.16 309.31 291.17H308.83L285.85 291.27H285.37C284.4 291.27 283.62 290.49 283.61 289.53L283.59 283.16Z" fill="url(#paint5_linear)"/>
<path d="M283.59 283.16C283.59 282.98 283.59 282.8 283.6 282.63C283.65 282.07 283.91 281.45 285.12 281.44L309.7 281.33C310.59 281.36 310.88 282.04 310.97 282.47C310.98 282.66 311 282.85 311.01 283.04L311.05 289.43C311.05 290.03 310.75 290.57 310.28 290.88C310 291.07 309.67 291.18 309.3 291.18H308.82L285.84 291.28H285.36C284.88 291.28 284.44 291.09 284.12 290.77C283.8 290.45 283.6 290.02 283.6 289.53L283.59 283.16Z" fill="url(#paint6_radial)"/>
<path d="M250.31 229.81L256.92 237.24C258.69 239.21 261.73 239.36 263.69 237.59C265.66 235.82 265.81 232.78 264.04 230.82L255.89 221.87L250.31 229.81Z" fill="#8A6FE8"/>
<path d="M360.54 177.39C361.8 163.48 357.79 153.21 357.79 153.21L360.93 152.69L361 152.62C352.44 128.9 327.92 113.92 302.16 118.21C273.13 123.04 253.51 150.48 258.34 179.51C263.17 208.54 290.61 228.16 319.64 223.33C342.55 219.52 359.59 201.63 363.39 179.99C363.44 179.07 363.16 177.52 360.54 177.39Z" fill="url(#paint7_radial)"/>
<path d="M360.63 189.84L269.99 204.91C272.6 208.03 275.55 210.83 278.77 213.26L355.01 200.58C357.28 197.24 359.17 193.64 360.63 189.84Z" fill="#D8CFF7"/>
<path d="M239.96 226.36L238.38 236.18C237.98 238.8 239.77 241.25 242.39 241.65C245.01 242.05 247.46 240.26 247.86 237.64L249.48 227.58L239.96 226.36Z" fill="#8A6FE8"/>
<path d="M246.33 227.46L245 237.31C244.66 239.94 246.52 242.34 249.15 242.68C251.78 243.02 254.18 241.16 254.52 238.53L255.88 228.43L246.33 227.46Z" fill="#8A6FE8"/>
<path d="M237.49 223.42L233.93 232.7C233 235.18 234.25 237.95 236.73 238.88C239.21 239.81 241.98 238.56 242.91 236.08L246.56 226.56L237.49 223.42Z" fill="#8A6FE8"/>
<path d="M244.1 227.48C240.14 219.39 237.83 205.55 244.36 193.19C248.32 185.68 257.02 176.16 275.9 173.42L277.44 182.94C265.97 184.6 256.61 190.62 252.57 198.27C248.19 206.56 249.13 216.82 252.23 223.14L244.1 227.48Z" fill="url(#paint8_linear)"/>
<path d="M279.54 186.84C284.941 186.84 289.32 182.461 289.32 177.06C289.32 171.659 284.941 167.28 279.54 167.28C274.139 167.28 269.76 171.659 269.76 177.06C269.76 182.461 274.139 186.84 279.54 186.84Z" fill="url(#paint9_radial)"/>
<path d="M246.85 232.72C252.395 232.72 256.89 228.225 256.89 222.68C256.89 217.135 252.395 212.64 246.85 212.64C241.305 212.64 236.81 217.135 236.81 222.68C236.81 228.225 241.305 232.72 246.85 232.72Z" fill="url(#paint10_radial)"/>
<path d="M360.54 177.39C361.78 163.65 357.89 153.47 357.79 153.22L303.26 162.29C303.26 162.29 299.77 162.51 300.29 165.65C300.81 168.79 302.42 177.63 304.05 187.44C304.39 189.46 306.2 190.15 307.5 189.94C307.49 189.93 355.05 182.02 360.54 177.39Z" fill="url(#paint11_radial)"/>
<path d="M327.7 182.88C327.7 182.88 334.98 174.85 336.41 173.35C337.84 171.85 339.26 171.54 340.98 172.59C342.7 173.64 352.19 178.81 352.19 178.81L327.7 182.88Z" fill="#A08BE8"/>
<path d="M363.26 180.62C363.26 180.62 364.25 177.58 360.54 177.39C360.54 177.38 306.92 186.26 306.92 186.26C305.67 186.47 303.94 185.99 303.6 184.8C303.75 185.67 303.89 186.54 304.04 187.43C304.34 189.26 305.86 190 307.11 189.96C307.23 189.95 307.36 189.95 307.48 189.93L311.15 189.32L363.26 180.62Z" fill="#512BD4"/>
<path d="M353.522 172.953C355.799 172.61 357.177 169.228 356.599 165.399C356.021 161.571 353.706 158.747 351.429 159.09C349.151 159.434 347.774 162.816 348.352 166.645C348.93 170.473 351.245 173.297 353.522 172.953Z" fill="#512BD4"/>
<path d="M351.81 162.38C350.56 164.13 350.96 166.57 352.71 167.82C353.91 168.68 355.43 168.76 356.67 168.16C356.75 167.3 356.73 166.37 356.59 165.41C356.31 163.53 355.6 161.9 354.7 160.76C353.58 160.84 352.51 161.4 351.81 162.38Z" fill="#8065E0"/>
<path d="M320.609 178.462C322.875 178.05 324.151 174.629 323.459 170.819C322.768 167.01 320.37 164.256 318.104 164.667C315.838 165.079 314.562 168.501 315.254 172.31C315.946 176.119 318.343 178.873 320.609 178.462Z" fill="#512BD4"/>
<path d="M318.75 168.11C317.5 169.86 317.9 172.3 319.65 173.55C320.84 174.4 322.35 174.49 323.59 173.9C323.69 172.94 323.65 171.9 323.46 170.82C323.15 169.09 322.48 167.59 321.63 166.49C320.52 166.57 319.45 167.13 318.75 168.11Z" fill="#8065E0"/>
<path d="M349.206 188.847L331.989 191.629L334.449 206.851L351.666 204.07L349.206 188.847Z" fill="#512BD4"/>
<path d="M347.75 198.87C347.86 198.85 347.96 198.8 348.02 198.71C348.09 198.62 348.11 198.52 348.09 198.41C348.07 198.3 348.02 198.21 347.92 198.15C347.83 198.08 347.72 198.06 347.61 198.08C347.49 198.1 347.4 198.15 347.33 198.25C347.26 198.34 347.24 198.44 347.25 198.55C347.27 198.66 347.32 198.74 347.42 198.81C347.53 198.87 347.63 198.89 347.75 198.87Z" fill="white"/>
<path d="M343.16 199.56L343.9 199.44L345.35 196.03C345.39 195.94 345.41 195.86 345.43 195.77H345.45C345.45 195.86 345.47 196.06 345.52 196.35L345.97 199.11L346.63 199L345.94 194.79L345.15 194.92L343.75 198.25C343.69 198.39 343.65 198.48 343.64 198.53H343.63C343.63 198.42 343.61 198.23 343.57 197.96L343.12 195.25L342.46 195.36L343.16 199.56Z" fill="white"/>
<path d="M339.96 200.08L342.26 199.7L341.57 195.49L339.36 195.85L339.46 196.44L340.99 196.19L341.19 197.38L339.78 197.61L339.88 198.2L341.29 197.97L341.49 199.21L339.87 199.48L339.96 200.08Z" fill="white"/>
<path d="M336.09 197L337.27 196.81L337.86 200.43L338.54 200.32L337.95 196.7L339.13 196.51L339.03 195.92L335.99 196.42L336.09 197Z" fill="white"/>
<path d="M297.74 115.01L307.89 113.32L304.73 103.13L297.44 104.34L297.74 115.01Z" fill="#8577E5"/>
<path d="M300.27 105.32C304.318 105.32 307.6 102.038 307.6 97.99C307.6 93.9417 304.318 90.66 300.27 90.66C296.222 90.66 292.94 93.9417 292.94 97.99C292.94 102.038 296.222 105.32 300.27 105.32Z" fill="#D8CFF7"/>
<path d="M294.91 122.03C294.45 122.11 294.02 121.77 293.99 121.31C293.73 116.4 297.19 111.97 302.15 111.14C307.11 110.31 311.82 113.38 313.16 118.12C313.29 118.57 312.99 119.02 312.53 119.1L294.91 122.03Z" fill="url(#paint12_radial)"/>
<path d="M421.79 100.02C441.164 100.02 456.87 84.3141 456.87 64.94C456.87 45.5658 441.164 29.86 421.79 29.86C402.416 29.86 386.71 45.5658 386.71 64.94C386.71 84.3141 402.416 100.02 421.79 100.02Z" fill="#F7B548"/>
<path d="M439.51 56.18C439.51 46.27 431.47 38.23 421.56 38.23C411.65 38.23 403.61 46.27 403.61 56.18C403.61 60.11 404.89 63.73 407.03 66.69H407.02C414.53 76.37 414.87 84.39 414.87 84.39H418.76H424.4H428.29C428.29 84.39 428.28 76.81 435.8 67.13H435.77C438.11 64.1 439.51 60.31 439.51 56.18Z" fill="white"/>
<path d="M434.95 53.53C434.77 53.2 434.37 53.08 434.04 53.26C432.45 54.12 430.36 54.78 428 55.22L428.32 52.73C428.37 52.36 428.11 52.02 427.74 51.98C427.37 51.93 427.03 52.19 426.99 52.56L426.61 55.46C424.97 55.69 423.24 55.82 421.48 55.82C419.95 55.82 418.46 55.72 417.03 55.55L416.64 52.57C416.59 52.2 416.26 51.94 415.89 51.99C415.52 52.04 415.26 52.38 415.31 52.74L415.65 55.35C413.26 54.96 411.1 54.34 409.4 53.51C409.07 53.35 408.66 53.49 408.5 53.82C408.34 54.15 408.48 54.56 408.81 54.72C410.71 55.65 413.14 56.34 415.83 56.74L419.65 86.13C419.69 86.47 419.98 86.72 420.32 86.72C420.35 86.72 420.38 86.72 420.41 86.71C420.78 86.66 421.04 86.32 420.99 85.96L417.2 56.9C418.58 57.05 420.01 57.14 421.48 57.14C423.19 57.14 424.85 57.02 426.43 56.82L422.64 85.94C422.59 86.31 422.85 86.65 423.22 86.69C423.25 86.69 423.28 86.7 423.31 86.7C423.64 86.7 423.93 86.45 423.98 86.11L427.82 56.61C430.48 56.15 432.85 55.42 434.68 54.43C435.01 54.26 435.13 53.85 434.95 53.53Z" fill="#FCCF84"/>
<path d="M428.29 84.35H414.85V94.37H417.21L418.22 96.3H424.86L425.88 94.37H428.29V84.35Z" fill="#848484"/>
<path d="M428.28 90.65H414.85V91.5H428.28V90.65Z" fill="#BBB8B4"/>
<path d="M428.29 87.28H414.86V88.13H428.29V87.28Z" fill="#BBB8B4"/>
<path d="M132.8 138.26H105.98V154.74H132.8V138.26Z" fill="#0B7891"/>
<path d="M158.32 138.26H131.5V154.74H158.32V138.26Z" fill="#1DACCC"/>
<path d="M183.85 138.26H157.03V154.74H183.85V138.26Z" fill="#33D5F9"/>
<path d="M132.8 158.79H105.98V175.27H132.8V158.79Z" fill="#263619"/>
<path d="M158.32 158.79H131.5V175.27H158.32V158.79Z" fill="#6E7F17"/>
<path d="M183.85 158.79H157.03V175.27H183.85V158.79Z" fill="#C5D43B"/>
<path d="M132.8 179.33H105.98V195.81H132.8V179.33Z" fill="#E86E58"/>
<path d="M158.32 179.33H131.5V195.81H158.32V179.33Z" fill="#ED9583"/>
<path d="M183.85 179.33H157.03V195.81H183.85V179.33Z" fill="#FDC9B5"/>
<path d="M167.71 152.96C169.04 163.57 181.54 172.23 196.04 166.08C198.11 165.2 197.93 163.97 195.26 163.97C192.59 163.97 189.99 161.22 185.94 155.21C181.9 149.2 169.24 149.83 169.24 149.83L167.71 152.96Z" fill="#625F5B"/>
<path d="M109.99 99.98C116.57 108.77 144.25 140.98 165.92 153.24C168.88 154.92 172.16 151.3 170.16 148.54C155.58 128.36 120.48 104.41 111.02 98.85C109.71 98.08 109.08 98.77 109.99 99.98Z" fill="#84817D"/>
<path d="M150.44 142.1C154.84 145.98 161.12 150.51 166.15 153.35C168.84 154.87 172.11 151.21 170.3 148.71C166.92 144.03 162.45 139.12 157.42 134.31C157.42 134.31 155.9 138.41 150.44 142.1Z" fill="#EEEDEC"/>
<path d="M182.28 167.68C186.4 168.52 191.1 168.18 196.05 166.08C198.12 165.2 197.94 163.97 195.27 163.97C192.6 163.97 190 161.22 185.95 155.21C185.03 153.85 183.67 152.84 182.12 152.08C182.22 153.39 182.68 155.21 184.21 157.16C185.92 159.34 183.04 160.19 180.03 159.47C177.02 158.75 176.7 160.99 179.68 163.94C182.24 166.49 182.12 166.1 182.28 167.68Z" fill="#E86E58"/>
<path d="M152.79 140.29C152.1 140.89 151.2 141.51 150.31 142.11C154.71 145.99 161.12 150.5 166.15 153.35C167.15 153.91 168.22 153.77 169.09 153.23C164.33 149.6 158.39 144.96 152.79 140.29Z" fill="#D5D3D0"/>
<path d="M516.88 139.16H437.09C435 139.16 433.3 140.86 433.3 142.95V196.17C433.3 198.26 435 199.96 437.09 199.96H516.88C518.97 199.96 520.67 198.26 520.67 196.17V142.95C520.67 140.86 518.97 139.16 516.88 139.16Z" fill="#76AFF2"/>
<path d="M491.78 159.01H470.46C469.66 159.01 469.01 158.34 469.01 157.51C469.01 156.68 469.66 156.01 470.46 156.01H491.78C492.58 156.01 493.23 156.68 493.23 157.51C493.23 158.34 492.58 159.01 491.78 159.01Z" fill="white"/>
<path d="M463.99 159.01H454.28C453.48 159.01 452.83 158.34 452.83 157.51C452.83 156.68 453.48 156.01 454.28 156.01H463.99C464.79 156.01 465.44 156.68 465.44 157.51C465.44 158.34 464.79 159.01 463.99 159.01Z" fill="#F7B548"/>
<path d="M482.07 165.62H462.1C461.3 165.62 460.65 164.95 460.65 164.12C460.65 163.29 461.3 162.62 462.1 162.62H482.07C482.87 162.62 483.52 163.29 483.52 164.12C483.52 164.95 482.87 165.62 482.07 165.62Z" fill="white"/>
<path d="M499.61 172.23H475.06C474.26 172.23 473.61 171.56 473.61 170.73C473.61 169.9 474.26 169.23 475.06 169.23H499.61C500.41 169.23 501.06 169.9 501.06 170.73C501.06 171.56 500.41 172.23 499.61 172.23Z" fill="#F7B548"/>
<path d="M468.31 172.23H462.1C461.3 172.23 460.65 171.56 460.65 170.73C460.65 169.9 461.3 169.23 462.1 169.23H468.31C469.11 169.23 469.76 169.9 469.76 170.73C469.76 171.56 469.11 172.23 468.31 172.23Z" fill="white"/>
<path d="M512.56 178.83H497.72C496.92 178.83 496.27 178.16 496.27 177.33C496.27 176.5 496.92 175.83 497.72 175.83H512.56C513.36 175.83 514.01 176.5 514.01 177.33C514.01 178.16 513.36 178.83 512.56 178.83Z" fill="white"/>
<path d="M491.51 178.83H470.73C469.93 178.83 469.28 178.16 469.28 177.33C469.28 176.5 469.93 175.83 470.73 175.83H491.51C492.31 175.83 492.96 176.5 492.96 177.33C492.96 178.16 492.31 178.83 491.51 178.83Z" fill="white"/>
<path d="M487.2 185.44H461.57C460.77 185.44 460.12 184.77 460.12 183.94C460.12 183.11 460.77 182.44 461.57 182.44H487.2C488 182.44 488.65 183.11 488.65 183.94C488.65 184.77 488 185.44 487.2 185.44Z" fill="#F7B548"/>
<path d="M495.02 192.05H471.27C470.47 192.05 469.82 191.38 469.82 190.55C469.82 189.72 470.47 189.05 471.27 189.05H495.02C495.82 189.05 496.47 189.72 496.47 190.55C496.47 191.38 495.82 192.05 495.02 192.05Z" fill="#F7B548"/>
<path d="M448.5 139.16H437.1C435.01 139.16 433.31 140.86 433.31 142.95V196.17C433.31 198.26 435.01 199.96 437.1 199.96H448.5V139.16Z" fill="#3E8EED"/>
<path d="M520.67 149.15V142.95C520.67 140.86 518.97 139.16 516.88 139.16H437.09C435 139.16 433.3 140.86 433.3 142.95V149.15H520.67Z" fill="#605D5A"/>
<defs>
<radialGradient id="paint0_radial" cx="0" cy="0" r="1" gradientUnits="userSpaceOnUse" gradientTransform="translate(383.932 128.355) scale(9.93319)">
<stop stop-color="#8065E0"/>
<stop offset="1" stop-color="#512BD4"/>
</radialGradient>
<linearGradient id="paint1_linear" x1="322.464" y1="210.356" x2="330.838" y2="250.239" gradientUnits="userSpaceOnUse">
<stop stop-color="#522CD5"/>
<stop offset="0.4397" stop-color="#8A6FE8"/>
</linearGradient>
<linearGradient id="paint2_linear" x1="329.033" y1="248.169" x2="353.91" y2="292.521" gradientUnits="userSpaceOnUse">
<stop stop-color="#522CD5"/>
<stop offset="0.4397" stop-color="#8A6FE8"/>
</linearGradient>
<radialGradient id="paint3_radial" cx="0" cy="0" r="1" gradientUnits="userSpaceOnUse" gradientTransform="translate(347.599 272.777) rotate(-0.260742) scale(17.241)">
<stop offset="0.034" stop-color="#522CD5"/>
<stop offset="0.9955" stop-color="#8A6FE8"/>
</radialGradient>
<linearGradient id="paint4_linear" x1="304.369" y1="210.326" x2="296.357" y2="250.283" gradientUnits="userSpaceOnUse">
<stop stop-color="#522CD5"/>
<stop offset="0.4397" stop-color="#8A6FE8"/>
</linearGradient>
<linearGradient id="paint5_linear" x1="297.081" y1="249.358" x2="297.272" y2="291.236" gradientUnits="userSpaceOnUse">
<stop stop-color="#522CD5"/>
<stop offset="0.4397" stop-color="#8A6FE8"/>
</linearGradient>
<radialGradient id="paint6_radial" cx="0" cy="0" r="1" gradientUnits="userSpaceOnUse" gradientTransform="translate(297.793 272.952) rotate(179.739) scale(18.9018)">
<stop offset="0.034" stop-color="#522CD5"/>
<stop offset="0.9955" stop-color="#8A6FE8"/>
</radialGradient>
<radialGradient id="paint7_radial" cx="0" cy="0" r="1" gradientUnits="userSpaceOnUse" gradientTransform="translate(317.129 160.205) rotate(-9.43877) scale(53.0647)">
<stop offset="0.4744" stop-color="#A08BE8"/>
<stop offset="0.8618" stop-color="#8065E0"/>
</radialGradient>
<linearGradient id="paint8_linear" x1="277.448" y1="200.446" x2="240.263" y2="200.446" gradientUnits="userSpaceOnUse">
<stop offset="0.2296" stop-color="#9780E6"/>
<stop offset="0.9374" stop-color="#8A6FE8"/>
</linearGradient>
<radialGradient id="paint9_radial" cx="0" cy="0" r="1" gradientUnits="userSpaceOnUse" gradientTransform="translate(279.223 173.689) scale(9.7863)">
<stop stop-color="#8065E0"/>
<stop offset="1" stop-color="#512BD4"/>
</radialGradient>
<radialGradient id="paint10_radial" cx="0" cy="0" r="1" gradientUnits="userSpaceOnUse" gradientTransform="translate(246.315 215.179) scale(19.5138)">
<stop stop-color="#8065E0"/>
<stop offset="1" stop-color="#512BD4"/>
</radialGradient>
<radialGradient id="paint11_radial" cx="0" cy="0" r="1" gradientUnits="userSpaceOnUse" gradientTransform="translate(354.491 150.633) rotate(-9.43878) scale(41.3367)">
<stop offset="0.0933" stop-color="#E1DFDD"/>
<stop offset="0.8998" stop-color="white"/>
</radialGradient>
<radialGradient id="paint12_radial" cx="0" cy="0" r="1" gradientUnits="userSpaceOnUse" gradientTransform="translate(302.895 114.097) rotate(170.561) scale(7.66161)">
<stop stop-color="#8065E0"/>
<stop offset="1" stop-color="#512BD4"/>
</radialGradient>
</defs>
</svg>
