<svg width="636" height="300" viewBox="0 0 636 300" fill="none" xmlns="http://www.w3.org/2000/svg">
<path d="M518.19 152.73L416.05 152.69C410.03 152.69 405.18 157.95 405.17 164.44L405.07 228.08C405.06 234.57 409.89 240.14 415.91 240.55L447.02 242.62L446.98 265.04L470.58 244.19L517.99 247.35C525.04 247.82 530.82 242.44 530.83 235.34L530.99 165.61C531 158.5 525.25 152.73 518.19 152.73Z" fill="#E86E58"/>
<path d="M493.78 178.76C482.76 163.36 465.27 176.31 463.7 182.52C462.16 176.27 445.56 163.46 435.03 177.85C417.86 201.32 462.98 231.12 463.59 231.46V231.47L463.6 231.46L463.61 231.47V231.46C464.24 231.19 512.76 205.29 493.78 178.76Z" fill="#FDC9B5"/>
<path d="M426.16 106.15L326.81 109.26C321.11 109.44 316.52 114.89 316.51 121.43L316.43 190.39C316.42 196.93 321 202.4 326.69 202.62L370.56 204.32L390.68 225.69L390.71 205.1L425.98 206.46C432.61 206.72 438.05 201.14 438.06 194L438.19 118.7C438.22 111.56 432.8 105.94 426.16 106.15Z" fill="#F7B548"/>
<path d="M348.02 156.34C348.01 160.39 345.12 163.65 341.57 163.62C338.04 163.59 335.19 160.31 335.2 156.29C335.21 152.28 338.06 149.02 341.59 149.01C345.13 149.01 348.02 152.29 348.02 156.34Z" fill="white"/>
<path d="M371 156.43C370.99 160.55 368 163.86 364.33 163.83C360.68 163.8 357.74 160.46 357.74 156.38C357.75 152.3 360.7 148.99 364.35 148.98C368.02 148.97 371.01 152.31 371 156.43Z" fill="white"/>
<path d="M394.78 156.52C394.77 160.71 391.67 164.08 387.88 164.04C384.1 164 381.06 160.61 381.07 156.46C381.08 152.31 384.13 148.94 387.91 148.94C391.7 148.94 394.79 152.33 394.78 156.52Z" fill="white"/>
<path d="M184.87 261.16L66.72 251.02C64.74 250.85 63.14 248.61 63.14 246.03V146.39C63.14 143.8 64.74 141.7 66.72 141.69L184.94 141.49C187.32 141.49 189.25 143.8 189.25 146.65L189.18 256.38C189.18 259.22 187.25 261.36 184.87 261.16Z" fill="#70D6E0"/>
<path d="M85.87 169.52L73.71 169.27L73.72 153.57L85.88 153.67L85.87 169.52Z" fill="white"/>
<path d="M79.5399 166.79L75.9199 162.02L77.3299 160.21L79.2699 162.76L82.9699 155.98L84.6099 157.49L79.5399 166.79Z" fill="#F7B548"/>
<path d="M85.87 192.43L73.71 191.97V176.27L85.87 176.58V192.43Z" fill="white"/>
<path d="M85.87 215.34L73.71 214.66V198.96L85.87 199.49V215.34Z" fill="white"/>
<path d="M79.5399 212.38L75.9199 207.49L77.3199 205.73L79.2699 208.35L82.9599 201.7L84.6099 203.27L79.5399 212.38Z" fill="#F7B548"/>
<path d="M85.87 238.24L73.71 237.34V221.65L85.87 222.4V238.24Z" fill="white"/>
<path d="M156.57 164.88L96.8601 163.94V159.97L156.57 160.73V164.88Z" fill="#848484"/>
<path d="M156.56 189L96.8501 186.99V183.02L156.56 184.85V189Z" fill="#848484"/>
<path d="M156.55 213.12L96.8501 210.03V206.06L156.55 208.97V213.12Z" fill="#848484"/>
<path d="M156.54 237.23L96.8501 233.06V229.1L156.54 233.08V237.23Z" fill="#848484"/>
<path d="M577.59 93.43L416.24 99.3C410.17 99.52 405.29 94.4 405.3 87.87L405.34 64.74C405.35 58.2 410.25 52.56 416.32 52.14L577.72 40.93C585.32 40.4 591.52 45.97 591.5 53.37L591.43 79.55C591.41 86.94 585.18 93.16 577.59 93.43Z" fill="#1DACCC"/>
<path d="M431.26 64.65L433.17 70.86C433.27 71.18 433.56 71.39 433.88 71.37L440.14 71.02C440.87 70.98 441.17 71.96 440.58 72.44L435.5 76.63C435.24 76.85 435.13 77.21 435.23 77.54L437.15 83.78C437.37 84.5 436.58 85.15 435.99 84.73L430.96 81.06C430.7 80.87 430.35 80.89 430.09 81.1L425.08 85.23C424.5 85.71 423.73 85.14 423.95 84.4L425.86 78.02C425.96 77.69 425.85 77.34 425.59 77.15L420.63 73.53C420.06 73.11 420.35 72.12 421.06 72.08L427.21 71.74C427.53 71.72 427.82 71.49 427.91 71.15L429.83 64.74C430.07 63.99 431.04 63.94 431.26 64.65Z" fill="#F7B548"/>
<path d="M461.26 62.85L463.25 69.18C463.35 69.51 463.65 69.72 463.99 69.7L470.52 69.34C471.28 69.3 471.6 70.29 470.98 70.79L465.68 75.07C465.41 75.29 465.29 75.66 465.39 75.99L467.39 82.36C467.62 83.1 466.8 83.76 466.19 83.33L460.94 79.59C460.67 79.4 460.3 79.41 460.03 79.63L454.81 83.85C454.21 84.34 453.4 83.76 453.63 83L455.62 76.49C455.72 76.15 455.61 75.79 455.34 75.6L450.17 71.91C449.57 71.48 449.88 70.47 450.62 70.43L457.03 70.08C457.36 70.06 457.66 69.82 457.76 69.48L459.77 62.93C460.02 62.18 461.03 62.12 461.26 62.85Z" fill="#F7B548"/>
<path d="M492.54 60.98L494.62 67.45C494.73 67.79 495.04 68 495.39 67.98L502.2 67.6C502.99 67.56 503.32 68.57 502.68 69.08L497.15 73.46C496.86 73.69 496.74 74.07 496.85 74.4L498.94 80.9C499.18 81.66 498.32 82.33 497.68 81.89L492.21 78.08C491.93 77.88 491.54 77.9 491.26 78.13L485.82 82.44C485.19 82.94 484.35 82.35 484.59 81.57L486.67 74.92C486.78 74.57 486.66 74.21 486.38 74.01L480.99 70.25C480.37 69.82 480.69 68.78 481.46 68.74L488.14 68.37C488.49 68.35 488.8 68.1 488.91 67.76L491 61.07C491.25 60.29 492.3 60.23 492.54 60.98Z" fill="#F7B548"/>
<path d="M525.18 59.02L527.35 65.62C527.46 65.96 527.79 66.18 528.15 66.16L535.26 65.77C536.09 65.72 536.43 66.76 535.76 67.28L529.99 71.76C529.69 71.99 529.57 72.38 529.68 72.73L531.86 79.37C532.11 80.14 531.21 80.83 530.55 80.38L524.84 76.49C524.54 76.29 524.14 76.31 523.85 76.54L518.17 80.95C517.51 81.46 516.63 80.85 516.89 80.07L519.06 73.27C519.17 72.92 519.05 72.54 518.76 72.34L513.13 68.51C512.48 68.07 512.82 67.01 513.62 66.96L520.6 66.57C520.96 66.55 521.29 66.3 521.4 65.94L523.59 59.1C523.83 58.32 524.93 58.25 525.18 59.02Z" fill="white"/>
<path d="M559.27 56.97L561.53 63.72C561.65 64.07 561.99 64.29 562.37 64.27L569.8 63.86C570.67 63.81 571.02 64.87 570.32 65.41L564.29 70C563.98 70.24 563.85 70.64 563.97 70.99L566.25 77.78C566.51 78.57 565.57 79.28 564.88 78.81L558.91 74.84C558.6 74.63 558.18 74.66 557.87 74.89L551.93 79.41C551.24 79.93 550.33 79.31 550.59 78.51L552.86 71.56C552.98 71.2 552.85 70.82 552.54 70.61L546.66 66.7C545.98 66.25 546.33 65.16 547.17 65.12L554.46 64.72C554.84 64.7 555.18 64.44 555.3 64.08L557.59 57.09C557.86 56.26 559.01 56.19 559.27 56.97Z" fill="white"/>
<path d="M155.24 241.02L155.32 48.96C155.32 47.17 156.54 45.63 158.05 45.51L287.54 34.97C289.37 34.82 290.85 36.3 290.85 38.27L290.61 250.43C290.61 252.4 289.12 253.89 287.3 253.75L157.97 244.44C156.45 244.33 155.23 242.8 155.24 241.02Z" fill="#625F5B"/>
<path d="M165.4 229.65L165.48 60.25C165.48 59.68 165.87 59.19 166.36 59.16L277.6 51.33C278.17 51.29 278.63 51.76 278.63 52.38L278.43 236.46C278.43 237.08 277.97 237.55 277.4 237.51L166.28 230.73C165.79 230.7 165.4 230.22 165.4 229.65Z" fill="#8DBCF4"/>
<path d="M172.73 221.76L172.8 86.92C172.8 86.35 173.2 85.86 173.68 85.84L269.01 81.11C269.57 81.08 270.03 81.56 270.03 82.17L269.88 227C269.88 227.61 269.42 228.09 268.86 228.05L173.61 222.84C173.12 222.82 172.73 222.33 172.73 221.76Z" fill="white"/>
<path d="M247.09 74.16L232.84 74.95C231.51 75.02 230.89 74.04 230.89 72.86C230.9 66.5 226.11 61.73 220.47 62.1C214.93 62.46 210.2 67.7 210.2 73.88C210.2 74.92 209.98 76.22 208.19 76.32L194.46 77.08C192.96 77.16 191.75 78.63 191.75 80.35L191.74 92.35C191.74 94.07 192.95 95.42 194.45 95.36L247.07 93.16C248.69 93.09 250.01 91.58 250.01 89.78L250.02 77.26C250.03 75.46 248.71 74.07 247.09 74.16ZM220.46 69.07C222.77 68.93 224.65 70.94 224.65 73.56C224.65 76.18 222.77 78.4 220.46 78.52C218.16 78.64 216.3 76.63 216.3 74.03C216.3 71.43 218.16 69.21 220.46 69.07Z" fill="#FDD696"/>
<path d="M191.75 90.1V92.35C191.75 94.07 192.96 95.42 194.46 95.36L247.08 93.16C248.7 93.09 250.02 91.58 250.02 89.78V87.43L191.75 90.1Z" fill="#F7B548"/>
<path d="M232.14 117.63L183.91 118.81V114.21L232.15 112.86L232.14 117.63Z" fill="#C4C1BE"/>
<path d="M232.13 138.42L183.9 138.86V134.26L232.13 133.65V138.42Z" fill="#C4C1BE"/>
<path d="M232.11 159.2L183.89 158.91V154.31L232.11 154.43V159.2Z" fill="#C4C1BE"/>
<path d="M232.09 179.98L183.87 178.96L183.88 174.36L232.1 175.21L232.09 179.98Z" fill="#C4C1BE"/>
<path d="M232.08 200.75L183.86 199L183.87 194.4L232.08 195.98V200.75Z" fill="#C4C1BE"/>
<path d="M287.66 144.59C287.66 146.75 286.03 148.51 284.03 148.51C282.04 148.51 280.43 146.77 280.43 144.62C280.43 142.47 282.05 140.71 284.04 140.7C286.04 140.69 287.67 142.43 287.66 144.59Z" fill="#84817D"/>
<path d="M257.9 114.55C257.9 118.42 255.05 121.61 251.56 121.68C248.09 121.75 245.29 118.71 245.29 114.87C245.29 111.04 248.1 107.84 251.57 107.74C255.06 107.64 257.9 110.69 257.9 114.55Z" fill="#549BEF"/>
<path d="M257.88 135.62C257.88 139.49 255.03 142.64 251.54 142.66C248.07 142.68 245.27 139.59 245.27 135.76C245.27 131.93 248.08 128.78 251.55 128.72C255.04 128.66 257.88 131.75 257.88 135.62Z" fill="#C4C1BE"/>
<path d="M257.86 156.68C257.86 160.54 255.01 163.65 251.52 163.62C248.05 163.59 245.25 160.46 245.25 156.63C245.25 152.8 248.06 149.69 251.53 149.69C255.02 149.68 257.86 152.81 257.86 156.68Z" fill="#549BEF"/>
<path d="M257.84 177.73C257.84 181.59 254.99 184.66 251.5 184.57C248.03 184.49 245.23 181.31 245.23 177.49C245.23 173.66 248.04 170.6 251.51 170.64C255 170.69 257.84 173.87 257.84 177.73Z" fill="#C4C1BE"/>
<path d="M257.82 198.78C257.82 202.64 254.97 205.66 251.48 205.53C248.01 205.39 245.21 202.18 245.21 198.35C245.21 194.52 248.02 191.5 251.49 191.6C254.98 191.7 257.82 194.92 257.82 198.78Z" fill="#C4C1BE"/>
<path d="M309.67 92.04L275.3 141.7L261.5 130.48L295.2 81.03L309.67 92.04Z" fill="#F7B548"/>
<path d="M275.3 141.7L258.7 149.5L261.5 130.48L275.3 141.7Z" fill="#C4C1BE"/>
<path d="M266.79 145.7L258.7 149.5L260.07 140.17L266.79 145.7Z" fill="#797673"/>
<path d="M309.76 91.91L275.3 141.7L269.95 137.35L304.14 87.64L309.76 91.91Z" fill="#F7B548"/>
<path d="M295 81.32L301.59 71.65C302.65 70.1 304.64 69.69 306.05 70.74L315.57 77.86C317 78.93 317.28 81.06 316.2 82.61L309.48 92.33L295 81.32Z" fill="#E86E58"/>
</svg>
