<svg width="636" height="300" viewBox="0 0 636 300" fill="none" xmlns="http://www.w3.org/2000/svg">
<path d="M568.62 215.75C566.95 193.75 549.1 177.18 528.76 178.72C528.24 178.76 527.73 178.82 527.22 178.88C523.43 161.86 509.43 149.4 493.12 148.85C482.26 92.1 433.76 51.19 379.05 55.35C358.79 56.89 340.3 64.41 324.95 76.2C321.73 74.02 314.32 70.56 306.54 72.33C298.56 74.15 294.23 78.49 290.87 83.53C280.09 75.55 260.8 74.28 248.56 76.86C220.2 82.83 200.76 104.7 195.6 140.23C193.44 140.04 191.24 140.01 189.02 140.18C169.4 141.67 154 157.32 150.63 177.25C149.4 177.24 148.17 177.27 146.93 177.37C119.8 179.43 99.6199 204.87 101.84 234.2C102.03 236.74 102.4 239.23 102.91 241.65C98.9999 239.48 94.5199 238.39 89.8399 238.75C76.2799 239.78 66.1799 252.5 67.2999 267.17C67.3599 267.98 67.4599 268.79 67.5899 269.58C67.5899 269.58 265.93 241.17 566.85 231.67C568.76 226.81 569.04 221.32 568.62 215.75Z" fill="url(#paint0_radial)"/>
<path d="M255.32 175C255.31 173.35 257.13 173.24 257.13 173.24L257.19 167.14C257.19 167.14 255.56 166.6 255.51 165.23L255.4 140.5C255.43 138.83 257.3 138.49 257.3 138.49L257.23 132.38C257.23 132.38 255.51 132.67 255.45 130.53C255.45 130.46 255.43 130.39 255.42 130.33L255.48 107.92C255.48 106.51 256.32 105.24 257.62 104.68L283.94 93.59L394.41 104.18L394.89 169.45L282.12 221.16L255.17 223.09L255.29 177.49C255.31 176.31 255.32 175.87 255.32 175Z" fill="url(#paint1_radial)"/>
<path d="M284.28 221.01L398.05 213.03C399.09 212.96 399.89 212.04 399.9 210.93L400.02 168.77C400.02 167.59 399.12 166.63 398.01 166.64L285.21 169.15C284.15 169.16 283.28 170.08 283.26 171.22L282.17 218.84C282.15 220.09 283.12 221.09 284.28 221.01Z" fill="#9C9894"/>
<path d="M285.14 162.72L397.45 161.51C398.64 161.49 399.59 160.46 399.59 159.19L399.55 131.83C399.55 130.52 398.54 129.47 397.32 129.51L285.72 132.31C284.57 132.34 283.65 133.34 283.62 134.57L282.94 160.34C282.91 161.65 283.91 162.73 285.14 162.72Z" fill="#9C9894"/>
<path d="M284.87 125.39L398.18 123.92C399.11 123.91 399.87 123.11 399.91 122.11L400.85 93.81C400.89 92.74 400.08 91.85 399.07 91.86L284.78 93.35C283.82 93.36 283.05 94.2 283.05 95.23L283.09 123.52C283.09 124.56 283.89 125.4 284.87 125.39Z" fill="#9C9894"/>
<path d="M313.265 115.521L381.248 114.637L381.073 101.189L313.09 102.073L313.265 115.521Z" fill="#522CD5"/>
<path d="M322.251 113.624L372.226 112.975L372.098 103.086L322.122 103.735L322.251 113.624Z" fill="#957EE6"/>
<path d="M311.173 153.525L379.896 152.631L379.726 139.583L311.003 140.476L311.173 153.525Z" fill="#522CD5"/>
<path d="M319.711 151.794L371.335 151.123L371.208 141.314L319.583 141.985L319.711 151.794Z" fill="#957EE6"/>
<path d="M310.936 191.508L375.959 190.663L375.785 177.214L310.761 178.059L310.936 191.508Z" fill="#522CD5"/>
<path d="M318.804 189.776L368.059 189.135L367.927 178.946L318.672 179.587L318.804 189.776Z" fill="#957EE6"/>
<path d="M295.116 112.601C297.154 112.575 298.782 110.78 298.754 108.593C298.726 106.407 297.051 104.655 295.013 104.682C292.975 104.708 291.346 106.503 291.375 108.689C291.403 110.876 293.078 112.628 295.116 112.601Z" fill="white"/>
<path d="M295.61 150.57C297.852 150.541 299.645 148.57 299.613 146.168C299.582 143.766 297.739 141.842 295.497 141.871C293.255 141.9 291.463 143.871 291.494 146.274C291.526 148.676 293.368 150.6 295.61 150.57Z" fill="white"/>
<path d="M295.71 186.96C297.952 186.931 299.744 184.96 299.713 182.558C299.682 180.155 297.839 178.232 295.597 178.261C293.355 178.29 291.563 180.261 291.594 182.663C291.625 185.065 293.468 186.989 295.71 186.96Z" fill="white"/>
<path d="M342.288 144.917L323.16 145.166L323.209 148.945L342.337 148.697L342.288 144.917Z" fill="white"/>
<path d="M344.668 106.928L325.54 107.176L325.589 110.956L344.717 110.707L344.668 106.928Z" fill="white"/>
<path d="M341.467 182.446L322.339 182.695L322.388 186.475L341.516 186.226L341.467 182.446Z" fill="white"/>
<path d="M257.23 132.38L285.36 125.48L285.3 132.31L257.28 138.51L257.23 132.38Z" fill="#56534F"/>
<path d="M257.1 173.18L257.19 167.14L285.18 162.75L285.04 169.17L257.1 173.18Z" fill="#56534F"/>
<path d="M189.41 225.49C169.61 228.74 153.23 242.12 145.75 260.13C224.45 251.6 358.43 239.42 528.71 232.98C524.25 214.72 507.79 201.17 488.16 201.17C487.97 201.17 487.78 201.18 487.6 201.18C482.17 184.43 466.45 172.31 447.89 172.31C434.24 172.31 422.12 178.86 414.51 188.99C405.13 181.03 392.99 176.2 379.72 176.2C367.12 176.2 355.55 180.54 346.38 187.79C338.86 176.49 326.02 169.05 311.43 169.05C298.44 169.05 286.84 174.97 279.15 184.24C269.88 177.82 258.64 174.04 246.5 174.04C216.81 174.05 192.4 196.59 189.41 225.49Z" fill="#BDD8F9"/>
<defs>
<radialGradient id="paint0_radial" cx="0" cy="0" r="1" gradientUnits="userSpaceOnUse" gradientTransform="translate(333.052 259.245) scale(192.873)">
<stop offset="0.1807" stop-color="#3789EB"/>
<stop offset="1" stop-color="#BDD8F9"/>
</radialGradient>
<radialGradient id="paint1_radial" cx="0" cy="0" r="1" gradientUnits="userSpaceOnUse" gradientTransform="translate(468.955 145.842) scale(122.024)">
<stop offset="0.1807" stop-color="#B3AFAB"/>
<stop offset="0.9915" stop-color="#6D6A66"/>
</radialGradient>
</defs>
</svg>
