<svg width="636" height="300" viewBox="0 0 636 300" fill="none" xmlns="http://www.w3.org/2000/svg">
<path d="M373.95 159.3L327.38 88.84V37.5L298.42 34.99L298.48 87.42L246.4 159.65C238.41 170.74 247.78 184.81 262.76 184.51L309.52 183.57L316.72 183.42L360.06 182.54C372.83 182.28 380.54 169.26 373.95 159.3Z" fill="#CAE0FA"/>
<path d="M327.38 88.84V37.5L298.43 34.99L298.44 42.49L320.77 44.31L320.79 92.42L326.63 100.47L335.44 101.03L327.38 88.84Z" fill="#BDD8F9"/>
<path d="M511.38 146.59L396.83 145.71C393.03 145.68 389.94 142.72 389.95 139.09L390.11 72.73C390.12 69.09 393.23 66.35 397.04 66.61L511.89 74.52C515.03 74.74 517.55 77.58 517.53 80.86L517.1 140.72C517.07 143.99 514.52 146.62 511.38 146.59Z" fill="#9C9894"/>
<path d="M495.99 119.44L421.76 117.19L421.78 109.45L496.04 112.16L495.99 119.44Z" fill="#C5D43B"/>
<path d="M495.95 126.69L421.73 124.89L421.76 117.16L495.99 119.41L495.95 126.69Z" fill="white"/>
<path d="M557.9 166.84L466.76 167.74L467.06 111.04L558.36 114.37L557.9 166.84Z" fill="#E1EA95"/>
<path d="M474.15 84.4L403.88 80.28C402.99 80.23 402.27 79.49 402.27 78.63C402.27 77.77 403 77.12 403.89 77.18L474.17 81.47C474.97 81.52 475.61 82.21 475.6 83.02C475.59 83.83 474.95 84.45 474.15 84.4Z" fill="#DDDBDA"/>
<path d="M502.04 94.62L403.85 89.58C402.96 89.53 402.24 88.8 402.24 87.95C402.24 87.09 402.97 86.44 403.86 86.49L502.06 91.77C502.82 91.81 503.43 92.48 503.43 93.27C503.42 94.05 502.8 94.65 502.04 94.62Z" fill="#DDDBDA"/>
<path d="M443.97 100.63L403.82 98.86C402.93 98.82 402.21 98.1 402.21 97.24C402.21 96.38 402.94 95.72 403.83 95.77L443.98 97.64C444.82 97.68 445.49 98.38 445.49 99.21C445.49 100.02 444.81 100.66 443.97 100.63Z" fill="#DDDBDA"/>
<path d="M542.09 124.29L479.76 122.59C478.97 122.57 478.33 121.9 478.34 121.1C478.34 120.3 478.99 119.66 479.78 119.69L542.12 121.54C542.83 121.56 543.4 122.19 543.39 122.95C543.38 123.71 542.8 124.31 542.09 124.29Z" fill="#BBB8B4"/>
<path d="M506.89 131.85L479.71 131.3C478.92 131.28 478.29 130.62 478.29 129.82C478.29 129.02 478.94 128.38 479.73 128.4L506.91 129.01C507.66 129.03 508.27 129.68 508.26 130.46C508.25 131.24 507.64 131.86 506.89 131.85Z" fill="#BBB8B4"/>
<path d="M541.89 148.49L479.61 148.1C478.82 148.1 478.19 147.44 478.19 146.64C478.19 145.84 478.84 145.19 479.63 145.2L541.92 145.74C542.63 145.75 543.2 146.37 543.19 147.13C543.18 147.88 542.6 148.5 541.89 148.49Z" fill="#BBB8B4"/>
<path d="M112.88 118.24L108.93 118.14L108.59 75.33L154.76 77.87L154.78 81.14L112.58 78.91L112.88 118.24Z" fill="#76AFF2"/>
<path d="M123.18 50.28L97.3401 48.39L97.1602 26.21L123.02 28.49L123.18 50.28Z" fill="#D5D3D0"/>
<path d="M166.64 53.46L142.36 51.68L142.22 30.19L166.52 32.33L166.64 53.46Z" fill="#D5D3D0"/>
<path d="M207.56 56.45L184.69 54.78L184.59 33.92L207.48 35.94L207.56 56.45Z" fill="#D5D3D0"/>
<path d="M207.71 92.59L184.87 91.52L184.77 70.73L207.63 72.14L207.71 92.59Z" fill="#D5D3D0"/>
<path d="M110.68 88.07C103.52 87.74 97.6304 82.52 97.5804 76.41C97.5304 70.3 103.35 65.71 110.51 66.15C117.6 66.59 123.34 71.8 123.38 77.8C123.42 83.81 117.76 88.4 110.68 88.07Z" fill="#3E8EED"/>
<path d="M154.83 90.13C148.1 89.82 142.57 84.77 142.53 78.85C142.49 72.93 147.96 68.47 154.7 68.88C161.37 69.29 166.76 74.34 166.79 80.16C166.83 85.97 161.5 90.44 154.83 90.13Z" fill="#3E8EED"/>
<path d="M110.98 126.69C103.84 126.55 97.9502 121.5 97.9002 115.41C97.8502 109.32 103.66 104.59 110.81 104.84C117.89 105.09 123.62 110.14 123.66 116.12C123.7 122.1 118.05 126.83 110.98 126.69Z" fill="#3E8EED"/>
<path d="M167.06 127.81L142.86 127.33L142.71 105.95L166.94 106.8L167.06 127.81Z" fill="#D5D3D0"/>
<path d="M207.86 128.62L185.06 128.17L184.95 107.43L207.77 108.23L207.86 128.62Z" fill="#D5D3D0"/>
<path d="M275.72 204.69C275.78 238.36 246.13 268.09 207.59 271.33C166.76 274.76 131.63 247.47 131.35 210.1C131.08 172.62 165.97 142.48 207.02 142.86C245.77 143.23 275.66 170.93 275.72 204.69Z" fill="#C5D43B"/>
<path d="M183.26 226.27L177.66 226.55L177.43 184.29L203.91 183.75L203.93 188.04L183.06 188.53L183.14 203.94L202.75 203.26L202.77 207.55L183.16 208.29L183.26 226.27Z" fill="white"/>
<path d="M235.79 198.72L233.81 208.22L242.38 207.89L242.39 211.45L233.09 211.84L230.56 223.9L226.35 224.11L228.9 212L219.53 212.39L217.02 224.56L212.76 224.77L215.22 212.56L206.96 212.9L206.94 209.25L215.98 208.9L218.07 199.27L209.37 199.55L209.35 195.96L218.74 195.68L221.25 183.38L225.56 183.29L223.07 195.55L232.46 195.27L234.98 183.09L239.05 183.01L236.54 195.15L244.51 194.92L244.52 198.42L235.79 198.72ZM220.26 208.75L229.62 208.39L231.61 198.86L222.27 199.16L220.26 208.75Z" fill="white"/>
<path d="M333.73 243.57L330.71 239.76L357.26 221.76L382.92 193.82L407.02 211.21L429.83 166.54L454.59 177.38L452.72 181.45L431.95 172.44L408.64 218.25L383.5 200.23L360.43 225.36L333.73 243.57Z" fill="#DDDBDA"/>
<path d="M446.07 194.9L461.27 194.42L460.89 268.08L445.73 269.46L446.07 194.9Z" fill="#60A2F0"/>
<path d="M423.64 185.9L439.4 185.52L439.04 270.07L423.33 271.51L423.64 185.9Z" fill="#A3C9F6"/>
<path d="M400.23 230.22L416.54 229.28L416.4 272.14L400.11 273.63L400.23 230.22Z" fill="#60A2F0"/>
<path d="M376.13 217.65L393.06 216.85L392.92 274.29L376.02 275.84L376.13 217.65Z" fill="#A3C9F6"/>
<path d="M351.05 241.96L368.61 240.82L368.56 276.52L351.01 278.12L351.05 241.96Z" fill="#60A2F0"/>
<path d="M325.04 258.12L343.28 256.75L343.27 278.83L325.04 280.5V258.12Z" fill="#A3C9F6"/>
<path d="M342.13 241.04C342.13 245.49 338.15 249.37 333.22 249.71C328.25 250.05 324.19 246.68 324.19 242.18C324.19 237.67 328.25 233.78 333.22 233.5C338.16 233.21 342.14 236.59 342.13 241.04Z" fill="#E86E58"/>
<path d="M366.77 223.07C366.76 227.44 362.93 231.2 358.17 231.48C353.38 231.75 349.47 228.39 349.47 223.96C349.47 219.53 353.39 215.76 358.19 215.54C362.95 215.32 366.78 218.7 366.77 223.07Z" fill="#E86E58"/>
<path d="M391.34 197.63C391.33 201.93 387.63 205.56 383.04 205.73C378.42 205.91 374.66 202.52 374.67 198.17C374.68 193.81 378.46 190.18 383.08 190.06C387.66 189.94 391.35 193.33 391.34 197.63Z" fill="#E86E58"/>
<path d="M415.8 214.36C415.79 218.57 412.22 222.17 407.81 222.4C403.37 222.63 399.75 219.36 399.76 215.1C399.77 210.83 403.41 207.23 407.85 207.05C412.27 206.87 415.81 210.15 415.8 214.36Z" fill="#E86E58"/>
<path d="M433.9 163.95C437.62 165.91 438.97 170.47 436.93 174.14C434.89 177.83 430.19 179.26 426.43 177.33C422.64 175.38 421.25 170.78 423.34 167.06C425.42 163.36 430.15 161.97 433.9 163.95Z" fill="#E86E58"/>
<path d="M457.11 173.39C460.69 175.29 461.99 179.75 460.02 183.37C458.05 187 453.52 188.44 449.9 186.57C446.26 184.69 444.92 180.18 446.94 176.52C448.94 172.88 453.5 171.48 457.11 173.39Z" fill="#E86E58"/>
<path d="M332.79 38.88L292.23 35.39C290.23 35.22 288.6 33.64 288.6 31.87V30.73C288.6 28.96 290.22 27.67 292.23 27.85L332.8 31.56C334.68 31.73 336.21 33.26 336.21 34.97V36.07C336.19 37.78 334.67 39.04 332.79 38.88Z" fill="#9C9894"/>
<path d="M373.95 159.3L333.19 97.63L292.39 95.89L246.41 159.66C238.42 170.75 247.79 184.82 262.77 184.52L309.53 183.58L316.73 183.43L360.07 182.55C372.83 182.28 380.54 169.26 373.95 159.3Z" fill="#ED9583"/>
<path d="M293.11 127.48C291.9 127.48 290.68 127.55 289.45 127.69C287.77 127.89 286.15 128.23 284.6 128.68L285.31 133.73C283.72 134.31 282.25 135.06 280.93 135.94L275.08 133.65C272.94 135.42 271.18 137.49 269.89 139.77L274.57 143.32C273.89 144.89 273.47 146.56 273.37 148.28C271.78 148.69 269.11 149.32 267.41 149.73C267.45 150.75 267.56 151.77 267.78 152.8C268.07 154.22 268.53 155.58 269.12 156.88L275.32 156.44C276.13 157.87 277.15 159.18 278.36 160.34L275.64 165.06C277.85 166.81 280.4 168.22 283.18 169.24L287.56 165.42C289.16 165.85 290.82 166.11 292.53 166.19L294.3 171.04C295.56 171.01 296.83 170.9 298.11 170.71C299.85 170.45 301.51 170.05 303.08 169.52L302.32 164.58C303.91 163.94 305.37 163.14 306.68 162.2L311.94 164.55C314.08 162.7 315.82 160.54 317.05 158.18C315.63 157.22 313.62 155.86 312.5 155.06C313.09 153.67 313.46 152.2 313.6 150.68L319.22 149.41C319.22 148.25 319.11 147.08 318.87 145.9C318.58 144.44 318.13 143.04 317.53 141.71L311.82 142.37C311.02 140.89 309.98 139.53 308.75 138.33L311.6 134C309.58 132.29 307.23 130.86 304.65 129.78L300.83 133.56C298.95 132.92 296.94 132.52 294.86 132.39L293.11 127.48ZM304.97 147.78C306.01 152.97 301.88 157.88 295.71 158.75C289.49 159.63 283.53 156.09 282.46 150.82C281.38 145.54 285.63 140.59 291.89 139.79C298.1 139 303.93 142.58 304.97 147.78Z" fill="#E86E58"/>
<path d="M329.41 119.12C328.77 119.12 328.12 119.15 327.46 119.22C326.57 119.32 325.71 119.5 324.89 119.74L325.26 122.5C324.42 122.81 323.64 123.21 322.94 123.69L319.86 122.42C318.73 123.37 317.81 124.49 317.13 125.72L319.59 127.68C319.23 128.53 319.01 129.43 318.96 130.37C318.12 130.58 316.72 130.91 315.83 131.12C315.85 131.67 315.91 132.23 316.02 132.79C316.17 133.56 316.41 134.31 316.72 135.02L319.98 134.83C320.4 135.61 320.94 136.34 321.58 136.98L320.14 139.53C321.3 140.5 322.65 141.3 324.12 141.89L326.45 139.85C327.3 140.1 328.19 140.26 329.1 140.32L330.04 143C330.71 143 331.39 142.95 332.08 142.86C333.01 142.74 333.9 142.53 334.75 142.26L334.34 139.53C335.19 139.19 335.98 138.77 336.68 138.26L339.51 139.61C340.67 138.61 341.61 137.44 342.28 136.14C341.51 135.6 340.42 134.83 339.82 134.38C340.14 133.62 340.34 132.81 340.41 131.97L343.45 131.31C343.45 130.67 343.39 130.02 343.26 129.37C343.11 128.56 342.86 127.79 342.54 127.05L339.45 127.38C339.02 126.56 338.46 125.81 337.8 125.14L339.34 122.77C338.25 121.82 336.99 121.03 335.6 120.42L333.55 122.48C332.54 122.12 331.47 121.89 330.36 121.81L329.41 119.12ZM335.74 130.31C336.29 133.17 334.08 135.83 330.77 136.26C327.45 136.69 324.29 134.7 323.73 131.81C323.17 128.92 325.42 126.25 328.75 125.84C332.06 125.45 335.19 127.45 335.74 130.31Z" fill="white"/>
</svg>
