<svg width="636" height="300" viewBox="0 0 636 300" fill="none" xmlns="http://www.w3.org/2000/svg">
<path d="M389.29 240.63L392.97 240.65L409.37 189.45C411.47 182.56 413.7 181.24 416.26 181.36L448.32 185.81C443.93 187.61 441.21 190.91 440.7 195.3L436.62 234.26H440.34L444.78 195.33C445.68 190.33 449.44 188.74 453.73 187.99C453.81 187.99 453.88 188 453.96 188C454.11 187.99 454.27 187.99 454.45 187.98C455.91 189.56 457.06 191.81 457.44 195.18L457.68 241.79H461.39L461.13 194.84C460.74 191.76 459.96 189.49 458.91 187.74C464.68 187.43 473.76 186.98 482.27 186.98C484.43 187.3 486 188.52 486.62 190.86L498.56 239.15H502.38L490.22 190.04C489.02 185.48 484.64 182.29 479.59 182.29L420.96 178.27L419.5 178.07L419.38 178.16L416.78 177.98C410.27 177.76 407.73 181.55 407.08 184.2L389.29 240.63Z" fill="#E1DFDD"/>
<path d="M464.78 179.64C464.78 179.64 481.15 183.77 489.39 183.77C497.63 183.77 501.74 176.45 503.87 165.03C506 153.61 510.1 119.2 507.86 109.21C506.26 102.11 501.48 99.32 493.5 99.06C488.71 98.91 478.07 98.55 468.23 100.07C458.39 101.59 451.68 115.67 445.62 124.93C427.53 152.58 415.73 170.48 415.73 170.48L464.78 179.64Z" fill="#84817D"/>
<path d="M414.27 178.15L465.93 184.92C469.88 184.92 497 180.76 497 176.83V173.29C497 169.36 482.51 166.87 478.56 166.87L414.27 160.38C410.32 160.38 407.12 163.56 407.12 167.49V171.03C407.12 174.97 410.32 178.15 414.27 178.15Z" fill="#6D6A66"/>
<path d="M508.33 112.6C509.36 125.41 505.8 154.68 503.87 165.04C501.74 176.46 497.49 184.07 489.24 184.07L466 184.97C464.82 184.97 464.19 183.6 464.96 182.71C476.14 169.83 502.25 136.54 508.33 112.6Z" fill="#605D5A"/>
<path d="M441.25 190.96C440.01 190.07 439.87 188.16 440.93 186.68L453.27 169.46C454.33 167.98 460.96 168.31 459.9 169.79L445.42 189.89C444.35 191.37 442.49 191.85 441.25 190.96Z" fill="#E29E3B"/>
<path d="M431.26 187.01L432.15 185.77C433.56 183.8 436.3 183.35 438.26 184.76L445.53 189.97C447.5 191.38 447.95 194.12 446.54 196.08L445.65 197.32L431.26 187.01Z" fill="#C4832D"/>
<path d="M423.16 187.42C422.03 186.4 422.1 184.48 423.31 183.13L437.47 167.38C438.69 166.03 440.59 165.75 441.72 166.77C442.85 167.79 442.78 169.71 441.57 171.06L427.41 186.81C426.19 188.17 424.29 188.44 423.16 187.42Z" fill="#E29E3B"/>
<path d="M426.58 194.21L427.6 193.08C429.22 191.28 429.07 188.51 427.27 186.89L420.61 180.91C418.81 179.29 416.04 179.44 414.42 181.24L413.4 182.37L426.58 194.21Z" fill="#C4832D"/>
<path d="M465.28 78V65.4C465.28 64.03 463.4 63.65 462.87 64.92L457.6 77.52C457.25 78.35 457.86 79.26 458.76 79.26H464.03C464.72 79.25 465.28 78.69 465.28 78Z" fill="#E29E3B"/>
<path d="M474.06 78V65.4C474.06 64.03 472.18 63.65 471.65 64.92L466.38 77.52C466.03 78.35 466.64 79.26 467.54 79.26H472.81C473.5 79.25 474.06 78.69 474.06 78Z" fill="#E29E3B"/>
<path d="M462.27 100.82H455.73V135.91H462.27V100.82Z" fill="#45897C"/>
<path d="M484.74 97.94L483.63 85.4C483.17 80.2 478.82 76.22 473.6 76.22H443.93C438.71 76.22 434.36 80.21 433.9 85.4L432.79 97.94C432.67 99.32 433.75 100.5 435.14 100.5H452.16C452.9 103.72 455.78 106.13 459.23 106.13C462.68 106.13 465.56 103.72 466.3 100.5H482.38C483.77 100.5 484.86 99.32 484.74 97.94Z" fill="#F7B548"/>
<path d="M454.01 86.49H433.81L433.07 94.9H454.01C455.79 94.9 457.24 93.45 457.24 91.67V89.72C457.24 87.93 455.79 86.49 454.01 86.49Z" fill="#C4832D"/>
<path d="M433.73 93.57C435.492 93.57 436.92 92.1418 436.92 90.38C436.92 88.6182 435.492 87.19 433.73 87.19C431.968 87.19 430.54 88.6182 430.54 90.38C430.54 92.1418 431.968 93.57 433.73 93.57Z" fill="#FFE5B9"/>
<path d="M444 93.57C445.762 93.57 447.19 92.1418 447.19 90.38C447.19 88.6182 445.762 87.19 444 87.19C442.238 87.19 440.81 88.6182 440.81 90.38C440.81 92.1418 442.238 93.57 444 93.57Z" fill="#FFE5B9"/>
<path d="M432.64 169.04L474.75 171.67C481.71 171.67 490.64 158.27 490.16 152.87L486.16 113.1C486.03 111.57 484.75 110.4 483.22 110.4H433.1C431.66 110.4 430.45 111.5 430.32 112.94L424.17 154.55C423.7 159.96 424.18 167.72 432.64 169.04Z" fill="#E29E3B"/>
<path d="M284.95 239.28L298.73 184.52C299.49 181.51 302.25 179.41 305.44 179.41H363.68C366.72 179.41 369.44 181.38 370.31 184.21L385.52 233.89H389.21L373.69 183.23C372.38 178.96 368.26 175.99 363.67 175.99H305.43C300.6 175.99 296.43 179.17 295.28 183.71L281.29 239.28H284.95Z" fill="#E1DFDD"/>
<path d="M295.23 234.26L307.16 184.52C307.92 181.51 310.68 179.41 313.87 179.41H356.26C359.3 179.41 362.02 181.38 362.89 184.21L380.01 239.53H383.7L366.28 183.23C364.97 178.96 360.85 175.99 356.26 175.99H313.87C309.04 175.99 304.87 179.17 303.72 183.71L291.59 234.27H295.23V234.26Z" fill="#E1DFDD"/>
<path d="M288.65 166.54L302.68 109.46C304.68 101.39 312.33 95.69 321.15 95.69H343.26C353.13 95.69 359.51 100.47 362.34 109.34C367.45 125.36 374.43 150.56 378.06 165.19C379.35 170.37 286.96 175.53 288.65 166.54Z" fill="#84817D"/>
<path d="M370 176.26H296.95C292.3 176.26 288.53 172.49 288.53 167.84C288.53 163.19 292.3 159.42 296.95 159.42H370C374.65 159.42 378.42 163.19 378.42 167.84C378.42 172.49 374.65 176.26 370 176.26Z" fill="#6D6A66"/>
<path d="M191.38 186.83C190.71 184.09 188.09 180.19 181.38 180.41L178.7 180.59L178.58 180.5L177.08 180.7L116.64 184.84C111.43 184.84 106.92 188.13 105.68 192.83L94.0903 242.11H98.0203L109.39 193.68C110.03 191.27 111.64 190.01 113.87 189.68C122.63 189.68 132 190.15 137.94 190.47C136.86 192.27 136.05 194.62 135.65 197.79L134.3 229.73H138.12L139.45 198.14C139.85 194.67 141.03 192.35 142.53 190.72C142.71 190.73 142.88 190.74 143.03 190.74C143.12 190.74 143.19 190.73 143.27 190.73C147.69 191.51 151.57 193.15 152.5 198.3L158.19 250.06H162.03L156.7 198.27C156.17 193.75 153.37 190.34 148.84 188.49L181.88 183.9C184.52 183.78 186.82 185.14 187.69 187.85L202.87 237.16L206.11 235.49L191.38 186.83Z" fill="#E1DFDD"/>
<path d="M131.9 182.12C131.9 182.12 115.03 186.38 106.53 186.38C98.0301 186.38 93.8001 178.83 91.6101 167.06C89.4201 155.29 85.1801 119.82 87.5001 109.53C89.1501 102.21 94.0801 99.33 102.31 99.07C107.24 98.91 118.21 98.55 128.36 100.12C138.51 101.69 145.42 116.2 151.67 125.75C170.32 154.25 182.48 172.7 182.48 172.7L131.9 182.12Z" fill="#84817D"/>
<path d="M183.96 180.59L130.71 187.57C126.64 187.57 98.6899 183.28 98.6899 179.23V175.59C98.6899 171.54 113.63 168.98 117.7 168.98L183.97 162.29C188.04 162.29 191.34 165.57 191.34 169.62V173.26C191.33 177.31 188.03 180.59 183.96 180.59Z" fill="#6D6A66"/>
<path d="M534.55 246.13L525.07 159.32L516.65 164.45L531.44 246.1L534.55 246.13Z" fill="#C8C6C4"/>
<path d="M199.46 253.45L195.89 253.41L208.31 163.61L218.97 162.92L199.46 253.45Z" fill="#C8C6C4"/>
<path d="M226.13 239.14L242.52 161.56L233.14 162.67L223.02 239.1L226.13 239.14Z" fill="#C8C6C4"/>
<path d="M512.28 260.35L515.85 260.4L505.56 166.22L494.55 165.27L512.28 260.35Z" fill="#C8C6C4"/>
<path d="M212.15 122.39C211.9 123.07 205.81 138.98 191.93 143.16C183.91 145.57 175.16 143.6 165.94 137.29L170.07 130.69C177.2 135.56 183.7 137.18 189.39 135.48C199.76 132.38 204.8 119.36 204.85 119.22L212.15 122.39Z" fill="#8A6FE8"/>
<path d="M160.56 186.99C161.83 180.59 163.29 167.4 158.35 155.2L150.81 157.86C155.29 168.92 153.62 180.55 152.53 185.55C152.44 185.97 156.46 187.11 160.56 186.99Z" fill="url(#paint0_linear)"/>
<path d="M152.55 185.48L158.86 186.63L158.78 219.78L146.11 217.48C145.15 217.3 144.55 216.43 144.79 215.53L152.55 185.48Z" fill="#522CD5"/>
<path d="M173.85 213.86C174.79 214.88 174.55 216.07 174.23 217.3L173.25 221.09C173.07 221.77 172.34 222.21 171.61 222.08L158.41 219.68C157.59 219.53 157.08 218.79 157.28 218.02L158.11 214.06C158.48 212.63 158.07 212.01 157.14 210.42C155.56 207.72 151.95 193.91 154.05 185.75L160.55 186.93C160.09 191.93 164.87 204.1 173.85 213.86Z" fill="url(#paint1_linear)"/>
<path d="M174.24 217.31C174.46 216.45 174.64 215.61 174.41 214.83L157.94 211.84C158.28 212.56 158.37 213.15 158.13 214.07L157.3 218.03C157.1 218.8 157.61 219.54 158.43 219.69L171.63 222.09C172.35 222.22 173.09 221.77 173.27 221.1L174.24 217.31Z" fill="url(#paint2_radial)"/>
<path d="M135.92 183.57C142.45 176.42 146.47 172.27 146.28 170.22C146.23 169.71 145.59 168.67 142.8 166.66C140.44 164.96 137.7 163.02 137.69 163.02L142.61 156.71C142.61 156.71 145.39 158.67 147.78 160.4C150.97 162.7 153.97 165.37 154.32 169.3C154.81 174.71 152.07 177.61 142.44 188.17L135.92 183.57Z" fill="url(#paint3_linear)"/>
<path d="M182.7 130.11C183.82 119.29 180.6 111.27 180.6 111.27L183.17 110.88L183.23 110.82C176.37 92.3 156.38 80.49 135.24 83.67C111.42 87.25 95.1703 108.49 98.9303 131.12C102.69 153.75 125.06 169.19 148.87 165.61C167.66 162.79 181.75 148.96 185 132.14C185.07 131.44 184.85 130.23 182.7 130.11Z" fill="url(#paint4_radial)"/>
<path d="M182.79 139.79L108.32 150.98C110.44 153.42 112.84 155.62 115.46 157.54L178.12 148.13C180 145.53 181.57 142.73 182.79 139.79Z" fill="#D8CFF7"/>
<path d="M161.45 152.91L175.42 150.81L173.47 139.07L159.49 141.17L161.45 152.91Z" fill="#512BD4"/>
<path d="M163.15 148.17C163.06 148.18 162.97 148.17 162.9 148.12C162.83 148.07 162.78 148 162.77 147.92C162.76 147.84 162.78 147.76 162.83 147.69C162.89 147.62 162.96 147.58 163.05 147.56C163.14 147.55 163.23 147.56 163.3 147.62C163.38 147.67 163.42 147.74 163.44 147.82C163.45 147.9 163.43 147.98 163.38 148.05C163.32 148.11 163.25 148.15 163.15 148.17Z" fill="white"/>
<path d="M166.86 147.57L166.26 147.66L164.28 145.51C164.23 145.46 164.19 145.4 164.15 145.34H164.14C164.16 145.41 164.19 145.56 164.23 145.78L164.58 147.91L164.05 147.99L163.52 144.74L164.16 144.64L166.08 146.74C166.16 146.83 166.21 146.89 166.24 146.92H166.25C166.22 146.84 166.19 146.69 166.16 146.49L165.82 144.4L166.35 144.32L166.86 147.57Z" fill="white"/>
<path d="M169.47 147.18L167.6 147.46L167.07 144.21L168.87 143.94L168.94 144.4L167.7 144.58L167.85 145.5L169 145.33L169.07 145.79L167.92 145.96L168.08 146.92L169.4 146.73L169.47 147.18Z" fill="white"/>
<path d="M171.67 144L170.71 144.14L171.17 146.93L170.62 147.01L170.16 144.22L169.2 144.36L169.13 143.9L171.6 143.54L171.67 144Z" fill="white"/>
<path d="M182.8 130.09C183.91 119.4 180.78 111.45 180.7 111.26L135.96 117.98C135.96 117.98 133.1 118.13 133.5 120.58C133.91 123.03 135.16 129.92 136.44 137.57C136.7 139.14 138.18 139.7 139.25 139.54C139.24 139.53 181.95 131.96 182.8 130.09Z" fill="url(#paint5_radial)"/>
<path d="M156.11 134.12C156.11 134.12 162.13 127.91 163.31 126.75C164.49 125.59 165.66 125.36 167.06 126.19C168.46 127.02 176.2 131.1 176.2 131.1L156.11 134.12Z" fill="#A08BE8"/>
<path d="M184.92 132.69C184.92 132.69 185.84 130.26 182.79 130.1C182.79 130.09 138.79 136.68 138.79 136.68C137.77 136.83 136.35 136.45 136.08 135.53C136.19 136.21 136.31 136.89 136.42 137.58C136.66 139.01 137.9 139.59 138.92 139.57C139.02 139.57 139.12 139.56 139.23 139.55L142.24 139.1L184.92 132.69Z" fill="#512BD4"/>
<path d="M149.038 131.121C150.886 130.763 151.92 128.072 151.346 125.112C150.771 122.152 148.807 120.043 146.958 120.401C145.11 120.76 144.076 123.45 144.65 126.411C145.225 129.371 147.189 131.48 149.038 131.121Z" fill="#512BD4"/>
<path d="M147.52 123.06C148.1 122.3 148.98 121.87 149.89 121.82C150.58 122.68 151.11 123.86 151.36 125.2C151.51 126.04 151.53 126.85 151.45 127.59C150.43 128.04 149.2 127.96 148.23 127.29C146.8 126.32 146.48 124.42 147.52 123.06Z" fill="#8065E0"/>
<path d="M198.18 111.57L199.48 123.74C199.69 125.75 201.45 127.27 203.4 127.14L203.75 127.12C205.7 126.99 207.11 125.26 206.89 123.25L205.59 111.08C205.38 109.07 203.62 107.55 201.67 107.68L201.32 107.7C199.37 107.83 197.96 109.56 198.18 111.57Z" fill="#8A6FE8"/>
<path d="M212.51 130.18L219.72 127.56C221.64 126.85 222.56 124.65 221.77 122.65C220.99 120.65 218.8 119.61 216.88 120.32L209.48 123.01L212.51 130.18Z" fill="#8A6FE8"/>
<path d="M213.92 126.2L221.33 118.61C222.76 117.14 222.69 114.71 221.19 113.18C219.69 111.65 217.31 111.61 215.89 113.08L210.36 118.7L213.92 126.2Z" fill="#8A6FE8"/>
<path d="M209.92 123.72L215.38 114.52C216.44 112.75 215.85 110.36 214.07 109.2C212.29 108.04 209.99 108.53 208.93 110.3L203.37 119.67L209.92 123.72Z" fill="#8A6FE8"/>
<path d="M199.69 124.15C199.47 119.71 202.81 116.09 207.13 116.07C211.46 116.05 215.15 119.63 215.36 124.07C215.57 128.51 212.24 132.13 207.92 132.15C203.59 132.17 199.9 128.59 199.69 124.15Z" fill="url(#paint6_radial)"/>
<path d="M130.71 81.97L138.76 80.73L135.13 67.06L129.35 67.95L130.71 81.97Z" fill="#8A6FE8"/>
<path d="M134.6 72.76C131.79 73.93 128.5 72.74 127.25 70.09C126 67.45 127.26 64.36 130.08 63.19C132.89 62.02 136.18 63.21 137.43 65.86C138.67 68.51 137.41 71.59 134.6 72.76Z" fill="#D8CFF7"/>
<path d="M128.46 87.19C128.1 87.24 127.75 87 127.74 86.65C127.54 83 130.28 79.71 134.22 79.1C138.16 78.49 141.88 80.79 142.94 84.31C143.04 84.64 142.8 84.98 142.44 85.03L128.46 87.19Z" fill="#522CD5"/>
<path d="M136 183.53L141.08 187.1L132.81 222.62L114.73 209.94C113.95 209.39 113.85 208.36 114.5 207.64L136 183.53Z" fill="#522CD5"/>
<path d="M142.93 218.82C143.39 220.09 142.55 221.3 141.66 222.29L138.95 225.33C138.46 225.87 137.59 225.98 137.01 225.57L130.62 221.08C129.96 220.62 129.87 219.74 130.42 219.12L133.08 215.86C134.1 214.71 134.58 213.87 133.98 212.18C130.43 202.17 131.7 192.86 137.8 184.79L142.45 188.06C139.59 192.39 136.82 202.19 142.93 218.82Z" fill="url(#paint7_linear)"/>
<path d="M137 225.58C137.58 225.99 138.46 225.88 138.94 225.34L141.65 222.3C142.23 221.65 142.79 220.9 142.98 220.11L134.2 213.93C134.08 214.63 133.68 215.2 133.08 215.88L130.42 219.14C129.87 219.76 129.96 220.63 130.62 221.1L137 225.58Z" fill="url(#paint8_radial)"/>
<path d="M176.207 127.044C178.056 126.685 179.089 123.995 178.515 121.034C177.941 118.074 175.977 115.965 174.128 116.324C172.279 116.682 171.246 119.373 171.82 122.333C172.394 125.293 174.358 127.402 176.207 127.044Z" fill="#512BD4"/>
<path d="M174.7 118.99C175.28 118.23 176.16 117.8 177.07 117.75C177.76 118.61 178.29 119.79 178.54 121.13C178.69 121.97 178.71 122.78 178.63 123.52C177.61 123.97 176.38 123.89 175.41 123.22C173.98 122.24 173.66 120.34 174.7 118.99Z" fill="#8065E0"/>
<path d="M95.7101 154.68C94.9501 148.98 99.3401 140.58 108.75 133.69C110.51 132.4 115.67 138.58 113.92 139.87C104.15 147.06 103.2 152.94 103.42 153.87C104.01 156.34 108.57 158.8 114.75 160C116.85 160.41 118.23 162.52 117.84 164.73C117.45 166.94 115.44 168.4 113.34 167.99C107.67 166.89 97.8601 163.86 95.9401 155.88C95.8401 155.48 95.7701 155.08 95.7101 154.68Z" fill="url(#paint9_linear)"/>
<path d="M125.51 152.02L114.82 156.88C113.06 157.68 112.32 159.83 113.17 161.68L113.32 162.01C114.17 163.86 116.29 164.71 118.05 163.91L128.74 159.05C130.5 158.25 131.24 156.1 130.39 154.25L130.24 153.92C129.4 152.07 127.28 151.22 125.51 152.02Z" fill="#8A6FE8"/>
<path d="M113.811 171.41L118.931 177.62C120.301 179.26 122.671 179.5 124.211 178.15C125.751 176.8 125.881 174.37 124.511 172.73L119.261 166.37L113.811 171.41Z" fill="#8A6FE8"/>
<path d="M118 171.6L127.75 176.52C129.64 177.46 131.85 176.68 132.68 174.78C133.52 172.87 132.67 170.56 130.78 169.62L123.54 165.94L118 171.6Z" fill="#8A6FE8"/>
<path d="M118.771 166.99L129.271 169.55C131.301 170.05 133.261 168.78 133.661 166.71C134.061 164.64 132.741 162.56 130.721 162.06L120.031 159.45L118.771 166.99Z" fill="#8A6FE8"/>
<path d="M114.53 157.21C118.53 155.68 123.1 157.84 124.75 162.02C126.4 166.2 124.49 170.83 120.5 172.36C116.5 173.89 111.93 171.73 110.28 167.55C108.63 163.36 110.53 158.73 114.53 157.21Z" fill="url(#paint10_radial)"/>
<path d="M114.75 141.84C119.179 141.84 122.77 138.428 122.77 134.22C122.77 130.012 119.179 126.6 114.75 126.6C110.321 126.6 106.73 130.012 106.73 134.22C106.73 138.428 110.321 141.84 114.75 141.84Z" fill="url(#paint11_radial)"/>
<path d="M302.04 133.44L314.15 100.67C314.74 99.07 313.92 97.3 312.33 96.72C310.74 96.13 308.96 96.95 308.38 98.54L296.91 129.58C296.9 129.57 301.65 134.5 302.04 133.44Z" fill="#29C3E5"/>
<path d="M317.17 212.47C315.78 213 314.16 212.5 313.32 211.2L287.57 171.28C286.96 170.34 286.89 169.15 287.37 168.14C287.86 167.13 288.83 166.44 289.95 166.33L323.05 160.04C324.82 159.86 326.92 163.98 327.1 165.75C327.28 167.52 325.99 169.11 324.22 169.29L296.7 172.21L318.74 207.71C319.71 209.21 319.28 211.2 317.78 212.17C317.58 212.29 317.38 212.39 317.17 212.47Z" fill="#29C3E5"/>
<path d="M304.1 175.67C303.81 175 303.76 174.24 303.96 173.52C304.24 172.52 304.99 171.72 305.96 171.36L346.97 156.47C348.64 155.86 350.49 156.73 351.1 158.4C351.71 160.07 352.26 165.69 350.58 166.3L314 175.94L338.46 208.55C339.57 209.94 339.34 211.97 337.95 213.08C336.56 214.19 334.53 213.96 333.42 212.57L304.54 176.4C304.36 176.18 304.22 175.93 304.1 175.67Z" fill="#29C3E5"/>
<path d="M337.41 169.49C349.682 169.49 359.63 159.542 359.63 147.27C359.63 134.998 349.682 125.05 337.41 125.05C325.139 125.05 315.19 134.998 315.19 147.27C315.19 159.542 325.139 169.49 337.41 169.49Z" fill="#60DEFA"/>
<path d="M337.41 111.81C349.682 111.81 359.63 101.862 359.63 89.59C359.63 77.3182 349.682 67.37 337.41 67.37C325.139 67.37 315.19 77.3182 315.19 89.59C315.19 101.862 325.139 111.81 337.41 111.81Z" fill="#29C3E5"/>
<path d="M312.2 155.32L305.57 97.68C305.3 95.31 307.16 93.22 309.55 93.22H364.58C366.97 93.22 368.83 95.3 368.56 97.68L362.11 155.23C361.88 157.25 360.17 158.78 358.13 158.78L316.18 158.87C314.14 158.87 312.43 157.34 312.2 155.32Z" fill="#60DEFA"/>
<path d="M348.37 77.05H355.75C357.53 79.65 358.77 82.65 359.31 85.89H348.37C346.58 85.89 345.12 84.44 345.12 82.64V80.3C345.12 78.5 346.58 77.05 348.37 77.05Z" fill="#0F849E"/>
<path d="M352.28 84.79C354.136 84.79 355.64 83.2857 355.64 81.43C355.64 79.5743 354.136 78.07 352.28 78.07C350.425 78.07 348.92 79.5743 348.92 81.43C348.92 83.2857 350.425 84.79 352.28 84.79Z" fill="#D2F6FE"/>
<path d="M339.09 84.79C340.946 84.79 342.45 83.2857 342.45 81.43C342.45 79.5743 340.946 78.07 339.09 78.07C337.234 78.07 335.73 79.5743 335.73 81.43C335.73 83.2857 337.234 84.79 339.09 84.79Z" fill="#D2F6FE"/>
<path d="M341.35 213.51L330.94 221.97C330.13 222.63 328.91 222.4 328.41 221.48C324.74 214.69 325.44 206.35 330.11 200.28C330.76 199.43 332.05 199.42 332.73 200.26L341.59 211.16C342.17 211.87 342.07 212.93 341.35 213.51Z" fill="#179BB8"/>
<path d="M320.98 213.9L307.66 219.06C306.78 219.62 305.59 219.25 305.2 218.28C302.33 211.11 304.9 203.4 310.24 197.9C310.99 197.13 312.27 197.27 312.85 198.18L321.49 211.59C321.99 212.37 321.76 213.4 320.98 213.9Z" fill="#179BB8"/>
<path d="M514.67 167.83L540.8 153.02L541.35 144.7L514.77 159.83L514.67 167.83Z" fill="#848484"/>
<path d="M514.77 159.83L541.35 144.7L217.53 144.68L173.23 157.5L173.9 158.11L514.77 159.83Z" fill="#B2B2B2"/>
<path d="M173.07 165.75L514.67 167.83L514.77 159.83L173.22 157.49L173.07 165.75Z" fill="#848484"/>
<path d="M192.64 154.09L213.65 147.79C213.65 147.79 232.71 148.01 240.87 147.94C242.43 147.93 232.1 154.68 231.88 154.68C231.61 154.68 192.64 154.09 192.64 154.09Z" fill="#E1DFDD"/>
<path d="M229.53 155.18H194.85C193.49 155.18 192.64 155.49 192.64 154.14H231.87C231.97 154.61 229.86 155.18 229.53 155.18Z" fill="#737373"/>
<path d="M267.68 103.19L239.97 109.57C239.31 109.65 238.75 110.17 238.62 110.83L229.63 155.18L230.68 154.98L270.02 104.92C270.25 104.1 268.8 103.06 267.68 103.19Z" fill="#B3AFAB"/>
<path d="M268.43 103.87L241.54 110.09C240.88 110.17 240.32 110.69 240.19 111.35C240.19 111.35 232.18 150.43 231.75 152.53C231.33 154.63 229.63 155.18 229.63 155.18L231.23 155.08L257.71 149.47C258.55 149.37 259.24 148.76 259.45 147.94L270.09 105.82C270.38 104.71 269.55 103.74 268.43 103.87Z" fill="#E1DFDD"/>
<path d="M333.29 154.34C333.29 154.34 348.83 148.42 350.33 147.79C351.73 147.21 352.76 146.03 352.76 146.03L325.01 143.47L333.29 154.34Z" fill="#C8C6C4"/>
<path d="M333.67 155.31C333.67 155.31 350.46 148.42 351.9 147.79C353.29 147.18 352.77 146.03 352.77 146.03L332.63 154L333.67 155.31Z" fill="#737373"/>
<path d="M333.42 152.02L339.18 149.33L330.97 148.45L333.42 152.02Z" fill="#848484"/>
<path d="M350.83 98.25C349.88 97.96 348.8 98.14 347.97 98.82C346.66 99.9 346.47 101.84 347.55 103.15L366.93 126.68L344.56 135C342.97 135.59 342.16 137.37 342.75 138.96C343.34 140.55 345.11 141.36 346.71 140.77L373.14 130.93C374.07 130.58 374.78 129.81 375.04 128.84C375.3 127.88 375.08 126.85 374.44 126.08L352.32 99.22C351.91 98.75 351.39 98.42 350.83 98.25Z" fill="#29C3E5"/>
<path d="M324.36 149.88C324.62 150.36 325.13 150.67 325.65 150.6L331.91 149.79C332 149.78 332.08 149.76 332.16 149.73L340.09 146.62C340.69 146.38 340.95 145.65 340.67 144.98C340.39 144.32 339.67 143.96 339.06 144.2L331.25 147.26L325.12 148.05C324.47 148.13 324.06 148.77 324.2 149.48C324.24 149.62 324.29 149.76 324.36 149.88Z" fill="#1DACCC"/>
<path d="M327.49 146.29C328.06 146.41 328.66 146.18 328.91 145.69C329.38 144.8 330.01 142.22 330.27 141.1L335.84 137.23C336.4 136.84 336.48 136.1 336.02 135.58C335.56 135.06 334.73 134.95 334.17 135.34L328.24 139.46C328.01 139.62 327.85 139.86 327.79 140.12C327.45 141.63 326.84 144.02 326.54 144.59C326.23 145.17 326.51 145.88 327.17 146.18C327.28 146.23 327.38 146.27 327.49 146.29Z" fill="#1DACCC"/>
<path d="M348.49 134.6L350.24 138.4C350.52 139.02 350.29 139.69 349.72 139.93L346.74 141.16C346.64 141.2 346.55 141.26 346.47 141.32L340.41 146.43C339.83 146.92 338.86 146.65 338.5 145.88L334.06 136.65C333.68 135.87 334.15 135.04 334.97 135.02L343.68 134.82C343.79 134.82 343.89 134.8 343.99 134.77L346.93 133.84C347.52 133.66 348.21 133.99 348.49 134.6Z" fill="#1DACCC"/>
<path d="M324.13 148.22C324.47 148.57 324.98 148.74 325.44 148.61L332.54 146.61C332.62 146.59 332.69 146.56 332.76 146.52L339.34 142.97C339.91 142.66 340.07 141.91 339.69 141.29C339.31 140.67 338.54 140.42 337.96 140.73L331.48 144.22L324.5 146.19C323.86 146.37 323.55 147.06 323.81 147.72C323.89 147.92 323.99 148.09 324.13 148.22Z" fill="#1DACCC"/>
<path d="M352.1 113C356.64 113 360.32 109.32 360.32 104.78C360.32 100.24 356.64 96.56 352.1 96.56C347.561 96.56 343.88 100.24 343.88 104.78C343.88 109.32 347.561 113 352.1 113Z" fill="#1DACCC"/>
<path d="M333.03 155.36L283.32 150.27C282.49 150.18 281.65 149.46 281.44 148.64L272.06 111.01C271.86 110.2 272.37 109.61 273.2 109.69L322.91 114.78C323.74 114.87 324.58 115.59 324.79 116.41L334.17 154.04C334.38 154.85 333.87 155.44 333.03 155.36Z" fill="#E1DFDD"/>
<path d="M333.03 155.36C333.04 155.36 333.05 155.36 333.06 155.36C333.08 155.21 333.08 155.06 333.04 154.89L323.66 117.26C323.46 116.45 322.62 115.72 321.78 115.63L272.07 110.54C272.06 110.54 272.05 110.54 272.04 110.54C272.02 110.69 272.02 110.84 272.06 111.01L281.44 148.64C281.64 149.45 282.48 150.18 283.32 150.27L333.03 155.36Z" fill="#737373"/>
<path d="M483.02 148.56L481.5 143.27C491.76 140.32 497.73 136.58 497.48 133.25C497.12 128.49 486.05 122.86 477.58 121.76L478.29 116.31C487.96 117.57 502.31 124.17 502.96 132.84C503.46 139.33 496.75 144.62 483.02 148.56Z" fill="#E29E3B"/>
<path d="M486.68 119.04L486.16 113.1C486.03 111.57 484.75 110.4 483.22 110.4H433.1C431.66 110.4 430.45 111.5 430.32 112.94L429.78 119.04H486.68Z" fill="#F7B548"/>
<path d="M436.87 116.33C437.759 116.33 438.48 115.609 438.48 114.72C438.48 113.831 437.759 113.11 436.87 113.11C435.981 113.11 435.26 113.831 435.26 114.72C435.26 115.609 435.981 116.33 436.87 116.33Z" fill="#FFE5B9"/>
<path d="M442.79 116.33C443.679 116.33 444.4 115.609 444.4 114.72C444.4 113.831 443.679 113.11 442.79 113.11C441.901 113.11 441.18 113.831 441.18 114.72C441.18 115.609 441.901 116.33 442.79 116.33Z" fill="#FFE5B9"/>
<path d="M448.72 116.33C449.61 116.33 450.33 115.609 450.33 114.72C450.33 113.831 449.61 113.11 448.72 113.11C447.831 113.11 447.11 113.831 447.11 114.72C447.11 115.609 447.831 116.33 448.72 116.33Z" fill="#FFE5B9"/>
<path d="M460.5 154.97C460.5 154.97 478.3 147.77 479.99 146.94C480.23 146.82 480.23 146.1 480.23 146.1L450.99 146.03L460.5 154.97Z" fill="#E1DFDD"/>
<path d="M460.81 155.9C460.81 155.9 477.51 148.64 479.16 147.89C480.76 147.16 480.31 146.06 480.31 146.06L459.81 154.68L460.81 155.9Z" fill="#6D6A66"/>
<path d="M460.9 152.65L467.55 149.46L458.62 149.32L460.9 152.65Z" fill="#E1DFDD"/>
<path d="M460.1 156L406 155.38C405.09 155.37 404.25 154.72 404.12 153.93L398.03 117.37C397.9 116.58 398.53 115.95 399.44 115.96L453.55 116.58C454.46 116.59 455.3 117.24 455.43 118.03L461.52 154.59C461.64 155.38 461.01 156.01 460.1 156Z" fill="#B3AFAB"/>
<path d="M460.1 156C460.11 156 460.12 155.99 460.14 155.99C460.17 155.84 460.2 155.69 460.17 155.53L454.09 118.97C453.96 118.18 453.12 117.53 452.21 117.52L398.1 116.9C398.09 116.9 398.08 116.91 398.06 116.91C398.03 117.06 398 117.21 398.03 117.37L404.12 153.93C404.25 154.72 405.09 155.37 406 155.38L460.1 156Z" fill="#E1DFDD"/>
<path d="M481.87 146.59C478.92 144.2 472.27 144.39 471.22 144.79C470.17 145.19 468.27 143.77 471.43 140.86C473.84 138.63 479.11 136.07 483.65 141.41C485.3 143.36 481.87 146.59 481.87 146.59Z" fill="#F7B548"/>
<path d="M483.48 147.52C483.22 147.99 482.74 148.33 482.16 148.36L472.33 148.92C471.44 148.97 470.69 148.29 470.64 147.41C470.59 146.52 471.27 145.77 472.15 145.72L481.98 145.16C482.87 145.11 483.62 145.79 483.67 146.67C483.69 146.97 483.62 147.27 483.48 147.52Z" fill="#F7B548"/>
<path d="M480.2 149.01C478.41 146.02 479.39 142.16 482.37 140.37L483.05 139.97C486.03 138.18 489.9 139.16 491.69 142.14C493.48 145.13 492.5 148.99 489.52 150.78L488.84 151.18C485.85 152.96 481.99 151.99 480.2 149.01Z" fill="#E29E3B"/>
<path d="M435.77 47.1H373.17V79.06L410.31 78.28L426 86.2L422.66 78.02L435.77 77.74V47.1Z" fill="#FCCF84"/>
<path d="M256.5 55.69L185.45 57.94V97.04H194.31L192.59 108.7L207.45 97.04H256.5V55.69Z" fill="#D8CFF7"/>
<path d="M242.99 73.32H198.01C197.18 73.32 196.51 72.65 196.51 71.82C196.51 70.99 197.18 70.32 198.01 70.32H242.99C243.82 70.32 244.49 70.99 244.49 71.82C244.49 72.65 243.82 73.32 242.99 73.32Z" fill="#AE9CEB"/>
<path d="M226.3 81.32H198.01C197.18 81.32 196.51 80.65 196.51 79.82C196.51 78.99 197.18 78.32 198.01 78.32H226.3C227.13 78.32 227.8 78.99 227.8 79.82C227.8 80.65 227.13 81.32 226.3 81.32Z" fill="#AE9CEB"/>
<path d="M388.84 67.15C390.602 67.15 392.03 65.7218 392.03 63.96C392.03 62.1982 390.602 60.77 388.84 60.77C387.079 60.77 385.65 62.1982 385.65 63.96C385.65 65.7218 387.079 67.15 388.84 67.15Z" fill="white"/>
<path d="M400.84 67.15C402.602 67.15 404.03 65.7218 404.03 63.96C404.03 62.1982 402.602 60.77 400.84 60.77C399.079 60.77 397.65 62.1982 397.65 63.96C397.65 65.7218 399.079 67.15 400.84 67.15Z" fill="white"/>
<path d="M412.84 67.15C414.602 67.15 416.03 65.7218 416.03 63.96C416.03 62.1982 414.602 60.77 412.84 60.77C411.079 60.77 409.65 62.1982 409.65 63.96C409.65 65.7218 411.079 67.15 412.84 67.15Z" fill="white"/>
<path d="M87.0102 113.02C85.9502 126.22 89.6202 156.39 91.6002 167.07C93.7902 178.84 98.1802 186.68 106.68 186.68L130.63 187.61C131.84 187.61 132.49 186.19 131.7 185.28C120.19 172.01 93.2802 137.7 87.0102 113.02Z" fill="#605D5A"/>
<defs>
<linearGradient id="paint0_linear" x1="156.435" y1="155.251" x2="157.164" y2="187.075" gradientUnits="userSpaceOnUse">
<stop offset="0.252" stop-color="#522CD5"/>
<stop offset="0.5558" stop-color="#8A6FE8"/>
</linearGradient>
<linearGradient id="paint1_linear" x1="156.674" y1="185.317" x2="169.6" y2="223.407" gradientUnits="userSpaceOnUse">
<stop stop-color="#522CD5"/>
<stop offset="0.4397" stop-color="#8A6FE8"/>
</linearGradient>
<radialGradient id="paint2_radial" cx="0" cy="0" r="1" gradientUnits="userSpaceOnUse" gradientTransform="translate(167.168 206.821) rotate(10.2964) scale(14.1406 13.4344)">
<stop offset="0.034" stop-color="#522CD5"/>
<stop offset="0.9955" stop-color="#8A6FE8"/>
</radialGradient>
<linearGradient id="paint3_linear" x1="138.702" y1="158.02" x2="148.629" y2="185.884" gradientUnits="userSpaceOnUse">
<stop offset="0.252" stop-color="#522CD5"/>
<stop offset="0.5558" stop-color="#8A6FE8"/>
</linearGradient>
<radialGradient id="paint4_radial" cx="0" cy="0" r="1" gradientUnits="userSpaceOnUse" gradientTransform="translate(149.09 108.037) rotate(171.455) scale(43.4307 41.3599)">
<stop offset="0.4744" stop-color="#A08BE8"/>
<stop offset="0.8618" stop-color="#8065E0"/>
</radialGradient>
<radialGradient id="paint5_radial" cx="0" cy="0" r="1" gradientUnits="userSpaceOnUse" gradientTransform="translate(178.482 105.177) rotate(171.455) scale(45.0081 42.862)">
<stop offset="0.0933" stop-color="#E1DFDD"/>
<stop offset="0.6573" stop-color="white"/>
</radialGradient>
<radialGradient id="paint6_radial" cx="0" cy="0" r="1" gradientUnits="userSpaceOnUse" gradientTransform="translate(204.683 125.403) rotate(-103.418) scale(8.10937 7.77883)">
<stop stop-color="#8065E0"/>
<stop offset="1" stop-color="#512BD4"/>
</radialGradient>
<linearGradient id="paint7_linear" x1="141.855" y1="185.039" x2="136.576" y2="225.389" gradientUnits="userSpaceOnUse">
<stop stop-color="#522CD5"/>
<stop offset="0.4397" stop-color="#8A6FE8"/>
</linearGradient>
<radialGradient id="paint8_radial" cx="0" cy="0" r="1" gradientUnits="userSpaceOnUse" gradientTransform="translate(142.532 211.36) rotate(35.1098) scale(12.6537 12.8871)">
<stop offset="0.034" stop-color="#522CD5"/>
<stop offset="0.9955" stop-color="#8A6FE8"/>
</radialGradient>
<linearGradient id="paint9_linear" x1="101.421" y1="135.99" x2="111.762" y2="168.995" gradientUnits="userSpaceOnUse">
<stop offset="0.2495" stop-color="#967FE6"/>
<stop offset="0.6748" stop-color="#8A6FE8"/>
</linearGradient>
<radialGradient id="paint10_radial" cx="0" cy="0" r="1" gradientUnits="userSpaceOnUse" gradientTransform="translate(120.828 166.803) rotate(114.167) scale(7.89245 7.98967)">
<stop stop-color="#8065E0"/>
<stop offset="1" stop-color="#512BD4"/>
</radialGradient>
<radialGradient id="paint11_radial" cx="0" cy="0" r="1" gradientUnits="userSpaceOnUse" gradientTransform="translate(112.862 131.963) rotate(-8.54511) scale(8.00991 7.62798)">
<stop stop-color="#8065E0"/>
<stop offset="1" stop-color="#512BD4"/>
</radialGradient>
</defs>
</svg>
