<svg width="636" height="300" viewBox="0 0 636 300" fill="none" xmlns="http://www.w3.org/2000/svg">
<path d="M320.21 241.9C369.982 241.9 410.33 201.552 410.33 151.78C410.33 102.008 369.982 61.66 320.21 61.66C270.438 61.66 230.09 102.008 230.09 151.78C230.09 201.552 270.438 241.9 320.21 241.9Z" fill="#3E8EED"/>
<path d="M159.34 93.76C123.53 93.76 94.3999 122.89 94.3999 158.7C94.3999 194.51 123.53 223.64 159.34 223.64C195.15 223.64 224.28 194.51 224.28 158.7C224.28 122.9 195.15 93.76 159.34 93.76Z" fill="#3E8EED"/>
<path d="M481.13 94.18C445.32 94.18 416.19 123.31 416.19 159.12C416.19 194.93 445.32 224.06 481.13 224.06C516.94 224.06 546.07 194.93 546.07 159.12C546.07 123.31 516.94 94.18 481.13 94.18Z" fill="#3E8EED"/>
<path d="M276.62 164.6C275.43 160.53 274.77 156.23 274.77 151.78C274.77 126.68 295.12 106.34 320.21 106.34C345.31 106.34 365.65 126.69 365.65 151.78C365.65 156.15 365.02 160.36 363.87 164.36L384.16 170.87C385.97 164.82 386.95 158.41 386.95 151.78C386.95 114.92 357.07 85.04 320.21 85.04C283.35 85.04 253.47 114.92 253.47 151.78C253.47 158.44 254.46 164.87 256.27 170.94L276.62 164.6Z" fill="#D1C5F4"/>
<path d="M362.55 135.27C364.55 140.39 365.66 145.95 365.66 151.78C365.66 156.15 365.03 160.36 363.88 164.36L384.17 170.87C385.98 164.82 386.96 158.41 386.96 151.78C386.96 143.22 385.33 135.05 382.4 127.53L362.55 135.27Z" fill="white"/>
<path d="M129.55 167.69C128.74 164.91 128.29 161.98 128.29 158.94C128.29 141.82 142.17 127.94 159.29 127.94C176.41 127.94 190.29 141.82 190.29 158.94C190.29 161.92 189.86 164.79 189.08 167.52L202.92 171.96C204.15 167.83 204.82 163.46 204.82 158.93C204.82 133.79 184.44 113.4 159.29 113.4C134.15 113.4 113.76 133.78 113.76 158.93C113.76 163.47 114.43 167.86 115.67 172L129.55 167.69Z" fill="white"/>
<path d="M132.45 143.48L120.21 135.59C116.12 142.42 113.76 150.41 113.76 158.95C113.76 163.49 114.43 167.88 115.67 172.02L129.55 167.7C128.74 164.92 128.29 161.99 128.29 158.95C128.29 153.3 129.82 148.03 132.45 143.48Z" fill="#A3C9F6"/>
<path d="M122.52 147.37C122.52 147.37 136.56 156.21 153.14 166.37C156.57 168.63 161.29 169.18 164.91 166.59C169.35 163.42 170.36 157.22 167.16 152.75C165.35 150.22 162.6 148.79 159.73 148.59C159.63 148.57 155.87 148.49 155.77 148.49C152.22 148.42 122.52 147.37 122.52 147.37Z" fill="#0064DA"/>
<path d="M162.73 155.91C161.3 153.9 158.52 153.43 156.53 154.86C154.54 156.28 154.09 159.06 155.52 161.07C156.95 163.08 159.73 163.55 161.72 162.12C163.71 160.7 164.16 157.92 162.73 155.91Z" fill="#3E8EED"/>
<path d="M451.33 167.69C450.51 164.91 450.07 161.98 450.07 158.94C450.07 141.82 463.95 127.94 481.07 127.94C498.19 127.94 512.07 141.82 512.07 158.94C512.07 161.92 511.64 164.79 510.86 167.52L524.7 171.96C525.93 167.83 526.6 163.46 526.6 158.93C526.6 133.79 506.22 113.4 481.07 113.4C455.93 113.4 435.54 133.78 435.54 158.93C435.54 163.47 436.21 167.86 437.45 172L451.33 167.69Z" fill="white"/>
<path d="M454.23 143.48L441.99 135.59C437.9 142.42 435.54 150.41 435.54 158.95C435.54 163.49 436.21 167.88 437.45 172.02L451.33 167.7C450.52 164.92 450.07 161.99 450.07 158.95C450.07 153.3 451.6 148.03 454.23 143.48Z" fill="#A3C9F6"/>
<path d="M444.16 147.35C444.16 147.35 460.03 156.54 474.92 166.37C478.29 168.96 483.07 169.18 486.69 166.59C491.13 163.42 492.14 157.22 488.94 152.75C487.13 150.22 484.38 148.79 481.51 148.59C481.41 148.57 481.32 148.55 481.21 148.55C477.66 148.47 444.16 147.35 444.16 147.35Z" fill="#0064DA"/>
<path d="M484.51 155.91C483.08 153.9 480.3 153.43 478.31 154.86C476.32 156.28 475.87 159.06 477.3 161.07C478.73 163.08 481.51 163.55 483.5 162.12C485.49 160.7 485.94 157.92 484.51 155.91Z" fill="#3E8EED"/>
<path d="M365.37 115.48C365.37 115.48 342.88 124.88 315.68 136.19C309.56 138.06 305.11 143.71 305.11 150.4C305.11 158.61 311.81 165.27 320.08 165.27C324.76 165.27 328.92 163.15 331.68 159.81C331.79 159.7 331.9 159.61 331.99 159.48C344.11 145.32 365.37 115.48 365.37 115.48Z" fill="#522CD5"/>
<path d="M320.09 157.08C323.8 157.08 326.81 154.09 326.81 150.41C326.81 146.72 323.8 143.74 320.09 143.74C316.38 143.74 313.37 146.73 313.37 150.41C313.37 154.09 316.38 157.08 320.09 157.08Z" fill="#957EE6"/>
<path d="M114.372 267.731C113.882 267.731 113.497 267.66 113.215 267.52V266.387C113.585 266.491 113.971 266.543 114.372 266.543C114.887 266.543 115.278 266.387 115.543 266.074C115.814 265.762 115.95 265.311 115.95 264.723V253.301H117.278V264.614C117.278 265.603 117.028 266.369 116.528 266.91C116.028 267.457 115.309 267.731 114.372 267.731ZM125.387 264.723L125.129 263.504H125.067C124.64 264.041 124.213 264.405 123.786 264.598C123.364 264.785 122.835 264.879 122.2 264.879C121.351 264.879 120.684 264.66 120.2 264.223C119.721 263.785 119.481 263.163 119.481 262.356C119.481 260.627 120.864 259.72 123.629 259.637L125.083 259.59V259.059C125.083 258.387 124.937 257.892 124.645 257.574C124.359 257.252 123.898 257.09 123.262 257.09C122.549 257.09 121.741 257.309 120.84 257.746L120.442 256.754C120.864 256.525 121.325 256.345 121.825 256.215C122.33 256.085 122.835 256.02 123.34 256.02C124.361 256.02 125.116 256.246 125.606 256.699C126.101 257.153 126.348 257.879 126.348 258.879V264.723H125.387ZM122.458 263.809C123.265 263.809 123.898 263.587 124.356 263.145C124.819 262.702 125.051 262.082 125.051 261.285V260.512L123.754 260.567C122.723 260.603 121.978 260.765 121.52 261.051C121.067 261.332 120.84 261.772 120.84 262.371C120.84 262.84 120.981 263.197 121.262 263.442C121.549 263.686 121.947 263.809 122.458 263.809ZM130.903 264.723L127.653 256.16H129.043L130.887 261.239C131.304 262.426 131.549 263.197 131.622 263.551H131.684C131.741 263.275 131.921 262.705 132.223 261.84C132.53 260.97 133.215 259.077 134.278 256.16H135.668L132.418 264.723H130.903ZM142.309 264.723L142.051 263.504H141.989C141.562 264.041 141.135 264.405 140.708 264.598C140.286 264.785 139.757 264.879 139.122 264.879C138.273 264.879 137.606 264.66 137.122 264.223C136.642 263.785 136.403 263.163 136.403 262.356C136.403 260.627 137.786 259.72 140.551 259.637L142.004 259.59V259.059C142.004 258.387 141.859 257.892 141.567 257.574C141.28 257.252 140.819 257.09 140.184 257.09C139.471 257.09 138.663 257.309 137.762 257.746L137.364 256.754C137.786 256.525 138.247 256.345 138.747 256.215C139.252 256.085 139.757 256.02 140.262 256.02C141.283 256.02 142.038 256.246 142.528 256.699C143.023 257.153 143.27 257.879 143.27 258.879V264.723H142.309ZM139.379 263.809C140.187 263.809 140.819 263.587 141.278 263.145C141.741 262.702 141.973 262.082 141.973 261.285V260.512L140.676 260.567C139.645 260.603 138.9 260.765 138.442 261.051C137.989 261.332 137.762 261.772 137.762 262.371C137.762 262.84 137.903 263.197 138.184 263.442C138.471 263.686 138.869 263.809 139.379 263.809ZM156.747 261.684C156.747 262.689 156.382 263.473 155.653 264.035C154.924 264.598 153.934 264.879 152.684 264.879C151.33 264.879 150.288 264.705 149.559 264.356V263.074C150.028 263.272 150.538 263.429 151.09 263.543C151.642 263.658 152.189 263.715 152.731 263.715C153.616 263.715 154.283 263.548 154.731 263.215C155.179 262.877 155.403 262.408 155.403 261.809C155.403 261.413 155.322 261.09 155.161 260.84C155.004 260.585 154.739 260.351 154.364 260.137C153.994 259.923 153.429 259.681 152.668 259.41C151.606 259.03 150.846 258.58 150.387 258.059C149.934 257.538 149.708 256.858 149.708 256.02C149.708 255.14 150.038 254.439 150.7 253.918C151.361 253.397 152.236 253.137 153.325 253.137C154.46 253.137 155.504 253.345 156.458 253.762L156.043 254.918C155.101 254.522 154.184 254.324 153.293 254.324C152.59 254.324 152.041 254.476 151.645 254.778C151.249 255.08 151.051 255.499 151.051 256.035C151.051 256.431 151.124 256.757 151.27 257.012C151.416 257.262 151.661 257.494 152.004 257.707C152.353 257.916 152.885 258.147 153.598 258.403C154.796 258.83 155.619 259.288 156.067 259.778C156.52 260.267 156.747 260.903 156.747 261.684ZM162.504 264.879C161.239 264.879 160.239 264.494 159.504 263.723C158.775 262.952 158.411 261.882 158.411 260.512C158.411 259.132 158.749 258.035 159.426 257.223C160.109 256.41 161.023 256.004 162.168 256.004C163.241 256.004 164.09 256.358 164.715 257.067C165.34 257.77 165.653 258.699 165.653 259.856V260.676H159.754C159.78 261.681 160.033 262.444 160.512 262.965C160.997 263.486 161.676 263.746 162.551 263.746C163.473 263.746 164.385 263.554 165.286 263.168V264.324C164.827 264.522 164.392 264.663 163.981 264.746C163.575 264.835 163.083 264.879 162.504 264.879ZM162.153 257.09C161.465 257.09 160.916 257.314 160.504 257.762C160.098 258.21 159.859 258.83 159.786 259.621H164.262C164.262 258.804 164.08 258.179 163.715 257.746C163.351 257.309 162.83 257.09 162.153 257.09ZM171.778 256.004C172.158 256.004 172.499 256.035 172.801 256.098L172.622 257.301C172.267 257.223 171.955 257.184 171.684 257.184C170.991 257.184 170.398 257.465 169.903 258.028C169.413 258.59 169.168 259.291 169.168 260.129V264.723H167.872V256.16H168.942L169.09 257.746H169.153C169.471 257.189 169.853 256.759 170.301 256.457C170.749 256.155 171.241 256.004 171.778 256.004ZM176.278 264.723L173.028 256.16H174.418L176.262 261.239C176.679 262.426 176.924 263.197 176.997 263.551H177.059C177.116 263.275 177.296 262.705 177.598 261.84C177.905 260.97 178.59 259.077 179.653 256.16H181.043L177.793 264.723H176.278ZM183.715 264.723H182.418V252.567H183.715V264.723ZM190.083 264.879C188.817 264.879 187.817 264.494 187.083 263.723C186.353 262.952 185.989 261.882 185.989 260.512C185.989 259.132 186.327 258.035 187.004 257.223C187.687 256.41 188.601 256.004 189.747 256.004C190.819 256.004 191.668 256.358 192.293 257.067C192.918 257.77 193.231 258.699 193.231 259.856V260.676H187.333C187.359 261.681 187.611 262.444 188.09 262.965C188.575 263.486 189.254 263.746 190.129 263.746C191.051 263.746 191.963 263.554 192.864 263.168V264.324C192.405 264.522 191.971 264.663 191.559 264.746C191.153 264.835 190.661 264.879 190.083 264.879ZM189.731 257.09C189.043 257.09 188.494 257.314 188.083 257.762C187.676 258.21 187.437 258.83 187.364 259.621H191.84C191.84 258.804 191.658 258.179 191.293 257.746C190.929 257.309 190.408 257.09 189.731 257.09ZM198.215 263.809C198.444 263.809 198.666 263.793 198.879 263.762C199.093 263.726 199.262 263.689 199.387 263.653V264.645C199.247 264.712 199.038 264.767 198.762 264.809C198.491 264.856 198.247 264.879 198.028 264.879C196.372 264.879 195.543 264.007 195.543 262.262V257.168H194.317V256.543L195.543 256.004L196.09 254.176H196.84V256.16H199.325V257.168H196.84V262.207C196.84 262.723 196.963 263.119 197.208 263.395C197.452 263.671 197.788 263.809 198.215 263.809Z" fill="#605D5A"/>
<path d="M304.016 263.895C304.016 263.546 304.094 263.283 304.25 263.106C304.412 262.923 304.641 262.832 304.938 262.832C305.24 262.832 305.474 262.923 305.641 263.106C305.813 263.283 305.899 263.546 305.899 263.895C305.899 264.233 305.813 264.494 305.641 264.676C305.469 264.858 305.235 264.949 304.938 264.949C304.672 264.949 304.451 264.869 304.274 264.707C304.102 264.541 304.016 264.27 304.016 263.895ZM317.586 264.723H316.071L309.829 255.137H309.766C309.849 256.262 309.891 257.293 309.891 258.231V264.723H308.665V253.301H310.165L316.391 262.848H316.454C316.443 262.707 316.42 262.257 316.383 261.496C316.347 260.731 316.334 260.184 316.344 259.856V253.301H317.586V264.723ZM327.094 264.723H320.727V253.301H327.094V254.481H322.055V258.16H326.79V259.332H322.055V263.535H327.094V264.723ZM333.149 264.723H331.821V254.481H328.204V253.301H336.766V254.481H333.149V264.723Z" fill="#605D5A"/>
<path d="M460.668 264.723H459.153L452.911 255.137H452.848C452.931 256.262 452.973 257.293 452.973 258.231V264.723H451.747V253.301H453.247L459.473 262.848H459.536C459.525 262.707 459.502 262.257 459.465 261.496C459.429 260.731 459.416 260.184 459.426 259.856V253.301H460.668V264.723ZM471.004 260.434C471.004 261.83 470.653 262.921 469.95 263.707C469.247 264.489 468.275 264.879 467.036 264.879C466.27 264.879 465.59 264.699 464.997 264.34C464.403 263.981 463.944 263.465 463.622 262.793C463.299 262.121 463.137 261.335 463.137 260.434C463.137 259.038 463.486 257.952 464.184 257.176C464.882 256.395 465.851 256.004 467.09 256.004C468.288 256.004 469.239 256.403 469.942 257.199C470.65 257.996 471.004 259.074 471.004 260.434ZM464.481 260.434C464.481 261.528 464.7 262.361 465.137 262.934C465.575 263.507 466.218 263.793 467.067 263.793C467.916 263.793 468.559 263.509 468.997 262.942C469.439 262.369 469.661 261.533 469.661 260.434C469.661 259.345 469.439 258.52 468.997 257.957C468.559 257.39 467.911 257.106 467.051 257.106C466.202 257.106 465.562 257.384 465.129 257.942C464.697 258.499 464.481 259.33 464.481 260.434ZM479.114 263.574H479.043C478.444 264.444 477.549 264.879 476.356 264.879C475.236 264.879 474.364 264.496 473.739 263.731C473.119 262.965 472.809 261.877 472.809 260.465C472.809 259.054 473.122 257.957 473.747 257.176C474.372 256.395 475.241 256.004 476.356 256.004C477.517 256.004 478.408 256.426 479.028 257.27H479.129L479.075 256.653L479.043 256.051V252.567H480.34V264.723H479.286L479.114 263.574ZM476.52 263.793C477.405 263.793 478.046 263.554 478.442 263.074C478.843 262.59 479.043 261.811 479.043 260.739V260.465C479.043 259.252 478.84 258.387 478.434 257.871C478.033 257.351 477.39 257.09 476.504 257.09C475.744 257.09 475.161 257.387 474.754 257.981C474.353 258.569 474.153 259.403 474.153 260.481C474.153 261.574 474.353 262.4 474.754 262.957C475.155 263.515 475.744 263.793 476.52 263.793ZM486.715 264.879C485.45 264.879 484.45 264.494 483.715 263.723C482.986 262.952 482.622 261.882 482.622 260.512C482.622 259.132 482.96 258.035 483.637 257.223C484.319 256.41 485.234 256.004 486.379 256.004C487.452 256.004 488.301 256.358 488.926 257.067C489.551 257.77 489.864 258.699 489.864 259.856V260.676H483.965C483.991 261.681 484.244 262.444 484.723 262.965C485.208 263.486 485.887 263.746 486.762 263.746C487.684 263.746 488.596 263.554 489.497 263.168V264.324C489.038 264.522 488.603 264.663 488.192 264.746C487.786 264.835 487.293 264.879 486.715 264.879ZM486.364 257.09C485.676 257.09 485.127 257.314 484.715 257.762C484.309 258.21 484.069 258.83 483.997 259.621H488.473C488.473 258.804 488.291 258.179 487.926 257.746C487.562 257.309 487.041 257.09 486.364 257.09ZM491.895 263.895C491.895 263.546 491.973 263.283 492.129 263.106C492.291 262.923 492.52 262.832 492.817 262.832C493.119 262.832 493.353 262.923 493.52 263.106C493.692 263.283 493.778 263.546 493.778 263.895C493.778 264.233 493.692 264.494 493.52 264.676C493.348 264.858 493.114 264.949 492.817 264.949C492.551 264.949 492.33 264.869 492.153 264.707C491.981 264.541 491.895 264.27 491.895 263.895ZM495.309 268.567C494.814 268.567 494.413 268.502 494.106 268.371V267.317C494.465 267.421 494.819 267.473 495.168 267.473C495.575 267.473 495.872 267.361 496.059 267.137C496.252 266.918 496.348 266.582 496.348 266.129V256.16H497.645V266.035C497.645 267.723 496.866 268.567 495.309 268.567ZM496.239 253.84C496.239 253.543 496.312 253.327 496.458 253.192C496.603 253.051 496.786 252.981 497.004 252.981C497.213 252.981 497.392 253.051 497.543 253.192C497.694 253.332 497.77 253.548 497.77 253.84C497.77 254.132 497.694 254.351 497.543 254.496C497.392 254.637 497.213 254.707 497.004 254.707C496.786 254.707 496.603 254.637 496.458 254.496C496.312 254.351 496.239 254.132 496.239 253.84ZM505.918 262.387C505.918 263.184 505.622 263.798 505.028 264.231C504.434 264.663 503.601 264.879 502.528 264.879C501.392 264.879 500.507 264.699 499.872 264.34V263.137C500.283 263.345 500.723 263.509 501.192 263.629C501.666 263.749 502.122 263.809 502.559 263.809C503.236 263.809 503.757 263.702 504.122 263.489C504.486 263.27 504.668 262.939 504.668 262.496C504.668 262.163 504.523 261.879 504.231 261.645C503.944 261.405 503.382 261.124 502.543 260.801C501.747 260.504 501.179 260.246 500.84 260.028C500.507 259.804 500.257 259.551 500.09 259.27C499.929 258.989 499.848 258.653 499.848 258.262C499.848 257.564 500.132 257.015 500.7 256.614C501.267 256.207 502.046 256.004 503.036 256.004C503.958 256.004 504.859 256.192 505.739 256.567L505.278 257.621C504.418 257.267 503.64 257.09 502.942 257.09C502.327 257.09 501.864 257.186 501.551 257.379C501.239 257.572 501.083 257.837 501.083 258.176C501.083 258.405 501.14 258.601 501.254 258.762C501.374 258.923 501.564 259.077 501.825 259.223C502.085 259.369 502.585 259.58 503.325 259.856C504.34 260.226 505.025 260.598 505.379 260.973C505.739 261.348 505.918 261.819 505.918 262.387Z" fill="#605D5A"/>
<path d="M145.125 184.357C145.125 186.341 144.805 187.815 144.165 188.779C143.529 189.742 142.555 190.224 141.243 190.224C139.972 190.224 139.008 189.726 138.352 188.732C137.696 187.737 137.368 186.279 137.368 184.357C137.368 182.341 137.685 180.857 138.321 179.904C138.961 178.945 139.935 178.466 141.243 178.466C142.519 178.466 143.485 178.966 144.141 179.966C144.797 180.966 145.125 182.43 145.125 184.357ZM139.227 184.357C139.227 185.914 139.386 187.026 139.704 187.693C140.027 188.359 140.54 188.693 141.243 188.693C141.946 188.693 142.459 188.354 142.782 187.677C143.11 187 143.274 185.893 143.274 184.357C143.274 182.825 143.11 181.719 142.782 181.036C142.459 180.349 141.946 180.005 141.243 180.005C140.54 180.005 140.027 180.341 139.704 181.013C139.386 181.685 139.227 182.799 139.227 184.357ZM146.86 189.091C146.86 188.711 146.959 188.419 147.157 188.216C147.355 188.013 147.641 187.911 148.016 187.911C148.396 187.911 148.685 188.018 148.883 188.232C149.081 188.44 149.18 188.726 149.18 189.091C149.18 189.461 149.079 189.755 148.875 189.974C148.678 190.187 148.391 190.294 148.016 190.294C147.641 190.294 147.355 190.187 147.157 189.974C146.959 189.76 146.86 189.466 146.86 189.091ZM152.227 190.068L156.743 180.279H150.805V178.661H158.704V179.943L154.211 190.068H152.227ZM163.93 178.497C165.014 178.497 165.87 178.747 166.5 179.247C167.131 179.742 167.446 180.406 167.446 181.239C167.446 182.411 166.743 183.344 165.336 184.036C166.232 184.484 166.868 184.956 167.243 185.45C167.623 185.945 167.813 186.497 167.813 187.107C167.813 188.049 167.467 188.805 166.774 189.372C166.081 189.94 165.144 190.224 163.961 190.224C162.722 190.224 161.761 189.958 161.079 189.427C160.396 188.896 160.055 188.143 160.055 187.169C160.055 186.534 160.232 185.963 160.586 185.458C160.946 184.948 161.532 184.495 162.344 184.099C161.646 183.682 161.149 183.242 160.852 182.779C160.555 182.315 160.407 181.794 160.407 181.216C160.407 180.388 160.732 179.729 161.383 179.239C162.034 178.745 162.883 178.497 163.93 178.497ZM161.813 187.107C161.813 187.648 162.003 188.07 162.383 188.372C162.764 188.669 163.279 188.818 163.93 188.818C164.602 188.818 165.123 188.664 165.493 188.357C165.868 188.044 166.055 187.622 166.055 187.091C166.055 186.669 165.883 186.284 165.54 185.935C165.196 185.586 164.675 185.263 163.977 184.966L163.75 184.864C163.063 185.167 162.568 185.5 162.266 185.864C161.964 186.224 161.813 186.638 161.813 187.107ZM163.915 179.911C163.394 179.911 162.974 180.042 162.657 180.302C162.339 180.557 162.18 180.906 162.18 181.349C162.18 181.62 162.237 181.862 162.352 182.075C162.467 182.289 162.633 182.484 162.852 182.661C163.071 182.833 163.441 183.042 163.961 183.286C164.586 183.01 165.027 182.721 165.282 182.419C165.542 182.112 165.672 181.755 165.672 181.349C165.672 180.906 165.511 180.557 165.188 180.302C164.87 180.042 164.446 179.911 163.915 179.911ZM174.954 190.068L171.641 180.529H171.579C171.667 181.945 171.711 183.273 171.711 184.513V190.068H170.016V178.646H172.649L175.821 187.732H175.868L179.133 178.646H181.774V190.068H179.977V184.419C179.977 183.851 179.99 183.112 180.016 182.2C180.047 181.289 180.073 180.737 180.094 180.544H180.032L176.602 190.068H174.954Z" fill="white"/>
<path d="M125.131 197.929C125.417 197.929 125.672 197.952 125.899 197.999L125.764 198.901C125.499 198.843 125.264 198.813 125.061 198.813C124.542 198.813 124.096 199.024 123.725 199.446C123.358 199.868 123.174 200.394 123.174 201.022V204.468H122.202V198.046H123.004L123.116 199.235H123.163C123.401 198.817 123.688 198.495 124.024 198.269C124.36 198.042 124.729 197.929 125.131 197.929ZM129.813 204.585C128.864 204.585 128.114 204.296 127.563 203.718C127.016 203.14 126.743 202.337 126.743 201.31C126.743 200.274 126.997 199.452 127.504 198.843C128.016 198.233 128.702 197.929 129.561 197.929C130.366 197.929 131.002 198.194 131.471 198.726C131.94 199.253 132.174 199.95 132.174 200.817V201.433H127.75C127.77 202.187 127.959 202.759 128.319 203.149C128.682 203.54 129.192 203.735 129.848 203.735C130.54 203.735 131.223 203.591 131.899 203.302V204.169C131.555 204.317 131.229 204.423 130.92 204.485C130.616 204.552 130.247 204.585 129.813 204.585ZM129.549 198.743C129.034 198.743 128.622 198.911 128.313 199.247C128.008 199.583 127.829 200.048 127.774 200.642H131.131C131.131 200.028 130.995 199.56 130.721 199.235C130.448 198.907 130.057 198.743 129.549 198.743ZM136.264 203.771C136.913 203.771 137.385 203.597 137.682 203.249C137.979 202.901 138.137 202.315 138.157 201.491V201.274C138.157 200.376 138.004 199.729 137.7 199.335C137.395 198.94 136.913 198.743 136.252 198.743C135.682 198.743 135.245 198.966 134.94 199.411C134.639 199.853 134.489 200.478 134.489 201.286C134.489 202.095 134.637 202.712 134.934 203.138C135.235 203.56 135.678 203.771 136.264 203.771ZM136.118 204.585C135.29 204.585 134.643 204.294 134.178 203.712C133.713 203.13 133.481 202.317 133.481 201.274C133.481 200.224 133.715 199.403 134.184 198.813C134.653 198.224 135.305 197.929 136.141 197.929C137.02 197.929 137.696 198.261 138.168 198.925H138.221L138.362 198.046H139.129V207.351H138.157V204.603C138.157 204.212 138.178 203.88 138.221 203.606H138.145C137.696 204.259 137.02 204.585 136.118 204.585ZM142.112 198.046V202.212C142.112 202.735 142.231 203.126 142.469 203.384C142.708 203.642 143.081 203.771 143.588 203.771C144.26 203.771 144.75 203.587 145.059 203.22C145.372 202.853 145.528 202.253 145.528 201.421V198.046H146.5V204.468H145.698L145.557 203.606H145.504C145.305 203.923 145.028 204.165 144.672 204.333C144.321 204.501 143.918 204.585 143.465 204.585C142.684 204.585 142.098 204.399 141.708 204.028C141.321 203.657 141.127 203.063 141.127 202.247V198.046H142.112ZM151.282 204.585C150.333 204.585 149.583 204.296 149.032 203.718C148.485 203.14 148.211 202.337 148.211 201.31C148.211 200.274 148.465 199.452 148.973 198.843C149.485 198.233 150.17 197.929 151.03 197.929C151.834 197.929 152.471 198.194 152.94 198.726C153.409 199.253 153.643 199.95 153.643 200.817V201.433H149.219C149.239 202.187 149.428 202.759 149.788 203.149C150.151 203.54 150.661 203.735 151.317 203.735C152.008 203.735 152.692 203.591 153.368 203.302V204.169C153.024 204.317 152.698 204.423 152.389 204.485C152.084 204.552 151.715 204.585 151.282 204.585ZM151.018 198.743C150.502 198.743 150.09 198.911 149.782 199.247C149.477 199.583 149.297 200.048 149.243 200.642H152.6C152.6 200.028 152.463 199.56 152.19 199.235C151.917 198.907 151.526 198.743 151.018 198.743ZM159.45 202.716C159.45 203.313 159.227 203.774 158.782 204.099C158.336 204.423 157.711 204.585 156.907 204.585C156.055 204.585 155.391 204.45 154.915 204.181V203.278C155.223 203.435 155.553 203.558 155.905 203.647C156.26 203.737 156.602 203.782 156.93 203.782C157.438 203.782 157.829 203.702 158.102 203.542C158.375 203.378 158.512 203.13 158.512 202.798C158.512 202.548 158.403 202.335 158.184 202.159C157.969 201.979 157.547 201.769 156.918 201.526C156.321 201.304 155.895 201.11 155.641 200.946C155.391 200.778 155.204 200.589 155.079 200.378C154.958 200.167 154.897 199.915 154.897 199.622C154.897 199.099 155.11 198.687 155.536 198.386C155.961 198.081 156.545 197.929 157.288 197.929C157.979 197.929 158.655 198.069 159.315 198.351L158.969 199.142C158.325 198.876 157.741 198.743 157.217 198.743C156.756 198.743 156.409 198.815 156.174 198.96C155.94 199.104 155.823 199.304 155.823 199.558C155.823 199.729 155.866 199.876 155.952 199.997C156.042 200.118 156.184 200.233 156.379 200.343C156.575 200.452 156.95 200.61 157.504 200.817C158.266 201.095 158.78 201.374 159.045 201.655C159.315 201.937 159.45 202.29 159.45 202.716ZM163.112 203.782C163.284 203.782 163.45 203.771 163.61 203.747C163.77 203.72 163.897 203.692 163.991 203.665V204.409C163.885 204.46 163.729 204.501 163.522 204.532C163.319 204.567 163.135 204.585 162.971 204.585C161.729 204.585 161.108 203.931 161.108 202.622V198.802H160.188V198.333L161.108 197.929L161.518 196.558H162.081V198.046H163.944V198.802H162.081V202.581C162.081 202.968 162.172 203.265 162.356 203.472C162.54 203.679 162.792 203.782 163.112 203.782ZM169.422 202.716C169.422 203.313 169.2 203.774 168.754 204.099C168.309 204.423 167.684 204.585 166.879 204.585C166.028 204.585 165.364 204.45 164.887 204.181V203.278C165.196 203.435 165.526 203.558 165.877 203.647C166.233 203.737 166.575 203.782 166.903 203.782C167.411 203.782 167.801 203.702 168.075 203.542C168.348 203.378 168.485 203.13 168.485 202.798C168.485 202.548 168.375 202.335 168.157 202.159C167.942 201.979 167.52 201.769 166.891 201.526C166.293 201.304 165.868 201.11 165.614 200.946C165.364 200.778 165.176 200.589 165.051 200.378C164.93 200.167 164.87 199.915 164.87 199.622C164.87 199.099 165.083 198.687 165.508 198.386C165.934 198.081 166.518 197.929 167.26 197.929C167.952 197.929 168.627 198.069 169.288 198.351L168.942 199.142C168.297 198.876 167.713 198.743 167.19 198.743C166.729 198.743 166.381 198.815 166.147 198.96C165.913 199.104 165.795 199.304 165.795 199.558C165.795 199.729 165.838 199.876 165.924 199.997C166.014 200.118 166.157 200.233 166.352 200.343C166.547 200.452 166.922 200.61 167.477 200.817C168.239 201.095 168.752 201.374 169.018 201.655C169.288 201.937 169.422 202.29 169.422 202.716ZM177.379 195.901L174.186 204.468H173.213L176.407 195.901H177.379ZM185.793 202.716C185.793 203.313 185.571 203.774 185.125 204.099C184.68 204.423 184.055 204.585 183.25 204.585C182.399 204.585 181.735 204.45 181.258 204.181V203.278C181.567 203.435 181.897 203.558 182.249 203.647C182.604 203.737 182.946 203.782 183.274 203.782C183.782 203.782 184.172 203.702 184.446 203.542C184.719 203.378 184.856 203.13 184.856 202.798C184.856 202.548 184.747 202.335 184.528 202.159C184.313 201.979 183.891 201.769 183.262 201.526C182.665 201.304 182.239 201.11 181.985 200.946C181.735 200.778 181.547 200.589 181.422 200.378C181.301 200.167 181.241 199.915 181.241 199.622C181.241 199.099 181.454 198.687 181.879 198.386C182.305 198.081 182.889 197.929 183.631 197.929C184.323 197.929 184.999 198.069 185.659 198.351L185.313 199.142C184.668 198.876 184.084 198.743 183.561 198.743C183.1 198.743 182.752 198.815 182.518 198.96C182.284 199.104 182.167 199.304 182.167 199.558C182.167 199.729 182.209 199.876 182.295 199.997C182.385 200.118 182.528 200.233 182.723 200.343C182.918 200.452 183.293 200.61 183.848 200.817C184.61 201.095 185.124 201.374 185.389 201.655C185.659 201.937 185.793 202.29 185.793 202.716ZM190.094 204.585C189.145 204.585 188.395 204.296 187.844 203.718C187.297 203.14 187.024 202.337 187.024 201.31C187.024 200.274 187.278 199.452 187.786 198.843C188.297 198.233 188.983 197.929 189.842 197.929C190.647 197.929 191.284 198.194 191.752 198.726C192.221 199.253 192.456 199.95 192.456 200.817V201.433H188.032C188.051 202.187 188.241 202.759 188.6 203.149C188.963 203.54 189.473 203.735 190.129 203.735C190.821 203.735 191.504 203.591 192.18 203.302V204.169C191.836 204.317 191.51 204.423 191.202 204.485C190.897 204.552 190.528 204.585 190.094 204.585ZM189.831 198.743C189.315 198.743 188.903 198.911 188.594 199.247C188.29 199.583 188.11 200.048 188.055 200.642H191.413C191.413 200.028 191.276 199.56 191.002 199.235C190.729 198.907 190.338 198.743 189.831 198.743ZM196.686 204.585C195.756 204.585 195.036 204.3 194.524 203.729C194.016 203.155 193.762 202.345 193.762 201.298C193.762 200.224 194.02 199.394 194.536 198.808C195.055 198.222 195.793 197.929 196.75 197.929C197.059 197.929 197.368 197.962 197.676 198.028C197.985 198.095 198.227 198.173 198.403 198.263L198.104 199.089C197.889 199.003 197.655 198.933 197.401 198.878C197.147 198.819 196.922 198.79 196.727 198.79C195.422 198.79 194.77 199.622 194.77 201.286C194.77 202.075 194.928 202.681 195.245 203.103C195.565 203.524 196.038 203.735 196.663 203.735C197.198 203.735 197.747 203.62 198.309 203.39V204.251C197.879 204.474 197.338 204.585 196.686 204.585Z" fill="white"/>
<path d="M467.133 184.357C467.133 186.341 466.813 187.815 466.172 188.779C465.537 189.742 464.563 190.224 463.25 190.224C461.98 190.224 461.016 189.726 460.36 188.732C459.704 187.737 459.375 186.279 459.375 184.357C459.375 182.341 459.693 180.857 460.329 179.904C460.969 178.945 461.943 178.466 463.25 178.466C464.527 178.466 465.493 178.966 466.149 179.966C466.805 180.966 467.133 182.43 467.133 184.357ZM461.235 184.357C461.235 185.914 461.394 187.026 461.711 187.693C462.034 188.359 462.547 188.693 463.25 188.693C463.954 188.693 464.467 188.354 464.79 187.677C465.118 187 465.282 185.893 465.282 184.357C465.282 182.825 465.118 181.719 464.79 181.036C464.467 180.349 463.954 180.005 463.25 180.005C462.547 180.005 462.034 180.341 461.711 181.013C461.394 181.685 461.235 182.799 461.235 184.357ZM468.868 189.091C468.868 188.711 468.967 188.419 469.165 188.216C469.362 188.013 469.649 187.911 470.024 187.911C470.404 187.911 470.693 188.018 470.891 188.232C471.089 188.44 471.188 188.726 471.188 189.091C471.188 189.461 471.086 189.755 470.883 189.974C470.685 190.187 470.399 190.294 470.024 190.294C469.649 190.294 469.362 190.187 469.165 189.974C468.967 189.76 468.868 189.466 468.868 189.091ZM476.797 178.497C477.881 178.497 478.737 178.747 479.368 179.247C479.998 179.742 480.313 180.406 480.313 181.239C480.313 182.411 479.61 183.344 478.204 184.036C479.099 184.484 479.735 184.956 480.11 185.45C480.49 185.945 480.68 186.497 480.68 187.107C480.68 188.049 480.334 188.805 479.641 189.372C478.948 189.94 478.011 190.224 476.829 190.224C475.589 190.224 474.628 189.958 473.946 189.427C473.264 188.896 472.922 188.143 472.922 187.169C472.922 186.534 473.099 185.963 473.454 185.458C473.813 184.948 474.399 184.495 475.211 184.099C474.514 183.682 474.016 183.242 473.719 182.779C473.422 182.315 473.274 181.794 473.274 181.216C473.274 180.388 473.599 179.729 474.25 179.239C474.902 178.745 475.75 178.497 476.797 178.497ZM474.68 187.107C474.68 187.648 474.87 188.07 475.25 188.372C475.631 188.669 476.146 188.818 476.797 188.818C477.469 188.818 477.99 188.664 478.36 188.357C478.735 188.044 478.922 187.622 478.922 187.091C478.922 186.669 478.75 186.284 478.407 185.935C478.063 185.586 477.542 185.263 476.844 184.966L476.618 184.864C475.93 185.167 475.435 185.5 475.133 185.864C474.831 186.224 474.68 186.638 474.68 187.107ZM476.782 179.911C476.261 179.911 475.842 180.042 475.524 180.302C475.206 180.557 475.047 180.906 475.047 181.349C475.047 181.62 475.105 181.862 475.219 182.075C475.334 182.289 475.5 182.484 475.719 182.661C475.938 182.833 476.308 183.042 476.829 183.286C477.454 183.01 477.894 182.721 478.149 182.419C478.409 182.112 478.54 181.755 478.54 181.349C478.54 180.906 478.378 180.557 478.055 180.302C477.737 180.042 477.313 179.911 476.782 179.911ZM485.938 178.497C487.021 178.497 487.878 178.747 488.508 179.247C489.139 179.742 489.454 180.406 489.454 181.239C489.454 182.411 488.75 183.344 487.344 184.036C488.24 184.484 488.875 184.956 489.25 185.45C489.631 185.945 489.821 186.497 489.821 187.107C489.821 188.049 489.474 188.805 488.782 189.372C488.089 189.94 487.152 190.224 485.969 190.224C484.73 190.224 483.769 189.958 483.086 189.427C482.404 188.896 482.063 188.143 482.063 187.169C482.063 186.534 482.24 185.963 482.594 185.458C482.954 184.948 483.54 184.495 484.352 184.099C483.654 183.682 483.157 183.242 482.86 182.779C482.563 182.315 482.415 181.794 482.415 181.216C482.415 180.388 482.74 179.729 483.391 179.239C484.042 178.745 484.891 178.497 485.938 178.497ZM483.821 187.107C483.821 187.648 484.011 188.07 484.391 188.372C484.771 188.669 485.287 188.818 485.938 188.818C486.61 188.818 487.131 188.664 487.5 188.357C487.875 188.044 488.063 187.622 488.063 187.091C488.063 186.669 487.891 186.284 487.547 185.935C487.204 185.586 486.683 185.263 485.985 184.966L485.758 184.864C485.071 185.167 484.576 185.5 484.274 185.864C483.972 186.224 483.821 186.638 483.821 187.107ZM485.922 179.911C485.402 179.911 484.982 180.042 484.665 180.302C484.347 180.557 484.188 180.906 484.188 181.349C484.188 181.62 484.245 181.862 484.36 182.075C484.474 182.289 484.641 182.484 484.86 182.661C485.079 182.833 485.448 183.042 485.969 183.286C486.594 183.01 487.034 182.721 487.29 182.419C487.55 182.112 487.68 181.755 487.68 181.349C487.68 180.906 487.519 180.557 487.196 180.302C486.878 180.042 486.454 179.911 485.922 179.911ZM496.961 190.068L493.649 180.529H493.586C493.675 181.945 493.719 183.273 493.719 184.513V190.068H492.024V178.646H494.657L497.829 187.732H497.875L501.141 178.646H503.782V190.068H501.985V184.419C501.985 183.851 501.998 183.112 502.024 182.2C502.055 181.289 502.081 180.737 502.102 180.544H502.04L498.61 190.068H496.961Z" fill="white"/>
<path d="M447.139 197.929C447.424 197.929 447.68 197.952 447.907 197.999L447.772 198.901C447.506 198.843 447.272 198.813 447.069 198.813C446.549 198.813 446.104 199.024 445.733 199.446C445.366 199.868 445.182 200.394 445.182 201.022V204.468H444.209V198.046H445.012L445.124 199.235H445.17C445.409 198.817 445.696 198.495 446.032 198.269C446.368 198.042 446.737 197.929 447.139 197.929ZM451.821 204.585C450.872 204.585 450.122 204.296 449.571 203.718C449.024 203.14 448.75 202.337 448.75 201.31C448.75 200.274 449.004 199.452 449.512 198.843C450.024 198.233 450.709 197.929 451.569 197.929C452.374 197.929 453.01 198.194 453.479 198.726C453.948 199.253 454.182 199.95 454.182 200.817V201.433H449.758C449.778 202.187 449.967 202.759 450.327 203.149C450.69 203.54 451.2 203.735 451.856 203.735C452.547 203.735 453.231 203.591 453.907 203.302V204.169C453.563 204.317 453.237 204.423 452.928 204.485C452.624 204.552 452.254 204.585 451.821 204.585ZM451.557 198.743C451.042 198.743 450.629 198.911 450.321 199.247C450.016 199.583 449.836 200.048 449.782 200.642H453.139C453.139 200.028 453.002 199.56 452.729 199.235C452.456 198.907 452.065 198.743 451.557 198.743ZM458.272 203.771C458.92 203.771 459.393 203.597 459.69 203.249C459.987 202.901 460.145 202.315 460.165 201.491V201.274C460.165 200.376 460.012 199.729 459.708 199.335C459.403 198.94 458.92 198.743 458.26 198.743C457.69 198.743 457.252 198.966 456.948 199.411C456.647 199.853 456.497 200.478 456.497 201.286C456.497 202.095 456.645 202.712 456.942 203.138C457.243 203.56 457.686 203.771 458.272 203.771ZM458.125 204.585C457.297 204.585 456.651 204.294 456.186 203.712C455.721 203.13 455.489 202.317 455.489 201.274C455.489 200.224 455.723 199.403 456.192 198.813C456.661 198.224 457.313 197.929 458.149 197.929C459.028 197.929 459.704 198.261 460.176 198.925H460.229L460.37 198.046H461.137V207.351H460.165V204.603C460.165 204.212 460.186 203.88 460.229 203.606H460.153C459.704 204.259 459.028 204.585 458.125 204.585ZM464.12 198.046V202.212C464.12 202.735 464.239 203.126 464.477 203.384C464.715 203.642 465.088 203.771 465.596 203.771C466.268 203.771 466.758 203.587 467.067 203.22C467.379 202.853 467.536 202.253 467.536 201.421V198.046H468.508V204.468H467.706L467.565 203.606H467.512C467.313 203.923 467.036 204.165 466.68 204.333C466.329 204.501 465.926 204.585 465.473 204.585C464.692 204.585 464.106 204.399 463.715 204.028C463.329 203.657 463.135 203.063 463.135 202.247V198.046H464.12ZM473.29 204.585C472.34 204.585 471.59 204.296 471.04 203.718C470.493 203.14 470.219 202.337 470.219 201.31C470.219 200.274 470.473 199.452 470.981 198.843C471.493 198.233 472.178 197.929 473.038 197.929C473.842 197.929 474.479 198.194 474.948 198.726C475.417 199.253 475.651 199.95 475.651 200.817V201.433H471.227C471.247 202.187 471.436 202.759 471.795 203.149C472.159 203.54 472.668 203.735 473.325 203.735C474.016 203.735 474.7 203.591 475.375 203.302V204.169C475.032 204.317 474.706 204.423 474.397 204.485C474.092 204.552 473.723 204.585 473.29 204.585ZM473.026 198.743C472.51 198.743 472.098 198.911 471.79 199.247C471.485 199.583 471.305 200.048 471.25 200.642H474.608C474.608 200.028 474.471 199.56 474.198 199.235C473.924 198.907 473.534 198.743 473.026 198.743ZM481.458 202.716C481.458 203.313 481.235 203.774 480.79 204.099C480.344 204.423 479.719 204.585 478.915 204.585C478.063 204.585 477.399 204.45 476.922 204.181V203.278C477.231 203.435 477.561 203.558 477.913 203.647C478.268 203.737 478.61 203.782 478.938 203.782C479.446 203.782 479.836 203.702 480.11 203.542C480.383 203.378 480.52 203.13 480.52 202.798C480.52 202.548 480.411 202.335 480.192 202.159C479.977 201.979 479.555 201.769 478.926 201.526C478.329 201.304 477.903 201.11 477.649 200.946C477.399 200.778 477.211 200.589 477.086 200.378C476.965 200.167 476.905 199.915 476.905 199.622C476.905 199.099 477.118 198.687 477.543 198.386C477.969 198.081 478.553 197.929 479.295 197.929C479.987 197.929 480.663 198.069 481.323 198.351L480.977 199.142C480.333 198.876 479.749 198.743 479.225 198.743C478.764 198.743 478.417 198.815 478.182 198.96C477.948 199.104 477.831 199.304 477.831 199.558C477.831 199.729 477.874 199.876 477.959 199.997C478.049 200.118 478.192 200.233 478.387 200.343C478.583 200.452 478.958 200.61 479.512 200.817C480.274 201.095 480.788 201.374 481.053 201.655C481.323 201.937 481.458 202.29 481.458 202.716ZM485.12 203.782C485.292 203.782 485.458 203.771 485.618 203.747C485.778 203.72 485.905 203.692 485.999 203.665V204.409C485.893 204.46 485.737 204.501 485.53 204.532C485.327 204.567 485.143 204.585 484.979 204.585C483.737 204.585 483.116 203.931 483.116 202.622V198.802H482.196V198.333L483.116 197.929L483.526 196.558H484.088V198.046H485.952V198.802H484.088V202.581C484.088 202.968 484.18 203.265 484.364 203.472C484.547 203.679 484.799 203.782 485.12 203.782ZM491.43 202.716C491.43 203.313 491.208 203.774 490.762 204.099C490.317 204.423 489.692 204.585 488.887 204.585C488.036 204.585 487.372 204.45 486.895 204.181V203.278C487.204 203.435 487.534 203.558 487.885 203.647C488.241 203.737 488.583 203.782 488.911 203.782C489.418 203.782 489.809 203.702 490.083 203.542C490.356 203.378 490.493 203.13 490.493 202.798C490.493 202.548 490.383 202.335 490.165 202.159C489.95 201.979 489.528 201.769 488.899 201.526C488.301 201.304 487.875 201.11 487.622 200.946C487.372 200.778 487.184 200.589 487.059 200.378C486.938 200.167 486.877 199.915 486.877 199.622C486.877 199.099 487.09 198.687 487.516 198.386C487.942 198.081 488.526 197.929 489.268 197.929C489.959 197.929 490.635 198.069 491.295 198.351L490.95 199.142C490.305 198.876 489.721 198.743 489.198 198.743C488.737 198.743 488.389 198.815 488.155 198.96C487.92 199.104 487.803 199.304 487.803 199.558C487.803 199.729 487.846 199.876 487.932 199.997C488.022 200.118 488.165 200.233 488.36 200.343C488.555 200.452 488.93 200.61 489.485 200.817C490.247 201.095 490.76 201.374 491.026 201.655C491.295 201.937 491.43 202.29 491.43 202.716ZM499.387 195.901L496.194 204.468H495.221L498.415 195.901H499.387ZM507.801 202.716C507.801 203.313 507.579 203.774 507.133 204.099C506.688 204.423 506.063 204.585 505.258 204.585C504.407 204.585 503.743 204.45 503.266 204.181V203.278C503.575 203.435 503.905 203.558 504.256 203.647C504.612 203.737 504.954 203.782 505.282 203.782C505.79 203.782 506.18 203.702 506.454 203.542C506.727 203.378 506.864 203.13 506.864 202.798C506.864 202.548 506.754 202.335 506.536 202.159C506.321 201.979 505.899 201.769 505.27 201.526C504.672 201.304 504.247 201.11 503.993 200.946C503.743 200.778 503.555 200.589 503.43 200.378C503.309 200.167 503.249 199.915 503.249 199.622C503.249 199.099 503.461 198.687 503.887 198.386C504.313 198.081 504.897 197.929 505.639 197.929C506.331 197.929 507.006 198.069 507.667 198.351L507.321 199.142C506.676 198.876 506.092 198.743 505.569 198.743C505.108 198.743 504.76 198.815 504.526 198.96C504.292 199.104 504.174 199.304 504.174 199.558C504.174 199.729 504.217 199.876 504.303 199.997C504.393 200.118 504.536 200.233 504.731 200.343C504.926 200.452 505.301 200.61 505.856 200.817C506.618 201.095 507.131 201.374 507.397 201.655C507.667 201.937 507.801 202.29 507.801 202.716ZM512.102 204.585C511.153 204.585 510.403 204.296 509.852 203.718C509.305 203.14 509.032 202.337 509.032 201.31C509.032 200.274 509.286 199.452 509.793 198.843C510.305 198.233 510.991 197.929 511.85 197.929C512.655 197.929 513.292 198.194 513.76 198.726C514.229 199.253 514.463 199.95 514.463 200.817V201.433H510.04C510.059 202.187 510.249 202.759 510.608 203.149C510.971 203.54 511.481 203.735 512.137 203.735C512.829 203.735 513.512 203.591 514.188 203.302V204.169C513.844 204.317 513.518 204.423 513.209 204.485C512.905 204.552 512.536 204.585 512.102 204.585ZM511.838 198.743C511.323 198.743 510.911 198.911 510.602 199.247C510.297 199.583 510.118 200.048 510.063 200.642H513.42C513.42 200.028 513.284 199.56 513.01 199.235C512.737 198.907 512.346 198.743 511.838 198.743ZM518.694 204.585C517.764 204.585 517.043 204.3 516.532 203.729C516.024 203.155 515.77 202.345 515.77 201.298C515.77 200.224 516.028 199.394 516.543 198.808C517.063 198.222 517.801 197.929 518.758 197.929C519.067 197.929 519.375 197.962 519.684 198.028C519.993 198.095 520.235 198.173 520.411 198.263L520.112 199.089C519.897 199.003 519.663 198.933 519.409 198.878C519.155 198.819 518.93 198.79 518.735 198.79C517.43 198.79 516.778 199.622 516.778 201.286C516.778 202.075 516.936 202.681 517.252 203.103C517.573 203.524 518.045 203.735 518.67 203.735C519.206 203.735 519.754 203.62 520.317 203.39V204.251C519.887 204.474 519.346 204.585 518.694 204.585Z" fill="white"/>
<path d="M286.915 194.092L293.688 179.408H284.782V176.983H296.63V178.904L289.892 194.092H286.915ZM299.185 192.627C299.185 192.057 299.333 191.619 299.63 191.315C299.927 191.01 300.356 190.858 300.919 190.858C301.489 190.858 301.923 191.018 302.22 191.338C302.517 191.651 302.665 192.08 302.665 192.627C302.665 193.182 302.513 193.623 302.208 193.951C301.911 194.272 301.481 194.432 300.919 194.432C300.356 194.432 299.927 194.272 299.63 193.951C299.333 193.631 299.185 193.19 299.185 192.627ZM316.259 180.897C316.259 181.983 315.942 182.889 315.31 183.615C314.677 184.334 313.786 184.819 312.638 185.069V185.162C314.013 185.334 315.044 185.764 315.731 186.451C316.419 187.131 316.763 188.037 316.763 189.17C316.763 190.819 316.181 192.092 315.017 192.99C313.853 193.881 312.196 194.326 310.048 194.326C308.149 194.326 306.548 194.018 305.243 193.401V190.951C305.97 191.311 306.739 191.588 307.552 191.783C308.364 191.979 309.146 192.076 309.896 192.076C311.224 192.076 312.216 191.83 312.872 191.338C313.528 190.846 313.856 190.084 313.856 189.053C313.856 188.139 313.493 187.467 312.767 187.037C312.04 186.608 310.899 186.393 309.345 186.393H307.856V184.154H309.368C312.103 184.154 313.47 183.209 313.47 181.319C313.47 180.584 313.231 180.018 312.755 179.619C312.278 179.221 311.575 179.022 310.646 179.022C309.997 179.022 309.372 179.115 308.771 179.303C308.169 179.483 307.458 179.838 306.638 180.369L305.29 178.447C306.86 177.291 308.685 176.713 310.763 176.713C312.489 176.713 313.837 177.084 314.806 177.826C315.774 178.569 316.259 179.592 316.259 180.897ZM329.97 180.897C329.97 181.983 329.653 182.889 329.021 183.615C328.388 184.334 327.497 184.819 326.349 185.069V185.162C327.724 185.334 328.755 185.764 329.442 186.451C330.13 187.131 330.474 188.037 330.474 189.17C330.474 190.819 329.892 192.092 328.728 192.99C327.563 193.881 325.907 194.326 323.759 194.326C321.86 194.326 320.259 194.018 318.954 193.401V190.951C319.681 191.311 320.45 191.588 321.263 191.783C322.075 191.979 322.856 192.076 323.606 192.076C324.935 192.076 325.927 191.83 326.583 191.338C327.239 190.846 327.567 190.084 327.567 189.053C327.567 188.139 327.204 187.467 326.478 187.037C325.751 186.608 324.61 186.393 323.056 186.393H321.567V184.154H323.079C325.813 184.154 327.181 183.209 327.181 181.319C327.181 180.584 326.942 180.018 326.466 179.619C325.989 179.221 325.286 179.022 324.356 179.022C323.708 179.022 323.083 179.115 322.481 179.303C321.88 179.483 321.169 179.838 320.349 180.369L319.001 178.447C320.571 177.291 322.396 176.713 324.474 176.713C326.2 176.713 327.548 177.084 328.517 177.826C329.485 178.569 329.97 179.592 329.97 180.897ZM341.325 194.092L336.356 179.783H336.263C336.396 181.908 336.462 183.901 336.462 185.76V194.092H333.919V176.959H337.868L342.626 190.588H342.696L347.595 176.959H351.556V194.092H348.86V185.619C348.86 184.768 348.88 183.658 348.919 182.291C348.966 180.924 349.005 180.096 349.036 179.807H348.942L343.798 194.092H341.325Z" fill="white"/>
<path d="M284.006 200.953C284.291 200.953 284.547 200.977 284.773 201.023L284.639 201.926C284.373 201.867 284.139 201.838 283.936 201.838C283.416 201.838 282.971 202.049 282.6 202.471C282.232 202.893 282.049 203.418 282.049 204.047V207.492H281.076V201.07H281.879L281.99 202.26H282.037C282.275 201.842 282.562 201.52 282.898 201.293C283.234 201.066 283.604 200.953 284.006 200.953ZM288.688 207.609C287.738 207.609 286.988 207.32 286.438 206.742C285.891 206.164 285.617 205.361 285.617 204.334C285.617 203.299 285.871 202.477 286.379 201.867C286.891 201.258 287.576 200.953 288.436 200.953C289.24 200.953 289.877 201.219 290.346 201.75C290.814 202.277 291.049 202.975 291.049 203.842V204.457H286.625C286.645 205.211 286.834 205.783 287.193 206.174C287.557 206.564 288.066 206.76 288.723 206.76C289.414 206.76 290.098 206.615 290.773 206.326V207.193C290.43 207.342 290.104 207.447 289.795 207.51C289.49 207.576 289.121 207.609 288.688 207.609ZM288.424 201.768C287.908 201.768 287.496 201.936 287.188 202.271C286.883 202.607 286.703 203.072 286.648 203.666H290.006C290.006 203.053 289.869 202.584 289.596 202.26C289.322 201.932 288.932 201.768 288.424 201.768ZM295.139 206.795C295.787 206.795 296.26 206.621 296.557 206.273C296.854 205.926 297.012 205.34 297.031 204.516V204.299C297.031 203.4 296.879 202.754 296.574 202.359C296.27 201.965 295.787 201.768 295.127 201.768C294.557 201.768 294.119 201.99 293.814 202.436C293.514 202.877 293.363 203.502 293.363 204.311C293.363 205.119 293.512 205.736 293.809 206.162C294.109 206.584 294.553 206.795 295.139 206.795ZM294.992 207.609C294.164 207.609 293.518 207.318 293.053 206.736C292.588 206.154 292.355 205.342 292.355 204.299C292.355 203.248 292.59 202.428 293.059 201.838C293.527 201.248 294.18 200.953 295.016 200.953C295.895 200.953 296.57 201.285 297.043 201.949H297.096L297.236 201.07H298.004V210.375H297.031V207.627C297.031 207.236 297.053 206.904 297.096 206.631H297.02C296.57 207.283 295.895 207.609 294.992 207.609ZM300.986 201.07V205.236C300.986 205.76 301.105 206.15 301.344 206.408C301.582 206.666 301.955 206.795 302.463 206.795C303.135 206.795 303.625 206.611 303.934 206.244C304.246 205.877 304.402 205.277 304.402 204.445V201.07H305.375V207.492H304.572L304.432 206.631H304.379C304.18 206.947 303.902 207.189 303.547 207.357C303.195 207.525 302.793 207.609 302.34 207.609C301.559 207.609 300.973 207.424 300.582 207.053C300.195 206.682 300.002 206.088 300.002 205.271V201.07H300.986ZM310.156 207.609C309.207 207.609 308.457 207.32 307.906 206.742C307.359 206.164 307.086 205.361 307.086 204.334C307.086 203.299 307.34 202.477 307.848 201.867C308.359 201.258 309.045 200.953 309.904 200.953C310.709 200.953 311.346 201.219 311.814 201.75C312.283 202.277 312.518 202.975 312.518 203.842V204.457H308.094C308.113 205.211 308.303 205.783 308.662 206.174C309.025 206.564 309.535 206.76 310.191 206.76C310.883 206.76 311.566 206.615 312.242 206.326V207.193C311.898 207.342 311.572 207.447 311.264 207.51C310.959 207.576 310.59 207.609 310.156 207.609ZM309.893 201.768C309.377 201.768 308.965 201.936 308.656 202.271C308.352 202.607 308.172 203.072 308.117 203.666H311.475C311.475 203.053 311.338 202.584 311.064 202.26C310.791 201.932 310.4 201.768 309.893 201.768ZM318.324 205.74C318.324 206.338 318.102 206.799 317.656 207.123C317.211 207.447 316.586 207.609 315.781 207.609C314.93 207.609 314.266 207.475 313.789 207.205V206.303C314.098 206.459 314.428 206.582 314.779 206.672C315.135 206.762 315.477 206.807 315.805 206.807C316.312 206.807 316.703 206.727 316.977 206.566C317.25 206.402 317.387 206.154 317.387 205.822C317.387 205.572 317.277 205.359 317.059 205.184C316.844 205.004 316.422 204.793 315.793 204.551C315.195 204.328 314.77 204.135 314.516 203.971C314.266 203.803 314.078 203.613 313.953 203.402C313.832 203.191 313.771 202.939 313.771 202.646C313.771 202.123 313.984 201.711 314.41 201.41C314.836 201.105 315.42 200.953 316.162 200.953C316.854 200.953 317.529 201.094 318.189 201.375L317.844 202.166C317.199 201.9 316.615 201.768 316.092 201.768C315.631 201.768 315.283 201.84 315.049 201.984C314.814 202.129 314.697 202.328 314.697 202.582C314.697 202.754 314.74 202.9 314.826 203.021C314.916 203.143 315.059 203.258 315.254 203.367C315.449 203.477 315.824 203.635 316.379 203.842C317.141 204.119 317.654 204.398 317.92 204.68C318.189 204.961 318.324 205.314 318.324 205.74ZM321.986 206.807C322.158 206.807 322.324 206.795 322.484 206.771C322.645 206.744 322.771 206.717 322.865 206.689V207.434C322.76 207.484 322.604 207.525 322.396 207.557C322.193 207.592 322.01 207.609 321.846 207.609C320.604 207.609 319.982 206.955 319.982 205.646V201.826H319.062V201.357L319.982 200.953L320.393 199.582H320.955V201.07H322.818V201.826H320.955V205.605C320.955 205.992 321.047 206.289 321.23 206.496C321.414 206.703 321.666 206.807 321.986 206.807ZM328.297 205.74C328.297 206.338 328.074 206.799 327.629 207.123C327.184 207.447 326.559 207.609 325.754 207.609C324.902 207.609 324.238 207.475 323.762 207.205V206.303C324.07 206.459 324.4 206.582 324.752 206.672C325.107 206.762 325.449 206.807 325.777 206.807C326.285 206.807 326.676 206.727 326.949 206.566C327.223 206.402 327.359 206.154 327.359 205.822C327.359 205.572 327.25 205.359 327.031 205.184C326.816 205.004 326.395 204.793 325.766 204.551C325.168 204.328 324.742 204.135 324.488 203.971C324.238 203.803 324.051 203.613 323.926 203.402C323.805 203.191 323.744 202.939 323.744 202.646C323.744 202.123 323.957 201.711 324.383 201.41C324.809 201.105 325.393 200.953 326.135 200.953C326.826 200.953 327.502 201.094 328.162 201.375L327.816 202.166C327.172 201.9 326.588 201.768 326.064 201.768C325.604 201.768 325.256 201.84 325.021 201.984C324.787 202.129 324.67 202.328 324.67 202.582C324.67 202.754 324.713 202.9 324.799 203.021C324.889 203.143 325.031 203.258 325.227 203.367C325.422 203.477 325.797 203.635 326.352 203.842C327.113 204.119 327.627 204.398 327.893 204.68C328.162 204.961 328.297 205.314 328.297 205.74ZM336.254 198.926L333.061 207.492H332.088L335.281 198.926H336.254ZM344.668 205.74C344.668 206.338 344.445 206.799 344 207.123C343.555 207.447 342.93 207.609 342.125 207.609C341.273 207.609 340.609 207.475 340.133 207.205V206.303C340.441 206.459 340.771 206.582 341.123 206.672C341.479 206.762 341.82 206.807 342.148 206.807C342.656 206.807 343.047 206.727 343.32 206.566C343.594 206.402 343.73 206.154 343.73 205.822C343.73 205.572 343.621 205.359 343.402 205.184C343.188 205.004 342.766 204.793 342.137 204.551C341.539 204.328 341.113 204.135 340.859 203.971C340.609 203.803 340.422 203.613 340.297 203.402C340.176 203.191 340.115 202.939 340.115 202.646C340.115 202.123 340.328 201.711 340.754 201.41C341.18 201.105 341.764 200.953 342.506 200.953C343.197 200.953 343.873 201.094 344.533 201.375L344.188 202.166C343.543 201.9 342.959 201.768 342.436 201.768C341.975 201.768 341.627 201.84 341.393 201.984C341.158 202.129 341.041 202.328 341.041 202.582C341.041 202.754 341.084 202.9 341.17 203.021C341.26 203.143 341.402 203.258 341.598 203.367C341.793 203.477 342.168 203.635 342.723 203.842C343.484 204.119 343.998 204.398 344.264 204.68C344.533 204.961 344.668 205.314 344.668 205.74ZM348.969 207.609C348.02 207.609 347.27 207.32 346.719 206.742C346.172 206.164 345.898 205.361 345.898 204.334C345.898 203.299 346.152 202.477 346.66 201.867C347.172 201.258 347.857 200.953 348.717 200.953C349.521 200.953 350.158 201.219 350.627 201.75C351.096 202.277 351.33 202.975 351.33 203.842V204.457H346.906C346.926 205.211 347.115 205.783 347.475 206.174C347.838 206.564 348.348 206.76 349.004 206.76C349.695 206.76 350.379 206.615 351.055 206.326V207.193C350.711 207.342 350.385 207.447 350.076 207.51C349.771 207.576 349.402 207.609 348.969 207.609ZM348.705 201.768C348.189 201.768 347.777 201.936 347.469 202.271C347.164 202.607 346.984 203.072 346.93 203.666H350.287C350.287 203.053 350.15 202.584 349.877 202.26C349.604 201.932 349.213 201.768 348.705 201.768ZM355.561 207.609C354.631 207.609 353.91 207.324 353.398 206.754C352.891 206.18 352.637 205.369 352.637 204.322C352.637 203.248 352.895 202.418 353.41 201.832C353.93 201.246 354.668 200.953 355.625 200.953C355.934 200.953 356.242 200.986 356.551 201.053C356.859 201.119 357.102 201.197 357.277 201.287L356.979 202.113C356.764 202.027 356.529 201.957 356.275 201.902C356.021 201.844 355.797 201.814 355.602 201.814C354.297 201.814 353.645 202.646 353.645 204.311C353.645 205.1 353.803 205.705 354.119 206.127C354.439 206.549 354.912 206.76 355.537 206.76C356.072 206.76 356.621 206.645 357.184 206.414V207.275C356.754 207.498 356.213 207.609 355.561 207.609Z" fill="white"/>
</svg>
