<svg width="636" height="300" viewBox="0 0 636 300" fill="none" xmlns="http://www.w3.org/2000/svg">
<path d="M433.11 132.26L361.92 132.56C359.37 132.57 357.31 130.38 357.31 127.67V75.67C357.31 72.96 359.38 70.82 361.92 70.89L433.11 73C435.45 73.07 437.35 75.23 437.35 77.82V127.54C437.35 130.14 435.45 132.25 433.11 132.26Z" fill="#0769DC"/>
<path d="M437.35 84.47V76.34C437.35 74.57 436.06 73.09 434.46 73.05L360.46 70.85C358.72 70.8 357.31 72.26 357.31 74.11V82.61L437.35 84.47Z" fill="#60A2F0"/>
<path d="M370.95 79.53L364.45 79.37V75.82L370.95 75.99V79.53Z" fill="#B5D5EA"/>
<path d="M381.45 79.8L375.02 79.63V76.1L381.45 76.28V79.8Z" fill="#B5D5EA"/>
<path d="M378.77 109.06L366.99 108.95V125.38H378.77V109.06Z" fill="#FFE5B9"/>
<path d="M395.49 103.02L383.93 102.88V125.37H395.49V103.02Z" fill="#F7B548"/>
<path d="M411.9 97.09L400.54 96.91V125.37H411.9V97.09Z" fill="#FFE5B9"/>
<path d="M428 91.27L416.86 91.06V125.37L428 125.36V91.27Z" fill="#F7B548"/>
<path d="M287.85 130.18V249.2C287.85 254.43 314.59 258.66 347.59 258.66C380.59 258.66 407.33 254.43 407.33 249.2V130.18H287.85Z" fill="#57CACF"/>
<path d="M347.49 120.79C314.56 120.79 287.87 125.02 287.87 130.25C287.87 135.48 314.56 139.71 347.49 139.71C380.42 139.71 407.11 135.48 407.11 130.25C407.11 125.02 380.42 120.79 347.49 120.79Z" fill="#9FE4EB"/>
<path d="M287.85 181.21C296.69 186.24 324.06 188.5 347.55 188.5C371.15 188.5 398.58 186.22 407.32 181.16V178.21C407.17 178.21 407.02 178.24 406.89 178.34C402.36 181.96 380.03 185.81 347.54 185.81C315.3 185.81 292.93 181.99 288.26 178.39C288.14 178.3 287.99 178.26 287.84 178.26V181.21H287.85Z" fill="#88DDE5"/>
<path d="M287.85 157.32C296.69 162.35 324.06 164.61 347.55 164.61C347.56 164.61 347.58 164.61 347.59 164.61C371.17 164.61 398.57 162.34 407.32 157.27V154.32C407.17 154.32 407.02 154.35 406.89 154.45C402.36 158.07 380.03 161.92 347.54 161.92C315.3 161.92 292.93 158.1 288.26 154.5C288.14 154.41 287.99 154.37 287.84 154.37V157.32H287.85Z" fill="#88DDE5"/>
<path d="M407.32 202.1C407.17 202.1 407.02 202.13 406.89 202.23C402.36 205.85 380.03 209.7 347.54 209.7C315.3 209.7 292.93 205.88 288.26 202.28C288.14 202.19 287.99 202.15 287.84 202.15V205.09C296.68 210.12 324.05 212.38 347.54 212.38C347.55 212.38 347.56 212.38 347.56 212.38C371.15 212.38 398.56 210.11 407.31 205.04V202.1H407.32Z" fill="#88DDE5"/>
<path d="M287.85 228.99C296.69 234.02 324.06 236.28 347.55 236.28C371.15 236.28 398.58 234.01 407.32 228.94V225.99C407.17 225.99 407.02 226.02 406.89 226.12C402.36 229.74 380.03 233.59 347.54 233.59C315.3 233.59 292.93 229.77 288.26 226.17C288.14 226.08 287.99 226.04 287.84 226.04V228.99H287.85Z" fill="#88DDE5"/>
<path d="M212.43 179.01L144.06 180.9V97.67L189.55 98.28L212.43 119.97V179.01Z" fill="#A3C9F6"/>
<path d="M189.54 98.28V119.95L212.43 120.01V119.97L189.55 98.28H189.54Z" fill="#4995EE"/>
<path d="M198.18 130.55L158.11 130.66C157.4 130.66 156.83 130.11 156.83 129.43C156.83 128.75 157.4 128.2 158.11 128.2L198.18 128.14C198.86 128.14 199.41 128.68 199.41 129.34C199.41 130 198.86 130.55 198.18 130.55Z" fill="#1189A5"/>
<path d="M188.31 140.26L158.1 140.49C157.39 140.5 156.82 139.95 156.82 139.27C156.82 138.59 157.39 138.04 158.1 138.03L188.31 137.83C188.99 137.83 189.55 138.36 189.55 139.03C189.55 139.7 189 140.26 188.31 140.26Z" fill="#1189A5"/>
<path d="M198.18 149.82L158.11 150.32C157.4 150.33 156.83 149.79 156.83 149.11C156.83 148.43 157.4 147.87 158.11 147.87L198.18 147.41C198.86 147.4 199.41 147.93 199.41 148.6C199.41 149.27 198.86 149.81 198.18 149.82Z" fill="#1189A5"/>
<path d="M188.31 159.62L158.1 160.15C157.39 160.16 156.82 159.62 156.82 158.94C156.82 158.26 157.39 157.7 158.1 157.69L188.31 157.2C188.99 157.19 189.55 157.72 189.55 158.39C189.55 159.06 189 159.61 188.31 159.62Z" fill="#1189A5"/>
<path d="M251.28 68.91C251.28 91.02 268.97 109.09 290.35 109.27C311.26 109.44 327.87 92.37 327.87 71.14C327.87 49.91 311.26 31.87 290.35 30.83C268.97 29.76 251.28 46.81 251.28 68.91Z" fill="#E86E58"/>
<path d="M290.35 30.83C311.26 31.87 327.87 49.91 327.87 71.14C327.87 92.37 311.26 109.45 290.35 109.27C268.97 109.09 251.28 91.02 251.28 68.91L290.35 70.04V30.83Z" fill="#F7B548"/>
<path d="M290.35 70.05L259.95 93.99C254.54 87.07 251.28 78.35 251.28 68.92L290.35 70.05Z" fill="#CC5444"/>
<path d="M275.96 32.98C280.43 31.36 285.29 30.57 290.35 30.82V70.04L275.96 32.98Z" fill="#E6E4E3"/>
<path d="M506.29 150.21L469.97 160.59L470.08 204.58C469.15 203.66 467.83 204.16 466.46 204.22C465.12 204.28 464.02 202.78 463.09 203.74L463 160.73L424.76 151.43L424.81 204.38L461.51 210.07C462.71 212.18 464.18 212.85 466.46 212.73C468.72 212.61 470.26 211.7 471.38 209.6L506.25 200.84L506.29 150.21Z" fill="#1572E0"/>
<path d="M500.91 145.81C500.91 145.81 474.66 151.53 471.21 152.82C467.75 154.12 466.33 156.79 466.42 161.83C466.52 166.87 466.42 204.62 466.42 204.62L501.47 195.3L500.91 145.81Z" fill="#CAE0FA"/>
<path d="M430.92 146.67C430.92 146.67 458.25 151.78 461.75 152.97C465.24 154.16 466.66 156.78 466.56 161.82C466.46 166.86 466.43 204.62 466.43 204.62L430.03 198.39L430.92 146.67Z" fill="#A3C9F6"/>
<path d="M459.84 162.32C459.8 162.32 459.75 162.32 459.71 162.31L437.63 157.98C437.25 157.91 437.01 157.51 437.08 157.09C437.15 156.67 437.53 156.4 437.89 156.47L459.96 160.82C460.33 160.89 460.56 161.28 460.49 161.69C460.44 162.06 460.16 162.32 459.84 162.32Z" fill="#B3AFAB"/>
<path d="M459.84 169.46C459.8 169.46 459.75 169.46 459.71 169.45L437.63 165.21C437.26 165.14 437.01 164.74 437.08 164.32C437.15 163.9 437.53 163.62 437.89 163.7L459.97 167.96C460.33 168.03 460.57 168.42 460.5 168.83C460.44 169.19 460.16 169.45 459.84 169.46Z" fill="#B3AFAB"/>
<path d="M459.84 176.59C459.8 176.59 459.75 176.59 459.71 176.58L437.63 172.43C437.26 172.36 437.01 171.96 437.08 171.55C437.15 171.13 437.53 170.85 437.89 170.92L459.97 175.09C460.33 175.16 460.57 175.55 460.5 175.96C460.44 176.32 460.16 176.58 459.84 176.59Z" fill="#B3AFAB"/>
<path d="M459.84 183.73C459.8 183.73 459.75 183.73 459.71 183.72L437.63 179.66C437.25 179.59 437.01 179.2 437.08 178.78C437.15 178.36 437.53 178.08 437.89 178.15L459.96 182.23C460.33 182.3 460.56 182.69 460.49 183.1C460.44 183.45 460.16 183.71 459.84 183.73Z" fill="#B3AFAB"/>
<path d="M472.99 162.04C473.03 162.04 473.08 162.03 473.12 162.02L494.32 156.91C494.67 156.83 494.9 156.43 494.83 156.03C494.76 155.63 494.41 155.37 494.07 155.46L472.86 160.55C472.5 160.64 472.27 161.04 472.33 161.44C472.4 161.8 472.67 162.05 472.99 162.04Z" fill="#B3AFAB"/>
<path d="M472.99 169.12C473.03 169.12 473.08 169.11 473.12 169.1L494.32 163.9C494.67 163.81 494.9 163.42 494.83 163.02C494.76 162.62 494.41 162.37 494.07 162.45L472.86 167.63C472.5 167.72 472.27 168.12 472.34 168.52C472.4 168.88 472.67 169.13 472.99 169.12Z" fill="#B3AFAB"/>
<path d="M472.99 176.2C473.03 176.2 473.08 176.19 473.12 176.18L494.32 170.89C494.67 170.8 494.9 170.41 494.83 170.01C494.76 169.61 494.41 169.35 494.07 169.44L472.86 174.71C472.5 174.8 472.27 175.2 472.34 175.6C472.4 175.97 472.67 176.21 472.99 176.2Z" fill="#B3AFAB"/>
<path d="M472.99 183.28C473.03 183.28 473.08 183.27 473.12 183.26L494.32 177.89C494.67 177.8 494.9 177.41 494.83 177.01C494.76 176.61 494.41 176.36 494.07 176.45L472.86 181.81C472.5 181.9 472.27 182.3 472.33 182.71C472.4 183.05 472.67 183.29 472.99 183.28Z" fill="#B3AFAB"/>
<path d="M463.93 205.7C464.73 205.12 465.66 204.75 466.66 204.7C467.59 204.66 468.45 204.9 469.2 205.34L502.33 196.65L502.63 151.03L500.81 145.81L500.63 193.32C500.63 193.32 473.49 200.71 471.01 201.46C468.52 202.22 466.49 204.57 466.49 204.57C466.49 204.57 465.51 202.73 462.37 201.97C459.21 201.2 430.94 197.05 430.94 197.05L431.02 146.79L428.98 152.56L429.1 200.58L463.93 205.7Z" fill="#4995EE"/>
<path d="M291.85 218.09L205.73 222.35C202.64 222.5 200.12 220.15 200.12 217.1V158.63C200.12 155.58 202.64 153.07 205.73 153.02L291.85 151.79C294.67 151.75 296.95 154.07 296.95 156.97V212.57C296.95 215.48 294.67 217.95 291.85 218.09Z" fill="#C5D43B"/>
<path d="M296.95 164.41V155.32C296.95 153.34 295.39 151.75 293.47 151.78L203.95 153.06C201.83 153.09 200.12 154.8 200.12 156.89V166.45L296.95 164.41Z" fill="#84817D"/>
<path d="M216.71 162.28L208.81 162.43V158.44L216.71 158.3V162.28Z" fill="#CCCAC7"/>
<path d="M229.44 162.03L221.64 162.18V158.22L229.44 158.09V162.03Z" fill="#CCCAC7"/>
<path d="M239.32 202.75L216.74 193.72V191.41L239.32 179.5V182.97L220.98 192.24L239.32 199.24V202.75Z" fill="white"/>
<path d="M258.57 173.86L246.08 208.08L242.24 208.25L254.78 173.96L258.57 173.86Z" fill="white"/>
<path d="M261.41 198.38L279.02 190.27L261.41 182.3V178.87L282.98 189.16V191.39L261.41 201.86V198.38Z" fill="white"/>
</svg>
