<svg width="636" height="300" viewBox="0 0 636 300" fill="none" xmlns="http://www.w3.org/2000/svg">
<path d="M110.28 113.58H184.17C184.64 113.58 185.11 113.67 185.54 113.85C185.98 114.03 186.37 114.29 186.7 114.63C187.03 114.96 187.3 115.36 187.48 115.79C187.66 116.22 187.75 116.69 187.75 117.16V191.05C187.75 192 187.37 192.91 186.7 193.59C186.03 194.26 185.12 194.64 184.16 194.64H110.27C109.32 194.64 108.41 194.26 107.73 193.59C107.06 192.92 106.68 192.01 106.68 191.05V117.16C106.68 116.69 106.77 116.22 106.95 115.79C107.13 115.35 107.39 114.96 107.73 114.63C108.06 114.3 108.46 114.03 108.89 113.85C109.34 113.67 109.81 113.58 110.28 113.58Z" fill="#222222"/>
<path d="M147.08 160.66C150.84 160.66 153.89 157.61 153.89 153.85C153.89 150.09 150.84 147.04 147.08 147.04C143.32 147.04 140.27 150.09 140.27 153.85C140.27 157.61 143.32 160.66 147.08 160.66Z" fill="#00D8FF"/>
<path d="M147.08 169.45C142.73 169.47 138.39 169.2 134.08 168.66C130.28 168.2 126.54 167.37 122.9 166.18C119.28 165.03 115.91 163.23 112.95 160.85C110.34 158.62 108.97 156.2 108.97 153.85C108.97 151.57 110.28 149.24 112.75 147.12C115.56 144.87 118.76 143.16 122.19 142.05C125.9 140.8 129.73 139.89 133.61 139.35C138.07 138.7 142.57 138.37 147.08 138.38C156.17 138.38 164.89 139.66 171.64 141.98C175.12 143.09 178.38 144.81 181.27 147.06C183.83 149.2 185.19 151.55 185.19 153.84C185.19 156.23 183.76 158.67 181.05 160.9C177.97 163.27 174.49 165.06 170.77 166.2C167.19 167.34 163.52 168.15 159.79 168.62C155.57 169.19 151.33 169.46 147.08 169.45ZM147.08 141.64C142.73 141.63 138.39 141.94 134.09 142.57C130.41 143.08 126.78 143.94 123.26 145.13C120.22 146.1 117.37 147.62 114.87 149.6C113.16 151.06 112.22 152.57 112.22 153.86C112.22 155.21 113.23 156.82 115.07 158.39C117.72 160.5 120.73 162.1 123.96 163.11C127.39 164.23 130.92 165.01 134.51 165.44C138.68 165.97 142.88 166.22 147.08 166.21C155.71 166.21 163.76 165.12 169.74 163.13C173.08 162.12 176.2 160.52 178.98 158.41C180.89 156.84 181.93 155.23 181.93 153.86C181.93 152.58 180.95 151.06 179.18 149.58C176.6 147.58 173.68 146.06 170.57 145.08C162.98 142.68 155.05 141.52 147.08 141.64Z" fill="#00D8FF"/>
<path d="M131.62 187.79C130.35 187.82 129.1 187.51 127.98 186.9C126 185.76 124.64 183.46 124.04 180.26C123.5 176.7 123.61 173.07 124.36 169.55C125.13 165.7 126.26 161.94 127.73 158.3C129.39 154.11 131.36 150.05 133.62 146.15C138.16 138.28 143.62 131.36 149.01 126.68C151.71 124.22 154.83 122.25 158.22 120.87C161.36 119.72 164.06 119.72 166.05 120.86C168.12 122.05 169.52 124.51 170.1 127.97C170.61 131.82 170.43 135.74 169.56 139.53C168.76 143.2 167.63 146.79 166.18 150.25C164.56 154.18 162.67 157.99 160.54 161.67C158.38 165.44 155.99 169.07 153.36 172.53C151.07 175.59 148.48 178.42 145.63 180.98C142.83 183.54 139.58 185.56 136.04 186.94C134.63 187.48 133.13 187.76 131.62 187.79ZM162.58 123.26C161.47 123.29 160.38 123.52 159.35 123.93C156.33 125.17 153.56 126.93 151.15 129.14C145.28 134.53 140.32 140.83 136.44 147.79C134.26 151.55 132.36 155.47 130.76 159.5C129.37 162.95 128.3 166.52 127.56 170.16C126.88 173.28 126.77 176.5 127.24 179.66C127.65 181.87 128.49 183.43 129.6 184.08C130.77 184.75 132.67 184.68 134.95 183.88C138.1 182.64 140.99 180.83 143.48 178.54C146.16 176.13 148.6 173.46 150.77 170.57C153.31 167.22 155.63 163.71 157.71 160.06C162.02 152.59 165.1 145.06 166.37 138.89C167.16 135.49 167.34 131.98 166.89 128.53C166.48 126.1 165.61 124.38 164.43 123.7C163.87 123.39 163.23 123.24 162.58 123.26Z" fill="#00D8FF"/>
<path d="M162.55 187.82C161.13 187.79 159.73 187.53 158.4 187.03C155.04 185.72 151.95 183.81 149.28 181.4C146.34 178.81 143.64 175.96 141.22 172.87C138.42 169.34 135.89 165.6 133.64 161.7C129.09 153.84 125.83 145.65 124.46 138.64C123.67 135.07 123.53 131.38 124.03 127.76C124.6 124.47 125.95 122.12 127.94 120.97C130.01 119.77 132.84 119.79 136.12 121.02C139.71 122.5 143.01 124.62 145.86 127.26C148.64 129.78 151.19 132.56 153.46 135.55C156.05 138.92 158.41 142.46 160.53 146.14C162.72 149.89 164.67 153.78 166.36 157.78C167.87 161.3 169.03 164.95 169.82 168.69C170.64 172.4 170.77 176.22 170.19 179.98C169.56 183.35 168.16 185.76 166.12 186.94C165.03 187.54 163.8 187.84 162.55 187.82ZM136.45 160.06C138.62 163.83 141.06 167.43 143.76 170.83C146.05 173.76 148.61 176.47 151.4 178.92C153.77 181.07 156.5 182.77 159.47 183.95C161.59 184.69 163.37 184.75 164.48 184.11C165.65 183.43 166.54 181.75 166.98 179.38C167.48 176.03 167.35 172.62 166.61 169.32C165.86 165.79 164.77 162.34 163.34 159.03C161.71 155.16 159.82 151.39 157.7 147.76C153.38 140.29 148.4 133.87 143.68 129.68C141.13 127.3 138.18 125.39 134.97 124.05C132.66 123.19 130.74 123.09 129.55 123.77C128.44 124.41 127.61 126.02 127.22 128.3C126.79 131.53 126.93 134.82 127.64 138C129.39 145.78 132.36 153.23 136.45 160.06Z" fill="#00D8FF"/>
<path d="M503.29 224.7C415.15 254.93 259.23 272.4 207.32 245.36C141.33 210.99 205 170.14 267.07 183.13C320.02 194.21 382.15 194.33 421.89 187.55C507.78 172.89 569.15 202.11 503.29 224.7Z" fill="url(#paint0_radial)"/>
<path d="M473.31 218.67L256.59 229.93C253.13 230.11 250.31 227.43 250.31 223.94V59.5C250.31 56.01 253.13 53.44 256.59 53.75L473.31 73.38C475.65 73.59 477.54 76.07 477.54 78.92V213.28C477.54 216.14 475.65 218.55 473.31 218.67Z" fill="#BDD8F9"/>
<path d="M477.54 91.17V78.13C477.54 75.72 475.94 73.62 473.96 73.44L255.62 53.67C252.69 53.4 250.3 55.58 250.3 58.53V74.48L477.54 91.17Z" fill="#0064DA"/>
<path d="M444.83 82.98L310.73 72.39V65.38L444.83 76.76V82.98Z" fill="#4995EE"/>
<path d="M271.35 65.82C271.35 68.04 269.58 69.69 267.39 69.52C265.19 69.35 263.41 67.4 263.41 65.17C263.41 62.94 265.2 61.28 267.39 61.47C269.58 61.65 271.35 63.6 271.35 65.82Z" fill="#76AFF2"/>
<path d="M286.16 67.03C286.16 69.22 284.43 70.86 282.3 70.69C280.16 70.52 278.41 68.6 278.41 66.39C278.41 64.18 280.15 62.55 282.3 62.73C284.43 62.92 286.16 64.84 286.16 67.03Z" fill="#76AFF2"/>
<path d="M300.62 68.21C300.62 70.37 298.93 72 296.85 71.83C294.76 71.67 293.06 69.77 293.06 67.59C293.06 65.41 294.76 63.79 296.85 63.97C298.94 64.15 300.62 66.05 300.62 68.21Z" fill="#76AFF2"/>
<path d="M400.32 121.46L265.94 116.01V102.53L400.32 109.45V121.46Z" fill="#4995EE"/>
<path d="M467.22 124.17L419.66 122.24V110.44L467.22 112.89V124.17Z" fill="white"/>
<path d="M467.22 124.17L455.5 123.69V112.29L467.22 112.89V124.17Z" fill="#F7B548"/>
<path d="M288.45 86.4L265.2 84.87V91.62L288.45 93.02V86.4Z" fill="#76AFF2"/>
<path d="M320.17 88.49L298.13 87.04V93.61L320.17 94.94V88.49Z" fill="#76AFF2"/>
<path d="M350.25 90.47L329.34 89.1V95.49L350.25 96.75V90.47Z" fill="#76AFF2"/>
<path d="M378.83 92.35L358.96 91.05V97.28L378.83 98.48V92.35Z" fill="#76AFF2"/>
<path d="M325.04 182.42L269.26 183.22V148.28L325.04 149.07V182.42Z" fill="white"/>
<path d="M400.32 140.37L269.63 137.33V131.31L400.32 134.99V140.37Z" fill="white"/>
<path d="M400.32 151.94L335.71 151.12V147.32L400.32 148.35V151.94Z" fill="#76AFF2"/>
<path d="M400.32 162.69L335.71 162.52V158.72L400.32 159.11V162.69Z" fill="#76AFF2"/>
<path d="M400.32 173.45L335.71 173.91V170.11L400.32 169.86V173.45Z" fill="#76AFF2"/>
<path d="M400.32 184.21L335.71 185.3V181.5L400.32 180.62V184.21Z" fill="#76AFF2"/>
<path d="M356.39 196.14L270.36 198.45V194.44L356.39 192.41V196.14Z" fill="#76AFF2"/>
<path d="M356.39 207.33L270.36 210.49V206.47L356.39 203.6V207.33Z" fill="#76AFF2"/>
<path d="M369.86 206.63L396.14 205.67C398.47 205.58 400.32 203.67 400.32 201.33V195.61C400.32 193.17 398.31 191.21 395.88 191.27L369.6 191.88C367.24 191.93 365.36 193.86 365.36 196.22V202.29C365.36 204.75 367.41 206.72 369.86 206.63Z" fill="#0064DA"/>
<path d="M467.22 149.22L414.65 148.37V135.04L467.22 136.54V149.22Z" fill="#76AFF2"/>
<path d="M426.51 169.07L415.51 169.11V156.28L426.51 156.38V169.07Z" fill="#4995EE"/>
<path d="M426.51 186.57L415.51 186.79V173.96L426.51 173.88V186.57Z" fill="#4995EE"/>
<path d="M426.51 204.07L415.51 204.47V191.64L426.51 191.37V204.07Z" fill="#4995EE"/>
<path d="M466.06 164.52L434 164.48V161.01L466.06 161.15V164.52Z" fill="#F2F7FE"/>
<path d="M466.06 181.37L434 181.86V178.38L466.06 178V181.37Z" fill="#F2F7FE"/>
<path d="M466.06 198.22L434 199.24V195.76L466.06 194.85V198.22Z" fill="#F2F7FE"/>
<path d="M223 71.55L177.13 86.52L184.13 142.04L223 161.75L261.88 142.04L268.88 86.52L223 71.55Z" fill="#DD0031"/>
<path d="M223.01 71.55V161.75L261.89 142.04L268.89 86.52L223.01 71.55Z" fill="#C3002F"/>
<path d="M223 81.52L194.32 140.38H205.01L210.78 127.21H235.12L240.89 140.38H251.58L223 81.52ZM231.38 119.08H214.63L223.01 100.63L231.38 119.08Z" fill="white"/>
<path d="M273.04 183.16L296.35 182.83L284.41 161.29L273.04 183.16Z" fill="#F7B548"/>
<path d="M311.07 161.29L300.72 182.77L322.15 182.46L311.07 161.29Z" fill="#F7B548"/>
<path d="M297.43 156.64L286.23 182.97L308.93 182.65L297.43 156.64Z" fill="#4995EE"/>
<defs>
<radialGradient id="paint0_radial" cx="0" cy="0" r="1" gradientUnits="userSpaceOnUse" gradientTransform="translate(361.156 362.908) scale(333.74)">
<stop offset="0.2241" stop-color="#F2F7FE"/>
<stop offset="0.9705" stop-color="#BDD8F9"/>
</radialGradient>
</defs>
</svg>
