<svg width="636" height="300" viewBox="0 0 636 300" fill="none" xmlns="http://www.w3.org/2000/svg">
<path d="M365.08 40.47H390.18C407.92 40.47 422.3 54.85 422.3 72.59V90.1C422.3 107.66 402.2 121.92 384.71 122.21L372 140.61L370.58 122.22H365.08C347.34 122.22 332.96 107.84 332.96 90.1V72.59C332.96 54.85 347.34 40.47 365.08 40.47Z" fill="#70D6E0"/>
<path d="M349.95 105.87C347.18 105.86 345.12 103.36 345.59 100.63C348.48 83.51 361.61 72.86 378.38 72.86C394.79 72.86 408.44 84.6 411.21 100.05C411.75 103.07 409.46 105.86 406.39 105.87C395.45 105.89 369.87 105.94 349.95 105.87Z" fill="#25BACA"/>
<path d="M371.07 87.1301C368.78 87.1301 366.91 88.9901 366.91 91.2901V93.7601C366.91 96.0501 368.77 97.9201 371.07 97.9201H386.6C388.89 97.9201 390.76 96.0601 390.76 93.7601V91.2901C390.76 89.0001 388.9 87.1301 386.6 87.1301H371.07Z" fill="#70D6E0"/>
<path d="M399.74 82.38C399.75 82.19 399.75 82.01 399.75 81.82C399.75 70.14 390.18 60.67 378.37 60.67C366.56 60.67 356.99 70.14 356.99 81.82C356.99 82.01 357 82.19 357 82.38H399.74Z" fill="#1BA1B5"/>
<path d="M371.5 77.99C373.869 77.99 375.79 76.0693 375.79 73.7C375.79 71.3307 373.869 69.41 371.5 69.41C369.131 69.41 367.21 71.3307 367.21 73.7C367.21 76.0693 369.131 77.99 371.5 77.99Z" fill="white"/>
<path d="M372.65 76.8001C374.335 76.8001 375.7 75.4345 375.7 73.7501C375.7 72.0656 374.335 70.7001 372.65 70.7001C370.966 70.7001 369.6 72.0656 369.6 73.7501C369.6 75.4345 370.966 76.8001 372.65 76.8001Z" fill="#70D6E0"/>
<path d="M386.01 77.99C388.379 77.99 390.3 76.0693 390.3 73.7C390.3 71.3307 388.379 69.41 386.01 69.41C383.641 69.41 381.72 71.3307 381.72 73.7C381.72 76.0693 383.641 77.99 386.01 77.99Z" fill="white"/>
<path d="M387.45 76.8001C389.134 76.8001 390.5 75.4345 390.5 73.7501C390.5 72.0656 389.134 70.7001 387.45 70.7001C385.765 70.7001 384.4 72.0656 384.4 73.7501C384.4 75.4345 385.765 76.8001 387.45 76.8001Z" fill="#70D6E0"/>
<path d="M412.87 66.67C424.81 66.67 434.49 56.9904 434.49 45.05C434.49 33.1096 424.81 23.43 412.87 23.43C400.93 23.43 391.25 33.1096 391.25 45.05C391.25 56.9904 400.93 66.67 412.87 66.67Z" fill="#1BA1B5"/>
<path d="M405.21 52.53H402.86V38.05H411.03V40.05H405.2V44.58H410.66V46.59H405.2V52.53H405.21Z" fill="white"/>
<path d="M421.54 43.91L421 46.73H423.67V48.39H420.67L419.88 52.53H418.12L418.91 48.39H416.45L415.66 52.53H413.94L414.69 48.39H412.21V46.73H415.01L415.57 43.92H412.95V42.26H415.85L416.64 38.08H418.42L417.63 42.26H420.13L420.92 38.08H422.64L421.85 42.26H424.35V43.92H421.54V43.91ZM416.76 46.73H419.24L419.8 43.92H417.32L416.76 46.73Z" fill="white"/>
<path d="M300.9 28.15L180.87 20.76C178.47 20.71 176.52 22.69 176.61 25.09L179.59 108.48C179.67 110.73 181.52 112.51 183.77 112.51L256.79 113.11L282.15 142.85L282.11 113.11L300.23 113.03C302.53 113.03 304.39 111.18 304.41 108.88L305.01 32.37C305.01 30.07 303.19 28.2 300.9 28.15Z" fill="#98C2F5"/>
<path d="M234.855 103.198L244.065 103.198L244.065 78.5282L234.855 78.5282L234.855 103.198Z" fill="#0064DA"/>
<path d="M201.88 106.63L202.58 98.71C202.76 96.68 204.46 95.12 206.5 95.12H273.27C275.19 95.12 276.8 96.59 276.97 98.51L277.69 106.63H201.88Z" fill="#3E8EED"/>
<path d="M203.21 77.29L204.77 59.63C205.41 52.31 211.55 46.69 218.89 46.69H260.67C268.02 46.69 274.15 52.3 274.79 59.63L276.35 77.29C276.52 79.23 274.99 80.9 273.05 80.9H249.09C248.04 85.44 243.99 88.83 239.13 88.83C234.27 88.83 230.21 85.44 229.17 80.9H206.52C204.57 80.89 203.04 79.23 203.21 77.29Z" fill="#3E8EED"/>
<path d="M219.07 61.16H259.85C263.12 61.16 265.77 63.81 265.77 67.08C265.77 70.35 263.12 73 259.85 73H219.07C215.8 73 213.15 70.35 213.15 67.08C213.15 63.81 215.8 61.16 219.07 61.16Z" fill="#0064DA"/>
<path d="M257.14 71.13C259.62 71.13 261.63 69.1198 261.63 66.64C261.63 64.1603 259.62 62.15 257.14 62.15C254.66 62.15 252.65 64.1603 252.65 66.64C252.65 69.1198 254.66 71.13 257.14 71.13Z" fill="white"/>
<path d="M242.67 71.13C245.15 71.13 247.16 69.1198 247.16 66.64C247.16 64.1603 245.15 62.15 242.67 62.15C240.19 62.15 238.18 64.1603 238.18 66.64C238.18 69.1198 240.19 71.13 242.67 71.13Z" fill="white"/>
<path d="M268.26 103.01C269.442 103.01 270.4 102.052 270.4 100.87C270.4 99.6881 269.442 98.73 268.26 98.73C267.078 98.73 266.12 99.6881 266.12 100.87C266.12 102.052 267.078 103.01 268.26 103.01Z" fill="#C7E0F4"/>
<path d="M260.36 103.01C261.542 103.01 262.5 102.052 262.5 100.87C262.5 99.6881 261.542 98.73 260.36 98.73C259.178 98.73 258.22 99.6881 258.22 100.87C258.22 102.052 259.178 103.01 260.36 103.01Z" fill="#C7E0F4"/>
<path d="M252.47 103.01C253.652 103.01 254.61 102.052 254.61 100.87C254.61 99.6881 253.652 98.73 252.47 98.73C251.288 98.73 250.33 99.6881 250.33 100.87C250.33 102.052 251.288 103.01 252.47 103.01Z" fill="#C7E0F4"/>
<path d="M181.36 56.44C195.388 56.44 206.76 45.068 206.76 31.04C206.76 17.012 195.388 5.64001 181.36 5.64001C167.332 5.64001 155.96 17.012 155.96 31.04C155.96 45.068 167.332 56.44 181.36 56.44Z" fill="#3E8EED"/>
<path d="M174.32 24.71C172.72 24.71 171.46 25.28 170.55 26.41C169.63 27.54 169.18 29.11 169.18 31.1C169.18 33.19 169.62 34.77 170.5 35.84C171.38 36.91 172.66 37.45 174.32 37.45C175.04 37.45 175.74 37.38 176.42 37.23C177.1 37.09 177.8 36.9 178.53 36.68V39.07C177.19 39.57 175.68 39.83 173.99 39.83C171.5 39.83 169.59 39.08 168.25 37.57C166.92 36.06 166.25 33.9 166.25 31.09C166.25 29.32 166.57 27.77 167.22 26.45C167.87 25.12 168.8 24.11 170.03 23.4C171.26 22.69 172.7 22.34 174.35 22.34C176.09 22.34 177.69 22.7 179.17 23.43L178.17 25.75C177.6 25.48 176.99 25.24 176.35 25.03C175.7 24.81 175.03 24.71 174.32 24.71Z" fill="white"/>
<path d="M191.46 29.46L190.82 32.77H193.96V34.73H190.43L189.5 39.6H187.43L188.36 34.73H185.47L184.54 39.6H182.51L183.39 34.73H180.48V32.77H183.77L184.43 29.46H181.36V27.5H184.77L185.7 22.59H187.8L186.87 27.5H189.8L190.73 22.59H192.76L191.83 27.5H194.76V29.46H191.46ZM185.84 32.76H188.75L189.41 29.45H186.5L185.84 32.76Z" fill="white"/>
<path d="M495.51 233.53L206.7 273.62C204 274 200.83 272.52 199.63 270.32L145.07 170.15C143.87 167.95 146.32 161.64 149.12 161.44L447.4 145.2C449.28 145.07 451.58 146.42 452.56 148.21L499.82 226C500.79 227.79 497.32 233.28 495.51 233.53Z" fill="#B3AFAB"/>
<path d="M497.74 228.88L208.93 268.97C206.23 269.35 203.06 267.87 201.86 265.67L147.3 165.5C146.1 163.3 147.41 161.36 150.21 161.17L449.63 140.56C451.51 140.43 453.81 141.78 454.79 143.57L499.25 225.19C500.22 226.97 499.55 228.63 497.74 228.88Z" fill="#797672"/>
<path d="M477.78 202.11C478.14 202.76 477.88 203.35 477.21 203.43L439.18 207.9C438.47 207.98 437.6 207.51 437.24 206.83L428.97 191.64C428.6 190.97 428.89 190.36 429.6 190.29L467.89 186.31C468.56 186.24 469.4 186.71 469.75 187.36L477.78 202.11Z" fill="#70D6E0"/>
<path d="M197.69 184.46L174.83 186.41C173.84 186.49 172.69 185.92 172.26 185.14L162.55 167.31C162.12 166.52 162.58 165.82 163.58 165.75L186.59 164.09C187.56 164.02 188.69 164.59 189.11 165.37L198.67 182.91C199.09 183.68 198.65 184.38 197.69 184.46Z" fill="#B3AFAB"/>
<path d="M228.65 180.37C229.06 181.13 228.65 181.81 227.72 181.89L205.71 183.77C204.76 183.85 203.64 183.29 203.22 182.52L193.69 165.03C193.27 164.26 193.71 163.57 194.67 163.5L216.83 161.9C217.76 161.83 218.85 162.4 219.27 163.16L228.65 180.37Z" fill="#B3AFAB"/>
<path d="M257.54 177.93C257.95 178.68 257.55 179.34 256.66 179.42L235.46 181.23C234.54 181.31 233.46 180.76 233.05 180L223.7 162.83C223.29 162.07 223.7 161.4 224.63 161.33L245.98 159.79C246.88 159.73 247.94 160.28 248.34 161.03L257.54 177.93Z" fill="#B3AFAB"/>
<path d="M285.38 175.58C285.78 176.31 285.41 176.97 284.55 177.04L264.11 178.78C263.22 178.86 262.18 178.31 261.77 177.57L252.59 160.71C252.18 159.96 252.58 159.31 253.47 159.24L274.05 157.75C274.92 157.69 275.94 158.23 276.34 158.97L285.38 175.58Z" fill="#B3AFAB"/>
<path d="M312.25 173.31C312.64 174.03 312.29 174.67 311.46 174.74L291.74 176.42C290.89 176.49 289.87 175.96 289.47 175.23L280.45 158.68C280.05 157.95 280.43 157.3 281.29 157.24L301.15 155.81C301.99 155.75 302.98 156.29 303.38 157.01L312.25 173.31Z" fill="#B3AFAB"/>
<path d="M338.18 171.13C338.57 171.84 338.23 172.47 337.43 172.54L318.39 174.16C317.57 174.23 316.58 173.7 316.19 172.99L307.33 156.73C306.94 156.01 307.29 155.38 308.12 155.32L327.29 153.94C328.1 153.88 329.06 154.41 329.45 155.12L338.18 171.13Z" fill="#B3AFAB"/>
<path d="M363.23 169.01C363.61 169.71 363.29 170.32 362.51 170.39L344.12 171.96C343.32 172.03 342.37 171.51 341.98 170.8L333.28 154.82C332.9 154.11 333.23 153.49 334.03 153.44L352.55 152.1C353.33 152.04 354.27 152.56 354.65 153.26L363.23 169.01Z" fill="#B3AFAB"/>
<path d="M387.44 166.97C387.81 167.65 387.51 168.26 386.76 168.33L368.99 169.85C368.22 169.92 367.29 169.41 366.91 168.71L358.35 153C357.97 152.31 358.29 151.7 359.07 151.64L376.97 150.35C377.72 150.3 378.64 150.81 379.01 151.49L387.44 166.97Z" fill="#B3AFAB"/>
<path d="M410.85 164.99C411.22 165.66 410.93 166.26 410.2 166.32L393.01 167.79C392.27 167.85 391.36 167.35 390.99 166.67L382.58 151.22C382.21 150.54 382.51 149.94 383.26 149.89L400.57 148.64C401.3 148.59 402.19 149.09 402.56 149.76L410.85 164.99Z" fill="#B3AFAB"/>
<path d="M433.5 163.08C433.86 163.74 433.59 164.33 432.88 164.39L416.25 165.81C415.53 165.87 414.65 165.38 414.28 164.7L406.01 149.51C405.64 148.84 405.94 148.25 406.66 148.2L423.41 146.99C424.12 146.94 424.98 147.43 425.34 148.1L433.5 163.08Z" fill="#B3AFAB"/>
<path d="M254.66 228.13C255.07 228.89 254.67 229.6 253.76 229.7L232.12 232.24C231.18 232.35 230.08 231.81 229.66 231.04L220.13 213.55C219.71 212.78 220.13 212.07 221.08 211.97L242.88 209.7C243.8 209.6 244.88 210.14 245.29 210.91L254.66 228.13Z" fill="#B3AFAB"/>
<path d="M283.07 224.81C283.48 225.56 283.1 226.25 282.22 226.35L261.37 228.8C260.47 228.91 259.4 228.38 258.98 227.62L249.63 210.45C249.22 209.69 249.62 209 250.53 208.9L271.53 206.72C272.41 206.63 273.46 207.16 273.87 207.91L283.07 224.81Z" fill="#B3AFAB"/>
<path d="M310.46 221.62C310.86 222.35 310.5 223.03 309.65 223.13L289.55 225.49C288.68 225.59 287.64 225.07 287.24 224.33L278.06 207.47C277.65 206.72 278.04 206.05 278.91 205.96L299.16 203.86C300.01 203.77 301.03 204.29 301.43 205.03L310.46 221.62Z" fill="#B3AFAB"/>
<path d="M336.88 218.54C337.27 219.26 336.93 219.92 336.11 220.02L316.71 222.3C315.87 222.4 314.87 221.89 314.47 221.15L305.45 204.6C305.05 203.87 305.41 203.2 306.26 203.12L325.79 201.09C326.61 201 327.6 201.52 327.99 202.24L336.88 218.54Z" fill="#B3AFAB"/>
<path d="M362.39 215.56C362.78 216.27 362.45 216.92 361.66 217.01L342.94 219.21C342.13 219.31 341.15 218.8 340.76 218.08L331.9 201.82C331.51 201.1 331.85 200.45 332.67 200.36L351.52 198.4C352.31 198.32 353.27 198.82 353.66 199.53L362.39 215.56Z" fill="#B3AFAB"/>
<path d="M387.02 212.69C387.4 213.39 387.09 214.02 386.33 214.11L368.24 216.24C367.46 216.33 366.51 215.83 366.13 215.13L357.43 199.15C357.05 198.44 357.37 197.8 358.16 197.72L376.37 195.83C377.14 195.75 378.07 196.25 378.45 196.95L387.02 212.69Z" fill="#B3AFAB"/>
<path d="M410.83 209.91C411.2 210.59 410.91 211.22 410.17 211.31L392.69 213.36C391.93 213.45 391.01 212.96 390.63 212.26L382.07 196.55C381.69 195.86 382 195.23 382.76 195.15L400.36 193.32C401.1 193.24 402.01 193.74 402.38 194.42L410.83 209.91Z" fill="#B3AFAB"/>
<path d="M433.86 207.23C434.23 207.9 433.95 208.52 433.23 208.6L416.33 210.59C415.6 210.68 414.7 210.19 414.33 209.51L405.92 194.06C405.55 193.38 405.84 192.76 406.58 192.68L423.6 190.91C424.32 190.84 425.2 191.32 425.56 191.99L433.86 207.23Z" fill="#B3AFAB"/>
<path d="M422.6 231.38C422.97 232.06 422.68 232.7 421.95 232.8L274.31 252.59C273.41 252.71 272.35 252.19 271.94 251.43L262.59 234.26C262.18 233.5 262.57 232.8 263.48 232.69L412.16 214.81C412.9 214.72 413.79 215.2 414.17 215.89L422.6 231.38Z" fill="#B3AFAB"/>
<path d="M224.97 207.08L187.71 210.85C186.73 210.95 185.58 210.39 185.15 209.6L175.44 191.76C175.01 190.97 175.47 190.26 176.46 190.17L213.98 186.88C214.92 186.8 216.03 187.35 216.45 188.12L225.92 205.51C226.32 206.28 225.9 206.98 224.97 207.08Z" fill="#B3AFAB"/>
<path d="M255.12 202.58C255.53 203.33 255.13 204.02 254.23 204.11L232.78 206.28C231.85 206.37 230.76 205.83 230.34 205.06L220.9 187.72C220.48 186.95 220.9 186.27 221.84 186.18L243.43 184.29C244.34 184.21 245.41 184.76 245.82 185.51L255.12 202.58Z" fill="#B3AFAB"/>
<path d="M283.28 199.76C283.68 200.5 283.31 201.17 282.44 201.26L261.77 203.35C260.87 203.44 259.82 202.9 259.41 202.15L250.14 185.13C249.73 184.38 250.13 183.7 251.03 183.62L271.84 181.79C272.72 181.71 273.75 182.25 274.16 182.99L283.28 199.76Z" fill="#B3AFAB"/>
<path d="M310.44 197.04C310.84 197.77 310.48 198.43 309.64 198.51L289.71 200.53C288.85 200.62 287.82 200.09 287.42 199.35L278.32 182.64C277.92 181.9 278.3 181.24 279.17 181.16L299.24 179.4C300.09 179.33 301.09 179.86 301.49 180.58L310.44 197.04Z" fill="#B3AFAB"/>
<path d="M336.64 194.42C337.03 195.13 336.69 195.78 335.88 195.86L316.64 197.81C315.81 197.89 314.81 197.37 314.42 196.65L305.48 180.24C305.08 179.51 305.44 178.87 306.28 178.79L325.65 177.09C326.47 177.02 327.44 177.54 327.83 178.25L336.64 194.42Z" fill="#B3AFAB"/>
<path d="M361.95 191.88C362.33 192.58 362.01 193.22 361.23 193.3L342.65 195.18C341.85 195.26 340.88 194.75 340.49 194.04L331.71 177.91C331.32 177.2 331.66 176.56 332.47 176.49L351.17 174.85C351.96 174.78 352.91 175.29 353.29 176L361.95 191.88Z" fill="#B3AFAB"/>
<path d="M386.39 189.43C386.77 190.12 386.46 190.74 385.7 190.82L367.75 192.63C366.97 192.71 366.03 192.2 365.65 191.5L357.02 175.65C356.64 174.95 356.96 174.33 357.75 174.26L375.82 172.67C376.58 172.6 377.5 173.11 377.88 173.8L386.39 189.43Z" fill="#B3AFAB"/>
<path d="M410.03 187.07C410.4 187.75 410.11 188.36 409.38 188.43L392.03 190.18C391.28 190.26 390.37 189.76 389.99 189.07L381.5 173.49C381.12 172.8 381.43 172.19 382.19 172.12L399.66 170.59C400.4 170.53 401.29 171.02 401.66 171.7L410.03 187.07Z" fill="#B3AFAB"/>
<path d="M454.85 162.51L438.75 163.88C438.05 163.94 437.2 163.45 436.84 162.79L428.7 147.84C428.34 147.18 428.62 146.6 429.32 146.55L445.53 145.38C446.21 145.33 447.06 145.82 447.41 146.47L455.44 161.21C455.79 161.88 455.52 162.45 454.85 162.51Z" fill="#908D89"/>
<path d="M224.22 233.17L201.74 235.81C200.77 235.92 199.63 235.38 199.2 234.59L189.49 216.76C189.06 215.97 189.51 215.25 190.49 215.15L213.13 212.8C214.08 212.7 215.2 213.25 215.62 214.03L225.18 231.57C225.59 232.34 225.17 233.06 224.22 233.17Z" fill="#76AFF2"/>
<path d="M237.49 257.53L215.2 260.52C214.23 260.65 213.1 260.12 212.67 259.33L202.96 241.5C202.53 240.71 202.97 239.98 203.95 239.86L226.4 237.16C227.34 237.05 228.45 237.58 228.88 238.36L238.44 255.9C238.84 256.67 238.43 257.4 237.49 257.53Z" fill="#908D89"/>
<path d="M267.66 252C268.07 252.76 267.68 253.48 266.78 253.6L245.32 256.48C244.39 256.6 243.29 256.08 242.87 255.31L233.34 237.82C232.92 237.05 233.34 236.33 234.27 236.22L255.88 233.62C256.79 233.51 257.86 234.04 258.28 234.8L267.66 252Z" fill="#908D89"/>
<path d="M445.36 228.35C445.73 229.02 445.45 229.65 444.74 229.74L427.98 231.99C427.25 232.09 426.36 231.61 425.99 230.93L417.58 215.48C417.21 214.8 417.5 214.17 418.23 214.08L435.11 212.05C435.82 211.96 436.7 212.44 437.06 213.11L445.36 228.35Z" fill="#908D89"/>
<path d="M467.45 225.41C467.81 226.07 467.55 226.68 466.87 226.78L450.65 228.95C449.95 229.04 449.08 228.58 448.72 227.9L440.45 212.71C440.08 212.04 440.36 211.42 441.07 211.34L457.4 209.38C458.09 209.3 458.94 209.77 459.3 210.43L467.45 225.41Z" fill="#908D89"/>
<path d="M488.29 223.9L472.59 226.01C471.91 226.1 471.07 225.64 470.71 224.98L462.57 210.03C462.21 209.37 462.47 208.77 463.16 208.68L478.97 206.78C479.64 206.7 480.47 207.16 480.82 207.82L488.85 222.56C489.2 223.22 488.95 223.82 488.29 223.9Z" fill="#908D89"/>
<path d="M465.77 182.73L415.77 187.79C415.04 187.86 414.16 187.37 413.79 186.7L405.44 171.38C405.07 170.7 405.36 170.1 406.1 170.04L456.45 165.62C457.13 165.56 457.97 166.04 458.32 166.69L466.35 181.43C466.7 182.08 466.44 182.66 465.77 182.73Z" fill="#908D89"/>
</svg>
