<svg width="636" height="300" viewBox="0 0 636 300" fill="none" xmlns="http://www.w3.org/2000/svg">
<path d="M396.32 49.34H421.18C438.75 49.34 452.99 63.58 452.99 81.15V98.49C452.99 115.88 433.09 130 415.77 130.29L403.18 148.51L401.77 130.3H396.32C378.75 130.3 364.51 116.06 364.51 98.49V81.15C364.51 63.58 378.75 49.34 396.32 49.34Z" fill="#C5D43B"/>
<path d="M380.92 113.97C378.18 113.96 376.14 111.48 376.6 108.78C379.46 91.82 392.47 81.27 409.08 81.27C425.33 81.27 438.85 92.89 441.59 108.2C442.13 111.19 439.85 113.96 436.81 113.96C425.98 113.99 400.65 114.03 380.92 113.97Z" fill="#8B9B23"/>
<path d="M401.84 93.6201C399.57 93.6201 397.73 95.4701 397.73 97.7401V100.19C397.73 102.46 399.58 104.3 401.84 104.3H417.22C419.49 104.3 421.33 102.45 421.33 100.19V97.7401C421.33 95.4701 419.48 93.6201 417.22 93.6201H401.84Z" fill="#C5D43B"/>
<path d="M430.23 88.92C430.23 88.73 430.24 88.55 430.24 88.36C430.24 76.79 420.76 67.41 409.07 67.41C397.38 67.41 387.9 76.79 387.9 88.36C387.9 88.55 387.91 88.73 387.91 88.92H430.23Z" fill="#78881B"/>
<path d="M402.27 84.57C404.617 84.57 406.52 82.6672 406.52 80.32C406.52 77.9728 404.617 76.07 402.27 76.07C399.923 76.07 398.02 77.9728 398.02 80.32C398.02 82.6672 399.923 84.57 402.27 84.57Z" fill="white"/>
<path d="M403.41 83.39C405.078 83.39 406.43 82.0379 406.43 80.37C406.43 78.7021 405.078 77.35 403.41 77.35C401.742 77.35 400.39 78.7021 400.39 80.37C400.39 82.0379 401.742 83.39 403.41 83.39Z" fill="#95A258"/>
<path d="M416.63 84.57C418.977 84.57 420.88 82.6672 420.88 80.32C420.88 77.9728 418.977 76.07 416.63 76.07C414.283 76.07 412.38 77.9728 412.38 80.32C412.38 82.6672 414.283 84.57 416.63 84.57Z" fill="white"/>
<path d="M418.06 83.39C419.728 83.39 421.08 82.0379 421.08 80.37C421.08 78.7021 419.728 77.35 418.06 77.35C416.392 77.35 415.04 78.7021 415.04 80.37C415.04 82.0379 416.392 83.39 418.06 83.39Z" fill="#95A258"/>
<path d="M443.65 75.29C455.474 75.29 465.06 65.7044 465.06 53.88C465.06 42.0556 455.474 32.47 443.65 32.47C431.826 32.47 422.24 42.0556 422.24 53.88C422.24 65.7044 431.826 75.29 443.65 75.29Z" fill="#819041"/>
<path d="M332.76 37.14L213.9 29.82C211.52 29.77 209.59 31.73 209.68 34.11L212.63 116.69C212.71 118.92 214.54 120.68 216.77 120.68L289.08 121.27L314.19 150.72L314.15 121.27L332.09 121.19C334.36 121.19 336.21 119.35 336.23 117.08L336.82 41.31C336.84 39.05 335.03 37.19 332.76 37.14Z" fill="#2ECCEF"/>
<path d="M267.355 111.465L276.475 111.465L276.475 87.0349L267.355 87.0349L267.355 111.465Z" fill="#0B7891"/>
<path d="M234.71 114.86L235.4 107.02C235.58 105.01 237.26 103.46 239.28 103.46H305.41C307.32 103.46 308.91 104.92 309.07 106.82L309.78 114.86H234.71Z" fill="#1595B2"/>
<path d="M236.03 85.8L237.57 68.31C238.21 61.06 244.28 55.5 251.56 55.5H292.94C300.22 55.5 306.29 61.06 306.93 68.31L308.47 85.8C308.64 87.72 307.13 89.37 305.2 89.37H281.47C280.43 93.87 276.41 97.22 271.6 97.22C266.79 97.22 262.77 93.86 261.73 89.37H239.3C237.37 89.37 235.86 87.72 236.03 85.8Z" fill="#1595B2"/>
<path d="M251.72 69.83H292.11C295.35 69.83 297.97 72.45 297.97 75.69C297.97 78.93 295.35 81.55 292.11 81.55H251.72C248.48 81.55 245.86 78.93 245.86 75.69C245.86 72.46 248.49 69.83 251.72 69.83Z" fill="#0B7891"/>
<path d="M289.43 79.71C291.888 79.71 293.88 77.7177 293.88 75.26C293.88 72.8023 291.888 70.81 289.43 70.81C286.972 70.81 284.98 72.8023 284.98 75.26C284.98 77.7177 286.972 79.71 289.43 79.71Z" fill="white"/>
<path d="M275.1 79.71C277.558 79.71 279.55 77.7177 279.55 75.26C279.55 72.8023 277.558 70.81 275.1 70.81C272.642 70.81 270.65 72.8023 270.65 75.26C270.65 77.7177 272.642 79.71 275.1 79.71Z" fill="white"/>
<path d="M300.44 111.28C301.611 111.28 302.56 110.331 302.56 109.16C302.56 107.989 301.611 107.04 300.44 107.04C299.269 107.04 298.32 107.989 298.32 109.16C298.32 110.331 299.269 111.28 300.44 111.28Z" fill="#2ECCEF"/>
<path d="M292.62 111.28C293.791 111.28 294.74 110.331 294.74 109.16C294.74 107.989 293.791 107.04 292.62 107.04C291.449 107.04 290.5 107.989 290.5 109.16C290.5 110.331 291.449 111.28 292.62 111.28Z" fill="#2ECCEF"/>
<path d="M284.8 111.28C285.971 111.28 286.92 110.331 286.92 109.16C286.92 107.989 285.971 107.04 284.8 107.04C283.629 107.04 282.68 107.989 282.68 109.16C282.68 110.331 283.629 111.28 284.8 111.28Z" fill="#2ECCEF"/>
<path d="M214.39 65.16C228.285 65.16 239.55 53.8955 239.55 40C239.55 26.1045 228.285 14.84 214.39 14.84C200.495 14.84 189.23 26.1045 189.23 40C189.23 53.8955 200.495 65.16 214.39 65.16Z" fill="#1595B2"/>
<path d="M207.42 33.73C205.84 33.73 204.59 34.29 203.68 35.41C202.77 36.53 202.32 38.08 202.32 40.06C202.32 42.13 202.76 43.69 203.63 44.75C204.5 45.81 205.76 46.34 207.42 46.34C208.13 46.34 208.83 46.27 209.5 46.13C210.17 45.99 210.86 45.81 211.59 45.58V47.94C210.27 48.44 208.77 48.69 207.09 48.69C204.62 48.69 202.73 47.94 201.41 46.45C200.09 44.96 199.43 42.82 199.43 40.03C199.43 38.28 199.75 36.74 200.39 35.43C201.03 34.12 201.96 33.11 203.17 32.41C204.38 31.71 205.81 31.36 207.45 31.36C209.17 31.36 210.76 31.72 212.22 32.44L211.23 34.73C210.66 34.46 210.06 34.22 209.43 34.02C208.78 33.83 208.12 33.73 207.42 33.73Z" fill="white"/>
<path d="M224.39 38.44L223.76 41.71H226.87V43.65H223.38L222.46 48.47H220.41L221.33 43.65H218.47L217.55 48.47H215.54L216.42 43.65H213.54V41.71H216.8L217.46 38.44H214.42V36.5H217.8L218.72 31.64H220.8L219.88 36.5H222.79L223.71 31.64H225.72L224.8 36.5H227.7V38.44H224.39ZM218.82 41.71H221.7L222.36 38.44H219.48L218.82 41.71Z" fill="white"/>
<path d="M525.49 240.53L239.48 280.23C236.8 280.6 233.67 279.14 232.48 276.96L178.45 177.76C177.26 175.58 179.68 169.33 182.46 169.14L477.85 153.06C479.71 152.93 481.99 154.27 482.96 156.04L529.76 233.07C530.72 234.85 527.28 240.28 525.49 240.53Z" fill="#B3AFAB"/>
<path d="M527.69 235.92L241.68 275.62C239 275.99 235.87 274.53 234.68 272.35L180.65 173.15C179.46 170.97 180.76 169.05 183.53 168.86L480.04 148.45C481.9 148.32 484.18 149.66 485.15 151.43L529.17 232.26C530.15 234.03 529.48 235.67 527.69 235.92Z" fill="#797672"/>
<path d="M507.92 209.41C508.27 210.06 508.02 210.64 507.36 210.72L469.7 215.15C469 215.23 468.14 214.76 467.77 214.09L459.58 199.05C459.22 198.38 459.5 197.79 460.2 197.71L498.12 193.77C498.79 193.7 499.61 194.17 499.96 194.81L507.92 209.41Z" fill="#C5D43B"/>
<path d="M230.56 191.93L207.93 193.86C206.95 193.94 205.81 193.38 205.38 192.6L195.76 174.94C195.33 174.16 195.79 173.47 196.78 173.4L219.57 171.75C220.53 171.68 221.65 172.25 222.06 173.02L231.52 190.39C231.94 191.16 231.51 191.85 230.56 191.93Z" fill="#B3AFAB"/>
<path d="M261.21 187.89C261.62 188.64 261.21 189.32 260.29 189.4L238.5 191.26C237.56 191.34 236.45 190.79 236.03 190.02L226.59 172.7C226.17 171.93 226.61 171.26 227.56 171.19L249.5 169.61C250.42 169.54 251.5 170.1 251.92 170.85L261.21 187.89Z" fill="#B3AFAB"/>
<path d="M289.82 185.47C290.22 186.21 289.83 186.87 288.95 186.95L267.95 188.74C267.04 188.82 265.97 188.27 265.56 187.52L256.3 170.52C255.89 169.77 256.3 169.11 257.22 169.04L278.36 167.51C279.25 167.45 280.3 167.99 280.7 168.73L289.82 185.47Z" fill="#B3AFAB"/>
<path d="M317.4 183.14C317.8 183.87 317.43 184.51 316.57 184.59L296.33 186.32C295.45 186.39 294.42 185.86 294.01 185.12L284.92 168.43C284.52 167.69 284.91 167.04 285.79 166.98L306.17 165.51C307.03 165.45 308.04 165.99 308.44 166.71L317.4 183.14Z" fill="#B3AFAB"/>
<path d="M344 180.9C344.39 181.61 344.04 182.25 343.21 182.32L323.68 183.99C322.83 184.06 321.83 183.53 321.43 182.81L312.5 166.42C312.11 165.7 312.48 165.06 313.33 165L332.99 163.58C333.82 163.52 334.8 164.05 335.19 164.76L344 180.9Z" fill="#B3AFAB"/>
<path d="M369.68 178.73C370.06 179.43 369.73 180.06 368.93 180.12L350.08 181.73C349.26 181.8 348.29 181.28 347.9 180.57L339.13 164.47C338.74 163.76 339.09 163.13 339.92 163.07L358.9 161.7C359.7 161.64 360.66 162.16 361.04 162.87L369.68 178.73Z" fill="#B3AFAB"/>
<path d="M394.49 176.63C394.87 177.32 394.55 177.93 393.78 178L375.57 179.55C374.78 179.62 373.83 179.1 373.45 178.4L364.83 162.57C364.45 161.87 364.78 161.26 365.58 161.2L383.92 159.88C384.69 159.82 385.62 160.34 386 161.03L394.49 176.63Z" fill="#B3AFAB"/>
<path d="M418.46 174.61C418.83 175.29 418.53 175.89 417.79 175.95L400.19 177.45C399.43 177.52 398.51 177.01 398.13 176.32L389.66 160.76C389.29 160.07 389.6 159.47 390.37 159.41L408.09 158.13C408.84 158.08 409.74 158.58 410.11 159.26L418.46 174.61Z" fill="#B3AFAB"/>
<path d="M441.65 172.65C442.01 173.32 441.73 173.91 441.01 173.97L423.99 175.42C423.25 175.48 422.36 174.99 421.99 174.31L413.66 159.01C413.29 158.33 413.59 157.74 414.34 157.69L431.48 156.45C432.2 156.4 433.08 156.9 433.45 157.56L441.65 172.65Z" fill="#B3AFAB"/>
<path d="M464.08 170.76C464.44 171.42 464.16 172 463.47 172.06L447 173.46C446.29 173.52 445.42 173.03 445.05 172.37L436.86 157.33C436.5 156.66 436.79 156.08 437.5 156.03L454.08 154.83C454.78 154.78 455.64 155.27 455.99 155.93L464.08 170.76Z" fill="#B3AFAB"/>
<path d="M286.97 235.18C287.38 235.93 286.98 236.63 286.08 236.74L264.65 239.26C263.72 239.37 262.63 238.84 262.21 238.07L252.77 220.75C252.35 219.98 252.77 219.28 253.71 219.19L275.29 216.95C276.2 216.86 277.27 217.39 277.68 218.14L286.97 235.18Z" fill="#B3AFAB"/>
<path d="M315.11 231.9C315.51 232.64 315.14 233.32 314.27 233.43L293.62 235.86C292.73 235.97 291.67 235.44 291.26 234.69L282 217.69C281.59 216.94 281.99 216.25 282.89 216.16L303.68 214C304.56 213.91 305.59 214.44 305.99 215.18L315.11 231.9Z" fill="#B3AFAB"/>
<path d="M342.23 228.73C342.63 229.46 342.27 230.13 341.43 230.22L321.52 232.56C320.66 232.66 319.63 232.15 319.23 231.41L310.14 214.72C309.74 213.98 310.12 213.31 310.99 213.22L331.04 211.14C331.88 211.05 332.89 211.57 333.29 212.3L342.23 228.73Z" fill="#B3AFAB"/>
<path d="M368.4 225.68C368.79 226.39 368.45 227.05 367.64 227.14L348.43 229.4C347.6 229.5 346.6 228.99 346.21 228.26L337.28 211.87C336.89 211.15 337.24 210.49 338.08 210.4L357.42 208.39C358.23 208.31 359.21 208.82 359.6 209.53L368.4 225.68Z" fill="#B3AFAB"/>
<path d="M393.65 222.74C394.03 223.44 393.71 224.08 392.93 224.18L374.39 226.36C373.59 226.45 372.62 225.95 372.23 225.24L363.46 209.14C363.07 208.43 363.41 207.78 364.22 207.7L382.89 205.76C383.68 205.68 384.62 206.18 385.01 206.88L393.65 222.74Z" fill="#B3AFAB"/>
<path d="M418.05 219.89C418.43 220.58 418.12 221.21 417.36 221.3L399.45 223.41C398.67 223.5 397.74 223.01 397.36 222.31L388.74 206.48C388.36 205.78 388.68 205.15 389.46 205.07L407.5 203.2C408.26 203.12 409.18 203.62 409.56 204.31L418.05 219.89Z" fill="#B3AFAB"/>
<path d="M441.63 217.14C442 217.82 441.71 218.44 440.98 218.52L423.67 220.55C422.92 220.64 422.01 220.15 421.63 219.46L413.16 203.9C412.79 203.21 413.09 202.59 413.85 202.51L431.28 200.7C432.01 200.62 432.91 201.11 433.28 201.79L441.63 217.14Z" fill="#B3AFAB"/>
<path d="M464.43 214.48C464.79 215.15 464.52 215.75 463.81 215.84L447.07 217.81C446.35 217.9 445.46 217.42 445.09 216.74L436.76 201.44C436.39 200.76 436.68 200.15 437.41 200.08L454.27 198.33C454.98 198.26 455.85 198.74 456.21 199.4L464.43 214.48Z" fill="#B3AFAB"/>
<path d="M453.28 238.4C453.65 239.08 453.36 239.71 452.64 239.8L306.44 259.4C305.55 259.52 304.5 259.01 304.09 258.25L294.83 241.25C294.42 240.5 294.81 239.8 295.71 239.69L442.94 222C443.67 221.91 444.56 222.39 444.93 223.07L453.28 238.4Z" fill="#B3AFAB"/>
<path d="M257.57 214.33L220.67 218.06C219.7 218.16 218.56 217.61 218.14 216.82L208.52 199.16C208.09 198.38 208.55 197.68 209.53 197.59L246.68 194.33C247.61 194.25 248.71 194.8 249.12 195.56L258.5 212.78C258.91 213.54 258.49 214.24 257.57 214.33Z" fill="#B3AFAB"/>
<path d="M287.43 209.88C287.84 210.63 287.44 211.31 286.55 211.4L265.31 213.55C264.39 213.64 263.31 213.1 262.89 212.34L253.54 195.17C253.13 194.41 253.54 193.73 254.47 193.65L275.86 191.77C276.76 191.69 277.82 192.23 278.23 192.98L287.43 209.88Z" fill="#B3AFAB"/>
<path d="M315.32 207.09C315.72 207.82 315.35 208.49 314.48 208.58L294.01 210.65C293.12 210.74 292.07 210.21 291.67 209.46L282.49 192.61C282.08 191.86 282.48 191.2 283.37 191.12L303.98 189.31C304.85 189.23 305.88 189.77 306.27 190.5L315.32 207.09Z" fill="#B3AFAB"/>
<path d="M342.21 204.4C342.6 205.12 342.25 205.77 341.42 205.86L321.68 207.86C320.83 207.95 319.81 207.42 319.41 206.69L310.4 190.14C310 189.41 310.38 188.75 311.24 188.68L331.12 186.94C331.96 186.87 332.95 187.39 333.35 188.11L342.21 204.4Z" fill="#B3AFAB"/>
<path d="M368.16 201.8C368.55 202.51 368.21 203.15 367.41 203.23L348.36 205.16C347.54 205.24 346.55 204.73 346.16 204.01L337.31 187.75C336.92 187.03 337.28 186.39 338.11 186.32L357.29 184.64C358.1 184.57 359.07 185.09 359.45 185.79L368.16 201.8Z" fill="#B3AFAB"/>
<path d="M393.22 199.29C393.6 199.99 393.28 200.61 392.5 200.69L374.11 202.55C373.31 202.63 372.36 202.12 371.97 201.42L363.27 185.45C362.89 184.74 363.22 184.11 364.03 184.04L382.55 182.41C383.33 182.34 384.27 182.85 384.65 183.55L393.22 199.29Z" fill="#B3AFAB"/>
<path d="M417.43 196.86C417.8 197.54 417.5 198.16 416.75 198.24L398.98 200.04C398.21 200.12 397.28 199.62 396.9 198.92L388.35 183.22C387.97 182.53 388.29 181.91 389.07 181.84L406.97 180.27C407.72 180.2 408.64 180.7 409.01 181.39L417.43 196.86Z" fill="#B3AFAB"/>
<path d="M440.83 194.52C441.2 195.19 440.91 195.8 440.18 195.87L423 197.6C422.26 197.68 421.35 197.18 420.98 196.5L412.57 181.07C412.2 180.39 412.5 179.78 413.25 179.72L430.55 178.2C431.28 178.14 432.17 178.63 432.53 179.3L440.83 194.52Z" fill="#B3AFAB"/>
<path d="M485.21 170.2L469.27 171.56C468.58 171.62 467.73 171.14 467.38 170.48L459.32 155.68C458.96 155.03 459.24 154.45 459.93 154.4L475.98 153.24C476.66 153.19 477.49 153.67 477.84 154.32L485.79 168.92C486.15 169.57 485.89 170.14 485.21 170.2Z" fill="#908D89"/>
<path d="M256.83 240.17L234.57 242.79C233.61 242.9 232.48 242.36 232.05 241.58L222.43 223.92C222 223.14 222.45 222.42 223.42 222.32L245.84 219.99C246.78 219.89 247.89 220.44 248.31 221.2L257.77 238.57C258.19 239.35 257.77 240.06 256.83 240.17Z" fill="#2ECCEF"/>
<path d="M269.97 264.29L247.89 267.25C246.93 267.38 245.81 266.85 245.39 266.07L235.77 248.41C235.34 247.63 235.78 246.9 236.75 246.79L258.98 244.12C259.92 244.01 261.01 244.54 261.43 245.31L270.89 262.68C271.31 263.44 270.9 264.17 269.97 264.29Z" fill="#908D89"/>
<path d="M299.85 258.82C300.26 259.57 299.87 260.28 298.97 260.4L277.72 263.25C276.8 263.37 275.71 262.85 275.3 262.09L265.86 244.77C265.44 244 265.86 243.29 266.78 243.18L288.18 240.61C289.08 240.5 290.14 241.03 290.55 241.78L299.85 258.82Z" fill="#908D89"/>
<path d="M475.82 235.4C476.18 236.07 475.91 236.68 475.21 236.78L458.61 239.01C457.89 239.11 457.01 238.64 456.64 237.96L448.31 222.66C447.94 221.98 448.23 221.36 448.95 221.28L465.67 219.27C466.38 219.19 467.24 219.66 467.6 220.32L475.82 235.4Z" fill="#908D89"/>
<path d="M497.7 232.49C498.06 233.15 497.8 233.75 497.12 233.84L481.06 235.99C480.37 236.08 479.51 235.62 479.15 234.95L470.96 219.91C470.6 219.24 470.87 218.64 471.57 218.55L487.75 216.61C488.43 216.53 489.27 216.99 489.63 217.65L497.7 232.49Z" fill="#908D89"/>
<path d="M518.33 231L502.78 233.08C502.11 233.17 501.27 232.71 500.92 232.06L492.86 217.26C492.5 216.61 492.76 216.01 493.44 215.93L509.1 214.05C509.76 213.97 510.58 214.43 510.93 215.08L518.88 229.68C519.23 230.31 518.99 230.91 518.33 231Z" fill="#908D89"/>
<path d="M496.03 190.22L446.52 195.23C445.8 195.3 444.92 194.82 444.56 194.15L436.3 178.98C435.93 178.31 436.23 177.71 436.95 177.65L486.81 173.28C487.48 173.22 488.31 173.7 488.66 174.34L496.61 188.94C496.95 189.57 496.7 190.15 496.03 190.22Z" fill="#908D89"/>
<path d="M440.42 56.15C440.42 57.9 439.99 59.27 439.12 60.24C438.25 61.21 437.1 61.7 435.66 61.7C434.99 61.7 434.43 61.62 434 61.46V59.15C434.39 59.42 434.9 59.55 435.52 59.55C437.16 59.55 437.97 58.29 437.97 55.76V46.67H440.42V56.15Z" fill="white"/>
<path d="M443.25 60.86V58.33C443.48 58.54 443.75 58.72 444.06 58.89C444.37 59.05 444.7 59.19 445.06 59.31C445.41 59.42 445.76 59.51 446.11 59.57C446.46 59.63 446.78 59.66 447.08 59.66C448.11 59.66 448.88 59.49 449.38 59.14C449.88 58.79 450.14 58.3 450.14 57.64C450.14 57.29 450.06 56.99 449.89 56.73C449.72 56.47 449.49 56.24 449.18 56.02C448.88 55.81 448.52 55.6 448.11 55.41C447.7 55.22 447.26 55.01 446.8 54.8C446.3 54.53 445.83 54.26 445.4 53.99C444.97 53.72 444.59 53.41 444.27 53.08C443.95 52.75 443.7 52.37 443.52 51.95C443.34 51.53 443.25 51.04 443.25 50.48C443.25 49.79 443.41 49.18 443.72 48.67C444.03 48.16 444.45 47.74 444.96 47.4C445.47 47.07 446.05 46.82 446.71 46.66C447.37 46.5 448.03 46.42 448.71 46.42C450.26 46.42 451.38 46.6 452.09 46.95V49.37C451.25 48.77 450.17 48.46 448.85 48.46C448.49 48.46 448.12 48.49 447.76 48.56C447.4 48.63 447.08 48.74 446.79 48.9C446.5 49.06 446.27 49.26 446.09 49.51C445.91 49.76 445.82 50.06 445.82 50.41C445.82 50.74 445.89 51.03 446.03 51.27C446.17 51.51 446.37 51.73 446.63 51.93C446.89 52.13 447.22 52.32 447.6 52.51C447.98 52.7 448.42 52.9 448.93 53.12C449.45 53.39 449.93 53.67 450.39 53.97C450.85 54.27 451.25 54.59 451.6 54.95C451.95 55.31 452.22 55.7 452.42 56.14C452.62 56.58 452.72 57.07 452.72 57.63C452.72 58.38 452.57 59.01 452.27 59.53C451.97 60.05 451.56 60.46 451.05 60.79C450.54 61.12 449.95 61.35 449.28 61.49C448.61 61.63 447.91 61.71 447.17 61.71C446.92 61.71 446.62 61.69 446.26 61.65C445.9 61.61 445.53 61.56 445.15 61.49C444.77 61.42 444.41 61.33 444.08 61.23C443.73 61.11 443.46 60.99 443.25 60.86Z" fill="white"/>
</svg>
