<svg width="636" height="300" viewBox="0 0 636 300" fill="none" xmlns="http://www.w3.org/2000/svg">
<path d="M271.57 258.66C342.572 258.66 400.13 254.68 400.13 249.77C400.13 244.86 342.572 240.88 271.57 240.88C200.568 240.88 143.01 244.86 143.01 249.77C143.01 254.68 200.568 258.66 271.57 258.66Z" fill="#D1C5F4"/>
<path d="M200.71 126.14L111.58 129.64C107.19 129.81 103.53 126.3 103.53 121.9V73.42C103.53 69.14 107 65.67 111.28 65.67H200.41C204.69 65.67 208.16 69.14 208.16 73.42V118.4C208.16 122.56 204.87 125.98 200.71 126.14Z" fill="#FFD590"/>
<path d="M392.62 53.58H368.33C351.16 53.58 337.24 67.5 337.24 84.67V101.61C337.24 118.6 350.88 132.4 367.81 132.68L365.3 147.18L381.48 132.69H392.62C409.79 132.69 423.71 118.77 423.71 101.6V84.67C423.7 67.5 409.79 53.58 392.62 53.58Z" fill="#70D6E0"/>
<path d="M407.26 116.87C409.94 116.86 411.93 114.44 411.48 111.8C408.68 95.23 395.97 84.92 379.74 84.92C363.85 84.92 350.65 96.28 347.97 111.24C347.45 114.17 349.67 116.86 352.64 116.87C363.22 116.89 387.98 116.94 407.26 116.87Z" fill="#25BACA"/>
<path d="M371.79 98.74C369.57 98.74 367.77 100.54 367.77 102.76V105.15C367.77 107.37 369.57 109.17 371.79 109.17H386.82C389.04 109.17 390.84 107.37 390.84 105.15V102.76C390.84 100.54 389.04 98.74 386.82 98.74H371.79Z" fill="#70D6E0"/>
<path d="M359.07 94.14C359.07 93.96 359.06 93.78 359.06 93.6C359.06 82.29 368.32 73.13 379.75 73.13C391.18 73.13 400.44 82.3 400.44 93.6C400.44 93.78 400.43 93.96 400.43 94.14H359.07Z" fill="#1BA1B5"/>
<path d="M386.4 89.9C388.697 89.9 390.56 88.0375 390.56 85.74C390.56 83.4425 388.697 81.58 386.4 81.58C384.102 81.58 382.24 83.4425 382.24 85.74C382.24 88.0375 384.102 89.9 386.4 89.9Z" fill="white"/>
<path d="M385.29 88.74C386.919 88.74 388.24 87.4193 388.24 85.79C388.24 84.1608 386.919 82.84 385.29 82.84C383.661 82.84 382.34 84.1608 382.34 85.79C382.34 87.4193 383.661 88.74 385.29 88.74Z" fill="#70D6E0"/>
<path d="M372.36 89.9C374.658 89.9 376.52 88.0375 376.52 85.74C376.52 83.4425 374.658 81.58 372.36 81.58C370.063 81.58 368.2 83.4425 368.2 85.74C368.2 88.0375 370.063 89.9 372.36 89.9Z" fill="white"/>
<path d="M370.97 88.74C372.599 88.74 373.92 87.4193 373.92 85.79C373.92 84.1608 372.599 82.84 370.97 82.84C369.341 82.84 368.02 84.1608 368.02 85.79C368.02 87.4193 369.341 88.74 370.97 88.74Z" fill="#70D6E0"/>
<path d="M306.44 165.9C299.56 166.96 292.13 162.55 283.79 152.5C282.06 150.41 282.35 147.32 284.43 145.59C286.52 143.86 289.61 144.15 291.34 146.23C299.93 156.58 304.23 156.42 305.34 156.12C308.32 155.32 311.22 149.49 312.57 141.61C313.03 138.94 315.56 137.14 318.24 137.6C320.91 138.06 322.71 140.59 322.25 143.27C321.01 150.51 317.5 163.04 307.88 165.61C307.41 165.72 306.93 165.82 306.44 165.9Z" fill="#8A6FE8"/>
<path d="M254.77 213.46C254.86 205.16 253.68 188.31 245.11 174.2L236.73 179.29C244.5 192.09 245.09 207.02 244.91 213.53C244.89 214.08 249.92 214.56 254.77 213.46Z" fill="url(#paint0_linear)"/>
<path d="M244.91 213.44L252.67 213.4L259.91 254.89L244.34 254.96C243.16 254.97 242.26 254.01 242.33 252.82L244.91 213.44Z" fill="#522CD5"/>
<path d="M276.51 243.98C277.85 245.04 277.83 246.58 277.73 248.2L277.41 253.17C277.35 254.06 276.58 254.79 275.69 254.79L259.47 254.86C258.46 254.86 257.7 254.05 257.76 253.04L257.87 247.89C257.99 246.02 257.36 245.33 255.91 243.57C253.43 240.56 246.09 224.13 246.78 213.43L254.77 213.39C255.29 219.75 263.68 233.86 276.51 243.98Z" fill="url(#paint1_linear)"/>
<path d="M277.73 248.2C277.8 247.07 277.83 245.98 277.38 245.06L257.14 245.15C257.7 245.97 257.94 246.69 257.86 247.89L257.75 253.04C257.68 254.05 258.45 254.86 259.46 254.86L275.68 254.79C276.57 254.79 277.35 254.06 277.4 253.17L277.73 248.2Z" fill="url(#paint2_radial)"/>
<path d="M243.32 205.97C253.66 200.18 259.91 196.93 260.54 194.39C260.7 193.76 260.39 192.24 258.02 188.64C256.02 185.59 253.69 182.1 253.68 182.09L261.84 176.63C261.84 176.63 264.21 180.17 266.23 183.25C268.93 187.37 271.26 191.85 270.07 196.72C268.43 203.41 264.14 205.72 248.88 214.27L243.32 205.97Z" fill="url(#paint3_linear)"/>
<path d="M295.62 142.46C296.97 128.69 293.08 118.48 293.08 118.48L296.19 117.99L296.26 117.92C287.97 94.36 263.8 79.33 238.24 83.37C209.45 87.92 189.79 114.96 194.35 143.75C198.91 172.54 225.94 192.2 254.73 187.64C277.45 184.05 294.48 166.46 298.41 145.05C298.48 144.16 298.22 142.62 295.62 142.46Z" fill="url(#paint4_radial)"/>
<path d="M295.72 154.78L205.7 169.01C208.26 172.12 211.16 174.91 214.34 177.35L290.09 165.37C292.35 162.08 294.25 158.53 295.72 154.78Z" fill="#D8CFF7"/>
<path d="M269.917 171.496L286.816 168.823L284.453 153.879L267.553 156.552L269.917 171.496Z" fill="#512BD4"/>
<path d="M271.99 165.44C271.88 165.46 271.78 165.43 271.69 165.37C271.6 165.31 271.55 165.22 271.53 165.11C271.51 165 271.54 164.9 271.61 164.81C271.68 164.72 271.77 164.67 271.88 164.65C271.99 164.63 272.1 164.66 272.19 164.72C272.28 164.78 272.34 164.87 272.35 164.98C272.37 165.09 272.34 165.18 272.27 165.27C272.19 165.37 272.1 165.42 271.99 165.44Z" fill="white"/>
<path d="M276.47 164.68L275.74 164.79L273.34 162.05C273.28 161.98 273.23 161.91 273.18 161.83H273.16C273.19 161.92 273.23 162.1 273.27 162.39L273.69 165.1L273.04 165.2L272.4 161.07L273.18 160.95L275.5 163.63C275.6 163.74 275.66 163.82 275.69 163.86H275.7C275.66 163.75 275.63 163.57 275.59 163.31L275.18 160.65L275.82 160.55L276.47 164.68Z" fill="white"/>
<path d="M279.62 164.19L277.36 164.54L276.72 160.41L278.89 160.07L278.98 160.65L277.48 160.88L277.66 162.05L279.05 161.83L279.14 162.41L277.75 162.63L277.94 163.85L279.53 163.6L279.62 164.19Z" fill="white"/>
<path d="M282.28 160.14L281.12 160.32L281.67 163.87L281 163.97L280.45 160.42L279.29 160.6L279.2 160.02L282.18 159.56L282.28 160.14Z" fill="white"/>
<path d="M295.73 142.45C297.07 128.85 293.29 118.73 293.2 118.48L239.11 127.03C239.11 127.03 235.65 127.22 236.14 130.34C236.63 133.45 238.15 142.23 239.69 151.96C240.01 153.96 241.8 154.67 243.09 154.46C243.08 154.45 294.72 144.82 295.73 142.45Z" fill="url(#paint5_radial)"/>
<path d="M263.47 147.57C263.47 147.57 270.75 139.67 272.18 138.2C273.61 136.73 275.02 136.43 276.71 137.48C278.4 138.53 287.76 143.73 287.76 143.73L263.47 147.57Z" fill="#A08BE8"/>
<path d="M298.3 145.75C298.3 145.75 299.41 142.66 295.73 142.45C295.73 142.44 242.54 150.82 242.54 150.82C241.3 151.02 239.59 150.53 239.27 149.35C239.41 150.21 239.55 151.08 239.69 151.96C239.98 153.77 241.48 154.52 242.72 154.49C242.84 154.49 242.97 154.48 243.09 154.46L246.73 153.89L298.3 145.75Z" fill="#512BD4"/>
<path d="M254.85 143.768C257.097 143.378 258.388 140.001 257.733 136.224C257.078 132.448 254.725 129.702 252.478 130.092C250.231 130.482 248.94 133.859 249.595 137.636C250.25 141.412 252.603 144.158 254.85 143.768Z" fill="#512BD4"/>
<path d="M253.09 133.5C253.79 132.54 254.86 131.99 255.96 131.92C256.79 133.01 257.44 134.51 257.73 136.23C257.92 137.3 257.94 138.33 257.84 139.28C256.61 139.85 255.12 139.76 253.94 138.9C252.21 137.64 251.83 135.22 253.09 133.5Z" fill="#8065E0"/>
<path d="M198.07 203.53C197.53 202.81 184.79 185.77 189.07 167.88C191.54 157.54 199.02 149.28 211.29 143.33L215.57 152.15C206.09 156.75 200.38 162.8 198.61 170.12C195.39 183.47 205.77 197.48 205.88 197.62L198.07 203.53Z" fill="url(#paint6_linear)"/>
<path d="M213.47 157.39C218.822 157.39 223.16 153.052 223.16 147.7C223.16 142.348 218.822 138.01 213.47 138.01C208.118 138.01 203.78 142.348 203.78 147.7C203.78 153.052 208.118 157.39 213.47 157.39Z" fill="url(#paint7_radial)"/>
<path d="M217.77 195.24L204.73 188.9C202.41 187.77 199.61 188.74 198.48 191.06C197.35 193.38 198.32 196.18 200.64 197.31L213.68 203.65C216 204.78 218.8 203.81 219.93 201.49C221.07 199.17 220.1 196.37 217.77 195.24Z" fill="#8A6FE8"/>
<path d="M189.76 198.83L188.01 208.42C187.56 210.98 189.27 213.42 191.83 213.87C194.39 214.32 196.83 212.61 197.28 210.05L199.08 200.21L189.76 198.83Z" fill="#8A6FE8"/>
<path d="M193.02 202.97L196.29 216.01C196.93 218.53 199.49 220.05 202.01 219.41C204.53 218.77 206.05 216.21 205.41 213.69L203.01 203.98L193.02 202.97Z" fill="#8A6FE8"/>
<path d="M198.07 200.23L204.23 212.2C205.41 214.51 208.25 215.43 210.56 214.24C212.87 213.06 213.79 210.22 212.6 207.91L206.33 195.72L198.07 200.23Z" fill="#8A6FE8"/>
<path d="M199.15 207.2C204.59 207.2 209 202.79 209 197.35C209 191.91 204.59 187.5 199.15 187.5C193.71 187.5 189.3 191.91 189.3 197.35C189.3 202.79 193.71 207.2 199.15 207.2Z" fill="url(#paint8_radial)"/>
<path d="M232.77 81.21L242.5 79.63L238.11 62.23L231.12 63.36L232.77 81.21Z" fill="#8A6FE8"/>
<path d="M237.46 69.49C234.06 70.98 230.08 69.46 228.57 66.1C227.06 62.74 228.59 58.81 231.99 57.32C235.39 55.83 239.37 57.35 240.88 60.71C242.39 64.08 240.86 68 237.46 69.49Z" fill="#D8CFF7"/>
<path d="M230.05 87.85C229.61 87.92 229.19 87.6 229.18 87.16C228.93 82.51 232.25 78.32 237.01 77.56C241.77 76.79 246.27 79.71 247.55 84.19C247.67 84.61 247.38 85.04 246.94 85.11L230.05 87.85Z" fill="#522CD5"/>
<path d="M243.43 205.96L247.77 212.41L223.94 251.45L208.49 228.53C207.83 227.54 208.13 226.27 209.16 225.67L243.43 205.96Z" fill="#522CD5"/>
<path d="M237 251.22C237.02 252.94 235.56 254.03 234.15 254.84L229.82 257.33C229.05 257.77 228.01 257.53 227.51 256.79L222.06 248.68C221.5 247.84 221.75 246.75 222.63 246.25L226.99 243.48C228.62 242.54 229.51 241.74 229.51 239.45C229.53 225.93 234.75 215.32 244.98 208.25L248.95 214.15C243.93 218.12 236.79 228.68 237 251.22Z" fill="url(#paint9_linear)"/>
<path d="M227.51 256.79C228.01 257.53 229.05 257.77 229.82 257.33L234.15 254.84C235.08 254.31 236.01 253.65 236.55 252.78L229.05 241.63C228.63 242.42 227.94 242.93 226.98 243.48L222.62 246.25C221.74 246.75 221.49 247.84 222.05 248.68L227.51 256.79Z" fill="url(#paint10_radial)"/>
<path d="M309.55 119.63L308.93 134.12C308.82 136.7 310.82 138.88 313.41 138.99C315.99 139.1 318.17 137.1 318.28 134.51L318.9 120.02C319.01 117.44 317.01 115.26 314.42 115.15C311.85 115.05 309.66 117.05 309.55 119.63Z" fill="#8A6FE8"/>
<path d="M324 143.9L333.5 141.69C336.03 141.08 337.58 138.54 336.98 136.02C336.37 133.49 333.83 131.94 331.31 132.54L321.57 134.81L324 143.9Z" fill="#8A6FE8"/>
<path d="M326.51 139.26L337.17 131.06C339.22 129.47 339.6 126.51 338.01 124.46C336.42 122.41 333.46 122.03 331.41 123.62L323.47 129.69L326.51 139.26Z" fill="#8A6FE8"/>
<path d="M321.98 135.72L330.51 125.31C332.16 123.3 331.87 120.34 329.86 118.69C327.85 117.04 324.89 117.33 323.24 119.34L314.55 129.94L321.98 135.72Z" fill="#8A6FE8"/>
<path d="M318.91 145.72C324.35 145.72 328.76 141.31 328.76 135.87C328.76 130.43 324.35 126.02 318.91 126.02C313.47 126.02 309.06 130.43 309.06 135.87C309.06 141.31 313.47 145.72 318.91 145.72Z" fill="url(#paint11_radial)"/>
<path d="M287.71 138.577C289.957 138.188 291.248 134.81 290.593 131.034C289.938 127.257 287.585 124.512 285.338 124.901C283.09 125.291 281.8 128.669 282.455 132.445C283.11 136.222 285.463 138.967 287.71 138.577Z" fill="#512BD4"/>
<path d="M285.94 128.31C286.64 127.35 287.71 126.8 288.81 126.73C289.64 127.82 290.29 129.32 290.58 131.04C290.77 132.11 290.79 133.14 290.69 134.09C289.46 134.66 287.97 134.57 286.79 133.71C285.07 132.45 284.69 130.04 285.94 128.31Z" fill="#8065E0"/>
<path d="M163.71 125.85L187.64 149.1L180.8 124.48L163.71 125.85Z" fill="#FFD590"/>
<path d="M346.36 78.93C357.914 78.93 367.28 69.5638 367.28 58.01C367.28 46.4562 357.914 37.09 346.36 37.09C334.806 37.09 325.44 46.4562 325.44 58.01C325.44 69.5638 334.806 78.93 346.36 78.93Z" fill="#1BA1B5"/>
<path d="M340.73 65.48H338.46V51.47H346.37V53.41H340.73V57.79H346.01V59.74H340.73V65.48Z" fill="white"/>
<path d="M356.54 57.14L356.01 59.86H358.6V61.47H355.69L354.92 65.48H353.21L353.98 61.47H351.6L350.83 65.48H349.16L349.89 61.47H347.49V59.86H350.2L350.75 57.14H348.22V55.53H351.03L351.8 51.48H353.53L352.76 55.53H355.18L355.95 51.48H357.62L356.85 55.53H359.27V57.14H356.54ZM351.91 59.86H354.31L354.86 57.14H352.46L351.91 59.86Z" fill="white"/>
<path d="M547.58 60.19L448.72 58.17C446.74 58.13 445.14 59.76 445.21 61.74L447.66 130.42C447.73 132.27 449.25 133.74 451.1 133.74H469.25L466.26 146.84L490.1 133.74H547.02C548.91 133.74 550.45 132.21 550.46 130.32L550.95 63.65C550.97 61.78 549.46 60.23 547.58 60.19Z" fill="#98C2F5"/>
<path d="M502.98 105.77H495.39V126.09H502.98V105.77Z" fill="#0064DA"/>
<path d="M530.14 128.91L529.57 122.39C529.42 120.72 528.02 119.43 526.34 119.43H471.34C469.75 119.43 468.43 120.64 468.29 122.22L467.7 128.91H530.14Z" fill="#3E8EED"/>
<path d="M529.04 104.74L527.76 90.19C527.23 84.16 522.18 79.54 516.13 79.54H481.71C475.66 79.54 470.61 84.16 470.08 90.19L468.8 104.74C468.66 106.34 469.92 107.71 471.52 107.71H491.26C492.12 111.45 495.46 114.24 499.47 114.24C503.47 114.24 506.82 111.45 507.68 107.71H526.34C527.92 107.71 529.18 106.34 529.04 104.74Z" fill="#3E8EED"/>
<path d="M515.98 91.46H482.39C479.7 91.46 477.51 93.64 477.51 96.34C477.51 99.03 479.69 101.22 482.39 101.22H515.98C518.67 101.22 520.86 99.04 520.86 96.34C520.86 93.64 518.67 91.46 515.98 91.46Z" fill="#0064DA"/>
<path d="M484.62 99.67C486.663 99.67 488.32 98.0135 488.32 95.97C488.32 93.9266 486.663 92.27 484.62 92.27C482.576 92.27 480.92 93.9266 480.92 95.97C480.92 98.0135 482.576 99.67 484.62 99.67Z" fill="white"/>
<path d="M496.54 99.67C498.583 99.67 500.24 98.0135 500.24 95.97C500.24 93.9266 498.583 92.27 496.54 92.27C494.496 92.27 492.84 93.9266 492.84 95.97C492.84 98.0135 494.496 99.67 496.54 99.67Z" fill="white"/>
<path d="M475.46 125.94C476.437 125.94 477.23 125.148 477.23 124.17C477.23 123.192 476.437 122.4 475.46 122.4C474.482 122.4 473.69 123.192 473.69 124.17C473.69 125.148 474.482 125.94 475.46 125.94Z" fill="#C7E0F4"/>
<path d="M481.97 125.94C482.947 125.94 483.74 125.148 483.74 124.17C483.74 123.192 482.947 122.4 481.97 122.4C480.992 122.4 480.2 123.192 480.2 124.17C480.2 125.148 480.992 125.94 481.97 125.94Z" fill="#C7E0F4"/>
<path d="M488.47 125.94C489.447 125.94 490.24 125.148 490.24 124.17C490.24 123.192 489.447 122.4 488.47 122.4C487.492 122.4 486.7 123.192 486.7 124.17C486.7 125.148 487.492 125.94 488.47 125.94Z" fill="#C7E0F4"/>
<path d="M547.03 87.57C558.584 87.57 567.95 78.2038 567.95 66.65C567.95 55.0962 558.584 45.73 547.03 45.73C535.476 45.73 526.11 55.0962 526.11 66.65C526.11 78.2038 535.476 87.57 547.03 87.57Z" fill="#3E8EED"/>
<path d="M542.87 61.2C541.55 61.2 540.52 61.67 539.76 62.6C539.01 63.53 538.63 64.82 538.63 66.46C538.63 68.18 538.99 69.48 539.72 70.36C540.45 71.24 541.5 71.68 542.87 71.68C543.46 71.68 544.04 71.62 544.6 71.5C545.16 71.38 545.73 71.23 546.34 71.04V73.01C545.24 73.43 543.99 73.63 542.6 73.63C540.55 73.63 538.97 73.01 537.87 71.77C536.77 70.53 536.22 68.75 536.22 66.43C536.22 64.97 536.49 63.7 537.02 62.6C537.55 61.51 538.33 60.67 539.34 60.09C540.35 59.51 541.54 59.22 542.9 59.22C544.33 59.22 545.66 59.52 546.87 60.12L546.05 62.03C545.58 61.81 545.08 61.61 544.55 61.44C544.01 61.29 543.45 61.2 542.87 61.2Z" fill="white"/>
<path d="M556.99 65.11L556.46 67.83H559.05V69.44H556.14L555.37 73.45H553.66L554.43 69.44H552.05L551.28 73.45H549.61L550.34 69.44H547.94V67.83H550.65L551.2 65.11H548.67V63.5H551.48L552.25 59.45H553.98L553.21 63.5H555.63L556.4 59.45H558.07L557.3 63.5H559.72V65.11H556.99ZM552.35 67.84H554.75L555.3 65.12H552.9L552.35 67.84Z" fill="white"/>
<path d="M139.2 88.4001C150.754 88.4001 160.12 79.0339 160.12 67.4801C160.12 55.9263 150.754 46.5601 139.2 46.5601C127.646 46.5601 118.28 55.9263 118.28 67.4801C118.28 79.0339 127.646 88.4001 139.2 88.4001Z" fill="#F7B548"/>
<path d="M136.89 61.22H139.27L134.36 75.24H131.94L127.05 61.22H129.41L132.33 69.94C132.48 70.36 132.65 70.89 132.82 71.55C132.99 72.21 133.1 72.69 133.16 73.01C133.24 72.52 133.37 71.96 133.54 71.32C133.71 70.68 133.85 70.21 133.96 69.9L136.89 61.22Z" fill="white"/>
<path d="M141.12 61.22H145.28C147.21 61.22 148.61 61.5 149.47 62.06C150.33 62.62 150.76 63.51 150.76 64.73C150.76 65.55 150.55 66.23 150.13 66.77C149.71 67.31 149.1 67.66 148.31 67.8V67.9C149.29 68.09 150.02 68.45 150.48 69C150.94 69.55 151.18 70.29 151.18 71.22C151.18 72.48 150.74 73.47 149.86 74.18C148.98 74.89 147.76 75.25 146.19 75.25H141.13V61.22H141.12ZM143.41 67.01H145.62C146.58 67.01 147.28 66.86 147.72 66.55C148.16 66.25 148.38 65.73 148.38 65C148.38 64.34 148.14 63.87 147.67 63.57C147.19 63.28 146.44 63.13 145.4 63.13H143.42V67.01H143.41ZM143.41 68.87V73.31H145.85C146.81 73.31 147.53 73.13 148.02 72.76C148.51 72.39 148.75 71.81 148.75 71.02C148.75 70.29 148.5 69.75 148 69.4C147.5 69.05 146.74 68.87 145.73 68.87H143.41Z" fill="white"/>
<path d="M172.5 100.37C171.77 100.37 171.17 99.78 171.16 99.04C171.15 98.3 171.75 97.7 172.49 97.69L192.92 97.52C193.67 97.51 194.26 98.11 194.27 98.85C194.28 99.59 193.68 100.19 192.94 100.2L172.51 100.37H172.5Z" fill="white"/>
<path d="M165.03 100.2H120.19C119.45 100.2 118.85 99.6 118.85 98.86C118.85 98.12 119.45 97.52 120.19 97.52H165.03C165.77 97.52 166.37 98.12 166.37 98.86C166.37 99.6 165.77 100.2 165.03 100.2Z" fill="white"/>
<path d="M147.42 111.37C146.69 111.37 146.09 110.79 146.08 110.05C146.07 109.31 146.66 108.7 147.4 108.69L179.79 108.15C180.51 108.14 181.14 108.73 181.15 109.47C181.16 110.21 180.57 110.82 179.83 110.83L147.44 111.37C147.43 111.37 147.43 111.37 147.42 111.37Z" fill="white"/>
<path d="M120.03 111.82C119.3 111.82 118.7 111.24 118.69 110.5C118.68 109.76 119.27 109.15 120.01 109.14L139.27 108.81C140 108.79 140.62 109.39 140.63 110.13C140.64 110.87 140.05 111.48 139.31 111.49L120.05 111.82C120.04 111.82 120.03 111.82 120.03 111.82Z" fill="white"/>
<defs>
<linearGradient id="paint0_linear" x1="241.889" y1="174.97" x2="250.192" y2="214.515" gradientUnits="userSpaceOnUse">
<stop offset="0.252" stop-color="#522CD5"/>
<stop offset="0.5558" stop-color="#8A6FE8"/>
</linearGradient>
<linearGradient id="paint1_linear" x1="248.509" y1="212.402" x2="273.175" y2="256.379" gradientUnits="userSpaceOnUse">
<stop stop-color="#522CD5"/>
<stop offset="0.4397" stop-color="#8A6FE8"/>
</linearGradient>
<radialGradient id="paint2_radial" cx="0" cy="0" r="1" gradientUnits="userSpaceOnUse" gradientTransform="translate(266.959 236.801) rotate(-0.260742) scale(17.0951)">
<stop offset="0.034" stop-color="#522CD5"/>
<stop offset="0.9955" stop-color="#8A6FE8"/>
</radialGradient>
<linearGradient id="paint3_linear" x1="256.86" y1="176.63" x2="256.86" y2="214.271" gradientUnits="userSpaceOnUse">
<stop offset="0.252" stop-color="#522CD5"/>
<stop offset="0.5558" stop-color="#8A6FE8"/>
</linearGradient>
<radialGradient id="paint4_radial" cx="0" cy="0" r="1" gradientUnits="userSpaceOnUse" gradientTransform="translate(255.341 113.99) rotate(171.013) scale(52.5652)">
<stop offset="0.4744" stop-color="#A08BE8"/>
<stop offset="0.8618" stop-color="#8065E0"/>
</radialGradient>
<radialGradient id="paint5_radial" cx="0" cy="0" r="1" gradientUnits="userSpaceOnUse" gradientTransform="translate(290.872 110.351) rotate(171.013) scale(54.4744)">
<stop offset="0.0933" stop-color="#E1DFDD"/>
<stop offset="0.6573" stop-color="white"/>
</radialGradient>
<linearGradient id="paint6_linear" x1="195.222" y1="149.087" x2="212.896" y2="198.171" gradientUnits="userSpaceOnUse">
<stop offset="0.2495" stop-color="#967FE6"/>
<stop offset="1" stop-color="#8A6FE8"/>
</linearGradient>
<radialGradient id="paint7_radial" cx="0" cy="0" r="1" gradientUnits="userSpaceOnUse" gradientTransform="translate(211.242 144.75) rotate(-8.98663) scale(9.69456)">
<stop stop-color="#8065E0"/>
<stop offset="1" stop-color="#512BD4"/>
</radialGradient>
<radialGradient id="paint8_radial" cx="0" cy="0" r="1" gradientUnits="userSpaceOnUse" gradientTransform="translate(200.172 193.503) rotate(18.3244) scale(9.85099)">
<stop stop-color="#8065E0"/>
<stop offset="1" stop-color="#512BD4"/>
</radialGradient>
<linearGradient id="paint9_linear" x1="250.262" y1="211.037" x2="226.886" y2="256.79" gradientUnits="userSpaceOnUse">
<stop stop-color="#522CD5"/>
<stop offset="0.4397" stop-color="#8A6FE8"/>
</linearGradient>
<radialGradient id="paint10_radial" cx="0" cy="0" r="1" gradientUnits="userSpaceOnUse" gradientTransform="translate(239.275 242.525) rotate(56.0938) scale(15.838)">
<stop offset="0.034" stop-color="#522CD5"/>
<stop offset="0.9955" stop-color="#8A6FE8"/>
</radialGradient>
<radialGradient id="paint11_radial" cx="0" cy="0" r="1" gradientUnits="userSpaceOnUse" gradientTransform="translate(322.629 132.858) rotate(52.627) scale(9.84909)">
<stop stop-color="#8065E0"/>
<stop offset="1" stop-color="#512BD4"/>
</radialGradient>
</defs>
</svg>
