<svg width="636" height="300" viewBox="0 0 636 300" fill="none" xmlns="http://www.w3.org/2000/svg">
<path d="M510.22 227.11C399.85 253.48 205.14 267.54 140.82 242.48C59.06 210.63 175.34 177.24 252.54 189.69C318.4 200.31 359.62 198.26 409.28 192.57C516.63 180.27 592.71 207.4 510.22 227.11Z" fill="url(#paint0_linear)"/>
<path d="M425.2 62.76L457.68 66.62C458.32 66.7 458.8 67.24 458.8 67.89V206.77C458.8 207.43 458.3 207.98 457.64 208.04L424.31 211.26C423.56 211.34 422.9 210.74 422.92 209.97L423.77 63.98C423.79 63.26 424.45 62.68 425.2 62.76Z" fill="#70D6E0"/>
<path d="M444.59 80.34L471.83 83.37C472.7 83.47 473.35 84.2 473.35 85.07V205.21C473.35 206.04 472.75 206.77 471.92 206.89L445.24 211.13C444.24 211.3 443.33 210.57 443.27 209.55C442.44 195.79 437.31 110.39 438.32 99.92C439.19 91.07 441.73 84.05 442.81 81.36C443.11 80.68 443.82 80.26 444.59 80.34Z" fill="#EA7F6B"/>
<path d="M422.83 211.41H385.57C384.61 211.41 383.85 210.64 383.85 209.69V63.82C383.85 62.86 384.62 62.1 385.57 62.1H422.83C423.79 62.1 424.55 62.87 424.55 63.82V209.69C424.55 210.65 423.79 211.41 422.83 211.41Z" fill="#22B2C3"/>
<path d="M443.34 211.41H425.6C425.06 211.41 424.62 210.97 424.62 210.43V80.99C424.62 80.45 425.06 80.01 425.6 80.01H443.34C443.88 80.01 444.32 80.45 444.32 80.99V210.44C444.29 210.98 443.86 211.41 443.34 211.41Z" fill="#DF6551"/>
<path d="M466.32 209.9L490.14 208.87C490.8 208.87 491.47 208.79 492.11 208.62L517.49 203.96L473.31 202.67L466.32 209.9Z" fill="#B3AFAB"/>
<path d="M474.76 106.94L494.89 108.98C495.62 109.06 496.22 109.58 496.39 110.27L518.79 201.86C519.06 202.94 518.23 204 517.11 203.98L491.3 203.69C490.47 203.69 489.78 203.09 489.64 202.28L472.89 108.94C472.7 107.83 473.63 106.84 474.76 106.94Z" fill="#F8BB55"/>
<path d="M492.71 204.41L467.11 209.79C465.84 210.06 464.62 209.25 464.35 207.98L444.78 114.91C444.51 113.64 445.32 112.42 446.59 112.15L472.19 106.77C473.46 106.5 474.68 107.31 474.95 108.58L494.52 201.65C494.79 202.92 493.98 204.14 492.71 204.41Z" fill="#E29E3B"/>
<path d="M477.64 153.5L460.91 157.01C459.83 157.24 458.77 156.55 458.54 155.47L451.95 124.53C451.72 123.45 452.41 122.39 453.49 122.16L470.22 118.65C471.3 118.42 472.36 119.11 472.59 120.19L479.18 151.13C479.43 152.22 478.72 153.28 477.64 153.5Z" fill="#F8B84F"/>
<path d="M424.55 73.15H383.84V109.28H424.55V73.15Z" fill="#40C9D6"/>
<path d="M440.22 102.7H428.27V173.29H440.22V102.7Z" fill="#CC5444"/>
<path d="M367.75 41.65L237.24 52.73C236.08 52.83 235.14 53.94 235.12 55.18L232.83 234.81C232.81 236.16 233.77 237.34 234.97 237.43L373.69 236.81C375.19 236.93 376.39 235.79 376.37 234.28L376.31 46.96C376.14 43.83 376.06 41.07 367.75 41.65ZM363.65 218.96C363.67 220.1 362.78 220.95 361.66 220.87L245.74 224.09C244.83 224.03 244.1 223.15 244.1 222.12L245.8 67.03C245.82 66.05 246.55 65.22 247.42 65.16L357.92 57.26C359 57.18 364.78 57.57 364.78 58.65L363.65 218.96Z" fill="#84817D"/>
<path d="M241.49 170.19H139.53L102 177.44L235.98 180.91L241.49 170.19Z" fill="#22B2C3"/>
<path d="M241.2 204.1L205.67 212.22V177.44L241.49 170.48L241.2 204.1Z" fill="#CFEFEB"/>
<path d="M206 212.23C206 212.23 148.42 212.04 102.04 212.23C102.89 195.71 102.04 177.45 102.04 177.45H206V212.23Z" fill="#70D6E0"/>
<path d="M203.86 210.46H104L104.06 209.63C104.06 209.51 105.06 196.21 104.02 179.38L105.58 179.28C106.47 193.83 105.87 205.73 105.68 208.91H203.88V210.47H203.86V210.46Z" fill="#1BA1B5"/>
<path d="M207.83 160.71H127.79L98.3901 163.24L203.51 164.45L207.83 160.71Z" fill="#3E8EED"/>
<path d="M207.6 172.56L179.72 175.41V163.25L207.83 160.82L207.6 172.56Z" fill="#D3E7F8"/>
<path d="M179.97 175.41C179.97 175.41 134.78 175.35 98.3501 175.41C98.6401 170.22 98.3501 163.25 98.3501 163.25H179.97V175.41Z" fill="#81B5F3"/>
<path d="M101.65 164.68H100.09V174.24H101.65V164.68Z" fill="#3E8EED"/>
<path d="M367.08 41.59L232.17 52.73C231.01 52.83 230.07 53.94 230.05 55.18L227.76 234.81C227.74 236.16 228.7 237.35 229.9 237.43L368.62 236.81C370.12 236.93 371.32 235.79 371.3 234.28L371.24 45.17C371.07 42.03 368.51 41.49 367.08 41.59ZM358.58 218.96C358.6 220.1 357.71 220.95 356.59 220.87L240.67 224.09C239.76 224.03 239.03 223.15 239.03 222.12L240.73 67.03C240.75 66.05 241.48 65.22 242.35 65.16L352.85 57.26C353.93 57.18 359.71 57.57 359.71 58.65L358.58 218.96Z" fill="#605D5A"/>
<path d="M362.3 86.53L237.92 92.56L236.36 227.12L362.38 225.81L362.3 86.53Z" fill="#3E8EED"/>
<path d="M362.45 86.53L237.92 92.56L238.27 62.43L362.3 52.91L362.45 86.53Z" fill="#76AFF2"/>
<path d="M327.83 143.14C327.93 161.05 314.01 175.33 297.16 174.95C280.74 174.56 267.86 160.36 267.97 143.35C268.07 126.42 280.96 112.41 297.16 111.93C313.8 111.43 327.73 125.35 327.83 143.14Z" fill="white"/>
<path d="M290.47 155.46L290.51 131.5C290.51 130.48 291.63 129.86 292.5 130.4L311.6 142.12C312.41 142.62 312.43 143.8 311.62 144.32L292.48 156.56C291.61 157.1 290.47 156.48 290.47 155.46Z" fill="#F7B548"/>
<path d="M340.05 79.28L273.75 82.9C271.78 83 270.18 81.38 270.18 79.28C270.2 77.18 271.8 75.39 273.77 75.27L339.97 71.24C342.19 71.09 344 72.8 344.02 75.02C344.06 77.27 342.27 79.16 340.05 79.28Z" fill="white"/>
<path d="M248.98 84.25L256.54 83.83L256.6 76.33L249.04 76.79L248.98 84.25Z" fill="white"/>
<path d="M344.08 203.6L250.47 204.18L250.53 197.26L344.01 196.1L344.08 203.6Z" fill="#4D4D4D"/>
<path d="M260.59 197.14L250.53 197.26L250.47 204.18L260.59 204.12V197.14Z" fill="white"/>
<path d="M440.22 102.7H428.27V123.1H440.22V102.7Z" fill="white"/>
<path d="M404.19 197.16C409.32 197.16 413.48 193 413.48 187.87C413.48 182.74 409.32 178.58 404.19 178.58C399.06 178.58 394.9 182.74 394.9 187.87C394.9 193 399.06 197.16 404.19 197.16Z" fill="#40C9D6"/>
<defs>
<linearGradient id="paint0_linear" x1="328.497" y1="185.094" x2="329.671" y2="254.435" gradientUnits="userSpaceOnUse">
<stop stop-color="#B8D6F7"/>
<stop offset="1" stop-color="#E1EFF9"/>
</linearGradient>
</defs>
</svg>
