<svg width="636" height="300" viewBox="0 0 636 300" fill="none" xmlns="http://www.w3.org/2000/svg">
<path d="M502.23 231.46C386.38 259.14 182.01 273.9 114.5 247.6C28.6798 214.17 150.74 179.12 231.77 192.19C300.9 203.34 344.16 201.18 396.29 195.21C508.96 182.29 588.81 210.77 502.23 231.46Z" fill="url(#paint0_linear)"/>
<path d="M412.99 58.95L447.08 63.01C447.76 63.1 448.26 63.66 448.26 64.34V210.12C448.26 210.82 447.74 211.38 447.04 211.45L412.06 214.83C411.27 214.92 410.58 214.28 410.6 213.48L411.49 60.24C411.51 59.48 412.21 58.86 412.99 58.95Z" fill="#70D6E0"/>
<path d="M433.34 77.4L461.93 80.58C462.85 80.69 463.52 81.45 463.52 82.37V208.48C463.52 209.35 462.89 210.12 462.02 210.25L434.02 214.7C432.97 214.87 432.01 214.11 431.95 213.04C431.08 198.6 425.69 108.96 426.76 97.97C427.68 88.68 430.34 81.31 431.47 78.49C431.79 77.75 432.53 77.32 433.34 77.4Z" fill="#EA7F6B"/>
<path d="M410.51 214.98H371.4C370.4 214.98 369.59 214.17 369.59 213.17V60.06C369.59 59.06 370.4 58.25 371.4 58.25H410.51C411.51 58.25 412.32 59.06 412.32 60.06V213.17C412.32 214.17 411.51 214.98 410.51 214.98Z" fill="#22B2C3"/>
<path d="M432.03 214.98H413.4C412.83 214.98 412.37 214.52 412.37 213.95V78.08C412.37 77.51 412.83 77.05 413.4 77.05H432.03C432.6 77.05 433.06 77.51 433.06 78.08V213.96C433.04 214.52 432.58 214.98 432.03 214.98Z" fill="#DF6551"/>
<path d="M456.15 213.39L481.15 212.31C481.85 212.31 482.55 212.22 483.22 212.05L509.86 207.16L463.49 205.81L456.15 213.39Z" fill="#B3AFAB"/>
<path d="M465.01 105.32L486.14 107.46C486.9 107.55 487.54 108.09 487.71 108.81L511.22 204.95C511.5 206.08 510.63 207.2 509.45 207.17L482.36 206.86C481.49 206.86 480.77 206.23 480.62 205.38L463.04 107.41C462.85 106.26 463.83 105.21 465.01 105.32Z" fill="#F8BB55"/>
<path d="M483.85 207.63L456.98 213.28C455.65 213.56 454.36 212.71 454.08 211.38L433.53 113.69C433.25 112.36 434.1 111.07 435.43 110.79L462.3 105.14C463.63 104.86 464.92 105.71 465.2 107.04L485.75 204.73C486.03 206.06 485.18 207.35 483.85 207.63Z" fill="#E29E3B"/>
<path d="M468.04 154.2L450.48 157.89C449.35 158.13 448.23 157.41 447.99 156.28L441.08 123.8C440.84 122.67 441.56 121.55 442.69 121.31L460.25 117.62C461.38 117.38 462.5 118.1 462.74 119.23L469.65 151.71C469.92 152.84 469.17 153.96 468.04 154.2Z" fill="#F8B84F"/>
<path d="M412.32 69.86H369.59V107.79H412.32V69.86Z" fill="#40C9D6"/>
<path d="M428.76 100.87H416.22V174.96H428.76V100.87Z" fill="#CC5444"/>
<path d="M352.69 36.79L215.7 48.42C214.48 48.53 213.5 49.68 213.48 50.99L211.08 239.54C211.06 240.96 212.06 242.2 213.33 242.29L358.93 241.64C360.5 241.77 361.77 240.57 361.74 238.98L361.67 42.36C361.5 39.08 361.41 36.18 352.69 36.79ZM348.39 222.9C348.41 224.1 347.47 224.99 346.3 224.91L224.62 228.29C223.66 228.22 222.9 227.31 222.9 226.22L224.69 63.43C224.71 62.4 225.48 61.53 226.39 61.47L342.38 53.18C343.51 53.09 349.58 53.51 349.58 54.64L348.39 222.9Z" fill="#84817D"/>
<path d="M220.17 171.71H113.15L73.7598 179.32L214.39 182.96L220.17 171.71Z" fill="#22B2C3"/>
<path d="M219.86 207.3L182.56 215.83V179.32L220.16 172.01L219.86 207.3Z" fill="#CFEFEB"/>
<path d="M182.92 215.83C182.92 215.83 122.48 215.63 73.7998 215.83C74.6898 198.49 73.7998 179.32 73.7998 179.32H182.92V215.83Z" fill="#70D6E0"/>
<path d="M180.67 213.98H75.8501L75.9201 213.11C75.9201 212.98 76.9701 199.02 75.8801 181.35L77.5201 181.24C78.4601 196.51 77.8301 209 77.6301 212.34H180.7V213.98H180.67Z" fill="#1BA1B5"/>
<path d="M184.84 161.76H100.83L69.9697 164.42L180.31 165.68L184.84 161.76Z" fill="#3E8EED"/>
<path d="M184.6 174.2L155.33 177.19V164.43L184.84 161.88L184.6 174.2Z" fill="#D3E7F8"/>
<path d="M155.59 177.18C155.59 177.18 108.15 177.11 69.9199 177.18C70.2299 171.73 69.9199 164.42 69.9199 164.42H155.59V177.18Z" fill="#81B5F3"/>
<path d="M73.39 165.93H71.75V175.96H73.39V165.93Z" fill="#3E8EED"/>
<path d="M351.99 36.73L210.38 48.42C209.16 48.53 208.18 49.68 208.16 50.99L205.76 239.54C205.74 240.96 206.74 242.2 208.01 242.29L353.61 241.64C355.18 241.77 356.45 240.57 356.42 238.98L356.35 40.49C356.18 37.19 353.49 36.62 351.99 36.73ZM343.07 222.9C343.09 224.1 342.15 224.99 340.98 224.91L219.3 228.29C218.34 228.22 217.58 227.31 217.58 226.22L219.37 63.43C219.39 62.4 220.16 61.53 221.07 61.47L337.06 53.18C338.19 53.09 344.26 53.51 344.26 54.64L343.07 222.9Z" fill="#605D5A"/>
<path d="M346.97 83.9L216.41 90.22L214.77 231.46L347.05 230.09L346.97 83.9Z" fill="#3E8EED"/>
<path d="M347.13 83.9L216.42 90.22L216.79 58.6L346.97 48.61L347.13 83.9Z" fill="#76AFF2"/>
<path d="M310.79 143.31C310.9 162.11 296.29 177.09 278.6 176.7C261.37 176.29 247.85 161.39 247.96 143.53C248.07 125.75 261.59 111.05 278.6 110.55C296.07 110.03 310.68 124.64 310.79 143.31Z" fill="white"/>
<path d="M271.58 156.25L271.62 131.1C271.62 130.03 272.8 129.38 273.71 129.94L293.75 142.24C294.6 142.76 294.62 144.01 293.77 144.55L273.68 157.4C272.77 157.97 271.58 157.32 271.58 156.25Z" fill="#F7B548"/>
<path d="M323.61 76.29L254.01 80.08C251.94 80.19 250.26 78.49 250.26 76.29C250.28 74.09 251.96 72.21 254.03 72.08L323.52 67.85C325.85 67.7 327.75 69.49 327.77 71.82C327.82 74.18 325.95 76.16 323.61 76.29Z" fill="white"/>
<path d="M228.02 81.5L235.96 81.06L236.03 73.19L228.09 73.67L228.02 81.5Z" fill="white"/>
<path d="M327.85 206.78L229.6 207.39L229.67 200.13L327.79 198.91L327.85 206.78Z" fill="#4D4D4D"/>
<path d="M240.21 200L229.65 200.13L229.58 207.39L240.2 207.32V200H240.21Z" fill="white"/>
<path d="M428.76 100.87H416.22V122.29H428.76V100.87Z" fill="white"/>
<path d="M390.94 200.02C396.32 200.02 400.69 195.66 400.69 190.27C400.69 184.89 396.33 180.52 390.94 180.52C385.56 180.52 381.19 184.88 381.19 190.27C381.19 195.65 385.56 200.02 390.94 200.02Z" fill="#40C9D6"/>
<path d="M404.57 86.69C404.11 85.99 399.68 78.31 399.14 77.38C398.59 76.44 397.83 76.14 396.81 76.14C396.55 76.14 396 76.14 395.26 76.14C393.23 76.14 389.52 76.14 387.34 76.14C386.6 76.14 386.05 76.14 385.79 76.14C384.79 76.14 384 76.45 383.46 77.38C382.91 78.32 378.49 85.99 378.03 86.69C377.57 87.39 377.57 88.24 378.34 89.63C379.13 91.03 382.99 97.85 383.47 98.7C383.95 99.55 384.63 100.05 385.8 100.05C386.06 100.05 386.67 100.05 387.46 100.05C390.21 100.05 395.14 100.05 395.14 100.05C395.93 100.05 396.54 100.05 396.8 100.05C397.96 100.05 398.65 99.55 399.13 98.7C399.61 97.85 403.47 91.02 404.26 89.63C405.05 88.24 405.05 87.39 404.57 86.69ZM397.35 94.33H394.8L391.33 88.33L387.86 94.33H385.31L388.8 88.11L385.31 81.89H387.91L391.33 87.89L394.75 81.89H397.35L393.86 88.11L397.35 94.33Z" fill="#0B7891"/>
<defs>
<linearGradient id="paint0_linear" x1="311.49" y1="187.354" x2="312.723" y2="260.137" gradientUnits="userSpaceOnUse">
<stop stop-color="#B8D6F7"/>
<stop offset="1" stop-color="#E1EFF9"/>
</linearGradient>
</defs>
</svg>
