<svg width="636" height="300" viewBox="0 0 636 300" fill="none" xmlns="http://www.w3.org/2000/svg">
<path d="M394.93 141.53L311.44 146.65V221.92L394.93 226.72V141.53Z" fill="#FAC369"/>
<path d="M542.99 143.15L450.88 147.94C448.25 148.08 446.05 145.99 446.05 143.35V64.23C446.05 61.99 447.66 60.08 449.86 59.71L541.97 43.79C544.77 43.31 547.35 45.46 547.35 48.31V138.55C547.34 141.02 545.43 143.03 542.99 143.15Z" fill="#FAC369"/>
<path d="M342.93 203.92C342.25 195.76 337.97 189.12 332.27 180.55C326.57 171.98 327.49 152.57 349.32 152.12C370.93 151.68 374.77 170.8 367.19 183.2C361.22 192.95 358.95 195.91 359.25 204.57C359.55 213.21 343.79 214.36 342.93 203.92Z" fill="white"/>
<path d="M364.28 168.83C364.05 168.62 363.67 168.62 363.44 168.84C362.61 169.64 359.84 170.93 356.06 171.72L356.32 168.04C356.34 167.73 356.1 167.47 355.76 167.45C355.44 167.43 355.15 167.66 355.13 167.97L354.84 171.96C351.78 172.48 348.17 172.64 344.42 171.97L343.94 168.53C343.89 168.22 343.6 168 343.27 168.05C342.95 168.09 342.71 168.37 342.76 168.68L343.19 171.73C341.15 171.28 339.1 170.57 337.08 169.55C336.79 169.4 336.43 169.5 336.27 169.77C336.11 170.04 336.22 170.38 336.51 170.53C338.78 171.69 341.08 172.45 343.35 172.93L347.97 205.81C348.01 206.05 348.2 206.24 348.45 206.29C348.48 206.29 348.51 206.3 348.52 206.3L352.97 206.49C353.29 206.5 353.56 206.27 353.59 205.97L355.95 172.94C360.12 172.12 363.22 170.65 364.26 169.66C364.51 169.4 364.51 169.05 364.28 168.83ZM352.46 205.32L349.09 205.18L344.59 173.15C348.23 173.75 351.72 173.61 354.76 173.13L352.46 205.32Z" fill="#FFD590"/>
<path d="M344.67 213.65L346.51 217.35L355.7 217.78L357.97 214.5L344.67 213.65Z" fill="#E29E3B"/>
<path d="M359.26 204.56L342.94 203.92L342.75 215.16L359.81 215.79L359.26 204.56Z" fill="#E29E3B"/>
<path d="M359.64 212.19L359.6 211.44L342.82 210.82L342.8 211.57L359.64 212.19Z" fill="#FFD590"/>
<path d="M342.88 207.31L359.42 207.79L359.38 207.05L342.89 206.56L342.88 207.31Z" fill="#FFD590"/>
<path d="M265.53 232.03C265.3 232.03 265.07 232.01 264.84 231.98L223.55 226.42C220.6 226.02 218.26 223.78 217.73 220.85L211.32 185L214.11 184.5L220.52 220.35C220.83 222.07 222.19 223.38 223.93 223.62L265.22 229.18C266 229.28 266.74 229 267.26 228.41C267.78 227.82 267.95 227.04 267.74 226.28L256.5 186.08C256.02 184.35 254.82 182.9 253.22 182.09L245.78 178.37L247.05 175.84L254.49 179.56C256.81 180.72 258.54 182.82 259.24 185.32L270.48 225.52C270.94 227.19 270.54 228.96 269.41 230.27C268.41 231.4 267 232.03 265.53 232.03Z" fill="#1DACCC"/>
<path d="M229.56 90.8C239.31 68.56 237.45 45.53 215.35 51.85C193.24 58.17 145.88 65.54 124.82 57.64C103.76 49.74 100.09 59.21 108.51 79.75C116.93 100.29 130.09 132.38 130.62 155.01C130.99 170.83 156.9 192.44 205.32 191.38C253.74 190.33 278.57 157.74 278.57 146.68C278.57 135.62 277.21 129.46 256.83 143.81C231.73 161.47 209.03 137.65 229.56 90.8Z" fill="#33D5F9"/>
<path d="M282.18 150.16C286.22 139.87 283.77 123.44 258.51 140.81C233.25 158.18 209.03 137.65 229.56 90.81C239.31 68.57 237.45 45.54 215.35 51.86C193.24 58.18 145.88 65.55 124.82 57.65C123.03 56.98 121.39 56.45 119.84 56.02C107.35 54.36 106.04 63.76 112.99 80.7C121.41 101.22 133.41 130.37 133.67 154.49C133.8 166.65 150.77 185.21 179.85 191.99C181.76 192.35 183.71 192.66 185.72 192.92C185.73 192.92 185.75 192.92 185.76 192.93C186.74 193.06 187.74 193.18 188.75 193.29C188.81 193.3 188.88 193.3 188.94 193.31C189.9 193.41 190.87 193.5 191.86 193.58C191.91 193.58 191.95 193.59 192.01 193.59C192.99 193.66 193.99 193.73 194.99 193.78C195.16 193.79 195.32 193.8 195.49 193.81C196.43 193.86 197.39 193.9 198.35 193.93C198.41 193.93 198.49 193.94 198.55 193.94C199.54 193.97 200.55 193.98 201.56 193.99C201.79 193.99 202.02 193.99 202.26 193.99C203.28 193.99 204.3 193.98 205.34 193.96H205.35C217.15 193.7 227.94 191.1 237.52 187.16C239.3 186.43 241.04 185.65 242.73 184.83C243.32 184.54 243.91 184.26 244.49 183.96C245.09 183.65 245.68 183.35 246.27 183.03C248.44 181.87 250.52 180.66 252.52 179.39C273.23 166.32 278.55 159.37 282.18 150.16Z" fill="url(#paint0_radial)"/>
<path d="M191.04 164.69C226.44 189.98 260.46 173.95 270.51 157.94C275.81 149.51 270.06 143.01 249.08 152.64C231.26 160.83 194.41 159.39 183.82 155.53C173.23 151.67 188.05 162.55 191.04 164.69Z" fill="url(#paint1_radial)"/>
<path d="M264.27 184.63C257.46 177.51 242.48 164.19 223.49 159.32L220.6 170.58C237.82 174.99 250.7 187.19 255.96 192.86C256.39 193.34 261.06 189.59 264.27 184.63Z" fill="url(#paint2_linear)"/>
<path d="M264.27 184.63C257.46 177.51 242.48 164.19 223.49 159.32L220.6 170.58C237.82 174.99 250.7 187.19 255.96 192.86C256.39 193.34 261.06 189.59 264.27 184.63Z" fill="url(#paint3_linear)"/>
<path d="M255.89 192.79L262.45 186.32C265.26 187.73 268.81 200.33 303.76 197.01L316.89 201.82L289.09 229.21C288.84 229.45 287.31 229.43 286.4 228.36L255.89 192.79Z" fill="#522CD5"/>
<path d="M309.58 190.37C311.57 189.97 313.05 190.68 314.3 192.14L318.7 197.32C319.38 198.13 319.34 199.38 318.58 200.13L313.22 205.41C312.37 206.25 311.05 206.2 310.26 205.28L306.08 200.82C304.63 199.13 303.5 198.28 300.83 198.78C285.08 201.73 269.09 200.45 258.61 190.09L264.21 184.57C269.94 189.52 283.37 195.58 309.58 190.37Z" fill="url(#paint4_linear)"/>
<path d="M318.58 200.13C319.33 199.39 319.39 198.12 318.7 197.32L314.3 192.14C313.6 191.33 312.83 190.76 311.94 190.47L303.46 198.83C304.47 199.14 305.22 199.84 306.08 200.83L310.26 205.29C311.04 206.2 312.36 206.26 313.22 205.42L318.58 200.13Z" fill="url(#paint5_radial)"/>
<path d="M252.38 196.52L241 193.52C243.55 183.82 245.17 177.25 245.9 172.36C246.69 167.1 246.09 165.66 245.97 165.44C245.72 165.28 244.28 164.6 238.43 165.1C222.66 166.46 219.42 167.17 219.28 167.21C219.44 167.17 219.5 167.15 219.5 167.15L216.18 155.86C218.17 155.28 225.91 154.37 237.42 153.38C244.09 152.81 250.84 152.95 254.96 157.85C260.51 164.42 258.04 175.03 252.38 196.52Z" fill="url(#paint6_linear)"/>
<path d="M242.44 188.03L251.41 190.54L246.2 240.27L228.4 235.29C227.05 234.91 226.33 233.53 226.81 232.2L242.44 188.03Z" fill="#522CD5"/>
<path d="M263.79 232.07C264.97 233.72 264.51 235.25 263.86 237.07L261.87 242.64C261.52 243.64 260.39 244.21 259.37 243.94L236.97 237.68C235.81 237.36 235.21 236.18 235.61 235.05L237.47 229.22C238.22 227.12 237.16 225.43 236.91 222.72C236.41 217.37 240.38 200.66 244.65 188.67L253.78 191.22C252.34 198.64 252.29 216.05 263.79 232.07Z" fill="url(#paint7_linear)"/>
<path d="M237.48 229.2L235.62 235.03C235.21 236.16 235.82 237.33 236.98 237.66L259.38 243.92C260.4 244.21 261.52 243.62 261.88 242.62L263.87 237.05C264.35 235.71 264.72 234.52 264.42 233.33L237.51 225.81C237.75 226.98 237.89 228.03 237.48 229.2Z" fill="url(#paint8_radial)"/>
<path d="M251.98 119.3C248.87 105.73 241.91 97.3 241.91 97.3L244.71 95.8L244.75 95.71C229.33 76.01 201.52 69.7 178.48 82.02C152.52 95.9 142.44 128.17 155.97 154.1C169.5 180.03 201.5 189.8 227.47 175.91C247.96 164.95 258.55 142.54 255.46 120.85C255.24 119.97 254.5 118.59 251.98 119.3Z" fill="url(#paint9_radial)"/>
<path d="M250.95 122.38C250.95 122.38 252.2 120.78 251.98 119.31C248.92 105.9 242.08 97.52 241.91 97.32L193.15 123.39C193.15 123.39 189.91 124.72 191.37 127.53C192.83 130.33 197.08 138.19 201.65 146.95C202.59 148.75 204.52 148.83 205.68 148.21L250.87 122.44L250.95 122.38Z" fill="url(#paint10_radial)"/>
<path d="M221.78 135.42C221.78 135.42 226.19 125.48 227.07 123.6C227.97 121.72 229.21 120.97 231.16 121.42C233.1 121.85 243.68 123.71 243.68 123.71L221.78 135.42Z" fill="#A08BE8"/>
<path d="M255.56 121.48C255.56 121.48 255.56 118.28 251.99 119.3C251.57 119.52 204.02 144.9 204.02 144.9C202.91 145.5 201.12 145.6 200.44 144.59C200.85 145.37 201.25 146.14 201.67 146.94C202.52 148.58 204.19 148.79 205.36 148.35C205.47 148.3 205.59 148.26 205.7 148.2L208.98 146.45L255.56 121.48Z" fill="#512BD4"/>
<path d="M255.91 131.06L174.85 174.41C178.28 176.53 181.94 178.23 185.74 179.5L253.93 143.03C255.03 139.14 255.71 135.12 255.91 131.06Z" fill="#D0C5F3"/>
<path d="M244.56 109.21C242.83 105.77 239.78 103.84 237.73 104.9C235.69 105.95 235.43 109.6 237.15 113.03C238.88 116.47 241.93 118.4 243.98 117.34C246.03 116.29 246.28 112.66 244.56 109.21Z" fill="#512BD4"/>
<path d="M214.55 133.12C216.57 132 216.72 128.35 214.89 124.98C213.06 121.6 209.95 119.76 207.93 120.88C205.91 122 205.76 125.65 207.59 129.02C209.42 132.39 212.54 134.24 214.55 133.12Z" fill="#512BD4"/>
<path d="M180.84 77.88L172.06 82.9L168.25 73.25L174.55 69.64L180.84 77.88Z" fill="#8A6FE8"/>
<path d="M171.3 74C175.13 72.95 177.42 69 176.41 65.19C175.4 61.38 171.49 59.14 167.66 60.19C163.83 61.24 161.54 65.19 162.55 69C163.56 72.81 167.47 75.05 171.3 74Z" fill="#D0C5F3"/>
<path d="M187.29 81.42C187.69 81.19 187.81 80.67 187.54 80.31C184.74 76.44 179.39 75.25 175.1 77.71C170.82 80.16 169.1 85.4 170.97 89.8C171.15 90.22 171.65 90.37 172.05 90.14L187.29 81.42Z" fill="url(#paint11_radial)"/>
<path d="M244.29 133.88L230.17 141.7L237.79 155.8L251.91 147.98L244.29 133.88Z" fill="#512BD4"/>
<path d="M237.55 149.32C237.45 149.38 237.35 149.38 237.24 149.36C237.14 149.33 237.05 149.27 237 149.17C236.94 149.07 236.94 148.98 236.97 148.86C237 148.76 237.07 148.67 237.16 148.62C237.26 148.56 237.36 148.56 237.47 148.58C237.58 148.61 237.66 148.67 237.71 148.77C237.76 148.86 237.77 148.96 237.74 149.08C237.72 149.19 237.65 149.26 237.55 149.32Z" fill="white"/>
<path d="M241.51 147.06L240.86 147.42L237.7 145.67C237.62 145.62 237.54 145.57 237.48 145.51L237.46 145.52C237.52 145.59 237.62 145.76 237.76 146.01L239.06 148.41L238.49 148.72L236.51 145.06L237.2 144.68L240.27 146.39C240.4 146.45 240.48 146.51 240.53 146.54L240.54 146.53C240.48 146.44 240.37 146.28 240.24 146.05L238.96 143.69L239.53 143.38L241.51 147.06Z" fill="white"/>
<path d="M244.31 145.5L242.3 146.61L240.32 142.95L242.25 141.88L242.53 142.4L241.2 143.14L241.76 144.18L242.99 143.5L243.27 144.02L242.04 144.7L242.62 145.78L244.04 144.99L244.31 145.5Z" fill="white"/>
<path d="M245.46 140.78L244.43 141.34L246.13 144.49L245.54 144.82L243.84 141.67L242.81 142.23L242.53 141.71L245.18 140.25L245.46 140.78Z" fill="white"/>
<path d="M238.75 156.83L244.43 148.63C245.93 146.44 245.38 143.46 243.22 141.98C241.05 140.5 238.08 141.08 236.59 143.28L229.78 153.34L238.75 156.83Z" fill="#8A6FE8"/>
<path d="M237.65 162.11C231.19 168.42 218.78 174.98 205.09 172.7C196.77 171.31 185.11 166.07 176.78 149.03L186.25 144.28C191.3 154.62 198.46 160.85 206.93 162.27C216.11 163.8 225.32 159.51 230.36 154.58L237.65 162.11Z" fill="url(#paint12_linear)"/>
<path d="M184.49 152.66C189.22 150.04 190.99 144.09 188.43 139.36C185.88 134.64 179.97 132.93 175.24 135.55C170.51 138.17 168.74 144.12 171.3 148.85C173.85 153.57 179.76 155.28 184.49 152.66Z" fill="url(#paint13_radial)"/>
<path d="M282.33 94.64L277.99 94.72C277.99 94.72 265.69 114.29 264.3 116.25C262.9 118.21 264.18 121.56 264.18 121.56C264.18 121.56 262.65 119.54 259.56 121.62C256.47 123.69 238.19 136.18 238.19 136.18L238.47 142.49C238.47 142.49 266.56 124.11 271.2 118.68C275.82 113.25 282.33 94.64 282.33 94.64Z" fill="white"/>
<path d="M258.36 178.65L236.36 142.39C235.83 141.52 236.08 140.38 236.93 139.81L261.54 123.04L286.34 162.37L261.62 179.35C260.53 180.08 259.04 179.77 258.36 178.65Z" fill="#F7B548"/>
<path d="M238.48 167.72L248.34 166.89C250.97 166.65 252.93 164.32 252.72 161.68C252.51 159.04 250.21 157.1 247.58 157.34L237.47 158.19L238.48 167.72Z" fill="#8A6FE8"/>
<path d="M238.95 160.88L248.43 157.95C250.96 157.14 252.37 154.45 251.6 151.94C250.83 149.41 248.17 148.02 245.65 148.82L235.93 151.84L238.95 160.88Z" fill="#8A6FE8"/>
<path d="M235.8 171.35L245.15 174.45C247.65 175.26 250.35 173.87 251.18 171.35C252.01 168.83 250.66 166.13 248.16 165.32L238.56 162.15L235.8 171.35Z" fill="#8A6FE8"/>
<path d="M222.69 163C222.15 157.49 226.16 152.53 231.65 151.93C237.14 151.33 242.03 155.3 242.57 160.8C243.11 166.3 239.1 171.27 233.61 171.87C228.12 172.49 223.23 168.52 222.69 163Z" fill="url(#paint14_radial)"/>
<path d="M261.49 123L286.34 162.35L290.54 157.38L265.92 117.89L261.49 123Z" fill="#FFD590"/>
<path d="M290.54 157.38L305.17 133.83C305.66 132.94 305.66 131.88 305.17 131L284.05 93.48C283.47 92.43 281.98 92.42 281.34 93.43L265.93 117.89L290.54 157.38Z" fill="#F7B548"/>
<path d="M286.52 111.94C284.47 110.65 283.85 107.95 285.13 105.9L287.7 101.8C288.99 99.76 291.69 99.14 293.73 100.41C295.78 101.7 296.4 104.4 295.12 106.45L292.55 110.55C291.27 112.61 288.56 113.22 286.52 111.94Z" fill="#8A6FE8"/>
<path d="M290.99 118.1C288.94 116.81 288.32 114.11 289.6 112.06L292.17 107.96C293.46 105.92 296.16 105.3 298.2 106.57C300.25 107.86 300.87 110.56 299.59 112.61L297.02 116.71C295.73 118.76 293.03 119.38 290.99 118.1Z" fill="#8A6FE8"/>
<path d="M295.05 124.35C293 123.06 292.38 120.36 293.66 118.31L296.23 114.21C297.52 112.17 300.22 111.55 302.26 112.82C304.31 114.11 304.93 116.81 303.65 118.86L301.08 122.96C299.81 125.01 297.1 125.63 295.05 124.35Z" fill="#8A6FE8"/>
<path d="M214.89 124.98C214.62 124.48 214.32 124.02 214 123.59C213.15 123.69 212.32 124.05 211.64 124.69C209.97 126.27 209.88 128.89 211.44 130.56C212.6 131.79 214.33 132.13 215.83 131.59C216.48 129.92 216.2 127.39 214.89 124.98Z" fill="#8065E0"/>
<path d="M244.56 109.21C244.38 108.86 244.2 108.53 244 108.22C242.97 108.22 241.94 108.59 241.12 109.36C239.45 110.94 239.36 113.56 240.92 115.23C242.01 116.39 243.61 116.75 245.05 116.33C246.04 114.73 245.91 111.92 244.56 109.21Z" fill="#8065E0"/>
<path d="M243.91 182.08C243.42 181.71 242.87 181.32 242.28 180.9C220.54 184.48 199.17 172.91 184.95 154.76C166.4 131.07 159.29 132.65 154.55 150.41C150.9 164.12 133.72 160.37 133.5 149.66C133.42 145.45 130.68 149.34 129.98 147.2C130.32 149.9 130.54 152.51 130.6 155.01C130.97 170.83 156.92 195.01 205.34 193.96C219.52 193.65 232.28 190.06 243.24 184.79C243.48 183.85 243.71 182.94 243.91 182.08Z" fill="#33D5F9"/>
<path d="M243.42 184.12C222.95 191.96 201.2 188.36 189.62 185.7C187.58 185.23 185.44 185.69 183.76 186.96C182.09 188.23 181.06 190.17 180.96 192.27L178.7 239.23C178.64 240.41 178.08 241.51 177.16 242.25C176.23 242.99 175.04 243.3 173.88 243.09L133.57 236.13C132.53 235.95 131.65 235.37 131.05 234.51C130.46 233.64 130.25 232.59 130.48 231.57L140.66 183.65C141.27 180.79 143.76 178.76 146.66 178.69C145.7 177.99 144.67 177.18 143.71 176.4C140.82 177.45 138.57 179.92 137.89 183.06L127.71 230.98C127.33 232.77 127.68 234.58 128.71 236.1C129.74 237.61 131.29 238.62 133.09 238.92L173.4 245.88C173.79 245.94 174.19 245.98 174.58 245.98C176.15 245.98 177.69 245.44 178.93 244.45C180.48 243.2 181.43 241.35 181.52 239.36L183.78 192.4C183.84 191.13 184.46 189.98 185.46 189.21C186.47 188.45 187.75 188.17 188.98 188.45C201.06 191.23 222.27 193.31 243.34 184.36C243.37 184.28 243.39 184.2 243.42 184.12Z" fill="#1DACCC"/>
<path d="M412.97 103.88L337.62 113.02C335.97 113.22 334.51 111.93 334.51 110.27V58.9C334.51 57.59 335.43 56.46 336.71 56.19L412.66 40.17C414.4 39.8 416.02 41.14 416 42.91L415.39 101.15C415.39 102.55 414.35 103.71 412.97 103.88Z" fill="#EEAB42"/>
<path d="M334.51 100.82V110.27C334.51 111.94 335.96 113.22 337.62 113.02L412.97 103.88C414.35 103.71 415.39 102.55 415.41 101.16L415.53 89.87L415.54 89.25L334.51 100.82Z" fill="#FBC977"/>
<path d="M361.93 85.04V62.12C361.93 60.2 363.9 58.91 365.66 59.67L385.51 68.28C387.41 69.1 387.68 71.68 386.01 72.89L366.16 87.22C364.4 88.49 361.93 87.23 361.93 85.04Z" fill="white"/>
<path d="M440.04 111.09L382.68 116.91V212.63L457.96 216.04L457.58 129.21L440.04 111.09Z" fill="#E8A53F"/>
<path d="M440.06 111.08V130.54L457.54 129.2L440.06 111.08Z" fill="#FFD590"/>
<path d="M436.75 142.39L395.08 145.1V137.67L436.75 134.73V142.39Z" fill="white"/>
<path d="M436.75 152.96V160.62L395.08 162.17V154.73L436.75 152.96Z" fill="white"/>
<path d="M436.75 178.87L395.08 179.23V171.8L436.75 171.2V178.87Z" fill="white"/>
<path d="M470.56 83.2C469.53 84.01 468.53 84.87 467.6 85.79C466.31 87.07 465.18 88.4 464.19 89.79L468.38 93.45C467.45 94.96 466.73 96.52 466.24 98.1L459.71 100.02C459.17 102.82 459.16 105.63 459.7 108.3L466.12 108.2C466.66 109.91 467.48 111.53 468.62 112.98C467.57 114.32 465.79 116.51 464.64 117.91C465.39 118.71 466.2 119.46 467.11 120.17C468.35 121.13 469.69 121.96 471.11 122.64L476.04 118.39C477.73 119.05 479.54 119.46 481.39 119.65L482.41 125.21C485.54 125.25 488.74 124.8 491.86 123.89L492.93 117.98C494.62 117.31 496.26 116.46 497.82 115.44L502.85 118.31C503.93 117.48 504.98 116.57 505.97 115.59C507.32 114.26 508.51 112.85 509.52 111.39L505.26 107.78C506.21 106.22 506.93 104.59 507.41 102.95L513.82 101.44C514.39 98.48 514.38 95.52 513.77 92.71C511.79 92.86 508.99 93.06 507.41 93.14C506.92 91.59 506.19 90.11 505.2 88.75L509.31 83.91C508.46 82.94 507.51 82.03 506.43 81.2C505.11 80.17 503.68 79.31 502.17 78.6L497.57 83C495.78 82.31 493.89 81.87 491.93 81.7L491.3 76.17C488.27 76.11 485.19 76.52 482.17 77.36L481.58 83.05C479.5 83.78 477.47 84.78 475.59 86.05L470.56 83.2ZM495.45 92.1C500.12 95.73 500.02 102.51 495.24 107.25C490.46 112 482.79 112.89 478.12 109.28C473.45 105.65 473.55 98.87 478.33 94.13C483.12 89.38 490.78 88.48 495.45 92.1Z" fill="white"/>
<path d="M515.11 68.05C514.64 68.42 514.18 68.81 513.75 69.24C513.16 69.82 512.64 70.43 512.19 71.07L514.11 72.74C513.68 73.43 513.36 74.15 513.13 74.88L510.13 75.76C509.88 77.05 509.88 78.33 510.12 79.56L513.06 79.51C513.3 80.3 513.69 81.04 514.21 81.7C513.73 82.31 512.91 83.32 512.39 83.96C512.73 84.33 513.11 84.67 513.52 85C514.09 85.44 514.7 85.81 515.35 86.13L517.61 84.18C518.39 84.48 519.21 84.67 520.06 84.75L520.53 87.3C521.96 87.32 523.44 87.11 524.86 86.69L525.35 83.98C526.13 83.67 526.88 83.29 527.59 82.81L529.9 84.12C530.4 83.74 530.88 83.32 531.33 82.87C531.95 82.26 532.5 81.61 532.96 80.95L531.01 79.29C531.44 78.57 531.78 77.83 531.99 77.07L534.93 76.38C535.2 75.02 535.19 73.66 534.91 72.37C534 72.43 532.72 72.53 532 72.56C531.78 71.85 531.44 71.17 530.98 70.54L532.87 68.32C532.48 67.88 532.04 67.46 531.55 67.08C530.94 66.61 530.29 66.21 529.6 65.89L527.49 67.92C526.68 67.61 525.8 67.4 524.9 67.32L524.61 64.78C523.22 64.75 521.81 64.94 520.42 65.33L520.14 67.94C519.19 68.27 518.25 68.74 517.39 69.32L515.11 68.05ZM526.52 72.13C528.67 73.8 528.62 76.9 526.42 79.08C524.23 81.25 520.71 81.67 518.56 80.01C516.41 78.35 516.46 75.24 518.66 73.06C520.86 70.88 524.38 70.46 526.52 72.13Z" fill="white"/>
<defs>
<radialGradient id="paint0_radial" cx="0" cy="0" r="1" gradientUnits="userSpaceOnUse" gradientTransform="translate(196.275 122.397) scale(79.9287)">
<stop offset="0.00101273" stop-color="#33D5F9"/>
<stop offset="0.9989" stop-color="#1DACCC"/>
</radialGradient>
<radialGradient id="paint1_radial" cx="0" cy="0" r="1" gradientUnits="userSpaceOnUse" gradientTransform="translate(237.596 168.228) scale(76.3634)">
<stop offset="0.00101273" stop-color="#33D5F9"/>
<stop offset="0.9989" stop-color="#1DACCC"/>
</radialGradient>
<linearGradient id="paint2_linear" x1="221.677" y1="162.249" x2="261.541" y2="188.927" gradientUnits="userSpaceOnUse">
<stop stop-color="#522CD5"/>
<stop offset="0.4397" stop-color="#8A6FE8"/>
</linearGradient>
<linearGradient id="paint3_linear" x1="221.677" y1="162.249" x2="261.541" y2="188.927" gradientUnits="userSpaceOnUse">
<stop offset="0.129" stop-color="#522CD5"/>
<stop offset="0.5785" stop-color="#8A6FE8"/>
</linearGradient>
<linearGradient id="paint4_linear" x1="260.217" y1="184.932" x2="318.381" y2="202.008" gradientUnits="userSpaceOnUse">
<stop stop-color="#522CD5"/>
<stop offset="0.4397" stop-color="#8A6FE8"/>
</linearGradient>
<radialGradient id="paint5_radial" cx="0" cy="0" r="1" gradientUnits="userSpaceOnUse" gradientTransform="translate(300.64 187.615) rotate(-44.6111) scale(18.2097)">
<stop offset="0.034" stop-color="#522CD5"/>
<stop offset="0.9955" stop-color="#8A6FE8"/>
</radialGradient>
<linearGradient id="paint6_linear" x1="232.888" y1="149.779" x2="250.189" y2="197.315" gradientUnits="userSpaceOnUse">
<stop offset="0.0624" stop-color="#522CD5"/>
<stop offset="0.3999" stop-color="#8A6FE8"/>
</linearGradient>
<linearGradient id="paint7_linear" x1="239.299" y1="189.939" x2="252.607" y2="245.795" gradientUnits="userSpaceOnUse">
<stop stop-color="#522CD5"/>
<stop offset="0.4397" stop-color="#8A6FE8"/>
</linearGradient>
<radialGradient id="paint8_radial" cx="0" cy="0" r="1" gradientUnits="userSpaceOnUse" gradientTransform="translate(253.18 219.994) rotate(15.6289) scale(21.2142)">
<stop offset="0.034" stop-color="#522CD5"/>
<stop offset="0.9955" stop-color="#8A6FE8"/>
</radialGradient>
<radialGradient id="paint9_radial" cx="0" cy="0" r="1" gradientUnits="userSpaceOnUse" gradientTransform="translate(205.571 109.748) rotate(-28.9694) scale(53.1289 52.7527)">
<stop offset="0.4744" stop-color="#A08BE8"/>
<stop offset="0.8618" stop-color="#8065E0"/>
</radialGradient>
<radialGradient id="paint10_radial" cx="0" cy="0" r="1" gradientUnits="userSpaceOnUse" gradientTransform="translate(217.008 94.3031) rotate(-28.9694) scale(61.0315 60.5994)">
<stop offset="0.0933" stop-color="#E1DFDD"/>
<stop offset="0.6573" stop-color="white"/>
</radialGradient>
<radialGradient id="paint11_radial" cx="0" cy="0" r="1" gradientUnits="userSpaceOnUse" gradientTransform="translate(176.237 79.8985) rotate(-15.3666) scale(12.3141 12.2286)">
<stop stop-color="#8065E0"/>
<stop offset="1" stop-color="#512BD4"/>
</radialGradient>
<linearGradient id="paint12_linear" x1="175.795" y1="129.964" x2="221.97" y2="170.779" gradientUnits="userSpaceOnUse">
<stop offset="0.2296" stop-color="#9780E6"/>
<stop offset="0.9374" stop-color="#8A6FE8"/>
</linearGradient>
<radialGradient id="paint13_radial" cx="0" cy="0" r="1" gradientUnits="userSpaceOnUse" gradientTransform="translate(178.041 139.951) rotate(-28.9694) scale(12.2353 12.1486)">
<stop stop-color="#8065E0"/>
<stop offset="1" stop-color="#512BD4"/>
</radialGradient>
<radialGradient id="paint14_radial" cx="0" cy="0" r="1" gradientUnits="userSpaceOnUse" gradientTransform="translate(236.48 161.441) rotate(-95.6052) scale(14.6023 14.5686)">
<stop stop-color="#8065E0"/>
<stop offset="1" stop-color="#512BD4"/>
</radialGradient>
</defs>
</svg>
