<svg width="636" height="300" viewBox="0 0 636 300" fill="none" xmlns="http://www.w3.org/2000/svg">
<path d="M206.9 84.92L168.76 88.33C168.04 88.39 167.49 88.94 167.49 89.62V234.83C167.49 235.52 168.05 236.06 168.79 236.09L205.61 237.52C206.42 237.55 207.13 236.91 207.12 236.13L207.46 87.43C207.45 86.65 207.72 84.85 206.9 84.92Z" fill="#1FB1D1"/>
<path d="M183.4 102.98L152.67 105.45C151.68 105.53 150.93 106.28 150.93 107.2V233.95C150.93 234.83 151.63 235.55 152.58 235.64L182.69 238.54C183.79 238.65 184.81 237.84 184.87 236.8C185.8 222.52 191.44 134.17 190.32 123.36C189.37 114.2 186.56 106.9 185.36 104.1C185.03 103.37 184.24 102.91 183.4 102.98Z" fill="#ED9583"/>
<path d="M207.2 237.57L246.53 235.5C247.52 235.45 248.32 234.63 248.32 233.68V88C248.32 87.04 247.52 86.24 246.53 86.21L207.2 84.88C206.17 84.85 205.33 85.61 205.33 86.59V235.89C205.33 236.87 206.17 237.62 207.2 237.57Z" fill="#1595B2"/>
<path d="M184.78 238.75L204.23 237.73C204.81 237.7 205.28 237.23 205.28 236.68V104.18C205.28 103.63 204.81 103.18 204.23 103.16L184.78 102.7C184.19 102.69 183.71 103.12 183.71 103.68V237.8C183.71 238.35 184.19 238.78 184.78 238.75Z" fill="#E86E58"/>
<path d="M158.95 238.51L128.59 240.05C127.81 240.09 127.02 240.04 126.26 239.91L98.69 235.18L150.95 231.3L158.95 238.51Z" fill="#D5D3D0"/>
<path d="M149.28 130.29L125.78 132.28C124.93 132.35 124.22 132.9 124.01 133.66L97.11 232.98C96.79 234.18 97.8 235.27 99.16 235.19L130.02 233.39C130.99 233.33 131.81 232.66 131.98 231.79L151.42 132.43C151.66 131.24 150.59 130.18 149.28 130.29Z" fill="#F8BB55"/>
<path d="M128.36 234.22L158.04 238.44C159.48 238.64 160.88 237.72 161.19 236.39L183.18 138.83C183.47 137.53 182.58 136.24 181.18 135.96L152.26 130.14C150.81 129.85 149.39 130.69 149.08 132.02L126.24 231.37C125.92 232.74 126.88 234.01 128.36 234.22Z" fill="#E29E3B"/>
<path d="M145.95 179.51L165.08 182.83C166.3 183.04 167.5 182.29 167.76 181.16L175.17 148.81C175.42 147.68 174.65 146.58 173.44 146.35L154.48 142.66C153.24 142.42 152.02 143.15 151.76 144.29L144.16 177.04C143.9 178.18 144.7 179.29 145.95 179.51Z" fill="#F8B84F"/>
<path d="M205.33 133.13V96.15L248.32 97.33V133.41L205.33 133.13Z" fill="#28C2D1"/>
<path d="M188.22 199.17L201.31 198.77V126.35L188.22 126.21V199.17Z" fill="#CF5746"/>
<path d="M188.22 147.31V126.22L201.31 126.35V147.29L188.22 147.31Z" fill="white"/>
<path d="M439.27 193.19L264.02 198.74C261.01 198.84 258.56 196.52 258.56 193.57V64.12C258.56 61.17 261.01 58.9 264.02 59.05L439.27 67.83C441.69 67.95 443.64 70.18 443.64 72.82V188.29C443.64 190.91 441.69 193.11 439.27 193.19Z" fill="#B3AFAB"/>
<path d="M441.4 193.12L266.67 198.65C263.67 198.75 261.22 196.43 261.22 193.49V64.24C261.22 61.29 263.66 59.03 266.67 59.18L441.4 67.93C443.81 68.05 445.76 70.28 445.76 72.91V188.22C445.77 190.85 443.82 193.04 441.4 193.12Z" fill="#625F5B"/>
<path d="M436.61 181.3L272.58 185.21C271.76 185.23 271.1 184.59 271.1 183.79V69.04C271.1 68.23 271.76 67.61 272.58 67.65L436.61 75.08C437.28 75.11 437.82 75.72 437.82 76.45V179.96C437.82 180.68 437.28 181.28 436.61 181.3Z" fill="#797672"/>
<path d="M491.46 211.57C491.46 210.08 491.46 209.11 491.46 208.61C491.46 208.21 444.52 195.53 444.52 195.53L263.25 197.76V199.81C263.25 199.81 263.29 201.61 265.23 202.24C267.16 202.87 318.72 219.52 318.72 219.52C321.36 220.37 324.14 220.74 326.93 220.61L490.2 213.07C491.24 213.03 491.48 212.51 491.46 211.57Z" fill="#9C9894"/>
<path d="M490.54 209.74L326.92 216.92C324.13 217.04 321.35 216.67 318.71 215.81L263.14 197.74L444.51 192.11L490.83 207.69C491.83 208.03 491.59 209.69 490.54 209.74Z" fill="#CCCAC7"/>
<path d="M321.52 98.4599L302.55 97.9299C301.44 97.8999 300.54 96.9699 300.54 95.8599C300.54 94.7499 301.44 93.8799 302.55 93.9099L321.52 94.4899C322.6 94.5199 323.48 95.4399 323.48 96.5299C323.48 97.6199 322.6 98.4899 321.52 98.4599Z" fill="#E86E58"/>
<path d="M406.96 109.8L389.28 109.41C388.28 109.39 387.47 108.52 387.47 107.46C387.47 106.41 388.28 105.57 389.28 105.6L406.96 106.04C407.93 106.06 408.72 106.93 408.72 107.97C408.72 109.01 407.93 109.83 406.96 109.8Z" fill="#B2B2B2"/>
<path d="M380.16 109.21L344.21 108.41C343.16 108.39 342.3 107.49 342.3 106.41C342.3 105.33 343.16 104.47 344.21 104.5L380.16 105.39C381.17 105.41 381.98 106.29 381.98 107.35C381.98 108.39 381.16 109.23 380.16 109.21Z" fill="#EEEDEC"/>
<path d="M334.02 108.18L314.51 107.75C313.42 107.73 312.53 106.81 312.53 105.71C312.53 104.61 313.42 103.73 314.51 103.76L334.02 104.24C335.09 104.27 335.95 105.17 335.95 106.26C335.95 107.35 335.09 108.2 334.02 108.18Z" fill="#E86E58"/>
<path d="M419.17 118.96L360.81 117.99C359.78 117.97 358.94 117.09 358.94 116.02C358.94 114.95 359.78 114.09 360.81 114.11L419.17 115.22C420.13 115.24 420.91 116.09 420.91 117.12C420.91 118.15 420.13 118.97 419.17 118.96Z" fill="#EEEDEC"/>
<path d="M350.31 117.82L326.3 117.42C325.22 117.4 324.35 116.5 324.35 115.4C324.35 114.3 325.23 113.43 326.3 113.45L350.31 113.91C351.36 113.93 352.2 114.82 352.2 115.9C352.2 116.98 351.36 117.83 350.31 117.82Z" fill="#B2B2B2"/>
<path d="M406.96 127.7L379.91 127.41C378.9 127.4 378.08 126.53 378.08 125.47C378.08 124.41 378.9 123.56 379.91 123.58L406.96 123.94C407.93 123.95 408.72 124.81 408.72 125.85C408.72 126.88 407.93 127.71 406.96 127.7Z" fill="#B2B2B2"/>
<path d="M369.9 127.3L326.3 126.83C325.22 126.82 324.35 125.92 324.35 124.83C324.35 123.74 325.23 122.86 326.3 122.87L369.9 123.45C370.92 123.46 371.75 124.34 371.75 125.4C371.75 126.46 370.92 127.31 369.9 127.3Z" fill="#F8B84F"/>
<path d="M365.5 136.49C364.47 136.48 363.64 135.61 363.64 134.55C363.64 133.48 364.47 132.62 365.5 132.63L427.85 133.05C428.8 133.06 429.57 133.89 429.57 134.92C429.57 135.95 428.8 136.77 427.86 136.77L365.5 136.49Z" fill="#EEEDEC"/>
<path d="M356.89 136.4L337.92 136.3C336.86 136.29 335.99 135.41 335.99 134.32C335.99 133.23 336.85 132.36 337.92 132.36L356.89 132.5C357.93 132.51 358.77 133.38 358.77 134.46C358.77 135.54 357.93 136.4 356.89 136.4Z" fill="#B2B2B2"/>
<path d="M421.59 145.59L362.38 145.63C361.35 145.63 360.51 144.76 360.51 143.69C360.51 142.62 361.35 141.75 362.38 141.75L421.59 141.86C422.55 141.86 423.32 142.7 423.32 143.73C423.32 144.76 422.55 145.59 421.59 145.59Z" fill="#B2B2B2"/>
<path d="M351.63 145.64L337.92 145.65C336.86 145.65 335.99 144.77 335.99 143.68C335.99 142.59 336.85 141.71 337.92 141.71L351.63 141.73C352.67 141.73 353.52 142.61 353.52 143.68C353.52 144.76 352.68 145.64 351.63 145.64Z" fill="#F8B84F"/>
<path d="M391.04 154.65L341.54 154.96C340.48 154.97 339.62 154.09 339.62 153.01C339.62 151.92 340.48 151.04 341.54 151.04L391.04 150.85C392.03 150.85 392.84 151.69 392.84 152.74C392.84 153.79 392.03 154.65 391.04 154.65Z" fill="#EEEDEC"/>
<path d="M331.05 155.03L314.51 155.13C313.42 155.14 312.53 154.25 312.53 153.14C312.53 152.03 313.42 151.14 314.51 151.13L331.05 151.07C332.12 151.07 332.99 151.95 332.99 153.04C332.99 154.14 332.12 155.03 331.05 155.03Z" fill="#E86E58"/>
<path d="M408.43 163.48L360.55 164.06C359.52 164.07 358.68 163.21 358.68 162.14C358.68 161.07 359.52 160.19 360.55 160.18L408.43 159.72C409.4 159.71 410.19 160.54 410.19 161.58C410.19 162.62 409.4 163.47 408.43 163.48Z" fill="#EEEDEC"/>
<path d="M351.37 164.17L326.3 164.47C325.22 164.48 324.35 163.61 324.35 162.51C324.35 161.41 325.23 160.52 326.3 160.51L351.37 160.27C352.41 160.26 353.26 161.12 353.26 162.2C353.26 163.28 352.41 164.16 351.37 164.17Z" fill="#F8B84F"/>
<path d="M378.63 172.95L346.34 173.52C345.29 173.54 344.43 172.68 344.43 171.59C344.43 170.5 345.28 169.62 346.34 169.6L378.63 169.1C379.64 169.08 380.46 169.93 380.46 170.99C380.45 172.06 379.64 172.94 378.63 172.95Z" fill="#B2B2B2"/>
<path d="M336.18 173.71L302.55 174.31C301.44 174.33 300.54 173.44 300.54 172.33C300.54 171.22 301.44 170.3 302.55 170.29L336.18 169.77C337.24 169.75 338.11 170.62 338.11 171.71C338.11 172.8 337.24 173.69 336.18 173.71Z" fill="#E86E58"/>
<path d="M294.24 68.63L272.59 67.65C271.77 67.61 271.11 68.24 271.11 69.04V183.79C271.11 184.6 271.77 185.23 272.59 185.21L294.24 184.69V68.63Z" fill="#908D89"/>
<path d="M417.95 83.69V75.24C417.95 74.55 417.43 73.97 416.79 73.94L272.15 67.37C271.38 67.34 270.76 67.92 270.76 68.67V77.92L417.95 83.69Z" fill="#28C2D1"/>
<path d="M285.13 97.45L280.16 97.31V93.23L285.13 93.38V97.45Z" fill="#EEEDEC"/>
<path d="M285.13 107.09L280.16 106.98V102.91L285.13 103.03V107.09Z" fill="#EEEDEC"/>
<path d="M285.13 116.74L280.16 116.66V112.58L285.13 112.68V116.74Z" fill="#EEEDEC"/>
<path d="M285.13 126.38L280.16 126.33V122.26L285.13 122.32V126.38Z" fill="#EEEDEC"/>
<path d="M285.13 136.03L280.16 136V131.93L285.13 131.97V136.03Z" fill="#EEEDEC"/>
<path d="M285.13 145.68H280.16V141.61H285.13V145.68Z" fill="#EEEDEC"/>
<path d="M285.13 155.32L280.16 155.35V151.28L285.13 151.26V155.32Z" fill="#EEEDEC"/>
<path d="M285.13 164.97L280.16 165.03V160.95L285.13 160.91V164.97Z" fill="#EEEDEC"/>
<path d="M285.13 174.61L280.16 174.7V170.63L285.13 170.55V174.61Z" fill="#EEEDEC"/>
<path d="M417.42 160.24V125.66C417.42 123.31 419.45 121.45 421.94 121.5L502.2 123.04C504.41 123.08 506.2 124.9 506.2 127.1V159.53C506.2 161.73 504.41 163.54 502.2 163.56L421.94 164.43C419.44 164.47 417.42 162.59 417.42 160.24Z" fill="#625F5B"/>
<path d="M420.62 159.1V126.83C420.62 125.55 421.72 124.53 423.08 124.55L501.67 125.89C502.88 125.91 503.86 126.91 503.86 128.11V158.51C503.86 159.72 502.88 160.7 501.67 160.71L423.08 161.4C421.72 161.41 420.62 160.38 420.62 159.1Z" fill="#E29E3B"/>
<path d="M428.11 121.62L421.93 121.5C419.44 121.45 417.41 123.32 417.41 125.66V160.24C417.41 162.59 419.44 164.47 421.93 164.44L428.11 164.37V121.62Z" fill="#625F5B"/>
<path d="M502.19 123.04L496.64 122.93V163.62L502.19 163.56C504.4 163.54 506.19 161.73 506.19 159.53V127.1C506.19 124.91 504.4 123.09 502.19 123.04Z" fill="#625F5B"/>
<path d="M502.61 150.96C503.08 150.96 503.46 150.58 503.46 150.11V136.73C503.46 136.26 503.08 135.87 502.61 135.87C502.14 135.87 501.75 136.24 501.75 136.72V150.11C501.75 150.58 502.14 150.96 502.61 150.96Z" fill="#84817D"/>
<path d="M475.88 136.73L435.11 136.37V129.2L475.88 129.77V136.73Z" fill="#FFE5B9"/>
<path d="M444.24 136.45L435.11 136.37V129.2L444.24 129.33V136.45Z" fill="white"/>
<path d="M475.88 146.45L435.11 146.38V139.22L475.88 139.5V146.45Z" fill="#FFE5B9"/>
<path d="M444.24 146.4L435.11 146.38V139.22L444.24 139.28V146.4Z" fill="white"/>
<path d="M475.88 156.09L435.11 156.3V149.14L475.88 149.13V156.09Z" fill="#FFE5B9"/>
<path d="M444.24 156.26L435.11 156.3V149.14H444.24V156.26Z" fill="white"/>
<path d="M474.58 50.25L437.84 58.87L437.95 97.44C437.03 96.6 435.72 96.98 434.37 96.98C433.05 96.98 431.97 95.62 431.05 96.43L430.97 58.87L394.23 50.25L394.28 95.48L429.51 101.89C430.69 103.79 432.14 104.43 434.38 104.43C436.62 104.43 438.14 103.69 439.24 101.91L474.54 95.61L474.58 50.25Z" fill="#0F849E"/>
<path d="M469.04 46.24C469.04 46.24 442.5 50.98 439.07 52.07C435.64 53.16 434.24 55.47 434.34 59.88C434.44 64.29 434.34 97.32 434.34 97.32L469.62 90.45L469.04 46.24Z" fill="#BBF1FD"/>
<path d="M400.03 46.24C400.03 46.24 426.31 50.98 429.74 52.07C433.17 53.16 434.57 55.47 434.47 59.88C434.37 64.29 434.34 97.32 434.34 97.32L399.19 90.54L400.03 46.24Z" fill="#77E3FB"/>
<path d="M427.87 60.19C427.83 60.19 427.79 60.19 427.74 60.18L406.41 56.04C406.05 55.97 405.82 55.62 405.89 55.27C405.96 54.91 406.32 54.68 406.66 54.75L428 58.89C428.36 58.96 428.59 59.31 428.52 59.66C428.46 59.97 428.18 60.19 427.87 60.19Z" fill="#B3AFAB"/>
<path d="M427.87 66.4099C427.83 66.4099 427.79 66.4099 427.74 66.3999L406.41 62.2599C406.05 62.1899 405.82 61.8399 405.89 61.4899C405.96 61.1299 406.32 60.8999 406.66 60.9699L428 65.0999C428.36 65.1699 428.59 65.5199 428.52 65.8699C428.46 66.1899 428.18 66.4099 427.87 66.4099Z" fill="#B3AFAB"/>
<path d="M427.87 72.63C427.83 72.63 427.79 72.63 427.74 72.62L406.41 68.48C406.05 68.41 405.82 68.06 405.89 67.71C405.96 67.35 406.32 67.12 406.66 67.19L428 71.32C428.36 71.39 428.59 71.74 428.52 72.09C428.46 72.41 428.18 72.63 427.87 72.63Z" fill="#B3AFAB"/>
<path d="M427.87 78.84C427.83 78.84 427.79 78.84 427.74 78.83L406.41 74.69C406.05 74.62 405.82 74.27 405.89 73.92C405.96 73.56 406.32 73.33 406.66 73.4L428 77.54C428.36 77.61 428.59 77.96 428.52 78.31C428.46 78.62 428.18 78.84 427.87 78.84Z" fill="#B3AFAB"/>
<path d="M440.83 60.19C440.87 60.19 440.91 60.19 440.96 60.18L462.29 56.04C462.65 55.97 462.88 55.62 462.81 55.27C462.74 54.91 462.38 54.68 462.04 54.75L440.71 58.89C440.35 58.96 440.12 59.31 440.19 59.66C440.25 59.97 440.53 60.19 440.83 60.19Z" fill="#B3AFAB"/>
<path d="M440.83 66.4099C440.87 66.4099 440.91 66.4099 440.96 66.3999L462.29 62.2599C462.65 62.1899 462.88 61.8399 462.81 61.4899C462.74 61.1299 462.38 60.8999 462.04 60.9699L440.71 65.1099C440.35 65.1799 440.12 65.5299 440.19 65.8799C440.25 66.1899 440.53 66.4099 440.83 66.4099Z" fill="#B3AFAB"/>
<path d="M440.83 72.63C440.87 72.63 440.91 72.63 440.96 72.62L462.29 68.48C462.65 68.41 462.88 68.06 462.81 67.71C462.74 67.35 462.38 67.12 462.04 67.19L440.71 71.33C440.35 71.4 440.12 71.75 440.19 72.1C440.25 72.41 440.53 72.63 440.83 72.63Z" fill="#B3AFAB"/>
<path d="M440.83 78.84C440.87 78.84 440.91 78.84 440.96 78.83L462.29 74.69C462.65 74.62 462.88 74.27 462.81 73.92C462.74 73.56 462.38 73.33 462.04 73.4L440.71 77.54C440.35 77.61 440.12 77.96 440.19 78.31C440.25 78.62 440.53 78.84 440.83 78.84Z" fill="#B3AFAB"/>
<path d="M431.89 98.16C432.68 97.68 433.59 97.4 434.58 97.4C435.49 97.4 436.34 97.65 437.09 98.06L470.9 92.32L470.81 50.93L468.94 46.25L468.75 89.62C468.75 89.62 441.34 94.18 438.87 94.74C436.41 95.31 434.4 97.28 434.4 97.28C434.4 97.28 433.44 95.63 430.35 94.84C427.26 94.05 400.06 89.42 400.06 89.42L400.13 46.34L398.2 51.26L398.31 92.38L431.89 98.16Z" fill="#22B5D6"/>
</svg>
