<svg width="636" height="300" viewBox="0 0 636 300" fill="none" xmlns="http://www.w3.org/2000/svg">
<path d="M325.17 238.74L143.54 244.17C140.31 244.27 137.68 241.83 137.68 238.72V98.87C137.68 95.74 140.32 93.36 143.56 93.56L325.87 104.72C328.43 104.88 330.48 107.25 330.47 110.01L329.8 233.63C329.79 236.38 327.72 238.66 325.17 238.74Z" fill="url(#paint0_radial)"/>
<path d="M357.33 123.83L273.75 119.71C270.84 119.57 268.48 116.98 268.49 113.93L268.74 45.34C268.75 42.28 271.13 40.04 274.05 40.34L357.78 48.83C360.37 49.09 362.45 51.63 362.44 54.5L362.04 118.87C362.02 121.74 359.92 123.96 357.33 123.83Z" fill="#CEDB59"/>
<path d="M508.24 159.58L401.69 157.62C400.07 157.58 398.76 156.04 398.77 154.18L399.31 80.55C399.32 78.69 400.66 77.29 402.28 77.43L509 84.45C510.38 84.57 511.49 86.05 511.47 87.76L510.76 156.56C510.75 158.27 509.62 159.62 508.24 159.58Z" fill="#F7B548"/>
<path d="M416.85 190.17L345.3 189.93C343.21 189.92 341.52 188.06 341.53 185.77L341.7 155.45C341.71 153.15 343.43 151.34 345.52 151.4L417.14 153.54C419.03 153.6 420.54 155.4 420.52 157.58L420.29 186.26C420.28 188.42 418.74 190.18 416.85 190.17Z" fill="#908D89"/>
<path d="M467.35 224.96L312.22 228.48C311.06 228.51 310.12 227.52 310.12 226.27L310.23 202.75C310.24 201.5 311.19 200.49 312.35 200.49L467.57 199.89C468.5 199.89 469.25 200.79 469.24 201.9L469.04 222.9C469.05 224.02 468.28 224.93 467.35 224.96Z" fill="url(#paint1_radial)"/>
<path d="M314.68 207.7C314.69 206.35 315.71 205.25 316.97 205.24L469.23 204.16L469.25 202.08C469.26 200.87 468.45 199.89 467.44 199.9L312.55 200.5C311.29 200.5 310.25 201.61 310.25 202.96L310.14 226.08C310.13 227.43 311.15 228.51 312.42 228.48L314.59 228.43L314.68 207.7Z" fill="#B3AFAB"/>
<path d="M159.55 132.82L159.57 115.63L177.03 116.47L177.01 133.48L159.55 132.82Z" fill="white"/>
<path d="M160.11 116.2L176.49 116.99L176.47 132.92L160.1 132.3L160.11 116.2ZM159.02 115.06V116.2L159.01 132.29V133.34L160.06 133.38L176.43 134L177.56 134.04V132.91L177.58 116.98V115.94L176.54 115.89L160.16 115.1L159.02 115.06Z" fill="#549BEF"/>
<path d="M283.6 133L192.83 129.29L192.84 124.11L283.62 128.11L283.6 133Z" fill="#549BEF"/>
<path d="M168.02 129.95L163.12 124.96L165.04 123.18L167.66 125.86L172.63 119.17L174.81 120.77L168.02 129.95Z" fill="#CEDB59"/>
<path d="M159.54 161.9L159.55 144.74L177 145.27L176.98 162.25L159.54 161.9Z" fill="white"/>
<path d="M160.09 145.3L176.46 145.79L176.44 161.69L160.08 161.36L160.09 145.3ZM159 144.18V145.3L158.99 161.36V162.43L160.06 162.45L176.42 162.78L177.53 162.8V161.69L177.55 145.79V144.73L176.49 144.7L160.12 144.21L159 144.18Z" fill="#549BEF"/>
<path d="M283.49 159.88L192.78 157.79L192.79 152.61L283.51 155L283.49 159.88Z" fill="#549BEF"/>
<path d="M168 158.89L163.1 153.99L165.01 152.17L167.64 154.81L172.6 148.03L174.78 149.6L168 158.89Z" fill="#CEDB59"/>
<path d="M159.52 190.93L159.53 173.8L176.97 174.01L176.95 190.97L159.52 190.93Z" fill="white"/>
<path d="M160.07 174.35L176.42 174.55L176.4 190.43L160.05 190.39L160.07 174.35ZM158.99 173.25V174.35L158.98 190.39V191.47H160.06L176.41 191.51H177.5V190.42L177.52 174.54V173.47L176.45 173.46L160.1 173.26L158.99 173.25Z" fill="#549BEF"/>
<path d="M283.38 186.72L192.74 186.24L192.75 181.07L283.4 181.84L283.38 186.72Z" fill="#549BEF"/>
<path d="M159.51 202.81L176.94 202.72L176.92 219.65L159.5 219.91L159.51 202.81Z" fill="white"/>
<path d="M176.39 203.26L176.37 219.11L160.04 219.36L160.05 203.35L176.39 203.26ZM177.48 202.17L176.39 202.18L160.05 202.27L158.97 202.28V203.36L158.96 219.37V220.47L160.06 220.45L176.39 220.2L177.46 220.18V219.11L177.48 203.26V202.17Z" fill="#549BEF"/>
<path d="M283.27 213.52L192.7 214.64V209.48L283.29 208.65L283.27 213.52Z" fill="#549BEF"/>
<path d="M341.63 168.65L341.53 185.41C341.52 187.9 343.35 189.93 345.62 189.94L416.55 190.18C418.6 190.19 420.27 188.28 420.29 185.92L420.42 170.07L341.63 168.65Z" fill="url(#paint2_radial)"/>
<path d="M382.07 170.53C382.05 173.98 381.26 176.64 379.71 178.54C378.16 180.44 375.96 181.38 373.13 181.35C370.24 181.32 368.03 180.34 366.48 178.41C364.93 176.47 364.17 173.73 364.19 170.19C364.21 166.65 365.02 163.95 366.6 162.09C368.18 160.23 370.41 159.34 373.3 159.41C376.13 159.48 378.3 160.49 379.83 162.43C381.34 164.38 382.09 167.08 382.07 170.53ZM367.54 170.29C367.52 172.92 367.99 174.93 368.93 176.3C369.87 177.67 371.28 178.37 373.14 178.39C374.99 178.41 376.39 177.76 377.33 176.43C378.28 175.11 378.76 173.12 378.78 170.48C378.8 167.88 378.35 165.89 377.43 164.53C376.51 163.16 375.12 162.46 373.27 162.41C371.4 162.37 369.98 163.01 369.01 164.35C368.05 165.68 367.56 167.66 367.54 170.29Z" fill="white"/>
<path d="M400.181 181.32L396.701 181.29L390.951 171.71L389.141 173.34L389.081 181.22L386.021 181.19L386.171 160.08L389.231 160.16L389.161 170.22C390.001 169.08 390.841 167.99 391.671 166.94L396.721 160.34L400.151 160.42C396.901 164.64 394.571 167.66 393.151 169.46L400.181 181.32Z" fill="white"/>
<path d="M422.68 110.32C417.94 110.03 414.09 105.31 414.13 99.79C414.17 94.27 418.09 90.08 422.83 90.44C427.54 90.8 431.31 95.52 431.27 100.97C431.23 106.42 427.39 110.61 422.68 110.32ZM422.82 92.67C419.14 92.4 416.11 95.65 416.07 99.93C416.04 104.2 419.02 107.87 422.69 108.1C426.35 108.33 429.34 105.07 429.37 100.84C429.41 96.61 426.48 92.94 422.82 92.67Z" fill="#84817D"/>
<path d="M426.38 100.63C426.36 102.95 424.73 104.73 422.72 104.59C420.71 104.46 419.09 102.46 419.11 100.13C419.13 97.8 420.78 96.02 422.79 96.17C424.79 96.31 426.4 98.31 426.38 100.63Z" fill="#84817D"/>
<path d="M488.72 106.37L437.01 103.54L437.05 99.14L488.76 102.13L488.72 106.37Z" fill="white"/>
<path d="M422.41 143.65C417.67 143.47 413.83 138.85 413.87 133.35C413.91 127.84 417.83 123.56 422.57 123.81C427.28 124.05 431.05 128.67 431 134.11C430.96 139.55 427.12 143.83 422.41 143.65ZM422.55 126.03C418.87 125.85 415.84 129.17 415.81 133.43C415.78 137.7 418.75 141.28 422.43 141.42C426.08 141.56 429.07 138.24 429.11 134.02C429.14 129.8 426.21 126.22 422.55 126.03Z" fill="#84817D"/>
<path d="M487.81 138.09L436.74 136.54L436.77 132.14L487.85 133.86L487.81 138.09Z" fill="white"/>
<path d="M362.39 63.96L362.45 54.97C362.47 51.85 360.21 49.09 357.39 48.8L274.52 40.4C271.35 40.08 268.77 42.51 268.75 45.84L268.71 55.42L362.39 63.96Z" fill="#A8B82F"/>
<path d="M290.37 35.98L284.54 35.37L284.48 50.45L290.3 51.01L290.37 35.98Z" fill="#9C9894"/>
<path d="M348.15 42.07L342.76 41.5L342.68 56.01L348.06 56.52L348.15 42.07Z" fill="#9C9894"/>
<path d="M294.32 100.86L282.92 100.15L282.87 112.22L294.26 112.84L294.32 100.86Z" fill="white"/>
<path d="M313.26 102.04L302.16 101.35L302.1 113.27L313.21 113.88L313.26 102.04Z" fill="white"/>
<path d="M331.74 103.2L320.91 102.52L320.85 114.29L331.68 114.88L331.74 103.2Z" fill="white"/>
<path d="M349.76 104.33L339.2 103.66L339.13 115.29L349.69 115.87L349.76 104.33Z" fill="white"/>
<path d="M294.39 82.76L283 81.91L282.95 94L294.34 94.76L294.39 82.76Z" fill="white"/>
<path d="M313.35 84.17L302.24 83.35L302.19 95.28L313.29 96.02L313.35 84.17Z" fill="white"/>
<path d="M331.84 85.55L321 84.74L320.94 96.53L331.77 97.25L331.84 85.55Z" fill="white"/>
<path d="M349.87 86.9L339.3 86.11L339.23 97.75L349.8 98.45L349.87 86.9Z" fill="white"/>
<path d="M313.44 66.29L302.32 65.32L302.27 77.27L313.38 78.14L313.44 66.29Z" fill="#9C9894"/>
<path d="M331.93 67.89L321.09 66.95L321.03 78.75L331.87 79.6L331.93 67.89Z" fill="white"/>
<path d="M349.97 69.45L339.4 68.54L339.33 80.18L349.9 81.02L349.97 69.45Z" fill="white"/>
<path d="M467.44 199.9L445.27 199.99L445.05 225.47L467.21 224.97C468.22 224.95 469.05 223.95 469.06 222.74L469.25 202.09C469.26 200.87 468.45 199.89 467.44 199.9Z" fill="#3E8EED"/>
<path d="M464.16 219.26L460.6 215.04C461.33 213.91 461.78 212.53 461.8 211.02C461.83 207.36 459.36 204.41 456.26 204.43C453.15 204.45 450.59 207.47 450.56 211.16C450.53 214.85 453.04 217.8 456.14 217.75C457.3 217.73 458.38 217.29 459.28 216.56L462.87 220.81L464.16 219.26ZM452.4 211.13C452.42 208.64 454.15 206.6 456.25 206.58C458.34 206.56 460.02 208.56 460 211.04C459.98 213.51 458.26 215.55 456.17 215.59C454.07 215.62 452.37 213.62 452.4 211.13Z" fill="white"/>
<defs>
<radialGradient id="paint0_radial" cx="0" cy="0" r="1" gradientUnits="userSpaceOnUse" gradientTransform="translate(308.006 205.363) scale(138.53)">
<stop stop-color="#B0D1F7"/>
<stop offset="1" stop-color="#98C2F5"/>
</radialGradient>
<radialGradient id="paint1_radial" cx="0" cy="0" r="1" gradientUnits="userSpaceOnUse" gradientTransform="translate(344.86 190.423) scale(57.159)">
<stop stop-color="#E6E4E3"/>
<stop offset="1" stop-color="#D5D3D0"/>
</radialGradient>
<radialGradient id="paint2_radial" cx="0" cy="0" r="1" gradientUnits="userSpaceOnUse" gradientTransform="translate(366.089 149.566) scale(70.4751)">
<stop offset="0.1951" stop-color="#908D89"/>
<stop offset="0.6766" stop-color="#63605C"/>
</radialGradient>
</defs>
</svg>
