<svg width="636" height="300" viewBox="0 0 636 300" fill="none" xmlns="http://www.w3.org/2000/svg">
<path d="M252.42 237.51L512.28 243.08L511.36 53.5601L251.04 73.4001L252.42 237.51Z" fill="#BDD8F9"/>
<path d="M511.76 136L511.36 53.5601L319.35 68.1901L511.76 136Z" fill="#6BA8F1"/>
<path d="M252.01 189.14L252.42 237.51L368.3 239.99L252.01 189.14Z" fill="#6BA8F1"/>
<path d="M363.61 118.17L278.16 122.14L278.01 103.38L363.48 98.4601L363.61 118.17Z" fill="white"/>
<path d="M404.94 142.17L309.25 145.26C308.26 145.29 307.45 144.47 307.44 143.42C307.43 142.37 308.23 141.49 309.22 141.46L404.91 138.16C406.02 138.12 406.92 138.99 406.93 140.1C406.94 141.21 406.05 142.13 404.94 142.17Z" fill="#B3AFAB"/>
<path d="M405.03 156.71L309.36 159.04C308.37 159.06 307.56 158.23 307.55 157.19C307.54 156.14 308.34 155.27 309.33 155.24L405.01 152.7C406.12 152.67 407.02 153.55 407.03 154.65C407.03 155.76 406.14 156.68 405.03 156.71Z" fill="#B3AFAB"/>
<path d="M405.12 171.24L309.46 172.82C308.47 172.84 307.66 172 307.65 170.95C307.64 169.9 308.44 169.04 309.43 169.02L405.09 167.23C406.2 167.21 407.1 168.09 407.11 169.2C407.12 170.31 406.23 171.22 405.12 171.24Z" fill="#B3AFAB"/>
<path d="M405.21 185.77L309.56 186.59C308.57 186.6 307.76 185.76 307.75 184.71C307.74 183.66 308.54 182.8 309.53 182.79L405.18 181.76C406.29 181.75 407.19 182.64 407.2 183.74C407.21 184.86 406.32 185.76 405.21 185.77Z" fill="#B3AFAB"/>
<path d="M377.44 200.31L309.67 200.35C308.68 200.35 307.87 199.5 307.86 198.45C307.85 197.4 308.65 196.55 309.64 196.55L377.41 196.36C378.48 196.36 379.36 197.24 379.37 198.33C379.38 199.43 378.51 200.31 377.44 200.31Z" fill="#B3AFAB"/>
<path d="M469.41 182.39L452.61 172.66L435.69 182.73L435.4 133.76L469.14 132.54L469.41 182.39Z" fill="#0064DA"/>
<path d="M453.95 74L458.36 76.59C459.13 77.04 460.05 77.2 460.97 77.04L466.28 76.12C467.87 75.85 469.42 76.53 470.19 77.85L472.77 82.27C473.22 83.04 473.94 83.61 474.82 83.89L479.87 85.49C481.39 85.97 482.4 87.31 482.42 88.87L482.51 94.11C482.53 95.02 482.88 95.87 483.5 96.53L487.1 100.3C488.18 101.43 488.4 103.11 487.66 104.55L485.2 109.35C484.77 110.18 484.66 111.12 484.88 111.99L486.15 117.04C486.53 118.55 485.91 120.17 484.58 121.13L480.15 124.34C479.38 124.89 478.84 125.69 478.61 126.57L477.28 131.68C476.88 133.2 475.58 134.37 473.98 134.63L468.65 135.5C467.73 135.65 466.88 136.11 466.26 136.8L462.69 140.76C461.63 141.94 459.95 142.39 458.46 141.91L453.48 140.3C452.62 140.02 451.68 140.05 450.82 140.39L445.9 142.31C444.44 142.88 442.79 142.54 441.73 141.44L438.21 137.77C437.6 137.13 436.78 136.74 435.89 136.65L430.76 136.16C429.23 136.01 427.98 134.96 427.59 133.51L426.27 128.64C426.04 127.8 425.52 127.07 424.79 126.59L420.6 123.83C419.35 123.01 418.76 121.5 419.1 120.01L420.23 115.03C420.43 114.16 420.31 113.27 419.9 112.51L417.56 108.11C416.86 106.8 417.05 105.16 418.04 103.97L421.35 99.96C421.93 99.26 422.24 98.4 422.25 97.52L422.28 92.44C422.29 90.92 423.22 89.51 424.64 88.87L429.41 86.72C430.24 86.35 430.93 85.7 431.35 84.89L433.78 80.24C434.51 78.85 435.99 77.98 437.53 78.04L442.71 78.26C443.61 78.3 444.52 78.02 445.27 77.47L449.61 74.3C450.92 73.34 452.63 73.23 453.95 74Z" fill="#A3C9F6"/>
<path d="M480.92 106.72C481 122.34 468 135.45 452.13 136C436.52 136.54 423.98 124.7 423.89 109.55C423.8 94.39 436.2 81.29 451.81 80.29C467.7 79.26 480.84 91.09 480.92 106.72Z" fill="#0064DA"/>
<path d="M448.31 122.42C447.88 122.44 447.44 122.33 447.06 122.07L436.81 114.97C435.89 114.34 435.68 113.07 436.36 112.13C437.04 111.19 438.34 110.94 439.26 111.56L447.85 117.51L464.19 95.28C464.89 94.33 466.23 94.06 467.18 94.7C468.13 95.33 468.33 96.63 467.62 97.58L449.98 121.52C449.57 122.08 448.94 122.39 448.31 122.42Z" fill="#E5F0FC"/>
<path d="M110.61 173.33L292.48 171.56L291.16 29.01L108.28 45.69L110.61 173.33Z" fill="#FDC9B5"/>
<path d="M109.31 101.79L194.12 65.09L291.75 92.22L291.16 29.01L108.28 45.69L109.31 101.79Z" fill="#D8604D"/>
<path d="M169.61 40.1L170.53 100.17L195.32 112.82L220.68 97.59L219.88 35.51L169.61 40.1Z" fill="#E97762"/>
<path d="M280.79 138.41L223.91 139.8L223.76 127.77L280.66 125.95L280.79 138.41Z" fill="#B3AFAB"/>
<path d="M201.92 132.41L128.32 134.58C127.51 134.6 126.84 133.88 126.83 132.97C126.81 132.06 127.46 131.29 128.26 131.27L201.87 128.93C202.76 128.9 203.5 129.66 203.51 130.62C203.52 131.59 202.81 132.39 201.92 132.41Z" fill="white"/>
<path d="M202.06 142.86L128.49 144.53C127.68 144.55 127.01 143.82 127 142.91C126.98 142 127.63 141.24 128.43 141.22L202.01 139.38C202.9 139.36 203.64 140.12 203.65 141.08C203.67 142.04 202.95 142.84 202.06 142.86Z" fill="white"/>
<path d="M167.51 153.84L128.66 154.46C127.85 154.47 127.19 153.74 127.17 152.83C127.15 151.92 127.8 151.16 128.6 151.15L167.45 150.44C168.3 150.42 169.01 151.17 169.02 152.11C169.04 153.05 168.36 153.83 167.51 153.84Z" fill="white"/>
<path d="M194.47 62.35L196.9 63.63L199.62 62.9L201.51 65L204.27 65.26L205.4 67.95L207.9 69.19L208.14 72.19L210.09 74.26L209.41 77.22L210.61 79.9L209.08 82.51L209.38 85.5L207.18 87.46L206.56 90.42L203.92 91.52L202.46 94.13L199.69 94.25L197.55 96.23L194.94 95.37L192.36 96.51L190.19 94.77L187.46 94.95L185.96 92.52L183.37 91.74L182.69 88.89L180.51 87.22L180.72 84.26L179.18 81.89L180.25 79.12L179.52 76.3L181.34 74.01L181.49 71.04L183.87 69.49L184.89 66.67L187.58 66.02L189.38 63.66L192.09 63.99L194.47 62.35Z" fill="#F7B548"/>
<path d="M201.29 72.34C200.68 71.88 199.82 72.05 199.38 72.72L192.16 83.57L188.45 80.72C187.85 80.27 187.01 80.44 186.57 81.1C186.14 81.76 186.28 82.66 186.88 83.11L191.68 86.78C191.92 86.96 192.19 87.05 192.49 87.03C192.91 87.01 193.32 86.78 193.57 86.41L201.61 74.37C201.83 74.05 201.91 73.66 201.86 73.27C201.78 72.9 201.59 72.56 201.29 72.34Z" fill="white"/>
</svg>
