<svg width="636" height="300" viewBox="0 0 636 300" fill="none" xmlns="http://www.w3.org/2000/svg">
<path d="M111.94 186.13C234.45 158.36 450.15 145.3 521.02 173.87C611.11 210.18 481.97 245.64 396.68 230.87C323.92 218.26 278.27 220.01 223.23 225.67C104.24 237.9 20.39 206.89 111.94 186.13Z" fill="url(#paint0_linear)"/>
<path d="M189.24 176.11C194.06 173.6 203.26 167.88 207.65 159.69L201.07 157.49C197.08 164.92 188.73 169.78 184.9 171.7C184.58 171.86 186.49 174.27 189.24 176.11Z" fill="url(#paint1_linear)"/>
<path d="M189.24 176.11C194.06 173.6 203.26 167.88 207.65 159.69L201.07 157.49C197.08 164.92 188.73 169.78 184.9 171.7C184.58 171.86 186.49 174.27 189.24 176.11Z" fill="url(#paint2_linear)"/>
<path d="M184.96 171.67L188.36 175.15C187.3 176.31 179.41 176.91 178.73 192.98L174.82 198.53L160.93 184.35C160.41 183.62 160.78 182.74 161.49 182.41L184.96 171.67Z" fill="#522CD5"/>
<path d="M182.29 196.14C182.38 197.07 181.84 197.68 180.86 198.14L177.39 199.72C176.85 199.97 176.09 199.84 175.7 199.44L172.92 196.6C172.48 196.15 172.61 195.55 173.22 195.27L176.24 193.73C177.37 193.21 177.98 192.76 177.88 191.52C177.31 184.17 179.31 177.03 186.37 173.12L189.27 176.09C185.84 178.29 181.16 183.88 182.29 196.14Z" fill="url(#paint3_linear)"/>
<path d="M175.7 199.44C176.09 199.84 176.85 199.96 177.39 199.72L180.86 198.14C181.41 197.89 181.81 197.59 182.05 197.21L177.66 192.71C177.39 193.14 176.92 193.43 176.25 193.73L173.23 195.27C172.62 195.55 172.48 196.14 172.93 196.6L175.7 199.44Z" fill="url(#paint4_radial)"/>
<path d="M136.28 232.42L165.33 228.33L156.94 218.21L187.61 214.12L207.84 213.91L164.04 243.18L136.28 232.42Z" fill="#CCCAC7"/>
<path d="M207.84 213.91L179.75 218.21V248.34L207.84 244.04V213.91Z" fill="#BBB8B4"/>
<path d="M400.43 238.03L382.14 239.51L271.54 248.54V251.19C271.52 251.82 271.95 252.47 272.75 252.47H367.8C367.93 252.47 368.06 252.45 368.19 252.41L399.6 241.89C400.2 241.69 400.45 241.17 400.42 240.67H400.44V238.03H400.43Z" fill="#625F5B"/>
<path d="M367.81 249.78H272.76C271.38 249.78 271.06 247.84 272.37 247.4L303.78 236.88C303.9 236.84 304.04 236.82 304.17 236.82H399.22C400.6 236.82 400.92 238.76 399.61 239.2L368.2 249.72C368.07 249.76 367.94 249.78 367.81 249.78Z" fill="#84817D"/>
<path d="M343.01 199.15L355.6 242.98L360.99 241.44L348.88 199.15H343.01Z" fill="#625F5B"/>
<path d="M355.68 242.98H315.27L302.94 199.15H343.35L355.68 242.98Z" fill="#797672"/>
<path d="M201.79 211.13H450.34C452.91 211.13 455 209.04 455 206.47V43.2C455 40.63 452.91 38.54 450.34 38.54H201.79C199.22 38.54 197.13 40.63 197.13 43.2V206.48C197.13 209.04 199.21 211.13 201.79 211.13Z" fill="#B3AFAB"/>
<path d="M206.42 201.86H438.34C440.97 201.86 443.11 199.73 443.11 197.09V52.5801C443.11 49.9501 440.98 47.8101 438.34 47.8101H206.42C203.79 47.8101 201.65 49.9401 201.65 52.5801V197.09C201.65 199.72 203.78 201.86 206.42 201.86Z" fill="#84817D"/>
<path d="M324.1 49.54H209.03C206.46 49.54 204.37 51.63 204.37 54.2V195.46C204.37 198.03 206.46 200.12 209.03 200.12H324.1V49.54Z" fill="#DDDBDA"/>
<path d="M440.39 67.81V54.21C440.39 51.64 438.3 49.55 435.73 49.55H209.03C206.46 49.55 204.37 51.64 204.37 54.21V67.81H440.39Z" fill="#60A2F0"/>
<path d="M324.09 49.54H223.44V200.12H324.09V49.54Z" fill="white"/>
<path d="M324.1 49.54H209.03C206.46 49.54 204.37 51.63 204.37 54.2V67.8H324.1V49.54Z" fill="#F7B548"/>
<path d="M251.21 83.9901H233.62C232.6 83.9901 231.78 83.1701 231.78 82.1501C231.78 81.1301 232.6 80.3101 233.62 80.3101H251.21C252.23 80.3101 253.05 81.1301 253.05 82.1501C253.05 83.1601 252.22 83.9901 251.21 83.9901Z" fill="#BBB8B4"/>
<path d="M308.22 92.73H272.78C271.76 92.73 270.94 91.91 270.94 90.89C270.94 89.87 271.76 89.05 272.78 89.05H308.22C309.24 89.05 310.06 89.87 310.06 90.89C310.06 91.91 309.24 92.73 308.22 92.73Z" fill="#908D89"/>
<path d="M263.02 92.73H244.66C243.64 92.73 242.82 91.91 242.82 90.89C242.82 89.87 243.64 89.05 244.66 89.05H263.02C264.04 89.05 264.86 89.87 264.86 90.89C264.86 91.91 264.04 92.73 263.02 92.73Z" fill="#F7B548"/>
<path d="M302.24 101.47H288.96C287.94 101.47 287.12 100.65 287.12 99.63C287.12 98.61 287.94 97.79 288.96 97.79H302.24C303.26 97.79 304.08 98.61 304.08 99.63C304.08 100.65 303.25 101.47 302.24 101.47Z" fill="#D5D3D0"/>
<path d="M278.69 101.47H255.7C254.68 101.47 253.86 100.65 253.86 99.63C253.86 98.61 254.68 97.79 255.7 97.79H278.69C279.71 97.79 280.53 98.61 280.53 99.63C280.53 100.65 279.7 101.47 278.69 101.47Z" fill="#BBB8B4"/>
<path d="M314.87 110.22H307.97C306.95 110.22 306.13 109.4 306.13 108.38C306.13 107.36 306.95 106.54 307.97 106.54H314.87C315.89 106.54 316.71 107.36 316.71 108.38C316.71 109.4 315.88 110.22 314.87 110.22Z" fill="#F7B548"/>
<path d="M297.95 110.22H255.7C254.68 110.22 253.86 109.4 253.86 108.38C253.86 107.36 254.68 106.54 255.7 106.54H297.95C298.97 106.54 299.79 107.36 299.79 108.38C299.79 109.4 298.97 110.22 297.95 110.22Z" fill="#D5D3D0"/>
<path d="M285.11 118.96H266.75C265.73 118.96 264.91 118.14 264.91 117.12C264.91 116.1 265.73 115.28 266.75 115.28H285.11C286.13 115.28 286.95 116.1 286.95 117.12C286.95 118.14 286.13 118.96 285.11 118.96Z" fill="#BBB8B4"/>
<path d="M309.44 127.7H290.5C289.48 127.7 288.66 126.88 288.66 125.86C288.66 124.84 289.48 124.02 290.5 124.02H309.43C310.45 124.02 311.27 124.84 311.27 125.86C311.28 126.88 310.45 127.7 309.44 127.7Z" fill="#BBB8B4"/>
<path d="M279.97 127.7H266.74C265.72 127.7 264.9 126.88 264.9 125.86C264.9 124.84 265.72 124.02 266.74 124.02H279.97C280.99 124.02 281.81 124.84 281.81 125.86C281.81 126.88 280.99 127.7 279.97 127.7Z" fill="#F7B548"/>
<path d="M307.14 136.45H283.55C282.53 136.45 281.71 135.63 281.71 134.61C281.71 133.59 282.53 132.77 283.55 132.77H307.14C308.16 132.77 308.98 133.59 308.98 134.61C308.98 135.62 308.16 136.45 307.14 136.45Z" fill="#D5D3D0"/>
<path d="M273.54 136.45H258C256.98 136.45 256.16 135.63 256.16 134.61C256.16 133.59 256.98 132.77 258 132.77H273.54C274.56 132.77 275.38 133.59 275.38 134.61C275.38 135.62 274.56 136.45 273.54 136.45Z" fill="#D5D3D0"/>
<path d="M309.46 145.19H288.7C287.68 145.19 286.86 144.37 286.86 143.35C286.86 142.33 287.68 141.51 288.7 141.51H309.46C310.48 141.51 311.3 142.33 311.3 143.35C311.3 144.37 310.48 145.19 309.46 145.19Z" fill="#BBB8B4"/>
<path d="M279.72 145.19H255.7C254.68 145.19 253.86 144.37 253.86 143.35C253.86 142.33 254.68 141.51 255.7 141.51H279.71C280.73 141.51 281.55 142.33 281.55 143.35C281.56 144.37 280.73 145.19 279.72 145.19Z" fill="#F7B548"/>
<path d="M298.5 153.93H278.23C277.21 153.93 276.39 153.11 276.39 152.09C276.39 151.07 277.21 150.25 278.23 150.25H298.5C299.52 150.25 300.34 151.07 300.34 152.09C300.34 153.11 299.51 153.93 298.5 153.93Z" fill="#908D89"/>
<path d="M304.51 162.79H269.07C268.05 162.79 267.23 161.97 267.23 160.95C267.23 159.93 268.05 159.11 269.07 159.11H304.51C305.53 159.11 306.35 159.93 306.35 160.95C306.35 161.96 305.53 162.79 304.51 162.79Z" fill="#BBB8B4"/>
<path d="M302.24 171.53H288.96C287.94 171.53 287.12 170.71 287.12 169.69C287.12 168.67 287.94 167.85 288.96 167.85H302.24C303.26 167.85 304.08 168.67 304.08 169.69C304.08 170.71 303.25 171.53 302.24 171.53Z" fill="#BBB8B4"/>
<path d="M278.69 171.53H255.7C254.68 171.53 253.86 170.71 253.86 169.69C253.86 168.67 254.68 167.85 255.7 167.85H278.69C279.71 167.85 280.53 168.67 280.53 169.69C280.53 170.71 279.7 171.53 278.69 171.53Z" fill="#F7B548"/>
<path d="M314.87 180.27H307.97C306.95 180.27 306.13 179.45 306.13 178.43C306.13 177.41 306.95 176.59 307.97 176.59H314.87C315.89 176.59 316.71 177.41 316.71 178.43C316.71 179.45 315.88 180.27 314.87 180.27Z" fill="#F7B548"/>
<path d="M297.95 180.27H255.7C254.68 180.27 253.86 179.45 253.86 178.43C253.86 177.41 254.68 176.59 255.7 176.59H297.95C298.97 176.59 299.79 177.41 299.79 178.43C299.79 179.45 298.97 180.27 297.95 180.27Z" fill="#D5D3D0"/>
<path d="M285.11 189.02H266.75C265.73 189.02 264.91 188.2 264.91 187.18C264.91 186.16 265.73 185.34 266.75 185.34H285.11C286.13 185.34 286.95 186.16 286.95 187.18C286.95 188.2 286.13 189.02 285.11 189.02Z" fill="#BBB8B4"/>
<path d="M336.79 80.3101H332.34V83.9901H336.79V80.3101Z" fill="#625F5B"/>
<path d="M336.79 89.05H332.34V92.73H336.79V89.05Z" fill="#625F5B"/>
<path d="M336.79 97.8H332.34V101.48H336.79V97.8Z" fill="#625F5B"/>
<path d="M336.79 106.54H332.34V110.22H336.79V106.54Z" fill="#625F5B"/>
<path d="M336.79 115.28H332.34V118.96H336.79V115.28Z" fill="#625F5B"/>
<path d="M336.79 124.03H332.34V127.71H336.79V124.03Z" fill="#625F5B"/>
<path d="M336.79 132.77H332.34V136.45H336.79V132.77Z" fill="#625F5B"/>
<path d="M336.79 141.51H332.34V145.19H336.79V141.51Z" fill="#625F5B"/>
<path d="M336.79 150.26H332.34V153.94H336.79V150.26Z" fill="#625F5B"/>
<path d="M369.3 83.9901H351.71C350.69 83.9901 349.87 83.1701 349.87 82.1501C349.87 81.1301 350.69 80.3101 351.71 80.3101H369.3C370.32 80.3101 371.14 81.1301 371.14 82.1501C371.14 83.1601 370.32 83.9901 369.3 83.9901Z" fill="#625F5B"/>
<path d="M431.76 92.73H396.32C395.3 92.73 394.48 91.91 394.48 90.89C394.48 89.87 395.3 89.05 396.32 89.05H431.76C432.78 89.05 433.6 89.87 433.6 90.89C433.6 91.91 432.78 92.73 431.76 92.73Z" fill="#625F5B"/>
<path d="M386.56 92.73H351.99C350.97 92.73 350.15 91.91 350.15 90.89C350.15 89.87 350.97 89.05 351.99 89.05H386.56C387.58 89.05 388.4 89.87 388.4 90.89C388.4 91.91 387.58 92.73 386.56 92.73Z" fill="#625F5B"/>
<path d="M409.35 101.47H396.07C395.05 101.47 394.23 100.65 394.23 99.63C394.23 98.61 395.05 97.79 396.07 97.79H409.35C410.37 97.79 411.19 98.61 411.19 99.63C411.19 100.65 410.37 101.47 409.35 101.47Z" fill="#625F5B"/>
<path d="M385.8 101.47H362.81C361.79 101.47 360.97 100.65 360.97 99.63C360.97 98.61 361.79 97.79 362.81 97.79H385.8C386.82 97.79 387.64 98.61 387.64 99.63C387.64 100.65 386.82 101.47 385.8 101.47Z" fill="#625F5B"/>
<path d="M432.96 110.22H426.06C425.04 110.22 424.22 109.4 424.22 108.38C424.22 107.36 425.04 106.54 426.06 106.54H432.96C433.98 106.54 434.8 107.36 434.8 108.38C434.8 109.4 433.98 110.22 432.96 110.22Z" fill="#625F5B"/>
<path d="M416.04 110.22H373.79C372.77 110.22 371.95 109.4 371.95 108.38C371.95 107.36 372.77 106.54 373.79 106.54H416.04C417.06 106.54 417.88 107.36 417.88 108.38C417.88 109.4 417.06 110.22 416.04 110.22Z" fill="#625F5B"/>
<path d="M403.2 118.96H384.84C383.82 118.96 383 118.14 383 117.12C383 116.1 383.82 115.28 384.84 115.28H403.2C404.22 115.28 405.04 116.1 405.04 117.12C405.04 118.14 404.22 118.96 403.2 118.96Z" fill="#625F5B"/>
<path d="M427.53 127.7H408.6C407.58 127.7 406.76 126.88 406.76 125.86C406.76 124.84 407.58 124.02 408.6 124.02H427.53C428.55 124.02 429.37 124.84 429.37 125.86C429.37 126.88 428.55 127.7 427.53 127.7Z" fill="#625F5B"/>
<path d="M398.07 127.7H384.84C383.82 127.7 383 126.88 383 125.86C383 124.84 383.82 124.02 384.84 124.02H398.07C399.09 124.02 399.91 124.84 399.91 125.86C399.91 126.88 399.08 127.7 398.07 127.7Z" fill="#625F5B"/>
<path d="M411.89 136.45H388.3C387.28 136.45 386.46 135.63 386.46 134.61C386.46 133.59 387.28 132.77 388.3 132.77H411.89C412.91 132.77 413.73 133.59 413.73 134.61C413.73 135.62 412.91 136.45 411.89 136.45Z" fill="#625F5B"/>
<path d="M378.29 136.45H362.75C361.73 136.45 360.91 135.63 360.91 134.61C360.91 133.59 361.73 132.77 362.75 132.77H378.29C379.31 132.77 380.13 133.59 380.13 134.61C380.13 135.62 379.3 136.45 378.29 136.45Z" fill="#625F5B"/>
<path d="M427.55 145.19H406.8C405.78 145.19 404.96 144.37 404.96 143.35C404.96 142.33 405.78 141.51 406.8 141.51H427.56C428.58 141.51 429.4 142.33 429.4 143.35C429.39 144.37 428.57 145.19 427.55 145.19Z" fill="#625F5B"/>
<path d="M397.81 145.19H373.8C372.78 145.19 371.96 144.37 371.96 143.35C371.96 142.33 372.78 141.51 373.8 141.51H397.81C398.83 141.51 399.65 142.33 399.65 143.35C399.65 144.37 398.82 145.19 397.81 145.19Z" fill="#625F5B"/>
<path d="M413.2 153.93H392.93C391.91 153.93 391.09 153.11 391.09 152.09C391.09 151.07 391.91 150.25 392.93 150.25H413.2C414.22 150.25 415.04 151.07 415.04 152.09C415.04 153.11 414.22 153.93 413.2 153.93Z" fill="#625F5B"/>
<path d="M383.17 153.93H351.71C350.69 153.93 349.87 153.11 349.87 152.09C349.87 151.07 350.69 150.25 351.71 150.25H383.17C384.19 150.25 385.01 151.07 385.01 152.09C385.01 153.11 384.18 153.93 383.17 153.93Z" fill="#625F5B"/>
<path d="M336.79 159.41H332.34V163.09H336.79V159.41Z" fill="#625F5B"/>
<path d="M336.79 168.15H332.34V171.83H336.79V168.15Z" fill="#625F5B"/>
<path d="M336.79 176.89H332.34V180.57H336.79V176.89Z" fill="#625F5B"/>
<path d="M336.79 185.64H332.34V189.32H336.79V185.64Z" fill="#625F5B"/>
<path d="M369.3 163.08H351.71C350.69 163.08 349.87 162.26 349.87 161.24C349.87 160.22 350.69 159.4 351.71 159.4H369.3C370.32 159.4 371.14 160.22 371.14 161.24C371.14 162.26 370.32 163.08 369.3 163.08Z" fill="#625F5B"/>
<path d="M426.32 171.83H390.88C389.86 171.83 389.04 171.01 389.04 169.99C389.04 168.97 389.86 168.15 390.88 168.15H426.32C427.34 168.15 428.16 168.97 428.16 169.99C428.16 171 427.33 171.83 426.32 171.83Z" fill="#625F5B"/>
<path d="M381.11 171.83H362.75C361.73 171.83 360.91 171.01 360.91 169.99C360.91 168.97 361.73 168.15 362.75 168.15H381.11C382.13 168.15 382.95 168.97 382.95 169.99C382.95 171 382.13 171.83 381.11 171.83Z" fill="#625F5B"/>
<path d="M420.33 180.57H407.05C406.03 180.57 405.21 179.75 405.21 178.73C405.21 177.71 406.03 176.89 407.05 176.89H420.33C421.35 176.89 422.17 177.71 422.17 178.73C422.17 179.75 421.35 180.57 420.33 180.57Z" fill="#625F5B"/>
<path d="M396.78 180.57H373.79C372.77 180.57 371.95 179.75 371.95 178.73C371.95 177.71 372.77 176.89 373.79 176.89H396.78C397.8 176.89 398.62 177.71 398.62 178.73C398.62 179.75 397.8 180.57 396.78 180.57Z" fill="#625F5B"/>
<path d="M410.36 189.31H403.46C402.44 189.31 401.62 188.49 401.62 187.47C401.62 186.45 402.44 185.63 403.46 185.63H410.36C411.38 185.63 412.2 186.45 412.2 187.47C412.2 188.49 411.38 189.31 410.36 189.31Z" fill="#625F5B"/>
<path d="M394.52 189.31H352.27C351.25 189.31 350.43 188.49 350.43 187.47C350.43 186.45 351.25 185.63 352.27 185.63H394.52C395.54 185.63 396.36 186.45 396.36 187.47C396.36 188.49 395.54 189.31 394.52 189.31Z" fill="#625F5B"/>
<path d="M206.398 160.981L213.528 160.981L213.528 160.081L206.398 160.081L206.398 160.981Z" fill="#A08BE8"/>
<path d="M206.398 152.272L213.528 152.272L213.528 151.372L206.398 151.372L206.398 152.272Z" fill="#A08BE8"/>
<path d="M230.58 174.77C229.41 169.69 226.15 159.59 218.45 152.22L213.7 156.54C220.69 163.22 223.28 172.25 224.12 176.25C224.19 176.58 227.56 176.15 230.58 174.77Z" fill="url(#paint5_linear)"/>
<path d="M230.58 174.77C229.41 169.69 226.15 159.59 218.45 152.22L213.7 156.54C220.69 163.22 223.28 172.25 224.12 176.25C224.19 176.58 227.56 176.15 230.58 174.77Z" fill="url(#paint6_linear)"/>
<path d="M224.11 176.19L229.2 175.04C230.14 176.44 231.94 183.02 249.79 191.02L251.42 196.73L229.87 201.57C229.09 201.74 228.36 201.32 228.24 200.58L224.11 176.19Z" fill="#522CD5"/>
<path d="M251.08 189.88C252.16 190.24 252.38 191.39 252.53 192.25L253.05 195.33C253.14 195.88 252.74 196.44 252.16 196.57L250.31 196.99C249.65 197.14 249.03 196.75 248.92 196.13L248.23 192.97C248.03 191.81 247.74 191.11 246.31 190.62C237.84 187.68 228.45 183.2 226.48 175.67L230.57 174.75C231.86 178.53 236.9 185.11 251.08 189.88Z" fill="url(#paint7_linear)"/>
<path d="M251.84 190.39L247.57 191.35C247.96 191.77 248.12 192.28 248.24 192.97L248.93 196.13C249.04 196.75 249.66 197.14 250.32 196.99L252.17 196.57C252.75 196.44 253.16 195.88 253.06 195.33L252.54 192.25C252.43 191.64 252.28 190.9 251.84 190.39Z" fill="url(#paint8_radial)"/>
<path d="M238.21 140.87C240.21 132.82 238.79 126.43 238.79 126.43L240.68 126.41L240.73 126.37C237.86 111.68 224.84 100.67 209.34 100.84C191.87 101.04 177.87 115.35 178.07 132.82C178.27 150.29 192.58 164.29 210.05 164.09C223.83 163.94 235.46 154.99 239.65 142.64C239.75 142.13 239.73 141.19 238.21 140.87Z" fill="url(#paint9_radial)"/>
<path d="M179.75 218.21H156.94V232.42H136.28V248.77H179.75V218.21Z" fill="#A7A4A0"/>
<path d="M247.64 167.51C247.31 167.51 246.99 167.5 246.68 167.48C233.84 166.62 230.44 147.21 230.3 146.38L236.02 145.42C236.05 145.58 238.91 161.15 247.07 161.69C251.96 162.02 254.34 157.3 255.12 155.76C256.94 152.16 257.56 148.35 257.57 148.31L263.3 149.21C263.27 149.4 262.56 153.85 260.37 158.25C256.63 165.73 251.55 167.49 247.64 167.51Z" fill="#8A6FE8"/>
<path d="M264.45 158.77L240.63 158.88C239.87 158.88 239.42 158.18 239.62 157.32L243.59 140.06C243.79 139.19 244.57 138.49 245.33 138.48L269.15 138.37C269.91 138.37 270.36 139.07 270.16 139.93L266.19 157.19C265.99 158.06 265.21 158.77 264.45 158.77Z" fill="#605D5A"/>
<path d="M268.3 156.94L265.84 156.95C264.3 156.96 263.04 155.71 263.03 154.17C263.02 152.63 264.27 151.37 265.81 151.36L268.27 151.35C269.81 151.34 271.07 152.59 271.08 154.13C271.09 155.67 269.84 156.93 268.3 156.94Z" fill="#8A6FE8"/>
<path d="M270.62 152.05L267.06 152.07C265.52 152.08 264.26 150.83 264.25 149.29C264.24 147.75 265.49 146.49 267.03 146.48L270.59 146.46C272.13 146.45 273.39 147.7 273.4 149.24C273.42 150.79 272.17 152.05 270.62 152.05Z" fill="#8A6FE8"/>
<path d="M271.49 147.73L269.03 147.74C267.49 147.75 266.23 146.5 266.22 144.96C266.21 143.42 267.46 142.16 269 142.15L271.46 142.14C273 142.13 274.26 143.38 274.27 144.92C274.28 146.47 273.03 147.72 271.49 147.73Z" fill="#8A6FE8"/>
<path d="M238.21 140.87C240.19 132.92 238.83 126.59 238.79 126.44L205.98 126.81C205.98 126.81 203.91 126.62 203.93 128.51C203.95 130.4 204.09 135.73 204.15 141.63C204.16 142.84 205.16 143.42 205.95 143.41C205.95 143.42 237.82 141.93 238.21 140.87Z" fill="url(#paint10_radial)"/>
<path d="M218.8 141.24C218.8 141.24 223.8 137.19 224.78 136.44C225.76 135.69 226.62 135.64 227.53 136.41C228.44 137.18 233.54 141.08 233.54 141.08L218.8 141.24Z" fill="#A08BE8"/>
<path d="M239.51 143.02C239.51 143.02 240.37 141.32 238.2 140.88C238.2 140.87 205.94 141.22 205.94 141.22C205.19 141.23 204.22 140.79 204.13 140.06C204.14 140.58 204.14 141.11 204.15 141.64C204.16 142.74 204.99 143.31 205.72 143.4C205.79 143.41 205.87 143.42 205.94 143.41L208.15 143.39L239.51 143.02Z" fill="#512BD4"/>
<path d="M237.13 148.19L182.59 148.8C183.84 150.87 185.31 152.78 186.98 154.5L232.86 153.99C234.49 152.22 235.93 150.28 237.13 148.19Z" fill="#D8CFF7"/>
<path d="M169.26 158.65L175.54 158.71C175.6 152.13 177.17 146.72 180.21 142.64C182.88 139.05 186.76 136.39 191.74 134.73L189.75 128.77C180.49 131.86 169.43 139.55 169.26 158.65Z" fill="#8A6FE8"/>
<path d="M173.85 162.16L177.51 166.79C178.49 168.02 180.29 168.21 181.51 167.23C182.74 166.25 182.93 164.45 181.95 163.23L178.2 158.48L173.85 162.16Z" fill="#8A6FE8"/>
<path d="M168.19 160.56L166.91 166.32C166.58 167.86 167.56 169.37 169.1 169.7C170.64 170.03 172.15 169.05 172.48 167.51L173.79 161.6L168.19 160.56Z" fill="#8A6FE8"/>
<path d="M172.19 161.45L171.06 167.24C170.77 168.79 171.79 170.27 173.33 170.56C174.88 170.85 176.36 169.83 176.65 168.29L177.81 162.35L172.19 161.45Z" fill="#8A6FE8"/>
<path d="M166.55 158.02L164.17 163.42C163.55 164.86 164.21 166.54 165.66 167.16C167.1 167.78 168.78 167.12 169.4 165.67L171.84 160.13L166.55 158.02Z" fill="#8A6FE8"/>
<path d="M172.4 164.64C175.692 164.64 178.36 161.972 178.36 158.68C178.36 155.388 175.692 152.72 172.4 152.72C169.108 152.72 166.44 155.388 166.44 158.68C166.44 161.972 169.108 164.64 172.4 164.64Z" fill="url(#paint11_radial)"/>
<path d="M190.34 137.86C193.549 137.86 196.15 135.259 196.15 132.05C196.15 128.841 193.549 126.24 190.34 126.24C187.131 126.24 184.53 128.841 184.53 132.05C184.53 135.259 187.131 137.86 190.34 137.86Z" fill="url(#paint12_radial)"/>
<path d="M213.29 99.0001L207.18 98.9701L208.07 92.7001L212.46 92.7201L213.29 99.0001Z" fill="#8A6FE8"/>
<path d="M215.61 102.85C215.89 102.85 216.11 102.61 216.08 102.34C215.77 99.44 213.33 97.17 210.34 97.15C207.35 97.13 204.88 99.38 204.54 102.28C204.51 102.55 204.73 102.79 205 102.8L215.61 102.85Z" fill="url(#paint13_radial)"/>
<path d="M210.1 93.7501C212.536 93.7501 214.51 91.7756 214.51 89.34C214.51 86.9045 212.536 84.9301 210.1 84.9301C207.664 84.9301 205.69 86.9045 205.69 89.34C205.69 91.7756 207.664 93.7501 210.1 93.7501Z" fill="#BBACEF"/>
<path d="M220.438 155.914L230.786 155.701L230.598 146.543L220.251 146.755L220.438 155.914Z" fill="#512BD4"/>
<path d="M222.18 152.47C222.11 152.47 222.05 152.45 222 152.4C221.95 152.35 221.93 152.3 221.92 152.23C221.92 152.16 221.94 152.11 221.99 152.06C222.04 152.01 222.1 151.99 222.16 151.99C222.23 151.99 222.29 152.01 222.34 152.06C222.39 152.11 222.42 152.16 222.42 152.23C222.42 152.29 222.4 152.35 222.35 152.4C222.31 152.44 222.25 152.47 222.18 152.47Z" fill="white"/>
<path d="M224.93 152.38L224.48 152.39L223.27 150.55C223.24 150.5 223.21 150.46 223.19 150.4H223.18C223.19 150.45 223.2 150.57 223.2 150.75L223.23 152.41L222.83 152.42L222.78 149.89L223.26 149.88L224.43 151.68C224.48 151.75 224.51 151.81 224.53 151.83H224.54C224.53 151.76 224.52 151.65 224.52 151.49L224.49 149.86L224.88 149.85L224.93 152.38Z" fill="white"/>
<path d="M226.86 152.34L225.47 152.36L225.42 149.83L226.75 149.81L226.76 150.17L225.84 150.19L225.85 150.91L226.7 150.89L226.71 151.24L225.86 151.26L225.87 152.01L226.85 151.99L226.86 152.34Z" fill="white"/>
<path d="M228.79 150.13L228.08 150.14L228.12 152.31L227.71 152.32L227.67 150.15L226.96 150.16L226.95 149.8L228.78 149.77L228.79 150.13Z" fill="white"/>
<path d="M215.209 138.455C216.573 138.43 217.645 136.548 217.603 134.251C217.561 131.954 216.421 130.112 215.057 130.137C213.693 130.162 212.621 132.044 212.664 134.341C212.706 136.638 213.845 138.48 215.209 138.455Z" fill="#512BD4"/>
<path d="M215.11 132.21C214.21 133.12 214.21 134.58 215.12 135.48C215.74 136.09 216.61 136.29 217.39 136.06C217.54 135.51 217.62 134.9 217.61 134.25C217.59 133.21 217.34 132.26 216.95 131.54C216.29 131.48 215.61 131.71 215.11 132.21Z" fill="#8065E0"/>
<path d="M236.035 133.988C236.061 131.69 234.977 129.815 233.613 129.8C232.249 129.784 231.122 131.633 231.096 133.931C231.069 136.228 232.153 138.103 233.517 138.119C234.881 138.134 236.009 136.285 236.035 133.988Z" fill="#512BD4"/>
<path d="M233.54 131.75C232.64 132.66 232.64 134.12 233.55 135.02C234.17 135.64 235.05 135.83 235.84 135.6C235.97 135.1 236.05 134.56 236.05 133.98C236.06 132.85 235.81 131.83 235.38 131.08C234.73 131.02 234.05 131.24 233.54 131.75Z" fill="#8065E0"/>
<path d="M399.17 183.89L403.34 169.25H397.74L393.7 183.44C393.51 184.1 393.58 184.81 393.9 185.41L400.97 199.1C401.45 200.03 402.39 200.56 403.37 200.56C403.79 200.56 404.21 200.46 404.6 200.26C405.92 199.58 406.44 197.95 405.76 196.63L399.17 183.89Z" fill="#D8E8FB"/>
<path d="M392.33 168.94H387.07V199.67H392.33V168.94Z" fill="#D8E8FB"/>
<path d="M382.89 199.1L387.64 194.36C388.73 193.27 390.5 193.27 391.6 194.36L396.35 199.1C396.77 199.52 396.47 200.24 395.88 200.24H383.37C382.77 200.24 382.47 199.52 382.89 199.1Z" fill="#8DBCF4"/>
<path d="M388.04 173.3H405.04C407.33 173.3 409.29 171.63 409.65 169.37L411.67 156.67C412.12 153.84 409.93 151.27 407.06 151.27H386.02C383.15 151.27 380.96 153.84 381.41 156.67L383.43 169.37C383.79 171.63 385.74 173.3 388.04 173.3Z" fill="#549BEF"/>
<path d="M427.681 155.652L433.362 157.517L435.068 152.32L429.387 150.455L427.681 155.652Z" fill="#D8E8FB"/>
<path d="M431.82 165.6C431.64 165.34 431.71 164.98 431.99 164.82C432.89 164.3 433.61 163.46 433.96 162.39C434.72 160.08 433.46 157.59 431.15 156.83C431.02 156.79 431.47 154.56 431.47 154.56C431.56 154.58 431.65 154.6 431.73 154.63C434.9 155.67 436.63 159.08 435.59 162.25C435.06 163.85 433.93 165.09 432.53 165.78C432.28 165.91 431.98 165.83 431.82 165.6Z" fill="#D8E8FB"/>
<path d="M424.2 163.07C424.5 162.96 424.65 162.63 424.52 162.34C424.1 161.38 424.02 160.28 424.37 159.21C425.13 156.9 427.62 155.64 429.93 156.4C430.06 156.44 431.02 154.38 431.02 154.38C430.93 154.35 430.85 154.31 430.77 154.28C427.6 153.24 424.19 154.97 423.15 158.14C422.62 159.74 422.81 161.41 423.53 162.8C423.66 163.04 423.94 163.16 424.2 163.07Z" fill="#D8E8FB"/>
<path d="M419.7 134.8H395.04V140.06H419.7C432.39 140.06 429.84 148.99 429.84 149.37H435.1C435.1 149.22 437.59 134.8 419.7 134.8Z" fill="#D8E8FB"/>
<path d="M379.71 118.5C379.71 118.36 379.7 118.21 379.7 118.07C379.7 109.03 387.1 101.7 396.24 101.7C405.37 101.7 412.78 109.03 412.78 118.07C412.78 118.22 412.77 118.36 412.77 118.5H379.71Z" fill="#D8E8FB"/>
<path d="M393.21 115.1C395.044 115.1 396.53 113.614 396.53 111.78C396.53 109.946 395.044 108.46 393.21 108.46C391.376 108.46 389.89 109.946 389.89 111.78C389.89 113.614 391.376 115.1 393.21 115.1Z" fill="#549BEF"/>
<path d="M391.94 114.18C393.243 114.18 394.3 113.123 394.3 111.82C394.3 110.517 393.243 109.46 391.94 109.46C390.637 109.46 389.58 110.517 389.58 111.82C389.58 113.123 390.637 114.18 391.94 114.18Z" fill="white"/>
<path d="M384 115.1C385.834 115.1 387.32 113.614 387.32 111.78C387.32 109.946 385.834 108.46 384 108.46C382.166 108.46 380.68 109.946 380.68 111.78C380.68 113.614 382.166 115.1 384 115.1Z" fill="#549BEF"/>
<path d="M382.74 114.18C384.043 114.18 385.1 113.123 385.1 111.82C385.1 110.517 384.043 109.46 382.74 109.46C381.437 109.46 380.38 110.517 380.38 111.82C380.38 113.123 381.437 114.18 382.74 114.18Z" fill="white"/>
<path d="M428.41 152.16L435.63 152.91C436.13 152.96 436.57 152.6 436.62 152.11L437.04 148.01C437.09 147.51 436.73 147.07 436.24 147.02L429.02 146.27C428.52 146.22 428.08 146.58 428.03 147.07L427.61 151.17C427.56 151.67 427.92 152.11 428.41 152.16Z" fill="#549BEF"/>
<path d="M397.89 202.22L400.33 195.97C400.89 194.53 402.51 193.82 403.95 194.38L410.21 196.81C410.77 197.03 410.78 197.81 410.24 198.05L398.78 203.08C398.23 203.32 397.67 202.78 397.89 202.22Z" fill="#8DBCF4"/>
<path d="M446.82 38.7201H198.27C195.7 38.7201 193.61 40.8101 193.61 43.3801V206.66C193.61 209.23 195.7 211.32 198.27 211.32H446.82C449.39 211.32 451.48 209.23 451.48 206.66V43.3801C451.48 40.8101 449.4 38.7201 446.82 38.7201ZM440.56 195.65C440.56 198.22 438.47 200.31 435.9 200.31H209.2C206.63 200.31 204.54 198.22 204.54 195.65V54.3901C204.54 51.8201 206.63 49.7301 209.2 49.7301H435.89C438.46 49.7301 440.55 51.8201 440.55 54.3901V195.65H440.56Z" fill="#625F5B"/>
<path d="M356.15 142.58C356.42 142.4 356.78 142.49 356.94 142.76C357.46 143.66 358.3 144.38 359.36 144.73C361.67 145.49 364.16 144.24 364.93 141.93C364.97 141.8 367.2 142.25 367.2 142.25C367.18 142.34 367.16 142.43 367.13 142.51C366.08 145.68 362.67 147.4 359.5 146.35C357.9 145.82 356.67 144.69 355.98 143.29C355.85 143.05 355.92 142.74 356.15 142.58Z" fill="#D8E8FB"/>
<path d="M370.83 139.11C367.05 140.25 364.42 140.73 364.42 140.73L364.64 144.28C364.64 144.28 367.65 145.6 371.42 144.31C375.72 142.85 370.83 139.11 370.83 139.11Z" fill="#D8E8FB"/>
<path d="M370.14 138.24L372.23 145.19C372.37 145.67 372.88 145.94 373.35 145.79L377.3 144.6C377.78 144.46 378.05 143.95 377.9 143.48L375.81 136.53C375.67 136.05 375.16 135.78 374.69 135.93L370.74 137.12C370.26 137.26 369.99 137.77 370.14 138.24Z" fill="#549BEF"/>
<path d="M359.2 142.48H342.03C341.37 142.48 340.8 141.99 340.72 141.33L336.63 110.59C336.52 109.8 337.14 109.09 337.94 109.09H355.11C355.77 109.09 356.34 109.58 356.42 110.24L360.51 140.98C360.62 141.77 360.01 142.48 359.2 142.48Z" fill="#625F5B"/>
<path d="M357.97 139.61L342.74 139.64C342.45 139.64 342.21 139.43 342.17 139.14L338.4 111.35C338.35 111 338.62 110.7 338.97 110.7L354.2 110.67C354.49 110.67 354.73 110.88 354.77 111.17L358.54 138.96C358.59 139.3 358.32 139.61 357.97 139.61Z" fill="#E5F0FC"/>
<path d="M341.65 115.25H340.32L340.08 113.69H341.41L341.65 115.25Z" fill="#B2B2B2"/>
<path d="M342.13 118.38H340.8L340.56 116.82H341.89L342.13 118.38Z" fill="#B2B2B2"/>
<path d="M342.67 121.73H341.34L341.1 120.17H342.43L342.67 121.73Z" fill="#B2B2B2"/>
<path d="M343.15 124.85H341.82L341.58 123.29H342.91L343.15 124.85Z" fill="#B2B2B2"/>
<path d="M343.63 127.98H342.3L342.06 126.42H343.39L343.63 127.98Z" fill="#B2B2B2"/>
<path d="M344.1 131.11H342.77L342.53 129.55H343.86L344.1 131.11Z" fill="#B2B2B2"/>
<path d="M344.58 134.24H343.25L343.01 132.68H344.34L344.58 134.24Z" fill="#B2B2B2"/>
<path d="M349.43 115.25H344.02L343.78 113.69H349.19L349.43 115.25Z" fill="#549BEF"/>
<path d="M353.12 118.38H346.14L345.9 116.82H352.88L353.12 118.38Z" fill="#B2B2B2"/>
<path d="M351.34 121.73H348.29L348.05 120.17H351.1L351.34 121.73Z" fill="#549BEF"/>
<path d="M353.19 124.85H345.52L345.28 123.29H352.95L353.19 124.85Z" fill="#B2B2B2"/>
<path d="M352.78 127.98H347.64L347.4 126.42H352.54L352.78 127.98Z" fill="#B2B2B2"/>
<path d="M355.65 131.11H349.72L349.48 129.55H355.41L355.65 131.11Z" fill="#B2B2B2"/>
<path d="M354.25 134.24H346.95L346.71 132.68H354.01L354.25 134.24Z" fill="#549BEF"/>
<path d="M369.89 142.58C369.89 142.82 369.79 143.06 369.62 143.23C369.45 143.4 369.21 143.5 368.97 143.5H342.58C341.92 143.5 341.51 142.91 341.37 142.23L341.27 141.66H369.9V142.58H369.89Z" fill="#D5D3D0"/>
<path d="M351.93 142.58C351.93 142.82 351.83 143.06 351.66 143.23C351.49 143.4 351.25 143.5 351.01 143.5H342.13C341.47 143.5 341.06 142.91 340.92 142.23L340.82 141.66H351.93V142.58Z" fill="#A7A4A0"/>
<path d="M355.9 141.56C356.18 141.73 356.53 141.62 356.67 141.33C357.14 140.4 357.93 139.63 358.97 139.22C361.23 138.32 363.59 139.3 364.49 141.56C364.54 141.69 366.94 141.21 366.94 141.21C366.91 141.12 366.89 141.04 366.85 140.95C365.61 137.85 362.09 136.35 359 137.58C357.44 138.21 356.28 139.41 355.67 140.85C355.57 141.12 355.66 141.42 355.9 141.56Z" fill="#D8E8FB"/>
<path d="M407.18 164.12H385.45C381.35 164.12 377.88 161.11 377.31 157.05L372.91 126.09C372.21 121.14 376.05 116.71 381.05 116.71H411.58C416.58 116.71 420.43 121.14 419.72 126.09L415.32 157.05C414.75 161.11 411.28 164.12 407.18 164.12Z" fill="#8DBCF4"/>
<path d="M380.29 141.42H396.14C397.2 141.42 398.06 140.56 398.06 139.5V133.75C398.06 132.69 397.2 131.83 396.14 131.83H380.29C379.23 131.83 378.37 132.69 378.37 133.75V139.5C378.37 140.56 379.23 141.42 380.29 141.42Z" fill="white"/>
<path d="M420.71 130.59H419.55V130.56H412.76C411.83 130.56 411 131.15 410.7 132.02L408.01 139.68C407.26 141.82 408.85 144.05 411.11 144.05H418.27V144.02H420.71C422.33 144.02 423.64 142.71 423.64 141.09V133.51C423.64 131.9 422.33 130.59 420.71 130.59Z" fill="#549BEF"/>
<path d="M396.31 136.54H394.52L393.91 134.66C393.84 134.46 393.67 134.32 393.46 134.3C393.23 134.27 393.06 134.39 392.95 134.57L392.3 135.8C391.62 133.03 391.57 133 391.38 132.87C391.23 132.78 391.05 132.76 390.9 132.82C390.58 132.95 390.58 132.95 389.71 136.74C389.59 137.24 389.48 137.74 389.38 138.2L388.14 133.55C388.08 133.33 387.88 133.17 387.66 133.16C387.65 133.16 387.64 133.16 387.64 133.16C387.42 133.16 387.22 133.3 387.15 133.51L386.6 135.12L386.44 134.62C386.37 134.4 386.14 134.23 385.91 134.27C385.68 134.28 385.48 134.45 385.43 134.69L384.84 137.64L384.18 134.97C384.13 134.75 383.94 134.59 383.72 134.57C383.47 134.55 383.28 134.68 383.19 134.89L382.51 136.51H380.45C380.16 136.51 379.93 136.74 379.93 137.03C379.93 137.32 380.16 137.55 380.45 137.55H382.85C383.06 137.55 383.25 137.42 383.33 137.23L383.53 136.75L384.37 140.16C384.43 140.41 384.65 140.57 384.89 140.55C385.13 140.54 385.34 140.37 385.39 140.13L386.06 136.82L386.09 136.91C386.16 137.13 386.35 137.27 386.58 137.27C386.8 137.27 387 137.13 387.07 136.92L387.57 135.46L388.91 140.5C388.97 140.73 389.18 140.89 389.43 140.89C389.67 140.88 389.87 140.72 389.93 140.48C390.29 138.84 390.76 136.78 391.11 135.31C391.28 136 391.47 136.76 391.62 137.35C391.67 137.56 391.85 137.71 392.06 137.74C392.27 137.76 392.49 137.66 392.59 137.47L393.31 136.12L393.66 137.2C393.73 137.41 393.93 137.56 394.16 137.56H396.33C396.62 137.56 396.85 137.33 396.85 137.04C396.83 136.78 396.6 136.54 396.31 136.54Z" fill="#F7B548"/>
<defs>
<linearGradient id="paint0_linear" x1="311.827" y1="164.225" x2="313.437" y2="240.974" gradientUnits="userSpaceOnUse">
<stop stop-color="#B8D6F7"/>
<stop offset="1" stop-color="#E1EFF9"/>
</linearGradient>
<linearGradient id="paint1_linear" x1="205.945" y1="158.631" x2="192.293" y2="178.351" gradientUnits="userSpaceOnUse">
<stop stop-color="#522CD5"/>
<stop offset="0.4397" stop-color="#8A6FE8"/>
</linearGradient>
<linearGradient id="paint2_linear" x1="205.945" y1="158.631" x2="192.293" y2="178.351" gradientUnits="userSpaceOnUse">
<stop stop-color="#522CD5"/>
<stop offset="0.4397" stop-color="#8A6FE8"/>
</linearGradient>
<linearGradient id="paint3_linear" x1="190.026" y1="174.348" x2="180.241" y2="201.11" gradientUnits="userSpaceOnUse">
<stop stop-color="#522CD5"/>
<stop offset="0.4397" stop-color="#8A6FE8"/>
</linearGradient>
<radialGradient id="paint4_radial" cx="0" cy="0" r="1" gradientUnits="userSpaceOnUse" gradientTransform="translate(184.73 192.591) rotate(45.6644) scale(9.62006)">
<stop offset="0.034" stop-color="#522CD5"/>
<stop offset="0.9955" stop-color="#8A6FE8"/>
</radialGradient>
<linearGradient id="paint5_linear" x1="217.126" y1="153.033" x2="227.872" y2="176.225" gradientUnits="userSpaceOnUse">
<stop stop-color="#522CD5"/>
<stop offset="0.4397" stop-color="#8A6FE8"/>
</linearGradient>
<linearGradient id="paint6_linear" x1="217.126" y1="153.033" x2="227.872" y2="176.225" gradientUnits="userSpaceOnUse">
<stop stop-color="#522CD5"/>
<stop offset="0.4397" stop-color="#8A6FE8"/>
</linearGradient>
<linearGradient id="paint7_linear" x1="229.854" y1="172.605" x2="251.997" y2="196.946" gradientUnits="userSpaceOnUse">
<stop stop-color="#522CD5"/>
<stop offset="0.4397" stop-color="#8A6FE8"/>
</linearGradient>
<radialGradient id="paint8_radial" cx="0" cy="0" r="1" gradientUnits="userSpaceOnUse" gradientTransform="translate(243.694 187.501) rotate(-12.6839) scale(10.0727 9.40558)">
<stop offset="0.034" stop-color="#522CD5"/>
<stop offset="0.9955" stop-color="#8A6FE8"/>
</radialGradient>
<radialGradient id="paint9_radial" cx="0" cy="0" r="1" gradientUnits="userSpaceOnUse" gradientTransform="translate(215.339 123.674) rotate(-11.0054) scale(31.6353)">
<stop offset="0.4744" stop-color="#A08BE8"/>
<stop offset="0.8618" stop-color="#8065E0"/>
</radialGradient>
<radialGradient id="paint10_radial" cx="0" cy="0" r="1" gradientUnits="userSpaceOnUse" gradientTransform="translate(242.386 116.333) rotate(-11.0054) scale(28.9714)">
<stop offset="0.4755" stop-color="#E1DFDD"/>
<stop offset="1" stop-color="white"/>
</radialGradient>
<radialGradient id="paint11_radial" cx="0" cy="0" r="1" gradientUnits="userSpaceOnUse" gradientTransform="translate(170.82 156.734) rotate(-52.5331) scale(8.42565)">
<stop stop-color="#8065E0"/>
<stop offset="0.8628" stop-color="#512BD4"/>
</radialGradient>
<radialGradient id="paint12_radial" cx="0" cy="0" r="1" gradientUnits="userSpaceOnUse" gradientTransform="translate(190.598 129.62) scale(8.6261)">
<stop stop-color="#8065E0"/>
<stop offset="0.8628" stop-color="#512BD4"/>
</radialGradient>
<radialGradient id="paint13_radial" cx="0" cy="0" r="1" gradientUnits="userSpaceOnUse" gradientTransform="translate(209.981 100.479) rotate(-10.4278) scale(4.66258)">
<stop stop-color="#8065E0"/>
<stop offset="0.8628" stop-color="#512BD4"/>
</radialGradient>
</defs>
</svg>
