<svg width="636" height="300" viewBox="0 0 636 300" fill="none" xmlns="http://www.w3.org/2000/svg">
<path d="M517.18 168.81L307.09 174.21L309.12 61.53L518.99 45.72L517.18 168.81Z" fill="#3E8EED"/>
<path d="M517.52 145.93L443.82 149.04L439.61 153.26C439.61 153.26 377.56 155.68 307.26 164.55L307.09 174.22L517.18 168.82L517.52 145.93Z" fill="#A3C9F6"/>
<path d="M518.49 79.64L518.99 45.72L309.12 61.53L307.98 124.74C363.89 120.82 398.95 112.88 354.86 109.77C316.42 107.05 424.69 81.23 518.49 79.64Z" fill="url(#paint0_radial)"/>
<path d="M333.98 163.2C333.98 163.2 339.93 158.49 340.89 157.36C341.85 156.23 341.84 153.48 341.84 153.48L377.61 149.49C377.61 149.49 384.49 156.1 386.84 156.54C389.19 156.98 333.98 163.2 333.98 163.2Z" fill="#A3C9F6"/>
<path d="M391.73 156.29C393.76 154.71 395.24 152.84 395.24 152.84L412.12 151.34C412.12 151.34 414.67 154.38 416.27 154.72C417.87 155.06 389.7 157.87 391.73 156.29Z" fill="#A3C9F6"/>
<path d="M407.26 151.8L408.66 153.86C408.82 154.1 408.67 154.42 408.38 154.45L392.2 155.9L395.23 152.84L407.26 151.8Z" fill="url(#paint1_radial)"/>
<path d="M335.85 161.29L339.92 157.91L341.37 153.98C341.43 153.68 341.66 153.45 341.94 153.42L366.07 150.77L369.02 156.64H369.34C369.99 156.64 370.42 155.91 370.15 155.25L368.71 151.67L369.25 151.63C369.73 151.59 370.21 151.81 370.52 152.23L374.8 157.96C374.92 158.13 374.84 158.38 374.64 158.4L336.03 161.78C335.78 161.83 335.64 161.46 335.85 161.29Z" fill="url(#paint2_radial)"/>
<path d="M439.61 153.25L444.9 147.74L486.83 144.16L493.25 148.89L439.61 153.25Z" fill="#A3C9F6"/>
<path d="M316.38 150.33C317.037 150.33 317.57 149.797 317.57 149.14C317.57 148.483 317.037 147.95 316.38 147.95C315.723 147.95 315.19 148.483 315.19 149.14C315.19 149.797 315.723 150.33 316.38 150.33Z" fill="#81B5F3"/>
<path d="M397.24 122.56C398.091 122.56 398.78 121.87 398.78 121.02C398.78 120.169 398.091 119.48 397.24 119.48C396.39 119.48 395.7 120.169 395.7 121.02C395.7 121.87 396.39 122.56 397.24 122.56Z" fill="#81B5F3"/>
<path d="M349.2 92.99C350.194 92.99 351 92.1841 351 91.19C351 90.1959 350.194 89.39 349.2 89.39C348.206 89.39 347.4 90.1959 347.4 91.19C347.4 92.1841 348.206 92.99 349.2 92.99Z" fill="#81B5F3"/>
<path d="M329.12 85.6099C329.893 85.6099 330.52 84.9831 330.52 84.2099C330.52 83.4367 329.893 82.8099 329.12 82.8099C328.347 82.8099 327.72 83.4367 327.72 84.2099C327.72 84.9831 328.347 85.6099 329.12 85.6099Z" fill="#81B5F3"/>
<path d="M428.04 65.39C429.333 65.39 430.38 64.3423 430.38 63.05C430.38 61.7576 429.333 60.71 428.04 60.71C426.748 60.71 425.7 61.7576 425.7 63.05C425.7 64.3423 426.748 65.39 428.04 65.39Z" fill="#81B5F3"/>
<path d="M495.06 139.1C495.988 139.1 496.74 138.348 496.74 137.42C496.74 136.492 495.988 135.74 495.06 135.74C494.132 135.74 493.38 136.492 493.38 137.42C493.38 138.348 494.132 139.1 495.06 139.1Z" fill="#81B5F3"/>
<path d="M426 141.75C426.619 141.75 427.12 141.249 427.12 140.63C427.12 140.011 426.619 139.51 426 139.51C425.382 139.51 424.88 140.011 424.88 140.63C424.88 141.249 425.382 141.75 426 141.75Z" fill="#81B5F3"/>
<path d="M485.37 64.16C485.09 64.97 484.58 65.68 483.91 66.19C483.79 66.28 483.79 66.44 483.9 66.54C484.57 67.12 485.08 67.88 485.36 68.74C485.43 68.96 485.72 68.96 485.8 68.74C486.09 67.88 486.6 67.13 487.26 66.54C487.37 66.44 487.37 66.28 487.25 66.19C486.58 65.68 486.07 64.98 485.79 64.16C485.72 63.96 485.44 63.96 485.37 64.16Z" fill="#81B5F3"/>
<path d="M506.06 115.08C505.78 115.89 505.27 116.6 504.6 117.11C504.48 117.2 504.48 117.36 504.59 117.46C505.26 118.04 505.77 118.8 506.05 119.66C506.12 119.88 506.41 119.88 506.49 119.66C506.78 118.8 507.29 118.05 507.95 117.46C508.06 117.36 508.06 117.2 507.94 117.11C507.27 116.6 506.76 115.9 506.48 115.08C506.42 114.88 506.13 114.88 506.06 115.08Z" fill="#81B5F3"/>
<path d="M348.07 131.14C347.79 131.95 347.28 132.66 346.61 133.17C346.49 133.26 346.49 133.42 346.6 133.52C347.27 134.1 347.78 134.86 348.06 135.72C348.13 135.94 348.42 135.94 348.5 135.72C348.79 134.86 349.3 134.11 349.96 133.52C350.07 133.42 350.07 133.26 349.95 133.17C349.28 132.66 348.77 131.96 348.49 131.14C348.42 130.94 348.13 130.94 348.07 131.14Z" fill="#81B5F3"/>
<path d="M400.94 128.99C370.78 132.82 335.66 116.07 308.48 96.5499L308.42 99.7199C345.04 128.34 374.73 136.44 400.73 134.17C427.4 132.98 447.28 122.21 447.46 122.09L445.89 113.07C445.72 113.17 434.51 124.72 400.94 128.99Z" fill="url(#paint3_linear)"/>
<path d="M435.24 123.45C435.73 123.54 444.21 124.99 448.49 122.94C452.85 120.85 452.22 115.42 452.21 115.31C452.13 115.24 447.94 111.58 443.63 113.64C439.41 115.66 435.47 123 435.24 123.43L435.22 123.44H435.23L435.22 123.45H435.24Z" fill="#F7B548"/>
<path d="M451.05 115.65C451.05 115.65 448.13 114.12 445.1 114.77C444.01 115.01 442.38 116.07 442.38 116.07L443.84 116.63C443.84 116.63 442.32 117.5 441.53 119.17C440.74 120.84 439.08 121.64 439.08 121.64C439.08 121.64 441.18 122.18 442.35 122.13C445.1 122.01 447.04 120.03 447.04 120.03C447.04 120.03 446.83 121.58 446.4 122.18C447.65 121.65 451.1 120.33 451.05 115.65Z" fill="#FFE5B9"/>
<path d="M465.7 117.06L462.62 125L450.68 129.63L449.99 128.3C449.99 128.3 454.68 124.31 454.69 119.28C454.69 115.44 465.7 117.06 465.7 117.06Z" fill="#B2B2B2"/>
<path d="M458.74 104.34L450.34 102.18L439.61 108.36L440.27 109.63C440.27 109.63 446.28 108.42 450.45 111.3C453.68 113.53 458.74 104.34 458.74 104.34Z" fill="#6D6A66"/>
<path d="M465.7 117.06L462.62 125L450.68 129.63L449.99 128.3C449.99 128.3 454.68 124.31 454.69 119.28C454.69 115.44 465.7 117.06 465.7 117.06Z" fill="#6D6A66"/>
<path d="M481.21 109.96C487.08 103.96 487.26 98.6001 487.26 98.5201C487.18 98.4801 482.23 95.6401 473.6 96.6701C464.96 97.7001 454.44 104.71 449.59 110.15C447.95 111.99 450.07 116.26 450.11 116.33C450.15 116.39 452.52 120.61 455.08 120.46C462.73 120 475.25 116.05 481.21 109.96Z" fill="#3E8EED"/>
<path d="M481.21 109.96C487.08 103.96 487.26 98.6001 487.26 98.5201C487.18 98.4801 482.23 95.6401 473.6 96.6701C464.96 97.7001 454.44 104.71 449.59 110.15C447.95 111.99 450.07 116.26 450.11 116.33C450.15 116.39 452.52 120.61 455.08 120.46C462.73 120 475.25 116.05 481.21 109.96Z" fill="white"/>
<path d="M482.51 108.53C482.71 108.29 482.91 108.06 483.1 107.82C483.21 107.68 483.31 107.55 483.41 107.41C483.57 107.2 483.73 106.99 483.88 106.78C483.98 106.64 484.07 106.5 484.17 106.36C484.3 106.16 484.44 105.97 484.56 105.77C484.65 105.63 484.73 105.5 484.81 105.36C484.92 105.17 485.04 104.98 485.14 104.8C485.21 104.67 485.28 104.54 485.35 104.41C485.45 104.23 485.54 104.05 485.63 103.87C485.69 103.75 485.75 103.63 485.81 103.51C485.89 103.34 485.97 103.16 486.04 103C486.09 102.89 486.14 102.78 486.18 102.67C486.25 102.5 486.31 102.34 486.38 102.18C486.42 102.08 486.46 101.99 486.49 101.89C486.55 101.73 486.6 101.57 486.65 101.42C486.68 101.34 486.71 101.26 486.73 101.18C486.78 101.02 486.82 100.87 486.86 100.72C486.88 100.66 486.9 100.59 486.91 100.53C486.95 100.36 486.99 100.21 487.02 100.06C487.03 100.03 487.04 99.99 487.04 99.96C487.12 99.61 487.17 99.31 487.2 99.08C487.21 99.03 487.21 99 487.22 98.96C487.23 98.9 487.24 98.84 487.24 98.79C487.25 98.74 487.25 98.7 487.25 98.66C487.25 98.64 487.25 98.63 487.25 98.61C477.93 110.05 466.98 117.65 452.63 119.4C453.37 120.02 454.21 120.47 455.08 120.42C462.72 119.97 475.25 116.02 481.21 109.93C481.57 109.57 481.9 109.21 482.21 108.85C482.32 108.76 482.41 108.65 482.51 108.53Z" fill="#DDDBDA"/>
<path d="M474.33 108.59C472.61 109.42 470.44 108.72 469.5 107.04C468.56 105.37 469.19 103.35 470.9 102.53C472.61 101.71 474.77 102.39 475.72 104.06C476.68 105.73 476.06 107.76 474.33 108.59Z" fill="#F7B548"/>
<path d="M461.68 110.78C461.2 109.97 456.05 111.32 456.05 111.32L444.89 118.5L444.94 118.59L445.14 118.97L445.16 119.02L457.9 114.76C457.9 114.76 462.1 111.61 461.68 110.78Z" fill="#6D6A66"/>
<path d="M479.19 102.48C480.35 104.49 481.82 106.19 483.39 107.44C487.12 102.53 487.25 98.59 487.26 98.52C487.19 98.48 483.56 96.4 477.12 96.44C477.32 98.34 478.01 100.42 479.19 102.48Z" fill="#C4C1BE"/>
<path d="M481.16 105.27C481.86 106.09 482.62 106.82 483.4 107.45C486.79 102.99 487.21 99.33 487.26 98.65C485.45 101.15 483.39 103.34 481.16 105.27Z" fill="#9C9894"/>
<path d="M476.81 149.85L473.4 145.3L457.73 146.64L444.7 147.94L439.61 153.25L483.05 149.72L478.18 146.27C477.79 145.94 476.59 145.74 476.59 145.74L477.4 148.12C477.9 149.54 476.81 149.85 476.81 149.85Z" fill="url(#paint4_radial)"/>
<path d="M353.21 76.84C353.21 93.54 366.75 107.07 383.44 107.07C400.13 107.07 413.67 93.53 413.67 76.84C413.67 67.93 409.79 59.94 403.66 54.41L360.04 57.7C355.78 62.91 353.21 69.57 353.21 76.84Z" fill="url(#paint5_linear)"/>
<path d="M421.85 189.42L389.05 190L389.36 171.65L422.15 170.81L421.85 189.42Z" fill="#B3AFAB"/>
<path d="M420.13 189.45L389.05 190L389.36 171.65L420.43 170.86L420.13 189.45Z" fill="#625F5B"/>
<path d="M520.81 41.55L518.88 172.92L523.12 172.82L525.04 41.23L520.81 41.55Z" fill="#B3AFAB"/>
<path d="M485.12 189.59L331.6 192.25L331.67 187.92L485.19 184.98L485.12 189.59Z" fill="#B3AFAB"/>
<path d="M470.92 189.83L331.6 192.25L331.67 187.92L470.99 185.25L470.92 189.83Z" fill="#797672"/>
<path d="M326.61 222.17L317.11 263.62L320.41 263.67L336.99 222.12L326.61 222.17Z" fill="#C4832D"/>
<path d="M306.4 222.25L297.05 263.34L300.29 263.39L316.6 222.21L306.4 222.25Z" fill="#C4832D"/>
<path d="M496.14 221.45L505.66 266.26L501.8 266.2L484.27 221.5L496.14 221.45Z" fill="#C4832D"/>
<path d="M523.55 221.33L533.31 266.64L529.37 266.59L511.41 221.38L523.55 221.33Z" fill="#C4832D"/>
<path d="M563.37 186.83L277.26 191.94L276.57 229.46L562.78 229.15L563.37 186.83Z" fill="#C4832D"/>
<path d="M504.63 187.87L277.26 191.94L276.57 229.46L504.02 229.22L504.63 187.87Z" fill="#E29E3B"/>
<path d="M423.58 198.12L350.34 199.15L350.37 197.23L423.61 196.13L423.58 198.12Z" fill="#C4832D"/>
<path d="M423.48 204.16L350.24 205.01L350.27 203.09L423.51 202.18L423.48 204.16Z" fill="#C4832D"/>
<path d="M423.38 210.21L350.13 210.88L350.17 208.95L423.41 208.22L423.38 210.21Z" fill="#C4832D"/>
<path d="M423.28 216.26L350.03 216.74L350.07 214.81L423.31 214.27L423.28 216.26Z" fill="#C4832D"/>
<path d="M423.18 222.31L349.93 222.61L349.96 220.68L423.22 220.32L423.18 222.31Z" fill="#C4832D"/>
<path d="M284.14 222.57L341.32 222.33L341.74 197.9L284.58 198.74L284.14 222.57Z" fill="#F7B548"/>
<path d="M430.59 221.96L495.59 221.69L495.98 195.62L431 196.58L430.59 221.96Z" fill="#F7B548"/>
<path d="M520.93 172.87L302.81 178.06L304.98 58.12L522.86 41.4L520.93 172.87ZM308.4 170.27L514.54 164.67L516.26 48.14L310.33 63.43L308.4 170.27Z" fill="#625F5B"/>
<path d="M246.69 252.96V22.4399" stroke="#908D89" stroke-width="2" stroke-miterlimit="10"/>
<path d="M320.93 231.19C326.12 222.84 316.98 213.2 302.92 209C278.53 201.72 189.93 167.52 166.13 154.16C93.2 113.23 74.01 105.18 60.08 135.18C55.24 145.6 60.08 162.72 70.87 178.34C79.58 190.96 136.4 220.33 157.95 231.18H320.93V231.19Z" fill="url(#paint6_linear)"/>
<path d="M91.02 233.19L81.53 276.17H85.11L102.18 233.19H91.02Z" fill="#797672"/>
<path d="M157.18 233.19L166.67 276.17H163.09L146.02 233.19H157.18Z" fill="#797672"/>
<path d="M304.32 233.19L313.81 276.17H310.23L293.16 233.19H304.32Z" fill="#797672"/>
<path d="M298.04 217.57H141.43C137.57 217.57 134.43 220.7 134.43 224.57C134.43 228.43 137.56 231.57 141.43 231.57H309.38C322.41 231.56 315.34 217.57 298.04 217.57Z" fill="url(#paint7_linear)"/>
<path d="M320.98 231.19H92.5001C90.9001 231.19 89.6001 232.49 89.6001 234.09V235.78C89.6001 237.38 90.9001 238.68 92.5001 238.68H316.17L320.98 231.19Z" fill="#797672"/>
<path d="M237.57 97.61H246.87" stroke="#908D89" stroke-width="2" stroke-miterlimit="10"/>
<path d="M246.87 64.49H257.67" stroke="#908D89" stroke-width="2" stroke-miterlimit="10"/>
<path d="M245.76 35.47H236.46" stroke="#908D89" stroke-width="2" stroke-miterlimit="10"/>
<path d="M215.4 39.75L215 38.63C214.23 36.46 215.36 34.07 217.53 33.3L235.75 26.82C237.92 26.05 240.31 27.18 241.08 29.35L241.48 30.47C242.25 32.64 241.12 35.03 238.95 35.8L220.73 42.28C218.55 43.06 216.17 41.92 215.4 39.75Z" fill="#B3AFAB"/>
<path d="M220.592 42.3004C222.819 41.5085 223.914 38.8671 223.037 36.4006C222.16 33.934 219.644 32.5765 217.416 33.3683C215.189 34.1602 214.095 36.8016 214.972 39.2682C215.849 41.7347 218.365 43.0922 220.592 42.3004Z" fill="#797672"/>
<path d="M222.75 111.54L221.82 110.8C220.02 109.37 219.71 106.75 221.14 104.94L233.16 89.7799C234.59 87.9799 237.21 87.6699 239.02 89.0999L239.95 89.8399C241.75 91.2699 242.06 93.8899 240.63 95.6999L228.61 110.86C227.17 112.66 224.55 112.97 222.75 111.54Z" fill="#B3AFAB"/>
<path d="M228.494 110.95C229.963 109.097 229.49 106.278 227.439 104.651C225.388 103.025 222.534 103.208 221.066 105.061C219.598 106.913 220.07 109.733 222.121 111.359C224.173 112.985 227.026 112.802 228.494 110.95Z" fill="#797672"/>
<path d="M265.09 82.7399L266.21 82.3599C268.39 81.6199 269.56 79.2499 268.81 77.0699L262.58 58.7599C261.84 56.5799 259.47 55.4099 257.29 56.1599L256.17 56.5399C253.99 57.2799 252.82 59.6499 253.57 61.8299L259.8 80.1399C260.54 82.3199 262.91 83.4799 265.09 82.7399Z" fill="#B3AFAB"/>
<path d="M265.727 82.7757C268.205 81.9325 269.597 79.4349 268.835 77.1971C268.074 74.9593 265.448 73.8288 262.97 74.672C260.491 75.5152 259.099 78.0128 259.861 80.2506C260.622 82.4884 263.248 83.6189 265.727 82.7757Z" fill="#797672"/>
<path d="M226.04 256.86H267.34C269.5 256.86 271.25 255.11 271.25 252.95C271.25 250.79 269.5 249.04 267.34 249.04H226.04C223.88 249.04 222.13 250.79 222.13 252.95C222.13 255.11 223.88 256.86 226.04 256.86Z" fill="#B3AFAB"/>
<path d="M192.5 216.97C186.72 210.93 174.01 199.63 157.91 195.5L155.46 205.06C170.06 208.8 180.99 219.14 185.45 223.96C185.83 224.36 189.79 221.18 192.5 216.97Z" fill="url(#paint8_linear)"/>
<path d="M192.5 216.97C186.72 210.93 174.01 199.63 157.91 195.5L155.46 205.06C170.06 208.8 180.99 219.14 185.45 223.96C185.83 224.36 189.79 221.18 192.5 216.97Z" fill="url(#paint9_linear)"/>
<path d="M185.4 223.89L190.96 218.4C193.34 219.59 196.35 230.28 226 227.47L237.13 231.55L213.55 254.78C213.34 254.99 212.04 254.97 211.27 254.06L185.4 223.89Z" fill="#522CD5"/>
<path d="M230.93 221.85C232.62 221.51 233.87 222.11 234.94 223.35L238.67 227.75C239.25 228.43 239.21 229.5 238.57 230.13L234.03 234.61C233.31 235.32 232.18 235.27 231.52 234.5L227.97 230.71C226.74 229.28 225.78 228.55 223.52 228.97C210.17 231.48 196.6 230.38 187.71 221.6L192.46 216.91C197.31 221.13 208.71 226.26 230.93 221.85Z" fill="url(#paint10_linear)"/>
<path d="M238.57 230.13C239.21 229.5 239.25 228.43 238.67 227.75L234.94 223.35C234.35 222.66 233.69 222.18 232.94 221.94L225.75 229.03C226.61 229.29 227.24 229.88 227.97 230.73L231.52 234.52C232.18 235.29 233.31 235.34 234.03 234.63L238.57 230.13Z" fill="url(#paint11_radial)"/>
<path d="M182.42 227.06L172.77 224.52C174.94 216.3 176.31 210.72 176.93 206.57C177.59 202.11 177.09 200.89 176.99 200.7C176.78 200.57 175.55 199.98 170.6 200.41C157.22 201.56 154.47 202.17 154.36 202.2C154.49 202.17 154.55 202.15 154.55 202.15L151.73 192.57C153.42 192.07 159.99 191.31 169.75 190.46C175.41 189.97 181.13 190.09 184.63 194.25C189.32 199.83 187.22 208.84 182.42 227.06Z" fill="url(#paint12_linear)"/>
<path d="M173.99 219.86L181.6 221.99L177.18 264.17L162.08 259.95C160.93 259.63 160.33 258.45 160.73 257.33L173.99 219.86Z" fill="#522CD5"/>
<path d="M192.1 257.21C193.11 258.61 192.71 259.91 192.16 261.45L190.48 266.17C190.18 267.01 189.23 267.51 188.36 267.27L169.36 261.95C168.38 261.68 167.87 260.68 168.21 259.72L169.79 254.78C170.42 253 169.53 251.56 169.32 249.27C168.9 244.73 172.26 230.56 175.89 220.39L183.64 222.56C182.39 228.86 182.35 243.63 192.1 257.21Z" fill="url(#paint13_linear)"/>
<path d="M169.78 254.78L168.2 259.72C167.86 260.68 168.37 261.68 169.35 261.95L188.35 267.27C189.21 267.51 190.17 267.02 190.47 266.17L192.15 261.45C192.56 260.31 192.87 259.31 192.61 258.3L169.79 251.92C170.01 252.9 170.14 253.79 169.78 254.78Z" fill="url(#paint14_radial)"/>
<path d="M180.94 163.66L174.25 157.71C179.75 151.52 181.85 145.38 180.17 140.42C178.17 134.54 170.88 130.12 159.66 127.99L161.33 119.2C179.94 122.73 186.45 131.12 188.64 137.53C191.41 145.68 188.68 154.96 180.94 163.66Z" fill="#8A6FE8"/>
<path d="M155.96 138.91L163.98 129.31C165.41 127.6 165.18 125.06 163.47 123.63C161.76 122.2 159.22 122.43 157.79 124.14L149.77 133.74C148.34 135.45 148.57 137.99 150.28 139.42C151.99 140.85 154.53 140.62 155.96 138.91Z" fill="#8A6FE8"/>
<path d="M158.79 114.72L151.13 111.26C149.08 110.35 146.68 111.27 145.78 113.32C144.87 115.37 145.79 117.77 147.84 118.67L155.7 122.22L158.79 114.72Z" fill="#8A6FE8"/>
<path d="M154.64 116.58L143.04 116.61C140.8 116.62 138.99 118.45 139.01 120.69C139.02 122.93 140.85 124.74 143.09 124.72L151.71 124.73L154.64 116.58Z" fill="#8A6FE8"/>
<path d="M155.89 121.38L144.59 124.04C142.41 124.55 141.05 126.73 141.56 128.91C142.07 131.09 144.25 132.45 146.43 131.94L157.94 129.23L155.89 121.38Z" fill="#8A6FE8"/>
<path d="M158.07 131.38C162.759 131.38 166.56 127.579 166.56 122.89C166.56 118.201 162.759 114.4 158.07 114.4C153.381 114.4 149.58 118.201 149.58 122.89C149.58 127.579 153.381 131.38 158.07 131.38Z" fill="url(#paint15_radial)"/>
<path d="M181.01 162.34C178.63 150.77 172.88 143.43 172.88 143.43L175.29 142.24L175.33 142.16C162.61 125.04 139.1 118.9 119.28 128.65C96.9501 139.65 87.7601 166.67 98.7501 189C109.74 211.33 136.76 220.52 159.09 209.53C176.71 200.86 186.14 182.21 183.94 163.75C183.77 163 183.17 161.81 181.01 162.34Z" fill="url(#paint16_radial)"/>
<path d="M181.01 162.34C178.66 150.91 173.02 143.61 172.88 143.44L130.93 164.09C130.93 164.09 128.15 165.12 129.34 167.54C130.53 169.96 133.99 176.73 137.7 184.27C138.46 185.82 140.1 185.94 141.1 185.45C141.11 185.45 181.25 164.03 181.01 162.34Z" fill="url(#paint17_radial)"/>
<path d="M155.71 174.84C155.71 174.84 159.65 166.56 160.44 164.99C161.23 163.42 162.31 162.83 163.95 163.26C165.59 163.69 174.54 165.56 174.54 165.56L155.71 174.84Z" fill="#A08BE8"/>
<path d="M184.01 164.29C184.01 164.29 184.07 161.58 181.01 162.34C181.01 162.33 139.75 182.61 139.75 182.61C138.79 183.08 137.27 183.12 136.71 182.24C137.04 182.91 137.37 183.58 137.71 184.26C138.4 185.67 139.81 185.9 140.82 185.56C140.92 185.52 141.02 185.49 141.11 185.44L143.93 184.05L184.01 164.29Z" fill="#512BD4"/>
<path d="M184.13 172.4L114.41 206.73C117.28 208.62 120.36 210.16 123.56 211.35L182.21 182.48C183.22 179.21 183.87 175.83 184.13 172.4Z" fill="#D0C5F3"/>
<path d="M122.45 124.1L114.72 128.12L111.69 119.62L117.24 116.73L122.45 124.1Z" fill="#8A6FE8"/>
<path d="M112.07 120.45C115.494 120.45 118.27 117.674 118.27 114.25C118.27 110.826 115.494 108.05 112.07 108.05C108.646 108.05 105.87 110.826 105.87 114.25C105.87 117.674 108.646 120.45 112.07 120.45Z" fill="#D0C5F3"/>
<path d="M127.93 127.41C128.28 127.23 128.4 126.78 128.18 126.46C125.86 123 121.27 121.77 117.5 123.73C113.72 125.69 112.1 130.16 113.6 134.04C113.74 134.41 114.18 134.56 114.53 134.38L127.93 127.41Z" fill="url(#paint18_radial)"/>
<path d="M167.241 192.566L180.452 186.008L174.65 174.319L161.439 180.877L167.241 192.566Z" fill="#512BD4"/>
<path d="M167.38 187.06C167.29 187.1 167.2 187.11 167.11 187.08C167.02 187.05 166.95 186.99 166.91 186.91C166.87 186.83 166.86 186.74 166.9 186.65C166.93 186.56 166.99 186.49 167.08 186.45C167.17 186.41 167.26 186.4 167.35 186.43C167.44 186.46 167.51 186.52 167.55 186.6C167.59 186.68 167.59 186.77 167.56 186.86C167.53 186.95 167.47 187.02 167.38 187.06Z" fill="white"/>
<path d="M170.87 185.28L170.3 185.56L167.62 183.93C167.55 183.89 167.49 183.84 167.43 183.79L167.42 183.8C167.47 183.86 167.54 184.01 167.66 184.24L168.71 186.36L168.2 186.61L166.6 183.38L167.21 183.08L169.81 184.68C169.92 184.75 169.99 184.79 170.03 184.82H170.04C169.98 184.74 169.9 184.6 169.8 184.4L168.77 182.32L169.27 182.07L170.87 185.28Z" fill="white"/>
<path d="M173.33 184.06L171.56 184.93L169.96 181.7L171.66 180.86L171.88 181.32L170.7 181.9L171.15 182.82L172.23 182.29L172.45 182.74L171.37 183.27L171.84 184.23L173.09 183.61L173.33 184.06Z" fill="white"/>
<path d="M174.48 180.04L173.57 180.49L174.94 183.27L174.42 183.53L173.05 180.75L172.15 181.2L171.93 180.74L174.26 179.59L174.48 180.04Z" fill="white"/>
<path d="M112.74 188.07C102.79 187.53 94.8801 185.76 89.2301 182.8C83.7101 179.91 80.2201 175.92 78.8501 170.92C75.7201 159.47 85.1601 146.87 92.5201 141.96L97.2901 149.12C91.9501 152.68 85.3401 162.06 87.1501 168.65C88.8401 174.81 98.0901 178.66 113.2 179.47L112.74 188.07Z" fill="url(#paint19_linear)"/>
<path d="M114.32 192.51C118.893 192.51 122.6 188.803 122.6 184.23C122.6 179.657 118.893 175.95 114.32 175.95C109.747 175.95 106.04 179.657 106.04 184.23C106.04 188.803 109.747 192.51 114.32 192.51Z" fill="url(#paint20_radial)"/>
<path d="M110.11 152.84L97.62 153.5C95.39 153.62 93.5 151.91 93.38 149.68C93.26 147.45 94.97 145.56 97.2 145.44L109.69 144.78C111.92 144.66 113.81 146.37 113.93 148.6C114.05 150.82 112.34 152.72 110.11 152.84Z" fill="#8A6FE8"/>
<path d="M89.0601 140.59L90.8801 132.38C91.3801 130.2 93.5601 128.83 95.7401 129.33C97.9201 129.83 99.2901 132.01 98.7901 134.19L96.9201 142.61L89.0601 140.59Z" fill="#8A6FE8"/>
<path d="M93.04 138.39L100.02 129.13C101.37 127.35 103.92 127 105.7 128.35C107.48 129.7 107.83 132.25 106.48 134.03L101.31 140.93L93.04 138.39Z" fill="#8A6FE8"/>
<path d="M96.1301 142.27L105.03 134.83C106.75 133.39 109.31 133.61 110.75 135.33C112.19 137.05 111.97 139.61 110.25 141.05L101.18 148.63L96.1301 142.27Z" fill="#8A6FE8"/>
<path d="M96.03 153.4C100.719 153.4 104.52 149.599 104.52 144.91C104.52 140.221 100.719 136.42 96.03 136.42C91.3411 136.42 87.54 140.221 87.54 144.91C87.54 149.599 91.3411 153.4 96.03 153.4Z" fill="url(#paint21_radial)"/>
<path d="M150.026 173.749C151.76 172.883 151.984 169.817 150.528 166.903C149.071 163.988 146.484 162.328 144.75 163.194C143.016 164.061 142.791 167.127 144.248 170.041C145.705 172.956 148.292 174.616 150.026 173.749Z" fill="#512BD4"/>
<path d="M175.337 161.524C177.096 160.709 177.411 157.652 176.042 154.695C174.672 151.738 172.136 150.002 170.377 150.817C168.618 151.631 168.302 154.689 169.672 157.646C171.041 160.602 173.578 162.339 175.337 161.524Z" fill="#512BD4"/>
<path d="M146.08 165.81C146.41 164.85 147.15 164.15 148.03 163.82C148.97 164.51 149.87 165.57 150.53 166.89C150.94 167.71 151.22 168.55 151.36 169.35C150.5 170.12 149.26 170.4 148.09 170C146.38 169.39 145.48 167.52 146.08 165.81Z" fill="#8065E0"/>
<path d="M171.45 153.38C171.79 152.42 172.52 151.72 173.4 151.39C174.4 152.1 175.36 153.25 176.03 154.7C176.37 155.44 176.61 156.19 176.75 156.9C175.89 157.68 174.64 157.97 173.47 157.56C171.75 156.97 170.85 155.09 171.45 153.38Z" fill="#8065E0"/>
<path d="M157.39 232.12C166.51 230.45 169.11 215.56 147.34 209.61C75.76 190.03 65.29 155.28 60.08 135.19C49.48 164.03 73.1 212.21 83.52 234.54C88.18 234.72 144.36 232.12 157.39 232.12Z" fill="#2ECCEF"/>
<path d="M166.61 239.06H85.6699L82.1799 231.56H166.61V239.06Z" fill="#908D89"/>
<path d="M240.92 212.96H214.13V217.43H240.92V212.96Z" fill="#797672"/>
<defs>
<radialGradient id="paint0_radial" cx="0" cy="0" r="1" gradientUnits="userSpaceOnUse" gradientTransform="translate(403.479 101.969) scale(105.902)">
<stop offset="0.7187" stop-color="#2980E7"/>
<stop offset="0.8026" stop-color="#3085E9"/>
<stop offset="1" stop-color="#3E8EED"/>
</radialGradient>
<radialGradient id="paint1_radial" cx="0" cy="0" r="1" gradientUnits="userSpaceOnUse" gradientTransform="translate(404.873 164.783) rotate(-2.94623) scale(22.6422)">
<stop stop-color="#3E8EED"/>
<stop offset="0.7624" stop-color="#A3C9F6"/>
</radialGradient>
<radialGradient id="paint2_radial" cx="0" cy="0" r="1" gradientUnits="userSpaceOnUse" gradientTransform="translate(369.791 167.092) rotate(-1.75358) scale(27.4411)">
<stop stop-color="#3E8EED"/>
<stop offset="0.7624" stop-color="#A3C9F6"/>
</radialGradient>
<linearGradient id="paint3_linear" x1="308.429" y1="115.538" x2="447.463" y2="115.538" gradientUnits="userSpaceOnUse">
<stop offset="0.00136409" stop-color="#A3C9F6" stop-opacity="0"/>
<stop offset="1" stop-color="#A3C9F6"/>
</linearGradient>
<radialGradient id="paint4_radial" cx="0" cy="0" r="1" gradientUnits="userSpaceOnUse" gradientTransform="translate(469.116 165.443) scale(35.8235)">
<stop stop-color="#3E8EED"/>
<stop offset="0.7624" stop-color="#A3C9F6"/>
</radialGradient>
<linearGradient id="paint5_linear" x1="353.214" y1="80.7396" x2="413.682" y2="80.7396" gradientUnits="userSpaceOnUse">
<stop stop-color="#A3C9F6" stop-opacity="0"/>
<stop offset="1" stop-color="#A3C9F6"/>
</linearGradient>
<linearGradient id="paint6_linear" x1="177.439" y1="224.673" x2="212.17" y2="115.203" gradientUnits="userSpaceOnUse">
<stop offset="0.2408" stop-color="#1BA6C5"/>
<stop offset="0.6685" stop-color="#2ECCEF"/>
</linearGradient>
<linearGradient id="paint7_linear" x1="134.435" y1="224.564" x2="316.1" y2="224.564" gradientUnits="userSpaceOnUse">
<stop stop-color="#1BA6C5"/>
<stop offset="0.3494" stop-color="#2ECCEF"/>
</linearGradient>
<linearGradient id="paint8_linear" x1="156.301" y1="198.174" x2="190.115" y2="220.803" gradientUnits="userSpaceOnUse">
<stop stop-color="#522CD5"/>
<stop offset="0.4397" stop-color="#8A6FE8"/>
</linearGradient>
<linearGradient id="paint9_linear" x1="156.301" y1="198.174" x2="190.115" y2="220.803" gradientUnits="userSpaceOnUse">
<stop offset="0.129" stop-color="#522CD5"/>
<stop offset="0.5785" stop-color="#8A6FE8"/>
</linearGradient>
<linearGradient id="paint10_linear" x1="189.305" y1="216.277" x2="238.635" y2="230.76" gradientUnits="userSpaceOnUse">
<stop stop-color="#522CD5"/>
<stop offset="0.4397" stop-color="#8A6FE8"/>
</linearGradient>
<radialGradient id="paint11_radial" cx="0" cy="0" r="1" gradientUnits="userSpaceOnUse" gradientTransform="translate(223.504 219.617) rotate(-44.6111) scale(15.4454)">
<stop offset="0.034" stop-color="#522CD5"/>
<stop offset="0.9955" stop-color="#8A6FE8"/>
</radialGradient>
<linearGradient id="paint12_linear" x1="165.886" y1="187.403" x2="180.564" y2="227.732" gradientUnits="userSpaceOnUse">
<stop offset="0.0624" stop-color="#522CD5"/>
<stop offset="0.3999" stop-color="#8A6FE8"/>
</linearGradient>
<linearGradient id="paint13_linear" x1="172.64" y1="221.15" x2="183.927" y2="268.529" gradientUnits="userSpaceOnUse">
<stop stop-color="#522CD5"/>
<stop offset="0.4397" stop-color="#8A6FE8"/>
</linearGradient>
<radialGradient id="paint14_radial" cx="0" cy="0" r="1" gradientUnits="userSpaceOnUse" gradientTransform="translate(183.139 247.007) rotate(15.629) scale(17.9939)">
<stop offset="0.034" stop-color="#522CD5"/>
<stop offset="0.9955" stop-color="#8A6FE8"/>
</radialGradient>
<radialGradient id="paint15_radial" cx="0" cy="0" r="1" gradientUnits="userSpaceOnUse" gradientTransform="translate(158.07 118.684) scale(11.2014)">
<stop stop-color="#8065E0"/>
<stop offset="0.8628" stop-color="#512BD4"/>
</radialGradient>
<radialGradient id="paint16_radial" cx="0" cy="0" r="1" gradientUnits="userSpaceOnUse" gradientTransform="translate(146.766 156.516) scale(39.5793)">
<stop offset="0.4744" stop-color="#A08BE8"/>
<stop offset="0.8618" stop-color="#8065E0"/>
</radialGradient>
<radialGradient id="paint17_radial" cx="0" cy="0" r="1" gradientUnits="userSpaceOnUse" gradientTransform="translate(164.471 122.455) scale(51.3518)">
<stop offset="0.456" stop-color="#E1DFDD"/>
<stop offset="0.8188" stop-color="white"/>
</radialGradient>
<radialGradient id="paint18_radial" cx="0" cy="0" r="1" gradientUnits="userSpaceOnUse" gradientTransform="translate(120.304 126.489) scale(7.6755)">
<stop stop-color="#8065E0"/>
<stop offset="0.8628" stop-color="#512BD4"/>
</radialGradient>
<linearGradient id="paint19_linear" x1="95.7199" y1="188.067" x2="95.7199" y2="141.954" gradientUnits="userSpaceOnUse">
<stop offset="0.2296" stop-color="#9780E6"/>
<stop offset="0.9374" stop-color="#8A6FE8"/>
</linearGradient>
<radialGradient id="paint20_radial" cx="0" cy="0" r="1" gradientUnits="userSpaceOnUse" gradientTransform="translate(114.593 180.952) scale(9.4968)">
<stop stop-color="#8065E0"/>
<stop offset="0.8628" stop-color="#512BD4"/>
</radialGradient>
<radialGradient id="paint21_radial" cx="0" cy="0" r="1" gradientUnits="userSpaceOnUse" gradientTransform="translate(96.3085 141.565) scale(11.1616)">
<stop stop-color="#8065E0"/>
<stop offset="0.8628" stop-color="#512BD4"/>
</radialGradient>
</defs>
</svg>
