<svg width="636" height="300" viewBox="0 0 636 300" fill="none" xmlns="http://www.w3.org/2000/svg">
<path d="M148.53 110.66C148.48 109.76 148.4 108.87 148.4 107.96C148.4 83.43 166.08 63.21 189.02 59.96C201.92 31.95 229.62 12.58 261.71 12.58C281.53 12.58 299.64 20 313.65 32.24C323.6 25.07 335.69 20.83 348.76 20.83C372.04 20.83 392.28 34.18 402.69 53.85C407.47 52.16 412.58 51.2 417.92 51.2C443.92 51.2 465 72.92 465 99.71C465 102.9 464.68 106.01 464.11 109.03C487.72 116.79 504.83 139.56 504.83 166.45C504.83 199.74 478.63 226.73 446.32 226.73C442.63 226.73 436.22 226.73 427.77 226.73C429.47 230.16 430.45 234.03 430.45 238.14V239.42C430.45 253.32 420.78 262.24 407.29 262.24H309.71L294.7 285.19C293.74 286.75 292.07 287.7 290.28 287.7H219.28C217.21 287.7 215.95 285.37 217.03 283.55L237.1 251.19C249.32 231.04 237.25 227.17 231.48 226.68C204 226.68 181.65 226.7 170.64 226.72C138.33 226.72 112.13 199.73 112.13 166.44C112.11 141.23 127.18 119.64 148.53 110.66Z" fill="#B1E9EE"/>
<path d="M445.36 94.0499V94.5499C445.36 107.97 434.44 118.89 421.01 118.89H420.51V121.79H421.01C436.04 121.79 448.26 109.57 448.26 94.5399V94.0399H445.36V94.0499Z" fill="white"/>
<path d="M195.55 76.0699C180.01 76.0699 172.59 88.0499 172.28 88.5599L172.02 88.9899L174.5 90.4899L174.76 90.0699C174.83 89.9599 181.72 78.9799 195.54 78.9799H242.06V76.0799H195.55V76.0699Z" fill="white"/>
<path d="M446.08 125.33H445.58V128.23H446.08C467.38 128.23 484.72 145.56 484.72 166.87C484.72 186.17 470.47 202.17 451.95 205.01V176.71H449.05V205.35C448.07 205.43 447.09 205.5 446.09 205.5H412.49L429.56 188.69L427.52 186.62L408.34 205.5H351.9V208.4H409.31L409.42 208.51L409.53 208.4H446.08C468.99 208.4 487.62 189.77 487.62 166.86C487.62 143.97 468.99 125.33 446.08 125.33Z" fill="white"/>
<path d="M379.28 51.11L379.63 51.46L381.68 49.41L381.33 49.06C372.68 40.41 361.17 35.64 348.94 35.64C331.23 35.64 314.99 45.97 307.46 61.98H298.2L279.53 42.24V28.08H276.63V41.36H235.82C217.13 41.36 212.23 56.92 212.19 57.08L212.05 57.56L214.83 58.4L214.98 57.92C215.15 57.36 219.35 44.27 235.84 44.27H243.95V60.45H246.85V44.27H277.47L294.22 61.98H258.92L238.55 78.02L239.29 78.95H242.06L259.93 64.88H309.36L309.74 64.02C316.63 48.54 332.02 38.54 348.96 38.54C360.4 38.54 371.18 43.01 379.28 51.11Z" fill="white"/>
<path d="M226.5 76.83H223.6V89.87H226.5V76.83Z" fill="white"/>
<path d="M375.99 78.88L367.55 87.32L348.75 87.19L348.73 90.09L368.74 90.23L378.04 80.93L375.99 78.88Z" fill="white"/>
<path d="M407.62 172.69L407.88 172.26L405.4 170.76L405.14 171.18C405.07 171.29 398.18 182.27 384.36 182.27H337.84V185.17H384.36C399.89 185.18 407.32 173.2 407.62 172.69Z" fill="white"/>
<path d="M388.43 155.93H335.39V158.83H388.43V155.93Z" fill="white"/>
<path d="M380.23 136.12L382.28 134.07L355.57 107.36H369.6C389.02 107.36 405.49 121.9 407.9 141.18L407.95 141.62H410.88V141.61H437.63L426.37 152.72V165.87H429.27V153.94L441.76 141.62H446.08C458.97 141.62 469.45 152.11 469.45 164.99V165.49H472.35V164.99C472.35 150.5 460.56 138.71 446.07 138.71H440.66L440.62 138.67L440.57 138.71H410.42C409.31 132.46 406.83 126.74 403.3 121.82H421.58V118.91H401.01C396.04 113.15 389.54 108.8 382.17 106.45L395.31 93.5099H425.16L439.52 78.9799L437.46 76.9399L423.95 90.5999H408.3V64.1599H351.38V48.8999H348.48V67.0699H405.4V90.5999H394.11L378.92 105.56C375.91 104.87 372.8 104.46 369.6 104.46H352.67L344.78 96.5699L342.73 98.6199L348.57 104.46H334.91V107.36H351.47L380.23 136.12Z" fill="white"/>
<path d="M257.36 255.16L287.42 203.09L284.91 201.64L243.77 272.9L246.28 274.35L255.68 258.07H275.97L287.56 270.71L289.7 268.75L277.24 255.16H257.36Z" fill="white"/>
<path d="M408.2 229.12C405.41 225.68 400.81 223.93 394.54 223.93H349.24V211.07H346.34V226.83H394.54C399.89 226.83 403.72 228.21 405.94 230.93C409.05 234.75 408.01 240.16 407.99 240.22L407.89 240.71L410.73 241.3L410.83 240.81C410.89 240.55 412.2 234.06 408.2 229.12Z" fill="white"/>
<path d="M172.26 122.18H173.71V103.89H212.97L199.65 120.84L201.93 122.63L216.66 103.88H251.08V100.98H170.8V119.29C146.73 120.06 127.24 140.14 127.24 164.28V164.78H130.14V164.28C130.15 141.07 149.04 122.18 172.26 122.18Z" fill="white"/>
<path d="M256.33 226.72H259.23V208.3H172.25C158.18 208.3 145.1 201.31 137.25 189.61L136.97 189.19L134.56 190.81L134.84 191.23C143.23 203.74 157.22 211.21 172.25 211.21H256.33V226.72Z" fill="white"/>
<path d="M139.45 164.29C139.45 181.33 153.31 195.19 170.35 195.19H170.85V192.29H170.35C154.91 192.29 142.35 179.73 142.35 164.29C142.35 148.85 154.91 136.29 170.35 136.29H251.79V133.39H170.35C153.31 133.39 139.45 147.25 139.45 164.29Z" fill="white"/>
<path d="M192.26 193.65V176.82L161.22 154.85L159.54 157.22L189.35 178.32V196.55H231L256.54 163.98L254.25 162.18L229.59 193.65H192.26Z" fill="white"/>
<path d="M180.41 154.32H210.02V176.24H212.93V154.32H253.58V151.42H180.41V154.32Z" fill="white"/>
<path d="M328.55 220.53H325.65V242.28H298.23V245.18H379.45V242.28H328.55V220.53Z" fill="white"/>
<path d="M136.17 193.61C137.91 193.61 139.32 192.2 139.32 190.46C139.32 188.72 137.91 187.31 136.17 187.31C134.43 187.31 133.02 188.72 133.02 190.46C133.02 192.2 134.43 193.61 136.17 193.61Z" fill="#63D3DE"/>
<path d="M171.14 197.01C172.88 197.01 174.29 195.6 174.29 193.86C174.29 192.12 172.88 190.71 171.14 190.71C169.4 190.71 167.99 192.12 167.99 193.86C167.99 195.6 169.4 197.01 171.14 197.01Z" fill="#63D3DE"/>
<path d="M128.85 167.18C130.59 167.18 132 165.77 132 164.03C132 162.29 130.59 160.88 128.85 160.88C127.11 160.88 125.7 162.29 125.7 164.03C125.7 165.77 127.11 167.18 128.85 167.18Z" fill="#63D3DE"/>
<path d="M161.16 159.74C162.9 159.74 164.31 158.33 164.31 156.59C164.31 154.85 162.9 153.44 161.16 153.44C159.42 153.44 158.01 154.85 158.01 156.59C158.01 158.33 159.42 159.74 161.16 159.74Z" fill="#63D3DE"/>
<path d="M180.57 156.08C182.31 156.08 183.72 154.67 183.72 152.93C183.72 151.19 182.31 149.78 180.57 149.78C178.83 149.78 177.42 151.19 177.42 152.93C177.42 154.67 178.83 156.08 180.57 156.08Z" fill="#63D3DE"/>
<path d="M258.01 227.74C259.75 227.74 261.16 226.33 261.16 224.59C261.16 222.85 259.75 221.44 258.01 221.44C256.27 221.44 254.86 222.85 254.86 224.59C254.86 226.33 256.27 227.74 258.01 227.74Z" fill="#63D3DE"/>
<path d="M245.81 274.96C247.55 274.96 248.96 273.55 248.96 271.81C248.96 270.07 247.55 268.66 245.81 268.66C244.07 268.66 242.66 270.07 242.66 271.81C242.66 273.55 244.07 274.96 245.81 274.96Z" fill="#63D3DE"/>
<path d="M288.29 272.51C290.03 272.51 291.44 271.1 291.44 269.36C291.44 267.62 290.03 266.21 288.29 266.21C286.55 266.21 285.14 267.62 285.14 269.36C285.14 271.1 286.55 272.51 288.29 272.51Z" fill="#63D3DE"/>
<path d="M348.14 228.49C349.88 228.49 351.29 227.08 351.29 225.34C351.29 223.6 349.88 222.19 348.14 222.19C346.4 222.19 344.99 223.6 344.99 225.34C344.99 227.08 346.4 228.49 348.14 228.49Z" fill="#63D3DE"/>
<path d="M298.2 246.74C299.94 246.74 301.35 245.33 301.35 243.59C301.35 241.85 299.94 240.44 298.2 240.44C296.46 240.44 295.05 241.85 295.05 243.59C295.05 245.33 296.46 246.74 298.2 246.74Z" fill="#63D3DE"/>
<path d="M409.54 242.35C411.28 242.35 412.69 240.94 412.69 239.2C412.69 237.46 411.28 236.05 409.54 236.05C407.8 236.05 406.39 237.46 406.39 239.2C406.39 240.94 407.8 242.35 409.54 242.35Z" fill="#63D3DE"/>
<path d="M428.6 191.28C430.34 191.28 431.75 189.87 431.75 188.13C431.75 186.39 430.34 184.98 428.6 184.98C426.86 184.98 425.45 186.39 425.45 188.13C425.45 189.87 426.86 191.28 428.6 191.28Z" fill="#63D3DE"/>
<path d="M470.84 168.13C472.58 168.13 473.99 166.72 473.99 164.98C473.99 163.24 472.58 161.83 470.84 161.83C469.1 161.83 467.69 163.24 467.69 164.98C467.69 166.72 469.1 168.13 470.84 168.13Z" fill="#63D3DE"/>
<path d="M450.58 179.93C452.32 179.93 453.73 178.52 453.73 176.78C453.73 175.04 452.32 173.63 450.58 173.63C448.84 173.63 447.43 175.04 447.43 176.78C447.43 178.52 448.84 179.93 450.58 179.93Z" fill="#63D3DE"/>
<path d="M444.87 130.12C446.61 130.12 448.02 128.71 448.02 126.97C448.02 125.23 446.61 123.82 444.87 123.82C443.13 123.82 441.72 125.23 441.72 126.97C441.72 128.71 443.13 130.12 444.87 130.12Z" fill="#63D3DE"/>
<path d="M172.86 92.91C174.6 92.91 176.01 91.4997 176.01 89.76C176.01 88.0203 174.6 86.61 172.86 86.61C171.12 86.61 169.71 88.0203 169.71 89.76C169.71 91.4997 171.12 92.91 172.86 92.91Z" fill="#63D3DE"/>
<path d="M200.65 125.16C202.39 125.16 203.8 123.75 203.8 122.01C203.8 120.27 202.39 118.86 200.65 118.86C198.91 118.86 197.5 120.27 197.5 122.01C197.5 123.75 198.91 125.16 200.65 125.16Z" fill="#63D3DE"/>
<path d="M446.78 96.89C448.52 96.89 449.93 95.4797 449.93 93.74C449.93 92.0003 448.52 90.59 446.78 90.59C445.04 90.59 443.63 92.0003 443.63 93.74C443.63 95.4797 445.04 96.89 446.78 96.89Z" fill="#63D3DE"/>
<path d="M437.87 81.65C439.61 81.65 441.02 80.2397 441.02 78.5C441.02 76.7603 439.61 75.35 437.87 75.35C436.13 75.35 434.72 76.7603 434.72 78.5C434.72 80.2397 436.13 81.65 437.87 81.65Z" fill="#63D3DE"/>
<path d="M406.55 68.64C408.29 68.64 409.7 67.2297 409.7 65.49C409.7 63.7503 408.29 62.34 406.55 62.34C404.81 62.34 403.4 63.7503 403.4 65.49C403.4 67.2297 404.81 68.64 406.55 68.64Z" fill="#63D3DE"/>
<path d="M214.12 60.5999C215.86 60.5999 217.27 59.1896 217.27 57.4499C217.27 55.7102 215.86 54.2999 214.12 54.2999C212.38 54.2999 210.97 55.7102 210.97 57.4499C210.97 59.1896 212.38 60.5999 214.12 60.5999Z" fill="#63D3DE"/>
<path d="M245.26 61.9399C247 61.9399 248.41 60.5296 248.41 58.7899C248.41 57.0502 247 55.6399 245.26 55.6399C243.52 55.6399 242.11 57.0502 242.11 58.7899C242.11 60.5296 243.52 61.9399 245.26 61.9399Z" fill="#63D3DE"/>
<path d="M278.08 31.51C279.82 31.51 281.23 30.0997 281.23 28.36C281.23 26.6203 279.82 25.21 278.08 25.21C276.34 25.21 274.93 26.6203 274.93 28.36C274.93 30.0997 276.34 31.51 278.08 31.51Z" fill="#63D3DE"/>
<path d="M349.87 53.5C351.61 53.5 353.02 52.0896 353.02 50.3499C353.02 48.6103 351.61 47.2 349.87 47.2C348.13 47.2 346.72 48.6103 346.72 50.3499C346.72 52.0896 348.13 53.5 349.87 53.5Z" fill="#63D3DE"/>
<path d="M427.83 168.86C429.57 168.86 430.98 167.45 430.98 165.71C430.98 163.97 429.57 162.56 427.83 162.56C426.09 162.56 424.68 163.97 424.68 165.71C424.68 167.45 426.09 168.86 427.83 168.86Z" fill="#63D3DE"/>
<path d="M285.34 63.36H283.44V75.4H285.34V63.36Z" fill="white"/>
<path d="M225.06 92.64C226.8 92.64 228.21 91.2297 228.21 89.49C228.21 87.7503 226.8 86.34 225.06 86.34C223.32 86.34 221.91 87.7503 221.91 89.49C221.91 91.2297 223.32 92.64 225.06 92.64Z" fill="#63D3DE"/>
<path d="M211.47 179.01C213.21 179.01 214.62 177.6 214.62 175.86C214.62 174.12 213.21 172.71 211.47 172.71C209.73 172.71 208.32 174.12 208.32 175.86C208.32 177.6 209.73 179.01 211.47 179.01Z" fill="#63D3DE"/>
<path d="M376.91 83.16C378.65 83.16 380.06 81.7497 380.06 80.01C380.06 78.2703 378.65 76.86 376.91 76.86C375.17 76.86 373.76 78.2703 373.76 80.01C373.76 81.7497 375.17 83.16 376.91 83.16Z" fill="#63D3DE"/>
<path d="M407.05 174.64C408.79 174.64 410.2 173.23 410.2 171.49C410.2 169.75 408.79 168.34 407.05 168.34C405.31 168.34 403.9 169.75 403.9 171.49C403.9 173.23 405.31 174.64 407.05 174.64Z" fill="#63D3DE"/>
<path d="M388.05 160.53C389.79 160.53 391.2 159.12 391.2 157.38C391.2 155.64 389.79 154.23 388.05 154.23C386.31 154.23 384.9 155.64 384.9 157.38C384.9 159.12 386.31 160.53 388.05 160.53Z" fill="#63D3DE"/>
<path d="M380.34 53.3699C382.08 53.3699 383.49 51.9596 383.49 50.2199C383.49 48.4803 382.08 47.0699 380.34 47.0699C378.6 47.0699 377.19 48.4803 377.19 50.2199C377.19 51.9596 378.6 53.3699 380.34 53.3699Z" fill="#63D3DE"/>
<path d="M380.99 137.97C382.73 137.97 384.14 136.56 384.14 134.82C384.14 133.08 382.73 131.67 380.99 131.67C379.25 131.67 377.84 133.08 377.84 134.82C377.84 136.56 379.25 137.97 380.99 137.97Z" fill="#63D3DE"/>
<path d="M274.76 220.15L336.47 204.67L333.49 192.75L271.71 208.18C268.55 208.97 266.34 212.27 267 215.49C267.66 218.71 271.33 221 274.76 220.15Z" fill="url(#paint0_linear)"/>
<path d="M359.62 220.36L297.91 204.88L300.89 192.96L362.67 208.39C365.83 209.18 368.04 212.48 367.38 215.7C366.72 218.92 363.05 221.22 359.62 220.36Z" fill="url(#paint1_linear)"/>
<path d="M357.16 198.35C366.19 192.78 377 180.43 378.45 164.02C379.45 152.65 374.82 136.74 357.28 122.28L349.19 131.76C360.35 140.74 366.81 152.9 366.03 163.06C365.18 174.06 357.68 183.38 350.63 187.74L357.16 198.35Z" fill="#8A6FE8"/>
<path d="M299.31 183.14C333.938 183.14 362.01 155.068 362.01 120.44C362.01 85.8117 333.938 57.74 299.31 57.74C264.682 57.74 236.61 85.8117 236.61 120.44C236.61 155.068 264.682 183.14 299.31 183.14Z" fill="url(#paint2_radial)"/>
<path d="M357.71 120.44C357.71 127.23 356.4 133.71 354.03 139.66C353.46 141.1 352.06 142.04 350.51 142.04H265.48C263.93 142.04 262.53 141.1 261.96 139.66C259.59 133.71 258.28 127.23 258.28 120.44C258.28 117.66 258.5 114.94 258.93 112.28C259.22 110.46 260.82 109.13 262.66 109.13H353.33C355.18 109.13 356.77 110.46 357.06 112.28C357.48 114.94 357.71 117.67 357.71 120.44Z" fill="white"/>
<path d="M245.25 152.2H353.38C350.95 156.32 348.07 160.14 344.79 163.59H253.83C250.56 160.14 247.67 156.32 245.25 152.2Z" fill="#D8CFF7"/>
<path d="M325.12 137.68C325.12 137.68 315.12 129.76 313.16 128.3C311.21 126.84 309.5 126.75 307.71 128.3C305.92 129.85 295.9 137.68 295.9 137.68H325.12Z" fill="#A08BE8"/>
<path d="M287.983 131.066C290.689 131.026 292.828 127.3 292.76 122.744C292.692 118.188 290.444 114.528 287.738 114.568C285.032 114.608 282.893 118.334 282.961 122.89C283.029 127.446 285.278 131.107 287.983 131.066Z" fill="#512BD4"/>
<path d="M337.042 122.842C337.11 118.286 334.971 114.56 332.265 114.52C329.56 114.479 327.311 118.14 327.243 122.696C327.175 127.252 329.314 130.978 332.02 131.018C334.726 131.058 336.974 127.398 337.042 122.842Z" fill="#512BD4"/>
<path d="M287.82 118.68C286.03 120.47 286.03 123.38 287.82 125.17C289.04 126.39 290.77 126.78 292.32 126.34C292.62 125.25 292.78 124.03 292.76 122.74C292.73 120.67 292.25 118.8 291.48 117.36C290.17 117.24 288.82 117.68 287.82 118.68Z" fill="#8065E0"/>
<path d="M332.08 118.41C330.29 120.2 330.29 123.11 332.08 124.9C333.31 126.13 335.06 126.51 336.61 126.06C336.87 125.08 337.03 123.99 337.04 122.85C337.07 120.62 336.57 118.59 335.74 117.09C334.44 116.97 333.09 117.41 332.08 118.41Z" fill="#8065E0"/>
<path d="M305.28 54.3699H293.16L294.87 41.9299H303.57L305.28 54.3699Z" fill="#8A6FE8"/>
<path d="M309.92 61.97C310.47 61.97 310.9 61.5 310.84 60.95C310.2 55.2 305.32 50.73 299.4 50.73C293.48 50.73 288.6 55.2 287.96 60.95C287.9 61.49 288.34 61.97 288.88 61.97H309.92Z" fill="url(#paint3_radial)"/>
<path d="M321.69 147.64H301.46V167.87H321.69V147.64Z" fill="#512BD4"/>
<path d="M305.07 160.57C304.93 160.57 304.81 160.52 304.71 160.43C304.61 160.33 304.56 160.22 304.56 160.08C304.56 159.94 304.61 159.83 304.71 159.73C304.81 159.63 304.93 159.58 305.07 159.58C305.22 159.58 305.34 159.63 305.44 159.73C305.54 159.83 305.59 159.95 305.59 160.08C305.59 160.21 305.54 160.33 305.44 160.43C305.34 160.52 305.21 160.57 305.07 160.57Z" fill="white"/>
<path d="M310.79 160.48H309.86L307.41 156.62C307.35 156.52 307.3 156.42 307.26 156.32H307.24C307.26 156.43 307.27 156.67 307.27 157.04V160.49H306.45V155.23H307.44L309.81 159C309.91 159.16 309.97 159.26 310 159.32C309.98 159.18 309.96 158.94 309.96 158.61V155.22H310.78V160.48H310.79Z" fill="white"/>
<path d="M314.79 160.48H311.91V155.22H314.67V155.96H312.76V157.45H314.52V158.19H312.76V159.74H314.79V160.48Z" fill="white"/>
<path d="M318.88 155.97H317.41V160.49H316.56V155.97H315.09V155.23H318.88V155.97Z" fill="white"/>
<path d="M348.66 170.27L363.13 179.96C365.71 181.69 366.4 185.18 364.67 187.76C362.94 190.34 359.45 191.03 356.87 189.3L342.4 179.61C339.82 177.88 339.13 174.39 340.86 171.81C342.59 169.23 346.08 168.54 348.66 170.27Z" fill="#8A6FE8"/>
<path d="M279.74 172.6L264.66 181.31C261.97 182.86 261.05 186.3 262.6 188.99C264.15 191.68 267.59 192.6 270.28 191.05L285.36 182.34C288.05 180.79 288.97 177.35 287.42 174.66C285.86 171.97 282.43 171.05 279.74 172.6Z" fill="#8A6FE8"/>
<path d="M357.06 112.28C356.77 110.46 355.17 109.13 353.33 109.13H348.96C350.81 109.13 352.4 110.46 352.69 112.28C353.11 114.94 353.34 117.66 353.34 120.44C353.34 124.44 352.87 128.33 352.01 132.08C351.75 133.15 351.47 134.23 351.16 135.29C350.72 136.78 349.19 137.67 347.64 137.67H263.73C262.28 137.67 260.96 136.96 260.52 135.56C260.21 134.53 259.66 132.38 259.66 132.38C261.32 141.42 262.9 142.04 264.82 142.04H265.27H346.14H350.51C352.06 142.04 353.46 141.1 354.03 139.66C356.4 133.71 357.71 127.23 357.71 120.44C357.71 117.67 357.48 114.94 357.06 112.28Z" fill="#512BD4"/>
<path d="M265.5 194.88C254.94 193.86 239.79 187.54 231.26 173.45C225.35 163.68 222.49 147.37 231.87 126.65L243.31 131.59C237.25 144.57 236.81 158.33 242 167.11C247.61 176.61 258.45 181.67 266.71 182.47L265.5 194.88Z" fill="#8A6FE8"/>
<path d="M238.98 138.64C245.337 138.64 250.49 133.487 250.49 127.13C250.49 120.773 245.337 115.62 238.98 115.62C232.623 115.62 227.47 120.773 227.47 127.13C227.47 133.487 232.623 138.64 238.98 138.64Z" fill="url(#paint4_radial)"/>
<path d="M272.09 221.48L327.58 235.35L330.98 222.04L275.45 208.1C272.02 207.24 268.05 209.65 267.04 213.07C266.03 216.49 268.38 220.55 272.09 221.48Z" fill="url(#paint5_linear)"/>
<path d="M323.05 234.28L325.48 223.73L387.85 210.8L379.26 248.32C378.89 249.93 377.3 250.84 375.72 250.36L323.05 234.28Z" fill="#522CD5"/>
<path d="M375.18 197.73C376.91 196.08 379.41 196.52 381.58 197.19L388.23 199.22C389.42 199.58 390.16 200.87 389.88 202.08L386.82 215.35C386.5 216.72 385.15 217.5 383.81 217.09L376.85 215.3C374.35 214.54 372.68 214.4 370.36 216.57C356.6 229.42 340.84 234.21 323.92 230.54L326.14 220.89C334.93 222.19 352.46 219.4 375.18 197.73Z" fill="url(#paint6_linear)"/>
<path d="M389.87 202.08C390.15 200.87 389.4 199.58 388.22 199.22L381.57 197.19C380.15 196.76 378.58 196.43 377.19 196.71L372.99 214.95C374.19 214.62 375.37 214.84 376.84 215.29L383.8 217.08C385.15 217.49 386.5 216.71 386.81 215.34L389.87 202.08Z" fill="url(#paint7_radial)"/>
<path d="M361.77 221.48L306.28 235.35L302.88 222.04L358.41 208.1C361.84 207.24 365.81 209.65 366.82 213.07C367.83 216.49 365.48 220.55 361.77 221.48Z" fill="url(#paint8_linear)"/>
<path d="M310.81 234.28L308.38 223.73L246.01 210.8L254.6 248.32C254.97 249.93 256.56 250.84 258.14 250.36L310.81 234.28Z" fill="#522CD5"/>
<path d="M258.68 197.73C256.95 196.08 254.45 196.52 252.28 197.19L245.63 199.22C244.44 199.58 243.7 200.87 243.98 202.08L247.04 215.35C247.36 216.72 248.71 217.5 250.05 217.09L257.01 215.3C259.51 214.54 261.18 214.4 263.5 216.57C277.26 229.42 293.02 234.21 309.94 230.54L307.72 220.89C298.92 222.19 281.39 219.4 258.68 197.73Z" fill="url(#paint9_linear)"/>
<path d="M243.98 202.08C243.7 200.87 244.45 199.58 245.63 199.22L252.28 197.19C253.7 196.76 255.27 196.43 256.66 196.71L260.86 214.95C259.66 214.62 258.48 214.84 257.01 215.29L250.05 217.08C248.7 217.49 247.35 216.71 247.04 215.34L243.98 202.08Z" fill="url(#paint10_radial)"/>
<path d="M316.26 170.18L320.37 170.17L349.89 164.7L347.19 161.86C347.19 161.86 326.9 165.55 320.01 166.8C317.8 167.2 316.73 168.41 316.14 169.4C315.55 168.41 313.99 166.8 311.76 166.8C308.99 166.8 283.4 166.8 283.4 166.8L281.5 170.11L315.49 170.17H315.85L316.26 170.18Z" fill="white"/>
<path d="M351.06 211.96L320.09 217.58H281.24C280.05 217.58 279.09 216.62 279.09 215.43V171.42C279.09 170.23 280.05 169.27 281.24 169.27H311.89L316.6 172.86L320.4 169.19L351.05 163.65C352.24 163.65 353.2 164.61 353.2 165.8V209.81C353.21 211 352.24 211.96 351.06 211.96Z" fill="#F7B548"/>
<path d="M320.43 169.18C316.14 171.24 311.89 169.28 311.89 169.28C311.89 169.28 311.86 203.03 311.89 217.77C316.82 220.06 320.4 217.77 320.4 217.77C320.4 217.77 320.4 195.36 320.43 169.18Z" fill="#FFD590"/>
<path d="M360.66 202.75L350.47 208.52C347.74 210.04 344.3 209.06 342.78 206.33C341.26 203.6 342.24 200.16 344.97 198.64L355.42 192.72L360.66 202.75Z" fill="#8A6FE8"/>
<path d="M354.67 200.69L338.58 202.12C335.47 202.38 332.74 200.08 332.47 196.97C332.21 193.86 334.51 191.13 337.62 190.86L349.58 189.76L354.67 200.69Z" fill="#8A6FE8"/>
<path d="M355.8 193.88L339.8 191.62C336.71 191.19 334.55 188.33 334.99 185.24C335.42 182.15 338.28 179.99 341.37 180.43L357.67 182.73L355.8 193.88Z" fill="#8A6FE8"/>
<path d="M358.63 203.34C365.163 203.34 370.46 198.043 370.46 191.51C370.46 184.976 365.163 179.68 358.63 179.68C352.096 179.68 346.8 184.976 346.8 191.51C346.8 198.043 352.096 203.34 358.63 203.34Z" fill="url(#paint11_radial)"/>
<path d="M268.93 202.75L279.12 208.52C281.85 210.04 285.29 209.06 286.81 206.33C288.33 203.6 287.35 200.16 284.62 198.64L274.17 192.72L268.93 202.75Z" fill="#8A6FE8"/>
<path d="M274.91 200.69L291 202.12C294.11 202.38 296.84 200.08 297.11 196.97C297.37 193.86 295.07 191.13 291.96 190.86L280 189.76L274.91 200.69Z" fill="#8A6FE8"/>
<path d="M273.78 193.88L289.78 191.62C292.87 191.19 295.03 188.33 294.59 185.24C294.16 182.15 291.3 179.99 288.21 180.43L271.91 182.73L273.78 193.88Z" fill="#8A6FE8"/>
<path d="M270.95 203.34C277.483 203.34 282.78 198.043 282.78 191.51C282.78 184.976 277.483 179.68 270.95 179.68C264.416 179.68 259.12 184.976 259.12 191.51C259.12 198.043 264.416 203.34 270.95 203.34Z" fill="url(#paint12_radial)"/>
<path d="M299.38 44.48C304.146 44.48 308.01 40.6162 308.01 35.85C308.01 31.0838 304.146 27.22 299.38 27.22C294.614 27.22 290.75 31.0838 290.75 35.85C290.75 40.6162 294.614 44.48 299.38 44.48Z" fill="#D0C5F3"/>
<defs>
<linearGradient id="paint0_linear" x1="336.63" y1="206.28" x2="267.049" y2="206.278" gradientUnits="userSpaceOnUse">
<stop stop-color="#522CD5"/>
<stop offset="0.4397" stop-color="#8A6FE8"/>
</linearGradient>
<linearGradient id="paint1_linear" x1="297.752" y1="206.876" x2="367.333" y2="206.873" gradientUnits="userSpaceOnUse">
<stop stop-color="#522CD5"/>
<stop offset="0.4397" stop-color="#8A6FE8"/>
</linearGradient>
<radialGradient id="paint2_radial" cx="0" cy="0" r="1" gradientUnits="userSpaceOnUse" gradientTransform="translate(315.585 82.4975) scale(85.3145)">
<stop offset="0.186" stop-color="#A08BE8"/>
<stop offset="0.7272" stop-color="#8065E0"/>
</radialGradient>
<radialGradient id="paint3_radial" cx="0" cy="0" r="1" gradientUnits="userSpaceOnUse" gradientTransform="translate(299.788 53.674) scale(15.2321)">
<stop stop-color="#8065E0"/>
<stop offset="1" stop-color="#512BD4"/>
</radialGradient>
<radialGradient id="paint4_radial" cx="0" cy="0" r="1" gradientUnits="userSpaceOnUse" gradientTransform="translate(232.986 120.404) scale(19.4259)">
<stop stop-color="#8065E0"/>
<stop offset="1" stop-color="#512BD4"/>
</radialGradient>
<linearGradient id="paint5_linear" x1="266.809" y1="221.634" x2="330.985" y2="221.634" gradientUnits="userSpaceOnUse">
<stop stop-color="#522CD5"/>
<stop offset="0.4397" stop-color="#8A6FE8"/>
</linearGradient>
<linearGradient id="paint6_linear" x1="321.298" y1="223.681" x2="390.065" y2="203.898" gradientUnits="userSpaceOnUse">
<stop stop-color="#522CD5"/>
<stop offset="0.4397" stop-color="#8A6FE8"/>
</linearGradient>
<radialGradient id="paint7_radial" cx="0" cy="0" r="1" gradientUnits="userSpaceOnUse" gradientTransform="translate(363.677 203.081) rotate(-77.0213) scale(22.0588)">
<stop offset="0.034" stop-color="#522CD5"/>
<stop offset="0.9955" stop-color="#8A6FE8"/>
</radialGradient>
<linearGradient id="paint8_linear" x1="367.048" y1="221.634" x2="302.872" y2="221.634" gradientUnits="userSpaceOnUse">
<stop stop-color="#522CD5"/>
<stop offset="0.4397" stop-color="#8A6FE8"/>
</linearGradient>
<linearGradient id="paint9_linear" x1="312.156" y1="223.632" x2="243.39" y2="203.85" gradientUnits="userSpaceOnUse">
<stop stop-color="#522CD5"/>
<stop offset="0.4397" stop-color="#8A6FE8"/>
</linearGradient>
<radialGradient id="paint10_radial" cx="0" cy="0" r="1" gradientUnits="userSpaceOnUse" gradientTransform="translate(269.818 203.354) rotate(-102.979) scale(22.0588)">
<stop offset="0.034" stop-color="#522CD5"/>
<stop offset="0.9955" stop-color="#8A6FE8"/>
</radialGradient>
<radialGradient id="paint11_radial" cx="0" cy="0" r="1" gradientUnits="userSpaceOnUse" gradientTransform="translate(362.279 188.987) rotate(-127.488) scale(11.8295)">
<stop stop-color="#8065E0"/>
<stop offset="1" stop-color="#512BD4"/>
</radialGradient>
<radialGradient id="paint12_radial" cx="0" cy="0" r="1" gradientUnits="userSpaceOnUse" gradientTransform="translate(267.133 188.778) rotate(-52.5125) scale(11.8295)">
<stop stop-color="#8065E0"/>
<stop offset="1" stop-color="#512BD4"/>
</radialGradient>
</defs>
</svg>
