<svg width="636" height="300" viewBox="0 0 636 300" fill="none" xmlns="http://www.w3.org/2000/svg">
<path d="M365.45 195.66C364.86 193.07 363.81 186.35 366.61 179.68C369.72 172.28 376.65 167.32 387.21 164.93L385.74 158.44C372.96 161.33 364.46 167.61 360.47 177.11C356.93 185.55 358.23 193.92 358.96 197.13L365.45 195.66Z" fill="#70D6E0"/>
<path d="M360.91 201.59C355.42 208.02 359.48 213.81 362.61 216.26C366.7 219.46 368.02 216.93 367.34 215.75C366.66 214.57 365.16 206.68 367.43 202.71C367.44 202.7 362.93 199.23 360.91 201.59Z" fill="#70D6E0"/>
<path d="M372.02 213.55C372.96 213.04 373.3 211.86 372.78 210.92L367.04 200.5C366.53 199.56 365.35 199.22 364.41 199.74C363.47 200.26 363.13 201.43 363.65 202.37L369.39 212.79C369.72 213.4 370.34 213.76 370.99 213.79C371.34 213.81 371.7 213.73 372.02 213.55Z" fill="#70D6E0"/>
<path d="M355.23 202.27L353.35 192.94C352.99 191.14 354.15 189.39 355.95 189.03L364.35 187.34C366.15 186.98 367.9 188.14 368.26 189.94L370.14 199.27C370.5 201.07 369.34 202.82 367.54 203.18L359.14 204.87C357.35 205.23 355.59 204.07 355.23 202.27Z" fill="#9FE4EB"/>
<path d="M339.26 262.43C462.933 262.43 563.19 257.572 563.19 251.58C563.19 245.588 462.933 240.73 339.26 240.73C215.587 240.73 115.33 245.588 115.33 251.58C115.33 257.572 215.587 262.43 339.26 262.43Z" fill="url(#paint0_radial)"/>
<path d="M456.99 125.44L450.26 123.8L437.27 174.47L444 176.11L456.99 125.44Z" fill="#106EBE"/>
<path d="M429.56 201.93C430.4 202.24 431.25 201.86 431.48 201.08L433.61 193.74L438.84 184.79C439.25 184.1 438.94 183.14 438.19 182.68C437.43 182.21 436.48 182.38 436.07 183.08L430.76 192.18C430.71 192.27 430.66 192.37 430.63 192.48L428.45 199.98C428.27 200.6 428.55 201.29 429.09 201.7C429.24 201.78 429.4 201.87 429.56 201.93Z" fill="#A3C9F6"/>
<path d="M435.66 203.61C436.52 203.83 437.32 203.34 437.44 202.53L438.84 193.68L442.19 185.22C442.49 184.47 442.07 183.56 441.25 183.18C440.43 182.8 439.54 183.11 439.24 183.86L435.84 192.46C435.8 192.55 435.78 192.65 435.76 192.74L434.34 201.75C434.25 202.33 434.53 202.93 435.01 203.3C435.21 203.44 435.42 203.55 435.66 203.61Z" fill="#A3C9F6"/>
<path d="M440.19 202.56C441.01 202.93 441.9 202.62 442.19 201.86C442.47 201.11 444.21 198.61 445.34 197.06C445.54 196.79 445.63 196.45 445.59 196.1L444.63 187.22C444.54 186.38 443.76 185.7 442.9 185.69C442.04 185.68 441.41 186.36 441.51 187.2L442.42 195.53C441.59 196.68 439.68 199.36 439.24 200.52C439 201.15 439.27 201.9 439.84 202.34C439.94 202.42 440.07 202.49 440.19 202.56Z" fill="#A3C9F6"/>
<path d="M445.46 172.58L445.16 176.38C445.15 176.51 445.16 176.64 445.18 176.77L447.39 187.32C447.6 188.31 446.73 189.1 445.68 188.87L433.31 186.11C432.29 185.88 431.69 184.8 432.12 183.96L436.18 175.06C436.24 174.95 436.28 174.82 436.3 174.69L437.34 170.92C437.46 170.16 438.21 169.7 439.04 169.87L444.1 170.91C444.92 171.07 445.52 171.82 445.46 172.58Z" fill="#A3C9F6"/>
<path d="M497.21 196.98H487.04V238H493.95L497.21 196.98Z" fill="url(#paint1_linear)"/>
<path d="M480.89 196.98H470.72L473.98 238H480.89V196.98Z" fill="url(#paint2_linear)"/>
<path d="M484.37 211.53C499.55 211.53 511.85 199.23 511.85 184.06C511.85 168.89 499.55 156.59 484.37 156.59C469.19 156.59 456.89 168.89 456.89 184.06C456.89 199.23 469.2 211.53 484.37 211.53Z" fill="#2B579A"/>
<path d="M484.37 140.19C499.55 140.19 511.85 127.89 511.85 112.72C511.85 97.55 499.55 85.25 484.37 85.25C469.19 85.25 456.89 97.55 456.89 112.72C456.89 127.89 469.2 140.19 484.37 140.19Z" fill="url(#paint3_radial)"/>
<path d="M454.94 194.13L441.01 122.73C440.68 119.8 442.97 117.22 445.93 117.22H521.98C524.94 117.22 527.23 119.79 526.9 122.73L514.07 194.13C513.78 196.63 511.67 198.52 509.15 198.52H459.87C457.35 198.52 455.23 196.64 454.94 194.13Z" fill="url(#paint4_radial)"/>
<path d="M482.43 97.21H461.67C459.46 100.43 457.93 104.13 457.26 108.14H482.43C484.65 108.14 486.45 106.34 486.45 104.12V101.23C486.45 99.01 484.65 97.21 482.43 97.21Z" fill="#2B579A"/>
<path d="M464.7 106.78C466.99 106.78 468.85 104.92 468.85 102.63C468.85 100.34 466.99 98.48 464.7 98.48C462.41 98.48 460.55 100.34 460.55 102.63C460.55 104.93 462.41 106.78 464.7 106.78Z" fill="white"/>
<path d="M475.87 106.78C478.16 106.78 480.02 104.92 480.02 102.63C480.02 100.34 478.16 98.48 475.87 98.48C473.58 98.48 471.72 100.34 471.72 102.63C471.72 104.93 473.57 106.78 475.87 106.78Z" fill="white"/>
<path d="M478.8 257.04H462.2C460.91 257.04 459.92 255.86 460.16 254.59C461.93 245.21 469.11 237.76 478.34 235.57C479.63 235.26 480.87 236.26 480.87 237.59V254.96C480.87 256.11 479.94 257.04 478.8 257.04Z" fill="#2B579A"/>
<path d="M491.57 235.57C482.35 237.76 475.17 245.21 473.39 254.59C473.15 255.86 474.14 257.04 475.43 257.04H492.02C493.17 257.04 494.09 256.11 494.09 254.97V237.6C494.11 236.26 492.87 235.26 491.57 235.57Z" fill="#2B579A"/>
<path d="M512.39 174.46C511.21 174.67 509.96 174.27 509.12 173.29C507.86 171.82 508.03 169.61 509.5 168.36L529.06 151.6C529.95 150.84 530.08 149.89 530.08 149.39C530.08 148.89 529.94 147.94 529.05 147.18L507.46 128.9C505.98 127.65 505.8 125.44 507.05 123.97C508.3 122.5 510.51 122.31 511.98 123.56L533.57 141.84C535.79 143.72 537.07 146.46 537.07 149.37C537.08 152.28 535.82 155.03 533.61 156.92L514.05 173.68C513.56 174.09 512.99 174.35 512.39 174.46Z" fill="#106EBE"/>
<path d="M509.17 135.99C514.78 135.99 519.33 131.44 519.33 125.83C519.33 120.22 514.78 115.67 509.17 115.67C503.56 115.67 499.01 120.22 499.01 125.83C499.01 131.44 503.56 135.99 509.17 135.99Z" fill="#2B579A"/>
<path d="M512.18 165.52L508.97 167.57C508.86 167.64 508.74 167.69 508.61 167.73L498.27 170.76C497.3 171.04 497.01 172.19 497.71 173L505.98 182.6C506.66 183.4 507.9 183.41 508.44 182.64L514.03 174.59C514.1 174.48 514.2 174.39 514.3 174.31L517.47 171.89C518.08 171.42 518.14 170.54 517.6 169.9L514.29 165.92C513.77 165.28 512.83 165.1 512.18 165.52Z" fill="#A3C9F6"/>
<path d="M493.09 194.74C492.49 194.08 492.53 193.14 493.17 192.64L499.19 187.94L505.57 179.76C506.06 179.13 507.06 179.06 507.77 179.58C508.49 180.12 508.68 181.06 508.19 181.69L501.72 190C501.66 190.08 501.58 190.16 501.49 190.23L495.34 195.03C494.83 195.42 494.1 195.42 493.51 195.08C493.36 194.99 493.22 194.88 493.09 194.74Z" fill="#A3C9F6"/>
<path d="M489.28 189.71C488.76 189 488.91 188.08 489.61 187.66L497.31 183.07L503.92 176.82C504.51 176.26 505.51 176.31 506.16 176.93C506.81 177.55 506.86 178.5 506.27 179.05L499.55 185.4C499.48 185.47 499.4 185.53 499.31 185.58L491.48 190.24C490.97 190.54 490.32 190.5 489.8 190.19C489.6 190.06 489.42 189.9 489.28 189.71Z" fill="#A3C9F6"/>
<path d="M484.74 183.87C484.58 183.28 484.73 182.64 485.16 182.24L491.82 176.01C491.89 175.94 491.97 175.88 492.06 175.83L500.03 171.14C500.73 170.73 501.62 171.04 502.04 171.84C502.45 172.64 502.22 173.61 501.53 174.02L493.69 178.64L487.15 184.77C486.55 185.33 485.62 185.22 485.08 184.52C484.9 184.32 484.8 184.1 484.74 183.87Z" fill="#A3C9F6"/>
<path d="M278.77 165.74C271.89 166.8 264.46 162.39 256.12 152.34C254.39 150.25 254.68 147.16 256.76 145.43C258.85 143.7 261.94 143.99 263.67 146.07C272.26 156.42 276.56 156.26 277.67 155.96C280.65 155.16 283.55 149.33 284.9 141.45C285.36 138.78 287.89 136.98 290.57 137.44C293.24 137.9 295.04 140.43 294.58 143.11C293.34 150.35 289.83 162.88 280.21 165.45C279.73 165.56 279.25 165.67 278.77 165.74Z" fill="#8A6FE8"/>
<path d="M227.09 213.3C227.18 205 226 188.15 217.43 174.04L209.05 179.13C216.82 191.93 217.41 206.86 217.23 213.37C217.21 213.92 222.24 214.41 227.09 213.3Z" fill="url(#paint5_linear)"/>
<path d="M217.23 213.29L224.99 213.25L232.23 254.74L216.66 254.81C215.48 254.82 214.58 253.86 214.65 252.67L217.23 213.29Z" fill="#522CD5"/>
<path d="M248.83 243.83C250.17 244.89 250.15 246.43 250.05 248.05L249.73 253.02C249.67 253.91 248.9 254.64 248.01 254.64L231.79 254.71C230.78 254.71 230.02 253.9 230.08 252.89L230.19 247.74C230.31 245.87 229.68 245.18 228.23 243.42C225.75 240.41 218.41 223.98 219.1 213.28L227.09 213.24C227.62 219.6 236 233.7 248.83 243.83Z" fill="url(#paint6_linear)"/>
<path d="M250.05 248.05C250.12 246.92 250.15 245.83 249.7 244.91L229.46 245C230.02 245.82 230.26 246.54 230.18 247.74L230.07 252.89C230 253.9 230.77 254.71 231.78 254.71L248 254.64C248.89 254.64 249.67 253.91 249.72 253.02L250.05 248.05Z" fill="url(#paint7_radial)"/>
<path d="M215.65 205.81C225.99 200.02 232.24 196.77 232.87 194.23C233.03 193.6 232.72 192.08 230.35 188.48C228.35 185.43 226.02 181.94 226.01 181.93L234.17 176.47C234.17 176.47 236.54 180.01 238.56 183.09C241.26 187.21 243.59 191.69 242.4 196.56C240.76 203.25 236.47 205.56 221.21 214.11L215.65 205.81Z" fill="url(#paint8_linear)"/>
<path d="M267.94 142.3C269.29 128.53 265.4 118.32 265.4 118.32L268.51 117.83L268.58 117.76C260.29 94.2001 236.12 79.1701 210.56 83.2101C181.77 87.7601 162.11 114.8 166.67 143.59C171.23 172.38 198.26 192.04 227.05 187.48C249.77 183.89 266.8 166.3 270.73 144.89C270.8 144 270.54 142.46 267.94 142.3Z" fill="url(#paint9_radial)"/>
<path d="M268.05 154.62L178.03 168.85C180.59 171.96 183.49 174.75 186.67 177.19L262.42 165.21C264.67 161.93 266.57 158.37 268.05 154.62Z" fill="#D8CFF7"/>
<path d="M242.243 171.337L259.142 168.664L256.779 153.72L239.879 156.393L242.243 171.337Z" fill="#512BD4"/>
<path d="M244.31 165.28C244.2 165.3 244.1 165.27 244.01 165.21C243.92 165.15 243.87 165.06 243.85 164.95C243.83 164.84 243.86 164.74 243.93 164.65C244 164.56 244.09 164.51 244.2 164.49C244.31 164.47 244.42 164.5 244.51 164.56C244.6 164.62 244.66 164.71 244.67 164.82C244.69 164.93 244.66 165.02 244.59 165.11C244.51 165.21 244.42 165.27 244.31 165.28Z" fill="white"/>
<path d="M248.79 164.52L248.06 164.63L245.66 161.89C245.6 161.82 245.55 161.75 245.5 161.67H245.48C245.51 161.76 245.55 161.94 245.59 162.23L246.01 164.94L245.36 165.04L244.72 160.91L245.5 160.79L247.82 163.47C247.92 163.58 247.98 163.66 248.01 163.7H248.02C247.98 163.59 247.95 163.41 247.91 163.15L247.5 160.49L248.14 160.39L248.79 164.52Z" fill="white"/>
<path d="M251.94 164.03L249.68 164.38L249.04 160.25L251.21 159.91L251.3 160.49L249.8 160.72L249.98 161.89L251.37 161.67L251.46 162.25L250.07 162.47L250.26 163.69L251.85 163.44L251.94 164.03Z" fill="white"/>
<path d="M254.61 159.98L253.45 160.16L254 163.71L253.33 163.81L252.78 160.26L251.62 160.44L251.53 159.86L254.51 159.4L254.61 159.98Z" fill="white"/>
<path d="M268.06 142.29C269.4 128.69 265.62 118.57 265.53 118.32L211.44 126.87C211.44 126.87 207.98 127.06 208.47 130.18C208.96 133.3 210.48 142.07 212.02 151.8C212.34 153.8 214.13 154.51 215.42 154.3C215.41 154.3 267.04 144.66 268.06 142.29Z" fill="url(#paint10_radial)"/>
<path d="M235.79 147.41C235.79 147.41 243.07 139.51 244.5 138.04C245.93 136.57 247.34 136.27 249.03 137.32C250.72 138.37 260.08 143.57 260.08 143.57L235.79 147.41Z" fill="#A08BE8"/>
<path d="M270.63 145.59C270.63 145.59 271.74 142.5 268.06 142.29C268.06 142.28 214.87 150.66 214.87 150.66C213.63 150.86 211.92 150.37 211.6 149.19C211.74 150.05 211.88 150.92 212.02 151.8C212.31 153.62 213.81 154.36 215.05 154.33C215.17 154.33 215.3 154.32 215.42 154.3L219.06 153.73L270.63 145.59Z" fill="#512BD4"/>
<path d="M227.18 143.607C229.427 143.217 230.718 139.84 230.063 136.063C229.408 132.287 227.055 129.541 224.808 129.931C222.56 130.321 221.269 133.698 221.924 137.475C222.579 141.251 224.932 143.997 227.18 143.607Z" fill="#512BD4"/>
<path d="M225.41 133.34C226.11 132.38 227.18 131.83 228.28 131.76C229.11 132.85 229.76 134.35 230.05 136.07C230.24 137.14 230.26 138.17 230.16 139.12C228.93 139.69 227.44 139.6 226.26 138.74C224.54 137.48 224.16 135.06 225.41 133.34Z" fill="#8065E0"/>
<path d="M170.39 203.38C169.85 202.66 157.11 185.62 161.39 167.73C163.86 157.39 171.34 149.13 183.61 143.18L187.89 152C178.41 156.6 172.7 162.65 170.93 169.97C167.71 183.32 178.09 197.33 178.2 197.47L170.39 203.38Z" fill="url(#paint11_linear)"/>
<path d="M185.79 157.23C191.142 157.23 195.48 152.892 195.48 147.54C195.48 142.188 191.142 137.85 185.79 137.85C180.438 137.85 176.1 142.188 176.1 147.54C176.1 152.892 180.438 157.23 185.79 157.23Z" fill="url(#paint12_radial)"/>
<path d="M190.1 195.08L177.06 188.74C174.74 187.61 171.94 188.58 170.81 190.9C169.68 193.22 170.65 196.02 172.97 197.15L186.01 203.49C188.33 204.62 191.13 203.65 192.26 201.33C193.39 199.01 192.42 196.21 190.1 195.08Z" fill="#8A6FE8"/>
<path d="M162.08 198.67L160.33 208.26C159.88 210.82 161.59 213.26 164.15 213.71C166.71 214.16 169.15 212.45 169.6 209.89L171.4 200.05L162.08 198.67Z" fill="#8A6FE8"/>
<path d="M165.34 202.81L168.61 215.85C169.25 218.37 171.81 219.89 174.33 219.25C176.85 218.61 178.37 216.05 177.73 213.53L175.33 203.82L165.34 202.81Z" fill="#8A6FE8"/>
<path d="M170.39 200.07L176.55 212.04C177.73 214.35 180.57 215.27 182.88 214.08C185.19 212.9 186.11 210.06 184.92 207.75L178.65 195.56L170.39 200.07Z" fill="#8A6FE8"/>
<path d="M171.48 207.05C176.92 207.05 181.33 202.64 181.33 197.2C181.33 191.76 176.92 187.35 171.48 187.35C166.04 187.35 161.63 191.76 161.63 197.2C161.63 202.64 166.04 207.05 171.48 207.05Z" fill="url(#paint13_radial)"/>
<path d="M205.09 81.0501L214.82 79.4701L210.43 62.0701L203.44 63.2001L205.09 81.0501Z" fill="#8A6FE8"/>
<path d="M209.79 69.3301C206.39 70.8201 202.41 69.3001 200.9 65.9401C199.39 62.5801 200.92 58.6501 204.32 57.1601C207.72 55.6701 211.7 57.1901 213.21 60.5501C214.72 63.9201 213.19 67.8401 209.79 69.3301Z" fill="#D8CFF7"/>
<path d="M202.37 87.69C201.93 87.76 201.51 87.44 201.5 87C201.25 82.35 204.57 78.16 209.33 77.4C214.09 76.63 218.59 79.55 219.87 84.03C219.99 84.45 219.7 84.88 219.26 84.95L202.37 87.69Z" fill="#522CD5"/>
<path d="M215.75 205.8L220.09 212.25L196.26 251.29L180.81 228.37C180.15 227.38 180.45 226.11 181.48 225.51L215.75 205.8Z" fill="#522CD5"/>
<path d="M209.33 251.06C209.35 252.78 207.89 253.87 206.48 254.68L202.15 257.17C201.38 257.61 200.34 257.37 199.84 256.63L194.39 248.52C193.83 247.68 194.08 246.59 194.96 246.09L199.32 243.32C200.95 242.38 201.84 241.58 201.84 239.29C201.86 225.77 207.08 215.16 217.31 208.09L221.28 213.99C216.25 217.96 209.11 228.52 209.33 251.06Z" fill="url(#paint14_linear)"/>
<path d="M199.83 256.63C200.33 257.37 201.37 257.61 202.14 257.17L206.47 254.68C207.4 254.15 208.33 253.49 208.87 252.62L201.37 241.47C200.95 242.26 200.26 242.77 199.3 243.32L194.94 246.09C194.06 246.59 193.81 247.68 194.37 248.52L199.83 256.63Z" fill="url(#paint15_radial)"/>
<path d="M281.88 119.47L281.26 133.96C281.15 136.54 283.15 138.72 285.74 138.83C288.32 138.94 290.5 136.94 290.61 134.35L291.23 119.86C291.34 117.28 289.34 115.1 286.75 114.99C284.17 114.89 281.99 116.89 281.88 119.47Z" fill="#8A6FE8"/>
<path d="M296.33 143.74L305.83 141.53C308.36 140.92 309.91 138.38 309.31 135.86C308.7 133.33 306.16 131.78 303.64 132.38L293.9 134.65L296.33 143.74Z" fill="#8A6FE8"/>
<path d="M298.83 139.1L309.49 130.9C311.54 129.31 311.92 126.35 310.33 124.3C308.74 122.25 305.78 121.87 303.73 123.46L295.79 129.53L298.83 139.1Z" fill="#8A6FE8"/>
<path d="M294.3 135.56L302.83 125.15C304.48 123.14 304.19 120.18 302.18 118.53C300.17 116.88 297.21 117.17 295.56 119.18L286.87 129.78L294.3 135.56Z" fill="#8A6FE8"/>
<path d="M291.23 145.56C296.67 145.56 301.08 141.15 301.08 135.71C301.08 130.27 296.67 125.86 291.23 125.86C285.79 125.86 281.38 130.27 281.38 135.71C281.38 141.15 285.79 145.56 291.23 145.56Z" fill="url(#paint16_radial)"/>
<path d="M260.03 138.418C262.277 138.028 263.568 134.651 262.913 130.874C262.258 127.098 259.905 124.352 257.657 124.742C255.41 125.132 254.119 128.509 254.774 132.286C255.429 136.062 257.782 138.808 260.03 138.418Z" fill="#512BD4"/>
<path d="M258.27 128.15C258.97 127.19 260.04 126.64 261.14 126.57C261.97 127.66 262.62 129.16 262.91 130.88C263.1 131.95 263.12 132.98 263.02 133.93C261.79 134.5 260.3 134.41 259.12 133.55C257.4 132.29 257.01 129.88 258.27 128.15Z" fill="#8065E0"/>
<path d="M276.8 48.0901L375.66 46.0701C377.64 46.0301 379.24 47.6601 379.17 49.6401L376.72 98.3201C376.65 100.17 375.13 101.64 373.28 101.64H355.13L358.12 114.74L334.28 101.64H277.36C275.47 101.64 273.93 100.11 273.92 98.2201L273.43 51.5501C273.41 49.6801 274.91 48.1301 276.8 48.0901Z" fill="#9FE4EB"/>
<path d="M173.04 125.98L83.9101 129.48C79.5201 129.65 75.8601 126.14 75.8601 121.74V73.26C75.8601 68.98 79.3301 65.51 83.6101 65.51H172.74C177.02 65.51 180.49 68.98 180.49 73.26V118.24C180.48 122.4 177.19 125.82 173.04 125.98Z" fill="#FFD590"/>
<path d="M136.03 125.69L159.96 148.94L153.13 124.32L136.03 125.69Z" fill="#FFD590"/>
<path d="M144.82 87.56C144.09 87.56 143.49 86.97 143.48 86.23C143.47 85.49 144.07 84.89 144.81 84.88L165.24 84.71C165.99 84.7 166.58 85.3 166.59 86.04C166.6 86.78 166 87.38 165.26 87.39L144.83 87.56C144.83 87.56 144.83 87.56 144.82 87.56Z" fill="white"/>
<path d="M137.35 87.39H92.5202C91.7802 87.39 91.1802 86.79 91.1802 86.05C91.1802 85.31 91.7802 84.71 92.5202 84.71H137.36C138.1 84.71 138.7 85.31 138.7 86.05C138.7 86.79 138.09 87.39 137.35 87.39Z" fill="white"/>
<path d="M119.74 98.56C119.01 98.56 118.41 97.98 118.4 97.24C118.39 96.5 118.98 95.89 119.72 95.88L152.11 95.34C152.83 95.33 153.46 95.92 153.47 96.66C153.48 97.4 152.89 98.01 152.15 98.02L119.76 98.56C119.76 98.56 119.75 98.56 119.74 98.56Z" fill="white"/>
<path d="M92.3501 99.01C91.6201 99.01 91.0201 98.43 91.0101 97.69C91.0001 96.95 91.5901 96.34 92.3301 96.33L111.59 96C112.32 95.98 112.94 96.58 112.95 97.32C112.96 98.06 112.37 98.67 111.63 98.68L92.3701 99.01C92.3601 99.01 92.3601 99.01 92.3501 99.01Z" fill="white"/>
<path d="M295.62 81C297.581 81 299.17 79.4106 299.17 77.45C299.17 75.4894 297.581 73.9 295.62 73.9C293.659 73.9 292.07 75.4894 292.07 77.45C292.07 79.4106 293.659 81 295.62 81Z" fill="white"/>
<path d="M311.87 81C313.831 81 315.42 79.4106 315.42 77.45C315.42 75.4894 313.831 73.9 311.87 73.9C309.909 73.9 308.32 75.4894 308.32 77.45C308.32 79.4106 309.909 81 311.87 81Z" fill="white"/>
<path d="M328.12 81C330.081 81 331.67 79.4106 331.67 77.45C331.67 75.4894 330.081 73.9 328.12 73.9C326.159 73.9 324.57 75.4894 324.57 77.45C324.57 79.4106 326.159 81 328.12 81Z" fill="white"/>
<path d="M414.38 253.12C412.54 253.12 411.05 251.34 411.05 249.14V223.58C411.05 221.38 412.54 219.6 414.38 219.6C416.22 219.6 417.7 221.38 417.7 223.58V249.14C417.71 251.34 416.22 253.12 414.38 253.12Z" fill="#70D6E0"/>
<path d="M405.83 256.44V254.6C405.83 251.68 408.2 249.31 411.12 249.31H421.92C424.84 249.31 427.21 251.68 427.21 254.6V256.44H405.83Z" fill="#1BA1B5"/>
<path d="M402.5 253.12C400.66 253.12 399.17 251.34 399.17 249.14V223.58C399.17 221.38 400.66 219.6 402.5 219.6C404.34 219.6 405.83 221.38 405.83 223.58V249.14C405.83 251.34 404.34 253.12 402.5 253.12Z" fill="#70D6E0"/>
<path d="M411.06 256.44V254.6C411.06 251.68 408.69 249.31 405.77 249.31H394.97C392.05 249.31 389.68 251.68 389.68 254.6V256.44H411.06Z" fill="#1BA1B5"/>
<path d="M415.28 103.04V86.98C415.28 85.23 412.88 84.75 412.21 86.36L405.48 102.43C405.04 103.48 405.81 104.64 406.95 104.64H413.68C414.57 104.64 415.28 103.93 415.28 103.04Z" fill="#1BA1B5"/>
<path d="M426.48 103.04V86.98C426.48 85.23 424.08 84.75 423.41 86.36L416.68 102.43C416.24 103.48 417.01 104.64 418.15 104.64H424.88C425.77 104.64 426.48 103.93 426.48 103.04Z" fill="#1BA1B5"/>
<path d="M411.45 132.16H403.11V176.92H411.45V132.16Z" fill="#1BA1B5"/>
<path d="M440.11 128.49L438.7 112.49C438.12 105.86 432.56 100.77 425.9 100.77H388.04C381.38 100.77 375.83 105.86 375.24 112.49L373.83 128.49C373.67 130.25 375.06 131.76 376.82 131.76H398.53C399.48 135.88 403.16 138.94 407.56 138.94C411.96 138.94 415.64 135.87 416.59 131.76H437.11C438.88 131.75 440.26 130.24 440.11 128.49Z" fill="#70D6E0"/>
<path d="M400.9 113.88H375.13L374.18 124.6H400.89C403.16 124.6 405.01 122.75 405.01 120.48V118C405.02 115.72 403.18 113.88 400.9 113.88Z" fill="#1BA1B5"/>
<path d="M375.02 122.91C377.27 122.91 379.09 121.09 379.09 118.84C379.09 116.59 377.27 114.77 375.02 114.77C372.77 114.77 370.95 116.59 370.95 118.84C370.96 121.09 372.78 122.91 375.02 122.91Z" fill="white"/>
<path d="M388.14 122.91C390.39 122.91 392.21 121.09 392.21 118.84C392.21 116.59 390.39 114.77 388.14 114.77C385.89 114.77 384.07 116.59 384.07 118.84C384.07 121.09 385.89 122.91 388.14 122.91Z" fill="white"/>
<path d="M378.91 223.82H435.04C441.59 223.82 446.73 218.21 446.15 211.69L440.68 149.62C440.52 147.78 438.98 146.37 437.13 146.37H376.63C374.89 146.37 373.43 147.7 373.28 149.44L367.79 211.7C367.22 218.21 372.36 223.82 378.91 223.82Z" fill="#1BA1B5"/>
<path d="M441.32 156.79L440.69 149.61C440.53 147.77 438.99 146.36 437.14 146.36H376.64C374.9 146.36 373.44 147.69 373.29 149.43L372.64 156.79H441.32Z" fill="#70D6E0"/>
<path d="M381.18 153.52C382.25 153.52 383.12 152.65 383.12 151.58C383.12 150.51 382.25 149.64 381.18 149.64C380.11 149.64 379.24 150.51 379.24 151.58C379.24 152.65 380.11 153.52 381.18 153.52Z" fill="white"/>
<path d="M388.33 153.52C389.4 153.52 390.27 152.65 390.27 151.58C390.27 150.51 389.4 149.64 388.33 149.64C387.26 149.64 386.39 150.51 386.39 151.58C386.39 152.65 387.26 153.52 388.33 153.52Z" fill="white"/>
<path d="M395.48 153.52C396.55 153.52 397.42 152.65 397.42 151.58C397.42 150.51 396.55 149.64 395.48 149.64C394.41 149.64 393.54 150.51 393.54 151.58C393.54 152.65 394.41 153.52 395.48 153.52Z" fill="white"/>
<path d="M429.7 200.69C431.35 201.76 433.58 201.18 434.46 199.42C436.31 195.73 438.43 189.96 438.11 183.27C437.67 173.93 432.83 165.81 423.71 159.07C422.17 157.93 419.97 158.33 418.93 159.95C417.98 161.42 418.34 163.37 419.75 164.41C427.19 169.91 431.13 176.35 431.47 183.58C431.72 188.83 430.04 193.42 428.55 196.38C427.78 197.91 428.27 199.76 429.7 200.69Z" fill="#70D6E0"/>
<path d="M422.78 204.91C423.55 209.42 419.43 216.31 418.39 217.19C417.35 218.07 417.72 220.89 422.66 219.29C426.44 218.07 432.24 214.03 429.3 206.1C428.21 203.2 422.78 204.91 422.78 204.91Z" fill="#70D6E0"/>
<path d="M415.63 214.11C416.25 214.3 416.96 214.18 417.48 213.72L426.45 205.91C427.26 205.21 427.34 203.98 426.64 203.18C425.94 202.38 424.71 202.29 423.91 202.99L414.94 210.8C414.14 211.5 414.05 212.73 414.75 213.53C414.99 213.81 415.3 214.01 415.63 214.11Z" fill="#70D6E0"/>
<path d="M429.82 209.81L422.51 205.34C420.95 204.38 420.45 202.34 421.41 200.77L426.38 192.65C427.34 191.09 429.38 190.59 430.95 191.55L438.26 196.02C439.82 196.98 440.32 199.02 439.36 200.59L434.39 208.71C433.43 210.27 431.39 210.76 429.82 209.81Z" fill="#9FE4EB"/>
<defs>
<radialGradient id="paint0_radial" cx="0" cy="0" r="1" gradientUnits="userSpaceOnUse" gradientTransform="translate(331.998 323.14) scale(158.527)">
<stop offset="0.4044" stop-color="#E4DEF8"/>
<stop offset="0.6476" stop-color="#D1C5F4"/>
</radialGradient>
<linearGradient id="paint1_linear" x1="492.124" y1="237.997" x2="492.124" y2="196.977" gradientUnits="userSpaceOnUse">
<stop offset="0.5372" stop-color="#72ACF1"/>
<stop offset="0.5695" stop-color="#69A7F0"/>
<stop offset="0.697" stop-color="#4A95EE"/>
<stop offset="0.7681" stop-color="#3E8EED"/>
</linearGradient>
<linearGradient id="paint2_linear" x1="475.805" y1="237.997" x2="475.805" y2="196.977" gradientUnits="userSpaceOnUse">
<stop offset="0.5372" stop-color="#72ACF1"/>
<stop offset="0.5695" stop-color="#69A7F0"/>
<stop offset="0.697" stop-color="#4A95EE"/>
<stop offset="0.7681" stop-color="#3E8EED"/>
</linearGradient>
<radialGradient id="paint3_radial" cx="0" cy="0" r="1" gradientUnits="userSpaceOnUse" gradientTransform="translate(475.991 94.8185) scale(27.477)">
<stop offset="0.1613" stop-color="#72ACF1"/>
<stop offset="0.1815" stop-color="#70ABF1"/>
<stop offset="0.5035" stop-color="#4C96EE"/>
<stop offset="0.6756" stop-color="#3E8EED"/>
</radialGradient>
<radialGradient id="paint4_radial" cx="0" cy="0" r="1" gradientUnits="userSpaceOnUse" gradientTransform="translate(477.587 137.179) scale(79.5351)">
<stop offset="0.204" stop-color="#72ACF1"/>
<stop offset="0.2915" stop-color="#69A7F0"/>
<stop offset="0.6359" stop-color="#4A95EE"/>
<stop offset="0.828" stop-color="#3E8EED"/>
</radialGradient>
<linearGradient id="paint5_linear" x1="214.52" y1="174.681" x2="222.823" y2="214.227" gradientUnits="userSpaceOnUse">
<stop offset="0.252" stop-color="#522CD5"/>
<stop offset="0.5558" stop-color="#8A6FE8"/>
</linearGradient>
<linearGradient id="paint6_linear" x1="220.914" y1="212.244" x2="245.58" y2="256.221" gradientUnits="userSpaceOnUse">
<stop stop-color="#522CD5"/>
<stop offset="0.4397" stop-color="#8A6FE8"/>
</linearGradient>
<radialGradient id="paint7_radial" cx="0" cy="0" r="1" gradientUnits="userSpaceOnUse" gradientTransform="translate(239.282 236.642) rotate(-0.260742) scale(17.0951)">
<stop offset="0.034" stop-color="#522CD5"/>
<stop offset="0.9955" stop-color="#8A6FE8"/>
</radialGradient>
<linearGradient id="paint8_linear" x1="229.184" y1="176.472" x2="229.184" y2="214.113" gradientUnits="userSpaceOnUse">
<stop offset="0.252" stop-color="#522CD5"/>
<stop offset="0.5558" stop-color="#8A6FE8"/>
</linearGradient>
<radialGradient id="paint9_radial" cx="0" cy="0" r="1" gradientUnits="userSpaceOnUse" gradientTransform="translate(227.453 113.605) rotate(171.013) scale(52.5652)">
<stop offset="0.4744" stop-color="#A08BE8"/>
<stop offset="0.8618" stop-color="#8065E0"/>
</radialGradient>
<radialGradient id="paint10_radial" cx="0" cy="0" r="1" gradientUnits="userSpaceOnUse" gradientTransform="translate(262.984 109.966) rotate(171.013) scale(54.4744)">
<stop offset="0.0933" stop-color="#E1DFDD"/>
<stop offset="0.6573" stop-color="white"/>
</radialGradient>
<linearGradient id="paint11_linear" x1="167.498" y1="148.979" x2="185.172" y2="198.063" gradientUnits="userSpaceOnUse">
<stop offset="0.2495" stop-color="#967FE6"/>
<stop offset="1" stop-color="#8A6FE8"/>
</linearGradient>
<radialGradient id="paint12_radial" cx="0" cy="0" r="1" gradientUnits="userSpaceOnUse" gradientTransform="translate(183.588 144.58) rotate(-8.98663) scale(9.69455)">
<stop stop-color="#8065E0"/>
<stop offset="1" stop-color="#512BD4"/>
</radialGradient>
<radialGradient id="paint13_radial" cx="0" cy="0" r="1" gradientUnits="userSpaceOnUse" gradientTransform="translate(172.459 193.317) rotate(18.3244) scale(9.85099)">
<stop stop-color="#8065E0"/>
<stop offset="1" stop-color="#512BD4"/>
</radialGradient>
<linearGradient id="paint14_linear" x1="222.453" y1="210.611" x2="199.076" y2="256.364" gradientUnits="userSpaceOnUse">
<stop stop-color="#522CD5"/>
<stop offset="0.4397" stop-color="#8A6FE8"/>
</linearGradient>
<radialGradient id="paint15_radial" cx="0" cy="0" r="1" gradientUnits="userSpaceOnUse" gradientTransform="translate(211.477 242.574) rotate(56.0938) scale(15.838)">
<stop offset="0.034" stop-color="#522CD5"/>
<stop offset="0.9955" stop-color="#8A6FE8"/>
</radialGradient>
<radialGradient id="paint16_radial" cx="0" cy="0" r="1" gradientUnits="userSpaceOnUse" gradientTransform="translate(294.823 132.597) rotate(52.6271) scale(9.84908)">
<stop stop-color="#8065E0"/>
<stop offset="1" stop-color="#512BD4"/>
</radialGradient>
</defs>
</svg>
