<svg width="636" height="300" viewBox="0 0 636 300" fill="none" xmlns="http://www.w3.org/2000/svg">
<path d="M526.19 248.15L540.58 246.93L540.18 238.89L526.19 240.44V248.15Z" fill="#848484"/>
<path d="M550.91 241.37L348.6 254.89V48.16L550.91 68.16V241.37Z" fill="#E86E58"/>
<path d="M377.55 240.38L383.92 240.02V64.56L377.55 63.99V240.38Z" fill="#EC917E"/>
<path d="M377.55 81.43L383.92 68.99V64.56L377.55 63.99V81.43Z" fill="#D8604D"/>
<path d="M401.96 239L408.08 238.66V66.69L401.96 66.15V239Z" fill="#EC917E"/>
<path d="M401.96 83.23L408.08 71.04V66.69L401.96 66.15V83.23Z" fill="#D8604D"/>
<path d="M425.41 237.68L431.29 237.35V68.7301L425.41 68.2201V237.68Z" fill="#EC917E"/>
<path d="M425.41 84.9701L431.29 73.0001V68.7301L425.41 68.2201V84.9701Z" fill="#D8604D"/>
<path d="M447.96 236.4L453.62 236.09V70.7001L447.96 70.2101V236.4Z" fill="#EC917E"/>
<path d="M447.96 86.6301L453.62 74.8901V70.7001L447.96 70.2101V86.6301Z" fill="#D8604D"/>
<path d="M469.65 235.18L475.1 234.87V72.6L469.65 72.12V235.18Z" fill="#EC917E"/>
<path d="M469.65 88.24L475.1 76.7V72.6L469.65 72.12V88.24Z" fill="#D8604D"/>
<path d="M490.54 234L495.79 233.7V74.4301L490.54 73.9601V234Z" fill="#EC917E"/>
<path d="M490.54 89.7801L495.79 78.4501V74.4301L490.54 73.9601V89.7801Z" fill="#D8604D"/>
<path d="M510.67 232.86L515.73 232.58V76.18L510.67 75.74V232.86Z" fill="#EC917E"/>
<path d="M510.67 91.27L515.73 80.14V76.18L510.67 75.74V91.27Z" fill="#D8604D"/>
<path d="M530.09 231.76L534.96 231.49V77.8801L530.09 77.4501V231.76Z" fill="#EC917E"/>
<path d="M530.09 92.7001L534.96 81.7701V77.8801L530.09 77.4501V92.7001Z" fill="#D8604D"/>
<path d="M175.3 259.29L194.82 259.77V250.92L175.3 250.31V259.29Z" fill="#848484"/>
<path d="M321.18 262.71L340.71 263.18V254.34L321.18 253.73V262.71Z" fill="#848484"/>
<path d="M345.51 254.39L169.36 251.08V64.6501L345.51 53.3201V254.39Z" fill="#B53C33"/>
<path d="M345.51 254.39L169.36 251.08V64.65L345.51 73.23V254.39Z" fill="url(#paint0_radial)"/>
<path d="M345.51 254.39L169.36 251.08V247.47L345.51 239.95V254.39Z" fill="#EC917E"/>
<path d="M166.67 253.45L120.32 257.03V71.71L166.67 60.02V253.45Z" fill="#F1A18E"/>
<path d="M322.73 119.88H265.88V161.31H322.73V119.88Z" fill="#70D6E0"/>
<path d="M322.73 119.88H312.92V161.31H322.73V119.88Z" fill="#28C2D1"/>
<path d="M324.08 119.88H263.9V109.03H310.9L324.08 119.88Z" fill="#CFF1F5"/>
<path d="M324.08 120.57L310.77 119.88V109.03L324.08 110.23V120.57Z" fill="#70D6E0"/>
<path d="M317.75 243.64H269.77V171.82H326.45L317.75 243.64Z" fill="#70D6E0"/>
<path d="M328.27 242.61L317.67 243.64V171.82H328.27V242.61Z" fill="#28C2D1"/>
<path d="M330.29 161.26H267.84V172.99H330.29V161.26Z" fill="#CFF1F5"/>
<path d="M330.3 161.26H315.23V172.99H330.3V161.26Z" fill="#70D6E0"/>
<path d="M364.63 142.66H305.66V193.59H364.63V142.66Z" fill="#98C2F5"/>
<path d="M364.62 142.66H352.56V193.59H364.62V142.66Z" fill="#3E8EED"/>
<path d="M366.4 150.49H303.12V139.51H351.42L366.4 150.49Z" fill="#D8E8FB"/>
<path d="M366.4 151.11L351.44 150.49V139.51L366.4 140.61V151.11Z" fill="#98C2F5"/>
<path d="M352.7 245.69H305.66V194.76H364.63L352.7 245.69Z" fill="#98C2F5"/>
<path d="M364.63 244.53L352.56 245.69V194.76H364.63V244.53Z" fill="#3E8EED"/>
<path d="M351.64 202.6H303.12V191.62H351.79L351.64 202.6Z" fill="#D8E8FB"/>
<path d="M366.4 201.86L351.44 202.6V191.62L366.4 191.48V201.86Z" fill="#98C2F5"/>
<path d="M283.45 152.82H226.6V194.25H283.45V152.82Z" fill="#98C2F5"/>
<path d="M283.45 152.82H273.64V194.25H283.45V152.82Z" fill="#3E8EED"/>
<path d="M284.81 141.97H224.63V152.82H284.81V141.97Z" fill="#D8E8FB"/>
<path d="M284.8 141.97H271.49V152.82H284.8V141.97Z" fill="#98C2F5"/>
<path d="M272.88 246.49H225.82V205.05H282.68L272.88 246.49Z" fill="#98C2F5"/>
<path d="M282.68 245.31L272.86 246.49V205.05H282.68V245.31Z" fill="#3E8EED"/>
<path d="M271.14 205.05H223.85V194.2H270.99L271.14 205.05Z" fill="#D8E8FB"/>
<path d="M284.03 204.53L270.71 205.05V194.2L284.03 193.68V204.53Z" fill="#98C2F5"/>
<path d="M338.92 55.32V250.12L173.52 247.3V65.85L338.92 55.32ZM346.86 48.05L166.67 60.0201V253.45L346.86 257.03V48.05Z" fill="#EA7F6B"/>
<path d="M372.58 268.99L346.86 257.03V48.05L372.58 57.7901V268.99Z" fill="#F1A18E"/>
<path d="M182.67 143.5C181.06 149.31 171.58 160.6 162.84 163.89C157.53 165.89 154.77 159.72 160.18 157.69C166.04 155.49 174.6 146.15 175.86 141.62L182.67 143.5Z" fill="#8A6FE8"/>
<path d="M170.57 135.25L172.28 144.98C172.59 146.71 174.23 147.87 175.97 147.57C177.7 147.26 178.86 145.62 178.56 143.88L176.85 134.15C176.54 132.42 174.9 131.26 173.16 131.56C171.43 131.87 170.27 133.51 170.57 135.25Z" fill="#8A6FE8"/>
<path d="M183.73 149.28L189.73 146.42C191.32 145.65 191.98 143.73 191.21 142.14C190.44 140.55 188.52 139.89 186.93 140.66L180.78 143.6L183.73 149.28Z" fill="#8A6FE8"/>
<path d="M184.72 145.83L190.61 138.81C191.74 137.45 191.56 135.43 190.2 134.29C188.84 133.16 186.82 133.34 185.68 134.7L181.28 139.91L184.72 145.83Z" fill="#8A6FE8"/>
<path d="M181.19 144.14L185.34 135.96C186.15 134.38 185.51 132.45 183.94 131.65C182.36 130.84 180.43 131.48 179.63 133.05L175.41 141.37L181.19 144.14Z" fill="#8A6FE8"/>
<path d="M179.17 151.4C182.88 151.4 185.88 148.4 185.88 144.69C185.88 140.98 182.88 137.98 179.17 137.98C175.46 137.98 172.46 140.98 172.46 144.69C172.46 148.4 175.46 151.4 179.17 151.4Z" fill="url(#paint1_radial)"/>
<path d="M188.787 170.511L238.857 153.286L224.059 110.271L173.99 127.495L188.787 170.511Z" fill="#F7B548"/>
<path d="M188.78 170.51L194.92 168.54L180.12 125.53L173.99 127.5L188.78 170.51Z" fill="#E29E3B"/>
<path d="M172.548 130.77L226.892 112.075L223.05 100.908L168.706 119.603L172.548 130.77Z" fill="#FEDEA7"/>
<path d="M172.55 130.77L182.02 127.47L178.17 116.3L168.71 119.59L172.55 130.77Z" fill="#FCCF84"/>
<path d="M119.48 231.14C123.69 226.62 131.46 216.75 133.82 204.7L126.66 203.3C124.53 214.23 117.38 222.74 114.02 226.24C113.74 226.54 116.26 229.32 119.48 231.14Z" fill="url(#paint2_linear)"/>
<path d="M119.48 231.14C123.69 226.62 131.46 216.75 133.82 204.7L126.66 203.3C124.53 214.23 117.38 222.74 114.02 226.24C113.74 226.54 116.26 229.32 119.48 231.14Z" fill="url(#paint3_linear)"/>
<path d="M114.07 226.2L118.36 230.07L108.24 262.5L92.9699 248.78C92.3099 248.19 92.2999 247.22 92.9399 246.6L114.07 226.2Z" fill="#522CD5"/>
<path d="M117.61 259.96C117.93 261.19 117.08 262.25 116.2 263.09L113.53 265.66C113.06 266.12 112.26 266.13 111.77 265.69L106.38 260.83C105.82 260.33 105.81 259.5 106.36 258.98L109 256.2C110.01 255.24 110.5 254.49 110.09 252.84C107.66 243.1 109.51 234.51 115.6 227.57L119.53 231.1C116.62 234.87 113.38 243.76 117.61 259.96Z" fill="url(#paint4_linear)"/>
<path d="M111.78 265.68C112.27 266.12 113.06 266.11 113.54 265.65L116.21 263.08C116.78 262.53 117.34 261.88 117.57 261.16L110.16 254.48C110 255.12 109.59 255.62 109 256.19L106.36 258.97C105.82 259.49 105.83 260.33 106.38 260.82L111.78 265.68Z" fill="url(#paint5_radial)"/>
<path d="M144.99 233.17C145.85 227 146.56 214.46 141.53 203.94L134.82 207.7C139.39 217.25 138.4 228.36 137.66 233.2C137.59 233.6 141.28 233.97 144.99 233.17Z" fill="url(#paint6_linear)"/>
<path d="M144.99 233.17C145.85 227 146.56 214.46 141.53 203.94L134.82 207.7C139.39 217.25 138.4 228.36 137.66 233.2C137.59 233.6 141.28 233.97 144.99 233.17Z" fill="url(#paint7_linear)"/>
<path d="M137.66 233.12H143.43L153.83 263.98L133.3 264C132.42 264 131.84 263.28 132.01 262.4L137.66 233.12Z" fill="#522CD5"/>
<path d="M160.11 255.84C161.09 256.54 160.99 257.89 160.76 259.1L160.04 262.79C159.92 263.45 159.27 263.99 158.6 263.99H151.35C150.6 263.99 150.11 263.38 150.25 262.63L150.82 258.8C151.09 257.41 151.07 256.53 149.77 255.58C142.14 249.97 138.69 242.36 139.71 233.12H144.99C144.79 237.86 147.26 246.63 160.11 255.84Z" fill="url(#paint8_linear)"/>
<path d="M158.61 264C159.28 264 159.92 263.46 160.05 262.8L160.77 259.11C160.92 258.32 161.01 257.46 160.78 256.77H150.8C151.04 257.35 150.99 257.99 150.83 258.82L150.26 262.65C150.12 263.4 150.61 264.01 151.36 264.01L158.61 264Z" fill="url(#paint9_radial)"/>
<path d="M171.28 171.51C170.52 161.07 166.31 153.96 166.31 153.96L168.56 153.19L168.6 153.13C159.4 136.62 139.45 128.51 120.92 134.81C100.04 141.9 88.8497 164.58 95.9497 185.46C103.04 206.34 125.72 217.52 146.6 210.43C163.08 204.83 173.51 189.54 173.7 173.07C173.63 172.41 173.24 171.29 171.28 171.51Z" fill="url(#paint10_radial)"/>
<path d="M171.28 171.51C170.53 161.2 166.41 154.14 166.31 153.97L148.84 159.83C148.84 159.83 146.29 160.42 147.05 162.67C147.82 164.92 150.08 171.28 152.47 178.33C152.97 179.79 171.32 172.99 171.28 171.51Z" fill="url(#paint11_radial)"/>
<path d="M171.28 171.47C171.25 171.08 171.21 170.69 171.18 170.31C170.99 168.37 170.68 166.56 170.31 164.9C169.44 164.87 168.73 165.32 168.09 166.26C167.21 167.54 162.8 174.37 162.8 174.37L171.28 171.47Z" fill="#A08BE8"/>
<path d="M173.69 173.57C173.69 173.57 174.06 171.2 171.29 171.51C171.29 171.5 171.29 171.49 171.29 171.48L154.48 177.12C153.58 177.43 152.24 177.28 151.85 176.45C152.07 177.07 152.27 177.71 152.49 178.34C152.94 179.65 154.15 180.02 155.07 179.84C155.16 179.82 155.25 179.8 155.34 179.77L157.98 178.87L173.69 173.57Z" fill="#512BD4"/>
<path d="M172.86 180.71L107.66 202.85C109.96 204.84 112.49 206.55 115.17 207.96L170.02 189.34C171.28 186.58 172.24 183.7 172.86 180.71Z" fill="#D8CFF7"/>
<path d="M168.88 191.62C171.1 187.51 172.6 183.01 173.28 178.35L165.3 181.06L168.88 191.62Z" fill="#512BD4"/>
<path d="M122.92 132.53L115.6 134.96L114.13 127.1L119.39 125.35L122.92 132.53Z" fill="#8A6FE8"/>
<path d="M127.25 136.18C127.58 136.07 127.75 135.7 127.61 135.38C126.07 132.04 122.22 130.31 118.64 131.5C115.06 132.69 113.01 136.37 113.78 139.97C113.85 140.31 114.21 140.51 114.55 140.4L127.25 136.18Z" fill="url(#paint12_radial)"/>
<path d="M162.11 170.89C163.76 170.37 164.39 167.71 163.52 164.95C162.65 162.19 160.61 160.36 158.96 160.88C157.31 161.4 156.68 164.06 157.55 166.82C158.42 169.58 160.46 171.4 162.11 170.89Z" fill="#512BD4"/>
<path d="M159.62 163.25C158.9 164.69 159.48 166.44 160.92 167.18C161.91 167.68 163.04 167.56 163.89 166.97C163.86 166.32 163.73 165.64 163.51 164.94C163.09 163.58 162.38 162.45 161.57 161.72C160.76 161.91 160.02 162.44 159.62 163.25Z" fill="#8065E0"/>
<path d="M115.57 128.02C118.65 128.02 121.14 125.53 121.14 122.45C121.14 119.37 118.65 116.88 115.57 116.88C112.49 116.88 110 119.37 110 122.45C110 125.53 112.49 128.02 115.57 128.02Z" fill="#D8CFF7"/>
<path d="M187.33 172.08L181.8 167.06C175.99 172.97 170.59 178.07 164.63 180.42C152.77 185.09 140.4 176.04 137.14 173.33L131.28 180.16C141.46 186.48 161.57 201.45 187.33 172.08Z" fill="url(#paint13_linear)"/>
<path d="M185.42 165.34L185.94 158.22C186.06 156.32 184.58 154.79 182.63 154.79C180.68 154.79 179 156.32 178.87 158.22L178.35 165.52L185.42 165.34Z" fill="#8A6FE8"/>
<path d="M132.84 182.74C136.89 182.74 140.18 179.46 140.18 175.4C140.18 171.34 136.9 168.06 132.84 168.06C128.79 168.06 125.5 171.34 125.5 175.4C125.5 179.46 128.79 182.74 132.84 182.74Z" fill="url(#paint14_radial)"/>
<path d="M185.22 176.29L192.25 173.75C194.11 173.06 195.09 171.09 194.42 169.36C193.75 167.62 191.7 166.77 189.83 167.46L182.63 170.07L185.22 176.29Z" fill="#8A6FE8"/>
<path d="M187.32 168.7L191.73 162.67C192.89 161.06 192.59 158.89 191.07 157.82C189.54 156.76 187.36 157.2 186.2 158.82L181.68 165.01L187.32 168.7Z" fill="#8A6FE8"/>
<path d="M187.93 172.15L193.98 167.76C195.59 166.58 195.97 164.43 194.84 162.94C193.71 161.46 191.5 161.22 189.9 162.39L183.7 166.89L187.93 172.15Z" fill="#8A6FE8"/>
<path d="M176.06 167.71C177.48 163.93 181.76 161.81 185.62 162.96C189.48 164.12 191.46 168.11 190.04 171.89C188.62 175.67 184.34 177.79 180.48 176.64C176.62 175.5 174.64 171.5 176.06 167.71Z" fill="url(#paint15_radial)"/>
<defs>
<radialGradient id="paint0_radial" cx="0" cy="0" r="1" gradientUnits="userSpaceOnUse" gradientTransform="translate(162.159 105.793) scale(215.53)">
<stop offset="0.3054" stop-color="#D8604D"/>
<stop offset="0.4382" stop-color="#CC5444"/>
</radialGradient>
<radialGradient id="paint1_radial" cx="0" cy="0" r="1" gradientUnits="userSpaceOnUse" gradientTransform="translate(173.849 145.787) rotate(-107.56) scale(22.5096)">
<stop stop-color="#8065E0"/>
<stop offset="0.8628" stop-color="#512BD4"/>
</radialGradient>
<linearGradient id="paint2_linear" x1="131.971" y1="203.566" x2="116.745" y2="229.486" gradientUnits="userSpaceOnUse">
<stop stop-color="#522CD5"/>
<stop offset="0.4397" stop-color="#8A6FE8"/>
</linearGradient>
<linearGradient id="paint3_linear" x1="131.971" y1="203.566" x2="116.745" y2="229.486" gradientUnits="userSpaceOnUse">
<stop stop-color="#522CD5"/>
<stop offset="0.4397" stop-color="#8A6FE8"/>
</linearGradient>
<linearGradient id="paint4_linear" x1="118.662" y1="228.284" x2="110.078" y2="265.459" gradientUnits="userSpaceOnUse">
<stop stop-color="#522CD5"/>
<stop offset="0.4397" stop-color="#8A6FE8"/>
</linearGradient>
<radialGradient id="paint5_radial" cx="0" cy="0" r="1" gradientUnits="userSpaceOnUse" gradientTransform="translate(117.846 253.177) rotate(42.0288) scale(11.7625)">
<stop offset="0.034" stop-color="#522CD5"/>
<stop offset="0.9955" stop-color="#8A6FE8"/>
</radialGradient>
<linearGradient id="paint6_linear" x1="137.395" y1="204.69" x2="143.155" y2="233.465" gradientUnits="userSpaceOnUse">
<stop stop-color="#522CD5"/>
<stop offset="0.4397" stop-color="#8A6FE8"/>
</linearGradient>
<linearGradient id="paint7_linear" x1="137.395" y1="204.69" x2="143.155" y2="233.465" gradientUnits="userSpaceOnUse">
<stop stop-color="#522CD5"/>
<stop offset="0.4397" stop-color="#8A6FE8"/>
</linearGradient>
<linearGradient id="paint8_linear" x1="141.174" y1="232.361" x2="157.886" y2="264.528" gradientUnits="userSpaceOnUse">
<stop stop-color="#522CD5"/>
<stop offset="0.4397" stop-color="#8A6FE8"/>
</linearGradient>
<radialGradient id="paint9_radial" cx="0" cy="0" r="1" gradientUnits="userSpaceOnUse" gradientTransform="translate(156.457 250.575) scale(11.7626)">
<stop offset="0.034" stop-color="#522CD5"/>
<stop offset="0.9955" stop-color="#8A6FE8"/>
</radialGradient>
<radialGradient id="paint10_radial" cx="0" cy="0" r="1" gradientUnits="userSpaceOnUse" gradientTransform="translate(126.183 153.117) rotate(-29.118) scale(33.9982)">
<stop offset="0.4744" stop-color="#A08BE8"/>
<stop offset="0.8618" stop-color="#8065E0"/>
</radialGradient>
<radialGradient id="paint11_radial" cx="0" cy="0" r="1" gradientUnits="userSpaceOnUse" gradientTransform="translate(158.452 163.633) rotate(-29.118) scale(26.1189)">
<stop offset="0.2022" stop-color="#E1DFDD"/>
<stop offset="0.7337" stop-color="white"/>
</radialGradient>
<radialGradient id="paint12_radial" cx="0" cy="0" r="1" gradientUnits="userSpaceOnUse" gradientTransform="translate(119.554 135.696) rotate(-29.118) scale(5.88056)">
<stop stop-color="#8065E0"/>
<stop offset="0.8628" stop-color="#512BD4"/>
</radialGradient>
<linearGradient id="paint13_linear" x1="136.25" y1="160.855" x2="180.875" y2="188.906" gradientUnits="userSpaceOnUse">
<stop offset="0.3344" stop-color="#9780E6"/>
<stop offset="0.8488" stop-color="#8A6FE8"/>
</linearGradient>
<radialGradient id="paint14_radial" cx="0" cy="0" r="1" gradientUnits="userSpaceOnUse" gradientTransform="translate(132.003 172.332) rotate(-18.9226) scale(10.8909)">
<stop stop-color="#8065E0"/>
<stop offset="0.8628" stop-color="#512BD4"/>
</radialGradient>
<radialGradient id="paint15_radial" cx="0" cy="0" r="1" gradientUnits="userSpaceOnUse" gradientTransform="translate(180.802 166.204) rotate(152.889) scale(12.7282 11.8788)">
<stop stop-color="#8065E0"/>
<stop offset="0.8628" stop-color="#512BD4"/>
</radialGradient>
</defs>
</svg>
