<svg width="636" height="300" viewBox="0 0 636 300" fill="none" xmlns="http://www.w3.org/2000/svg">
<path d="M524.37 107.12C524.38 107 524.42 106.87 524.43 106.74C527.19 80.15 507.17 58.61 479.73 58.63C470.74 58.64 462.12 60.99 454.44 65.03C449.5 38.51 426.4 19.1 396.6 19.13C367.44 19.16 340.79 37.82 329.86 63.47C325.27 60.66 319.78 59.03 313.73 59.04C295.76 59.06 279.69 73.23 277.9 90.65C277.77 92.08 277.76 93.49 277.82 94.88C250 105.62 229.49 132.7 227.78 165.4C227.72 166.5 227.79 167.25 227.77 168.34C390.75 161.22 496.37 155.92 552.06 155.02C553.54 152.89 555.98 148.99 556.73 141.98C558.77 122.71 544.22 107.12 524.37 107.12Z" fill="url(#paint0_radial)"/>
<path d="M294.11 257.66L285.23 176.29L277.34 181.1L291.2 257.62L294.11 257.66Z" fill="#C8C6C4"/>
<path d="M70.1798 264.83L66.8398 264.79L78.4799 180.62L88.4698 179.98L70.1798 264.83Z" fill="#C8C6C4"/>
<path d="M93.7796 251.42L109.15 178.71L100.36 179.75L90.8696 251.38L93.7796 251.42Z" fill="#C8C6C4"/>
<path d="M273.99 270.99L277.34 271.03L267.69 182.77L257.37 181.87L273.99 270.99Z" fill="#C8C6C4"/>
<path d="M273.22 184.27L297.72 170.39L298.23 162.59L273.32 176.77L273.22 184.27Z" fill="#848484"/>
<path d="M273.32 176.77L298.23 162.59L105.52 162.89L64.0098 174.9L64.6398 175.47L273.32 176.77Z" fill="#B2B2B2"/>
<path d="M63.8599 182.63L273.22 184.27L273.32 176.77L63.9999 174.89L63.8599 182.63Z" fill="#848484"/>
<path d="M481.93 157.1C504.59 156.28 524.19 155.66 540.85 155.29V118.15H481.93V157.1Z" fill="#70D6E0"/>
<path d="M540.86 118.15H528.8V155.59C532.99 155.48 536.99 155.31 540.85 155.22V118.15H540.86Z" fill="#28C2D1"/>
<path d="M542.63 125.98H479.39V115H527.66L542.63 125.98Z" fill="#CFF1F5"/>
<path d="M542.63 126.6L527.68 125.98V115L542.63 116.1V126.6Z" fill="#70D6E0"/>
<path d="M501.119 72.8101H442.419V123.51H501.119V72.8101Z" fill="#F7B548"/>
<path d="M501.119 72.8101H489.109V123.51H501.119V72.8101Z" fill="#E29E3B"/>
<path d="M502.88 80.6101H439.89V69.6801H487.97L502.88 80.6101Z" fill="#FEDEA7"/>
<path d="M502.88 81.2301L487.99 80.6101V69.6801L502.88 70.7801V81.2301Z" fill="#FCCF84"/>
<path d="M395.1 160.87C416.38 159.98 436.01 159.06 454.02 158.36V125.8H395.1V160.87Z" fill="#E86E58"/>
<path d="M454.03 158.38V125.8H441.98V158.86C446.07 158.69 450.09 158.53 454.03 158.38Z" fill="#CC5444"/>
<path d="M455.8 133.63H392.56V122.65H440.83L455.8 133.63Z" fill="#FDC9B5"/>
<path d="M455.8 134.25L440.85 133.63V122.65L455.8 123.75V134.25Z" fill="#EB8470"/>
<path d="M451.5 158.47C473.37 157.61 492.92 156.68 510.2 156.13V125.94H451.5V158.47Z" fill="#98C2F5"/>
<path d="M498.19 156.52C502.3 156.38 506.31 156.25 510.2 156.13V125.94H498.19V156.52Z" fill="#3E8EED"/>
<path d="M511.96 133.74H448.97V122.8H497.05L511.96 133.74Z" fill="#D8E8FB"/>
<path d="M511.96 134.36L497.07 133.74V122.8L511.96 123.9V134.36Z" fill="#98C2F5"/>
<path d="M366.21 128.72C364.39 135.32 352.14 148.66 342.19 152.4C336.15 154.67 333.81 147.27 339.96 144.96C346.62 142.46 357.03 131.74 358.46 126.58L366.21 128.72Z" fill="#8A6FE8"/>
<path d="M355.25 114.32L357.2 125.38C357.55 127.35 359.42 128.67 361.4 128.32C363.37 127.97 364.69 126.1 364.34 124.12L362.39 113.06C362.04 111.09 360.17 109.77 358.19 110.12C356.22 110.47 354.91 112.34 355.25 114.32Z" fill="#8A6FE8"/>
<path d="M370.21 130.26L377.02 127.01C378.83 126.13 379.58 123.95 378.7 122.14C377.82 120.33 375.64 119.58 373.83 120.46L366.85 123.8L370.21 130.26Z" fill="#8A6FE8"/>
<path d="M371.34 126.34L378.03 118.36C379.32 116.81 379.11 114.51 377.57 113.23C376.02 111.94 373.72 112.15 372.44 113.69L367.44 119.61L371.34 126.34Z" fill="#8A6FE8"/>
<path d="M367.32 124.41L372.04 115.12C372.96 113.32 372.24 111.13 370.45 110.22C368.65 109.3 366.46 110.02 365.55 111.81L360.75 121.27L367.32 124.41Z" fill="#8A6FE8"/>
<path d="M365.02 132.66C369.23 132.66 372.65 129.25 372.65 125.03C372.65 120.81 369.24 117.4 365.02 117.4C360.81 117.4 357.39 120.81 357.39 125.03C357.39 129.25 360.81 132.66 365.02 132.66Z" fill="url(#paint1_radial)"/>
<path d="M379.743 135.819L432.47 117.68L416.888 72.3861L364.161 90.5248L379.743 135.819Z" fill="#F7B548"/>
<path d="M379.74 135.81L386.2 133.74L370.62 88.4401L364.16 90.5201L379.74 135.81Z" fill="#E29E3B"/>
<path d="M362.665 93.964L419.883 74.2802L415.836 62.5169L358.618 82.2008L362.665 93.964Z" fill="#FEDEA7"/>
<path d="M362.65 93.96L372.62 90.49L368.57 78.73L358.61 82.2L362.65 93.96Z" fill="#FCCF84"/>
<path d="M286.1 231.89C290.88 226.75 299.72 215.54 302.39 201.84L294.25 200.25C291.83 212.67 283.7 222.35 279.88 226.32C279.58 226.66 282.44 229.83 286.1 231.89Z" fill="url(#paint2_linear)"/>
<path d="M286.1 231.89C290.88 226.75 299.72 215.54 302.39 201.84L294.25 200.25C291.83 212.67 283.7 222.35 279.88 226.32C279.58 226.66 282.44 229.83 286.1 231.89Z" fill="url(#paint3_linear)"/>
<path d="M279.95 226.28L284.83 230.67L273.33 267.52L255.98 251.93C255.23 251.26 255.21 250.15 255.94 249.45L279.95 226.28Z" fill="#522CD5"/>
<path d="M283.98 264.65C284.35 266.05 283.38 267.25 282.38 268.2L279.35 271.12C278.81 271.64 277.9 271.66 277.35 271.16L271.23 265.64C270.6 265.07 270.58 264.13 271.2 263.53L274.2 260.37C275.34 259.27 275.9 258.42 275.44 256.55C272.68 245.48 274.78 235.72 281.71 227.84L286.17 231.86C282.85 236.13 279.17 246.24 283.98 264.65Z" fill="url(#paint4_linear)"/>
<path d="M277.35 271.15C277.91 271.65 278.81 271.64 279.35 271.11L282.38 268.19C283.03 267.57 283.67 266.83 283.92 266.01L275.5 258.42C275.32 259.15 274.86 259.71 274.19 260.37L271.19 263.53C270.58 264.13 270.59 265.07 271.22 265.64L277.35 271.15Z" fill="url(#paint5_radial)"/>
<path d="M315.09 234.21C316.06 227.2 316.88 212.94 311.16 200.99L303.53 205.26C308.72 216.11 307.6 228.74 306.75 234.24C306.68 234.69 310.87 235.11 315.09 234.21Z" fill="url(#paint6_linear)"/>
<path d="M315.09 234.21C316.06 227.2 316.88 212.94 311.16 200.99L303.53 205.26C308.72 216.11 307.6 228.74 306.75 234.24C306.68 234.69 310.87 235.11 315.09 234.21Z" fill="url(#paint7_linear)"/>
<path d="M306.76 234.15H313.32L325.14 269.22L301.81 269.25C300.81 269.25 300.16 268.44 300.35 267.44L306.76 234.15Z" fill="#522CD5"/>
<path d="M332.27 259.96C333.39 260.75 333.27 262.29 333.01 263.66L332.2 267.86C332.06 268.61 331.32 269.22 330.56 269.22H322.32C321.47 269.22 320.91 268.53 321.07 267.68L321.71 263.32C322.01 261.74 321.99 260.74 320.52 259.66C311.84 253.28 307.93 244.63 309.08 234.14H315.08C314.86 239.53 317.67 249.5 332.27 259.96Z" fill="url(#paint8_linear)"/>
<path d="M330.57 269.23C331.33 269.23 332.05 268.62 332.21 267.87L333.02 263.67C333.19 262.77 333.29 261.8 333.03 261.01H321.69C321.96 261.67 321.91 262.4 321.73 263.34L321.09 267.7C320.93 268.55 321.49 269.24 322.34 269.24L330.57 269.23Z" fill="url(#paint9_radial)"/>
<path d="M344.97 164.13C344.11 152.27 339.32 144.19 339.32 144.19L341.88 143.32L341.93 143.25C331.48 124.49 308.8 115.27 287.74 122.43C264.01 130.49 251.3 156.26 259.36 179.99C267.42 203.72 293.19 216.43 316.92 208.37C335.64 202.01 347.5 184.63 347.71 165.91C347.64 165.15 347.2 163.88 344.97 164.13Z" fill="url(#paint10_radial)"/>
<path d="M344.97 164.13C344.12 152.41 339.44 144.39 339.33 144.2L319.48 150.86C319.48 150.86 316.58 151.53 317.45 154.09C318.32 156.65 320.89 163.87 323.61 171.89C324.16 173.54 345.01 165.81 344.97 164.13Z" fill="url(#paint11_radial)"/>
<path d="M344.97 164.09C344.93 163.65 344.89 163.2 344.86 162.77C344.64 160.57 344.29 158.51 343.87 156.62C342.88 156.58 342.07 157.1 341.35 158.16C340.35 159.62 335.34 167.38 335.34 167.38L344.97 164.09Z" fill="#A08BE8"/>
<path d="M347.71 166.47C347.71 166.47 348.13 163.78 344.98 164.13C344.98 164.12 344.98 164.1 344.98 164.09L325.88 170.5C324.86 170.85 323.34 170.68 322.89 169.73C323.14 170.44 323.37 171.16 323.62 171.88C324.13 173.37 325.51 173.79 326.55 173.58C326.65 173.56 326.76 173.53 326.86 173.5L329.86 172.48L347.71 166.47Z" fill="#512BD4"/>
<path d="M346.76 174.59L272.66 199.75C275.28 202.01 278.15 203.96 281.19 205.55L343.52 184.39C344.98 181.26 346.06 177.98 346.76 174.59Z" fill="#D8CFF7"/>
<path d="M342.24 186.98C344.76 182.31 346.46 177.2 347.24 171.9L338.17 174.98L342.24 186.98Z" fill="#512BD4"/>
<path d="M290.02 119.82L281.7 122.58L280.03 113.65L286.01 111.67L290.02 119.82Z" fill="#8A6FE8"/>
<path d="M294.93 123.98C295.31 123.86 295.5 123.43 295.34 123.07C293.59 119.27 289.22 117.3 285.15 118.66C281.09 120.01 278.75 124.2 279.63 128.29C279.72 128.68 280.12 128.9 280.5 128.78L294.93 123.98Z" fill="url(#paint12_radial)"/>
<path d="M334.54 163.42C336.41 162.83 337.13 159.81 336.14 156.66C335.15 153.52 332.83 151.45 330.96 152.04C329.09 152.63 328.37 155.65 329.36 158.8C330.35 161.94 332.67 164.01 334.54 163.42Z" fill="#512BD4"/>
<path d="M331.72 154.74C330.9 156.38 331.56 158.37 333.19 159.2C334.31 159.77 335.6 159.63 336.56 158.96C336.52 158.22 336.38 157.45 336.13 156.65C335.65 155.11 334.84 153.82 333.93 152.99C333.01 153.22 332.18 153.82 331.72 154.74Z" fill="#8065E0"/>
<path d="M281.66 114.7C285.16 114.7 287.99 111.86 287.99 108.37C287.99 104.88 285.15 102.04 281.66 102.04C278.16 102.04 275.33 104.88 275.33 108.37C275.33 111.86 278.16 114.7 281.66 114.7Z" fill="#C9BDF2"/>
<path d="M365.16 183.72L361.19 176.21C352.7 180.28 344.95 183.64 337.68 183.84C323.2 184.25 313.48 169.78 311.04 165.63L302.13 170.66C310.57 181.36 326.27 205.15 365.16 183.72Z" fill="url(#paint13_linear)"/>
<path d="M365.63 175.47L369.48 166.48C370.35 164.5 369.36 162.29 367.27 161.53C365.18 160.77 362.79 161.76 361.92 163.75L357.52 173.45L365.63 175.47Z" fill="#8A6FE8"/>
<path d="M302.8 174.04C307.13 175.61 311.91 173.37 313.48 169.04C315.05 164.71 312.81 159.93 308.48 158.36C304.15 156.79 299.37 159.03 297.8 163.36C296.23 167.69 298.47 172.47 302.8 174.04Z" fill="url(#paint14_radial)"/>
<path d="M363.32 187.53L371.78 188.3C374.03 188.49 375.98 186.93 376.13 184.83C376.28 182.72 374.58 180.86 372.32 180.67L363.65 179.89L363.32 187.53Z" fill="#8A6FE8"/>
<path d="M368.69 179.28L375.73 174.54C377.6 173.27 378.12 170.83 376.9 169.1C375.68 167.37 373.17 167.01 371.31 168.28L364.09 173.14L368.69 179.28Z" fill="#8A6FE8"/>
<path d="M367.64 183.88L375.8 181.53C377.97 180.89 379.21 178.74 378.59 176.72C377.95 174.7 375.68 173.59 373.52 174.22L365.16 176.63L367.64 183.88Z" fill="#8A6FE8"/>
<path d="M354.8 174.7C357.78 171.22 363.17 170.59 366.86 173.33C370.54 176.06 371.11 181.09 368.12 184.58C365.13 188.07 359.75 188.69 356.06 185.95C352.4 183.24 351.83 178.2 354.8 174.7Z" fill="url(#paint15_radial)"/>
<path d="M247.53 271.83H199.1V219.41L247.53 220.58V271.83Z" fill="#98C2F5"/>
<path d="M259.79 268.22L247.38 271.83V219.41L259.79 218.37V268.22Z" fill="#3E8EED"/>
<path d="M246.49 227.45L196.49 227.48V216.17H246.2L246.49 227.45Z" fill="#BDD8F9"/>
<path d="M261.61 223.94L246.22 227.48V216.17L261.61 212.84V223.94Z" fill="#98C2F5"/>
<path d="M261.61 212.84H212.06L196.49 216.17H246.22L261.61 212.84Z" fill="#D8E8FB"/>
<path d="M147.61 168.96C145.96 169.49 146.65 170.91 148.41 170.88C156.33 170.73 164.17 171.04 167.99 171.31C172.79 171.65 176.37 170.92 177.51 170.01C178.41 169.29 178.13 168.02 175.88 167.78C170.85 167.26 149.11 168.48 147.61 168.96Z" fill="#797673"/>
<path d="M159.82 167.56C145.97 168.21 143.68 169.9 151.61 169.85C159.55 169.8 164.33 169.98 168.15 170.26C176.76 170.87 180.38 168.15 175.32 167.72C170.27 167.28 162.85 167.42 159.82 167.56Z" fill="#B3AFAB"/>
<path d="M169.77 168.51L167.62 169.05L153.56 157.55L166.19 157.7L169.77 168.51Z" fill="#605D5A"/>
<path d="M167.68 169.05H154.16L150.35 157.55H163.88L167.68 169.05Z" fill="#797673"/>
<path d="M119.64 101.93L197.67 98.2601C199.41 98.1801 200.83 99.5301 200.83 101.29V150.75V151.34V157.09C200.83 158.59 199.61 159.8 198.12 159.78L119.63 159.47C118.36 159.45 117.33 158.32 117.33 156.93V151.65L116.95 104.95C116.95 103.36 118.15 102 119.64 101.93Z" fill="#B3AFAB"/>
<path d="M199.72 101.31C199.72 99.5501 198.3 98.1901 196.56 98.2801L118.41 101.95C116.92 102.02 115.72 103.39 115.72 105L116.09 151.19H116.08V157.02C116.08 158.41 117.11 159.54 118.38 159.56L196.99 159.86C198.48 159.88 199.7 158.67 199.7 157.16V151.45C199.7 151.43 199.71 151.42 199.71 151.41V101.31H199.72Z" fill="#625F5B"/>
<path d="M119.8 155.71L195.77 155.08V102.84L119.43 106.09L119.8 155.71Z" fill="#9C9894"/>
<path d="M132.32 105.54L119.43 106.08L119.8 155.71L132.32 155.6V105.54Z" fill="#797672"/>
<path d="M119.43 105.77L195.77 102.5V107.38L119.43 110.53V105.77Z" fill="#D5D3D0"/>
<path d="M129.61 116.77L122.19 116.89V115.77L129.61 115.64V116.77Z" fill="#B3AFAB"/>
<path d="M129.61 120.39L122.19 120.52V119.39L129.61 119.27V120.39Z" fill="#B3AFAB"/>
<path d="M129.61 124.02L122.19 124.14V123.02L129.61 122.89V124.02Z" fill="#B3AFAB"/>
<path d="M129.61 127.64L122.19 127.77V126.64L129.61 126.52V127.64Z" fill="#B3AFAB"/>
<path d="M129.61 131.27L122.19 131.39V130.27L129.61 130.14V131.27Z" fill="#B3AFAB"/>
<path d="M129.61 134.89L122.19 135.02V133.89L129.61 133.77V134.89Z" fill="#B3AFAB"/>
<path d="M129.61 138.52L122.19 138.64V137.52L129.61 137.4V138.52Z" fill="#B3AFAB"/>
<path d="M188.86 122.13L140.3 123.72V122.55L188.86 120.95V122.13Z" fill="#797672"/>
<path d="M153.87 114.47L136.5 115.13V116.3L153.87 115.65V114.47Z" fill="#797672"/>
<path d="M179.36 117.46L140.3 118.84V120.01L179.36 118.64V117.46Z" fill="#797672"/>
<path d="M162.67 125.69L144.09 126.26V127.44L162.67 126.87V125.69Z" fill="#797672"/>
<path d="M177.65 129.03L144.09 129.97V131.15L177.65 130.2V129.03Z" fill="#797672"/>
<path d="M184.5 132.74L147.89 133.68V134.86L184.5 133.91V132.74Z" fill="#797672"/>
<path d="M158.56 136.87L136.5 137.39V138.57L158.56 138.05V136.87Z" fill="#797672"/>
<path d="M185.99 140.22L144.09 141.1V142.28L185.99 141.4V140.22Z" fill="#797672"/>
<path d="M169.19 144.42L147.89 144.81V145.99L169.19 145.59V144.42Z" fill="#797672"/>
<path d="M176.73 147.87L136.5 148.52V149.7L176.73 149.05V147.87Z" fill="#797672"/>
<path d="M143.5 114.86L136.5 115.13V116.3L143.5 116.04V114.86Z" fill="#D5D3D0"/>
<path d="M153.98 122.1L140.3 122.55V123.72L153.98 123.28V122.1Z" fill="#D5D3D0"/>
<path d="M142.91 137.24L136.5 137.39V138.57L142.91 138.42V137.24Z" fill="#D5D3D0"/>
<path d="M153.16 140.91L144.09 141.1V142.28L153.16 142.09V140.91Z" fill="#D5D3D0"/>
<path d="M147.62 148.34L136.5 148.52V149.7L147.62 149.52V148.34Z" fill="#D5D3D0"/>
<path d="M88.7094 266.43L84.6895 265.78L97.9594 211.89C98.8294 208.37 101.679 205.6 105.229 204.83L124.519 200.62C126.449 200.2 128.429 200.56 130.089 201.64C131.739 202.72 132.859 204.38 133.249 206.31L143.669 258.21L139.819 258.12L129.659 207.03C129.469 206.07 128.909 205.25 128.089 204.71C127.259 204.17 126.279 203.99 125.309 204.2L106.019 208.41C103.829 208.89 102.069 210.6 101.529 212.77L88.7094 266.43Z" fill="#CCCAC7"/>
<path d="M130.04 273.67L133.57 220.34C133.55 216.27 136.27 212.63 140.19 211.48L168.47 203.52C170.42 202.95 172.48 203.17 174.26 204.15C176.04 205.12 177.34 206.73 177.91 208.68L189.06 260.51L184.97 260.43L174.39 209.71C174.1 208.7 173.43 207.87 172.51 207.37C171.59 206.86 170.52 206.75 169.51 207.05L141.21 215C138.86 215.69 137.22 217.87 137.23 220.32L133.68 274.14L130.04 273.67Z" fill="#CCCAC7"/>
<path d="M146.37 209.92L174.36 202.33C176.23 201.81 177.47 200.05 177.35 198.12L176.96 191.93C176.86 190.36 175.62 189.1 174.05 188.96L130.2 182.46L94.3599 190.66C94.3599 190.66 98.1699 204.15 103.54 204.61C106.61 204.87 132.77 208.63 138.51 209.38C142.33 209.89 146.37 209.92 146.37 209.92Z" fill="#179BB8"/>
<path d="M155.82 207.51L146.28 210.01C134.58 213.47 124.91 210.63 121.38 209.92C117.87 209.22 109.2 207.42 101.25 206.03C97.1897 205.32 94.5397 197.38 95.7797 200.91C97.0197 204.44 83.0197 143.42 83.4497 139.64C83.8697 135.86 86.6797 132.96 99.3197 133.8C111.96 134.64 116.53 134.84 129.23 156.17C141 175.95 151.95 195.01 157.58 204.15C158.97 206.45 158.15 206.81 155.82 207.51Z" fill="#22B5D6"/>
<path d="M238.01 170.89H189.58V118.48L238.01 119.65V170.89Z" fill="#F7B548"/>
<path d="M250.27 167.29L237.86 170.89V118.48L250.27 117.43V167.29Z" fill="#E29E3B"/>
<path d="M236.97 126.51L186.97 126.54V115.24H236.68L236.97 126.51Z" fill="#FCCF84"/>
<path d="M252.1 123.01L236.7 126.54V115.24L252.1 111.91V123.01Z" fill="#F9BE5C"/>
<path d="M252.1 111.91H202.54L186.97 115.24H236.7L252.1 111.91Z" fill="#FEDEA7"/>
<defs>
<radialGradient id="paint0_radial" cx="0" cy="0" r="1" gradientUnits="userSpaceOnUse" gradientTransform="translate(368.164 143.087) rotate(2.99803) scale(124.967 129.835)">
<stop offset="0.1159" stop-color="#F2F7FE"/>
<stop offset="0.7135" stop-color="#C9E0F9"/>
<stop offset="0.9695" stop-color="#B8D6F7"/>
</radialGradient>
<radialGradient id="paint1_radial" cx="0" cy="0" r="1" gradientUnits="userSpaceOnUse" gradientTransform="translate(358.891 126.174) rotate(-107.56) scale(25.5787)">
<stop stop-color="#8065E0"/>
<stop offset="0.8628" stop-color="#512BD4"/>
</radialGradient>
<linearGradient id="paint2_linear" x1="300.298" y1="200.559" x2="282.994" y2="230.015" gradientUnits="userSpaceOnUse">
<stop stop-color="#522CD5"/>
<stop offset="0.4397" stop-color="#8A6FE8"/>
</linearGradient>
<linearGradient id="paint3_linear" x1="300.298" y1="200.559" x2="282.994" y2="230.015" gradientUnits="userSpaceOnUse">
<stop stop-color="#522CD5"/>
<stop offset="0.4397" stop-color="#8A6FE8"/>
</linearGradient>
<linearGradient id="paint4_linear" x1="285.172" y1="228.649" x2="275.418" y2="270.896" gradientUnits="userSpaceOnUse">
<stop stop-color="#522CD5"/>
<stop offset="0.4397" stop-color="#8A6FE8"/>
</linearGradient>
<radialGradient id="paint5_radial" cx="0" cy="0" r="1" gradientUnits="userSpaceOnUse" gradientTransform="translate(284.267 256.988) rotate(42.0288) scale(13.3663)">
<stop offset="0.034" stop-color="#522CD5"/>
<stop offset="0.9955" stop-color="#8A6FE8"/>
</radialGradient>
<linearGradient id="paint6_linear" x1="306.462" y1="201.836" x2="313.007" y2="234.537" gradientUnits="userSpaceOnUse">
<stop stop-color="#522CD5"/>
<stop offset="0.4397" stop-color="#8A6FE8"/>
</linearGradient>
<linearGradient id="paint7_linear" x1="306.462" y1="201.836" x2="313.007" y2="234.537" gradientUnits="userSpaceOnUse">
<stop stop-color="#522CD5"/>
<stop offset="0.4397" stop-color="#8A6FE8"/>
</linearGradient>
<linearGradient id="paint8_linear" x1="310.757" y1="233.283" x2="329.748" y2="269.838" gradientUnits="userSpaceOnUse">
<stop stop-color="#522CD5"/>
<stop offset="0.4397" stop-color="#8A6FE8"/>
</linearGradient>
<radialGradient id="paint9_radial" cx="0" cy="0" r="1" gradientUnits="userSpaceOnUse" gradientTransform="translate(328.126 253.981) scale(13.3664)">
<stop offset="0.034" stop-color="#522CD5"/>
<stop offset="0.9955" stop-color="#8A6FE8"/>
</radialGradient>
<radialGradient id="paint10_radial" cx="0" cy="0" r="1" gradientUnits="userSpaceOnUse" gradientTransform="translate(293.702 143.076) rotate(-29.118) scale(38.6338)">
<stop offset="0.4744" stop-color="#A08BE8"/>
<stop offset="0.8618" stop-color="#8065E0"/>
</radialGradient>
<radialGradient id="paint11_radial" cx="0" cy="0" r="1" gradientUnits="userSpaceOnUse" gradientTransform="translate(330.47 155.171) rotate(-29.118) scale(29.6801)">
<stop offset="0.2022" stop-color="#E1DFDD"/>
<stop offset="0.7337" stop-color="white"/>
</radialGradient>
<radialGradient id="paint12_radial" cx="0" cy="0" r="1" gradientUnits="userSpaceOnUse" gradientTransform="translate(286.203 123.379) rotate(-29.118) scale(6.68242)">
<stop stop-color="#8065E0"/>
<stop offset="0.8628" stop-color="#512BD4"/>
</radialGradient>
<linearGradient id="paint13_linear" x1="315.038" y1="152.003" x2="351.873" y2="199.242" gradientUnits="userSpaceOnUse">
<stop offset="0.3344" stop-color="#9780E6"/>
<stop offset="0.8488" stop-color="#8A6FE8"/>
</linearGradient>
<radialGradient id="paint14_radial" cx="0" cy="0" r="1" gradientUnits="userSpaceOnUse" gradientTransform="translate(306.062 162.744) rotate(0.981023) scale(12.3759)">
<stop stop-color="#8065E0"/>
<stop offset="0.8628" stop-color="#512BD4"/>
</radialGradient>
<radialGradient id="paint15_radial" cx="0" cy="0" r="1" gradientUnits="userSpaceOnUse" gradientTransform="translate(360.423 175.057) rotate(172.792) scale(14.4637 13.4984)">
<stop stop-color="#8065E0"/>
<stop offset="0.8628" stop-color="#512BD4"/>
</radialGradient>
</defs>
</svg>
