<svg width="636" height="300" viewBox="0 0 636 300" fill="none" xmlns="http://www.w3.org/2000/svg">
<path d="M160.91 109.16C160.86 108.26 160.78 107.37 160.78 106.46C160.78 81.93 178.46 61.71 201.4 58.46C214.3 30.45 242 11.08 274.09 11.08C293.91 11.08 312.02 18.5 326.03 30.74C335.98 23.57 348.07 19.33 361.14 19.33C384.42 19.33 404.66 32.68 415.07 52.35C419.85 50.66 424.96 49.7 430.3 49.7C456.3 49.7 477.38 71.42 477.38 98.21C477.38 101.4 477.06 104.51 476.49 107.53C500.1 115.29 517.21 138.06 517.21 164.95C517.21 198.24 491.01 225.23 458.7 225.23C455.01 225.23 448.6 225.23 440.15 225.23C441.85 228.66 442.83 232.53 442.83 236.64V237.92C442.83 251.82 433.16 260.74 419.67 260.74H322.09L307.08 283.69C306.12 285.25 304.45 286.2 302.66 286.2H231.66C229.59 286.2 228.33 283.87 229.41 282.05L249.48 249.69C261.7 229.54 249.63 225.67 243.86 225.18C216.38 225.18 194.03 225.2 183.02 225.22C150.71 225.22 124.51 198.23 124.51 164.94C124.48 139.73 139.55 118.14 160.91 109.16Z" fill="#FCCF84"/>
<path d="M457.73 92.5599V93.0599C457.73 106.48 446.81 117.4 433.38 117.4H432.88V120.3H433.38C448.41 120.3 460.63 108.08 460.63 93.0499V92.5499H457.73V92.5599Z" fill="#F7B548"/>
<path d="M207.92 74.5699C192.38 74.5699 184.96 86.5499 184.65 87.0599L184.39 87.4899L186.87 88.9899L187.13 88.5699C187.2 88.4599 194.09 77.4799 207.91 77.4799H254.43V74.5799H207.92V74.5699Z" fill="#F7B548"/>
<path d="M458.45 123.83H457.95V126.73H458.45C479.75 126.73 497.09 144.06 497.09 165.37C497.09 184.67 482.84 200.67 464.32 203.51V175.21H461.42V203.85C460.44 203.93 459.46 204 458.46 204H424.86L441.93 187.19L439.89 185.12L420.71 204H364.27V206.9H421.68L421.79 207.01L421.9 206.9H458.45C481.36 206.9 499.99 188.27 499.99 165.36C499.99 142.47 481.36 123.83 458.45 123.83Z" fill="#F7B548"/>
<path d="M391.649 49.61L391.999 49.96L394.049 47.91L393.699 47.56C385.049 38.91 373.539 34.14 361.309 34.14C343.599 34.14 327.359 44.47 319.829 60.48H310.569L291.899 40.74V26.59H288.999V39.87H248.189C229.499 39.87 224.599 55.43 224.559 55.59L224.419 56.07L227.199 56.91L227.349 56.43C227.519 55.87 231.719 42.78 248.209 42.78H256.319V58.96H259.219V42.77H289.839L306.589 60.48H271.289L250.919 76.52L251.659 77.45H254.429L272.299 63.38H321.729L322.109 62.52C328.999 47.04 344.389 37.04 361.329 37.04C372.769 37.05 383.549 41.51 391.649 49.61Z" fill="#F7B548"/>
<path d="M238.88 75.33H235.979V88.37H238.88V75.33Z" fill="#F7B548"/>
<path d="M388.36 77.38L379.92 85.82L361.12 85.69L361.1 88.6L381.11 88.73L390.41 79.43L388.36 77.38Z" fill="#F7B548"/>
<path d="M419.999 171.19L420.259 170.76L417.779 169.26L417.519 169.68C417.449 169.79 410.559 180.77 396.739 180.77H350.219V183.67H396.739C412.269 183.68 419.689 171.7 419.999 171.19Z" fill="#F7B548"/>
<path d="M400.81 154.43H347.77V157.33H400.81V154.43Z" fill="#F7B548"/>
<path d="M392.599 134.62L394.649 132.57L367.939 105.86H381.969C401.389 105.86 417.859 120.4 420.269 139.68L420.319 140.12H423.249V140.11H449.999L438.739 151.22V164.37H441.639V152.44L454.129 140.12H458.449C471.339 140.12 481.819 150.61 481.819 163.49V163.99H484.719V163.49C484.719 149 472.929 137.21 458.439 137.21H453.029L452.989 137.17L452.939 137.21H422.799C421.689 130.96 419.209 125.24 415.679 120.32H433.959V117.41H413.389C408.419 111.65 401.919 107.3 394.549 104.95L407.689 92.01H437.539L451.899 77.48L449.839 75.44L436.329 89.1H420.689V62.66H363.769V47.4H360.869V65.57H417.789V89.1H406.499L391.309 104.06C388.299 103.37 385.189 102.96 381.989 102.96H365.059L357.169 95.07L355.119 97.12L360.959 102.96H347.299V105.86H363.859L392.599 134.62Z" fill="#F7B548"/>
<path d="M269.73 253.66L299.79 201.59L297.28 200.14L256.14 271.4L258.65 272.85L268.05 256.57H288.34L299.93 269.22L302.07 267.25L289.61 253.66H269.73Z" fill="#F7B548"/>
<path d="M420.569 227.62C417.779 224.18 413.179 222.43 406.909 222.43H361.609V209.57H358.709V225.33H406.909C412.259 225.33 416.089 226.71 418.309 229.43C421.419 233.25 420.379 238.66 420.359 238.72L420.259 239.21L423.099 239.8L423.199 239.31C423.259 239.05 424.569 232.56 420.569 227.62Z" fill="#F7B548"/>
<path d="M184.63 120.68H186.08V102.39H225.34L212.02 119.34L214.3 121.13L229.03 102.38H263.45V99.48H183.18V117.79C159.11 118.56 139.62 138.64 139.62 162.78V163.28H142.52V162.78C142.52 139.57 161.41 120.68 184.63 120.68Z" fill="#F7B548"/>
<path d="M268.709 225.23H271.609V206.81H184.629C170.559 206.81 157.479 199.82 149.629 188.12L149.349 187.7L146.939 189.32L147.219 189.74C155.609 202.25 169.599 209.72 184.629 209.72H268.709V225.23Z" fill="#F7B548"/>
<path d="M151.82 162.79C151.82 179.83 165.68 193.69 182.72 193.69H183.22V190.79H182.72C167.28 190.79 154.72 178.23 154.72 162.79C154.72 147.35 167.28 134.79 182.72 134.79H264.16V131.89H182.72C165.69 131.89 151.82 145.75 151.82 162.79Z" fill="#F7B548"/>
<path d="M204.629 192.15V175.32L173.589 153.35L171.919 155.72L201.729 176.83V195.06H243.369L268.909 162.48L266.629 160.69L241.959 192.15H204.629Z" fill="#F7B548"/>
<path d="M192.78 152.82H222.39V174.74H225.3V152.82H265.95V149.92H192.78V152.82Z" fill="#F7B548"/>
<path d="M340.93 219.03H338.02V240.78H310.6V243.68H391.82V240.78H340.93V219.03Z" fill="#F7B548"/>
<path d="M298.72 60.86H295.75V74.9H298.72V60.86Z" fill="#F7B548"/>
<path d="M310.57 245.25C312.31 245.25 313.72 243.84 313.72 242.1C313.72 240.36 312.31 238.95 310.57 238.95C308.83 238.95 307.42 240.36 307.42 242.1C307.42 243.84 308.83 245.25 310.57 245.25Z" fill="white"/>
<path d="M213.02 123.67C214.759 123.67 216.17 122.26 216.17 120.52C216.17 118.78 214.759 117.37 213.02 117.37C211.28 117.37 209.87 118.78 209.87 120.52C209.87 122.26 211.28 123.67 213.02 123.67Z" fill="white"/>
<path d="M237.43 91.14C239.169 91.14 240.58 89.7297 240.58 87.99C240.58 86.2503 239.169 84.84 237.43 84.84C235.69 84.84 234.28 86.2503 234.28 87.99C234.28 89.7297 235.69 91.14 237.43 91.14Z" fill="white"/>
<path d="M223.85 177.51C225.589 177.51 227 176.1 227 174.36C227 172.62 225.589 171.21 223.85 171.21C222.11 171.21 220.7 172.62 220.7 174.36C220.7 176.1 222.11 177.51 223.85 177.51Z" fill="white"/>
<path d="M389.28 81.66C391.02 81.66 392.43 80.2497 392.43 78.51C392.43 76.7703 391.02 75.36 389.28 75.36C387.54 75.36 386.13 76.7703 386.13 78.51C386.13 80.2497 387.54 81.66 389.28 81.66Z" fill="white"/>
<path d="M419.42 173.15C421.16 173.15 422.57 171.74 422.57 170C422.57 168.26 421.16 166.85 419.42 166.85C417.68 166.85 416.27 168.26 416.27 170C416.27 171.74 417.68 173.15 419.42 173.15Z" fill="white"/>
<path d="M400.43 159.04C402.169 159.04 403.58 157.63 403.58 155.89C403.58 154.15 402.169 152.74 400.43 152.74C398.69 152.74 397.28 154.15 397.28 155.89C397.28 157.63 398.69 159.04 400.43 159.04Z" fill="white"/>
<path d="M393.36 136.47C395.1 136.47 396.51 135.06 396.51 133.32C396.51 131.58 395.1 130.17 393.36 130.17C391.62 130.17 390.21 131.58 390.21 133.32C390.21 135.06 391.62 136.47 393.36 136.47Z" fill="white"/>
<path d="M258.97 236.81L275.74 237.49L370.51 241.37L370.52 243.49C370.54 243.99 370.2 244.52 369.55 244.55L288.71 247.92C288.59 247.92 288.47 247.91 288.36 247.88L259.74 240.08C259.18 239.93 258.95 239.49 258.98 239.07H258.97V236.81Z" fill="#625F5B"/>
<path d="M288.7 245.65L369.54 242.39C370.66 242.34 370.9 240.79 369.84 240.48L343.97 232.95C343.87 232.92 343.76 232.91 343.65 232.91L260.1 235.73C258.82 235.77 258.53 237.44 259.75 237.77L288.37 245.6C288.47 245.65 288.58 245.66 288.7 245.65Z" fill="#84817D"/>
<path d="M310.34 202.87L299.52 239.55L294.74 238.43L305.22 202.95L310.34 202.87Z" fill="#625F5B"/>
<path d="M299.44 239.55L334.34 238.26L344.46 202.37L310.04 202.87L299.44 239.55Z" fill="#797672"/>
<path d="M424.67 210.4L211.38 214.84C208.86 214.89 206.8 213.1 206.8 210.84L206.37 69.6499C206.37 65.4599 211.05 64.0899 213.56 64.2499L423.49 78.0999C425.42 78.2299 426.99 79.9199 427.01 81.8799L428.13 206.75C428.16 208.73 426.61 210.36 424.67 210.4Z" fill="#B3AFAB"/>
<path d="M427.47 206.33L216.9 210.15L216.43 68.47L426.35 81.84L427.47 206.33Z" fill="#1DACCC"/>
<path d="M426.52 100.27L216.5 89.44L216.43 68.47L426.35 81.84L426.52 100.27Z" fill="#70D6E0"/>
<path d="M364.19 162.54L334.06 162.23L333.94 142.73L364.06 143.4L364.19 162.54Z" fill="#A3C9F6"/>
<path d="M360.32 148.82L333.97 148.32L333.94 142.73L364.06 143.4L360.32 148.82Z" fill="#549BEF"/>
<path d="M367.31 144.75L330.56 143.96L330.52 136.83L367.26 137.79L367.31 144.75Z" fill="#A3C9F6"/>
<path d="M148.55 192.11C150.29 192.11 151.7 190.7 151.7 188.96C151.7 187.22 150.29 185.81 148.55 185.81C146.81 185.81 145.4 187.22 145.4 188.96C145.4 190.7 146.81 192.11 148.55 192.11Z" fill="white"/>
<path d="M183.51 195.51C185.25 195.51 186.66 194.1 186.66 192.36C186.66 190.62 185.25 189.21 183.51 189.21C181.77 189.21 180.36 190.62 180.36 192.36C180.36 194.1 181.77 195.51 183.51 195.51Z" fill="white"/>
<path d="M141.22 165.68C142.96 165.68 144.37 164.27 144.37 162.53C144.37 160.79 142.96 159.38 141.22 159.38C139.48 159.38 138.07 160.79 138.07 162.53C138.07 164.27 139.48 165.68 141.22 165.68Z" fill="white"/>
<path d="M173.54 158.24C175.279 158.24 176.69 156.83 176.69 155.09C176.69 153.35 175.279 151.94 173.54 151.94C171.8 151.94 170.39 153.35 170.39 155.09C170.39 156.83 171.8 158.24 173.54 158.24Z" fill="white"/>
<path d="M192.94 154.58C194.68 154.58 196.09 153.17 196.09 151.43C196.09 149.69 194.68 148.28 192.94 148.28C191.2 148.28 189.79 149.69 189.79 151.43C189.79 153.17 191.2 154.58 192.94 154.58Z" fill="white"/>
<path d="M270.38 226.24C272.12 226.24 273.53 224.83 273.53 223.09C273.53 221.35 272.12 219.94 270.38 219.94C268.64 219.94 267.23 221.35 267.23 223.09C267.23 224.83 268.64 226.24 270.38 226.24Z" fill="white"/>
<path d="M258.18 273.46C259.919 273.46 261.33 272.05 261.33 270.31C261.33 268.57 259.919 267.16 258.18 267.16C256.44 267.16 255.03 268.57 255.03 270.31C255.03 272.05 256.44 273.46 258.18 273.46Z" fill="white"/>
<path d="M300.66 271.02C302.399 271.02 303.81 269.61 303.81 267.87C303.81 266.13 302.399 264.72 300.66 264.72C298.92 264.72 297.51 266.13 297.51 267.87C297.51 269.61 298.92 271.02 300.66 271.02Z" fill="white"/>
<path d="M360.51 226.99C362.25 226.99 363.66 225.58 363.66 223.84C363.66 222.1 362.25 220.69 360.51 220.69C358.77 220.69 357.36 222.1 357.36 223.84C357.36 225.58 358.77 226.99 360.51 226.99Z" fill="white"/>
<path d="M421.92 240.85C423.66 240.85 425.07 239.44 425.07 237.7C425.07 235.96 423.66 234.55 421.92 234.55C420.18 234.55 418.77 235.96 418.77 237.7C418.77 239.44 420.18 240.85 421.92 240.85Z" fill="white"/>
<path d="M440.97 189.78C442.71 189.78 444.12 188.37 444.12 186.63C444.12 184.89 442.71 183.48 440.97 183.48C439.23 183.48 437.82 184.89 437.82 186.63C437.82 188.37 439.23 189.78 440.97 189.78Z" fill="white"/>
<path d="M483.21 166.63C484.949 166.63 486.36 165.22 486.36 163.48C486.36 161.74 484.949 160.33 483.21 160.33C481.47 160.33 480.06 161.74 480.06 163.48C480.06 165.22 481.47 166.63 483.21 166.63Z" fill="white"/>
<path d="M462.95 178.43C464.69 178.43 466.1 177.02 466.1 175.28C466.1 173.54 464.69 172.13 462.95 172.13C461.21 172.13 459.8 173.54 459.8 175.28C459.8 177.02 461.21 178.43 462.95 178.43Z" fill="white"/>
<path d="M457.24 128.62C458.98 128.62 460.39 127.21 460.39 125.47C460.39 123.73 458.98 122.32 457.24 122.32C455.5 122.32 454.09 123.73 454.09 125.47C454.09 127.21 455.5 128.62 457.24 128.62Z" fill="white"/>
<path d="M185.23 91.41C186.969 91.41 188.38 89.9997 188.38 88.26C188.38 86.5203 186.969 85.11 185.23 85.11C183.49 85.11 182.08 86.5203 182.08 88.26C182.08 89.9997 183.49 91.41 185.23 91.41Z" fill="white"/>
<path d="M459.15 95.39C460.89 95.39 462.3 93.9797 462.3 92.24C462.3 90.5003 460.89 89.09 459.15 89.09C457.41 89.09 456 90.5003 456 92.24C456 93.9797 457.41 95.39 459.15 95.39Z" fill="white"/>
<path d="M450.24 80.15C451.98 80.15 453.39 78.7397 453.39 77C453.39 75.2603 451.98 73.85 450.24 73.85C448.5 73.85 447.09 75.2603 447.09 77C447.09 78.7397 448.5 80.15 450.24 80.15Z" fill="white"/>
<path d="M418.93 67.15C420.669 67.15 422.08 65.7397 422.08 64C422.08 62.2603 420.669 60.85 418.93 60.85C417.19 60.85 415.78 62.2603 415.78 64C415.78 65.7397 417.19 67.15 418.93 67.15Z" fill="white"/>
<path d="M226.49 59.1099C228.23 59.1099 229.64 57.6996 229.64 55.9599C229.64 54.2202 228.23 52.8099 226.49 52.8099C224.75 52.8099 223.34 54.2202 223.34 55.9599C223.34 57.6996 224.75 59.1099 226.49 59.1099Z" fill="white"/>
<path d="M257.64 60.44C259.379 60.44 260.79 59.0297 260.79 57.29C260.79 55.5503 259.379 54.14 257.64 54.14C255.9 54.14 254.49 55.5503 254.49 57.29C254.49 59.0297 255.9 60.44 257.64 60.44Z" fill="white"/>
<path d="M290.45 30.01C292.19 30.01 293.6 28.5997 293.6 26.86C293.6 25.1203 292.19 23.71 290.45 23.71C288.71 23.71 287.3 25.1203 287.3 26.86C287.3 28.5997 288.71 30.01 290.45 30.01Z" fill="white"/>
<path d="M362.24 52C363.98 52 365.39 50.5896 365.39 48.8499C365.39 47.1103 363.98 45.7 362.24 45.7C360.5 45.7 359.09 47.1103 359.09 48.8499C359.09 50.5896 360.5 52 362.24 52Z" fill="white"/>
<path d="M440.2 167.36C441.94 167.36 443.35 165.95 443.35 164.21C443.35 162.47 441.94 161.06 440.2 161.06C438.46 161.06 437.05 162.47 437.05 164.21C437.05 165.95 438.46 167.36 440.2 167.36Z" fill="white"/>
<path d="M392.72 51.88C394.46 51.88 395.87 50.4697 395.87 48.73C395.87 46.9903 394.46 45.58 392.72 45.58C390.98 45.58 389.57 46.9903 389.57 48.73C389.57 50.4697 390.98 51.88 392.72 51.88Z" fill="white"/>
<path d="M393.28 245.07C395.02 245.07 396.43 243.66 396.43 241.92C396.43 240.18 395.02 238.77 393.28 238.77C391.54 238.77 390.13 240.18 390.13 241.92C390.13 243.66 391.54 245.07 393.28 245.07Z" fill="white"/>
<path d="M401.78 163.27H268.97V176.93H401.79C405.56 176.93 408.62 173.87 408.62 170.1C408.62 166.33 405.55 163.27 401.78 163.27Z" fill="#605D5A"/>
<path d="M390.46 176.93H386.37V206.55H390.46V176.93Z" fill="#CCCAC7"/>
<path d="M284.71 173.76C286.692 173.76 288.3 172.153 288.3 170.17C288.3 168.187 286.692 166.58 284.71 166.58C282.727 166.58 281.12 168.187 281.12 170.17C281.12 172.153 282.727 173.76 284.71 173.76Z" fill="#9C9894"/>
<path d="M313.75 173.76C315.732 173.76 317.34 172.153 317.34 170.17C317.34 168.187 315.732 166.58 313.75 166.58C311.767 166.58 310.16 168.187 310.16 170.17C310.16 172.153 311.767 173.76 313.75 173.76Z" fill="#9C9894"/>
<path d="M342.79 173.76C344.772 173.76 346.38 172.153 346.38 170.17C346.38 168.187 344.772 166.58 342.79 166.58C340.807 166.58 339.2 168.187 339.2 170.17C339.2 172.153 340.807 173.76 342.79 173.76Z" fill="#9C9894"/>
<path d="M371.83 173.76C373.812 173.76 375.42 172.153 375.42 170.17C375.42 168.187 373.812 166.58 371.83 166.58C369.847 166.58 368.24 168.187 368.24 170.17C368.24 172.153 369.847 173.76 371.83 173.76Z" fill="#9C9894"/>
<path d="M400.87 173.76C402.852 173.76 404.46 172.153 404.46 170.17C404.46 168.187 402.852 166.58 400.87 166.58C398.887 166.58 397.28 168.187 397.28 170.17C397.28 172.153 398.887 173.76 400.87 173.76Z" fill="#9C9894"/>
<path d="M401.78 162.27H268.97V164.27H401.79C405 164.27 407.62 166.89 407.62 170.1C407.62 173.31 405 175.93 401.79 175.93H268.97V177.93H401.79C406.12 177.93 409.62 174.43 409.62 170.1C409.61 165.77 406.11 162.27 401.78 162.27Z" fill="#CCCAC7"/>
<path d="M317.85 204.6L317.34 120.22C317.32 116.18 313.78 112.76 309.42 112.59L251.83 110.26C247.13 110.07 243.32 113.34 243.33 117.56L243.68 205.77L317.85 204.6Z" fill="#70D6E0"/>
<path d="M317.55 155.33L317.31 115.74C317.3 114.17 315.93 112.85 314.24 112.78L246.6 110.05C244.77 109.98 243.29 111.24 243.29 112.88L243.46 154.27L317.55 155.33Z" fill="#0B7891"/>
<path d="M283.87 147.38L304.61 147.77C305.88 147.79 306.9 146.84 306.89 145.65L306.78 126.81C306.77 125.62 305.74 124.61 304.48 124.57L283.75 123.89C282.45 123.85 281.4 124.8 281.41 126.01L281.51 145.14C281.51 146.35 282.57 147.35 283.87 147.38Z" fill="white"/>
<path d="M261.06 128.82C261.07 131.63 258.56 133.84 255.43 133.75C252.29 133.67 249.73 131.31 249.71 128.48C249.7 125.65 252.24 123.45 255.38 123.55C258.51 123.66 261.04 126.02 261.06 128.82Z" fill="white"/>
<path d="M276.85 129.29C276.86 132.07 274.39 134.26 271.32 134.18C268.24 134.1 265.72 131.76 265.71 128.96C265.7 126.16 268.19 123.97 271.27 124.07C274.35 124.18 276.84 126.51 276.85 129.29Z" fill="white"/>
<path d="M271.37 142.43L276.92 142.55L276.93 144.93L271.38 144.82L271.37 142.43Z" fill="#CEDB59"/>
<path d="M261.06 142.2L266.68 142.33L266.69 144.73L261.07 144.61L261.06 142.2Z" fill="#29C3E5"/>
<path d="M250.63 141.98L256.32 142.1L256.33 144.52L250.64 144.4L250.63 141.98Z" fill="#F7B548"/>
<path d="M306.83 134.42L302.45 134.31L300.84 130.55L296.17 130.34L293.72 126.15L290.57 135.12L288.08 130.76L285.73 133.85L281.45 133.74L281.46 135.16L286.56 135.29L287.92 133.49L290.93 138.74L294.1 129.72L295.26 131.71L299.81 131.91L301.42 135.68L306.83 135.82V134.42Z" fill="#CCCAC7"/>
<path d="M281.48 140.8L281.5 145.72C281.5 146.61 282.3 147.35 283.27 147.37L305.18 147.78C306.13 147.8 306.89 147.1 306.88 146.22L306.85 141.37L281.48 140.8Z" fill="#CCCAC7"/>
<path d="M271.33 134.18C274.4 134.26 276.87 132.07 276.86 129.29L265.72 128.96C265.73 131.76 268.25 134.1 271.33 134.18Z" fill="#D5D3D0"/>
<path d="M271.16 130.6C270.98 130.59 270.8 130.54 270.66 130.42C270.32 130.16 270.27 129.71 270.55 129.41L273.68 126.05C273.95 125.76 274.45 125.73 274.78 125.99C275.12 126.25 275.16 126.7 274.89 127L271.76 130.36C271.61 130.53 271.39 130.61 271.16 130.6Z" fill="#B3AFAB"/>
<path d="M426.25 78.28L214.49 64.3C211.99 64.13 209.96 65.82 209.97 68.06L210.41 210.77C210.42 213.03 212.46 214.82 214.98 214.77L427.44 210.35C429.37 210.31 430.91 208.68 430.9 206.71L429.77 82.07C429.75 80.1 428.18 78.41 426.25 78.28ZM422.62 198.38C422.64 200.36 421.08 201.99 419.13 202.02L225.53 204.97C223.05 205.01 221.03 203.22 221.02 200.98L220.6 78.26C220.59 76.03 222.6 74.35 225.07 74.5L418.11 86.18C420.05 86.3 421.64 87.99 421.66 89.96L422.62 198.38Z" fill="#625F5B"/>
<path d="M444.41 126.34C444.45 140.83 433.06 152.3 418.73 151.94C404.13 151.57 392.07 139.1 392.06 124.11C392.05 109.13 404.06 97.72 418.64 98.59C432.94 99.45 444.37 111.86 444.41 126.34Z" fill="white"/>
<path d="M423.4 106.24L415.04 106.79C414.51 106.82 414.1 107.26 414.1 107.79L414.15 140.87C414.15 141.03 414.27 141.16 414.43 141.18L423.41 142.28C423.59 142.3 423.74 142.16 423.74 141.98V106.55C423.73 106.38 423.57 106.23 423.4 106.24Z" fill="#0064DA"/>
<path d="M417.53 110.38L411.71 110.68C411.1 110.71 410.62 111.22 410.62 111.83L410.66 139.73C410.66 140.3 411.07 140.79 411.64 140.9L418.15 142.04C418.84 142.17 418.8 141.58 418.83 140.87C419.02 135.77 419.23 117.52 419 115.14C418.86 113.65 418.9 112.37 418.85 111.51C418.8 110.85 418.19 110.35 417.53 110.38Z" fill="#CC5444"/>
<path d="M423.73 142.3L430.44 142.51C431.23 142.53 431.86 141.9 431.86 141.09L431.79 108.16C431.79 107.35 431.15 106.66 430.36 106.62L423.66 106.25C422.87 106.21 422.22 106.83 422.22 107.64L422.28 140.78C422.29 141.59 422.94 142.27 423.73 142.3Z" fill="#549BEF"/>
<path d="M418.419 142.13L421.479 142.23C421.929 142.24 422.289 141.89 422.289 141.43L422.239 111.33C422.239 110.88 421.879 110.49 421.429 110.46L418.379 110.3C417.929 110.28 417.569 110.63 417.569 111.08L417.619 141.27C417.609 141.73 417.969 142.12 418.419 142.13Z" fill="#E86E58"/>
<path d="M412.21 141.44L406.04 141.36C405.88 141.35 405.72 141.33 405.56 141.29L401.04 139.74L410.66 139.76L412.21 141.44Z" fill="#C4832D"/>
<path d="M411.11 116.52L406.12 116.65C405.54 116.68 405.06 117.09 404.92 117.65L399.94 138.09C399.74 138.93 400.36 139.74 401.22 139.76L405.56 139.85C406.21 139.86 406.77 139.4 406.88 138.76L411.84 118.3C411.98 117.44 411.97 116.48 411.11 116.52Z" fill="#E29E3B"/>
<path d="M406.51 140.15L411.64 141.41C412.23 141.55 412.8 141.19 412.93 140.6L417.35 119.23C417.47 118.64 417.1 118.04 416.51 117.89L411.42 116.56C410.83 116.41 410.26 116.76 410.13 117.35L405.66 138.82C405.54 139.41 405.92 140.01 406.51 140.15Z" fill="#F7B548"/>
<path d="M409.67 127.8L413.68 128.82C413.94 128.89 414.19 128.73 414.25 128.47L415.81 121.03C415.86 120.77 415.7 120.51 415.44 120.44L411.44 119.4C411.18 119.33 410.93 119.49 410.87 119.75L409.3 127.21C409.25 127.47 409.41 127.73 409.67 127.8Z" fill="#FFE5B9"/>
<path d="M422.249 117.57L422.229 108.84L431.789 109.36L431.809 118.03L422.249 117.57Z" fill="#A3C9F6"/>
<path d="M418.54 120.74V115.8L421.37 115.94L421.38 120.87L418.54 120.74Z" fill="white"/>
<path d="M379.49 68.31L352.18 74.19L352.14 104.04C351.45 103.38 350.48 103.65 349.48 103.63C348.5 103.61 347.69 102.54 347 103.15L347.04 74.04L319.3 66.49L319.34 101.84L345.83 107.34C346.71 108.82 347.78 109.34 349.45 109.37C351.11 109.4 352.25 108.86 353.08 107.49L379.6 102.93L379.49 68.31Z" fill="#1572E0"/>
<path d="M375.43 65.09C375.43 65.09 355.7 68.17 353.13 68.94C350.56 69.71 349.51 71.48 349.57 74.91C349.63 78.34 349.46 103.9 349.46 103.9L375.61 99.16L375.43 65.09Z" fill="white"/>
<path d="M323.73 63.49C323.73 63.49 343.57 67.8 346.14 68.73C348.71 69.65 349.75 71.49 349.66 74.91C349.57 78.33 349.45 103.9 349.45 103.9L323.06 98.09L323.73 63.49Z" fill="#A3C9F6"/>
<path d="M344.72 75.01C344.69 75.01 344.66 75.01 344.63 75L328.56 71.31C328.29 71.25 328.11 70.97 328.17 70.69C328.22 70.41 328.49 70.24 328.76 70.3L344.82 74C345.09 74.06 345.26 74.34 345.21 74.61C345.16 74.85 344.95 75.02 344.72 75.01Z" fill="#B3AFAB"/>
<path d="M344.71 79.85C344.68 79.85 344.65 79.85 344.62 79.84L328.56 76.18C328.29 76.12 328.11 75.84 328.17 75.57C328.22 75.29 328.49 75.12 328.75 75.18L344.81 78.85C345.08 78.91 345.25 79.18 345.2 79.46C345.14 79.69 344.94 79.86 344.71 79.85Z" fill="#B3AFAB"/>
<path d="M344.69 84.68C344.66 84.68 344.63 84.68 344.6 84.67L328.55 81.03C328.28 80.97 328.1 80.69 328.16 80.42C328.21 80.14 328.48 79.96 328.74 80.03L344.79 83.67C345.06 83.73 345.23 84 345.18 84.28C345.13 84.52 344.92 84.68 344.69 84.68Z" fill="#B3AFAB"/>
<path d="M344.68 89.4999C344.65 89.4999 344.62 89.4999 344.59 89.4899L328.55 85.8799C328.28 85.8199 328.1 85.5499 328.16 85.2699C328.21 84.9899 328.48 84.8199 328.74 84.8799L344.78 88.4999C345.05 88.5599 345.22 88.8299 345.17 89.1099C345.11 89.3399 344.91 89.5099 344.68 89.4999Z" fill="#B3AFAB"/>
<path d="M354.42 75.2799C354.45 75.2799 354.48 75.2799 354.51 75.2699L370.38 72.5199C370.65 72.4699 370.82 72.2099 370.77 71.9299C370.72 71.6499 370.46 71.4599 370.2 71.5099L354.32 74.2599C354.05 74.3099 353.88 74.5699 353.93 74.8499C353.98 75.0999 354.19 75.2799 354.42 75.2799Z" fill="#B3AFAB"/>
<path d="M354.4 80.11C354.43 80.11 354.46 80.11 354.49 80.1L370.35 77.33C370.61 77.28 370.79 77.02 370.74 76.74C370.69 76.46 370.43 76.28 370.17 76.32L354.3 79.09C354.03 79.14 353.86 79.4 353.91 79.68C353.96 79.93 354.17 80.1 354.4 80.11Z" fill="#B3AFAB"/>
<path d="M354.38 84.9299C354.41 84.9299 354.44 84.9299 354.47 84.9199L370.32 82.1299C370.58 82.0799 370.76 81.8199 370.71 81.5399C370.66 81.2599 370.4 81.0699 370.14 81.1199L354.28 83.8999C354.01 83.9499 353.84 84.2099 353.89 84.4899C353.94 84.7399 354.15 84.9199 354.38 84.9299Z" fill="#B3AFAB"/>
<path d="M354.35 89.74C354.38 89.74 354.41 89.74 354.44 89.73L370.28 86.93C370.54 86.88 370.72 86.62 370.67 86.34C370.62 86.06 370.36 85.87 370.1 85.92L354.25 88.72C353.98 88.77 353.81 89.03 353.86 89.31C353.92 89.56 354.12 89.73 354.35 89.74Z" fill="#B3AFAB"/>
<path d="M347.62 104.51C348.21 104.15 348.89 103.95 349.63 103.96C350.31 103.97 350.94 104.18 351.5 104.51L377.03 100.36L376.71 68.7499L375.36 65.0799L375.5 98.3399C375.5 98.3399 354.69 101.58 352.85 101.97C351.02 102.37 349.51 103.86 349.51 103.86C349.51 103.86 348.8 102.57 346.49 101.92C344.18 101.26 323.73 97.2299 323.73 97.2299L323.8 63.5599L322.33 67.3699L322.4 99.4899L347.62 104.51Z" fill="#4995EE"/>
<path d="M255.42 133.76C258.55 133.84 261.07 131.63 261.05 128.83L249.7 128.49C249.72 131.31 252.28 133.67 255.42 133.76Z" fill="#D5D3D0"/>
<path d="M255.67 130.12C255.36 130.11 255.07 129.94 254.93 129.67L252.93 125.58C252.75 125.21 252.93 124.79 253.34 124.64C253.75 124.49 254.22 124.67 254.4 125.04L256.4 129.13C256.58 129.5 256.4 129.92 255.99 130.07C255.89 130.11 255.78 130.13 255.67 130.12Z" fill="#B3AFAB"/>
</svg>
