<svg width="636" height="300" viewBox="0 0 636 300" fill="none" xmlns="http://www.w3.org/2000/svg">
<path d="M502.27 128.14C502.28 127.97 502.34 127.79 502.35 127.61C506.36 90.29 480.04 59.97 443.57 59.86C431.63 59.83 420.13 63.09 409.88 68.73C403.65 31.47 373.21 4.09999 333.59 3.99999C294.83 3.90999 259.16 29.97 244.3 65.92C238.24 61.96 230.96 59.63 222.91 59.62C199.02 59.56 177.48 79.38 174.87 103.82C174.67 105.83 174.64 107.81 174.71 109.76C137.59 124.7 109.83 159.17 107.13 205.06C107.04 206.61 107 208.15 106.96 209.68C325.13 200.41 464.93 194.81 538.96 193.81C540.56 190.49 544.42 181.06 544.8 177.2C547.74 150.19 528.66 128.23 502.27 128.14Z" fill="url(#paint0_radial)"/>
<path d="M419.57 192.35L493.84 163.78L415.91 179.9L485.36 141.05L410.52 168.1L473.74 119.76L403.51 157.18L459.2 100.34L395.01 147.38L442.05 83.19L385.21 138.88L422.63 68.65L374.29 131.86L401.34 57.02L362.49 126.47L378.61 48.54L350.04 122.81L354.91 43.38L337.2 120.96L330.71 41.65L324.22 120.96L306.5 43.39L311.37 122.82L282.8 48.55L298.92 126.48L260.07 57.03L287.12 131.87L238.78 68.66L276.2 138.89L219.36 83.2L266.4 147.39L202.21 100.35L257.9 157.19L187.67 119.77L250.89 168.11L176.05 141.06L245.5 179.91L167.57 163.79L241.84 192.36L162.41 187.49L235.94 204.27C331.08 200.34 406.27 197.42 463.22 195.65L499 187.48L419.57 192.35Z" fill="#CAE0FA"/>
<path d="M394.57 198V85.52C394.57 78.34 388.73 72.5 381.55 72.5H291.87C284.69 72.5 278.85 78.34 278.85 85.52V202.51C321.98 200.76 360.49 199.25 394.57 198Z" fill="#E6F2FC"/>
<path d="M381.78 285.66L292.31 294.1C285.98 294.7 280.82 289.97 280.82 283.54V85.53C280.82 79.1 285.98 73.89 292.31 73.89H381.78C387.6 73.89 392.3 78.85 392.3 84.98V273.58C392.3 279.7 387.6 285.11 381.78 285.66Z" fill="#444444"/>
<path d="M379 278.02L295.31 285.62C291.86 285.93 289.05 283.35 289.05 279.84V86.98C289.05 83.47 291.86 80.62 295.31 80.61L379 80.38C382.2 80.37 384.78 83.09 384.78 86.45V271.4C384.79 274.77 382.2 277.73 379 278.02Z" fill="#1DACCC"/>
<path d="M384.79 105V86.45C384.79 83.09 382.2 80.37 379.01 80.38L295.32 80.62C291.87 80.63 289.06 83.48 289.06 86.99V106.33L384.79 105Z" fill="#84817D"/>
<path d="M309.75 80.58V83.64C309.75 87.05 312.45 89.79 315.78 89.77L361.63 89.45C364.82 89.43 367.39 86.72 367.39 83.39V80.4L309.75 80.58Z" fill="#444444"/>
<path d="M355.16 83.81C355.16 84.95 354.27 85.88 353.18 85.88C352.08 85.89 351.19 84.96 351.19 83.82C351.19 82.68 352.08 81.75 353.18 81.75C354.27 81.75 355.16 82.67 355.16 83.81Z" fill="#6D6A66"/>
<path d="M330.95 85.9401L345.03 85.8701C346.14 85.8601 347.04 84.9301 347.04 83.7701C347.04 82.6201 346.14 81.6901 345.03 81.6901L330.95 81.7401C329.82 81.7401 328.91 82.6901 328.91 83.8501C328.91 85.0101 329.83 85.9501 330.95 85.9401Z" fill="#6D6A66"/>
<path d="M289.05 261.9V279.84C289.05 283.35 291.86 285.93 295.31 285.62L379 278.02C382.2 277.73 384.78 274.77 384.78 271.41V254.2L289.05 261.9Z" fill="#60DEFA"/>
<path d="M354.3 276.09L321.52 279.01C320.75 279.08 320.13 278.5 320.13 277.71C320.13 276.92 320.75 276.23 321.52 276.17L354.3 273.29C355.04 273.22 355.65 273.8 355.65 274.57C355.65 275.34 355.05 276.02 354.3 276.09Z" fill="#7F7F7F"/>
<path d="M367.08 175.03L307.76 177.69V154.4L367.08 152.34V175.03Z" fill="#60DEFA"/>
<path d="M367.08 146.71L307.76 148.63V121.72L367.08 120.5V146.71Z" fill="#60DEFA"/>
<path d="M367.08 234.72L307.76 238.94V182.57L367.08 179.79V234.72Z" fill="#60DEFA"/>
<path d="M346.39 131.24L318.43 131.94C317.59 131.96 316.91 131.28 316.91 130.42C316.91 129.56 317.59 128.84 318.43 128.82L346.39 128.15C347.21 128.13 347.87 128.8 347.87 129.65C347.87 130.5 347.21 131.22 346.39 131.24Z" fill="white"/>
<path d="M357.89 137.87L318.43 138.98C317.59 139 316.91 138.32 316.91 137.46C316.91 136.6 317.59 135.88 318.43 135.86L357.89 134.8C358.7 134.78 359.36 135.45 359.36 136.29C359.36 137.13 358.7 137.85 357.89 137.87Z" fill="white"/>
<path d="M352.95 162.59L318.42 163.94C317.58 163.97 316.9 163.3 316.9 162.44C316.9 161.58 317.58 160.85 318.42 160.82L352.95 159.52C353.76 159.49 354.43 160.15 354.43 161C354.43 161.84 353.77 162.56 352.95 162.59Z" fill="white"/>
<path d="M343.71 169.91L318.42 170.97C317.58 171.01 316.9 170.34 316.9 169.47C316.9 168.6 317.58 167.88 318.42 167.85L343.71 166.82C344.53 166.79 345.2 167.45 345.2 168.3C345.2 169.15 344.53 169.88 343.71 169.91Z" fill="white"/>
<path d="M346.39 188.89L318.43 190.3C317.59 190.34 316.91 189.68 316.91 188.82C316.91 187.96 317.59 187.23 318.43 187.19L346.39 185.82C347.21 185.78 347.87 186.44 347.87 187.29C347.87 188.14 347.21 188.85 346.39 188.89Z" fill="white"/>
<path d="M351.3 195.59L318.42 197.35C317.58 197.39 316.9 196.73 316.9 195.87C316.9 195.01 317.58 194.27 318.42 194.23L351.3 192.52C352.12 192.48 352.78 193.13 352.78 193.98C352.78 194.83 352.12 195.54 351.3 195.59Z" fill="white"/>
<path d="M359.25 202.08L318.42 204.39C317.58 204.44 316.9 203.78 316.9 202.92C316.9 202.06 317.58 201.32 318.42 201.28L359.25 199.03C360.06 198.99 360.72 199.63 360.72 200.48C360.72 201.33 360.06 202.03 359.25 202.08Z" fill="white"/>
<path d="M352.13 209.42L318.43 211.43C317.59 211.48 316.91 210.82 316.91 209.96C316.91 209.1 317.59 208.36 318.43 208.31L352.13 206.35C352.95 206.3 353.61 206.95 353.61 207.8C353.61 208.65 352.94 209.37 352.13 209.42Z" fill="white"/>
<path d="M337.05 217.08L318.42 218.25C317.58 218.3 316.9 217.65 316.9 216.79C316.9 215.93 317.58 215.19 318.42 215.14L337.05 214C337.88 213.95 338.55 214.6 338.55 215.45C338.55 216.3 337.87 217.03 337.05 217.08Z" fill="white"/>
<path d="M321.37 165.87L309.87 166.33C308.6 161.22 304.03 157.56 298.54 157.76L273.33 158.67C266.68 158.91 261.26 164.54 261.26 171.24V176.98C261.26 183.68 266.68 188.85 273.33 188.52L298.54 187.29C305.01 186.97 310.23 181.4 310.23 174.84V173.26L321.37 165.87Z" fill="#C5D43B"/>
<path d="M364.92 220.18L349.25 221.19L342.86 210.69V221.61L341.13 221.72C334.86 222.13 329.75 227.73 329.75 234.24V239.81C329.75 246.32 334.86 251.19 341.13 250.71L364.91 248.87C371.02 248.4 375.95 242.85 375.95 236.47V231.01C375.96 224.63 371.03 219.78 364.92 220.18Z" fill="#FFE5B9"/>
<path d="M350.3 131.23L361.4 130.95C362.61 135.96 366.96 139.57 372.13 139.42L395.28 138.75C401.23 138.58 406.02 133.34 406.02 127.05V121.66C406.02 115.37 401.22 110.35 395.28 110.45L372.13 110.83C366.03 110.93 361.06 116.21 361.06 122.63V124.17L350.3 131.23Z" fill="white"/>
<defs>
<radialGradient id="paint0_radial" cx="0" cy="0" r="1" gradientUnits="userSpaceOnUse" gradientTransform="translate(340.855 216.636) rotate(-177.392) scale(197.784)">
<stop stop-color="white"/>
<stop offset="0.6698" stop-color="#BBD7F7"/>
<stop offset="0.7099" stop-color="#BED9F7"/>
<stop offset="1" stop-color="#81B5F3"/>
</radialGradient>
</defs>
</svg>
