<svg width="636" height="300" viewBox="0 0 636 300" fill="none" xmlns="http://www.w3.org/2000/svg">
<path d="M447.47 197.23L268.73 197.67C267.87 197.67 267.18 196.9 267.18 195.95V53.2401C267.18 52.2901 267.87 51.5701 268.73 51.6401L447.47 64.7801C448.16 64.8401 448.71 65.5701 448.71 66.4301V195.68C448.72 196.53 448.16 197.22 447.47 197.23Z" fill="#A3C9F6"/>
<path d="M450.29 179.19L277.59 177.6V201.76L450.29 200.92V179.19Z" fill="#2980E7"/>
<path d="M455.25 176.11V170L450.55 169.93V176.06L446.25 176.01V169.86H446.05L441.83 169.79H441.81V175.96L437.48 175.91V169.73L432.67 169.65V175.86L428.27 175.81V169.59L423.41 169.51V175.75L420.27 175.72V182.49L441.81 182.64L446.05 182.67L456.36 182.74V176.12L455.25 176.11Z" fill="#549BEF"/>
<path d="M436.46 113.19L430.67 112.89C428.5 104.46 421.64 96.8401 414.34 95.0801L411.19 95.0601C403.46 95.8001 395.93 102.14 393.87 111L388.03 110.7V128.59L393.93 128.83V205.37L430.72 204.28V130.31L436.45 130.54V113.19H436.46Z" fill="#549BEF"/>
<path d="M417.2 144.19L421.89 144.33V129.94L417.2 129.75V144.19Z" fill="#A3C9F6"/>
<path d="M406.06 164.61L410.81 164.7V150.21L406.06 150.08V164.61Z" fill="#A3C9F6"/>
<path d="M315.38 138.28L310.1 138.11C307.86 128.74 300.5 121.54 291.57 120.81L288.23 120.84C280.04 121.69 273.33 128.09 271.16 136.83L264.98 136.63V154.21L271.22 154.35V208.09L310.16 207.76V155.24L315.38 155.36V138.28Z" fill="#549BEF"/>
<path d="M295.84 167.04L300.79 167.12V152.97L295.84 152.86V167.04Z" fill="#A3C9F6"/>
<path d="M283.29 166.85L288.32 166.93V152.68L283.29 152.56V166.85Z" fill="#A3C9F6"/>
<path d="M366.06 112.07L360.73 111.8V115.09L357.82 114.95V168.1L379.32 168.43V115.97L376.29 115.82V112.56L371.33 112.31C376.71 111.16 380.71 105.72 380.71 98.9501C380.71 95.9601 379.92 93.1401 378.59 90.7701C378.37 90.3401 378.06 89.8701 377.65 89.3101C373.41 83.4501 370.83 74.9301 369.57 69.8301C369.29 68.7101 367.98 68.6301 367.72 69.7101C366.46 74.8801 363.91 83.4901 360.16 87.5201C357.91 89.9801 356.5 93.5201 356.5 97.5301C356.51 104.43 360.61 110.37 366.06 112.07Z" fill="#549BEF"/>
<path d="M388.41 168.63L349.52 168.03V156.56L388.41 157.43V168.63Z" fill="#549BEF"/>
<path d="M370.81 137.42L366.59 137.27V121.21L370.81 121.4V137.42Z" fill="#2980E7"/>
<path d="M361.31 207.74L388.54 207.5V168.37L361.31 167.94V207.74Z" fill="#2980E7"/>
<path d="M367.62 172.49L266.72 171.19V161.51L367.62 163.37C371.13 163.43 373.97 160.12 373.97 155.99C373.97 146.85 380.22 139.62 387.84 139.88L452.56 142.04V150.68L387.84 148.89C384.4 148.79 381.6 152.06 381.6 156.18C381.59 165.27 375.35 172.59 367.62 172.49Z" fill="white"/>
<path d="M367.21 169.07L365.28 169.04V166.76L367.21 166.79V169.07ZM361.4 168.98L359.45 168.95V166.66L361.4 166.69V168.98ZM355.54 168.89L353.58 168.86V166.56L355.54 166.59V168.89ZM349.64 168.8L347.66 168.77V166.46L349.64 166.49V168.8ZM343.7 168.72L341.71 168.69V166.37L343.7 166.4V168.72ZM337.72 168.63L335.72 168.6V166.28L337.72 166.31V168.63ZM331.69 168.54L329.67 168.51V166.18L331.69 166.21V168.54ZM325.61 168.44L323.58 168.41V166.07L325.61 166.1V168.44ZM319.5 168.35L317.45 168.32V165.97L319.5 166V168.35ZM313.34 168.26L311.28 168.23V165.87L313.34 165.9V168.26ZM307.13 168.17L305.05 168.14V165.77L307.13 165.8V168.17ZM300.87 168.07L298.78 168.04V165.66L300.87 165.69V168.07ZM294.57 167.98L292.46 167.95V165.57L294.57 165.6V167.98ZM288.23 167.89L286.1 167.86V165.47L288.23 165.5V167.89ZM281.83 167.79L279.69 167.76V165.36L281.83 165.4V167.79ZM275.39 167.69L273.23 167.66V165.25L275.39 165.29V167.69ZM268.9 167.6L266.73 167.57V165.15L268.9 165.19V167.6ZM371.32 168.39L370.68 166.23C371.22 166.01 371.76 165.73 372.26 165.4L373.22 167.38C372.62 167.78 371.98 168.12 371.32 168.39ZM376.37 164.19L374.87 162.76C375.23 162.23 375.54 161.66 375.81 161.06L377.5 162.14C377.18 162.86 376.8 163.56 376.37 164.19ZM378.69 157.44L376.79 157.17C376.82 156.81 376.84 156.44 376.84 156.06C376.84 155.68 376.85 155.3 376.88 154.93L378.78 155.17C378.76 155.48 378.75 155.79 378.75 156.11C378.74 156.56 378.72 157 378.69 157.44ZM379.71 151.27L378.01 150.21C378.32 149.48 378.69 148.79 379.11 148.14L380.62 149.55C380.27 150.1 379.96 150.67 379.71 151.27ZM383.16 146.92L382.18 144.96C382.77 144.55 383.4 144.21 384.05 143.95L384.7 146.09C384.17 146.3 383.65 146.58 383.16 146.92ZM449.62 147.35L447.88 147.3V145.13L449.62 145.18V147.35ZM444.38 147.2L442.63 147.15V144.98L444.38 145.03V147.2ZM439.11 147.04L437.34 146.99V144.81L439.11 144.87V147.04ZM433.79 146.88L432.01 146.83V144.64L433.79 144.7V146.88ZM428.45 146.72L426.66 146.67V144.47L428.45 144.53V146.72ZM423.06 146.56L421.26 146.51V144.31L423.06 144.37V146.56ZM417.64 146.4L415.82 146.35V144.14L417.64 144.2V146.4ZM412.18 146.23L410.35 146.18V143.96L412.18 144.02V146.23ZM406.68 146.07L404.84 146.02V143.79L406.68 143.85V146.07ZM401.15 145.91L399.3 145.85V143.62L401.15 143.68V145.91ZM395.57 145.74L393.7 145.68V143.44L395.57 143.5V145.74ZM389.96 145.57L388.08 145.51V143.26L389.96 143.32V145.57Z" fill="#F7B548"/>
<path d="M368.08 142.76L322.59 141.35L327.18 151.08L363.78 151.94L368.08 142.76Z" fill="#2980E7"/>
<path d="M363.43 129.12V135.6L358.63 135.43V128.93L353.32 128.72V135.24L348.46 135.07V128.53L343.08 128.32V134.87L338.16 134.7V128.12L332.72 127.91V134.51L327.74 134.33V127.71L322.59 127.51V141.35L368.08 142.76V129.3L363.43 129.12Z" fill="#CAE0FA"/>
<path d="M363.78 207.72L327.11 208.04V151.01L363.78 151.94V207.72Z" fill="#549BEF"/>
<path d="M351.51 205.84V173.67C351.51 169.88 348.88 166.77 345.62 166.71C342.35 166.66 339.69 169.71 339.69 173.53V205.93L351.51 205.84Z" fill="#2980E7"/>
<path d="M452.82 56.1601L262.03 40.9101C258.89 40.6301 256.34 43.2301 256.34 46.7201V207.97C256.34 211.45 258.89 214.25 262.03 214.21L452.81 206.69C455.29 206.66 457.29 204.14 457.29 201.06V62.1401C457.3 59.0501 455.29 56.3801 452.82 56.1601ZM448.72 191.62C448.72 192.47 448.16 193.16 447.48 193.17L268.74 197.67C267.88 197.67 267.19 196.9 267.19 195.95V53.2401C267.19 52.2901 267.88 51.5701 268.74 51.6401L447.48 64.7801C448.17 64.8401 448.72 65.5701 448.72 66.4201V191.62Z" fill="#625F5B"/>
<path d="M411.2 63.3501V95.0601C402.33 95.9701 396.08 102.31 393.9 110.97L430.87 112.86C428.59 104.59 423.13 97.3001 414.36 95.0801V63.6101L411.2 63.3501Z" fill="#CAE0FA"/>
<path d="M318.04 101.79L313.09 92.0701C312.9 91.7101 312.91 91.2701 313.1 90.9301L318.01 82.1501C318.4 81.4501 317.94 80.4801 317.2 80.4301L289.68 78.5801L289.61 120.85L291.78 120.94V102.04L317.23 103.41C317.96 103.44 318.42 102.54 318.04 101.79Z" fill="#E5F0FC"/>
<path d="M507.84 223.29C507.84 221.45 507.84 220.27 507.84 219.65C507.84 219.15 455.94 214.98 455.94 214.98L258.55 213.02V215.56C258.55 215.56 258.6 217.8 260.72 218.63C262.84 219.46 319.36 234.11 319.36 234.11C322.99 235.02 325.38 235.25 328.43 235.16L506.48 225.11C507.6 225.08 507.87 224.44 507.84 223.29Z" fill="#9C9894"/>
<path d="M507.04 220.93L328.75 230.05C325.7 230.13 322.72 229.72 319.37 228.75L258.45 212.99L455.95 205.03L507.37 218.43C508.43 218.85 508.17 220.9 507.04 220.93Z" fill="#CCCAC7"/>
<path d="M478.59 242.36L478.68 192.45C478.68 190.13 480.39 188.25 482.48 188.24L571.17 185.89C572.92 185.88 574.33 185.6 574.33 187.71L574.3 237.1C574.3 239.21 572.88 241.01 571.13 241.11L482.38 246.33C480.28 246.46 478.58 244.68 478.59 242.36Z" fill="#FDD490"/>
<path d="M561 238.01L476.06 242.68L476.05 248.2L560.99 243.09L561 238.01Z" fill="#E29E3B"/>
<path d="M555.66 236.96L554.84 237.01L554.85 234.37L552.71 234.47V237.12L550.77 237.22V234.57L548.62 234.68V237.34L546.66 237.44V234.78L544.5 234.89L544.49 237.56L542.52 237.67V235H542.43L540.49 235.1H540.48V237.78L538.49 237.88L538.5 235.2L536.29 235.31V238L534.28 238.11V235.42L532.07 235.53L532.06 238.23L530.04 238.34V235.63L527.8 235.75V238.46L525.75 238.57L525.76 235.85L525.56 235.86L523.65 235.96H523.56L523.55 238.68L521.49 238.8L521.5 236.07L519.22 236.18V238.92L517.14 239.03V236.29L514.85 236.41L514.84 239.15L512.75 239.27V236.51L510.44 236.63L510.43 239.39L508.32 239.5V236.74L506.15 236.85L506.14 242.62L523.64 241.63L525.55 241.52L540.47 240.68L542.42 240.57L555.66 239.82V236.96Z" fill="#E29E3B"/>
<path d="M558.55 186.23L558.54 192.42L554.94 212.33L552.03 212.42L552 242.24L566.4 241.4L566.42 212L563.44 212.09L559.78 191.77V186.23H558.55Z" fill="#F7B548"/>
<path d="M560.95 217.01L558.24 217.1L558.23 226.05L560.94 225.93L560.95 217.01Z" fill="#E29E3B"/>
<path d="M560.93 233.61L558.22 233.75L558.21 242.71L560.92 242.55L560.93 233.61Z" fill="#E29E3B"/>
<path d="M482.17 197.11V199.92L484.37 199.88L484.38 197.08L486.79 197.05L486.78 199.85L488.97 199.81V197.02L491.37 196.99L491.36 199.78L493.53 199.74V196.96L495.9 196.93V199.71L498.05 199.67V196.91L500.24 196.88V202.63L480 203L480.01 197.14L482.17 197.11Z" fill="#FFEED0"/>
<path d="M480 203L500.24 202.63L498.27 206.68L481.99 207L480 203Z" fill="#EBA841"/>
<path d="M508.03 216.07L507.99 242.95L497.21 243.42L497.25 216.34L508.03 216.07Z" fill="#E29E3B"/>
<path d="M509.03 216.86L496.96 217.25L496.97 214.62L509.04 214.26L509.03 216.86Z" fill="#E29E3B"/>
<path d="M481.91 250.19L498.23 249.17L498.3 206.65L481.99 207L481.91 250.19Z" fill="#F7B548"/>
<path d="M487.35 235.89L487.37 222.1C487.37 220.48 488.56 219.12 490.01 219.07C491.46 219.02 492.63 220.29 492.63 221.91L492.61 235.63L487.35 235.89Z" fill="#E29E3B"/>
<path d="M574.47 230.16L508.45 233.31C502.23 233.61 497.12 228.08 497.13 220.99V219.19C497.13 216.73 495.35 214.77 493.14 214.84L475.47 215.36L475.49 206.8L493.16 206.42C499.49 206.28 504.57 211.9 504.56 218.94V220.73C504.56 223.18 506.31 225.1 508.46 225.01L574.47 222.38V230.16Z" fill="white"/>
<path d="M476.45 212.13L475.48 212.15V210.01L476.45 209.99V212.13Z" fill="#F7B548"/>
<path d="M570.48 227.42L568.9 227.49V225.53L570.48 225.46V227.42ZM565.71 227.64L564.11 227.71V225.74L565.71 225.67V227.64ZM560.9 227.85L559.29 227.92V225.95L560.9 225.88V227.85ZM556.04 228.07L554.41 228.14V226.16L556.04 226.09V228.07ZM551.13 228.29L549.48 228.36V226.37L551.13 226.3V228.29ZM546.18 228.51L544.52 228.58V226.58L546.18 226.51V228.51ZM541.17 228.74L539.49 228.82V226.81L541.17 226.74V228.74ZM536.12 228.96L534.42 229.04V227.02L536.12 226.95V228.96ZM531.01 229.19L529.3 229.27V227.24L531.01 227.17V229.19ZM525.85 229.42L524.12 229.5V227.45L525.85 227.38V229.42ZM520.64 229.65L518.89 229.73V227.67L520.64 227.6V229.65ZM515.38 229.89L513.61 229.97V227.9L515.38 227.82V229.89ZM510.06 230.13L508.25 230.21L508.31 228.13L508.28 229.17L508.45 228.13L510.07 228.06L510.06 230.13ZM504.4 229.22C503.81 228.88 503.25 228.46 502.76 227.97L504 226.37C504.39 226.75 504.82 227.08 505.29 227.35L504.4 229.22ZM500.49 224.33C500.25 223.63 500.08 222.89 500 222.13L501.84 221.8C501.91 222.39 502.04 222.97 502.22 223.52L500.49 224.33ZM499.87 218.06C499.8 217.47 499.67 216.89 499.47 216.34L501.2 215.52C501.45 216.22 501.62 216.96 501.71 217.71L499.87 218.06ZM497.66 213.48C497.26 213.09 496.82 212.76 496.35 212.49L497.23 210.61C497.83 210.95 498.39 211.38 498.9 211.87L497.66 213.48ZM493.25 211.68L491.43 211.73V209.62L493.15 209.58L493.27 210.63L493.25 211.68ZM487.72 211.83L485.86 211.88V209.76L487.72 209.71V211.83ZM482.11 211.98L480.23 212.03V209.9L482.11 209.85V211.98Z" fill="#F7B548"/>
<path d="M574.47 227.25L573.67 227.28V225.34L574.47 225.3V227.25Z" fill="#F7B548"/>
<path d="M523.64 188.06L523.62 199.71C519.05 200.46 514.59 204.35 513.37 209.41L509.92 209.5L509.9 219.53L513.38 219.41L513.34 244.52L535.12 243.24L535.15 218.66L538.55 218.54L538.56 208.78L535.13 208.87C533.85 204.23 529.79 200.25 525.47 199.58L525.49 188.05L523.64 188.06Z" fill="#F7B548"/>
<path d="M527.14 227.04L529.91 226.92L529.92 218.83L527.15 218.93L527.14 227.04Z" fill="#E29E3B"/>
<path d="M574.32 197.55L573.01 197.57C571.55 197.59 570.36 199.08 570.35 200.9L570.33 226.46C570.33 228.28 571.52 229.69 572.98 229.62L574.29 229.56L574.32 197.55Z" fill="#444444"/>
<path d="M572.83 222.68C572.33 222.7 571.93 222.22 571.93 221.6C571.93 220.98 572.34 220.46 572.83 220.45C573.33 220.43 573.73 220.91 573.73 221.53C573.74 222.14 573.33 222.66 572.83 222.68Z" fill="#A7A4A0"/>
<path d="M571.97 209.17L571.96 217.06C571.96 217.67 572.37 218.15 572.87 218.13C573.37 218.11 573.78 217.6 573.78 217L573.79 209.13C573.79 208.52 573.38 208.04 572.88 208.06C572.37 208.06 571.97 208.56 571.97 209.17Z" fill="#A7A4A0"/>
<path d="M520.53 238.98L523.34 238.83L523.35 230.69L520.54 230.82L520.53 238.98Z" fill="#E29E3B"/>
<path d="M481.93 238.09L480.23 238.17V241.01L477.99 241.13V238.29L476.33 238.37L476.32 244.31L481.92 243.99L481.93 238.09Z" fill="#E29E3B"/>
<path d="M571.42 181.5L480.64 183.57C476.81 183.57 473.67 187.02 473.66 191.27L473.56 244.93C473.55 249.19 476.68 252.44 480.51 252.2L571.37 245.49C576.44 244.65 578.3 242 578.3 238.15L578.33 188.46C578.34 184.62 576.9 181.44 571.42 181.5ZM574.29 237.11C574.29 239.22 572.87 241.02 571.12 241.12L482.37 247.25C480.28 247.37 478.58 245.59 478.58 243.27L478.67 192.44C478.67 190.12 480.38 188.24 482.47 188.23L571.16 185.88C572.91 185.87 574.32 186.52 574.32 188.63L574.29 237.11Z" fill="#444444"/>
<path d="M535.05 208.62C533.69 204.09 529.72 200.24 525.48 199.59L525.5 188.06L523.64 188.07L523.62 199.72C519.13 200.46 514.77 204.23 513.46 209.16L535.05 208.62Z" fill="#FFEED0"/>
<path d="M252.78 197.08C248.84 197.09 245.64 200.62 245.64 204.97V227.45L259.87 227.17V204.87C259.86 200.56 256.7 197.07 252.78 197.08Z" fill="#ED8422"/>
<path d="M91.67 94.5101L263.98 101.04C264.58 101.07 265.07 101.64 265.07 102.3V225.88C265.07 226.55 264.58 227.09 263.98 227.11L91.67 235.17C90.94 235.18 90.36 234.6 90.36 233.87V95.7601C90.35 95.0301 90.94 94.4701 91.67 94.5101Z" fill="#60DEFA"/>
<path d="M197.05 207.39V238.35L197.52 238.34C198.31 226.66 207.34 217.34 218.27 217.19C229.06 217.05 237.79 225.93 238.55 237.31L239.59 237.28V207.05L197.05 207.39Z" fill="#1DACCC"/>
<path d="M169.7 145.43L107.6 143.8L113.89 155.63L163.86 156.54L169.7 145.43Z" fill="#1DACCC"/>
<path d="M163.38 128.92V136.76L156.85 136.56V128.69L149.62 128.44V136.34L143 136.13V128.21L135.66 127.95V135.91L128.94 135.7V127.71L121.48 127.45V135.47L114.66 135.26V127.21L107.6 126.96V143.8L169.7 145.43V129.15L163.38 128.92Z" fill="#BBF1FD"/>
<path d="M236.9 181.57V229.57L263.98 228.17C264.58 228.16 265.07 226.52 265.07 225.86V181.75L236.9 181.57Z" fill="#29C3E5"/>
<path d="M265.07 171.12L231.48 170.68L236.9 181.57L265.07 181.81V171.12Z" fill="#1DACCC"/>
<path d="M265.07 163.09L262.13 163.04V155.62L255.71 155.48V162.93L249.83 162.82V155.35L243.31 155.21V162.71L237.35 162.6V155.08L231.48 154.95V170.68L265.07 171.12V163.09Z" fill="#BBF1FD"/>
<path d="M163.86 234.28L113.8 235.15V155.54L163.86 156.54V234.28Z" fill="#29C3E5"/>
<path d="M147.71 219.53V181.34C147.71 177.22 145.04 173.36 141.12 172.61C136.02 171.64 131.57 175.64 131.57 180.76V219.76C131.58 219.93 147.71 219.7 147.71 219.53Z" fill="#1DACCC"/>
<path d="M272.38 199.21L82.7 199.84V189.13L272.38 189.56V199.21Z" fill="white"/>
<path d="M272.38 195.59H270.26V193.17H272.38V195.59ZM265.91 195.59H263.73V193.17H265.91V195.59ZM259.35 195.6H257.15V193.17H259.35V195.6ZM252.74 195.61H250.52V193.17H252.74V195.61ZM246.07 195.62H243.84V193.17H246.07V195.62ZM239.36 195.63H237.11V193.17H239.36V195.63ZM232.59 195.64H230.32V193.17H232.59V195.64ZM225.77 195.65H223.49V193.17H225.77V195.65ZM218.9 195.65H216.6V193.16H218.9V195.65ZM211.97 195.66H209.65V193.16H211.97V195.66ZM204.99 195.67H202.65V193.16H204.99V195.67ZM197.95 195.68H195.59V193.16H197.95V195.68ZM190.86 195.69H188.48V193.16H190.86V195.69ZM183.72 195.7H181.32V193.16H183.72V195.7ZM176.51 195.71H174.1V193.16H176.51V195.71ZM169.25 195.72H166.82V193.16H169.25V195.72ZM161.93 195.73H159.48V193.16H161.93V195.73ZM154.55 195.74H152.08V193.16H154.55V195.74ZM147.11 195.75H144.62V193.16H147.11V195.75ZM139.61 195.75H137.1V193.15H139.61V195.75ZM132.05 195.76H129.52V193.15H132.05V195.76ZM124.43 195.77H121.88V193.15H124.43V195.77ZM116.75 195.78H114.17V193.15H116.75V195.78ZM109 195.79H106.4V193.15H109V195.79ZM101.19 195.8H98.57V193.14H101.19V195.8ZM93.31 195.81H90.67V193.14H93.31V195.81ZM85.37 195.82H82.71V193.14H85.37V195.82Z" fill="#F7B548"/>
<path d="M181.38 152.98L176.93 152.88C175.2 152.84 173.79 154.3 173.79 156.13V234.5L211.76 233.76V155.58C211.76 154.52 210.96 153.64 209.97 153.61L203.91 153.47L195.18 98.4701L190.16 98.1901L181.38 152.98Z" fill="#1DACCC"/>
<path d="M197.24 186.49L189.06 186.46V167.81L197.24 167.92V186.49Z" fill="#29C3E5"/>
<path d="M189.06 215.6L197.24 215.5V197.38L189.06 197.4V215.6Z" fill="#29C3E5"/>
<path d="M274.82 89.2801L78.38 80.2101C76.05 80.0701 74.16 81.8501 74.16 84.1801V246.15C74.16 248.49 76.05 250.33 78.38 250.27L274.82 239.21C276.69 239.16 278.2 237.43 278.2 235.34V93.2701C278.21 91.1801 276.7 89.4001 274.82 89.2801ZM265.07 225.87C265.07 226.54 264.58 227.08 263.98 227.1L91.67 235.16C90.94 235.17 90.36 234.59 90.36 233.86V95.7601C90.36 95.0301 90.95 94.4701 91.67 94.5001L263.98 101.03C264.58 101.06 265.07 101.63 265.07 102.29V225.87Z" fill="#625F5B"/>
<path d="M181.94 240.69C179.93 240.74 178.29 239.05 178.29 236.92C178.29 234.79 179.92 233.02 181.94 232.98C183.95 232.94 185.57 234.63 185.57 236.75C185.57 238.88 183.94 240.64 181.94 240.69Z" fill="#84817D"/>
</svg>
