<svg width="636" height="300" viewBox="0 0 636 300" fill="none" xmlns="http://www.w3.org/2000/svg">
<path d="M64.2699 176.69C64.2699 175.39 65.6599 175.29 65.6599 175.29L65.6199 170.9C65.6199 170.9 64.3499 170.79 64.3099 169.71L64.4999 149.77C64.5299 148.46 65.9599 148.18 65.9599 148.18L65.9399 143.38C65.9399 143.38 64.6299 143.62 64.5999 141.94C64.5999 141.89 64.5799 141.83 64.5799 141.78L64.7399 124.16C64.7499 123.05 65.3899 122.05 66.3799 121.61L66.2799 116.84L65.1899 114.62L65.4699 97.04L67.1999 94.47L86.5799 82.5L169.43 88.07L169.52 225.43L85.8699 229.82C85.8699 229.82 66.9299 226.46 65.4399 226.15C63.9499 225.83 63.8999 224.29 63.8999 224.29L63.9799 204.64C63.9799 204.64 63.9399 203.09 65.4799 202.96C65.6599 201.35 65.4799 198.44 65.4799 198.44C64.6599 198.45 64.0099 197.77 64.0199 196.93C64.0299 196.9 64.2699 177.37 64.2699 176.69Z" fill="#797673"/>
<path d="M65.9399 143.37L87.0999 138.65L86.8999 143.63C86.8999 143.63 85.4599 143.99 83.7199 144.42C82.6299 144.69 65.9499 148.19 65.9499 148.19L65.9399 143.37Z" fill="#605D5A"/>
<path d="M66.2897 116.89L86.9697 107.74L86.7697 112.71L66.1997 121.68L66.2897 116.89Z" fill="#605D5A"/>
<path d="M65.6699 175.36L65.6299 170.88L86.8899 167.17L86.9999 172.22L65.6699 175.36Z" fill="#605D5A"/>
<path d="M65.51 202.89L65.46 198.41L87 199.05L86.97 203.79L65.51 202.89Z" fill="#605D5A"/>
<path d="M86.8298 108.42L171.55 111.85C172.24 111.85 172.8 111.24 172.83 110.47L172.61 88.53C172.64 87.7 172.05 87 171.31 87L86.9297 82.41C86.2097 82.41 85.6198 83.05 85.6198 83.85L85.4897 106.93C85.4897 107.75 86.0898 108.42 86.8298 108.42Z" fill="#B3AFAB"/>
<path d="M108.26 100.1L158.8 102.26L158.72 91.83L108.19 89.6L108.26 100.1Z" fill="#522CD5"/>
<path d="M115 98.73L152.24 100.47L152.18 92.79L114.95 91.02L115 98.73Z" fill="#957EE6"/>
<path d="M91.8399 94.4901C91.8499 96.2001 93.1099 97.5901 94.6399 97.5901C96.1799 97.5901 97.4099 96.2101 97.3999 94.5101C97.3899 92.8001 96.1399 91.4101 94.5999 91.4101C93.0599 91.4001 91.8299 92.7801 91.8399 94.4901Z" fill="white"/>
<path d="M131.79 94.37L117.5 93.74L117.52 96.69L131.81 97.31L131.79 94.37Z" fill="white"/>
<path d="M86.8798 138.66L171.65 140.22C172.34 140.21 172.9 139.58 172.93 138.81L172.71 116.85C172.74 116.02 172.15 115.34 171.41 115.35L86.9898 112.62C86.2698 112.63 85.6798 113.29 85.6798 114.09L85.5498 137.19C85.5498 138.02 86.1498 138.68 86.8798 138.66Z" fill="#B3AFAB"/>
<path d="M108.33 129.86L158.9 130.91L158.82 120.47L108.26 119.36L108.33 129.86Z" fill="#522CD5"/>
<path d="M115.08 128.34L152.33 129.26L152.28 121.58L115.02 120.62L115.08 128.34Z" fill="#957EE6"/>
<path d="M91.8997 124.61C91.9097 126.32 93.1696 127.68 94.6996 127.65C96.2396 127.62 97.4697 126.21 97.4597 124.5C97.4496 122.79 96.1897 121.43 94.6597 121.46C93.1197 121.49 91.8797 122.9 91.8997 124.61Z" fill="white"/>
<path d="M131.87 123.6L117.58 123.29L117.6 126.24L131.89 126.55L131.87 123.6Z" fill="white"/>
<path d="M86.8901 167.19L170.82 167.58C171.7 167.56 172.41 166.75 172.41 165.76L172.69 146.03C172.69 145.02 171.95 144.21 171.05 144.24L87.4301 143.58C86.5601 143.61 85.5501 144.46 85.5301 145.43L85.2501 165.35C85.2101 166.37 85.9601 167.21 86.8901 167.19Z" fill="#B3AFAB"/>
<path d="M107.24 159.58L158.51 160.26L158.44 150.12L107.17 149.37L107.24 159.58Z" fill="#522CD5"/>
<path d="M113.65 158.16L152.17 158.63L152.11 151.01L113.6 150.5L113.65 158.16Z" fill="#957EE6"/>
<path d="M91.7999 154.05C91.8099 155.93 93.1899 157.43 94.8899 157.39C96.5799 157.35 97.9399 155.79 97.9299 153.91C97.9199 152.03 96.5399 150.53 94.8499 150.57C93.1499 150.61 91.7899 152.17 91.7999 154.05Z" fill="white"/>
<path d="M130.58 153.18L116.28 152.95L116.3 155.91L130.6 156.13L130.58 153.18Z" fill="white"/>
<path d="M87.0001 199.07L171.07 197.93C171.84 197.86 172.44 197.14 172.44 196.27L172.64 173.75C172.65 172.83 171.98 172.09 171.17 172.12L86.8701 172.25C86.0701 172.27 85.4101 172.99 85.3901 173.89L85.4101 197.39C85.3801 198.37 86.1201 199.15 87.0001 199.07Z" fill="#B3AFAB"/>
<path d="M91.5303 183.27C91.5403 185.16 92.9203 186.65 94.6203 186.6C96.3103 186.55 97.6703 184.99 97.6603 183.11C97.6503 181.23 96.2703 179.74 94.5703 179.78C92.8803 179.82 91.5203 181.39 91.5303 183.27Z" fill="white"/>
<path d="M106.24 188.72L157.56 188.3L157.49 178.15L106.18 178.5L106.24 188.72Z" fill="#522CD5"/>
<path d="M112.66 187.27L151.21 187.03L151.15 179.4L112.61 179.6L112.66 187.27Z" fill="#957EE6"/>
<path d="M129.61 181.99L115.29 182.05L115.31 185.01L129.63 184.95L129.61 181.99Z" fill="white"/>
<path d="M86.06 229.86L171 227.33C171.69 227.28 172.26 226.63 172.28 225.85L172.06 203.84C172.09 203.01 171.49 202.35 170.75 202.4L86.16 203.74C85.43 203.79 84.85 204.48 84.84 205.28L84.71 228.46C84.72 229.28 85.32 229.91 86.06 229.86Z" fill="#B3AFAB"/>
<path d="M107.55 219.99L158.21 218.6L158.14 208.13L107.48 209.46L107.55 219.99Z" fill="#522CD5"/>
<path d="M114.31 218.14L151.64 217.26L151.58 209.56L114.26 210.4L114.31 218.14Z" fill="#957EE6"/>
<path d="M91.0801 215.52C91.0901 217.23 92.3501 218.54 93.8901 218.44C95.4301 218.34 96.6701 216.86 96.6601 215.15C96.6501 213.44 95.3901 212.13 93.8501 212.23C92.3101 212.33 91.0701 213.81 91.0801 215.52Z" fill="white"/>
<path d="M131.13 212.58L116.81 212.95L116.83 215.91L131.15 215.54L131.13 212.58Z" fill="white"/>
<path d="M409.96 231.48L174.1 243.74C170.33 243.94 167.26 241.02 167.26 237.22V58.26C167.26 54.46 170.33 51.66 174.1 52.01L409.96 73.37C412.51 73.6 414.57 76.3 414.57 79.4V225.62C414.57 228.72 412.51 231.35 409.96 231.48Z" fill="#BDD8F9"/>
<path d="M409.96 73.3699L351.44 68.0699V234.52L409.96 231.48C412.51 231.35 414.57 228.73 414.57 225.62V79.3999C414.57 76.2999 412.51 73.5999 409.96 73.3699Z" fill="#84817D"/>
<path d="M414.57 92.72V78.53C414.57 75.91 412.83 73.62 410.68 73.43L173.05 51.91C169.86 51.62 167.26 53.99 167.26 57.2V74.56L414.57 92.72Z" fill="#0064DA"/>
<path d="M378.97 83.81L233.03 72.29V64.65L378.97 77.04V83.81Z" fill="#4995EE"/>
<path d="M190.17 65.1301C190.17 67.5401 188.24 69.3501 185.86 69.1601C183.47 68.9701 181.52 66.8501 181.52 64.4201C181.52 61.9901 183.46 60.1901 185.86 60.3901C188.24 60.5901 190.17 62.7101 190.17 65.1301Z" fill="#76AFF2"/>
<path d="M206.29 66.45C206.29 68.83 204.41 70.62 202.09 70.44C199.76 70.26 197.86 68.16 197.86 65.76C197.86 63.36 199.76 61.58 202.09 61.78C204.41 61.97 206.29 64.06 206.29 66.45Z" fill="#76AFF2"/>
<path d="M222.03 67.7301C222.03 70.0801 220.2 71.8501 217.93 71.6701C215.65 71.4901 213.8 69.4201 213.8 67.0601C213.8 64.7001 215.65 62.9301 217.93 63.1201C220.19 63.3101 222.03 65.3801 222.03 67.7301Z" fill="#76AFF2"/>
<path d="M330.53 125.68L184.28 119.76V105.08L330.53 112.61V125.68Z" fill="#4995EE"/>
<path d="M208.78 87.53L183.48 85.87V93.21L208.78 94.74V87.53Z" fill="#76AFF2"/>
<path d="M243.3 89.81L219.32 88.23V95.37L243.3 96.82V89.81Z" fill="#76AFF2"/>
<path d="M276.04 91.96L253.28 90.46V97.42L276.04 98.8V91.96Z" fill="#76AFF2"/>
<path d="M307.14 94.01L285.52 92.59V99.37L307.14 100.67V94.01Z" fill="#76AFF2"/>
<path d="M282.54 191.54L187.9 192.9V133.61L282.54 136.77V191.54Z" fill="white"/>
<path d="M330.53 154.16L291.54 153.97V149.83L330.53 150.26V154.16Z" fill="#76AFF2"/>
<path d="M330.53 142.35L291.54 141.97V137.83L330.53 138.45V142.35Z" fill="#76AFF2"/>
<path d="M330.53 166.56L291.54 166.37V162.23L330.53 162.66V166.56Z" fill="#76AFF2"/>
<path d="M330.53 178.63L291.54 178.77V174.63L330.53 174.73V178.63Z" fill="#76AFF2"/>
<path d="M330.53 190.44L291.54 191.17V187.03L330.53 186.54V190.44Z" fill="#76AFF2"/>
<path d="M282.72 206.96L189.1 209.47V205.1L282.72 202.9V206.96Z" fill="#76AFF2"/>
<path d="M282.72 219.14L189.1 222.57V218.21L282.72 215.08V219.14Z" fill="#76AFF2"/>
<path d="M296.8 218.38L325.9 217.34C328.48 217.25 330.53 215.16 330.53 212.62V206.39C330.53 203.74 328.31 201.61 325.61 201.67L296.51 202.34C293.9 202.4 291.82 204.5 291.82 207.06V213.66C291.82 216.33 294.08 218.48 296.8 218.38Z" fill="#9C9894"/>
<path d="M402.07 180.55L367.19 180.51V176.73L402.07 176.88V180.55Z" fill="#76AFF2"/>
<path d="M402.07 194.89L367.19 195.42V191.64L402.07 191.22V194.89Z" fill="#76AFF2"/>
<path d="M402.07 209.22L367.19 210.33V206.55L402.07 205.56V209.22Z" fill="#76AFF2"/>
<path d="M194.31 192.8L233.87 192.24L213.61 155.68L194.31 192.8Z" fill="#CEDB59"/>
<path d="M258.84 155.68L241.28 192.13L277.64 191.61L258.84 155.68Z" fill="#CEDB59"/>
<path d="M235.7 147.79L216.69 192.48L255.2 191.93L235.7 147.79Z" fill="#4995EE"/>
<path d="M545.29 168.16L374.34 168.65C371.21 168.66 368.66 166.48 368.66 163.78V57.15C368.66 54.45 371.21 52.46 374.34 52.7L545.29 66.08C547.71 66.27 549.66 68.33 549.66 70.69V163.86C549.65 166.23 547.7 168.15 545.29 168.16Z" fill="#CEDB59"/>
<path d="M408.45 102.43C396.98 101.92 387.51 93.41 387.51 83.48C387.51 73.55 396.98 66.12 408.45 66.93C419.73 67.72 428.78 76.2 428.78 85.85C428.78 95.5 419.73 102.93 408.45 102.43ZM408.45 72.76C400.77 72.25 394.46 77.24 394.46 83.88C394.46 90.52 400.77 96.23 408.45 96.6C416.05 96.97 422.17 91.97 422.17 85.47C422.17 78.97 416.04 73.26 408.45 72.76Z" fill="white"/>
<path d="M428.44 118.81L387.75 117.45V109.56L428.44 111.14V118.81Z" fill="#A8B82F"/>
<path d="M464.82 104.94C454.26 104.47 445.55 96.3301 445.55 86.8001C445.55 77.2701 454.26 70.1301 464.82 70.8701C475.21 71.6001 483.55 79.7201 483.55 88.9801C483.55 98.2401 475.22 105.4 464.82 104.94ZM464.82 76.4701C457.75 76.0001 451.94 80.8001 451.94 87.1701C451.94 93.5401 457.75 99.0001 464.82 99.3501C471.82 99.6901 477.45 94.8801 477.45 88.6301C477.46 82.3801 471.82 76.9301 464.82 76.4701Z" fill="white"/>
<path d="M483.25 120.63L445.78 119.38V111.81L483.25 113.27V120.63Z" fill="#A8B82F"/>
<path d="M516.82 107.26C507.07 106.83 499.03 99.0201 499.03 89.8701C499.03 80.7201 507.07 73.8301 516.82 74.5101C526.42 75.1801 534.13 82.97 534.13 91.88C534.13 100.79 526.43 107.68 516.82 107.26ZM516.82 79.89C510.29 79.46 504.93 84.08 504.93 90.2C504.93 96.32 510.29 101.56 516.82 101.87C523.28 102.18 528.5 97.55 528.5 91.54C528.5 85.53 523.29 80.31 516.82 79.89Z" fill="white"/>
<path d="M533.85 122.31L499.24 121.16V113.89L533.85 115.23V122.31Z" fill="#A8B82F"/>
<path d="M388.785 129.874L388.691 133.923L533.898 137.278L533.991 133.229L388.785 129.874Z" fill="#B3AFAB"/>
<path d="M388.757 139.712L388.692 143.762L533.907 146.1L533.973 142.051L388.757 139.712Z" fill="#B3AFAB"/>
<path d="M388.752 149.565L388.715 153.615L492.395 154.562L492.432 150.512L388.752 149.565Z" fill="#B3AFAB"/>
<path d="M422.15 85.73C421.98 92.1 415.94 96.96 408.45 96.6C404.11 96.39 400.21 94.47 397.64 91.65L391.93 94.67C395.79 99.12 401.78 102.14 408.46 102.44C419.64 102.94 428.61 95.63 428.77 86.12L422.15 85.73Z" fill="#9C9894"/>
<path d="M451.96 87.43C451.96 87.34 451.94 87.26 451.94 87.17C451.94 80.98 457.43 76.29 464.24 76.46V70.86C453.95 70.42 445.55 77.46 445.55 86.81C445.55 86.9 445.56 86.99 445.57 87.07L451.96 87.43Z" fill="#9C9894"/>
<path d="M527.71 87.57C528.21 88.82 528.5 90.16 528.5 91.55C528.5 97.56 523.29 102.19 516.82 101.88C510.29 101.56 504.93 96.32 504.93 90.21C504.93 84.12 510.24 79.51 516.73 79.9V74.52C507.02 73.89 499.03 80.75 499.03 89.88C499.03 99.03 507.07 106.84 516.82 107.27C526.42 107.7 534.13 100.79 534.13 91.89C534.13 89.51 533.57 87.22 532.58 85.12L527.71 87.57Z" fill="#9C9894"/>
<path d="M532.59 85.1L527.71 87.57C528.21 88.82 528.5 90.16 528.5 91.55C528.5 97.56 523.29 102.19 516.82 101.88C515.09 101.8 513.44 101.36 511.95 100.65L509 105.18C511.37 106.38 514.02 107.13 516.82 107.25C526.42 107.68 534.13 100.77 534.13 91.87C534.13 89.49 533.57 87.2 532.59 85.1Z" fill="#A8B82F"/>
<path d="M451.95 87.17L445.56 86.8C445.56 92.52 448.73 97.75 453.55 101.11L457.74 97.07C454.25 94.83 451.95 91.17 451.95 87.17Z" fill="#A8B82F"/>
<path d="M409.5 102.43C420.18 102.44 428.6 95.32 428.77 86.11L422.16 85.73C422 91.8 416.51 96.49 409.51 96.6V102.43H409.5Z" fill="#A8B82F"/>
<path d="M572.09 244.55L434.44 253.5V186.28L572.09 184.1V244.55Z" fill="#4995EE"/>
<path d="M479.09 185.57L434.44 186.28V253.5L479.09 250.6V185.57Z" fill="#BDD8F9"/>
<path d="M487.23 222.54L492.04 222.33V210.64L487.23 210.81V222.54Z" fill="#A3C9F6"/>
<path d="M498.15 222.06L502.87 221.85V201.49L498.15 201.63V222.06Z" fill="#A3C9F6"/>
<path d="M508.88 221.59L513.53 221.38V204.45L508.88 204.59V221.59Z" fill="#A3C9F6"/>
<path d="M519.44 221.12L524.01 220.92V200.89L519.44 201.02V221.12Z" fill="#A3C9F6"/>
<path d="M529.83 220.67L534.33 220.47V189.82L529.83 189.91V220.67Z" fill="#A3C9F6"/>
<path d="M540.05 220.22L544.48 220.02V192.88L540.05 192.98V220.22Z" fill="#A3C9F6"/>
<path d="M550.11 207.14V219.77L554.47 219.58V206.99L550.11 207.14Z" fill="#A3C9F6"/>
<path d="M492.83 232.06L497.59 231.82V221.35L492.83 221.55V232.06Z" fill="#0064DA"/>
<path d="M503.65 240.22L508.34 239.95V220.88L503.65 221.08V240.22Z" fill="#0064DA"/>
<path d="M514.29 235.2L518.9 234.95V220.42L514.29 220.62V235.2Z" fill="#0064DA"/>
<path d="M524.77 238.99L529.3 238.73V219.97L524.77 220.16V238.99Z" fill="#0064DA"/>
<path d="M535.07 242.8L539.53 242.53V219.52L535.07 219.72V242.8Z" fill="#0064DA"/>
<path d="M545.21 237.8L549.6 237.55V219.08L545.21 219.27V237.8Z" fill="#0064DA"/>
<path d="M555.18 218.84V228.85L559.51 228.63V218.65L555.18 218.84Z" fill="#0064DA"/>
<path d="M561.52 219.45L483.62 222.89V221.36L561.52 218V219.45Z" fill="white"/>
<path d="M467.62 203.25L449.36 203.78V201.38L467.62 200.88V203.25Z" fill="white"/>
<path d="M463.61 209.31L449.36 209.78V207.38L463.61 206.93V209.31Z" fill="white"/>
<path d="M467.62 218.91L449.36 219.65V217.25L467.62 216.54V218.91Z" fill="white"/>
<path d="M463 225.04L449.36 225.65V223.25L463 222.66V225.04Z" fill="white"/>
<path d="M461.77 231.04L449.36 231.65V229.25L461.77 228.66V231.04Z" fill="white"/>
<path d="M445.08 203.2C445.08 204.37 444.01 205.35 442.68 205.39C441.35 205.43 440.28 204.51 440.28 203.34C440.28 202.17 441.36 201.19 442.68 201.15C444.01 201.12 445.08 202.03 445.08 203.2Z" fill="#4995EE"/>
<path d="M445.08 218.79C445.08 219.96 444.01 220.95 442.68 221C441.35 221.06 440.28 220.15 440.28 218.98C440.28 217.81 441.36 216.82 442.68 216.77C444.01 216.72 445.08 217.62 445.08 218.79Z" fill="#4995EE"/>
</svg>
