<svg width="636" height="300" viewBox="0 0 636 300" fill="none" xmlns="http://www.w3.org/2000/svg">
<path d="M84.87 168.62C84.87 167.32 86.26 167.22 86.26 167.22L86.22 162.83C86.22 162.83 84.95 162.72 84.91 161.64L85.1 141.7C85.13 140.39 86.56 140.11 86.56 140.11L86.54 135.31C86.54 135.31 85.23 135.55 85.2 133.87C85.2 133.82 85.18 133.76 85.18 133.71L85.34 116.09C85.35 114.98 85.99 113.98 86.98 113.54L86.88 108.77L85.79 106.55L86.07 88.9699L87.8 86.3999L107.18 74.4299L190.03 79.9999L190.12 217.36L106.47 221.75C106.47 221.75 87.53 218.39 86.04 218.08C84.55 217.76 84.5 216.22 84.5 216.22L84.58 196.57C84.58 196.57 84.54 195.02 86.08 194.89C86.26 193.28 86.08 190.37 86.08 190.37C85.26 190.38 84.61 189.7 84.62 188.86C84.62 188.83 84.87 169.3 84.87 168.62Z" fill="#797673"/>
<path d="M86.54 135.3L107.7 130.58L107.5 135.56C107.5 135.56 106.06 135.92 104.32 136.35C103.23 136.62 86.55 140.12 86.55 140.12L86.54 135.3Z" fill="#605D5A"/>
<path d="M86.88 108.81L107.57 99.6699L107.37 104.64L86.8 113.61L86.88 108.81Z" fill="#605D5A"/>
<path d="M86.27 167.28L86.22 162.81L107.49 159.1L107.6 164.15L86.27 167.28Z" fill="#605D5A"/>
<path d="M86.1101 194.81L86.0601 190.34L107.59 190.98L107.56 195.72L86.1101 194.81Z" fill="#605D5A"/>
<path d="M107.43 100.35L192.15 103.78C192.84 103.78 193.4 103.17 193.43 102.4L193.21 80.46C193.24 79.63 192.65 78.93 191.91 78.93L107.53 74.34C106.81 74.34 106.22 74.98 106.22 75.78L106.09 98.86C106.09 99.68 106.69 100.35 107.43 100.35Z" fill="#B3AFAB"/>
<path d="M128.86 92.03L179.4 94.19L179.32 83.76L128.79 81.53L128.86 92.03Z" fill="#522CD5"/>
<path d="M135.6 90.6499L172.84 92.3899L172.78 84.7199L135.55 82.9399L135.6 90.6499Z" fill="#957EE6"/>
<path d="M112.44 86.42C112.45 88.13 113.71 89.52 115.24 89.52C116.78 89.52 118.01 88.14 118 86.44C117.99 84.73 116.74 83.34 115.2 83.34C113.66 83.33 112.43 84.71 112.44 86.42Z" fill="white"/>
<path d="M152.39 86.2999L138.1 85.6699L138.12 88.6199L152.41 89.2399L152.39 86.2999Z" fill="white"/>
<path d="M107.48 130.59L192.25 132.15C192.94 132.14 193.5 131.51 193.53 130.74L193.31 108.78C193.34 107.95 192.75 107.27 192.01 107.28L107.59 104.55C106.87 104.56 106.28 105.22 106.28 106.02L106.15 129.12C106.15 129.95 106.75 130.6 107.48 130.59Z" fill="#B3AFAB"/>
<path d="M128.93 121.79L179.5 122.83L179.42 112.4L128.86 111.28L128.93 121.79Z" fill="#522CD5"/>
<path d="M135.67 120.26L172.93 121.18L172.88 113.5L135.62 112.55L135.67 120.26Z" fill="#957EE6"/>
<path d="M112.49 116.54C112.5 118.25 113.76 119.61 115.29 119.58C116.83 119.55 118.06 118.14 118.05 116.43C118.04 114.72 116.78 113.36 115.25 113.39C113.72 113.42 112.48 114.83 112.49 116.54Z" fill="white"/>
<path d="M152.47 115.53L138.18 115.22L138.2 118.17L152.49 118.48L152.47 115.53Z" fill="white"/>
<path d="M107.49 159.12L191.42 159.51C192.3 159.49 193.01 158.68 193.01 157.69L193.29 137.96C193.29 136.95 192.55 136.14 191.65 136.17L108.03 135.51C107.16 135.54 106.15 136.39 106.13 137.36L105.85 157.28C105.81 158.3 106.56 159.14 107.49 159.12Z" fill="#B3AFAB"/>
<path d="M127.84 151.51L179.11 152.19L179.04 142.05L127.77 141.3L127.84 151.51Z" fill="#522CD5"/>
<path d="M134.25 150.09L172.76 150.56L172.71 142.94L134.19 142.43L134.25 150.09Z" fill="#957EE6"/>
<path d="M112.4 145.98C112.41 147.86 113.79 149.36 115.49 149.32C117.18 149.28 118.54 147.72 118.53 145.84C118.52 143.96 117.14 142.46 115.45 142.5C113.75 142.54 112.39 144.09 112.4 145.98Z" fill="white"/>
<path d="M151.18 145.11L136.88 144.88L136.9 147.84L151.2 148.06L151.18 145.11Z" fill="white"/>
<path d="M107.59 191L191.66 189.86C192.43 189.79 193.03 189.07 193.03 188.2L193.23 165.68C193.24 164.76 192.57 164.02 191.76 164.05L107.46 164.18C106.66 164.2 106 164.92 105.98 165.82L106 189.32C105.98 190.3 106.72 191.08 107.59 191Z" fill="#B3AFAB"/>
<path d="M112.13 175.2C112.14 177.09 113.52 178.58 115.22 178.53C116.91 178.48 118.27 176.92 118.26 175.04C118.25 173.16 116.87 171.67 115.17 171.71C113.48 171.75 112.12 173.31 112.13 175.2Z" fill="white"/>
<path d="M126.84 180.65L178.16 180.23L178.09 170.08L126.78 170.43L126.84 180.65Z" fill="#522CD5"/>
<path d="M133.26 179.2L171.81 178.96L171.75 171.33L133.21 171.53L133.26 179.2Z" fill="#957EE6"/>
<path d="M150.21 173.92L135.89 173.98L135.91 176.94L150.23 176.87L150.21 173.92Z" fill="white"/>
<path d="M106.66 221.78L191.6 219.25C192.29 219.2 192.86 218.55 192.88 217.77L192.66 195.76C192.69 194.93 192.09 194.27 191.35 194.32L106.76 195.66C106.03 195.71 105.45 196.4 105.44 197.2L105.31 220.38C105.32 221.21 105.92 221.84 106.66 221.78Z" fill="#B3AFAB"/>
<path d="M128.15 211.92L178.81 210.53L178.73 200.06L128.08 201.39L128.15 211.92Z" fill="#522CD5"/>
<path d="M134.91 210.07L172.24 209.19L172.18 201.49L134.85 202.33L134.91 210.07Z" fill="#957EE6"/>
<path d="M111.68 207.45C111.69 209.16 112.95 210.47 114.49 210.37C116.03 210.27 117.27 208.79 117.26 207.08C117.25 205.37 115.99 204.06 114.45 204.16C112.91 204.26 111.67 205.74 111.68 207.45Z" fill="white"/>
<path d="M151.73 204.51L137.41 204.88L137.43 207.84L151.75 207.46L151.73 204.51Z" fill="white"/>
<path d="M188.12 236.93L430.81 221.05C432.27 221 433.45 219.63 433.45 217.98L433 67.8599C433 66.2499 431.86 64.8899 430.44 64.7899L188.79 45.6499C186.95 45.5199 185.43 46.9499 185.42 48.8099L184.85 233.71C184.84 235.55 186.31 236.99 188.12 236.93Z" fill="#A4ECFC"/>
<path d="M185.34 72.5L185.41 48.81C185.42 46.94 186.94 45.51 188.78 45.65L430.43 64.79C431.86 64.89 432.99 66.26 432.99 67.86L433.02 87.94L185.34 72.5Z" fill="#605D5A"/>
<path d="M245.49 67.2599L372.98 76.1199C374.98 76.2499 376.63 74.5299 376.63 72.3399C376.63 70.2199 375.1 68.4299 373.17 68.3099L245.72 58.9999C243.48 58.8499 241.63 60.6499 241.62 62.9799C241.61 65.2199 243.33 67.1199 245.49 67.2599Z" fill="#C8C6C4"/>
<path d="M222.45 61.1899C222.45 63.1399 223.97 64.7699 225.86 64.8399C227.74 64.9099 229.27 63.3899 229.28 61.4499C229.28 59.5099 227.76 57.8799 225.88 57.7999C223.99 57.7299 222.45 59.2499 222.45 61.1899Z" fill="#E86E58"/>
<path d="M210.66 60.43C210.65 62.39 212.2 64.03 214.1 64.1C216 64.17 217.55 62.64 217.55 60.7C217.55 58.75 216.02 57.11 214.12 57.03C212.21 56.95 210.66 58.47 210.66 60.43Z" fill="#FAE969"/>
<path d="M198.54 59.64C198.53 61.61 200.09 63.26 202.02 63.33C203.94 63.4 205.5 61.87 205.51 59.91C205.52 57.95 203.96 56.3 202.04 56.22C200.11 56.15 198.54 57.68 198.54 59.64Z" fill="#56A84F"/>
<path d="M427.14 79.68L417.86 78.99L417.85 70.15L427.13 70.88L427.14 79.68Z" fill="#C8C6C4"/>
<path d="M206.27 118.06L355.69 122.18L355.7 97.68L206.55 90.99L206.27 118.06Z" fill="#1DACCC"/>
<path d="M232.73 165.95L384.36 166.06L384.34 137.3L232.83 133.6L232.73 165.95Z" fill="white"/>
<path d="M451.1 253.41L292.86 264.02C287.42 264.48 282.67 259.69 282.61 253.7L282.07 195.06C282.02 189.69 285.77 185.25 290.65 184.93L449.03 181.6C454.8 181.22 459.73 186.08 459.77 192.21L460.09 243.02C460.13 248.48 456.23 252.97 451.1 253.41Z" fill="#98C2F5"/>
<path d="M326.82 250.03C313.24 250.82 302.14 239.46 302 224.7C301.86 209.93 312.74 197.12 326.33 196.15C340.02 195.17 351.32 206.54 351.45 221.49C351.58 236.43 340.49 249.24 326.82 250.03ZM326.41 204.56C317.05 205.21 309.54 214.02 309.63 224.2C309.73 234.38 317.39 242.2 326.74 241.63C336.14 241.06 343.75 232.25 343.66 221.99C343.57 211.73 335.81 203.91 326.41 204.56Z" fill="#3E8EED"/>
<path d="M309.64 223.98C309.66 213.99 316.98 205.38 326.15 204.59L325.95 196.2C312.6 197.37 301.97 209.94 302 224.48L309.64 223.98Z" fill="#D8E8FB"/>
<path d="M380.49 210.54L371.67 210.69L371.94 244.16L380.76 243.64L380.49 210.54Z" fill="#72ACF1"/>
<path d="M396.27 194.19L387.38 194.36L387.76 243.07L396.64 242.63L396.27 194.19Z" fill="#3E8EED"/>
<path d="M424.01 220.44L415.01 221.02L415.15 241.82L424.15 241.37L424.01 220.44Z" fill="#72ACF1"/>
<path d="M440.07 195.71L431 195.85L431.3 240.83L440.37 240.47L440.07 195.71Z" fill="#3E8EED"/>
<path d="M551.17 126.59L396.16 122.19L396.38 93.52L551.5 101.2L551.17 126.59Z" fill="#CEDB59"/>
<path d="M551.17 126.59L522.79 125.78L523.1 99.79L551.5 101.2L551.17 126.59Z" fill="#B3AFAB"/>
<path d="M428.61 114.45C428.56 113.87 428.04 113.41 427.4 113.39L418.41 113.14L418.47 108.32L415.49 108.21L415.43 113.06L405.75 112.79C405.1 112.77 404.55 113.2 404.49 113.76L404.08 118.2L429 118.98L428.61 114.45Z" fill="white"/>
<path d="M428.49 108.33L428.07 103.26C427.9 101.16 426 99.45 423.69 99.33L410.14 98.61C407.69 98.48 405.6 100.04 405.36 102.21L404.77 107.45C404.7 108.03 405.21 108.54 405.87 108.56L413.84 108.84C414.16 110.18 415.48 111.22 417.06 111.27C418.63 111.32 419.95 110.38 420.3 109.07L427.46 109.32C428.06 109.34 428.54 108.88 428.49 108.33Z" fill="white"/>
<path d="M421.73 103.44L412.47 103.03C411.38 102.98 410.49 103.73 410.47 104.69C410.46 105.66 411.33 106.48 412.42 106.52L421.68 106.85C422.71 106.89 423.56 106.16 423.57 105.22C423.59 104.29 422.76 103.49 421.73 103.44Z" fill="#CEDB59"/>
<path d="M534.95 120.22C534.68 120.21 534.43 120.08 534.25 119.87L529.8 114.35C529.47 113.94 529.52 113.33 529.91 113C530.31 112.67 530.9 112.73 531.23 113.15L534.95 117.77L543.15 107.62C543.47 107.22 544.05 107.18 544.44 107.53C544.83 107.87 544.89 108.48 544.57 108.87L535.69 119.89C535.52 120.11 535.25 120.23 534.98 120.23C534.96 120.22 534.96 120.22 534.95 120.22Z" fill="#797673"/>
<path d="M550.79 156.25L395.91 155.68L396.13 127.07L551.12 130.91L550.79 156.25Z" fill="#CEDB59"/>
<path d="M550.79 156.25L522.43 156.15L522.74 130.21L551.12 130.91L550.79 156.25Z" fill="#B3AFAB"/>
<path d="M534.58 150.3C534.31 150.3 534.06 150.18 533.88 149.96L529.43 144.56C529.1 144.15 529.15 143.55 529.54 143.21C529.93 142.87 530.53 142.92 530.86 143.33L534.58 147.85L542.77 137.52C543.09 137.12 543.67 137.06 544.06 137.39C544.45 137.72 544.51 138.32 544.19 138.73L535.31 149.94C535.14 150.16 534.88 150.29 534.6 150.29C534.6 150.3 534.59 150.3 534.58 150.3Z" fill="#797673"/>
<path d="M550.42 185.85L395.66 189.09L395.88 160.55L550.74 160.57L550.42 185.85Z" fill="#CEDB59"/>
<path d="M550.42 185.85L522.08 186.45L522.38 160.56L550.74 160.57L550.42 185.85Z" fill="#B3AFAB"/>
<path d="M534.22 180.31C533.95 180.31 533.7 180.2 533.52 179.99L529.08 174.72C528.75 174.32 528.8 173.72 529.19 173.37C529.58 173.02 530.17 173.06 530.51 173.45L534.22 177.87L542.4 167.37C542.72 166.96 543.3 166.89 543.69 167.21C544.08 167.53 544.14 168.13 543.82 168.54L534.95 179.95C534.78 180.17 534.52 180.31 534.24 180.32C534.23 180.31 534.22 180.31 534.22 180.31Z" fill="#797673"/>
<path d="M429.36 149.02L405.31 148.81C405.02 148.81 404.78 148.58 404.78 148.31L404.89 134.68C404.89 134.41 405.13 134.19 405.43 134.19L429.48 134.66C429.76 134.67 429.99 134.89 429.99 135.16L429.87 148.54C429.88 148.81 429.65 149.02 429.36 149.02Z" fill="white"/>
<path d="M417.52 143.25C417.35 143.25 417.18 143.2 417.03 143.11L406.36 136.7C405.92 136.43 405.78 135.88 406.06 135.47C406.34 135.06 406.93 134.94 407.37 135.21L417.53 141.33L427.38 135.59C427.81 135.34 428.38 135.47 428.65 135.88C428.92 136.29 428.79 136.83 428.36 137.08L418.03 143.11C417.87 143.21 417.7 143.25 417.52 143.25Z" fill="#CEDB59"/>
<path d="M418.92 163.78L421 169.94C421.15 170.4 421.61 170.7 422.12 170.7L428.97 170.65C430.1 170.64 430.56 172.01 429.64 172.64L424.08 176.49C423.66 176.78 423.49 177.28 423.64 177.74L425.71 183.85C426.05 184.86 424.81 185.74 423.89 185.12L418.35 181.41C417.94 181.13 417.37 181.14 416.95 181.43L411.29 185.35C410.34 186.01 409.08 185.17 409.45 184.13L411.66 177.89C411.82 177.43 411.65 176.92 411.23 176.64L405.58 172.85C404.64 172.22 405.13 170.82 406.31 170.81L413.32 170.76C413.84 170.76 414.3 170.44 414.46 169.98L416.66 163.78C417.02 162.76 418.57 162.75 418.92 163.78Z" fill="white"/>
</svg>
