<svg width="636" height="300" viewBox="0 0 636 300" fill="none" xmlns="http://www.w3.org/2000/svg">
<path d="M432.05 272.75L430.48 271.51C430.89 270.99 431.3 270.47 431.7 269.94L433.28 271.16C432.88 271.7 432.46 272.22 432.05 272.75ZM435.7 267.94L434.08 266.76C434.47 266.22 434.86 265.69 435.24 265.15L436.87 266.31C436.49 266.85 436.1 267.4 435.7 267.94ZM439.16 262.99L437.5 261.88C437.87 261.33 438.23 260.78 438.6 260.22L440.28 261.31C439.9 261.87 439.54 262.43 439.16 262.99ZM442.43 257.91L440.72 256.87C441.07 256.3 441.41 255.74 441.75 255.17L443.47 256.19C443.12 256.76 442.78 257.34 442.43 257.91ZM445.48 252.7L443.74 251.72C444.07 251.14 444.39 250.56 444.7 249.98L446.46 250.94C446.14 251.53 445.81 252.11 445.48 252.7ZM448.34 247.37L446.56 246.46C446.86 245.87 447.16 245.28 447.45 244.68L449.24 245.57C448.94 246.17 448.64 246.77 448.34 247.37ZM450.98 241.94L449.16 241.1C449.44 240.5 449.71 239.9 449.98 239.29L451.81 240.1C451.54 240.71 451.26 241.33 450.98 241.94ZM453.4 236.4L451.55 235.64C451.8 235.03 452.05 234.41 452.3 233.8L454.16 234.54C453.91 235.16 453.66 235.78 453.4 236.4ZM455.6 230.77L453.72 230.08C453.95 229.46 454.17 228.83 454.39 228.21L456.27 228.88C456.06 229.51 455.83 230.14 455.6 230.77ZM457.57 225.06L455.67 224.44C455.88 223.81 456.07 223.18 456.27 222.55L458.18 223.14C457.98 223.78 457.78 224.42 457.57 225.06ZM459.32 219.27L457.39 218.73C457.57 218.09 457.74 217.45 457.91 216.81L459.84 217.32C459.68 217.98 459.5 218.62 459.32 219.27Z" fill="#908D89"/>
<path d="M410.71 247.83L409.08 246.67C409.46 246.13 409.84 245.59 410.22 245.04L411.87 246.17C411.49 246.73 411.1 247.28 410.71 247.83ZM414.09 242.81L412.4 241.74C412.76 241.18 413.11 240.62 413.45 240.06L415.16 241.1C414.81 241.67 414.45 242.24 414.09 242.81ZM417.21 237.62L415.47 236.63C415.8 236.05 416.12 235.48 416.44 234.9L418.2 235.86C417.87 236.45 417.54 237.04 417.21 237.62ZM420.07 232.29L418.28 231.39C418.58 230.8 418.87 230.21 419.16 229.61L420.96 230.48C420.67 231.08 420.37 231.68 420.07 232.29ZM422.66 226.81L420.83 226C421.1 225.4 421.36 224.79 421.62 224.18L423.46 224.96C423.2 225.58 422.93 226.19 422.66 226.81ZM424.97 221.21L423.1 220.49C423.34 219.87 423.57 219.25 423.8 218.63L425.68 219.31C425.45 219.95 425.21 220.58 424.97 221.21ZM426.99 215.5L425.09 214.88C425.3 214.25 425.5 213.62 425.69 212.98L427.6 213.57C427.41 214.22 427.2 214.86 426.99 215.5ZM428.73 209.69L426.8 209.17C426.97 208.53 427.14 207.89 427.3 207.25L429.24 207.74C429.08 208.39 428.91 209.04 428.73 209.69ZM430.17 203.8L428.21 203.38C428.35 202.73 428.49 202.08 428.62 201.43L430.58 201.82C430.45 202.48 430.31 203.14 430.17 203.8ZM431.31 197.85L429.34 197.52C429.45 196.87 429.55 196.21 429.65 195.55L431.63 195.84C431.53 196.52 431.42 197.18 431.31 197.85ZM432.15 191.85L430.16 191.62C430.24 190.96 430.3 190.31 430.37 189.65L432.36 189.85C432.3 190.51 432.23 191.18 432.15 191.85ZM432.69 185.83L430.69 185.7C430.73 185.04 430.77 184.38 430.8 183.72L432.8 183.82C432.77 184.48 432.74 185.16 432.69 185.83ZM432.93 179.78L430.93 179.75C430.94 179.13 430.94 178.52 430.94 177.9L432.94 177.76V177.9C432.95 178.53 432.94 179.16 432.93 179.78ZM430.88 173.8C430.86 173.14 430.83 172.48 430.8 171.82L432.8 171.72C432.83 172.39 432.86 173.06 432.88 173.73L430.88 173.8ZM424.39 138.86C424.17 138.24 423.95 137.61 423.72 136.99L425.6 136.3C425.83 136.93 426.06 137.56 426.28 138.2L424.39 138.86ZM422.3 133.29C422.05 132.68 421.8 132.07 421.54 131.46L423.38 130.68C423.64 131.3 423.9 131.92 424.15 132.54L422.3 133.29ZM419.93 127.83C419.65 127.23 419.37 126.63 419.08 126.04L420.88 125.17C421.17 125.77 421.46 126.38 421.74 126.99L419.93 127.83ZM417.3 122.5C416.99 121.92 416.68 121.33 416.36 120.75L418.11 119.79C418.43 120.38 418.75 120.97 419.06 121.56L417.3 122.5ZM414.39 117.31C414.05 116.74 413.71 116.18 413.36 115.61L415.06 114.56C415.41 115.13 415.76 115.71 416.1 116.29L414.39 117.31Z" fill="#908D89"/>
<path d="M141.52 158.95L139.53 158.73C139.6 158.06 139.68 157.38 139.76 156.71L141.74 156.95C141.67 157.62 141.59 158.29 141.52 158.95ZM142.28 152.98L140.3 152.69C140.4 152.02 140.5 151.35 140.6 150.68L142.57 150.99C142.48 151.65 142.38 152.32 142.28 152.98ZM143.26 147.04L141.29 146.68C141.41 146.01 141.54 145.35 141.67 144.68L143.63 145.06C143.5 145.72 143.37 146.38 143.26 147.04ZM144.44 141.14L142.49 140.71C142.63 140.05 142.78 139.39 142.94 138.73L144.89 139.18C144.73 139.83 144.58 140.48 144.44 141.14ZM145.83 135.28L143.89 134.78C144.06 134.12 144.23 133.47 144.4 132.82L146.33 133.34C146.16 133.99 145.99 134.63 145.83 135.28ZM149.21 123.74L147.31 123.11C147.52 122.47 147.74 121.83 147.96 121.19L149.85 121.84C149.64 122.47 149.43 123.11 149.21 123.74ZM151.22 118.07L149.34 117.37C149.58 116.74 149.82 116.1 150.06 115.47L151.93 116.19C151.69 116.82 151.45 117.44 151.22 118.07ZM153.41 112.47L151.56 111.71C151.82 111.09 152.08 110.46 152.35 109.84L154.19 110.63C153.93 111.24 153.67 111.86 153.41 112.47ZM155.81 106.96L153.99 106.13C154.27 105.51 154.55 104.9 154.84 104.29L156.65 105.14C156.36 105.75 156.08 106.35 155.81 106.96ZM158.39 101.53L156.6 100.64C156.9 100.04 157.21 99.43 157.51 98.83L159.29 99.74C158.99 100.34 158.69 100.93 158.39 101.53ZM161.17 96.2L159.41 95.25C159.73 94.66 160.06 94.06 160.39 93.47L162.14 94.44C161.81 95.03 161.49 95.61 161.17 96.2ZM164.13 90.97L162.41 89.96C162.75 89.38 163.1 88.8 163.45 88.22L165.16 89.26C164.81 89.82 164.47 90.39 164.13 90.97ZM167.27 85.85L165.58 84.77C165.94 84.2 166.31 83.63 166.68 83.07L168.35 84.17C167.99 84.72 167.63 85.29 167.27 85.85ZM170.59 80.84L168.94 79.71C169.32 79.15 169.71 78.6 170.1 78.05L171.73 79.2C171.35 79.74 170.97 80.29 170.59 80.84ZM174.08 75.95L172.47 74.76C172.87 74.22 173.28 73.68 173.68 73.14L175.27 74.35C174.88 74.88 174.48 75.41 174.08 75.95ZM177.74 71.19L176.18 69.94C176.6 69.41 177.02 68.89 177.45 68.36L179 69.62C178.57 70.14 178.16 70.66 177.74 71.19ZM181.56 66.55L180.04 65.25C180.48 64.74 180.92 64.23 181.36 63.72L182.87 65.04C182.43 65.54 182 66.04 181.56 66.55ZM185.54 62.06L184.07 60.71C184.53 60.21 184.99 59.72 185.45 59.22L186.91 60.59C186.45 61.07 186 61.56 185.54 62.06Z" fill="#908D89"/>
<path d="M189.71 216.29C189.51 215.66 189.32 215.02 189.13 214.38L191.05 213.81C191.23 214.44 191.43 215.06 191.62 215.68L189.71 216.29ZM188.05 210.55C187.88 209.91 187.72 209.27 187.56 208.62L189.5 208.14C189.66 208.78 189.82 209.41 189.98 210.04L188.05 210.55ZM186.67 204.74C186.53 204.09 186.4 203.44 186.27 202.79L188.23 202.4C188.36 203.04 188.49 203.68 188.62 204.32L186.67 204.74ZM185.56 198.87C185.45 198.22 185.35 197.56 185.25 196.91L187.23 196.61C187.33 197.26 187.43 197.9 187.53 198.55L185.56 198.87ZM184.73 192.95C184.65 192.29 184.58 191.63 184.51 190.97L186.5 190.76C186.57 191.41 186.64 192.06 186.71 192.71L184.73 192.95ZM184.17 187C184.12 186.34 184.08 185.68 184.05 185.01L186.05 184.9C186.09 185.55 186.13 186.21 186.17 186.86L184.17 187ZM183.89 181.03C183.87 180.37 183.86 179.7 183.86 179.04L185.86 179.02C185.87 179.68 185.88 180.33 185.89 180.98L183.89 181.03ZM185.89 175.1L183.89 175.06C183.9 174.4 183.92 173.73 183.95 173.07L185.95 173.14C185.92 173.79 185.9 174.45 185.89 175.1ZM186.15 169.23L184.15 169.09C184.2 168.43 184.25 167.76 184.3 167.1L186.29 167.27C186.24 167.92 186.19 168.57 186.15 169.23ZM186.68 163.37L184.69 163.14C184.77 162.48 184.85 161.82 184.93 161.16L186.91 161.42C186.84 162.07 186.76 162.72 186.68 163.37ZM187.49 157.54L185.52 157.22C185.63 156.56 185.74 155.91 185.85 155.25L187.82 155.6C187.71 156.25 187.6 156.89 187.49 157.54ZM188.57 151.76L186.61 151.35C186.75 150.7 186.89 150.05 187.04 149.4L188.99 149.85C188.84 150.48 188.7 151.12 188.57 151.76ZM189.92 146.03L187.98 145.53C188.15 144.89 188.32 144.24 188.5 143.6L190.43 144.14C190.25 144.77 190.08 145.4 189.92 146.03ZM191.53 140.37L189.62 139.77C189.82 139.13 190.02 138.5 190.23 137.87L192.13 138.49C191.93 139.12 191.73 139.75 191.53 140.37ZM193.42 134.78L191.54 134.1C191.77 133.47 192 132.85 192.24 132.23L194.11 132.94C193.88 133.55 193.65 134.16 193.42 134.78ZM195.57 129.29L193.72 128.52C193.98 127.9 194.24 127.29 194.51 126.68L196.34 127.48C196.08 128.08 195.82 128.68 195.57 129.29ZM197.97 123.9L196.16 123.04C196.45 122.44 196.74 121.84 197.03 121.24L198.82 122.13C198.54 122.72 198.25 123.31 197.97 123.9ZM200.63 118.63L198.86 117.69C199.17 117.1 199.49 116.52 199.82 115.93L201.57 116.9C201.25 117.48 200.93 118.06 200.63 118.63ZM206.65 108.51L204.98 107.41C205.35 106.86 205.72 106.3 206.09 105.75L207.74 106.88C207.38 107.42 207.01 107.96 206.65 108.51ZM210.01 103.67L208.39 102.49C208.78 101.95 209.18 101.42 209.58 100.89L211.18 102.1C210.79 102.62 210.4 103.15 210.01 103.67ZM213.59 99L212.03 97.75C212.45 97.23 212.87 96.72 213.29 96.21L214.83 97.49C214.41 97.98 214 98.49 213.59 99ZM217.38 94.5L215.88 93.18C216.32 92.68 216.76 92.19 217.21 91.7L218.69 93.05C218.25 93.5201 217.82 94.01 217.38 94.5ZM221.38 90.18L219.94 88.79C220.4 88.31 220.87 87.84 221.34 87.37L222.75 88.78C222.29 89.24 221.83 89.71 221.38 90.18ZM225.57 86.05L224.2 84.59C224.68 84.14 225.17 83.68 225.66 83.24L227.01 84.72C226.52 85.16 226.04 85.6 225.57 86.05ZM229.95 82.12L228.65 80.6C229.15 80.17 229.66 79.74 230.17 79.31L231.45 80.85C230.94 81.27 230.44 81.69 229.95 82.12ZM234.5 78.4L233.27 76.82C233.79 76.41 234.32 76.01 234.85 75.61L236.06 77.21C235.53 77.6 235.01 78 234.5 78.4ZM239.21 74.9L238.06 73.27C238.6 72.89 239.14 72.51 239.69 72.13L240.82 73.78C240.28 74.15 239.75 74.52 239.21 74.9ZM287.45 54.2L287.06 52.24C287.71 52.11 288.36 51.99 289.02 51.87L289.38 53.84C288.74 53.95 288.09 54.07 287.45 54.2ZM293.25 53.2L292.96 51.22C293.62 51.12 294.27 51.03 294.93 50.94L295.19 52.92C294.54 53.01 293.9 53.1 293.25 53.2ZM299.09 52.47L298.89 50.48C299.55 50.41 300.21 50.35 300.87 50.29L301.04 52.28C300.39 52.34 299.74 52.4 299.09 52.47ZM304.95 52.01L304.84 50.01C305.5 49.97 306.16 49.94 306.83 49.92L306.91 51.92C306.26 51.94 305.61 51.98 304.95 52.01Z" fill="#908D89"/>
<path d="M184.99 103L183.27 101.98L183.79 101.12L185.5 102.15L184.99 103Z" fill="#908D89"/>
<path d="M187.58 98.79L185.89 97.71C186.25 97.15 186.61 96.59 186.98 96.03L188.65 97.13C188.29 97.68 187.93 98.24 187.58 98.79ZM194.34 89.07L192.74 87.86C193.14 87.33 193.55 86.8 193.96 86.27L195.54 87.5C195.13 88.02 194.73 88.54 194.34 89.07ZM198 84.42L196.45 83.15C196.87 82.64 197.3 82.12 197.73 81.61L199.26 82.9C198.84 83.41 198.42 83.91 198 84.42ZM201.85 79.92L200.36 78.59C200.8 78.09 201.25 77.6 201.7 77.11L203.18 78.46C202.73 78.94 202.29 79.43 201.85 79.92ZM205.87 75.58L204.43 74.19C204.89 73.71 205.36 73.23 205.83 72.76L207.25 74.17C206.79 74.64 206.33 75.11 205.87 75.58ZM210.07 71.41L208.69 69.96C209.17 69.5 209.66 69.04 210.14 68.59L211.51 70.05C211.02 70.5 210.54 70.95 210.07 71.41ZM214.42 67.4L213.1 65.9C213.6 65.46 214.1 65.02 214.61 64.59L215.91 66.11C215.41 66.54 214.92 66.97 214.42 67.4ZM218.93 63.58L217.67 62.03C218.19 61.61 218.71 61.19 219.23 60.78L220.47 62.35C219.96 62.75 219.44 63.16 218.93 63.58ZM401.75 61.05C401.23 60.65 400.7 60.25 400.18 59.86L401.38 58.26C401.91 58.66 402.45 59.06 402.97 59.47L401.75 61.05ZM223.59 59.94L222.39 58.34C222.92 57.94 223.46 57.55 223.99 57.15L225.17 58.77C224.65 59.15 224.12 59.54 223.59 59.94ZM396.99 57.53C396.45 57.15 395.91 56.77 395.37 56.4L396.5 54.75C397.05 55.13 397.6 55.51 398.14 55.89L396.99 57.53ZM228.39 56.48L227.26 54.83C227.81 54.45 228.36 54.08 228.91 53.71L230.02 55.37C229.48 55.74 228.93 56.11 228.39 56.48ZM392.09 54.21C391.54 53.85 390.98 53.5 390.43 53.15L391.5 51.46C392.06 51.82 392.63 52.17 393.18 52.54L392.09 54.21ZM233.33 53.22L232.26 51.53C232.82 51.17 233.39 50.82 233.96 50.47L235 52.18C234.44 52.52 233.88 52.87 233.33 53.22ZM387.06 51.09C386.49 50.75 385.93 50.42 385.36 50.09L386.36 48.36C386.94 48.69 387.51 49.03 388.09 49.37L387.06 51.09ZM238.39 50.17L237.39 48.44C237.97 48.11 238.54 47.78 239.12 47.45L240.1 49.19C239.53 49.51 238.96 49.84 238.39 50.17ZM381.91 48.17C381.33 47.86 380.75 47.55 380.17 47.24L381.1 45.47C381.69 45.78 382.28 46.09 382.87 46.41L381.91 48.17ZM243.57 47.32L242.64 45.55C243.23 45.24 243.82 44.94 244.41 44.63L245.32 46.41C244.73 46.71 244.15 47.01 243.57 47.32ZM248.85 44.68L248 42.87C248.6 42.58 249.2 42.3 249.81 42.03L250.64 43.85C250.04 44.12 249.44 44.4 248.85 44.68ZM254.24 42.25L253.46 40.41C254.07 40.15 254.68 39.89 255.3 39.64L256.06 41.49C255.45 41.74 254.84 42 254.24 42.25ZM259.72 40.05L259.01 38.18C259.63 37.95 260.25 37.71 260.88 37.49L261.57 39.37C260.95 39.59 260.33 39.82 259.72 40.05ZM265.28 38.07L264.65 36.17C265.28 35.96 265.91 35.75 266.55 35.55L267.16 37.46C266.53 37.66 265.9 37.86 265.28 38.07ZM270.92 36.32L270.36 34.4C271 34.22 271.64 34.04 272.28 33.86L272.81 35.79C272.18 35.96 271.55 36.13 270.92 36.32ZM276.62 34.79L276.14 32.85C276.78 32.69 277.43 32.54 278.08 32.39L278.53 34.34C277.89 34.48 277.25 34.63 276.62 34.79ZM282.37 33.5L281.97 31.54C282.62 31.41 283.28 31.28 283.93 31.15L284.3 33.11C283.66 33.24 283.01 33.37 282.37 33.5ZM288.19 32.43L287.87 30.46C288.53 30.35 289.18 30.25 289.84 30.15L290.13 32.13C289.49 32.23 288.84 32.33 288.19 32.43ZM331.47 31.81C330.82 31.72 330.16 31.64 329.51 31.56L329.74 29.57C330.41 29.65 331.07 29.73 331.73 29.82L331.47 31.81ZM294.05 31.61L293.81 29.62C294.47 29.54 295.13 29.46 295.8 29.39L296.01 31.38C295.36 31.45 294.7 31.53 294.05 31.61ZM325.58 31.15C324.92 31.09 324.27 31.03 323.61 30.98L323.77 28.99C324.44 29.04 325.1 29.1 325.77 29.16L325.58 31.15ZM299.94 31.01L299.78 29.02C300.44 28.97 301.11 28.92 301.77 28.87L301.9 30.87C301.25 30.91 300.59 30.96 299.94 31.01ZM319.67 30.73C319.01 30.7 318.35 30.67 317.69 30.64L317.77 28.64C318.44 28.67 319.1 28.7 319.77 28.73L319.67 30.73ZM305.85 30.65L305.77 28.65C306.43 28.62 307.1 28.6 307.76 28.58L307.82 30.58C307.16 30.6 306.5 30.63 305.85 30.65ZM313.74 30.54C313.14 30.53 312.54 30.53 311.94 30.53L311.76 28.53H311.94C312.55 28.53 313.16 28.53 313.76 28.54L313.74 30.54Z" fill="#908D89"/>
<path d="M188.37 142.29H160.89C152.85 142.29 146.34 135.78 146.34 127.74V107.7C146.34 99.66 152.85 93.15 160.89 93.15H188.37C196.41 93.15 202.92 99.66 202.92 107.7V127.74C202.92 135.78 196.41 142.29 188.37 142.29Z" fill="#BDD8F9"/>
<path d="M196.8 129.72H217.74L198.52 118.71L196.8 129.72Z" fill="#BDD8F9"/>
<path d="M311.94 274.14C365.086 274.14 408.17 231.056 408.17 177.91C408.17 124.764 365.086 81.6799 311.94 81.6799C258.794 81.6799 215.71 124.764 215.71 177.91C215.71 231.056 258.794 274.14 311.94 274.14Z" fill="#60A2F0"/>
<path d="M289.9 84.23C272.96 88.22 258.15 96.47 246.29 107.56C248.9 110.74 253.72 111.91 256.57 110.08C260.88 107.31 269.97 97.59 282.16 98.52C294.34 99.45 308.33 89.44 314.72 90.57C320.4 91.57 330.01 90.71 340.21 85.94C324.41 81.06 307.16 80.17 289.9 84.23Z" fill="#98C2F5"/>
<path d="M269.24 105.64C278.63 102.36 283.26 103.22 279.11 109.15C274.96 115.09 270.52 117.3 265.24 120.88C259.95 124.46 262.26 116.91 263.89 113.9C265.52 110.89 264.12 107.43 269.24 105.64Z" fill="#98C2F5"/>
<path d="M260.88 256.15C268.96 259.5 268.12 255.91 265.79 254.7C263.46 253.5 256.03 247.95 255.87 244.78C255.71 241.61 252.32 232.19 255.41 227.96C258.5 223.73 253.78 216.09 256 210.6C258.21 205.12 258.47 201.26 252.75 201.73C247.02 202.2 241.62 199.09 244.62 196.93C247.61 194.77 247.61 194.77 245.22 193.29C242.83 191.81 227.54 181.4 225.02 184.33C222.5 187.26 221.25 183.17 221.31 178.49C221.37 173.81 217.38 173.46 216.33 168.17C216.3 168 216.28 167.86 216.25 167.7C215.79 172 215.6 176.35 215.74 180.75C217.17 181.53 218.45 182.48 218.69 183.49C219.28 185.98 220.97 188.21 222.55 188.71C223.93 189.15 220.46 195.39 218.57 201.08C219.22 203.71 219.97 206.29 220.82 208.82C223.97 210.94 228.4 212.79 228.42 217.39C228.45 224.97 238.05 228.55 243.4 240.13C248.74 251.71 252.79 252.8 260.88 256.15Z" fill="#98C2F5"/>
<path d="M223.08 159.51C223.87 161.15 224.84 167.45 227.03 163.14C229.23 158.83 233.65 147.87 240.32 143.96C246.99 140.06 241.52 136.67 247.05 135.37C252.58 134.07 252.16 134.75 253.74 130.3C255.32 125.84 251.56 123.52 248.29 125.75C245.02 127.98 240.27 127.64 242.79 124.71C245.31 121.78 256.02 118.56 258.83 115.98C262.67 112.45 253.15 112.94 250.92 114.63C248.69 116.32 245 114.27 244.23 109.78C244.22 109.7 244.2 109.63 244.19 109.56C230.87 122.79 221.61 139.73 217.73 158.24C219.46 156.54 221.91 157.08 223.08 159.51Z" fill="#98C2F5"/>
<path d="M385.3 148.67C385.43 144.26 378.24 140.99 378.21 138.37C378.18 135.75 384.18 135.21 382.05 129.88C379.92 124.54 372.6 120.72 372.63 118.38C372.66 116.04 368.17 116.8 367.52 114.04C366.87 111.27 374.37 117.1 378 118.87C381.63 120.64 384.96 118.69 379.2 111.58C373.44 104.47 366.03 102.71 361.36 101.48C356.69 100.24 355 98.02 362.11 97.22C362.76 97.15 363.32 97.03 363.84 96.9C359.52 94.14 355 91.69 350.29 89.64C343.66 94.24 334.96 97.78 326.96 97.9C317.66 98.05 314.39 105.24 308.58 106.6C302.77 107.97 303.98 110.6 299.1 109.71C294.22 108.82 288.77 114.18 285.27 117.92C281.77 121.66 287.74 123.47 291.61 122.56C295.48 121.65 293.32 123.62 289.51 124.8C285.7 125.99 284.04 131.34 282.99 128.09C281.93 124.84 276.08 129.72 278.68 130.86C281.28 132 280.99 133.23 279.74 134.11C278.49 134.99 282.59 137.53 278.72 138.44C274.85 139.35 274.75 141.42 275.01 142.52C275.27 143.62 274.05 147.12 276.38 148.33C276.77 148.53 277.2 148.55 277.64 148.46C276.57 149.28 275.68 150.22 275.03 151.27C272.49 155.37 268.44 164.2 267.3 166.8C266.16 169.4 267.69 168.46 267.53 175.21C267.37 181.96 271.92 191.39 279.27 187.91C286.62 184.43 295.8 183.73 294.35 188.74C292.9 193.75 303.77 200.24 301.43 205.17C299.09 210.1 308.94 219.74 310.8 225.14C312.65 230.54 312 232.74 319.36 229.26C326.71 225.78 325.53 221.97 326.06 218.05C326.6 214.13 327.77 214.15 327.88 210.91C327.99 207.67 333.65 206.92 331.41 194.9C329.17 182.88 335.28 179.11 337.12 170.79C338.96 162.47 334.45 164.41 332.09 165.55C329.73 166.69 326.49 166.57 333.33 160.88C340.16 155.19 339.76 149.74 338.13 147.79C336.5 145.84 332.92 150.47 329.66 147.74C326.39 145.01 326.21 143.01 330.26 144.1C334.31 145.19 336.65 145.22 344.72 144.78C352.79 144.34 348.12 148.07 352.49 150.54C356.87 153.01 360.88 161.41 362.31 162.53C363.74 163.65 363.87 154.28 363.22 151.52C362.57 148.75 366.7 143.99 365.92 140.67C365.14 137.35 371.4 142.88 371.71 145.44C372.02 147.99 374.67 145.62 376.69 149.23C378.69 152.85 385.17 153.07 385.3 148.67ZM310.85 146.05C304.98 147.14 302.42 147.45 300.23 146.8C298.03 146.15 299.63 150.44 295.85 149.29C292.08 148.13 296.14 143.09 289.93 143.97C286.48 144.46 283.06 145.39 280.25 146.82C281.55 145.53 282.59 143.81 282.73 142.81C283.39 138 288.06 134.77 290.79 136.46C293.52 138.15 295.62 140.87 294.43 142.02C293.24 143.17 296.98 141.71 297.15 139.92C297.31 138.13 295.34 135.97 295.02 134.58C294.7 133.2 298.09 136.48 299.57 139.05C301.05 141.62 300.95 138.72 302.9 137.1C304.85 135.47 304.82 137.82 305.49 139.41C306.16 141 310.22 140.92 311.96 139.64C313.71 138.37 316.72 144.96 310.85 146.05Z" fill="#98C2F5"/>
<path d="M389.75 194.89C390.68 202.55 391 208.9 395.05 205.02C399.1 201.15 401.46 200.01 400.71 204.27C400.35 206.31 401.31 208.24 402.81 209.5C407.97 194.72 409.57 178.54 406.85 162.19C403.16 166.16 398.04 172.25 396.61 176.92C394.31 184.48 388.83 187.23 389.75 194.89Z" fill="#98C2F5"/>
<path d="M388.78 151.06C387.69 155.01 385.87 157.29 380.6 154.74C375.33 152.19 377.54 156.63 382.45 160.14C387.36 163.65 382.14 162.55 379.39 162.03C376.64 161.51 375.93 163.43 384.14 167.33C392.35 171.23 394.84 170.65 392 167.23C389.15 163.81 387.84 159.45 392.55 162.14C397.26 164.83 401.68 164.95 402.55 161.25C403.43 157.54 401.67 155.04 397.8 155.95C393.93 156.86 398.26 152.92 395.43 153.3C392.6 153.67 391.44 152.49 391.9 149.46C392.36 146.42 389.72 147.62 388.78 151.06Z" fill="#98C2F5"/>
<path d="M339.33 198.88C338.96 202.96 334.55 205.84 336.11 212.48C337.67 219.12 341.38 210.07 342.97 204.44C344.57 198.81 339.74 194.4 339.33 198.88Z" fill="#98C2F5"/>
<path d="M237.56 134.89C237.57 134.87 237.57 134.84 237.58 134.82C237.85 133.98 237.99 133.09 237.99 132.17C237.99 127.33 234.07 123.4 229.22 123.4C224.38 123.4 220.45 127.32 220.45 132.17C220.45 133.17 220.63 134.13 220.93 135.02C220.95 135.08 220.96 135.13 220.98 135.19C222.51 139.56 229.13 150.69 229.17 150.75V150.76V150.75C229.21 150.69 235.31 140.44 237.26 135.64C237.32 135.51 237.37 135.37 237.42 135.23C237.47 135.13 237.53 135 237.56 134.89Z" fill="#1572E0"/>
<path d="M229.23 135.72C231.191 135.72 232.78 134.131 232.78 132.17C232.78 130.209 231.191 128.62 229.23 128.62C227.269 128.62 225.68 130.209 225.68 132.17C225.68 134.131 227.269 135.72 229.23 135.72Z" fill="white"/>
<path d="M162.67 105.8V129.63C162.67 130.68 168.03 131.52 174.63 131.52C181.23 131.52 186.59 130.67 186.59 129.63V105.8H162.67Z" fill="#908D89"/>
<path d="M174.61 103.92C168.02 103.92 162.67 104.77 162.67 105.81C162.67 106.85 168.01 107.7 174.61 107.7C181.2 107.7 186.55 106.85 186.55 105.81C186.55 104.77 181.21 103.92 174.61 103.92Z" fill="white"/>
<path d="M162.67 118.86C164.87 119.89 170.41 120.26 174.62 120.26C178.85 120.26 184.4 119.89 186.59 118.85V117.1L186.31 117.11L186.16 117.23C185.47 117.78 181.32 118.6 174.62 118.6C167.97 118.6 163.81 117.78 163.09 117.23L162.86 117.09H162.67V118.86Z" fill="#B3AFAB"/>
<path d="M162.67 112.97C164.87 114 170.41 114.37 174.63 114.37C178.86 114.37 184.4 114 186.59 112.96V111.21L186.31 111.22L186.16 111.34C185.47 111.89 181.32 112.71 174.62 112.71C167.97 112.71 163.81 111.89 163.09 111.34L162.86 111.2H162.67V112.97Z" fill="#B3AFAB"/>
<path d="M162.67 124.76C164.87 125.79 170.41 126.16 174.63 126.16C178.86 126.16 184.4 125.79 186.59 124.75V122.98L186.31 123L186.15 123.13C185.46 123.68 181.31 124.5 174.61 124.5C167.96 124.5 163.8 123.68 163.08 123.13L162.85 122.99H162.66V124.76H162.67Z" fill="#B3AFAB"/>
<path d="M258.01 45.97C257.16 46.27 256.33 46.62 255.51 47.05C254.39 47.63 253.35 48.3 252.39 49.05L254.12 53.04C253.16 53.9 252.33 54.87 251.63 55.91L247.05 55.42C246.02 57.37 245.32 59.48 245 61.65L249.06 63.47C248.97 64.91 249.1 66.38 249.45 67.81C248.46 68.51 246.8 69.63 245.73 70.34C246 71.16 246.33 71.97 246.72 72.77C247.26 73.86 247.9 74.88 248.62 75.81L252.77 74.07C253.67 75.06 254.7 75.91 255.82 76.6L255.09 81.08C257.05 82.03 259.17 82.64 261.35 82.87L263.48 78.74C264.71 78.74 265.95 78.59 267.18 78.27L269.64 81.92C270.53 81.61 271.41 81.24 272.27 80.8C273.45 80.19 274.54 79.48 275.54 78.69L273.76 74.72C274.74 73.82 275.6 72.81 276.3 71.72L280.7 72.48C281.79 70.42 282.52 68.19 282.83 65.9C281.55 65.42 279.74 64.75 278.73 64.35C278.81 63.03 278.71 61.71 278.43 60.4L282.21 57.97C281.91 56.99 281.54 56.02 281.07 55.08C280.49 53.92 279.81 52.84 279.04 51.86L275.06 53.82C274.11 52.77 273.02 51.88 271.84 51.17L272.81 46.82C270.92 45.89 268.88 45.27 266.78 45.01L265 49.12C263.51 49.05 261.99 49.21 260.5 49.61L258.01 45.97ZM271.45 60.03C273.49 64.14 271.75 69.21 267.58 71.37C263.4 73.52 258.36 71.94 256.32 67.83C254.28 63.72 256.02 58.65 260.19 56.49C264.37 54.33 269.41 55.92 271.45 60.03Z" fill="#B3AFAB"/>
<path d="M355.42 63.2C368.211 63.2 378.58 52.8309 378.58 40.04C378.58 27.2491 368.211 16.88 355.42 16.88C342.629 16.88 332.26 27.2491 332.26 40.04C332.26 52.8309 342.629 63.2 355.42 63.2Z" fill="#1DACCC"/>
<path d="M355.42 40.8L372.14 56.04C376.12 51.88 378.59 46.25 378.59 40.03C378.59 27.24 368.22 16.87 355.43 16.87V40.8H355.42Z" fill="#70D6E0"/>
<path d="M355.42 40.8L372.14 56.0401C375.96 52.0501 378.35 46.71 378.55 40.8H355.42Z" fill="#0B7891"/>
<path d="M110.37 176.39C110.37 175.81 111 175.78 111 175.78L110.97 173.83C110.97 173.83 110.39 173.77 110.37 173.3L110.39 164.45C110.4 163.87 111.05 163.75 111.05 163.75L120.93 161.78L159.28 163.23L159.48 198.86L120.45 200.1C120.45 200.1 111.72 198.45 111.04 198.3C110.35 198.15 110.33 197.46 110.33 197.46L110.3 188.76C110.3 188.76 110.27 188.07 110.99 188.02C111.07 187.31 110.97 186.02 110.97 186.02C110.6 186.02 110.29 185.71 110.3 185.34C110.31 185.35 110.37 176.69 110.37 176.39Z" fill="#797673"/>
<path d="M111.01 175.8L110.97 173.82L120.76 172.28L120.82 174.52L111.01 175.8Z" fill="#605D5A"/>
<path d="M111.01 188.01L110.98 186.03L120.9 186.46V188.56L111.01 188.01Z" fill="#605D5A"/>
<path d="M120.76 172.29L159.98 172.88C160.39 172.87 160.73 172.51 160.73 172.07L160.82 163.19C160.82 162.73 160.47 162.37 160.04 162.38L120.94 161.78C120.54 161.79 120.08 162.17 120.06 162.6L119.99 171.46C119.98 171.91 120.33 172.29 120.76 172.29Z" fill="#B3AFAB"/>
<path d="M130.17 168.99L154.16 169.53L154.1 164.97L130.11 164.44L130.17 168.99Z" fill="#0B7891"/>
<path d="M124.426 167.959C125.21 167.948 125.837 167.26 125.826 166.42C125.815 165.581 125.171 164.909 124.387 164.919C123.602 164.929 122.976 165.618 122.987 166.457C122.997 167.296 123.642 167.969 124.426 167.959Z" fill="white"/>
<path d="M141.03 166.23L134.35 166.07L134.37 167.39L141.05 167.55L141.03 166.23Z" fill="#70D6E0"/>
<path d="M120.9 186.47L160.17 186.54C160.53 186.51 160.81 186.19 160.81 185.81L160.85 175.68C160.85 175.27 160.54 174.93 160.15 174.94L120.76 174.55C120.39 174.55 120.09 174.87 120.08 175.27L120.16 185.72C120.15 186.14 120.49 186.49 120.9 186.47Z" fill="#B3AFAB"/>
<path d="M124.386 180.969C125.17 180.958 125.797 180.27 125.786 179.43C125.775 178.591 125.131 177.919 124.346 177.929C123.562 177.939 122.935 178.628 122.946 179.467C122.957 180.307 123.602 180.979 124.386 180.969Z" fill="white"/>
<path d="M129.79 181.98L153.78 182.12L153.72 177.56L129.73 177.43L129.79 181.98Z" fill="#0B7891"/>
<path d="M140.65 179.12L133.97 179.06L133.99 180.38L140.67 180.44L140.65 179.12Z" fill="#70D6E0"/>
<path d="M120.56 200.14L160.2 199.74C160.53 199.72 160.79 199.44 160.8 199.09L160.65 189.2C160.66 188.83 160.38 188.53 160.03 188.54H120.53C120.19 188.56 119.93 188.86 119.93 189.22L119.94 199.51C119.94 199.87 120.22 200.15 120.56 200.14Z" fill="#B3AFAB"/>
<path d="M130.48 195.93L154.15 195.71L154.09 191.02L130.42 191.24L130.48 195.93Z" fill="#0B7891"/>
<path d="M125.391 194.019C125.552 193.268 125.118 192.539 124.421 192.39C123.725 192.24 123.029 192.728 122.869 193.479C122.708 194.229 123.142 194.959 123.839 195.108C124.535 195.257 125.23 194.77 125.391 194.019Z" fill="white"/>
<path d="M141.44 192.81L134.76 192.86L134.78 194.18L141.46 194.13L141.44 192.81Z" fill="#70D6E0"/>
<path d="M256.05 112.9C256.06 112.88 256.06 112.85 256.07 112.83C256.34 111.99 256.48 111.1 256.48 110.18C256.48 105.34 252.56 101.41 247.71 101.41C242.87 101.41 238.94 105.33 238.94 110.18C238.94 111.18 239.12 112.14 239.42 113.03C239.44 113.09 239.45 113.14 239.47 113.2C241 117.57 247.62 128.7 247.66 128.76V128.77V128.76C247.7 128.7 253.8 118.45 255.75 113.65C255.81 113.52 255.86 113.38 255.91 113.24C255.95 113.14 256.01 113.01 256.05 112.9Z" fill="#1572E0"/>
<path d="M247.71 113.73C249.671 113.73 251.26 112.141 251.26 110.18C251.26 108.219 249.671 106.63 247.71 106.63C245.749 106.63 244.16 108.219 244.16 110.18C244.16 112.141 245.749 113.73 247.71 113.73Z" fill="white"/>
<path d="M298.84 117.51C298.85 117.49 298.85 117.46 298.86 117.44C299.13 116.6 299.27 115.71 299.27 114.79C299.27 109.95 295.35 106.02 290.5 106.02C285.65 106.02 281.73 109.94 281.73 114.79C281.73 115.79 281.91 116.75 282.21 117.64C282.23 117.7 282.24 117.75 282.26 117.81C283.79 122.18 290.41 133.31 290.45 133.37V133.38V133.37C290.49 133.31 296.59 123.06 298.54 118.26C298.6 118.13 298.65 117.99 298.7 117.85C298.75 117.75 298.8 117.62 298.84 117.51Z" fill="#1572E0"/>
<path d="M290.5 118.34C292.461 118.34 294.05 116.751 294.05 114.79C294.05 112.829 292.461 111.24 290.5 111.24C288.539 111.24 286.95 112.829 286.95 114.79C286.95 116.751 288.539 118.34 290.5 118.34Z" fill="white"/>
<path d="M401.58 148.02C401.59 148 401.59 147.97 401.6 147.95C401.87 147.11 402.01 146.22 402.01 145.3C402.01 140.46 398.09 136.53 393.24 136.53C388.39 136.53 384.47 140.45 384.47 145.3C384.47 146.3 384.65 147.26 384.95 148.15C384.97 148.21 384.98 148.26 385 148.32C386.53 152.69 393.15 163.82 393.19 163.88V163.89V163.88C393.23 163.82 399.33 153.57 401.28 148.77C401.34 148.64 401.39 148.5 401.44 148.36C401.49 148.26 401.55 148.13 401.58 148.02Z" fill="#1572E0"/>
<path d="M393.25 148.85C395.211 148.85 396.8 147.261 396.8 145.3C396.8 143.339 395.211 141.75 393.25 141.75C391.289 141.75 389.7 143.339 389.7 145.3C389.7 147.261 391.289 148.85 393.25 148.85Z" fill="white"/>
<path d="M367.31 129.31C367.32 129.29 367.32 129.26 367.33 129.24C367.6 128.4 367.74 127.51 367.74 126.59C367.74 121.75 363.82 117.82 358.97 117.82C354.13 117.82 350.2 121.74 350.2 126.59C350.2 127.59 350.38 128.55 350.68 129.44C350.7 129.5 350.71 129.55 350.73 129.61C352.26 133.98 358.88 145.11 358.92 145.17V145.18V145.17C358.96 145.11 365.06 134.86 367.01 130.06C367.07 129.93 367.12 129.79 367.17 129.65C367.22 129.55 367.27 129.42 367.31 129.31Z" fill="#1572E0"/>
<path d="M358.97 130.14C360.931 130.14 362.52 128.551 362.52 126.59C362.52 124.629 360.931 123.04 358.97 123.04C357.009 123.04 355.42 124.629 355.42 126.59C355.42 128.551 357.009 130.14 358.97 130.14Z" fill="white"/>
<path d="M254.62 197.34C254.63 197.32 254.63 197.29 254.64 197.27C254.91 196.43 255.05 195.54 255.05 194.62C255.05 189.78 251.13 185.85 246.28 185.85C241.44 185.85 237.51 189.77 237.51 194.62C237.51 195.62 237.69 196.58 237.99 197.47C238.01 197.53 238.02 197.58 238.04 197.64C239.57 202.01 246.19 213.14 246.23 213.2V213.21V213.2C246.27 213.14 252.37 202.89 254.32 198.09C254.38 197.96 254.43 197.82 254.48 197.68C254.53 197.58 254.59 197.45 254.62 197.34Z" fill="#1572E0"/>
<path d="M246.29 198.17C248.251 198.17 249.84 196.581 249.84 194.62C249.84 192.659 248.251 191.07 246.29 191.07C244.329 191.07 242.74 192.659 242.74 194.62C242.74 196.581 244.329 198.17 246.29 198.17Z" fill="white"/>
<path d="M426.53 117.68H399.05C391.01 117.68 384.5 111.17 384.5 103.13V83.09C384.5 75.05 391.01 68.54 399.05 68.54H426.53C434.57 68.54 441.08 75.05 441.08 83.09V103.13C441.08 111.16 434.57 117.68 426.53 117.68Z" fill="#EEAB42"/>
<path d="M395.11 112.63V133.57L406.11 114.35L395.11 112.63Z" fill="#EEAB42"/>
<path d="M396.16 90.09C396.16 89.71 396.58 89.68 396.58 89.68L396.56 88.4C396.56 88.4 396.17 88.36 396.16 88.05L396.18 82.21C396.19 81.83 396.62 81.75 396.62 81.75L403.14 80.45L428.43 81.41L428.57 104.91L402.83 105.73C402.83 105.73 397.07 104.64 396.62 104.54C396.17 104.44 396.15 103.99 396.15 103.99L396.13 98.25C396.13 98.25 396.11 97.8 396.58 97.76C396.63 97.29 396.57 96.44 396.57 96.44C396.32 96.44 396.12 96.24 396.13 95.99C396.12 96 396.16 90.29 396.16 90.09Z" fill="#797673"/>
<path d="M396.58 89.71L396.56 88.4L403.01 87.38L403.05 88.86L396.58 89.71Z" fill="#605D5A"/>
<path d="M396.59 97.76L396.56 96.45L403.1 96.73V98.12L396.59 97.76Z" fill="#605D5A"/>
<path d="M403.01 87.39L428.88 87.78C429.15 87.78 429.37 87.54 429.37 87.25L429.43 81.39C429.43 81.09 429.2 80.85 428.92 80.86L403.14 80.46C402.87 80.47 402.57 80.71 402.56 81L402.51 86.84C402.5 87.14 402.73 87.39 403.01 87.39Z" fill="#B3AFAB"/>
<path d="M409.22 85.22L425.04 85.57L425 82.57L409.18 82.21L409.22 85.22Z" fill="#1572E0"/>
<path d="M405.426 84.5329C405.945 84.5261 406.36 84.073 406.353 83.5207C406.346 82.9685 405.919 82.5263 405.4 82.5331C404.881 82.5398 404.466 82.993 404.473 83.5452C404.48 84.0974 404.907 84.5396 405.426 84.5329Z" fill="white"/>
<path d="M416.38 83.3999L411.98 83.2899L411.99 84.1599L416.39 84.2699L416.38 83.3999Z" fill="#98C2F5"/>
<path d="M403.1 96.74L429 96.78C429.24 96.76 429.42 96.55 429.43 96.3L429.46 89.62C429.46 89.35 429.25 89.13 429 89.13L403.02 88.87C402.77 88.87 402.58 89.08 402.57 89.35L402.62 96.24C402.61 96.53 402.84 96.76 403.1 96.74Z" fill="#B3AFAB"/>
<path d="M405.396 93.1127C405.915 93.106 406.33 92.6528 406.323 92.1006C406.316 91.5484 405.889 91.1062 405.37 91.1129C404.851 91.1197 404.436 91.5728 404.443 92.125C404.45 92.6773 404.877 93.1195 405.396 93.1127Z" fill="white"/>
<path d="M408.96 93.78L424.79 93.87L424.75 90.87L408.93 90.78L408.96 93.78Z" fill="#1572E0"/>
<path d="M416.13 91.9L411.73 91.86L411.74 92.73L416.14 92.77L416.13 91.9Z" fill="#98C2F5"/>
<path d="M402.88 105.75L429.02 105.49C429.24 105.48 429.41 105.29 429.42 105.06L429.32 98.54C429.33 98.29 429.14 98.1 428.91 98.11H402.86C402.64 98.12 402.46 98.32 402.46 98.56L402.47 105.35C402.47 105.58 402.65 105.76 402.88 105.75Z" fill="#B3AFAB"/>
<path d="M409.42 102.98L425.03 102.84L424.99 99.74L409.38 99.88L409.42 102.98Z" fill="#1572E0"/>
<path d="M406.07 101.728C406.175 101.237 405.888 100.758 405.429 100.66C404.97 100.562 404.513 100.88 404.407 101.372C404.302 101.863 404.589 102.341 405.048 102.44C405.507 102.538 405.964 102.219 406.07 101.728Z" fill="white"/>
<path d="M416.65 100.92L412.25 100.96L412.26 101.83L416.66 101.79L416.65 100.92Z" fill="#98C2F5"/>
<path d="M426.1 141.92C425.47 142.14 424.85 142.41 424.24 142.72C423.4 143.15 422.63 143.65 421.91 144.21L423.2 147.18C422.49 147.82 421.87 148.54 421.34 149.32L417.93 148.95C417.16 150.4 416.64 151.97 416.4 153.59L419.42 154.95C419.35 156.03 419.45 157.12 419.71 158.18C418.97 158.7 417.73 159.54 416.94 160.07C417.14 160.68 417.39 161.29 417.68 161.88C418.08 162.7 418.56 163.45 419.09 164.14L422.18 162.84C422.85 163.58 423.62 164.21 424.45 164.72L423.9 168.06C425.36 168.77 426.94 169.22 428.56 169.4L430.15 166.32C431.06 166.32 431.99 166.21 432.9 165.97L434.73 168.69C435.39 168.46 436.05 168.18 436.69 167.85C437.57 167.4 438.38 166.87 439.12 166.28L437.79 163.32C438.52 162.65 439.16 161.9 439.68 161.09L442.96 161.66C443.78 160.13 444.31 158.47 444.54 156.76C443.58 156.41 442.24 155.9 441.49 155.6C441.55 154.62 441.48 153.63 441.26 152.65L444.07 150.84C443.85 150.11 443.57 149.39 443.22 148.69C442.79 147.82 442.28 147.02 441.71 146.29L438.75 147.75C438.04 146.97 437.23 146.31 436.35 145.78L437.07 142.54C435.67 141.84 434.15 141.39 432.58 141.19L431.25 144.25C430.14 144.2 429.01 144.32 427.89 144.61L426.1 141.92ZM436.11 152.39C437.63 155.45 436.34 159.23 433.22 160.83C430.11 162.43 426.35 161.25 424.84 158.19C423.32 155.13 424.61 151.35 427.73 149.75C430.85 148.15 434.59 149.33 436.11 152.39Z" fill="#B3AFAB"/>
<path d="M449.24 173.41V210.26C449.24 211.88 457.52 213.19 467.74 213.19C477.96 213.19 486.24 211.88 486.24 210.26V173.41H449.24Z" fill="#1DACCC"/>
<path d="M467.71 170.5C457.51 170.5 449.25 171.81 449.25 173.43C449.25 175.05 457.52 176.36 467.71 176.36C477.91 176.36 486.17 175.05 486.17 173.43C486.17 171.81 477.9 170.5 467.71 170.5Z" fill="#70D6E0"/>
<path d="M449.24 193.62C452.65 195.21 461.2 195.78 467.73 195.78C474.28 195.78 482.85 195.2 486.24 193.6V190.89L485.81 190.9L485.57 191.09C484.5 191.95 478.09 193.21 467.73 193.21C457.44 193.21 451.01 191.95 449.9 191.09L449.54 190.87H449.24V193.62Z" fill="#70D6E0"/>
<path d="M449.24 184.5C452.64 186.09 461.2 186.66 467.74 186.66C474.28 186.66 482.85 186.08 486.24 184.49V181.78L485.81 181.79L485.57 181.98C484.5 182.84 478.09 184.11 467.73 184.11C457.44 184.11 451.01 182.85 449.9 181.99L449.54 181.77H449.24V184.5Z" fill="#70D6E0"/>
<path d="M449.24 202.74C452.64 204.33 461.2 204.9 467.73 204.9C474.27 204.9 482.84 204.32 486.23 202.73V200L485.8 200.03L485.56 200.22C484.49 201.08 478.08 202.34 467.72 202.34C457.43 202.34 451 201.08 449.88 200.22L449.52 200.01H449.23V202.74H449.24Z" fill="#70D6E0"/>
<path d="M187.37 221.48L186.01 217.75H171.35C170.62 217.75 170.03 218.34 170.03 219.07V247.73H204.42V222.9C204.42 222.12 203.78 221.48 203 221.48H187.37Z" fill="#F7B548"/>
<path d="M203.33 225.54H172.4V244.17H203.33V225.54Z" fill="#FFF2DC"/>
<path d="M210.18 228.18H178.93C178.06 228.18 177.29 228.68 177.01 229.42L170.03 247.73H204.42L211.32 229.63C211.59 228.92 211.01 228.18 210.18 228.18Z" fill="#EEAB42"/>
</svg>
