<svg width="636" height="300" viewBox="0 0 636 300" fill="none" xmlns="http://www.w3.org/2000/svg">
<path d="M417.24 196.91C416.28 196.95 415.32 197.05 414.34 197.23C413.01 197.47 411.73 197.84 410.52 198.32L411.12 203.01C409.87 203.6 408.72 204.35 407.68 205.22L403.06 203.27C401.39 204.99 400.03 206.97 399.03 209.14L402.73 212.31C402.2 213.8 401.89 215.37 401.82 216.98C400.57 217.41 398.48 218.08 397.15 218.5C397.19 219.45 397.28 220.4 397.46 221.36C397.7 222.68 398.07 223.94 398.54 225.14L403.42 224.56C404.07 225.87 404.88 227.07 405.85 228.13L403.73 232.62C405.49 234.2 407.51 235.47 409.72 236.36L413.16 232.66C414.43 233.02 415.76 233.23 417.12 233.26L418.57 237.79C419.57 237.73 420.59 237.6 421.6 237.39C422.98 237.1 424.31 236.68 425.56 236.15L424.91 231.5C426.18 230.86 427.34 230.06 428.38 229.14L432.62 231.23C434.32 229.43 435.69 227.34 436.67 225.07C435.52 224.2 433.89 222.97 432.98 222.25C433.44 220.92 433.72 219.52 433.82 218.09L438.32 216.73C438.3 215.64 438.2 214.53 438.01 213.42C437.76 212.05 437.39 210.74 436.89 209.51L432.32 210.31C431.66 208.94 430.82 207.69 429.83 206.6L432.07 202.43C430.43 200.89 428.54 199.62 426.48 198.7L423.47 202.37C421.97 201.84 420.37 201.52 418.72 201.47L417.24 196.91ZM426.85 215.59C427.73 220.45 424.47 225.19 419.56 226.18C414.62 227.18 409.87 224.01 408.98 219.1C408.09 214.19 411.41 209.43 416.36 208.49C421.3 207.54 425.98 210.72 426.85 215.59Z" fill="#CCCAC7"/>
<path d="M337.62 234L116.73 242.59C112.89 242.74 109.79 240.1 109.81 236.71L110.7 88.87C110.72 85.52 113.83 82.94 117.63 83.1L336.8 92.17C339.8 92.29 342.24 94.79 342.25 97.75L343.05 228.36C343.06 231.35 340.64 233.88 337.62 234Z" fill="#B3AFAB"/>
<path d="M340.28 233.9L120.1 242.46C116.28 242.61 113.18 239.98 113.2 236.59L114.06 89C114.08 85.66 117.18 83.08 120.97 83.24L339.44 92.28C342.43 92.4 344.86 94.9 344.88 97.85L345.69 228.26C345.71 231.26 343.29 233.78 340.28 233.9Z" fill="#625F5B"/>
<path d="M334.22 220.49L127.69 226.93C126.65 226.96 125.81 226.24 125.81 225.31L126.49 94.3799C126.49 93.4699 127.34 92.76 128.37 92.8L333.54 100.33C334.37 100.36 335.04 101.05 335.05 101.86L335.72 218.94C335.73 219.77 335.06 220.46 334.22 220.49Z" fill="#33D5F9"/>
<path d="M402.8 253.36C402.78 251.66 402.77 250.56 402.77 249.99C402.77 249.53 344.19 236.61 344.19 236.61L115.75 241.48L115.74 243.83C115.74 243.83 115.78 245.9 118.24 246.6C120.7 247.3 186.07 265.76 186.07 265.76C189.41 266.7 192.93 267.09 196.46 266.9L401.25 255.09C402.54 255.03 402.84 254.43 402.8 253.36Z" fill="#9C9894"/>
<path d="M401.93 251.27L196.46 262.66C192.93 262.84 189.41 262.45 186.07 261.5L115.61 241.45L344.15 232.7L401.56 248.83C403.16 249.21 403.23 251.21 401.93 251.27Z" fill="#CCCAC7"/>
<path d="M155.65 93.7899L128.38 92.7899C127.35 92.7499 126.51 93.4599 126.5 94.3699L125.82 225.3C125.82 226.23 126.66 226.95 127.7 226.92L155.17 226.06L155.65 93.7899Z" fill="#1DACCC"/>
<path d="M144.05 126.53L137.77 126.41L137.79 121.78L144.07 121.92L144.05 126.53Z" fill="#33D5F9"/>
<path d="M144 137.5L137.72 137.41L137.74 132.77L144.02 132.88L144 137.5Z" fill="#33D5F9"/>
<path d="M143.96 148.48L137.67 148.42L137.69 143.78L143.98 143.85L143.96 148.48Z" fill="#33D5F9"/>
<path d="M143.91 159.47L137.62 159.45L137.64 154.8L143.93 154.84L143.91 159.47Z" fill="#33D5F9"/>
<path d="M143.86 170.47L137.57 170.49L137.59 165.84H143.88L143.86 170.47Z" fill="#33D5F9"/>
<path d="M143.82 181.49L137.52 181.54L137.54 176.88L143.84 176.85L143.82 181.49Z" fill="#33D5F9"/>
<path d="M143.77 192.52L137.47 192.6L137.49 187.94L143.79 187.87L143.77 192.52Z" fill="#33D5F9"/>
<path d="M143.72 203.56L137.42 203.68L137.44 199.02L143.74 198.91L143.72 203.56Z" fill="#33D5F9"/>
<path d="M143.67 214.61L137.37 214.77L137.39 210.1L143.69 209.96L143.67 214.61Z" fill="#33D5F9"/>
<path d="M335.1 110.67L335.05 101.86C335.05 101.04 334.37 100.36 333.54 100.32L128.37 92.7899C127.34 92.7499 126.49 93.4599 126.49 94.3799L126.44 104.23L335.1 110.67Z" fill="#D2F6FE"/>
<path d="M172.39 214.79L172.65 117.26L321.15 120.86L321.59 211.05L172.39 214.79ZM174.96 119.64L174.71 212.41L319.26 208.8L318.84 123.14L174.96 119.64Z" fill="#1DACCC"/>
<path d="M433.86 194.65L241.41 198.03L241.3 67.6499L432.6 77.6799L433.86 194.65Z" fill="#1595B2"/>
<path d="M285.77 93.6499L264.28 92.7999C263.02 92.7499 262 91.7399 262 90.5499C262 89.3599 263.02 88.4299 264.27 88.4899L285.75 89.3899C286.98 89.4399 287.97 90.4399 287.98 91.6099C287.98 92.7899 286.99 93.6999 285.77 93.6499Z" fill="#BBF1FD"/>
<path d="M382.43 107.06L362.45 106.38C361.32 106.34 360.4 105.39 360.39 104.26C360.38 103.13 361.29 102.25 362.42 102.29L382.39 103.01C383.49 103.05 384.39 103.99 384.4 105.1C384.42 106.22 383.53 107.1 382.43 107.06Z" fill="#2CC7EA"/>
<path d="M352.15 106.04L311.49 104.66C310.3 104.62 309.32 103.64 309.32 102.48C309.31 101.32 310.28 100.41 311.47 100.45L352.12 101.92C353.26 101.96 354.19 102.91 354.19 104.05C354.21 105.18 353.29 106.07 352.15 106.04Z" fill="#2CC7EA"/>
<path d="M299.96 104.27L277.86 103.52C276.62 103.48 275.61 102.48 275.61 101.3C275.61 100.11 276.61 99.1899 277.85 99.2299L299.95 100.03C301.16 100.07 302.14 101.06 302.14 102.22C302.14 103.4 301.16 104.31 299.96 104.27Z" fill="#BBF1FD"/>
<path d="M396.31 117.06L330.34 115.2C329.17 115.17 328.22 114.21 328.21 113.05C328.2 111.9 329.15 110.99 330.32 111.03L396.28 113.05C397.36 113.08 398.25 114.01 398.26 115.11C398.26 116.22 397.39 117.09 396.31 117.06Z" fill="#2CC7EA"/>
<path d="M318.44 114.86L291.24 114.09C290.02 114.06 289.02 113.07 289.02 111.89C289.02 110.71 290 109.79 291.23 109.82L318.42 110.65C319.6 110.69 320.57 111.65 320.57 112.81C320.58 113.98 319.63 114.89 318.44 114.86Z" fill="#2CC7EA"/>
<path d="M382.59 126.29L351.99 125.6C350.85 125.57 349.92 124.63 349.91 123.49C349.9 122.35 350.82 121.45 351.97 121.48L382.56 122.25C383.66 122.28 384.56 123.21 384.57 124.32C384.58 125.43 383.69 126.31 382.59 126.29Z" fill="#2CC7EA"/>
<path d="M340.67 125.34L291.28 124.22C290.06 124.19 289.06 123.21 289.06 122.03C289.06 120.85 290.05 119.92 291.27 119.95L340.65 121.19C341.81 121.22 342.75 122.17 342.75 123.31C342.76 124.46 341.83 125.36 340.67 125.34Z" fill="#2CC7EA"/>
<path d="M335.75 135.16C334.59 135.14 333.64 134.19 333.63 133.04C333.62 131.89 334.56 130.97 335.72 130.99L375.66 131.72L382.93 131.86C384.03 131.88 384.93 132.8 384.94 133.92C384.95 135.04 384.07 135.93 382.97 135.91L335.75 135.16Z" fill="#2CC7EA"/>
<path d="M326 134.95L304.5 134.58C303.29 134.56 302.31 133.59 302.31 132.42C302.31 131.25 303.28 130.32 304.48 130.34L325.98 130.76C327.15 130.78 328.11 131.74 328.12 132.89C328.12 134.05 327.17 134.97 326 134.95Z" fill="#2CC7EA"/>
<path d="M399.3 145.74L332.27 144.97C331.1 144.96 330.15 144.01 330.14 142.85C330.13 141.7 331.08 140.77 332.25 140.79L399.27 141.72C400.35 141.73 401.23 142.65 401.24 143.75C401.25 144.87 400.39 145.76 399.3 145.74Z" fill="#2CC7EA"/>
<path d="M320.09 144.83L304.54 144.65C303.33 144.64 302.35 143.67 302.35 142.5C302.35 141.33 303.32 140.39 304.53 140.41L320.07 140.63C321.25 140.65 322.22 141.6 322.22 142.76C322.22 143.92 321.27 144.85 320.09 144.83Z" fill="#2CC7EA"/>
<path d="M364.8 155.1L308.68 154.77C307.48 154.76 306.5 153.81 306.49 152.64C306.49 151.47 307.46 150.53 308.66 150.54L364.76 151C365.89 151.01 366.8 151.93 366.81 153.07C366.83 154.19 365.93 155.1 364.8 155.1Z" fill="#2CC7EA"/>
<path d="M296.78 154.7L277.99 154.59C276.75 154.58 275.74 153.61 275.73 152.42C275.73 151.23 276.73 150.27 277.98 150.28L296.76 150.43C297.98 150.44 298.96 151.4 298.97 152.58C298.97 153.75 297.99 154.7 296.78 154.7Z" fill="#BBF1FD"/>
<path d="M319.89 164.84L291.42 164.83C290.2 164.83 289.2 163.87 289.19 162.68C289.19 161.5 290.18 160.54 291.4 160.54L319.86 160.61C321.04 160.61 322.01 161.56 322.02 162.72C322.03 163.9 321.07 164.84 319.89 164.84Z" fill="#2CC7EA"/>
<path d="M350.87 174.7L314.22 174.9C313.02 174.91 312.05 173.96 312.05 172.79C312.04 171.62 313.01 170.67 314.21 170.66L350.85 170.55C351.99 170.55 352.93 171.47 352.94 172.61C352.94 173.76 352.01 174.69 350.87 174.7Z" fill="#2CC7EA"/>
<path d="M302.68 174.96L264.44 175.16C263.18 175.17 262.15 174.2 262.15 172.99C262.15 171.79 263.17 170.81 264.43 170.8L302.66 170.69C303.87 170.69 304.85 171.64 304.86 172.81C304.86 173.99 303.89 174.95 302.68 174.96Z" fill="#BBF1FD"/>
<path d="M266.87 141.45C266.9 156.48 254.04 168.7 237.89 168.73C221.46 168.76 207.93 156.19 207.95 140.69C207.96 125.21 221.47 113.05 237.86 113.5C253.96 113.95 266.84 126.45 266.87 141.45Z" fill="#F7B548"/>
<path d="M255.74 129.33L250.11 134.36L245.98 130.26L251.61 125.25C250.64 124.82 249.57 124.56 248.44 124.51C243.96 124.33 240.25 127.62 240.17 131.85C240.15 132.91 240.36 133.92 240.76 134.85C236.93 137.75 224.22 148.01 220.89 150.96C216.87 154.53 223.19 161.58 228.18 156.91C232.07 153.27 241.66 142.84 245.17 139.12C246.09 139.5 247.1 139.72 248.16 139.76C252.62 139.9 256.29 136.61 256.36 132.41C256.39 131.33 256.16 130.28 255.74 129.33ZM224.5 156.19C223.14 156.16 222.05 155.11 222.08 153.84C222.1 152.57 223.23 151.57 224.59 151.6C225.95 151.63 227.03 152.69 227.01 153.95C226.98 155.22 225.86 156.22 224.5 156.19Z" fill="white"/>
<path d="M424.64 109.86C424.78 123.62 414.1 134.6 400.58 134.35C386.84 134.1 375.46 122.39 375.35 108.23C375.24 94.0799 386.42 83.1699 400.12 83.8299C413.61 84.4699 424.5 96.1099 424.64 109.86Z" fill="#33D5F9"/>
<path d="M400.11 113C400 113.04 394.84 115.39 394.84 121.56C394.84 125.61 397.08 130.97 398.64 134.22C399.28 134.28 399.92 134.34 400.58 134.36C400.92 134.37 401.25 134.33 401.58 134.33C403.13 131.18 405.35 125.97 405.35 121.93C405.35 115.79 400.21 113.05 400.11 113Z" fill="#F7B548"/>
<path d="M392.93 100.53L387.16 106.96L388.14 120.08L389.62 120.13C389.62 120.13 391.18 114 395.69 111.73C399.13 110 392.93 100.53 392.93 100.53Z" fill="#6D6A66"/>
<path d="M407.42 101.21L413.07 108.07L412.14 120.93L410.69 120.88C410.69 120.88 409.16 114.7 404.72 112.11C401.29 110.09 407.42 101.21 407.42 101.21Z" fill="#6D6A66"/>
<path d="M407.7 83.8699C404.88 75.4299 400.16 72.1899 400.09 72.1399C400.02 72.1799 395.28 74.8299 392.43 82.9999C389.54 91.2699 391.38 104.61 394.26 111.89C395.23 114.34 400.05 114.65 400.12 114.66C400.19 114.66 404.99 114.72 405.94 112.36C408.76 105.38 410.54 92.3599 407.7 83.8699Z" fill="white"/>
<path d="M406.98 81.9498C406.86 81.6398 406.73 81.3398 406.6 81.0498C406.52 80.8798 406.45 80.7198 406.37 80.5498C406.25 80.2898 406.13 80.0398 406.01 79.7998C405.93 79.6298 405.84 79.4798 405.76 79.3198C405.64 79.0898 405.52 78.8698 405.4 78.6498C405.32 78.4998 405.23 78.3498 405.14 78.1998C405.02 77.9998 404.9 77.7898 404.78 77.5998C404.7 77.4598 404.61 77.3298 404.53 77.1998C404.41 77.0098 404.29 76.8298 404.17 76.6498C404.09 76.5298 404.01 76.4098 403.92 76.2898C403.8 76.1198 403.68 75.9498 403.56 75.7898C403.48 75.6898 403.4 75.5798 403.33 75.4798C403.21 75.3198 403.09 75.1698 402.97 75.0298C402.9 74.9398 402.83 74.8498 402.76 74.7698C402.64 74.6298 402.52 74.4898 402.41 74.3598C402.35 74.2898 402.29 74.2198 402.23 74.1498C402.11 74.0198 401.99 73.8898 401.88 73.7698C401.83 73.7198 401.78 73.6598 401.74 73.6198C401.61 73.4898 401.49 73.3698 401.37 73.2498C401.34 73.2298 401.32 73.1998 401.29 73.1698C401.01 72.8998 400.76 72.6798 400.57 72.5198C400.53 72.4898 400.5 72.4598 400.47 72.4298C400.42 72.3898 400.37 72.3498 400.33 72.3198C400.29 72.2898 400.25 72.2598 400.22 72.2398C400.21 72.2298 400.19 72.2198 400.18 72.2098C406.41 86.7598 408.5 100.41 403.98 114C404.85 113.66 405.61 113.14 405.93 112.35C408.75 105.37 410.53 92.3498 407.69 83.8598C407.52 83.3498 407.34 82.8598 407.16 82.3898C407.11 82.2498 407.04 82.0998 406.98 81.9498Z" fill="#B0D1F7"/>
<path d="M403.57 89.0699C403.57 91.0299 402.02 92.5399 400.1 92.4399C398.18 92.3399 396.61 90.6599 396.61 88.6899C396.61 86.7199 398.17 85.2099 400.09 85.3199C402.01 85.4399 403.57 87.1099 403.57 89.0699Z" fill="#F7B548"/>
<path d="M400.11 101.4C400.11 101.4 400.1 101.4 400.11 101.4C400.1 101.4 400.1 101.4 400.11 101.4C399.17 101.39 398.15 106.71 398.15 106.71L399.82 120.49H399.93L400.36 120.51H400.41L402.06 106.88C402.06 106.88 401.04 101.48 400.11 101.4Z" fill="#6D6A66"/>
<path d="M400.17 81.4099C402.48 81.5399 404.62 81.2299 406.39 80.5799C403.62 74.5799 400.15 72.1899 400.08 72.1499C400.02 72.1799 396.55 74.1299 393.76 79.7799C395.59 80.6799 397.8 81.2699 400.17 81.4099Z" fill="#DDDBDA"/>
<path d="M403.51 81.2899C404.54 81.1499 405.51 80.9099 406.39 80.5899C403.87 75.1399 400.78 72.6699 400.18 72.2299C401.67 75.2299 402.75 78.2599 403.51 81.2899Z" fill="#908D89"/>
<path d="M376.6 220.97L329.38 222.42C322.57 222.63 316.99 217.33 316.96 210.58L316.75 166.07C316.72 159.36 322.23 153.96 329.02 154.01L376.09 154.37C382.47 154.42 387.66 159.68 387.71 166.13L388.07 208.87C388.12 215.36 383.01 220.78 376.6 220.97Z" fill="#C5D43B"/>
<path d="M370.53 184.67L375.78 184.62L375.98 210.74L370.72 210.87L370.53 184.67Z" fill="#95A527"/>
<path d="M362.93 181.39L368.22 181.35L368.44 210.93L363.14 211.06L362.93 181.39Z" fill="#81921F"/>
<path d="M355.38 196.38L360.73 196.29L360.83 211.12L355.48 211.25L355.38 196.38Z" fill="#95A527"/>
<path d="M347.64 191.8L353.03 191.73L353.16 211.31L347.76 211.45L347.64 191.8Z" fill="#81921F"/>
<path d="M339.9 199.59L345.34 199.49L345.41 211.5L339.97 211.64L339.9 199.59Z" fill="#95A527"/>
<path d="M332.07 204.48L337.56 204.37L337.6 211.7L332.11 211.83L332.07 204.48Z" fill="#81921F"/>
<path d="M354.15 172.84L326.38 172.92C325.79 172.92 325.31 172.45 325.31 171.87C325.31 171.29 325.78 170.82 326.37 170.82L354.14 170.77C354.71 170.77 355.18 171.23 355.18 171.8C355.18 172.38 354.72 172.84 354.15 172.84Z" fill="#9C9894"/>
<path d="M354.19 179.06L326.41 179.24C325.82 179.24 325.34 178.78 325.34 178.19C325.34 177.61 325.81 177.13 326.4 177.13L354.18 176.98C354.75 176.98 355.22 177.44 355.22 178.01C355.22 178.59 354.76 179.05 354.19 179.06Z" fill="#9C9894"/>
<path d="M354.23 185.28L326.44 185.56C325.85 185.57 325.37 185.1 325.37 184.52C325.37 183.94 325.84 183.46 326.43 183.46L354.22 183.21C354.79 183.2 355.26 183.66 355.26 184.24C355.26 184.8 354.8 185.27 354.23 185.28Z" fill="#9C9894"/>
<path d="M387.66 165.4C387.23 159.3 382.22 154.43 376.08 154.38L329.01 154.02C322.49 153.97 317.16 158.96 316.78 165.31L387.66 165.4Z" fill="white"/>
<path d="M352.93 56.3699C353.03 70.6399 341.39 81.6699 326.72 80.9699C311.81 80.2599 299.49 67.7399 299.43 53.0399C299.37 38.3599 311.57 27.4099 326.44 28.5599C341.08 29.6899 352.84 42.1199 352.93 56.3699Z" fill="#F2A694"/>
<path d="M339.22 65.9799L329.24 49.6299L329.18 38.2199L323.34 37.7999L323.4 49.2499L313.41 64.5199C311.92 66.7899 313.68 69.9199 316.52 70.0799L325.71 70.5699L327.17 70.6499L336.25 71.1299C339.02 71.2799 340.69 68.3799 339.22 65.9799Z" fill="white"/>
<path d="M329.24 49.6299L329.18 38.2199L323.34 37.7999L323.35 39.4299L326.95 39.6899L327.01 50.3499L328.15 52.1599L330.92 52.3799L329.24 49.6299Z" fill="#DDDBDA"/>
<path d="M330.17 38.4899L322.25 37.9199C321.79 37.8899 321.41 37.4899 321.41 37.0399C321.41 36.5899 321.78 36.2499 322.24 36.2799L330.16 36.8499C330.62 36.8799 330.99 37.2699 330.99 37.7199C331 38.1899 330.63 38.5199 330.17 38.4899Z" fill="#E86E58"/>
<path d="M339.22 65.98L330.45 51.61L322.2 51.08L313.41 64.52C311.92 66.79 313.68 69.92 316.52 70.08L325.71 70.57L327.17 70.65L336.25 71.13C339.02 71.28 340.69 68.38 339.22 65.98Z" fill="#E86E58"/>
<path d="M339.22 65.9799L330.45 51.6199L327.66 51.4399L336.81 66.4099C337.54 67.6099 336.71 69.0499 335.33 68.9699L323.01 68.2999L321.54 68.2199L313.21 67.7699C313.76 69.0199 314.96 70.0099 316.52 70.0899L325.71 70.5799L327.17 70.6599L336.25 71.1399C339.02 71.2799 340.69 68.3799 339.22 65.9799Z" fill="#CC5444"/>
<path d="M490.12 184.07L414.73 184.95C410.23 185 406.54 181.25 406.49 176.58L406.1 134.65C406.06 130 409.67 126.31 414.16 126.42L489.36 128.15C493.43 128.24 496.77 131.89 496.83 136.29L497.39 175.98C497.45 180.4 494.21 184.03 490.12 184.07Z" fill="#9C9894"/>
<path d="M481.42 163.29L428.23 163.22L428.17 157.43L481.35 157.68L481.42 163.29Z" fill="#F7B548"/>
<path d="M481.5 168.88L428.29 169L428.23 163.2L481.42 163.26L481.5 168.88Z" fill="white"/>
<path d="M465 137.06L415.52 136.21C414.91 136.2 414.41 135.68 414.4 135.04C414.39 134.41 414.88 133.9 415.5 133.91L464.97 134.83C465.55 134.84 466.02 135.35 466.03 135.96C466.03 136.58 465.57 137.07 465 137.06Z" fill="#DDDBDA"/>
<path d="M485.51 144.01L415.59 143.09C414.98 143.08 414.48 142.56 414.47 141.93C414.46 141.3 414.95 140.79 415.57 140.8L485.48 141.82C486.04 141.83 486.5 142.33 486.51 142.93C486.52 143.53 486.07 144.02 485.51 144.01Z" fill="#DDDBDA"/>
<path d="M443.64 150.23L415.66 149.98C415.05 149.97 414.55 149.46 414.54 148.82C414.53 148.19 415.03 147.68 415.64 147.68L443.62 147.97C444.21 147.98 444.7 148.49 444.7 149.11C444.7 149.74 444.23 150.24 443.64 150.23Z" fill="#DDDBDA"/>
</svg>
