<svg width="636" height="300" viewBox="0 0 636 300" fill="none" xmlns="http://www.w3.org/2000/svg">
<path d="M501.21 146.06C427.7 258.56 249.65 320.23 160.79 266.23C31.26 187.52 118.67 40.46 213.14 49.46C266.4 54.53 347.64 43.41 406.84 19.88C473.79 -6.71999 547.59 75.1 501.21 146.06Z" fill="url(#paint0_linear)"/>
<path d="M109.94 110C161.78 125.14 227.59 131.68 315.84 83.1901C435.57 17.4001 431.78 35.4501 411.35 53.4901C386.86 75.1101 402.96 71.48 428.18 60.6301C457.9 47.84 485.52 43.82 498.73 49.2701C498.73 49.2701 498.73 49.27 498.72 49.26C493.55 42.31 487.4 36.14 480.53 31.01C480.49 30.98 480.44 30.9501 480.4 30.91C479.6 30.31 478.79 29.73 477.97 29.16C477.85 29.08 477.72 28.99 477.6 28.91C476.86 28.4 476.11 27.9 475.35 27.42C475.17 27.3 474.98 27.19 474.79 27.07C474.09 26.63 473.38 26.1901 472.66 25.7701C472.43 25.64 472.2 25.5101 471.97 25.3701C471.29 24.9801 470.61 24.59 469.93 24.22C469.66 24.08 469.39 23.94 469.12 23.8C468.46 23.45 467.8 23.1101 467.14 22.7901C466.84 22.6401 466.54 22.5001 466.24 22.3601C465.6 22.0501 464.95 21.75 464.3 21.46C463.98 21.32 463.65 21.1801 463.32 21.0401C462.69 20.7701 462.05 20.5001 461.41 20.2501C461.06 20.1101 460.71 19.9801 460.36 19.8401C459.74 19.6001 459.11 19.37 458.48 19.14C458.11 19.01 457.75 18.8801 457.38 18.7601C456.76 18.5501 456.14 18.35 455.52 18.15C455.13 18.03 454.75 17.91 454.36 17.8C453.75 17.62 453.14 17.4501 452.52 17.2801C452.12 17.1701 451.71 17.07 451.31 16.97C450.7 16.82 450.09 16.6801 449.48 16.5401C449.06 16.4501 448.65 16.3601 448.23 16.2701C447.63 16.1501 447.02 16.0301 446.41 15.9201C445.98 15.84 445.55 15.77 445.12 15.7C444.52 15.6 443.91 15.5101 443.31 15.4301C442.87 15.3701 442.43 15.3101 441.99 15.2601C441.39 15.1901 440.79 15.13 440.18 15.07C439.73 15.03 439.29 14.99 438.84 14.95C438.24 14.91 437.64 14.8701 437.04 14.8401C436.58 14.8201 436.13 14.79 435.68 14.78C435.08 14.76 434.48 14.76 433.88 14.75C433.42 14.75 432.96 14.74 432.5 14.75C431.9 14.76 431.29 14.7801 430.69 14.8101C430.23 14.8301 429.77 14.84 429.31 14.87C428.7 14.9 428.1 14.9601 427.49 15.0101C427.03 15.0501 426.56 15.0801 426.1 15.1301C425.49 15.1901 424.88 15.2801 424.27 15.3501C423.81 15.4101 423.35 15.46 422.9 15.53C422.28 15.62 421.65 15.7401 421.03 15.8501C420.58 15.9301 420.14 16.0001 419.69 16.0901C419.05 16.2201 418.41 16.3601 417.77 16.5101C417.34 16.6101 416.91 16.69 416.48 16.8C415.81 16.97 415.13 17.16 414.46 17.34C414.06 17.45 413.67 17.55 413.27 17.66C412.5 17.89 411.74 18.14 410.97 18.39C410.67 18.49 410.37 18.5801 410.06 18.6801C408.99 19.0501 407.92 19.4401 406.85 19.8701C392.05 25.7501 375.87 30.8601 359.1 35.1301C356.83 35.7101 354.54 36.2701 352.25 36.82C348.35 37.75 344.42 38.64 340.48 39.48C329.64 41.8 318.67 43.7701 307.78 45.3801C305.63 45.7001 303.49 46 301.35 46.2901C294.93 47.16 288.55 47.9001 282.25 48.5201C269.65 49.75 257.37 50.4501 245.75 50.6101C234.13 50.7701 223.16 50.39 213.17 49.44C171.25 45.47 130.76 72.1801 109.94 110Z" fill="url(#paint1_radial)"/>
<path d="M230.8 149.26C226.75 118.36 248.47 89 280.39 82.95C312.31 76.9 342.68 96.41 349.46 126.8L230.8 149.26Z" fill="#BBF1FD"/>
<path d="M258.26 152.56L254.08 154.6C252.73 155.26 251.1 154.7 250.44 153.35L241.3 134.63C240.64 133.28 241.2 131.65 242.55 130.99L246.73 128.95C248.08 128.29 249.71 128.85 250.37 130.2L259.51 148.92C260.17 150.27 259.61 151.9 258.26 152.56Z" fill="#B3AFAB"/>
<path d="M311.18 133.05C311.49 131.83 312.49 130.91 313.73 130.71L320.76 129.54C321.84 129.36 322.75 128.64 323.17 127.63L325.48 122.04C326.03 120.7 327.43 119.91 328.86 120.12L339.08 121.6C339.87 121.71 340.58 122.12 341.08 122.74L344.21 126.59C345.72 128.45 344.7 131.25 342.34 131.7L314.83 136.95C312.56 137.38 310.6 135.3 311.18 133.05Z" fill="#B3AFAB"/>
<path d="M452.07 165.29C441.15 168.83 435.18 180.55 438.72 191.46C440.58 197.18 444.68 201.52 449.74 203.87C459.65 195.37 468.96 186.31 477.53 176.76C473.31 167.06 462.34 161.96 452.07 165.29Z" fill="url(#paint2_linear)"/>
<path d="M175.29 209.72L423.29 163.14L421.54 153.06L173.42 200.03L175.29 209.72Z" fill="#84817D"/>
<path d="M175.31 209.69L423.13 163.16C418.26 173.63 401.65 185.01 377.73 195.06C360.25 207.95 336.48 215.84 305.58 221.64C274.77 227.43 245.05 229.96 229.14 223.07C203.07 222.41 183.45 217.78 175.31 209.69Z" fill="url(#paint3_linear)"/>
<path d="M243.98 230.37C261.46 232.24 282.7 230.98 305.38 226.72C347.39 218.83 375.94 203.64 385.95 191.42C362.4 200.39 333.95 208.8 302.98 214.62C272.31 220.38 241.85 222.39 216.94 222.6C222.71 225.91 233 229.2 243.98 230.37Z" fill="#6D6A66"/>
<path d="M173.93 202.73L422.12 156.39L421.54 153.06L173.42 199.95L173.93 202.73Z" fill="#56534F"/>
<path d="M421.65 225.44C389.42 230.74 370.77 225.05 342.6 242.9C313.09 261.6 290.48 278.66 257.49 264.47C225.13 250.56 186.35 239.66 149.39 258.74C152.98 261.3 156.78 263.8 160.78 266.23C225.41 305.5 337.2 283.58 421.65 225.44Z" fill="url(#paint4_radial)"/>
<path d="M152.39 153.2C167.71 153.2 180.13 140.78 180.13 125.46C180.13 110.14 167.71 97.72 152.39 97.72C137.07 97.72 124.65 110.14 124.65 125.46C124.65 140.78 137.07 153.2 152.39 153.2Z" fill="url(#paint5_linear)"/>
<path d="M486.23 90.03C486.23 90.03 478.47 85.43 473.2 76.62C470.86 83.55 460.24 90.1 460.24 90.1C460.24 90.1 469.31 94.69 473.27 103.51C477.71 94.94 486.23 90.03 486.23 90.03Z" fill="#9FE4EB"/>
<path d="M152.23 214.18C152.21 214.18 149.73 214.23 147.32 215.52C144.16 217.22 142.57 220.18 142.62 224.34C142.62 224.65 142.38 224.9 142.08 224.91C141.78 224.91 141.54 224.67 141.53 224.36C141.42 214.44 132.1 214.41 131.7 214.41C131.41 214.41 131.17 214.17 131.15 213.87C131.14 213.57 131.36 213.31 131.65 213.29C131.67 213.29 134.15 213.09 136.57 211.72C139.74 209.92 141.33 207.03 141.29 203.13C141.29 202.82 141.53 202.57 141.83 202.56C142.13 202.56 142.37 202.8 142.38 203.11C142.42 206.87 144.07 209.68 147.29 211.46C149.74 212.82 152.23 213.05 152.26 213.05C152.55 213.08 152.77 213.33 152.76 213.63C152.76 213.93 152.52 214.17 152.23 214.18Z" fill="#70D6E0"/>
<path d="M132.419 224.994C132.905 224.989 133.295 224.577 133.289 224.075C133.284 223.572 132.885 223.169 132.399 223.174C131.913 223.18 131.524 223.591 131.529 224.094C131.535 224.597 131.933 225 132.419 224.994Z" fill="#70D6E0"/>
<path d="M134.609 222.674C135.095 222.669 135.484 222.258 135.479 221.755C135.474 221.252 135.075 220.849 134.589 220.855C134.103 220.86 133.714 221.272 133.719 221.774C133.725 222.277 134.123 222.68 134.609 222.674Z" fill="#70D6E0"/>
<path d="M136.799 220.365C137.285 220.359 137.674 219.948 137.669 219.445C137.663 218.943 137.265 218.54 136.779 218.545C136.293 218.55 135.904 218.962 135.909 219.464C135.915 219.967 136.313 220.37 136.799 220.365Z" fill="#70D6E0"/>
<path d="M147.349 209.205C147.835 209.2 148.224 208.788 148.219 208.286C148.213 207.783 147.815 207.38 147.329 207.385C146.843 207.391 146.453 207.802 146.459 208.305C146.464 208.807 146.863 209.211 147.349 209.205Z" fill="#70D6E0"/>
<path d="M149.529 206.895C150.015 206.89 150.404 206.478 150.399 205.976C150.393 205.473 149.995 205.07 149.509 205.076C149.023 205.081 148.633 205.493 148.639 205.995C148.644 206.498 149.043 206.901 149.529 206.895Z" fill="#70D6E0"/>
<path d="M151.719 204.586C152.205 204.58 152.594 204.169 152.589 203.666C152.583 203.164 152.185 202.761 151.699 202.766C151.213 202.771 150.824 203.183 150.829 203.685C150.834 204.188 151.233 204.591 151.719 204.586Z" fill="#70D6E0"/>
<path d="M132.199 204.795C132.685 204.79 133.075 204.378 133.069 203.876C133.064 203.373 132.665 202.97 132.179 202.975C131.694 202.981 131.304 203.392 131.309 203.895C131.315 204.397 131.713 204.8 132.199 204.795Z" fill="#70D6E0"/>
<path d="M134.439 207.065C134.925 207.06 135.315 206.648 135.309 206.145C135.304 205.643 134.905 205.24 134.419 205.245C133.934 205.25 133.544 205.662 133.549 206.165C133.555 206.667 133.953 207.07 134.439 207.065Z" fill="#70D6E0"/>
<path d="M136.679 209.325C137.165 209.32 137.555 208.908 137.549 208.405C137.544 207.903 137.145 207.5 136.659 207.505C136.173 207.51 135.784 207.922 135.789 208.425C135.795 208.927 136.193 209.33 136.679 209.325Z" fill="#70D6E0"/>
<path d="M147.468 220.245C147.954 220.24 148.344 219.828 148.338 219.326C148.333 218.823 147.934 218.42 147.449 218.425C146.963 218.431 146.573 218.842 146.579 219.345C146.584 219.847 146.982 220.25 147.468 220.245Z" fill="#70D6E0"/>
<path d="M149.698 222.515C150.184 222.51 150.574 222.098 150.568 221.596C150.563 221.093 150.164 220.69 149.678 220.695C149.193 220.701 148.803 221.112 148.809 221.615C148.814 222.117 149.212 222.52 149.698 222.515Z" fill="#70D6E0"/>
<path d="M151.938 224.775C152.424 224.77 152.814 224.358 152.808 223.856C152.803 223.353 152.404 222.95 151.918 222.955C151.432 222.961 151.043 223.372 151.048 223.875C151.054 224.377 151.452 224.78 151.938 224.775Z" fill="#70D6E0"/>
<path d="M422.26 207.15C425.148 207.15 427.49 204.808 427.49 201.92C427.49 199.031 425.148 196.69 422.26 196.69C419.372 196.69 417.03 199.031 417.03 201.92C417.03 204.808 419.372 207.15 422.26 207.15Z" fill="#70D6E0"/>
<path d="M213.76 88.2301C213.76 88.2301 208.91 85.4201 205.63 80.0601C204.14 84.2601 197.46 88.1901 197.46 88.1901C197.46 88.1901 203.13 91.0101 205.59 96.3601C208.4 91.1901 213.76 88.2301 213.76 88.2301Z" fill="#9FE4EB"/>
<path d="M449.98 125.09C452.145 125.09 453.9 123.335 453.9 121.17C453.9 119.005 452.145 117.25 449.98 117.25C447.815 117.25 446.06 119.005 446.06 121.17C446.06 123.335 447.815 125.09 449.98 125.09Z" fill="#70D6E0"/>
<path d="M423.94 111.29C425.47 111.29 426.71 110.05 426.71 108.52C426.71 106.99 425.47 105.75 423.94 105.75C422.41 105.75 421.17 106.99 421.17 108.52C421.17 110.05 422.41 111.29 423.94 111.29Z" fill="#CFF1F5"/>
<path d="M217.78 275.08C220.912 275.08 223.45 272.541 223.45 269.41C223.45 266.279 220.912 263.74 217.78 263.74C214.649 263.74 212.11 266.279 212.11 269.41C212.11 272.541 214.649 275.08 217.78 275.08Z" fill="#70D6E0"/>
<path d="M252.56 95.8901C260.34 89.5301 269.79 84.9101 280.4 82.9001C312.33 76.8601 342.69 96.3601 349.47 126.75C349.47 126.75 345.39 127.5 339.86 128.57C336.92 119.22 303.62 69.4301 252.56 95.8901Z" fill="url(#paint6_linear)"/>
<path d="M301.24 129.87C301.71 123.04 299.64 118.04 299.64 118.04L301.17 117.75L301.2 117.72C296.76 106.17 284.58 99.08 272 101.45C257.81 104.12 248.47 117.78 251.14 131.96C253.81 146.15 267.47 155.48 281.65 152.82C292.84 150.71 301.02 141.77 302.66 131.11C302.68 130.67 302.53 129.91 301.24 129.87Z" fill="url(#paint7_radial)"/>
<path d="M301.24 129.87C301.71 123.12 299.69 118.16 299.64 118.05L287.78 120.24C287.78 120.24 286.07 120.39 286.36 121.92C286.65 123.45 287.53 127.78 288.43 132.57C288.61 133.54 301.13 130.83 301.24 129.87Z" fill="url(#paint8_radial)"/>
<path d="M301.24 129.84C301.25 129.58 301.27 129.33 301.28 129.08C301.33 127.81 301.3 126.6 301.21 125.49C300.65 125.39 300.15 125.62 299.65 126.16C298.96 126.91 295.47 130.93 295.47 130.93L301.24 129.84Z" fill="#A08BE8"/>
<path d="M302.61 131.42C302.61 131.42 303.07 129.92 301.24 129.86C301.24 129.85 301.24 129.84 301.24 129.84L289.83 131.94C289.22 132.06 288.37 131.84 288.19 131.26C288.27 131.68 288.35 132.11 288.43 132.54C288.6 133.43 289.35 133.78 289.96 133.75C290.02 133.75 290.08 133.74 290.14 133.73L291.93 133.39L302.61 131.42Z" fill="#512BD4"/>
<path d="M301.41 135.98L257.12 144.31C258.43 145.81 259.91 147.15 261.51 148.31L298.77 141.31C299.85 139.64 300.74 137.85 301.41 135.98Z" fill="#D8CFF7"/>
<path d="M297.83 142.67C299.65 140.21 301.03 137.44 301.91 134.48L296.49 135.5L297.83 142.67Z" fill="#512BD4"/>
<path d="M273.51 100.14L268.54 101.04L268.31 95.81L271.88 95.16L273.51 100.14Z" fill="#8A6FE8"/>
<path d="M275.97 102.91C276.2 102.87 276.34 102.64 276.28 102.43C275.59 100.12 273.26 98.6499 270.83 99.0899C268.4 99.5299 266.73 101.73 266.9 104.13C266.92 104.36 267.13 104.52 267.36 104.48L275.97 102.91Z" fill="url(#paint9_radial)"/>
<path d="M295.35 128.62C296.47 128.44 297.12 126.77 296.81 124.9C296.5 123.03 295.35 121.66 294.23 121.84C293.11 122.02 292.46 123.69 292.77 125.56C293.08 127.43 294.24 128.8 295.35 128.62Z" fill="#512BD4"/>
<path d="M294.45 123.44C293.85 124.31 294.06 125.5 294.93 126.1C295.53 126.51 296.27 126.54 296.87 126.24C296.91 125.82 296.89 125.36 296.81 124.89C296.66 123.97 296.31 123.17 295.85 122.63C295.31 122.67 294.78 122.95 294.45 123.44Z" fill="#8065E0"/>
<path d="M269.16 96.54C271.15 96.82 273 95.44 273.28 93.44C273.56 91.45 272.18 89.6 270.18 89.32C268.19 89.04 266.34 90.42 266.06 92.42C265.78 94.41 267.16 96.26 269.16 96.54Z" fill="#D8CFF7"/>
<path d="M311.59 131.72L308.47 127.95C304.16 131.25 300.19 134.05 296.11 135.02C287.99 136.95 280.81 129.94 278.95 127.89L274.52 131.77C280.54 136.81 292.18 148.37 311.59 131.72Z" fill="url(#paint10_linear)"/>
<path d="M310.97 127.18L311.96 122.61C312.22 121.39 311.4 120.26 310.13 120.08C308.86 119.9 307.63 120.74 307.38 121.96L306.37 126.64L310.97 127.18Z" fill="#8A6FE8"/>
<path d="M275.29 133.6C277.91 133.97 280.35 132.15 280.72 129.52C281.09 126.9 279.27 124.46 276.64 124.09C274.02 123.72 271.58 125.54 271.21 128.17C270.84 130.79 272.67 133.22 275.29 133.6Z" fill="url(#paint11_radial)"/>
<path d="M309.83 134.25L314.62 133.25C315.89 132.97 316.7 131.79 316.43 130.61C316.16 129.42 314.91 128.68 313.63 128.96L308.72 129.99L309.83 134.25Z" fill="#8A6FE8"/>
<path d="M311.89 129.53L315.3 126.03C316.2 125.09 316.21 123.66 315.32 122.83C314.43 122 312.97 122.09 312.07 123.03L308.57 126.62L311.89 129.53Z" fill="#8A6FE8"/>
<path d="M311.97 131.82L316.29 129.53C317.44 128.91 317.89 127.55 317.29 126.49C316.69 125.43 315.28 125.07 314.14 125.68L309.71 128.02L311.97 131.82Z" fill="#8A6FE8"/>
<path d="M304.69 127.85C305.96 125.53 308.93 124.55 311.33 125.66C313.72 126.77 314.64 129.53 313.37 131.86C312.1 134.18 309.13 135.16 306.73 134.05C304.33 132.95 303.42 130.17 304.69 127.85Z" fill="url(#paint12_radial)"/>
<path d="M229.39 151.52C229.2 150.43 229.82 149.39 230.77 149.2L349.24 126.77C350.19 126.59 351.13 127.34 351.32 128.44C351.47 129.28 351.14 130.12 350.49 130.54C350.32 130.65 350.13 130.73 349.93 130.76L231.46 153.19C231 153.28 230.52 153.15 230.13 152.84C229.75 152.52 229.48 152.06 229.39 151.52Z" fill="#EDF7F6"/>
<path d="M228.18 154.42C228.35 152.82 229.28 151.49 230.71 150.91L349.78 128.57C351.19 128.6 352.5 129.51 353.2 130.95L359.23 143.27C359.86 144.55 359.92 146.03 359.4 147.33C358.88 148.63 357.87 149.5 356.64 149.73L231.29 173.27C230.05 173.5 228.82 173.05 227.89 172.02C226.97 170.99 226.53 169.59 226.68 168.16L228.18 154.42Z" fill="#84817D"/>
<path d="M229.12 157.1L355.02 133.46C394.63 132.12 416.87 140.12 421.67 153.44L173.4 200.05C173.43 185.83 191.56 170.24 229.12 157.1Z" fill="url(#paint13_linear)"/>
<path d="M365 151.82C367.05 151.44 368.41 149.39 368.04 147.26C367.67 145.13 365.71 143.71 363.66 144.09C361.61 144.47 360.25 146.52 360.62 148.65C361 150.78 362.96 152.2 365 151.82Z" fill="white"/>
<path d="M336.99 157.08C339.04 156.7 340.4 154.65 340.03 152.52C339.66 150.39 337.7 148.97 335.65 149.35C333.6 149.73 332.24 151.78 332.61 153.91C332.98 156.04 334.94 157.46 336.99 157.08Z" fill="white"/>
<path d="M308.98 162.34C311.03 161.96 312.39 159.91 312.02 157.78C311.65 155.65 309.69 154.23 307.64 154.61C305.59 154.99 304.23 157.04 304.6 159.17C304.97 161.3 306.93 162.72 308.98 162.34Z" fill="white"/>
<path d="M280.96 167.6C283.01 167.22 284.37 165.17 284 163.04C283.63 160.91 281.67 159.49 279.62 159.87C277.57 160.25 276.21 162.3 276.58 164.43C276.95 166.56 278.91 167.98 280.96 167.6Z" fill="white"/>
<path d="M252.95 172.86C255 172.48 256.36 170.43 255.99 168.3C255.62 166.17 253.66 164.75 251.61 165.13C249.56 165.51 248.2 167.56 248.57 169.69C248.94 171.82 250.9 173.24 252.95 172.86Z" fill="white"/>
<path d="M224.93 178.12C226.98 177.74 228.34 175.69 227.97 173.56C227.6 171.43 225.64 170.01 223.59 170.39C221.54 170.77 220.18 172.82 220.55 174.95C220.93 177.08 222.89 178.5 224.93 178.12Z" fill="white"/>
<path d="M417.57 147.02L175.07 192.55C173.97 195.08 173.41 197.58 173.4 200.05L421.68 153.43C420.84 151.13 419.45 148.99 417.57 147.02Z" fill="url(#paint14_linear)"/>
<defs>
<linearGradient id="paint0_linear" x1="47.9345" y1="229.302" x2="454.839" y2="96.6702" gradientUnits="userSpaceOnUse">
<stop offset="0.1499" stop-color="#138FAB"/>
<stop offset="0.6542" stop-color="#28C2D1"/>
<stop offset="1" stop-color="#28C2D1"/>
</linearGradient>
<radialGradient id="paint1_radial" cx="0" cy="0" r="1" gradientUnits="userSpaceOnUse" gradientTransform="translate(382.441 101.983) rotate(-8.28486) scale(274.76)">
<stop stop-color="#88DDE5"/>
<stop offset="1" stop-color="#28C2D1"/>
</radialGradient>
<linearGradient id="paint2_linear" x1="437.642" y1="186.388" x2="478.039" y2="180.506" gradientUnits="userSpaceOnUse">
<stop offset="0.0208" stop-color="#88DDE5" stop-opacity="0.3"/>
<stop offset="1" stop-color="#88DDE5"/>
</linearGradient>
<linearGradient id="paint3_linear" x1="343.173" y1="236.472" x2="256.813" y2="138.117" gradientUnits="userSpaceOnUse">
<stop stop-color="#F2F7FE"/>
<stop offset="0.1709" stop-color="#B3AFAB"/>
</linearGradient>
<radialGradient id="paint4_radial" cx="0" cy="0" r="1" gradientUnits="userSpaceOnUse" gradientTransform="translate(343.022 278.88) rotate(-8.28486) scale(191.441)">
<stop stop-color="#88DDE5"/>
<stop offset="1" stop-color="#28C2D1"/>
</radialGradient>
<linearGradient id="paint5_linear" x1="178.763" y1="116.553" x2="125.986" y2="133.67" gradientUnits="userSpaceOnUse">
<stop offset="0.0208" stop-color="#88DDE5" stop-opacity="0.3"/>
<stop offset="1" stop-color="#88DDE5"/>
</linearGradient>
<linearGradient id="paint6_linear" x1="300.058" y1="125.974" x2="302.889" y2="82.3729" gradientUnits="userSpaceOnUse">
<stop offset="0.6669" stop-color="white" stop-opacity="0.7"/>
<stop offset="1" stop-color="#BBF1FD"/>
</linearGradient>
<radialGradient id="paint7_radial" cx="0" cy="0" r="1" gradientUnits="userSpaceOnUse" gradientTransform="translate(273.723 113.744) rotate(-21.0095) scale(22.2499)">
<stop offset="0.4744" stop-color="#A08BE8"/>
<stop offset="0.8618" stop-color="#8065E0"/>
</radialGradient>
<radialGradient id="paint8_radial" cx="0" cy="0" r="1" gradientUnits="userSpaceOnUse" gradientTransform="translate(293.68 123.593) rotate(-21.0094) scale(17.0933)">
<stop offset="0.2022" stop-color="#E1DFDD"/>
<stop offset="0.7337" stop-color="white"/>
</radialGradient>
<radialGradient id="paint9_radial" cx="0" cy="0" r="1" gradientUnits="userSpaceOnUse" gradientTransform="translate(271.025 101.891) rotate(-21.0095) scale(3.84869)">
<stop stop-color="#8065E0"/>
<stop offset="0.8628" stop-color="#512BD4"/>
</radialGradient>
<linearGradient id="paint10_linear" x1="279.556" y1="119.698" x2="305.882" y2="141.992" gradientUnits="userSpaceOnUse">
<stop offset="0.3344" stop-color="#9780E6"/>
<stop offset="0.8488" stop-color="#8A6FE8"/>
</linearGradient>
<radialGradient id="paint11_radial" cx="0" cy="0" r="1" gradientUnits="userSpaceOnUse" gradientTransform="translate(275.786 126.838) rotate(-10.8137) scale(7.12752)">
<stop stop-color="#8065E0"/>
<stop offset="0.8628" stop-color="#512BD4"/>
</radialGradient>
<radialGradient id="paint12_radial" cx="0" cy="0" r="1" gradientUnits="userSpaceOnUse" gradientTransform="translate(307.885 127.349) rotate(160.997) scale(8.3299 7.77398)">
<stop stop-color="#8065E0"/>
<stop offset="0.8628" stop-color="#512BD4"/>
</radialGradient>
<linearGradient id="paint13_linear" x1="347.263" y1="99.3457" x2="247.203" y2="249.292" gradientUnits="userSpaceOnUse">
<stop stop-color="#F2F7FE"/>
<stop offset="0.178" stop-color="#E6E4E3"/>
</linearGradient>
<linearGradient id="paint14_linear" x1="419.845" y1="181.601" x2="175.594" y2="165.741" gradientUnits="userSpaceOnUse">
<stop stop-color="white" stop-opacity="0.4"/>
<stop offset="0.1927" stop-color="#BBB8B4"/>
</linearGradient>
</defs>
</svg>
