<svg width="636" height="300" viewBox="0 0 636 300" fill="none" xmlns="http://www.w3.org/2000/svg">
<path d="M387.63 211.85L163.97 215.37L166.35 51.1599L388.95 69.8099L387.63 211.85Z" fill="#FDD490"/>
<path d="M388.3 188.65C388.37 188.6 388.46 188.56 388.52 188.49C388.64 188.36 388.74 188.2 388.8 188.02C388.87 187.85 388.9 187.66 388.9 187.47C388.9 187.29 388.87 187.11 388.81 186.94C388.75 186.77 388.65 186.62 388.54 186.49C388.42 186.37 388.28 186.27 388.13 186.21C387.98 186.15 387.81 186.12 387.65 186.13H387.44C385.91 185 384.9 182.1 384.94 178.66L384.04 178.65C384.01 182.1 382.94 184.99 381.39 186.11H381.18C381.02 186.1 380.85 186.13 380.69 186.19C380.53 186.25 380.39 186.35 380.27 186.47C380.15 186.6 380.05 186.75 379.98 186.92C379.91 187.09 379.88 187.27 379.87 187.45C379.87 187.64 379.9 187.83 379.96 188C380.02 188.18 380.12 188.33 380.23 188.47C380.29 188.54 380.38 188.58 380.45 188.63H377.09C377.06 185.63 376.54 182.67 375.52 179.89C374.44 176.95 372.85 174.27 370.83 172C368.94 169.88 366.71 168.19 364.25 166.94H364.34C364.35 165.81 363.95 164.73 363.23 163.92C362.63 163.25 361.86 162.83 361.02 162.69C360.95 162.2 360.85 161.71 360.68 161.25C360.39 160.46 359.96 159.73 359.42 159.12C358.87 158.51 358.22 158.01 357.5 157.67C357.14 157.5 356.78 157.37 356.4 157.28L356.57 140.44C356.57 140.28 356.54 140.11 356.49 139.96C356.43 139.81 356.35 139.67 356.24 139.55C356.13 139.43 356 139.34 355.86 139.28C355.72 139.22 355.57 139.19 355.42 139.2C355.27 139.19 355.13 139.21 354.99 139.27C354.85 139.32 354.73 139.41 354.63 139.52C354.53 139.63 354.44 139.76 354.39 139.9C354.34 140.04 354.31 140.2 354.31 140.36L354.14 157.22C354.18 157.21 354.22 157.22 354.26 157.21C353.44 157.35 352.65 157.67 351.94 158.16C350.96 158.85 350.19 159.85 349.73 161.02C349.55 161.48 349.43 161.97 349.36 162.46C348.51 162.57 347.71 162.97 347.09 163.62C346.34 164.41 345.91 165.5 345.89 166.64H345.97C344.78 167.19 343.62 167.85 342.52 168.62C338.72 171.3 335.73 175.14 333.94 179.68C332.82 182.52 332.2 185.54 332.1 188.59L317.52 188.58L317.42 197.54L341.9 197.41C342.3 196.91 342.72 196.44 343.16 196C349.47 195.9 357.46 195.09 364.09 193.91C365.4 194.85 366.59 195.96 367.6 197.27L390.48 197.15L390.56 188.63L388.3 188.65Z" fill="#F7B548"/>
<path d="M249.37 188.58C249.46 188.52 249.56 188.48 249.64 188.4C249.78 188.25 249.9 188.08 249.98 187.89C250.06 187.7 250.1 187.5 250.1 187.29C250.1 187.09 250.06 186.89 249.99 186.71C249.91 186.53 249.8 186.36 249.66 186.22C249.52 186.08 249.35 185.98 249.17 185.91C248.99 185.84 248.79 185.81 248.59 185.82H248.33C246.49 184.58 245.29 181.4 245.33 177.62L244.24 177.61C244.19 181.39 242.9 184.56 241.02 185.8H240.76C240.56 185.79 240.36 185.82 240.17 185.89C239.98 185.96 239.81 186.06 239.66 186.2C239.51 186.34 239.39 186.51 239.31 186.69C239.23 186.87 239.18 187.07 239.18 187.28C239.18 187.49 239.21 187.69 239.28 187.88C239.36 188.07 239.47 188.25 239.61 188.39C239.69 188.47 239.79 188.51 239.88 188.57H235.83C235.8 185.28 235.18 182.02 233.96 178.97C232.67 175.74 230.75 172.79 228.32 170.3C226.05 167.97 223.35 166.1 220.39 164.73H220.49C220.5 163.49 220.03 162.3 219.16 161.4C218.44 160.66 217.5 160.2 216.49 160.04C216.41 159.5 216.29 158.97 216.08 158.46C215.73 157.59 215.22 156.79 214.56 156.12C213.9 155.45 213.12 154.9 212.25 154.53C211.82 154.34 211.37 154.2 210.92 154.1L211.17 135.58C211.17 135.4 211.14 135.22 211.07 135.05C211 134.88 210.9 134.73 210.76 134.6C210.63 134.47 210.47 134.37 210.3 134.31C210.13 134.24 209.94 134.21 209.76 134.22C209.58 134.21 209.41 134.23 209.24 134.29C209.08 134.35 208.93 134.44 208.8 134.56C208.67 134.68 208.57 134.82 208.51 134.98C208.44 135.14 208.41 135.31 208.41 135.49L208.16 154.03C208.21 154.02 208.26 154.03 208.31 154.02C207.31 154.17 206.36 154.52 205.5 155.06C204.31 155.82 203.38 156.91 202.82 158.2C202.6 158.71 202.46 159.25 202.36 159.79C201.33 159.91 200.36 160.34 199.61 161.06C198.7 161.93 198.17 163.13 198.15 164.38H198.25C196.8 164.99 195.4 165.7 194.06 166.56C189.45 169.5 185.82 173.73 183.63 178.72C182.26 181.85 181.5 185.18 181.38 188.54L163.67 188.53L163.53 198.41L193.25 198.25C193.73 197.7 194.25 197.19 194.78 196.69C202.42 196.58 212.09 195.68 220.11 194.38C221.69 195.41 223.12 196.64 224.34 198.07L251.92 197.92L252.04 188.57L249.37 188.58Z" fill="#F7B548"/>
<path d="M384.52 182.54L164.01 181.49L163.58 211.44L384.28 208.5L384.52 182.54Z" fill="#D18F33"/>
<path d="M208.9 245.1L226.87 245.93L327.54 250.6L327.51 253.02C327.52 253.6 327.15 254.2 326.47 254.23L240.54 257.97C240.41 257.98 240.29 257.96 240.17 257.92L209.68 248.87C209.08 248.69 208.85 248.19 208.88 247.7H208.86L208.9 245.1Z" fill="#625F5B"/>
<path d="M240.56 255.37L326.48 251.77C327.66 251.72 327.95 249.94 326.83 249.58L299.62 240.89C299.51 240.85 299.39 240.84 299.28 240.84L210.12 243.86C208.74 243.91 208.4 245.83 209.7 246.22L240.19 255.32C240.31 255.36 240.44 255.37 240.56 255.37Z" fill="#84817D"/>
<path d="M264.5 206.18L252.23 248.35L247.16 247.06L259.05 206.24L264.5 206.18Z" fill="#625F5B"/>
<path d="M252.15 248.36L289.31 246.95L300.76 205.79L264.19 206.18L252.15 248.36Z" fill="#797672"/>
<path d="M163.1 212.77L165.53 45.15L160.63 44.72C157.92 44.48 155.68 46.4 155.64 49L153.2 214.84C153.16 217.47 155.35 219.55 158.08 219.5L163.01 219.41L163.1 212.77Z" fill="#B3AFAB"/>
<path d="M326.02 79.51L322.65 79.26L322.43 99.48L325.8 99.68L326.02 79.51Z" fill="#F7B548"/>
<path d="M339.64 137.79L307.76 136.68L307.25 182.13L339.17 182.28L339.64 137.79Z" fill="#E29E3B"/>
<path d="M324.18 93.39C328.39 93.68 332.37 95.54 335.29 98.54C338.19 101.53 339.8 105.43 339.78 109.4L339.48 138.02L307.75 136.92L308.08 107.69C308.11 103.65 309.83 99.87 312.87 97.19C315.89 94.51 319.96 93.15 324.18 93.39Z" fill="#F7B548"/>
<path d="M320.08 132.52L327.43 132.8L327.57 119.47C327.58 118.96 327.5 118.44 327.32 117.96C327.14 117.47 326.88 117.03 326.54 116.65C326.2 116.27 325.8 115.96 325.36 115.74C324.91 115.52 324.44 115.4 323.95 115.38C322.98 115.35 322.04 115.72 321.35 116.42C320.65 117.12 320.25 118.09 320.22 119.13L320.08 132.52Z" fill="#E29E3B"/>
<path d="M307.68 132.05L315.14 132.33L315.29 118.89C315.29 117.85 314.9 116.84 314.22 116.07C313.53 115.3 312.6 114.83 311.61 114.77C310.62 114.74 309.68 115.11 308.97 115.82C308.26 116.53 307.85 117.5 307.83 118.55L307.68 132.05Z" fill="#E29E3B"/>
<path d="M332.29 132.99L339.51 133.26L339.65 120.04C339.66 119.53 339.58 119.02 339.4 118.54C339.23 118.06 338.97 117.62 338.64 117.24C338.31 116.86 337.91 116.56 337.48 116.34C337.04 116.12 336.57 116 336.1 115.99C335.15 115.96 334.23 116.33 333.54 117.02C332.86 117.71 332.46 118.68 332.44 119.7L332.29 132.99Z" fill="#E29E3B"/>
<path d="M339.77 109.4L308.07 107.68L308.04 110.64L339.74 112.3L339.77 109.4Z" fill="#E29E3B"/>
<path d="M241.86 163.4L160.89 162.06L161.03 152.69L241.97 154.49C245.93 154.58 249.18 151.4 249.23 147.4L249.41 132.71C249.52 123.83 256.69 116.94 265.31 117.35L387.94 123.05L387.87 131.13L265.21 126.12C261.35 125.96 258.15 129.06 258.1 133.03L257.92 147.64C257.81 156.47 250.65 163.54 241.86 163.4Z" fill="white"/>
<path d="M239.87 160.02L237.66 159.98L237.69 157.75L239.9 157.79L239.87 160.02ZM233.21 159.89L230.98 159.85L231.01 157.61L233.24 157.65L233.21 159.89ZM226.5 159.77L224.25 159.73L224.28 157.48L226.53 157.53L226.5 159.77ZM219.72 159.64L217.45 159.6L217.48 157.34L219.75 157.39L219.72 159.64ZM212.89 159.52L210.6 159.48L210.63 157.21L212.92 157.26L212.89 159.52ZM206 159.39L203.69 159.35L203.72 157.07L206.03 157.12L206 159.39ZM199.05 159.26L196.72 159.22L196.75 156.93L199.08 156.98L199.05 159.26ZM192.04 159.13L189.69 159.09L189.72 156.79L192.07 156.84L192.04 159.13ZM184.97 158.99L182.6 158.95L182.63 156.64L185 156.69L184.97 158.99ZM177.84 158.86L175.45 158.82L175.48 156.5L177.87 156.55L177.84 158.86ZM170.64 158.73L168.23 158.69L168.26 156.36L170.67 156.41L170.64 158.73ZM163.38 158.59L160.95 158.54L160.98 156.2L163.41 156.25L163.38 158.59ZM244.49 159.84L244.07 157.65C244.72 157.53 245.36 157.34 245.97 157.1L246.79 159.17C246.06 159.46 245.28 159.69 244.49 159.84ZM250.79 156.58L249.28 154.96C249.76 154.5 250.19 154 250.57 153.46L252.34 154.77C251.89 155.41 251.37 156.02 250.79 156.58ZM254.32 150.4L252.21 149.85C252.36 149.21 252.46 148.54 252.49 147.88L254.66 148.02C254.62 148.82 254.51 149.63 254.32 150.4ZM254.72 143.56L252.55 143.5L252.58 141.29L254.75 141.36L254.72 143.56ZM254.81 136.93L252.64 136.86L252.67 134.65L254.84 134.73L254.81 136.93ZM255.14 130.58L253.03 130.01C253.21 129.23 253.47 128.47 253.8 127.74L255.77 128.7C255.5 129.31 255.29 129.94 255.14 130.58ZM258.02 125.54L256.52 123.91C257.09 123.37 257.71 122.88 258.37 122.47L259.55 124.35C259 124.69 258.49 125.09 258.02 125.54ZM263.13 122.96L262.71 120.79C263.47 120.66 264.26 120.6 265.04 120.62L265.05 122.81C264.41 122.8 263.76 122.85 263.13 122.96ZM387.9 128.09L387.23 128.06L387.25 126.04L387.92 126.07L387.9 128.09ZM383.59 127.9L381.76 127.82L381.78 125.79L383.61 125.87L383.59 127.9ZM378.1 127.67L376.26 127.59L376.28 125.55L378.12 125.63L378.1 127.67ZM372.56 127.43L370.7 127.35L370.72 125.31L372.58 125.39L372.56 127.43ZM366.98 127.19L365.11 127.11L365.13 125.06L367 125.14L366.98 127.19ZM361.35 126.95L359.47 126.87L359.49 124.81L361.37 124.89L361.35 126.95ZM355.68 126.7L353.78 126.62L353.8 124.55L355.7 124.63L355.68 126.7ZM349.97 126.46L348.06 126.38L348.08 124.3L349.99 124.38L349.97 126.46ZM344.21 126.21L342.28 126.13L342.3 124.05L344.23 124.14L344.21 126.21ZM338.41 125.96L336.47 125.88L336.49 123.79L338.43 123.88L338.41 125.96ZM332.56 125.71L330.6 125.63L330.62 123.53L332.58 123.62L332.56 125.71ZM326.67 125.46L324.69 125.38L324.71 123.27L326.69 123.36L326.67 125.46ZM320.73 125.2L318.74 125.11L318.76 122.99L320.75 123.08L320.73 125.2ZM314.74 124.95L312.73 124.86L312.75 122.73L314.76 122.82L314.74 124.95ZM308.7 124.69L306.68 124.6L306.7 122.47L308.72 122.56L308.7 124.69ZM302.61 124.43L300.57 124.34L300.59 122.2L302.63 122.29L302.61 124.43ZM296.48 124.16L294.42 124.07L294.44 121.92L296.5 122.01L296.48 124.16ZM290.29 123.9L288.22 123.81L288.25 121.65L290.32 121.74L290.29 123.9ZM284.05 123.63L281.96 123.54L281.99 121.37L284.08 121.46L284.05 123.63ZM277.77 123.36L275.66 123.27L275.69 121.09L277.8 121.18L277.77 123.36ZM271.43 123.09L269.3 123L269.33 120.81L271.45 120.9L271.43 123.09Z" fill="#F7B548"/>
<path d="M241.97 160.67L256.69 160.94" stroke="#C740B6" stroke-width="2.0654" stroke-miterlimit="10"/>
<path d="M241.92 164.36L256.64 164.59" stroke="#C740B6" stroke-width="2.0654" stroke-miterlimit="10"/>
<path d="M241.87 168.05L256.59 168.25" stroke="#C740B6" stroke-width="2.0654" stroke-miterlimit="10"/>
<path d="M241.83 171.73L256.55 171.9" stroke="#C740B6" stroke-width="2.0654" stroke-miterlimit="10"/>
<path d="M241.78 175.42L256.5 175.55" stroke="#C740B6" stroke-width="2.0654" stroke-miterlimit="10"/>
<path d="M241.73 179.11L256.46 179.21" stroke="#C740B6" stroke-width="2.0654" stroke-miterlimit="10"/>
<path d="M300.44 160.23C300.39 165.26 298.92 170.16 296.21 174.32C293.49 178.5 289.63 181.76 285.11 183.69C280.56 185.63 275.54 186.14 270.68 185.14C265.79 184.13 261.29 181.64 257.76 177.97C254.21 174.29 251.81 169.59 250.87 164.49C249.93 159.38 250.5 154.11 252.5 149.37C254.5 144.63 257.83 140.64 262.05 137.91C266.25 135.19 271.15 133.83 276.1 134C279.37 134.11 282.6 134.88 285.58 136.27C288.56 137.65 291.24 139.62 293.49 142.06C295.73 144.49 297.5 147.35 298.69 150.47C299.88 153.58 300.47 156.89 300.44 160.23Z" fill="#D18F33"/>
<path d="M235.67 211.11C235.67 211.11 230.36 207.98 231.41 198.59C232.54 189.29 233.05 185.36 230.33 181.14C235.85 182.4 236.09 191.96 235.85 196.39C235.61 200.82 237.9 208.99 243.54 211.01L235.67 211.11Z" fill="#E29E3B"/>
<path d="M218.51 181.82C218.51 181.82 224.61 187.45 224.69 195.23C224.69 203.01 228.68 210.36 232.81 212.54L241.08 212.42C241.08 212.42 233.5 209.83 231.56 202.33C229.53 194.74 224.46 184.11 218.51 181.82Z" fill="#E29E3B"/>
<path d="M312.73 210.05C312.73 210.05 317.57 206.96 316.84 198.09C316.03 189.29 315.65 185.57 318.18 181.59C313.19 182.73 312.76 191.83 312.88 196.04C313 200.25 310.74 208.08 305.53 210.15L312.73 210.05Z" fill="#E29E3B"/>
<path d="M328.57 182.34C328.57 182.34 323.12 187.57 322.88 194.87C322.72 202.17 319.02 209.16 315.28 211.34L307.78 211.45C307.78 211.45 314.72 208.78 316.63 201.64C318.6 194.44 323.31 184.43 328.57 182.34Z" fill="#E29E3B"/>
<path d="M308.66 162.06L241.51 160.84L240.91 208.17L308.15 207.37L308.66 162.06Z" fill="#D18F33"/>
<path d="M289.87 190.9L260.69 190.93L260.48 207.94L289.68 207.59L289.87 190.9Z" fill="#F7B548"/>
<path d="M280.27 194.81L271.42 194.84L271.26 207.97L280.12 207.86L280.27 194.81Z" fill="#D18F33"/>
<path d="M245.45 165.7L237.42 165.58L236.83 211.47L244.87 211.36L245.45 165.7Z" fill="#E29E3B"/>
<path d="M312.28 166.71L304.92 166.6L304.43 210.53L311.8 210.43L312.28 166.71Z" fill="#E29E3B"/>
<path d="M312.25 168.91L304.89 168.81L304.83 174.3L312.19 174.37L312.25 168.91Z" fill="#E29E3B"/>
<path d="M245.42 168L237.39 167.89L237.32 173.62L245.35 173.7L245.42 168Z" fill="#E29E3B"/>
<path d="M264.33 199.08C264.49 186.16 275.42 184.29 276.29 169.06H275.94C274.28 176.26 262.64 184.08 257.69 194.74C256.1 197.82 255.48 201.32 255.92 204.75C256.36 208.17 257.84 211.34 260.14 213.81L268.83 213.67C268.83 213.66 264.17 212.36 264.33 199.08Z" fill="#E29E3B"/>
<path d="M264.52 168.53C266 185.07 256.08 188.88 255.93 200.59C255.79 212.21 262.55 213.75 262.55 213.75L254.06 213.88C254.06 213.88 244.28 208.69 249.61 194.76C254.92 180.84 259.27 183.78 264.52 168.53Z" fill="#E29E3B"/>
<path d="M287.55 168.84C285.73 185.13 295.19 188.9 295.06 200.3C294.93 211.62 288.41 213.34 288.41 213.34L296.52 213.21C296.52 213.21 305.79 207.93 301.14 194.57C296.47 181.06 292.26 183.9 287.55 168.84Z" fill="#E29E3B"/>
<path d="M293.51 194.61C289.01 184.16 277.77 176.27 276.29 169.05H275.94C276.46 184.3 287.18 186.21 287.03 198.94C286.88 212.02 282.28 213.45 282.28 213.45L290.72 213.32C292.98 210.84 294.47 207.71 294.96 204.36C295.46 201.01 294.95 197.61 293.51 194.61Z" fill="#E29E3B"/>
<path d="M267.12 150.61C267.1 152.05 266.52 153.42 265.52 154.42C264.51 155.42 263.15 155.97 261.74 155.94C261.04 155.92 260.36 155.76 259.72 155.47C259.08 155.18 258.5 154.76 258.02 154.24C257.54 153.72 257.16 153.11 256.9 152.44C256.65 151.77 256.53 151.06 256.54 150.35C256.58 147.43 261.89 142.84 261.89 142.84C261.89 142.84 267.16 147.71 267.12 150.61Z" fill="#E29E3B"/>
<path d="M294.86 151.3C294.85 152 294.71 152.68 294.45 153.32C294.19 153.96 293.81 154.53 293.33 155.01C292.85 155.49 292.29 155.87 291.67 156.12C291.05 156.37 290.39 156.5 289.72 156.48C289.05 156.47 288.39 156.31 287.77 156.03C287.15 155.75 286.59 155.34 286.12 154.84C285.65 154.33 285.28 153.74 285.03 153.09C284.78 152.44 284.66 151.74 284.66 151.04C284.69 148.17 289.9 143.67 289.9 143.67C289.9 143.67 294.89 148.45 294.86 151.3Z" fill="#E29E3B"/>
<path d="M242.04 147.58L241.04 147.55C240.99 151.51 239.48 154.8 237.55 155.87L245.31 156.03C243.4 154.9 241.99 151.55 242.04 147.58Z" fill="#F7B548"/>
<path d="M309.13 149.37L308.13 149.34C308.09 153.13 306.8 156.29 304.94 157.31L312.13 157.46C310.3 156.36 309.09 153.16 309.13 149.37Z" fill="#F7B548"/>
<path d="M282.7 133.15C282.68 134.48 269.9 135.29 269.65 133.96C269.41 132.63 269.55 131.27 270.07 130.04C270.58 128.82 271.44 127.78 272.53 127.08C273.62 126.37 274.89 126.02 276.19 126.06C277.06 126.09 277.92 126.3 278.72 126.68C279.52 127.05 280.24 127.59 280.84 128.25C281.44 128.91 281.92 129.68 282.24 130.52C282.56 131.36 282.72 132.25 282.7 133.15Z" fill="#E29E3B"/>
<path d="M286.29 136.59L265.8 135.88C265.82 134.68 266.3 133.54 267.13 132.72C267.97 131.9 269.09 131.47 270.26 131.51L282.03 131.95C283.18 131.99 284.27 132.51 285.07 133.38C285.86 134.25 286.3 135.41 286.29 136.59Z" fill="#F7B548"/>
<path d="M281.16 147.37C281.14 148.79 280.58 150.13 279.6 151.11C278.62 152.09 277.3 152.62 275.92 152.59C274.54 152.56 273.22 151.96 272.26 150.93C271.29 149.9 270.76 148.51 270.78 147.09C270.81 144.2 276.04 139.67 276.04 139.67C276.04 139.67 281.19 144.5 281.16 147.37Z" fill="#E29E3B"/>
<path d="M276.19 126.07C276.63 126.09 277.07 126.15 277.49 126.26L277.7 108.53C277.7 108.36 277.67 108.18 277.61 108.02C277.55 107.86 277.45 107.71 277.33 107.58C277.21 107.46 277.07 107.36 276.91 107.29C276.75 107.22 276.58 107.19 276.42 107.2C276.26 107.19 276.1 107.21 275.95 107.26C275.8 107.31 275.66 107.4 275.55 107.51C275.43 107.62 275.34 107.76 275.28 107.91C275.22 108.06 275.19 108.23 275.19 108.39L274.98 126.14C275.37 126.07 275.78 126.05 276.19 126.07Z" fill="#E29E3B"/>
<path d="M296.29 159.62C290.74 154.39 283.52 151.39 275.94 151.2C268.28 151.01 260.78 153.7 254.84 158.81L234.21 158.41L234.09 167.86L261.33 168.23C263.16 166.11 265.4 164.43 267.91 163.3C270.41 162.17 273.11 161.61 275.82 161.66C278.53 161.71 281.18 162.36 283.61 163.56C286.03 164.76 288.17 166.49 289.88 168.62L315.24 168.97L315.34 160.01L296.29 159.62Z" fill="#F7B548"/>
<path d="M245.36 158.58L237.42 158.42C237.01 158.4 236.62 158.22 236.34 157.92C236.05 157.62 235.89 157.22 235.89 156.81C235.91 156.41 236.09 156.03 236.38 155.76C236.67 155.49 237.06 155.35 237.46 155.36L245.4 155.53C245.59 155.53 245.78 155.57 245.96 155.65C246.14 155.73 246.3 155.84 246.43 155.98C246.56 156.12 246.67 156.29 246.74 156.47C246.81 156.65 246.84 156.84 246.84 157.04C246.84 157.44 246.69 157.83 246.42 158.12C246.13 158.41 245.76 158.58 245.36 158.58Z" fill="#D18F33"/>
<path d="M312.1 159.89L304.91 159.75C304.72 159.75 304.54 159.71 304.36 159.63C304.19 159.55 304.03 159.44 303.9 159.29C303.77 159.15 303.67 158.98 303.6 158.79C303.53 158.61 303.5 158.41 303.5 158.21C303.5 158.02 303.54 157.83 303.62 157.65C303.69 157.47 303.8 157.32 303.94 157.19C304.07 157.06 304.23 156.96 304.41 156.9C304.58 156.84 304.77 156.81 304.95 156.83L312.14 156.98C312.32 156.97 312.5 157 312.67 157.07C312.84 157.14 312.99 157.24 313.12 157.38C313.25 157.51 313.35 157.68 313.42 157.85C313.49 158.03 313.53 158.22 313.52 158.41C313.52 158.61 313.48 158.8 313.41 158.98C313.34 159.16 313.23 159.33 313.1 159.46C312.97 159.6 312.81 159.7 312.64 159.78C312.47 159.86 312.29 159.9 312.1 159.89Z" fill="#D18F33"/>
<path d="M389.37 64.7099L164.5 45.0599C161.8 44.8199 159.57 46.7399 159.53 49.3399L157.11 214.79C157.07 217.41 159.25 219.49 161.96 219.44L387.97 215.34C389.99 215.3 391.64 213.45 391.66 211.2L392.96 69.0699C392.98 66.8399 391.38 64.8899 389.37 64.7099ZM383.16 202.93C383.15 204.49 382 205.76 380.59 205.78L172.04 208.16C170.19 208.18 168.72 206.75 168.74 204.96L170.82 59.8899C170.85 58.1099 172.36 56.7899 174.19 56.9399L381.82 73.6899C383.22 73.7999 384.34 75.1499 384.32 76.6999L383.16 202.93Z" fill="#625F5B"/>
<path d="M173.58 137.27L87.8501 134.55L88.7101 81.6299L174.3 86.9699L173.58 137.27Z" fill="#60DEFA"/>
<path d="M188.15 85.4199L174.11 84.5199L173.32 139.97L187.38 140.39C190.77 140.49 193.54 137.9 193.59 134.6L194.18 91.7699C194.22 88.4899 191.53 85.6399 188.15 85.4199Z" fill="#9C9894"/>
<path d="M87.02 78.9699L72.06 78.0099C68.16 77.7599 64.94 80.4399 64.88 83.9999L64.1 130.24C64.04 133.8 67.17 136.79 71.08 136.91L86.07 137.36L87.02 78.9699Z" fill="#9C9894"/>
<path d="M80.1697 97.08C80.1297 99.65 77.8197 101.61 74.9997 101.47C72.1697 101.33 69.9097 99.12 69.9497 96.54C69.9897 93.96 72.3297 91.99 75.1497 92.15C77.9697 92.3 80.2097 94.51 80.1697 97.08Z" fill="#625F5B"/>
<path d="M77.4498 108.1C77.4298 109.29 76.3598 110.2 75.0598 110.15C73.7498 110.09 72.7098 109.08 72.7298 107.88C72.7498 106.69 73.8298 105.77 75.1298 105.83C76.4298 105.9 77.4698 106.91 77.4498 108.1Z" fill="#625F5B"/>
<path d="M77.3001 116.95C77.2801 118.14 76.2101 119.06 74.9001 119.01C73.5901 118.96 72.5501 117.95 72.5701 116.75C72.5901 115.56 73.6701 114.64 74.9701 114.69C76.2801 114.75 77.3201 115.76 77.3001 116.95Z" fill="#625F5B"/>
<path d="M79.9 110.49C81.2 110.55 82.23 111.56 82.21 112.74C82.19 113.93 81.13 114.84 79.83 114.79C78.53 114.73 77.49 113.72 77.51 112.54C77.53 111.34 78.6 110.43 79.9 110.49Z" fill="#625F5B"/>
<path d="M70.1098 114.37C68.7998 114.31 67.7498 113.3 67.7698 112.1C67.7898 110.9 68.8698 109.98 70.1798 110.04C71.4898 110.1 72.5398 111.11 72.5198 112.31C72.4998 113.5 71.4198 114.43 70.1098 114.37Z" fill="#625F5B"/>
<path d="M180.57 117.86C180.6 115.44 182.65 113.57 185.13 113.69C187.6 113.8 189.57 115.85 189.54 118.26C189.51 120.67 187.48 122.54 185.01 122.44C182.52 122.33 180.53 120.28 180.57 117.86Z" fill="#625F5B"/>
<path d="M182.96 107.48C182.98 106.36 183.92 105.51 185.06 105.56C186.2 105.62 187.12 106.57 187.1 107.68C187.08 108.79 186.15 109.65 185 109.6C183.86 109.54 182.94 108.59 182.96 107.48Z" fill="#625F5B"/>
<path d="M183.07 99.1699C183.09 98.0499 184.03 97.1999 185.17 97.2699C186.31 97.3299 187.23 98.2899 187.21 99.3999C187.19 100.51 186.26 101.37 185.11 101.3C183.98 101.24 183.06 100.28 183.07 99.1699Z" fill="#625F5B"/>
<path d="M180.79 105.23C179.64 105.17 178.72 104.22 178.73 103.1C178.75 101.98 179.69 101.12 180.84 101.19C181.99 101.25 182.91 102.21 182.89 103.32C182.88 104.43 181.94 105.29 180.79 105.23Z" fill="#625F5B"/>
<path d="M189.37 101.64C190.51 101.7 191.42 102.65 191.4 103.76C191.38 104.87 190.45 105.72 189.31 105.67C188.17 105.61 187.26 104.66 187.27 103.55C187.29 102.43 188.23 101.58 189.37 101.64Z" fill="#625F5B"/>
<path d="M128.71 97.2699L163.28 99.1599L159.88 103.9L132.04 102.42L128.71 97.2699Z" fill="#1DACCC"/>
<path d="M132.51 90.2799L132.46 93.7299L136.23 93.9499L136.28 90.4999L140.41 90.7399L140.35 94.1799L144.09 94.3899L144.14 90.9599L148.23 91.1999L148.18 94.6199L151.88 94.8299L151.93 91.4199L155.97 91.6599L155.92 95.0599L159.59 95.2699L159.64 91.8799L163.38 92.0999L163.28 99.1599L128.71 97.2699L128.82 90.0599L132.51 90.2799Z" fill="#BBF1FD"/>
<path d="M131.52 136.71L159.43 137.48L159.92 103.86L132.04 102.42L131.52 136.71Z" fill="#29C3E5"/>
<path d="M140.8 136.23L140.99 123.51C141.02 121.72 142.55 120.11 144.75 119.9C147.59 119.62 150.02 121.46 149.99 123.66L149.8 136.73L140.8 136.23Z" fill="#1DACCC"/>
<path d="M123.64 102.02L120.98 101.88L117.56 84.5499L111.16 84.1499L107.16 101.16L103.35 100.96C102.72 100.93 102.21 101.3 102.2 101.79L101.67 135.22L125 135.96L125.5 103.58C125.5 102.78 124.67 102.07 123.64 102.02Z" fill="#1DACCC"/>
<path d="M111.07 116.46L116.1 116.67L116.23 108.25L111.21 108.01L111.07 116.46Z" fill="#29C3E5"/>
<path d="M111.01 133.31L87.3901 132.53L87.5501 122.75L111.16 123.66C111.91 123.69 112.53 123.14 112.54 122.45L112.63 116.42C112.72 110.41 118.02 105.78 124.4 106.1L173.55 108.52L173.42 117.81L124.26 115.67C123.52 115.64 122.91 116.18 122.9 116.87L122.81 122.86C122.7 128.83 117.43 133.52 111.01 133.31Z" fill="white"/>
<path d="M106.72 129.54L104.12 129.45L104.16 127.03L106.76 127.12L106.72 129.54ZM98.8898 129.27L96.2598 129.18L96.2999 126.75L98.9298 126.85L98.8898 129.27ZM90.9898 128.99L88.3398 128.9L88.3798 126.46L91.0298 126.56L90.9898 128.99ZM112.07 129.67L111.78 127.27C112.47 127.21 113.13 127.03 113.73 126.73L114.99 128.86C114.09 129.31 113.1 129.58 112.07 129.67ZM118.69 124.52L116.22 123.82C116.34 123.43 116.4 123.02 116.4 122.6L116.41 121.74L118.98 121.84L118.97 122.7C118.95 123.32 118.86 123.94 118.69 124.52ZM119.05 117.05L116.48 116.94L116.49 116.59C116.5 115.76 116.66 114.96 116.97 114.2L119.38 115.1C119.18 115.61 119.07 116.15 119.06 116.7L119.05 117.05ZM122.09 112.44L121.03 110.22C121.96 109.85 122.96 109.67 123.99 109.67L124.07 112.06C123.38 112.07 122.72 112.19 122.09 112.44ZM175.84 114.43L173.44 114.32L173.47 112L175.87 112.11L175.84 114.43ZM168.63 114.1L166.21 113.99L166.24 111.66L168.66 111.77L168.63 114.1ZM161.36 113.77L158.92 113.66L158.95 111.32L161.39 111.43L161.36 113.77ZM154.02 113.44L151.56 113.33L151.59 110.98L154.05 111.1L154.02 113.44ZM146.62 113.1L144.14 112.99L144.18 110.63L146.66 110.75L146.62 113.1ZM139.15 112.76L136.65 112.65L136.69 110.28L139.19 110.4L139.15 112.76ZM131.62 112.41L129.09 112.29L129.13 109.91L131.66 110.03L131.62 112.41Z" fill="#F7B548"/>
<path d="M85.74 78.8899L84.79 137.32L175.49 140.05L176.28 84.6799L85.74 78.8899ZM170.9 135.35L90.02 132.69L90.82 83.4799L171.58 88.4399L170.9 135.35Z" fill="#625F5B"/>
<path d="M496.83 232.6L371.5 236.71L372.45 138.18L497.43 142.61L496.83 232.6Z" fill="#ED9583"/>
<path d="M445.52 198.65L402.16 198.94L402.02 215.16L445.4 214.37L445.52 198.65Z" fill="#E26854"/>
<path d="M410.51 198.89C407.66 199.26 404.8 199.54 402.16 199.71L402.11 204.95C416.79 206.47 431.37 206.29 445.48 204.47L445.52 199.39C443.08 199.26 440.48 199.03 437.87 198.71L410.51 198.89Z" fill="#CC5444"/>
<path d="M453.48 211.63L393.36 212.61L393.14 236.48L453.3 234.49L453.48 211.63Z" fill="#E26854"/>
<path d="M417.2 216.24L415.06 216.28L414.89 235.75L417.04 235.68L417.2 216.24Z" fill="#CC5444"/>
<path d="M432.9 215.94L430.8 215.98L430.64 235.23L432.74 235.16L432.9 215.94Z" fill="#CC5444"/>
<path d="M453.47 212.8L451.44 212.83L451.27 234.55L453.31 234.48L453.47 212.8Z" fill="#CC5444"/>
<path d="M395.56 213.8L393.35 213.84L393.14 236.48L395.35 236.41L395.56 213.8Z" fill="#CC5444"/>
<path d="M430.76 220.96L417.16 221.27L417.04 235.68L430.65 235.23L430.76 220.96Z" fill="#E97762"/>
<path d="M427.05 221.05L420.92 221.19L420.8 235.56L426.94 235.36L427.05 221.05Z" fill="#CC5444"/>
<path d="M406.38 221.52L395.49 221.77L395.36 236.4L406.26 236.04L406.38 221.52Z" fill="#E97762"/>
<path d="M403.4 221.59L398.5 221.7L398.37 236.3L403.27 236.14L403.4 221.59Z" fill="#CC5444"/>
<path d="M451.38 220.49L441.18 220.72L441.07 234.88L451.28 234.54L451.38 220.49Z" fill="#E97762"/>
<path d="M448.59 220.56L444 220.66L443.89 234.79L448.48 234.64L448.59 220.56Z" fill="#CC5444"/>
<path d="M443.05 197.23L441.59 190.47C436.35 190.87 430.52 191.07 424.25 191.08C417.93 191.09 411.94 190.89 406.49 190.5L404.82 197.5C399.13 197.93 393.38 198.07 387.6 197.91L387.59 199.5C392.42 202.23 407.11 204.12 424.15 203.95C440.78 203.78 454.53 201.67 458.96 199L458.97 197.49C453.69 197.7 448.38 197.62 443.05 197.23Z" fill="#E97762"/>
<path d="M393.33 216.39C400.38 217.89 411.58 218.77 424.01 218.51C436.22 218.25 446.89 216.95 453.45 215.25L453.47 212.26C451.14 212.29 448.8 212.12 446.5 211.74L400.72 212.49C398.29 212.89 395.83 213.12 393.36 213.17L393.33 216.39Z" fill="#CC5444"/>
<path d="M453.42 219.42L393.29 220.74L393.28 221.81L453.41 220.44L453.42 219.42Z" fill="#CC5444"/>
<path d="M411.53 235.87L409.86 235.92L409.99 220.93L411.66 220.89L411.53 235.87Z" fill="#CC5444"/>
<path d="M437.83 235L436.22 235.05L436.34 220.34L437.95 220.31L437.83 235Z" fill="#CC5444"/>
<path d="M445.44 209.59L402.06 210.23C393.08 211.85 387.47 210.75 387.47 210.75L387.46 212.34C392.29 215.08 406.99 216.84 424.03 216.51C440.66 216.19 454.42 213.96 458.86 211.19L458.87 209.68C458.87 209.68 454.07 211.13 445.44 209.59Z" fill="#E97762"/>
<path d="M405.96 191.52L404.83 196.29H404.54L404.49 201.97C404.95 202.02 405.4 202.05 405.86 202.06L405.96 191.52Z" fill="#E26854"/>
<path d="M411.43 191C410.98 191 410.52 190.95 410.07 190.95L409.97 202.37C410.42 202.42 410.87 202.45 411.33 202.46L411.43 191Z" fill="#E26854"/>
<path d="M414.15 191.1C413.7 191.11 413.24 191.09 412.79 191.05L412.69 202.55C413.14 202.55 413.6 202.59 414.05 202.59L414.15 191.1Z" fill="#E26854"/>
<path d="M422.24 191.29H420.9L420.8 202.77L422.15 202.76L422.24 191.29Z" fill="#E26854"/>
<path d="M419.55 191.24H418.2L418.1 202.7C418.55 202.74 419 202.75 419.45 202.74L419.55 191.24Z" fill="#E26854"/>
<path d="M416.86 191.2C416.41 191.21 415.95 191.19 415.51 191.15L415.41 202.63C415.86 202.68 416.32 202.67 416.76 202.72L416.86 191.2Z" fill="#E26854"/>
<path d="M397.62 197.7L396.23 197.71L396.2 200.82C396.61 200.92 397.07 200.97 397.59 201.06L397.62 197.7Z" fill="#E26854"/>
<path d="M424.82 202.74L424.92 191.29H423.58L423.48 202.75L424.82 202.74Z" fill="#E26854"/>
<path d="M387.77 198.37C388.22 198.64 388.71 198.86 389.23 199.03L389.24 197.75C388.54 197.7 388.07 197.71 387.78 197.71L387.77 198.37Z" fill="#E26854"/>
<path d="M392.04 197.78C391.52 197.78 391.05 197.73 390.64 197.74L390.62 199.48C391.03 199.63 391.49 199.78 392.01 199.93L392.04 197.78Z" fill="#E26854"/>
<path d="M403.16 197.41C402.7 197.41 402.24 197.47 401.78 197.47L401.74 201.64C402.2 201.69 402.66 201.79 403.12 201.83L403.16 197.41Z" fill="#E26854"/>
<path d="M393.42 200.28C393.83 200.38 394.29 200.48 394.81 200.58L394.84 197.77L393.45 197.78L393.42 200.28Z" fill="#E26854"/>
<path d="M400.4 197.58C399.94 197.58 399.47 197.64 399.01 197.64L398.98 201.31C399.38 201.36 399.85 201.4 400.37 201.5L400.4 197.58Z" fill="#E26854"/>
<path d="M407.24 202.2C407.69 202.25 408.15 202.28 408.61 202.29L408.71 190.86C408.25 190.86 407.8 190.81 407.34 190.81L407.24 202.2Z" fill="#E26854"/>
<path d="M451.08 197.58L449.8 197.59L449.78 200.64C450.26 200.54 450.69 200.48 451.07 200.38L451.08 197.58Z" fill="#E26854"/>
<path d="M442.06 191.46L441.98 201.73C442.42 201.72 442.85 201.68 443.28 201.62L443.32 196.09C443.24 196.05 443.14 196.03 443.05 196.04L442.06 191.46Z" fill="#E26854"/>
<path d="M448.5 197.55C448.07 197.51 447.64 197.5 447.21 197.51L447.18 201.1C447.66 201 448.1 200.95 448.47 200.89L448.5 197.55Z" fill="#E26854"/>
<path d="M453.64 197.62L452.35 197.63L452.33 200.13C452.82 200.03 453.24 199.93 453.62 199.82L453.64 197.62Z" fill="#E26854"/>
<path d="M454.91 199.47C455.39 199.32 455.82 199.17 456.19 199.02L456.2 197.56C455.83 197.56 455.4 197.61 454.92 197.62L454.91 199.47Z" fill="#E26854"/>
<path d="M432.88 191.13C432.44 191.17 432 191.19 431.56 191.18L431.47 202.58C431.91 202.53 432.35 202.52 432.79 202.47L432.88 191.13Z" fill="#E26854"/>
<path d="M435.52 191.02C435.08 191.06 434.64 191.08 434.2 191.07L434.11 202.39C434.55 202.39 434.99 202.33 435.43 202.33L435.52 191.02Z" fill="#E26854"/>
<path d="M427.58 191.29H426.25L426.15 202.73L427.48 202.72L427.58 191.29Z" fill="#E26854"/>
<path d="M430.24 191.23H428.92L428.83 202.65C429.27 202.65 429.71 202.63 430.15 202.59L430.24 191.23Z" fill="#E26854"/>
<path d="M445.91 197.42C445.48 197.42 445.05 197.38 444.61 197.38L444.58 201.47C445.01 201.42 445.44 201.31 445.88 201.26L445.91 197.42Z" fill="#E26854"/>
<path d="M438.15 190.93C437.71 190.93 437.27 190.98 436.84 190.98L436.75 202.23C437.19 202.22 437.63 202.18 438.07 202.12L438.15 190.93Z" fill="#E26854"/>
<path d="M440.77 190.77C440.33 190.77 439.9 190.82 439.46 190.82L439.37 202C439.81 201.99 440.25 201.95 440.68 201.89L440.77 190.77Z" fill="#E26854"/>
<path d="M405.79 210.43L404.7 210.3H404.41L404.37 214.77L405.74 214.9L405.79 210.43Z" fill="#E26854"/>
<path d="M411.26 210.34C410.81 210.32 410.35 210.33 409.9 210.36L409.86 215.17C410.31 215.16 410.77 215.2 411.22 215.2L411.26 210.34Z" fill="#E26854"/>
<path d="M413.98 210.3C413.53 210.28 413.07 210.29 412.62 210.32L412.58 215.27C413.03 215.3 413.48 215.31 413.94 215.29L413.98 210.3Z" fill="#E26854"/>
<path d="M422.08 210.18L420.73 210.2L420.69 215.42L422.04 215.39L422.08 210.18Z" fill="#E26854"/>
<path d="M419.39 210.22L418.04 210.24L418 215.42L419.35 215.39L419.39 210.22Z" fill="#E26854"/>
<path d="M416.69 210.26L415.33 210.28L415.29 215.37C415.74 215.35 416.2 215.36 416.65 215.4L416.69 210.26Z" fill="#E26854"/>
<path d="M397.5 210.75L396.11 210.77L396.08 213.68C396.53 213.79 397 213.87 397.47 213.91L397.5 210.75Z" fill="#E26854"/>
<path d="M424.71 215.35L424.75 210.14L423.41 210.16L423.37 215.37L424.71 215.35Z" fill="#E26854"/>
<path d="M387.65 211.31C388.1 211.58 388.59 211.8 389.11 211.96L389.12 210.88C388.42 210.89 387.95 210.85 387.66 210.85L387.65 211.31Z" fill="#E26854"/>
<path d="M391.92 210.89L390.52 210.91L390.51 212.45C390.92 212.55 391.38 212.69 391.9 212.84L391.92 210.89Z" fill="#E26854"/>
<path d="M403.04 210.42C402.58 210.48 402.12 210.48 401.66 210.54L401.63 214.46C402.09 214.54 402.55 214.6 403.01 214.64L403.04 210.42Z" fill="#E26854"/>
<path d="M393.3 213.17C393.71 213.27 394.17 213.36 394.69 213.45L394.71 210.84L393.32 210.86L393.3 213.17Z" fill="#E26854"/>
<path d="M400.28 210.61C399.82 210.62 399.35 210.68 398.89 210.68L398.86 214.14C399.26 214.18 399.73 214.23 400.25 214.32L400.28 210.61Z" fill="#E26854"/>
<path d="M407.12 214.97C407.57 215.02 408.03 215.05 408.49 215.05L408.53 210.39C408.08 210.37 407.62 210.38 407.16 210.41L407.12 214.97Z" fill="#E26854"/>
<path d="M450.98 209.95L449.7 209.97L449.68 213.02C450.12 212.96 450.55 212.88 450.97 212.75L450.98 209.95Z" fill="#E26854"/>
<path d="M441.92 209.89L441.89 214.24L443.19 214.07L443.22 209.72C443.13 209.72 443.03 209.71 442.95 209.67L441.92 209.89Z" fill="#E26854"/>
<path d="M448.4 209.94C447.97 209.95 447.54 209.9 447.11 209.91L447.08 213.51C447.56 213.4 448 213.34 448.37 213.29L448.4 209.94Z" fill="#E26854"/>
<path d="M453.55 209.96L452.26 209.98L452.24 212.48C452.73 212.37 453.15 212.27 453.53 212.16L453.55 209.96Z" fill="#E26854"/>
<path d="M454.81 211.8C455.29 211.65 455.72 211.49 456.09 211.39L456.1 209.92L454.82 209.94L454.81 211.8Z" fill="#E26854"/>
<path d="M432.73 210.02L431.41 210.04L431.37 215.12C431.81 215.07 432.25 215.05 432.69 215.05L432.73 210.02Z" fill="#E26854"/>
<path d="M435.37 209.98C434.93 209.96 434.49 209.97 434.05 210L434.01 214.92C434.45 214.92 434.89 214.9 435.33 214.85L435.37 209.98Z" fill="#E26854"/>
<path d="M427.42 210.1L426.09 210.12L426.05 215.32L427.38 215.3L427.42 210.1Z" fill="#E26854"/>
<path d="M430.08 210.06L428.76 210.08L428.72 215.22L430.04 215.2L430.08 210.06Z" fill="#E26854"/>
<path d="M445.82 209.83C445.39 209.84 444.96 209.79 444.52 209.8L444.49 213.9C444.93 213.85 445.36 213.78 445.79 213.68L445.82 209.83Z" fill="#E26854"/>
<path d="M438 209.95C437.56 209.93 437.12 209.94 436.68 209.97L436.64 214.73C437.08 214.72 437.52 214.66 437.96 214.66L438 209.95Z" fill="#E26854"/>
<path d="M440.61 209.91C440.17 209.89 439.74 209.9 439.3 209.93L439.26 214.49C439.7 214.47 440.14 214.43 440.57 214.37L440.61 209.91Z" fill="#E26854"/>
<path d="M458.97 196.7H458.92C453.92 196.92 448.88 196.84 443.82 196.49L442.3 189.64L441.54 189.74C436.14 190.09 430.36 190.29 424.26 190.29C418.1 190.29 412.18 190.1 406.56 189.75L405.76 189.65L404.04 196.75C398.64 197.15 393.17 197.26 387.68 197.09H387.62L387.6 198.73C393.4 198.89 399.17 198.75 404.88 198.31L405.57 198.26L407.23 191.41C412.63 191.76 418.38 191.89 424.25 191.88C430.08 191.87 435.69 191.71 440.88 191.36L442.34 197.98L442.99 198.03C448.34 198.41 453.67 198.49 458.96 198.27L458.97 196.7Z" fill="#F9BDAA"/>
<path d="M407.82 187.67H405.59L405.56 190.51H407.79L407.82 187.67Z" fill="#F9BDAA"/>
<path d="M442.53 187.71H440.41L440.39 190.48H442.51L442.53 187.71Z" fill="#F9BDAA"/>
<path d="M407.36 207.01L403.98 207.05L403.96 209.49L407.34 209.44L407.36 207.01Z" fill="#CC5444"/>
<path d="M412.03 206.95L408.62 206.99L408.6 209.42L412.01 209.37L412.03 206.95Z" fill="#CC5444"/>
<path d="M416.61 206.89L413.28 206.93L413.26 209.35L416.59 209.3L416.61 206.89Z" fill="#CC5444"/>
<path d="M421.21 206.84L417.9 206.88L417.88 209.29L421.19 209.24L421.21 206.84Z" fill="#CC5444"/>
<path d="M425.79 206.78L422.45 206.82L422.43 209.23L425.77 209.18L425.79 206.78Z" fill="#CC5444"/>
<path d="M430.27 206.72L427 206.76L426.98 209.16L430.25 209.11L430.27 206.72Z" fill="#CC5444"/>
<path d="M434.79 206.67L431.54 206.71L431.52 209.1L434.77 209.05L434.79 206.67Z" fill="#CC5444"/>
<path d="M439.28 206.61L436 206.65L435.98 209.03L439.26 208.98L439.28 206.61Z" fill="#CC5444"/>
<path d="M443.68 206.56L440.48 206.6L440.46 208.98L443.66 208.93L443.68 206.56Z" fill="#CC5444"/>
<path d="M458.88 209H458.83L458.67 209.05C457.07 209.51 452.27 210.12 445.61 208.94L445.56 208.89L401.96 209.51L401.9 209.56C393.27 211.11 387.72 210.07 387.66 210.02H387.49L387.48 211.46C388.53 211.65 393.96 212.44 402.12 210.93L445.38 210.27C453.11 211.62 457.85 210.67 458.87 210.41L458.88 209Z" fill="#F9BDAA"/>
<path d="M374.29 134.29L371.78 134.19C369.12 134.09 366.93 136.38 366.9 139.32L365.92 239.72C365.89 242.67 368.04 244.98 370.71 244.87L373.22 244.77L374.29 134.29Z" fill="#B3AFAB"/>
<path d="M533.76 254.91C533.77 253.69 533.77 252.91 533.77 252.5C533.77 252.17 499.36 241.97 499.36 241.97L369.2 244.15L369.18 245.78C369.18 245.78 369.2 247.21 370.56 247.71C371.92 248.21 408.38 261.44 408.38 261.44C410.26 262.12 412.24 262.42 414.23 262.31L532.82 256.14C533.59 256.1 533.77 255.67 533.76 254.91Z" fill="#9C9894"/>
<path d="M533.09 253.55L414.26 259.49C412.27 259.59 410.29 259.29 408.41 258.61L369.13 244.28L499.38 239.34L533.32 251.89C534.05 252.15 533.86 253.51 533.09 253.55Z" fill="#CCCAC7"/>
<path d="M497.33 201.6L442.59 202.11C435.61 202.17 429.93 195.61 429.99 187.49L430.14 169.64C430.17 165.85 427.51 162.72 424.19 162.65L372.14 161.65L372.22 153.47L424.25 154.76C431.34 154.94 437.01 161.65 436.94 169.73L436.8 187.49C436.77 191.27 439.4 194.33 442.65 194.32L497.38 194.12L497.33 201.6Z" fill="white"/>
<path d="M495.14 198.81L493.58 198.82L493.59 196.94L495.15 196.93L495.14 198.81ZM490.46 198.85L488.89 198.86L488.9 196.98L490.47 196.97L490.46 198.85ZM485.75 198.88L484.17 198.89L484.18 197L485.76 196.99L485.75 198.88ZM481.01 198.92L479.42 198.93L479.43 197.03L481.02 197.02L481.01 198.92ZM476.24 197.05L476.23 198.95L474.63 198.96L474.64 197.06L476.24 197.05ZM471.42 198.98L469.8 199L469.81 197.09L471.42 197.08V198.98ZM466.57 199.02L464.95 199.03L464.96 197.11L466.58 197.1L466.57 199.02ZM461.69 199.05L460.05 199.06L460.06 197.14L461.7 197.13L461.69 199.05ZM456.77 199.09L455.12 199.1L455.13 197.17L456.78 197.16L456.77 199.09ZM451.81 199.12L450.15 199.13L450.17 197.19L451.83 197.18L451.81 199.12ZM446.82 199.16L445.15 199.17L445.17 197.23L446.84 197.22L446.82 199.16ZM441.73 199.15C441.12 199.09 440.51 198.97 439.93 198.79L440.39 196.91C440.88 197.06 441.38 197.17 441.89 197.21L441.73 199.15ZM436.64 196.96C436.15 196.54 435.69 196.07 435.27 195.55L436.51 194.2C436.86 194.63 437.24 195.02 437.65 195.37L436.64 196.96ZM433.29 192C433.06 191.34 432.88 190.65 432.76 189.96L434.43 189.55C434.53 190.13 434.68 190.7 434.87 191.25L433.29 192ZM434.27 185.85H432.57L432.59 183.89L434.29 183.9L434.27 185.85ZM434.31 179.98L432.61 179.97L432.63 178.01L434.33 178.02L434.31 179.98ZM434.36 174.11L432.66 174.09L432.68 172.13L434.38 172.15L434.36 174.11ZM432.63 168.34C432.57 167.76 432.46 167.17 432.3 166.6L433.92 166.02C434.11 166.7 434.24 167.4 434.32 168.11L432.63 168.34ZM430.84 163.47C430.52 163 430.16 162.57 429.77 162.17L430.89 160.7C431.36 161.17 431.79 161.7 432.17 162.26L430.84 163.47ZM427.11 160.33C426.62 160.12 426.12 159.96 425.61 159.85L425.9 157.91C426.51 158.04 427.12 158.23 427.71 158.49L427.11 160.33ZM422.3 159.65L420.57 159.61L420.59 157.63L422.32 157.67L422.3 159.65ZM417.1 159.54L415.36 159.5L415.38 157.52L417.12 157.56L417.1 159.54ZM411.86 159.43L410.1 159.39L410.12 157.4L411.88 157.44L411.86 159.43ZM406.57 159.32L404.8 159.28L404.82 157.28L406.59 157.32L406.57 159.32ZM401.25 159.21L399.47 159.17L399.49 157.16L401.27 157.2L401.25 159.21ZM395.89 159.09L394.09 159.05L394.11 157.04L395.91 157.08L395.89 159.09ZM390.48 158.98L388.67 158.94L388.69 156.92L390.5 156.96L390.48 158.98ZM385.04 158.86L383.22 158.82L383.24 156.79L385.06 156.83L385.04 158.86ZM379.55 158.74L377.71 158.7L377.73 156.66L379.57 156.7L379.55 158.74ZM374.02 158.62L372.17 158.58L372.19 156.54L374.04 156.58L374.02 158.62Z" fill="#F7B548"/>
<path d="M473.881 147.77L472.721 147.74L472.201 160.7L474.281 160.75L473.881 147.77Z" fill="#CC5444"/>
<path d="M465.951 164.92L471.591 159.56L474.891 159.63L480.451 165.04L465.951 164.92Z" fill="#CC5444"/>
<path d="M479.941 219.67L465.791 219.99L466.191 165.57L480.321 165.81L479.941 219.67Z" fill="#CC5444"/>
<path d="M471.99 171.56L469.48 171.53L469.52 165.77L472.04 165.81L471.99 171.56Z" fill="#E86E58"/>
<path d="M477.24 171.63L474.75 171.6L474.79 165.86L477.29 165.9L477.24 171.63Z" fill="#E86E58"/>
<path d="M483.951 164.34L462.921 163.94L462.911 164.69L464.781 166.25L481.871 166.54L483.951 164.88V164.34Z" fill="#FDC9B5"/>
<path d="M471.93 180.72L469.41 180.7L469.45 174.94L471.97 174.97L471.93 180.72Z" fill="#E86E58"/>
<path d="M477.18 180.75L474.68 180.74L474.72 175L477.22 175.02L477.18 180.75Z" fill="#E86E58"/>
<path d="M483.89 173.41L462.85 173.16L462.84 173.91L464.71 175.45L481.8 175.63L483.88 173.96L483.89 173.41Z" fill="#FDC9B5"/>
<path d="M471.86 189.88H469.34L469.38 184.12L471.9 184.13L471.86 189.88Z" fill="#E86E58"/>
<path d="M477.11 189.88H474.61L474.66 184.14L477.15 184.15L477.11 189.88Z" fill="#E86E58"/>
<path d="M483.821 182.49L462.781 182.38L462.771 183.14L464.641 184.66L481.741 184.72L483.821 183.04V182.49Z" fill="#FDC9B5"/>
<path d="M471.791 199.05L469.271 199.07L469.321 193.3L471.841 193.29L471.791 199.05Z" fill="#E86E58"/>
<path d="M477.051 199.01L474.551 199.03L474.591 193.28H477.091L477.051 199.01Z" fill="#E86E58"/>
<path d="M483.761 191.58L462.711 191.61L462.701 192.36L464.581 193.88L481.671 193.82L483.761 192.12V191.58Z" fill="#FDC9B5"/>
<path d="M471.73 208.22L469.21 208.25L469.25 202.48L471.77 202.46L471.73 208.22Z" fill="#E86E58"/>
<path d="M476.98 208.15L474.48 208.18L474.52 202.43L477.02 202.41L476.98 208.15Z" fill="#E86E58"/>
<path d="M483.701 200.66L462.641 200.84V201.59L464.511 203.09L481.611 202.92L483.691 201.2L483.701 200.66Z" fill="#FDC9B5"/>
<path d="M471.66 217.39L469.14 217.45L469.18 211.67L471.7 211.63L471.66 217.39Z" fill="#E86E58"/>
<path d="M476.92 217.28L474.42 217.34L474.46 211.59L476.96 211.55L476.92 217.28Z" fill="#E86E58"/>
<path d="M483.63 209.75L462.57 210.07V210.83L464.44 212.32L481.55 212.03L483.63 210.3V209.75Z" fill="#FDC9B5"/>
<path d="M486.79 239.25L458.73 240.3L464.25 218.55L481.76 218.17L486.79 239.25Z" fill="#E26854"/>
<path d="M496.93 138.98L373.63 134.27C370.98 134.17 368.79 136.46 368.77 139.39L367.8 239.66C367.77 242.6 369.91 244.91 372.58 244.81L496.27 240.06C498.49 239.97 500.29 237.74 500.31 235.06L500.91 143.95C500.92 141.29 499.14 139.07 496.93 138.98ZM494.53 229.12C494.53 229.86 494.02 230.47 493.41 230.49L376.12 234.13C375.39 234.15 374.81 233.52 374.82 232.71L375.68 142.27C375.69 141.47 376.28 140.84 377.01 140.86L494 144.81C494.61 144.83 495.1 145.44 495.1 146.18L494.53 229.12Z" fill="#625F5B"/>
</svg>
