<svg width="636" height="300" viewBox="0 0 636 300" fill="none" xmlns="http://www.w3.org/2000/svg">
<path d="M364.17 239.97L110.27 251.28L110.44 85.52L365.73 98L364.17 239.97Z" fill="#D5D3D0"/>
<path d="M365.54 115.84L365.73 98L110.44 85.52L110.42 106.37L365.54 115.84Z" fill="#84817D"/>
<path d="M110.28 243.94L110.27 251.29L364.17 239.97L364.24 233.67L110.28 243.94Z" fill="#B3AFAB"/>
<path d="M155.39 178.43L99.4301 178.63C93.5801 178.65 88.8101 174.77 88.8101 169.96V125.7C88.8101 120.87 93.6001 117.12 99.4601 117.32L155.55 119.26C160.97 119.45 165.33 123.33 165.31 127.93L165.18 170.09C165.17 174.68 160.8 178.41 155.39 178.43Z" fill="#33D5F9"/>
<path d="M121.36 128.52C120.33 128.75 119.29 129.03 118.28 129.4C116.89 129.9 115.58 130.5 114.37 131.2L116.18 135.62C114.96 136.44 113.89 137.38 112.97 138.42L107.44 137.44C106.04 139.42 105.04 141.61 104.49 143.9L109.32 146.23C109.11 147.76 109.16 149.33 109.49 150.89C108.23 151.55 106.12 152.6 104.78 153.27C105.06 154.17 105.4 155.07 105.83 155.95C106.42 157.16 107.13 158.3 107.94 159.35L113.1 157.84C114.13 158.97 115.31 159.95 116.61 160.77L115.42 165.47C117.71 166.63 120.22 167.43 122.82 167.84L125.65 163.64C127.11 163.73 128.6 163.67 130.07 163.43L132.72 167.45C133.79 167.19 134.85 166.87 135.89 166.47C137.31 165.92 138.64 165.26 139.86 164.51L138.05 160.22C139.26 159.36 140.33 158.37 141.23 157.29L146.29 158.44C147.7 156.39 148.68 154.13 149.19 151.78C147.74 151.18 145.7 150.32 144.55 149.81C144.73 148.45 144.71 147.05 144.46 145.66L149 143.48C148.72 142.44 148.36 141.4 147.88 140.37C147.29 139.11 146.57 137.92 145.74 136.83L140.98 138.48C139.94 137.29 138.73 136.26 137.39 135.39L138.82 130.94C136.67 129.77 134.31 128.91 131.84 128.42L129.45 132.55C127.68 132.33 125.87 132.34 124.05 132.6L121.36 128.52ZM136.34 144.65C138.45 149.13 136.07 154.29 131 156.2C125.89 158.12 119.98 156.03 117.81 151.51C115.64 146.97 118.08 141.74 123.24 139.87C128.37 138 134.23 140.16 136.34 144.65Z" fill="white"/>
<path d="M266.36 203.12L176.49 204.81V124.64L265.94 126.75L266.36 203.12Z" stroke="white" stroke-width="2.2678" stroke-miterlimit="10"/>
<path d="M454.2 214.02L231.41 220.53L232.31 65.8L456.15 80.22L454.2 214.02Z" fill="#F7B548"/>
<path d="M368.56 131.02L243.51 127.62L243.05 200.37L367.81 198.23L368.56 131.02Z" fill="#FFEED0"/>
<path d="M297.24 161.35L277.78 153.6L277.79 151.83L297.39 143.53L297.37 146.19L281.46 152.62L297.26 158.67L297.24 161.35Z" fill="#B3AFAB"/>
<path d="M314.05 139.92L303.04 165.69L299.73 165.68L310.78 139.86L314.05 139.92Z" fill="#B3AFAB"/>
<path d="M316.34 158.82L331.58 153.26L316.45 146.5L316.47 143.87L335 152.55L334.98 154.26L316.31 161.48L316.34 158.82Z" fill="#B3AFAB"/>
<path d="M351.22 176.73L264.19 176.99C263.08 176.99 262.18 176.21 262.18 175.24C262.19 174.27 263.1 173.48 264.21 173.48L351.25 173.41C352.25 173.41 353.05 174.15 353.04 175.07C353.03 175.98 352.21 176.72 351.22 176.73Z" fill="#F7B548"/>
<path d="M321.6 186.96L264.11 187.5C263 187.51 262.1 186.73 262.1 185.76C262.11 184.79 263.02 184 264.13 183.99L321.63 183.57C322.66 183.56 323.5 184.31 323.49 185.24C323.48 186.19 322.64 186.95 321.6 186.96Z" fill="#F7B548"/>
<path d="M352.22 122.4L312.64 121.11C307.98 120.96 304.2 117.66 304.24 113.75L304.36 99.98C304.39 96.06 308.23 93.07 312.89 93.31L352.5 95.3C356.91 95.52 360.43 98.77 360.39 102.55L360.25 115.83C360.22 119.6 356.63 122.54 352.22 122.4Z" fill="white"/>
<path d="M542.12 188.48L347.48 190.84L348.72 70.99L544 83.87L542.12 188.48Z" fill="#33D5F9"/>
<path d="M544 84.31L348.72 71.5L348.99 45.9L544.4 61.98L544 84.31Z" fill="#6D6A66"/>
<path d="M533.5 75.5001L360.01 63.0801L360.09 55.5601L533.62 68.8401L533.5 75.5001Z" fill="#84817D"/>
<path d="M434.55 109.78L512.16 113.12C515.81 113.28 518.8 110.57 518.86 107.08L519.01 98.4C519.07 94.9 516.17 91.89 512.52 91.68L434.87 87.12C430.77 86.88 427.39 89.71 427.34 93.44L427.22 102.7C427.16 106.44 430.45 109.6 434.55 109.78Z" fill="#27BEE0"/>
<path d="M498.38 130.34L439.6 128.57L439.67 124.08L498.45 126.04L498.38 130.34Z" fill="#1DACCC"/>
<path d="M432.68 128.36L427.25 128.2L427.31 123.67L432.74 123.85L432.68 128.36Z" fill="white"/>
<path d="M490.97 141.67L439.44 140.54L439.5 136.05L491.03 137.34L490.97 141.67Z" fill="#1DACCC"/>
<path d="M432.51 140.39L427.09 140.27L427.15 135.74L432.58 135.88L432.51 140.39Z" fill="white"/>
<path d="M506.421 153.41L439.271 152.5L439.331 148.02L506.491 149.14L506.421 153.41Z" fill="#1DACCC"/>
<path d="M432.35 152.4L426.92 152.33L426.98 147.81L432.41 147.9L432.35 152.4Z" fill="white"/>
<path d="M490.6 164.72L439.1 164.45L439.17 159.97L490.67 160.4L490.6 164.72Z" fill="#1DACCC"/>
<path d="M432.19 164.41L426.76 164.38L426.82 159.86L432.25 159.91L432.19 164.41Z" fill="white"/>
<path d="M410.74 181.39L358.42 181.72L359.54 77.4301L412.03 80.6901L410.74 181.39Z" fill="#A4ECFC"/>
<path d="M404.64 105.62L366.85 103.92L366.94 95.25L404.75 97.17L404.64 105.62Z" fill="#908D89"/>
<path d="M404.38 126.34L366.61 125.17L366.71 116.52L404.49 117.9L404.38 126.34Z" fill="#908D89"/>
<path d="M404.13 146.27L366.39 145.6L366.48 136.96L404.24 137.84L404.13 146.27Z" fill="#908D89"/>
<path d="M376.09 104.34L366.85 103.92L366.94 95.25L376.19 95.72L376.09 104.34Z" fill="white"/>
<path d="M375.85 125.46L366.61 125.17L366.71 116.52L375.95 116.86L375.85 125.46Z" fill="white"/>
<path d="M375.62 145.77L366.39 145.6L366.48 136.96L375.72 137.18L375.62 145.77Z" fill="white"/>
<path d="M561.2 175.57L515.72 175.69C512.81 175.7 510.48 173.43 510.52 170.64L511.61 105.47C511.66 102.66 514.07 100.5 516.99 100.65L562.56 103.04C565.28 103.18 567.43 105.49 567.38 108.18L566.2 170.7C566.14 173.38 563.91 175.56 561.2 175.57Z" fill="#BBF1FD"/>
<path d="M538.88 143.48C529.72 143.28 522.31 135.26 522.48 125.59C522.65 115.91 530.33 108.39 539.5 108.82C548.54 109.25 555.67 117.28 555.5 126.72C555.32 136.15 547.92 143.67 538.88 143.48ZM539.36 116.71C534.38 116.5 530.23 120.6 530.14 125.85C530.05 131.09 534.05 135.46 539.03 135.6C543.97 135.73 548.04 131.64 548.13 126.47C548.22 121.29 544.3 116.91 539.36 116.71Z" fill="#24BADB"/>
<path d="M539.5 108.81C537.91 108.73 536.36 108.9 534.89 109.28C535.34 111.3 535.97 114.22 536.59 117.05C537.47 116.79 538.4 116.67 539.36 116.71C544.3 116.91 548.22 121.29 548.13 126.46C548.04 131.47 544.22 135.46 539.49 135.58L540.31 143.43C548.69 142.86 555.34 135.65 555.5 126.71C555.67 117.27 548.54 109.24 539.5 108.81Z" fill="#33D5F9"/>
<path d="M548.12 126.46C548.09 128.18 547.62 129.77 546.83 131.14C545.23 133.89 542.32 135.69 539.02 135.6C538.58 135.59 538.15 135.53 537.73 135.46L537.74 143.4C538.12 143.44 538.49 143.48 538.88 143.48C544.64 143.6 549.73 140.6 552.71 135.96C554.41 133.32 555.43 130.14 555.49 126.72C555.62 120.27 548.2 122.57 548.12 126.46Z" fill="#0B7891"/>
<path d="M548.12 126.46C548.09 128.19 547.61 129.79 546.8 131.16L552.46 136.19L552.52 136.24C554.33 133.54 555.42 130.27 555.49 126.71C555.61 120.27 552.34 114.51 547.39 111.34L542.8 117.58C546 119.14 548.2 122.57 548.12 126.46Z" fill="#77E3FB"/>
<path d="M527.57 161.75L521.76 161.7L521.68 166.1L527.5 166.13L527.57 161.75Z" fill="#B3AFAB"/>
<path d="M537.53 154.49L531.8 154.41L531.6 166.14L537.33 166.17L537.53 154.49Z" fill="#B3AFAB"/>
<path d="M547.15 158.66L541.5 158.61L541.37 166.19L547.01 166.21L547.15 158.66Z" fill="#B3AFAB"/>
<path d="M556.85 150.8L551.28 150.71L551 166.23L556.56 166.26L556.85 150.8Z" fill="#B3AFAB"/>
</svg>
