<svg width="636" height="300" viewBox="0 0 636 300" fill="none" xmlns="http://www.w3.org/2000/svg">
<path d="M359.66 58.7799L209.05 68.9399L210.51 179.46C210.54 181.98 212.32 184.09 214.49 184.18L360.05 189.75L359.66 58.7799Z" fill="#D5E06D"/>
<path d="M321.62 181.95L345.04 184.34L344.44 189.15L350.25 189.37L352.77 169.41L360.01 168.75L360 166.7V165.51L353.19 166.14L356.15 142.66L355.83 142.21L359.92 138.85L359.91 134.81L354.01 139.67L343.79 125.37C348.17 121.36 353.47 116.49 359.84 110.63L359.81 102.19C352.89 108.59 346.05 114.89 340.03 120.43L326.4 103.93L350.43 87.2599L359.79 96.3599L359.78 92.0299L339.96 72.8299L359.7 65.6599V64.2699L359.69 62.2999L337.45 70.3899L327.7 60.9399L323.56 61.2199L334.24 71.5599L307.66 81.2299L298.04 69.5699L315.14 61.7899L307.23 62.3199L296.2 67.3399L292.86 63.2899L286.34 63.7299L285.59 63.7799L290.62 69.8799L271.93 78.3899L265.13 65.1599L263.78 65.2499L262.11 65.3599L268.61 78.0199L257.91 75.2999L259.39 65.5499L253.95 65.9199L252.56 75.1599L235.47 81.5299L234.28 67.2399L233.27 67.3099L231.66 67.4199L232.92 82.4799L212.78 89.9899L209.3 83.6099L209.33 87.5799L209.43 95.3999L221.06 116.42L209.69 114.87L209.72 116.86L209.73 117.93L222.88 119.74L234.96 141.7C233.61 143.39 232.78 145.66 232.81 148.17C232.81 148.44 232.86 148.7 232.88 148.96L223.57 152.91L209.81 124.52L209.83 125.84L209.89 130.74L221.12 153.95L210.26 158.56L210.35 165L223.25 159.57L225.26 171.13L239.28 174.98C236.43 178.07 233.21 181.56 230.19 184.81L233.98 184.96C236.37 182.38 239.21 179.31 242.62 175.61L256.5 177.93L272.34 167.03L275.88 186.57L277.49 186.63L281.42 186.78L277.65 165.97L295.31 167.87L294.84 187.29L297.63 187.4L298.09 168.17L319 170.42L318.7 188.2L320.82 188.28L321.51 188.31L321.62 181.95ZM345.38 181.58L321.66 179.15L321.81 170.13L335.19 159.14L346.33 173.91L345.38 181.58ZM321.88 166.1L322.24 144.41C323.33 143.67 325.47 141.89 330.16 137.71L333.7 156.36L321.88 166.1ZM346.84 169.94L337.36 157.37L349.69 147.24L346.84 169.94ZM349.36 143.48L336.17 154.34L332.6 135.53C334.5 133.82 336.72 131.81 339.35 129.41L349.36 143.48ZM336.73 73.9899L348.13 85.0399L337.18 92.6599L328.89 76.8399L336.73 73.9899ZM326.25 77.7999L334.87 94.2699L324.41 101.55L309.75 83.7999L326.25 77.7999ZM335.59 124.49C327.87 131.57 322.05 136.85 320.08 138.52C316.03 138.13 299.61 136.43 285.72 134.99L291.33 108.94L280.49 94.3499L303.83 85.9299L335.59 124.49ZM292.44 72.1099L301.73 83.3699L278.75 91.6999L273.19 80.8799L292.44 72.1099ZM257.47 78.0699L270.3 81.3299L276.11 92.6499L254.05 100.65L257.47 78.0699ZM277.69 95.3599L287.5 108.62L264.92 123.11L253.67 104.03L277.69 95.3599ZM259.78 125.35L246.06 125.55L238.51 112.41L248.63 106.39L259.78 125.35ZM252.07 78.3099L248.35 103.09L237.77 109.39L235.68 84.4099L252.07 78.3099ZM214.11 92.4599L233.14 85.3699L235.27 110.89L226.9 115.88L214.11 92.4599ZM228.32 118.47L236.16 113.81L244.68 128.66L261.59 128.44L265.38 134.88L247.36 142.59C245.84 140.27 243.48 138.74 240.82 138.72C240.39 138.72 239.97 138.79 239.56 138.86L228.32 118.47ZM267.54 140.6L270.08 154.6L260.78 156.71L257.79 144.74L267.54 140.6ZM227.68 168.88L225.86 158.44L235.01 154.59C236.26 156.17 237.94 157.28 239.83 157.63L240.72 172.47L227.68 168.88ZM238.01 148.21C237.99 146.34 239.28 144.83 240.88 144.85C242.48 144.87 243.8 146.4 243.82 148.28C243.84 150.15 242.55 151.66 240.95 151.64C239.34 151.62 238.03 150.08 238.01 148.21ZM255.85 174.68L243.36 172.61L242.46 157.62C246.23 156.87 249.09 153.08 249.09 148.44L255.19 145.85L258.74 160.04L270.58 157.35L271.74 163.73L255.85 174.68ZM271.02 133.46L266.33 125.51L287.91 111.66L282.96 134.7C278.4 134.22 274.22 133.79 271.02 133.46ZM277.05 162.75L272.91 139.91C276.53 140.3 280.49 140.72 284.54 141.16C286.64 145.62 291.19 156.49 294.51 164.62L277.05 162.75ZM319.04 167.21L297.67 164.94C292.47 152.16 289.51 145.25 287.76 141.49C301.26 142.93 314.94 144.38 319.41 144.82L319.04 167.21Z" fill="#B2C133"/>
<path d="M315.8 102.36C315.83 102.28 315.82 102.21 315.85 102.13C316.32 100.64 316.63 99.0599 316.62 97.3999C316.56 89.3599 310.38 82.8999 302.84 82.9899C295.34 83.0799 289.33 89.6099 289.39 97.5899C289.4 98.9199 289.63 100.18 289.95 101.4C289.97 101.77 290.05 102.14 290.2 102.5C290.28 102.7 290.39 102.95 290.48 103.18C290.49 103.19 290.49 103.21 290.5 103.22C293.31 109.93 303.18 130.25 303.18 130.25C303.39 129.8 312.17 111.1 315.22 103.76C315.41 103.35 315.58 102.93 315.73 102.49C315.76 102.45 315.79 102.4 315.8 102.36Z" fill="#3E8EED"/>
<path d="M308.43 97.4499C308.45 100.68 306.01 103.3 302.99 103.32C299.97 103.34 297.51 100.74 297.48 97.5299C297.46 94.3099 299.88 91.6899 302.9 91.6599C305.93 91.6299 308.41 94.2199 308.43 97.4499Z" fill="#A3C9F6"/>
<path d="M309.75 140.62C309.78 144.04 307.07 146.79 303.72 146.76C300.38 146.73 297.65 143.94 297.63 140.54C297.6 137.13 300.28 134.38 303.63 134.4C306.98 134.41 309.73 137.2 309.75 140.62Z" fill="white"/>
<path d="M410.09 38.8199L356.87 43.0099L357.03 189.63L409.59 191.64C412.13 191.74 414.21 189.77 414.22 187.25L414.75 43.1299C414.75 40.5499 412.66 38.6199 410.09 38.8199Z" fill="#84817D"/>
<path d="M406.171 162.24L375.741 161.54C375.351 161.53 375.041 161.2 375.041 160.81C375.041 160.41 375.361 160.1 375.751 160.11L406.181 160.78C406.591 160.79 406.921 161.13 406.921 161.53C406.911 161.93 406.581 162.25 406.171 162.24Z" fill="#A3C9F6"/>
<path d="M370.69 163.57C370.69 165.6 369.09 167.19 367.11 167.14C365.14 167.09 363.55 165.41 363.55 163.4C363.55 161.39 365.14 159.79 367.11 159.83C369.09 159.86 370.69 161.54 370.69 163.57Z" fill="#8DBCF4"/>
<path d="M406.151 168.12L375.741 167.28C375.351 167.27 375.041 166.94 375.041 166.54C375.041 166.14 375.361 165.83 375.741 165.84L406.161 166.64C406.571 166.65 406.901 166.99 406.901 167.39C406.901 167.81 406.561 168.13 406.151 168.12Z" fill="#A3C9F6"/>
<path d="M406.35 112.46L375.78 113.11C375.39 113.12 375.07 112.8 375.07 112.4C375.07 112 375.39 111.67 375.78 111.66L406.36 110.98C406.77 110.97 407.1 111.3 407.1 111.71C407.09 112.11 406.76 112.45 406.35 112.46Z" fill="#A3C9F6"/>
<path d="M370.7 115.38C370.7 117.42 369.09 119.11 367.11 119.14C365.13 119.17 363.54 117.55 363.53 115.52C363.53 113.49 365.13 111.8 367.1 111.76C369.08 111.71 370.7 113.33 370.7 115.38Z" fill="#8DBCF4"/>
<path d="M406.33 118.4L375.77 118.91C375.38 118.92 375.06 118.6 375.06 118.2C375.06 117.8 375.38 117.47 375.77 117.46L406.33 116.92C406.74 116.91 407.07 117.24 407.07 117.65C407.07 118.05 406.74 118.39 406.33 118.4Z" fill="#A3C9F6"/>
<path d="M391.77 124.5L375.77 124.69C375.38 124.69 375.06 124.37 375.06 123.98C375.06 123.58 375.38 123.25 375.77 123.25L391.77 123.04C392.17 123.03 392.5 123.36 392.49 123.76C392.5 124.16 392.17 124.49 391.77 124.5Z" fill="#A3C9F6"/>
<path d="M406.28 140.31L375.76 140.47C375.37 140.47 375.05 140.15 375.05 139.75C375.05 139.35 375.37 139.03 375.76 139.02L406.28 138.83C406.69 138.83 407.02 139.16 407.02 139.57C407.03 139.97 406.69 140.31 406.28 140.31Z" fill="#A3C9F6"/>
<path d="M370.69 142.65C370.69 144.69 369.08 146.34 367.1 146.34C365.13 146.34 363.53 144.7 363.53 142.67C363.53 140.64 365.12 138.99 367.1 138.98C369.08 138.97 370.69 140.62 370.69 142.65Z" fill="#8DBCF4"/>
<path d="M406.27 146.22L375.76 146.24C375.37 146.24 375.05 145.92 375.05 145.52C375.05 145.12 375.37 144.8 375.76 144.8L406.27 144.74C406.68 144.74 407.01 145.07 407.01 145.48C407.01 145.89 406.68 146.22 406.27 146.22Z" fill="#A3C9F6"/>
<path d="M406.48 69.41L375.79 71.11C375.4 71.13 375.08 70.82 375.08 70.42C375.08 70.02 375.4 69.67 375.79 69.65L406.48 67.91C406.89 67.89 407.23 68.2 407.22 68.62C407.23 69.04 406.89 69.39 406.48 69.41Z" fill="#A3C9F6"/>
<path d="M370.7 73.58C370.7 75.64 369.08 77.39 367.09 77.49C365.11 77.59 363.5 76.01 363.5 73.97C363.5 71.92 365.1 70.17 367.09 70.06C369.08 69.94 370.7 71.52 370.7 73.58Z" fill="#8DBCF4"/>
<path d="M406.46 75.39L375.79 76.95C375.4 76.97 375.08 76.6601 375.08 76.2601C375.08 75.8601 375.4 75.51 375.79 75.49L406.47 73.89C406.88 73.87 407.21 74.19 407.21 74.6C407.21 75.02 406.87 75.37 406.46 75.39Z" fill="#A3C9F6"/>
<path d="M406.39 90.13L375.78 91.13C375.39 91.14 375.07 90.83 375.07 90.43C375.07 90.03 375.39 89.69 375.78 89.68L406.4 88.65C406.81 88.64 407.14 88.96 407.14 89.37C407.14 89.77 406.8 90.11 406.39 90.13Z" fill="#A3C9F6"/>
<path d="M370.7 93.46C370.7 95.51 369.09 97.22 367.1 97.27C365.12 97.33 363.52 95.72 363.52 93.68C363.52 91.64 365.12 89.93 367.1 89.87C369.08 89.8 370.7 91.41 370.7 93.46Z" fill="#8DBCF4"/>
<path d="M406.37 96.08L375.77 96.94C375.38 96.95 375.06 96.64 375.06 96.23C375.06 95.83 375.38 95.5 375.77 95.48L406.37 94.5899C406.78 94.5799 407.11 94.9 407.11 95.31C407.12 95.72 406.78 96.06 406.37 96.08Z" fill="#A3C9F6"/>
<path d="M414.69 57.1L414.74 43.13C414.75 40.54 412.66 38.61 410.08 38.82L212.2 54.4C210.35 54.55 208.88 56.43 208.91 58.61L209.07 70.37L414.69 57.1Z" fill="#EEEDEC"/>
<path d="M374.35 53.89L250.08 62.48L250.03 56.83L374.35 47.63V53.89Z" fill="#CCCAC7"/>
<path d="M222.48 61.7499C222.5 63.4299 221.35 64.8799 219.91 64.9799C218.48 65.0799 217.3 63.7999 217.28 62.1199C217.26 60.4399 218.4 58.9999 219.83 58.8899C221.28 58.7899 222.46 60.0599 222.48 61.7499Z" fill="#CCCAC7"/>
<path d="M232.49 61.03C232.51 62.73 231.34 64.19 229.88 64.29C228.42 64.39 227.23 63.1 227.21 61.41C227.19 59.72 228.35 58.26 229.81 58.15C231.27 58.04 232.47 59.33 232.49 61.03Z" fill="#CCCAC7"/>
<path d="M242.67 60.2999C242.69 62.0099 241.49 63.4899 240.01 63.5899C238.53 63.6899 237.31 62.3899 237.29 60.6899C237.27 58.9799 238.46 57.5099 239.94 57.3999C241.43 57.2899 242.66 58.5899 242.67 60.2999Z" fill="#CCCAC7"/>
<path d="M419.42 27.95L414.47 28.32L417.59 180.54L204.59 177.07V195.8L423.24 198.35C423.24 198.35 426.01 196.65 426.01 193.24C426.01 189.83 426.01 34.16 426.01 34.16C426.02 30.46 423.06 27.68 419.42 27.95Z" fill="#B3AFAB"/>
<path d="M304.66 44.96L308.16 44.72V40.96L304.66 41.21V44.96Z" fill="#B3AFAB"/>
<path d="M416.63 27.95L207.13 43.39C204.19 43.61 201.81 46.47 201.81 49.79V195.8L423.23 198.83V34.17C423.23 30.46 420.27 27.68 416.63 27.95ZM411.52 169.46V173.18C411.52 174.97 409.97 176.56 408.24 176.57L214.09 174.36C212.55 174.37 211.3 172.97 211.3 171.24V59.35C211.3 57.62 212.55 56.13 214.09 56.03L407.94 43.08C409.91 42.95 411.53 44.49 411.53 46.5V169.46H411.52Z" fill="#625F5B"/>
<path d="M423.25 197.61V200.05C423.25 201.06 422.52 201.92 421.53 202.09L327.49 221.08C324.98 221.5 319.98 221.9 317.4 221.87L96.0601 210.38L96.3201 205.42L423.25 197.61Z" fill="#9C9894"/>
<path d="M421.07 197.91L325.57 215.19C322.05 215.74 318.46 216 314.85 215.97L95.27 205.31L202.67 190.74L421.07 197.91Z" fill="#CCCAC7"/>
<path d="M544.8 126.33L383.71 127.2C381.96 127.21 380.54 128.74 380.54 130.62V243C380.54 244.88 381.96 246.51 383.71 246.64L544.8 258.6C546.95 258.76 548.7 257.2 548.7 255.11V130.09C548.71 128 546.95 126.32 544.8 126.33Z" fill="#625F5B"/>
<path d="M534.22 137.19L392.46 137.02C391.9 137.02 391.44 137.5 391.44 138.1V236.24C391.44 236.84 391.89 237.35 392.46 237.39L534.22 247C534.89 247.05 535.44 246.55 535.44 245.9V138.38C535.43 137.72 534.89 137.19 534.22 137.19Z" fill="#3E8EED"/>
<path d="M460.28 249.75C461.94 249.87 463.29 248.59 463.29 246.9C463.29 245.21 461.94 243.74 460.28 243.63C458.62 243.52 457.29 244.79 457.29 246.48C457.29 248.16 458.63 249.63 460.28 249.75Z" fill="#84817D"/>
<path d="M422.85 162.99L423.07 219.8C423.08 222.29 435.58 224.7 451.28 225.18C467.3 225.67 480.53 223.98 480.52 221.39L480.29 162.42L422.85 162.99Z" fill="#B2C133"/>
<path d="M450.97 158.15C435.31 158.35 422.85 160.53 422.86 163.02C422.87 165.51 435.34 167.45 451.01 167.35C467 167.24 480.2 165.06 480.19 162.47C480.17 159.87 466.96 157.94 450.97 158.15Z" fill="white"/>
<path d="M422.94 187.35C427.06 189.78 439.92 190.98 451.12 191.07C462.55 191.17 476.04 190.16 480.38 187.69L480.37 186.23C480.29 186.23 480.22 186.25 480.16 186.29C477.91 188.07 466.88 189.89 451.11 189.76C435.77 189.64 425.3 187.73 423.12 186C423.06 185.95 423 185.94 422.93 185.94L422.94 187.35Z" fill="white"/>
<path d="M422.9 175.94C427.02 178.34 439.88 179.44 451.08 179.45C451.09 179.45 451.09 179.45 451.1 179.45C462.52 179.46 475.99 178.36 480.34 175.85L480.33 174.39C480.25 174.39 480.18 174.41 480.12 174.46C477.87 176.26 466.85 178.16 451.07 178.15C435.73 178.15 425.26 176.32 423.08 174.6C423.02 174.56 422.96 174.54 422.89 174.54L422.9 175.94Z" fill="white"/>
<path d="M423.03 210.15C427.15 212.65 440.01 214.03 451.22 214.3C462.65 214.57 476.14 213.77 480.48 211.36L480.47 209.9C480.39 209.9 480.32 209.91 480.26 209.96C478.01 211.71 466.98 213.36 451.21 213C435.87 212.65 425.39 210.58 423.22 208.82C423.16 208.77 423.1 208.76 423.03 208.76V210.15Z" fill="white"/>
<path d="M480.43 198.06C480.35 198.06 480.28 198.07 480.22 198.12C477.97 199.88 466.94 201.62 451.17 201.38C435.83 201.15 425.35 199.16 423.18 197.41C423.12 197.36 423.06 197.35 422.99 197.35L423 198.75C427.12 201.22 439.98 202.5 451.18 202.68H451.19C462.61 202.86 476.1 201.96 480.44 199.52L480.43 198.06Z" fill="white"/>
<path d="M507.28 151.61L483.88 148.39H483.87H483.86L461.16 152.37C461.16 152.37 460.86 165.09 462.9 175.82C466.18 193.02 483.58 200.02 484.06 200.19C484.06 200.19 484.06 200.19 484.07 200.19H484.08C484.56 200.03 502.48 193.4 505.63 175.77C507.88 163.15 507.28 151.61 507.28 151.61Z" fill="#8065E0"/>
<path d="M504.22 154.15L483.9 151.27L464.11 154.74C464.11 154.74 463.84 165.97 465.63 175.46C468.49 190.65 483.65 196.79 484.07 196.94C484.07 196.94 484.07 196.94 484.08 196.94C484.5 196.8 500.06 190.93 502.79 175.4C504.74 164.31 504.22 154.15 504.22 154.15Z" fill="#BBACEF"/>
<path d="M478.12 167.02L478.11 163.2C478.1 160.36 480.42 158.02 483.29 157.99L484.51 157.97C487.39 157.93 489.76 160.23 489.77 163.09L489.78 166.94L492.36 166.92L492.35 163.06C492.33 158.79 488.8 155.37 484.5 155.43L483.28 155.45C479.01 155.51 475.56 159 475.58 163.22L475.59 167.04L478.12 167.02Z" fill="#8065E0"/>
<path d="M122.22 175.84L169.55 176.84C172.84 176.71 175.5 174.01 175.5 170.81L176.37 70.66C176.37 67.35 173.54 64.8 170.14 65.06L121.94 67.57C118.73 67.81 116.2 70.47 116.2 73.59V170.24C116.2 173.46 118.9 175.98 122.22 175.84Z" fill="#605D5A"/>
<path d="M119.56 175.93L166.89 176.93C170.18 176.8 172.84 174.1 172.84 170.9L173.71 70.75C173.71 67.44 170.88 64.89 167.48 65.15L119.28 67.66C116.07 67.9 113.54 70.56 113.54 73.68V170.33C113.53 173.55 116.24 176.07 119.56 175.93Z" fill="#605D5A"/>
<path d="M120.66 171.91L165.76 173C167.54 172.93 168.98 171.47 168.98 169.74L169.85 72.01C169.85 70.22 168.32 68.84 166.48 68.98L120.51 71.32C118.78 71.45 117.41 72.89 117.41 74.58V168.88C117.4 170.62 118.86 171.98 120.66 171.91Z" fill="#3E8EED"/>
<path d="M131.545 121.914C135.142 120.593 137.047 116.765 135.799 113.364C134.55 109.964 130.621 108.277 127.023 109.598C123.425 110.919 121.521 114.747 122.769 118.148C124.018 121.548 127.947 123.235 131.545 121.914Z" fill="#AACDF6"/>
<path d="M131.802 140.423C135.4 139.102 137.305 135.274 136.056 131.873C134.808 128.472 130.879 126.786 127.281 128.107C123.683 129.428 121.779 133.255 123.027 136.656C124.276 140.057 128.204 141.743 131.802 140.423Z" fill="#AACDF6"/>
<path d="M131.805 159.871C135.403 158.55 137.307 154.723 136.059 151.322C134.81 147.921 130.882 146.235 127.284 147.555C123.686 148.876 121.781 152.704 123.03 156.105C124.278 159.506 128.207 161.192 131.805 159.871Z" fill="#AACDF6"/>
<path d="M117.4 94.52V74.58C117.4 72.89 118.77 71.45 120.5 71.32L166.47 68.98C168.31 68.84 169.84 70.22 169.84 72.01L169.65 92.87L117.4 94.52Z" fill="#D5E06D"/>
<path d="M117.4 81.46V74.57C117.4 72.88 118.77 71.44 120.5 71.31L166.47 68.97C168.31 68.83 169.84 70.21 169.84 72L169.78 79.18L117.4 81.46Z" fill="white"/>
<path d="M116.47 83.4L68.45 85.19C65.73 85.34 63.55 87.55 63.57 90.16L63.78 108.09C63.8 110.68 65.98 112.7 68.68 112.65L99.67 112.02L109 121.5V111.83L116.48 111.68C119.26 111.62 121.53 109.4 121.53 106.74V87.99C121.55 85.32 119.26 83.25 116.47 83.4Z" fill="#AACDF6"/>
<path d="M200.84 118.37L151.72 119.16C149.37 119.23 147.45 121.12 147.45 123.38L147.35 143.06C147.35 145.24 149.15 146.97 151.43 146.98L156.25 147V156.7L165.1 147.03L200.66 147.69C203.07 147.7 205.08 145.78 205.08 143.47V122.3C205.07 120.05 203.18 118.29 200.84 118.37Z" fill="#AACDF6"/>
<path d="M110.13 94.1299L71.6499 95.4699C71.0699 95.4899 70.6099 95.0599 70.6099 94.5099C70.6099 93.9599 71.0799 93.4899 71.6499 93.4699L110.13 92.1299C110.71 92.1099 111.17 92.5399 111.17 93.0899C111.17 93.6399 110.71 94.1099 110.13 94.1299Z" fill="white"/>
<path d="M103.72 101.61L71.9501 102.72C71.3701 102.74 70.9102 102.31 70.9102 101.76C70.9102 101.21 71.3801 100.74 71.9501 100.72L103.72 99.61C104.3 99.59 104.76 100.02 104.76 100.57C104.76 101.12 104.3 101.59 103.72 101.61Z" fill="white"/>
<path d="M193.8 128.61C193.79 128.61 193.78 128.61 193.78 128.61L155.88 128.8C155.3 128.81 154.85 128.37 154.86 127.81C154.87 127.26 155.35 126.77 155.93 126.8L193.83 126.61C194.41 126.6 194.86 127.04 194.85 127.6C194.83 128.14 194.36 128.59 193.8 128.61Z" fill="white"/>
<path d="M186.22 136.13C186.21 136.13 186.2 136.13 186.19 136.13L155.87 136.35C155.29 136.35 154.84 135.91 154.86 135.36C154.88 134.81 155.35 134.37 155.93 134.35L186.25 134.13C186.83 134.13 187.28 134.57 187.26 135.12C187.25 135.66 186.78 136.11 186.22 136.13Z" fill="white"/>
<path d="M491.75 184.51H475.42C473.15 184.51 471.32 182.67 471.32 180.41V170.66C471.32 168.39 473.16 166.56 475.42 166.56H491.75C494.02 166.56 495.85 168.4 495.85 170.66V180.41C495.85 182.67 494.01 184.51 491.75 184.51Z" fill="#8065E0"/>
<path d="M492.95 175.42L492.94 174.05C489.51 174.08 484.57 174.11 482.92 174.09C482.59 172.22 480.95 170.79 478.97 170.8C476.78 170.81 475 172.59 475.01 174.77C475.02 176.95 476.8 178.72 479 178.72C480.96 178.72 482.59 177.31 482.92 175.45C483.49 175.46 484.37 175.46 485.59 175.46C486.14 175.46 486.76 175.46 487.43 175.45L487.44 177.28H488.82L488.81 175.45C489.23 175.45 489.67 175.44 490.13 175.44L490.14 178.11H491.53L491.52 175.43C491.98 175.43 492.45 175.42 492.95 175.42ZM479 177.36C477.56 177.36 476.38 176.2 476.38 174.76C476.37 173.33 477.54 172.16 478.98 172.15C480.43 172.14 481.61 173.31 481.61 174.75C481.61 176.19 480.44 177.36 479 177.36Z" fill="white"/>
</svg>
