<svg width="636" height="300" viewBox="0 0 636 300" fill="none" xmlns="http://www.w3.org/2000/svg">
<path d="M231.32 237.35L231.86 91.18C231.87 88.04 234.03 85.26 236.68 84.97L432.72 72.85C436.25 72.47 439.09 75.12 439.05 78.77C439.05 78.77 437.34 229.71 437.3 233.02C437.26 236.33 434.57 237.99 434.57 237.99L231.32 237.35Z" fill="#B3AFAB"/>
<path fill-rule="evenodd" clip-rule="evenodd" d="M426.2 217.05C426.18 218.79 424.68 220.35 423.01 220.37L242.45 212.29C241.06 212.31 239.94 211 239.95 209.37L240.38 99.9998C240.39 98.3598 241.52 96.9198 242.91 96.7798L424.13 87.9598C426.04 87.7798 427.58 89.2398 427.56 91.2198L426.2 216.5" fill="#848484"/>
<path d="M228.82 237.36L229.34 91.2598C229.35 88.1198 231.5 85.3398 234.16 85.0598L430.02 72.9498C433.55 72.5698 436.39 75.2198 436.34 78.8598L434.52 240.16L228.82 237.36Z" fill="#625F5B"/>
<path fill-rule="evenodd" clip-rule="evenodd" d="M423.52 217.07C423.5 218.81 422 220.36 420.33 220.38L239.94 212.3C238.55 212.32 237.44 211.01 237.44 209.39L237.86 100.06C237.87 98.4199 239 96.9799 240.39 96.8399L421.44 88.0299C423.34 87.8499 424.89 89.3099 424.87 91.2799L423.52 216.5" fill="#BBF1FD"/>
<path d="M434.56 238.12L434.53 240.96C434.52 241.94 433.81 242.78 432.85 242.95L344.81 256.58C342.47 256.99 337.81 257.36 335.41 257.33L137.37 243.02C136.87 242.99 136.47 242.55 136.47 242.01V239.58C136.47 238.93 136.96 238.41 137.57 238.4L409.93 238.93L434.56 238.12Z" fill="#9C9894"/>
<path d="M434.56 237.77L343.06 250.96C339.78 251.49 336.43 251.74 333.08 251.71L137.79 238.42L229.63 227L434.56 237.77Z" fill="#CCCAC7"/>
<path d="M477.8 157.35L525.16 157.4C528.48 157.32 531.21 154.54 531.26 151.17L532.83 46.2799C532.88 42.7699 530.05 40.0699 526.6 40.3399L478.97 44.0599C475.77 44.3099 473.21 47.0999 473.17 50.3799L471.89 151.39C471.86 154.75 474.51 157.42 477.8 157.35Z" fill="#605D5A"/>
<path d="M478.95 153.18L524.08 153.25C525.88 153.21 527.35 151.7 527.38 149.88L528.9 47.62C528.93 45.72 527.4 44.27 525.54 44.41L480.17 47.92C478.44 48.05 477.05 49.56 477.03 51.34L475.76 149.96C475.74 151.77 477.17 153.22 478.95 153.18Z" fill="#77E3FB"/>
<path d="M476.76 72.25L477.03 51.33C477.05 49.56 478.44 48.05 480.17 47.91L525.54 44.4C527.4 44.26 528.93 45.71 528.9 47.61L528.57 69.98L476.76 72.25Z" fill="#1DACCC"/>
<path d="M476.93 58.56L477.02 51.33C477.04 49.56 478.43 48.05 480.16 47.91L525.53 44.4C527.39 44.26 528.92 45.71 528.89 47.61L528.78 54.9L476.93 58.56Z" fill="white"/>
<path d="M520.87 79.6098V136.13L483.45 136.83V81.5498L520.87 79.6098ZM521.36 77.7898C521.34 77.7898 521.31 77.7898 521.29 77.7898L482.9 79.7798C482.2 79.8198 481.66 80.3898 481.66 81.0898V137.32C481.66 138.04 482.25 138.63 482.97 138.63C482.98 138.63 482.99 138.63 482.99 138.63L521.38 137.92C522.09 137.91 522.67 137.32 522.67 136.61V79.0998C522.67 78.3698 522.08 77.7898 521.36 77.7898Z" fill="white"/>
<path fill-rule="evenodd" clip-rule="evenodd" d="M421.44 88.04L365.69 90.75V217.94L420.32 220.39C421.99 220.37 423.49 218.81 423.51 217.08L423.52 216.52L424.87 91.3C424.89 89.32 423.35 87.85 421.44 88.04Z" fill="white"/>
<path fill-rule="evenodd" clip-rule="evenodd" d="M365.69 188.22V217.94L420.32 220.39C421.99 220.37 423.49 218.81 423.51 217.08L423.52 216.52L423.81 189.35L365.69 188.22Z" fill="#B2B2B2"/>
<path fill-rule="evenodd" clip-rule="evenodd" d="M237.83 108.04L237.86 100.07C237.87 98.4299 239 96.9899 240.39 96.8499L421.44 88.0399C423.34 87.8599 424.89 89.3199 424.87 91.2899L424.78 99.9899L237.83 108.04Z" fill="#1DACCC"/>
<path d="M333.31 110.28L355.04 109.72V115.56L333.31 116.02V110.28Z" fill="#B2B2B2"/>
<path d="M303.66 111.82L324.26 111.28V116.97L303.66 117.41V111.82Z" fill="#B2B2B2"/>
<path d="M275.54 112.75L295.08 112.24V117.78L275.54 118.19V112.75Z" fill="#B2B2B2"/>
<path d="M248.83 113.64L267.4 113.15V118.55L248.83 118.94V113.64Z" fill="#B2B2B2"/>
<path d="M285.56 207.15L354.75 209.03L354.68 160.11L285.56 159.52V207.15Z" fill="white"/>
<path d="M298.27 175.61L293.5 175.59V197.5L298.27 197.51V175.61Z" fill="#F7B548"/>
<path d="M305.97 161.89L301.2 161.87V197.52L305.97 197.53V161.89Z" fill="#3097D8"/>
<path d="M318.79 175.66L314.02 175.65V197.55L318.79 197.56V175.66Z" fill="#F7B548"/>
<path d="M326.49 161.94L321.71 161.93V197.57L326.49 197.58V161.94Z" fill="#3097D8"/>
<path d="M339.31 175.71L334.54 175.7V197.6L339.31 197.61V175.71Z" fill="#F7B548"/>
<path d="M347.01 161.99L342.23 161.98V197.62L347.01 197.63V161.99Z" fill="#3097D8"/>
<path d="M354.21 134.01L249.12 136.39L248.9 126.88L354.21 123.84V134.01Z" fill="#1DACCC"/>
<path d="M123.77 149.18L252.69 146.72C254.97 146.55 256.85 144.58 256.88 142.32L258.89 46.9498C258.92 44.6698 257.09 43.0998 254.8 43.4298L124.7 55.3098C122.84 55.5898 121.32 57.4698 121.3 59.5098L120.46 145.74C120.44 147.77 121.92 149.31 123.77 149.18Z" fill="#797673"/>
<path d="M130.39 142.28L244.86 140.27C245.57 140.21 246.16 139.59 246.17 138.88L247.32 53.5099C247.33 52.7999 246.76 52.2999 246.05 52.3999L131.2 62.0999C130.61 62.1799 130.12 62.7799 130.11 63.4299L129.32 141.2C129.32 141.84 129.79 142.33 130.39 142.28Z" fill="#BBF1FD"/>
<path d="M246.04 52.41L206.06 55.78V140.95L244.85 140.27C245.56 140.21 246.15 139.59 246.16 138.88L247.31 53.51C247.33 52.81 246.76 52.31 246.04 52.41Z" fill="white"/>
<path d="M226.45 107.96C235.5 107.49 242.71 99.77 242.55 90.72C242.39 81.67 234.93 74.72 225.87 75.2C216.82 75.67 209.61 83.39 209.77 92.44C209.93 101.49 217.4 108.44 226.45 107.96Z" fill="#3097D8"/>
<path d="M224.99 96.45C224.18 96.88 223.25 97.12 222.2 97.17C221.45 97.21 220.77 97.11 220.16 96.88C219.55 96.65 219.02 96.3101 218.58 95.8701C218.14 95.4201 217.8 94.89 217.55 94.25C217.3 93.62 217.18 92.9201 217.16 92.1601C217.15 91.3601 217.26 90.6101 217.49 89.9001C217.73 89.1901 218.07 88.5801 218.53 88.0401C218.98 87.5101 219.54 87.08 220.19 86.75C220.84 86.43 221.58 86.24 222.4 86.2C223.3 86.15 224.11 86.25 224.82 86.49L224.84 87.5401C224.08 87.2001 223.26 87.05 222.4 87.1C221.72 87.14 221.11 87.2801 220.58 87.5501C220.05 87.8201 219.61 88.17 219.25 88.6C218.89 89.04 218.62 89.55 218.44 90.14C218.26 90.72 218.17 91.36 218.18 92.03C218.19 92.64 218.29 93.21 218.47 93.74C218.65 94.27 218.92 94.7301 219.26 95.1101C219.61 95.5001 220.03 95.79 220.54 96C221.05 96.21 221.63 96.3001 222.3 96.2601C223.32 96.2101 224.21 95.9401 224.98 95.4801L224.99 96.45Z" fill="white"/>
<path d="M234.17 89.4501L232.21 89.5501L231.73 91.9601L233.82 91.8501L233.67 92.5401L231.61 92.6501L231.02 95.6201L230.26 95.6601L230.84 92.6901L228.93 92.7901L228.35 95.7601L227.59 95.8001L228.17 92.8301L226.16 92.9401L226.29 92.2501L228.31 92.1401L228.77 89.7301L226.66 89.8401L226.8 89.1501L228.9 89.0401L229.48 86.0101L230.24 85.9701L229.66 89.0001L231.58 88.9001L232.17 85.8701L232.92 85.8301L232.33 88.8601L234.32 88.7601L234.17 89.4501ZM229.53 89.6901L229.05 92.1001L230.98 92.0001L231.46 89.5901L229.53 89.6901Z" fill="white"/>
<path d="M130.03 71.8L130.11 63.43C130.12 62.78 130.6 62.18 131.2 62.1L246.04 52.41C246.75 52.31 247.32 52.81 247.31 53.52L247.18 63.17L130.03 71.8Z" fill="#1DACCC"/>
<path d="M206.07 122.26V140.96L244.86 140.28C245.57 140.22 246.16 139.6 246.17 138.89L246.41 120.79L206.07 122.26Z" fill="#B2B2B2"/>
<path d="M186.41 71.6898L199.4 70.8298V74.5998L186.41 75.3898V71.6898Z" fill="#B2B2B2"/>
<path d="M168.7 73.3498L181.01 72.5398V76.1998L168.7 76.9498V73.3498Z" fill="#B2B2B2"/>
<path d="M151.89 74.5798L163.57 73.8098V77.3798L151.89 78.0798V74.5798Z" fill="#B2B2B2"/>
<path d="M135.93 75.7498L147.03 75.0198V78.4998L135.93 79.1698V75.7498Z" fill="#B2B2B2"/>
<path d="M157.88 135.58L199.23 134.51L199.18 102.93L157.88 104.88V135.58Z" fill="white"/>
<path d="M165.48 114.57L162.63 114.67V128.79L165.48 128.69V114.57Z" fill="#F7B548"/>
<path d="M170.08 105.56L167.22 105.66V128.63L170.08 128.53V105.56Z" fill="#3097D8"/>
<path d="M177.74 114.15L174.89 114.24V128.36L177.74 128.26V114.15Z" fill="#F7B548"/>
<path d="M182.34 105.13L179.49 105.23V128.2L182.34 128.1V105.13Z" fill="#3097D8"/>
<path d="M190 113.72L187.15 113.82V127.93L190 127.83V113.72Z" fill="#F7B548"/>
<path d="M194.6 104.7L191.75 104.8V127.77L194.6 127.67V104.7Z" fill="#3097D8"/>
<path d="M198.9 86.5097L135.97 90.2797V83.7197L198.9 79.9497V86.5097Z" fill="#1DACCC"/>
<path d="M194.102 90.8413L135.78 94.0364L135.889 96.0334L194.212 92.8383L194.102 90.8413Z" fill="#B2B2B2"/>
<path d="M168.529 96.9428L135.788 98.5425L135.885 100.54L168.626 98.9404L168.529 96.9428Z" fill="#B2B2B2"/>
<path d="M154.137 111.043L135.808 111.688L135.879 113.687L154.208 113.041L154.137 111.043Z" fill="#B2B2B2"/>
<path d="M154.154 115.78L135.795 116.39L135.862 118.389L154.221 117.779L154.154 115.78Z" fill="#B2B2B2"/>
<path d="M154.186 120.519L135.796 121.093L135.858 123.092L154.249 122.518L154.186 120.519Z" fill="#B2B2B2"/>
<path d="M154.242 125.254L135.809 125.794L135.867 127.793L154.3 127.253L154.242 125.254Z" fill="#B2B2B2"/>
<path d="M154.259 129.982L135.796 130.486L135.851 132.485L154.314 131.981L154.259 129.982Z" fill="#B2B2B2"/>
<path d="M342.96 160.15L345.54 151.74C346.21 149.5 344.86 147.24 342.51 146.7C340.17 146.16 337.72 147.54 337.05 149.78L334.4 158.4L342.96 160.15Z" fill="#8A6FE8"/>
<path d="M375.47 181.83C390.98 179.48 401.65 165 399.3 149.49C396.95 133.98 382.47 123.31 366.96 125.66C351.45 128.01 340.78 142.49 343.13 158C345.48 173.51 359.96 184.18 375.47 181.83Z" fill="#3097D8"/>
<path d="M370.3 162.32C369 163.19 367.45 163.76 365.65 164.03C364.37 164.22 363.17 164.17 362.06 163.88C360.95 163.58 359.96 163.1 359.1 162.41C358.24 161.72 357.53 160.85 356.96 159.81C356.39 158.76 356.01 157.59 355.81 156.28C355.6 154.9 355.62 153.59 355.87 152.34C356.12 151.09 356.57 149.97 357.23 148.98C357.89 147.98 358.74 147.15 359.8 146.49C360.86 145.83 362.08 145.38 363.48 145.17C365.03 144.94 366.44 144.96 367.73 145.25L368 147.05C366.6 146.6 365.17 146.48 363.69 146.7C362.52 146.88 361.5 147.24 360.65 147.78C359.8 148.32 359.12 149 358.6 149.82C358.09 150.64 357.74 151.56 357.56 152.59C357.38 153.62 357.38 154.72 357.55 155.89C357.71 156.93 358.01 157.9 358.44 158.78C358.88 159.66 359.44 160.4 360.11 161C360.79 161.6 361.6 162.04 362.52 162.32C363.44 162.6 364.47 162.64 365.61 162.47C367.36 162.21 368.83 161.6 370.05 160.67L370.3 162.32Z" fill="white"/>
<path d="M384.53 148.73L381.16 149.24L380.89 153.46L384.47 152.92L384.37 154.13L380.84 154.66L380.5 159.86L379.2 160.06L379.52 154.86L376.24 155.36L375.93 160.56L374.63 160.76L374.94 155.56L371.5 156.08L371.57 154.88L375.02 154.36L375.26 150.14L371.65 150.69L371.73 149.49L375.32 148.95L375.63 143.65L376.93 143.45L376.62 148.75L379.91 148.25L380.23 142.95L381.52 142.75L381.2 148.05L384.6 147.53L384.53 148.73ZM376.59 149.94L376.31 154.16L379.61 153.66L379.88 149.44L376.59 149.94Z" fill="white"/>
<path d="M259.01 229.8C264.45 224.47 274.6 212.78 278.18 198.07L269.45 195.94C266.2 209.28 256.9 219.34 252.56 223.45C252.2 223.8 255.15 227.37 259.01 229.8Z" fill="url(#paint0_linear)"/>
<path d="M259.01 229.8C264.45 224.47 274.6 212.78 278.18 198.07L269.45 195.94C266.2 209.28 256.9 219.34 252.56 223.45C252.2 223.8 255.15 227.37 259.01 229.8Z" fill="url(#paint1_linear)"/>
<path d="M252.63 223.4L257.69 228.4L243.36 267.74L225.36 249.97C224.59 249.21 224.63 248 225.44 247.28L252.63 223.4Z" fill="#522CD5"/>
<path d="M255.04 265.18C255.36 266.72 254.25 267.96 253.13 268.94L249.7 271.95C249.09 272.49 248.11 272.46 247.53 271.89L241.17 265.6C240.51 264.95 240.54 263.93 241.24 263.31L244.65 260.04C245.94 258.91 246.59 258.02 246.18 255.97C243.75 243.84 246.52 233.37 254.42 225.18L259.05 229.76C255.27 234.23 250.77 244.99 255.04 265.18Z" fill="url(#paint2_linear)"/>
<path d="M247.53 271.89C248.11 272.46 249.09 272.49 249.7 271.95L253.13 268.94C253.86 268.29 254.59 267.53 254.91 266.65L246.17 258C245.94 258.78 245.41 259.37 244.65 260.04L241.24 263.31C240.54 263.92 240.51 264.94 241.17 265.6L247.53 271.89Z" fill="url(#paint3_radial)"/>
<path d="M290.3 233.77C291.71 226.22 293.31 210.82 287.72 197.57L279.24 201.81C284.31 213.83 282.46 227.45 281.26 233.37C281.16 233.87 285.68 234.55 290.3 233.77Z" fill="url(#paint4_linear)"/>
<path d="M290.3 233.77C291.71 226.22 293.31 210.82 287.72 197.57L279.24 201.81C284.31 213.83 282.46 227.45 281.26 233.37C281.16 233.87 285.68 234.55 290.3 233.77Z" fill="url(#paint5_linear)"/>
<path d="M281.28 233.29L288.39 233.62L299.42 272.22L274.14 271.07C273.05 271.02 272.39 270.11 272.65 269.03L281.28 233.29Z" fill="#522CD5"/>
<path d="M307.61 262.55C308.77 263.47 308.58 265.13 308.22 266.6L307.13 271.11C306.94 271.92 306.11 272.54 305.29 272.51L296.35 272.09C295.43 272.05 294.86 271.27 295.08 270.35L296 265.67C296.41 263.97 296.43 262.89 294.9 261.64C285.82 254.29 282.02 244.72 283.8 233.41L290.3 233.71C289.78 239.53 292.32 250.47 307.61 262.55Z" fill="url(#paint6_linear)"/>
<path d="M305.29 272.51C306.11 272.55 306.93 271.92 307.13 271.11L308.22 266.6C308.45 265.63 308.61 264.59 308.37 263.73L296.08 263.15C296.35 263.88 296.25 264.67 296.01 265.67L295.09 270.35C294.87 271.27 295.44 272.04 296.36 272.09L305.29 272.51Z" fill="url(#paint7_radial)"/>
<path d="M325.93 164.58C327.17 151.74 323.52 142.23 323.52 142.23L326.42 141.77L326.48 141.7C318.7 119.74 296.13 105.78 272.31 109.6C245.47 113.9 227.2 139.15 231.5 165.99C235.8 192.83 261.05 211.1 287.89 206.8C309.07 203.41 324.91 186.97 328.54 167C328.6 166.16 328.36 164.72 325.93 164.58Z" fill="url(#paint8_radial)"/>
<path d="M325.93 164.58C327.15 151.89 323.61 142.47 323.52 142.24L301.09 145.75C301.09 145.75 297.86 145.94 298.33 148.84C298.79 151.74 300.23 159.92 301.68 168.99C301.98 170.85 325.68 166.39 325.93 164.58Z" fill="url(#paint9_radial)"/>
<path d="M325.93 164.53C325.98 164.05 326.01 163.57 326.05 163.09C326.21 160.69 326.22 158.43 326.11 156.33C325.06 156.11 324.1 156.52 323.13 157.51C321.8 158.89 315.03 166.27 315.03 166.27L325.93 164.53Z" fill="#A08BE8"/>
<path d="M328.43 167.58C328.43 167.58 329.36 164.77 325.93 164.58C325.93 164.57 325.93 164.55 325.93 164.54L304.34 167.92C303.19 168.1 301.59 167.65 301.28 166.56C301.41 167.36 301.54 168.17 301.67 168.99C301.94 170.68 303.34 171.37 304.5 171.35C304.62 171.35 304.73 171.34 304.85 171.32L308.24 170.78L328.43 167.58Z" fill="#512BD4"/>
<path d="M325.95 176.09L242.14 189.52C244.53 192.41 247.24 195.01 250.21 197.28L320.71 185.98C322.82 182.9 324.58 179.58 325.95 176.09Z" fill="#D8CFF7"/>
<path d="M318.86 188.51C322.41 183.97 325.16 178.82 326.95 173.29L316.69 174.93L318.86 188.51Z" fill="#512BD4"/>
<path d="M275.22 107.21L265.82 108.65L265.67 98.7998L272.42 97.7598L275.22 107.21Z" fill="#8A6FE8"/>
<path d="M279.73 112.56C280.15 112.49 280.44 112.08 280.32 111.66C279.14 107.27 274.82 104.38 270.23 105.09C265.63 105.8 262.38 109.85 262.57 114.39C262.59 114.82 262.98 115.13 263.41 115.07L279.73 112.56Z" fill="url(#paint10_radial)"/>
<path d="M314.897 161.914C317.004 161.625 318.318 158.521 317.833 154.981C317.348 151.441 315.246 148.806 313.14 149.094C311.033 149.383 309.719 152.487 310.204 156.027C310.69 159.567 312.791 162.203 314.897 161.914Z" fill="#512BD4"/>
<path d="M313.47 152.13C312.29 153.73 312.63 155.99 314.24 157.16C315.34 157.97 316.74 158.06 317.89 157.52C317.98 156.73 317.97 155.87 317.85 154.98C317.61 153.24 316.98 151.73 316.16 150.66C315.13 150.73 314.13 151.24 313.47 152.13Z" fill="#8065E0"/>
<path d="M268.37 100.32C272.164 100.32 275.24 97.244 275.24 93.4498C275.24 89.6556 272.164 86.5798 268.37 86.5798C264.576 86.5798 261.5 89.6556 261.5 93.4498C261.5 97.244 264.576 100.32 268.37 100.32Z" fill="#D8CFF7"/>
<path d="M343.4 168.77L338.15 161.2C329.54 166.7 321.64 171.33 313.85 172.5C298.31 174.83 285.95 160.54 282.77 156.4L273.85 162.98C284.32 173.39 304.35 196.94 343.4 168.77Z" fill="url(#paint11_linear)"/>
<path d="M278.41 170.41C283.403 170.41 287.45 166.362 287.45 161.37C287.45 156.377 283.403 152.33 278.41 152.33C273.417 152.33 269.37 156.377 269.37 161.37C269.37 166.362 273.417 170.41 278.41 170.41Z" fill="url(#paint12_radial)"/>
<path d="M339.71 173.24L348.85 172.12C351.28 171.81 352.99 169.71 352.67 167.44C352.35 165.17 350.11 163.58 347.68 163.9L338.31 165.05L339.71 173.24Z" fill="#8A6FE8"/>
<path d="M344.32 164.71L351.28 158.68C353.12 157.06 353.37 154.37 351.83 152.67C350.29 150.97 347.54 150.91 345.7 152.53L338.57 158.71L344.32 164.71Z" fill="#8A6FE8"/>
<path d="M344.1 169.02L352.57 165.42C354.82 164.45 355.88 161.96 354.93 159.87C353.98 157.78 351.39 156.88 349.14 157.85L340.45 161.54L344.1 169.02Z" fill="#8A6FE8"/>
<path d="M331.07 160.41C333.82 156.26 339.55 154.89 343.87 157.34C348.19 159.79 349.46 165.14 346.71 169.29C343.96 173.44 338.23 174.81 333.91 172.36C329.59 169.91 328.32 164.56 331.07 160.41Z" fill="url(#paint13_radial)"/>
<defs>
<linearGradient id="paint0_linear" x1="275.966" y1="196.377" x2="255.725" y2="227.411" gradientUnits="userSpaceOnUse">
<stop stop-color="#522CD5"/>
<stop offset="0.4397" stop-color="#8A6FE8"/>
</linearGradient>
<linearGradient id="paint1_linear" x1="275.966" y1="196.377" x2="255.725" y2="227.411" gradientUnits="userSpaceOnUse">
<stop stop-color="#522CD5"/>
<stop offset="0.4397" stop-color="#8A6FE8"/>
</linearGradient>
<linearGradient id="paint2_linear" x1="259.143" y1="226.403" x2="246.432" y2="271.681" gradientUnits="userSpaceOnUse">
<stop stop-color="#522CD5"/>
<stop offset="0.4397" stop-color="#8A6FE8"/>
</linearGradient>
<radialGradient id="paint3_radial" cx="0" cy="0" r="1" gradientUnits="userSpaceOnUse" gradientTransform="translate(255.765 256.896) rotate(44.7083) scale(14.4983)">
<stop offset="0.034" stop-color="#522CD5"/>
<stop offset="0.9955" stop-color="#8A6FE8"/>
</radialGradient>
<linearGradient id="paint4_linear" x1="284.832" y1="197.7" x2="290.265" y2="233.466" gradientUnits="userSpaceOnUse">
<stop stop-color="#522CD5"/>
<stop offset="0.4397" stop-color="#8A6FE8"/>
</linearGradient>
<linearGradient id="paint5_linear" x1="284.832" y1="197.7" x2="290.265" y2="233.466" gradientUnits="userSpaceOnUse">
<stop stop-color="#522CD5"/>
<stop offset="0.4397" stop-color="#8A6FE8"/>
</linearGradient>
<linearGradient id="paint6_linear" x1="288.506" y1="230.995" x2="307.229" y2="271.568" gradientUnits="userSpaceOnUse">
<stop stop-color="#522CD5"/>
<stop offset="0.4397" stop-color="#8A6FE8"/>
</linearGradient>
<radialGradient id="paint7_radial" cx="0" cy="0" r="1" gradientUnits="userSpaceOnUse" gradientTransform="translate(303.414 255.937) rotate(2.68244) scale(14.4981 14.4988)">
<stop offset="0.034" stop-color="#522CD5"/>
<stop offset="0.9955" stop-color="#8A6FE8"/>
</radialGradient>
<radialGradient id="paint8_radial" cx="0" cy="0" r="1" gradientUnits="userSpaceOnUse" gradientTransform="translate(274.941 132.825) rotate(-19.4696) scale(41.9054)">
<stop offset="0.4744" stop-color="#A08BE8"/>
<stop offset="0.8618" stop-color="#8065E0"/>
</radialGradient>
<radialGradient id="paint9_radial" cx="0" cy="0" r="1" gradientUnits="userSpaceOnUse" gradientTransform="translate(309.025 151.724) rotate(-19.4696) scale(32.1935)">
<stop offset="0.2022" stop-color="#E1DFDD"/>
<stop offset="0.7337" stop-color="white"/>
</radialGradient>
<radialGradient id="paint10_radial" cx="0" cy="0" r="1" gradientUnits="userSpaceOnUse" gradientTransform="translate(270.471 110.383) rotate(-19.4696) scale(7.25526)">
<stop stop-color="#8065E0"/>
<stop offset="0.8628" stop-color="#512BD4"/>
</radialGradient>
<linearGradient id="paint11_linear" x1="285.009" y1="141.095" x2="330.874" y2="187.12" gradientUnits="userSpaceOnUse">
<stop offset="0.3344" stop-color="#9780E6"/>
<stop offset="0.8488" stop-color="#8A6FE8"/>
</linearGradient>
<radialGradient id="paint12_radial" cx="0" cy="0" r="1" gradientUnits="userSpaceOnUse" gradientTransform="translate(278.143 157.651) rotate(-9.27109) scale(13.4228)">
<stop stop-color="#8065E0"/>
<stop offset="0.8628" stop-color="#512BD4"/>
</radialGradient>
<radialGradient id="paint13_radial" cx="0" cy="0" r="1" gradientUnits="userSpaceOnUse" gradientTransform="translate(337.247 160.074) rotate(165.834) scale(15.6889 14.6418)">
<stop stop-color="#8065E0"/>
<stop offset="0.8628" stop-color="#512BD4"/>
</radialGradient>
</defs>
</svg>
