<svg width="636" height="300" viewBox="0 0 636 300" fill="none" xmlns="http://www.w3.org/2000/svg">
<path d="M362 72.0601L224.53 134.5L329.75 183.29L501.96 115.3L362 72.0601ZM228.97 134.51L362.12 74.0301L496.38 115.5L329.8 181.27L228.97 134.51Z" fill="#B3AFAB"/>
<path d="M490.21 117.09L490.07 115.24L347.82 125.83L363.2 76.9401L361.43 76.3801L345.83 125.98L236.75 134.09L236.89 135.94L345.23 127.88L329.67 177.35L331.44 177.9L347.22 127.73L490.21 117.09Z" fill="#B3AFAB"/>
<path d="M313.21 164.47C311.19 165.13 309.19 165.92 307.22 166.87C304.54 168.16 302.05 169.66 299.75 171.32L303.89 180.21C301.6 182.13 299.6 184.28 297.93 186.6L286.98 185.51C284.51 189.86 282.85 194.55 282.07 199.38L291.78 203.44C291.57 206.66 291.87 209.91 292.7 213.11C290.33 214.66 286.35 217.17 283.81 218.75C284.46 220.58 285.24 222.38 286.19 224.15C287.49 226.59 289.02 228.84 290.74 230.92L300.66 227.05C302.82 229.26 305.28 231.15 307.96 232.68L306.21 242.66C310.89 244.79 315.96 246.14 321.19 246.65L326.29 237.45C329.23 237.45 332.2 237.11 335.14 236.41L341.02 244.53C343.15 243.85 345.25 243.02 347.32 242.03C350.14 240.68 352.75 239.1 355.14 237.33L350.88 228.49C353.23 226.49 355.27 224.24 356.96 221.81L367.49 223.51C370.11 218.93 371.84 213.96 372.58 208.86C369.51 207.8 365.19 206.3 362.77 205.4C362.95 202.47 362.72 199.51 362.04 196.59L371.08 191.18C370.37 189 369.47 186.85 368.35 184.75C366.97 182.16 365.33 179.77 363.49 177.59L353.97 181.95C351.7 179.61 349.1 177.63 346.26 176.05L348.58 166.36C344.07 164.28 339.19 162.92 334.14 162.34L329.88 171.48C326.31 171.33 322.68 171.68 319.1 172.56L313.21 164.47ZM345.37 195.78C350.25 204.93 346.1 216.23 336.1 221.03C326.1 225.82 314.04 222.29 309.16 213.15C304.28 204 308.43 192.7 318.43 187.9C328.43 183.1 340.49 186.63 345.37 195.78Z" fill="#A7A4A0"/>
<path d="M387.63 151.49L376.16 162.96L367.5 154.3L378.93 142.87C376.91 142 374.69 141.52 372.35 141.52C363.13 141.52 355.65 149 355.65 158.22C355.65 160.52 356.12 162.72 356.96 164.72C349.27 171.29 325.97 191.27 319.43 197.81C311.56 205.68 324.46 220.55 334.3 210.27C342.01 202.21 359.13 182.07 366.17 173.74C368.08 174.5 370.17 174.93 372.35 174.93C381.57 174.93 389.05 167.45 389.05 158.23C389.05 155.82 388.54 153.55 387.63 151.49ZM326.86 208.87C324.13 208.87 321.91 206.65 321.91 203.92C321.91 201.19 324.13 198.97 326.86 198.97C329.59 198.97 331.81 201.19 331.81 203.92C331.81 206.65 329.59 208.87 326.86 208.87Z" fill="#F7B548"/>
<path d="M470.64 162.12C472.66 146.16 467.02 131.61 459.42 112.75C451.82 93.8901 461.54 56.9601 504.25 65.1401C546.52 73.2301 546.2 111.6 526.36 132.3C510.75 148.59 505.12 153.33 502.17 170.1C499.22 186.87 468.05 182.55 470.64 162.12Z" fill="#F7B548"/>
<path d="M526.55 103.49C526.18 102.98 525.45 102.83 524.91 103.16C522.96 104.35 517.04 105.69 509.35 105.64L511.37 98.67C511.54 98.09 511.17 97.47 510.54 97.3C509.91 97.12 509.27 97.46 509.1 98.04L506.92 105.59C500.74 105.32 493.64 104.12 486.62 101.3L487.08 94.48C487.12 93.87 486.63 93.33 485.98 93.28C485.33 93.22 484.77 93.67 484.73 94.28L484.32 100.32C480.55 98.61 476.83 96.41 473.31 93.59C472.81 93.19 472.07 93.23 471.65 93.69C471.24 94.15 471.31 94.85 471.81 95.25C475.75 98.4 479.93 100.83 484.16 102.69L479.72 167.82C479.69 168.3 479.99 168.75 480.47 168.94C480.52 168.96 480.57 168.98 480.62 168.99L489.21 171.19C489.83 171.35 490.46 171.02 490.63 170.44L508.72 107.89C517.18 108.02 523.83 106.51 526.26 105.02C526.78 104.68 526.92 104 526.55 103.49ZM488.64 168.76L482.13 167.09L486.45 103.62C493.29 106.27 500.16 107.47 506.27 107.79L488.64 168.76Z" fill="white"/>
<path d="M470.05 181.57L472.13 189.44L489.85 194.06L495.61 188.68L470.05 181.57Z" fill="#3E8EED"/>
<path d="M502.17 170.1L470.64 162.12L465.68 183.67L498.67 191.94L502.17 170.1Z" fill="#3E8EED"/>
<path d="M499.79 184.95L500.03 183.5L467.59 175.36L467.26 176.79L499.79 184.95Z" fill="#0064DA"/>
<path d="M469.14 168.63L501.16 176.41L501.39 174.95L469.47 167.2L469.14 168.63Z" fill="#0064DA"/>
<path d="M410.76 106.04L316.33 105.52C313.74 105.51 311.58 103.73 311.51 101.56L309.49 41.2401C309.42 39.0701 311.46 37.3201 314.05 37.3301L408.48 37.8501C411.07 37.8601 413.23 39.6401 413.3 41.8101L415.32 102.13C415.39 104.3 413.35 106.05 410.76 106.04Z" fill="#957EE6"/>
<path d="M413.59 50.7401L413.29 41.8101C413.22 39.6401 411.06 37.8701 408.47 37.8501L314.04 37.3301C311.45 37.3201 309.41 39.0601 309.48 41.2401L309.78 50.1701L413.59 50.7401Z" fill="#522CD5"/>
<path d="M325.606 44.5448C325.75 43.0495 324.415 41.6971 322.622 41.524C320.83 41.351 319.26 42.4229 319.116 43.9182C318.972 45.4135 320.307 46.766 322.1 46.939C323.892 47.112 325.462 46.0401 325.606 44.5448Z" fill="#957EE6"/>
<path d="M336.6 44.599C336.745 43.1037 335.409 41.7513 333.617 41.5782C331.824 41.4052 330.255 42.4771 330.11 43.9724C329.966 45.4677 331.302 46.8202 333.094 46.9932C334.886 47.1662 336.456 46.0943 336.6 44.599Z" fill="#957EE6"/>
<path d="M347.594 44.663C347.738 43.1677 346.402 41.8153 344.61 41.6422C342.818 41.4692 341.248 42.5411 341.104 44.0364C340.959 45.5317 342.295 46.8842 344.087 47.0572C345.879 47.2302 347.449 46.1583 347.594 44.663Z" fill="#957EE6"/>
<path d="M353.46 86.4701L334.81 78.2801V76.3801L353.46 67.0801V69.9701L338.28 77.1701L353.46 83.5401V86.4701Z" fill="#E5F0FC"/>
<path d="M369.7 62.8L359.12 91.17H355.9L366.48 62.8H369.7Z" fill="#E5F0FC"/>
<path d="M372.13 83.5401L387.33 77.2101L372.13 69.9701V67.0801L390.78 76.3801V78.2801L372.13 86.4701V83.5401Z" fill="#E5F0FC"/>
<path d="M233.15 110.65H216.93V171.04H233.15V110.65Z" fill="#1DACCC"/>
<path d="M242.92 97.7002H233.15V171.04H242.92V97.7002Z" fill="#0064DA"/>
<path d="M248.414 111.013L242.851 112.002L253.345 171.003L258.907 170.014L248.414 111.013Z" fill="#76AFF2"/>
<path d="M208.72 89.5103L166.04 113.16L179.74 161.1C178.29 160.38 176.81 161.31 175.13 161.79C173.49 162.25 171.66 160.94 170.81 162.27L157.5 115.58L108.76 117.78L124.73 174.03L170.81 169.61C172.95 171.56 174.97 171.85 177.76 171.06C180.54 170.27 182.18 168.82 182.92 166.21L224.62 145.95L208.72 89.5103Z" fill="#0064DA"/>
<path d="M200.41 86.4702C200.41 86.4702 169.06 101.7 165.18 104.26C161.3 106.82 160.37 110.19 162.04 115.64C163.71 121.09 175.21 162.21 175.21 162.21L216.68 141.25L200.41 86.4702Z" fill="#F7B548"/>
<path d="M114.57 110.75C114.57 110.75 148.93 107.41 153.58 107.55C158.23 107.7 160.78 110.08 162.21 115.6C163.64 121.12 175.22 162.22 175.22 162.22L129.1 166.15L114.57 110.75Z" fill="#FCCF84"/>
<path d="M154.11 118.31C154.06 118.32 154 118.34 153.95 118.34L125.96 120.7C125.49 120.74 125.08 120.39 125.04 119.92C125 119.45 125.37 119.03 125.82 119L153.81 116.64C154.28 116.6 154.69 116.95 154.73 117.42C154.76 117.83 154.49 118.2 154.11 118.31Z" fill="#B3AFAB"/>
<path d="M156.3 126.05C156.25 126.06 156.19 126.08 156.14 126.08L128.15 128.44C127.68 128.48 127.27 128.13 127.23 127.66C127.19 127.19 127.56 126.78 128.01 126.74L156 124.38C156.47 124.34 156.88 124.69 156.92 125.16C156.95 125.57 156.68 125.94 156.3 126.05Z" fill="#B3AFAB"/>
<path d="M158.48 133.78C158.43 133.79 158.37 133.81 158.32 133.81L130.33 136.17C129.86 136.21 129.45 135.86 129.41 135.39C129.37 134.92 129.73 134.5 130.19 134.47L158.18 132.11C158.65 132.07 159.06 132.42 159.1 132.89C159.13 133.3 158.87 133.67 158.48 133.78Z" fill="#B3AFAB"/>
<path d="M160.67 141.52C160.62 141.53 160.56 141.55 160.51 141.55L132.52 143.91C132.05 143.95 131.64 143.6 131.6 143.13C131.56 142.66 131.92 142.24 132.38 142.21L160.37 139.85C160.84 139.81 161.25 140.16 161.29 140.63C161.32 141.04 161.05 141.41 160.67 141.52Z" fill="#B3AFAB"/>
<path d="M170.23 113.75C170.28 113.74 170.33 113.72 170.38 113.69L195.46 101.04C195.88 100.83 196.05 100.32 195.84 99.9002C195.63 99.4802 195.1 99.3202 194.7 99.5202L169.62 112.17C169.2 112.38 169.03 112.89 169.24 113.31C169.43 113.69 169.85 113.86 170.23 113.75Z" fill="#B3AFAB"/>
<path d="M172.42 121.49C172.47 121.48 172.52 121.46 172.57 121.43L197.65 108.78C198.07 108.57 198.24 108.06 198.03 107.64C197.82 107.22 197.29 107.06 196.89 107.26L171.81 119.91C171.39 120.12 171.22 120.63 171.43 121.05C171.61 121.42 172.03 121.6 172.42 121.49Z" fill="#B3AFAB"/>
<path d="M174.6 129.22C174.65 129.21 174.7 129.19 174.75 129.16L199.83 116.51C200.25 116.3 200.42 115.79 200.21 115.37C200 114.95 199.47 114.78 199.07 114.99L173.99 127.64C173.57 127.85 173.4 128.36 173.61 128.78C173.8 129.16 174.22 129.33 174.6 129.22Z" fill="#B3AFAB"/>
<path d="M176.79 136.96C176.84 136.95 176.89 136.93 176.94 136.9L202.02 124.25C202.44 124.04 202.61 123.53 202.4 123.11C202.19 122.69 201.66 122.52 201.26 122.73L176.18 135.38C175.76 135.59 175.59 136.1 175.8 136.52C175.99 136.89 176.41 137.07 176.79 136.96Z" fill="#B3AFAB"/>
<path d="M172.46 164.13C173.27 163.26 174.31 162.58 175.54 162.24C176.68 161.92 177.82 161.93 178.89 162.18L218.58 143.75L204.27 91.6803L200.3 86.5103L215.32 140.53C215.32 140.53 182.82 155.84 179.95 157.41C177.09 158.98 175.28 162.14 175.28 162.14C175.28 162.14 173.5 160.43 169.38 160.53C165.26 160.63 129.79 164.45 129.79 164.45L114.73 110.83L114.06 117.62L128.66 168.74L172.46 164.13Z" fill="#8DBCF4"/>
</svg>
