<svg width="636" height="300" viewBox="0 0 636 300" fill="none" xmlns="http://www.w3.org/2000/svg">
<path d="M181.16 277.22L175.39 276.29L194.44 198.95C195.68 193.9 199.78 189.92 204.87 188.81L232.56 182.77C235.34 182.17 238.17 182.69 240.55 184.24C242.92 185.79 244.53 188.17 245.09 190.94L260.04 265.42L254.51 265.3L239.93 191.98C239.65 190.6 238.85 189.42 237.67 188.65C236.48 187.88 235.07 187.61 233.68 187.92L205.99 193.96C202.84 194.65 200.32 197.1 199.55 200.21L181.16 277.22Z" fill="#CCCAC7"/>
<path d="M457.19 253.24C455.82 252.83 333.85 252.85 332.46 253.26C329.57 254.11 329.07 256.96 331.38 258.15C331.41 258.16 331.43 258.17 331.46 258.18C336.26 260.95 362.82 263.06 394.87 263.06C426.73 263.06 453.16 260.97 458.19 258.22C458.2 258.22 458.2 258.22 458.21 258.21C458.24 258.19 458.27 258.17 458.3 258.15C458.31 258.15 458.32 258.14 458.32 258.14C460.65 256.89 460.02 254.08 457.19 253.24Z" fill="#179BB8"/>
<path d="M417.25 249.18C408.44 243.16 398.53 216.64 398.53 187.56C398.53 162.8 399.18 139.32 433.62 132.49L398 122.76L395.94 123.07L358.26 132.48C392.7 139.31 393.35 162.79 393.35 187.55C393.35 216.35 381.1 243.08 372.28 249.17C347.98 249.99 330.69 252.11 330.69 254.59C330.69 257.79 359.43 260.38 394.88 260.38C430.33 260.38 459.07 257.79 459.07 254.59C459.06 252.12 441.67 250 417.25 249.18Z" fill="url(#paint0_linear)"/>
<path d="M502.13 122.78C499.84 122.27 291.1 122.45 289.47 122.93C285.93 123.96 284.53 127.52 290.35 128.92H290.36C301.51 131.95 344.58 134.21 396.01 134.21C448.76 134.21 492.71 131.83 502.45 128.68H502.46C507.78 127.22 506.82 123.84 502.13 122.78Z" fill="#1DACCC"/>
<path d="M396.02 131.05C455.921 131.05 504.48 127.987 504.48 124.21C504.48 120.432 455.921 117.37 396.02 117.37C336.119 117.37 287.56 120.432 287.56 124.21C287.56 127.987 336.119 131.05 396.02 131.05Z" fill="#8EE8FC"/>
<path d="M400.88 122.32L400.93 123.66C400.93 123.66 400.66 124.27 400.35 124.31L366.63 128.8C365.83 128.9 364.25 128.93 363.44 128.88L293.69 125.35C293.53 125.34 293.41 125.25 293.42 125.14L293.53 123.25C293.54 123.13 293.67 123.04 293.84 123.04L388.81 123.14L400.88 122.32Z" fill="#9C9894"/>
<path d="M400.76 122.35L366.29 126.55C365.17 126.67 364.04 126.69 362.9 126.61L293.75 123.04L326.3 118.82L400.76 122.35Z" fill="#CCCAC7"/>
<path d="M406.38 58L403.28 58.01C403.7 58.16 404 58.6 403.96 59.14L399.64 121.34C399.6 121.97 399.12 122.45 398.57 122.42L400.5 122.48C401.05 122.51 403.26 120.92 403.26 118.94L407.36 59.2C407.4 58.55 406.96 58 406.38 58Z" fill="#B3AFAB"/>
<path d="M329.04 61.95L404.11 59.96L400.62 121.31L325.17 117.06L329.04 61.95Z" fill="#D8E8FB"/>
<path d="M401.32 83.19L363.44 83.4L363.95 73.34L401.99 72.79L401.32 83.19Z" fill="#927BE5"/>
<path d="M373.56 112.35L364.43 111.95L364.98 102.36L374.17 102.54L373.56 112.35Z" fill="#4995EE"/>
<path d="M384.5 112.72L375.27 112.32L375.83 102.68L385.11 102.86L384.5 112.72Z" fill="#28C2D1"/>
<path d="M395.24 113.19L386.08 112.76L386.57 102.88L395.95 103.06L395.24 113.19Z" fill="#F7B548"/>
<path d="M370.22 89.1L370.31 86.71L394.11 86.95L394.03 89.38L370.22 89.1Z" fill="#B3AFAB"/>
<path d="M369.98 93.89L370.06 91.49L393.93 91.76L393.85 94.18L369.98 93.89Z" fill="#B3AFAB"/>
<path d="M369.73 98.68L369.83 96.28L387.9 96.63L387.81 99.04L369.73 98.68Z" fill="#B3AFAB"/>
<path d="M368.37 69.46L368.44 67.07L384.89 66.74L384.82 69.15L368.37 69.46Z" fill="#B3AFAB"/>
<path d="M365.82 60.74L331.02 61.99L327.14 117.15L361.91 118.77L365.82 60.74Z" fill="#84817D"/>
<path d="M336.3 69.57L336.35 67.22L350.84 66.99L350.78 69.37L336.3 69.57Z" fill="#B3AFAB"/>
<path d="M340.62 74.8401L340.67 72.4801L355.18 72.3201L355.13 74.7001L340.62 74.8401Z" fill="#B3AFAB"/>
<path d="M340.34 80.2L340.41 77.84L357.61 77.79L357.55 80.17L340.34 80.2Z" fill="#B3AFAB"/>
<path d="M335.31 85.5199L335.39 83.1699L350.79 83.3399L350.7 85.7099L335.31 85.5199Z" fill="#B3AFAB"/>
<path d="M339.89 90.9L339.97 88.54L356.54 88.72L356.46 91.1L339.89 90.9Z" fill="#B3AFAB"/>
<path d="M344.03 96.33L344.11 93.97L358.99 94.13L358.91 96.51L344.03 96.33Z" fill="#B3AFAB"/>
<path d="M343.75 101.71L343.85 99.3398L353.48 99.5798L353.38 101.95L343.75 101.71Z" fill="#B3AFAB"/>
<path d="M339.07 106.94L339.17 104.58L357.9 105.16L357.8 107.54L339.07 106.94Z" fill="#B3AFAB"/>
<path d="M343.21 112.45L343.31 110.08L355.03 110.49L354.92 112.87L343.21 112.45Z" fill="#B3AFAB"/>
<path d="M404.58 57.97L328.95 60.02C328.44 60.02 328.01 60.49 327.97 61.09L324.07 117.68C324.03 118.3 324.43 118.84 324.95 118.86L400.16 122.49C400.71 122.52 401.19 122.04 401.23 121.41L405.56 59.16C405.6 58.51 405.15 57.97 404.58 57.97ZM397.17 117.62C397.13 118.17 396.71 118.59 396.23 118.57L328.49 115.42C328.02 115.4 327.67 114.93 327.71 114.38L331.15 64.5C331.19 63.97 331.57 63.56 332.02 63.56L400.11 61.91C400.62 61.91 401 62.39 400.96 62.96L397.17 117.62Z" fill="#605D5A"/>
<path d="M342.26 67.1299L336.35 67.2199L336.3 69.5699L342.14 69.4899L342.26 67.1299Z" fill="#F7B548"/>
<path d="M346.11 77.8201L340.41 77.8401L340.34 80.2001L345.99 80.1901L346.11 77.8201Z" fill="#F7B548"/>
<path d="M345.13 104.76L339.17 104.58L339.07 106.94L345.01 107.13L345.13 104.76Z" fill="#F7B548"/>
<path d="M258.92 233.16L248.6 230.01C248.35 229.93 248.12 229.84 247.89 229.72L222.08 216.43C220.38 215.55 219.95 213.31 221.22 211.87L255.12 173.47L254.5 180.61L258.92 233.16Z" fill="#522CD5"/>
<path d="M220.5 214.06C220.58 215.03 221.11 215.95 222.07 216.44L247.88 229.73C248.11 229.85 248.35 229.95 248.59 230.02L258.91 233.17L259.53 218.88L220.5 214.06Z" fill="url(#paint1_linear)"/>
<path d="M258.09 175.2L230.04 213.39C229.16 214.59 229.52 216.3 230.81 217.04L258.67 233C259.4 233.42 260.33 233.23 260.84 232.55L264.95 227.05C265.37 226.49 265.57 225.73 265.25 225.12C259.98 215.2 251.95 201.62 265.64 185.29C279.32 168.95 258.09 175.2 258.09 175.2Z" fill="url(#paint2_linear)"/>
<path d="M300.28 235.66L289.51 234.93C289.25 234.91 289 234.87 288.75 234.81L260.6 227.72C258.74 227.25 257.82 225.16 258.73 223.47L283.04 178.38L284.05 185.48L300.28 235.66Z" fill="#522CD5"/>
<path d="M258.54 225.75C258.84 226.67 259.57 227.45 260.6 227.71L288.75 234.8C289 234.86 289.25 234.9 289.51 234.92L300.28 235.65L297.64 221.59L258.54 225.75Z" fill="url(#paint3_linear)"/>
<path d="M286.34 179.39L267.68 222.94C267.09 224.31 267.83 225.89 269.26 226.32L300.01 235.54C300.82 235.78 301.68 235.38 302.02 234.61L304.77 228.32C305.05 227.68 305.08 226.9 304.62 226.37C297.24 217.9 286.34 206.49 295.97 187.48C305.6 168.49 286.34 179.39 286.34 179.39Z" fill="url(#paint4_linear)"/>
<path d="M240.46 287.62L245.53 211.08C245.5 205.24 249.4 200.01 255.03 198.37L295.61 186.95C298.41 186.13 301.36 186.45 303.91 187.85C306.47 189.25 308.33 191.56 309.14 194.35L325.14 268.73L319.27 268.61L304.08 195.82C303.66 194.38 302.7 193.18 301.38 192.46C300.05 191.73 298.53 191.57 297.07 191.99L256.49 203.41C253.11 204.4 250.76 207.53 250.78 211.04L245.69 288.29L240.46 287.62Z" fill="#CCCAC7"/>
<path d="M263.91 196.12L304.08 185.22C306.76 184.47 308.55 181.95 308.38 179.18L307.82 170.29C307.68 168.04 305.9 166.22 303.64 166.03L240.71 156.71L189.27 168.48C189.27 168.48 194.74 187.84 202.45 188.5C206.86 188.88 244.41 194.27 252.63 195.34C258.1 196.07 263.91 196.12 263.91 196.12Z" fill="#179BB8"/>
<path d="M302.32 109.92C304.38 94.36 300.36 82.63 300.36 82.63L303.91 82.19L303.99 82.11C295.49 55.07 268.66 37.1 239.53 40.71C206.71 44.77 183.39 74.67 187.44 107.49C191.5 140.31 221.4 163.63 254.22 159.58C280.12 156.38 300.1 137.09 305.38 112.96C305.5 111.95 305.26 110.19 302.32 109.92Z" fill="url(#paint5_radial)"/>
<path d="M302.32 109.92C304.36 94.5499 300.46 82.9299 300.37 82.6499L283.75 84.5699C283.75 84.5699 279.82 84.6599 280.25 88.1999C280.68 91.7399 282.07 101.76 283.44 112.85C283.73 115.13 301.81 112.17 302.32 109.92Z" fill="url(#paint6_radial)"/>
<path d="M305.23 113.68C305.23 113.68 306.49 110.31 302.32 109.92C302.32 109.9 286.73 111.67 286.73 111.67C285.32 111.84 283.4 111.23 283.07 109.88C283.19 110.86 283.32 111.85 283.44 112.85C283.7 114.92 285.37 115.82 286.77 115.84C286.91 115.84 287.05 115.84 287.19 115.82L305.23 113.68Z" fill="#512BD4"/>
<path d="M301.84 123.91L199.35 136.58C202.13 140.2 205.32 143.48 208.82 146.37L295.03 135.71C297.73 132.06 300.02 128.1 301.84 123.91Z" fill="#D8CFF7"/>
<path d="M292.68 138.71C297.19 133.35 300.76 127.2 303.18 120.55L290.63 122.1L292.68 138.71Z" fill="#512BD4"/>
<path d="M240.05 38.7299L228.57 40.1499L228.73 28.1599L236.97 27.1399L240.05 38.7299Z" fill="#8A6FE8"/>
<path d="M245.34 45.3899C245.86 45.3299 246.22 44.8299 246.1 44.3199C244.82 38.9399 239.67 35.2799 234.06 35.9699C228.45 36.6699 224.35 41.4799 224.42 46.9999C224.43 47.5199 224.9 47.9199 225.41 47.8499L245.34 45.3899Z" fill="url(#paint7_radial)"/>
<path d="M298.045 104.698C300.617 104.439 302.348 100.719 301.913 96.3885C301.477 92.0583 299.039 88.7577 296.467 89.0164C293.895 89.2751 292.164 92.9952 292.599 97.3255C293.035 101.656 295.473 104.956 298.045 104.698Z" fill="#512BD4"/>
<path d="M296.71 92.71C295.21 94.61 295.53 97.36 297.42 98.86C298.72 99.89 300.42 100.06 301.85 99.46C301.99 98.5 302.02 97.45 301.91 96.37C301.7 94.25 301 92.38 300.04 91.05C298.79 91.09 297.55 91.65 296.71 92.71Z" fill="#8065E0"/>
<path d="M231.71 30.19C236.327 30.19 240.07 26.4471 240.07 21.83C240.07 17.2129 236.327 13.47 231.71 13.47C227.093 13.47 223.35 17.2129 223.35 21.83C223.35 26.4471 227.093 30.19 231.71 30.19Z" fill="#D8CFF7"/>
<path d="M294.01 145.94C280.18 145.94 269.18 136.58 255.91 109.89L266.98 104.39C275.67 121.87 282.7 130.67 289.78 132.94C296.13 134.97 303.74 132.5 317.39 126.55L322.33 137.88C311.23 142.71 302.13 145.94 294.01 145.94Z" fill="url(#paint8_linear)"/>
<path d="M260.44 115.72C266.515 115.72 271.44 110.795 271.44 104.72C271.44 98.6448 266.515 93.72 260.44 93.72C254.365 93.72 249.44 98.6448 249.44 104.72C249.44 110.795 254.365 115.72 260.44 115.72Z" fill="url(#paint9_radial)"/>
<path d="M323.03 131.41L331.77 125.23C334.09 123.57 334.46 120.38 332.6 118.12C330.74 115.86 327.36 115.37 325.05 117.03L316.09 123.37L323.03 131.41Z" fill="#8A6FE8"/>
<path d="M326.85 141.07L336.93 136.18C339.61 134.86 340.75 131.78 339.49 129.29C338.23 126.8 335.03 125.86 332.35 127.18L322.01 132.19L326.85 141.07Z" fill="#8A6FE8"/>
<path d="M327.35 133.35L336.97 127.62C339.52 126.08 340.39 122.91 338.91 120.54C337.43 118.18 334.15 117.51 331.6 119.06L321.73 124.94L327.35 133.35Z" fill="#8A6FE8"/>
<path d="M320.7 130.1L322.62 119.57C323.11 116.76 321.15 114.23 318.24 113.91C315.33 113.59 312.57 115.61 312.08 118.42L310.12 129.22L320.7 130.1Z" fill="#8A6FE8"/>
<path d="M310.21 128.71C313.07 123.37 319.85 121.06 325.36 123.53C330.87 126.01 333.02 132.34 330.17 137.68C327.31 143.02 320.53 145.33 315.02 142.86C309.51 140.38 307.35 134.04 310.21 128.71Z" fill="url(#paint10_radial)"/>
<path d="M292.32 164.3L303.07 165.95C303.37 163.5 303.13 161.29 302.3 159.38C300.73 155.78 297.34 153.61 292.96 153.42C283.53 153.02 266.24 154.96 253.39 156.65L254.82 167.46C272.22 165.16 285.52 164.04 292.32 164.3Z" fill="url(#paint11_linear)"/>
<path d="M277.47 192.66L263.78 196.25C246.99 201.21 233.11 197.14 228.04 196.12C223.01 195.11 210.56 192.53 199.15 190.54C193.32 189.53 189.52 178.12 191.29 183.19C193.06 188.26 172.98 100.68 173.59 95.26C174.19 89.84 178.22 85.68 196.36 86.88C214.5 88.08 221.06 88.38 239.28 118.98C256.18 147.37 271.89 174.72 279.96 187.83C281.99 191.14 280.81 191.66 277.47 192.66Z" fill="#22B5D6"/>
<defs>
<linearGradient id="paint0_linear" x1="394.874" y1="122.764" x2="394.874" y2="260.393" gradientUnits="userSpaceOnUse">
<stop stop-color="#1189A5"/>
<stop offset="0.4443" stop-color="#29C3E5"/>
</linearGradient>
<linearGradient id="paint1_linear" x1="260.527" y1="226.335" x2="219.869" y2="216.876" gradientUnits="userSpaceOnUse">
<stop offset="0.3046" stop-color="#522CD5"/>
<stop offset="1" stop-color="#8A6FE8"/>
</linearGradient>
<linearGradient id="paint2_linear" x1="278.518" y1="183.557" x2="239.494" y2="225.263" gradientUnits="userSpaceOnUse">
<stop offset="0.1463" stop-color="#522CD5"/>
<stop offset="0.3651" stop-color="#5530D6"/>
<stop offset="0.9603" stop-color="#8A6FE8"/>
</linearGradient>
<linearGradient id="paint3_linear" x1="300.28" y1="228.627" x2="258.536" y2="228.627" gradientUnits="userSpaceOnUse">
<stop offset="0.3046" stop-color="#522CD5"/>
<stop offset="1" stop-color="#8A6FE8"/>
</linearGradient>
<linearGradient id="paint4_linear" x1="308.109" y1="182.885" x2="279.55" y2="232.35" gradientUnits="userSpaceOnUse">
<stop offset="0.1463" stop-color="#522CD5"/>
<stop offset="0.3651" stop-color="#5530D6"/>
<stop offset="0.9603" stop-color="#8A6FE8"/>
</linearGradient>
<radialGradient id="paint5_radial" cx="0" cy="0" r="1" gradientUnits="userSpaceOnUse" gradientTransform="translate(232.065 72.0922) rotate(-17.4094) scale(50.4135)">
<stop offset="0.4744" stop-color="#A08BE8"/>
<stop offset="0.8618" stop-color="#8065E0"/>
</radialGradient>
<radialGradient id="paint6_radial" cx="0" cy="0" r="1" gradientUnits="userSpaceOnUse" gradientTransform="translate(291.278 94.144) rotate(-17.4094) scale(33.3651)">
<stop offset="0.2022" stop-color="#E1DFDD"/>
<stop offset="0.7337" stop-color="white"/>
</radialGradient>
<radialGradient id="paint7_radial" cx="0" cy="0" r="1" gradientUnits="userSpaceOnUse" gradientTransform="translate(234.181 42.3503) rotate(-17.8062) scale(8.82754)">
<stop stop-color="#8065E0"/>
<stop offset="0.8628" stop-color="#512BD4"/>
</radialGradient>
<linearGradient id="paint8_linear" x1="255.909" y1="125.158" x2="322.335" y2="125.158" gradientUnits="userSpaceOnUse">
<stop offset="0.0797" stop-color="#967FE6"/>
<stop offset="0.4268" stop-color="#8A6FE8"/>
</linearGradient>
<radialGradient id="paint9_radial" cx="0" cy="0" r="1" gradientUnits="userSpaceOnUse" gradientTransform="translate(260.936 100.121) scale(16.3318)">
<stop stop-color="#8065E0"/>
<stop offset="0.8628" stop-color="#512BD4"/>
</radialGradient>
<radialGradient id="paint10_radial" cx="0" cy="0" r="1" gradientUnits="userSpaceOnUse" gradientTransform="translate(317.488 127.365) rotate(160.469) scale(19.0886 17.8156)">
<stop stop-color="#8065E0"/>
<stop offset="0.8628" stop-color="#512BD4"/>
</radialGradient>
<linearGradient id="paint11_linear" x1="253.389" y1="160.414" x2="303.196" y2="160.414" gradientUnits="userSpaceOnUse">
<stop offset="0.2827" stop-color="#522CD5"/>
<stop offset="0.5501" stop-color="#8A6FE8"/>
</linearGradient>
</defs>
</svg>
