<svg width="636" height="300" viewBox="0 0 636 300" fill="none" xmlns="http://www.w3.org/2000/svg">
<path d="M498.4 143.5V175.37L483.16 175.39L498.4 190.55V266.36L550.98 262.13V144.87L498.4 143.5Z" fill="#549BEF"/>
<path d="M412.54 219.44L190.44 227.67C187.42 227.78 184.96 225.33 184.96 222.2V36.2699C184.96 33.1399 187.42 30.8399 190.44 31.1299L412.54 52.7799C414.7 52.9899 416.45 55.2999 416.45 57.9399V214.52C416.45 217.16 414.71 219.36 412.54 219.44Z" fill="#605D5A"/>
<path d="M283.7 59.3798L208.2 53.0798C205.42 52.8498 203.16 50.2998 203.16 47.3798V47.1198C203.16 44.1998 205.42 42.0398 208.2 42.2998L283.7 49.1598C286.19 49.3898 288.19 51.7898 288.19 54.5398V54.7898C288.2 57.5298 286.19 59.5898 283.7 59.3798Z" fill="#939393"/>
<path d="M184.96 59.71V222.21C184.96 225.34 187.42 227.79 190.44 227.68L412.54 219.45C414.7 219.37 416.45 217.17 416.45 214.53V77.67L184.96 59.71Z" fill="#A3C9F6"/>
<path d="M184.96 75.38L416.45 90.87V77.67L184.96 59.71V75.38Z" fill="#76AFF2"/>
<path d="M398.43 152.36L317.11 150.99C315.82 150.97 314.78 149.77 314.78 148.31V95.2098C314.78 93.7498 315.82 92.6298 317.11 92.7098L398.43 97.6298C399.56 97.6998 400.48 98.8598 400.48 100.23V149.92C400.48 151.29 399.56 152.38 398.43 152.36Z" fill="#549BEF"/>
<path d="M206.87 149.8L304.21 151.4V92.8798L206.87 87.0498V149.8Z" stroke="white" stroke-width="2.8606" stroke-miterlimit="10"/>
<path d="M400.56 165.28L314.87 164.72V157.3L400.56 158.34V165.28Z" fill="white"/>
<path d="M317.26 181.17C314.63 181.19 312.48 178.76 312.48 175.77C312.48 172.78 314.63 170.35 317.26 170.36C319.88 170.37 322.01 172.79 322.01 175.76C322.01 178.73 319.88 181.16 317.26 181.17ZM317.26 171.48C315.17 171.48 313.47 173.4 313.47 175.78C313.47 178.15 315.17 180.07 317.26 180.06C319.34 180.05 321.03 178.12 321.03 175.76C321.03 173.4 319.34 171.48 317.26 171.48Z" fill="#797673"/>
<path d="M319.4 175.76C319.4 177.11 318.44 178.2 317.25 178.2C316.06 178.2 315.09 177.11 315.09 175.76C315.09 174.41 316.06 173.32 317.25 173.32C318.44 173.32 319.4 174.42 319.4 175.76Z" fill="#797673"/>
<path d="M364.74 180.9C362.29 180.91 360.29 178.58 360.29 175.69C360.29 172.81 362.29 170.46 364.74 170.47C367.18 170.48 369.16 172.81 369.16 175.68C369.16 178.54 367.18 180.88 364.74 180.9ZM364.74 171.55C362.8 171.55 361.21 173.41 361.21 175.69C361.21 177.97 362.79 179.83 364.74 179.82C366.68 179.81 368.25 177.95 368.25 175.68C368.25 173.4 366.67 171.55 364.74 171.55Z" fill="#797673"/>
<path d="M354.39 178.58L325.04 178.69V172.5L354.39 172.52V178.58Z" fill="#76AFF2"/>
<path d="M222.33 181.72C219.31 181.74 216.84 179.14 216.84 175.94C216.84 172.74 219.31 170.13 222.33 170.14C225.34 170.15 227.78 172.74 227.78 175.92C227.78 179.1 225.34 181.7 222.33 181.72ZM222.33 171.33C219.93 171.33 217.98 173.39 217.98 175.93C217.98 178.47 219.94 180.53 222.33 180.52C224.72 180.51 226.66 178.44 226.66 175.92C226.66 173.4 224.72 171.33 222.33 171.33Z" fill="#797673"/>
<path d="M224.79 175.92C224.79 177.36 223.69 178.53 222.32 178.54C220.95 178.54 219.85 177.38 219.85 175.93C219.85 174.48 220.96 173.31 222.32 173.31C223.69 173.31 224.79 174.48 224.79 175.92Z" fill="#797673"/>
<path d="M291.45 178.83L231.26 179.06V172.43L291.45 172.47V178.83Z" fill="#939393"/>
<path d="M222.33 200.85C219.31 200.91 216.84 198.35 216.84 195.14C216.84 191.93 219.31 189.3 222.33 189.27C225.34 189.24 227.78 191.8 227.78 194.98C227.78 198.16 225.34 200.79 222.33 200.85ZM222.33 190.47C219.93 190.5 217.98 192.59 217.98 195.13C217.98 197.67 219.94 199.7 222.33 199.66C224.72 199.62 226.66 197.53 226.66 195C226.66 192.47 224.72 190.44 222.33 190.47Z" fill="#797673"/>
<path d="M291.45 197.04L231.26 198.08V191.44L291.45 190.68V197.04Z" fill="#939393"/>
<path d="M400.11 178.4L372.82 178.51V172.54L400.11 172.56V178.4Z" fill="#76AFF2"/>
<path d="M369.28 199.03L312.71 200.16V189.22L369.28 188.55V199.03Z" fill="white"/>
<path d="M398.63 189.78V196.87L374.81 197.31V190.08L398.63 189.78ZM399.93 188.19L373.45 188.5V198.95L399.93 198.42V188.19Z" fill="#76AFF2"/>
<path d="M369.28 199.03L359.59 199.23V188.67L369.28 188.55V199.03Z" fill="#797673"/>
<path d="M361.41 191.81L364.61 195.52L367.58 191.57" stroke="#B3AFAB" stroke-width="1.4303" stroke-miterlimit="10" stroke-linecap="round" stroke-linejoin="round"/>
<path d="M447.26 184.52C446.05 185.03 444.86 185.63 443.68 186.36C442.07 187.35 440.57 188.49 439.18 189.77L441.68 196.45C440.3 197.92 439.1 199.57 438.08 201.35L431.43 200.66C429.92 204 428.9 207.6 428.42 211.29L434.35 214.2C434.22 216.64 434.4 219.11 434.91 221.51C433.47 222.74 431.04 224.74 429.48 226.01C429.88 227.39 430.36 228.74 430.93 230.06C431.72 231.88 432.66 233.55 433.7 235.08L439.71 231.87C441.01 233.48 442.49 234.84 444.1 235.91L443.05 243.48C445.85 244.93 448.87 245.77 451.98 245.99L454.99 238.96C456.72 238.87 458.46 238.53 460.18 237.92L463.6 243.77C464.83 243.2 466.05 242.52 467.25 241.72C468.88 240.64 470.38 239.39 471.75 238.02L469.3 231.62C470.65 230.08 471.82 228.37 472.79 226.54L478.79 227.54C480.27 224.12 481.25 220.45 481.67 216.7C479.93 215.98 477.48 214.96 476.11 214.35C476.22 212.2 476.08 210.03 475.69 207.9L480.83 203.8C480.43 202.21 479.92 200.65 479.29 199.12C478.51 197.24 477.58 195.5 476.53 193.92L471.09 197.22C469.78 195.52 468.29 194.08 466.64 192.94L467.98 185.76C465.37 184.24 462.54 183.26 459.59 182.85L457.09 189.68C454.99 189.59 452.85 189.88 450.73 190.57L447.26 184.52ZM466.15 207.53C468.97 214.21 466.57 222.65 460.76 226.44C454.9 230.26 447.75 227.93 444.84 221.17C441.91 214.38 444.4 205.79 450.36 202.05C456.27 198.33 463.32 200.82 466.15 207.53Z" fill="#A7A4A0"/>
<path d="M480.39 87.5098L393.82 81.1498C391.38 80.9698 389.39 83.2098 389.39 86.1598V152.58C389.39 155.53 391.38 157.94 393.82 157.97L455.09 158.73L472.11 174.31V158.94L480.4 159.04C482.51 159.07 484.22 156.88 484.22 154.15V92.7198C484.21 89.9998 482.5 87.6698 480.39 87.5098Z" fill="#F7B548"/>
<path d="M447.26 101.72L423.21 100.29C422.29 100.24 421.54 99.2699 421.54 98.1299C421.54 96.9899 422.29 96.1199 423.21 96.1799L447.26 97.6899C448.15 97.7499 448.86 98.6899 448.86 99.7999C448.86 100.91 448.14 101.77 447.26 101.72Z" fill="white"/>
<path d="M415.71 99.8399L404.29 99.1599C403.34 99.0999 402.57 98.1199 402.57 96.9699C402.57 95.8199 403.34 94.9299 404.29 94.9899L415.71 95.7099C416.64 95.7699 417.4 96.7399 417.4 97.8799C417.4 99.0199 416.64 99.8899 415.71 99.8399Z" fill="#549BEF"/>
<path d="M436.41 110.02L413.5 108.82C412.56 108.77 411.8 107.8 411.8 106.66C411.8 105.52 412.56 104.63 413.5 104.68L436.41 105.95C437.31 106 438.04 106.95 438.04 108.07C438.05 109.2 437.32 110.07 436.41 110.02Z" fill="white"/>
<path d="M455.85 119.84L428.46 118.61C427.55 118.57 426.8 117.62 426.8 116.49C426.8 115.36 427.54 114.48 428.46 114.52L455.85 115.84C456.72 115.88 457.43 116.81 457.43 117.91C457.43 119.01 456.72 119.88 455.85 119.84Z" fill="#549BEF"/>
<path d="M420.72 118.26L413.51 117.94C412.57 117.9 411.81 116.93 411.81 115.79C411.81 114.65 412.57 113.75 413.51 113.8L420.72 114.15C421.64 114.19 422.39 115.15 422.39 116.29C422.39 117.42 421.64 118.31 420.72 118.26Z" fill="white"/>
<path d="M469.81 129.17L453.79 128.57C452.91 128.54 452.2 127.61 452.2 126.5C452.2 125.39 452.91 124.52 453.79 124.56L469.81 125.21C470.66 125.24 471.35 126.16 471.35 127.25C471.35 128.34 470.66 129.2 469.81 129.17Z" fill="white"/>
<path d="M446.96 128.31L423.52 127.43C422.6 127.4 421.85 126.45 421.85 125.31C421.85 124.17 422.6 123.28 423.52 123.32L446.96 124.28C447.85 124.32 448.56 125.25 448.56 126.36C448.56 127.47 447.84 128.35 446.96 128.31Z" fill="white"/>
<path d="M442.16 137.04L412.87 136.16C411.93 136.13 411.17 135.18 411.17 134.03C411.17 132.88 411.93 131.98 412.87 132.01L442.16 132.99C443.05 133.02 443.78 133.95 443.78 135.07C443.78 136.18 443.05 137.07 442.16 137.04Z" fill="#549BEF"/>
<path d="M450.83 146.14L424.14 145.53C423.22 145.51 422.47 144.57 422.47 143.43C422.47 142.29 423.22 141.39 424.14 141.42L450.83 142.12C451.71 142.14 452.42 143.06 452.42 144.17C452.42 145.28 451.71 146.16 450.83 146.14Z" fill="#549BEF"/>
<path d="M498.4 158.85L550.98 159.52V144.87L498.4 143.5V158.85Z" fill="#605D5A"/>
<path d="M527.94 173.88L509.52 173.89C508.72 173.89 508.08 173.03 508.08 171.98C508.08 170.93 508.73 170.07 509.52 170.07L527.94 170.13C528.71 170.13 529.33 170.98 529.33 172.01C529.33 173.04 528.71 173.88 527.94 173.88Z" fill="#F7B548"/>
<path d="M533.63 182.96L515.4 183.11C514.61 183.12 513.97 182.27 513.97 181.22C513.97 180.17 514.61 179.31 515.4 179.31L533.63 179.22C534.39 179.22 535.01 180.05 535.01 181.08C535.01 182.12 534.39 182.96 533.63 182.96Z" fill="white"/>
<path d="M540.27 191.94L522.26 192.24C521.48 192.25 520.85 191.42 520.85 190.37C520.85 189.32 521.48 188.47 522.26 188.46L540.27 188.22C541.02 188.21 541.63 189.03 541.63 190.06C541.63 191.09 541.03 191.93 540.27 191.94Z" fill="white"/>
<path d="M527.94 201.28L509.52 201.74C508.72 201.76 508.08 200.92 508.08 199.86C508.08 198.8 508.73 197.93 509.52 197.92L527.94 197.53C528.71 197.51 529.33 198.34 529.33 199.38C529.33 200.42 528.71 201.26 527.94 201.28Z" fill="#F7B548"/>
<path d="M527.94 210.41L509.52 211.02C508.72 211.05 508.08 210.21 508.08 209.15C508.08 208.09 508.73 207.22 509.52 207.19L527.94 206.65C528.71 206.63 529.33 207.45 529.33 208.49C529.33 209.53 528.71 210.39 527.94 210.41Z" fill="white"/>
<path d="M533.5 219.32L515.26 220.07C514.47 220.1 513.83 219.28 513.83 218.22C513.83 217.17 514.47 216.29 515.26 216.26L533.5 215.57C534.26 215.54 534.88 216.35 534.88 217.39C534.88 218.43 534.26 219.29 533.5 219.32Z" fill="#F7B548"/>
<path d="M533.63 228.4L515.4 229.3C514.61 229.34 513.97 228.52 513.97 227.47C513.97 226.42 514.61 225.54 515.4 225.5L533.63 224.67C534.39 224.64 535.01 225.44 535.01 226.48C535.01 227.5 534.39 228.37 533.63 228.4Z" fill="white"/>
<path d="M540.27 237.11L522.26 238.14C521.48 238.18 520.85 237.37 520.85 236.33C520.85 235.28 521.48 234.4 522.26 234.36L540.27 233.39C541.02 233.35 541.63 234.15 541.63 235.17C541.63 236.19 541.03 237.07 540.27 237.11Z" fill="white"/>
<path d="M242.13 256.46L85.02 265.71V160.38L242.13 161.69V256.46Z" fill="#C5D43B"/>
<path d="M152.52 226.57L121.57 213.95V210.76L152.52 194.75V199.5L127.43 211.95L152.52 221.76V226.57Z" fill="white"/>
<path d="M178.48 187.46L161.68 233.9L156.49 234.11L173.4 187.51L178.48 187.46Z" fill="white"/>
<path d="M182.27 220.8L205.63 210.03L182.27 198.98V194.33L210.84 208.59V211.59L182.27 225.52V220.8Z" fill="white"/>
</svg>
