<svg width="636" height="300" viewBox="0 0 636 300" fill="none" xmlns="http://www.w3.org/2000/svg">
<path d="M462.89 76.34L336.02 84.1301C336.02 84.1301 341.27 72.8201 347.5 69.7601C354.7 66.2201 362.67 68.3501 362.67 68.3501C362.67 68.3501 367.18 56.6601 375.63 54.3801C386.27 51.5201 392.03 57.1101 392.03 57.1101C392.03 57.1101 398.53 49.1901 410.1 50.1501C423.14 51.2301 425.07 59.3901 425.07 59.3901C425.07 59.3901 432.21 57.2801 439.08 59.6401C444.41 61.4801 447.91 67.6501 447.91 67.6501C447.91 67.6501 453.14 66.6801 456.88 68.0001C462.44 69.9701 462.89 76.34 462.89 76.34Z" fill="#D0EDFD"/>
<path d="M219.73 87.9399C219.73 87.9399 197.35 85.6999 170.8 101.43C139.93 119.72 119.58 116.06 119.58 116.06L95.1101 57.7599C95.1101 57.7599 117.98 60.7299 148.84 42.4399C175.39 26.7099 197.77 28.9499 197.77 28.9499L219.73 87.9399Z" fill="#CCCAC7"/>
<path d="M219.73 87.9399C219.73 87.9399 197.35 85.6999 170.8 101.43C139.93 119.72 119.58 116.06 119.58 116.06L95.1101 57.7599C95.1101 57.7599 117.98 60.7299 148.84 42.4399C175.39 26.7099 197.77 28.9499 197.77 28.9499L219.73 87.9399Z" fill="#797672"/>
<path d="M139.4 47.5201L163.95 105.22C166.17 104.07 168.45 102.82 170.8 101.43C173.01 100.12 175.18 98.95 177.32 97.88L152.64 40.3C151.39 40.97 150.12 41.68 148.85 42.43C145.6 44.36 142.45 46.0401 139.4 47.5201Z" fill="#E6E4E3"/>
<path d="M181.09 30.1699C176.8 30.9599 171.85 32.1999 166.47 34.1299L191.17 92.1799C196.81 90.3499 201.89 89.2699 206.16 88.6399L181.09 30.1699Z" fill="#E6E4E3"/>
<path d="M135.55 115.28C139.77 114.52 144.73 113.26 150.33 111.22L125.47 53.21C119.92 55.05 114.95 56.2 110.72 56.9L135.55 115.28Z" fill="#E6E4E3"/>
<path d="M100.39 70.34L105.27 81.97C113.64 83.18 134.89 82.64 157.99 66.67C181.67 50.31 202.08 52.43 206.81 53.21L202.26 41C197.63 40.77 177.5 40.73 153.42 55.02C132.71 67.3 116.99 70.98 100.39 70.34Z" fill="#E6E4E3"/>
<path d="M169.88 88.4001C190.23 74.8301 209.63 75.5101 215.31 76.0701L211.09 64.7401C206.55 64.2401 184.38 62.79 161.64 78.34C140.92 92.51 124.12 96.3001 110.49 94.4401L115.08 105.39C129.65 107.79 150.07 101.6 169.88 88.4001Z" fill="#E6E4E3"/>
<path d="M263.63 194.76C262.98 194.76 262.37 194.37 262.11 193.74L194.44 27.12C194.1 26.28 194.5 25.33 195.34 24.99C196.17 24.65 197.13 25.05 197.47 25.89L265.14 192.51C265.48 193.35 265.08 194.3 264.24 194.64C264.04 194.72 263.84 194.76 263.63 194.76Z" fill="#F2A694"/>
<path d="M159.46 94.67C162.93 92.8 166.42 90.71 169.88 88.4C170.77 87.81 171.65 87.28 172.53 86.74L167.39 74.76C165.48 75.84 163.57 77.03 161.64 78.34C159.19 80.02 156.8 81.53 154.45 82.93L159.46 94.67Z" fill="#797672"/>
<path d="M131.18 105C135.87 104.18 140.81 102.8 145.9 100.88L141.09 89.6702C135.93 91.7902 131.08 93.2002 126.5 94.0102L131.18 105Z" fill="#797672"/>
<path d="M196.05 65.1001C191.65 65.6801 186.58 66.7401 181.12 68.5901L186.06 80.2101C191.48 78.2401 196.54 77.1001 200.93 76.4901L196.05 65.1001Z" fill="#797672"/>
<path d="M149.73 71.79C152.44 70.29 155.2 68.6 157.99 66.67C159.56 65.59 161.11 64.59 162.65 63.66L157.87 52.5C156.4 53.28 154.92 54.12 153.42 55C150.39 56.8 147.48 58.39 144.65 59.83L149.73 71.79Z" fill="#797672"/>
<path d="M171.67 46.3701L176.22 57.0701C181.66 55.0501 186.65 53.8901 190.99 53.2901L186.3 42.3401C182.01 43.1501 177.08 44.4201 171.67 46.3701Z" fill="#797672"/>
<path d="M121.23 81.62C125.67 80.97 130.67 79.81 136.06 77.93L130.86 65.79C125.76 67.56 120.88 68.78 116.08 69.51L121.23 81.62Z" fill="#797672"/>
<path d="M160.27 225.32C177.09 226.63 440.14 237.59 444.71 237.59C449.28 237.59 532.85 238.57 540.68 237.92C548.51 237.27 544.27 234.33 529.58 232.37C514.89 230.41 327.85 205.6 327.85 205.6L209.03 199.72C209.03 199.72 212.99 220 173.55 220.27C146.45 220.46 143.46 224.01 160.27 225.32Z" fill="#6D6A66"/>
<path d="M215.25 137.11C213.98 134.25 216.15 131.05 219.27 131.2C226.81 131.54 239.05 132.3 247.4 133.84C263.66 136.83 258.93 144.78 243.73 148.79C229.82 152.46 220.9 149.84 220.9 149.84L215.25 137.11Z" fill="#E86E58"/>
<path d="M356.13 162.86C355.69 159.87 357.88 157.04 361.03 156.54C364.17 156.05 367.08 158.07 367.52 161.07C367.96 164.06 365.77 166.89 362.62 167.39C359.47 167.89 356.57 165.85 356.13 162.86Z" fill="url(#paint0_radial)"/>
<path d="M309.4 171.12L277.26 167.76C277.26 167.76 284.36 135.06 302.3 135.24C320.24 135.43 309.4 171.12 309.4 171.12Z" fill="#4A4844"/>
<path d="M354.07 151.95C355.57 144.4 353.82 138.54 353.82 138.54L355.66 138.44L355.7 138.4C352.08 124.91 338.77 115.28 323.67 116.13C306.66 117.09 293.82 131 294.99 147.18C296.16 163.36 310.91 175.71 327.92 174.75C341.34 173.99 352.17 165.17 355.56 153.53C355.65 153.04 355.58 152.17 354.07 151.95Z" fill="url(#paint1_radial)"/>
<path d="M353.5 158.77L300.31 161.78C301.64 163.64 303.19 165.34 304.91 166.86L349.66 164.33C351.16 162.63 352.45 160.77 353.5 158.77Z" fill="#D8CFF7"/>
<path d="M337.61 166.62L347.59 166.06L346.98 157.66L337 158.22L337.61 166.62Z" fill="#512BD4"/>
<path d="M339.12 163.39C339.05 163.39 339 163.38 338.95 163.34C338.9 163.3 338.87 163.25 338.87 163.19C338.87 163.13 338.89 163.08 338.93 163.03C338.97 162.98 339.03 162.96 339.09 162.96C339.16 162.96 339.22 162.97 339.27 163.02C339.32 163.06 339.35 163.11 339.35 163.17C339.35 163.23 339.33 163.28 339.29 163.33C339.24 163.36 339.19 163.39 339.12 163.39Z" fill="white"/>
<path d="M341.77 163.21L341.34 163.23L340.08 161.58C340.05 161.54 340.02 161.49 340 161.45H339.99C340 161.5 340.01 161.61 340.03 161.77L340.14 163.29L339.76 163.31L339.6 160.99L340.06 160.97L341.28 162.58C341.33 162.65 341.36 162.69 341.38 162.72H341.39C341.37 162.66 341.36 162.56 341.35 162.41L341.25 160.91L341.63 160.89L341.77 163.21Z" fill="white"/>
<path d="M343.63 163.11L342.29 163.18L342.13 160.86L343.41 160.79L343.43 161.12L342.54 161.17L342.59 161.83L343.41 161.79L343.43 162.12L342.61 162.16L342.66 162.85L343.6 162.8L343.63 163.11Z" fill="white"/>
<path d="M345.39 161.01L344.71 161.05L344.85 163.05L344.45 163.07L344.31 161.07L343.63 161.11L343.61 160.78L345.37 160.68L345.39 161.01Z" fill="white"/>
<path d="M354.14 151.94C355.62 144.48 353.94 138.68 353.9 138.54L321.94 140.35C321.94 140.35 319.91 140.27 320.04 142.02C320.17 143.77 320.6 148.71 321 154.18C321.08 155.3 322.09 155.79 322.85 155.75C322.84 155.75 353.43 153.2 354.14 151.94Z" fill="url(#paint2_radial)"/>
<path d="M335.08 153.04C335.08 153.04 339.73 149.06 340.64 148.32C341.55 147.58 342.39 147.5 343.32 148.17C344.25 148.84 349.44 152.23 349.44 152.23L335.08 153.04Z" fill="#A08BE8"/>
<path d="M355.47 153.91C355.47 153.91 356.27 152.26 354.14 151.94C354.14 151.93 322.72 153.7 322.72 153.7C321.99 153.74 321.02 153.38 320.89 152.71C320.93 153.19 320.96 153.68 321 154.18C321.07 155.2 321.91 155.69 322.63 155.75C322.7 155.75 322.77 155.76 322.85 155.75L325 155.63L355.47 153.91Z" fill="#512BD4"/>
<path d="M330.297 150.449C331.622 150.318 332.524 148.487 332.313 146.36C332.102 144.233 330.856 142.616 329.532 142.747C328.207 142.879 327.305 144.71 327.517 146.837C327.728 148.963 328.973 150.581 330.297 150.449Z" fill="#512BD4"/>
<path d="M329.75 144.68C330.21 144.18 330.86 143.94 331.5 143.96C331.93 144.61 332.23 145.47 332.31 146.44C332.36 147.04 332.32 147.61 332.22 148.13C331.47 148.38 330.61 148.25 329.97 147.71C329.03 146.93 328.93 145.57 329.75 144.68Z" fill="#8065E0"/>
<path d="M349.708 149.359C351.032 149.227 351.934 147.396 351.723 145.269C351.512 143.142 350.267 141.525 348.942 141.657C347.618 141.788 346.715 143.619 346.927 145.746C347.138 147.873 348.383 149.49 349.708 149.359Z" fill="#512BD4"/>
<path d="M349.16 143.59C349.62 143.09 350.27 142.85 350.91 142.87C351.34 143.52 351.64 144.38 351.72 145.35C351.77 145.95 351.73 146.52 351.63 147.04C350.88 147.29 350.02 147.16 349.38 146.62C348.44 145.84 348.34 144.48 349.16 143.59Z" fill="#8065E0"/>
<path d="M332.95 171.55C332.47 171.71 321.02 175.51 312.52 169.78C307.61 166.47 304.77 160.8 304.09 152.92L309.55 152.23C310.07 158.32 312.1 162.6 315.58 164.95C321.92 169.24 331.31 166.17 331.41 166.14L332.95 171.55Z" fill="#8A6FE8"/>
<path d="M363.87 161.9L357.79 168.07C356.79 169.09 356.74 170.73 357.69 171.74L357.86 171.92C358.81 172.93 360.38 172.93 361.39 171.91L367.47 165.74C368.47 164.72 368.52 163.08 367.57 162.07L367.4 161.89C366.45 160.88 364.88 160.88 363.87 161.9Z" fill="#8A6FE8"/>
<path d="M360.1 178.09L364.77 180.87C366.02 181.6 367.63 181.12 368.38 179.8C369.12 178.48 368.71 176.81 367.46 176.08L362.67 173.23L360.1 178.09Z" fill="#8A6FE8"/>
<path d="M362.91 177.08L370.38 177.74C371.82 177.86 373.13 176.74 373.29 175.23C373.45 173.72 372.42 172.4 370.97 172.28L365.42 171.77L362.91 177.08Z" fill="#8A6FE8"/>
<path d="M362.48 173.78L369.96 172.65C371.4 172.43 372.45 171.05 372.29 169.55C372.13 168.05 370.83 167.01 369.38 167.23L361.76 168.38L362.48 173.78Z" fill="#8A6FE8"/>
<path d="M357.66 168.36C359.99 166.25 363.47 166.46 365.42 168.82C367.37 171.18 367.06 174.8 364.73 176.91C362.4 179.02 358.92 178.81 356.97 176.45C355.02 174.09 355.32 170.47 357.66 168.36Z" fill="url(#paint3_radial)"/>
<path d="M320.6 114.64L326.35 114.29L324.69 104.42L320.56 104.67L320.6 114.64Z" fill="#8A6FE8"/>
<path d="M323.94 108.4C321.88 109.04 319.64 107.98 318.94 106.04C318.23 104.1 319.32 102.01 321.38 101.37C323.44 100.73 325.68 101.79 326.38 103.73C327.09 105.67 325.99 107.76 323.94 108.4Z" fill="#D8CFF7"/>
<path d="M318.67 118.17C318.41 118.18 318.18 117.99 318.2 117.74C318.3 115.15 320.45 113.01 323.26 112.85C326.07 112.68 328.55 114.54 329.06 117.09C329.11 117.33 328.92 117.55 328.66 117.57L318.67 118.17Z" fill="#522CD5"/>
<path d="M308.32 145.53C311.16 146.81 312.4 150.02 311.08 152.71C309.76 155.4 306.39 156.54 303.55 155.27C300.71 153.99 299.47 150.78 300.79 148.09C302.11 145.4 305.48 144.26 308.32 145.53Z" fill="url(#paint4_radial)"/>
<path d="M191.34 171.67C188.44 171.67 183.45 171.67 179.29 171.67C178.33 171.67 177.55 173.34 176.92 176.07C169.47 181.02 164.51 189.67 164.51 199.55C164.51 209.02 169.07 217.38 176.02 222.41C176.49 225.51 177.1 227.42 177.85 227.42C181.91 227.42 186.12 227.42 191.35 227.42C206.17 227.42 218.18 214.94 218.18 199.55C218.18 184.16 206.16 171.67 191.34 171.67Z" fill="#4A4844"/>
<path d="M179.29 227.42C194.108 227.42 206.12 214.942 206.12 199.55C206.12 184.158 194.108 171.68 179.29 171.68C164.472 171.68 152.46 184.158 152.46 199.55C152.46 214.942 164.472 227.42 179.29 227.42Z" fill="#797672"/>
<path d="M179.29 220.09C190.209 220.09 199.06 210.894 199.06 199.55C199.06 188.206 190.209 179.01 179.29 179.01C168.371 179.01 159.52 188.206 159.52 199.55C159.52 210.894 168.371 220.09 179.29 220.09Z" fill="white"/>
<path d="M179.29 215.01C187.514 215.01 194.18 208.088 194.18 199.55C194.18 191.012 187.514 184.09 179.29 184.09C171.067 184.09 164.4 191.012 164.4 199.55C164.4 208.088 171.067 215.01 179.29 215.01Z" fill="#CCCAC7"/>
<path d="M183.31 204.56C185.972 204.56 188.13 202.317 188.13 199.55C188.13 196.783 185.972 194.54 183.31 194.54C180.648 194.54 178.49 196.783 178.49 199.55C178.49 202.317 180.648 204.56 183.31 204.56Z" fill="white"/>
<path d="M197.09 166.82L192.04 142.16L195.97 142.72L212.51 167.67L197.09 166.82Z" fill="#4A4844"/>
<path d="M233.25 165.7L228.2 141.04L232.13 141.6L248.67 166.54L233.25 165.7Z" fill="#4A4844"/>
<path d="M166.53 135.99C167.37 135.43 227.08 137.67 234.93 137.95C242.78 138.23 247.24 142.04 230.73 143C211.39 144.12 165.98 143 165.98 143L166.53 135.99Z" fill="#F2A694"/>
<path d="M490.07 181.53C487.47 181.53 483.01 181.53 479.28 181.53C478.42 181.53 477.72 183 477.15 185.39C470.48 189.74 466.04 197.34 466.04 206C466.04 214.32 470.12 221.65 476.34 226.07C476.76 228.79 477.31 230.47 477.98 230.47C481.62 230.47 485.38 230.47 490.06 230.47C503.33 230.47 514.08 219.51 514.08 205.99C514.08 192.47 503.34 181.53 490.07 181.53Z" fill="#4A4844"/>
<path d="M479.28 230.49C492.546 230.49 503.3 219.53 503.3 206.01C503.3 192.49 492.546 181.53 479.28 181.53C466.014 181.53 455.26 192.49 455.26 206.01C455.26 219.53 466.014 230.49 479.28 230.49Z" fill="#797672"/>
<path d="M479.28 224.04C489.056 224.04 496.98 215.968 496.98 206.01C496.98 196.052 489.056 187.98 479.28 187.98C469.505 187.98 461.58 196.052 461.58 206.01C461.58 215.968 469.505 224.04 479.28 224.04Z" fill="white"/>
<path d="M479.28 219.16C486.41 219.16 492.19 213.272 492.19 206.01C492.19 198.747 486.41 192.86 479.28 192.86C472.15 192.86 466.37 198.747 466.37 206.01C466.37 213.272 472.15 219.16 479.28 219.16Z" fill="#CCCAC7"/>
<path d="M545.29 234.82L507.18 232.59L511.63 212.28C511.63 212.28 512.36 209.84 525.26 213.67C538.09 217.48 546.01 226.92 549.43 231.9C550.34 233.22 549.33 234.99 547.73 234.92L545.29 234.82Z" fill="#DC624F"/>
<path d="M480.82 214.84L519.78 217.62C519.78 217.62 526.64 221.34 528.64 224.2C530.64 227.06 526.98 230.59 526.98 230.59L501.82 230.89L480.82 214.84Z" fill="#CC5444"/>
<path d="M150.29 137.27C148.98 134.33 151.22 131.05 154.43 131.19C162.46 131.55 175.73 132.36 184.76 134.02C202.13 137.21 197.08 145.71 180.84 150C165.98 153.92 156.45 151.12 156.45 151.12L150.29 137.27Z" fill="#E86E58"/>
<path d="M501.8 214.48C474.33 199.34 435.36 178.6 402.57 174.4C369.77 170.19 289.32 167.11 289.32 167.11C289.32 167.11 288.86 158.23 293.24 148.05C293.8 146.76 294.37 145.6 294.95 144.49C295.06 139.88 296.31 135.52 298.45 131.66L276.33 137.87C276.33 137.87 245.87 160.67 220.08 162.91C194.29 165.15 155.05 160.95 155.05 160.95L160.38 171.32C160.38 171.32 175.52 169.92 194.86 176.37C214.2 182.82 220.65 223.74 220.65 223.74C220.65 223.74 371.74 227.94 372.58 227.66C373.42 227.38 474.06 230.74 474.06 230.74C474.06 230.74 489.48 232.14 497.33 232.42C505.18 232.7 529.27 229.62 501.8 214.48Z" fill="#E86E58"/>
<path d="M501.8 214.48C474.33 199.34 435.36 178.6 402.57 174.4C369.77 170.19 289.32 167.11 289.32 167.11C289.32 167.11 288.86 158.23 293.24 148.05C293.8 146.76 294.37 145.6 294.95 144.49C295.06 139.88 296.31 135.52 298.45 131.66L278.96 133.52C277.34 133.67 275.8 134.32 274.54 135.35C267.51 141.16 242.06 161 220.08 162.91C210.78 163.72 199.74 163.69 189.42 163.32C227.2 166.85 380.32 181.27 394.07 184.21C405.04 186.56 473.3 212.99 513.43 228.71C516.21 226.01 514.66 221.57 501.8 214.48Z" fill="#F2A694"/>
<path d="M394.05 181.82C391.15 181.82 386.16 181.82 382 181.82C381.04 181.82 380.26 183.46 379.63 186.13C372.18 190.99 367.22 199.47 367.22 209.16C367.22 218.45 371.78 226.65 378.73 231.59C379.2 234.63 379.81 236.51 380.56 236.51C384.62 236.51 388.83 236.51 394.06 236.51C408.88 236.51 420.89 224.27 420.89 209.17C420.89 194.07 408.87 181.82 394.05 181.82Z" fill="#4A4844"/>
<path d="M382 236.51C396.818 236.51 408.83 224.269 408.83 209.17C408.83 194.07 396.818 181.83 382 181.83C367.182 181.83 355.17 194.07 355.17 209.17C355.17 224.269 367.182 236.51 382 236.51Z" fill="#797672"/>
<path d="M382 229.32C392.919 229.32 401.77 220.299 401.77 209.17C401.77 198.041 392.919 189.02 382 189.02C371.081 189.02 362.23 198.041 362.23 209.17C362.23 220.299 371.081 229.32 382 229.32Z" fill="white"/>
<path d="M382 224.34C390.224 224.34 396.89 217.548 396.89 209.17C396.89 200.792 390.224 194 382 194C373.777 194 367.11 200.792 367.11 209.17C367.11 217.548 373.777 224.34 382 224.34Z" fill="#CCCAC7"/>
<path d="M386.02 214.08C388.682 214.08 390.84 211.882 390.84 209.17C390.84 206.458 388.682 204.26 386.02 204.26C383.358 204.26 381.2 206.458 381.2 209.17C381.2 211.882 383.358 214.08 386.02 214.08Z" fill="#FDFDFD"/>
<path d="M295.82 184.83L310.06 185.04L290.78 216.4C289.24 218.91 286.47 220.39 283.53 220.29L269.69 219.8L288.89 188.63C290.37 186.23 293 184.79 295.82 184.83Z" fill="#4A4844"/>
<path d="M274.27 165.33C279.947 165.33 284.55 160.728 284.55 155.05C284.55 149.373 279.947 144.77 274.27 144.77C268.593 144.77 263.99 149.373 263.99 155.05C263.99 160.728 268.593 165.33 274.27 165.33Z" fill="white"/>
<path d="M423.31 214.48L465.92 216.72C465.92 216.72 473.49 220.64 475.73 223.73C477.97 226.81 474.05 230.74 474.05 230.74L446.58 231.58L423.31 214.48Z" fill="#CC5444"/>
<path d="M448.53 234.94L410.13 232.7L414.62 212.24C414.62 212.24 415.36 209.78 428.36 213.64C440.91 217.37 448.8 226.45 452.41 231.56C453.47 233.06 452.35 235.11 450.51 235.03L448.53 234.94Z" fill="#DC624F"/>
<path d="M377.96 171.66C376.21 161.88 368.14 155.33 358.04 155.33C348.86 155.33 341.57 160.67 338.93 169.13C352.16 169.87 365.46 170.67 377.96 171.66Z" fill="#4A4844"/>
<path d="M358.83 153.77L358.32 155.95C358.04 157.29 358.95 158.61 360.36 158.91L360.61 158.96C362.02 159.25 363.4 158.4 363.68 157.06L364.19 154.88C364.47 153.54 363.56 152.22 362.15 151.92L361.9 151.87C360.49 151.58 359.12 152.43 358.83 153.77Z" fill="#8A6FE8"/>
<path d="M364.03 154.92L363.1 156.96C362.56 158.22 363.19 159.7 364.52 160.26L364.76 160.36C366.09 160.93 367.6 160.36 368.14 159.11L369.07 157.07C369.61 155.81 368.98 154.33 367.65 153.77L367.41 153.67C366.09 153.1 364.57 153.66 364.03 154.92Z" fill="#8A6FE8"/>
<path d="M368.65 157.34L367.32 159.14C366.52 160.26 366.83 161.83 368.01 162.67L368.22 162.82C369.4 163.65 371 163.42 371.79 162.31L373.12 160.51C373.92 159.39 373.61 157.82 372.43 156.98L372.22 156.83C371.05 155.99 369.45 156.22 368.65 157.34Z" fill="#8A6FE8"/>
<path d="M340.66 163.54L342.34 165.02C343.38 165.91 344.98 165.73 345.91 164.63L346.07 164.43C347 163.33 346.91 161.71 345.86 160.83L344.18 159.35C343.14 158.46 341.54 158.64 340.61 159.74L340.45 159.94C339.53 161.04 339.62 162.66 340.66 163.54Z" fill="#8A6FE8"/>
<path d="M344.47 160.32L345.8 162.12C346.63 163.21 348.23 163.37 349.37 162.49L349.57 162.33C350.71 161.45 350.96 159.85 350.12 158.76L348.79 156.96C347.96 155.87 346.36 155.71 345.22 156.59L345.02 156.75C343.88 157.64 343.63 159.24 344.47 160.32Z" fill="#8A6FE8"/>
<path d="M328.91 168.93L335.01 160.52L378.46 158.84L389.57 172.99L328.91 168.93Z" fill="#A3C9F6"/>
<path d="M378.07 172.22L389.58 172.99L378.46 158.83L367.53 159.34C371.07 163.65 375.75 168.88 378.07 172.22Z" fill="#CAE0FA"/>
<path d="M247.1 224.46C252.2 223.92 259.7 220.14 264.37 213.92C269.42 207.19 278.95 192.06 278.95 192.06C278.95 192.06 236.9 190.38 231.86 189.82C226.81 189.26 210.69 179.8 202.43 175.52C198.37 173.42 184.43 172.05 171.16 171.49C177.3 171.99 185.58 173.27 194.86 176.36C214.2 182.81 220.65 223.73 220.65 223.73C220.65 223.73 231.36 224.03 247.1 224.46Z" fill="#CC5444"/>
<path d="M264.19 195.35L268.11 195.49L258.11 211.75C257.27 213.12 255.73 213.91 254.12 213.8L250.88 213.57L261.08 197C261.74 195.94 262.93 195.31 264.19 195.35Z" fill="#4A4844"/>
<path d="M252.87 194.86L256.79 195L246.79 211.26C245.95 212.63 244.41 213.42 242.8 213.31L239.56 213.08L249.76 196.51C250.42 195.45 251.61 194.81 252.87 194.86Z" fill="#4A4844"/>
<path d="M467.497 203.139C468.258 201.255 459.01 195.745 446.842 190.834C434.674 185.922 424.193 183.468 423.432 185.353C422.671 187.237 431.919 192.747 444.087 197.659C456.256 202.57 466.737 205.024 467.497 203.139Z" fill="white"/>
<path d="M201.65 236.79L186.48 242.88L258.41 248.58L276.6 241.46L201.65 236.79Z" fill="#B2B2B2"/>
<path d="M296.71 242.72L278.19 250.15L380.18 258.24L402.92 249.34L296.71 242.72Z" fill="#B2B2B2"/>
<path d="M423.06 250.6L400.08 259.82L521.14 269.42L545.06 258.21L423.06 250.6Z" fill="#B2B2B2"/>
<path d="M181.52 235.54L104.58 230.74L87.5801 235.04L166.76 241.31L181.52 235.54Z" fill="#B2B2B2"/>
<path d="M330.09 63.2399L262.81 67.1599C262.81 67.1599 268.84 58.8099 274.02 57.6299C282.24 55.7599 284.67 58.1899 284.67 58.1899C284.67 58.1899 286.91 48.6599 298.69 46.9799C310.46 45.2999 312.71 52.5899 312.71 52.5899C312.71 52.5899 318.5 51.8399 323.55 54.0899C329.17 56.5799 330.09 63.2399 330.09 63.2399Z" fill="#D0EDFD"/>
<defs>
<radialGradient id="paint0_radial" cx="0" cy="0" r="1" gradientUnits="userSpaceOnUse" gradientTransform="translate(363.305 160.17) rotate(36.7122) scale(5.58359 5.65235)">
<stop stop-color="#8065E0"/>
<stop offset="1" stop-color="#512BD4"/>
</radialGradient>
<radialGradient id="paint1_radial" cx="0" cy="0" r="1" gradientUnits="userSpaceOnUse" gradientTransform="translate(331.841 134.025) rotate(176.759) scale(30.7268 29.26)">
<stop offset="0.4744" stop-color="#A08BE8"/>
<stop offset="0.8618" stop-color="#8065E0"/>
</radialGradient>
<radialGradient id="paint2_radial" cx="0" cy="0" r="1" gradientUnits="userSpaceOnUse" gradientTransform="translate(352.733 133.932) rotate(176.759) scale(31.8429 30.3228)">
<stop offset="0.0933" stop-color="#E1DFDD"/>
<stop offset="0.6573" stop-color="white"/>
</radialGradient>
<radialGradient id="paint3_radial" cx="0" cy="0" r="1" gradientUnits="userSpaceOnUse" gradientTransform="translate(359.89 171) rotate(-52.6975) scale(5.73677 5.50321)">
<stop stop-color="#8065E0"/>
<stop offset="1" stop-color="#512BD4"/>
</radialGradient>
<radialGradient id="paint4_radial" cx="0" cy="0" r="1" gradientUnits="userSpaceOnUse" gradientTransform="translate(304.74 148.681) rotate(-3.24112) scale(5.66693 5.39642)">
<stop stop-color="#8065E0"/>
<stop offset="1" stop-color="#512BD4"/>
</radialGradient>
</defs>
</svg>
