<svg width="636" height="300" viewBox="0 0 636 300" fill="none" xmlns="http://www.w3.org/2000/svg">
<path d="M468.39 118.45V40.89C468.39 39.11 467.29 37.59 465.95 37.47L372.51 29.33C370.93 29.19 369.65 30.63 369.65 32.55V116.65L468.39 118.45Z" fill="#B3AFAB"/>
<path d="M470.39 118.45V40.89C470.39 39.11 469.29 37.59 467.95 37.47L374.51 29.33C372.93 29.19 371.65 30.63 371.65 32.55V116.65L470.39 118.45Z" fill="#6D6A66"/>
<path d="M386.57 108.29L377.53 108.05V36.73L386.57 37.47V108.29Z" fill="#908D89"/>
<path d="M465.91 110.27L386.57 108.29V37.47L465.91 43.93V110.27Z" fill="#F7B548"/>
<path d="M384.01 50.6701L379.47 50.3501V44.8101L384.01 45.1501V50.6701Z" fill="#B3AFAB"/>
<path d="M384.01 58.55L379.47 58.25V52.73L384.01 53.03V58.55Z" fill="#B3AFAB"/>
<path d="M384.01 65.6499L379.47 65.3699V59.8499L384.01 60.1299V65.6499Z" fill="#B3AFAB"/>
<path d="M384.01 73.53L379.47 73.29V67.75L384.01 68.01V73.53Z" fill="#B3AFAB"/>
<path d="M384.01 80.6299L379.47 80.4099V74.8699L384.01 75.1099V80.6299Z" fill="#B3AFAB"/>
<path d="M384.01 88.51L379.47 88.33V82.79L384.01 82.99V88.51Z" fill="#B3AFAB"/>
<path d="M371.65 116.53V117.83C371.65 118.27 371.95 118.67 372.37 118.73L416.85 127.83C417.91 128.01 420.01 128.19 421.11 128.17L514.49 128.89C514.69 128.89 514.87 128.77 514.87 128.63V126.11C514.87 125.95 514.69 125.83 514.47 125.81L387.71 118.55L371.65 116.53Z" fill="#9C9894"/>
<path d="M371.81 116.57L417.49 124.87C418.97 125.11 420.49 125.23 422.01 125.21L514.57 125.83L470.31 118.39L371.81 116.57Z" fill="#CCCAC7"/>
<path d="M433.57 86.0498C432.77 86.0498 432.21 85.9898 432.23 87.6498C432.25 89.9498 432.31 91.7098 431.83 95.2898C431.35 98.8698 431.93 100.37 433.77 100.65C435.87 100.97 436.77 99.1498 438.57 97.7698C440.01 96.6698 441.65 95.4498 442.43 94.9298C443.23 94.4098 443.29 93.3098 441.91 91.9498C440.73 90.7898 440.03 90.1698 439.99 88.4098C439.95 86.6698 439.33 86.2298 438.71 87.3498C438.09 88.4698 437.03 89.6298 435.63 89.1898C434.57 88.8498 434.37 88.1098 434.39 87.2498C434.43 86.3898 434.13 86.0498 433.57 86.0498Z" fill="white"/>
<path d="M431.33 92.6499L430.75 98.2099C430.75 98.2099 428.65 97.9299 427.31 97.8899C425.97 97.8499 423.61 97.9299 423.61 97.9299L423.49 95.4699C423.49 95.4699 425.73 96.1099 427.93 95.1499C430.13 94.1899 431.33 92.6499 431.33 92.6499Z" fill="white"/>
<path d="M418.21 85.6899C418.21 85.6899 420.81 90.6899 421.39 91.6299C422.27 93.0899 423.43 91.2099 421.91 89.5899C419.87 87.4099 418.21 85.6899 418.21 85.6899Z" fill="white"/>
<path d="M410.63 88.2498C412.45 87.5898 412.77 87.9098 414.37 85.4698C415.95 83.0298 416.59 84.4898 417.63 86.2498C418.67 88.0098 421.53 93.2898 422.29 94.6698C423.03 96.0498 423.01 98.1098 422.03 99.0298C421.05 99.9498 420.15 100.85 417.81 99.4898C415.45 98.1298 412.57 97.4698 411.45 97.1098C410.33 96.7498 409.61 96.3698 409.81 94.4098C410.01 92.4498 410.07 91.3098 409.93 90.2098C409.77 89.1098 409.67 88.5898 410.63 88.2498Z" fill="white"/>
<path d="M424.65 62.5299C424.69 62.6499 424.57 62.8099 424.37 62.9099C424.17 63.0099 423.99 62.9899 423.95 62.8899C423.91 62.7699 424.03 62.6099 424.23 62.5099C424.41 62.4099 424.61 62.4099 424.65 62.5299Z" fill="white"/>
<path d="M434.85 85.43C434.81 85.47 434.77 85.49 434.75 85.51C434.93 85.77 435.09 86.21 435.01 86.97C434.91 88.03 435.53 88.63 436.33 88.49C437.57 88.27 438.29 86.69 438.51 86.11C437.23 84.99 435.29 85.07 434.85 85.43Z" fill="white"/>
<path d="M428.87 63.5498C428.67 63.4298 428.47 63.3098 428.27 63.1898C429.29 62.5698 429.35 61.1698 428.57 60.4098C427.87 59.7298 427.21 60.4098 427.13 61.1298C427.09 61.5698 427.11 62.0898 427.15 62.5298C426.43 62.1298 425.81 61.8498 425.15 61.8498C424.79 61.8498 424.33 62.0498 423.85 62.3698C423.95 60.3698 423.49 59.6898 422.69 59.9898C421.89 60.3098 422.07 61.9098 423.01 62.9898C422.69 63.2898 422.39 63.5898 422.19 63.8498C421.59 64.6898 421.39 65.1898 422.51 66.7698C423.83 68.6298 425.13 69.3298 426.91 68.2298C428.91 67.0098 429.83 66.3898 429.87 65.3298C429.95 64.2698 429.45 63.8698 428.87 63.5498ZM428.19 60.6898C428.27 60.6098 428.45 60.7098 428.57 60.9298C428.71 61.1298 428.75 61.3698 428.67 61.4498C428.59 61.5298 428.41 61.4298 428.29 61.2098C428.17 61.0098 428.11 60.7698 428.19 60.6898ZM425.71 62.5698C425.73 62.4498 425.93 62.4498 426.13 62.5298C426.33 62.6298 426.47 62.7898 426.45 62.8898C426.43 63.0098 426.23 63.0098 426.03 62.9298C425.81 62.8498 425.67 62.6898 425.71 62.5698ZM423.15 60.2698C423.25 60.2298 423.39 60.3898 423.47 60.6298C423.55 60.8698 423.55 61.1098 423.45 61.1498C423.35 61.1898 423.21 61.0298 423.13 60.7898C423.05 60.5498 423.07 60.3098 423.15 60.2698ZM428.89 65.3898C427.83 66.1698 425.75 67.5098 424.69 67.3098C423.61 67.1098 422.77 66.5698 422.25 65.8898C421.83 65.3698 421.85 64.9898 422.33 65.4898C422.79 65.9898 423.49 66.5098 424.65 66.6898C425.81 66.8698 427.67 65.4898 428.73 64.9098C429.45 64.5298 429.95 64.6298 428.89 65.3898Z" fill="white"/>
<path d="M435.55 70.7698C432.83 66.2298 432.99 63.6498 432.79 60.3098C432.59 56.9698 431.59 51.2898 425.65 51.4098C420.07 51.5098 420.77 58.4498 420.95 61.6698C421.13 64.8898 421.53 67.5898 419.71 70.1498C417.89 72.7298 415.75 77.3498 415.03 79.6098C414.17 82.3298 414.43 84.1498 414.43 84.1498C414.43 84.1498 414.89 83.4098 415.89 83.4098C416.13 83.4098 416.35 83.4498 416.55 83.5298C415.73 80.7098 417.51 76.3898 418.11 75.4898C418.37 75.0898 418.51 74.8698 418.29 75.4498C417.53 77.4898 416.25 80.6698 417.07 83.8498C417.35 84.0698 417.51 84.3098 417.51 84.3098C417.51 84.3098 417.09 79.5898 419.67 75.2098C420.33 74.0898 421.59 73.7498 421.59 73.7498C421.59 73.7498 419.37 73.1698 421.39 70.2298C422.33 68.8698 421.99 66.7298 421.99 66.7298C421.99 66.7298 421.29 66.1898 421.29 64.9498C421.29 63.7098 422.23 63.0098 422.23 63.0098C422.23 63.0098 421.49 61.5498 421.89 59.6698C422.29 57.7898 423.43 57.8098 424.23 59.0898C425.01 60.3898 424.59 61.3298 424.59 61.3298L426.21 61.4298C426.21 61.4298 426.03 60.1698 426.33 59.5098C426.63 58.8298 427.15 58.1298 428.07 58.1298C428.99 58.1298 430.15 59.2498 430.17 60.9098C430.19 62.5698 429.79 63.4698 429.79 63.4698C429.79 63.4698 430.75 64.2498 430.37 65.5698C429.97 66.8898 430.11 67.1098 430.25 67.5498C430.39 67.9898 431.35 70.6898 433.07 75.8098C434.79 80.9098 434.23 85.1898 434.23 85.1898C434.23 85.1898 434.45 85.2098 434.65 85.4098C434.67 85.3898 434.69 85.3498 434.71 85.3298C434.79 85.2098 435.11 85.0098 435.59 84.8898C437.93 79.7698 435.23 76.2298 434.35 75.3698C433.97 75.0098 434.19 75.1698 434.39 75.3098C436.99 77.1698 437.43 81.0898 436.13 84.8098C436.89 84.7698 437.85 85.0098 438.75 85.9698C439.01 86.0098 439.57 86.0498 439.71 85.6298C440.91 81.8298 438.27 75.2898 435.55 70.7698ZM429.17 55.3698C428.75 55.6898 428.51 54.9898 428.51 54.7698C428.51 53.9898 429.07 53.6498 429.41 54.1898C429.75 54.7098 429.57 55.0498 429.17 55.3698ZM432.71 67.9698C432.23 68.5498 431.51 68.1498 431.19 66.8498C431.05 66.2698 431.19 65.9898 431.77 66.3898C432.35 66.8098 433.21 67.3898 432.71 67.9698Z" fill="white"/>
<path d="M280.01 148.51V43.7299C280.01 41.3499 278.31 39.2899 276.19 39.1299L125.87 28.0699C123.25 27.8699 121.13 29.8699 121.13 32.5299C121.13 32.5299 121.13 139.43 121.13 141.87C121.13 144.31 123.11 145.53 123.11 145.53L280.01 148.51Z" fill="#B3AFAB"/>
<path d="M206.21 40.2699L203.69 40.0899V37.3899L206.21 37.5699V40.2699Z" fill="#848484"/>
<path fill-rule="evenodd" clip-rule="evenodd" d="M129.53 130.03C129.53 131.31 130.63 132.45 131.89 132.47L271.21 133.13C272.31 133.13 273.21 132.13 273.21 130.89V50.5899C273.21 49.3499 272.31 48.2699 271.21 48.2099L132.11 38.9099C130.69 38.8299 129.53 39.9299 129.53 41.3699V129.61" fill="#848484"/>
<path d="M282.01 148.51V43.7299C282.01 41.3499 280.31 39.2899 278.19 39.1299L127.87 28.0699C125.25 27.8699 123.13 29.8699 123.13 32.5299V147.13L282.01 148.51Z" fill="#625F5B"/>
<path d="M208.21 40.2699L205.69 40.0899V37.3899L208.21 37.5699V40.2699Z" fill="#B3AFAB"/>
<path fill-rule="evenodd" clip-rule="evenodd" d="M131.53 130.03C131.53 131.31 132.63 132.45 133.89 132.47L273.21 133.13C274.31 133.13 275.21 132.13 275.21 130.89V50.5899C275.21 49.3499 274.31 48.2699 273.21 48.2099L134.11 38.9099C132.69 38.8299 131.53 39.9299 131.53 41.3699V129.61" fill="#29C3E5"/>
<path d="M123.11 145.63V147.73C123.11 148.45 123.63 149.07 124.35 149.19L190.87 160.57C192.67 160.87 196.25 161.15 198.11 161.13L357.89 158.97L357.71 155.41L141.53 146.17L123.11 145.63Z" fill="#9C9894"/>
<path d="M123.11 145.37L192.25 156.35C194.77 156.75 197.35 156.93 199.95 156.91L358.47 155.33L281.39 144.87L123.11 145.37Z" fill="#CCCAC7"/>
<path d="M411.89 96.9099L240.87 90.9499C236.85 90.8099 233.57 94.2899 233.57 98.7299V223.71V225.21V239.73C233.57 243.53 236.39 246.41 239.83 246.15L411.91 234.71C414.55 234.51 416.69 231.67 416.69 228.35V215.73L417.47 104.07C417.47 100.23 414.99 97.0299 411.89 96.9099Z" fill="#B3AFAB"/>
<path d="M309.09 236.17L305.09 258.11C304.71 262.83 308.29 267.01 312.87 268.25L325.07 273.21C329.97 274.69 334.59 274.91 338.73 274.39L377.75 270.05C381.69 269.87 381.41 266.21 376.23 265.75L351.83 262.93C347.99 262.51 344.37 259.45 345.09 255.39L349.09 232.17L309.09 236.17Z" fill="#BBB8B4"/>
<path d="M419.25 215.75L420.03 104.09C420.03 100.23 417.55 97.0099 414.45 96.9099L243.43 90.9499C239.41 90.8099 236.13 94.2899 236.13 98.7299V225.21C236.13 225.85 236.61 226.33 237.17 226.29L418.43 216.79C418.89 216.77 419.25 216.31 419.25 215.75Z" fill="#625F5B"/>
<path d="M236.15 223.73V239.75C236.15 243.55 238.97 246.43 242.41 246.17L414.49 234.73C417.13 234.53 419.27 231.69 419.27 228.37V214.45L236.15 223.73Z" fill="#DDDBDA"/>
<path d="M336.95 227.11C336.95 229.15 335.55 230.89 333.83 231.01C332.09 231.13 330.69 229.57 330.69 227.53C330.69 225.49 332.09 223.75 333.83 223.63C335.55 223.51 336.95 225.07 336.95 227.11Z" fill="#C8C6C4"/>
<path d="M411.55 207.97L245.25 215.31V102.39L412.33 106.85L411.55 207.97Z" fill="#8DBCF4"/>
<path d="M412.33 106.09L245.25 101.53V105.89L412.33 109.93V106.09Z" fill="#C7E0F4"/>
<path d="M380.53 199.97L282.77 203.65C281.95 203.69 281.29 204.47 281.29 205.39V213.09L381.79 208.57V201.45C381.79 200.61 381.23 199.93 380.53 199.97Z" fill="#3085E9"/>
<path d="M310.59 209.73L307.31 209.91C306.93 209.93 306.63 209.59 306.63 209.17V205.39C306.63 204.95 306.93 204.59 307.31 204.57L310.59 204.41C310.97 204.39 311.27 204.73 311.27 205.15V208.93C311.27 209.35 310.95 209.71 310.59 209.73Z" fill="#8DBCF4"/>
<path d="M301.63 207.61C301.63 209.19 300.51 210.51 299.15 210.59C297.77 210.67 296.65 209.43 296.65 207.85C296.65 206.27 297.77 204.93 299.15 204.87C300.51 204.81 301.63 206.05 301.63 207.61Z" fill="#8DBCF4"/>
<path d="M321.25 206.49C321.25 208.05 320.17 209.35 318.83 209.43C317.49 209.51 316.41 208.29 316.41 206.73C316.41 205.17 317.49 203.85 318.83 203.79C320.17 203.73 321.25 204.93 321.25 206.49Z" fill="#8DBCF4"/>
<path d="M331.17 206.13C331.17 207.67 330.11 208.97 328.79 209.05C327.47 209.11 326.41 207.93 326.41 206.37C326.41 204.83 327.47 203.53 328.79 203.45C330.09 203.39 331.17 204.59 331.17 206.13Z" fill="#8DBCF4"/>
<path d="M339.83 208.65L336.69 208.81C336.33 208.83 336.03 208.51 336.03 208.07V204.37C336.03 203.95 336.33 203.59 336.69 203.57L339.83 203.41C340.19 203.39 340.47 203.73 340.47 204.15V207.85C340.49 208.27 340.19 208.63 339.83 208.65Z" fill="#8DBCF4"/>
<path d="M358.09 207.79L355.05 207.95C354.71 207.97 354.41 207.65 354.41 207.23V203.57C354.41 203.15 354.69 202.79 355.05 202.79L358.09 202.65C358.43 202.63 358.71 202.95 358.71 203.37V207.01C358.71 207.43 358.43 207.77 358.09 207.79Z" fill="#8DBCF4"/>
<path d="M291.41 210.59L286.65 210.85V205.41L291.41 205.19V210.59Z" fill="#8DBCF4"/>
<path d="M376.83 206.63L373.87 206.79C373.53 206.81 373.25 206.49 373.25 206.07V202.47C373.25 202.05 373.53 201.71 373.87 201.69L376.83 201.55C377.17 201.53 377.45 201.85 377.45 202.27V205.85C377.43 206.27 377.17 206.61 376.83 206.63Z" fill="#8DBCF4"/>
<path d="M349.57 205.35C349.57 206.87 348.53 208.15 347.25 208.23C345.97 208.29 344.93 207.11 344.93 205.59C344.93 204.07 345.97 202.79 347.25 202.71C348.55 202.67 349.57 203.85 349.57 205.35Z" fill="#8DBCF4"/>
<path d="M368.31 204.71C368.31 206.21 367.31 207.47 366.07 207.53C364.83 207.59 363.81 206.43 363.81 204.93C363.81 203.43 364.81 202.17 366.07 202.11C367.31 202.05 368.31 203.21 368.31 204.71Z" fill="#8DBCF4"/>
<path d="M195.43 86.0499L195.59 65.4299L174.99 67.2299L174.85 85.2699L195.43 86.0499Z" fill="white"/>
<path d="M198.81 86.1701L225.37 87.1701L225.53 62.8101L198.97 65.1301L198.81 86.1701Z" fill="white"/>
<path d="M198.79 89.75L198.63 110.93L225.19 115.37L225.35 90.67L198.79 89.75Z" fill="white"/>
<path d="M195.41 89.6299L174.83 88.9099V106.97L195.25 110.37L195.41 89.6299Z" fill="white"/>
<path d="M305.39 150.17C302.99 150.19 301.67 151.59 300.99 152.77C300.27 151.15 298.83 150.21 296.99 150.21C295.41 150.21 294.09 150.97 293.19 152.31C293.17 151.65 293.15 151.07 293.15 150.97L293.13 150.61L291.09 150.63V151.03C291.11 152.25 291.11 153.71 291.09 155.05L291.03 167.05L293.13 167.01L293.17 158.03C293.19 155.37 294.15 152.55 296.81 152.53C298.71 152.51 299.59 153.79 299.57 156.51L299.53 166.91L301.55 166.87L301.59 157.53C301.61 154.37 302.93 152.47 305.11 152.45C307.45 152.43 307.93 154.57 307.93 156.37L307.89 166.75L309.91 166.71L309.95 156.17C309.97 150.59 306.47 150.17 305.39 150.17Z" fill="white"/>
<path d="M323.29 163.21L323.33 155.29C323.35 151.83 321.65 150.09 318.29 150.11C314.09 150.13 313.33 153.39 313.19 154.79L313.13 155.21L315.09 155.19L315.15 154.91C315.43 153.69 315.77 152.31 318.23 152.29C320.97 152.27 321.31 153.97 321.31 155.47V156.65H319.13C313.67 156.71 312.51 159.61 312.49 162.03C312.47 164.53 313.95 167.01 317.25 166.95C319.43 166.91 320.67 165.93 321.35 164.97C321.39 165.57 321.45 165.97 321.53 166.25L321.61 166.51L323.51 166.47L323.43 166.01C323.37 165.53 323.27 164.47 323.29 163.21ZM319.07 158.75L321.33 158.73V158.89C321.31 162.49 320.63 164.73 317.31 164.79C315.65 164.81 314.57 163.71 314.59 161.95C314.61 159.77 315.99 158.77 319.07 158.75Z" fill="white"/>
<path d="M335.29 161.33C334.63 163.51 333.59 164.49 331.87 164.53C329.01 164.57 327.99 161.27 328.01 158.41C328.03 154.61 329.57 152.23 332.05 152.21C333.77 152.19 334.87 153.25 335.31 155.33L335.37 155.61L337.31 155.59L337.27 155.17C337.01 152.79 335.51 150.01 332.07 150.03C327.87 150.05 325.95 154.29 325.95 158.49C325.93 163.55 328.25 166.77 331.85 166.71C334.55 166.67 336.45 164.83 337.23 161.53L337.35 161.05L335.37 161.07L335.29 161.33Z" fill="white"/>
<path d="M347.97 143.99C342.89 143.99 339.45 148.53 339.43 155.25C339.41 161.99 342.75 166.45 347.71 166.37C353.51 166.27 356.11 160.57 356.13 154.95C356.15 148.39 352.89 143.99 347.97 143.99ZM354.03 155.01C354.03 157.13 353.55 164.03 347.79 164.13C343.49 164.19 341.55 159.53 341.55 155.17C341.57 151.07 343.25 146.29 347.89 146.27C352.17 146.23 354.05 150.63 354.03 155.01Z" fill="white"/>
<path d="M364.99 153.29C361.79 152.37 360.87 151.53 360.87 149.55C360.87 147.39 362.15 146.21 364.47 146.19C366.77 146.19 368.09 147.33 368.49 149.71L368.55 150.01L370.53 149.99L370.49 149.59C370.27 147.01 368.59 143.97 364.55 143.99C360.33 143.99 358.81 147.05 358.79 149.67C358.77 153.19 360.99 154.57 364.31 155.51C368.05 156.57 368.75 157.91 368.75 160.01C368.75 162.45 367.29 163.81 364.65 163.85C362.05 163.89 360.55 162.57 360.03 159.81L359.97 159.53L357.95 159.55L357.99 159.97C358.19 161.83 359.27 166.11 364.59 166.03C369.15 165.95 370.77 162.67 370.79 159.89C370.81 157.33 370.11 154.79 364.99 153.29Z" fill="white"/>
</svg>
