<svg width="636" height="300" viewBox="0 0 636 300" fill="none" xmlns="http://www.w3.org/2000/svg">
<path d="M225.32 93.1201L185.36 96.2801C184.55 96.3401 183.95 96.9601 183.95 97.7101V259.4C183.95 260.17 184.58 260.77 185.4 260.81L226.39 262.4C227.3 262.44 228.08 261.72 228.07 260.86L227.03 94.6201C227.03 93.7501 226.23 93.0501 225.32 93.1201Z" fill="#A3C9F6"/>
<path d="M201.66 112.6L167.44 115.36C166.34 115.45 165.5 116.29 165.5 117.31V258.44C165.5 259.42 166.28 260.22 167.34 260.33L200.87 263.56C202.1 263.68 203.23 262.78 203.3 261.62C204.33 245.72 210.62 147.35 209.37 135.31C208.31 125.11 205.18 116.98 203.84 113.86C203.49 113.03 202.6 112.53 201.66 112.6Z" fill="#ED9583"/>
<path d="M228.17 262.46L271.96 260.16C273.06 260.1 273.95 259.19 273.95 258.13V95.9201C273.95 94.8601 273.06 93.9601 271.96 93.9301L228.17 92.4501C227.02 92.4101 226.09 93.2601 226.09 94.3501V260.59C226.09 261.68 227.02 262.52 228.17 262.46Z" fill="#1572E0"/>
<path d="M203.21 263.77L224.86 262.63C225.51 262.6 226.03 262.07 226.03 261.46V113.93C226.03 113.32 225.51 112.81 224.86 112.8L203.21 112.29C202.55 112.27 202.01 112.76 202.01 113.38V262.71C202.01 263.33 202.55 263.81 203.21 263.77Z" fill="#E86E58"/>
<path d="M174.44 263.51L140.64 265.22C139.77 265.26 138.9 265.21 138.05 265.07L107.36 259.81L165.55 255.49L174.44 263.51Z" fill="#D5D3D0"/>
<path d="M163.68 143.01L137.52 145.22C136.57 145.3 135.78 145.92 135.55 146.75L105.59 257.34C105.23 258.67 106.36 259.88 107.87 259.8L142.23 257.79C143.31 257.73 144.22 256.98 144.41 256.01L166.06 145.38C166.32 144.07 165.13 142.88 163.68 143.01Z" fill="#F8BB55"/>
<path d="M140.38 258.74L173.43 263.44C175.03 263.67 176.6 262.64 176.93 261.15L201.42 152.53C201.75 151.08 200.75 149.65 199.19 149.33L166.99 142.85C165.38 142.53 163.79 143.46 163.45 144.94L138.01 255.57C137.67 257.08 138.73 258.5 140.38 258.74Z" fill="#E29E3B"/>
<path d="M159.97 197.81L181.28 201.51C182.64 201.75 183.98 200.91 184.26 199.65L192.51 163.63C192.79 162.38 191.93 161.15 190.58 160.89L169.47 156.78C168.09 156.51 166.74 157.32 166.44 158.59L157.97 195.06C157.68 196.33 158.57 197.57 159.97 197.81Z" fill="#F8B84F"/>
<path d="M226.09 146.17V104.99L273.95 106.31V146.48L226.09 146.17Z" fill="#4995EE"/>
<path d="M207.04 219.7L221.61 219.26V138.62L207.04 138.47V219.7Z" fill="#CF5746"/>
<path d="M207.04 161.96V138.47L221.61 138.62V161.94L207.04 161.96Z" fill="white"/>
<path d="M486.57 213.04L291.44 219.21C288.08 219.32 285.36 216.74 285.36 213.45V69.33C285.36 66.04 288.09 63.51 291.44 63.68L486.57 73.46C489.26 73.59 491.44 76.08 491.44 79.01V207.58C491.44 210.51 489.26 212.96 486.57 213.04Z" fill="#B3AFAB"/>
<path d="M488.94 212.97L294.38 219.13C291.04 219.24 288.31 216.66 288.31 213.38V69.4701C288.31 66.1901 291.03 63.6601 294.38 63.8301L488.94 73.5801C491.63 73.7101 493.8 76.2001 493.8 79.1301V207.52C493.8 210.44 491.63 212.88 488.94 212.97Z" fill="#625F5B"/>
<path d="M483.61 199.8L300.97 204.16C300.06 204.18 299.32 203.47 299.32 202.57V74.81C299.32 73.91 300.06 73.22 300.97 73.26L483.61 81.53C484.35 81.56 484.96 82.25 484.96 83.06V198.3C484.95 199.11 484.35 199.78 483.61 199.8Z" fill="#797672"/>
<path d="M544.68 233.51C544.68 231.85 544.68 230.77 544.68 230.21C544.68 229.76 492.41 215.65 492.41 215.65L290.57 218.14V220.42C290.57 220.42 290.62 222.43 292.77 223.13C294.92 223.83 352.33 242.37 352.33 242.37C355.27 243.32 358.36 243.73 361.47 243.59L543.27 235.2C544.43 235.14 544.7 234.55 544.68 233.51Z" fill="#9C9894"/>
<path d="M543.66 231.47L361.48 239.47C358.37 239.61 355.28 239.19 352.34 238.23L290.47 218.1L492.42 211.83L544 229.18C545.09 229.57 544.82 231.42 543.66 231.47Z" fill="#CCCAC7"/>
<path d="M355.45 107.57L334.32 106.98C333.08 106.95 332.08 105.91 332.08 104.68C332.08 103.44 333.08 102.47 334.32 102.51L355.45 103.15C356.66 103.19 357.63 104.21 357.63 105.43C357.63 106.65 356.66 107.61 355.45 107.57Z" fill="#E86E58"/>
<path d="M450.59 120.2L430.9 119.76C429.79 119.74 428.89 118.76 428.89 117.59C428.89 116.42 429.79 115.49 430.9 115.52L450.59 116.01C451.67 116.04 452.55 117 452.55 118.15C452.55 119.3 451.67 120.22 450.59 120.2Z" fill="#B2B2B2"/>
<path d="M420.75 119.53L380.72 118.64C379.55 118.61 378.59 117.61 378.59 116.41C378.59 115.21 379.54 114.25 380.72 114.28L420.75 115.27C421.87 115.3 422.78 116.27 422.78 117.45C422.78 118.62 421.87 119.56 420.75 119.53Z" fill="#EEEDEC"/>
<path d="M369.379 118.39L347.649 117.91C346.429 117.88 345.439 116.86 345.439 115.64C345.439 114.41 346.429 113.44 347.649 113.47L369.379 114.01C370.569 114.04 371.529 115.04 371.529 116.26C371.519 117.46 370.559 118.42 369.379 118.39Z" fill="#E86E58"/>
<path d="M464.189 130.39L399.209 129.31C398.059 129.29 397.129 128.31 397.129 127.11C397.129 125.92 398.059 124.97 399.209 124.99L464.189 126.22C465.259 126.24 466.119 127.19 466.119 128.34C466.119 129.49 465.259 130.41 464.189 130.39Z" fill="#EEEDEC"/>
<path d="M387.51 129.12L360.77 128.68C359.57 128.66 358.59 127.66 358.59 126.44C358.59 125.22 359.56 124.25 360.77 124.27L387.51 124.78C388.67 124.8 389.62 125.79 389.62 126.99C389.62 128.18 388.68 129.14 387.51 129.12Z" fill="#B2B2B2"/>
<path d="M450.59 140.13L420.47 139.8C419.35 139.79 418.43 138.82 418.43 137.64C418.43 136.46 419.34 135.52 420.47 135.53L450.59 135.93C451.67 135.94 452.55 136.89 452.55 138.05C452.55 139.21 451.67 140.14 450.59 140.13Z" fill="#B2B2B2"/>
<path d="M409.33 139.68L360.78 139.15C359.58 139.14 358.6 138.14 358.6 136.92C358.6 135.7 359.57 134.72 360.78 134.74L409.33 135.38C410.47 135.4 411.39 136.37 411.39 137.55C411.39 138.73 410.46 139.69 409.33 139.68Z" fill="#F8B84F"/>
<path d="M404.429 149.91C403.289 149.9 402.359 148.94 402.359 147.74C402.359 146.55 403.289 145.59 404.429 145.6L473.849 146.07C474.909 146.08 475.759 147.01 475.759 148.15C475.759 149.29 474.909 150.21 473.849 150.21L404.429 149.91Z" fill="#EEEDEC"/>
<path d="M394.84 149.81L373.72 149.7C372.54 149.69 371.58 148.71 371.58 147.5C371.58 146.29 372.54 145.31 373.72 145.32L394.84 145.48C395.99 145.49 396.93 146.46 396.93 147.66C396.93 148.85 396 149.81 394.84 149.81Z" fill="#B2B2B2"/>
<path d="M466.88 160.05L400.95 160.09C399.8 160.09 398.87 159.12 398.87 157.93C398.87 156.74 399.8 155.77 400.95 155.77L466.88 155.89C467.94 155.89 468.81 156.82 468.81 157.97C468.81 159.12 467.95 160.05 466.88 160.05Z" fill="#B2B2B2"/>
<path d="M388.98 160.1L373.72 160.11C372.54 160.11 371.58 159.13 371.58 157.92C371.58 156.71 372.54 155.73 373.72 155.73L388.98 155.76C390.14 155.76 391.08 156.74 391.08 157.93C391.08 159.12 390.15 160.1 388.98 160.1Z" fill="#F8B84F"/>
<path d="M432.859 170.14L377.749 170.49C376.569 170.5 375.609 169.52 375.609 168.32C375.609 167.11 376.569 166.13 377.749 166.12L432.859 165.9C433.969 165.9 434.859 166.84 434.859 168.01C434.859 169.18 433.969 170.13 432.859 170.14Z" fill="#EEEDEC"/>
<path d="M366.069 170.56L347.649 170.68C346.429 170.69 345.439 169.7 345.439 168.47C345.439 167.24 346.429 166.24 347.649 166.24L366.069 166.17C367.259 166.17 368.229 167.15 368.229 168.36C368.229 169.57 367.259 170.55 366.069 170.56Z" fill="#E86E58"/>
<path d="M452.23 179.97L398.92 180.61C397.77 180.62 396.83 179.67 396.83 178.47C396.83 177.27 397.76 176.3 398.92 176.29L452.23 175.78C453.31 175.77 454.19 176.7 454.19 177.85C454.19 179.01 453.31 179.96 452.23 179.97Z" fill="#EEEDEC"/>
<path d="M388.69 180.73L360.78 181.07C359.58 181.08 358.6 180.11 358.6 178.89C358.6 177.67 359.57 176.67 360.78 176.66L388.69 176.39C389.85 176.38 390.79 177.34 390.79 178.54C390.79 179.74 389.85 180.72 388.69 180.73Z" fill="#F8B84F"/>
<path d="M419.039 190.51L383.079 191.15C381.909 191.17 380.959 190.21 380.959 189.01C380.959 187.81 381.909 186.81 383.079 186.8L419.039 186.25C420.159 186.23 421.069 187.17 421.069 188.35C421.079 189.52 420.169 190.49 419.039 190.51Z" fill="#B2B2B2"/>
<path d="M371.77 191.35L334.32 192.01C333.08 192.03 332.08 191.05 332.08 189.81C332.08 188.57 333.08 187.55 334.32 187.54L371.77 186.97C372.95 186.95 373.91 187.92 373.91 189.13C373.91 190.34 372.96 191.33 371.77 191.35Z" fill="#E86E58"/>
<path d="M325.08 74.35L300.97 73.26C300.06 73.22 299.32 73.91 299.32 74.81V202.58C299.32 203.48 300.06 204.19 300.97 204.16L325.08 203.59V74.35Z" fill="#908D89"/>
<path d="M462.83 91.12V81.72C462.83 80.95 462.25 80.31 461.54 80.27L300.49 72.95C299.64 72.91 298.94 73.56 298.94 74.4V84.69L462.83 91.12Z" fill="#A3C9F6"/>
<path d="M314.94 106.44L309.4 106.28V101.75L314.94 101.92V106.44Z" fill="#EEEDEC"/>
<path d="M314.94 117.18L309.4 117.06V112.52L314.94 112.66V117.18Z" fill="#EEEDEC"/>
<path d="M314.94 127.92L309.4 127.83V123.29L314.94 123.4V127.92Z" fill="#EEEDEC"/>
<path d="M314.94 138.66L309.4 138.6V134.06L314.94 134.14V138.66Z" fill="#EEEDEC"/>
<path d="M314.94 149.4L309.4 149.37V144.84L314.94 144.88V149.4Z" fill="#EEEDEC"/>
<path d="M314.94 160.14H309.4V155.61L314.94 155.62V160.14Z" fill="#EEEDEC"/>
<path d="M314.94 170.88L309.4 170.92V166.38L314.94 166.36V170.88Z" fill="#EEEDEC"/>
<path d="M314.94 181.62L309.4 181.69V177.15L314.94 177.1V181.62Z" fill="#EEEDEC"/>
<path d="M314.94 192.36L309.4 192.46V187.92L314.94 187.84V192.36Z" fill="#EEEDEC"/>
<path d="M525.83 59.8099L486.33 67.4999L486.26 112.55C485.26 111.53 483.83 111.93 482.36 111.87C480.92 111.82 479.74 110.19 478.73 111.09L478.79 67.0699L437.61 54.3999L437.66 108.46L477 117.41C478.29 119.67 479.87 120.47 482.32 120.55C484.76 120.63 486.42 119.83 487.63 117.79L525.88 111.76L525.83 59.8099Z" fill="#1572E0"/>
<path d="M520 54.8198C520 54.8198 491.45 58.5598 487.71 59.6098C483.96 60.6598 482.41 63.2898 482.5 68.4798C482.59 73.6598 482.34 112.27 482.34 112.27L520.27 105.77L520 54.8198Z" fill="#CAE0FA"/>
<path d="M444.23 50.01C444.23 50.01 473.68 57.49 477.46 59C481.23 60.51 482.76 63.32 482.63 68.49C482.5 73.66 482.32 112.27 482.32 112.27L443.24 102.8L444.23 50.01Z" fill="#A3C9F6"/>
<path d="M475.38 68.45C475.33 68.45 475.29 68.44 475.24 68.43L451.45 62.17C451.05 62.06 450.78 61.64 450.86 61.21C450.94 60.79 451.34 60.53 451.73 60.64L475.52 66.92C475.91 67.02 476.17 67.45 476.09 67.86C476.02 68.23 475.72 68.47 475.38 68.45Z" fill="#B3AFAB"/>
<path d="M475.35 75.7699C475.3 75.7699 475.259 75.7599 475.209 75.7499L451.429 69.5699C451.029 69.4699 450.769 69.0399 450.839 68.6199C450.919 68.1999 451.319 67.9399 451.709 68.0499L475.48 74.2399C475.87 74.3399 476.129 74.7599 476.049 75.1799C475.999 75.5399 475.69 75.7799 475.35 75.7699Z" fill="#B3AFAB"/>
<path d="M475.329 83.0801C475.279 83.0801 475.24 83.0701 475.19 83.0601L451.429 76.9701C451.029 76.8701 450.769 76.4401 450.839 76.0201C450.919 75.6001 451.319 75.3401 451.709 75.4501L475.47 81.5601C475.86 81.6601 476.12 82.0801 476.04 82.5001C475.97 82.8501 475.669 83.0901 475.329 83.0801Z" fill="#B3AFAB"/>
<path d="M475.31 90.38C475.26 90.38 475.22 90.37 475.17 90.36L451.42 84.35C451.02 84.25 450.76 83.82 450.83 83.4C450.91 82.98 451.31 82.72 451.7 82.82L475.44 88.84C475.83 88.94 476.09 89.36 476.01 89.77C475.95 90.15 475.65 90.39 475.31 90.38Z" fill="#B3AFAB"/>
<path d="M489.58 69.24C489.63 69.24 489.67 69.24 489.72 69.23L512.74 65.73C513.12 65.67 513.37 65.29 513.3 64.87C513.23 64.45 512.85 64.16 512.48 64.22L489.45 67.71C489.06 67.77 488.8 68.16 488.88 68.58C488.95 68.95 489.25 69.23 489.58 69.24Z" fill="#B3AFAB"/>
<path d="M489.55 76.52C489.6 76.52 489.64 76.52 489.69 76.51L512.7 72.94C513.08 72.88 513.33 72.49 513.26 72.08C513.19 71.66 512.81 71.37 512.44 71.43L489.42 74.99C489.03 75.05 488.78 75.44 488.85 75.86C488.92 76.23 489.22 76.5 489.55 76.52Z" fill="#B3AFAB"/>
<path d="M489.52 83.7799C489.57 83.7799 489.61 83.7799 489.66 83.7699L512.65 80.1199C513.03 80.0599 513.28 79.6699 513.21 79.2599C513.14 78.8399 512.76 78.5499 512.39 78.6099L489.39 82.2399C489 82.2999 488.75 82.6899 488.82 83.1099C488.89 83.4899 489.18 83.7599 489.52 83.7799Z" fill="#B3AFAB"/>
<path d="M489.49 91.03C489.54 91.03 489.58 91.03 489.63 91.02L512.61 87.3C512.99 87.24 513.24 86.85 513.17 86.44C513.1 86.02 512.72 85.73 512.35 85.8L489.36 89.5C488.97 89.56 488.72 89.95 488.79 90.37C488.85 90.75 489.15 91.01 489.49 91.03Z" fill="#B3AFAB"/>
<path d="M479.64 113.15C480.5 112.62 481.51 112.33 482.58 112.37C483.58 112.41 484.5 112.73 485.31 113.24L521.84 107.4L521.83 60.3501L519.89 54.8101L519.84 104.06C519.84 104.06 489.95 108.88 487.27 109.44C484.59 110 482.38 112.22 482.38 112.22C482.38 112.22 481.33 110.26 477.95 109.21C474.56 108.16 444.21 101.51 444.21 101.51L444.32 50.1301L442.13 55.8801L442.24 104.94L479.64 113.15Z" fill="#4995EE"/>
</svg>
