<svg width="636" height="300" viewBox="0 0 636 300" fill="none" xmlns="http://www.w3.org/2000/svg">
<path d="M299.5 215.59C295.17 216.96 296.98 220.82 301.63 220.8C322.65 220.69 343.78 221.83 354.17 222.72C367.32 223.85 377.21 221.96 380.35 219.5C382.85 217.54 382.06 213.99 375.81 213.27C361.96 211.69 303.45 214.35 299.5 215.59Z" fill="#797673"/>
<path d="M331.99 212.17C295.17 213.53 289.17 217.99 310.09 218.12C331.29 218.25 344.22 218.92 354.62 219.81C378.32 221.83 388.35 214.4 374.31 213.05C360.38 211.71 340.17 211.86 331.99 212.17Z" fill="#B3AFAB"/>
<path d="M359 215.08L353.14 216.48L315.16 184.81L349.16 185.29L359 215.08Z" fill="#605D5A"/>
<path d="M353.31 216.49L316.84 216.04L306.62 184.79L342.84 184.87L353.31 216.49Z" fill="#797673"/>
<path d="M446.96 31.17L443.24 30.75C444.53 31.05 445.5 32.15 445.47 33.54L442.47 195.54C442.44 197.16 441.09 198.45 439.44 198.45L444.02 198.12C445.68 198.13 447.04 196.84 447.06 195.21L450.07 34.09C450.12 32.38 448.7 31.06 446.96 31.17Z" fill="#B3AFAB"/>
<path d="M224.2 52.2898L441.28 35.8398L440.65 195.32L221.66 190.07L224.2 52.2898Z" fill="#A3C9F6"/>
<path d="M269.08 229.6C263.38 232.22 264.1 238.04 269.53 239.33C272.8 240.11 279.59 240.72 285.15 241.07C321.28 243.31 343.41 247.05 361.27 250.74C383.99 255.44 399.17 251.02 404.91 244.29C409.5 238.92 406.57 232.94 395.7 230.22C371.72 224.2 275.88 226.48 269.08 229.6Z" fill="#797673"/>
<path d="M321.39 222.99C302.65 223.01 288.59 223.81 279.09 225.63C273.97 226.61 258.22 233.21 269.54 235.93C272.81 236.72 277.89 237.17 283.51 237.58C319.63 240.2 341.77 243.52 359.64 247.19C400.69 255.61 419.03 235.31 394.53 229.94C370.41 224.64 335.46 222.97 321.39 222.99Z" fill="#B3AFAB"/>
<path d="M275.37 233.04C337.32 233.85 368.69 240.88 375.84 242.53C376.73 242.73 377.62 242.5 378.28 241.88C380.28 240.01 384.97 235.75 390.5 231.77C391.12 231.32 390.89 230.33 390.13 230.18C329.63 218.09 288.07 224.36 288.07 224.36C284.35 225.34 278.35 228.62 274.82 231.45C274.19 231.97 274.55 233.03 275.37 233.04Z" fill="#797673"/>
<path d="M345.84 116.45L345.71 110.36L415.75 108.84L415.88 115.07L345.84 116.45Z" fill="#6BA8F1"/>
<path d="M345.88 128.65L345.74 122.56L415.98 121.21L416.12 127.45L345.88 128.65Z" fill="#6BA8F1"/>
<path d="M345.9 140.84L345.8 134.75L398.86 134.55L398.96 140.75L345.9 140.84Z" fill="#6BA8F1"/>
<path d="M337.4 64.5598L337.21 58.4898L385.24 54.8398L385.43 61.0098L337.4 64.5598Z" fill="#6BA8F1"/>
<path d="M328.64 42.9099L229.74 52.0599L227.18 190.09L326.32 190.41L328.64 42.9099Z" fill="#84817D"/>
<path d="M245.73 70.11L245.53 64.21L286.57 61.26L286.78 67.23L245.73 70.11Z" fill="#B3AFAB"/>
<path d="M258.72 82.61L258.52 76.69L299.81 73.96L300.01 79.96L258.72 82.61Z" fill="#B3AFAB"/>
<path d="M258.75 96.0499L258.58 90.1299L307.62 87.3499L307.8 93.3699L258.75 96.0499Z" fill="#B3AFAB"/>
<path d="M245.35 110.12L245.23 104.22L288.92 102.39L289.04 108.37L245.35 110.12Z" fill="#B3AFAB"/>
<path d="M259.1 122.92L258.97 117L306.24 115.12L306.37 121.14L259.1 122.92Z" fill="#B3AFAB"/>
<path d="M271.66 135.99L271.52 130.04L314.09 128.43L314.24 134.46L271.66 135.99Z" fill="#B3AFAB"/>
<path d="M271.69 149.51L271.6 143.57L299.12 142.92L299.21 148.92L271.69 149.51Z" fill="#B3AFAB"/>
<path d="M259.22 163.21L259.15 157.29L312.68 156.43L312.75 162.46L259.22 163.21Z" fill="#B3AFAB"/>
<path d="M271.78 176.55L271.71 170.6L305.23 170.26L305.29 176.28L271.78 176.55Z" fill="#B3AFAB"/>
<path d="M442.36 30.6199L223.64 47.5099C222.22 47.5999 221.08 48.8499 221.05 50.3499L218.64 191.76C218.61 193.31 219.81 194.6 221.29 194.61L439.44 198.45C441.1 198.46 442.45 197.17 442.48 195.54L445.48 33.5399C445.51 31.8299 444.09 30.5099 442.36 30.6199ZM429.76 186.19C429.73 187.61 428.55 188.75 427.11 188.74L230.72 185.62C229.41 185.62 228.35 184.49 228.38 183.11L230.52 58.2899C230.54 56.9699 231.55 55.8699 232.81 55.7899L429.65 41.5699C431.16 41.4799 432.4 42.6399 432.37 44.1299L429.76 186.19Z" fill="#605D5A"/>
<path d="M262.19 63.01L245.53 64.21L245.73 70.11L262.21 68.95L262.19 63.01Z" fill="#F7B548"/>
<path d="M274.74 89.22L258.58 90.13L258.75 96.05L274.76 95.18L274.74 89.22Z" fill="#F7B548"/>
<path d="M276.06 157.02L259.15 157.29L259.22 163.21L276.08 162.97L276.06 157.02Z" fill="#F7B548"/>
<path d="M419.77 256.13C428.41 257.1 433.59 255.42 443.13 248.74C452.67 242.06 450.99 235.39 442.42 234.44C433.85 233.49 419.78 240.16 414.54 245.64C409.29 251.12 413.14 255.39 419.77 256.13Z" fill="#B3AFAB"/>
<path d="M444.32 245.12C433.33 252.81 426.53 255.41 416.6 254.05C414.78 253.8 413.39 253.16 412.32 251.85C413.12 254.14 414.87 255.77 418.65 256.19C427.29 257.16 433.6 255.41 443.13 248.74C447.43 245.73 449.43 242.73 449.57 240.25C448.35 242.03 447 243.25 444.32 245.12Z" fill="#797673"/>
<path d="M423.88 245.8C423.75 245.8 423.61 245.74 423.53 245.62C423.39 245.43 423.44 245.16 423.63 245.02C435.09 236.89 443.42 235.65 443.77 235.6C444.01 235.57 444.22 235.73 444.25 235.96C444.28 236.19 444.12 236.41 443.89 236.44C443.81 236.45 435.4 237.72 424.12 245.71C424.05 245.78 423.97 245.8 423.88 245.8Z" fill="#9C9894"/>
<path d="M438.6 238.54C440.141 238.54 441.39 238.07 441.39 237.49C441.39 236.91 440.141 236.44 438.6 236.44C437.059 236.44 435.81 236.91 435.81 237.49C435.81 238.07 437.059 238.54 438.6 238.54Z" fill="#797673"/>
<path d="M464.33 93.8099L358.21 97.1499C356.69 97.2399 355.42 96.0299 355.41 94.5199L355.34 74.2399C355.34 72.8399 356.41 71.6899 357.81 71.5899L464.26 66.9799C465.8 66.8699 467.11 68.1099 467.09 69.6499L466.83 91.1899C466.81 92.5899 465.72 93.7299 464.33 93.8099Z" fill="#CEDB59"/>
<path d="M245.54 133.85L129.19 134.83C127.63 134.84 126.36 133.59 126.36 132.03V90.29C126.36 88.73 127.62 87.42 129.19 87.37L245.54 83.18C247.32 83.12 248.77 84.42 248.77 86.09V130.8C248.78 132.47 247.33 133.84 245.54 133.85Z" fill="#F7B548"/>
<path d="M182.42 124.51L237.07 123.74V93.5901L182.42 95.2501V124.51Z" fill="white"/>
<path d="M196.11 106.63L186.92 124.44L233.68 123.79L224.47 104.91L215.36 123.13L205.66 123.27L196.11 106.63Z" fill="#CAE0FA"/>
<path d="M210.49 98.9702L200.08 124.26L222.37 123.95L210.49 98.9702Z" fill="#3E8EED"/>
<path d="M169.72 99.6299L137.33 100.54C136.53 100.56 135.89 99.9399 135.89 99.1499C135.89 98.3599 136.53 97.6999 137.33 97.6799L169.72 96.7099C170.55 96.6899 171.22 97.3199 171.22 98.1199C171.22 98.9299 170.55 99.6099 169.72 99.6299Z" fill="white"/>
<path d="M169.72 107.4L137.33 108.17C136.53 108.19 135.89 107.56 135.89 106.77C135.89 105.98 136.53 105.32 137.33 105.3L169.72 104.48C170.55 104.46 171.22 105.1 171.22 105.9C171.22 106.72 170.55 107.38 169.72 107.4Z" fill="white"/>
<path d="M161.61 115.34L137.33 115.81C136.53 115.83 135.89 115.2 135.89 114.41C135.89 113.62 136.53 112.97 137.33 112.95L161.61 112.44C162.43 112.42 163.09 113.06 163.09 113.86C163.09 114.66 162.43 115.32 161.61 115.34Z" fill="white"/>
<path d="M167.29 174.86L113.44 173.71C112.16 173.66 111.15 172.61 111.15 171.33V133.8C111.15 132.49 112.21 131.42 113.53 131.42L167.38 130.58C168.69 130.58 169.76 131.64 169.76 132.96V172.48C169.76 173.84 168.64 174.92 167.29 174.86Z" fill="#A3C9F6"/>
<path d="M140.71 166.92C132.55 166.92 125.9 160.28 125.9 152.11C125.9 143.94 132.54 137.3 140.71 137.3C148.87 137.3 155.51 143.94 155.51 152.11C155.51 160.28 148.87 166.92 140.71 166.92ZM140.71 142.17C135.23 142.17 130.77 146.63 130.77 152.11C130.77 157.59 135.23 162.05 140.71 162.05C146.19 162.05 150.65 157.59 150.65 152.11C150.65 146.63 146.19 142.17 140.71 142.17Z" fill="white"/>
<path d="M130.78 152.34C130.78 152.26 130.77 152.19 130.77 152.11C130.77 146.78 134.99 142.43 140.26 142.19V137.33C132.31 137.57 125.91 144.1 125.91 152.11C125.91 152.19 125.92 152.26 125.92 152.34H130.78Z" fill="#CEDB59"/>
<path d="M130.77 152.11H125.91C125.91 157.01 128.32 161.35 132 164.05L135.22 160.38C132.53 158.6 130.77 155.56 130.77 152.11Z" fill="#3E8EED"/>
<path d="M511.24 178.99L393.6 175.64V116.72L511.24 114.06V178.99Z" fill="#4995EE"/>
<path d="M426.72 115.97L393.6 116.72V175.64L426.72 176.59V115.97Z" fill="white"/>
<path d="M433.21 150.81L437.12 150.84V139.74L433.21 139.75V150.81Z" fill="#A3C9F6"/>
<path d="M442.17 150.87L446.13 150.9V131.25L442.17 131.29V150.87Z" fill="#A3C9F6"/>
<path d="M451.25 150.93L455.28 150.96V134.36L451.25 134.39V150.93Z" fill="#A3C9F6"/>
<path d="M460.48 150.99L464.56 151.02V131.08L460.48 131.12V150.99Z" fill="#A3C9F6"/>
<path d="M469.84 151.06L473.99 151.09V120.08L469.84 120.16V151.06Z" fill="#A3C9F6"/>
<path d="M479.36 151.12L483.57 151.15V123.26L479.36 123.33V151.12Z" fill="#A3C9F6"/>
<path d="M489.02 138.09V151.19L493.3 151.21V138.07L489.02 138.09Z" fill="#A3C9F6"/>
<path d="M437.77 160.13L441.7 160.18V150.16L437.77 150.14V160.13Z" fill="#0064DA"/>
<path d="M446.79 168.68L450.78 168.76V150.22L446.79 150.19V168.68Z" fill="#0064DA"/>
<path d="M455.95 164.56L460 164.63V150.27L455.95 150.25V164.56Z" fill="#0064DA"/>
<path d="M465.24 169.07L469.36 169.16V150.33L465.24 150.3V169.07Z" fill="#0064DA"/>
<path d="M474.68 173.74L478.87 173.85V150.39L474.68 150.36V173.74Z" fill="#0064DA"/>
<path d="M484.27 169.48L488.52 169.57V150.45L484.27 150.42V169.48Z" fill="#0064DA"/>
<path d="M494.01 150.48V160.94L498.32 161V150.51L494.01 150.48Z" fill="#0064DA"/>
<path d="M500.36 151.45L430.31 150.97V149.53L500.36 149.92V151.45Z" fill="white"/>
<path d="M417.82 132.22L404.22 132.34V130.2L417.82 130.05V132.22Z" fill="#BDD8F9"/>
<path d="M414.77 137.67L404.22 137.71V135.56L414.77 135.5V137.67Z" fill="#BDD8F9"/>
<path d="M417.82 146.58L404.22 146.54V144.39L417.82 144.41V146.58Z" fill="#BDD8F9"/>
<path d="M414.31 151.98L404.22 151.9V149.76L414.31 149.82V151.98Z" fill="#BDD8F9"/>
<path d="M413.39 157.39L404.22 157.27V155.13L413.39 155.22V157.39Z" fill="#BDD8F9"/>
<path d="M401.13 131.74C401.13 132.78 400.36 133.63 399.42 133.63C398.48 133.64 397.71 132.8 397.71 131.77C397.71 130.74 398.47 129.89 399.42 129.88C400.36 129.87 401.13 130.71 401.13 131.74Z" fill="#4995EE"/>
<path d="M401.13 145.61C401.13 146.65 400.36 147.49 399.42 147.48C398.48 147.48 397.71 146.63 397.71 145.6C397.71 144.57 398.47 143.73 399.42 143.73C400.36 143.73 401.13 144.57 401.13 145.61Z" fill="#4995EE"/>
</svg>
