<svg width="636" height="300" viewBox="0 0 636 300" fill="none" xmlns="http://www.w3.org/2000/svg">
<path d="M288.42 204.39L89.6201 212.61C86.2801 212.77 83.5601 210.07 83.5601 206.57V57.6299C83.5601 54.1099 86.2801 51.4299 89.6401 51.6299L288.18 63.4699C290.66 63.6099 292.68 66.1699 292.68 69.1899L292.92 198.71C292.92 201.73 290.9 204.27 288.42 204.39Z" fill="#BDD8F9"/>
<path d="M292.6 116.69L292.68 69.2099C292.68 66.2099 290.68 63.6499 288.18 63.4899L89.6401 51.6499C86.2801 51.4499 83.5601 54.1299 83.5601 57.6299V113.03L292.6 116.69Z" fill="#227BE5"/>
<path d="M185.5 75.3099L95.7402 71.1499L95.7202 99.2499L185.48 101.69L185.5 75.3099Z" fill="#81B5F3"/>
<path d="M163.42 202.01L104.04 204.11L104.06 130.23L163.46 130.57L163.42 202.01Z" fill="white"/>
<path d="M141.88 144.95C141.88 149.49 138.46 153.23 134.24 153.27C129.98 153.31 126.52 149.63 126.52 145.03C126.52 140.43 130 136.71 134.24 136.71C138.48 136.71 141.9 140.41 141.88 144.95Z" fill="#81B5F3"/>
<path d="M153.8 164.27L113.6 165.01V159.97L153.8 159.37V164.27Z" fill="#E6E4E3"/>
<path d="M154.04 178.63L113.86 179.77V177.77L154.04 176.67V178.63Z" fill="#B3AFAB"/>
<path d="M154.04 184.47L113.86 185.79V183.79L154.04 182.53V184.47Z" fill="#B3AFAB"/>
<path d="M138.18 190.91L113.86 191.81V189.81L138.18 188.93V190.91Z" fill="#B3AFAB"/>
<path d="M222.56 199.93L168.02 201.81L168.08 130.59L222.44 130.91L222.56 199.93Z" fill="white"/>
<path d="M202.66 144.69C202.66 149.05 199.54 152.61 195.66 152.65C191.76 152.69 188.6 149.15 188.6 144.75C188.6 140.35 191.78 136.79 195.68 136.79C199.54 136.79 202.66 140.33 202.66 144.69Z" fill="#81B5F3"/>
<path d="M213.56 163.17L176.78 163.85V159.03L213.58 158.49L213.56 163.17Z" fill="#E6E4E3"/>
<path d="M213.78 176.91L177 177.97V176.05L213.78 175.05V176.91Z" fill="#B3AFAB"/>
<path d="M213.78 182.51L177 183.71V181.81L213.78 180.65V182.51Z" fill="#B3AFAB"/>
<path d="M199.26 188.65L177 189.47V187.55L199.26 186.75V188.65Z" fill="#B3AFAB"/>
<path d="M276.48 196.85L226.58 199.13L226.66 130.93L276.58 131.23L276.48 196.85Z" fill="white"/>
<path d="M258.4 144.43C258.4 148.61 255.52 152.01 251.96 152.05C248.38 152.09 245.48 148.71 245.48 144.49C245.48 140.27 248.4 136.87 251.98 136.87C255.54 136.87 258.4 140.25 258.4 144.43Z" fill="#81B5F3"/>
<path d="M268.42 162.17L234.62 162.79L234.64 158.17L268.42 157.67V162.17Z" fill="#E6E4E3"/>
<path d="M268.6 175.33L234.84 176.31V174.47L268.6 173.55V175.33Z" fill="#84817D"/>
<path d="M268.6 180.71L234.82 181.81V179.97L268.6 178.91V180.71Z" fill="#84817D"/>
<path d="M255.24 186.57L234.82 187.33V185.49L255.24 184.75V186.57Z" fill="#84817D"/>
<path d="M292.58 121.27L292.6 110.81L83.5601 106.17V118.37L292.58 121.27Z" fill="#625F5B"/>
<path d="M116.58 110.89L95.9399 110.49V114.77L116.58 115.11V110.89Z" fill="#84817D"/>
<path d="M145.04 111.43L125.22 111.05V115.25L145.04 115.57V111.43Z" fill="#84817D"/>
<path d="M172.4 111.97L153.34 111.59V115.71L172.38 116.03L172.4 111.97Z" fill="#84817D"/>
<path d="M198.7 112.47L180.38 112.13V116.15L198.7 116.45V112.47Z" fill="#84817D"/>
<path d="M430.84 247.25L230.58 263.59C226.9 263.89 223.92 261.43 223.92 258.11L224.08 131.83C224.08 128.49 227.08 125.79 230.76 125.77L431.18 125.07C434.06 125.05 436.38 127.43 436.36 130.37L436.04 241.55C436.06 244.45 433.72 247.01 430.84 247.25Z" fill="#E6E4E3"/>
<path d="M436.38 132.45L436.4 128.71C436.4 126.67 434.8 125.03 432.82 125.05L228.74 125.75C226.2 125.75 224.12 127.63 224.12 129.95V134.21L436.38 132.45Z" fill="#666666"/>
<path d="M355 140.29L336.74 140.51V145.51L355 145.23V140.29Z" fill="#B2B2B2"/>
<path d="M380.4 139.95L362.7 140.19L362.68 145.11L380.38 144.83L380.4 139.95Z" fill="#B2B2B2"/>
<path d="M428.88 139.35L412.22 139.55V144.33L428.86 144.07L428.88 139.35Z" fill="#B2B2B2"/>
<path d="M436.18 197.99L436.32 149.69L224.08 153.81L224 208.65L436.18 197.99Z" fill="#B3AFAB"/>
<path d="M305.82 244.91L248.22 249.19L248.28 213.95L305.88 210.85L305.82 244.91Z" fill="#EA7F6B"/>
<path d="M363.8 240.61L310.14 244.59L310.22 210.61L363.88 207.71L363.8 240.61Z" fill="#F7B548"/>
<path d="M417.94 236.61L367.84 240.31L367.92 207.49L418.02 204.79L417.94 236.61Z" fill="#58D0DB"/>
<path d="M337.34 188.31L238.18 192.41V184.83L337.34 181.15V188.31Z" fill="#E6E4E3"/>
<path d="M299.24 197.39L238.16 200.19L238.18 196.79L299.24 194.11V197.39Z" fill="#E6E4E3"/>
<path d="M557.98 206.53L393.38 212.79C390.38 212.91 387.96 210.55 387.96 207.55L388.26 93.95C388.26 90.93 390.72 88.59 393.72 88.71L558.42 95.25C560.82 95.35 562.76 97.59 562.74 100.29L562.34 201.51C562.32 204.19 560.38 206.43 557.98 206.53Z" fill="#BBF1FD"/>
<path d="M558.4 95.25L501.1 92.97L500.7 208.69L557.98 206.51C560.38 206.41 562.34 204.17 562.34 201.49L562.74 100.27C562.74 97.61 560.8 95.35 558.4 95.25Z" fill="#B2B2B2"/>
<path d="M442.04 197.95L401.42 199.15L401.52 160.75L442.16 160.53L442.04 197.95Z" fill="white"/>
<path d="M494.38 154.07L401.8 154.19V150.13L494.4 150.23L494.38 154.07Z" fill="#B2B2B2"/>
<path d="M494.36 162.71L450.12 163.03L450.14 160.59L494.36 160.35V162.71Z" fill="#B2B2B2"/>
<path d="M494.34 169.85L450.1 170.37V167.93L494.34 167.47V169.85Z" fill="#B2B2B2"/>
<path d="M494.32 176.97L450.08 177.71V175.27L494.32 174.59V176.97Z" fill="#B2B2B2"/>
<path d="M485.02 184.29L450.06 185.05V182.59L485.04 181.91L485.02 184.29Z" fill="#B2B2B2"/>
<path d="M554.86 153.43L505.86 153.47L505.88 147.63L554.88 147.77L554.86 153.43Z" fill="#BBF1FD"/>
<path d="M562.64 133.94L562.74 100.29C562.76 97.61 560.82 95.35 558.42 95.25L393.72 88.71C390.72 88.59 388.28 90.93 388.26 93.95L388.14 133.1L562.64 133.94Z" fill="#1DACCC"/>
<path d="M555.06 140.35L504.96 139.95L505.08 108.53L555.16 110.01L555.06 140.35Z" fill="white"/>
<path d="M562.72 104.97L562.74 98.7698C562.74 96.9298 561.42 95.3698 559.76 95.3098L392.02 88.6498C389.96 88.5698 388.26 90.1898 388.26 92.2498L388.24 99.2098L562.72 104.97Z" fill="#625F5B"/>
<path d="M517.9 163.81C517.9 166.31 516.02 168.35 513.72 168.37C511.42 168.39 509.54 166.39 509.56 163.89C509.56 161.39 511.46 159.35 513.76 159.33C516.04 159.31 517.9 161.31 517.9 163.81Z" fill="white"/>
<path d="M517.84 179.97C517.84 182.47 515.96 184.51 513.66 184.57C511.36 184.63 509.48 182.63 509.5 180.13C509.5 177.63 511.4 175.57 513.7 175.53C516 175.49 517.84 177.47 517.84 179.97Z" fill="white"/>
<path d="M517.78 196.13C517.78 198.61 515.9 200.69 513.6 200.77C511.3 200.85 509.42 198.87 509.44 196.37C509.44 193.87 511.34 191.79 513.64 191.73C515.94 191.67 517.78 193.63 517.78 196.13Z" fill="white"/>
<path d="M554.44 161.07L521.9 161.29V159.67L554.46 159.51L554.44 161.07Z" fill="#797673"/>
<path d="M547.96 165.87L521.88 166.11V164.51L547.96 164.29V165.87Z" fill="#797673"/>
<path d="M554.38 176.83L521.84 177.39V175.79L554.4 175.27L554.38 176.83Z" fill="#797673"/>
<path d="M547.9 181.69L521.82 182.23L521.84 180.63L547.9 180.11V181.69Z" fill="#797673"/>
<path d="M554.32 192.59L521.78 193.51L521.8 191.89L554.34 191.01L554.32 192.59Z" fill="#797673"/>
<path d="M547.84 197.51L521.76 198.35L521.78 196.73L547.84 195.93V197.51Z" fill="#797673"/>
<path d="M468.86 122.83L401.88 121.53L401.92 111.59L468.88 113.31L468.86 122.83Z" fill="#BBF1FD"/>
</svg>
