<svg width="636" height="300" viewBox="0 0 636 300" fill="none" xmlns="http://www.w3.org/2000/svg">
<path d="M136.63 182.72C136.62 180.61 138.95 180.47 138.95 180.47L138.84 173.33C138.84 173.33 136.7 173.13 136.63 171.38L136.72 138.94C136.76 136.8 139.16 136.37 139.16 136.37L139.08 128.55C139.08 128.55 136.87 128.93 136.8 126.18C136.8 126.09 136.77 126.01 136.76 125.92L136.84 97.2301C136.84 95.4301 137.92 93.8 139.58 93.0801L139.36 85.3001C139.36 85.3001 137.48 84.18 137.5 81.67C137.52 79.17 137.67 55.5201 137.78 53.0201C137.89 50.5201 140.66 48.8301 140.66 48.8301L173.3 29.3L315.44 38.51L316.74 265.11L173.67 269.67C173.67 269.67 141.67 263.62 139.16 263.07C136.65 262.52 136.56 260 136.56 260L136.47 228.09C136.47 228.09 136.38 225.58 138.98 225.39C139.26 222.79 138.92 218.05 138.92 218.05C137.55 218.04 136.44 216.93 136.45 215.55C136.45 215.56 136.64 183.83 136.63 182.72Z" fill="#797673"/>
<path d="M139.07 128.54L174.79 121.12L174.5 129.25C174.5 129.25 172.07 129.81 169.12 130.49C167.27 130.92 139.13 136.39 139.13 136.39L139.07 128.54Z" fill="#605D5A"/>
<path d="M139.35 85.4001L174.23 70.6101L173.94 78.7301L139.25 93.2101L139.35 85.4001Z" fill="#605D5A"/>
<path d="M138.98 180.58L138.84 173.3L174.74 167.65L174.97 175.89L138.98 180.58Z" fill="#605D5A"/>
<path d="M139.01 225.33L138.88 218.05L175.25 219.63V227.35L139.01 225.33Z" fill="#605D5A"/>
<path d="M174 71.71L319.32 77.86C320.52 77.87 321.49 76.87 321.53 75.59L320.97 39.3C321.02 37.93 319.98 36.77 318.7 36.77L173.9 29.17C172.67 29.16 171.69 30.22 171.69 31.53L171.72 69.27C171.72 70.61 172.75 71.71 174 71.71Z" fill="#B3AFAB"/>
<path d="M210.36 58.19L297.16 61.95L296.94 44.74L210.14 40.98L210.36 58.19Z" fill="#522CD5"/>
<path d="M221.86 55.9601L285.82 58.9701L285.65 46.3101L221.69 43.3101L221.86 55.9601Z" fill="#957EE6"/>
<path d="M187.738 54.0148C190.323 53.679 192.127 51.1558 191.766 48.3789C191.405 45.6021 189.017 43.6232 186.432 43.959C183.847 44.2947 182.044 46.818 182.404 49.5948C182.765 52.3717 185.153 54.3505 187.738 54.0148Z" fill="white"/>
<path d="M250.56 48.86L226.08 47.78L226.14 52.62L250.62 53.7L250.56 48.86Z" fill="white"/>
<path d="M174.42 121.12L319.74 124.73C320.94 124.71 321.91 123.7 321.95 122.42L321.39 86.1401C321.44 84.7701 320.4 83.6301 319.12 83.6501L174.32 78.5801C173.09 78.6001 172.11 79.6701 172.11 80.9801L172.14 118.71C172.14 120.05 173.17 121.13 174.42 121.12Z" fill="#B3AFAB"/>
<path d="M210.78 106.97L297.58 109.21L297.35 92L210.56 89.75L210.78 106.97Z" fill="#522CD5"/>
<path d="M222.28 104.54L286.23 106.42L286.07 93.7701L222.11 91.8801L222.28 104.54Z" fill="#957EE6"/>
<path d="M187.562 103.21C190.174 103.176 192.262 100.883 192.226 98.0889C192.189 95.2946 190.042 93.0569 187.43 93.0909C184.818 93.1248 182.73 95.4176 182.766 98.2118C182.803 101.006 184.95 103.244 187.562 103.21Z" fill="white"/>
<path d="M250.98 96.93L226.5 96.28L226.56 101.12L251.04 101.77L250.98 96.93Z" fill="white"/>
<path d="M174.74 167.69L318.53 169.87C320.05 169.85 321.27 168.53 321.27 166.9L321.58 134.34C321.58 132.67 320.28 131.32 318.72 131.37L175.39 129.17C173.92 129.21 172.22 130.58 172.18 132.16L171.92 164.65C171.88 166.32 173.16 167.71 174.74 167.69Z" fill="#B3AFAB"/>
<path d="M209.22 155.61L297.17 157.58L296.95 140.88L209 138.9L209.22 155.61Z" fill="#522CD5"/>
<path d="M220.14 153.39L286.2 154.79L286.04 142.24L219.97 140.84L220.14 153.39Z" fill="#957EE6"/>
<path d="M188.188 151.819C191.06 151.782 193.355 149.258 193.315 146.182C193.275 143.106 190.915 140.643 188.043 140.68C185.172 140.718 182.876 143.241 182.916 146.317C182.956 149.393 185.316 151.856 188.188 151.819Z" fill="white"/>
<path d="M249.05 145.48L224.57 144.9L224.64 149.74L249.11 150.33L249.05 145.48Z" fill="white"/>
<path d="M175.25 219.67L319.2 219.91C320.53 219.82 321.56 218.64 321.56 217.22L321.72 180.1C321.72 178.58 320.57 177.36 319.15 177.37L174.75 175.94C173.39 175.96 172.28 177.13 172.25 178.58L172.54 216.89C172.52 218.49 173.77 219.77 175.25 219.67Z" fill="#B3AFAB"/>
<path d="M188.038 199.509C190.909 199.471 193.205 196.947 193.165 193.872C193.125 190.796 190.764 188.332 187.893 188.37C185.021 188.407 182.726 190.931 182.766 194.007C182.806 197.083 185.166 199.546 188.038 199.509Z" fill="white"/>
<path d="M207.83 203.23L295.78 203.72L295.56 187.02L207.61 186.53L207.83 203.23Z" fill="#522CD5"/>
<path d="M218.74 201.01L284.81 201.49L284.65 188.94L218.58 188.46L218.74 201.01Z" fill="#957EE6"/>
<path d="M247.66 192.74L223.18 192.53L223.24 197.37L247.72 197.58L247.66 192.74Z" fill="white"/>
<path d="M174 269.78L319.32 268.32C320.52 268.26 321.49 267.21 321.53 265.93L320.97 229.67C321.02 228.3 319.98 227.2 318.7 227.26L173.9 227.25C172.67 227.31 171.69 228.41 171.69 229.73L171.72 267.46C171.72 268.79 172.75 269.84 174 269.78Z" fill="#B3AFAB"/>
<path d="M210.36 254.35L297.16 253.56L296.94 236.36L210.14 237.15L210.36 254.35Z" fill="#522CD5"/>
<path d="M221.86 251.52L285.82 251.17L285.65 238.52L221.69 238.87L221.86 251.52Z" fill="#957EE6"/>
<path d="M191.687 247.349C192.275 244.605 190.69 241.94 188.146 241.395C185.603 240.85 183.064 242.632 182.476 245.375C181.889 248.118 183.474 250.784 186.018 251.329C188.561 251.874 191.099 250.092 191.687 247.349Z" fill="white"/>
<path d="M250.56 242.91L226.08 243.12L226.14 247.96L250.62 247.75L250.56 242.91Z" fill="white"/>
<path d="M306.05 245.58H482.6C483.78 245.58 484.74 244.62 484.74 243.44V129.34C484.74 128.18 483.82 127.23 482.66 127.2L306.11 122.11C304.9 122.08 303.91 123.04 303.91 124.25V243.44C303.9 244.62 304.86 245.58 306.05 245.58Z" fill="#A7CBF6"/>
<path d="M303.9 138.98V124.25C303.9 123.04 304.9 122.07 306.1 122.11L482.65 127.2C483.81 127.23 484.73 128.18 484.73 129.34V143.47L303.9 138.98Z" fill="#605D5A"/>
<path d="M344.3 134.79L437.2 137.23C438.74 137.27 440.01 136.03 440.01 134.49C440.01 133 438.83 131.79 437.34 131.75L344.44 129.31C342.9 129.27 341.63 130.51 341.63 132.05C341.63 133.54 342.81 134.75 344.3 134.79Z" fill="#C8C6C4"/>
<path d="M330.88 133.66C332.156 133.66 333.19 132.626 333.19 131.35C333.19 130.074 332.156 129.04 330.88 129.04C329.604 129.04 328.57 130.074 328.57 131.35C328.57 132.626 329.604 133.66 330.88 133.66Z" fill="#E86E58"/>
<path d="M322.95 133.45C324.225 133.45 325.26 132.416 325.26 131.14C325.26 129.864 324.225 128.83 322.95 128.83C321.674 128.83 320.64 129.864 320.64 131.14C320.64 132.416 321.674 133.45 322.95 133.45Z" fill="#FAE969"/>
<path d="M314.88 133.24C316.156 133.24 317.19 132.206 317.19 130.93C317.19 129.654 316.156 128.62 314.88 128.62C313.604 128.62 312.57 129.654 312.57 130.93C312.57 132.206 313.604 133.24 314.88 133.24Z" fill="#56A84F"/>
<path d="M480 139.07L472.51 138.79V132.47L480 132.75V139.07Z" fill="#C8C6C4"/>
<path d="M317.81 168.79L424 170.23V153.21L317.95 151.16L317.81 168.79Z" fill="#0064DA"/>
<path d="M335.72 205.95L458.51 207.26V178.51L335.72 176.65V205.95Z" fill="white"/>
<path d="M429.67 230.89L530.69 231.35V216.56L429.67 216.09V230.89Z" stroke="#3085E9" stroke-width="2" stroke-miterlimit="10"/>
</svg>
