<svg width="636" height="300" viewBox="0 0 636 300" fill="none" xmlns="http://www.w3.org/2000/svg">
<path d="M420 202.24H508.95C511.92 202.24 514.33 199.83 514.33 196.86V173.56C514.33 170.59 511.92 168.18 508.95 168.18H420C417.03 168.18 414.62 170.59 414.62 173.56V196.86C414.62 199.83 417.03 202.24 420 202.24Z" fill="#C8C6C4"/>
<path d="M441.28 168.18H409.64C407.4 168.18 405.59 169.99 405.59 172.23V198.19C405.59 200.43 407.4 202.24 409.64 202.24H441.28V168.18Z" fill="#84817D"/>
<path d="M436.17 177.73H411.59V191.86H436.17V177.73Z" fill="white"/>
<path d="M424.19 188.22C424.03 188.22 423.88 188.18 423.74 188.09L414.1 181.95C413.71 181.7 413.6 181.18 413.84 180.8C414.09 180.41 414.61 180.3 414.99 180.54L424.17 186.39L432.89 180.48C433.27 180.22 433.79 180.32 434.05 180.7C434.31 181.08 434.21 181.6 433.83 181.86L424.65 188.08C424.52 188.17 424.35 188.22 424.19 188.22Z" fill="#F7B548"/>
<path d="M491.73 61.17V58.52H489.08" stroke="#8065E0" stroke-width="3.5361" stroke-miterlimit="10"/>
<path d="M481.87 60.29H476.46V56.75H481.87V60.29ZM469.26 60.29H463.85V56.75H469.26V60.29ZM456.65 60.29H451.24V56.75H456.65V60.29ZM444.03 60.29H438.62V56.75H444.03V60.29ZM431.42 60.29H426.01V56.75H431.42V60.29ZM418.81 60.29H413.4V56.75H418.81V60.29ZM406.2 60.29H400.79V56.75H406.2V60.29ZM393.58 60.29H388.17V56.75H393.58V60.29ZM380.97 60.29H375.56V56.75H380.97V60.29ZM368.36 60.29H362.95V56.75H368.36V60.29ZM355.75 60.29H350.34V56.75H355.75V60.29ZM343.13 60.29H337.72V56.75H343.13V60.29ZM330.52 60.29H325.11V56.75H330.52V60.29ZM317.91 60.29H312.5V56.75H317.91V60.29Z" fill="#8065E0"/>
<path d="M305.29 58.52H302.64V61.17" stroke="#8065E0" stroke-width="3.5361" stroke-miterlimit="10"/>
<path d="M304.41 220.46H300.87V215.21H304.41V220.46ZM304.41 208.2H300.87V202.95H304.41V208.2ZM304.41 195.95H300.87V190.7H304.41V195.95ZM304.41 183.7H300.87V178.45H304.41V183.7ZM304.41 171.45H300.87V166.2H304.41V171.45ZM304.41 159.19H300.87V153.94H304.41V159.19ZM304.41 146.94H300.87V141.69H304.41V146.94ZM304.41 134.69H300.87V129.44H304.41V134.69ZM304.41 122.44H300.87V117.19H304.41V122.44ZM304.41 110.18H300.87V104.93H304.41V110.18ZM304.41 97.9299H300.87V92.6799H304.41V97.9299ZM304.41 85.6799H300.87V80.4299H304.41V85.6799ZM304.41 73.4299H300.87V68.1799H304.41V73.4299Z" fill="#8065E0"/>
<path d="M302.64 227.46V230.11H305.29" stroke="#8065E0" stroke-width="3.5361" stroke-miterlimit="10"/>
<path d="M481.87 231.88H476.46V228.34H481.87V231.88ZM469.26 231.88H463.85V228.34H469.26V231.88ZM456.65 231.88H451.24V228.34H456.65V231.88ZM444.03 231.88H438.62V228.34H444.03V231.88ZM431.42 231.88H426.01V228.34H431.42V231.88ZM418.81 231.88H413.4V228.34H418.81V231.88ZM406.2 231.88H400.79V228.34H406.2V231.88ZM393.58 231.88H388.17V228.34H393.58V231.88ZM380.97 231.88H375.56V228.34H380.97V231.88ZM368.36 231.88H362.95V228.34H368.36V231.88ZM355.75 231.88H350.34V228.34H355.75V231.88ZM343.13 231.88H337.72V228.34H343.13V231.88ZM330.52 231.88H325.11V228.34H330.52V231.88ZM317.91 231.88H312.5V228.34H317.91V231.88Z" fill="#8065E0"/>
<path d="M489.08 230.11H491.73V227.46" stroke="#8065E0" stroke-width="3.5361" stroke-miterlimit="10"/>
<path d="M493.5 220.45H489.96V215.2H493.5V220.45ZM493.5 208.2H489.96V202.95H493.5V208.2ZM493.5 195.95H489.96V190.7H493.5V195.95ZM493.5 183.7H489.96V178.45H493.5V183.7ZM493.5 171.44H489.96V166.19H493.5V171.44ZM493.5 159.19H489.96V153.94H493.5V159.19ZM493.5 146.94H489.96V141.69H493.5V146.94ZM493.5 134.69H489.96V129.44H493.5V134.69ZM493.5 122.44H489.96V117.19H493.5V122.44ZM493.5 110.18H489.96V104.93H493.5V110.18ZM493.5 97.9299H489.96V92.6799H493.5V97.9299ZM493.5 85.6799H489.96V80.4299H493.5V85.6799ZM493.5 73.4299H489.96V68.1799H493.5V73.4299Z" fill="#8065E0"/>
<path d="M200.5 230.53C205.49 225.17 214.72 213.47 217.5 199.18L209.01 197.53C206.49 210.49 198 220.59 194.02 224.73C193.69 225.07 196.68 228.38 200.5 230.53Z" fill="url(#paint0_linear)"/>
<path d="M200.5 230.53C205.49 225.17 214.72 213.47 217.5 199.18L209.01 197.53C206.49 210.49 198 220.59 194.02 224.73C193.69 225.07 196.68 228.38 200.5 230.53Z" fill="url(#paint1_linear)"/>
<path d="M194.08 224.67L199.16 229.25L187.16 267.7L169.06 251.43C168.28 250.73 168.27 249.57 169.02 248.85L194.08 224.67Z" fill="#522CD5"/>
<path d="M198.28 264.71C198.66 266.17 197.65 267.42 196.62 268.41L193.46 271.46C192.89 272.01 191.95 272.02 191.37 271.5L184.98 265.74C184.32 265.14 184.3 264.16 184.95 263.54L188.08 260.24C189.27 259.09 189.86 258.21 189.37 256.26C186.49 244.71 188.68 234.53 195.9 226.3L200.55 230.49C197.11 234.96 193.27 245.5 198.28 264.71Z" fill="url(#paint2_linear)"/>
<path d="M191.36 271.5C191.94 272.03 192.88 272.01 193.45 271.46L196.61 268.41C197.29 267.76 197.95 266.99 198.22 266.13L189.43 258.21C189.24 258.97 188.76 259.56 188.06 260.24L184.93 263.54C184.29 264.16 184.3 265.14 184.96 265.74L191.36 271.5Z" fill="url(#paint3_radial)"/>
<path d="M230.75 232.94C231.76 225.62 232.61 210.75 226.64 198.27L218.68 202.72C224.1 214.04 222.93 227.22 222.04 232.96C221.97 233.45 226.35 233.9 230.75 232.94Z" fill="url(#paint4_linear)"/>
<path d="M230.75 232.94C231.76 225.62 232.61 210.75 226.64 198.27L218.68 202.72C224.1 214.04 222.93 227.22 222.04 232.96C221.97 233.45 226.35 233.9 230.75 232.94Z" fill="url(#paint5_linear)"/>
<path d="M222.06 232.89H228.9L241.23 269.49L216.89 269.52C215.84 269.52 215.16 268.67 215.36 267.63L222.06 232.89Z" fill="#522CD5"/>
<path d="M248.68 259.82C249.84 260.65 249.73 262.25 249.45 263.68L248.61 268.06C248.46 268.84 247.69 269.48 246.91 269.48H238.3C237.41 269.48 236.83 268.76 237 267.87L237.67 263.33C237.99 261.68 237.96 260.63 236.43 259.51C227.38 252.86 223.29 243.83 224.5 232.88H230.76C230.51 238.5 233.44 248.9 248.68 259.82Z" fill="url(#paint6_linear)"/>
<path d="M246.9 269.49C247.69 269.49 248.45 268.85 248.6 268.07L249.44 263.69C249.62 262.75 249.72 261.74 249.45 260.92H237.61C237.9 261.61 237.84 262.37 237.65 263.34L236.98 267.88C236.81 268.77 237.39 269.49 238.28 269.49H246.9Z" fill="url(#paint7_radial)"/>
<path d="M216.053 204L225.243 204L225.243 202.8L216.053 202.8L216.053 204Z" fill="#A08BE8"/>
<path d="M216.053 192.469L225.243 192.469L225.243 191.269L216.053 191.269L216.053 192.469Z" fill="#A08BE8"/>
<path d="M396.23 64.11V45.46C396.23 42.59 394.05 40.26 391.36 40.26H214.32C211.63 40.26 209.45 42.59 209.45 45.46V64.11H396.23Z" fill="#84817D"/>
<path d="M376.22 47.95H228.68V54.8699H376.22V47.95Z" fill="#C8C6C4"/>
<path d="M379.53 252.64H286.41C280.47 252.64 275.65 247.82 275.65 241.88V162.36C275.65 156.42 280.47 151.6 286.41 151.6H379.53C385.47 151.6 390.29 156.42 390.29 162.36V241.88C390.3 247.82 385.48 252.64 379.53 252.64Z" fill="#F7B548"/>
<path d="M390.3 151.59H275.66V170.47H390.3V151.59Z" stroke="#C8C6C4" stroke-width="0.1949" stroke-miterlimit="10"/>
<path d="M332.21 200.54C337.678 200.54 342.11 196.108 342.11 190.64C342.11 185.172 337.678 180.74 332.21 180.74C326.742 180.74 322.31 185.172 322.31 190.64C322.31 196.108 326.742 200.54 332.21 200.54Z" fill="#FFD590"/>
<path d="M304.79 200.54C310.258 200.54 314.69 196.108 314.69 190.64C314.69 185.172 310.258 180.74 304.79 180.74C299.322 180.74 294.89 185.172 294.89 190.64C294.89 196.108 299.322 200.54 304.79 200.54Z" fill="#FFD590"/>
<path d="M359.62 200.54C365.088 200.54 369.52 196.108 369.52 190.64C369.52 185.172 365.088 180.74 359.62 180.74C354.152 180.74 349.72 185.172 349.72 190.64C349.72 196.108 354.152 200.54 359.62 200.54Z" fill="#FFD590"/>
<path d="M355.81 219.72H310.12C307.18 219.72 304.79 217.33 304.79 214.39C304.79 211.45 307.18 209.06 310.12 209.06H355.81C358.75 209.06 361.14 211.45 361.14 214.39C361.15 217.33 358.76 219.72 355.81 219.72Z" fill="white"/>
<path d="M275.44 126.6C273.54 133.48 262.29 146.88 251.92 150.78C245.62 153.15 242.35 145.84 248.77 143.42C255.72 140.81 265.87 129.74 267.36 124.36L275.44 126.6Z" fill="#8A6FE8"/>
<path d="M261.09 116.82L263.12 128.36C263.48 130.42 265.44 131.79 267.5 131.43C269.56 131.07 270.93 129.11 270.57 127.05L268.54 115.51C268.18 113.45 266.22 112.08 264.16 112.44C262.1 112.81 260.72 114.77 261.09 116.82Z" fill="#8A6FE8"/>
<path d="M276.7 133.46L283.81 130.07C285.7 129.15 286.48 126.88 285.57 124.99C284.65 123.1 282.38 122.32 280.49 123.23L273.2 126.71L276.7 133.46Z" fill="#8A6FE8"/>
<path d="M277.87 129.36L284.86 121.04C286.2 119.43 285.99 117.03 284.37 115.69C282.76 114.35 280.36 114.56 279.02 116.18L273.81 122.35L277.87 129.36Z" fill="#8A6FE8"/>
<path d="M273.68 127.36L278.6 117.66C279.55 115.79 278.81 113.5 276.94 112.55C275.07 111.6 272.78 112.34 271.83 114.21L266.82 124.09L273.68 127.36Z" fill="#8A6FE8"/>
<path d="M271.29 135.97C275.686 135.97 279.25 132.406 279.25 128.01C279.25 123.614 275.686 120.05 271.29 120.05C266.894 120.05 263.33 123.614 263.33 128.01C263.33 132.406 266.894 135.97 271.29 135.97Z" fill="url(#paint8_radial)"/>
<path d="M261.93 159.82C261.03 147.44 256.04 139.01 256.04 139.01L258.72 138.1L258.77 138.03C247.85 118.46 224.19 108.85 202.21 116.31C177.45 124.72 164.19 151.61 172.6 176.38C181.01 201.15 207.9 214.4 232.67 205.99C252.21 199.35 264.58 181.21 264.81 161.69C264.71 160.89 264.25 159.56 261.93 159.82Z" fill="url(#paint9_radial)"/>
<path d="M261.93 159.82C261.04 147.59 256.16 139.22 256.04 139.02L235.33 145.97C235.33 145.97 232.3 146.67 233.21 149.34C234.12 152.02 236.8 159.54 239.64 167.91C240.22 169.63 261.98 161.57 261.93 159.82Z" fill="url(#paint10_radial)"/>
<path d="M261.92 159.77C261.89 159.3 261.84 158.85 261.8 158.39C261.57 156.09 261.2 153.94 260.77 151.97C259.74 151.93 258.89 152.47 258.14 153.57C257.1 155.09 251.87 163.18 251.87 163.18L261.92 159.77Z" fill="#A08BE8"/>
<path d="M264.78 162.26C264.78 162.26 265.21 159.45 261.93 159.82C261.93 159.81 261.93 159.79 261.93 159.78L241.99 166.47C240.93 166.83 239.34 166.66 238.87 165.67C239.12 166.41 239.38 167.16 239.63 167.91C240.16 169.47 241.6 169.9 242.69 169.69C242.8 169.67 242.91 169.64 243.01 169.61L246.14 168.55L264.78 162.26Z" fill="#512BD4"/>
<path d="M263.8 170.73L186.48 196.98C189.22 199.34 192.21 201.37 195.39 203.04L260.43 180.95C261.93 177.7 263.06 174.27 263.8 170.73Z" fill="#D8CFF7"/>
<path d="M259.08 183.66C261.71 178.78 263.49 173.45 264.29 167.92L254.82 171.13L259.08 183.66Z" fill="#512BD4"/>
<path d="M204.58 113.58L195.9 116.47L194.16 107.15L200.4 105.07L204.58 113.58Z" fill="#8A6FE8"/>
<path d="M209.71 117.93C210.1 117.8 210.3 117.36 210.13 116.98C208.3 113.01 203.74 110.97 199.5 112.38C195.26 113.79 192.83 118.16 193.74 122.43C193.83 122.83 194.25 123.07 194.64 122.94L209.71 117.93Z" fill="url(#paint11_radial)"/>
<path d="M251.054 159.096C253.004 158.483 253.748 155.325 252.716 152.043C251.684 148.76 249.267 146.596 247.318 147.209C245.368 147.822 244.624 150.979 245.656 154.262C246.688 157.544 249.105 159.708 251.054 159.096Z" fill="#512BD4"/>
<path d="M248.1 150.02C247.24 151.73 247.93 153.81 249.64 154.67C250.81 155.26 252.16 155.12 253.16 154.43C253.12 153.66 252.97 152.85 252.71 152.03C252.2 150.42 251.36 149.08 250.41 148.21C249.44 148.43 248.58 149.07 248.1 150.02Z" fill="#8065E0"/>
<path d="M195.86 108.24C199.511 108.24 202.47 105.281 202.47 101.63C202.47 97.9794 199.511 95.02 195.86 95.02C192.209 95.02 189.25 97.9794 189.25 101.63C189.25 105.281 192.209 108.24 195.86 108.24Z" fill="#D8CFF7"/>
<path d="M280.96 160.5L274.4 154.54C267.51 161.55 261.11 167.6 254.05 170.38C239.99 175.92 225.31 165.18 221.44 161.98L214.49 170.07C226.56 177.56 250.42 195.33 280.96 160.5Z" fill="url(#paint12_linear)"/>
<path d="M278.7 152.51L279.31 144.07C279.46 141.82 277.7 139.99 275.38 139.99C273.07 139.99 271.07 141.81 270.92 144.06L270.3 152.72L278.7 152.51Z" fill="#8A6FE8"/>
<path d="M216.34 173.14C221.145 173.14 225.04 169.245 225.04 164.44C225.04 159.635 221.145 155.74 216.34 155.74C211.535 155.74 207.64 159.635 207.64 164.44C207.64 169.245 211.535 173.14 216.34 173.14Z" fill="url(#paint13_radial)"/>
<path d="M322.54 143.34L279.08 155.78C278.02 156.08 276.92 155.46 276.62 154.4L263.47 108.44C263.17 107.38 263.79 106.28 264.85 105.98L308.31 93.54C309.37 93.24 310.47 93.8599 310.77 94.9199L323.92 140.88C324.22 141.94 323.6 143.04 322.54 143.34Z" fill="#28C2D1"/>
<path d="M278.46 165.48L286.79 162.46C289 161.64 290.16 159.31 289.36 157.25C288.57 155.19 286.13 154.19 283.92 155.01L275.38 158.11L278.46 165.48Z" fill="#8A6FE8"/>
<path d="M280.95 156.49L286.17 149.34C287.55 147.43 287.2 144.85 285.39 143.59C283.58 142.33 280.99 142.86 279.61 144.78L274.25 152.12L280.95 156.49Z" fill="#8A6FE8"/>
<path d="M281.67 160.58L288.84 155.38C290.74 153.98 291.2 151.42 289.86 149.67C288.52 147.91 285.9 147.62 284 149.02L276.65 154.36L281.67 160.58Z" fill="#8A6FE8"/>
<path d="M267.6 155.32C269.28 150.84 274.36 148.32 278.94 149.68C283.52 151.04 285.87 155.79 284.18 160.27C282.5 164.75 277.42 167.27 272.84 165.91C268.26 164.54 265.91 159.8 267.6 155.32Z" fill="url(#paint14_radial)"/>
<path d="M307.44 126.32C306.42 124.89 306.75 122.9 308.19 121.87C308.73 121.49 309.34 121.3 309.95 121.28C309.71 120.12 309.35 119.01 308.87 117.96C308.86 117.96 308.86 117.97 308.86 117.97C307.43 118.99 305.44 118.66 304.41 117.22C303.39 115.79 303.72 113.8 305.15 112.78C304.28 111.98 303.33 111.27 302.3 110.67C301.86 111.91 300.69 112.8 299.3 112.8C297.54 112.8 296.11 111.37 296.11 109.61C296.11 109.27 296.17 108.95 296.27 108.64C295.62 108.56 294.97 108.51 294.3 108.51C293.67 108.51 293.04 108.55 292.43 108.62C292.52 108.92 292.58 109.23 292.58 109.56C292.58 111.32 291.15 112.75 289.39 112.75C288 112.75 286.82 111.86 286.38 110.61C285.3 111.23 284.31 111.96 283.41 112.8C283.67 112.99 283.91 113.23 284.11 113.51C285.13 114.94 284.8 116.93 283.36 117.96C282.24 118.76 280.78 118.73 279.7 117.99C279.22 119.08 278.85 120.22 278.62 121.42C279.62 121.41 280.61 121.88 281.24 122.76C282.26 124.19 281.93 126.18 280.49 127.21C279.94 127.61 279.3 127.79 278.67 127.8C278.92 128.97 279.29 130.09 279.78 131.15C279.8 131.14 279.81 131.13 279.82 131.12C281.25 130.1 283.24 130.43 284.27 131.87C285.29 133.3 284.96 135.28 283.54 136.31C284.42 137.11 285.38 137.81 286.42 138.4C286.88 137.21 288.04 136.36 289.39 136.36C291.15 136.36 292.58 137.79 292.58 139.55C292.58 139.84 292.54 140.11 292.47 140.38C293.07 140.45 293.69 140.49 294.31 140.49C294.97 140.49 295.62 140.45 296.26 140.37C296.17 140.08 296.13 139.78 296.13 139.47C296.13 137.71 297.56 136.28 299.32 136.28C300.69 136.28 301.85 137.14 302.3 138.35C303.34 137.75 304.31 137.03 305.18 136.22C304.96 136.04 304.75 135.83 304.58 135.59C303.56 134.16 303.89 132.17 305.33 131.14C306.42 130.36 307.83 130.37 308.89 131.05C309.37 129.98 309.74 128.86 309.97 127.68C308.99 127.63 308.05 127.17 307.44 126.32ZM294.31 132.8C289.72 132.8 286 129.08 286 124.49C286 119.9 289.72 116.18 294.31 116.18C298.9 116.18 302.62 119.9 302.62 124.49C302.62 129.08 298.9 132.8 294.31 132.8Z" fill="white"/>
<path d="M179.92 70.4L150.82 65.8H150.81H150.8L121.7 70.4C121.7 70.4 121.24 86.85 123.85 100.74C128.01 122.92 150.2 131.63 150.81 131.84H150.82H150.83C151.44 131.62 173.82 122.96 177.79 100.74C180.6 84.9 179.92 70.4 179.92 70.4Z" fill="#8065E0"/>
<path d="M176.14 73.53L150.82 69.48H150.81H150.8L125.48 73.53C125.48 73.53 125.08 88.03 127.35 100.28C130.97 119.84 150.28 127.51 150.81 127.7C150.81 127.7 150.81 127.7 150.82 127.7H150.83C151.36 127.51 170.84 119.87 174.29 100.28C176.73 86.32 176.14 73.53 176.14 73.53Z" fill="#BBACEF"/>
<path d="M143.43 89.51V84.62C143.43 80.99 146.39 78.03 150.02 78.03H151.56C155.19 78.03 158.15 80.99 158.15 84.62V89.51H161.38V84.62C161.38 79.21 156.98 74.8 151.56 74.8H150.02C144.61 74.8 140.2 79.2 140.2 84.62V89.51H143.43Z" fill="#8065E0"/>
<path d="M161.27 111.83H139.96C137.52 111.83 135.55 109.85 135.55 107.42V93.0599C135.55 90.6199 137.53 88.6499 139.96 88.6499H161.27C163.71 88.6499 165.68 90.6299 165.68 93.0599V107.42C165.68 109.86 163.71 111.83 161.27 111.83Z" fill="#8065E0"/>
<path d="M162.08 100.28L162.07 98.5501C157.78 98.5801 151.56 98.6001 149.48 98.5801C149.08 96.1901 147 94.3601 144.49 94.3601C141.7 94.3601 139.43 96.6301 139.43 99.4201C139.43 102.21 141.7 104.48 144.49 104.48C146.98 104.48 149.05 102.67 149.47 100.3C150.19 100.31 151.31 100.32 152.84 100.32C153.53 100.32 154.31 100.32 155.16 100.32V102.65H156.89V100.32C157.41 100.32 157.97 100.32 158.54 100.31V103.7H160.27V100.3C160.86 100.29 161.45 100.29 162.08 100.28ZM144.49 102.74C142.66 102.74 141.16 101.25 141.16 99.4101C141.16 97.5801 142.65 96.0801 144.49 96.0801C146.32 96.0801 147.82 97.5701 147.82 99.4101C147.81 101.25 146.32 102.74 144.49 102.74Z" fill="white"/>
<path d="M441.18 81.79L440.84 85.38L455.91 86.8L380.45 144.79L382.65 147.65L458.11 89.65L455.6 104.58L459.16 105.18L462.75 83.82L441.18 81.79Z" fill="#8065E0"/>
<defs>
<linearGradient id="paint0_linear" x1="215.471" y1="197.751" x2="197.417" y2="228.486" gradientUnits="userSpaceOnUse">
<stop stop-color="#522CD5"/>
<stop offset="0.4397" stop-color="#8A6FE8"/>
</linearGradient>
<linearGradient id="paint1_linear" x1="215.471" y1="197.751" x2="197.417" y2="228.486" gradientUnits="userSpaceOnUse">
<stop stop-color="#522CD5"/>
<stop offset="0.4397" stop-color="#8A6FE8"/>
</linearGradient>
<linearGradient id="paint2_linear" x1="200.63" y1="227.249" x2="190.451" y2="271.336" gradientUnits="userSpaceOnUse">
<stop stop-color="#522CD5"/>
<stop offset="0.4397" stop-color="#8A6FE8"/>
</linearGradient>
<radialGradient id="paint3_radial" cx="0" cy="0" r="1" gradientUnits="userSpaceOnUse" gradientTransform="translate(198.535 256.679) rotate(42.029) scale(13.9484)">
<stop offset="0.034" stop-color="#522CD5"/>
<stop offset="0.9955" stop-color="#8A6FE8"/>
</radialGradient>
<linearGradient id="paint4_linear" x1="223.888" y1="198.637" x2="230.719" y2="232.765" gradientUnits="userSpaceOnUse">
<stop stop-color="#522CD5"/>
<stop offset="0.4397" stop-color="#8A6FE8"/>
</linearGradient>
<linearGradient id="paint5_linear" x1="223.888" y1="198.637" x2="230.719" y2="232.765" gradientUnits="userSpaceOnUse">
<stop stop-color="#522CD5"/>
<stop offset="0.4397" stop-color="#8A6FE8"/>
</linearGradient>
<linearGradient id="paint6_linear" x1="228.887" y1="230.608" x2="248.707" y2="268.756" gradientUnits="userSpaceOnUse">
<stop stop-color="#522CD5"/>
<stop offset="0.4397" stop-color="#8A6FE8"/>
</linearGradient>
<radialGradient id="paint7_radial" cx="0" cy="0" r="1" gradientUnits="userSpaceOnUse" gradientTransform="translate(244.349 253.58) scale(13.9485)">
<stop offset="0.034" stop-color="#522CD5"/>
<stop offset="0.9955" stop-color="#8A6FE8"/>
</radialGradient>
<radialGradient id="paint8_radial" cx="0" cy="0" r="1" gradientUnits="userSpaceOnUse" gradientTransform="translate(264.871 129.26) rotate(-107.56) scale(26.6929)">
<stop stop-color="#8065E0"/>
<stop offset="0.8628" stop-color="#512BD4"/>
</radialGradient>
<radialGradient id="paint9_radial" cx="0" cy="0" r="1" gradientUnits="userSpaceOnUse" gradientTransform="translate(208.465 137.906) rotate(-29.1181) scale(40.3164)">
<stop offset="0.4744" stop-color="#A08BE8"/>
<stop offset="0.8618" stop-color="#8065E0"/>
</radialGradient>
<radialGradient id="paint10_radial" cx="0" cy="0" r="1" gradientUnits="userSpaceOnUse" gradientTransform="translate(246.789 150.506) rotate(-29.1181) scale(30.9728)">
<stop offset="0.2022" stop-color="#E1DFDD"/>
<stop offset="0.7337" stop-color="white"/>
</radialGradient>
<radialGradient id="paint11_radial" cx="0" cy="0" r="1" gradientUnits="userSpaceOnUse" gradientTransform="translate(200.607 117.342) rotate(-29.1181) scale(6.98015)">
<stop stop-color="#8065E0"/>
<stop offset="0.8628" stop-color="#512BD4"/>
</radialGradient>
<linearGradient id="paint12_linear" x1="220.484" y1="147.065" x2="273.403" y2="180.331" gradientUnits="userSpaceOnUse">
<stop offset="0.3344" stop-color="#9780E6"/>
<stop offset="0.8488" stop-color="#8A6FE8"/>
</linearGradient>
<radialGradient id="paint13_radial" cx="0" cy="0" r="1" gradientUnits="userSpaceOnUse" gradientTransform="translate(215.535 160.853) rotate(-18.9223) scale(12.9149)">
<stop stop-color="#8065E0"/>
<stop offset="0.8628" stop-color="#512BD4"/>
</radialGradient>
<radialGradient id="paint14_radial" cx="0" cy="0" r="1" gradientUnits="userSpaceOnUse" gradientTransform="translate(273.385 153.686) rotate(152.889) scale(15.0937 14.0863)">
<stop stop-color="#8065E0"/>
<stop offset="0.8628" stop-color="#512BD4"/>
</radialGradient>
</defs>
</svg>
