<svg width="636" height="300" viewBox="0 0 636 300" fill="none" xmlns="http://www.w3.org/2000/svg">
<path d="M438.32 46.1901L182.59 64.9001C180.4 65.0601 178.71 66.7101 178.71 68.7001V246.11C178.71 248.16 180.51 249.85 182.78 249.92L437.43 265.03C439.81 265.11 441.8 263.39 441.81 261.24L442.89 50.0201C442.9 47.7801 440.79 46.0101 438.32 46.1901Z" fill="#C8C6C4"/>
<path d="M396.55 156.34L289.64 157.1C279.37 157.17 271.01 148.87 271.01 138.6C271.01 128.59 278.98 120.39 288.99 120.11L395.9 117.09C406.32 116.8 414.92 125.16 414.92 135.58V137.85C414.92 148.01 406.72 156.27 396.55 156.34Z" fill="#F7B548"/>
<path d="M289.51 159.12C284.06 159.12 278.93 157.01 275.05 153.16C271.14 149.28 268.99 144.1 268.99 138.59C268.99 127.4 277.75 118.39 288.94 118.07L395.85 115.05C401.47 114.89 406.73 116.95 410.74 120.85C414.75 124.75 416.96 129.98 416.96 135.57V137.84C416.96 149.08 407.82 158.29 396.58 158.37L289.67 159.13C289.61 159.12 289.56 159.12 289.51 159.12ZM396.44 119.1C396.28 119.1 396.12 119.1 395.96 119.11L289.05 122.13C280.08 122.38 273.05 129.61 273.05 138.59C273.05 143.01 274.78 147.16 277.91 150.28C281.05 153.4 285.13 155.13 289.63 155.06L396.54 154.3C405.56 154.24 412.89 146.85 412.89 137.83V135.56C412.89 131.07 411.12 126.88 407.9 123.75C404.8 120.75 400.74 119.1 396.44 119.1Z" fill="white"/>
<path d="M178.7 82.56V62.61C178.7 60.62 180.39 58.97 182.58 58.81L438.32 38.08C440.79 37.9 442.9 39.67 442.89 41.9L442.8 66.37L178.7 82.56Z" fill="#605D5A"/>
<path d="M252.58 87.4899L160.66 92.9699C159.01 93.0699 157.73 94.4299 157.73 96.0799V151.76C157.73 153.5 159.15 154.9 160.89 154.88L253.04 153.52C254.75 153.49 256.12 152.1 256.11 150.39L255.89 90.5899C255.88 88.7999 254.37 87.3799 252.58 87.4899Z" fill="#72ACF1"/>
<path d="M195.68 133.81L175.44 125.63V123.57L195.68 112.77V115.91L179.21 124.3L195.68 130.63V133.81Z" fill="white"/>
<path d="M213.3 107.5L201.82 138.69L198.32 138.81L209.8 107.62L213.3 107.5Z" fill="white"/>
<path d="M215.94 129.92L232.43 122.48L215.94 115.2V112.06L236.18 121.44V123.5L215.94 133.1V129.92Z" fill="white"/>
<path d="M533.78 88.44L478.6 79.72H478.59H478.58L423.4 88.43C423.4 88.43 422.53 119.62 427.47 145.96C435.36 188.02 477.43 204.52 478.58 204.93C478.58 204.93 478.59 204.94 478.59 204.93H478.6C479.75 204.52 522.2 188.09 529.71 145.96C535.06 115.95 533.78 88.44 533.78 88.44Z" fill="#8065E0"/>
<path d="M526.62 94.38L478.6 86.7H478.59H478.58L430.57 94.38C430.57 94.38 429.81 121.88 434.11 145.1C440.97 182.19 477.59 196.74 478.58 197.1C478.58 197.1 478.59 197.11 478.59 197.1H478.6C479.6 196.74 516.54 182.25 523.07 145.1C527.74 118.63 526.62 94.38 526.62 94.38Z" fill="#BBACEF"/>
<path d="M464.59 124.68V115.41C464.59 108.52 470.19 102.92 477.08 102.92H480C486.89 102.92 492.49 108.52 492.49 115.41V124.68H498.62V115.41C498.62 105.15 490.27 96.79 480 96.79H477.08C466.82 96.79 458.46 105.14 458.46 115.41V124.68H464.59Z" fill="#8065E0"/>
<path d="M491.75 167H464.68C456.38 167 449.64 160.27 449.64 151.96V138.08C449.64 129.78 456.37 123.04 464.68 123.04H491.75C500.05 123.04 506.79 129.77 506.79 138.08V151.96C506.78 160.27 500.05 167 491.75 167Z" fill="#8065E0"/>
<path d="M499.95 145.1L499.93 141.81C491.8 141.86 480.01 141.91 476.05 141.86C475.29 137.33 471.34 133.86 466.6 133.86C461.31 133.86 457 138.17 457 143.46C457 148.75 461.31 153.06 466.6 153.06C471.32 153.06 475.24 149.63 476.04 145.14C477.41 145.16 479.52 145.17 482.43 145.17C483.74 145.17 485.22 145.17 486.83 145.16V149.57H490.12V145.15C491.11 145.15 492.17 145.14 493.26 145.14V151.56H496.55V145.12C497.63 145.12 498.76 145.11 499.95 145.1ZM466.6 149.77C463.12 149.77 460.29 146.94 460.29 143.46C460.29 139.98 463.12 137.15 466.6 137.15C470.08 137.15 472.91 139.98 472.91 143.46C472.9 146.94 470.07 149.77 466.6 149.77Z" fill="white"/>
<path d="M218.23 161.79L76.2 162.8C74.93 162.81 73.9 163.84 73.9 165.12V219.22C73.9 220.47 74.89 221.49 76.13 221.53L217.96 226.61C219.27 226.66 220.35 225.61 220.36 224.3L220.56 164.11C220.56 162.83 219.52 161.79 218.23 161.79Z" fill="#84817D"/>
<path d="M121 173.3H87.63C86.79 173.3 86.11 172.62 86.11 171.78C86.11 170.94 86.79 170.26 87.63 170.26H121C121.84 170.26 122.52 170.94 122.52 171.78C122.52 172.62 121.84 173.3 121 173.3Z" fill="white"/>
<path d="M181.83 181.69C181.82 181.69 181.82 181.69 181.81 181.69L158.1 181.37C157.26 181.36 156.59 180.67 156.6 179.83C156.61 178.99 157.32 178.35 158.14 178.33L181.85 178.65C182.69 178.66 183.36 179.35 183.35 180.19C183.34 181.03 182.66 181.69 181.83 181.69Z" fill="white"/>
<path d="M152.53 181.63L117.19 181.55C116.35 181.55 115.67 180.87 115.67 180.02C115.67 179.18 116.35 178.5 117.19 178.5L152.53 178.58C153.37 178.58 154.05 179.26 154.05 180.11C154.05 180.95 153.37 181.63 152.53 181.63Z" fill="#F7B548"/>
<path d="M111.72 181.5H97.55C96.71 181.5 96.03 180.82 96.03 179.98C96.03 179.14 96.71 178.46 97.55 178.46H111.72C112.56 178.46 113.24 179.14 113.24 179.98C113.24 180.82 112.56 181.5 111.72 181.5Z" fill="#BBACEF"/>
<path d="M174.78 190.66C174.77 190.66 174.77 190.66 174.76 190.66L127.6 190.02C126.76 190.01 126.09 189.32 126.1 188.48C126.11 187.64 126.8 186.98 127.64 186.98L174.8 187.62C175.64 187.63 176.31 188.32 176.3 189.16C176.29 189.99 175.61 190.66 174.78 190.66Z" fill="white"/>
<path d="M121.64 189.77C121.64 189.77 121.63 189.77 121.64 189.77L97.44 189.61C96.6 189.6 95.92 188.92 95.93 188.08C95.94 187.24 96.62 186.57 97.45 186.57H97.46L121.65 186.73C122.49 186.74 123.17 187.42 123.16 188.26C123.15 189.09 122.47 189.77 121.64 189.77Z" fill="#BBACEF"/>
<path d="M181.45 199.14C181.44 199.14 181.43 199.14 181.42 199.14L148.81 198.54C147.97 198.52 147.3 197.83 147.32 196.99C147.34 196.15 148.09 195.48 148.87 195.5L181.48 196.1C182.32 196.12 182.99 196.81 182.97 197.65C182.96 198.48 182.28 199.14 181.45 199.14Z" fill="white"/>
<path d="M143.38 198.49C143.37 198.49 143.36 198.49 143.36 198.49L122.89 198.15C122.05 198.14 121.38 197.44 121.39 196.6C121.4 195.76 122.06 195.08 122.94 195.1L143.41 195.44C144.25 195.45 144.92 196.15 144.91 196.99C144.89 197.83 144.21 198.49 143.38 198.49Z" fill="#BBACEF"/>
<path d="M117.7 198.06C117.69 198.06 117.68 198.06 117.67 198.06L97.42 197.72C96.58 197.71 95.91 197.01 95.92 196.17C95.93 195.33 96.61 194.68 97.47 194.67L117.72 195.01C118.56 195.02 119.23 195.72 119.22 196.56C119.21 197.39 118.53 198.06 117.7 198.06Z" fill="white"/>
<path d="M178.4 207.63C178.39 207.63 178.38 207.63 178.36 207.63L131.51 206.55C130.67 206.53 130 205.83 130.02 204.99C130.04 204.15 130.73 203.49 131.58 203.5L178.43 204.58C179.27 204.6 179.94 205.3 179.92 206.14C179.9 206.97 179.23 207.63 178.4 207.63Z" fill="white"/>
<path d="M125.84 206.44C125.83 206.44 125.82 206.44 125.8 206.44L110.76 206.1C109.92 206.08 109.25 205.38 109.27 204.54C109.29 203.7 110 203.03 110.83 203.05L125.87 203.39C126.71 203.41 127.38 204.11 127.36 204.95C127.34 205.78 126.66 206.44 125.84 206.44Z" fill="#BBACEF"/>
<path d="M167.34 216.02C167.33 216.02 167.31 216.02 167.3 216.02L141.81 215.33C140.97 215.31 140.31 214.61 140.33 213.77C140.35 212.93 140.97 212.26 141.89 212.29L167.38 212.98C168.22 213 168.88 213.7 168.86 214.54C168.84 215.36 168.16 216.02 167.34 216.02Z" fill="white"/>
<path d="M136.51 215.19C136.5 215.19 136.48 215.19 136.47 215.19L110.85 214.49C110.01 214.47 109.35 213.77 109.37 212.93C109.39 212.09 110.06 211.42 110.93 211.45L136.55 212.15C137.39 212.17 138.05 212.87 138.03 213.71C138.01 214.54 137.33 215.19 136.51 215.19Z" fill="#F7B548"/>
<path d="M298.99 130.06L298.42 135.17L303.59 133.64L304.05 137.13L299.33 137.55L302.42 141.62L299.27 143.35L297.11 139.05L295.21 143.4L291.94 141.81L295.01 137.64L290.32 137.36L290.86 133.88L295.92 135.23L295.35 130.14L298.99 130.06Z" fill="white"/>
<path d="M321.84 129.66L321.27 134.77L326.44 133.24L326.9 136.73L322.18 137.15L325.27 141.22L322.12 142.95L319.96 138.65L318.06 143L314.79 141.41L317.86 137.24L313.17 136.96L313.71 133.48L318.77 134.83L318.2 129.74L321.84 129.66Z" fill="white"/>
<path d="M344.7 129.26L344.13 134.37L349.3 132.84L349.76 136.33L345.04 136.75L348.13 140.82L344.98 142.55L342.82 138.25L340.92 142.6L337.65 141.01L340.72 136.84L336.03 136.56L336.57 133.08L341.63 134.43L341.06 129.34L344.7 129.26Z" fill="white"/>
<path d="M367.56 128.86L366.99 133.97L372.16 132.44L372.62 135.93L367.9 136.35L370.99 140.42L367.84 142.15L365.68 137.85L363.78 142.2L360.51 140.61L363.58 136.44L358.89 136.16L359.43 132.68L364.49 134.03L363.92 128.94L367.56 128.86Z" fill="white"/>
<path d="M390.41 128.46L389.84 133.57L395.01 132.04L395.47 135.53L390.75 135.95L393.84 140.02L390.69 141.75L388.53 137.45L386.63 141.8L383.36 140.21L386.43 136.04L381.74 135.76L382.28 132.28L387.34 133.63L386.77 128.54L390.41 128.46Z" fill="white"/>
<path d="M276.65 180.89C275.38 181 274.11 181.19 272.84 181.47C271.1 181.86 269.45 182.39 267.89 183.05L269.1 188.79C267.51 189.59 266.06 190.58 264.77 191.7L258.55 189.58C256.53 191.78 254.92 194.28 253.81 196.98L258.91 200.66C258.35 202.5 258.08 204.44 258.14 206.41C256.55 206.99 253.9 207.91 252.2 208.49C252.33 209.64 252.54 210.8 252.85 211.95C253.28 213.54 253.86 215.06 254.58 216.5L260.88 215.59C261.84 217.17 263.01 218.6 264.37 219.86L262 225.43C264.43 227.3 267.2 228.77 270.18 229.78L274.39 225.12C276.1 225.52 277.87 225.72 279.68 225.71L282 231.23C283.33 231.12 284.67 230.92 286 230.63C287.82 230.23 289.55 229.66 291.19 228.96L289.91 223.24C291.55 222.39 293.04 221.36 294.35 220.18L300.25 222.6C302.39 220.29 304.07 217.63 305.19 214.76C303.55 213.73 301.24 212.27 299.95 211.42C300.45 209.74 300.72 207.99 300.72 206.2L306.71 204.28C306.59 202.92 306.36 201.54 305.99 200.17C305.54 198.48 304.91 196.86 304.13 195.34L298 196.59C297 194.92 295.75 193.42 294.31 192.11L296.97 186.79C294.63 184.97 291.97 183.52 289.12 182.5L285.4 187.24C283.35 186.67 281.19 186.38 278.98 186.41L276.65 180.89ZM291.13 203.45C292.73 209.43 288.78 215.45 282.32 216.88C275.85 218.32 269.31 214.63 267.71 208.65C266.11 202.67 270.06 196.65 276.52 195.22C282.99 193.78 289.53 197.47 291.13 203.45Z" fill="white"/>
<path d="M313.96 173.51C313.37 173.6 312.79 173.73 312.21 173.91C311.42 174.15 310.66 174.45 309.96 174.81L310.71 177.44C309.99 177.87 309.35 178.37 308.79 178.94L305.83 178.16C304.96 179.25 304.29 180.47 303.87 181.76L306.36 183.31C306.16 184.19 306.1 185.09 306.19 186.01C305.47 186.33 304.26 186.85 303.49 187.17C303.59 187.7 303.72 188.23 303.91 188.76C304.16 189.49 304.48 190.18 304.86 190.82L307.76 190.19C308.26 190.89 308.85 191.52 309.52 192.06L308.6 194.73C309.79 195.52 311.13 196.12 312.55 196.49L314.36 194.19C315.17 194.32 316 194.36 316.84 194.29L318.1 196.78C318.72 196.69 319.33 196.55 319.94 196.37C320.77 196.12 321.56 195.8 322.3 195.42L321.52 192.8C322.26 192.35 322.92 191.82 323.49 191.23L326.31 192.16C327.23 191.01 327.93 189.72 328.36 188.35C327.56 187.92 326.44 187.32 325.81 186.96C325.99 186.16 326.06 185.34 326 184.51L328.73 183.42C328.63 182.79 328.48 182.16 328.26 181.53C327.99 180.76 327.65 180.03 327.24 179.35L324.43 180.13C323.91 179.39 323.28 178.73 322.57 178.17L323.64 175.61C322.49 174.84 321.21 174.25 319.85 173.87L318.28 176.2C317.31 176 316.29 175.94 315.27 176.02L313.96 173.51ZM321.42 183.54C322.36 186.27 320.72 189.2 317.76 190.08C314.8 190.96 311.64 189.45 310.7 186.72C309.76 183.99 311.4 181.06 314.36 180.18C317.32 179.31 320.48 180.81 321.42 183.54Z" fill="white"/>
</svg>
