<svg width="636" height="300" viewBox="0 0 636 300" fill="none" xmlns="http://www.w3.org/2000/svg">
<path d="M471.84 233.7H198.97C194.61 233.7 191.07 230.15 191.07 225.8V36.7501C191.07 32.3901 194.62 28.8501 198.97 28.8501H471.84C476.2 28.8501 479.74 32.4001 479.74 36.7501V225.79C479.75 230.15 476.2 233.7 471.84 233.7Z" fill="#88DDE5"/>
<path d="M337.64 28.8401H198.97C194.61 28.8401 191.07 32.3901 191.07 36.7401V225.78C191.07 230.14 194.62 233.68 198.97 233.68H337.64V28.8401Z" fill="#28C2D1"/>
<path d="M324.61 95.5101H204.31V47.6501H324.61V95.5101ZM206.41 93.4101H322.52V49.7501H206.41V93.4101Z" fill="#CFECE9"/>
<path d="M228.86 116.69C226.75 124.32 214.28 139.18 202.78 143.5C195.8 146.13 192.17 138.02 199.29 135.34C207 132.44 218.25 120.17 219.9 114.21L228.86 116.69Z" fill="#8A6FE8"/>
<path d="M212.94 105.84L215.19 118.64C215.59 120.92 217.76 122.44 220.04 122.04C222.32 121.64 223.84 119.47 223.44 117.19L221.19 104.39C220.79 102.11 218.62 100.59 216.34 100.99C214.07 101.38 212.54 103.56 212.94 105.84Z" fill="#8A6FE8"/>
<path d="M230.26 124.29L238.14 120.53C240.23 119.51 241.11 116.99 240.09 114.9C239.07 112.81 236.55 111.93 234.46 112.95L226.38 116.81L230.26 124.29Z" fill="#8A6FE8"/>
<path d="M231.56 119.75L239.31 110.52C240.8 108.73 240.56 106.07 238.77 104.58C236.98 103.09 234.32 103.33 232.83 105.12L227.05 111.96L231.56 119.75Z" fill="#8A6FE8"/>
<path d="M226.91 117.52L232.37 106.77C233.43 104.7 232.6 102.16 230.53 101.1C228.46 100.04 225.92 100.87 224.86 102.94L219.3 113.89L226.91 117.52Z" fill="#8A6FE8"/>
<path d="M224.26 127.06C229.131 127.06 233.08 123.111 233.08 118.24C233.08 113.369 229.131 109.42 224.26 109.42C219.389 109.42 215.44 113.369 215.44 118.24C215.44 123.111 219.389 127.06 224.26 127.06Z" fill="url(#paint0_radial)"/>
<path d="M348.88 105.21L228.55 136.18C225.37 137 222.13 135.08 221.31 131.9L215.92 110.96C215.1 107.78 217.02 104.54 220.2 103.72L340.53 72.7501C343.71 71.9301 346.95 73.8501 347.77 77.0301L353.16 97.9701C353.98 101.15 352.07 104.39 348.88 105.21Z" fill="white"/>
<path d="M244.93 97.3501L220.19 103.72C217.01 104.54 215.09 107.78 215.91 110.96L221.3 131.9C222.12 135.08 225.36 137 228.54 136.18L253.28 129.81L244.93 97.3501Z" fill="#F7B548"/>
<path d="M227.93 108.89C227.52 109.16 227.13 109.46 226.76 109.8C226.25 110.26 225.79 110.75 225.38 111.28L226.83 113.15C226.44 113.73 226.13 114.36 225.91 115L223.43 115.36C223.15 116.53 223.07 117.73 223.19 118.92L225.58 119.33C225.73 120.1 225.99 120.86 226.37 121.57C225.94 122.07 225.22 122.89 224.75 123.41C225 123.81 225.29 124.19 225.6 124.55C226.03 125.05 226.51 125.5 227.01 125.89L228.96 124.41C229.57 124.81 230.23 125.12 230.91 125.33L231.13 127.79C232.29 128.03 233.49 128.06 234.67 127.89L235.23 125.42C235.88 125.25 236.51 125 237.12 124.67L238.91 126.26C239.34 125.98 239.75 125.66 240.14 125.31C240.68 124.83 241.16 124.31 241.58 123.75L240.1 121.9C240.5 121.29 240.81 120.65 241.03 119.97L243.45 119.78C243.75 118.55 243.83 117.27 243.68 116.02C242.94 115.94 241.9 115.83 241.31 115.76C241.17 115.06 240.94 114.37 240.61 113.72L242.27 111.93C241.98 111.45 241.65 111 241.28 110.56C240.82 110.03 240.31 109.55 239.77 109.14L237.94 110.71C237.3 110.29 236.6 109.96 235.88 109.75L235.8 107.32C234.68 107.08 233.52 107.04 232.37 107.19L231.99 109.6C231.2 109.77 230.42 110.05 229.68 110.47L227.93 108.89ZM236.92 114.48C238.55 116.37 238.33 119.28 236.42 120.98C234.51 122.68 231.64 122.53 230.01 120.64C228.38 118.75 228.6 115.84 230.51 114.14C232.42 112.43 235.29 112.59 236.92 114.48Z" fill="white"/>
<path d="M264.62 119.7C270.137 119.7 274.61 115.228 274.61 109.71C274.61 104.193 270.137 99.7202 264.62 99.7202C259.103 99.7202 254.63 104.193 254.63 109.71C254.63 115.228 259.103 119.7 264.62 119.7Z" fill="#C4C1BE"/>
<path d="M264.08 102.88L264.86 108.25L269.75 105.43L270.71 107.75L265.77 109.46L270.16 112.93L268.2 114.76L264.64 110.57L263.76 115.9L261.11 115.26L263.2 110.12L258.11 110.99L257.87 108.48L263.42 108.62L261.51 103.54L264.08 102.88Z" fill="white"/>
<path d="M287.21 109.63L285.35 110.11L283.43 102.65C283.2 101.76 283.04 101.05 282.95 100.52C282.86 100.68 282.75 100.86 282.61 101.05C282.47 101.25 282.01 101.88 281.21 102.96L279.98 102.02L282.69 98.4801L284.24 98.0801L287.21 109.63Z" fill="#84817D"/>
<path d="M307.22 104.48L299.39 106.49L299.03 105.08L301.24 101.32C301.89 100.19 302.31 99.4001 302.5 98.9501C302.69 98.5001 302.81 98.0901 302.85 97.7301C302.9 97.3601 302.87 96.9901 302.77 96.6101C302.64 96.0901 302.37 95.7201 301.98 95.5001C301.59 95.2801 301.12 95.2401 300.57 95.3801C300.13 95.4901 299.72 95.6901 299.35 95.9501C298.98 96.2201 298.58 96.6401 298.14 97.2001L296.82 96.2301C297.32 95.5201 297.85 94.9801 298.4 94.6001C298.95 94.2201 299.56 93.9401 300.25 93.7601C301.32 93.4801 302.26 93.5401 303.05 93.9401C303.84 94.3301 304.36 95.0101 304.6 95.9501C304.73 96.4701 304.77 96.9901 304.7 97.5101C304.63 98.0301 304.47 98.5801 304.21 99.1801C303.95 99.7801 303.48 100.62 302.8 101.69L301.29 104.15L301.31 104.23L306.79 102.82L307.22 104.48Z" fill="#84817D"/>
<path d="M322.13 91.1501C322.32 91.8801 322.26 92.5501 321.96 93.1401C321.66 93.7401 321.14 94.2201 320.41 94.5901L320.43 94.6501C321.39 94.5301 322.16 94.6401 322.74 94.9801C323.32 95.3201 323.71 95.8701 323.91 96.6401C324.2 97.7501 324.02 98.7101 323.39 99.5101C322.76 100.31 321.72 100.9 320.27 101.28C318.99 101.61 317.86 101.68 316.87 101.49L316.45 99.8401C317 99.9601 317.57 100.01 318.15 100C318.73 99.9901 319.27 99.9201 319.78 99.7901C320.67 99.5601 321.3 99.2201 321.66 98.7801C322.02 98.3301 322.11 97.7601 321.93 97.0701C321.77 96.4501 321.41 96.0601 320.85 95.9001C320.29 95.7401 319.48 95.7901 318.43 96.0601L317.43 96.3201L317.04 94.8101L318.06 94.5501C319.9 94.0801 320.66 93.2001 320.33 91.9301C320.2 91.4401 319.94 91.0901 319.55 90.9101C319.16 90.7201 318.65 90.7101 318.02 90.8701C317.58 90.9801 317.18 91.1501 316.8 91.3801C316.43 91.6101 316.01 91.9701 315.55 92.4701L314.31 91.4101C315.17 90.3601 316.3 89.6501 317.7 89.2901C318.86 88.9901 319.84 89.0101 320.62 89.3401C321.4 89.6701 321.91 90.2801 322.13 91.1501Z" fill="#84817D"/>
<path d="M342.26 92.7701L340.7 93.1701L341.35 95.6901L339.54 96.1601L338.89 93.6401L333.62 95.0001L333.25 93.5701L336.56 84.5801L338.37 84.1101L340.3 91.6301L341.86 91.2301L342.26 92.7701ZM338.5 92.1001L337.75 89.2001C337.48 88.1701 337.29 87.3201 337.18 86.6401L337.12 86.6601C337.06 87.0501 336.94 87.5301 336.75 88.1001L334.96 93.0101L338.5 92.1001Z" fill="#84817D"/>
<path d="M365.27 220.1H244.95C243.26 220.1 241.89 218.73 241.89 217.04V149.98C241.89 148.29 243.26 146.92 244.95 146.92H365.27C366.96 146.92 368.33 148.29 368.33 149.98V217.04C368.34 218.73 366.96 220.1 365.27 220.1Z" fill="#F7B548"/>
<path d="M266.77 175.74C261.7 175.74 257.57 171.61 257.57 166.54C257.57 161.47 261.7 157.34 266.77 157.34C271.84 157.34 275.97 161.47 275.97 166.54C275.97 171.61 271.84 175.74 266.77 175.74ZM266.77 159.4C262.83 159.4 259.63 162.6 259.63 166.54C259.63 170.48 262.83 173.68 266.77 173.68C270.71 173.68 273.91 170.48 273.91 166.54C273.91 162.6 270.7 159.4 266.77 159.4Z" fill="#84817D"/>
<path d="M266.77 170.44C268.924 170.44 270.67 168.694 270.67 166.54C270.67 164.386 268.924 162.64 266.77 162.64C264.616 162.64 262.87 164.386 262.87 166.54C262.87 168.694 264.616 170.44 266.77 170.44Z" fill="#84817D"/>
<path d="M340.44 164.45H282.25V168.57H340.44V164.45Z" fill="white"/>
<path d="M266.77 206.63C261.7 206.63 257.57 202.5 257.57 197.43C257.57 192.36 261.7 188.23 266.77 188.23C271.84 188.23 275.97 192.36 275.97 197.43C275.97 202.5 271.84 206.63 266.77 206.63ZM266.77 190.29C262.83 190.29 259.63 193.49 259.63 197.43C259.63 201.37 262.83 204.57 266.77 204.57C270.71 204.57 273.91 201.37 273.91 197.43C273.91 193.49 270.7 190.29 266.77 190.29Z" fill="#84817D"/>
<path d="M340.44 195.35H282.25V199.47H340.44V195.35Z" fill="white"/>
<path d="M142.78 221.52C148.31 215.57 158.54 202.6 161.63 186.75L152.22 184.92C149.42 199.3 140.01 210.49 135.6 215.09C135.23 215.46 138.54 219.13 142.78 221.52Z" fill="url(#paint1_linear)"/>
<path d="M142.78 221.52C148.31 215.57 158.54 202.6 161.63 186.75L152.22 184.92C149.42 199.3 140.01 210.49 135.6 215.09C135.23 215.46 138.54 219.13 142.78 221.52Z" fill="url(#paint2_linear)"/>
<path d="M135.66 215.02L141.3 220.1L127.99 262.74L107.92 244.7C107.06 243.92 107.04 242.64 107.88 241.83L135.66 215.02Z" fill="#522CD5"/>
<path d="M140.31 259.42C140.73 261.04 139.61 262.42 138.47 263.53L134.96 266.91C134.33 267.51 133.29 267.53 132.64 266.95L125.55 260.56C124.82 259.9 124.8 258.81 125.51 258.12L128.98 254.46C130.3 253.19 130.95 252.21 130.41 250.05C127.22 237.24 129.65 225.95 137.66 216.83L142.82 221.48C139.02 226.42 134.76 238.12 140.31 259.42Z" fill="url(#paint3_linear)"/>
<path d="M132.65 266.95C133.3 267.53 134.34 267.52 134.97 266.91L138.48 263.53C139.23 262.81 139.96 261.96 140.26 261.01L130.51 252.22C130.3 253.07 129.77 253.72 128.99 254.47L125.52 258.13C124.81 258.82 124.83 259.91 125.56 260.57L132.65 266.95Z" fill="url(#paint4_radial)"/>
<path d="M176.32 224.19C177.44 216.07 178.39 199.58 171.77 185.74L162.95 190.68C168.96 203.23 167.67 217.84 166.68 224.22C166.59 224.75 171.45 225.25 176.32 224.19Z" fill="url(#paint5_linear)"/>
<path d="M176.32 224.19C177.44 216.07 178.39 199.58 171.77 185.74L162.95 190.68C168.96 203.23 167.67 217.84 166.68 224.22C166.59 224.75 171.45 225.25 176.32 224.19Z" fill="url(#paint6_linear)"/>
<path d="M166.69 224.13H174.28L187.96 264.71L160.96 264.75C159.8 264.75 159.04 263.81 159.27 262.65L166.69 224.13Z" fill="#522CD5"/>
<path d="M196.21 254C197.5 254.92 197.37 256.7 197.06 258.29L196.12 263.15C195.95 264.02 195.1 264.73 194.23 264.73H184.68C183.69 264.73 183.05 263.93 183.24 262.94L183.99 257.9C184.34 256.07 184.31 254.91 182.62 253.66C172.58 246.28 168.05 236.27 169.39 224.13H176.33C176.06 230.35 179.31 241.89 196.21 254Z" fill="url(#paint7_linear)"/>
<path d="M194.24 264.72C195.11 264.72 195.96 264.01 196.13 263.14L197.07 258.28C197.27 257.24 197.39 256.12 197.08 255.21H183.95C184.27 255.98 184.2 256.82 184 257.9L183.25 262.94C183.06 263.93 183.71 264.73 184.69 264.73H194.24V264.72Z" fill="url(#paint8_radial)"/>
<path d="M160.022 192.102L170.212 192.102L170.212 190.772L160.022 190.772L160.022 192.102Z" fill="#A08BE8"/>
<path d="M160.022 179.307L170.212 179.307L170.212 177.977L160.022 177.977L160.022 179.307Z" fill="#A08BE8"/>
<path d="M210.9 143.11C209.9 129.38 204.36 120.03 204.36 120.03L207.33 119.02L207.38 118.94C195.27 97.2402 169.04 86.5802 144.66 94.8602C117.2 104.18 102.49 134.01 111.82 161.47C121.15 188.93 150.97 203.64 178.43 194.31C200.1 186.95 213.82 166.83 214.07 145.18C213.99 144.28 213.47 142.82 210.9 143.11Z" fill="url(#paint9_radial)"/>
<path d="M210.9 143.11C209.92 129.55 204.5 120.27 204.37 120.04L181.4 127.75C181.4 127.75 178.04 128.52 179.05 131.49C180.06 134.46 183.03 142.81 186.18 152.08C186.82 153.99 210.95 145.05 210.9 143.11Z" fill="url(#paint10_radial)"/>
<path d="M210.89 143.05C210.85 142.53 210.8 142.02 210.76 141.52C210.5 138.97 210.1 136.59 209.61 134.4C208.46 134.36 207.53 134.96 206.69 136.18C205.54 137.87 199.74 146.84 199.74 146.84L210.89 143.05Z" fill="#A08BE8"/>
<path d="M214.07 145.81C214.07 145.81 214.55 142.69 210.9 143.1C210.9 143.09 210.9 143.07 210.9 143.06L188.79 150.47C187.61 150.87 185.85 150.68 185.33 149.58C185.61 150.4 185.89 151.23 186.18 152.07C186.77 153.8 188.36 154.28 189.57 154.04C189.69 154.01 189.81 153.99 189.93 153.95L193.4 152.77L214.07 145.81Z" fill="#512BD4"/>
<path d="M212.97 155.2L127.22 184.31C130.26 186.93 133.57 189.18 137.1 191.03L209.23 166.54C210.9 162.93 212.16 159.13 212.97 155.2Z" fill="#D8CFF7"/>
<path d="M207.74 169.54C210.66 164.13 212.63 158.22 213.52 152.08L203.02 155.65L207.74 169.54Z" fill="#512BD4"/>
<path d="M147.31 91.8301L137.68 95.0301L135.75 84.6901L142.66 82.3901L147.31 91.8301Z" fill="#8A6FE8"/>
<path d="M153 96.65C153.43 96.51 153.66 96.01 153.47 95.6C151.44 91.2 146.39 88.93 141.68 90.49C136.97 92.05 134.28 96.9 135.29 101.64C135.39 102.09 135.86 102.35 136.29 102.2L153 96.65Z" fill="url(#paint11_radial)"/>
<path d="M198.835 142.293C201.001 141.613 201.828 138.11 200.684 134.469C199.539 130.828 196.856 128.428 194.691 129.109C192.525 129.79 191.698 133.293 192.842 136.934C193.987 140.575 196.67 142.974 198.835 142.293Z" fill="#512BD4"/>
<path d="M195.56 132.24C194.61 134.14 195.37 136.44 197.27 137.4C198.57 138.05 200.06 137.9 201.18 137.13C201.13 136.28 200.97 135.38 200.68 134.46C200.12 132.68 199.19 131.19 198.13 130.22C197.06 130.47 196.1 131.18 195.56 132.24Z" fill="#8065E0"/>
<path d="M137.64 85.91C141.688 85.91 144.97 82.6282 144.97 78.58C144.97 74.5318 141.688 71.25 137.64 71.25C133.592 71.25 130.31 74.5318 130.31 78.58C130.31 82.6282 133.592 85.91 137.64 85.91Z" fill="#D8CFF7"/>
<path d="M232.01 143.85L224.74 137.24C217.1 145.02 210 151.72 202.17 154.8C186.57 160.94 170.3 149.03 166.01 145.49L158.3 154.47C171.68 162.78 198.13 182.48 232.01 143.85Z" fill="url(#paint12_linear)"/>
<path d="M229.49 135L230.16 125.64C230.32 123.15 228.37 121.12 225.81 121.12C223.24 121.12 221.03 123.14 220.87 125.63L220.18 135.23L229.49 135Z" fill="#8A6FE8"/>
<path d="M160.34 157.87C165.664 157.87 169.98 153.554 169.98 148.23C169.98 142.906 165.664 138.59 160.34 138.59C155.016 138.59 150.7 142.906 150.7 148.23C150.7 153.554 155.016 157.87 160.34 157.87Z" fill="url(#paint13_radial)"/>
<path d="M229.23 149.38L238.47 146.03C240.93 145.12 242.2 142.53 241.33 140.25C240.45 137.97 237.75 136.85 235.29 137.76L225.82 141.19L229.23 149.38Z" fill="#8A6FE8"/>
<path d="M231.99 139.41L237.78 131.48C239.31 129.36 238.92 126.5 236.91 125.1C234.9 123.7 232.03 124.29 230.5 126.41L224.56 134.54L231.99 139.41Z" fill="#8A6FE8"/>
<path d="M232.79 143.95L240.74 138.18C242.85 136.63 243.36 133.79 241.87 131.85C240.39 129.9 237.48 129.58 235.37 131.13L227.22 137.05L232.79 143.95Z" fill="#8A6FE8"/>
<path d="M217.19 138.11C219.06 133.14 224.69 130.34 229.76 131.86C234.83 133.38 237.44 138.64 235.57 143.6C233.7 148.57 228.07 151.37 223 149.85C217.92 148.34 215.32 143.08 217.19 138.11Z" fill="url(#paint14_radial)"/>
<path d="M439.58 183.27C437.69 180.62 438.31 176.93 440.96 175.04C441.95 174.33 443.09 173.98 444.22 173.96C443.78 171.81 443.11 169.76 442.23 167.81C442.22 167.82 442.21 167.83 442.2 167.83C439.55 169.72 435.86 169.1 433.97 166.45C432.08 163.8 432.7 160.12 435.35 158.23C433.75 156.74 431.98 155.44 430.08 154.33C429.27 156.62 427.09 158.27 424.52 158.27C421.26 158.27 418.62 155.63 418.62 152.37C418.62 151.74 418.72 151.14 418.91 150.57C417.71 150.42 416.5 150.34 415.26 150.34C414.09 150.34 412.93 150.42 411.8 150.55C411.97 151.1 412.07 151.68 412.07 152.29C412.07 155.55 409.43 158.19 406.17 158.19C403.59 158.19 401.41 156.54 400.61 154.24C398.62 155.38 396.77 156.74 395.11 158.3C395.6 158.66 396.04 159.09 396.41 159.62C398.3 162.27 397.68 165.96 395.03 167.85C392.95 169.33 390.25 169.27 388.26 167.9C387.36 169.91 386.68 172.03 386.25 174.25C388.11 174.24 389.94 175.1 391.1 176.72C392.99 179.37 392.37 183.06 389.72 184.95C388.69 185.68 387.51 186.03 386.34 186.04C386.8 188.2 387.49 190.27 388.39 192.23C388.42 192.21 388.44 192.19 388.47 192.17C391.12 190.28 394.81 190.9 396.7 193.55C398.59 196.19 397.98 199.86 395.34 201.76C396.96 203.24 398.75 204.53 400.67 205.63C401.52 203.42 403.66 201.85 406.17 201.85C409.43 201.85 412.07 204.49 412.07 207.75C412.07 208.28 411.99 208.79 411.86 209.28C412.98 209.41 414.11 209.48 415.26 209.48C416.48 209.48 417.68 209.4 418.87 209.25C418.71 208.72 418.62 208.16 418.62 207.58C418.62 204.32 421.26 201.68 424.52 201.68C427.05 201.68 429.2 203.28 430.04 205.51C431.97 204.4 433.76 203.07 435.37 201.57C434.96 201.24 434.58 200.85 434.26 200.4C432.37 197.75 432.99 194.06 435.64 192.17C437.65 190.73 440.26 190.75 442.23 192C443.11 190.03 443.79 187.94 444.23 185.77C442.45 185.69 440.7 184.84 439.58 183.27ZM415.27 195.27C406.78 195.27 399.89 188.38 399.89 179.89C399.89 171.4 406.78 164.51 415.27 164.51C423.76 164.51 430.65 171.4 430.65 179.89C430.65 188.39 423.76 195.27 415.27 195.27Z" fill="white"/>
<path d="M506.05 84.77L456.91 77H456.9H456.89L407.75 84.76C407.75 84.76 406.97 112.53 411.37 135.99C418.39 173.45 455.86 188.14 456.88 188.5C456.88 188.5 456.89 188.51 456.89 188.5H456.9C457.92 188.14 495.72 173.5 502.41 135.99C507.19 109.26 506.05 84.77 506.05 84.77Z" fill="#8065E0"/>
<path d="M499.67 90.06L456.91 83.22H456.9H456.89L414.13 90.06C414.13 90.06 413.45 114.55 417.28 135.23C423.39 168.26 455.99 181.21 456.88 181.53H456.89H456.9C457.79 181.21 490.68 168.31 496.5 135.23C500.67 111.65 499.67 90.06 499.67 90.06Z" fill="#BBACEF"/>
<path d="M444.44 117.03V108.77C444.44 102.64 449.43 97.6499 455.56 97.6499H458.16C464.29 97.6499 469.28 102.64 469.28 108.77V117.03H474.73V108.77C474.73 99.6299 467.29 92.1899 458.15 92.1899H455.55C446.41 92.1899 438.97 99.6299 438.97 108.77V117.03H444.44Z" fill="#8065E0"/>
<path d="M468.29 154.73H444.86C437.28 154.73 431.13 148.58 431.13 141V129.31C431.13 121.73 437.28 115.58 444.86 115.58H468.29C475.87 115.58 482.02 121.73 482.02 129.31V141C482.01 148.58 475.87 154.73 468.29 154.73Z" fill="#8065E0"/>
<path d="M475.92 135.22L475.9 132.29C468.66 132.33 458.16 132.38 454.64 132.33C453.96 128.29 450.45 125.21 446.22 125.21C441.51 125.21 437.67 129.04 437.67 133.76C437.67 138.47 441.5 142.31 446.22 142.31C450.42 142.31 453.92 139.26 454.63 135.26C455.85 135.28 457.73 135.29 460.32 135.29C461.48 135.29 462.8 135.29 464.24 135.28V139.21H467.17V135.27C468.06 135.27 468.99 135.26 469.96 135.26V140.98H472.89V135.24C473.86 135.23 474.87 135.23 475.92 135.22ZM446.22 139.38C443.12 139.38 440.6 136.86 440.6 133.76C440.6 130.66 443.12 128.14 446.22 128.14C449.32 128.14 451.84 130.66 451.84 133.76C451.84 136.86 449.32 139.38 446.22 139.38Z" fill="white"/>
<path d="M444.3 58.2601H312.62C311.74 58.2601 311.02 57.5401 311.02 56.6601V39.9801C311.02 39.1001 311.74 38.3801 312.62 38.3801H444.3C445.18 38.3801 445.9 39.1001 445.9 39.9801V56.6601C445.9 57.5401 445.18 58.2601 444.3 58.2601Z" fill="white"/>
<path d="M314.41 43.5101C314.41 42.5501 315.19 41.7701 316.15 41.7701H445.9V40.1201C445.9 39.1601 445.12 38.3801 444.16 38.3801H312.76C311.8 38.3801 311.02 39.1601 311.02 40.1201V56.5201C311.02 57.4801 311.8 58.2601 312.76 58.2601H314.41V43.5101Z" fill="#797672"/>
<path d="M444.16 38.3801H423.5V58.2601H444.16C445.12 58.2601 445.9 57.4801 445.9 56.5201V40.1201C445.9 39.1601 445.12 38.3801 444.16 38.3801Z" fill="#3E8EED"/>
<path d="M441.24 53.6901L437.85 50.3001C438.52 49.4201 438.94 48.3301 438.94 47.1401C438.94 44.2501 436.59 41.9001 433.7 41.9001C430.81 41.9001 428.46 44.2501 428.46 47.1401C428.46 50.0301 430.81 52.3801 433.7 52.3801C434.78 52.3801 435.79 52.0501 436.62 51.4901L440.03 54.9001L441.24 53.6901ZM430.17 47.1401C430.17 45.1901 431.76 43.6001 433.71 43.6001C435.66 43.6001 437.25 45.1901 437.25 47.1401C437.25 49.0901 435.66 50.6801 433.71 50.6801C431.75 50.6801 430.17 49.1001 430.17 47.1401Z" fill="white"/>
<defs>
<radialGradient id="paint0_radial" cx="0" cy="0" r="1" gradientUnits="userSpaceOnUse" gradientTransform="translate(217.207 119.704) rotate(-107.56) scale(29.6007)">
<stop stop-color="#8065E0"/>
<stop offset="0.8628" stop-color="#512BD4"/>
</radialGradient>
<linearGradient id="paint1_linear" x1="159.423" y1="185.146" x2="139.401" y2="219.228" gradientUnits="userSpaceOnUse">
<stop stop-color="#522CD5"/>
<stop offset="0.4397" stop-color="#8A6FE8"/>
</linearGradient>
<linearGradient id="paint2_linear" x1="159.423" y1="185.146" x2="139.401" y2="219.228" gradientUnits="userSpaceOnUse">
<stop stop-color="#522CD5"/>
<stop offset="0.4397" stop-color="#8A6FE8"/>
</linearGradient>
<linearGradient id="paint3_linear" x1="142.934" y1="217.871" x2="131.646" y2="266.76" gradientUnits="userSpaceOnUse">
<stop stop-color="#522CD5"/>
<stop offset="0.4397" stop-color="#8A6FE8"/>
</linearGradient>
<radialGradient id="paint4_radial" cx="0" cy="0" r="1" gradientUnits="userSpaceOnUse" gradientTransform="translate(140.556 250.539) rotate(42.029) scale(15.4679)">
<stop offset="0.034" stop-color="#522CD5"/>
<stop offset="0.9955" stop-color="#8A6FE8"/>
</radialGradient>
<linearGradient id="paint5_linear" x1="168.661" y1="186.096" x2="176.236" y2="223.942" gradientUnits="userSpaceOnUse">
<stop stop-color="#522CD5"/>
<stop offset="0.4397" stop-color="#8A6FE8"/>
</linearGradient>
<linearGradient id="paint6_linear" x1="168.661" y1="186.096" x2="176.236" y2="223.942" gradientUnits="userSpaceOnUse">
<stop stop-color="#522CD5"/>
<stop offset="0.4397" stop-color="#8A6FE8"/>
</linearGradient>
<linearGradient id="paint7_linear" x1="174.259" y1="221.602" x2="196.238" y2="263.906" gradientUnits="userSpaceOnUse">
<stop stop-color="#522CD5"/>
<stop offset="0.4397" stop-color="#8A6FE8"/>
</linearGradient>
<radialGradient id="paint8_radial" cx="0" cy="0" r="1" gradientUnits="userSpaceOnUse" gradientTransform="translate(191.406 247.077) scale(15.468)">
<stop offset="0.034" stop-color="#522CD5"/>
<stop offset="0.9955" stop-color="#8A6FE8"/>
</radialGradient>
<radialGradient id="paint9_radial" cx="0" cy="0" r="1" gradientUnits="userSpaceOnUse" gradientTransform="translate(151.647 118.784) rotate(-29.118) scale(44.7083)">
<stop offset="0.4744" stop-color="#A08BE8"/>
<stop offset="0.8618" stop-color="#8065E0"/>
</radialGradient>
<radialGradient id="paint10_radial" cx="0" cy="0" r="1" gradientUnits="userSpaceOnUse" gradientTransform="translate(194.145 132.757) rotate(-29.1181) scale(34.3468)">
<stop offset="0.2022" stop-color="#E1DFDD"/>
<stop offset="0.7337" stop-color="white"/>
</radialGradient>
<radialGradient id="paint11_radial" cx="0" cy="0" r="1" gradientUnits="userSpaceOnUse" gradientTransform="translate(142.932 95.9803) rotate(-29.118) scale(7.74053)">
<stop stop-color="#8065E0"/>
<stop offset="0.8628" stop-color="#512BD4"/>
</radialGradient>
<linearGradient id="paint12_linear" x1="165.06" y1="128.824" x2="223.745" y2="165.713" gradientUnits="userSpaceOnUse">
<stop offset="0.3344" stop-color="#9780E6"/>
<stop offset="0.8488" stop-color="#8A6FE8"/>
</linearGradient>
<radialGradient id="paint13_radial" cx="0" cy="0" r="1" gradientUnits="userSpaceOnUse" gradientTransform="translate(159.412 144.245) rotate(-18.9223) scale(14.3218)">
<stop stop-color="#8065E0"/>
<stop offset="0.8628" stop-color="#512BD4"/>
</radialGradient>
<radialGradient id="paint14_radial" cx="0" cy="0" r="1" gradientUnits="userSpaceOnUse" gradientTransform="translate(223.776 136.323) rotate(152.889) scale(16.7379 15.6208)">
<stop stop-color="#8065E0"/>
<stop offset="0.8628" stop-color="#512BD4"/>
</radialGradient>
</defs>
</svg>
