<svg width="636" height="300" viewBox="0 0 636 300" fill="none" xmlns="http://www.w3.org/2000/svg">
<path d="M586.81 212.28C584.96 187.85 565.14 169.44 542.54 171.16C541.96 171.2 541.39 171.27 540.83 171.34C536.63 152.44 521.08 138.61 502.96 138C490.91 74.97 437.05 29.55 376.29 34.16C353.79 35.87 333.26 44.22 316.21 57.32C312.64 54.9 304.4 51.06 295.76 53.03C286.9 55.05 282.08 59.87 278.36 65.46C266.39 56.6 244.96 55.19 231.38 58.05C199.89 64.68 178.29 88.97 172.57 128.42C170.17 128.2 167.73 128.18 165.26 128.37C143.47 130.02 126.37 147.41 122.63 169.53C121.27 169.52 119.9 169.55 118.52 169.66C99.8601 171.08 84.1601 182.47 75.5001 198.67C73.0401 203.43 71.3101 208.03 70.1801 212.45C70.0401 213 69.9201 213.56 69.7901 214.12C69.7001 214.52 69.6101 214.92 69.5301 215.31C69.3901 215.99 69.2701 216.67 69.1601 217.35C69.1001 217.72 69.0401 218.1 68.9801 218.47C68.9001 218.98 68.8301 219.5 68.7701 220.02C66.2101 241.89 77.5301 258.35 83.4801 265.37C167.86 255.51 347.63 237.45 584.83 229.96C586.96 224.57 587.28 218.47 586.81 212.28Z" fill="url(#paint0_radial)"/>
<path d="M238.35 102.32L160.38 99.5799C158.59 99.5199 157.16 98.0599 157.19 96.3299L157.96 43.6499C157.99 41.9199 159.45 40.6199 161.24 40.7399L239 45.9699C240.63 46.0799 241.94 47.4999 241.92 49.1499L241.35 99.4299C241.32 101.09 239.98 102.38 238.35 102.32Z" fill="#B3AFAB"/>
<path d="M240.85 102.41L161.04 99.5999C159.83 99.5599 158.85 98.5699 158.87 97.3899L159.67 42.7599C159.69 41.5899 160.68 40.6999 161.9 40.7799L241.49 46.1299C242.6 46.1999 243.48 47.1699 243.47 48.2899L242.88 100.44C242.87 101.57 241.96 102.45 240.85 102.41Z" fill="#625F5B"/>
<path d="M238.34 96.9299L163.93 94.0799C163.49 94.0599 163.15 93.7099 163.15 93.2799L163.85 45.1199C163.86 44.6999 164.21 44.3799 164.65 44.4099L238.89 49.2599C239.29 49.2899 239.61 49.6299 239.61 50.0399L239.08 96.2199C239.07 96.6299 238.74 96.9499 238.34 96.9299Z" fill="#AACDF6"/>
<path d="M265.58 107.33C265.59 106.64 265.58 105.9 265.58 105.66C265.58 105.47 242.23 104.22 242.23 104.22L159.71 99.1899L159.69 100.65C159.69 100.65 159.7 101.41 160.52 101.73C161.34 102.05 183.38 105.14 183.38 105.14C184.78 105.43 186.27 105.67 187.51 105.71L264.95 107.96C265.46 107.99 265.59 107.75 265.58 107.33Z" fill="#9C9894"/>
<path d="M265.14 105.83L187.87 103.4C186.63 103.36 185.07 103.11 183.2 102.82L159.67 99.1299L242.26 102.05L265.28 105.33C265.77 105.52 265.67 105.84 265.14 105.83Z" fill="#CCCAC7"/>
<path d="M190.29 59.2297C189.55 59.3797 188.81 59.5897 188.07 59.8497C187.07 60.1997 186.13 60.6397 185.26 61.1497L186.51 64.5697C185.63 65.1697 184.85 65.8797 184.19 66.6497L180.26 65.7897C179.25 67.2797 178.51 68.9297 178.1 70.6697L181.52 72.5597C181.36 73.7297 181.38 74.9397 181.59 76.1397C180.69 76.6197 179.17 77.3697 178.21 77.8597C178.4 78.5597 178.63 79.2497 178.93 79.9397C179.34 80.8897 179.83 81.7697 180.4 82.5997L184.1 81.5597C184.82 82.4497 185.66 83.2397 186.58 83.8997L185.68 87.4897C187.31 88.4397 189.1 89.1297 190.96 89.5097L193.03 86.3497C194.08 86.4597 195.15 86.4497 196.22 86.2997L198.1 89.4797C198.87 89.3097 199.65 89.0897 200.4 88.7997C201.44 88.4097 202.4 87.9397 203.3 87.3897L202.02 84.0197C202.91 83.3797 203.69 82.6497 204.35 81.8297L208.02 82.8497C209.06 81.2897 209.8 79.5697 210.19 77.7497C209.14 77.2497 207.66 76.5397 206.83 76.1197C206.97 75.0697 206.97 73.9897 206.8 72.9097L210.12 71.3197C209.93 70.5097 209.67 69.6897 209.33 68.8897C208.91 67.8997 208.4 66.9697 207.81 66.1097L204.34 67.2897C203.6 66.3497 202.73 65.5297 201.77 64.8297L202.85 61.4197C201.31 60.4797 199.61 59.7697 197.83 59.3497L196.07 62.4897C194.8 62.2797 193.49 62.2597 192.19 62.4297L190.29 59.2297ZM200.93 71.9397C202.42 75.4497 200.65 79.3897 196.97 80.7397C193.27 82.0997 189.04 80.3397 187.53 76.8097C186.02 73.2697 187.82 69.3097 191.54 67.9797C195.24 66.6497 199.44 68.4197 200.93 71.9397Z" fill="white"/>
<path d="M214.01 52.8298C213.61 52.9098 213.21 53.0198 212.82 53.1598C212.28 53.3498 211.78 53.5898 211.31 53.8698L211.99 55.7398C211.52 56.0698 211.1 56.4498 210.74 56.8698L208.63 56.3898C208.09 57.1998 207.69 58.0998 207.47 59.0398L209.3 60.0798C209.21 60.7198 209.22 61.3698 209.34 62.0298C208.86 62.2898 208.04 62.6898 207.53 62.9498C207.63 63.3298 207.76 63.7098 207.92 64.0898C208.14 64.6098 208.4 65.0898 208.71 65.5498L210.7 64.9998C211.09 65.4898 211.54 65.9198 212.04 66.2898L211.56 68.2398C212.44 68.7698 213.4 69.1498 214.41 69.3698L215.53 67.6498C216.1 67.7198 216.68 67.7198 217.25 67.6398L218.27 69.3898C218.69 69.2998 219.11 69.1798 219.52 69.0298C220.08 68.8198 220.61 68.5698 221.09 68.2698L220.4 66.4198C220.88 66.0798 221.3 65.6798 221.66 65.2298L223.66 65.8098C224.23 64.9598 224.63 64.0198 224.84 63.0198C224.27 62.7398 223.46 62.3398 223.01 62.1098C223.09 61.5298 223.08 60.9398 222.99 60.3498L224.8 59.4898C224.7 59.0398 224.55 58.5898 224.37 58.1498C224.14 57.5998 223.86 57.0898 223.54 56.6198L221.65 57.2598C221.25 56.7398 220.78 56.2898 220.25 55.9098L220.83 54.0398C219.99 53.5198 219.07 53.1298 218.11 52.8898L217.16 54.5998C216.47 54.4798 215.77 54.4698 215.06 54.5598L214.01 52.8298ZM219.77 59.8198C220.58 61.7498 219.62 63.8998 217.63 64.6198C215.63 65.3398 213.35 64.3598 212.53 62.4298C211.71 60.4898 212.68 58.3398 214.69 57.6198C216.68 56.8998 218.96 57.8898 219.77 59.8198Z" fill="#84817D"/>
<path d="M535.58 111.61C535.71 124.88 525.53 135.82 512.5 136.05C499.06 136.28 487.76 125.1 487.64 111.07C487.52 97.0501 498.61 86.1301 512.04 86.6701C525.07 87.1801 535.45 98.3401 535.58 111.61Z" fill="#84817D"/>
<path d="M524.15 105.4C524.08 98.5201 518.66 92.7701 511.95 92.5501C505.13 92.3201 499.57 97.8701 499.63 104.95C499.66 107.76 500.58 110.35 502.09 112.48H502.08C507.36 119.39 507.65 125.06 507.65 125.06L510.33 125.05L514.18 125.03L516.82 125.02C516.82 125.02 516.77 119.71 521.75 112.98H521.73C523.27 110.88 524.18 108.26 524.15 105.4Z" fill="#F7B548"/>
<path d="M521.1 103.5C520.98 103.27 520.71 103.18 520.49 103.3C519.43 103.88 518.03 104.31 516.44 104.59L516.64 102.85C516.67 102.59 516.49 102.35 516.24 102.31C515.99 102.27 515.76 102.45 515.73 102.71L515.49 104.73C514.38 104.87 513.2 104.94 512 104.92C510.95 104.9 509.93 104.81 508.95 104.67L508.66 102.56C508.62 102.3 508.39 102.11 508.14 102.14C507.89 102.17 507.71 102.4 507.74 102.66L507.99 104.51C506.33 104.2 504.84 103.73 503.65 103.12C503.42 103 503.14 103.09 503.02 103.33C502.91 103.57 503.01 103.85 503.24 103.97C504.57 104.66 506.26 105.17 508.12 105.49L510.94 126.26C510.97 126.5 511.17 126.67 511.4 126.67C511.42 126.67 511.44 126.67 511.46 126.67C511.71 126.63 511.89 126.4 511.85 126.14L509.07 105.64C510.02 105.77 511 105.85 512 105.86C513.17 105.88 514.3 105.82 515.37 105.69L513 126.13C512.97 126.39 513.15 126.63 513.4 126.66C513.42 126.66 513.44 126.66 513.46 126.66C513.69 126.66 513.88 126.48 513.91 126.24L516.32 105.56C518.11 105.27 519.7 104.79 520.92 104.12C521.14 104.01 521.22 103.73 521.1 103.5Z" fill="white"/>
<path d="M516.81 124.99L507.64 125.03L507.71 132.13L509.33 132.1L510.04 133.46L514.57 133.39L515.25 132.03L516.88 132.01L516.81 124.99Z" fill="#B3AFAB"/>
<path d="M516.828 129.378L507.658 129.474L507.665 130.074L516.834 129.978L516.828 129.378Z" fill="#E6E6E6"/>
<path d="M516.84 127.64L507.67 127.71L507.66 127.1L516.84 127.04V127.64Z" fill="#E6E6E6"/>
<path d="M523.9 162.56L486.33 163.73C483.9 163.81 481.93 165.76 481.93 168.09L481.89 190.98C481.89 193.32 483.85 195.44 486.28 195.34L498.44 194.54L498.43 202.33L507.22 194.18L523.9 193.05C526.27 192.95 528.19 191.01 528.19 188.71L528.18 166.59C528.19 164.29 526.27 162.48 523.9 162.56Z" fill="#E86E58"/>
<path d="M516.51 169.87C512.18 164.34 505.14 169.49 504.5 171.87C503.86 169.53 496.92 164.9 492.41 170.67C484.85 180.34 504.23 190.37 504.48 190.47V190.48H504.49H504.5C504.5 190.48 504.5 190.48 504.5 190.47C504.75 190.34 523.78 179.16 516.51 169.87Z" fill="#FDC9B5"/>
<path d="M491.21 148.67L451.58 149.41C449.11 149.48 447.09 151.44 447.09 153.79L447.18 178.93C447.17 181.29 449.18 183.12 451.65 183.03L469.93 182.37L477.87 189.05L477.88 182.08L491.17 181.46C493.59 181.37 495.55 179.42 495.55 177.09L495.57 152.74C495.58 150.44 493.63 148.61 491.21 148.67Z" fill="white"/>
<path d="M460.72 166.2C460.72 167.62 459.51 168.81 458.02 168.86C456.53 168.91 455.32 167.79 455.32 166.37C455.32 164.95 456.54 163.76 458.03 163.71C459.52 163.66 460.72 164.78 460.72 166.2Z" fill="#F7B548"/>
<path d="M470.11 165.9C470.11 167.32 468.9 168.5 467.42 168.55C465.94 168.6 464.74 167.49 464.74 166.07C464.74 164.65 465.95 163.47 467.43 163.42C468.92 163.37 470.11 164.48 470.11 165.9Z" fill="#F7B548"/>
<path d="M479.45 165.6C479.45 167.01 478.25 168.19 476.78 168.24C475.3 168.29 474.11 167.18 474.11 165.77C474.11 164.36 475.31 163.17 476.79 163.13C478.26 163.09 479.45 164.19 479.45 165.6Z" fill="#F7B548"/>
<path d="M313.38 218.88L325.18 219.47L392.88 222.88V224.4C392.89 224.76 392.64 225.14 392.17 225.15L334.29 226.96C334.21 226.96 334.12 226.95 334.04 226.93L313.91 221.2C313.52 221.09 313.36 220.78 313.38 220.48H313.37L313.38 218.88Z" fill="#625F5B"/>
<path d="M334.28 225.35L392.15 223.6C392.96 223.58 393.15 222.46 392.38 222.23L373.76 216.66C373.68 216.64 373.61 216.63 373.53 216.63L314.16 218.12C313.26 218.14 313.05 219.32 313.91 219.56L334.04 225.31C334.12 225.34 334.2 225.35 334.28 225.35Z" fill="#84817D"/>
<path d="M349.86 195.01L341.98 221.08L338.6 220.26L346.22 195.05L349.86 195.01Z" fill="#625F5B"/>
<path d="M341.93 221.08L366.83 220.4L374.29 194.75L349.65 195.01L341.93 221.08Z" fill="#797672"/>
<path d="M432.58 199.66L279.46 201.86C277.7 201.89 276.28 200.61 276.28 199.01L276.54 97.7C276.54 96.1 277.97 94.8901 279.73 94.9801L432.64 103.07C434.07 103.15 435.23 104.37 435.23 105.81L435.19 197.02C435.17 198.46 434.01 199.64 432.58 199.66Z" fill="#B3AFAB"/>
<path d="M434.62 199.63L281.96 201.82C280.21 201.85 278.79 200.57 278.79 198.97L279.04 97.8201C279.04 96.2301 280.47 95.0101 282.22 95.1001L434.67 103.17C436.1 103.25 437.25 104.47 437.25 105.9L437.21 196.98C437.21 198.43 436.05 199.61 434.62 199.63Z" fill="#625F5B"/>
<path d="M431.18 121.61L431.19 111.76C431.19 110.32 430.03 109.1 428.59 109.03L289.59 102.27C287.86 102.19 286.45 103.4 286.44 104.99L286.41 115.83L431.18 121.61Z" fill="#666666"/>
<path d="M403.75 115.79L319.51 112.16L319.52 108.6L403.75 112.43V115.79Z" fill="#908D89"/>
<path d="M296.74 109.44C296.74 110.54 295.73 111.4 294.49 111.34C293.25 111.29 292.24 110.35 292.24 109.24C292.24 108.13 293.25 107.28 294.49 107.34C295.74 107.4 296.74 108.34 296.74 109.44Z" fill="#908D89"/>
<path d="M305.21 109.82C305.21 110.92 304.21 111.77 302.99 111.71C301.76 111.66 300.77 110.72 300.77 109.62C300.77 108.52 301.77 107.67 303 107.73C304.22 107.79 305.21 108.72 305.21 109.82Z" fill="#908D89"/>
<path d="M313.59 110.19C313.59 111.28 312.6 112.13 311.39 112.07C310.17 112.02 309.19 111.09 309.19 109.99C309.19 108.89 310.18 108.05 311.4 108.11C312.61 108.17 313.59 109.1 313.59 110.19Z" fill="#908D89"/>
<path d="M286.41 115.82L286.23 192.08C286.23 193.67 287.63 194.94 289.37 194.93L428.54 193.53C429.98 193.52 431.15 192.33 431.15 190.89L431.19 121.61L286.41 115.82Z" fill="#29C3E5"/>
<path d="M286.41 115.82L286.23 192.08C286.23 193.67 287.63 194.94 289.37 194.93L324.46 194.58L324.61 117.35L286.41 115.82Z" fill="#1FB1D1"/>
<path d="M348.28 129.06L333.07 128.56C332.18 128.53 331.46 127.83 331.46 126.99C331.46 126.15 332.18 125.5 333.07 125.53L348.28 126.06C349.15 126.09 349.85 126.78 349.85 127.61C349.85 128.44 349.15 129.09 348.28 129.06Z" fill="#F8B84F"/>
<path d="M395.57 137.5L366.52 136.68C365.67 136.66 364.98 135.97 364.98 135.16C364.98 134.34 365.67 133.7 366.52 133.73L395.57 134.61C396.39 134.63 397.05 135.3 397.05 136.1C397.05 136.9 396.38 137.53 395.57 137.5Z" fill="#EEEDEC"/>
<path d="M358.31 136.45L342.63 136.01C341.75 135.99 341.04 135.29 341.04 134.46C341.04 133.63 341.75 132.98 342.63 133L358.31 133.47C359.17 133.5 359.86 134.18 359.86 135C359.87 135.83 359.17 136.48 358.31 136.45Z" fill="white"/>
<path d="M411.44 144.77L379.92 144.03C379.08 144.01 378.41 143.34 378.41 142.53C378.41 141.72 379.09 141.08 379.92 141.1L411.44 141.9C412.24 141.92 412.89 142.58 412.89 143.37C412.88 144.16 412.23 144.79 411.44 144.77Z" fill="#EEEDEC"/>
<path d="M371.43 143.83L352.09 143.37C351.22 143.35 350.52 142.66 350.52 141.84C350.52 141.01 351.23 140.36 352.09 140.39L371.42 140.88C372.26 140.9 372.95 141.58 372.94 142.39C372.93 143.2 372.27 143.85 371.43 143.83Z" fill="#908D89"/>
<path d="M417.32 151.7L395.35 151.29C394.53 151.27 393.87 150.61 393.87 149.81C393.87 149.01 394.54 148.37 395.35 148.39L417.32 148.85C418.11 148.87 418.75 149.52 418.75 150.31C418.76 151.08 418.11 151.71 417.32 151.7Z" fill="#908D89"/>
<path d="M387.25 151.13L352.08 150.47C351.21 150.45 350.51 149.77 350.51 148.95C350.51 148.12 351.22 147.47 352.08 147.49L387.24 148.22C388.07 148.24 388.73 148.9 388.73 149.71C388.74 150.51 388.07 151.15 387.25 151.13Z" fill="#179BB8"/>
<path d="M383.68 158.05C382.85 158.04 382.18 157.37 382.18 156.56C382.18 155.75 382.85 155.11 383.69 155.12L410.7 155.52C411.5 155.53 412.15 156.19 412.15 156.98C412.15 157.77 411.5 158.41 410.7 158.4L383.68 158.05Z" fill="#EEEDEC"/>
<path d="M376.72 157.91L361.42 157.69C360.56 157.68 359.87 157 359.87 156.18C359.87 155.36 360.57 154.7 361.42 154.72L376.72 154.97C377.56 154.98 378.24 155.65 378.23 156.46C378.24 157.28 377.56 157.92 376.72 157.91Z" fill="#908D89"/>
<path d="M418.21 165.29L381.15 164.94C380.32 164.93 379.64 164.27 379.64 163.46C379.64 162.65 380.32 162 381.15 162.01L418.21 162.44C419 162.45 419.64 163.1 419.64 163.88C419.65 164.66 419.01 165.3 418.21 165.29Z" fill="#908D89"/>
<path d="M372.47 164.85L361.42 164.75C360.56 164.74 359.87 164.07 359.87 163.25C359.87 162.43 360.57 161.77 361.42 161.78L372.47 161.91C373.31 161.92 373.99 162.59 373.99 163.4C373.99 164.21 373.31 164.86 372.47 164.85Z" fill="#179BB8"/>
<path d="M404.36 172.01L364.32 171.82C363.47 171.82 362.78 171.15 362.78 170.33C362.78 169.51 363.47 168.85 364.33 168.86L404.37 169.13C405.18 169.14 405.83 169.79 405.83 170.58C405.82 171.37 405.17 172.02 404.36 172.01Z" fill="#EEEDEC"/>
<path d="M355.87 171.78L342.58 171.72C341.7 171.72 340.99 171.04 340.99 170.21C340.99 169.38 341.7 168.71 342.58 168.72L355.87 168.81C356.73 168.82 357.43 169.49 357.43 170.31C357.43 171.12 356.73 171.78 355.87 171.78Z" fill="#F8B84F"/>
<path d="M394.31 178.87H379.66C378.82 178.87 378.15 178.21 378.15 177.4C378.15 176.59 378.83 175.93 379.67 175.93L394.32 175.96C395.14 175.96 395.8 176.61 395.8 177.41C395.8 178.21 395.12 178.87 394.31 178.87Z" fill="#EEEDEC"/>
<path d="M372.24 178.86H352.04C351.17 178.86 350.47 178.19 350.47 177.36C350.47 176.53 351.18 175.87 352.04 175.87L372.24 175.91C373.08 175.91 373.77 176.57 373.76 177.39C373.75 178.21 373.08 178.86 372.24 178.86Z" fill="#179BB8"/>
<path d="M308.29 127.74L294.52 127.29L294.53 124.19L308.29 124.67V127.74Z" fill="#666666"/>
<path d="M316.03 135.26L302.4 134.88L302.41 131.79L316.04 132.2L316.03 135.26Z" fill="#666666"/>
<path d="M316.02 142.52L302.39 142.2V139.12L316.02 139.46V142.52Z" fill="#666666"/>
<path d="M316 149.79L302.37 149.53L302.38 146.44L316.01 146.73L316 149.79Z" fill="#666666"/>
<path d="M315.99 157.05L302.35 156.86L302.36 153.77L315.99 153.99V157.05Z" fill="#666666"/>
<path d="M308.21 164.24L294.44 164.11L294.45 161.01L308.22 161.17L308.21 164.24Z" fill="#666666"/>
<path d="M315.96 171.59L302.32 171.52L302.33 168.43L315.96 168.53V171.59Z" fill="#666666"/>
<path d="M315.94 178.86L302.31 178.85V175.77L315.95 175.79L315.94 178.86Z" fill="#666666"/>
<path d="M389.67 66.0601L389.61 117.21L426.03 118.74L426.06 68.8401L389.67 66.0601Z" fill="#C5D43B"/>
<path d="M390.58 60.9799L386.53 60.6599C385.19 60.5499 384.1 61.5799 384.1 62.9399L384.04 114.94C384.04 116.31 385.13 117.47 386.47 117.52L390.53 117.69L390.58 60.9799Z" fill="#9EAE2B"/>
<path d="M464.39 66.8799L424.26 63.6699L424.23 119.09L464.39 120.76C465.59 120.81 466.57 119.8 466.57 118.51V69.3999C466.57 68.0999 465.59 66.9799 464.39 66.8799Z" fill="#9EAE2B"/>
<path d="M465.75 72.52V69.22C465.75 67.99 464.8 66.92 463.63 66.82L387.86 60.77C386.56 60.67 385.5 61.64 385.5 62.94V66.43L465.75 72.52Z" fill="white"/>
<path d="M409.6 75.4699L396.5 74.5399V72.8999L409.6 73.8399V75.4699Z" fill="#84817D"/>
<path d="M409.6 81.1199L396.49 80.2399V78.5999L409.6 79.4899V81.1199Z" fill="#84817D"/>
<path d="M409.59 86.77L396.49 85.94V84.3L409.6 85.15L409.59 86.77Z" fill="#84817D"/>
<path d="M409.59 92.3199L396.48 91.5399V89.8999L409.59 90.6999V92.3199Z" fill="#84817D"/>
<path d="M409.58 97.9799L396.47 97.2499L396.48 95.6099L409.59 96.3499L409.58 97.9799Z" fill="#84817D"/>
<path d="M409.58 103.63L396.47 102.96V101.31L409.58 102.01V103.63Z" fill="#84817D"/>
<path d="M429.92 76.91L428.47 76.81V75.2L429.92 75.31V76.91Z" fill="#666666"/>
<path d="M429.92 82.49L428.46 82.39V80.78L429.92 80.88V82.49Z" fill="#666666"/>
<path d="M429.91 88.0599L428.46 87.9699V86.3599L429.91 86.4599V88.0599Z" fill="#666666"/>
<path d="M429.91 93.6399L428.46 93.5499V91.9399L429.91 92.0299V93.6399Z" fill="#666666"/>
<path d="M429.91 99.21L428.45 99.13V97.52L429.91 97.61V99.21Z" fill="#666666"/>
<path d="M429.9 104.79L428.45 104.71V103.11L429.91 103.18L429.9 104.79Z" fill="#666666"/>
<path d="M429.9 110.37L428.45 110.3V108.69L429.9 108.76V110.37Z" fill="#666666"/>
<path d="M460.47 79.08L433.14 77.14V75.54L460.47 77.51V79.08Z" fill="#666666"/>
<path d="M451.88 78.47L446.95 78.12L446.96 76.54L451.88 76.89V78.47Z" fill="#C5D43B"/>
<path d="M449.13 89.2799L433.14 88.2599V86.6599L449.13 87.6899V89.2799Z" fill="#666666"/>
<path d="M460.47 95.45L433.13 93.83V92.23L460.47 93.88V95.45Z" fill="#666666"/>
<path d="M453.35 100.51L433.13 99.39V97.79L453.35 98.93V100.51Z" fill="#666666"/>
<path d="M456.61 106.17L433.13 104.95V103.35L456.61 104.59V106.17Z" fill="#666666"/>
<path d="M460.46 111.83L433.13 110.52V108.92L460.46 110.25V111.83Z" fill="#666666"/>
<path d="M446.63 89.1199L441.19 88.7699V87.1799L446.63 87.5299V89.1199Z" fill="#C5D43B"/>
<path d="M442.26 94.37L437.91 94.11V92.51L442.26 92.78V94.37Z" fill="#C5D43B"/>
<path d="M453.35 100.51L448.7 100.25V98.6699L453.35 98.9299V100.51Z" fill="#C5D43B"/>
<path d="M442.52 110.97L437.68 110.74V109.14L442.52 109.38V110.97Z" fill="#666666"/>
<path d="M454.42 95.09L450.15 94.84V93.26L454.43 93.51L454.42 95.09Z" fill="#C5D43B"/>
<path d="M446.71 111.17L441.91 110.94V109.35L446.71 109.58V111.17Z" fill="#C5D43B"/>
<path d="M468.99 63.5299L382.4 56.3799C380.95 56.2599 379.77 57.3099 379.77 58.7099L379.7 117.84C379.7 119.25 380.88 120.44 382.33 120.5L469 123.92C470.28 123.97 471.32 122.94 471.32 121.61V66.12C471.32 64.8 470.28 63.6399 468.99 63.5299ZM465.84 118.31C465.84 118.98 465.31 119.51 464.65 119.48L387.16 116.19C386.43 116.16 385.84 115.56 385.84 114.84L385.9 62.4299C385.9 61.7199 386.49 61.1899 387.22 61.2499L464.65 67.41C465.31 67.46 465.84 68.0499 465.84 68.7199V118.31Z" fill="#797673"/>
<path d="M263.22 167.61L202.87 168.01C200.44 168.03 198.49 166.19 198.53 163.9L199.2 125.55C199.24 123.27 201.25 121.47 203.67 121.53L263.86 122.93C266.1 122.98 267.88 124.79 267.85 126.96L267.34 163.61C267.3 165.82 265.46 167.6 263.22 167.61Z" fill="#6BA8F1"/>
<path d="M267.78 131.45L267.86 125.45C267.88 124.12 266.79 123.01 265.42 122.98L201.96 121.5C200.47 121.47 199.24 122.57 199.21 123.97L199.1 130.24L267.78 131.45Z" fill="#625F5B"/>
<path d="M207.05 126.3C207.03 127.24 206.21 127.99 205.2 127.97C204.19 127.95 203.39 127.17 203.4 126.22C203.42 125.27 204.25 124.52 205.26 124.55C206.27 124.58 207.07 125.36 207.05 126.3Z" fill="#908D89"/>
<path d="M213.55 126.43C213.53 127.37 212.71 128.12 211.71 128.1C210.71 128.08 209.91 127.3 209.93 126.36C209.95 125.42 210.77 124.67 211.77 124.69C212.77 124.72 213.57 125.49 213.55 126.43Z" fill="#908D89"/>
<path d="M220 126.57C219.98 127.51 219.17 128.25 218.18 128.23C217.19 128.21 216.4 127.44 216.41 126.5C216.43 125.56 217.24 124.82 218.23 124.84C219.22 124.85 220.01 125.63 220 126.57Z" fill="#908D89"/>
<path d="M226.27 155.37L211.89 149.3L211.91 147.9L226.5 141.19L226.47 143.3L214.62 148.5L226.31 153.23L226.27 155.37Z" fill="white"/>
<path d="M238.93 138.21L230.56 158.81H228.09L236.49 138.18L238.93 138.21Z" fill="white"/>
<path d="M240.54 153.26L251.99 148.74L240.69 143.43L240.72 141.34L254.57 148.16L254.55 149.53L240.51 155.39L240.54 153.26Z" fill="white"/>
<path d="M213.19 215.48L180.44 217.57C179.51 217.69 178.75 217 178.75 216.04L178.57 145.64C178.57 144.68 179.32 143.88 180.25 143.85L213.26 143.22C214.11 143.2 214.8 143.92 214.8 144.83L214.72 213.63C214.72 214.54 214.04 215.37 213.19 215.48Z" fill="#605D5A"/>
<path d="M214.15 215.48L181.4 217.57C180.47 217.69 179.71 217 179.71 216.04L179.53 145.64C179.53 144.68 180.28 143.88 181.21 143.85L214.22 143.22C215.07 143.2 215.76 143.92 215.76 144.83L215.68 213.63C215.69 214.54 215 215.37 214.15 215.48Z" fill="#84817D"/>
<path d="M212.76 208.43L182.94 210.08C182.58 210.12 182.28 209.85 182.28 209.47L182.13 151.79C182.13 151.41 182.42 151.1 182.79 151.08L212.81 150.63C213.15 150.62 213.42 150.9 213.42 151.26L213.37 207.7C213.37 208.06 213.1 208.39 212.76 208.43Z" fill="#C5D43B"/>
<path d="M188.41 171.45C190.277 171.45 191.79 169.784 191.79 167.73C191.79 165.675 190.277 164.01 188.41 164.01C186.543 164.01 185.03 165.675 185.03 167.73C185.03 169.784 186.543 171.45 188.41 171.45Z" fill="white"/>
<path d="M188.41 183.29C190.277 183.29 191.79 181.624 191.79 179.57C191.79 177.515 190.277 175.85 188.41 175.85C186.543 175.85 185.03 177.515 185.03 179.57C185.03 181.624 186.543 183.29 188.41 183.29Z" fill="white"/>
<path d="M188.41 195.12C190.277 195.12 191.79 193.454 191.79 191.4C191.79 189.345 190.277 187.68 188.41 187.68C186.543 187.68 185.03 189.345 185.03 191.4C185.03 193.454 186.543 195.12 188.41 195.12Z" fill="white"/>
<path d="M195.58 166.31C195 166.31 194.53 165.88 194.53 165.33C194.52 164.79 194.99 164.34 195.57 164.33L209.31 163.88H209.32C209.9 163.88 210.37 164.31 210.37 164.86C210.38 165.4 209.91 165.85 209.33 165.86L195.59 166.31H195.58Z" fill="#E1EA95"/>
<path d="M195.58 170.25C195 170.25 194.53 169.82 194.53 169.27C194.52 168.73 194.99 168.28 195.57 168.27L209.31 167.82H209.32C209.9 167.82 210.37 168.25 210.37 168.8C210.38 169.34 209.91 169.79 209.33 169.8L195.59 170.25H195.58Z" fill="#E1EA95"/>
<path d="M195.58 178.14C195 178.14 194.53 177.71 194.53 177.16C194.52 176.62 194.99 176.17 195.57 176.16L209.38 175.56H209.39C209.97 175.56 210.44 175.99 210.44 176.54C210.45 177.08 209.98 177.53 209.4 177.54L195.59 178.14H195.58Z" fill="#E1EA95"/>
<path d="M195.58 182.09C195 182.09 194.53 181.66 194.53 181.11C194.52 180.57 194.99 180.12 195.57 180.11L209.38 179.51H209.39C209.97 179.51 210.44 179.94 210.44 180.49C210.45 181.03 209.98 181.48 209.4 181.49L195.59 182.09H195.58Z" fill="#E1EA95"/>
<path d="M195.58 189.98C195 189.98 194.53 189.55 194.53 189C194.52 188.46 194.99 188.01 195.57 188L209.38 187.36H209.39C209.97 187.36 210.44 187.79 210.44 188.34C210.45 188.88 209.98 189.33 209.4 189.34L195.59 189.98H195.58Z" fill="#E1EA95"/>
<path d="M195.58 193.93C195 193.93 194.53 193.5 194.53 192.95C194.52 192.41 194.99 191.96 195.57 191.95L209.32 191.25H209.33C209.91 191.25 210.38 191.68 210.38 192.23C210.39 192.77 209.92 193.22 209.34 193.23L195.59 193.93H195.58Z" fill="#E1EA95"/>
<defs>
<radialGradient id="paint0_radial" cx="0" cy="0" r="1" gradientUnits="userSpaceOnUse" gradientTransform="translate(353.99 356.405) scale(200.513)">
<stop offset="0.1159" stop-color="white"/>
<stop offset="0.9695" stop-color="#B8D6F7"/>
</radialGradient>
</defs>
</svg>
