<svg width="636" height="300" viewBox="0 0 636 300" fill="none" xmlns="http://www.w3.org/2000/svg">
<path d="M350.1 161.72L185.76 160.39C182.47 160.36 179.8 157.75 179.8 154.55V40.95C179.8 37.75 182.47 35.4 185.76 35.69L350.1 50.29C352.71 50.52 354.82 53.01 354.82 55.85V156.63C354.82 159.46 352.71 161.74 350.1 161.72Z" fill="#BDD8F9"/>
<path d="M194.37 36.4499L185.28 35.6399C182.26 35.3699 179.8 37.5899 179.8 40.5999V154.89C179.8 157.9 182.26 160.36 185.28 160.38L194.37 160.45V36.4499Z" fill="#81B5F3"/>
<path d="M350.49 50.32L267.78 42.97V161.05L350.49 161.72C352.89 161.74 354.83 159.59 354.83 156.92V55.54C354.82 52.87 352.89 50.54 350.49 50.32Z" fill="#81B5F3"/>
<path d="M354.82 62.6999V55.5499C354.82 52.8799 352.88 50.5399 350.48 50.3299L185.28 35.6399C182.26 35.3699 179.8 37.5899 179.8 40.5999V48.6599L354.82 62.6999Z" fill="#84817D"/>
<path d="M234.77 71.04L205.16 69.03V65.26L234.77 67.35V71.04Z" fill="#60A2F0"/>
<path d="M234.77 80.2599L205.16 78.4299V74.6699L234.77 76.5699V80.2599Z" fill="#60A2F0"/>
<path d="M234.77 89.4798L205.16 87.8298V84.0698L234.77 85.7898V89.4798Z" fill="#60A2F0"/>
<path d="M234.77 98.46L205.16 96.99V93.23L234.77 94.77V98.46Z" fill="#60A2F0"/>
<path d="M234.77 107.68L205.16 106.39V102.63L234.77 103.99V107.68Z" fill="#60A2F0"/>
<path d="M234.77 116.9L205.16 115.79V112.03L234.77 113.21V116.9Z" fill="#60A2F0"/>
<path d="M279.45 74.0898L276.31 73.8698V70.2898L279.45 70.5098V74.0898Z" fill="#3085E9"/>
<path d="M279.45 83.03L276.31 82.83V79.25L279.45 79.45V83.03Z" fill="#3085E9"/>
<path d="M279.45 91.97L276.31 91.8V88.21L279.45 88.4V91.97Z" fill="#3085E9"/>
<path d="M279.45 100.92L276.31 100.76V97.1799L279.45 97.3399V100.92Z" fill="#3085E9"/>
<path d="M279.45 109.86L276.31 109.72V106.14L279.45 106.28V109.86Z" fill="#3085E9"/>
<path d="M279.45 118.8L276.31 118.69V115.1L279.45 115.23V118.8Z" fill="#3085E9"/>
<path d="M279.45 127.75L276.31 127.65V124.06L279.45 124.17V127.75Z" fill="#3085E9"/>
<path d="M279.45 136.69L276.31 136.61V133.03L279.45 133.11V136.69Z" fill="#3085E9"/>
<path d="M279.45 145.63L276.31 145.57V141.99L279.45 142.06V145.63Z" fill="#3085E9"/>
<path d="M343.98 78.48L286.41 74.56V71L343.98 75.06V78.48Z" fill="#3085E9"/>
<path d="M326.15 77.2698L315.82 76.5598V73.0798L326.15 73.7998V77.2698Z" fill="#77E3FB"/>
<path d="M320.39 94.2598L286.41 92.3598V88.7998L320.39 90.7798V94.2598Z" fill="#3085E9"/>
<path d="M343.98 104.12L286.41 101.26V97.7L343.98 100.7V104.12Z" fill="#3085E9"/>
<path d="M329.23 112.02L286.41 110.16V106.6L329.23 108.57V112.02Z" fill="#3085E9"/>
<path d="M336.01 120.91L286.41 119.06V115.5L336.01 117.47V120.91Z" fill="#3085E9"/>
<path d="M343.98 129.75L286.41 127.96V124.4L343.98 126.34V129.75Z" fill="#3085E9"/>
<path d="M331.86 138L286.41 136.86V133.3L331.86 134.55V138Z" fill="#3085E9"/>
<path d="M309.63 146.2L286.41 145.76V142.2L309.63 142.7V146.2Z" fill="#3085E9"/>
<path d="M315.14 93.9598L303.62 93.3198V89.7998L315.14 90.4698V93.9598Z" fill="#F7B548"/>
<path d="M305.9 102.23L296.64 101.77V98.23L305.9 98.72V102.23Z" fill="#F7B548"/>
<path d="M329.23 112.02L319.5 111.6V108.12L329.23 108.57V112.02Z" fill="#F7B548"/>
<path d="M306.46 128.59L296.18 128.27V124.73L306.46 125.08V128.59Z" fill="#F7B548"/>
<path d="M317.94 137.65L306.69 137.37V133.86L317.94 134.17V137.65Z" fill="#F7B548"/>
<path d="M307.14 137.38L295.72 137.1V133.56L307.14 133.87V137.38Z" fill="#77E3FB"/>
<path d="M314.77 102.67L305.63 102.22V98.7L314.77 99.18V102.67Z" fill="#E56B56"/>
<path d="M331.46 103.5L322.54 103.05V99.5798L331.46 100.05V103.5Z" fill="#77E3FB"/>
<path d="M315.33 128.86L305.18 128.55V125.03L315.33 125.37V128.86Z" fill="#E56B56"/>
<path d="M326.67 137.87L315.56 137.59V134.1L326.67 134.41V137.87Z" fill="#E56B56"/>
<path d="M300.43 146.03L292.45 145.88V142.33L300.43 142.5V146.03Z" fill="#F7B548"/>
<path d="M496.22 246.72L314.57 257.6C311.57 257.78 309.13 255.34 309.13 252.16V111.54C309.13 108.36 311.57 105.89 314.57 106.03L496.22 114.61C498.49 114.72 500.32 117.04 500.32 119.79V241.48C500.33 244.24 498.49 246.58 496.22 246.72Z" fill="#29C3E5"/>
<path d="M500.33 130.64V118.78C500.33 116.59 498.91 114.74 497.14 114.66L313.37 105.98C311.04 105.87 309.14 107.83 309.14 110.37V124.08L500.33 130.64Z" fill="#56534F"/>
<path d="M325.94 115.83C325.94 117.74 324.52 119.24 322.77 119.18C321.01 119.11 319.58 117.5 319.58 115.58C319.58 113.66 321.01 112.16 322.77 112.24C324.52 112.3 325.94 113.92 325.94 115.83Z" fill="#908D89"/>
<path d="M337.87 116.31C337.87 118.21 336.47 119.69 334.75 119.63C333.02 119.56 331.62 117.96 331.62 116.06C331.62 114.16 333.03 112.67 334.75 112.74C336.48 112.82 337.87 114.42 337.87 116.31Z" fill="#908D89"/>
<path d="M466.73 148.92L334.69 146.42V139.05L466.73 142.25V148.92Z" fill="#77E3FB"/>
<path d="M325.94 146.25L319.13 146.12V138.67L325.94 138.84V146.25Z" fill="#77E3FB"/>
<path d="M325.94 161.55L319.13 161.49V154.05L325.94 154.14V161.55Z" fill="#77E3FB"/>
<path d="M325.86 176.92L319.06 176.94V169.49L325.86 169.5V176.92Z" fill="#77E3FB"/>
<path d="M325.86 192.22L319.06 192.31V184.86L325.86 184.8V192.22Z" fill="#77E3FB"/>
<path d="M325.86 207.46L319.06 207.62V200.17L325.86 200.04V207.46Z" fill="#77E3FB"/>
<path d="M325.86 222.76L319.06 223V215.55L325.86 215.34V222.76Z" fill="#77E3FB"/>
<path d="M466.73 162.69L334.69 161.62V154.25L466.73 156.01V162.69Z" fill="#77E3FB"/>
<path d="M466.73 176.45L334.69 176.82V169.46L466.73 169.78V176.45Z" fill="#77E3FB"/>
<path d="M466.73 190.21L334.69 192.03V184.66L466.73 183.54V190.21Z" fill="#77E3FB"/>
<path d="M466.73 204L334.69 207.25V199.89L466.73 197.33V204Z" fill="#77E3FB"/>
<path d="M466.73 217.76L334.69 222.46V215.09L466.73 211.09V217.76Z" fill="#77E3FB"/>
<path d="M512.31 229.34L401.74 234.47V166.41L512.31 166.94V229.34Z" fill="#179BB8"/>
<path d="M423.63 181.14L417.68 181.18V177.95L423.63 177.92V181.14Z" fill="#77E3FB"/>
<path d="M423.63 189.28L417.68 189.35V186.12L423.63 186.06V189.28Z" fill="#77E3FB"/>
<path d="M423.63 197.42L417.68 197.53V194.29L423.63 194.19V197.42Z" fill="#77E3FB"/>
<path d="M423.63 205.55L417.68 205.7V202.46L423.63 202.33V205.55Z" fill="#77E3FB"/>
<path d="M423.63 213.69L417.68 213.87V210.64L423.63 210.46V213.69Z" fill="#77E3FB"/>
<path d="M423.63 221.82L417.68 222.04V218.81L423.63 218.6V221.82Z" fill="#77E3FB"/>
<path d="M477.99 180.8L435.48 181.07V177.88L477.99 177.71V180.8Z" fill="#77E3FB"/>
<path d="M487.09 188.48L442.75 189.04V185.87L487.09 185.42V188.48Z" fill="#77E3FB"/>
<path d="M478.37 196.39L449.94 196.92V193.76L478.37 193.3V196.39Z" fill="#F7B548"/>
<path d="M495.12 203.76L449.94 204.89V201.74L495.12 200.72V203.76Z" fill="#F7B548"/>
<path d="M471.85 212.18L449.94 212.86V209.71L471.85 209.08V212.18Z" fill="#77E3FB"/>
<path d="M487.09 219.44L442.75 221.1V217.93L487.09 216.38V219.44Z" fill="#77E3FB"/>
<path d="M452.86 180.96L435.48 181.07V177.88L452.86 177.81V180.96Z" fill="white"/>
<path d="M451.17 220.79L442.75 221.1V217.93L451.17 217.64V220.79Z" fill="white"/>
<path d="M420.66 237.27C420.66 257.16 406.43 274.38 388.45 275.76C369.97 277.18 354.62 261.42 354.62 240.52C354.62 219.62 369.98 202.35 388.45 201.95C406.44 201.56 420.66 217.38 420.66 237.27Z" fill="#F7B548"/>
<path d="M380.49 247.09L365.27 240.5V238.77L380.49 229.69V232.28L368.13 239.34L380.49 244.45V247.09Z" fill="white"/>
<path d="M393.47 225.33L385.04 251.03L382.45 251.18L390.91 225.43L393.47 225.33Z" fill="white"/>
<path d="M395.39 243.67L407.28 237.48L395.39 231.64V229.07L409.95 236.62V238.29L395.39 246.28V243.67Z" fill="white"/>
<path d="M514.09 65.9599L397.23 55.6799V92.7099L405.85 93.2199V108.55L418.38 93.9799L514.09 99.7399V65.9599Z" fill="#CCCAC7"/>
<path d="M421.65 79.3299L407.7 71.3099V69.6799L421.65 62.8799V65.3299L410.32 70.5599L421.65 76.8399V79.3299Z" fill="#84817D"/>
<path d="M494.9 89.7799L504.84 85.4199L494.9 78.9099V76.5999L507.08 84.9199V86.4299L494.9 92.1299V89.7799Z" fill="#84817D"/>
<path d="M479.14 76.0798L486.39 76.6498" stroke="white" stroke-width="3.567" stroke-miterlimit="10" stroke-linecap="round" stroke-linejoin="round"/>
<path d="M449.21 73.77L473.65 75.66" stroke="white" stroke-width="3.567" stroke-miterlimit="10" stroke-linecap="round" stroke-linejoin="round"/>
<path d="M428.28 72.1499L443.32 73.3099" stroke="white" stroke-width="3.567" stroke-miterlimit="10" stroke-linecap="round" stroke-linejoin="round"/>
<path d="M463.05 83.1399L480.15 84.3499" stroke="white" stroke-width="3.567" stroke-miterlimit="10" stroke-linecap="round" stroke-linejoin="round"/>
<path d="M428.28 80.6699L457.42 82.7399" stroke="white" stroke-width="3.567" stroke-miterlimit="10" stroke-linecap="round" stroke-linejoin="round"/>
<path d="M141.22 236.39L206.69 233.46C208.32 233.43 209.64 232.09 209.64 230.45L209.94 107.25C209.94 105.6 208.62 104.22 206.99 104.17L142.15 102.01C140.43 101.95 139.03 103.28 139.03 104.97L138.11 233.41C138.11 235.09 139.51 236.42 141.22 236.39Z" fill="#9C9894"/>
<path d="M143.22 236.43L208.69 233.5C210.32 233.47 211.64 232.13 211.64 230.49L211.94 107.29C211.94 105.64 210.62 104.26 208.99 104.21L144.15 102.05C142.43 101.99 141.03 103.32 141.03 105.01L140.11 233.45C140.11 235.12 141.51 236.46 143.22 236.43Z" fill="#56534F"/>
<path d="M147.42 223.42L205.81 220.7C206.45 220.69 206.98 220.16 206.98 219.52L207.21 118.66C207.21 118.01 206.69 117.47 206.04 117.45L148.36 115.61C147.68 115.59 147.14 116.11 147.14 116.78L146.2 222.25C146.2 222.89 146.75 223.42 147.42 223.42Z" fill="#9C9894"/>
<path d="M202.63 128.47L152.01 127.36V122.15L202.63 123.31V128.47Z" fill="#F7B548"/>
<path d="M202.53 195.87L151.81 197.31V185.4L202.53 184.57V195.87Z" fill="#E6E4E3"/>
<path d="M185.51 211.9L170.25 212.51V207.3L185.51 206.69V211.9Z" fill="#F7B548"/>
<path d="M167.65 159.04V139.91L151.74 139.63V159.03L167.65 159.04Z" fill="#E6E4E3"/>
<path d="M169.94 139.95V180.3L202.68 179.82V140.52L169.94 139.95Z" fill="#33D5F9"/>
<path d="M167.65 160.9L151.74 160.89V180.56L167.65 180.33V160.9Z" fill="#F7B548"/>
</svg>
