<svg width="636" height="300" viewBox="0 0 636 300" fill="none" xmlns="http://www.w3.org/2000/svg">
<path d="M73.8003 152L75.1703 218.82C75.2403 222.25 93.4603 224.72 116.51 225.69C140.25 226.69 160.01 225.34 159.96 222.11L158.93 151.56L73.8003 152Z" fill="#A3C9F6"/>
<path d="M158.91 151.57C158.93 153.08 139.08 154.38 115.24 154.46C92.1001 154.54 73.8201 153.44 73.7901 152.01C73.7601 150.58 92.0001 149.29 115.14 149.14C139 148.97 158.89 150.06 158.91 151.57Z" fill="#549BEF"/>
<path d="M159.73 207.01L159.7 205.16C155.64 205.97 139.87 206.58 116 205.88C93.4498 205.21 78.9898 203.81 74.8398 202.83L74.8798 204.56C76.7498 204.99 79.9199 205.44 85.3699 205.94C93.4499 206.68 104.32 207.28 116.04 207.64C127.94 208 139.29 208.07 147.93 207.83C154.16 207.65 157.71 207.36 159.73 207.01Z" fill="#549BEF"/>
<path d="M159.46 188.72L159.43 186.87C155.37 187.73 139.58 188.52 115.69 188.09C93.12 187.68 78.64 186.44 74.48 185.51L74.52 187.25C76.39 187.65 79.56 188.07 85.02 188.51C93.11 189.16 103.99 189.64 115.72 189.86C127.63 190.09 138.99 190.03 147.64 189.68C153.89 189.43 157.44 189.1 159.46 188.72Z" fill="#549BEF"/>
<path d="M159.19 170.39L159.16 168.54C155.1 169.44 139.29 170.42 115.37 170.26C92.7801 170.11 78.2801 169.03 74.1201 168.14L74.1601 169.88C76.0301 170.27 79.2101 170.65 84.6701 171.02C92.7701 171.58 103.65 171.93 115.4 172.03C127.32 172.12 138.7 171.93 147.36 171.49C153.61 171.16 157.17 170.79 159.19 170.39Z" fill="#549BEF"/>
<path d="M337.24 58.74L153.81 71.11L155.59 205.72C155.63 208.79 157.8 211.36 160.44 211.47L337.72 218.25L337.24 58.74Z" fill="#D5E06D"/>
<path d="M290.9 208.75L319.42 211.67L318.69 217.52L325.77 217.79L328.83 193.49L337.64 192.69L337.63 190.19V188.73L329.33 189.5L332.93 160.91L332.54 160.36L337.53 156.26L337.52 151.34L330.33 157.26L317.88 139.85C323.22 134.96 329.67 129.04 337.43 121.89L337.4 111.61C328.97 119.4 320.65 127.08 313.31 133.82L296.71 113.72L325.97 93.4101L337.37 104.49L337.35 99.2101L313.22 75.8301L337.26 67.1001L337.25 65.4101L337.24 63.0201L310.16 72.8701L298.28 61.3601L293.24 61.7001L306.24 74.2901L273.87 86.0601L262.15 71.8601L282.98 62.3801L273.34 63.0301L259.91 69.1501L255.84 64.2201L247.9 64.7601L247 64.8301L253.13 72.2601L230.36 82.6201L222.08 66.5101L220.43 66.6201L218.4 66.7601L226.32 82.1801L213.28 78.8601L215.08 66.9801L208.45 67.4301L206.76 78.6901L185.94 86.4501L184.49 69.0501L183.26 69.1301L181.3 69.2601L182.83 87.6001L158.3 96.7401L154.06 88.9701L154.09 93.8001L154.22 103.32L168.38 128.92L154.54 127.04L154.57 129.46L154.59 130.77L170.61 132.97L185.33 159.71C183.69 161.77 182.68 164.53 182.71 167.59C182.71 167.92 182.77 168.23 182.8 168.55L171.46 173.36L154.71 138.78L154.73 140.39L154.81 146.35L168.49 174.62L155.26 180.23L155.36 188.08L171.07 181.46L173.52 195.53L190.6 200.22C187.13 203.99 183.21 208.24 179.53 212.19L184.15 212.37C187.06 209.23 190.52 205.49 194.67 200.98L211.57 203.8L230.87 190.53L235.18 214.33L237.14 214.41L241.93 214.59L237.33 189.25L258.84 191.57L258.27 215.22L261.67 215.35L262.23 191.93L287.7 194.67L287.34 216.33L289.93 216.43L290.77 216.46L290.9 208.75ZM319.84 208.29L290.96 205.34L291.14 194.35L307.44 180.96L321.01 198.95L319.84 208.29ZM291.23 189.44L291.67 163.02C293 162.11 295.61 159.95 301.31 154.86L305.62 177.58L291.23 189.44ZM321.62 194.12L310.07 178.81L325.09 166.47L321.62 194.12ZM324.69 161.89L308.62 175.12L304.27 152.21C306.59 150.12 309.29 147.68 312.49 144.76L324.69 161.89ZM309.31 77.2601L323.2 90.7101L309.86 100L299.77 80.7301L309.31 77.2601ZM296.54 81.9001L307.04 101.95L294.3 110.81L276.45 89.1901L296.54 81.9001ZM307.92 138.76C298.52 147.38 291.42 153.82 289.03 155.85C284.1 155.38 264.1 153.31 247.19 151.55L254.03 119.82L240.82 102.05L269.25 91.8001L307.92 138.76ZM255.37 74.9701L266.68 88.6801L238.69 98.8301L231.92 85.6501L255.37 74.9701ZM212.78 82.2301L228.4 86.2101L235.48 100L208.61 109.74L212.78 82.2301ZM237.4 103.28L249.35 119.43L221.85 137.07L208.15 113.83L237.4 103.28ZM215.59 139.81L198.88 140.06L189.68 124.05L202.01 116.72L215.59 139.81ZM206.19 82.5301L201.66 112.71L188.78 120.38L186.24 89.9601L206.19 82.5301ZM159.96 99.7601L183.13 91.1201L185.72 122.2L175.52 128.27L159.96 99.7601ZM177.27 131.43L186.82 125.75L197.2 143.83L217.8 143.56L222.41 151.4L200.47 160.79C198.62 157.97 195.74 156.1 192.51 156.08C191.98 156.08 191.48 156.16 190.97 156.25L177.27 131.43ZM225.04 158.39L228.13 175.44L216.81 178.01L213.17 163.43L225.04 158.39ZM176.5 192.83L174.29 180.11L185.43 175.42C186.95 177.34 189 178.7 191.31 179.12L192.4 197.19L176.5 192.83ZM189.08 167.66C189.06 165.38 190.62 163.55 192.57 163.57C194.52 163.59 196.13 165.46 196.15 167.74C196.17 170.02 194.6 171.86 192.65 171.83C190.7 171.81 189.1 169.93 189.08 167.66ZM210.81 199.9L195.6 197.38L194.5 179.13C199.09 178.22 202.57 173.59 202.57 167.94L210 164.78L214.32 182.07L228.74 178.79L230.15 186.56L210.81 199.9ZM229.28 149.68L223.57 140L249.85 123.14L243.82 151.2C238.26 150.62 233.18 150.09 229.28 149.68ZM236.63 185.36L231.58 157.54C235.99 158.01 240.82 158.53 245.75 159.06C248.31 164.5 253.85 177.73 257.9 187.63L236.63 185.36ZM287.77 190.8L261.74 188.03C255.41 172.47 251.8 164.04 249.68 159.47C266.12 161.22 282.79 162.99 288.23 163.53L287.77 190.8Z" fill="#B2C133"/>
<path d="M280.77 122.21C280.8 122.14 280.79 122.08 280.81 122.01C281.23 120.69 281.5 119.3 281.49 117.82C281.44 110.7 275.97 104.99 269.3 105.07C262.66 105.15 257.35 110.93 257.4 117.99C257.41 119.16 257.61 120.28 257.9 121.36C257.92 121.68 257.99 122.01 258.12 122.34C258.19 122.51 258.29 122.74 258.37 122.94C258.38 122.95 258.38 122.97 258.39 122.98C260.88 128.92 269.61 146.9 269.61 146.9C269.8 146.5 277.57 129.95 280.26 123.47C280.43 123.1 280.58 122.73 280.71 122.35C280.73 122.3 280.75 122.24 280.77 122.21Z" fill="#3E8EED"/>
<path d="M274.25 117.87C274.27 120.72 272.11 123.05 269.43 123.06C266.76 123.07 264.58 120.78 264.56 117.93C264.54 115.08 266.69 112.76 269.36 112.74C272.04 112.72 274.23 115.01 274.25 117.87Z" fill="#A3C9F6"/>
<path d="M276.45 158.42C276.48 162.59 273.19 165.94 269.1 165.9C265.03 165.86 261.71 162.47 261.68 158.32C261.65 154.17 264.91 150.82 268.99 150.84C273.08 150.85 276.42 154.25 276.45 158.42Z" fill="white"/>
<path d="M398.65 34.4301L333.83 39.5301L334.02 218.1L398.03 220.55C401.13 220.67 403.66 218.27 403.67 215.2L404.32 39.6801C404.33 36.5301 401.79 34.1801 398.65 34.4301Z" fill="#D8E8FB"/>
<path d="M393.88 184.74L356.82 183.89C356.35 183.88 355.96 183.48 355.96 183C355.96 182.52 356.34 182.13 356.82 182.14L393.88 182.95C394.38 182.96 394.78 183.37 394.78 183.87C394.79 184.36 394.38 184.75 393.88 184.74Z" fill="#A3C9F6"/>
<path d="M350.67 186.36C350.67 188.83 348.72 190.77 346.31 190.71C343.91 190.64 341.98 188.6 341.98 186.15C341.98 183.7 343.92 181.75 346.31 181.8C348.72 181.85 350.67 183.89 350.67 186.36Z" fill="#8DBCF4"/>
<path d="M393.86 191.9L356.82 190.88C356.35 190.87 355.96 190.47 355.96 189.98C355.96 189.5 356.34 189.12 356.82 189.13L393.86 190.11C394.36 190.12 394.76 190.53 394.76 191.03C394.76 191.53 394.36 191.92 393.86 191.9Z" fill="#A3C9F6"/>
<path d="M394.1 124.11L356.86 124.9C356.38 124.91 356 124.52 356 124.04C356 123.55 356.39 123.15 356.86 123.14L394.1 122.31C394.6 122.3 395 122.69 395 123.19C395 123.69 394.6 124.1 394.1 124.11Z" fill="#A3C9F6"/>
<path d="M350.68 127.67C350.68 130.16 348.72 132.21 346.3 132.25C343.89 132.29 341.95 130.32 341.95 127.84C341.95 125.36 343.89 123.31 346.3 123.26C348.71 123.2 350.68 125.18 350.68 127.67Z" fill="#8DBCF4"/>
<path d="M394.07 131.34L356.85 131.96C356.37 131.97 355.99 131.58 355.99 131.09C355.99 130.6 356.38 130.2 356.85 130.19L394.07 129.53C394.57 129.52 394.97 129.92 394.97 130.42C394.98 130.92 394.57 131.33 394.07 131.34Z" fill="#A3C9F6"/>
<path d="M376.34 138.78L356.85 139.01C356.37 139.02 355.99 138.63 355.99 138.14C355.99 137.65 356.38 137.25 356.85 137.25L376.34 136.99C376.83 136.98 377.22 137.38 377.22 137.87C377.23 138.37 376.83 138.77 376.34 138.78Z" fill="#A3C9F6"/>
<path d="M394.02 158.03L356.85 158.22C356.37 158.22 355.99 157.83 355.99 157.35C355.99 156.86 356.38 156.47 356.85 156.47L394.03 156.23C394.53 156.23 394.93 156.63 394.93 157.13C394.92 157.62 394.52 158.03 394.02 158.03Z" fill="#A3C9F6"/>
<path d="M350.67 160.89C350.67 163.37 348.71 165.38 346.3 165.39C343.9 165.39 341.95 163.39 341.95 160.93C341.95 158.46 343.89 156.45 346.3 156.43C348.71 156.41 350.67 158.41 350.67 160.89Z" fill="#8DBCF4"/>
<path d="M394 165.24L356.85 165.27C356.37 165.27 355.99 164.88 355.99 164.39C355.99 163.9 356.38 163.51 356.85 163.51L394.01 163.44C394.51 163.44 394.91 163.84 394.91 164.34C394.9 164.83 394.5 165.24 394 165.24Z" fill="#A3C9F6"/>
<path d="M394.26 71.69L356.89 73.76C356.41 73.79 356.02 73.41 356.02 72.92C356.02 72.43 356.41 72.01 356.89 71.98L394.27 69.86C394.77 69.83 395.18 70.22 395.18 70.72C395.17 71.23 394.76 71.66 394.26 71.69Z" fill="#A3C9F6"/>
<path d="M350.68 76.7601C350.68 79.2701 348.71 81.4001 346.29 81.5201C343.87 81.6401 341.92 79.7201 341.92 77.2301C341.92 74.7401 343.87 72.6001 346.29 72.4701C348.71 72.3301 350.68 74.2501 350.68 76.7601Z" fill="#8DBCF4"/>
<path d="M394.24 78.9701L356.88 80.8701C356.4 80.8901 356.02 80.5201 356.02 80.0301C356.02 79.5401 356.41 79.1201 356.89 79.1001L394.25 77.1601C394.75 77.1301 395.16 77.5201 395.16 78.0201C395.15 78.5101 394.74 78.9401 394.24 78.9701Z" fill="#A3C9F6"/>
<path d="M394.15 96.9101L356.87 98.1201C356.39 98.1401 356.01 97.7501 356.01 97.2601C356.01 96.7701 356.4 96.3601 356.87 96.3501L394.16 95.0901C394.66 95.0701 395.07 95.4701 395.06 95.9701C395.06 96.4801 394.65 96.9001 394.15 96.9101Z" fill="#A3C9F6"/>
<path d="M350.68 100.97C350.68 103.47 348.71 105.54 346.3 105.61C343.89 105.68 341.94 103.72 341.94 101.24C341.94 98.76 343.89 96.68 346.3 96.6C348.71 96.52 350.68 98.48 350.68 100.97Z" fill="#8DBCF4"/>
<path d="M394.13 104.16L356.87 105.2C356.39 105.21 356.01 104.83 356.01 104.34C356.01 103.85 356.4 103.45 356.87 103.43L394.14 102.34C394.64 102.33 395.04 102.72 395.04 103.22C395.04 103.73 394.63 104.15 394.13 104.16Z" fill="#A3C9F6"/>
<path d="M404.26 56.6901L404.32 39.6801C404.33 36.5301 401.79 34.1801 398.65 34.4301L157.65 53.4001C155.4 53.5801 153.61 55.8701 153.64 58.5201L153.83 72.8401L404.26 56.6901Z" fill="#666666"/>
<path d="M355.12 52.7802L203.78 63.2402L203.71 56.3602L355.13 45.1602L355.12 52.7802Z" fill="#84817D"/>
<path d="M170.16 62.3501C170.18 64.4001 168.78 66.1601 167.04 66.2801C165.3 66.4001 163.86 64.8401 163.84 62.8001C163.81 60.7601 165.2 59.0001 166.95 58.8701C168.7 58.7401 170.14 60.3001 170.16 62.3501Z" fill="#84817D"/>
<path d="M182.35 61.4802C182.37 63.5502 180.95 65.3202 179.17 65.4502C177.39 65.5702 175.94 64.0002 175.91 61.9402C175.89 59.8802 177.3 58.1002 179.08 57.9702C180.86 57.8402 182.33 59.4102 182.35 61.4802Z" fill="#84817D"/>
<path d="M194.76 60.5901C194.78 62.6801 193.33 64.4701 191.51 64.5901C189.7 64.7101 188.22 63.1301 188.2 61.0501C188.18 58.9701 189.62 57.1801 191.43 57.0401C193.24 56.9201 194.73 58.5101 194.76 60.5901Z" fill="#84817D"/>
<path d="M559.87 163.94L378.6 163.35L378.75 54.1702L561.61 37.1702L559.87 163.94Z" fill="#84817D"/>
<path d="M495.28 99.1501L387.42 104.37C384.97 104.49 382.99 101.83 383 98.4301L383.06 65.3501C383.07 61.9401 385.06 58.9901 387.51 58.7701L495.74 49.2201C498.7 48.9601 501.08 51.8001 501.04 55.5701L500.7 92.1001C500.66 95.8501 498.23 99.0101 495.28 99.1501Z" fill="#D8E8FB"/>
<path d="M511.5 98.3701L548.08 96.6001C551.28 96.4501 553.93 93.1501 553.98 89.2401L554.49 51.1601C554.54 47.2301 551.97 44.2701 548.75 44.5501L512.02 47.7901C509 48.0601 506.53 51.3401 506.49 55.1301L506.12 91.8101C506.09 95.5801 508.49 98.5101 511.5 98.3701Z" fill="white"/>
<path d="M460.11 107.29L547.99 103.5C551.19 103.36 553.75 106.41 553.7 110.31L553.19 148.94C553.14 152.82 550.5 155.97 547.31 155.98L459.77 156.23C457.01 156.24 454.8 153.34 454.82 149.75L455.06 114.03C455.08 110.43 457.34 107.41 460.11 107.29Z" fill="#D8E8FB"/>
<path d="M445.18 107.94L387.41 110.43C384.96 110.54 382.98 113.37 382.97 116.76L382.91 150.36C382.9 153.73 384.87 156.46 387.31 156.45L444.88 156.29C447.59 156.28 449.81 153.38 449.83 149.81L450.05 114.23C450.09 110.64 447.9 107.82 445.18 107.94Z" fill="#549BEF"/>
<path d="M433.17 74.2502L391.3 77.2502L391.31 72.1702L433.2 68.9702L433.17 74.2502Z" fill="#A3C9F6"/>
<path d="M468.58 86.5601L391.27 91.1801L391.28 86.1001L468.62 81.1401L468.58 86.5601Z" fill="#A3C9F6"/>
<path d="M490.65 72.1701L479.46 72.9601C477.4 73.1001 475.74 71.0701 475.76 68.4101L475.78 66.0101C475.8 63.3501 477.49 61.0601 479.56 60.9001L490.76 60.0001C492.87 59.8301 494.57 61.8801 494.54 64.5801L494.52 67.0201C494.49 69.7201 492.76 72.0201 490.65 72.1701Z" fill="#549BEF"/>
<path d="M490.49 89.9702L479.32 90.5902C477.26 90.7102 475.61 88.6502 475.63 86.0002L475.65 83.6002C475.67 80.9502 477.36 78.6902 479.42 78.5502L490.6 77.8202C492.71 77.6802 494.4 79.7502 494.38 82.4402L494.36 84.8702C494.33 87.5802 492.59 89.8602 490.49 89.9702Z" fill="#549BEF"/>
<path d="M520.48 70.6404L517.91 70.8204L517.69 91.1304L520.25 90.9904L520.48 70.6404Z" fill="#A3C9F6"/>
<path d="M526.58 57.3303L523.99 57.5403L523.61 90.8103L526.2 90.6703L526.58 57.3303Z" fill="#A3C9F6"/>
<path d="M536.48 69.5303L533.85 69.7103L533.6 90.2703L536.23 90.1303L536.48 69.5303Z" fill="#A3C9F6"/>
<path d="M542.74 56.0403L540.09 56.2603L539.67 89.9403L542.32 89.8003L542.74 56.0403Z" fill="#A3C9F6"/>
<path d="M388.17 146.82C388.17 146.82 393.1 143.99 393.87 129.82C394.64 115.61 396.87 110.95 399.04 129.18C401.21 147.44 403.48 137.73 404.25 129.3C405.03 120.84 409.19 112.23 411.01 132.2C412.83 152.18 416.87 140.06 417.47 133.08C418.07 126.09 421.92 123.91 423.23 134.25C424.54 144.6 427.54 147.04 429.27 129.43C431.12 110.55 433.87 110.7 435.74 130.05C437.05 143.65 443.59 145.94 443.59 145.94L388.17 146.82Z" fill="#A3C9F6"/>
<path d="M464.64 128.43C463.16 128.47 461.97 126.94 461.98 125.01C461.99 123.08 463.21 121.49 464.69 121.44L466.73 122.36C468.22 122.31 467.38 122.92 467.36 124.86C467.35 126.8 466.13 128.4 464.64 128.43Z" fill="#549BEF"/>
<path d="M544.97 126.38L538.88 126.53L538.97 119.12L545.06 118.93L544.97 126.38Z" fill="#549BEF"/>
<path d="M519.45 127.03L472.38 128.24L472.43 121.2L519.53 119.73L519.45 127.03Z" fill="#A3C9F6"/>
<path d="M464.54 141.9C463.06 141.92 461.87 140.38 461.88 138.46C461.89 136.54 463.1 134.96 464.59 134.92C466.08 134.89 467.27 136.43 467.26 138.36C467.25 140.29 466.03 141.88 464.54 141.9Z" fill="#549BEF"/>
<path d="M544.78 140.73L538.71 140.82L538.8 133.42L544.88 133.29L544.78 140.73Z" fill="#549BEF"/>
<path d="M519.3 141.1L472.27 141.79L472.33 134.77L519.38 133.81L519.3 141.1Z" fill="#A3C9F6"/>
<path d="M100.47 161.59H98.6501L97.8501 121.78L137.46 120.86L136.91 89.4401L138.83 89.3601L139.4 122.62L99.7101 123.5L100.47 161.59Z" fill="#D8E8FB"/>
<path d="M122.95 133.57L77.16 134.29L76.71 113.33L122.55 112.01L122.95 133.57Z" fill="#D5E06D"/>
<path d="M117.69 131.64L117.83 138.75L111.26 132.15L117.69 131.64Z" fill="#D5E06D"/>
<path d="M130.23 127.49L179.14 126.54L178.81 104.24L129.85 105.82L130.23 127.49Z" fill="#D8E8FB"/>
<path d="M135.49 125.35L135.62 132.54L142.13 125.62L135.49 125.35Z" fill="#D8E8FB"/>
<path d="M109.36 99.61L157.14 97.87L156.79 75.76L108.95 78.12L109.36 99.61Z" fill="#A3C9F6"/>
<path d="M114.5 97.3999L114.63 104.53L120.99 97.5699L114.5 97.3999Z" fill="#A3C9F6"/>
<path d="M115.55 121.3L84.2502 122.03C83.8302 122.04 83.4902 121.72 83.4802 121.31C83.4702 120.9 83.8002 120.56 84.2202 120.55L115.52 119.8C115.96 119.79 116.31 120.12 116.32 120.53C116.33 120.94 115.99 121.29 115.55 121.3Z" fill="#B2C133"/>
<path d="M105.68 126.02L84.3498 126.46C83.9298 126.47 83.5898 126.14 83.5798 125.74C83.5698 125.33 83.8998 124.99 84.3198 124.99L105.65 124.53C106.08 124.52 106.43 124.85 106.44 125.26C106.45 125.67 106.11 126.01 105.68 126.02Z" fill="#B2C133"/>
<path d="M164.47 111.14L137.43 111.91C136.98 111.92 136.62 111.59 136.61 111.17C136.6 110.75 136.96 110.4 137.41 110.38L164.46 109.59C164.92 109.58 165.3 109.91 165.31 110.34C165.3 110.77 164.94 111.13 164.47 111.14Z" fill="#A3C9F6"/>
<path d="M170.78 115.64L137.51 116.5C137.06 116.51 136.7 116.18 136.69 115.76C136.68 115.34 137.04 114.99 137.49 114.97L170.77 114.08C171.24 114.07 171.62 114.41 171.62 114.84C171.62 115.27 171.25 115.63 170.78 115.64Z" fill="#A3C9F6"/>
<path d="M141.81 85.5201L117.12 86.5901C116.68 86.6101 116.32 86.2801 116.32 85.8701C116.31 85.4501 116.66 85.1001 117.1 85.0801L141.79 83.9901C142.24 83.9701 142.61 84.3001 142.62 84.7201C142.62 85.1301 142.26 85.5001 141.81 85.5201Z" fill="#549BEF"/>
<path d="M146.89 90.14L117.2 91.13C116.76 91.14 116.41 90.82 116.4 90.4C116.4 89.98 116.74 89.63 117.18 89.62C117.18 89.62 117.18 89.62 117.19 89.62L146.88 88.6C147.33 88.58 147.7 88.92 147.71 89.34C147.7 89.77 147.34 90.12 146.89 90.14Z" fill="#549BEF"/>
<path d="M102.94 162.57C102.98 164.36 101.5 165.8 99.6398 165.79C97.7898 165.78 96.2598 164.33 96.2298 162.55C96.1898 160.77 97.6598 159.32 99.5098 159.32C101.37 159.33 102.9 160.78 102.94 162.57Z" fill="#D8E8FB"/>
</svg>
