<svg width="636" height="300" viewBox="0 0 636 300" fill="none" xmlns="http://www.w3.org/2000/svg">
<path d="M460.49 234.06L219.96 241.52C216.03 241.64 212.83 238.67 212.85 234.88L213.63 55.32C213.65 51.49 216.88 48.67 220.83 49.01L462.32 69.92C465.18 70.17 467.46 72.99 467.42 76.23L465.7 228.1C465.67 231.3 463.34 233.97 460.49 234.06Z" fill="#29C3E5"/>
<path d="M382.64 173.11C363.24 165.55 366.53 134.61 384.58 121.91C407.29 105.93 385.95 79.56 344.46 78.15C300.57 76.66 297.11 98.9 280.77 121.24C265.01 142.79 239.62 128.44 213.28 135.38L213.06 186.48C226.14 192.55 243.34 197.23 256.26 203C273.23 210.58 263.98 230.56 257.25 240.37L372.9 236.78C369.5 226.96 372.06 213.61 378.85 209.85C393.14 201.94 401.54 180.48 382.64 173.11Z" fill="#1DACCC"/>
<path d="M267.51 151.92C285.53 145.11 284.72 119.03 314.97 123.33C344.07 127.47 344.54 134.36 343.8 161.22C343.07 188.06 336.13 208.68 321.37 203.65C306.31 198.52 289.92 180.28 269.63 181.34C248.8 182.44 237.09 163.42 267.51 151.92Z" fill="#29C3E5"/>
<path d="M377.53 83.6099L375.75 83.4799L375.59 101.87L339.73 99.7199L339.88 80.8899L338 80.7499L337.85 99.6099L300.12 97.3499L300.25 78.0199L298.27 77.8799L298.14 97.2299L258.38 94.8499L258.49 74.9999L256.41 74.8499L256.3 94.7199L213.89 92.1799L213.88 94.4099L256.28 96.8899L256.04 139.46L213.68 138.1L213.67 140.33L256.03 141.63L255.8 184.1L213.49 183.92L213.48 186.14L255.79 186.26L255.56 228.62L213.29 229.62L213.28 231.84L255.54 230.78L255.49 240.41L257.57 240.35L257.62 230.73L297.25 229.74L297.19 239.12L299.16 239.06L299.22 229.69L336.84 228.75L336.77 237.89L338.64 237.83L338.71 228.7L374.47 227.81L374.39 236.72L376.17 236.66L376.25 227.76L410.56 226.9L410.58 224.95L376.26 225.76L376.61 186.59L410.95 186.69L410.97 184.74L376.62 184.6L376.97 145.34L411.34 146.39L411.36 144.43L376.98 143.33L377.33 103.98L411.73 106L411.75 104.04L377.34 101.98L377.53 83.6099ZM297.27 227.64L257.64 228.58L257.88 186.27L297.55 186.38L297.27 227.64ZM297.56 184.28L257.89 184.12L258.13 141.71L297.84 142.93L297.56 184.28ZM297.85 140.8L258.13 139.53L258.37 97.0099L298.12 99.3399L297.85 140.8ZM336.86 226.71L299.24 227.6L299.52 186.39L337.18 186.5L336.86 226.71ZM337.19 184.44L299.53 184.28L299.81 142.97L337.5 144.13L337.19 184.44ZM337.52 142.07L299.82 140.86L300.1 99.4499L337.83 101.66L337.52 142.07ZM374.49 225.82L338.73 226.67L339.04 186.51L374.83 186.61L374.49 225.82ZM374.85 184.6L339.06 184.45L339.37 144.19L375.2 145.29L374.85 184.6ZM375.22 143.28L339.39 142.13L339.71 101.78L375.57 103.88L375.22 143.28Z" fill="#33D5F9"/>
<path d="M463.36 70.0098L412.15 65.5798L410.48 235.62L461.52 234.04C463.8 233.97 465.67 231.71 465.7 229L467.44 75.3298C467.47 72.5798 465.65 70.2098 463.36 70.0098Z" fill="#6D6A66"/>
<path d="M458.88 190.29L430.03 190.28C429.64 190.28 429.33 189.91 429.34 189.46C429.34 189.01 429.66 188.64 430.05 188.65L458.9 188.69C459.27 188.69 459.57 189.05 459.56 189.49C459.55 189.93 459.25 190.29 458.88 190.29Z" fill="#9C9894"/>
<path d="M424.96 192.73C424.94 195.05 423.3 196.93 421.3 196.94C419.29 196.95 417.68 195.07 417.71 192.74C417.73 190.41 419.38 188.52 421.39 188.53C423.38 188.53 424.98 190.41 424.96 192.73Z" fill="#9C9894"/>
<path d="M458.8 196.68L429.96 196.8C429.57 196.8 429.26 196.44 429.27 195.99C429.27 195.54 429.59 195.17 429.98 195.17L458.83 195.08C459.2 195.08 459.5 195.44 459.49 195.88C459.48 196.32 459.18 196.67 458.8 196.68Z" fill="#9C9894"/>
<path d="M445.32 203.18L429.89 203.32C429.5 203.32 429.19 202.96 429.2 202.51C429.2 202.06 429.52 201.69 429.91 201.69L445.34 201.57C445.72 201.57 446.02 201.93 446.01 202.37C446.01 202.81 445.7 203.18 445.32 203.18Z" fill="#9C9894"/>
<path d="M458.63 212.64L429.8 213.09C429.41 213.1 429.11 212.74 429.11 212.29C429.11 211.84 429.43 211.47 429.82 211.47L458.66 211.05C459.03 211.04 459.33 211.4 459.32 211.84C459.3 212.27 459 212.63 458.63 212.64Z" fill="#9C9894"/>
<path d="M424.72 215.62C424.7 217.93 423.06 219.84 421.06 219.88C419.05 219.92 417.44 218.07 417.47 215.74C417.49 213.41 419.14 211.5 421.15 211.47C423.15 211.45 424.75 213.3 424.72 215.62Z" fill="#9C9894"/>
<path d="M458.56 219.02L429.73 219.6C429.34 219.61 429.04 219.25 429.04 218.8C429.04 218.35 429.36 217.98 429.75 217.97L458.58 217.42C458.95 217.41 459.25 217.76 459.24 218.2C459.23 218.65 458.93 219.01 458.56 219.02Z" fill="#9C9894"/>
<path d="M459.32 150.31L430.45 149.48C430.06 149.47 429.75 149.09 429.76 148.64C429.76 148.19 430.08 147.83 430.47 147.84L459.34 148.71C459.71 148.72 460.01 149.09 460 149.53C459.99 149.97 459.69 150.32 459.32 150.31Z" fill="#9C9894"/>
<path d="M425.38 151.79C425.36 154.11 423.72 155.96 421.72 155.91C419.71 155.86 418.1 153.93 418.12 151.59C418.14 149.26 419.79 147.41 421.8 147.47C423.8 147.53 425.4 149.47 425.38 151.79Z" fill="#9C9894"/>
<path d="M459.25 156.71L430.38 156.01C429.99 156 429.68 155.63 429.69 155.18C429.69 154.73 430.01 154.37 430.4 154.38L459.27 155.12C459.64 155.13 459.94 155.5 459.93 155.94C459.92 156.37 459.62 156.72 459.25 156.71Z" fill="#9C9894"/>
<path d="M445.75 162.85L430.31 162.55C429.92 162.54 429.61 162.17 429.62 161.72C429.62 161.27 429.94 160.91 430.33 160.92L445.77 161.24C446.15 161.25 446.45 161.62 446.45 162.06C446.44 162.5 446.13 162.85 445.75 162.85Z" fill="#9C9894"/>
<path d="M459.07 172.71L430.21 172.34C429.82 172.34 429.51 171.97 429.52 171.51C429.52 171.06 429.84 170.7 430.23 170.7L459.09 171.1C459.46 171.11 459.76 171.47 459.75 171.91C459.74 172.35 459.44 172.71 459.07 172.71Z" fill="#9C9894"/>
<path d="M425.14 174.73C425.12 177.05 423.48 178.92 421.48 178.9C419.47 178.88 417.86 176.98 417.88 174.65C417.9 172.32 419.55 170.45 421.56 170.48C423.57 170.5 425.17 172.41 425.14 174.73Z" fill="#9C9894"/>
<path d="M459 179.1L430.15 178.86C429.76 178.86 429.45 178.49 429.46 178.04C429.47 177.59 429.78 177.23 430.17 177.23L459.03 177.5C459.4 177.5 459.7 177.86 459.69 178.31C459.67 178.75 459.37 179.11 459 179.1Z" fill="#9C9894"/>
<path d="M459.68 118.26L430.79 116.76C430.4 116.74 430.09 116.36 430.1 115.9C430.1 115.45 430.42 115.1 430.81 115.12L459.7 116.65C460.07 116.67 460.37 117.04 460.36 117.49C460.35 117.94 460.05 118.28 459.68 118.26Z" fill="#9C9894"/>
<path d="M425.71 118.97C425.69 121.3 424.05 123.11 422.04 123.01C420.03 122.92 418.42 120.94 418.44 118.6C418.46 116.26 420.12 114.45 422.13 114.56C424.13 114.67 425.73 116.64 425.71 118.97Z" fill="#9C9894"/>
<path d="M459.61 124.68L430.72 123.32C430.33 123.3 430.02 122.92 430.03 122.47C430.04 122.02 430.35 121.67 430.74 121.69L459.63 123.09C460 123.11 460.3 123.48 460.29 123.92C460.28 124.35 459.98 124.7 459.61 124.68Z" fill="#9C9894"/>
<path d="M459.86 102.22L430.96 100.39C430.57 100.37 430.26 99.9798 430.27 99.5298C430.27 99.0798 430.59 98.7299 430.98 98.7599L459.88 100.62C460.25 100.64 460.55 101.02 460.54 101.47C460.53 101.9 460.23 102.24 459.86 102.22Z" fill="#9C9894"/>
<path d="M425.88 102.54C425.86 104.87 424.22 106.66 422.21 106.54C420.2 106.42 418.59 104.43 418.61 102.09C418.63 99.7499 420.29 97.9599 422.3 98.0899C424.3 98.2099 425.9 100.21 425.88 102.54Z" fill="#9C9894"/>
<path d="M459.78 108.64L430.88 106.94C430.49 106.92 430.18 106.53 430.19 106.08C430.19 105.63 430.51 105.28 430.9 105.3L459.8 107.03C460.17 107.05 460.47 107.43 460.46 107.87C460.46 108.32 460.15 108.66 459.78 108.64Z" fill="#9C9894"/>
<path d="M459.5 134.29L430.62 133.12C430.23 133.1 429.92 132.73 429.93 132.27C429.93 131.82 430.25 131.46 430.64 131.48L459.52 132.68C459.89 132.7 460.19 133.07 460.18 133.51C460.17 133.96 459.87 134.31 459.5 134.29Z" fill="#9C9894"/>
<path d="M425.54 135.39C425.52 137.71 423.88 139.54 421.87 139.47C419.86 139.4 418.25 137.45 418.27 135.11C418.29 132.77 419.95 130.95 421.95 131.03C423.97 131.11 425.57 133.06 425.54 135.39Z" fill="#9C9894"/>
<path d="M459.43 140.7L430.55 139.67C430.16 139.66 429.85 139.28 429.86 138.83C429.86 138.38 430.18 138.02 430.57 138.04L459.45 139.11C459.82 139.12 460.12 139.49 460.11 139.94C460.1 140.37 459.8 140.72 459.43 140.7Z" fill="#9C9894"/>
<path d="M467.27 90.1099L467.44 75.3199C467.47 72.5799 465.65 70.2099 463.36 70.0099L219.41 48.8799C216.24 48.6099 213.65 51.0099 213.64 54.2399L213.56 71.7398L467.27 90.1099Z" fill="#56534F"/>
<path d="M418.58 80L279.38 69.29L279.43 61.52L418.65 72.92L418.58 80Z" fill="#908D89"/>
<path d="M236.39 62.16C236.38 64.6 234.45 66.43 232.07 66.25C229.69 66.07 227.76 63.93 227.77 61.48C227.78 59.03 229.73 57.2 232.11 57.39C234.49 57.59 236.4 59.72 236.39 62.16Z" fill="#908D89"/>
<path d="M252.51 63.44C252.5 65.85 250.6 67.67 248.28 67.49C245.95 67.31 244.06 65.2 244.07 62.77C244.08 60.34 245.99 58.53 248.33 58.72C250.65 58.91 252.52 61.03 252.51 63.44Z" fill="#908D89"/>
<path d="M268.31 64.6899C268.3 67.0799 266.44 68.8799 264.16 68.6999C261.87 68.5199 260.02 66.4299 260.04 64.0299C260.05 61.6299 261.93 59.8299 264.21 60.0199C266.49 60.2099 268.33 62.2999 268.31 64.6899Z" fill="#908D89"/>
<path d="M244.03 217.06C244.01 220 241.69 222.43 238.82 222.49C235.94 222.55 233.62 220.19 233.63 217.23C233.64 214.27 236 211.84 238.87 211.8C241.75 211.76 244.05 214.12 244.03 217.06Z" fill="#0B7891"/>
<path d="M260.68 216.79C260.66 219.7 258.38 222.11 255.58 222.16C252.76 222.22 250.49 219.89 250.5 216.96C250.52 214.03 252.82 211.62 255.64 211.59C258.44 211.55 260.7 213.88 260.68 216.79Z" fill="#0B7891"/>
<path d="M276.99 216.52C276.97 219.4 274.74 221.78 271.99 221.83C269.23 221.88 267 219.58 267.02 216.68C267.04 213.78 269.29 211.4 272.05 211.36C274.8 211.33 277 213.64 276.99 216.52Z" fill="#0B7891"/>
<path d="M292.96 216.26C292.94 219.11 290.75 221.47 288.06 221.52C285.36 221.57 283.17 219.29 283.19 216.42C283.21 213.55 285.42 211.19 288.12 211.16C290.82 211.12 292.98 213.41 292.96 216.26Z" fill="#0B7891"/>
<path d="M364.88 114.62L329.41 112.81L329.45 108.03L364.92 109.95L364.88 114.62Z" fill="#BBF1FD"/>
<path d="M347.51 123.41C345.45 123.32 343.78 121.48 343.8 119.33V118.89C343.82 116.74 345.52 115.06 347.57 115.16C349.62 115.26 351.28 117.1 351.26 119.24V119.68C351.25 121.82 349.56 123.5 347.51 123.41Z" fill="#0B7891"/>
<path d="M402.23 167.88L368.59 167.35L368.63 162.71L402.27 163.34L402.23 167.88Z" fill="#BBF1FD"/>
<path d="M385.74 177.01C383.79 176.99 382.21 175.27 382.23 173.18V172.75C382.25 170.66 383.86 168.97 385.81 169C387.75 169.03 389.33 170.75 389.31 172.83V173.26C389.29 175.34 387.68 177.03 385.74 177.01Z" fill="#0B7891"/>
<path d="M276.27 70.6099L134.95 59.8699L134.83 114.12L254.49 119.44L264.93 131.8L265 119.91L275.97 120.4L276.27 70.6099Z" fill="#CCCAC7"/>
<path d="M231.44 159.52L82.07 156.65L82.03 212.26L208.53 210.72L219.56 222.75L219.62 210.59L231.19 210.45L231.44 159.52Z" fill="#CEDB59"/>
<path d="M542.84 70.82L446.51 62.04L446.04 106.52L457.2 107.19L457.08 117.65L465.23 107.67L542.28 112.26L542.84 70.82Z" fill="#D8E377"/>
<path d="M566.64 171.47L474.26 170.1L473.76 213.41L485.88 213.21L485.75 223.4L493.55 213.09L566.07 211.9L566.64 171.47Z" fill="#CCCAC7"/>
<path d="M266.95 196.23L256.95 184.16L277.25 175.78L266.95 196.23Z" fill="#0B7891"/>
<path d="M314.69 156.53L326.17 156.74L323.19 153.27L316.07 153.12L314.69 156.53Z" fill="#DBE581"/>
<path d="M314.3 153.09L311.12 153.02L307.45 156.4L312.91 156.5L314.3 153.09Z" fill="#DBE581"/>
<path d="M314.61 158.17L318.47 174.2L327.5 158.38L314.61 158.17Z" fill="#DBE581"/>
<path d="M312.93 158.14L306.68 158.03L317.33 173.96L312.93 158.14Z" fill="#DBE581"/>
<path d="M321.07 158.28L318.45 174.11L318.47 174.2L327.5 158.38L321.07 158.28Z" fill="white"/>
<path d="M320.98 156.64L326.17 156.74L323.19 153.27L319.7 153.2L320.98 156.64Z" fill="white"/>
<path d="M285.65 123.9L298.59 116.75L302.14 139L285.65 123.9Z" fill="#0B7891"/>
<path d="M402.44 115.76L407.13 129.53L388.73 129.88L402.44 115.76Z" fill="#0B7891"/>
<path d="M373.37 198.41L363.31 208.41L356.08 188.57L373.37 198.41Z" fill="#0B7891"/>
<path d="M449.61 93.8C460.28 94.53 468.92 85.02 469.07 72.56C469.21 60.09 460.79 49.1 450.11 48.02C439.27 46.92 430.25 56.42 430.11 69.24C429.98 82.06 438.78 93.05 449.61 93.8Z" fill="#B2C133"/>
<path d="M447.79 82.8L451.45 83.08L451.58 71.57L447.92 71.26L447.79 82.8Z" fill="#81921F"/>
<path d="M464.41 81.9001C464.35 81.0101 463.74 80.2801 462.98 80.2201L436.43 78.1201C435.6 78.0501 434.91 78.7401 434.82 79.6901L434.43 84.2101C438.01 89.6801 443.48 93.3801 449.61 93.8001C455.71 94.2201 461.13 91.3001 464.69 86.4201L464.41 81.9001Z" fill="#81921F"/>
<path d="M435.19 69.59L435.91 61.31C436.21 57.88 438.72 55.46 441.68 55.74L458.3 57.32C461.18 57.59 463.55 60.42 463.76 63.84L464.27 72.06C464.33 72.96 463.72 73.69 462.96 73.62L453.54 72.83C453.11 74.91 451.48 76.36 449.55 76.2C447.62 76.04 446.01 74.32 445.61 72.16L436.5 71.4C435.72 71.34 435.11 70.5 435.19 69.59Z" fill="#EEF3C4"/>
<path d="M441.68 62.55L457.9 64.02C459.19 64.14 460.21 65.46 460.2 66.98C460.18 68.5 459.13 69.64 457.84 69.53L441.62 68.13C440.3 68.02 439.24 66.67 439.26 65.13C439.27 63.59 440.36 62.43 441.68 62.55Z" fill="#81921F"/>
<path d="M449.83 67.9601C450.82 68.0501 451.62 67.1801 451.64 66.0201C451.65 64.8601 450.86 63.8501 449.88 63.7601C448.89 63.6701 448.08 64.5401 448.07 65.7001C448.05 66.8601 448.84 67.8701 449.83 67.9601Z" fill="#B2C133"/>
<path d="M444.06 67.45C445.05 67.54 445.87 66.66 445.88 65.5C445.89 64.34 445.1 63.32 444.1 63.23C443.1 63.14 442.29 64.01 442.27 65.18C442.26 66.35 443.06 67.37 444.06 67.45Z" fill="#B2C133"/>
<path d="M394.91 219.55L302.88 221.36L302.95 211.41L395 210.19L394.91 219.55Z" fill="#BBF1FD"/>
<path d="M86.59 194.16C103.38 194.13 116.78 181.52 116.8 165.99C116.83 150.45 103.45 137.43 86.64 136.92C69.5 136.4 55.36 149.03 55.36 165.12C55.36 181.2 69.47 194.19 86.59 194.16Z" fill="#EEF3C4"/>
<path d="M83.54 180.59L89.31 180.62L89.32 166.23L83.55 166.15L83.54 180.59Z" fill="#B2C133"/>
<path d="M109.65 178.02C109.54 176.91 108.57 176.06 107.39 176.05L65.53 175.7C64.22 175.69 63.13 176.61 63.01 177.81L62.46 183.51C68.22 190.05 76.93 194.18 86.59 194.16C96.19 194.14 104.66 190.02 110.17 183.62L109.65 178.02Z" fill="#B2C133"/>
<path d="M63.42 165.13L64.42 154.69C64.83 150.37 68.77 147.13 73.46 147.25L99.68 147.89C104.21 148 107.97 151.33 108.36 155.58L109.29 165.79C109.4 166.91 108.46 167.86 107.26 167.85L92.46 167.66C91.81 170.3 89.27 172.24 86.22 172.21C83.17 172.18 80.61 170.17 79.95 167.5L65.54 167.31C64.29 167.28 63.3 166.28 63.42 165.13Z" fill="#78881B"/>
<path d="M73.56 155.78L99.14 156.28C101.16 156.32 102.8 157.89 102.79 159.79C102.79 161.69 101.15 163.2 99.13 163.17L73.55 162.77C71.46 162.74 69.77 161.15 69.77 159.21C69.78 157.27 71.48 155.74 73.56 155.78Z" fill="#D5E06D"/>
<path d="M97.46 162.04C99 162.07 100.24 160.92 100.24 159.48C100.24 158.04 99 156.85 97.47 156.82C95.93 156.79 94.68 157.94 94.68 159.38C94.68 160.83 95.92 162.02 97.46 162.04Z" fill="white"/>
<path d="M88.46 161.9C90.01 161.93 91.27 160.77 91.27 159.33C91.27 157.88 90.02 156.69 88.47 156.66C86.92 156.63 85.65 157.78 85.65 159.23C85.64 160.67 86.9 161.87 88.46 161.9Z" fill="white"/>
<path d="M216.33 181.73L123.56 181.22C122.89 181.22 122.34 180.69 122.34 180.04C122.34 179.39 122.89 178.87 123.56 178.88L216.34 179.51C216.94 179.51 217.43 180.01 217.43 180.63C217.42 181.24 216.93 181.73 216.33 181.73Z" fill="#78881B"/>
<path d="M198.2 192.83L123.54 192.92C122.87 192.92 122.32 192.4 122.32 191.75C122.32 191.1 122.87 190.58 123.54 190.58L198.21 190.59C198.83 190.59 199.32 191.09 199.32 191.71C199.32 192.33 198.82 192.83 198.2 192.83Z" fill="#78881B"/>
<path d="M518.26 94.8098L476.39 91.8098C475.96 91.7798 475.62 91.3299 475.62 90.8199C475.63 90.2999 475.98 89.9099 476.41 89.9399L518.29 92.9999C518.69 93.0299 519.01 93.4598 519.01 93.9598C518.99 94.4499 518.66 94.8398 518.26 94.8098Z" fill="#95A527"/>
<path d="M532.09 86.7799L476.5 82.4199C476.07 82.3899 475.73 81.9399 475.73 81.4199C475.74 80.8999 476.09 80.51 476.52 80.54L532.11 84.98C532.51 85.01 532.82 85.44 532.81 85.94C532.81 86.43 532.48 86.8099 532.09 86.7799Z" fill="#95A527"/>
<path d="M541.41 187.46L501.14 187.36C500.73 187.36 500.4 186.95 500.4 186.44C500.41 185.93 500.75 185.52 501.16 185.53L541.44 185.68C541.83 185.68 542.14 186.08 542.13 186.57C542.11 187.06 541.8 187.46 541.41 187.46Z" fill="#B3AFAB"/>
<path d="M554.48 196.29L501.02 196.52C500.61 196.52 500.28 196.11 500.28 195.61C500.29 195.1 500.63 194.69 501.04 194.69L554.51 194.53C554.89 194.53 555.19 194.92 555.19 195.41C555.18 195.9 554.86 196.29 554.48 196.29Z" fill="#B3AFAB"/>
<path d="M238.56 87.9899L177 84.0799C176.36 84.0399 175.85 83.4999 175.85 82.8599C175.85 82.2299 176.37 81.7499 177 81.7899L238.57 85.7799C239.16 85.8199 239.63 86.3399 239.63 86.9499C239.63 87.5599 239.15 88.0199 238.56 87.9899Z" fill="#B3AFAB"/>
<path d="M258.48 100.11L176.96 95.4898C176.32 95.4498 175.81 94.9098 175.81 94.2798C175.81 93.6498 176.33 93.1698 176.96 93.1998L258.49 97.9298C259.06 97.9598 259.53 98.4798 259.52 99.0798C259.52 99.6898 259.06 100.15 258.48 100.11Z" fill="#B3AFAB"/>
<path d="M140.35 95.6399C156.25 96.5199 168.96 84.8999 169.01 69.6899C169.06 54.4699 156.4 40.9999 140.48 39.5899C124.26 38.1599 110.86 49.7599 110.83 65.5199C110.81 81.2499 124.15 94.7399 140.35 95.6399Z" fill="#B3AFAB"/>
<path d="M150.05 50.5199L131.14 48.9699C128.89 48.7899 127 50.2699 126.79 52.4099L125.78 62.4699C125.53 64.9099 127.54 67.1699 130.11 67.3499L150.98 68.8399C153.48 69.0199 155.43 67.0699 155.21 64.6399L154.28 54.5999C154.07 52.4699 152.25 50.6999 150.05 50.5199Z" fill="#797672"/>
<path d="M152.83 85.8999L128.12 84.3799C121.42 83.9699 115.95 78.4099 115.96 71.9799V71.6199C115.97 65.1799 121.46 60.3699 128.16 60.8799L152.88 62.7399C159.35 63.2299 164.54 68.6899 164.52 74.9499V75.2999C164.51 81.5499 159.3 86.2999 152.83 85.8999Z" fill="#DDDBDA"/>
<path d="M153.19 80.4598L128.17 78.8398C126.83 78.7498 125.74 77.6398 125.75 76.3598V76.2898C125.75 75.0098 126.84 74.0398 128.18 74.1298L153.2 75.8198C154.5 75.9098 155.55 76.9998 155.55 78.2598V78.3298C155.54 79.5798 154.49 80.5398 153.19 80.4598Z" fill="#797672"/>
<path d="M135.04 59.1598C137.08 59.3198 138.73 57.8598 138.74 55.8998C138.74 53.9398 137.1 52.2198 135.06 52.0598C133.02 51.8998 131.35 53.3598 131.35 55.3198C131.34 57.2798 133 58.9998 135.04 59.1598Z" fill="white"/>
<path d="M146.48 60.0298C148.49 60.1798 150.12 58.7298 150.13 56.7898C150.14 54.8498 148.51 53.1398 146.5 52.9798C144.48 52.8198 142.84 54.2698 142.84 56.2198C142.83 58.1698 144.47 59.8798 146.48 60.0298Z" fill="white"/>
<path d="M129.19 74.2199V75.1499C129.19 75.6499 129.61 76.0799 130.13 76.1099L132.13 76.2399C132.65 76.2699 133.07 75.8999 133.07 75.3999V74.4699C133.07 74.4599 133.07 74.4499 133.07 74.4399L129.19 74.1799C129.19 74.1999 129.19 74.2099 129.19 74.2199Z" fill="#B3AFAB"/>
<path d="M136.89 77.42L134.9 77.29C134.38 77.26 133.96 77.63 133.96 78.13V79.06C133.96 79.12 133.97 79.16 133.98 79.22L137.81 79.47C137.82 79.43 137.83 79.37 137.83 79.32V78.4C137.83 77.88 137.41 77.46 136.89 77.42Z" fill="#B3AFAB"/>
<path d="M138.73 74.8598V75.7798C138.73 76.2698 139.15 76.6998 139.66 76.7398L141.64 76.8698C142.15 76.8998 142.57 76.5298 142.57 76.0398V75.1198C142.57 75.1098 142.57 75.0998 142.57 75.0898L138.73 74.8298C138.74 74.8498 138.73 74.8598 138.73 74.8598Z" fill="#B3AFAB"/>
<path d="M146.23 78.0399L144.26 77.9099C143.75 77.8799 143.33 78.2499 143.33 78.7399V79.6599C143.33 79.7099 143.34 79.7599 143.35 79.8199L147.14 80.0699C147.15 80.0299 147.16 79.9699 147.16 79.9199V78.9999C147.15 78.4899 146.74 78.0699 146.23 78.0399Z" fill="#B3AFAB"/>
<path d="M148.05 75.49V76.41C148.05 76.9 148.46 77.33 148.97 77.36L150.93 77.49C151.44 77.52 151.85 77.15 151.85 76.66V75.74C151.85 75.73 151.85 75.72 151.85 75.71L148.05 75.45C148.05 75.47 148.05 75.48 148.05 75.49Z" fill="#B3AFAB"/>
<path d="M145.24 89.04L136.47 88.52C135.44 88.46 134.61 87.61 134.61 86.62V86.57C134.61 85.58 135.44 84.83 136.47 84.9L145.24 85.44C146.26 85.5 147.07 86.34 147.07 87.33V87.38C147.08 88.35 146.26 89.1 145.24 89.04Z" fill="#797672"/>
<path d="M145.23 92.4798L136.46 91.9798C135.43 91.9198 134.6 91.0798 134.6 90.0898V90.0398C134.6 89.0498 135.43 88.2998 136.46 88.3598L145.23 88.8798C146.25 88.9398 147.06 89.7798 147.06 90.7598V90.8098C147.07 91.7798 146.25 92.5298 145.23 92.4798Z" fill="#797672"/>
<path d="M145.23 92.3L136.46 91.8C135.43 91.74 134.6 92.49 134.6 93.48V93.53C134.6 94.07 134.86 94.57 135.26 94.92C136.89 95.29 138.55 95.53 140.26 95.63L140.44 95.64C142.58 95.75 144.66 95.64 146.66 95.32C146.91 95.03 147.08 94.66 147.08 94.23V94.18C147.07 93.2 146.25 92.36 145.23 92.3Z" fill="#797672"/>
<path d="M136.09 56.8599C137.06 56.9399 137.84 56.2399 137.85 55.3099C137.85 54.3799 137.07 53.5599 136.1 53.4799C135.13 53.3999 134.34 54.0999 134.34 55.0299C134.33 55.9699 135.12 56.7899 136.09 56.8599Z" fill="#B3AFAB"/>
<path d="M147.52 57.7499C148.48 57.8199 149.25 57.1299 149.25 56.2099C149.25 55.2899 148.48 54.4699 147.52 54.3999C146.56 54.3199 145.78 55.0099 145.78 55.9399C145.79 56.8699 146.57 57.6799 147.52 57.7499Z" fill="#B3AFAB"/>
<path d="M474.44 197.33C463.98 197.38 455.5 187.25 455.64 174.69C455.78 162.12 464.49 152.17 474.96 152.46C485.27 152.75 493.4 162.89 493.25 175.12C493.11 187.34 484.75 197.28 474.44 197.33Z" fill="#B3AFAB"/>
<path d="M468.6 160.44L480.83 160.71C482.25 160.74 483.43 162.06 483.53 163.76L484.06 171.77C484.19 173.71 482.9 175.36 481.28 175.35L467.78 175.2C466.12 175.18 464.84 173.47 465.02 171.51L465.75 163.42C465.92 161.69 467.15 160.41 468.6 160.44Z" fill="#797672"/>
<path d="M466.38 188.91L482.37 188.93C486.57 188.94 490 184.87 490.06 179.85V179.57C490.12 174.55 486.78 170.42 482.59 170.36L466.6 170.12C462.28 170.06 458.71 174.17 458.65 179.31V179.6C458.58 184.73 462.05 188.9 466.38 188.91Z" fill="#DDDBDA"/>
<path d="M466.19 184.47L482.38 184.54C483.22 184.54 483.92 183.73 483.93 182.72V182.66C483.94 181.65 483.27 180.82 482.42 180.82L466.23 180.7C465.37 180.69 464.65 181.52 464.64 182.55V182.61C464.64 183.63 465.33 184.47 466.19 184.47Z" fill="#797672"/>
<path d="M478.24 168.51C476.93 168.49 475.89 167.2 475.91 165.64C475.93 164.08 477 162.83 478.31 162.86C479.61 162.89 480.65 164.17 480.64 165.73C480.61 167.28 479.54 168.53 478.24 168.51Z" fill="white"/>
<path d="M470.84 168.39C469.52 168.37 468.46 167.08 468.48 165.5C468.5 163.93 469.58 162.67 470.9 162.7C472.22 162.73 473.27 164.02 473.25 165.59C473.24 167.15 472.16 168.41 470.84 168.39Z" fill="white"/>
<path d="M481.8 180.83L481.79 181.57C481.79 181.96 481.51 182.28 481.19 182.28L479.92 182.27C479.59 182.27 479.33 181.95 479.33 181.55L479.34 180.81C479.34 180.8 479.34 180.8 479.34 180.79L481.8 180.81C481.8 180.82 481.8 180.83 481.8 180.83Z" fill="#B3AFAB"/>
<path d="M476.86 182.94L478.14 182.95C478.47 182.95 478.73 183.27 478.73 183.67L478.72 184.41C478.72 184.45 478.71 184.49 478.71 184.53L476.25 184.52C476.24 184.48 476.24 184.44 476.24 184.4L476.25 183.66C476.25 183.25 476.53 182.94 476.86 182.94Z" fill="#B3AFAB"/>
<path d="M475.71 180.79L475.7 181.53C475.7 181.92 475.42 182.24 475.09 182.24L473.81 182.23C473.48 182.23 473.21 181.9 473.22 181.51L473.23 180.77C473.23 180.76 473.23 180.76 473.23 180.75L475.71 180.77C475.7 180.78 475.71 180.78 475.71 180.79Z" fill="#B3AFAB"/>
<path d="M470.81 182.91L472.1 182.92C472.43 182.92 472.7 183.25 472.69 183.64L472.68 184.38C472.68 184.42 472.67 184.46 472.67 184.5L470.19 184.49C470.18 184.45 470.18 184.41 470.18 184.37L470.19 183.63C470.2 183.22 470.47 182.9 470.81 182.91Z" fill="#B3AFAB"/>
<path d="M469.64 180.75L469.63 181.49C469.63 181.89 469.35 182.21 469.02 182.21L467.73 182.2C467.4 182.2 467.13 181.87 467.13 181.48L467.14 180.74C467.14 180.73 467.14 180.73 467.14 180.72L469.65 180.74C469.64 180.73 469.64 180.74 469.64 180.75Z" fill="#B3AFAB"/>
<path d="M471.33 191.82H477.01C477.67 191.82 478.21 191.18 478.22 190.4V190.36C478.23 189.57 477.71 188.94 477.05 188.94L471.37 188.93C470.7 188.93 470.16 189.57 470.15 190.36V190.4C470.14 191.17 470.67 191.82 471.33 191.82Z" fill="#797672"/>
<path d="M471.3 194.58L476.98 194.56C477.64 194.56 478.18 193.92 478.19 193.13V193.09C478.2 192.3 477.68 191.67 477.02 191.67H471.34C470.67 191.67 470.13 192.31 470.12 193.1V193.14C470.11 193.94 470.64 194.58 471.3 194.58Z" fill="#797672"/>
<path d="M471.3 194.44L476.98 194.42C477.64 194.42 478.16 195.05 478.15 195.84V195.88C478.14 196.31 477.98 196.7 477.72 196.96C476.67 197.18 475.6 197.31 474.5 197.32H474.38C472.99 197.32 471.64 197.14 470.34 196.8C470.18 196.56 470.07 196.25 470.08 195.91V195.87C470.09 195.08 470.64 194.44 471.3 194.44Z" fill="#797672"/>
<path d="M477.6 166.6C476.98 166.59 476.48 165.98 476.49 165.23C476.5 164.49 477.01 163.89 477.63 163.91C478.25 163.92 478.75 164.53 478.74 165.28C478.73 166.02 478.22 166.61 477.6 166.6Z" fill="#B3AFAB"/>
<path d="M470.18 166.47C469.55 166.46 469.05 165.84 469.06 165.1C469.07 164.35 469.58 163.76 470.21 163.77C470.84 163.78 471.34 164.4 471.33 165.14C471.32 165.89 470.81 166.48 470.18 166.47Z" fill="#B3AFAB"/>
</svg>
