<svg width="636" height="300" viewBox="0 0 636 300" fill="none" xmlns="http://www.w3.org/2000/svg">
<path d="M528.78 208.12L457.74 211.6C455.94 211.69 454.42 210.26 454.4 208.45L454.15 178.44C454.14 176.7 455.52 175.28 457.25 175.24L528.28 173.46C530.06 173.42 531.52 174.83 531.54 176.61L531.8 204.93C531.82 206.62 530.48 208.04 528.78 208.12Z" fill="#98C2F5"/>
<path d="M467.15 208.08L467.27 221.1L479.99 207.28L467.15 208.08Z" fill="#98C2F5"/>
<path d="M466.371 189C465.821 189 465.371 188.56 465.361 188.01C465.351 187.45 465.791 186.99 466.351 186.98L515.861 185.19C516.421 185.18 516.881 185.62 516.891 186.18C516.901 186.74 516.461 187.2 515.901 187.21L466.391 189C466.381 189 466.371 189 466.371 189Z" fill="#3E8EED"/>
<path d="M466.431 196.28C465.881 196.28 465.431 195.84 465.421 195.29C465.411 194.73 465.851 194.27 466.411 194.26L493.911 193.2C493.921 193.2 493.921 193.2 493.931 193.2C494.481 193.2 494.931 193.64 494.941 194.19C494.951 194.75 494.511 195.21 493.951 195.22L466.451 196.28C466.441 196.28 466.441 196.28 466.431 196.28Z" fill="#3E8EED"/>
<path d="M513.3 114.75L417.87 112.48C416.22 112.4 414.88 111.05 414.86 109.47L414.35 46.1598C414.34 44.5798 415.66 43.4398 417.31 43.6098L512.7 49.1198C514.1 49.2698 515.25 50.5598 515.26 52.0098L515.81 112.23C515.83 113.7 514.7 114.82 513.3 114.75Z" fill="#797673"/>
<path d="M508.3 109.93L423.57 107.86C423.05 107.83 422.63 107.41 422.63 106.91L422.16 49.9198C422.16 49.4198 422.57 49.0598 423.09 49.1198L507.79 54.1298C508.24 54.1698 508.6 54.5898 508.61 55.0498L509.11 109.14C509.11 109.6 508.75 109.95 508.3 109.93Z" fill="#AACDF6"/>
<path d="M508.67 61.9299L508.61 55.0499C508.61 54.5899 508.24 54.1799 507.79 54.1299L423.09 49.1199C422.58 49.0699 422.16 49.4299 422.16 49.9199L422.22 57.3099L508.67 61.9299Z" fill="white"/>
<path d="M500.17 77.8999L431.32 74.8399L431.24 64.8999L500.08 68.1199L500.17 77.8999Z" fill="#6BA8F1"/>
<path d="M500.27 103.48L457.1 102.31L456.93 82.6299L500.09 84.3599L500.27 103.48Z" fill="#6BA8F1"/>
<path d="M290.93 177.22C290.94 175.57 292.69 175.41 292.69 175.41L292.65 169.85C292.65 169.85 291.04 169.74 291 168.38L291.28 143.12C291.33 141.46 293.13 141.08 293.13 141.08L293.12 135C293.12 135 291.46 135.33 291.42 133.19C291.42 133.12 291.4 133.05 291.39 132.99L291.64 110.7C291.66 109.3 292.47 108.02 293.72 107.45L293.6 101.42C293.6 101.42 292.2 101.07 292.23 98.6198C292.25 96.1698 292.48 78.5098 292.63 76.3998C292.78 74.2898 294.82 73.1498 294.82 73.1498L319.27 58.0298L421.65 64.9198L421.73 235.36L318.12 243.81C318.12 243.81 294.2 240.24 292.31 239.89C290.42 239.54 290.37 237.58 290.37 237.58L290.51 212.64C290.51 212.64 290.46 210.68 292.42 210.46C292.65 208.42 292.43 204.74 292.43 204.74C291.4 204.77 290.57 203.93 290.58 202.86C290.57 202.84 290.92 178.08 290.93 177.22Z" fill="#797673"/>
<path d="M293.12 134.99L319.83 128.73L319.57 135.01C319.57 135.01 317.76 135.48 315.57 136.05C314.19 136.41 293.12 141.09 293.12 141.09V134.99Z" fill="#605D5A"/>
<path d="M293.6 101.48L319.71 89.7898L319.45 96.0498L293.48 107.54L293.6 101.48Z" fill="#605D5A"/>
<path d="M292.71 175.49L292.65 169.83L319.51 164.68L319.64 171.04L292.71 175.49Z" fill="#605D5A"/>
<path d="M292.44 210.39L292.38 204.72L319.58 204.91L319.54 210.89L292.44 210.39Z" fill="#605D5A"/>
<path d="M319.53 90.6399L424.22 94.3599C425.06 94.3599 425.74 93.5999 425.78 92.6399L425.52 65.4799C425.56 64.4499 424.84 63.5899 423.94 63.5899L319.71 57.8999C318.8 57.8999 318.06 58.7099 318.06 59.7199L317.86 88.7699C317.85 89.8099 318.61 90.6499 319.53 90.6399Z" fill="#B3AFAB"/>
<path d="M346.35 80.0799L408.68 82.5499L408.59 69.5999L346.28 66.9199L346.35 80.0799Z" fill="#522CD5"/>
<path d="M354.74 78.3299L400.66 80.3499L400.6 70.8099L354.68 68.6799L354.74 78.3299Z" fill="#957EE6"/>
<path d="M325.84 73.1C325.85 75.25 327.42 76.99 329.35 76.99C331.27 76.99 332.82 75.25 332.81 73.11C332.8 70.97 331.23 69.22 329.31 69.22C327.38 69.21 325.83 70.95 325.84 73.1Z" fill="white"/>
<path d="M375.52 72.8298L357.85 72.0798L357.87 75.7698L375.55 76.4998L375.52 72.8298Z" fill="white"/>
<path d="M319.55 128.74L424.35 129.53C425.19 129.5 425.87 128.73 425.91 127.76L425.65 100.56C425.69 99.5299 424.96 98.6899 424.07 98.7099L319.74 95.9399C318.83 95.9599 318.09 96.7899 318.09 97.8099L317.89 126.92C317.87 127.95 318.62 128.77 319.55 128.74Z" fill="#B3AFAB"/>
<path d="M346.4 117.4L408.79 118.12L408.7 105.16L346.33 104.22L346.4 117.4Z" fill="#522CD5"/>
<path d="M354.79 115.41L400.76 116.14L400.7 106.59L354.74 105.75L354.79 115.41Z" fill="#957EE6"/>
<path d="M325.86 110.98C325.87 113.13 327.44 114.83 329.37 114.78C331.29 114.73 332.84 112.94 332.83 110.79C332.82 108.64 331.25 106.94 329.33 106.99C327.41 107.04 325.85 108.83 325.86 110.98Z" fill="white"/>
<path d="M375.6 109.32L357.91 109.06L357.93 112.76L375.62 112.99L375.6 109.32Z" fill="white"/>
<path d="M319.51 164.71L423.33 163.47C424.4 163.43 425.26 162.4 425.26 161.18L425.6 136.7C425.6 135.44 424.7 134.45 423.6 134.51L320.22 134.92C319.13 134.98 317.86 136.06 317.82 137.28L317.43 162.4C317.4 163.71 318.34 164.76 319.51 164.71Z" fill="#B3AFAB"/>
<path d="M345 154.73L408.31 154.61L408.22 142.01L344.93 141.91L345 154.73Z" fill="#522CD5"/>
<path d="M352.98 152.82L400.54 152.7L400.48 143.21H352.93L352.98 152.82Z" fill="#957EE6"/>
<path d="M325.7 148.05C325.71 150.42 327.44 152.28 329.56 152.2C331.68 152.12 333.39 150.13 333.37 147.77C333.36 145.4 331.63 143.55 329.51 143.62C327.4 143.69 325.68 145.67 325.7 148.05Z" fill="white"/>
<path d="M373.98 146.28L356.26 146.25L356.28 149.95L374.01 149.97L373.98 146.28Z" fill="white"/>
<path d="M319.58 204.94L423.62 201.15C424.55 201.04 425.28 200.13 425.29 199.06L425.54 171.11C425.55 169.97 424.74 169.07 423.75 169.11L319.48 171.1C318.47 171.14 317.64 172.07 317.61 173.2L317.6 202.87C317.56 204.1 318.48 205.06 319.58 204.94Z" fill="#B3AFAB"/>
<path d="M325.31 184.88C325.32 187.26 327.05 189.1 329.18 189C331.3 188.9 333.01 186.89 333 184.52C332.99 182.15 331.26 180.3 329.14 180.4C327.01 180.5 325.3 182.5 325.31 184.88Z" fill="white"/>
<path d="M343.72 191.37L407.14 189.52L407.05 176.89L343.65 178.52L343.72 191.37Z" fill="#522CD5"/>
<path d="M351.72 189.38L399.35 188.1L399.29 178.59L351.66 179.75L351.72 189.38Z" fill="#957EE6"/>
<path d="M372.75 182.34L355 182.76L355.02 186.47L372.78 186.04L372.75 182.34Z" fill="white"/>
<path d="M318.35 243.85L423.53 237.67C424.37 237.59 425.06 236.76 425.09 235.79L424.83 208.45C424.87 207.41 424.14 206.61 423.24 206.7L318.54 210.85C317.63 210.93 316.89 211.82 316.88 212.84L316.68 242.14C316.67 243.17 317.42 243.95 318.35 243.85Z" fill="#B3AFAB"/>
<path d="M345.3 230.66L407.92 227.24L407.83 214.21L345.23 217.41L345.3 230.66Z" fill="#522CD5"/>
<path d="M353.73 228.11L399.86 225.78L399.8 216.18L353.68 218.39L353.73 228.11Z" fill="#957EE6"/>
<path d="M324.69 225.58C324.7 227.74 326.28 229.35 328.21 229.17C330.14 228.99 331.7 227.09 331.69 224.93C331.68 222.77 330.11 221.16 328.17 221.34C326.24 221.51 324.68 223.41 324.69 225.58Z" fill="white"/>
<path d="M374.61 220.59L356.85 221.51L356.87 225.23L374.64 224.29L374.61 220.59Z" fill="white"/>
<path d="M553.65 128.04C553.82 145.6 540.36 160.07 523.12 160.37C505.35 160.68 490.39 145.88 490.23 127.32C490.07 108.77 504.75 94.33 522.51 95.04C539.75 95.73 553.48 110.49 553.65 128.04Z" fill="#84817D"/>
<path d="M538.53 119.83C538.44 110.73 531.27 103.12 522.39 102.83C513.37 102.53 506.01 109.87 506.1 119.23C506.13 122.94 507.35 126.38 509.36 129.19H509.35C516.34 138.33 516.72 145.84 516.72 145.84L520.26 145.82L525.35 145.8L528.84 145.78C528.84 145.78 528.77 138.76 535.36 129.85H535.33C537.36 127.08 538.56 123.62 538.53 119.83Z" fill="#F7B548"/>
<path d="M534.48 117.31C534.32 117.01 533.96 116.88 533.67 117.04C532.27 117.8 530.41 118.38 528.31 118.74L528.58 116.44C528.62 116.1 528.38 115.78 528.05 115.73C527.72 115.68 527.42 115.91 527.38 116.25L527.07 118.93C525.6 119.12 524.04 119.21 522.45 119.18C521.07 119.15 519.71 119.04 518.41 118.85L518.03 116.05C517.98 115.7 517.68 115.45 517.34 115.49C517 115.53 516.77 115.84 516.82 116.18L517.15 118.63C514.96 118.22 512.98 117.6 511.41 116.79C511.1 116.63 510.73 116.75 510.58 117.06C510.43 117.37 510.56 117.75 510.87 117.91C512.63 118.82 514.86 119.5 517.32 119.93L521.05 147.41C521.09 147.73 521.36 147.96 521.66 147.95C521.69 147.95 521.71 147.95 521.74 147.94C522.07 147.89 522.31 147.58 522.26 147.23L518.59 120.11C519.85 120.28 521.15 120.38 522.47 120.41C524.01 120.44 525.51 120.35 526.93 120.19L523.78 147.23C523.74 147.57 523.98 147.89 524.31 147.93C524.34 147.93 524.36 147.93 524.39 147.93C524.69 147.93 524.95 147.7 524.99 147.38L528.18 120.02C530.55 119.64 532.65 119 534.27 118.12C534.54 117.99 534.64 117.61 534.48 117.31Z" fill="white"/>
<path d="M528.82 145.74L516.69 145.8L516.77 155.18L518.92 155.16L519.86 156.95L525.86 156.86L526.75 155.06L528.91 155.03L528.82 145.74Z" fill="#B3AFAB"/>
<path d="M528.88 152.37L516.75 152.5L516.74 151.7L528.88 151.58V152.37Z" fill="#E6E6E6"/>
<path d="M528.86 149.25L516.72 149.34L516.71 148.54L528.85 148.46L528.86 149.25Z" fill="#E6E6E6"/>
<path d="M263.72 76.4599C263.71 74.5199 262.1 72.8099 260.11 72.6299L163.19 67.1099C160.64 66.8799 158.57 68.4799 158.57 70.6799L158.67 120.42C158.67 122.63 160.75 124.46 163.31 124.52L236.75 125.61L248.65 138.09L248.49 125.79L260.35 125.97C262.34 126.01 263.95 124.47 263.94 122.53L263.72 76.4599Z" fill="#BBACEF"/>
<path d="M307.25 84.1899L223.92 81.4899C222.6 81.4499 221.55 80.3599 221.54 79.0399L221.43 44.2399C221.43 42.8299 222.61 41.6999 224.02 41.7799L307.48 46.2599C308.78 46.3299 309.81 47.4099 309.81 48.7199L309.78 81.7499C309.78 83.1199 308.63 84.2299 307.25 84.1899Z" fill="#F7B548"/>
<path d="M272.97 81.3599L273.02 95.0899L286.64 82.5199L272.97 81.3599Z" fill="#F7B548"/>
<path d="M292.6 60.7998C292.58 60.7998 292.55 60.7998 292.53 60.7998L235.93 58.1898C235.45 58.1498 235.09 57.7298 235.13 57.2498C235.17 56.7698 235.58 56.4098 236.07 56.4498L292.67 59.0598C293.15 59.0998 293.51 59.5198 293.47 59.9998C293.43 60.4598 293.05 60.7998 292.6 60.7998Z" fill="#FFEED0"/>
<path d="M267.65 67.6C267.63 67.6 267.61 67.6 267.59 67.6L235.97 66.2C235.49 66.17 235.13 65.75 235.16 65.27C235.19 64.79 235.62 64.42 236.09 64.46L267.71 65.86C268.19 65.89 268.55 66.31 268.52 66.79C268.48 67.25 268.1 67.6 267.65 67.6Z" fill="#FFEED0"/>
<path d="M246.721 94.2999C246.701 94.2999 246.691 94.2999 246.671 94.2999L192.371 92.7599C191.941 92.7299 191.611 92.3599 191.641 91.9299C191.671 91.4999 192.041 91.1699 192.471 91.1999L246.771 92.7399C247.201 92.7699 247.531 93.1399 247.501 93.5699C247.471 93.9799 247.131 94.2999 246.721 94.2999Z" fill="#7E62DF"/>
<path d="M246.751 102.25C246.741 102.25 246.721 102.25 246.711 102.25L192.401 101.19C191.971 101.17 191.641 100.8 191.661 100.37C191.681 99.9398 192.041 99.6098 192.481 99.6298L246.791 100.69C247.221 100.71 247.551 101.08 247.531 101.51C247.501 101.93 247.161 102.25 246.751 102.25Z" fill="#7E62DF"/>
<path d="M223.27 110.16C223.26 110.16 223.25 110.16 223.24 110.16L192.43 109.62C192 109.6 191.67 109.24 191.68 108.81C191.7 108.38 192.08 108.05 192.49 108.06L223.3 108.6C223.73 108.62 224.06 108.98 224.05 109.41C224.03 109.83 223.68 110.16 223.27 110.16Z" fill="#7E62DF"/>
<path d="M186.04 88.6698C187.62 82.6298 186.56 77.6198 186.56 77.6198L188.01 77.7398L188.05 77.7198C185.92 66.2198 175.96 56.8198 164.04 55.8298C150.61 54.7198 139.77 64.7098 139.83 78.1398C139.89 91.5798 150.83 103.37 164.26 104.48C174.86 105.36 183.84 99.3198 187.13 90.1398C187.22 89.7498 187.21 89.0198 186.04 88.6698Z" fill="url(#paint0_radial)"/>
<path d="M185.22 94.22L143.23 90.74C144.18 92.42 145.3 93.99 146.58 95.44L181.91 98.37C183.18 97.13 184.29 95.74 185.22 94.22Z" fill="#D8CFF7"/>
<path d="M172.31 98.8899L180.19 99.5399L180.16 92.5699L172.28 91.9199L172.31 98.8899Z" fill="#512BD4"/>
<path d="M173.67 96.4C173.62 96.4 173.57 96.37 173.54 96.34C173.5 96.3 173.48 96.26 173.48 96.21C173.48 96.16 173.5 96.12 173.53 96.09C173.57 96.06 173.61 96.04 173.66 96.05C173.71 96.05 173.76 96.08 173.8 96.12C173.84 96.16 173.86 96.2 173.86 96.25C173.86 96.3 173.84 96.34 173.8 96.37C173.77 96.39 173.72 96.41 173.67 96.4Z" fill="white"/>
<path d="M175.77 96.55L175.43 96.52L174.53 95.03C174.51 94.99 174.49 94.95 174.47 94.91H174.46C174.47 94.95 174.47 95.04 174.47 95.18V96.44L174.17 96.41V94.48L174.53 94.51L175.4 95.97C175.44 96.03 175.46 96.07 175.47 96.09H175.48C175.47 96.04 175.47 95.95 175.47 95.83V94.59L175.77 94.62V96.55Z" fill="white"/>
<path d="M177.231 96.6799L176.181 96.5899V94.6599L177.191 94.7499V95.0199L176.491 94.9599V95.5099L177.141 95.5699V95.8399L176.491 95.7799V96.3499L177.231 96.4099V96.6799Z" fill="white"/>
<path d="M178.73 95.15L178.19 95.1V96.76L177.88 96.73V95.07L177.34 95.02V94.75L178.73 94.87V95.15Z" fill="white"/>
<path d="M186.09 88.67C187.65 82.71 186.64 77.75 186.61 77.62L161.38 75.53C161.38 75.53 159.79 75.24 159.8 76.69C159.81 78.14 159.88 82.25 159.91 86.79C159.91 87.72 160.68 88.24 161.28 88.29C161.27 88.29 185.46 89.63 186.09 88.67Z" fill="url(#paint1_radial)"/>
<path d="M171.041 87.4399C171.041 87.4399 174.911 84.6899 175.661 84.1799C176.411 83.6699 177.081 83.6999 177.771 84.3599C178.471 85.0199 182.371 88.3799 182.371 88.3799L171.041 87.4399Z" fill="#A08BE8"/>
<path d="M187.03 90.4398C187.03 90.4398 187.75 89.1698 186.09 88.6698C186.09 88.6598 161.28 86.5898 161.28 86.5898C160.7 86.5398 159.96 86.1398 159.89 85.5698C159.89 85.9698 159.9 86.3798 159.9 86.7898C159.9 87.6398 160.53 88.1398 161.1 88.2598C161.16 88.2698 161.21 88.2798 161.27 88.2898L162.97 88.4298L187.03 90.4398Z" fill="#512BD4"/>
<path d="M167.537 84.7825C168.584 84.7127 169.337 83.2221 169.219 81.4532C169.101 79.6842 168.157 78.3068 167.11 78.3766C166.063 78.4464 165.309 79.9369 165.427 81.7059C165.545 83.4748 166.49 84.8522 167.537 84.7825Z" fill="#512BD4"/>
<path d="M182.762 86.0327C183.811 85.9935 184.607 84.53 184.541 82.7639C184.475 80.9978 183.571 79.5979 182.523 79.6372C181.474 79.6764 180.678 81.1399 180.744 82.906C180.81 84.6721 181.713 86.072 182.762 86.0327Z" fill="#512BD4"/>
<path d="M167.29 79.9798C167.68 79.6198 168.2 79.4998 168.71 79.5798C169.01 80.1598 169.2 80.9098 169.22 81.7098C169.23 82.2098 169.17 82.6798 169.06 83.0898C168.46 83.2098 167.79 83.0098 167.31 82.4898C166.61 81.7398 166.6 80.6098 167.29 79.9798Z" fill="#8065E0"/>
<path d="M182.6 81.14C182.99 80.78 183.51 80.66 184.02 80.74C184.35 81.35 184.54 82.15 184.54 83.02C184.54 83.46 184.48 83.88 184.38 84.25C183.78 84.38 183.1 84.17 182.62 83.65C181.92 82.91 181.91 81.78 182.6 81.14Z" fill="#8065E0"/>
<path d="M161.69 54.2601L166.23 54.6201L165.45 46.3201L162.19 46.0601L161.69 54.2601Z" fill="#8A6FE8"/>
<path d="M164.65 49.4999C163 49.7999 161.29 48.6799 160.84 46.9999C160.39 45.3199 161.36 43.7299 163.01 43.4299C164.66 43.1299 166.37 44.2499 166.82 45.9299C167.28 47.6099 166.31 49.2099 164.65 49.4999Z" fill="#D8CFF7"/>
<path d="M159.99 56.9399C159.79 56.9199 159.62 56.7299 159.64 56.5399C159.85 54.4299 161.66 52.9099 163.88 53.0799C166.1 53.2599 167.95 55.0599 168.22 57.2199C168.24 57.4199 168.08 57.5899 167.88 57.5699L159.99 56.9399Z" fill="#522CD5"/>
<path d="M293.72 216.27L200.82 220.13C197.07 220.29 194.08 217.56 194.14 214.04L195.16 154.98C195.28 147.96 198.25 148.6 202.05 148.55L294.7 147.47C298.14 147.43 300.89 150.11 300.84 153.47L300.05 209.92C300 213.28 297.17 216.13 293.72 216.27Z" fill="#6BA8F1"/>
<path d="M300.74 160.36L300.87 151.13C300.9 149.07 299.22 147.43 297.11 147.45L199.44 147.27C197.14 147.3 195.25 149.06 195.21 151.21L195.06 161.08L300.74 160.36Z" fill="#AACDF6"/>
<path d="M207.27 155.7C207.25 157.15 205.97 158.35 204.42 158.38C202.87 158.4 201.63 157.24 201.65 155.79C201.67 154.33 202.96 153.14 204.51 153.11C206.06 153.09 207.29 154.25 207.27 155.7Z" fill="#6BA8F1"/>
<path d="M217.27 155.56C217.25 157.01 215.98 158.2 214.44 158.22C212.9 158.24 211.67 157.09 211.69 155.64C211.71 154.19 212.98 153 214.52 152.98C216.07 152.95 217.29 154.11 217.27 155.56Z" fill="#6BA8F1"/>
<path d="M227.19 155.41C227.17 156.85 225.91 158.04 224.39 158.06C222.86 158.08 221.64 156.93 221.67 155.49C221.69 154.05 222.95 152.86 224.48 152.84C226 152.82 227.21 153.97 227.19 155.41Z" fill="#6BA8F1"/>
<path d="M236.85 199.41L214.71 190.84L214.75 188.68L237.2 177.57L237.15 180.83L218.92 189.46L236.91 196.11L236.85 199.41Z" fill="white"/>
<path d="M256.34 172.31L243.46 204.46L239.66 204.6L252.59 172.4L256.34 172.31Z" fill="white"/>
<path d="M258.8 195.4L276.43 187.83L259.03 180.26L259.08 177.03L280.39 186.79L280.36 188.89L258.75 198.67L258.8 195.4Z" fill="white"/>
<path d="M179.93 255.16L137.39 257.87C136.18 258.02 135.2 257.13 135.19 255.88L134.95 164.42C134.95 163.17 135.93 162.13 137.13 162.09L180.01 161.27C181.11 161.24 182.01 162.18 182.01 163.37L181.91 252.75C181.92 253.94 181.03 255.02 179.93 255.16Z" fill="#605D5A"/>
<path d="M181.18 255.16L138.64 257.87C137.43 258.02 136.45 257.13 136.44 255.88L136.2 164.42C136.2 163.17 137.18 162.13 138.38 162.09L181.26 161.27C182.36 161.24 183.26 162.18 183.26 163.37L183.16 252.75C183.18 253.94 182.29 255.02 181.18 255.16Z" fill="#84817D"/>
<path d="M179.38 245.99L140.64 248.13C140.17 248.19 139.78 247.83 139.78 247.34L139.58 172.41C139.58 171.92 139.96 171.51 140.43 171.49L179.43 170.91C179.87 170.89 180.22 171.26 180.22 171.73L180.15 245.05C180.17 245.52 179.82 245.94 179.38 245.99Z" fill="#F7B548"/>
<path d="M147.74 197.95C150.165 197.95 152.13 195.788 152.13 193.12C152.13 190.453 150.165 188.29 147.74 188.29C145.316 188.29 143.35 190.453 143.35 193.12C143.35 195.788 145.316 197.95 147.74 197.95Z" fill="#FFEED0"/>
<path d="M147.74 213.33C150.165 213.33 152.13 211.167 152.13 208.5C152.13 205.832 150.165 203.67 147.74 203.67C145.316 203.67 143.35 205.832 143.35 208.5C143.35 211.167 145.316 213.33 147.74 213.33Z" fill="#FFEED0"/>
<path d="M147.74 228.71C150.165 228.71 152.13 226.548 152.13 223.88C152.13 221.213 150.165 219.05 147.74 219.05C145.316 219.05 143.35 221.213 143.35 223.88C143.35 226.548 145.316 228.71 147.74 228.71Z" fill="#FFEED0"/>
<path d="M157.05 191.27C156.3 191.27 155.69 190.71 155.68 190C155.67 189.29 156.28 188.71 157.03 188.7L174.88 188.11C174.89 188.11 174.89 188.11 174.89 188.11C175.64 188.11 176.25 188.67 176.26 189.38C176.27 190.09 175.66 190.67 174.91 190.68L157.06 191.27C157.06 191.27 157.06 191.27 157.05 191.27Z" fill="#FCD18A"/>
<path d="M157.05 196.4C156.3 196.4 155.69 195.84 155.68 195.13C155.67 194.42 156.28 193.84 157.03 193.83L174.88 193.24C174.89 193.24 174.89 193.24 174.89 193.24C175.64 193.24 176.25 193.8 176.26 194.51C176.27 195.22 175.66 195.8 174.91 195.81L157.06 196.4C157.06 196.4 157.06 196.4 157.05 196.4Z" fill="#FCD18A"/>
<path d="M157.05 206.65C156.3 206.65 155.69 206.09 155.68 205.38C155.67 204.67 156.28 204.09 157.03 204.08L174.97 203.3C174.98 203.3 174.98 203.3 174.98 203.3C175.73 203.3 176.34 203.86 176.35 204.57C176.36 205.28 175.75 205.86 175 205.87L157.06 206.65C157.06 206.65 157.06 206.65 157.05 206.65Z" fill="#FCD18A"/>
<path d="M157.05 211.78C156.3 211.78 155.69 211.22 155.68 210.51C155.67 209.8 156.28 209.22 157.03 209.21L174.97 208.43C174.98 208.43 174.98 208.43 174.98 208.43C175.73 208.43 176.34 208.99 176.35 209.7C176.36 210.41 175.75 210.99 175 211L157.06 211.78C157.06 211.78 157.06 211.78 157.05 211.78Z" fill="#FCD18A"/>
<path d="M157.05 222.03C156.3 222.03 155.69 221.47 155.68 220.76C155.67 220.05 156.28 219.47 157.03 219.46L174.97 218.63C174.98 218.63 174.98 218.63 174.98 218.63C175.73 218.63 176.34 219.19 176.35 219.9C176.36 220.61 175.75 221.19 175 221.2L157.06 222.03C157.06 222.03 157.06 222.03 157.05 222.03Z" fill="#FCD18A"/>
<path d="M157.05 227.15C156.3 227.15 155.69 226.59 155.68 225.88C155.67 225.17 156.28 224.59 157.03 224.58L174.89 223.67C174.9 223.67 174.9 223.67 174.9 223.67C175.65 223.67 176.26 224.23 176.27 224.94C176.28 225.65 175.67 226.23 174.92 226.24L157.06 227.15C157.06 227.15 157.06 227.15 157.05 227.15Z" fill="#FCD18A"/>
<defs>
<radialGradient id="paint0_radial" cx="0" cy="0" r="1" gradientUnits="userSpaceOnUse" gradientTransform="translate(165.61 66.7591) rotate(-175.261) scale(22.1575 22.0068)">
<stop offset="0.4744" stop-color="#A08BE8"/>
<stop offset="0.8618" stop-color="#8065E0"/>
</radialGradient>
<radialGradient id="paint1_radial" cx="0" cy="0" r="1" gradientUnits="userSpaceOnUse" gradientTransform="translate(185.934 73.9537) rotate(-175.261) scale(25.1838 25.0125)">
<stop offset="0.0933" stop-color="#E1DFDD"/>
<stop offset="0.6573" stop-color="white"/>
</radialGradient>
</defs>
</svg>
