<svg width="636" height="300" viewBox="0 0 636 300" fill="none" xmlns="http://www.w3.org/2000/svg">
<path d="M449.29 133.11L342.05 130.56C340.2 130.47 338.69 128.95 338.67 127.18L337.54 55.48C337.53 53.71 339.02 52.43 340.86 52.62L448.61 59.37C450.19 59.53 451.47 60.99 451.49 62.62L452.11 130.29C452.13 131.93 450.87 133.19 449.29 133.11Z" fill="#797673"/>
<path d="M443.67 127.69L348.46 125.36C347.88 125.33 347.41 124.85 347.4 124.29L346.88 60.25C346.88 59.69 347.34 59.2899 347.92 59.3499L443.09 64.98C443.59 65.03 444 65.49 444.01 66.01L444.57 126.8C444.58 127.32 444.18 127.72 443.67 127.69Z" fill="#F7B548"/>
<path d="M410.13 226.45V111.37C410.13 108.88 408.35 106.73 406.14 106.57L248.98 100.53C246.25 100.33 244.03 102.42 244.03 105.2C244.03 105.2 244.03 216.95 244.03 219.5C244.03 222.05 246.11 223.33 246.11 223.33L410.13 226.45Z" fill="#B3AFAB"/>
<path fill-rule="evenodd" clip-rule="evenodd" d="M252.81 207.12C252.81 208.46 253.97 209.66 255.27 209.66L400.92 206.44C402.08 206.45 403.01 205.4 403.01 204.1V118.54C403.01 117.24 402.07 116.12 400.92 116.05L255.5 111.88C254.02 111.78 252.81 112.94 252.81 114.45V206.69" fill="#848484"/>
<path d="M412.22 226.45V111.37C412.22 108.88 410.44 106.73 408.23 106.57L251.07 100.53C248.34 100.33 246.12 102.42 246.12 105.2V225.01L412.22 226.45Z" fill="#625F5B"/>
<path fill-rule="evenodd" clip-rule="evenodd" d="M254.9 207.12C254.9 208.46 256.06 209.66 257.36 209.66L403.01 206.44C404.17 206.45 405.1 205.4 405.1 204.1V118.54C405.1 117.24 404.16 116.12 403.01 116.05L257.59 111.88C256.11 111.78 254.9 112.94 254.9 114.45V206.69" fill="#A7A4A0"/>
<path d="M246.1 223.43V225.62C246.1 226.38 246.65 227.03 247.39 227.15L316.94 239.05C318.82 239.37 322.57 239.67 324.51 239.64L490.16 230.83C490.6 230.81 490.94 230.44 490.94 230.01V228.03C490.94 227.5 490.52 227.08 489.99 227.07L265.36 223.99L246.1 223.43Z" fill="#9C9894"/>
<path d="M246.1 223.16L318.38 234.64C321.02 235.06 323.72 235.25 326.42 235.22L489.79 227.09L411.57 218.15L246.1 223.16Z" fill="#CCCAC7"/>
<path d="M472.56 205.23L436.52 205.87C434.01 205.85 431.99 203.78 431.99 201.24V122.25C431.99 119.62 434.14 117.51 436.73 117.62L472.77 119.1C475.21 119.2 477.14 121.24 477.14 123.73V200.59C477.15 203.17 475.09 205.24 472.56 205.23Z" fill="#605D5A"/>
<path d="M471.73 202.06L437.39 202.71C436.04 202.7 434.94 201.58 434.94 200.21V123.15C434.94 121.73 436.1 120.59 437.5 120.65L471.84 122.06C473.16 122.11 474.2 123.22 474.2 124.56V199.56C474.2 200.94 473.09 202.07 471.73 202.06Z" fill="#3E8EED"/>
<path d="M293.62 199.63C283.7 202.62 281.61 206.89 278.49 213.71C275.37 220.53 266.83 243.25 269.54 253.94C271.55 261.87 280.99 262.91 285.36 262.69C289.73 262.46 293.62 199.63 293.62 199.63Z" fill="#42403C"/>
<path d="M359.91 199.78C357.82 198.89 352.89 196.77 347.8 196.41C345.5 196.25 342.36 198.39 340.56 198.38C339.44 198.38 316.03 198.29 314.85 198.29C312.95 198.28 309.54 196.04 307.05 196.18C301.47 196.5 295.98 198.69 293.62 199.63C292.11 200.23 290.7 202.42 288.57 206.64L364.41 206.28C362.5 202.38 361.24 200.34 359.91 199.78Z" fill="#E6E4E3"/>
<path d="M367.2 208.57C365.67 205.14 364.66 204.43 362.78 203.26C360.89 202.09 352.25 199.75 349.27 199.03C346.28 198.31 344.03 199.73 342.52 199.73C341.58 199.73 336.56 199.72 331.74 199.71C329.97 199.71 327.07 199.7 324.05 199.69C319.1 199.68 313.84 199.67 312.85 199.67C311.24 199.67 308.8 198.17 305.56 198.91C302.3 199.65 292.61 202.12 290.45 203.38C288.29 204.65 287.13 205.43 285.41 209.17C284.15 211.92 273.22 235.56 273.74 248.83C274.25 261.99 283.24 262.7 286.04 262.67C288.82 262.64 294.65 255.51 300.45 249.38C306.2 243.3 311.13 244.04 315.55 243.85C316.06 243.83 316.67 243.8 317.35 243.77C322.47 243.55 331.84 243.16 339.18 242.84C339.83 242.81 340.41 242.79 340.89 242.77C345.05 242.59 349.58 241.5 354.91 246.8C360.16 252.03 365.33 258.06 367.7 257.8C370.05 257.53 377.43 255.98 377.6 244.1C377.77 232.14 368.32 211.07 367.2 208.57Z" fill="#6D6A66"/>
<path d="M353.3 243.43C350.74 241.35 347.47 241.18 344.3 241.31C343.17 241.36 313.32 242.58 312.12 242.63C308.71 242.77 306.86 243.83 304.09 246.25C307.11 244.27 311.13 244.02 315.55 243.83C316.06 243.81 337.21 243.23 337.69 243.21C341.85 243.03 346.38 241.94 351.71 247.24C356.96 252.47 362.48 258.54 367.69 257.78C368.11 257.73 368.7 257.64 369.37 257.46C364.72 253.37 355.23 245.01 353.3 243.43Z" fill="#42403C"/>
<path d="M308.07 214.22C308.13 218.1 304.74 221.31 300.45 221.39C296.12 221.47 292.52 218.36 292.44 214.42C292.36 210.47 295.84 207.24 300.19 207.22C304.49 207.19 308.01 210.33 308.07 214.22Z" fill="#42403C"/>
<path d="M305.45 214.25C305.49 216.82 303.24 218.94 300.4 218.99C297.54 219.04 295.17 216.98 295.12 214.38C295.07 211.78 297.36 209.65 300.22 209.63C303.07 209.6 305.41 211.67 305.45 214.25Z" fill="#605D5A"/>
<path d="M322.4 228.92C322.45 233.16 318.77 236.71 314.12 236.88C309.43 237.05 305.54 233.7 305.47 229.39C305.39 225.07 309.18 221.49 313.89 221.39C318.55 221.3 322.34 224.67 322.4 228.92Z" fill="#42403C"/>
<path d="M357.97 207.66C357.97 209.48 356.45 210.96 354.55 210.98C352.65 211 351.1 209.53 351.09 207.7C351.08 205.87 352.63 204.38 354.53 204.38C356.44 204.37 357.97 205.84 357.97 207.66Z" fill="#908D89"/>
<path d="M358 219.57C358 221.37 356.48 222.87 354.6 222.91C352.71 222.95 351.16 221.52 351.15 219.7C351.14 217.88 352.68 216.38 354.58 216.36C356.46 216.32 357.99 217.76 358 219.57Z" fill="#908D89"/>
<path d="M360.77 216.85C358.9 216.88 357.37 215.44 357.37 213.63C357.37 211.82 358.89 210.33 360.77 210.32C362.64 210.3 364.15 211.75 364.15 213.55C364.14 215.34 362.63 216.82 360.77 216.85Z" fill="#908D89"/>
<path d="M348.3 217.05C346.38 217.08 344.8 215.62 344.79 213.79C344.78 211.95 346.34 210.45 348.26 210.43C350.18 210.41 351.73 211.88 351.74 213.7C351.76 215.52 350.22 217.02 348.3 217.05Z" fill="#908D89"/>
<path d="M347.28 227.52C347.3 230.48 344.77 232.96 341.62 233.06C338.45 233.16 335.85 230.82 335.82 227.83C335.79 224.83 338.37 222.34 341.55 222.27C344.7 222.2 347.26 224.55 347.28 227.52Z" fill="#42403C"/>
<path d="M349.28 199.03C346.29 198.31 344.04 199.73 342.53 199.73C341.59 199.73 336.57 199.72 331.75 199.71C329.98 199.71 327.08 199.7 324.06 199.69C319.11 199.68 313.85 199.67 312.86 199.67C311.25 199.67 308.81 198.17 305.57 198.91C304.79 199.09 303.63 199.36 302.31 199.7C304.75 199.1 306.89 199.13 309.26 201.38C310.95 202.98 315.1 206.66 317.31 208.6C318.24 209.42 319.47 209.87 320.75 209.86L325.89 209.82L330.33 209.78L335.37 209.74C336.6 209.73 337.78 209.27 338.66 208.46C340.72 206.54 344.56 202.95 346.1 201.4C347.97 199.52 349.7 199.27 351.58 199.62C350.64 199.37 349.85 199.17 349.28 199.03Z" fill="url(#paint0_radial)"/>
<path d="M320 226.57L316.48 226.66L316.43 223.34C316.42 222.95 316.07 222.64 315.65 222.65L312.17 222.72C311.74 222.73 311.4 223.06 311.4 223.45L311.45 226.79L307.86 226.88C307.38 226.89 307 227.25 307.01 227.69L307.06 230.75C307.07 231.18 307.46 231.52 307.94 231.51L311.52 231.4L311.57 234.72C311.58 235.11 311.93 235.42 312.36 235.4L315.83 235.28C316.25 235.27 316.59 234.94 316.59 234.55L316.54 231.24L320.06 231.14C320.52 231.13 320.9 230.77 320.89 230.34L320.85 227.32C320.85 226.9 320.46 226.56 320 226.57Z" fill="#605D5A"/>
<path d="M332.13 204.99C332.15 207.09 330.35 208.81 328.1 208.82C325.84 208.84 323.98 207.13 323.95 205.02C323.92 202.9 325.75 201.18 328.02 201.18C330.27 201.18 332.11 202.89 332.13 204.99Z" fill="#E1DFDD"/>
<path d="M422.63 73.37L373.36 71C370.32 70.85 367.78 73.28 367.78 76.32V88.35C367.78 91.2 370.03 93.55 372.88 93.67L375.36 93.77V99.29L383.15 94.09L422.14 95.73C425.17 95.86 427.69 93.44 427.69 90.41V78.69C427.69 75.85 425.46 73.51 422.63 73.37Z" fill="white"/>
<path d="M368.19 140.63L299.24 139.77C295.31 139.72 292.1 142.89 292.1 146.82V161.65C292.1 165.55 295.26 168.7 299.15 168.7H303.75V177.35L313.19 168.7H368.1C372 168.7 375.15 165.54 375.15 161.65V147.68C375.16 143.83 372.05 140.68 368.19 140.63Z" fill="white"/>
<path d="M305.01 160.08C306.507 160.08 307.72 158.867 307.72 157.37C307.72 155.873 306.507 154.66 305.01 154.66C303.513 154.66 302.3 155.873 302.3 157.37C302.3 158.867 303.513 160.08 305.01 160.08Z" fill="#29C3E5"/>
<path d="M316.2 160.08C317.696 160.08 318.91 158.867 318.91 157.37C318.91 155.873 317.696 154.66 316.2 154.66C314.703 154.66 313.49 155.873 313.49 157.37C313.49 158.867 314.703 160.08 316.2 160.08Z" fill="#29C3E5"/>
<path d="M327.38 160.08C328.877 160.08 330.09 158.867 330.09 157.37C330.09 155.873 328.877 154.66 327.38 154.66C325.883 154.66 324.67 155.873 324.67 157.37C324.67 158.867 325.883 160.08 327.38 160.08Z" fill="#29C3E5"/>
<path d="M407.21 81.27C407.19 81.27 407.17 81.27 407.15 81.27L377.18 79.6C376.56 79.57 376.09 79.04 376.13 78.42C376.16 77.8 376.67 77.3301 377.31 77.3701L407.28 79.04C407.9 79.07 408.37 79.6 408.33 80.22C408.3 80.81 407.8 81.27 407.21 81.27Z" fill="#F7B548"/>
<path d="M419.7 88.35C419.68 88.35 419.66 88.35 419.65 88.35L377.19 86.32C376.57 86.29 376.1 85.77 376.13 85.15C376.16 84.53 376.69 84.07 377.3 84.09L419.76 86.12C420.38 86.15 420.85 86.67 420.82 87.29C420.79 87.88 420.29 88.35 419.7 88.35Z" fill="#F7B548"/>
<path d="M443.84 156.64C447.115 156.64 449.77 153.985 449.77 150.71C449.77 147.435 447.115 144.78 443.84 144.78C440.565 144.78 437.91 147.435 437.91 150.71C437.91 153.985 440.565 156.64 443.84 156.64Z" fill="#AACDF6"/>
<path d="M469.86 162.86L439.88 162.65C439.26 162.65 438.76 162.14 438.77 161.52C438.77 160.9 439.27 160.41 439.89 160.41H439.9L469.87 160.62C470.49 160.62 470.99 161.13 470.98 161.75C470.98 162.37 470.48 162.86 469.86 162.86Z" fill="#AACDF6"/>
<path d="M469.76 169.52L439.89 169.36C439.27 169.36 438.77 168.85 438.78 168.24C438.78 167.62 439.28 167.13 439.9 167.13C439.9 167.13 439.9 167.13 439.91 167.13L469.78 167.29C470.4 167.29 470.9 167.8 470.89 168.41C470.88 169.03 470.37 169.52 469.76 169.52Z" fill="#AACDF6"/>
<path d="M439.89 176.08C439.27 176.08 438.77 175.58 438.77 174.97C438.77 174.35 439.27 173.85 439.88 173.85L465.8 173.75C466.42 173.75 466.92 174.25 466.92 174.86C466.92 175.48 466.42 175.98 465.81 175.98L439.89 176.08Z" fill="#AACDF6"/>
<path d="M474.2 140.42V124.56C474.2 123.22 473.16 122.11 471.84 122.06L437.5 120.65C436.1 120.59 434.94 121.73 434.94 123.15V139.96L474.2 140.42Z" fill="#AACDF6"/>
<path d="M474.2 130.04V124.56C474.2 123.22 473.16 122.11 471.84 122.06L437.5 120.65C436.1 120.59 434.94 121.73 434.94 123.15V128.62L474.2 130.04Z" fill="white"/>
<path d="M539.39 86.08L460.08 81.53V108.88L470.7 109.25V117.62L481.35 109.63L539.39 111.68V86.08Z" fill="#AACDF6"/>
<path d="M527.21 94.69C527.19 94.69 527.17 94.69 527.15 94.69L471.89 91.88C471.27 91.85 470.8 91.32 470.83 90.71C470.86 90.09 471.38 89.62 472 89.65L527.26 92.46C527.88 92.49 528.35 93.02 528.32 93.63C528.3 94.23 527.8 94.69 527.21 94.69Z" fill="white"/>
<path d="M527.21 101.41C527.19 101.41 527.17 101.41 527.15 101.41L471.89 98.6C471.27 98.57 470.8 98.04 470.83 97.43C470.86 96.81 471.38 96.34 472 96.37L527.26 99.18C527.88 99.21 528.35 99.74 528.32 100.35C528.3 100.94 527.8 101.41 527.21 101.41Z" fill="white"/>
<path d="M273.26 96.5901C273.25 93.6601 270.8 91.0501 267.78 90.7801L120.91 84.1301C117.05 83.7801 113.91 86.2001 113.91 89.5401L114.95 147.16C114.96 150.51 118.11 153.29 121.97 153.37L223.88 154.28L236.51 170.07V154.39L268.13 154.67C271.15 154.73 273.58 152.4 273.57 149.46L273.26 96.5901Z" fill="#BBACEF"/>
<path d="M247.5 110.36C247.48 110.36 247.45 110.36 247.43 110.36L165.14 108.03C164.49 107.99 163.99 107.43 164.03 106.78C164.07 106.13 164.64 105.63 165.28 105.67L247.57 108C248.22 108.04 248.72 108.6 248.68 109.25C248.64 109.87 248.12 110.36 247.5 110.36Z" fill="#7E62DF"/>
<path d="M247.54 122.41C247.52 122.41 247.5 122.41 247.48 122.41L165.18 120.8C164.53 120.77 164.03 120.21 164.06 119.56C164.09 118.91 164.64 118.4 165.3 118.44L247.6 120.05C248.25 120.08 248.75 120.64 248.72 121.29C248.69 121.92 248.16 122.41 247.54 122.41Z" fill="#7E62DF"/>
<path d="M211.96 134.38C211.94 134.38 211.93 134.38 211.91 134.38L165.22 133.56C164.57 133.53 164.06 132.98 164.09 132.33C164.12 131.68 164.7 131.17 165.32 131.2L212.01 132.02C212.66 132.05 213.17 132.6 213.14 133.25C213.11 133.89 212.59 134.38 211.96 134.38Z" fill="#7E62DF"/>
<path d="M156.42 95.74C158.12 89.15 156.98 83.8 156.98 83.8L158.54 83.85L158.58 83.82C156.28 71.55 145.56 61.98 132.72 61.59C118.25 61.15 106.57 72.52 106.64 86.99C106.71 101.46 118.49 113.55 132.96 113.99C144.38 114.34 154.05 107.33 157.6 97.25C157.7 96.83 157.69 96.06 156.42 95.74Z" fill="url(#paint1_radial)"/>
<path d="M155.55 101.76L110.31 100.38C111.33 102.13 112.54 103.77 113.92 105.25L151.98 106.41C153.34 105.01 154.54 103.46 155.55 101.76Z" fill="#D8CFF7"/>
<path d="M141.63 107.53L150.12 107.78L150.09 100.27L141.6 100.01L141.63 107.53Z" fill="#512BD4"/>
<path d="M143.1 104.77C143.04 104.77 143 104.75 142.96 104.71C142.92 104.67 142.9 104.62 142.9 104.57C142.9 104.52 142.92 104.47 142.96 104.43C143 104.39 143.05 104.37 143.1 104.38C143.16 104.38 143.21 104.4 143.25 104.44C143.29 104.48 143.31 104.53 143.31 104.58C143.31 104.63 143.29 104.68 143.25 104.72C143.2 104.75 143.16 104.77 143.1 104.77Z" fill="white"/>
<path d="M145.36 104.81L144.99 104.8L144.02 103.24C144 103.2 143.98 103.16 143.96 103.12H143.95C143.96 103.16 143.96 103.26 143.96 103.41V104.77L143.64 104.76V102.68L144.03 102.69L144.97 104.21C145.01 104.27 145.04 104.32 145.05 104.34H145.06C145.05 104.28 145.05 104.19 145.05 104.06V102.72L145.37 102.73L145.36 104.81Z" fill="white"/>
<path d="M146.94 104.86L145.8 104.82V102.74L146.89 102.78V103.07L146.13 103.05V103.64L146.83 103.66V103.95L146.13 103.93V104.54L146.93 104.57L146.94 104.86Z" fill="white"/>
<path d="M148.55 103.13L147.97 103.11V104.89L147.63 104.88V103.1L147.05 103.08V102.79L148.55 102.84V103.13Z" fill="white"/>
<path d="M156.48 95.7401C158.16 89.2301 157.07 83.9401 157.04 83.8101L129.86 82.9801C129.86 82.9801 128.15 82.7501 128.15 84.3201C128.16 85.8801 128.24 90.3101 128.26 95.2001C128.26 96.2101 129.09 96.7201 129.74 96.7401C129.74 96.7301 155.8 96.8101 156.48 95.7401Z" fill="url(#paint2_radial)"/>
<path d="M140.26 95.26C140.26 95.26 144.42 92.08 145.24 91.49C146.05 90.9 146.77 90.89 147.52 91.56C148.27 92.23 152.47 95.63 152.47 95.63L140.26 95.26Z" fill="#A08BE8"/>
<path d="M157.49 97.5899C157.49 97.5899 158.27 96.1899 156.48 95.7399C156.48 95.7299 129.76 94.8999 129.76 94.8999C129.14 94.8799 128.34 94.4899 128.26 93.8799C128.26 94.3099 128.27 94.7499 128.27 95.1899C128.27 96.0999 128.95 96.5999 129.56 96.7099C129.62 96.7199 129.68 96.7299 129.74 96.7299L131.57 96.7899L157.49 97.5899Z" fill="#512BD4"/>
<path d="M136.384 92.6182C137.515 92.5747 138.373 90.9958 138.3 89.0917C138.226 87.1877 137.25 85.6795 136.118 85.7231C134.987 85.7667 134.129 87.3455 134.203 89.2496C134.276 91.1536 135.253 92.6618 136.384 92.6182Z" fill="#512BD4"/>
<path d="M152.797 93.1036C153.929 93.0936 154.833 91.5408 154.816 89.6354C154.799 87.7301 153.868 86.1935 152.736 86.2036C151.603 86.2136 150.699 87.7663 150.716 89.6717C150.733 91.5771 151.664 93.1136 152.797 93.1036Z" fill="#512BD4"/>
<path d="M136.23 87.4299C136.65 87.0199 137.21 86.8599 137.76 86.9199C138.08 87.5299 138.29 88.3199 138.31 89.1799C138.32 89.7199 138.25 90.2199 138.13 90.6799C137.48 90.8399 136.76 90.6599 136.25 90.1399C135.49 89.3699 135.48 88.1599 136.23 87.4299Z" fill="#8065E0"/>
<path d="M152.72 87.8201C153.14 87.4101 153.7 87.25 154.25 87.31C154.6 87.95 154.81 88.8001 154.8 89.7301C154.8 90.2101 154.73 90.6601 154.62 91.0701C153.97 91.2401 153.24 91.0601 152.72 90.5301C151.98 89.7601 151.98 88.5501 152.72 87.8201Z" fill="#8065E0"/>
<path d="M130.2 60.0399L135.09 60.1699L134.25 51.2799L130.74 51.1799L130.2 60.0399Z" fill="#8A6FE8"/>
<path d="M133.38 54.75C131.6 55.16 129.76 54.05 129.28 52.27C128.79 50.49 129.84 48.72 131.62 48.3C133.4 47.89 135.24 49 135.72 50.78C136.21 52.57 135.16 54.34 133.38 54.75Z" fill="#D8CFF7"/>
<path d="M128.36 63.03C128.14 63.02 127.96 62.83 127.98 62.61C128.21 60.32 130.15 58.58 132.55 58.65C134.94 58.72 136.93 60.55 137.22 62.86C137.25 63.08 137.07 63.26 136.85 63.25L128.36 63.03Z" fill="#522CD5"/>
<defs>
<radialGradient id="paint0_radial" cx="0" cy="0" r="1" gradientUnits="userSpaceOnUse" gradientTransform="translate(326.771 193.753) rotate(-3.99847) scale(29.1702 29.0284)">
<stop offset="0.1617" stop-color="#777471"/>
<stop offset="0.9865" stop-color="#33312D"/>
</radialGradient>
<radialGradient id="paint1_radial" cx="0" cy="0" r="1" gradientUnits="userSpaceOnUse" gradientTransform="translate(134.448 73.1072) rotate(-178.253) scale(23.8017 23.7786)">
<stop offset="0.4744" stop-color="#A08BE8"/>
<stop offset="0.8618" stop-color="#8065E0"/>
</radialGradient>
<radialGradient id="paint2_radial" cx="0" cy="0" r="1" gradientUnits="userSpaceOnUse" gradientTransform="translate(156.345 79.7106) rotate(-178.253) scale(27.0524 27.0262)">
<stop offset="0.0933" stop-color="#E1DFDD"/>
<stop offset="0.6573" stop-color="white"/>
</radialGradient>
</defs>
</svg>
