<svg width="636" height="300" viewBox="0 0 636 300" fill="none" xmlns="http://www.w3.org/2000/svg">
<path d="M487.57 92.8001C487.57 129.61 454.88 157.41 417.03 155.4C381.68 153.52 354.16 125.96 353.51 93.4401C352.86 60.6101 379.74 32.0001 415.7 29.7001C454.24 27.2401 487.57 55.5801 487.57 92.8001Z" fill="#D8E8FB"/>
<path d="M381.97 59.47C373.17 68.36 367.87 80.28 367.92 93.27L381.42 93.31C381.43 83.86 385.35 75.23 391.8 68.84L381.97 59.47Z" fill="#FDD490"/>
<path d="M454.6 55.52C451.22 58.22 446.02 62.39 442.56 65.25C451.54 71.78 457.36 81.98 457.42 93.51C457.42 93.53 457.42 93.55 457.42 93.57C461.56 93.8 467.5 94.17 473.38 94.54C473.39 94.17 473.41 93.81 473.41 93.44C473.36 78.19 466.05 64.63 454.6 55.52Z" fill="#E86E58"/>
<path d="M458.8 66.8701L457.07 65.1001L413.45 82.8401C413.26 82.9101 413.08 82.9801 412.9 83.0601L412.88 83.0701C412.86 83.0801 412.85 83.0901 412.84 83.0901C408.6 84.9801 405.7 89.0601 405.76 93.7601C405.84 100.15 411.37 105.36 418.2 105.4C421.8 105.42 425.04 104 427.32 101.71C427.34 101.69 427.37 101.69 427.39 101.67C429.88 99.1401 458.8 66.8701 458.8 66.8701Z" fill="#666666"/>
<path d="M423.95 93.68C423.98 96.73 421.37 99.21 418.13 99.2C414.91 99.2 412.29 96.75 412.26 93.73C412.23 90.71 414.79 88.23 418.02 88.2C421.25 88.17 423.92 90.62 423.95 93.68Z" fill="#B3B3B3"/>
<path d="M392.009 118.15C385.579 111.82 381.559 103.28 381.409 93.88C381.399 93.41 381.409 92.94 381.419 92.48L367.919 92.56C367.909 93.02 367.899 93.48 367.909 93.95C368.139 106.85 373.629 118.59 382.419 127.32L392.009 118.15Z" fill="white"/>
<path d="M457.42 93.5201C457.47 103.46 453.21 112.39 446.33 118.85L457.36 129.07C467.25 120.1 473.43 107.51 473.4 93.4402C473.4 92.9302 473.37 92.4202 473.35 91.9102L457.37 92.0102C457.39 92.5102 457.42 93.0101 457.42 93.5201Z" fill="#CC5444"/>
<path d="M381.439 60.0001L391.409 69.2201C397.929 62.5701 407.189 58.2001 417.689 57.7901L417.539 43.8101C403.039 44.5601 390.329 50.7501 381.439 60.0001Z" fill="#F7B548"/>
<path d="M456.65 57.1801L445.62 67.6801C438.35 61.1701 428.45 57.3801 417.75 57.7901L417.6 43.8101C432.51 43.0501 446.39 48.1701 456.65 57.1801Z" fill="#F09250"/>
<path d="M151.93 218.99C167.63 220.21 413.16 230.44 417.43 230.44C421.7 230.44 499.7 231.35 507.01 230.74C514.32 230.13 510.36 227.39 496.65 225.56C482.94 223.73 308.35 200.57 308.35 200.57L197.44 195.09C197.44 195.09 201.14 214.02 164.32 214.27C139.02 214.45 136.23 217.77 151.93 218.99Z" fill="#6D6A66"/>
<path d="M203.24 136.65C202.05 133.98 204.08 131 207 131.13C214.04 131.45 225.46 132.16 233.26 133.59C248.44 136.38 244.02 143.8 229.83 147.55C216.85 150.98 208.52 148.53 208.52 148.53L203.24 136.65Z" fill="#E86E58"/>
<path d="M334.74 160.69C334.33 157.9 336.38 155.26 339.31 154.79C342.24 154.33 344.95 156.22 345.36 159.01C345.77 161.8 343.72 164.44 340.79 164.91C337.86 165.38 335.15 163.48 334.74 160.69Z" fill="url(#paint0_radial)"/>
<path d="M291.13 168.4L261.13 165.26C261.13 165.26 267.76 134.73 284.5 134.91C301.24 135.09 291.13 168.4 291.13 168.4Z" fill="#4A4844"/>
<path d="M332.819 150.51C334.219 143.46 332.589 137.99 332.589 137.99L334.309 137.89L334.349 137.86C330.969 125.26 318.539 116.28 304.449 117.08C288.569 117.98 276.579 130.96 277.679 146.06C278.779 161.16 292.539 172.69 308.419 171.79C320.949 171.08 331.049 162.85 334.219 151.99C334.299 151.53 334.229 150.72 332.819 150.51Z" fill="url(#paint1_radial)"/>
<path d="M332.29 156.88L282.64 159.69C283.88 161.43 285.33 163.02 286.94 164.44L328.71 162.08C330.1 160.48 331.31 158.74 332.29 156.88Z" fill="#D8CFF7"/>
<path d="M317.45 164.2L326.77 163.68L326.2 155.84L316.89 156.36L317.45 164.2Z" fill="#512BD4"/>
<path d="M318.87 161.19C318.81 161.19 318.75 161.18 318.71 161.14C318.66 161.1 318.64 161.06 318.63 161C318.63 160.94 318.64 160.89 318.68 160.85C318.72 160.81 318.77 160.78 318.83 160.78C318.89 160.78 318.95 160.79 318.99 160.83C319.04 160.87 319.06 160.92 319.07 160.97C319.07 161.03 319.05 161.07 319.01 161.12C318.98 161.16 318.93 161.18 318.87 161.19Z" fill="white"/>
<path d="M321.34 161.02L320.94 161.04L319.77 159.5C319.74 159.46 319.72 159.42 319.69 159.38H319.68C319.69 159.43 319.7 159.52 319.71 159.68L319.81 161.1L319.45 161.12L319.3 158.95L319.73 158.93L320.86 160.43C320.91 160.49 320.94 160.53 320.95 160.56H320.96C320.95 160.5 320.93 160.41 320.92 160.27L320.82 158.87L321.17 158.85L321.34 161.02Z" fill="white"/>
<path d="M323.08 160.93L321.83 161L321.68 158.83L322.88 158.77L322.9 159.08L322.07 159.12L322.11 159.73L322.87 159.69L322.89 159.99L322.13 160.03L322.17 160.67L323.05 160.62L323.08 160.93Z" fill="white"/>
<path d="M324.72 158.97L324.08 159L324.21 160.86L323.84 160.88L323.71 159.02L323.07 159.05L323.05 158.74L324.69 158.65L324.72 158.97Z" fill="white"/>
<path d="M332.89 150.5C334.27 143.54 332.7 138.12 332.66 137.99L302.83 139.68C302.83 139.68 300.94 139.61 301.06 141.24C301.18 142.87 301.58 147.48 301.95 152.59C302.03 153.64 302.97 154.09 303.68 154.05C303.67 154.05 332.22 151.68 332.89 150.5Z" fill="url(#paint2_radial)"/>
<path d="M315.09 151.52C315.09 151.52 319.43 147.81 320.28 147.12C321.13 146.43 321.91 146.35 322.78 146.98C323.65 147.61 328.49 150.77 328.49 150.77L315.09 151.52Z" fill="#A08BE8"/>
<path d="M334.13 152.34C334.13 152.34 334.88 150.8 332.89 150.5C332.89 150.49 303.56 152.14 303.56 152.14C302.88 152.18 301.97 151.84 301.85 151.22C301.88 151.67 301.92 152.13 301.95 152.59C302.02 153.54 302.8 154 303.47 154.05C303.54 154.05 303.6 154.06 303.67 154.05L305.68 153.94L334.13 152.34Z" fill="#512BD4"/>
<path d="M310.632 149.111C311.868 148.988 312.711 147.28 312.514 145.296C312.317 143.312 311.154 141.804 309.918 141.926C308.681 142.049 307.839 143.757 308.036 145.741C308.233 147.725 309.395 149.234 310.632 149.111Z" fill="#512BD4"/>
<path d="M310.12 143.73C310.55 143.27 311.15 143.04 311.76 143.06C312.16 143.67 312.44 144.47 312.52 145.37C312.57 145.93 312.53 146.47 312.43 146.95C311.73 147.18 310.93 147.06 310.33 146.56C309.45 145.82 309.35 144.55 310.12 143.73Z" fill="#8065E0"/>
<path d="M328.752 148.091C329.988 147.968 330.831 146.26 330.634 144.276C330.437 142.292 329.274 140.783 328.038 140.906C326.801 141.029 325.959 142.737 326.156 144.721C326.353 146.705 327.515 148.213 328.752 148.091Z" fill="#512BD4"/>
<path d="M328.239 142.71C328.669 142.25 329.269 142.02 329.879 142.04C330.279 142.65 330.559 143.45 330.639 144.35C330.689 144.91 330.649 145.45 330.549 145.93C329.849 146.16 329.049 146.04 328.449 145.54C327.569 144.8 327.469 143.53 328.239 142.71Z" fill="#8065E0"/>
<path d="M313.11 168.8C312.66 168.95 301.98 172.5 294.04 167.15C289.45 164.06 286.81 158.76 286.17 151.41L291.27 150.76C291.76 156.44 293.65 160.44 296.9 162.64C302.82 166.65 311.59 163.78 311.67 163.75L313.11 168.8Z" fill="#8A6FE8"/>
<path d="M341.97 159.79L336.29 165.55C335.35 166.5 335.31 168.03 336.19 168.98L336.35 169.15C337.23 170.09 338.71 170.09 339.64 169.14L345.32 163.38C346.26 162.43 346.3 160.9 345.42 159.95L345.26 159.78C344.38 158.84 342.91 158.85 341.97 159.79Z" fill="#8A6FE8"/>
<path d="M338.45 174.91L342.81 177.5C343.98 178.18 345.48 177.73 346.18 176.5C346.87 175.26 346.49 173.71 345.33 173.03L340.86 170.37L338.45 174.91Z" fill="#8A6FE8"/>
<path d="M341.07 173.96L348.04 174.57C349.39 174.68 350.61 173.63 350.76 172.23C350.91 170.82 349.94 169.59 348.6 169.48L343.42 169.01L341.07 173.96Z" fill="#8A6FE8"/>
<path d="M340.67 170.88L347.65 169.82C349 169.62 349.97 168.32 349.82 166.93C349.67 165.53 348.46 164.56 347.11 164.76L340 165.83L340.67 170.88Z" fill="#8A6FE8"/>
<path d="M336.17 165.83C338.35 163.86 341.59 164.05 343.41 166.26C345.23 168.46 344.94 171.85 342.76 173.81C340.58 175.78 337.34 175.59 335.52 173.38C333.7 171.18 333.99 167.8 336.17 165.83Z" fill="url(#paint3_radial)"/>
<path d="M301.57 115.68L306.94 115.36L305.39 106.15L301.54 106.38L301.57 115.68Z" fill="#8A6FE8"/>
<path d="M304.69 109.86C302.77 110.46 300.68 109.47 300.02 107.66C299.36 105.85 300.38 103.89 302.3 103.3C304.22 102.7 306.31 103.69 306.97 105.5C307.63 107.31 306.61 109.26 304.69 109.86Z" fill="#D8CFF7"/>
<path d="M299.78 118.97C299.54 118.98 299.32 118.8 299.34 118.57C299.43 116.16 301.44 114.16 304.06 114C306.68 113.84 309 115.58 309.48 117.96C309.52 118.19 309.35 118.39 309.11 118.41L299.78 118.97Z" fill="#522CD5"/>
<path d="M290.119 144.52C292.769 145.71 293.929 148.71 292.699 151.23C291.469 153.75 288.319 154.81 285.669 153.62C283.019 152.43 281.859 149.43 283.089 146.91C284.319 144.4 287.459 143.33 290.119 144.52Z" fill="url(#paint4_radial)"/>
<path d="M180.93 168.92C178.22 168.92 173.57 168.92 169.68 168.92C168.79 168.92 168.05 170.48 167.46 173.03C160.5 177.65 155.88 185.73 155.88 194.94C155.88 203.78 160.13 211.58 166.62 216.28C167.06 219.17 167.63 220.96 168.33 220.96C172.12 220.96 176.05 220.96 180.93 220.96C194.76 220.96 205.98 209.31 205.98 194.94C205.98 180.57 194.76 168.92 180.93 168.92Z" fill="#4A4844"/>
<path d="M169.68 220.95C183.515 220.95 194.73 209.301 194.73 194.93C194.73 180.56 183.515 168.91 169.68 168.91C155.845 168.91 144.63 180.56 144.63 194.93C144.63 209.301 155.845 220.95 169.68 220.95Z" fill="#797672"/>
<path d="M169.68 214.1C179.875 214.1 188.14 205.517 188.14 194.93C188.14 184.343 179.875 175.76 169.68 175.76C159.485 175.76 151.22 184.343 151.22 194.93C151.22 205.517 159.485 214.1 169.68 214.1Z" fill="white"/>
<path d="M169.68 209.36C177.351 209.36 183.57 202.9 183.57 194.93C183.57 186.961 177.351 180.5 169.68 180.5C162.008 180.5 155.79 186.961 155.79 194.93C155.79 202.9 162.008 209.36 169.68 209.36Z" fill="#CCCAC7"/>
<path d="M173.43 199.6C175.915 199.6 177.93 197.509 177.93 194.93C177.93 192.351 175.915 190.26 173.43 190.26C170.944 190.26 168.93 192.351 168.93 194.93C168.93 197.509 170.944 199.6 173.43 199.6Z" fill="white"/>
<path d="M186.29 164.39L181.58 141.37L185.25 141.89L200.68 165.18L186.29 164.39Z" fill="#4A4844"/>
<path d="M220.05 163.35L215.34 140.32L219 140.84L234.44 164.13L220.05 163.35Z" fill="#4A4844"/>
<path d="M157.77 135.61C158.55 135.09 214.29 137.18 221.61 137.44C228.94 137.7 233.1 141.26 217.69 142.15C199.64 143.2 157.25 142.15 157.25 142.15L157.77 135.61Z" fill="#F2A694"/>
<path d="M459.77 178.12C457.34 178.12 453.18 178.12 449.7 178.12C448.9 178.12 448.24 179.49 447.72 181.72C441.49 185.78 437.35 192.87 437.35 200.96C437.35 208.72 441.16 215.57 446.97 219.7C447.36 222.24 447.87 223.81 448.5 223.81C451.9 223.81 455.41 223.81 459.78 223.81C472.16 223.81 482.2 213.58 482.2 200.96C482.19 188.35 472.15 178.12 459.77 178.12Z" fill="#4A4844"/>
<path d="M449.7 223.82C462.082 223.82 472.12 213.59 472.12 200.97C472.12 188.35 462.082 178.12 449.7 178.12C437.318 178.12 427.28 188.35 427.28 200.97C427.28 213.59 437.318 223.82 449.7 223.82Z" fill="#797672"/>
<path d="M449.7 217.8C458.823 217.8 466.22 210.265 466.22 200.97C466.22 191.675 458.823 184.14 449.7 184.14C440.576 184.14 433.18 191.675 433.18 200.97C433.18 210.265 440.576 217.8 449.7 217.8Z" fill="white"/>
<path d="M449.699 213.25C456.354 213.25 461.749 207.752 461.749 200.97C461.749 194.188 456.354 188.69 449.699 188.69C443.044 188.69 437.649 194.188 437.649 200.97C437.649 207.752 443.044 213.25 449.699 213.25Z" fill="#CCCAC7"/>
<path d="M511.31 227.86L475.74 225.78L479.89 206.83C479.89 206.83 480.57 204.55 492.61 208.13C504.59 211.69 511.98 220.5 515.17 225.15C516.02 226.38 515.07 228.04 513.58 227.97L511.31 227.86Z" fill="#DC624F"/>
<path d="M451.13 209.21L487.49 211.81C487.49 211.81 493.89 215.28 495.76 217.95C497.63 220.62 494.21 223.91 494.21 223.91L470.73 224.19L451.13 209.21Z" fill="#CC5444"/>
<path d="M142.6 136.81C141.38 134.07 143.46 131 146.46 131.14C153.96 131.48 166.34 132.23 174.77 133.78C190.98 136.76 186.27 144.69 171.11 148.69C157.24 152.35 148.35 149.74 148.35 149.74L142.6 136.81Z" fill="#E86E58"/>
<path d="M470.71 208.87C445.07 194.74 408.7 175.38 378.08 171.45C347.47 167.52 272.37 164.65 272.37 164.65C272.37 164.65 271.94 156.36 276.03 146.86C276.55 145.66 277.08 144.57 277.62 143.54C277.72 139.24 278.89 135.17 280.88 131.56L260.24 137.36C260.24 137.36 231.81 158.64 207.73 160.73C183.66 162.82 147.03 158.9 147.03 158.9L152 168.58C152 168.58 166.13 167.27 184.18 173.29C202.23 179.31 208.25 217.51 208.25 217.51C208.25 217.51 349.28 221.43 350.07 221.17C350.85 220.91 444.79 224.05 444.79 224.05C444.79 224.05 459.18 225.36 466.51 225.62C473.85 225.88 496.35 223 470.71 208.87Z" fill="#E86E58"/>
<path d="M470.71 208.87C445.07 194.74 408.7 175.38 378.08 171.45C347.47 167.52 272.37 164.65 272.37 164.65C272.37 164.65 271.94 156.36 276.03 146.86C276.55 145.66 277.08 144.57 277.62 143.54C277.72 139.24 278.89 135.17 280.88 131.56L262.69 133.29C261.17 133.43 259.74 134.03 258.57 135C252 140.43 228.25 158.94 207.74 160.72C199.06 161.47 188.76 161.45 179.12 161.1C214.38 164.4 357.31 177.85 370.14 180.6C380.38 182.79 444.09 207.47 481.56 222.14C484.17 219.64 482.71 215.49 470.71 208.87Z" fill="#F2A694"/>
<path d="M370.14 178.39C367.43 178.39 362.78 178.39 358.89 178.39C358 178.39 357.26 179.92 356.67 182.42C349.71 186.95 345.09 194.88 345.09 203.92C345.09 212.59 349.34 220.24 355.83 224.85C356.27 227.69 356.84 229.44 357.54 229.44C361.33 229.44 365.26 229.44 370.14 229.44C383.97 229.44 395.19 218.01 395.19 203.92C395.19 189.82 383.98 178.39 370.14 178.39Z" fill="#4A4844"/>
<path d="M358.89 229.43C372.725 229.43 383.94 218.004 383.94 203.91C383.94 189.816 372.725 178.39 358.89 178.39C345.055 178.39 333.84 189.816 333.84 203.91C333.84 218.004 345.055 229.43 358.89 229.43Z" fill="#797672"/>
<path d="M358.89 222.72C369.085 222.72 377.35 214.299 377.35 203.91C377.35 193.522 369.085 185.1 358.89 185.1C348.695 185.1 340.43 193.522 340.43 203.91C340.43 214.299 348.695 222.72 358.89 222.72Z" fill="white"/>
<path d="M358.89 218.07C366.561 218.07 372.78 211.731 372.78 203.91C372.78 196.09 366.561 189.75 358.89 189.75C351.218 189.75 345 196.09 345 203.91C345 211.731 351.218 218.07 358.89 218.07Z" fill="#CCCAC7"/>
<path d="M362.64 208.49C365.125 208.49 367.14 206.44 367.14 203.91C367.14 201.381 365.125 199.33 362.64 199.33C360.154 199.33 358.14 201.381 358.14 203.91C358.14 206.44 360.154 208.49 362.64 208.49Z" fill="#FDFDFD"/>
<path d="M278.45 181.2L291.74 181.4L273.74 210.67C272.3 213.01 269.72 214.39 266.97 214.3L254.05 213.85L271.97 184.75C273.36 182.51 275.82 181.16 278.45 181.2Z" fill="#4A4844"/>
<path d="M258.33 162.99C263.626 162.99 267.92 158.696 267.92 153.4C267.92 148.104 263.626 143.81 258.33 143.81C253.033 143.81 248.74 148.104 248.74 153.4C248.74 158.696 253.033 162.99 258.33 162.99Z" fill="white"/>
<path d="M397.45 208.87L437.22 210.96C437.22 210.96 444.28 214.62 446.38 217.5C448.48 220.38 444.81 224.04 444.81 224.04L419.17 224.82L397.45 208.87Z" fill="#CC5444"/>
<path d="M420.99 227.97L385.14 225.88L389.33 206.78C389.33 206.78 390.02 204.49 402.15 208.09C413.87 211.57 421.23 220.04 424.59 224.82C425.58 226.22 424.53 228.14 422.82 228.06L420.99 227.97Z" fill="#DC624F"/>
<path d="M355.119 168.91C353.489 159.78 345.949 153.67 336.529 153.67C327.959 153.67 321.159 158.65 318.689 166.55C331.039 167.23 343.449 167.98 355.119 168.91Z" fill="#4A4844"/>
<path d="M337.27 152.21L336.8 154.25C336.54 155.5 337.39 156.74 338.71 157.01L338.94 157.06C340.26 157.33 341.54 156.54 341.8 155.29L342.27 153.25C342.53 152 341.68 150.76 340.36 150.49L340.13 150.44C338.81 150.16 337.53 150.96 337.27 152.21Z" fill="#8A6FE8"/>
<path d="M342.12 153.28L341.26 155.18C340.75 156.35 341.35 157.73 342.58 158.26L342.8 158.35C344.04 158.88 345.45 158.35 345.96 157.18L346.82 155.28C347.33 154.11 346.73 152.73 345.5 152.2L345.28 152.11C344.04 151.58 342.62 152.11 342.12 153.28Z" fill="#8A6FE8"/>
<path d="M346.43 155.54L345.18 157.22C344.44 158.26 344.73 159.73 345.83 160.51L346.03 160.65C347.13 161.43 348.62 161.21 349.36 160.17L350.61 158.49C351.35 157.45 351.06 155.98 349.96 155.2L349.76 155.06C348.67 154.28 347.17 154.5 346.43 155.54Z" fill="#8A6FE8"/>
<path d="M320.31 161.33L321.88 162.71C322.85 163.54 324.35 163.37 325.21 162.35L325.36 162.17C326.23 161.14 326.14 159.64 325.17 158.81L323.6 157.43C322.63 156.6 321.13 156.77 320.27 157.79L320.12 157.97C319.24 159 319.33 160.5 320.31 161.33Z" fill="#8A6FE8"/>
<path d="M323.86 158.32L325.1 160C325.88 161.01 327.37 161.17 328.44 160.35L328.63 160.2C329.69 159.38 329.93 157.89 329.15 156.87L327.91 155.19C327.13 154.18 325.64 154.02 324.57 154.84L324.38 154.99C323.31 155.82 323.08 157.31 323.86 158.32Z" fill="#8A6FE8"/>
<path d="M309.33 166.35L315.03 158.5L355.58 156.93L365.96 170.15L309.33 166.35Z" fill="#A3C9F6"/>
<path d="M355.22 169.43L365.96 170.15L355.58 156.94L345.38 157.42C348.69 161.43 353.05 166.31 355.22 169.43Z" fill="#CAE0FA"/>
<path d="M232.97 218.19C237.73 217.68 244.74 214.15 249.09 208.35C253.8 202.07 262.7 187.94 262.7 187.94C262.7 187.94 223.45 186.37 218.74 185.85C214.03 185.33 198.98 176.49 191.27 172.51C187.48 170.55 174.47 169.27 162.08 168.75C167.81 169.22 175.54 170.41 184.2 173.3C202.25 179.32 208.27 217.52 208.27 217.52C208.27 217.52 218.28 217.79 232.97 218.19Z" fill="#CC5444"/>
<path d="M248.92 191.02L252.58 191.15L243.25 206.33C242.46 207.61 241.03 208.35 239.52 208.25L236.5 208.04L246.03 192.58C246.64 191.57 247.75 190.98 248.92 191.02Z" fill="#4A4844"/>
<path d="M238.359 190.56L242.019 190.69L232.689 205.87C231.899 207.15 230.469 207.89 228.959 207.79L225.939 207.58L235.469 192.12C236.079 191.11 237.179 190.52 238.359 190.56Z" fill="#4A4844"/>
<path d="M438.688 198.279C439.397 196.523 430.768 191.383 419.414 186.8C408.06 182.218 398.281 179.926 397.572 181.683C396.863 183.44 405.492 188.579 416.846 193.162C428.2 197.745 437.979 200.036 438.688 198.279Z" fill="white"/>
<path d="M190.55 229.7L176.39 235.38L243.53 240.71L260.51 234.06L190.55 229.7Z" fill="#B2B2B2"/>
<path d="M279.28 235.23L261.99 242.17L357.19 249.72L378.41 241.42L279.28 235.23Z" fill="#B2B2B2"/>
<path d="M397.22 242.59L375.77 251.2L488.76 260.16L511.09 249.69L397.22 242.59Z" fill="#B2B2B2"/>
<path d="M171.76 228.53L99.9498 224.05L84.0698 228.06L157.98 233.92L171.76 228.53Z" fill="#B2B2B2"/>
<path d="M246.86 95.8601L128.44 103.13C128.44 103.13 133.34 92.5801 139.15 89.7201C145.87 86.4101 153.31 88.4101 153.31 88.4101C153.31 88.4101 157.52 77.5001 165.41 75.3701C175.34 72.7001 180.72 77.9201 180.72 77.9201C180.72 77.9201 186.79 70.5301 197.59 71.4201C209.76 72.4301 211.56 80.0501 211.56 80.0501C211.56 80.0501 218.23 78.0801 224.64 80.2901C229.61 82.0001 232.88 87.7701 232.88 87.7701C232.88 87.7701 237.76 86.8601 241.25 88.1001C246.44 89.9301 246.86 95.8601 246.86 95.8601Z" fill="#D0EDFD"/>
<path d="M273.16 62.8701L210.36 66.5301C210.36 66.5301 215.99 58.7301 220.83 57.6301C228.51 55.8901 230.77 58.1501 230.77 58.1501C230.77 58.1501 232.86 49.2501 243.85 47.6801C254.84 46.1101 256.93 52.9101 256.93 52.9101C256.93 52.9101 262.34 52.2101 267.05 54.3101C272.3 56.6501 273.16 62.8701 273.16 62.8701Z" fill="#D0EDFD"/>
<defs>
<radialGradient id="paint0_radial" cx="0" cy="0" r="1" gradientUnits="userSpaceOnUse" gradientTransform="translate(341.457 158.172) rotate(36.7122) scale(5.21177 5.27595)">
<stop stop-color="#8065E0"/>
<stop offset="1" stop-color="#512BD4"/>
</radialGradient>
<radialGradient id="paint1_radial" cx="0" cy="0" r="1" gradientUnits="userSpaceOnUse" gradientTransform="translate(311.999 133.874) rotate(176.759) scale(28.681 27.3118)">
<stop offset="0.4744" stop-color="#A08BE8"/>
<stop offset="0.8618" stop-color="#8065E0"/>
</radialGradient>
<radialGradient id="paint2_radial" cx="0" cy="0" r="1" gradientUnits="userSpaceOnUse" gradientTransform="translate(331.501 133.788) rotate(176.759) scale(29.7227 28.3038)">
<stop offset="0.0933" stop-color="#E1DFDD"/>
<stop offset="0.6573" stop-color="white"/>
</radialGradient>
<radialGradient id="paint3_radial" cx="0" cy="0" r="1" gradientUnits="userSpaceOnUse" gradientTransform="translate(338.257 168.327) rotate(-52.6976) scale(5.35481 5.13681)">
<stop stop-color="#8065E0"/>
<stop offset="1" stop-color="#512BD4"/>
</radialGradient>
<radialGradient id="paint4_radial" cx="0" cy="0" r="1" gradientUnits="userSpaceOnUse" gradientTransform="translate(286.777 147.452) rotate(-3.24111) scale(5.28964 5.03711)">
<stop stop-color="#8065E0"/>
<stop offset="1" stop-color="#512BD4"/>
</radialGradient>
</defs>
</svg>
