<svg width="636" height="300" viewBox="0 0 636 300" fill="none" xmlns="http://www.w3.org/2000/svg">
<path d="M430.58 211.4L214.22 204.38C211.41 204.33 209.11 201.87 209.08 198.89L207.59 79.82C207.55 76.8 209.8 74.2 212.63 74L430.52 59C434.25 58.74 437.29 61.36 437.29 64.86V205.31C437.29 208.75 434.28 211.47 430.58 211.4Z" fill="#BDD8F9"/>
<path d="M292.93 117.97L392.11 114.28C396.68 114.11 400.39 110.43 400.38 106.07L400.36 95.2202C400.35 90.8502 396.62 87.5002 392.04 87.7402L292.72 93.0202C288.7 93.2302 285.48 96.7102 285.51 100.78L285.59 110.88C285.64 114.95 288.91 118.12 292.93 117.97Z" fill="white"/>
<path d="M372.55 136.55L300 138.3L299.96 133.32L372.53 131.34L372.55 136.55Z" fill="#B3AFAB"/>
<path d="M292.24 138.49L286.26 138.63L286.22 133.7L292.2 133.53L292.24 138.49Z" fill="white"/>
<path d="M362.99 150.59L300.1 151.57L300.06 146.6L362.97 145.41L362.99 150.59Z" fill="#B3AFAB"/>
<path d="M292.34 151.69L286.36 151.78L286.32 146.85L292.3 146.74L292.34 151.69Z" fill="white"/>
<path d="M384.12 164.22L300.2 164.82L300.16 159.85L384.1 158.98L384.12 164.22Z" fill="#B3AFAB"/>
<path d="M292.45 164.88L286.47 164.92L286.43 160L292.41 159.93L292.45 164.88Z" fill="white"/>
<path d="M363.1 178.13L300.3 178.05L300.26 173.09L363.08 172.97L363.1 178.13Z" fill="#B3AFAB"/>
<path d="M292.55 178.04L286.58 178.03L286.54 173.12L292.51 173.11L292.55 178.04Z" fill="white"/>
<path d="M269.85 196.21L218.78 195.54L217.54 91.7601L268.87 88.8501L269.85 196.21Z" fill="#84817D"/>
<path d="M261.79 116.1L224.84 117.54L224.74 108.83L261.7 107.16L261.79 116.1Z" fill="#5F5F5F"/>
<path d="M262 137.99L225.09 138.91L224.99 130.21L261.91 129.08L262 137.99Z" fill="#5F5F5F"/>
<path d="M262.2 159.02L225.32 159.43L225.22 150.76L262.12 150.13L262.2 159.02Z" fill="#5F5F5F"/>
<path d="M233.54 117.2L224.84 117.54L224.74 108.83L233.44 108.43L233.54 117.2Z" fill="#28C2D1"/>
<path d="M233.78 138.69L225.09 138.91L224.99 130.21L233.68 129.94L233.78 138.69Z" fill="#28C2D1"/>
<path d="M234.01 159.34L225.32 159.43L225.22 150.76L233.91 150.61L234.01 159.34Z" fill="#28C2D1"/>
<path d="M437.29 71.8601V50.8701C437.29 47.1901 433.96 44.4601 429.88 44.7701L212.96 61.5401C209.87 61.7801 207.4 64.5501 207.44 67.7401L207.67 85.8901L437.29 71.8601Z" fill="#737373"/>
<path d="M421.01 63.9201L217.65 77.4201L217.56 69.9201L421 55.3901L421.01 63.9201Z" fill="#939393"/>
<path d="M99.07 157.06L199.15 155.66L198.61 114.87L98.36 119.05L99.07 157.06Z" fill="#0769DC"/>
<path d="M99.07 157.06L138.34 156.51L137.7 117.41L98.36 119.05L99.07 157.06Z" fill="#60A2F0"/>
<path d="M154.61 137.3L147.04 137.5L147.21 148L154.77 147.85L154.61 137.3Z" fill="#F2F6D0"/>
<path d="M165.61 132.93L157.92 133.16L158.14 147.78L165.83 147.63L165.61 132.93Z" fill="#C5D43B"/>
<path d="M176.78 128.48L168.97 128.74L169.25 147.56L177.05 147.41L176.78 128.48Z" fill="#F2F6D0"/>
<path d="M188.14 123.97L180.2 124.25L180.53 147.34L188.46 147.18L188.14 123.97Z" fill="#C5D43B"/>
<path d="M128.65 130.97L105.95 131.7C105.51 131.71 105.14 131.33 105.13 130.84C105.12 130.35 105.47 129.94 105.91 129.93L128.62 129.17C129.08 129.15 129.45 129.55 129.46 130.04C129.47 130.54 129.11 130.96 128.65 130.97Z" fill="white"/>
<path d="M128.77 138.17L106.07 138.79C105.63 138.8 105.26 138.42 105.25 137.93C105.24 137.44 105.59 137.03 106.03 137.02L128.73 136.37C129.19 136.36 129.56 136.75 129.57 137.25C129.59 137.75 129.23 138.16 128.77 138.17Z" fill="white"/>
<path d="M122.01 145.52L106.2 145.87C105.76 145.88 105.39 145.49 105.38 145C105.37 144.51 105.72 144.11 106.16 144.1L121.97 143.73C122.42 143.72 122.8 144.11 122.8 144.61C122.82 145.11 122.46 145.51 122.01 145.52Z" fill="white"/>
<path d="M252.33 249.17L193.73 246.36C190.93 246.23 188.63 243.68 188.59 240.67L187.63 170.57C187.59 167.54 189.83 165.06 192.64 165.04L251.47 164.59C254.52 164.57 257.03 167.12 257.07 170.3L257.8 243.73C257.82 246.88 255.37 249.31 252.33 249.17Z" fill="#C5D43B"/>
<path d="M221.37 211.63C210.16 211.36 201.05 202.54 200.91 191.96C200.77 181.36 209.67 172.71 220.9 172.68C232.3 172.65 241.8 181.5 241.92 192.4C242.04 203.28 232.75 211.9 221.37 211.63ZM221.01 181.56C214.87 181.54 209.98 186.25 210.05 192.06C210.12 197.87 215.13 202.67 221.26 202.78C227.44 202.89 232.46 198.19 232.39 192.3C232.33 186.4 227.2 181.58 221.01 181.56Z" fill="#505050"/>
<path d="M220.91 172.68C218.94 172.68 217.04 172.96 215.25 173.46C215.87 175.69 216.75 178.92 217.61 182.06C218.68 181.73 219.83 181.55 221.02 181.56C227.21 181.58 232.34 186.4 232.4 192.3C232.46 198.01 227.76 202.58 221.85 202.77L223.14 211.6C233.7 210.99 242.04 202.71 241.93 192.41C241.81 181.51 232.31 172.66 220.91 172.68Z" fill="#57CACF"/>
<path d="M230.93 175.12L225.36 182.4C229.44 184.04 232.35 187.86 232.4 192.29C232.47 198.18 227.45 202.88 221.27 202.77C220.72 202.76 220.19 202.7 219.67 202.62L219.97 211.52C220.44 211.56 220.9 211.61 221.38 211.62C232.76 211.89 242.05 203.27 241.94 192.39C241.85 184.97 237.38 178.48 230.93 175.12Z" fill="#939393"/>
<path d="M232.39 192.3C232.41 194.27 231.85 196.11 230.88 197.68L238.4 203.42C240.66 200.3 241.96 196.51 241.92 192.41C241.84 184.98 237.38 178.49 230.92 175.13L225.35 182.41C229.43 184.04 232.34 187.87 232.39 192.3Z" fill="white"/>
<path d="M244.18 223.57C243.79 223.83 239.5 225.84 239.5 225.84L234.75 225.68L227.9 231.72L219.15 227.02L213.83 231.2L208.14 228.22L196.99 230.57L197.06 235.85L248.49 237.95L248.35 224.87C248.36 224.86 244.57 223.31 244.18 223.57Z" fill="#939393"/>
<path d="M390.65 148.12V267.14C390.65 272.37 417.39 276.6 450.39 276.6C483.39 276.6 510.13 272.37 510.13 267.14V148.12H390.65Z" fill="#57CACF"/>
<path d="M450.29 138.72C417.36 138.72 390.67 142.95 390.67 148.18C390.67 153.41 417.36 157.64 450.29 157.64C483.22 157.64 509.91 153.41 509.91 148.18C509.91 142.95 483.22 138.72 450.29 138.72Z" fill="#9FE4EB"/>
<path d="M390.65 199.15C399.49 204.18 426.86 206.44 450.35 206.44C473.95 206.44 501.38 204.16 510.12 199.1V196.15C509.97 196.15 509.82 196.18 509.69 196.28C505.16 199.9 482.83 203.75 450.34 203.75C418.1 203.75 395.73 199.93 391.06 196.33C390.94 196.24 390.79 196.2 390.64 196.2V199.15H390.65Z" fill="#88DDE5"/>
<path d="M390.65 175.25C399.49 180.28 426.86 182.54 450.35 182.54C450.36 182.54 450.38 182.54 450.39 182.54C473.97 182.54 501.37 180.27 510.12 175.2V172.25C509.97 172.25 509.82 172.28 509.69 172.38C505.16 176 482.83 179.85 450.34 179.85C418.1 179.85 395.73 176.03 391.06 172.43C390.94 172.34 390.79 172.3 390.64 172.3V175.25H390.65Z" fill="#88DDE5"/>
<path d="M390.65 246.92C399.49 251.95 426.86 254.21 450.35 254.21C473.95 254.21 501.38 251.94 510.12 246.87V243.92C509.97 243.92 509.82 243.95 509.69 244.05C505.16 247.67 482.83 251.52 450.34 251.52C418.1 251.52 395.73 247.7 391.06 244.1C390.94 244.01 390.79 243.97 390.64 243.97V246.92H390.65Z" fill="#88DDE5"/>
<path d="M510.13 220.04C509.98 220.04 509.83 220.07 509.7 220.17C505.17 223.79 482.84 227.64 450.35 227.64C418.11 227.64 395.74 223.82 391.07 220.22C390.95 220.13 390.8 220.09 390.65 220.09V223.03C399.49 228.06 426.86 230.32 450.35 230.32C450.36 230.32 450.37 230.32 450.37 230.32C473.96 230.32 501.37 228.05 510.12 222.98V220.04H510.13Z" fill="#88DDE5"/>
</svg>
