<svg width="636" height="300" viewBox="0 0 636 300" fill="none" xmlns="http://www.w3.org/2000/svg">
<path d="M475.05 112.4H401.83C400.01 112.4 398.53 113.88 398.53 115.71V264.64C398.53 266.47 400.01 267.95 401.83 267.95H475.05C476.87 267.95 478.35 266.47 478.35 264.64V115.71C478.35 113.88 476.87 112.4 475.05 112.4Z" fill="#81B5F3"/>
<path d="M470.57 100.2H405.86C400.43 100.2 396.03 104.49 396.03 109.79V267.1C396.03 272.4 400.43 276.69 405.86 276.69H470.57C476 276.69 480.4 272.4 480.4 267.1V109.78C480.4 104.49 476 100.2 470.57 100.2ZM476.77 261.18C476.77 263.49 474.85 265.37 472.48 265.37H404.24C401.87 265.37 399.95 263.5 399.95 261.18V118.53C399.95 116.22 401.87 114.34 404.24 114.34H472.48C474.85 114.34 476.77 116.21 476.77 118.53V261.18Z" fill="#56534F"/>
<path d="M448.55 269.96H429.16C428.4 269.96 427.78 270.58 427.78 271.34V271.46C427.78 272.22 428.4 272.84 429.16 272.84H448.55C449.31 272.84 449.93 272.22 449.93 271.46V271.34C449.92 270.58 449.31 269.96 448.55 269.96Z" fill="#6D6A66"/>
<path d="M448.55 104.78H429.16C428.4 104.78 427.78 105.4 427.78 106.16V106.28C427.78 107.04 428.4 107.66 429.16 107.66H448.55C449.31 107.66 449.93 107.04 449.93 106.28V106.16C449.92 105.4 449.31 104.78 448.55 104.78Z" fill="#6D6A66"/>
<path d="M411.5 110.68C412.422 110.68 413.17 109.95 413.17 109.05C413.17 108.15 412.422 107.42 411.5 107.42C410.578 107.42 409.83 108.15 409.83 109.05C409.83 109.95 410.578 110.68 411.5 110.68Z" fill="#6D6A66"/>
<path d="M413.32 144.51V160.21L430.98 167.18L431.07 151.42L413.32 144.51Z" fill="#BDD8F9"/>
<path d="M448.5 144.51V159.59L430.96 167.13V151.37L448.5 144.51Z" fill="#3E8EED"/>
<path d="M448.5 144.49L430.87 137.63L413.32 144.49V144.51L430.96 151.37L448.5 144.51V144.49Z" fill="white"/>
<path d="M430.96 158.51V174.09L448.69 181.2L448.63 165.43L430.96 158.51Z" fill="#BDD8F9"/>
<path d="M466.15 158.51V173.9L448.6 181.13V165.36L466.15 158.51Z" fill="#3E8EED"/>
<path d="M466.15 158.48L448.51 151.63L430.96 158.48V158.51L448.6 165.36L466.15 158.51V158.48Z" fill="white"/>
<path d="M431.06 203.6V218.68L448.7 226.25L448.61 210.5L431.06 203.6Z" fill="#BDD8F9"/>
<path d="M466.24 203.6V218.68L448.7 226.22L448.64 210.45L466.24 203.6Z" fill="#3E8EED"/>
<path d="M466.24 203.58L448.61 196.72L431.06 203.58V203.6L448.7 210.45L466.24 203.6V203.58Z" fill="white"/>
<path d="M413.53 218.14V234.14L431.08 240.76V225L413.53 218.14Z" fill="#BDD8F9"/>
<path d="M448.72 218.14V233.22L431.09 240.77V225L448.72 218.14Z" fill="#3E8EED"/>
<path d="M448.72 218.12L431.08 211.26L413.53 218.12V218.14L431.17 225L448.72 218.14V218.12Z" fill="white"/>
<path d="M413.54 181.04V196.7L431.09 203.66V187.9L413.54 181.04Z" fill="#BDD8F9"/>
<path d="M448.73 181.04V196.59L431.09 203.67L431.12 187.87L448.73 181.04Z" fill="#3E8EED"/>
<path d="M448.73 181.02L431.09 174.17L413.54 181.02V181.04L431.18 187.9L448.73 181.04V181.02Z" fill="white"/>
<path d="M244.7 92.96H171.21C169.38 92.96 167.9 94.45 167.9 96.29V245.77C167.9 247.61 169.38 249.1 171.21 249.1H244.7C246.53 249.1 248.01 247.61 248.01 245.77V96.28C248.01 94.44 246.53 92.96 244.7 92.96Z" fill="#29C3E5"/>
<path d="M240.2 80.71H175.26C169.81 80.71 165.4 85.02 165.4 90.33V248.21C165.4 253.52 169.82 257.83 175.26 257.83H240.2C245.65 257.83 250.06 253.52 250.06 248.21V90.33C250.07 85.02 245.65 80.71 240.2 80.71ZM246.43 242.28C246.43 244.6 244.5 246.48 242.12 246.48H173.64C171.26 246.48 169.33 244.6 169.33 242.28V99.11C169.33 96.79 171.26 94.91 173.64 94.91H242.12C244.5 94.91 246.43 96.79 246.43 99.11V242.28Z" fill="#56534F"/>
<path d="M218.11 251.09H198.64C197.88 251.09 197.26 251.71 197.26 252.47V252.6C197.26 253.36 197.88 253.98 198.64 253.98H218.11C218.87 253.98 219.49 253.36 219.49 252.6V252.47C219.48 251.7 218.87 251.09 218.11 251.09Z" fill="#6D6A66"/>
<path d="M218.11 85.3101H198.64C197.88 85.3101 197.26 85.9301 197.26 86.6901V86.8201C197.26 87.5801 197.88 88.2001 198.64 88.2001H218.11C218.87 88.2001 219.49 87.5801 219.49 86.8201V86.6901C219.48 85.9301 218.87 85.3101 218.11 85.3101Z" fill="#6D6A66"/>
<path d="M180.92 91.23C181.848 91.23 182.6 90.4957 182.6 89.59C182.6 88.6842 181.848 87.95 180.92 87.95C179.992 87.95 179.24 88.6842 179.24 89.59C179.24 90.4957 179.992 91.23 180.92 91.23Z" fill="#6D6A66"/>
<path d="M235.22 161.26H180.98L175.67 138.12H240.53L235.22 161.26Z" fill="#77E3FB"/>
<path d="M210.5 199.85L230.13 114.78H185.16L206.13 199.85H210.5Z" fill="#1BA6C5"/>
<path d="M228.39 228.02H188.13C182.39 228.02 177.74 223.37 177.74 217.63V216.66C177.74 210.92 182.39 206.27 188.13 206.27H228.39C234.13 206.27 238.78 210.92 238.78 216.66V217.63C238.78 223.37 234.13 228.02 228.39 228.02Z" fill="white"/>
<path d="M208.86 211.72L209.87 214.84C209.95 215.1 210.19 215.27 210.46 215.27H213.74C214.34 215.27 214.59 216.04 214.11 216.4L211.46 218.33C211.24 218.49 211.15 218.77 211.23 219.03L212.24 222.15C212.43 222.72 211.77 223.2 211.28 222.85L208.63 220.92C208.41 220.76 208.12 220.76 207.9 220.92L205.25 222.85C204.76 223.2 204.1 222.73 204.29 222.15L205.3 219.03C205.38 218.77 205.29 218.49 205.07 218.33L202.42 216.4C201.93 216.05 202.18 215.27 202.79 215.27H206.07C206.34 215.27 206.58 215.1 206.66 214.84L207.67 211.72C207.86 211.15 208.67 211.15 208.86 211.72Z" fill="#F7B548"/>
<path d="M192.92 211.72L193.93 214.84C194.01 215.1 194.25 215.27 194.52 215.27H197.8C198.4 215.27 198.65 216.04 198.17 216.4L195.52 218.33C195.3 218.49 195.21 218.77 195.29 219.03L196.3 222.15C196.49 222.72 195.83 223.2 195.34 222.85L192.69 220.92C192.47 220.76 192.18 220.76 191.96 220.92L189.31 222.85C188.82 223.2 188.16 222.73 188.35 222.15L189.36 219.03C189.44 218.77 189.35 218.49 189.13 218.33L186.48 216.4C185.99 216.05 186.24 215.27 186.85 215.27H190.13C190.4 215.27 190.64 215.1 190.72 214.84L191.73 211.72C191.92 211.15 192.73 211.15 192.92 211.72Z" fill="#F7B548"/>
<path d="M224.8 211.72L225.81 214.84C225.89 215.1 226.13 215.27 226.4 215.27H229.68C230.28 215.27 230.53 216.04 230.05 216.4L227.4 218.33C227.18 218.49 227.09 218.77 227.17 219.03L228.18 222.15C228.37 222.72 227.71 223.2 227.22 222.85L224.57 220.92C224.35 220.76 224.06 220.76 223.84 220.92L221.19 222.85C220.7 223.2 220.04 222.73 220.23 222.15L221.24 219.03C221.32 218.77 221.23 218.49 221.01 218.33L218.36 216.4C217.87 216.05 218.12 215.27 218.73 215.27H222C222.27 215.27 222.51 215.1 222.59 214.84L223.6 211.72C223.8 211.15 224.61 211.15 224.8 211.72Z" fill="#F7B548"/>
<path d="M231.62 131.57H184.01V154.71H231.62V131.57Z" fill="white"/>
<path d="M357.3 35.98H285.16C282.42 35.98 280.2 38.15 280.2 40.82V187.5C280.2 190.17 282.42 192.34 285.16 192.34H357.3C360.04 192.34 362.26 190.17 362.26 187.5V40.82C362.26 38.14 360.04 35.98 357.3 35.98Z" fill="#F7F6F6"/>
<path d="M358.16 23.73H284.69C282.69 23.73 281.07 25.31 281.07 27.26V37.34H361.77V27.26C361.78 25.31 360.15 23.73 358.16 23.73Z" fill="#939393"/>
<path d="M353.19 19.5601H289C281.95 19.5601 276.23 25.1401 276.23 32.0201V181.61C276.23 188.49 281.95 194.07 289 194.07H353.18C360.23 194.07 365.95 188.49 365.95 181.61V32.0201C365.96 25.1401 360.24 19.5601 353.19 19.5601ZM360.64 180.91C360.64 185.19 357.08 188.67 352.69 188.67H289.5C285.11 188.67 281.55 185.2 281.55 180.91V32.7501C281.55 28.4701 285.11 24.9901 289.5 24.9901H352.69C357.08 24.9901 360.64 28.4601 360.64 32.7501V180.91Z" fill="#56534F"/>
<path d="M299.53 24.76V25.9C299.53 28.67 301.83 30.91 304.67 30.91H338.11C340.95 30.91 343.25 28.67 343.25 25.9V24.76H299.53Z" fill="#56534F"/>
<path d="M330.91 28.52C331.683 28.52 332.31 27.9067 332.31 27.15C332.31 26.3934 331.683 25.78 330.91 25.78C330.137 25.78 329.51 26.3934 329.51 27.15C329.51 27.9067 330.137 28.52 330.91 28.52Z" fill="#6D6A66"/>
<path d="M316.75 28.32H325.78C326.33 28.32 326.77 27.88 326.77 27.33V27.25C326.77 26.7 326.33 26.26 325.78 26.26H316.75C316.2 26.26 315.76 26.7 315.76 27.25V27.33C315.77 27.87 316.21 28.32 316.75 28.32Z" fill="#6D6A66"/>
<path d="M335.39 186.69H307.07C306.61 186.69 306.23 186.32 306.23 185.87C306.23 185.42 306.61 185.05 307.07 185.05H335.39C335.85 185.05 336.23 185.42 336.23 185.87C336.24 186.32 335.86 186.69 335.39 186.69Z" fill="white"/>
<path d="M344.39 68.36L336.3 61.74L315.94 71.55L308.1 67.62L290.82 81.69V142.24H350.88V62.19L344.39 68.36Z" fill="#E1EA95"/>
<path d="M344.9 83.3201L330.9 92.8601L319.7 89.6101L301.38 105.66L290.82 106.29V166.84H350.88V86.7901L344.9 83.3201Z" fill="#CBD94F"/>
<path d="M338.03 116.29L328.74 113.11L312.72 131.33L301.18 127L290.77 130.19V167.06H350.85V107.67L338.03 116.29Z" fill="#B2C133"/>
</svg>
