<svg width="636" height="300" viewBox="0 0 636 300" fill="none" xmlns="http://www.w3.org/2000/svg">
<path d="M113.4 228.7C113.4 228.7 411.6 268.9 419.5 270C427.4 271.1 459.2 272.3 462.1 250.7C465 229.1 488.1 57.8001 488.1 57.8001L142.8 11.1001L113.4 228.7Z" fill="#C7E0F4"/>
<path d="M128.3 217.6L419.3 256.8C440.1 259.6 454 252.6 463.1 244C463.3 242.7 463.5 241.2 463.7 239.6C455.3 248.7 441.6 257 419.7 254L131.6 215.2L156.6 29.6L486 73.9001C486.1 72.9001 486.3 72 486.4 71.1L154.1 26.3L128.3 217.6Z" fill="white"/>
<path d="M347.5 122.2C351.3 94.3001 331.6 68.6001 303.8 64.8001C275.9 61.0001 250.2 80.7001 246.4 108.5C245.1 118.3 246.6 128 250.8 136.9H250.6L252.1 139.5C266.8 164.9 267.1 184.9 266.9 189.2L262.9 218.7L269.9 219.6L272 225.3L291.9 228L295.4 223.1L302.6 224.1L306.3 196.8L306.5 195.4C306.5 195.2 309.5 174.8 333 151.8L335 149.7H334.9C341.7 141.9 346.1 132.5 347.5 122.2ZM300 220.7L294 219.9L290.5 224.8L274.1 222.6L272 216.9L266.1 216.1L269.4 191.7L303.3 196.3L300 220.7ZM284.4 190.7L284.8 115.8C288.5 116.7 292.4 117.5 296.4 118C301.1 118.6 305.7 118.9 310.1 118.9L290.5 191.5L284.4 190.7ZM330.7 149.5L328.7 151.6C309.6 171.2 304.8 188.2 303.7 193.3L294.1 192L313.8 118.9C321.3 118.6 328 117.5 333.4 115.5C334.4 115.1 334.8 114.1 334.5 113.1C334.1 112.1 333.1 111.7 332.1 112C327.4 113.8 321.5 114.8 314.9 115.1L316.7 108.4C317 107.4 316.4 106.4 315.4 106.1C314.4 105.8 313.4 106.4 313.1 107.4L311 115.2C306.4 115.2 301.6 114.9 296.8 114.3C292.6 113.7 288.6 112.9 284.7 111.9V103.6C284.7 102.6 283.9 101.7 282.8 101.7C281.8 101.7 280.9 102.5 280.9 103.5V110.8C274.5 108.9 268.8 106.4 264.5 103.5C263.6 102.9 262.5 103.2 261.9 104C261.3 104.8 261.6 106 262.4 106.6C267.3 109.8 273.7 112.6 280.9 114.7L280.5 190.1L269.6 188.6C269.7 183.1 269.1 163.6 254.8 138.6L254.4 137.9C249.6 128.9 247.7 118.8 249.1 108.8C252.6 82.5001 276.9 64.0001 303.2 67.6001C329.5 71.1001 348 95.4001 344.4 121.7C343.2 132.4 338.4 142 330.7 149.5Z" fill="white"/>
<path d="M162.942 93.6737L162.554 96.5476L216.96 103.882L217.348 101.008L162.942 93.6737Z" fill="white"/>
<path d="M164.477 82.1642L164.089 85.0381L234.747 94.5638L235.135 91.6899L164.477 82.1642Z" fill="white"/>
<path d="M166.082 70.5558L165.694 73.4297L237.542 83.1157L237.929 80.2418L166.082 70.5558Z" fill="white"/>
<path d="M167.628 59.1012L167.241 61.9751L238.295 71.5542L238.683 68.6803L167.628 59.1012Z" fill="white"/>
<path d="M355 99L305.5 92.3L309.4 89.4L305.3 88.8L299.7 93L303.9 98.6L308.1 99.1L305.1 95.2L354.6 101.9L355 99Z" fill="white"/>
<path d="M373.9 85.1001L374.4 81.0001L370.2 75.4001L364.7 79.7001L364.1 83.8001L368 80.8001L348.6 225.1L345.6 221.2L345 225.4L349.2 230.9L354.8 226.7L355.4 222.6L351.4 225.5L370.9 81.2001L373.9 85.1001Z" fill="white"/>
<path d="M336.929 66.4638L336.542 69.3376L404.921 78.556L405.308 75.6822L336.929 66.4638Z" fill="white"/>
<path d="M452.4 217.7L382.6 208.3L392.2 137.4L462 146.8L452.4 217.7ZM385.9 205.8L449.9 214.4L458.7 149.2L394.7 140.6L385.9 205.8Z" fill="white"/>
<path d="M216.594 215.431L216.207 218.305L251.189 223.021L251.577 220.147L216.594 215.431Z" fill="white"/>
<path d="M426.2 220.4C446.4 223.1 461.8 234.8 462.4 247.3C465.4 224.9 485.8 73.8001 487.8 58.8001C489.9 43.5001 489.3 32.9001 464 24.1001L403.5 221.7C410.2 219.8 418 219.3 426.2 220.4Z" fill="url(#paint0_linear)"/>
<path d="M359.4 189.6C349.9 195.8 338 195.6 335.7 195.5C327.4 194.2 320.1 188.3 317.5 179.6C315.8 174 316.3 168.4 318.6 163.5C319.3 162 318.6 160.2 317 159.6C315.6 159.1 314.1 159.7 313.5 161C309.6 168.1 308.5 176.7 311.1 185.1C314.8 197.2 325.1 205.4 336.8 207C338.6 213.5 342.5 222.2 351.1 231.8C366.7 249.4 374.3 217.7 374.3 217.7C360.5 202.4 360.4 194.8 359.4 189.6Z" fill="#2B579A"/>
<path d="M385.405 109.842L289.211 203.858L303.89 218.877L400.084 124.862L385.405 109.842Z" fill="#F7B548"/>
<path d="M300.377 193.944L298.589 195.691L304.74 201.985L306.528 200.238L300.377 193.944Z" fill="#FFD590"/>
<path d="M311.114 183.489L309.326 185.236L315.477 191.53L317.265 189.782L311.114 183.489Z" fill="#FFD590"/>
<path d="M321.925 172.956L320.137 174.704L326.288 180.997L328.076 179.25L321.925 172.956Z" fill="#FFD590"/>
<path d="M332.667 162.352L330.879 164.1L337.03 170.394L338.818 168.646L332.667 162.352Z" fill="#FFD590"/>
<path d="M343.404 151.897L341.616 153.645L347.767 159.938L349.555 158.191L343.404 151.897Z" fill="#FFD590"/>
<path d="M354.215 141.365L352.427 143.112L358.579 149.406L360.367 147.658L354.215 141.365Z" fill="#FFD590"/>
<path d="M365.024 130.839L363.236 132.587L369.387 138.88L371.175 137.133L365.024 130.839Z" fill="#FFD590"/>
<path d="M375.694 120.305L373.906 122.053L380.057 128.346L381.845 126.599L375.694 120.305Z" fill="#FFD590"/>
<path d="M356.8 147.7C355.8 149.1 356.2 150.9 357.7 151.8C362.3 154.6 365.9 159 367.6 164.6C371.3 176.7 364.5 189.4 352.4 193.1C351.7 193.3 353.8 204.9 353.8 204.9C354.3 204.8 354.7 204.7 355.2 204.6C371.7 199.6 381.1 182.1 376 165.5C373.5 157.1 367.7 150.6 360.6 146.9C359.2 146.2 357.6 146.5 356.8 147.7Z" fill="#2B579A"/>
<path d="M428.2 290.2L373.7 218.9L352 235.4L390 285L428.2 290.2Z" fill="#8DBCF4"/>
<path d="M369 212.8L347.3 229.4C343 232.7 342.2 238.9 345.4 243.2L352.1 252C355.4 256.3 361.6 257.1 365.9 253.9L387.6 237.3C391.9 234 392.7 227.8 389.5 223.5L382.8 214.7C379.5 210.3 373.3 209.5 369 212.8Z" fill="#4995EE"/>
<path d="M282.472 150.807C285.056 134.889 274.201 119.882 258.228 117.29C242.255 114.698 227.212 125.501 224.628 141.42C222.045 157.338 232.899 172.344 248.872 174.937C264.845 177.529 279.889 166.726 282.472 150.807Z" fill="white"/>
<path d="M223.7 154.5L174.4 178.5C171.8 179.7 170.8 182.8 172 185.4C173.2 188 176.3 189 178.9 187.8L228.2 163.8L223.7 154.5Z" fill="#AE9CEB"/>
<path d="M154.9 157.3L198.5 143.2C204.5 141.1 211 144.3 213.1 150.2C215.2 156.2 212 162.7 206.1 164.8L163 178.7L154.9 157.3Z" fill="#8A6FE8"/>
<path d="M168.3 167.8C167.9 167.8 129.9 164.8 105.4 141.8L101.8 168.6C130.7 188.2 164.8 190.9 166.7 191L168.3 167.8Z" fill="#8A6FE8"/>
<path d="M156 202.6C168.8 206 181.9 198.4 185.3 185.6C188.7 172.8 181.1 159.7 168.3 156.3C155.5 152.9 142.4 160.5 139 173.3C135.6 186.1 143.2 199.2 156 202.6Z" fill="url(#paint1_radial)"/>
<path d="M190.8 181.6L202.7 189.2C208.1 192.4 210 199.4 206.8 204.8C203.6 210.2 196.6 212.1 191.2 208.9L179.1 201.2C173.8 198 170 191 174.5 184.3C178.5 178.3 185.2 178.3 190.8 181.6Z" fill="#8A6FE8"/>
<path d="M174.1 187.8L186 195.4C191.4 198.6 193.3 205.6 190.1 211C186.9 216.4 179.9 218.3 174.5 215.1L162.4 207.4C157.1 204.2 153.3 197.2 157.8 190.5C161.9 184.5 168.6 184.5 174.1 187.8Z" fill="#8A6FE8"/>
<path d="M245.7 118C244 118.5 242.4 119.1 240.8 119.8C238.8 120.8 236.9 122 235.2 123.4C242 143.6 254.3 159.9 266.8 172.2C270.5 170.3 273.6 167.8 276.1 164.8C263.9 153 251.9 137.4 245.7 118Z" fill="#C7E0F4"/>
<path d="M223.8 160.2C215.9 143.9 222.7 124.3 238.9 116.4C255.1 108.5 274.8 115.3 282.7 131.6C290.6 147.9 283.8 167.5 267.6 175.5C251.4 183.3 231.7 176.5 223.8 160.2ZM278.4 133.6C271.6 119.7 254.9 113.9 241 120.7C227.1 127.5 221.3 144.2 228.1 158.1C234.9 172 251.6 177.8 265.5 171C279.4 164.2 285.2 147.5 278.4 133.6Z" fill="#AE9CEB"/>
<path d="M232.3 90.1001C233.1 91.4001 234.7 92.3001 236.2 92.0001L254.2 88.7001C254.4 88.6001 254.7 88.6001 254.9 88.5001L277.3 78.2001C279 77.4001 279.6 75.3001 278.7 73.4001C277.8 71.6001 275.6 70.6001 273.9 71.4001L251.8 81.5001L234.2 84.8001C232.3 85.1001 231.3 87.1001 231.8 89.1001C231.9 89.3001 232.1 89.7001 232.3 90.1001Z" fill="#138FAB"/>
<path d="M233.8 55.3C234.7 56.7 236.4 57.5 237.9 57.1C240.7 56.3 247.4 52.5 250.3 50.8L269.5 54.8C271.4 55.2 273.1 53.9 273.3 51.9C273.5 49.9 272.1 47.9 270.1 47.5L249.7 43.2C248.9 43 248.1 43.2 247.4 43.6C243.5 45.9 237.3 49.3 235.5 49.8C233.7 50.3 232.7 52.3 233.4 54.3C233.5 54.8 233.7 55 233.8 55.3Z" fill="#138FAB"/>
<path d="M376 12.4001L369.6 35.0001L292.3 51.9001C287.5 52.9001 284.4 57.7001 285.5 62.5001C285.8 63.7001 286.2 64.7001 286.9 65.7001C288.9 68.6001 292.5 70.1001 296.1 69.3001L378.6 51.2001C381.8 50.5001 384.4 48.1001 385.3 44.9001L393.9 14.7001L376 12.4001Z" fill="#70D6E0"/>
<path d="M306.9 51.9L309.5 63.7C309.9 65.6 308.9 67.4 307.1 67.7L297.9 69.3C297.6 69.4 297.3 69.5 297 69.6L276.7 80.3C274.7 81.3 272.2 80 271.6 77.6L264.8 48.7C264.2 46.3 266 44.2 268.4 44.7L293.2 49.5C293.5 49.6 293.8 49.6 294.1 49.5L303 48.7C304.7 48.6 306.5 50 306.9 51.9Z" fill="#1DACCC"/>
<path d="M221.1 96.7C220.9 97.4 221.1 98.3 221.7 98.7C222.3 99.1 223.2 99.2 223.8 98.7C223.8 98.7 233.1 91.9 233.2 91.8L286.4 19.3C287 18.5 286.8 17.4 286 16.8L280.5 12.8C279.7 12.2 278.6 12.4 278 13.2L224.7 85.7C224.8 85.8 221.1 96.7 221.1 96.7Z" fill="#28C2D1"/>
<path d="M230.8 87.5001L221.7 98.7001C222.3 99.2001 223.2 99.2001 223.8 98.7001L232.8 92.2001C232.9 92.1001 233.1 92.0001 233.2 91.8001L286.4 19.3001C287 18.5001 286.8 17.4001 286 16.8001L284.1 15.4001L230.8 87.5001Z" fill="#1DACCC"/>
<path d="M224.6 86.1001L221.3 95.8001L218.6 99.3001C218.3 99.7001 218.4 100.3 218.8 100.6L220.4 101.8C220.8 102.1 221.4 102 221.7 101.6L224.3 98.2001L232.8 92.1001C232.9 92.2001 224.7 86.0001 224.6 86.1001Z" fill="#B3AFAB"/>
<path d="M268.6 64.8L253.1 69.2L232.2 70.4C230.3 70.5 229 72.3 229.3 74.3C229.4 74.9 229.6 75.4 229.9 75.9C230.7 77.1 232 77.9 233.3 77.8L254.6 76.6C254.8 76.6 255.1 76.5 255.3 76.5L270.4 72.2L268.6 64.8Z" fill="#138FAB"/>
<path d="M221.4 95.8L218.7 99.3C218.4 99.7 218.5 100.3 218.9 100.6L220.5 101.8C220.9 102.1 221.5 102 221.8 101.6L224.4 98.2L224.5 98.1L221.4 95.8Z" fill="#797672"/>
<path d="M195.8 165.6L212.3 175.9C217.7 179.1 219.6 186.1 216.4 191.5C213.2 196.9 206.2 198.8 200.8 195.6L184.2 185.2C178.9 182 176 174.7 179.6 168.3C183.2 161.9 190.3 162.3 195.8 165.6Z" fill="#8A6FE8"/>
<defs>
<linearGradient id="paint0_linear" x1="477.224" y1="137.552" x2="415.923" y2="129.288" gradientUnits="userSpaceOnUse">
<stop stop-color="#A3C9F6"/>
<stop offset="0.4545" stop-color="#76AFF2"/>
</linearGradient>
<radialGradient id="paint1_radial" cx="0" cy="0" r="1" gradientUnits="userSpaceOnUse" gradientTransform="translate(172.928 182.443) rotate(-75.1523) scale(35.8983)">
<stop stop-color="#8065E0"/>
<stop offset="1" stop-color="#512BD4"/>
</radialGradient>
</defs>
</svg>
