<svg width="636" height="300" viewBox="0 0 636 300" fill="none" xmlns="http://www.w3.org/2000/svg">
<path d="M521.82 106.63L504.9 97.8101V95.8801L521.82 87.1301V90.0401L508.08 96.8001L521.82 103.68V106.63Z" fill="#9C9894"/>
<path d="M536.26 83.4501L526.88 111.49L524 111.42L533.41 83.3301L536.26 83.4501Z" fill="#9C9894"/>
<path d="M538.4 104.19L551.64 98.3601L538.4 90.6901V87.8101L554.62 97.6401V99.5101L538.4 107.11V104.19Z" fill="#9C9894"/>
<path d="M557.74 122.15L593.14 162.26C595.24 164.65 595.11 168.41 592.85 170.66C590.59 172.91 587.06 172.81 584.94 170.43L549.3 130.72L557.74 122.15Z" fill="#3E8EED"/>
<path d="M556.13 138.37L564.51 129.86L593.14 162.26C595.24 164.65 595.11 168.41 592.86 170.66C590.6 172.91 587.07 172.81 584.95 170.43L556.13 138.37Z" fill="#085A7E"/>
<path d="M513.55 134.93C493.89 125.04 485.2 100.03 494.53 79.65C503.75 59.51 526.86 52.12 545.69 62.72C564.06 73.05 571.9 96.94 563.48 116.39C554.96 136.07 532.71 144.57 513.55 134.93ZM515.33 130.91C532.39 139.55 552.25 132.02 559.88 114.47C567.43 97.09 560.4 75.76 543.97 66.57C527.17 57.18 506.63 63.82 498.44 81.74C490.18 99.85 497.88 122.07 515.33 130.91Z" fill="#C4C1BE"/>
<path d="M517.98 236.81L423.5 241.92V111.48L517.98 113.81V236.81Z" fill="#C5D43B"/>
<path d="M499.39 162.4L443.9 162.75V130.31L499.39 131.06V162.4Z" fill="#DEE88B"/>
<path d="M499.39 217.23L443.9 219.51V168.22L499.39 167.68V217.23Z" fill="#DEE88B"/>
<path d="M387.81 177.33L212.69 180.54C209.64 180.6 207.16 178.05 207.16 174.86V34.79C207.16 31.6 209.64 29.2 212.69 29.45L387.81 43.45C390.2 43.64 392.12 46.07 392.12 48.89V172.17C392.12 174.97 390.19 177.29 387.81 177.33Z" fill="#B3AFAB"/>
<path d="M389.92 177.29L215.37 180.49C212.33 180.55 209.86 178.01 209.86 174.82V35.0001C209.86 31.8101 212.33 29.4201 215.37 29.6701L389.92 43.6201C392.3 43.8101 394.22 46.2401 394.22 49.0501V172.14C394.22 174.94 392.29 177.25 389.92 177.29Z" fill="#625F5B"/>
<path d="M385.19 164.59L221.35 166.06C220.52 166.07 219.85 165.37 219.85 164.5V40.4401C219.85 39.5701 220.52 38.9101 221.35 38.9701L385.19 51.1201C385.85 51.1701 386.38 51.8401 386.38 52.6101V163.16C386.38 163.95 385.85 164.58 385.19 164.59Z" fill="#33D5F9"/>
<path d="M439.11 189.71C439.11 188.12 439.11 187.09 439.11 186.56C439.11 186.13 392.98 179.92 392.98 179.92L211.9 179.48V181.69C211.9 181.69 211.94 183.64 213.9 184.35C215.86 185.06 267.82 195.79 267.82 195.79C270.47 196.75 273.26 197.18 276.06 197.08L437.88 191.29C438.89 191.26 439.13 190.7 439.11 189.71Z" fill="#9C9894"/>
<path d="M438.21 187.75L276.05 193.11C273.25 193.2 270.46 192.76 267.81 191.8L211.79 179.45L392.97 176.26L438.49 185.57C439.48 185.94 439.24 187.72 438.21 187.75Z" fill="#CCCAC7"/>
<path d="M331.65 106C331.65 121.33 320.6 133.6 306.73 133.42C292.59 133.23 280.92 120.21 280.92 104.34C280.92 88.47 292.59 76.21 306.73 76.95C320.6 77.67 331.65 90.67 331.65 106Z" fill="white"/>
<path d="M366.74 59.87V50.84C366.74 50.1 366.23 49.47 365.59 49.42L220.91 38.66C220.14 38.6 219.51 39.22 219.51 40.03V50.03L366.74 59.87Z" fill="#27BEE0"/>
<path d="M300.51 115.98V94.5401C300.51 93.1901 301.83 92.4101 302.87 93.1401L318.18 103.8C319.16 104.48 319.19 106.05 318.24 106.72L302.93 117.5C301.9 118.22 300.51 117.36 300.51 115.98Z" fill="#F7B548"/>
<path d="M90.7301 143.43L251.82 144.3C253.57 144.31 254.99 145.84 254.99 147.72V260.1C254.99 261.98 253.57 263.61 251.82 263.74L90.7301 275.7C88.5801 275.86 86.8301 274.3 86.8301 272.21V147.2C86.8201 145.11 88.5701 143.42 90.7301 143.43Z" fill="#625F5B"/>
<path d="M101.31 154.3L243.07 154.13C243.63 154.13 244.09 154.61 244.09 155.21V253.35C244.09 253.95 243.64 254.46 243.07 254.5L101.31 264.11C100.64 264.16 100.09 263.66 100.09 263.01V155.49C100.09 154.83 100.64 154.3 101.31 154.3Z" fill="#8DBCF4"/>
<path d="M175.24 266.85C173.58 266.97 172.23 265.69 172.23 264C172.23 262.31 173.58 260.84 175.24 260.73C176.9 260.62 178.23 261.89 178.23 263.58C178.24 265.27 176.9 266.73 175.24 266.85Z" fill="#84817D"/>
<path d="M172.46 192.66L234.28 191.09V162.05L172.46 162.44V192.66Z" fill="white"/>
<path d="M188.77 174.3L177.9 192.53L230.69 191.18L220.79 172.84L210.75 190.78L199.81 191.05L188.77 174.3Z" fill="#CAE0FA"/>
<path d="M205.3 166.78L193.4 192.13L218.49 191.49L205.3 166.78Z" fill="#3E8EED"/>
<path d="M156.79 167.72L114.26 168.13C113.17 168.14 112.28 167.28 112.28 166.2C112.28 165.13 113.17 164.25 114.26 164.24L156.79 163.93C157.83 163.92 158.66 164.76 158.66 165.81C158.66 166.86 157.82 167.71 156.79 167.72Z" fill="white"/>
<path d="M156.79 177.82L114.26 178.5C113.17 178.52 112.28 177.66 112.28 176.59C112.28 175.52 113.17 174.63 114.26 174.62L156.79 174.04C157.83 174.03 158.66 174.86 158.66 175.91C158.66 176.94 157.82 177.8 156.79 177.82Z" fill="white"/>
<path d="M156.79 187.91L114.26 188.86C113.17 188.88 112.28 188.03 112.28 186.96C112.28 185.89 113.17 185 114.26 184.97L156.79 184.12C157.83 184.1 158.66 184.93 158.66 185.97C158.66 187.03 157.82 187.89 156.79 187.91Z" fill="white"/>
<path d="M146.95 223.12L113.28 224.6V204.31L146.95 203.24V223.12Z" fill="#C5D43B"/>
<path d="M146.95 251.43L113.28 253.51V233.21L146.95 231.55V251.43Z" fill="#F7B548"/>
<path d="M221.11 206.11L159.11 208.29C158.08 208.33 157.24 207.51 157.24 206.46C157.24 205.41 158.08 204.54 159.11 204.51L221.11 202.48C222.06 202.45 222.84 203.24 222.84 204.24C222.83 205.24 222.06 206.08 221.11 206.11Z" fill="white"/>
<path d="M199.37 216.7L159.11 218.37C158.08 218.41 157.24 217.6 157.24 216.56C157.24 215.52 158.08 214.63 159.11 214.59L199.37 213.02C200.35 212.98 201.15 213.77 201.15 214.79C201.15 215.81 200.35 216.66 199.37 216.7Z" fill="white"/>
<path d="M221.11 232.75L159.11 236.01C158.08 236.06 157.24 235.26 157.24 234.22C157.24 233.18 158.08 232.29 159.11 232.23L221.11 229.12C222.06 229.07 222.84 229.85 222.84 230.85C222.84 231.85 222.06 232.7 221.11 232.75Z" fill="white"/>
<path d="M185.13 244.56L159.11 246.09C158.08 246.15 157.24 245.35 157.24 244.31C157.24 243.27 158.08 242.37 159.11 242.31L185.13 240.84C186.13 240.78 186.94 241.57 186.94 242.6C186.94 243.62 186.13 244.5 185.13 244.56Z" fill="white"/>
<path d="M453.95 136.42L480.14 136.68" stroke="white" stroke-width="3.0081" stroke-miterlimit="10" stroke-linecap="round" stroke-linejoin="round"/>
<path d="M453.95 142.82L490.85 143.03" stroke="white" stroke-width="3.0081" stroke-miterlimit="10" stroke-linecap="round" stroke-linejoin="round"/>
<path d="M453.95 149.21L486.26 149.28" stroke="white" stroke-width="3.0081" stroke-miterlimit="10" stroke-linecap="round" stroke-linejoin="round"/>
<path d="M453.95 155.61L477.65 155.56" stroke="white" stroke-width="3.0081" stroke-miterlimit="10" stroke-linecap="round" stroke-linejoin="round"/>
<path d="M453.95 174.19L480.14 173.83" stroke="white" stroke-width="3.0081" stroke-miterlimit="10" stroke-linecap="round" stroke-linejoin="round"/>
<path d="M453.95 180.58L484.73 180.05" stroke="white" stroke-width="3.0081" stroke-miterlimit="10" stroke-linecap="round" stroke-linejoin="round"/>
<path d="M453.95 186.98L492.12 186.17" stroke="white" stroke-width="3.0081" stroke-miterlimit="10" stroke-linecap="round" stroke-linejoin="round"/>
<path d="M453.95 193.38L485.5 192.58" stroke="white" stroke-width="3.0081" stroke-miterlimit="10" stroke-linecap="round" stroke-linejoin="round"/>
<path d="M453.95 199.57L471.42 199.06" stroke="white" stroke-width="3.0081" stroke-miterlimit="10" stroke-linecap="round" stroke-linejoin="round"/>
<path d="M463.68 155.26L452.95 155.28C451.76 150.61 447.48 147.13 442.34 147.11L418.61 147.03C412.32 147.01 407.19 151.95 407.19 158.06V163.3C407.19 169.41 412.32 174.29 418.61 174.21L442.34 173.9C448.4 173.82 453.29 168.94 453.29 163V161.57L463.68 155.26Z" fill="#9C9894"/>
<path d="M495.58 202.27L480.97 202.73L475 193.03V202.92L473.38 202.97C467.5 203.16 462.7 208.09 462.7 214V219.06C462.7 224.97 467.5 229.52 473.38 229.24L495.58 228.18C501.26 227.91 505.83 223.03 505.83 217.28V212.35C505.83 206.61 501.26 202.09 495.58 202.27Z" fill="#9C9894"/>
<path d="M502.17 108.4L480.16 107.79C474.33 107.63 469.57 112.26 469.57 118.14V123.18C469.57 129.06 474.33 133.88 480.16 133.95L484.76 134V144.55L491.09 134.07L502.17 134.2C507.8 134.26 512.33 129.68 512.33 123.95V119.04C512.33 113.33 507.8 108.56 502.17 108.4Z" fill="#9C9894"/>
<path d="M441.46 39.4401L405.98 46.3501L405.92 86.8101C405.02 85.9001 403.74 86.2501 402.42 86.2001C401.13 86.1501 400.07 84.6901 399.16 85.5001L399.22 45.9701L362.24 34.5801L362.29 83.1301L397.63 91.1701C398.79 93.2001 400.2 93.9201 402.4 93.9901C404.59 94.0601 406.08 93.3401 407.17 91.5101L441.52 86.0901L441.46 39.4401Z" fill="#1572E0"/>
<path d="M436.22 34.96C436.22 34.96 410.58 38.32 407.22 39.26C403.85 40.2 402.46 42.57 402.54 47.22C402.62 51.87 402.39 86.55 402.39 86.55L436.45 80.71L436.22 34.96Z" fill="#CAE0FA"/>
<path d="M368.18 30.6301C368.18 30.6301 394.63 37.3401 398.03 38.7001C401.41 40.0501 402.79 42.5801 402.67 47.2301C402.56 51.8701 402.39 86.5501 402.39 86.5501L367.29 78.0501L368.18 30.6301Z" fill="#A3C9F6"/>
<path d="M396.15 47.2001C396.11 47.2001 396.07 47.1901 396.03 47.1801L374.66 41.5501C374.3 41.4601 374.06 41.0701 374.13 40.6901C374.2 40.3101 374.57 40.0801 374.91 40.1801L396.27 45.8201C396.62 45.9101 396.85 46.2901 396.79 46.6701C396.73 47.0001 396.46 47.2101 396.15 47.2001Z" fill="#B3AFAB"/>
<path d="M396.13 53.77C396.09 53.77 396.05 53.76 396.01 53.75L374.66 48.2C374.3 48.11 374.06 47.72 374.13 47.35C374.2 46.97 374.56 46.74 374.91 46.84L396.26 52.4C396.61 52.49 396.84 52.87 396.77 53.24C396.71 53.57 396.44 53.78 396.13 53.77Z" fill="#B3AFAB"/>
<path d="M396.11 60.3302C396.07 60.3302 396.03 60.3202 395.99 60.3102L374.65 54.8402C374.29 54.7502 374.05 54.3702 374.12 53.9902C374.19 53.6102 374.55 53.3802 374.9 53.4702L396.24 58.9602C396.59 59.0502 396.82 59.4302 396.75 59.8002C396.69 60.1302 396.41 60.3502 396.11 60.3302Z" fill="#B3AFAB"/>
<path d="M396.09 66.8901C396.05 66.8901 396.01 66.8801 395.97 66.8701L374.64 61.4801C374.28 61.3901 374.04 61.0101 374.11 60.6301C374.18 60.2501 374.54 60.0201 374.89 60.1101L396.21 65.5201C396.56 65.6101 396.79 65.9801 396.72 66.3601C396.67 66.6901 396.39 66.9001 396.09 66.8901Z" fill="#B3AFAB"/>
<path d="M408.91 47.9102C408.95 47.9102 408.99 47.9102 409.03 47.9002L429.7 44.7502C430.04 44.7002 430.27 44.3502 430.21 43.9802C430.15 43.6002 429.8 43.3402 429.47 43.3902L408.79 46.5202C408.44 46.5702 408.21 46.9202 408.27 47.3002C408.34 47.6502 408.61 47.8902 408.91 47.9102Z" fill="#B3AFAB"/>
<path d="M408.88 54.4402C408.92 54.4402 408.96 54.4402 409 54.4302L429.66 51.2202C430 51.1702 430.23 50.8202 430.16 50.4402C430.1 50.0602 429.75 49.8002 429.42 49.8602L408.75 53.0602C408.4 53.1102 408.17 53.4702 408.24 53.8402C408.31 54.1802 408.58 54.4302 408.88 54.4402Z" fill="#B3AFAB"/>
<path d="M408.85 60.9601C408.89 60.9601 408.93 60.9601 408.97 60.9501L429.62 57.6801C429.96 57.6301 430.19 57.2801 430.12 56.9001C430.06 56.5201 429.71 56.2601 429.38 56.3201L408.72 59.5801C408.37 59.6301 408.14 59.9901 408.21 60.3601C408.28 60.7101 408.55 60.9501 408.85 60.9601Z" fill="#B3AFAB"/>
<path d="M408.82 67.4801C408.86 67.4801 408.9 67.4801 408.94 67.4701L429.58 64.1301C429.92 64.0801 430.15 63.7301 430.08 63.3501C430.02 62.9801 429.67 62.7101 429.34 62.7701L408.7 66.0901C408.35 66.1501 408.12 66.5001 408.19 66.8801C408.25 67.2201 408.52 67.4601 408.82 67.4801Z" fill="#B3AFAB"/>
<path d="M399.98 87.35C400.75 86.88 401.66 86.61 402.62 86.65C403.52 86.68 404.35 86.97 405.07 87.43L437.88 82.19L437.87 39.94L436.13 34.97L436.09 79.2C436.09 79.2 409.25 83.53 406.84 84.03C404.43 84.53 402.45 86.52 402.45 86.52C402.45 86.52 401.51 84.76 398.47 83.82C395.42 82.87 368.17 76.91 368.17 76.91L368.27 30.76L366.3 35.93L366.4 79.99L399.98 87.35Z" fill="#4995EE"/>
</svg>
