<svg width="636" height="300" viewBox="0 0 636 300" fill="none" xmlns="http://www.w3.org/2000/svg">
<path d="M202.48 223.87L82.7999 216.93L81.8799 116.5L201.71 110.42L202.48 223.87Z" fill="#8DBCF4"/>
<path d="M184.24 136.06L95.5898 138.42C93.5398 138.47 91.8698 136.15 91.8398 133.22C91.8098 130.29 93.4498 127.86 95.4998 127.78L184.17 124.41C186.64 124.32 188.66 126.86 188.69 130.09C188.69 133.33 186.7 136 184.24 136.06Z" fill="#84817D"/>
<path d="M184.4 159.11L95.7699 159.48C93.7199 159.49 92.0499 157.13 92.0199 154.2C91.9899 151.28 93.6299 148.88 95.6699 148.85L184.31 147.48C186.78 147.44 188.8 150.03 188.82 153.25C188.86 156.47 186.87 159.1 184.4 159.11Z" fill="#84817D"/>
<path d="M120.6 126.83L95.4898 127.78C93.4398 127.86 91.8098 130.29 91.8298 133.22C91.8598 136.15 93.5298 138.47 95.5798 138.42L120.69 137.75L120.6 126.83Z" fill="#D8E8FB"/>
<path d="M113.82 148.56L113.91 159.4L144.1 159.27L144.01 148.1L113.82 148.56Z" fill="#D8E8FB"/>
<path d="M100.51 184.52L95.9398 184.42C94.8898 184.4 94.0298 183.16 94.0198 181.66L93.9598 175.17C93.9498 173.67 94.7898 172.46 95.8398 172.47L100.41 172.51C101.47 172.52 102.35 173.76 102.36 175.27L102.42 181.82C102.43 183.34 101.57 184.54 100.51 184.52Z" fill="#BDD8F9"/>
<path d="M133.9 181.17L108.84 180.71L108.81 177.66L133.88 178.04L133.9 181.17Z" fill="#84817D"/>
<path d="M100.68 204.13L96.11 203.93C95.06 203.88 94.2 202.63 94.19 201.14L94.13 194.65C94.12 193.15 94.96 191.96 96.01 191.99L100.58 192.13C101.64 192.16 102.52 193.41 102.53 194.93L102.59 201.47C102.6 202.99 101.75 204.17 100.68 204.13Z" fill="#BDD8F9"/>
<path d="M134.07 201.47L109.01 200.49L108.98 197.45L134.04 198.35L134.07 201.47Z" fill="#84817D"/>
<path d="M150.82 185.65L145.75 185.54C144.59 185.51 143.63 184.21 143.62 182.63L143.57 175.8C143.56 174.22 144.49 172.95 145.65 172.96L150.72 173.01C151.9 173.02 152.87 174.32 152.88 175.92L152.93 182.82C152.94 184.41 152 185.68 150.82 185.65Z" fill="#BDD8F9"/>
<path d="M187.95 182.15L160.07 181.64L160.04 178.43L187.92 178.85L187.95 182.15Z" fill="#84817D"/>
<path d="M150.98 206.3L145.91 206.08C144.75 206.03 143.79 204.71 143.78 203.13L143.73 196.3C143.72 194.72 144.65 193.47 145.81 193.51L150.88 193.66C152.06 193.7 153.03 195.02 153.04 196.61L153.09 203.5C153.11 205.11 152.16 206.35 150.98 206.3Z" fill="#BDD8F9"/>
<path d="M188.1 203.58L160.23 202.49L160.2 199.29L188.07 200.29L188.1 203.58Z" fill="#84817D"/>
<path d="M292.79 184.59L171.57 182.32C168.99 182.27 166.88 179.47 166.85 176.06L165.99 61.2001C165.96 57.7701 168.03 54.7701 170.62 54.4901L292.06 41.4201C295.33 41.0701 298 43.9301 298.02 47.8001L298.67 177.71C298.69 181.57 296.05 184.65 292.79 184.59Z" fill="#F7B548"/>
<path d="M238.87 62.2402L176.61 68.0702L176.56 60.7402L238.82 54.4602L238.87 62.2402Z" fill="#DF9B39"/>
<path d="M298.38 119.2L166.46 124.31L166.62 144.64L298.49 142.19L298.38 119.2Z" fill="#DF9B39"/>
<path d="M298.51 145.58L166.64 147.64L166.79 167.95L298.62 168.55L298.51 145.58Z" fill="#FCCF84"/>
<path d="M166.29 101.22L166.44 121.57L298.36 116.1L298.25 93.0801L166.29 101.22Z" fill="white"/>
<path d="M166.12 78.1102L166.27 98.4802L298.23 89.9802L298.12 66.9402L166.12 78.1102Z" fill="#FCCF84"/>
<path d="M246.29 84.3201L196.78 87.9201L196.76 84.5801L246.27 80.8201L246.29 84.3201Z" fill="#B3AFAB"/>
<path d="M187.68 87.3801C187.71 91.3501 185.27 94.7301 182.25 94.9301C179.25 95.1301 176.8 92.1101 176.77 88.1801C176.74 84.2501 179.14 80.8701 182.14 80.6301C185.16 80.3901 187.65 83.4101 187.68 87.3801Z" fill="#DF9B39"/>
<path d="M273.2 107.47L196.94 111.29L196.92 107.95L273.18 103.88L273.2 107.47Z" fill="#B3AFAB"/>
<path d="M187.84 110.56C187.87 114.53 185.43 117.85 182.41 117.98C179.41 118.11 176.96 115.04 176.93 111.12C176.9 107.2 179.3 103.87 182.3 103.7C185.33 103.52 187.81 106.59 187.84 110.56Z" fill="#FCCF84"/>
<path d="M258.99 132.93L197.11 134.65L197.08 131.31L258.97 129.4L258.99 132.93Z" fill="#84817D"/>
<path d="M188 133.71C188.03 137.67 185.59 140.94 182.57 141C179.57 141.07 177.12 137.94 177.1 134.02C177.07 130.1 179.47 126.83 182.47 126.73C185.49 126.62 187.98 129.74 188 133.71Z" fill="#F7B548"/>
<path d="M246.73 157.72L197.27 157.98L197.24 154.65L246.71 154.23L246.73 157.72Z" fill="#B3AFAB"/>
<path d="M188.17 156.84C188.2 160.8 185.76 164.01 182.74 164C179.74 164 177.3 160.82 177.27 156.9C177.24 152.98 179.64 149.77 182.64 149.73C185.66 149.7 188.14 152.88 188.17 156.84Z" fill="#DF9B39"/>
<path d="M545.12 257.33L341.1 243.5C336.52 243.19 332.81 238.75 332.79 233.58L332.64 199.54C332.62 194.36 336.29 190.25 340.88 190.35L545.1 195.01C551.46 195.16 556.66 200.27 556.66 206.44V246.96C556.67 253.12 551.47 257.76 545.12 257.33Z" fill="#E86E58"/>
<path d="M377.8 191.2L340.89 190.36C336.3 190.26 332.63 194.37 332.65 199.55L332.8 233.59C332.82 238.76 336.53 243.2 341.11 243.51L377.99 246.01L377.8 191.2Z" fill="#F7B548"/>
<path d="M349.68 201.64C349.03 201.88 348.38 202.17 347.75 202.51C346.89 202.98 346.09 203.54 345.35 204.16L346.7 207.67C345.97 208.39 345.33 209.2 344.79 210.08L341.29 209.52C340.51 211.17 339.99 212.97 339.75 214.83L342.85 216.54C342.79 217.79 342.89 219.05 343.16 220.31C342.41 220.88 341.14 221.78 340.33 222.36C340.54 223.08 340.79 223.79 341.1 224.49C341.52 225.46 342.01 226.36 342.56 227.19L345.73 225.85C346.43 226.75 347.22 227.53 348.09 228.17L347.54 232.03C349.05 232.95 350.69 233.57 352.39 233.87L354.03 230.37C354.99 230.42 355.96 230.34 356.92 230.12L358.86 233.42C359.56 233.19 360.25 232.91 360.93 232.56C361.86 232.08 362.72 231.51 363.5 230.85L362.08 227.28C362.85 226.53 363.53 225.68 364.08 224.75L367.58 225.6C368.45 223.83 369.02 221.89 369.26 219.87C368.23 219.4 366.79 218.74 365.99 218.35C366.05 217.19 365.97 216.02 365.73 214.85L368.73 212.83C368.49 211.96 368.19 211.09 367.81 210.24C367.35 209.2 366.8 208.23 366.18 207.34L363.03 208.95C362.28 208 361.41 207.19 360.48 206.53L361.23 202.74C359.74 201.87 358.14 201.28 356.48 201L355.1 204.54C353.94 204.44 352.76 204.54 351.59 204.84L349.68 201.64ZM360.22 214.31C361.84 217.99 360.49 222.38 357.21 224.1C353.95 225.81 350.03 224.23 348.44 220.58C346.85 216.94 348.17 212.59 351.4 210.85C354.65 209.11 358.61 210.65 360.22 214.31Z" fill="white"/>
<path d="M417.85 220.61C417.87 229.92 410.83 237.05 402.23 236.55C393.74 236.05 386.92 228.29 386.89 219.2C386.86 210.11 393.64 202.96 402.13 203.23C410.73 203.52 417.82 211.3 417.85 220.61Z" fill="#CC5444"/>
<path d="M403.98 208.71L403.09 217.69L411.58 215.51L412.15 219.71L404.01 220.05L409.32 227.76L405.65 229.72L401.89 221.28L398.54 229.34L394.84 227.01L399.9 219.86L391.99 218.8L392.58 214.71L400.79 217.58L399.86 208.55L403.98 208.71Z" fill="#FDC9B5"/>
<path d="M437.08 231L433.95 230.83L433.92 217.67C433.92 216.1 433.95 214.85 434.02 213.94C433.82 214.16 433.57 214.39 433.27 214.65C432.97 214.91 431.98 215.72 430.3 217.09L428.74 214.95L434.42 210.46L437.03 210.56L437.08 231Z" fill="#FDC9B5"/>
<path d="M471.84 232.84L458.02 232.11V229.58L463.23 224.44C464.78 222.88 465.81 221.78 466.31 221.12C466.82 220.46 467.18 219.83 467.42 219.24C467.65 218.65 467.77 218.01 467.77 217.32C467.77 216.37 467.49 215.62 466.93 215.05C466.38 214.48 465.61 214.18 464.63 214.14C463.85 214.11 463.1 214.23 462.37 214.49C461.64 214.76 460.81 215.25 459.86 215.99L458.1 213.72C459.22 212.79 460.31 212.14 461.38 211.77C462.44 211.4 463.58 211.24 464.79 211.28C466.69 211.35 468.22 211.91 469.37 212.98C470.52 214.04 471.1 215.44 471.11 217.16C471.11 218.11 470.95 219 470.62 219.84C470.29 220.68 469.78 221.53 469.09 222.4C468.41 223.27 467.27 224.44 465.67 225.9L462.14 229.24V229.38L471.85 229.87L471.84 232.84Z" fill="#FDC9B5"/>
<path d="M503.25 217.94C503.25 219.3 502.85 220.42 502.06 221.29C501.26 222.16 500.15 222.72 498.71 222.97V223.09C500.43 223.38 501.73 223.98 502.6 224.87C503.47 225.77 503.9 226.93 503.9 228.35C503.9 230.42 503.17 231.98 501.7 233.02C500.24 234.06 498.16 234.51 495.48 234.37C493.12 234.24 491.13 233.76 489.52 232.9V229.86C490.42 230.35 491.37 230.74 492.38 231.04C493.39 231.33 494.36 231.51 495.29 231.55C496.95 231.63 498.19 231.39 499.01 230.82C499.83 230.25 500.24 229.31 500.24 228.02C500.24 226.88 499.78 226.01 498.87 225.43C497.96 224.85 496.53 224.52 494.6 224.43L492.75 224.35V221.56L494.63 221.64C498.04 221.79 499.75 220.68 499.75 218.31C499.75 217.39 499.45 216.67 498.85 216.15C498.25 215.63 497.37 215.34 496.21 215.3C495.4 215.27 494.62 215.35 493.87 215.55C493.12 215.75 492.24 216.16 491.22 216.78L489.55 214.33C491.49 212.97 493.76 212.33 496.34 212.42C498.5 212.5 500.19 213.03 501.41 214C502.64 215 503.25 216.31 503.25 217.94Z" fill="#FDC9B5"/>
<path d="M538.75 231.57L535.69 231.42V236.22L532.15 236.03V231.24L521.93 230.73V228.03L532.15 214L535.69 214.13L535.7 228.47L538.76 228.61L538.75 231.57ZM532.15 228.31V222.8C532.15 220.84 532.2 219.23 532.3 217.98H532.18C531.89 218.63 531.44 219.41 530.83 220.33L525.27 227.99L532.15 228.31Z" fill="#FDC9B5"/>
<path d="M439.61 176.58L288.09 175.02C285.11 174.99 282.69 172.1 282.67 168.58L282.12 64.9801C282.1 61.4401 284.5 58.3401 287.48 58.0601L439.31 43.8901C443.18 43.5301 446.33 46.5301 446.34 50.5901L446.59 169.33C446.61 173.37 443.47 176.62 439.61 176.58Z" fill="#33D5F9"/>
<path d="M446.39 69.8501L446.35 50.5801C446.34 46.5201 443.18 43.5201 439.32 43.8801L287.49 58.0501C284.5 58.3301 282.11 61.4301 282.13 64.9701L282.22 81.7801L446.39 69.8501Z" fill="#84817D"/>
<path d="M439.31 43.8902L359.34 51.3502L359.43 76.1702L446.38 69.8502L446.34 50.5802C446.34 46.5202 443.18 43.5202 439.31 43.8902Z" fill="#6D6A66"/>
<path d="M421.8 109.25L302.01 114.39L301.93 97.2901L421.75 90.3601L421.8 109.25Z" fill="#27BEE0"/>
<path d="M328.33 113.26L302.01 114.39L301.93 97.29L328.25 95.77L328.33 113.26Z" fill="white"/>
<path d="M421.87 135.63L302.13 138.26L302.05 121.18L421.82 116.76L421.87 135.63Z" fill="#27BEE0"/>
<path d="M328.44 137.68L302.13 138.26L302.05 121.18L328.36 120.21L328.44 137.68Z" fill="white"/>
<path d="M369.47 165.02L414.73 165.08C418.81 165.09 422.12 161.56 422.11 157.2L422.1 154.22C422.09 149.86 418.75 146.37 414.68 146.42L369.41 147.03C365.65 147.08 362.62 150.49 362.64 154.65L362.65 157.49C362.66 161.64 365.7 165.01 369.47 165.02Z" fill="#84817D"/>
<path d="M91.8498 132.88C91.8498 133 91.8298 133.11 91.8298 133.23C91.8598 136.16 93.5298 138.48 95.5798 138.43L120.69 137.76L120.64 131.94L91.8498 132.88Z" fill="#BDD8F9"/>
<path d="M113.86 153.84L113.91 159.4L144.1 159.27L144.06 153.54L113.86 153.84Z" fill="#BDD8F9"/>
</svg>
