<svg width="636" height="300" viewBox="0 0 636 300" fill="none" xmlns="http://www.w3.org/2000/svg">
<path d="M539.76 208.8C417.15 234.17 201.95 243.13 131.86 213.34C42.7698 175.47 172.13 142.55 256.84 158.88C329.11 172.81 374.64 171.93 429.6 167.32C548.4 157.35 631.39 189.83 539.76 208.8Z" fill="url(#paint0_linear)"/>
<path d="M293.83 207.36L279.37 207.84L199.16 210.54V212.54C199.14 213.01 199.43 213.52 199.97 213.55L268.23 217.69C268.33 217.7 268.43 217.68 268.53 217.66L293.15 210.5C293.63 210.36 293.83 209.94 293.81 209.53H293.82L293.83 207.36Z" fill="#625F5B"/>
<path d="M268.239 215.53L199.97 211.52C199.04 211.47 198.83 209.99 199.71 209.71L221.35 202.83C221.44 202.8 221.529 202.79 221.619 202.79L292.85 206.31C293.96 206.36 294.2 207.97 293.149 208.28L268.53 215.49C268.45 215.52 268.349 215.53 268.239 215.53Z" fill="#84817D"/>
<path d="M249.8 174.31L259.01 209.56L263.09 208.54L254.16 174.41L249.8 174.31Z" fill="#625F5B"/>
<path d="M259.079 209.56L229.479 207.97L220.879 173.66L250.049 174.31L259.079 209.56Z" fill="#797672"/>
<path d="M154.2 180.86L335.43 186.47C337.65 186.54 339.47 184.8 339.49 182.6L340.86 41.5C340.88 39.26 339.08 37.61 336.84 37.82L154.23 54.99C152.63 55.14 151.34 56.79 151.34 58.67L151.33 177.41C151.32 179.27 152.61 180.82 154.2 180.86Z" fill="#B3AFAB"/>
<path d="M151.93 180.79L332.27 186.37C334.48 186.44 336.29 184.71 336.31 182.51L337.65 41.7901C337.67 39.5601 335.88 37.9101 333.65 38.1201L151.94 55.2001C150.35 55.3501 149.06 56.9901 149.06 58.8701V177.34C149.07 179.2 150.35 180.75 151.93 180.79Z" fill="#625F5B"/>
<path d="M158.7 172.99L323.08 176.77C325.25 176.82 327.04 175.09 327.06 172.9L328.15 52.12C328.17 49.91 326.4 48.26 324.21 48.45L158.75 62.68C157.14 62.82 155.83 64.46 155.83 66.35L155.79 169.53C155.8 171.4 157.09 172.95 158.7 172.99Z" fill="url(#paint1_radial)"/>
<path d="M282.31 52.05L158.75 62.68C157.14 62.8201 155.83 64.46 155.83 66.35L155.81 131.14L282.31 52.05Z" fill="#4995EE"/>
<path d="M245.97 175L323.08 176.78C325.25 176.83 327.04 175.1 327.06 172.91L327.43 131.53L245.97 175Z" fill="#4995EE"/>
<path d="M188.06 89.9401L194.13 89.5901L194.11 97.2401L188.04 97.5401L188.06 89.9401Z" fill="#0B7891"/>
<path d="M274.77 85.6601L283.48 90.0801L292.17 85.0901L283.16 80.8801L274.77 85.6601Z" fill="#60DEFA"/>
<path d="M274.75 85.6802L283.43 90.0102L283.24 117.43L274.64 113.19L274.75 85.6802Z" fill="#0B7891"/>
<path d="M292.17 85.0701L283.43 90.0001L283.24 117.44L292.04 112.52L292.17 85.0701Z" fill="#1DACCC"/>
<path d="M277.45 75.5L283.51 77.72L283.44 88.37L277.43 85.45L277.45 75.5Z" fill="#138FAB"/>
<path d="M289.199 75.3L283.509 78.57L283.439 88.36L289.169 85.09L289.199 75.3Z" fill="#27BEE0"/>
<path d="M266.95 144.98L241.77 133.27L247.31 130.11L247.32 127.77L239.9 126.08L283.35 100.97L283.37 98.6899L229.21 123.85L229.2 126.29L236.19 129.91L230.89 130.95L230.88 133.44L263.89 151.22L263.91 147.82L266.95 144.98Z" fill="#3E8EED"/>
<path d="M269.58 145.77L241.86 130.92L247.46 127.71L240.09 123.75L283.38 98.69L283.4 92.25L229.07 123.89L236.53 127.74L230.87 131.11L253.59 143.41L263.81 149.12L269.58 145.77Z" fill="#FDD696"/>
<path d="M189.78 90.54L202.74 82.3L223.28 93.13L232.55 87.61L243.52 93.09L238 96.59L232.26 93.69L223.42 99.23L202.47 88.25L194.46 93.42L189.78 90.54Z" fill="#3E8EED"/>
<path d="M189.78 88.3601L202.74 80.0901L223.28 90.8801L232.55 85.3401L243.52 90.7901L238.01 94.3101L232.27 91.4201L223.43 96.9801L202.48 86.0401L194.47 91.2301L189.78 88.3601Z" fill="#CAE0FA"/>
<path d="M175.189 90.2L182.419 94.2L182.379 119.06L175.219 114.81L175.189 90.2Z" fill="#0B7891"/>
<path d="M189.65 89.74L182.42 94.2L182.38 119.37L189.66 115.02L189.65 89.74Z" fill="#1DACCC"/>
<path d="M205.17 91.1301L205.11 112.44L177.93 129.22L177.96 108.32L205.17 91.1301Z" fill="#1DACCC"/>
<path d="M168.7 108.45L168.68 133.08L195.61 148.42L195.67 123.02L168.7 108.45Z" fill="#0B7891"/>
<path d="M201.17 119.98L195.67 123.08L195.61 148.44L200.95 145.05L201.17 119.98Z" fill="#1DACCC"/>
<path d="M218.66 112.17L218.65 137.96L243.68 152.19L243.81 125.52L218.66 112.17Z" fill="#0B7891"/>
<path d="M238.66 100.06L238.63 107.4L229.35 111.7L249.39 122.28L243.54 125.56L218.65 112.17L238.66 100.06Z" fill="#FDD696"/>
<path d="M236.5 88.32L247.47 94.09L258.23 87.71L246.92 82.2L236.5 88.32Z" fill="#60DEFA"/>
<path d="M236.529 88.3301L247.489 94.0701L247.309 129.66L236.459 123.49L236.529 88.3301Z" fill="#0B7891"/>
<path d="M258.19 87.73L247.49 94.07L247.29 133.57L258.05 127.68L258.19 87.73Z" fill="#1DACCC"/>
<path d="M240.12 74.6401L247.57 78.4401L247.5 92.4001L240.11 88.4401L240.12 74.6401Z" fill="#138FAB"/>
<path d="M254.68 75.23L247.57 79.45L247.51 92.36L254.68 88.26V75.23Z" fill="#27BEE0"/>
<path d="M215.99 130.63L218.68 129L218.69 126.17L221.39 124.52L221.4 121.57L224.12 120.05L224.13 117.04L226.86 115.55L226.87 112.6L229.85 110.88L229.76 107.67L232.76 105.96L238.08 109L233 124.77L221.31 154.07L215.91 150.97L215.99 130.63Z" fill="#1C77E2"/>
<path d="M224.11 120.1V120.13L221.39 121.65V121.74L230.86 126.57L232.5 124.83L232.6 124.57L224.11 120.1ZM218.67 128.8V129L216.13 130.53L223.54 134.87L225.56 132.76L218.67 128.8ZM238.27 108.71L232.79 105.83L229.73 107.66L237.24 111.69L238.27 108.71ZM229.86 110.86L226.87 112.58L235.16 117.11L236.21 114.37L229.86 110.86ZM221.1 124.66L218.82 126.05L227.16 130.9L229.1 128.88C226.69 127.62 223.59 125.98 221.1 124.66ZM226.85 115.55L224.12 117.04V117.12L233.72 122.12L234.52 119.8L226.85 115.55Z" fill="#98C2F5"/>
<path d="M221.35 133.58L224.06 131.95L224.07 129.11L226.8 127.46L226.81 124.49L229.55 122.97L229.56 119.94L232.06 118.4L232.07 115.43L235.1 113.69L235.11 110.54L238.25 108.68L238.11 140.49L221.27 149.95L221.35 133.58Z" fill="#3E8EED"/>
<path d="M227.53 138.93L233.1 141.93L233.02 168.17L227.51 165.01L227.53 138.93Z" fill="#0B7891"/>
<path d="M248.38 128.56L238.16 133.7L238.21 122.05L248.4 125.61L248.38 128.56Z" fill="#0B7891"/>
<path d="M238.24 116.38L238.21 122.47L247.59 127.48L227.53 138.93L233.18 141.98L258.8 127.21L238.24 116.38Z" fill="#FDD696"/>
<path d="M171.13 131.45L176.06 134.39L176.07 126.03C176.07 123.64 175.51 122.09 174.07 121.4C172.64 120.71 171.14 121.94 171.13 124.04V131.45Z" fill="#1DACCC"/>
<path d="M176.07 125.88V129.41L174.83 128.68L174.84 121.92C175.71 122.7 176.07 124.02 176.07 125.88Z" fill="#27BEE0"/>
<path d="M174.82 128.99L176.06 129.73L176.05 134.37L171.12 131.43L174.82 128.99Z" fill="#27BEE0"/>
<path d="M202.75 92.88L187.43 84.7V88.47L189.65 89.74V91.51L192.86 93.21L168.7 108.43L195.31 122.87L201.18 119.97L178.66 108.02L202.75 92.88Z" fill="#FDD696"/>
<path d="M233.03 154.33L184.48 127.34L190.12 123.86L190.19 121.75L197.77 119.09L232.4 98.07L232.41 95.99L173.07 126.1V128.47L233 162.3L233.03 154.33Z" fill="#3E8EED"/>
<path d="M233.07 153.96L183.09 126.06L232.43 96L226.83 93.27L173.07 126.08L233.02 160L233.07 153.96Z" fill="#CAE0FA"/>
<path d="M218.87 112.54L216.19 111.06L216.2 108.23L213.53 106.75L213.54 103.81L210.88 102.49L210.89 99.51L208.25 98.25L208.26 95.25L205.63 93.91L205.64 90.91L202.74 89.53L197.77 92.64L209.44 115.97L213.3 148.8L218.76 145.73L218.87 112.54Z" fill="#3E8EED"/>
<path d="M210.91 102.49L213.55 103.8L207.97 107.5L205.7 105.94L210.91 102.49Z" fill="#98C2F5"/>
<path d="M216.2 111.05L218.91 112.59L211.38 117.26L209.64 115.29L216.2 111.05Z" fill="#98C2F5"/>
<path d="M197.689 92.6402L202.759 89.4302L205.649 90.9102L200.229 94.1402L197.689 92.6402Z" fill="#98C2F5"/>
<path d="M205.63 93.9001L208.28 95.2501L203.04 98.8701L200.18 97.3301L205.63 93.9001Z" fill="#98C2F5"/>
<path d="M213.54 106.75L216.19 108.22L208.86 113.02L207.25 110.85C208.85 109.82 211.53 108.07 213.54 106.75Z" fill="#98C2F5"/>
<path d="M208.26 98.25L210.89 99.5L205.63 103.04L203.09 101.71L208.26 98.25Z" fill="#98C2F5"/>
<path d="M213.7 115.89L211.05 114.4L211.06 111.59L208.42 110.11L208.43 107.19L205.8 105.87L205.81 102.9L203.19 101.64L203.2 98.7501L200.27 97.2401L200.28 94.0901L197.69 92.6301L197.64 111.11L213.7 119.8V115.89Z" fill="#1C77E2"/>
<path d="M213.69 118.49L213.59 149.54L208.3 146.63L208.39 115.62L213.69 118.49Z" fill="#1C77E2"/>
<path d="M215.75 102.02L215.08 101.65L215.15 81.53L215.82 81.89L215.75 102.02Z" fill="#0B7891"/>
<path d="M215.75 102.02L216.42 101.53L216.49 80.97L215.82 81.48L215.75 102.02Z" fill="#1DACCC"/>
<path d="M221.43 112.45L220.76 112.05L220.86 84.24L221.54 84.62L221.43 112.45Z" fill="#0B7891"/>
<path d="M221.43 112.45L222.11 111.96L222.21 84.1101L221.53 84.3901L221.43 112.45Z" fill="#1DACCC"/>
<path d="M229.669 96.6501L228.979 96.2801L229.059 76.3101L229.749 76.6701L229.669 96.6501Z" fill="#0B7891"/>
<path d="M229.67 96.6601L230.36 96.3101L230.44 77.1501L229.75 77.6701L229.67 96.6601Z" fill="#1DACCC"/>
<path d="M224.22 91.5801L223.54 91.2101L223.61 71.3301L224.29 71.6901L224.22 91.5801Z" fill="#0B7891"/>
<path d="M224.22 91.58L224.9 91.14L224.98 70.76L224.3 71.28L224.22 91.58Z" fill="#1DACCC"/>
<path d="M214.13 78.84L223.01 73.46L232.16 77.61L230.93 81.16L222.82 85.27L214.52 81.78L214.13 78.84Z" fill="#60DEFA"/>
<path d="M220.86 82.1801L220.85 83.6501L219.16 82.8501V81.4601L217.14 80.4801L217.13 81.9701L215.79 81.1801L215.8 79.6701L214.13 78.8601L214.12 82.1501L222.86 86.4301L222.87 83.1701L220.86 82.1801Z" fill="#1DACCC"/>
<path d="M224.6 81.9701L224.59 83.4201L226.3 82.4001L226.31 81.0001L228.37 79.7501L228.36 81.2701L230.08 80.2501L230.09 78.7701L232.16 77.6201L232.15 80.9101L222.88 86.4301L222.89 83.1401L224.6 81.9701Z" fill="#27BEE0"/>
<path d="M216.37 78.6601L222.82 81.3301L229.76 77.5201L223.03 66.0601L216.37 78.6601Z" fill="#FDD696"/>
<path d="M216.36 78.65L222.88 81.33L223.05 66.02L216.36 78.65Z" fill="#F7B548"/>
<path d="M283.23 117.43L297.77 124.67L263.49 143.11L263.9 151.22L311.84 125.33L311.89 122.82L283.29 110.89L283.23 117.43Z" fill="#3E8EED"/>
<path d="M283.25 115.01L297.89 122.17L262.2 141.8L258.72 139.94L258.67 146.26L263.8 149.12L311.91 122.85L283.31 108.53L283.25 115.01Z" fill="#CAE0FA"/>
<path d="M284.409 133.79L281.639 131.94L281.659 128.95L278.659 127.33L278.679 124.22L275.699 122.77L275.719 119.61L272.749 118.22L272.769 115.14L269.449 113.49L269.459 110.27L266.239 108.68L260.479 112.03L266.119 128.18L278.549 141.08L284.369 137.88L284.409 133.79Z" fill="#3E8EED"/>
<path d="M275.7 122.78L278.69 124.21L272.51 127.66L269.52 126.23L275.7 122.78Z" fill="#A3C9F6"/>
<path d="M281.64 131.95L284.4 133.76L278.4 136.97L274.74 135.72L281.64 131.95Z" fill="#A3C9F6"/>
<path d="M260.35 111.96L266.24 108.55L269.47 110.29L261.88 114.62L260.35 111.96Z" fill="#A3C9F6"/>
<path d="M269.46 113.5L272.78 115.15L265.92 119.05L262.49 117.47L269.46 113.5Z" fill="#A3C9F6"/>
<path d="M278.67 127.32L281.67 128.95L275.56 132.32L272.53 130.71C274.91 129.41 277.72 127.87 278.67 127.32Z" fill="#A3C9F6"/>
<path d="M272.76 118.23L275.74 119.61L268.39 123.72L265.63 122.25L272.76 118.23Z" fill="#A3C9F6"/>
<path d="M278.6 136.87L275.62 135.24L275.64 132.26L272.68 130.64L272.7 127.55L269.75 126.1L269.77 122.96L266.83 121.57L266.85 118.51L263.56 116.86L263.58 113.63L260.35 111.99L260.2 131.39L278.57 141.12L278.6 136.87Z" fill="#1C77E2"/>
<path d="M184.86 117.25L195.68 123.13L194.24 123.93L182.52 117.48L184.86 117.25Z" fill="#0B7891"/>
<path d="M197.51 159.83L197.52 156.83L200.11 155.44L200.12 152.5L202.72 151.14L202.73 148.26L205.68 146.61L205.69 143.45L207.93 144.32L212.48 146.75L209.4 158.1L202.42 162.86L197.51 159.83Z" fill="#0B7891"/>
<path d="M200.09 155.43L197.5 156.84L203.95 160.95L206.09 159.29L205.92 158.73L200.09 155.43Z" fill="#60DEFA"/>
<path d="M213.66 144.84L208.44 141.86L205.67 143.44L211.96 147.01L213.66 144.84Z" fill="#60DEFA"/>
<path d="M205.66 146.6L202.729 148.25L208.21 151.4L211.479 149.93L205.66 146.6Z" fill="#60DEFA"/>
<path d="M202.72 151.14L200.11 152.5L206.24 156.04L208.43 154.41L202.72 151.14Z" fill="#60DEFA"/>
<path d="M202.36 162.83L202.37 159.94L205.31 158.37L205.32 155.51L207.95 154.15L207.96 151.26L210.94 149.61L210.95 146.45L213.61 144.93L213.57 156.52L202.36 162.83Z" fill="#1DACCC"/>
<path d="M181.43 115.32L195.69 123.12L201.18 119.97L186.45 112.15L181.43 115.32Z" fill="#FDD696"/>
<path d="M175.189 90.2001L182.429 94.2001L189.659 89.7401L182.489 85.6301L175.189 90.2001Z" fill="#60DEFA"/>
<path d="M177.65 80.1501L182.7 82.9001L182.68 92.5801L177.68 89.8301L177.65 80.1501Z" fill="#138FAB"/>
<path d="M187.4 80.72L182.69 83.67L182.67 92.59L187.41 89.63L187.4 80.72Z" fill="#27BEE0"/>
<path d="M258.78 127.21L258.63 154.06L233 168.15L232.92 141.93L258.78 127.21Z" fill="#1DACCC"/>
<path d="M255.62 145.21L249.88 148.48L249.93 139.54C249.94 136.98 250.61 135.3 252.26 134.49C253.92 133.68 255.67 134.94 255.66 137.21L255.62 145.21Z" fill="#0B7891"/>
<path d="M249.93 139.21L249.9 143.48L251.36 142.64L251.4 135.06C250.45 135.92 249.94 137.22 249.93 139.21Z" fill="#27BEE0"/>
<path d="M251.34 142.64L249.9 143.47V148.48L255.64 145.19L251.34 142.64Z" fill="#27BEE0"/>
<path d="M238.03 75.3201L247.32 69.8401L256.89 74.0001L255.6 77.6001L247.11 81.8001L238.44 78.3001L238.03 75.3201Z" fill="#60DEFA"/>
<path d="M245.07 78.6801L245.06 80.1601L243.3 79.3601L243.31 77.9501L241.2 76.9701L241.19 78.4801L239.79 77.6901L239.8 76.1601L238.06 75.3501L238.05 78.6801L247.18 82.9801L247.2 79.6801L245.07 78.6801Z" fill="#1DACCC"/>
<path d="M248.97 78.46L248.96 79.92L250.75 78.89L250.76 77.46L252.92 76.19L252.91 77.73L254.71 76.69L254.72 75.19L256.89 74.02L256.87 77.35L247.17 82.98L247.19 79.64L248.97 78.46Z" fill="#27BEE0"/>
<path d="M240.37 75.1301L247.11 77.8101L254.38 73.9201L247.35 62.3601L240.37 75.1301Z" fill="#FDD696"/>
<path d="M240.37 75.1301L247.19 77.8201L247.39 62.3101L240.37 75.1301Z" fill="#F7B548"/>
<path d="M176.08 80.7502L182.37 76.9302L188.83 79.8802L187.97 82.3902L182.25 85.3202L176.37 82.8502L176.08 80.7502Z" fill="#60DEFA"/>
<path d="M180.86 83.1203V84.1603L179.67 83.5902V82.6003L178.24 81.9103V82.9703L177.29 82.4103V81.3303L176.1 80.7603V83.1003L182.3 86.1302V83.8102L180.86 83.1203Z" fill="#1DACCC"/>
<path d="M183.5 82.9701V83.9901L184.7 83.2701L184.71 82.2801L186.16 81.3901L186.15 82.4701L187.37 81.7401V80.6901L188.83 79.8801L188.82 82.2101L182.29 86.1401L182.3 83.8001L183.5 82.9701Z" fill="#27BEE0"/>
<path d="M177.669 80.6202L182.239 82.5102L187.139 79.8002L182.369 71.6702L177.669 80.6202Z" fill="#FDD696"/>
<path d="M177.66 80.6101L182.28 82.5101L182.38 71.6401L177.66 80.6101Z" fill="#F7B548"/>
<path d="M276.06 75.65L283.4 71.54L290.92 74.65L289.9 77.34L283.22 80.49L276.38 77.88L276.06 75.65Z" fill="#60DEFA"/>
<path d="M281.61 78.1602L281.6 79.2701L280.21 78.6702L280.22 77.6102L278.56 76.8801L278.55 78.0102L277.45 77.4202L277.46 76.2701L276.08 75.6602L276.06 78.1502L283.27 81.3602L283.29 78.8902L281.61 78.1602Z" fill="#1DACCC"/>
<path d="M284.69 77.9802L284.68 79.0802L286.09 78.3002L286.1 77.2402L287.8 76.2902L287.79 77.4302L289.21 76.6502V75.5402L290.92 74.6602L290.9 77.1502L283.27 81.3702L283.28 78.8702L284.69 77.9802Z" fill="#27BEE0"/>
<path d="M277.91 75.5002L283.23 77.5002L288.95 74.5902L283.43 65.9402L277.91 75.5002Z" fill="#FDD696"/>
<path d="M277.899 75.5002L283.279 77.5102L283.459 65.9102L277.899 75.5002Z" fill="#F7B548"/>
<path d="M483.099 242.46L322.189 231.29C319.419 231.1 317.199 228.69 317.219 225.92L318.039 130.65C318.059 127.85 320.339 125.53 323.129 125.47L485.159 122.13C488.789 122.06 491.699 124.61 491.649 127.83L489.749 237.15C489.679 240.33 486.699 242.71 483.099 242.46Z" fill="#B3AFAB"/>
<path d="M480.609 242.29L320.259 231.16C317.499 230.97 315.279 228.57 315.309 225.79L316.119 130.68C316.139 127.88 318.409 125.56 321.189 125.51L482.649 122.19C486.269 122.12 489.169 124.66 489.109 127.88L487.229 237C487.169 240.16 484.199 242.54 480.609 242.29Z" fill="#625F5B"/>
<path d="M476.14 230.61L323.98 221.35C323.21 221.3 322.6 220.64 322.6 219.88L323.37 133.12C323.38 132.35 324.01 131.71 324.78 131.7L477.83 129.36C478.82 129.34 479.6 130.04 479.59 130.92L477.94 229.15C477.93 230.02 477.12 230.67 476.14 230.61Z" fill="white"/>
<path d="M273.78 244.62C273.79 243.38 273.79 242.57 273.8 242.16C273.8 241.82 316.36 232.99 316.36 232.99L485.18 241.75L485.15 243.5C485.15 243.5 485.08 245.04 483.23 245.51C481.38 245.97 432.42 258.11 432.42 258.11C429.93 258.73 427.32 258.93 424.71 258.7L274.91 245.92C273.98 245.85 273.76 245.4 273.78 244.62Z" fill="#9C9894"/>
<path d="M274.62 243.14L424.75 255.58C427.36 255.8 429.97 255.59 432.46 254.97L485.27 241.74L316.38 230.13L274.36 241.43C273.47 241.66 273.67 243.06 274.62 243.14Z" fill="#CCCAC7"/>
<path d="M363.22 154.38L347.55 154.32C346.66 154.32 345.94 153.6 345.95 152.72C345.96 151.84 346.69 151.13 347.58 151.13L363.25 151.15C364.17 151.15 364.91 151.88 364.9 152.77C364.89 153.66 364.14 154.38 363.22 154.38Z" fill="#BBB8B4"/>
<path d="M444.44 162.87L425.99 162.68C424.98 162.67 424.17 161.9 424.18 160.97C424.19 160.03 425.02 159.28 426.04 159.29L444.5 159.43C445.54 159.44 446.38 160.22 446.37 161.17C446.34 162.12 445.48 162.88 444.44 162.87Z" fill="#BBB8B4"/>
<path d="M416.83 162.59L382.91 162.25C381.96 162.24 381.21 161.5 381.22 160.59C381.23 159.69 382.01 158.96 382.95 158.96L416.88 159.21C417.88 159.22 418.68 159.98 418.67 160.91C418.65 161.85 417.83 162.6 416.83 162.59Z" fill="#908D89"/>
<path d="M373.89 162.16L357.26 161.99C356.35 161.98 355.63 161.26 355.63 160.37C355.64 159.48 356.38 158.77 357.29 158.78L373.92 158.9C374.85 158.91 375.6 159.64 375.59 160.54C375.59 161.44 374.82 162.16 373.89 162.16Z" fill="#F7B548"/>
<path d="M457.63 171.27L398.07 170.29C397.1 170.27 396.33 169.52 396.34 168.6C396.35 167.68 397.15 166.95 398.11 166.97L457.68 167.79C458.75 167.8 459.6 168.6 459.58 169.56C459.57 170.52 458.69 171.28 457.63 171.27Z" fill="#BBB8B4"/>
<path d="M388.34 170.13L367.12 169.78C366.2 169.76 365.46 169.03 365.47 168.14C365.48 167.25 366.23 166.53 367.16 166.55L388.39 166.84C389.35 166.85 390.11 167.6 390.1 168.51C390.08 169.42 389.3 170.14 388.34 170.13Z" fill="#BBB8B4"/>
<path d="M444.19 179.21L416.36 178.58C415.36 178.56 414.57 177.79 414.58 176.86C414.59 175.93 415.41 175.2 416.41 175.22L444.25 175.78C445.29 175.8 446.13 176.59 446.11 177.54C446.1 178.49 445.24 179.24 444.19 179.21Z" fill="#F7B548"/>
<path d="M406.599 178.36L367.029 177.46C366.109 177.44 365.369 176.7 365.379 175.81C365.389 174.92 366.139 174.21 367.069 174.23L406.649 175.03C407.629 175.05 408.419 175.81 408.409 176.74C408.389 177.65 407.579 178.38 406.599 178.36Z" fill="#BBB8B4"/>
<path d="M402.29 186.2C401.32 186.17 400.54 185.41 400.55 184.49C400.56 183.57 401.36 182.85 402.33 182.88L467.17 184.55C468.25 184.58 469.11 185.38 469.1 186.35C469.09 187.32 468.2 188.08 467.12 188.04L402.29 186.2Z" fill="#908D89"/>
<path d="M394.21 185.93L377.05 185.43C376.11 185.4 375.36 184.65 375.37 183.75C375.38 182.85 376.15 182.14 377.08 182.17L394.25 182.62C395.21 182.65 395.99 183.41 395.98 184.32C395.96 185.24 395.17 185.95 394.21 185.93Z" fill="#BBB8B4"/>
<path d="M459.93 196.09L399.24 193.95C398.27 193.92 397.49 193.15 397.51 192.23C397.52 191.32 398.32 190.6 399.29 190.63L459.99 192.61C461.06 192.64 461.91 193.45 461.9 194.41C461.88 195.38 461 196.13 459.93 196.09Z" fill="#BBB8B4"/>
<path d="M389.26 193.6L376.95 193.17C376.01 193.14 375.26 192.38 375.28 191.48C375.29 190.58 376.06 189.88 376.99 189.91L389.3 190.31C390.26 190.34 391.02 191.1 391.01 192.01C391 192.92 390.22 193.63 389.26 193.6Z" fill="#F7B548"/>
<path d="M427.209 202.98L380.059 201.02C379.119 200.98 378.369 200.22 378.379 199.32C378.389 198.42 379.159 197.72 380.099 197.76L427.259 199.6C428.279 199.64 429.089 200.43 429.079 201.37C429.059 202.3 428.229 203.03 427.209 202.98Z" fill="#BBB8B4"/>
<path d="M370.86 200.64L356.85 200.06C355.94 200.02 355.22 199.28 355.23 198.39C355.24 197.51 355.98 196.82 356.89 196.86L370.9 197.41C371.83 197.45 372.57 198.2 372.56 199.1C372.55 199.98 371.79 200.68 370.86 200.64Z" fill="#F7B548"/>
<path d="M445.28 211.89L397.32 209.59C396.35 209.54 395.58 208.77 395.59 207.86C395.6 206.95 396.39 206.25 397.36 206.29L445.33 208.46C446.37 208.51 447.21 209.31 447.2 210.26C447.19 211.21 446.33 211.94 445.28 211.89Z" fill="#BBB8B4"/>
<path d="M388.83 209.19L366.69 208.13C365.77 208.09 365.03 207.33 365.04 206.44C365.05 205.55 365.8 204.86 366.72 204.91L388.86 205.91C389.82 205.95 390.58 206.72 390.57 207.63C390.57 208.53 389.79 209.23 388.83 209.19Z" fill="#F7B548"/>
<path d="M414.56 218.38L384.17 216.73C383.22 216.68 382.47 215.91 382.48 215.01C382.49 214.11 383.27 213.42 384.21 213.47L414.6 215.04C415.59 215.09 416.39 215.88 416.38 216.81C416.37 217.72 415.56 218.43 414.56 218.38Z" fill="#908D89"/>
<path d="M375.15 216.24L346.94 214.71C346.05 214.66 345.34 213.91 345.35 213.04C345.36 212.17 346.09 211.49 346.98 211.54L375.2 212.99C376.13 213.04 376.88 213.8 376.87 214.7C376.85 215.61 376.09 216.29 375.15 216.24Z" fill="#BBB8B4"/>
<path d="M341.15 131.44L324.49 131.69C323.88 131.7 323.38 132.21 323.37 132.82L322.6 220.15C322.59 220.76 323.08 221.29 323.69 221.32L340.26 222.33L341.15 131.44Z" fill="#D5D3D0"/>
<path d="M333.819 154.26L330.009 154.25L330.039 151.11H333.849L333.819 154.26Z" fill="#EEEDEC"/>
<path d="M333.749 161.75L329.939 161.71L329.969 158.57L333.779 158.6L333.749 161.75Z" fill="#EEEDEC"/>
<path d="M333.68 169.23L329.87 169.16L329.9 166.02L333.71 166.08L333.68 169.23Z" fill="#EEEDEC"/>
<path d="M333.609 176.7L329.799 176.61L329.829 173.48L333.639 173.55L333.609 176.7Z" fill="#EEEDEC"/>
<path d="M333.539 184.16L329.729 184.05L329.759 180.92L333.569 181.02L333.539 184.16Z" fill="#EEEDEC"/>
<path d="M333.469 191.62L329.669 191.49L329.689 188.36L333.499 188.48L333.469 191.62Z" fill="#EEEDEC"/>
<path d="M333.4 199.08L329.6 198.92L329.63 195.79L333.43 195.94L333.4 199.08Z" fill="#EEEDEC"/>
<path d="M333.329 206.53L329.529 206.35L329.559 203.22L333.359 203.39L333.329 206.53Z" fill="#EEEDEC"/>
<path d="M333.259 213.97L329.459 213.77L329.489 210.64L333.289 210.84L333.259 213.97Z" fill="#EEEDEC"/>
<path d="M479.46 138.39L479.59 130.59C479.6 129.89 478.97 129.34 478.19 129.35L324.49 131.7C323.88 131.71 323.38 132.22 323.37 132.83L323.31 139.71L479.46 138.39Z" fill="#F7B548"/>
<defs>
<linearGradient id="paint0_linear" x1="340.217" y1="217.425" x2="340.389" y2="140.911" gradientUnits="userSpaceOnUse">
<stop stop-color="#B8D6F7"/>
<stop offset="1" stop-color="#E1EFF9"/>
</linearGradient>
<radialGradient id="paint1_radial" cx="0" cy="0" r="1" gradientUnits="userSpaceOnUse" gradientTransform="translate(211.349 140.141) scale(72.8804 76.163)">
<stop offset="0.3833" stop-color="#77E3FB"/>
<stop offset="0.7842" stop-color="#2ECCEF"/>
</radialGradient>
</defs>
</svg>
