<svg width="636" height="300" viewBox="0 0 636 300" fill="none" xmlns="http://www.w3.org/2000/svg">
<path d="M262.92 219.86C259.4 220.97 260.87 224.11 264.65 224.1C281.74 224.01 298.92 224.93 307.37 225.66C318.06 226.58 326.1 225.04 328.66 223.04C330.7 221.45 330.05 218.56 324.97 217.98C313.7 216.68 266.13 218.85 262.92 219.86Z" fill="#797673"/>
<path d="M289.34 217.07C259.4 218.18 254.53 221.81 271.53 221.91C288.77 222.01 299.28 222.56 307.74 223.29C327.01 224.93 335.17 218.89 323.75 217.79C312.42 216.7 295.99 216.83 289.34 217.07Z" fill="#B3AFAB"/>
<path d="M311.29 219.44L306.53 220.58L275.65 194.83L303.3 195.22L311.29 219.44Z" fill="#605D5A"/>
<path d="M306.67 220.59L277.02 220.22L268.7 194.81L298.16 194.88L306.67 220.59Z" fill="#797673"/>
<path d="M238.19 231.25C233.55 233.38 234.14 238.11 238.56 239.16C241.22 239.79 246.74 240.29 251.26 240.57C280.64 242.39 298.63 245.43 313.15 248.43C331.62 252.25 343.96 248.66 348.63 243.19C352.36 238.82 349.98 233.97 341.14 231.75C321.64 226.86 243.71 228.71 238.19 231.25Z" fill="#797673"/>
<path d="M280.72 225.87C265.48 225.89 254.05 226.53 246.33 228.02C242.17 228.82 229.36 234.18 238.56 236.4C241.22 237.04 245.35 237.41 249.92 237.74C279.29 239.87 297.29 242.57 311.82 245.55C345.19 252.4 360.11 235.89 340.19 231.52C320.57 227.21 292.16 225.86 280.72 225.87Z" fill="#B3AFAB"/>
<path d="M243.3 234.05C293.67 234.71 319.18 240.43 324.99 241.76C325.71 241.93 326.44 241.73 326.97 241.23C328.59 239.71 332.41 236.25 336.91 233.01C337.42 232.65 337.23 231.84 336.61 231.72C287.42 221.89 253.63 226.98 253.63 226.98C250.61 227.78 245.72 230.44 242.86 232.75C242.34 233.17 242.63 234.04 243.3 234.05Z" fill="#797673"/>
<path d="M201.69 87.08L378.2 72.23L377.68 201.23L199.63 199.11L201.69 87.08Z" fill="#D8E8FB"/>
<path d="M378.12 91.06L378.2 72.23L201.69 87.08L201.42 101.68L378.12 91.06Z" fill="#81B5F3"/>
<path d="M382.82 68.2101L379.8 68.0901C380.85 68.3401 381.64 69.2201 381.62 70.3601L379.18 201.41C379.16 202.73 378.06 203.78 376.71 203.77L380.44 203.5C381.79 203.51 382.89 202.46 382.92 201.13L385.37 70.5801C385.38 69.2001 384.23 68.1201 382.82 68.2101Z" fill="#B3AFAB"/>
<path d="M379.08 67.9901L201.24 83.1902C200.08 83.2602 199.16 84.2802 199.14 85.5002L197.18 200.48C197.16 201.74 198.13 202.79 199.33 202.8L376.7 203.78C378.05 203.79 379.14 202.74 379.17 201.42L381.61 70.3702C381.64 68.9702 380.49 67.9001 379.08 67.9901ZM368.83 193.81C368.81 194.97 367.85 195.89 366.67 195.89L206.98 195.49C205.91 195.49 205.05 194.57 205.07 193.45L206.81 91.9602C206.83 90.8902 207.65 89.9902 208.67 89.9302L368.73 76.9002C369.96 76.8202 370.96 77.7702 370.94 78.9802L368.83 193.81Z" fill="#605D5A"/>
<path d="M405.43 144.66L548.48 141C551.22 141.04 553.49 139.17 553.53 136.83L555.2 46.27C555.24 43.88 553.01 42.12 550.23 42.35L405.59 54.33C403.52 54.5 401.84 56.3 401.84 58.35L401.73 140.96C401.72 142.98 403.37 144.63 405.43 144.66Z" fill="#B3AFAB"/>
<path d="M403.73 144.64L546.23 141.26C548.96 141.3 551.22 139.43 551.26 137.1L552.9 46.4601C552.94 44.0701 550.72 42.3201 547.95 42.5501L403.88 54.4701C401.81 54.6401 400.14 56.4401 400.14 58.4901L400.04 140.95C400.04 142.96 401.69 144.61 403.73 144.64Z" fill="#625F5B"/>
<path d="M407.37 136.13L541.63 132.29C542.37 132.29 542.99 131.78 543 131.14L544.39 50.17C544.4 49.52 543.8 49.04 543.05 49.1L407.52 59.53C406.95 59.57 406.48 60.07 406.48 60.64L406.34 135.11C406.34 135.67 406.8 136.13 407.37 136.13Z" fill="#2CC7EA"/>
<path d="M364.32 158.22C364.32 157.17 364.32 156.49 364.31 156.13C364.31 155.85 401.02 146.39 401.02 146.39L549.48 141.02L549.45 142.53C549.45 142.53 549.39 143.86 547.74 144.35C546.09 144.84 502.06 156.58 502.06 156.58C499.87 157.22 497.56 157.51 495.26 157.44L365.29 159.27C364.49 159.25 364.3 158.88 364.32 158.22Z" fill="#9C9894"/>
<path d="M365.02 156.92L495.29 154.76C497.6 154.83 499.9 154.53 502.1 153.88L549.57 141L401.03 143.95L364.79 155.48C364.02 155.73 364.21 156.9 365.02 156.92Z" fill="#CCCAC7"/>
<path d="M159.22 199.2L158.71 102.09C158.64 98.82 156.22 96.3301 153.31 96.5301L98.49 100.36C95.9 100.54 93.87 103.17 93.95 106.24L94.91 196.94C94.99 199.96 97.14 202.48 99.72 202.58L154.1 204.83C156.99 204.94 159.29 202.42 159.22 199.2Z" fill="#444444"/>
<path d="M154.67 197.36L154.21 104.03C154.18 102.72 153.21 101.72 152.05 101.8L99.7401 105.2C98.6901 105.27 97.8701 106.32 97.9101 107.56L98.7701 195.46C98.8001 196.68 99.6701 197.69 100.71 197.73L152.63 199.64C153.78 199.66 154.69 198.64 154.67 197.36Z" fill="#4995EE"/>
<path d="M155.22 149.27L157.53 149.23L157.59 151.81L155.28 151.84L155.22 149.27Z" fill="#84817D"/>
<path d="M154.32 109.4L154.2 104.03C154.17 102.72 153.2 101.72 152.04 101.8L99.7298 105.2C98.6798 105.27 97.8598 106.32 97.8998 107.56L98.0398 112.64L154.32 109.4Z" fill="#A3C9F6"/>
<path d="M132.07 159.42L132.79 222.44C132.79 225.97 132.73 226.64 136.57 226.86L221.45 230.86C225.96 231.12 227.47 229.6 227.4 224.81L226.49 158.95C226.49 154.58 224.96 153.15 220.43 153.22L137.17 154.43C133.31 154.49 132.07 155.98 132.07 159.42Z" fill="#505050"/>
<path d="M137.84 159.44L138.65 221.34C138.67 222.12 139.23 222.77 139.91 222.81L219.33 226.07C220.12 226.11 220.76 225.47 220.74 224.63L219.7 158.61C219.69 157.76 219.03 157.08 218.23 157.09L139.03 158.01C138.36 158.02 137.82 158.66 137.84 159.44Z" fill="#D5E06D"/>
<path d="M137.17 190.35C137.19 191.25 136.57 191.97 135.78 191.96C134.99 191.94 134.34 191.2 134.32 190.29C134.3 189.39 134.92 188.67 135.71 188.68C136.49 188.7 137.15 189.45 137.17 190.35Z" fill="#84817D"/>
<path d="M219.76 161.7L219.71 158.6C219.7 157.75 219.04 157.07 218.24 157.08L139.04 158C138.36 158.01 137.82 158.65 137.84 159.43L137.9 162.29L219.76 161.7Z" fill="white"/>
<path d="M353.69 130.93L218.65 134.98C217.33 135.02 216.25 133.96 216.25 132.65V114.39C216.25 113.15 217.22 112.12 218.46 112.06L353.5 105.05C354.83 104.98 355.96 106.04 355.96 107.38V128.61C355.95 129.86 354.95 130.89 353.69 130.93Z" fill="white"/>
<path d="M353.13 184.01L295.26 183.63C293.85 183.62 292.71 182.47 292.71 181.06V149.45C292.71 148.05 293.83 146.91 295.23 146.88L353.1 145.84C354.54 145.81 355.72 146.97 355.72 148.41V181.44C355.72 182.86 354.56 184.02 353.13 184.01Z" fill="#B3AFAB"/>
<path d="M154.01 178.77C156.887 178.77 159.22 176.603 159.22 173.93C159.22 171.257 156.887 169.09 154.01 169.09C151.132 169.09 148.8 171.257 148.8 173.93C148.8 176.603 151.132 178.77 154.01 178.77Z" fill="#B3AFAB"/>
<path d="M177.73 178.91C180.607 178.91 182.94 176.743 182.94 174.07C182.94 171.397 180.607 169.23 177.73 169.23C174.853 169.23 172.52 171.397 172.52 174.07C172.52 176.743 174.853 178.91 177.73 178.91Z" fill="#B3AFAB"/>
<path d="M202.29 179.05C205.167 179.05 207.5 176.883 207.5 174.21C207.5 171.537 205.167 169.37 202.29 169.37C199.412 169.37 197.08 171.537 197.08 174.21C197.08 176.883 199.412 179.05 202.29 179.05Z" fill="#B3AFAB"/>
<path d="M187.74 218.42V183.05H169.15V217.73L187.74 218.42Z" fill="#B2C133"/>
<path d="M193.77 183.05V218.64L212.08 219.32V183.05H193.77Z" fill="#B2C133"/>
<path d="M163.43 183.05H144.59V216.81L163.43 217.51V183.05Z" fill="#B2C133"/>
<path d="M133.23 121.43L103.65 122.53C102.81 122.56 102.1 121.89 102.1 121.04V119.74C102.1 118.94 102.73 118.28 103.53 118.25L133.11 117.15C133.95 117.12 134.66 117.79 134.66 118.64V119.94C134.66 120.74 134.03 121.4 133.23 121.43Z" fill="#A3C9F6"/>
<path d="M148.27 146.94L103.81 147.86C102.98 147.88 102.29 147.21 102.29 146.37V129.79C102.29 128.99 102.92 128.33 103.72 128.3L148.18 126.56C149.03 126.53 149.73 127.2 149.73 128.05V145.46C149.73 146.26 149.08 146.92 148.27 146.94Z" fill="#A3C9F6"/>
<path d="M544.26 58.77L544.38 50.17C544.39 49.52 543.79 49.04 543.04 49.1L407.52 59.53C406.95 59.57 406.48 60.07 406.48 60.64L406.47 68.04C431.78 66.21 492.43 62.12 544.26 58.77Z" fill="#1DACCC"/>
<path d="M459.61 76.3701L416.71 79.1501C416.05 79.1901 415.5 78.6701 415.5 78.0201V74.6401C415.5 74.0401 415.96 73.5501 416.56 73.5101L459.36 70.5601C460 70.5201 460.56 71.0201 460.57 71.6601L460.68 75.2101C460.69 75.8201 460.22 76.3301 459.61 76.3701Z" fill="#4ADAFA"/>
<path d="M480.77 123.1L417.31 125.37C416.47 125.4 415.78 124.73 415.78 123.89V86.6301C415.78 85.8501 416.39 85.2001 417.17 85.1501L480.63 81.4201C481.48 81.3701 482.2 82.0501 482.2 82.9001V121.62C482.2 122.42 481.56 123.07 480.77 123.1Z" fill="#4ADAFA"/>
<path d="M491.39 83.06L532.6 80.42C533.21 80.38 533.69 79.87 533.69 79.26V67.08C533.69 66.41 533.12 65.87 532.45 65.92L491.24 68.76C490.63 68.8 490.16 69.31 490.16 69.92V81.9C490.15 82.57 490.72 83.1 491.39 83.06Z" fill="#1DACCC"/>
<path d="M471.14 211.7L432.2 210.89C429.66 210.84 427.61 208.76 427.62 206.25L427.88 127.25C427.89 124.7 429.97 122.51 432.53 122.35L471.81 121.06C474.58 120.89 476.82 122.91 476.8 125.58L476.16 207.05C476.14 209.67 473.89 211.75 471.14 211.7Z" fill="#444444"/>
<path d="M469.87 208.32L433.43 207.67C432.03 207.65 430.91 206.51 430.91 205.13L431.19 127.65C431.2 126.25 432.34 125.05 433.75 124.97L470.48 123.93C471.99 123.84 473.21 124.95 473.2 126.4L472.61 205.77C472.59 207.21 471.37 208.35 469.87 208.32Z" fill="#6D6A66"/>
<path d="M458.59 206.39L444.31 206.16C443.99 206.15 443.72 205.89 443.73 205.58C443.73 205.26 444 205.01 444.32 205.02L458.6 205.24C458.93 205.25 459.2 205.51 459.2 205.83C459.19 206.14 458.92 206.39 458.59 206.39Z" fill="#56534F"/>
<path d="M473.14 135.47L473.2 126.41C473.21 124.96 471.99 123.85 470.48 123.94L433.75 124.98C432.34 125.06 431.2 126.26 431.19 127.66L431.16 136.48L473.14 135.47Z" fill="#84817D"/>
<path d="M439.72 124.58L439.71 126.03C439.7 127.41 440.83 128.47 442.24 128.39L462.39 128.22C463.85 128.14 465.04 126.93 465.05 125.51L464.89 124.07L439.72 124.58Z" fill="#444444"/>
<path d="M459.4 125.65C459.4 126.13 458.99 126.54 458.5 126.57C458.01 126.6 457.61 126.23 457.61 125.75C457.61 125.27 458.02 124.86 458.51 124.83C459 124.8 459.4 125.17 459.4 125.65Z" fill="#908D89"/>
<path d="M448.75 126.74L454.93 126.61C455.42 126.58 455.83 126.17 455.83 125.69C455.83 125.21 455.43 124.84 454.94 124.87L448.76 125.01C448.27 125.04 447.87 125.45 447.87 125.93C447.87 126.4 448.26 126.76 448.75 126.74Z" fill="#908D89"/>
<path d="M466.35 151.6L437.6 152.15C437.16 152.16 436.8 151.8 436.8 151.36V144.57C436.8 144.14 437.14 143.79 437.57 143.78L466.32 143.23C466.76 143.22 467.12 143.58 467.12 144.02V150.81C467.13 151.24 466.78 151.59 466.35 151.6Z" fill="#9C9894"/>
<path d="M466.13 163.87L437.81 164.07C437.25 164.07 436.8 163.62 436.8 163.07V156.69C436.8 156.14 437.24 155.7 437.78 155.69L466.1 155.1C466.66 155.09 467.12 155.54 467.12 156.1V162.87C467.13 163.42 466.68 163.86 466.13 163.87Z" fill="#9C9894"/>
<path d="M451.68 191.28C454.585 191.28 456.94 188.925 456.94 186.02C456.94 183.115 454.585 180.76 451.68 180.76C448.775 180.76 446.42 183.115 446.42 186.02C446.42 188.925 448.775 191.28 451.68 191.28Z" fill="#F7B548"/>
</svg>
