<svg width="636" height="300" viewBox="0 0 636 300" fill="none" xmlns="http://www.w3.org/2000/svg">
<path d="M126.12 108.46L103.83 109.81C102.09 109.92 100.68 111.63 100.68 113.63V129.65C100.68 131.66 102.09 133.22 103.83 133.15L126.12 132.23C127.93 132.16 129.4 130.43 129.4 128.38V111.97C129.4 109.93 127.93 108.35 126.12 108.46Z" fill="#625F5B"/>
<path d="M84.7099 147.55L81.9199 147.63C81.9199 142.43 83.6899 137.37 86.8399 133.55C90.0099 129.71 94.3199 127.43 98.8599 127.22V130.54C95.0799 130.71 91.4699 132.6 88.8299 135.8C86.1899 138.98 84.7199 143.21 84.7099 147.55Z" fill="#625F5B"/>
<path d="M120.66 108.79L98.5702 110.13C96.8402 110.23 95.4502 111.94 95.4502 113.93V129.88C95.4502 131.88 96.8502 133.44 98.5702 133.37L120.66 132.46C122.45 132.39 123.91 130.67 123.91 128.63V112.3C123.92 110.25 122.46 108.68 120.66 108.79Z" fill="#84817D"/>
<path d="M137.6 131.62C134.59 128.37 130.67 126.47 126.52 126.2V129.63C129.86 129.93 133.02 131.5 135.44 134.13C138.3 137.23 139.91 141.54 139.92 146.09L142.99 146C142.99 140.52 141.05 135.35 137.6 131.62Z" fill="#625F5B"/>
<path d="M128.98 96.5098L121.24 96.0898C116.68 96.4098 94.9702 102.18 94.9702 107.43V110.78C94.9702 116.03 98.6402 120.09 103.2 119.85L129.47 118.66C134.24 118.41 137.21 113.81 137.21 108.39V104.93C137.21 99.5098 132.4 96.9298 128.98 96.5098Z" fill="#95A527"/>
<path d="M561.48 63.5999L554.07 66.5999V138.1L561.48 140V63.5999Z" fill="#27BEE0"/>
<path d="M546.68 85.3798C538.91 82.0098 531.31 71.4298 536.9 62.3398C537.87 60.8998 539.01 59.5398 540.3 58.2798C543.65 54.7898 547.13 51.1598 544.88 44.4498C542 35.8898 525.57 39.3698 509.37 43.5598L508.64 40.0098C522.86 36.2898 544.91 30.5098 549.12 42.9998C552.05 51.6798 547.12 56.7998 543.55 60.5098C542.48 61.5498 541.52 62.6598 540.7 63.8398C537.86 68.4398 539.67 77.9698 548.92 81.9498L546.68 85.3798Z" fill="#9C9894"/>
<path d="M508.52 34.2698L501.9 36.2298C500.85 36.5398 500.19 37.5198 500.41 38.4298L503.34 50.4098C503.56 51.3198 504.59 51.8098 505.65 51.5198L512.3 49.6298C513.36 49.3298 514.04 48.3398 513.82 47.4298L510.85 35.3598C510.62 34.4398 509.58 33.9598 508.52 34.2698Z" fill="#9C9894"/>
<path d="M467.67 50.49L459.93 52.76C456.1 53.88 453.67 57.56 454.47 60.98L461.98 90.55C462.79 94.01 465.85 96.21 469.73 95.2L477.59 93.15C481.54 92.12 484.61 88.86 483.77 85.35L476.26 54.71C475.42 51.23 471.57 49.35 467.67 50.49Z" fill="#1189A5"/>
<path d="M404.98 66.83L401.39 67.89C400.39 68.18 399.76 69.18 399.97 70.11L402.49 81.3C402.7 82.24 403.68 82.77 404.68 82.49L408.29 81.47C409.3 81.19 409.94 80.19 409.73 79.25L407.18 68C406.97 67.05 405.99 66.53 404.98 66.83Z" fill="#9C9894"/>
<path d="M502.9 38L407.32 66.13C406.23 66.45 405.54 67.53 405.77 68.55L409.03 82.96C409.26 83.98 410.33 84.56 411.43 84.25L507.65 57.38C508.92 57.03 509.73 55.85 509.46 54.76L505.67 39.3C505.39 38.22 504.15 37.63 502.9 38Z" fill="#0B7891"/>
<path d="M550.46 106.99C549.4 109.23 547.39 111.06 544.86 112.1C542.34 113.13 539.52 113.27 537.01 112.51L467.95 91.3399C466.82 90.9999 465.8 90.4599 464.94 89.7499C464.08 89.0399 463.4 88.1599 462.93 87.1799C462.46 86.1999 462.22 85.1199 462.22 84.0199C462.22 82.9199 462.45 81.8099 462.91 80.7499C463.37 79.6899 464.05 78.7099 464.91 77.8699C465.77 77.0199 466.79 76.3199 467.91 75.8099C469.04 75.2999 470.24 74.9799 471.47 74.8899C472.69 74.7999 473.91 74.9199 475.04 75.2599L544.85 95.7199C547.38 96.4599 549.4 98.0699 550.45 100.19C551.5 102.29 551.51 104.74 550.46 106.99Z" fill="#1DACCC"/>
<path d="M470.66 87.5199C473.32 87.3299 475.49 85.2099 475.49 82.7799C475.49 80.3499 473.32 78.5599 470.66 78.7699C468.01 78.9799 465.86 81.0999 465.86 83.5099C465.86 85.9199 468 87.7199 470.66 87.5199Z" fill="#0B7891"/>
<path d="M557.65 132.96L533.43 122.21C532.43 121.77 531.81 120.87 531.81 119.88V85.1799C531.81 84.3799 532.31 83.5999 533.11 83.1499L557.65 69.3799V132.96Z" fill="#1189A5"/>
<path d="M568.99 62.95L561.5 63.58V140L568.99 139.77V62.95Z" fill="#0B7891"/>
<path d="M504.72 45.7599L420.93 69.9199C420.75 69.9699 420.57 69.9999 420.38 70.0099L391.64 71.1499C390.73 71.1899 389.96 70.6199 389.77 69.7799L388.12 62.3999C387.89 61.3699 388.58 60.2699 389.67 59.9399L500 26.4599C501.29 26.0699 502.56 26.6599 502.83 27.7699L506.58 43.0499C506.85 44.1799 506.02 45.3899 504.72 45.7599Z" fill="#33D5F9"/>
<path d="M503.66 31.1499L502.83 27.7699C502.56 26.6599 501.29 26.0699 500 26.4599L389.69 59.9299C388.6 60.2599 387.91 61.3599 388.14 62.3899L388.84 65.5099L503.66 31.1499Z" fill="#8EE8FC"/>
<path d="M160.82 119.74L364.75 109.57V260.31L162.04 249.63C161.09 249.58 160.18 249.12 159.51 248.34C158.84 247.57 158.46 246.54 158.46 245.5V122.46C158.46 121.77 158.71 121.1 159.15 120.59C159.59 120.07 160.19 119.77 160.82 119.74Z" fill="#CCCAC7"/>
<path d="M381.31 109.06L409.81 114.96C411.99 115.4 413.25 116.12 414.41 117.14C415.58 118.16 416.02 119.75 416.02 121.27V249.4C416.02 250.98 415.34 252.45 414.12 253.5C412.91 254.55 411.52 255.35 409.56 255.79L380.82 260.93L381.31 109.06Z" fill="#9C9894"/>
<path d="M332.42 111.18L379.34 108.84C380.92 108.76 382.43 109.28 383.56 110.27C384.68 111.27 385.31 112.66 385.31 114.15V255.58C385.31 257.12 384.65 258.57 383.49 259.6C382.33 260.63 380.75 261.16 379.12 261.07L332.43 258.61V111.18H332.42Z" fill="#625F5B"/>
<path d="M307.44 127.98L172.74 133.21C171.89 133.24 171.2 134.02 171.2 134.95V235.24C171.2 236.17 171.89 236.95 172.74 236.99L307.44 242.7C308.48 242.74 309.33 241.94 309.33 240.91V129.78C309.33 128.74 308.48 127.94 307.44 127.98Z" fill="#625F5B"/>
<path d="M302.53 133.02L176.78 137.47C175.92 137.5 175.23 138.28 175.23 139.21V231.01C175.23 231.94 175.92 232.73 176.78 232.76L302.53 237.65C303.57 237.69 304.41 236.89 304.41 235.86V134.81C304.41 133.78 303.57 132.98 302.53 133.02Z" fill="#939393"/>
<path d="M302.53 133.02L176.78 137.47C175.92 137.5 175.23 138.28 175.23 139.21V231.01C175.23 231.94 175.92 232.73 176.78 232.76L302.53 237.65C303.57 237.69 304.41 236.89 304.41 235.86V134.81C304.41 133.78 303.57 132.98 302.53 133.02Z" fill="url(#paint0_radial)"/>
<path d="M322.74 120.51L318.83 120.68C316.87 120.77 315.28 122.39 315.28 124.31V243.48C315.28 245.4 316.87 247.03 318.83 247.11L322.74 247.29C324.72 247.38 326.33 245.88 326.33 243.95V123.85C326.32 121.92 324.71 120.42 322.74 120.51Z" fill="#625F5B"/>
<path d="M378.37 125.23L338.87 126.76C337.55 126.81 336.5 127.9 336.5 129.22V158.09C336.5 159.46 337.62 160.57 339 160.55L378.5 159.94C379.84 159.92 380.92 158.82 380.92 157.48V127.68C380.93 126.29 379.77 125.17 378.37 125.23Z" fill="#F0AE00"/>
<path d="M379.33 169.12L370.6 169.2C369.73 169.21 369.03 169.88 369.03 170.7V175.84C369.03 176.66 369.73 177.32 370.6 177.32L379.33 177.29C380.21 177.29 380.93 176.61 380.93 175.79V170.6C380.93 169.78 380.21 169.11 379.33 169.12Z" fill="#9C9894"/>
<path d="M363.16 169.27L354.62 169.35C353.77 169.36 353.08 170.02 353.08 170.83V175.92C353.08 176.73 353.77 177.39 354.62 177.38L363.16 177.35C364.02 177.35 364.72 176.68 364.72 175.86V170.73C364.72 169.92 364.02 169.26 363.16 169.27Z" fill="#9C9894"/>
<path d="M346.34 169.43L338 169.51C337.17 169.52 336.5 170.17 336.5 170.98V176C336.5 176.8 337.17 177.45 338 177.45L346.34 177.42C347.18 177.42 347.87 176.76 347.87 175.95V170.88C347.87 170.07 347.19 169.42 346.34 169.43Z" fill="#9C9894"/>
<path d="M379.33 182.22H370.6C369.73 182.22 369.03 182.89 369.03 183.71V188.85C369.03 189.67 369.73 190.34 370.6 190.34L379.33 190.38C380.21 190.38 380.93 189.72 380.93 188.89V183.7C380.93 182.89 380.21 182.22 379.33 182.22Z" fill="#9C9894"/>
<path d="M363.16 182.22H354.62C353.77 182.22 353.08 182.88 353.08 183.69V188.78C353.08 189.59 353.77 190.25 354.62 190.26L363.16 190.3C364.02 190.3 364.72 189.64 364.72 188.83V183.7C364.72 182.89 364.02 182.22 363.16 182.22Z" fill="#9C9894"/>
<path d="M346.34 182.23H338C337.17 182.23 336.5 182.88 336.5 183.68V188.71C336.5 189.51 337.17 190.17 338 190.17L346.34 190.21C347.18 190.21 347.87 189.56 347.87 188.75V183.68C347.87 182.89 347.19 182.23 346.34 182.23Z" fill="#9C9894"/>
<path d="M379.33 195.31L370.6 195.24C369.73 195.23 369.03 195.89 369.03 196.71V201.85C369.03 202.67 369.73 203.35 370.6 203.36L379.33 203.48C380.21 203.49 380.93 202.83 380.93 202V196.81C380.93 195.99 380.21 195.32 379.33 195.31Z" fill="#9C9894"/>
<path d="M363.16 195.17L354.62 195.1C353.77 195.09 353.08 195.75 353.08 196.56V201.65C353.08 202.46 353.77 203.13 354.62 203.14L363.16 203.26C364.02 203.27 364.72 202.62 364.72 201.8V196.67C364.72 195.85 364.02 195.18 363.16 195.17Z" fill="#9C9894"/>
<path d="M346.34 195.03L338 194.96C337.17 194.95 336.5 195.6 336.5 196.4V201.43C336.5 202.23 337.17 202.89 338 202.9L346.34 203.02C347.18 203.03 347.87 202.39 347.87 201.58V196.51C347.87 195.7 347.19 195.04 346.34 195.03Z" fill="#9C9894"/>
<path d="M379.33 208.4L370.6 208.25C369.73 208.24 369.03 208.89 369.03 209.71V214.85C369.03 215.67 369.73 216.35 370.6 216.37L379.33 216.57C380.21 216.59 380.93 215.94 380.93 215.11V209.92C380.93 209.1 380.21 208.42 379.33 208.4Z" fill="#6BA8F1"/>
<path d="M363.16 208.12L354.62 207.97C353.77 207.96 353.08 208.6 353.08 209.41V214.5C353.08 215.31 353.77 215.99 354.62 216.01L363.16 216.2C364.02 216.22 364.72 215.57 364.72 214.75V209.62C364.72 208.81 364.02 208.14 363.16 208.12Z" fill="#6BA8F1"/>
<path d="M346.34 207.83L338 207.69C337.17 207.68 336.5 208.32 336.5 209.12V214.15C336.5 214.95 337.17 215.62 338 215.64L346.34 215.83C347.18 215.85 347.87 215.21 347.87 214.4V209.33C347.87 208.52 347.19 207.85 346.34 207.83Z" fill="#6BA8F1"/>
<path d="M326.32 133.16L315.28 133.54V231.3L326.32 231.68V133.16Z" fill="white"/>
<path d="M351.4 137.61C351.4 139.01 351.17 140.06 350.7 140.75C350.23 141.44 349.51 141.8 348.55 141.83C347.62 141.86 346.91 141.53 346.43 140.84C345.95 140.15 345.71 139.14 345.71 137.79C345.71 136.38 345.94 135.32 346.41 134.64C346.88 133.95 347.59 133.59 348.55 133.56C349.49 133.53 350.2 133.86 350.68 134.54C351.15 135.23 351.4 136.25 351.4 137.61ZM347.07 137.74C347.07 138.83 347.19 139.61 347.42 140.07C347.65 140.53 348.03 140.75 348.54 140.74C349.06 140.73 349.43 140.48 349.67 139.99C349.91 139.51 350.03 138.72 350.03 137.64C350.03 136.56 349.91 135.79 349.67 135.31C349.43 134.84 349.05 134.61 348.54 134.62C348.02 134.64 347.65 134.89 347.42 135.37C347.18 135.86 347.07 136.65 347.07 137.74Z" fill="white"/>
<path d="M358.15 137.4C358.15 138.81 357.91 139.86 357.44 140.55C356.97 141.25 356.24 141.61 355.27 141.63C354.33 141.66 353.62 141.33 353.13 140.64C352.65 139.95 352.4 138.93 352.4 137.57C352.4 136.15 352.64 135.09 353.11 134.4C353.58 133.71 354.3 133.35 355.27 133.31C356.22 133.28 356.93 133.61 357.42 134.3C357.91 135.01 358.15 136.03 358.15 137.4ZM353.78 137.53C353.78 138.63 353.9 139.41 354.14 139.88C354.38 140.34 354.75 140.57 355.28 140.55C355.8 140.53 356.18 140.28 356.42 139.8C356.66 139.31 356.78 138.53 356.78 137.44C356.78 136.36 356.66 135.58 356.42 135.1C356.18 134.62 355.8 134.39 355.28 134.41C354.76 134.43 354.38 134.68 354.14 135.16C353.9 135.64 353.78 136.43 353.78 137.53Z" fill="white"/>
<path d="M359.44 135.99C359.44 135.43 359.73 135.14 360.3 135.13C360.59 135.12 360.81 135.19 360.95 135.33C361.09 135.47 361.17 135.68 361.17 135.94C361.17 136.2 361.1 136.41 360.95 136.57C360.8 136.73 360.59 136.81 360.31 136.82C360.03 136.83 359.82 136.76 359.67 136.61C359.51 136.46 359.44 136.25 359.44 135.99ZM359.44 140.71C359.44 140.44 359.51 140.23 359.66 140.08C359.81 139.93 360.02 139.85 360.3 139.85C360.58 139.84 360.8 139.91 360.95 140.06C361.1 140.21 361.17 140.41 361.17 140.67C361.17 140.93 361.1 141.14 360.95 141.3C360.8 141.46 360.59 141.54 360.31 141.55C360.03 141.56 359.82 141.49 359.67 141.34C359.51 141.19 359.44 140.98 359.44 140.71Z" fill="white"/>
<path d="M368.28 137.08C368.28 138.5 368.04 139.55 367.56 140.25C367.08 140.95 366.35 141.31 365.36 141.34C364.41 141.37 363.69 141.03 363.19 140.34C362.7 139.65 362.45 138.62 362.45 137.25C362.45 135.82 362.69 134.76 363.17 134.06C363.65 133.36 364.38 133 365.36 132.97C366.32 132.94 367.05 133.27 367.54 133.97C368.03 134.67 368.28 135.71 368.28 137.08ZM363.85 137.22C363.85 138.33 363.97 139.11 364.21 139.58C364.45 140.05 364.83 140.27 365.36 140.26C365.89 140.24 366.27 139.99 366.52 139.5C366.76 139.01 366.89 138.22 366.89 137.12C366.89 136.03 366.77 135.24 366.52 134.76C366.28 134.28 365.89 134.05 365.36 134.07C364.83 134.09 364.45 134.34 364.21 134.83C363.97 135.32 363.85 136.11 363.85 137.22Z" fill="white"/>
<path d="M375.19 136.87C375.19 138.29 374.95 139.36 374.46 140.06C373.98 140.76 373.24 141.13 372.24 141.16C371.28 141.19 370.55 140.85 370.05 140.16C369.55 139.46 369.31 138.43 369.31 137.06C369.31 135.62 369.55 134.55 370.03 133.86C370.51 133.16 371.25 132.79 372.24 132.76C373.21 132.73 373.94 133.06 374.44 133.76C374.95 134.45 375.19 135.49 375.19 136.87ZM370.72 137.01C370.72 138.12 370.84 138.91 371.08 139.38C371.32 139.85 371.71 140.08 372.24 140.06C372.77 140.04 373.16 139.79 373.41 139.3C373.66 138.81 373.78 138.01 373.78 136.91C373.78 135.81 373.66 135.03 373.41 134.54C373.16 134.06 372.77 133.83 372.24 133.84C371.71 133.86 371.32 134.11 371.08 134.6C370.84 135.1 370.72 135.9 370.72 137.01Z" fill="white"/>
<path d="M524.14 173.2C523.66 172.43 523.3 172.13 522.77 172.01C515.83 170.65 490.92 168.23 472.84 168.36C472.16 168.37 466.45 169.03 465.77 169.04C465.32 169.04 464.88 169.04 464.45 169.05C464.34 169.05 464.23 169.07 464.12 169.07C446.86 169.53 430.08 170.91 413.85 173.17C413.61 173.2 413.38 173.29 413.18 173.42C412.98 173.55 412.82 173.72 412.7 173.92C411.18 176.6 405.58 187.28 405.58 200.12C405.58 215.15 408.31 230.07 409.73 233.74C410.29 234.71 410.56 234.94 413.97 235.58C430.24 238.62 447.11 240.58 464.45 241.41C490.6 242.57 516.99 240.54 522.63 240.07C522.96 240.04 523.26 239.94 523.52 239.77C523.78 239.6 523.97 239.38 524.08 239.12C525.78 235.21 532.64 218.39 532.64 201.9C532.65 187.77 525.93 176.07 524.14 173.2Z" fill="#908D89"/>
<path d="M520.48 172.21C520.35 172 520.16 171.82 519.94 171.68C519.71 171.54 519.45 171.45 519.17 171.41C500.57 169.04 482.27 167.94 464.42 168.07C463.75 168.08 463.08 168.09 462.41 168.1C461.97 168.1 461.52 168.1 461.09 168.11C460.98 168.11 460.87 168.13 460.76 168.13C443.59 168.6 426.89 169.99 410.73 172.25C410.49 172.28 410.26 172.37 410.06 172.5C409.86 172.63 409.7 172.8 409.59 173C408.07 175.67 402.51 186.33 402.51 199.14C402.51 214.13 408.24 229.87 409.66 233.54C409.75 233.78 409.91 234 410.12 234.17C410.33 234.34 410.58 234.46 410.86 234.51C427.05 237.53 443.84 239.47 461.09 240.28C487.11 241.41 513.36 239.37 518.97 238.89C519.29 238.86 519.6 238.76 519.86 238.59C520.12 238.42 520.31 238.2 520.42 237.94C522.11 234.04 528.93 217.26 528.93 200.81C528.94 186.74 522.26 175.07 520.48 172.21Z" fill="#B3AFAB"/>
<path d="M528.78 205.32C528.88 203.83 528.94 202.33 528.94 200.83C528.94 186.73 522.26 175.06 520.48 172.21C520.35 172 520.16 171.82 519.94 171.68C519.71 171.54 519.45 171.45 519.17 171.41C500.57 169.04 482.27 167.94 464.42 168.07C463.75 168.08 463.08 168.09 462.41 168.1C461.97 168.1 461.52 168.1 461.09 168.11C460.98 168.11 460.87 168.13 460.76 168.13C443.59 168.6 426.89 169.99 410.73 172.25C410.49 172.28 410.26 172.37 410.06 172.5C409.86 172.63 409.7 172.8 409.59 173C408.07 175.67 402.51 186.33 402.51 199.14C402.51 200.5 402.56 201.87 402.64 203.23L528.78 205.32Z" fill="#DDDBDA"/>
<path d="M439.38 230.14C441.34 230.21 442.93 228.84 442.93 227.07C442.93 225.3 441.34 223.82 439.38 223.76C437.43 223.7 435.85 225.07 435.85 226.83C435.85 228.59 437.43 230.07 439.38 230.14Z" fill="#9C9894"/>
<path d="M460.03 230.71C462.05 230.78 463.69 229.39 463.69 227.59C463.69 225.79 462.05 224.29 460.03 224.23C458.02 224.17 456.39 225.56 456.39 227.35C456.39 229.13 458.02 230.64 460.03 230.71Z" fill="#9C9894"/>
<path d="M481.33 231.3C483.41 231.38 485.11 229.96 485.11 228.14C485.11 226.32 483.42 224.79 481.33 224.72C479.25 224.65 477.57 226.07 477.57 227.88C477.57 229.69 479.26 231.22 481.33 231.3Z" fill="#9C9894"/>
<path d="M515.18 201.51L504 201.36C503.8 201.36 503.6 201.31 503.43 201.22C503.26 201.13 503.12 201 503.02 200.85C502.92 200.7 502.88 200.53 502.89 200.36C502.9 200.19 502.96 200.02 503.07 199.88L508.63 192.51C508.73 192.38 508.87 192.27 509.04 192.19C509.2 192.11 509.39 192.08 509.58 192.08C509.77 192.08 509.95 192.12 510.12 192.2C510.29 192.28 510.43 192.39 510.53 192.53L516.15 200.05C516.26 200.2 516.32 200.37 516.33 200.54C516.34 200.71 516.29 200.88 516.19 201.04C516.09 201.19 515.95 201.32 515.77 201.4C515.58 201.47 515.38 201.52 515.18 201.51Z" fill="#3E8EED"/>
<path d="M515.18 205.35L504 205.17C503.8 205.17 503.6 205.21 503.43 205.29C503.26 205.37 503.12 205.5 503.02 205.65C502.92 205.8 502.88 205.97 502.89 206.14C502.9 206.31 502.96 206.48 503.07 206.63L508.63 214.17C508.73 214.31 508.87 214.42 509.04 214.5C509.2 214.58 509.39 214.63 509.58 214.63C509.77 214.63 509.95 214.6 510.12 214.53C510.29 214.46 510.43 214.35 510.53 214.22L516.15 206.87C516.26 206.73 516.32 206.56 516.33 206.39C516.34 206.22 516.29 206.04 516.19 205.89C516.09 205.74 515.95 205.61 515.77 205.52C515.58 205.41 515.38 205.36 515.18 205.35Z" fill="#3E8EED"/>
<path d="M490.28 177.61L429.13 177.81C426.12 177.82 423.68 180.04 423.68 182.78V213.94C423.68 216.67 426.11 218.96 429.13 219.04L490.28 220.77C493.6 220.86 496.3 218.6 496.3 215.72V182.82C496.3 179.93 493.6 177.6 490.28 177.61Z" fill="#625F5B"/>
<path d="M487.8 181.18L431.17 181.22C429.44 181.22 428.04 182.49 428.04 184.06V212.64C428.04 214.21 429.44 215.51 431.17 215.56L487.8 217C489.69 217.05 491.22 215.76 491.22 214.11V184.15C491.22 182.51 489.69 181.18 487.8 181.18Z" fill="#60A2F0"/>
<path d="M461.09 199.88L467.18 188.3L459.18 188.26V186.9L468.96 186.94V188.13L462.94 199.91L461.09 199.88Z" fill="white"/>
<path d="M480.85 200.14L471.02 200.01V198.73L474.94 195.31C476.14 194.26 476.93 193.5 477.31 193.05C477.69 192.6 477.98 192.16 478.17 191.73C478.36 191.3 478.46 190.84 478.46 190.34C478.46 189.64 478.22 189.08 477.73 188.67C477.24 188.26 476.57 188.05 475.71 188.05C475.09 188.05 474.5 188.13 473.95 188.31C473.4 188.49 472.78 188.81 472.1 189.28L471.21 188.27C472.58 187.27 474.07 186.78 475.69 186.78C477.09 186.78 478.2 187.1 479 187.74C479.8 188.38 480.2 189.23 480.2 190.3C480.2 191.13 479.93 191.96 479.4 192.77C478.87 193.58 477.87 194.6 476.41 195.83L473.14 198.6V198.67L480.84 198.76V200.14H480.85Z" fill="white"/>
<path d="M487.2 187.71C486.95 187.39 486.6 187.13 486.19 186.98C485.78 186.83 485.33 186.79 484.89 186.86C484.45 186.93 484.05 187.12 483.74 187.39C483.43 187.66 483.21 188.01 483.13 188.39C483.04 188.77 483.09 189.16 483.26 189.52C483.43 189.88 483.72 190.18 484.08 190.4C484.45 190.62 484.88 190.73 485.33 190.74C485.93 190.74 486.5 190.54 486.92 190.18C487.34 189.82 487.58 189.32 487.58 188.8C487.58 188.42 487.45 188.04 487.2 187.71ZM486.12 189.26C486.01 189.4 485.87 189.5 485.69 189.56C485.52 189.62 485.32 189.64 485.14 189.6C484.96 189.57 484.79 189.49 484.65 189.37C484.52 189.25 484.43 189.11 484.39 188.94C484.35 188.78 484.37 188.61 484.44 188.46C484.51 188.31 484.63 188.18 484.79 188.09C484.95 188 485.13 187.95 485.32 187.95C485.57 187.95 485.81 188.04 485.99 188.2C486.17 188.36 486.27 188.57 486.27 188.79C486.28 188.96 486.23 189.12 486.12 189.26Z" fill="white"/>
<path d="M84.0501 90.7899C84.0501 91.8699 79.0701 93.1099 72.9801 93.5799C66.9601 94.0399 62.1201 93.5499 62.1201 92.4899C62.1201 91.4299 66.9601 90.1999 72.9801 89.7199C79.0701 89.2399 84.0501 89.7199 84.0501 90.7899Z" fill="#CCCAC7"/>
<path d="M62.41 95.0699L60.01 95.2499C58.89 95.3299 57.98 94.3199 57.98 92.9799C57.98 91.6399 58.89 90.4799 60.01 90.3999L62.41 90.2099C63.54 90.1199 64.45 91.1399 64.45 92.4899C64.45 93.8299 63.53 94.9899 62.41 95.0699Z" fill="#3F3C38"/>
<path d="M60.88 92.5898C60.88 93.6398 56.09 94.8598 50.24 95.3098C44.45 95.7498 39.79 95.2598 39.79 94.2298C39.79 93.1898 44.44 91.9898 50.24 91.5298C56.09 91.0598 60.88 91.5298 60.88 92.5898Z" fill="#CCCAC7"/>
<path d="M64.24 103.78L62 94.3499L60.49 94.4599L58.27 104.18L64.24 103.78Z" fill="#3F3C38"/>
<path d="M64.86 114.08L57.31 114.52C56.45 114.57 55.72 113.87 55.58 112.86L54.53 105.42C54.35 104.15 55.18 102.92 56.26 102.84L65.93 102.17C67.04 102.09 67.88 103.22 67.7 104.53L66.63 112.18C66.48 113.24 65.73 114.03 64.86 114.08Z" fill="#BBCB37"/>
<path d="M65.9301 102.19L63.4601 102.36C64.5601 102.28 65.4001 103.41 65.2201 104.72L64.1501 112.36C64.0101 113.39 63.2601 114.19 62.3901 114.24L64.8601 114.09C65.7301 114.04 66.4801 113.24 66.6201 112.21L67.6901 104.56C67.8801 103.24 67.0301 102.11 65.9301 102.19Z" fill="#95A527"/>
<path d="M66.37 111.87C78.35 113.5 100.31 115.85 106.46 116.5C107.25 116.58 107.91 115.74 107.76 114.84L106.06 104.51C105.96 103.88 105.47 103.45 104.91 103.49L67.01 105.98C66.47 106.02 66.02 106.51 65.93 107.14L65.48 110.43C65.38 111.14 65.77 111.79 66.37 111.87Z" fill="#C5D43B"/>
<path d="M160.18 99.9899L132.85 101.68C132.19 101.72 131.63 102.28 131.51 103.01L131.64 110.84C131.47 111.87 132.24 112.73 133.16 112.54C139.66 111.17 147.17 109.63 160.96 106.38C161.76 106.19 162.3 105.33 162.16 104.48L161.61 101.2C161.49 100.45 160.88 99.9399 160.18 99.9899Z" fill="#C5D43B"/>
<path d="M109.52 141.33C114.19 141.17 118 136.68 118 131.31C118 125.94 114.19 121.77 109.52 122C104.89 122.23 101.16 126.72 101.16 132.02C101.16 137.32 104.89 141.49 109.52 141.33Z" fill="#625F5B"/>
<path d="M109.52 135.77C111.5 135.69 113.1 133.79 113.1 131.52C113.1 129.25 111.49 127.48 109.52 127.57C107.55 127.66 105.96 129.56 105.96 131.82C105.96 134.08 107.55 135.84 109.52 135.77Z" fill="#E86E58"/>
<path d="M194.76 82.22C194.76 83.4 188.81 84.8 181.55 85.35C174.37 85.89 168.6 85.4 168.6 84.25C168.6 83.1 174.36 81.71 181.55 81.14C188.81 80.56 194.76 81.04 194.76 82.22Z" fill="#CCCAC7"/>
<path d="M168.94 87.0599L166.09 87.2699C164.76 87.3699 163.68 86.2699 163.68 84.8099C163.68 83.3499 164.76 82.0799 166.09 81.9699L168.94 81.7399C170.28 81.6299 171.37 82.7399 171.37 84.2099C171.37 85.6899 170.28 86.9599 168.94 87.0599Z" fill="#3F3C38"/>
<path d="M167.13 84.3599C167.13 85.5099 161.43 86.8799 154.47 87.3999C147.59 87.9199 142.06 87.4299 142.06 86.2999C142.06 85.1699 147.59 83.8199 154.47 83.2799C161.43 82.7299 167.13 83.2099 167.13 84.3599Z" fill="#CCCAC7"/>
<path d="M171.12 96.55L168.45 86.27L166.66 86.41L164.01 97.03L171.12 96.55Z" fill="#3F3C38"/>
<path d="M171.86 107.79L162.87 108.32C161.85 108.38 160.97 107.62 160.81 106.52L159.56 98.4098C159.35 97.0198 160.33 95.6798 161.62 95.5898L173.13 94.7998C174.45 94.7098 175.45 95.9298 175.23 97.3698L173.95 105.73C173.79 106.86 172.9 107.73 171.86 107.79Z" fill="#BBCB37"/>
<path d="M120.58 96.1198L97.93 97.7198C93.41 98.0398 89.77 102.53 89.77 107.76V111.09C89.77 116.31 93.41 120.36 97.93 120.12L120.58 118.94C125.31 118.69 129.17 114.12 129.17 108.72V105.28C129.17 99.8798 125.31 95.7798 120.58 96.1198Z" fill="#C5D43B"/>
<path d="M113.8 113.12C116.1 112.99 117.97 110.74 117.97 108.11C117.97 105.47 116.1 103.46 113.8 103.61C111.51 103.76 109.66 106 109.66 108.62C109.65 111.24 111.51 113.25 113.8 113.12Z" fill="white"/>
<path d="M103.59 111.49C104.79 111.42 105.76 110.24 105.76 108.86C105.76 107.48 104.79 106.42 103.59 106.49C102.39 106.57 101.43 107.74 101.43 109.12C101.43 110.5 102.4 111.56 103.59 111.49Z" fill="white"/>
<path d="M173.13 94.7998L170.18 94.9998C171.49 94.9098 172.49 96.1298 172.28 97.5598L171.01 105.9C170.84 107.03 169.95 107.9 168.92 107.96L171.86 107.79C172.9 107.73 173.79 106.86 173.96 105.73L175.24 97.3698C175.46 95.9298 174.45 94.7098 173.13 94.7998Z" fill="#95A527"/>
<path d="M340.45 158.5C339.86 158.51 339.37 158.03 339.37 157.44V126.74L338.87 126.76C337.55 126.81 336.5 127.9 336.5 129.22V158.09C336.5 159.46 337.62 160.57 339 160.55L378.5 159.94C379.7 159.92 380.65 159.03 380.84 157.88L340.45 158.5Z" fill="#9C9894"/>
<defs>
<radialGradient id="paint0_radial" cx="0" cy="0" r="1" gradientUnits="userSpaceOnUse" gradientTransform="translate(202.415 133.868) scale(134.697)">
<stop stop-color="#6BA8F1"/>
<stop offset="0.6717" stop-color="#3E8EED"/>
</radialGradient>
</defs>
</svg>
