<svg width="636" height="300" viewBox="0 0 636 300" fill="none" xmlns="http://www.w3.org/2000/svg">
<path d="M138.44 193.34C125.16 187.3 111.28 190.36 119.09 214.18C126.9 238 163 240.23 181.97 230.18C200.94 220.13 190.9 216.04 179.74 222.37C168.58 228.7 140.67 230.56 132.11 216.79C123.55 203.02 127.27 204.14 136.2 206C145.13 207.86 142.53 195.2 138.44 193.34Z" fill="#625F5B"/>
<path d="M124.11 97.27L327.86 99.69V49.83L124.11 39.97V97.27Z" fill="#4A4844"/>
<path d="M124.11 97.27L65.2202 99.69V49.83L124.11 39.97V97.27Z" fill="#797672"/>
<path d="M223.82 75.85L124.11 73.83V65.49L223.82 67.5V75.85Z" fill="#908D89"/>
<path d="M306.06 77.3798C309.252 77.3798 311.84 74.792 311.84 71.5998C311.84 68.4076 309.252 65.8198 306.06 65.8198C302.868 65.8198 300.28 68.4076 300.28 71.5998C300.28 74.792 302.868 77.3798 306.06 77.3798Z" fill="#CCCAC7"/>
<path d="M138.25 65.77L124.11 65.49V73.83L138.25 74.12V65.77Z" fill="#625F5B"/>
<path d="M210.25 67.23V75.57L223.82 75.84V67.5L210.25 67.23Z" fill="#625F5B"/>
<path d="M512.68 117.94V40.3899C512.68 38.6199 511.59 37.0899 510.23 36.9699L416.79 28.8399C415.21 28.6999 413.93 30.1499 413.93 32.0699V116.16L512.68 117.94Z" fill="#9C9894"/>
<path d="M514.68 117.94V40.3899C514.68 38.6199 513.59 37.0899 512.23 36.9699L418.79 28.8399C417.21 28.6999 415.93 30.1499 415.93 32.0699V116.16L514.68 117.94Z" fill="#B3AFAB"/>
<path d="M510.2 109.76L424.02 107.2V36.3999L510.2 43.4199V109.76Z" fill="#4A4844"/>
<path d="M473.66 105.72L471.97 104.06L461.34 103.93L459.42 105.53V108.39L473.66 108.58V105.72Z" stroke="#72ACF1" stroke-width="2" stroke-miterlimit="10"/>
<path d="M468.37 102.05L464.92 102.06V104.48L468.37 104.47V102.05Z" fill="#F7B548"/>
<path d="M467.11 99.95H466.11V100.95H467.11V99.95Z" fill="url(#paint0_linear)"/>
<path d="M467.11 97.9799H466.11V96.0099H467.11V97.9799ZM467.11 94.0399H466.11V92.0699H467.11V94.0399ZM467.11 90.0999H466.11V88.1299H467.11V90.0999Z" fill="url(#paint1_linear)"/>
<path d="M467.11 85.1599H466.11V86.1599H467.11V85.1599Z" fill="url(#paint2_linear)"/>
<path d="M459.49 64.7698L458.32 64.6898V66.4498L457.57 66.3998L457.12 65.5298L457.85 64.0598L457.32 63.7698L456.57 65.2798L453.7 65.0798C453.56 64.6898 453.37 64.0798 453.21 63.5298L452.64 63.6598C452.9 64.5398 453.06 65.0698 453.19 65.3998L452.76 66.0798L451.78 66.0098V64.2498L450.61 64.1698V66.9598L452.17 68.5598L451.37 70.0698L451.9 70.3798L452.77 68.7298L453.76 68.7998L456.33 68.9798L457.32 69.0498L458.21 70.5898L458.72 70.3198L457.94 68.9698L459.5 67.5898V64.7698H459.49ZM454.32 66.8698L453.62 66.8198V66.1198L454.32 66.1698V66.8698ZM456.8 67.0398L456.1 66.9898V66.2898L456.8 66.3398V67.0398Z" fill="#C5D43B"/>
<path d="M457.07 59.08V57.97L458.96 58.1V56.12L455.22 53L451.37 55.59V57.57L453.33 57.71V58.88L451.19 60.29L451.54 60.79L453.33 59.61V60.68L453.92 60.72V59.36L456.48 59.54V60.9L457.07 60.94V59.83L458.77 61.29L459.14 60.85L457.07 59.08ZM453.35 56.56V55.84L454.07 55.89V56.61L453.35 56.56ZM456.48 58.96L453.92 58.78V57.75L456.48 57.93V58.96ZM457.05 56.82L456.33 56.77V56.05L457.05 56.1V56.82Z" fill="#29C3E5"/>
<path d="M458.07 50.5399L456.78 48.6499L458.96 48.7999V46.4299L456.04 45.0699L454.17 44.9399L451.25 45.8899V48.2599L453.49 48.4199L452.2 50.1299L451.25 50.0599V50.6499L452.5 50.7399L453.97 48.7899L454.66 50.5899L455.54 50.6499L456.15 48.7499L457.76 51.0999L459.01 51.1899V50.5999L458.07 50.5399ZM454.28 47.4399L452.63 47.3199V46.7099L454.28 46.8299V47.4399ZM455.88 47.5499V46.9399L457.53 47.0599V47.6699L455.88 47.5499Z" fill="#B3AFAB"/>
<path d="M468.91 59.9098V58.7998L470.8 58.9298V56.9498L467.06 53.8298L463.21 56.4198V58.3998L465.17 58.5398V59.7098L463.03 61.1198L463.38 61.6198L465.17 60.4398V61.5098L465.76 61.5498V60.1998L468.32 60.3798V61.7398L468.91 61.7798V60.6698L470.61 62.1298L470.98 61.6898L468.91 59.9098ZM465.18 57.3898V56.6698L465.9 56.7198V57.4398L465.18 57.3898ZM468.32 59.7898L465.76 59.6098V58.5798L468.32 58.7598V59.7898ZM468.89 57.6498L468.17 57.5998V56.8798L468.89 56.9298V57.6498Z" fill="#29C3E5"/>
<path d="M469.9 51.37L468.61 49.48L470.79 49.63V47.26L467.87 45.9L466 45.77L463.08 46.72V49.09L465.32 49.25L464.03 50.96L463.08 50.89V51.48L464.33 51.57L465.8 49.62L466.49 51.42L467.37 51.48L467.98 49.58L469.59 51.93L470.84 52.02V51.43L469.9 51.37ZM466.12 48.26L464.47 48.14V47.53L466.12 47.65V48.26ZM467.71 48.37V47.76L469.36 47.88V48.49L467.71 48.37Z" fill="#B3AFAB"/>
<path d="M447.66 63.9399L446.49 63.86V65.62L445.74 65.57L445.29 64.6999L446.02 63.2299L445.49 62.9399L444.74 64.4499L441.87 64.25C441.73 63.86 441.54 63.25 441.38 62.7L440.81 62.83C441.07 63.71 441.23 64.24 441.36 64.57L440.93 65.25L439.95 65.18V63.4199L438.78 63.34V66.1299L440.34 67.73L439.54 69.2399L440.07 69.55L440.94 67.9L441.93 67.97L444.5 68.15L445.49 68.22L446.38 69.76L446.89 69.4899L446.11 68.1399L447.67 66.76V63.9399H447.66ZM442.48 66.04L441.78 65.9899V65.29L442.48 65.3399V66.04ZM444.96 66.2099L444.26 66.16V65.4599L444.96 65.51V66.2099Z" fill="#C5D43B"/>
<path d="M445.24 58.2599V57.1499L447.13 57.2799V55.2999L443.39 52.1799L439.54 54.7699V56.7499L441.5 56.8899V58.0599L439.36 59.4699L439.71 59.9699L441.5 58.7899V59.8599L442.09 59.8999V58.5399L444.65 58.7199V60.0799L445.24 60.1199V59.0099L446.94 60.4699L447.31 60.0299L445.24 58.2599ZM441.51 55.7399V55.0199L442.23 55.0699V55.7899L441.51 55.7399ZM444.65 58.1399L442.09 57.9599V56.9299L444.65 57.1099V58.1399ZM445.22 55.9899L444.5 55.9399V55.2199L445.22 55.2699V55.9899Z" fill="#29C3E5"/>
<path d="M446.23 49.7099L444.94 47.8199L447.12 47.9699V45.5999L444.2 44.2399L442.33 44.1099L439.41 45.0599V47.4299L441.65 47.5899L440.36 49.2999L439.41 49.2299V49.8199L440.66 49.9099L442.13 47.9599L442.82 49.7599L443.7 49.8199L444.31 47.9199L445.92 50.2699L447.17 50.3599V49.7699L446.23 49.7099ZM442.45 46.6099L440.8 46.4899V45.8799L442.45 45.9999V46.6099ZM444.04 46.7199V46.1099L445.69 46.2299V46.8399L444.04 46.7199Z" fill="#B3AFAB"/>
<path d="M435.82 63.1199L434.65 63.0399V64.7999L433.9 64.7499L433.45 63.8799L434.18 62.4099L433.65 62.1199L432.9 63.6299L430.03 63.4299C429.89 63.0399 429.7 62.4299 429.54 61.8799L428.97 62.0099C429.23 62.8899 429.39 63.4199 429.52 63.7499L429.09 64.4299L428.11 64.3599V62.5999L426.94 62.5199V65.3099L428.5 66.9099L427.7 68.4199L428.23 68.7299L429.1 67.0799L430.09 67.1499L432.66 67.3299L433.65 67.3999L434.54 68.9399L435.05 68.6699L434.27 67.3199L435.83 65.9399V63.1199H435.82ZM430.65 65.2099L429.95 65.1599V64.4599L430.65 64.5099V65.2099ZM433.13 65.3899L432.43 65.3399V64.6399L433.13 64.6899V65.3899Z" fill="#C5D43B"/>
<path d="M433.4 57.4299V56.3199L435.29 56.4499V54.4699L431.55 51.3499L427.7 53.9399V55.9199L429.66 56.0599V57.2299L427.52 58.6399L427.87 59.1399L429.66 57.9599V59.0299L430.25 59.0699V57.7099L432.81 57.8899V59.2499L433.4 59.2899V58.1799L435.1 59.6399L435.47 59.1999L433.4 57.4299ZM429.68 54.9099V54.1899L430.4 54.2399V54.9599L429.68 54.9099ZM432.81 57.3099L430.25 57.1299V56.0999L432.81 56.2799V57.3099ZM433.38 55.1699L432.66 55.1199V54.3999L433.38 54.4499V55.1699Z" fill="#29C3E5"/>
<path d="M434.4 48.8898L433.11 46.9998L435.29 47.1498V44.7798L432.37 43.4198L430.5 43.2898L427.58 44.2398V46.6098L429.82 46.7698L428.53 48.4798L427.58 48.4098V48.9998L428.83 49.0898L430.3 47.1398L430.99 48.9398L431.87 48.9998L432.48 47.0998L434.09 49.4498L435.34 49.5398V48.9498L434.4 48.8898ZM430.61 45.7798L428.96 45.6598V45.0498L430.61 45.1698V45.7798ZM432.21 45.8898V45.2798L433.86 45.3998V46.0098L432.21 45.8898Z" fill="#B3AFAB"/>
<path d="M506.89 68.0898L505.71 67.9998V69.7598L504.96 69.7098L504.51 68.8398L505.24 67.3699L504.71 67.0798L503.96 68.5898L501.09 68.3898C500.95 67.9998 500.76 67.3898 500.6 66.8398L500.03 66.9698C500.29 67.8498 500.45 68.3798 500.58 68.7098L500.15 69.3898L499.17 69.3198V67.5598L498 67.4799V70.2698L499.56 71.8699L498.76 73.3798L499.29 73.6898L500.16 72.0398L501.15 72.1098L503.72 72.2898L504.71 72.3598L505.6 73.8998L506.11 73.6298L505.33 72.2798L506.89 70.8998V68.0898ZM501.71 70.1798L501.01 70.1298V69.4298L501.71 69.4799V70.1798ZM504.19 70.3598L503.49 70.3098V69.6098L504.19 69.6599V70.3598Z" fill="#C5D43B"/>
<path d="M504.47 62.3998V61.2898L506.36 61.4198V59.4398L502.62 56.3198L498.77 58.9098V60.8898L500.73 61.0298V62.1998L498.59 63.6098L498.94 64.1098L500.73 62.9298V63.9998L501.32 64.0398V62.6798L503.88 62.8598V64.2198L504.47 64.2598V63.1498L506.17 64.6098L506.54 64.1698L504.47 62.3998ZM500.74 59.8798V59.1598L501.46 59.2098V59.9298L500.74 59.8798ZM503.88 62.2798L501.32 62.0998V61.0698L503.88 61.2498V62.2798ZM504.45 60.1398L503.73 60.0898V59.3698L504.45 59.4198V60.1398Z" fill="#29C3E5"/>
<path d="M505.46 53.86L504.17 51.97L506.35 52.12V49.75L503.43 48.39L501.56 48.26L498.64 49.21V51.58L500.88 51.74L499.59 53.45L498.64 53.38V53.97L499.89 54.06L501.36 52.11L502.05 53.91L502.93 53.97L503.54 52.07L505.15 54.42L506.4 54.51V53.92L505.46 53.86ZM501.68 50.75L500.03 50.63V50.02L501.68 50.14V50.75ZM503.27 50.86V50.25L504.92 50.37V50.98L503.27 50.86Z" fill="#B3AFAB"/>
<path d="M495.05 67.26L493.88 67.18V68.94L493.13 68.89L492.68 68.02L493.41 66.55L492.88 66.26L492.13 67.77L489.26 67.57C489.12 67.18 488.93 66.57 488.77 66.02L488.2 66.15C488.46 67.03 488.62 67.56 488.75 67.89L488.32 68.57L487.34 68.5V66.74L486.17 66.66V69.45L487.73 71.05L486.93 72.56L487.46 72.87L488.33 71.22L489.32 71.29L491.89 71.47L492.88 71.54L493.77 73.08L494.28 72.81L493.5 71.46L495.06 70.08V67.26H495.05ZM489.88 69.36L489.18 69.31V68.61L489.88 68.66V69.36ZM492.35 69.53L491.65 69.48V68.78L492.35 68.83V69.53Z" fill="#C5D43B"/>
<path d="M492.63 61.57V60.46L494.52 60.59V58.61L490.78 55.49L486.93 58.08V60.06L488.89 60.2V61.37L486.75 62.78L487.1 63.28L488.89 62.1V63.17L489.48 63.21V61.85L492.04 62.03V63.39L492.63 63.43V62.32L494.33 63.78L494.7 63.34L492.63 61.57ZM488.91 59.05V58.33L489.63 58.38V59.1L488.91 59.05ZM492.04 61.45L489.48 61.27V60.24L492.04 60.42V61.45ZM492.61 59.31L491.89 59.26V58.54L492.61 58.59V59.31Z" fill="#29C3E5"/>
<path d="M493.63 53.0299L492.34 51.1399L494.52 51.2899V48.9199L491.6 47.5599L489.73 47.4299L486.81 48.3799V50.7499L489.05 50.9099L487.76 52.6199L486.81 52.5499V53.1399L488.06 53.2299L489.53 51.2799L490.22 53.0799L491.1 53.1399L491.71 51.2399L493.32 53.5899L494.57 53.6799V53.0899L493.63 53.0299ZM489.84 49.9199L488.19 49.7999V49.1999L489.84 49.3199V49.9199ZM491.44 50.0299V49.4199L493.09 49.5399V50.1499L491.44 50.0299Z" fill="#B3AFAB"/>
<path d="M483.22 66.4299L482.05 66.3499V68.1099L481.3 68.0599L480.85 67.1899L481.58 65.7199L481.05 65.4299L480.3 66.9399L477.43 66.7399C477.29 66.3499 477.1 65.7399 476.94 65.1899L476.37 65.3199C476.63 66.1999 476.79 66.7299 476.92 67.0599L476.49 67.7399L475.51 67.6699V65.9099L474.34 65.8299V68.6199L475.9 70.2199L475.1 71.7299L475.63 72.0399L476.5 70.3899L477.49 70.4599L480.06 70.6399L481.05 70.7099L481.94 72.2499L482.45 71.9799L481.67 70.6299L483.23 69.2499V66.4299H483.22ZM478.04 68.5299L477.34 68.4799V67.7799L478.04 67.8299V68.5299ZM480.52 68.6999L479.82 68.6499V67.9499L480.52 67.9999V68.6999Z" fill="#C5D43B"/>
<path d="M480.8 60.7399V59.6299L482.69 59.7599V57.7799L478.95 54.6599L475.1 57.2499V59.2299L477.06 59.3699V60.5399L474.92 61.9499L475.27 62.4499L477.06 61.2699V62.3399L477.65 62.3799V61.0199L480.21 61.1999V62.5599L480.8 62.5999V61.4999L482.5 62.9599L482.87 62.5199L480.8 60.7399ZM477.07 58.2199V57.4999L477.79 57.5499V58.2699L477.07 58.2199ZM480.21 60.6199L477.65 60.4399V59.4099L480.21 59.5899V60.6199ZM480.78 58.4799L480.06 58.4299V57.7099L480.78 57.7599V58.4799Z" fill="#29C3E5"/>
<path d="M481.79 52.1999L480.5 50.3099L482.68 50.4599V48.0999L479.76 46.7399L477.89 46.6099L474.97 47.5599V49.9299L477.21 50.0899L475.92 51.7999L474.97 51.7299V52.3199L476.22 52.4099L477.69 50.4599L478.38 52.2599L479.26 52.3199L479.87 50.4199L481.48 52.7699L482.73 52.8599V52.2699L481.79 52.1999ZM478.01 49.0899L476.36 48.9699V48.3599L478.01 48.4799V49.0899ZM479.6 49.2099V48.5999L481.25 48.7199V49.3299L479.6 49.2099Z" fill="#B3AFAB"/>
<path d="M461.05 74.5299L459.88 74.6599L460.2 76.3899L459.45 76.4699L458.85 75.6899L459.31 74.1099L458.73 73.9199L458.26 75.5399L455.4 75.8599C455.2 75.4999 454.9 74.9299 454.64 74.4199L454.11 74.6499C454.52 75.4699 454.78 75.9599 454.96 76.2599L454.66 77.0099L453.69 77.1199L453.37 75.3899L452.2 75.5199L452.7 78.2599L454.52 79.5599L454.01 81.1899L454.58 81.3999L455.14 79.6199L456.13 79.5099L458.69 79.2199L459.67 79.1099L460.82 80.4599L461.27 80.0999L460.26 78.9099L461.54 77.2699L461.05 74.5299ZM456.34 77.5299L455.65 77.6099L455.52 76.9199L456.21 76.8399L456.34 77.5299ZM458.81 77.2499L458.12 77.3299L457.99 76.6399L458.68 76.5599L458.81 77.2499Z" fill="#C5D43B"/>
<path d="M459.485 88.1185L458.708 88.2612L458.889 89.2447L459.666 89.102L459.485 88.1185Z" fill="#C5D43B"/>
<path d="M458.431 86.6499L458.131 85.0299L458.911 84.8899L459.211 86.5099L458.431 86.6499ZM457.841 83.4099L457.541 81.7899L458.321 81.6499L458.621 83.2699L457.841 83.4099Z" fill="#C5D43B"/>
<path d="M457.834 79.066L457.057 79.208L457.237 80.1917L458.014 80.0497L457.834 79.066Z" fill="#C5D43B"/>
<path d="M477.38 82.8098L477.7 81.7798L479.5 82.4598L480.08 80.6098L477.34 76.5898L472.82 77.8798L472.24 79.7299L474.12 80.4298L473.78 81.5298L471.28 82.2198L471.47 82.7898L473.56 82.2098L473.25 83.2098L473.82 83.4198L474.22 82.1498L476.67 83.0698L476.27 84.3398L476.84 84.5499L477.17 83.5098L478.41 85.3798L478.9 85.0798L477.38 82.8098ZM474.47 79.3598L474.68 78.6898L475.36 78.9498L475.15 79.6199L474.47 79.3598ZM476.83 82.5298L474.38 81.6098L474.68 80.6498L477.13 81.5698L476.83 82.5298ZM478.02 80.6898L477.34 80.4298L477.55 79.7598L478.23 80.0198L478.02 80.6898Z" fill="#29C3E5"/>
<path d="M472.004 91.2553L471.667 92.1968L472.411 92.463L472.748 91.5215L472.004 91.2553Z" fill="#29C3E5"/>
<path d="M473.25 90.0499L472.51 89.7799L473.03 88.3199L473.77 88.5899L473.25 90.0499ZM474.3 87.1299L473.56 86.8599L474.08 85.3999L474.82 85.6699L474.3 87.1299Z" fill="#29C3E5"/>
<path d="M474.95 83.0067L474.613 83.9482L475.357 84.2145L475.694 83.273L474.95 83.0067Z" fill="#29C3E5"/>
<path d="M415.94 116.02V117.32C415.94 117.77 416.25 118.15 416.67 118.23L461.16 127.32C462.22 127.51 464.32 127.68 465.41 127.67L558.78 128.39C558.99 128.39 559.16 128.27 559.16 128.13V125.6C559.16 125.44 558.99 125.31 558.76 125.3L432 118.04L415.94 116.02Z" fill="#9C9894"/>
<path d="M416.11 116.06L461.79 124.35C463.27 124.6 464.79 124.71 466.31 124.7L558.88 125.31L514.61 117.86L416.11 116.06Z" fill="#CCCAC7"/>
<path d="M456.19 96.4099L285.18 90.4499C281.16 90.3099 277.88 93.7999 277.88 98.2399V223.23V224.72V239.24C277.88 243.04 280.69 245.92 284.14 245.65L456.21 234.22C458.85 234.02 460.98 231.18 460.98 227.87V215.25L461.76 103.6C461.77 99.7299 459.28 96.5099 456.19 96.4099Z" fill="#B3AFAB"/>
<path d="M353.38 235.66L349.38 257.6C349 262.32 352.57 266.51 357.16 267.73L369.36 272.69C374.27 274.17 378.87 274.38 383.02 273.88L422.03 269.54C425.96 269.37 425.68 265.7 420.51 265.23L396.11 262.4C392.27 261.97 388.65 258.93 389.37 254.87L393.37 231.65L353.38 235.66Z" fill="#B2B2B2"/>
<path d="M463.55 215.24L464.33 103.59C464.33 99.7299 461.84 96.5099 458.76 96.4099L287.75 90.4499C283.73 90.3099 280.45 93.7999 280.45 98.2399V224.72C280.45 225.36 280.92 225.84 281.5 225.81L462.76 216.3C463.19 216.26 463.55 215.79 463.55 215.24Z" fill="#625F5B"/>
<path d="M280.44 223.22V239.24C280.44 243.05 283.25 245.92 286.7 245.65L458.77 234.22C461.41 234.02 463.54 231.18 463.54 227.87V213.95L280.44 223.22Z" fill="#DDDBDA"/>
<path d="M381.25 226.6C381.25 228.63 379.85 230.38 378.12 230.5C376.39 230.62 374.98 229.06 374.98 227.02C374.98 224.98 376.39 223.23 378.12 223.12C379.85 223.01 381.25 224.57 381.25 226.6Z" fill="#C8C6C4"/>
<path d="M455.84 207.47L289.55 214.8V101.89L456.63 106.35L455.84 207.47Z" fill="#3085E9"/>
<path d="M456.63 105.58L289.55 101.01V108.88L456.63 112.92V105.58Z" fill="#8DBCF4"/>
<path d="M424.83 199.46L327.07 203.15C326.26 203.19 325.6 203.97 325.6 204.89V212.6L426.1 208.09V200.95C426.1 200.09 425.53 199.43 424.83 199.46Z" fill="#0064DA"/>
<path d="M354.88 209.22L351.61 209.39C351.23 209.41 350.93 209.07 350.93 208.64V204.85C350.93 204.42 351.23 204.05 351.61 204.03L354.88 203.87C355.25 203.85 355.56 204.19 355.56 204.62V208.39C355.56 208.83 355.25 209.2 354.88 209.22Z" fill="#8DBCF4"/>
<path d="M345.92 207.11C345.92 208.68 344.81 210.02 343.43 210.09C342.05 210.16 340.93 208.94 340.93 207.36C340.93 205.78 342.05 204.44 343.43 204.38C344.81 204.31 345.92 205.53 345.92 207.11Z" fill="#8DBCF4"/>
<path d="M365.54 205.98C365.54 207.53 364.46 208.85 363.13 208.92C361.79 208.99 360.71 207.78 360.71 206.23C360.71 204.67 361.8 203.36 363.13 203.29C364.46 203.22 365.54 204.43 365.54 205.98Z" fill="#8DBCF4"/>
<path d="M375.46 205.62C375.46 207.16 374.4 208.46 373.08 208.53C371.76 208.6 370.69 207.4 370.69 205.86C370.69 204.31 371.76 203.01 373.08 202.95C374.39 202.88 375.46 204.08 375.46 205.62Z" fill="#8DBCF4"/>
<path d="M384.14 208.14L381.01 208.3C380.65 208.32 380.36 207.99 380.36 207.57V203.87C380.36 203.45 380.65 203.09 381.01 203.07L384.14 202.92C384.5 202.9 384.79 203.23 384.79 203.65V207.34C384.78 207.76 384.49 208.12 384.14 208.14Z" fill="#8DBCF4"/>
<path d="M402.38 207.29L399.34 207.45C398.99 207.47 398.71 207.14 398.71 206.73V203.08C398.71 202.66 398.99 202.31 399.34 202.29L402.38 202.14C402.73 202.12 403.01 202.45 403.01 202.86V206.5C403.01 206.92 402.73 207.27 402.38 207.29Z" fill="#8DBCF4"/>
<path d="M335.71 210.09L330.94 210.34V204.9L335.71 204.67V210.09Z" fill="#8DBCF4"/>
<path d="M421.13 206.12L418.17 206.27C417.83 206.29 417.56 205.97 417.56 205.56V201.96C417.56 201.55 417.83 201.2 418.17 201.19L421.13 201.05C421.47 201.03 421.74 201.35 421.74 201.76V205.35C421.74 205.75 421.46 206.1 421.13 206.12Z" fill="#8DBCF4"/>
<path d="M393.87 204.85C393.87 206.37 392.84 207.65 391.56 207.72C390.28 207.79 389.24 206.61 389.24 205.08C389.24 203.55 390.28 202.27 391.56 202.21C392.84 202.15 393.87 203.33 393.87 204.85Z" fill="#8DBCF4"/>
<path d="M412.61 204.2C412.61 205.7 411.61 206.96 410.36 207.03C409.12 207.1 408.11 205.93 408.11 204.43C408.11 202.93 409.12 201.66 410.36 201.6C411.61 201.53 412.61 202.7 412.61 204.2Z" fill="#8DBCF4"/>
<path d="M310.65 198.11V116.04L438.79 118.69V192.07L310.65 198.11ZM312.65 118.09V196.02L436.79 190.16V120.65L312.65 118.09Z" fill="white"/>
<path d="M379.62 118.18H377.62V193.71H379.62V118.18Z" fill="white"/>
<path d="M316.37 135.3H314.37V148.14H316.37V135.3Z" fill="white"/>
<path d="M435.06 155.76H433.06V168.04H435.06V155.76Z" fill="white"/>
<path d="M352.64 126.15C352.65 124.84 353.07 123.82 353.9 123.11C354.67 122.41 355.6 122.06 356.67 122.06C357.78 122.06 358.72 122.41 359.49 123.11C360.28 123.82 360.68 124.83 360.71 126.15V132.43C360.68 133.74 360.28 134.75 359.49 135.46C358.72 136.16 357.77 136.52 356.67 136.53C355.6 136.52 354.67 136.16 353.9 135.46C353.07 134.75 352.65 133.74 352.64 132.43V126.15ZM358.67 126.28C358.63 124.85 357.96 124.13 356.67 124.1C355.37 124.13 354.7 124.85 354.68 126.28V132.32C354.71 133.76 355.37 134.48 356.67 134.5C357.97 134.49 358.63 133.76 358.67 132.32V126.28Z" fill="white"/>
<path d="M362.98 126.15C362.99 124.84 363.41 123.82 364.24 123.11C365.01 122.41 365.94 122.06 367.01 122.06C368.12 122.06 369.06 122.41 369.83 123.11C370.62 123.82 371.02 124.83 371.05 126.15V132.43C371.02 133.74 370.62 134.75 369.83 135.46C369.06 136.16 368.11 136.52 367.01 136.53C365.94 136.52 365.01 136.16 364.24 135.46C363.41 134.75 362.99 133.74 362.98 132.43V126.15ZM369.02 126.28C368.98 124.85 368.31 124.13 367.02 124.1C365.72 124.13 365.05 124.85 365.03 126.28V132.32C365.06 133.76 365.72 134.48 367.02 134.5C368.32 134.49 368.98 133.76 369.02 132.32V126.28Z" fill="white"/>
<path d="M386.97 126.15C386.98 124.84 387.4 123.82 388.23 123.11C389 122.41 389.93 122.06 391 122.06C392.11 122.06 393.05 122.41 393.82 123.11C394.61 123.82 395.01 124.83 395.04 126.15V132.43C395.01 133.74 394.61 134.75 393.82 135.46C393.05 136.16 392.1 136.52 391 136.53C389.93 136.52 389 136.16 388.23 135.46C387.4 134.75 386.98 133.74 386.97 132.43V126.15ZM393 126.28C392.96 124.85 392.29 124.13 391 124.1C389.7 124.13 389.03 124.85 389.01 126.28V132.32C389.04 133.76 389.7 134.48 391 134.5C392.3 134.49 392.96 133.76 393 132.32V126.28Z" fill="white"/>
<path d="M397.01 134.49L402.57 127.54C402.78 127.26 402.93 127 403.01 126.76C403.06 126.53 403.09 126.32 403.09 126.12C403.09 125.59 402.92 125.12 402.59 124.72C402.25 124.32 401.76 124.12 401.13 124.1C400.57 124.1 400.1 124.28 399.73 124.64C399.35 125 399.12 125.5 399.05 126.15H397.02C397.07 124.96 397.47 123.99 398.21 123.21C398.96 122.45 399.88 122.07 400.97 122.06C402.19 122.07 403.19 122.46 403.95 123.23C404.72 123.99 405.12 124.96 405.13 126.13C405.13 127.07 404.84 127.9 404.27 128.63L399.69 134.37H405.13V136.41H397.01V134.49Z" fill="white"/>
<path d="M349.04 171.67L321.28 153.29L325.79 146.44L354.99 165.69L349.04 171.67Z" fill="url(#paint3_linear)"/>
<path d="M354.99 165.56H348.85V171.7H354.99V165.56Z" fill="white"/>
<path d="M293.69 188.69L261.08 176.47C257.66 175.51 254 174.43 250.57 175.34C235.24 179.43 243.65 194.05 178.43 182.17C153.22 177.58 139.88 212.55 163.55 228.68C179.92 239.84 189.47 239.72 198.28 240.53C207.09 241.34 293.69 188.69 293.69 188.69Z" fill="#42403C"/>
<path d="M185.63 186.73C246.25 195.11 243.18 177.67 258.25 175.72C254.92 174.79 253.9 174.47 250.57 175.35C235.24 179.44 243.65 194.06 178.43 182.18C153.22 177.59 139.88 212.56 163.55 228.69C165.89 230.28 168.07 231.63 170.15 232.8C147.34 216.48 160.47 183.25 185.63 186.73Z" fill="#797673"/>
<path d="M132.07 225.9C136.936 225.9 140.88 220.836 140.88 214.59C140.88 208.343 136.936 203.28 132.07 203.28C127.205 203.28 123.26 208.343 123.26 214.59C123.26 220.836 127.205 225.9 132.07 225.9Z" fill="#42403C"/>
<path d="M138.44 193.81C138.44 193.81 152.02 154.65 188.49 154.28C224.96 153.91 242.82 191.86 242.82 191.86L223.84 192.98C223.84 192.98 216.4 157.63 188.86 157.63C161.32 157.63 147.93 198.93 147.93 198.93L138.44 193.81Z" fill="#625F5B"/>
<path d="M177.19 219.74L132.67 203.76C131.41 203.31 130.58 202.12 130.58 200.79V195.22C130.58 193.04 132.74 191.51 134.8 192.25L179.32 208.23C180.58 208.68 181.41 209.87 181.41 211.2V216.77C181.41 218.95 179.25 220.48 177.19 219.74Z" fill="#625F5B"/>
<path d="M135.64 181.39C134.65 180.92 133.47 181.39 133.1 182.42C130.71 189.13 122.82 211.32 121.88 215.11C120.76 219.58 126.35 223.67 129.69 217.34C132.55 211.94 139.74 191.92 141.79 186.16C142.11 185.27 141.7 184.29 140.84 183.88L135.64 181.39Z" fill="#797673"/>
<path d="M288.7 235.05C249.36 241.46 217.22 241.31 202.44 240.73C197.53 240.54 193.66 236.51 193.66 231.59C193.67 223.11 193.67 210.1 193.67 200.58C193.67 195.25 198.12 191.04 203.45 191.27C241.18 192.9 273.29 189.55 288.33 187.55C293.22 186.9 297.57 190.65 297.65 195.58C297.78 203.41 297.9 214.83 297.73 224.63C297.64 229.82 293.83 234.21 288.7 235.05Z" fill="url(#paint4_radial)" stroke="#625F5B" stroke-width="3" stroke-miterlimit="10"/>
<path d="M573.48 177.93L537.62 178.92C535.13 178.9 533.11 176.88 533.11 174.39V97.0899C533.11 94.5099 535.25 92.4599 537.83 92.5599L573.69 94.0099C576.12 94.1099 578.04 96.1099 578.04 98.5399V173.41C578.04 175.91 576 177.94 573.48 177.93Z" fill="#605D5A"/>
<path d="M572.651 174.82L538.481 175.82C537.131 175.81 536.041 174.72 536.041 173.37V97.9499C536.041 96.5599 537.201 95.4399 538.591 95.4999L572.761 96.8799C574.071 96.9299 575.111 98.0099 575.111 99.3299V172.37C575.111 173.73 574.011 174.83 572.651 174.82Z" fill="#3E8EED"/>
<path d="M575.111 104.69V99.3299C575.111 98.0099 574.071 96.9299 572.761 96.8799L538.591 95.4999C537.201 95.4399 536.041 96.5599 536.041 97.9499V103.31L575.111 104.69Z" fill="#4A4844"/>
<path d="M536.34 147.09V149.62L556.17 132.38L575.13 148.37V145.64L556.14 129.75L536.34 147.09Z" fill="#8DBCF4"/>
<path d="M541.11 121.86H539.11V130.51H541.11V127L554.06 127.09L554.07 125.09L541.11 125V121.86Z" fill="#8DBCF4"/>
<path d="M571.11 121.86V125.17L558.16 125.09L558.15 127.09L571.11 127.17V130.51H573.11V121.86H571.11Z" fill="#8DBCF4"/>
<path d="M557.11 122H555.11V119.84H557.11V122ZM557.11 117.68H555.11V115.52H557.11V117.68ZM557.11 113.36H555.11V111.2H557.11V113.36Z" fill="#C5D43B"/>
<path d="M557.2 154.88H555.2V152.88H557.2V154.88ZM557.2 150.88H555.2V148.88H557.2V150.88ZM557.2 146.88H555.2V144.88H557.2V146.88ZM557.2 142.88H555.2V140.88H557.2V142.88ZM557.2 138.88H555.2V136.88H557.2V138.88Z" fill="#C5D43B"/>
<path d="M566.171 164.8L563.641 168.79L548.761 169.16L545.771 165.22L536.041 165.42V173.37C536.041 174.72 537.131 175.81 538.481 175.82L572.651 174.82C574.011 174.83 575.121 173.73 575.121 172.37V164.63L566.171 164.8Z" fill="#C5D43B"/>
<path d="M559.641 167.2L553.041 167.39L555.421 159.36L557.131 159.3L559.641 167.2Z" fill="#4A4844"/>
<path d="M547.18 114.93L539.55 114.65V107.02L547.18 107.3V114.93Z" fill="#4A4844"/>
<path d="M541.97 172.75C543.13 172.75 544.07 171.81 544.07 170.65C544.07 169.49 543.13 168.55 541.97 168.55C540.81 168.55 539.87 169.49 539.87 170.65C539.87 171.81 540.81 172.75 541.97 172.75Z" fill="white"/>
<path d="M561.951 120.89C563.11 120.89 564.051 119.95 564.051 118.79C564.051 117.63 563.11 116.69 561.951 116.69C560.791 116.69 559.851 117.63 559.851 118.79C559.851 119.95 560.791 120.89 561.951 120.89Z" fill="white"/>
<path d="M189.63 88.4199C180.76 91.0899 178.9 94.9099 176.11 101.01C173.32 107.11 165.69 127.42 168.11 136.96C169.91 144.05 178.34 144.98 182.25 144.78C186.16 144.58 189.63 88.4199 189.63 88.4199Z" fill="#42403C"/>
<path d="M248.89 88.5498C247.02 87.7498 242.61 85.8598 238.06 85.5398C236 85.3898 233.19 87.3098 231.59 87.2998C230.59 87.2998 209.66 87.2198 208.61 87.2198C206.91 87.2098 203.86 85.2098 201.64 85.3398C196.65 85.6198 191.74 87.5898 189.63 88.4298C188.28 88.9698 187.02 90.9198 185.12 94.6898L252.91 94.3698C251.2 90.8798 250.08 89.0598 248.89 88.5498Z" fill="#E6E4E3"/>
<path d="M255.4 96.4099C254.03 93.3499 253.13 92.7099 251.45 91.6599C249.76 90.6099 242.03 88.5199 239.38 87.8799C236.7 87.2299 234.7 88.5099 233.35 88.4999C232.51 88.4999 228.02 88.4899 223.71 88.4799C222.13 88.4799 219.53 88.4699 216.83 88.4699C212.41 88.4599 207.7 88.4499 206.82 88.4499C205.38 88.4499 203.2 87.1099 200.3 87.7699C197.39 88.4299 188.72 90.6399 186.8 91.7699C184.87 92.8999 183.83 93.5999 182.3 96.9399C181.17 99.3899 171.41 120.53 171.87 132.38C172.33 144.14 180.36 144.78 182.86 144.75C185.35 144.72 190.56 138.35 195.74 132.87C200.88 127.44 205.28 128.1 209.24 127.93C209.7 127.91 210.24 127.89 210.85 127.86C215.43 127.67 223.8 127.31 230.36 127.03C230.94 127.01 231.46 126.98 231.89 126.97C235.61 126.81 239.66 125.83 244.42 130.57C249.11 135.24 253.73 140.64 255.85 140.4C257.95 140.16 264.55 138.77 264.7 128.16C264.85 117.47 256.41 98.6499 255.4 96.4099Z" fill="#6D6A66"/>
<path d="M242.98 127.57C240.7 125.71 237.77 125.56 234.94 125.68C233.93 125.72 207.25 126.82 206.18 126.86C203.13 126.99 201.48 127.93 199 130.09C201.7 128.32 205.29 128.1 209.24 127.93C209.7 127.91 228.6 127.39 229.03 127.38C232.75 127.22 236.8 126.24 241.56 130.98C246.25 135.65 251.19 141.08 255.85 140.4C256.23 140.36 256.75 140.28 257.35 140.11C253.19 136.45 244.7 128.98 242.98 127.57Z" fill="#42403C"/>
<path d="M202.55 101.46C202.61 104.93 199.57 107.79 195.74 107.87C191.87 107.95 188.65 105.16 188.58 101.64C188.5 98.1097 191.62 95.2297 195.5 95.1997C199.35 95.1697 202.5 97.9797 202.55 101.46Z" fill="#42403C"/>
<path d="M200.21 101.49C200.25 103.79 198.23 105.68 195.69 105.73C193.14 105.77 191.02 103.93 190.97 101.61C190.92 99.2797 192.97 97.3797 195.53 97.3597C198.09 97.3297 200.17 99.1797 200.21 101.49Z" fill="#605D5A"/>
<path d="M215.36 114.6C215.41 118.39 212.11 121.57 207.96 121.71C203.77 121.86 200.29 118.86 200.23 115.01C200.16 111.15 203.55 107.95 207.76 107.86C211.92 107.79 215.31 110.8 215.36 114.6Z" fill="#42403C"/>
<path d="M247.16 95.5897C247.16 97.2097 245.8 98.5397 244.11 98.5597C242.41 98.5797 241.02 97.2697 241.02 95.6297C241.01 93.9897 242.39 92.6597 244.1 92.6597C245.78 92.6497 247.15 93.9697 247.16 95.5897Z" fill="#908D89"/>
<path d="M247.18 106.24C247.18 107.85 245.82 109.19 244.14 109.22C242.45 109.26 241.06 107.97 241.06 106.35C241.05 104.73 242.43 103.39 244.12 103.36C245.81 103.34 247.17 104.63 247.18 106.24Z" fill="#908D89"/>
<path d="M249.65 103.81C247.98 103.84 246.61 102.55 246.61 100.93C246.61 99.3097 247.97 97.9797 249.65 97.9697C251.32 97.9497 252.67 99.2497 252.67 100.86C252.67 102.46 251.32 103.79 249.65 103.81Z" fill="#908D89"/>
<path d="M238.51 103.99C236.79 104.02 235.39 102.71 235.38 101.07C235.37 99.4298 236.76 98.0898 238.48 98.0698C240.19 98.0498 241.58 99.3598 241.59 100.99C241.6 102.62 240.23 103.96 238.51 103.99Z" fill="#908D89"/>
<path d="M237.6 113.34C237.61 115.98 235.36 118.2 232.54 118.29C229.71 118.38 227.38 116.29 227.36 113.61C227.34 110.93 229.64 108.7 232.48 108.64C235.3 108.59 237.58 110.69 237.6 113.34Z" fill="#42403C"/>
<path d="M239.38 87.8799C236.7 87.2299 234.7 88.5099 233.35 88.4999C232.51 88.4999 228.02 88.4899 223.71 88.4799C222.13 88.4799 219.53 88.4699 216.83 88.4699C212.41 88.4599 207.7 88.4499 206.82 88.4499C205.38 88.4499 203.2 87.1099 200.3 87.7699C199.6 87.9299 198.57 88.1799 197.39 88.4799C199.57 87.9499 201.49 87.9699 203.6 89.9799C205.11 91.4099 208.82 94.6999 210.79 96.4399C211.62 97.1699 212.72 97.5699 213.86 97.5599L218.45 97.5199L222.42 97.4899L226.92 97.4499C228.02 97.4399 229.07 97.0299 229.86 96.2999C231.71 94.5799 235.13 91.3699 236.51 89.9899C238.18 88.3099 239.73 88.0799 241.41 88.3999C240.6 88.1799 239.9 87.9999 239.38 87.8799Z" fill="url(#paint5_radial)"/>
<path d="M213.22 112.5L210.07 112.58L210.03 109.61C210.03 109.26 209.71 108.98 209.33 108.99L206.22 109.06C205.84 109.07 205.53 109.36 205.53 109.71L205.58 112.69L202.38 112.77C201.95 112.78 201.61 113.1 201.62 113.49L201.67 116.22C201.68 116.61 202.03 116.91 202.45 116.9L205.65 116.8L205.7 119.77C205.71 120.12 206.02 120.39 206.4 120.38L209.5 120.28C209.88 120.27 210.18 119.98 210.18 119.63L210.14 116.68L213.29 116.59C213.71 116.58 214.04 116.26 214.03 115.88L214 113.18C213.97 112.79 213.63 112.49 213.22 112.5Z" fill="#605D5A"/>
<path d="M224.06 93.2098C224.08 95.0898 222.47 96.6198 220.46 96.6298C218.44 96.6398 216.78 95.1198 216.75 93.2298C216.73 91.3298 218.36 89.7998 220.38 89.7998C222.4 89.7998 224.04 91.3298 224.06 93.2098Z" fill="#E1DFDD"/>
<defs>
<linearGradient id="paint0_linear" x1="465.051" y1="100.339" x2="467.145" y2="100.486" gradientUnits="userSpaceOnUse">
<stop offset="0.5634" stop-color="#F7B548"/>
<stop offset="1" stop-color="#FCCF84"/>
</linearGradient>
<linearGradient id="paint1_linear" x1="465.64" y1="92.9859" x2="467.651" y2="93.1266" gradientUnits="userSpaceOnUse">
<stop offset="0.5634" stop-color="#F7B548"/>
<stop offset="1" stop-color="#FCCF84"/>
</linearGradient>
<linearGradient id="paint2_linear" x1="466.08" y1="85.6222" x2="468.174" y2="85.7686" gradientUnits="userSpaceOnUse">
<stop offset="0.5634" stop-color="#F7B548"/>
<stop offset="1" stop-color="#FCCF84"/>
</linearGradient>
<linearGradient id="paint3_linear" x1="323.528" y1="149.927" x2="352.733" y2="169.173" gradientUnits="userSpaceOnUse">
<stop offset="0.000992064" stop-color="#8DBCF4" stop-opacity="0"/>
<stop offset="1" stop-color="#8DBCF4"/>
</linearGradient>
<radialGradient id="paint4_radial" cx="0" cy="0" r="1" gradientUnits="userSpaceOnUse" gradientTransform="translate(255.627 185.922) scale(67.7086)">
<stop offset="0.1295" stop-color="#908D89"/>
<stop offset="0.8192" stop-color="#464440"/>
</radialGradient>
<radialGradient id="paint5_radial" cx="0" cy="0" r="1" gradientUnits="userSpaceOnUse" gradientTransform="translate(219.268 83.1667) rotate(-3.99847) scale(26.0725 25.9457)">
<stop offset="0.1617" stop-color="#777471"/>
<stop offset="0.9865" stop-color="#33312D"/>
</radialGradient>
</defs>
</svg>
