<svg width="636" height="300" viewBox="0 0 636 300" fill="none" xmlns="http://www.w3.org/2000/svg">
<path d="M362.51 150.72L362.85 163.97L222.1 164.31L220.74 147.66L362.51 150.72Z" fill="#0064DA"/>
<path d="M413.98 164.75L406.7 161.94L391.95 94.91C391.49 92.64 390.24 90.63 388.17 89.35C387.02 88.64 385.95 88.55 384.86 88.5C383.37 88.37 380.27 88.25 377.58 88.08C375.54 87.96 365.38 146.61 365.38 148.19V221.41C365.38 222.34 365.95 223.18 366.82 223.51C366.82 223.51 405.89 241.59 406.21 241.57C408.58 241.46 411.1 241.27 412.97 241.11C414.1 241.03 415.07 240.11 415.07 238.87L415.41 166.84C415.42 165.92 414.85 165.08 413.98 164.75Z" fill="#3E8EED"/>
<path d="M406.86 165.44C406.86 165.44 403.87 164.04 399.55 162.02L385.18 94.9C384.72 92.63 383.18 90.47 381.11 89.19C377.39 86.9 373.4 88.25 372.84 92L364.56 148.83C362.6 148.96 360.85 149.12 360.64 149.14C359.54 149.24 358.61 150.16 358.61 151.38V221.85C358.61 222.78 359.18 223.62 360.05 223.95L405.24 241.42C406.72 241.99 408.3 240.9 408.3 239.32V167.53C408.3 166.61 407.72 165.78 406.86 165.44Z" fill="#0064DA"/>
<path d="M224.71 145.98L225.41 149.16C278.7 150.11 359.7 151.54 361.41 151.48C363.96 151.39 364.55 148.76 364.55 148.76L224.71 145.98Z" fill="#76AFF2"/>
<path d="M373.76 109.53L199.32 101.76V90.5398L373.82 99.4598C376.61 99.5998 377.62 102.73 377.64 104.82C377.66 106.91 376.45 109.65 373.76 109.53Z" fill="#3E8EED"/>
<path d="M312.1 127.41L318.84 127.58C322.4 127.67 325.21 130.62 325.13 134.18L322.64 235.8C322.55 239.36 319.6 242.17 316.04 242.09L309.3 241.92C305.74 241.83 302.93 238.88 303.01 235.32L305.5 133.7C305.59 130.14 308.54 127.32 312.1 127.41Z" fill="#797672"/>
<path d="M306.87 77.94L326.5 78.42C326.5 78.42 326.56 75.87 326.69 70.77C326.82 65.67 331.71 63.75 336.55 63.87C341.39 63.99 344.87 67.65 344.87 67.65L345.3 50.06C345.3 50.06 342.15 53.81 337.05 53.68C331.95 53.55 328.27 47.6 328.27 47.6C328.27 47.6 314.51 47.26 306.86 47.07C277.04 46.34 271.32 81.65 271.32 81.65L275.39 82.26C275.39 82.26 287.91 60.38 298.37 60.63C308.83 60.88 306.87 77.94 306.87 77.94Z" fill="#797672"/>
<path d="M347.23 69.24L354.66 69.42C355.99 69.45 357.09 68.4 357.12 67.08L357.5 51.49C357.53 50.16 356.48 49.06 355.16 49.03L347.73 48.85C346.4 48.82 345.3 49.87 345.27 51.19L344.89 66.78C344.86 68.11 345.91 69.21 347.23 69.24Z" fill="#797672"/>
<path d="M305.255 143.72L324.88 144.2L326.491 78.4302L306.867 77.9492L305.255 143.72Z" fill="#F7B548"/>
<path d="M327.51 47.5901C327.99 47.6001 328.27 47.6101 328.27 47.6101C328.27 47.6101 331.95 53.5701 337.05 53.6901C342.15 53.8201 345.3 50.0701 345.3 50.0701L344.87 67.6601C344.87 67.6601 341.39 64.0001 336.55 63.8801C332.36 63.7801 328.13 65.2101 326.99 68.9001L327.51 47.5901Z" fill="#56534F"/>
<path d="M231.35 78.3199L220.98 60.4199C220.67 59.8899 219.91 59.8899 219.6 60.4299C217.99 63.1899 214.64 71.0599 218.86 83.7399C219.37 85.3099 231.35 78.3199 231.35 78.3199Z" fill="#C4C1BE"/>
<path d="M216.43 84.0499C221.42 81.0999 238.35 71.0699 241.23 69.1799C244.61 66.9499 244.47 66.1499 243.5 64.1799C242.69 62.5199 237.28 53.8799 235.57 51.1499C235.32 50.7499 235.58 50.2299 236.05 50.1899C238.86 49.9599 247.16 50.2599 254.86 60.3299C262.25 69.9799 255.07 83.4999 251.98 89.2199C249.14 94.4699 248.05 98.8799 248.75 102.45L274.48 188.93C275.89 193.67 273.68 198.94 269.1 200.79C263.84 202.92 258.02 200.03 256.44 194.72L230.47 107.41C227.26 97.7299 219.18 88.9799 216.19 85.9799C215.61 85.3999 215.73 84.4599 216.43 84.0499Z" fill="#B3AFAB"/>
<path d="M225.97 87.3398L233.08 98.9798C233.65 99.9098 234.86 100.2 235.8 99.6398L242.07 95.8098C243 95.2398 243.29 94.0298 242.73 93.0898L235.62 81.4498C235.05 80.5198 233.84 80.2298 232.9 80.7898L226.63 84.6198C225.7 85.1898 225.4 86.3998 225.97 87.3398Z" fill="#797672"/>
<path d="M227.388 89.6499L231.674 96.6641L241.307 90.7775L237.021 83.7633L227.388 89.6499Z" fill="#DDDBDA"/>
<path d="M269.61 53.1299L264.72 40.6999L264.71 40.6599L259.32 41.3399L257.67 54.6499C257.67 54.6499 261.12 60.2799 262.61 67.3899L269.79 124.31L275.18 123.63L267.98 66.5499C267.69 59.3499 269.61 53.1299 269.61 53.1299Z" fill="#CCCAC7"/>
<path d="M283.39 138.22C278.67 135.53 277.62 130.58 282.2 127.14L263.84 129.46C269.13 131.66 269.23 136.78 265.33 140.56C264.83 141.03 283.98 138.56 283.39 138.22Z" fill="#CC5444"/>
<path d="M281.03 127.51L265.04 129.53C264.11 129.65 263.26 128.99 263.14 128.06L262.56 123.46C262.44 122.53 263.1 121.68 264.04 121.56L280.03 119.54C280.96 119.42 281.81 120.08 281.93 121.01L282.51 125.61C282.62 126.54 281.96 127.39 281.03 127.51Z" fill="#E86E58"/>
<path d="M264.86 141.66L270.76 188.42C271.26 192.39 274.88 195.2 278.85 194.7L283.84 194.07C287.81 193.57 290.62 189.95 290.12 185.98L284.22 139.22C284.14 138.58 283.55 138.12 282.91 138.21L265.87 140.36C265.23 140.43 264.78 141.02 264.86 141.66Z" fill="#E86E58"/>
<path d="M276.78 188.28C275.78 188.41 274.87 187.7 274.74 186.7L270.04 149.44C269.91 148.44 270.62 147.53 271.62 147.4C272.62 147.27 273.53 147.98 273.66 148.98L278.36 186.24C278.49 187.24 277.79 188.15 276.78 188.28Z" fill="#CC5444"/>
<path d="M284.64 187.29C283.64 187.42 282.73 186.71 282.6 185.71L277.9 148.45C277.77 147.45 278.48 146.54 279.48 146.41C280.48 146.28 281.39 146.99 281.52 147.99L286.22 185.25C286.35 186.25 285.64 187.16 284.64 187.29Z" fill="#CC5444"/>
<path d="M234.08 251.23C234.08 251.23 403.86 241.69 406.3 241.62C408.04 241.57 408.49 240.01 408.49 239.02C408.49 236.47 408.46 170.7 408.46 168.4C408.46 166.1 407.73 165.83 406.32 165.13C404.28 164.11 399.82 162.16 399.82 162.16L226.6 161.65L234.08 251.23Z" fill="#549BEF"/>
<path d="M407.02 165.47C405.22 164.55 399.57 162.02 399.57 162.02L226.52 161.6L226.77 164.58C251.43 164.89 373.62 165.35 407.02 165.47Z" fill="#76AFF2"/>
<path d="M236.22 164.63L228.11 161.49L212.05 88.07C211.54 85.54 209.82 83.13 207.51 81.71C206.22 80.92 204.92 80.56 203.7 80.51C201.98 80.5 199.2 80.47 196.02 80.47C193.74 80.47 182.42 145.73 182.42 147.5V229.15C182.42 230.19 183.06 231.12 184.03 231.49C184.03 231.49 227.6 251.65 227.96 251.63C230.6 251.51 233.41 251.3 235.5 251.12C236.76 251.03 237.84 250 237.84 248.63V166.98C237.82 165.93 237.18 165 236.22 164.63Z" fill="#3E8EED"/>
<path d="M228.65 165.14C228.65 165.14 225.32 163.58 220.5 161.33L204.48 88.0799C203.97 85.5499 202.25 83.1399 199.94 81.7199C195.79 79.1599 191.35 80.6699 190.72 84.8599L182.27 145.14C180.09 145.29 177.35 145.5 177.12 145.52C175.89 145.63 174.85 146.66 174.85 148.01V229.66C174.85 230.7 175.49 231.63 176.46 232L226.85 251.48C228.5 252.12 230.27 250.9 230.27 249.14V167.49C230.26 166.44 229.62 165.51 228.65 165.14Z" fill="#0064DA"/>
<path d="M353.66 258L353.53 126.4C353.53 124.42 355.15 122.8 357.14 122.78L448.27 123.97C450.07 123.96 451.52 125.47 451.51 127.34L450.87 251.84C450.86 253.69 449.41 255.31 447.62 255.45L357.24 261.22C355.27 261.4 353.66 259.95 353.66 258Z" fill="#625F5B"/>
<path d="M362.05 249.92L362 133.83C362 133.21 362.51 132.69 363.13 132.69L442.77 133.54C443.34 133.53 443.8 134.01 443.8 134.6L443.29 245.39C443.29 245.98 442.82 246.49 442.26 246.53L363.17 250.95C362.56 251 362.05 250.54 362.05 249.92Z" fill="#28C2D1"/>
<path d="M367.99 243.8L367.98 152.44C367.98 151.82 368.48 151.31 369.1 151.29L437.2 149.69C437.78 149.68 438.24 150.15 438.24 150.74L437.86 239.57C437.86 240.16 437.39 240.67 436.82 240.71L369.1 244.82C368.49 244.87 367.99 244.41 367.99 243.8Z" fill="white"/>
<path d="M423.03 144.95L413.18 145.15C412.24 145.17 411.81 144.52 411.81 143.76C411.82 139.67 408.43 136.45 404.39 136.52C400.36 136.58 396.88 139.88 396.88 143.95C396.88 144.63 396.72 145.49 395.39 145.51L385.03 145.72C383.88 145.74 382.95 146.7 382.94 147.86L382.93 155.92C382.93 157.08 383.86 157.99 385.01 157.96L422.99 156.92C424.09 156.89 424.98 155.95 424.99 154.82L425.02 146.95C425.02 145.83 424.14 144.93 423.03 144.95ZM404.38 141.06C406.05 141.03 407.39 142.38 407.39 144.07C407.39 145.76 406.04 147.17 404.37 147.2C402.7 147.24 401.35 145.89 401.35 144.19C401.35 142.5 402.71 141.09 404.38 141.06Z" fill="#FDD696"/>
<path d="M382.93 154.43V155.94C382.93 157.1 383.86 158.01 385.01 157.98L422.99 156.94C424.09 156.91 424.98 155.97 424.99 154.84L425 153.36L382.93 154.43Z" fill="#F7B548"/>
<path d="M412.65 173.53L376.83 173.78V170.66L412.66 170.48L412.65 173.53Z" fill="#C4C1BE"/>
<path d="M412.61 186.56L376.83 187.33V184.22L412.62 183.51L412.61 186.56Z" fill="#C4C1BE"/>
<path d="M412.58 199.75L376.82 200.86V197.76L412.58 196.71V199.75Z" fill="#C4C1BE"/>
<path d="M412.54 212.93L376.81 214.37L376.82 211.28L412.55 209.89L412.54 212.93Z" fill="#C4C1BE"/>
<path d="M412.5 225.88L376.81 227.86V224.77L412.51 222.85L412.5 225.88Z" fill="#C4C1BE"/>
<path d="M449.29 188.21C449.28 189.51 448.27 190.61 447.02 190.67C445.77 190.73 444.76 189.72 444.76 188.42C444.77 187.12 445.79 186.01 447.04 185.96C448.29 185.9 449.3 186.91 449.29 188.21Z" fill="#84817D"/>
<path d="M430.23 170.33C430.22 172.73 428.32 174.75 425.98 174.84C423.63 174.93 421.73 173.04 421.74 170.62C421.75 168.2 423.66 166.18 426.01 166.1C428.36 166.04 430.24 167.93 430.23 170.33Z" fill="#549BEF"/>
<path d="M430.18 183.43C430.17 185.83 428.27 187.86 425.94 187.97C423.6 188.08 421.7 186.21 421.71 183.79C421.72 181.38 423.63 179.34 425.97 179.25C428.31 179.15 430.19 181.02 430.18 183.43Z" fill="#C4C1BE"/>
<path d="M430.13 196.5C430.12 198.9 428.22 200.94 425.89 201.06C423.55 201.18 421.65 199.33 421.66 196.92C421.67 194.51 423.58 192.47 425.92 192.36C428.26 192.25 430.14 194.1 430.13 196.5Z" fill="#549BEF"/>
<path d="M430.08 209.55C430.07 211.94 428.18 214 425.84 214.13C423.5 214.27 421.6 212.43 421.61 210.03C421.62 207.62 423.53 205.57 425.87 205.44C428.21 205.32 430.09 207.15 430.08 209.55Z" fill="#C4C1BE"/>
<path d="M430.04 222.58C430.03 224.97 428.14 227.03 425.81 227.19C423.47 227.35 421.58 225.53 421.59 223.13C421.6 220.73 423.51 218.66 425.84 218.52C428.16 218.37 430.04 220.19 430.04 222.58Z" fill="#C4C1BE"/>
<path d="M462.81 156.72L441.51 186.77L432.59 180.17L454.09 150.02L462.81 156.72Z" fill="#F7B548"/>
<path d="M441.51 186.77L430.7 192.02L432.59 180.17L441.51 186.77Z" fill="#C4C1BE"/>
<path d="M436.02 189.44L430.7 192.02L431.63 186.2L436.02 189.44Z" fill="#797673"/>
<path d="M462.86 156.65L441.51 186.77L438.08 184.23L459.51 154.07L462.86 156.65Z" fill="#F7B548"/>
<path d="M453.97 150.19L458.01 144.53C458.65 143.63 459.86 143.43 460.7 144.08L466.33 148.45C467.16 149.1 467.32 150.35 466.69 151.25L462.69 156.89L453.97 150.19Z" fill="#E86E58"/>
</svg>
