<svg width="636" height="300" viewBox="0 0 636 300" fill="none" xmlns="http://www.w3.org/2000/svg">
<path d="M360.77 148.41L361.09 160.94L228.01 161.27L226.72 145.51L360.77 148.41Z" fill="#CC5444"/>
<path d="M409.44 161.67L402.56 159.01L388.62 95.6301C388.19 93.4901 387 91.5801 385.04 90.3801C383.95 89.7101 382.94 89.6201 381.91 89.5801C380.5 89.4601 377.57 89.3401 375.02 89.1901C373.09 89.0701 363.49 144.53 363.49 146.02V215.25C363.49 216.13 364.03 216.92 364.85 217.24C364.85 217.24 401.79 234.33 402.1 234.32C404.34 234.21 406.72 234.04 408.49 233.89C409.56 233.82 410.47 232.94 410.47 231.78L410.8 163.67C410.8 162.78 410.26 161.99 409.44 161.67Z" fill="#ED9583"/>
<path d="M402.7 162.33C402.7 162.33 399.88 161.01 395.79 159.1L382.2 95.64C381.77 93.5 380.31 91.45 378.35 90.24C374.83 88.07 371.06 89.35 370.53 92.9L362.7 146.64C360.85 146.77 359.19 146.92 359 146.94C357.96 147.04 357.08 147.91 357.08 149.05V215.68C357.08 216.56 357.62 217.35 358.44 217.67L401.17 234.19C402.57 234.73 404.07 233.7 404.07 232.2V164.32C404.06 163.44 403.52 162.65 402.7 162.33Z" fill="#D55D4B"/>
<path d="M230.48 143.93L231.14 146.94C281.53 147.84 358.12 149.19 359.73 149.14C362.14 149.06 362.7 146.57 362.7 146.57L230.48 143.93Z" fill="#ED9583"/>
<path d="M371.41 109.46L206.46 102.11V91.51L371.46 99.95C374.1 100.09 375.05 103.04 375.07 105.01C375.1 106.98 373.95 109.58 371.41 109.46Z" fill="#E86E58"/>
<path d="M313.11 126.37L319.48 126.53C322.85 126.61 325.51 129.41 325.42 132.77L323.06 228.85C322.98 232.22 320.18 234.88 316.82 234.79L310.45 234.63C307.08 234.55 304.42 231.75 304.51 228.39L306.87 132.31C306.95 128.95 309.74 126.29 313.11 126.37Z" fill="#797672"/>
<path d="M308.16 79.6L326.72 80.06C326.72 80.06 326.78 77.65 326.9 72.83C327.02 68.01 331.65 66.19 336.22 66.31C340.8 66.42 344.09 69.88 344.09 69.88L344.5 53.25C344.5 53.25 341.52 56.79 336.7 56.68C331.88 56.56 328.4 50.93 328.4 50.93C328.4 50.93 315.38 50.61 308.15 50.43C279.95 49.74 274.55 83.13 274.55 83.13L278.39 83.71C278.39 83.71 290.23 63.02 300.11 63.26C310 63.48 308.16 79.6 308.16 79.6Z" fill="#797672"/>
<path d="M346.33 71.37L353.36 71.54C354.61 71.57 355.66 70.58 355.69 69.32L356.05 54.58C356.08 53.33 355.09 52.28 353.83 52.25L346.8 52.08C345.55 52.05 344.5 53.04 344.47 54.3L344.11 69.04C344.08 70.3 345.07 71.34 346.33 71.37Z" fill="#797672"/>
<path d="M306.633 141.794L325.187 142.249L326.711 80.0674L308.156 79.6127L306.633 141.794Z" fill="#F7B548"/>
<path d="M327.68 50.8899C328.13 50.8999 328.4 50.9099 328.4 50.9099C328.4 50.9099 331.88 56.5399 336.7 56.6599C341.52 56.7799 344.5 53.2299 344.5 53.2299L344.09 69.8599C344.09 69.8599 340.8 66.3999 336.22 66.2899C332.25 66.1899 328.26 67.5499 327.18 71.0399L327.68 50.8899Z" fill="#56534F"/>
<path d="M236.75 79.96L226.94 63.03C226.65 62.53 225.93 62.53 225.63 63.04C224.11 65.65 220.94 73.09 224.93 85.08C225.43 86.57 236.75 79.96 236.75 79.96Z" fill="#1572E0"/>
<path d="M222.64 85.3701C227.36 82.5801 243.37 73.1001 246.09 71.3101C249.29 69.2001 249.15 68.4401 248.24 66.5801C247.48 65.0101 242.36 56.8401 240.74 54.2601C240.5 53.8801 240.75 53.3901 241.19 53.3501C243.85 53.1301 251.7 53.4201 258.98 62.9301C265.96 72.0601 259.18 84.8401 256.26 90.2401C253.57 95.2101 252.54 99.3801 253.2 102.75L277.53 184.52C278.86 189 276.78 193.98 272.44 195.74C267.47 197.75 261.96 195.02 260.47 190L235.91 107.44C232.87 98.2901 225.24 90.0201 222.41 87.1801C221.87 86.6501 221.99 85.7601 222.64 85.3701Z" fill="#6BA8F1"/>
<path d="M231.67 88.48L238.4 99.49C238.94 100.37 240.09 100.65 240.97 100.11L246.89 96.49C247.77 95.95 248.05 94.8 247.51 93.92L240.78 82.91C240.24 82.03 239.09 81.75 238.21 82.29L232.29 85.91C231.41 86.45 231.13 87.6 231.67 88.48Z" fill="#56534F"/>
<path d="M233.017 90.6697L237.069 97.2998L246.182 91.7313L242.131 85.1011L233.017 90.6697Z" fill="#B3AFAB"/>
<path d="M272.93 56.1401L268.3 44.3801L268.29 44.3401L263.19 44.9801L261.63 57.5601C261.63 57.5601 264.89 62.8801 266.3 69.6101L273.09 123.43L278.19 122.79L271.38 68.8201C271.12 62.0201 272.93 56.1401 272.93 56.1401Z" fill="#CCCAC7"/>
<path d="M285.96 136.6C281.5 134.06 280.5 129.37 284.83 126.12L267.47 128.31C272.47 130.39 272.57 135.23 268.88 138.8C268.41 139.25 286.52 136.92 285.96 136.6Z" fill="#1572E0"/>
<path d="M283.73 126.47L268.61 128.38C267.73 128.49 266.92 127.87 266.81 126.99L266.26 122.64C266.15 121.76 266.77 120.95 267.65 120.84L282.77 118.93C283.65 118.82 284.46 119.44 284.57 120.32L285.12 124.67C285.23 125.55 284.61 126.35 283.73 126.47Z" fill="#3E8EED"/>
<path d="M268.44 139.84L274.02 184.05C274.49 187.8 277.92 190.46 281.67 189.99L286.39 189.39C290.14 188.92 292.8 185.49 292.33 181.74L286.75 137.53C286.67 136.92 286.12 136.49 285.51 136.57L269.4 138.6C268.79 138.68 268.36 139.24 268.44 139.84Z" fill="#3E8EED"/>
<path d="M279.72 183.93C278.77 184.05 277.91 183.38 277.79 182.43L273.34 147.2C273.22 146.25 273.89 145.39 274.84 145.27C275.79 145.15 276.65 145.82 276.77 146.77L281.22 182C281.33 182.94 280.66 183.81 279.72 183.93Z" fill="#1572E0"/>
<path d="M287.14 182.99C286.19 183.11 285.33 182.44 285.21 181.49L280.76 146.26C280.64 145.31 281.31 144.45 282.26 144.33C283.21 144.21 284.07 144.88 284.19 145.83L288.64 181.06C288.76 182 288.09 182.87 287.14 182.99Z" fill="#1572E0"/>
<path d="M239.34 243.45C239.34 243.45 399.87 234.43 402.18 234.37C403.83 234.32 404.25 232.85 404.25 231.91C404.25 229.5 404.22 167.31 404.22 165.14C404.22 162.97 403.53 162.71 402.2 162.05C400.27 161.09 396.05 159.24 396.05 159.24L232.26 158.76L239.34 243.45Z" fill="#E86E58"/>
<path d="M402.85 162.36C401.15 161.49 395.81 159.09 395.81 159.09L232.18 158.69L232.42 161.51C255.74 161.81 371.28 162.25 402.85 162.36Z" fill="#ED9583"/>
<path d="M241.36 161.56L233.69 158.59L218.5 89.18C218.02 86.79 216.39 84.51 214.2 83.16C212.98 82.41 211.75 82.07 210.6 82.02C208.97 82.01 206.35 81.98 203.34 81.98C201.18 81.98 190.48 143.69 190.48 145.36V222.56C190.48 223.54 191.08 224.42 192 224.78C192 224.78 233.2 243.84 233.54 243.82C236.04 243.7 238.7 243.51 240.67 243.34C241.86 243.26 242.88 242.28 242.88 240.98V163.78C242.87 162.8 242.27 161.92 241.36 161.56Z" fill="#ED9583"/>
<path d="M234.2 162.05C234.2 162.05 231.05 160.57 226.49 158.45L211.34 89.1802C210.86 86.7902 209.23 84.5102 207.04 83.1602C203.11 80.7402 198.92 82.1702 198.32 86.1302L190.33 143.13C188.26 143.27 185.68 143.47 185.46 143.49C184.3 143.6 183.32 144.57 183.32 145.85V223.05C183.32 224.03 183.92 224.91 184.84 225.27L232.49 243.69C234.05 244.29 235.72 243.14 235.72 241.47V164.27C235.72 163.28 235.12 162.4 234.2 162.05Z" fill="#D55D4B"/>
<path d="M351.99 250.27L351.87 125.84C351.87 123.97 353.4 122.43 355.28 122.42L441.45 123.54C443.15 123.53 444.52 124.95 444.51 126.73L443.91 244.45C443.9 246.2 442.53 247.73 440.84 247.87L355.38 253.33C353.51 253.48 351.99 252.11 351.99 250.27Z" fill="#625F5B"/>
<path d="M359.92 242.63L359.87 132.86C359.87 132.27 360.35 131.79 360.94 131.78L436.25 132.58C436.79 132.57 437.23 133.02 437.22 133.59L436.73 238.35C436.73 238.91 436.29 239.39 435.75 239.43L360.97 243.61C360.4 243.64 359.92 243.21 359.92 242.63Z" fill="#8DBCF4"/>
<path d="M365.54 236.84L365.53 150.45C365.53 149.86 366.01 149.38 366.59 149.36L430.98 147.84C431.52 147.83 431.96 148.27 431.96 148.84L431.6 232.83C431.6 233.39 431.16 233.87 430.62 233.91L366.59 237.8C366.01 237.85 365.54 237.42 365.54 236.84Z" fill="white"/>
<path d="M417.58 143.37L408.26 143.56C407.37 143.58 406.96 142.97 406.96 142.25C406.97 138.39 403.77 135.34 399.94 135.4C396.13 135.46 392.84 138.58 392.83 142.43C392.83 143.08 392.68 143.88 391.42 143.91L381.62 144.11C380.53 144.13 379.65 145.04 379.65 146.14L379.64 153.76C379.64 154.86 380.52 155.72 381.61 155.69L417.52 154.7C418.56 154.67 419.41 153.78 419.41 152.71L419.44 145.27C419.47 144.2 418.63 143.35 417.58 143.37ZM399.94 139.7C401.51 139.67 402.79 140.95 402.78 142.55C402.78 144.15 401.5 145.48 399.93 145.51C398.35 145.54 397.07 144.27 397.08 142.66C397.08 141.06 398.37 139.73 399.94 139.7Z" fill="#FDD696"/>
<path d="M379.67 152.33V153.76C379.67 154.86 380.55 155.72 381.64 155.69L417.55 154.7C418.59 154.67 419.44 153.78 419.44 152.71V151.31L379.67 152.33Z" fill="#F7B548"/>
<path d="M407.76 170.4L373.9 170.63V167.69L407.77 167.51L407.76 170.4Z" fill="#C4C1BE"/>
<path d="M407.73 182.71L373.89 183.45V180.51L407.74 179.83L407.73 182.71Z" fill="#C4C1BE"/>
<path d="M407.7 195.19L373.89 196.24V193.31L407.7 192.31V195.19Z" fill="#C4C1BE"/>
<path d="M407.66 207.65L373.88 209.02V206.09L407.67 204.78L407.66 207.65Z" fill="#C4C1BE"/>
<path d="M407.63 219.9L373.87 221.77L373.88 218.84L407.64 217.03L407.63 219.9Z" fill="#C4C1BE"/>
<path d="M442.41 184.28C442.4 185.51 441.44 186.55 440.26 186.61C439.08 186.67 438.12 185.71 438.13 184.48C438.14 183.25 439.1 182.21 440.29 182.15C441.47 182.1 442.42 183.05 442.41 184.28Z" fill="#84817D"/>
<path d="M424.39 167.37C424.38 169.64 422.59 171.55 420.37 171.64C418.15 171.72 416.36 169.94 416.36 167.65C416.37 165.36 418.18 163.45 420.4 163.38C422.62 163.31 424.4 165.1 424.39 167.37Z" fill="#549BEF"/>
<path d="M424.34 179.75C424.33 182.02 422.54 183.94 420.33 184.04C418.11 184.14 416.32 182.37 416.33 180.09C416.34 177.81 418.15 175.89 420.36 175.8C422.57 175.71 424.35 177.48 424.34 179.75Z" fill="#C4C1BE"/>
<path d="M424.3 192.11C424.29 194.38 422.5 196.31 420.29 196.42C418.08 196.54 416.28 194.78 416.29 192.51C416.3 190.23 418.1 188.3 420.32 188.19C422.53 188.09 424.31 189.85 424.3 192.11Z" fill="#549BEF"/>
<path d="M424.25 204.45C424.24 206.71 422.45 208.65 420.24 208.78C418.03 208.91 416.24 207.18 416.24 204.9C416.25 202.63 418.05 200.68 420.27 200.56C422.48 200.45 424.26 202.19 424.25 204.45Z" fill="#C4C1BE"/>
<path d="M424.2 216.77C424.19 219.03 422.4 220.98 420.2 221.13C417.99 221.28 416.2 219.56 416.21 217.29C416.22 215.02 418.02 213.07 420.23 212.93C422.44 212.79 424.21 214.51 424.2 216.77Z" fill="#C4C1BE"/>
<path d="M455.19 154.5L435.05 182.92L426.62 176.67L446.95 148.17L455.19 154.5Z" fill="#F7B548"/>
<path d="M435.05 182.92L424.83 187.88L426.62 176.67L435.05 182.92Z" fill="#C4C1BE"/>
<path d="M429.86 185.44L424.83 187.88L425.71 182.38L429.86 185.44Z" fill="#797673"/>
<path d="M455.24 154.43L435.05 182.92L431.81 180.52L452.08 152L455.24 154.43Z" fill="#F7B548"/>
<path d="M446.84 148.33L450.66 142.98C451.27 142.13 452.41 141.94 453.2 142.55L458.53 146.68C459.32 147.29 459.47 148.48 458.87 149.32L455.09 154.66L446.84 148.33Z" fill="#E86E58"/>
</svg>
