<svg width="636" height="300" viewBox="0 0 636 300" fill="none" xmlns="http://www.w3.org/2000/svg">
<path d="M425.46 225.04L533.89 220.61V27.54L425.46 225.04ZM463.58 198.12L509.15 113.99V196.84L463.58 198.12Z" fill="#F7B548"/>
<path d="M528.55 209V205.23L533.82 205.07V208.82L528.55 209ZM528.55 195.82V192.05L533.82 191.94V195.69L528.55 195.82ZM528.55 182.63V178.86L533.82 178.8V182.55L528.55 182.63ZM528.55 169.44V165.67L533.82 165.65V169.4L528.55 169.44ZM528.55 156.25V152.48L533.82 152.51V156.26L528.55 156.25ZM528.55 143.07V139.3L533.82 139.38V143.13L528.55 143.07ZM528.55 129.88V126.11L533.82 126.23V129.98L528.55 129.88ZM528.55 116.69V112.92L533.82 113.09V116.84L528.55 116.69ZM528.55 103.5V99.73L533.82 99.95V103.7L528.55 103.5ZM528.55 90.32V86.55L533.82 86.82V90.57L528.55 90.32ZM528.55 77.13V73.36L533.82 73.67V77.42L528.55 77.13ZM528.55 63.94V60.17L533.82 60.53V64.28L528.55 63.94ZM528.55 50.76V46.99L533.82 47.4V51.15L528.55 50.76Z" fill="#DF9B39"/>
<path d="M259.75 249.36L140.27 255.45C138.45 255.54 136.98 254.26 136.98 252.59V129.84C136.98 128.17 138.46 126.84 140.27 126.87L259.75 129.06C261.34 129.09 262.62 130.38 262.62 131.93V246.39C262.62 247.95 261.34 249.28 259.75 249.36Z" fill="#C8C6C4"/>
<path d="M249.1 148.85L151.5 148.18C150.12 148.17 149 147.13 149 145.85V140.95C149 139.67 150.12 138.65 151.5 138.67L249.1 139.84C250.34 139.85 251.33 140.84 251.33 142.05V146.68C251.34 147.89 250.34 148.86 249.1 148.85Z" fill="#797673"/>
<path d="M251.34 160.66L149.01 160.65V156.81L251.34 157.04V160.66Z" fill="white"/>
<path d="M251.34 179.53L175.27 180.34V176.56L251.34 175.91V179.53Z" fill="#B3AFAB"/>
<path d="M169.94 178.28C169.94 179.93 168.46 181.28 166.63 181.3C164.8 181.32 163.31 180 163.31 178.34C163.31 176.68 164.8 175.33 166.63 175.32C168.46 175.3 169.94 176.63 169.94 178.28Z" fill="#B3AFAB"/>
<path d="M251.34 170.09L175.27 170.5V166.72L251.34 166.47V170.09Z" fill="#B3AFAB"/>
<path d="M169.94 168.4C169.94 170.05 168.46 171.39 166.63 171.4C164.8 171.41 163.31 170.08 163.31 168.42C163.31 166.77 164.8 165.42 166.63 165.42C168.46 165.42 169.94 166.75 169.94 168.4Z" fill="#B3AFAB"/>
<path d="M249.1 203.17L151.5 205.53C150.12 205.56 149 204.56 149 203.28V198.38C149 197.1 150.12 196.05 151.5 196.02L249.1 194.16C250.34 194.14 251.33 195.09 251.33 196.3V200.93C251.34 202.14 250.34 203.14 249.1 203.17Z" fill="#797673"/>
<path d="M251.34 214.91L149.01 218.08V214.24L251.34 211.28V214.91Z" fill="white"/>
<path d="M251.34 233.77L175.27 236.95V233.17L251.34 230.15V233.77Z" fill="#B3AFAB"/>
<path d="M169.94 235.05C169.94 236.7 168.46 238.1 166.63 238.17C164.8 238.25 163.31 236.97 163.31 235.31C163.31 233.66 164.8 232.26 166.63 232.18C168.46 232.12 169.94 233.4 169.94 235.05Z" fill="#B3AFAB"/>
<path d="M251.34 224.34L175.27 227.11V223.33L251.34 220.72V224.34Z" fill="#B3AFAB"/>
<path d="M169.94 225.18C169.94 226.83 168.46 228.22 166.63 228.29C164.8 228.36 163.31 227.07 163.31 225.42C163.31 223.77 164.8 222.37 166.63 222.31C168.46 222.24 169.94 223.53 169.94 225.18Z" fill="#B3AFAB"/>
<path d="M494.07 68.2999V46.2199C494.07 43.6299 492.22 41.3799 489.92 41.1999L250.82 22.1999C247.73 21.9599 245.22 24.2099 245.22 27.2299V53.1099L494.07 68.2999Z" fill="#605D5A"/>
<path d="M350.39 48.7398L269.63 43.2398C266.78 43.0498 264.47 40.5998 264.47 37.7898V37.5398C264.47 34.7198 266.79 32.6098 269.63 32.8198L350.39 38.8098C352.97 38.9998 355.05 41.3198 355.05 43.9898V44.2298C355.05 46.8898 352.97 48.9198 350.39 48.7398Z" fill="#9C9894"/>
<path d="M245.22 49.8398V206.55C245.22 209.57 247.81 211.95 251 211.85L489.77 204.88C492.14 204.81 494.05 202.65 494.05 200.06V65.6098L245.22 49.8398Z" fill="#D5D3D0"/>
<path d="M245.22 64.9498L494.07 78.5798V65.6098L245.22 49.8398V64.9498Z" fill="#9C9894"/>
<path d="M474.42 139.01L386.06 137.74C384.72 137.72 383.63 136.55 383.63 135.13V83.3898C383.63 81.9698 384.72 80.8698 386.06 80.9298L474.42 85.3098C475.62 85.3698 476.59 86.4998 476.59 87.8498V136.6C476.59 137.95 475.62 139.03 474.42 139.01Z" fill="#B3AFAB"/>
<path d="M270.58 138.93L266.19 138.87V134.48L270.64 134.55L270.58 138.93Z" fill="white"/>
<path d="M363.06 140.22L358.44 140.15L358.5 135.77L363.12 135.84L363.06 140.22ZM351.5 140.06L346.88 139.99L346.94 135.61L351.56 135.68L351.5 140.06ZM339.94 139.9L335.31 139.83L335.37 135.45L340 135.52L339.94 139.9ZM328.38 139.74L323.76 139.67L323.82 135.29L328.44 135.36L328.38 139.74ZM316.82 139.57L312.2 139.5L312.26 135.12L316.88 135.19L316.82 139.57ZM305.26 139.41L300.64 139.35L300.7 134.97L305.32 135.03L305.26 139.41ZM293.7 139.25L289.07 139.19L289.13 134.81L293.76 134.87L293.7 139.25ZM282.14 139.09L277.52 139.03L277.58 134.65L282.2 134.71L282.14 139.09Z" fill="white"/>
<path d="M374.45 140.38L370 140.32L370.07 135.93H374.45V140.38Z" fill="white"/>
<path d="M374.45 129.08H370.07V124.51H374.45V129.08ZM374.45 117.66H370.07V113.09H374.45V117.66ZM374.45 106.24H370.07V101.67H374.45V106.24ZM374.45 94.82H370.07V90.25H374.45V94.82Z" fill="white"/>
<path d="M374.45 83.4001H370.07V83.2601L369.93 83.2501L370.14 78.8801L374.45 79.0901V83.4001Z" fill="white"/>
<path d="M362.99 82.9101L358.37 82.6801L358.58 78.3001L363.2 78.5301L362.99 82.9101ZM351.43 82.3501L346.81 82.1201L347.02 77.7401L351.64 77.9701L351.43 82.3501ZM339.87 81.7801L335.24 81.5501L335.45 77.1701L340.08 77.4001L339.87 81.7801ZM328.31 81.2101L323.69 80.9801L323.9 76.6001L328.52 76.8301L328.31 81.2101ZM316.75 80.6401L312.12 80.4101L312.33 76.0301L316.96 76.2601L316.75 80.6401ZM305.18 80.0801L300.56 79.8501L300.77 75.4701L305.39 75.7001L305.18 80.0801ZM293.62 79.5101L289 79.2801L289.21 74.9001L293.84 75.1301L293.62 79.5101ZM282.06 78.9401L277.44 78.7101L277.65 74.3301L282.27 74.5601L282.06 78.9401Z" fill="white"/>
<path d="M270.5 78.38L269.07 78.31H266.19V73.78L270.71 74L270.5 78.38Z" fill="white"/>
<path d="M270.57 127.15H266.19V122.26H270.57V127.15ZM270.57 114.94H266.19V110.06H270.57V114.94ZM270.57 102.73H266.19V97.8501H270.57V102.73ZM270.57 90.5201H266.19V85.6401H270.57V90.5201Z" fill="white"/>
<path d="M476.68 151.69L383.73 151.13V143.89L476.68 144.87V151.69Z" fill="white"/>
<path d="M386.3 167.16C383.46 167.17 381.15 164.81 381.15 161.89C381.15 158.97 383.47 156.61 386.3 156.62C389.13 156.63 391.42 158.99 391.42 161.89C391.42 164.79 389.13 167.15 386.3 167.16ZM386.3 157.71C384.05 157.71 382.21 159.58 382.21 161.89C382.21 164.2 384.05 166.08 386.3 166.07C388.55 166.06 390.37 164.19 390.37 161.89C390.37 159.59 388.54 157.71 386.3 157.71Z" fill="#B3AFAB"/>
<path d="M388.61 161.89C388.61 163.2 387.57 164.27 386.29 164.27C385.01 164.27 383.97 163.21 383.97 161.89C383.97 160.57 385.01 159.51 386.29 159.51C387.58 159.51 388.61 160.58 388.61 161.89Z" fill="#B3AFAB"/>
<path d="M437.66 166.96C435 166.97 432.83 164.68 432.83 161.86C432.83 159.04 435 156.75 437.66 156.76C440.31 156.77 442.46 159.05 442.46 161.86C442.47 164.66 440.32 166.95 437.66 166.96ZM437.66 157.81C435.55 157.81 433.83 159.62 433.83 161.86C433.83 164.1 435.55 165.91 437.66 165.9C439.76 165.89 441.47 164.08 441.47 161.85C441.48 159.63 439.77 157.82 437.66 157.81Z" fill="#B3AFAB"/>
<path d="M426.44 164.68L394.69 164.76V158.71L426.44 158.76V164.68Z" fill="#B3AFAB"/>
<path d="M284.77 167.56C281.56 167.57 278.94 165.06 278.94 161.96C278.94 158.86 281.56 156.35 284.77 156.36C287.97 156.37 290.56 158.88 290.56 161.96C290.56 165.04 287.96 167.54 284.77 167.56ZM284.77 157.51C282.22 157.51 280.15 159.5 280.15 161.96C280.15 164.42 282.22 166.41 284.77 166.4C287.31 166.39 289.36 164.4 289.36 161.95C289.36 159.5 287.31 157.52 284.77 157.51Z" fill="#B3AFAB"/>
<path d="M287.39 161.95C287.39 163.34 286.22 164.48 284.77 164.48C283.32 164.48 282.14 163.35 282.14 161.95C282.14 160.55 283.32 159.42 284.77 159.42C286.22 159.43 287.39 160.56 287.39 161.95Z" fill="#B3AFAB"/>
<path d="M358.54 164.84L294.25 165V158.58L358.54 158.66V164.84Z" fill="#B3AFAB"/>
<path d="M284.77 186.07C281.56 186.12 278.94 183.63 278.94 180.54C278.94 177.45 281.56 174.9 284.77 174.87C287.97 174.84 290.56 177.33 290.56 180.4C290.56 183.47 287.96 186.02 284.77 186.07ZM284.77 176.02C282.22 176.04 280.15 178.06 280.15 180.52C280.15 182.98 282.22 184.95 284.77 184.91C287.31 184.87 289.36 182.86 289.36 180.41C289.36 177.97 287.31 176 284.77 176.02Z" fill="#B3AFAB"/>
<path d="M358.54 182.56L294.25 183.41V176.99L358.54 176.38V182.56Z" fill="#B3AFAB"/>
<path d="M476.19 164.56L446.45 164.63V158.78L476.19 158.82V164.56Z" fill="#B3AFAB"/>
<path d="M442.6 184.72L381.4 185.66V174.99L442.6 174.46V184.72Z" fill="white"/>
<path d="M474.57 175.72V182.68L448.61 183.05V175.97L474.57 175.72ZM475.99 174.17L447.13 174.42V184.65L475.99 184.21V174.17Z" fill="#9C9894"/>
<path d="M442.6 184.72L432.08 184.88V174.55L442.6 174.46V184.72Z" fill="#9C9894"/>
<path d="M434.05 177.63L437.53 181.27L440.76 177.41" fill="#E6E4E3"/>
<path d="M509.58 240.37L522.71 234.67V232.79L509.58 228.65V240.37Z" fill="#C8C6C4"/>
<path d="M388.68 246.83L509.58 240.36C510.16 240.33 510.63 237.68 510.63 234.45C510.63 231.22 510.16 228.61 509.58 228.64L388.68 234.15V246.83Z" fill="#6BA8F1"/>
<path d="M381.06 247.24L390.57 246.73C391.25 246.69 391.8 243.83 391.8 240.34C391.8 236.85 391.25 234.04 390.57 234.07L381.06 234.5V247.24Z" fill="#CAE0FA"/>
<path d="M388.68 242.13V246.84L509.58 240.37C510.07 240.34 510.48 238.47 510.6 235.96L388.68 242.13Z" fill="#3E8EED"/>
<path d="M381.06 242.51V247.24L390.57 246.73C391.14 246.7 391.61 244.68 391.75 241.97L381.06 242.51Z" fill="#A3C9F6"/>
<path d="M381.06 234.51C381.75 234.48 382.3 237.3 382.3 240.82C382.3 244.33 381.74 247.21 381.06 247.25C380.37 247.29 379.81 244.46 379.81 240.94C379.81 237.42 380.37 234.54 381.06 234.51Z" fill="#81B5F3"/>
<path d="M520.48 235.63C520.48 235.63 523.71 234.27 524.33 233.97C524.69 233.8 524.69 233.44 524.31 233.3C523.93 233.17 522.09 232.59 520.47 232.08C521.1 233.9 520.48 235.63 520.48 235.63Z" fill="#848484"/>
<path d="M207.93 152.3L149.21 150.34L48.96 70.78L208.74 79.75L207.93 152.3Z" fill="url(#paint0_linear)"/>
<path d="M321 152.5L207.11 151.76V81.1499L321 86.4099V152.5Z" fill="white"/>
<path d="M322.1 153.6L206.02 152.85V80L322.1 85.37V153.6ZM208.21 150.67L319.91 151.39V87.46L208.21 82.3V150.67Z" fill="#8B9B23"/>
<path d="M311.95 106.18L218.88 103V90.51L311.95 94.35V106.18Z" fill="#C5D43B"/>
<path d="M286.92 110.52L218.88 108.4V112.22L286.92 114.19V110.52Z" fill="#E1DFDD"/>
<path d="M286.92 119.7L228.11 118.19V121.98L286.92 123.37V119.7Z" fill="#E1DFDD"/>
<path d="M309.55 103.89L301.98 103.62V96.1599L309.55 96.4599V103.89Z" fill="white"/>
<path d="M223.99 119.82C223.99 121.23 222.77 122.34 221.27 122.31C219.76 122.27 218.54 121.1 218.54 119.69C218.54 118.28 219.76 117.17 221.27 117.2C222.77 117.24 223.99 118.41 223.99 119.82Z" fill="#E1DFDD"/>
<path d="M300.96 129.16L243.12 127.99V131.75L300.96 132.8V129.16Z" fill="#E1DFDD"/>
<path d="M239.08 129.63C239.08 131.03 237.88 132.14 236.41 132.11C234.93 132.08 233.73 130.93 233.73 129.53C233.73 128.13 234.93 127.02 236.41 127.05C237.88 127.08 239.08 128.23 239.08 129.63Z" fill="#E1DFDD"/>
<path d="M300.96 138.26L243.12 137.4V141.17L300.96 141.9V138.26Z" fill="#E1DFDD"/>
<path d="M239.08 139.06C239.08 140.46 237.88 141.57 236.41 141.55C234.93 141.53 233.73 140.38 233.73 138.98C233.73 137.58 234.93 136.46 236.41 136.49C237.88 136.52 239.08 137.67 239.08 139.06Z" fill="#E1DFDD"/>
<path d="M324.2 122.78C323.07 122.73 321.95 122.99 320.97 123.53C320.7 122.29 320.04 121.17 319.07 120.32C318.1 119.48 316.89 118.96 315.62 118.86C314.45 118.8 313.31 119.11 312.34 119.72C311.75 118.33 310.74 117.14 309.45 116.32C308.15 115.5 306.64 115.09 305.12 115.15C303.79 115.05 302.46 115.34 301.31 115.99C300.16 116.64 299.25 117.62 298.68 118.8C297.56 117.94 296.18 117.46 294.77 117.43C293.87 117.4 292.97 117.54 292.13 117.85C291.29 118.16 290.53 118.63 289.89 119.24C289.25 119.85 288.74 120.58 288.4 121.39C288.06 122.2 287.88 123.08 287.89 123.96V128.87C287.03 128.57 286.13 128.41 285.22 128.41C284.16 128.45 283.13 128.74 282.22 129.27C281.31 129.8 280.56 130.54 280.02 131.42C278.88 133.26 278.15 136.57 281.11 141.79C285.68 149.85 292.85 165.55 292.92 165.71L293.31 166.56L324.42 166.5V159.13C324.42 157.07 324.64 154.81 327.25 149.85C329.32 146.46 330.32 142.53 330.11 138.56V128.55C330.04 127.08 329.42 125.67 328.37 124.61C327.32 123.54 325.92 122.89 324.44 122.78H324.2ZM327.28 138.29C327.48 141.82 326.59 145.31 324.73 148.3C321.81 153.84 321.56 156.47 321.56 158.9V163.67L295.27 163.68C293.7 160.25 287.72 147.37 283.7 140.25C281.9 137.05 281.5 134.44 282.56 132.71C282.83 132.25 283.22 131.86 283.68 131.58C284.14 131.29 284.66 131.12 285.21 131.07C286.91 131.1 287.55 131.59 287.9 132.11V137.52L290.88 137.57V123.69C290.87 123.18 290.96 122.68 291.16 122.21C291.35 121.74 291.64 121.32 292.01 120.97C292.38 120.62 292.82 120.35 293.3 120.17C293.78 119.99 294.3 119.91 294.82 119.94C295.27 119.94 295.71 120.02 296.13 120.18C296.55 120.34 296.93 120.59 297.25 120.89C297.57 121.2 297.83 121.56 298.01 121.97C298.19 122.37 298.28 122.8 298.29 123.24V131.91L301.23 131.96V120.73C301.35 119.8 301.83 118.97 302.58 118.41C303.33 117.85 304.28 117.61 305.22 117.73C308.03 117.81 310 119.37 310 121.54V132.12L312.9 132.17V123.56C312.99 122.88 313.34 122.27 313.88 121.85C314.42 121.43 315.11 121.24 315.8 121.32C317.77 121.37 318.68 123.94 318.68 125.65V133.7L321.55 133.75V128.21C321.54 127.7 321.66 127.2 321.91 126.76C322.16 126.32 322.52 125.96 322.95 125.7C323.39 125.48 323.87 125.37 324.37 125.39C324.86 125.41 325.35 125.55 325.78 125.8C326.21 126.05 326.57 126.4 326.83 126.83C327.09 127.25 327.24 127.73 327.27 128.22V138.29H327.28Z" fill="#605D5A"/>
<defs>
<linearGradient id="paint0_linear" x1="116.879" y1="125.778" x2="175.69" y2="53.0712" gradientUnits="userSpaceOnUse">
<stop offset="0.0436" stop-color="white" stop-opacity="0"/>
<stop offset="0.5612" stop-color="#E1DFDD" stop-opacity="0.8"/>
</linearGradient>
</defs>
</svg>
