<svg width="636" height="300" viewBox="0 0 636 300" fill="none" xmlns="http://www.w3.org/2000/svg">
<path d="M394.77 232.71L493.75 228.67V52.4202L394.77 232.71ZM429.58 208.13L471.18 131.33V206.96L429.58 208.13Z" fill="#F7B548"/>
<path d="M488.89 218.07V214.63L493.7 214.48V217.91L488.89 218.07ZM488.89 206.03V202.59L493.7 202.49V205.92L488.89 206.03ZM488.89 193.99V190.55L493.7 190.49V193.92L488.89 193.99ZM488.89 181.95V178.51L493.7 178.49V181.92L488.89 181.95ZM488.89 169.92V166.48L493.7 166.51V169.94L488.89 169.92ZM488.89 157.88V154.44L493.7 154.51V157.94L488.89 157.88ZM488.89 145.84V142.4L493.7 142.51V145.94L488.89 145.84ZM488.89 133.8V130.36L493.7 130.52V133.95L488.89 133.8ZM488.89 121.76V118.32L493.7 118.52V121.95L488.89 121.76ZM488.89 109.72V106.28L493.7 106.52V109.95L488.89 109.72ZM488.89 97.6902V94.2502L493.7 94.5402V97.9702L488.89 97.6902ZM488.89 85.6502V82.2102L493.7 82.5402V85.9702L488.89 85.6502ZM488.89 73.6102V70.1702L493.7 70.5402V73.9702L488.89 73.6102Z" fill="#DF9B39"/>
<path d="M243.5 254.91L134.43 260.47C132.77 260.55 131.42 259.39 131.42 257.86V145.8C131.42 144.27 132.77 143.06 134.43 143.09L243.5 145.09C244.95 145.12 246.12 146.29 246.12 147.71V252.2C246.12 253.62 244.95 254.84 243.5 254.91Z" fill="#C8C6C4"/>
<path d="M233.78 163.16L144.69 162.55C143.43 162.54 142.41 161.59 142.41 160.43V155.96C142.41 154.8 143.43 153.86 144.69 153.88L233.78 154.95C234.91 154.96 235.82 155.87 235.82 156.97V161.2C235.82 162.28 234.91 163.17 233.78 163.16Z" fill="#797673"/>
<path d="M235.82 173.94L142.41 173.93V170.43L235.82 170.63V173.94Z" fill="white"/>
<path d="M235.82 191.16L166.38 191.91V188.46L235.82 187.86V191.16Z" fill="#B3AFAB"/>
<path d="M161.52 190.02C161.52 191.53 160.17 192.76 158.5 192.78C156.83 192.8 155.47 191.59 155.47 190.08C155.47 188.57 156.83 187.33 158.5 187.32C160.17 187.3 161.52 188.51 161.52 190.02Z" fill="#B3AFAB"/>
<path d="M235.82 182.55L166.38 182.92V179.47L235.82 179.25V182.55Z" fill="#B3AFAB"/>
<path d="M161.52 181.01C161.52 182.52 160.17 183.74 158.5 183.75C156.83 183.76 155.47 182.54 155.47 181.03C155.47 179.52 156.83 178.29 158.5 178.29C160.17 178.28 161.52 179.5 161.52 181.01Z" fill="#B3AFAB"/>
<path d="M233.78 212.74L144.69 214.9C143.43 214.93 142.41 214.01 142.41 212.85V208.38C142.41 207.22 143.43 206.25 144.69 206.23L233.78 204.53C234.91 204.51 235.82 205.38 235.82 206.48V210.71C235.82 211.8 234.91 212.72 233.78 212.74Z" fill="#797673"/>
<path d="M235.82 223.46L142.41 226.35V222.85L235.82 220.15V223.46Z" fill="white"/>
<path d="M235.82 240.68L166.38 243.58V240.13L235.82 237.38V240.68Z" fill="#B3AFAB"/>
<path d="M161.52 241.85C161.52 243.36 160.17 244.63 158.5 244.7C156.83 244.77 155.47 243.6 155.47 242.09C155.47 240.58 156.83 239.3 158.5 239.24C160.17 239.18 161.52 240.34 161.52 241.85Z" fill="#B3AFAB"/>
<path d="M235.82 232.07L166.38 234.6V231.15L235.82 228.76V232.07Z" fill="#B3AFAB"/>
<path d="M161.52 232.83C161.52 234.34 160.17 235.6 158.5 235.67C156.83 235.73 155.47 234.56 155.47 233.05C155.47 231.54 156.83 230.27 158.5 230.21C160.17 230.15 161.52 231.33 161.52 232.83Z" fill="#B3AFAB"/>
<path d="M457.4 89.6301V69.4701C457.4 67.1001 455.71 65.0501 453.62 64.8801L235.35 47.5501C232.53 47.3301 230.24 49.3801 230.24 52.1401V75.7601L457.4 89.6301Z" fill="#605D5A"/>
<path d="M326.25 71.7702L252.52 66.7502C249.92 66.5702 247.81 64.3402 247.81 61.7702V61.5402C247.81 58.9702 249.92 57.0402 252.52 57.2302L326.25 62.7002C328.6 62.8702 330.51 64.9902 330.51 67.4302V67.6502C330.5 70.0902 328.6 71.9302 326.25 71.7702Z" fill="#C8C6C4"/>
<path d="M230.24 72.77V215.83C230.24 218.59 232.61 220.76 235.52 220.67L453.49 214.3C455.65 214.24 457.4 212.27 457.4 209.9V87.17L230.24 72.77Z" fill="#A4ECFC"/>
<path d="M230.24 86.57L457.4 99.01V87.17L230.24 72.77V86.57Z" fill="#1DACCC"/>
<path d="M439.47 154.18L358.81 153.02C357.58 153 356.59 151.94 356.59 150.64V103.41C356.59 102.11 357.58 101.11 358.81 101.17L439.47 105.17C440.56 105.22 441.45 106.26 441.45 107.48V151.99C441.45 153.21 440.56 154.19 439.47 154.18Z" fill="#B3AFAB"/>
<path d="M251.38 150.04V152.07L253.42 152.1" stroke="white" stroke-width="4" stroke-miterlimit="10"/>
<path d="M259.75 152.19L341.01 153.32" stroke="white" stroke-width="4" stroke-miterlimit="10" stroke-dasharray="4.22 4.22"/>
<path d="M344.18 153.37L346.21 153.4V151.36" stroke="white" stroke-width="4" stroke-miterlimit="10"/>
<path d="M346.21 145.11V106.54" stroke="white" stroke-width="4" stroke-miterlimit="10" stroke-dasharray="4.17 4.17"/>
<path d="M346.21 103.41V101.38L344.18 101.28" stroke="white" stroke-width="4" stroke-miterlimit="10"/>
<path d="M337.85 100.97L256.58 96.9802" stroke="white" stroke-width="4" stroke-miterlimit="10" stroke-dasharray="4.23 4.23"/>
<path d="M253.41 96.8302L251.38 96.7302V98.7602" stroke="white" stroke-width="4" stroke-miterlimit="10"/>
<path d="M251.38 105.45V146.69" stroke="white" stroke-width="4" stroke-miterlimit="10" stroke-dasharray="4.46 4.46"/>
<path d="M441.53 165.75L356.68 165.24V158.63L441.53 159.53V165.75Z" fill="white"/>
<path d="M359.02 179.87C356.43 179.88 354.31 177.72 354.31 175.06C354.31 172.4 356.42 170.24 359.02 170.25C361.6 170.26 363.7 172.41 363.7 175.06C363.7 177.7 361.61 179.86 359.02 179.87ZM359.02 171.25C356.96 171.25 355.29 172.96 355.29 175.07C355.29 177.18 356.97 178.89 359.02 178.88C361.07 178.87 362.73 177.16 362.73 175.06C362.73 172.96 361.07 171.25 359.02 171.25Z" fill="#1DACCC"/>
<path d="M361.14 175.06C361.14 176.26 360.19 177.23 359.03 177.23C357.86 177.23 356.91 176.26 356.91 175.06C356.91 173.86 357.86 172.89 359.03 172.89C360.19 172.89 361.14 173.86 361.14 175.06Z" fill="#1DACCC"/>
<path d="M405.92 179.69C403.49 179.7 401.51 177.61 401.51 175.04C401.51 172.46 403.49 170.37 405.92 170.38C408.34 170.39 410.3 172.47 410.3 175.03C410.3 177.59 408.34 179.68 405.92 179.69ZM405.92 171.34C403.99 171.34 402.42 172.99 402.42 175.04C402.42 177.08 403.99 178.74 405.92 178.73C407.84 178.72 409.4 177.07 409.4 175.03C409.4 172.99 407.84 171.34 405.92 171.34Z" fill="#1DACCC"/>
<path d="M395.67 177.61L366.69 177.68V172.16L395.67 172.2V177.61Z" fill="#4ADAFA"/>
<path d="M266.34 180.23C263.41 180.24 261.02 177.95 261.02 175.12C261.02 172.29 263.41 170 266.34 170C269.26 170.01 271.62 172.3 271.62 175.11C271.62 177.92 269.26 180.22 266.34 180.23ZM266.34 171.06C264.02 171.06 262.12 172.88 262.12 175.12C262.12 177.36 264.01 179.18 266.34 179.17C268.66 179.16 270.53 177.34 270.53 175.11C270.54 172.89 268.66 171.07 266.34 171.06Z" fill="#1DACCC"/>
<path d="M268.73 175.12C268.73 176.39 267.66 177.43 266.34 177.43C265.02 177.43 263.94 176.4 263.94 175.12C263.94 173.84 265.01 172.81 266.34 172.81C267.66 172.81 268.73 173.85 268.73 175.12Z" fill="#1DACCC"/>
<path d="M333.68 177.76L275 177.9V172.04L333.68 172.12V177.76Z" fill="#4ADAFA"/>
<path d="M266.34 197.13C263.41 197.17 261.02 194.91 261.02 192.08C261.02 189.25 263.41 186.93 266.34 186.91C269.26 186.89 271.62 189.15 271.62 191.96C271.62 194.77 269.26 197.09 266.34 197.13ZM266.34 187.96C264.02 187.98 262.12 189.82 262.12 192.07C262.12 194.32 264.01 196.11 266.34 196.08C268.66 196.05 270.53 194.21 270.53 191.98C270.53 189.75 268.66 187.94 266.34 187.96Z" fill="#1DACCC"/>
<path d="M333.68 193.93L275 194.71V188.84L333.68 188.29V193.93Z" fill="#4ADAFA"/>
<path d="M441.09 177.5L413.94 177.56V172.23L441.09 172.26V177.5Z" fill="#4ADAFA"/>
<path d="M410.42 195.9L354.55 196.76V187.02L410.42 186.53V195.9Z" fill="white"/>
<path d="M439.61 187.69V194.04L415.91 194.38V187.92L439.61 187.69ZM440.91 186.27L414.57 186.5V195.84L440.91 195.44V186.27Z" fill="#1DACCC"/>
<path d="M410.42 195.9L400.81 196.05V186.62L410.42 186.53V195.9Z" fill="#1DACCC"/>
<path d="M402.61 189.43L405.79 192.75L408.74 189.23" fill="#A4ECFC"/>
<path d="M471.57 246.7L483.55 241.5V239.78L471.57 236V246.7Z" fill="#C8C6C4"/>
<path d="M361.2 252.6L471.57 246.7C472.1 246.67 472.53 244.25 472.53 241.3C472.53 238.35 472.1 235.97 471.57 236L361.2 241.03V252.6Z" fill="#EA7B66"/>
<path d="M354.25 252.98L362.93 252.52C363.55 252.49 364.05 249.87 364.05 246.69C364.05 243.5 363.55 240.94 362.93 240.97L354.25 241.37V252.98Z" fill="#FDC9B5"/>
<path d="M361.2 248.31V252.61L471.57 246.71C472.02 246.69 472.39 244.98 472.5 242.69L361.2 248.31Z" fill="#D8604D"/>
<path d="M354.25 248.66V252.98L362.93 252.52C363.45 252.49 363.88 250.64 364.01 248.17L354.25 248.66Z" fill="#F6B29F"/>
<path d="M354.25 241.35C354.88 241.32 355.39 243.9 355.39 247.11C355.39 250.32 354.88 252.95 354.25 252.98C353.62 253.01 353.11 250.44 353.11 247.22C353.11 244.01 353.62 241.38 354.25 241.35Z" fill="#F6B29F"/>
<path d="M481.52 242.38C481.52 242.38 484.46 241.13 485.04 240.86C485.37 240.7 485.37 240.37 485.02 240.25C484.67 240.13 483 239.6 481.51 239.13C482.08 240.79 481.52 242.38 481.52 242.38Z" fill="#848484"/>
<path d="M196.2 166.31L142.59 164.52L51.08 91.8901L196.94 100.08L196.2 166.31Z" fill="url(#paint0_linear)"/>
<path d="M299.42 166.49L195.45 165.82V101.35L299.42 106.16V166.49Z" fill="white" stroke="#C5D43B" stroke-width="2" stroke-miterlimit="10"/>
<path d="M291.15 124.21L206.19 121.3V109.9L291.15 113.41V124.21Z" fill="#CEDB59"/>
<path d="M268.31 128.17L206.19 126.23V129.72L268.31 131.52V128.17Z" fill="#E1DFDD"/>
<path d="M268.31 136.54L214.62 135.17V138.63L268.31 139.9V136.54Z" fill="#E1DFDD"/>
<path d="M288.96 122.11L282.06 121.87V115.06L288.96 115.34V122.11Z" fill="white" stroke="#C5D43B" stroke-width="2" stroke-miterlimit="10"/>
<path d="M210.86 136.66C210.86 137.94 209.75 138.96 208.38 138.93C207 138.9 205.89 137.83 205.89 136.54C205.89 135.25 207.01 134.24 208.38 134.27C209.75 134.3 210.86 135.37 210.86 136.66Z" fill="#E1DFDD"/>
<path d="M281.12 145.18L228.33 144.11V147.55L281.12 148.51V145.18Z" fill="#E1DFDD"/>
<path d="M224.63 145.61C224.63 146.88 223.54 147.9 222.19 147.87C220.84 147.85 219.74 146.79 219.74 145.51C219.74 144.23 220.84 143.22 222.19 143.25C223.54 143.28 224.63 144.34 224.63 145.61Z" fill="#E1DFDD"/>
<path d="M281.12 153.49L228.33 152.71V156.14L281.12 156.82V153.49Z" fill="#E1DFDD"/>
<path d="M224.63 154.23C224.63 155.5 223.54 156.52 222.19 156.51C220.84 156.49 219.74 155.44 219.74 154.17C219.74 152.9 220.84 151.87 222.19 151.89C223.54 151.9 224.63 152.95 224.63 154.23Z" fill="#E1DFDD"/>
<path d="M302.33 139.36C301.3 139.31 300.28 139.55 299.39 140.05C299.15 138.92 298.54 137.89 297.66 137.12C296.78 136.35 295.67 135.88 294.51 135.79C293.45 135.74 292.4 136.01 291.51 136.58C290.97 135.31 290.05 134.22 288.87 133.48C287.69 132.73 286.31 132.36 284.92 132.41C283.7 132.32 282.49 132.58 281.45 133.18C280.4 133.77 279.57 134.67 279.05 135.75C278.02 134.97 276.77 134.53 275.48 134.5C274.66 134.47 273.84 134.6 273.07 134.88C272.3 135.16 271.61 135.6 271.02 136.15C270.43 136.71 269.97 137.37 269.66 138.11C269.35 138.85 269.19 139.65 269.2 140.46V144.94C268.42 144.66 267.59 144.52 266.76 144.52C265.79 144.56 264.85 144.83 264.02 145.3C263.19 145.78 262.5 146.46 262.01 147.26C260.97 148.94 260.3 151.96 263.01 156.73C267.19 164.09 273.73 178.42 273.79 178.56L274.15 179.34L302.55 179.29V172.56C302.55 170.68 302.75 168.62 305.14 164.09C307.03 161 307.94 157.41 307.75 153.78V144.64C307.68 143.3 307.12 142.01 306.16 141.04C305.2 140.07 303.93 139.47 302.58 139.37L302.33 139.36ZM305.15 153.52C305.33 156.74 304.52 159.93 302.82 162.66C300.15 167.71 299.93 170.12 299.93 172.33V176.68L275.93 176.69C274.49 173.56 269.04 161.8 265.37 155.3C263.72 152.38 263.36 150 264.33 148.42C264.58 148 264.93 147.65 265.35 147.39C265.77 147.13 266.25 146.97 266.74 146.92C268.29 146.95 268.87 147.39 269.2 147.87V152.81L271.92 152.85V140.18C271.91 139.71 272 139.25 272.17 138.83C272.35 138.4 272.61 138.02 272.95 137.7C273.29 137.38 273.69 137.13 274.13 136.97C274.57 136.81 275.04 136.74 275.52 136.76C275.93 136.76 276.33 136.83 276.71 136.98C277.09 137.13 277.44 137.35 277.73 137.63C278.02 137.91 278.26 138.24 278.42 138.61C278.58 138.98 278.67 139.37 278.68 139.77V147.68L281.37 147.73V137.48C281.48 136.63 281.92 135.87 282.6 135.36C283.28 134.85 284.15 134.63 285.01 134.74C287.58 134.81 289.37 136.24 289.37 138.22V147.88L292.02 147.93V140.07C292.1 139.45 292.42 138.89 292.91 138.51C293.4 138.13 294.03 137.96 294.66 138.03C296.46 138.08 297.29 140.42 297.29 141.98V149.33L299.91 149.38V144.32C299.9 143.86 300.01 143.4 300.24 143C300.46 142.6 300.79 142.27 301.19 142.04C301.59 141.84 302.03 141.74 302.49 141.75C302.94 141.77 303.38 141.89 303.78 142.12C304.17 142.35 304.5 142.67 304.74 143.06C304.98 143.45 305.11 143.88 305.14 144.33V153.52H305.15Z" fill="#605D5A"/>
<defs>
<linearGradient id="paint0_linear" x1="113.09" y1="142.125" x2="166.777" y2="75.7533" gradientUnits="userSpaceOnUse">
<stop offset="0.0436" stop-color="white" stop-opacity="0"/>
<stop offset="0.5612" stop-color="#D8E8FB" stop-opacity="0.8"/>
</linearGradient>
</defs>
</svg>
