<svg width="636" height="300" viewBox="0 0 636 300" fill="none" xmlns="http://www.w3.org/2000/svg">
<path d="M490.57 200.98L436.14 200.81C432.6 200.8 429.75 197.79 429.75 194.1V80.2603C429.75 76.5603 432.6 73.3003 436.14 72.9603L490.57 67.7803C494.43 67.4103 497.57 70.2703 497.57 74.1603V193.97C497.57 197.85 494.43 201 490.57 200.98Z" fill="#444444"/>
<path d="M488.74 196.02L437.82 196.05C435.88 196.05 434.31 194.41 434.31 192.38V80.7203C434.31 78.6903 435.88 76.9003 437.82 76.7203L488.74 72.0303C490.84 71.8403 492.55 73.4003 492.55 75.5203V192.18C492.56 194.3 490.85 196.02 488.74 196.02Z" fill="#6D6A66"/>
<path d="M472.91 193.47L452.97 193.52C452.52 193.52 452.15 193.14 452.15 192.68C452.15 192.21 452.52 191.83 452.97 191.83L472.91 191.76C473.38 191.76 473.75 192.14 473.75 192.62C473.76 193.08 473.38 193.47 472.91 193.47Z" fill="#56534F"/>
<path d="M492.56 87.2101V75.5101C492.56 73.3901 490.85 71.8301 488.75 72.0201L437.83 76.7101C435.89 76.8901 434.32 78.6801 434.32 80.7101V91.9101L492.56 87.2101Z" fill="#84817D"/>
<path d="M446.08 75.9605V77.7705C446.08 79.7805 447.65 81.2705 449.59 81.1005L477.54 78.6405C479.57 78.4605 481.22 76.6405 481.22 74.5805V72.7305L446.08 75.9605Z" fill="#444444"/>
<path d="M473.45 75.5001C473.45 76.2001 472.89 76.8201 472.21 76.8801C471.52 76.9401 470.97 76.4301 470.97 75.7301C470.97 75.0301 471.52 74.4101 472.21 74.3501C472.89 74.2801 473.45 74.8001 473.45 75.5001Z" fill="#908D89"/>
<path d="M458.59 78.0603L467.16 77.2903C467.85 77.2303 468.4 76.6103 468.4 75.9103C468.4 75.2103 467.84 74.6903 467.16 74.7503L458.59 75.5403C457.91 75.6003 457.37 76.2203 457.37 76.9103C457.36 77.6103 457.91 78.1203 458.59 78.0603Z" fill="#908D89"/>
<path d="M410.19 247.81V53.3601C410.19 46.8601 404.58 42.1901 397.73 42.9301L277.17 55.9001C271.53 56.5101 266.99 61.7201 266.99 67.5501V241.8C266.99 247.63 271.53 252.58 277.17 252.87L397.73 258.96C404.58 259.3 410.19 254.31 410.19 247.81Z" fill="#444444"/>
<path d="M399.43 243.92V57.6799C399.43 55.0899 397.21 53.2099 394.47 53.4799L279.59 64.9899C277.31 65.2199 275.46 67.3099 275.46 69.6699V239.02C275.46 241.38 277.3 243.37 279.59 243.47L394.48 248.4C397.21 248.52 399.43 246.51 399.43 243.92Z" fill="url(#paint0_radial)"/>
<path d="M402.16 147.77L407.65 147.6V152.78L402.16 152.93V147.77Z" fill="#84817D"/>
<path d="M141.81 119.53V220.33C141.81 226.71 144.41 229.39 150.78 229.62L294.14 235.04C302.24 235.33 304.04 233.3 304.04 226.53V108.7C304.04 103.48 302.43 99.8101 294.33 100.38L148.45 110.83C143.81 110.83 141.81 113.34 141.81 119.53Z" fill="#505050"/>
<path d="M151.43 118.77V221.56C151.43 222.86 152.34 223.94 153.47 223.97L289.41 228.1C290.83 228.14 291.99 226.99 291.99 225.53V109.83C291.99 108.37 290.84 107.26 289.41 107.36L153.47 116.29C152.34 116.36 151.43 117.48 151.43 118.77Z" fill="#DDDBDA"/>
<path d="M149.16 170.18C149.16 171.69 148.1 172.92 146.81 172.94C145.51 172.96 144.47 171.76 144.47 170.26C144.47 168.76 145.52 167.52 146.81 167.5C148.11 167.48 149.16 168.68 149.16 170.18Z" fill="#84817D"/>
<path d="M399.43 68.3399V57.6799C399.43 55.0899 397.21 53.2099 394.47 53.4799L279.59 64.9899C277.31 65.2199 275.46 67.3099 275.46 69.6699V79.3599L399.43 68.3399Z" fill="#A3C9F6"/>
<path d="M291.98 115.17V109.83C291.98 108.37 290.83 107.26 289.4 107.36L153.46 116.29C152.33 116.36 151.42 117.48 151.42 118.77V123.51L291.98 115.17Z" fill="white"/>
<path d="M243.1 196.14L196.89 195.9V142.56L243.1 140.68V196.14Z" fill="white"/>
<path d="M260.86 162.73C259.32 160.35 244.91 134.37 243.16 131.26C241.42 128.16 238.94 127.23 235.73 127.4C234.92 127.44 233.16 127.53 230.85 127.65C224.5 127.98 213.03 128.58 206.43 128.92C204.22 129.03 202.55 129.12 201.79 129.16C198.78 129.32 196.47 130.46 194.86 133.6C193.25 136.73 180.34 162.24 179 164.54C177.66 166.83 177.66 169.59 179.9 174.08C182.15 178.59 193.49 200.88 194.86 203.7C196.24 206.53 198.31 208.22 201.79 208.27C202.57 208.28 204.4 208.31 206.79 208.35C215.16 208.48 230.49 208.72 230.49 208.72C232.98 208.76 234.91 208.79 235.73 208.8C239.43 208.86 241.67 207.17 243.16 204.27C244.66 201.36 257.28 177.85 259.83 172.98C262.39 168.09 262.41 165.12 260.86 162.73ZM237.43 189.28H229.34L218.57 169.15L207.99 189.29H200.29L210.82 168.55L200.29 148.19L208.11 147.91L218.58 167.66L229.23 147.15L237.44 146.86L226.43 168.27L237.43 189.28Z" fill="#3097D8"/>
<path d="M370.26 154.44C368.88 145.53 362.78 138.8 355.22 137.87C362.78 136.35 368.88 129.13 370.26 120.12C371.65 129.01 377.82 135.75 385.64 136.68C377.83 138.22 371.65 145.44 370.26 154.44Z" fill="white"/>
<path d="M343.23 120.52C342.25 114.09 337.92 109.31 332.53 108.76C337.92 107.54 342.25 102.22 343.23 95.6602C344.21 102.08 348.59 106.86 354.11 107.41C348.59 108.65 344.21 113.98 343.23 120.52Z" fill="white"/>
<path d="M450.68 134.36C449.53 127.39 444.46 122.18 438.16 121.52C444.46 120.25 449.53 114.54 450.68 107.46C451.83 114.42 456.95 119.63 463.43 120.29C456.95 121.58 451.83 127.29 450.68 134.36Z" fill="white"/>
<defs>
<radialGradient id="paint0_radial" cx="0" cy="0" r="1" gradientUnits="userSpaceOnUse" gradientTransform="translate(275.465 135.512) scale(80.9689)">
<stop stop-color="#A3C9F6"/>
<stop offset="0.8844" stop-color="#62A3F0"/>
<stop offset="1" stop-color="#60A2F0"/>
</radialGradient>
</defs>
</svg>
