<svg width="636" height="300" viewBox="0 0 636 300" fill="none" xmlns="http://www.w3.org/2000/svg">
<path d="M534.65 190.62C535.06 188.99 536.49 181.81 536.49 180.07C536.49 167.99 526 158.2 513.05 158.2C513.05 158.13 513.06 158.05 513.06 157.98C513.06 141.3 498.57 127.78 480.69 127.78C474.85 127.78 469.38 129.25 464.65 131.77C459.63 115.14 443.29 102.94 423.86 102.94C404.86 102.94 388.78 114.6 383.38 130.68C380.21 128.92 376.52 127.89 372.56 127.89C360.85 127.89 351.35 136.75 351.35 147.68C351.35 148.89 351.48 150.08 351.71 151.23C337.56 152.5 326.5 163.61 326.5 177.14C326.5 181.09 329.6 195.29 331.29 198.64C411.3 196.2 499.69 192.14 534.65 190.62Z" fill="url(#paint0_radial)"/>
<path d="M135.21 74.7898V252.58C135.21 258.33 140.76 262.89 146.5 262.51L359.55 251.73C360.91 251.64 362.02 250.26 362.02 248.65V84.3398C362.02 82.7298 360.92 81.3498 359.55 81.2598L145.65 66.8798C139.91 66.4998 135.21 69.0398 135.21 74.7898Z" fill="#939393"/>
<path d="M152.09 77.49V252.05L355.52 242.9V89.7L152.09 77.49Z" fill="url(#paint1_radial)"/>
<path d="M152.09 77.49V106.23L355.52 114.41V89.7L152.09 77.49Z" fill="#98C2F5"/>
<path d="M320.81 126.43L241.89 123.25V164.01L252.05 164.2L251.21 173.29L265.07 164.12L320.81 164.94V126.43Z" fill="white"/>
<path d="M284.11 137.19C284.09 137.19 284.07 137.19 284.05 137.19L255.11 136.22C254.12 136.19 253.35 135.36 253.38 134.37C253.41 133.38 254.27 132.62 255.23 132.64L284.17 133.61C285.16 133.64 285.93 134.47 285.9 135.46C285.86 136.43 285.07 137.19 284.11 137.19Z" fill="#B2B2B2"/>
<path d="M287.25 146.03C287.24 146.03 287.23 146.03 287.22 146.03L279.98 145.93C278.99 145.92 278.21 145.1 278.22 144.12C278.23 143.13 279.02 142.34 280.03 142.36L287.27 142.46C288.26 142.47 289.04 143.29 289.03 144.27C289.02 145.25 288.22 146.03 287.25 146.03Z" fill="#B2B2B2"/>
<path d="M272.05 145.81C272.03 145.81 272.01 145.81 271.99 145.81L254.46 145.2C253.47 145.17 252.7 144.34 252.74 143.35C252.77 142.36 253.61 141.59 254.59 141.63L272.12 142.24C273.11 142.27 273.88 143.1 273.84 144.09C273.8 145.05 273 145.81 272.05 145.81Z" fill="#B2B2B2"/>
<path d="M266.57 155.36H266.56L255.15 155.28C254.16 155.27 253.37 154.47 253.38 153.48C253.39 152.49 254.2 151.72 255.18 151.71L266.59 151.79C267.58 151.8 268.37 152.6 268.36 153.59C268.35 154.57 267.56 155.36 266.57 155.36Z" fill="#B2B2B2"/>
<path d="M333.75 129.99C333.75 116.68 324.39 105.46 312.66 104.92C300.71 104.38 290.85 115.09 290.85 128.86C290.85 142.63 300.71 153.86 312.66 153.94C324.4 154.03 333.75 143.3 333.75 129.99Z" fill="#FEDBA1"/>
<path d="M314.79 142.35L310.76 142.29V129.92L314.79 130.03V142.35Z" fill="#EEAB42"/>
<path d="M296.14 139.67C296.22 138.7 296.94 137.97 297.8 137.98L327.04 138.55C327.91 138.57 328.64 139.35 328.72 140.36L329.08 145.12C325.24 150.54 319.33 153.99 312.65 153.94C305.87 153.89 299.77 150.25 295.75 144.58L296.14 139.67Z" fill="#EEAB42"/>
<path d="M328.45 129.76L327.78 121.01C327.5 117.38 324.88 114.5 321.71 114.38L303.41 113.68C300.14 113.55 297.39 116.29 297.11 119.99L296.41 128.92C296.33 129.9 297.02 130.76 297.89 130.78L308.54 131.05C309 133.34 310.79 135.08 312.92 135.13C315.04 135.18 316.81 133.52 317.27 131.27L327.04 131.51C327.87 131.53 328.53 130.72 328.45 129.76Z" fill="#E29E3B"/>
<path d="M321.65 121.57L303.79 120.99C302.34 120.94 301.16 122.24 301.16 123.89C301.16 125.54 302.34 126.91 303.79 126.95L321.65 127.45C323.06 127.49 324.2 126.21 324.2 124.59C324.2 122.97 323.06 121.62 321.65 121.57Z" fill="#FAC670"/>
<path d="M306.98 123.84C306.98 125.09 306.09 126.07 304.99 126.04C303.89 126.01 303 124.97 303 123.72C303 122.47 303.89 121.48 304.99 121.52C306.09 121.56 306.98 122.6 306.98 123.84Z" fill="white"/>
<path d="M313.34 124.04C313.34 125.28 312.46 126.26 311.37 126.23C310.28 126.2 309.4 125.16 309.4 123.92C309.4 122.68 310.28 121.69 311.37 121.73C312.46 121.76 313.34 122.8 313.34 124.04Z" fill="white"/>
<path d="M285.57 182.74L286.56 174.59L274.61 182.89L211.19 183.18V232.39L292.07 229.69L291.63 182.66L285.57 182.74Z" fill="#B2B2B2"/>
<path d="M232.97 199.99C231.92 199.96 231.07 199.12 231.03 198.06C230.99 196.96 231.86 196.03 232.96 195.99L278.04 194.44C279.14 194.4 280.07 195.27 280.11 196.37C280.15 197.47 279.28 198.4 278.18 198.44L233.1 199.99C233.06 200 233.01 200 232.97 199.99Z" fill="white"/>
<path d="M251.41 209.17C250.38 209.14 249.53 208.33 249.48 207.28C249.42 206.18 250.26 205.23 251.36 205.17L277.4 203.71C278.5 203.63 279.45 204.49 279.51 205.59C279.57 206.69 278.73 207.64 277.63 207.7L251.59 209.16C251.52 209.17 251.47 209.17 251.41 209.17Z" fill="white"/>
<path d="M225.71 211.06C224.69 211.03 223.84 210.23 223.78 209.19C223.71 208.09 224.54 207.14 225.65 207.06L243.86 205.88C244.98 205.81 245.91 206.64 245.99 207.75C246.06 208.85 245.23 209.8 244.12 209.88L225.91 211.06C225.83 211.06 225.77 211.06 225.71 211.06Z" fill="white"/>
<path d="M170.22 187.75C170.22 172.6 182.14 160.36 196.58 160.4C210.73 160.44 221.99 172.31 221.99 186.91C221.99 201.51 210.73 213.75 196.58 214.25C182.15 214.76 170.22 202.9 170.22 187.75Z" fill="#A4ECFC"/>
<path d="M205.11 170.1L188.28 170.17C186.28 170.18 184.6 171.76 184.41 173.83L183.52 183.58C183.3 185.94 185.1 187.95 187.39 187.91L205.96 187.6C208.18 187.56 209.92 185.53 209.71 183.22L208.85 173.66C208.69 171.64 207.06 170.1 205.11 170.1Z" fill="#0B7891"/>
<path d="M207.5 203.84L185.83 204.45C179.76 204.62 174.8 199.66 174.8 193.37C174.8 187.08 179.76 181.92 185.83 181.85L207.5 181.59C213.33 181.52 218.03 186.41 218.03 192.5C218.03 198.6 213.33 203.67 207.5 203.84Z" fill="#1DACCC"/>
<path d="M207.94 198.57L185.74 199.11C184.53 199.14 183.55 198.15 183.55 196.9C183.55 195.65 184.53 194.61 185.74 194.59L207.94 194.12C209.11 194.1 210.06 195.07 210.06 196.3C210.06 197.52 209.11 198.54 207.94 198.57Z" fill="#0B7891"/>
<path d="M195.059 176.19C195.059 178.07 193.589 179.61 191.779 179.63C189.959 179.65 188.479 178.13 188.479 176.25C188.479 174.37 189.959 172.82 191.779 172.81C193.599 172.79 195.059 174.31 195.059 176.19Z" fill="white"/>
<path d="M205.19 176.1C205.19 177.97 203.74 179.49 201.96 179.51C200.17 179.53 198.71 178.03 198.71 176.15C198.71 174.28 200.17 172.75 201.96 172.74C203.75 172.73 205.19 174.24 205.19 176.1Z" fill="white"/>
<path d="M186.59 194.59V195.49C186.59 195.97 186.97 196.35 187.43 196.34L189.21 196.3C189.67 196.29 190.05 195.89 190.05 195.41V194.52C190.05 194.51 190.05 194.51 190.05 194.5L186.59 194.57C186.59 194.58 186.59 194.58 186.59 194.59Z" fill="#A4ECFC"/>
<path d="M193.47 197.02L191.7 197.06C191.24 197.07 190.86 197.47 190.86 197.95V198.84C190.86 198.89 190.87 198.94 190.87 198.99L194.28 198.91C194.29 198.86 194.29 198.81 194.29 198.76V197.87C194.3 197.39 193.93 197.01 193.47 197.02Z" fill="#A4ECFC"/>
<path d="M195.1 194.41V195.3C195.1 195.78 195.47 196.16 195.93 196.15L197.69 196.11C198.15 196.1 198.52 195.71 198.52 195.23V194.34C198.52 194.33 198.52 194.33 198.52 194.32L195.11 194.39C195.11 194.4 195.1 194.4 195.1 194.41Z" fill="#A4ECFC"/>
<path d="M201.77 196.83L200.02 196.87C199.56 196.88 199.19 197.27 199.19 197.75V198.64C199.19 198.69 199.2 198.74 199.2 198.79L202.57 198.71C202.58 198.66 202.58 198.61 202.58 198.56V197.67C202.6 197.2 202.23 196.82 201.77 196.83Z" fill="#A4ECFC"/>
<path d="M203.39 194.24V195.12C203.39 195.59 203.76 195.97 204.21 195.96L205.95 195.92C206.4 195.91 206.77 195.52 206.77 195.04V194.16C206.77 194.15 206.77 194.15 206.77 194.14L203.4 194.21C203.39 194.22 203.39 194.23 203.39 194.24Z" fill="#A4ECFC"/>
<path d="M200.9 207.49L193.15 207.73C192.22 207.76 191.47 207 191.47 206.04C191.47 205.08 192.22 204.27 193.15 204.25L200.9 204.03C201.82 204 202.56 204.76 202.56 205.72C202.56 206.67 201.81 207.46 200.9 207.49Z" fill="#0B7891"/>
<path d="M200.9 210.79L193.15 211.05C192.22 211.08 191.47 210.32 191.47 209.36C191.47 208.4 192.22 207.59 193.15 207.56L200.9 207.32C201.82 207.29 202.56 208.05 202.56 209C202.56 209.96 201.81 210.76 200.9 210.79Z" fill="#0B7891"/>
<path d="M200.92 210.63L193.12 210.89C192.21 210.92 191.46 211.71 191.46 212.66V212.71C191.46 213.23 191.69 213.69 192.05 213.99C193.5 214.2 194.99 214.3 196.5 214.25L196.66 214.24C198.56 214.17 200.41 213.88 202.19 213.4C202.41 213.1 202.56 212.73 202.56 212.32V212.27C202.56 211.34 201.83 210.6 200.92 210.63Z" fill="#0B7891"/>
<path d="M194.27 175.7C194.27 176.59 193.57 177.33 192.71 177.33C191.85 177.34 191.15 176.62 191.15 175.72C191.15 174.82 191.85 174.09 192.71 174.09C193.58 174.08 194.27 174.8 194.27 175.7Z" fill="#33D5F9"/>
<path d="M204.42 175.62C204.42 176.51 203.73 177.23 202.88 177.24C202.03 177.25 201.34 176.53 201.34 175.64C201.34 174.75 202.03 174.02 202.88 174.02C203.73 174.02 204.42 174.73 204.42 175.62Z" fill="#33D5F9"/>
<path d="M497.49 222.34L495.97 238.32C495.83 239.82 494.74 240.99 493.45 241.05L474.75 241.93C473.43 241.99 472.31 240.91 472.17 239.4L470.6 223.32C470.43 221.56 471.63 219.98 473.19 219.92L494.99 219.17C496.48 219.11 497.65 220.59 497.49 222.34Z" fill="#625F5B"/>
<path d="M470.46 172.37L472.03 156.22C472.18 154.71 473.29 153.58 474.61 153.58L493.31 153.65C494.6 153.65 495.69 154.78 495.83 156.27L497.35 172.18C497.52 173.92 496.35 175.45 494.83 175.46L473.03 175.66C471.51 175.67 470.3 174.14 470.46 172.37Z" fill="#625F5B"/>
<path d="M472.39 215.42L499.36 214.56C501.17 214.5 502.65 216.03 502.65 217.97V222.75C502.65 224.68 501.18 226.32 499.36 226.39L472.39 227.43C470.52 227.5 468.99 225.96 468.99 223.98V219.11C468.98 217.13 470.52 215.48 472.39 215.42ZM499.36 224.15C500.03 224.13 500.56 223.53 500.56 222.82V218.03C500.56 217.32 500.02 216.76 499.36 216.78L472.39 217.67C471.7 217.69 471.15 218.3 471.15 219.02V223.89C471.15 224.61 471.71 225.18 472.39 225.15L499.36 224.15Z" fill="#D69521"/>
<path d="M499.39 222.34L497.87 238.32C497.73 239.82 496.64 240.99 495.35 241.05L476.65 241.93C475.33 241.99 474.21 240.91 474.07 239.4L472.5 223.32C472.33 221.56 473.53 219.98 475.09 219.92L496.89 219.17C498.37 219.11 499.55 220.59 499.39 222.34Z" fill="#7F7F7F"/>
<path d="M473.07 229.37L498.81 228.35L499.38 222.34C499.55 220.59 498.38 219.12 496.86 219.17L475.06 219.92C473.51 219.97 472.3 221.56 472.47 223.32L473.07 229.37Z" fill="#505050"/>
<path d="M499.36 179.96L472.39 180.27C470.52 180.29 468.99 178.71 468.99 176.73V171.86C468.99 169.89 470.52 168.27 472.39 168.27L499.36 168.14C501.17 168.13 502.65 169.7 502.65 171.63V176.41C502.65 178.35 501.17 179.93 499.36 179.96ZM472.39 170.53C471.7 170.53 471.15 171.12 471.15 171.85V176.72C471.15 177.44 471.71 178.02 472.39 178.02L499.36 177.74C500.03 177.73 500.56 177.15 500.56 176.44V171.65C500.56 170.94 500.02 170.37 499.36 170.37L472.39 170.53Z" fill="#D69521"/>
<path d="M472.36 172.37L473.93 156.22C474.08 154.71 475.19 153.58 476.51 153.58L495.21 153.65C496.5 153.65 497.59 154.78 497.73 156.27L499.25 172.18C499.42 173.92 498.25 175.45 496.73 175.46L474.93 175.66C473.4 175.67 472.19 174.14 472.36 172.37Z" fill="#7F7F7F"/>
<path d="M498.74 166.69L472.9 166.79L472.36 172.37C472.19 174.14 473.39 175.67 474.95 175.66L496.75 175.46C498.26 175.45 499.43 173.92 499.27 172.18L498.74 166.69Z" fill="#505050"/>
<path d="M505.54 191.81L507.58 191.77C508.19 191.76 508.68 191.22 508.68 190.57V184.63C508.68 183.98 508.19 183.46 507.58 183.46L505.54 183.49C504.93 183.5 504.44 184.04 504.44 184.69V190.65C504.43 191.3 504.92 191.82 505.54 191.81Z" fill="#D2D2D2"/>
<path d="M508.68 184.85L507.36 184.87V185.61L508.68 185.59V184.85Z" fill="#939393"/>
<path d="M508.68 186.33L507.36 186.35V187.09L508.68 187.07V186.33Z" fill="#939393"/>
<path d="M508.68 187.81L507.36 187.83V188.57L508.68 188.55V187.81Z" fill="#939393"/>
<path d="M508.68 189.28L507.36 189.3V190.04L508.68 190.02V189.28Z" fill="#939393"/>
<path d="M500.27 221.45L471.32 222.48C468.14 222.59 465.56 219.97 465.56 216.63V179.55C465.56 176.21 468.15 173.47 471.32 173.45L500.27 173.23C503.33 173.21 505.81 175.84 505.81 179.11V215.35C505.81 218.61 503.34 221.35 500.27 221.45Z" fill="#848484"/>
<path d="M505.81 183.48V179.1C505.81 175.83 503.33 173.2 500.27 173.22L471.32 173.44C468.14 173.46 465.56 176.2 465.56 179.54V184.02L505.81 183.48Z" fill="#98C2F5"/>
<path d="M498.65 222.57L469.7 223.62C465.93 223.76 462.85 220.64 462.85 216.67V179.57C462.85 175.6 465.93 172.35 469.7 172.32L498.65 172.12C502.28 172.09 505.22 175.22 505.22 179.1V215.31C505.23 219.18 502.29 222.44 498.65 222.57ZM469.7 174.59C467.12 174.61 465.02 176.83 465.02 179.55V216.61C465.02 219.32 467.12 221.45 469.7 221.36L498.65 220.34C501.14 220.25 503.15 218.02 503.15 215.37V179.12C503.15 176.47 501.13 174.33 498.65 174.35L469.7 174.59Z" fill="#625F5B"/>
<path d="M500.27 222.57L471.32 223.62C467.55 223.76 464.47 220.64 464.47 216.67V179.57C464.47 175.6 467.55 172.35 471.32 172.32L500.27 172.12C503.9 172.09 506.84 175.22 506.84 179.1V215.31C506.85 219.18 503.91 222.44 500.27 222.57ZM471.32 174.59C468.74 174.61 466.64 176.83 466.64 179.55V216.61C466.64 219.32 468.74 221.45 471.32 221.36L500.27 220.34C502.76 220.25 504.77 218.02 504.77 215.37V179.12C504.77 176.47 502.75 174.33 500.27 174.35L471.32 174.59Z" fill="#505050"/>
<path d="M478.49 188.79L493.28 188.55C496.05 188.5 498.31 190.88 498.31 193.82V202.21C498.31 205.15 496.05 207.63 493.28 207.7L488.08 207.84V213.1L483.11 207.98L478.49 208.11C475.66 208.19 473.34 205.81 473.34 202.82V194.31C473.34 191.32 475.67 188.83 478.49 188.79Z" fill="#EEAB42"/>
<path d="M479.85 197.15L492.39 196.88C492.83 196.87 493.18 196.49 493.18 196.02C493.18 195.55 492.83 195.18 492.39 195.19L479.85 195.45C479.4 195.46 479.04 195.84 479.04 196.32C479.04 196.79 479.4 197.16 479.85 197.15Z" fill="white"/>
<path d="M479.85 201.14L492.39 200.84C492.83 200.83 493.18 200.45 493.18 199.98C493.18 199.51 492.83 199.14 492.39 199.15L479.85 199.43C479.4 199.44 479.04 199.83 479.04 200.3C479.04 200.78 479.4 201.15 479.85 201.14Z" fill="white"/>
<path d="M434.33 48.0599L387.25 43.6999C381.92 43.3599 377.57 47.6899 377.57 53.3499V176.57C377.57 182.24 381.92 186.75 387.25 186.65L434.33 186.71C439.35 186.62 443.39 182.11 443.39 176.67V58.5099C443.4 53.0499 439.34 48.3799 434.33 48.0599ZM439.63 176.15C439.63 179.55 437.1 182.35 433.97 182.41L387.61 182.22C384.3 182.27 381.6 179.46 381.6 175.94V54.1799C381.6 50.6599 384.3 47.9699 387.61 48.1699L433.97 52.3699C437.1 52.5599 439.63 55.4699 439.63 58.8799V176.15Z" fill="#625F5B"/>
<path d="M437.45 51.4198L388.92 47.0598C385.43 46.8498 382.59 49.6198 382.59 53.2698V178.6C382.59 181.25 384.66 183.37 387.2 183.32L438.47 183.4C440.86 183.36 442.79 181.26 442.79 178.69V57.4798C442.78 54.3098 440.39 51.5998 437.45 51.4198Z" fill="url(#paint2_radial)"/>
<path d="M440.22 51.5899L386.34 46.9099C384.83 46.8199 383.6 48.0399 383.6 49.6399V57.9199L442.79 62.5499V54.5499C442.78 53.0099 441.63 51.6799 440.22 51.5899Z" fill="#98C2F5"/>
<path d="M397.49 48.4399V49.3699C397.49 51.6299 399.21 53.5599 401.32 53.6799L424.18 55.8799C427.16 56.2099 429.55 54.2999 429.55 51.2999V50.3899L397.49 48.4399Z" fill="#444444"/>
<path d="M420.62 53.23C421.18 53.26 421.64 52.8 421.64 52.19C421.64 51.58 421.18 51.06 420.62 51.03C420.06 51 419.6 51.46 419.6 52.07C419.6 52.68 420.06 53.2 420.62 53.23Z" fill="#737373"/>
<path d="M410.17 52.32L416.7 52.81C417.12 52.83 417.47 52.48 417.47 52.03C417.47 51.57 417.12 51.18 416.7 51.16L410.17 50.67C409.74 50.64 409.4 51 409.4 51.45C409.4 51.91 409.75 52.29 410.17 52.32Z" fill="#737373"/>
<path d="M424.04 180.23L403.11 180.39C402.77 180.4 402.49 180.1 402.49 179.73C402.49 179.36 402.77 179.06 403.11 179.05L424.04 178.9C424.38 178.9 424.65 179.19 424.65 179.55C424.64 179.93 424.37 180.23 424.04 180.23Z" fill="#4D4D4D"/>
<path d="M436.68 48.0599L389.6 43.6999C384.27 43.3599 379.92 47.6899 379.92 53.3499V176.57C379.92 182.24 384.27 186.75 389.6 186.65L436.68 186.71C441.7 186.62 445.74 182.11 445.74 176.67V58.5099C445.74 53.0499 441.69 48.3799 436.68 48.0599ZM441.98 176.15C441.98 179.55 439.45 182.35 436.32 182.41L389.96 182.22C386.65 182.27 383.95 179.46 383.95 175.94V54.1799C383.95 50.6599 386.65 47.9699 389.96 48.1699L436.32 52.3699C439.45 52.5599 441.98 55.4699 441.98 58.8799V176.15Z" fill="#444444"/>
<path d="M420.37 82.7098C420.05 82.7098 389.77 80.7698 389.45 80.7698L389.66 100.57L406.57 101.51L411.19 106.68L411.06 101.83L420.36 102.39C420.37 102.39 420.69 82.7098 420.37 82.7098Z" fill="white"/>
<path d="M436.36 115.27L406.3 113.82L406.19 135.73L412.8 136.11V141.65L417.72 136.25L436.36 136.94V115.27Z" fill="#B2B2B2"/>
<path d="M421.81 85.7798C426.107 85.7798 429.59 82.5338 429.59 78.5298C429.59 74.5257 426.107 71.2798 421.81 71.2798C417.513 71.2798 414.03 74.5257 414.03 78.5298C414.03 82.5338 417.513 85.7798 421.81 85.7798Z" fill="#EEAB42"/>
<path d="M400.78 121.07C405.077 121.07 408.56 117.824 408.56 113.82C408.56 109.816 405.077 106.57 400.78 106.57C396.483 106.57 393 109.816 393 113.82C393 117.824 396.483 121.07 400.78 121.07Z" fill="#A4ECFC"/>
<path d="M395.6 88.0698L412.54 89.1898C412.98 89.1998 413.35 88.8298 413.35 88.3398C413.35 87.8598 412.99 87.4598 412.54 87.4398L395.6 86.3098C395.15 86.2998 394.77 86.6798 394.77 87.1698C394.78 87.6498 395.15 88.0598 395.6 88.0698Z" fill="#B2B2B2"/>
<path d="M395.6 92.1899L412.54 93.2699C412.98 93.2799 413.35 92.8999 413.35 92.4199C413.35 91.9399 412.99 91.5399 412.54 91.5199L395.6 90.4299C395.15 90.4199 394.77 90.7999 394.77 91.2899C394.78 91.7699 395.15 92.1799 395.6 92.1899Z" fill="#B2B2B2"/>
<path d="M412.21 121.09L428.89 121.81C429.33 121.82 429.69 121.44 429.69 120.95C429.69 120.48 429.34 120.08 428.89 120.07L412.21 119.34C411.76 119.33 411.39 119.72 411.39 120.2C411.4 120.69 411.76 121.08 412.21 121.09Z" fill="white"/>
<path d="M412.21 125.17L428.89 125.85C429.33 125.85 429.69 125.47 429.69 124.99C429.69 124.52 429.34 124.12 428.89 124.11L412.21 123.42C411.76 123.42 411.39 123.8 411.39 124.29C411.4 124.78 411.76 125.17 412.21 125.17Z" fill="white"/>
<path d="M412.21 129.31L421.4 129.69C421.84 129.69 422.21 129.31 422.21 128.83C422.21 128.35 421.85 127.96 421.4 127.95L412.21 127.56C411.76 127.56 411.39 127.94 411.39 128.43C411.4 128.91 411.76 129.3 412.21 129.31Z" fill="white"/>
<path d="M366.26 85.8398C366.26 83.2598 364.53 81.2698 361.46 80.9398L146.67 66.6698C142.71 66.3998 139.46 69.4398 139.46 73.4098V255.8C139.46 259.77 142.7 262.81 146.67 262.54L361.37 251.83C365.19 251.5 366.36 248.92 366.36 246.43L366.26 85.8398ZM354.15 238.8C354.15 240.06 353.28 241.12 352.2 241.19L159.32 249.16C157.89 249.24 156.73 248.13 156.73 246.68V82.5298C156.73 81.0798 157.89 79.9698 159.32 80.0498L352.2 91.1298C353.28 91.1898 354.15 92.2598 354.15 93.5198V238.8Z" fill="#4D4D4D"/>
<defs>
<radialGradient id="paint0_radial" cx="0" cy="0" r="1" gradientUnits="userSpaceOnUse" gradientTransform="translate(449.555 209.385) scale(116.05)">
<stop stop-color="white"/>
<stop offset="0.9695" stop-color="#B8D6F7"/>
</radialGradient>
<radialGradient id="paint1_radial" cx="0" cy="0" r="1" gradientUnits="userSpaceOnUse" gradientTransform="translate(333.948 314.599) scale(153.864)">
<stop offset="0.0994" stop-color="#B2B2B2"/>
<stop offset="1" stop-color="#848484"/>
</radialGradient>
<radialGradient id="paint2_radial" cx="0" cy="0" r="1" gradientUnits="userSpaceOnUse" gradientTransform="translate(376.943 210.191) scale(98.2599)">
<stop offset="0.0994" stop-color="#B2B2B2"/>
<stop offset="1" stop-color="#848484"/>
</radialGradient>
</defs>
</svg>
