<svg width="636" height="300" viewBox="0 0 636 300" fill="none" xmlns="http://www.w3.org/2000/svg">
<path d="M143.95 225.72L203.43 247.71C203.59 247.77 207.11 249.09 212.47 248.63L430.72 240.36C431.47 240.33 431.87 239.89 431.91 239.39C431.95 238.88 431.94 235.46 431.89 233.62L373.61 220.27C372.82 220.01 372.15 219.73 371.13 219.68L143.03 218.46C143.02 221.53 143.04 223.78 143.06 224.65C143.07 225.11 143.42 225.53 143.95 225.72Z" fill="#B2B2B2"/>
<path d="M501.74 128.65L521.19 129.46C522.23 129.5 523.06 130.35 523.07 131.39L523.55 169.33C523.56 170.44 522.66 171.34 521.55 171.31L501.46 170.94C500.39 170.92 499.53 170.04 499.54 168.97L499.7 130.59C499.7 129.49 500.63 128.6 501.74 128.65Z" fill="#FFB900"/>
<path d="M502.91 134.95L504.23 121.56C504.3 120.82 504.95 120.26 505.69 120.29L517.22 120.79C517.92 120.82 518.49 121.36 518.56 122.06L519.89 135.79C519.89 135.83 519.9 135.88 519.9 135.92L520.05 165.28C520.05 165.32 520.05 165.36 520.05 165.4L519.09 176.97C519.03 177.71 518.41 178.27 517.67 178.26L505.61 178.13C504.9 178.12 504.3 177.58 504.22 176.87L502.6 161.73C502.59 161.67 502.59 161.62 502.59 161.56L502.89 135.05C502.9 135.03 502.91 134.99 502.91 134.95Z" fill="#908D89"/>
<path d="M502.91 134.95C502.91 134.99 502.9 135.03 502.9 135.07L502.6 161.58C502.6 161.63 502.6 161.69 502.61 161.75L503.55 170.56L519.6 170.89L520.05 165.41C520.05 165.37 520.06 165.33 520.05 165.29L519.9 135.93C519.9 135.89 519.9 135.84 519.89 135.8L519.31 129.79L503.47 129.16L502.91 134.95Z" fill="#605D5A"/>
<path d="M487.08 155.92L340.81 152.86C339.34 152.82 337.98 152.01 337.98 150.54L337.95 39.5001C337.95 37.9101 339.31 36.6601 340.9 36.7901L487.1 49.1901C488.5 49.3101 489.58 50.4801 489.59 51.8901L489.88 153.19C489.88 154.73 488.62 155.96 487.08 155.92Z" fill="#605D5A"/>
<path d="M480.38 148.61L349.18 145.51C347.62 145.33 347.24 143.97 347.24 143.42L347.32 45.6198C347.32 45.0198 347.83 44.5498 348.43 44.5998L480.24 55.7398C480.77 55.7798 481.17 56.2198 481.17 56.7498L481.43 147.59C481.44 148.16 480.96 148.63 480.38 148.61Z" fill="#3E8EED"/>
<path d="M481.2 66.0701L481.17 56.7401C481.17 56.2101 480.76 55.7701 480.24 55.7301L348.43 44.5901C347.83 44.5401 347.32 45.0101 347.32 45.6101V56.9601L481.2 66.0701Z" fill="#98C2F5"/>
<path d="M458.09 104.36L369.05 99.5503C368.36 99.5203 367.82 98.9403 367.82 98.2503V90.4403C367.82 89.7003 368.44 89.1103 369.18 89.1403L458.22 93.9503C458.91 93.9803 459.45 94.5603 459.45 95.2503V103.06C459.46 103.8 458.84 104.39 458.09 104.36Z" fill="white"/>
<path d="M369.18 105.68L458.22 110.14C458.91 110.17 459.45 110.75 459.45 111.44V118.91C459.45 119.65 458.83 120.24 458.1 120.21L369.06 116.7C368.37 116.67 367.82 116.1 367.82 115.4V106.98C367.82 106.23 368.44 105.64 369.18 105.68Z" fill="#98C2F5"/>
<path d="M382.61 81.5799C385.592 81.5799 388.01 79.404 388.01 76.7199C388.01 74.0358 385.592 71.8599 382.61 71.8599C379.628 71.8599 377.21 74.0358 377.21 76.7199C377.21 79.404 379.628 81.5799 382.61 81.5799Z" fill="#F7B548"/>
<path d="M415.39 83.6502C418.372 83.6502 420.79 81.4743 420.79 78.7902C420.79 76.1061 418.372 73.9302 415.39 73.9302C412.408 73.9302 409.99 76.1061 409.99 78.7902C409.99 81.4743 412.408 83.6502 415.39 83.6502Z" fill="#F7B548"/>
<path d="M448.16 85.72C451.142 85.72 453.56 83.5441 453.56 80.86C453.56 78.1759 451.142 76 448.16 76C445.178 76 442.76 78.1759 442.76 80.86C442.76 83.5441 445.178 85.72 448.16 85.72Z" fill="#F7B548"/>
<path d="M366.68 219.55L143.23 218.81C141.13 218.82 140.93 214.32 140.93 213.25V60.7599C140.93 58.5899 142.74 56.8699 144.9 56.9599L366.84 71.8999C368.87 71.9899 370.47 73.6599 370.47 75.6999V215.75C370.47 217.85 368.78 219.55 366.68 219.55Z" fill="#B2B2B2"/>
<path d="M368.88 219.55L153.35 218.61C151.25 218.62 143.14 219.22 143.14 218.15V60.7599C143.14 58.5899 144.95 56.8699 147.11 56.9599L369.03 71.8999C371.06 71.9899 372.66 73.6599 372.66 75.6999V215.75C372.67 217.85 370.97 219.55 368.88 219.55Z" fill="#605D5A"/>
<path d="M357.39 203.91L158.1 206.54C156.53 206.54 155.26 205.27 155.26 203.7V70.9501C155.26 69.3301 156.61 68.0401 158.23 68.1101L357.83 81.9901C359.35 82.0601 360.55 83.3101 360.55 84.8301L360.46 200.93C360.45 202.49 358.96 203.91 357.39 203.91Z" fill="#D5D3D0"/>
<path d="M205.37 145.17L174.43 144.25V116.07L205.37 116.99V145.17Z" stroke="#FF00FF" stroke-width="1.0976" stroke-miterlimit="10"/>
<path d="M209.09 177.56L171.11 177.64V107.39L208.86 108.54L209.09 177.56Z" fill="white"/>
<path d="M205.43 145.11L174.43 144.25V116.07L205.37 116.99L205.43 145.11Z" fill="#3E8EED"/>
<path d="M202.99 156.88L177.26 156.12C175.77 156.08 174.59 154.86 174.59 153.37C174.59 151.82 175.87 150.57 177.43 150.62L203.16 151.38C204.65 151.42 205.83 152.64 205.83 154.13C205.83 155.68 204.54 156.93 202.99 156.88Z" fill="#98C2F5"/>
<path d="M202.99 165.66L177.26 164.9C175.77 164.86 174.59 163.64 174.59 162.15C174.59 160.6 175.87 159.35 177.43 159.4L203.16 160.16C204.65 160.2 205.83 161.42 205.83 162.91C205.83 164.46 204.54 165.71 202.99 165.66Z" fill="#98C2F5"/>
<path d="M190.66 174.24C192.333 174.24 193.69 172.884 193.69 171.21C193.69 169.537 192.333 168.18 190.66 168.18C188.987 168.18 187.63 169.537 187.63 171.21C187.63 172.884 188.987 174.24 190.66 174.24Z" fill="#98C2F5"/>
<path d="M194.8 113.25C194.79 113.25 194.79 113.25 194.78 113.25L186.2 112.94C185.9 112.93 185.66 112.68 185.67 112.37C185.68 112.07 185.94 111.83 186.24 111.84L194.82 112.15C195.12 112.16 195.36 112.41 195.35 112.72C195.34 113.02 195.09 113.25 194.8 113.25Z" fill="#3E8EED"/>
<path d="M260.86 177.72L223.72 177.42L223.36 109.44L260.2 111.17L260.86 177.72Z" fill="white"/>
<path d="M257.29 161.33L227.04 160.65L226.81 118.07L257.06 118.98L257.29 161.33Z" fill="#3E8EED"/>
<path d="M357.83 81.9901L271.43 76.0801V205.14L357.58 203.99C359.15 203.99 360.54 202.63 360.54 201.05V84.8201C360.54 83.3001 359.35 82.0501 357.83 81.9901Z" fill="#84817D"/>
<path d="M360.54 105.07V84.8199C360.54 83.2999 359.34 82.0499 357.82 81.9799L158.22 68.0999C156.6 68.0299 155.25 69.3199 155.25 70.9399V94.7499L360.54 105.07Z" fill="#F7B548"/>
<path d="M343.01 112.15C342.99 112.15 342.97 112.15 342.94 112.15L285.81 109.85C284.9 109.81 284.19 109.05 284.23 108.14C284.27 107.23 285.04 106.53 285.94 106.56L343.07 108.86C343.98 108.9 344.69 109.66 344.65 110.57C344.62 111.46 343.89 112.15 343.01 112.15Z" fill="white"/>
<path d="M337.65 120.88C337.63 120.88 337.61 120.88 337.58 120.88L317.98 120.11C317.07 120.07 316.36 119.31 316.4 118.4C316.44 117.49 317.18 116.79 318.11 116.82L337.71 117.59C338.62 117.63 339.33 118.39 339.29 119.3C339.26 120.19 338.53 120.88 337.65 120.88Z" fill="white"/>
<path d="M311.15 119.94C311.13 119.94 311.11 119.94 311.09 119.94L294.86 119.36C293.95 119.33 293.24 118.56 293.27 117.66C293.3 116.75 294.06 116.04 294.97 116.07L311.2 116.65C312.11 116.68 312.82 117.45 312.79 118.35C312.76 119.25 312.03 119.94 311.15 119.94Z" fill="#F7B548"/>
<path d="M350.21 130.36C350.19 130.36 350.16 130.36 350.14 130.36L340.19 129.92C339.28 129.88 338.58 129.11 338.62 128.2C338.66 127.29 339.42 126.59 340.34 126.63L350.29 127.07C351.2 127.11 351.9 127.88 351.86 128.79C351.81 129.67 351.08 130.36 350.21 130.36Z" fill="white"/>
<path d="M333.98 129.82C333.96 129.82 333.94 129.82 333.92 129.82L310.33 129C309.42 128.97 308.71 128.21 308.74 127.3C308.77 126.39 309.53 125.68 310.44 125.71L334.03 126.53C334.94 126.56 335.65 127.32 335.62 128.23C335.59 129.12 334.86 129.82 333.98 129.82Z" fill="white"/>
<path d="M304.12 128.84C304.1 128.84 304.08 128.84 304.06 128.84L294.85 128.54C293.94 128.51 293.23 127.75 293.26 126.84C293.29 125.93 294.07 125.23 294.96 125.25L304.17 125.55C305.08 125.58 305.79 126.34 305.76 127.25C305.74 128.14 305 128.84 304.12 128.84Z" fill="white"/>
<path d="M340.1 139.11C340.08 139.11 340.07 139.11 340.05 139.11L325.04 138.65C324.13 138.62 323.42 137.86 323.44 136.95C323.47 136.04 324.24 135.32 325.14 135.35L340.15 135.81C341.06 135.84 341.77 136.6 341.75 137.51C341.71 138.41 340.98 139.11 340.1 139.11Z" fill="white"/>
<path d="M320.19 138.47C320.17 138.47 320.16 138.47 320.14 138.47L304.21 137.99C303.3 137.96 302.59 137.2 302.61 136.29C302.64 135.38 303.44 134.67 304.31 134.69L320.24 135.17C321.15 135.2 321.86 135.96 321.84 136.87C321.8 137.76 321.07 138.47 320.19 138.47Z" fill="#F7B548"/>
<path d="M350.21 148.41C350.19 148.41 350.16 148.41 350.14 148.41L340.49 148C339.58 147.96 338.88 147.19 338.92 146.28C338.96 145.37 339.71 144.67 340.64 144.71L350.29 145.12C351.2 145.16 351.9 145.93 351.86 146.84C351.81 147.72 351.08 148.41 350.21 148.41Z" fill="white"/>
<path d="M334.43 147.97C334.41 147.97 334.4 147.97 334.38 147.97L311.41 147.33C310.5 147.3 309.78 146.55 309.81 145.64C309.84 144.73 310.55 143.99 311.5 144.04L334.47 144.68C335.38 144.71 336.09 145.46 336.07 146.37C336.05 147.26 335.32 147.97 334.43 147.97Z" fill="white"/>
<path d="M304.56 147.23C304.54 147.23 304.52 147.23 304.5 147.23L294.85 146.87C293.94 146.84 293.23 146.07 293.27 145.16C293.3 144.25 294.07 143.55 294.98 143.58L304.63 143.94C305.54 143.97 306.25 144.74 306.21 145.65C306.18 146.53 305.45 147.23 304.56 147.23Z" fill="#F7B548"/>
<path d="M323.71 156.88C323.69 156.88 323.68 156.88 323.66 156.88L294.86 156.04C293.95 156.01 293.24 155.25 293.26 154.35C293.29 153.44 294.07 152.73 294.95 152.75L323.75 153.59C324.66 153.62 325.37 154.38 325.35 155.28C325.33 156.17 324.6 156.88 323.71 156.88Z" fill="white"/>
<path d="M343.77 166.37C343.75 166.37 343.74 166.37 343.72 166.37L321.51 165.76C320.6 165.73 319.88 164.98 319.91 164.07C319.93 163.16 320.7 162.44 321.6 162.47L343.81 163.08C344.72 163.11 345.44 163.86 345.41 164.77C345.39 165.67 344.66 166.37 343.77 166.37Z" fill="white"/>
<path d="M314.83 165.67C314.82 165.67 314.8 165.67 314.79 165.67L304.22 165.41C303.31 165.39 302.59 164.63 302.61 163.72C302.63 162.81 303.34 162.06 304.3 162.11L314.87 162.37C315.78 162.39 316.5 163.15 316.48 164.06C316.45 164.96 315.72 165.67 314.83 165.67Z" fill="white"/>
<path d="M331.52 175.1C331.51 175.1 331.49 175.1 331.48 175.1L307.13 174.49C306.22 174.47 305.5 173.71 305.53 172.8C305.55 171.89 306.34 171.15 307.22 171.2L331.57 171.81C332.48 171.83 333.2 172.59 333.17 173.5C333.14 174.39 332.41 175.1 331.52 175.1Z" fill="white"/>
<path d="M300.74 174.48C300.73 174.48 300.72 174.48 300.71 174.48L285.85 174.18C284.94 174.16 284.22 173.41 284.24 172.5C284.26 171.59 285.01 170.83 285.92 170.89L300.78 171.19C301.69 171.21 302.41 171.96 302.39 172.87C302.37 173.77 301.63 174.48 300.74 174.48Z" fill="#F7B548"/>
<path d="M350.21 184.51C350.19 184.51 350.17 184.51 350.15 184.51L340.35 184.14C339.44 184.11 338.73 183.34 338.77 182.43C338.8 181.52 339.55 180.84 340.48 180.85L350.28 181.22C351.19 181.25 351.9 182.02 351.86 182.93C351.82 183.81 351.09 184.51 350.21 184.51Z" fill="white"/>
<path d="M333.97 184.22C333.96 184.22 333.95 184.22 333.94 184.22L314.79 183.88C313.88 183.86 313.16 183.11 313.17 182.2C313.19 181.29 313.95 180.56 314.85 180.58L334 180.92C334.91 180.94 335.63 181.69 335.62 182.6C335.6 183.5 334.87 184.22 333.97 184.22Z" fill="white"/>
<path d="M307.63 183.68C307.62 183.68 307.62 183.68 307.61 183.68L295.05 183.54C294.14 183.53 293.41 182.78 293.42 181.87C293.43 180.96 294.16 180.21 295.09 180.24L307.65 180.38C308.56 180.39 309.29 181.14 309.28 182.05C309.26 182.96 308.53 183.68 307.63 183.68Z" fill="#F7B548"/>
<path d="M332.13 193.33C332.12 193.33 332.11 193.33 332.1 193.33L304.23 192.84C303.32 192.82 302.6 192.07 302.61 191.16C302.63 190.25 303.31 189.55 304.29 189.54L332.16 190.03C333.07 190.05 333.79 190.8 333.78 191.71C333.76 192.61 333.03 193.33 332.13 193.33Z" fill="white"/>
<path d="M236.54 129.42C238.213 129.42 239.57 128.063 239.57 126.39C239.57 124.716 238.213 123.36 236.54 123.36C234.867 123.36 233.51 124.716 233.51 126.39C233.51 128.063 234.867 129.42 236.54 129.42Z" fill="white"/>
<path d="M162.1 108.23V109.81L163.41 108.5V175.77L162.1 174.46V176.04L163.96 177.9L165.82 176.04V174.46L164.51 175.77V108.5L165.82 109.81V108.23L163.96 106.37L162.1 108.23Z" fill="white"/>
<path d="M230.56 124.05L228.98 123.99L230.24 125.35L219.53 124.94C218.57 124.9 217.66 125.24 216.97 125.91C216.28 126.57 215.9 127.47 215.9 128.43V151.71C215.9 152.26 215.68 152.78 215.29 153.17C214.89 153.56 214.36 153.76 213.82 153.74L209.02 153.61L208.99 154.71L213.79 154.84C213.82 154.84 213.85 154.84 213.88 154.84C214.7 154.84 215.47 154.53 216.06 153.95C216.67 153.36 217.01 152.56 217.01 151.71V128.43C217.01 127.77 217.27 127.16 217.75 126.7C218.22 126.24 218.86 126.02 219.51 126.04L230.22 126.45L228.86 127.71L230.44 127.77L232.37 125.98L230.56 124.05Z" fill="white"/>
<path d="M458.23 206.51L418.87 207.2C416.13 207.18 413.92 204.96 413.92 202.22V117.37C413.92 114.54 416.27 112.28 419.1 112.4L458.46 113.99C461.13 114.1 463.24 116.29 463.24 118.96V201.53C463.24 204.29 460.99 206.52 458.23 206.51Z" fill="#605D5A"/>
<path d="M457.31 203.1L419.81 203.8C418.33 203.79 417.14 202.59 417.14 201.11V118.33C417.14 116.8 418.41 115.58 419.94 115.64L457.44 117.15C458.88 117.21 460.02 118.39 460.02 119.84V200.4C460.02 201.9 458.8 203.11 457.31 203.1Z" fill="#3E8EED"/>
<path d="M460.02 125.74V119.86C460.02 118.42 458.88 117.23 457.44 117.17L419.94 115.66C418.41 115.6 417.14 116.82 417.14 118.35V124.23L460.02 125.74Z" fill="#F7B548"/>
<path d="M424.5 114.7C424.49 114.88 424.49 115.07 424.55 115.25L425.45 117.87C425.65 118.46 426.2 118.87 426.83 118.9L449.47 119.81C450.11 119.84 450.69 119.46 450.94 118.88L452.29 115.65L424.5 114.7Z" fill="#605D5A"/>
<path d="M452.07 132.98L424.08 132.08C423.36 132.05 422.89 131.41 422.83 130.73C422.78 130.13 423.47 129.45 424.18 129.48L452.17 130.38C452.89 130.41 453.45 131.02 453.42 131.73C453.39 132.45 452.78 133.01 452.07 132.98Z" fill="#98C2F5"/>
<path d="M424.79 146.8C426.187 146.8 427.32 145.739 427.32 144.43C427.32 143.121 426.187 142.06 424.79 142.06C423.393 142.06 422.26 143.121 422.26 144.43C422.26 145.739 423.393 146.8 424.79 146.8Z" fill="#F7B548"/>
<path d="M438.27 147.3C439.667 147.3 440.8 146.239 440.8 144.93C440.8 143.621 439.667 142.56 438.27 142.56C436.873 142.56 435.74 143.621 435.74 144.93C435.74 146.239 436.873 147.3 438.27 147.3Z" fill="#F7B548"/>
<path d="M451.75 147.8C453.147 147.8 454.28 146.739 454.28 145.43C454.28 144.121 453.147 143.06 451.75 143.06C450.353 143.06 449.22 144.121 449.22 145.43C449.22 146.739 450.353 147.8 451.75 147.8Z" fill="#F7B548"/>
<path d="M454.08 164.21L422.92 163.61C422.12 163.59 421.47 162.94 421.47 162.14V155.57C421.47 154.74 422.15 154.08 422.98 154.1L454.14 154.87C454.94 154.89 455.58 155.54 455.58 156.34V162.74C455.58 163.56 454.9 164.23 454.08 164.21Z" fill="white"/>
<path d="M421.47 168.91C421.47 168.08 422.15 167.42 422.98 167.44L454.14 167.95C454.94 167.97 455.58 168.62 455.58 169.42V175.82C455.58 176.64 454.9 177.31 454.08 177.29L422.92 176.95C422.12 176.93 421.47 176.28 421.47 175.48V168.91Z" fill="white"/>
<path d="M454.08 190.38L422.92 190.43C422.12 190.41 421.47 189.76 421.47 188.96V182.37C421.47 181.54 422.15 180.88 422.98 180.9L454.14 181.04C454.94 181.06 455.58 181.71 455.58 182.51V188.91C455.58 189.73 454.9 190.39 454.08 190.38Z" fill="#98C2F5"/>
<path d="M521.89 168.44C521.85 168.44 521.8 168.44 521.76 168.44L500.68 167.83C498.34 167.76 496.51 165.87 496.51 163.53V135.77C496.51 134.59 496.98 133.5 497.82 132.68C498.67 131.86 499.78 131.43 500.95 131.48L522.03 132.21C524.36 132.29 526.18 134.18 526.18 136.5V164.14C526.18 165.31 525.72 166.41 524.88 167.22C524.07 168.01 523.01 168.44 521.89 168.44Z" fill="#605D5A"/>
<path d="M500.8 134.76C500.54 134.76 500.29 134.86 500.1 135.04C499.9 135.23 499.79 135.49 499.79 135.76V163.52C499.79 164.07 500.22 164.51 500.77 164.52L521.85 165.13C522.13 165.15 522.38 165.04 522.58 164.85C522.78 164.66 522.88 164.4 522.88 164.13V136.5C522.88 135.96 522.45 135.52 521.91 135.5L500.83 134.77C500.83 134.76 500.82 134.76 500.8 134.76Z" fill="#3E8EED"/>
<path d="M511.4 143.28C513.432 143.28 515.08 141.807 515.08 139.99C515.08 138.173 513.432 136.7 511.4 136.7C509.368 136.7 507.72 138.173 507.72 139.99C507.72 141.807 509.368 143.28 511.4 143.28Z" fill="#F7B548"/>
<path d="M521.11 153.53L502.04 153.03C501.62 153.02 501.29 152.68 501.29 152.26V147.21C501.29 146.78 501.65 146.43 502.08 146.44L521.15 146.94C521.57 146.95 521.9 147.29 521.9 147.71V152.76C521.9 153.19 521.54 153.54 521.11 153.53Z" fill="white"/>
<path d="M521.11 162.5L502.04 162C501.62 161.99 501.29 161.65 501.29 161.23V156.18C501.29 155.75 501.65 155.4 502.08 155.41L521.15 155.91C521.57 155.92 521.9 156.26 521.9 156.68V161.73C521.9 162.16 521.54 162.51 521.11 162.5Z" fill="#98C2F5"/>
<path d="M143.95 219.84L203.43 241.13C203.59 241.19 207.11 242.51 212.47 242.05L430.72 234.7C432.25 234.65 432.33 232.87 430.87 232.4L373.61 213.69C372.82 213.43 372.15 213.15 371.13 213.1L144.38 217.18C142.87 217.21 142.52 219.33 143.95 219.84Z" fill="#797673"/>
<path d="M193.37 219.02L348.57 216.98L377.98 225.96L228.09 230.05L193.37 219.02Z" fill="#605D5A"/>
</svg>
