<svg width="636" height="300" viewBox="0 0 636 300" fill="none" xmlns="http://www.w3.org/2000/svg">
<path d="M326.99 17.3999H268.17C266.02 17.3999 264.28 19.2999 264.28 21.6499V87.6399C264.28 89.9899 266.02 91.8899 268.16 91.8899H328.53V19.0899C328.54 18.1599 327.84 17.3999 326.99 17.3999Z" fill="#76AFF2"/>
<path d="M268.47 91.89H328.6V80.75H268.22C266.65 80.75 265.38 82.02 265.38 83.59V88.81C265.38 90.51 266.76 91.89 268.47 91.89Z" fill="#CAE0FA"/>
<path d="M328.54 91.3699H268.17C266.83 91.3699 265.74 90.1799 265.74 88.7099V84.1699C265.74 82.6999 266.83 81.5099 268.17 81.5099H328.54V79.9199H268.17C266.03 79.9199 264.28 81.8299 264.28 84.1699V88.7099C264.28 91.0499 266.02 92.9599 268.17 92.9599H328.54V91.3699Z" fill="#3E8EED"/>
<path d="M288.37 100.93L281.02 98.1199L273.17 100.93V83.1799H288.37V100.93Z" fill="#E86E58"/>
<path d="M318.18 26.4399H274.72V37.6999H318.18V26.4399Z" fill="#3E8EED"/>
<path d="M502.73 242.92L213.92 283.01C211.22 283.39 208.05 281.91 206.85 279.71L152.29 179.54C151.09 177.34 153.54 171.03 156.34 170.83L454.62 154.59C456.5 154.46 458.8 155.81 459.78 157.6L507.03 235.39C508.01 237.18 504.54 242.67 502.73 242.92Z" fill="#B3AFAB"/>
<path d="M504.95 238.26L216.14 278.35C213.44 278.73 210.27 277.25 209.07 275.05L154.51 174.88C153.31 172.68 154.62 170.74 157.42 170.55L456.84 149.94C458.72 149.81 461.02 151.16 462 152.95L506.46 234.57C507.43 236.36 506.76 238.01 504.95 238.26Z" fill="#797672"/>
<path d="M484.99 211.49C485.35 212.14 485.09 212.73 484.42 212.81L446.39 217.28C445.68 217.36 444.81 216.89 444.45 216.21L436.18 201.02C435.81 200.35 436.1 199.74 436.81 199.67L475.1 195.69C475.77 195.62 476.61 196.09 476.96 196.74L484.99 211.49Z" fill="#70D6E0"/>
<path d="M204.9 193.84L182.04 195.79C181.05 195.87 179.9 195.3 179.47 194.52L169.76 176.69C169.33 175.9 169.79 175.2 170.79 175.13L193.8 173.47C194.77 173.4 195.9 173.97 196.32 174.75L205.88 192.29C206.3 193.07 205.87 193.76 204.9 193.84Z" fill="#B3AFAB"/>
<path d="M235.86 189.76C236.27 190.52 235.86 191.2 234.93 191.28L212.92 193.16C211.97 193.24 210.85 192.68 210.43 191.91L200.9 174.42C200.48 173.65 200.92 172.96 201.88 172.89L224.04 171.29C224.97 171.22 226.06 171.79 226.48 172.55L235.86 189.76Z" fill="#B3AFAB"/>
<path d="M264.75 187.32C265.16 188.07 264.76 188.73 263.87 188.81L242.67 190.62C241.75 190.7 240.67 190.15 240.26 189.39L230.91 172.22C230.5 171.46 230.91 170.79 231.84 170.72L253.19 169.18C254.09 169.12 255.15 169.67 255.55 170.42L264.75 187.32Z" fill="#B3AFAB"/>
<path d="M292.6 184.97C293 185.7 292.63 186.36 291.77 186.43L271.33 188.17C270.44 188.25 269.4 187.7 268.99 186.96L259.81 170.1C259.4 169.35 259.8 168.7 260.69 168.63L281.27 167.14C282.14 167.08 283.16 167.62 283.56 168.36L292.6 184.97Z" fill="#B3AFAB"/>
<path d="M319.46 182.7C319.85 183.42 319.5 184.06 318.67 184.13L298.95 185.81C298.1 185.88 297.08 185.35 296.68 184.62L287.66 168.07C287.26 167.34 287.64 166.69 288.5 166.63L308.36 165.2C309.2 165.14 310.19 165.68 310.59 166.4L319.46 182.7Z" fill="#B3AFAB"/>
<path d="M345.4 180.51C345.79 181.22 345.45 181.85 344.65 181.92L325.61 183.54C324.79 183.61 323.8 183.08 323.41 182.37L314.55 166.11C314.16 165.39 314.51 164.76 315.34 164.7L334.51 163.32C335.32 163.26 336.28 163.79 336.67 164.5L345.4 180.51Z" fill="#B3AFAB"/>
<path d="M370.45 178.39C370.83 179.09 370.51 179.7 369.73 179.77L351.34 181.34C350.54 181.41 349.59 180.89 349.2 180.18L340.5 164.2C340.12 163.49 340.45 162.87 341.25 162.82L359.77 161.48C360.55 161.42 361.49 161.94 361.87 162.64L370.45 178.39Z" fill="#B3AFAB"/>
<path d="M394.66 176.35C395.03 177.03 394.73 177.64 393.98 177.71L376.21 179.23C375.44 179.3 374.51 178.79 374.13 178.09L365.57 162.38C365.19 161.69 365.51 161.08 366.29 161.02L384.19 159.73C384.94 159.68 385.86 160.19 386.23 160.87L394.66 176.35Z" fill="#B3AFAB"/>
<path d="M418.07 174.37C418.44 175.04 418.15 175.64 417.42 175.7L400.23 177.17C399.49 177.23 398.58 176.73 398.21 176.05L389.8 160.6C389.43 159.92 389.73 159.32 390.48 159.27L407.79 158.02C408.52 157.97 409.41 158.47 409.78 159.14L418.07 174.37Z" fill="#B3AFAB"/>
<path d="M440.72 172.46C441.08 173.12 440.81 173.71 440.1 173.77L423.47 175.19C422.75 175.25 421.87 174.76 421.5 174.08L413.23 158.89C412.86 158.22 413.16 157.63 413.88 157.58L430.63 156.37C431.34 156.32 432.2 156.81 432.56 157.48L440.72 172.46Z" fill="#B3AFAB"/>
<path d="M261.87 237.51C262.28 238.27 261.88 238.98 260.97 239.08L239.33 241.62C238.39 241.73 237.29 241.19 236.87 240.42L227.34 222.93C226.92 222.16 227.34 221.45 228.29 221.35L250.09 219.08C251.01 218.98 252.09 219.52 252.5 220.29L261.87 237.51Z" fill="#B3AFAB"/>
<path d="M290.28 234.2C290.69 234.95 290.31 235.64 289.43 235.74L268.58 238.19C267.68 238.3 266.61 237.77 266.19 237.01L256.84 219.84C256.43 219.08 256.83 218.39 257.74 218.29L278.74 216.11C279.62 216.02 280.67 216.55 281.08 217.3L290.28 234.2Z" fill="#B3AFAB"/>
<path d="M317.67 231C318.07 231.73 317.71 232.41 316.86 232.51L296.76 234.87C295.89 234.97 294.85 234.45 294.45 233.71L285.27 216.85C284.86 216.1 285.25 215.43 286.12 215.34L306.37 213.24C307.22 213.15 308.24 213.67 308.64 214.41L317.67 231Z" fill="#B3AFAB"/>
<path d="M344.1 227.92C344.49 228.64 344.15 229.3 343.33 229.4L323.93 231.68C323.09 231.78 322.09 231.27 321.69 230.53L312.67 213.98C312.27 213.25 312.63 212.58 313.48 212.5L333.01 210.47C333.83 210.38 334.82 210.9 335.21 211.62L344.1 227.92Z" fill="#B3AFAB"/>
<path d="M369.6 224.95C369.99 225.66 369.66 226.31 368.87 226.4L350.15 228.6C349.34 228.7 348.36 228.19 347.97 227.47L339.11 211.21C338.72 210.49 339.06 209.84 339.88 209.75L358.73 207.79C359.52 207.71 360.48 208.21 360.87 208.92L369.6 224.95Z" fill="#B3AFAB"/>
<path d="M394.24 222.08C394.62 222.78 394.31 223.41 393.55 223.5L375.46 225.63C374.68 225.72 373.73 225.22 373.35 224.52L364.65 208.54C364.27 207.83 364.59 207.19 365.38 207.11L383.59 205.22C384.36 205.14 385.29 205.64 385.67 206.34L394.24 222.08Z" fill="#B3AFAB"/>
<path d="M418.05 219.3C418.42 219.98 418.13 220.61 417.39 220.7L399.91 222.75C399.15 222.84 398.23 222.35 397.85 221.65L389.29 205.94C388.91 205.25 389.22 204.62 389.98 204.54L407.58 202.71C408.32 202.63 409.23 203.13 409.6 203.81L418.05 219.3Z" fill="#B3AFAB"/>
<path d="M441.07 216.609C441.44 217.279 441.16 217.899 440.44 217.979L423.54 219.969C422.81 220.059 421.91 219.569 421.54 218.889L413.13 203.44C412.76 202.76 413.05 202.139 413.79 202.059L430.81 200.289C431.53 200.219 432.41 200.699 432.77 201.369L441.07 216.609Z" fill="#B3AFAB"/>
<path d="M429.82 240.76C430.19 241.44 429.9 242.08 429.17 242.18L281.53 261.97C280.63 262.09 279.57 261.57 279.16 260.81L269.81 243.64C269.4 242.88 269.79 242.18 270.7 242.07L419.38 224.19C420.12 224.1 421.01 224.58 421.39 225.27L429.82 240.76Z" fill="#B3AFAB"/>
<path d="M232.18 216.46L194.92 220.23C193.94 220.33 192.79 219.77 192.36 218.98L182.65 201.14C182.22 200.35 182.68 199.64 183.67 199.55L221.19 196.26C222.13 196.18 223.24 196.73 223.66 197.5L233.13 214.89C233.54 215.67 233.12 216.37 232.18 216.46Z" fill="#B3AFAB"/>
<path d="M262.34 211.97C262.75 212.72 262.35 213.41 261.45 213.5L240 215.67C239.07 215.76 237.98 215.22 237.56 214.45L228.12 197.11C227.7 196.34 228.12 195.66 229.06 195.57L250.65 193.68C251.56 193.6 252.63 194.15 253.04 194.9L262.34 211.97Z" fill="#B3AFAB"/>
<path d="M290.5 209.15C290.9 209.89 290.53 210.56 289.66 210.65L268.99 212.74C268.09 212.83 267.04 212.29 266.63 211.54L257.36 194.52C256.95 193.77 257.35 193.09 258.25 193.01L279.06 191.18C279.94 191.1 280.97 191.64 281.38 192.38L290.5 209.15Z" fill="#B3AFAB"/>
<path d="M317.65 206.43C318.05 207.16 317.69 207.82 316.85 207.9L296.92 209.92C296.06 210.01 295.03 209.48 294.63 208.74L285.53 192.03C285.13 191.29 285.51 190.63 286.38 190.55L306.45 188.79C307.3 188.72 308.3 189.25 308.7 189.97L317.65 206.43Z" fill="#B3AFAB"/>
<path d="M343.86 203.8C344.25 204.51 343.91 205.16 343.1 205.24L323.86 207.19C323.03 207.27 322.03 206.75 321.64 206.03L312.7 189.62C312.3 188.89 312.66 188.25 313.5 188.17L332.87 186.47C333.69 186.4 334.66 186.92 335.05 187.63L343.86 203.8Z" fill="#B3AFAB"/>
<path d="M369.16 201.27C369.54 201.97 369.22 202.61 368.44 202.69L349.86 204.57C349.06 204.65 348.09 204.14 347.7 203.43L338.92 187.3C338.53 186.59 338.87 185.95 339.68 185.88L358.38 184.24C359.17 184.17 360.12 184.68 360.5 185.39L369.16 201.27Z" fill="#B3AFAB"/>
<path d="M393.61 198.82C393.99 199.51 393.68 200.13 392.92 200.21L374.97 202.02C374.19 202.1 373.25 201.59 372.87 200.89L364.24 185.04C363.86 184.34 364.18 183.72 364.97 183.65L383.04 182.06C383.8 181.99 384.72 182.5 385.1 183.19L393.61 198.82Z" fill="#B3AFAB"/>
<path d="M417.24 196.45C417.61 197.13 417.32 197.74 416.59 197.81L399.24 199.56C398.49 199.64 397.58 199.14 397.2 198.45L388.71 182.87C388.33 182.18 388.64 181.57 389.4 181.5L406.87 179.97C407.61 179.91 408.5 180.4 408.87 181.08L417.24 196.45Z" fill="#B3AFAB"/>
<path d="M462.06 171.9L445.96 173.27C445.26 173.33 444.41 172.84 444.05 172.18L435.91 157.23C435.55 156.57 435.83 155.99 436.53 155.94L452.74 154.77C453.42 154.72 454.27 155.21 454.62 155.86L462.65 170.6C463 171.26 462.74 171.84 462.06 171.9Z" fill="#908D89"/>
<path d="M231.44 242.55L208.96 245.19C207.99 245.3 206.85 244.76 206.42 243.97L196.71 226.14C196.28 225.35 196.73 224.63 197.71 224.53L220.35 222.18C221.3 222.08 222.42 222.63 222.84 223.41L232.4 240.95C232.81 241.72 232.38 242.44 231.44 242.55Z" fill="#76AFF2"/>
<path d="M244.7 266.91L222.41 269.9C221.44 270.03 220.31 269.5 219.88 268.71L210.17 250.88C209.74 250.09 210.18 249.36 211.16 249.24L233.61 246.54C234.55 246.43 235.66 246.96 236.09 247.74L245.65 265.28C246.06 266.05 245.64 266.78 244.7 266.91Z" fill="#908D89"/>
<path d="M274.88 261.39C275.29 262.15 274.9 262.87 274 262.99L252.54 265.87C251.61 265.99 250.51 265.47 250.09 264.7L240.56 247.21C240.14 246.44 240.56 245.72 241.49 245.61L263.1 243.01C264.01 242.9 265.08 243.43 265.5 244.19L274.88 261.39Z" fill="#908D89"/>
<path d="M452.58 237.74C452.95 238.41 452.67 239.04 451.96 239.13L435.2 241.38C434.47 241.48 433.58 241 433.21 240.32L424.8 224.87C424.43 224.19 424.72 223.56 425.45 223.47L442.33 221.44C443.04 221.35 443.92 221.83 444.28 222.5L452.58 237.74Z" fill="#908D89"/>
<path d="M474.67 234.8C475.03 235.46 474.77 236.07 474.08 236.17L457.86 238.34C457.16 238.43 456.29 237.97 455.93 237.29L447.66 222.1C447.29 221.43 447.57 220.81 448.28 220.73L464.61 218.77C465.3 218.69 466.15 219.16 466.51 219.82L474.67 234.8Z" fill="#908D89"/>
<path d="M495.5 233.29L479.8 235.4C479.12 235.49 478.28 235.03 477.92 234.37L469.78 219.42C469.42 218.76 469.68 218.16 470.37 218.07L486.18 216.17C486.85 216.09 487.68 216.55 488.03 217.21L496.06 231.95C496.41 232.6 496.16 233.2 495.5 233.29Z" fill="#908D89"/>
<path d="M472.98 192.11L422.98 197.17C422.25 197.24 421.37 196.75 421 196.08L412.65 180.76C412.28 180.08 412.57 179.48 413.31 179.42L463.66 175C464.34 174.94 465.18 175.42 465.53 176.07L473.56 190.81C473.91 191.46 473.66 192.04 472.98 192.11Z" fill="#908D89"/>
<path d="M421.33 60.5598L373.47 71.7898L373.61 122.03C372.41 120.93 370.71 121.43 368.95 121.43C367.23 121.43 365.82 119.66 364.63 120.71L364.52 71.7898L316.66 60.5598L316.72 119.47L362.61 127.82C364.15 130.29 366.03 131.13 368.95 131.13C371.86 131.13 373.85 130.17 375.28 127.84L421.26 119.63L421.33 60.5598Z" fill="#0064DA"/>
<path d="M414.11 55.3398C414.11 55.3398 379.54 61.5198 375.08 62.9298C370.62 64.3498 368.79 67.3598 368.92 73.1098C369.05 78.8498 368.93 121.87 368.93 121.87L414.88 112.92L414.11 55.3398Z" fill="#F7B548"/>
<path d="M324.23 55.3398C324.23 55.3398 358.46 61.5198 362.92 62.9298C367.38 64.3398 369.21 67.3598 369.08 73.1098C368.95 78.8598 368.91 121.87 368.91 121.87L323.12 113.04L324.23 55.3398Z" fill="#FCCF84"/>
<path d="M360.49 73.5097C360.43 73.5097 360.38 73.4997 360.33 73.4897L332.54 68.0997C332.07 68.0097 331.77 67.5597 331.86 67.0897C331.95 66.6197 332.42 66.3197 332.87 66.4097L360.66 71.7997C361.13 71.8897 361.43 72.3397 361.34 72.8097C361.25 73.2297 360.89 73.5097 360.49 73.5097Z" fill="#B3AFAB"/>
<path d="M360.49 81.6098C360.43 81.6098 360.38 81.5998 360.33 81.5898L332.54 76.1998C332.08 76.1098 331.77 75.6598 331.86 75.1898C331.95 74.7198 332.42 74.4198 332.87 74.5098L360.66 79.8998C361.12 79.9898 361.43 80.4398 361.34 80.9098C361.25 81.3298 360.89 81.6098 360.49 81.6098Z" fill="#B3AFAB"/>
<path d="M360.49 89.7097C360.43 89.7097 360.38 89.6997 360.33 89.6897L332.54 84.2997C332.08 84.2097 331.77 83.7597 331.86 83.2897C331.95 82.8197 332.42 82.5197 332.87 82.6097L360.66 87.9997C361.12 88.0897 361.43 88.5397 361.34 89.0097C361.25 89.4197 360.89 89.7097 360.49 89.7097Z" fill="#B3AFAB"/>
<path d="M360.49 97.8098C360.43 97.8098 360.38 97.7998 360.33 97.7898L332.54 92.3998C332.07 92.3098 331.77 91.8598 331.86 91.3898C331.95 90.9198 332.42 90.6198 332.87 90.7098L360.66 96.0998C361.13 96.1898 361.43 96.6398 361.34 97.1098C361.25 97.5198 360.89 97.8098 360.49 97.8098Z" fill="#B3AFAB"/>
<path d="M377.37 73.5097C377.43 73.5097 377.48 73.4997 377.53 73.4897L405.32 68.0997C405.79 68.0097 406.09 67.5597 406 67.0897C405.91 66.6197 405.44 66.3197 404.99 66.4097L377.2 71.7997C376.73 71.8897 376.43 72.3397 376.52 72.8097C376.61 73.2297 376.97 73.5097 377.37 73.5097Z" fill="#B3AFAB"/>
<path d="M377.37 81.6098C377.43 81.6098 377.48 81.5998 377.53 81.5898L405.32 76.1998C405.78 76.1098 406.09 75.6598 406 75.1898C405.91 74.7198 405.44 74.4198 404.99 74.5098L377.2 79.8998C376.74 79.9898 376.43 80.4398 376.52 80.9098C376.61 81.3298 376.97 81.6098 377.37 81.6098Z" fill="#B3AFAB"/>
<path d="M377.37 89.7097C377.43 89.7097 377.48 89.6997 377.53 89.6897L405.32 84.2997C405.78 84.2097 406.09 83.7597 406 83.2897C405.91 82.8197 405.44 82.5197 404.99 82.6097L377.2 87.9997C376.74 88.0897 376.43 88.5397 376.52 89.0097C376.61 89.4197 376.97 89.7097 377.37 89.7097Z" fill="#B3AFAB"/>
<path d="M377.37 97.8098C377.43 97.8098 377.48 97.7998 377.53 97.7898L405.32 92.3998C405.79 92.3098 406.09 91.8598 406 91.3898C405.91 90.9198 405.44 90.6198 404.99 90.7098L377.2 96.0998C376.73 96.1898 376.43 96.6398 376.52 97.1098C376.61 97.5198 376.97 97.8098 377.37 97.8098Z" fill="#B3AFAB"/>
<path d="M365.72 122.96C366.74 122.34 367.94 121.97 369.22 121.97C370.41 121.97 371.52 122.29 372.49 122.83L416.02 115.84L416.42 61.4298L413.99 55.3298L413.74 111.82C413.74 111.82 378.03 117.76 374.82 118.49C371.61 119.23 369 121.8 369 121.8C369 121.8 367.75 119.65 363.72 118.62C359.69 117.59 324.26 111.56 324.26 111.56L324.35 55.4498L321.84 61.8498L321.99 115.41L365.72 122.96Z" fill="#8DBCF4"/>
<path d="M222.86 83.22H147.5C142.69 83.22 138.79 87.12 138.79 91.93V127.19C138.79 132 142.69 135.9 147.5 135.9H171.67V152L189.25 135.89H222.86C227.67 135.89 231.57 131.99 231.57 128.88V91.92C231.56 85.42 227.67 83.22 222.86 83.22Z" fill="#22B5D6"/>
<path d="M156.41 103.59H213.75C215.45 103.59 216.83 102.21 216.83 100.51C216.83 98.8099 215.45 97.4299 213.75 97.4299H156.41C154.71 97.4299 153.33 98.8099 153.33 100.51C153.33 102.21 154.71 103.59 156.41 103.59Z" fill="#77E3FB"/>
<path d="M156.41 116.62H186.4C188.1 116.62 189.48 115.24 189.48 113.54C189.48 111.84 188.1 110.46 186.4 110.46H156.41C154.71 110.46 153.33 111.84 153.33 113.54C153.33 115.24 154.71 116.62 156.41 116.62Z" fill="#77E3FB"/>
<path d="M157.16 52.3799H79.49C74.68 52.3799 70.78 56.2799 70.78 61.0899V99.8999C70.78 104.71 74.68 108.61 79.49 108.61H115.19L130.83 122.95V108.6H157.16C161.97 108.6 165.87 104.7 165.87 99.8899V61.0799C165.86 56.2699 161.97 52.3799 157.16 52.3799Z" fill="#F7B548"/>
<path d="M91.8 80.03C94.7106 80.03 97.07 77.6705 97.07 74.76C97.07 71.8495 94.7106 69.49 91.8 69.49C88.8895 69.49 86.53 71.8495 86.53 74.76C86.53 77.6705 88.8895 80.03 91.8 80.03Z" fill="white"/>
<path d="M110.21 80.03C113.12 80.03 115.48 77.6705 115.48 74.76C115.48 71.8495 113.12 69.49 110.21 69.49C107.299 69.49 104.94 71.8495 104.94 74.76C104.94 77.6705 107.299 80.03 110.21 80.03Z" fill="white"/>
<path d="M128.61 80.03C131.521 80.03 133.88 77.6705 133.88 74.76C133.88 71.8495 131.521 69.49 128.61 69.49C125.7 69.49 123.34 71.8495 123.34 74.76C123.34 77.6705 125.7 80.03 128.61 80.03Z" fill="white"/>
<path d="M224.65 72.0999C239.959 72.0999 252.37 59.6892 252.37 44.3799C252.37 29.0706 239.959 16.6599 224.65 16.6599C209.341 16.6599 196.93 29.0706 196.93 44.3799C196.93 59.6892 209.341 72.0999 224.65 72.0999Z" fill="#1595B2"/>
<path d="M222.7 51.1999V50.1499C222.7 48.6299 222.93 47.3799 223.4 46.3999C223.87 45.4199 224.74 44.3799 226.01 43.2899C227.78 41.7999 228.89 40.6699 229.35 39.9199C229.81 39.1699 230.04 38.2599 230.04 37.1899C230.04 35.8599 229.61 34.8399 228.76 34.1199C227.91 33.3999 226.68 33.0399 225.09 33.0399C224.06 33.0399 223.06 33.1599 222.09 33.3999C221.12 33.6399 220 34.0799 218.74 34.7199L217.59 32.0899C220.05 30.7999 222.61 30.1599 225.29 30.1599C227.77 30.1599 229.7 30.7699 231.08 31.9899C232.46 33.2099 233.15 34.9299 233.15 37.1499C233.15 38.0999 233.02 38.9299 232.77 39.6499C232.52 40.3699 232.14 41.0499 231.65 41.6999C231.16 42.3499 230.09 43.3799 228.45 44.8099C227.14 45.9299 226.27 46.8599 225.85 47.5999C225.43 48.3399 225.22 49.3299 225.22 50.5599V51.1999H222.7ZM221.74 56.9899C221.74 55.2199 222.52 54.3399 224.08 54.3399C224.83 54.3399 225.42 54.5699 225.82 55.0199C226.23 55.4699 226.43 56.1299 226.43 56.9899C226.43 57.8199 226.22 58.4699 225.81 58.9299C225.39 59.3899 224.82 59.6199 224.08 59.6199C223.4 59.6199 222.85 59.4199 222.4 59.0099C221.96 58.5999 221.74 57.9299 221.74 56.9899Z" fill="white"/>
<path d="M549.05 36H448.14C443.17 36 439.14 40.03 439.14 45V94.21C439.14 99.18 443.17 103.21 448.14 103.21H458.64V116.37L472.61 103.21H549.05C554.02 103.21 558.05 99.18 558.05 94.21V45.01C558.05 40.03 554.02 36 549.05 36Z" fill="#70D6E0"/>
<path d="M458.41 63.73C463.861 63.73 468.28 59.311 468.28 53.86C468.28 48.4089 463.861 43.99 458.41 43.99C452.959 43.99 448.54 48.4089 448.54 53.86C448.54 59.311 452.959 63.73 458.41 63.73Z" fill="#1595B2"/>
<path d="M528.91 49.1599H481.91V58.8799H528.91V49.1599Z" fill="white"/>
<path d="M540.51 66.0601H481.91V70.2201H540.51V66.0601Z" fill="#28C2D1"/>
<path d="M540.51 74.49H481.91V78.65H540.51V74.49Z" fill="#28C2D1"/>
<path d="M541.66 95.2399H497.36V82.8999H541.66V95.2399ZM499.36 93.2399H539.66V84.8999H499.36V93.2399Z" fill="#28C2D1"/>
<path d="M485.67 86.53H478.38V92.17H485.67V86.53Z" fill="white"/>
<path d="M470.5 86.53H463.21V92.17H470.5V86.53Z" fill="white"/>
<path d="M455.33 86.53H448.04V92.17H455.33V86.53Z" fill="white"/>
<path d="M543.48 108.52L536.49 101.53L542.9 97.81L518.57 88.49L528.23 113.34L531.81 106.11L538.86 113.16L543.48 108.52Z" fill="white"/>
<path d="M528.23 114.34C528.22 114.34 528.2 114.34 528.19 114.34C527.8 114.32 527.45 114.07 527.3 113.7L517.64 88.8499C517.5 88.4799 517.58 88.0599 517.86 87.7799C518.14 87.4999 518.57 87.41 518.93 87.55L543.26 96.87C543.62 97.01 543.87 97.34 543.9 97.72C543.93 98.1 543.74 98.47 543.41 98.66L538.13 101.73L544.2 107.8C544.59 108.19 544.59 108.82 544.2 109.21L539.58 113.86C539.39 114.05 539.14 114.15 538.87 114.15C538.6 114.15 538.35 114.04 538.16 113.86L532.1 107.79L529.14 113.77C528.96 114.12 528.61 114.34 528.23 114.34ZM531.81 105.11C532.07 105.11 532.33 105.21 532.52 105.4L538.86 111.74L542.07 108.51L535.79 102.23C535.57 102.01 535.47 101.7 535.5 101.39C535.54 101.08 535.72 100.81 535.99 100.65L540.59 97.97L520.32 90.2099L528.34 110.84L530.91 105.65C531.05 105.36 531.33 105.16 531.64 105.11C531.7 105.12 531.75 105.11 531.81 105.11Z" fill="#84817D"/>
</svg>
