<svg width="636" height="300" viewBox="0 0 636 300" fill="none" xmlns="http://www.w3.org/2000/svg">
<path d="M450.28 221.93L220.06 231.1C215.98 231.26 212.66 228.25 212.66 224.38V54.5199C212.66 50.6499 215.98 47.7099 220.06 47.9699L450.28 62.4199C453.36 62.6099 455.85 65.4799 455.85 68.8299V215.64C455.85 218.99 453.36 221.81 450.28 221.93Z" fill="#B3AFAB"/>
<path d="M453 221.82L223.65 230.95C219.59 231.11 216.28 228.11 216.28 224.24V54.73C216.28 50.86 219.59 47.94 223.65 48.19L453 62.59C456.07 62.78 458.55 65.65 458.55 68.99V215.55C458.55 218.89 456.07 221.7 453 221.82Z" fill="#625F5B"/>
<path d="M446.89 206.82L231.63 213.29C230.52 213.32 229.63 212.49 229.63 211.44V61.1899C229.63 60.1299 230.53 59.3299 231.63 59.3899L446.89 71.5999C447.74 71.6499 448.43 72.4399 448.43 73.3599V205.1C448.43 206.02 447.74 206.79 446.89 206.82Z" fill="#33D5F9"/>
<path d="M516.24 244.57C516.24 242.69 516.24 241.47 516.24 240.84C516.24 240.33 456.96 224.86 456.96 224.86L219 229.84V232.52C219 232.52 219.06 234.88 221.68 235.68C224.29 236.48 293.39 257.42 293.39 257.42C296.89 258.48 300.58 258.91 304.28 258.7L514.66 246.49C515.97 246.42 516.27 245.75 516.24 244.57Z" fill="#9C9894"/>
<path d="M515.09 242.28L304.27 253.92C300.57 254.12 296.89 253.68 293.38 252.61L218.86 229.81L456.95 220.51L515.46 239.7C516.71 240.1 516.41 242.2 515.09 242.28Z" fill="#CCCAC7"/>
<path d="M296.47 100.36L271.19 99.4798C269.71 99.4298 268.5 98.2098 268.5 96.7598C268.5 95.3098 269.7 94.1798 271.19 94.2398L296.47 95.1998C297.91 95.2498 299.07 96.4498 299.07 97.8698C299.07 99.2998 297.91 100.41 296.47 100.36Z" fill="#F8B84F"/>
<path d="M408.29 115.72L385.41 115.09C384.12 115.05 383.06 113.93 383.06 112.58C383.06 111.23 384.11 110.16 385.41 110.2L408.29 110.9C409.55 110.94 410.56 112.05 410.56 113.38C410.56 114.71 409.55 115.75 408.29 115.72Z" fill="#908D89"/>
<path d="M373.57 114.76L326.49 113.45C325.1 113.41 323.97 112.24 323.97 110.84C323.97 109.44 325.1 108.34 326.49 108.38L373.57 109.83C374.88 109.87 375.94 111 375.94 112.36C375.94 113.72 374.88 114.79 373.57 114.76Z" fill="#EEEDEC"/>
<path d="M313.04 113.08L287.15 112.36C285.69 112.32 284.51 111.12 284.51 109.69C284.51 108.26 285.69 107.13 287.15 107.17L313.04 107.97C314.45 108.01 315.59 109.19 315.59 110.6C315.59 112.01 314.45 113.12 313.04 113.08Z" fill="white"/>
<path d="M424.02 127.5L348.31 125.94C346.96 125.91 345.86 124.77 345.86 123.38C345.86 122 346.96 120.9 348.31 120.93L424.02 122.72C425.25 122.75 426.25 123.84 426.25 125.16C426.25 126.47 425.25 127.52 424.02 127.5Z" fill="#EEEDEC"/>
<path d="M334.52 125.66L302.81 125C301.38 124.97 300.22 123.79 300.22 122.37C300.22 120.95 301.38 119.82 302.81 119.86L334.52 120.61C335.89 120.64 337.01 121.8 337.01 123.19C337.01 124.58 335.89 125.68 334.52 125.66Z" fill="#908D89"/>
<path d="M408.29 138.63L373.23 138.16C371.92 138.14 370.85 137.02 370.85 135.66C370.85 134.3 371.92 133.21 373.23 133.23L408.29 133.81C409.55 133.83 410.56 134.93 410.56 136.26C410.57 137.58 409.55 138.64 408.29 138.63Z" fill="#908D89"/>
<path d="M360.19 137.98L302.81 137.21C301.38 137.19 300.22 136.02 300.22 134.6C300.22 133.18 301.38 132.04 302.81 132.07L360.19 133.01C361.52 133.03 362.6 134.16 362.6 135.53C362.6 136.9 361.53 138 360.19 137.98Z" fill="#27BEE0"/>
<path d="M354.44 149.8C353.1 149.79 352.01 148.67 352 147.29C352 145.91 353.09 144.8 354.43 144.81L435.14 145.5C436.35 145.51 437.34 146.58 437.34 147.89C437.34 149.2 436.36 150.25 435.14 150.24L354.44 149.8Z" fill="#EEEDEC"/>
<path d="M343.16 149.68L318.19 149.52C316.79 149.51 315.65 148.36 315.65 146.95C315.65 145.54 316.79 144.41 318.19 144.42L343.16 144.65C344.52 144.66 345.62 145.79 345.62 147.18C345.62 148.57 344.53 149.68 343.16 149.68Z" fill="#908D89"/>
<path d="M427.13 161.52L350.36 161.59C349.01 161.59 347.91 160.47 347.91 159.09C347.91 157.71 349.01 156.59 350.36 156.59L427.13 156.75C428.36 156.75 429.35 157.82 429.35 159.13C429.35 160.45 428.35 161.51 427.13 161.52Z" fill="#908D89"/>
<path d="M336.25 161.6L318.19 161.62C316.79 161.62 315.65 160.48 315.65 159.07C315.65 157.66 316.79 156.52 318.19 156.52L336.25 156.56C337.62 156.56 338.73 157.69 338.73 159.08C338.73 160.47 337.63 161.6 336.25 161.6Z" fill="#27BEE0"/>
<path d="M387.7 173.16L322.96 173.69C321.56 173.7 320.43 172.57 320.43 171.17C320.43 169.77 321.56 168.62 322.96 168.61L387.7 168.28C388.99 168.27 390.03 169.36 390.03 170.71C390.03 172.06 388.99 173.14 387.7 173.16Z" fill="#EEEDEC"/>
<path d="M309.11 173.79L287.15 173.97C285.69 173.98 284.51 172.83 284.51 171.39C284.51 169.96 285.69 168.79 287.15 168.78L309.11 168.67C310.53 168.66 311.67 169.8 311.67 171.21C311.67 172.63 310.52 173.78 309.11 173.79Z" fill="#F8B84F"/>
<path d="M410.2 184.41L347.97 185.36C346.61 185.38 345.51 184.28 345.51 182.89C345.51 181.5 346.61 180.37 347.97 180.35L410.2 179.59C411.45 179.57 412.47 180.64 412.47 181.97C412.47 183.3 411.45 184.39 410.2 184.41Z" fill="#EEEDEC"/>
<path d="M335.91 185.55L302.81 186.06C301.38 186.08 300.22 184.95 300.22 183.53C300.22 182.11 301.38 180.94 302.81 180.92L335.91 180.51C337.28 180.49 338.39 181.61 338.39 183C338.39 184.39 337.28 185.53 335.91 185.55Z" fill="#27BEE0"/>
<path d="M371.57 196.72L329.28 197.67C327.89 197.7 326.77 196.59 326.77 195.19C326.77 193.79 327.9 192.63 329.28 192.61L371.57 191.79C372.88 191.76 373.95 192.85 373.95 194.21C373.95 195.56 372.89 196.69 371.57 196.72Z" fill="#908D89"/>
<path d="M315.89 197.97L271.19 198.97C269.71 199 268.5 197.86 268.5 196.41C268.5 194.96 269.7 193.76 271.19 193.74L315.89 192.87C317.3 192.84 318.43 193.96 318.43 195.37C318.43 196.78 317.29 197.94 315.89 197.97Z" fill="white"/>
<path d="M259.98 60.9999L231.63 59.3899C230.52 59.3299 229.63 60.1299 229.63 61.1899V211.44C229.63 212.5 230.53 213.32 231.63 213.29L259.98 212.44V60.9999Z" fill="#908D89"/>
<path d="M448.43 83.3899V73.3599C448.43 72.4299 447.74 71.6499 446.89 71.5999L231.63 59.3899C230.52 59.3299 229.63 60.1299 229.63 61.1899V72.6199L448.43 83.3899Z" fill="#1DACCC"/>
<path d="M247.85 98.6599L241.15 98.4299V93.0999L247.85 93.3599V98.6599Z" fill="#EEEDEC"/>
<path d="M247.85 111.27L241.15 111.08V105.76L247.85 105.96V111.27Z" fill="#EEEDEC"/>
<path d="M247.85 123.87L241.15 123.74V118.41L247.85 118.57V123.87Z" fill="#EEEDEC"/>
<path d="M247.85 136.48L241.15 136.39V131.06L247.85 131.17V136.48Z" fill="#EEEDEC"/>
<path d="M247.85 149.08L241.15 149.04V143.71L247.85 143.78V149.08Z" fill="#EEEDEC"/>
<path d="M247.85 161.69H241.15V156.37L247.85 156.38V161.69Z" fill="#EEEDEC"/>
<path d="M247.85 174.29L241.15 174.35V169.02L247.85 168.99V174.29Z" fill="#EEEDEC"/>
<path d="M247.85 186.9L241.15 187V181.67L247.85 181.59V186.9Z" fill="#EEEDEC"/>
<path d="M247.85 199.5L241.15 199.65V194.32L247.85 194.19V199.5Z" fill="#EEEDEC"/>
<path d="M229.46 112.52C229.46 134.84 210.26 152.85 186 152.75C161.08 152.65 140.36 133.57 140.36 110.13C140.36 86.69 161.08 68.73 186 69.96C210.26 71.16 229.46 90.2 229.46 112.52Z" fill="#F8B84F"/>
<path d="M194.07 81.8L178.69 82.84C178.43 82.86 178.23 83.05 178.23 83.3V135.73C178.23 135.98 178.43 136.19 178.7 136.22L193.97 137.68C194.27 137.71 194.53 137.49 194.53 137.21L194.64 82.3C194.64 82.01 194.37 81.78 194.07 81.8Z" fill="#1572E0"/>
<path d="M184.01 88.2199L172.91 88.9299C172.56 88.9499 172.29 89.2199 172.29 89.5499V135.05C172.29 135.37 172.54 135.64 172.88 135.7L185.33 137.55C185.73 137.61 186.1 137.35 186.13 136.97C186.47 131.81 186.97 99.6499 186.56 95.6999C186.21 92.3599 185.18 89.6799 184.74 88.6599C184.61 88.3699 184.32 88.2099 184.01 88.2199Z" fill="#84817D"/>
<path d="M194.53 137.68L205.88 137.82C207.21 137.84 208.29 136.84 208.29 135.59V84.67C208.29 83.42 207.21 82.36 205.88 82.3L194.53 81.81C193.18 81.75 192.09 82.73 192.09 83.99V135.37C192.09 136.63 193.18 137.66 194.53 137.68Z" fill="#4995EE"/>
<path d="M185.51 137.57L190.7 137.63C191.46 137.64 192.07 137.08 192.07 136.37V89.7101C192.07 89.0001 191.46 88.4101 190.7 88.3801L185.51 88.1801C184.75 88.1501 184.13 88.7001 184.13 89.4101V136.28C184.13 136.98 184.75 137.56 185.51 137.57Z" fill="#B3AFAB"/>
<path d="M174.93 136.67L164.38 136.72C164.1 136.72 163.83 136.68 163.56 136.62L153.99 134.33L172.3 134.1L174.93 136.67Z" fill="#C4832D"/>
<path d="M171.7 97.82L163.39 98.31C163.09 98.33 162.84 98.52 162.77 98.78L153.44 133.51C153.33 133.92 153.68 134.33 154.15 134.33L164.88 134.37C165.22 134.37 165.51 134.15 165.57 133.84L172.46 98.6C172.55 98.18 172.17 97.79 171.7 97.82Z" fill="#E29E3B"/>
<path d="M165.19 134.82L173.95 136.63C174.95 136.84 175.94 136.26 176.15 135.33L183.75 102.04C183.96 101.12 183.32 100.2 182.33 99.9699L173.65 97.9999C172.65 97.7699 171.66 98.3299 171.45 99.2499L163.75 132.76C163.53 133.69 164.18 134.61 165.19 134.82Z" fill="white"/>
<path d="M170.52 115.42L177.37 116.92C177.81 117.02 178.24 116.77 178.34 116.36L181.02 104.77C181.11 104.37 180.83 103.96 180.39 103.86L173.56 102.32C173.12 102.22 172.68 102.47 172.59 102.87L169.88 114.51C169.79 114.92 170.07 115.33 170.52 115.42Z" fill="#FBC977"/>
<path d="M192.09 99.3901V85.8601L208.29 86.5201V99.9301L192.09 99.3901Z" fill="#A3C9F6"/>
<path d="M185.78 104.38V96.7L190.6 96.87V104.52L185.78 104.38Z" fill="white"/>
<path d="M526.29 152.86L486.24 152.67C482.26 152.65 479.01 149.02 479.01 144.58V103.62C479.01 99.18 482.26 95.7 486.24 95.87L526.29 97.56C530.04 97.72 533.08 101.33 533.08 105.62V145.12C533.09 149.41 530.06 152.87 526.29 152.86Z" fill="#CCCAC7"/>
<path d="M525.99 121.56L508.26 102.49C507.82 102.02 507.16 102 506.73 102.43L501.27 107.87C500.54 108.59 499.36 107.97 499.36 106.86V105.63C499.36 104.92 498.84 104.32 498.21 104.3L495.37 104.19C494.74 104.17 494.22 104.73 494.22 105.44V114.34C494.22 114.69 494.08 115.05 493.85 115.28L488.53 120.59C487.75 121.37 488.26 122.83 489.31 122.86L490.14 122.88C490.78 122.9 491.3 123.49 491.3 124.2V142.41C491.3 143.12 491.82 143.71 492.46 143.72L522.23 144.04C522.84 144.05 523.34 143.48 523.34 142.79V124.95C523.34 124.25 523.84 123.7 524.45 123.71L525.24 123.73C526.24 123.74 526.72 122.34 525.99 121.56Z" fill="white"/>
<path d="M504.05 122.57V118.54C504.05 116.33 505.65 114.57 507.61 114.63C509.56 114.69 511.15 116.53 511.15 118.74V122.75L513.51 122.81V118.8C513.51 115.12 510.86 112.05 507.61 111.94C504.34 111.84 501.66 114.77 501.66 118.47V122.51L504.05 122.57Z" fill="#1DACCC"/>
<path d="M514.06 137.62L500.86 137.42C499.05 137.39 497.59 135.71 497.59 133.68V125.28C497.59 123.24 499.06 121.62 500.86 121.67L514.06 122.01C515.84 122.06 517.26 123.73 517.26 125.74V134.03C517.27 136.04 515.84 137.64 514.06 137.62Z" fill="#1DACCC"/>
<path d="M509.15 128.24C509.15 127.17 508.38 126.28 507.43 126.26C506.48 126.24 505.71 127.09 505.71 128.16C505.71 128.95 506.12 129.63 506.72 129.95L506.35 133.39L508.58 133.43L508.21 129.95C508.76 129.65 509.15 129 509.15 128.24Z" fill="white"/>
<path d="M360.26 161.71L310.57 161.76C305.61 161.77 301.56 157.74 301.56 152.78V107.05C301.56 102.09 305.61 98.2098 310.57 98.3898L360.26 100.2C364.9 100.37 368.66 104.38 368.66 109.14V153.05C368.66 157.83 364.92 161.71 360.26 161.71Z" fill="#1572E0"/>
<path d="M349.43 127.22C349.44 127.18 349.45 127.14 349.46 127.11C349.89 125.73 350.13 124.26 350.13 122.73C350.13 114.71 343.74 108 335.79 107.75C327.76 107.5 321.2 113.91 321.2 122.08C321.2 123.77 321.49 125.39 322.01 126.91C322.04 127.01 322.05 127.1 322.09 127.2C324.65 134.61 335.65 153.38 335.71 153.49V153.5V153.49C335.77 153.39 345.78 136.4 348.95 128.48C349.04 128.26 349.12 128.03 349.21 127.81C349.28 127.61 349.36 127.39 349.43 127.22Z" fill="#A3C9F6"/>
<path d="M341.62 122.53C341.62 125.8 339.01 128.4 335.78 128.33C332.54 128.27 329.9 125.55 329.9 122.26C329.9 118.97 332.54 116.37 335.78 116.46C339.01 116.55 341.62 119.26 341.62 122.53Z" fill="white"/>
<path d="M156.33 189.26L101.08 190.13C95.5698 190.22 91.0698 186.3 91.0698 181.4V136.18C91.0698 131.27 95.5698 127.36 101.08 127.46L156.33 128.4C161.49 128.49 165.67 132.39 165.67 137.11V180.56C165.67 185.28 161.51 189.18 156.33 189.26Z" fill="#1DACCC"/>
<path d="M117.48 172.11L113.93 172.13V151.67C113.93 149.97 113.99 148.36 114.11 146.84C113.8 147.11 113.46 147.4 113.08 147.7C112.7 148 110.95 149.27 107.83 151.51L105.88 149.25L114.41 143.43L117.48 143.46V172.11Z" fill="white"/>
<path d="M139.96 143.24C142.8 143.27 145.05 143.88 146.71 145.1C148.36 146.31 149.19 147.97 149.19 150.07C149.19 151.46 148.72 152.72 147.77 153.86C146.82 155 145.31 156.04 143.23 156.98C145.75 158.08 147.54 159.23 148.6 160.43C149.66 161.63 150.19 163.02 150.19 164.6C150.19 166.94 149.3 168.81 147.5 170.21C145.7 171.62 143.24 172.33 140.1 172.35C136.76 172.37 134.19 171.73 132.38 170.41C130.57 169.09 129.66 167.21 129.66 164.77C129.66 161.51 131.86 158.97 136.24 157.16C134.27 156.15 132.85 155.05 131.98 153.88C131.12 152.7 130.69 151.39 130.69 149.93C130.69 147.87 131.53 146.23 133.22 145.02C134.9 143.81 137.15 143.22 139.96 143.24ZM133.18 164.84C133.18 166.4 133.78 167.61 134.97 168.47C136.16 169.33 137.84 169.76 139.99 169.75C142.11 169.74 143.76 169.28 144.93 168.37C146.1 167.46 146.69 166.23 146.69 164.66C146.69 163.41 146.14 162.3 145.03 161.33C143.92 160.36 141.99 159.41 139.23 158.5C137.1 159.33 135.56 160.24 134.6 161.24C133.66 162.23 133.18 163.44 133.18 164.84ZM139.91 145.86C138.13 145.85 136.73 146.22 135.71 146.99C134.69 147.76 134.19 148.79 134.19 150.09C134.19 151.28 134.61 152.31 135.46 153.16C136.3 154.02 137.86 154.88 140.13 155.73C142.16 154.96 143.6 154.13 144.44 153.25C145.28 152.36 145.7 151.33 145.7 150.15C145.7 148.85 145.19 147.81 144.16 147.04C143.14 146.27 141.72 145.87 139.91 145.86Z" fill="white"/>
<path d="M531.01 197.27L423.63 199.98C415.1 200.2 408.12 192.94 408.12 183.78C408.12 174.62 415.1 167.16 423.63 167.12L531.01 166.64C538.34 166.61 544.24 173.37 544.24 181.76C544.24 190.14 538.35 197.08 531.01 197.27Z" fill="#908D89"/>
<path d="M449.84 190.52L425.74 190.99C422.21 191.06 419.33 188.04 419.33 184.25C419.33 180.46 422.21 177.35 425.74 177.32L449.84 177.06C453.25 177.02 456.01 179.99 456.01 183.7C456.01 187.4 453.25 190.45 449.84 190.52Z" fill="white"/>
<path d="M432.07 184.11C432.07 187.87 429.23 190.98 425.71 191.05C422.18 191.12 419.3 188.1 419.3 184.31C419.3 180.52 422.18 177.41 425.71 177.37C429.22 177.33 432.07 180.34 432.07 184.11Z" fill="#33D5F9"/>
<path d="M489.61 189.74L466.74 190.19C463.39 190.26 460.66 187.32 460.66 183.62C460.66 179.93 463.39 176.91 466.74 176.87L489.61 176.62C492.85 176.58 495.46 179.48 495.46 183.09C495.47 186.7 492.85 189.68 489.61 189.74Z" fill="white"/>
<path d="M472.74 183.48C472.74 187.14 470.04 190.17 466.7 190.23C463.35 190.3 460.62 187.36 460.62 183.66C460.62 179.97 463.35 176.94 466.7 176.9C470.04 176.88 472.74 179.82 472.74 183.48Z" fill="#33D5F9"/>
<path d="M527.399 189L505.659 189.43C502.479 189.49 499.879 186.63 499.879 183.03C499.879 179.43 502.469 176.49 505.659 176.45L527.399 176.21C530.479 176.18 532.969 179 532.969 182.52C532.959 186.04 530.479 188.94 527.399 189Z" fill="white"/>
<path d="M511.36 182.89C511.36 186.46 508.8 189.41 505.63 189.47C502.44 189.53 499.85 186.67 499.85 183.07C499.85 179.47 502.44 176.52 505.63 176.49C508.79 176.45 511.36 179.32 511.36 182.89Z" fill="#33D5F9"/>
<path d="M476.1 47.52L437.5 55.04L437.43 99.06C436.45 98.07 435.06 98.45 433.62 98.4C432.21 98.35 431.06 96.75 430.07 97.64L430.13 54.62L389.9 42.23L389.95 95.06L428.4 103.81C429.66 106.02 431.2 106.8 433.6 106.88C435.98 106.96 437.61 106.18 438.79 104.18L476.17 98.28L476.1 47.52Z" fill="#1572E0"/>
<path d="M470.41 42.6399C470.41 42.6399 442.51 46.2999 438.85 47.3199C435.18 48.3499 433.67 50.9199 433.75 55.9799C433.84 61.0399 433.59 98.7699 433.59 98.7699L470.65 92.4199L470.41 42.6399Z" fill="#CAE0FA"/>
<path d="M396.36 37.9299C396.36 37.9299 425.14 45.2399 428.84 46.7199C432.52 48.1899 434.01 50.9399 433.89 55.9999C433.77 61.0499 433.59 98.7899 433.59 98.7899L395.4 89.5399L396.36 37.9299Z" fill="#A3C9F6"/>
<path d="M426.8 55.9599C426.75 55.9599 426.71 55.9499 426.66 55.9399L403.41 49.8199C403.02 49.7199 402.76 49.2999 402.83 48.8899C402.91 48.4799 403.3 48.2299 403.68 48.3299L426.93 54.4699C427.32 54.5699 427.57 54.9799 427.49 55.3899C427.43 55.7399 427.13 55.9699 426.8 55.9599Z" fill="#B3AFAB"/>
<path d="M426.78 63.1099C426.73 63.1099 426.69 63.0999 426.64 63.0899L403.4 57.0499C403.01 56.9499 402.75 56.5299 402.83 56.1199C402.91 55.7099 403.3 55.4599 403.68 55.5599L426.91 61.6099C427.29 61.7099 427.54 62.1199 427.47 62.5299C427.41 62.8899 427.11 63.1299 426.78 63.1099Z" fill="#B3AFAB"/>
<path d="M426.75 70.2499C426.7 70.2499 426.66 70.24 426.61 70.23L403.39 64.2799C403 64.1799 402.74 63.7599 402.82 63.3499C402.9 62.9399 403.29 62.68 403.67 62.79L426.89 68.76C427.27 68.86 427.52 69.2699 427.45 69.6699C427.38 70.0299 427.09 70.2699 426.75 70.2499Z" fill="#B3AFAB"/>
<path d="M426.73 77.3899C426.68 77.3899 426.64 77.3799 426.59 77.3699L403.38 71.4999C402.99 71.3999 402.73 70.9899 402.81 70.5799C402.89 70.1699 403.28 69.9099 403.66 70.0199L426.86 75.9099C427.24 76.0099 427.49 76.4199 427.42 76.8199C427.36 77.1599 427.06 77.3999 426.73 77.3899Z" fill="#B3AFAB"/>
<path d="M440.69 56.7299C440.74 56.7299 440.78 56.7299 440.82 56.7199L463.32 53.2999C463.69 53.2399 463.94 52.8699 463.87 52.4599C463.8 52.0499 463.43 51.7599 463.07 51.8199L440.57 55.2299C440.19 55.2899 439.94 55.6699 440.01 56.0799C440.06 56.4499 440.36 56.7199 440.69 56.7299Z" fill="#B3AFAB"/>
<path d="M440.65 63.8399C440.7 63.8399 440.74 63.8399 440.78 63.8299L463.26 60.3399C463.63 60.2799 463.88 59.8999 463.81 59.4999C463.74 59.0899 463.37 58.8099 463.01 58.8699L440.519 62.3499C440.139 62.4099 439.889 62.7899 439.959 63.1999C440.029 63.5599 440.33 63.8199 440.65 63.8399Z" fill="#B3AFAB"/>
<path d="M440.62 70.9399C440.67 70.9399 440.71 70.9399 440.75 70.9299L463.22 67.3699C463.59 67.3099 463.84 66.9299 463.77 66.5299C463.7 66.1199 463.33 65.8399 462.97 65.8999L440.49 69.4499C440.11 69.5099 439.86 69.8899 439.93 70.2999C440 70.6599 440.29 70.9199 440.62 70.9399Z" fill="#B3AFAB"/>
<path d="M440.59 78.0199C440.64 78.0199 440.68 78.0199 440.72 78.0099L463.18 74.3799C463.55 74.3199 463.8 73.9399 463.73 73.5399C463.66 73.1299 463.29 72.8499 462.93 72.9099L440.47 76.5299C440.09 76.5899 439.84 76.9699 439.91 77.3799C439.97 77.7499 440.26 78.0099 440.59 78.0199Z" fill="#B3AFAB"/>
<path d="M430.96 99.6498C431.8 99.1398 432.78 98.8498 433.84 98.8898C434.81 98.9298 435.72 99.2398 436.51 99.7398L472.21 94.0298L472.2 48.0498L470.31 42.6398L470.26 90.7698C470.26 90.7698 441.05 95.4798 438.43 96.0298C435.81 96.5698 433.66 98.7398 433.66 98.7398C433.66 98.7398 432.64 96.8298 429.33 95.7998C426.01 94.7698 396.36 88.2798 396.36 88.2798L396.47 38.0598L394.33 43.6798L394.44 91.6298L430.96 99.6498Z" fill="#4995EE"/>
</svg>
