<svg width="636" height="300" viewBox="0 0 636 300" fill="none" xmlns="http://www.w3.org/2000/svg">
<path d="M214.69 245.66L215.25 93.1501C215.26 89.8701 217.51 86.9701 220.28 86.6701L424.82 74.0201C428.5 73.6301 431.47 76.3901 431.42 80.1901C431.42 80.1901 429.63 237.67 429.59 241.12C429.55 244.57 426.74 246.31 426.74 246.31L214.69 245.66Z" fill="#B3AFAB"/>
<path fill-rule="evenodd" clip-rule="evenodd" d="M418.02 224.48C418 226.29 416.43 227.92 414.69 227.94L226.3 219.51C224.85 219.53 223.69 218.17 223.69 216.47L224.14 102.35C224.15 100.64 225.33 99.1304 226.78 98.9904L415.85 89.7904C417.84 89.6004 419.45 91.1304 419.43 93.1904L418.01 223.9" fill="#848484"/>
<path d="M212.09 245.67L212.63 93.2302C212.64 89.9502 214.89 87.0602 217.66 86.7602L422.01 74.1202C425.69 73.7302 428.65 76.4902 428.61 80.2902L426.71 248.58L212.09 245.67Z" fill="#625F5B"/>
<path fill-rule="evenodd" clip-rule="evenodd" d="M415.22 224.51C415.2 226.32 413.63 227.95 411.89 227.97L223.68 219.54C222.23 219.56 221.07 218.2 221.08 216.5L221.52 102.43C221.53 100.72 222.71 99.2102 224.16 99.0702L413.05 89.8802C415.04 89.6902 416.65 91.2202 416.62 93.2802L415.22 223.93" fill="#A3C9F6"/>
<path d="M426.75 246.46L426.72 249.42C426.71 250.44 425.97 251.32 424.96 251.5L333.1 265.72C330.65 266.14 325.79 266.54 323.29 266.5L116.66 251.57C116.13 251.54 115.72 251.08 115.72 250.52V247.99C115.72 247.32 116.23 246.77 116.86 246.76L401.02 247.31L426.75 246.46Z" fill="#9C9894"/>
<path d="M426.75 246.1L331.29 259.86C327.86 260.41 324.37 260.68 320.87 260.65L117.11 246.78L212.93 234.87L426.75 246.1Z" fill="#CCCAC7"/>
<path d="M471.86 162.19L521.28 162.24C524.75 162.16 527.59 159.26 527.65 155.74L529.29 46.3002C529.34 42.6402 526.39 39.8202 522.79 40.1002L473.1 43.9802C469.76 44.2402 467.09 47.1502 467.05 50.5702L465.71 155.95C465.67 159.48 468.42 162.27 471.86 162.19Z" fill="#605D5A"/>
<path d="M473.06 157.84L520.15 157.91C522.02 157.87 523.56 156.3 523.59 154.4L525.18 47.7001C525.21 45.7201 523.61 44.2001 521.67 44.3501L474.33 48.0101C472.52 48.1501 471.08 49.7201 471.06 51.5701L469.74 154.47C469.71 156.37 471.2 157.88 473.06 157.84Z" fill="#A3C9F6"/>
<path d="M470.77 73.4003L471.05 51.5803C471.07 49.7303 472.52 48.1603 474.32 48.0203L521.66 44.3603C523.6 44.2103 525.2 45.7303 525.17 47.7103L524.82 70.3903L470.77 73.4003Z" fill="#549BEF"/>
<path d="M470.96 59.1203L471.06 51.5803C471.08 49.7303 472.53 48.1603 474.33 48.0203L521.67 44.3603C523.61 44.2103 525.21 45.7303 525.18 47.7103L525.07 55.8403L470.96 59.1203Z" fill="white"/>
<path d="M516.8 81.0802V140.05L477.76 140.78V83.1002L516.8 81.0802ZM517.31 79.1802C517.29 79.1802 517.26 79.1802 517.24 79.1802L477.18 81.2602C476.45 81.3002 475.88 81.9002 475.88 82.6202V141.29C475.88 142.05 476.49 142.66 477.25 142.66C477.26 142.66 477.27 142.66 477.28 142.66L517.34 141.92C518.08 141.91 518.68 141.3 518.68 140.55V80.5502C518.67 79.7902 518.06 79.1802 517.31 79.1802Z" fill="white"/>
<path fill-rule="evenodd" clip-rule="evenodd" d="M221.49 110.74L221.52 102.42C221.53 100.71 222.71 99.2004 224.16 99.0604L413.05 89.8704C415.04 89.6804 416.65 91.2104 416.62 93.2704L416.52 102.35L221.49 110.74Z" fill="#549BEF"/>
<path d="M336.82 117.16L359.5 116.57V122.67L336.82 123.15V117.16Z" fill="#797673"/>
<path d="M305.9 118.77L327.38 118.2V124.14L305.9 124.59V118.77Z" fill="#797673"/>
<path d="M276.56 119.73L296.95 119.2V124.98L276.56 125.41V119.73Z" fill="#797673"/>
<path d="M248.69 120.66L268.06 120.15V125.79L248.69 126.2V120.66Z" fill="#797673"/>
<path d="M548.8 71.4902L516.45 73.1102C509.73 73.1102 504.28 78.5602 504.28 85.2802V106.58C501.67 111.24 496.24 121.06 496.9 121.06C497.33 121.06 502.96 118.98 508.62 116.84C510.74 118.62 513.46 119.7 516.45 119.7L548.8 118.08C555.52 118.08 560.97 112.63 560.97 105.91V83.6502C560.97 76.9302 555.52 71.4902 548.8 71.4902Z" fill="#C5D43B"/>
<path d="M543.79 88.2704L517.29 89.4204C516.43 89.4204 515.72 88.7204 515.72 87.8504C515.72 86.9904 516.42 86.2804 517.29 86.2804L543.79 85.1304C544.65 85.1304 545.36 85.8304 545.36 86.7004C545.35 87.5704 544.65 88.2704 543.79 88.2704Z" fill="white"/>
<path d="M543.51 96.6903L517.29 97.7703C516.43 97.7703 515.72 97.0703 515.72 96.2003C515.72 95.3403 516.42 94.6303 517.29 94.6303L543.51 93.5503C544.37 93.5503 545.08 94.2503 545.08 95.1203C545.08 95.9903 544.37 96.6903 543.51 96.6903Z" fill="white"/>
<path d="M535.93 105.42L517.3 106.11C516.44 106.11 515.73 105.41 515.73 104.54C515.73 103.68 516.43 102.97 517.3 102.97L535.93 102.28C536.79 102.28 537.5 102.98 537.5 103.85C537.49 104.72 536.79 105.42 535.93 105.42Z" fill="white"/>
<path d="M386.66 208.98L245.73 205.02V148.42L386.66 148.03V208.98Z" fill="white"/>
<path d="M102.48 153.66L237 151.1C239.38 150.93 241.34 148.87 241.37 146.51L243.47 47.01C243.5 44.63 241.59 42.99 239.21 43.34L103.45 55.72C101.51 56.01 99.9301 57.97 99.9001 60.1L99.0201 150.07C99.0101 152.2 100.55 153.81 102.48 153.66Z" fill="#797673"/>
<path d="M109.39 146.47L228.82 144.38C229.56 144.32 230.17 143.67 230.18 142.93L231.38 53.86C231.39 53.11 230.8 52.6 230.05 52.7L110.23 62.81C109.61 62.9 109.1 63.52 109.09 64.2L108.27 145.34C108.27 146.01 108.77 146.52 109.39 146.47Z" fill="#A3C9F6"/>
<path d="M186.14 117.71L122.71 119.87V131.64L186.14 130.35V117.71Z" fill="white"/>
<path d="M186.14 101.34L122.71 104.56V116.32L186.14 113.99V101.34Z" fill="white"/>
<path d="M136.44 119.4L122.71 119.87V131.64L136.44 131.36V119.4Z" fill="#F7B548"/>
<path d="M136.44 103.86L122.71 104.56V116.32L136.44 115.82V103.86Z" fill="#F7B548"/>
<path d="M129.57 113.27C131.304 113.27 132.71 111.864 132.71 110.13C132.71 108.396 131.304 106.99 129.57 106.99C127.836 106.99 126.43 108.396 126.43 110.13C126.43 111.864 127.836 113.27 129.57 113.27Z" fill="#FDD99C"/>
<path d="M129.57 128.58C131.304 128.58 132.71 127.174 132.71 125.44C132.71 123.706 131.304 122.3 129.57 122.3C127.836 122.3 126.43 123.706 126.43 125.44C126.43 127.174 127.836 128.58 129.57 128.58Z" fill="#FDD99C"/>
<path d="M332.65 148.18V207.46L386.66 208.98V148.03L332.65 148.18Z" fill="#F7B548"/>
<path d="M374.55 161.11C374.55 161.11 374.54 161.11 374.55 161.11L343.61 160.92C342.93 160.92 342.39 160.45 342.39 159.87C342.39 159.29 342.94 158.8 343.63 158.83L374.57 159.02C375.25 159.02 375.79 159.49 375.79 160.07C375.77 160.65 375.22 161.11 374.55 161.11Z" fill="white"/>
<path d="M363.99 167.08C363.98 167.08 363.98 167.08 363.97 167.08L343.59 166.83C342.91 166.82 342.37 166.35 342.38 165.77C342.39 165.19 342.98 164.78 343.63 164.74L364.01 164.99C364.69 165 365.23 165.47 365.22 166.05C365.21 166.62 364.66 167.08 363.99 167.08Z" fill="white"/>
<path d="M374.55 173.05C374.54 173.05 374.54 173.05 374.54 173.05L343.6 172.74C342.92 172.73 342.38 172.26 342.39 171.68C342.4 171.1 343.05 170.71 343.63 170.65L374.57 170.96C375.25 170.97 375.79 171.44 375.78 172.02C375.77 172.59 375.22 173.05 374.55 173.05Z" fill="white"/>
<path d="M364.5 179.01C364.49 179.01 364.48 179.01 364.47 179.01L343.58 178.65C342.9 178.64 342.36 178.16 342.38 177.59C342.39 177.01 342.96 176.56 343.63 176.57L364.52 176.93C365.2 176.94 365.74 177.42 365.72 177.99C365.72 178.56 365.17 179.01 364.5 179.01Z" fill="white"/>
<path d="M374.55 184.98C374.54 184.98 374.54 184.98 374.53 184.98L343.59 184.56C342.91 184.55 342.37 184.08 342.38 183.5C342.39 182.92 342.92 182.46 343.63 182.47L374.57 182.89C375.25 182.9 375.79 183.37 375.78 183.95C375.76 184.53 375.22 184.98 374.55 184.98Z" fill="white"/>
<path d="M374.55 190.951C374.54 190.951 374.53 190.951 374.53 190.951L343.59 190.471C342.91 190.461 342.37 189.981 342.38 189.411C342.39 188.831 343.04 188.431 343.63 188.391L374.57 188.871C375.25 188.881 375.79 189.361 375.77 189.931C375.76 190.501 375.22 190.951 374.55 190.951Z" fill="white"/>
<path d="M365.19 196.92C365.18 196.92 365.17 196.92 365.15 196.92L343.58 196.39C342.9 196.37 342.37 195.89 342.39 195.32C342.41 194.74 342.94 194.3 343.65 194.31L365.22 194.84C365.9 194.86 366.43 195.34 366.41 195.91C366.39 196.47 365.85 196.92 365.19 196.92Z" fill="white"/>
<path d="M257.61 193.25L255.64 192L272.36 172.95L291.64 181.29L301.48 161.95L319.65 166.59L318.94 168.59L302.87 164.48L292.85 184.16L273.09 175.61L257.61 193.25Z" fill="#0064DA"/>
<path d="M230.06 52.7003L202.45 55.0303V144.84L228.82 144.38C229.56 144.32 230.17 143.67 230.18 142.93L231.38 53.8603C231.4 53.1203 230.8 52.6003 230.06 52.7003Z" fill="white"/>
<path d="M109.01 72.9302L109.1 64.2002C109.11 63.5202 109.62 62.9002 110.24 62.8102L230.06 52.7002C230.8 52.5902 231.4 53.1102 231.39 53.8602L231.25 63.9202L109.01 72.9302Z" fill="#549BEF"/>
<path d="M256.65 195.81C258.511 195.81 260.02 194.302 260.02 192.44C260.02 190.579 258.511 189.07 256.65 189.07C254.789 189.07 253.28 190.579 253.28 192.44C253.28 194.302 254.789 195.81 256.65 195.81Z" fill="#C5D43B"/>
<path d="M272.76 177.67C274.621 177.67 276.13 176.161 276.13 174.3C276.13 172.439 274.621 170.93 272.76 170.93C270.899 170.93 269.39 172.439 269.39 174.3C269.39 176.161 270.899 177.67 272.76 177.67Z" fill="#C5D43B"/>
<path d="M292.12 185.96C293.981 185.96 295.49 184.451 295.49 182.59C295.49 180.729 293.981 179.22 292.12 179.22C290.259 179.22 288.75 180.729 288.75 182.59C288.75 184.451 290.259 185.96 292.12 185.96Z" fill="#C5D43B"/>
<path d="M302.17 166.75C304.031 166.75 305.54 165.241 305.54 163.38C305.54 161.519 304.031 160.01 302.17 160.01C300.309 160.01 298.8 161.519 298.8 163.38C298.8 165.241 300.309 166.75 302.17 166.75Z" fill="#C5D43B"/>
<path d="M320.51 171.55C322.371 171.55 323.88 170.041 323.88 168.18C323.88 166.319 322.371 164.81 320.51 164.81C318.649 164.81 317.14 166.319 317.14 168.18C317.14 170.041 318.649 171.55 320.51 171.55Z" fill="#C5D43B"/>
</svg>
