<svg width="636" height="300" viewBox="0 0 636 300" fill="none" xmlns="http://www.w3.org/2000/svg">
<path d="M423.86 242.97L423.26 80.5996C423.25 77.1096 420.85 74.0196 417.9 73.7096L200.14 60.2396C196.22 59.8196 193.06 62.7596 193.11 66.8096C193.11 66.8096 195.01 234.47 195.06 238.15C195.1 241.83 198.09 243.68 198.09 243.68L423.86 242.97Z" fill="#B3AFAB"/>
<path fill-rule="evenodd" clip-rule="evenodd" d="M207.38 220.42C207.4 222.35 209.07 224.08 210.93 224.1L411.5 215.12C413.04 215.14 414.28 213.69 414.28 211.88L413.8 90.3799C413.79 88.5599 412.53 86.9499 410.98 86.7999L209.68 77.0099C207.56 76.7999 205.85 78.4299 205.87 80.6299L207.38 219.79" fill="#848484"/>
<path d="M426.63 242.98L426.05 80.6797C426.04 77.1897 423.65 74.1097 420.7 73.7897L203.13 60.3397C199.21 59.9197 196.06 62.8598 196.11 66.9098L198.13 246.09L426.63 242.98Z" fill="#625F5B"/>
<path fill-rule="evenodd" clip-rule="evenodd" d="M210.36 220.44C210.38 222.37 212.05 224.1 213.9 224.12L414.28 215.14C415.82 215.16 417.06 213.71 417.05 211.9L416.58 90.4598C416.57 88.6398 415.31 87.0398 413.77 86.8798L212.66 77.0998C210.54 76.8898 208.83 78.5198 208.85 80.7198L210.34 219.82" fill="#BDD8F9"/>
<path fill-rule="evenodd" clip-rule="evenodd" d="M416.62 99.3198L416.59 90.4598C416.58 88.6398 415.33 87.0398 413.78 86.8798L212.66 77.0998C210.54 76.8898 208.83 78.5198 208.85 80.7198L208.95 90.3898L416.62 99.3198Z" fill="#76AFF2"/>
<path d="M238.12 98.0996L220.57 97.5596V102.65L238.12 103.1V98.0996Z" fill="#76AFF2"/>
<path d="M262.06 98.8396L245.43 98.3296V103.28L262.06 103.71V98.8396Z" fill="#76AFF2"/>
<path d="M284.77 99.5496L268.99 99.0596V103.88L284.77 104.29V99.5496Z" fill="#76AFF2"/>
<path d="M306.34 100.21L291.35 99.7495V104.45L306.34 104.83V100.21Z" fill="#76AFF2"/>
<path d="M198.09 243.82L198.13 246.97C198.14 248.06 198.93 248.99 200 249.18L297.8 264.32C300.4 264.77 305.58 265.19 308.24 265.15L528.23 249.25C528.79 249.22 529.23 248.73 529.23 248.13V245.43C529.23 244.71 528.69 244.13 528.01 244.12L225.47 244.71L198.09 243.82Z" fill="#9C9894"/>
<path d="M198.08 243.43L299.72 258.09C303.37 258.68 307.09 258.96 310.81 258.93L527.75 244.17L425.73 231.49L198.08 243.43Z" fill="#CCCAC7"/>
<path d="M150.05 154.1L97.44 154.16C93.75 154.08 90.72 150.99 90.66 147.24L88.91 30.7198C88.85 26.8198 92 23.8198 95.83 24.1198L148.73 28.2498C152.28 28.5298 155.13 31.6298 155.17 35.2698L156.6 147.47C156.65 151.21 153.71 154.18 150.05 154.1Z" fill="#605D5A"/>
<path d="M148.78 149.46L98.6399 149.54C96.6499 149.49 95.0099 147.82 94.9799 145.8L93.2899 32.2C93.2599 30.09 94.9599 28.47 97.0299 28.63L147.43 32.53C149.35 32.68 150.89 34.35 150.92 36.32L152.33 145.87C152.35 147.9 150.76 149.51 148.78 149.46Z" fill="#BDD8F9"/>
<path d="M151.21 59.5698L150.91 36.3298C150.88 34.3598 149.35 32.6798 147.42 32.5398L97.0199 28.6398C94.9499 28.4798 93.2499 30.0998 93.2799 32.2098L93.6499 57.0598L151.21 59.5698Z" fill="#76AFF2"/>
<path d="M151.02 44.3598L150.92 36.3298C150.89 34.3598 149.36 32.6898 147.43 32.5398L97.0299 28.6398C94.9599 28.4798 93.2599 30.0998 93.2899 32.2098L93.4099 40.3098L151.02 44.3598Z" fill="white"/>
<path d="M543.32 145.02L400.11 142.29C397.58 142.11 395.49 139.92 395.46 137.4L393.23 31.4598C393.19 28.9298 395.23 27.1798 397.77 27.5498L542.3 40.7399C544.36 41.0499 546.05 43.1298 546.07 45.4098L547 141.2C547.02 143.46 545.38 145.17 543.32 145.02Z" fill="#797673"/>
<path d="M535.97 137.36L408.81 135.13C408.02 135.07 407.37 134.38 407.36 133.59L406.08 38.7599C406.07 37.9699 406.7 37.4099 407.5 37.5299L535.07 48.2899C535.73 48.3799 536.27 49.0499 536.28 49.7699L537.15 136.15C537.16 136.87 536.63 137.42 535.97 137.36Z" fill="#BDD8F9"/>
<path d="M536.37 59.0696L536.28 49.7696C536.27 49.0496 535.73 48.3796 535.07 48.2896L407.5 37.5296C406.71 37.4196 406.07 37.9696 406.08 38.7596L406.22 49.4796L536.37 59.0696Z" fill="#76AFF2"/>
<path d="M461.48 112.42L414.78 110.64V79.1597L461.48 82.2697V112.42Z" fill="white"/>
<path d="M417.94 110.759L437.46 111.499L427.47 92.9395L417.94 110.759Z" fill="#F7B548"/>
<path d="M449.79 94.1094L441.12 111.639L459.07 112.319L449.79 94.1094Z" fill="#F7B548"/>
<path d="M438.37 89.6196L428.99 111.18L447.99 111.9L438.37 89.6196Z" fill="#4995EE"/>
<path d="M291.5 154.73L288.63 145.39C287.88 142.9 289.39 140.39 291.99 139.79C294.59 139.19 297.31 140.72 298.06 143.22L301 152.8L291.5 154.73Z" fill="#8A6FE8"/>
<path d="M289.81 175.44L219.93 170.37L224.03 123.85L293.74 130.91L289.81 175.44Z" fill="white"/>
<path d="M224.66 170.72L253.87 172.83L241.27 144.58L224.66 170.72Z" fill="#F7B548"/>
<path d="M274.63 147.48L259.34 173.23L286.19 175.18L274.63 147.48Z" fill="#F7B548"/>
<path d="M258.07 140.18L241.19 171.92L269.62 173.98L258.07 140.18Z" fill="#4995EE"/>
<path d="M384.76 232.1C378.72 226.18 367.44 213.19 363.46 196.86L373.16 194.5C376.77 209.32 387.1 220.5 391.92 225.06C392.32 225.43 389.05 229.4 384.76 232.1Z" fill="url(#paint0_linear)"/>
<path d="M384.76 232.1C378.72 226.18 367.44 213.19 363.46 196.86L373.16 194.5C376.77 209.32 387.1 220.5 391.92 225.06C392.32 225.43 389.05 229.4 384.76 232.1Z" fill="url(#paint1_linear)"/>
<path d="M391.85 224.99L386.23 230.55L402.15 274.25L422.15 254.51C423.01 253.66 422.97 252.33 422.06 251.53L391.85 224.99Z" fill="#522CD5"/>
<path d="M389.17 271.4C388.81 273.11 390.04 274.49 391.29 275.58L395.1 278.93C395.78 279.53 396.87 279.5 397.51 278.86L404.57 271.87C405.3 271.15 405.26 270.01 404.49 269.33L400.7 265.7C399.26 264.44 398.54 263.46 399 261.18C401.7 247.7 398.62 236.08 389.85 226.98L384.71 232.07C388.91 237.02 393.91 248.97 389.17 271.4Z" fill="url(#paint2_linear)"/>
<path d="M397.51 278.86C396.87 279.5 395.78 279.53 395.1 278.93L391.29 275.58C390.47 274.86 389.67 274.02 389.31 273.04L399.02 263.43C399.28 264.3 399.86 264.95 400.71 265.69L404.5 269.32C405.27 270 405.31 271.14 404.58 271.86L397.51 278.86Z" fill="url(#paint3_radial)"/>
<path d="M350 236.51C348.44 228.12 346.65 211.02 352.86 196.3L362.28 201.01C356.65 214.36 358.7 229.49 360.04 236.07C360.15 236.62 355.13 237.37 350 236.51Z" fill="url(#paint4_linear)"/>
<path d="M350 236.51C348.44 228.12 346.65 211.02 352.86 196.3L362.28 201.01C356.65 214.36 358.7 229.49 360.04 236.07C360.15 236.62 355.13 237.37 350 236.51Z" fill="url(#paint5_linear)"/>
<path d="M360.02 235.98L352.13 236.35L339.88 279.23L367.96 277.95C369.17 277.89 369.91 276.88 369.62 275.68L360.02 235.98Z" fill="#522CD5"/>
<path d="M330.78 268.48C329.49 269.5 329.71 271.34 330.1 272.98L331.31 277.99C331.53 278.89 332.45 279.58 333.35 279.54L343.28 279.08C344.31 279.03 344.94 278.17 344.69 277.15L343.67 271.95C343.21 270.06 343.19 268.86 344.89 267.48C354.97 259.32 359.19 248.68 357.22 236.12L350 236.46C350.58 242.9 347.76 255.06 330.78 268.48Z" fill="url(#paint6_linear)"/>
<path d="M333.35 279.54C332.44 279.58 331.53 278.88 331.31 277.99L330.1 272.98C329.84 271.91 329.67 270.75 329.94 269.79L343.59 269.15C343.3 269.96 343.4 270.84 343.67 271.95L344.69 277.15C344.94 278.17 344.3 279.03 343.28 279.08L333.35 279.54Z" fill="url(#paint7_radial)"/>
<path d="M365.337 200.948L354.739 201.444L354.804 202.823L365.402 202.326L365.337 200.948Z" fill="#A08BE8"/>
<path d="M368.745 186.579L358.285 188.357L358.516 189.718L368.976 187.94L368.745 186.579Z" fill="#A08BE8"/>
<path d="M310.42 159.65C309.05 145.38 313.1 134.82 313.1 134.82L309.88 134.3L309.81 134.23C318.45 109.84 343.52 94.32 369.99 98.57C399.81 103.35 420.1 131.39 415.32 161.21C410.54 191.03 382.5 211.32 352.68 206.54C329.15 202.77 311.56 184.51 307.53 162.33C307.45 161.4 307.73 159.81 310.42 159.65Z" fill="url(#paint8_radial)"/>
<path d="M310.42 159.65C309.06 145.56 313 135.09 313.1 134.83L338.02 138.73C338.02 138.73 341.61 138.94 341.09 142.16C340.57 145.38 338.98 154.47 337.37 164.54C337.03 166.62 310.7 161.66 310.42 159.65Z" fill="url(#paint9_radial)"/>
<path d="M310.42 159.59C310.37 159.05 310.33 158.52 310.29 157.99C310.11 155.33 310.11 152.81 310.22 150.48C311.39 150.24 312.46 150.69 313.53 151.8C315.01 153.33 322.53 161.53 322.53 161.53L310.42 159.59Z" fill="#A08BE8"/>
<path d="M307.64 162.99C307.64 162.99 306.61 159.87 310.42 159.66C310.42 159.65 310.42 159.63 310.42 159.62L334.41 163.37C335.69 163.58 337.46 163.07 337.81 161.86C337.67 162.75 337.52 163.65 337.37 164.56C337.07 166.44 335.51 167.21 334.23 167.18C334.1 167.17 333.97 167.17 333.85 167.15L330.09 166.55L307.64 162.99Z" fill="#512BD4"/>
<path d="M310.4 172.43L403.49 187.35C400.83 190.57 397.82 193.45 394.53 195.97L316.22 183.42C313.88 180 311.92 176.32 310.4 172.43Z" fill="#D8CFF7"/>
<path d="M318.27 186.24C314.33 181.2 311.27 175.48 309.29 169.33L320.69 171.16L318.27 186.24Z" fill="#512BD4"/>
<path d="M366.75 95.9202L377.19 97.5302L377.36 86.5802L369.87 85.4302L366.75 95.9202Z" fill="#8A6FE8"/>
<path d="M361.75 101.86C361.28 101.79 360.97 101.32 361.09 100.86C362.4 95.99 367.2 92.78 372.3 93.56C377.4 94.34 381.01 98.84 380.81 103.89C380.79 104.37 380.35 104.72 379.88 104.64L361.75 101.86Z" fill="url(#paint10_radial)"/>
<path d="M327.876 150.168C328.415 146.234 326.954 142.785 324.612 142.464C322.271 142.143 319.935 145.072 319.396 149.006C318.857 152.94 320.318 156.389 322.66 156.71C325.001 157.031 327.337 154.102 327.876 150.168Z" fill="#512BD4"/>
<path d="M324.27 145.82C325.58 147.6 325.2 150.1 323.42 151.41C322.2 152.31 320.64 152.41 319.36 151.81C319.26 150.93 319.27 149.97 319.41 148.99C319.67 147.06 320.37 145.38 321.29 144.2C322.42 144.27 323.53 144.83 324.27 145.82Z" fill="#8065E0"/>
<path d="M374.36 88.26C378.574 88.26 381.99 84.8439 381.99 80.63C381.99 76.4161 378.574 73 374.36 73C370.146 73 366.73 76.4161 366.73 80.63C366.73 84.8439 370.146 88.26 374.36 88.26Z" fill="#D8CFF7"/>
<path d="M291.02 164.31L296.86 155.91C306.43 162.02 315.2 167.16 323.86 168.46C341.12 171.05 354.85 155.18 358.38 150.57L368.29 157.88C356.64 169.44 334.4 195.6 291.02 164.31Z" fill="url(#paint11_linear)"/>
<path d="M363.21 166.13C368.755 166.13 373.25 161.635 373.25 156.09C373.25 150.545 368.755 146.05 363.21 146.05C357.665 146.05 353.17 150.545 353.17 156.09C353.17 161.635 357.665 166.13 363.21 166.13Z" fill="url(#paint12_radial)"/>
<path d="M295.12 169.27L284.97 168.03C282.27 167.68 280.37 165.35 280.72 162.83C281.08 160.31 283.56 158.55 286.26 158.9L296.67 160.18L295.12 169.27Z" fill="#8A6FE8"/>
<path d="M289.99 159.79L282.26 153.09C280.21 151.29 279.94 148.3 281.65 146.42C283.36 144.53 286.41 144.46 288.46 146.26L296.38 153.13L289.99 159.79Z" fill="#8A6FE8"/>
<path d="M290.24 164.58L280.83 160.58C278.33 159.5 277.15 156.74 278.2 154.42C279.25 152.1 282.13 151.09 284.63 152.18L294.28 156.28L290.24 164.58Z" fill="#8A6FE8"/>
<path d="M304.71 155.02C301.66 150.41 295.29 148.89 290.49 151.61C285.69 154.33 284.28 160.28 287.33 164.88C290.38 169.49 296.75 171.01 301.55 168.29C306.35 165.57 307.77 159.63 304.71 155.02Z" fill="url(#paint13_radial)"/>
<path d="M305.01 197.85L220.93 199.86V195.94L305.01 194.21V197.85Z" fill="#76AFF2"/>
<path d="M305.01 206.25L220.93 209.08V205.16L305.01 202.6V206.25Z" fill="#76AFF2"/>
<path d="M429.1 56.8797L414.67 55.9297V60.1097L429.1 60.9797V56.8797Z" fill="#76AFF2"/>
<path d="M448.77 58.7198L435.1 57.8198V61.8898L448.77 62.7198V58.7198Z" fill="#76AFF2"/>
<path d="M467.44 60.08L454.47 59.23V63.2L467.44 63.98V60.08Z" fill="#76AFF2"/>
<path d="M485.17 61.3896L472.85 60.5796V64.4396L485.17 65.1896V61.3896Z" fill="#76AFF2"/>
<path d="M414.876 65.4729L414.743 67.4185L490.119 72.5559L490.252 70.6103L414.876 65.4729Z" fill="#8DBCF4"/>
<path d="M414.867 71.7336L414.744 73.6797L490.083 78.4658L490.206 76.5196L414.867 71.7336Z" fill="#8DBCF4"/>
<path d="M414.842 115.533L414.781 117.482L489.904 119.819L489.964 117.87L414.842 115.533Z" fill="#8DBCF4"/>
<path d="M466.09 99.0596V101.02L489.98 102.1L490.07 100.14L466.09 99.0596Z" fill="#8DBCF4"/>
<path d="M466.09 111.1V113.05L489.92 113.91L489.99 111.95L466.09 111.1Z" fill="#8DBCF4"/>
<path d="M466.09 105.08V107.04L489.95 108L490.03 106.05L466.09 105.08Z" fill="#8DBCF4"/>
<path d="M466.09 93.04V95L490.01 96.19L490.1 94.24L466.09 93.04Z" fill="#8DBCF4"/>
<path d="M466.09 87.0298V88.9798L490.03 90.2798L490.14 88.3298L466.09 87.0298Z" fill="#8DBCF4"/>
<path d="M466.09 81.0098V82.9698L490.06 84.3798L490.17 82.4298L466.09 81.0098Z" fill="#8DBCF4"/>
<path d="M467.1 130.6L488.02 131.06C488.83 131.08 489.5 130.42 489.5 129.61V124.69C489.5 123.9 488.87 123.26 488.08 123.24L467.16 122.78C466.35 122.76 465.68 123.42 465.68 124.23V129.15C465.68 129.94 466.31 130.59 467.1 130.6Z" fill="#0064DA"/>
<path d="M461.9 123.05L414.83 121.78L414.78 123.73L461.9 125.01V123.05Z" fill="#8DBCF4"/>
<path d="M442.04 128.62L414.83 128.03L414.79 129.99L442.04 130.58V128.62Z" fill="#8DBCF4"/>
<path d="M528.66 71.8397L497.85 70.0497V62.4097L528.66 64.5397V71.8397Z" fill="white"/>
<path d="M528.66 71.8398L521.06 71.3998V64.0098L528.66 64.5398V71.8398Z" fill="#F7B548"/>
<path d="M499.36 76.5698L526.69 78.3898V130L499.36 129.35V76.5698ZM498.66 74.5698C497.98 74.5698 497.41 75.1198 497.41 75.8098V130.03C497.41 130.7 497.95 131.26 498.63 131.27L527.36 131.95C527.37 131.95 527.38 131.95 527.39 131.95C528.08 131.95 528.64 131.4 528.64 130.71V77.7298C528.64 77.0798 528.13 76.5298 527.47 76.4898L498.74 74.5798C498.71 74.5798 498.68 74.5698 498.66 74.5698Z" fill="white"/>
<path d="M306.43 111.24L220.59 108.42V116.39L306.43 118.7V111.24Z" fill="#76AFF2"/>
<path d="M146.35 98.9797L99.6401 97.1997V65.7197L146.35 68.0497V98.9797Z" fill="white"/>
<path d="M102.81 97.3195L122.33 98.0595L112.33 79.4995L102.81 97.3195Z" fill="#F7B548"/>
<path d="M134.65 80.6694L125.99 98.1994L143.93 98.8894L134.65 80.6694Z" fill="#F7B548"/>
<path d="M123.23 76.1797L113.85 97.7397L132.86 98.4597L123.23 76.1797Z" fill="#4995EE"/>
<path d="M146.18 111.21L99.6401 110.08V107.48L146.18 108.62V111.21Z" fill="#8DBCF4"/>
<path d="M146.18 117.88L99.6401 116.75V114.15L146.18 115.29V117.88Z" fill="#8DBCF4"/>
<path d="M146.18 124.55L99.6401 123.42V120.82L146.18 121.96V124.55Z" fill="#8DBCF4"/>
<defs>
<linearGradient id="paint0_linear" x1="365.927" y1="195.207" x2="388.412" y2="229.681" gradientUnits="userSpaceOnUse">
<stop stop-color="#522CD5"/>
<stop offset="0.4397" stop-color="#8A6FE8"/>
</linearGradient>
<linearGradient id="paint1_linear" x1="365.927" y1="195.207" x2="388.412" y2="229.681" gradientUnits="userSpaceOnUse">
<stop stop-color="#522CD5"/>
<stop offset="0.4397" stop-color="#8A6FE8"/>
</linearGradient>
<linearGradient id="paint2_linear" x1="384.613" y1="228.43" x2="398.732" y2="278.727" gradientUnits="userSpaceOnUse">
<stop stop-color="#522CD5"/>
<stop offset="0.4397" stop-color="#8A6FE8"/>
</linearGradient>
<radialGradient id="paint3_radial" cx="0" cy="0" r="1" gradientUnits="userSpaceOnUse" gradientTransform="translate(388.333 262.231) rotate(135.292) scale(16.105)">
<stop offset="0.034" stop-color="#522CD5"/>
<stop offset="0.9955" stop-color="#8A6FE8"/>
</radialGradient>
<linearGradient id="paint4_linear" x1="355.954" y1="196.646" x2="349.92" y2="236.376" gradientUnits="userSpaceOnUse">
<stop stop-color="#522CD5"/>
<stop offset="0.4397" stop-color="#8A6FE8"/>
</linearGradient>
<linearGradient id="paint5_linear" x1="355.954" y1="196.646" x2="349.92" y2="236.376" gradientUnits="userSpaceOnUse">
<stop stop-color="#522CD5"/>
<stop offset="0.4397" stop-color="#8A6FE8"/>
</linearGradient>
<linearGradient id="paint6_linear" x1="352.018" y1="233.613" x2="331.22" y2="278.682" gradientUnits="userSpaceOnUse">
<stop stop-color="#522CD5"/>
<stop offset="0.4397" stop-color="#8A6FE8"/>
</linearGradient>
<radialGradient id="paint7_radial" cx="0" cy="0" r="1" gradientUnits="userSpaceOnUse" gradientTransform="translate(335.445 261.179) rotate(177.318) scale(16.1049 16.1057)">
<stop offset="0.034" stop-color="#522CD5"/>
<stop offset="0.9955" stop-color="#8A6FE8"/>
</radialGradient>
<radialGradient id="paint8_radial" cx="0" cy="0" r="1" gradientUnits="userSpaceOnUse" gradientTransform="translate(367.098 124.387) rotate(-160.53) scale(46.5498)">
<stop offset="0.4744" stop-color="#A08BE8"/>
<stop offset="0.8618" stop-color="#8065E0"/>
</radialGradient>
<radialGradient id="paint9_radial" cx="0" cy="0" r="1" gradientUnits="userSpaceOnUse" gradientTransform="translate(325.913 146.146) rotate(-160.53) scale(35.7615)">
<stop offset="0.2022" stop-color="#E1DFDD"/>
<stop offset="0.7337" stop-color="white"/>
</radialGradient>
<radialGradient id="paint10_radial" cx="0" cy="0" r="1" gradientUnits="userSpaceOnUse" gradientTransform="translate(372.063 99.4589) rotate(-160.53) scale(8.05934)">
<stop stop-color="#8065E0"/>
<stop offset="0.8628" stop-color="#512BD4"/>
</radialGradient>
<linearGradient id="paint11_linear" x1="355.7" y1="133.743" x2="304.752" y2="184.869" gradientUnits="userSpaceOnUse">
<stop offset="0.3344" stop-color="#9780E6"/>
<stop offset="0.8488" stop-color="#8A6FE8"/>
</linearGradient>
<radialGradient id="paint12_radial" cx="0" cy="0" r="1" gradientUnits="userSpaceOnUse" gradientTransform="translate(363.564 151.997) rotate(-170.729) scale(14.9104)">
<stop stop-color="#8065E0"/>
<stop offset="0.8628" stop-color="#512BD4"/>
</radialGradient>
<radialGradient id="paint13_radial" cx="0" cy="0" r="1" gradientUnits="userSpaceOnUse" gradientTransform="translate(298.017 154.492) rotate(14.1664) scale(17.4276 16.2645)">
<stop stop-color="#8065E0"/>
<stop offset="0.8628" stop-color="#512BD4"/>
</radialGradient>
</defs>
</svg>
