<svg width="636" height="300" viewBox="0 0 636 300" fill="none" xmlns="http://www.w3.org/2000/svg">
<path d="M571.06 242.2C573.65 233.95 574.69 226.67 575.12 223.79C580.41 187.56 555.13 153.92 518.65 148.67C507.71 147.09 497.04 148.3 487.28 151.65C480.19 114.18 449.95 83.5702 409.84 77.7902C380 73.4902 351.49 83.9202 331.62 103.49C322.21 92.9302 308.91 85.7602 293.64 84.4002C275.32 82.7902 258.27 89.8702 246.59 102.22C245.45 102.06 244.32 101.93 243.18 101.83C212.1 99.0702 183.84 116.11 171.05 142.46C166.39 140.77 161.45 139.62 156.28 139.15C124.63 136.35 96.7101 159.54 93.8701 190.96C93.2401 197.85 93.8901 204.56 95.5901 210.86C82.6801 217.11 73.0001 229.36 70.7801 244.54C69.5101 253.26 71.7201 263.2 76.4201 272.69C310.03 244.48 486.41 241.46 571.06 242.2Z" fill="url(#paint0_radial)"/>
<path d="M386 202.59C390.43 153.42 353.86 110 304.33 105.62C254.81 101.22 211.08 137.53 206.67 186.72C204.26 213.59 214.1 238.71 231.58 256.73C281.51 252.45 327.56 249.38 369.2 247.18C378.46 234.5 384.51 219.28 386 202.59Z" fill="#8DBCF4"/>
<path d="M366.9 247.26C369.37 247.12 371.82 247.01 374.25 246.87C382.5 234.28 387.57 219.84 388.93 204.79C391.14 180.24 383.58 156.28 367.65 137.37C351.72 118.46 329.32 106.82 304.59 104.64C253.53 100.13 208.28 137.68 203.73 188.38C201.48 213.44 209.65 238.25 226.22 257.16C228.69 256.95 231.14 256.73 233.59 256.52C216.09 238.44 207.33 213.81 209.59 188.89C213.86 141.4 256.25 106.2 304.08 110.44C351.91 114.68 387.34 156.77 383.09 204.26C381.69 219.81 376.09 234.67 366.9 247.26Z" fill="white"/>
<path d="M251.78 207.3C250.43 202.9 249.68 198.23 249.68 193.41C249.68 167.18 271.18 145.84 297.59 145.84C324 145.84 345.5 167.18 345.5 193.41C345.5 198.24 344.78 202.89 343.42 207.28L365.91 214.09C367.91 207.55 369.01 200.61 369.01 193.41C369.01 154.24 337.03 122.49 297.59 122.49C258.15 122.49 226.17 154.24 226.17 193.41C226.17 200.61 227.27 207.57 229.27 214.11L251.78 207.3Z" fill="#2980E7"/>
<path d="M338.27 135.11L324.1 153.81C336.99 162.35 345.52 176.91 345.52 193.42C345.52 198.25 344.8 202.9 343.44 207.29L365.94 214.1C367.94 207.56 369.04 200.62 369.04 193.42C369.03 169.24 356.86 147.91 338.27 135.11Z" fill="#0064DA"/>
<path d="M267.04 156.81L252.01 138.83C236.24 151.85 226.18 171.46 226.18 193.41C226.18 200.61 227.28 207.57 229.28 214.11L251.77 207.3C250.42 202.9 249.67 198.23 249.67 193.41C249.7 178.71 256.46 165.54 267.04 156.81Z" fill="#CAE0FA"/>
<path d="M341.72 159.55C341.72 159.55 319.77 167.82 292.87 178.15C286.3 180.15 281.52 186.22 281.52 193.4C281.52 202.21 288.71 209.35 297.59 209.35C302.61 209.35 307.08 207.07 310.03 203.49C310.15 203.37 310.27 203.28 310.36 203.14C313.81 198.56 341.72 159.55 341.72 159.55Z" fill="white"/>
<path d="M297.61 200.56C301.59 200.56 304.82 197.35 304.82 193.4C304.82 189.45 301.59 186.24 297.61 186.24C293.63 186.24 290.4 189.45 290.4 193.4C290.4 197.36 293.63 200.56 297.61 200.56Z" fill="#3E8EED"/>
<path d="M410.36 265.84C437.97 268.21 476.41 266.68 497.13 260.72C501.23 259.53 502.64 258.25 502.64 255.49L502.35 88.7799C502.35 85.8799 499.72 83.5499 496.47 83.5499L409.7 83.4299C406.45 83.4299 403.8 85.7799 403.8 88.6799L404.11 260.64C404.09 263.64 404.85 265.24 410.36 265.84Z" fill="#605D5A"/>
<path d="M412.85 248.82L494.01 244.03C494.78 243.99 495.36 243.43 495.36 242.75L495.09 104.14C495.09 103.42 494.44 102.86 493.64 102.86L412.48 102.74C411.68 102.74 411.03 103.32 411.03 104.02L411.3 247.53C411.3 248.27 412.03 248.86 412.85 248.82Z" fill="#CFF1F5"/>
<path d="M452.55 93.8201C453.83 93.8201 454.86 92.9901 454.86 91.9701C454.86 90.9501 453.83 90.1201 452.55 90.1201C451.27 90.1201 450.24 90.9501 450.24 91.9701C450.23 93.0001 451.27 93.8201 452.55 93.8201Z" fill="#908D89"/>
<path d="M417.83 94.47C419.11 94.47 420.14 93.64 420.14 92.62C420.14 91.6 419.11 90.77 417.83 90.77C416.55 90.77 415.52 91.6 415.52 92.62C415.51 93.64 416.55 94.47 417.83 94.47Z" fill="#908D89"/>
<path d="M154.86 232.14L154.35 228.29C156.17 228.06 158.13 227.8 160.21 227.55L160.68 231.42C158.6 231.68 156.66 231.91 154.86 232.14ZM168.46 230.49L168.01 226.62L173.85 225.96L174.3 229.83L168.46 230.49ZM182.08 228.95L181.65 225.08L187.49 224.44L187.92 228.31L182.08 228.95ZM195.71 227.43L195.28 223.56L201.12 222.9L201.57 226.77L195.71 227.43Z" fill="#A7A4A0"/>
<path d="M110.99 221.44L110.36 217.61C137.58 213.27 166.7 209.09 196.85 205.2L197.36 209.05C167.22 212.94 138.16 217.1 110.99 221.44Z" fill="#A7A4A0"/>
<path d="M37.1902 234.48L36.4302 230.67L42.2102 229.54L42.9502 233.35L37.1902 234.48ZM50.6302 231.89L49.9002 228.06L55.6802 226.99L56.4002 230.82L50.6302 231.89ZM64.0902 229.4L63.3802 225.57L69.1602 224.54L69.8502 228.37L64.0902 229.4ZM77.6002 227.01L76.9102 223.18L82.7102 222.17L83.3802 226L77.6002 227.01ZM91.1002 224.69L90.4302 220.86L96.2302 219.89L96.8802 223.72L91.1002 224.69ZM104.62 222.47L103.99 218.64L109.79 217.71L110.42 221.54L104.62 222.47Z" fill="#A7A4A0"/>
<path d="M118.41 189.03L117.7 185.2L123.48 184.17L124.17 188L118.41 189.03ZM131.89 186.63L131.2 182.8L137 181.79L137.67 185.62L131.89 186.63ZM145.41 184.32L144.74 180.49L150.54 179.52L151.19 183.35L145.41 184.32ZM158.93 182.06L158.28 178.23L164.08 177.28L164.71 181.11L158.93 182.06ZM172.46 179.86L171.83 176.03L177.63 175.1L178.24 178.95L172.46 179.86Z" fill="#A7A4A0"/>
<path d="M122.92 172.1L122.18 168.27C148.32 163.35 176.14 158.52 204.89 153.91L205.52 157.74C176.81 162.35 149.02 167.18 122.92 172.1Z" fill="#A7A4A0"/>
<path d="M70.9504 182.45L70.1304 178.64L75.8904 177.43L76.6904 181.24L70.9504 182.45ZM84.3804 179.65L83.6004 175.84L89.3604 174.67L90.1404 178.48L84.3804 179.65ZM97.8004 176.94L97.0404 173.13L102.8 171.98L103.56 175.79L97.8004 176.94ZM111.24 174.32L110.5 170.51L116.28 169.4L117.02 173.21L111.24 174.32Z" fill="#A7A4A0"/>
<path d="M495.13 118.81L495.11 104.12C495.11 103.4 494.47 102.84 493.66 102.84L412.5 102.72C411.7 102.72 411.05 103.3 411.05 104L411.09 120.95L495.13 118.81Z" fill="#58D0DB"/>
<path d="M471.75 149L478.73 138.2L462.68 127.99L453.08 142.84L443.5 127.99L427.45 138.2L434.43 149L448.46 140.05L451.67 145.03L445.77 154.16L447.79 155.44L453.08 147.21L458.39 155.44L460.41 154.16L454.51 145.03L457.72 140.05L471.75 149Z" fill="#28C2D1"/>
<path d="M428.68 183.38C432.8 183.38 436.15 180.31 436.15 176.51C436.15 172.72 432.81 169.64 428.68 169.64C424.56 169.64 421.21 172.71 421.21 176.51C421.21 180.31 424.56 183.38 428.68 183.38Z" fill="#28C2D1"/>
<path d="M482.92 177.57L442.71 178.5V173.07L482.92 172.14V177.57Z" fill="#58D0DB"/>
<path d="M428.68 206.73C432.8 206.73 436.15 203.65 436.15 199.86C436.15 196.07 432.81 192.99 428.68 192.99C424.56 192.99 421.21 196.07 421.21 199.86C421.21 203.66 424.56 206.73 428.68 206.73Z" fill="#9FE4EB"/>
<path d="M482.82 200.54L442.71 201.84V196.41L482.82 195.11V200.54Z" fill="#9FE4EB"/>
<path d="M428.68 230.08C432.8 230.08 436.15 227 436.15 223.21C436.15 219.42 432.81 216.34 428.68 216.34C424.56 216.34 421.21 219.42 421.21 223.21C421.21 227.01 424.56 230.08 428.68 230.08Z" fill="#9FE4EB"/>
<path d="M482.82 223.45L442.71 225.2V219.77L482.82 218.02V223.45Z" fill="#9FE4EB"/>
<path d="M254.07 46.8H187.9V111.42H254.07V46.8Z" fill="white"/>
<path d="M279.62 73.75C277.58 70.71 258.18 37.25 255.79 33.2C253.42 29.13 250.01 27.79 245.58 27.79C244.46 27.79 242.02 27.79 238.8 27.79C229.9 27.79 213.58 27.79 204.06 27.79C200.85 27.79 198.4 27.79 197.28 27.79C192.85 27.79 189.44 29.15 187.07 33.2C184.68 37.25 165.28 70.71 163.24 73.75C161.2 76.79 161.2 80.5 164.61 86.59C168.02 92.68 185.03 122.41 187.07 126.13C189.11 129.85 192.16 132.05 197.28 132.05C198.42 132.05 201.1 132.05 204.57 132.05C216.64 132.05 238.29 132.05 238.29 132.05C241.76 132.05 244.44 132.05 245.58 132.05C250.68 132.05 253.75 129.85 255.79 126.13C257.83 122.41 274.86 92.68 278.25 86.59C281.64 80.5 281.68 76.78 279.62 73.75ZM247.93 107.04H236.7L221.51 80.89L206.32 107.04H195.09L210.41 79.92L195.09 52.8H206.49L221.52 78.95L236.55 52.8H247.95L232.63 79.92L247.93 107.04Z" fill="#3097D8"/>
<defs>
<radialGradient id="paint0_radial" cx="0" cy="0" r="1" gradientUnits="userSpaceOnUse" gradientTransform="translate(266.177 258.106) rotate(5.06472) scale(259.69 257.886)">
<stop offset="0.1159" stop-color="white"/>
<stop offset="0.9695" stop-color="#B8D6F7"/>
</radialGradient>
</defs>
</svg>
