<svg width="636" height="300" viewBox="0 0 636 300" fill="none" xmlns="http://www.w3.org/2000/svg">
<path d="M226.62 242.2L227.16 96.0301C227.17 92.8901 229.33 90.1101 231.98 89.8201L428.02 77.7001C431.55 77.3201 434.39 79.9701 434.35 83.6201C434.35 83.6201 432.64 234.56 432.6 237.87C432.56 241.18 429.87 242.84 429.87 242.84L226.62 242.2Z" fill="#B3AFAB"/>
<path fill-rule="evenodd" clip-rule="evenodd" d="M421.5 221.9C421.48 223.64 419.98 225.2 418.31 225.22L237.75 217.14C236.36 217.16 235.24 215.85 235.25 214.22L235.69 104.84C235.7 103.2 236.83 101.76 238.22 101.62L419.44 92.7999C421.35 92.6199 422.89 94.0799 422.87 96.0599L421.51 221.34" fill="#848484"/>
<path d="M224.13 242.21L224.65 96.1099C224.66 92.9699 226.81 90.1899 229.47 89.9099L425.33 77.7999C428.86 77.4199 431.7 80.0699 431.65 83.7099L429.83 245L224.13 242.21Z" fill="#625F5B"/>
<path fill-rule="evenodd" clip-rule="evenodd" d="M418.82 221.92C418.8 223.66 417.3 225.21 415.63 225.23L235.24 217.15C233.85 217.17 232.74 215.86 232.74 214.24L233.16 104.91C233.17 103.27 234.3 101.83 235.69 101.69L416.74 92.88C418.64 92.7 420.19 94.16 420.17 96.13L418.82 221.35" fill="#A3C9F6"/>
<path d="M429.87 242.97L429.84 245.81C429.83 246.79 429.12 247.63 428.16 247.8L340.12 261.43C337.78 261.84 333.12 262.21 330.72 262.18L132.68 247.87C132.18 247.84 131.78 247.4 131.78 246.86V244.43C131.78 243.78 132.27 243.26 132.88 243.25L405.24 243.78L429.87 242.97Z" fill="#9C9894"/>
<path d="M429.87 242.62L338.37 255.81C335.09 256.34 331.74 256.59 328.39 256.56L133.1 243.27L224.94 231.85L429.87 242.62Z" fill="#CCCAC7"/>
<path d="M473.11 162.2L520.47 162.25C523.79 162.17 526.52 159.39 526.57 156.02L528.14 51.13C528.19 47.62 525.36 44.92 521.91 45.19L474.28 48.91C471.08 49.16 468.52 51.95 468.48 55.23L467.2 156.24C467.17 159.6 469.81 162.27 473.11 162.2Z" fill="#605D5A"/>
<path d="M474.25 158.02L519.38 158.09C521.18 158.05 522.65 156.54 522.68 154.72L524.2 52.4601C524.23 50.5601 522.7 49.1101 520.84 49.2501L475.47 52.7601C473.74 52.8901 472.35 54.4001 472.33 56.1801L471.06 154.8C471.04 156.62 472.47 158.07 474.25 158.02Z" fill="#A3C9F6"/>
<path d="M472.06 77.1001L472.33 56.1801C472.35 54.4101 473.74 52.9001 475.47 52.7601L520.84 49.2501C522.7 49.1101 524.23 50.5601 524.2 52.4601L523.87 74.2001L472.06 77.1001Z" fill="#549BEF"/>
<path d="M472.24 63.4101L472.33 56.1801C472.35 54.4101 473.74 52.9001 475.47 52.7601L520.84 49.2501C522.7 49.1101 524.23 50.5601 524.2 52.4601L524.09 60.2501L472.24 63.4101Z" fill="white"/>
<path d="M516.18 84.4599V140.98L478.76 141.68V86.3899L516.18 84.4599ZM516.66 82.6299C516.64 82.6299 516.61 82.6299 516.59 82.6299L478.2 84.6199C477.5 84.6599 476.96 85.2299 476.96 85.9299V142.16C476.96 142.88 477.55 143.47 478.27 143.47C478.28 143.47 478.29 143.47 478.29 143.47L516.68 142.76C517.39 142.75 517.97 142.16 517.97 141.45V83.9399C517.97 83.2199 517.38 82.6299 516.66 82.6299Z" fill="white"/>
<path fill-rule="evenodd" clip-rule="evenodd" d="M233.14 112.88L233.17 104.91C233.18 103.27 234.31 101.83 235.7 101.69L416.75 92.88C418.65 92.7 420.2 94.16 420.18 96.13L420.09 104.83L233.14 112.88Z" fill="#549BEF"/>
<path d="M355.96 119.04L377.69 118.47V124.32L355.96 124.78V119.04Z" fill="#797673"/>
<path d="M326.32 120.58L346.91 120.04V125.73L326.32 126.16V120.58Z" fill="#797673"/>
<path d="M298.2 121.5L317.74 120.99V126.53L298.2 126.94V121.5Z" fill="#797673"/>
<path d="M271.48 122.39L290.05 121.91V127.31L271.48 127.7V122.39Z" fill="#797673"/>
<path d="M518.33 152.34L437.11 152.31V134.45L518.33 133.03V152.34Z" fill="#C5D43B"/>
<path d="M452.259 145.624C453.806 144.063 453.818 141.565 452.284 140.045C450.75 138.525 448.253 138.558 446.705 140.119C445.158 141.68 445.147 144.178 446.68 145.698C448.214 147.218 450.712 147.185 452.259 145.624Z" fill="white"/>
<path d="M466.262 145.383C467.809 143.821 467.821 141.324 466.287 139.803C464.753 138.283 462.256 138.316 460.708 139.877C459.161 141.438 459.15 143.936 460.683 145.456C462.217 146.977 464.714 146.944 466.262 145.383Z" fill="white"/>
<path d="M480.265 145.141C481.812 143.58 481.824 141.082 480.29 139.562C478.756 138.041 476.259 138.074 474.711 139.636C473.164 141.197 473.152 143.695 474.686 145.215C476.22 146.735 478.717 146.702 480.265 145.141Z" fill="white"/>
<path d="M494.26 144.893C495.808 143.331 495.819 140.834 494.285 139.313C492.752 137.793 490.254 137.826 488.707 139.387C487.159 140.948 487.148 143.446 488.682 144.966C490.215 146.487 492.713 146.454 494.26 144.893Z" fill="white"/>
<path d="M508.263 144.651C509.811 143.09 509.822 140.592 508.288 139.072C506.755 137.551 504.257 137.584 502.71 139.146C501.162 140.707 501.151 143.205 502.685 144.725C504.218 146.245 506.716 146.212 508.263 144.651Z" fill="white"/>
<path d="M546.85 75.26L515.84 76.81C509.4 76.81 504.18 82.03 504.18 88.47V108.89C501.68 113.35 496.47 122.77 497.11 122.77C497.52 122.77 502.92 120.77 508.34 118.73C510.37 120.44 512.98 121.47 515.84 121.47L546.85 119.92C553.29 119.92 558.51 114.7 558.51 108.26V86.92C558.51 80.48 553.29 75.26 546.85 75.26Z" fill="#549BEF"/>
<path d="M542.05 91.3401L516.65 92.4401C515.82 92.4401 515.15 91.7701 515.15 90.9401C515.15 90.1101 515.82 89.4401 516.65 89.4401L542.05 88.3401C542.88 88.3401 543.55 89.0101 543.55 89.8401C543.55 90.6701 542.87 91.3401 542.05 91.3401Z" fill="#A3C9F6"/>
<path d="M541.78 99.4099L516.65 100.44C515.82 100.44 515.15 99.7699 515.15 98.9399C515.15 98.1099 515.82 97.4399 516.65 97.4399L541.78 96.4099C542.61 96.4099 543.28 97.0799 543.28 97.9099C543.28 98.7399 542.61 99.4099 541.78 99.4099Z" fill="#A3C9F6"/>
<path d="M534.51 107.79L516.65 108.45C515.82 108.45 515.15 107.78 515.15 106.95C515.15 106.12 515.82 105.45 516.65 105.45L534.51 104.79C535.34 104.79 536.01 105.46 536.01 106.29C536.01 107.12 535.34 107.79 534.51 107.79Z" fill="#A3C9F6"/>
<path d="M199.07 198.48L311.94 201.14V140.44L199.07 141.93V198.48Z" fill="white"/>
<path d="M447.73 217.09L332.89 213.29V159.04L447.73 158.67V217.09Z" fill="white"/>
<path d="M244.46 169.13L238.88 169.11V193.13L244.46 193.14V169.13Z" fill="#C5D43B"/>
<path d="M253.45 154.08L247.87 154.07V193.15L253.45 193.16V154.08Z" fill="#CCCAC7"/>
<path d="M268.43 169.18L262.85 169.17V193.18L268.43 193.2V169.18Z" fill="#C5D43B"/>
<path d="M277.41 154.14L271.84 154.13V193.2L277.41 193.22V154.14Z" fill="#CCCAC7"/>
<path d="M292.39 169.24L286.82 169.23V193.24L292.39 193.25V169.24Z" fill="#C5D43B"/>
<path d="M301.38 154.2L295.81 154.18V193.26L301.38 193.27V154.2Z" fill="#CCCAC7"/>
<path d="M229.21 141.53L199.07 141.93V198.48L229.21 199.19V141.53Z" fill="#C5D43B"/>
<path d="M119.08 154.03L248 151.57C250.28 151.4 252.16 149.43 252.19 147.17L254.2 51.7999C254.23 49.5199 252.4 47.9499 250.11 48.2799L120 60.1499C118.14 60.4299 116.62 62.3099 116.6 64.3499L115.76 150.58C115.74 152.62 117.22 154.16 119.08 154.03Z" fill="#797673"/>
<path d="M125.69 147.13L240.16 145.12C240.87 145.06 241.46 144.44 241.47 143.73L242.62 58.36C242.63 57.65 242.06 57.15 241.35 57.25L126.51 66.94C125.92 67.02 125.43 67.62 125.42 68.27L124.63 146.04C124.63 146.69 125.1 147.18 125.69 147.13Z" fill="#A3C9F6"/>
<path d="M191.19 121.17L100.09 124.28V141.18L191.19 139.33V121.17Z" fill="#E5F0FC"/>
<path d="M191.19 97.6599L100.09 102.28V119.18L191.19 115.82V97.6599Z" fill="#E5F0FC"/>
<path d="M119.81 123.61L100.09 124.28V141.18L119.81 140.78V123.61Z" fill="#F7B548"/>
<path d="M119.81 101.28L100.09 102.28V119.18L119.81 118.45V101.28Z" fill="#F7B548"/>
<path d="M241.35 57.26L205.3 60.3V145.74L240.16 145.13C240.87 145.08 241.45 144.45 241.46 143.74L242.61 58.37C242.63 57.65 242.06 57.16 241.35 57.26Z" fill="white"/>
<path d="M125.33 76.6501L125.41 68.2801C125.42 67.6301 125.9 67.03 126.5 66.95L241.34 57.26C242.05 57.16 242.62 57.6601 242.61 58.3701L242.48 68.02L125.33 76.6501Z" fill="#549BEF"/>
<path d="M223.72 104.72C230.038 104.72 235.16 98.9714 235.16 91.88C235.16 84.7887 230.038 79.04 223.72 79.04C217.402 79.04 212.28 84.7887 212.28 91.88C212.28 98.9714 217.402 104.72 223.72 104.72Z" fill="#D8E8FB"/>
<path d="M109.94 114.8C112.436 114.8 114.46 112.776 114.46 110.28C114.46 107.784 112.436 105.76 109.94 105.76C107.444 105.76 105.42 107.784 105.42 110.28C105.42 112.776 107.444 114.8 109.94 114.8Z" fill="#FDD99C"/>
<path d="M109.94 136.8C112.436 136.8 114.46 134.776 114.46 132.28C114.46 129.784 112.436 127.76 109.94 127.76C107.444 127.76 105.42 129.784 105.42 132.28C105.42 134.776 107.444 136.8 109.94 136.8Z" fill="#FDD99C"/>
<path d="M403.72 158.81V215.63L447.73 217.09V158.67L403.72 158.81Z" fill="#F7B548"/>
<path d="M437.86 171.21L412.64 171.02C412.09 171.02 411.64 170.56 411.65 170.01C411.65 169.46 412.1 168.99 412.66 169.02L437.87 169.21C438.42 169.21 438.87 169.67 438.86 170.22C438.86 170.76 438.41 171.21 437.86 171.21Z" fill="white"/>
<path d="M429.26 176.93C429.25 176.93 429.25 176.93 429.24 176.93L412.64 176.69C412.09 176.68 411.65 176.23 411.65 175.68C411.66 175.13 412.14 174.73 412.66 174.69L429.26 174.93C429.81 174.94 430.25 175.39 430.25 175.94C430.25 176.49 429.8 176.93 429.26 176.93Z" fill="white"/>
<path d="M437.86 182.65H437.85L412.64 182.36C412.09 182.35 411.65 181.9 411.65 181.35C411.66 180.8 412.18 180.42 412.66 180.36L437.87 180.65C438.42 180.66 438.86 181.11 438.86 181.66C438.85 182.21 438.41 182.65 437.86 182.65Z" fill="white"/>
<path d="M429.67 188.37C429.66 188.37 429.66 188.37 429.65 188.37L412.63 188.02C412.08 188.01 411.64 187.55 411.65 187C411.66 186.45 412.12 186.01 412.67 186.02L429.69 186.37C430.24 186.38 430.68 186.84 430.67 187.39C430.66 187.93 430.22 188.37 429.67 188.37Z" fill="white"/>
<path d="M437.86 194.09C437.85 194.09 437.85 194.09 437.84 194.09L412.63 193.69C412.08 193.68 411.64 193.23 411.65 192.67C411.66 192.12 412.09 191.67 412.67 191.69L437.88 192.09C438.43 192.1 438.87 192.55 438.86 193.11C438.85 193.65 438.4 194.09 437.86 194.09Z" fill="white"/>
<path d="M437.86 199.81C437.85 199.81 437.85 199.81 437.84 199.81L412.63 199.35C412.08 199.34 411.64 198.88 411.65 198.33C411.66 197.78 412.19 197.39 412.67 197.35L437.88 197.81C438.43 197.82 438.87 198.28 438.86 198.83C438.85 199.37 438.4 199.81 437.86 199.81Z" fill="white"/>
<path d="M430.23 205.53C430.22 205.53 430.21 205.53 430.2 205.53L412.62 205.02C412.07 205 411.63 204.54 411.65 203.99C411.67 203.44 412.1 203.01 412.68 203.02L430.26 203.53C430.81 203.55 431.25 204.01 431.23 204.56C431.22 205.1 430.77 205.53 430.23 205.53Z" fill="white"/>
<path d="M342.57 202.01L340.97 200.82L354.59 182.56L370.3 190.55L378.32 172.01L393.12 176.46L392.55 178.37L379.45 174.44L371.29 193.3L355.18 185.11L342.57 202.01Z" fill="#0064DA"/>
<path d="M341.8 203.99C343.28 203.99 344.48 202.79 344.48 201.31C344.48 199.83 343.28 198.63 341.8 198.63C340.32 198.63 339.12 199.83 339.12 201.31C339.12 202.79 340.32 203.99 341.8 203.99Z" fill="#C5D43B"/>
<path d="M355.18 186.8C356.66 186.8 357.86 185.6 357.86 184.12C357.86 182.64 356.66 181.44 355.18 181.44C353.7 181.44 352.5 182.64 352.5 184.12C352.5 185.6 353.7 186.8 355.18 186.8Z" fill="#C5D43B"/>
<path d="M370.62 194.28C372.1 194.28 373.3 193.08 373.3 191.6C373.3 190.12 372.1 188.92 370.62 188.92C369.14 188.92 367.94 190.12 367.94 191.6C367.94 193.08 369.14 194.28 370.62 194.28Z" fill="#C5D43B"/>
<path d="M378.85 176.38C380.33 176.38 381.53 175.18 381.53 173.7C381.53 172.22 380.33 171.02 378.85 171.02C377.37 171.02 376.17 172.22 376.17 173.7C376.17 175.18 377.37 176.38 378.85 176.38Z" fill="#C5D43B"/>
<path d="M394.54 180.71C396.02 180.71 397.22 179.51 397.22 178.03C397.22 176.55 396.02 175.35 394.54 175.35C393.06 175.35 391.86 176.55 391.86 178.03C391.86 179.51 393.06 180.71 394.54 180.71Z" fill="#C5D43B"/>
<path d="M260.4 134.76V115.75L388.54 110.93V131.64L260.4 134.76ZM262.4 117.68V132.72L386.54 129.7V113.02L262.4 117.68Z" fill="white"/>
<path d="M220.65 158.16H206.51V162.16H220.65V158.16Z" fill="white"/>
<path d="M220.65 168.16H206.51V172.16H220.65V168.16Z" fill="white"/>
</svg>
