<svg width="636" height="300" viewBox="0 0 636 300" fill="none" xmlns="http://www.w3.org/2000/svg">
<path d="M502.09 142.97C502.1 142.8 502.16 142.62 502.17 142.44C506.18 105.12 479.86 74.8001 443.39 74.6901C431.45 74.6601 419.95 77.9201 409.7 83.5601C403.47 46.3001 373.03 18.9301 333.41 18.8301C294.65 18.7401 258.98 44.8001 244.12 80.7501C238.06 76.7901 230.78 74.4601 222.73 74.4501C198.84 74.3901 177.3 94.2101 174.69 118.65C174.49 120.66 174.46 122.64 174.53 124.59C137.41 139.53 109.65 174 106.95 219.89C106.86 221.44 106.82 222.98 106.78 224.51C324.95 215.24 464.75 209.64 538.78 208.64C540.38 205.32 544.24 195.89 544.62 192.03C547.56 165.02 528.48 143.06 502.09 142.97Z" fill="url(#paint0_radial)"/>
<path d="M411.09 124.81C409.08 124.42 407.06 124.33 405.09 124.53L402.44 119.44C399.65 119.92 396.96 120.85 394.5 122.17L396.11 127.65C394.57 128.65 393.17 129.87 391.97 131.28L386.46 129.09C385.48 130.41 384.64 131.84 383.94 133.37C383.37 134.62 382.93 135.89 382.6 137.17L387.89 139.96C387.6 141.66 387.56 143.37 387.76 145.04C386.42 145.65 384.03 146.67 382.32 147.39C382.9 150.3 384.05 153.08 385.67 155.61L391.55 154.22C392.58 155.54 393.79 156.75 395.17 157.79L393.06 163.01C394.46 163.92 395.97 164.71 397.58 165.36C398.76 165.84 399.96 166.22 401.17 166.52L404.18 161.66C405.83 161.94 407.48 162.01 409.11 161.89L412.2 166.88C415.06 166.37 417.8 165.39 420.29 164L419.03 158.45C420.45 157.48 421.73 156.32 422.84 154.99L428.34 156.78C429.21 155.55 429.97 154.22 430.6 152.81C431.06 151.78 431.43 150.74 431.72 149.69C430.3 148.89 428.07 147.64 426.74 146.85C427.1 145.02 427.16 143.18 426.95 141.38L432.09 138.76C431.53 136.08 430.49 133.49 429.03 131.13L423.11 132.1C422.13 130.84 420.97 129.69 419.66 128.68L421.66 123.52C420.35 122.65 418.95 121.87 417.44 121.22C416.33 120.74 415.21 120.35 414.08 120.04L411.09 124.81ZM411.93 133.49C417.57 135.87 420.18 142.12 417.79 147.46C415.39 152.81 408.86 155.28 403.18 152.95C397.46 150.6 394.78 144.3 397.22 138.9C399.66 133.51 406.25 131.09 411.93 133.49Z" fill="#BBCB37"/>
<path d="M233.47 205.53C233.48 203.8 235.32 203.62 235.32 203.62L235.28 197.77C235.28 197.77 233.59 197.65 233.54 196.22L233.84 169.62C233.89 167.87 235.79 167.47 235.79 167.47L235.78 161.07C235.78 161.07 234.03 161.41 234 159.17C234 159.1 233.98 159.03 233.97 158.96L234.23 135.49C234.25 134.01 235.11 132.67 236.42 132.07L236.3 125.72C236.3 125.72 234.86 125.59 234.85 122.77C234.84 119.95 235.09 101.63 235.27 99.3803C235.43 97.2903 237.58 95.9603 237.58 95.9603L263.31 80.0403L371.08 87.3003L371.16 266.72L262.09 275.61C262.09 275.61 236.91 271.85 234.92 271.49C232.93 271.12 232.87 269.06 232.87 269.06L233.02 242.81C233.02 242.81 232.96 240.75 235.03 240.51C235.27 238.36 235.04 234.48 235.04 234.48C233.95 234.52 233.08 233.63 233.1 232.5C233.1 232.51 233.47 206.44 233.47 205.53Z" fill="#797673"/>
<path d="M235.78 161.08L263.9 154.49L263.63 161.1C263.63 161.1 261.73 161.6 259.42 162.19C257.97 162.57 235.79 167.5 235.79 167.5L235.78 161.08Z" fill="#605D5A"/>
<path d="M236.289 125.81L263.769 113.5L263.499 120.09L236.169 132.19L236.289 125.81Z" fill="#605D5A"/>
<path d="M235.35 203.72L235.29 197.75L263.56 192.34L263.7 199.04L235.35 203.72Z" fill="#605D5A"/>
<path d="M235.06 240.46L235.01 234.48L263.64 234.68L263.59 240.98L235.06 240.46Z" fill="#605D5A"/>
<path d="M263.59 114.4L373.79 118.32C374.67 118.32 375.39 117.52 375.43 116.51L375.16 87.9102C375.2 86.8302 374.44 85.9202 373.49 85.9202L263.78 79.9402C262.82 79.9402 262.05 80.7902 262.04 81.8502L261.83 112.43C261.82 113.52 262.61 114.4 263.59 114.4Z" fill="#B3AFAB"/>
<path d="M291.82 103.28L357.43 105.87L357.34 92.2502L291.75 89.4302L291.82 103.28Z" fill="#522CD5"/>
<path d="M300.65 101.44L348.99 103.56L348.92 93.5203L300.59 91.2803L300.65 101.44Z" fill="#957EE6"/>
<path d="M270.23 95.9301C270.24 98.1901 271.89 100.02 273.92 100.02C275.94 100.02 277.57 98.1901 277.56 95.9301C277.55 93.6701 275.9 91.8401 273.88 91.8401C271.85 91.8401 270.21 93.6701 270.23 95.9301Z" fill="white"/>
<path d="M322.53 95.6401L303.92 94.8601L303.94 98.7401L322.55 99.5101L322.53 95.6401Z" fill="white"/>
<path d="M263.6 154.5L373.92 155.33C374.8 155.3 375.52 154.48 375.56 153.47L375.29 124.83C375.33 123.75 374.57 122.86 373.62 122.88L263.8 119.96C262.84 119.98 262.07 120.86 262.06 121.93L261.85 152.58C261.84 153.67 262.63 154.53 263.6 154.5Z" fill="#B3AFAB"/>
<path d="M291.87 142.56L357.55 143.32L357.45 129.68L291.79 128.69L291.87 142.56Z" fill="#522CD5"/>
<path d="M300.71 140.47L349.1 141.24L349.03 131.19L300.65 130.3L300.71 140.47Z" fill="#957EE6"/>
<path d="M270.25 135.81C270.26 138.08 271.92 139.87 273.94 139.81C275.97 139.75 277.6 137.87 277.59 135.61C277.58 133.35 275.93 131.56 273.9 131.61C271.88 131.67 270.24 133.54 270.25 135.81Z" fill="white"/>
<path d="M322.609 134.06L303.979 133.79L304.009 137.68L322.629 137.93L322.609 134.06Z" fill="white"/>
<path d="M263.56 192.37L372.85 191.06C373.97 191.01 374.88 189.94 374.89 188.65L375.25 162.89C375.25 161.57 374.3 160.52 373.15 160.58L264.33 161.02C263.18 161.08 261.85 162.22 261.81 163.5L261.4 189.95C261.34 191.31 262.33 192.42 263.56 192.37Z" fill="#B3AFAB"/>
<path d="M290.389 181.86L357.039 181.74L356.949 168.47L290.319 168.36L290.389 181.86Z" fill="#522CD5"/>
<path d="M298.8 179.85L348.86 179.73L348.8 169.74H298.74L298.8 179.85Z" fill="#957EE6"/>
<path d="M270.08 174.83C270.09 177.33 271.91 179.28 274.15 179.2C276.38 179.11 278.18 177.03 278.16 174.53C278.15 172.04 276.33 170.08 274.1 170.16C271.87 170.24 270.06 172.33 270.08 174.83Z" fill="white"/>
<path d="M320.91 172.97L302.25 172.93L302.27 176.83L320.93 176.85L320.91 172.97Z" fill="white"/>
<path d="M263.64 234.71L373.16 230.72C374.14 230.61 374.91 229.65 374.92 228.52L375.18 199.09C375.19 197.89 374.34 196.94 373.29 196.99L263.53 199.09C262.47 199.14 261.6 200.11 261.56 201.3L261.55 232.53C261.51 233.83 262.48 234.84 263.64 234.71Z" fill="#B3AFAB"/>
<path d="M269.669 213.6C269.679 216.1 271.509 218.04 273.739 217.94C275.969 217.83 277.769 215.72 277.759 213.23C277.749 210.73 275.929 208.79 273.699 208.89C271.459 208.99 269.659 211.1 269.669 213.6Z" fill="white"/>
<path d="M289.05 220.43L355.81 218.49L355.72 205.19L288.97 206.91L289.05 220.43Z" fill="#522CD5"/>
<path d="M297.47 218.34L347.61 216.99L347.55 206.98L297.41 208.2L297.47 218.34Z" fill="#957EE6"/>
<path d="M319.609 210.93L300.919 211.37L300.939 215.28L319.639 214.82L319.609 210.93Z" fill="white"/>
<path d="M262.34 275.68L373.06 269.17C373.95 269.08 374.67 268.21 374.71 267.19L374.44 238.41C374.48 237.32 373.72 236.48 372.77 236.56L262.55 240.93C261.59 241.02 260.81 241.95 260.8 243.02L260.58 273.86C260.57 274.96 261.37 275.78 262.34 275.68Z" fill="#B3AFAB"/>
<path d="M290.72 261.8L356.63 258.19L356.54 244.47L290.64 247.85L290.72 261.8Z" fill="#522CD5"/>
<path d="M299.59 259.1L348.15 256.66L348.08 246.55L299.53 248.87L299.59 259.1Z" fill="#957EE6"/>
<path d="M269.02 256.44C269.03 258.72 270.69 260.41 272.73 260.22C274.76 260.03 276.4 258.03 276.39 255.75C276.38 253.48 274.72 251.79 272.69 251.97C270.65 252.16 269.01 254.16 269.02 256.44Z" fill="white"/>
<path d="M321.57 251.19L302.87 252.16L302.9 256.07L321.59 255.09L321.57 251.19Z" fill="white"/>
<path d="M444.74 101.79C443.45 101.49 442.16 101.41 440.89 101.52L439.21 97.98C437.42 98.28 435.69 98.89 434.11 99.77L435.11 103.56C434.12 104.23 433.22 105.05 432.44 106.01L428.94 104.43C428.31 105.32 427.76 106.3 427.31 107.34C426.94 108.19 426.66 109.06 426.44 109.93L429.8 111.92C429.61 113.09 429.57 114.26 429.69 115.42C428.83 115.82 427.3 116.49 426.21 116.96C426.57 118.97 427.28 120.9 428.31 122.67L432.07 121.8C432.72 122.73 433.49 123.58 434.37 124.32L433 127.89C433.89 128.54 434.85 129.11 435.88 129.59C436.64 129.94 437.4 130.22 438.17 130.45L440.13 127.14C441.19 127.36 442.25 127.43 443.29 127.38L445.26 130.88C447.1 130.57 448.87 129.94 450.49 129.02L449.7 125.15C450.62 124.5 451.45 123.72 452.18 122.81L455.73 124.14C456.3 123.3 456.8 122.39 457.21 121.42C457.51 120.71 457.76 120 457.95 119.27C457.03 118.7 455.6 117.79 454.74 117.23C454.98 115.97 455.03 114.69 454.9 113.44L458.24 111.7C457.89 109.83 457.23 108.03 456.29 106.37L452.46 106.97C451.83 106.09 451.09 105.27 450.25 104.56L451.56 101.01C450.72 100.39 449.82 99.84 448.85 99.37C448.14 99.03 447.42 98.75 446.69 98.51L444.74 101.79ZM445.23 107.8C448.85 109.52 450.51 113.88 448.94 117.54C447.37 121.21 443.16 122.81 439.52 121.11C435.87 119.4 434.18 115.02 435.77 111.33C437.35 107.65 441.6 106.07 445.23 107.8Z" fill="white"/>
<path d="M453.22 144.04C450.88 144.87 448.72 146.03 446.78 147.45L440.87 143.77C438.25 146 436.02 148.62 434.26 151.53L439.32 156.26C438.33 158.26 437.62 160.39 437.24 162.61L430.14 163.72C429.93 165.7 429.93 167.71 430.15 169.75C430.33 171.4 430.65 173 431.1 174.54L438.35 174.19C439.1 176.14 440.11 177.95 441.35 179.57C440.33 181.03 438.46 183.58 437.12 185.39C439.53 188.06 442.44 190.27 445.7 191.9L450.98 186.81C452.87 187.56 454.88 188.06 456.97 188.3L458 195.06C460.02 195.15 462.09 195.04 464.17 194.72C465.7 194.49 467.19 194.14 468.63 193.71L468.77 186.77C470.66 186.04 472.43 185.09 474.06 183.96L480.37 187.26C483.04 184.96 485.29 182.25 487.03 179.25L482.29 174.23C483.17 172.34 483.79 170.33 484.13 168.26L490.98 166.73C491.12 164.91 491.1 163.06 490.88 161.19C490.72 159.83 490.46 158.52 490.13 157.24C488.16 157.29 485.05 157.35 483.18 157.35C482.43 155.22 481.36 153.26 480.02 151.5L483.76 145.59C481.51 143.14 478.84 141.08 475.85 139.52L470.27 144.19C468.47 143.48 466.55 142.99 464.56 142.75L463.46 136.13C461.56 136.02 459.61 136.09 457.63 136.34C456.18 136.53 454.77 136.81 453.39 137.18L453.22 144.04ZM459.46 152.59C466.82 151.59 473.41 156.5 474.21 163.56C475.01 170.63 469.72 177.24 462.34 178.32C454.92 179.41 448.23 174.48 447.44 167.33C446.66 160.19 452.06 153.59 459.46 152.59Z" fill="#9EAE2B"/>
<defs>
<radialGradient id="paint0_radial" cx="0" cy="0" r="1" gradientUnits="userSpaceOnUse" gradientTransform="translate(323.261 284.166) rotate(-177.392) scale(197.784)">
<stop offset="0.1159" stop-color="white"/>
<stop offset="1" stop-color="#B8D6F7"/>
</radialGradient>
</defs>
</svg>
