<svg width="636" height="300" viewBox="0 0 636 300" fill="none" xmlns="http://www.w3.org/2000/svg">
<path d="M513.4 149.42C513.78 148.2 514.04 146.9 514.1 145.58C514.6 136.34 506.96 128.42 497.06 127.88C497.06 127.82 497.08 127.76 497.08 127.7C497.76 114.94 487.22 104 473.54 103.26C469.06 103.02 464.82 103.92 461.1 105.66C457.94 92.7199 445.92 82.7199 431.06 81.9199C416.52 81.1399 403.72 89.4199 398.94 101.5C396.58 100.02 393.8 99.0799 390.78 98.9199C381.82 98.4399 374.18 104.84 373.74 113.2C373.7 114.12 373.74 115.04 373.88 115.92C363 116.32 354.08 124.36 353.52 134.72C353.36 137.74 354.9 146.81 356.06 149.45C403.5 147.5 486.58 149.16 513.4 149.42Z" fill="url(#paint0_radial)"/>
<path d="M445.91 118.44L397.53 117.36C392.02 117.29 387.55 121.53 387.55 126.83V242.4C387.55 247.72 392.04 251.8 397.53 251.53L446.29 249.06C451.52 248.78 455.71 244.41 455.71 239.27L455.32 127.89C455.34 122.75 451.14 118.51 445.91 118.44Z" fill="#625F5B"/>
<path d="M448.68 121.57L398.81 120.54C395.22 120.49 392.29 123.24 392.29 126.65V244.22C392.29 246.71 394.41 248.62 397.04 248.48L450.16 245.88C452.65 245.76 454.65 243.71 454.65 241.29L454.26 127.03C454.23 124.06 451.74 121.62 448.68 121.57Z" fill="#98C2F5"/>
<path d="M451.56 121.62L396.13 120.52C394.56 120.5 393.3 121.7 393.3 123.22V133.17L454.21 134.02V124.3C454.23 122.82 453.03 121.62 451.56 121.62Z" fill="#549BEF"/>
<path d="M407.65 121.46V122.34C407.65 124.46 409.42 126.21 411.61 126.21L436.73 126.73C438.85 126.75 440.46 125.19 440.46 123.11V122.26L407.65 121.46Z" fill="#444444"/>
<path d="M431.6 124.6C432.18 124.6 432.66 124.14 432.66 123.59C432.66 123.01 432.2 122.55 431.6 122.55C431.02 122.55 430.54 123.01 430.54 123.56C430.54 124.11 431 124.6 431.6 124.6Z" fill="#737373"/>
<path d="M420.9 124.32L427.67 124.49C428.11 124.49 428.48 124.14 428.48 123.73C428.48 123.29 428.11 122.95 427.67 122.95L420.9 122.78C420.46 122.78 420.09 123.13 420.09 123.54C420.1 123.98 420.46 124.32 420.9 124.32Z" fill="#737373"/>
<path d="M434.96 244.15L413.44 245.19C413.09 245.21 412.79 244.94 412.79 244.59C412.79 244.24 413.09 243.94 413.44 243.94L434.96 242.93C435.31 242.91 435.58 243.18 435.58 243.53C435.6 243.85 435.31 244.13 434.96 244.15Z" fill="#7F7F7F"/>
<path d="M426.18 174.99C426.78 173.58 427.36 171.9 427.36 170.17C427.36 164.36 422.66 159.66 416.85 159.66C411.04 159.66 406.34 164.36 406.34 170.17C406.34 171.97 406.82 173.42 407.58 175.12C411.08 183.19 416.89 195.72 416.89 195.72C416.89 195.72 422.7 183.06 426.18 174.99Z" fill="white"/>
<path d="M416.85 173.73C418.85 173.73 420.47 172.11 420.47 170.11C420.47 168.11 418.85 166.49 416.85 166.49C414.85 166.49 413.23 168.11 413.23 170.11C413.23 172.11 414.85 173.73 416.85 173.73Z" fill="#B2C133"/>
<path d="M434.84 208.39C434.5 208.39 434.15 208.31 433.82 208.15L417.42 200.08L406.42 206.59C405.46 207.16 404.23 206.95 403.5 206.11L390.6 191.09C389.77 190.12 389.88 188.67 390.85 187.84C391.82 187.01 392.35 186.01 393.18 186.98L405.75 201.65L416.16 195.49C416.83 195.1 417.65 195.06 418.35 195.41L433.91 203.07L453.47 168.28C454.09 167.17 454.88 167.5 455.99 168.12C457.1 168.74 457.47 170.65 456.85 171.76L436.86 207.22C436.43 207.96 435.65 208.39 434.84 208.39Z" fill="white"/>
<path d="M447.87 118.44L399.49 117.36C393.98 117.29 389.51 121.53 389.51 126.83V242.4C389.51 247.72 394 251.8 399.49 251.53L448.25 249.06C453.48 248.78 457.67 244.41 457.67 239.27L457.28 127.89C457.3 122.75 453.08 118.51 447.87 118.44ZM453.76 238.92C453.76 242.12 451.13 244.87 447.88 245L399.86 247.35C396.45 247.51 393.66 244.98 393.66 241.68V127.43C393.66 124.13 396.45 121.48 399.86 121.53L447.5 122.49C450.75 122.54 453.38 125.16 453.38 128.37L453.76 238.92Z" fill="#444444"/>
<path d="M502.27 138.89L500.86 154.82C500.74 156.31 499.74 157.44 498.55 157.44L481.36 157.5C480.15 157.5 479.13 156.38 478.99 154.86L477.56 138.73C477.4 136.97 478.5 135.44 479.93 135.44L499.97 135.6C501.33 135.62 502.42 137.15 502.27 138.89Z" fill="#625F5B"/>
<path d="M477.43 87.8399L478.86 71.7499C479 70.2399 480.03 69.1499 481.23 69.2099L498.69 70.4099C499.88 70.4699 500.88 71.6399 501 73.1299L502.14 88.6799C502.3 90.4199 501.22 91.9099 499.83 91.8699L479.79 91.2199C478.4 91.1699 477.27 89.5999 477.43 87.8399Z" fill="#625F5B"/>
<path d="M503.09 139.17L476.49 139.01C473.03 138.99 470.21 135.74 470.21 131.77V94.7097C470.21 90.7397 473.03 87.6197 476.49 87.7397L503.09 89.0897C506.44 89.2097 509.14 91.9997 509.14 95.8797V132.15C509.14 136.05 506.42 139.19 503.09 139.17ZM476.47 90.0097C474.1 89.9297 472.18 92.0697 472.18 94.7697V131.8C472.18 134.5 474.1 136.73 476.47 136.75L503.07 136.95C505.36 136.97 507.22 134.82 507.22 132.17V95.8297C507.22 93.1697 505.36 91.3497 503.07 91.2897L476.47 90.0097Z" fill="#625F5B"/>
<path d="M479.44 130.85L504.22 131.12C505.9 131.14 507.25 132.74 507.25 134.68V139.46C507.25 141.4 505.9 142.98 504.22 142.96L479.44 142.86C477.72 142.86 476.31 141.24 476.31 139.26V134.39C476.31 132.41 477.72 130.83 479.44 130.85ZM504.22 140.71C504.83 140.71 505.32 140.14 505.32 139.42V134.64C505.32 133.92 504.83 133.35 504.22 133.33L479.44 133.11C478.81 133.11 478.3 133.68 478.3 134.4V139.27C478.3 139.99 478.81 140.58 479.44 140.58L504.22 140.71Z" fill="#D69521"/>
<path d="M504.26 138.89L502.85 154.82C502.73 156.31 501.73 157.44 500.54 157.44L483.35 157.5C482.14 157.5 481.12 156.38 480.98 154.86L479.55 138.73C479.39 136.97 480.49 135.44 481.92 135.44L501.96 135.6C503.32 135.62 504.4 137.15 504.26 138.89Z" fill="#7F7F7F"/>
<path d="M480.07 144.82L503.72 144.9L504.25 138.91C504.41 137.17 503.33 135.64 501.94 135.64L481.9 135.48C480.47 135.46 479.36 136.99 479.53 138.77L480.07 144.82Z" fill="#505050"/>
<path d="M504.22 96.86L479.44 95.73C477.72 95.67 476.31 94.03 476.31 92.07V87.2C476.31 85.24 477.7 83.68 479.44 83.74L504.22 85.15C505.9 85.21 507.25 86.31 507.25 88.26V93.43C507.26 95.36 505.89 96.9 504.22 96.86ZM479.44 86C478.81 85.98 478.3 86.55 478.3 87.27V92.14C478.3 92.86 478.81 93.47 479.44 93.49L504.22 94.76C504.83 94.78 505.32 94.23 505.32 93.51V88.8C505.32 88.08 504.83 87.49 504.22 87.47L479.44 86Z" fill="#D69521"/>
<path d="M479.42 87.8399L480.85 71.7499C480.99 70.2399 482.02 69.1499 483.22 69.2099L500.68 70.4099C501.87 70.4699 502.87 71.6399 502.99 73.1299L504.13 88.6799C504.29 90.4199 503.21 91.9099 501.82 91.8699L481.78 91.2199C480.36 91.1699 479.25 89.5999 479.42 87.8399Z" fill="#7F7F7F"/>
<path d="M503.65 83.5198L479.93 82.2798L479.44 87.8398C479.28 89.5998 480.38 91.1698 481.81 91.2098L501.85 91.8598C503.24 91.8998 504.32 90.4298 504.16 88.6698L503.65 83.5198Z" fill="#505050"/>
<path d="M509.92 108.57L511.8 108.61C512.35 108.63 512.82 108.1 512.82 107.44V101.49C512.82 100.84 512.37 100.3 511.8 100.28L509.92 100.22C509.37 100.2 508.9 100.73 508.9 101.39V107.36C508.9 108.02 509.35 108.57 509.92 108.57Z" fill="#7F7F7F"/>
<path d="M505.08 138.05L478.48 137.87C475.56 137.85 473.21 135.13 473.21 131.78V94.7497C473.21 91.4197 475.58 88.7797 478.48 88.8797L505.08 89.7797C507.9 89.8797 510.19 92.5997 510.19 95.8697V132.16C510.17 135.43 507.9 138.07 505.08 138.05Z" fill="#98C2F5"/>
<path d="M510.39 100.76L510.17 95.8599C510.17 92.5899 507.88 89.8499 505.06 89.7699L478.46 88.8699C475.54 88.7699 473.19 91.4099 473.19 94.7399L473.51 98.8999L510.39 100.76Z" fill="#549BEF"/>
<path d="M476.36 136.25L484.78 120.9C485.32 119.91 486.57 119.55 487.56 120.09C488.55 120.63 488.91 121.88 488.37 122.87L479.95 138.22C479.57 138.89 475.81 137.24 476.36 136.25Z" fill="white"/>
<path d="M505.08 139.17L478.48 139.01C475.02 138.99 472.2 135.74 472.2 131.77V94.7097C472.2 90.7397 475.02 87.6197 478.48 87.7397L505.08 89.0897C508.43 89.2097 511.13 91.9997 511.13 95.8797V132.15C511.13 136.05 508.41 139.19 505.08 139.17ZM478.46 90.0097C476.09 89.9297 474.17 92.0697 474.17 94.7697V131.8C474.17 134.5 476.09 136.73 478.46 136.75L505.06 136.95C507.35 136.97 509.21 134.82 509.21 132.17V95.8297C509.21 93.1697 507.35 91.3497 505.06 91.2897L478.46 90.0097Z" fill="#505050"/>
<path d="M524.69 106.53L485.92 105.03V117.18L492.26 117.4V122.76L499.16 117.64L524.63 118.55L524.69 106.53Z" fill="#B2C133"/>
<path d="M490.07 109.68C489.64 109.68 489.29 109.33 489.29 108.9C489.29 108.47 489.64 108.12 490.07 108.1L518.2 109.25C518.69 109.29 518.98 109.6 519 110.03C519 110.46 518.65 110.81 518.22 110.83L490.07 109.68Z" fill="white"/>
<path d="M490.15 113.63C489.72 113.63 489.37 113.28 489.37 112.85C489.37 112.42 489.72 112.05 490.15 112.05L508.08 112.68C508.59 112.68 508.88 113.03 508.88 113.46C508.88 113.89 508.53 114.26 508.1 114.26L490.15 113.63Z" fill="white"/>
<path d="M153.27 43.7798V216.99L357.58 208.99V58.0398L153.27 43.7798Z" fill="#98C2F5"/>
<path d="M153.27 45.7598V73.9498L357.58 81.9698V59.7098L153.27 45.7598Z" fill="#549BEF"/>
<path d="M262.8 151.36L177.8 155.26C177.14 155.28 176.6 154.76 176.6 154.12V86.9199C176.6 86.2799 177.14 85.7599 177.78 85.7799L262.76 88.7599C263.38 88.7799 263.86 89.2799 263.86 89.8999V150.24C263.88 150.84 263.4 151.34 262.8 151.36Z" fill="#505050"/>
<path d="M245.36 139.12L198.72 140.54C197.34 140.58 196.2 139.48 196.2 138.1V102.04C196.2 100.68 197.32 99.5799 198.68 99.5999L245.5 100.5C246.84 100.52 247.9 101.62 247.9 102.96L247.72 136.7C247.72 138 246.66 139.08 245.36 139.12Z" fill="#B2C133"/>
<path d="M190.04 99.4798L182.9 99.3597V92.2397L190.04 92.4997V99.4798Z" fill="#B3AFAB"/>
<path d="M190.02 115.72H182.9V108.58L190.04 108.68L190.02 115.72Z" fill="#B3AFAB"/>
<path d="M190.02 131.96L182.9 132.08V124.94L190.04 124.84L190.02 131.96Z" fill="#B3AFAB"/>
<path d="M190.02 148.2L182.9 148.42V141.3L190.04 141.02L190.02 148.2Z" fill="#B3AFAB"/>
<path d="M258.82 100.42L252.34 100.3V93.6597L258.82 93.9197V100.42Z" fill="#B3AFAB"/>
<path d="M258.82 115.54L252.34 115.52V108.88L258.82 108.96V115.54Z" fill="#B3AFAB"/>
<path d="M258.8 130.66L252.34 130.76V124.12L258.82 124.02L258.8 130.66Z" fill="#B3AFAB"/>
<path d="M258.8 145.78L252.34 145.98V139.34L258.82 139.08L258.8 145.78Z" fill="#B3AFAB"/>
<path d="M212.82 129.64V108.06C212.82 107.14 213.82 106.56 214.62 107.02L234.04 118.28C234.86 118.76 234.84 119.94 234 120.38L214.58 130.68C213.8 131.12 212.82 130.54 212.82 129.64Z" fill="white"/>
<path d="M217.31 200.38C216.8 200.38 216.31 200.18 215.93 199.83L182.13 167.73C181.33 166.97 181.3 165.7 182.06 164.9C182.82 164.1 184.09 164.07 184.89 164.83L217.05 195.37L287.59 99.6501C287.96 99.1501 288.55 98.8401 289.18 98.8401C289.84 98.8301 290.4 99.1201 290.79 99.6201L320.97 138.61L341.79 138.21C342.4 138.22 342.97 138.46 343.36 138.92L361 159.94C361.71 160.79 361.6 162.05 360.75 162.76C359.9 163.47 358.64 163.36 357.93 162.51L340.9 142.22L320.04 142.62C319.4 142.62 318.81 142.34 318.42 141.84L289.24 104.15L218.93 199.56C218.59 200.02 218.07 200.31 217.5 200.37C217.43 200.38 217.37 200.38 217.31 200.38Z" fill="white"/>
<path d="M156.62 222.57L154.45 33.5201L147.81 33.0701C142.07 32.6801 137.38 35.2201 137.38 40.9701V218.76C137.38 224.51 142.93 229.07 148.67 228.69L361.72 218.93C363.08 218.84 364.19 217.46 364.19 215.85V212.86L156.62 222.57Z" fill="#939393"/>
<path d="M368.42 54.0099C368.42 51.4299 366.69 49.4399 363.62 49.1099L148.83 32.8599C144.87 32.5899 141.62 35.6299 141.62 39.5999V221.99C141.62 225.96 144.86 229 148.83 228.73L363.53 219.04C367.35 218.71 368.52 216.13 368.52 213.64L368.42 54.0099ZM356.31 204.99C356.31 206.25 355.44 207.31 354.36 207.38L161.48 215.35C160.05 215.43 158.89 214.32 158.89 212.87V48.7199C158.89 47.2699 160.05 46.1599 161.48 46.2399L354.37 59.2999C355.45 59.3599 356.32 60.4299 356.32 61.6899V204.99H356.31Z" fill="#4D4D4D"/>
<defs>
<radialGradient id="paint0_radial" cx="0" cy="0" r="1" gradientUnits="userSpaceOnUse" gradientTransform="translate(446.465 162.285) rotate(3.04954) scale(86.2257)">
<stop stop-color="white"/>
<stop offset="0.9695" stop-color="#B8D6F7"/>
</radialGradient>
</defs>
</svg>
