<svg width="435" height="232" viewBox="0 0 435 232" fill="none" xmlns="http://www.w3.org/2000/svg">
<path d="M408.845 231.055H417.98V123.185H404.38L408.845 231.055Z" fill="url(#paint0_linear)"/>
<path d="M173.611 230.001H14.0645V126.06H173.611V230.001Z" fill="url(#paint1_linear)"/>
<path d="M435 119.988H0V128.927H435V119.988Z" fill="#E0BB95"/>
<path d="M245.843 116.97V48.3452C245.843 46.7825 244.575 45.5234 243.021 45.5234H143.178C141.616 45.5234 140.356 46.7915 140.356 48.3452V116.961H245.843V116.97Z" fill="#605D5A"/>
<path d="M254.049 120.318C250.906 120.318 136.552 120.318 132.507 120.318C129.882 120.318 128.685 117.979 128.158 116.327C127.908 115.532 128.507 114.737 129.337 114.737H256.987C257.871 114.737 258.487 115.648 258.121 116.452C257.389 118.095 256.031 120.318 254.049 120.318Z" fill="#797673"/>
<path d="M193.943 47.7559H192.265V49.4346H193.943V47.7559Z" fill="#B3AFAB"/>
<path fill-rule="evenodd" clip-rule="evenodd" d="M145.375 105.495C145.375 106.254 146.045 106.924 146.795 106.924H239.351C240.163 106.924 240.815 106.263 240.815 105.459V53.1315C240.815 52.3189 240.155 51.667 239.351 51.667H146.929C146.08 51.667 145.375 52.3635 145.375 53.2208V105.254" fill="#B3AFAB"/>
<path d="M305.279 93.7795C300.885 93.7795 291.482 93.7795 291.482 93.7795C291.482 115.363 291.482 115.363 291.482 115.363H305.279C305.279 93.7795 305.279 93.7795 305.279 93.7795Z" fill="#797673"/>
<path d="M321.665 117.398C318.048 115.988 318.048 115.988 318.048 115.988C318.048 115.988 315.092 114.845 311.94 114.469H284.821C283.776 114.728 282.606 114.836 280.66 115.63C277.516 116.872 277.516 116.872 277.516 116.872C275.48 117.666 275.48 117.666 275.48 117.666C275.48 117.666 274.721 117.979 274.918 118.247V119.988H322.736V118.265C322.834 118.068 322.602 117.782 321.665 117.398Z" fill="#797673"/>
<path d="M234.493 1.33057C234.493 1.33057 228.019 1.33057 228.019 7.85816C228.019 80.4832 228.019 88.2073 228.019 88.2073C228.019 88.2073 228.019 94.726 234.493 94.726C362.286 94.726 362.286 94.726 362.286 94.726C362.286 94.726 368.751 94.726 368.751 88.2073C368.751 15.5823 368.751 7.85816 368.751 7.85816C368.751 7.85816 368.751 1.33057 362.286 1.33057H234.493V1.33057Z" fill="#666666"/>
<path d="M237.494 6.84912C237.494 6.84912 234.913 6.84912 234.913 9.45659C234.913 77.8221 234.913 85.5552 234.913 85.5552C234.913 85.5552 234.913 88.252 237.494 88.252C359.268 88.252 359.268 88.252 359.268 88.252C359.268 88.252 361.848 88.252 361.848 85.5552C361.848 17.1897 361.848 9.45659 361.848 9.45659C361.848 9.45659 361.848 6.84912 359.268 6.84912H237.494Z" fill="#479CDF"/>
<path d="M298.608 47.5505H234.913V86.9036C234.913 86.9036 234.913 88.252 237.503 88.252C262.72 88.252 282.723 88.252 298.608 88.252V47.5505Z" fill="#FFFACF"/>
<path d="M298.608 47.7559V6.84912H237.503C237.503 6.84912 234.913 6.84912 234.913 9.45658C234.913 25.2353 234.913 37.7815 234.913 47.7559H298.608Z" fill="#BDB9F0"/>
<path d="M298.608 47.5505H362.081V86.9036C362.081 86.9036 362.081 88.252 359.5 88.252C334.372 88.252 314.441 88.252 298.608 88.252V47.5505Z" fill="#BDB9F0"/>
<path d="M298.608 47.7559V6.84912H359.5C359.5 6.84912 362.081 6.84912 362.081 9.45658C362.081 25.2353 362.081 37.7815 362.081 47.7559H298.608Z" fill="#FFFACF"/>
<path d="M336.863 74.8486H324.352C321.513 74.8486 319.861 78.0544 321.504 80.3582L327.121 88.2521C329.389 88.2521 331.71 88.2521 334.086 88.2521L339.703 80.3582C341.355 78.0544 339.703 74.8486 336.863 74.8486Z" fill="#4E9668"/>
<path d="M317.12 62.9899V50.9617C317.12 50.408 317.834 50.9259 318.147 51.3814C319.182 52.8815 320.692 54.7478 321.2 57.8554C322.004 62.7488 317.12 62.9899 317.12 62.9899Z" fill="#4E9668"/>
<path d="M343.998 62.99V51.7118C343.998 51.1582 343.283 50.1849 342.971 50.6403C341.935 52.1405 340.426 54.7569 339.917 57.8644C339.113 62.7489 343.998 62.99 343.998 62.99Z" fill="#4E9668"/>
<path d="M308.413 88.2608C320.745 88.2608 335.247 88.2608 352.267 88.2608C352.052 88.0644 351.829 87.8858 351.588 87.7875C346.998 85.8141 339.229 84.5193 330.416 84.5193C321.397 84.5193 313.476 85.8766 308.931 87.9215C308.743 88.0019 308.583 88.1179 308.413 88.2608Z" fill="#C3F2F4"/>
<path d="M330.514 81.2601C335.3 81.2601 340.104 80.7689 343.73 79.7956C344.667 77.0542 345.194 73.9824 345.194 70.732C345.194 59.2574 338.622 49.9526 330.514 49.9526C322.406 49.9526 315.833 59.2574 315.833 70.732C315.833 73.9824 316.36 77.0542 317.298 79.7956C321.12 80.7689 325.728 81.2601 330.514 81.2601Z" fill="#C3F2F4"/>
<path d="M318.138 71.759C318.272 72.018 318.486 72.268 318.79 72.5091L326.916 78.8135C328.728 80.2154 332.497 80.2154 334.309 78.8135L342.435 72.5091C342.739 72.268 342.953 72.018 343.087 71.759H318.138Z" fill="#4E9668"/>
<path d="M345.195 71.4731C345.195 71.1517 345.186 70.8391 345.177 70.5176C345.177 70.3926 345.168 70.2676 345.159 70.1426C345.15 69.9551 345.141 69.7676 345.132 69.58C345.123 69.4193 345.114 69.2675 345.096 69.1068C345.087 68.9728 345.07 68.8299 345.061 68.696C345.043 68.5085 345.025 68.321 345.007 68.1424C344.873 66.9279 344.659 65.7581 344.373 64.6241C340.864 63.7043 335.908 63.1328 330.407 63.1328C325.013 63.1328 320.147 63.6865 316.655 64.5705C316.37 65.7135 316.155 66.9011 316.012 68.1245C315.986 68.3299 315.968 68.5442 315.95 68.7585C315.941 68.8567 315.932 68.955 315.923 69.0532C315.905 69.2407 315.896 69.4282 315.878 69.6158C315.87 69.7586 315.861 69.9015 315.852 70.0444C315.843 70.2051 315.834 70.3658 315.834 70.5266C315.825 70.8213 315.816 71.1159 315.816 71.4106C319.352 72.4643 324.656 73.134 330.603 73.134C336.443 73.143 341.667 72.4911 345.195 71.4731Z" fill="#605D5A"/>
<path d="M335.854 70.4551C337.541 70.4551 338.908 69.0878 338.908 67.4011C338.908 65.7145 337.541 64.3472 335.854 64.3472C334.168 64.3472 332.8 65.7145 332.8 67.4011C332.8 69.0878 334.168 70.4551 335.854 70.4551Z" fill="#9FCDB3"/>
<path d="M325.156 70.4551C326.843 70.4551 328.21 69.0878 328.21 67.4011C328.21 65.7145 326.843 64.3472 325.156 64.3472C323.47 64.3472 322.103 65.7145 322.103 67.4011C322.103 69.0878 323.47 70.4551 325.156 70.4551Z" fill="#9FCDB3"/>
<path d="M259.479 15.9306V5.9383C259.479 4.85781 260.925 4.5542 261.327 5.55432L265.372 15.5377C265.64 16.1896 265.176 16.9129 264.488 16.9129H260.443C259.907 16.9218 259.479 16.4753 259.479 15.9306Z" fill="white"/>
<path d="M273.819 15.9306V5.9383C273.819 4.85781 272.373 4.5542 271.971 5.55432L267.926 15.5377C267.658 16.1896 268.122 16.9129 268.81 16.9129H272.855C273.382 16.9218 273.819 16.4753 273.819 15.9306Z" fill="white"/>
<path d="M269.337 30.8252H264.318V44.7108H269.337V30.8252Z" fill="#8065E0"/>
<path d="M286.571 31.745L285.723 21.7974C285.375 17.6718 282.035 14.5107 278.025 14.5107H255.264C251.263 14.5107 247.924 17.6718 247.566 21.7974L246.718 31.745C246.629 32.8344 247.459 33.772 248.522 33.772H261.577C262.148 36.3259 264.354 38.2369 267.006 38.2369C269.649 38.2369 271.864 36.3259 272.435 33.772H284.776C285.83 33.772 286.669 32.8344 286.571 31.745Z" fill="#A08BE8"/>
<path d="M277.936 22.6636H255.719C253.942 22.6636 252.495 24.1102 252.495 25.8872V26.1015C252.495 27.8785 253.942 29.3251 255.719 29.3251H277.936C279.713 29.3251 281.159 27.8785 281.159 26.1015V25.8872C281.159 24.1013 279.722 22.6636 277.936 22.6636Z" fill="#512BD4"/>
<path d="M263.122 28.2715C264.473 28.2715 265.568 27.1401 265.568 25.7444C265.568 24.3487 264.473 23.2173 263.122 23.2173C261.77 23.2173 260.675 24.3487 260.675 25.7444C260.675 27.1401 261.77 28.2715 263.122 28.2715Z" fill="white"/>
<path d="M271.007 28.2715C272.358 28.2715 273.454 27.1401 273.454 25.7444C273.454 24.3487 272.358 23.2173 271.007 23.2173C269.655 23.2173 268.56 24.3487 268.56 25.7444C268.56 27.1401 269.655 28.2715 271.007 28.2715Z" fill="white"/>
<path d="M287.303 47.6756L286.919 43.2197C286.821 42.0767 285.892 41.1926 284.785 41.1926H248.406C247.361 41.1926 246.486 42.0231 246.388 43.1036L245.995 47.6756H287.303V47.6756Z" fill="#8065E0"/>
<path d="M251.138 45.6395C251.784 45.6395 252.308 45.0998 252.308 44.434C252.308 43.7682 251.784 43.2285 251.138 43.2285C250.492 43.2285 249.968 43.7682 249.968 44.434C249.968 45.0998 250.492 45.6395 251.138 45.6395Z" fill="#C7E0F4"/>
<path d="M255.433 45.6395C256.08 45.6395 256.603 45.0998 256.603 44.434C256.603 43.7682 256.08 43.2285 255.433 43.2285C254.787 43.2285 254.264 43.7682 254.264 44.434C254.264 45.0998 254.787 45.6395 255.433 45.6395Z" fill="#C7E0F4"/>
<path d="M259.737 45.6395C260.383 45.6395 260.907 45.0998 260.907 44.434C260.907 43.7682 260.383 43.2285 259.737 43.2285C259.091 43.2285 258.567 43.7682 258.567 44.434C258.567 45.0998 259.091 45.6395 259.737 45.6395Z" fill="#C7E0F4"/>
<path d="M270.48 51.8188H255.326C253.549 51.8188 252.058 53.1762 251.897 54.9442L251.111 63.2935C250.924 65.3116 252.513 67.0618 254.54 67.0618H271.266C273.293 67.0618 274.891 65.3116 274.695 63.2935L273.909 54.9442C273.748 53.1672 272.257 51.8188 270.48 51.8188Z" fill="#72ACF1"/>
<path d="M273.382 81.251H252.424C247.468 81.251 243.441 77.2326 243.441 72.2677V70.8211C243.441 65.8652 247.459 61.8379 252.424 61.8379H273.382C278.338 61.8379 282.365 65.8562 282.365 70.8211V72.2677C282.365 77.2237 278.338 81.251 273.382 81.251Z" fill="#3E8EED"/>
<path d="M273.203 76.6614H252.915C251.924 76.6614 251.12 75.8577 251.12 74.8665V74.5808C251.12 73.5896 251.924 72.7859 252.915 72.7859H273.203C274.194 72.7859 274.998 73.5896 274.998 74.5808V74.8665C275.007 75.8577 274.203 76.6614 273.203 76.6614Z" fill="#106EBE"/>
<path d="M258.443 59.9807C260.065 59.9807 261.381 58.6654 261.381 57.0428C261.381 55.4203 260.065 54.105 258.443 54.105C256.82 54.105 255.505 55.4203 255.505 57.0428C255.505 58.6654 256.82 59.9807 258.443 59.9807Z" fill="white"/>
<path d="M267.613 59.9807C269.236 59.9807 270.551 58.6654 270.551 57.0428C270.551 55.4203 269.236 54.105 267.613 54.105C265.991 54.105 264.675 55.4203 264.675 57.0428C264.675 58.6654 265.991 59.9807 267.613 59.9807Z" fill="white"/>
<path d="M253.817 72.7947V73.5627C253.817 73.9734 254.147 74.3128 254.567 74.3128H256.156C256.567 74.3128 256.907 73.9824 256.907 73.5627V72.7947C256.907 72.7858 256.907 72.7858 256.907 72.7769H253.835C253.817 72.7858 253.817 72.7858 253.817 72.7947Z" fill="#C7E0F4"/>
<path d="M259.951 75.0183H258.362C257.951 75.0183 257.612 75.3487 257.612 75.7684V76.5364C257.612 76.581 257.621 76.6257 257.621 76.6614H260.675C260.684 76.6167 260.684 76.581 260.684 76.5364V75.7684C260.701 75.3576 260.362 75.0183 259.951 75.0183Z" fill="#C7E0F4"/>
<path d="M261.416 72.7947V73.5627C261.416 73.9734 261.746 74.3128 262.166 74.3128H263.756C264.166 74.3128 264.506 73.9824 264.506 73.5627V72.7947C264.506 72.7858 264.506 72.7858 264.506 72.7769H261.434C261.425 72.7858 261.416 72.7858 261.416 72.7947Z" fill="#C7E0F4"/>
<path d="M267.444 75.0183H265.854C265.443 75.0183 265.104 75.3487 265.104 75.7684V76.5364C265.104 76.581 265.113 76.6257 265.113 76.6614H268.167C268.176 76.6167 268.176 76.581 268.176 76.5364V75.7684C268.194 75.3576 267.854 75.0183 267.444 75.0183Z" fill="#C7E0F4"/>
<path d="M268.908 72.7947V73.5627C268.908 73.9734 269.239 74.3128 269.658 74.3128H271.248C271.659 74.3128 271.998 73.9824 271.998 73.5627V72.7947C271.998 72.7858 271.998 72.7858 271.998 72.7769H268.926C268.908 72.7858 268.908 72.7858 268.908 72.7947Z" fill="#C7E0F4"/>
<path d="M266.756 84.2605H259.55C258.782 84.2605 258.157 83.6354 258.157 82.8675V82.6442C258.157 81.8763 258.782 81.2512 259.55 81.2512H266.756C267.524 81.2512 268.149 81.8763 268.149 82.6442V82.8675C268.149 83.6354 267.533 84.2605 266.756 84.2605Z" fill="#106EBE"/>
<path d="M266.756 87.1267H259.55C258.782 87.1267 258.157 86.5017 258.157 85.7337V85.5105C258.157 84.7425 258.782 84.1174 259.55 84.1174H266.756C267.524 84.1174 268.149 84.7425 268.149 85.5105V85.7337C268.149 86.5017 267.533 87.1267 266.756 87.1267Z" fill="#106EBE"/>
<path d="M258.166 88.2609C261.612 88.2609 264.925 88.2609 268.14 88.2609C268.077 87.5466 267.488 86.984 266.756 86.984H259.55C258.817 86.9751 258.228 87.5466 258.166 88.2609Z" fill="#106EBE"/>
<path d="M259.273 58.0161C260.047 58.0161 260.675 57.3884 260.675 56.6141C260.675 55.8398 260.047 55.2122 259.273 55.2122C258.499 55.2122 257.871 55.8398 257.871 56.6141C257.871 57.3884 258.499 58.0161 259.273 58.0161Z" fill="#2B88D8"/>
<path d="M268.444 58.0161C269.218 58.0161 269.846 57.3884 269.846 56.6141C269.846 55.8398 269.218 55.2122 268.444 55.2122C267.67 55.2122 267.042 55.8398 267.042 56.6141C267.042 57.3884 267.67 58.0161 268.444 58.0161Z" fill="#2B88D8"/>
<path d="M330.907 45.345C339.902 45.345 347.195 38.0527 347.195 29.0573C347.195 20.0618 339.902 12.7695 330.907 12.7695C321.911 12.7695 314.619 20.0618 314.619 29.0573C314.619 38.0527 321.911 45.345 330.907 45.345Z" fill="url(#paint2_linear)"/>
<path d="M356.097 39.5228C356.303 37.7815 354.945 36.2545 353.186 36.2456L308.109 36.1384C306.359 36.1384 304.993 37.6565 305.189 39.3978L306.118 47.7649H355.133L356.097 39.5228Z" fill="url(#paint3_radial)"/>
<path d="M332.104 19.8684L344.373 19.8952C345.677 21.8061 346.579 24.0028 346.971 26.3781L332.086 26.3424C330.773 26.3424 329.71 25.2709 329.71 23.9582V22.2437C329.719 20.931 330.791 19.8684 332.104 19.8684Z" fill="#106EBE"/>
<path d="M335.801 25.5478C337.162 25.5478 338.265 24.4444 338.265 23.0832C338.265 21.7221 337.162 20.6187 335.801 20.6187C334.439 20.6187 333.336 21.7221 333.336 23.0832C333.336 24.4444 334.439 25.5478 335.801 25.5478Z" fill="white"/>
<path d="M325.29 25.53C326.651 25.53 327.754 24.4266 327.754 23.0654C327.754 21.7043 326.651 20.6008 325.29 20.6008C323.929 20.6008 322.825 21.7043 322.825 23.0654C322.825 24.4266 323.929 25.53 325.29 25.53Z" fill="white"/>
<path d="M354.276 44.2733C357.274 44.2733 359.705 41.8425 359.705 38.844C359.705 35.8455 357.274 33.4148 354.276 33.4148C351.277 33.4148 348.847 35.8455 348.847 38.844C348.847 41.8425 351.277 44.2733 354.276 44.2733Z" fill="url(#paint4_radial)"/>
<path d="M306.958 44.2733C309.956 44.2733 312.387 41.8425 312.387 38.844C312.387 35.8455 309.956 33.4148 306.958 33.4148C303.959 33.4148 301.528 35.8455 301.528 38.844C301.528 41.8425 303.959 44.2733 306.958 44.2733Z" fill="url(#paint5_radial)"/>
<path d="M309.243 47.7558L309.163 39.1833C309.154 37.9332 308.127 36.9331 306.886 36.9509C305.636 36.9598 304.636 37.9868 304.654 39.228L304.734 47.7648H309.243V47.7558Z" fill="#C7E0F4"/>
<path d="M356.571 47.7558L356.49 39.1833C356.481 37.9332 355.454 36.9331 354.213 36.9509C352.963 36.9598 351.963 37.9868 351.981 39.228L352.061 47.7648H356.571V47.7558Z" fill="#C7E0F4"/>
<path d="M326.279 47.7977L334.735 47.8184L334.753 40.7639L326.296 40.7433L326.279 47.7977Z" fill="#106EBE"/>
<path d="M323.888 68.8389C324.776 68.8389 325.495 68.1193 325.495 67.2316C325.495 66.3439 324.776 65.6243 323.888 65.6243C323 65.6243 322.281 66.3439 322.281 67.2316C322.281 68.1193 323 68.8389 323.888 68.8389Z" fill="white"/>
<path d="M334.603 68.8389C335.491 68.8389 336.211 68.1193 336.211 67.2316C336.211 66.3439 335.491 65.6243 334.603 65.6243C333.716 65.6243 332.996 66.3439 332.996 67.2316C332.996 68.1193 333.716 68.8389 334.603 68.8389Z" fill="white"/>
<path d="M288.384 73.4465L283.205 70.4551V66.8921L285.937 65.258V68.8745L288.384 70.2854L290.831 68.8745V62.4541L293.572 64.1865V70.4551L288.384 73.4465Z" fill="#3E8EED"/>
<path d="M288.509 71.2767C288.428 71.2588 288.348 71.2409 288.259 71.232C287.393 71.1427 286.625 71.7767 286.535 72.6429C286.526 72.759 285.303 83.9211 277.909 88.127C277.838 88.1716 277.775 88.2163 277.713 88.2698C279.463 88.2698 281.187 88.2698 282.856 88.2698C288.643 82.5013 289.625 73.4109 289.67 72.9644C289.75 72.1696 289.25 71.4642 288.509 71.2767Z" fill="#72ACF1"/>
<path d="M288.277 74.3395C289.465 74.3395 290.429 73.376 290.429 72.1874C290.429 70.9989 289.465 70.0354 288.277 70.0354C287.088 70.0354 286.125 70.9989 286.125 72.1874C286.125 73.376 287.088 74.3395 288.277 74.3395Z" fill="white"/>
<path d="M313.949 82.644H282.821C281.883 82.644 281.133 83.4031 281.133 84.3318C281.133 85.2694 281.892 86.0195 282.821 86.0195H313.949C314.887 86.0195 315.637 85.2604 315.637 84.3318C315.637 83.4031 314.878 82.644 313.949 82.644Z" fill="#666666"/>
<path d="M213.616 59.4448H154.215V91.1987H213.616V59.4448Z" fill="#E1DFDD"/>
<path d="M390.539 100.646C390.539 100.646 393.209 82.3852 387.994 64.9813C383.672 50.5688 390.11 35.5313 390.11 22.4136C392.735 32.8434 391.691 43.9073 393.548 53.6585C395.736 65.1599 399.156 71.491 400.379 80.5368C401.469 88.6182 401.692 100.423 401.692 100.423L390.539 100.646Z" fill="#6ECFC3"/>
<path d="M400.37 100.432C400.37 100.432 401.469 86.4483 399.495 77.7061C396.432 64.1598 399.281 48.649 401.46 39.0317C402.335 47.1131 402.138 51.1225 403.424 60.6683C404.951 72.0269 408.755 73.4735 409.979 82.5192C411.068 90.6006 411.291 100.441 411.291 100.441H400.37V100.432Z" fill="#6ECFC3"/>
<path d="M406.193 100.414C406.193 100.414 400.995 91.9489 405.925 84.4748C411.747 75.6434 418.015 75.6433 418.685 65.6868C420.498 75.938 416.292 75.7594 413.059 85.7071C410.041 94.985 415.828 100.87 415.828 100.87L406.193 100.414Z" fill="#6ECFC3"/>
<path d="M393.076 78.76C393.477 78.7048 393.675 77.7452 393.52 76.6167C393.364 75.4881 392.914 74.618 392.513 74.6732C392.112 74.7284 391.914 75.688 392.069 76.8166C392.225 77.9451 392.675 78.8152 393.076 78.76Z" fill="#BBE5E0"/>
<path d="M393.822 72.9875C394.179 72.9383 394.372 72.1975 394.252 71.3328C394.133 70.4681 393.747 69.8069 393.391 69.8561C393.034 69.9052 392.842 70.6461 392.961 71.5108C393.08 72.3755 393.466 73.0366 393.822 72.9875Z" fill="#BBE5E0"/>
<path d="M390.933 68.7789C391.333 68.7237 391.548 67.879 391.412 66.8921C391.276 65.9053 390.841 65.15 390.44 65.2052C390.04 65.2604 389.825 66.1052 389.961 67.092C390.097 68.0789 390.532 68.8341 390.933 68.7789Z" fill="#BBE5E0"/>
<path d="M389.424 62.7132C389.678 62.6782 389.814 62.1389 389.727 61.5087C389.64 60.8785 389.364 60.396 389.11 60.431C388.856 60.466 388.72 61.0053 388.807 61.6355C388.894 62.2657 389.17 62.7482 389.424 62.7132Z" fill="#BBE5E0"/>
<path d="M409.376 96.7736C409.78 96.7554 410.066 95.8181 410.015 94.68C409.964 93.5419 409.595 92.634 409.191 92.6522C408.787 92.6703 408.501 93.6077 408.552 94.7457C408.603 95.8838 408.972 96.7917 409.376 96.7736Z" fill="#BBE5E0"/>
<path d="M410.986 92.947C411.345 92.9246 411.593 92.2002 411.538 91.329C411.484 90.4577 411.149 89.7695 410.79 89.7919C410.43 89.8142 410.183 90.5386 410.237 91.4098C410.291 92.2811 410.626 92.9693 410.986 92.947Z" fill="#BBE5E0"/>
<path d="M409.695 88.9874C409.721 88.3616 409.534 87.8457 409.278 87.8351C409.022 87.8245 408.793 88.3232 408.767 88.949C408.741 89.5747 408.928 90.0906 409.184 90.1013C409.44 90.1119 409.669 89.6132 409.695 88.9874Z" fill="#BBE5E0"/>
<path d="M386.163 100.646C386.163 100.646 388.539 91.9846 384.851 83.8229C379.823 72.6787 381.136 61.972 382.225 51.7029C382.877 60.579 386.378 73.3395 390.968 82.7335C394.548 90.0647 395.557 100.432 395.557 100.432L386.163 100.646Z" fill="#6ECFC3"/>
<path d="M410.014 120.149H390.967C382.118 117.684 382.841 103.12 382.841 103.12C382.841 101.432 383.716 100.182 385.645 100.057H415.176C417.381 100.057 417.98 101.441 417.98 103.12C417.98 103.12 417.944 117.774 410.014 120.149Z" fill="white"/>
<path d="M199.409 161.189C208.49 172.485 227.287 176.602 228.376 176.673C229.466 176.745 204.704 189.622 204.704 189.622C204.704 189.622 188.514 175.843 187.773 166.538C187.702 165.672 199.409 161.189 199.409 161.189Z" fill="#A08BE8"/>
<path d="M204.882 187.38L226.769 176.415C226.769 176.415 233.573 177.254 236.163 179.022C238.145 180.379 240.217 184.63 241.083 186.559C241.324 187.094 241.101 187.728 240.574 187.987L219.491 198.632C218.813 198.971 217.991 198.703 217.652 198.015C216.491 195.676 213.571 190.907 211.972 189.934C209.588 188.496 204.882 187.38 204.882 187.38Z" fill="#D0C5F3"/>
<path d="M185.469 165.529C188.577 181.63 201.534 203.088 202.293 204.186C203.355 205.704 204.159 206.731 206.481 205.552C209.374 204.088 221.786 197.783 221.786 197.783L195.283 161.69L185.469 165.529Z" fill="#8065E0"/>
<path d="M199.409 161.189C203.882 167.592 215.678 173.798 233.868 177.334C235.993 177.745 237.413 178.602 238.306 180.37L241.173 186.023C241.592 186.862 241.262 187.88 240.432 188.3L219.5 198.917C218.911 199.221 218.188 198.98 217.893 198.391L214.589 191.872C213.562 189.845 212.616 189.005 209.776 188.568C202.659 187.47 192.961 176.522 188.3 167.592C183.639 158.662 199.409 161.189 199.409 161.189Z" fill="#A08BE8"/>
<path d="M237.413 179.076C237.761 179.442 238.056 179.861 238.315 180.362L241.181 186.014C241.601 186.853 241.271 187.871 240.44 188.291L219.509 198.908C218.92 199.212 218.196 198.971 217.902 198.382L214.598 191.863C214.419 191.515 214.25 191.202 214.062 190.925L237.413 179.076Z" fill="#D0C5F3"/>
<path d="M167.744 170.557L155.921 166.288C157.805 161.056 157.743 156.877 155.725 153.501C151.956 147.188 141.839 144.42 138.258 143.884L140.053 131.445C140.526 131.516 144.866 132.168 150.099 134.231C157.662 137.204 163.172 141.5 166.476 146.991C170.539 153.724 170.959 161.654 167.744 170.557Z" fill="url(#paint6_linear)"/>
<path d="M181.442 155.305C169.628 134.222 150.813 132.4 150.019 132.329L150.956 119.801C152.019 119.881 177.174 121.97 192.408 149.161L181.442 155.305Z" fill="url(#paint7_linear)"/>
<path d="M165.181 83.5727L155.787 75.2235C163.511 66.5349 166.467 57.9088 164.091 50.9526C161.279 42.6927 151.054 36.4955 135.302 33.504L137.642 21.1543C163.779 26.1103 172.923 37.8885 175.986 46.8985C179.888 58.3285 176.048 71.348 165.181 83.5727Z" fill="url(#paint8_linear)"/>
<path d="M164.889 58.3237L164.554 59.731L176.62 62.6036L176.955 61.1963L164.889 58.3237Z" fill="#A08BE8"/>
<path d="M130.114 48.8095L141.374 35.3347C143.383 32.9326 143.062 29.3607 140.66 27.3515C138.258 25.3424 134.686 25.6638 132.677 28.0659L121.416 41.5408C119.407 43.9429 119.729 47.5147 122.131 49.5239C124.533 51.5331 128.105 51.2116 130.114 48.8095Z" fill="#D0C5F3"/>
<path d="M134.079 14.85L123.318 9.98336C120.443 8.70641 117.076 10.0012 115.8 12.8766C114.523 15.7519 115.817 19.1184 118.693 20.3954L129.721 25.387L134.079 14.85Z" fill="#D0C5F3"/>
<path d="M128.257 17.4663L111.978 17.502C108.835 17.5199 106.299 20.0827 106.317 23.2349C106.334 26.3781 108.897 28.9141 112.049 28.8963L124.158 28.9052L128.257 17.4663Z" fill="#D0C5F3"/>
<path d="M130.016 24.1995L114.157 27.9321C111.094 28.6464 109.192 31.7093 109.906 34.7722C110.62 37.8351 113.683 39.7371 116.746 39.0227L132.9 35.2187L130.016 24.1995Z" fill="#D0C5F3"/>
<path d="M133.07 38.2368C139.653 38.2368 144.991 32.8995 144.991 26.3156C144.991 19.7318 139.653 14.3945 133.07 14.3945C126.486 14.3945 121.148 19.7318 121.148 26.3156C121.148 32.8995 126.486 38.2368 133.07 38.2368Z" fill="url(#paint9_radial)"/>
<path d="M171.128 38.085C166.065 43.2642 162.368 47.2289 162.368 47.2289L163.074 48.4434L175.959 46.7646C175.004 44.0321 173.495 41.0585 171.128 38.085Z" fill="#A08BE8"/>
<path d="M158.319 27.9864L152.401 38.8877L153.673 39.5779L159.59 28.6766L158.319 27.9864Z" fill="#A08BE8"/>
<path d="M101.316 229.948C103.745 229.948 105.71 227.983 105.71 225.555V160.931C105.71 158.502 103.745 156.537 101.316 156.537C98.8874 156.537 96.9229 158.502 96.9229 160.931V225.555C96.9229 227.974 98.8874 229.948 101.316 229.948Z" fill="#C8C6C4"/>
<path d="M88.4126 61.6147L112.094 146.697C115.862 157.662 108.915 169.324 97.8602 170.619L64.4811 174.521C55.9622 175.522 47.9612 169.869 45.6573 161.225L23.6011 71.4284C21.3686 63.0434 26.7979 54.6228 35.0668 53.6494L69.9639 49.5686C78.0185 48.6399 85.6712 53.6405 88.4126 61.6147Z" fill="#2B579A"/>
<path d="M165.288 81.7154C161.948 65.4634 153.867 55.1586 153.867 55.1586L157.251 53.4887L157.305 53.3816C139.446 29.3429 106.433 20.7168 78.5989 34.415C47.2468 49.8544 34.3434 87.7787 49.7828 119.14C65.2222 150.501 103.147 163.395 134.508 147.965C159.252 135.785 172.494 109.594 169.405 83.6889C169.164 82.6352 168.315 80.9653 165.288 81.7154Z" fill="url(#paint10_radial)"/>
<path d="M169.494 84.4567C169.494 84.4567 169.574 80.6526 165.288 81.7153C161.993 65.6686 154.072 55.4263 153.876 55.1763L94.9758 84.1709C94.9758 84.1709 91.0825 85.6175 92.7434 89.0108C94.4132 92.3951 99.271 101.905 104.477 112.505C105.549 114.684 107.852 114.853 109.254 114.166L169.735 84.3852C169.583 84.4209 169.494 84.4567 169.494 84.4567Z" fill="url(#paint11_radial)"/>
<path d="M136.99 95.5922C136.99 95.5922 140.446 88.3235 141.143 86.9483C141.839 85.5731 142.786 85.0552 144.223 85.4302C145.67 85.8053 153.519 87.4483 153.519 87.4483L136.99 95.5922Z" fill="#A08BE8"/>
<path d="M169.494 84.4568C169.494 84.4568 169.575 80.6528 165.288 81.7154C165.288 81.6976 165.28 81.6797 165.28 81.6619L107.362 110.174C106.013 110.835 103.888 110.889 103.093 109.656C103.558 110.594 104.022 111.541 104.495 112.496C105.469 114.469 107.451 114.791 108.862 114.318C109.005 114.264 109.139 114.219 109.273 114.148L113.228 112.201L169.753 84.3765C169.584 84.4211 169.494 84.4568 169.494 84.4568Z" fill="url(#paint12_radial)"/>
<path d="M169.655 95.842L71.7588 144.035C75.795 146.688 80.108 148.857 84.6086 150.518L166.958 109.978C168.387 105.397 169.298 100.655 169.655 95.842Z" fill="url(#paint13_radial)"/>
<path d="M156.324 98.7578L138.001 107.778L145.98 123.986L164.303 114.966L156.324 98.7578Z" fill="#512BD4"/>
<path d="M58.9804 227.233V226.215C58.9804 224.572 60.311 223.251 61.9451 223.251H141.142C142.785 223.251 144.107 224.581 144.107 226.215V227.233C144.107 228.876 145.438 230.198 147.072 230.198H149.358C151.001 230.198 152.322 228.867 152.322 227.233V222.108C152.322 218.197 149.152 215.035 145.25 215.035H57.8374C53.9262 215.035 50.7651 218.205 50.7651 222.108V227.233C50.7651 228.876 52.0957 230.198 53.7298 230.198H56.0158C57.6499 230.207 58.9804 228.876 58.9804 227.233Z" fill="#C8C6C4"/>
<path d="M150.483 162.243C149.099 155.582 144.973 149.277 136.562 149.759L65.553 158.064C65.544 158.055 65.5351 158.037 65.5351 158.037C51.9441 159.52 44.8004 155.358 42.6216 149.313L45.6755 161.234C47.9794 169.878 55.9804 175.522 64.4993 174.53L74.054 173.414C74.054 173.405 74.054 173.396 74.054 173.387C92.1455 171.271 137.812 165.913 148.76 164.627C149.912 164.485 150.715 163.386 150.483 162.243Z" fill="#2B579A"/>
<path d="M108.281 167.262C106.897 160.6 102.772 154.296 94.3601 154.778L65.553 158.064C65.544 158.055 65.5351 158.037 65.5351 158.037C51.9441 159.52 44.8004 155.358 42.6216 149.313L45.6755 161.234C47.9794 169.878 55.9804 175.522 64.4993 174.53L74.054 173.414C74.054 173.405 74.054 173.396 74.054 173.387C92.1455 171.271 95.6102 170.932 106.558 169.637C107.71 169.503 108.514 168.405 108.281 167.262Z" fill="#2B88D8"/>
<path d="M83.0548 28.0212L72.2052 33.6648L67.9458 21.7258L75.7325 17.6807L83.0548 28.0212Z" fill="#D0C5F3"/>
<path d="M67.7048 23.2171C74.116 23.2171 79.3133 18.0198 79.3133 11.6086C79.3133 5.19733 74.116 0 67.7048 0C61.2935 0 56.0962 5.19733 56.0962 11.6086C56.0962 18.0198 61.2935 23.2171 67.7048 23.2171Z" fill="url(#paint14_radial)"/>
<path d="M90.7433 32.6647C91.2344 32.4146 91.4041 31.7806 91.1005 31.3252C87.8501 26.4764 81.4029 24.744 76.0987 27.4944C70.7944 30.2536 68.5173 36.5312 70.6158 41.9783C70.8123 42.4962 71.4284 42.7105 71.9106 42.4605L90.7433 32.6647Z" fill="url(#paint15_radial)"/>
<path d="M72.5089 117.282L71.4642 104.763C59.8734 105.727 51.2117 102.923 47.0594 96.8509C42.1391 89.6447 43.3089 77.7414 50.3723 63.3468L39.0852 57.8193C27.3784 81.7062 31.3163 96.083 36.6831 103.941C43.4964 113.898 56.2123 118.639 72.5089 117.282Z" fill="url(#paint16_linear)"/>
<path d="M52.4732 101.887L47.5342 113.264L48.8611 113.84L53.8001 102.463L52.4732 101.887Z" fill="#A08BE8"/>
<path d="M65.7316 68.3655L48.1937 69.2942C45.0683 69.4549 42.3984 67.0617 42.2376 63.9364C42.0769 60.811 44.47 58.141 47.5954 57.9803L65.1333 57.0516C68.2587 56.8909 70.9287 59.284 71.0894 62.4094C71.2591 65.5348 68.857 68.2047 65.7316 68.3655Z" fill="#D0C5F3"/>
<path d="M36.1743 51.1759L38.7371 39.6477C39.4426 36.5848 42.4965 34.6649 45.5594 35.3704C48.6223 36.0758 50.5422 39.1297 49.8367 42.1926L47.2114 54.0155L36.1743 51.1759Z" fill="#D0C5F3"/>
<path d="M41.7642 48.0862L51.56 35.0756C53.462 32.5664 57.0339 32.0842 59.5431 33.9862C62.0524 35.8882 62.5346 39.4601 60.6326 41.9693L53.3817 51.667L41.7642 48.0862Z" fill="#D0C5F3"/>
<path d="M46.104 53.5243L58.6055 43.0677C61.0166 41.0406 64.6063 41.3621 66.6333 43.7731C68.6604 46.1841 68.3389 49.7738 65.9279 51.8009L53.1942 62.445L46.104 53.5243Z" fill="#D0C5F3"/>
<path d="M45.9611 69.1601C52.545 69.1601 57.8823 63.8228 57.8823 57.239C57.8823 50.6551 52.545 45.3179 45.9611 45.3179C39.3773 45.3179 34.04 50.6551 34.04 57.239C34.04 63.8228 39.3773 69.1601 45.9611 69.1601Z" fill="url(#paint17_radial)"/>
<path d="M32.5576 94.7526C39.7371 93.806 45.1306 93.2256 45.1306 93.2256L45.6842 94.5204L36.6117 103.825C34.9865 101.423 33.5042 98.4316 32.5576 94.7526Z" fill="#A08BE8"/>
<path d="M32.1776 78.453L31.9673 79.8843L44.2391 81.6877L44.4495 80.2564L32.1776 78.453Z" fill="#A08BE8"/>
<path d="M71.6429 124.06C78.0591 124.06 83.2604 118.859 83.2604 112.442C83.2604 106.026 78.0591 100.825 71.6429 100.825C65.2267 100.825 60.0254 106.026 60.0254 112.442C60.0254 118.859 65.2267 124.06 71.6429 124.06Z" fill="url(#paint18_radial)"/>
<path d="M181.946 135.237L172.884 144.004L173.89 145.044L182.952 136.277L181.946 135.237Z" fill="#A08BE8"/>
<path d="M164.565 137.517L163.333 136.749L169.94 126.06L171.235 126.792L164.565 137.517Z" fill="#A08BE8"/>
<path d="M188.621 147.036L180.469 151.59C177.468 153.269 176.397 157.055 178.075 160.055L181.665 166.476C183.344 169.476 187.13 170.548 190.13 168.869L198.283 164.315C201.284 162.636 202.355 158.85 200.676 155.849L197.087 149.429C195.417 146.429 191.622 145.357 188.621 147.036Z" fill="url(#paint19_radial)"/>
<path d="M151.858 149.277L150.67 148.447L157.805 138.106L159.064 138.901L151.858 149.277Z" fill="#A08BE8"/>
<path d="M156.537 155.581L156.207 154.171L168.431 151.26L168.833 152.697L156.537 155.581Z" fill="#A08BE8"/>
<path d="M165.967 182.487C163.94 196.837 173.789 213.365 174.486 214.205C175.182 215.044 148.849 205.793 148.849 205.793C148.849 205.793 147.831 184.567 154.108 177.647C154.698 177.013 165.967 182.487 165.967 182.487Z" fill="#A08BE8"/>
<path d="M150.608 204.391L173.575 212.856C173.575 212.856 177.62 218.393 178.102 221.5C178.468 223.876 176.781 228.296 175.968 230.243C175.745 230.787 175.129 231.055 174.575 230.85L152.394 222.751C151.679 222.492 151.313 221.697 151.581 220.991C152.492 218.545 153.974 213.151 153.59 211.321C153.019 208.597 150.608 204.391 150.608 204.391Z" fill="#D0C5F3"/>
<path d="M153.269 175.289C143.652 188.568 136.856 212.696 136.579 214.008C136.195 215.821 135.999 217.107 138.446 218C141.491 219.107 154.582 223.858 154.582 223.858L162.779 179.835L153.269 175.289Z" fill="#8065E0"/>
<path d="M165.967 182.487C164.351 190.131 167.896 202.98 177.763 218.67C178.915 220.5 179.263 222.126 178.585 223.983L176.424 229.939C176.102 230.823 175.129 231.279 174.254 230.957L152.189 222.947C151.564 222.724 151.242 222.036 151.474 221.411L153.966 214.535C154.743 212.392 154.707 211.142 153.082 208.767C149.019 202.829 150.367 188.264 153.689 178.754C157.02 169.253 165.967 182.487 165.967 182.487Z" fill="#A08BE8"/>
<path d="M178.915 222.447C178.888 222.947 178.781 223.456 178.593 223.983L176.432 229.939C176.111 230.823 175.137 231.278 174.262 230.957L152.197 222.947C151.572 222.724 151.251 222.036 151.483 221.411L153.974 214.535C154.108 214.169 154.215 213.83 154.296 213.508L178.915 222.447Z" fill="#D0C5F3"/>
<path d="M167.083 166.047L158.154 163.324C154.868 162.323 151.385 164.172 150.385 167.458L148.242 174.495C147.242 177.781 149.09 181.263 152.376 182.263L161.306 184.987C164.592 185.987 168.075 184.139 169.075 180.852L171.218 173.816C172.227 170.53 170.369 167.056 167.083 166.047Z" fill="url(#paint20_radial)"/>
<path d="M93.833 36.9062C94.3063 37.9688 95.4582 38.6207 96.6548 38.4242C112.398 35.8168 128.4 40.5852 140.151 50.8454C143.321 53.6136 147.125 49.9792 143.661 46.9431C130.739 35.6382 113.13 30.3786 95.7975 33.245C94.3688 33.4861 93.4044 34.8345 93.6365 36.2632C93.6723 36.4865 93.7437 36.7008 93.833 36.9062Z" fill="url(#paint21_radial)"/>
<path d="M121.56 144.107C120.997 143.089 119.8 142.535 118.622 142.839C98.9764 147.822 77.9202 140.982 64.9633 125.408C64.0346 124.292 62.3826 124.14 61.2664 125.069C60.1502 125.998 59.9984 127.65 60.9271 128.766C75.161 145.884 98.3156 153.403 119.908 147.929C121.309 147.572 122.158 146.143 121.81 144.741C121.756 144.509 121.667 144.294 121.56 144.107Z" fill="url(#paint22_radial)"/>
<path d="M121.399 97.141C123.821 95.8779 124.063 91.55 121.938 87.4744C119.813 83.3988 116.127 81.1188 113.704 82.3819C111.281 83.645 111.04 87.9729 113.165 92.0485C115.29 96.1241 118.976 98.4041 121.399 97.141Z" fill="#512BD4"/>
<path d="M156.757 79.3445C159.216 78.1543 159.587 73.8357 157.585 69.6985C155.582 65.5613 151.966 63.1723 149.507 64.3624C147.047 65.5525 146.677 69.8712 148.679 74.0084C150.681 78.1456 154.298 80.5346 156.757 79.3445Z" fill="#512BD4"/>
<path d="M115.648 86.0732C116.094 84.7159 117.112 83.7068 118.345 83.2246C119.684 84.1712 120.979 85.6445 121.934 87.493C122.533 88.6449 122.943 89.8147 123.167 90.9309C121.97 92.0293 120.229 92.4668 118.577 91.9221C116.157 91.1184 114.844 88.502 115.648 86.0732Z" fill="#8065E0"/>
<path d="M151.117 67.9459C151.563 66.5886 152.59 65.5795 153.822 65.0884C155.251 66.0617 156.626 67.6601 157.608 69.6872C158.108 70.723 158.466 71.7678 158.671 72.7768C157.474 73.893 155.724 74.3395 154.063 73.7859C151.626 72.9911 150.313 70.3747 151.117 67.9459Z" fill="#8065E0"/>
<path d="M145.438 116.943C145.304 117.005 145.17 117.005 145.036 116.961C144.902 116.916 144.804 116.827 144.75 116.702C144.696 116.577 144.687 116.443 144.741 116.309C144.795 116.175 144.884 116.077 145.018 116.023C145.152 115.961 145.286 115.961 145.42 116.005C145.554 116.05 145.652 116.139 145.705 116.264C145.759 116.389 145.759 116.514 145.705 116.648C145.67 116.782 145.572 116.88 145.438 116.943Z" fill="white"/>
<path d="M150.715 114.469L149.849 114.862L145.955 112.299C145.857 112.237 145.768 112.166 145.688 112.085L145.67 112.094C145.732 112.192 145.848 112.407 146 112.755L147.438 115.952L146.67 116.3L144.473 111.415L145.393 111.005L149.17 113.514C149.331 113.621 149.429 113.692 149.483 113.728L149.492 113.719C149.411 113.603 149.304 113.389 149.161 113.076L147.741 109.933L148.5 109.594L150.715 114.469Z" fill="white"/>
<path d="M154.43 112.799L151.76 114.005L149.563 109.12L152.126 107.959L152.438 108.647L150.661 109.451L151.286 110.835L152.921 110.094L153.233 110.781L151.599 111.522L152.251 112.969L154.135 112.121L154.43 112.799Z" fill="white"/>
<path d="M156.341 106.888L154.974 107.504L156.867 111.701L156.082 112.058L154.189 107.861L152.822 108.478L152.51 107.79L156.028 106.2L156.341 106.888Z" fill="white"/>
<defs>
<linearGradient id="paint0_linear" x1="411.181" y1="123.183" x2="411.181" y2="231.058" gradientUnits="userSpaceOnUse">
<stop offset="0.0512" stop-color="#9B643D"/>
<stop offset="0.1312" stop-color="#BF8F68"/>
</linearGradient>
<linearGradient id="paint1_linear" x1="93.8366" y1="126.056" x2="93.8366" y2="229.997" gradientUnits="userSpaceOnUse">
<stop offset="0.0197" stop-color="#9B643D"/>
<stop offset="0.1001" stop-color="#BF8F68"/>
</linearGradient>
<linearGradient id="paint2_linear" x1="340.102" y1="37.2178" x2="315.746" y2="15.5839" gradientUnits="userSpaceOnUse">
<stop offset="0.6886" stop-color="#3E8EED"/>
<stop offset="0.7056" stop-color="#4290ED"/>
<stop offset="0.8867" stop-color="#65A4F0"/>
<stop offset="0.9841" stop-color="#72ACF1"/>
</linearGradient>
<radialGradient id="paint3_radial" cx="0" cy="0" r="1" gradientUnits="userSpaceOnUse" gradientTransform="translate(319.57 36.7716) scale(41.897)">
<stop offset="0.204" stop-color="#72ACF1"/>
<stop offset="0.2915" stop-color="#69A7F0"/>
<stop offset="0.6359" stop-color="#4A95EE"/>
<stop offset="0.828" stop-color="#3E8EED"/>
</radialGradient>
<radialGradient id="paint4_radial" cx="0" cy="0" r="1" gradientUnits="userSpaceOnUse" gradientTransform="translate(352.883 36.5181) rotate(11.6134) scale(6.84206)">
<stop offset="0.2011" stop-color="#3E8EED"/>
<stop offset="1" stop-color="#106EBE"/>
</radialGradient>
<radialGradient id="paint5_radial" cx="0" cy="0" r="1" gradientUnits="userSpaceOnUse" gradientTransform="translate(305.565 36.5183) rotate(11.6134) scale(6.84206)">
<stop offset="0.2011" stop-color="#3E8EED"/>
<stop offset="1" stop-color="#106EBE"/>
</radialGradient>
<linearGradient id="paint6_linear" x1="138.268" y1="151.002" x2="169.876" y2="151.002" gradientUnits="userSpaceOnUse">
<stop offset="0.1788" stop-color="#958FE7"/>
<stop offset="0.4497" stop-color="#BBB7EF"/>
</linearGradient>
<linearGradient id="paint7_linear" x1="150.017" y1="137.555" x2="192.408" y2="137.555" gradientUnits="userSpaceOnUse">
<stop offset="0.1788" stop-color="#958FE7"/>
<stop offset="0.4497" stop-color="#BBB7EF"/>
</linearGradient>
<linearGradient id="paint8_linear" x1="156.39" y1="83.5705" x2="156.39" y2="21.1542" gradientUnits="userSpaceOnUse">
<stop offset="0.00837769" stop-color="#958FE7"/>
<stop offset="0.3141" stop-color="#BBB7EF"/>
</linearGradient>
<radialGradient id="paint9_radial" cx="0" cy="0" r="1" gradientUnits="userSpaceOnUse" gradientTransform="translate(133.069 20.4146) scale(15.7278)">
<stop stop-color="#A08BE8"/>
<stop offset="1" stop-color="#8065E0"/>
</radialGradient>
<radialGradient id="paint10_radial" cx="0" cy="0" r="1" gradientUnits="userSpaceOnUse" gradientTransform="translate(111.064 64.6604) scale(63.2909)">
<stop offset="0.4744" stop-color="#A08BE8"/>
<stop offset="0.8618" stop-color="#8065E0"/>
</radialGradient>
<radialGradient id="paint11_radial" cx="0" cy="0" r="1" gradientUnits="userSpaceOnUse" gradientTransform="translate(121.884 76.6248) scale(34.4873)">
<stop offset="0.00681444" stop-color="#E1DFDD"/>
<stop offset="0.7337" stop-color="white"/>
</radialGradient>
<radialGradient id="paint12_radial" cx="0" cy="0" r="1" gradientUnits="userSpaceOnUse" gradientTransform="translate(117.993 100.152) scale(42.9666)">
<stop stop-color="#512BD4"/>
<stop offset="0.7715" stop-color="#6645D9"/>
<stop offset="0.8738" stop-color="#7659DD"/>
<stop offset="0.9583" stop-color="#8065E0"/>
</radialGradient>
<radialGradient id="paint13_radial" cx="0" cy="0" r="1" gradientUnits="userSpaceOnUse" gradientTransform="translate(87.7274 135.894) scale(39.6447)">
<stop offset="0.4614" stop-color="#A08BE8"/>
<stop offset="0.5268" stop-color="#A793EA"/>
<stop offset="0.8352" stop-color="#C5B7F0"/>
<stop offset="1" stop-color="#D0C5F3"/>
</radialGradient>
<radialGradient id="paint14_radial" cx="0" cy="0" r="1" gradientUnits="userSpaceOnUse" gradientTransform="translate(67.6342 6.88254) scale(15.7682)">
<stop stop-color="#A08BE8"/>
<stop offset="1" stop-color="#8065E0"/>
</radialGradient>
<radialGradient id="paint15_radial" cx="0" cy="0" r="1" gradientUnits="userSpaceOnUse" gradientTransform="translate(80.0425 31.3749) scale(10.7772)">
<stop stop-color="#8065E0"/>
<stop offset="0.8628" stop-color="#512BD4"/>
</radialGradient>
<linearGradient id="paint16_linear" x1="76.7701" y1="112.203" x2="27.8715" y2="71.1727" gradientUnits="userSpaceOnUse">
<stop offset="0.2566" stop-color="#958FE7"/>
<stop offset="0.4763" stop-color="#BBB7EF"/>
</linearGradient>
<radialGradient id="paint17_radial" cx="0" cy="0" r="1" gradientUnits="userSpaceOnUse" gradientTransform="translate(46.3509 52.5421) scale(15.6721)">
<stop stop-color="#A08BE8"/>
<stop offset="1" stop-color="#8065E0"/>
</radialGradient>
<radialGradient id="paint18_radial" cx="0" cy="0" r="1" gradientUnits="userSpaceOnUse" gradientTransform="translate(72.0237 107.846) scale(13.3345)">
<stop stop-color="#8065E0"/>
<stop offset="0.8628" stop-color="#512BD4"/>
</radialGradient>
<radialGradient id="paint19_radial" cx="0" cy="0" r="1" gradientUnits="userSpaceOnUse" gradientTransform="translate(188.293 153.852) scale(17.7076)">
<stop stop-color="#8065E0"/>
<stop offset="0.8628" stop-color="#512BD4"/>
</radialGradient>
<radialGradient id="paint20_radial" cx="0" cy="0" r="1" gradientUnits="userSpaceOnUse" gradientTransform="translate(160.062 168.395) scale(16.781)">
<stop stop-color="#8065E0"/>
<stop offset="0.8628" stop-color="#512BD4"/>
</radialGradient>
<radialGradient id="paint21_radial" cx="0" cy="0" r="1" gradientUnits="userSpaceOnUse" gradientTransform="translate(119.262 42.5851) rotate(-114.117) scale(19.5964)">
<stop offset="0.3607" stop-color="#BDB9F0"/>
<stop offset="0.5611" stop-color="#C3BCEB" stop-opacity="0.3855"/>
<stop offset="0.6338" stop-color="#CEC3E2" stop-opacity="0.3217"/>
<stop offset="0.8689" stop-color="#EDD6C9" stop-opacity="0.1152"/>
<stop offset="1" stop-color="#F9DDBF" stop-opacity="0"/>
</radialGradient>
<radialGradient id="paint22_radial" cx="0" cy="0" r="1" gradientUnits="userSpaceOnUse" gradientTransform="translate(91.0708 136.176) rotate(61.0539) scale(23.5587)">
<stop stop-color="#BDB9F0"/>
<stop offset="0.5266" stop-color="#C3BCEB" stop-opacity="0.3855"/>
<stop offset="0.605" stop-color="#CEC3E2" stop-opacity="0.3217"/>
<stop offset="0.8586" stop-color="#EDD6C9" stop-opacity="0.1152"/>
<stop offset="1" stop-color="#F9DDBF" stop-opacity="0"/>
</radialGradient>
</defs>
</svg>
