<svg width="269" height="238" viewBox="0 0 269 238" fill="none" xmlns="http://www.w3.org/2000/svg">
<path d="M213.699 181.371H212.644V192.77H213.699V181.371Z" fill="#E0BB95"/>
<path d="M213.067 182.568C210.682 182.753 207.118 175.255 208.496 170.537C209.48 167.158 209.988 165.661 209.271 162.444C208.073 157.099 213.21 152.737 213.21 152.737C213.21 152.737 216.237 155.55 216.94 159.84C217.714 164.568 215.671 166.384 217.786 172.01C219.9 177.636 215.809 182.354 213.067 182.568Z" fill="#C7E0F4"/>
<path d="M235.373 193.894L236.599 193.894L236.599 184.362L235.373 184.362L235.373 193.894Z" fill="#E0BB95"/>
<path d="M0.693481 203.756H179.829C179.829 203.756 160.356 186.93 147.888 187.334C135.419 187.738 126.743 193.017 105.631 185.391C72.2831 173.34 54.5021 174.908 37.1107 185.88C19.7194 196.852 10.5343 189.943 0.693481 203.756Z" fill="#C7E0F4"/>
<path d="M144.291 191.919H143.241V201.627H144.291V191.919Z" fill="#E0BB95"/>
<path d="M150.72 182.663C150.72 175.592 143.825 170.418 143.825 170.418L143.82 170.423V170.418C143.82 170.418 136.926 175.588 136.926 182.663C136.926 188.893 143.82 193.535 143.82 193.535L143.825 193.525V193.535C143.825 193.535 150.72 188.888 150.72 182.663Z" fill="#6ECFC3"/>
<path d="M223.131 195.21L224.528 195.21L224.528 183.402L223.131 183.402L223.131 195.21Z" fill="#E0BB95"/>
<path d="M269 203.932H109.874C109.874 203.932 124.448 194.381 135.519 194.651C146.595 194.922 147.47 203.385 176.322 193.834C205.175 184.283 221.202 184.554 236.65 191.924C252.098 199.294 260.257 194.656 269 203.932Z" fill="#9FCDB3"/>
<path d="M161.345 192.87H160.413V200.135H161.345V192.87Z" fill="#E0BB95"/>
<path d="M166.9 179.579C166.9 169.534 160.751 162.183 160.751 162.183V162.188V162.183C160.751 162.183 154.602 169.529 154.602 179.579C154.602 188.427 160.751 195.022 160.751 195.022L160.756 195.008V195.022C160.756 195.022 166.9 188.422 166.9 179.579Z" fill="#9FCDB3"/>
<path d="M235.857 185.015C240.233 185.196 238.418 179.973 240.974 172.684C244.514 162.582 239.401 153.663 236.907 151.696C234.412 149.729 232.445 152.874 232.445 156.419C232.445 161.014 229.822 161.271 229.166 167.833C228.51 174.39 231.922 178.852 232.316 180.297C232.706 181.736 232.706 184.887 235.857 185.015Z" fill="#9FCDB3"/>
<path d="M214.559 172.143C214.559 163.542 223.749 157.255 223.749 157.255L223.754 157.26L223.759 157.255C223.759 157.255 232.949 163.547 232.949 172.143C232.949 179.717 223.759 185.362 223.759 185.362L223.754 185.352V185.362C223.749 185.362 214.559 179.717 214.559 172.143Z" fill="#6ECFC3"/>
<path d="M115.776 168.089C118.47 159.175 122.476 141.076 117.695 125.885L107.118 131.306C111.451 145.086 107.408 161.128 105.174 168.123C104.994 168.698 110.23 169.249 115.776 168.089Z" fill="url(#paint0_linear)"/>
<path d="M115.776 168.089C118.47 159.175 122.476 141.076 117.695 125.885L107.118 131.306C111.451 145.086 107.408 161.128 105.174 168.123C104.994 168.698 110.23 169.249 115.776 168.089Z" fill="url(#paint1_linear)"/>
<path d="M105.213 168.023H113.547C113.694 170.712 110.097 184.863 130.824 202.758L127.959 212.594L91.6321 212.57C90.3586 212.57 89.6743 211.582 90.1305 210.308L105.213 168.023Z" fill="#522CD5"/>
<path d="M132.117 200.729C133.362 201.741 133.281 202.882 132.658 204.626L130.501 210.85C130.159 211.805 129.099 212.585 128.144 212.585H127.959C126.876 212.585 126.31 211.706 126.695 210.622L128.292 205.557C129.009 203.547 129.185 202.273 127.546 200.905C117.852 192.803 106.377 181.347 110.026 168.018H115.79C114.374 174.851 115.742 187.439 132.117 200.729Z" fill="url(#paint2_linear)"/>
<path d="M128.553 202.145C129.014 203.114 128.795 204.155 128.292 205.562L126.7 210.627C126.315 211.71 126.876 212.589 127.959 212.589H128.144C129.099 212.589 130.159 211.81 130.501 210.855L132.658 204.63C133.015 203.637 133.181 202.839 133.034 202.15H128.553V202.145Z" fill="url(#paint3_radial)"/>
<path d="M81.7864 176.842C75.9845 176.842 69.9023 174.352 64.0909 169.453L70.8336 161.466C77.0774 166.735 82.6369 167.79 87.3507 164.602C94.6873 159.641 98.1894 146.436 94.8536 136.334L104.78 133.055C109.603 147.647 104.409 165.685 93.2048 173.259C89.66 175.654 85.7873 176.842 81.7864 176.842Z" fill="url(#paint4_linear)"/>
<path d="M206.429 203.998L200.637 205.485L179.867 124.307C179.463 122.725 180.418 121.109 182.001 120.705L182.053 120.691C183.64 120.282 185.256 121.242 185.659 122.829L206.429 203.998Z" fill="#605D5A"/>
<path d="M207.137 237.569C218.038 237.569 226.876 228.732 226.876 217.83C226.876 206.929 218.038 198.092 207.137 198.092C196.236 198.092 187.398 206.929 187.398 217.83C187.398 228.732 196.236 237.569 207.137 237.569Z" fill="#605D5A"/>
<path d="M207.137 229.677C213.68 229.677 218.983 224.373 218.983 217.831C218.983 211.288 213.68 205.985 207.137 205.985C200.595 205.985 195.291 211.288 195.291 217.831C195.291 224.373 200.595 229.677 207.137 229.677Z" fill="white"/>
<path d="M63.3309 237.569C74.2322 237.569 83.0695 228.732 83.0695 217.83C83.0695 206.929 74.2322 198.092 63.3309 198.092C52.4295 198.092 43.5922 206.929 43.5922 217.83C43.5922 228.732 52.4295 237.569 63.3309 237.569Z" fill="#605D5A"/>
<path d="M63.3307 229.677C69.8731 229.677 75.1767 224.373 75.1767 217.831C75.1767 211.288 69.8731 205.985 63.3307 205.985C56.7883 205.985 51.4846 211.288 51.4846 217.831C51.4846 224.373 56.7883 229.677 63.3307 229.677Z" fill="white"/>
<path d="M212.207 223.342L205.037 225.181C203.616 225.547 202.172 224.692 201.81 223.271L187.755 168.607C187.389 167.187 188.244 165.742 189.665 165.381L196.835 163.542C198.256 163.176 199.701 164.031 200.062 165.452L214.117 220.116C214.483 221.537 213.628 222.981 212.207 223.342Z" fill="#E86E58"/>
<path d="M57.1537 220.53L57.1347 215.032C57.1299 213.592 58.2941 212.418 59.7339 212.414L159.539 211.991C160.242 211.986 160.917 211.701 161.407 211.192L194.697 176.719C195.7 175.683 197.349 175.654 198.385 176.652L202.343 180.472C203.379 181.475 203.407 183.124 202.409 184.16L165.973 221.889C165.484 222.397 164.809 222.682 164.106 222.687L59.7719 223.124C58.3321 223.133 57.1584 221.969 57.1537 220.53Z" fill="#E86E58"/>
<path d="M63.3925 221.014C65.1508 221.014 66.5762 219.589 66.5762 217.831C66.5762 216.072 65.1508 214.647 63.3925 214.647C61.6342 214.647 60.2089 216.072 60.2089 217.831C60.2089 219.589 61.6342 221.014 63.3925 221.014Z" fill="white"/>
<path d="M207.27 220.981C209.028 220.981 210.454 219.556 210.454 217.797C210.454 216.039 209.028 214.614 207.27 214.614C205.512 214.614 204.087 216.039 204.087 217.797C204.087 219.556 205.512 220.981 207.27 220.981Z" fill="white"/>
<path d="M161.326 101.579C165.184 86.944 162.756 75.25 162.756 75.25L166.201 75.2595L166.286 75.193C161.43 48.3077 137.947 27.8752 109.646 27.7897C77.7617 27.6947 51.841 53.468 51.7507 85.3522C51.6604 117.236 77.4291 143.157 109.313 143.247C134.469 143.319 155.913 127.286 163.887 104.858C164.115 103.908 164.101 102.197 161.326 101.579Z" fill="url(#paint5_radial)"/>
<path d="M161.326 101.58C165.137 87.1248 162.818 75.5448 162.761 75.2597L136.132 75.0839C136.132 75.0839 132.359 74.6895 132.35 78.1345C132.34 81.5795 132.454 91.3205 132.421 102.093C132.416 104.307 134.227 105.381 135.652 105.386C135.647 105.39 160.565 103.67 161.326 101.58Z" fill="url(#paint6_radial)"/>
<path d="M161.649 101.66C161.544 101.632 161.435 101.603 161.321 101.58C162.191 98.2818 162.737 95.1409 163.07 92.2424C161.986 91.943 160.893 92.2614 159.701 93.1547C157.9 94.4994 148.667 101.76 148.667 101.76L161.616 101.798C161.625 101.751 161.639 101.708 161.649 101.66Z" fill="#A08BE8"/>
<path d="M163.649 105.523C163.649 105.523 165.26 102.454 161.321 101.579C161.326 101.565 135.7 101.361 135.7 101.361C134.331 101.356 132.568 100.534 132.421 99.2036C132.421 100.154 132.421 101.119 132.416 102.093C132.412 104.103 133.899 105.167 135.244 105.352C135.377 105.367 135.514 105.386 135.647 105.386L139.672 105.395L163.649 105.523Z" fill="#512BD4"/>
<path d="M159.168 114.899L59.6198 114.609C61.8436 118.41 64.4903 121.931 67.4934 125.12L151.233 125.362C154.255 122.197 156.926 118.691 159.168 114.899Z" fill="#D8CFF7"/>
<path d="M148.615 127.947C153.58 123.366 157.733 117.921 160.851 111.853L148.662 111.819L148.615 127.947Z" fill="#512BD4"/>
<path d="M113.471 25.585L102.314 25.4805L103.996 14.0431L112.008 14.1191L113.471 25.585Z" fill="#8A6FE8"/>
<path d="M117.672 32.6271C118.175 32.6318 118.579 32.1994 118.532 31.7005C117.99 26.3975 113.542 22.2398 108.087 22.1875C102.632 22.1352 98.1087 26.2122 97.4673 31.5009C97.4055 31.9998 97.8046 32.4417 98.3083 32.4465L117.672 32.6271Z" fill="url(#paint7_radial)"/>
<path d="M153.775 88.9381C153.883 84.7457 151.949 81.2954 149.457 81.2316C146.964 81.1677 144.857 84.5146 144.75 88.707C144.642 92.8994 146.576 96.3497 149.068 96.4135C151.56 96.4774 153.668 93.1305 153.775 88.9381Z" fill="#512BD4"/>
<path d="M149.247 84.8107C147.579 86.4405 147.551 89.1157 149.185 90.7836C150.302 91.924 151.908 92.2994 153.348 91.8955C153.6 90.9927 153.752 89.9948 153.78 88.9447C153.832 86.8872 153.39 85.015 152.64 83.6275C151.433 83.5087 150.183 83.8983 149.247 84.8107Z" fill="#8065E0"/>
<path d="M107.655 16.4237C112.103 16.4237 115.709 12.8177 115.709 8.36949C115.709 3.92129 112.103 0.315308 107.655 0.315308C103.207 0.315308 99.6008 3.92129 99.6008 8.36949C99.6008 12.8177 103.207 16.4237 107.655 16.4237Z" fill="#D8CFF7"/>
<path d="M163.131 138.771L163.245 127.97C151.276 127.381 140.58 126.445 132.331 122.268C115.89 113.948 113.775 91.8859 113.552 85.7656L100.546 85.9985C103.502 103.067 106.652 139.185 163.131 138.771Z" fill="url(#paint8_linear)"/>
<path d="M106.923 99.484C112.778 99.484 117.524 94.7377 117.524 88.8828C117.524 83.028 112.778 78.2817 106.923 78.2817C101.068 78.2817 96.322 83.028 96.322 88.8828C96.322 94.7377 101.068 99.484 106.923 99.484Z" fill="url(#paint9_radial)"/>
<path d="M72.8391 162.834L69.3798 170.413L25.6449 158.938L37.9091 131.953C38.4366 130.793 39.653 130.617 40.6224 131.558L72.8391 162.834Z" fill="#522CD5"/>
<path d="M31.7937 173.82C30.3587 174.533 28.7716 173.307 27.4459 172.019L23.3784 168.07C22.6514 167.367 22.3805 166.075 22.7797 165.205L27.1275 155.668C27.5789 154.685 28.61 154.533 29.4368 155.336L33.7514 159.204C35.2815 160.691 36.3648 161.38 38.2941 160.453C49.6887 154.994 61.0026 156.676 71.6132 165.524L68.4485 172.461C62.8225 168.341 50.6818 164.44 31.7937 173.82Z" fill="url(#paint10_linear)"/>
<path d="M22.7796 165.21C22.3852 166.08 22.6513 167.367 23.3783 168.075L27.4458 172.019C28.3154 172.865 29.299 173.673 30.2779 173.934L36.2555 160.824C35.4002 160.667 34.6542 160.083 33.7514 159.209L29.4368 155.341C28.61 154.538 27.5789 154.69 27.1275 155.673L22.7796 165.21Z" fill="url(#paint11_radial)"/>
<path d="M192.44 137.783H165.521C163.949 137.783 162.67 136.505 162.67 134.932C162.67 133.359 163.949 132.081 165.521 132.081H192.44C194.013 132.081 195.291 133.359 195.291 134.932C195.291 136.505 194.013 137.783 192.44 137.783Z" fill="#B3AFAB"/>
<path d="M163.858 130.018L170.383 122.021C172.103 119.878 171.632 116.828 169.323 115.203C167.014 113.577 163.749 113.996 162.029 116.139L155.339 124.335L163.858 130.018Z" fill="#8A6FE8"/>
<path d="M154.474 142.093L164.3 146.578C166.928 147.757 169.922 146.711 170.991 144.245C172.06 141.779 170.801 138.824 168.173 137.645L158.099 133.045L154.474 142.093Z" fill="#8A6FE8"/>
<path d="M164.495 135.602L174.388 131.278C177.016 130.109 178.228 127.182 177.097 124.744C175.961 122.306 172.915 121.275 170.283 122.444L160.138 126.878L164.495 135.602Z" fill="#8A6FE8"/>
<path d="M151.152 126.174C155.676 122.492 162.571 122.953 166.553 127.205C170.535 131.458 170.093 137.892 165.569 141.579C161.045 145.267 154.151 144.801 150.169 140.548C146.187 136.291 146.629 129.857 151.152 126.174Z" fill="url(#paint12_radial)"/>
<defs>
<linearGradient id="paint0_linear" x1="114.446" y1="126.521" x2="122.26" y2="166.844" gradientUnits="userSpaceOnUse">
<stop stop-color="#522CD5"/>
<stop offset="0.4397" stop-color="#8A6FE8"/>
</linearGradient>
<linearGradient id="paint1_linear" x1="114.446" y1="126.521" x2="122.26" y2="166.844" gradientUnits="userSpaceOnUse">
<stop stop-color="#522CD5"/>
<stop offset="0.4397" stop-color="#8A6FE8"/>
</linearGradient>
<linearGradient id="paint2_linear" x1="115.994" y1="165.164" x2="136.814" y2="208.653" gradientUnits="userSpaceOnUse">
<stop stop-color="#522CD5"/>
<stop offset="0.4397" stop-color="#8A6FE8"/>
</linearGradient>
<radialGradient id="paint3_radial" cx="0" cy="0" r="1" gradientUnits="userSpaceOnUse" gradientTransform="translate(127.751 201.034) scale(9.29867)">
<stop offset="0.034" stop-color="#522CD5"/>
<stop offset="1" stop-color="#8A6FE8"/>
</radialGradient>
<linearGradient id="paint4_linear" x1="85.3333" y1="133.049" x2="85.3333" y2="176.84" gradientUnits="userSpaceOnUse">
<stop stop-color="#522CD5"/>
<stop offset="0.4397" stop-color="#8A6FE8"/>
</linearGradient>
<radialGradient id="paint5_radial" cx="0" cy="0" r="1" gradientUnits="userSpaceOnUse" gradientTransform="translate(98.6984 56.9118) rotate(-10.1952) scale(48.5972)">
<stop offset="0.4744" stop-color="#A08BE8"/>
<stop offset="0.8618" stop-color="#8065E0"/>
</radialGradient>
<radialGradient id="paint6_radial" cx="0" cy="0" r="1" gradientUnits="userSpaceOnUse" gradientTransform="translate(147.529 84.9136) rotate(-10.1952) scale(37.9393)">
<stop offset="0.2022" stop-color="#E1DFDD"/>
<stop offset="0.7337" stop-color="white"/>
</radialGradient>
<radialGradient id="paint7_radial" cx="0" cy="0" r="1" gradientUnits="userSpaceOnUse" gradientTransform="translate(107.396 28.3241) rotate(-10.1952) scale(8.5095)">
<stop stop-color="#8065E0"/>
<stop offset="0.8628" stop-color="#512BD4"/>
</radialGradient>
<linearGradient id="paint8_linear" x1="100.549" y1="112.272" x2="163.245" y2="112.272" gradientUnits="userSpaceOnUse">
<stop offset="0.2495" stop-color="#967FE6"/>
<stop offset="1" stop-color="#8A6FE8"/>
</linearGradient>
<radialGradient id="paint9_radial" cx="0" cy="0" r="1" gradientUnits="userSpaceOnUse" gradientTransform="translate(107.397 84.4531) scale(15.7437)">
<stop stop-color="#8065E0"/>
<stop offset="0.8628" stop-color="#512BD4"/>
</radialGradient>
<linearGradient id="paint10_linear" x1="71.7331" y1="171.959" x2="22.724" y2="172.869" gradientUnits="userSpaceOnUse">
<stop stop-color="#522CD5"/>
<stop offset="0.4397" stop-color="#8A6FE8"/>
</linearGradient>
<radialGradient id="paint11_radial" cx="0" cy="0" r="1" gradientUnits="userSpaceOnUse" gradientTransform="translate(40.3839 173.318) rotate(114.52) scale(16.98 16.9801)">
<stop offset="0.034" stop-color="#522CD5"/>
<stop offset="0.9955" stop-color="#8A6FE8"/>
</radialGradient>
<radialGradient id="paint12_radial" cx="0" cy="0" r="1" gradientUnits="userSpaceOnUse" gradientTransform="translate(158.219 127.802) rotate(-176.857) scale(18.4018 17.1733)">
<stop stop-color="#8065E0"/>
<stop offset="0.8628" stop-color="#512BD4"/>
</radialGradient>
</defs>
</svg>
