<svg width="271" height="202" viewBox="0 0 271 202" fill="none" xmlns="http://www.w3.org/2000/svg">
<path d="M129.755 83.2383C129.645 83.3983 118.495 99.5483 102.575 101.178C100.955 101.348 99.3353 101.348 97.7153 101.198V110.788C99.6553 110.918 101.595 110.888 103.545 110.688C123.845 108.608 137.105 89.4283 137.655 88.6083L129.755 83.2383Z" fill="#8A6FE8"/>
<path d="M174.535 95.7686L141.215 75.8086L144.815 69.8086L171.865 86.0086L188.965 54.5486L195.115 57.8986L174.535 95.7686Z" fill="#C7E0F4"/>
<path d="M193.035 66.0684C198.475 66.0684 202.885 61.6584 202.885 56.2184C202.885 50.7784 198.475 46.3684 193.035 46.3684C187.595 46.3684 183.185 50.7784 183.185 56.2184C183.185 61.6584 187.595 66.0684 193.035 66.0684Z" fill="url(#paint0_radial)"/>
<path d="M172.425 84.1385C172.555 84.8285 173.075 85.3785 173.725 85.4485C174.915 85.5785 178.055 85.1085 179.405 84.8985L186.175 89.3185C186.855 89.7585 187.705 89.5185 188.075 88.7785C188.445 88.0285 188.195 87.0685 187.515 86.6285L180.305 81.9285C180.015 81.7385 179.685 81.6685 179.375 81.7185C177.555 82.0285 174.645 82.4185 173.885 82.3385C173.115 82.2585 172.445 82.8885 172.405 83.7485C172.385 83.8785 172.395 84.0085 172.425 84.1385Z" fill="#106EBE"/>
<path d="M241.655 125.749H231.855V184.059H238.515L241.655 125.749Z" fill="url(#paint1_linear)"/>
<path d="M225.925 125.749H216.125L219.275 184.059H225.925V125.749Z" fill="url(#paint2_linear)"/>
<path d="M229.285 139.778C243.915 139.778 255.775 127.918 255.775 113.288C255.775 98.6583 243.915 86.7983 229.285 86.7983C214.655 86.7983 202.795 98.6583 202.795 113.288C202.795 127.918 214.655 139.778 229.285 139.778Z" fill="#106EBE"/>
<path d="M229.285 71.0083C243.915 71.0083 255.775 59.1483 255.775 44.5183C255.775 29.8883 243.915 18.0283 229.285 18.0283C214.655 18.0283 202.795 29.8883 202.795 44.5183C202.795 59.1483 214.655 71.0083 229.285 71.0083Z" fill="url(#paint3_linear)"/>
<path d="M199.465 122.928L187.495 54.1684C187.175 51.3384 189.385 48.8584 192.235 48.8584H265.525C268.375 48.8584 270.585 51.3384 270.265 54.1684L258.475 122.928C258.205 125.338 256.165 127.158 253.735 127.158H204.205C201.775 127.168 199.735 125.348 199.465 122.928Z" fill="url(#paint4_radial)"/>
<path d="M221.865 29.5684H251.145C253.265 32.6684 254.745 36.2484 255.395 40.0984H221.865C219.725 40.0984 217.995 38.3684 217.995 36.2284V33.4384C217.995 31.2984 219.725 29.5684 221.865 29.5684Z" fill="#106EBE"/>
<path d="M225.855 38.7983C228.064 38.7983 229.855 37.0075 229.855 34.7983C229.855 32.5892 228.064 30.7983 225.855 30.7983C223.646 30.7983 221.855 32.5892 221.855 34.7983C221.855 37.0075 223.646 38.7983 225.855 38.7983Z" fill="white"/>
<path d="M211.815 38.7983C214.024 38.7983 215.815 37.0075 215.815 34.7983C215.815 32.5892 214.024 30.7983 211.815 30.7983C209.606 30.7983 207.815 32.5892 207.815 34.7983C207.815 37.0075 209.606 38.7983 211.815 38.7983Z" fill="white"/>
<path d="M223.905 201.608H207.905C206.655 201.608 205.705 200.478 205.935 199.248C207.645 190.208 214.565 183.028 223.455 180.908C224.705 180.608 225.895 181.578 225.895 182.858V199.608C225.905 200.718 225.005 201.608 223.905 201.608Z" fill="url(#paint5_linear)"/>
<path d="M236.405 180.918C227.515 183.028 220.595 190.218 218.885 199.258C218.655 200.488 219.605 201.618 220.855 201.618H236.855C237.955 201.618 238.855 200.728 238.855 199.618V182.868C238.845 181.588 237.655 180.618 236.405 180.918Z" fill="#2B88D8"/>
<path d="M128.975 93.2784L135.375 100.168C137.095 101.988 139.965 102.078 141.795 100.358C143.615 98.6384 143.705 95.7684 141.985 93.9384L135.415 86.8784L128.975 93.2784Z" fill="#8A6FE8"/>
<path d="M134.415 97.4482C139.662 97.4482 143.915 93.1949 143.915 87.9482C143.915 82.7015 139.662 78.4482 134.415 78.4482C129.169 78.4482 124.915 82.7015 124.915 87.9482C124.915 93.1949 129.169 97.4482 134.415 97.4482Z" fill="url(#paint6_radial)"/>
<path d="M175.315 97.9183H133.035C131.395 97.9183 130.075 96.5983 130.065 94.9583V68.7583C130.065 67.1183 131.395 65.7983 133.025 65.7983H175.305C176.945 65.7983 178.265 67.1283 178.265 68.7583V94.9483C178.265 96.5883 176.935 97.9083 175.305 97.9083" fill="#505050"/>
<path d="M143.015 90.4483L140.875 88.2983L147.545 81.6283L140.875 74.9584L143.015 72.8083L151.835 81.6283L143.015 90.4483Z" fill="#B3AFAB"/>
<path d="M167.475 87.8584H155.425V90.8884H167.475V87.8584Z" fill="#B3AFAB"/>
<path d="M175.695 63.7383H132.655C131.225 63.7383 130.075 64.8983 130.075 66.3183V69.8783H178.285V66.3183C178.285 64.8983 177.125 63.7383 175.695 63.7383Z" fill="#F7B548"/>
<path d="M125.635 88.3785C127.515 89.9085 130.285 89.6385 131.825 87.7585L135.215 83.6185C136.775 81.6585 136.455 78.7985 134.495 77.2385C132.535 75.6785 129.675 75.9985 128.115 77.9585L124.955 81.8685C123.355 83.8585 123.655 86.7685 125.635 88.3785Z" fill="#8A6FE8"/>
<path d="M198.225 98.9283L227.325 101.238C228.675 101.148 229.865 100.328 230.425 99.0983L248.905 57.9083C249.745 56.0583 248.925 53.8883 247.085 53.0483C245.235 52.2083 243.065 53.0283 242.225 54.8683L225.435 94.2383L197.885 92.3183C195.865 92.4583 196.695 99.0283 198.225 98.9283Z" fill="#C7E0F4"/>
<path d="M166.635 97.2484C166.755 97.8884 167.225 98.4284 167.835 98.5384L175.235 99.9384C175.335 99.9584 175.445 99.9684 175.545 99.9584L185.685 99.3584C186.455 99.3084 187.025 98.5784 186.945 97.7084C186.875 96.8584 186.185 96.1784 185.415 96.2284L175.435 96.8184L168.195 95.4484C167.425 95.3084 166.725 95.8784 166.625 96.7284C166.595 96.9084 166.605 97.0784 166.635 97.2484Z" fill="#106EBE"/>
<path d="M167.815 91.4584C167.925 92.0384 168.305 92.5384 168.855 92.7084L177.215 95.4084C177.305 95.4384 177.395 95.4584 177.495 95.4684L186.375 96.2884C187.145 96.3584 187.805 95.7184 187.835 94.8584C187.865 93.9984 187.265 93.2384 186.495 93.1684L177.755 92.3584L169.525 89.6984C168.775 89.4584 168.015 89.9284 167.825 90.7584C167.775 90.9984 167.775 91.2284 167.815 91.4584Z" fill="#106EBE"/>
<path d="M200.975 93.7585L200.205 98.6785C200.075 99.4785 199.405 99.9985 198.685 99.8485L194.915 99.0985C194.785 99.0685 194.665 99.0685 194.535 99.0785L185.145 100.149C184.245 100.249 183.465 99.3485 183.605 98.3385L185.295 86.2385C185.435 85.2185 186.445 84.6985 187.275 85.2185L196.055 90.7785C196.165 90.8485 196.285 90.8985 196.405 90.9385L199.935 91.9585C200.635 92.1685 201.105 92.9585 200.975 93.7585Z" fill="#106EBE"/>
<path d="M244.795 66.0684C250.235 66.0684 254.645 61.6584 254.645 56.2184C254.645 50.7784 250.235 46.3684 244.795 46.3684C239.355 46.3684 234.945 50.7784 234.945 56.2184C234.945 61.6584 239.355 66.0684 244.795 66.0684Z" fill="url(#paint7_radial)"/>
<path d="M27.3853 128.109L11.6853 129.039C9.45528 129.169 7.74528 131.089 7.88528 133.319L7.95528 134.559C8.08528 136.789 10.0053 138.499 12.2353 138.359L27.9353 137.429C30.1653 137.299 31.8753 135.379 31.7353 133.149L31.6653 131.909C31.5353 129.679 29.6153 127.979 27.3853 128.109Z" fill="#8A6FE8"/>
<path d="M88.0452 153.709C88.1352 145.419 86.9552 128.599 78.4052 114.509L70.0452 119.589C77.8052 132.369 78.3852 147.279 78.2052 153.779C78.1852 154.319 83.2052 154.809 88.0452 153.709Z" fill="url(#paint8_linear)"/>
<path d="M78.2053 153.688L85.9553 153.648L93.1853 195.068L77.6353 195.138C76.4553 195.148 75.5553 194.188 75.6353 193.008L78.2053 153.688Z" fill="#522CD5"/>
<path d="M109.755 184.179C111.095 185.239 111.075 186.769 110.965 188.389L110.645 193.349C110.585 194.239 109.815 194.969 108.925 194.969L92.7253 195.039C91.7153 195.039 90.9553 194.229 91.0253 193.219L91.1353 188.079C91.2553 186.209 90.6353 185.519 89.1853 183.759C86.7053 180.749 79.3753 164.349 80.0753 153.659L88.0553 153.619C88.5753 159.989 96.9453 174.079 109.755 184.179Z" fill="url(#paint9_linear)"/>
<path d="M110.975 188.399C111.045 187.269 111.075 186.179 110.625 185.269L90.4152 185.359C90.9752 186.179 91.2052 186.899 91.1352 188.099L91.0252 193.239C90.9552 194.249 91.7252 195.059 92.7252 195.059L108.925 194.989C109.815 194.989 110.585 194.259 110.645 193.369L110.975 188.399Z" fill="url(#paint10_radial)"/>
<path d="M45.3253 153.888C45.1553 145.598 46.1853 128.768 54.6153 114.608L63.0253 119.608C55.3853 132.458 54.9353 147.368 55.1753 153.868C55.1853 154.418 50.1753 154.948 45.3253 153.888Z" fill="url(#paint11_linear)"/>
<path d="M36.8552 187.288C36.8452 186.178 37.0052 185.208 37.4752 183.598C44.7052 163.828 45.3252 153.858 45.3252 153.858L55.1852 153.818C55.1852 153.818 55.8652 163.598 63.2752 183.308C63.8652 184.708 63.9252 185.998 64.0052 187.178L64.0452 193.498C64.0452 194.448 63.2752 195.238 62.3152 195.238H61.8352L39.0852 195.338H38.6052C37.6452 195.338 36.8652 194.568 36.8652 193.608L36.8552 187.288Z" fill="url(#paint12_linear)"/>
<path d="M36.8553 187.288C36.8553 187.108 36.8553 186.938 36.8653 186.758C36.9153 186.208 37.1653 185.588 38.3753 185.578L62.7053 185.468C63.5853 185.498 63.8753 186.168 63.9653 186.598C63.9753 186.788 63.9953 186.978 64.0053 187.158L64.0453 193.478C64.0453 194.078 63.7453 194.608 63.2853 194.918C63.0053 195.108 62.6753 195.218 62.3153 195.218H61.8353L39.0853 195.318H38.6053C38.1253 195.318 37.6953 195.128 37.3753 194.818C37.0553 194.508 36.8653 194.078 36.8653 193.598L36.8553 187.288Z" fill="url(#paint13_radial)"/>
<path d="M112.885 93.8784C116.305 80.4884 114.015 69.8284 114.015 69.8284L117.165 69.8184L117.245 69.7584C112.625 45.2484 91.0552 26.7584 65.2152 26.8684C36.1052 27.0084 12.6152 50.7084 12.7452 79.8184C12.8752 108.928 36.5852 132.408 65.6852 132.278C88.6552 132.178 108.115 117.388 115.245 96.8584C115.455 95.9884 115.425 94.4284 112.885 93.8784Z" fill="url(#paint14_radial)"/>
<path d="M111.125 106.059L20.1253 106.469C22.1853 109.929 24.6253 113.119 27.3853 116.009L103.955 115.659C106.695 112.749 109.105 109.529 111.125 106.059Z" fill="#D8CFF7"/>
<path d="M83.1315 118.624L100.211 118.547L100.143 103.437L83.0627 103.514L83.1315 118.624Z" fill="#512BD4"/>
<path d="M86.0852 112.978C85.9752 112.978 85.8752 112.938 85.7952 112.868C85.7152 112.788 85.6752 112.698 85.6752 112.588C85.6752 112.478 85.7152 112.388 85.7952 112.308C85.8752 112.228 85.9752 112.188 86.0852 112.188C86.2052 112.188 86.2952 112.228 86.3752 112.308C86.4552 112.388 86.4952 112.478 86.4952 112.588C86.4952 112.698 86.4552 112.788 86.3752 112.868C86.2952 112.938 86.1952 112.978 86.0852 112.978Z" fill="white"/>
<path d="M90.6252 112.908H89.8852L87.9352 109.838C87.8852 109.758 87.8452 109.678 87.8152 109.598H87.7952C87.8152 109.688 87.8152 109.878 87.8152 110.168L87.8252 112.908H87.1752L87.1652 108.728H87.9552L89.8452 111.718C89.9252 111.838 89.9752 111.928 89.9952 111.978H90.0052C89.9852 111.868 89.9752 111.678 89.9752 111.418L89.9652 108.728H90.6152L90.6252 112.908Z" fill="white"/>
<path d="M93.8053 112.898H91.5153L91.5053 108.718H93.7053V109.308H92.1853V110.488H93.5853V111.078H92.1853V112.308H93.7953L93.8053 112.898Z" fill="white"/>
<path d="M97.0453 109.308H95.8753L95.8853 112.898H95.2053L95.1953 109.308H94.0253V108.718L97.0353 108.708L97.0453 109.308Z" fill="white"/>
<path d="M113.005 93.8784C116.385 80.6584 114.185 70.0984 114.135 69.8384L59.4553 70.0884C59.4553 70.0884 56.0053 69.7584 56.0253 72.8984C56.0353 76.0484 56.2053 84.9384 56.2553 94.7684C56.2653 96.7884 57.9253 97.7584 59.2253 97.7484C59.2253 97.7584 111.635 96.0684 113.005 93.8784Z" fill="url(#paint15_radial)"/>
<path d="M80.3853 94.0585C80.3853 94.0585 88.7653 87.3685 90.3953 86.1285C92.0353 84.8885 93.4653 84.8185 94.9753 86.1085C96.4853 87.3985 104.935 93.9485 104.935 93.9485L80.3853 94.0585Z" fill="#A08BE8"/>
<path d="M115.035 97.5284C115.035 97.5284 116.595 94.6484 112.995 93.8784C112.995 93.8684 59.2353 94.0784 59.2353 94.0784C57.9853 94.0884 56.3753 93.3484 56.2253 92.1384C56.2353 93.0084 56.2353 93.8884 56.2353 94.7784C56.2453 96.6084 57.6153 97.5784 58.8353 97.7384C58.9553 97.7484 59.0853 97.7684 59.2053 97.7684L62.8853 97.7484L115.035 97.5284Z" fill="#512BD4"/>
<path d="M72.4521 88.9942C74.7271 88.9498 76.5108 85.8118 76.4362 81.9852C76.3615 78.1587 74.4568 75.0926 72.1819 75.1369C69.9069 75.1813 68.1232 78.3193 68.1978 82.1459C68.2725 85.9725 70.1772 89.0385 72.4521 88.9942Z" fill="#512BD4"/>
<path d="M109.639 81.9376C109.679 78.1107 107.866 74.9891 105.591 74.9655C103.316 74.9418 101.439 78.025 101.4 81.8519C101.36 85.6789 103.172 88.8004 105.447 88.8241C107.722 88.8478 109.599 85.7646 109.639 81.9376Z" fill="#512BD4"/>
<path d="M72.2653 78.5983C73.1053 77.7483 74.2353 77.3783 75.3353 77.4683C75.9853 78.6683 76.4053 80.2483 76.4353 81.9883C76.4553 83.0683 76.3253 84.0983 76.0753 85.0083C74.7753 85.3883 73.3153 85.0683 72.2853 84.0483C70.7853 82.5483 70.7653 80.1083 72.2653 78.5983Z" fill="#8065E0"/>
<path d="M105.445 78.2184C106.285 77.3684 107.415 76.9984 108.525 77.0884C109.235 78.3484 109.665 80.0484 109.645 81.9284C109.635 82.8884 109.505 83.7984 109.295 84.6284C107.985 85.0184 106.515 84.6984 105.485 83.6684C103.955 82.1684 103.945 79.7284 105.445 78.2184Z" fill="#8065E0"/>
<path d="M6.29528 140.689C5.86528 139.899 -4.08472 121.129 2.88528 104.129C6.90528 94.3086 15.5553 87.3086 28.5753 83.3086L31.4453 92.6686C21.3853 95.7586 14.8253 100.849 11.9653 107.799C6.73528 120.479 14.8353 135.899 14.9153 136.049L6.29528 140.689Z" fill="url(#paint16_linear)"/>
<path d="M31.0253 96.2885C36.3714 96.2885 40.7053 91.9546 40.7053 86.6085C40.7053 81.2624 36.3714 76.9285 31.0253 76.9285C25.6792 76.9285 21.3453 81.2624 21.3453 86.6085C21.3453 91.9546 25.6792 96.2885 31.0253 96.2885Z" fill="url(#paint17_radial)"/>
<path d="M60.1353 23.9183L69.9753 23.8383L68.2753 6.0083L61.2153 6.0483L60.1353 23.9183Z" fill="#8A6FE8"/>
<path d="M66.5452 13.0584C62.9652 14.0084 59.2652 11.9084 58.2852 8.36842C57.3052 4.81842 59.4052 1.17842 62.9852 0.228417C66.5652 -0.721583 70.2652 1.37842 71.2452 4.91842C72.2252 8.45842 70.1252 12.0984 66.5452 13.0584Z" fill="#D8CFF7"/>
<path d="M56.4453 30.0586C56.0053 30.0586 55.6353 29.6886 55.6853 29.2486C56.1453 24.6286 60.0553 20.9986 64.8653 20.9586C69.6753 20.9186 73.6853 24.4786 74.2653 29.0986C74.3153 29.5386 73.9653 29.9186 73.5253 29.9186L56.4453 30.0586Z" fill="#522CD5"/>
<path d="M34.0253 182.008C48.1969 182.008 59.6853 170.686 59.6853 156.718C59.6853 142.751 48.1969 131.428 34.0253 131.428C19.8537 131.428 8.3653 142.751 8.3653 156.718C8.3653 170.686 19.8537 182.008 34.0253 182.008Z" fill="#F7B548"/>
<path d="M35.4052 131.458C35.3252 131.458 35.2552 131.448 35.1752 131.448C35.0052 131.438 34.8352 131.438 34.6652 131.438V157.458H59.6552C59.6652 157.208 59.6752 156.968 59.6752 156.718C59.6852 143.198 48.9352 132.168 35.4052 131.458Z" fill="#FCCF84"/>
<path d="M59.6852 156.718C59.6852 156.128 59.6552 155.548 59.6152 154.968C59.6052 154.838 59.5952 154.708 59.5852 154.578C59.4852 153.388 59.3052 152.228 59.0352 151.088C59.0252 151.028 59.0052 150.958 58.9952 150.898C58.8552 150.318 58.6952 149.738 58.5152 149.178L34.6652 157.368V157.388L58.7252 163.518C59.3552 161.348 59.6852 159.068 59.6852 156.718Z" fill="#FFE5B9"/>
<path d="M4.12531 144.958L7.28531 154.168C8.14531 156.618 10.8253 157.908 13.2753 157.048C15.7253 156.188 17.0153 153.508 16.1553 151.058L12.9153 141.618L4.12531 144.958Z" fill="#8A6FE8"/>
<path d="M8.98529 146.979L18.2053 156.739C19.9953 158.619 22.9653 158.689 24.8453 156.899C26.7253 155.109 26.7953 152.139 25.0053 150.259L18.1653 142.979L8.98529 146.979Z" fill="#8A6FE8"/>
<path d="M12.0452 142.118L23.2552 149.538C25.4152 150.978 28.3352 150.388 29.7652 148.228C31.2052 146.068 30.6152 143.148 28.4552 141.718L17.0452 134.168L12.0452 142.118Z" fill="#8A6FE8"/>
<path d="M11.5853 148.918C17.0143 148.918 21.4153 144.517 21.4153 139.088C21.4153 133.659 17.0143 129.258 11.5853 129.258C6.15635 129.258 1.75531 133.659 1.75531 139.088C1.75531 144.517 6.15635 148.918 11.5853 148.918Z" fill="url(#paint18_radial)"/>
<defs>
<radialGradient id="paint0_radial" cx="0" cy="0" r="1" gradientUnits="userSpaceOnUse" gradientTransform="translate(188.53 53.2455) rotate(6.12507) scale(12.4133)">
<stop offset="0.2011" stop-color="#3E8EED"/>
<stop offset="1" stop-color="#106EBE"/>
</radialGradient>
<linearGradient id="paint1_linear" x1="236.756" y1="184.055" x2="236.756" y2="125.746" gradientUnits="userSpaceOnUse">
<stop offset="0.6283" stop-color="#72ACF1"/>
<stop offset="0.6693" stop-color="#69A7F0"/>
<stop offset="0.8306" stop-color="#4A95EE"/>
<stop offset="0.9205" stop-color="#3E8EED"/>
</linearGradient>
<linearGradient id="paint2_linear" x1="221.027" y1="184.055" x2="221.027" y2="125.746" gradientUnits="userSpaceOnUse">
<stop offset="0.6283" stop-color="#72ACF1"/>
<stop offset="0.6693" stop-color="#69A7F0"/>
<stop offset="0.8306" stop-color="#4A95EE"/>
<stop offset="0.9205" stop-color="#3E8EED"/>
</linearGradient>
<linearGradient id="paint3_linear" x1="252.36" y1="53.6121" x2="203.066" y2="34.177" gradientUnits="userSpaceOnUse">
<stop offset="0.6886" stop-color="#3E8EED"/>
<stop offset="0.7056" stop-color="#4290ED"/>
<stop offset="0.8867" stop-color="#65A4F0"/>
<stop offset="0.9841" stop-color="#72ACF1"/>
</linearGradient>
<radialGradient id="paint4_radial" cx="0" cy="0" r="1" gradientUnits="userSpaceOnUse" gradientTransform="translate(234.526 32.998) scale(88.7759 80.6618)">
<stop offset="0.204" stop-color="#72ACF1"/>
<stop offset="0.2915" stop-color="#69A7F0"/>
<stop offset="0.6359" stop-color="#4A95EE"/>
<stop offset="0.828" stop-color="#3E8EED"/>
</radialGradient>
<linearGradient id="paint5_linear" x1="237.575" y1="200.633" x2="198.248" y2="183.579" gradientUnits="userSpaceOnUse">
<stop offset="0.3365" stop-color="#106EBE"/>
<stop offset="0.4711" stop-color="#1977C7"/>
<stop offset="0.7485" stop-color="#2684D4"/>
<stop offset="1" stop-color="#2B88D8"/>
</linearGradient>
<radialGradient id="paint6_radial" cx="0" cy="0" r="1" gradientUnits="userSpaceOnUse" gradientTransform="translate(132.206 84.2913) rotate(180) scale(10.576)">
<stop stop-color="#8065E0"/>
<stop offset="1" stop-color="#512BD4"/>
</radialGradient>
<radialGradient id="paint7_radial" cx="0" cy="0" r="1" gradientUnits="userSpaceOnUse" gradientTransform="translate(241.899 52.2701) rotate(6.12507) scale(12.4133)">
<stop offset="0.2011" stop-color="#3E8EED"/>
<stop offset="1" stop-color="#106EBE"/>
</radialGradient>
<linearGradient id="paint8_linear" x1="75.4544" y1="115.159" x2="83.7451" y2="154.644" gradientUnits="userSpaceOnUse">
<stop offset="0.252" stop-color="#522CD5"/>
<stop offset="0.5558" stop-color="#8A6FE8"/>
</linearGradient>
<linearGradient id="paint9_linear" x1="81.8729" y1="152.65" x2="106.501" y2="196.559" gradientUnits="userSpaceOnUse">
<stop stop-color="#522CD5"/>
<stop offset="0.4397" stop-color="#8A6FE8"/>
</linearGradient>
<radialGradient id="paint10_radial" cx="0" cy="0" r="1" gradientUnits="userSpaceOnUse" gradientTransform="translate(100.219 177.01) rotate(-0.260742) scale(17.0687)">
<stop offset="0.034" stop-color="#522CD5"/>
<stop offset="0.9955" stop-color="#8A6FE8"/>
</radialGradient>
<linearGradient id="paint11_linear" x1="57.4327" y1="115.168" x2="49.5011" y2="154.725" gradientUnits="userSpaceOnUse">
<stop offset="0.258" stop-color="#522CD5"/>
<stop offset="0.5602" stop-color="#8A6FE8"/>
</linearGradient>
<linearGradient id="paint12_linear" x1="50.2379" y1="153.826" x2="50.4266" y2="195.285" gradientUnits="userSpaceOnUse">
<stop stop-color="#522CD5"/>
<stop offset="0.4397" stop-color="#8A6FE8"/>
</linearGradient>
<radialGradient id="paint13_radial" cx="0" cy="0" r="1" gradientUnits="userSpaceOnUse" gradientTransform="translate(50.9422 177.184) rotate(179.739) scale(18.7129)">
<stop offset="0.034" stop-color="#522CD5"/>
<stop offset="0.9955" stop-color="#8A6FE8"/>
</radialGradient>
<radialGradient id="paint14_radial" cx="0" cy="0" r="1" gradientUnits="userSpaceOnUse" gradientTransform="translate(68.8254 49.518) rotate(179.739) scale(47.8562)">
<stop offset="0.4744" stop-color="#A08BE8"/>
<stop offset="0.8618" stop-color="#8065E0"/>
</radialGradient>
<radialGradient id="paint15_radial" cx="0" cy="0" r="1" gradientUnits="userSpaceOnUse" gradientTransform="translate(112.873 61.2577) rotate(179.739) scale(54.3922)">
<stop offset="0.0933" stop-color="#E1DFDD"/>
<stop offset="0.6573" stop-color="white"/>
</radialGradient>
<linearGradient id="paint16_linear" x1="11.9437" y1="86.5308" x2="21.8558" y2="137.665" gradientUnits="userSpaceOnUse">
<stop offset="0.2495" stop-color="#967FE6"/>
<stop offset="1" stop-color="#8A6FE8"/>
</linearGradient>
<radialGradient id="paint17_radial" cx="0" cy="0" r="1" gradientUnits="userSpaceOnUse" gradientTransform="translate(29.2348 83.3539) rotate(-0.260742) scale(9.6799)">
<stop stop-color="#8065E0"/>
<stop offset="1" stop-color="#512BD4"/>
</radialGradient>
<radialGradient id="paint18_radial" cx="0" cy="0" r="1" gradientUnits="userSpaceOnUse" gradientTransform="translate(10.6313 135.296) rotate(-10.9706) scale(9.83545)">
<stop stop-color="#8065E0"/>
<stop offset="1" stop-color="#512BD4"/>
</radialGradient>
</defs>
</svg>
