<svg width="228" height="227" viewBox="0 0 228 227" fill="none" xmlns="http://www.w3.org/2000/svg">
<path d="M200.432 173.718H199.405V181.682H200.432V173.718Z" fill="#E0BB95"/>
<path d="M3.18262 190.532H153.282C153.282 190.532 136.966 176.473 126.519 176.811C116.071 177.152 108.801 181.559 91.1108 175.187C63.1684 165.118 48.2695 166.428 33.6971 175.596C19.1247 184.763 11.4284 178.99 3.18262 190.532Z" fill="#C7E0F4"/>
<path d="M123.504 180.646H122.625V188.758H123.504V180.646Z" fill="#E0BB95"/>
<path d="M128.887 172.908C128.887 167 123.11 162.676 123.11 162.676L123.106 162.68V162.676C123.106 162.676 117.329 166.996 117.329 172.908C117.329 178.113 123.106 181.992 123.106 181.992L123.11 181.984V181.992C123.11 181.992 128.887 178.109 128.887 172.908Z" fill="#6ECFC3"/>
<path d="M184.904 172.36H183.761V184.676H184.904V172.36Z" fill="#E0BB95"/>
<path d="M210.688 175.909H209.518V185.776H210.688V175.909Z" fill="#E0BB95"/>
<path d="M154.748 175.306H153.681V183.592H154.748V175.306Z" fill="#E0BB95"/>
<path d="M228 190.683H94.6626C94.6626 190.683 106.874 182.703 116.151 182.929C125.432 183.156 126.164 190.227 150.34 182.246C174.516 174.266 187.946 174.492 200.89 180.65C213.834 186.804 220.674 182.929 228 190.683Z" fill="#9FCDB3"/>
<path d="M161.102 160.143C161.102 148.684 154.071 140.303 154.071 140.303L154.067 140.307L154.063 140.303C154.063 140.303 147.031 148.684 147.031 160.143C147.031 170.236 154.063 177.76 154.063 177.76L154.067 177.744V177.76C154.071 177.76 161.102 170.236 161.102 160.143Z" fill="#9FCDB3"/>
<path d="M200.026 174.266C196.359 174.416 197.88 170.053 195.738 163.962C192.771 155.521 197.056 148.069 199.146 146.425C201.236 144.781 202.884 147.41 202.884 150.372C202.884 154.211 205.082 154.425 205.632 159.908C206.181 165.388 203.322 169.116 202.992 170.323C202.666 171.526 202.666 174.154 200.026 174.266Z" fill="#9FCDB3"/>
<path d="M184.219 173.654C181.635 173.853 177.773 165.753 179.266 160.655C180.333 157.006 180.883 155.386 180.106 151.912C178.812 146.135 184.374 141.422 184.374 141.422C184.374 141.422 187.651 144.464 188.416 149.101C189.256 154.207 187.042 156.172 189.331 162.251C191.613 168.334 187.193 173.428 184.219 173.654Z" fill="#C7E0F4"/>
<path d="M217.871 166.499C217.871 159.313 210.171 154.06 210.171 154.06L210.167 154.064L210.163 154.06C210.163 154.06 202.462 159.317 202.462 166.499C202.462 172.828 210.163 177.545 210.163 177.545L210.167 177.537V177.545C210.167 177.545 217.871 172.828 217.871 166.499Z" fill="#6ECFC3"/>
<path d="M79.2695 173.213C79.4487 184.025 89.0242 193.308 89.6653 193.728C90.3023 194.149 68.9255 194.368 68.9255 194.368C68.9255 194.368 65.569 179.419 69.5625 172.832C69.9328 172.221 79.2695 173.213 79.2695 173.213Z" fill="#A08BE8"/>
<path d="M70.104 192.903L88.8013 192.994C88.8013 192.994 92.5837 195.908 93.3283 198.009C93.8976 199.617 93.1332 203.222 92.743 204.83C92.6355 205.278 92.1935 205.628 91.7436 205.628L73.6993 205.592C73.118 205.592 72.7438 205.12 72.8632 204.544C73.2693 202.551 73.7551 198.306 73.2375 197.091C72.469 195.285 70.104 192.903 70.104 192.903Z" fill="#D0C5F3"/>
<path d="M68.6271 171.355C62.8339 183.374 60.5286 202.432 60.4769 203.436C60.4052 204.834 60.4012 205.81 62.396 205.81C64.8725 205.81 75.5191 205.81 75.5191 205.81L76.4946 172.129L68.6271 171.355Z" fill="#8065E0"/>
<path d="M79.2696 173.213C78.9551 179.109 83.2392 187.4 92.7232 196.075C93.8301 197.087 94.2959 198.159 94.0013 199.668L93.0617 204.496C92.9223 205.211 92.2295 205.791 91.5128 205.791H73.572C73.0664 205.791 72.7359 205.382 72.8355 204.877L73.9224 199.303C74.2609 197.568 74.0817 196.675 72.5448 195.396C68.6987 192.196 67.978 181.408 69.3795 173.733C70.781 166.059 79.2696 173.213 79.2696 173.213Z" fill="#A08BE8"/>
<path d="M94.0652 198.477C94.101 198.842 94.0851 199.235 94.0015 199.664L93.0618 204.492C92.9225 205.207 92.2297 205.787 91.513 205.787H73.5682C73.0626 205.787 72.7321 205.378 72.8317 204.873L73.9186 199.299C73.9783 199.001 74.0182 198.731 74.0421 198.477H94.0652Z" fill="#D0C5F3"/>
<path d="M182.865 226.433C192 226.433 199.405 219.049 199.405 209.94C199.405 200.831 192 193.447 182.865 193.447C173.731 193.447 166.326 200.831 166.326 209.94C166.326 219.049 173.731 226.433 182.865 226.433Z" fill="#605D5A"/>
<path d="M182.865 219.838C188.347 219.838 192.791 215.407 192.791 209.94C192.791 204.473 188.347 200.042 182.865 200.042C177.383 200.042 172.939 204.473 172.939 209.94C172.939 215.407 177.383 219.838 182.865 219.838Z" fill="white"/>
<path d="M37.6868 226.433C46.8211 226.433 54.226 219.049 54.226 209.94C54.226 200.831 46.8211 193.447 37.6868 193.447C28.5524 193.447 21.1475 200.831 21.1475 209.94C21.1475 219.049 28.5524 226.433 37.6868 226.433Z" fill="#605D5A"/>
<path d="M37.6867 219.838C43.1687 219.838 47.6127 215.407 47.6127 209.94C47.6127 204.473 43.1687 200.042 37.6867 200.042C32.2047 200.042 27.7607 204.473 27.7607 209.94C27.7607 215.407 32.2047 219.838 37.6867 219.838Z" fill="white"/>
<path d="M181.575 195.384L176.722 196.627L151.758 99.1055C151.419 97.7834 152.22 96.4334 153.545 96.096L153.589 96.084C154.919 95.7426 156.273 96.5446 156.611 97.8707L181.575 195.384Z" fill="#605D5A"/>
<path d="M187.117 214.546L181.109 216.082C179.919 216.388 178.708 215.673 178.406 214.486L165.386 163.851C165.08 162.664 165.796 161.457 166.987 161.155L172.995 159.619C174.185 159.313 175.396 160.028 175.698 161.215L188.718 211.85C189.021 213.033 188.304 214.24 187.117 214.546Z" fill="#E86E58"/>
<path d="M32.5067 212.191L32.4907 207.597C32.4868 206.394 33.4622 205.414 34.6686 205.41L139.001 205.056C139.59 205.052 140.155 204.814 140.565 204.389L168.46 175.584C169.3 174.718 170.682 174.694 171.55 175.528L174.866 178.72C175.734 179.558 175.758 180.936 174.922 181.802L144.392 213.327C143.982 213.751 143.416 213.99 142.827 213.994L34.7005 214.359C33.4941 214.367 32.5106 213.394 32.5067 212.191Z" fill="#E86E58"/>
<path d="M37.7345 212.6C39.2078 212.6 40.4021 211.409 40.4021 209.94C40.4021 208.471 39.2078 207.28 37.7345 207.28C36.2612 207.28 35.0669 208.471 35.0669 209.94C35.0669 211.409 36.2612 212.6 37.7345 212.6Z" fill="white"/>
<path d="M182.977 212.572C184.45 212.572 185.644 211.381 185.644 209.912C185.644 208.443 184.45 207.252 182.977 207.252C181.503 207.252 180.309 208.443 180.309 209.912C180.309 211.381 181.503 212.572 182.977 212.572Z" fill="white"/>
<path d="M53.7719 153.286C51.0087 153.286 47.7518 152.496 44.1167 150.217L47.0352 141.534C50.6663 143.92 54.0745 143.995 55.7985 143.245C59.5053 141.633 64.8923 133.208 65.9275 120.8L75.4076 122.722C74.9139 126.41 71.4101 146.528 59.8756 151.92C58.275 152.671 56.2126 153.286 53.7719 153.286Z" fill="url(#paint0_linear)"/>
<path d="M80.3847 120.177L71.2471 159.944L80.6554 160.278L89.7931 120.506L80.3847 120.177Z" fill="url(#paint1_linear)"/>
<path d="M74.3485 146.762L74.0977 147.866L83.502 148.2L83.7569 147.096L74.3485 146.762Z" fill="#A08BE8"/>
<path d="M63.093 133.243C62.9537 133.593 62.8103 133.938 62.667 134.271L71.6971 136.789L71.8683 136.443C71.9559 136.213 72.0395 135.987 72.1231 135.756L63.093 133.243Z" fill="#A08BE8"/>
<path d="M123.111 89.2035C126.344 76.9746 124.309 67.2034 124.309 67.2034L127.196 67.2113L127.267 67.1557C123.198 44.6871 103.522 27.6143 79.8115 27.5468C53.0954 27.4674 31.3762 49.003 31.3005 75.6445C31.2209 102.286 52.8167 123.945 79.5328 124.02C100.611 124.08 118.58 110.683 125.261 91.9431C125.448 91.145 125.436 89.7157 123.111 89.2035Z" fill="url(#paint2_radial)"/>
<path d="M125.057 92.4987C125.057 92.4987 126.407 89.9338 123.107 89.2032C126.3 77.1252 124.357 67.4493 124.309 67.2111L101.996 67.0642C101.996 67.0642 98.8351 66.7346 98.8271 69.6132C98.8192 72.4917 98.9147 80.6311 98.8869 89.632C98.8829 91.4822 100.4 92.3796 101.594 92.3835L125.261 92.5344C125.133 92.5106 125.057 92.4987 125.057 92.4987Z" fill="url(#paint3_radial)"/>
<path d="M122.127 84.5976C121.183 85.3004 116.35 89.0921 116.35 89.0921L123.13 89.112C123.572 87.4285 123.915 85.7927 124.173 84.2244C123.516 83.9187 122.859 84.0576 122.127 84.5976Z" fill="#A08BE8"/>
<path d="M125.057 92.4989C125.057 92.4989 126.407 89.934 123.106 89.2035C123.11 89.1916 123.114 89.1797 123.114 89.1638L101.634 89.0208C100.487 89.0169 99.0102 88.33 98.8868 87.2183C98.8868 88.0123 98.8868 88.8183 98.8828 89.6323C98.8788 91.3118 100.125 92.2011 101.252 92.356C101.363 92.3679 101.479 92.3838 101.59 92.3838L104.963 92.3917L125.253 92.5307C125.133 92.5108 125.057 92.4989 125.057 92.4989Z" fill="url(#paint4_radial)"/>
<path d="M121.303 100.333L37.8896 100.09C39.753 103.267 41.9707 106.209 44.4871 108.873L114.654 109.075C117.186 106.427 119.424 103.497 121.303 100.333Z" fill="url(#paint5_radial)"/>
<path d="M112.46 111.231C116.621 107.404 120.101 102.854 122.712 97.7834L112.5 97.7556L112.46 111.231Z" fill="#512BD4"/>
<path d="M83.0121 25.7045L73.6675 25.6172L75.073 16.0564L81.7858 16.1199L83.0121 25.7045Z" fill="#D0C5F3"/>
<path d="M86.5319 31.5887C86.954 31.5926 87.2924 31.2313 87.2526 30.8144C86.7987 26.3834 83.072 22.9093 78.5012 22.8656C73.9304 22.822 70.14 26.2286 69.6025 30.6477C69.5507 31.0646 69.8852 31.4338 70.3072 31.4378L86.5319 31.5887Z" fill="url(#paint6_radial)"/>
<path d="M81.8299 159.325H70.3272C68.9058 159.325 67.5282 160.476 67.2495 161.894L65.3065 171.856C65.0318 173.273 65.9595 174.424 67.3809 174.424H78.8835C80.3049 174.424 81.6825 173.273 81.9613 171.856L83.9042 161.894C84.179 160.472 83.2513 159.325 81.8299 159.325Z" fill="url(#paint7_radial)"/>
<path d="M34.5295 147.862C23.8908 145.79 12.7903 153.198 12.2448 153.734C11.6994 154.27 15.9317 133.374 15.9317 133.374C15.9317 133.374 31.2925 133.207 36.9224 138.472C37.444 138.961 34.5295 147.862 34.5295 147.862Z" fill="#A08BE8"/>
<path d="M17.1182 134.827L13.1407 153.044C13.1407 153.044 9.49755 156.125 7.27984 156.419C5.58371 156.641 2.20736 155.144 0.710308 154.429C0.292247 154.231 0.0414101 153.727 0.136967 153.29L3.92341 135.697C4.04683 135.133 4.58434 134.863 5.12583 135.097C6.99715 135.907 11.0583 137.265 12.3563 137.015C14.2913 136.638 17.1182 134.827 17.1182 134.827Z" fill="#D0C5F3"/>
<path d="M38.5626 137.869C27.9797 129.717 9.76416 123.508 8.78869 123.25C7.43496 122.888 6.47541 122.682 6.06134 124.627C5.54772 127.045 3.33398 137.428 3.33398 137.428L36.1697 145.385L38.5626 137.869Z" fill="#8065E0"/>
<path d="M34.5293 147.862C28.8118 146.326 19.7897 148.783 9.30629 156.232C8.07998 157.101 6.9333 157.332 5.51587 156.732L0.976923 154.81C0.304044 154.524 -0.117999 153.73 0.0293178 153.032L3.76001 135.53C3.86353 135.038 4.33336 134.799 4.81114 134.998L10.0508 137.217C11.6833 137.908 12.595 137.92 14.1677 136.689C18.1055 133.6 28.8397 135.141 36.0741 138.107C43.3086 141.073 34.5293 147.862 34.5293 147.862Z" fill="#A08BE8"/>
<path d="M6.67044 157.042C6.30414 157.002 5.92191 156.903 5.51978 156.732L0.980829 154.81C0.30795 154.524 -0.114093 153.73 0.033224 153.032L3.76392 135.53C3.86744 135.038 4.33726 134.799 4.81505 135.002L10.0547 137.221C10.3335 137.34 10.5923 137.436 10.8351 137.511L6.67044 157.042Z" fill="#D0C5F3"/>
<path d="M47.529 153.683L49.9219 142.463C50.2165 141.077 49.3764 139.493 48.0426 138.929L38.6741 134.963C37.3402 134.399 36.0184 135.066 35.7237 136.451L33.3308 147.672C33.0362 149.058 33.8763 150.642 35.2101 151.206L44.5787 155.172C45.9085 155.736 47.2304 155.069 47.529 153.683Z" fill="url(#paint8_radial)"/>
<path d="M65.8479 147.191L58.1875 141.406C57.9326 141.673 57.6778 141.915 57.427 142.133C57.4071 142.153 57.3832 142.173 57.3633 142.193L60.5007 151.606C62.5353 150.534 64.3071 149.002 65.8479 147.191Z" fill="#A08BE8"/>
<path d="M116.787 78.6394C116.877 75.1363 115.256 72.2533 113.168 72.2C111.08 72.1467 109.314 74.9432 109.224 78.4462C109.134 81.9493 110.754 84.8323 112.842 84.8856C114.931 84.939 116.697 82.1424 116.787 78.6394Z" fill="#512BD4"/>
<path d="M112.994 75.1919C111.596 76.5538 111.573 78.7891 112.942 80.1827C113.878 81.1356 115.224 81.4493 116.43 81.1118C116.641 80.3574 116.768 79.5236 116.792 78.6462C116.836 76.927 116.466 75.3626 115.837 74.2033C114.821 74.1001 113.774 74.4296 112.994 75.1919Z" fill="#8065E0"/>
<path d="M78.8718 17.9463C83.8414 17.9463 87.8701 13.9289 87.8701 8.97315C87.8701 4.01741 83.8414 0 78.8718 0C73.9022 0 69.8735 4.01741 69.8735 8.97315C69.8735 13.9289 73.9022 17.9463 78.8718 17.9463Z" fill="url(#paint9_radial)"/>
<path d="M80.4641 33.6057C80.6393 34.4752 81.3839 35.1502 82.3156 35.2058C94.4951 35.9125 105.623 42.1501 112.655 51.7505C114.554 54.3432 118.002 52.2746 115.928 49.4398C108.196 38.8626 95.9523 31.9937 82.5465 31.2155C81.4396 31.152 80.492 31.9937 80.4283 33.0975C80.4164 33.2722 80.4283 33.4429 80.4641 33.6057Z" fill="url(#paint10_radial)"/>
<path d="M41.9349 91.7522C42.6595 91.2361 42.974 90.2832 42.6436 89.4137C37.1411 74.9732 40.4935 58.4285 51.184 47.2597C51.9484 46.4617 51.9205 45.1951 51.1203 44.4328C50.32 43.6705 49.0499 43.6983 48.2854 44.4963C36.5279 56.7728 32.845 74.9613 38.893 90.8351C39.2871 91.8674 40.4458 92.3875 41.481 91.9944C41.6442 91.9309 41.7995 91.8475 41.9349 91.7522Z" fill="url(#paint11_radial)"/>
<path d="M77.0683 134.931L76.8135 136.034L86.2218 136.368L86.4767 135.264L77.0683 134.931Z" fill="#A08BE8"/>
<path d="M135.119 111.501L132.782 102.782C122.987 104.99 114.144 106.638 106.547 105.125C91.4057 102.115 84.7366 84.8281 83.1838 79.9524L72.7402 83.0533C78.9594 96.1318 89.6259 124.496 135.119 111.501Z" fill="url(#paint12_linear)"/>
<path d="M138.344 103.882L143.811 97.1999C145.252 95.4093 144.858 92.8602 142.923 91.5024C140.988 90.1445 138.252 90.4939 136.811 92.2845L131.205 99.1335L138.344 103.882Z" fill="#D0C5F3"/>
<path d="M130.484 113.967L138.718 117.715C140.92 118.7 143.428 117.826 144.324 115.766C145.22 113.705 144.165 111.235 141.963 110.251L133.522 106.407L130.484 113.967Z" fill="#D0C5F3"/>
<path d="M101.841 113.32C102.192 113.415 102.55 113.506 102.908 113.594L105.265 104.827C104.907 104.736 104.557 104.629 104.206 104.517L101.841 113.32Z" fill="#A08BE8"/>
<path d="M115.932 114.789C116.298 114.777 116.669 114.757 117.043 114.737L116.485 105.57C116.115 105.597 115.745 105.625 115.375 105.645L115.932 114.789Z" fill="#A08BE8"/>
<path d="M143.122 110.513C141.35 110.175 140.064 108.674 140.116 106.824C140.175 104.668 142.027 102.862 144.249 102.778L158.24 102.266C160.457 102.203 162.213 103.87 162.15 106.022C162.09 108.178 161.035 109.985 158.813 110.068L144.026 110.58C143.715 110.592 143.408 110.568 143.122 110.513Z" fill="#B3AFAB"/>
<path d="M138.878 108.543L147.167 104.93C149.369 103.953 150.384 101.508 149.437 99.4708C148.485 97.434 145.933 96.5724 143.727 97.5491L135.227 101.254L138.878 108.543Z" fill="#D0C5F3"/>
<path d="M127.701 100.666C131.492 97.5889 137.269 97.9741 140.605 101.528C143.942 105.081 143.572 110.457 139.781 113.538C135.991 116.615 130.213 116.23 126.877 112.677C123.536 109.123 123.907 103.743 127.701 100.666Z" fill="url(#paint13_radial)"/>
<path d="M89.5737 107.336C89.8644 107.559 90.163 107.773 90.4616 107.987L96.4578 100.396C96.1671 100.17 95.8805 99.9394 95.6018 99.7012L89.5737 107.336Z" fill="#A08BE8"/>
<path d="M80.5757 97.7357C80.8066 98.0732 81.0455 98.4107 81.2884 98.7482L89.5182 92.8719C89.3072 92.5662 89.1002 92.2605 88.9011 91.9587L80.5757 97.7357Z" fill="#A08BE8"/>
<path d="M77.5259 87.4524C82.4317 87.4524 86.4087 83.4865 86.4087 78.5943C86.4087 73.7022 82.4317 69.7363 77.5259 69.7363C72.62 69.7363 68.6431 73.7022 68.6431 78.5943C68.6431 83.4865 72.62 87.4524 77.5259 87.4524Z" fill="url(#paint14_radial)"/>
<defs>
<linearGradient id="paint0_linear" x1="59.7595" y1="120.803" x2="59.7595" y2="153.287" gradientUnits="userSpaceOnUse">
<stop offset="0.1788" stop-color="#958FE7"/>
<stop offset="0.4497" stop-color="#BBB7EF"/>
</linearGradient>
<linearGradient id="paint1_linear" x1="80.5197" y1="120.175" x2="80.5197" y2="160.276" gradientUnits="userSpaceOnUse">
<stop offset="0.1788" stop-color="#958FE7"/>
<stop offset="0.4497" stop-color="#BBB7EF"/>
</linearGradient>
<radialGradient id="paint2_radial" cx="0" cy="0" r="1" gradientUnits="userSpaceOnUse" gradientTransform="translate(88.5146 62.4719) rotate(-10.1673) scale(48.3751 48.2485)">
<stop offset="0.4744" stop-color="#A08BE8"/>
<stop offset="0.8618" stop-color="#8065E0"/>
</radialGradient>
<radialGradient id="paint3_radial" cx="0" cy="0" r="1" gradientUnits="userSpaceOnUse" gradientTransform="translate(111.762 76.4068) rotate(-10.1673) scale(34.0008 33.9118)">
<stop offset="0.2022" stop-color="#E1DFDD"/>
<stop offset="0.7337" stop-color="white"/>
</radialGradient>
<radialGradient id="paint4_radial" cx="0" cy="0" r="1" gradientUnits="userSpaceOnUse" gradientTransform="translate(101.559 91.0171) rotate(-10.1673) scale(20.2621 20.2091)">
<stop stop-color="#512BD4"/>
<stop offset="0.5045" stop-color="#6645D9"/>
<stop offset="0.7759" stop-color="#7659DD"/>
<stop offset="1" stop-color="#8065E0"/>
</radialGradient>
<radialGradient id="paint5_radial" cx="0" cy="0" r="1" gradientUnits="userSpaceOnUse" gradientTransform="translate(53.3835 105.053) rotate(-10.1673) scale(30.0738 29.995)">
<stop offset="0.4614" stop-color="#A08BE8"/>
<stop offset="0.5268" stop-color="#A793EA"/>
<stop offset="0.8352" stop-color="#C5B7F0"/>
<stop offset="1" stop-color="#D0C5F3"/>
</radialGradient>
<radialGradient id="paint6_radial" cx="0" cy="0" r="1" gradientUnits="userSpaceOnUse" gradientTransform="translate(77.9269 27.9782) rotate(-10.1673) scale(7.12959 7.11093)">
<stop stop-color="#8065E0"/>
<stop offset="0.8628" stop-color="#512BD4"/>
</radialGradient>
<radialGradient id="paint7_radial" cx="0" cy="0" r="1" gradientUnits="userSpaceOnUse" gradientTransform="translate(76.5635 161.718) scale(13.7379 13.6995)">
<stop stop-color="#8065E0"/>
<stop offset="0.8628" stop-color="#512BD4"/>
</radialGradient>
<radialGradient id="paint8_radial" cx="0" cy="0" r="1" gradientUnits="userSpaceOnUse" gradientTransform="translate(46.7067 146.035) scale(13.032 12.9957)">
<stop stop-color="#8065E0"/>
<stop offset="0.8628" stop-color="#512BD4"/>
</radialGradient>
<radialGradient id="paint9_radial" cx="0" cy="0" r="1" gradientUnits="userSpaceOnUse" gradientTransform="translate(80.5983 4.2991) rotate(-10.1673) scale(12.5149 12.4822)">
<stop stop-color="#A08BE8"/>
<stop offset="1" stop-color="#8065E0"/>
</radialGradient>
<radialGradient id="paint10_radial" cx="0" cy="0" r="1" gradientUnits="userSpaceOnUse" gradientTransform="translate(98.4664 42.0373) rotate(-101.416) scale(14.9398 14.9783)">
<stop offset="0.3607" stop-color="#BDB9F0"/>
<stop offset="0.5611" stop-color="#C3BCEB" stop-opacity="0.3855"/>
<stop offset="0.6338" stop-color="#CEC3E2" stop-opacity="0.3217"/>
<stop offset="0.8689" stop-color="#EDD6C9" stop-opacity="0.1152"/>
<stop offset="1" stop-color="#F9DDBF" stop-opacity="0"/>
</radialGradient>
<radialGradient id="paint11_radial" cx="0" cy="0" r="1" gradientUnits="userSpaceOnUse" gradientTransform="translate(45.264 68.0109) rotate(144.555) scale(17.9917 17.9753)">
<stop stop-color="#BDB9F0"/>
<stop offset="0.5266" stop-color="#C3BCEB" stop-opacity="0.3855"/>
<stop offset="0.605" stop-color="#CEC3E2" stop-opacity="0.3217"/>
<stop offset="0.8586" stop-color="#EDD6C9" stop-opacity="0.1152"/>
<stop offset="1" stop-color="#F9DDBF" stop-opacity="0"/>
</radialGradient>
<linearGradient id="paint12_linear" x1="90.4587" y1="66.7472" x2="117.402" y2="124.476" gradientUnits="userSpaceOnUse">
<stop offset="0.2239" stop-color="#958FE7"/>
<stop offset="0.4264" stop-color="#BBB7EF"/>
</linearGradient>
<radialGradient id="paint13_radial" cx="0" cy="0" r="1" gradientUnits="userSpaceOnUse" gradientTransform="translate(133.571 102.033) rotate(-176.865) scale(15.419 14.3497)">
<stop stop-color="#A08BE8"/>
<stop offset="1" stop-color="#8065E0"/>
</radialGradient>
<radialGradient id="paint14_radial" cx="0" cy="0" r="1" gradientUnits="userSpaceOnUse" gradientTransform="translate(77.9237 74.8912) scale(13.1918 13.155)">
<stop stop-color="#8065E0"/>
<stop offset="0.8628" stop-color="#512BD4"/>
</radialGradient>
</defs>
</svg>
