<svg width="202" height="231" viewBox="0 0 202 231" fill="none" xmlns="http://www.w3.org/2000/svg">
<path d="M189.151 157.671L189.142 157.623C188.101 153.289 185.15 141.79 180.204 128.728L183.758 127.383C188.781 140.65 191.779 152.334 192.834 156.739L192.843 156.787L189.151 157.671Z" fill="#FFE5B9"/>
<path d="M162 198.863L197.068 188.139C200.151 187.193 201.891 183.929 200.945 180.84L193.095 155.176C192.15 152.092 188.885 150.353 185.797 151.299L150.729 162.023C147.645 162.969 145.906 166.233 146.851 169.322L154.701 194.986C155.647 198.07 158.916 199.804 162 198.863Z" fill="#F7B548"/>
<path d="M96.3547 181.42C96.2454 171.541 97.6519 151.489 107.849 134.696L117.818 140.75C108.567 155.979 107.873 173.755 108.087 181.51C108.11 182.147 102.128 182.731 96.3547 181.42Z" fill="url(#paint0_linear)"/>
<path d="M108.087 181.401L98.8541 181.358L90.2345 230.738L108.766 230.823C110.177 230.828 111.247 229.693 111.152 228.281L108.087 181.401Z" fill="#522CD5"/>
<path d="M70.4768 217.751C68.8754 219.015 68.9039 220.845 69.0275 222.774L69.4124 228.69C69.4837 229.75 70.4055 230.619 71.4651 230.624L90.7762 230.709C91.9784 230.714 92.8859 229.745 92.8052 228.547L92.6769 222.418C92.5296 220.189 93.2803 219.372 95.0052 217.271C97.9608 213.684 106.699 194.131 105.868 181.391L96.3594 181.348C95.7275 188.908 85.7488 205.701 70.4768 217.751Z" fill="url(#paint1_linear)"/>
<path d="M69.0275 222.774C68.9372 221.424 68.9134 220.132 69.4409 219.039L93.5274 219.148C92.8622 220.127 92.5818 220.983 92.6721 222.413L92.8004 228.543C92.8812 229.745 91.9688 230.714 90.7714 230.705L71.4604 230.619C70.4007 230.614 69.4789 229.745 69.4076 228.685L69.0275 222.774Z" fill="url(#paint2_radial)"/>
<path d="M141.762 181.42C141.872 171.541 140.465 151.489 130.268 134.696L120.299 140.75C129.55 155.979 130.244 173.755 130.03 181.51C130.006 182.147 135.989 182.731 141.762 181.42Z" fill="url(#paint3_linear)"/>
<path d="M130.03 181.401L139.263 181.358L147.882 230.738L129.351 230.823C127.939 230.828 126.87 229.693 126.965 228.281L130.03 181.401Z" fill="#512BD4"/>
<path d="M167.64 217.751C169.241 219.015 169.213 220.845 169.089 222.774L168.705 228.69C168.633 229.75 167.711 230.619 166.652 230.624L147.341 230.709C146.139 230.714 145.231 229.745 145.312 228.547L145.44 222.418C145.587 220.189 144.837 219.372 143.112 217.271C140.156 213.684 131.418 194.131 132.249 181.391L141.757 181.348C142.389 188.908 152.368 205.701 167.64 217.751Z" fill="url(#paint4_linear)"/>
<path d="M169.089 222.774C169.18 221.424 169.203 220.132 168.676 219.039L144.589 219.148C145.255 220.127 145.535 220.983 145.445 222.413L145.317 228.543C145.236 229.745 146.148 230.714 147.346 230.705L166.657 230.619C167.716 230.614 168.638 229.745 168.709 228.685L169.089 222.774Z" fill="url(#paint5_radial)"/>
<path d="M17.533 99.88L27.2835 93.9689C34.7342 106.257 43.7815 113.304 54.1783 114.924C73.0284 117.856 90.7666 102.612 90.9425 102.46L98.4359 111.056C97.5521 111.831 76.4592 129.935 52.4202 126.195C38.5499 124.028 26.8084 115.176 17.533 99.88Z" fill="#8A6FE8"/>
<path d="M25.8628 98.0839L28.1531 86.7035C28.7851 83.6766 31.7502 81.7332 34.777 82.3651C37.8039 82.9971 39.7473 85.9622 39.1153 88.989L36.768 100.659L25.8628 98.0839Z" fill="#8A6FE8"/>
<path d="M25.8485 113.765C32.3227 113.765 37.571 108.516 37.571 102.042C37.571 95.5679 32.3227 90.3195 25.8485 90.3195C19.3743 90.3195 14.126 95.5679 14.126 102.042C14.126 108.516 19.3743 113.765 25.8485 113.765Z" fill="url(#paint6_radial)"/>
<path d="M18.4738 105.63L7.11719 103.23C4.09509 102.569 2.18014 99.5854 2.84063 96.5633C3.50112 93.5412 6.48521 91.6263 9.50731 92.2868L21.1538 94.7481L18.4738 105.63Z" fill="#8A6FE8"/>
<path d="M21.0968 99.153L11.4698 92.6716C8.91811 90.9278 8.26237 87.44 10.0063 84.8883C11.7501 82.3366 15.2379 81.6809 17.7896 83.4248L27.6637 90.0724L21.0968 99.153Z" fill="#D0C5F3"/>
<path d="M65.9151 109.032C61.8049 93.2513 64.4563 80.6545 64.4563 80.6545H60.7452L60.655 80.5832C65.9721 51.6262 91.3369 29.6827 121.833 29.6827C156.188 29.6827 184.038 57.5326 184.038 91.8876C184.038 126.243 156.188 154.092 121.833 154.092C94.7249 154.092 71.5317 136.72 63.0118 112.524C62.76 111.503 62.9168 109.688 65.9151 109.032Z" fill="url(#paint7_radial)"/>
<path d="M65.782 109.032C61.7241 93.4461 64.2567 80.9728 64.3185 80.6687H128.857C128.857 80.6687 132.924 80.2553 132.924 83.9712C132.924 87.687 132.772 98.1789 132.772 109.787C132.772 112.173 130.819 113.323 129.279 113.323C129.279 113.323 70.1964 111.265 65.782 109.032Z" fill="url(#paint8_radial)"/>
<path d="M105.302 108.961C105.302 108.961 95.3758 101.106 93.4419 99.6519C91.5032 98.1979 89.8115 98.1171 88.0344 99.6519C86.2573 101.187 76.3214 108.961 76.3214 108.961H105.302Z" fill="#A08BE8"/>
<path d="M63.2684 113.275C63.2684 113.275 61.534 109.958 65.7773 109.032C65.7725 109.018 129.227 108.984 129.227 108.984C130.705 108.984 132.606 108.105 132.767 106.67C132.767 107.697 132.762 108.732 132.762 109.783C132.762 111.949 131.152 113.095 129.707 113.285C129.565 113.304 129.417 113.318 129.27 113.318H124.932L63.2684 113.275Z" fill="#512BD4"/>
<path d="M149.864 162.289L153.575 161.154C150.971 161.952 149.641 165.155 150.605 168.314L158.374 193.722C159.339 196.877 162.233 198.792 164.841 197.994L161.13 199.129C158.526 199.928 155.633 198.013 154.663 194.858L146.894 169.45C145.929 166.29 147.255 163.088 149.864 162.289Z" fill="#FFE5B9"/>
<path d="M68.0629 123.392H175.566C173.157 127.483 170.296 131.27 167.046 134.691H76.578C73.3325 131.27 70.4672 127.483 68.0629 123.392Z" fill="#D8CFF7"/>
<path d="M133.043 28.2049L121.073 27.1072L123.881 14.9713L132.477 15.7601L133.043 28.2049Z" fill="#8A6FE8"/>
<path d="M128.59 17.3377C133.319 17.3377 137.153 13.5041 137.153 8.77508C137.153 4.04608 133.319 0.212463 128.59 0.212463C123.861 0.212463 120.028 4.04608 120.028 8.77508C120.028 13.5041 123.861 17.3377 128.59 17.3377Z" fill="#D8CFF7"/>
<path d="M136.934 36.1356C137.476 36.1831 137.947 35.7555 137.937 35.2138C137.823 29.4737 133.409 24.6126 127.559 24.0805C121.71 23.5435 116.488 27.5255 115.333 33.1468C115.224 33.6789 115.613 34.1826 116.155 34.2349L136.934 36.1356Z" fill="url(#paint9_radial)"/>
<path d="M17.704 113.432L34.3494 107.497C35.3425 107.145 35.8557 106.053 35.504 105.064L23.9098 72.5433C23.5582 71.5502 22.4653 71.037 21.4769 71.3887L4.83161 77.3188C3.8385 77.6704 3.32531 78.7633 3.67694 79.7517L15.2712 112.273C15.6228 113.266 16.7109 113.784 17.704 113.432Z" fill="#605D5A"/>
<path d="M8.0533 78.7491C8.11032 78.8537 8.17685 78.9582 8.27188 79.0485L9.04641 79.7898C9.62613 80.341 10.4672 80.5215 11.218 80.2507L18.6877 77.585C19.4432 77.3141 19.9801 76.6441 20.0799 75.8506L20.213 74.7862C20.2272 74.6579 20.2177 74.5344 20.194 74.4156L21.2726 74.0307C21.7811 73.8501 22.337 74.1162 22.5176 74.6199L33.1852 104.546C33.3658 105.055 33.0997 105.611 32.596 105.791L18.336 110.876C17.8276 111.056 17.2717 110.79 17.0911 110.286L6.42346 80.36C6.24289 79.8515 6.50899 79.2956 7.01267 79.115L8.0533 78.7491Z" fill="#BBE5E0"/>
<path d="M31.5268 99.899L33.1852 104.556C33.3658 105.064 33.0997 105.62 32.596 105.801L18.336 110.885C17.8276 111.066 17.2717 110.8 17.0911 110.296L15.4327 105.639L31.5268 99.899Z" fill="#6ECFC3"/>
<path d="M20.6977 83.4771L23.2256 82.5743C23.658 82.4222 23.8813 81.9471 23.7293 81.5147L22.931 79.2813C22.7789 78.8489 22.3037 78.6256 21.8713 78.7777L19.3434 79.6805C18.911 79.8325 18.6877 80.3077 18.8397 80.7401L19.638 82.9734C19.7901 83.4058 20.2653 83.6292 20.6977 83.4771Z" fill="#92D5CD"/>
<path d="M15.7463 85.24L18.2743 84.3372C18.7067 84.1851 18.93 83.7099 18.778 83.2775L17.9797 81.0442C17.8276 80.6118 17.3524 80.3885 16.92 80.5405L14.3921 81.4434C13.9597 81.5954 13.7364 82.0706 13.8884 82.503L14.6867 84.7363C14.8388 85.1687 15.3139 85.3921 15.7463 85.24Z" fill="#92D5CD"/>
<path d="M22.337 88.072L24.8649 87.1692C25.2973 87.0171 25.5207 86.542 25.3686 86.1096L24.5703 83.8763C24.4183 83.4438 23.9431 83.2205 23.5107 83.3726L20.9828 84.2754C20.5504 84.4275 20.327 84.9026 20.4791 85.335L21.2774 87.5683C21.4294 88.0008 21.9046 88.2241 22.337 88.072Z" fill="#92D5CD"/>
<path d="M17.3857 89.8349L19.9136 88.9321C20.346 88.78 20.5694 88.3048 20.4173 87.8724L19.619 85.6391C19.4669 85.2067 18.9918 84.9834 18.5594 85.1354L16.0314 86.0383C15.599 86.1903 15.3757 86.6655 15.5278 87.0979L16.3261 89.3312C16.4781 89.7636 16.9533 89.9917 17.3857 89.8349Z" fill="#92D5CD"/>
<path d="M23.9763 92.6669L26.5043 91.7641C26.9367 91.6121 27.16 91.1369 27.0079 90.7045L26.2097 88.4712C26.0576 88.0388 25.5824 87.8154 25.15 87.9675L22.6221 88.8703C22.1897 89.0224 21.9664 89.4975 22.1184 89.9299L22.9167 92.1633C23.0688 92.5957 23.5439 92.8238 23.9763 92.6669Z" fill="#92D5CD"/>
<path d="M19.0251 94.4299L21.553 93.5271C21.9854 93.375 22.2087 92.8998 22.0567 92.4674L21.2584 90.2341C21.1063 89.8017 20.6311 89.5784 20.1987 89.7304L17.6708 90.6332C17.2384 90.7853 17.0151 91.2605 17.1671 91.6929L17.9654 93.9262C18.1175 94.3586 18.5926 94.5867 19.0251 94.4299Z" fill="#92D5CD"/>
<path d="M10.7998 87.0029L13.3277 86.1C13.7601 85.948 13.9835 85.4728 13.8314 85.0404L13.0331 82.8071C12.8811 82.3747 12.4059 82.1514 11.9735 82.3034L9.44556 83.2062C9.01315 83.3583 8.78982 83.8335 8.94187 84.2659L9.74016 86.4992C9.89222 86.9316 10.3674 87.1597 10.7998 87.0029Z" fill="#92D5CD"/>
<path d="M12.4392 91.6025L14.9671 90.6997C15.3995 90.5477 15.6228 90.0725 15.4708 89.6401L14.6725 87.4068C14.5204 86.9744 14.0452 86.751 13.6128 86.9031L11.0849 87.8059C10.6525 87.958 10.4292 88.4331 10.5812 88.8656L11.3795 91.0989C11.5268 91.5313 12.0068 91.7546 12.4392 91.6025Z" fill="#92D5CD"/>
<path d="M14.0738 96.1975L16.6017 95.2946C17.0341 95.1426 17.2574 94.6674 17.1054 94.235L16.3071 92.0017C16.155 91.5693 15.6798 91.3459 15.2474 91.498L12.7195 92.4008C12.2871 92.5529 12.0638 93.0281 12.2158 93.4605L13.0141 95.6938C13.1662 96.1262 13.6413 96.3495 14.0738 96.1975Z" fill="#92D5CD"/>
<path d="M10.8378 116.069H15.7463C18.8207 116.069 21.3153 113.575 21.3153 110.5C21.3153 107.426 18.8207 104.931 15.7463 104.931H10.8378C7.76341 104.931 5.26875 107.426 5.26875 110.5C5.26875 113.579 7.76341 116.069 10.8378 116.069Z" fill="#8A6FE8"/>
<path d="M6.39493 107.055H11.3035C14.3778 107.055 16.8725 104.561 16.8725 101.486C16.8725 98.4118 14.3778 95.9171 11.3035 95.9171H6.39493C3.32056 95.9171 0.825897 98.407 0.825897 101.486C0.825897 104.561 3.32056 107.055 6.39493 107.055Z" fill="#8A6FE8"/>
<path d="M118.602 94.9353C118.67 90.4167 116.546 86.7211 113.859 86.6811C111.172 86.6411 108.939 90.2717 108.872 94.7903C108.805 99.3089 110.928 103.004 113.615 103.044C116.302 103.084 118.535 99.4539 118.602 94.9353Z" fill="#512BD4"/>
<path d="M74.6698 103.018C77.3568 102.978 79.4805 99.2824 79.4132 94.7638C79.3459 90.2452 77.113 86.6146 74.426 86.6546C71.739 86.6947 69.6153 90.3902 69.6826 94.9088C69.75 99.4274 71.9828 103.058 74.6698 103.018Z" fill="#512BD4"/>
<path d="M113.775 90.7662C112.781 89.7731 111.441 89.3359 110.144 89.4547C109.379 90.8802 108.899 92.7429 108.871 94.7909C108.852 96.0691 109.013 97.2761 109.308 98.3595C110.843 98.7966 112.568 98.4117 113.775 97.2048C115.552 95.4276 115.552 92.5433 113.775 90.7662Z" fill="#8065E0"/>
<path d="M74.6155 90.5048C73.6224 89.5117 72.2777 89.0746 70.9804 89.1934C70.1536 90.6806 69.6547 92.6906 69.688 94.9097C69.707 96.0406 69.859 97.1145 70.1204 98.0933C71.6647 98.5448 73.3991 98.1599 74.6155 96.9434C76.3879 95.1615 76.3879 92.282 74.6155 90.5048Z" fill="#8065E0"/>
<path d="M81.1143 137.824L101.476 137.732L101.394 119.723L81.0324 119.815L81.1143 137.824Z" fill="#512BD4"/>
<path d="M84.6369 131.094C84.4991 131.094 84.385 131.051 84.29 130.961C84.195 130.871 84.1475 130.757 84.1475 130.633C84.1475 130.505 84.195 130.391 84.29 130.301C84.385 130.206 84.4991 130.163 84.6369 130.163C84.7747 130.163 84.8887 130.21 84.9838 130.301C85.0788 130.391 85.1311 130.505 85.1311 130.633C85.1311 130.761 85.0835 130.871 84.9885 130.961C84.8887 131.051 84.7747 131.094 84.6369 131.094Z" fill="white"/>
<path d="M90.0491 131.009H89.17L86.8417 127.355C86.7847 127.264 86.7324 127.164 86.6944 127.065H86.6754C86.6944 127.169 86.7039 127.397 86.7039 127.749L86.7086 131.013H85.9294L85.9198 126.034H86.8559L89.1035 129.602C89.1985 129.749 89.2603 129.854 89.2888 129.906H89.3031C89.2793 129.773 89.2698 129.55 89.2698 129.236L89.2651 126.029H90.0396L90.0491 131.009Z" fill="white"/>
<path d="M93.8458 130.999L91.1183 131.004L91.1088 126.029L93.727 126.024V126.727L91.9166 126.732L91.9213 128.143L93.5892 128.139V128.837L91.9213 128.842L91.9261 130.315L93.8458 130.31V130.999Z" fill="white"/>
<path d="M97.7089 126.713L96.3119 126.718L96.3214 130.994H95.5136L95.5041 126.718L94.1118 126.723V126.019L97.7041 126.01L97.7089 126.713Z" fill="white"/>
<path d="M157.096 143.387L140.741 134.815C138.056 133.28 137.125 129.859 138.659 127.174C140.194 124.489 143.615 123.558 146.3 125.093L162.917 133.812L157.096 143.387Z" fill="#927BE5"/>
<path d="M147.398 171.137C144.19 159.742 142.765 146.409 143.387 133.598C144.062 119.68 147.056 107.236 152.05 97.6087C154.074 93.7028 157.272 91.4362 160.817 91.3887C164.647 91.3459 168.225 93.8311 170.653 98.2264C177.015 109.759 185.027 131.778 185.364 132.71L181.791 134.007C181.71 133.784 173.547 111.336 167.327 100.065C165.616 96.9624 163.288 95.19 160.931 95.19C160.912 95.19 160.893 95.19 160.869 95.19C158.74 95.2186 156.811 96.6963 155.428 99.3573C146.162 117.224 144.366 146.319 151.061 170.106L147.398 171.137Z" fill="#FFE5B9"/>
<path d="M158.541 142.009L158.474 141.795C157.633 139.163 159.044 136.34 161.648 135.418C170.244 132.372 176.659 129.155 180.745 125.834C182.922 124.066 185.44 121.424 185.108 118.873C184.737 116.05 181.221 112.719 175.704 109.954C171.061 107.63 165.397 105.915 159.885 105.112C157.258 104.727 155.328 102.451 155.457 99.7945L155.466 99.5664C155.614 96.5491 158.322 94.3205 161.311 94.7482C167.959 95.7033 174.682 97.7465 180.384 100.602C189.398 105.116 194.616 110.961 195.476 117.509C196.887 128.281 186.685 137.604 165.145 145.264C162.413 146.238 159.42 144.765 158.541 142.009Z" fill="url(#paint10_linear)"/>
<path d="M155.628 151.018L145.426 156.549C142.698 158.003 139.306 156.972 137.847 154.245C136.393 151.517 137.424 148.124 140.151 146.666L150.615 140.992L155.628 151.018Z" fill="#927BE5"/>
<path d="M156.654 145.891L142.233 149.697C139.23 150.429 136.198 148.59 135.466 145.582C134.734 142.579 136.573 139.547 139.581 138.816L154.288 134.938L156.654 145.891Z" fill="#927BE5"/>
<path d="M160.28 153.08L151.09 160.17C148.628 162.042 145.112 161.562 143.245 159.101C141.373 156.639 141.852 153.123 144.314 151.256L153.737 143.986L160.28 153.08Z" fill="#927BE5"/>
<path d="M156.806 155.375C163.28 155.375 168.529 150.127 168.529 143.653C168.529 137.179 163.28 131.93 156.806 131.93C150.332 131.93 145.084 137.179 145.084 143.653C145.084 150.127 150.332 155.375 156.806 155.375Z" fill="url(#paint11_radial)"/>
<path d="M200.95 180.84L200.28 178.649C200.266 179.457 200.066 180.256 199.676 180.987C199.025 182.208 197.937 183.107 196.616 183.51L163.791 193.551C162.465 193.955 161.064 193.822 159.843 193.171C158.621 192.52 157.723 191.432 157.319 190.111L158.379 193.717C158.412 193.822 158.45 193.921 158.488 194.021C158.707 194.173 158.93 194.316 159.168 194.444C160.137 194.962 161.197 195.223 162.271 195.223C162.922 195.223 163.577 195.128 164.214 194.929L197.039 184.888C198.731 184.37 200.123 183.225 200.95 181.662C201.002 181.567 201.04 181.467 201.088 181.372C201.045 181.196 201.002 181.016 200.95 180.84Z" fill="#FFE5B9"/>
<path d="M161.016 109.683C167.327 109.683 172.439 104.57 172.439 98.2596C172.439 91.9493 167.327 86.8365 161.016 86.8365C154.706 86.8365 149.593 91.9493 149.593 98.2596C149.593 104.57 154.706 109.683 161.016 109.683Z" fill="url(#paint12_radial)"/>
<defs>
<linearGradient id="paint0_linear" x1="111.384" y1="135.439" x2="101.501" y2="182.51" gradientUnits="userSpaceOnUse">
<stop stop-color="#522CD5"/>
<stop offset="0.4397" stop-color="#8A6FE8"/>
</linearGradient>
<linearGradient id="paint1_linear" x1="103.72" y1="180.159" x2="74.36" y2="232.503" gradientUnits="userSpaceOnUse">
<stop stop-color="#522CD5"/>
<stop offset="0.4397" stop-color="#8A6FE8"/>
</linearGradient>
<radialGradient id="paint2_radial" cx="0" cy="0" r="1" gradientUnits="userSpaceOnUse" gradientTransform="translate(81.9122 209.198) rotate(-179.739) scale(20.3479)">
<stop offset="0.034" stop-color="#522CD5"/>
<stop offset="0.9955" stop-color="#8A6FE8"/>
</radialGradient>
<linearGradient id="paint3_linear" x1="127" y1="135.358" x2="136.884" y2="182.429" gradientUnits="userSpaceOnUse">
<stop stop-color="#522CD5"/>
<stop offset="0.4397" stop-color="#8A6FE8"/>
</linearGradient>
<linearGradient id="paint4_linear" x1="134.463" y1="180.158" x2="163.823" y2="232.503" gradientUnits="userSpaceOnUse">
<stop stop-color="#522CD5"/>
<stop offset="0.4397" stop-color="#8A6FE8"/>
</linearGradient>
<radialGradient id="paint5_radial" cx="0" cy="0" r="1" gradientUnits="userSpaceOnUse" gradientTransform="translate(156.271 209.199) rotate(-0.260742) scale(20.3479)">
<stop offset="0.034" stop-color="#522CD5"/>
<stop offset="0.9955" stop-color="#8A6FE8"/>
</radialGradient>
<radialGradient id="paint6_radial" cx="0" cy="0" r="1" gradientUnits="userSpaceOnUse" gradientTransform="translate(28.5706 97.5325) scale(13.0503)">
<stop stop-color="#8065E0"/>
<stop offset="1" stop-color="#512BD4"/>
</radialGradient>
<radialGradient id="paint7_radial" cx="0" cy="0" r="1" gradientUnits="userSpaceOnUse" gradientTransform="translate(104.782 62.862) scale(72.6239)">
<stop offset="0.4744" stop-color="#A08BE8"/>
<stop offset="0.7708" stop-color="#8065E0"/>
</radialGradient>
<radialGradient id="paint8_radial" cx="0" cy="0" r="1" gradientUnits="userSpaceOnUse" gradientTransform="translate(63.6315 74.4405) scale(64.0401)">
<stop offset="0.0933" stop-color="#E1DFDD"/>
<stop offset="0.6573" stop-color="white"/>
</radialGradient>
<radialGradient id="paint9_radial" cx="0" cy="0" r="1" gradientUnits="userSpaceOnUse" gradientTransform="translate(125.918 28.4461) rotate(-20.6895) scale(9.35754)">
<stop stop-color="#8065E0"/>
<stop offset="1" stop-color="#512BD4"/>
</radialGradient>
<linearGradient id="paint10_linear" x1="175.523" y1="94.7032" x2="175.523" y2="145.569" gradientUnits="userSpaceOnUse">
<stop stop-color="#9780E6"/>
<stop offset="1" stop-color="#8A6FE8"/>
</linearGradient>
<radialGradient id="paint11_radial" cx="0" cy="0" r="1" gradientUnits="userSpaceOnUse" gradientTransform="translate(160.439 141.524) rotate(61.4641) scale(13.7862)">
<stop stop-color="#8065E0"/>
<stop offset="1" stop-color="#512BD4"/>
</radialGradient>
<radialGradient id="paint12_radial" cx="0" cy="0" r="1" gradientUnits="userSpaceOnUse" gradientTransform="translate(160.792 93.7408) scale(11.4254)">
<stop stop-color="#8065E0"/>
<stop offset="1" stop-color="#512BD4"/>
</radialGradient>
</defs>
</svg>
