<svg width="225" height="285" viewBox="0 0 225 285" fill="none" xmlns="http://www.w3.org/2000/svg">
<path d="M122.099 68.5376L112.966 64.5129C127.335 31.9208 139.385 30.5285 145.292 32.6003C153.289 35.4038 156.777 46.2187 153.275 59.4285L143.277 57.2427C145.596 48.4948 143.643 42.5979 141.989 42.0182C140.588 41.5193 132.614 44.6839 122.099 68.5376Z" fill="url(#paint0_linear)"/>
<path d="M143.51 56.3589L151.279 58.1313C151.564 60.835 148.984 74.1304 169.288 96.3114L167.155 105.473L133.28 97.7227C132.092 97.4519 131.403 96.3257 131.754 95.1568L143.51 56.3589Z" fill="#522CD5"/>
<path d="M170.381 94.577C171.597 95.8458 171.583 96.9624 171.098 98.559L169.426 104.285C169.16 105.159 168.214 105.71 167.321 105.506L167.15 105.468C166.138 105.24 165.567 104.247 165.867 103.254L167.078 98.5637C167.639 96.7201 167.734 95.4941 166.128 93.7835C156.648 83.6766 145.325 69.849 147.996 57.3853L153.37 58.6112C152.424 65.0926 154.387 77.889 170.381 94.577Z" fill="url(#paint1_linear)"/>
<path d="M167.136 95.2234C167.62 96.283 167.468 97.2714 167.079 98.5639L165.867 103.254C165.568 104.247 166.138 105.24 167.15 105.468L167.321 105.506C168.214 105.71 169.16 105.159 169.426 104.285L171.099 98.5591C171.374 97.6468 171.488 96.8912 171.317 96.1737L167.136 95.2234Z" fill="url(#paint2_radial)"/>
<path d="M165.354 84.456C158.925 74.0402 154.71 69.6164 150.809 69.184C146.518 68.7088 140.117 72.8903 131.269 81.9614L124.128 74.9906C135.731 63.097 144.037 58.3975 151.906 59.2671C160.507 60.2174 166.808 67.1312 173.978 78.7444L165.354 84.456Z" fill="url(#paint3_linear)"/>
<path d="M164.527 82.9116L171.289 78.6968C173.394 80.4122 173.992 91.7308 204.128 95.5654L214.292 102.118L185.624 119.961C185.368 120.122 184.085 119.809 183.515 118.73L164.527 82.9116Z" fill="#522CD5"/>
<path d="M210.305 91.0656C212.063 91.1083 213.175 91.9779 213.959 93.4557L216.691 98.6683C217.119 99.4761 216.834 100.536 216.059 101.016L210.533 104.461C209.654 105.007 208.547 104.708 208.062 103.791L205.377 99.229C204.475 97.5279 203.681 96.5918 201.338 96.5063C187.487 96.0121 174.23 91.8876 167.345 81.1582L173.123 77.5564C177.01 82.8261 187.197 90.4906 210.305 91.0656Z" fill="url(#paint4_linear)"/>
<path d="M216.055 101.016C216.829 100.531 217.114 99.4762 216.687 98.6684L213.954 93.4557C213.517 92.6337 212.975 92.0112 212.282 91.6025L203.543 97.048C204.337 97.5042 204.84 98.2312 205.373 99.2338L208.057 103.795C208.542 104.713 209.649 105.012 210.528 104.465L216.055 101.016Z" fill="url(#paint5_radial)"/>
<path d="M29.1262 17.6799L21.0054 23.0446C18.8529 24.4892 18.278 27.4067 19.7225 29.5593C21.167 31.7118 24.0846 32.2868 26.2371 30.8422L36.0494 24.2041L29.1262 17.6799Z" fill="#8A6FE8"/>
<path d="M33.9254 8.13866L24.631 5.23536C22.1554 4.47983 19.5277 5.87684 18.7722 8.35724C18.0166 10.8376 19.4136 13.4606 21.894 14.2161L31.4165 17.1955L33.9254 8.13866Z" fill="#8A6FE8"/>
<path d="M31.9582 14.1542L22.6021 11.4885C20.1027 10.7947 17.5177 12.2582 16.824 14.7577C16.1302 17.2571 17.5938 19.842 20.0932 20.5358L29.6917 23.2728L31.9582 14.1542Z" fill="#8A6FE8"/>
<path d="M37.109 6.15708L28.6177 1.4101C26.3463 0.160399 23.4906 0.996704 22.2408 3.26328C20.9911 5.53461 21.8227 8.3904 24.094 9.6401L32.8087 14.5059L37.109 6.15708Z" fill="#8A6FE8"/>
<path d="M32.2623 11.9922C40.6538 9.28845 54.3863 8.98434 65.4484 17.0433C72.1673 21.9376 80.1787 31.6881 80.1835 50.3719H69.8247C69.8199 39.0343 66.1991 30.4004 59.3519 25.4158C51.9344 20.0179 41.9986 19.7328 35.4412 21.852L32.2623 11.9922Z" fill="#8A6FE8"/>
<path d="M45.9758 18.0078C44.4933 23.2347 39.0526 26.2568 33.8352 24.7743C28.6178 23.2918 25.5862 17.8558 27.0687 12.6336C28.556 7.41623 33.9967 4.38463 39.2141 5.86717C44.4315 7.34971 47.4631 12.7904 45.9758 18.0078Z" fill="url(#paint6_radial)"/>
<path d="M67.0784 49.6829C54.2345 54.3728 46.8123 62.2132 46.8123 62.2132L45.0399 59.652L44.9448 59.6235C27.5155 77.1004 24.4791 105.06 39.0242 126.086C55.4081 149.778 87.9005 155.699 111.588 139.31C135.28 122.926 141.201 90.4337 124.812 66.7463C111.878 48.053 88.9221 40.4265 68.176 46.0906C67.3682 46.4137 66.1043 47.307 67.0784 49.6829Z" fill="url(#paint7_radial)"/>
<path d="M67.0783 49.6828C54.3912 54.3158 47.0023 62.0183 46.8217 62.2037L77.6034 106.708C77.6034 106.708 79.257 109.711 81.8182 107.939C84.3794 106.167 91.545 101.059 99.5469 95.5228C101.191 94.3824 101.053 92.4912 100.321 91.4268C100.321 91.4316 68.9458 48.9843 67.0783 49.6828Z" fill="url(#paint8_radial)"/>
<path d="M83.7616 73.7932C83.7616 73.7932 73.6119 70.6903 71.6827 70.0583C69.7583 69.4121 68.8887 68.2859 69.1073 66.3282C69.3164 64.3705 69.9389 53.8074 69.9389 53.8074L83.7616 73.7932Z" fill="#A08BE8"/>
<path d="M68.8032 45.9243C68.8032 45.9243 65.6955 46.3187 67.083 49.6877C67.0688 49.6924 97.3136 93.4701 97.3136 93.4701C98.0168 94.487 98.3162 96.2166 97.4086 97.0149C98.1166 96.5255 98.8294 96.0266 99.5516 95.5229C101.048 94.487 101.072 92.8334 100.511 91.7453C100.454 91.636 100.397 91.5267 100.326 91.4316L98.2591 88.4428L68.8032 45.9243Z" fill="#512BD4"/>
<path d="M78.0691 44.4085L129.231 118.379C130.904 114.763 132.153 110.985 132.961 107.117L89.9247 44.8885C86.014 44.285 82.0415 44.1187 78.0691 44.4085Z" fill="#D8CFF7"/>
<path d="M74.7001 175.499L65.2489 173.18C62.7352 172.544 61.2147 169.992 61.8514 167.474C62.4881 164.96 65.0398 163.439 67.5583 164.076L79.0337 167.032L74.7001 175.499Z" fill="#8A6FE8"/>
<path d="M82.4217 182.878L74.6479 188.733C72.5666 190.277 69.6253 189.845 68.081 187.763C66.5367 185.682 66.9691 182.741 69.0504 181.196L77.019 175.19L82.4217 182.878Z" fill="#8A6FE8"/>
<path d="M78.5538 177.875L70.6374 183.529C68.5134 185.021 65.5911 184.513 64.0991 182.394C62.607 180.27 63.1155 177.347 65.2347 175.855L73.3554 170.053L78.5538 177.875Z" fill="#8A6FE8"/>
<path d="M86.09 183.672L79.6846 190.995C77.9693 192.933 74.9947 193.109 73.056 191.394C71.1173 189.678 70.9415 186.704 72.6568 184.765L79.2285 177.253L86.09 183.672Z" fill="#8A6FE8"/>
<path d="M79.5611 179.804C88.3708 179.533 101.41 175.205 109.122 163.895C113.807 157.029 118.074 145.155 111.802 127.554L102.046 131.032C105.852 141.714 105.344 151.061 100.569 158.06C95.3986 165.635 86.1327 169.241 79.2427 169.455L79.5611 179.804Z" fill="url(#paint9_linear)"/>
<path d="M90.4616 169.531C87.3064 165.112 81.1719 164.09 76.7528 167.241C72.3384 170.391 71.3073 176.53 74.4625 180.949C77.6129 185.364 83.7521 186.39 88.1712 183.24C92.5856 180.085 93.6119 173.945 90.4616 169.531Z" fill="url(#paint10_radial)"/>
<path d="M58.1022 58.1741C54.9518 60.2791 53.4218 63.5055 54.6762 65.3777C55.9307 67.2499 59.4992 67.0598 62.6449 64.9548C65.7953 62.8498 67.3301 59.6186 66.0709 57.7512C64.8212 55.8743 61.2526 56.0691 58.1022 58.1741Z" fill="#512BD4"/>
<path d="M57.437 63.672C59.5135 64.0521 61.4997 62.6741 61.8751 60.6071C62.1317 59.1863 61.571 57.8083 60.5209 56.9578C59.7226 57.2429 58.9101 57.6515 58.1213 58.1742C56.577 59.2101 55.427 60.5121 54.7998 61.7903C55.332 62.7501 56.2776 63.4629 57.437 63.672Z" fill="#8065E0"/>
<path d="M84.6834 84.5939C83.3767 82.7597 79.8129 83.0543 76.7338 85.2544C73.6499 87.4544 72.2149 90.7236 73.5216 92.5578C74.8283 94.3919 78.3921 94.0973 81.4713 91.8973C84.5551 89.6972 85.9902 86.428 84.6834 84.5939Z" fill="#512BD4"/>
<path d="M76.2967 90.5574C78.3732 90.9375 80.3594 89.5595 80.7348 87.4925C80.9914 86.0812 80.4354 84.7127 79.3996 83.8574C78.511 84.171 77.6034 84.6367 76.7291 85.2592C75.3273 86.257 74.2772 87.4782 73.6547 88.6804C74.1964 89.6308 75.1373 90.3435 76.2967 90.5574Z" fill="#8065E0"/>
<path d="M113.911 118.516C110.837 114.211 104.859 113.209 100.554 116.283C96.2492 119.358 95.2466 125.335 98.321 129.64C101.395 133.945 107.373 134.948 111.678 131.874C115.983 128.804 116.981 122.822 113.911 118.516Z" fill="url(#paint11_radial)"/>
<path d="M41.9322 134.131L49.5065 140.474L41.9369 147.355L36.4962 142.807L41.9322 134.131Z" fill="#8A6FE8"/>
<path d="M41.7087 144.884C39.4517 141.719 35.0611 140.987 31.9012 143.244C28.7413 145.501 28.0048 149.892 30.2618 153.052C32.5189 156.217 36.9095 156.948 40.0694 154.691C43.2341 152.439 43.9658 148.048 41.7087 144.884Z" fill="#D0C5F3"/>
<path d="M43.0109 126.96C42.6687 126.675 42.146 126.742 41.9037 127.117C39.2998 131.047 40.0078 136.392 43.7046 139.491C47.4062 142.584 52.7899 142.342 56.2017 139.082C56.5248 138.773 56.4963 138.25 56.1541 137.965L43.0109 126.96Z" fill="url(#paint12_radial)"/>
<path d="M82.1128 55.4326L91.2836 68.286L104.137 59.1152L94.9662 46.2617L82.1128 55.4326Z" fill="#512BD4"/>
<path d="M97.8601 60.1367C97.9266 60.2318 97.9503 60.3268 97.9313 60.4361C97.9123 60.5406 97.8648 60.6309 97.7793 60.6927C97.689 60.7545 97.5987 60.7735 97.4847 60.7545C97.3801 60.7355 97.2898 60.6784 97.2281 60.5882C97.1615 60.4931 97.1378 60.3981 97.1521 60.2888C97.1663 60.1795 97.2186 60.094 97.3089 60.0322C97.3944 59.9704 97.4894 59.9514 97.5987 59.9704C97.7128 59.9847 97.7935 60.0417 97.8601 60.1367Z" fill="white"/>
<path d="M95.2228 56.5398L95.6409 57.129L94.2962 60.4362C94.2629 60.5217 94.2202 60.5978 94.1726 60.6738L94.1821 60.6881C94.2439 60.6263 94.396 60.5075 94.6288 60.3412L96.8194 58.7779L97.19 59.3006L93.8495 61.6859L93.4029 61.0587L94.7238 57.8418C94.7761 57.7087 94.8141 57.6137 94.8379 57.5709L94.8331 57.5614C94.7523 57.6374 94.6098 57.7562 94.396 57.9083L92.2434 59.4431L91.8728 58.9252L95.2228 56.5398Z" fill="white"/>
<path d="M93.4028 53.9927L94.7095 55.8221L91.3691 58.2075L90.1146 56.4493L90.585 56.1119L91.4499 57.3236L92.3954 56.6489L91.5972 55.5275L92.0676 55.1901L92.8659 56.3115L93.8542 55.6083L92.9324 54.3205L93.4028 53.9927Z" fill="white"/>
<path d="M88.6796 53.4413L89.3449 54.3773L92.2149 52.3293L92.5998 52.871L89.7298 54.919L90.395 55.8551L89.9246 56.1925L88.2045 53.7834L88.6796 53.4413Z" fill="white"/>
<path d="M142.455 200.184C186.456 178.801 179.461 135.214 179.461 135.214" stroke="#6FD0C3" stroke-width="3" stroke-miterlimit="10" stroke-linecap="round" stroke-linejoin="round"/>
<path d="M142.864 191.137C163.011 154.131 132.586 127.811 132.586 127.811" stroke="#6FD0C3" stroke-width="3" stroke-miterlimit="10" stroke-linecap="round" stroke-linejoin="round"/>
<path d="M207.373 259.804H210.452C210.904 259.804 211.265 259.438 211.265 258.992V226.091C211.265 225.639 210.899 225.278 210.452 225.278H207.373C206.922 225.278 206.561 225.644 206.561 226.091V258.992C206.561 259.443 206.922 259.804 207.373 259.804Z" fill="url(#paint13_linear)"/>
<path d="M211.284 252.667L212.462 258.607C212.462 259.319 211.783 259.899 210.942 259.899H206.884C206.043 259.899 205.363 259.319 205.363 258.607L206.542 252.667H211.284Z" fill="#605D5A"/>
<path d="M192.253 272.164H195.332C195.784 272.164 196.145 271.798 196.145 271.351V235.955C196.145 235.504 195.779 235.143 195.332 235.143H192.253C191.802 235.143 191.441 235.509 191.441 235.955V271.351C191.441 271.798 191.807 272.164 192.253 272.164Z" fill="url(#paint14_linear)"/>
<path d="M196.169 265.026L197.347 270.966C197.347 271.679 196.668 272.258 195.827 272.258H191.769C190.927 272.258 190.248 271.679 190.248 270.966L191.426 265.026H196.169Z" fill="#605D5A"/>
<path d="M30.1432 256.811H33.2223C33.6737 256.811 34.0348 256.445 34.0348 255.998V223.097C34.0348 222.646 33.669 222.285 33.2223 222.285H30.1432C29.6918 222.285 29.3306 222.651 29.3306 223.097V255.998C29.3306 256.45 29.6965 256.811 30.1432 256.811Z" fill="url(#paint15_linear)"/>
<path d="M34.0586 249.678L35.237 255.618C35.237 256.331 34.5575 256.911 33.7165 256.911H29.6585C28.8174 256.911 28.1379 256.331 28.1379 255.618L29.3164 249.678H34.0586Z" fill="#605D5A"/>
<path d="M15.0279 272.164H18.107C18.5584 272.164 18.9195 271.798 18.9195 271.351V235.955C18.9195 235.504 18.5537 235.143 18.107 235.143H15.0279C14.5765 235.143 14.2153 235.509 14.2153 235.955V271.351C14.2153 271.798 14.5765 272.164 15.0279 272.164Z" fill="url(#paint16_linear)"/>
<path d="M18.9385 265.026L20.117 270.966C20.117 271.679 19.4375 272.258 18.5964 272.258H14.5384C13.6974 272.258 13.0179 271.679 13.0179 270.966L14.1963 265.026H18.9385Z" fill="#605D5A"/>
<path d="M103.596 284.281H106.675C107.126 284.281 107.487 283.915 107.487 283.468V244.081C107.487 243.629 107.121 243.268 106.675 243.268H103.596C103.144 243.268 102.783 243.634 102.783 244.081V283.468C102.783 283.919 103.144 284.281 103.596 284.281Z" fill="url(#paint17_linear)"/>
<path d="M107.511 277.148L108.689 283.088C108.689 283.801 108.01 284.38 107.169 284.38H103.111C102.27 284.38 101.59 283.801 101.59 283.088L102.769 277.148H107.511Z" fill="#605D5A"/>
<path d="M0.791663 228.101V224.689H3.82802C15.7026 216.944 59.8842 211.194 112.581 211.194C166.323 211.194 211.208 217.177 222.004 225.155H224.479V228.861V228.956H224.47C224.137 238.669 174.173 246.523 112.581 246.523C50.7799 246.528 0.682373 238.621 0.682373 228.861C0.682373 228.609 0.725139 228.353 0.791663 228.101Z" fill="#6FD0C3"/>
<path d="M112.581 243.036C174.381 243.036 224.479 235.126 224.479 225.369C224.479 215.611 174.381 207.702 112.581 207.702C50.781 207.702 0.682373 215.611 0.682373 225.369C0.682373 235.126 50.781 243.036 112.581 243.036Z" fill="#BBE5E0"/>
<path d="M112.581 233.627C161.338 233.627 200.863 228.813 200.863 222.874C200.863 216.935 161.338 212.121 112.581 212.121C63.8238 212.121 24.2985 216.935 24.2985 222.874C24.2985 228.813 63.8238 233.627 112.581 233.627Z" fill="#6FD0C3"/>
<defs>
<linearGradient id="paint0_linear" x1="110.833" y1="58.6444" x2="153.938" y2="42.9561" gradientUnits="userSpaceOnUse">
<stop stop-color="#522CD5"/>
<stop offset="0.297" stop-color="#8A6FE8"/>
</linearGradient>
<linearGradient id="paint1_linear" x1="153.399" y1="55.8045" x2="167.836" y2="105.568" gradientUnits="userSpaceOnUse">
<stop stop-color="#522CD5"/>
<stop offset="0.4397" stop-color="#8A6FE8"/>
</linearGradient>
<radialGradient id="paint2_radial" cx="0" cy="0" r="1" gradientUnits="userSpaceOnUse" gradientTransform="translate(166.317 93.9355) rotate(12.8507) scale(8.89262)">
<stop offset="0.034" stop-color="#522CD5"/>
<stop offset="1" stop-color="#8A6FE8"/>
</radialGradient>
<linearGradient id="paint3_linear" x1="126.848" y1="82.4726" x2="169.661" y2="66.8897" gradientUnits="userSpaceOnUse">
<stop stop-color="#522CD5"/>
<stop offset="0.2911" stop-color="#8A6FE8"/>
</linearGradient>
<linearGradient id="paint4_linear" x1="170.117" y1="76.1278" x2="215.967" y2="101.579" gradientUnits="userSpaceOnUse">
<stop stop-color="#522CD5"/>
<stop offset="0.4397" stop-color="#8A6FE8"/>
</linearGradient>
<radialGradient id="paint5_radial" cx="0" cy="0" r="1" gradientUnits="userSpaceOnUse" gradientTransform="translate(203.383 87.0699) rotate(-31.9386) scale(15.7546)">
<stop offset="0.034" stop-color="#522CD5"/>
<stop offset="0.9955" stop-color="#8A6FE8"/>
</radialGradient>
<radialGradient id="paint6_radial" cx="0" cy="0" r="1" gradientUnits="userSpaceOnUse" gradientTransform="translate(33.3762 14.7627) rotate(105.878) scale(14.32)">
<stop stop-color="#8065E0"/>
<stop offset="1" stop-color="#512BD4"/>
</radialGradient>
<radialGradient id="paint7_radial" cx="0" cy="0" r="1" gradientUnits="userSpaceOnUse" gradientTransform="translate(63.1318 96.9229) rotate(-125.508) scale(51.9718)">
<stop offset="0.4744" stop-color="#A08BE8"/>
<stop offset="0.8618" stop-color="#8065E0"/>
</radialGradient>
<radialGradient id="paint8_radial" cx="0" cy="0" r="1" gradientUnits="userSpaceOnUse" gradientTransform="translate(42.5863 73.9569) rotate(-125.508) scale(58.6421)">
<stop offset="0.0933" stop-color="#E1DFDD"/>
<stop offset="0.6573" stop-color="white"/>
</radialGradient>
<linearGradient id="paint9_linear" x1="97.0992" y1="127.559" x2="97.0992" y2="179.805" gradientUnits="userSpaceOnUse">
<stop stop-color="#9780E6"/>
<stop offset="1" stop-color="#8A6FE8"/>
</linearGradient>
<radialGradient id="paint10_radial" cx="0" cy="0" r="1" gradientUnits="userSpaceOnUse" gradientTransform="translate(79.4126 177.157) rotate(-125.508) scale(14.3187)">
<stop stop-color="#8065E0"/>
<stop offset="1" stop-color="#512BD4"/>
</radialGradient>
<radialGradient id="paint11_radial" cx="0" cy="0" r="1" gradientUnits="userSpaceOnUse" gradientTransform="translate(102.485 127.153) rotate(-125.508) scale(11.9688)">
<stop stop-color="#8065E0"/>
<stop offset="1" stop-color="#512BD4"/>
</radialGradient>
<radialGradient id="paint12_radial" cx="0" cy="0" r="1" gradientUnits="userSpaceOnUse" gradientTransform="translate(45.3955 137.638) rotate(-125.508) scale(12.0468)">
<stop stop-color="#8065E0"/>
<stop offset="1" stop-color="#512BD4"/>
</radialGradient>
<linearGradient id="paint13_linear" x1="208.911" y1="259.805" x2="208.911" y2="225.277" gradientUnits="userSpaceOnUse">
<stop offset="0.7519" stop-color="#C8C6C4"/>
<stop offset="0.9103" stop-color="#B3AFAB"/>
</linearGradient>
<linearGradient id="paint14_linear" x1="193.794" y1="272.163" x2="193.794" y2="235.139" gradientUnits="userSpaceOnUse">
<stop offset="0.7519" stop-color="#C8C6C4"/>
<stop offset="0.9103" stop-color="#B3AFAB"/>
</linearGradient>
<linearGradient id="paint15_linear" x1="31.6833" y1="256.812" x2="31.6833" y2="222.283" gradientUnits="userSpaceOnUse">
<stop offset="0.7519" stop-color="#C8C6C4"/>
<stop offset="0.9103" stop-color="#B3AFAB"/>
</linearGradient>
<linearGradient id="paint16_linear" x1="16.5662" y1="272.163" x2="16.5662" y2="235.139" gradientUnits="userSpaceOnUse">
<stop offset="0.7519" stop-color="#C8C6C4"/>
<stop offset="0.9103" stop-color="#B3AFAB"/>
</linearGradient>
<linearGradient id="paint17_linear" x1="105.135" y1="284.283" x2="105.135" y2="243.268" gradientUnits="userSpaceOnUse">
<stop offset="0.7519" stop-color="#C8C6C4"/>
<stop offset="0.9103" stop-color="#B3AFAB"/>
</linearGradient>
</defs>
</svg>
