<svg width="212" height="223" viewBox="0 0 212 223" fill="none" xmlns="http://www.w3.org/2000/svg">
<path d="M170.443 155.569C179.223 166.471 197.391 170.445 198.443 170.515C199.499 170.581 175.559 183.008 175.559 183.008C175.559 183.008 159.91 169.713 159.19 160.728C159.125 159.889 170.443 155.569 170.443 155.569Z" fill="#A08BE8"/>
<path d="M175.732 180.843L196.891 170.263C196.891 170.263 203.466 171.07 205.975 172.782C207.895 174.093 209.895 178.198 210.727 180.06C210.961 180.577 210.741 181.189 210.232 181.44L189.853 191.708C189.199 192.039 188.4 191.773 188.078 191.115C186.956 188.853 184.134 184.258 182.592 183.316C180.288 181.916 175.732 180.843 175.732 180.843Z" fill="#D0C5F3"/>
<path d="M156.966 159.758C159.97 175.297 172.494 196.009 173.232 197.063C174.26 198.528 175.031 199.522 177.279 198.383C180.073 196.97 192.078 190.892 192.078 190.892L166.452 156.054L156.966 159.758Z" fill="#8065E0"/>
<path d="M170.442 155.569C174.765 161.75 186.176 167.74 203.76 171.154C205.816 171.551 207.185 172.377 208.054 174.079L210.825 179.533C211.237 180.34 210.914 181.324 210.106 181.734L189.867 191.983C189.297 192.272 188.601 192.044 188.311 191.475L185.115 185.182C184.12 183.222 183.213 182.415 180.466 181.991C173.587 180.932 164.213 170.361 159.709 161.75C155.195 153.134 170.442 155.569 170.442 155.569Z" fill="#A08BE8"/>
<path d="M207.181 172.834C207.512 173.188 207.807 173.594 208.054 174.079L210.825 179.533C211.237 180.34 210.914 181.324 210.106 181.734L189.867 191.983C189.297 192.272 188.601 192.044 188.311 191.475L185.115 185.182C184.947 184.846 184.774 184.547 184.601 184.277L207.181 172.834Z" fill="#D0C5F3"/>
<path d="M139.835 164.605L128.405 160.491C130.227 155.443 130.167 151.403 128.218 148.147C124.573 142.055 114.793 139.387 111.335 138.869L113.073 126.866C113.536 126.931 117.723 127.566 122.788 129.553C130.101 132.427 135.424 136.569 138.62 141.868C142.527 148.367 142.938 156.017 139.835 164.605Z" fill="url(#paint0_linear)"/>
<path d="M153.078 149.892C141.653 129.544 123.466 127.78 122.695 127.72L123.601 115.624C124.629 115.698 148.947 117.718 163.676 143.963L153.078 149.892Z" fill="url(#paint1_linear)"/>
<path d="M137.354 80.6557L128.274 72.5994C135.746 64.212 138.597 55.8898 136.307 49.1771C133.588 41.2048 123.7 35.2244 108.471 32.3368L110.737 20.4227C136.003 25.2089 144.84 36.5772 147.807 45.2679C151.569 56.291 147.859 68.8629 137.354 80.6557Z" fill="url(#paint2_linear)"/>
<path d="M137.074 56.2823L136.749 57.6437L148.409 60.4149L148.734 59.0535L137.074 56.2823Z" fill="#A08BE8"/>
<path d="M103.452 47.1106L114.335 34.1049C116.274 31.7865 115.966 28.3391 113.643 26.4032C111.321 24.4673 107.868 24.7752 105.928 27.0936L95.0453 40.0993C93.106 42.4177 93.4144 45.8651 95.7369 47.801C98.0593 49.7369 101.513 49.4291 103.452 47.1106Z" fill="#D0C5F3"/>
<path d="M107.288 14.3304L96.8863 9.63757C94.1059 8.40604 90.8536 9.65623 89.62 12.4318C88.3863 15.2074 89.6386 18.4542 92.419 19.6857L103.083 24.4999L107.288 14.3304Z" fill="#D0C5F3"/>
<path d="M101.657 16.8588L85.9145 16.8914C82.8724 16.9101 80.4238 19.3871 80.4425 22.424C80.4612 25.4608 82.9425 27.9052 85.9845 27.8912L97.6902 27.9005L101.657 16.8588Z" fill="#D0C5F3"/>
<path d="M103.354 23.3569L88.0174 26.9629C85.0547 27.6533 83.2136 30.6108 83.9052 33.5684C84.5968 36.5259 87.5594 38.3639 90.522 37.6735L106.139 34.0069L103.354 23.3569Z" fill="#D0C5F3"/>
<path d="M106.312 36.9085C112.678 36.9085 117.84 31.7561 117.84 25.4002C117.84 19.0444 112.678 13.892 106.312 13.892C99.945 13.892 94.7837 19.0444 94.7837 25.4002C94.7837 31.7561 99.945 36.9085 106.312 36.9085Z" fill="url(#paint3_radial)"/>
<path d="M143.097 36.7638C138.204 41.7599 134.625 45.5851 134.625 45.5851L135.303 46.7606L147.756 45.1419C146.849 42.5016 145.391 39.6234 143.097 36.7638Z" fill="#A08BE8"/>
<path d="M130.714 27.0294L124.996 37.5458L126.228 38.2135L131.946 27.6971L130.714 27.0294Z" fill="#A08BE8"/>
<path d="M75.6056 221.922C77.9514 221.922 79.8532 220.024 79.8532 217.682V155.317C79.8532 152.975 77.9514 151.077 75.6056 151.077C73.2598 151.077 71.3579 152.975 71.3579 155.317V217.682C71.3626 220.024 73.2645 221.922 75.6056 221.922Z" fill="url(#paint4_linear)"/>
<path d="M63.1385 59.4678L86.0357 141.584C89.6759 152.164 82.9656 163.425 72.2741 164.675L40.0077 168.444C31.7741 169.405 24.0357 163.952 21.8114 155.616L0.489012 68.9515C-1.67454 60.858 3.5778 52.7271 11.5731 51.7941L45.3114 47.8569C53.0918 46.9519 60.489 51.7708 63.1385 59.4678Z" fill="#2B579A"/>
<path d="M137.451 78.8644C134.222 63.1811 126.414 53.2356 126.414 53.2356L129.69 51.6262L129.741 51.5236C112.47 28.3251 80.5588 19.9983 53.6523 33.2232C23.3439 48.1229 10.8673 84.7282 25.7925 114.985C40.7177 145.241 77.3859 157.696 107.694 142.801C131.61 131.046 144.419 105.776 141.428 80.7677C141.199 79.7554 140.381 78.1414 137.451 78.8644Z" fill="url(#paint5_radial)"/>
<path d="M141.517 81.5094C141.517 81.5094 141.597 77.8428 137.452 78.8644C134.265 63.377 126.606 53.4874 126.419 53.2495L69.4798 81.2341C69.4798 81.2341 65.7134 82.6336 67.3256 85.9037C68.9377 89.1738 73.634 98.3496 78.6714 108.575C79.7088 110.679 81.9331 110.842 83.2882 110.175L141.76 81.4347C141.611 81.4814 141.517 81.5094 141.517 81.5094Z" fill="url(#paint6_radial)"/>
<path d="M110.097 92.2572C110.097 92.2572 113.438 85.2413 114.111 83.9164C114.784 82.5916 115.695 82.0878 117.092 82.4517C118.489 82.8155 126.078 84.4016 126.078 84.4016L110.097 92.2572Z" fill="#A08BE8"/>
<path d="M141.517 81.5094C141.517 81.5094 141.596 77.8428 137.451 78.8644C137.447 78.8458 137.442 78.8318 137.442 78.8178L81.4468 106.336C80.143 106.975 78.0869 107.026 77.3159 105.837C77.7645 106.737 78.2178 107.651 78.6711 108.575C79.6103 110.483 81.5262 110.791 82.8907 110.338C83.0262 110.292 83.1617 110.24 83.2925 110.18L87.1196 108.3L141.764 81.4441C141.61 81.4814 141.517 81.5094 141.517 81.5094Z" fill="url(#paint7_radial)"/>
<path d="M141.681 92.4999L47.0405 139.013C50.9424 141.57 55.1106 143.664 59.4658 145.274L139.078 106.145C140.452 101.722 141.33 97.1461 141.681 92.4999Z" fill="url(#paint8_radial)"/>
<path d="M128.781 95.3131L111.068 104.019L118.781 119.659L136.495 110.954L128.781 95.3131Z" fill="#512BD4"/>
<path d="M120.033 112.973C119.915 113.041 119.797 113.061 119.667 113.033C119.542 113.002 119.443 112.935 119.378 112.821C119.315 112.712 119.295 112.594 119.329 112.466C119.363 112.338 119.437 112.241 119.552 112.169C119.67 112.102 119.792 112.08 119.918 112.11C120.047 112.138 120.148 112.209 120.211 112.319C120.274 112.428 120.288 112.545 120.253 112.673C120.228 112.806 120.15 112.905 120.033 112.973Z" fill="white"/>
<path d="M124.603 110.15L123.852 110.6L120.011 108.662C119.914 108.615 119.824 108.553 119.739 108.489L119.722 108.499C119.792 108.582 119.917 108.77 120.094 109.068L121.758 111.847L121.097 112.245L118.561 108.002L119.36 107.524L123.09 109.429C123.248 109.506 123.352 109.565 123.402 109.595L123.414 109.588C123.328 109.486 123.206 109.303 123.045 109.034L121.411 106.297L122.069 105.901L124.603 110.15Z" fill="white"/>
<path d="M127.837 108.219L125.516 109.607L122.98 105.364L125.207 104.029L125.564 104.629L124.023 105.551L124.743 106.751L126.165 105.903L126.519 106.498L125.097 107.347L125.847 108.6L127.482 107.623L127.837 108.219Z" fill="white"/>
<path d="M128.957 102.6L127.769 103.312L129.948 106.956L129.263 107.368L127.083 103.725L125.9 104.435L125.543 103.836L128.602 102.005L128.957 102.6Z" fill="white"/>
<path d="M34.6807 219.31V218.326C34.6807 216.744 35.9658 215.461 37.5499 215.461H114.111C115.695 215.461 116.98 216.744 116.98 218.326V219.31C116.98 220.891 118.265 222.174 119.849 222.174H122.055C123.639 222.174 124.924 220.891 124.924 219.31V214.361C124.924 210.591 121.863 207.531 118.083 207.531H33.5779C29.8022 207.531 26.7368 210.587 26.7368 214.361V219.31C26.7368 220.891 28.0219 222.174 29.606 222.174H31.8116C33.3957 222.174 34.6807 220.891 34.6807 219.31Z" fill="#B3AFAB"/>
<path d="M123.143 156.581C121.802 150.153 117.816 144.065 109.681 144.532L41.0264 152.546C41.0171 152.532 41.0077 152.523 41.0077 152.523C27.8675 153.95 20.961 149.939 18.8535 144.103L21.8068 155.611C24.0358 163.947 31.7694 169.4 40.003 168.439L49.2367 167.362C49.2367 167.353 49.2367 167.348 49.2367 167.339C66.732 165.291 110.877 160.127 121.461 158.881C122.592 158.751 123.372 157.687 123.143 156.581Z" fill="#2B579A"/>
<path d="M82.3442 161.423C81.003 154.995 77.0171 148.908 68.8815 149.374L41.0264 152.546C41.0171 152.532 41.0077 152.523 41.0077 152.523C27.8675 153.95 20.961 149.939 18.8535 144.103L21.8068 155.611C24.0358 163.947 31.7694 169.4 40.003 168.439L49.2367 167.362C49.2367 167.353 49.2367 167.348 49.2367 167.339C66.732 165.291 70.0778 164.969 80.6666 163.723C81.7974 163.593 82.5731 162.529 82.3442 161.423Z" fill="#2B88D8"/>
<path d="M57.9561 27.0469L47.4701 32.4908L43.3486 20.9733L50.8813 17.0641L57.9561 27.0469Z" fill="#D0C5F3"/>
<path d="M43.1149 22.41C49.3139 22.41 54.3392 17.3933 54.3392 11.2049C54.3392 5.01655 49.3139 -0.00012207 43.1149 -0.00012207C36.9159 -0.00012207 31.8906 5.01655 31.8906 11.2049C31.8906 17.3933 36.9159 22.41 43.1149 22.41Z" fill="url(#paint9_radial)"/>
<path d="M65.3906 31.5345C65.8626 31.2872 66.0308 30.6854 65.7317 30.2423C62.5869 25.5587 56.3532 23.8887 51.227 26.5477C46.1056 29.2067 43.8953 35.2617 45.9327 40.519C46.1242 41.0135 46.7177 41.2281 47.1897 40.9808L65.3906 31.5345Z" fill="url(#paint10_radial)"/>
<path d="M47.7646 113.189L46.7506 101.102C35.545 102.035 27.1665 99.3246 23.1571 93.4655C18.4001 86.5102 19.5356 75.0253 26.3581 61.1333L15.4468 55.7966C4.12909 78.8505 7.9375 92.7285 13.1244 100.309C19.7085 109.933 32.0123 114.504 47.7646 113.189Z" fill="url(#paint11_linear)"/>
<path d="M28.3959 98.3393L23.623 109.315L24.909 109.872L29.6818 98.8966L28.3959 98.3393Z" fill="#A08BE8"/>
<path d="M41.2131 65.9847L24.2598 66.8757C21.2411 67.0343 18.6617 64.7205 18.5028 61.7023C18.3439 58.6888 20.6617 56.1138 23.6851 55.9552L40.6383 55.0642C43.657 54.9056 46.2365 57.2194 46.3953 60.2376C46.5495 63.2557 44.2318 65.8261 41.2131 65.9847Z" fill="#D0C5F3"/>
<path d="M12.6382 49.3917L15.1148 38.2707C15.7971 35.3131 18.7503 33.4612 21.713 34.1422C24.6756 34.8233 26.5307 37.7715 25.8485 40.7291L23.3111 52.1347L12.6382 49.3917Z" fill="#D0C5F3"/>
<path d="M18.0356 46.4109L27.5029 33.8577C29.3441 31.4413 32.7973 30.9655 35.2179 32.8034C37.6384 34.6414 38.1151 38.0887 36.274 40.5051L29.2646 49.8629L18.0356 46.4109Z" fill="#D0C5F3"/>
<path d="M22.2319 51.6636L34.3207 41.5735C36.6525 39.6235 40.1245 39.9221 42.0777 42.2499C44.031 44.5777 43.7319 48.0437 41.4002 49.9936L29.0917 60.2703L22.2319 51.6636Z" fill="#D0C5F3"/>
<path d="M22.0964 66.7544C28.4632 66.7544 33.6244 61.602 33.6244 55.2462C33.6244 48.8903 28.4632 43.7379 22.0964 43.7379C15.7296 43.7379 10.5684 48.8903 10.5684 55.2462C10.5684 61.602 15.7296 66.7544 22.0964 66.7544Z" fill="url(#paint12_radial)"/>
<path d="M9.13379 91.4503C16.073 90.536 21.2833 89.9762 21.2833 89.9762L21.816 91.2217L13.0544 100.197C11.4889 97.8878 10.0543 94.9956 9.13379 91.4503Z" fill="#A08BE8"/>
<path d="M8.76877 75.7195L8.56494 77.1041L20.4239 78.8439L20.6277 77.4593L8.76877 75.7195Z" fill="#A08BE8"/>
<path d="M46.9285 119.738C53.1326 119.738 58.1621 114.717 58.1621 108.524C58.1621 102.33 53.1326 97.3093 46.9285 97.3093C40.7243 97.3093 35.6948 102.33 35.6948 108.524C35.6948 114.717 40.7243 119.738 46.9285 119.738Z" fill="url(#paint13_radial)"/>
<path d="M153.556 130.521L144.797 138.98L145.772 139.986L154.53 131.527L153.556 130.521Z" fill="#A08BE8"/>
<path d="M136.756 132.716L135.564 131.979L141.952 121.66L143.209 122.369L136.756 132.716Z" fill="#A08BE8"/>
<path d="M162.428 140.562L149.727 147.653C148.157 148.53 147.596 150.508 148.475 152.075L154.643 163.084C155.522 164.652 157.503 165.211 159.073 164.334L171.774 157.244C173.344 156.367 173.905 154.389 173.026 152.822L166.858 141.812C165.98 140.245 163.998 139.685 162.428 140.562Z" fill="url(#paint14_radial)"/>
<path d="M124.475 144.07L123.321 143.272L130.223 133.29L131.442 134.059L124.475 144.07Z" fill="#A08BE8"/>
<path d="M128.998 150.158L128.676 148.796L140.494 145.983L140.886 147.368L128.998 150.158Z" fill="#A08BE8"/>
<path d="M138.115 176.123C136.157 189.973 145.676 205.922 146.349 206.734C147.022 207.545 121.569 198.617 121.569 198.617C121.569 198.617 120.583 178.128 126.653 171.453C127.213 170.837 138.115 176.123 138.115 176.123Z" fill="#A08BE8"/>
<path d="M123.26 197.264L145.466 205.432C145.466 205.432 149.377 210.773 149.84 213.773C150.195 216.068 148.564 220.332 147.774 222.212C147.555 222.734 146.961 222.995 146.428 222.799L124.985 214.986C124.298 214.734 123.943 213.973 124.2 213.288C125.083 210.923 126.513 205.726 126.143 203.958C125.592 201.318 123.26 197.264 123.26 197.264Z" fill="#D0C5F3"/>
<path d="M125.835 169.177C116.531 181.996 109.966 205.278 109.704 206.542C109.335 208.292 109.139 209.537 111.508 210.395C114.456 211.464 127.106 216.045 127.106 216.045L135.036 173.552L125.835 169.177Z" fill="#8065E0"/>
<path d="M138.115 176.122C136.554 183.498 139.984 195.906 149.517 211.044C150.629 212.812 150.965 214.375 150.316 216.171L148.227 221.918C147.919 222.767 146.979 223.205 146.124 222.897L124.793 215.168C124.19 214.948 123.881 214.286 124.096 213.684L126.508 207.051C127.26 204.984 127.227 203.771 125.657 201.481C121.727 195.748 123.036 181.692 126.246 172.521C129.456 163.35 138.115 176.122 138.115 176.122Z" fill="#A08BE8"/>
<path d="M150.629 214.687C150.601 215.172 150.503 215.662 150.316 216.175L148.228 221.922C147.919 222.771 146.98 223.21 146.125 222.902L124.793 215.172C124.19 214.953 123.882 214.291 124.097 213.689L126.508 207.055C126.639 206.701 126.742 206.374 126.821 206.062L150.629 214.687Z" fill="#D0C5F3"/>
<path d="M141.83 161.064L127.914 156.828C126.195 156.306 124.372 157.272 123.849 158.988L120.162 171.052C119.639 172.768 120.606 174.588 122.326 175.11L136.242 179.346C137.961 179.868 139.784 178.903 140.307 177.186L143.994 165.123C144.522 163.401 143.55 161.587 141.83 161.064Z" fill="url(#paint15_radial)"/>
<path d="M132.194 65.9054L117.839 73.0287C119.18 75.0626 123.05 75.4404 126.867 73.8217C130.956 72.0864 133.428 68.709 132.395 66.2786C132.335 66.148 132.269 66.022 132.194 65.9054Z" fill="#8065E0"/>
<path d="M101.344 81.2156L87.0264 88.3249C88.4843 90.1815 92.218 90.4894 95.9049 88.922C99.9937 87.1866 102.466 83.8093 101.433 81.3788C101.405 81.3229 101.372 81.2716 101.344 81.2156Z" fill="#8065E0"/>
<path d="M68.377 35.6163C68.8349 36.6426 69.9424 37.2677 71.1059 37.0764C86.3256 34.5574 101.798 39.1663 113.157 49.0651C116.223 51.7381 119.9 48.2255 116.545 45.3006C104.05 34.3941 87.0265 29.314 70.2742 32.085C68.891 32.3136 67.9564 33.6151 68.1854 34.9959C68.2228 35.2151 68.2882 35.425 68.377 35.6163Z" fill="url(#paint16_radial)"/>
<path d="M95.1852 139.079C94.6431 138.094 93.4843 137.563 92.3441 137.852C73.3534 142.661 52.9936 136.061 40.4702 121.03C39.573 119.957 37.9749 119.808 36.9001 120.704C35.8254 121.599 35.6758 123.195 36.573 124.268C50.3347 140.786 72.7179 148.045 93.5917 142.759C94.9515 142.414 95.7693 141.038 95.4282 139.68C95.3674 139.466 95.288 139.265 95.1852 139.079Z" fill="url(#paint17_radial)"/>
<defs>
<linearGradient id="paint0_linear" x1="111.334" y1="145.735" x2="141.892" y2="145.735" gradientUnits="userSpaceOnUse">
<stop offset="0.1788" stop-color="#958FE7"/>
<stop offset="0.4497" stop-color="#BBB7EF"/>
</linearGradient>
<linearGradient id="paint1_linear" x1="122.694" y1="132.757" x2="163.675" y2="132.757" gradientUnits="userSpaceOnUse">
<stop offset="0.1788" stop-color="#958FE7"/>
<stop offset="0.4497" stop-color="#BBB7EF"/>
</linearGradient>
<linearGradient id="paint2_linear" x1="128.855" y1="80.6572" x2="128.855" y2="20.4196" gradientUnits="userSpaceOnUse">
<stop offset="0.00837769" stop-color="#958FE7"/>
<stop offset="0.3141" stop-color="#BBB7EF"/>
</linearGradient>
<radialGradient id="paint3_radial" cx="0" cy="0" r="1" gradientUnits="userSpaceOnUse" gradientTransform="translate(106.309 19.7059) scale(15.205 15.1789)">
<stop stop-color="#A08BE8"/>
<stop offset="1" stop-color="#8065E0"/>
</radialGradient>
<linearGradient id="paint4_linear" x1="75.6076" y1="151.081" x2="75.6076" y2="221.921" gradientUnits="userSpaceOnUse">
<stop offset="0.1745" stop-color="#B3AFAB"/>
<stop offset="0.4382" stop-color="#E1DFDD"/>
</linearGradient>
<radialGradient id="paint5_radial" cx="0" cy="0" r="1" gradientUnits="userSpaceOnUse" gradientTransform="translate(85.0351 62.4072) scale(61.1867 61.0818)">
<stop offset="0.4744" stop-color="#A08BE8"/>
<stop offset="0.8618" stop-color="#8065E0"/>
</radialGradient>
<radialGradient id="paint6_radial" cx="0" cy="0" r="1" gradientUnits="userSpaceOnUse" gradientTransform="translate(95.4958 73.954) scale(33.3407 33.2835)">
<stop offset="0.00681444" stop-color="#E1DFDD"/>
<stop offset="0.7337" stop-color="white"/>
</radialGradient>
<radialGradient id="paint7_radial" cx="0" cy="0" r="1" gradientUnits="userSpaceOnUse" gradientTransform="translate(91.733 96.6595) scale(41.5381 41.4669)">
<stop stop-color="#512BD4"/>
<stop offset="0.7715" stop-color="#6645D9"/>
<stop offset="0.8738" stop-color="#7659DD"/>
<stop offset="0.9583" stop-color="#8065E0"/>
</radialGradient>
<radialGradient id="paint8_radial" cx="0" cy="0" r="1" gradientUnits="userSpaceOnUse" gradientTransform="translate(62.4745 131.155) scale(38.3266 38.2609)">
<stop offset="0.4614" stop-color="#A08BE8"/>
<stop offset="0.5268" stop-color="#A793EA"/>
<stop offset="0.8352" stop-color="#C5B7F0"/>
<stop offset="1" stop-color="#D0C5F3"/>
</radialGradient>
<radialGradient id="paint9_radial" cx="0" cy="0" r="1" gradientUnits="userSpaceOnUse" gradientTransform="translate(43.0489 6.64598) scale(15.2439 15.2178)">
<stop stop-color="#A08BE8"/>
<stop offset="1" stop-color="#8065E0"/>
</radialGradient>
<radialGradient id="paint10_radial" cx="0" cy="0" r="1" gradientUnits="userSpaceOnUse" gradientTransform="translate(55.0447 30.2834) scale(10.4189 10.4011)">
<stop stop-color="#8065E0"/>
<stop offset="0.8628" stop-color="#512BD4"/>
</radialGradient>
<linearGradient id="paint11_linear" x1="51.8812" y1="108.291" x2="4.67547" y2="68.6126" gradientUnits="userSpaceOnUse">
<stop offset="0.2566" stop-color="#958FE7"/>
<stop offset="0.4763" stop-color="#BBB7EF"/>
</linearGradient>
<radialGradient id="paint12_radial" cx="0" cy="0" r="1" gradientUnits="userSpaceOnUse" gradientTransform="translate(22.4733 50.7121) scale(15.151 15.125)">
<stop stop-color="#A08BE8"/>
<stop offset="1" stop-color="#8065E0"/>
</radialGradient>
<radialGradient id="paint13_radial" cx="0" cy="0" r="1" gradientUnits="userSpaceOnUse" gradientTransform="translate(47.2928 104.085) scale(12.8912 12.869)">
<stop stop-color="#8065E0"/>
<stop offset="0.8628" stop-color="#512BD4"/>
</radialGradient>
<radialGradient id="paint14_radial" cx="0" cy="0" r="1" gradientUnits="userSpaceOnUse" gradientTransform="translate(159.607 148.138) scale(18.6041 18.5722)">
<stop stop-color="#8065E0"/>
<stop offset="0.8628" stop-color="#512BD4"/>
</radialGradient>
<radialGradient id="paint15_radial" cx="0" cy="0" r="1" gradientUnits="userSpaceOnUse" gradientTransform="translate(132.423 162.166) scale(17.2389 17.2094)">
<stop stop-color="#8065E0"/>
<stop offset="0.8628" stop-color="#512BD4"/>
</radialGradient>
<radialGradient id="paint16_radial" cx="0" cy="0" r="1" gradientUnits="userSpaceOnUse" gradientTransform="translate(92.9669 41.0981) rotate(-114.154) scale(18.9177 18.9394)">
<stop offset="0.3607" stop-color="#BDB9F0"/>
<stop offset="0.5611" stop-color="#C3BCEB" stop-opacity="0.3855"/>
<stop offset="0.6338" stop-color="#CEC3E2" stop-opacity="0.3217"/>
<stop offset="0.8689" stop-color="#EDD6C9" stop-opacity="0.1152"/>
<stop offset="1" stop-color="#F9DDBF" stop-opacity="0"/>
</radialGradient>
<radialGradient id="paint17_radial" cx="0" cy="0" r="1" gradientUnits="userSpaceOnUse" gradientTransform="translate(65.7046 131.462) rotate(61.0122) scale(22.7456 22.7664)">
<stop stop-color="#BDB9F0"/>
<stop offset="0.5266" stop-color="#C3BCEB" stop-opacity="0.3855"/>
<stop offset="0.605" stop-color="#CEC3E2" stop-opacity="0.3217"/>
<stop offset="0.8586" stop-color="#EDD6C9" stop-opacity="0.1152"/>
<stop offset="1" stop-color="#F9DDBF" stop-opacity="0"/>
</radialGradient>
</defs>
</svg>
