<svg width="267" height="270" viewBox="0 0 267 270" fill="none" xmlns="http://www.w3.org/2000/svg">
<path d="M146.501 231.063C143.779 243.94 130.231 254.995 129.373 255.5C128.516 256.004 153.906 256.263 153.906 256.263C153.906 256.263 161.368 238.458 158.145 230.615C157.846 229.883 146.501 231.063 146.501 231.063Z" fill="#A08BE8"/>
<path d="M152.846 254.517L130.574 254.626C130.574 254.626 125.398 258.098 124.022 260.599C122.971 262.513 123.041 266.809 123.133 268.723C123.16 269.258 123.599 269.675 124.136 269.675L145.617 269.636C146.307 269.636 146.861 269.074 146.857 268.385C146.835 266.011 147.244 260.955 148.136 259.511C149.478 257.356 152.846 254.517 152.846 254.517Z" fill="#D0C5F3"/>
<path d="M159.601 228.851C163.708 243.167 162.028 265.861 161.856 267.064C161.619 268.727 161.395 269.89 159.024 269.89C156.074 269.89 143.41 269.89 143.41 269.89L150.063 229.773L159.601 228.851Z" fill="#8065E0"/>
<path d="M146.501 231.063C145.507 238.085 138.489 247.96 125.187 258.291C123.63 259.498 122.83 260.775 122.83 262.57V268.319C122.83 269.171 123.52 269.86 124.374 269.86H145.727C146.329 269.86 146.817 269.372 146.817 268.771V262.135C146.817 260.068 147.235 259.006 149.359 257.483C154.68 253.674 158.039 240.824 158.149 231.682C158.259 222.54 146.501 231.063 146.501 231.063Z" fill="#A08BE8"/>
<path d="M123.032 261.157C122.905 261.596 122.83 262.061 122.83 262.57V268.319C122.83 269.171 123.52 269.86 124.374 269.86H145.727C146.329 269.86 146.817 269.372 146.817 268.771V262.135C146.817 261.78 146.831 261.46 146.861 261.157H123.032Z" fill="#D0C5F3"/>
<path d="M211.783 231.168C211.567 244.045 200.174 255.1 199.413 255.605C198.652 256.11 224.095 256.369 224.095 256.369C224.095 256.369 228.092 238.564 223.339 230.721C222.895 229.988 211.783 231.168 211.783 231.168Z" fill="#A08BE8"/>
<path d="M222.693 254.626L200.442 254.736C200.442 254.736 195.944 258.207 195.056 260.709C194.379 262.623 195.284 266.919 195.751 268.833C195.882 269.368 196.401 269.785 196.938 269.785L218.41 269.745C219.1 269.745 219.544 269.184 219.404 268.495C218.92 266.12 218.339 261.065 218.955 259.621C219.879 257.461 222.693 254.626 222.693 254.626Z" fill="#D0C5F3"/>
<path d="M224.452 228.961C231.347 243.277 234.086 265.971 234.148 267.174C234.236 268.837 234.236 270 231.866 270C228.915 270 216.251 270 216.251 270L215.09 229.883L224.452 228.961Z" fill="#8065E0"/>
<path d="M211.783 231.168C212.161 238.19 207.06 248.065 195.772 258.396C194.453 259.603 193.899 260.88 194.251 262.675L195.372 268.424C195.539 269.276 196.362 269.965 197.215 269.965H218.568C219.17 269.965 219.562 269.478 219.448 268.877L218.155 262.241C217.75 260.174 217.961 259.112 219.791 257.589C224.368 253.779 225.226 240.929 223.555 231.787C221.884 222.65 211.783 231.168 211.783 231.168Z" fill="#A08BE8"/>
<path d="M194.176 261.262C194.132 261.701 194.15 262.166 194.251 262.675L195.372 268.425C195.539 269.276 196.361 269.965 197.215 269.965H218.568C219.17 269.965 219.562 269.478 219.447 268.877L218.154 262.241C218.084 261.885 218.036 261.565 218.009 261.262H194.176Z" fill="#D0C5F3"/>
<path d="M210.508 222.233L221.646 219.661L213.3 183.651L202.162 186.223L210.508 222.233Z" fill="url(#paint0_linear)"/>
<path d="M208.635 214.522H222.328C224.021 214.522 225.661 215.891 225.987 217.581L228.3 229.448C228.629 231.138 227.521 232.507 225.833 232.507H212.139C210.447 232.507 208.806 231.138 208.481 229.448L206.168 217.581C205.838 215.891 206.946 214.522 208.635 214.522Z" fill="url(#paint1_radial)"/>
<path d="M218.885 207.754L207.157 207.781L206.854 206.464L218.582 206.438L218.885 207.754Z" fill="#A08BE8"/>
<path d="M216.246 196.366L204.519 196.392L204.211 195.075L215.939 195.049L216.246 196.366Z" fill="#A08BE8"/>
<path d="M148.264 219.477H159.697C159.697 207.079 164.789 196.317 169.631 189.3C172.335 185.381 162.863 178.67 159.077 184.512C153.431 193.215 148.264 205.459 148.264 219.477Z" fill="url(#paint2_linear)"/>
<path d="M155.587 190.487L155.052 191.691L165.362 196.255L165.897 195.052L155.587 190.487Z" fill="#A08BE8"/>
<path d="M146.642 214.522H160.335C162.028 214.522 163.4 215.891 163.4 217.581V229.448C163.4 231.138 162.028 232.507 160.335 232.507H146.642C144.949 232.507 143.577 231.138 143.577 229.448V217.581C143.577 215.891 144.949 214.522 146.642 214.522Z" fill="url(#paint3_radial)"/>
<path d="M150.894 201.97L150.556 203.242L161.458 206.125L161.796 204.853L150.894 201.97Z" fill="#A08BE8"/>
<path d="M126.053 111.952H6.39808C2.86265 111.952 0 109.091 0 105.567V6.38562C0 2.85707 2.86265 0 6.39808 0H126.053C129.589 0 132.451 2.85707 132.451 6.38562V105.567C132.451 109.091 129.584 111.952 126.053 111.952Z" fill="#EFEEED"/>
<path d="M18.5347 12.2885C18.5347 12.2885 53.5505 10.6559 80.2202 11.797C89.217 12.1832 96.2571 11.1431 96.2571 11.1431L96.7496 26.4949C96.7496 26.4949 65.6607 26.6573 37.5179 26.9864C29.1674 27.083 19.357 29.4354 18.7018 26.0077C18.0466 22.5801 18.7018 16.3745 18.7018 16.3745" stroke="#A7CBF6" stroke-width="4" stroke-miterlimit="10" stroke-linecap="round" stroke-linejoin="round"/>
<path d="M19.0229 39.8893L22.4572 43.4837C22.4572 43.4837 25.5661 38.2567 28.3496 35.483" stroke="#C8C6C4" stroke-width="4" stroke-miterlimit="10" stroke-linecap="round" stroke-linejoin="round"/>
<path d="M39.9673 37.1112C57.473 36.6196 87.0888 36.7864 87.0888 36.7864" stroke="#C8C6C4" stroke-width="4" stroke-miterlimit="10" stroke-linecap="round" stroke-linejoin="round"/>
<path d="M37.021 42.8297C37.9136 43.2905 54.342 43.2422 57.6356 42.8297" stroke="#C8C6C4" stroke-width="4" stroke-miterlimit="10" stroke-linecap="round" stroke-linejoin="round"/>
<path d="M19.3525 59.1559L23.442 62.7503C23.442 62.7503 24.9151 56.707 28.5121 54.7496" stroke="#C8C6C4" stroke-width="4" stroke-miterlimit="10" stroke-linecap="round" stroke-linejoin="round"/>
<path d="M37.8389 55.7283C48.6386 54.5872 55.1818 55.8907 59.9265 56.053C64.6712 56.2154 69.2532 55.8073 69.2532 55.8073" stroke="#C8C6C4" stroke-width="4" stroke-miterlimit="10" stroke-linecap="round" stroke-linejoin="round"/>
<path d="M23.7676 71.4049C25.078 71.4049 55.8372 70.751 57.1476 70.751C58.458 70.751 59.4386 74.5077 59.4386 81.5297C59.4386 88.5517 59.6013 97.2063 59.6013 97.2063C59.6013 97.2063 25.7332 97.3687 24.2601 97.2063C22.787 97.0439 23.6049 89.5304 23.2795 83.8163C22.9497 78.1021 23.7676 71.4049 23.7676 71.4049Z" stroke="#A7CBF6" stroke-width="4" stroke-miterlimit="10" stroke-linecap="round" stroke-linejoin="round"/>
<path d="M23.605 89.2056C24.5856 89.2056 60.2565 89.0433 63.6908 89.368" stroke="#A7CBF6" stroke-width="4" stroke-miterlimit="10" stroke-linecap="round" stroke-linejoin="round"/>
<path d="M83.1792 93.7085L94.5638 92.6727C95.65 104.579 99.3041 114.129 105.421 121.064C110.803 127.164 118.23 131.408 127.504 133.677L124.782 144.758C107.549 140.541 86.3365 128.261 83.1792 93.7085Z" fill="url(#paint4_linear)"/>
<path d="M111.139 126.605L104.562 135.75L105.634 136.518L112.211 127.373L111.139 126.605Z" fill="#A08BE8"/>
<path d="M80.6333 87.4063L77.4585 77.1673C76.6318 74.4331 78.184 71.5453 80.9236 70.7203C83.6631 69.8952 86.5565 71.4444 87.3832 74.1786L90.6372 84.6809L80.6333 87.4063Z" fill="#D0C5F3"/>
<path d="M88.0825 88.2051L85.1715 77.8871C84.4152 75.131 86.0378 72.2871 88.7993 71.5322C91.5608 70.7774 94.4102 72.3968 95.1666 75.1529L98.1524 85.7342L88.0825 88.2051Z" fill="#D0C5F3"/>
<path d="M78.3467 95.2577L73.2327 85.8307C71.8871 83.3071 72.8457 80.178 75.3698 78.835C77.8982 77.4921 81.0335 78.4488 82.3791 80.9679L87.6251 90.6363L78.3467 95.2577Z" fill="#D0C5F3"/>
<path d="M103.465 118.796L94.9316 126.157L95.7943 127.153L104.328 119.792L103.465 118.796Z" fill="#A08BE8"/>
<path d="M98.4655 109.656L87.9805 113.804L88.4666 115.028L98.9516 110.88L98.4655 109.656Z" fill="#A08BE8"/>
<path d="M261.494 202.729L250.809 198.674C255.066 187.5 255.985 177.318 253.54 168.405C251.39 160.567 246.579 153.496 239.24 147.396L246.557 138.632C260.193 149.972 273.851 170.296 261.494 202.729Z" fill="url(#paint5_linear)"/>
<path d="M260.151 154.425L250.22 159.762L250.845 160.922L260.776 155.585L260.151 154.425Z" fill="#A08BE8"/>
<path d="M251.39 205.626L242.12 211.042C239.64 212.468 236.47 211.617 235.04 209.141C233.611 206.666 234.464 203.502 236.944 202.075L246.451 196.519L251.39 205.626Z" fill="#D0C5F3"/>
<path d="M262.049 206.662L260.4 217.256C259.942 220.074 257.278 221.992 254.455 221.531C251.631 221.074 249.71 218.415 250.172 215.597L251.865 204.735L262.049 206.662Z" fill="#D0C5F3"/>
<path d="M254.67 205.525L252.749 216.071C252.217 218.88 249.508 220.723 246.694 220.192C243.879 219.661 242.032 216.958 242.564 214.149L244.534 203.335L254.67 205.525Z" fill="#D0C5F3"/>
<path d="M266.516 203.453L266.969 214.162C267.07 217.015 264.832 219.411 261.969 219.512C259.107 219.613 256.71 217.379 256.609 214.522L256.147 203.537L266.516 203.453Z" fill="#D0C5F3"/>
<path d="M256.152 211.529C262.143 211.529 267 206.681 267 200.702C267 194.722 262.143 189.875 256.152 189.875C250.161 189.875 245.304 194.722 245.304 200.702C245.304 206.681 250.161 211.529 256.152 211.529Z" fill="url(#paint6_radial)"/>
<path d="M264.862 167.162L253.958 170.038L254.295 171.311L265.199 168.435L264.862 167.162Z" fill="#A08BE8"/>
<path d="M254.879 180.403L254.777 181.716L266.023 182.581L266.124 181.269L254.879 180.403Z" fill="#A08BE8"/>
<path d="M86.825 89.4163L83.7161 65.524C83.3775 62.6888 85.409 60.1127 88.2497 59.7791C91.0903 59.4412 93.6716 61.4688 94.0058 64.3039L97.1498 88.4639L86.825 89.4163Z" fill="#D0C5F3"/>
<path d="M127.949 152.943C133.787 152.943 138.52 148.22 138.52 142.393C138.52 136.566 133.787 131.842 127.949 131.842C122.11 131.842 117.377 136.566 117.377 142.393C117.377 148.22 122.11 152.943 127.949 152.943Z" fill="url(#paint7_radial)"/>
<path d="M242.973 152.943C248.811 152.943 253.544 148.22 253.544 142.393C253.544 136.566 248.811 131.842 242.973 131.842C237.135 131.842 232.402 136.566 232.402 142.393C232.402 148.22 237.135 152.943 242.973 152.943Z" fill="url(#paint8_radial)"/>
<path d="M79.9476 54.3371L74.8424 51.6161C74.4862 51.4273 74.042 51.4888 73.7518 51.7697C73.4616 52.0505 73.3868 52.4894 73.5671 52.8537L76.1352 58.028C76.1791 58.1158 76.2363 58.1948 76.3023 58.265L108.873 91.7731C109.234 92.1417 109.823 92.1505 110.192 91.795L112.725 89.3417C113.095 88.9818 113.103 88.3937 112.747 88.0251L80.1763 54.517C80.1103 54.438 80.0312 54.381 79.9476 54.3371Z" fill="#FAE969"/>
<path d="M78.6988 57.3659L73.7518 51.7659C73.4616 52.0467 73.3868 52.4856 73.5671 52.8499L76.1352 58.0242C76.1791 58.112 76.2363 58.191 76.3023 58.2612L108.873 91.7693C109.234 92.1379 109.823 92.1467 110.192 91.7912L111.085 90.9266L78.6988 57.3659Z" fill="#E8D441"/>
<path d="M76.1352 58.0236L80.0752 54.4336C80.0312 54.4029 79.996 54.3634 79.9476 54.3371L74.8424 51.6161C74.4862 51.4273 74.042 51.4888 73.7518 51.7697C73.4616 52.0505 73.3868 52.4894 73.5671 52.8537L76.1352 58.0236Z" fill="#B3AFAB"/>
<path d="M87.9155 91.7906L99.0011 74.5779C100.602 72.2124 103.825 71.5848 106.195 73.1867C108.57 74.7842 109.194 78.0011 107.589 80.3667L96.354 97.8032L87.9155 91.7906Z" fill="#D0C5F3"/>
<path d="M88.874 104.018C94.8653 104.018 99.7222 99.1702 99.7222 93.1906C99.7222 87.211 94.8653 82.3635 88.874 82.3635C82.8828 82.3635 78.0259 87.211 78.0259 93.1906C78.0259 99.1702 82.8828 104.018 88.874 104.018Z" fill="url(#paint9_radial)"/>
<path d="M185.333 194.492C217.126 194.492 242.898 168.769 242.898 137.039C242.898 105.308 217.126 79.5854 185.333 79.5854C153.541 79.5854 127.768 105.308 127.768 137.039C127.768 168.769 153.541 194.492 185.333 194.492Z" fill="url(#paint10_radial)"/>
<path d="M137.587 137.039C137.587 143.262 138.792 149.2 140.969 154.646C141.497 155.967 142.776 156.832 144.201 156.832H226.466C227.89 156.832 229.17 155.967 229.698 154.646C231.874 149.2 233.079 143.262 233.079 137.039C233.079 134.493 232.873 132 232.486 129.565C232.217 127.892 230.753 126.672 229.056 126.672H141.611C139.914 126.672 138.449 127.892 138.181 129.565C137.794 132 137.587 134.497 137.587 137.039Z" fill="url(#paint11_radial)"/>
<path d="M234.965 166.136H135.696C137.926 169.915 140.573 173.412 143.581 176.572H227.085C230.089 173.412 232.736 169.915 234.965 166.136Z" fill="url(#paint12_radial)"/>
<path d="M194.682 163.152H176.103V179.552H194.682V163.152Z" fill="#512BD4"/>
<path d="M179.491 174.214C179.356 174.214 179.243 174.172 179.145 174.083C179.051 173.994 179 173.886 179 173.755C179 173.629 179.042 173.517 179.136 173.423C179.229 173.329 179.341 173.283 179.477 173.278C179.613 173.278 179.73 173.32 179.823 173.409C179.922 173.498 179.973 173.61 179.973 173.737C179.973 173.863 179.926 173.971 179.833 174.064C179.744 174.167 179.627 174.214 179.491 174.214Z" fill="white"/>
<path d="M184.861 174.055L183.986 174.069L181.628 170.47C181.568 170.381 181.521 170.282 181.479 170.184H181.46C181.479 170.292 181.493 170.516 181.497 170.863L181.549 174.102L180.777 174.116L180.702 169.173L181.633 169.159L183.911 172.674C184.009 172.819 184.07 172.922 184.098 172.974H184.112C184.089 172.843 184.075 172.623 184.07 172.309L184.023 169.122L184.791 169.108L184.861 174.055Z" fill="white"/>
<path d="M188.627 173.999L185.923 174.041L185.849 169.098L188.445 169.056L188.454 169.754L186.658 169.782L186.681 171.181L188.337 171.158L188.347 171.85L186.691 171.874L186.714 173.334L188.618 173.306L188.627 173.999Z" fill="white"/>
<path d="M192.406 169.693L191.022 169.716L191.087 173.961L190.287 173.975L190.222 169.73L188.842 169.753L188.833 169.056L192.397 169L192.406 169.693Z" fill="white"/>
<path d="M232.486 129.565C232.217 127.892 230.753 126.672 229.056 126.672H225.041C226.738 126.672 228.203 127.892 228.471 129.565C228.858 132 229.065 134.493 229.065 137.039C229.065 141.862 228.335 146.51 226.993 150.894C226.501 152.101 225.195 152.825 223.863 152.825H146.831C145.406 152.825 143.999 152.004 143.599 150.639C143.313 149.669 143.053 148.678 142.82 147.699C142.029 144.271 141.602 140.703 141.602 137.039C141.602 134.493 141.809 132 142.196 129.565C142.464 127.892 143.928 126.672 145.626 126.672H141.611C139.914 126.672 138.449 127.892 138.181 129.565C137.794 132 137.587 134.493 137.587 137.039C137.587 143.262 138.792 149.2 140.969 154.646C141.497 155.967 142.776 156.832 144.201 156.832H148.216H222.455H226.466H226.47C227.895 156.832 229.174 155.967 229.702 154.646C231.879 149.2 233.084 143.262 233.084 137.039C233.079 134.497 232.873 132 232.486 129.565Z" fill="url(#paint13_radial)"/>
<path d="M176.987 152.825C176.987 152.825 182.726 148.291 183.847 147.453C184.968 146.615 185.949 146.567 186.974 147.453C188.003 148.34 193.75 152.825 193.75 152.825H176.987Z" fill="#A08BE8"/>
<path d="M190.839 75.9999H179.718L181.283 64.6023H189.273L190.839 75.9999Z" fill="#D0C5F3"/>
<path d="M185.338 66.8844C191.171 66.8844 195.9 62.1647 195.9 56.3427C195.9 50.5206 191.171 45.8009 185.338 45.8009C179.504 45.8009 174.775 50.5206 174.775 56.3427C174.775 62.1647 179.504 66.8844 185.338 66.8844Z" fill="url(#paint14_radial)"/>
<path d="M195.095 82.9692C195.597 82.9692 195.997 82.5347 195.944 82.0388C195.355 76.7679 190.878 72.6688 185.443 72.6688C180.004 72.6688 175.532 76.7679 174.942 82.0388C174.885 82.5347 175.29 82.9692 175.791 82.9692H195.095Z" fill="url(#paint15_radial)"/>
<path d="M138.673 117.171C139.715 117.364 140.793 116.842 141.263 115.841C147.441 102.727 159.283 93.2301 173.034 89.7322C176.745 88.7887 175.984 84.0707 171.921 85.1021C156.781 88.9335 143.743 99.3831 136.945 113.813C136.382 115.003 136.897 116.425 138.088 116.982C138.282 117.074 138.475 117.136 138.673 117.171Z" fill="url(#paint16_radial)"/>
<path d="M232.353 153.681C231.298 153.575 230.269 154.185 229.882 155.221C223.467 172.473 207.465 184.687 189.115 186.337C187.8 186.456 186.833 187.614 186.951 188.922C187.07 190.235 188.231 191.2 189.541 191.082C209.716 189.265 227.305 175.839 234.354 156.876C234.812 155.642 234.183 154.273 232.947 153.812C232.754 153.747 232.556 153.698 232.353 153.681Z" fill="url(#paint17_radial)"/>
<path d="M211.059 140.123C211.121 135.95 209.156 132.536 206.669 132.499C204.182 132.462 202.116 135.816 202.054 139.989C201.991 144.163 203.957 147.576 206.443 147.613C208.93 147.65 210.996 144.296 211.059 140.123Z" fill="#512BD4"/>
<path d="M166.009 147.594C168.495 147.557 170.461 144.144 170.398 139.97C170.336 135.797 168.27 132.443 165.783 132.48C163.297 132.517 161.331 135.931 161.394 140.104C161.456 144.277 163.522 147.631 166.009 147.594Z" fill="#512BD4"/>
<path d="M164.666 132.738C162.735 133.607 161.341 136.578 161.394 140.097C161.394 140.194 161.403 140.291 161.407 140.387C163.03 141.37 165.167 141.168 166.57 139.768C168.214 138.127 168.214 135.467 166.57 133.826C166.024 133.282 165.36 132.922 164.666 132.738Z" fill="#8065E0"/>
<path d="M207.21 134.072C206.62 133.484 205.895 133.106 205.134 132.939C203.388 133.966 202.109 136.723 202.056 139.992C202.052 140.212 202.056 140.427 202.065 140.642C203.683 141.612 205.811 141.405 207.205 140.014C208.854 138.377 208.854 135.713 207.21 134.072Z" fill="#8065E0"/>
<defs>
<linearGradient id="paint0_linear" x1="211.903" y1="183.653" x2="211.903" y2="222.232" gradientUnits="userSpaceOnUse">
<stop offset="0.1788" stop-color="#958FE7"/>
<stop offset="0.4497" stop-color="#BBB7EF"/>
</linearGradient>
<radialGradient id="paint1_radial" cx="0" cy="0" r="1" gradientUnits="userSpaceOnUse" gradientTransform="translate(216.457 219.295) scale(14.3046 14.2768)">
<stop stop-color="#8065E0"/>
<stop offset="0.8628" stop-color="#512BD4"/>
</radialGradient>
<linearGradient id="paint2_linear" x1="159.187" y1="182.218" x2="159.187" y2="219.476" gradientUnits="userSpaceOnUse">
<stop offset="0.1835" stop-color="#958FE7"/>
<stop offset="0.4497" stop-color="#BBB7EF"/>
</linearGradient>
<radialGradient id="paint3_radial" cx="0" cy="0" r="1" gradientUnits="userSpaceOnUse" gradientTransform="translate(153.119 217.508) scale(13.21 13.1843)">
<stop stop-color="#8065E0"/>
<stop offset="1" stop-color="#512BD4"/>
</radialGradient>
<linearGradient id="paint4_linear" x1="131.688" y1="132.829" x2="78.3864" y2="101.995" gradientUnits="userSpaceOnUse">
<stop offset="0.1306" stop-color="#958FE7"/>
<stop offset="0.3245" stop-color="#BBB7EF"/>
</linearGradient>
<linearGradient id="paint5_linear" x1="242.486" y1="140.109" x2="264.797" y2="201.528" gradientUnits="userSpaceOnUse">
<stop offset="0.167" stop-color="#958FE7"/>
<stop offset="0.3179" stop-color="#BBB7EF"/>
</linearGradient>
<radialGradient id="paint6_radial" cx="0" cy="0" r="1" gradientUnits="userSpaceOnUse" gradientTransform="translate(256.098 195.006) scale(15.3054 15.2755)">
<stop stop-color="#A08BE8"/>
<stop offset="1" stop-color="#8065E0"/>
</radialGradient>
<radialGradient id="paint7_radial" cx="0" cy="0" r="1" gradientUnits="userSpaceOnUse" gradientTransform="translate(126.12 136.516) scale(10.5712 10.5506)">
<stop stop-color="#8065E0"/>
<stop offset="1" stop-color="#512BD4"/>
</radialGradient>
<radialGradient id="paint8_radial" cx="0" cy="0" r="1" gradientUnits="userSpaceOnUse" gradientTransform="translate(244.701 137.224) scale(10.5712 10.5506)">
<stop stop-color="#8065E0"/>
<stop offset="1" stop-color="#512BD4"/>
</radialGradient>
<radialGradient id="paint9_radial" cx="0" cy="0" r="1" gradientUnits="userSpaceOnUse" gradientTransform="translate(88.7613 88.0895) scale(16.2654 16.2337)">
<stop stop-color="#A08BE8"/>
<stop offset="1" stop-color="#8065E0"/>
</radialGradient>
<radialGradient id="paint10_radial" cx="0" cy="0" r="1" gradientUnits="userSpaceOnUse" gradientTransform="translate(176.554 120.186) scale(57.5664 57.4544)">
<stop offset="0.4744" stop-color="#A08BE8"/>
<stop offset="0.8618" stop-color="#8065E0"/>
</radialGradient>
<radialGradient id="paint11_radial" cx="0" cy="0" r="1" gradientUnits="userSpaceOnUse" gradientTransform="translate(201.641 116.242) scale(55.3881 55.2804)">
<stop offset="0.0933" stop-color="#E1DFDD"/>
<stop offset="0.8998" stop-color="white"/>
</radialGradient>
<radialGradient id="paint12_radial" cx="0" cy="0" r="1" gradientUnits="userSpaceOnUse" gradientTransform="translate(226.127 171.973) scale(35.2906 35.2219)">
<stop offset="0.4614" stop-color="#A08BE8"/>
<stop offset="0.5268" stop-color="#A793EA"/>
<stop offset="0.8352" stop-color="#C5B7F0"/>
<stop offset="1" stop-color="#D0C5F3"/>
</radialGradient>
<radialGradient id="paint13_radial" cx="0" cy="0" r="1" gradientUnits="userSpaceOnUse" gradientTransform="translate(201.183 143.516) scale(50.6378 50.5392)">
<stop stop-color="#512BD4"/>
<stop offset="0.7715" stop-color="#6645D9"/>
<stop offset="0.8738" stop-color="#7659DD"/>
<stop offset="0.9583" stop-color="#8065E0"/>
</radialGradient>
<radialGradient id="paint14_radial" cx="0" cy="0" r="1" gradientUnits="userSpaceOnUse" gradientTransform="translate(187.305 51.9127) scale(10.5626 10.5421)">
<stop stop-color="#A08BE8"/>
<stop offset="1" stop-color="#8065E0"/>
</radialGradient>
<radialGradient id="paint15_radial" cx="0" cy="0" r="1" gradientUnits="userSpaceOnUse" gradientTransform="translate(185.476 75.7138) scale(8.27731 8.2612)">
<stop stop-color="#8065E0"/>
<stop offset="1" stop-color="#512BD4"/>
</radialGradient>
<radialGradient id="paint16_radial" cx="0" cy="0" r="1" gradientUnits="userSpaceOnUse" gradientTransform="translate(156.059 101.072) rotate(-169.539) scale(17.8263 17.7939)">
<stop offset="0.3607" stop-color="#BDB9F0"/>
<stop offset="0.5611" stop-color="#C3BCEB" stop-opacity="0.3855"/>
<stop offset="0.6338" stop-color="#CEC3E2" stop-opacity="0.3217"/>
<stop offset="0.8689" stop-color="#EDD6C9" stop-opacity="0.1152"/>
<stop offset="1" stop-color="#F9DDBF" stop-opacity="0"/>
</radialGradient>
<radialGradient id="paint17_radial" cx="0" cy="0" r="1" gradientUnits="userSpaceOnUse" gradientTransform="translate(210.686 172.314) rotate(5.64207) scale(21.4305 21.3896)">
<stop stop-color="#BDB9F0"/>
<stop offset="0.5266" stop-color="#C3BCEB" stop-opacity="0.3855"/>
<stop offset="0.605" stop-color="#CEC3E2" stop-opacity="0.3217"/>
<stop offset="0.8586" stop-color="#EDD6C9" stop-opacity="0.1152"/>
<stop offset="1" stop-color="#F9DDBF" stop-opacity="0"/>
</radialGradient>
</defs>
</svg>
