<svg width="218" height="233" viewBox="0 0 218 233" fill="none" xmlns="http://www.w3.org/2000/svg">
<path d="M198.113 143.235C188.581 142.461 168.149 131.038 160.413 118.379C155.718 110.691 164.518 104.556 169.299 112.392C174.483 120.874 191.584 131.442 199.03 132.055L198.113 143.235Z" fill="#8A6FE8"/>
<path d="M207.37 121.915L192.711 127.479C190.097 128.472 188.786 131.394 189.769 134.003C190.762 136.616 193.685 137.928 196.293 136.944L210.953 131.38C213.566 130.387 214.877 127.465 213.894 124.856C212.915 122.233 209.983 120.917 207.37 121.915Z" fill="#8A6FE8"/>
<path d="M189.422 146.624L195.676 155.115C197.358 157.367 200.542 157.833 202.794 156.151C205.046 154.469 205.512 151.285 203.83 149.033L197.42 140.318L189.422 146.624Z" fill="#8A6FE8"/>
<path d="M195.091 147.132L207.783 154.226C210.24 155.59 213.338 154.702 214.702 152.24C216.065 149.788 215.177 146.685 212.715 145.322L203.293 140.014L195.091 147.132Z" fill="#8A6FE8"/>
<path d="M196.678 141.121L210.663 145.16C213.362 145.944 216.184 144.385 216.968 141.691C217.752 138.992 216.194 136.17 213.499 135.386L199.254 131.271L196.678 141.121Z" fill="#8A6FE8"/>
<path d="M195.229 148.781C201.112 148.781 205.882 144.01 205.882 138.127C205.882 132.245 201.112 127.474 195.229 127.474C189.346 127.474 184.576 132.245 184.576 138.127C184.576 144.01 189.346 148.781 195.229 148.781Z" fill="url(#paint0_radial)"/>
<path d="M156.369 182.832C156.479 172.953 155.072 152.901 144.875 136.108L134.906 142.162C144.158 157.391 144.851 175.167 144.637 182.922C144.614 183.563 150.596 184.143 156.369 182.832Z" fill="url(#paint1_linear)"/>
<path d="M144.638 182.813L153.87 182.77L162.49 232.15L143.958 232.235C142.547 232.24 141.478 231.104 141.573 229.693L144.638 182.813Z" fill="#522CD5"/>
<path d="M182.247 219.163C183.849 220.427 183.82 222.257 183.697 224.186L183.312 230.102C183.241 231.162 182.319 232.031 181.259 232.036L161.948 232.121C160.746 232.126 159.838 231.157 159.919 229.959L160.047 223.83C160.195 221.601 159.444 220.784 157.719 218.683C154.763 215.096 146.025 195.543 146.857 182.803L156.365 182.76C156.997 190.32 166.975 207.113 182.247 219.163Z" fill="url(#paint2_linear)"/>
<path d="M183.697 224.186C183.787 222.836 183.811 221.544 183.283 220.451L159.197 220.56C159.862 221.539 160.142 222.395 160.052 223.825L159.924 229.955C159.843 231.157 160.755 232.126 161.953 232.117L181.264 232.031C182.323 232.026 183.245 231.157 183.317 230.097L183.697 224.186Z" fill="url(#paint3_radial)"/>
<path d="M95.3856 190.211L83.5966 188.743L90.2252 135.438L102.014 136.902L95.3856 190.211Z" fill="url(#paint4_linear)"/>
<path d="M84.4519 182.423L93.7938 182.38L96.3788 232.312L77.6284 232.397C76.2029 232.402 75.2621 231.252 75.5329 229.827L84.4519 182.423Z" fill="#522CD5"/>
<path d="M111.598 219.354C113.038 220.656 113.005 222.328 112.634 224.281L111.508 230.264C111.309 231.333 110.263 232.212 109.194 232.216L82.3801 232.34C81.1637 232.345 80.3654 231.366 80.5935 230.149L81.5486 223.948C81.9715 221.696 81.6436 221.031 81.6864 218.142C81.7671 212.725 84.2665 195.286 86.6899 182.409L96.3122 182.366C96.0176 190.016 99.3343 208.239 111.598 219.354Z" fill="url(#paint5_linear)"/>
<path d="M81.5533 223.953L80.5982 230.154C80.3701 231.366 81.1684 232.35 82.3849 232.345L109.199 232.221C110.273 232.217 111.313 231.338 111.513 230.268L112.639 224.286C112.905 222.87 112.986 221.601 112.468 220.513L81.7434 220.651C81.7909 221.753 81.8194 222.542 81.5533 223.953Z" fill="url(#paint6_radial)"/>
<path d="M88.1724 31.0187L77.0201 35.5043L73.9838 23.4254L81.9904 20.2037L88.1724 31.0187Z" fill="#D0C5F3"/>
<path d="M85.6732 51.8693C91.982 51.8693 97.0963 46.7549 97.0963 40.4461C97.0963 34.1373 91.982 29.0229 85.6732 29.0229C79.3643 29.0229 74.25 34.1373 74.25 40.4461C74.25 46.7549 79.3643 51.8693 85.6732 51.8693Z" fill="#512BD4"/>
<path d="M170.202 111.005C174.312 95.224 171.66 82.6272 171.66 82.6272H175.372L175.462 82.5559C170.145 53.5989 144.78 31.6554 114.288 31.6554C79.933 31.6554 52.0831 59.5053 52.0831 93.8603C52.0831 128.215 79.9283 156.065 114.288 156.065C141.397 156.065 164.452 138.721 172.972 114.53C173.219 113.504 173.195 111.66 170.202 111.005Z" fill="url(#paint7_radial)"/>
<path d="M167.921 125.364H60.6505C63.0596 129.456 65.9202 133.243 69.1704 136.664H159.406C162.651 133.238 165.512 129.456 167.921 125.364Z" fill="#D8CFF7"/>
<path d="M99.6051 45.9106L72.5963 61.3728C71.1898 62.1758 69.4031 61.4773 68.9137 59.933L65.635 49.5505L99.6051 45.9106Z" fill="#605D5A"/>
<path d="M61.9667 46.4429C57.3718 47.6736 56.3359 54.7726 63.0168 54.0409C74.2642 52.8054 114.768 45.6446 133.3 36.1886C142.703 31.3894 143.63 23.359 126.79 25.8726C109.95 28.3863 61.9667 46.4429 61.9667 46.4429Z" fill="#FCCF84"/>
<path d="M60.5695 46.7803C60.8356 48.3056 62.2706 49.3367 63.8007 49.1039C69.1084 48.2961 81.8335 46.0865 97.5332 41.4346C113.874 36.5878 122.746 31.7411 126.11 29.6598C127.098 29.0468 127.54 27.8494 127.189 26.7423C125.055 20.0091 111.67 -6.21575 83.5774 2.22333C55.1763 10.7527 59.0252 37.8661 60.5695 46.7803Z" fill="url(#paint8_linear)"/>
<path d="M80.0232 3.44928C75.5708 5.20267 72.0403 7.46449 69.2605 10.0494C93.6939 4.92706 107.118 18.9162 111.033 23.9102C111.822 24.9176 113.157 25.3262 114.383 24.9414L116.203 24.3759C118.075 23.7914 118.793 21.5106 117.576 19.9758C112.568 13.637 99.6098 0.479445 80.0232 3.44928Z" fill="#FCCF84"/>
<path d="M170.202 111.005C174.26 95.4189 171.727 82.9456 171.665 82.6415H107.122C107.122 82.6415 103.055 82.2281 103.055 85.944C103.055 89.6598 103.207 100.152 103.207 111.76C103.207 114.145 105.16 115.295 106.7 115.295C106.704 115.291 162.998 115.286 170.202 111.005Z" fill="url(#paint9_radial)"/>
<path d="M131.328 111.038C131.328 111.038 141.254 103.183 143.188 101.729C145.127 100.275 146.818 100.194 148.595 101.729C150.373 103.264 160.308 111.038 160.308 111.038H131.328Z" fill="#A08BE8"/>
<path d="M172.72 115.248C172.72 115.248 174.445 111.931 170.202 111.005C170.206 110.99 106.752 110.957 106.752 110.957C105.274 110.957 103.373 110.078 103.212 108.643C103.212 109.669 103.217 110.705 103.217 111.755C103.217 113.922 104.827 115.067 106.272 115.257C106.414 115.276 106.562 115.291 106.709 115.291H111.047L172.72 115.248Z" fill="#512BD4"/>
<path d="M167.946 96.4473C168.013 91.9287 165.89 88.2332 163.203 88.1932C160.515 88.1531 158.283 91.7837 158.215 96.3023C158.148 100.821 160.272 104.516 162.959 104.557C165.646 104.597 167.879 100.966 167.946 96.4473Z" fill="#512BD4"/>
<path d="M163.022 92.0499C161.245 93.827 161.245 96.7066 163.022 98.4837C164.238 99.7002 165.973 100.085 167.517 99.6336C167.778 98.6595 167.93 97.5809 167.949 96.45C167.983 94.2357 167.488 92.2209 166.657 90.7336C165.36 90.6196 164.015 91.0568 163.022 92.0499Z" fill="#8065E0"/>
<path d="M124.017 104.598C126.704 104.558 128.828 100.863 128.761 96.3442C128.693 91.8255 126.46 88.195 123.773 88.235C121.086 88.275 118.963 91.9705 119.03 96.4892C119.097 101.008 121.33 104.638 124.017 104.598Z" fill="#512BD4"/>
<path d="M123.858 92.316C122.081 94.0931 122.081 96.9727 123.858 98.7498C125.07 99.9615 126.79 100.342 128.325 99.9045C128.619 98.8211 128.781 97.6142 128.762 96.3359C128.733 94.2832 128.253 92.4205 127.488 90.9997C126.191 90.8857 124.851 91.3229 123.858 92.316Z" fill="#8065E0"/>
<path d="M134.602 140.027L154.963 139.934L154.881 121.925L134.52 122.018L134.602 140.027Z" fill="#512BD4"/>
<path d="M138.123 133.295C137.985 133.295 137.871 133.252 137.776 133.162C137.681 133.072 137.633 132.958 137.633 132.834C137.633 132.706 137.681 132.592 137.776 132.502C137.871 132.407 137.985 132.364 138.123 132.364C138.261 132.364 138.375 132.411 138.47 132.502C138.565 132.592 138.617 132.706 138.617 132.834C138.617 132.962 138.569 133.072 138.474 133.162C138.379 133.248 138.261 133.295 138.123 133.295Z" fill="white"/>
<path d="M143.54 133.205H142.661L140.332 129.551C140.275 129.461 140.223 129.361 140.185 129.261H140.166C140.185 129.366 140.194 129.594 140.194 129.945L140.199 133.21H139.42L139.41 128.23H140.346L142.594 131.798C142.689 131.946 142.751 132.05 142.779 132.103H142.794C142.77 131.969 142.76 131.746 142.76 131.433L142.756 128.225H143.53L143.54 133.205Z" fill="white"/>
<path d="M147.332 133.2L144.604 133.205L144.595 128.225L147.213 128.22V128.924L145.402 128.928L145.407 130.34L147.075 130.335V131.033L145.407 131.038L145.412 132.511L147.332 132.506V133.2Z" fill="white"/>
<path d="M151.195 128.914L149.798 128.919L149.807 133.195H148.999L148.99 128.919L147.598 128.924V128.22L151.19 128.211L151.195 128.914Z" fill="white"/>
<path d="M42.7887 162.998L49.4316 172.478C51.2183 174.996 54.7108 175.576 57.2292 173.789C59.7476 172.003 60.3273 168.51 58.5407 165.996L50.3202 154.54L42.7887 162.998Z" fill="#8A6FE8"/>
<path d="M30.0446 178.588V175.447C30.0446 173.309 31.779 171.575 33.9173 171.575H50.7479C52.8862 171.575 54.6206 173.309 54.6206 175.447V178.588H57.6141V175.447C57.6141 171.66 54.535 168.581 50.7479 168.581H33.9125C30.1254 168.581 27.0463 171.66 27.0463 175.447V178.588H30.0446Z" fill="#605D5A"/>
<path d="M31.3323 159.411L29.4933 170.843C29.0277 173.889 31.1137 176.745 34.169 177.21C37.2149 177.676 40.0707 175.59 40.5364 172.535L42.418 160.817L31.3323 159.411Z" fill="#8A6FE8"/>
<path d="M38.7497 160.703L37.2053 172.178C36.8157 175.234 38.9825 178.037 42.0379 178.427C45.0932 178.816 47.8967 176.65 48.2911 173.594L49.8782 161.824L38.7497 160.703Z" fill="#8A6FE8"/>
<path d="M28.4575 155.994L24.3093 166.804C23.2211 169.693 24.6894 172.92 27.5784 173.998C30.4675 175.086 33.6939 173.618 34.7726 170.729L39.0254 159.643L28.4575 155.994Z" fill="#8A6FE8"/>
<path d="M36.1553 160.722C31.5414 151.299 28.8471 135.191 36.4499 120.784C41.0733 112.036 51.1945 100.94 73.195 97.7567L74.9627 109.954C61.6056 111.888 52.0641 117.624 47.3551 126.538C42.2565 136.193 43.6203 147.935 47.2268 155.31L36.1553 160.722Z" fill="url(#paint10_linear)"/>
<path d="M77.4288 113.39C83.7201 113.39 88.8187 108.291 88.8187 102C88.8187 95.7087 83.7201 90.6101 77.4288 90.6101C71.1375 90.6101 66.0389 95.7087 66.0389 102C66.0389 108.287 71.1375 113.39 77.4288 113.39Z" fill="url(#paint11_radial)"/>
<path d="M39.3484 166.823C45.8108 166.823 51.0472 161.587 51.0472 155.124C51.0472 148.662 45.8108 143.426 39.3484 143.426C32.8861 143.426 27.6497 148.662 27.6497 155.124C27.6497 161.587 32.8908 166.823 39.3484 166.823Z" fill="url(#paint12_radial)"/>
<path d="M79.9377 178.589H6.28591C2.94544 178.589 0.24646 181.297 0.24646 184.628V218.75C0.24646 222.091 2.95495 224.79 6.28591 224.79H79.9377C83.2782 224.79 85.9772 222.081 85.9772 218.75V184.628C85.9772 181.292 83.2687 178.589 79.9377 178.589Z" fill="#E86E58"/>
<path d="M80.2751 178.589H61.2064V224.79H80.2751C83.4255 224.79 85.9772 222.238 85.9772 219.088V184.276C85.9772 181.145 83.4255 178.589 80.2751 178.589Z" fill="#ED9583"/>
<path d="M86.0722 189.228H0.24646V190.221H86.0722V189.228Z" fill="#605D5A"/>
<path d="M10.2203 193.067H7.20773C6.59476 193.067 6.09583 192.568 6.09583 191.955V186.106C6.09583 185.493 6.59476 184.994 7.20773 184.994H10.2203C10.8333 184.994 11.3322 185.493 11.3322 186.106V191.955C11.3322 192.568 10.8333 193.067 10.2203 193.067Z" fill="white"/>
<path d="M54.1073 193.067H51.0899C50.477 193.067 49.978 192.568 49.978 191.955V186.106C49.978 185.493 50.477 184.994 51.0899 184.994H54.1025C54.7155 184.994 55.2144 185.493 55.2144 186.106V191.955C55.2144 192.568 54.7203 193.067 54.1073 193.067Z" fill="white"/>
<path d="M3.09277 198.693V220.004H58.0941V198.693H3.09277ZM57.0867 199.691V208.714H4.08589V199.691H57.0867ZM4.08589 219.011V209.712H57.0867V219.011H4.08589Z" fill="#605D5A"/>
<path d="M54.34 202.67H3.39673L5.39721 199.738H56.3358L54.34 202.67Z" fill="white"/>
<path d="M54.34 212.687H3.39673L5.39721 209.769H56.3358L54.34 212.687Z" fill="white"/>
<path d="M89.1372 160.033L101.777 160.066L102.105 158.636L89.4651 158.603L89.1372 160.033Z" fill="#A08BE8"/>
<path d="M157.766 147.16H71.1376C69.9211 147.16 68.9375 146.177 68.9375 144.96V138.222C68.9375 137.006 69.9211 136.022 71.1376 136.022H157.766C158.983 136.022 159.966 137.006 159.966 138.222V144.96C159.952 146.177 158.973 147.16 157.766 147.16Z" fill="#605D5A"/>
<path d="M157.766 147.16H147.655C146.438 147.16 145.455 146.177 145.455 144.96V138.222C145.455 137.006 146.438 136.022 147.655 136.022H157.766C158.983 136.022 159.966 137.006 159.966 138.222V144.96C159.952 146.177 158.973 147.16 157.766 147.16Z" fill="#797673"/>
<path d="M109.84 165.535H85.1978C83.549 165.535 82.2042 164.191 82.2042 162.542V141.525C82.2042 139.876 83.549 138.531 85.1978 138.531H109.831C111.48 138.531 112.824 139.876 112.824 141.525V162.542C112.824 164.2 111.489 165.535 109.84 165.535Z" fill="#F7B548"/>
<path d="M96.6591 159.154C96.5546 158.284 96.5546 158.284 96.5546 158.284C97.1248 158.208 97.1248 158.208 97.1248 158.208C97.2293 159.097 97.2293 159.097 97.2293 159.097C97.2626 159.244 97.1533 159.382 96.9965 159.415C96.8302 159.453 96.6829 159.334 96.6591 159.154Z" fill="#505050"/>
<path d="M94.8486 129.337L92.7341 129.589L91.6887 129.717L94.9484 156.141L96.0175 156.027L98.1036 155.761L94.8486 129.337Z" fill="#F7B548"/>
<path d="M91.8979 128.681L92.0262 129.665L94.5209 129.356L94.3736 128.372L91.8979 128.681Z" fill="#505050"/>
<path d="M97.3908 158.721L98.0988 155.761L94.9484 156.141L96.3881 158.826L97.3908 158.721Z" fill="#737373"/>
<path d="M91.6887 129.717L94.9484 156.141L96.0175 156.027L92.7388 129.593L91.6887 129.717Z" fill="#E2A13E"/>
<path d="M94.4923 126.5C94.4733 126.239 94.2262 126.058 93.9934 126.086C92.796 126.243 92.796 126.243 92.796 126.243C92.6819 126.253 92.5014 126.277 92.3208 126.296C92.1735 126.315 92.0024 126.338 91.8884 126.348C91.7411 126.381 91.7316 126.357 91.7316 126.357C91.4988 126.391 91.3182 126.633 91.3419 126.866C91.5748 128.719 91.5748 128.719 91.5748 128.719C92.6202 128.557 92.6202 128.557 92.6202 128.557C94.7062 128.296 94.7062 128.296 94.7062 128.296L94.4923 126.5Z" fill="#F7B548"/>
<path d="M92.6296 128.576L92.335 126.3L91.7125 126.376C91.3846 126.429 91.3086 126.685 91.3419 127.032C91.3846 127.393 91.5652 128.733 91.5652 128.733L92.6296 128.576Z" fill="#E2A13E"/>
<path d="M97.5051 150.8L97.0204 147.004L97.4433 146.928L97.8995 150.734L97.5051 150.8Z" fill="#FFB900"/>
<path d="M97.5051 150.8L97.0204 147.004L97.2627 146.951L97.7379 150.772L97.5051 150.8Z" fill="#FFB900"/>
<path d="M89.6456 127.327C89.1371 125.972 88.2058 125.032 87.0986 124.447C86.9181 124.352 86.728 124.267 86.5379 124.195C86.3479 124.119 86.1578 124.057 85.9582 123.996C85.7681 123.943 85.5781 123.901 85.388 123.858C85.274 123.839 85.1742 123.953 85.2169 124.072L86.7185 128.068C86.8563 128.439 86.6662 128.852 86.3051 128.99L84.0433 129.845L83.378 130.102C83.0407 130.23 82.67 130.049 82.5512 129.712L81.2397 125.787C81.197 125.659 81.0402 125.616 80.9451 125.711C79.6004 127.075 79.0539 129.023 79.8142 131.043C80.7123 132.915 82.4277 134.269 84.4472 134.312L90.0542 149.246C90.5389 150.558 92.0119 151.014 93.1238 150.439C93.1428 150.43 93.1761 150.43 93.1998 150.42C94.3118 150.007 94.8915 148.8 94.5541 147.683C94.5446 147.64 94.5351 147.598 94.5208 147.564C94.1502 146.571 90.7004 137.704 88.681 132.492C89.8926 131.138 90.3678 129.265 89.6456 127.327ZM92.6391 149.422C92.0357 149.646 91.3704 149.346 91.1471 148.743C90.9238 148.139 91.2231 147.474 91.8218 147.251C92.4253 147.027 93.0906 147.327 93.3139 147.93C93.5515 148.524 93.2426 149.189 92.6391 149.422Z" fill="white"/>
<path d="M108.134 163.027H86.4619C85.3404 163.027 84.4329 162.119 84.4329 160.998C84.4329 160.998 84.4329 146.79 84.4329 141.216C99.8332 145.859 110.23 141.216 110.23 141.216V160.921C110.23 162.095 109.289 163.027 108.134 163.027Z" fill="#FCCF84"/>
<path d="M156.75 140.209H148.406V142.632H156.75C157.415 142.632 157.966 142.095 157.966 141.416C157.966 140.75 157.415 140.209 156.75 140.209Z" fill="#605D5A"/>
<defs>
<radialGradient id="paint0_radial" cx="0" cy="0" r="1" gradientUnits="userSpaceOnUse" gradientTransform="translate(195.227 138.128) scale(10.6515)">
<stop stop-color="#8065E0"/>
<stop offset="1" stop-color="#512BD4"/>
</radialGradient>
<linearGradient id="paint1_linear" x1="141.489" y1="136.822" x2="151.373" y2="183.893" gradientUnits="userSpaceOnUse">
<stop stop-color="#522CD5"/>
<stop offset="0.4397" stop-color="#8A6FE8"/>
</linearGradient>
<linearGradient id="paint2_linear" x1="149.039" y1="181.571" x2="178.4" y2="233.916" gradientUnits="userSpaceOnUse">
<stop stop-color="#522CD5"/>
<stop offset="0.4397" stop-color="#8A6FE8"/>
</linearGradient>
<radialGradient id="paint3_radial" cx="0" cy="0" r="1" gradientUnits="userSpaceOnUse" gradientTransform="translate(170.881 210.612) rotate(-0.260741) scale(20.3479)">
<stop offset="0.034" stop-color="#522CD5"/>
<stop offset="0.9955" stop-color="#8A6FE8"/>
</radialGradient>
<linearGradient id="paint4_linear" x1="87.125" y1="136.097" x2="98.4872" y2="189.552" gradientUnits="userSpaceOnUse">
<stop stop-color="#522CD5"/>
<stop offset="0.4397" stop-color="#8A6FE8"/>
</linearGradient>
<linearGradient id="paint5_linear" x1="80.8405" y1="185.494" x2="106.303" y2="234.015" gradientUnits="userSpaceOnUse">
<stop stop-color="#522CD5"/>
<stop offset="0.4397" stop-color="#8A6FE8"/>
</linearGradient>
<radialGradient id="paint6_radial" cx="0" cy="0" r="1" gradientUnits="userSpaceOnUse" gradientTransform="translate(97.9086 210.574) rotate(-0.260611) scale(22.1452 22.1218)">
<stop offset="0.034" stop-color="#522CD5"/>
<stop offset="0.9955" stop-color="#8A6FE8"/>
</radialGradient>
<radialGradient id="paint7_radial" cx="0" cy="0" r="1" gradientUnits="userSpaceOnUse" gradientTransform="translate(123.173 82.6499) scale(61.9498)">
<stop offset="0.4744" stop-color="#A08BE8"/>
<stop offset="0.8618" stop-color="#8065E0"/>
</radialGradient>
<linearGradient id="paint8_linear" x1="93.3964" y1="0.564972" x2="93.3964" y2="49.138" gradientUnits="userSpaceOnUse">
<stop offset="0.5634" stop-color="#F7B548"/>
<stop offset="1" stop-color="#FCCF84"/>
</linearGradient>
<radialGradient id="paint9_radial" cx="0" cy="0" r="1" gradientUnits="userSpaceOnUse" gradientTransform="translate(158.948 71.2012) scale(48.2581)">
<stop offset="0.0933" stop-color="#E1DFDD"/>
<stop offset="0.8998" stop-color="white"/>
</radialGradient>
<linearGradient id="paint10_linear" x1="53.3224" y1="97.755" x2="53.3224" y2="160.722" gradientUnits="userSpaceOnUse">
<stop offset="0.2495" stop-color="#967FE6"/>
<stop offset="1" stop-color="#8A6FE8"/>
</linearGradient>
<radialGradient id="paint11_radial" cx="0" cy="0" r="1" gradientUnits="userSpaceOnUse" gradientTransform="translate(77.0588 98.066) scale(11.3989)">
<stop stop-color="#8065E0"/>
<stop offset="1" stop-color="#512BD4"/>
</radialGradient>
<radialGradient id="paint12_radial" cx="0" cy="0" r="1" gradientUnits="userSpaceOnUse" gradientTransform="translate(38.7293 146.393) scale(22.7292)">
<stop stop-color="#8065E0"/>
<stop offset="1" stop-color="#512BD4"/>
</radialGradient>
</defs>
</svg>
