<svg width="285" height="259" viewBox="0 0 285 259" fill="none" xmlns="http://www.w3.org/2000/svg">
<path d="M284.9 258.873C267.134 232.284 236.8 214.769 202.361 214.769C167.922 214.769 137.588 232.284 119.823 258.873H284.9Z" fill="#AFEAA9"/>
<path d="M247.984 164.141H246.257V244.869H247.984V164.141Z" fill="#B3AFAB"/>
<path d="M246.133 162.528V181.906L271.374 173.973L246.133 162.528Z" fill="#E86E58"/>
<path d="M284.234 258.998C253.645 241.862 201.414 230.573 142.114 230.573C82.8194 230.573 30.5891 241.862 0 258.998H284.234Z" fill="#77D672"/>
<path d="M213.021 243.006L210.394 242.829L211.367 228.742L199.36 131.939L201.977 131.616L214.009 228.669L213.021 243.006Z" fill="#B3AFAB"/>
<path d="M204.962 168.62C203.87 168.62 202.923 167.803 202.788 166.695L198.491 132.048C198.34 130.846 199.198 129.749 200.4 129.598C201.602 129.442 202.699 130.305 202.85 131.507L207.147 166.154C207.298 167.356 206.44 168.453 205.238 168.604C205.144 168.614 205.051 168.62 204.962 168.62Z" fill="#605D5A"/>
<path d="M167.943 112.737C171.132 115.885 188.71 129.79 194.126 134.061L201.191 125.098C190.001 116.28 177.515 106.219 176.017 104.679C167.631 95.8249 158.272 82.8298 158.179 82.6997L148.908 89.3586C149.309 89.9152 158.808 103.103 167.735 112.534C167.797 112.592 167.865 112.659 167.943 112.737Z" fill="url(#paint0_linear)"/>
<path d="M178.91 121.935C178.566 121.659 178.223 121.383 177.885 121.108L185.131 112.285C185.464 112.555 185.808 112.831 186.156 113.112L178.91 121.935Z" fill="#A08BE8"/>
<path d="M199.053 136.709L196.92 147.218C196.332 150.017 193.59 151.806 190.791 151.218C187.993 150.63 186.203 147.889 186.791 145.09L188.976 134.311L199.053 136.709Z" fill="#D0C5F3"/>
<path d="M206.919 129.468L213.718 137.76C215.513 139.981 215.169 143.238 212.948 145.038C210.727 146.833 207.47 146.489 205.67 144.268L198.699 135.762L206.919 129.468Z" fill="#D0C5F3"/>
<path d="M201.16 134.202L207.746 142.666C209.483 144.934 209.057 148.18 206.789 149.918C204.52 151.655 201.274 151.229 199.537 148.96L192.784 140.283L201.16 134.202Z" fill="#D0C5F3"/>
<path d="M207.507 124L215.794 130.81C217.989 132.641 218.286 135.903 216.454 138.098C214.623 140.294 211.361 140.59 209.166 138.759L200.671 131.778L207.507 124Z" fill="#D0C5F3"/>
<path d="M198.548 140.71C204.53 140.71 209.379 135.86 209.379 129.879C209.379 123.897 204.53 119.048 198.548 119.048C192.566 119.048 187.717 123.897 187.717 129.879C187.717 135.86 192.566 140.71 198.548 140.71Z" fill="url(#paint1_radial)"/>
<path d="M167.808 112.602C167.787 112.576 167.756 112.55 167.735 112.529C167.459 112.238 167.184 111.941 166.903 111.64L175.029 103.613C175.33 103.94 175.627 104.258 175.929 104.575L167.808 112.602Z" fill="#A08BE8"/>
<path d="M222.161 246.747H206.643C205.43 246.747 204.447 245.763 204.447 244.551C204.447 243.339 205.43 242.356 206.643 242.356H222.161C223.373 242.356 224.356 243.339 224.356 244.551C224.356 245.763 223.373 246.747 222.161 246.747Z" fill="#797673"/>
<path d="M34.532 153.502C34.7765 151.645 39.5106 149.309 45.6804 148.737C48.0474 148.518 49.0827 153.003 49.4416 155.146C49.5405 155.734 49.0254 156.254 48.3543 156.254H38.2204V176.428H34.5112V153.502H34.532Z" fill="#B3AFAB"/>
<path d="M20.4241 133.25C20.4241 131.569 24.0552 129.28 30.0898 129.046C34.0591 128.895 35.8851 133.635 33.3724 135.466C30.4384 137.604 26.4222 139.248 24.0656 140.517V172.604H20.3564V134.909L20.4241 133.25Z" fill="#B3AFAB"/>
<path d="M27.348 144.341C27.5925 142.484 32.3265 140.148 38.4963 139.576C40.8633 139.357 41.8986 143.841 42.2575 145.985C42.3564 146.573 41.8413 147.093 41.1703 147.093H31.0363V171.616H27.3271V144.346H27.348V144.341Z" fill="#B3AFAB"/>
<path d="M23.1289 210.097V190.739C23.1289 185.262 28.1647 180.803 34.3553 180.803H47.5846C53.7752 180.803 58.811 185.262 58.811 190.739V210.097C58.811 215.575 53.7752 220.033 47.5846 220.033H34.3553C28.1647 220.038 23.1289 215.58 23.1289 210.097ZM34.3553 185.189C30.8958 185.189 28.0814 187.681 28.0814 190.745V210.102C28.0814 213.166 30.8958 215.658 34.3553 215.658H47.5846C51.044 215.658 53.8584 213.166 53.8584 210.102V190.745C53.8584 187.681 51.044 185.189 47.5846 185.189H34.3553Z" fill="#B3AFAB"/>
<path d="M14.5141 254.831H44.2917C45.2229 254.831 45.9772 254.076 45.9772 253.145V171.231C45.9772 170.3 45.2229 169.545 44.2917 169.545H14.5141C13.5829 169.545 12.8286 170.3 12.8286 171.231V253.145C12.8286 254.076 13.5829 254.831 14.5141 254.831Z" fill="#2B88D8"/>
<path d="M22.8844 242.606H8.29734C7.36614 242.606 6.61182 241.851 6.61182 240.92V183.155C6.61182 182.223 7.36614 181.469 8.29734 181.469H22.8844C23.8156 181.469 24.5699 182.223 24.5699 183.155V240.92C24.5699 241.851 23.8156 242.606 22.8844 242.606Z" fill="#72ACF1"/>
<path d="M157.44 38.3717C165.067 43.2774 163.027 49.9518 156.894 48.4536C150.76 46.9553 139.05 38.1011 139.05 38.1011C139.05 38.1011 143.139 35.6509 146.677 35.7862C150.219 35.9214 157.44 38.3717 157.44 38.3717Z" fill="#B3AFAB"/>
<path d="M120.39 242.216C118.028 242.216 115.88 240.618 115.281 238.22C114.709 235.931 101.386 181.656 108.238 137.729C108.685 134.852 111.38 132.886 114.256 133.338C117.133 133.786 119.1 136.48 118.647 139.357C112.129 181.152 125.368 235.141 125.504 235.676C126.206 238.501 124.489 241.357 121.664 242.059C121.238 242.164 120.811 242.216 120.39 242.216Z" fill="url(#paint2_linear)"/>
<path d="M117.815 234.375L138.291 234.474C138.291 234.474 143.327 237.669 144.794 239.973C145.912 241.737 146.193 245.69 146.266 247.454C146.287 247.948 145.912 248.328 145.418 248.328L125.67 248.291C125.036 248.291 124.479 247.771 124.432 247.142C124.26 244.957 123.48 240.301 122.539 238.969C121.139 236.992 117.815 234.375 117.815 234.375Z" fill="#D0C5F3"/>
<path d="M109.543 210.747C106.921 223.93 110.292 244.827 110.547 245.935C110.901 247.464 111.203 248.541 113.377 248.541C116.088 248.541 127.73 248.541 127.73 248.541L118.387 211.6L109.543 210.747Z" fill="#8065E0"/>
<path d="M121.758 212.781C123.235 219.248 130.482 228.341 143.54 237.856C145.064 238.969 145.901 240.14 146.047 241.794L146.51 247.09C146.578 247.875 146 248.51 145.215 248.51H125.592C125.041 248.51 124.552 248.063 124.5 247.506L123.964 241.393C123.797 239.489 123.329 238.511 121.253 237.112C116.056 233.606 111.931 221.771 111.093 213.353C110.261 204.931 121.758 212.781 121.758 212.781Z" fill="#A08BE8"/>
<path d="M145.751 240.488C145.907 240.889 146.006 241.321 146.047 241.789L146.51 247.085C146.578 247.87 146.001 248.505 145.215 248.505H125.592C125.041 248.505 124.552 248.058 124.5 247.501L123.964 241.388C123.938 241.061 123.896 240.764 123.844 240.488H145.751Z" fill="#D0C5F3"/>
<path d="M109.054 198.767H119.131C120.822 198.767 122.309 200.135 122.46 201.826L123.376 212.266C123.522 213.957 122.273 215.325 120.582 215.325H110.506C108.815 215.325 107.327 213.957 107.176 212.266L106.261 201.826C106.115 200.135 107.363 198.767 109.054 198.767Z" fill="url(#paint3_radial)"/>
<path d="M91.6268 222.374C90.1546 222.374 88.6875 221.76 87.6471 220.559C85.7431 218.363 85.9772 215.034 88.1725 213.125C103.139 200.14 122.497 185.121 129.265 179.919L123.766 141.511C123.355 138.629 125.353 135.96 128.235 135.549C131.122 135.138 133.786 137.136 134.197 140.018L140.132 181.48C140.403 183.373 139.628 185.267 138.103 186.422C137.854 186.609 113.164 205.389 95.0759 221.084C94.0822 221.948 92.8493 222.374 91.6268 222.374Z" fill="url(#paint4_linear)"/>
<path d="M124.78 196.758C125.144 196.472 125.503 196.191 125.852 195.916L120.379 186.817C120.025 187.093 119.666 187.374 119.302 187.66L124.78 196.758Z" fill="#A08BE8"/>
<path d="M84.6666 218.233L94.1242 236.394C94.1242 236.394 93.6456 242.34 92.2878 244.712C91.2526 246.528 87.8815 248.619 86.3573 249.499C85.9307 249.743 85.4157 249.597 85.1868 249.16L76.0153 231.676C75.7187 231.114 75.9164 230.38 76.4575 230.042C78.3094 228.872 82.0654 226.01 82.8042 224.559C83.9018 222.39 84.6666 218.233 84.6666 218.233Z" fill="#D0C5F3"/>
<path d="M101.714 199.89C88.8282 203.719 71.9106 216.444 71.0522 217.182C69.8609 218.207 69.0546 218.972 70.069 220.902C71.3331 223.3 76.7591 233.601 76.7591 233.601L105.085 208.11L101.714 199.89Z" fill="#8065E0"/>
<path d="M105.605 211.647C100.575 215.97 95.9083 226.619 93.5777 242.606C93.3071 244.473 92.6569 245.763 91.2627 246.663L86.794 249.54C86.1333 249.967 85.3009 249.748 84.9368 249.056L75.7861 231.697C75.5259 231.208 75.6976 230.568 76.1658 230.266L81.3212 226.942C82.9287 225.907 83.5738 225.033 83.8443 222.546C84.5258 216.314 93.073 207.147 100.127 202.481C107.181 197.815 105.605 211.647 105.605 211.647Z" fill="#A08BE8"/>
<path d="M92.2771 245.795C91.991 246.117 91.6632 246.409 91.2627 246.669L86.794 249.546C86.1333 249.972 85.3009 249.754 84.9368 249.062L75.7861 231.702C75.5259 231.213 75.6976 230.573 76.1658 230.271L81.3212 226.947C81.5969 226.77 81.8414 226.599 82.0651 226.422L92.2771 245.795Z" fill="#D0C5F3"/>
<path d="M112.087 193.876L116.785 202.788C117.571 204.281 117.056 206.237 115.63 207.158L106.818 212.833C105.392 213.754 103.597 213.286 102.807 211.788L98.1091 202.876C97.3236 201.383 97.8386 199.427 99.264 198.506L108.077 192.831C109.502 191.915 111.297 192.383 112.087 193.876Z" fill="url(#paint5_radial)"/>
<path d="M170.43 103.181C172.969 88.0112 169.421 76.3947 169.421 76.3947L172.912 76.0825L172.99 76.0097C165.566 49.2495 139.893 30.7608 111.245 33.3151C78.9648 36.1971 55.1334 64.6949 58.0154 96.9747C60.8975 129.254 89.3953 153.086 121.675 150.209C147.145 147.936 167.351 129.707 173.333 106.266C173.474 105.277 173.302 103.545 170.43 103.181Z" fill="url(#paint6_radial)"/>
<path d="M173.155 106.958C173.155 106.958 174.498 103.696 170.435 103.181C172.942 88.1934 169.514 76.6913 169.431 76.4104L108.794 81.8207C108.794 81.8207 104.939 81.7739 105.251 85.2646C105.563 88.7553 106.588 98.6031 107.561 109.507C107.758 111.749 109.694 112.665 111.14 112.54L173.41 106.984C173.244 106.963 173.155 106.958 173.155 106.958Z" fill="url(#paint7_radial)"/>
<path d="M141.318 105.73C141.318 105.73 146.734 100.595 147.795 99.6432C148.856 98.6912 149.85 98.5508 150.968 99.3623C152.092 100.169 158.335 104.216 158.335 104.216L141.318 105.73Z" fill="#A08BE8"/>
<path d="M173.156 106.958C173.156 106.958 174.499 103.696 170.436 103.181C170.441 103.165 170.441 103.15 170.441 103.134L110.813 108.456C109.424 108.581 107.567 107.91 107.291 106.583C107.379 107.546 107.468 108.524 107.556 109.507C107.738 111.541 109.346 112.482 110.719 112.545C110.855 112.55 110.995 112.55 111.135 112.54L115.209 112.175L173.401 106.984C173.245 106.963 173.156 106.958 173.156 106.958Z" fill="url(#paint8_radial)"/>
<path d="M169.494 116.863L68.7109 125.852C71.3173 129.494 74.3241 132.813 77.6588 135.752L162.439 128.188C165.202 124.708 167.574 120.91 169.494 116.863Z" fill="url(#paint9_radial)"/>
<path d="M156.973 114.91L138.113 116.593L139.602 133.277L158.462 131.594L156.973 114.91Z" fill="#512BD4"/>
<path d="M114.912 30.7242L103.607 31.6606L104.242 19.9244L112.358 19.2585L114.912 30.7242Z" fill="#D0C5F3"/>
<path d="M119.818 37.4613C120.327 37.4197 120.697 36.9463 120.598 36.4416C119.557 31.125 114.667 27.3326 109.143 27.7851C103.618 28.2429 99.4144 32.7897 99.2636 38.2C99.248 38.7098 99.6902 39.1208 100.2 39.074L119.818 37.4613Z" fill="url(#paint10_radial)"/>
<path d="M127.567 102.012C130.089 101.769 131.802 98.1334 131.393 93.8922C130.984 89.651 128.608 86.41 126.085 86.6533C123.563 86.8965 121.85 90.5319 122.259 94.7732C122.668 99.0144 125.044 102.255 127.567 102.012Z" fill="#512BD4"/>
<path d="M126.466 90.4928C124.932 92.2979 125.15 95.0083 126.961 96.543C128.188 97.5886 129.837 97.8175 131.247 97.2869C131.44 96.2464 131.502 95.1019 131.388 93.9002C131.2 91.9754 130.607 90.2587 129.78 88.9789C128.552 88.9685 127.325 89.4783 126.466 90.4928Z" fill="#8065E0"/>
<path d="M161.392 98.7437C163.921 98.576 165.742 94.9935 165.46 90.742C165.178 86.4906 162.899 83.1801 160.371 83.3479C157.842 83.5156 156.021 87.0981 156.303 91.3495C156.585 95.601 158.864 98.9115 161.392 98.7437Z" fill="#512BD4"/>
<path d="M160.494 86.9813C158.959 88.7865 159.177 91.4968 160.988 93.0315C162.226 94.0823 163.886 94.3112 165.306 93.7702C165.477 92.8338 165.54 91.8089 165.467 90.7425C165.327 88.6564 164.707 86.7992 163.818 85.4674C162.58 85.457 161.352 85.9721 160.494 86.9813Z" fill="#8065E0"/>
<path d="M108.04 21.8389C114.07 21.8389 118.959 16.9501 118.959 10.9195C118.959 4.88881 114.07 0 108.04 0C102.009 0 97.1201 4.88881 97.1201 10.9195C97.1201 16.9501 102.009 21.8389 108.04 21.8389Z" fill="url(#paint11_radial)"/>
<path d="M88.4641 49.0154C88.8282 50.0299 88.4745 51.2004 87.5433 51.8402C75.318 60.1794 67.65 73.6324 66.3442 88.0373C65.9905 91.9234 61.1108 91.9234 61.4957 87.668C62.9159 71.8116 71.3487 57.0008 84.8017 47.8189C85.9098 47.0594 87.4236 47.3455 88.1831 48.4588C88.3028 48.6357 88.3964 48.823 88.4641 49.0154Z" fill="url(#paint12_radial)"/>
<path d="M125.285 142.494C124.89 141.49 123.855 140.84 122.736 140.97C104.076 143.186 85.5349 134.352 75.505 118.475C74.7871 117.341 73.2837 116.998 72.1496 117.716C71.0155 118.434 70.6722 119.937 71.3901 121.071C82.4188 138.525 102.796 148.232 123.308 145.797C124.64 145.641 125.597 144.429 125.436 143.097C125.41 142.884 125.358 142.681 125.285 142.494Z" fill="url(#paint13_radial)"/>
<path d="M141.469 127.153C141.323 127.163 141.193 127.127 141.078 127.038C140.964 126.945 140.907 126.83 140.891 126.69C140.881 126.549 140.922 126.424 141.016 126.31C141.11 126.201 141.235 126.138 141.38 126.128C141.531 126.118 141.661 126.154 141.776 126.248C141.89 126.341 141.952 126.456 141.968 126.596C141.978 126.737 141.937 126.861 141.838 126.971C141.739 127.08 141.62 127.137 141.469 127.153Z" fill="white"/>
<path d="M147.378 126.565L146.416 126.648L143.539 122.866C143.466 122.773 143.404 122.669 143.352 122.565H143.331C143.362 122.679 143.394 122.929 143.425 123.308L143.732 126.872L142.879 126.945L142.416 121.509L143.44 121.42L146.224 125.114C146.343 125.265 146.416 125.374 146.452 125.431H146.468C146.432 125.291 146.4 125.046 146.369 124.703L146.067 121.196L146.915 121.124L147.378 126.565Z" fill="white"/>
<path d="M151.519 126.206L148.544 126.461L148.081 121.025L150.942 120.78L151.009 121.545L149.033 121.716L149.163 123.256L150.989 123.1L151.056 123.865L149.23 124.021L149.366 125.629L151.462 125.452L151.519 126.206Z" fill="white"/>
<path d="M155.353 121.175L153.829 121.305L154.23 125.977L153.351 126.05L152.95 121.378L151.431 121.508L151.363 120.744L155.286 120.406L155.353 121.175Z" fill="white"/>
<path d="M62.2338 145.105C55.653 145.105 51.6109 143.8 49.2491 141.048C47.2098 138.676 46.7624 135.461 48.0213 132.24C54.2848 116.186 61.3754 104.773 65.969 99.3727C67.7794 97.245 70.9475 96.7612 73.1949 98.4155C75.692 100.257 76.0613 103.789 74.0741 106.099C70.5158 110.24 64.6164 119.599 59.1177 132.88C58.816 133.609 59.3154 134.425 60.1061 134.477C62.2078 134.628 65.5632 134.592 70.7759 133.947C77.0445 133.172 82.6629 131.928 82.7202 131.918C85.5554 131.283 88.375 133.073 89.0097 135.913C89.6443 138.754 87.8548 141.568 85.0143 142.203C84.7386 142.265 78.1318 143.732 70.8435 144.554C67.5765 144.918 64.7205 145.105 62.2338 145.105Z" fill="url(#paint14_linear)"/>
<path d="M60.1011 134.483C59.3155 134.425 58.8109 133.614 59.1126 132.886C59.1386 132.823 59.1646 132.766 59.1855 132.703L48.214 131.736C48.1463 131.908 48.0787 132.074 48.0111 132.24C46.7521 135.466 47.1995 138.676 49.2388 141.048C49.7642 141.662 50.3833 142.203 51.0856 142.671C53.952 140.007 57.8069 136.47 60.1375 134.483C60.1323 134.483 60.1167 134.483 60.1011 134.483Z" fill="#A08BE8"/>
<path d="M54.3682 117.919L63.9507 122.32C64.1587 121.914 64.3616 121.508 64.5697 121.113L54.9872 116.712C54.7791 117.107 54.5711 117.513 54.3682 117.919Z" fill="#A08BE8"/>
<path d="M69.0591 134.15C68.5909 134.202 68.1435 134.243 67.7065 134.285L67.9823 144.84C68.4244 144.804 68.8718 144.762 69.3348 144.715L69.0591 134.15Z" fill="#A08BE8"/>
<path d="M95.7005 136.709L106.1 133.291C108.867 132.36 110.35 129.364 109.424 126.601C108.493 123.834 105.496 122.351 102.734 123.277L92.0693 126.783L95.7005 136.709Z" fill="#D0C5F3"/>
<path d="M89.3013 145.553L98.5248 151.452C100.991 153.008 104.252 152.269 105.808 149.798C107.363 147.332 106.625 144.07 104.154 142.515L94.696 136.465L89.3013 145.553Z" fill="#D0C5F3"/>
<path d="M93.4111 139.144L102.78 144.809C105.288 146.302 108.529 145.48 110.022 142.973C111.515 140.465 110.693 137.224 108.185 135.731L98.5769 129.92L93.4111 139.144Z" fill="#D0C5F3"/>
<path d="M83.8291 146.796L91.7261 154.381C93.8434 156.389 97.1884 156.296 99.1965 154.178C101.205 152.061 101.111 148.716 98.9936 146.708L90.8989 138.931L83.8291 146.796Z" fill="#D0C5F3"/>
<path d="M88.7186 148.076C94.8268 148.076 99.7785 143.124 99.7785 137.016C99.7785 130.908 94.8268 125.956 88.7186 125.956C82.6104 125.956 77.6587 130.908 77.6587 137.016C77.6587 143.124 82.6104 148.076 88.7186 148.076Z" fill="url(#paint15_radial)"/>
<path d="M72.9193 110.474C78.8695 110.474 83.6931 105.651 83.6931 99.7006C83.6931 93.7503 78.8695 88.9268 72.9193 88.9268C66.9691 88.9268 62.1455 93.7503 62.1455 99.7006C62.1455 105.651 66.9691 110.474 72.9193 110.474Z" fill="url(#paint16_radial)"/>
<path d="M138.249 168.302L127.892 170.295L128.079 171.637L138.442 169.644L138.249 168.302Z" fill="#A08BE8"/>
<path d="M136.444 155.697L126.086 157.69L126.279 159.032L136.637 157.039L136.444 155.697Z" fill="#A08BE8"/>
<path d="M133.718 189.793C136.413 187.712 138.046 186.469 138.109 186.422C139.597 185.288 140.367 183.457 140.148 181.605L129.223 179.576L129.27 179.919C129.099 180.054 128.911 180.195 128.719 180.34L133.718 189.793Z" fill="#A08BE8"/>
<path d="M107.077 185.392L117.643 184.736C117.606 184.289 117.575 183.836 117.544 183.384L106.978 184.039C107.009 184.492 107.046 184.939 107.077 185.392Z" fill="#A08BE8"/>
<path d="M106.396 172.651L116.962 172.292C116.946 171.84 116.935 171.387 116.925 170.935L106.359 171.294C106.37 171.751 106.385 172.204 106.396 172.651Z" fill="#A08BE8"/>
<path d="M106.37 159.256L116.915 159.729C116.925 159.277 116.941 158.824 116.957 158.371L106.417 157.898C106.396 158.351 106.381 158.803 106.37 159.256Z" fill="#A08BE8"/>
<path d="M156.785 49.135C144.996 37.9919 128.672 31.7596 111.25 33.3151C98.4677 34.4543 87.0124 39.6149 78.0126 47.4339C75.7496 49.5252 76.9617 50.0246 79.7189 49.4107C87.0696 47.7772 87.8864 46.6327 91.3146 47.4495C94.7429 48.2662 105.444 57.006 113.778 56.3505C122.107 55.695 125.785 51.6113 137.875 48.5107C144.611 46.7836 151.692 48.3495 156.785 49.135Z" fill="url(#paint17_radial)"/>
<path d="M88.3751 42.8663C88.3751 42.8663 103.498 53.4892 110.172 54.8522C116.847 56.2152 124.322 53.0418 135.237 45.1812C148.861 35.3751 157.44 38.3715 157.44 38.3715C157.44 38.3715 146.541 32.2433 129.514 27.7486C122.132 25.7978 88.1046 42.8663 88.3751 42.8663Z" fill="#FAF9F8"/>
<path d="M140.413 31.0156C140.413 31.0156 131.694 26.6561 113.169 35.1045C97.1932 42.3876 83.4906 46.5234 78.4704 48.0945C77.3572 48.443 76.1867 47.7511 75.9526 46.6066L73.8093 36.1762C73.5648 34.9953 74.1942 33.804 75.3075 33.341C82.7311 30.23 109.803 19.1857 121.618 18.4834C135.378 17.6667 136.33 21.0741 137.963 24.4764C139.597 27.8838 140.413 31.0156 140.413 31.0156Z" fill="#E1DFDD"/>
<path d="M187.696 249.842C190.759 249.842 193.242 247.359 193.242 244.297C193.242 241.234 190.759 238.751 187.696 238.751C184.634 238.751 182.151 241.234 182.151 244.297C182.151 247.359 184.634 249.842 187.696 249.842Z" fill="white"/>
<defs>
<linearGradient id="paint0_linear" x1="157.973" y1="82.7877" x2="193.91" y2="134.165" gradientUnits="userSpaceOnUse">
<stop offset="0.1085" stop-color="#958FE7"/>
<stop offset="0.2766" stop-color="#BBB7EF"/>
</linearGradient>
<radialGradient id="paint1_radial" cx="0" cy="0" r="1" gradientUnits="userSpaceOnUse" gradientTransform="translate(200.489 126.635) rotate(-131.911) scale(14.0294)">
<stop stop-color="#A08BE8"/>
<stop offset="1" stop-color="#8065E0"/>
</radialGradient>
<linearGradient id="paint2_linear" x1="115.972" y1="133.269" x2="115.972" y2="242.214" gradientUnits="userSpaceOnUse">
<stop offset="0.1741" stop-color="#958FE7"/>
<stop offset="0.3131" stop-color="#BBB7EF"/>
</linearGradient>
<radialGradient id="paint3_radial" cx="0" cy="0" r="1" gradientUnits="userSpaceOnUse" gradientTransform="translate(114.154 203.231) rotate(180) scale(10.6782)">
<stop stop-color="#8065E0"/>
<stop offset="1" stop-color="#512BD4"/>
</radialGradient>
<linearGradient id="paint4_linear" x1="113.272" y1="135.495" x2="113.272" y2="222.373" gradientUnits="userSpaceOnUse">
<stop offset="0.1741" stop-color="#958FE7"/>
<stop offset="0.3131" stop-color="#BBB7EF"/>
</linearGradient>
<radialGradient id="paint5_radial" cx="0" cy="0" r="1" gradientUnits="userSpaceOnUse" gradientTransform="translate(110.475 200.527) rotate(-117.787) scale(10.6784 10.6781)">
<stop stop-color="#8065E0"/>
<stop offset="1" stop-color="#512BD4"/>
</radialGradient>
<radialGradient id="paint6_radial" cx="0" cy="0" r="1" gradientUnits="userSpaceOnUse" gradientTransform="translate(125.661 74.6485) rotate(-15.4622) scale(58.6873)">
<stop offset="0.4744" stop-color="#A08BE8"/>
<stop offset="0.8618" stop-color="#8065E0"/>
</radialGradient>
<radialGradient id="paint7_radial" cx="0" cy="0" r="1" gradientUnits="userSpaceOnUse" gradientTransform="translate(178.515 39.9786) rotate(-15.4622) scale(92.831)">
<stop offset="0.2022" stop-color="#E1DFDD"/>
<stop offset="0.7337" stop-color="white"/>
</radialGradient>
<radialGradient id="paint8_radial" cx="0" cy="0" r="1" gradientUnits="userSpaceOnUse" gradientTransform="translate(114.652 112.491) rotate(-15.4622) scale(50.0295)">
<stop stop-color="#512BD4"/>
<stop offset="0.5045" stop-color="#6645D9"/>
<stop offset="0.7759" stop-color="#7659DD"/>
<stop offset="1" stop-color="#8065E0"/>
</radialGradient>
<radialGradient id="paint9_radial" cx="0" cy="0" r="1" gradientUnits="userSpaceOnUse" gradientTransform="translate(87.9795 130.141) rotate(-15.4622) scale(36.4845)">
<stop offset="0.4614" stop-color="#A08BE8"/>
<stop offset="0.5268" stop-color="#A793EA"/>
<stop offset="0.8352" stop-color="#C5B7F0"/>
<stop offset="1" stop-color="#D0C5F3"/>
</radialGradient>
<radialGradient id="paint10_radial" cx="0" cy="0" r="1" gradientUnits="userSpaceOnUse" gradientTransform="translate(109.02 34.0445) rotate(-15.4622) scale(8.64942)">
<stop stop-color="#8065E0"/>
<stop offset="0.8628" stop-color="#512BD4"/>
</radialGradient>
<radialGradient id="paint11_radial" cx="0" cy="0" r="1" gradientUnits="userSpaceOnUse" gradientTransform="translate(109.602 5.06397) rotate(-15.4622) scale(15.1827)">
<stop stop-color="#A08BE8"/>
<stop offset="1" stop-color="#8065E0"/>
</radialGradient>
<radialGradient id="paint12_radial" cx="0" cy="0" r="1" gradientUnits="userSpaceOnUse" gradientTransform="translate(75.0528 69.1157) rotate(-109.591) scale(18.1718)">
<stop offset="0.3607" stop-color="#BDB9F0"/>
<stop offset="0.5611" stop-color="#C3BCEB" stop-opacity="0.3855"/>
<stop offset="0.6338" stop-color="#CEC3E2" stop-opacity="0.3217"/>
<stop offset="0.8689" stop-color="#EDD6C9" stop-opacity="0.1152"/>
<stop offset="1" stop-color="#F9DDBF" stop-opacity="0"/>
</radialGradient>
<radialGradient id="paint13_radial" cx="0" cy="0" r="1" gradientUnits="userSpaceOnUse" gradientTransform="translate(98.3482 131.508) rotate(68.5252) scale(21.8461)">
<stop stop-color="#BDB9F0"/>
<stop offset="0.5266" stop-color="#C3BCEB" stop-opacity="0.3855"/>
<stop offset="0.605" stop-color="#CEC3E2" stop-opacity="0.3217"/>
<stop offset="0.8586" stop-color="#EDD6C9" stop-opacity="0.1152"/>
<stop offset="1" stop-color="#F9DDBF" stop-opacity="0"/>
</radialGradient>
<linearGradient id="paint14_linear" x1="68.2247" y1="97.4265" x2="68.2247" y2="145.107" gradientUnits="userSpaceOnUse">
<stop offset="0.2245" stop-color="#958FE7"/>
<stop offset="0.4582" stop-color="#BBB7EF"/>
</linearGradient>
<radialGradient id="paint15_radial" cx="0" cy="0" r="1" gradientUnits="userSpaceOnUse" gradientTransform="translate(84.6309 138.7) rotate(-122.417) scale(15.6313)">
<stop stop-color="#A08BE8"/>
<stop offset="1" stop-color="#8065E0"/>
</radialGradient>
<radialGradient id="paint16_radial" cx="0" cy="0" r="1" gradientUnits="userSpaceOnUse" gradientTransform="translate(72.185 95.2285) rotate(-15.4622) scale(16.0023)">
<stop stop-color="#8065E0"/>
<stop offset="0.8628" stop-color="#512BD4"/>
</radialGradient>
<radialGradient id="paint17_radial" cx="0" cy="0" r="1" gradientUnits="userSpaceOnUse" gradientTransform="translate(115.897 65.1874) scale(52.9948)">
<stop offset="0.3104" stop-color="#8065E0"/>
<stop offset="1" stop-color="#512BD4"/>
</radialGradient>
</defs>
</svg>
