<svg width="256" height="230" viewBox="0 0 256 230" fill="none" xmlns="http://www.w3.org/2000/svg">
<path d="M197.78 125.178C197.78 125.178 201.71 114.687 194.492 108.747C187.274 102.807 182.874 98.0556 189.702 87.0078C194.777 78.7968 198.421 70.5431 193.746 64.7602C189.065 58.9726 197.214 64.4276 201.496 70.2152C204.214 73.8835 205.867 80.8543 201.296 86.6799C196.725 92.5056 197.656 98.3882 202.161 103.938C209.118 112.501 203.767 121.296 197.78 125.178Z" fill="url(#paint0_linear)"/>
<path d="M110.842 179.804C110.952 170.016 109.555 150.139 99.4476 133.499L89.564 139.5C98.7301 154.592 99.4191 172.206 99.21 179.895C99.191 180.531 105.121 181.106 110.842 179.804Z" fill="url(#paint1_linear)"/>
<path d="M99.2148 179.785L108.367 179.743L116.91 228.681L98.5448 228.766C97.1478 228.771 96.0882 227.645 96.1785 226.248L99.2148 179.785Z" fill="#522CD5"/>
<path d="M136.487 215.813C138.074 217.063 138.046 218.878 137.922 220.793L137.538 226.652C137.471 227.702 136.554 228.562 135.504 228.567L116.369 228.652C115.181 228.657 114.278 227.697 114.354 226.509L114.482 220.432C114.625 218.222 113.883 217.41 112.178 215.333C109.25 211.779 100.588 192.396 101.415 179.776L110.838 179.733C111.465 187.231 121.353 203.872 136.487 215.813Z" fill="url(#paint2_linear)"/>
<path d="M137.922 220.788C138.008 219.453 138.036 218.17 137.509 217.086L113.636 217.196C114.297 218.17 114.572 219.011 114.482 220.432L114.354 226.509C114.278 227.697 115.176 228.657 116.369 228.652L135.504 228.567C136.554 228.562 137.471 227.702 137.538 226.652L137.922 220.788Z" fill="url(#paint3_radial)"/>
<path d="M60.3694 180.023C60.1746 170.234 61.3863 150.348 71.3412 133.618L81.277 139.529C72.2488 154.706 71.7166 172.325 72.0017 180.009C72.0207 180.641 66.1 181.273 60.3694 180.023Z" fill="url(#paint4_linear)"/>
<path d="M50.3575 219.477C50.3433 218.17 50.5333 217.02 51.0893 215.11C59.6329 191.75 60.3599 179.971 60.3599 179.971L72.0112 179.918C72.0112 179.918 72.8094 191.475 81.5669 214.753C82.2606 216.412 82.3367 217.928 82.4269 219.329L82.4792 226.804C82.484 227.93 81.5669 228.857 80.4407 228.861L79.88 228.866L52.9995 228.99L52.4388 228.994C51.3079 228.999 50.386 228.087 50.3813 226.956L50.3575 219.477Z" fill="url(#paint5_linear)"/>
<path d="M50.3575 219.477C50.3575 219.268 50.3623 219.059 50.3718 218.854C50.4288 218.203 50.7281 217.471 52.1537 217.467L80.8969 217.334C81.9328 217.372 82.2749 218.165 82.3842 218.669C82.3984 218.892 82.4174 219.116 82.4317 219.329L82.484 226.799C82.4887 227.502 82.1323 228.13 81.5859 228.5C81.258 228.724 80.8684 228.857 80.4455 228.857L79.8848 228.861L53.0042 228.985L52.4435 228.99C51.8781 228.994 51.3649 228.766 50.9942 228.396C50.6236 228.025 50.3908 227.517 50.386 226.951L50.3575 219.477Z" fill="url(#paint6_radial)"/>
<path d="M22.0039 157.015L31.2413 164.081C33.7169 165.948 37.2332 165.454 39.1006 162.978C40.9681 160.503 40.4739 156.986 37.9982 155.119L28.528 147.873L22.0039 157.015Z" fill="#8A6FE8"/>
<path d="M106.295 106.956L116.915 103.102C120.911 113.836 128.476 121.135 135.627 122.285C144.114 123.648 154.226 117.609 164.1 105.283L173.318 111.802C156.939 132.254 142.47 134.777 133.218 133.29C121.477 131.403 111.911 122.047 106.295 106.956Z" fill="#8A6FE8"/>
<path d="M140.185 110.389L130.694 118.074L131.594 119.185L141.085 111.5L140.185 110.389Z" fill="#A08BE8"/>
<path d="M139.343 119.267C146.238 104.456 145.896 91.56 145.896 91.56L149.555 92.23L149.659 92.1777C149.635 62.6789 128.59 36.4779 98.5353 30.9802C64.6745 24.7839 32.2012 47.2168 26.0097 81.0776C19.8182 114.938 42.2463 147.412 76.1071 153.603C102.826 158.488 128.676 145.554 141.439 123.24C141.866 122.275 142.18 120.45 139.343 119.267Z" fill="url(#paint7_radial)"/>
<path d="M139.343 119.267C146.157 104.637 145.905 91.8831 145.896 91.5742L82.2843 79.942C82.2843 79.942 78.3499 78.8016 77.6799 82.4604C77.0099 86.1192 75.2708 96.4922 73.1753 107.93C72.7429 110.282 74.463 111.769 75.9788 112.045C75.9835 112.045 138.744 120.626 139.343 119.267Z" fill="url(#paint8_radial)"/>
<path d="M101.172 112.311C101.172 112.311 112.372 106.357 114.544 105.273C116.715 104.19 118.402 104.418 119.875 106.248C121.348 108.077 129.745 117.533 129.745 117.533L101.172 112.311Z" fill="#A08BE8"/>
<path d="M141.063 123.9C141.063 123.9 143.358 120.945 139.343 119.263C139.353 119.248 76.8103 107.778 76.8103 107.778C75.3563 107.512 73.6409 106.3 73.736 104.86C73.5554 105.872 73.3653 106.894 73.18 107.93C72.7904 110.063 74.1684 111.484 75.5606 111.935C75.6984 111.978 75.841 112.021 75.9835 112.045L80.2601 112.829L141.063 123.9Z" fill="#512BD4"/>
<path d="M134.511 133.009L28.7799 113.675C30.4145 118.141 32.5528 122.389 35.1377 126.347L124.076 142.613C127.896 139.823 131.398 136.606 134.511 133.009Z" fill="#D0C5F3"/>
<path d="M122.245 127.477L102.459 123.858L99.2588 141.359L119.045 144.977L122.245 127.477Z" fill="#512BD4"/>
<path d="M103.021 29.3647L91.1891 27.1218L95.1616 15.2853L103.658 16.9009L103.021 29.3647Z" fill="#8A6FE8"/>
<path d="M106.138 37.6516C106.67 37.7514 107.188 37.3713 107.226 36.8296C107.663 31.0942 103.734 25.8198 97.9508 24.7269C92.168 23.6293 86.5752 27.0933 84.8836 32.591C84.722 33.109 85.0641 33.6507 85.5963 33.7552L106.138 37.6516Z" fill="url(#paint9_radial)"/>
<path d="M36.0072 86.1906C20.1555 96.5256 3.3391 116.279 11.8875 151.974L22.9875 149.256C20.0034 136.749 20.4216 125.72 24.2325 116.473C27.5777 108.353 33.6171 101.401 42.1892 95.8033L36.0072 86.1906Z" fill="#8A6FE8"/>
<path d="M39.3287 102.028C45.6507 102.028 50.7756 96.9032 50.7756 90.5812C50.7756 84.2592 45.6507 79.1343 39.3287 79.1343C33.0068 79.1343 27.8818 84.2592 27.8818 90.5812C27.8818 96.9032 33.0068 102.028 39.3287 102.028Z" fill="url(#paint10_radial)"/>
<path d="M101.997 98.7126C102.779 94.2541 101.264 90.2623 98.6122 89.7967C95.9603 89.3312 93.1761 92.5682 92.3934 97.0268C91.6106 101.485 93.1259 105.477 95.7778 105.943C98.4297 106.408 101.214 103.171 101.997 98.7126Z" fill="#512BD4"/>
<path d="M97.9271 93.8218C95.8458 95.2378 95.3041 98.0746 96.7154 100.156C97.68 101.572 99.3003 102.275 100.897 102.133C101.391 101.125 101.776 99.9658 101.999 98.7018C102.356 96.6776 102.232 94.7531 101.747 93.2088C100.493 92.8524 99.0913 93.033 97.9271 93.8218Z" fill="#8065E0"/>
<path d="M137.773 105.132C138.689 100.699 137.293 96.6638 134.656 96.1194C132.02 95.575 129.14 98.7275 128.225 103.161C127.309 107.594 128.705 111.629 131.342 112.174C133.979 112.718 136.858 109.565 137.773 105.132Z" fill="#512BD4"/>
<path d="M133.76 99.8659C131.679 101.282 131.137 104.119 132.548 106.2C133.518 107.625 135.152 108.329 136.758 108.177C137.2 107.264 137.552 106.233 137.78 105.126C138.227 102.955 138.117 100.878 137.585 99.2577C136.326 98.8966 134.924 99.0724 133.76 99.8659Z" fill="#8065E0"/>
<path d="M100.564 18.0365C105.367 18.0365 109.26 14.1433 109.26 9.34081C109.26 4.53832 105.367 0.645142 100.564 0.645142C95.7617 0.645142 91.8686 4.53832 91.8686 9.34081C91.8686 14.1433 95.7617 18.0365 100.564 18.0365Z" fill="#D0C5F3"/>
<path d="M166.319 111.004L166.661 99.2057C166.727 96.06 164.237 93.4561 161.092 93.3848C157.946 93.3135 155.342 95.8082 155.271 98.9538L154.924 111.056L166.319 111.004Z" fill="#8A6FE8"/>
<path d="M165.425 126.851C172.01 126.851 177.347 121.514 177.347 114.929C177.347 108.345 172.01 103.007 165.425 103.007C158.841 103.007 153.503 108.345 153.503 114.929C153.503 121.514 158.841 126.851 165.425 126.851Z" fill="url(#paint11_radial)"/>
<path d="M171.912 120.17L183.715 120.394C186.86 120.432 189.441 117.913 189.479 114.768C189.517 111.622 186.998 109.042 183.853 109.004L171.75 108.776L171.912 120.17Z" fill="#8A6FE8"/>
<path d="M170.795 113.152L181.824 108.937C184.755 107.792 186.205 104.49 185.06 101.558C183.914 98.6259 180.612 97.1766 177.68 98.3218L166.371 102.646L170.795 113.152Z" fill="#D0C5F3"/>
<path d="M186.114 97.1148L182.674 94.9053C178.721 92.3678 173.461 93.5178 170.923 97.4712L167.055 103.501L164.979 106.742L156.15 120.503C154.981 122.323 155.513 124.741 157.328 125.91L168.5 133.076C170.32 134.245 172.738 133.713 173.907 131.897L182.736 118.136L184.812 114.896L188.68 108.866C191.218 104.912 190.068 99.6522 186.114 97.1148Z" fill="#9B643D"/>
<path d="M195.971 87.3679L187.704 82.0641L178.921 95.7545L187.188 101.058L195.971 87.3679Z" fill="#9B643D"/>
<path d="M195.973 87.3678L187.706 82.064L184.052 87.7593L192.319 93.0631L195.973 87.3678Z" fill="#605D5A"/>
<path d="M188.264 109.528L170.462 98.1066L159.041 115.908L176.843 127.329L188.264 109.528Z" fill="#FADCBD"/>
<path d="M177.086 132.273L172.225 131.147C169.179 130.443 167.279 127.398 167.982 124.352C168.685 121.306 171.731 119.405 174.777 120.108L179.638 121.235C182.684 121.938 184.584 124.984 183.881 128.03C183.178 131.075 180.132 132.976 177.086 132.273Z" fill="#8A6FE8"/>
<path d="M183.553 124.352L178.692 123.226C175.646 122.522 173.746 119.477 174.449 116.431C175.152 113.385 178.198 111.484 181.244 112.187L186.105 113.314C189.151 114.017 191.052 117.063 190.348 120.109C189.645 123.159 186.604 125.06 183.553 124.352Z" fill="#8A6FE8"/>
<path d="M75.3658 185.896L80.3171 168.4C80.8493 166.514 79.6709 164.57 77.7465 164.171L61.0251 160.731C59.918 160.503 58.8251 160.85 58.0505 161.567C57.9888 161.605 57.9222 161.648 57.8605 161.7L52.377 166.124C51.897 166.509 51.2556 166.633 50.6711 166.452L4.21344 152.135C2.99224 151.76 1.69977 152.463 1.35289 153.689L0.298011 157.414C-0.0536175 158.664 0.706659 159.956 1.97062 160.251L49.0888 171.218C49.6922 171.361 50.1769 171.802 50.367 172.392C51.3601 175.476 52.6478 179.51 52.9044 180.384C52.9282 180.474 52.9757 180.55 53.0327 180.612C53.4033 181.382 54.0591 182.009 54.9144 182.323L70.961 188.153C72.8094 188.823 74.8337 187.787 75.3658 185.896Z" fill="#797673"/>
<path d="M10.4097 156.706L10.7661 168.329C10.8849 171.427 13.4888 173.841 16.5869 173.727C19.6851 173.608 22.099 171.004 21.9849 167.906L21.619 155.984L10.4097 156.706Z" fill="#8A6FE8"/>
<path d="M18.4924 156.464L19.1481 168.077C19.343 171.17 22.0087 173.518 25.1021 173.323C28.1954 173.128 30.5428 170.462 30.348 167.369L29.678 155.461L18.4924 156.464Z" fill="#8A6FE8"/>
<path d="M6.03808 152.658L4.12314 164.128C3.63371 167.189 5.71972 170.068 8.77983 170.557C11.8399 171.047 14.7195 168.961 15.2089 165.901L17.1714 154.14L6.03808 152.658Z" fill="#8A6FE8"/>
<path d="M17.5468 162.822C24.0341 162.822 29.2931 157.563 29.2931 151.075C29.2931 144.588 24.0341 139.329 17.5468 139.329C11.0595 139.329 5.80055 144.588 5.80055 151.075C5.80055 157.563 11.0595 162.822 17.5468 162.822Z" fill="url(#paint12_radial)"/>
<path d="M102.902 135.604C102.745 135.575 102.626 135.499 102.536 135.376C102.446 135.247 102.417 135.114 102.446 134.967C102.474 134.82 102.55 134.701 102.679 134.615C102.807 134.53 102.95 134.501 103.102 134.53C103.258 134.558 103.382 134.639 103.472 134.763C103.563 134.891 103.596 135.029 103.567 135.176C103.539 135.323 103.463 135.437 103.33 135.523C103.206 135.608 103.064 135.637 102.902 135.604Z" fill="white"/>
<path d="M109.117 136.678L108.11 136.488L106.238 131.802C106.19 131.684 106.157 131.565 106.133 131.441L106.109 131.437C106.109 131.56 106.067 131.826 105.995 132.225L105.297 135.96L104.404 135.794L105.468 130.097L106.542 130.296L108.343 134.867C108.419 135.057 108.466 135.186 108.485 135.257L108.5 135.262C108.5 135.105 108.538 134.848 108.604 134.487L109.288 130.814L110.177 130.98L109.117 136.678Z" fill="white"/>
<path d="M113.46 137.485L110.339 136.901L111.403 131.204L114.401 131.764L114.249 132.567L112.177 132.182L111.878 133.798L113.788 134.154L113.641 134.953L111.731 134.596L111.417 136.283L113.617 136.692L113.46 137.485Z" fill="white"/>
<path d="M118.811 133.418L117.214 133.119L116.302 138.013L115.38 137.842L116.292 132.947L114.701 132.648L114.853 131.845L118.968 132.615L118.811 133.418Z" fill="white"/>
<path d="M173.37 144.352C173 144.352 172.7 144.052 172.7 143.682V139.21C172.7 138.84 173 138.54 173.37 138.54C173.741 138.54 174.04 138.84 174.04 139.21V143.682C174.04 144.052 173.741 144.352 173.37 144.352Z" fill="#797673"/>
<path d="M236.141 144.352C235.77 144.352 235.471 144.052 235.471 143.682V139.21C235.471 138.84 235.77 138.54 236.141 138.54C236.511 138.54 236.811 138.84 236.811 139.21V143.682C236.806 144.052 236.507 144.352 236.141 144.352Z" fill="#797673"/>
<path d="M229.636 204.271H183.235V205.887H229.636V204.271Z" fill="#E1DFDD"/>
<path d="M229.118 212.311H232.472L217.77 146.343H214.416L229.118 212.311Z" fill="#B3AFAB"/>
<path d="M180.398 229.26H177.043L195.803 146.523H199.158L180.398 229.26Z" fill="#B3AFAB"/>
<path d="M163.306 143.601C163.591 163.197 179.557 178.997 199.22 178.997H214.036C233.698 178.997 249.664 163.197 249.949 143.601H163.306Z" fill="#E3646A"/>
<path d="M254.097 144.846H159.894C159.286 144.846 158.792 144.352 158.792 143.743V143.463C158.792 142.855 159.286 142.361 159.894 142.361H254.097C254.706 142.361 255.2 142.855 255.2 143.463V143.743C255.2 144.352 254.706 144.846 254.097 144.846Z" fill="#797673"/>
<path d="M235.594 146.476C233.37 162.209 221.923 174.193 208.124 174.193H211.812C228.3 174.193 241.976 162.209 244.632 146.476H235.594Z" fill="#EE8F94"/>
<path d="M191.85 180.902H189.08C187.654 180.902 186.495 179.747 186.495 178.317V176.944C186.495 175.518 187.649 174.359 189.08 174.359H191.85C193.275 174.359 194.435 175.514 194.435 176.944V178.317C194.435 179.747 193.275 180.902 191.85 180.902Z" fill="#E3646A"/>
<path d="M224.794 180.902H222.023C220.598 180.902 219.438 179.747 219.438 178.317V176.944C219.438 175.518 220.593 174.359 222.023 174.359H224.794C226.219 174.359 227.378 175.514 227.378 176.944V178.317C227.378 179.747 226.219 180.902 224.794 180.902Z" fill="#E3646A"/>
<path d="M177.832 225.782L177.043 229.26H180.398L181.187 225.782H177.832Z" fill="#797673"/>
<path d="M232.843 229.384C238.567 229.384 243.206 224.744 243.206 219.021C243.206 213.297 238.567 208.657 232.843 208.657C227.119 208.657 222.479 213.297 222.479 219.021C222.479 224.744 227.119 229.384 232.843 229.384Z" fill="#797673"/>
<path d="M232.843 227.288C237.409 227.288 241.111 223.587 241.111 219.02C241.111 214.454 237.409 210.752 232.843 210.752C228.277 210.752 224.575 214.454 224.575 219.02C224.575 223.587 228.277 227.288 232.843 227.288Z" fill="#E1DFDD"/>
<path d="M232.843 222.964C235.021 222.964 236.787 221.199 236.787 219.02C236.787 216.842 235.021 215.076 232.843 215.076C230.665 215.076 228.899 216.842 228.899 219.02C228.899 221.199 230.665 222.964 232.843 222.964Z" fill="#B3AFAB"/>
<path d="M240.455 140.104H168.899C168.409 140.104 168.01 139.705 168.01 139.215C168.01 138.726 168.409 138.327 168.899 138.327H240.455C240.945 138.327 241.344 138.726 241.344 139.215C241.349 139.705 240.949 140.104 240.455 140.104Z" fill="#797673"/>
<path d="M202.109 138.217H184.28C182.983 138.217 181.933 137.167 181.933 135.87V135.266C181.933 133.969 182.983 132.919 184.28 132.919H202.109C203.406 132.919 204.456 133.969 204.456 135.266V135.87C204.461 137.167 203.406 138.217 202.109 138.217Z" fill="#BF8F68"/>
<path d="M227.93 138.217H210.101C208.804 138.217 207.754 137.167 207.754 135.87V135.266C207.754 133.969 208.804 132.919 210.101 132.919H227.93C229.227 132.919 230.277 133.969 230.277 135.266V135.87C230.277 137.167 229.227 138.217 227.93 138.217Z" fill="#BF8F68"/>
<path d="M216.117 129.037C216.117 129.037 221.705 119.937 214.487 113.998C207.269 108.058 201.211 101.909 208.039 90.8616C213.114 82.6506 216.758 74.3968 212.083 68.614C207.402 62.8264 215.551 68.2813 219.833 74.069C222.551 77.7373 224.204 84.7081 219.633 90.5337C215.062 96.3593 215.993 102.242 220.498 107.792C227.455 116.359 222.104 125.155 216.117 129.037Z" fill="url(#paint13_linear)"/>
<defs>
<linearGradient id="paint0_linear" x1="199.288" y1="125.006" x2="192.493" y2="62.2829" gradientUnits="userSpaceOnUse">
<stop stop-color="#E1DFDD"/>
<stop offset="1" stop-color="#FEFEFE"/>
</linearGradient>
<linearGradient id="paint1_linear" x1="96.0144" y1="134.244" x2="105.809" y2="180.892" gradientUnits="userSpaceOnUse">
<stop stop-color="#522CD5"/>
<stop offset="0.4397" stop-color="#8A6FE8"/>
</linearGradient>
<linearGradient id="paint2_linear" x1="103.556" y1="178.558" x2="132.653" y2="230.432" gradientUnits="userSpaceOnUse">
<stop stop-color="#522CD5"/>
<stop offset="0.4397" stop-color="#8A6FE8"/>
</linearGradient>
<radialGradient id="paint3_radial" cx="0" cy="0" r="1" gradientUnits="userSpaceOnUse" gradientTransform="translate(125.222 207.337) rotate(-0.260741) scale(20.165)">
<stop offset="0.034" stop-color="#522CD5"/>
<stop offset="0.9955" stop-color="#8A6FE8"/>
</radialGradient>
<linearGradient id="paint4_linear" x1="74.6793" y1="134.279" x2="65.3089" y2="181.012" gradientUnits="userSpaceOnUse">
<stop stop-color="#522CD5"/>
<stop offset="0.4397" stop-color="#8A6FE8"/>
</linearGradient>
<linearGradient id="paint5_linear" x1="66.1872" y1="179.947" x2="66.4101" y2="228.927" gradientUnits="userSpaceOnUse">
<stop stop-color="#522CD5"/>
<stop offset="0.4397" stop-color="#8A6FE8"/>
</linearGradient>
<radialGradient id="paint6_radial" cx="0" cy="0" r="1" gradientUnits="userSpaceOnUse" gradientTransform="translate(67.0191 207.543) rotate(179.739) scale(22.1075)">
<stop offset="0.034" stop-color="#522CD5"/>
<stop offset="0.9955" stop-color="#8A6FE8"/>
</radialGradient>
<radialGradient id="paint7_radial" cx="0" cy="0" r="1" gradientUnits="userSpaceOnUse" gradientTransform="translate(101.59 77.3764) scale(62.3403)">
<stop offset="0.4744" stop-color="#A08BE8"/>
<stop offset="0.8618" stop-color="#8065E0"/>
</radialGradient>
<radialGradient id="paint8_radial" cx="0" cy="0" r="1" gradientUnits="userSpaceOnUse" gradientTransform="translate(109.73 74.3968) scale(57.0092)">
<stop stop-color="#E1DFDD"/>
<stop offset="0.6573" stop-color="white"/>
</radialGradient>
<radialGradient id="paint9_radial" cx="0" cy="0" r="1" gradientUnits="userSpaceOnUse" gradientTransform="translate(96.0528 31.0936) scale(9.1878)">
<stop stop-color="#8065E0"/>
<stop offset="0.8628" stop-color="#512BD4"/>
</radialGradient>
<radialGradient id="paint10_radial" cx="0" cy="0" r="1" gradientUnits="userSpaceOnUse" gradientTransform="translate(39.8408 85.7994) scale(16.9984)">
<stop stop-color="#8065E0"/>
<stop offset="0.8628" stop-color="#512BD4"/>
</radialGradient>
<radialGradient id="paint11_radial" cx="0" cy="0" r="1" gradientUnits="userSpaceOnUse" gradientTransform="translate(163.753 109.853) rotate(-166.98) scale(13.2739)">
<stop stop-color="#8065E0"/>
<stop offset="0.8628" stop-color="#512BD4"/>
</radialGradient>
<radialGradient id="paint12_radial" cx="0" cy="0" r="1" gradientUnits="userSpaceOnUse" gradientTransform="translate(13.4754 148.371) rotate(-66.7961) scale(16.6033)">
<stop stop-color="#8065E0"/>
<stop offset="0.8628" stop-color="#512BD4"/>
</radialGradient>
<linearGradient id="paint13_linear" x1="217.86" y1="128.841" x2="211.065" y2="66.1185" gradientUnits="userSpaceOnUse">
<stop stop-color="#E2E0DE"/>
<stop offset="0.1891" stop-color="#E1DFDD"/>
<stop offset="1" stop-color="#FEFEFE"/>
</linearGradient>
</defs>
</svg>
