<svg width="303" height="248" viewBox="0 0 303 248" fill="none" xmlns="http://www.w3.org/2000/svg">
<path d="M186.407 59.9805C190.74 68.8597 193.256 84.0448 186.073 97.6012C181.714 105.833 172.167 116.268 151.438 119.243L149.789 107.754C162.369 105.948 171.368 100.561 175.816 92.1724C180.629 83.0895 179.36 72.0179 175.972 65.0752L186.407 59.9805Z" fill="url(#paint0_linear)"/>
<path d="M162.539 104.186L161.321 104.749L166.13 115.144L167.348 114.58L162.539 104.186Z" fill="#A08BE8"/>
<path d="M178.726 82.3434L178.538 83.6716L189.877 85.2784L190.065 83.9502L178.726 82.3434Z" fill="#A08BE8"/>
<path d="M185.04 99.4178L173.352 95.936C173.065 96.3014 172.767 96.6564 172.454 97.0009L179.439 106.527C181.814 104.178 183.635 101.746 185.04 99.4178Z" fill="#A08BE8"/>
<path d="M103.628 207.274C106.389 220.376 120.149 231.625 121.021 232.137C121.893 232.649 96.1111 232.91 96.1111 232.91C96.1111 232.91 88.5316 214.796 91.8098 206.815C92.1126 206.073 103.628 207.274 103.628 207.274Z" fill="#A08BE8"/>
<path d="M97.1914 231.14L119.805 231.25C119.805 231.25 125.061 234.778 126.455 237.326C127.525 239.273 127.447 243.642 127.358 245.589C127.332 246.132 126.883 246.56 126.34 246.555L104.526 246.513C103.826 246.513 103.262 245.939 103.268 245.239C103.288 242.822 102.876 237.681 101.968 236.209C100.611 234.027 97.1914 231.14 97.1914 231.14Z" fill="#D0C5F3"/>
<path d="M90.3324 205.029C86.1616 219.593 87.8686 242.687 88.0408 243.908C88.281 245.599 88.5106 246.784 90.9171 246.784C93.9134 246.784 106.776 246.784 106.776 246.784L100.021 205.969L90.3324 205.029Z" fill="#8065E0"/>
<path d="M103.628 207.274C104.635 214.42 111.766 224.463 125.27 234.977C126.847 236.203 127.661 237.503 127.661 239.33V245.182C127.661 246.048 126.962 246.748 126.095 246.748H104.411C103.8 246.748 103.304 246.252 103.304 245.641V238.886C103.304 236.783 102.882 235.702 100.72 234.152C95.3177 230.273 91.9038 217.202 91.7942 207.9C91.6846 198.598 103.628 207.274 103.628 207.274Z" fill="#A08BE8"/>
<path d="M127.463 237.895C127.593 238.338 127.666 238.813 127.666 239.335V245.187C127.666 246.053 126.967 246.753 126.1 246.753H104.416C103.806 246.753 103.31 246.257 103.31 245.646V238.892C103.31 238.531 103.294 238.203 103.263 237.895H127.463V237.895Z" fill="#D0C5F3"/>
<path d="M66.9309 207.274C64.1695 220.376 50.4095 231.625 49.5377 232.137C48.666 232.649 74.4477 232.91 74.4477 232.91C74.4477 232.91 82.0272 214.796 78.749 206.815C78.4515 206.073 66.9309 207.274 66.9309 207.274Z" fill="#A08BE8"/>
<path d="M73.3724 231.14L50.7593 231.25C50.7593 231.25 45.5027 234.778 44.109 237.326C43.0388 239.273 43.1171 243.642 43.2059 245.589C43.232 246.132 43.6809 246.56 44.2238 246.555L66.0383 246.513C66.7378 246.513 67.3015 245.939 67.2963 245.239C67.2754 242.822 67.6878 237.681 68.5961 236.209C69.9533 234.027 73.3724 231.14 73.3724 231.14Z" fill="#D0C5F3"/>
<path d="M80.2317 205.029C84.4025 219.593 82.6955 242.687 82.5233 243.908C82.2831 245.599 82.0535 246.784 79.647 246.784C76.6507 246.784 63.7886 246.784 63.7886 246.784L70.5433 205.969L80.2317 205.029Z" fill="#8065E0"/>
<path d="M66.9315 207.274C65.924 214.42 58.7934 224.463 45.2892 234.977C43.7128 236.203 42.8984 237.503 42.8984 239.33V245.182C42.8984 246.048 43.5979 246.748 44.4644 246.748H66.1484C66.7592 246.748 67.2551 246.252 67.2551 245.641V238.886C67.2551 236.783 67.6779 235.702 69.839 234.152C75.2417 230.273 78.6556 217.202 78.7653 207.9C78.8749 198.598 66.9315 207.274 66.9315 207.274Z" fill="#A08BE8"/>
<path d="M43.1015 237.895C42.971 238.338 42.8979 238.813 42.8979 239.335V245.187C42.8979 246.053 43.5974 246.753 44.464 246.753H66.148C66.7587 246.753 67.2546 246.257 67.2546 245.646V238.892C67.2546 238.531 67.2703 238.203 67.3016 237.895H43.1015V237.895Z" fill="#D0C5F3"/>
<path d="M90.8501 159.469L90.8814 191.369L102.339 191.358L102.303 159.453L90.8501 159.469Z" fill="url(#paint1_linear)"/>
<path d="M102.281 177.28H90.8179V178.773H102.281V177.28Z" fill="#A08BE8"/>
<path d="M67.2969 159.469L67.3334 191.369L78.7862 191.358L78.7496 159.453L67.2969 159.469Z" fill="url(#paint2_linear)"/>
<path d="M78.7283 177.28H67.2651V178.773H78.7283V177.28Z" fill="#A08BE8"/>
<path d="M19.1208 181.524C10.8314 176.142 0.866328 164.412 0.0520036 149.092C-0.443899 139.789 2.37491 125.93 18.6196 112.713L25.9433 121.718C16.0827 129.736 11.1393 138.991 11.6405 148.47C12.1886 158.738 18.9642 167.576 25.4422 171.788L19.1208 181.524Z" fill="url(#paint3_linear)"/>
<path d="M8.13423 123.783L7.37988 124.893L16.8502 131.333L17.6045 130.223L8.13423 123.783Z" fill="#A08BE8"/>
<path d="M144.986 125.502C150.914 125.502 155.719 120.697 155.719 114.77C155.719 108.843 150.914 104.038 144.986 104.038C139.059 104.038 134.254 108.843 134.254 114.77C134.254 120.697 139.059 125.502 144.986 125.502Z" fill="url(#paint4_radial)"/>
<path d="M26.2094 125.502C32.1368 125.502 36.9418 120.697 36.9418 114.77C36.9418 108.843 32.1368 104.038 26.2094 104.038C20.2821 104.038 15.4771 108.843 15.4771 114.77C15.4771 120.697 20.2821 125.502 26.2094 125.502Z" fill="url(#paint5_radial)"/>
<path d="M85.8225 166.991C118.106 166.991 144.276 140.82 144.276 108.537C144.276 76.2539 118.106 50.0833 85.8225 50.0833C53.5394 50.0833 27.3687 76.2539 27.3687 108.537C27.3687 140.82 53.5394 166.991 85.8225 166.991Z" fill="url(#paint6_radial)"/>
<path d="M134.306 108.537C134.306 114.869 133.084 120.909 130.876 126.452C130.339 127.794 129.039 128.676 127.593 128.676H44.0567C42.6108 128.676 41.311 127.794 40.7733 126.452C38.5652 120.909 37.3438 114.869 37.3438 108.537C37.3438 105.948 37.5525 103.411 37.9493 100.932C38.2207 99.2298 39.7084 97.9927 41.431 97.9927H130.224C131.946 97.9927 133.434 99.235 133.705 100.932C134.097 103.411 134.306 105.948 134.306 108.537Z" fill="url(#paint7_radial)"/>
<path d="M35.4229 138.14H136.222C133.961 141.982 131.268 145.542 128.219 148.757H43.4304C40.3767 145.542 37.6883 141.982 35.4229 138.14Z" fill="url(#paint8_radial)"/>
<path d="M37.9444 100.932C38.2158 99.2298 39.7035 97.9927 41.4262 97.9927H45.503C43.7804 97.9927 42.2927 99.235 42.0212 100.932C41.6245 103.411 41.4157 105.948 41.4157 108.537C41.4157 113.444 42.157 118.173 43.5142 122.636C44.0153 123.863 45.3412 124.599 46.6932 124.599H124.921C126.366 124.599 127.797 123.764 128.204 122.375C128.496 121.389 128.757 120.381 128.997 119.384C129.801 115.897 130.235 112.269 130.235 108.537C130.235 105.948 130.026 103.411 129.629 100.932C129.358 99.2298 127.87 97.9927 126.147 97.9927H130.224C131.947 97.9927 133.434 99.235 133.706 100.932C134.103 103.411 134.311 105.948 134.311 108.537C134.311 114.869 133.09 120.909 130.882 126.452C130.349 127.794 129.044 128.676 127.598 128.676H123.522H48.1287H44.057H44.0518C42.6059 128.676 41.3061 127.794 40.7684 126.452C38.5604 120.909 37.3389 114.869 37.3389 108.537C37.3389 105.948 37.5477 103.411 37.9444 100.932Z" fill="url(#paint9_radial)"/>
<path d="M94.2945 121.467C94.2945 121.467 88.4637 116.853 87.3257 116.002C86.1878 115.151 85.1908 115.099 84.152 116.002C83.108 116.905 77.272 121.467 77.272 121.467H94.2945Z" fill="#A08BE8"/>
<path d="M102.448 190.946H91.8307C89.821 190.946 88.1924 192.574 88.1924 194.584V205.604C88.1924 207.613 89.821 209.242 91.8307 209.242H102.448C104.458 209.242 106.087 207.613 106.087 205.604V194.584C106.087 192.574 104.458 190.946 102.448 190.946Z" fill="url(#paint10_radial)"/>
<path d="M38.0222 166.667L21.9445 164.527C19.0787 164.146 16.4478 166.161 16.0668 169.027C15.6857 171.893 17.7006 174.524 20.5664 174.905L36.6441 177.045C39.5099 177.426 42.1408 175.411 42.5219 172.545C42.9029 169.685 40.888 167.048 38.0222 166.667Z" fill="#D0C5F3"/>
<path d="M9.54199 180.333L11.0506 191.134C11.4734 194.01 14.1461 195.999 17.0223 195.576C19.8985 195.153 21.8874 192.48 21.4645 189.604L19.9142 178.527L9.54199 180.333Z" fill="#D0C5F3"/>
<path d="M14.459 183.586L22.5239 196.281C24.0899 198.729 27.3472 199.444 29.7954 197.873C32.2436 196.307 32.9588 193.05 31.3875 190.601L25.421 181.148L14.459 183.586Z" fill="#D0C5F3"/>
<path d="M18.8545 178.893L29.5973 189.437C31.6697 191.478 35 191.452 37.0411 189.38C39.0821 187.307 39.056 183.977 36.9837 181.936L26.0425 171.193L18.8545 178.893Z" fill="#D0C5F3"/>
<path d="M19.0006 186.477C25.0836 186.477 30.0149 181.546 30.0149 175.463C30.0149 169.38 25.0836 164.449 19.0006 164.449C12.9176 164.449 7.98633 169.38 7.98633 175.463C7.98633 181.546 12.9176 186.477 19.0006 186.477Z" fill="url(#paint11_radial)"/>
<path d="M13.6767 157.151L3.12646 161.606L3.64833 162.842L14.1986 158.387L13.6767 157.151Z" fill="#A08BE8"/>
<path d="M0.00488281 146.998L11.8178 143.971C11.8752 143.511 11.9535 143.052 12.0371 142.593L1.14807 138.02C0.323305 141.256 0.0153229 144.284 0.00488281 146.998Z" fill="#A08BE8"/>
<path d="M78.7803 190.946H68.1628C66.1531 190.946 64.5244 192.574 64.5244 194.584V205.604C64.5244 207.613 66.1531 209.242 68.1628 209.242H78.7803C80.79 209.242 82.4187 207.613 82.4187 205.604V194.584C82.4187 192.574 80.79 190.946 78.7803 190.946Z" fill="url(#paint12_radial)"/>
<path d="M65.0343 118.436C67.5595 118.399 69.5553 114.926 69.4921 110.68C69.4288 106.434 67.3304 103.022 64.8052 103.06C62.28 103.097 60.2842 106.57 60.3475 110.816C60.4108 115.062 62.5091 118.474 65.0343 118.436Z" fill="#512BD4"/>
<path d="M110.782 110.779C110.845 106.533 108.85 103.061 106.324 103.023C103.799 102.985 101.701 106.397 101.638 110.643C101.574 114.889 103.57 118.362 106.095 118.4C108.62 118.437 110.719 115.026 110.782 110.779Z" fill="#512BD4"/>
<path d="M64.8846 106.898C63.2142 108.568 63.2142 111.278 64.8846 112.943C66.0226 114.081 67.6408 114.441 69.0815 114.029C69.3582 113.011 69.5096 111.878 69.4939 110.677C69.4678 108.751 69.0137 107.002 68.2985 105.661C67.0771 105.551 65.819 105.964 64.8846 106.898Z" fill="#8065E0"/>
<path d="M106.154 106.647C104.484 108.318 104.484 111.027 106.154 112.692C107.297 113.835 108.931 114.196 110.377 113.773C110.623 112.854 110.769 111.847 110.784 110.782C110.816 108.699 110.351 106.809 109.573 105.41C108.347 105.301 107.089 105.713 106.154 106.647Z" fill="#8065E0"/>
<path d="M136.238 97.9928C135.162 97.9928 134.181 97.2724 133.894 96.1866C130.151 81.9255 120.087 70.2379 107 64.1983C103.471 62.5696 105.1 57.9917 108.968 59.7717C123.375 66.4012 134.463 79.2633 138.581 94.9547C138.921 96.2493 138.148 97.5752 136.853 97.9145C136.645 97.9667 136.441 97.9928 136.238 97.9928Z" fill="url(#paint13_radial)"/>
<path d="M34.5824 114.608C35.6525 114.697 36.5712 115.501 36.7644 116.607C39.9747 135.05 53.6929 150.224 71.7125 155.267C73.0018 155.627 73.7535 156.963 73.3933 158.253C73.0331 159.542 71.6968 160.294 70.4074 159.934C50.6027 154.39 35.522 137.712 31.988 117.437C31.7583 116.117 32.6405 114.864 33.9612 114.634C34.17 114.598 34.3788 114.593 34.5824 114.608Z" fill="url(#paint14_radial)"/>
<path d="M117.158 122.819C116.349 122.819 115.645 123.383 115.483 124.176C115.284 125.153 114.851 126.52 113.891 127.799C111.86 130.508 106.713 132.925 101.488 126.823C98.0687 122.83 96.0173 119.4 90.1604 119.4C87.5765 119.4 85.8173 120.361 84.695 121.624C83.5727 120.355 81.8083 119.4 79.2296 119.4C73.3676 119.4 71.3213 122.83 67.9022 126.823C62.6769 132.925 57.53 130.508 55.4994 127.799C54.5389 126.52 54.1056 125.153 53.9073 124.176C53.7455 123.383 53.0408 122.819 52.2317 122.819C51.125 122.819 50.3002 123.848 50.5612 124.928C51.2294 127.669 53.1974 132.424 59.0125 135.128C64.4204 137.639 79.5481 136.882 84.695 130.049C89.842 136.887 104.97 137.644 110.378 135.128C116.193 132.424 118.166 127.669 118.829 124.928C119.09 123.848 118.27 122.819 117.158 122.819Z" fill="#33312D"/>
<path d="M297.359 240.724L287.08 193.06H192.681L182.403 240.724C182.367 240.813 182.346 240.907 182.346 240.996C182.346 244.409 208.107 247.181 239.886 247.181C271.666 247.181 297.426 244.409 297.426 240.996C297.421 240.907 297.395 240.818 297.359 240.724Z" fill="#F7B548"/>
<path d="M239.881 199.246C265.949 199.246 287.081 196.476 287.081 193.06C287.081 189.644 265.949 186.874 239.881 186.874C213.814 186.874 192.682 189.644 192.682 193.06C192.682 196.476 213.814 199.246 239.881 199.246Z" fill="#FAE969"/>
<path d="M249.058 240.63H230.704L239.442 206.538L249.058 240.63Z" fill="#E86E58"/>
<path d="M289.915 237.869L277.465 206.1V239.325C281.839 238.923 286.02 238.438 289.915 237.869Z" fill="#E86E58"/>
<path d="M270.804 239.873L259.743 206.543L256.079 240.63H256.585C261.408 240.458 266.179 240.202 270.804 239.873Z" fill="#E86E58"/>
<path d="M189.466 237.869L201.916 206.1V239.325C197.541 238.923 193.36 238.438 189.466 237.869Z" fill="#E86E58"/>
<path d="M208.577 239.873L219.638 206.543L223.302 240.63H222.796C217.973 240.458 213.196 240.202 208.577 239.873Z" fill="#E86E58"/>
<path d="M196.904 235.588C198.383 235.588 199.582 234.389 199.582 232.91C199.582 231.431 198.383 230.232 196.904 230.232C195.425 230.232 194.227 231.431 194.227 232.91C194.227 234.389 195.425 235.588 196.904 235.588Z" fill="#FAE969"/>
<path d="M216.74 236.11C218.219 236.11 219.418 234.911 219.418 233.432C219.418 231.953 218.219 230.754 216.74 230.754C215.261 230.754 214.062 231.953 214.062 233.432C214.062 234.911 215.261 236.11 216.74 236.11Z" fill="#FAE969"/>
<path d="M282.748 235.588C284.227 235.588 285.426 234.389 285.426 232.91C285.426 231.431 284.227 230.232 282.748 230.232C281.269 230.232 280.07 231.431 280.07 232.91C280.07 234.389 281.269 235.588 282.748 235.588Z" fill="#FAE969"/>
<path d="M262.765 236.251C264.244 236.251 265.443 235.052 265.443 233.573C265.443 232.094 264.244 230.895 262.765 230.895C261.286 230.895 260.087 232.094 260.087 233.573C260.087 235.052 261.286 236.251 262.765 236.251Z" fill="#FAE969"/>
<path d="M239.709 236.632C241.188 236.632 242.387 235.433 242.387 233.954C242.387 232.475 241.188 231.276 239.709 231.276C238.23 231.276 237.031 232.475 237.031 233.954C237.031 235.433 238.23 236.632 239.709 236.632Z" fill="#FAE969"/>
<path d="M277.606 51.1378C282.649 52.234 291.481 47.9275 291.481 47.9275" stroke="#797673" stroke-width="2" stroke-miterlimit="10" stroke-linecap="round" stroke-linejoin="round"/>
<path d="M278.3 52.4532C282.868 54.395 292.405 50.9707 292.405 50.9707" stroke="#797673" stroke-width="2" stroke-miterlimit="10" stroke-linecap="round" stroke-linejoin="round"/>
<path d="M277.142 53.8887C281.093 57.0885 290.98 54.797 290.98 54.797" stroke="#797673" stroke-width="2" stroke-miterlimit="10" stroke-linecap="round" stroke-linejoin="round"/>
<path d="M76.3321 151.788L95.1973 151.788L95.1973 135.105L76.3321 135.105L76.3321 151.788Z" fill="#512BD4"/>
<path d="M79.6208 145.568C79.4955 145.568 79.3911 145.526 79.3024 145.443C79.2136 145.359 79.1719 145.255 79.1719 145.135C79.1719 145.015 79.2189 144.91 79.3024 144.827C79.3911 144.743 79.4955 144.696 79.6208 144.702C79.7461 144.702 79.8557 144.743 79.9444 144.832C80.0332 144.916 80.0802 145.02 80.0802 145.14C80.0802 145.26 80.0332 145.359 79.9444 145.443C79.8557 145.526 79.7513 145.568 79.6208 145.568Z" fill="white"/>
<path d="M84.6371 145.511H83.8228L81.6826 142.112C81.6304 142.029 81.5834 141.935 81.5469 141.846H81.526C81.5416 141.945 81.5521 142.154 81.5469 142.478L81.5417 145.5H80.8213L80.8317 140.886H81.6983L83.7654 144.2C83.8541 144.336 83.9115 144.43 83.9324 144.482H83.9429C83.922 144.362 83.9115 144.153 83.9115 143.861L83.9168 140.891H84.6371V145.511Z" fill="white"/>
<path d="M88.1505 145.516L85.624 145.511L85.6345 140.896L88.0618 140.901V141.549L86.3809 141.544L86.3757 142.849L87.9208 142.854V143.501L86.3757 143.496L86.3705 144.858L88.1505 144.863V145.516Z" fill="white"/>
<path d="M91.7523 141.564L90.4577 141.559L90.4472 145.521H89.7008L89.7112 141.559L88.4219 141.554V140.907L91.7523 140.917V141.564Z" fill="white"/>
<path d="M180.858 49.6188L172.689 39.7216C170.497 37.0959 166.728 36.6209 164.28 38.6515C161.831 40.6821 161.623 44.4614 163.815 47.0818L172.193 57.2296L180.858 49.6188Z" fill="#D0C5F3"/>
<path d="M168.033 60.2414C165.668 53.565 168.993 46.5962 175.461 44.6805C181.928 42.7647 189.085 46.6276 191.45 53.304C193.814 59.9804 190.489 66.9491 184.022 68.8649C177.559 70.7806 170.397 66.9178 168.033 60.2414Z" fill="url(#paint15_radial)"/>
<path d="M194.049 88.5237C193.136 88.5237 192.269 87.9912 191.888 87.0986L156.491 4.50208C155.979 3.31191 156.533 1.9286 157.723 1.41704C158.913 0.905477 160.296 1.4588 160.808 2.64897L196.205 85.2455C196.717 86.4357 196.163 87.819 194.973 88.3305C194.67 88.461 194.357 88.5237 194.049 88.5237Z" fill="#605D5A"/>
<path d="M161.967 17.2859L166.31 15.5007L160.808 2.64899C160.297 1.4536 158.919 0.905495 157.723 1.41706C156.528 1.92862 155.98 3.30671 156.491 4.5021L161.967 17.2859Z" fill="#E8D441"/>
<path d="M190.672 72.3364L186.334 74.1373L191.888 87.0987C192.269 87.9913 193.136 88.5237 194.049 88.5237C194.357 88.5237 194.67 88.4611 194.973 88.3358C196.163 87.8242 196.717 86.4462 196.205 85.2508L190.672 72.3364Z" fill="#E8D441"/>
<path d="M192.024 66.7352L186.302 69.6584C183.807 70.9373 180.607 69.8463 179.161 67.2311L178.462 65.9678C177.016 63.3526 177.867 60.1945 180.362 58.9156L186.083 55.9923C188.578 54.7134 191.778 55.8044 193.224 58.4197L193.924 59.6829C195.37 62.3034 194.519 65.4563 192.024 66.7352Z" fill="#D0C5F3"/>
<path d="M191.309 57.7464L185.588 60.6696C183.092 61.9485 179.892 60.8575 178.447 58.2423L177.747 56.9791C176.301 54.3638 177.152 51.2057 179.647 49.9268L185.368 47.0036C187.863 45.7247 191.063 46.8157 192.509 49.4309L193.209 50.6941C194.655 53.3146 193.804 56.4675 191.309 57.7464Z" fill="#D0C5F3"/>
<path d="M190.829 49.295L185.108 52.2182C182.612 53.4971 179.412 52.4061 177.967 49.7909L177.267 48.5276C175.821 45.9124 176.672 42.7543 179.167 41.4754L184.888 38.5522C187.383 37.2733 190.583 38.3642 192.029 40.9795L192.729 42.2427C194.175 44.858 193.324 48.0161 190.829 49.295Z" fill="#D0C5F3"/>
<path d="M283.86 191.536C285.739 193.65 283.63 195.038 280.973 194.072C268.706 189.599 250.655 179.905 243.791 160.367C237.5 142.467 257.723 135.645 266.691 162.512C270.924 175.202 279.235 186.331 283.86 191.536Z" fill="#797673"/>
<path d="M220.332 194C254.575 193.827 279.177 158.837 273.498 119.661C268.398 84.4729 277.627 59.3907 282.059 51.1796C283.787 47.9849 282.231 44.8059 277.554 46.6747C273.049 48.4756 269.442 50.7306 269.442 50.7306C269.442 50.7306 244.663 51.6337 237.005 71.9083C229.347 92.1829 228.507 113.883 224.842 136.788C219.434 170.577 187.044 177.697 171.676 160.664C164.775 153.017 158.172 153.79 162.666 164.266C168.45 177.77 182.837 194.187 220.332 194Z" fill="url(#paint16_linear)"/>
<path d="M253.923 68.129C256.711 68.129 258.971 65.869 258.971 63.0812C258.971 60.2934 256.711 58.0334 253.923 58.0334C251.135 58.0334 248.875 60.2934 248.875 63.0812C248.875 65.869 251.135 68.129 253.923 68.129Z" fill="white"/>
<path d="M254.93 64.407C256.412 64.407 257.613 63.2057 257.613 61.7239C257.613 60.242 256.412 59.0408 254.93 59.0408C253.448 59.0408 252.247 60.242 252.247 61.7239C252.247 63.2057 253.448 64.407 254.93 64.407Z" fill="#797673"/>
<path d="M274.761 47.8909C275.628 47.4838 276.567 47.0714 277.549 46.6747C282.226 44.8059 283.781 47.9849 282.054 51.1796C281.605 52.0148 281.098 53.0327 280.571 54.2124C277.429 53.372 275.774 51.2318 274.761 47.8909Z" fill="#605D5A"/>
<path d="M280.075 46.5546C292.362 46.5546 302.323 36.5939 302.323 24.3068C302.323 12.0197 292.362 2.05908 280.075 2.05908C267.788 2.05908 257.827 12.0197 257.827 24.3068C257.827 36.5939 267.788 46.5546 280.075 46.5546Z" fill="url(#paint17_radial)"/>
<path d="M167.354 162.878C175.654 149.259 165.538 136.141 161.873 132.095C161.424 131.599 160.599 131.876 160.547 132.544C160.375 134.637 159.942 138.192 158.845 140.693C157.572 143.605 158.851 152.443 158.851 152.443C158.851 152.443 151.642 148.804 145.968 149.107C142.261 149.306 138.446 147.948 136.248 146.988C135.627 146.716 135.011 147.385 135.34 147.974C138.482 153.67 149.256 169.789 167.354 162.878Z" fill="#797673"/>
<path d="M218.849 195.675C217.424 198.118 219.768 199.063 222.18 197.591C233.319 190.774 249.089 177.692 251.944 157.183C254.565 138.391 233.387 135.713 229.921 163.823C228.292 177.102 222.357 189.662 218.849 195.675Z" fill="#797673"/>
<path d="M268.983 16.5238C268.821 16.315 268.753 16.0853 268.779 15.8347C268.811 15.579 268.92 15.3754 269.119 15.224C269.317 15.0674 269.547 15.01 269.797 15.0465C270.053 15.083 270.262 15.2031 270.424 15.4119C270.585 15.6207 270.653 15.8556 270.627 16.1114C270.601 16.3724 270.486 16.576 270.288 16.7326C270.095 16.884 269.865 16.9414 269.609 16.8996C269.354 16.8579 269.145 16.7326 268.983 16.5238Z" fill="white"/>
<path d="M275.545 24.74L274.495 23.388L277.351 15.4693C277.424 15.2709 277.513 15.0778 277.622 14.9003L277.596 14.869C277.455 15.0256 277.116 15.3074 276.578 15.725L271.572 19.6087L270.643 18.4134L278.285 12.4834L279.402 13.9241L276.589 21.6184C276.474 21.9421 276.39 22.1561 276.338 22.2605L276.354 22.2814C276.531 22.0883 276.86 21.8064 277.34 21.4305L282.263 17.6095L283.187 18.7996L275.545 24.74Z" fill="white"/>
<path d="M280.06 30.5604L276.813 26.3792L284.455 20.4492L287.571 24.4634L286.496 25.2986L284.34 22.5163L282.179 24.1972L284.168 26.7602L283.098 27.5902L281.109 25.0272L278.849 26.7811L281.135 29.7252L280.06 30.5604Z" fill="white"/>
<path d="M291.242 31.4164L289.582 29.2762L283.02 34.3709L282.06 33.1338L288.621 28.039L286.966 25.9041L288.042 25.0688L292.317 30.5812L291.242 31.4164Z" fill="white"/>
<path d="M273.681 50.9916C265.715 50.407 256.199 41.084 256.199 41.084" stroke="#797673" stroke-width="2" stroke-miterlimit="10" stroke-linecap="round" stroke-linejoin="round"/>
<path d="M274.166 52.9803C265.621 52.9803 254.936 45.406 254.936 45.406" stroke="#797673" stroke-width="2" stroke-miterlimit="10" stroke-linecap="round" stroke-linejoin="round"/>
<path d="M275.043 54.7291C266.305 57.2556 255.619 51.4248 255.619 51.4248" stroke="#797673" stroke-width="2" stroke-miterlimit="10" stroke-linecap="round" stroke-linejoin="round"/>
<path d="M127.76 67.8158C125.646 65.6391 123.365 63.6241 120.932 61.7971H50.7174C48.2849 63.6241 46.0038 65.6391 43.8896 67.8158H127.76Z" fill="url(#paint18_radial)"/>
<path d="M107.878 57.621C90.0876 57.621 58.9815 57.621 58.9815 57.621C58.9815 57.621 59.7541 35.4776 52.3521 5.18059C85.896 -6.47574 114.507 5.18059 114.507 5.18059C114.507 5.18059 106.369 32.5649 107.878 57.621Z" fill="url(#paint19_radial)"/>
<path d="M108.034 41.8879H58.3706C59.1849 51.7381 58.9813 57.6211 58.9813 57.6211C58.9813 57.6211 90.0875 57.6211 107.877 57.6211C107.564 52.3854 107.669 47.0505 108.034 41.8879Z" fill="#E86E58"/>
<path d="M41.5986 54.7083C42.2981 59.3228 46.2706 62.8672 51.0782 62.8672H118.698C123.511 62.8672 127.484 59.3228 128.178 54.7083H41.5986Z" fill="#33312D"/>
<defs>
<linearGradient id="paint0_linear" x1="143.803" y1="105.482" x2="195.68" y2="76.6768" gradientUnits="userSpaceOnUse">
<stop offset="0.12" stop-color="#958FE7"/>
<stop offset="0.2619" stop-color="#BBB7EF"/>
</linearGradient>
<linearGradient id="paint1_linear" x1="96.5928" y1="159.454" x2="96.5928" y2="191.368" gradientUnits="userSpaceOnUse">
<stop offset="0.2368" stop-color="#958FE7"/>
<stop offset="0.4881" stop-color="#BBB7EF"/>
</linearGradient>
<linearGradient id="paint2_linear" x1="73.041" y1="159.454" x2="73.041" y2="191.368" gradientUnits="userSpaceOnUse">
<stop offset="0.2368" stop-color="#958FE7"/>
<stop offset="0.4881" stop-color="#BBB7EF"/>
</linearGradient>
<linearGradient id="paint3_linear" x1="32.2588" y1="120.59" x2="2.58836" y2="171.981" gradientUnits="userSpaceOnUse">
<stop offset="0.12" stop-color="#958FE7"/>
<stop offset="0.2619" stop-color="#BBB7EF"/>
</linearGradient>
<radialGradient id="paint4_radial" cx="0" cy="0" r="1" gradientUnits="userSpaceOnUse" gradientTransform="translate(148.187 110.354) scale(10.7344)">
<stop stop-color="#8065E0"/>
<stop offset="1" stop-color="#512BD4"/>
</radialGradient>
<radialGradient id="paint5_radial" cx="0" cy="0" r="1" gradientUnits="userSpaceOnUse" gradientTransform="translate(26.1485 110.741) scale(10.7344)">
<stop stop-color="#8065E0"/>
<stop offset="1" stop-color="#512BD4"/>
</radialGradient>
<radialGradient id="paint6_radial" cx="0" cy="0" r="1" gradientUnits="userSpaceOnUse" gradientTransform="translate(102.305 94.8245) scale(58.4553)">
<stop offset="0.4744" stop-color="#A08BE8"/>
<stop offset="0.8618" stop-color="#8065E0"/>
</radialGradient>
<radialGradient id="paint7_radial" cx="0" cy="0" r="1" gradientUnits="userSpaceOnUse" gradientTransform="translate(67.1766 86.7853) scale(70.9505)">
<stop offset="0.0933" stop-color="#E1DFDD"/>
<stop offset="0.6573" stop-color="white"/>
</radialGradient>
<radialGradient id="paint8_radial" cx="0" cy="0" r="1" gradientUnits="userSpaceOnUse" gradientTransform="translate(50.1003 143.118) scale(35.8355)">
<stop offset="0.4614" stop-color="#A08BE8"/>
<stop offset="0.5268" stop-color="#A793EA"/>
<stop offset="0.8352" stop-color="#C5B7F0"/>
<stop offset="1" stop-color="#D0C5F3"/>
</radialGradient>
<radialGradient id="paint9_radial" cx="0" cy="0" r="1" gradientUnits="userSpaceOnUse" gradientTransform="translate(67.8449 122.666) scale(60.9927)">
<stop stop-color="#512BD4"/>
<stop offset="0.7715" stop-color="#6645D9"/>
<stop offset="0.8738" stop-color="#7659DD"/>
<stop offset="0.9583" stop-color="#8065E0"/>
</radialGradient>
<radialGradient id="paint10_radial" cx="0" cy="0" r="1" gradientUnits="userSpaceOnUse" gradientTransform="translate(97.1387 200.095) scale(9.0485)">
<stop stop-color="#8065E0"/>
<stop offset="1" stop-color="#512BD4"/>
</radialGradient>
<radialGradient id="paint11_radial" cx="0" cy="0" r="1" gradientUnits="userSpaceOnUse" gradientTransform="translate(18.7499 171.095) scale(11.0183)">
<stop stop-color="#A08BE8"/>
<stop offset="1" stop-color="#8065E0"/>
</radialGradient>
<radialGradient id="paint12_radial" cx="0" cy="0" r="1" gradientUnits="userSpaceOnUse" gradientTransform="translate(73.4728 200.095) scale(9.0485)">
<stop stop-color="#8065E0"/>
<stop offset="1" stop-color="#512BD4"/>
</radialGradient>
<radialGradient id="paint13_radial" cx="0" cy="0" r="1" gradientUnits="userSpaceOnUse" gradientTransform="translate(121.857 78.6766) scale(18.103)">
<stop offset="0.3607" stop-color="#BDB9F0"/>
<stop offset="0.5611" stop-color="#C3BCEB" stop-opacity="0.3855"/>
<stop offset="0.6338" stop-color="#CEC3E2" stop-opacity="0.3217"/>
<stop offset="0.8689" stop-color="#EDD6C9" stop-opacity="0.1152"/>
<stop offset="1" stop-color="#F9DDBF" stop-opacity="0"/>
</radialGradient>
<radialGradient id="paint14_radial" cx="0" cy="0" r="1" gradientUnits="userSpaceOnUse" gradientTransform="translate(52.5731 137.306) rotate(-175.17) scale(21.7616)">
<stop stop-color="#BDB9F0"/>
<stop offset="0.5266" stop-color="#C3BCEB" stop-opacity="0.3855"/>
<stop offset="0.605" stop-color="#CEC3E2" stop-opacity="0.3217"/>
<stop offset="0.8586" stop-color="#EDD6C9" stop-opacity="0.1152"/>
<stop offset="1" stop-color="#F9DDBF" stop-opacity="0"/>
</radialGradient>
<radialGradient id="paint15_radial" cx="0" cy="0" r="1" gradientUnits="userSpaceOnUse" gradientTransform="translate(173.892 51.3655) rotate(138.662) scale(18.5255 19.9066)">
<stop stop-color="#A08BE8"/>
<stop offset="1" stop-color="#8065E0"/>
</radialGradient>
<linearGradient id="paint16_linear" x1="204.033" y1="100.186" x2="309.483" y2="160.637" gradientUnits="userSpaceOnUse">
<stop offset="0.5533" stop-color="#B3AFAB"/>
<stop offset="0.9712" stop-color="#605D5A"/>
</linearGradient>
<radialGradient id="paint17_radial" cx="0" cy="0" r="1" gradientUnits="userSpaceOnUse" gradientTransform="translate(286.184 15.6809) rotate(180) scale(27.0516)">
<stop offset="0.4634" stop-color="#8065E0"/>
<stop offset="1" stop-color="#512BD4"/>
</radialGradient>
<radialGradient id="paint18_radial" cx="0" cy="0" r="1" gradientUnits="userSpaceOnUse" gradientTransform="translate(103.613 82.9649) scale(49.9185)">
<stop offset="0.3541" stop-color="#8065E0"/>
<stop offset="1" stop-color="#512BD4"/>
</radialGradient>
<radialGradient id="paint19_radial" cx="0" cy="0" r="1" gradientUnits="userSpaceOnUse" gradientTransform="translate(109.974 -3.72269) scale(72.5474)">
<stop offset="0.4051" stop-color="#797673"/>
<stop offset="1" stop-color="#33312D"/>
</radialGradient>
</defs>
</svg>
