<svg width="187" height="233" viewBox="0 0 187 233" fill="none" xmlns="http://www.w3.org/2000/svg">
<path d="M126.894 112.478L126.704 101.074C141.068 100.831 151.722 96.569 158.36 88.4008C170.391 73.5991 166.167 50.596 166.119 50.3632L177.319 48.2202C177.538 49.3748 182.551 76.7163 167.207 95.5902C158.346 106.495 144.779 112.178 126.894 112.478Z" fill="#8A6FE8"/>
<path d="M147.991 51.1187L161.254 62.1665C163.615 64.1337 167.127 63.8153 169.099 61.4537C171.066 59.0921 170.748 55.5806 168.386 53.6086L155.124 42.5608C152.762 40.5936 149.251 40.912 147.279 43.2736C145.312 45.64 145.63 49.1515 147.991 51.1187Z" fill="#8A6FE8"/>
<path d="M181.387 54.9819L186.157 44.3997C187.407 41.5725 186.129 38.2653 183.302 37.0108C180.474 35.7611 177.167 37.0393 175.913 39.8666L171.023 50.7195L181.387 54.9819Z" fill="#8A6FE8"/>
<path d="M178.806 49.2608L178.749 33.2522C178.726 30.1588 176.202 27.6689 173.109 27.6927C170.016 27.7164 167.526 30.2396 167.55 33.333L167.554 45.2361L178.806 49.2608Z" fill="#8A6FE8"/>
<path d="M172.187 50.9904L168.495 35.4C167.787 32.3874 164.775 30.52 161.762 31.228C158.749 31.936 156.882 34.9486 157.59 37.9612L161.349 53.8367L172.187 50.9904Z" fill="#8A6FE8"/>
<path d="M170.111 65.7256C176.585 65.7256 181.833 60.4772 181.833 54.003C181.833 47.5289 176.585 42.2805 170.111 42.2805C163.637 42.2805 158.388 47.5289 158.388 54.003C158.388 60.4772 163.637 65.7256 170.111 65.7256Z" fill="url(#paint0_radial)"/>
<path d="M110.838 183.25C110.947 173.371 109.541 153.319 99.3433 136.526L89.3742 142.58C98.6258 157.809 99.3195 175.586 99.1057 183.34C99.0867 183.982 105.064 184.562 110.838 183.25Z" fill="url(#paint1_linear)"/>
<path d="M99.1057 183.231L108.338 183.188L116.958 232.568L98.4262 232.654C97.015 232.659 95.9458 231.523 96.0408 230.112L99.1057 183.231Z" fill="#522CD5"/>
<path d="M136.72 219.582C138.322 220.846 138.293 222.675 138.17 224.604L137.785 230.52C137.714 231.58 136.792 232.449 135.732 232.454L116.416 232.545C115.214 232.549 114.307 231.58 114.387 230.382L114.516 224.253C114.663 222.024 113.912 221.207 112.187 219.107C109.232 215.519 100.493 195.966 101.325 183.226L110.833 183.184C111.47 190.744 121.448 207.536 136.72 219.582Z" fill="url(#paint2_linear)"/>
<path d="M138.165 224.604C138.255 223.255 138.279 221.962 137.752 220.87L113.665 220.979C114.33 221.958 114.611 222.813 114.52 224.243L114.392 230.373C114.311 231.575 115.224 232.545 116.421 232.535L135.732 232.449C136.792 232.445 137.714 231.575 137.785 230.516L138.165 224.604Z" fill="url(#paint3_radial)"/>
<path d="M59.9087 183.469C59.7091 173.59 60.9351 153.523 70.9802 136.64L81.0064 142.604C71.8926 157.919 71.3604 175.7 71.6455 183.45C71.6692 184.096 65.6916 184.733 59.9087 183.469Z" fill="url(#paint4_linear)"/>
<path d="M49.8065 223.283C49.7923 221.967 49.9871 220.808 50.543 218.879C59.1674 195.305 59.8944 183.421 59.8944 183.421L71.6502 183.369C71.6502 183.369 72.458 195.03 81.2915 218.522C81.99 220.195 82.0708 221.725 82.161 223.141L82.2133 230.682C82.2181 231.817 81.2915 232.754 80.1558 232.758L79.5856 232.763L52.4627 232.887L51.8925 232.891C50.7521 232.896 49.8208 231.974 49.816 230.834L49.8065 223.283Z" fill="url(#paint5_linear)"/>
<path d="M49.8065 223.283C49.8065 223.07 49.8113 222.86 49.8208 222.656C49.8825 222 50.1819 221.264 51.6169 221.254L80.6215 221.121C81.6669 221.159 82.0137 221.962 82.123 222.466C82.1373 222.689 82.1563 222.918 82.1706 223.136L82.2228 230.677C82.2276 231.39 81.8664 232.017 81.3152 232.392C80.9874 232.616 80.5882 232.749 80.1653 232.754L79.5951 232.758L52.4722 232.882L51.9068 232.887C51.3366 232.891 50.8186 232.659 50.4433 232.288C50.0679 231.917 49.835 231.399 49.8303 230.829L49.8065 223.283Z" fill="url(#paint6_radial)"/>
<path d="M140.455 111.936C144.532 95.9798 141.8 83.2689 141.8 83.2689L145.549 83.2499L145.639 83.1786C140.137 53.9555 114.416 31.9122 83.6151 32.0548C48.9179 32.2116 20.916 60.4701 21.0728 95.1672C21.2296 129.864 49.4881 157.866 84.1853 157.71C111.565 157.586 134.772 139.962 143.264 115.486C143.515 114.445 143.482 112.582 140.455 111.936Z" fill="url(#paint7_radial)"/>
<path d="M138.35 126.448L29.8635 126.942C32.3154 131.062 35.2234 134.873 38.5164 138.313L129.797 137.9C133.066 134.426 135.936 130.591 138.35 126.448Z" fill="#D8CFF7"/>
<path d="M104.975 141.436L125.336 141.343L125.254 123.334L104.893 123.427L104.975 141.436Z" fill="#512BD4"/>
<path d="M108.5 134.702C108.362 134.702 108.248 134.659 108.153 134.569C108.058 134.478 108.01 134.364 108.01 134.241C108.01 134.112 108.058 133.998 108.153 133.908C108.248 133.813 108.362 133.77 108.5 133.77C108.638 133.77 108.752 133.818 108.847 133.908C108.942 133.998 108.994 134.112 108.994 134.241C108.994 134.369 108.947 134.478 108.852 134.569C108.752 134.654 108.638 134.702 108.5 134.702Z" fill="white"/>
<path d="M113.912 134.616H113.033L110.705 130.962C110.648 130.872 110.595 130.772 110.557 130.672H110.538C110.557 130.777 110.567 131.005 110.567 131.356L110.572 134.621H109.792L109.783 129.641H110.719L112.966 133.21C113.062 133.357 113.123 133.461 113.152 133.514H113.166C113.142 133.381 113.133 133.157 113.133 132.844L113.128 129.636H113.903L113.912 134.616Z" fill="white"/>
<path d="M117.704 134.607L114.977 134.611L114.967 129.632L117.585 129.627V130.33L115.775 130.335L115.78 131.746L117.447 131.741V132.44L115.78 132.445L115.784 133.918L117.704 133.913V134.607Z" fill="white"/>
<path d="M121.572 130.321L120.175 130.325L120.184 134.602H119.377L119.367 130.325L117.975 130.33V129.627L121.567 129.617L121.572 130.321Z" fill="white"/>
<path d="M140.588 111.931C144.618 96.1699 142 83.5826 141.933 83.2784L76.7488 83.5731C76.7488 83.5731 72.6386 83.1739 72.6576 86.9278C72.6766 90.6769 72.8762 101.278 72.9284 113.001C72.9379 115.41 74.9194 116.564 76.4732 116.555C76.478 116.555 138.963 114.54 140.588 111.931Z" fill="url(#paint8_radial)"/>
<path d="M101.7 112.136C101.7 112.136 111.688 104.157 113.636 102.68C115.585 101.202 117.295 101.116 119.096 102.656C120.897 104.196 130.971 112.003 130.971 112.003L101.7 112.136Z" fill="#A08BE8"/>
<path d="M143.016 116.284C143.016 116.284 144.879 112.853 140.588 111.936C140.593 111.917 76.5017 112.178 76.5017 112.178C75.0096 112.183 73.0852 111.304 72.9141 109.86C72.9189 110.895 72.9284 111.946 72.9331 113.005C72.9426 115.191 74.5725 116.341 76.036 116.531C76.1833 116.545 76.3306 116.564 76.4779 116.564L80.859 116.545L143.016 116.284Z" fill="#512BD4"/>
<path d="M92.2504 106.105C94.9634 106.052 97.0906 102.311 97.0016 97.7478C96.9126 93.185 94.6412 89.5291 91.9282 89.582C89.2152 89.6349 87.088 93.3766 87.177 97.9394C87.266 102.502 89.5374 106.158 92.2504 106.105Z" fill="#512BD4"/>
<path d="M136.58 97.6933C136.627 93.1301 134.466 89.408 131.753 89.3798C129.039 89.3516 126.801 93.0279 126.754 97.5912C126.707 102.154 128.868 105.876 131.581 105.905C134.294 105.933 136.532 102.257 136.58 97.6933Z" fill="#512BD4"/>
<path d="M92.0304 93.7084C93.0282 92.7011 94.3777 92.2544 95.694 92.3637C96.4732 93.7987 96.9627 95.6804 97.0054 97.7474C97.0292 99.0399 96.8724 100.256 96.5825 101.354C95.0335 101.801 93.2943 101.421 92.0636 100.204C90.258 98.4222 90.2437 95.5094 92.0304 93.7084Z" fill="#8065E0"/>
<path d="M131.584 93.2618C132.586 92.2544 133.936 91.803 135.252 91.917C136.098 93.4138 136.606 95.4476 136.583 97.6809C136.568 98.8213 136.421 99.9094 136.16 100.898C134.601 101.359 132.848 100.983 131.612 99.7574C129.811 97.9707 129.797 95.0627 131.584 93.2618Z" fill="#8065E0"/>
<path d="M5.78173 161.069C5.46337 160.047 -1.92557 135.818 10.0821 117.51C17.0196 106.933 28.7231 100.698 44.8647 98.9734L46.1002 110.572C33.6221 111.903 24.7982 116.374 19.8659 123.858C10.8708 137.505 16.8533 157.391 16.915 157.591L5.78173 161.069Z" fill="url(#paint9_linear)"/>
<path d="M42.8595 114.801C49.2313 114.801 54.3967 109.636 54.3967 103.264C54.3967 96.8924 49.2313 91.727 42.8595 91.727C36.4876 91.727 31.3223 96.8924 31.3223 103.264C31.3223 109.636 36.4876 114.801 42.8595 114.801Z" fill="url(#paint10_radial)"/>
<path d="M32.5862 151.043L15.4752 148.767C12.4246 148.363 9.62584 150.501 9.21719 153.552C8.81329 156.602 10.9516 159.401 14.0022 159.81L31.1132 162.086C34.1638 162.49 36.9625 160.351 37.3712 157.301C37.7751 154.25 35.6321 151.447 32.5862 151.043Z" fill="#8A6FE8"/>
<path d="M2.2749 165.583L3.88099 177.078C4.3324 180.138 7.17394 182.252 10.2341 181.805C13.2942 181.354 15.4087 178.513 14.962 175.452L13.3132 163.663L2.2749 165.583Z" fill="#8A6FE8"/>
<path d="M7.50659 169.047L16.0882 182.561C17.7561 185.165 21.2201 185.925 23.824 184.257C26.428 182.59 27.1883 179.126 25.5204 176.522L19.1721 166.453L7.50659 169.047Z" fill="#8A6FE8"/>
<path d="M12.1823 164.053L23.6149 175.277C25.8197 177.448 29.3645 177.42 31.5361 175.215C33.7076 173.01 33.6791 169.465 31.479 167.294L19.8373 155.866L12.1823 164.053Z" fill="#8A6FE8"/>
<path d="M12.3391 172.121C18.8133 172.121 24.0616 166.873 24.0616 160.399C24.0616 153.925 18.8133 148.676 12.3391 148.676C5.86493 148.676 0.616577 153.925 0.616577 160.399C0.616577 166.873 5.86493 172.121 12.3391 172.121Z" fill="url(#paint11_radial)"/>
<path d="M109.464 36.0795C115.765 42.2472 109.018 48.5195 95.1523 50.3537C81.2867 52.1878 64.5606 48.4577 58.716 43.1025L109.464 36.0795Z" fill="#605D5A"/>
<path d="M109.593 26.7186L121.467 14.4258C122.052 13.8224 122.038 12.8625 121.434 12.2781L113.195 4.24289C112.962 4.0148 112.658 3.8675 112.334 3.82473L88.7469 0.679089C88.5283 0.650579 88.305 0.669586 88.0912 0.73611L41.6097 15.1909C41.3959 15.2574 41.1963 15.3714 41.03 15.5282L31.8117 24.0433C31.0276 24.7704 31.213 26.0581 32.1728 26.5285L50.9136 35.7279C51.194 35.8657 51.5076 35.9132 51.8165 35.8657L108.728 27.1652C109.056 27.1177 109.36 26.9609 109.593 26.7186Z" fill="#797673"/>
<path d="M31.5551 25.9631C31.6977 26.1959 31.902 26.3955 32.1728 26.5286L50.9137 35.7279C51.194 35.8657 51.5076 35.9132 51.8165 35.8657L108.728 27.1653C109.056 27.113 109.36 26.9562 109.593 26.7186L121.467 14.4259C121.581 14.3071 121.667 14.1741 121.733 14.0363L31.5551 25.9631Z" fill="#605D5A"/>
<path d="M50.4527 34.0077L108.082 26.3859C108.875 26.2814 109.597 26.8373 109.702 27.6309L110.776 35.7373C110.88 36.5309 110.325 37.2531 109.531 37.3577L51.902 44.9794C51.1085 45.084 50.3862 44.528 50.2816 43.7345L49.2078 35.628C49.1032 34.8345 49.6592 34.1122 50.4527 34.0077Z" fill="#33312D"/>
<path d="M100.788 29.3938L99.1342 29.6124L96.0551 30.021L91.3129 30.6483L90.2817 32.9576C90.2817 32.9576 92.0019 36.8778 97.0957 37.9422L97.1052 37.9137L97.11 37.9422C101.748 35.5901 102.394 31.3563 102.394 31.3563L100.788 29.3938Z" fill="#8A6FE8"/>
<defs>
<radialGradient id="paint0_radial" cx="0" cy="0" r="1" gradientUnits="userSpaceOnUse" gradientTransform="translate(170.212 48.4981) scale(11.7232)">
<stop stop-color="#8065E0"/>
<stop offset="1" stop-color="#512BD4"/>
</radialGradient>
<linearGradient id="paint1_linear" x1="95.8196" y1="137.301" x2="105.703" y2="184.372" gradientUnits="userSpaceOnUse">
<stop stop-color="#522CD5"/>
<stop offset="0.4397" stop-color="#8A6FE8"/>
</linearGradient>
<linearGradient id="paint2_linear" x1="103.471" y1="181.991" x2="132.831" y2="234.336" gradientUnits="userSpaceOnUse">
<stop stop-color="#522CD5"/>
<stop offset="0.4397" stop-color="#8A6FE8"/>
</linearGradient>
<radialGradient id="paint3_radial" cx="0" cy="0" r="1" gradientUnits="userSpaceOnUse" gradientTransform="translate(125.351 211.031) rotate(-0.260742) scale(20.3479)">
<stop offset="0.034" stop-color="#522CD5"/>
<stop offset="0.9955" stop-color="#8A6FE8"/>
</radialGradient>
<linearGradient id="paint4_linear" x1="74.3412" y1="137.305" x2="64.8857" y2="184.462" gradientUnits="userSpaceOnUse">
<stop stop-color="#522CD5"/>
<stop offset="0.4397" stop-color="#8A6FE8"/>
</linearGradient>
<linearGradient id="paint5_linear" x1="65.7633" y1="183.393" x2="65.9882" y2="232.818" gradientUnits="userSpaceOnUse">
<stop stop-color="#522CD5"/>
<stop offset="0.4397" stop-color="#8A6FE8"/>
</linearGradient>
<radialGradient id="paint6_radial" cx="0" cy="0" r="1" gradientUnits="userSpaceOnUse" gradientTransform="translate(66.6028 211.239) rotate(179.739) scale(22.308)">
<stop offset="0.034" stop-color="#522CD5"/>
<stop offset="0.9955" stop-color="#8A6FE8"/>
</radialGradient>
<radialGradient id="paint7_radial" cx="0" cy="0" r="1" gradientUnits="userSpaceOnUse" gradientTransform="translate(97.9413 70.9054) rotate(179.739) scale(62.5696)">
<stop offset="0.4744" stop-color="#A08BE8"/>
<stop offset="0.8618" stop-color="#8065E0"/>
</radialGradient>
<radialGradient id="paint8_radial" cx="0" cy="0" r="1" gradientUnits="userSpaceOnUse" gradientTransform="translate(140.403 73.0407) rotate(179.739) scale(64.8421)">
<stop offset="0.0933" stop-color="#E1DFDD"/>
<stop offset="0.6573" stop-color="white"/>
</radialGradient>
<linearGradient id="paint9_linear" x1="24.6725" y1="98.9772" x2="24.6725" y2="161.071" gradientUnits="userSpaceOnUse">
<stop offset="0.3344" stop-color="#9780E6"/>
<stop offset="0.8488" stop-color="#8A6FE8"/>
</linearGradient>
<radialGradient id="paint10_radial" cx="0" cy="0" r="1" gradientUnits="userSpaceOnUse" gradientTransform="translate(40.7283 99.382) rotate(-0.260742) scale(11.5397)">
<stop stop-color="#8065E0"/>
<stop offset="1" stop-color="#512BD4"/>
</radialGradient>
<radialGradient id="paint11_radial" cx="0" cy="0" r="1" gradientUnits="userSpaceOnUse" gradientTransform="translate(12.073 155.753) scale(11.7253)">
<stop stop-color="#8065E0"/>
<stop offset="1" stop-color="#512BD4"/>
</radialGradient>
</defs>
</svg>
