<svg width="223" height="241" viewBox="0 0 223 241" fill="none" xmlns="http://www.w3.org/2000/svg">
<path d="M214.313 166.986L216.342 178.414C216.86 181.464 214.812 184.353 211.761 184.876C208.71 185.394 205.821 183.346 205.299 180.295L203.217 168.578L214.313 166.986Z" fill="#8A6FE8"/>
<path d="M218.076 160.224L222.296 171.039C223.398 173.928 221.953 177.164 219.064 178.271C216.175 179.374 212.939 177.929 211.832 175.04L207.503 163.954L218.076 160.224Z" fill="#8A6FE8"/>
<path d="M207.627 156.613L207.76 182.695C207.741 185.788 205.218 188.278 202.124 188.259C199.031 188.24 196.541 185.717 196.56 182.624L196.427 156.247L207.627 156.613Z" fill="#8A6FE8"/>
<path d="M206.216 161.155L194.403 175.52C192.369 177.848 188.829 178.091 186.501 176.052C184.172 174.018 183.93 170.478 185.969 168.15L197.971 153.562L206.216 161.155Z" fill="#8A6FE8"/>
<path d="M211.785 162.125L200.414 159.939C202.695 147.2 201.626 136.18 197.24 127.19C194.346 121.26 189.951 116.085 184.134 111.752C182.196 110.307 190.079 101.189 193.462 104.011C206.43 114.845 217.031 132.792 211.785 162.125Z" fill="#8A6FE8"/>
<path d="M206.496 172.75C212.97 172.75 218.219 167.501 218.219 161.027C218.219 154.553 212.97 149.305 206.496 149.305C200.022 149.305 194.774 154.553 194.774 161.027C194.774 167.501 200.022 172.75 206.496 172.75Z" fill="url(#paint0_radial)"/>
<path d="M94.0131 240.267C145.683 240.267 187.57 232.849 187.57 223.698C187.57 214.547 145.683 207.128 94.0131 207.128C42.3431 207.128 0.456299 214.547 0.456299 223.698C0.456299 232.849 42.3431 240.267 94.0131 240.267Z" fill="#FCCF84"/>
<path d="M123.935 175.582C131.495 169.723 145.864 156.599 152.469 138.761L141.877 134.836C135.885 151.01 122.818 162.229 116.807 166.729C116.313 167.105 119.468 171.989 123.935 175.582Z" fill="url(#paint1_linear)"/>
<path d="M123.935 175.582C131.495 169.723 145.864 156.599 152.469 138.761L141.877 134.836C135.885 151.01 122.818 162.229 116.807 166.729C116.313 167.105 119.468 171.989 123.935 175.582Z" fill="url(#paint2_linear)"/>
<path d="M116.897 166.667L122.481 173.648L98.8883 220.676L78.9928 195.876C78.1423 194.812 78.3608 193.315 79.487 192.536L116.897 166.667Z" fill="#522CD5"/>
<path d="M113.847 219.165C114.027 221.127 112.459 222.524 110.92 223.588L106.196 226.853C105.351 227.437 104.139 227.257 103.497 226.458L96.4744 217.677C95.7474 216.77 95.9374 215.496 96.8925 214.836L101.621 211.248C103.398 210.017 104.338 209.01 104.125 206.387C102.856 190.892 107.831 178.228 118.879 169.148L123.987 175.534C118.632 180.561 111.452 193.344 113.847 219.165Z" fill="url(#paint3_linear)"/>
<path d="M103.498 226.458C104.139 227.261 105.356 227.437 106.197 226.853L110.92 223.588C111.932 222.89 112.944 222.044 113.476 220.994L103.816 208.925C103.417 209.87 102.671 210.526 101.621 211.248L96.8927 214.836C95.9328 215.496 95.7475 216.77 96.4698 217.677L103.498 226.458Z" fill="url(#paint4_radial)"/>
<path d="M175.71 181.084C175.857 171.519 174.583 152.103 164.785 135.8L155.106 141.616C163.997 156.399 164.591 173.61 164.348 181.117C164.329 181.745 170.117 182.334 175.71 181.084Z" fill="url(#paint5_linear)"/>
<path d="M175.71 181.084C175.857 171.519 174.583 152.103 164.785 135.8L155.106 141.616C163.997 156.399 164.591 173.61 164.348 181.117C164.329 181.745 170.117 182.334 175.71 181.084Z" fill="url(#paint6_linear)"/>
<path d="M164.353 181.018H173.296L195.277 228.82L163.483 228.863C162.12 228.863 161.089 227.756 161.184 226.392L164.353 181.018Z" fill="#522CD5"/>
<path d="M203.441 216.195C205.089 217.278 205.194 219.374 205.066 221.241L204.667 226.967C204.595 227.989 203.697 228.83 202.671 228.83H191.428C190.264 228.83 189.39 227.889 189.471 226.725L189.623 220.79C189.775 218.632 189.57 217.269 187.394 215.8C174.503 207.109 167.722 195.316 167.537 181.018H175.714C176.289 188.34 181.782 201.93 203.441 216.195Z" fill="url(#paint7_linear)"/>
<path d="M202.671 228.829C203.697 228.829 204.595 227.993 204.667 226.967L205.066 221.241C205.151 220.015 205.123 218.699 204.638 217.625H189.176C189.661 218.528 189.708 219.521 189.618 220.79L189.466 226.724C189.385 227.889 190.259 228.829 191.424 228.829H202.671Z" fill="url(#paint8_radial)"/>
<path d="M40.2662 86.4344L25.1937 103.294C23.3643 105.788 23.906 109.295 26.4007 111.12C28.8953 112.949 32.4021 112.407 34.2268 109.913L49.4751 92.816L40.2662 86.4344Z" fill="#8A6FE8"/>
<path d="M35.1533 78.1379L18.1897 78.7367C15.101 78.8982 12.7252 81.5307 12.8867 84.6193C13.0483 87.7079 15.6808 90.0838 18.7694 89.9222L30.6582 89.39L35.1533 78.1379Z" fill="#8A6FE8"/>
<path d="M33.1435 86.8098L21.5635 87.6224C18.4797 87.86 16.1751 90.5542 16.4127 93.6381C16.6502 96.7219 19.3445 99.0265 22.4283 98.7889L42.2288 96.7029L33.1435 86.8098Z" fill="#8A6FE8"/>
<path d="M41.6965 74.0752L24.5903 71.8751C21.5302 71.4284 18.6886 73.5477 18.242 76.6126C17.7953 79.6727 19.9146 82.5142 22.9795 82.9609L34.7447 84.757L41.6965 74.0752Z" fill="#8A6FE8"/>
<path d="M30.7724 152.559C30.2497 152.559 29.822 152.132 29.822 151.609V123.992C29.822 123.469 30.2497 123.042 30.7724 123.042C31.2951 123.042 31.7227 123.469 31.7227 123.992V151.609C31.7227 152.137 31.2998 152.559 30.7724 152.559Z" fill="#958FE7"/>
<path d="M23.8776 130.811C23.3549 130.811 22.9272 130.383 22.9272 129.861V116.841C22.9272 116.318 23.3549 115.891 23.8776 115.891C24.4003 115.891 24.8279 116.318 24.8279 116.841V129.861C24.8279 130.388 24.405 130.811 23.8776 130.811Z" fill="#958FE7"/>
<path d="M13.0865 189.219C19.2457 189.219 24.2388 184.226 24.2388 178.067C24.2388 171.907 19.2457 166.914 13.0865 166.914C6.9272 166.914 1.93414 171.907 1.93414 178.067C1.93414 184.226 6.9272 189.219 13.0865 189.219Z" fill="#B3AFAB"/>
<path d="M58.3562 150.032L19.7769 167.328C19.0451 167.656 18.7267 168.525 19.0784 169.248L23.6448 178.661C23.9964 179.383 24.8755 179.673 25.5835 179.302L63.0461 159.701C63.7256 159.345 64.0012 158.513 63.6686 157.82L60.2188 150.711C59.8862 150.017 59.0594 149.718 58.3562 150.032Z" fill="url(#paint9_radial)"/>
<path d="M5.46944 179.687C6.29872 179.687 6.97099 179.015 6.97099 178.186C6.97099 177.356 6.29872 176.684 5.46944 176.684C4.64016 176.684 3.9679 177.356 3.9679 178.186C3.9679 179.015 4.64016 179.687 5.46944 179.687Z" fill="#737373"/>
<path d="M11.1715 179.687C12.0007 179.687 12.673 179.015 12.673 178.186C12.673 177.356 12.0007 176.684 11.1715 176.684C10.3422 176.684 9.66992 177.356 9.66992 178.186C9.66992 179.015 10.3422 179.687 11.1715 179.687Z" fill="#737373"/>
<path d="M16.8736 179.687C17.7029 179.687 18.3752 179.015 18.3752 178.186C18.3752 177.356 17.7029 176.684 16.8736 176.684C16.0443 176.684 15.3721 177.356 15.3721 178.186C15.3721 179.015 16.0443 179.687 16.8736 179.687Z" fill="#737373"/>
<path d="M22.6185 179.687C23.4478 179.687 24.12 179.015 24.12 178.186C24.12 177.356 23.4478 176.684 22.6185 176.684C21.7892 176.684 21.1169 177.356 21.1169 178.186C21.1169 179.015 21.7892 179.687 22.6185 179.687Z" fill="#737373"/>
<path d="M4.59039 170.844C4.83748 171.025 5.14159 171.134 5.46946 171.134C6.29626 171.134 6.97101 170.464 6.97101 169.632C6.97101 169.357 6.89023 169.105 6.76193 168.882C5.93988 169.447 5.21287 170.108 4.59039 170.844Z" fill="#737373"/>
<path d="M11.1715 171.134C12.0007 171.134 12.673 170.462 12.673 169.632C12.673 168.803 12.0007 168.131 11.1715 168.131C10.3422 168.131 9.66992 168.803 9.66992 169.632C9.66992 170.462 10.3422 171.134 11.1715 171.134Z" fill="#737373"/>
<path d="M16.8736 171.134C17.7029 171.134 18.3752 170.462 18.3752 169.632C18.3752 168.803 17.7029 168.131 16.8736 168.131C16.0443 168.131 15.3721 168.803 15.3721 169.632C15.3721 170.462 16.0443 171.134 16.8736 171.134Z" fill="#737373"/>
<path d="M6.96622 186.264C6.96622 185.437 6.29622 184.762 5.46467 184.762C5.07978 184.762 4.73765 184.909 4.47156 185.147C5.11304 185.926 5.84481 186.606 6.6526 187.171C6.84742 186.924 6.96622 186.61 6.96622 186.264Z" fill="#737373"/>
<path d="M11.1715 187.765C12.0007 187.765 12.673 187.093 12.673 186.264C12.673 185.434 12.0007 184.762 11.1715 184.762C10.3422 184.762 9.66992 185.434 9.66992 186.264C9.66992 187.093 10.3422 187.765 11.1715 187.765Z" fill="#737373"/>
<path d="M16.8736 187.765C17.7029 187.765 18.3752 187.093 18.3752 186.264C18.3752 185.434 17.7029 184.762 16.8736 184.762C16.0443 184.762 15.3721 185.434 15.3721 186.264C15.3721 187.093 16.0443 187.765 16.8736 187.765Z" fill="#737373"/>
<path d="M8.32045 183.489C9.14974 183.489 9.822 182.816 9.822 181.987C9.822 181.158 9.14974 180.485 8.32045 180.485C7.49117 180.485 6.81891 181.158 6.81891 181.987C6.81891 182.816 7.49117 183.489 8.32045 183.489Z" fill="#737373"/>
<path d="M14.0226 183.489C14.8519 183.489 15.5242 182.816 15.5242 181.987C15.5242 181.158 14.8519 180.485 14.0226 180.485C13.1933 180.485 12.5211 181.158 12.5211 181.987C12.5211 182.816 13.1933 183.489 14.0226 183.489Z" fill="#737373"/>
<path d="M19.7246 183.489C20.5539 183.489 21.2262 182.816 21.2262 181.987C21.2262 181.158 20.5539 180.485 19.7246 180.485C18.8953 180.485 18.2231 181.158 18.2231 181.987C18.2231 182.816 18.8953 183.489 19.7246 183.489Z" fill="#737373"/>
<path d="M8.32045 175.411C9.14974 175.411 9.822 174.738 9.822 173.909C9.822 173.08 9.14974 172.407 8.32045 172.407C7.49117 172.407 6.81891 173.08 6.81891 173.909C6.81891 174.738 7.49117 175.411 8.32045 175.411Z" fill="#737373"/>
<path d="M14.0226 175.411C14.8519 175.411 15.5242 174.738 15.5242 173.909C15.5242 173.08 14.8519 172.407 14.0226 172.407C13.1933 172.407 12.5211 173.08 12.5211 173.909C12.5211 174.738 13.1933 175.411 14.0226 175.411Z" fill="#737373"/>
<path d="M4.1627 181.987C4.1627 181.16 3.4927 180.485 2.66115 180.485C2.50434 180.485 2.36179 180.514 2.21924 180.562C2.40456 181.365 2.68016 182.163 3.05554 182.933C3.12682 183.075 3.19809 183.218 3.27412 183.356C3.79681 183.123 4.1627 182.6 4.1627 181.987Z" fill="#737373"/>
<path d="M8.36324 183.489C9.19252 183.489 9.86479 182.816 9.86479 181.987C9.86479 181.158 9.19252 180.485 8.36324 180.485C7.53396 180.485 6.86169 181.158 6.86169 181.987C6.86169 182.816 7.53396 183.489 8.36324 183.489Z" fill="#737373"/>
<path d="M2.66107 175.411C3.48788 175.411 4.16262 174.741 4.16262 173.909C4.16262 173.339 3.8395 172.849 3.37383 172.593C2.88441 173.458 2.51852 174.389 2.27618 175.349C2.39498 175.387 2.52327 175.411 2.66107 175.411Z" fill="#737373"/>
<path d="M8.36324 175.411C9.19252 175.411 9.86479 174.738 9.86479 173.909C9.86479 173.08 9.19252 172.407 8.36324 172.407C7.53396 172.407 6.86169 173.08 6.86169 173.909C6.86169 174.738 7.53396 175.411 8.36324 175.411Z" fill="#737373"/>
<path d="M19.7246 175.411C20.5539 175.411 21.2262 174.738 21.2262 173.909C21.2262 173.08 20.5539 172.407 19.7246 172.407C18.8953 172.407 18.2231 173.08 18.2231 173.909C18.2231 174.738 18.8953 175.411 19.7246 175.411Z" fill="#737373"/>
<path d="M18.3324 166.378L19.8815 165.627C20.5895 165.285 21.4448 165.579 21.7916 166.287L27.5793 178.209C27.9214 178.917 27.6268 179.773 26.9188 180.12L25.3697 180.87C24.6617 181.212 23.8064 180.918 23.4595 180.21L17.6719 168.288C17.325 167.58 17.6244 166.724 18.3324 166.378Z" fill="#E1DFDD"/>
<path d="M198.841 119.963C206.206 105.413 206.287 92.5404 206.287 92.5404L209.917 93.3292L210.022 93.2769C210.967 63.8494 190.839 37.0259 161.036 30.5541C127.465 23.2649 94.3362 44.5717 87.0471 78.1427C79.7579 111.714 101.065 144.843 134.636 152.132C161.127 157.886 187.48 145.831 200.941 123.992C201.402 123.042 201.63 121.236 198.841 119.963Z" fill="url(#paint10_radial)"/>
<path d="M198.969 119.991C206.244 105.622 206.415 92.8921 206.415 92.5832L143.346 78.8887C143.346 78.8887 139.459 77.6248 138.67 81.2503C137.881 84.8759 135.805 95.1682 133.343 106.511C132.835 108.844 134.503 110.383 136.004 110.706C136.009 110.706 194.18 121.231 198.969 119.991Z" fill="url(#paint11_radial)"/>
<path d="M160.366 111.533C160.366 111.533 171.732 105.959 173.932 104.952C176.133 103.945 177.805 104.225 179.216 106.097C180.628 107.974 188.687 117.682 188.687 117.682L160.366 111.533Z" fill="#A08BE8"/>
<path d="M200.523 124.667C200.523 124.667 202.918 121.797 198.969 119.986C198.979 119.972 136.973 106.472 136.973 106.472C135.529 106.159 133.861 104.895 134.004 103.46C133.79 104.462 133.571 105.479 133.348 106.501C132.887 108.615 134.217 110.079 135.591 110.573C135.729 110.621 135.866 110.668 136.009 110.697L140.247 111.619L200.523 124.667Z" fill="#512BD4"/>
<path d="M193.695 133.538L88.867 110.778C90.3543 115.287 92.3453 119.592 94.7924 123.626L182.97 142.776C186.876 140.12 190.473 137.026 193.695 133.538Z" fill="#D8CFF7"/>
<path d="M150.392 26.7289L162.324 28.1972L162.153 15.7429L153.586 14.688L150.392 26.7289Z" fill="#8A6FE8"/>
<path d="M158.865 17.2493C163.594 17.2493 167.427 13.4156 167.427 8.68664C167.427 3.95764 163.594 0.124023 158.865 0.124023C154.136 0.124023 150.302 3.95764 150.302 8.68664C150.302 13.4156 154.136 17.2493 158.865 17.2493Z" fill="#D8CFF7"/>
<path d="M144.909 33.6521C144.372 33.5856 143.997 33.0677 144.125 32.5402C145.455 26.9569 150.796 23.1413 156.627 23.8588C162.457 24.5763 166.715 29.5751 166.648 35.3152C166.643 35.8569 166.154 36.2703 165.617 36.2038L144.909 33.6521Z" fill="url(#paint12_radial)"/>
<path d="M158.058 140.56L177.975 144.791L181.717 127.174L161.8 122.943L158.058 140.56Z" fill="#512BD4"/>
<path d="M162.923 134.741C162.79 134.712 162.685 134.646 162.614 134.536C162.543 134.427 162.519 134.308 162.543 134.185C162.571 134.056 162.638 133.961 162.752 133.89C162.866 133.819 162.984 133.8 163.118 133.828C163.251 133.857 163.355 133.928 163.431 134.037C163.507 134.147 163.531 134.265 163.502 134.394C163.474 134.517 163.407 134.617 163.289 134.684C163.184 134.75 163.06 134.769 162.923 134.741Z" fill="white"/>
<path d="M168.235 135.8L167.375 135.615L165.878 131.552C165.84 131.448 165.812 131.343 165.797 131.239L165.778 131.234C165.774 131.343 165.736 131.566 165.66 131.909L164.975 135.097L164.215 134.935L165.261 130.07L166.178 130.265L167.617 134.227C167.679 134.394 167.717 134.503 167.731 134.565L167.746 134.57C167.75 134.437 167.788 134.213 167.855 133.909L168.53 130.773L169.29 130.935L168.235 135.8Z" fill="white"/>
<path d="M171.941 136.599L169.276 136.024L170.321 131.158L172.882 131.709L172.735 132.393L170.963 132.013L170.668 133.391L172.298 133.743L172.151 134.427L170.521 134.075L170.212 135.515L172.089 135.919L171.941 136.599Z" fill="white"/>
<path d="M176.627 133.234L175.263 132.94L174.365 137.121L173.576 136.95L174.474 132.769L173.115 132.474L173.262 131.79L176.774 132.545L176.627 133.234Z" fill="white"/>
<path d="M104.885 83.7211C91.8654 78.3754 68.8908 72.7969 36.0278 78.8269L35.795 78.8696L37.8525 90.0885L38.0853 90.0457C63.1032 85.4603 81.5114 88.3113 92.5496 91.514C96.0992 92.5451 99.1355 93.676 101.654 94.7594C107.532 97.2873 117.786 90.7157 117.786 90.7157C117.786 90.7157 112.92 87.0188 104.885 83.7211Z" fill="url(#paint13_linear)"/>
<path d="M108.354 101.531C114.828 101.531 120.076 96.2824 120.076 89.8082C120.076 83.334 114.828 78.0857 108.354 78.0857C101.88 78.0857 96.6313 83.334 96.6313 89.8082C96.6313 96.2824 101.88 101.531 108.354 101.531Z" fill="url(#paint14_radial)"/>
<path d="M40.2758 97.3349C46.75 97.3349 51.9983 92.0866 51.9983 85.6124C51.9983 79.1382 46.75 73.8899 40.2758 73.8899C33.8016 73.8899 28.5533 79.1382 28.5533 85.6124C28.5533 92.0866 33.8016 97.3349 40.2758 97.3349Z" fill="url(#paint15_radial)"/>
<path d="M162.761 96.3563C163.381 91.9304 160.809 87.9111 157.014 87.379C153.22 86.8468 149.641 90.0032 149.02 94.429C148.399 98.8549 150.972 102.874 154.766 103.406C158.561 103.939 162.14 100.782 162.761 96.3563Z" fill="#8065E0"/>
<path d="M162.795 96.0758C163.27 91.7612 160.732 87.8981 157.016 87.3754C153.728 86.9145 150.597 89.2285 149.423 92.7401C154.327 93.7142 159.487 95.1207 162.795 96.0758Z" fill="#D8CFF7"/>
<path d="M157.021 94.4935C156.075 95.2443 155.463 96.399 155.463 97.7009C155.463 99.958 157.292 101.787 159.549 101.787C159.673 101.787 159.791 101.778 159.91 101.768C161.378 100.49 162.443 98.5848 162.756 96.3515C162.771 96.2564 162.775 96.1661 162.785 96.0711C161.217 95.6197 159.216 95.059 157.021 94.4935Z" fill="#512BD4"/>
<path d="M149.238 93.372C156.513 94.7501 161.778 96.0188 162.766 96.2611C162.809 95.938 162.828 95.6196 162.837 95.3012C161.54 94.9876 156.451 93.7759 149.523 92.4597C149.418 92.7543 149.319 93.0584 149.238 93.372Z" fill="#512BD4"/>
<path d="M193.18 110.08C196.962 109.741 199.723 106.059 199.346 101.856C198.969 97.6528 195.598 94.5205 191.815 94.8596C188.033 95.1987 185.273 98.8808 185.649 103.084C186.026 107.287 189.398 110.419 193.18 110.08Z" fill="#8065E0"/>
<path d="M185.674 101.379C188.611 100.618 194.251 99.2118 198.309 98.4896C196.959 96.1089 194.493 94.6121 191.818 94.8545C188.558 95.1443 186.059 97.9241 185.674 101.379Z" fill="#D8CFF7"/>
<path d="M198.309 98.4896C196.784 98.7605 195.04 99.1264 193.291 99.5207C192.887 100.148 192.654 100.894 192.654 101.697C192.654 103.935 194.469 105.75 196.708 105.75C197.572 105.75 198.375 105.475 199.036 105.014C199.335 104.03 199.454 102.956 199.354 101.849C199.24 100.614 198.87 99.478 198.309 98.4896Z" fill="#512BD4"/>
<path d="M185.641 101.892C189.661 100.903 195.097 99.649 198.551 98.9362C198.404 98.6321 198.233 98.347 198.052 98.0714C194.541 98.8079 189.357 100.01 185.75 100.889C185.688 101.217 185.655 101.554 185.641 101.892Z" fill="#512BD4"/>
<defs>
<radialGradient id="paint0_radial" cx="0" cy="0" r="1" gradientUnits="userSpaceOnUse" gradientTransform="translate(205.298 154.986) rotate(-10.6784) scale(16.5393)">
<stop stop-color="#8065E0"/>
<stop offset="1" stop-color="#512BD4"/>
</radialGradient>
<linearGradient id="paint1_linear" x1="149.847" y1="136.627" x2="120.081" y2="172.431" gradientUnits="userSpaceOnUse">
<stop stop-color="#522CD5"/>
<stop offset="0.4397" stop-color="#8A6FE8"/>
</linearGradient>
<linearGradient id="paint2_linear" x1="149.847" y1="136.627" x2="120.081" y2="172.431" gradientUnits="userSpaceOnUse">
<stop stop-color="#522CD5"/>
<stop offset="0.4397" stop-color="#8A6FE8"/>
</linearGradient>
<linearGradient id="paint3_linear" x1="124.624" y1="171.526" x2="102.191" y2="226.199" gradientUnits="userSpaceOnUse">
<stop stop-color="#522CD5"/>
<stop offset="0.4397" stop-color="#8A6FE8"/>
</linearGradient>
<radialGradient id="paint4_radial" cx="0" cy="0" r="1" gradientUnits="userSpaceOnUse" gradientTransform="translate(116.057 208.869) rotate(51.3375) scale(18.2181)">
<stop offset="0.034" stop-color="#522CD5"/>
<stop offset="0.9955" stop-color="#8A6FE8"/>
</radialGradient>
<linearGradient id="paint5_linear" x1="161.494" y1="136.453" x2="170.853" y2="182.063" gradientUnits="userSpaceOnUse">
<stop stop-color="#522CD5"/>
<stop offset="0.4397" stop-color="#8A6FE8"/>
</linearGradient>
<linearGradient id="paint6_linear" x1="161.494" y1="136.453" x2="170.853" y2="182.063" gradientUnits="userSpaceOnUse">
<stop stop-color="#522CD5"/>
<stop offset="0.4397" stop-color="#8A6FE8"/>
</linearGradient>
<linearGradient id="paint7_linear" x1="172.905" y1="178.036" x2="201.582" y2="229.712" gradientUnits="userSpaceOnUse">
<stop stop-color="#522CD5"/>
<stop offset="0.4397" stop-color="#8A6FE8"/>
</linearGradient>
<radialGradient id="paint8_radial" cx="0" cy="0" r="1" gradientUnits="userSpaceOnUse" gradientTransform="translate(196.789 208.042) scale(18.219)">
<stop offset="0.034" stop-color="#522CD5"/>
<stop offset="0.9955" stop-color="#8A6FE8"/>
</radialGradient>
<radialGradient id="paint9_radial" cx="0" cy="0" r="1" gradientUnits="userSpaceOnUse" gradientTransform="translate(29.6971 154.355) scale(28.4366)">
<stop offset="0.3073" stop-color="#A4A09C"/>
<stop offset="0.8048" stop-color="#797673"/>
</radialGradient>
<radialGradient id="paint10_radial" cx="0" cy="0" r="1" gradientUnits="userSpaceOnUse" gradientTransform="translate(171.365 71.2749) rotate(-167.748) scale(61.9482)">
<stop offset="0.4744" stop-color="#A08BE8"/>
<stop offset="0.8618" stop-color="#8065E0"/>
</radialGradient>
<radialGradient id="paint11_radial" cx="0" cy="0" r="1" gradientUnits="userSpaceOnUse" gradientTransform="translate(208.412 86.6395) rotate(-167.748) scale(64.0385)">
<stop offset="0.0933" stop-color="#E1DFDD"/>
<stop offset="0.6573" stop-color="white"/>
</radialGradient>
<radialGradient id="paint12_radial" cx="0" cy="0" r="1" gradientUnits="userSpaceOnUse" gradientTransform="translate(157.267 28.4778) rotate(-147.057) scale(9.35751)">
<stop stop-color="#8065E0"/>
<stop offset="1" stop-color="#512BD4"/>
</radialGradient>
<linearGradient id="paint13_linear" x1="117.782" y1="85.7719" x2="35.7926" y2="85.7719" gradientUnits="userSpaceOnUse">
<stop offset="0.1526" stop-color="#9780E6"/>
<stop offset="1" stop-color="#8A6FE8"/>
</linearGradient>
<radialGradient id="paint14_radial" cx="0" cy="0" r="1" gradientUnits="userSpaceOnUse" gradientTransform="translate(109.549 85.8979) scale(15.1845)">
<stop stop-color="#8065E0"/>
<stop offset="1" stop-color="#512BD4"/>
</radialGradient>
<radialGradient id="paint15_radial" cx="0" cy="0" r="1" gradientUnits="userSpaceOnUse" gradientTransform="translate(41.4716 81.7034) scale(15.1845)">
<stop stop-color="#8065E0"/>
<stop offset="1" stop-color="#512BD4"/>
</radialGradient>
</defs>
</svg>
