<svg width="288" height="272" viewBox="0 0 288 272" fill="none" xmlns="http://www.w3.org/2000/svg">
<path d="M212.797 271.578H74.4121C33.3144 271.578 0 238.258 0 197.165C0 156.068 33.3144 122.753 74.4121 122.753H212.797C253.894 122.753 287.209 156.068 287.209 197.165C287.209 238.258 253.894 271.578 212.797 271.578Z" fill="#7AE2FB"/>
<path d="M287.209 197.165C287.209 186.669 285.033 176.681 281.108 167.624C265.94 171.392 248.577 174.785 240.324 174.889C222.219 175.122 212.45 178.814 226.757 181.556C241.73 184.426 279.036 185.457 252.312 198.358C217.99 214.927 85.4789 235.222 0.408691 205.015C4.32887 242.421 35.9659 271.578 74.4074 271.578H212.792C253.894 271.578 287.209 238.258 287.209 197.165Z" fill="#33D5F9"/>
<path d="M119.739 185.823C113.148 185.823 105.712 183.233 97.496 178.059L104.586 166.802C110.497 170.522 118.66 174.362 123.977 171.515C130.231 168.17 132.735 156.106 132.982 146.797L146.282 147.149C146.063 155.545 144.058 175.868 130.254 183.252C127.037 184.963 123.526 185.823 119.739 185.823Z" fill="url(#paint0_linear)"/>
<path d="M170.639 232.385L166.396 235.445C165.902 235.802 165.726 236.391 166.016 236.695C167.327 238.063 167.48 240.463 166.263 242.449C164.647 245.087 161.378 245.481 159.573 245.481H156.047C155.591 245.481 155.358 245.11 155.524 244.654L159.14 234.894C159.311 234.438 159.078 234.067 158.618 234.067H155.524C155.068 234.067 154.56 234.438 154.388 234.894L150.772 244.654C150.601 245.11 150.093 245.481 149.637 245.481H136.617C136.161 245.481 135.928 245.11 136.094 244.654L139.516 235.426C139.687 234.97 139.454 234.599 138.993 234.599H135.9C135.443 234.599 134.935 234.97 134.764 235.426L131.343 244.654C131.172 245.11 130.663 245.481 130.207 245.481H108.392C108.173 245.481 107.931 245.566 107.717 245.723L103.474 248.817C102.756 249.339 102.799 250.233 103.535 250.233H159.924C165.294 250.233 170.022 247.743 172.583 243.571C175.163 239.356 174.754 234.618 171.699 232.276C171.447 232.076 171.01 232.114 170.639 232.385Z" fill="white"/>
<path d="M162.704 180.173C166.116 168.897 171.176 145.999 165.137 126.773L151.756 133.635C157.239 151.069 152.122 171.363 149.295 180.216C149.062 180.943 155.69 181.641 162.704 180.173Z" fill="url(#paint1_linear)"/>
<path d="M162.704 180.173C166.116 168.897 171.176 145.999 165.137 126.773L151.756 133.635C157.239 151.069 152.122 171.363 149.295 180.216C149.062 180.943 155.69 181.641 162.704 180.173Z" fill="url(#paint2_linear)"/>
<path d="M149.337 180.088H159.881C160.067 183.49 156.185 198.244 180.053 223.637L176.793 236.477L132.155 236.448C130.544 236.448 129.679 235.198 130.254 233.587L149.337 180.088Z" fill="#522CD5"/>
<path d="M183.683 221.822C185.26 223.1 184.41 225.624 183.74 227.52L181.331 234.272C180.898 235.479 179.558 236.467 178.347 236.467H174.512C173.144 236.467 172.426 235.355 172.915 233.987L175.101 226.987C176.009 224.445 176.232 222.834 174.16 221.105C161.896 210.855 149.632 196.947 154.246 180.088H162.723C160.932 188.726 162.97 205.006 183.683 221.822Z" fill="url(#paint3_linear)"/>
<path d="M184.5 223.257H175.652C175.919 224.322 175.638 225.491 175.106 226.987L172.92 233.987C172.431 235.355 173.143 236.467 174.517 236.467H178.351C179.563 236.467 180.903 235.479 181.335 234.272L183.745 227.52C184.21 226.189 184.752 224.559 184.5 223.257Z" fill="url(#paint4_radial)"/>
<path d="M189.176 105.177L196.156 94.9842C205.593 101.442 214.365 103.252 220.856 100.078C228.563 96.3099 233.338 85.571 234.303 69.838L246.634 70.5935C245.032 96.6948 234.683 107.073 226.277 111.178C215.619 116.386 202.443 114.257 189.176 105.177Z" fill="#8A6FE8"/>
<path d="M231.167 46.9252L230.364 64.1692C230.221 67.2435 232.597 69.8475 235.667 69.99C238.741 70.1326 241.345 67.7567 241.488 64.6871L242.291 47.4431C242.433 44.3687 240.057 41.7648 236.988 41.6222C233.913 41.4749 231.309 43.8508 231.167 46.9252Z" fill="#8A6FE8"/>
<path d="M248.249 75.8775L259.563 73.2925C262.571 72.5845 264.439 69.5672 263.726 66.5546C263.018 63.542 260 61.6793 256.988 62.3921L245.384 65.0435L248.249 75.8775Z" fill="#8A6FE8"/>
<path d="M251.252 70.3654L263.978 60.6576C266.43 58.7712 266.89 55.2549 265.004 52.803C263.118 50.3511 259.601 49.8902 257.149 51.7766L247.665 58.966L251.252 70.3654Z" fill="#8A6FE8"/>
<path d="M245.874 66.1364L256.076 53.7819C258.047 51.4013 257.72 47.8707 255.339 45.8988C252.958 43.9268 249.428 44.2547 247.456 46.6353L237.064 59.2179L245.874 66.1364Z" fill="#8A6FE8"/>
<path d="M242.224 78.0156C248.698 78.0156 253.947 72.7672 253.947 66.2931C253.947 59.8189 248.698 54.5706 242.224 54.5706C235.75 54.5706 230.502 59.8189 230.502 66.2931C230.502 72.7672 235.75 78.0156 242.224 78.0156Z" fill="url(#paint5_radial)"/>
<path d="M200.015 118.572C206.895 103.789 206.553 90.9213 206.553 90.9213L210.207 91.5913L210.312 91.539C210.288 62.0973 189.285 35.9485 159.288 30.465C125.493 24.2783 93.0864 46.6637 86.9091 80.4627C80.7271 114.257 103.113 146.664 136.907 152.841C163.574 157.716 189.371 144.806 202.105 122.539C202.533 121.575 202.847 119.755 200.015 118.572Z" fill="url(#paint6_radial)"/>
<path d="M200.015 118.572C206.814 103.97 206.562 91.2445 206.553 90.9356L143.07 79.3272C143.07 79.3272 139.145 78.1915 138.475 81.8408C137.805 85.4949 136.071 95.8442 133.98 107.263C133.552 109.61 135.268 111.092 136.779 111.373C136.783 111.368 198.884 120.463 200.015 118.572Z" fill="url(#paint7_radial)"/>
<path d="M162.409 111.991C162.409 111.991 173.585 106.046 175.752 104.968C177.919 103.889 179.601 104.112 181.069 105.942C182.542 107.771 190.92 117.208 190.92 117.208L162.409 111.991Z" fill="#A08BE8"/>
<path d="M201.73 123.2C201.73 123.2 204.02 120.249 200.015 118.572C200.024 118.557 137.605 107.106 137.605 107.106C136.151 106.84 134.441 105.633 134.536 104.193C134.355 105.2 134.17 106.227 133.98 107.253C133.59 109.382 134.968 110.798 136.356 111.249C136.493 111.292 136.636 111.335 136.779 111.359L141.046 112.138L201.73 123.2Z" fill="#512BD4"/>
<path d="M195.192 132.29L89.6747 112.993C91.3093 117.45 93.4428 121.689 96.0182 125.642L184.781 141.874C188.591 139.09 192.084 135.877 195.192 132.29Z" fill="#D8CFF7"/>
<path d="M236.617 167.453V236.624" stroke="white" stroke-width="3" stroke-miterlimit="10" stroke-linecap="round" stroke-linejoin="round"/>
<path d="M215.087 153.421V183.276" stroke="white" stroke-width="3" stroke-miterlimit="10" stroke-linecap="round" stroke-linejoin="round"/>
<path d="M195.843 168.18V214.053" stroke="white" stroke-width="3" stroke-miterlimit="10" stroke-linecap="round" stroke-linejoin="round"/>
<path d="M60.9362 225.314V255.17" stroke="white" stroke-width="3" stroke-miterlimit="10" stroke-linecap="round" stroke-linejoin="round"/>
<path d="M163.764 28.8495L151.956 26.6114L155.919 14.8033L164.4 16.4094L163.764 28.8495Z" fill="#8A6FE8"/>
<path d="M166.876 37.1174C167.408 37.2172 167.921 36.8371 167.964 36.3001C168.401 30.5743 164.476 25.3141 158.703 24.2212C152.93 23.1283 147.351 26.5829 145.664 32.0711C145.503 32.589 145.845 33.1307 146.377 33.2305L166.876 37.1174Z" fill="url(#paint8_radial)"/>
<path d="M32.041 88.7594L39.4679 98.6335C49.8124 90.8549 60.1284 86.8349 70.1308 86.6971C78.931 86.5736 87.7265 89.4389 96.2748 95.2217L103.193 84.9865C87.3036 74.2428 62.0624 66.1791 32.041 88.7594Z" fill="#8A6FE8"/>
<path d="M32.0647 100.121L29.2136 111.373C28.4771 114.376 30.3113 117.407 33.3144 118.149C36.3174 118.885 39.3491 117.051 40.0903 114.048L43.0126 102.511L32.0647 100.121Z" fill="#8A6FE8"/>
<path d="M27.7881 89.3674L17.2678 94.2665C14.4738 95.5922 13.2811 98.9327 14.6068 101.727C15.9326 104.521 19.273 105.713 22.0671 104.388L32.8582 99.3651L27.7881 89.3674Z" fill="#8A6FE8"/>
<path d="M31.1856 96.6852L20.7936 101.85C18.0328 103.247 16.9257 106.616 18.3227 109.377C19.7197 112.138 23.0887 113.245 25.8494 111.848L36.5076 106.55L31.1856 96.6852Z" fill="#8A6FE8"/>
<path d="M29.7791 83.7653L18.5032 86.5213C15.5049 87.2768 13.685 90.3179 14.4405 93.321C15.196 96.3193 18.2371 98.1392 21.2402 97.3837L32.8012 94.5612L29.7791 83.7653Z" fill="#8A6FE8"/>
<path d="M35.7568 105.419C42.2309 105.419 47.4793 100.171 47.4793 93.6964C47.4793 87.2222 42.2309 81.9739 35.7568 81.9739C29.2826 81.9739 24.0342 87.2222 24.0342 93.6964C24.0342 100.171 29.2826 105.419 35.7568 105.419Z" fill="url(#paint9_radial)"/>
<path d="M100.2 101.37C106.509 101.37 111.623 96.256 111.623 89.9472C111.623 83.6384 106.509 78.524 100.2 78.524C93.8909 78.524 88.7766 83.6384 88.7766 89.9472C88.7766 96.256 93.8909 101.37 100.2 101.37Z" fill="url(#paint10_radial)"/>
<path d="M162.741 98.0616C163.523 93.6108 162.011 89.6261 159.364 89.1614C156.717 88.6968 153.938 91.9282 153.157 96.3791C152.375 100.83 153.888 104.815 156.534 105.279C159.181 105.744 161.96 102.512 162.741 98.0616Z" fill="#512BD4"/>
<path d="M158.684 93.1832C156.603 94.5944 156.066 97.4265 157.477 99.503C158.437 100.919 160.057 101.617 161.649 101.475C162.143 100.468 162.528 99.3129 162.747 98.0537C163.103 96.0342 162.98 94.1145 162.495 92.5702C161.24 92.2138 159.843 92.3896 158.684 93.1832Z" fill="#8065E0"/>
<path d="M198.449 104.469C199.363 100.044 197.97 96.0158 195.339 95.4724C192.707 94.9291 189.833 98.0762 188.919 102.502C188.005 106.927 189.398 110.955 192.03 111.499C194.661 112.042 197.535 108.895 198.449 104.469Z" fill="#512BD4"/>
<path d="M194.441 99.2132C192.36 100.624 191.823 103.457 193.234 105.533C194.203 106.959 195.833 107.657 197.434 107.505C197.876 106.597 198.228 105.566 198.456 104.459C198.903 102.288 198.793 100.221 198.261 98.605C197.007 98.2439 195.605 98.4197 194.441 99.2132Z" fill="#8065E0"/>
<path d="M161.031 17.721C165.826 17.721 169.713 13.8342 169.713 9.03957C169.713 4.24495 165.826 0.358154 161.031 0.358154C156.237 0.358154 152.35 4.24495 152.35 9.03957C152.35 13.8342 156.237 17.721 161.031 17.721Z" fill="#D8CFF7"/>
<path d="M160.075 140.954L180.137 144.43L183.211 126.685L163.149 123.21L160.075 140.954Z" fill="#512BD4"/>
<path d="M164.719 134.932C164.586 134.908 164.481 134.846 164.4 134.737C164.324 134.628 164.296 134.514 164.32 134.386C164.343 134.257 164.41 134.157 164.519 134.081C164.628 134.005 164.752 133.982 164.885 134.005C165.023 134.029 165.127 134.096 165.203 134.2C165.284 134.31 165.313 134.428 165.289 134.552C165.265 134.675 165.199 134.775 165.089 134.851C164.98 134.932 164.857 134.956 164.719 134.932Z" fill="white"/>
<path d="M170.064 135.797L169.2 135.645L167.551 131.639C167.508 131.539 167.479 131.435 167.456 131.33L167.437 131.325C167.437 131.435 167.403 131.658 167.346 132.005L166.781 135.217L166.016 135.084L166.876 130.18L167.798 130.342L169.385 134.248C169.451 134.409 169.494 134.519 169.513 134.58H169.527C169.527 134.447 169.556 134.224 169.608 133.915L170.164 130.755L170.929 130.888L170.064 135.797Z" fill="white"/>
<path d="M173.799 136.452L171.115 135.982L171.975 131.078L174.55 131.53L174.427 132.219L172.645 131.905L172.402 133.293L174.046 133.582L173.928 134.271L172.284 133.982L172.027 135.431L173.918 135.763L173.799 136.452Z" fill="white"/>
<path d="M178.356 132.912L176.983 132.67L176.242 136.88L175.448 136.742L176.189 132.532L174.821 132.29L174.944 131.601L178.485 132.223L178.356 132.912Z" fill="white"/>
<path d="M51.561 175.455L50.4919 170.332C50.3683 169.738 49.9027 169.334 49.5035 169.477C47.7216 170.118 45.4646 169.277 44.1483 167.362C42.3949 164.815 43.369 161.665 44.1008 160.016L45.5358 156.794C45.7212 156.376 46.1536 156.315 46.5052 156.657L53.9464 163.932C54.2933 164.274 54.7304 164.212 54.9158 163.794L56.175 160.967C56.3603 160.548 56.2272 159.935 55.8804 159.593L48.4391 152.318C48.0923 151.976 47.9592 151.363 48.1445 150.945L53.438 139.052C53.6233 138.633 54.0557 138.572 54.4073 138.914L61.4446 145.794C61.7915 146.136 62.2287 146.075 62.414 145.656L63.6732 142.829C63.8585 142.411 63.7255 141.798 63.3786 141.456L56.3413 134.575C55.9944 134.233 55.8613 133.62 56.0467 133.202L64.9181 113.273C65.0084 113.074 65.0274 112.817 64.9704 112.556L63.868 107.424C63.6827 106.559 62.8511 106.231 62.5518 106.906L39.6152 158.415C37.4341 163.319 37.781 168.655 40.556 172.689C43.3548 176.761 47.8499 178.315 51.2332 176.476C51.5183 176.319 51.6561 175.906 51.561 175.455Z" fill="white"/>
<path d="M109.675 169.724L106.31 179.717C103.027 178.809 90.2829 170.413 58.5983 184.929L47.4745 177.74L61.7535 135.445C62.2667 133.92 63.7255 133.497 65.0702 134.556L109.675 169.724Z" fill="#522CD5"/>
<path d="M59.1591 188.949C57.4437 190.033 55.3244 188.422 53.7373 187.187L48.1065 182.748C47.0992 181.955 46.5907 180.368 46.9804 179.223L48.2063 175.588C48.6435 174.29 49.9264 173.967 51.0669 174.865L57.0018 179.17C59.121 180.843 60.5751 181.565 62.8797 180.154C76.5076 171.8 93.6043 164.621 108.107 174.376L105.398 182.411C97.7906 177.954 81.7108 174.685 59.1591 188.949Z" fill="url(#paint11_linear)"/>
<path d="M57.5387 189.263L60.3612 180.881C59.2683 180.796 58.2467 180.154 57.0018 179.17L51.0669 174.865C49.9264 173.967 48.6435 174.286 48.2063 175.588L46.9804 179.223C46.5955 180.368 47.1039 181.955 48.1065 182.748L53.7373 187.187C54.854 188.051 56.2272 189.083 57.5387 189.263Z" fill="url(#paint12_radial)"/>
<path d="M76.7689 194.842V240.715" stroke="white" stroke-width="3" stroke-miterlimit="10" stroke-linecap="round" stroke-linejoin="round"/>
<defs>
<linearGradient id="paint0_linear" x1="121.885" y1="146.793" x2="121.885" y2="185.822" gradientUnits="userSpaceOnUse">
<stop stop-color="#522CD5"/>
<stop offset="0.3272" stop-color="#8A6FE8"/>
</linearGradient>
<linearGradient id="paint1_linear" x1="161.167" y1="127.469" x2="171.054" y2="178.486" gradientUnits="userSpaceOnUse">
<stop stop-color="#522CD5"/>
<stop offset="0.4397" stop-color="#8A6FE8"/>
</linearGradient>
<linearGradient id="paint2_linear" x1="161.167" y1="127.469" x2="171.054" y2="178.486" gradientUnits="userSpaceOnUse">
<stop offset="0.3399" stop-color="#522CD5"/>
<stop offset="0.6483" stop-color="#8A6FE8"/>
</linearGradient>
<linearGradient id="paint3_linear" x1="162.157" y1="176.301" x2="188.719" y2="231.783" gradientUnits="userSpaceOnUse">
<stop stop-color="#522CD5"/>
<stop offset="0.4397" stop-color="#8A6FE8"/>
</linearGradient>
<radialGradient id="paint4_radial" cx="0" cy="0" r="1" gradientUnits="userSpaceOnUse" gradientTransform="translate(172.729 213.31) scale(20.364)">
<stop offset="0.034" stop-color="#522CD5"/>
<stop offset="0.9955" stop-color="#8A6FE8"/>
</radialGradient>
<radialGradient id="paint5_radial" cx="0" cy="0" r="1" gradientUnits="userSpaceOnUse" gradientTransform="translate(245.519 60.682) scale(16.3029)">
<stop stop-color="#8065E0"/>
<stop offset="0.8628" stop-color="#512BD4"/>
</radialGradient>
<radialGradient id="paint6_radial" cx="0" cy="0" r="1" gradientUnits="userSpaceOnUse" gradientTransform="translate(162.338 76.7668) scale(62.2164)">
<stop offset="0.4744" stop-color="#A08BE8"/>
<stop offset="0.8618" stop-color="#8065E0"/>
</radialGradient>
<radialGradient id="paint7_radial" cx="0" cy="0" r="1" gradientUnits="userSpaceOnUse" gradientTransform="translate(205.245 60.4787) scale(56.9774)">
<stop offset="0.4755" stop-color="#E1DFDD"/>
<stop offset="1" stop-color="white"/>
</radialGradient>
<radialGradient id="paint8_radial" cx="0" cy="0" r="1" gradientUnits="userSpaceOnUse" gradientTransform="translate(156.811 30.5759) scale(9.16951)">
<stop stop-color="#8065E0"/>
<stop offset="0.8628" stop-color="#512BD4"/>
</radialGradient>
<radialGradient id="paint9_radial" cx="0" cy="0" r="1" gradientUnits="userSpaceOnUse" gradientTransform="translate(36.6069 88.978) scale(16.5705)">
<stop stop-color="#8065E0"/>
<stop offset="0.8628" stop-color="#512BD4"/>
</radialGradient>
<radialGradient id="paint10_radial" cx="0" cy="0" r="1" gradientUnits="userSpaceOnUse" gradientTransform="translate(100.711 85.173) scale(16.9646)">
<stop stop-color="#8065E0"/>
<stop offset="0.8628" stop-color="#512BD4"/>
</radialGradient>
<linearGradient id="paint11_linear" x1="108.959" y1="182.947" x2="47.9025" y2="190.409" gradientUnits="userSpaceOnUse">
<stop stop-color="#522CD5"/>
<stop offset="0.4397" stop-color="#8A6FE8"/>
</linearGradient>
<radialGradient id="paint12_radial" cx="0" cy="0" r="1" gradientUnits="userSpaceOnUse" gradientTransform="translate(70.7388 181.272) rotate(108.614) scale(20.3643 20.3632)">
<stop offset="0.034" stop-color="#522CD5"/>
<stop offset="0.9955" stop-color="#8A6FE8"/>
</radialGradient>
</defs>
</svg>
