<svg width="274" height="234" viewBox="0 0 274 234" fill="none" xmlns="http://www.w3.org/2000/svg">
<path d="M32.4852 191.87C37.5452 186.43 46.8952 174.57 49.7252 160.08L41.1152 158.4C38.5552 171.54 29.9552 181.78 25.9152 185.98C25.5852 186.34 28.6152 189.69 32.4852 191.87Z" fill="url(#paint0_linear)"/>
<path d="M32.4852 191.87C37.5452 186.43 46.8952 174.57 49.7252 160.08L41.1152 158.4C38.5552 171.54 29.9552 181.78 25.9152 185.98C25.5852 186.34 28.6152 189.69 32.4852 191.87Z" fill="url(#paint1_linear)"/>
<path d="M25.9752 185.93L31.1352 190.58L18.9652 229.57L0.605216 213.07C-0.184784 212.36 -0.204784 211.19 0.565216 210.45L25.9752 185.93Z" fill="#522CD5"/>
<path d="M30.2352 226.53C30.6252 228.01 29.5952 229.28 28.5452 230.29L25.3352 233.38C24.7652 233.93 23.8052 233.95 23.2152 233.42L16.7352 227.58C16.0652 226.98 16.0452 225.98 16.7052 225.35L19.8752 222.01C21.0852 220.85 21.6752 219.95 21.1852 217.97C18.2652 206.26 20.4852 195.93 27.8152 187.59L32.5352 191.84C29.0452 196.36 25.1552 207.05 30.2352 226.53Z" fill="url(#paint2_linear)"/>
<path d="M23.2252 233.41C23.8152 233.94 24.7652 233.93 25.3452 233.37L28.5552 230.28C29.2452 229.62 29.9152 228.84 30.1852 227.97L21.2752 219.94C21.0852 220.71 20.5952 221.31 19.8852 222L16.7152 225.34C16.0652 225.97 16.0752 226.97 16.7452 227.57L23.2252 233.41Z" fill="url(#paint3_radial)"/>
<path d="M63.1552 194.32C64.1852 186.9 65.0452 171.82 58.9952 159.17L50.9252 163.69C56.4152 175.17 55.2352 188.53 54.3352 194.35C54.2552 194.83 58.6952 195.28 63.1552 194.32Z" fill="url(#paint4_linear)"/>
<path d="M63.1552 194.32C64.1852 186.9 65.0452 171.82 58.9952 159.17L50.9252 163.69C56.4152 175.17 55.2352 188.53 54.3352 194.35C54.2552 194.83 58.6952 195.28 63.1552 194.32Z" fill="url(#paint5_linear)"/>
<path d="M54.3452 194.26H61.2852L73.7952 231.37L49.1152 231.4C48.0552 231.4 47.3652 230.54 47.5652 229.48L54.3452 194.26Z" fill="#522CD5"/>
<path d="M81.3352 221.57C82.5152 222.41 82.3952 224.04 82.1152 225.49L81.2552 229.93C81.1052 230.72 80.3252 231.37 79.5252 231.37H70.8052C69.9052 231.37 69.3152 230.64 69.4852 229.74L70.1652 225.13C70.4852 223.46 70.4652 222.4 68.9052 221.26C59.7252 214.51 55.5852 205.36 56.8052 194.26H63.1552C62.9152 199.95 65.8852 210.5 81.3352 221.57Z" fill="url(#paint6_linear)"/>
<path d="M79.5352 231.38C80.3352 231.38 81.1053 230.73 81.2653 229.94L82.1253 225.5C82.3053 224.55 82.4152 223.52 82.1352 222.69H70.1352C70.4252 223.39 70.3652 224.16 70.1752 225.15L69.4952 229.76C69.3252 230.66 69.9152 231.39 70.8152 231.39H79.5352V231.38Z" fill="url(#paint7_radial)"/>
<path d="M48.2625 164.976L57.5725 164.976L57.5725 163.766L48.2625 163.766L48.2625 164.976Z" fill="#A08BE8"/>
<path d="M48.2625 153.283L57.5725 153.283L57.5725 152.073L48.2625 152.073L48.2625 153.283Z" fill="#A08BE8"/>
<path d="M260.395 0H75.8152V192.52H260.395V0Z" fill="#F7B548"/>
<path d="M142.645 35.96V17.04C142.645 14.13 140.435 11.77 137.705 11.77H31.3452C28.6152 11.77 26.4052 14.13 26.4052 17.04V35.95H142.645V35.96Z" fill="#0E6EDF"/>
<path d="M122.365 19.5701H45.9152V26.5901H122.365V19.5701Z" fill="#A3C9F6"/>
<path d="M127.895 155.33C133.44 155.33 137.935 150.835 137.935 145.29C137.935 139.745 133.44 135.25 127.895 135.25C122.35 135.25 117.855 139.745 117.855 145.29C117.855 150.835 122.35 155.33 127.895 155.33Z" fill="#FFD590"/>
<path d="M100.095 155.33C105.64 155.33 110.135 150.835 110.135 145.29C110.135 139.745 105.64 135.25 100.095 135.25C94.5503 135.25 90.0552 139.745 90.0552 145.29C90.0552 150.835 94.5503 155.33 100.095 155.33Z" fill="#FFD590"/>
<path d="M155.695 155.33C161.24 155.33 165.735 150.835 165.735 145.29C165.735 139.745 161.24 135.25 155.695 135.25C150.15 135.25 145.655 139.745 145.655 145.29C145.655 150.835 150.15 155.33 155.695 155.33Z" fill="#FFD590"/>
<path d="M165.735 122.76H90.8352V128.17H165.735V122.76Z" fill="#FFD590"/>
<path d="M151.835 174.77H105.505C102.515 174.77 100.095 172.35 100.095 169.36C100.095 166.37 102.515 163.95 105.505 163.95H151.835C154.825 163.95 157.245 166.37 157.245 169.36C157.235 172.35 154.815 174.77 151.835 174.77Z" fill="white"/>
<path d="M108.465 86.5C106.535 93.48 95.1352 107.06 84.6152 111.02C78.2252 113.42 74.9152 106.01 81.4152 103.56C88.4652 100.91 98.7552 89.69 100.265 84.24L108.465 86.5Z" fill="#8A6FE8"/>
<path d="M93.9152 76.5799L95.9752 88.2799C96.3452 90.3599 98.3252 91.7599 100.415 91.3899C102.495 91.0199 103.895 89.0399 103.525 86.9499L101.465 75.2499C101.095 73.1699 99.1152 71.7699 97.0252 72.1399C94.9452 72.5099 93.5552 74.4899 93.9152 76.5799Z" fill="#8A6FE8"/>
<path d="M109.745 93.4499L116.955 90.0099C118.865 89.0799 119.665 86.7699 118.735 84.8599C117.805 82.9499 115.495 82.1499 113.585 83.0799L106.195 86.6099L109.745 93.4499Z" fill="#8A6FE8"/>
<path d="M110.935 89.2999L118.015 80.8599C119.375 79.2199 119.155 76.7899 117.525 75.4299C115.885 74.0699 113.455 74.2899 112.095 75.9199L106.805 82.1799L110.935 89.2999Z" fill="#8A6FE8"/>
<path d="M106.685 87.2598L111.675 77.4298C112.645 75.5298 111.885 73.2098 109.995 72.2498C108.095 71.2798 105.775 72.0398 104.815 73.9298L99.7352 83.9398L106.685 87.2598Z" fill="#8A6FE8"/>
<path d="M104.255 95.9899C108.712 95.9899 112.325 92.3768 112.325 87.9199C112.325 83.4629 108.712 79.8499 104.255 79.8499C99.7983 79.8499 96.1852 83.4629 96.1852 87.9199C96.1852 92.3768 99.7983 95.9899 104.255 95.9899Z" fill="url(#paint8_radial)"/>
<path d="M94.7652 120.18C93.8552 107.63 88.7852 99.08 88.7852 99.08L91.4952 98.16L91.5452 98.09C80.4852 78.24 56.4952 68.49 34.2152 76.06C9.10521 84.59 -4.34478 111.85 4.18522 136.96C12.7152 162.07 39.9752 175.51 65.0852 166.99C84.8952 160.26 97.4452 141.87 97.6652 122.07C97.5952 121.26 97.1252 119.91 94.7652 120.18Z" fill="url(#paint9_radial)"/>
<path d="M94.7652 120.18C93.8652 107.78 88.9152 99.2898 88.7952 99.0898L67.7952 106.14C67.7952 106.14 64.7252 106.85 65.6452 109.56C66.5652 112.27 69.2852 119.91 72.1652 128.39C72.7552 130.13 94.8152 121.95 94.7652 120.18Z" fill="url(#paint10_radial)"/>
<path d="M94.7652 120.13C94.7252 119.66 94.6852 119.19 94.6452 118.73C94.4152 116.4 94.0452 114.22 93.5952 112.22C92.5452 112.18 91.6952 112.73 90.9252 113.85C89.8652 115.39 84.5652 123.6 84.5652 123.6L94.7652 120.13Z" fill="#A08BE8"/>
<path d="M97.6652 122.65C97.6652 122.65 98.1052 119.8 94.7752 120.17C94.7752 120.16 94.7752 120.14 94.7752 120.13L74.5652 126.91C73.4852 127.28 71.8752 127.1 71.4052 126.1C71.6652 126.85 71.9152 127.61 72.1752 128.37C72.7152 129.95 74.1752 130.39 75.2752 130.17C75.3852 130.15 75.4952 130.12 75.6052 130.09L78.7752 129.01L97.6652 122.65Z" fill="#512BD4"/>
<path d="M96.6652 131.24L18.2652 157.86C21.0352 160.25 24.0752 162.31 27.2952 164L93.2452 141.61C94.7752 138.3 95.9252 134.83 96.6652 131.24Z" fill="#D8CFF7"/>
<path d="M91.8852 144.35C94.5552 139.41 96.3552 134 97.1752 128.39L87.5752 131.65L91.8852 144.35Z" fill="#512BD4"/>
<path d="M36.6252 73.2999L27.8252 76.2199L26.0552 66.7699L32.3852 64.6699L36.6252 73.2999Z" fill="#8A6FE8"/>
<path d="M41.8252 77.6999C42.2252 77.5699 42.4252 77.1199 42.2552 76.7399C40.4052 72.7199 35.7752 70.6399 31.4752 72.0699C27.1752 73.4999 24.7052 77.9299 25.6352 82.2599C25.7252 82.6699 26.1552 82.9099 26.5552 82.7799L41.8252 77.6999Z" fill="url(#paint11_radial)"/>
<path d="M83.7374 119.426C85.7184 118.803 86.4772 115.603 85.432 112.278C84.3869 108.954 81.9337 106.764 79.9526 107.386C77.9716 108.009 77.2128 111.209 78.258 114.534C79.3031 117.858 81.7563 120.049 83.7374 119.426Z" fill="#512BD4"/>
<path d="M80.7452 110.24C79.8752 111.97 80.5752 114.08 82.3052 114.96C83.4952 115.56 84.8552 115.42 85.8752 114.71C85.8352 113.93 85.6852 113.11 85.4152 112.27C84.9052 110.64 84.0552 109.28 83.0852 108.4C82.1152 108.63 81.2352 109.27 80.7452 110.24Z" fill="#8065E0"/>
<path d="M27.7852 67.88C31.4855 67.88 34.4852 64.8803 34.4852 61.18C34.4852 57.4797 31.4855 54.48 27.7852 54.48C24.0849 54.48 21.0852 57.4797 21.0852 61.18C21.0852 64.8803 24.0849 67.88 27.7852 67.88Z" fill="#D8CFF7"/>
<path d="M114.065 120.86L107.415 114.82C100.435 121.93 93.9352 128.06 86.7752 130.88C72.5152 136.5 57.6352 125.61 53.7152 122.36L46.6652 130.57C58.9152 138.17 83.0952 156.18 114.065 120.86Z" fill="url(#paint12_linear)"/>
<path d="M111.775 112.76L112.395 104.2C112.545 101.92 110.765 100.07 108.415 100.07C106.065 100.07 104.045 101.91 103.895 104.2L103.265 112.98L111.775 112.76Z" fill="#8A6FE8"/>
<path d="M48.5452 133.68C53.4164 133.68 57.3652 129.731 57.3652 124.86C57.3652 119.989 53.4164 116.04 48.5452 116.04C43.6741 116.04 39.7252 119.989 39.7252 124.86C39.7252 129.731 43.6741 133.68 48.5452 133.68Z" fill="url(#paint13_radial)"/>
<path d="M156.225 103.47L112.155 116.08C111.075 116.38 109.965 115.76 109.655 114.68L96.3152 68.08C96.0152 67 96.6352 65.89 97.7152 65.58L141.785 52.97C142.865 52.67 143.975 53.29 144.285 54.37L157.625 100.97C157.925 102.05 157.305 103.16 156.225 103.47Z" fill="white"/>
<path d="M111.535 125.92L119.985 122.86C122.225 122.03 123.395 119.66 122.595 117.58C121.795 115.49 119.325 114.47 117.075 115.3L108.415 118.44L111.535 125.92Z" fill="#8A6FE8"/>
<path d="M114.055 116.8L119.355 109.55C120.755 107.61 120.395 105 118.565 103.72C116.725 102.44 114.105 102.98 112.705 104.92L107.275 112.36L114.055 116.8Z" fill="#8A6FE8"/>
<path d="M114.785 120.95L122.055 115.67C123.985 114.25 124.445 111.66 123.095 109.88C121.735 108.1 119.075 107.81 117.155 109.22L109.705 114.63L114.785 120.95Z" fill="#8A6FE8"/>
<path d="M100.515 115.61C102.225 111.07 107.365 108.51 112.015 109.9C116.655 111.29 119.035 116.09 117.325 120.64C115.615 125.19 110.475 127.74 105.825 126.35C101.195 124.97 98.8152 120.16 100.515 115.61Z" fill="url(#paint14_radial)"/>
<path d="M140.915 86.2102C139.875 84.7602 140.215 82.7401 141.675 81.7001C142.215 81.3101 142.845 81.1202 143.465 81.1102C143.225 79.9302 142.855 78.8102 142.375 77.7402C142.365 77.7402 142.365 77.7502 142.355 77.7502C140.905 78.7902 138.885 78.4502 137.845 76.9902C136.805 75.5402 137.145 73.5202 138.595 72.4802C137.715 71.6702 136.745 70.9501 135.705 70.3401C135.265 71.6001 134.065 72.5002 132.655 72.5002C130.875 72.5002 129.425 71.0501 129.425 69.2701C129.425 68.9301 129.485 68.6002 129.585 68.2902C128.925 68.2102 128.265 68.1602 127.585 68.1602C126.945 68.1602 126.315 68.2001 125.685 68.2701C125.775 68.5701 125.835 68.8902 125.835 69.2202C125.835 71.0002 124.385 72.4501 122.605 72.4501C121.195 72.4501 119.995 71.5402 119.555 70.2802C118.465 70.9002 117.455 71.6502 116.535 72.5002C116.805 72.7002 117.045 72.9402 117.245 73.2202C118.285 74.6702 117.945 76.6902 116.485 77.7302C115.345 78.5402 113.865 78.5102 112.775 77.7602C112.285 78.8602 111.915 80.0302 111.675 81.2402C112.695 81.2302 113.695 81.7001 114.325 82.5901C115.365 84.0401 115.025 86.0602 113.565 87.1002C113.005 87.5002 112.355 87.6902 111.715 87.6902C111.965 88.8702 112.345 90.0102 112.835 91.0802C112.855 91.0702 112.865 91.0602 112.875 91.0402C114.325 90.0002 116.345 90.3402 117.385 91.8002C118.415 93.2502 118.085 95.2602 116.645 96.3002C117.535 97.1102 118.515 97.8202 119.565 98.4202C120.035 97.2102 121.205 96.3502 122.575 96.3502C124.355 96.3502 125.805 97.8002 125.805 99.5802C125.805 99.8702 125.765 100.15 125.695 100.42C126.305 100.49 126.925 100.53 127.555 100.53C128.225 100.53 128.885 100.48 129.535 100.41C129.445 100.12 129.405 99.8102 129.405 99.4902C129.405 97.7102 130.855 96.2602 132.635 96.2602C134.025 96.2602 135.195 97.1302 135.655 98.3602C136.715 97.7502 137.695 97.0201 138.575 96.2001C138.345 96.0201 138.145 95.8002 137.965 95.5602C136.925 94.1102 137.265 92.0902 138.725 91.0502C139.825 90.2602 141.255 90.2702 142.335 90.9602C142.815 89.8802 143.195 88.7402 143.435 87.5402C142.495 87.5302 141.535 87.0702 140.915 86.2102ZM127.595 92.7802C122.945 92.7802 119.165 89.0102 119.165 84.3502C119.165 79.6902 122.935 75.9202 127.595 75.9202C132.245 75.9202 136.025 79.6902 136.025 84.3502C136.025 89.0102 132.255 92.7802 127.595 92.7802Z" fill="#E1DFDD"/>
<path d="M180.405 89.5599H269.985C271.475 89.5599 272.675 88.3599 272.675 86.8699V59.7999C272.675 58.3099 271.475 57.1099 269.985 57.1099H180.405C178.915 57.1099 177.715 58.3099 177.715 59.7999V86.8599C177.715 88.3499 178.925 89.5599 180.405 89.5599Z" fill="#E1DFDD"/>
<path d="M203.105 57.1099H172.975C170.845 57.1099 169.115 58.8399 169.115 60.9699V85.6999C169.115 87.8299 170.845 89.5599 172.975 89.5599H203.105V57.1099Z" fill="#0E6EDF"/>
<path d="M198.245 66.21H174.835V79.67H198.245V66.21Z" fill="white"/>
<path d="M186.835 76.1997C186.685 76.1997 186.535 76.1597 186.405 76.0797L177.225 70.2297C176.855 69.9897 176.745 69.4997 176.985 69.1297C177.225 68.7597 177.715 68.6497 178.085 68.8897L186.825 74.4597L195.135 68.8297C195.495 68.5797 195.995 68.6797 196.245 69.0397C196.495 69.3997 196.395 69.8997 196.035 70.1497L187.295 76.0797C187.145 76.1597 186.985 76.1997 186.835 76.1997Z" fill="#A3C9F6"/>
<path d="M181.145 132.37H270.725C272.215 132.37 273.415 131.17 273.415 129.68V102.62C273.415 101.13 272.215 99.9299 270.725 99.9299H181.145C179.655 99.9299 178.455 101.13 178.455 102.62V129.68C178.455 131.16 179.665 132.37 181.145 132.37Z" fill="#E1DFDD"/>
<path d="M203.845 99.9199H173.715C171.585 99.9199 169.855 101.65 169.855 103.78V128.5C169.855 130.63 171.585 132.36 173.715 132.36H203.845V99.9199Z" fill="#0E6EDF"/>
<path d="M175.575 124.34L174.455 123.2L185.715 112.07L192.395 119.4L197.425 109.85L198.835 110.59L192.745 122.15L185.655 114.37L175.575 124.34Z" fill="white"/>
<path d="M175.355 125.61C176.465 125.61 177.365 124.71 177.365 123.6C177.365 122.49 176.465 121.59 175.355 121.59C174.245 121.59 173.345 122.49 173.345 123.6C173.345 124.71 174.245 125.61 175.355 125.61Z" fill="#A3C9F6"/>
<path d="M185.695 115.42C186.805 115.42 187.705 114.52 187.705 113.41C187.705 112.3 186.805 111.4 185.695 111.4C184.585 111.4 183.685 112.3 183.685 113.41C183.685 114.52 184.585 115.42 185.695 115.42Z" fill="#A3C9F6"/>
<path d="M192.525 122.97C193.635 122.97 194.535 122.07 194.535 120.96C194.535 119.85 193.635 118.95 192.525 118.95C191.415 118.95 190.515 119.85 190.515 120.96C190.515 122.07 191.415 122.97 192.525 122.97Z" fill="#A3C9F6"/>
<path d="M198.745 111.23C199.855 111.23 200.755 110.33 200.755 109.22C200.755 108.11 199.855 107.21 198.745 107.21C197.635 107.21 196.735 108.11 196.735 109.22C196.735 110.33 197.635 111.23 198.745 111.23Z" fill="#A3C9F6"/>
<defs>
<linearGradient id="paint0_linear" x1="47.5121" y1="158.724" x2="29.2057" y2="189.887" gradientUnits="userSpaceOnUse">
<stop stop-color="#522CD5"/>
<stop offset="0.4397" stop-color="#8A6FE8"/>
</linearGradient>
<linearGradient id="paint1_linear" x1="47.5121" y1="158.724" x2="29.2057" y2="189.887" gradientUnits="userSpaceOnUse">
<stop stop-color="#522CD5"/>
<stop offset="0.4397" stop-color="#8A6FE8"/>
</linearGradient>
<linearGradient id="paint2_linear" x1="32.487" y1="188.632" x2="22.1664" y2="233.332" gradientUnits="userSpaceOnUse">
<stop stop-color="#522CD5"/>
<stop offset="0.4397" stop-color="#8A6FE8"/>
</linearGradient>
<radialGradient id="paint3_radial" cx="0" cy="0" r="1" gradientUnits="userSpaceOnUse" gradientTransform="translate(30.5305 218.416) rotate(42.0289) scale(14.1427)">
<stop offset="0.034" stop-color="#522CD5"/>
<stop offset="0.9955" stop-color="#8A6FE8"/>
</radialGradient>
<linearGradient id="paint4_linear" x1="56.2955" y1="159.617" x2="63.221" y2="194.22" gradientUnits="userSpaceOnUse">
<stop stop-color="#522CD5"/>
<stop offset="0.4397" stop-color="#8A6FE8"/>
</linearGradient>
<linearGradient id="paint5_linear" x1="56.2955" y1="159.617" x2="63.221" y2="194.22" gradientUnits="userSpaceOnUse">
<stop stop-color="#522CD5"/>
<stop offset="0.4397" stop-color="#8A6FE8"/>
</linearGradient>
<linearGradient id="paint6_linear" x1="61.2686" y1="191.949" x2="81.3643" y2="230.629" gradientUnits="userSpaceOnUse">
<stop stop-color="#522CD5"/>
<stop offset="0.4397" stop-color="#8A6FE8"/>
</linearGradient>
<radialGradient id="paint7_radial" cx="0" cy="0" r="1" gradientUnits="userSpaceOnUse" gradientTransform="translate(76.9474 215.242) scale(14.1428)">
<stop offset="0.034" stop-color="#522CD5"/>
<stop offset="0.9955" stop-color="#8A6FE8"/>
</radialGradient>
<radialGradient id="paint8_radial" cx="0" cy="0" r="1" gradientUnits="userSpaceOnUse" gradientTransform="translate(97.8044 89.1447) rotate(-107.56) scale(27.0646)">
<stop stop-color="#8065E0"/>
<stop offset="0.8628" stop-color="#512BD4"/>
</radialGradient>
<radialGradient id="paint9_radial" cx="0" cy="0" r="1" gradientUnits="userSpaceOnUse" gradientTransform="translate(40.5518 97.9336) rotate(-29.118) scale(40.878)">
<stop offset="0.4744" stop-color="#A08BE8"/>
<stop offset="0.8618" stop-color="#8065E0"/>
</radialGradient>
<radialGradient id="paint10_radial" cx="0" cy="0" r="1" gradientUnits="userSpaceOnUse" gradientTransform="translate(79.4094 110.709) rotate(-29.118) scale(31.4042)">
<stop offset="0.2022" stop-color="#E1DFDD"/>
<stop offset="0.7337" stop-color="white"/>
</radialGradient>
<radialGradient id="paint11_radial" cx="0" cy="0" r="1" gradientUnits="userSpaceOnUse" gradientTransform="translate(32.584 77.0832) rotate(-29.118) scale(7.07735)">
<stop stop-color="#8065E0"/>
<stop offset="0.8628" stop-color="#512BD4"/>
</radialGradient>
<linearGradient id="paint12_linear" x1="52.6448" y1="107.371" x2="106.302" y2="141.1" gradientUnits="userSpaceOnUse">
<stop offset="0.3344" stop-color="#9780E6"/>
<stop offset="0.8488" stop-color="#8A6FE8"/>
</linearGradient>
<radialGradient id="paint13_radial" cx="0" cy="0" r="1" gradientUnits="userSpaceOnUse" gradientTransform="translate(47.727 121.25) rotate(-18.9223) scale(13.0948)">
<stop stop-color="#8065E0"/>
<stop offset="0.8628" stop-color="#512BD4"/>
</radialGradient>
<radialGradient id="paint14_radial" cx="0" cy="0" r="1" gradientUnits="userSpaceOnUse" gradientTransform="translate(106.215 113.901) rotate(152.889) scale(15.3039 14.2825)">
<stop stop-color="#8065E0"/>
<stop offset="0.8628" stop-color="#512BD4"/>
</radialGradient>
</defs>
</svg>
