<svg width="262" height="252" viewBox="0 0 262 252" fill="none" xmlns="http://www.w3.org/2000/svg">
<path d="M18.9722 140.589L27.013 146.742C29.1661 148.365 32.2288 147.94 33.8562 145.782C35.479 143.629 35.0539 140.566 32.8962 138.939L24.6497 132.63L18.9722 140.589Z" fill="#D0C5F3"/>
<path d="M164.389 125.225C163.995 125.225 163.671 124.905 163.671 124.507V119.721C163.671 119.328 163.991 119.004 164.389 119.004C164.786 119.004 165.106 119.324 165.106 119.721V124.512C165.106 124.905 164.786 125.225 164.389 125.225Z" fill="#797673"/>
<path d="M231.641 125.225C231.248 125.225 230.923 124.905 230.923 124.507V119.721C230.923 119.328 231.243 119.004 231.641 119.004C232.039 119.004 232.359 119.324 232.359 119.721V124.512C232.359 124.905 232.039 125.225 231.641 125.225Z" fill="#797673"/>
<path d="M230.1 218.264H170.203V219.996H230.1V218.264Z" fill="#E1DFDD"/>
<path d="M231.961 233.303H235.558L219.806 162.623H216.213L231.961 233.303Z" fill="#B3AFAB"/>
<path d="M164.48 251.273H160.883L180.983 162.623H184.576L164.48 251.273Z" fill="#B3AFAB"/>
<path d="M91.9161 132.955L91.8841 198.69L81.0913 198.681L81.1233 132.941L91.9161 132.955Z" fill="url(#paint0_linear)"/>
<path d="M81.1395 186.827L91.9414 186.827L91.9414 185.419L81.1395 185.419L81.1395 186.827Z" fill="#A08BE8"/>
<path d="M66.2483 132.955L66.2163 198.69L55.4189 198.681L55.4509 132.941L66.2483 132.955Z" fill="url(#paint1_linear)"/>
<path d="M55.4745 186.827L66.2764 186.827L66.2764 185.419L55.4745 185.419L55.4745 186.827Z" fill="#A08BE8"/>
<path d="M81.1395 173.258L91.9414 173.258L91.9414 171.85L81.1395 171.85L81.1395 173.258Z" fill="#A08BE8"/>
<path d="M55.4745 173.258L66.2764 173.258L66.2764 171.85L55.4745 171.85L55.4745 173.258Z" fill="#A08BE8"/>
<path d="M81.1395 159.693L91.9414 159.693L91.9414 158.285L81.1395 158.285L81.1395 159.693Z" fill="#A08BE8"/>
<path d="M55.4745 159.693L66.2764 159.693L66.2764 158.285L55.4745 158.285L55.4745 159.693Z" fill="#A08BE8"/>
<path d="M81.1395 146.128L91.9414 146.128L91.9414 144.72L81.1395 144.72L81.1395 146.128Z" fill="#A08BE8"/>
<path d="M55.4745 146.128L66.2764 146.128L66.2764 144.72L55.4745 144.72L55.4745 146.128Z" fill="#A08BE8"/>
<path d="M105.333 87.9374L115.92 85.926C117.78 95.7268 122.091 102.241 128.061 104.275C135.146 106.689 144.709 102.986 154.986 93.848L162.149 101.903C145.098 117.061 132.312 117.107 124.587 114.478C114.79 111.141 107.952 101.715 105.333 87.9374Z" fill="url(#paint2_linear)"/>
<path d="M121.872 99.9907L113.608 106.682L114.39 107.648L122.654 100.957L121.872 99.9907Z" fill="#A08BE8"/>
<path d="M133.126 115.781C132.257 109.633 131.503 105.043 131.503 105.043L130.31 104.883L124.706 114.515C127.055 115.301 129.871 115.836 133.126 115.781Z" fill="#A08BE8"/>
<path d="M142.367 102.628L141.23 103.131L145.537 112.853L146.674 112.349L142.367 102.628Z" fill="#A08BE8"/>
<path d="M121.14 107.722C127.142 94.8262 126.845 83.5992 126.845 83.5992L130.031 84.1798L130.122 84.134C130.104 58.4481 111.778 35.6376 85.6121 30.8515C56.1275 25.4574 27.8588 44.9904 22.4647 74.4704C17.0707 103.95 36.6036 132.224 66.0837 137.618C89.3468 141.874 111.856 130.61 122.964 111.182C123.334 110.341 123.608 108.755 121.14 107.722Z" fill="url(#paint3_radial)"/>
<path d="M122.635 111.758C122.635 111.758 124.632 109.185 121.14 107.722C127.069 94.9816 126.854 83.8826 126.845 83.6129L71.4593 73.483C71.4593 73.483 68.0355 72.491 67.4503 75.6772C66.8698 78.8634 65.3521 87.8962 63.5282 97.8524C63.1534 99.9003 64.6527 101.194 65.9693 101.436L122.845 111.836C122.712 111.786 122.635 111.758 122.635 111.758Z" fill="url(#paint4_radial)"/>
<path d="M94.5581 102.817C94.5581 102.817 100.652 99.5757 101.836 98.986C103.02 98.3963 103.934 98.5197 104.734 99.5163C105.534 100.513 110.105 105.66 110.105 105.66L94.5581 102.817Z" fill="#A08BE8"/>
<path d="M122.635 111.758C122.635 111.758 124.633 109.185 121.14 107.722C121.145 107.708 121.154 107.694 121.158 107.681L66.6965 97.7198C65.4303 97.4867 63.9355 96.4353 64.0177 95.1782C63.8578 96.0605 63.6978 96.9519 63.5332 97.8478C63.1949 99.7083 64.3926 100.943 65.604 101.336C65.7274 101.372 65.8463 101.409 65.9743 101.432L69.6953 102.113L122.845 111.831C122.713 111.786 122.635 111.758 122.635 111.758Z" fill="url(#paint5_radial)"/>
<path d="M116.93 119.685L24.874 102.853C26.3003 106.743 28.1608 110.442 30.4098 113.888L107.847 128.05C111.17 125.618 114.219 122.821 116.93 119.685Z" fill="url(#paint6_radial)"/>
<path d="M106.251 114.874L89.0239 111.723L86.2369 126.963L103.464 130.113L106.251 114.874Z" fill="#512BD4"/>
<path d="M89.5116 29.4479L79.208 27.4914L82.6684 17.1924L90.0647 18.5958L89.5116 29.4479Z" fill="#D0C5F3"/>
<path d="M92.2271 36.6613C92.6933 36.7481 93.1413 36.419 93.1733 35.9482C93.5573 30.9518 90.1334 26.3622 85.0959 25.4068C80.0584 24.4514 75.1945 27.4685 73.718 32.2546C73.5809 32.7071 73.8735 33.178 74.3397 33.2694L92.2271 36.6613Z" fill="url(#paint7_radial)"/>
<path d="M9.85709 136.699L20.3253 134.139C17.6419 123.173 17.9665 113.518 21.2944 105.45C24.22 98.3506 29.5409 92.2845 37.1155 87.4161L31.2872 78.3513C17.2122 87.3978 2.07224 104.865 9.85709 136.699Z" fill="url(#paint8_linear)"/>
<path d="M16.7427 91.5731L16.0229 92.5869L24.6929 98.7422L25.4127 97.7284L16.7427 91.5731Z" fill="#A08BE8"/>
<path d="M10.8433 102.959L10.3799 104.113L20.2471 108.076L20.7105 106.922L10.8433 102.959Z" fill="#A08BE8"/>
<path d="M8.02608 116.021L7.96826 117.263L18.5893 117.758L18.6471 116.516L8.02608 116.021Z" fill="#A08BE8"/>
<path d="M34.0576 92.7144C39.5613 92.7144 44.023 88.2527 44.023 82.749C44.023 77.2453 39.5613 72.7837 34.0576 72.7837C28.5539 72.7837 24.0923 77.2453 24.0923 82.749C24.0923 88.2527 28.5539 92.7144 34.0576 92.7144Z" fill="url(#paint9_radial)"/>
<path d="M88.6233 89.826C89.3047 85.9446 87.9845 82.4693 85.6745 82.0638C83.3646 81.6583 80.9396 84.4761 80.2582 88.3575C79.5768 92.239 80.897 95.7142 83.207 96.1198C85.517 96.5253 87.9419 93.7075 88.6233 89.826Z" fill="#512BD4"/>
<path d="M85.077 85.5695C83.2623 86.8037 82.7914 89.2722 84.0257 91.0824C84.8622 92.3166 86.2747 92.9292 87.6644 92.8058C88.0941 91.9281 88.4278 90.9178 88.6243 89.8207C88.9352 88.0608 88.8255 86.3832 88.4049 85.0392C87.3124 84.7238 86.0919 84.8792 85.077 85.5695Z" fill="#8065E0"/>
<path d="M119.774 95.4173C120.571 91.5579 119.355 88.0449 117.058 87.5706C114.761 87.0964 112.253 89.8406 111.457 93.7C110.66 97.5593 111.876 101.072 114.172 101.547C116.469 102.021 118.977 99.2767 119.774 95.4173Z" fill="#512BD4"/>
<path d="M116.276 90.8309C114.461 92.0652 113.99 94.5337 115.224 96.3439C116.07 97.5873 117.492 98.1998 118.891 98.0627C119.275 97.2673 119.581 96.3713 119.782 95.4068C120.175 93.5143 120.079 91.7086 119.608 90.3007C118.511 89.9853 117.291 90.1407 116.276 90.8309Z" fill="#8065E0"/>
<path d="M88.2727 20.1958C93.8496 20.1958 98.3706 15.6748 98.3706 10.0979C98.3706 4.52099 93.8496 0 88.2727 0C82.6958 0 78.1748 4.52099 78.1748 10.0979C78.1748 15.6748 82.6958 20.1958 88.2727 20.1958Z" fill="url(#paint10_radial)"/>
<path d="M85.1232 37.6947C85.1461 38.6912 85.8318 39.5917 86.8466 39.834C100.154 43.0339 111.198 52.1536 117.053 64.1805C118.635 67.4261 122.85 65.8262 121.126 62.2698C114.695 49.0223 102.544 38.9838 87.898 35.4593C86.6912 35.1668 85.4752 35.9119 85.1827 37.1187C85.1369 37.3107 85.1187 37.5027 85.1232 37.6947Z" fill="url(#paint11_radial)"/>
<path d="M71.2034 131.634C71.0983 130.642 70.3395 129.805 69.3064 129.645C52.1276 127.017 37.7784 114.579 32.75 97.9484C32.3889 96.7599 31.1364 96.0879 29.9433 96.4444C28.7547 96.8056 28.0828 98.0581 28.4393 99.2512C33.966 117.527 49.7368 131.204 68.6207 134.093C69.8503 134.281 70.9977 133.44 71.1851 132.21C71.2171 132.013 71.2217 131.821 71.2034 131.634Z" fill="url(#paint12_radial)"/>
<path d="M86.3066 235.379L107.618 235.484C107.618 235.484 112.573 238.812 113.885 241.212C114.891 243.045 114.822 247.163 114.735 249.001C114.712 249.513 114.287 249.915 113.775 249.911L93.2184 249.87C92.5601 249.87 92.0253 249.33 92.0344 248.672C92.0573 246.395 91.6642 241.545 90.8093 240.165C89.5294 238.094 86.3066 235.379 86.3066 235.379Z" fill="#D0C5F3"/>
<path d="M79.8431 210.767C75.9118 224.495 77.5209 246.254 77.6855 247.406C77.9141 249.001 78.1289 250.116 80.3962 250.116C83.2167 250.116 95.3397 250.116 95.3397 250.116L88.9765 211.649L79.8431 210.767Z" fill="#8065E0"/>
<path d="M92.3775 212.888C93.3283 219.621 100.048 229.089 112.774 238.994C114.26 240.151 115.028 241.376 115.028 243.099V248.612C115.028 249.426 114.365 250.089 113.552 250.089H93.118C92.542 250.089 92.0758 249.623 92.0758 249.047V242.684C92.0758 240.7 91.6735 239.68 89.6439 238.222C84.5515 234.57 81.3379 222.245 81.2327 213.482C81.123 204.715 92.3775 212.888 92.3775 212.888Z" fill="#A08BE8"/>
<path d="M114.836 241.742C114.96 242.162 115.028 242.606 115.028 243.1V248.613C115.028 249.426 114.365 250.089 113.552 250.089H93.1181C92.5421 250.089 92.0758 249.623 92.0758 249.047V242.684C92.0758 242.345 92.0621 242.035 92.0347 241.747H114.836V241.742Z" fill="#D0C5F3"/>
<path d="M61.0596 235.379L82.3708 235.484C82.3708 235.484 87.326 238.812 88.638 241.212C89.6436 243.045 89.5751 247.163 89.4882 249.001C89.4654 249.513 89.0402 249.915 88.5283 249.911L67.9713 249.87C67.313 249.87 66.7782 249.33 66.7874 248.672C66.8102 246.395 66.4171 241.545 65.5623 240.165C64.2823 238.094 61.0596 235.379 61.0596 235.379Z" fill="#D0C5F3"/>
<path d="M54.5961 210.767C50.6648 224.495 52.2739 246.254 52.4384 247.406C52.667 249.001 52.8818 250.116 55.1492 250.116C57.9696 250.116 70.0926 250.116 70.0926 250.116L63.7294 211.649L54.5961 210.767Z" fill="#8065E0"/>
<path d="M67.1304 212.888C68.0812 219.621 74.801 229.089 87.5273 238.994C89.013 240.151 89.781 241.376 89.781 243.099V248.612C89.781 249.426 89.1181 250.089 88.3045 250.089H67.8709C67.295 250.089 66.8287 249.623 66.8287 249.047V242.684C66.8287 240.7 66.4264 239.68 64.3968 238.222C59.3044 234.57 56.0908 222.245 55.9857 213.482C55.876 204.715 67.1304 212.888 67.1304 212.888Z" fill="#A08BE8"/>
<path d="M89.589 241.742C89.7125 242.162 89.781 242.606 89.781 243.1V248.613C89.781 249.426 89.1182 250.089 88.3045 250.089H67.871C67.295 250.089 66.8287 249.623 66.8287 249.047V242.684C66.8287 242.345 66.815 242.035 66.7876 241.747H89.589V241.742Z" fill="#D0C5F3"/>
<path d="M80.8493 198.292H91.3403C93.1002 198.292 94.5265 199.718 94.5265 201.478V212.349C94.5265 214.109 93.1002 215.535 91.3403 215.535H80.8493C79.0893 215.535 77.6631 214.109 77.6631 212.349V201.478C77.6631 199.718 79.0893 198.292 80.8493 198.292Z" fill="url(#paint13_radial)"/>
<path d="M55.1813 198.292H65.6723C67.4323 198.292 68.8585 199.718 68.8585 201.478V212.349C68.8585 214.109 67.4323 215.535 65.6723 215.535H55.1813C53.4214 215.535 51.9951 214.109 51.9951 212.349V201.478C51.9951 199.718 53.4214 198.292 55.1813 198.292Z" fill="url(#paint14_radial)"/>
<path d="M153.605 124.42C153.911 145.416 171.012 162.344 192.081 162.344H207.953C229.022 162.344 246.123 145.416 246.429 124.42H153.605Z" fill="#E3646A"/>
<path d="M250.968 125.755H149.866C149.263 125.755 148.773 125.266 148.773 124.663V124.188C148.773 123.584 149.263 123.095 149.866 123.095H250.973C251.576 123.095 252.066 123.584 252.066 124.188V124.663C252.061 125.266 251.572 125.755 250.968 125.755Z" fill="#797673"/>
<path d="M249.497 53.049L248.753 52.1099L243.954 55.9091L244.697 56.8482L249.497 53.049Z" fill="#B3AFAB"/>
<path d="M257.789 63.5209L257.046 62.5818L252.246 66.381L252.99 67.3201L257.789 63.5209Z" fill="#B3AFAB"/>
<path d="M260.496 65.2265L247.856 49.2583L246.186 50.5805L258.826 66.5487L260.496 65.2265Z" fill="#E3646A"/>
<path d="M247.837 120.357C264.111 107.086 266.766 83.1695 253.688 66.649L243.837 54.2014C230.759 37.6855 206.874 34.7781 190.221 47.5731L247.837 120.357Z" fill="#E3646A"/>
<path d="M251.576 63.984L243.833 54.2061C230.754 37.6901 206.869 34.7828 190.216 47.5777L202.664 63.3029C217.411 51.9707 237.693 52.6655 251.576 63.984Z" fill="#EE8F94"/>
<path d="M188.447 43.1938L251.201 122.464C251.576 122.939 251.498 123.625 251.023 124L250.653 124.292C250.177 124.667 249.492 124.59 249.117 124.114L186.358 44.844C185.983 44.3686 186.061 43.6829 186.536 43.308L186.907 43.0155C187.382 42.6406 188.072 42.7183 188.447 43.1938Z" fill="#797673"/>
<path d="M231.06 127.501C228.679 144.356 216.414 157.196 201.626 157.196H205.576C223.239 157.196 237.894 144.356 240.738 127.501H231.06Z" fill="#EE8F94"/>
<path d="M184.47 164.387H180.936C179.565 164.387 178.45 163.276 178.45 161.9V159.862C178.45 158.49 179.561 157.375 180.936 157.375H184.47C185.841 157.375 186.957 158.486 186.957 159.862V161.9C186.957 163.276 185.846 164.387 184.47 164.387Z" fill="#E3646A"/>
<path d="M219.769 164.387H216.236C214.864 164.387 213.749 163.276 213.749 161.9V159.862C213.749 158.49 214.86 157.375 216.236 157.375H219.769C221.141 157.375 222.256 158.486 222.256 159.862V161.9C222.252 163.276 221.141 164.387 219.769 164.387Z" fill="#E3646A"/>
<path d="M161.728 247.547L160.883 251.273H164.48L165.322 247.547H161.728Z" fill="#797673"/>
<path d="M235.956 251.597C242.091 251.597 247.064 246.624 247.064 240.489C247.064 234.354 242.091 229.381 235.956 229.381C229.821 229.381 224.848 234.354 224.848 240.489C224.848 246.624 229.821 251.597 235.956 251.597Z" fill="#797673"/>
<path d="M235.956 249.348C240.849 249.348 244.815 245.382 244.815 240.489C244.815 235.596 240.849 231.63 235.956 231.63C231.064 231.63 227.097 235.596 227.097 240.489C227.097 245.382 231.064 249.348 235.956 249.348Z" fill="#E1DFDD"/>
<path d="M235.956 244.713C238.289 244.713 240.18 242.822 240.18 240.489C240.18 238.156 238.289 236.265 235.956 236.265C233.623 236.265 231.732 238.156 231.732 240.489C231.732 242.822 233.623 244.713 235.956 244.713Z" fill="#B3AFAB"/>
<path d="M236.267 120.672H159.598C159.072 120.672 158.643 120.247 158.643 119.717C158.643 119.186 159.068 118.761 159.598 118.761H236.267C236.793 118.761 237.223 119.186 237.223 119.717C237.223 120.247 236.793 120.672 236.267 120.672Z" fill="#797673"/>
<path d="M195.116 118.656H176.146C174.72 118.656 173.563 117.5 173.563 116.074V115.562C173.563 114.135 174.72 112.979 176.146 112.979H195.116C196.543 112.979 197.699 114.135 197.699 115.562V116.074C197.699 117.5 196.543 118.656 195.116 118.656Z" fill="#BF8F68"/>
<path d="M222.778 118.656H203.807C202.381 118.656 201.224 117.5 201.224 116.074V115.562C201.224 114.135 202.381 112.979 203.807 112.979H222.778C224.204 112.979 225.36 114.135 225.36 115.562V116.074C225.365 117.5 224.208 118.656 222.778 118.656Z" fill="#BF8F68"/>
<path d="M161.628 95.1736L161.925 84.8974C161.984 82.1593 159.813 79.8919 157.075 79.8325C154.336 79.7731 152.069 81.9444 152.01 84.6826L151.708 95.2193L161.628 95.1736Z" fill="#D0C5F3"/>
<path d="M160.851 108.974C166.584 108.974 171.232 104.326 171.232 98.593C171.232 92.8595 166.584 88.2117 160.851 88.2117C155.117 88.2117 150.469 92.8595 150.469 98.593C150.469 104.326 155.117 108.974 160.851 108.974Z" fill="url(#paint15_radial)"/>
<path d="M166.496 103.155L176.772 103.352C179.511 103.384 181.76 101.19 181.792 98.4513C181.824 95.7131 179.629 93.4641 176.891 93.4321L166.354 93.231L166.496 103.155Z" fill="#D0C5F3"/>
<path d="M165.527 97.0479L175.127 93.3772C177.677 92.3806 178.939 89.5053 177.942 86.9546C176.946 84.4038 174.071 83.1421 171.52 84.1387L161.673 87.9008L165.527 97.0479Z" fill="#D0C5F3"/>
<path d="M178.866 83.0826L175.872 81.1627C172.43 78.9548 167.849 79.9559 165.642 83.3981L162.273 88.6504L160.462 91.4709L152.778 103.452C151.763 105.034 152.22 107.146 153.807 108.161L163.53 114.4C165.111 115.415 167.223 114.958 168.238 113.372L175.922 101.391L177.732 98.5701L181.102 93.3177C183.305 89.871 182.308 85.2906 178.866 83.0826Z" fill="#9B643D"/>
<path d="M187.449 74.5953L180.25 69.9768L172.603 81.8968L179.802 86.5153L187.449 74.5953Z" fill="#9B643D"/>
<path d="M187.449 74.5997L180.25 69.9812L177.068 74.9408L184.267 79.5593L187.449 74.5997Z" fill="#605D5A"/>
<path d="M180.734 93.8915L165.235 83.9485L155.292 99.4467L170.791 109.39L180.734 93.8915Z" fill="#FADCBD"/>
<path d="M171.433 113.792L166.332 112.613C163.918 112.055 162.414 109.646 162.972 107.228L163.173 106.36C163.73 103.946 166.14 102.442 168.558 103L173.659 104.179C176.073 104.737 177.577 107.146 177.019 109.564L176.818 110.433C176.26 112.846 173.851 114.35 171.433 113.792Z" fill="#D0C5F3"/>
<path d="M177.065 106.899L171.963 105.72C169.55 105.162 168.046 102.753 168.603 100.335L168.805 99.466C169.362 97.0524 171.771 95.5485 174.19 96.1062L179.291 97.2855C181.705 97.8432 183.209 100.252 182.651 102.67L182.45 103.539C181.892 105.953 179.483 107.457 177.065 106.899Z" fill="#D0C5F3"/>
<path d="M65.4347 165.736L69.7454 150.504C70.2116 148.859 69.1831 147.167 67.51 146.824L52.9506 143.826C51.986 143.629 51.0352 143.926 50.3587 144.557C50.3038 144.589 50.249 144.626 50.1941 144.676L45.4217 148.529C45.0057 148.868 44.448 148.973 43.9361 148.817L3.48499 136.342C2.41989 136.013 1.29536 136.626 0.99366 137.696L0.0748367 140.941C-0.231438 142.029 0.431395 143.154 1.53307 143.41L42.5601 152.954C43.0858 153.078 43.5109 153.462 43.6755 153.978C44.5395 156.662 45.664 160.177 45.8834 160.936C45.9063 161.014 45.9428 161.078 45.9931 161.132C46.3177 161.8 46.8845 162.348 47.6342 162.618L61.604 167.692C63.2085 168.282 64.973 167.377 65.4347 165.736ZM50.345 149.16C49.6913 148.977 49.3119 148.296 49.4993 147.647C49.6821 146.993 50.3632 146.614 51.0124 146.802L65.8552 151.002C66.5089 151.185 66.8883 151.866 66.7009 152.516C66.5181 153.169 65.837 153.549 65.1878 153.361L50.345 149.16ZM48.9096 154.234C48.2559 154.052 47.8765 153.37 48.0639 152.721C48.2467 152.068 48.9279 151.688 49.577 151.876L64.4199 156.077C65.0735 156.259 65.453 156.941 65.2655 157.59C65.0827 158.243 64.4016 158.623 63.7525 158.435L48.9096 154.234ZM47.4742 159.313C46.8205 159.13 46.4411 158.449 46.6285 157.8C46.8114 157.146 47.4925 156.767 48.1416 156.954L62.9845 161.155C63.6382 161.338 64.0176 162.019 63.8302 162.668C63.6473 163.322 62.9662 163.701 62.3171 163.514L47.4742 159.313Z" fill="#797673"/>
<path d="M8.87891 140.319L9.18975 150.44C9.29032 153.137 11.5577 155.24 14.2547 155.139C16.9517 155.039 19.0545 152.772 18.954 150.075L18.634 139.698L8.87891 140.319Z" fill="#D0C5F3"/>
<path d="M15.9189 140.109L16.4858 150.221C16.6549 152.913 18.9771 154.956 21.6696 154.787C24.3621 154.618 26.4054 152.296 26.2363 149.603L25.6512 139.236L15.9189 140.109Z" fill="#D0C5F3"/>
<path d="M5.07597 136.795L3.40746 146.783C2.98234 149.448 4.79712 151.953 7.46217 152.378C10.1272 152.803 12.6323 150.989 13.0574 148.324L14.767 138.084L5.07597 136.795Z" fill="#D0C5F3"/>
<path d="M15.0916 145.645C20.7392 145.645 25.3175 141.067 25.3175 135.419C25.3175 129.771 20.7392 125.193 15.0916 125.193C9.44402 125.193 4.86572 129.771 4.86572 135.419C4.86572 141.067 9.44402 145.645 15.0916 145.645Z" fill="url(#paint16_radial)"/>
<path d="M89.411 121.948C89.2739 121.92 89.1688 121.856 89.091 121.746C89.0133 121.637 88.9859 121.518 89.0088 121.39C89.0316 121.262 89.1002 121.157 89.2145 121.084C89.3242 121.01 89.4476 120.983 89.5847 121.01C89.7219 121.038 89.827 121.102 89.9047 121.212C89.9824 121.321 90.0099 121.44 89.987 121.573C89.9642 121.701 89.8956 121.801 89.7813 121.874C89.6716 121.952 89.5482 121.975 89.411 121.948Z" fill="white"/>
<path d="M94.8232 122.88L93.9456 122.716L92.3136 118.638C92.2725 118.533 92.2405 118.432 92.2222 118.323L92.2039 118.318C92.2039 118.428 92.1674 118.656 92.1034 119.004L91.4954 122.258L90.7183 122.112L91.6462 117.148L92.5833 117.321L94.1513 121.298C94.2199 121.463 94.261 121.577 94.2747 121.637L94.2884 121.641C94.2884 121.504 94.3204 121.28 94.3798 120.969L94.9787 117.774L95.7512 117.92L94.8232 122.88Z" fill="white"/>
<path d="M98.604 123.584L95.8887 123.077L96.8166 118.112L99.4268 118.601L99.2943 119.301L97.4886 118.963L97.2281 120.366L98.892 120.677L98.764 121.372L97.1001 121.061L96.8258 122.528L98.7411 122.885L98.604 123.584Z" fill="white"/>
<path d="M103.262 120.041L101.872 119.781L101.077 124.046L100.272 123.895L101.068 119.63L99.6826 119.369L99.8152 118.67L103.394 119.337L103.262 120.041Z" fill="white"/>
<defs>
<linearGradient id="paint0_linear" x1="86.5029" y1="132.942" x2="86.5029" y2="198.691" gradientUnits="userSpaceOnUse">
<stop offset="0.1017" stop-color="#958FE7"/>
<stop offset="0.2129" stop-color="#BBB7EF"/>
</linearGradient>
<linearGradient id="paint1_linear" x1="60.8339" y1="132.942" x2="60.8339" y2="198.691" gradientUnits="userSpaceOnUse">
<stop offset="0.1017" stop-color="#958FE7"/>
<stop offset="0.2129" stop-color="#BBB7EF"/>
</linearGradient>
<linearGradient id="paint2_linear" x1="113.509" y1="79.7269" x2="149.043" y2="115.081" gradientUnits="userSpaceOnUse">
<stop offset="0.2584" stop-color="#958FE7"/>
<stop offset="0.4497" stop-color="#BBB7EF"/>
</linearGradient>
<radialGradient id="paint3_radial" cx="0" cy="0" r="1" gradientUnits="userSpaceOnUse" gradientTransform="translate(88.2676 71.2499) scale(54.2773)">
<stop offset="0.4744" stop-color="#A08BE8"/>
<stop offset="0.8618" stop-color="#8065E0"/>
</radialGradient>
<radialGradient id="paint4_radial" cx="0" cy="0" r="1" gradientUnits="userSpaceOnUse" gradientTransform="translate(90.4966 71.0065) scale(52.6021)">
<stop offset="0.2022" stop-color="#E1DFDD"/>
<stop offset="0.7337" stop-color="white"/>
</radialGradient>
<radialGradient id="paint5_radial" cx="0" cy="0" r="1" gradientUnits="userSpaceOnUse" gradientTransform="translate(69.1241 102.268) scale(46.2702)">
<stop stop-color="#512BD4"/>
<stop offset="0.5045" stop-color="#6645D9"/>
<stop offset="0.7759" stop-color="#7659DD"/>
<stop offset="1" stop-color="#8065E0"/>
</radialGradient>
<radialGradient id="paint6_radial" cx="0" cy="0" r="1" gradientUnits="userSpaceOnUse" gradientTransform="translate(40.997 111.424) scale(33.743)">
<stop offset="0.4614" stop-color="#A08BE8"/>
<stop offset="0.5268" stop-color="#A793EA"/>
<stop offset="0.8352" stop-color="#C5B7F0"/>
<stop offset="1" stop-color="#D0C5F3"/>
</radialGradient>
<radialGradient id="paint7_radial" cx="0" cy="0" r="1" gradientUnits="userSpaceOnUse" gradientTransform="translate(83.4465 30.9529) scale(7.99948)">
<stop stop-color="#8065E0"/>
<stop offset="0.8628" stop-color="#512BD4"/>
</radialGradient>
<linearGradient id="paint8_linear" x1="32.4891" y1="78.838" x2="8.03278" y2="135.888" gradientUnits="userSpaceOnUse">
<stop offset="0.1788" stop-color="#958FE7"/>
<stop offset="0.4497" stop-color="#BBB7EF"/>
</linearGradient>
<radialGradient id="paint9_radial" cx="0" cy="0" r="1" gradientUnits="userSpaceOnUse" gradientTransform="translate(34.5047 78.5835) scale(14.7999)">
<stop stop-color="#8065E0"/>
<stop offset="0.8628" stop-color="#512BD4"/>
</radialGradient>
<radialGradient id="paint10_radial" cx="0" cy="0" r="1" gradientUnits="userSpaceOnUse" gradientTransform="translate(91.111 5.26394) scale(14.0419)">
<stop stop-color="#A08BE8"/>
<stop offset="1" stop-color="#8065E0"/>
</radialGradient>
<radialGradient id="paint11_radial" cx="0" cy="0" r="1" gradientUnits="userSpaceOnUse" gradientTransform="translate(103.322 50.6571) rotate(-91.1861) scale(16.8067)">
<stop offset="0.3607" stop-color="#BDB9F0"/>
<stop offset="0.5611" stop-color="#C3BCEB" stop-opacity="0.3855"/>
<stop offset="0.6338" stop-color="#CEC3E2" stop-opacity="0.3217"/>
<stop offset="0.8689" stop-color="#EDD6C9" stop-opacity="0.1152"/>
<stop offset="1" stop-color="#F9DDBF" stop-opacity="0"/>
</radialGradient>
<radialGradient id="paint12_radial" cx="0" cy="0" r="1" gradientUnits="userSpaceOnUse" gradientTransform="translate(49.7681 115.235) rotate(83.9844) scale(20.204)">
<stop stop-color="#BDB9F0"/>
<stop offset="0.5266" stop-color="#C3BCEB" stop-opacity="0.3855"/>
<stop offset="0.605" stop-color="#CEC3E2" stop-opacity="0.3217"/>
<stop offset="0.8586" stop-color="#EDD6C9" stop-opacity="0.1152"/>
<stop offset="1" stop-color="#F9DDBF" stop-opacity="0"/>
</radialGradient>
<radialGradient id="paint13_radial" cx="0" cy="0" r="1" gradientUnits="userSpaceOnUse" gradientTransform="translate(86.336 202.547) rotate(180) scale(10.4664)">
<stop stop-color="#8065E0"/>
<stop offset="1" stop-color="#512BD4"/>
</radialGradient>
<radialGradient id="paint14_radial" cx="0" cy="0" r="1" gradientUnits="userSpaceOnUse" gradientTransform="translate(60.4264 202.944) rotate(180) scale(10.9193)">
<stop stop-color="#8065E0"/>
<stop offset="1" stop-color="#512BD4"/>
</radialGradient>
<radialGradient id="paint15_radial" cx="0" cy="0" r="1" gradientUnits="userSpaceOnUse" gradientTransform="translate(159.408 94.1502) rotate(-166.98) scale(11.5571)">
<stop offset="0.1607" stop-color="#A08BE8"/>
<stop offset="1" stop-color="#8065E0"/>
</radialGradient>
<radialGradient id="paint16_radial" cx="0" cy="0" r="1" gradientUnits="userSpaceOnUse" gradientTransform="translate(11.6053 133.088) rotate(-66.7961) scale(14.4559)">
<stop stop-color="#A08BE8"/>
<stop offset="1" stop-color="#8065E0"/>
</radialGradient>
</defs>
</svg>
