<svg width="344" height="346" viewBox="0 0 344 346" fill="none" xmlns="http://www.w3.org/2000/svg">
<path d="M180.218 129.035C180.218 129.035 200.804 151.916 206.677 168.185C212.55 184.458 221.343 197.265 228.577 204.646C235.811 212.028 244.347 224.749 249.058 235.592C253.769 246.436 262.876 263.683 269.464 269.166C276.051 274.649 284.447 287.463 286.064 293.885C287.678 300.306 295.428 311.222 298.633 314.279C301.835 317.34 313.866 334.475 316.822 342.341C319.779 350.206 312.909 341.55 309.105 339.403C305.3 337.255 298.11 332.678 294.883 323.184C291.656 313.691 286.526 303.125 279.466 296.917C272.405 290.712 262.858 280.717 257.505 267.974C252.148 255.232 240.731 238.725 232.316 229.539C223.899 220.352 213.42 207.101 208.128 193.543C202.836 179.985 195.967 171.333 187.196 161.605C178.424 151.877 171.486 133.98 171.486 133.98L180.218 129.035Z" fill="url(#paint0_linear)"/>
<path d="M206.186 112.889C206.186 112.889 226.772 135.77 232.645 152.039C238.518 168.311 247.311 181.119 254.545 188.5C261.778 195.882 270.315 208.603 275.026 219.446C279.736 230.289 288.844 247.536 295.431 253.02C302.019 258.503 310.415 271.317 312.032 277.739C313.646 284.16 321.396 295.076 324.601 298.133C327.803 301.194 339.834 318.329 342.79 326.195C345.746 334.06 338.877 325.404 335.073 323.256C331.268 321.105 324.078 316.532 320.851 307.038C317.623 297.545 312.494 286.979 305.434 280.771C298.373 274.566 288.826 264.57 283.472 251.828C278.116 239.086 266.698 222.579 258.284 213.393C249.866 204.206 239.388 190.955 234.096 177.397C228.804 163.839 221.935 155.187 213.163 145.459C204.392 135.731 197.454 117.834 197.454 117.834L206.186 112.889Z" fill="url(#paint1_linear)"/>
<path d="M171.428 137.359L182.073 130.331C182.921 129.771 183.03 128.63 182.293 128.002L174.128 121.01C173.597 120.556 172.789 120.52 172.179 120.924L165.822 125.122C165.209 125.526 164.956 126.262 165.209 126.901L169.085 136.723C169.436 137.608 170.58 137.918 171.428 137.359Z" fill="url(#paint2_linear)"/>
<path d="M165.003 127.569L175.034 120.946C176.156 120.206 176.467 118.773 175.731 117.744L156.415 90.7651C155.679 89.7363 154.174 89.5053 153.051 90.2453L143.02 96.869C141.897 97.609 141.587 99.0421 142.323 100.071L161.638 127.049C162.375 128.078 163.884 128.309 165.003 127.569Z" fill="white"/>
<path d="M197.663 120.216L208.308 113.188C209.156 112.629 209.264 111.488 208.528 110.86L200.363 103.868C199.832 103.413 199.024 103.377 198.414 103.781L192.057 107.98C191.443 108.384 191.191 109.12 191.443 109.759L195.32 119.581C195.667 120.465 196.811 120.776 197.663 120.216Z" fill="url(#paint3_radial)"/>
<path d="M191.237 110.427L201.269 103.803C202.391 103.063 202.702 101.63 201.965 100.601L182.65 73.6228C181.914 72.594 180.408 72.363 179.286 73.103L169.255 79.7267C168.132 80.4667 167.822 81.8997 168.558 82.9285L187.873 109.907C188.61 110.936 190.115 111.167 191.237 110.427Z" fill="white"/>
<path d="M169.255 79.7267L172.497 77.5862L191.48 104.099C192.216 105.128 193.722 105.359 194.844 104.619L201.63 100.136L201.962 100.601C202.699 101.63 202.385 103.063 201.266 103.803L191.234 110.427C190.112 111.167 188.607 110.936 187.87 109.907L168.555 82.9285C167.822 81.9033 168.133 80.4667 169.255 79.7267Z" fill="#E1DFDD"/>
<path d="M143.024 96.8689L146.265 94.7284L165.248 121.241C165.985 122.27 167.49 122.501 168.613 121.761L173.417 118.588L175.399 117.278L175.731 117.744C176.467 118.772 176.153 120.205 175.034 120.945L165.003 127.569C163.88 128.309 162.375 128.078 161.639 127.049L142.323 100.071C141.587 99.0419 141.901 97.6089 143.024 96.8689Z" fill="#E1DFDD"/>
<path d="M157.163 178.776L162.827 167.485C162.552 167.348 134.794 153.18 126.997 133.529L115.255 138.189C124.839 162.341 155.846 178.119 157.163 178.776Z" fill="url(#paint4_linear)"/>
<path d="M187.17 193.688L173.002 213.736C173.002 213.736 172.807 220.605 174.175 223.446C175.222 225.619 179.128 228.308 180.907 229.456C181.405 229.777 182.062 229.647 182.405 229.167L196.129 209.873C196.57 209.252 196.422 208.393 195.801 207.96C193.653 206.455 189.368 202.845 188.646 201.116C187.563 198.528 187.17 193.688 187.17 193.688Z" fill="#D0C5F3"/>
<path d="M168.432 171.156C183.929 176.661 203.251 192.731 204.222 193.655C205.565 194.936 206.467 195.886 204.948 198.012C203.06 200.658 194.945 212.017 194.945 212.017L163.151 180.306L168.432 171.156Z" fill="#8065E0"/>
<path d="M162.029 184.324C167.707 189.72 172.081 202.354 172.847 220.919C172.937 223.088 173.569 224.626 175.186 225.777L180.355 229.466C181.12 230.011 182.181 229.835 182.726 229.069L196.403 209.916C196.79 209.375 196.663 208.624 196.125 208.238L190.159 203.979C188.3 202.65 187.614 201.596 187.607 198.712C187.592 191.493 178.193 180.231 170.049 174.267C161.906 168.304 162.029 184.324 162.029 184.324Z" fill="#A08BE8"/>
<path d="M174.042 224.687C174.352 225.084 174.724 225.445 175.186 225.774L180.355 229.463C181.12 230.008 182.182 229.831 182.727 229.066L196.404 209.913C196.79 209.371 196.664 208.621 196.122 208.234L190.155 203.975C189.838 203.748 189.556 203.527 189.303 203.307L174.042 224.687Z" fill="url(#paint5_linear)"/>
<path d="M137.316 148.712L128.086 157.056L126.997 155.851L136.227 147.507L137.316 148.712Z" fill="#A08BE8"/>
<path d="M157.018 162.417L148.655 174.13C147.846 175.26 148.11 176.834 149.24 177.639L161.307 186.255C162.437 187.064 164.01 186.8 164.815 185.67L173.179 173.957C173.987 172.827 173.724 171.253 172.594 170.448L160.527 161.832C159.394 161.024 157.823 161.287 157.018 162.417Z" fill="url(#paint6_radial)"/>
<path d="M147.471 157.75L139.314 167.147L138.088 166.082L146.244 156.686L147.471 157.75Z" fill="#A08BE8"/>
<path d="M143.991 126.179C136.404 118.964 128.968 110.532 122.074 101.107C92.846 61.1333 84.4608 18.4201 103.35 5.71048C122.24 -6.99916 161.242 15.0956 190.473 55.0727C196.617 63.4724 201.836 71.9948 206.078 80.3331C206.958 82.0658 206.395 84.181 204.785 85.2639L143.991 126.179Z" fill="#F7B548"/>
<path d="M140.374 108.933C134.415 103.262 128.571 96.638 123.156 89.2346C100.195 57.8304 93.6075 24.275 108.447 14.2906C123.286 4.3027 153.929 21.6652 176.89 53.0729C181.716 59.6714 185.816 66.3673 189.148 72.9189C189.841 74.2797 189.397 75.9401 188.134 76.792L140.374 108.933Z" fill="url(#paint7_radial)"/>
<path d="M176.056 167.633L182.398 156.706C182.131 156.551 155.29 140.723 148.702 120.631L136.696 124.569C144.793 149.26 174.782 166.893 176.056 167.633Z" fill="url(#paint8_linear)"/>
<path d="M205.1 184.342L189.737 203.488C189.737 203.488 189.124 210.332 190.315 213.252C191.228 215.483 194.964 218.406 196.671 219.659C197.148 220.009 197.812 219.919 198.184 219.46L213.056 201.037C213.532 200.445 213.438 199.578 212.843 199.106C210.792 197.474 206.735 193.608 206.118 191.839C205.197 189.197 205.1 184.342 205.1 184.342Z" fill="#D0C5F3"/>
<path d="M187.766 160.713C202.898 167.149 221.206 184.371 222.119 185.349C223.383 186.71 224.224 187.713 222.581 189.742C220.535 192.269 211.745 203.116 211.745 203.116L181.94 169.528L187.766 160.713Z" fill="#8065E0"/>
<path d="M180.576 173.463C185.914 179.195 189.513 192.074 189.149 210.649C189.105 212.819 189.643 214.393 191.185 215.642L196.119 219.641C196.848 220.233 197.92 220.121 198.512 219.392L213.33 201.105C213.749 200.589 213.669 199.831 213.153 199.416L207.457 194.799C205.685 193.363 205.06 192.265 205.23 189.388C205.652 182.184 196.96 170.369 189.192 163.919C181.424 157.468 180.576 173.463 180.576 173.463Z" fill="#A08BE8"/>
<path d="M190.109 214.486C190.394 214.901 190.744 215.288 191.185 215.641L196.119 219.641C196.848 220.233 197.92 220.121 198.512 219.392L213.33 201.105C213.749 200.589 213.669 199.831 213.153 199.416L207.457 194.799C207.154 194.554 206.887 194.316 206.648 194.081L190.109 214.486Z" fill="url(#paint9_linear)"/>
<path d="M158.093 136.406L148.372 144.172L147.358 142.903L157.079 135.137L158.093 136.406Z" fill="#A08BE8"/>
<path d="M176.908 151.292L167.848 162.475C166.975 163.554 167.141 165.139 168.22 166.012L179.742 175.35C180.821 176.224 182.406 176.058 183.279 174.979L192.34 163.796C193.213 162.717 193.047 161.132 191.968 160.258L180.446 150.92C179.366 150.047 177.782 150.213 176.908 151.292Z" fill="url(#paint10_radial)"/>
<path d="M167.673 146.042L158.96 154.925L157.8 153.787L166.514 144.904L167.673 146.042Z" fill="#A08BE8"/>
<path d="M17.671 142.672L12.6824 131.937C11.3721 129.067 12.6355 125.678 15.5088 124.367C18.3785 123.057 21.7679 124.321 23.0783 127.194L28.1968 138.203L17.671 142.672Z" fill="#D0C5F3"/>
<path d="M73.8589 117.137L67.43 141.427L55.4496 138.102L61.8748 113.813L73.8589 117.137Z" fill="url(#paint11_linear)"/>
<path d="M58.6785 126.11L70.6577 129.431L70.269 130.833L58.2898 127.511L58.6785 126.11Z" fill="#A08BE8"/>
<path d="M57.6971 150.05L28.3765 152.166L27.4814 139.767L56.8021 137.65L57.6971 150.05Z" fill="#D0C5F3"/>
<path d="M42.6723 138.651L43.5674 151.051L42.1165 151.155L41.2214 138.756L42.6723 138.651Z" fill="#A08BE8"/>
<path d="M21.338 157.161C14.7334 157.161 9.37922 151.807 9.37922 145.202C9.37922 138.598 14.7334 133.244 21.338 133.244C27.9427 133.244 33.2969 138.598 33.2969 145.202C33.2969 151.807 27.9427 157.161 21.338 157.161Z" fill="#927BE5"/>
<path d="M55.8035 136.817L67.4302 141.427C67.4302 141.427 65.8203 149.234 57.6949 150.036C55.8215 142.188 54.7711 137.777 54.7711 137.777L55.8035 136.817Z" fill="#A08BE8"/>
<path d="M45.5307 172.048L89.2148 141.077L85.4572 135.778L41.773 166.749C40.6865 167.517 39.1776 167.261 38.4088 166.175L27.5437 150.852L22.2447 154.609L33.1098 169.932C35.9506 173.939 41.5239 174.888 45.5307 172.048Z" fill="#F7B548"/>
<path d="M26.2154 161.013L32.4963 156.558C33.7885 155.642 34.0917 153.855 33.1749 152.563L16.2925 128.75C15.3756 127.457 13.5888 127.154 12.2965 128.071L6.01575 132.525C4.72349 133.442 4.42028 135.229 5.33713 136.521L22.2195 160.334C23.1364 161.626 24.9232 161.93 26.2154 161.013Z" fill="#605D5A"/>
<path d="M22.9879 159.035L29.3589 154.357C31.2432 152.974 31.6475 150.325 30.265 148.44L28.5467 146.105C27.1642 144.221 24.5147 143.816 22.6305 145.199L16.2595 149.877C14.3752 151.259 13.9709 153.909 15.3534 155.793L17.0716 158.129C18.4578 160.013 21.1036 160.421 22.9879 159.035Z" fill="#D0C5F3"/>
<path d="M15.6207 155.436L21.9917 150.758C23.876 149.375 24.2803 146.726 22.8978 144.842L21.1796 142.506C19.7971 140.622 17.1476 140.218 15.2634 141.6L8.89229 146.278C7.00804 147.661 6.60375 150.31 7.98626 152.194L9.70446 154.53C11.0906 156.414 13.7365 156.818 15.6207 155.436Z" fill="#D0C5F3"/>
<path d="M8.45563 151.797L14.8267 147.119C16.7109 145.737 17.1152 143.087 15.7327 141.203L14.0145 138.868C12.632 136.983 9.98252 136.579 8.09827 137.961L1.72725 142.64C-0.157 144.022 -0.561285 146.672 0.821217 148.556L2.53942 150.891C3.92553 152.776 6.57138 153.183 8.45563 151.797Z" fill="#D0C5F3"/>
<path d="M67.9285 133.009C55.1864 122.321 49.9451 110.279 49.9451 110.279L46.8589 112.474L46.7398 112.47C34.0482 85.2566 42.1663 52.0224 67.517 33.9994C96.0767 13.695 135.689 20.3873 155.994 48.947C176.298 77.5067 169.606 117.119 141.046 137.424C118.511 153.447 89.0956 152.653 67.7119 137.575C66.8961 136.871 65.824 135.323 67.9285 133.009Z" fill="url(#paint12_radial)"/>
<path d="M68.2097 138.117C68.2097 138.117 64.8166 136.38 67.7945 133.099C55.2076 122.541 49.9448 110.672 49.8148 110.384L103.465 72.2402C103.465 72.2402 106.602 69.4933 108.797 72.5795C110.991 75.6658 117.067 84.4806 123.925 94.1293C125.336 96.1146 124.391 98.2262 123.113 99.1359L68.0183 138.304C68.1411 138.189 68.2097 138.117 68.2097 138.117Z" fill="url(#paint13_radial)"/>
<path d="M93.5244 114.748C93.5244 114.748 85.464 114.333 83.9227 114.293C82.3814 114.253 81.4681 114.838 81.1144 116.289C80.7606 117.74 78.4685 125.454 78.4685 125.454L93.5244 114.748Z" fill="#A08BE8"/>
<path d="M68.2102 138.117C68.2102 138.117 64.8171 136.38 67.7951 133.099C67.7806 133.088 67.7698 133.078 67.7554 133.067L120.514 95.5587C121.742 94.6852 122.799 92.8298 122.092 91.5448C122.694 92.4003 123.308 93.263 123.929 94.1329C125.21 95.9342 124.546 97.8364 123.46 98.8508C123.348 98.9518 123.24 99.0493 123.117 99.1359L119.511 101.699L68.0225 138.304C68.1416 138.189 68.2102 138.117 68.2102 138.117Z" fill="url(#paint14_radial)"/>
<path d="M78.2701 143.629L167.443 80.2321C167.858 85.0546 167.718 89.8951 167.039 94.6599L92.0265 147.989C87.3051 147.061 82.6883 145.607 78.2701 143.629Z" fill="#D0C5F3"/>
<path d="M71.0259 26.2242L60.8683 33.0934L55.248 21.6941L62.5432 16.7633L71.0259 26.2242Z" fill="#D0C5F3"/>
<path d="M53.8403 23.2824C47.411 23.2824 42.1991 18.0704 42.1991 11.6412C42.1991 5.21193 47.411 0 53.8403 0C60.2695 0 65.4814 5.21193 65.4814 11.6412C65.4814 18.0704 60.2695 23.2824 53.8403 23.2824Z" fill="url(#paint15_radial)"/>
<path d="M79.2196 29.9711C79.678 29.6607 79.7755 29.0182 79.4181 28.5958C75.6207 24.1379 68.997 23.1524 64.0337 26.5094C59.0704 29.8664 57.5183 36.3783 60.24 41.5654C60.4962 42.0563 61.1315 42.2043 61.59 41.8938L79.2196 29.9711Z" fill="url(#paint16_radial)"/>
<path d="M95.2042 95.7878C92.5899 91.9918 92.3007 87.6541 94.5583 86.0993C96.8159 84.5445 100.765 86.3614 103.38 90.1575C105.994 93.9536 106.283 98.2913 104.026 99.8461C101.768 101.401 97.8184 99.5839 95.2042 95.7878Z" fill="#512BD4"/>
<path d="M62.7053 119.041C59.979 115.325 59.5606 110.998 61.7708 109.376C63.981 107.755 67.9828 109.453 70.7091 113.17C73.4354 116.886 73.8538 121.213 71.6436 122.834C69.4334 124.456 65.4316 122.757 62.7053 119.041Z" fill="#512BD4"/>
<path d="M96.9034 89.5523C95.4884 89.314 94.1167 89.74 93.1096 90.6063C93.319 92.2415 94.0193 94.0752 95.2069 95.797C95.9469 96.8691 96.7951 97.7787 97.6795 98.5042C99.2136 97.9592 100.419 96.6236 100.712 94.9018C101.134 92.375 99.4302 89.9782 96.9034 89.5523Z" fill="#8065E0"/>
<path d="M64.1887 112.477C62.7737 112.239 61.3984 112.669 60.3914 113.535C60.5791 115.26 61.3587 117.228 62.6943 119.05C63.3765 119.982 64.1382 120.783 64.936 121.44C66.4845 120.902 67.7009 119.559 67.9933 117.827C68.4193 115.3 66.7155 112.903 64.1887 112.477Z" fill="#8065E0"/>
<path d="M80.3996 41.3018C93.3583 34.5987 108.501 33.5375 122.228 38.3022L125.401 33.1404C109.822 27.3433 92.4667 28.3828 77.6743 36.0317C76.2196 36.7825 75.6493 38.5729 76.4038 40.0276C77.1546 41.4823 78.9449 42.0527 80.3996 41.3018Z" fill="url(#paint17_linear)"/>
<path d="M94.4956 152.635L204.349 74.0378C206.529 72.4784 207.027 69.4499 205.468 67.2697L198.443 57.4658C196.884 55.2892 193.855 54.7911 191.679 56.3504L73.5847 140.788C70.4443 143.037 71.1915 145.946 74.7976 147.325L89.9437 153.219C91.4634 153.801 93.1744 153.58 94.4956 152.635Z" fill="#E86E58"/>
<path d="M73.5849 140.791L191.679 56.3541C193.855 54.7947 196.884 55.2928 198.443 57.4695L199.328 58.704C197.801 58.0109 195.96 58.1264 194.498 59.1732L76.4041 143.611C74.8375 144.733 74.2382 146.018 74.4801 147.199C71.1484 145.773 70.5383 142.972 73.5849 140.791Z" fill="#EE8F94"/>
<path d="M89.7619 131.408L106.451 119.543L116.944 134.302L100.255 146.167L89.7619 131.408Z" fill="#512BD4"/>
<path d="M99.7114 138.802C99.5976 138.876 99.4805 138.902 99.3497 138.881C99.2228 138.857 99.121 138.795 99.0496 138.685C98.9808 138.579 98.9549 138.462 98.9823 138.332C99.0098 138.203 99.0785 138.102 99.1897 138.024C99.3035 137.951 99.4245 137.922 99.5514 137.946C99.6822 137.967 99.7865 138.033 99.8554 138.139C99.9242 138.245 99.9436 138.361 99.9162 138.49C99.8977 138.625 99.8252 138.728 99.7114 138.802Z" fill="white"/>
<path d="M104.128 135.743L103.402 136.231L99.464 134.497C99.3646 134.456 99.2718 134.399 99.183 134.34L99.1673 134.35C99.2416 134.43 99.3757 134.611 99.5683 134.899L101.376 137.587L100.736 138.019L97.981 133.915L98.754 133.396L102.579 135.103C102.741 135.171 102.848 135.224 102.899 135.252L102.911 135.244C102.82 135.147 102.689 134.97 102.514 134.71L100.738 132.062L101.374 131.633L104.128 135.743Z" fill="white"/>
<path d="M107.256 133.644L105.011 135.153L102.256 131.049L104.41 129.599L104.798 130.179L103.307 131.181L104.089 132.342L105.465 131.42L105.85 131.996L104.474 132.917L105.289 134.129L106.87 133.069L107.256 133.644Z" fill="white"/>
<path d="M108.079 127.975L106.93 128.749L109.298 132.273L108.635 132.72L106.267 129.196L105.122 129.968L104.735 129.388L107.693 127.399L108.079 127.975Z" fill="white"/>
<path d="M202.605 33.8118L200.071 45.2364C188.101 42.5797 177.63 43.1608 168.948 46.9618C161.31 50.3043 154.849 56.2242 149.745 64.5589L139.764 58.4441C149.258 42.9551 167.862 26.1051 202.605 33.8118Z" fill="url(#paint18_linear)"/>
<path d="M154.867 41.5274L161.754 50.7964L160.67 51.6015L153.783 42.3325L154.867 41.5274Z" fill="#A08BE8"/>
<path d="M207.041 43.6193L213.91 52.2031C215.726 54.5024 215.333 57.8377 213.03 59.6534C210.73 61.4691 207.395 61.0756 205.579 58.7726L198.537 49.9687L207.041 43.6193Z" fill="#D0C5F3"/>
<path d="M206.514 32.6675L217.509 32.7686C220.44 32.8155 222.776 35.2303 222.729 38.1578C222.682 41.0888 220.267 43.4243 217.34 43.3774L206.067 43.2727L206.514 32.6675Z" fill="#D0C5F3"/>
<path d="M206.453 40.3092L217.44 40.6882C220.368 40.8109 222.642 43.28 222.519 46.2074C222.396 49.1348 219.927 51.4089 217 51.2862L205.731 50.8964L206.453 40.3092Z" fill="#D0C5F3"/>
<path d="M202.598 28.6175L213.401 26.5744C216.286 26.051 219.047 27.9605 219.57 30.8446C220.094 33.7288 218.184 36.4902 215.3 37.0136L204.222 39.1108L202.598 28.6175Z" fill="#D0C5F3"/>
<path d="M201.338 50.6328C195.204 50.6328 190.231 45.6601 190.231 39.5259C190.231 33.3917 195.204 28.4189 201.338 28.4189C207.472 28.4189 212.445 33.3917 212.445 39.5259C212.445 45.6601 207.472 50.6328 201.338 50.6328Z" fill="url(#paint19_radial)"/>
<path d="M167.252 35.1347L171.785 45.7548L170.544 46.2848L166.01 35.6647L167.252 35.1347Z" fill="#A08BE8"/>
<path d="M181.469 32.2125L182.256 43.7333L180.909 43.8252L180.123 32.3044L181.469 32.2125Z" fill="#A08BE8"/>
<path d="M142.551 73.0127C136.116 73.0127 130.899 67.796 130.899 61.3607C130.899 54.9255 136.116 49.7087 142.551 49.7087C148.986 49.7087 154.203 54.9255 154.203 61.3607C154.203 67.796 148.986 73.0127 142.551 73.0127Z" fill="url(#paint20_radial)"/>
<defs>
<linearGradient id="paint0_linear" x1="235.764" y1="351.52" x2="219.288" y2="126.171" gradientUnits="userSpaceOnUse">
<stop stop-color="white" stop-opacity="0"/>
<stop offset="0.9936" stop-color="#FAE969"/>
</linearGradient>
<linearGradient id="paint1_linear" x1="261.733" y1="335.374" x2="245.256" y2="110.025" gradientUnits="userSpaceOnUse">
<stop stop-color="white" stop-opacity="0"/>
<stop offset="0.9936" stop-color="#FAE969"/>
</linearGradient>
<linearGradient id="paint2_linear" x1="174.384" y1="129.141" x2="162.381" y2="129.141" gradientUnits="userSpaceOnUse">
<stop offset="0.0607" stop-color="#797673"/>
<stop offset="0.8227" stop-color="#605D5A"/>
</linearGradient>
<radialGradient id="paint3_radial" cx="0" cy="0" r="1" gradientUnits="userSpaceOnUse" gradientTransform="translate(200.944 109.674) rotate(180) scale(16.5209)">
<stop stop-color="#797673"/>
<stop offset="0.6238" stop-color="#605D5A"/>
</radialGradient>
<linearGradient id="paint4_linear" x1="130.462" y1="131.929" x2="150.817" y2="181.385" gradientUnits="userSpaceOnUse">
<stop offset="0.2319" stop-color="#958FE7"/>
<stop offset="0.4062" stop-color="#BBB7EF"/>
</linearGradient>
<linearGradient id="paint5_linear" x1="192.984" y1="224.779" x2="177.425" y2="208.409" gradientUnits="userSpaceOnUse">
<stop stop-color="#958FE7"/>
<stop offset="1" stop-color="#BBB7EF"/>
</linearGradient>
<radialGradient id="paint6_radial" cx="0" cy="0" r="1" gradientUnits="userSpaceOnUse" gradientTransform="translate(158.945 169.685) rotate(180) scale(12.7064)">
<stop stop-color="#8065E0"/>
<stop offset="1" stop-color="#512BD4"/>
</radialGradient>
<radialGradient id="paint7_radial" cx="0" cy="0" r="1" gradientUnits="userSpaceOnUse" gradientTransform="translate(127.884 -13.8536) rotate(161.344) scale(71.8388)">
<stop stop-color="#E3646A"/>
<stop offset="0.8525" stop-color="#F6B249"/>
</radialGradient>
<linearGradient id="paint8_linear" x1="152.239" y1="119.263" x2="169.546" y2="169.869" gradientUnits="userSpaceOnUse">
<stop offset="0.2368" stop-color="#958FE7"/>
<stop offset="0.3837" stop-color="#BBB7EF"/>
</linearGradient>
<linearGradient id="paint9_linear" x1="183.853" y1="211.344" x2="206.709" y2="205.939" gradientUnits="userSpaceOnUse">
<stop stop-color="#958FE7"/>
<stop offset="0.9957" stop-color="#BBB7EF"/>
</linearGradient>
<radialGradient id="paint10_radial" cx="0" cy="0" r="1" gradientUnits="userSpaceOnUse" gradientTransform="translate(178.356 155.662) rotate(180) scale(18.2113)">
<stop stop-color="#8065E0"/>
<stop offset="0.0233" stop-color="#7D62DF"/>
<stop offset="0.2367" stop-color="#6A4ADA"/>
<stop offset="0.4623" stop-color="#5C39D7"/>
<stop offset="0.7058" stop-color="#542ED5"/>
<stop offset="1" stop-color="#512BD4"/>
</radialGradient>
<linearGradient id="paint11_linear" x1="71.494" y1="115.772" x2="57.8128" y2="139.468" gradientUnits="userSpaceOnUse">
<stop offset="0.2699" stop-color="#958FE7"/>
<stop offset="0.8454" stop-color="#BBB7EF"/>
</linearGradient>
<radialGradient id="paint12_radial" cx="0" cy="0" r="1" gradientUnits="userSpaceOnUse" gradientTransform="translate(84.2922 87.1001) rotate(144.59) scale(79.975)">
<stop offset="0.3472" stop-color="#A08BE8"/>
<stop offset="0.684" stop-color="#8065E0"/>
<stop offset="0.7596" stop-color="#8065E0"/>
</radialGradient>
<radialGradient id="paint13_radial" cx="0" cy="0" r="1" gradientUnits="userSpaceOnUse" gradientTransform="translate(93.6085 81.186) rotate(180) scale(54.457)">
<stop offset="0.0933" stop-color="#E1DFDD"/>
<stop offset="0.6573" stop-color="white"/>
</radialGradient>
<radialGradient id="paint14_radial" cx="0" cy="0" r="1" gradientUnits="userSpaceOnUse" gradientTransform="translate(110.598 107.497) rotate(180) scale(34.2019)">
<stop offset="0.1574" stop-color="#512BD4"/>
<stop offset="0.9968" stop-color="#8065E0"/>
</radialGradient>
<radialGradient id="paint15_radial" cx="0" cy="0" r="1" gradientUnits="userSpaceOnUse" gradientTransform="translate(48.1131 7.9854) rotate(140.987) scale(14.8017)">
<stop offset="0.186" stop-color="#A08BE8"/>
<stop offset="0.684" stop-color="#8065E0"/>
<stop offset="0.8157" stop-color="#8065E0"/>
</radialGradient>
<radialGradient id="paint16_radial" cx="0" cy="0" r="1" gradientUnits="userSpaceOnUse" gradientTransform="translate(66.3163 29.1006) rotate(180) scale(9.60066)">
<stop stop-color="#8065E0"/>
<stop offset="1" stop-color="#512BD4"/>
</radialGradient>
<linearGradient id="paint17_linear" x1="116.776" y1="46.6364" x2="83.077" y2="25.9095" gradientUnits="userSpaceOnUse">
<stop stop-color="#8065E0"/>
<stop offset="0.4307" stop-color="#A08BE8"/>
</linearGradient>
<linearGradient id="paint18_linear" x1="150.906" y1="69.5883" x2="194.643" y2="25.8513" gradientUnits="userSpaceOnUse">
<stop offset="0.2368" stop-color="#958FE7"/>
<stop offset="0.3837" stop-color="#BBB7EF"/>
</linearGradient>
<radialGradient id="paint19_radial" cx="0" cy="0" r="1" gradientUnits="userSpaceOnUse" gradientTransform="translate(200.223 35.12) rotate(180) scale(20.7427)">
<stop offset="0.186" stop-color="#A08BE8"/>
<stop offset="0.684" stop-color="#8065E0"/>
<stop offset="0.8157" stop-color="#8065E0"/>
</radialGradient>
<radialGradient id="paint20_radial" cx="0" cy="0" r="1" gradientUnits="userSpaceOnUse" gradientTransform="translate(139.276 59.7372) rotate(180) scale(11.6547)">
<stop stop-color="#8065E0"/>
<stop offset="1" stop-color="#512BD4"/>
</radialGradient>
</defs>
</svg>
