<svg width="169" height="205" viewBox="0 0 169 205" fill="none" xmlns="http://www.w3.org/2000/svg">
<path d="M54.7882 97.97L54.9597 87.9036C42.0041 87.6897 32.3956 83.9274 26.4085 76.7173C15.5572 63.6519 19.3672 43.3471 19.4101 43.1416L9.30874 41.2499C9.1116 42.2692 4.59022 66.4034 18.4286 83.0633C26.4214 92.6894 38.657 97.7058 54.7882 97.97Z" fill="#8A6FE8"/>
<path d="M35.7599 43.8085L23.7986 53.5604C21.6686 55.2968 18.5015 55.0158 16.723 52.9312C14.9487 50.8466 15.2358 47.747 17.3658 46.0063L29.3271 36.2545C31.4571 34.518 34.6242 34.7991 36.4027 36.8837C38.177 38.9724 37.8898 42.0721 35.7599 43.8085Z" fill="#8A6FE8"/>
<path d="M5.6402 47.2185L1.33739 37.8777C0.210259 35.3821 1.36311 32.4628 3.91308 31.3555C6.46305 30.2524 9.44587 31.3807 10.5773 33.8763L14.9872 43.4562L5.6402 47.2185Z" fill="#8A6FE8"/>
<path d="M7.96735 42.1685L8.01877 28.0378C8.0402 25.3073 10.3159 23.1094 13.1059 23.1304C15.8958 23.1514 18.1415 25.3786 18.1201 28.1091L18.1158 38.6159L7.96735 42.1685Z" fill="#8A6FE8"/>
<path d="M13.9373 43.6953L17.2672 29.9336C17.9058 27.2744 20.6229 25.626 23.34 26.251C26.0571 26.8759 27.7414 29.5352 27.1028 32.1944L23.7129 46.2077L13.9373 43.6953Z" fill="#8A6FE8"/>
<path d="M15.8101 56.7019C9.97092 56.7019 5.23734 52.0692 5.23734 46.3545C5.23734 40.6397 9.97092 36.007 15.8101 36.007C21.6492 36.007 26.3828 40.6397 26.3828 46.3545C26.3828 52.0692 21.6492 56.7019 15.8101 56.7019Z" fill="url(#paint0_radial)"/>
<path d="M69.2695 160.441C69.1709 151.721 70.4395 134.02 79.6365 119.198L88.6278 124.541C80.2836 137.984 79.6579 153.675 79.8508 160.52C79.8679 161.087 74.4766 161.598 69.2695 160.441Z" fill="url(#paint1_linear)"/>
<path d="M79.8508 160.424L71.5237 160.386L63.7495 203.974L80.4636 204.049C81.7365 204.053 82.7007 203.051 82.615 201.805L79.8508 160.424Z" fill="#522CD5"/>
<path d="M45.9255 192.511C44.4812 193.626 44.507 195.241 44.6184 196.944L44.9655 202.166C45.0298 203.101 45.8612 203.869 46.8169 203.873L64.2382 203.953C65.3224 203.957 66.141 203.101 66.0681 202.044L65.9524 196.634C65.8196 194.666 66.4967 193.945 68.0524 192.091C70.7181 188.924 78.5994 171.665 77.8494 160.42L69.2738 160.382C68.6995 167.055 59.6996 181.878 45.9255 192.511Z" fill="url(#paint2_linear)"/>
<path d="M44.6226 196.944C44.5412 195.753 44.5197 194.612 44.9954 193.647L66.7195 193.744C66.1195 194.608 65.8666 195.363 65.9481 196.625L66.0638 202.036C66.1366 203.097 65.3138 203.953 64.2338 203.944L46.8169 203.869C45.8611 203.865 45.0297 203.097 44.9654 202.162L44.6226 196.944Z" fill="url(#paint3_radial)"/>
<path d="M115.203 160.634C115.383 151.913 114.278 134.201 105.218 119.298L96.1749 124.562C104.395 138.081 104.875 153.776 104.618 160.617C104.596 161.187 109.988 161.749 115.203 160.634Z" fill="url(#paint4_linear)"/>
<path d="M124.315 195.778C124.327 194.616 124.152 193.593 123.65 191.89C115.872 171.082 115.216 160.592 115.216 160.592L104.613 160.545C104.613 160.545 103.885 170.838 95.9177 191.575C95.2878 193.052 95.2149 194.402 95.1335 195.652L95.0863 202.309C95.082 203.311 95.9177 204.137 96.942 204.141L97.4563 204.146L121.919 204.255L122.433 204.259C123.462 204.263 124.302 203.449 124.306 202.443L124.315 195.778Z" fill="url(#paint5_linear)"/>
<path d="M124.314 195.778C124.314 195.589 124.31 195.405 124.302 195.224C124.246 194.645 123.976 193.995 122.682 193.987L96.5219 193.87C95.5791 193.903 95.2662 194.612 95.1677 195.057C95.1548 195.254 95.1377 195.455 95.1248 195.648L95.0777 202.304C95.0734 202.933 95.3991 203.487 95.8962 203.818C96.1919 204.016 96.5519 204.133 96.9334 204.137L97.4476 204.141L121.91 204.251L122.42 204.255C122.934 204.259 123.402 204.053 123.74 203.726C124.079 203.399 124.289 202.942 124.293 202.439L124.314 195.778Z" fill="url(#paint6_radial)"/>
<path d="M42.5569 97.4919C38.8798 83.4073 41.3441 72.1874 41.3441 72.1874L37.9627 72.1706L37.8813 72.1077C42.8441 46.3125 66.0424 26.8549 93.8221 26.9808C125.116 27.1192 150.371 52.0629 150.23 82.69C150.089 113.317 124.602 138.034 93.3078 137.896C68.6138 137.787 47.6826 122.23 40.0241 100.625C39.797 99.7065 39.827 98.0623 42.5569 97.4919Z" fill="url(#paint7_radial)"/>
<path d="M44.4555 110.301L142.302 110.738C140.09 114.374 137.467 117.738 134.497 120.775L52.1697 120.41C49.2212 117.344 46.6326 113.959 44.4555 110.301Z" fill="#D8CFF7"/>
<path d="M74.557 123.531L56.1929 123.449L56.2668 107.553L74.6309 107.634L74.557 123.531Z" fill="#512BD4"/>
<path d="M59.407 117.519C59.2827 117.519 59.1799 117.481 59.0941 117.401C59.0084 117.322 58.9656 117.221 58.9656 117.112C58.9656 116.999 59.0084 116.898 59.0941 116.818C59.1799 116.734 59.2827 116.697 59.407 116.697C59.5313 116.697 59.6341 116.739 59.7198 116.818C59.8056 116.898 59.8527 116.999 59.8527 117.112C59.8527 117.225 59.8098 117.322 59.7241 117.401C59.6341 117.477 59.5313 117.519 59.407 117.519Z" fill="white"/>
<path d="M64.2884 117.444H63.4955L61.3955 114.218C61.3441 114.138 61.297 114.05 61.2627 113.962H61.2455C61.2627 114.054 61.2712 114.256 61.2712 114.566L61.2755 117.448H60.5727L60.5641 113.052H61.4084L63.4355 116.202C63.5212 116.332 63.5769 116.424 63.6026 116.47H63.6155C63.5941 116.353 63.5855 116.156 63.5855 115.879L63.5812 113.048H64.2798L64.2884 117.444Z" fill="white"/>
<path d="M67.7084 117.435L65.2484 117.439L65.2398 113.044L67.6012 113.039V113.66L65.9684 113.664L65.9727 114.91L67.4769 114.906V115.522L65.9727 115.527L65.9769 116.827L67.7084 116.823V117.435Z" fill="white"/>
<path d="M71.1968 113.652L69.9369 113.656L69.9454 117.431H69.2169L69.2083 113.656L67.9526 113.66V113.039L71.1926 113.031L71.1968 113.652Z" fill="white"/>
<path d="M42.437 97.4877C38.8027 83.5751 41.1641 72.4642 41.2241 72.1958L100.015 72.4559C100.015 72.4559 103.722 72.1035 103.705 75.4171C103.688 78.7264 103.508 88.084 103.461 98.4314C103.452 100.558 101.665 101.577 100.263 101.569C100.259 101.569 43.9027 99.7904 42.437 97.4877Z" fill="url(#paint8_radial)"/>
<path d="M77.5108 97.668C77.5108 97.668 68.5023 90.6257 66.7452 89.3213C64.9881 88.0169 63.4452 87.9414 61.821 89.3003C60.1967 90.6593 51.1111 97.5506 51.1111 97.5506L77.5108 97.668Z" fill="#A08BE8"/>
<path d="M40.2469 101.33C40.2469 101.33 38.567 98.3014 42.4369 97.4919C42.4326 97.4751 100.238 97.7058 100.238 97.7058C101.583 97.71 103.319 96.934 103.473 95.6589C103.469 96.5733 103.461 97.5003 103.456 98.4356C103.448 100.365 101.978 101.38 100.658 101.548C100.525 101.56 100.392 101.577 100.259 101.577L96.3078 101.56L40.2469 101.33Z" fill="#512BD4"/>
<path d="M86.0337 92.345C83.5868 92.2983 81.6682 88.9954 81.7485 84.9679C81.8288 80.9404 83.8774 77.7133 86.3243 77.76C88.7712 77.8067 90.6898 81.1095 90.6095 85.137C90.5292 89.1646 88.4806 92.3917 86.0337 92.345Z" fill="#512BD4"/>
<path d="M46.0524 84.9198C46.0096 80.8919 47.9587 77.6064 50.4058 77.5815C52.853 77.5566 54.8715 80.8017 54.9143 84.8296C54.9571 88.8576 53.008 92.1431 50.5609 92.168C48.1137 92.1929 46.0952 88.9478 46.0524 84.9198Z" fill="#512BD4"/>
<path d="M86.2321 81.4024C85.3321 80.5132 84.115 80.1189 82.9278 80.2154C82.225 81.4821 81.7836 83.143 81.745 84.9676C81.7236 86.1084 81.865 87.1822 82.1264 88.1511C83.5236 88.5453 85.0921 88.2098 86.2021 87.136C87.8306 85.5632 87.8435 82.992 86.2321 81.4024Z" fill="#8065E0"/>
<path d="M50.5583 81.0081C49.654 80.1189 48.4369 79.7205 47.2498 79.8211C46.4869 81.1424 46.0283 82.9375 46.0498 84.9089C46.0626 85.9155 46.1955 86.876 46.4312 87.7484C47.8369 88.1553 49.4183 87.8239 50.5326 86.7418C52.1568 85.1647 52.1697 82.5978 50.5583 81.0081Z" fill="#8065E0"/>
<path d="M164.021 140.861C164.308 139.96 170.973 118.573 160.143 102.412C153.886 93.0753 143.33 87.5723 128.772 86.0497L127.657 96.2881C138.912 97.4626 146.87 101.409 151.319 108.016C159.431 120.062 154.036 137.615 153.98 137.791L164.021 140.861Z" fill="url(#paint9_linear)"/>
<path d="M130.58 100.021C124.833 100.021 120.175 95.4616 120.175 89.8372C120.175 84.2128 124.833 79.6533 130.58 79.6533C136.327 79.6533 140.986 84.2128 140.986 89.8372C140.986 95.4616 136.327 100.021 130.58 100.021Z" fill="url(#paint10_radial)"/>
<path d="M139.846 132.011L155.278 130.002C158.03 129.646 160.554 131.533 160.923 134.226C161.287 136.919 159.358 139.389 156.607 139.75L141.174 141.759C138.423 142.116 135.899 140.228 135.53 137.535C135.166 134.843 137.099 132.368 139.846 132.011Z" fill="#8A6FE8"/>
<path d="M167.184 144.846L165.736 154.992C165.328 157.693 162.766 159.56 160.006 159.166C157.246 158.767 155.339 156.259 155.741 153.558L157.228 143.151L167.184 144.846Z" fill="#8A6FE8"/>
<path d="M162.466 147.904L154.726 159.832C153.221 162.131 150.097 162.802 147.749 161.33C145.4 159.858 144.714 156.8 146.219 154.501L151.944 145.614L162.466 147.904Z" fill="#8A6FE8"/>
<path d="M158.248 143.495L147.937 153.402C145.949 155.319 142.752 155.294 140.793 153.348C138.834 151.402 138.86 148.273 140.844 146.356L151.344 136.269L158.248 143.495Z" fill="#8A6FE8"/>
<path d="M158.107 150.617C152.268 150.617 147.534 145.985 147.534 140.27C147.534 134.555 152.268 129.923 158.107 129.923C163.946 129.923 168.68 134.555 168.68 140.27C168.68 145.985 163.946 150.617 158.107 150.617Z" fill="url(#paint11_radial)"/>
<path d="M94.7106 25.8878L105.487 27.0472L105.189 16.0556L97.4506 15.2235L94.7106 25.8878Z" fill="#8A6FE8"/>
<path d="M100.602 17.2727C96.4223 16.4396 93.7244 12.4483 94.5757 8.35805C95.427 4.26776 99.5051 1.62731 103.684 2.46046C107.864 3.2936 110.562 7.28483 109.71 11.3751C108.859 15.4654 104.781 18.1059 100.602 17.2727Z" fill="#D8CFF7"/>
<path d="M89.8437 32.0617C89.3564 32.0073 89.0176 31.5546 89.1235 31.0877C90.2576 26.143 95.0339 22.7162 100.299 23.2864C105.565 23.8525 109.464 28.2167 109.472 33.2822C109.473 33.7618 109.038 34.1288 108.55 34.0785L89.8437 32.0617Z" fill="url(#paint12_radial)"/>
<defs>
<radialGradient id="paint0_radial" cx="0" cy="0" r="1" gradientUnits="userSpaceOnUse" gradientTransform="translate(15.7189 41.4953) rotate(180) scale(10.5733 10.348)">
<stop stop-color="#8065E0"/>
<stop offset="1" stop-color="#512BD4"/>
</radialGradient>
<linearGradient id="paint1_linear" x1="82.8146" y1="119.882" x2="74.2611" y2="161.505" gradientUnits="userSpaceOnUse">
<stop stop-color="#522CD5"/>
<stop offset="0.4397" stop-color="#8A6FE8"/>
</linearGradient>
<linearGradient id="paint2_linear" x1="75.9139" y1="159.33" x2="50.2915" y2="206.005" gradientUnits="userSpaceOnUse">
<stop stop-color="#522CD5"/>
<stop offset="0.4397" stop-color="#8A6FE8"/>
</linearGradient>
<radialGradient id="paint3_radial" cx="0" cy="0" r="1" gradientUnits="userSpaceOnUse" gradientTransform="translate(56.18 184.963) rotate(-179.745) scale(18.3521 17.961)">
<stop offset="0.034" stop-color="#522CD5"/>
<stop offset="0.9955" stop-color="#8A6FE8"/>
</radialGradient>
<linearGradient id="paint4_linear" x1="102.186" y1="119.885" x2="110.368" y2="161.578" gradientUnits="userSpaceOnUse">
<stop stop-color="#522CD5"/>
<stop offset="0.4397" stop-color="#8A6FE8"/>
</linearGradient>
<linearGradient id="paint5_linear" x1="109.923" y1="160.567" x2="109.729" y2="204.194" gradientUnits="userSpaceOnUse">
<stop stop-color="#522CD5"/>
<stop offset="0.4397" stop-color="#8A6FE8"/>
</linearGradient>
<radialGradient id="paint6_radial" cx="0" cy="0" r="1" gradientUnits="userSpaceOnUse" gradientTransform="translate(109.166 185.147) rotate(0.255186) scale(20.12 19.6913)">
<stop offset="0.034" stop-color="#522CD5"/>
<stop offset="0.9955" stop-color="#8A6FE8"/>
</radialGradient>
<radialGradient id="paint7_radial" cx="0" cy="0" r="1" gradientUnits="userSpaceOnUse" gradientTransform="translate(80.901 61.2742) rotate(0.255186) scale(56.4325 55.2301)">
<stop offset="0.4744" stop-color="#A08BE8"/>
<stop offset="0.8618" stop-color="#8065E0"/>
</radialGradient>
<radialGradient id="paint8_radial" cx="0" cy="0" r="1" gradientUnits="userSpaceOnUse" gradientTransform="translate(42.6042 63.159) rotate(0.255186) scale(58.4822 57.236)">
<stop offset="0.0933" stop-color="#E1DFDD"/>
<stop offset="0.6573" stop-color="white"/>
</radialGradient>
<linearGradient id="paint9_linear" x1="146.983" y1="86.0531" x2="146.983" y2="140.863" gradientUnits="userSpaceOnUse">
<stop offset="0.3344" stop-color="#9780E6"/>
<stop offset="0.8488" stop-color="#8A6FE8"/>
</linearGradient>
<radialGradient id="paint10_radial" cx="0" cy="0" r="1" gradientUnits="userSpaceOnUse" gradientTransform="translate(132.502 86.4104) rotate(-179.745) scale(10.4078 10.186)">
<stop stop-color="#8065E0"/>
<stop offset="1" stop-color="#512BD4"/>
</radialGradient>
<radialGradient id="paint11_radial" cx="0" cy="0" r="1" gradientUnits="userSpaceOnUse" gradientTransform="translate(158.347 136.169) rotate(180) scale(10.5753 10.3499)">
<stop stop-color="#8065E0"/>
<stop offset="1" stop-color="#512BD4"/>
</radialGradient>
<radialGradient id="paint12_radial" cx="0" cy="0" r="1" gradientUnits="userSpaceOnUse" gradientTransform="translate(100.964 27.3517) rotate(-148.351) scale(8.38904 8.30978)">
<stop stop-color="#8065E0"/>
<stop offset="1" stop-color="#512BD4"/>
</radialGradient>
</defs>
</svg>
