<svg width="237" height="305" viewBox="0 0 237 305" fill="none" xmlns="http://www.w3.org/2000/svg">
<path d="M160.649 37.2444C160.815 31.694 152.98 29.4598 149.915 32.8212L121.384 67.4267C119.582 69.6056 121.525 70.9441 123.703 72.7456C125.882 74.5471 127.467 76.1372 129.274 73.9583L149.86 48.9339L149.246 62.1229C149.115 64.9509 151.299 67.3462 154.122 67.477C156.945 67.6079 159.345 65.4239 159.476 62.601L160.649 37.3652C160.654 37.3249 160.649 37.2847 160.649 37.2444Z" fill="url(#paint0_linear)"/>
<path d="M152.048 95.6614L171.87 99.3046C171.87 99.3046 176.197 103.275 177.219 105.761C177.999 107.663 177.586 111.543 177.35 113.264C177.284 113.742 176.856 114.054 176.378 113.963L157.257 110.506C156.643 110.395 156.195 109.796 156.255 109.177C156.466 107.029 156.517 102.384 155.837 100.935C154.816 98.7662 152.048 95.6614 152.048 95.6614Z" fill="#D0C5F3"/>
<path d="M148.118 71.3313C143.298 83.6498 142.946 104.483 143.001 105.595C143.076 107.139 143.182 108.231 145.295 108.609C147.922 109.077 159.199 111.095 159.199 111.095L156.542 73.6863L148.118 71.3313Z" fill="#8065E0"/>
<path d="M159.602 75.4175C159.914 81.939 165.364 92.0031 176.364 103.481C177.652 104.825 178.261 106.103 178.115 107.733L177.647 112.947C177.576 113.716 176.907 114.23 176.147 114.099L157.136 110.702C156.598 110.607 156.205 110.088 156.256 109.545L156.794 103.532C156.96 101.66 156.678 100.628 154.907 98.9121C150.479 94.6148 148.531 82.4322 149.181 74.1343C149.83 65.8364 159.602 75.4175 159.602 75.4175Z" fill="#A08BE8"/>
<path d="M178.049 106.42C178.13 106.838 178.155 107.27 178.115 107.733L177.647 112.946C177.576 113.716 176.907 114.23 176.147 114.099L157.136 110.702C156.598 110.607 156.205 110.088 156.255 109.545L156.794 103.531C156.824 103.209 156.839 102.918 156.834 102.636L178.049 106.42Z" fill="#D0C5F3"/>
<path d="M159.194 60.0747L150.091 59.0632C147.887 58.8167 145.9 60.4118 145.658 62.6108L144.677 71.4622C144.43 73.6663 146.026 75.6539 148.225 75.8955L157.328 76.9069C159.532 77.1535 161.519 75.5583 161.761 73.3593L162.742 64.5129C162.989 62.3089 161.409 60.3263 159.194 60.0747Z" fill="url(#paint1_radial)"/>
<path d="M149.86 48.9336L149.814 49.8998L160.04 50.5137L160.1 49.1651L149.875 48.5461L149.85 48.9487L149.86 48.9336Z" fill="#A08BE8"/>
<path d="M137.763 63.6375L138.623 62.5958L130.849 55.9485L129.983 56.9952L137.763 63.6375Z" fill="#A08BE8"/>
<path d="M144.969 54.8814L145.829 53.8398L138.075 47.1824L137.214 48.229L144.969 54.8814Z" fill="#A08BE8"/>
<path d="M149.915 32.821L147.963 35.1911L149.92 48.838L160.231 34.9999C158.586 31.1503 152.527 29.9577 149.915 32.821Z" fill="#A08BE8"/>
<path d="M196.904 115.316L215.286 107.059C215.286 107.059 221.098 107.869 223.353 109.333C225.074 110.455 226.941 113.882 227.721 115.437C227.937 115.87 227.761 116.368 227.318 116.564L209.615 124.58C209.047 124.837 208.337 124.601 208.035 124.052C206.989 122.165 204.392 118.311 203.008 117.505C200.945 116.303 196.904 115.316 196.904 115.316Z" fill="#D0C5F3"/>
<path d="M179.855 97.5232C182.885 110.4 194.423 127.746 195.103 128.631C196.044 129.859 196.748 130.7 198.701 129.809C201.131 128.702 211.557 123.957 211.557 123.957L188.123 94.675L179.855 97.5232Z" fill="#8065E0"/>
<path d="M191.626 94.368C195.586 99.5611 205.786 104.749 221.36 107.945C223.182 108.317 224.41 109.026 225.215 110.45L227.791 115.005C228.173 115.679 227.912 116.484 227.212 116.801L209.635 124.802C209.137 125.028 208.518 124.827 208.252 124.349L205.283 119.091C204.357 117.455 203.537 116.766 201.106 116.358C195.022 115.337 186.503 106.415 182.321 99.2189C178.14 92.0231 191.626 94.368 191.626 94.368Z" fill="#A08BE8"/>
<path d="M224.414 109.404C224.716 109.701 224.983 110.043 225.215 110.45L227.791 115.004C228.173 115.679 227.912 116.484 227.212 116.801L209.635 124.802C209.137 125.028 208.518 124.827 208.251 124.349L205.283 119.091C205.127 118.809 204.971 118.557 204.81 118.331L224.414 109.404Z" fill="#D0C5F3"/>
<path d="M183.881 95.0172C186.493 93.6082 187.474 90.3525 186.065 87.7408L176.887 70.6721C175.75 68.5485 173.324 67.4465 170.974 67.9749L136.333 82.2257C133.44 82.8748 131.895 86.4174 132.549 89.3159C133.203 92.2143 136.077 94.0309 138.97 93.3767L169.354 79.3624L176.6 92.8383C178.009 95.4449 181.27 96.4262 183.881 95.0172Z" fill="url(#paint2_linear)"/>
<path d="M158.323 84.4399L159.551 83.8763L155.636 74.2852L154.383 74.7984L158.323 84.4399Z" fill="#A08BE8"/>
<path d="M170.974 67.9749L164.956 70.4507L168.81 79.4731L168.921 79.5486L169.354 79.3473L169.796 80.1676L169.857 80.1324L177.979 72.6899L176.892 70.662C175.749 68.5485 173.329 67.4516 170.974 67.9749Z" fill="#A08BE8"/>
<path d="M182.578 81.969L174.512 86.3067C172.559 87.3584 171.83 89.7939 172.876 91.7463L177.098 99.5863C178.15 101.539 180.585 102.268 182.538 101.222L190.604 96.884C192.557 95.8323 193.286 93.3968 192.24 91.4444L188.023 83.6044C186.966 81.652 184.536 80.9173 182.578 81.969Z" fill="url(#paint3_radial)"/>
<path d="M149.663 88.4404L145.622 78.4065L144.369 78.9198L148.435 89.009L149.663 88.4404Z" fill="#A08BE8"/>
<path d="M25.8698 17.8457L17.27 23.5269C14.9904 25.0566 14.3816 28.1463 15.9113 30.4259C17.4411 32.7054 20.5307 33.3143 22.8103 31.7845L33.2015 24.7547L25.8698 17.8457Z" fill="#D0C5F3"/>
<path d="M30.9523 7.74123L21.1146 4.66664C18.4929 3.86655 15.7101 5.34597 14.9101 7.97271C14.11 10.5994 15.5894 13.3771 18.2161 14.1772L28.3004 17.3323L30.9523 7.74123Z" fill="#D0C5F3"/>
<path d="M28.8688 14.1117L18.9606 11.2887C16.3138 10.554 13.5763 12.1039 12.8417 14.7507C12.107 17.3976 13.6568 20.135 16.3037 20.8697L26.4685 23.7682L28.8688 14.1117Z" fill="#D0C5F3"/>
<path d="M34.3235 5.64282L25.3312 0.61579C22.9259 -0.707642 19.9016 0.172968 18.5782 2.57829C17.2548 4.98362 18.1354 8.00789 20.5407 9.33132L29.7695 14.4841L34.3235 5.64282Z" fill="#D0C5F3"/>
<path d="M29.1904 11.8222C38.077 8.95891 52.6197 8.63686 64.3343 17.1712C71.4497 22.3543 79.9337 32.68 79.9388 52.4661H68.9689C68.9638 40.4596 65.1294 31.3164 57.8782 26.0377C50.0232 20.3163 39.5011 20.0143 32.5569 22.2586L29.1904 11.8222Z" fill="url(#paint4_linear)"/>
<path d="M67.3442 40.0771L77.7103 36.9673L78.0726 38.18L67.7065 41.2898L67.3442 40.0771Z" fill="#A08BE8"/>
<path d="M49.9028 22.1229L52.9221 11.7317L54.1398 12.0839L51.1206 22.4751L49.9028 22.1229Z" fill="#A08BE8"/>
<path d="M65.8944 18.384L61.0737 28.8507C61.3706 29.1677 61.6675 29.4999 61.9493 29.832L71.797 24.5735C69.9201 22.0423 67.8821 20.0094 65.8944 18.384Z" fill="#A08BE8"/>
<path d="M43.7134 18.1928C42.1384 23.723 36.3817 26.9285 30.8565 25.3585C25.3313 23.7885 22.1209 18.0318 23.6909 12.5015C25.2659 6.97635 31.0276 3.76589 36.5528 5.33589C42.078 6.9059 45.2885 12.6676 43.7134 18.1928Z" fill="url(#paint5_radial)"/>
<path d="M84.9914 49.3363C81.64 44.6414 75.1135 43.5494 70.4185 46.9008C65.7236 50.2521 64.6317 56.7787 67.983 61.4736C71.3344 66.1685 77.861 67.2605 82.5559 63.9091C87.2508 60.5578 88.3427 54.0312 84.9914 49.3363Z" fill="url(#paint6_radial)"/>
<path d="M70.3128 55.9886C56.7111 60.9552 48.851 69.2581 48.851 69.2581L46.9741 66.5459L46.8734 66.5157C28.4209 85.0286 25.2054 114.632 40.6085 136.904C57.9591 161.994 92.3683 168.264 117.453 150.908C142.543 133.558 148.813 99.1486 131.457 74.0638C117.76 54.2676 93.4502 46.1912 71.4802 52.1894C70.6197 52.5265 69.2812 53.4726 70.3128 55.9886Z" fill="url(#paint7_radial)"/>
<path d="M72.1395 52.0082C72.1395 52.0082 68.8485 52.4259 70.3179 55.9936C56.8823 60.8999 49.0574 69.0568 48.8662 69.2531L81.4639 116.383C81.4639 116.383 83.2151 119.564 85.9273 117.687C88.6396 115.81 96.228 110.4 104.702 104.538C106.443 103.33 106.297 101.327 105.522 100.2L72.0489 51.7969C72.1043 51.9327 72.1395 52.0082 72.1395 52.0082Z" fill="url(#paint8_radial)"/>
<path d="M85.9273 78.6431C85.9273 78.6431 79.2095 76.59 77.9313 76.1724C76.6582 75.7446 76.0845 74.9999 76.2254 73.7016C76.3613 72.4084 76.7739 65.4138 76.7739 65.4138L85.9273 78.6431Z" fill="#A08BE8"/>
<path d="M72.1398 52.0083C72.1398 52.0083 68.8488 52.426 70.3182 55.9937C70.3031 55.9987 70.293 56.0038 70.2729 56.0088L102.332 102.354C103.077 103.431 103.394 105.263 102.433 106.108C103.183 105.59 103.937 105.061 104.702 104.528C106.287 103.431 106.313 101.68 105.719 100.527C105.658 100.412 105.598 100.296 105.522 100.195L103.334 97.0302L72.0492 51.802C72.1046 51.9328 72.1398 52.0083 72.1398 52.0083Z" fill="url(#paint9_radial)"/>
<path d="M81.9521 50.4031L136.132 128.737C137.904 124.908 139.227 120.907 140.083 116.811L94.5071 50.9164C90.3658 50.2723 86.159 50.0962 81.9521 50.4031Z" fill="url(#paint10_radial)"/>
<path d="M78.3842 189.228L68.3754 186.772C65.7135 186.098 64.1032 183.395 64.7775 180.728C65.4518 178.066 68.154 176.456 70.821 177.131L82.9734 180.26L78.3842 189.228Z" fill="#D0C5F3"/>
<path d="M86.5613 197.042L78.3289 203.242C76.1248 204.877 73.01 204.419 71.3746 202.215C69.7391 200.011 70.1971 196.896 72.4011 195.261L80.8399 188.9L86.5613 197.042Z" fill="#D0C5F3"/>
<path d="M82.465 191.743L74.0816 197.732C71.8323 199.312 68.7376 198.773 67.1575 196.529C65.5774 194.28 66.1159 191.185 68.3602 189.605L76.9599 183.461L82.465 191.743Z" fill="#D0C5F3"/>
<path d="M90.4461 197.883L83.6628 205.637C81.8463 207.69 78.6962 207.876 76.6431 206.06C74.59 204.243 74.4039 201.093 76.2204 199.04L83.1798 191.084L90.4461 197.883Z" fill="#D0C5F3"/>
<path d="M83.532 193.787C92.8614 193.5 106.669 188.916 114.836 176.939C119.798 169.668 124.317 157.093 117.675 138.454L107.344 142.138C111.374 153.45 110.836 163.348 105.779 170.76C100.304 178.781 90.4913 182.6 83.1948 182.827L83.532 193.787Z" fill="url(#paint11_linear)"/>
<path d="M109.976 154.355L120.784 153.797L120.719 152.534L109.91 153.092L109.976 154.355Z" fill="#A08BE8"/>
<path d="M99.5791 177.125L105.914 185.896L106.941 185.157L100.606 176.386L99.5791 177.125Z" fill="#A08BE8"/>
<path d="M115.898 175.274L107.837 167.036C108.013 166.634 108.179 166.226 108.335 165.818L119.375 167.464C118.46 170.478 117.227 173.075 115.898 175.274Z" fill="#A08BE8"/>
<path d="M95.0756 182.907C91.7344 178.227 85.238 177.146 80.5581 180.482C75.8834 183.818 74.7914 190.319 78.1327 194.999C81.469 199.674 87.9704 200.761 92.6502 197.425C97.325 194.083 98.4119 187.582 95.0756 182.907Z" fill="url(#paint12_radial)"/>
<path d="M60.8075 64.9808C57.4712 67.21 55.8509 70.6267 57.1794 72.6094C58.5079 74.592 62.2869 74.3907 65.6182 72.1615C68.9544 69.9323 70.5798 66.5105 69.2463 64.5329C67.9228 62.5453 64.1438 62.7516 60.8075 64.9808Z" fill="#512BD4"/>
<path d="M60.1029 70.8029C62.3019 71.2055 64.4053 69.7462 64.8028 67.5572C65.0745 66.0527 64.4807 64.5934 63.3687 63.6926C62.5233 63.9946 61.6628 64.4273 60.8275 64.9808C59.192 66.0778 57.9743 67.4566 57.3101 68.8102C57.8736 69.8267 58.875 70.5815 60.1029 70.8029Z" fill="#8065E0"/>
<path d="M88.9569 92.9591C87.573 91.0167 83.799 91.3287 80.5382 93.6585C77.2724 95.9884 75.7527 99.4504 77.1365 101.393C78.5204 103.335 82.2944 103.023 85.5552 100.693C88.816 98.3635 90.3407 94.9015 88.9569 92.9591Z" fill="#512BD4"/>
<path d="M80.0752 99.2744C82.2742 99.677 84.3776 98.2177 84.7751 96.0287C85.0468 94.5342 84.4581 93.085 83.3611 92.1792C82.4201 92.5113 81.459 93.0045 80.5331 93.6637C79.0486 94.7204 77.9365 96.0136 77.2773 97.2867C77.851 98.2932 78.8473 99.048 80.0752 99.2744Z" fill="#8065E0"/>
<path d="M119.909 128.883C116.654 124.324 110.323 123.262 105.764 126.518C101.205 129.774 100.143 136.104 103.399 140.663C106.655 145.222 112.985 146.284 117.544 143.028C122.103 139.777 123.16 133.442 119.909 128.883Z" fill="url(#paint13_radial)"/>
<path d="M43.6834 145.418L51.7045 152.136L43.6885 159.423L37.9268 154.607L43.6834 145.418Z" fill="#D0C5F3"/>
<path d="M43.8494 157.173C40.6641 152.71 34.4646 151.673 30.0012 154.859C25.5377 158.044 24.5011 164.243 27.6864 168.707C30.8717 173.17 37.0712 174.207 41.5346 171.022C45.9981 167.836 47.0347 161.637 43.8494 157.173Z" fill="url(#paint14_radial)"/>
<path d="M44.8258 137.825C44.4635 137.523 43.91 137.593 43.6533 137.991C40.8958 142.152 41.6455 147.814 45.5605 151.094C49.4805 154.37 55.1818 154.114 58.7948 150.662C59.137 150.335 59.1068 149.781 58.7445 149.479L44.8258 137.825Z" fill="url(#paint15_radial)"/>
<path d="M86.2344 62.0774L95.9463 75.6891L109.558 65.9772L99.8461 52.3655L86.2344 62.0774Z" fill="#512BD4"/>
<path d="M102.911 67.0591C102.981 67.1597 103.006 67.2604 102.986 67.3761C102.966 67.4868 102.916 67.5824 102.825 67.6478C102.73 67.7132 102.634 67.7334 102.513 67.7132C102.402 67.6931 102.307 67.6327 102.241 67.5371C102.171 67.4365 102.146 67.3358 102.161 67.2201C102.176 67.1044 102.231 67.0138 102.327 66.9484C102.418 66.883 102.518 66.8628 102.634 66.883C102.755 66.8981 102.84 66.9584 102.911 67.0591Z" fill="white"/>
<path d="M100.118 63.25L100.561 63.874L99.1367 67.3763C99.1014 67.4669 99.0561 67.5474 99.0058 67.6279L99.0159 67.643C99.0813 67.5776 99.2423 67.4518 99.4889 67.2756L101.809 65.6201L102.201 66.1736L98.6637 68.6997L98.1906 68.0355L99.5895 64.6288C99.6449 64.4879 99.6852 64.3872 99.7103 64.342L99.7053 64.3319C99.6197 64.4124 99.4688 64.5382 99.2423 64.6992L96.9628 66.3246L96.5703 65.7761L100.118 63.25Z" fill="white"/>
<path d="M98.1907 60.5527L99.5745 62.4901L96.037 65.0162L94.7085 63.1543L95.2067 62.797L96.1225 64.0802L97.1239 63.3657L96.2785 62.1781L96.7767 61.8208L97.6221 63.0084L98.6687 62.2636L97.6925 60.8999L98.1907 60.5527Z" fill="white"/>
<path d="M93.1888 59.9639L93.8932 60.9552L96.9326 58.7864L97.3402 59.36L94.3008 61.5288L95.0053 62.5202L94.5072 62.8774L92.6855 60.3262L93.1888 59.9639Z" fill="white"/>
<path d="M121.187 137.845C120.608 137.02 120.633 135.872 121.318 135.067C132.69 121.657 135.382 102.631 128.181 86.5985C127.668 85.4512 128.176 84.1026 129.324 83.5894C130.471 83.0761 131.82 83.5843 132.333 84.7316C140.248 102.354 137.289 123.267 124.79 138.011C123.975 138.972 122.541 139.088 121.579 138.273C121.428 138.147 121.298 138.001 121.187 137.845Z" fill="url(#paint16_radial)"/>
<path d="M50.4517 73.4648C51.0404 74.285 51.0253 75.4273 50.356 76.2425C39.1396 89.7838 36.6588 108.84 44.0458 124.787C44.5742 125.929 44.076 127.283 42.9388 127.811C41.7965 128.339 40.4429 127.841 39.9145 126.704C31.7978 109.167 34.5202 88.2238 46.8487 73.334C47.6488 72.3678 49.088 72.2319 50.0541 73.032C50.2101 73.1629 50.341 73.3088 50.4517 73.4648Z" fill="url(#paint17_linear)"/>
<path d="M150.137 215.369C196.734 192.725 189.326 146.566 189.326 146.566" stroke="#BBE5E0" stroke-width="3" stroke-miterlimit="10" stroke-linecap="round" stroke-linejoin="round"/>
<path d="M150.569 205.788C171.905 166.598 139.685 138.726 139.685 138.726" stroke="#BBE5E0" stroke-width="3" stroke-miterlimit="10" stroke-linecap="round" stroke-linejoin="round"/>
<path d="M218.884 278.506H222.145C222.623 278.506 223.006 278.119 223.006 277.646V242.804C223.006 242.326 222.618 241.943 222.145 241.943H218.884C218.406 241.943 218.024 242.331 218.024 242.804V277.646C218.024 278.119 218.406 278.506 218.884 278.506Z" fill="url(#paint18_linear)"/>
<path d="M223.026 270.948L224.274 277.238C224.274 277.993 223.554 278.607 222.663 278.607H218.366C217.475 278.607 216.756 277.993 216.756 277.238L218.004 270.948H223.026Z" fill="#605D5A"/>
<path d="M202.873 291.595H206.133C206.612 291.595 206.994 291.207 206.994 290.734V253.25C206.994 252.772 206.606 252.39 206.133 252.39H202.873C202.395 252.39 202.012 252.777 202.012 253.25V290.734C202.012 291.207 202.4 291.595 202.873 291.595Z" fill="url(#paint19_linear)"/>
<path d="M207.019 284.037L208.267 290.327C208.267 291.082 207.547 291.695 206.657 291.695H202.359C201.469 291.695 200.749 291.082 200.749 290.327L201.997 284.037H207.019Z" fill="#605D5A"/>
<path d="M31.1984 275.336H34.4591C34.9372 275.336 35.3196 274.949 35.3196 274.476V239.634C35.3196 239.156 34.9322 238.773 34.4591 238.773H31.1984C30.7203 238.773 30.3379 239.161 30.3379 239.634V274.476C30.3379 274.949 30.7254 275.336 31.1984 275.336Z" fill="url(#paint20_linear)"/>
<path d="M35.3451 267.778L36.5931 274.068C36.5931 274.823 35.8735 275.437 34.9828 275.437H30.6855C29.7948 275.437 29.0752 274.823 29.0752 274.068L30.3231 267.778H35.3451Z" fill="#605D5A"/>
<path d="M15.192 291.595H18.4528C18.9308 291.595 19.3133 291.207 19.3133 290.734V253.25C19.3133 252.772 18.9258 252.39 18.4528 252.39H15.192C14.714 252.39 14.3315 252.777 14.3315 253.25V290.734C14.3315 291.207 14.714 291.595 15.192 291.595Z" fill="url(#paint21_linear)"/>
<path d="M19.3334 284.037L20.5814 290.327C20.5814 291.082 19.8618 291.695 18.9711 291.695H14.6737C13.7831 291.695 13.0635 291.082 13.0635 290.327L14.3114 284.037H19.3334Z" fill="#605D5A"/>
<path d="M108.985 304.427H112.245C112.723 304.427 113.106 304.039 113.106 303.566V261.855C113.106 261.377 112.718 260.995 112.245 260.995H108.985C108.506 260.995 108.124 261.382 108.124 261.855V303.566C108.124 304.044 108.506 304.427 108.985 304.427Z" fill="url(#paint22_linear)"/>
<path d="M113.131 296.874L114.379 303.164C114.379 303.918 113.659 304.532 112.768 304.532H108.471C107.58 304.532 106.861 303.918 106.861 303.164L108.109 296.874H113.131Z" fill="#605D5A"/>
<path d="M0.115737 244.932V241.319H3.33122C15.9063 233.117 62.6944 227.028 118.5 227.028C175.413 227.028 222.945 233.364 234.378 241.813H237V245.738V245.838H236.99C236.638 256.124 183.726 264.442 118.5 264.442C53.053 264.447 0 256.073 0 245.738C0 245.471 0.0452885 245.199 0.115737 244.932Z" fill="#92D5CD"/>
<path d="M118.5 260.748C183.946 260.748 237 252.372 237 242.039C237 231.706 183.946 223.33 118.5 223.33C53.0543 223.33 0 231.706 0 242.039C0 252.372 53.0543 260.748 118.5 260.748Z" fill="#BBE5E0"/>
<path d="M118.5 250.785C170.133 250.785 211.991 245.686 211.991 239.397C211.991 233.108 170.133 228.01 118.5 228.01C66.8665 228.01 25.0093 233.108 25.0093 239.397C25.0093 245.686 66.8665 250.785 118.5 250.785Z" fill="#6ECFC3"/>
<defs>
<linearGradient id="paint0_linear" x1="120.249" y1="68.8403" x2="164.928" y2="43.0451" gradientUnits="userSpaceOnUse">
<stop offset="0.1199" stop-color="#958FE7"/>
<stop offset="0.2912" stop-color="#BBB7EF"/>
</linearGradient>
<radialGradient id="paint1_radial" cx="0" cy="0" r="1" gradientUnits="userSpaceOnUse" gradientTransform="translate(152.908 62.8645) rotate(-15.4913) scale(15.7345)">
<stop stop-color="#8065E0"/>
<stop offset="1" stop-color="#512BD4"/>
</radialGradient>
<linearGradient id="paint2_linear" x1="138.436" y1="98.4943" x2="178.633" y2="80.0338" gradientUnits="userSpaceOnUse">
<stop offset="0.2368" stop-color="#958FE7"/>
<stop offset="0.4881" stop-color="#BBB7EF"/>
</linearGradient>
<radialGradient id="paint3_radial" cx="0" cy="0" r="1" gradientUnits="userSpaceOnUse" gradientTransform="translate(178.944 87.8387) rotate(-50.0954) scale(15.7337)">
<stop stop-color="#8065E0"/>
<stop offset="1" stop-color="#512BD4"/>
</radialGradient>
<linearGradient id="paint4_linear" x1="72.0933" y1="70.1852" x2="47.7046" y2="10.4642" gradientUnits="userSpaceOnUse">
<stop offset="0.3458" stop-color="#958FE7"/>
<stop offset="0.5504" stop-color="#BBB7EF"/>
</linearGradient>
<radialGradient id="paint5_radial" cx="0" cy="0" r="1" gradientUnits="userSpaceOnUse" gradientTransform="translate(30.2348 14.7867) rotate(105.878) scale(15.1648)">
<stop stop-color="#A08BE8"/>
<stop offset="1" stop-color="#8065E0"/>
</radialGradient>
<radialGradient id="paint6_radial" cx="0" cy="0" r="1" gradientUnits="userSpaceOnUse" gradientTransform="translate(76.439 55.5255) rotate(-125.508) scale(10.4474)">
<stop stop-color="#8065E0"/>
<stop offset="1" stop-color="#512BD4"/>
</radialGradient>
<radialGradient id="paint7_radial" cx="0" cy="0" r="1" gradientUnits="userSpaceOnUse" gradientTransform="translate(66.0555 105.81) rotate(-125.508) scale(55.0379)">
<stop offset="0.4744" stop-color="#A08BE8"/>
<stop offset="0.8618" stop-color="#8065E0"/>
</radialGradient>
<radialGradient id="paint8_radial" cx="0" cy="0" r="1" gradientUnits="userSpaceOnUse" gradientTransform="translate(43.9443 81.4995) rotate(-125.508) scale(63.8899)">
<stop offset="0.0933" stop-color="#E1DFDD"/>
<stop offset="0.6573" stop-color="white"/>
</radialGradient>
<radialGradient id="paint9_radial" cx="0" cy="0" r="1" gradientUnits="userSpaceOnUse" gradientTransform="translate(93.5618 88.1271) rotate(-125.508) scale(42.4096)">
<stop stop-color="#512BD4"/>
<stop offset="0.7715" stop-color="#6645D9"/>
<stop offset="0.8738" stop-color="#7659DD"/>
<stop offset="0.9583" stop-color="#8065E0"/>
</radialGradient>
<radialGradient id="paint10_radial" cx="0" cy="0" r="1" gradientUnits="userSpaceOnUse" gradientTransform="translate(130.912 113.219) rotate(-125.508) scale(48.0256)">
<stop offset="0.4614" stop-color="#A08BE8"/>
<stop offset="0.5268" stop-color="#A793EA"/>
<stop offset="0.8352" stop-color="#C5B7F0"/>
<stop offset="1" stop-color="#D0C5F3"/>
</radialGradient>
<linearGradient id="paint11_linear" x1="104.11" y1="124.542" x2="101.202" y2="188.98" gradientUnits="userSpaceOnUse">
<stop offset="0.3458" stop-color="#958FE7"/>
<stop offset="0.5504" stop-color="#BBB7EF"/>
</linearGradient>
<radialGradient id="paint12_radial" cx="0" cy="0" r="1" gradientUnits="userSpaceOnUse" gradientTransform="translate(83.2972 190.778) rotate(-125.508) scale(15.1634)">
<stop stop-color="#A08BE8"/>
<stop offset="1" stop-color="#8065E0"/>
</radialGradient>
<radialGradient id="paint13_radial" cx="0" cy="0" r="1" gradientUnits="userSpaceOnUse" gradientTransform="translate(107.73 137.823) rotate(-125.508) scale(12.6749)">
<stop stop-color="#8065E0"/>
<stop offset="1" stop-color="#512BD4"/>
</radialGradient>
<radialGradient id="paint14_radial" cx="0" cy="0" r="1" gradientUnits="userSpaceOnUse" gradientTransform="translate(33.3112 165.569) rotate(-125.508) scale(11.836)">
<stop stop-color="#A08BE8"/>
<stop offset="1" stop-color="#8065E0"/>
</radialGradient>
<radialGradient id="paint15_radial" cx="0" cy="0" r="1" gradientUnits="userSpaceOnUse" gradientTransform="translate(47.2736 148.927) rotate(-125.508) scale(12.7575)">
<stop stop-color="#8065E0"/>
<stop offset="1" stop-color="#512BD4"/>
</radialGradient>
<radialGradient id="paint16_radial" cx="0" cy="0" r="1" gradientUnits="userSpaceOnUse" gradientTransform="translate(126.727 111.133) rotate(55.0052) scale(20.442)">
<stop stop-color="#BDB9F0"/>
<stop offset="0.5266" stop-color="#C3BCEB" stop-opacity="0.3855"/>
<stop offset="0.605" stop-color="#CEC3E2" stop-opacity="0.3217"/>
<stop offset="0.8586" stop-color="#EDD6C9" stop-opacity="0.1152"/>
<stop offset="1" stop-color="#F9DDBF" stop-opacity="0"/>
</radialGradient>
<linearGradient id="paint17_linear" x1="57.4685" y1="117.519" x2="32.934" y2="83.3107" gradientUnits="userSpaceOnUse">
<stop offset="0.0731" stop-color="#BDB9F0"/>
<stop offset="0.2886" stop-color="#CEC3E2" stop-opacity="0.7675"/>
<stop offset="0.7452" stop-color="#EDD6C9" stop-opacity="0.2749"/>
<stop offset="1" stop-color="#F9DDBF" stop-opacity="0"/>
</linearGradient>
<linearGradient id="paint18_linear" x1="220.513" y1="278.507" x2="220.513" y2="241.942" gradientUnits="userSpaceOnUse">
<stop offset="0.7519" stop-color="#C8C6C4"/>
<stop offset="0.9103" stop-color="#B3AFAB"/>
</linearGradient>
<linearGradient id="paint19_linear" x1="204.505" y1="291.593" x2="204.505" y2="252.386" gradientUnits="userSpaceOnUse">
<stop offset="0.7519" stop-color="#C8C6C4"/>
<stop offset="0.9103" stop-color="#B3AFAB"/>
</linearGradient>
<linearGradient id="paint20_linear" x1="32.8294" y1="275.337" x2="32.8294" y2="238.771" gradientUnits="userSpaceOnUse">
<stop offset="0.7519" stop-color="#C8C6C4"/>
<stop offset="0.9103" stop-color="#B3AFAB"/>
</linearGradient>
<linearGradient id="paint21_linear" x1="16.8212" y1="291.593" x2="16.8212" y2="252.386" gradientUnits="userSpaceOnUse">
<stop offset="0.7519" stop-color="#C8C6C4"/>
<stop offset="0.9103" stop-color="#B3AFAB"/>
</linearGradient>
<linearGradient id="paint22_linear" x1="110.615" y1="304.429" x2="110.615" y2="260.994" gradientUnits="userSpaceOnUse">
<stop offset="0.7519" stop-color="#C8C6C4"/>
<stop offset="0.9103" stop-color="#B3AFAB"/>
</linearGradient>
</defs>
</svg>
