<svg width="265" height="276" viewBox="0 0 265 276" fill="none" xmlns="http://www.w3.org/2000/svg">
<path d="M256.219 171.719L25.7892 191.129L11.6792 23.5394L242.109 4.12939L256.219 171.719Z" fill="url(#paint0_linear)"/>
<path d="M143.346 147.354C176.035 144.294 202.392 140.288 202.216 138.408C202.04 136.527 175.397 137.484 142.708 140.544C110.02 143.604 83.6627 147.609 83.8388 149.489C84.0148 151.37 110.657 150.414 143.346 147.354Z" fill="#98C2F5"/>
<path d="M148.929 125.649C145.889 122.259 139.079 115.719 129.789 112.019L127.709 116.059C136.139 119.409 141.959 125.329 144.289 128.009C144.479 128.229 147.039 127.239 148.929 125.649Z" fill="url(#paint1_linear)"/>
<path d="M148.929 125.649C145.889 122.259 139.079 115.719 129.789 112.019L127.709 116.059C136.139 119.409 141.959 125.329 144.289 128.009C144.479 128.229 147.039 127.239 148.929 125.649Z" fill="url(#paint2_linear)"/>
<path d="M144.259 127.969L147.919 126.129C149.259 126.939 154.379 132.159 171.969 133.169L175.369 136.879L159.379 144.909C158.819 145.189 158.049 145.029 157.649 144.539L144.259 127.969Z" fill="#522CD5"/>
<path d="M171.579 132.249C172.609 132.289 173.109 132.669 173.659 133.349L175.659 135.779C175.959 136.149 175.869 136.629 175.439 136.839L175.359 136.879C174.879 137.119 174.219 136.969 173.879 136.549L172.179 134.609C171.539 133.819 171.019 133.389 169.649 133.319C161.549 132.929 151.079 131.879 146.369 126.909L148.909 125.629C151.519 128.069 158.079 131.709 171.579 132.249Z" fill="url(#paint3_linear)"/>
<path d="M170.679 133.479C171.339 133.679 171.739 134.059 172.179 134.609L173.879 136.549C174.219 136.969 174.889 137.119 175.359 136.879L175.439 136.839C175.859 136.629 175.959 136.149 175.659 135.779L173.659 133.349C173.339 132.959 173.039 132.669 172.649 132.489L170.679 133.479Z" fill="url(#paint4_radial)"/>
<path d="M107.059 130.479C106.989 130.079 105.799 125.739 104.769 122.599C103.849 119.789 103.089 116.829 104.649 114.239C106.549 111.079 111.049 109.799 119.799 108.279L120.739 113.699C117.889 114.199 110.299 115.509 109.359 117.079C108.969 117.729 109.749 120.109 109.999 120.899C111.069 124.179 112.699 129.819 112.749 130.039L107.059 130.479Z" fill="url(#paint5_linear)"/>
<path d="M158.18 95.1893L154.2 91.4793C153.13 90.4993 151.47 90.5693 150.49 91.6393C149.51 92.7093 149.58 94.3693 150.65 95.3493L154.73 99.1493L158.18 95.1893Z" fill="#8A6FE8"/>
<path d="M250.939 9.31929C250.449 3.69929 245.499 -0.450711 239.879 0.039289L9.31929 20.2393C3.69929 20.7293 -0.450711 25.6793 0.039289 31.2993L13.5693 188.229C13.9293 192.359 17.5693 195.419 21.6993 195.059L257.649 174.389C261.769 174.029 264.819 170.399 264.469 166.269L250.939 9.31929ZM34.0393 182.269L20.7193 30.4893L230.449 12.0893L243.769 163.869L34.0393 182.269Z" fill="url(#paint6_radial)"/>
<path d="M131.719 113.849L136.729 111.719C138.059 111.139 138.669 109.599 138.099 108.269C137.519 106.939 135.979 106.329 134.649 106.899L129.509 109.079L131.719 113.849Z" fill="#8A6FE8"/>
<path d="M161.11 101.269C160.44 101.329 159.72 101.369 158.93 101.399C155.85 101.509 153 101.349 152.88 101.339L153.17 96.2393C156.35 96.4193 159.65 96.3393 161.8 96.0693C157.97 93.7593 149.19 90.0193 140.77 88.1593L142.11 83.2893C147 84.3693 153.01 86.3493 158.18 88.5893C167.14 92.4593 167.98 94.5393 168.3 95.3193C168.69 96.2793 168.27 97.9293 167.72 98.7593C166.79 100.189 164.81 100.959 161.11 101.269Z" fill="#8A6FE8"/>
<path d="M147.669 85.0092C148.289 77.3892 146.049 71.7892 146.049 71.7892L147.759 71.4891L147.799 71.4491C143.009 58.5091 129.519 50.4192 115.439 52.8792C99.5795 55.6492 88.9595 70.7592 91.7395 86.6192C94.5195 102.479 109.619 113.099 125.479 110.319C137.999 108.129 147.239 98.2592 149.229 86.3992C149.269 85.9192 149.109 85.0692 147.669 85.0092Z" fill="url(#paint7_radial)"/>
<path d="M147.669 85.0093C148.289 77.4793 146.109 71.9293 146.059 71.7893L116.249 76.9993C116.249 76.9993 114.339 77.1393 114.639 78.8493C114.939 80.5593 115.859 85.3993 116.789 90.7593C116.989 91.8593 147.539 86.2693 147.669 85.0093Z" fill="url(#paint8_radial)"/>
<path d="M130.729 87.9393C130.729 87.9393 134.68 83.5093 135.46 82.6793C136.24 81.8493 137.01 81.6793 137.96 82.2393C138.9 82.7993 144.119 85.5893 144.119 85.5893L130.729 87.9393Z" fill="#A08BE8"/>
<path d="M149.169 86.7693C149.169 86.7693 149.699 85.0693 147.669 84.9893C147.519 85.0193 118.359 90.0993 118.359 90.0993C117.679 90.2193 116.729 89.9693 116.539 89.3193C116.619 89.7893 116.709 90.2693 116.789 90.7593C116.959 91.7593 117.799 92.1593 118.479 92.1293C118.549 92.1293 118.619 92.1193 118.679 92.1093L120.679 91.7593L149.169 86.7693Z" fill="#512BD4"/>
<path d="M110.559 53.3591L105.389 55.5891L103.829 49.9691L107.549 48.3691L110.559 53.3591Z" fill="#8A6FE8"/>
<path d="M113.939 55.7593C114.169 55.6593 114.269 55.3793 114.149 55.1593C112.819 52.8193 109.909 51.8093 107.379 52.8993C104.849 53.9893 103.589 56.7993 104.379 59.3693C104.449 59.6093 104.729 59.7293 104.959 59.6293L113.939 55.7593Z" fill="#410099"/>
<path d="M104.519 50.3692C106.767 50.3692 108.589 48.547 108.589 46.2992C108.589 44.0514 106.767 42.2292 104.519 42.2292C102.271 42.2292 100.449 44.0514 100.449 46.2992C100.449 48.547 102.271 50.3692 104.519 50.3692Z" fill="#D8CFF7"/>
<path d="M149.86 95.5793C151.84 93.0693 155.3 92.6493 157.59 94.6593C159.88 96.6693 160.14 100.329 158.16 102.839C156.18 105.349 152.719 105.769 150.429 103.759C148.139 101.749 147.89 98.0893 149.86 95.5793Z" fill="url(#paint9_radial)"/>
<path d="M122.949 125.389L122.929 125.369C121.849 124.289 121.849 122.529 122.929 121.449L159.359 85.0893C160.439 84.0093 162.199 84.0093 163.279 85.0893L163.299 85.1093C164.379 86.1893 164.379 87.9493 163.299 89.0293L126.869 125.389C125.789 126.479 124.029 126.469 122.949 125.389Z" fill="url(#paint10_radial)"/>
<path d="M162.02 83.6993L212.12 30.7893L212.17 45.6093L164.9 86.5893L162.02 83.6993Z" fill="white"/>
<path d="M94.2293 63.9592C84.6193 63.6492 72.7793 73.7292 72.7793 73.7292L75.7593 83.7892C75.7593 83.7892 88.9493 71.4092 95.4693 69.2992C101.999 67.1892 94.2293 63.9592 94.2293 63.9592Z" fill="url(#paint11_radial)"/>
<path d="M98.6294 63.8593C89.6494 57.1793 77.5094 53.7593 77.5094 53.7593L73.8594 63.5593C73.8594 63.5593 89.8094 66.3693 94.1794 66.3493C98.5494 66.3293 98.6294 63.8593 98.6294 63.8593Z" fill="url(#paint12_radial)"/>
<path d="M130.909 54.9694L93.8895 71.1194C93.4595 71.3094 92.9695 71.1094 92.7795 70.6794L88.6795 61.2294C88.4995 60.7994 88.6895 60.3094 89.1195 60.1194L126.139 43.9694C126.569 43.7794 127.059 43.9794 127.249 44.4094L131.349 53.8594C131.529 54.2894 131.329 54.7894 130.909 54.9694Z" fill="url(#paint13_radial)"/>
<path d="M129.909 79.5093L124.699 79.2493C124.639 79.8093 124.659 80.4193 124.789 81.0593C125.249 83.2993 126.829 84.9593 128.299 84.7593C129.779 84.5693 130.599 82.5893 130.139 80.3493C130.089 80.0593 130.009 79.7793 129.909 79.5093Z" fill="#512BD4"/>
<path d="M129.909 79.5091L126.699 79.3491C126.409 80.2391 126.769 81.2591 127.669 81.8691C128.449 82.3891 129.439 82.4691 130.239 82.1491C130.299 81.5891 130.279 80.9791 130.149 80.3491C130.089 80.0591 129.999 79.7791 129.909 79.5091Z" fill="#8065E0"/>
<path d="M144.169 75.9492L139.969 78.5192C139.969 78.5492 139.979 78.5892 139.979 78.6192C140.289 80.8492 141.609 82.5192 142.939 82.3392C144.269 82.1592 145.099 80.1992 144.789 77.9592C144.689 77.2092 144.469 76.5192 144.169 75.9492Z" fill="#512BD4"/>
<path d="M144.169 75.9492L141.589 77.5292C141.599 78.2192 141.909 78.8992 142.509 79.3392C143.199 79.8492 144.089 79.9092 144.819 79.5692C144.879 79.0692 144.869 78.5292 144.789 77.9692C144.689 77.2092 144.469 76.5192 144.169 75.9492Z" fill="#8065E0"/>
<path d="M103.089 105.009L144.759 97.6893C145.979 95.8493 146.989 93.8693 147.769 91.7793L98.2393 100.469C99.6893 102.169 101.309 103.689 103.089 105.009Z" fill="#D8CFF7"/>
<path d="M142.569 99.6394L134.019 101.129C133.819 101.159 133.629 101.029 133.599 100.829L132.289 93.3494C132.259 93.1494 132.389 92.9594 132.589 92.9294L141.139 91.4394C141.339 91.4094 141.529 91.5394 141.559 91.7394L142.869 99.2194C142.899 99.4194 142.769 99.6094 142.569 99.6394Z" fill="#512BD4"/>
<path d="M134.329 98.0893C134.259 98.0993 134.189 98.0893 134.129 98.0493C134.069 98.0093 134.039 97.9493 134.019 97.8893C134.009 97.8193 134.019 97.7593 134.069 97.6993C134.109 97.6393 134.169 97.6093 134.239 97.5893C134.309 97.5793 134.379 97.5893 134.439 97.6293C134.499 97.6693 134.539 97.7293 134.549 97.7993C134.559 97.8693 134.549 97.9293 134.499 97.9893C134.459 98.0393 134.399 98.0693 134.329 98.0893Z" fill="white"/>
<path d="M137.229 97.5491L136.759 97.6291L135.179 95.8791C135.139 95.8391 135.109 95.7891 135.079 95.7391H135.069C135.089 95.7991 135.119 95.9191 135.149 96.0991L135.449 97.8491L135.029 97.9191L134.569 95.2491L135.069 95.1591L136.599 96.8691C136.659 96.9391 136.709 96.9891 136.729 97.0191H136.739C136.719 96.9491 136.689 96.8291 136.659 96.6591L136.369 94.9391L136.789 94.8691L137.229 97.5491Z" fill="white"/>
<path d="M139.269 97.1993L137.809 97.4493L137.349 94.7793L138.759 94.5393L138.819 94.9193L137.849 95.0893L137.979 95.8493L138.879 95.6993L138.939 96.0693L138.039 96.2193L138.179 97.0093L139.209 96.8293L139.269 97.1993Z" fill="white"/>
<path d="M140.949 94.5494L140.199 94.6794L140.589 96.9794L140.159 97.0494L139.769 94.7494L139.019 94.8794L138.959 94.4994L140.889 94.1694L140.949 94.5494Z" fill="white"/>
<path d="M123.939 126.139C124.819 126.529 125.889 126.369 126.609 125.649L163.549 88.7691C164.269 88.0491 164.439 86.9791 164.049 86.0991L123.939 126.139Z" fill="#BF8F68"/>
<path d="M166.959 91.9493L156.039 81.0093C155.359 80.3293 155.359 79.2293 156.039 78.5493L156.049 78.5393C156.729 77.8593 157.829 77.8593 158.509 78.5393L169.429 89.4793C170.109 90.1593 170.109 91.2593 169.429 91.9393L169.419 91.9493C168.739 92.6293 167.639 92.6293 166.959 91.9493Z" fill="#773DBD"/>
<path d="M149.079 105.679L146.579 104.199C145.489 103.559 145.129 102.069 145.779 100.889L146.089 100.319C146.739 99.1394 148.149 98.6994 149.239 99.3394L151.739 100.819C152.829 101.459 153.189 102.949 152.539 104.129L152.229 104.699C151.579 105.879 150.169 106.319 149.079 105.679Z" fill="#8A6FE8"/>
<path d="M152.339 103.229L149.839 101.749C148.749 101.109 148.389 99.6194 149.039 98.4394L149.349 97.8694C149.999 96.6894 151.409 96.2494 152.499 96.8894L154.999 98.3694C156.089 99.0094 156.449 100.499 155.799 101.679L155.489 102.249C154.839 103.439 153.429 103.879 152.339 103.229Z" fill="#8A6FE8"/>
<path d="M155.449 101.009L152.949 99.5295C151.859 98.8895 151.499 97.3995 152.149 96.2195L152.459 95.6495C153.109 94.4695 154.519 94.0295 155.609 94.6695L158.109 96.1495C159.199 96.7895 159.559 98.2795 158.909 99.4595L158.599 100.029C157.949 101.219 156.539 101.659 155.449 101.009Z" fill="#8A6FE8"/>
<path d="M128.919 118.489L133.729 121.029C135.019 121.699 136.599 121.189 137.269 119.909C137.939 118.619 137.429 117.039 136.149 116.369L131.209 113.769L128.919 118.489Z" fill="#8A6FE8"/>
<path d="M130.689 115.149L135.569 117.559C136.869 118.189 138.439 117.649 139.079 116.349C139.709 115.049 139.169 113.479 137.869 112.839L132.869 110.359L130.689 115.149Z" fill="#8A6FE8"/>
<path d="M126.259 119.339L130.489 122.769C131.619 123.679 133.269 123.489 134.179 122.359C135.089 121.229 134.899 119.579 133.769 118.669L129.439 115.159L126.259 119.339Z" fill="#8A6FE8"/>
<path d="M66.6195 153.859L49.5495 155.299C46.0395 155.599 42.9495 152.989 42.6495 149.479L34.2295 49.4992C33.9295 45.9892 36.5395 42.8992 40.0495 42.5992L57.1195 41.1592C60.6295 40.8592 63.7195 43.4692 64.0195 46.9792L72.4395 146.949C72.7395 150.479 70.1295 153.569 66.6195 153.859Z" fill="#76AFF2"/>
<path d="M47.6393 84.4592L42.8193 84.8692L42.2393 89.8192L49.0493 89.2392L47.6393 84.4592Z" fill="#F7B548"/>
<path d="M55.7093 83.7793L50.8893 84.1893L50.2993 89.1393L57.1093 88.5593L55.7093 83.7793Z" fill="#F7B548"/>
<path d="M63.7694 83.0991L58.9494 83.5091L58.3594 88.4591L65.1794 87.8791L63.7694 83.0991Z" fill="#F7B548"/>
<path d="M51.3995 79.2393L46.5795 79.6493L45.9995 84.5993L52.8095 84.0193L51.3995 79.2393Z" fill="#F7B548"/>
<path d="M59.4691 78.5593L54.6491 78.9693L54.0591 83.9193L60.8691 83.3493L59.4691 78.5593Z" fill="#F7B548"/>
<path d="M55.0291 74.0393L50.2091 74.4393L49.6191 79.3893L56.4291 78.8193L55.0291 74.0393Z" fill="#F7B548"/>
<path d="M46.0692 84.5894L41.2492 84.9994L40.6592 89.9494L47.4692 89.3794L46.0692 84.5894Z" fill="#FFD590"/>
<path d="M54.1292 83.9094L49.3092 84.3194L48.7192 89.2694L55.5392 88.6994L54.1292 83.9094Z" fill="#FFD590"/>
<path d="M62.1891 83.2295L57.3691 83.6395L56.7891 88.5895L63.5991 88.0195L62.1891 83.2295Z" fill="#FFD590"/>
<path d="M49.8294 79.3794L45.0094 79.7794L44.4194 84.7294L51.2294 84.1594L49.8294 79.3794Z" fill="#FFD590"/>
<path d="M57.8893 78.6995L53.0693 79.0995L52.4893 84.0495L59.2993 83.4795L57.8893 78.6995Z" fill="#FFD590"/>
<path d="M53.4491 74.1694L48.6291 74.5794L48.0391 79.5294L54.8591 78.9494L53.4491 74.1694Z" fill="#FFD590"/>
<path d="M51.5094 49.4993L53.0294 53.7393C53.1194 53.9993 53.3394 54.1893 53.5994 54.2693L57.9494 55.4193C58.6194 55.5993 58.7894 56.4593 58.2494 56.8893L54.6894 59.6393C54.4694 59.8093 54.3494 60.0693 54.3694 60.3493L54.6194 64.8393C54.6594 65.5293 53.8894 65.9693 53.3194 65.5793L49.5994 63.0493C49.3694 62.8993 49.0794 62.8593 48.8294 62.9593L44.6294 64.5893C43.9894 64.8393 43.3294 64.2393 43.5294 63.5793L44.7894 59.2593C44.8694 58.9993 44.8094 58.7093 44.6394 58.4993L41.7994 55.0093C41.3594 54.4693 41.7294 53.6693 42.4194 53.6493L46.9194 53.5093C47.1894 53.4993 47.4494 53.3593 47.5994 53.1293L50.0394 49.3493C50.3994 48.7393 51.2794 48.8493 51.5094 49.4993Z" fill="#F7B548"/>
<path d="M50.5294 49.0793L52.0494 53.3193C52.1394 53.5793 52.3594 53.7693 52.6194 53.8493L56.9694 54.9993C57.6394 55.1793 57.8094 56.0393 57.2694 56.4693L53.7094 59.2193C53.4894 59.3893 53.3694 59.6493 53.3894 59.9293L53.6394 64.4193C53.6794 65.1093 52.9094 65.5493 52.3394 65.1593L48.6194 62.6293C48.3894 62.4793 48.0994 62.4393 47.8494 62.5393L43.6494 64.1693C43.0094 64.4193 42.3494 63.8193 42.5494 63.1593L43.8094 58.8393C43.8894 58.5793 43.8294 58.2893 43.6594 58.0793L40.8194 54.5893C40.3794 54.0493 40.7494 53.2493 41.4394 53.2293L45.9394 53.0893C46.2094 53.0793 46.4694 52.9393 46.6194 52.7093L49.0594 48.9293C49.4194 48.3193 50.2994 48.4193 50.5294 49.0793Z" fill="#FFD590"/>
<path d="M200.199 91.5592L221.449 89.7692L215.399 84.3992L202.229 85.5092L200.199 91.5592Z" fill="#F7B548"/>
<path d="M198.969 85.7891L193.149 86.2791L186.969 92.6791L196.939 91.8391L198.969 85.7891Z" fill="#F7B548"/>
<path d="M200.309 94.3591L209.819 120.979L224.189 92.3391L200.309 94.3591Z" fill="#F7B548"/>
<path d="M197.219 94.6191L185.809 95.5791L207.679 120.759L197.219 94.6191Z" fill="#F7B548"/>
<path d="M212.22 93.3491L209.77 120.829L209.82 120.979L224.19 92.3391L212.22 93.3491Z" fill="#BF8F68"/>
<path d="M211.819 90.5892L221.449 89.7692L215.399 84.3992L208.929 84.9492L211.819 90.5892Z" fill="#BF8F68"/>
<path d="M59.6994 108.639L55.1494 105.109L54.9694 103.019L54.9994 102.509L57.3294 98.7593L49.4694 99.5093L52.7594 102.699L52.8694 103.199L53.0494 105.289L49.4294 109.589C48.0194 111.089 46.8494 112.929 47.0194 114.999C47.3394 118.749 51.1894 121.479 55.6394 121.099C60.0794 120.729 63.4294 117.389 63.1194 113.639C62.9294 111.529 61.4894 109.839 59.6994 108.639Z" fill="#FFD590"/>
<path d="M59.6991 108.639L55.1491 105.109L53.3691 105.259L57.9191 108.789C59.7091 109.979 61.1491 111.679 61.3291 113.799C61.6191 117.289 58.7291 120.429 54.7391 121.139C55.0291 121.139 55.3291 121.129 55.6291 121.109C60.0691 120.739 63.4191 117.399 63.1091 113.649C62.9291 111.529 61.4891 109.839 59.6991 108.639Z" fill="#F7B548"/>
<path d="M56.1194 103.709L51.8094 104.069C51.4794 104.099 51.1794 103.849 51.1594 103.519L51.1294 103.179C51.0994 102.849 51.3494 102.549 51.6794 102.529L55.9894 102.169C56.3194 102.139 56.6194 102.389 56.6394 102.719L56.6694 103.059C56.6994 103.389 56.4594 103.679 56.1194 103.709Z" fill="#F7B548"/>
<path d="M56.2493 105.159L51.9393 105.519C51.6093 105.549 51.3093 105.299 51.2893 104.969L51.2593 104.629C51.2293 104.299 51.4793 103.999 51.8093 103.979L56.1193 103.619C56.4493 103.589 56.7493 103.839 56.7693 104.169L56.7993 104.509C56.8293 104.839 56.5793 105.129 56.2493 105.159Z" fill="#F7B548"/>
<path d="M66.2493 134.139L62.7293 134.439L59.1093 138.509L61.3793 129.579L58.7093 126.599L55.3793 129.189L54.5493 139.139L51.1793 132.569L46.8293 131.869L46.0693 136.199L54.2193 142.999L52.5693 144.179L53.1493 147.679L62.0393 146.929L62.4693 144.169L60.5793 142.609L66.5793 138.019L66.2493 134.139Z" fill="#FFD590"/>
<path d="M65.3994 135.299L65.3794 137.129L63.8094 136.769L59.1094 142.759L59.6394 142.709L65.9894 137.719L65.8794 134.789L65.3994 135.299Z" fill="#F7B548"/>
<path d="M56.9093 142.939L60.4393 129.989L58.9493 130.649L58.2493 130.639L56.5293 142.979L56.9093 142.939Z" fill="#F7B548"/>
<path d="M55.9092 143.029L49.0292 135.879L46.9492 136.189L55.2192 143.089L55.9092 143.029Z" fill="#F7B548"/>
<path d="M49.7795 134.749L50.4395 133.499L47.4995 132.679L49.7795 134.749Z" fill="#F7B548"/>
<path d="M129.819 189.269L106.089 181.799C103.939 181.119 103.369 178.359 105.069 176.879L110.459 172.199C111.219 171.539 112.259 171.329 113.209 171.629L129.809 176.859C130.759 177.159 131.489 177.929 131.739 178.899L133.479 185.819C134.019 188.009 131.959 189.949 129.819 189.269Z" fill="#505050"/>
<path d="M183.959 256.639C183.859 246.079 182.609 223.599 182.229 209.699C182.039 202.609 177.369 196.429 170.609 194.299L69.6692 162.499C62.9092 160.369 55.5392 162.759 51.3192 168.459C43.0392 179.639 29.1292 197.339 22.9992 205.939C11.0892 222.639 27.5292 240.219 45.6692 232.629C56.2492 228.199 65.1993 224.539 69.6893 222.549C71.7293 221.649 74.0392 221.519 76.1692 222.189L131.079 239.489C133.209 240.159 135.029 241.589 136.179 243.499C138.719 247.699 143.959 255.829 150.089 265.519C160.599 282.129 184.149 277.139 183.959 256.639Z" fill="#505050"/>
<path d="M171.249 199.219L70.3191 167.429C63.5591 165.299 56.1891 167.689 51.9691 173.389C43.6891 184.569 29.7791 202.269 23.6491 210.869C20.9291 214.689 19.6991 218.549 19.6191 222.149C22.3991 231.639 33.6591 237.659 45.6691 232.619C56.2491 228.189 65.1991 224.529 69.6891 222.539C71.7391 221.629 74.0391 221.509 76.1691 222.179L131.079 239.479C133.209 240.149 135.029 241.579 136.179 243.489C138.719 247.689 143.959 255.819 150.089 265.509C160.599 282.129 184.149 277.139 183.959 256.629C183.859 246.289 182.659 224.529 182.259 210.569C180.759 205.269 176.689 200.929 171.249 199.219Z" fill="url(#paint14_radial)"/>
<path d="M162.759 210.049C165.399 210.049 167.539 207.909 167.539 205.269C167.539 202.629 165.399 200.489 162.759 200.489C160.12 200.489 157.979 202.629 157.979 205.269C157.979 207.909 160.12 210.049 162.759 210.049Z" fill="#76AFF2"/>
<path d="M157.03 228.249C159.669 228.249 161.81 226.109 161.81 223.469C161.81 220.83 159.669 218.689 157.03 218.689C154.39 218.689 152.25 220.83 152.25 223.469C152.25 226.109 154.39 228.249 157.03 228.249Z" fill="#76AFF2"/>
<path d="M168.989 222.019C171.629 222.019 173.769 219.879 173.769 217.239C173.769 214.599 171.629 212.459 168.989 212.459C166.35 212.459 164.209 214.599 164.209 217.239C164.209 219.879 166.35 222.019 168.989 222.019Z" fill="#76AFF2"/>
<path d="M150.789 216.289C153.429 216.289 155.569 214.149 155.569 211.509C155.569 208.869 153.429 206.729 150.789 206.729C148.149 206.729 146.009 208.869 146.009 211.509C146.009 214.149 148.149 216.289 150.789 216.289Z" fill="#76AFF2"/>
<path d="M66.5092 198.919C74.1694 198.919 80.3792 192.709 80.3792 185.049C80.3792 177.389 74.1694 171.179 66.5092 171.179C58.849 171.179 52.6392 177.389 52.6392 185.049C52.6392 192.709 58.849 198.919 66.5092 198.919Z" fill="#76AFF2"/>
<path d="M92.2791 220.809C97.5092 220.809 101.749 216.569 101.749 211.339C101.749 206.109 97.5092 201.869 92.2791 201.869C87.0489 201.869 82.8091 206.109 82.8091 211.339C82.8091 216.569 87.0489 220.809 92.2791 220.809Z" fill="#969696"/>
<path d="M126.949 231.729C132.18 231.729 136.419 227.489 136.419 222.259C136.419 217.029 132.18 212.789 126.949 212.789C121.719 212.789 117.479 217.029 117.479 222.259C117.479 227.489 121.719 231.729 126.949 231.729Z" fill="#969696"/>
<path d="M114.369 187.569L99.8992 183.009C98.6492 182.619 97.3192 183.309 96.9292 184.559C96.5392 185.809 97.2292 187.139 98.4792 187.529L112.949 192.089L114.369 187.569Z" fill="#E5E5E1"/>
<path d="M133.759 193.679L118.969 189.019L117.549 193.529L132.339 198.189C133.589 198.579 134.919 197.889 135.309 196.639C135.699 195.399 135.009 194.069 133.759 193.679Z" fill="#E5E5E1"/>
<path d="M126.829 116.559C122.509 116.129 101.119 110.289 97.6293 99.4293C96.6193 96.2893 96.6893 91.4193 102.769 86.0793L106.399 90.2093C101.749 94.2893 102.589 96.8893 102.859 97.7493C105.159 104.899 122.889 110.639 127.369 111.089L126.829 116.559Z" fill="url(#paint15_linear)"/>
<path d="M106.409 91.1893C109.364 91.1893 111.759 88.794 111.759 85.8393C111.759 82.8845 109.364 80.4893 106.409 80.4893C103.454 80.4893 101.059 82.8845 101.059 85.8393C101.059 88.794 103.454 91.1893 106.409 91.1893Z" fill="url(#paint16_radial)"/>
<path d="M128.27 119.789C131.307 119.789 133.77 117.327 133.77 114.289C133.77 111.252 131.307 108.789 128.27 108.789C125.232 108.789 122.77 111.252 122.77 114.289C122.77 117.327 125.232 119.789 128.27 119.789Z" fill="url(#paint17_radial)"/>
<path d="M110.82 123.569L106.25 123.819L110.65 148.719L119.13 148.249C119.78 148.209 120.07 147.619 119.79 146.909L110.82 123.569Z" fill="#522CD5"/>
<path d="M101.769 142.759C101.249 143.439 101.539 144.239 101.919 145.199L103.099 148.139C103.309 148.669 103.879 149.069 104.359 149.049L115.039 148.459C115.589 148.429 115.839 147.919 115.599 147.319L114.479 144.259C114.039 143.149 114.489 142.439 114.509 141.149C114.549 138.589 111.989 129.979 109.459 123.639L105.109 123.879C106.099 127.679 106.769 136.199 101.769 142.759Z" fill="url(#paint18_linear)"/>
<path d="M114.479 144.259L115.599 147.319C115.839 147.919 115.589 148.429 115.039 148.459L104.359 149.049C103.869 149.079 103.309 148.669 103.099 148.139L101.919 145.199C101.639 144.489 101.409 143.869 101.519 143.319L114.339 142.609C114.269 143.149 114.239 143.649 114.479 144.259Z" fill="url(#paint19_radial)"/>
<defs>
<linearGradient id="paint0_linear" x1="133.95" y1="4.13429" x2="133.95" y2="191.131" gradientUnits="userSpaceOnUse">
<stop offset="0.1855" stop-color="#98C2F5"/>
<stop offset="0.4395" stop-color="#CAE0FA"/>
</linearGradient>
<linearGradient id="paint1_linear" x1="128.612" y1="112.929" x2="142.865" y2="130.524" gradientUnits="userSpaceOnUse">
<stop stop-color="#522CD5"/>
<stop offset="0.4397" stop-color="#8A6FE8"/>
</linearGradient>
<linearGradient id="paint2_linear" x1="128.612" y1="112.929" x2="142.865" y2="130.524" gradientUnits="userSpaceOnUse">
<stop offset="0.3459" stop-color="#522CD5"/>
<stop offset="0.566" stop-color="#8A6FE8"/>
</linearGradient>
<linearGradient id="paint3_linear" x1="147.553" y1="124.621" x2="173.815" y2="139.702" gradientUnits="userSpaceOnUse">
<stop stop-color="#522CD5"/>
<stop offset="0.4397" stop-color="#8A6FE8"/>
</linearGradient>
<radialGradient id="paint4_radial" cx="0" cy="0" r="1" gradientUnits="userSpaceOnUse" gradientTransform="translate(169.798 133.309) rotate(-26.711) scale(4.57869)">
<stop offset="0.034" stop-color="#522CD5"/>
<stop offset="1" stop-color="#8A6FE8"/>
</radialGradient>
<linearGradient id="paint5_linear" x1="113.239" y1="107.456" x2="110.294" y2="130.888" gradientUnits="userSpaceOnUse">
<stop offset="0.0562" stop-color="#522CD5"/>
<stop offset="0.3344" stop-color="#8A6FE8"/>
</linearGradient>
<radialGradient id="paint6_radial" cx="0" cy="0" r="1" gradientUnits="userSpaceOnUse" gradientTransform="translate(76.6601 267.825) scale(240.848)">
<stop offset="0.2387" stop-color="#969696"/>
<stop offset="0.9482" stop-color="#505050"/>
</radialGradient>
<radialGradient id="paint7_radial" cx="0" cy="0" r="1" gradientUnits="userSpaceOnUse" gradientTransform="translate(123.71 71.6234) rotate(-4.81265) scale(25.223)">
<stop offset="0.4744" stop-color="#A08BE8"/>
<stop offset="1" stop-color="#8065E0"/>
</radialGradient>
<radialGradient id="paint8_radial" cx="0" cy="0" r="1" gradientUnits="userSpaceOnUse" gradientTransform="translate(133.573 70.4442) rotate(-4.81265) scale(27.0147)">
<stop offset="0.0933" stop-color="#E1DFDD"/>
<stop offset="0.6573" stop-color="white"/>
</radialGradient>
<radialGradient id="paint9_radial" cx="0" cy="0" r="1" gradientUnits="userSpaceOnUse" gradientTransform="translate(150.983 97.4953) rotate(-4.81265) scale(5.65285)">
<stop stop-color="#8065E0"/>
<stop offset="1" stop-color="#512BD4"/>
</radialGradient>
<radialGradient id="paint10_radial" cx="0" cy="0" r="1" gradientUnits="userSpaceOnUse" gradientTransform="translate(162.895 84.4821) rotate(6.00991) scale(20.9749)">
<stop stop-color="#BF8F68"/>
<stop offset="0.3028" stop-color="#F7B548"/>
<stop offset="0.3938" stop-color="#F7B548"/>
</radialGradient>
<radialGradient id="paint11_radial" cx="0" cy="0" r="1" gradientUnits="userSpaceOnUse" gradientTransform="translate(90.9106 58.6447) rotate(-4.81265) scale(15.9588)">
<stop offset="0.0854" stop-color="#BF8F68"/>
<stop offset="1" stop-color="#F7B548"/>
</radialGradient>
<radialGradient id="paint12_radial" cx="0" cy="0" r="1" gradientUnits="userSpaceOnUse" gradientTransform="translate(108.581 60.9914) rotate(-4.81265) scale(25.9917)">
<stop offset="0.0854" stop-color="#BF8F68"/>
<stop offset="1" stop-color="#F7B548"/>
</radialGradient>
<radialGradient id="paint13_radial" cx="0" cy="0" r="1" gradientUnits="userSpaceOnUse" gradientTransform="translate(119.355 75.5823) rotate(-4.81265) scale(26.7481)">
<stop offset="0.4068" stop-color="#FFD590"/>
<stop offset="1" stop-color="#F7B548"/>
</radialGradient>
<radialGradient id="paint14_radial" cx="0" cy="0" r="1" gradientUnits="userSpaceOnUse" gradientTransform="translate(101.417 84.3681) scale(172.664)">
<stop stop-color="#969696"/>
<stop offset="0.9458" stop-color="#505050"/>
</radialGradient>
<linearGradient id="paint15_linear" x1="97.1466" y1="101.321" x2="127.375" y2="101.321" gradientUnits="userSpaceOnUse">
<stop offset="0.2495" stop-color="#967FE6"/>
<stop offset="1" stop-color="#8A6FE8"/>
</linearGradient>
<radialGradient id="paint16_radial" cx="0" cy="0" r="1" gradientUnits="userSpaceOnUse" gradientTransform="translate(105.023 84.6004) rotate(-4.81265) scale(5.35524)">
<stop stop-color="#8065E0"/>
<stop offset="1" stop-color="#512BD4"/>
</radialGradient>
<radialGradient id="paint17_radial" cx="0" cy="0" r="1" gradientUnits="userSpaceOnUse" gradientTransform="translate(126.111 112.362) rotate(-4.81265) scale(5.49605)">
<stop stop-color="#8065E0"/>
<stop offset="1" stop-color="#512BD4"/>
</radialGradient>
<linearGradient id="paint18_linear" x1="111.289" y1="124.63" x2="100.747" y2="147.666" gradientUnits="userSpaceOnUse">
<stop stop-color="#522CD5"/>
<stop offset="0.4397" stop-color="#8A6FE8"/>
</linearGradient>
<radialGradient id="paint19_radial" cx="0" cy="0" r="1" gradientUnits="userSpaceOnUse" gradientTransform="translate(106.447 138.017) rotate(176.832) scale(9.75209 10.804)">
<stop offset="0.034" stop-color="#522CD5"/>
<stop offset="0.9955" stop-color="#8A6FE8"/>
</radialGradient>
</defs>
</svg>
