<svg width="232" height="239" viewBox="0 0 232 239" fill="none" xmlns="http://www.w3.org/2000/svg">
<path d="M161.827 196.705C164.754 210.577 179.318 222.487 180.24 223.031C181.162 223.575 153.867 223.854 153.867 223.854C153.867 223.854 145.845 204.672 149.31 196.222C149.636 195.428 161.827 196.705 161.827 196.705Z" fill="#A08BE8"/>
<path d="M155.011 221.972L178.954 222.09C178.954 222.09 184.518 225.83 185.997 228.525C187.127 230.587 187.051 235.216 186.952 237.277C186.924 237.854 186.451 238.303 185.874 238.303L162.782 238.261C162.04 238.261 161.444 237.655 161.449 236.913C161.473 234.355 161.033 228.908 160.074 227.353C158.627 225.026 155.011 221.972 155.011 221.972Z" fill="#D0C5F3"/>
<path d="M147.745 194.322C143.33 209.745 145.136 234.195 145.32 235.49C145.576 237.282 145.817 238.535 148.365 238.535C151.536 238.535 165.151 238.535 165.151 238.535L157.999 195.315L147.745 194.322Z" fill="#8065E0"/>
<path d="M161.827 196.705C162.896 204.27 170.44 214.908 184.74 226.038C186.413 227.339 187.274 228.714 187.274 230.648V236.842C187.274 237.759 186.531 238.502 185.614 238.502H162.659C162.012 238.502 161.487 237.977 161.487 237.329V230.18C161.487 227.953 161.038 226.809 158.755 225.168C153.035 221.064 149.423 207.22 149.305 197.371C149.187 187.522 161.827 196.705 161.827 196.705Z" fill="#A08BE8"/>
<path d="M187.056 229.126C187.194 229.599 187.274 230.1 187.274 230.648V236.842C187.274 237.76 186.532 238.502 185.615 238.502H162.66C162.012 238.502 161.487 237.977 161.487 237.329V230.18C161.487 229.797 161.473 229.452 161.44 229.126H187.056Z" fill="#D0C5F3"/>
<path d="M91.6481 196.818C91.8797 210.691 104.128 222.601 104.946 223.145C105.763 223.688 78.412 223.967 78.412 223.967C78.412 223.967 74.1151 204.785 79.2251 196.336C79.7026 195.546 91.6481 196.818 91.6481 196.818Z" fill="#A08BE8"/>
<path d="M79.9204 222.09L103.84 222.208C103.84 222.208 108.676 225.948 109.631 228.643C110.359 230.705 109.385 235.334 108.884 237.395C108.742 237.972 108.184 238.421 107.607 238.421L84.5247 238.379C83.7825 238.379 83.3051 237.774 83.4563 237.031C83.9763 234.473 84.6003 229.026 83.9385 227.471C82.9458 225.145 79.9204 222.09 79.9204 222.09Z" fill="#D0C5F3"/>
<path d="M78.034 194.44C70.6218 209.863 67.6768 234.313 67.6106 235.608C67.5161 237.4 67.5161 238.653 70.064 238.653C73.2359 238.653 86.8501 238.653 86.8501 238.653L88.0981 195.433L78.034 194.44Z" fill="#8065E0"/>
<path d="M91.6485 196.818C91.2419 204.383 96.7254 215.022 108.86 226.152C110.278 227.452 110.874 228.828 110.496 230.762L109.29 236.956C109.111 237.873 108.227 238.615 107.31 238.615H84.3544C83.7068 238.615 83.2861 238.09 83.409 237.443L84.7988 230.294C85.2337 228.067 85.0068 226.922 83.0403 225.282C78.1193 221.178 77.1975 207.333 78.9938 197.485C80.7902 187.636 91.6485 196.818 91.6485 196.818Z" fill="#A08BE8"/>
<path d="M110.58 229.239C110.628 229.712 110.609 230.213 110.5 230.762L109.295 236.956C109.115 237.873 108.231 238.615 107.314 238.615H84.3588C83.7112 238.615 83.2905 238.09 83.4134 237.443L84.8032 230.294C84.8788 229.911 84.9308 229.566 84.9592 229.239H110.58Z" fill="#D0C5F3"/>
<path d="M93.0237 187.187L81.0498 184.421L90.0172 145.626L101.991 148.397L93.0237 187.187Z" fill="url(#paint0_linear)"/>
<path d="M95.0329 178.879H80.3125C78.4925 178.879 76.7293 180.354 76.3795 182.175L73.893 194.96C73.5385 196.78 74.7297 198.255 76.545 198.255H91.2653C93.0853 198.255 94.8485 196.78 95.1983 194.96L97.6848 182.175C98.0394 180.354 96.8528 178.879 95.0329 178.879Z" fill="url(#paint1_radial)"/>
<path d="M84.0137 171.593L96.621 171.622L96.9519 170.203L84.3398 170.175L84.0137 171.593Z" fill="#A08BE8"/>
<path d="M86.8501 159.319L99.4622 159.347L99.7883 157.929L87.181 157.9L86.8501 159.319Z" fill="#A08BE8"/>
<path d="M159.932 184.222H147.641C147.641 163.404 134.344 146.869 129.499 143.205L136.915 133.404C144.427 139.087 159.932 158.988 159.932 184.222Z" fill="url(#paint2_linear)"/>
<path d="M152.064 152.991L140.98 157.909L141.555 159.205L152.639 154.287L152.064 152.991Z" fill="#A08BE8"/>
<path d="M161.681 178.879H146.961C145.141 178.879 143.666 180.354 143.666 182.175V194.96C143.666 196.78 145.141 198.255 146.961 198.255H161.681C163.501 198.255 164.976 196.78 164.976 194.96V182.175C164.976 180.354 163.501 178.879 161.681 178.879Z" fill="url(#paint3_radial)"/>
<path d="M157.079 165.352L145.358 168.458L145.722 169.829L157.442 166.723L157.079 165.352Z" fill="#A08BE8"/>
<path d="M197.518 35.6813C202.646 44.802 206.239 60.6981 199.484 75.4737C195.381 84.4431 185.936 96.065 164.21 100.486L161.761 88.4384C174.945 85.7576 184.125 79.5069 188.309 70.3626C192.838 60.4617 190.819 48.8398 186.81 41.7097L197.518 35.6813Z" fill="url(#paint4_linear)"/>
<path d="M175.006 83.8693L173.755 84.5388L179.478 95.2307L180.729 94.5612L175.006 83.8693Z" fill="#A08BE8"/>
<path d="M190.831 60.7206L190.714 62.1343L202.798 63.1348L202.915 61.7212L190.831 60.7206Z" fill="#A08BE8"/>
<path d="M198.501 77.4596L185.936 74.4998C185.652 74.9017 185.359 75.2941 185.057 75.6818L193.022 85.3226C195.381 82.689 197.158 80.0034 198.501 77.4596Z" fill="#A08BE8"/>
<path d="M194.658 53.0953C201.098 53.0953 206.319 47.8729 206.319 41.4308C206.319 34.9887 201.098 29.7664 194.658 29.7664C188.217 29.7664 182.996 34.9887 182.996 41.4308C182.996 47.8729 188.217 53.0953 194.658 53.0953Z" fill="url(#paint5_radial)"/>
<path d="M198.109 32.5135L193.117 22.0973C191.77 19.3313 188.432 18.1823 185.667 19.5346C182.901 20.8821 181.753 24.2202 183.105 26.9862L188.224 37.6672L198.109 32.5135Z" fill="#D0C5F3"/>
<path d="M189.661 33.4543L179.469 28.0263C176.742 26.5984 173.376 27.6528 171.948 30.3762C170.521 33.1044 171.575 36.4709 174.298 37.8988L184.749 43.4639L189.661 33.4543Z" fill="#D0C5F3"/>
<path d="M215.628 34.6694L212.527 38.4425C210.584 40.8066 207.09 41.1471 204.727 39.2038C202.363 37.2605 202.023 33.7664 203.966 31.4023L207.067 27.6292C209.01 25.2651 212.503 24.9246 214.867 26.8679C217.23 28.8159 217.571 32.3054 215.628 34.6694Z" fill="#D0C5F3"/>
<path d="M221.825 20.7118C223.787 20.1255 225.862 21.2414 226.453 23.2036L229.478 33.2935C230.064 35.2557 228.949 37.3314 226.987 37.9224L10.1707 102.959C8.20894 103.545 6.13372 102.429 5.54282 100.467L2.51744 90.377C1.93127 88.4148 3.04688 86.3391 5.00865 85.7481L221.825 20.7118Z" fill="#FF00FF"/>
<path d="M221.144 18.4471L4.33264 83.4881C1.11816 84.4526 -0.706521 87.8427 0.257821 91.0579L3.28321 101.148C4.24755 104.363 7.63692 106.188 10.8514 105.224L227.663 40.1873C230.877 39.2227 232.702 35.8326 231.738 32.6174L228.712 22.5275C227.753 19.3076 224.363 17.4825 221.144 18.4471Z" fill="#B3AFAB"/>
<path d="M221.144 18.4471L199.167 25.0382L205.686 46.7784L227.663 40.1873C230.877 39.2227 232.702 35.8326 231.738 32.6174L228.712 22.5275C227.753 19.3076 224.363 17.4825 221.144 18.4471Z" fill="#797673"/>
<path d="M18.6703 89.3889L18.6136 89.4079L18.1692 87.9185C17.6209 86.0839 15.6827 85.039 13.8486 85.5922L13.6122 85.6631C11.7781 86.2116 10.7334 88.1502 11.2865 89.9847L11.7308 91.4741L11.5748 91.5214C10.7996 91.753 10.3599 92.571 10.5916 93.3512L11.8915 97.6822C12.1232 98.4576 12.941 98.8973 13.721 98.6657L20.8259 96.5332C21.6011 96.3016 22.0408 95.4836 21.8091 94.7034L20.5092 90.3724C20.2681 89.597 19.4503 89.1573 18.6703 89.3889ZM12.3784 89.6585C12.0097 88.4291 12.7093 87.1336 13.9384 86.7648L14.1748 86.6939C15.4038 86.3251 16.6991 87.0248 17.0678 88.2542L17.5121 89.7436L12.8181 91.1526L12.3784 89.6585Z" fill="#797673"/>
<path d="M163.373 44.0977L28.104 84.6815L29.9198 90.7363L165.189 50.1525L163.373 44.0977Z" fill="#E1DFDD"/>
<path d="M223.082 34.7498L218.856 32.4708C219.196 31.4968 219.248 30.4141 218.932 29.355C218.128 26.6835 215.301 25.1563 212.63 25.9601C209.955 26.7639 208.433 29.5914 209.236 32.2628C210.04 34.939 212.867 36.4614 215.538 35.6576C216.615 35.3361 217.504 34.6789 218.128 33.8373L222.349 36.1116C222.6 36.2439 222.912 36.1541 223.044 35.9035L223.29 35.4449C223.427 35.1943 223.333 34.887 223.082 34.7498ZM215.093 34.1777C213.235 34.7357 211.274 33.6765 210.716 31.8184C210.158 29.9602 211.217 27.998 213.075 27.4401C214.932 26.8821 216.894 27.9412 217.452 29.7994C218.005 31.6576 216.951 33.6198 215.093 34.1777Z" fill="white"/>
<path d="M41.4976 162.189L49.1745 170.818C51.2355 173.101 54.7573 173.281 57.0452 171.22C59.3284 169.158 59.508 165.636 57.447 163.347L47.988 152.945L41.4976 162.189Z" fill="#D0C5F3"/>
<path d="M85.8858 30.3007L74.7912 34.7641L71.7705 22.745L79.7405 19.5393L85.8858 30.3007Z" fill="#D0C5F3"/>
<path d="M83.4041 51.048C89.6804 51.048 94.7682 45.959 94.7682 39.6814C94.7682 33.4038 89.6804 28.3148 83.4041 28.3148C77.1279 28.3148 72.04 33.4038 72.04 39.6814C72.04 45.959 77.1279 51.048 83.4041 51.048Z" fill="#512BD4"/>
<path d="M167.491 109.89C171.58 94.188 168.942 81.6535 168.942 81.6535H172.634L172.724 81.5826C167.434 52.769 142.2 30.9342 111.861 30.9342C77.6839 30.9342 49.978 58.6461 49.978 92.831C49.978 127.016 77.6839 154.728 111.861 154.728C138.83 154.728 161.766 137.47 170.242 113.399C170.492 112.377 170.473 110.543 167.491 109.89Z" fill="url(#paint6_radial)"/>
<path d="M169.996 114.113C169.996 114.113 171.712 110.812 167.491 109.89C171.528 94.3818 169.008 81.9703 168.947 81.6677H104.742C104.742 81.6677 100.696 81.2563 100.696 84.9538C100.696 88.6512 100.847 99.0911 100.847 110.642C100.847 113.016 102.79 114.16 104.322 114.16H170.256C170.091 114.127 169.996 114.113 169.996 114.113Z" fill="url(#paint7_radial)"/>
<path d="M136.669 109.838C136.669 109.838 142.838 104.954 144.044 104.051C145.249 103.148 146.303 103.096 147.405 104.051C148.511 105.006 154.689 109.838 154.689 109.838H136.669Z" fill="#A08BE8"/>
<path d="M169.996 114.113C169.996 114.113 171.712 110.812 167.491 109.89C167.495 109.876 167.5 109.857 167.505 109.843H104.369C102.899 109.843 101.008 108.968 100.847 107.54C100.847 108.562 100.852 109.592 100.852 110.637C100.852 112.793 102.454 113.933 103.891 114.122C104.033 114.141 104.18 114.155 104.326 114.155H108.642H170.261C170.091 114.127 169.996 114.113 169.996 114.113Z" fill="url(#paint8_radial)"/>
<path d="M165.222 124.179H58.5107C60.9074 128.25 63.7532 132.018 66.9866 135.422H156.755C159.979 132.013 162.83 128.25 165.222 124.179Z" fill="url(#paint9_radial)"/>
<path d="M152.255 120.964H132.283V138.633H152.255V120.964Z" fill="#512BD4"/>
<path d="M136.491 132.214C136.356 132.214 136.243 132.172 136.145 132.083C136.051 131.994 136 131.886 136 131.755C136 131.629 136.042 131.517 136.136 131.423C136.229 131.329 136.341 131.283 136.477 131.278C136.613 131.278 136.73 131.32 136.823 131.409C136.922 131.498 136.973 131.61 136.973 131.737C136.973 131.863 136.926 131.971 136.833 132.064C136.744 132.167 136.627 132.214 136.491 132.214Z" fill="white"/>
<path d="M141.861 132.055L140.986 132.069L138.628 128.47C138.568 128.381 138.521 128.282 138.479 128.184H138.46C138.479 128.292 138.493 128.516 138.497 128.863L138.549 132.102L137.777 132.116L137.702 127.173L138.633 127.159L140.911 130.674C141.009 130.819 141.07 130.922 141.098 130.974H141.112C141.089 130.843 141.075 130.623 141.07 130.309L141.023 127.122L141.791 127.108L141.861 132.055Z" fill="white"/>
<path d="M145.627 131.999L142.923 132.041L142.849 127.098L145.445 127.056L145.454 127.754L143.658 127.782L143.681 129.181L145.337 129.158L145.347 129.85L143.691 129.874L143.714 131.334L145.618 131.306L145.627 131.999Z" fill="white"/>
<path d="M149.406 127.693L148.022 127.716L148.087 131.961L147.287 131.975L147.222 127.73L145.842 127.753L145.833 127.056L149.397 127L149.406 127.693Z" fill="white"/>
<path d="M17.9896 165.872H15.2715C14.6002 165.872 13.9715 166.198 13.5886 166.752L6.40333 177.059C6.07243 177.532 5.8928 178.099 5.8928 178.681L5.85498 207.225C5.85498 208.36 6.77205 209.277 7.90657 209.277H25.3593C26.4938 209.277 27.4109 208.36 27.4109 207.225V178.44C27.4109 178.019 27.2832 177.607 27.0374 177.262L19.6725 166.752C19.2849 166.194 18.6561 165.872 17.9896 165.872Z" fill="#E38BB0"/>
<path d="M22.5985 165.872H17.7437L9.43805 177.782H9.39551V209.267H30.9467V177.782L22.5985 165.872Z" fill="#D34581"/>
<path d="M59.3757 171.258H20.6697C19.8472 171.258 19.1807 170.591 19.1807 169.768C19.1807 168.945 19.8472 168.279 20.6697 168.279H59.3757C60.1983 168.279 60.8648 168.945 60.8648 169.768C60.8648 170.591 60.1983 171.258 59.3757 171.258Z" fill="#E38BB0"/>
<path d="M59.891 165.872H55.0362L46.7258 177.782H46.688V209.267H68.2391V177.782L59.891 165.872Z" fill="#E38BB0"/>
<path d="M62.1977 165.872H59.8199C59.0447 165.872 58.312 166.25 57.8676 166.889L50.7249 177.078C50.4034 177.537 50.2285 178.085 50.2285 178.648V206.889C50.2285 208.204 51.2921 209.267 52.6063 209.267H69.4019C70.716 209.267 71.7797 208.204 71.7797 206.889V178.534C71.7797 178.047 71.6284 177.57 71.3495 177.168L64.1406 166.884C63.7009 166.25 62.9729 165.872 62.1977 165.872Z" fill="url(#paint10_radial)"/>
<path d="M47.728 209.258L8.294 209.409C7.01767 209.409 5.98242 208.374 5.98242 207.097V180.236C5.98242 178.96 7.01767 177.924 8.294 177.924H47.8698C49.1462 177.924 50.1814 178.96 50.1814 180.236V207.097C50.1814 208.374 49.0043 209.258 47.728 209.258Z" fill="#E38BB0"/>
<path d="M29.4764 158.175L27.6423 169.579C27.1743 172.619 29.259 175.466 32.3033 175.934C35.3428 176.402 38.1886 174.317 38.6566 171.272L40.538 159.579L29.4764 158.175Z" fill="#D0C5F3"/>
<path d="M36.8745 159.461L35.3287 170.908C34.9364 173.962 37.0967 176.752 40.1504 177.144C43.2042 177.537 45.9932 175.376 46.3856 172.321L47.9692 160.586L36.8745 159.461Z" fill="#D0C5F3"/>
<path d="M26.607 154.77L22.4754 165.555C21.3929 168.435 22.8536 171.65 25.7325 172.733C28.6113 173.815 31.8258 172.354 32.9083 169.475L37.1486 158.416L26.607 154.77Z" fill="#D0C5F3"/>
<path d="M209.534 20.6788L211.974 24.9058C213.505 27.5583 212.598 30.9437 209.946 32.4756C207.294 34.0076 203.909 33.0998 202.377 30.4473L199.938 26.2202C198.407 23.5677 199.314 20.1823 201.966 18.6504C204.613 17.1185 208.003 18.0263 209.534 20.6788Z" fill="#D0C5F3"/>
<path d="M200.383 21.4116L202.822 25.6386C204.353 28.2912 203.446 31.6765 200.794 33.2085C198.142 34.7404 194.757 33.8326 193.226 31.1801L190.786 26.9531C189.255 24.3006 190.162 20.9152 192.814 19.3832C195.466 17.856 198.856 18.7639 200.383 21.4116Z" fill="#D0C5F3"/>
<path d="M97.2589 45.1188L70.3897 60.5043C68.9904 61.3034 67.213 60.6083 66.7261 59.0717L63.4644 48.7406L97.2589 45.1188Z" fill="#605D5A"/>
<path d="M59.82 45.6483C55.2488 46.8729 54.2183 53.9368 60.8647 53.2087C72.0539 51.9794 112.348 44.854 130.784 35.4449C140.139 30.6694 141.061 22.6787 124.308 25.18C107.555 27.6812 59.82 45.6483 59.82 45.6483Z" fill="#FAE969"/>
<path d="M58.4253 45.984C58.6901 47.5018 60.1177 48.5278 61.6398 48.2961C66.9201 47.4923 79.5794 45.2937 95.198 40.6648C111.455 35.842 120.28 31.0193 123.627 28.9483C124.61 28.3384 125.05 27.1469 124.7 26.0452C122.578 19.3454 109.261 -6.74953 81.3143 1.64774C53.06 10.1348 56.889 37.1139 58.4253 45.984Z" fill="url(#paint11_radial)"/>
<path d="M77.7783 2.86756C73.349 4.61226 69.8367 6.86288 67.0713 9.43501C91.3784 4.33802 104.733 18.2578 108.628 23.2272C109.413 24.2295 110.741 24.6362 111.96 24.2532L113.771 23.6905C115.633 23.1089 116.347 20.8394 115.137 19.3122C110.159 13.0048 97.2637 -0.087564 77.7783 2.86756Z" fill="#FAE969"/>
<path d="M34.2889 159.475C29.6894 150.075 27.0043 134.004 34.5867 119.635C39.191 110.912 49.2835 99.8476 71.2222 96.6703L72.9855 108.836C59.669 110.765 50.1485 116.481 45.4545 125.375C40.3728 135.002 41.7294 146.723 45.3221 154.066L34.2889 159.475Z" fill="url(#paint12_linear)"/>
<path d="M55.6847 101.031L54.3984 101.628L59.5043 112.628L60.7906 112.031L55.6847 101.031Z" fill="#A08BE8"/>
<path d="M30.5726 131.759L30.3755 133.164L42.383 134.849L42.5802 133.445L30.5726 131.759Z" fill="#A08BE8"/>
<path d="M35.6787 117.711L48.0544 121.385C48.357 120.997 48.6737 120.623 48.9999 120.255L41.5971 110.169C39.0917 112.666 37.1678 115.247 35.6787 117.711Z" fill="#A08BE8"/>
<path d="M75.4481 112.278C81.7243 112.278 86.8122 107.189 86.8122 100.911C86.8122 94.6339 81.7243 89.5449 75.4481 89.5449C69.1719 89.5449 64.084 94.6339 64.084 100.911C64.084 107.189 69.1719 112.278 75.4481 112.278Z" fill="url(#paint13_radial)"/>
<path d="M37.47 165.565C43.9107 165.565 49.1319 160.342 49.1319 153.9C49.1319 147.458 43.9107 142.236 37.47 142.236C31.0293 142.236 25.8081 147.458 25.8081 153.9C25.8081 160.342 31.0293 165.565 37.47 165.565Z" fill="url(#paint14_radial)"/>
<path d="M165.248 95.4067C165.315 90.9105 163.203 87.2333 160.529 87.1934C157.856 87.1536 155.635 90.7662 155.568 95.2624C155.501 99.7587 157.614 103.436 160.287 103.476C162.96 103.516 165.181 99.9029 165.248 95.4067Z" fill="#512BD4"/>
<path d="M160.348 91.0295C158.58 92.7978 158.58 95.6631 160.348 97.4314C161.559 98.6418 163.284 99.0248 164.82 98.5757C165.08 97.6064 165.232 96.5331 165.251 95.4078C165.284 93.2044 164.792 91.1997 163.965 89.7198C162.674 89.6063 161.341 90.0413 160.348 91.0295Z" fill="#8065E0"/>
<path d="M121.545 103.515C124.218 103.475 126.331 99.7976 126.264 95.3014C126.197 90.8052 123.976 87.1926 121.303 87.2324C118.629 87.2723 116.517 90.9495 116.584 95.4457C116.651 99.9419 118.872 103.555 121.545 103.515Z" fill="#512BD4"/>
<path d="M121.387 91.2942C119.619 93.0626 119.619 95.9279 121.387 97.6962C122.592 98.9019 124.303 99.2801 125.83 98.8451C126.123 97.7671 126.284 96.5662 126.265 95.2943C126.237 93.2517 125.759 91.3983 124.998 89.9845C123.708 89.871 122.374 90.306 121.387 91.2942Z" fill="#8065E0"/>
<path d="M161.114 70.8544C159.993 71.0624 158.835 70.4997 158.329 69.4217C151.688 55.2939 138.957 45.0621 124.176 41.2937C120.186 40.2771 121.004 35.1943 125.372 36.3055C141.647 40.4332 155.663 51.691 162.971 67.2373C163.576 68.5186 163.023 70.0506 161.742 70.651C161.534 70.7456 161.326 70.8118 161.114 70.8544Z" fill="url(#paint15_radial)"/>
<path d="M60.4065 109.394C61.541 109.28 62.6472 109.938 63.0632 111.053C69.9601 129.64 87.1623 142.799 106.889 144.576C108.302 144.704 109.342 145.952 109.214 147.361C109.087 148.775 107.839 149.815 106.43 149.688C84.7419 147.73 65.8333 133.267 58.2556 112.836C57.764 111.507 58.44 110.032 59.7683 109.536C59.9763 109.465 60.1938 109.413 60.4065 109.394Z" fill="url(#paint16_radial)"/>
<defs>
<linearGradient id="paint0_linear" x1="91.5207" y1="145.626" x2="91.5207" y2="187.189" gradientUnits="userSpaceOnUse">
<stop offset="0.2368" stop-color="#958FE7"/>
<stop offset="0.4462" stop-color="#BBB7EF"/>
</linearGradient>
<radialGradient id="paint1_radial" cx="0" cy="0" r="1" gradientUnits="userSpaceOnUse" gradientTransform="translate(87.7635 184.286) scale(15.0769 15.0801)">
<stop stop-color="#8065E0"/>
<stop offset="1" stop-color="#512BD4"/>
</radialGradient>
<linearGradient id="paint2_linear" x1="135.883" y1="133.777" x2="154.912" y2="186.048" gradientUnits="userSpaceOnUse">
<stop offset="0.3155" stop-color="#958FE7"/>
<stop offset="0.4497" stop-color="#BBB7EF"/>
</linearGradient>
<radialGradient id="paint3_radial" cx="0" cy="0" r="1" gradientUnits="userSpaceOnUse" gradientTransform="translate(155.63 183.384) scale(13.4884 13.4914)">
<stop stop-color="#8065E0"/>
<stop offset="1" stop-color="#512BD4"/>
</radialGradient>
<linearGradient id="paint4_linear" x1="155.151" y1="84.787" x2="208.192" y2="54.1706" gradientUnits="userSpaceOnUse">
<stop offset="0.0932" stop-color="#958FE7"/>
<stop offset="0.2839" stop-color="#BBB7EF"/>
</linearGradient>
<radialGradient id="paint5_radial" cx="0" cy="0" r="1" gradientUnits="userSpaceOnUse" gradientTransform="translate(194.656 41.4291) scale(11.663 11.6655)">
<stop stop-color="#A08BE8"/>
<stop offset="0.9913" stop-color="#8065E0"/>
</radialGradient>
<radialGradient id="paint6_radial" cx="0" cy="0" r="1" gradientUnits="userSpaceOnUse" gradientTransform="translate(120.706 81.6761) scale(61.6295 61.6429)">
<stop offset="0.4744" stop-color="#A08BE8"/>
<stop offset="0.8618" stop-color="#8065E0"/>
</radialGradient>
<radialGradient id="paint7_radial" cx="0" cy="0" r="1" gradientUnits="userSpaceOnUse" gradientTransform="translate(108.825 71.6494) scale(48.2719 48.2824)">
<stop offset="0.0933" stop-color="#E1DFDD"/>
<stop offset="0.8998" stop-color="white"/>
</radialGradient>
<radialGradient id="paint8_radial" cx="0" cy="0" r="1" gradientUnits="userSpaceOnUse" gradientTransform="translate(120.441 110.509) scale(43.1874 43.1969)">
<stop stop-color="#512BD4"/>
<stop offset="0.7715" stop-color="#6645D9"/>
<stop offset="0.8738" stop-color="#7659DD"/>
<stop offset="0.9583" stop-color="#8065E0"/>
</radialGradient>
<radialGradient id="paint9_radial" cx="0" cy="0" r="1" gradientUnits="userSpaceOnUse" gradientTransform="translate(80.1339 131.356) scale(37.9379 37.9461)">
<stop offset="0.4614" stop-color="#A08BE8"/>
<stop offset="0.5268" stop-color="#A793EA"/>
<stop offset="0.8352" stop-color="#C5B7F0"/>
<stop offset="1" stop-color="#D0C5F3"/>
</radialGradient>
<radialGradient id="paint10_radial" cx="0" cy="0" r="1" gradientUnits="userSpaceOnUse" gradientTransform="translate(74.111 179.678) scale(48.4271 48.4376)">
<stop offset="0.0365" stop-color="#E38BB0"/>
<stop offset="0.9978" stop-color="#D34581"/>
</radialGradient>
<radialGradient id="paint11_radial" cx="0" cy="0" r="1" gradientUnits="userSpaceOnUse" gradientTransform="translate(69.5057 17.9854) scale(29.3413 29.3477)">
<stop offset="0.1473" stop-color="#FAE969"/>
<stop offset="0.8465" stop-color="#E8D441"/>
</radialGradient>
<linearGradient id="paint12_linear" x1="79.2828" y1="110.635" x2="24.3855" y2="142.323" gradientUnits="userSpaceOnUse">
<stop offset="0.1351" stop-color="#958FE7"/>
<stop offset="0.3878" stop-color="#BBB7EF"/>
</linearGradient>
<radialGradient id="paint13_radial" cx="0" cy="0" r="1" gradientUnits="userSpaceOnUse" gradientTransform="translate(75.0738 96.9913) scale(11.3663 11.3688)">
<stop stop-color="#8065E0"/>
<stop offset="1" stop-color="#512BD4"/>
</radialGradient>
<radialGradient id="paint14_radial" cx="0" cy="0" r="1" gradientUnits="userSpaceOnUse" gradientTransform="translate(36.8541 145.191) scale(22.6643 22.6693)">
<stop stop-color="#A08BE8"/>
<stop offset="0.9913" stop-color="#8065E0"/>
</radialGradient>
<radialGradient id="paint15_radial" cx="0" cy="0" r="1" gradientUnits="userSpaceOnUse" gradientTransform="translate(142.422 53.5105) rotate(-10.4829) scale(19.1649 19.1688)">
<stop offset="0.3607" stop-color="#BDB9F0"/>
<stop offset="0.5611" stop-color="#C3BCEB" stop-opacity="0.3855"/>
<stop offset="0.6338" stop-color="#CEC3E2" stop-opacity="0.3217"/>
<stop offset="0.8689" stop-color="#EDD6C9" stop-opacity="0.1152"/>
<stop offset="1" stop-color="#F9DDBF" stop-opacity="0"/>
</radialGradient>
<radialGradient id="paint16_radial" cx="0" cy="0" r="1" gradientUnits="userSpaceOnUse" gradientTransform="translate(83.6881 129.525) rotate(174.346) scale(23.0386 23.0435)">
<stop stop-color="#BDB9F0"/>
<stop offset="0.5266" stop-color="#C3BCEB" stop-opacity="0.3855"/>
<stop offset="0.605" stop-color="#CEC3E2" stop-opacity="0.3217"/>
<stop offset="0.8586" stop-color="#EDD6C9" stop-opacity="0.1152"/>
<stop offset="1" stop-color="#F9DDBF" stop-opacity="0"/>
</radialGradient>
</defs>
</svg>
