<svg width="235" height="247" viewBox="0 0 235 247" fill="none" xmlns="http://www.w3.org/2000/svg">
<path d="M97.3659 162.152C89.8677 162.152 79.8273 158.203 69.5398 142.513L77.8838 137.039C82.8922 144.675 90.666 153.471 99.2761 152.012C108.38 150.472 115.917 138.555 117.404 132.596L127.083 135.015C125.045 143.174 115.28 159.42 100.939 161.848C99.8273 162.038 98.6299 162.152 97.3659 162.152Z" fill="#8A6FE8"/>
<path d="M55.6932 142.66C55.6932 145.336 57.8647 147.507 60.5399 147.507H72.6473C75.3226 147.507 77.4941 145.336 77.4941 142.66C77.4941 142.66 77.3326 137.814 72.6473 137.814H60.5399C57.86 137.814 55.6932 139.985 55.6932 142.66Z" fill="#8A6FE8"/>
<path d="M75.0091 147.559C80.709 147.559 85.3298 142.939 85.3298 137.239C85.3298 131.539 80.709 126.918 75.0091 126.918C69.3091 126.918 64.6883 131.539 64.6883 137.239C64.6883 142.939 69.3091 147.559 75.0091 147.559Z" fill="url(#paint0_radial)"/>
<path d="M62.146 80.0182C62.146 77.9179 59.9317 76.2168 57.1947 76.2168C54.4625 76.2168 52.2434 77.9179 52.2434 80.0182C52.2434 81.7098 53.6832 83.1401 55.6694 83.6342L54.4387 92.8383H59.8747L58.6487 83.6533C60.6777 83.1733 62.146 81.7241 62.146 80.0182Z" fill="#FFD590"/>
<path d="M99.0195 136.397C99.029 135.955 99.0385 135.509 99.0385 135.062C99.0385 108.4 79.699 86.7845 55.8406 86.7845C31.9821 86.7845 12.6426 108.4 12.6426 135.062C12.6426 135.509 12.6473 135.955 12.6616 136.397H99.0195Z" fill="#F7B548"/>
<path d="M8.79838 141.168H102.103C102.388 141.168 102.669 141.064 102.883 140.878L109.63 135.043C110.466 134.321 109.953 132.948 108.851 132.948H2.05568C0.948524 132.948 0.440089 134.321 1.27639 135.043L8.02385 140.878C8.23293 141.068 8.51328 141.168 8.79838 141.168Z" fill="#FFD590"/>
<path d="M33.0655 132.948C33.1511 113.185 38.3162 102.945 43.6761 96.4354C44.5742 95.3473 43.8805 94.4207 42.6545 95.1192C34.9615 99.486 20.2501 110.705 19.2808 132.948H33.0655Z" fill="#FFD590"/>
<path d="M79.7133 132.948C79.6277 113.185 74.4626 102.945 69.1027 96.4354C68.2046 95.3473 68.8983 94.4207 70.1243 95.1192C77.8173 99.486 92.5287 110.705 93.498 132.948H79.7133Z" fill="url(#paint1_radial)"/>
<path d="M2.83496 136.397L8.0191 140.878C8.23768 141.064 8.51328 141.168 8.79838 141.168H102.103C102.388 141.168 102.669 141.064 102.883 140.878L108.067 136.397H2.83496Z" fill="url(#paint2_radial)"/>
<path d="M138.863 201.268C138.763 192.226 140.051 173.875 149.383 158.508L158.506 164.048C150.039 177.985 149.402 194.255 149.602 201.349C149.616 201.938 144.142 202.471 138.863 201.268Z" fill="url(#paint3_linear)"/>
<path d="M149.597 201.254L141.143 201.216L133.256 246.41L150.215 246.486C151.507 246.491 152.481 245.45 152.4 244.157L149.597 201.254Z" fill="#522CD5"/>
<path d="M115.175 234.521C113.712 235.675 113.736 237.353 113.85 239.116L114.201 244.533C114.263 245.502 115.109 246.296 116.078 246.3L133.75 246.381C134.847 246.386 135.679 245.497 135.608 244.4L135.489 238.788C135.356 236.749 136.04 235.999 137.618 234.079C140.321 230.795 148.319 212.9 147.558 201.24L138.853 201.202C138.283 208.125 129.155 223.492 115.175 234.521Z" fill="url(#paint4_linear)"/>
<path d="M113.85 239.116C113.769 237.88 113.745 236.697 114.23 235.699L136.273 235.799C135.665 236.697 135.408 237.476 135.494 238.788L135.613 244.4C135.684 245.497 134.852 246.386 133.755 246.381L116.083 246.3C115.114 246.296 114.268 245.502 114.206 244.533L113.85 239.116Z" fill="url(#paint5_radial)"/>
<path d="M185.472 201.473C185.653 192.435 184.536 174.069 175.342 158.617L166.166 164.076C174.505 178.089 174.995 194.364 174.734 201.458C174.71 202.043 180.174 202.627 185.472 201.473Z" fill="url(#paint6_linear)"/>
<path d="M194.714 237.904C194.724 236.697 194.548 235.638 194.04 233.875C186.147 212.302 185.482 201.425 185.482 201.425L174.719 201.378C174.719 201.378 173.983 212.05 165.895 233.547C165.258 235.077 165.182 236.479 165.102 237.776L165.054 244.675C165.049 245.716 165.895 246.571 166.936 246.576H167.454L192.277 246.69L192.795 246.695C193.84 246.7 194.691 245.859 194.695 244.813L194.714 237.904Z" fill="url(#paint7_linear)"/>
<path d="M194.714 237.904C194.714 237.709 194.71 237.519 194.705 237.329C194.653 236.73 194.372 236.051 193.061 236.046L166.518 235.927C165.558 235.961 165.244 236.697 165.144 237.158C165.13 237.362 165.116 237.571 165.102 237.771L165.054 244.67C165.049 245.321 165.382 245.896 165.881 246.243C166.18 246.448 166.546 246.571 166.936 246.571L167.454 246.576L192.277 246.69H192.795C193.317 246.695 193.793 246.481 194.135 246.143C194.477 245.801 194.691 245.331 194.695 244.808L194.714 237.904Z" fill="url(#paint8_radial)"/>
<path d="M115.627 131.94C111.844 117.353 114.306 105.711 114.306 105.711L110.875 105.706L110.789 105.64C115.731 78.8778 139.2 58.6212 167.387 58.6497C199.143 58.683 224.859 84.4516 224.826 116.207C224.793 147.963 199.024 173.68 167.268 173.646C142.213 173.618 120.92 157.566 113.066 135.195C112.833 134.25 112.856 132.544 115.627 131.94Z" fill="url(#paint9_radial)"/>
<path d="M117.594 145.217L216.877 145.321C214.648 149.099 211.997 152.596 208.994 155.756L125.458 155.67C122.46 152.501 119.818 148.999 117.594 145.217Z" fill="#D8CFF7"/>
<path d="M129.573 158.823L148.204 158.804L148.187 142.325L129.555 142.344L129.573 158.823Z" fill="#512BD4"/>
<path d="M133.099 152.677C132.975 152.677 132.871 152.634 132.785 152.553C132.7 152.468 132.657 152.368 132.657 152.249C132.657 152.131 132.7 152.031 132.785 151.945C132.871 151.86 132.975 151.817 133.104 151.817C133.232 151.817 133.336 151.86 133.422 151.945C133.512 152.031 133.555 152.131 133.555 152.249C133.555 152.368 133.512 152.468 133.422 152.549C133.332 152.634 133.227 152.677 133.099 152.677Z" fill="white"/>
<path d="M138.055 152.61H137.247L135.128 149.261C135.075 149.175 135.028 149.089 134.995 148.994H134.976C134.99 149.094 134.999 149.299 134.999 149.622L134.995 152.61H134.282L134.287 148.054H135.147L137.195 151.328C137.28 151.465 137.337 151.556 137.361 151.608H137.375C137.356 151.489 137.347 151.285 137.347 150.995L137.352 148.058H138.06L138.055 152.61Z" fill="white"/>
<path d="M141.528 152.62L139.034 152.615L139.038 148.058L141.433 148.063V148.705L139.775 148.7V149.988H141.3V150.624H139.775V151.969L141.533 151.974L141.528 152.62Z" fill="white"/>
<path d="M145.078 148.709H143.8L143.795 152.625H143.058L143.063 148.709H141.79V148.068L145.078 148.073V148.709Z" fill="white"/>
<path d="M115.503 131.941C111.764 117.529 114.12 106.001 114.177 105.72L173.831 105.782C173.831 105.782 177.589 105.407 177.585 108.838C177.58 112.268 177.428 121.971 177.418 132.696C177.418 134.901 175.608 135.965 174.187 135.96C174.192 135.965 117 134.321 115.503 131.941Z" fill="url(#paint10_radial)"/>
<path d="M152.158 132.012C152.158 132.012 142.992 124.742 141.205 123.397C139.419 122.052 137.851 121.976 136.207 123.392C134.562 124.808 125.368 131.983 125.368 131.983L152.158 132.012Z" fill="#A08BE8"/>
<path d="M113.294 135.927C113.294 135.927 111.578 132.791 115.503 131.94C115.498 131.926 174.154 131.955 174.154 131.955C175.518 131.955 177.276 131.142 177.428 129.821C177.423 130.772 177.423 131.731 177.423 132.696C177.423 134.696 175.931 135.756 174.596 135.932C174.463 135.946 174.33 135.96 174.192 135.96L170.181 135.956L113.294 135.927Z" fill="#512BD4"/>
<path d="M164.345 118.966C164.412 114.791 162.454 111.374 159.971 111.335C157.489 111.295 155.422 114.647 155.356 118.822C155.289 122.997 157.247 126.413 159.729 126.453C162.212 126.493 164.278 123.141 164.345 118.966Z" fill="#512BD4"/>
<path d="M123.732 126.381C126.214 126.347 128.18 122.934 128.122 118.759C128.063 114.585 126.004 111.228 123.522 111.263C121.039 111.297 119.074 114.71 119.132 118.884C119.19 123.059 121.25 126.416 123.732 126.381Z" fill="#512BD4"/>
<path d="M159.884 115.105C158.967 114.183 157.732 113.779 156.53 113.889C155.822 115.205 155.38 116.925 155.346 118.821C155.327 120.004 155.475 121.116 155.746 122.119C157.166 122.523 158.758 122.171 159.875 121.054C161.524 119.415 161.524 116.749 159.884 115.105Z" fill="#8065E0"/>
<path d="M123.686 114.825C122.769 113.903 121.528 113.499 120.326 113.608C119.561 114.982 119.1 116.839 119.129 118.887C119.143 119.933 119.286 120.926 119.523 121.829C120.949 122.247 122.555 121.895 123.681 120.769C125.32 119.13 125.325 116.469 123.686 114.825Z" fill="#8065E0"/>
<path d="M226.133 182.328C226.656 181.501 239.233 162.779 232.918 143.763C229.269 132.777 220.388 124.509 206.513 119.187L203.325 128.719C214.045 132.829 220.802 138.859 223.405 146.642C228.148 160.831 218.183 177.011 218.079 177.172L226.133 182.328Z" fill="#8A6FE8"/>
<path d="M204.912 134.255C210.743 134.255 215.47 129.528 215.47 123.696C215.47 117.865 210.743 113.138 204.912 113.138C199.081 113.138 194.353 117.865 194.353 123.696C194.353 129.528 199.081 134.255 204.912 134.255Z" fill="url(#paint11_radial)"/>
<path d="M203.263 174.079L217.898 172.131C220.507 171.784 222.902 173.618 223.249 176.227C223.596 178.836 221.761 181.23 219.153 181.577L204.517 183.526C201.909 183.872 199.514 182.038 199.167 179.43C198.82 176.821 200.654 174.426 203.263 174.079Z" fill="#8A6FE8"/>
<path d="M229.188 186.514L227.815 196.345C227.43 198.964 224.997 200.774 222.379 200.389C219.761 200.004 217.95 197.571 218.335 194.953L219.747 184.87L229.188 186.514Z" fill="#8A6FE8"/>
<path d="M224.712 189.479L217.371 201.035C215.945 203.264 212.98 203.915 210.752 202.485C208.523 201.059 207.872 198.094 209.302 195.866L214.734 187.26L224.712 189.479Z" fill="#8A6FE8"/>
<path d="M220.711 185.207L210.932 194.806C209.046 196.664 206.014 196.64 204.156 194.754C202.298 192.867 202.322 189.836 204.208 187.978L214.168 178.199L220.711 185.207Z" fill="#8A6FE8"/>
<path d="M220.578 192.107C226.115 192.107 230.604 187.618 230.604 182.081C230.604 176.543 226.115 172.055 220.578 172.055C215.041 172.055 210.552 176.543 210.552 182.081C210.552 187.618 215.041 192.107 220.578 192.107Z" fill="url(#paint12_radial)"/>
<path d="M190.956 49.6073L190.333 68.1105C190.272 69.1606 189.369 69.9637 188.314 69.9019L149.568 67.5831C148.518 67.5213 147.715 66.6185 147.777 65.5636L148.637 43.0832C148.694 42.1661 149.393 41.42 150.305 41.3013C154.054 40.8261 163.966 39.852 174.083 41.1872C184.299 42.532 188.97 46.5947 190.452 48.196C190.804 48.5809 190.989 49.0893 190.956 49.6073Z" fill="url(#paint13_radial)"/>
<path d="M217.836 45.6966C215.746 53.1758 206.475 56.9297 199.162 55.5707C190.224 53.9123 178.212 42.703 178.212 42.703C178.212 42.703 171.365 44.9506 164.646 45.0313C157.927 45.1121 151.863 42.5747 151.863 42.5747C151.863 42.5747 141.833 47.9917 133.864 44.846C116.487 37.9845 119.927 22.6079 131.046 13.1472C143.657 2.41781 157.399 6.29048 157.399 6.29048C157.399 6.29048 166.071 -3.56461 188.162 2.47008C199.005 5.43516 212.172 15.6419 208.875 28.8279C214.909 29.9256 220.293 36.9154 217.836 45.6966Z" fill="url(#paint14_radial)"/>
<path d="M202.132 51.7789C193.037 50.0682 180.82 38.4645 180.82 38.4645C180.82 38.4645 173.85 40.8024 167.007 40.8974C160.165 40.9924 153.997 38.3647 153.997 38.3647C153.997 38.3647 143.781 43.9908 135.674 40.7406C125.42 36.6256 122.298 29.536 123.695 22.3894C119.661 30.7192 121.452 39.9566 133.859 44.8556C141.828 48.0012 151.859 42.5843 151.859 42.5843C151.859 42.5843 157.922 45.1217 164.641 45.0409C171.36 44.9601 178.207 42.7126 178.207 42.7126C178.207 42.7126 190.219 53.9219 199.157 55.5802C205.71 56.7967 213.831 53.9076 216.953 47.9157C212.971 51.2799 207.107 52.7149 202.132 51.7789Z" fill="#E1DFDD"/>
<defs>
<radialGradient id="paint0_radial" cx="0" cy="0" r="1" gradientUnits="userSpaceOnUse" gradientTransform="translate(75.0086 137.239) scale(10.3238)">
<stop stop-color="#8065E0"/>
<stop offset="1" stop-color="#512BD4"/>
</radialGradient>
<radialGradient id="paint1_radial" cx="0" cy="0" r="1" gradientUnits="userSpaceOnUse" gradientTransform="translate(37.9303 103.104) scale(75.3865)">
<stop offset="0.1924" stop-color="#BF8F68"/>
<stop offset="0.9175" stop-color="#F7B548"/>
</radialGradient>
<radialGradient id="paint2_radial" cx="0" cy="0" r="1" gradientUnits="userSpaceOnUse" gradientTransform="translate(25.7312 164.198) scale(69.9986)">
<stop offset="0.1924" stop-color="#BF8F68"/>
<stop offset="0.8155" stop-color="#EFB04D"/>
<stop offset="0.9175" stop-color="#F7B548"/>
</radialGradient>
<linearGradient id="paint3_linear" x1="152.422" y1="159.145" x2="143.377" y2="202.223" gradientUnits="userSpaceOnUse">
<stop offset="0.1485" stop-color="#522CD5"/>
<stop offset="0.4511" stop-color="#8A6FE8"/>
</linearGradient>
<linearGradient id="paint4_linear" x1="145.558" y1="200.117" x2="118.688" y2="248.022" gradientUnits="userSpaceOnUse">
<stop stop-color="#522CD5"/>
<stop offset="0.4397" stop-color="#8A6FE8"/>
</linearGradient>
<radialGradient id="paint5_radial" cx="0" cy="0" r="1" gradientUnits="userSpaceOnUse" gradientTransform="translate(125.574 226.695) rotate(-179.739) scale(18.6218)">
<stop offset="0.034" stop-color="#522CD5"/>
<stop offset="0.9955" stop-color="#8A6FE8"/>
</radialGradient>
<linearGradient id="paint6_linear" x1="172.242" y1="159.233" x2="180.895" y2="202.39" gradientUnits="userSpaceOnUse">
<stop offset="0.1554" stop-color="#522CD5"/>
<stop offset="0.4797" stop-color="#8A6FE8"/>
</linearGradient>
<linearGradient id="paint7_linear" x1="180.066" y1="201.401" x2="179.86" y2="246.633" gradientUnits="userSpaceOnUse">
<stop stop-color="#522CD5"/>
<stop offset="0.4397" stop-color="#8A6FE8"/>
</linearGradient>
<radialGradient id="paint8_radial" cx="0" cy="0" r="1" gradientUnits="userSpaceOnUse" gradientTransform="translate(179.298 226.885) rotate(0.260741) scale(20.4157)">
<stop offset="0.034" stop-color="#522CD5"/>
<stop offset="0.9955" stop-color="#8A6FE8"/>
</radialGradient>
<radialGradient id="paint9_radial" cx="0" cy="0" r="1" gradientUnits="userSpaceOnUse" gradientTransform="translate(169.981 100.738) rotate(0.0600805) scale(57.2614)">
<stop offset="0.4744" stop-color="#A08BE8"/>
<stop offset="0.8618" stop-color="#8065E0"/>
</radialGradient>
<radialGradient id="paint10_radial" cx="0" cy="0" r="1" gradientUnits="userSpaceOnUse" gradientTransform="translate(120.996 95.7851) rotate(0.0600805) scale(59.3412)">
<stop offset="0.0933" stop-color="#E1DFDD"/>
<stop offset="0.6573" stop-color="white"/>
</radialGradient>
<radialGradient id="paint11_radial" cx="0" cy="0" r="1" gradientUnits="userSpaceOnUse" gradientTransform="translate(206.852 120.134) rotate(-179.94) scale(10.5607)">
<stop stop-color="#8065E0"/>
<stop offset="1" stop-color="#512BD4"/>
</radialGradient>
<radialGradient id="paint12_radial" cx="0" cy="0" r="1" gradientUnits="userSpaceOnUse" gradientTransform="translate(220.806 178.108) rotate(180) scale(10.0299)">
<stop stop-color="#8065E0"/>
<stop offset="1" stop-color="#512BD4"/>
</radialGradient>
<radialGradient id="paint13_radial" cx="0" cy="0" r="1" gradientUnits="userSpaceOnUse" gradientTransform="translate(173.772 0.68137) scale(69.5108)">
<stop offset="0.4767" stop-color="#C8C6C4"/>
<stop offset="1" stop-color="#E1DFDD"/>
</radialGradient>
<radialGradient id="paint14_radial" cx="0" cy="0" r="1" gradientUnits="userSpaceOnUse" gradientTransform="translate(194.55 -25.2488) rotate(-179.761) scale(100.447 93.4725)">
<stop offset="0.1797" stop-color="#E1DFDD"/>
<stop offset="0.8412" stop-color="#FAF9F8"/>
</radialGradient>
</defs>
</svg>
