<svg width="341" height="257" viewBox="0 0 341 257" fill="none" xmlns="http://www.w3.org/2000/svg">
<path d="M83.3074 157.563C83.3074 157.563 85.3839 158.737 85.5407 160.277C85.8591 163.394 86.7002 170.754 87.6268 174.698C90.0121 184.872 100.333 186.92 100.333 186.92L97.5531 195.649C97.5531 195.649 75.6049 190.274 70.8722 186.616C71.0765 180.367 75.2295 171.738 76.0183 167.661C76.8023 163.589 83.3074 157.563 83.3074 157.563Z" fill="#512BD4"/>
<path d="M77.6244 188.179L83.9346 159.141C84.12 158.286 83.5545 157.449 82.6944 157.302L76.9781 156.295C76.1561 156.152 75.3673 156.698 75.2105 157.521L69.6414 186.649C69.4799 187.49 70.0406 188.302 70.8816 188.45L75.8567 189.367C76.6693 189.509 77.4485 188.986 77.6244 188.179Z" fill="url(#paint0_linear)"/>
<path d="M340.124 256.974L0.655823 255.435C0.655823 255.435 27.9117 240.89 55.1677 239.502C74.4217 238.519 102.248 249.129 102.248 249.129C102.248 249.129 119.178 242.586 136.527 243.741C149.713 244.62 165.436 249.281 165.436 249.281C165.436 249.281 193.932 240.039 224.904 239.269C255.876 238.5 267.442 247.205 267.442 247.205C267.442 247.205 286.853 241.816 302.543 243.356C318.233 244.895 340.124 256.974 340.124 256.974Z" fill="#FFE5B9"/>
<path d="M219.074 126.606C217.221 123.978 213.647 123.403 211.1 125.313L44.9847 249.728C43.6732 250.711 44.367 252.802 46.0063 252.802H58.5652C59.6438 252.802 60.6987 252.451 61.5635 251.804L217.819 134.822C220.366 132.911 220.932 129.234 219.074 126.606Z" fill="#FCCF84"/>
<path d="M224.994 126.606C223.141 123.978 219.568 123.403 217.021 125.313L50.9054 249.728C49.5939 250.711 50.2876 252.802 51.927 252.802H64.4858C65.5644 252.802 66.6193 252.451 67.4841 251.804L223.74 134.822C226.287 132.911 226.848 129.234 224.994 126.606Z" fill="#F7B548"/>
<path d="M177.221 251.192L205.512 44.6481L201.421 44.0874L173.053 251.192H177.221Z" fill="#F7B548"/>
<path d="M240.518 252.807L40.4658 180.31C37.4865 179.231 34.2315 180.842 33.1862 183.907C32.1408 186.972 33.7041 190.326 36.6787 191.405L206.121 252.807H240.518Z" fill="#F7B548"/>
<path d="M100.96 185.869L98.4227 196.832C111.623 199.958 168.302 214.484 177.273 217.183C179.715 217.92 180.433 205.608 176.142 204.572C169.086 202.866 111.813 188.44 100.96 185.869Z" fill="#8A6FE8"/>
<path d="M111.238 183.75L108.701 194.712C121.901 197.839 173.676 211.106 182.642 213.805C185.085 214.541 185.802 202.229 181.511 201.194C174.455 199.488 122.091 186.321 111.238 183.75Z" fill="#8A6FE8"/>
<path d="M92.8774 154.826L94.8779 155.691C96.0515 156.247 96.2939 156.865 96.5172 157.739C97.5436 161.716 103.702 173.577 106.32 176.746C112.288 183.973 117.178 185.527 117.178 185.527L114.398 194.256C114.398 194.256 95.0109 189.424 90.2782 185.765C90.4825 179.516 89.5179 167.095 90.3067 163.023C91.086 158.946 92.8774 154.826 92.8774 154.826Z" fill="#512BD4"/>
<path d="M96.6693 185.713L93.8943 156.128C93.8135 155.259 93.0199 154.631 92.1551 154.75L86.4008 155.525C85.574 155.639 84.9895 156.394 85.0893 157.226L88.6008 186.672C88.7006 187.523 89.4799 188.126 90.3305 188.012L95.3483 187.38C96.1608 187.266 96.7453 186.53 96.6693 185.713Z" fill="url(#paint1_linear)"/>
<path d="M271.229 122.286H223.621C222.528 122.286 221.531 122.899 221.032 123.873C216.361 133.025 190.131 180.044 126.011 219.55C144.282 236.176 173.681 227.58 186.125 221.735C236.636 198.019 266.534 139.763 273.253 125.484C273.956 123.997 272.873 122.286 271.229 122.286Z" fill="#ED9583"/>
<path d="M132.806 222.287C204.182 178.309 233.158 122.286 233.158 122.286H223.55C222.5 122.286 221.545 122.871 221.07 123.807C216.494 132.792 190.288 179.949 126.011 219.55C130.554 223.684 135.781 226.254 141.264 227.704C138.209 226.378 135.358 224.605 132.806 222.287Z" fill="#E86E58"/>
<path d="M145.379 226.045C212.74 203.104 252.892 122.286 252.892 122.286H241.545C241.545 122.286 211.062 179.873 139.691 223.845C144.229 227.979 143.911 226.14 145.379 226.045Z" fill="#E86E58"/>
<path d="M170.711 227.148C232.117 209.98 267.095 138.879 273.519 124.738C274.042 123.588 273.196 122.286 271.937 122.286H262.761C262.761 122.286 210.359 220.357 145.569 228.435C150.107 232.565 169.689 227.789 170.711 227.148Z" fill="#E86E58"/>
<path d="M142.714 158.566L149.784 152.279C143.968 145.736 141.744 139.245 143.531 134.004C145.65 127.784 153.348 123.118 165.208 120.866L163.445 111.571C143.768 115.306 136.883 124.173 134.574 130.954C131.642 139.559 134.531 149.367 142.714 158.566Z" fill="#8A6FE8"/>
<path d="M169.219 132.517L160.542 122.13C159.088 120.386 159.321 117.796 161.06 116.342L161.302 116.142C163.046 114.688 165.636 114.921 167.09 116.66L175.767 127.048C177.221 128.792 176.988 131.381 175.249 132.835L175.006 133.035C173.262 134.489 170.673 134.256 169.219 132.517Z" fill="#D0C5F3"/>
<path d="M166.13 106.824L174.232 103.161C176.399 102.201 178.931 103.175 179.891 105.342C180.851 107.509 179.877 110.041 177.71 111.001L169.404 114.755L166.13 106.824Z" fill="#8A6FE8"/>
<path d="M170.511 108.792L182.771 108.82C185.137 108.834 187.047 110.768 187.033 113.135C187.019 115.506 185.085 117.411 182.718 117.397L173.605 117.406L170.511 108.792Z" fill="#8A6FE8"/>
<path d="M169.195 113.866L181.141 116.679C183.445 117.216 184.88 119.526 184.343 121.83C183.807 124.135 181.497 125.57 179.193 125.033L167.028 122.172L169.195 113.866Z" fill="#8A6FE8"/>
<path d="M166.89 124.439C171.85 124.439 175.871 120.418 175.871 115.458C175.871 110.498 171.85 106.478 166.89 106.478C161.93 106.478 157.91 110.498 157.91 115.458C157.91 120.418 161.93 124.439 166.89 124.439Z" fill="url(#paint2_radial)"/>
<path d="M142.638 157.169C145.151 144.933 151.233 137.178 151.233 137.178L148.682 135.924L148.644 135.843C162.096 117.744 186.947 111.248 207.898 121.564C231.504 133.187 241.217 161.745 229.599 185.351C217.981 208.958 189.418 218.671 165.812 207.053C147.185 197.882 137.211 178.167 139.539 158.661C139.72 157.863 140.357 156.603 142.638 157.169Z" fill="url(#paint3_radial)"/>
<path d="M142.638 157.169C145.123 145.085 151.081 137.373 151.229 137.183L182.752 152.626C182.752 152.626 185.683 153.719 184.429 156.271C183.175 158.822 179.516 165.983 175.591 173.957C174.783 175.596 173.049 175.724 171.994 175.206C171.994 175.206 142.253 159.882 142.638 157.169Z" fill="url(#paint4_radial)"/>
<path d="M154.507 155.069C153.666 153.415 152.531 152.788 150.792 153.239C149.76 153.505 146.026 154.313 143.146 154.921C142.961 155.653 142.79 156.399 142.633 157.164V157.169L159.506 165.475C159.511 165.475 155.348 156.722 154.507 155.069Z" fill="#A08BE8"/>
<path d="M139.468 159.231C139.468 159.231 139.406 156.371 142.633 157.169C142.638 157.155 173.462 172.27 173.462 172.27C174.479 172.769 176.08 172.807 176.679 171.88C176.332 172.584 175.98 173.296 175.624 174.019C174.892 175.506 173.4 175.748 172.341 175.392C172.236 175.354 139.468 159.231 139.468 159.231Z" fill="#512BD4"/>
<path d="M139.345 167.803L213.049 204.092C210.012 206.088 206.762 207.723 203.374 208.977L141.374 178.452C140.3 175.002 139.615 171.429 139.345 167.803Z" fill="#D8CFF7"/>
<path d="M204.548 116.741L212.716 120.989L215.923 112.004L210.06 108.953L204.548 116.741Z" fill="#8A6FE8"/>
<path d="M215.296 112.436C218.918 112.436 221.854 109.5 221.854 105.879C221.854 102.257 218.918 99.3213 215.296 99.3213C211.675 99.3213 208.739 102.257 208.739 105.879C208.739 109.5 211.675 112.436 215.296 112.436Z" fill="#D8CFF7"/>
<path d="M198.755 120.243C198.385 120.053 198.257 119.578 198.489 119.236C200.937 115.582 205.793 114.28 209.784 116.352C213.776 118.428 215.496 123.151 213.909 127.252C213.761 127.642 213.301 127.803 212.93 127.613L198.755 120.243Z" fill="url(#paint5_radial)"/>
<path d="M159.264 152.854L170.416 158.4C169.28 159.849 166.372 160.091 163.502 158.865C160.319 157.511 158.39 154.874 159.197 152.983C159.216 152.935 159.245 152.897 159.264 152.854Z" fill="#8065E0"/>
<path d="M145.721 147.067C145.299 148.15 144.904 149.257 144.548 150.312C146.909 150.864 149.048 150.426 149.893 149.143L145.721 147.067Z" fill="#8065E0"/>
<path d="M44.3575 191.139C59.4157 204.748 98.8884 234.251 153.624 229.172C117.938 215.387 101.369 185.855 101.369 185.855L46.7809 184.729C43.4689 184.662 41.8676 188.887 44.3575 191.139Z" fill="#E3646A"/>
<path d="M44.3575 191.139C59.4157 204.748 98.8884 234.251 153.624 229.172C117.938 215.387 101.369 185.855 101.369 185.855L46.7809 184.729C43.4689 184.662 41.8676 188.887 44.3575 191.139Z" fill="#ED9583"/>
<path d="M146.781 227.585C144.695 227.186 104.933 217.81 78.9406 191.818C76.579 189.457 77.477 186.05 79.7769 185.413L69.114 185.195C67.2276 186.04 65.8543 189.196 68.1969 191.453C73.2005 196.271 95.125 222.643 146.914 228.483C147.394 228.535 148.986 228.008 146.781 227.585Z" fill="#E86E58"/>
<path d="M144.163 224.952C115.001 210.151 101.374 185.855 101.374 185.855L93.5807 185.694C91.4186 186.055 89.4752 189.642 92.0649 192.137C97.0447 196.936 120.903 219.189 141.83 225.242C142.153 225.337 142.676 225.005 144.163 224.952Z" fill="#E86E58"/>
<path d="M144.096 228.065C97.843 228.43 59.5773 195.382 55.3767 191.481C53.4475 189.69 53.3097 185.632 57.477 184.909L46.7856 184.729C43.4737 184.662 41.8723 188.887 44.3622 191.139C59.4205 204.748 98.8931 234.251 153.628 229.172C152.711 228.82 151.813 228.449 150.92 228.079C148.853 228.05 146.591 228.046 144.096 228.065Z" fill="#E86E58"/>
<path d="M296.185 252.845C297.634 252.845 297.986 250.83 296.627 250.336L103.265 180.31C100.285 179.231 97.0304 180.842 95.9851 183.907C94.9397 186.972 96.503 190.326 99.4776 191.405L269.138 252.85H296.185V252.845Z" fill="#F7B548"/>
<path d="M156.09 203.855L155.729 195.249C165.256 194.48 173.011 191.762 178.779 187.171C183.854 183.132 187.537 177.535 189.722 170.54L198.437 172.645C194.379 185.646 183.735 201.621 156.09 203.855Z" fill="url(#paint6_linear)"/>
<path d="M150.811 197.929L143.944 193.396C142.124 192.175 141.758 189.742 143.127 187.955C144.495 186.169 147.08 185.713 148.9 186.934L155.942 191.581L150.811 197.929Z" fill="#8A6FE8"/>
<path d="M153.381 205.527L145.094 207.884C142.885 208.497 140.647 207.314 140.1 205.237C139.554 203.166 140.903 200.985 143.117 200.372L151.614 197.958L153.381 205.527Z" fill="#8A6FE8"/>
<path d="M151.908 200.129L143.574 202.287C141.35 202.847 139.15 201.607 138.66 199.521C138.171 197.43 139.577 195.287 141.801 194.727L150.35 192.517L151.908 200.129Z" fill="#8A6FE8"/>
<path d="M157.126 207.513L149.409 211.339C147.346 212.346 144.89 211.609 143.925 209.694C142.961 207.78 143.844 205.413 145.911 204.406L153.823 200.486L157.126 207.513Z" fill="#8A6FE8"/>
<path d="M159.558 191.975C155.239 190.25 150.098 192.241 148.083 196.423C146.068 200.604 147.936 205.399 152.255 207.124C156.574 208.849 161.716 206.858 163.73 202.676C165.75 198.495 163.883 193.705 159.558 191.975Z" fill="url(#paint7_radial)"/>
<path d="M194.507 180.153C199.339 180.153 203.255 176.237 203.255 171.405C203.255 166.574 199.339 162.657 194.507 162.657C189.676 162.657 185.76 166.574 185.76 171.405C185.76 176.237 189.676 180.153 194.507 180.153Z" fill="url(#paint8_radial)"/>
<path d="M206.353 254.974H272.26C274.075 254.974 275.548 253.501 275.548 251.686V219.992C275.548 218.176 274.075 216.703 272.26 216.703H206.353C204.538 216.703 203.065 218.176 203.065 219.992V251.686C203.065 253.506 204.538 254.974 206.353 254.974Z" fill="#3E8EED"/>
<path d="M246.206 254.974H272.26C274.075 254.974 275.548 253.501 275.548 251.686V219.992C275.548 218.176 274.075 216.703 272.26 216.703H246.206C244.391 216.703 242.918 218.176 242.918 219.992V251.686C242.918 253.506 244.391 254.974 246.206 254.974Z" fill="#0064DA"/>
<path d="M201.901 222.348V218.219C201.901 215.786 203.811 213.819 206.163 213.819H272.597C274.949 213.819 276.86 215.791 276.86 218.219V222.348H201.901Z" fill="#E1DFDD"/>
<path d="M243.027 222.348V218.219C243.027 215.786 244.938 213.819 247.29 213.819H272.597C274.949 213.819 276.86 215.791 276.86 218.219V222.348H243.027Z" fill="#C8C6C4"/>
<path d="M217.102 225.926H225.717C226.539 225.926 227.204 225.261 227.204 224.439V221.949C227.204 221.127 226.539 220.462 225.717 220.462H217.102C216.28 220.462 215.615 221.127 215.615 221.949V224.439C215.615 225.256 216.28 225.926 217.102 225.926Z" fill="white"/>
<path d="M91.0955 29.4232L93.1483 40.0291C93.4001 41.3406 94.4645 42.3432 95.7902 42.5237L143.483 48.9576C144.752 49.1286 145.992 48.4729 146.567 47.3277L152.217 36.7171L155.021 47.5891C155.306 49.0574 156.513 50.174 158 50.3451L244.358 60.9699C245.579 61.122 246.762 60.509 247.347 59.4304L252.569 49.7939L255.401 59.8675C255.771 61.1885 256.893 62.1626 258.252 62.3384L306.952 67.9502C308.454 68.1213 309.913 67.3848 310.663 66.0781L315.344 57.9146C315.344 57.9146 277.349 28.5917 203.426 23.227C129.504 17.8623 91.0955 29.4232 91.0955 29.4232Z" fill="#FAE969"/>
<path d="M91.0955 29.4232L93.1483 40.0291C93.4001 41.3406 94.4645 42.3432 95.7902 42.5237L143.483 48.9576C144.752 49.1286 145.992 48.4729 146.567 47.3277L152.217 36.7171L155.021 47.5891C155.306 49.0574 156.513 50.174 158 50.3451L244.358 60.9699C245.579 61.122 246.762 60.509 247.347 59.4304L252.569 49.7939L255.401 59.8675C255.771 61.1885 256.893 62.1626 258.252 62.3384L306.952 67.9502C308.454 68.1213 309.913 67.3848 310.663 66.0781L315.344 57.9146C315.344 57.9146 277.349 28.5917 203.426 23.227C129.504 17.8623 91.0955 29.4232 91.0955 29.4232Z" fill="#CEDB59"/>
<path d="M153.148 21.9726L152.345 37.2114L155.021 47.5939C155.306 49.0622 156.513 50.1789 158 50.3499L244.358 60.9748C245.574 61.1269 246.762 60.5139 247.347 59.4352L252.569 49.7987L252.593 49.8843L253.12 36.9928L156.902 21.8823C155.634 21.9108 154.384 21.9393 153.148 21.9726Z" fill="#BBCB37"/>
<path d="M91.0955 29.4234L315.344 57.9196C315.344 57.9196 285.527 13.9043 217.054 2.99431C141.892 -8.98005 91.0955 29.4234 91.0955 29.4234Z" fill="#E4ECA1"/>
<path d="M252.574 49.7989C252.797 27.6986 237.61 11.4286 231.732 5.9594C227.052 4.80949 222.162 3.80687 217.059 2.99432C206.677 1.34072 196.764 0.651722 187.38 0.684984C177.368 4.07772 160.68 13.1535 151.808 36.9977C151.808 36.9977 151.813 37.05 151.823 37.1403L252.574 49.9414C252.569 49.8939 252.569 49.8464 252.574 49.7989Z" fill="#CEDB59"/>
<path d="M281.873 126.606C280.02 123.978 276.446 123.403 273.899 125.313L107.175 250.213C106.04 251.063 106.638 252.874 108.064 252.874H121.535C122.69 252.874 123.816 252.498 124.743 251.804L280.623 134.817C283.165 132.911 283.731 129.234 281.873 126.606Z" fill="#FCCF84"/>
<path d="M287.793 126.606C285.94 123.978 282.367 123.403 279.82 125.313L113.096 250.213C111.96 251.063 112.559 252.874 113.985 252.874H127.456C128.61 252.874 129.737 252.498 130.663 251.804L286.544 134.817C289.086 132.911 289.647 129.234 287.793 126.606Z" fill="#F7B548"/>
<path d="M218.96 190.407C222.888 190.407 226.073 187.223 226.073 183.294C226.073 179.365 222.888 176.181 218.96 176.181C215.031 176.181 211.846 179.365 211.846 183.294C211.846 187.223 215.031 190.407 218.96 190.407Z" fill="#CEDB59"/>
<path d="M218.96 188.511C221.841 188.511 224.177 186.176 224.177 183.294C224.177 180.413 221.841 178.077 218.96 178.077C216.078 178.077 213.742 180.413 213.742 183.294C213.742 186.176 216.078 188.511 218.96 188.511Z" fill="#A8B82F"/>
<path d="M213.614 180.7L219.577 183.684L214.807 179.003L213.614 180.7Z" fill="#CEDB59"/>
<path d="M213.662 185.475L219.212 183.959L214.888 187.205L213.662 185.475Z" fill="#CEDB59"/>
<path d="M219.292 177.293L219.535 183.318L221.321 177.535L219.292 177.293Z" fill="#CEDB59"/>
<path d="M225.36 181.664C225.36 181.664 219.578 183.594 219.578 183.684C219.578 183.774 225.498 183.594 225.498 183.594L225.36 181.664Z" fill="#CEDB59"/>
<path d="M234.27 185.052C234.251 185.052 234.227 185.052 234.208 185.052C233.396 185.019 232.768 184.335 232.802 183.522L233.676 162.747C233.7 162.215 234.009 161.735 234.488 161.493L244.548 156.461C245.275 156.1 246.154 156.394 246.52 157.117C246.881 157.844 246.586 158.723 245.864 159.089L236.579 163.731L235.743 183.641C235.705 184.434 235.054 185.052 234.27 185.052Z" fill="white"/>
<path d="M235.653 213.91H221.673L218.371 182.852H238.95L235.653 213.91Z" fill="#FAF9F8"/>
<path d="M230.34 182.852V213.91H235.653L238.95 182.852H230.34Z" fill="#E1DFDD"/>
<path d="M218.908 187.884L221.673 213.91H235.653L238.418 187.884H218.908Z" fill="#FCCF84"/>
<path d="M230.331 187.884V213.91H235.653L238.418 187.884H230.331Z" fill="#F7B548"/>
<path d="M140.49 165.337L139.335 167.742C139.687 172.56 140.77 177.283 142.528 181.75L148.644 184.686L154.669 172.146L140.49 165.337Z" fill="#512BD4"/>
<path d="M143.032 174.665C142.927 174.883 142.861 175.045 142.832 175.14L142.823 175.135C142.823 175.088 142.813 174.998 142.799 174.86L142.443 171.619L141.792 171.305L140.304 174.38C140.342 174.56 140.376 174.736 140.418 174.917L140.656 175.031L141.754 172.759C141.872 172.517 141.944 172.356 141.963 172.275L141.977 172.28C141.972 172.36 141.972 172.446 141.982 172.527L142.362 175.853L142.975 176.147L144.648 172.683L144.111 172.422L143.032 174.665Z" fill="white"/>
<path d="M145.612 177.43L143.716 176.513L145.389 173.049L147.209 173.928L146.971 174.418L145.712 173.81L145.237 174.788L146.396 175.349L146.163 175.834L145.004 175.273L144.51 176.295L145.845 176.941L145.612 177.43Z" fill="white"/>
<path d="M149.746 175.763L148.777 175.292L147.337 178.267L146.776 177.996L148.216 175.021L147.247 174.551L147.484 174.062L149.984 175.268L149.746 175.763Z" fill="white"/>
<defs>
<linearGradient id="paint0_linear" x1="76.7893" y1="156.286" x2="76.7879" y2="189.4" gradientUnits="userSpaceOnUse">
<stop stop-color="#522CD5"/>
<stop offset="0.8328" stop-color="#8A6FE8"/>
</linearGradient>
<linearGradient id="paint1_linear" x1="90.8682" y1="154.732" x2="90.8678" y2="188.019" gradientUnits="userSpaceOnUse">
<stop stop-color="#522CD5"/>
<stop offset="0.8328" stop-color="#8A6FE8"/>
</linearGradient>
<radialGradient id="paint2_radial" cx="0" cy="0" r="1" gradientUnits="userSpaceOnUse" gradientTransform="translate(166.891 111.016) rotate(180) scale(11.8416)">
<stop stop-color="#8065E0"/>
<stop offset="0.8628" stop-color="#512BD4"/>
</radialGradient>
<radialGradient id="paint3_radial" cx="0" cy="0" r="1" gradientUnits="userSpaceOnUse" gradientTransform="translate(194.701 130.059) rotate(180) scale(47.6523)">
<stop offset="0.4744" stop-color="#A08BE8"/>
<stop offset="0.8618" stop-color="#8065E0"/>
</radialGradient>
<radialGradient id="paint4_radial" cx="0" cy="0" r="1" gradientUnits="userSpaceOnUse" gradientTransform="translate(158.428 144.372) scale(35.8123)">
<stop offset="0.1644" stop-color="#E1DFDD"/>
<stop offset="0.3262" stop-color="#E6E5E3"/>
<stop offset="0.9998" stop-color="#FAF9F8"/>
<stop offset="1" stop-color="#F7F6F5"/>
</radialGradient>
<radialGradient id="paint5_radial" cx="0" cy="0" r="1" gradientUnits="userSpaceOnUse" gradientTransform="translate(206.816 119.268) rotate(180) scale(8.11425)">
<stop stop-color="#8065E0"/>
<stop offset="0.8628" stop-color="#512BD4"/>
</radialGradient>
<linearGradient id="paint6_linear" x1="198.436" y1="187.197" x2="155.727" y2="187.197" gradientUnits="userSpaceOnUse">
<stop stop-color="#9780E6"/>
<stop offset="1" stop-color="#8A6FE8"/>
</linearGradient>
<radialGradient id="paint7_radial" cx="0" cy="0" r="1" gradientUnits="userSpaceOnUse" gradientTransform="translate(154.637 194.945) rotate(-20.5164) scale(14.6728 13.6938)">
<stop stop-color="#8065E0"/>
<stop offset="0.8628" stop-color="#512BD4"/>
</radialGradient>
<radialGradient id="paint8_radial" cx="0" cy="0" r="1" gradientUnits="userSpaceOnUse" gradientTransform="translate(194.224 167.941) rotate(180) scale(10.0397)">
<stop stop-color="#8065E0"/>
<stop offset="0.8628" stop-color="#512BD4"/>
</radialGradient>
</defs>
</svg>
