<svg width="354" height="234" viewBox="0 0 354 234" fill="none" xmlns="http://www.w3.org/2000/svg">
<path d="M0 0.575903C0 0.575903 126.412 -5.99922 289.865 25.2841C324.236 61.8064 353.995 124.643 353.995 124.643L0 0.575903Z" fill="#E8D441"/>
<path d="M15.3301 5.94678L346.027 121.846C330.31 99.3711 298.496 55.084 281.281 39.6185C171.243 16.2144 51.6552 8.01037 15.3301 5.94678Z" fill="#FAE969"/>
<path d="M302.763 63.4804C286.284 56.8275 268.181 49.6987 248.919 42.3961C263.601 41.966 275.726 42.181 284.343 42.5196C283.276 41.4672 282.251 40.4926 281.276 39.6141C280.536 39.4586 279.796 39.303 279.051 39.1474C269.298 38.882 256.377 38.8317 241.185 39.4769C228.789 34.8235 215.955 30.1198 202.805 25.4344C197.227 24.5833 191.687 23.7643 186.187 22.9773C202.294 28.587 218.015 34.2607 233.125 39.8841C208.148 41.2979 177.975 44.6427 146.041 51.7577L151.793 53.771C184.858 46.7703 215.79 43.7871 240.666 42.6981C264.677 51.7165 287.024 60.5291 306.833 68.5776C305.467 66.848 304.106 65.1459 302.763 63.4804Z" fill="white"/>
<path d="M153.011 201.663C152.037 201.077 151.692 199.824 152.243 198.817L238.633 41.9935C239.074 41.1928 239.976 40.7627 240.881 40.9182C241.787 41.0784 242.486 41.7876 242.629 42.689L271.712 228.453C271.896 229.615 271.096 230.704 269.928 230.887C268.76 231.07 267.665 230.274 267.482 229.112L239.369 49.5341L156 200.867C155.43 201.901 154.129 202.276 153.094 201.713C153.067 201.695 153.039 201.681 153.011 201.663Z" fill="#E8D441"/>
<path d="M242.992 223.594L250.542 217.032C243.636 209.162 239.778 201.096 239.07 193.052C238.449 185.973 240.252 178.725 244.422 171.505L235.732 166.536C227.979 179.961 222.944 200.752 242.992 223.594Z" fill="url(#paint0_linear)"/>
<path d="M229.372 183.592L229.212 184.729L239.002 186.096L239.162 184.959L229.372 183.592Z" fill="#A08BE8"/>
<path d="M248.919 233.994C254.171 233.994 258.428 229.758 258.428 224.532C258.428 219.306 254.171 215.069 248.919 215.069C243.667 215.069 239.41 219.306 239.41 224.532C239.41 229.758 243.667 233.994 248.919 233.994Z" fill="url(#paint1_radial)"/>
<path d="M239.205 194.523L229.364 195.467L229.475 196.61L239.315 195.667L239.205 194.523Z" fill="#A08BE8"/>
<path d="M243.596 207.186L234.756 211.591L235.273 212.618L244.113 208.213L243.596 207.186Z" fill="#A08BE8"/>
<path d="M170.057 165.068L171.289 164.926L171.551 175.148L170.3 175.262L170.057 165.068Z" fill="#A08BE8"/>
<path d="M158.382 130.046C151.081 118.831 135.792 107.301 134.881 106.697C133.617 105.855 132.863 105.736 131.313 106.839C128.412 108.907 120.751 115.541 120.751 115.541L152.198 135.665L158.382 130.046Z" fill="#8065E0"/>
<path d="M149.255 137.197C143.921 133.642 131.042 130.696 116.296 133.121C114.571 133.404 113.242 133.162 112.024 132.087L110.231 130.233C109.656 129.726 109.592 128.865 110.088 128.316L122.531 114.507C122.88 114.118 123.496 114.095 123.901 114.452L128.393 118.419C129.791 119.655 130.757 120.021 133.024 119.554C138.702 118.392 149.365 123.901 155.619 129.295C161.877 134.685 149.255 137.197 149.255 137.197Z" fill="#A08BE8"/>
<path d="M112.521 132.43C112.148 132.251 111.868 131.903 111.518 131.597L107.932 128.225C107.357 127.717 106.98 126.793 107.477 126.239L122.177 114.297C122.526 113.908 123.142 113.885 123.547 114.242L128.393 118.41C128.633 118.621 128.858 118.804 129.083 118.968L112.521 132.43Z" fill="#D0C5F3"/>
<path d="M157.003 142.514L163.666 135.12C172.664 143.063 178.274 147.996 184.803 153.098C186.583 154.489 178.016 161.251 175.078 158.68C170.241 154.457 164.397 149.044 157.003 142.514Z" fill="url(#paint2_linear)"/>
<path d="M171.059 141.59L171.993 142.409L164.755 149.423L163.827 148.586L171.059 141.59Z" fill="#A08BE8"/>
<path d="M159.297 146.079L167.335 137.893C168.438 136.667 168.296 134.754 167.013 133.624L159.477 126.971C158.194 125.841 156.263 125.919 155.154 127.145L147.117 135.331C146.013 136.557 146.156 138.47 147.439 139.6L154.975 146.253C156.258 147.383 158.194 147.305 159.297 146.079Z" fill="url(#paint3_radial)"/>
<path d="M138.399 139.929C128.407 131.007 110.024 123.581 108.985 123.233C107.541 122.753 106.778 122.62 105.578 124.299C103.642 127.008 98.3633 135.683 98.3633 135.683L133.907 146.962L138.399 139.929Z" fill="#8065E0"/>
<path d="M131.47 149.204C125.386 147.159 112.185 147.667 98.5883 153.848C96.9974 154.571 95.6501 154.681 94.1971 153.958L91.9808 152.636C91.2911 152.297 91.0014 151.483 91.3371 150.824L99.7149 134.26C99.9494 133.793 100.538 133.61 101.025 133.848L106.405 136.507C108.083 137.335 109.109 137.436 111.173 136.397C116.351 133.798 128.085 136.337 135.539 139.92C142.992 143.494 131.47 149.204 131.47 149.204Z" fill="#A08BE8"/>
<path d="M94.7579 154.164C94.3533 154.091 93.99 153.825 93.5716 153.619L89.2263 151.295C88.5366 150.956 87.9343 150.16 88.2653 149.497L99.3192 134.15C99.5537 133.684 100.142 133.501 100.63 133.738L106.4 136.502C106.685 136.644 106.957 136.763 107.21 136.859L94.7579 154.164Z" fill="#D0C5F3"/>
<path d="M141.553 152.48L146.041 143.613C156.814 148.939 165.749 153.487 173.395 156.717C175.478 157.596 177.984 170.727 174.471 169.007C168.687 166.179 150.405 156.854 141.553 152.48Z" fill="url(#paint4_linear)"/>
<path d="M144.703 155.322L150.313 145.328C151.058 143.86 150.419 142.052 148.883 141.293L139.857 136.832C138.321 136.072 136.477 136.649 135.732 138.122L130.122 148.115C129.378 149.584 130.017 151.391 131.552 152.151L140.579 156.612C142.11 157.371 143.958 156.79 144.703 155.322Z" fill="url(#paint5_radial)"/>
<path d="M152.888 158.149L154.005 158.717L159.132 150.092C158.764 149.913 158.387 149.726 158.015 149.542L152.888 158.149Z" fill="#A08BE8"/>
<path d="M167.146 153.926L168.263 154.47L163.003 163.255L161.886 162.693L167.146 153.926Z" fill="#A08BE8"/>
<path d="M265.744 177.499C271.404 165.296 271.087 154.686 271.087 154.686L274.112 155.225L274.2 155.18C274.103 130.911 256.63 109.415 231.768 104.972C203.757 99.9661 176.973 118.506 171.942 146.385C166.912 174.264 185.543 200.913 213.555 205.918C235.658 209.867 256.994 199.156 267.486 180.766C267.836 179.97 268.089 178.469 265.744 177.499Z" fill="url(#paint6_radial)"/>
<path d="M267.197 181.315C267.197 181.315 269.086 178.876 265.762 177.504C271.353 165.447 271.114 154.96 271.105 154.704L218.484 145.305C218.484 145.305 215.229 144.377 214.686 147.392C214.144 150.403 212.732 158.941 211.031 168.357C210.681 170.293 212.107 171.51 213.362 171.734L267.399 181.388C267.27 181.343 267.197 181.315 267.197 181.315Z" fill="url(#paint7_radial)"/>
<path d="M240.509 172.951C240.509 172.951 246.285 169.872 247.406 169.309C248.528 168.751 249.397 168.861 250.161 169.803C250.924 170.741 255.278 175.591 255.278 175.591L240.509 172.951Z" fill="#A08BE8"/>
<path d="M267.197 181.315C267.197 181.315 269.086 178.877 265.762 177.504C265.767 177.49 265.771 177.476 265.78 177.467L214.033 168.225C212.828 168.01 211.408 167.017 211.486 165.832C211.339 166.664 211.187 167.506 211.035 168.357C210.718 170.114 211.863 171.276 213.012 171.647C213.127 171.684 213.242 171.716 213.366 171.739L216.902 172.37L267.403 181.393C267.27 181.343 267.197 181.315 267.197 181.315Z" fill="url(#paint8_radial)"/>
<path d="M261.822 188.829L174.361 173.203C175.726 176.873 177.506 180.364 179.653 183.612L253.228 196.753C256.373 194.452 259.261 191.798 261.822 188.829Z" fill="url(#paint9_linear)"/>
<path d="M221.685 102.313L231.626 102.917L230.849 92.6771L223.712 92.2424L221.685 102.313Z" fill="#D0C5F3"/>
<path d="M227.676 94.5074C232.897 94.5074 237.13 90.2956 237.13 85.1C237.13 79.9045 232.897 75.6926 227.676 75.6926C222.455 75.6926 218.222 79.9045 218.222 85.1C218.222 90.2956 222.455 94.5074 227.676 94.5074Z" fill="url(#paint10_radial)"/>
<path d="M217.505 108.289C217.059 108.262 216.723 107.854 216.797 107.415C217.611 102.753 221.832 99.3438 226.692 99.6367C231.552 99.9295 235.327 103.823 235.562 108.554C235.585 109.003 235.203 109.364 234.752 109.337L217.505 108.289Z" fill="url(#paint11_radial)"/>
<path d="M232.715 159.676C233.321 156 232.031 152.729 229.833 152.37C227.636 152.011 225.363 154.7 224.756 158.376C224.15 162.051 225.44 165.322 227.638 165.681C229.835 166.04 232.108 163.351 232.715 159.676Z" fill="#512BD4"/>
<path d="M264.655 165.485C265.371 161.829 264.18 158.522 261.994 158.098C259.808 157.673 257.456 160.293 256.739 163.949C256.023 167.605 257.214 170.913 259.4 171.337C261.586 171.761 263.939 169.141 264.655 165.485Z" fill="#512BD4"/>
<path d="M229.304 155.697C230.26 155.033 231.414 154.878 232.458 155.161C232.872 156.429 232.991 158.007 232.715 159.677C232.545 160.716 232.237 161.672 231.837 162.51C230.522 162.642 229.175 162.08 228.366 160.922C227.17 159.215 227.593 156.877 229.304 155.697Z" fill="#8065E0"/>
<path d="M261.274 161.183C262.231 160.519 263.39 160.359 264.433 160.647C264.893 161.974 264.999 163.681 264.649 165.47C264.47 166.385 264.19 167.236 263.831 167.991C262.507 168.133 261.146 167.57 260.332 166.404C259.141 164.706 259.564 162.368 261.274 161.183Z" fill="#8065E0"/>
<path d="M228.781 195.087L245.151 198.011L247.75 183.604L231.38 180.679L228.781 195.087Z" fill="#512BD4"/>
<path d="M232.265 190.581C232.141 190.558 232.044 190.499 231.971 190.398C231.902 190.297 231.874 190.192 231.897 190.073C231.92 189.954 231.98 189.863 232.086 189.794C232.187 189.725 232.302 189.702 232.426 189.725C232.55 189.748 232.651 189.812 232.72 189.908C232.794 190.009 232.817 190.119 232.798 190.238C232.775 190.352 232.716 190.444 232.61 190.512C232.504 190.586 232.389 190.604 232.265 190.581Z" fill="white"/>
<path d="M237.217 191.432L236.412 191.281L234.918 187.566C234.881 187.47 234.854 187.378 234.835 187.277L234.817 187.273C234.817 187.374 234.785 187.579 234.725 187.9L234.169 190.86L233.46 190.727L234.307 186.207L235.162 186.367L236.596 189.991C236.656 190.142 236.698 190.242 236.711 190.297L236.725 190.302C236.725 190.178 236.753 189.973 236.808 189.689L237.355 186.779L238.063 186.911L237.217 191.432Z" fill="white"/>
<path d="M240.675 192.073L238.188 191.611L239.034 187.09L241.42 187.534L241.3 188.17L239.65 187.863L239.411 189.144L240.933 189.428L240.813 190.059L239.291 189.776L239.038 191.112L240.79 191.437L240.675 192.073Z" fill="white"/>
<path d="M244.937 188.847L243.663 188.609L242.937 192.494L242.201 192.356L242.928 188.472L241.659 188.234L241.778 187.598L245.057 188.206L244.937 188.847Z" fill="white"/>
<path d="M262.893 142.574C259.49 132.05 252.152 123.279 242.487 118.031C241.328 117.404 240.744 116.077 241.043 114.8C241.355 113.478 242.836 112.796 244.045 113.427C255.159 119.211 263.615 129.145 267.482 141.11C267.891 142.368 267.192 143.722 265.928 144.125C264.659 144.528 263.302 143.837 262.893 142.574Z" fill="url(#paint12_radial)"/>
<path d="M186.274 208.975L194.974 212.562C197.296 213.5 199.949 212.388 200.892 210.078C201.834 207.767 200.717 205.127 198.395 204.189L189.475 200.51L186.274 208.975Z" fill="#D0C5F3"/>
<path d="M178.439 211.61L179.561 220.913C179.878 223.388 182.15 225.14 184.642 224.829C187.129 224.514 188.89 222.253 188.578 219.773L187.428 210.233L178.439 211.61Z" fill="#D0C5F3"/>
<path d="M174.466 207.488L173.248 216.776C172.94 219.256 174.71 221.512 177.197 221.819C179.69 222.125 181.957 220.364 182.265 217.888L183.515 208.362L174.466 207.488Z" fill="#D0C5F3"/>
<path d="M231.331 200.981C231.042 199.929 230.067 199.16 228.917 199.174C209.812 199.407 192.017 188.54 183.58 171.496C182.977 170.275 181.492 169.776 180.269 170.375C179.041 170.975 178.54 172.452 179.143 173.67C188.417 192.411 207.977 204.353 228.977 204.097C230.343 204.079 231.437 202.967 231.419 201.608C231.419 201.388 231.386 201.183 231.331 200.981Z" fill="url(#paint13_radial)"/>
<path d="M147.398 202.857C145.834 201.915 144.997 200.039 145.462 198.181C146.037 195.898 148.359 194.507 150.653 195.079L272.315 225.314C274.609 225.882 276.007 228.197 275.432 230.48C274.857 232.763 272.535 234.154 270.241 233.582L148.579 203.347C148.152 203.242 147.756 203.072 147.398 202.857Z" fill="#797673"/>
<path d="M184.61 211.038L187.539 219.942C188.334 222.308 190.909 223.585 193.291 222.793C195.668 222.001 196.951 219.439 196.156 217.069L193.153 207.941L184.61 211.038Z" fill="#D0C5F3"/>
<path d="M179.423 210.251L188.215 205.47C183.18 196.3 181.161 187.593 182.219 179.59C183.148 172.549 186.481 165.854 192.119 159.7L184.711 152.979C174.236 164.418 164.81 183.64 179.423 210.251Z" fill="url(#paint14_linear)"/>
<path d="M174.804 168.262L174.4 169.338L183.663 172.777L184.066 171.701L174.804 168.262Z" fill="#A08BE8"/>
<path d="M183.819 217.321C189.071 217.321 193.328 213.084 193.328 207.858C193.328 202.632 189.071 198.396 183.819 198.396C178.567 198.396 174.31 202.632 174.31 207.858C174.31 213.084 178.567 217.321 183.819 217.321Z" fill="url(#paint15_radial)"/>
<path d="M172.22 179.843L172.08 180.983L181.893 182.176L182.033 181.036L172.22 179.843Z" fill="#A08BE8"/>
<path d="M182.508 190.117L172.846 192.204L173.091 193.326L182.753 191.24L182.508 190.117Z" fill="#A08BE8"/>
<path d="M189.971 163.576C195.197 163.576 199.434 159.36 199.434 154.159C199.434 148.959 195.197 144.743 189.971 144.743C184.745 144.743 180.508 148.959 180.508 154.159C180.508 159.36 184.745 163.576 189.971 163.576Z" fill="url(#paint16_radial)"/>
<path d="M248.298 216.785C247.981 214.31 245.705 212.557 243.217 212.873L234.292 213.825C231.8 214.113 230.012 216.355 230.301 218.835C230.591 221.315 232.844 223.095 235.336 222.807L240.73 222.235L244.362 221.837C246.855 221.526 248.616 219.265 248.298 216.785Z" fill="#D0C5F3"/>
<path d="M246.156 213.225C243.696 213.706 242.086 216.081 242.569 218.529L244.119 227.327C244.574 229.784 246.937 231.409 249.406 230.956C251.876 230.503 253.508 228.151 253.053 225.694L252.124 220.377L251.485 216.794C251.007 214.342 248.62 212.745 246.156 213.225Z" fill="#D0C5F3"/>
<path d="M251.577 214.525C249.117 215.005 247.508 217.38 247.99 219.828L249.54 228.627C249.995 231.084 252.359 232.708 254.828 232.255C257.297 231.802 258.929 229.45 258.474 226.993L257.545 221.676L256.906 218.094C256.423 215.646 254.037 214.044 251.577 214.525Z" fill="#D0C5F3"/>
<path d="M256.791 215.66C254.331 216.14 252.722 218.515 253.205 220.963L254.515 227.748C254.97 230.205 257.334 231.83 259.803 231.377C262.272 230.924 263.905 228.572 263.449 226.115L262.521 220.798L262.121 219.229C261.642 216.781 259.256 215.179 256.791 215.66Z" fill="#D0C5F3"/>
<path d="M158.162 196.946L239.36 49.5295L242.625 42.689C242.482 41.7876 241.783 41.0784 240.877 40.9182C239.976 40.7627 239.07 41.1928 238.629 41.9935L153.867 195.875L158.162 196.946Z" fill="#E8D441"/>
<defs>
<linearGradient id="paint0_linear" x1="229.428" y1="169.363" x2="251.878" y2="219.642" gradientUnits="userSpaceOnUse">
<stop offset="0.2239" stop-color="#958FE7"/>
<stop offset="0.4264" stop-color="#BBB7EF"/>
</linearGradient>
<radialGradient id="paint1_radial" cx="0" cy="0" r="1" gradientUnits="userSpaceOnUse" gradientTransform="translate(253.859 221.811) rotate(-114.271) scale(15.9675 16.0197)">
<stop stop-color="#A08BE8"/>
<stop offset="1" stop-color="#8065E0"/>
</radialGradient>
<linearGradient id="paint2_linear" x1="184.032" y1="155.869" x2="158.582" y2="140.182" gradientUnits="userSpaceOnUse">
<stop offset="0.2368" stop-color="#958FE7"/>
<stop offset="0.3961" stop-color="#BBB7EF"/>
</linearGradient>
<radialGradient id="paint3_radial" cx="0" cy="0" r="1" gradientUnits="userSpaceOnUse" gradientTransform="translate(161.947 135.21) rotate(-144.276) scale(9.06077 9.04671)">
<stop stop-color="#8065E0"/>
<stop offset="1" stop-color="#512BD4"/>
</radialGradient>
<linearGradient id="paint4_linear" x1="178.202" y1="161.619" x2="142.24" y2="151.007" gradientUnits="userSpaceOnUse">
<stop offset="0.2368" stop-color="#958FE7"/>
<stop offset="0.3961" stop-color="#BBB7EF"/>
</linearGradient>
<radialGradient id="paint5_radial" cx="0" cy="0" r="1" gradientUnits="userSpaceOnUse" gradientTransform="translate(145.108 142.694) rotate(168.518) scale(10.6393 10.5913)">
<stop stop-color="#8065E0"/>
<stop offset="1" stop-color="#512BD4"/>
</radialGradient>
<radialGradient id="paint6_radial" cx="0" cy="0" r="1" gradientUnits="userSpaceOnUse" gradientTransform="translate(237.815 149.564) rotate(10.1284) scale(64.9468 64.6482)">
<stop offset="0.3472" stop-color="#A08BE8"/>
<stop offset="0.684" stop-color="#8065E0"/>
<stop offset="0.7596" stop-color="#8065E0"/>
</radialGradient>
<radialGradient id="paint7_radial" cx="0" cy="0" r="1" gradientUnits="userSpaceOnUse" gradientTransform="translate(232.059 149.824) rotate(168.518) scale(49.8755 49.6505)">
<stop offset="0.0933" stop-color="#E1DFDD"/>
<stop offset="0.6573" stop-color="white"/>
</radialGradient>
<radialGradient id="paint8_radial" cx="0" cy="0" r="1" gradientUnits="userSpaceOnUse" gradientTransform="translate(226.847 175.516) rotate(168.518) scale(21.114 21.0187)">
<stop offset="0.1574" stop-color="#512BD4"/>
<stop offset="0.3639" stop-color="#5833D6"/>
<stop offset="0.6871" stop-color="#6A49DA"/>
<stop offset="0.9968" stop-color="#8065E0"/>
</radialGradient>
<linearGradient id="paint9_linear" x1="152.203" y1="174.363" x2="239.742" y2="189.57" gradientUnits="userSpaceOnUse">
<stop offset="0.5041" stop-color="#958FE7"/>
<stop offset="0.8039" stop-color="#BDB9F0"/>
</linearGradient>
<radialGradient id="paint10_radial" cx="0" cy="0" r="1" gradientUnits="userSpaceOnUse" gradientTransform="translate(226.418 82.6639) rotate(168.518) scale(9.45583 9.41317)">
<stop stop-color="#A08BE8"/>
<stop offset="1" stop-color="#8065E0"/>
</radialGradient>
<radialGradient id="paint11_radial" cx="0" cy="0" r="1" gradientUnits="userSpaceOnUse" gradientTransform="translate(225.971 102.421) rotate(168.518) scale(7.64831 7.61384)">
<stop stop-color="#8065E0"/>
<stop offset="1" stop-color="#512BD4"/>
</radialGradient>
<radialGradient id="paint12_radial" cx="0" cy="0" r="1" gradientUnits="userSpaceOnUse" gradientTransform="translate(254.356 128.753) rotate(-76.7111) scale(14.422 14.4856)">
<stop offset="0.2632" stop-color="#BDB9F0"/>
<stop offset="0.4345" stop-color="#CEC3E2" stop-opacity="0.7675"/>
<stop offset="0.7974" stop-color="#EDD6C9" stop-opacity="0.2749"/>
<stop offset="1" stop-color="#F9DDBF" stop-opacity="0"/>
</radialGradient>
<radialGradient id="paint13_radial" cx="0" cy="0" r="1" gradientUnits="userSpaceOnUse" gradientTransform="translate(205.34 187.008) rotate(74.5128) scale(22.1094 22.2028)">
<stop stop-color="#BDB9F0"/>
<stop offset="0.2968" stop-color="#C3BCEB" stop-opacity="0.4"/>
<stop offset="0.4132" stop-color="#CEC3E2" stop-opacity="0.3338"/>
<stop offset="0.7899" stop-color="#EDD6C9" stop-opacity="0.1195"/>
<stop offset="1" stop-color="#F9DDBF" stop-opacity="0"/>
</radialGradient>
<linearGradient id="paint14_linear" x1="186.031" y1="153.172" x2="177.619" y2="209.983" gradientUnits="userSpaceOnUse">
<stop offset="0.2026" stop-color="#958FE7"/>
<stop offset="0.347" stop-color="#BBB7EF"/>
</linearGradient>
<radialGradient id="paint15_radial" cx="0" cy="0" r="1" gradientUnits="userSpaceOnUse" gradientTransform="translate(182.29 201.44) rotate(168.518) scale(14.8405 14.7735)">
<stop stop-color="#A08BE8"/>
<stop offset="1" stop-color="#8065E0"/>
</radialGradient>
<radialGradient id="paint16_radial" cx="0" cy="0" r="1" gradientUnits="userSpaceOnUse" gradientTransform="translate(192.894 150.856) rotate(168.518) scale(9.46138 9.4187)">
<stop stop-color="#8065E0"/>
<stop offset="1" stop-color="#512BD4"/>
</radialGradient>
</defs>
</svg>
