<svg width="248" height="294" viewBox="0 0 248 294" fill="none" xmlns="http://www.w3.org/2000/svg">
<path d="M98.4719 203.49C96.039 203.31 93.5633 202.573 91.3015 200.901C85.1908 196.387 82.5013 186.608 83.081 171.008L91.3585 171.269C90.9214 183.086 92.5845 191.003 96.0485 193.559C98.4576 195.341 102.402 194.952 108.099 192.362C114.257 189.568 124.469 181.946 124.568 181.87L129.258 189.145C128.812 189.478 118.225 197.38 111.254 200.544C109.092 201.528 103.889 203.89 98.4719 203.49Z" fill="url(#paint0_linear)"/>
<path d="M166.241 156.676L186.973 155.004C192.955 154.391 198.173 158.059 199.028 163.495C201.062 176.368 201.898 191.041 202.022 202.697C202.093 209.112 201.356 217.836 200.439 221.884C199.152 227.558 193.041 231.098 187.172 231.849L161.147 234.011C155.141 233.45 153.411 222.412 153.953 216.771L154.452 164.745C154.97 159.361 162.539 157.166 166.241 156.676Z" fill="#605D5A"/>
<path d="M195.06 150.518L189.016 143.196C187.391 141.257 184.606 140.901 182.796 142.402C180.986 143.908 180.829 146.698 182.454 148.641L188.655 156.149L195.06 150.518Z" fill="#8A6FE8"/>
<path d="M185.571 158.377C183.822 153.436 186.279 148.28 191.064 146.864C195.849 145.448 201.142 148.304 202.896 153.246C204.649 158.187 202.188 163.343 197.403 164.759C192.618 166.175 187.32 163.314 185.571 158.377Z" fill="url(#paint1_radial)"/>
<path d="M173.839 193.407L237.84 81.9078L236.229 80.986L174.219 189.026L166.616 168.118L196.158 65.1057L194.376 64.5925L164.668 168.19L173.839 193.407Z" fill="#B3AFAB"/>
<path d="M246.327 92.6705C246.327 92.6705 173.53 60.5393 118.001 70.8601C49.3817 83.6137 11.5247 123.148 11.5247 123.148C11.5247 123.148 -4.64545 94.4476 2.5059 75.5738C8.40755 59.9976 41.3893 12.0289 104.388 1.9077C171.192 -8.82646 230.085 28.7455 238.596 39.8883C243.827 46.7308 249.468 82.0361 246.327 92.6705Z" fill="#F7B548"/>
<path d="M4.92455 108.171C1.4843 98.3773 -1.29071 85.5952 2.50592 75.5785C8.40757 59.9976 41.3893 12.0289 104.388 1.9077C171.192 -8.82646 230.085 28.7407 238.596 39.8883C242.14 44.5307 245.875 62.2499 246.935 76.4956C117.156 9.48671 39.3271 72.2381 4.92455 108.171Z" fill="#FCCF84"/>
<path d="M85.5472 161.723L93.6679 157.189C97.5453 155.061 100.634 160.554 99.7596 158.962C100.952 161.133 100.159 163.861 97.9872 165.054L89.6622 169.701L85.5472 161.723Z" fill="#8A6FE8"/>
<path d="M85.1955 175.194C90.3811 175.194 94.5849 170.99 94.5849 165.804C94.5849 160.619 90.3811 156.415 85.1955 156.415C80.0099 156.415 75.8061 160.619 75.8061 165.804C75.8061 170.99 80.0099 175.194 85.1955 175.194Z" fill="url(#paint2_radial)"/>
<path d="M152.295 202.269L151.801 187.292L151.515 187.026L50.7407 94.6805L49.0158 95.6071L149.976 188.133L150.332 198.957L13.8673 118.278L12.9264 119.869L152.295 202.269Z" fill="#B3AFAB"/>
<path d="M191.059 11.8103C216.419 21.366 234.21 34.1387 238.596 39.8835C243.827 46.7308 249.468 82.0361 246.327 92.6705C246.327 92.6705 228.066 84.6116 202.863 77.8641C202.734 61.9601 200.563 37.7548 191.059 11.8103Z" fill="#E3646A"/>
<path d="M40.1206 101.1C21.375 112.865 11.5294 123.143 11.5294 123.143C11.5294 123.143 -4.64069 94.4429 2.51066 75.569C5.41872 67.8902 14.9174 52.3378 31.3394 37.3318C28.1653 63.091 34.8795 87.1347 40.1206 101.1Z" fill="#E3646A"/>
<path d="M86.0413 79.2516C82.2922 63.4331 76.8372 33.3357 81.7553 7.48149C88.8163 5.10562 96.3573 3.20018 104.388 1.90771C114.438 0.292121 124.307 -0.221066 133.858 0.0925486C147.011 27.1014 148.593 53.464 148.028 68.9356C137.811 68.5555 127.647 69.0687 118.001 70.8601C106.464 73.0031 95.8014 75.9064 86.0413 79.2516Z" fill="#E3646A"/>
<path d="M191.059 11.8103C216.419 21.366 234.21 34.1387 238.596 39.8835C243.827 46.7308 249.468 82.0361 246.327 92.6705C246.327 92.6705 228.066 84.6116 202.863 77.8641C202.734 61.9601 200.563 37.7548 191.059 11.8103Z" fill="#E86E58"/>
<path d="M40.1206 101.1C21.375 112.865 11.5294 123.143 11.5294 123.143C11.5294 123.143 -4.64069 94.4429 2.51066 75.569C5.41872 67.8902 14.9174 52.3378 31.3394 37.3318C28.1653 63.091 34.8795 87.1347 40.1206 101.1Z" fill="#E86E58"/>
<path d="M86.0413 79.2516C82.2922 63.4331 76.8372 33.3357 81.7553 7.48149C88.8163 5.10562 96.3573 3.20018 104.388 1.90771C114.438 0.292121 124.307 -0.221066 133.858 0.0925486C147.011 27.1014 148.593 53.464 148.028 68.9356C137.811 68.5555 127.647 69.0687 118.001 70.8601C106.464 73.0031 95.8014 75.9064 86.0413 79.2516Z" fill="#E86E58"/>
<path d="M4.92455 108.171C1.4843 98.3773 -1.29071 85.5952 2.50592 75.5785C5.41398 67.8997 14.9127 52.3473 31.3347 37.3414C29.3294 53.6255 31.2776 69.2207 34.3045 82.0219C22.3159 90.9171 12.5511 100.202 4.92455 108.171Z" fill="#ED9583"/>
<path d="M201.736 58.2775C200.297 44.7113 197.218 28.6267 191.059 11.8103C216.419 21.366 234.21 34.1387 238.596 39.8835C242.212 44.6163 246.018 62.9342 246.992 77.3129C231.135 69.1257 216.058 62.8772 201.736 58.2775Z" fill="#ED9583"/>
<path d="M81.8646 57.2606C79.7026 42.1359 78.6239 23.951 81.7553 7.47673C88.8164 5.10086 96.3574 3.19542 104.388 1.90295C114.438 0.287361 124.307 -0.225826 133.858 0.0877879C142.174 17.1655 145.866 33.9819 147.31 47.952C122.525 46.6975 100.753 50.5844 81.8646 57.2606Z" fill="#ED9583"/>
<path d="M174.219 261.1L178.291 253.008C178.097 252.923 157.797 244.251 151.667 230.96L143.727 234.624C151.259 250.955 173.283 260.696 174.219 261.1Z" fill="url(#paint3_linear)"/>
<path d="M194.029 250.713L194.823 241.694C194.614 241.67 173.478 239.185 163.737 228.266L157.208 234.087C169.182 247.51 193.017 250.594 194.029 250.713Z" fill="url(#paint4_linear)"/>
<path d="M113.549 210.813C108.322 199.556 108.436 190.019 108.436 190.019L105.756 190.361L105.68 190.319C105.376 168.475 120.563 149.957 142.587 147.144C167.405 143.98 191.506 161.951 196.424 187.282C201.342 212.614 185.21 235.721 160.392 238.886C140.81 241.385 121.675 230.718 112.057 213.664C111.729 212.932 111.482 211.573 113.549 210.813Z" fill="url(#paint5_radial)"/>
<path d="M113.535 210.818C108.37 199.699 108.417 190.266 108.422 190.038L155.041 184.089C155.041 184.089 157.921 183.41 158.453 186.147C158.985 188.884 160.377 196.638 162.036 205.196C162.378 206.954 161.128 207.986 160.021 208.128C160.016 208.128 114.305 212.623 113.535 210.818Z" fill="url(#paint6_radial)"/>
<path d="M142.52 207.197C142.52 207.197 134.229 202.317 132.618 201.423C131.012 200.53 129.776 200.625 128.712 201.922C127.647 203.215 121.584 209.867 121.584 209.867L142.52 207.197Z" fill="#A08BE8"/>
<path d="M112.323 214.177C112.323 214.177 110.603 211.891 113.535 210.818C113.53 210.808 159.361 204.935 159.361 204.935C160.425 204.797 161.675 203.975 161.589 202.906C161.736 203.661 161.884 204.426 162.031 205.201C162.34 206.798 161.342 207.791 160.325 208.066C160.225 208.09 160.121 208.119 160.012 208.133L156.88 208.532L112.323 214.177Z" fill="#512BD4"/>
<path d="M117.217 221.195L194.704 211.312C193.549 214.552 192.024 217.608 190.166 220.43L124.987 228.746C122.15 226.522 119.541 223.989 117.217 221.195Z" fill="#D8CFF7"/>
<path d="M151.501 145.229L142.677 145.301L143.205 136.116L149.544 136.068L151.501 145.229Z" fill="#8A6FE8"/>
<path d="M150.09 136.84C152.62 134.614 152.732 130.606 150.34 127.886C147.948 125.167 143.958 124.766 141.428 126.992C138.897 129.218 138.785 133.227 141.177 135.946C143.569 138.665 147.56 139.066 150.09 136.84Z" fill="#D8CFF7"/>
<path d="M155.317 150.813C155.716 150.808 156.006 150.456 155.93 150.057C155.131 145.819 151.325 142.549 147.011 142.583C142.696 142.616 139.403 145.942 139.27 150.185C139.256 150.585 139.603 150.931 140.002 150.931L155.317 150.813Z" fill="url(#paint7_radial)"/>
<path d="M147.428 201.969C149.338 201.563 150.313 198.542 149.606 195.223C148.899 191.904 146.778 189.544 144.869 189.95C142.959 190.357 141.984 193.377 142.69 196.696C143.397 200.015 145.518 202.376 147.428 201.969Z" fill="#512BD4"/>
<path d="M119.273 205.518C121.168 205.06 122.056 202.008 121.256 198.703C120.456 195.397 118.271 193.089 116.376 193.548C114.481 194.006 113.593 197.058 114.393 200.363C115.193 203.669 117.378 205.977 119.273 205.518Z" fill="#512BD4"/>
<path d="M145.59 192.922C144.73 192.281 143.699 192.081 142.777 192.29C142.43 193.412 142.349 194.828 142.62 196.344C142.791 197.289 143.076 198.164 143.447 198.933C144.621 199.114 145.809 198.672 146.507 197.669C147.538 196.196 147.13 194.072 145.59 192.922Z" fill="#8065E0"/>
<path d="M117.26 196.339C116.4 195.698 115.369 195.498 114.447 195.707C114.062 196.881 113.991 198.411 114.333 200.041C114.509 200.872 114.77 201.651 115.098 202.35C116.277 202.54 117.479 202.098 118.182 201.086C119.213 199.608 118.8 197.484 117.26 196.339Z" fill="#8065E0"/>
<path d="M146.678 228.418L132.176 230.266L129.206 217.095L143.708 215.246L146.678 228.418Z" fill="#512BD4"/>
<path d="M107.296 224.042C107.405 224.027 107.491 223.98 107.552 223.894C107.614 223.809 107.633 223.714 107.614 223.609C107.595 223.5 107.538 223.414 107.448 223.348C107.358 223.281 107.258 223.253 107.148 223.267C107.039 223.281 106.949 223.329 106.887 223.419C106.825 223.505 106.802 223.604 106.821 223.709C106.84 223.813 106.897 223.899 106.992 223.966C107.087 224.027 107.187 224.056 107.296 224.042Z" fill="white"/>
<path d="M102.9 224.526L103.613 224.436L104.91 221.176C104.944 221.095 104.967 221.01 104.982 220.924H104.996C104.996 221.015 105.029 221.205 105.082 221.495L105.599 224.189L106.231 224.108L105.443 219.993L104.682 220.088L103.433 223.267C103.38 223.4 103.347 223.49 103.333 223.538H103.323C103.319 223.429 103.295 223.243 103.243 222.982L102.734 220.33L102.107 220.407L102.9 224.526Z" fill="white"/>
<path d="M99.8309 224.906L102.036 224.631L101.247 220.516L99.1276 220.782L99.2369 221.362L100.705 221.176L100.929 222.34L99.579 222.507L99.6883 223.082L101.038 222.911L101.271 224.127L99.7168 224.322L99.8309 224.906Z" fill="white"/>
<path d="M96.02 221.766L97.1509 221.623L97.8256 225.158L98.4766 225.077L97.8019 221.542L98.928 221.4L98.8187 220.82L95.9107 221.181L96.02 221.766Z" fill="white"/>
<path d="M209.102 191.283C210.936 189.672 212.461 187.591 213.259 184.892C215.407 177.608 211.658 168.185 201.784 156.092L195.341 161.29C202.815 170.452 206.265 177.769 205.048 181.899C204.198 184.773 200.819 186.84 194.713 188.214C188.113 189.701 175.379 189.782 175.25 189.782L175.901 198.416C176.462 198.411 189.667 198.33 197.137 196.648C199.446 196.13 205.02 194.871 209.102 191.283Z" fill="#8A6FE8"/>
<path d="M203.319 163.181L199.085 165.348C197.237 166.294 194.875 165.491 193.801 163.552L193.283 162.616C192.214 160.677 192.841 158.344 194.69 157.399L198.923 155.232C200.772 154.286 203.133 155.089 204.207 157.028L204.725 157.964C205.799 159.898 205.167 162.236 203.319 163.181Z" fill="#8A6FE8"/>
<path d="M202.791 156.529L198.558 158.696C196.709 159.641 194.348 158.838 193.274 156.9L192.756 155.964C191.687 154.025 192.314 151.692 194.162 150.746L198.396 148.579C200.244 147.634 202.606 148.437 203.68 150.376L204.198 151.312C205.272 153.25 204.64 155.583 202.791 156.529Z" fill="#8A6FE8"/>
<path d="M202.435 150.276L198.201 152.443C196.353 153.388 193.991 152.585 192.917 150.646L192.399 149.71C191.33 147.772 191.957 145.438 193.806 144.493L198.04 142.326C199.888 141.38 202.25 142.184 203.324 144.122L203.841 145.058C204.915 146.997 204.283 149.33 202.435 150.276Z" fill="#8A6FE8"/>
<path d="M74.7085 168.195L78.239 172.319C79.5695 173.878 81.9168 174.058 83.4707 172.728L84.6111 171.754C86.1696 170.423 86.3502 168.076 85.0197 166.522L81.4892 162.397C80.1587 160.839 77.8113 160.658 76.2575 161.989L75.1171 162.963C73.5585 164.293 73.378 166.636 74.7085 168.195Z" fill="#8A6FE8"/>
<path d="M77.1746 162.298L80.5626 166.256C81.9359 167.862 84.345 168.047 85.9511 166.674L86.9252 165.842C88.5313 164.469 88.7166 162.06 87.3433 160.454L83.9553 156.496C82.5821 154.89 80.173 154.704 78.5669 156.078L77.5928 156.909C75.9867 158.282 75.8014 160.692 77.1746 162.298Z" fill="#8A6FE8"/>
<path d="M79.5742 156.443L83.0192 160.468C84.3735 162.055 86.7589 162.241 88.3459 160.882L89.3866 159.993C90.9736 158.639 91.159 156.253 89.8 154.666L86.355 150.642C85.0007 149.055 82.6154 148.869 81.0283 150.228L79.9876 151.117C78.4053 152.471 78.22 154.856 79.5742 156.443Z" fill="#8A6FE8"/>
<path d="M181.413 160.273C182.839 161.613 184.193 163.029 185.467 164.531C185.148 164.664 184.83 164.802 184.511 164.949C171.791 170.932 166.474 186.489 172.656 199.627C176.709 208.242 184.721 213.711 193.34 214.766C192.518 216.562 191.573 218.297 190.518 219.946C180.895 218.073 172.171 211.692 167.61 201.998C160.244 186.337 166.445 167.81 181.413 160.273Z" fill="#605D5A"/>
<path d="M170.717 187.068C167.158 189.82 166.697 195.127 169.686 198.924C172.675 202.721 177.978 203.566 181.537 200.815C185.096 198.064 185.557 192.756 182.568 188.96C179.584 185.168 174.276 184.317 170.717 187.068Z" fill="url(#paint8_radial)"/>
<path d="M171.839 249.82L168.341 255.973L198.082 280.293L205.105 267.948C205.638 267.007 205.281 265.866 204.302 265.396L171.839 249.82Z" fill="#522CD5"/>
<path d="M181.979 288.599C182.221 290.143 183.452 290.813 184.787 291.454L188.883 293.422C189.615 293.773 190.541 293.483 190.945 292.775L198.263 279.912C198.719 279.114 198.41 278.14 197.583 277.741L193.44 275.522C191.896 274.781 191.63 273.973 190.879 272.034C189.591 268.713 179.817 255.527 170.998 251.293L167.396 257.627C172.209 260.896 179.674 273.873 181.979 288.599Z" fill="url(#paint9_linear)"/>
<path d="M184.787 291.454C183.856 291.008 182.981 290.537 182.449 289.772L191.577 273.726C191.981 274.538 192.447 275.047 193.435 275.522L197.579 277.741C198.41 278.14 198.714 279.109 198.263 279.912L190.945 292.775C190.541 293.483 189.615 293.773 188.883 293.422L184.787 291.454Z" fill="url(#paint10_radial)"/>
<path d="M132.76 225.315C132.646 225.329 132.537 225.306 132.437 225.239C132.337 225.172 132.276 225.087 132.247 224.978C132.223 224.868 132.238 224.769 132.304 224.683C132.366 224.598 132.456 224.545 132.575 224.531C132.694 224.517 132.803 224.541 132.903 224.607C133.003 224.674 133.069 224.764 133.093 224.868C133.117 224.973 133.098 225.073 133.036 225.158C132.969 225.249 132.879 225.301 132.76 225.315Z" fill="white"/>
<path d="M137.389 224.659L136.633 224.754L133.91 221.941C133.839 221.87 133.782 221.794 133.73 221.718H133.711C133.749 221.804 133.801 221.994 133.872 222.288L134.528 225.02L133.858 225.106L132.86 220.934L133.663 220.829L136.305 223.576C136.414 223.69 136.49 223.766 136.524 223.814H136.533C136.486 223.704 136.433 223.519 136.372 223.258L135.73 220.573L136.395 220.487L137.389 224.659Z" fill="white"/>
<path d="M140.643 224.246L138.306 224.545L137.308 220.373L139.555 220.088L139.698 220.677L138.144 220.877L138.424 222.055L139.859 221.875L139.997 222.459L138.562 222.64L138.857 223.871L140.506 223.661L140.643 224.246Z" fill="white"/>
<path d="M143.114 220.24L141.917 220.392L142.772 223.975L142.078 224.065L141.223 220.483L140.03 220.635L139.888 220.045L142.972 219.651L143.114 220.24Z" fill="white"/>
<path d="M189.111 240.677L187.747 247.624L223.675 261.233L226.412 247.297C226.621 246.237 225.918 245.268 224.844 245.134L189.111 240.677Z" fill="#522CD5"/>
<path d="M211.05 274.225C211.767 275.612 213.15 275.854 214.623 276.04L219.133 276.6C219.94 276.7 220.724 276.13 220.881 275.332L223.732 260.811C223.908 259.908 223.309 259.086 222.397 258.972L217.764 258.188C216.068 257.974 215.554 257.294 214.229 255.693C211.953 252.951 198.496 243.557 188.788 242.345L187.386 249.497C192.979 251.06 204.184 260.991 211.05 274.225Z" fill="url(#paint11_linear)"/>
<path d="M214.618 276.04C213.592 275.911 212.613 275.745 211.867 275.189L215.421 257.076C216.063 257.717 216.666 258.054 217.755 258.188L222.387 258.972C223.305 259.086 223.899 259.908 223.723 260.81L220.872 275.332C220.715 276.13 219.926 276.7 219.123 276.6L214.618 276.04Z" fill="url(#paint12_radial)"/>
<defs>
<linearGradient id="paint0_linear" x1="129.156" y1="189.932" x2="81.8948" y2="186.435" gradientUnits="userSpaceOnUse">
<stop stop-color="#522CD5"/>
<stop offset="0.4535" stop-color="#8A6FE8"/>
</linearGradient>
<radialGradient id="paint1_radial" cx="0" cy="0" r="1" gradientUnits="userSpaceOnUse" gradientTransform="translate(189.927 151.816) rotate(138.662) scale(13.7057 14.7275)">
<stop stop-color="#8065E0"/>
<stop offset="0.6947" stop-color="#512BD4"/>
</radialGradient>
<radialGradient id="paint2_radial" cx="0" cy="0" r="1" gradientUnits="userSpaceOnUse" gradientTransform="translate(85.1946 165.803) scale(9.39194)">
<stop stop-color="#8065E0"/>
<stop offset="0.6947" stop-color="#512BD4"/>
</radialGradient>
<linearGradient id="paint3_linear" x1="154.224" y1="229.62" x2="170.153" y2="263.035" gradientUnits="userSpaceOnUse">
<stop offset="0.0936" stop-color="#522CD5"/>
<stop offset="0.4499" stop-color="#8A6FE8"/>
</linearGradient>
<linearGradient id="paint4_linear" x1="165.583" y1="226.482" x2="190.629" y2="253.873" gradientUnits="userSpaceOnUse">
<stop offset="0.0936" stop-color="#522CD5"/>
<stop offset="0.4499" stop-color="#8A6FE8"/>
</linearGradient>
<radialGradient id="paint5_radial" cx="0" cy="0" r="1" gradientUnits="userSpaceOnUse" gradientTransform="translate(137.995 186.871) rotate(172.728) scale(57.1004 58.7797)">
<stop offset="0.3472" stop-color="#A08BE8"/>
<stop offset="0.684" stop-color="#8065E0"/>
<stop offset="0.7596" stop-color="#8065E0"/>
</radialGradient>
<radialGradient id="paint6_radial" cx="0" cy="0" r="1" gradientUnits="userSpaceOnUse" gradientTransform="translate(116.841 181.328) rotate(138.662) scale(45.0889 48.4504)">
<stop offset="0.0933" stop-color="#E1DFDD"/>
<stop offset="0.6573" stop-color="white"/>
</radialGradient>
<radialGradient id="paint7_radial" cx="0" cy="0" r="1" gradientUnits="userSpaceOnUse" gradientTransform="translate(145.729 146.476) rotate(138.662) scale(6.72143 7.22254)">
<stop stop-color="#8065E0"/>
<stop offset="1" stop-color="#512BD4"/>
</radialGradient>
<radialGradient id="paint8_radial" cx="0" cy="0" r="1" gradientUnits="userSpaceOnUse" gradientTransform="translate(174.083 189.559) rotate(138.662) scale(15.4838 16.6382)">
<stop stop-color="#8065E0"/>
<stop offset="0.6947" stop-color="#512BD4"/>
</radialGradient>
<linearGradient id="paint9_linear" x1="169.272" y1="252.349" x2="193.195" y2="291.636" gradientUnits="userSpaceOnUse">
<stop stop-color="#522CD5"/>
<stop offset="0.4397" stop-color="#8A6FE8"/>
</linearGradient>
<radialGradient id="paint10_radial" cx="0" cy="0" r="1" gradientUnits="userSpaceOnUse" gradientTransform="translate(180.54 277.779) rotate(119.631) scale(15.5932)">
<stop offset="0.034" stop-color="#522CD5"/>
<stop offset="0.9955" stop-color="#8A6FE8"/>
</radialGradient>
<linearGradient id="paint11_linear" x1="187.586" y1="243.784" x2="222.752" y2="273.429" gradientUnits="userSpaceOnUse">
<stop stop-color="#522CD5"/>
<stop offset="0.4397" stop-color="#8A6FE8"/>
</linearGradient>
<radialGradient id="paint12_radial" cx="0" cy="0" r="1" gradientUnits="userSpaceOnUse" gradientTransform="translate(206.252 264.444) rotate(101.104) scale(15.594)">
<stop offset="0.034" stop-color="#522CD5"/>
<stop offset="0.9955" stop-color="#8A6FE8"/>
</radialGradient>
</defs>
</svg>
