<svg width="203" height="240" viewBox="0 0 203 240" fill="none" xmlns="http://www.w3.org/2000/svg">
<path d="M192.497 87.4332L193.021 58.734L180.859 58.5131L180.335 87.2123L192.497 87.4332Z" fill="#D0C5F3"/>
<path d="M180.607 71.9559L180.582 73.3755L192.743 73.5964L192.769 72.1769L180.607 71.9559Z" fill="#A08BE8"/>
<path d="M179.48 86.2901L184.598 97.3839C184.598 97.3839 192.143 95.4009 192.494 87.4401C184.73 86.025 180.363 85.2346 180.363 85.2346L179.48 86.2901Z" fill="#A08BE8"/>
<path d="M110.061 198.123C112.996 212.01 127.608 223.932 128.532 224.476C129.457 225.02 102.074 225.3 102.074 225.3C102.074 225.3 94.0264 206.098 97.5026 197.641C97.8299 196.85 110.061 198.123 110.061 198.123Z" fill="#A08BE8"/>
<path d="M103.222 223.421L127.242 223.539C127.242 223.539 132.824 227.283 134.308 229.98C135.442 232.044 135.366 236.677 135.266 238.741C135.238 239.318 134.764 239.768 134.185 239.768L111.018 239.725C110.274 239.725 109.676 239.12 109.681 238.377C109.705 235.816 109.264 230.364 108.301 228.807C106.854 226.478 103.222 223.421 103.222 223.421Z" fill="#D0C5F3"/>
<path d="M95.9374 195.743C91.508 211.181 93.3196 235.655 93.5046 236.952C93.7606 238.746 94.0025 240 96.5587 240C99.7409 240 113.399 240 113.399 240L106.229 196.737L95.9374 195.743Z" fill="#8065E0"/>
<path d="M110.061 198.123C111.132 205.696 118.701 216.345 133.047 227.486C134.726 228.788 135.589 230.165 135.589 232.101V238.301C135.589 239.219 134.845 239.962 133.925 239.962H110.895C110.246 239.962 109.719 239.437 109.719 238.788V231.632C109.719 229.403 109.269 228.258 106.978 226.615C101.24 222.507 97.6165 208.649 97.4979 198.791C97.3793 188.932 110.061 198.123 110.061 198.123Z" fill="#A08BE8"/>
<path d="M135.376 230.577C135.513 231.05 135.594 231.552 135.594 232.101V238.301C135.594 239.219 134.849 239.962 133.929 239.962H110.9C110.25 239.962 109.724 239.437 109.724 238.788V231.632C109.724 231.249 109.709 230.903 109.676 230.577H135.376Z" fill="#D0C5F3"/>
<path d="M71.0875 198.123C68.1519 212.01 53.5405 223.932 52.6157 224.476C51.6909 225.02 79.0737 225.3 79.0737 225.3C79.0737 225.3 87.1217 206.098 83.6454 197.641C83.3182 196.85 71.0875 198.123 71.0875 198.123Z" fill="#A08BE8"/>
<path d="M77.9264 223.421L53.9059 223.539C53.9059 223.539 48.3241 227.283 46.8397 229.98C45.7063 232.044 45.7821 236.677 45.8817 238.741C45.9102 239.318 46.3844 239.768 46.963 239.768L70.1298 239.725C70.8744 239.725 71.4719 239.12 71.4672 238.377C71.4435 235.816 71.8845 230.364 72.8472 228.807C74.2937 226.478 77.9264 223.421 77.9264 223.421Z" fill="#D0C5F3"/>
<path d="M85.2107 195.743C89.6401 211.181 87.8285 235.655 87.6436 236.952C87.3875 238.746 87.1456 240 84.5894 240C81.4072 240 67.749 240 67.749 240L74.9243 196.737L85.2107 195.743Z" fill="#8065E0"/>
<path d="M71.0876 198.123C70.0158 205.696 62.4469 216.345 48.101 227.486C46.4222 228.788 45.5591 230.165 45.5591 232.101V238.301C45.5591 239.219 46.3036 239.962 47.2237 239.962H70.253C70.9027 239.962 71.4291 239.437 71.4291 238.788V231.632C71.4291 229.403 71.8796 228.258 74.1702 226.615C79.9086 222.507 83.5318 208.649 83.6503 198.791C83.7689 188.932 71.0876 198.123 71.0876 198.123Z" fill="#A08BE8"/>
<path d="M45.7772 230.577C45.6397 231.05 45.5591 231.552 45.5591 232.101V238.301C45.5591 239.219 46.3036 239.962 47.2237 239.962H70.253C70.9027 239.962 71.4291 239.437 71.4291 238.788V231.632C71.4291 231.249 71.4433 230.903 71.4765 230.577H45.7772Z" fill="#D0C5F3"/>
<path d="M96.4888 147.448L96.522 181.26L108.691 181.251L108.653 147.434L96.4888 147.448Z" fill="url(#paint0_linear)"/>
<path d="M108.628 166.333H96.4546V167.918H108.628V166.333Z" fill="#A08BE8"/>
<path d="M71.4727 147.448L71.5106 181.26L83.6749 181.251L83.6417 147.434L71.4727 147.448Z" fill="url(#paint1_linear)"/>
<path d="M83.6167 166.333H71.4429V167.918H83.6167V166.333Z" fill="#A08BE8"/>
<path d="M20.3054 170.829C11.5034 165.121 0.918319 152.692 0.0551953 136.454C-0.471215 126.595 2.52126 111.9 19.779 97.895L27.5613 107.441C17.09 115.942 11.8354 125.748 12.3713 135.796C12.9499 146.677 20.1536 156.048 27.0302 160.511L20.3054 170.829Z" fill="url(#paint2_linear)"/>
<path d="M8.63887 109.628L7.83887 110.802L17.8976 117.629L18.6976 116.455L8.63887 109.628Z" fill="#A08BE8"/>
<path d="M161.203 104.928L184.598 97.3839L180.718 85.8783L157.329 93.4225L161.203 104.928Z" fill="url(#paint3_linear)"/>
<path d="M170.496 89.1739L169.148 89.6266L173.026 101.133L174.374 100.68L170.496 89.1739Z" fill="#A08BE8"/>
<path d="M153.985 111.45C160.282 111.45 165.386 106.356 165.386 100.072C165.386 93.7884 160.282 88.6943 153.985 88.6943C147.689 88.6943 142.584 93.7884 142.584 100.072C142.584 106.356 147.689 111.45 153.985 111.45Z" fill="url(#paint4_radial)"/>
<path d="M27.8364 111.45C34.1329 111.45 39.2372 106.356 39.2372 100.072C39.2372 93.7884 34.1329 88.6943 27.8364 88.6943C21.5399 88.6943 16.4355 93.7884 16.4355 100.072C16.4355 106.356 21.5399 111.45 27.8364 111.45Z" fill="url(#paint5_radial)"/>
<path d="M91.1526 155.423C125.44 155.423 153.236 127.684 153.236 93.4651C153.236 59.2465 125.44 31.5068 91.1526 31.5068C56.865 31.5068 29.0693 59.2465 29.0693 93.4651C29.0693 127.684 56.865 155.423 91.1526 155.423Z" fill="url(#paint6_radial)"/>
<path d="M142.641 93.4651C142.641 100.176 141.342 106.58 138.994 112.453C138.425 113.878 137.045 114.81 135.509 114.81H46.7918C45.2553 114.81 43.8752 113.878 43.3061 112.453C40.9586 106.58 39.6592 100.176 39.6592 93.4651C39.6592 90.72 39.8821 88.0317 40.2994 85.405C40.5887 83.6018 42.1679 82.286 43.9985 82.286H138.307C140.137 82.286 141.716 83.6018 142.006 85.405C142.418 88.0317 142.641 90.72 142.641 93.4651Z" fill="url(#paint7_radial)"/>
<path d="M37.6201 124.839H144.681C142.276 128.914 139.421 132.686 136.177 136.094H46.1233C42.8842 132.686 40.0245 128.914 37.6201 124.839Z" fill="url(#paint8_radial)"/>
<path d="M81.0692 139.312L101.106 139.312L101.106 121.625L81.0692 121.625L81.0692 139.312Z" fill="#512BD4"/>
<path d="M85.2885 132.839C85.1529 132.839 85.0406 132.797 84.9424 132.708C84.8488 132.619 84.7974 132.511 84.7974 132.38C84.7974 132.254 84.8395 132.141 84.933 132.048C85.0266 131.954 85.1389 131.907 85.2745 131.903C85.4102 131.903 85.5271 131.945 85.6207 132.034C85.7189 132.123 85.7704 132.235 85.7704 132.361C85.7704 132.488 85.7236 132.595 85.63 132.689C85.5411 132.792 85.4242 132.839 85.2885 132.839Z" fill="white"/>
<path d="M90.6582 132.68L89.7834 132.694L87.4257 129.094C87.3649 129.005 87.3181 128.907 87.276 128.809H87.2573C87.276 128.916 87.2901 129.141 87.2947 129.487L87.3462 132.726L86.5743 132.74L86.4995 127.798L87.4304 127.784L89.7086 131.299C89.8068 131.444 89.8676 131.547 89.8957 131.598H89.9097C89.8863 131.467 89.8723 131.247 89.8676 130.934L89.8208 127.746L90.588 127.732L90.6582 132.68Z" fill="white"/>
<path d="M94.4246 132.623L91.7208 132.666L91.646 127.723L94.2422 127.681L94.2516 128.378L92.4553 128.406L92.4786 129.806L94.1346 129.782L94.144 130.475L92.488 130.498L92.5114 131.959L94.4153 131.931L94.4246 132.623Z" fill="white"/>
<path d="M98.2038 128.317L96.8192 128.341L96.8846 132.586L96.0847 132.6L96.0192 128.355L94.6392 128.378L94.6299 127.681L98.1945 127.625L98.2038 128.317Z" fill="white"/>
<path d="M40.2945 85.405C40.5838 83.6018 42.163 82.286 43.9936 82.286H48.3235C46.4929 82.286 44.9137 83.6018 44.6244 85.405C44.207 88.0317 43.9841 90.72 43.9841 93.4651C43.9841 98.6665 44.7714 103.679 46.2178 108.407C46.749 109.708 48.1575 110.489 49.5944 110.489H132.677C134.214 110.489 135.731 109.604 136.163 108.132C136.471 107.086 136.751 106.017 137.002 104.961C137.856 101.265 138.316 97.4171 138.316 93.4651C138.316 90.72 138.093 88.0317 137.676 85.405C137.386 83.6018 135.807 82.286 133.977 82.286H138.306C140.137 82.286 141.716 83.6018 142.006 85.405C142.423 88.0317 142.646 90.72 142.646 93.4651C142.646 100.176 141.346 106.58 138.999 112.453C138.43 113.878 137.05 114.81 135.513 114.81H131.183H51.1168H46.7917H46.7869C45.2504 114.81 43.8703 113.878 43.3012 112.453C40.9537 106.58 39.6543 100.176 39.6543 93.4651C39.6543 90.72 39.8772 88.0317 40.2945 85.405Z" fill="url(#paint9_radial)"/>
<path d="M100.149 110.489C100.149 110.489 93.9601 105.6 92.7508 104.696C91.5414 103.792 90.4839 103.74 89.3789 104.696C88.2692 105.652 82.0708 110.489 82.0708 110.489H100.149Z" fill="#A08BE8"/>
<path d="M164.433 48.0767L177.669 59.0806C180.026 61.04 183.531 60.7229 185.499 58.3707C187.462 56.0185 187.144 52.5209 184.787 50.5567L171.551 39.5527C169.194 37.5933 165.69 37.9104 163.721 40.2627C161.753 42.6196 162.076 46.1173 164.433 48.0767Z" fill="#D0C5F3"/>
<path d="M197.758 51.9246L202.519 41.3844C203.766 38.5683 202.491 35.2743 199.669 34.0248C196.847 32.78 193.547 34.0532 192.295 36.8692L187.415 47.6792L197.758 51.9246Z" fill="#D0C5F3"/>
<path d="M195.188 46.2262L195.131 30.2811C195.107 27.1999 192.589 24.7199 189.501 24.7436C186.414 24.7672 183.929 27.2804 183.953 30.3615L183.958 42.2174L195.188 46.2262Z" fill="#D0C5F3"/>
<path d="M188.581 47.9489L184.896 32.4203C184.19 29.4196 181.183 27.5596 178.176 28.2648C175.17 28.97 173.306 31.9707 174.012 34.9713L177.764 50.7839L188.581 47.9489Z" fill="#D0C5F3"/>
<path d="M186.509 62.6209C192.97 62.6209 198.208 57.3933 198.208 50.9448C198.208 44.4963 192.97 39.2688 186.509 39.2688C180.047 39.2688 174.809 44.4963 174.809 50.9448C174.809 57.3933 180.047 62.6209 186.509 62.6209Z" fill="url(#paint10_radial)"/>
<path d="M109.363 180.815H96.9666C95.1408 180.815 93.6611 182.292 93.6611 184.114V196.912C93.6611 198.734 95.1408 200.211 96.9666 200.211H109.363C111.189 200.211 112.669 198.734 112.669 196.912V184.114C112.669 182.292 111.189 180.815 109.363 180.815Z" fill="url(#paint11_radial)"/>
<path d="M40.3849 155.083L23.3074 152.816C20.2627 152.413 17.4694 154.543 17.0616 157.582C16.6585 160.62 18.7926 163.408 21.8372 163.815L38.9147 166.082C41.9594 166.484 44.7527 164.354 45.1605 161.316C45.5636 158.277 43.4248 155.485 40.3849 155.083Z" fill="#D0C5F3"/>
<path d="M10.1328 169.565L11.7358 181.014C12.1863 184.062 15.0223 186.168 18.0764 185.723C21.1305 185.274 23.2409 182.443 22.7951 179.395L21.1495 167.653L10.1328 169.565Z" fill="#D0C5F3"/>
<path d="M15.354 173.015L23.9188 186.476C25.5834 189.069 29.0407 189.827 31.6395 188.165C34.2384 186.504 34.9972 183.054 33.3326 180.46L26.9967 170.431L15.354 173.015Z" fill="#D0C5F3"/>
<path d="M20.0254 168.041L31.4357 179.22C33.6362 181.383 37.174 181.355 39.3413 179.159C41.5086 176.963 41.4802 173.432 39.2844 171.269L27.6655 159.886L20.0254 168.041Z" fill="#D0C5F3"/>
<path d="M20.1771 176.078C26.6386 176.078 31.8767 170.85 31.8767 164.402C31.8767 157.953 26.6386 152.726 20.1771 152.726C13.7156 152.726 8.47754 157.953 8.47754 164.402C8.47754 170.85 13.7156 176.078 20.1771 176.078Z" fill="url(#paint12_radial)"/>
<path d="M14.5246 144.994L3.31885 149.716L3.87229 151.024L15.0781 146.302L14.5246 144.994Z" fill="#A08BE8"/>
<path d="M0.00292969 134.234L12.5514 131.025C12.6131 130.538 12.6937 130.05 12.7838 129.568L1.21699 124.716C0.344385 128.143 0.0124146 131.352 0.00292969 134.234Z" fill="#A08BE8"/>
<path d="M84.2286 180.815H71.8318C70.006 180.815 68.5264 182.292 68.5264 184.114V196.912C68.5264 198.734 70.006 200.211 71.8318 200.211H84.2286C86.0544 200.211 87.5341 198.734 87.5341 196.912V184.114C87.5341 182.292 86.0544 180.815 84.2286 180.815Z" fill="url(#paint13_radial)"/>
<path d="M69.0737 103.96C71.7555 103.92 73.875 100.239 73.8078 95.7382C73.7406 91.2375 71.5122 87.6213 68.8304 87.6612C66.1486 87.7011 64.0291 91.3819 64.0963 95.8826C64.1635 100.383 66.392 103.999 69.0737 103.96Z" fill="#512BD4"/>
<path d="M117.66 95.8405C117.728 91.3399 115.608 87.659 112.926 87.6191C110.245 87.5792 108.016 91.1954 107.949 95.6961C107.882 100.197 110.001 103.878 112.683 103.918C115.365 103.957 117.593 100.341 117.66 95.8405Z" fill="#512BD4"/>
<path d="M68.9152 91.7234C67.1415 93.4935 67.1415 96.3616 68.9152 98.1317C70.1245 99.3386 71.8413 99.7173 73.3731 99.2818C73.6671 98.2027 73.8284 97.0006 73.8094 95.7274C73.7809 93.6828 73.302 91.8275 72.5384 90.4124C71.2437 90.2988 69.9064 90.7342 68.9152 91.7234Z" fill="#8065E0"/>
<path d="M112.74 91.463C110.966 93.2331 110.966 96.1013 112.74 97.8714C113.954 99.083 115.685 99.4663 117.226 99.0167C117.487 98.0465 117.639 96.9721 117.658 95.8457C117.691 93.6402 117.198 91.6334 116.368 90.152C115.073 90.0337 113.736 90.4691 112.74 91.463Z" fill="#8065E0"/>
<path d="M144.695 82.286C143.552 82.286 142.508 81.524 142.205 80.3691C138.231 65.257 127.541 52.8616 113.646 46.4627C109.895 44.7352 111.63 39.884 115.737 41.7677C131.041 48.796 142.812 62.4315 147.189 79.0629C147.549 80.4354 146.729 81.8411 145.354 82.2008C145.131 82.2576 144.908 82.286 144.695 82.286Z" fill="url(#paint14_radial)"/>
<path d="M61.6972 30.9957L50.4386 19.3196C48.9448 17.772 48.8357 15.4292 50.1683 13.7585L53.2509 9.9012C53.8722 9.12501 54.7495 8.57126 55.7454 8.32988L89.9479 0C89.9479 0 89.9574 0.0331302 89.9811 0.0946578C90 0.0331302 90.0143 0 90.0143 0L124.212 8.32515C125.208 8.56653 126.085 9.12027 126.706 9.89647L129.789 13.749C131.126 15.4197 131.013 17.7673 129.519 19.3102L118.402 30.8348C117.544 31.7245 116.335 32.231 115.064 32.2357L65.0643 32.3966C63.7838 32.4013 62.565 31.8902 61.6972 30.9957Z" fill="#3E8EED"/>
<path d="M120.394 39.051C120.162 49.1415 106.632 57.2774 89.967 57.2774C73.3021 57.2774 59.7719 49.1415 59.5396 39.051H120.394Z" fill="url(#paint15_radial)"/>
<path d="M36.7236 99.9018C37.8618 99.9965 38.834 100.848 39.0427 102.022C42.4525 121.569 57.026 137.656 76.1618 142.999C77.5323 143.383 78.3291 144.798 77.9449 146.166C77.5608 147.534 76.1428 148.329 74.7722 147.945C53.7348 142.072 37.7196 124.39 33.9683 102.902C33.7264 101.506 34.6607 100.176 36.0644 99.9302C36.2873 99.8923 36.5102 99.8829 36.7236 99.9018Z" fill="url(#paint16_radial)"/>
<path d="M49.291 17.0052C49.4191 17.8477 49.8032 18.657 50.4434 19.3196L61.702 30.9956C62.5698 31.8949 63.7886 32.4013 65.0691 32.3966L115.069 32.2404C116.34 32.2357 117.549 31.7292 118.407 30.8395L129.524 19.3149C130.164 18.6523 130.548 17.8429 130.676 17.0005H49.291V17.0052Z" fill="url(#paint17_radial)"/>
<path d="M61.56 27.9998H118.365C119.498 27.9998 120.414 28.9132 120.414 30.0444V39.0227H59.5112V30.0444C59.5112 28.9179 60.4265 27.9998 61.56 27.9998Z" fill="#2B579A"/>
<defs>
<linearGradient id="paint0_linear" x1="102.588" y1="147.435" x2="102.588" y2="181.262" gradientUnits="userSpaceOnUse">
<stop offset="0.2368" stop-color="#958FE7"/>
<stop offset="0.4881" stop-color="#BBB7EF"/>
</linearGradient>
<linearGradient id="paint1_linear" x1="77.5751" y1="147.435" x2="77.5751" y2="181.262" gradientUnits="userSpaceOnUse">
<stop offset="0.2368" stop-color="#958FE7"/>
<stop offset="0.4881" stop-color="#BBB7EF"/>
</linearGradient>
<linearGradient id="paint2_linear" x1="34.2602" y1="106.241" x2="2.84275" y2="160.767" gradientUnits="userSpaceOnUse">
<stop offset="0.12" stop-color="#958FE7"/>
<stop offset="0.2619" stop-color="#BBB7EF"/>
</linearGradient>
<linearGradient id="paint3_linear" x1="157.327" y1="95.4036" x2="184.599" y2="95.4036" gradientUnits="userSpaceOnUse">
<stop offset="0.2368" stop-color="#958FE7"/>
<stop offset="0.4881" stop-color="#BBB7EF"/>
</linearGradient>
<radialGradient id="paint4_radial" cx="0" cy="0" r="1" gradientUnits="userSpaceOnUse" gradientTransform="translate(157.386 95.3915) scale(11.4009 11.378)">
<stop stop-color="#8065E0"/>
<stop offset="1" stop-color="#512BD4"/>
</radialGradient>
<radialGradient id="paint5_radial" cx="0" cy="0" r="1" gradientUnits="userSpaceOnUse" gradientTransform="translate(27.7706 95.8016) scale(11.4009 11.378)">
<stop stop-color="#8065E0"/>
<stop offset="1" stop-color="#512BD4"/>
</radialGradient>
<radialGradient id="paint6_radial" cx="0" cy="0" r="1" gradientUnits="userSpaceOnUse" gradientTransform="translate(108.655 78.9306) scale(62.0847 61.9597)">
<stop offset="0.4744" stop-color="#A08BE8"/>
<stop offset="0.8618" stop-color="#8065E0"/>
</radialGradient>
<radialGradient id="paint7_radial" cx="0" cy="0" r="1" gradientUnits="userSpaceOnUse" gradientTransform="translate(71.346 70.4095) scale(75.3556 75.2039)">
<stop offset="0.0933" stop-color="#E1DFDD"/>
<stop offset="0.6573" stop-color="white"/>
</radialGradient>
<radialGradient id="paint8_radial" cx="0" cy="0" r="1" gradientUnits="userSpaceOnUse" gradientTransform="translate(53.2095 130.119) scale(38.0604 37.9838)">
<stop offset="0.4614" stop-color="#A08BE8"/>
<stop offset="0.5268" stop-color="#A793EA"/>
<stop offset="0.8352" stop-color="#C5B7F0"/>
<stop offset="1" stop-color="#D0C5F3"/>
</radialGradient>
<radialGradient id="paint9_radial" cx="0" cy="0" r="1" gradientUnits="userSpaceOnUse" gradientTransform="translate(72.0552 108.441) scale(64.7796 64.6492)">
<stop stop-color="#512BD4"/>
<stop offset="0.7715" stop-color="#6645D9"/>
<stop offset="0.8738" stop-color="#7659DD"/>
<stop offset="0.9583" stop-color="#8065E0"/>
</radialGradient>
<radialGradient id="paint10_radial" cx="0" cy="0" r="1" gradientUnits="userSpaceOnUse" gradientTransform="translate(186.609 45.4655) scale(11.7003 11.6767)">
<stop stop-color="#A08BE8"/>
<stop offset="0.9913" stop-color="#8065E0"/>
</radialGradient>
<radialGradient id="paint11_radial" cx="0" cy="0" r="1" gradientUnits="userSpaceOnUse" gradientTransform="translate(103.168 190.512) scale(9.61031 9.59096)">
<stop stop-color="#8065E0"/>
<stop offset="1" stop-color="#512BD4"/>
</radialGradient>
<radialGradient id="paint12_radial" cx="0" cy="0" r="1" gradientUnits="userSpaceOnUse" gradientTransform="translate(19.9125 159.773) scale(11.7024 11.6788)">
<stop stop-color="#A08BE8"/>
<stop offset="1" stop-color="#8065E0"/>
</radialGradient>
<radialGradient id="paint13_radial" cx="0" cy="0" r="1" gradientUnits="userSpaceOnUse" gradientTransform="translate(78.0331 190.512) scale(9.61031 9.59096)">
<stop stop-color="#8065E0"/>
<stop offset="1" stop-color="#512BD4"/>
</radialGradient>
<radialGradient id="paint14_radial" cx="0" cy="0" r="1" gradientUnits="userSpaceOnUse" gradientTransform="translate(129.421 61.8145) scale(19.227 19.1883)">
<stop offset="0.3607" stop-color="#BDB9F0"/>
<stop offset="0.5611" stop-color="#C3BCEB" stop-opacity="0.3855"/>
<stop offset="0.6338" stop-color="#CEC3E2" stop-opacity="0.3217"/>
<stop offset="0.8689" stop-color="#EDD6C9" stop-opacity="0.1152"/>
<stop offset="1" stop-color="#F9DDBF" stop-opacity="0"/>
</radialGradient>
<radialGradient id="paint15_radial" cx="0" cy="0" r="1" gradientUnits="userSpaceOnUse" gradientTransform="translate(112.518 62.4995) scale(33.7325 33.6645)">
<stop offset="0.1818" stop-color="white"/>
<stop offset="0.663" stop-color="#A7CBF6"/>
</radialGradient>
<radialGradient id="paint16_radial" cx="0" cy="0" r="1" gradientUnits="userSpaceOnUse" gradientTransform="translate(55.9946 123.97) rotate(-175.179) scale(23.1124 23.0665)">
<stop stop-color="#BDB9F0"/>
<stop offset="0.5266" stop-color="#C3BCEB" stop-opacity="0.3855"/>
<stop offset="0.605" stop-color="#CEC3E2" stop-opacity="0.3217"/>
<stop offset="0.8586" stop-color="#EDD6C9" stop-opacity="0.1152"/>
<stop offset="1" stop-color="#F9DDBF" stop-opacity="0"/>
</radialGradient>
<radialGradient id="paint17_radial" cx="0" cy="0" r="1" gradientUnits="userSpaceOnUse" gradientTransform="translate(77.309 40.6808) scale(105.635 105.422)">
<stop offset="0.076" stop-color="#106EBE"/>
<stop offset="0.4606" stop-color="#3E8EED"/>
</radialGradient>
</defs>
</svg>
