<svg width="256" height="264" viewBox="0 0 256 264" fill="none" xmlns="http://www.w3.org/2000/svg">
<path d="M95.5089 264C148.257 264 191.018 256.424 191.018 247.079C191.018 237.734 148.257 230.159 95.5089 230.159C42.7608 230.159 0 237.734 0 247.079C0 256.424 42.7608 264 95.5089 264Z" fill="#FFD590"/>
<path d="M126.583 205.6C118.206 217.494 119.438 236.768 119.676 237.84C119.914 238.913 100.626 218.59 100.626 218.59C100.626 218.59 109.426 199.156 118.201 195.852C119.021 195.546 126.583 205.6 126.583 205.6Z" fill="#A08BE8"/>
<path d="M102.838 218.139L119.482 236.215C119.482 236.215 120.564 243.008 119.569 246.007C118.812 248.297 115.281 251.476 113.661 252.839C113.21 253.223 112.54 253.179 112.138 252.742L96.0327 235.356C95.5136 234.798 95.5525 233.924 96.1152 233.415C98.0506 231.644 101.839 227.509 102.334 225.699C103.071 222.996 102.838 218.139 102.838 218.139Z" fill="#D0C5F3"/>
<path d="M118.531 193.353C103.862 200.816 86.753 219.265 85.9089 220.303C84.7399 221.749 83.9686 222.807 85.7488 224.724C87.9657 227.106 97.4831 237.34 97.4831 237.34L124.954 201.757L118.531 193.353Z" fill="#8065E0"/>
<path d="M126.584 205.6C121.645 211.69 118.929 224.797 120.559 243.328C120.748 245.493 120.321 247.099 118.866 248.453L114.214 252.781C113.525 253.422 112.448 253.383 111.808 252.694L95.766 235.438C95.3148 234.953 95.3391 234.191 95.829 233.735L101.199 228.737C102.873 227.179 103.416 226.044 103.052 223.181C102.14 216.014 110.013 203.62 117.328 196.647C124.648 189.679 126.584 205.6 126.584 205.6Z" fill="#A08BE8"/>
<path d="M119.86 247.225C119.603 247.657 119.278 248.069 118.866 248.453L114.214 252.781C113.525 253.421 112.448 253.383 111.808 252.694L95.766 235.438C95.3148 234.953 95.3391 234.191 95.829 233.735L101.199 228.737C101.485 228.47 101.737 228.218 101.956 227.965L119.86 247.225Z" fill="#D0C5F3"/>
<path d="M134.636 195.454L126.045 186.214C136.644 176.354 141.495 163.277 143.324 153.941C144.192 149.5 156.741 152.087 155.165 158.919C152.536 170.308 146.487 184.429 134.636 195.454Z" fill="url(#paint0_linear)"/>
<path d="M141.168 162.813L140.596 164.151L152.037 169.045L152.609 167.707L141.168 162.813Z" fill="#A08BE8"/>
<path d="M139.87 193.032L129.581 181.969C128.31 180.6 126.171 180.523 124.803 181.794L115.198 190.732C113.83 192.004 113.753 194.143 115.024 195.512L125.312 206.576C126.583 207.944 128.723 208.022 130.09 206.75L139.695 197.812C141.063 196.541 141.141 194.401 139.87 193.032Z" fill="url(#paint1_radial)"/>
<path d="M136.302 173.497L135.525 174.729L146.05 181.368L146.827 180.136L136.302 173.497Z" fill="#A08BE8"/>
<path d="M71.3611 89.1161C66.4812 88.2912 41.7563 86.8549 34.1452 86.4279L33.437 99.0249C49.1538 99.9081 66.8304 101.087 69.1637 101.539C82.3629 104.232 99.079 110.055 99.2488 110.113L103.411 98.2049C102.698 97.9525 85.7343 92.0422 71.6764 89.1744C71.5843 89.1598 71.4776 89.1404 71.3611 89.1161Z" fill="url(#paint2_linear)"/>
<path d="M210.984 202.98C216.596 216.402 233.565 225.612 234.598 225.981C235.631 226.349 208.17 231.872 208.17 231.872C208.17 231.872 196.402 214.078 198.275 204.887C198.449 204.038 210.984 202.98 210.984 202.98Z" fill="#A08BE8"/>
<path d="M208.966 229.766L233.123 225.287C233.123 225.287 239.449 227.99 241.457 230.421C242.995 232.284 243.805 236.962 244.101 239.063C244.183 239.65 243.79 240.194 243.208 240.3L219.924 244.692C219.177 244.833 218.459 244.338 218.323 243.59C217.857 241.009 216.368 235.598 215.102 234.215C213.201 232.153 208.966 229.766 208.966 229.766Z" fill="#D0C5F3"/>
<path d="M196.334 203.286C194.845 219.682 201.36 243.988 201.791 245.255C202.393 247.011 202.878 248.229 205.449 247.739C208.646 247.128 222.369 244.512 222.369 244.512L206.865 202.315L196.334 203.286Z" fill="#8065E0"/>
<path d="M210.984 202.98C213.511 210.404 223.164 219.677 239.715 228.155C241.651 229.144 242.781 230.362 243.155 232.318L244.343 238.563C244.518 239.485 243.911 240.378 242.99 240.553L219.851 244.964C219.196 245.09 218.57 244.658 218.444 244.008L217.071 236.797C216.645 234.55 215.97 233.483 213.351 232.27C206.797 229.232 200.496 215.965 198.488 206.061C196.479 196.152 210.984 202.98 210.984 202.98Z" fill="#A08BE8"/>
<path d="M242.641 230.819C242.868 231.265 243.043 231.76 243.15 232.313L244.338 238.558C244.513 239.48 243.907 240.373 242.985 240.548L219.846 244.959C219.191 245.085 218.566 244.653 218.439 244.003L217.067 236.792C216.994 236.409 216.911 236.059 216.814 235.739L242.641 230.819Z" fill="#D0C5F3"/>
<path d="M209.766 192.266H197.154C197.154 177.155 190.329 164.247 184.576 156.653C182.194 153.509 193.026 146.477 196.926 152.228C203.494 161.913 209.766 176.015 209.766 192.266Z" fill="url(#paint3_linear)"/>
<path d="M201.686 160.214L190.312 165.261L190.903 166.592L202.276 161.545L201.686 160.214Z" fill="#A08BE8"/>
<path d="M211.557 186.787H196.451C194.583 186.787 193.07 188.301 193.07 190.169V203.29C193.07 205.159 194.583 206.673 196.451 206.673H211.557C213.424 206.673 214.938 205.159 214.938 203.29V190.169C214.938 188.301 213.424 186.787 211.557 186.787Z" fill="url(#paint4_radial)"/>
<path d="M206.836 172.904L194.809 176.092L195.182 177.499L207.209 174.312L206.836 172.904Z" fill="#A08BE8"/>
<path d="M55.6055 87.7477C56.0906 87.7816 56.5757 87.8156 57.0559 87.8496L56.1003 100.432C55.6249 100.398 55.1398 100.364 54.6499 100.335L55.6055 87.7477Z" fill="#A08BE8"/>
<path d="M27.4077 99.4762L20.3399 108.987C18.4724 111.535 19.0254 115.116 21.5721 116.979C24.1188 118.847 27.6987 118.294 29.5615 115.747L36.8087 105.993L27.4077 99.4762Z" fill="#D0C5F3"/>
<path d="M27.5579 87.6555L15.7218 88.1844C12.5687 88.3494 10.1433 91.0377 10.3082 94.1918C10.4732 97.3459 13.1605 99.7722 16.3136 99.6072L28.4505 99.0637L27.5579 87.6555Z" fill="#D0C5F3"/>
<path d="M27.9169 95.8854L16.0954 96.7151C12.9471 96.9578 10.5945 99.7091 10.837 102.858C11.0796 106.008 13.83 108.361 16.9782 108.119L29.1006 107.264L27.9169 95.8854Z" fill="#D0C5F3"/>
<path d="M31.6181 83.1427L19.9033 81.357C16.7793 80.9008 13.8785 83.065 13.4225 86.1949C12.9665 89.3199 15.13 92.2217 18.2588 92.6778L30.2696 94.5121L31.6181 83.1427Z" fill="#D0C5F3"/>
<path d="M33.3934 106.818C40.0026 106.818 45.3605 101.458 45.3605 94.8468C45.3605 88.2354 40.0026 82.8757 33.3934 82.8757C26.7841 82.8757 21.4263 88.2354 21.4263 94.8468C21.4263 101.458 26.7841 106.818 33.3934 106.818Z" fill="url(#paint5_radial)"/>
<path d="M71.5696 89.1549C71.6035 89.1598 71.6472 89.1695 71.6811 89.1743C72.1177 89.2617 72.5543 89.3539 72.9957 89.4509L70.7304 101.868C70.2501 101.767 69.7747 101.665 69.3042 101.568L71.5696 89.1549Z" fill="#A08BE8"/>
<path d="M86.6509 92.9253C87.1215 93.0612 87.5872 93.1922 88.048 93.3281L84.4244 105.416C83.9636 105.28 83.4979 105.149 83.0273 105.013L86.6509 92.9253Z" fill="#A08BE8"/>
<path d="M31.8266 163.214C31.293 163.214 30.8564 162.777 30.8564 162.243V134.041C30.8564 133.507 31.293 133.07 31.8266 133.07C32.3602 133.07 32.7968 133.507 32.7968 134.041V162.243C32.7968 162.777 32.3602 163.214 31.8266 163.214Z" fill="#958FE7"/>
<path d="M24.788 141.004C24.2544 141.004 23.8179 140.567 23.8179 140.033V126.737C23.8179 126.204 24.2544 125.767 24.788 125.767C25.3216 125.767 25.7582 126.204 25.7582 126.737V140.033C25.7582 140.567 25.3216 141.004 24.788 141.004Z" fill="#958FE7"/>
<path d="M12.4573 197.967C18.745 197.967 23.8423 192.868 23.8423 186.578C23.8423 180.289 18.745 175.19 12.4573 175.19C6.1695 175.19 1.07227 180.289 1.07227 186.578C1.07227 192.868 6.1695 197.967 12.4573 197.967Z" fill="#B3AFAB"/>
<path d="M58.6764 157.949L19.2921 175.612C18.5451 175.947 18.2201 176.835 18.579 177.572L23.2407 187.185C23.5997 187.923 24.4971 188.219 25.2199 187.84L63.4642 167.824C64.1579 167.46 64.4392 166.61 64.0996 165.902L60.5779 158.643C60.2335 157.934 59.3894 157.628 58.6764 157.949Z" fill="url(#paint6_radial)"/>
<path d="M4.68131 188.233C5.5279 188.233 6.21419 187.547 6.21419 186.7C6.21419 185.853 5.5279 185.166 4.68131 185.166C3.83473 185.166 3.14844 185.853 3.14844 186.7C3.14844 187.547 3.83473 188.233 4.68131 188.233Z" fill="#737373"/>
<path d="M10.5026 188.233C11.3492 188.233 12.0355 187.547 12.0355 186.7C12.0355 185.853 11.3492 185.166 10.5026 185.166C9.65602 185.166 8.96973 185.853 8.96973 186.7C8.96973 187.547 9.65602 188.233 10.5026 188.233Z" fill="#737373"/>
<path d="M16.3234 188.233C17.17 188.233 17.8563 187.547 17.8563 186.7C17.8563 185.853 17.17 185.166 16.3234 185.166C15.4768 185.166 14.7905 185.853 14.7905 186.7C14.7905 187.547 15.4768 188.233 16.3234 188.233Z" fill="#737373"/>
<path d="M22.1881 188.233C23.0347 188.233 23.721 187.547 23.721 186.7C23.721 185.853 23.0347 185.166 22.1881 185.166C21.3416 185.166 20.6553 185.853 20.6553 186.7C20.6553 187.547 21.3416 188.233 22.1881 188.233Z" fill="#737373"/>
<path d="M3.78369 179.203C4.03594 179.387 4.34639 179.499 4.6811 179.499C5.52515 179.499 6.21398 178.814 6.21398 177.965C6.21398 177.684 6.13151 177.427 6.00054 177.198C5.16134 177.776 4.41916 178.45 3.78369 179.203Z" fill="#737373"/>
<path d="M10.5026 179.499C11.3492 179.499 12.0355 178.812 12.0355 177.965C12.0355 177.118 11.3492 176.432 10.5026 176.432C9.65602 176.432 8.96973 177.118 8.96973 177.965C8.96973 178.812 9.65602 179.499 10.5026 179.499Z" fill="#737373"/>
<path d="M16.3234 179.499C17.17 179.499 17.8563 178.812 17.8563 177.965C17.8563 177.118 17.17 176.432 16.3234 176.432C15.4768 176.432 14.7905 177.118 14.7905 177.965C14.7905 178.812 15.4768 179.499 16.3234 179.499Z" fill="#737373"/>
<path d="M6.21419 194.949C6.21419 194.105 5.53022 193.416 4.68131 193.416C4.28839 193.416 3.93913 193.566 3.66748 193.809C4.32235 194.604 5.06938 195.298 5.89403 195.876C6.08807 195.619 6.21419 195.298 6.21419 194.949Z" fill="#737373"/>
<path d="M10.5026 196.482C11.3492 196.482 12.0355 195.796 12.0355 194.949C12.0355 194.102 11.3492 193.416 10.5026 193.416C9.65602 193.416 8.96973 194.102 8.96973 194.949C8.96973 195.796 9.65602 196.482 10.5026 196.482Z" fill="#737373"/>
<path d="M16.3234 196.482C17.17 196.482 17.8563 195.796 17.8563 194.949C17.8563 194.102 17.17 193.416 16.3234 193.416C15.4768 193.416 14.7905 194.102 14.7905 194.949C14.7905 195.796 15.4768 196.482 16.3234 196.482Z" fill="#737373"/>
<path d="M7.59196 192.115C8.43854 192.115 9.12483 191.429 9.12483 190.582C9.12483 189.735 8.43854 189.048 7.59196 189.048C6.74537 189.048 6.05908 189.735 6.05908 190.582C6.05908 191.429 6.74537 192.115 7.59196 192.115Z" fill="#737373"/>
<path d="M13.4128 192.115C14.2593 192.115 14.9456 191.429 14.9456 190.582C14.9456 189.735 14.2593 189.048 13.4128 189.048C12.5662 189.048 11.8799 189.735 11.8799 190.582C11.8799 191.429 12.5662 192.115 13.4128 192.115Z" fill="#737373"/>
<path d="M19.234 192.115C20.0806 192.115 20.7669 191.429 20.7669 190.582C20.7669 189.735 20.0806 189.048 19.234 189.048C18.3875 189.048 17.7012 189.735 17.7012 190.582C17.7012 191.429 18.3875 192.115 19.234 192.115Z" fill="#737373"/>
<path d="M7.59196 183.866C8.43854 183.866 9.12483 183.179 9.12483 182.332C9.12483 181.486 8.43854 180.799 7.59196 180.799C6.74537 180.799 6.05908 181.486 6.05908 182.332C6.05908 183.179 6.74537 183.866 7.59196 183.866Z" fill="#737373"/>
<path d="M13.4128 183.866C14.2593 183.866 14.9456 183.179 14.9456 182.332C14.9456 181.486 14.2593 180.799 13.4128 180.799C12.5662 180.799 11.8799 181.486 11.8799 182.332C11.8799 183.179 12.5662 183.866 13.4128 183.866Z" fill="#737373"/>
<path d="M3.34729 190.582C3.34729 189.737 2.66332 189.048 1.81441 189.048C1.65433 189.048 1.50881 189.077 1.36328 189.126C1.55247 189.946 1.83382 190.761 2.21704 191.547C2.2898 191.693 2.36256 191.838 2.44018 191.979C2.97377 191.741 3.34729 191.208 3.34729 190.582Z" fill="#737373"/>
<path d="M7.63542 192.115C8.482 192.115 9.16829 191.429 9.16829 190.582C9.16829 189.735 8.482 189.048 7.63542 189.048C6.78883 189.048 6.10254 189.735 6.10254 190.582C6.10254 191.429 6.78883 192.115 7.63542 192.115Z" fill="#737373"/>
<path d="M1.81431 183.866C2.65836 183.866 3.34718 183.182 3.34718 182.332C3.34718 181.75 3.01732 181.25 2.54194 180.988C2.0423 181.871 1.66878 182.823 1.42139 183.803C1.54751 183.842 1.67848 183.866 1.81431 183.866Z" fill="#737373"/>
<path d="M7.63542 183.866C8.482 183.866 9.16829 183.179 9.16829 182.332C9.16829 181.486 8.482 180.799 7.63542 180.799C6.78883 180.799 6.10254 181.486 6.10254 182.332C6.10254 183.179 6.78883 183.866 7.63542 183.866Z" fill="#737373"/>
<path d="M19.234 183.866C20.0806 183.866 20.7669 183.179 20.7669 182.332C20.7669 181.486 20.0806 180.799 19.234 180.799C18.3875 180.799 17.7012 181.486 17.7012 182.332C17.7012 183.179 18.3875 183.866 19.234 183.866Z" fill="#737373"/>
<path d="M17.8125 174.641L19.3938 173.875C20.1166 173.525 20.9898 173.826 21.3439 174.549L27.2523 186.724C27.6015 187.447 27.3008 188.32 26.578 188.675L24.9966 189.441C24.2738 189.791 23.4007 189.49 23.0466 188.767L17.1382 176.592C16.7889 175.864 17.0897 174.995 17.8125 174.641Z" fill="#E1DFDD"/>
<path d="M248.665 179.722L248.539 191.572C248.486 194.731 245.881 197.244 242.723 197.191C239.565 197.137 237.052 194.532 237.106 191.373L237.232 179.217L248.665 179.722Z" fill="#D0C5F3"/>
<path d="M253.72 172.23L255.908 183.88C256.47 186.991 254.404 189.965 251.299 190.524C248.19 191.086 245.216 189.019 244.659 185.914L242.417 173.967L253.72 172.23Z" fill="#D0C5F3"/>
<path d="M242.845 175.515L238.042 201.713C237.441 204.814 234.438 206.838 231.338 206.231C228.239 205.629 226.216 202.626 226.822 199.525L231.683 173.03L242.845 175.515Z" fill="#D0C5F3"/>
<path d="M242.5 172.652L225.042 187.03C222.558 188.98 218.964 188.553 217.013 186.069C215.063 183.584 215.49 179.989 217.974 178.038L235.665 163.471L242.5 172.652Z" fill="#D0C5F3"/>
<path d="M248.302 170.662L236.514 166.179C241.21 153.824 242.223 142.566 239.526 132.711C237.746 126.209 234.317 120.191 229.296 114.737C227.622 112.922 238.052 105.401 240.909 108.875C251.872 122.2 259.114 142.222 248.302 170.662Z" fill="url(#paint7_linear)"/>
<path d="M246.817 117.253L235.861 123.154L236.551 124.436L247.507 118.535L246.817 117.253Z" fill="#A08BE8"/>
<path d="M242.408 180.392C249.017 180.392 254.375 175.032 254.375 168.42C254.375 161.809 249.017 156.449 242.408 156.449C235.799 156.449 230.441 161.809 230.441 168.42C230.441 175.032 235.799 180.392 242.408 180.392Z" fill="url(#paint8_radial)"/>
<path d="M252.018 131.335L239.988 134.515L240.36 135.923L252.39 132.743L252.018 131.335Z" fill="#A08BE8"/>
<path d="M241.001 145.976L240.889 147.427L253.294 148.385L253.406 146.933L241.001 145.976Z" fill="#A08BE8"/>
<path d="M105.856 118.459C112.296 118.459 117.517 113.236 117.517 106.794C117.517 100.351 112.296 95.1283 105.856 95.1283C99.4154 95.1283 94.1943 100.351 94.1943 106.794C94.1943 113.236 99.4154 118.459 105.856 118.459Z" fill="url(#paint9_radial)"/>
<path d="M232.745 118.459C239.185 118.459 244.406 113.236 244.406 106.794C244.406 100.351 239.185 95.1283 232.745 95.1283C226.305 95.1283 221.083 100.351 221.083 106.794C221.083 113.236 226.305 118.459 232.745 118.459Z" fill="url(#paint10_radial)"/>
<path d="M169.155 164.402C204.227 164.402 232.658 135.962 232.658 100.879C232.658 65.7952 204.227 37.3545 169.155 37.3545C134.084 37.3545 105.652 65.7952 105.652 100.879C105.652 135.962 134.084 164.402 169.155 164.402Z" fill="url(#paint11_radial)"/>
<path d="M116.489 100.878C116.489 107.759 117.818 114.325 120.22 120.347C120.802 121.807 122.213 122.763 123.785 122.763H214.535C216.107 122.763 217.518 121.807 218.1 120.347C220.502 114.325 221.831 107.759 221.831 100.878C221.831 98.064 221.603 95.3078 221.176 92.6147C220.88 90.7659 219.265 89.4169 217.392 89.4169H120.928C119.055 89.4169 117.44 90.7659 117.144 92.6147C116.717 95.3078 116.489 98.064 116.489 100.878Z" fill="url(#paint12_radial)"/>
<path d="M223.912 133.046H114.403C116.863 137.224 119.783 141.091 123.101 144.585H215.219C218.532 141.091 221.452 137.224 223.912 133.046Z" fill="url(#paint13_radial)"/>
<path d="M179.468 129.751H158.973V147.885H179.468V129.751Z" fill="#512BD4"/>
<path d="M163.491 142.214C163.356 142.214 163.243 142.172 163.145 142.083C163.051 141.994 163 141.886 163 141.755C163 141.629 163.042 141.517 163.136 141.423C163.229 141.329 163.341 141.283 163.477 141.278C163.613 141.278 163.73 141.32 163.823 141.409C163.922 141.498 163.973 141.61 163.973 141.737C163.973 141.863 163.926 141.971 163.833 142.064C163.744 142.167 163.627 142.214 163.491 142.214Z" fill="white"/>
<path d="M168.861 142.055L167.986 142.069L165.628 138.47C165.568 138.381 165.521 138.282 165.479 138.184H165.46C165.479 138.292 165.493 138.516 165.497 138.863L165.549 142.102L164.777 142.116L164.702 137.173L165.633 137.159L167.911 140.674C168.009 140.819 168.07 140.922 168.098 140.974H168.112C168.089 140.843 168.075 140.623 168.07 140.309L168.023 137.122L168.791 137.108L168.861 142.055Z" fill="white"/>
<path d="M172.627 141.999L169.923 142.041L169.849 137.098L172.445 137.056L172.454 137.754L170.658 137.782L170.681 139.181L172.337 139.158L172.347 139.85L170.691 139.874L170.714 141.334L172.618 141.306L172.627 141.999Z" fill="white"/>
<path d="M176.406 137.693L175.022 137.716L175.087 141.961L174.287 141.975L174.222 137.73L172.842 137.753L172.833 137.056L176.397 137L176.406 137.693Z" fill="white"/>
<path d="M221.176 92.6147C220.88 90.7659 219.265 89.4169 217.392 89.4169H212.963C214.836 89.4169 216.451 90.7659 216.747 92.6147C217.174 95.3078 217.402 98.064 217.402 100.878C217.402 106.211 216.597 111.35 215.117 116.198C214.574 117.532 213.133 118.333 211.663 118.333H126.686C125.114 118.333 123.562 117.425 123.12 115.916C122.805 114.844 122.519 113.747 122.262 112.665C121.389 108.875 120.918 104.93 120.918 100.878C120.918 98.064 121.146 95.3078 121.573 92.6147C121.869 90.7659 123.484 89.4169 125.357 89.4169H120.928C119.055 89.4169 117.44 90.7659 117.144 92.6147C116.717 95.3078 116.489 98.064 116.489 100.878C116.489 107.759 117.818 114.325 120.22 120.347C120.802 121.807 122.213 122.763 123.785 122.763H128.214H210.111H214.535H214.54C216.112 122.763 217.523 121.807 218.105 120.347C220.507 114.325 221.836 107.759 221.836 100.878C221.831 98.064 221.603 95.3078 221.176 92.6147Z" fill="url(#paint14_radial)"/>
<path d="M159.953 118.333C159.953 118.333 166.284 113.32 167.52 112.393C168.757 111.467 169.839 111.413 170.969 112.393C172.105 113.374 178.445 118.333 178.445 118.333H159.953Z" fill="#A08BE8"/>
<path d="M175.233 33.39H162.96L164.692 20.7881H173.501L175.233 33.39Z" fill="#D0C5F3"/>
<path d="M169.16 23.3114C175.595 23.3114 180.812 18.093 180.812 11.6557C180.812 5.21843 175.595 0 169.16 0C162.725 0 157.508 5.21843 157.508 11.6557C157.508 18.093 162.725 23.3114 169.16 23.3114Z" fill="url(#paint15_radial)"/>
<path d="M179.929 41.091C180.482 41.091 180.923 40.6106 180.865 40.0622C180.215 34.2344 175.277 29.7021 169.281 29.7021C163.281 29.7021 158.347 34.2344 157.697 40.0622C157.634 40.6106 158.081 41.091 158.634 41.091H179.929Z" fill="url(#paint16_radial)"/>
<path d="M117.687 78.9113C118.837 79.1248 120.026 78.5474 120.545 77.441C127.36 62.9417 140.424 52.441 155.592 48.5735C159.686 47.5302 158.847 42.3138 154.365 43.4541C137.663 47.6904 123.281 59.2442 115.781 75.1992C115.16 76.5142 115.728 78.0864 117.042 78.7027C117.256 78.7997 117.469 78.8725 117.687 78.9113Z" fill="url(#paint17_radial)"/>
<path d="M221.03 119.279C219.866 119.163 218.731 119.837 218.304 120.982C211.227 140.058 193.574 153.562 173.332 155.387C171.881 155.518 170.814 156.799 170.945 158.245C171.076 159.696 172.357 160.763 173.802 160.632C196.058 158.623 215.461 143.779 223.237 122.812C223.742 121.448 223.048 119.934 221.685 119.425C221.472 119.347 221.249 119.299 221.03 119.279Z" fill="url(#paint18_radial)"/>
<path d="M147.843 112.581C150.586 112.54 152.754 108.767 152.685 104.152C152.616 99.5377 150.337 95.8301 147.594 95.871C144.851 95.9119 142.683 99.6858 142.751 104.3C142.82 108.915 145.1 112.622 147.843 112.581Z" fill="#512BD4"/>
<path d="M197.539 104.253C197.608 99.639 195.44 95.8652 192.697 95.8243C189.954 95.7834 187.674 99.491 187.605 104.105C187.537 108.72 189.705 112.494 192.448 112.535C195.191 112.575 197.47 108.868 197.539 104.253Z" fill="#512BD4"/>
<path d="M193.933 96.123C196.062 97.0838 197.6 100.369 197.542 104.261C197.542 104.367 197.532 104.474 197.527 104.581C195.737 105.668 193.38 105.445 191.832 103.897C190.018 102.082 190.018 99.1413 191.832 97.3265C192.434 96.7248 193.162 96.3269 193.933 96.123Z" fill="#8065E0"/>
<path d="M147.001 97.5983C147.651 96.948 148.451 96.5307 149.29 96.3463C151.216 97.4818 152.628 100.529 152.686 104.144C152.691 104.387 152.686 104.625 152.676 104.862C150.891 105.935 148.543 105.707 147.006 104.169C145.186 102.354 145.186 99.4131 147.001 97.5983Z" fill="#8065E0"/>
<defs>
<linearGradient id="paint0_linear" x1="140.676" y1="151.74" x2="140.676" y2="195.452" gradientUnits="userSpaceOnUse">
<stop offset="0.2145" stop-color="#958FE7"/>
<stop offset="0.4171" stop-color="#BBB7EF"/>
</linearGradient>
<radialGradient id="paint1_radial" cx="0" cy="0" r="1" gradientUnits="userSpaceOnUse" gradientTransform="translate(129.003 188.004) scale(19.442 19.4485)">
<stop stop-color="#8065E0"/>
<stop offset="1" stop-color="#512BD4"/>
</radialGradient>
<linearGradient id="paint2_linear" x1="99.3402" y1="109.873" x2="34.2377" y2="86.1851" gradientUnits="userSpaceOnUse">
<stop offset="0.1085" stop-color="#958FE7"/>
<stop offset="0.2766" stop-color="#BBB7EF"/>
</linearGradient>
<linearGradient id="paint3_linear" x1="196.999" y1="150.038" x2="196.999" y2="192.268" gradientUnits="userSpaceOnUse">
<stop offset="0.1696" stop-color="#958FE7"/>
<stop offset="0.4771" stop-color="#BBB7EF"/>
</linearGradient>
<radialGradient id="paint4_radial" cx="0" cy="0" r="1" gradientUnits="userSpaceOnUse" gradientTransform="translate(202.846 190.295) scale(18.4317 18.4378)">
<stop stop-color="#8065E0"/>
<stop offset="1" stop-color="#512BD4"/>
</radialGradient>
<radialGradient id="paint5_radial" cx="0" cy="0" r="1" gradientUnits="userSpaceOnUse" gradientTransform="translate(34.615 90.8517) scale(15.5013 15.5065)">
<stop stop-color="#A08BE8"/>
<stop offset="1" stop-color="#8065E0"/>
</radialGradient>
<radialGradient id="paint6_radial" cx="0" cy="0" r="1" gradientUnits="userSpaceOnUse" gradientTransform="translate(29.4153 162.363) scale(29.0299 29.0396)">
<stop offset="0.3073" stop-color="#A4A09C"/>
<stop offset="0.8048" stop-color="#797673"/>
</radialGradient>
<linearGradient id="paint7_linear" x1="230.633" y1="110.498" x2="252.043" y2="169.302" gradientUnits="userSpaceOnUse">
<stop offset="0.167" stop-color="#958FE7"/>
<stop offset="0.3179" stop-color="#BBB7EF"/>
</linearGradient>
<radialGradient id="paint8_radial" cx="0" cy="0" r="1" gradientUnits="userSpaceOnUse" gradientTransform="translate(242.349 162.126) scale(16.8841 16.8897)">
<stop stop-color="#A08BE8"/>
<stop offset="1" stop-color="#8065E0"/>
</radialGradient>
<radialGradient id="paint9_radial" cx="0" cy="0" r="1" gradientUnits="userSpaceOnUse" gradientTransform="translate(103.837 100.299) scale(11.6616 11.6655)">
<stop stop-color="#8065E0"/>
<stop offset="1" stop-color="#512BD4"/>
</radialGradient>
<radialGradient id="paint10_radial" cx="0" cy="0" r="1" gradientUnits="userSpaceOnUse" gradientTransform="translate(234.65 101.082) scale(11.6616 11.6655)">
<stop stop-color="#8065E0"/>
<stop offset="1" stop-color="#512BD4"/>
</radialGradient>
<radialGradient id="paint11_radial" cx="0" cy="0" r="1" gradientUnits="userSpaceOnUse" gradientTransform="translate(159.474 82.2435) scale(63.5042 63.5255)">
<stop offset="0.4744" stop-color="#A08BE8"/>
<stop offset="0.8618" stop-color="#8065E0"/>
</radialGradient>
<radialGradient id="paint12_radial" cx="0" cy="0" r="1" gradientUnits="userSpaceOnUse" gradientTransform="translate(187.149 77.8832) scale(61.1013 61.1217)">
<stop offset="0.0933" stop-color="#E1DFDD"/>
<stop offset="0.8998" stop-color="white"/>
</radialGradient>
<radialGradient id="paint13_radial" cx="0" cy="0" r="1" gradientUnits="userSpaceOnUse" gradientTransform="translate(214.16 139.503) scale(38.9307 38.9437)">
<stop offset="0.4614" stop-color="#A08BE8"/>
<stop offset="0.5268" stop-color="#A793EA"/>
<stop offset="0.8352" stop-color="#C5B7F0"/>
<stop offset="1" stop-color="#D0C5F3"/>
</radialGradient>
<radialGradient id="paint14_radial" cx="0" cy="0" r="1" gradientUnits="userSpaceOnUse" gradientTransform="translate(186.643 108.038) scale(55.8609 55.8796)">
<stop stop-color="#512BD4"/>
<stop offset="0.7715" stop-color="#6645D9"/>
<stop offset="0.8738" stop-color="#7659DD"/>
<stop offset="0.9583" stop-color="#8065E0"/>
</radialGradient>
<radialGradient id="paint15_radial" cx="0" cy="0" r="1" gradientUnits="userSpaceOnUse" gradientTransform="translate(171.334 6.75608) scale(17.9893 17.9953)">
<stop stop-color="#A08BE8"/>
<stop offset="1" stop-color="#8065E0"/>
</radialGradient>
<radialGradient id="paint16_radial" cx="0" cy="0" r="1" gradientUnits="userSpaceOnUse" gradientTransform="translate(169.316 33.0723) scale(9.1311 9.13414)">
<stop stop-color="#8065E0"/>
<stop offset="1" stop-color="#512BD4"/>
</radialGradient>
<radialGradient id="paint17_radial" cx="0" cy="0" r="1" gradientUnits="userSpaceOnUse" gradientTransform="translate(136.834 61.1186) rotate(-169.516) scale(19.6665 19.6726)">
<stop offset="0.3607" stop-color="#BDB9F0"/>
<stop offset="0.5611" stop-color="#C3BCEB" stop-opacity="0.3855"/>
<stop offset="0.6338" stop-color="#CEC3E2" stop-opacity="0.3217"/>
<stop offset="0.8689" stop-color="#EDD6C9" stop-opacity="0.1152"/>
<stop offset="1" stop-color="#F9DDBF" stop-opacity="0"/>
</radialGradient>
<radialGradient id="paint18_radial" cx="0" cy="0" r="1" gradientUnits="userSpaceOnUse" gradientTransform="translate(197.152 139.896) rotate(5.65489) scale(23.6415 23.6493)">
<stop stop-color="#BDB9F0"/>
<stop offset="0.5266" stop-color="#C3BCEB" stop-opacity="0.3855"/>
<stop offset="0.605" stop-color="#CEC3E2" stop-opacity="0.3217"/>
<stop offset="0.8586" stop-color="#EDD6C9" stop-opacity="0.1152"/>
<stop offset="1" stop-color="#F9DDBF" stop-opacity="0"/>
</radialGradient>
</defs>
</svg>
