<svg width="323" height="242" viewBox="0 0 323 242" fill="none" xmlns="http://www.w3.org/2000/svg">
<path d="M95.5816 220.222C145.758 220.222 186.435 218.367 186.435 216.079C186.435 213.79 145.758 211.935 95.5816 211.935C45.4048 211.935 4.72852 213.79 4.72852 216.079C4.72852 218.367 45.4048 220.222 95.5816 220.222Z" fill="#E1DFDD"/>
<path d="M177.216 206.58H10.2168C7.2802 206.58 4.63824 204.789 3.5596 202.056L0.722816 194.895C0.390195 194.059 0.257146 193.156 0.337926 192.258L4.97086 138.668C5.73589 129.797 13.1961 123.011 22.1008 123.083L117.596 123.852C124.04 123.905 130.07 127.017 133.838 132.249C143.085 145.078 160.376 168.438 160.376 168.438C160.376 168.438 172.664 175.356 177.806 178.317C179.331 179.196 180.438 180.64 180.885 182.341L184.334 195.423C184.658 196.644 184.624 197.932 184.244 199.134L183.299 202.123C182.462 204.774 180.001 206.58 177.216 206.58Z" fill="#E8D441"/>
<path d="M178.528 182.085C178.376 181.443 177.882 180.94 177.24 180.773L169.314 178.74C167.979 178.398 166.763 179.738 166.957 181.344L167.713 187.63C167.851 188.756 168.654 189.602 169.614 189.626L178.765 189.849C179.578 189.868 180.191 189.113 180.006 188.319L178.528 182.085Z" fill="white"/>
<path d="M3.04645 191.422C4.79034 191.422 6.20635 190.006 6.20635 188.262V174.411C6.20635 172.667 4.79034 171.251 3.04645 171.251H2.15313L0.409241 191.422H3.04645Z" fill="#E86E58"/>
<path d="M1.01271 184.451L0.409241 191.422H3.0512C4.79509 191.422 6.2111 190.006 6.2111 188.262V184.451H1.01271Z" fill="white"/>
<path d="M3.55966 202.056C4.64305 204.789 7.28026 206.58 10.2168 206.58H177.212C179.996 206.58 182.458 204.774 183.299 202.118L184.244 199.129C184.624 197.927 184.653 196.639 184.334 195.418L184.296 195.271H0.870178L3.55966 202.056Z" fill="#797673"/>
<path d="M155.691 171.327L155.772 170.02C155.824 169.155 155.567 168.3 155.045 167.606L137.839 144.774C137.173 143.89 136.138 143.353 135.026 143.325L120.295 142.926C118.195 142.869 116.484 144.594 116.556 146.694L117.401 171.379C117.468 173.346 119.088 174.905 121.06 174.895L152.07 174.743C153.995 174.739 155.577 173.242 155.691 171.327Z" fill="white"/>
<path d="M153.657 165.563H157.682C157.991 165.563 158.238 165.316 158.238 165.007V149.612C158.238 149.303 157.991 149.056 157.682 149.056H153.657C153.348 149.056 153.101 149.303 153.101 149.612V165.007C153.101 165.316 153.348 165.563 153.657 165.563Z" fill="#797673"/>
<path d="M117.402 171.379C117.468 173.346 119.088 174.905 121.06 174.895L125.974 174.872L121.559 162.626L121.027 156.483C120.913 155.176 119.839 154.164 118.533 154.13L116.812 154.083L117.402 171.379Z" fill="#B3AFAB"/>
<path d="M143.617 171.845C144.154 172.135 144.9 172.52 145.342 172.743L142.31 174.796L152.075 174.748C153.553 174.739 154.822 173.85 155.387 172.572L151.253 170.296C150.478 169.868 149.528 169.911 148.792 170.41L147.281 171.436L144.838 169.963L146.649 167.155C146.805 166.912 146.734 166.589 146.492 166.437L146.268 166.295C146.026 166.138 145.703 166.209 145.551 166.452L140.381 174.463C140.31 174.572 140.291 174.696 140.31 174.815L141.716 174.81L143.617 171.845Z" fill="#B3AFAB"/>
<path d="M125.959 178.336H119.174V180.721H125.959V178.336Z" fill="#797673"/>
<path d="M42.519 217.856C49.6099 217.856 55.3582 212.108 55.3582 205.017C55.3582 197.926 49.6099 192.177 42.519 192.177C35.4281 192.177 29.6798 197.926 29.6798 205.017C29.6798 212.108 35.4281 217.856 42.519 217.856Z" fill="#605D5A"/>
<path d="M42.519 213.214C47.0459 213.214 50.7157 209.544 50.7157 205.017C50.7157 200.49 47.0459 196.82 42.519 196.82C37.9921 196.82 34.3223 200.49 34.3223 205.017C34.3223 209.544 37.9921 213.214 42.519 213.214Z" fill="white"/>
<path d="M42.5191 208.714C44.5608 208.714 46.2159 207.058 46.2159 205.017C46.2159 202.975 44.5608 201.32 42.5191 201.32C40.4773 201.32 38.8222 202.975 38.8222 205.017C38.8222 207.058 40.4773 208.714 42.5191 208.714Z" fill="#E1DFDD"/>
<path d="M148.316 217.856C155.407 217.856 161.156 212.108 161.156 205.017C161.156 197.926 155.407 192.177 148.316 192.177C141.225 192.177 135.477 197.926 135.477 205.017C135.477 212.108 141.225 217.856 148.316 217.856Z" fill="#605D5A"/>
<path d="M148.316 213.214C152.843 213.214 156.513 209.544 156.513 205.017C156.513 200.49 152.843 196.82 148.316 196.82C143.789 196.82 140.12 200.49 140.12 205.017C140.12 209.544 143.789 213.214 148.316 213.214Z" fill="white"/>
<path d="M148.316 208.714C150.358 208.714 152.013 207.058 152.013 205.017C152.013 202.975 150.358 201.32 148.316 201.32C146.275 201.32 144.62 202.975 144.62 205.017C144.62 207.058 146.275 208.714 148.316 208.714Z" fill="#E1DFDD"/>
<path d="M163.085 181.852H13.3292C13.0678 181.852 12.854 181.638 12.854 181.377C12.854 181.116 13.0678 180.902 13.3292 180.902H163.085C163.346 180.902 163.56 181.116 163.56 181.377C163.56 181.638 163.346 181.852 163.085 181.852Z" fill="#FAE969"/>
<path d="M116.556 146.694C116.484 144.594 118.195 142.869 120.295 142.926L135.026 143.325C136.133 143.353 137.169 143.89 137.839 144.774L155.045 167.606C155.567 168.3 155.824 169.155 155.772 170.02L155.691 171.327C155.691 171.341 155.686 171.36 155.682 171.374H165.579C162.614 169.697 160.371 168.438 160.371 168.438C160.371 168.438 143.08 145.078 133.833 132.249C130.065 127.022 124.035 123.905 117.592 123.852L22.0961 123.083C13.1961 123.011 5.73591 129.797 4.96613 138.668L2.13885 171.374H117.397L116.556 146.694Z" fill="#FAE969"/>
<path d="M106.72 162.812H15.4295C14.4174 162.812 13.5953 161.99 13.5953 160.978V138.602C13.5953 137.59 14.4174 136.768 15.4295 136.768H106.72C107.732 136.768 108.554 137.59 108.554 138.602V160.978C108.554 161.99 107.732 162.812 106.72 162.812Z" fill="#E8D441"/>
<path d="M252.075 189.217C252.189 178.744 250.697 157.48 239.887 139.676L229.314 146.095C239.122 162.242 239.858 181.087 239.63 189.312C239.611 189.992 245.955 190.609 252.075 189.217Z" fill="url(#paint0_linear)"/>
<path d="M239.635 189.198L249.428 189.156L258.571 241.51L238.922 241.6C237.425 241.605 236.295 240.398 236.39 238.906L239.635 189.198Z" fill="#522CD5"/>
<path d="M279.512 227.74C281.208 229.08 281.179 231.018 281.046 233.066L280.638 239.339C280.566 240.46 279.583 241.382 278.461 241.387L257.986 241.482C256.713 241.486 255.748 240.46 255.834 239.186L255.971 232.686C256.124 230.324 255.335 229.455 253.505 227.231C250.374 223.425 241.108 202.693 241.992 189.189L252.075 189.141C252.74 197.162 263.322 214.967 279.512 227.74Z" fill="url(#paint1_linear)"/>
<path d="M281.051 233.066C281.146 231.636 281.17 230.263 280.609 229.108L255.069 229.222C255.777 230.263 256.071 231.166 255.971 232.681L255.834 239.182C255.753 240.455 256.713 241.482 257.986 241.477L278.461 241.382C279.587 241.377 280.566 240.455 280.638 239.334L281.051 233.066Z" fill="url(#paint2_radial)"/>
<path d="M198.076 189.45C197.867 178.977 199.165 157.704 209.813 139.799L220.443 146.124C210.783 162.36 210.217 181.21 210.516 189.431C210.545 190.115 204.211 190.79 198.076 189.45Z" fill="url(#paint3_linear)"/>
<path d="M187.366 231.66C187.352 230.263 187.556 229.032 188.15 226.989C197.292 201.999 198.067 189.393 198.067 189.393L210.536 189.336C210.536 189.336 211.391 201.7 220.761 226.604C221.503 228.381 221.588 230.001 221.683 231.503L221.735 239.495C221.74 240.702 220.761 241.691 219.554 241.695L218.951 241.7L190.193 241.833L189.59 241.838C188.378 241.843 187.395 240.868 187.39 239.657L187.366 231.66Z" fill="url(#paint4_linear)"/>
<path d="M187.366 231.66C187.366 231.436 187.371 231.213 187.38 230.994C187.442 230.301 187.765 229.517 189.286 229.507L220.039 229.369C221.151 229.407 221.517 230.258 221.631 230.795C221.65 231.032 221.664 231.27 221.678 231.503L221.731 239.495C221.735 240.251 221.35 240.916 220.771 241.315C220.424 241.553 220.001 241.695 219.55 241.695L218.946 241.7L190.189 241.833L189.585 241.838C188.982 241.843 188.43 241.595 188.031 241.201C187.632 240.807 187.385 240.26 187.38 239.657L187.366 231.66Z" fill="url(#paint5_radial)"/>
<path d="M283.475 113.603C287.799 96.6867 284.9 83.206 284.9 83.206L288.877 83.187L288.977 83.111C283.142 52.1297 255.872 28.756 223.218 28.9033C186.43 29.0696 156.741 59.0292 156.907 95.8171C157.074 132.605 187.033 162.294 223.821 162.128C252.85 161.994 277.454 143.311 286.459 117.361C286.715 116.269 286.687 114.292 283.475 113.603Z" fill="url(#paint6_radial)"/>
<path d="M281.246 128.994L166.226 129.516C168.825 133.883 171.909 137.927 175.401 141.576L272.18 141.134C275.639 137.452 278.685 133.384 281.246 128.994Z" fill="#D8CFF7"/>
<path d="M245.861 144.88L267.448 144.781L267.361 125.689L245.774 125.787L245.861 144.88Z" fill="#512BD4"/>
<path d="M249.595 137.747C249.452 137.747 249.328 137.699 249.229 137.604C249.129 137.504 249.077 137.39 249.077 137.252C249.077 137.115 249.124 136.996 249.229 136.901C249.328 136.801 249.452 136.753 249.595 136.753C249.742 136.753 249.865 136.801 249.965 136.901C250.07 137.001 250.122 137.115 250.122 137.252C250.122 137.385 250.07 137.504 249.97 137.604C249.861 137.694 249.742 137.747 249.595 137.747Z" fill="white"/>
<path d="M255.335 137.651H254.403L251.937 133.779C251.875 133.679 251.823 133.579 251.78 133.475H251.757C251.776 133.589 251.785 133.831 251.785 134.202L251.79 137.661H250.963L250.953 132.382H251.947L254.332 136.164C254.432 136.321 254.498 136.43 254.527 136.487H254.541C254.517 136.35 254.503 136.112 254.503 135.779L254.498 132.377H255.32L255.335 137.651Z" fill="white"/>
<path d="M259.355 137.642L256.466 137.647L256.456 132.367L259.231 132.363V133.104L257.311 133.109L257.316 134.601L259.084 134.596V135.337L257.316 135.342L257.321 136.901L259.355 136.896V137.642Z" fill="white"/>
<path d="M263.451 133.099L261.973 133.104L261.982 137.637H261.127L261.118 133.104L259.64 133.109V132.368L263.451 132.358V133.099Z" fill="white"/>
<path d="M283.617 113.603C287.889 96.8911 285.114 83.5482 285.043 83.2251L215.933 83.5387C215.933 83.5387 211.576 83.1158 211.595 87.093C211.614 91.0702 211.828 102.308 211.885 114.734C211.894 117.29 213.995 118.511 215.644 118.507C215.644 118.507 281.892 116.368 283.617 113.603Z" fill="url(#paint7_radial)"/>
<path d="M241.65 113.731C241.65 113.731 252.241 105.268 254.308 103.705C256.375 102.142 258.191 102.047 260.101 103.677C262.011 105.311 272.688 113.589 272.688 113.589L241.65 113.731Z" fill="#A08BE8"/>
<path d="M286.192 118.217C286.192 118.217 288.164 114.577 283.617 113.608C283.622 113.589 215.672 113.864 215.672 113.864C214.09 113.874 212.051 112.938 211.866 111.408C211.875 112.505 211.88 113.617 211.885 114.739C211.894 117.057 213.624 118.274 215.173 118.478C215.33 118.497 215.482 118.511 215.644 118.511L220.291 118.492L286.192 118.217Z" fill="#512BD4"/>
<path d="M232.365 107.421C235.243 107.365 237.5 103.397 237.406 98.5589C237.311 93.7206 234.902 89.8439 232.023 89.9001C229.145 89.9562 226.888 93.9239 226.983 98.7621C227.077 103.6 229.487 107.477 232.365 107.421Z" fill="#512BD4"/>
<path d="M279.371 98.511C279.421 93.6723 277.128 89.7255 274.25 89.6955C271.371 89.6656 268.997 93.5639 268.946 98.4026C268.896 103.241 271.189 107.188 274.067 107.218C276.946 107.248 279.32 103.35 279.371 98.511Z" fill="#512BD4"/>
<path d="M232.132 94.2823C233.192 93.2132 234.622 92.738 236.014 92.8568C236.836 94.3774 237.359 96.3731 237.402 98.5684C237.43 99.9369 237.259 101.229 236.95 102.389C235.306 102.864 233.463 102.46 232.161 101.172C230.25 99.2764 230.236 96.1925 232.132 94.2823Z" fill="#8065E0"/>
<path d="M274.066 93.8071C275.126 92.738 276.561 92.2628 277.953 92.3816C278.846 93.9687 279.388 96.1212 279.364 98.4971C279.35 99.7088 279.193 100.859 278.918 101.909C277.269 102.398 275.406 101.999 274.099 100.702C272.189 98.8012 272.175 95.7173 274.066 93.8071Z" fill="#8065E0"/>
<path d="M233.173 156.582C222.396 159.581 205.099 159.101 191.372 148.466C181.854 141.096 172.868 126.124 174.246 102.194L187.376 102.726C186.325 117.789 191.11 131.493 199.535 138.169C208.654 145.397 221.236 146.266 229.656 143.924L233.173 156.582Z" fill="url(#paint8_linear)"/>
<path d="M229.752 178.586L311.505 178.586L311.505 121.261L229.752 121.261L229.752 178.586Z" fill="#FADCBD"/>
<path d="M229.748 178.586L239.935 178.586L239.935 121.261L229.748 121.261L229.748 178.586Z" fill="#E0BB95"/>
<path d="M227.292 131.376L315.023 131.376L315.023 119.012L227.292 119.012L227.292 131.376Z" fill="#FADCBD"/>
<path d="M227.289 131.376L240.746 131.376L240.746 119.012L227.289 119.012L227.289 131.376Z" fill="#E0BB95"/>
<path d="M258.937 145.701L253.886 136.977C253.724 136.701 253.325 136.701 253.168 136.977L248.117 145.701C247.955 145.976 248.155 146.323 248.478 146.323H250.977C251.206 146.323 251.391 146.509 251.391 146.737V149.821C251.391 150.049 251.576 150.234 251.804 150.234H255.173C255.401 150.234 255.587 150.049 255.587 149.821V146.737C255.587 146.509 255.772 146.323 256 146.323H258.575C258.899 146.319 259.098 145.976 258.937 145.701Z" fill="#E0BB95"/>
<path d="M311.5 131.374H229.747V133.555H311.5V131.374Z" fill="url(#paint9_linear)"/>
<path d="M286.668 119.01H267.091V141.648H286.668V119.01Z" fill="white"/>
<path d="M225.979 129.412L212.118 141.453C209.647 143.596 209.386 147.34 211.529 149.811C213.672 152.282 217.416 152.543 219.887 150.4L233.748 138.359C236.219 136.216 236.48 132.472 234.337 130.001C232.189 127.53 228.45 127.264 225.979 129.412Z" fill="#8A6FE8"/>
<path d="M216.233 163.81L226.53 170.619C229.286 172.415 232.978 171.636 234.769 168.88C236.565 166.124 235.786 162.432 233.03 160.64L222.472 153.66L216.233 163.81Z" fill="#8A6FE8"/>
<path d="M222.681 162.08L239.493 164.75C242.743 165.254 245.789 163.026 246.292 159.775C246.796 156.525 244.567 153.479 241.317 152.976L228.82 150.951L222.681 162.08Z" fill="#8A6FE8"/>
<path d="M221.992 154.834L238.989 153.617C242.272 153.389 244.743 150.543 244.515 147.259C244.287 143.976 241.441 141.505 238.157 141.733L220.847 142.973L221.992 154.834Z" fill="#8A6FE8"/>
<path d="M219.184 164.608C226.07 164.608 231.652 159.026 231.652 152.139C231.652 145.253 226.07 139.671 219.184 139.671C212.297 139.671 206.715 145.253 206.715 152.139C206.715 159.026 212.297 164.608 219.184 164.608Z" fill="url(#paint10_radial)"/>
<path d="M312.279 165.725L307.024 165.748C303.731 165.763 301.046 163.106 301.032 159.813C301.018 156.521 303.674 153.836 306.967 153.822L312.222 153.798C315.515 153.784 318.2 156.44 318.214 159.733C318.233 163.03 315.572 165.71 312.279 165.725Z" fill="#8A6FE8"/>
<path d="M314.347 155.314L306.749 155.347C303.456 155.361 300.771 152.705 300.757 149.412C300.742 146.119 303.399 143.434 306.691 143.42L314.29 143.387C317.582 143.372 320.267 146.029 320.281 149.322C320.296 152.615 317.639 155.294 314.347 155.314Z" fill="#8A6FE8"/>
<path d="M316.181 146.095L310.925 146.119C307.632 146.133 304.948 143.477 304.933 140.184C304.919 136.891 307.575 134.206 310.868 134.192L316.124 134.168C319.417 134.154 322.101 136.81 322.116 140.103C322.13 143.396 319.474 146.081 316.181 146.095Z" fill="#8A6FE8"/>
<path d="M180.001 116.644C186.756 116.644 192.232 111.168 192.232 104.413C192.232 97.658 186.756 92.182 180.001 92.182C173.246 92.182 167.77 97.658 167.77 104.413C167.77 111.168 173.246 116.644 180.001 116.644Z" fill="url(#paint11_radial)"/>
<path d="M194.836 9.50544C198.06 8.42117 200.175 6.06016 199.56 4.23198C198.945 2.4038 195.833 1.80074 192.609 2.88502C189.386 3.96929 187.271 6.3303 187.886 8.15848C188.501 9.98666 191.613 10.5897 194.836 9.50544Z" fill="#FAE969"/>
<path d="M268.336 33.2464C277.682 40.3408 264.14 42.7641 255.663 40.6021C247.186 38.4401 236.114 33.3129 230.388 33.4698C224.667 33.6266 245.741 28.1383 253.235 28.6848C260.733 29.2312 263.935 29.9107 268.336 33.2464Z" fill="#797673"/>
<path d="M190.274 37.5135C190.274 37.5135 210.189 41.771 218.718 40.987C225.679 40.3455 234.584 35.4512 246.159 31.4598C257.734 27.4683 268.906 33.6693 268.906 33.6693C268.906 33.6693 260.97 24.3654 231.757 25.9383C207.604 27.2307 190.022 37.9459 190.274 37.5135Z" fill="#E8D441"/>
<path d="M170.802 54.862C170.802 54.862 180.984 41.0772 202.728 33.788C226.045 25.9714 244.814 25.8669 244.814 25.8669C244.814 25.8669 235.335 -4.5014 199.497 4.2893C153.315 15.6222 170.802 54.862 170.802 54.862Z" fill="#FAE969"/>
<path d="M194.27 5.78613C154.698 18.7013 170.801 54.862 170.801 54.862C170.801 54.862 175.791 48.1193 186.23 41.5714C173.985 21.9753 182.096 12.2675 194.27 5.78613Z" fill="#E8D441"/>
<defs>
<linearGradient id="paint0_linear" x1="236.253" y1="140.458" x2="246.731" y2="190.364" gradientUnits="userSpaceOnUse">
<stop stop-color="#522CD5"/>
<stop offset="0.4397" stop-color="#8A6FE8"/>
</linearGradient>
<linearGradient id="paint1_linear" x1="244.292" y1="187.883" x2="275.421" y2="243.382" gradientUnits="userSpaceOnUse">
<stop stop-color="#522CD5"/>
<stop offset="0.4397" stop-color="#8A6FE8"/>
</linearGradient>
<radialGradient id="paint2_radial" cx="0" cy="0" r="1" gradientUnits="userSpaceOnUse" gradientTransform="translate(267.462 218.673) rotate(-0.260742) scale(21.5738)">
<stop offset="0.034" stop-color="#522CD5"/>
<stop offset="0.9955" stop-color="#8A6FE8"/>
</radialGradient>
<linearGradient id="paint3_linear" x1="213.393" y1="140.515" x2="203.368" y2="190.514" gradientUnits="userSpaceOnUse">
<stop stop-color="#522CD5"/>
<stop offset="0.4397" stop-color="#8A6FE8"/>
</linearGradient>
<linearGradient id="paint4_linear" x1="204.312" y1="189.37" x2="204.551" y2="241.772" gradientUnits="userSpaceOnUse">
<stop stop-color="#522CD5"/>
<stop offset="0.4397" stop-color="#8A6FE8"/>
</linearGradient>
<radialGradient id="paint5_radial" cx="0" cy="0" r="1" gradientUnits="userSpaceOnUse" gradientTransform="translate(205.202 218.893) rotate(179.739) scale(23.652)">
<stop offset="0.034" stop-color="#522CD5"/>
<stop offset="0.9955" stop-color="#8A6FE8"/>
</radialGradient>
<radialGradient id="paint6_radial" cx="0" cy="0" r="1" gradientUnits="userSpaceOnUse" gradientTransform="translate(240.299 72.0861) rotate(179.739) scale(66.3392)">
<stop offset="0.4744" stop-color="#A08BE8"/>
<stop offset="0.8618" stop-color="#8065E0"/>
</radialGradient>
<radialGradient id="paint7_radial" cx="0" cy="0" r="1" gradientUnits="userSpaceOnUse" gradientTransform="translate(252.739 73.0136) rotate(179.739) scale(68.7486)">
<stop offset="0.0933" stop-color="#E1DFDD"/>
<stop offset="0.6573" stop-color="white"/>
</radialGradient>
<linearGradient id="paint8_linear" x1="174.105" y1="130.181" x2="233.174" y2="130.181" gradientUnits="userSpaceOnUse">
<stop offset="0.1526" stop-color="#9780E6"/>
<stop offset="1" stop-color="#8A6FE8"/>
</linearGradient>
<linearGradient id="paint9_linear" x1="311.504" y1="132.467" x2="229.748" y2="132.467" gradientUnits="userSpaceOnUse">
<stop offset="0.3418" stop-color="#E0BB95"/>
<stop offset="1" stop-color="#BF8F68"/>
</linearGradient>
<radialGradient id="paint10_radial" cx="0" cy="0" r="1" gradientUnits="userSpaceOnUse" gradientTransform="translate(215.262 148.997) rotate(-48.5634) scale(12.4711)">
<stop stop-color="#8065E0"/>
<stop offset="1" stop-color="#512BD4"/>
</radialGradient>
<radialGradient id="paint11_radial" cx="0" cy="0" r="1" gradientUnits="userSpaceOnUse" gradientTransform="translate(177.741 100.297) rotate(-0.260741) scale(12.2349)">
<stop stop-color="#8065E0"/>
<stop offset="1" stop-color="#512BD4"/>
</radialGradient>
</defs>
</svg>
