<svg width="311" height="260" viewBox="0 0 311 260" fill="none" xmlns="http://www.w3.org/2000/svg">
<path d="M158.536 211.224L227.778 211.224L227.778 190.269L158.536 190.269L158.536 211.224Z" fill="#605D5A"/>
<path d="M182.16 166.834C184.731 167.608 187.444 166.155 188.217 163.584L197.506 134.038C198.138 131.953 196.728 129.184 194.888 128.019L132.957 105.229C130.693 103.79 127.438 105.064 125.999 107.333C124.56 109.597 125.235 112.602 127.499 114.041L186.901 135.222L178.905 160.777C178.131 163.348 179.589 166.065 182.16 166.834Z" fill="url(#paint0_linear)"/>
<path d="M153.686 123.339L154.837 123.755L158.422 114.985L157.285 114.518L153.686 123.339Z" fill="#A08BE8"/>
<path d="M176.061 131.392L177.136 131.784L180.74 122.868L179.688 122.504L176.061 131.392Z" fill="#A08BE8"/>
<path d="M194.699 127.892L189.736 126.198L186.467 135.076L186.873 135.223L186.628 136.029L196.827 136.195L197.431 134.199C198.058 132.119 196.789 128.779 194.699 127.892Z" fill="#A08BE8"/>
<path d="M165.041 127.434L166.192 127.849L169.862 118.862L168.734 118.433L165.041 127.434Z" fill="#A08BE8"/>
<path d="M181.825 151.455L181.49 152.55L190.576 155.701L190.887 154.635L181.825 151.455Z" fill="#A08BE8"/>
<path d="M184.906 141.747L184.547 142.917L193.704 146.129L194.077 144.978L184.906 141.747Z" fill="#A08BE8"/>
<path d="M181.052 161.942C183.736 161.994 185.953 159.862 186.005 157.178L186.977 126.222C187.024 124.042 184.92 121.759 182.83 121.132L117.046 115.905C114.475 115.131 111.687 117.235 110.913 119.806C110.139 122.377 111.597 125.085 114.168 125.858L177.08 130.222L176.278 156.989C176.231 159.673 178.368 161.89 181.052 161.942Z" fill="url(#paint1_linear)"/>
<path d="M141.893 127.745L143.114 127.835L144.199 118.424L142.982 118.282L141.893 127.745Z" fill="#A08BE8"/>
<path d="M165.612 129.458L166.753 129.543L167.815 119.985L166.706 119.919L165.612 129.458Z" fill="#A08BE8"/>
<path d="M182.613 121.061L177.377 120.768L176.622 130.198L177.051 130.232L177.037 131.071L186.906 128.477L186.949 126.392C186.991 124.221 184.868 121.349 182.613 121.061Z" fill="#A08BE8"/>
<path d="M153.931 128.623L155.153 128.712L156.262 119.07L155.059 118.961L153.931 128.623Z" fill="#A08BE8"/>
<path d="M176.575 147.224L176.547 148.37L186.147 148.95L186.161 147.837L176.575 147.224Z" fill="#A08BE8"/>
<path d="M176.924 137.039L176.896 138.261L186.581 138.883L186.633 137.676L176.924 137.039Z" fill="#A08BE8"/>
<path d="M215.65 90.2038C215.447 89.7415 215.244 89.2744 215.041 88.8074C205.46 66.5222 201.733 48.0156 206.72 47.4731C211.706 46.9306 223.514 64.5597 233.1 86.845C233.303 87.312 233.496 87.779 233.694 88.2413L215.65 90.2038Z" fill="#C7E0F4"/>
<path d="M232.968 119.216C232.968 119.216 213.376 128.915 216.673 154.323C219.971 179.731 210.465 206.305 210.465 206.305C220.499 206.083 233.35 203.309 238.591 183.421C249.875 140.591 232.968 119.216 232.968 119.216Z" fill="#797673"/>
<path d="M187.341 167.636C187.544 172.764 192.492 179.986 202.621 187.553C203.805 188.435 204.357 189.369 204.196 190.681L203.687 194.879C203.611 195.502 202.979 196.002 202.272 196.002L184.553 195.955C184.053 195.955 183.689 195.596 183.746 195.158L184.336 190.313C184.52 188.803 184.265 188.03 182.637 186.912C178.562 184.119 176.906 174.736 177.628 168.061C178.335 161.395 187.341 167.636 187.341 167.636Z" fill="#A08BE8"/>
<path d="M204.149 189.648C204.215 189.968 204.234 190.308 204.191 190.681L203.682 194.879C203.606 195.502 202.974 196.002 202.267 196.002L184.548 195.955C184.048 195.955 183.685 195.596 183.741 195.158C183.741 195.158 184.623 189.492 184.623 189.27L204.149 189.648Z" fill="#D0C5F3"/>
<path d="M175.184 168.66L183.052 168.679C183.17 176.165 194.516 185.232 196.771 188.303C197.063 188.704 197.191 189.19 197.134 189.69L196.525 194.851C196.455 195.436 195.672 195.983 195.002 195.983C195.002 195.983 175.967 195.955 173.518 195.945C171.551 195.941 171.466 195.092 171.419 193.875C171.386 193.077 172.598 177.618 174.108 168.348C174.396 168.547 174.769 168.66 175.184 168.66Z" fill="#8065E0"/>
<path d="M77.9757 166.598L49.1898 128.123H65.9839C68.253 128.123 70.2202 126.283 70.3759 124.014C70.5363 121.745 68.8238 119.905 66.5547 119.905H4.40707C2.13798 119.905 0.170801 121.745 0.0104081 124.014C-0.149985 126.283 1.56245 128.123 3.83154 128.123H43.2317L74.2017 169.518L77.9757 166.598Z" fill="#B3AFAB"/>
<path d="M287.848 236.98C300.635 224.634 301.668 204.961 290.157 193.038C278.645 181.116 258.948 181.459 246.161 193.805C233.375 206.151 232.341 225.824 243.853 237.746C255.364 249.669 275.061 249.326 287.848 236.98Z" fill="#605D5A"/>
<path d="M280.492 229.361C288.765 221.373 289.433 208.643 281.985 200.929C274.536 193.214 261.791 193.436 253.518 201.424C245.244 209.412 244.576 222.141 252.025 229.856C259.473 237.57 272.218 237.349 280.492 229.361Z" fill="white"/>
<path d="M273.135 221.742C276.895 218.112 277.198 212.326 273.812 208.819C270.426 205.313 264.634 205.413 260.874 209.043C257.114 212.673 256.811 218.459 260.197 221.966C263.583 225.472 269.375 225.372 273.135 221.742Z" fill="#E1DFDD"/>
<path d="M253.611 160.376C286.893 160.97 296.035 179.831 298.526 189.143C299.083 191.233 296.965 193.224 294.903 192.568C284.713 189.341 259.442 184.359 240.817 205.928C236.756 210.631 229.321 210.994 224.688 210.688C222.721 210.56 221.726 208.39 222.816 206.659L251.097 161.763C251.644 160.9 252.62 160.357 253.611 160.376Z" fill="#7BDDEF"/>
<path d="M206.885 206.234C216.904 206.234 232.052 190.204 232.43 156.14C232.807 122.075 214.173 102.04 214.173 102.04H232.175C232.175 102.04 254.687 149.757 253.573 165.664C252.46 181.571 222.264 215.372 222.264 215.372H128.301L123.457 206.234C123.457 206.234 196.865 206.234 206.885 206.234Z" fill="#28C2D1"/>
<path d="M148.011 165.041C165.258 160.442 180.226 130.519 150.124 128.231C122.754 126.151 108.79 126.443 97.5531 123.632C85.934 120.726 74.2395 128.231 80.2117 159.291C86.184 190.35 148.011 165.041 148.011 165.041Z" fill="#797673"/>
<path d="M123.324 236.974C136.111 224.628 137.144 204.955 125.633 193.032C114.121 181.11 94.4239 181.453 81.6374 193.798C68.8509 206.144 67.8172 225.817 79.3287 237.74C90.8402 249.662 110.538 249.319 123.324 236.974Z" fill="#605D5A"/>
<path d="M115.968 229.355C124.241 221.367 124.91 208.637 117.461 200.922C110.012 193.208 97.2673 193.429 88.9941 201.417C80.7209 209.405 80.0525 222.135 87.5012 229.849C94.9499 237.564 107.695 237.343 115.968 229.355Z" fill="white"/>
<path d="M108.612 221.736C112.372 218.105 112.675 212.32 109.289 208.813C105.903 205.306 100.11 205.406 96.3503 209.036C92.5904 212.666 92.2873 218.452 95.6733 221.959C99.0592 225.466 104.852 225.366 108.612 221.736Z" fill="#E1DFDD"/>
<path d="M44.3779 206.234H169.541C170.867 206.234 172.008 205.177 172.136 203.852C173.122 193.44 181.373 152.417 122.985 152.417C63.1816 152.417 46.4913 187.463 42.1937 203.333C41.788 204.842 42.8447 206.234 44.3779 206.234Z" fill="#7BDDEF"/>
<path d="M215.239 107.526H235.142C235.704 107.526 236.19 107.069 236.232 106.507L237.496 88.4347C237.534 87.8734 237.114 87.4158 236.553 87.4158H216.65C216.089 87.4158 215.603 87.8734 215.56 88.4347L214.296 106.507C214.253 107.069 214.678 107.526 215.239 107.526Z" fill="#28C2D1"/>
<path d="M221.363 103.201C224.748 99.933 225.022 94.7248 221.974 91.5684C218.927 88.4121 213.712 88.5029 210.327 91.7712C206.942 95.0395 206.669 100.248 209.716 103.404C212.764 106.56 217.978 106.47 221.363 103.201Z" fill="#797673"/>
<path d="M254.973 98.2015C256.099 92.725 253.431 87.549 249.013 86.6408C244.596 85.7325 240.102 89.4357 238.976 94.9123C237.85 100.389 240.518 105.565 244.936 106.473C249.353 107.381 253.847 103.678 254.973 98.2015Z" fill="#E1DFDD"/>
<path d="M245.365 106.545L246.756 86.6138C236.85 86.6138 228.505 91.0765 228.122 96.577C227.74 102.082 235.458 106.545 245.365 106.545Z" fill="#28C2D1"/>
<path d="M65.9363 165.604C66.7187 161.102 64.548 156.964 61.0879 156.363C57.6278 155.762 54.1887 158.924 53.4063 163.426C52.624 167.929 54.7947 172.066 58.2548 172.667C61.7148 173.268 65.154 170.106 65.9363 165.604Z" fill="#E3646A"/>
<path d="M60.9121 156.375L59.7988 172.32C69.7055 172.32 77.9846 168.749 78.2959 164.348C78.6026 159.942 70.8188 156.375 60.9121 156.375Z" fill="#28C2D1"/>
<path d="M165.834 91.3266C170.06 78.5565 168.631 68.3621 168.631 68.3621H171.636L171.716 68.3055C169.06 44.8692 149.78 27.1033 125.103 27.0891C97.2985 27.075 73.1735 49.6055 71.2205 77.4101C69.2627 105.215 90.2177 127.764 118.022 127.778C139.963 127.788 159.607 113.758 167.881 94.1807C168.136 93.3504 168.221 91.855 165.834 91.3266Z" fill="url(#paint2_radial)"/>
<path d="M167.593 94.8034C167.593 94.8034 169.216 92.0767 165.838 91.3266C170.013 78.7122 168.669 68.6168 168.636 68.3715L139.793 68.2819C139.793 68.2819 136.524 67.9469 136.316 70.952C136.109 73.957 135.632 82.4531 134.972 91.8455C134.835 93.775 136.354 94.709 137.595 94.709L167.593 94.8034Z" fill="url(#paint3_radial)"/>
<path d="M167.301 86.1139C166.909 87.7886 166.433 89.5293 165.838 91.3267C165.89 91.3361 165.928 91.355 165.98 91.3644L159.305 91.3597C159.305 91.3597 164.602 87.3876 165.635 86.6517C166.235 86.2271 166.782 86.0384 167.301 86.1139Z" fill="#A08BE8"/>
<path d="M167.593 94.8034C167.593 94.8034 169.216 92.0767 165.838 91.3266C165.843 91.3125 165.848 91.2983 165.852 91.2889L137.708 91.2417C136.515 91.2417 135.024 90.5294 134.972 89.3689C134.915 90.1992 134.859 91.0389 134.798 91.888C134.675 93.6429 135.911 94.5675 137.071 94.7232C137.185 94.7373 167.593 94.8034 167.593 94.8034Z" fill="url(#paint4_radial)"/>
<path d="M163.173 102.946L76.3623 102.908C78.0795 106.22 80.1787 109.286 82.6129 112.055L155.639 112.088C158.46 109.319 160.989 106.257 163.173 102.946Z" fill="url(#paint5_radial)"/>
<path d="M165.003 99.9737C161.904 105.394 157.894 110.253 153.209 114.338H151.969L152.978 99.969L165.003 99.9737Z" fill="#512BD4"/>
<path d="M119.093 24.9286L109.464 27.1316L109.238 17.0929L116.154 15.5078L119.093 24.9286Z" fill="#D0C5F3"/>
<path d="M120.744 7.1484C121.551 12.1159 118.116 17.0833 113.064 18.2391C108.016 19.3949 103.266 16.305 102.454 11.3328C101.648 6.3653 105.082 1.39783 110.134 0.242054C115.187 -0.913721 119.933 2.18093 120.744 7.1484Z" fill="url(#paint6_radial)"/>
<path d="M123.744 30.028C124.178 29.929 124.466 29.4808 124.348 29.0657C123.107 24.6832 118.663 22.0744 113.955 23.15C109.247 24.2256 105.945 28.6128 106.167 33.2265C106.186 33.6605 106.596 33.953 107.03 33.8539L123.744 30.028Z" fill="url(#paint7_radial)"/>
<path d="M134.599 34.2125C134.5 35.1371 135.029 36.0051 135.934 36.2882C147.832 39.9631 156.941 48.997 160.918 60.4509C161.993 63.5409 166.074 62.2813 164.899 58.8989C160.536 46.2892 150.511 36.3353 137.42 32.2925C136.34 31.9576 135.132 32.5803 134.722 33.6841C134.656 33.8634 134.618 34.038 134.599 34.2125Z" fill="url(#paint8_radial)"/>
<path d="M78.9803 73.0652C79.9097 72.9615 80.7258 72.2491 80.9334 71.2868C84.3441 55.3276 96.7085 41.9159 112.422 37.1136C113.545 36.7692 114.243 35.5993 113.974 34.5001C113.71 33.4009 112.578 32.7877 111.455 33.1273C94.1752 38.4014 80.589 53.1482 76.8386 70.6876C76.5933 71.8293 77.3104 72.886 78.4426 73.0511C78.6265 73.0794 78.8058 73.0841 78.9803 73.0652Z" fill="url(#paint9_radial)"/>
<path d="M152.964 87.1752C155.219 87.1752 157.267 84.0994 157.531 80.3066C157.795 76.5138 156.182 73.438 153.922 73.438C151.667 73.438 149.62 76.5138 149.355 80.3066C149.091 84.1041 150.709 87.1752 152.964 87.1752Z" fill="#512BD4"/>
<path d="M153.705 76.8722C152.087 78.3441 151.884 80.7641 153.247 82.2737C154.177 83.3021 155.592 83.6465 156.913 83.2974C157.238 82.3917 157.455 81.3774 157.531 80.3065C157.653 78.5847 157.38 77.0138 156.842 75.8108C155.766 75.6976 154.611 76.0467 153.705 76.8722Z" fill="#8065E0"/>
<path d="M190.364 107.031L186.416 98.8273C177.155 102.856 168.73 106.125 160.937 106.073C139.265 105.927 122.909 86.1468 117.39 80.717L110.026 87.746C120.286 97.8461 146.463 129.712 190.364 107.031Z" fill="url(#paint10_linear)"/>
<path d="M192.119 98.8793L196.261 91.237C197.351 89.1944 196.478 86.7413 194.313 85.7601C192.148 84.7788 189.511 85.6374 188.421 87.6848L184.17 95.5252L192.119 98.8793Z" fill="#D0C5F3"/>
<path d="M186.246 110.347L195.087 112.517C197.445 113.079 199.762 111.744 200.257 109.536C200.752 107.323 199.247 105.078 196.889 104.512L187.826 102.285L186.246 110.347Z" fill="#D0C5F3"/>
<path d="M159.639 106.04L160.748 106.036L160.418 115.022L159.309 115.027L159.639 106.04Z" fill="#A08BE8"/>
<path d="M169.919 104.795L171.004 104.526L173.16 113.187L172.075 113.456L169.919 104.795Z" fill="#A08BE8"/>
<path d="M198.082 104.554C196.266 104.554 194.714 103.309 194.417 101.464C194.072 99.3178 195.558 97.1761 197.738 96.6808L215.957 92.6945C218.136 92.2134 220.183 93.539 220.528 95.6807C220.872 97.8271 219.386 99.9688 217.207 100.464L198.988 104.45C198.686 104.521 198.379 104.554 198.082 104.554Z" fill="#B3AFAB"/>
<path d="M119.857 95.1147C125.221 93.2796 128.15 87.4677 126.4 82.1323C124.65 76.7969 118.881 73.9617 113.512 75.7968C108.148 77.6319 105.219 83.4438 106.969 88.7792C108.724 94.1146 114.493 96.9498 119.857 95.1147Z" fill="url(#paint11_radial)"/>
<path d="M193.52 103.399L201.03 98.2613C203.021 96.879 203.564 94.2656 202.243 92.4258C200.922 90.586 198.233 90.2133 196.242 91.5908L188.539 96.8555L193.52 103.399Z" fill="#D0C5F3"/>
<path d="M180.995 97.6905C184.161 93.9307 189.944 93.2278 193.907 96.1196C197.87 99.0114 198.516 104.413 195.351 108.173C192.185 111.932 186.402 112.635 182.439 109.744C178.476 106.852 177.83 101.45 180.995 97.6905Z" fill="url(#paint12_radial)"/>
<path d="M149.549 104.257L150.615 104.559L147.676 113.286L146.61 112.984L149.549 104.257Z" fill="#A08BE8"/>
<path d="M139.581 99.8274L140.562 100.351L135.604 108.696L134.486 108.111L139.581 99.8274Z" fill="#A08BE8"/>
<path d="M130.155 93.3079L131.052 93.9589L124.693 101.568L123.626 100.79L130.155 93.3079Z" fill="#A08BE8"/>
<path d="M184.981 156.149L176.702 155.984C174.697 155.946 173.037 157.541 172.999 159.545L172.843 167.598C172.806 169.603 174.4 171.264 176.405 171.301L184.684 171.466C186.689 171.504 188.35 169.91 188.387 167.905L188.548 159.857C188.581 157.852 186.991 156.196 184.981 156.149Z" fill="url(#paint13_radial)"/>
<path d="M229.958 95.8883C230.472 95.8883 230.958 95.5816 231.166 95.0769L242.804 66.5646C243.077 65.8994 242.756 65.1399 242.091 64.8663C241.426 64.5927 240.667 64.9135 240.393 65.5786L228.755 94.0909C228.481 94.7561 228.802 95.5156 229.467 95.7892C229.628 95.8552 229.798 95.8883 229.958 95.8883Z" fill="#797673"/>
<path d="M242.761 71.5981C246.617 71.5981 249.742 67.6908 249.742 62.8708C249.742 58.0509 246.617 54.1436 242.761 54.1436C238.905 54.1436 235.779 58.0509 235.779 62.8708C235.779 67.6908 238.905 71.5981 242.761 71.5981Z" fill="#7BDDEF"/>
<path d="M23.2437 75.3343C25.7581 73.485 28.1451 75.5796 29.7726 77.8392C31.4002 75.5843 33.7636 73.5133 36.3016 75.3343C39.9387 77.9525 33.1975 81.4434 33.1975 81.4434H26.3478C26.3478 81.4434 19.616 77.9996 23.2437 75.3343Z" fill="#E3646A"/>
<path d="M56.0625 82.533H12.4214V120.041H56.0625V82.533Z" fill="url(#paint14_radial)"/>
<path d="M57.3079 77.9377H11.1807V89.7314H57.3079V77.9377Z" fill="#F7C6C8"/>
<path d="M56.0577 82.533H46.4058V120.041H56.0577V82.533Z" fill="#EE8F94"/>
<path d="M57.2134 77.9382H46.3916V89.7319H57.2134V77.9382Z" fill="#EE8F94"/>
<path d="M27.6243 120.187L30.8228 120.187L30.8228 77.8573L27.6243 77.8573L27.6243 120.187Z" fill="#E3646A"/>
<path d="M56.0806 100.231L56.0806 97.0327L12.4206 97.0327L12.4206 100.231L56.0806 100.231Z" fill="#E3646A"/>
<defs>
<linearGradient id="paint0_linear" x1="139.329" y1="130.39" x2="212.277" y2="152.651" gradientUnits="userSpaceOnUse">
<stop offset="0.1207" stop-color="#958FE7"/>
<stop offset="0.3297" stop-color="#BBB7EF"/>
</linearGradient>
<linearGradient id="paint1_linear" x1="129.965" y1="138.416" x2="206.213" y2="140.162" gradientUnits="userSpaceOnUse">
<stop offset="0.1207" stop-color="#958FE7"/>
<stop offset="0.3297" stop-color="#BBB7EF"/>
</linearGradient>
<radialGradient id="paint2_radial" cx="0" cy="0" r="1" gradientUnits="userSpaceOnUse" gradientTransform="translate(135.346 60.0883) rotate(27.042) scale(48.9653 51.7866)">
<stop offset="0.4744" stop-color="#A08BE8"/>
<stop offset="0.8618" stop-color="#8065E0"/>
</radialGradient>
<radialGradient id="paint3_radial" cx="0" cy="0" r="1" gradientUnits="userSpaceOnUse" gradientTransform="translate(171.607 67.6374) rotate(-152.958) scale(28.256 29.884)">
<stop offset="0.0933" stop-color="#E1DFDD"/>
<stop offset="0.8998" stop-color="white"/>
</radialGradient>
<radialGradient id="paint4_radial" cx="0" cy="0" r="1" gradientUnits="userSpaceOnUse" gradientTransform="translate(142.75 89.7673) rotate(27.042) scale(20.0699 21.2263)">
<stop stop-color="#512BD4"/>
<stop offset="0.7715" stop-color="#6645D9"/>
<stop offset="0.8738" stop-color="#7659DD"/>
<stop offset="0.9583" stop-color="#8065E0"/>
</radialGradient>
<radialGradient id="paint5_radial" cx="0" cy="0" r="1" gradientUnits="userSpaceOnUse" gradientTransform="translate(90.6555 102.717) rotate(27.042) scale(30.6713 32.4385)">
<stop offset="0.4614" stop-color="#A08BE8"/>
<stop offset="0.5268" stop-color="#A793EA"/>
<stop offset="0.8352" stop-color="#C5B7F0"/>
<stop offset="1" stop-color="#D0C5F3"/>
</radialGradient>
<radialGradient id="paint6_radial" cx="0" cy="0" r="1" gradientUnits="userSpaceOnUse" gradientTransform="translate(112.739 5.59653) rotate(14.6341) scale(12.3344 12.7602)">
<stop stop-color="#A08BE8"/>
<stop offset="1" stop-color="#8065E0"/>
</radialGradient>
<radialGradient id="paint7_radial" cx="0" cy="0" r="1" gradientUnits="userSpaceOnUse" gradientTransform="translate(115.971 26.9251) rotate(14.6341) scale(8.4303 8.72132)">
<stop stop-color="#8065E0"/>
<stop offset="0.8628" stop-color="#512BD4"/>
</radialGradient>
<radialGradient id="paint8_radial" cx="0" cy="0" r="1" gradientUnits="userSpaceOnUse" gradientTransform="translate(149.854 47.2144) rotate(-83.894) scale(15.6691 15.5129)">
<stop offset="0.3607" stop-color="#BDB9F0"/>
<stop offset="0.5611" stop-color="#C3BCEB" stop-opacity="0.3855"/>
<stop offset="0.6338" stop-color="#CEC3E2" stop-opacity="0.3217"/>
<stop offset="0.8689" stop-color="#EDD6C9" stop-opacity="0.1152"/>
<stop offset="1" stop-color="#F9DDBF" stop-opacity="0"/>
</radialGradient>
<radialGradient id="paint9_radial" cx="0" cy="0" r="1" gradientUnits="userSpaceOnUse" gradientTransform="translate(95.468 53.1182) rotate(173.529) scale(18.8914 18.5958)">
<stop stop-color="#BDB9F0"/>
<stop offset="0.5266" stop-color="#C3BCEB" stop-opacity="0.3855"/>
<stop offset="0.605" stop-color="#CEC3E2" stop-opacity="0.3217"/>
<stop offset="0.8586" stop-color="#EDD6C9" stop-opacity="0.1152"/>
<stop offset="1" stop-color="#F9DDBF" stop-opacity="0"/>
</radialGradient>
<linearGradient id="paint10_linear" x1="111.89" y1="101.699" x2="188.292" y2="91.4937" gradientUnits="userSpaceOnUse">
<stop offset="0.2239" stop-color="#958FE7"/>
<stop offset="0.4264" stop-color="#BBB7EF"/>
</linearGradient>
<radialGradient id="paint11_radial" cx="0" cy="0" r="1" gradientUnits="userSpaceOnUse" gradientTransform="translate(118.896 82.0237) rotate(27.9749) scale(11.6475 11.7987)">
<stop stop-color="#8065E0"/>
<stop offset="0.8628" stop-color="#512BD4"/>
</radialGradient>
<radialGradient id="paint12_radial" cx="0" cy="0" r="1" gradientUnits="userSpaceOnUse" gradientTransform="translate(187.07 98.0034) rotate(172.395) scale(15.5061 14.4711)">
<stop stop-color="#A08BE8"/>
<stop offset="1" stop-color="#8065E0"/>
</radialGradient>
<radialGradient id="paint13_radial" cx="0" cy="0" r="1" gradientUnits="userSpaceOnUse" gradientTransform="translate(181.008 160.827) rotate(180) scale(10.734)">
<stop stop-color="#8065E0"/>
<stop offset="0.8628" stop-color="#512BD4"/>
</radialGradient>
<radialGradient id="paint14_radial" cx="0" cy="0" r="1" gradientUnits="userSpaceOnUse" gradientTransform="translate(30.5973 69.026) rotate(180) scale(32.9578)">
<stop offset="0.5241" stop-color="#EE8F94"/>
<stop offset="0.9936" stop-color="#F7C6C8"/>
</radialGradient>
</defs>
</svg>
