<svg width="314" height="266" viewBox="0 0 314 266" fill="none" xmlns="http://www.w3.org/2000/svg">
<path d="M188.587 157.514L178.941 154.958C181.212 146.381 184.324 134.634 182.481 131.631C181.911 130.7 180.157 129.93 177.126 129.274C164.348 126.523 139.672 121.695 139.425 121.648L152.469 114.454C152.716 114.501 166.353 116.749 179.226 119.524C183.27 120.394 188.259 121.966 190.991 126.419C194.659 132.411 192.987 140.897 188.587 157.514Z" fill="url(#paint0_linear)"/>
<path d="M182.467 139.719L190.098 141.306C190.426 143.943 188.154 156.996 208.43 178.312L206.515 187.312L173.234 180.37C172.07 180.127 171.371 179.039 171.694 177.889L182.467 139.719Z" fill="#522CD5"/>
<path d="M209.475 176.592C210.692 177.813 210.697 178.901 210.255 180.474L208.725 186.105C208.482 186.965 207.565 187.521 206.691 187.34L206.525 187.307C205.531 187.103 204.952 186.143 205.227 185.164L206.32 180.55C206.833 178.735 206.9 177.533 205.303 175.893C195.838 166.181 184.5 152.871 186.881 140.631L192.165 141.729C191.357 148.091 193.514 160.569 209.475 176.592Z" fill="url(#paint1_linear)"/>
<path d="M206.311 177.286C206.805 178.317 206.677 179.286 206.32 180.55L205.227 185.164C204.952 186.143 205.531 187.103 206.525 187.307L206.696 187.34C207.57 187.521 208.487 186.965 208.729 186.105L210.259 180.474C210.511 179.576 210.611 178.835 210.426 178.136L206.311 177.286Z" fill="url(#paint2_radial)"/>
<path d="M148.729 170.287C165.973 165.654 180.941 135.514 150.839 133.209C123.474 131.114 109.508 131.408 98.2706 128.576C86.6526 125.649 74.9586 133.209 80.9268 164.495C86.8997 195.78 148.729 170.287 148.729 170.287Z" fill="#0B7891"/>
<path d="M178.451 158.911L168.511 158.046C169.28 149.208 170.331 137.105 168.002 134.459C167.28 133.637 165.422 133.18 162.319 133.057C149.257 132.534 124.12 132.002 123.868 131.997L148.549 122.589C148.8 122.594 149.561 122.56 162.718 123.083C166.848 123.249 172.036 123.943 175.491 127.863C180.138 133.133 179.943 141.781 178.451 158.911Z" fill="url(#paint3_linear)"/>
<path d="M229.589 195.699H159.844V216.806H215.296L229.589 195.699Z" fill="#605D5A"/>
<path d="M217.373 94.9053C217.168 94.4396 216.964 93.9692 216.76 93.4988C207.109 71.0516 203.355 52.4105 208.378 51.8641C213.4 51.3176 225.294 69.0749 234.949 91.522C235.154 91.9925 235.349 92.4629 235.548 92.9285L217.373 94.9053Z" fill="#D8F3FE"/>
<path d="M234.816 124.128C234.816 124.128 215.082 133.898 218.404 159.491C221.725 185.084 212.151 211.85 212.151 211.85C222.258 211.627 235.201 208.833 240.48 188.799C251.847 145.663 234.816 124.128 234.816 124.128Z" fill="#0B7891"/>
<path d="M78.6982 171.855L49.7032 133.1H66.6193C68.9049 133.1 70.8864 131.246 71.0432 128.961C71.2047 126.675 69.4799 124.822 67.1943 124.822H4.59498C2.3094 124.822 0.327926 126.675 0.166368 128.961C0.00480867 131.246 1.72969 133.1 4.01527 133.1H43.7017L74.8968 174.796L78.6982 171.855Z" fill="#B3AFAB"/>
<path d="M290.097 242.752C302.977 230.317 304.018 210.5 292.423 198.491C280.828 186.482 260.987 186.828 248.108 199.263C235.228 211.699 234.187 231.515 245.782 243.524C257.377 255.533 277.218 255.187 290.097 242.752Z" fill="#605D5A"/>
<path d="M282.688 235.078C291.021 227.032 291.694 214.21 284.191 206.439C276.688 198.668 263.851 198.891 255.517 206.937C247.184 214.983 246.511 227.806 254.014 235.576C261.516 243.347 274.354 243.124 282.688 235.078Z" fill="white"/>
<path d="M275.278 227.403C279.065 223.747 279.37 217.919 275.96 214.387C272.549 210.854 266.714 210.955 262.927 214.612C259.14 218.268 258.835 224.096 262.245 227.628C265.656 231.161 271.491 231.06 275.278 227.403Z" fill="#E1DFDD"/>
<path d="M255.61 165.587C289.133 166.186 298.342 185.183 300.851 194.563C301.412 196.668 299.278 198.673 297.202 198.013C286.938 194.763 261.483 189.745 242.723 211.47C238.632 216.207 231.143 216.573 226.477 216.264C224.496 216.136 223.493 213.95 224.591 212.206L253.077 166.984C253.628 166.119 254.612 165.568 255.61 165.587Z" fill="#33D5F9"/>
<path d="M208.544 211.783C218.637 211.783 233.894 195.637 234.275 161.325C234.655 127.013 215.885 106.832 215.885 106.832H234.018C234.018 106.832 256.693 154.896 255.572 170.919C254.45 186.941 224.035 220.988 224.035 220.988H129.39L124.51 211.783C124.51 211.783 198.451 211.783 208.544 211.783Z" fill="#1DACCC"/>
<path d="M124.378 242.745C137.258 230.31 138.299 210.494 126.704 198.485C115.109 186.476 95.268 186.821 82.3885 199.257C69.5091 211.692 68.4679 231.508 80.063 243.517C91.6582 255.526 111.499 255.181 124.378 242.745Z" fill="#605D5A"/>
<path d="M116.968 235.071C125.302 227.025 125.975 214.203 118.472 206.432C110.969 198.662 98.1316 198.885 89.7983 206.931C81.465 214.977 80.7917 227.799 88.2945 235.57C95.7974 243.34 108.635 243.117 116.968 235.071Z" fill="white"/>
<path d="M109.559 227.397C113.346 223.74 113.651 217.912 110.241 214.38C106.83 210.848 100.995 210.949 97.208 214.605C93.4208 218.262 93.1155 224.09 96.526 227.622C99.9366 231.154 105.771 231.053 109.559 227.397Z" fill="#E1DFDD"/>
<path d="M216.959 112.354H237.007C237.572 112.354 238.062 111.893 238.105 111.327L239.378 93.1233C239.416 92.5578 238.993 92.0969 238.428 92.0969H218.38C217.815 92.0969 217.325 92.5578 217.282 93.1233L216.009 111.327C215.966 111.897 216.394 112.354 216.959 112.354Z" fill="#33D5F9"/>
<path d="M223.126 107.998C226.536 104.706 226.811 99.4598 223.742 96.2805C220.672 93.1013 215.42 93.1927 212.01 96.4848C208.6 99.7768 208.325 105.023 211.394 108.202C214.464 111.381 219.717 111.29 223.126 107.998Z" fill="#797673"/>
<path d="M256.98 102.963C258.114 97.4463 255.426 92.2328 250.977 91.3179C246.527 90.403 242 94.1332 240.866 99.6495C239.732 105.166 242.42 110.379 246.869 111.294C251.319 112.209 255.845 108.479 256.98 102.963Z" fill="#D8F3FE"/>
<path d="M247.304 111.37L248.706 91.2939C238.727 91.2939 230.321 95.7891 229.936 101.33C229.551 106.875 237.325 111.37 247.304 111.37Z" fill="#33D5F9"/>
<path d="M179.416 95.8176C183.916 82.2134 182.395 71.3509 182.395 71.3509H185.598L185.683 71.2892C182.856 46.3188 162.314 27.3879 136.018 27.3784C106.391 27.3642 80.6892 51.3652 78.6032 80.9922C76.5172 110.614 98.8456 134.644 128.468 134.653C151.842 134.663 172.773 119.719 181.587 98.8587C181.863 97.9749 181.958 96.383 179.416 95.8176Z" fill="url(#paint4_radial)"/>
<path d="M176.579 108.196L84.0867 108.158C85.9161 111.684 88.1541 114.953 90.7438 117.904L168.549 117.937C171.557 114.991 174.256 111.727 176.579 108.196Z" fill="#D8CFF7"/>
<path d="M178.527 105.031C175.225 110.809 170.953 115.984 165.964 120.336H164.643L165.721 105.026L178.527 105.031Z" fill="#512BD4"/>
<path d="M129.613 25.0737L119.354 27.4211L119.112 16.7249L126.482 15.0381L129.613 25.0737Z" fill="#8A6FE8"/>
<path d="M126.753 16.0545C129.79 13.1215 130.036 8.44817 127.302 5.61628C124.568 2.78439 119.889 2.86631 116.851 5.79927C113.813 8.73223 113.567 13.4056 116.302 16.2375C119.036 19.0693 123.715 18.9874 126.753 16.0545Z" fill="#D8CFF7"/>
<path d="M134.569 30.5099C135.03 30.4053 135.339 29.9254 135.211 29.4835C133.89 24.8173 129.152 22.0328 124.139 23.1827C119.126 24.3326 115.6 29.0036 115.838 33.9169C115.861 34.3825 116.294 34.6914 116.755 34.5868L134.569 30.5099Z" fill="url(#paint5_radial)"/>
<path d="M181.288 99.5191C181.288 99.5191 183.018 96.6158 179.416 95.8128C183.863 82.3749 182.433 71.617 182.395 71.3556L151.666 71.2606C151.666 71.2606 148.183 70.9042 147.959 74.1069C147.736 77.3095 147.228 86.3568 146.524 96.364C146.382 98.4215 147.997 99.4146 149.323 99.4146L181.288 99.5191Z" fill="url(#paint6_radial)"/>
<path d="M181.711 86.8653C181.06 89.954 180.428 92.9238 179.421 95.7511C178.717 95.7986 168.073 95.8128 168.073 95.8128C168.073 95.8128 177.107 89.0416 178.865 87.7919C179.901 87.0602 180.832 86.7418 181.711 86.8653Z" fill="#A08BE8"/>
<path d="M181.288 99.5192C181.288 99.5192 183.027 96.5541 179.425 95.751C179.43 95.7368 149.447 95.7225 149.447 95.7225C148.173 95.7225 146.586 94.9623 146.534 93.7268C146.472 94.6106 146.41 95.5087 146.349 96.4115C146.216 98.279 147.537 99.2673 148.772 99.4336C148.891 99.4479 181.288 99.5192 181.288 99.5192Z" fill="#512BD4"/>
<path d="M165.702 91.3985C168.107 91.3985 170.288 88.1246 170.568 84.0808C170.848 80.0371 169.128 76.7632 166.724 76.7632C164.32 76.7632 162.139 80.0371 161.858 84.0808C161.578 88.1246 163.298 91.3985 165.702 91.3985Z" fill="#512BD4"/>
<path d="M166.491 80.4174C164.766 81.9855 164.552 84.5657 166.002 86.1717C166.995 87.2694 168.501 87.6353 169.908 87.2646C170.255 86.3 170.487 85.2214 170.568 84.0762C170.696 82.2421 170.407 80.5695 169.836 79.2865C168.686 79.1677 167.456 79.5383 166.491 80.4174Z" fill="#8065E0"/>
<path d="M197.482 111.665L194.132 102.565C183.902 105.891 174.631 108.5 166.372 107.649C152.521 106.224 141.45 97.4283 133.68 89.2791C128.563 83.9144 120.442 90.9137 125.241 95.96C138.675 110.082 161.464 126.096 197.482 111.665Z" fill="url(#paint7_linear)"/>
<path d="M199.844 103.862L204.258 95.7178C205.417 93.5415 204.491 90.9281 202.181 89.8827C199.877 88.8373 197.064 89.7544 195.904 91.9307L191.376 100.284L199.844 103.862Z" fill="#8A6FE8"/>
<path d="M193.59 116.084L203.008 118.398C205.522 118.997 207.988 117.576 208.52 115.219C209.052 112.862 207.442 110.467 204.928 109.868L195.272 107.497L193.59 116.084Z" fill="#8A6FE8"/>
<path d="M199.677 109.36C197.848 109.36 196.285 108.105 195.985 106.247C195.638 104.085 197.135 101.928 199.33 101.429L217.682 97.414C219.877 96.9293 221.939 98.2646 222.286 100.422C222.633 102.584 221.136 104.741 218.941 105.24L200.59 109.255C200.286 109.327 199.977 109.36 199.677 109.36Z" fill="#B3AFAB"/>
<path d="M130.426 99.8517C136.142 97.894 139.264 91.7025 137.396 86.0194C135.529 80.3363 129.385 77.3142 123.669 79.272C117.952 81.2297 114.83 87.4212 116.698 93.1042C118.565 98.7873 124.709 101.809 130.426 99.8517Z" fill="url(#paint8_radial)"/>
<path d="M199.768 108.719L207.974 103.107C210.15 101.596 210.744 98.7446 209.3 96.7299C207.855 94.7152 204.918 94.3113 202.742 95.8176L194.327 101.572L199.768 108.719Z" fill="#8A6FE8"/>
<path d="M187.993 102.598C191.367 98.5926 197.525 97.8418 201.749 100.926C205.973 104.01 206.662 109.759 203.289 113.765C199.915 117.771 193.757 118.521 189.532 115.438C185.308 112.354 184.619 106.609 187.993 102.598Z" fill="url(#paint9_radial)"/>
<path d="M231.785 100.631C232.303 100.631 232.792 100.322 233.001 99.8139L244.724 71.0945C244.999 70.4245 244.676 69.6595 244.006 69.3839C243.336 69.1083 242.571 69.4314 242.296 70.1014L230.573 98.8208C230.297 99.4908 230.621 100.256 231.291 100.531C231.452 100.603 231.623 100.631 231.785 100.631Z" fill="#797673"/>
<path d="M244.681 76.1691C248.565 76.1691 251.713 72.2333 251.713 67.3784C251.713 62.5234 248.565 58.5876 244.681 58.5876C240.797 58.5876 237.648 62.5234 237.648 67.3784C237.648 72.2333 240.797 76.1691 244.681 76.1691Z" fill="#33D5F9"/>
<path d="M23.5686 79.9278C26.1013 78.0651 28.5057 80.1749 30.145 82.451C31.7844 80.1797 34.165 78.0936 36.7214 79.9278C40.385 82.565 33.5948 86.0813 33.5948 86.0813H26.6953C26.6953 86.0813 19.9146 82.6173 23.5686 79.9278Z" fill="#FDC9B5"/>
<path d="M56.5979 87.179H12.6396V124.96H56.5979V87.179Z" fill="#ED9583"/>
<path d="M57.8524 82.5564H11.39V94.4357H57.8524V82.5564Z" fill="#ED9583"/>
<path d="M56.5931 87.179H46.8711V124.96H56.5931V87.179Z" fill="#E86E58"/>
<path d="M57.7573 82.5554H46.8569V94.4347H57.7573V82.5554Z" fill="#E86E58"/>
<path d="M27.9531 125.106L31.1747 125.106L31.1747 82.4692L27.9531 82.4692L27.9531 125.106Z" fill="#FDC9B5"/>
<path d="M56.6135 105.008L56.6135 101.786L12.6363 101.786L12.6363 105.008L56.6135 105.008Z" fill="#FDC9B5"/>
<path d="M169.337 148.149H177.135C177.995 150.662 178.428 163.905 202.623 180.646L202.581 189.85L168.582 189.831C167.389 189.831 166.486 188.909 166.572 187.716L169.337 148.149Z" fill="#522CD5"/>
<path d="M203.289 178.75C204.724 179.695 204.956 180.764 204.842 182.394L204.496 188.22C204.434 189.113 203.65 189.845 202.756 189.845H202.581C201.568 189.845 200.803 189.023 200.875 188.011L201.008 183.273C201.141 181.392 200.965 180.204 199.064 178.921C187.822 171.342 174.008 160.617 173.847 148.148H179.24C179.744 154.535 184.4 166.314 203.289 178.75Z" fill="url(#paint10_linear)"/>
<path d="M200.333 180.076C201.027 180.983 201.098 181.957 201.008 183.273L200.875 188.011C200.803 189.023 201.568 189.845 202.581 189.845H202.752C203.645 189.845 204.429 189.113 204.491 188.22L204.842 182.394C204.909 181.463 204.852 180.717 204.529 180.071H200.333V180.076Z" fill="url(#paint11_radial)"/>
<path d="M44.8564 211.784H170.929C172.265 211.784 173.414 210.719 173.543 209.384C174.536 198.897 182.847 157.576 124.034 157.576C63.7968 157.576 46.9851 192.877 42.6563 208.861C42.2477 210.377 43.312 211.784 44.8564 211.784Z" fill="#33D5F9"/>
<path d="M66.5739 170.856C67.362 166.321 65.1755 162.154 61.6903 161.548C58.2051 160.942 54.7409 164.128 53.9529 168.663C53.1648 173.198 55.3513 177.365 58.8365 177.97C62.3217 178.576 65.7859 175.391 66.5739 170.856Z" fill="#E86E58"/>
<path d="M61.5112 161.558L60.3898 177.618C70.3684 177.618 78.7077 174.021 79.0213 169.588C79.3302 165.155 71.4898 161.558 61.5112 161.558Z" fill="#1DACCC"/>
<defs>
<linearGradient id="paint0_linear" x1="151.235" y1="109.834" x2="193.751" y2="152.35" gradientUnits="userSpaceOnUse">
<stop stop-color="#522CD5"/>
<stop offset="0.4535" stop-color="#8A6FE8"/>
</linearGradient>
<linearGradient id="paint1_linear" x1="192.258" y1="139.114" x2="207.317" y2="187.52" gradientUnits="userSpaceOnUse">
<stop stop-color="#522CD5"/>
<stop offset="0.4397" stop-color="#8A6FE8"/>
</linearGradient>
<radialGradient id="paint2_radial" cx="0" cy="0" r="1" gradientUnits="userSpaceOnUse" gradientTransform="translate(205.486 176.039) rotate(11.7482) scale(8.70024)">
<stop offset="0.034" stop-color="#522CD5"/>
<stop offset="1" stop-color="#8A6FE8"/>
</radialGradient>
<linearGradient id="paint3_linear" x1="137.818" y1="118.047" x2="178.567" y2="158.796" gradientUnits="userSpaceOnUse">
<stop offset="0.0936" stop-color="#522CD5"/>
<stop offset="0.4499" stop-color="#8A6FE8"/>
</linearGradient>
<radialGradient id="paint4_radial" cx="0" cy="0" r="1" gradientUnits="userSpaceOnUse" gradientTransform="translate(122.952 46.2057) rotate(27.042) scale(52.1698 55.1757)">
<stop offset="0.4744" stop-color="#A08BE8"/>
<stop offset="0.8618" stop-color="#8065E0"/>
</radialGradient>
<radialGradient id="paint5_radial" cx="0" cy="0" r="1" gradientUnits="userSpaceOnUse" gradientTransform="translate(126.286 27.1985) rotate(14.6341) scale(8.98207 9.29212)">
<stop stop-color="#8065E0"/>
<stop offset="0.8628" stop-color="#512BD4"/>
</radialGradient>
<radialGradient id="paint6_radial" cx="0" cy="0" r="1" gradientUnits="userSpaceOnUse" gradientTransform="translate(185.478 70.5741) rotate(-152.958) scale(30.1052 31.8398)">
<stop offset="0.0933" stop-color="#E1DFDD"/>
<stop offset="0.8998" stop-color="white"/>
</radialGradient>
<linearGradient id="paint7_linear" x1="123.775" y1="102.343" x2="197.48" y2="102.343" gradientUnits="userSpaceOnUse">
<stop stop-color="#9780E6"/>
<stop offset="1" stop-color="#8A6FE8"/>
</linearGradient>
<radialGradient id="paint8_radial" cx="0" cy="0" r="1" gradientUnits="userSpaceOnUse" gradientTransform="translate(129.442 85.9523) rotate(27.9749) scale(12.4097 12.5708)">
<stop stop-color="#8065E0"/>
<stop offset="0.8628" stop-color="#512BD4"/>
</radialGradient>
<radialGradient id="paint9_radial" cx="0" cy="0" r="1" gradientUnits="userSpaceOnUse" gradientTransform="translate(194.399 102.905) rotate(172.395) scale(16.5209 15.4182)">
<stop stop-color="#8065E0"/>
<stop offset="0.8628" stop-color="#512BD4"/>
</radialGradient>
<linearGradient id="paint10_linear" x1="178.668" y1="145.473" x2="203.268" y2="189.801" gradientUnits="userSpaceOnUse">
<stop stop-color="#522CD5"/>
<stop offset="0.4397" stop-color="#8A6FE8"/>
</linearGradient>
<radialGradient id="paint11_radial" cx="0" cy="0" r="1" gradientUnits="userSpaceOnUse" gradientTransform="translate(199.277 179.037) scale(8.70072)">
<stop offset="0.034" stop-color="#522CD5"/>
<stop offset="1" stop-color="#8A6FE8"/>
</radialGradient>
</defs>
</svg>
