<svg width="270" height="282" viewBox="0 0 270 282" fill="none" xmlns="http://www.w3.org/2000/svg">
<path d="M49.5205 155.704C49.5205 158.988 52.1909 161.653 55.4808 161.653H70.3698C73.6596 161.653 76.3301 158.988 76.3301 155.704C76.3301 155.704 76.1314 149.754 70.3698 149.754H55.4749C52.1851 149.754 49.5205 152.419 49.5205 155.704Z" fill="#D0C5F3"/>
<path d="M80.6718 151.871C83.9382 152.25 86.9009 149.911 87.2748 146.65L87.9527 140.811C88.3325 137.55 85.9893 134.593 82.7228 134.22C79.4564 133.841 76.4937 136.18 76.1198 139.44L75.4419 145.279C75.0563 148.54 77.3995 151.492 80.6718 151.871Z" fill="#D0C5F3"/>
<path d="M106.552 147.245L88.8169 184.764L100.714 190.469L118.449 152.95L106.552 147.245Z" fill="url(#paint0_linear)"/>
<path d="M249.172 214.758C257.914 209.083 268.432 196.734 269.297 180.593C269.823 170.794 266.843 156.193 249.698 142.269L241.967 151.76C252.374 160.212 257.593 169.954 257.061 179.94C256.482 190.755 249.33 200.07 242.493 204.504L249.172 214.758Z" fill="url(#paint1_linear)"/>
<path d="M260.755 153.916L250.758 160.703L251.553 161.87L261.55 155.084L260.755 153.916Z" fill="#A08BE8"/>
<path d="M229.223 199.102L246.192 196.844C249.213 196.442 251.994 198.565 252.398 201.581C252.801 204.596 250.674 207.373 247.653 207.776L230.684 210.033C227.663 210.435 224.881 208.312 224.478 205.296C224.075 202.281 226.196 199.504 229.223 199.102Z" fill="#D0C5F3"/>
<path d="M259.275 213.499L257.68 224.879C257.236 227.907 254.414 230.001 251.375 229.557C248.342 229.114 246.245 226.297 246.689 223.263L248.325 211.597L259.275 213.499Z" fill="#D0C5F3"/>
<path d="M254.092 216.928L245.584 230.304C243.931 232.882 240.495 233.635 237.912 231.984C235.329 230.333 234.575 226.903 236.229 224.325L242.522 214.356L254.092 216.928Z" fill="#D0C5F3"/>
<path d="M249.453 211.982L238.111 223.088C235.925 225.235 232.407 225.212 230.257 223.03C228.107 220.848 228.13 217.337 230.315 215.19L241.862 203.874L249.453 211.982Z" fill="#D0C5F3"/>
<path d="M249.301 219.973C255.723 219.973 260.929 214.776 260.929 208.365C260.929 201.954 255.723 196.757 249.301 196.757C242.879 196.757 237.672 201.954 237.672 208.365C237.672 214.776 242.879 219.973 249.301 219.973Z" fill="url(#paint2_radial)"/>
<path d="M254.913 189.1L254.363 190.4L265.501 195.095L266.051 193.794L254.913 189.1Z" fill="#A08BE8"/>
<path d="M269.343 178.383L256.873 175.198C256.809 174.714 256.733 174.229 256.64 173.751L268.134 168.927C269.004 172.334 269.337 175.519 269.343 178.383Z" fill="#A08BE8"/>
<path d="M198.977 240.133C201.893 253.934 216.414 265.781 217.331 266.324C218.249 266.86 191.042 267.14 191.042 267.14C191.042 267.14 183.042 248.06 186.502 239.649C186.823 238.867 198.977 240.133 198.977 240.133Z" fill="#A08BE8"/>
<path d="M192.181 265.274L216.046 265.391C216.046 265.391 221.591 269.112 223.064 271.796C224.191 273.849 224.115 278.451 224.016 280.505C223.987 281.076 223.513 281.525 222.941 281.525L199.924 281.485C199.187 281.485 198.591 280.884 198.597 280.143C198.621 277.6 198.182 272.181 197.224 270.629C195.792 268.313 192.181 265.274 192.181 265.274Z" fill="#D0C5F3"/>
<path d="M184.942 237.765C180.542 253.106 182.341 277.436 182.522 278.725C182.78 280.51 183.019 281.759 185.561 281.759C188.722 281.759 202.297 281.759 202.297 281.759L195.168 238.756L184.942 237.765Z" fill="#8065E0"/>
<path d="M198.978 240.133C200.041 247.664 207.567 258.245 221.819 269.316C223.485 270.611 224.344 271.976 224.344 273.901V280.067C224.344 280.977 223.602 281.718 222.69 281.718H199.807C199.165 281.718 198.639 281.193 198.639 280.551V273.435C198.639 271.218 198.189 270.08 195.916 268.447C190.212 264.364 186.613 250.586 186.496 240.792C186.373 230.998 198.978 240.133 198.978 240.133Z" fill="#A08BE8"/>
<path d="M224.128 272.391C224.268 272.857 224.344 273.359 224.344 273.907V280.073C224.344 280.983 223.602 281.724 222.691 281.724H199.808C199.165 281.724 198.639 281.199 198.639 280.557V273.441C198.639 273.061 198.622 272.717 198.592 272.391H224.128Z" fill="#D0C5F3"/>
<path d="M174.195 237.765C178.595 253.106 176.796 277.436 176.614 278.725C176.357 280.51 176.118 281.759 173.576 281.759C170.415 281.759 156.84 281.759 156.84 281.759L163.969 238.756L174.195 237.765Z" fill="#8065E0"/>
<path d="M160.159 240.133C159.096 247.664 151.569 258.245 137.317 269.316C135.652 270.611 134.793 271.976 134.793 273.901V280.067C134.793 280.977 135.535 281.718 136.447 281.718H159.329C159.972 281.718 160.498 281.193 160.498 280.551V273.435C160.498 271.218 160.948 270.08 163.221 268.447C168.924 264.364 172.524 250.586 172.641 240.792C172.763 230.998 160.159 240.133 160.159 240.133Z" fill="#A08BE8"/>
<path d="M135.009 272.391C134.869 272.857 134.793 273.359 134.793 273.907V280.073C134.793 280.983 135.535 281.724 136.447 281.724H159.329C159.972 281.724 160.498 281.199 160.498 280.557V273.441C160.498 273.061 160.516 272.717 160.545 272.391H135.009Z" fill="#D0C5F3"/>
<path d="M185.484 189.769L185.525 223.374L197.609 223.363L197.574 189.752L185.484 189.769Z" fill="url(#paint3_linear)"/>
<path d="M197.551 208.535H185.456V210.11H197.551V208.535Z" fill="#A08BE8"/>
<path d="M160.632 189.769L160.667 223.374L172.757 223.363L172.722 189.752L160.632 189.769Z" fill="url(#paint4_linear)"/>
<path d="M172.699 208.535H160.604V210.11H172.699V208.535Z" fill="#A08BE8"/>
<path d="M241.868 153.988C248.126 153.988 253.198 148.924 253.198 142.678C253.198 136.431 248.126 131.367 241.868 131.367C235.61 131.367 230.538 136.431 230.538 142.678C230.538 148.924 235.61 153.988 241.868 153.988Z" fill="url(#paint5_radial)"/>
<path d="M116.521 153.988C122.778 153.988 127.851 148.924 127.851 142.678C127.851 136.431 122.778 131.367 116.521 131.367C110.263 131.367 105.19 136.431 105.19 142.678C105.19 148.924 110.263 153.988 116.521 153.988Z" fill="url(#paint6_radial)"/>
<path d="M179.431 197.696C213.501 197.696 241.12 170.126 241.12 136.115C241.12 102.105 213.501 74.5344 179.431 74.5344C145.361 74.5344 117.742 102.105 117.742 136.115C117.742 170.126 145.361 197.696 179.431 197.696Z" fill="url(#paint7_radial)"/>
<path d="M127.46 141.202C128.512 140.829 129.219 139.785 129.119 138.624C127.466 119.328 137.201 100.533 153.924 90.7333C155.122 90.0333 155.52 88.4992 154.819 87.3034C154.117 86.1076 152.575 85.7109 151.383 86.4109C132.999 97.179 122.3 117.84 124.117 139.055C124.234 140.432 125.45 141.459 126.834 141.342C127.051 141.319 127.261 141.272 127.46 141.202Z" fill="url(#paint8_linear)"/>
<path d="M191.282 190.504C191.457 190.504 191.638 190.487 191.819 190.446C203.459 187.92 213.802 181.842 221.732 172.87C229.726 163.823 234.47 152.699 235.452 140.7C235.563 139.318 234.535 138.11 233.156 138C231.777 137.889 230.561 138.915 230.45 140.292C229.556 151.2 225.238 161.321 217.969 169.551C210.758 177.718 201.35 183.248 190.762 185.54C189.406 185.832 188.547 187.168 188.839 188.521C189.085 189.705 190.125 190.504 191.282 190.504Z" fill="url(#paint9_linear)"/>
<path d="M230.595 136.115C230.595 142.783 229.304 149.147 226.973 154.992C226.406 156.403 225.033 157.337 223.507 157.337H135.354C133.829 157.337 132.455 156.409 131.889 154.992C129.557 149.153 128.266 142.789 128.266 136.115C128.266 133.391 128.488 130.714 128.903 128.106C129.189 126.316 130.761 125.009 132.578 125.009H226.283C228.1 125.009 229.672 126.316 229.959 128.106C230.373 130.714 230.595 133.385 230.595 136.115Z" fill="white"/>
<path d="M126.244 167.3H232.623C230.233 171.348 227.399 175.099 224.174 178.488H134.688C131.468 175.099 128.634 171.348 126.244 167.3Z" fill="url(#paint10_radial)"/>
<path d="M128.903 128.101C129.189 126.31 130.761 125.003 132.579 125.003H136.879C135.062 125.003 133.49 126.31 133.204 128.101C132.789 130.708 132.567 133.385 132.567 136.11C132.567 141.278 133.35 146.259 134.782 150.961C135.313 152.256 136.71 153.032 138.136 153.032H220.691C222.216 153.032 223.724 152.151 224.156 150.687C224.46 149.648 224.741 148.587 224.992 147.537C225.839 143.862 226.295 140.041 226.295 136.11C226.295 133.385 226.073 130.708 225.658 128.101C225.372 126.31 223.8 125.003 221.983 125.003H226.283C228.101 125.003 229.673 126.31 229.959 128.101C230.374 130.708 230.596 133.385 230.596 136.11C230.596 142.777 229.305 149.141 226.973 154.986C226.406 156.397 225.033 157.331 223.508 157.331H219.207H139.649H135.354H135.348C133.823 157.331 132.45 156.403 131.883 154.986C129.552 149.147 128.26 142.783 128.26 136.11C128.266 133.385 128.482 130.714 128.903 128.101Z" fill="url(#paint11_radial)"/>
<path d="M188.372 153.032C188.372 153.032 182.219 148.173 181.021 147.274C179.823 146.376 178.771 146.324 177.667 147.274C176.568 148.225 170.403 153.032 170.403 153.032H188.372Z" fill="#A08BE8"/>
<path d="M157.492 146.543C160.158 146.504 162.264 142.847 162.197 138.376C162.131 133.905 159.916 130.312 157.25 130.352C154.585 130.392 152.478 134.048 152.545 138.519C152.612 142.991 154.827 146.583 157.492 146.543Z" fill="#512BD4"/>
<path d="M205.772 138.476C205.838 134.005 203.732 130.348 201.066 130.309C198.401 130.269 196.186 133.861 196.119 138.333C196.053 142.804 198.159 146.46 200.825 146.5C203.49 146.54 205.705 142.947 205.772 138.476Z" fill="#512BD4"/>
<path d="M157.337 134.383C155.572 136.145 155.572 138.997 157.337 140.753C158.535 141.949 160.241 142.334 161.766 141.896C162.058 140.823 162.216 139.627 162.198 138.367C162.169 136.337 161.69 134.494 160.936 133.082C159.651 132.965 158.318 133.403 157.337 134.383Z" fill="#8065E0"/>
<path d="M200.888 134.121C199.123 135.882 199.123 138.735 200.888 140.491C202.098 141.698 203.816 142.077 205.347 141.628C205.604 140.66 205.756 139.598 205.773 138.478C205.808 136.285 205.311 134.29 204.493 132.82C203.202 132.703 201.876 133.135 200.888 134.121Z" fill="#8065E0"/>
<path d="M185.309 71.2212H173.389L175.066 49.0901H183.626L185.309 71.2212Z" fill="#D0C5F3"/>
<path d="M189.867 78.6935C190.405 78.6935 190.837 78.2269 190.773 77.6961C190.142 72.0495 185.344 57.7407 179.519 57.7407C173.693 57.7407 168.895 72.0495 168.264 77.6961C168.206 78.2269 168.632 78.6935 169.17 78.6935H189.867Z" fill="url(#paint12_radial)"/>
<path d="M189.464 162.826H169.562V182.694H189.464V162.826Z" fill="#512BD4"/>
<path d="M173.108 175.519C172.968 175.519 172.846 175.472 172.752 175.379C172.653 175.285 172.606 175.169 172.606 175.035C172.606 174.9 172.653 174.784 172.752 174.691C172.851 174.597 172.968 174.545 173.108 174.545C173.249 174.545 173.371 174.591 173.471 174.691C173.57 174.784 173.623 174.9 173.623 175.035C173.623 175.169 173.57 175.28 173.471 175.379C173.371 175.472 173.249 175.519 173.108 175.519Z" fill="white"/>
<path d="M178.73 175.437H177.812L175.405 171.64C175.346 171.546 175.294 171.441 175.253 171.342H175.229C175.247 171.453 175.259 171.686 175.259 172.054V175.437H174.452V170.275H175.428L177.76 173.979C177.859 174.13 177.923 174.235 177.952 174.294H177.964C177.941 174.16 177.929 173.926 177.929 173.6V170.275H178.735V175.437H178.73Z" fill="white"/>
<path d="M182.674 175.437H179.84V170.275H182.557V171.004H180.675V172.468H182.411V173.191H180.675V174.72H182.668V175.437H182.674Z" fill="white"/>
<path d="M186.7 171.004H185.251V175.443H184.415V171.004H182.972V170.275H186.706V171.004H186.7Z" fill="white"/>
<path d="M171.554 222.931H162.754C159.972 222.931 157.711 225.183 157.711 227.965V237.176C157.711 239.952 159.966 242.21 162.754 242.21H171.554C174.335 242.21 176.597 239.958 176.597 237.176V227.965C176.591 225.183 174.335 222.931 171.554 222.931Z" fill="url(#paint13_radial)"/>
<path d="M195.904 222.931H187.103C184.322 222.931 182.061 225.183 182.061 227.965V237.176C182.061 239.952 184.316 242.21 187.103 242.21H195.904C198.685 242.21 200.946 239.958 200.946 237.176V227.965C200.946 225.183 198.691 222.931 195.904 222.931Z" fill="url(#paint14_radial)"/>
<path d="M96.3202 180.173L80.7183 153.198L69.2868 159.787L84.8887 186.762L96.3202 180.173Z" fill="#D0C5F3"/>
<path d="M87.8992 165.714L76.6143 172.551L77.4146 173.867L88.6995 167.031L87.8992 165.714Z" fill="#A08BE8"/>
<path d="M97.0544 167.794L96.3862 169.182L108.285 174.889L108.953 173.501L97.0544 167.794Z" fill="#A08BE8"/>
<path d="M92.9781 174.504L93.767 174.649L100.715 190.469C100.715 190.469 97.4249 193.637 91.7685 191.782C87.2516 190.3 84.0669 185.47 84.0669 185.47L92.9781 174.504Z" fill="#A08BE8"/>
<path d="M71.6435 161.717C78.6531 161.717 84.3354 156.045 84.3354 149.048C84.3354 142.05 78.6531 136.378 71.6435 136.378C64.634 136.378 58.9517 142.05 58.9517 149.048C58.9517 156.045 64.634 161.717 71.6435 161.717Z" fill="#927BE5"/>
<path d="M102.623 155.755L101.955 157.143L113.853 162.85L114.521 161.462L102.623 155.755Z" fill="#A08BE8"/>
<path d="M208.402 60.2663L207.637 82.9808C207.561 84.2699 206.451 85.2557 205.154 85.1799L157.506 82.3333C156.215 82.2575 155.227 81.1492 155.303 79.8542L156.361 52.2574C156.431 51.1316 157.29 50.2158 158.412 50.0699C163.023 49.4866 175.212 48.2908 187.653 49.9299C200.216 51.5807 205.96 56.5681 207.783 58.5339C208.215 59.0064 208.443 59.6305 208.402 60.2663Z" fill="url(#paint15_radial)"/>
<path d="M241.459 55.4658C238.888 64.6472 227.487 69.2554 218.494 67.5871C207.503 65.5514 192.731 51.7909 192.731 51.7909C192.731 51.7909 184.31 54.55 176.048 54.6491C167.785 54.7483 160.329 51.6334 160.329 51.6334C160.329 51.6334 147.993 58.2832 138.194 54.4216C116.825 45.9985 121.055 27.1223 134.729 15.5084C150.237 2.33706 167.136 7.09111 167.136 7.09111C167.136 7.09111 177.801 -5.00692 204.967 2.40123C218.301 6.04114 234.493 18.5708 230.438 34.7579C237.865 36.1054 244.48 44.686 241.459 55.4658Z" fill="url(#paint16_radial)"/>
<path d="M75.3657 78.8042C75.3657 76.226 72.6426 74.1377 69.2768 74.1377C65.9169 74.1377 63.188 76.226 63.188 78.8042C63.188 80.8809 64.9585 82.6367 67.4011 83.2433L65.8876 94.5422H72.5725L71.0649 83.2666C73.56 82.6717 75.3657 80.8984 75.3657 78.8042Z" fill="#FFD590"/>
<path d="M120.71 148.015C120.722 147.473 120.734 146.924 120.734 146.376C120.734 113.646 96.951 87.1108 67.6112 87.1108C38.2715 87.1108 14.4888 113.646 14.4888 146.376C14.4888 146.924 14.4946 147.473 14.5121 148.015H120.71Z" fill="#F7B548"/>
<path d="M9.76174 153.872H124.503C124.854 153.872 125.198 153.743 125.461 153.516L133.759 146.353C134.787 145.466 134.156 143.78 132.801 143.78H1.46994C0.10843 143.78 -0.516815 145.466 0.511625 146.353L8.80927 153.516C9.06638 153.749 9.41114 153.872 9.76174 153.872Z" fill="#FFD590"/>
<path d="M222.146 62.9323C210.962 60.8323 195.939 46.5877 195.939 46.5877C195.939 46.5877 187.366 49.4576 178.952 49.5743C170.537 49.6909 162.952 46.4652 162.952 46.4652C162.952 46.4652 150.389 53.3717 140.42 49.3818C127.81 44.3302 123.971 35.6271 125.689 26.854C120.728 37.0796 122.931 48.4193 138.188 54.4333C147.987 58.2949 160.323 51.6451 160.323 51.6451C160.323 51.6451 167.779 54.76 176.042 54.6608C184.304 54.5617 192.725 51.8026 192.725 51.8026C192.725 51.8026 207.497 65.5631 218.488 67.5988C226.546 69.0921 236.533 65.5456 240.372 58.1899C235.481 62.3198 228.264 64.0814 222.146 62.9323Z" fill="#E1DFDD"/>
<path d="M39.6036 143.78C39.7088 119.52 46.0606 106.949 52.6519 98.958C53.7563 97.6222 52.9032 96.4847 51.3956 97.3422C41.9351 102.703 23.8439 116.475 22.6519 143.78H39.6036V143.78Z" fill="#FFD590"/>
<path d="M96.969 143.78C96.8638 119.52 90.512 106.949 83.9206 98.958C82.8162 97.6222 83.6694 96.4847 85.177 97.3422C94.6374 102.703 112.729 116.475 113.921 143.78H96.969V143.78Z" fill="url(#paint17_radial)"/>
<path d="M2.42822 148.015L8.80338 153.516C9.07218 153.743 9.4111 153.872 9.7617 153.872H124.503C124.854 153.872 125.198 153.743 125.461 153.516L131.836 148.015H2.42822Z" fill="url(#paint18_radial)"/>
<defs>
<linearGradient id="paint0_linear" x1="110.932" y1="148.838" x2="96.3785" y2="188.892" gradientUnits="userSpaceOnUse">
<stop offset="0.1011" stop-color="#958FE7"/>
<stop offset="0.3166" stop-color="#BBB7EF"/>
</linearGradient>
<linearGradient id="paint1_linear" x1="235.305" y1="150.561" x2="266.536" y2="204.748" gradientUnits="userSpaceOnUse">
<stop offset="0.1197" stop-color="#958FE7"/>
<stop offset="0.2551" stop-color="#BBB7EF"/>
</linearGradient>
<radialGradient id="paint2_radial" cx="0" cy="0" r="1" gradientUnits="userSpaceOnUse" gradientTransform="translate(248.149 199.183) rotate(180) scale(38.9993 38.9311)">
<stop offset="0.0841" stop-color="#A08BE8"/>
<stop offset="1" stop-color="#8065E0"/>
</radialGradient>
<linearGradient id="paint3_linear" x1="191.549" y1="189.754" x2="191.549" y2="223.375" gradientUnits="userSpaceOnUse">
<stop offset="0.2368" stop-color="#958FE7"/>
<stop offset="0.4881" stop-color="#BBB7EF"/>
</linearGradient>
<linearGradient id="paint4_linear" x1="166.694" y1="189.754" x2="166.694" y2="223.375" gradientUnits="userSpaceOnUse">
<stop offset="0.2368" stop-color="#958FE7"/>
<stop offset="0.4881" stop-color="#BBB7EF"/>
</linearGradient>
<radialGradient id="paint5_radial" cx="0" cy="0" r="1" gradientUnits="userSpaceOnUse" gradientTransform="translate(246.243 134.638) scale(21.6422 21.6044)">
<stop stop-color="#8065E0"/>
<stop offset="1" stop-color="#512BD4"/>
</radialGradient>
<radialGradient id="paint6_radial" cx="0" cy="0" r="1" gradientUnits="userSpaceOnUse" gradientTransform="translate(110.621 136.076) scale(19.1116 19.0782)">
<stop stop-color="#8065E0"/>
<stop offset="1" stop-color="#512BD4"/>
</radialGradient>
<radialGradient id="paint7_radial" cx="0" cy="0" r="1" gradientUnits="userSpaceOnUse" gradientTransform="translate(195.444 98.8475) scale(83.9342 83.7874)">
<stop offset="0.186" stop-color="#A08BE8"/>
<stop offset="0.7272" stop-color="#8065E0"/>
</radialGradient>
<linearGradient id="paint8_linear" x1="161.514" y1="105.925" x2="117.782" y2="121.528" gradientUnits="userSpaceOnUse">
<stop stop-color="#BDB9F0"/>
<stop offset="0.2325" stop-color="#CEC3E2" stop-opacity="0.7675"/>
<stop offset="0.7251" stop-color="#EDD6C9" stop-opacity="0.2749"/>
<stop offset="1" stop-color="#F9DDBF" stop-opacity="0"/>
</linearGradient>
<linearGradient id="paint9_linear" x1="235.459" y1="164.25" x2="188.774" y2="164.25" gradientUnits="userSpaceOnUse">
<stop stop-color="#8065E0"/>
<stop offset="0.4307" stop-color="#A08BE8"/>
</linearGradient>
<radialGradient id="paint10_radial" cx="0" cy="0" r="1" gradientUnits="userSpaceOnUse" gradientTransform="translate(130.912 171.806) scale(37.8186 37.7524)">
<stop offset="0.4614" stop-color="#A08BE8"/>
<stop offset="0.5268" stop-color="#A793EA"/>
<stop offset="0.8352" stop-color="#C5B7F0"/>
<stop offset="1" stop-color="#D0C5F3"/>
</radialGradient>
<radialGradient id="paint11_radial" cx="0" cy="0" r="1" gradientUnits="userSpaceOnUse" gradientTransform="translate(166.6 145.579) scale(51.4958 51.4057)">
<stop stop-color="#512BD4"/>
<stop offset="0.4098" stop-color="#6645D9"/>
<stop offset="0.7102" stop-color="#7659DD"/>
<stop offset="0.9583" stop-color="#8065E0"/>
</radialGradient>
<radialGradient id="paint12_radial" cx="0" cy="0" r="1" gradientUnits="userSpaceOnUse" gradientTransform="translate(179.902 63.2179) scale(20.8628 20.8263)">
<stop stop-color="#8065E0"/>
<stop offset="1" stop-color="#512BD4"/>
</radialGradient>
<radialGradient id="paint13_radial" cx="0" cy="0" r="1" gradientUnits="userSpaceOnUse" gradientTransform="translate(167.151 232.569) scale(9.54924 9.53254)">
<stop stop-color="#8065E0"/>
<stop offset="1" stop-color="#512BD4"/>
</radialGradient>
<radialGradient id="paint14_radial" cx="0" cy="0" r="1" gradientUnits="userSpaceOnUse" gradientTransform="translate(191.503 232.569) scale(9.54924 9.53254)">
<stop stop-color="#8065E0"/>
<stop offset="1" stop-color="#512BD4"/>
</radialGradient>
<radialGradient id="paint15_radial" cx="0" cy="0" r="1" gradientUnits="userSpaceOnUse" gradientTransform="translate(187.272 0.20523) scale(85.4804 85.331)">
<stop offset="0.4767" stop-color="#C8C6C4"/>
<stop offset="1" stop-color="#E1DFDD"/>
</radialGradient>
<radialGradient id="paint16_radial" cx="0" cy="0" r="1" gradientUnits="userSpaceOnUse" gradientTransform="translate(212.841 -31.6264) rotate(-179.762) scale(123.524 114.746)">
<stop offset="0.1797" stop-color="#E1DFDD"/>
<stop offset="0.8412" stop-color="#FAF9F8"/>
</radialGradient>
<radialGradient id="paint17_radial" cx="0" cy="0" r="1" gradientUnits="userSpaceOnUse" gradientTransform="translate(45.5866 107.144) scale(92.7061 92.5439)">
<stop offset="0.1924" stop-color="#BF8F68"/>
<stop offset="0.9175" stop-color="#F7B548"/>
</radialGradient>
<radialGradient id="paint18_radial" cx="0" cy="0" r="1" gradientUnits="userSpaceOnUse" gradientTransform="translate(30.5848 182.142) scale(86.0804 85.9298)">
<stop offset="0.1924" stop-color="#BF8F68"/>
<stop offset="0.8155" stop-color="#EFB04D"/>
<stop offset="0.9175" stop-color="#F7B548"/>
</radialGradient>
</defs>
</svg>
