<svg width="217" height="259" viewBox="0 0 217 259" fill="none" xmlns="http://www.w3.org/2000/svg">
<path d="M145.127 137.35L163.3 135.884C168.544 135.346 173.118 138.562 173.867 143.328C175.65 154.612 176.383 167.476 176.491 177.694C176.554 183.317 175.908 190.965 175.104 194.515C173.976 199.488 168.619 202.592 163.475 203.25L140.662 205.145C135.397 204.654 133.881 194.977 134.356 190.032L134.793 144.423C135.247 139.704 141.882 137.779 145.127 137.35Z" fill="#605D5A"/>
<path d="M170.39 131.951L165.092 125.532C163.667 123.833 161.226 123.52 159.639 124.837C158.052 126.157 157.915 128.602 159.339 130.306L164.775 136.888L170.39 131.951Z" fill="#D0C5F3"/>
<path d="M162.072 138.841C160.539 134.509 162.692 129.989 166.887 128.748C171.081 127.507 175.721 130.01 177.258 134.343C178.795 138.675 176.638 143.194 172.443 144.436C168.249 145.677 163.604 143.169 162.072 138.841Z" fill="url(#paint0_radial)"/>
<path d="M151.788 169.55L207.889 71.8042L206.477 70.9961L152.121 165.709L145.456 147.381L171.352 57.0746L169.79 56.6248L143.749 147.443L151.788 169.55Z" fill="#B3AFAB"/>
<path d="M215.329 81.2397C215.329 81.2397 151.517 53.0718 102.841 62.1195C42.6908 73.3 9.50614 107.958 9.50614 107.958C9.50614 107.958 -4.66826 82.7976 1.60047 66.2518C6.77373 52.597 35.6848 10.5452 90.9079 1.67247C149.467 -7.73763 201.092 25.1998 208.552 34.9681C213.138 40.9666 218.082 71.917 215.329 81.2397Z" fill="#F7B548"/>
<path d="M3.72048 94.8278C0.704823 86.2425 -1.72769 75.037 1.60036 66.2559C6.77362 52.5969 35.6847 10.5451 90.9078 1.67239C149.467 -7.73771 201.092 25.1956 208.552 34.9681C211.659 39.0379 214.933 54.5714 215.862 67.0599C102.1 8.31652 33.877 63.3275 3.72048 94.8278Z" fill="#FFD590"/>
<path d="M97.3515 176.707L79.7866 173.453L81.2153 166.263L95.7812 168.984L97.3515 176.707Z" fill="url(#paint1_linear)"/>
<path d="M89.0052 167.697L87.5742 174.888L88.4158 175.055L89.8468 167.865L89.0052 167.697Z" fill="#A08BE8"/>
<path d="M81.5599 167.034L79.0347 149.886L71.7822 150.955L74.3075 168.102L81.5599 167.034Z" fill="#D0C5F3"/>
<path d="M80.2104 157.904L72.958 158.972L73.083 159.821L80.3354 158.753L80.2104 157.904Z" fill="#A08BE8"/>
<path d="M81.9903 166.413L79.7869 173.453C79.7869 173.453 75.126 172.845 74.3013 168.105C78.8331 166.659 81.3822 165.851 81.3822 165.851L81.9903 166.413Z" fill="#A08BE8"/>
<path d="M76.2544 143.336L82.3482 139.933C83.9768 139.037 86.0261 139.633 86.9216 141.266C87.8172 142.894 87.2215 144.944 85.5929 145.84L79.3409 149.33L76.2544 143.336Z" fill="#D0C5F3"/>
<path d="M74.9258 152.654C78.8204 152.654 81.9776 149.497 81.9776 145.602C81.9776 141.707 78.8204 138.55 74.9258 138.55C71.0312 138.55 67.874 141.707 67.874 145.602C67.874 149.497 71.0312 152.654 74.9258 152.654Z" fill="#927BE5"/>
<path d="M132.902 177.319L132.469 164.189L132.219 163.956L43.882 83.0015L42.3701 83.8138L130.869 164.926L131.182 174.416L11.5596 103.688L10.7349 105.083L132.902 177.319Z" fill="#B3AFAB"/>
<path d="M166.882 10.3533C189.112 18.7303 204.707 29.9274 208.552 34.9637C213.138 40.9663 218.082 71.9167 215.329 81.2393C215.329 81.2393 199.321 74.1745 177.229 68.2593C177.116 54.317 175.213 33.0975 166.882 10.3533Z" fill="#E3646A"/>
<path d="M34.5725 88.629C18.1405 98.943 9.51005 107.953 9.51005 107.953C9.51005 107.953 -4.66435 82.7929 1.60437 66.2472C4.15352 59.5156 12.4799 45.8815 26.875 32.7266C24.0926 55.3083 29.9782 76.3863 34.5725 88.629Z" fill="#E3646A"/>
<path d="M74.826 69.4758C71.5396 55.6085 66.7579 29.2236 71.0689 6.55855C77.2585 4.47574 83.8688 2.80534 90.9081 1.67229C99.7176 0.255988 108.369 -0.193897 116.741 0.0810327C128.27 23.7583 129.658 46.8691 129.162 60.4323C120.207 60.099 111.297 60.5489 102.842 62.1194C92.7283 63.9981 83.3814 66.5432 74.826 69.4758Z" fill="#E3646A"/>
<path d="M166.882 10.3533C189.112 18.7303 204.707 29.9274 208.552 34.9637C213.138 40.9663 218.082 71.9167 215.329 81.2393C215.329 81.2393 199.321 74.1745 177.229 68.2593C177.116 54.317 175.213 33.0975 166.882 10.3533Z" fill="#E3646A"/>
<path d="M34.5725 88.629C18.1405 98.943 9.51005 107.953 9.51005 107.953C9.51005 107.953 -4.66435 82.7929 1.60437 66.2472C4.15352 59.5156 12.4799 45.8815 26.875 32.7266C24.0926 55.3083 29.9782 76.3863 34.5725 88.629Z" fill="#E3646A"/>
<path d="M74.826 69.4758C71.5396 55.6085 66.7579 29.2236 71.0689 6.55855C77.2585 4.47574 83.8688 2.80534 90.9081 1.67229C99.7176 0.255988 108.369 -0.193897 116.741 0.0810327C128.27 23.7583 129.658 46.8691 129.162 60.4323C120.207 60.099 111.297 60.5489 102.842 62.1194C92.7283 63.9981 83.3814 66.5432 74.826 69.4758Z" fill="#E3646A"/>
<path d="M3.72048 94.8273C0.704823 86.242 -1.72769 75.0366 1.60036 66.2555C4.1495 59.5239 12.4759 45.8898 26.871 32.7349C25.1133 47.0104 26.821 60.6819 29.4743 71.904C18.9653 79.702 10.4057 87.8416 3.72048 94.8273Z" fill="#EE8F94"/>
<path d="M176.242 51.0887C174.98 39.1959 172.281 25.0953 166.882 10.3533C189.112 18.7303 204.707 29.9274 208.552 34.9637C211.721 39.1126 215.058 55.171 215.912 67.7761C202.012 60.5988 188.796 55.121 176.242 51.0887Z" fill="#EE8F94"/>
<path d="M71.1644 50.1974C69.2692 36.9383 68.3237 20.9965 71.0686 6.55439C77.2581 4.47159 83.8684 2.80119 90.9077 1.66814C99.7173 0.251838 108.369 -0.198047 116.741 0.0768823C124.03 15.0481 127.266 29.7901 128.533 42.037C106.807 40.9373 87.7213 44.3447 71.1644 50.1974Z" fill="#EE8F94"/>
<path d="M152.121 228.893L155.178 221.866C155.007 221.791 137.725 214.122 132.352 202.475L125.392 205.687C131.994 220 151.3 228.539 152.121 228.893Z" fill="url(#paint2_linear)"/>
<path d="M170.79 236.937L162.867 249.551C162.867 249.551 162.975 253.72 163.896 255.395C164.6 256.678 167.057 258.178 168.174 258.815C168.486 258.994 168.878 258.894 169.069 258.59L176.746 246.447C176.992 246.056 176.875 245.543 176.483 245.298C175.134 244.456 172.418 242.411 171.922 241.386C171.189 239.857 170.79 236.937 170.79 236.937Z" fill="#D0C5F3"/>
<path d="M158.693 223.907C168.261 226.732 180.499 235.833 181.115 236.358C181.969 237.091 182.548 237.637 181.698 238.974C180.64 240.64 176.1 247.789 176.1 247.789L155.794 229.622L158.693 223.907Z" fill="#8065E0"/>
<path d="M155.249 232.093C158.864 235.175 161.934 242.686 163.009 253.908C163.134 255.22 163.567 256.128 164.583 256.774L167.836 258.84C168.315 259.144 168.957 259.002 169.261 258.523L176.917 246.468C177.133 246.127 177.033 245.677 176.692 245.46L172.939 243.077C171.768 242.336 171.319 241.715 171.219 239.97C170.973 235.596 164.908 229.085 159.777 225.74C154.645 222.391 155.249 232.093 155.249 232.093Z" fill="#A08BE8"/>
<path d="M163.859 256.153C164.059 256.382 164.296 256.591 164.588 256.774L167.841 258.84C168.32 259.144 168.961 259.002 169.265 258.523L176.921 246.468C177.138 246.127 177.038 245.677 176.696 245.46L172.943 243.077C172.743 242.948 172.564 242.827 172.406 242.698L163.859 256.153Z" fill="url(#paint3_linear)"/>
<path d="M138.405 210.645L133.086 216.006L133.784 216.698L139.102 211.337L138.405 210.645Z" fill="#A08BE8"/>
<path d="M150.755 220.15L147.551 225.198C146.693 226.552 147.093 228.348 148.447 229.206L153.716 232.555C155.07 233.413 156.865 233.013 157.723 231.659L160.926 226.611C161.784 225.257 161.384 223.461 160.031 222.603L154.762 219.254C153.408 218.396 151.613 218.796 150.755 220.15Z" fill="url(#paint4_radial)"/>
<path d="M144.778 215.87L140.145 221.834L140.921 222.437L145.554 216.473L144.778 215.87Z" fill="#A08BE8"/>
<path d="M169.544 219.612L170.419 211.998C170.235 211.977 151.467 209.682 142.932 200.109L137.209 205.212C147.705 216.98 168.661 219.513 169.544 219.612Z" fill="url(#paint5_linear)"/>
<path d="M189.749 221.862L185.851 236.238C185.851 236.238 187.171 240.195 188.541 241.528C189.591 242.548 192.378 243.269 193.631 243.552C193.981 243.632 194.331 243.419 194.423 243.077L198.226 229.223C198.346 228.777 198.084 228.319 197.638 228.202C196.101 227.794 192.907 226.628 192.136 225.79C190.982 224.541 189.749 221.862 189.749 221.862Z" fill="#D0C5F3"/>
<path d="M174.38 212.923C184.355 212.831 198.713 217.967 199.459 218.292C200.492 218.742 201.204 219.096 200.779 220.625C200.254 222.524 197.997 230.689 197.997 230.689L173.276 219.242L174.38 212.923Z" fill="#8065E0"/>
<path d="M173.475 221.762C177.837 223.657 182.96 229.943 187.262 240.366C187.766 241.582 188.445 242.328 189.608 242.648L193.323 243.677C193.873 243.827 194.439 243.506 194.593 242.957L198.4 229.193C198.509 228.806 198.28 228.402 197.892 228.298L193.606 227.111C192.269 226.74 191.661 226.282 191.057 224.64C189.545 220.529 181.843 216.068 175.962 214.364C170.064 212.66 173.475 221.762 173.475 221.762Z" fill="#A08BE8"/>
<path d="M188.725 242.265C188.983 242.428 189.27 242.557 189.603 242.648L193.319 243.677C193.869 243.827 194.435 243.506 194.589 242.957L198.396 229.193C198.505 228.806 198.276 228.402 197.888 228.298L193.602 227.111C193.373 227.048 193.169 226.981 192.977 226.906L188.725 242.265Z" fill="url(#paint6_linear)"/>
<path d="M151.11 206.144L147.586 212.824L148.456 213.283L151.979 206.603L151.11 206.144Z" fill="#A08BE8"/>
<path d="M165.691 211.648L164.096 217.409C163.667 218.954 164.575 220.554 166.12 220.983L172.139 222.649C173.684 223.078 175.283 222.17 175.713 220.625L177.308 214.864C177.737 213.318 176.829 211.719 175.283 211.29L169.265 209.623C167.715 209.194 166.116 210.102 165.691 211.648Z" fill="url(#paint7_radial)"/>
<path d="M158.724 209.296L156.032 216.352L156.951 216.703L159.643 209.646L158.724 209.296Z" fill="#A08BE8"/>
<path d="M98.9387 184.809C94.3569 174.94 94.4569 166.58 94.4569 166.58L92.1077 166.88L92.041 166.842C91.7745 147.693 105.087 131.46 124.393 128.994C146.148 126.22 167.274 141.974 171.585 164.181C175.896 186.388 161.755 206.645 140 209.419C122.835 211.61 106.061 202.258 97.6308 187.308C97.3434 186.667 97.1268 185.475 98.9387 184.809Z" fill="url(#paint8_radial)"/>
<path d="M97.8639 187.758C97.8639 187.758 96.3561 185.754 98.9261 184.813C94.3984 175.065 94.4401 166.797 94.4442 166.597L135.31 161.381C135.31 161.381 137.834 160.786 138.3 163.185C138.767 165.585 139.987 172.383 141.441 179.885C141.741 181.426 140.645 182.33 139.675 182.455L97.7098 187.808C97.8056 187.775 97.8639 187.758 97.8639 187.758Z" fill="url(#paint9_radial)"/>
<path d="M118.536 182.276C118.536 182.276 113.992 179.602 113.113 179.114C112.234 178.627 111.555 178.677 110.972 179.389C110.389 180.097 107.065 183.742 107.065 183.742L118.536 182.276Z" fill="#A08BE8"/>
<path d="M97.8638 187.758C97.8638 187.758 96.356 185.754 98.926 184.813C98.9218 184.805 98.9176 184.792 98.9135 184.784L139.1 179.656C140.033 179.535 141.128 178.814 141.053 177.877C141.183 178.54 141.312 179.21 141.441 179.889C141.712 181.289 140.837 182.159 139.946 182.401C139.858 182.422 139.766 182.447 139.671 182.459L136.926 182.809L97.7097 187.812C97.8055 187.775 97.8638 187.758 97.8638 187.758Z" fill="url(#paint10_radial)"/>
<path d="M102.154 193.911L170.077 185.246C169.065 188.087 167.728 190.766 166.099 193.24L108.965 200.53C106.478 198.58 104.191 196.36 102.154 193.911Z" fill="url(#paint11_linear)"/>
<path d="M132.207 127.315L124.472 127.378L124.934 119.326L130.49 119.284L132.207 127.315Z" fill="#D0C5F3"/>
<path d="M134.643 113.423C134.964 117.53 131.936 120.884 127.879 120.917C123.822 120.95 120.273 117.643 119.952 113.54C119.632 109.436 122.66 106.079 126.717 106.046C130.774 106.012 134.323 109.32 134.643 113.423Z" fill="url(#paint12_radial)"/>
<path d="M135.551 132.21C135.901 132.205 136.155 131.897 136.089 131.547C135.389 127.832 132.053 124.966 128.27 124.995C124.488 125.024 121.602 127.94 121.485 131.66C121.473 132.01 121.777 132.314 122.127 132.314L135.551 132.21Z" fill="url(#paint13_radial)"/>
<path d="M128.636 177.056C130.31 176.7 131.165 174.052 130.545 171.142C129.926 168.233 128.066 166.163 126.392 166.52C124.718 166.876 123.864 169.524 124.483 172.433C125.103 175.343 126.962 177.413 128.636 177.056Z" fill="#512BD4"/>
<path d="M103.956 180.167C105.618 179.765 106.396 177.09 105.694 174.192C104.993 171.295 103.078 169.271 101.417 169.673C99.7558 170.075 98.9776 172.75 99.6788 175.648C100.38 178.546 102.295 180.569 103.956 180.167Z" fill="#512BD4"/>
<path d="M127.025 169.125C126.271 168.563 125.367 168.388 124.559 168.571C124.255 169.554 124.184 170.796 124.422 172.125C124.572 172.954 124.821 173.72 125.146 174.395C126.175 174.553 127.216 174.166 127.829 173.287C128.733 171.995 128.374 170.133 127.025 169.125Z" fill="#8065E0"/>
<path d="M102.191 172.12C101.437 171.558 100.534 171.383 99.7254 171.566C99.3881 172.595 99.3256 173.936 99.6255 175.365C99.7796 176.094 100.009 176.777 100.296 177.39C101.329 177.556 102.383 177.169 102.999 176.282C103.903 174.986 103.541 173.124 102.191 172.12Z" fill="#8065E0"/>
<path d="M127.979 200.242L115.267 201.863L113.038 190.387L125.75 188.762L127.979 200.242Z" fill="#512BD4"/>
<path d="M125.309 196.406C125.405 196.393 125.48 196.352 125.534 196.277C125.588 196.202 125.605 196.118 125.588 196.027C125.571 195.931 125.521 195.856 125.442 195.798C125.363 195.739 125.276 195.714 125.18 195.727C125.084 195.739 125.005 195.781 124.951 195.86C124.896 195.935 124.876 196.023 124.892 196.114C124.909 196.206 124.959 196.281 125.042 196.339C125.121 196.393 125.209 196.418 125.309 196.406Z" fill="white"/>
<path d="M121.456 196.831L122.081 196.752L123.218 193.894C123.247 193.823 123.268 193.748 123.28 193.673H123.293C123.293 193.752 123.322 193.919 123.368 194.173L123.822 196.535L124.376 196.464L123.684 192.857L123.018 192.94L121.922 195.727C121.877 195.843 121.847 195.923 121.835 195.964H121.827C121.822 195.868 121.802 195.706 121.756 195.477L121.31 193.152L120.76 193.219L121.456 196.831Z" fill="white"/>
<path d="M118.765 197.164L120.698 196.922L120.007 193.315L118.149 193.548L118.245 194.056L119.532 193.894L119.728 194.915L118.545 195.06L118.64 195.564L119.823 195.414L120.027 196.481L118.665 196.652L118.765 197.164Z" fill="white"/>
<path d="M115.421 194.41L116.412 194.286L117.003 197.385L117.574 197.314L116.982 194.215L117.97 194.09L117.874 193.582L115.325 193.898L115.421 194.41Z" fill="white"/>
<path d="M100.671 157.366C103.175 149.205 108.769 142.586 116.225 138.85C117.116 138.404 117.557 137.379 117.303 136.359C117.041 135.305 115.879 134.705 114.946 135.151C106.369 139.249 99.9216 146.735 97.0768 156.016C96.7769 156.995 97.3392 158.086 98.3305 158.461C99.3219 158.832 100.372 158.345 100.671 157.366Z" fill="url(#paint14_radial)"/>
<path d="M167.603 165.851C166.674 165.964 165.941 166.705 165.878 167.696C164.779 184.196 154.17 198.109 138.846 203.146C137.75 203.508 137.213 204.716 137.65 205.853C138.088 206.986 139.329 207.615 140.424 207.257C157.269 201.721 168.936 186.425 170.144 168.288C170.223 167.109 169.331 166.018 168.153 165.855C167.961 165.83 167.778 165.83 167.603 165.851Z" fill="url(#paint15_radial)"/>
<path d="M182.698 167.688C184.306 166.276 185.643 164.451 186.343 162.085C188.226 155.699 184.939 147.439 176.284 136.838L170.636 141.395C177.188 149.426 180.212 155.841 179.145 159.461C178.4 161.981 175.438 163.793 170.086 164.997C164.3 166.301 153.137 166.372 153.025 166.372L153.596 173.941C154.087 173.937 165.662 173.866 172.21 172.391C174.234 171.937 179.12 170.833 182.698 167.688Z" fill="url(#paint16_linear)"/>
<path d="M166.503 173.266C166.208 173.295 165.912 173.328 165.616 173.353L164.158 165.843H164.171C164.462 165.818 164.754 165.789 165.045 165.76L166.503 173.266Z" fill="#A08BE8"/>
<path d="M172.689 164.314L173.539 164.031L176.675 171.116C176.392 171.221 176.117 171.316 175.842 171.408L172.689 164.314Z" fill="#A08BE8"/>
<path d="M184.314 148.906C184.452 149.189 184.581 149.472 184.71 149.751L177.845 152.305C177.716 152.03 177.587 151.751 177.441 151.463L184.314 148.906Z" fill="#A08BE8"/>
<path d="M186.797 159.669C186.722 160.503 186.572 161.311 186.338 162.085C186.001 163.223 185.514 164.231 184.926 165.135L178.862 160.161C178.974 159.932 179.199 159.536 179.233 159.211C181.132 159.449 184.681 159.624 186.797 159.669Z" fill="#A08BE8"/>
<path d="M177.629 143.053L173.917 144.952C172.297 145.781 170.227 145.077 169.286 143.378L168.831 142.557C167.894 140.858 168.444 138.812 170.064 137.983L173.776 136.084C175.396 135.255 177.466 135.959 178.407 137.658L178.861 138.479C179.803 140.174 179.249 142.224 177.629 143.053Z" fill="#D0C5F3"/>
<path d="M177.167 137.221L173.455 139.12C171.835 139.949 169.765 139.245 168.824 137.546L168.37 136.725C167.432 135.025 167.982 132.98 169.602 132.151L173.314 130.252C174.934 129.423 177.004 130.127 177.946 131.826L178.4 132.647C179.341 134.346 178.787 136.392 177.167 137.221Z" fill="#D0C5F3"/>
<path d="M176.854 131.739L173.142 133.639C171.522 134.468 169.452 133.764 168.511 132.064L168.057 131.243C167.119 129.544 167.669 127.498 169.29 126.67L173.001 124.77C174.621 123.941 176.691 124.645 177.633 126.345L178.087 127.165C179.028 128.865 178.474 130.91 176.854 131.739Z" fill="#D0C5F3"/>
<path d="M66.9118 147.235L69.84 150.655C70.7647 151.734 72.3892 151.863 73.468 150.938L74.6467 149.93C75.7255 149.005 75.8546 147.381 74.93 146.302L72.0018 142.882C71.0771 141.803 69.4526 141.674 68.3738 142.599L67.1951 143.607C66.1163 144.531 65.9913 146.156 66.9118 147.235Z" fill="#D0C5F3"/>
<path d="M68.7113 142.749L71.6395 146.169C72.5642 147.247 74.1886 147.377 75.2674 146.452L76.4462 145.444C77.525 144.519 77.6541 142.894 76.7294 141.816L73.8013 138.396C72.8766 137.317 71.2521 137.188 70.1733 138.112L68.9945 139.12C67.9116 140.041 67.7866 141.666 68.7113 142.749Z" fill="#D0C5F3"/>
<path d="M70.5355 138.375L73.4637 141.795C74.3884 142.873 76.0129 143.003 77.0917 142.078L78.2704 141.07C79.3492 140.145 79.4784 138.52 78.5537 137.442L75.6255 134.022C74.7008 132.943 73.0763 132.814 71.9975 133.738L70.8188 134.746C69.7358 135.667 69.6108 137.296 70.5355 138.375Z" fill="#D0C5F3"/>
<path d="M158.427 140.503C159.676 141.678 160.863 142.919 161.98 144.236C161.701 144.352 161.422 144.473 161.142 144.602C149.992 149.847 145.331 163.485 150.75 175.003C154.303 182.555 161.326 187.35 168.882 188.275C168.161 189.849 167.332 191.37 166.407 192.815C157.973 191.174 150.325 185.579 146.327 177.082C139.87 163.352 145.306 147.11 158.427 140.503Z" fill="#605D5A"/>
<path d="M149.051 163.993C145.931 166.405 145.527 171.058 148.147 174.386C150.767 177.715 155.416 178.456 158.535 176.044C161.655 173.632 162.059 168.979 159.439 165.651C156.824 162.327 152.171 161.581 149.051 163.993Z" fill="url(#paint17_radial)"/>
<defs>
<radialGradient id="paint0_radial" cx="0" cy="0" r="1" gradientUnits="userSpaceOnUse" gradientTransform="translate(165.919 133.117) rotate(138.66) scale(12.0145 12.9104)">
<stop stop-color="#A08BE8"/>
<stop offset="1" stop-color="#8065E0"/>
</radialGradient>
<linearGradient id="paint1_linear" x1="97.6236" y1="175.954" x2="80.447" y2="167.667" gradientUnits="userSpaceOnUse">
<stop offset="0.2699" stop-color="#958FE7"/>
<stop offset="0.8454" stop-color="#BBB7EF"/>
</linearGradient>
<linearGradient id="paint2_linear" x1="134.371" y1="201.404" x2="148.336" y2="230.697" gradientUnits="userSpaceOnUse">
<stop offset="0.2319" stop-color="#958FE7"/>
<stop offset="0.4062" stop-color="#BBB7EF"/>
</linearGradient>
<linearGradient id="paint3_linear" x1="175.324" y1="255.592" x2="165.359" y2="246.188" gradientUnits="userSpaceOnUse">
<stop stop-color="#958FE7"/>
<stop offset="1" stop-color="#BBB7EF"/>
</linearGradient>
<radialGradient id="paint4_radial" cx="0" cy="0" r="1" gradientUnits="userSpaceOnUse" gradientTransform="translate(152.982 223.517) rotate(176.887) scale(7.16486 7.16545)">
<stop stop-color="#8065E0"/>
<stop offset="1" stop-color="#512BD4"/>
</radialGradient>
<linearGradient id="paint5_linear" x1="144.57" y1="198.467" x2="166.468" y2="222.414" gradientUnits="userSpaceOnUse">
<stop offset="0.2368" stop-color="#958FE7"/>
<stop offset="0.3837" stop-color="#BBB7EF"/>
</linearGradient>
<linearGradient id="paint6_linear" x1="184.459" y1="242.053" x2="195.86" y2="233.505" gradientUnits="userSpaceOnUse">
<stop stop-color="#958FE7"/>
<stop offset="0.9957" stop-color="#BBB7EF"/>
</linearGradient>
<radialGradient id="paint7_radial" cx="0" cy="0" r="1" gradientUnits="userSpaceOnUse" gradientTransform="translate(168.1 212.688) rotate(156.438) scale(10.2514 10.252)">
<stop stop-color="#8065E0"/>
<stop offset="0.0233" stop-color="#7D62DF"/>
<stop offset="0.2367" stop-color="#6A4ADA"/>
<stop offset="0.4623" stop-color="#5C39D7"/>
<stop offset="0.7058" stop-color="#542ED5"/>
<stop offset="1" stop-color="#512BD4"/>
</radialGradient>
<radialGradient id="paint8_radial" cx="0" cy="0" r="1" gradientUnits="userSpaceOnUse" gradientTransform="translate(120.372 163.833) rotate(172.727) scale(50.053 51.5291)">
<stop offset="0.3472" stop-color="#A08BE8"/>
<stop offset="0.684" stop-color="#8065E0"/>
<stop offset="0.7596" stop-color="#8065E0"/>
</radialGradient>
<radialGradient id="paint9_radial" cx="0" cy="0" r="1" gradientUnits="userSpaceOnUse" gradientTransform="translate(125.713 166.609) rotate(138.66) scale(40.0255 43.01)">
<stop offset="0.0933" stop-color="#E1DFDD"/>
<stop offset="0.6573" stop-color="white"/>
</radialGradient>
<radialGradient id="paint10_radial" cx="0" cy="0" r="1" gradientUnits="userSpaceOnUse" gradientTransform="translate(130.104 179.933) rotate(138.66) scale(24.0665 25.861)">
<stop offset="0.1574" stop-color="#512BD4"/>
<stop offset="0.9968" stop-color="#8065E0"/>
</radialGradient>
<linearGradient id="paint11_linear" x1="187.041" y1="185.401" x2="119.392" y2="195.854" gradientUnits="userSpaceOnUse">
<stop offset="0.2368" stop-color="#958FE7"/>
<stop offset="0.8039" stop-color="#BDB9F0"/>
</linearGradient>
<radialGradient id="paint12_radial" cx="0" cy="0" r="1" gradientUnits="userSpaceOnUse" gradientTransform="translate(126.475 110.658) rotate(138.66) scale(7.13154 7.6633)">
<stop stop-color="#A08BE8"/>
<stop offset="1" stop-color="#8065E0"/>
</radialGradient>
<radialGradient id="paint13_radial" cx="0" cy="0" r="1" gradientUnits="userSpaceOnUse" gradientTransform="translate(127.176 128.435) rotate(138.66) scale(5.89207 6.3314)">
<stop stop-color="#8065E0"/>
<stop offset="1" stop-color="#512BD4"/>
</radialGradient>
<radialGradient id="paint14_radial" cx="0" cy="0" r="1" gradientUnits="userSpaceOnUse" gradientTransform="translate(107.183 146.786) rotate(-103.921) scale(11.5546 11.1047)">
<stop offset="0.2632" stop-color="#BDB9F0"/>
<stop offset="0.4345" stop-color="#CEC3E2" stop-opacity="0.7675"/>
<stop offset="0.7974" stop-color="#EDD6C9" stop-opacity="0.2749"/>
<stop offset="1" stop-color="#F9DDBF" stop-opacity="0"/>
</radialGradient>
<radialGradient id="paint15_radial" cx="0" cy="0" r="1" gradientUnits="userSpaceOnUse" gradientTransform="translate(153.895 186.575) rotate(-6.95224) scale(18.9783 19.5235)">
<stop stop-color="#BDB9F0"/>
<stop offset="0.2968" stop-color="#C3BCEB" stop-opacity="0.4"/>
<stop offset="0.4132" stop-color="#CEC3E2" stop-opacity="0.3338"/>
<stop offset="0.7899" stop-color="#EDD6C9" stop-opacity="0.1195"/>
<stop offset="1" stop-color="#F9DDBF" stop-opacity="0"/>
</radialGradient>
<linearGradient id="paint16_linear" x1="154.078" y1="174.43" x2="185.273" y2="146.994" gradientUnits="userSpaceOnUse">
<stop offset="0.3021" stop-color="#958FE7"/>
<stop offset="0.4799" stop-color="#BBB7EF"/>
</linearGradient>
<radialGradient id="paint17_radial" cx="0" cy="0" r="1" gradientUnits="userSpaceOnUse" gradientTransform="translate(152.031 166.204) rotate(138.66) scale(13.5733 14.5854)">
<stop stop-color="#8065E0"/>
<stop offset="0.6947" stop-color="#512BD4"/>
</radialGradient>
</defs>
</svg>
