<svg width="226" height="237" viewBox="0 0 226 237" fill="none" xmlns="http://www.w3.org/2000/svg">
<path d="M115.457 186.293C115.566 176.252 114.136 155.867 103.772 138.799L93.6368 144.953C103.041 160.434 103.749 178.5 103.53 186.383C103.511 187.039 109.593 187.628 115.457 186.293Z" fill="url(#paint0_linear)"/>
<path d="M103.535 186.274L112.919 186.231L121.681 236.424L102.846 236.509C101.411 236.514 100.327 235.359 100.422 233.924L103.535 186.274Z" fill="#522CD5"/>
<path d="M141.762 223.223C143.387 224.506 143.364 226.364 143.235 228.327L142.841 234.342C142.77 235.416 141.834 236.3 140.755 236.305L121.13 236.395C119.909 236.4 118.987 235.416 119.063 234.195L119.196 227.961C119.344 225.694 118.583 224.863 116.83 222.734C113.827 219.084 104.946 199.208 105.792 186.264L115.457 186.221C116.098 193.905 126.238 210.978 141.762 223.223Z" fill="url(#paint1_linear)"/>
<path d="M143.235 228.327C143.326 226.958 143.349 225.642 142.812 224.53L118.327 224.639C119.006 225.637 119.291 226.502 119.192 227.956L119.059 234.19C118.978 235.411 119.904 236.395 121.121 236.39L140.75 236.3C141.829 236.295 142.765 235.411 142.836 234.338L143.235 228.327Z" fill="url(#paint2_radial)"/>
<path d="M63.6913 186.516C63.4869 176.476 64.7319 156.081 74.9434 138.918L85.1358 144.981C75.8747 160.548 75.333 178.619 75.6229 186.502C75.6466 187.153 69.5692 187.799 63.6913 186.516Z" fill="url(#paint3_linear)"/>
<path d="M53.4227 226.982C53.4085 225.642 53.6033 224.463 54.1735 222.506C62.9404 198.547 63.6817 186.464 63.6817 186.464L75.6323 186.412C75.6323 186.412 76.4496 198.262 85.4351 222.14C86.1431 223.841 86.2287 225.395 86.319 226.835L86.3712 234.499C86.376 235.654 85.4351 236.604 84.2805 236.609L83.7055 236.614L56.136 236.737L55.561 236.742C54.4016 236.747 53.456 235.811 53.4512 234.651L53.4227 226.982Z" fill="url(#paint4_linear)"/>
<path d="M53.4227 226.982C53.4227 226.768 53.4275 226.554 53.437 226.345C53.4988 225.68 53.8029 224.929 55.2617 224.92L84.7414 224.787C85.8058 224.825 86.1574 225.642 86.2667 226.155C86.2809 226.383 86.3 226.611 86.3142 226.835L86.3665 234.499C86.3712 235.221 86.0053 235.863 85.4446 236.243C85.112 236.471 84.7081 236.604 84.2757 236.609L83.696 236.614L56.1265 236.737L55.5515 236.742C54.9718 236.747 54.4444 236.514 54.0642 236.134C53.6841 235.754 53.4465 235.231 53.4417 234.651L53.4227 226.982Z" fill="url(#paint5_radial)"/>
<path d="M170.629 150.921C169.954 150.926 169.303 150.902 168.666 150.859C142.408 149.106 135.466 109.419 135.186 107.728L146.88 105.76C146.932 106.083 152.796 137.911 169.46 139.022C179.448 139.697 184.323 130.056 185.92 126.891C189.636 119.536 190.905 111.743 190.919 111.662L202.632 113.496C202.575 113.881 201.121 122.971 196.64 131.966C189.009 147.286 178.626 150.888 170.629 150.921Z" fill="#8A6FE8"/>
<path d="M145.564 113.805C149.712 97.5875 146.927 84.6675 146.927 84.6675L150.738 84.6485L150.833 84.5725C145.241 54.8694 119.097 32.465 87.7922 32.6075C52.5201 32.7691 24.062 61.4886 24.2188 96.7607C24.3803 132.028 53.0998 160.491 88.3671 160.329C116.198 160.201 139.786 142.292 148.42 117.412C148.671 116.357 148.638 114.461 145.564 113.805Z" fill="url(#paint6_radial)"/>
<path d="M143.425 128.555L33.1567 129.058C35.6466 133.244 38.6022 137.122 41.9522 140.619L134.73 140.196C138.051 136.666 140.974 132.765 143.425 128.555Z" fill="#D8CFF7"/>
<path d="M204.994 133.064L156.307 133.287C154.754 133.292 153.827 131.866 154.236 130.094L162.361 94.8172C162.77 93.0448 164.357 91.605 165.911 91.5955L214.597 91.3722C216.151 91.3675 217.077 92.793 216.669 94.5654L208.543 129.842C208.135 131.619 206.543 133.059 204.994 133.064Z" fill="#605D5A"/>
<path d="M212.858 129.319L207.821 129.343C204.661 129.357 202.09 126.811 202.076 123.651C202.062 120.491 204.609 117.92 207.769 117.906L212.805 117.882C215.965 117.868 218.536 120.415 218.55 123.575C218.564 126.735 216.013 129.305 212.858 129.319Z" fill="#8A6FE8"/>
<path d="M217.614 119.336L210.334 119.369C207.174 119.384 204.604 116.837 204.59 113.677C204.575 110.517 207.122 107.946 210.282 107.932L217.562 107.899C220.722 107.884 223.292 110.431 223.307 113.591C223.321 116.751 220.774 119.322 217.614 119.336Z" fill="#8A6FE8"/>
<path d="M219.377 110.498L214.34 110.522C211.18 110.536 208.61 107.989 208.595 104.829C208.581 101.669 211.128 99.0985 214.288 99.0842L219.325 99.0605C222.485 99.0462 225.055 101.593 225.07 104.753C225.084 107.913 222.532 110.484 219.377 110.498Z" fill="#8A6FE8"/>
<path d="M109.505 143.79L130.198 143.696L130.115 125.392L109.421 125.486L109.505 143.79Z" fill="#512BD4"/>
<path d="M113.081 136.946C112.943 136.946 112.824 136.899 112.729 136.808C112.634 136.713 112.582 136.604 112.582 136.476C112.582 136.343 112.629 136.229 112.724 136.138C112.819 136.043 112.938 135.996 113.076 135.996C113.214 135.996 113.333 136.043 113.432 136.138C113.532 136.233 113.58 136.347 113.58 136.476C113.58 136.604 113.532 136.718 113.432 136.813C113.337 136.898 113.219 136.946 113.081 136.946Z" fill="white"/>
<path d="M118.583 136.856H117.69L115.324 133.14C115.262 133.045 115.214 132.95 115.176 132.845H115.157C115.176 132.955 115.186 133.187 115.186 133.539L115.19 136.856H114.397L114.387 131.795H115.343L117.628 135.421C117.723 135.573 117.785 135.673 117.813 135.73H117.828C117.804 135.597 117.794 135.368 117.79 135.05L117.785 131.79H118.574L118.583 136.856Z" fill="white"/>
<path d="M122.437 136.851L119.667 136.856L119.657 131.795L122.318 131.79V132.503L120.479 132.508L120.484 133.943L122.18 133.938V134.646L120.484 134.651L120.489 136.148L122.442 136.143L122.437 136.851Z" fill="white"/>
<path d="M126.367 132.494L124.951 132.498L124.96 136.846H124.143L124.133 132.498L122.717 132.503V131.79L126.367 131.781V132.494Z" fill="white"/>
<path d="M143.658 64.9858L32.2634 65.4943C30.6906 68.3216 29.3268 71.2724 28.1912 74.3372L147.816 73.7908C146.657 70.7354 145.255 67.7989 143.658 64.9858Z" fill="#605D5A"/>
<path d="M147.426 138.324L144.898 136.404C147.098 133.506 151.451 117.606 148.358 105.974C146.956 100.709 144.209 97.174 140.199 95.4729L141.439 92.5506C146.4 94.6556 149.759 98.8989 151.423 105.157C154.73 117.583 150.163 134.713 147.426 138.324Z" fill="#605D5A"/>
<path d="M146.828 142.748C149.68 142.748 151.993 140.435 151.993 137.583C151.993 134.73 149.68 132.418 146.828 132.418C143.975 132.418 141.662 134.73 141.662 137.583C141.662 140.435 143.975 142.748 146.828 142.748Z" fill="#605D5A"/>
<path d="M146.823 140.41C148.306 140.41 149.508 139.208 149.508 137.725C149.508 136.243 148.306 135.041 146.823 135.041C145.34 135.041 144.138 136.243 144.138 137.725C144.138 139.208 145.34 140.41 146.823 140.41Z" fill="#72ACF1"/>
<path d="M145.697 113.805C149.793 97.787 147.132 84.9906 147.065 84.6818L80.8118 84.9811C80.8118 84.9811 76.635 84.5772 76.654 88.3881C76.673 92.199 76.8773 102.971 76.9296 114.889C76.9391 117.34 78.9538 118.509 80.5314 118.505C80.5314 118.505 144.048 116.452 145.697 113.805Z" fill="url(#paint7_radial)"/>
<path d="M113.893 113.895C113.893 113.895 120.237 108.825 121.477 107.889C122.717 106.953 123.801 106.896 124.946 107.875C126.091 108.854 132.487 113.815 132.487 113.815L113.893 113.895Z" fill="#A08BE8"/>
<path d="M148.167 118.224C148.167 118.224 150.059 114.736 145.697 113.805C145.701 113.786 80.5551 114.052 80.5551 114.052C79.0393 114.057 77.0863 113.164 76.9105 111.695C76.9153 112.75 76.9248 113.815 76.9295 114.888C76.939 117.112 78.5974 118.281 80.0847 118.471C80.232 118.49 80.384 118.505 80.5361 118.505L84.9885 118.486L148.167 118.224Z" fill="#512BD4"/>
<path d="M96.5678 107.874C99.3254 107.82 101.488 104.018 101.397 99.3821C101.307 94.7459 98.998 91.0311 96.2404 91.0849C93.4828 91.1387 91.3206 94.9407 91.411 99.5769C91.5015 104.213 93.8102 107.928 96.5678 107.874Z" fill="#512BD4"/>
<path d="M141.619 99.326C141.667 94.6893 139.471 90.9073 136.713 90.8786C133.955 90.8499 131.68 94.5855 131.632 99.2222C131.584 103.859 133.78 107.641 136.538 107.67C139.296 107.698 141.571 103.963 141.619 99.326Z" fill="#512BD4"/>
<path d="M96.3404 95.2781C97.3573 94.2517 98.7305 93.8003 100.061 93.9143C100.85 95.3731 101.354 97.2833 101.392 99.3883C101.415 100.7 101.258 101.94 100.959 103.052C99.3815 103.508 97.6139 103.123 96.3689 101.888C94.5395 100.068 94.5253 97.1122 96.3404 95.2781Z" fill="#8065E0"/>
<path d="M136.545 94.8219C137.562 93.7955 138.935 93.3394 140.27 93.4582C141.125 94.9787 141.648 97.0457 141.624 99.3171C141.61 100.476 141.458 101.584 141.197 102.586C139.614 103.057 137.833 102.672 136.573 101.427C134.739 99.6117 134.73 96.6561 136.545 94.8219Z" fill="#8065E0"/>
<path d="M147.341 107.134L140.964 115.886L139.372 129.205L146.343 129.799" stroke="#A3C9F6" stroke-width="2" stroke-miterlimit="10" stroke-linecap="round" stroke-linejoin="round"/>
<path d="M49.4314 151.914C49.4171 151.919 49.3981 151.919 49.3839 151.924C49.1891 151.952 44.6274 152.565 42.2135 150.189C40.883 148.882 35.5849 139.721 35.3568 139.336C35.2095 139.084 35.295 138.761 35.5516 138.614C35.8082 138.467 36.1266 138.552 36.2739 138.809C37.7849 141.427 41.9379 148.436 42.9548 149.438C44.9933 151.448 49.1938 150.888 49.2366 150.878C49.5264 150.835 49.7925 151.04 49.8353 151.33C49.8686 151.6 49.6927 151.852 49.4314 151.914Z" fill="#A3C9F6"/>
<path d="M50.5004 152.708C51.3061 152.708 51.9592 152.054 51.9592 151.249C51.9592 150.443 51.3061 149.79 50.5004 149.79C49.6947 149.79 49.0416 150.443 49.0416 151.249C49.0416 152.054 49.6947 152.708 50.5004 152.708Z" fill="#605D5A"/>
<path d="M53.3896 149.039C53.266 149.063 53.1377 149.049 53.0189 148.982C52.7671 148.835 52.6768 148.512 52.8241 148.26C52.8431 148.222 54.9244 144.535 53.8125 141.893C53.2565 140.576 48.2862 134.124 46.414 131.748C46.2335 131.52 46.2715 131.187 46.5043 131.006C46.7324 130.831 47.065 130.864 47.2456 131.097C47.5259 131.448 54.0643 139.769 54.7866 141.489C56.098 144.615 53.8362 148.621 53.7412 148.792C53.6652 148.92 53.5369 149.006 53.3896 149.039Z" fill="#A3C9F6"/>
<path d="M52.7054 151.03C53.511 151.03 54.1641 150.377 54.1641 149.571C54.1641 148.766 53.511 148.113 52.7054 148.113C51.8997 148.113 51.2466 148.766 51.2466 149.571C51.2466 150.377 51.8997 151.03 52.7054 151.03Z" fill="#605D5A"/>
<path d="M40.9353 124.439C39.2532 123.983 37.6186 124.131 36.0505 124.872C35.219 125.19 34.7248 126.297 33.4704 126.758C32.5675 127.751 31.9878 128.944 31.7502 130.317C30.8189 135.768 35.851 142.192 36.0696 142.463C36.464 142.957 37.0959 143.157 37.6756 143.023C37.8942 142.971 38.108 142.871 38.2981 142.724C38.9824 142.182 39.1012 141.185 38.5595 140.496C37.343 138.956 34.3067 134.214 34.8816 130.85C35.0859 129.666 35.7274 128.749 36.8441 128.041C37.9085 127.371 38.9729 127.191 40.099 127.5C43.3397 128.379 46.338 133.002 47.2219 134.708C47.6258 135.487 48.5809 135.796 49.3601 135.387C50.1394 134.988 50.4435 134.033 50.0444 133.254C49.8876 132.955 46.1907 125.875 40.9353 124.439Z" fill="#605D5A"/>
<path d="M90.1394 113.04L49.4836 95.088L45.4827 115.197L90.225 131.572" stroke="#A3C9F6" stroke-width="2" stroke-miterlimit="10"/>
<path d="M97.6378 76.6846C108.308 76.6846 116.958 68.0345 116.958 57.3641C116.958 46.6936 108.308 38.0435 97.6378 38.0435C86.9674 38.0435 78.3173 46.6936 78.3173 57.3641C78.3173 68.0345 86.9674 76.6846 97.6378 76.6846Z" fill="white"/>
<path d="M97.6378 74.6936C107.209 74.6936 114.967 66.9349 114.967 57.364C114.967 47.7932 107.209 40.0345 97.6378 40.0345C88.0669 40.0345 80.3082 47.7932 80.3082 57.364C80.3082 66.9349 88.0669 74.6936 97.6378 74.6936Z" fill="url(#paint8_radial)"/>
<path d="M97.6377 63.28C100.905 63.28 103.554 60.6313 103.554 57.3641C103.554 54.0968 100.905 51.4482 97.6377 51.4482C94.3704 51.4482 91.7218 54.0968 91.7218 57.3641C91.7218 60.6313 94.3704 63.28 97.6377 63.28Z" fill="#B3AFAB"/>
<path d="M81.1444 29.2766L93.0712 29.1768L91.0138 7.56592L82.4511 7.63244L81.1444 29.2766Z" fill="#8A6FE8"/>
<path d="M88.9134 16.119C84.575 17.2737 80.0989 14.7315 78.9062 10.4312C77.7183 6.1309 80.2652 1.71654 84.6036 0.561874C88.9419 -0.592797 93.418 1.94938 94.6107 6.2497C95.8034 10.55 93.2565 14.9596 88.9134 16.119Z" fill="#D8CFF7"/>
<path d="M76.6778 36.7178C76.1456 36.7178 75.6942 36.2664 75.7607 35.739C76.3214 30.1367 81.0589 25.7366 86.8892 25.689C92.7196 25.6415 97.5759 29.9561 98.2839 35.5536C98.3504 36.0858 97.9228 36.5468 97.3906 36.542L76.6778 36.7178Z" fill="#522CD5"/>
<path d="M8.67578 163.751C8.34791 162.71 0.840176 138.086 13.0474 119.474C20.0989 108.721 31.9925 102.387 48.405 100.633L49.6642 112.422C36.9818 113.777 28.0106 118.319 22.9975 125.927C13.8552 139.802 19.9374 160.011 19.9992 160.215L8.67578 163.751Z" fill="url(#paint9_linear)"/>
<path d="M24.0477 90.7164C24.1997 90.3126 24.3945 89.9372 24.5894 89.5665C24.8174 87.6706 25.1596 85.5988 25.5967 83.4843C23.5202 85.0619 21.9759 87.0814 21.0303 89.5665C18.3884 96.4945 20.194 110.574 33.9788 127.447L36.4829 125.404C24.3945 110.607 21.5292 97.3214 24.0477 90.7164Z" fill="#605D5A"/>
<path d="M86.799 111.876C86.799 111.876 111.541 100.828 120.289 100.785C129.037 100.747 144.661 111.61 144.661 111.61C144.661 111.61 141.81 123.275 146.443 129.88C141.776 137.611 130.463 153.549 116.06 153.615C98.5405 153.696 90.8902 138.467 85.5303 130.156C89.3412 122.382 86.799 111.876 86.799 111.876Z" fill="#A3C9F6"/>
<path d="M94.5205 121.318C94.5205 121.318 114.193 116.699 122.299 116.661C130.406 116.623 141.948 120.838 141.948 120.838C141.948 120.838 135.628 119.602 122.313 119.664C108.999 119.726 94.5205 121.318 94.5205 121.318Z" fill="#3E8EED"/>
<path d="M142 134.147C142 134.147 133.366 144.116 121.715 144.169C109.232 144.226 94.5776 134.608 94.5776 134.608C94.5776 134.608 108.391 141.208 121.705 141.147C135.01 141.09 142 134.147 142 134.147Z" fill="#3E8EED"/>
<path d="M46.3617 116.718C52.8385 116.718 58.0889 111.467 58.0889 104.991C58.0889 98.5138 52.8385 93.2634 46.3617 93.2634C39.8849 93.2634 34.6344 98.5138 34.6344 104.991C34.6344 111.467 39.8849 116.718 46.3617 116.718Z" fill="url(#paint10_radial)"/>
<path d="M7.88232 168.383L8.55232 180.077C8.75189 183.199 11.4319 185.551 14.5538 185.352C17.6756 185.152 20.0277 182.472 19.8282 179.35L19.1439 167.362L7.88232 168.383Z" fill="#8A6FE8"/>
<path d="M2.54132 161.223L0.920985 172.817C0.507584 175.915 2.68388 178.747 5.77725 179.165C8.87538 179.579 11.7074 177.402 12.1256 174.309L13.7887 162.415L2.54132 161.223Z" fill="#8A6FE8"/>
<path d="M13.4324 163.974L19.3768 189.605C20.1133 192.641 23.1782 194.494 26.2003 193.762C29.2366 193.026 31.0898 189.961 30.358 186.939L24.3471 161.018L13.4324 163.974Z" fill="#8A6FE8"/>
<path d="M19.7949 202.487L15.6181 207.219C15.3235 207.547 14.8484 207.657 14.4397 207.476C14.0311 207.3 13.7887 206.882 13.8362 206.445L14.4825 200.168C14.4967 200.063 14.5157 199.963 14.5632 199.864L35.0432 153.164C35.2713 152.646 35.8748 152.413 36.3879 152.641L39.9137 154.195C40.4317 154.423 40.6645 155.026 40.4364 155.54L19.9565 202.24C19.928 202.33 19.8662 202.415 19.7949 202.487Z" fill="#E1EA95"/>
<path d="M17.362 199.868L14.4492 207.485C14.0406 207.31 13.7982 206.892 13.8458 206.454L14.492 200.177C14.5062 200.073 14.5253 199.973 14.5728 199.873L35.0527 153.173C35.2808 152.655 35.8843 152.422 36.3975 152.651L37.6424 153.197L17.362 199.868Z" fill="#C5D43B"/>
<path d="M14.4967 200.168L19.8947 202.344C19.8662 202.392 19.8329 202.444 19.7997 202.487L15.6229 207.219C15.3283 207.547 14.8531 207.657 14.4445 207.476C14.0358 207.3 13.7935 206.882 13.841 206.445L14.4967 200.168Z" fill="#B3AFAB"/>
<path d="M13.6414 161.132L31.5364 174.527C34.0738 176.333 37.6091 175.753 39.4147 173.216C41.2204 170.679 40.6407 167.143 38.1033 165.338L19.9754 151.767L13.6414 161.132Z" fill="#8A6FE8"/>
<path d="M3.90038 153.33C0.583674 158.956 2.46061 166.207 8.08666 169.519C13.7127 172.836 20.9638 170.959 24.2758 165.333C27.5925 159.707 25.7156 152.456 20.0895 149.144C14.4682 145.827 7.21709 147.699 3.90038 153.33Z" fill="url(#paint11_radial)"/>
<defs>
<linearGradient id="paint0_linear" x1="100.336" y1="139.528" x2="110.381" y2="187.372" gradientUnits="userSpaceOnUse">
<stop offset="0.2631" stop-color="#522CD5"/>
<stop offset="0.6475" stop-color="#8A6FE8"/>
</linearGradient>
<linearGradient id="paint1_linear" x1="108.008" y1="185.013" x2="137.851" y2="238.219" gradientUnits="userSpaceOnUse">
<stop stop-color="#522CD5"/>
<stop offset="0.4397" stop-color="#8A6FE8"/>
</linearGradient>
<radialGradient id="paint2_radial" cx="0" cy="0" r="1" gradientUnits="userSpaceOnUse" gradientTransform="translate(130.209 214.531) rotate(-0.260742) scale(20.6824)">
<stop offset="0.034" stop-color="#522CD5"/>
<stop offset="0.9955" stop-color="#8A6FE8"/>
</radialGradient>
<linearGradient id="paint3_linear" x1="78.3762" y1="139.594" x2="68.7653" y2="187.526" gradientUnits="userSpaceOnUse">
<stop offset="0.298" stop-color="#522CD5"/>
<stop offset="0.617" stop-color="#8A6FE8"/>
</linearGradient>
<linearGradient id="paint4_linear" x1="69.6806" y1="186.438" x2="69.9092" y2="236.675" gradientUnits="userSpaceOnUse">
<stop stop-color="#522CD5"/>
<stop offset="0.4397" stop-color="#8A6FE8"/>
</linearGradient>
<radialGradient id="paint5_radial" cx="0" cy="0" r="1" gradientUnits="userSpaceOnUse" gradientTransform="translate(70.5338 214.742) rotate(179.739) scale(22.6747)">
<stop offset="0.034" stop-color="#522CD5"/>
<stop offset="0.9955" stop-color="#8A6FE8"/>
</radialGradient>
<radialGradient id="paint6_radial" cx="0" cy="0" r="1" gradientUnits="userSpaceOnUse" gradientTransform="translate(85.082 79.3608) rotate(179.739) scale(63.5982)">
<stop offset="0.4744" stop-color="#A08BE8"/>
<stop offset="0.8618" stop-color="#8065E0"/>
</radialGradient>
<radialGradient id="paint7_radial" cx="0" cy="0" r="1" gradientUnits="userSpaceOnUse" gradientTransform="translate(116.107 74.8897) rotate(179.739) scale(65.908)">
<stop offset="0.0933" stop-color="#E1DFDD"/>
<stop offset="0.6573" stop-color="white"/>
</radialGradient>
<radialGradient id="paint8_radial" cx="0" cy="0" r="1" gradientUnits="userSpaceOnUse" gradientTransform="translate(91.8054 42.378) rotate(-0.260742) scale(35.53)">
<stop offset="0.0933" stop-color="#E1DFDD"/>
<stop offset="0.6573" stop-color="white"/>
</radialGradient>
<linearGradient id="paint9_linear" x1="27.876" y1="100.634" x2="27.876" y2="163.749" gradientUnits="userSpaceOnUse">
<stop offset="0.1405" stop-color="#9780E6"/>
<stop offset="1" stop-color="#8A6FE8"/>
</linearGradient>
<radialGradient id="paint10_radial" cx="0" cy="0" r="1" gradientUnits="userSpaceOnUse" gradientTransform="translate(44.1956 101.046) rotate(-0.260742) scale(11.7293)">
<stop stop-color="#8065E0"/>
<stop offset="1" stop-color="#512BD4"/>
</radialGradient>
<radialGradient id="paint11_radial" cx="0" cy="0" r="1" gradientUnits="userSpaceOnUse" gradientTransform="translate(11.6149 154.927) rotate(-20.4494) scale(17.7321)">
<stop stop-color="#8065E0"/>
<stop offset="1" stop-color="#512BD4"/>
</radialGradient>
</defs>
</svg>
