<svg width="344" height="346" viewBox="0 0 344 346" fill="none" xmlns="http://www.w3.org/2000/svg">
<path d="M163.291 129.035C163.291 129.035 142.705 151.916 136.832 168.185C130.959 184.458 122.166 197.265 114.932 204.646C107.699 212.028 99.1618 224.749 94.4512 235.592C89.7406 246.436 80.6334 263.683 74.0458 269.166C67.4581 274.649 59.062 287.463 57.4449 293.885C55.8314 300.306 48.0814 311.222 44.8761 314.279C41.6743 317.34 29.6433 334.475 26.687 342.341C23.7307 350.206 30.5998 341.55 34.4044 339.403C38.209 337.255 45.3995 332.678 48.6265 323.184C51.8536 313.691 56.9829 303.125 64.0434 296.917C71.1039 290.712 80.6515 280.717 86.0046 267.974C91.3614 255.232 102.779 238.725 111.193 229.539C119.611 220.352 130.089 207.101 135.381 193.543C140.673 179.985 147.542 171.333 156.314 161.605C165.085 151.877 172.023 133.98 172.023 133.98L163.291 129.035Z" fill="url(#paint0_linear)"/>
<path d="M137.323 112.889C137.323 112.889 116.737 135.77 110.865 152.039C104.992 168.311 96.1985 181.119 88.9647 188.5C81.7309 195.882 73.1941 208.603 68.4835 219.446C63.7729 230.289 54.6657 247.536 48.078 253.02C41.4904 258.503 33.0943 271.317 31.4772 277.739C29.8636 284.16 22.1137 295.076 18.9083 298.133C15.7065 301.194 3.67551 318.329 0.719193 326.195C-2.23712 334.06 4.63207 325.404 8.43666 323.256C12.2413 321.105 19.4317 316.532 22.6587 307.038C25.8858 297.545 31.0151 286.979 38.0756 280.771C45.1362 274.566 54.6837 264.57 60.0368 251.828C65.3936 239.086 76.811 222.579 85.2251 213.393C93.6429 204.206 104.122 190.955 109.413 177.397C114.705 163.839 121.574 155.187 130.346 145.459C139.117 135.731 146.055 117.834 146.055 117.834L137.323 112.889Z" fill="url(#paint1_linear)"/>
<path d="M172.081 137.359L161.436 130.331C160.588 129.771 160.48 128.63 161.216 128.002L169.381 121.01C169.912 120.556 170.72 120.52 171.33 120.924L177.687 125.122C178.301 125.526 178.553 126.262 178.301 126.901L174.424 136.723C174.074 137.608 172.929 137.918 172.081 137.359Z" fill="url(#paint2_linear)"/>
<path d="M178.507 127.569L168.475 120.946C167.353 120.206 167.042 118.773 167.779 117.744L187.094 90.7651C187.83 89.7363 189.336 89.5053 190.458 90.2453L200.49 96.869C201.612 97.609 201.923 99.0421 201.186 100.071L181.871 127.049C181.135 128.078 179.626 128.309 178.507 127.569Z" fill="white"/>
<path d="M145.846 120.216L135.201 113.188C134.353 112.629 134.244 111.488 134.981 110.86L143.146 103.868C143.676 103.413 144.485 103.377 145.095 103.781L151.452 107.98C152.065 108.384 152.318 109.12 152.065 109.759L148.189 119.581C147.842 120.465 146.698 120.776 145.846 120.216Z" fill="url(#paint3_radial)"/>
<path d="M152.271 110.427L142.24 103.803C141.117 103.063 140.807 101.63 141.543 100.601L160.859 73.6228C161.595 72.594 163.1 72.363 164.223 73.103L174.254 79.7267C175.377 80.4667 175.687 81.8997 174.951 82.9285L155.636 109.907C154.899 110.936 153.394 111.167 152.271 110.427Z" fill="white"/>
<path d="M174.254 79.7267L171.013 77.5862L152.029 104.099C151.293 105.128 149.788 105.359 148.665 104.619L141.879 100.136L141.547 100.601C140.811 101.63 141.125 103.063 142.244 103.803L152.275 110.427C153.397 111.167 154.903 110.936 155.639 109.907L174.954 82.9285C175.687 81.9033 175.377 80.4667 174.254 79.7267Z" fill="#E1DFDD"/>
<path d="M200.486 96.8689L197.244 94.7284L178.261 121.241C177.524 122.27 176.019 122.501 174.897 121.761L170.092 118.588L168.11 117.278L167.778 117.744C167.042 118.772 167.356 120.205 168.475 120.945L178.506 127.569C179.629 128.309 181.134 128.078 181.87 127.049L201.186 100.071C201.922 99.0419 201.608 97.6089 200.486 96.8689Z" fill="#E1DFDD"/>
<path d="M186.346 178.776L180.683 167.485C180.957 167.348 208.715 153.18 216.512 133.529L228.254 138.189C218.671 162.341 187.664 178.119 186.346 178.776Z" fill="url(#paint4_linear)"/>
<path d="M156.339 193.688L170.507 213.736C170.507 213.736 170.702 220.605 169.334 223.446C168.287 225.619 164.382 228.308 162.602 229.456C162.104 229.777 161.447 229.647 161.104 229.167L147.38 209.873C146.94 209.252 147.088 208.393 147.709 207.96C149.856 206.455 154.141 202.845 154.863 201.116C155.946 198.528 156.339 193.688 156.339 193.688Z" fill="#D0C5F3"/>
<path d="M175.077 171.156C159.581 176.661 140.258 192.731 139.287 193.655C137.944 194.936 137.042 195.886 138.562 198.012C140.449 200.658 148.564 212.017 148.564 212.017L180.358 180.306L175.077 171.156Z" fill="#8065E0"/>
<path d="M181.481 184.324C175.803 189.72 171.428 202.354 170.663 220.919C170.572 223.088 169.941 224.626 168.323 225.777L163.154 229.466C162.389 230.011 161.328 229.835 160.783 229.069L147.106 209.916C146.72 209.375 146.846 208.624 147.384 208.238L153.351 203.979C155.21 202.65 155.895 201.596 155.903 198.712C155.917 191.493 165.317 180.231 173.46 174.267C181.603 168.304 181.481 184.324 181.481 184.324Z" fill="#A08BE8"/>
<path d="M169.468 224.687C169.157 225.084 168.785 225.445 168.323 225.774L163.154 229.463C162.389 230.008 161.328 229.831 160.783 229.066L147.106 209.913C146.719 209.371 146.846 208.621 147.387 208.234L153.354 203.975C153.672 203.748 153.953 203.527 154.206 203.307L169.468 224.687Z" fill="url(#paint5_linear)"/>
<path d="M206.193 148.712L215.423 157.056L216.513 155.851L207.283 147.507L206.193 148.712Z" fill="#A08BE8"/>
<path d="M186.491 162.417L194.854 174.13C195.663 175.26 195.4 176.834 194.27 177.639L182.203 186.255C181.073 187.064 179.499 186.8 178.694 185.67L170.33 173.957C169.522 172.827 169.785 171.253 170.915 170.448L182.982 161.832C184.116 161.024 185.686 161.287 186.491 162.417Z" fill="url(#paint6_radial)"/>
<path d="M196.039 157.75L204.195 167.147L205.422 166.082L197.265 156.686L196.039 157.75Z" fill="#A08BE8"/>
<path d="M199.518 126.179C207.105 118.964 214.541 110.532 221.436 101.107C250.663 61.1333 259.048 18.4201 240.159 5.71048C221.27 -6.99916 182.267 15.0956 153.036 55.0727C146.893 63.4724 141.673 71.9948 137.432 80.3331C136.551 82.0658 137.114 84.181 138.724 85.2639L199.518 126.179Z" fill="#F7B548"/>
<path d="M203.135 108.933C209.094 103.262 214.939 96.638 220.353 89.2346C243.314 57.8304 249.902 24.275 235.062 14.2906C220.223 4.3027 189.581 21.6652 166.62 53.0729C161.793 59.6714 157.693 66.3673 154.361 72.9189C153.668 74.2797 154.112 75.9401 155.375 76.792L203.135 108.933Z" fill="url(#paint7_radial)"/>
<path d="M167.453 167.633L161.111 156.706C161.378 156.551 188.219 140.723 194.807 120.631L206.813 124.569C198.716 149.26 168.727 166.893 167.453 167.633Z" fill="url(#paint8_linear)"/>
<path d="M138.409 184.342L153.772 203.488C153.772 203.488 154.386 210.332 153.195 213.252C152.281 215.483 148.545 218.406 146.838 219.659C146.361 220.009 145.697 219.919 145.325 219.46L130.454 201.037C129.977 200.445 130.071 199.578 130.667 199.106C132.717 197.474 136.774 193.608 137.391 191.839C138.312 189.197 138.409 184.342 138.409 184.342Z" fill="#D0C5F3"/>
<path d="M155.743 160.713C140.611 167.149 122.303 184.371 121.39 185.349C120.127 186.71 119.286 187.713 120.928 189.742C122.975 192.269 131.764 203.116 131.764 203.116L161.569 169.528L155.743 160.713Z" fill="#8065E0"/>
<path d="M162.933 173.463C157.595 179.195 153.996 192.074 154.361 210.649C154.404 212.819 153.866 214.393 152.325 215.642L147.39 219.641C146.661 220.233 145.589 220.121 144.997 219.392L130.179 201.105C129.761 200.589 129.84 199.831 130.356 199.416L136.052 194.799C137.825 193.363 138.449 192.265 138.279 189.388C137.857 182.184 146.549 170.369 154.317 163.919C162.085 157.468 162.933 173.463 162.933 173.463Z" fill="#A08BE8"/>
<path d="M153.4 214.486C153.115 214.901 152.765 215.288 152.325 215.641L147.39 219.641C146.661 220.233 145.589 220.121 144.997 219.392L130.179 201.105C129.761 200.589 129.84 199.831 130.356 199.416L136.052 194.799C136.356 194.554 136.623 194.316 136.861 194.081L153.4 214.486Z" fill="url(#paint9_linear)"/>
<path d="M185.416 136.406L195.138 144.172L196.152 142.903L186.43 135.137L185.416 136.406Z" fill="#A08BE8"/>
<path d="M166.601 151.292L175.661 162.475C176.535 163.554 176.369 165.139 175.289 166.012L163.767 175.35C162.688 176.224 161.103 176.058 160.23 174.979L151.17 163.796C150.296 162.717 150.462 161.132 151.541 160.258L163.063 150.92C164.143 150.047 165.727 150.213 166.601 151.292Z" fill="url(#paint10_radial)"/>
<path d="M175.836 146.042L184.549 154.925L185.709 153.787L176.995 144.904L175.836 146.042Z" fill="#A08BE8"/>
<path d="M325.838 142.672L330.827 131.937C332.137 129.067 330.874 125.678 328 124.367C325.131 123.057 321.741 124.321 320.431 127.194L315.312 138.203L325.838 142.672Z" fill="#D0C5F3"/>
<path d="M269.65 117.137L276.079 141.427L288.06 138.102L281.634 113.813L269.65 117.137Z" fill="url(#paint11_linear)"/>
<path d="M284.831 126.11L272.852 129.431L273.24 130.833L285.219 127.511L284.831 126.11Z" fill="#A08BE8"/>
<path d="M285.812 150.05L315.133 152.166L316.028 139.767L286.707 137.65L285.812 150.05Z" fill="#D0C5F3"/>
<path d="M300.837 138.651L299.942 151.051L301.393 151.155L302.288 138.756L300.837 138.651Z" fill="#A08BE8"/>
<path d="M322.171 157.161C328.776 157.161 334.13 151.807 334.13 145.202C334.13 138.598 328.776 133.244 322.171 133.244C315.567 133.244 310.212 138.598 310.212 145.202C310.212 151.807 315.567 157.161 322.171 157.161Z" fill="#927BE5"/>
<path d="M287.706 136.817L276.079 141.427C276.079 141.427 277.689 149.234 285.814 150.036C287.688 142.188 288.738 137.777 288.738 137.777L287.706 136.817Z" fill="#A08BE8"/>
<path d="M297.979 172.048L254.295 141.077L258.053 135.778L301.737 166.749C302.823 167.517 304.332 167.261 305.101 166.175L315.966 150.852L321.265 154.609L310.4 169.932C307.559 173.939 301.986 174.888 297.979 172.048Z" fill="#F7B548"/>
<path d="M317.294 161.013L311.014 156.558C309.721 155.642 309.418 153.855 310.335 152.563L327.217 128.75C328.134 127.457 329.921 127.154 331.213 128.071L337.494 132.525C338.786 133.442 339.089 135.229 338.173 136.521L321.29 160.334C320.373 161.626 318.587 161.93 317.294 161.013Z" fill="#605D5A"/>
<path d="M320.521 159.035L314.15 154.357C312.266 152.974 311.862 150.325 313.244 148.44L314.963 146.105C316.345 144.221 318.995 143.816 320.879 145.199L327.25 149.877C329.134 151.259 329.538 153.909 328.156 155.793L326.438 158.129C325.052 160.013 322.406 160.421 320.521 159.035Z" fill="#D0C5F3"/>
<path d="M327.889 155.436L321.518 150.758C319.633 149.375 319.229 146.726 320.612 144.842L322.33 142.506C323.712 140.622 326.362 140.218 328.246 141.6L334.617 146.278C336.501 147.661 336.906 150.31 335.523 152.194L333.805 154.53C332.419 156.414 329.773 156.818 327.889 155.436Z" fill="#D0C5F3"/>
<path d="M335.054 151.797L328.683 147.119C326.798 145.737 326.394 143.087 327.777 141.203L329.495 138.868C330.877 136.983 333.527 136.579 335.411 137.961L341.782 142.64C343.666 144.022 344.071 146.672 342.688 148.556L340.97 150.891C339.584 152.776 336.938 153.183 335.054 151.797Z" fill="#D0C5F3"/>
<path d="M275.581 133.009C288.323 122.321 293.564 110.279 293.564 110.279L296.65 112.474L296.77 112.47C309.461 85.2566 301.343 52.0224 275.992 33.9994C247.433 13.695 207.82 20.3873 187.516 48.947C167.211 77.5067 173.904 117.119 202.463 137.424C224.999 153.447 254.414 152.653 275.797 137.575C276.613 136.871 277.685 135.323 275.581 133.009Z" fill="url(#paint12_radial)"/>
<path d="M275.3 138.117C275.3 138.117 278.693 136.38 275.715 133.099C288.302 122.541 293.565 110.672 293.694 110.384L240.044 72.2402C240.044 72.2402 236.907 69.4933 234.712 72.5795C232.518 75.6658 226.443 84.4806 219.584 94.1293C218.173 96.1146 219.119 98.2262 220.397 99.1359L275.491 138.304C275.368 138.189 275.3 138.117 275.3 138.117Z" fill="url(#paint13_radial)"/>
<path d="M249.985 114.748C249.985 114.748 258.045 114.333 259.587 114.293C261.128 114.253 262.041 114.838 262.395 116.289C262.749 117.74 265.041 125.454 265.041 125.454L249.985 114.748Z" fill="#A08BE8"/>
<path d="M275.299 138.117C275.299 138.117 278.692 136.38 275.714 133.099C275.729 133.088 275.739 133.078 275.754 133.067L222.995 95.5587C221.768 94.6852 220.71 92.8298 221.418 91.5448C220.815 92.4003 220.201 93.263 219.58 94.1329C218.299 95.9342 218.963 97.8364 220.05 98.8508C220.161 98.9518 220.27 99.0493 220.392 99.1359L223.999 101.699L275.487 138.304C275.368 138.189 275.299 138.117 275.299 138.117Z" fill="url(#paint14_radial)"/>
<path d="M265.239 143.629L176.066 80.2321C175.651 85.0546 175.792 89.8951 176.47 94.6599L251.483 147.989C256.204 147.061 260.821 145.607 265.239 143.629Z" fill="#D0C5F3"/>
<path d="M272.483 26.2242L282.641 33.0934L288.261 21.6941L280.966 16.7633L272.483 26.2242Z" fill="#D0C5F3"/>
<path d="M289.669 23.2824C296.098 23.2824 301.31 18.0704 301.31 11.6412C301.31 5.21193 296.098 0 289.669 0C283.24 0 278.028 5.21193 278.028 11.6412C278.028 18.0704 283.24 23.2824 289.669 23.2824Z" fill="url(#paint15_radial)"/>
<path d="M264.29 29.9711C263.831 29.6607 263.734 29.0182 264.091 28.5958C267.889 24.1379 274.512 23.1524 279.476 26.5094C284.439 29.8664 285.991 36.3783 283.269 41.5654C283.013 42.0563 282.378 42.2043 281.919 41.8938L264.29 29.9711Z" fill="url(#paint16_radial)"/>
<path d="M248.305 95.7878C250.919 91.9918 251.209 87.6541 248.951 86.0993C246.693 84.5445 242.744 86.3614 240.13 90.1575C237.515 93.9536 237.226 98.2913 239.484 99.8461C241.741 101.401 245.691 99.5839 248.305 95.7878Z" fill="#512BD4"/>
<path d="M280.803 119.041C283.53 115.325 283.948 110.998 281.738 109.376C279.528 107.755 275.526 109.453 272.8 113.17C270.073 116.886 269.655 121.213 271.865 122.834C274.075 124.456 278.077 122.757 280.803 119.041Z" fill="#512BD4"/>
<path d="M246.606 89.5523C248.021 89.314 249.393 89.74 250.4 90.6063C250.19 92.2415 249.49 94.0752 248.302 95.797C247.562 96.8691 246.714 97.7787 245.83 98.5042C244.296 97.9592 243.09 96.6236 242.798 94.9018C242.375 92.375 244.079 89.9782 246.606 89.5523Z" fill="#8065E0"/>
<path d="M279.321 112.477C280.736 112.239 282.111 112.669 283.118 113.535C282.93 115.26 282.151 117.228 280.815 119.05C280.133 119.982 279.371 120.783 278.573 121.44C277.025 120.902 275.808 119.559 275.516 117.827C275.09 115.3 276.794 112.903 279.321 112.477Z" fill="#8065E0"/>
<path d="M263.11 41.3018C250.151 34.5987 235.008 33.5375 221.281 38.3022L218.108 33.1404C233.687 27.3433 251.043 28.3828 265.835 36.0317C267.29 36.7825 267.86 38.5729 267.106 40.0276C266.355 41.4823 264.564 42.0527 263.11 41.3018Z" fill="url(#paint17_linear)"/>
<path d="M249.014 152.635L139.161 74.0378C136.98 72.4784 136.482 69.4499 138.042 67.2697L145.066 57.4658C146.626 55.2892 149.654 54.7911 151.831 56.3504L269.925 140.788C273.065 143.037 272.318 145.946 268.712 147.325L253.566 153.219C252.046 153.801 250.335 153.58 249.014 152.635Z" fill="#E86E58"/>
<path d="M269.924 140.791L151.831 56.3541C149.654 54.7947 146.625 55.2928 145.066 57.4695L144.182 58.704C145.709 58.0109 147.549 58.1264 149.011 59.1732L267.105 143.611C268.672 144.733 269.271 146.018 269.029 147.199C272.361 145.773 272.971 142.972 269.924 140.791Z" fill="#EE8F94"/>
<path d="M253.747 131.408L237.058 119.543L226.565 134.302L243.255 146.167L253.747 131.408Z" fill="#512BD4"/>
<path d="M232.89 130.865C232.763 130.775 232.688 130.656 232.659 130.511C232.633 130.363 232.659 130.23 232.745 130.111C232.832 129.991 232.947 129.919 233.099 129.894C233.247 129.872 233.388 129.905 233.514 129.995C233.644 130.085 233.72 130.208 233.749 130.356C233.778 130.508 233.749 130.641 233.662 130.764C233.579 130.883 233.46 130.952 233.308 130.973C233.157 130.991 233.02 130.959 232.89 130.865Z" fill="white"/>
<path d="M237.983 134.381L237.163 133.8L237.427 128.858C237.434 128.732 237.452 128.612 237.481 128.493L237.463 128.479C237.409 128.591 237.268 128.807 237.037 129.132L234.875 132.172L234.149 131.655L237.445 127.021L238.319 127.641L238.041 132.453C238.03 132.655 238.019 132.789 238.008 132.857L238.019 132.865C238.084 132.728 238.221 132.511 238.43 132.219L240.553 129.23L241.275 129.742L237.983 134.381Z" fill="white"/>
<path d="M241.517 136.889L238.979 135.085L242.275 130.45L244.711 132.182L244.245 132.836L242.56 131.637L241.625 132.951L243.181 134.056L242.719 134.706L241.163 133.601L240.188 134.973L241.975 136.243L241.517 136.889Z" fill="white"/>
<path d="M247.953 135.471L246.654 134.547L243.824 138.528L243.073 137.994L245.903 134.013L244.607 133.092L245.073 132.439L248.419 134.817L247.953 135.471Z" fill="white"/>
<path d="M140.904 33.8118L143.438 45.2364C155.408 42.5797 165.88 43.1608 174.561 46.9618C182.199 50.3043 188.66 56.2242 193.764 64.5589L203.745 58.4441C194.252 42.9551 175.647 26.1051 140.904 33.8118Z" fill="url(#paint18_linear)"/>
<path d="M188.642 41.5274L181.755 50.7964L182.839 51.6015L189.726 42.3325L188.642 41.5274Z" fill="#A08BE8"/>
<path d="M136.468 43.6193L129.599 52.2031C127.783 54.5024 128.177 57.8377 130.48 59.6534C132.779 61.4691 136.114 61.0756 137.93 58.7726L144.972 49.9687L136.468 43.6193Z" fill="#D0C5F3"/>
<path d="M136.995 32.6675L126 32.7686C123.069 32.8155 120.734 35.2303 120.78 38.1578C120.827 41.0888 123.242 43.4243 126.17 43.3774L137.443 43.2727L136.995 32.6675Z" fill="#D0C5F3"/>
<path d="M137.057 40.3092L126.069 40.6882C123.141 40.8109 120.867 43.28 120.99 46.2074C121.113 49.1348 123.582 51.4089 126.509 51.2862L137.779 50.8964L137.057 40.3092Z" fill="#D0C5F3"/>
<path d="M140.912 28.6175L130.108 26.5744C127.224 26.051 124.462 27.9605 123.939 30.8446C123.415 33.7288 125.325 36.4902 128.209 37.0136L139.287 39.1108L140.912 28.6175Z" fill="#D0C5F3"/>
<path d="M142.171 50.6328C148.306 50.6328 153.278 45.6601 153.278 39.5259C153.278 33.3917 148.306 28.4189 142.171 28.4189C136.037 28.4189 131.064 33.3917 131.064 39.5259C131.064 45.6601 136.037 50.6328 142.171 50.6328Z" fill="url(#paint19_radial)"/>
<path d="M176.258 35.1347L171.724 45.7548L172.966 46.2848L177.499 35.6647L176.258 35.1347Z" fill="#A08BE8"/>
<path d="M162.04 32.2125L161.253 43.7333L162.6 43.8252L163.387 32.3044L162.04 32.2125Z" fill="#A08BE8"/>
<path d="M200.958 73.0127C207.393 73.0127 212.61 67.796 212.61 61.3607C212.61 54.9255 207.393 49.7087 200.958 49.7087C194.523 49.7087 189.306 54.9255 189.306 61.3607C189.306 67.796 194.523 73.0127 200.958 73.0127Z" fill="url(#paint20_radial)"/>
<defs>
<linearGradient id="paint0_linear" x1="107.745" y1="351.52" x2="124.222" y2="126.171" gradientUnits="userSpaceOnUse">
<stop stop-color="white" stop-opacity="0"/>
<stop offset="0.9936" stop-color="#FAE969"/>
</linearGradient>
<linearGradient id="paint1_linear" x1="81.7763" y1="335.374" x2="98.2531" y2="110.025" gradientUnits="userSpaceOnUse">
<stop stop-color="white" stop-opacity="0"/>
<stop offset="0.9936" stop-color="#FAE969"/>
</linearGradient>
<linearGradient id="paint2_linear" x1="169.125" y1="129.141" x2="181.129" y2="129.141" gradientUnits="userSpaceOnUse">
<stop offset="0.0607" stop-color="#797673"/>
<stop offset="0.8227" stop-color="#605D5A"/>
</linearGradient>
<radialGradient id="paint3_radial" cx="0" cy="0" r="1" gradientUnits="userSpaceOnUse" gradientTransform="translate(142.565 109.674) scale(16.5209)">
<stop stop-color="#797673"/>
<stop offset="0.6238" stop-color="#605D5A"/>
</radialGradient>
<linearGradient id="paint4_linear" x1="213.048" y1="131.929" x2="192.692" y2="181.385" gradientUnits="userSpaceOnUse">
<stop offset="0.2319" stop-color="#958FE7"/>
<stop offset="0.4062" stop-color="#BBB7EF"/>
</linearGradient>
<linearGradient id="paint5_linear" x1="150.525" y1="224.779" x2="166.084" y2="208.409" gradientUnits="userSpaceOnUse">
<stop stop-color="#958FE7"/>
<stop offset="1" stop-color="#BBB7EF"/>
</linearGradient>
<radialGradient id="paint6_radial" cx="0" cy="0" r="1" gradientUnits="userSpaceOnUse" gradientTransform="translate(184.565 169.685) scale(12.7064)">
<stop stop-color="#8065E0"/>
<stop offset="1" stop-color="#512BD4"/>
</radialGradient>
<radialGradient id="paint7_radial" cx="0" cy="0" r="1" gradientUnits="userSpaceOnUse" gradientTransform="translate(215.625 -13.8536) rotate(18.656) scale(71.8388)">
<stop stop-color="#E3646A"/>
<stop offset="0.8525" stop-color="#F6B249"/>
</radialGradient>
<linearGradient id="paint8_linear" x1="191.27" y1="119.263" x2="173.963" y2="169.869" gradientUnits="userSpaceOnUse">
<stop offset="0.2368" stop-color="#958FE7"/>
<stop offset="0.3837" stop-color="#BBB7EF"/>
</linearGradient>
<linearGradient id="paint9_linear" x1="159.657" y1="211.344" x2="136.8" y2="205.939" gradientUnits="userSpaceOnUse">
<stop stop-color="#958FE7"/>
<stop offset="0.9957" stop-color="#BBB7EF"/>
</linearGradient>
<radialGradient id="paint10_radial" cx="0" cy="0" r="1" gradientUnits="userSpaceOnUse" gradientTransform="translate(165.154 155.662) scale(18.2113)">
<stop stop-color="#8065E0"/>
<stop offset="0.0233" stop-color="#7D62DF"/>
<stop offset="0.2367" stop-color="#6A4ADA"/>
<stop offset="0.4623" stop-color="#5C39D7"/>
<stop offset="0.7058" stop-color="#542ED5"/>
<stop offset="1" stop-color="#512BD4"/>
</radialGradient>
<linearGradient id="paint11_linear" x1="272.015" y1="115.772" x2="285.697" y2="139.468" gradientUnits="userSpaceOnUse">
<stop offset="0.2699" stop-color="#958FE7"/>
<stop offset="0.8454" stop-color="#BBB7EF"/>
</linearGradient>
<radialGradient id="paint12_radial" cx="0" cy="0" r="1" gradientUnits="userSpaceOnUse" gradientTransform="translate(259.217 87.1001) rotate(35.4098) scale(79.975)">
<stop offset="0.3472" stop-color="#A08BE8"/>
<stop offset="0.684" stop-color="#8065E0"/>
<stop offset="0.7596" stop-color="#8065E0"/>
</radialGradient>
<radialGradient id="paint13_radial" cx="0" cy="0" r="1" gradientUnits="userSpaceOnUse" gradientTransform="translate(249.901 81.186) scale(54.457)">
<stop offset="0.0933" stop-color="#E1DFDD"/>
<stop offset="0.6573" stop-color="white"/>
</radialGradient>
<radialGradient id="paint14_radial" cx="0" cy="0" r="1" gradientUnits="userSpaceOnUse" gradientTransform="translate(232.912 107.497) scale(34.2019)">
<stop offset="0.1574" stop-color="#512BD4"/>
<stop offset="0.9968" stop-color="#8065E0"/>
</radialGradient>
<radialGradient id="paint15_radial" cx="0" cy="0" r="1" gradientUnits="userSpaceOnUse" gradientTransform="translate(295.396 7.9854) rotate(39.0133) scale(14.8017)">
<stop offset="0.186" stop-color="#A08BE8"/>
<stop offset="0.684" stop-color="#8065E0"/>
<stop offset="0.8157" stop-color="#8065E0"/>
</radialGradient>
<radialGradient id="paint16_radial" cx="0" cy="0" r="1" gradientUnits="userSpaceOnUse" gradientTransform="translate(277.193 29.1006) scale(9.60066)">
<stop stop-color="#8065E0"/>
<stop offset="1" stop-color="#512BD4"/>
</radialGradient>
<linearGradient id="paint17_linear" x1="226.733" y1="46.6364" x2="260.432" y2="25.9095" gradientUnits="userSpaceOnUse">
<stop stop-color="#8065E0"/>
<stop offset="0.4307" stop-color="#A08BE8"/>
</linearGradient>
<linearGradient id="paint18_linear" x1="192.603" y1="69.5883" x2="148.866" y2="25.8513" gradientUnits="userSpaceOnUse">
<stop offset="0.2368" stop-color="#958FE7"/>
<stop offset="0.3837" stop-color="#BBB7EF"/>
</linearGradient>
<radialGradient id="paint19_radial" cx="0" cy="0" r="1" gradientUnits="userSpaceOnUse" gradientTransform="translate(143.286 35.12) scale(20.7427)">
<stop offset="0.186" stop-color="#A08BE8"/>
<stop offset="0.684" stop-color="#8065E0"/>
<stop offset="0.8157" stop-color="#8065E0"/>
</radialGradient>
<radialGradient id="paint20_radial" cx="0" cy="0" r="1" gradientUnits="userSpaceOnUse" gradientTransform="translate(204.233 59.7372) scale(11.6547)">
<stop stop-color="#8065E0"/>
<stop offset="1" stop-color="#512BD4"/>
</radialGradient>
</defs>
</svg>
