<svg width="316" height="226" viewBox="0 0 316 226" fill="none" xmlns="http://www.w3.org/2000/svg">
<path d="M110.107 185.019L121.796 184.321L121.692 182.377C121.102 171.543 120.884 164.444 123.507 160.909C126.13 157.374 133.557 154.984 148.334 152.917L146.69 141.151C130.216 143.456 119.587 146.269 113.975 153.824C108.791 160.804 109.275 169.666 110.007 183.081L110.107 185.019Z" fill="url(#paint0_linear)"/>
<path d="M214.868 185.019L203.179 184.321L203.283 182.377C203.873 171.543 204.091 164.444 201.468 160.909C198.845 157.374 185.906 154.318 169.903 152.066L178.289 141.156C194.764 143.461 205.393 146.274 211.005 153.829C216.189 160.809 215.705 169.671 214.973 183.085L214.868 185.019Z" fill="url(#paint1_linear)"/>
<path d="M203.307 176.219L212.54 176.176L221.159 225.556L202.628 225.642C201.216 225.647 200.147 224.511 200.242 223.1L203.307 176.219Z" fill="#522CD5"/>
<path d="M240.917 212.575C242.518 213.838 242.49 215.668 242.366 217.597L241.982 223.513C241.91 224.573 240.988 225.442 239.929 225.447L220.618 225.532C219.416 225.537 218.508 224.568 218.589 223.37L218.717 217.241C218.864 215.012 218.114 214.195 216.389 212.095C213.433 208.507 204.695 188.954 205.526 176.214L215.034 176.172C215.666 183.732 225.645 200.524 240.917 212.575Z" fill="url(#paint2_linear)"/>
<path d="M242.366 217.597C242.457 216.248 242.481 214.955 241.953 213.862L217.867 213.971C218.532 214.95 218.812 215.806 218.722 217.236L218.594 223.366C218.513 224.568 219.425 225.537 220.623 225.528L239.934 225.442C240.993 225.437 241.915 224.568 241.986 223.508L242.366 217.597Z" fill="url(#paint3_radial)"/>
<path d="M132.003 216.024C132.008 214.699 131.813 213.534 131.243 211.6C122.461 187.937 121.677 175.986 121.677 175.986H109.855C109.855 175.986 109.099 187.713 100.318 211.377C99.6245 213.064 99.5485 214.604 99.4629 216.024L99.4487 223.608C99.4487 224.753 100.385 225.685 101.525 225.685H102.095H129.37H129.941C131.09 225.685 132.017 224.753 132.017 223.608L132.003 216.024Z" fill="url(#paint4_linear)"/>
<path d="M132.003 216.024C132.003 215.81 131.998 215.601 131.989 215.392C131.927 214.732 131.618 213.99 130.173 213.99H101.007C99.9524 214.033 99.6102 214.841 99.5057 215.349C99.4914 215.573 99.4724 215.801 99.4629 216.019L99.4487 223.603C99.4487 224.316 99.8146 224.953 100.366 225.323C100.698 225.547 101.098 225.68 101.525 225.68H102.095H129.37H129.941C130.515 225.68 131.033 225.447 131.409 225.072C131.784 224.696 132.017 224.178 132.017 223.603L132.003 216.024Z" fill="url(#paint5_radial)"/>
<path d="M73.5327 83.8073L83.8012 78.3903C86.5477 76.9648 89.9262 78.0387 91.3517 80.7852C92.7772 83.5317 91.7033 86.9102 88.9568 88.3357L78.4318 93.8905L73.5327 83.8073Z" fill="#8577E5"/>
<path d="M232.545 129.647C222.861 129.647 213.367 120.971 204.281 103.788L214.783 98.2336C217.387 103.156 226.429 119.098 233.49 117.663C239.506 116.442 245.422 102.924 246.31 92.5458L258.147 93.5579C257.567 100.348 255.353 108.112 252.231 114.328C247.969 122.814 242.305 127.994 235.852 129.305C234.749 129.533 233.647 129.647 232.545 129.647Z" fill="#8A6FE8"/>
<path d="M247.166 82.8855L236.641 77.9912C233.828 76.7083 230.506 77.9485 229.218 80.7615C227.935 83.5745 229.176 86.896 231.989 88.1837L242.78 93.2015L247.166 82.8855Z" fill="#8577E5"/>
<path d="M2.79848 83.432H313.723C314.821 83.432 315.709 82.5434 315.709 81.4458V79.4311C315.709 78.3334 314.821 77.4448 313.723 77.4448H2.79848C1.70083 77.4448 0.812256 78.3334 0.812256 79.4311V81.4458C0.812256 82.5434 1.70083 83.432 2.79848 83.432Z" fill="#B3AFAB"/>
<path d="M253.067 100.187C259.541 100.187 264.79 94.9383 264.79 88.4641C264.79 81.9899 259.541 76.7416 253.067 76.7416C246.593 76.7416 241.345 81.9899 241.345 88.4641C241.345 94.9383 246.593 100.187 253.067 100.187Z" fill="url(#paint6_radial)"/>
<path d="M246.952 89.747C243.863 89.747 241.359 87.2429 241.359 84.1542V77.3023C241.359 74.2136 243.863 71.7095 246.952 71.7095C250.04 71.7095 252.545 74.2136 252.545 77.3023V84.1542C252.545 87.2429 250.04 89.747 246.952 89.747Z" fill="#8577E5"/>
<path d="M255.971 89.747C252.882 89.747 250.378 87.2429 250.378 84.1542V77.3023C250.378 74.2136 252.882 71.7095 255.971 71.7095C259.059 71.7095 261.563 74.2136 261.563 77.3023V84.1542C261.563 87.2429 259.059 89.747 255.971 89.747Z" fill="#8577E5"/>
<path d="M264.985 88.2027C261.896 88.2027 259.392 85.6985 259.392 82.6099V77.6586C259.392 74.57 261.896 72.0658 264.985 72.0658C268.073 72.0658 270.577 74.57 270.577 77.6586V82.6099C270.582 85.6938 268.078 88.2027 264.985 88.2027Z" fill="#8577E5"/>
<path d="M304.833 56.6892C304.814 56.6844 304.766 56.6844 304.766 56.6844C303.027 56.6844 294.455 56.6844 294.455 56.6844C294.455 56.6844 294.013 103.427 294.455 103.427C294.897 103.427 303.873 103.427 304.766 103.427C307.584 103.427 309.874 92.9639 309.874 80.0582C309.87 67.2428 307.622 56.8413 304.833 56.6892Z" fill="url(#paint7_radial)"/>
<path d="M291.756 51.41C291.732 51.4053 291.675 51.4053 291.675 51.4053C289.542 51.4053 279.036 51.4053 279.036 51.4053C279.036 51.4053 278.494 108.716 279.036 108.716C279.577 108.716 290.587 108.716 291.675 108.716C295.134 108.716 297.938 95.8862 297.938 80.063C297.933 64.349 295.177 51.5953 291.756 51.41Z" fill="url(#paint8_radial)"/>
<path d="M279.031 108.711C282.49 108.711 285.294 95.8828 285.294 80.0582C285.294 64.2336 282.49 51.4053 279.031 51.4053C275.572 51.4053 272.768 64.2336 272.768 80.0582C272.768 95.8828 275.572 108.711 279.031 108.711Z" fill="#605D5A"/>
<path d="M277.406 77.4401H271.062V83.432H277.406C278.503 83.432 279.392 82.5434 279.392 81.4458V79.431C279.392 78.3334 278.503 77.4401 277.406 77.4401Z" fill="#B3AFAB"/>
<path d="M39.6862 56.6892C39.6671 56.6844 39.6196 56.6844 39.6196 56.6844C37.8805 56.6844 29.3084 56.6844 29.3084 56.6844C29.3084 56.6844 28.8665 103.427 29.3084 103.427C29.7503 103.427 38.7263 103.427 39.6196 103.427C42.4422 103.427 44.7277 92.9639 44.7277 80.0582C44.723 67.2428 42.4754 56.8413 39.6862 56.6892Z" fill="url(#paint9_radial)"/>
<path d="M26.6094 51.41C26.5856 51.4053 26.5286 51.4053 26.5286 51.4053C24.3951 51.4053 13.889 51.4053 13.889 51.4053C13.889 51.4053 13.3473 108.716 13.889 108.716C14.4307 108.716 25.4405 108.716 26.5286 108.716C29.9879 108.716 32.7914 95.8862 32.7914 80.063C32.7866 64.349 30.0306 51.5953 26.6094 51.41Z" fill="url(#paint10_radial)"/>
<path d="M13.8843 108.711C17.3431 108.711 20.1471 95.8828 20.1471 80.0582C20.1471 64.2336 17.3431 51.4053 13.8843 51.4053C10.4254 51.4053 7.62149 64.2336 7.62149 80.0582C7.62149 95.8828 10.4254 108.711 13.8843 108.711Z" fill="#605D5A"/>
<path d="M206.795 111.135C213.104 111.135 218.218 106.02 218.218 99.7114C218.218 93.4025 213.104 88.2882 206.795 88.2882C200.486 88.2882 195.372 93.4025 195.372 99.7114C195.372 106.02 200.486 111.135 206.795 111.135Z" fill="url(#paint11_radial)"/>
<path d="M208.772 111.173C212.882 95.3921 210.231 82.7953 210.231 82.7953H213.942L214.032 82.724C208.715 53.767 183.35 31.8235 152.853 31.8235C118.498 31.8235 90.6485 59.6734 90.6485 94.0284C90.6485 128.383 118.498 156.233 152.853 156.233C179.962 156.233 203.017 138.889 211.537 114.698C211.789 113.672 211.77 111.828 208.772 111.173Z" fill="url(#paint12_radial)"/>
<path d="M206.491 125.532H99.2253C101.634 129.624 104.495 133.411 107.745 136.832H197.981C201.221 133.411 204.087 129.624 206.491 125.532Z" fill="#D8CFF7"/>
<path d="M208.772 111.173C212.83 95.5869 210.297 83.1136 210.235 82.8095H145.697C145.697 82.8095 141.63 82.3961 141.63 86.1119C141.63 89.8278 141.782 100.32 141.782 111.928C141.782 114.313 143.735 115.463 145.274 115.463C145.274 115.459 201.573 115.454 208.772 111.173Z" fill="url(#paint13_radial)"/>
<path d="M169.903 111.206C169.903 111.206 179.829 103.351 181.763 101.897C183.702 100.443 185.393 100.362 187.17 101.897C188.948 103.432 198.883 111.206 198.883 111.206H169.903Z" fill="#A08BE8"/>
<path d="M211.295 115.416C211.295 115.416 213.02 112.099 208.776 111.173C208.781 111.158 145.327 111.125 145.327 111.125C143.849 111.125 141.948 110.246 141.787 108.811C141.787 109.837 141.791 110.873 141.791 111.923C141.791 114.09 143.402 115.235 144.847 115.425C144.989 115.444 145.137 115.459 145.284 115.459H149.622L211.295 115.416Z" fill="#512BD4"/>
<path d="M173.177 140.196L193.538 140.103L193.456 122.094L173.095 122.187L173.177 140.196Z" fill="#512BD4"/>
<path d="M176.698 133.463C176.56 133.463 176.446 133.42 176.351 133.33C176.256 133.239 176.208 133.125 176.208 133.002C176.208 132.874 176.256 132.76 176.351 132.669C176.446 132.574 176.56 132.531 176.698 132.531C176.835 132.531 176.949 132.579 177.044 132.669C177.139 132.76 177.192 132.874 177.192 133.002C177.192 133.13 177.144 133.239 177.049 133.33C176.949 133.415 176.835 133.463 176.698 133.463Z" fill="white"/>
<path d="M182.11 133.378H181.231L178.902 129.723C178.845 129.633 178.793 129.533 178.755 129.434H178.736C178.755 129.538 178.765 129.766 178.765 130.118L178.769 133.382H177.99L177.98 128.402H178.917L181.164 131.971C181.259 132.118 181.321 132.223 181.349 132.275H181.364C181.34 132.142 181.33 131.919 181.33 131.605L181.326 128.398H182.1L182.11 133.378Z" fill="white"/>
<path d="M185.902 133.368L183.174 133.373L183.165 128.393L185.783 128.388V129.091L183.972 129.096L183.977 130.507L185.645 130.503V131.201L183.977 131.206L183.982 132.679L185.902 132.674V133.368Z" fill="white"/>
<path d="M189.77 129.082L188.373 129.087L188.382 133.363H187.574L187.565 129.087L186.172 129.091V128.388L189.765 128.379L189.77 129.082Z" fill="white"/>
<path d="M158.142 28.0649H146.12L147.817 15.7246H156.446L158.142 28.0649Z" fill="#8577E5"/>
<path d="M151.965 17.5112C156.694 17.5112 160.527 13.6776 160.527 8.9486C160.527 4.2196 156.694 0.385986 151.965 0.385986C147.236 0.385986 143.402 4.2196 143.402 8.9486C143.402 13.6776 147.236 17.5112 151.965 17.5112Z" fill="#D8CFF7"/>
<path d="M162.737 35.6058C163.279 35.6058 163.711 35.1354 163.654 34.5984C163.017 28.8916 158.18 24.4535 152.307 24.4535C146.429 24.4535 141.597 28.8916 140.96 34.5984C140.898 35.1354 141.335 35.6058 141.877 35.6058H162.737Z" fill="url(#paint14_radial)"/>
<path d="M94.4118 129.999C93.547 129.999 92.6775 129.937 91.8079 129.818C75.8326 127.59 67.0704 105.608 64.666 94.2944L76.284 91.8282C78.8024 103.689 86.3006 117.06 93.4472 118.058C99.097 118.847 106.386 111.624 113.457 98.2431L123.958 103.798C114.754 121.199 104.828 129.999 94.4118 129.999Z" fill="url(#paint15_linear)"/>
<path d="M116.251 113.572C122.56 113.572 127.674 108.458 127.674 102.149C127.674 95.8403 122.56 90.726 116.251 90.726C109.942 90.726 104.828 95.8403 104.828 102.149C104.828 108.458 109.942 113.572 116.251 113.572Z" fill="url(#paint16_radial)"/>
<path d="M69.6078 100.187C76.082 100.187 81.3303 94.9383 81.3303 88.4641C81.3303 81.9899 76.082 76.7416 69.6078 76.7416C63.1336 76.7416 57.8853 81.9899 57.8853 88.4641C57.8853 94.9383 63.1336 100.187 69.6078 100.187Z" fill="url(#paint17_radial)"/>
<path d="M74.3358 88.2456C77.4244 88.2456 79.9286 85.7414 79.9286 82.6528V75.8008C79.9286 72.7122 77.4244 70.208 74.3358 70.208C71.2472 70.208 68.743 72.7122 68.743 75.8008V82.6528C68.743 85.7414 71.2472 88.2456 74.3358 88.2456Z" fill="#8577E5"/>
<path d="M65.3218 88.2456C68.4104 88.2456 70.9145 85.7414 70.9145 82.6528V75.8008C70.9145 72.7122 68.4104 70.208 65.3218 70.208C62.2331 70.208 59.729 72.7122 59.729 75.8008V82.6528C59.7242 85.7414 62.2331 88.2456 65.3218 88.2456Z" fill="#8577E5"/>
<path d="M56.303 86.6964C59.3916 86.6964 61.8957 84.1923 61.8957 81.1037V76.1524C61.8957 73.0637 59.3916 70.5596 56.303 70.5596C53.2143 70.5596 50.7102 73.0637 50.7102 76.1524V81.1037C50.7102 84.1923 53.2143 86.6964 56.303 86.6964Z" fill="#8577E5"/>
<path d="M12.2592 77.4401H5.91562V83.432H12.2592C13.3568 83.432 14.2454 82.5434 14.2454 81.4458V79.431C14.2454 78.3334 13.3568 77.4401 12.2592 77.4401Z" fill="#B3AFAB"/>
<path d="M196.907 94.9122C196.84 95.4158 196.802 95.9385 196.793 96.4707C196.726 100.99 198.85 104.682 201.535 104.724C204.22 104.762 206.453 101.137 206.524 96.618C206.543 95.4729 206.415 94.3847 206.177 93.3916L196.907 94.9122Z" fill="#512BD4"/>
<path d="M200.447 94.3324C200.071 95.8292 200.466 97.4828 201.639 98.6517C202.856 99.8682 204.59 100.253 206.135 99.8017C206.396 98.8276 206.548 97.7489 206.567 96.618C206.586 95.4681 206.458 94.3799 206.215 93.3821L200.447 94.3324Z" fill="#8065E0"/>
<path d="M157.919 93.5579C157.7 94.513 157.586 95.5583 157.605 96.6512C157.672 101.17 159.905 104.8 162.594 104.758C165.284 104.715 167.403 101.023 167.337 96.5039C167.327 96.0193 167.294 95.5441 167.237 95.0832L157.919 93.5579Z" fill="#512BD4"/>
<path d="M161.383 94.1281C160.789 95.7436 161.136 97.6253 162.433 98.9178C163.645 100.129 165.365 100.51 166.899 100.072C167.194 98.9891 167.356 97.7821 167.337 96.5039C167.327 96.0192 167.294 95.5441 167.242 95.0831L161.383 94.1281Z" fill="#8065E0"/>
<defs>
<linearGradient id="paint0_linear" x1="128.943" y1="141.157" x2="128.943" y2="185.018" gradientUnits="userSpaceOnUse">
<stop stop-color="#522CD5"/>
<stop offset="0.4397" stop-color="#8A6FE8"/>
</linearGradient>
<linearGradient id="paint1_linear" x1="192.661" y1="141.157" x2="192.661" y2="185.018" gradientUnits="userSpaceOnUse">
<stop stop-color="#522CD5"/>
<stop offset="0.4397" stop-color="#8A6FE8"/>
</linearGradient>
<linearGradient id="paint2_linear" x1="207.674" y1="174.981" x2="237.035" y2="227.326" gradientUnits="userSpaceOnUse">
<stop stop-color="#522CD5"/>
<stop offset="0.4397" stop-color="#8A6FE8"/>
</linearGradient>
<radialGradient id="paint3_radial" cx="0" cy="0" r="1" gradientUnits="userSpaceOnUse" gradientTransform="translate(229.549 204.021) rotate(-0.260741) scale(20.3479)">
<stop offset="0.034" stop-color="#522CD5"/>
<stop offset="0.9955" stop-color="#8A6FE8"/>
</radialGradient>
<linearGradient id="paint4_linear" x1="115.729" y1="175.982" x2="115.729" y2="225.684" gradientUnits="userSpaceOnUse">
<stop stop-color="#522CD5"/>
<stop offset="0.4397" stop-color="#8A6FE8"/>
</linearGradient>
<radialGradient id="paint5_radial" cx="0" cy="0" r="1" gradientUnits="userSpaceOnUse" gradientTransform="translate(115.013 203.988) scale(22.4333)">
<stop offset="0.034" stop-color="#522CD5"/>
<stop offset="0.9955" stop-color="#8A6FE8"/>
</radialGradient>
<radialGradient id="paint6_radial" cx="0" cy="0" r="1" gradientUnits="userSpaceOnUse" gradientTransform="translate(252.808 94.59) scale(11.7232)">
<stop stop-color="#8065E0"/>
<stop offset="1" stop-color="#512BD4"/>
</radialGradient>
<radialGradient id="paint7_radial" cx="0" cy="0" r="1" gradientUnits="userSpaceOnUse" gradientTransform="translate(309.129 78.1454) scale(22.6737)">
<stop offset="0.1946" stop-color="#737373"/>
<stop offset="1" stop-color="#605D5A"/>
</radialGradient>
<radialGradient id="paint8_radial" cx="0" cy="0" r="1" gradientUnits="userSpaceOnUse" gradientTransform="translate(288.362 80.058) scale(34.3083)">
<stop offset="0.1946" stop-color="#737373"/>
<stop offset="1" stop-color="#605D5A"/>
</radialGradient>
<radialGradient id="paint9_radial" cx="0" cy="0" r="1" gradientUnits="userSpaceOnUse" gradientTransform="translate(43.9823 78.1454) scale(22.6737)">
<stop offset="0.1946" stop-color="#737373"/>
<stop offset="1" stop-color="#605D5A"/>
</radialGradient>
<radialGradient id="paint10_radial" cx="0" cy="0" r="1" gradientUnits="userSpaceOnUse" gradientTransform="translate(23.2158 80.058) scale(34.3083)">
<stop offset="0.1946" stop-color="#737373"/>
<stop offset="1" stop-color="#605D5A"/>
</radialGradient>
<radialGradient id="paint11_radial" cx="0" cy="0" r="1" gradientUnits="userSpaceOnUse" gradientTransform="translate(208.534 93.0253) scale(11.4233)">
<stop stop-color="#8065E0"/>
<stop offset="1" stop-color="#512BD4"/>
</radialGradient>
<radialGradient id="paint12_radial" cx="0" cy="0" r="1" gradientUnits="userSpaceOnUse" gradientTransform="translate(161.746 82.8183) scale(61.9498)">
<stop offset="0.4744" stop-color="#A08BE8"/>
<stop offset="0.8618" stop-color="#8065E0"/>
</radialGradient>
<radialGradient id="paint13_radial" cx="0" cy="0" r="1" gradientUnits="userSpaceOnUse" gradientTransform="translate(149.736 72.7416) scale(48.2581)">
<stop offset="0.0933" stop-color="#E1DFDD"/>
<stop offset="0.8998" stop-color="white"/>
</radialGradient>
<radialGradient id="paint14_radial" cx="0" cy="0" r="1" gradientUnits="userSpaceOnUse" gradientTransform="translate(152.343 27.7538) scale(8.94447)">
<stop stop-color="#8065E0"/>
<stop offset="1" stop-color="#512BD4"/>
</radialGradient>
<linearGradient id="paint15_linear" x1="123.959" y1="110.912" x2="64.6633" y2="110.912" gradientUnits="userSpaceOnUse">
<stop offset="0.2296" stop-color="#9780E6"/>
<stop offset="0.9374" stop-color="#8A6FE8"/>
</linearGradient>
<radialGradient id="paint16_radial" cx="0" cy="0" r="1" gradientUnits="userSpaceOnUse" gradientTransform="translate(115.876 98.2097) scale(11.4254)">
<stop stop-color="#8065E0"/>
<stop offset="1" stop-color="#512BD4"/>
</radialGradient>
<radialGradient id="paint17_radial" cx="0" cy="0" r="1" gradientUnits="userSpaceOnUse" gradientTransform="translate(69.7139 92.845) scale(11.7232)">
<stop stop-color="#8065E0"/>
<stop offset="1" stop-color="#512BD4"/>
</radialGradient>
</defs>
</svg>
