<svg width="261" height="235" viewBox="0 0 261 235" fill="none" xmlns="http://www.w3.org/2000/svg">
<path d="M256.344 227.523L246.987 184.135H161.057L151.701 227.523C151.668 227.604 151.649 227.689 151.649 227.77C151.649 230.878 175.099 233.401 204.027 233.401C232.956 233.401 256.405 230.878 256.405 227.77C256.401 227.689 256.377 227.604 256.344 227.523Z" fill="#F7B548"/>
<path d="M204.022 189.766C227.751 189.766 246.987 187.245 246.987 184.135C246.987 181.025 227.751 178.504 204.022 178.504C180.293 178.504 161.057 181.025 161.057 184.135C161.057 187.245 180.293 189.766 204.022 189.766Z" fill="#FAE969"/>
<path d="M212.376 227.437H195.669L203.623 196.404L212.376 227.437Z" fill="#E86E58"/>
<path d="M249.568 224.924L238.235 196.005V226.25C242.217 225.884 246.023 225.442 249.568 224.924Z" fill="#E86E58"/>
<path d="M232.171 226.748L222.103 196.409L218.767 227.437H219.228C223.618 227.281 227.961 227.048 232.171 226.748Z" fill="#E86E58"/>
<path d="M158.13 224.924L169.463 196.005V226.25C165.481 225.884 161.675 225.442 158.13 224.924Z" fill="#E86E58"/>
<path d="M175.526 226.748L185.595 196.409L188.931 227.437H188.47C184.079 227.281 179.731 227.048 175.526 226.748Z" fill="#E86E58"/>
<path d="M164.901 222.847C166.248 222.847 167.339 221.756 167.339 220.41C167.339 219.063 166.248 217.972 164.901 217.972C163.555 217.972 162.464 219.063 162.464 220.41C162.464 221.756 163.555 222.847 164.901 222.847Z" fill="#FAE969"/>
<path d="M182.958 223.323C184.304 223.323 185.396 222.231 185.396 220.885C185.396 219.539 184.304 218.447 182.958 218.447C181.612 218.447 180.52 219.539 180.52 220.885C180.52 222.231 181.612 223.323 182.958 223.323Z" fill="#FAE969"/>
<path d="M243.044 222.847C244.39 222.847 245.481 221.756 245.481 220.41C245.481 219.063 244.39 217.972 243.044 217.972C241.697 217.972 240.606 219.063 240.606 220.41C240.606 221.756 241.697 222.847 243.044 222.847Z" fill="#FAE969"/>
<path d="M224.854 223.451C226.2 223.451 227.292 222.359 227.292 221.013C227.292 219.667 226.2 218.575 224.854 218.575C223.508 218.575 222.416 219.667 222.416 221.013C222.416 222.359 223.508 223.451 224.854 223.451Z" fill="#FAE969"/>
<path d="M203.866 223.798C205.212 223.798 206.303 222.706 206.303 221.36C206.303 220.014 205.212 218.922 203.866 218.922C202.519 218.922 201.428 220.014 201.428 221.36C201.428 222.706 202.519 223.798 203.866 223.798Z" fill="#FAE969"/>
<path d="M238.363 54.9448C242.953 55.9426 250.993 52.0225 250.993 52.0225" stroke="#797673" stroke-width="2" stroke-miterlimit="10" stroke-linecap="round" stroke-linejoin="round"/>
<path d="M238.995 56.1422C243.153 57.9099 251.834 54.7927 251.834 54.7927" stroke="#797673" stroke-width="2" stroke-miterlimit="10" stroke-linecap="round" stroke-linejoin="round"/>
<path d="M237.94 57.449C241.537 60.3618 250.537 58.2758 250.537 58.2758" stroke="#797673" stroke-width="2" stroke-miterlimit="10" stroke-linecap="round" stroke-linejoin="round"/>
<path d="M244.056 182.742C245.766 184.667 243.847 185.931 241.428 185.052C230.261 180.98 213.83 172.156 207.581 154.37C201.855 138.076 220.264 131.866 228.427 156.323C232.281 167.879 239.846 178.01 244.056 182.742Z" fill="#797673"/>
<path d="M186.227 184.99C217.398 184.833 239.793 152.983 234.623 117.321C229.981 85.2894 238.382 62.4573 242.416 54.9828C243.989 52.0748 242.573 49.181 238.315 50.8821C234.215 52.5214 230.931 54.5742 230.931 54.5742C230.931 54.5742 208.375 55.3962 201.404 73.852C194.433 92.3077 193.668 112.061 190.332 132.911C185.41 163.669 155.925 170.151 141.936 154.646C135.654 147.684 129.643 148.388 133.735 157.924C139 170.217 152.095 185.161 186.227 184.99Z" fill="url(#paint0_linear)"/>
<path d="M216.804 70.4116C219.342 70.4116 221.399 68.3544 221.399 65.8167C221.399 63.279 219.342 61.2218 216.804 61.2218C214.267 61.2218 212.21 63.279 212.21 65.8167C212.21 68.3544 214.267 70.4116 216.804 70.4116Z" fill="white"/>
<path d="M217.726 67.0237C219.075 67.0237 220.169 65.9302 220.169 64.5813C220.169 63.2324 219.075 62.1389 217.726 62.1389C216.377 62.1389 215.284 63.2324 215.284 64.5813C215.284 65.9302 216.377 67.0237 217.726 67.0237Z" fill="#797673"/>
<path d="M235.773 51.9892C236.562 51.6186 237.417 51.2432 238.311 50.8821C242.568 49.181 243.984 52.0748 242.411 54.9828C242.003 55.7431 241.542 56.6697 241.062 57.7436C238.201 56.9786 236.695 55.0304 235.773 51.9892Z" fill="#605D5A"/>
<path d="M240.611 50.7728C251.795 50.7728 260.862 41.7057 260.862 30.5209C260.862 19.3361 251.795 10.269 240.611 10.269C229.426 10.269 220.359 19.3361 220.359 30.5209C220.359 41.7057 229.426 50.7728 240.611 50.7728Z" fill="url(#paint1_radial)"/>
<path d="M138.002 156.66C145.557 144.263 136.348 132.322 133.012 128.639C132.604 128.188 131.853 128.44 131.805 129.048C131.649 130.954 131.254 134.189 130.256 136.466C129.097 139.117 130.261 147.162 130.261 147.162C130.261 147.162 123.699 143.85 118.534 144.125C115.16 144.306 111.687 143.07 109.686 142.196C109.121 141.949 108.56 142.557 108.859 143.094C111.72 148.278 121.527 162.952 138.002 156.66Z" fill="#797673"/>
<path d="M184.882 186.515C183.585 188.739 185.719 189.599 187.914 188.259C198.054 182.054 212.409 170.146 215.008 151.476C217.394 134.37 198.116 131.932 194.961 157.52C193.473 169.609 188.071 181.037 184.882 186.515Z" fill="#797673"/>
<path d="M230.513 23.4361C230.366 23.246 230.304 23.0369 230.328 22.8088C230.356 22.576 230.456 22.3907 230.637 22.2529C230.817 22.1103 231.026 22.0581 231.254 22.0913C231.487 22.1246 231.677 22.2339 231.825 22.424C231.972 22.614 232.034 22.8279 232.01 23.0607C231.986 23.2983 231.882 23.4836 231.701 23.6261C231.525 23.7639 231.316 23.8162 231.083 23.7782C230.851 23.7402 230.66 23.6261 230.513 23.4361Z" fill="white"/>
<path d="M236.486 30.9152L235.531 29.6845L238.13 22.4762C238.197 22.2956 238.277 22.1198 238.377 21.9582L238.353 21.9297C238.225 22.0723 237.916 22.3289 237.427 22.709L232.87 26.2443L232.024 25.1561L238.981 19.7582L239.998 21.0697L237.436 28.0737C237.332 28.3683 237.256 28.5631 237.208 28.6582L237.223 28.6772C237.384 28.5014 237.683 28.2448 238.121 27.9026L242.602 24.4244L243.443 25.5078L236.486 30.9152Z" fill="white"/>
<path d="M240.601 36.2134L237.646 32.4072L244.602 27.0093L247.439 30.6634L246.46 31.4236L244.498 28.891L242.53 30.421L244.341 32.7541L243.367 33.5096L241.556 31.1765L239.499 32.7731L241.58 35.4531L240.601 36.2134Z" fill="white"/>
<path d="M250.775 36.9927L249.263 35.0445L243.291 39.6822L242.416 38.556L248.389 33.9183L246.883 31.9749L247.862 31.2146L251.753 36.2324L250.775 36.9927Z" fill="white"/>
<path d="M234.79 54.8118C227.539 54.2796 218.876 45.793 218.876 45.793" stroke="#797673" stroke-width="2" stroke-miterlimit="10" stroke-linecap="round" stroke-linejoin="round"/>
<path d="M235.232 56.6222C227.453 56.6222 217.726 49.7274 217.726 49.7274" stroke="#797673" stroke-width="2" stroke-miterlimit="10" stroke-linecap="round" stroke-linejoin="round"/>
<path d="M236.03 58.214C228.075 60.5139 218.349 55.2062 218.349 55.2062" stroke="#797673" stroke-width="2" stroke-miterlimit="10" stroke-linecap="round" stroke-linejoin="round"/>
<path d="M85.7374 188.63C85.8372 179.588 84.5495 161.236 75.2171 145.869L66.0938 151.41C74.5613 165.347 75.1981 181.617 74.9985 188.711C74.9795 189.295 80.4535 189.828 85.7374 188.63Z" fill="url(#paint2_linear)"/>
<path d="M74.9985 188.611L83.4518 188.573L91.3397 233.767L74.3807 233.843C73.0883 233.848 72.1141 232.807 72.1949 231.515L74.9985 188.611Z" fill="#522CD5"/>
<path d="M109.42 221.878C110.884 223.033 110.86 224.71 110.746 226.473L110.394 231.89C110.332 232.859 109.486 233.653 108.517 233.658L90.8454 233.738C89.7478 233.743 88.9163 232.854 88.9875 231.757L89.1063 226.145C89.2394 224.107 88.5551 223.356 86.9775 221.436C84.2738 218.153 76.2766 200.258 77.0369 188.597L85.7421 188.559C86.3123 195.482 95.4451 210.854 109.42 221.878Z" fill="url(#paint3_linear)"/>
<path d="M110.746 226.473C110.826 225.238 110.85 224.054 110.366 223.057L88.3223 223.156C88.9305 224.054 89.1871 224.834 89.1016 226.145L88.9828 231.757C88.9115 232.855 89.7431 233.743 90.8407 233.738L108.512 233.658C109.482 233.653 110.328 232.859 110.389 231.89L110.746 226.473Z" fill="url(#paint4_radial)"/>
<path d="M39.1277 188.83C38.9471 179.792 40.0637 161.427 49.2583 145.974L58.4339 151.434C50.0947 165.446 49.6052 181.721 49.8666 188.815C49.8903 189.4 44.4211 189.984 39.1277 188.83Z" fill="url(#paint5_linear)"/>
<path d="M29.8808 225.266C29.8713 224.059 30.0471 222.999 30.5555 221.237C38.4482 199.664 39.1134 188.787 39.1134 188.787L49.8761 188.74C49.8761 188.74 50.6126 199.412 58.7 220.909C59.3368 222.439 59.4128 223.841 59.4936 225.138L59.5411 232.037C59.5458 233.078 58.7 233.933 57.6594 233.938L57.1415 233.943L32.3184 234.057H31.8005C30.7551 234.062 29.9046 233.22 29.8998 232.175L29.8808 225.266Z" fill="url(#paint6_linear)"/>
<path d="M29.8808 225.266C29.8808 225.071 29.8856 224.881 29.8903 224.691C29.9426 224.092 30.2229 223.413 31.5344 223.408L58.0776 223.289C59.0374 223.323 59.351 224.059 59.4508 224.52C59.4651 224.724 59.4793 224.933 59.4936 225.133L59.5411 232.033C59.5458 232.683 59.2132 233.258 58.7143 233.605C58.4149 233.81 58.0491 233.933 57.6594 233.933L57.1415 233.938L32.3184 234.052H31.8005C31.2778 234.057 30.8026 233.843 30.4605 233.506C30.1184 233.163 29.9046 232.693 29.8998 232.17L29.8808 225.266Z" fill="url(#paint7_radial)"/>
<path d="M130.893 48.245C136.267 55.4629 141.067 68.6204 136.923 81.9585C134.409 90.0555 127.619 100.999 109.577 107.147L106.17 97.1451C117.123 93.4149 124.264 87.0761 126.83 78.8224C129.605 69.8844 126.612 60.1956 122.416 54.5553L130.893 48.245Z" fill="#8A6FE8"/>
<path d="M121.052 43.9162C122.801 41.6829 122.459 38.4659 120.278 36.6508L115.212 32.4265C112.808 30.4498 109.358 30.6541 107.51 32.8827C105.661 35.1112 106.108 38.5277 108.512 40.5044L113.559 44.7097C115.835 46.6104 119.228 46.2493 121.052 43.9162Z" fill="#8A6FE8"/>
<path d="M114.5 51.5712C111.259 45.9927 113.065 39.2025 118.524 36.3989C123.984 33.5954 131.04 35.8477 134.281 41.4215C137.522 47 135.716 53.7903 130.256 56.5938C124.797 59.3973 117.74 57.1497 114.5 51.5712Z" fill="url(#paint8_radial)"/>
<path d="M142.53 72.4979C141.713 72.6499 140.848 72.322 140.359 71.5855L94.7942 3.65004C94.1385 2.67118 94.3998 1.3407 95.3787 0.684958C96.3575 0.0292196 97.688 0.290565 98.3437 1.26942L143.908 69.2049C144.564 70.1838 144.302 71.5143 143.324 72.17C143.077 72.3363 142.806 72.4456 142.53 72.4979Z" fill="#605D5A"/>
<path d="M101.846 14.1655L105.433 11.8372L98.3438 1.26458C97.688 0.280968 96.3575 0.019623 95.3787 0.680113C94.3998 1.33585 94.1337 2.66634 94.7942 3.64519L101.846 14.1655Z" fill="#E8D441"/>
<path d="M136.785 58.5847L133.207 60.9273L140.354 71.5854C140.843 72.3172 141.708 72.6498 142.525 72.4978C142.801 72.4455 143.072 72.3362 143.319 72.1699C144.298 71.5142 144.564 70.1837 143.903 69.2048L136.785 58.5847Z" fill="#E8D441"/>
<path d="M113.635 111.837C114.604 96.7981 109.995 85.8263 109.995 85.8263L113.364 85.1753L113.435 85.0946C103.542 59.7441 76.6806 44.2677 49.0018 49.6039C17.8209 55.6148 -2.583 85.7693 3.42794 116.95C9.43888 148.131 39.5886 168.535 70.7695 162.524C95.3739 157.782 113.264 138.005 116.766 114.555C116.809 113.581 116.467 111.909 113.635 111.837Z" fill="url(#paint9_radial)"/>
<path d="M114.195 125.247L16.709 144.045C19.6123 147.338 22.872 150.274 26.4168 152.812L108.441 136.998C110.793 133.32 112.727 129.381 114.195 125.247Z" fill="#D8CFF7"/>
<path d="M86.7222 144.376L105.017 140.849L101.897 124.668L83.6027 128.195L86.7222 144.376Z" fill="#512BD4"/>
<path d="M88.7453 137.725C88.6217 137.748 88.5125 137.725 88.4127 137.663C88.3129 137.596 88.2511 137.506 88.2274 137.392C88.2036 137.273 88.2274 137.169 88.2986 137.069C88.3699 136.969 88.4649 136.907 88.5837 136.884C88.7073 136.86 88.8213 136.884 88.9211 136.95C89.0256 137.017 89.0874 137.107 89.1112 137.226C89.1349 137.34 89.1064 137.449 89.0351 137.549C88.9639 137.639 88.8688 137.701 88.7453 137.725Z" fill="white"/>
<path d="M93.5968 136.727L92.8032 136.879L90.0948 133.985C90.0282 133.914 89.9665 133.833 89.9142 133.752L89.8952 133.757C89.9284 133.847 89.976 134.052 90.0377 134.365L90.5937 137.297L89.8952 137.43L89.0446 132.954L89.8857 132.792L92.5134 135.62C92.6227 135.738 92.6939 135.819 92.732 135.862H92.7462C92.7034 135.748 92.6559 135.548 92.5989 135.263L92.0525 132.379L92.751 132.246L93.5968 136.727Z" fill="white"/>
<path d="M97.0085 136.081L94.5566 136.546L93.7061 132.07L96.0582 131.624L96.177 132.256L94.5471 132.564L94.7894 133.833L96.291 133.548L96.4098 134.175L94.9082 134.46L95.1601 135.786L96.885 135.458L97.0085 136.081Z" fill="white"/>
<path d="M99.7598 131.571L98.5054 131.809L99.2371 135.653L98.5149 135.791L97.7831 131.947L96.5334 132.184L96.4146 131.552L99.6458 130.939L99.7598 131.571Z" fill="white"/>
<path d="M113.754 111.818C114.713 96.9597 110.228 86.083 110.119 85.8217L51.5439 97.1118C51.5439 97.1118 47.7805 97.4491 48.4315 100.818C49.0825 104.187 51.0545 113.686 53.0882 124.22C53.5064 126.387 55.4831 127.09 56.8754 126.82C56.8754 126.82 112.732 114.437 113.754 111.818Z" fill="url(#paint10_radial)"/>
<path d="M77.7687 118.789C77.7687 118.789 85.4 109.922 86.9063 108.264C88.4079 106.606 89.9332 106.235 91.8149 107.318C93.6965 108.402 104.074 113.719 104.074 113.719L77.7687 118.789Z" fill="#A08BE8"/>
<path d="M116.676 115.316C116.676 115.316 117.769 111.913 113.754 111.814C113.754 111.799 56.1531 122.871 56.1531 122.871C54.8131 123.127 52.9362 122.662 52.5323 121.393C52.7129 122.324 52.8982 123.265 53.0787 124.216C53.4589 126.183 55.1172 126.938 56.4667 126.862C56.5998 126.853 56.7376 126.843 56.8706 126.815L60.8098 126.055L116.676 115.316Z" fill="#512BD4"/>
<path d="M69.2875 114.757C71.7179 114.25 72.9981 110.526 72.1467 106.439C71.2954 102.351 68.635 99.448 66.2045 99.9542C63.774 100.46 62.4939 104.184 63.3453 108.272C64.1966 112.36 66.857 115.263 69.2875 114.757Z" fill="#512BD4"/>
<path d="M104.623 107.904C107.067 107.471 108.458 103.787 107.729 99.6759C107 95.5649 104.428 92.5837 101.983 93.0172C99.5388 93.4506 98.1482 97.1346 98.8772 101.246C99.6062 105.357 102.179 108.338 104.623 107.904Z" fill="#512BD4"/>
<path d="M66.9966 103.636C67.7236 102.562 68.864 101.93 70.0614 101.807C71.0023 102.966 71.7626 104.572 72.1522 106.43C72.3945 107.585 72.4563 108.711 72.3803 109.742C71.064 110.407 69.4342 110.36 68.1227 109.476C66.1983 108.179 65.6946 105.56 66.9966 103.636Z" fill="#8065E0"/>
<path d="M102.497 96.5462C103.224 95.4676 104.369 94.8356 105.566 94.7168C106.578 95.919 107.382 97.6629 107.738 99.6776C107.918 100.709 107.971 101.711 107.904 102.643C106.583 103.322 104.939 103.279 103.623 102.386C101.698 101.084 101.195 98.4707 102.497 96.5462Z" fill="#8065E0"/>
<path d="M42.5679 47.7651L53.1073 45.6886L47.6903 26.9098L40.1255 28.3923L42.5679 47.7651Z" fill="#8A6FE8"/>
<path d="M47.2532 34.8261C43.6038 36.57 39.2227 35.0637 37.4551 31.4571C35.6874 27.8505 37.208 23.5217 40.8526 21.7778C44.5019 20.034 48.883 21.5403 50.6506 25.1468C52.4183 28.7534 50.9025 33.0822 47.2532 34.8261Z" fill="#D8CFF7"/>
<path d="M39.8499 55.0922C39.3795 55.1777 38.9043 54.8546 38.8758 54.3795C38.4387 49.3284 41.8979 44.6479 47.0488 43.6358C52.1997 42.6237 57.2128 45.6315 58.7713 50.4688C58.9186 50.9249 58.6193 51.4049 58.1441 51.4952L39.8499 55.0922Z" fill="#522CD5"/>
<path d="M69.4912 51.1341C53.5777 54.1277 25.7468 59.3594 25.7468 59.3594C25.7468 59.3594 22.7104 39.4211 10.9926 13.5574C39.0421 -2.51291 66.5974 3.10363 66.5974 3.10363C66.5974 3.10363 63.9269 28.9721 69.4912 51.1341Z" fill="url(#paint11_radial)"/>
<path d="M66.9871 37.031L22.5584 45.3845C24.9437 54.0612 25.7515 59.3546 25.7515 59.3546C25.7515 59.3546 53.5824 54.123 69.496 51.1294C68.3318 46.506 67.5288 41.7162 66.9871 37.031Z" fill="#E86E58"/>
<path d="M9.70499 59.6777C11.1067 63.6881 15.255 66.1876 19.5601 65.3798L80.0496 54.0041C84.3547 53.1963 87.3102 49.3569 87.1582 45.1089L9.70499 59.6777Z" fill="#33312D"/>
<path d="M134.352 29.4043C132.551 27.2138 129.339 26.8479 127.096 28.5775L121.874 32.607C119.422 34.5219 118.871 37.9337 120.648 40.224C122.425 42.5143 125.851 42.8184 128.303 40.8987L133.507 36.8883C135.849 35.0826 136.234 31.6946 134.352 29.4043Z" fill="#8A6FE8"/>
<path d="M136.296 36.8693C134.495 34.6787 131.283 34.3128 129.04 36.0425L123.818 40.0719C121.366 41.9869 120.815 45.3986 122.592 47.689C124.369 49.9793 127.795 50.2834 130.247 48.3637L135.45 44.3532C137.788 42.5476 138.173 39.1596 136.296 36.8693Z" fill="#8A6FE8"/>
<path d="M137.569 45.8169C135.768 43.6264 132.556 43.2605 130.313 44.9901L126.07 48.2878C123.618 50.2027 123.067 53.6145 124.844 55.9048C126.621 58.1952 130.047 58.4993 132.499 56.5796L136.723 53.2961C139.061 51.4952 139.451 48.1072 137.569 45.8169Z" fill="#8A6FE8"/>
<path d="M14.5897 182.13C13.9197 181.417 -1.95579 165.399 0.667167 145.532C2.18297 134.056 9.34858 124.263 21.9739 116.427L27.2341 125.556C17.4788 131.614 12.2376 138.818 11.1447 146.948C9.15851 161.773 22.3303 175.273 22.4586 175.415L14.5897 182.13Z" fill="url(#paint12_linear)"/>
<path d="M24.3878 131.11C30.219 131.11 34.9461 126.383 34.9461 120.552C34.9461 114.721 30.219 109.994 24.3878 109.994C18.5565 109.994 13.8294 114.721 13.8294 120.552C13.8294 126.383 18.5565 131.11 24.3878 131.11Z" fill="url(#paint13_radial)"/>
<path d="M32.4753 167.803L17.8399 165.855C15.2312 165.508 12.8364 167.342 12.4895 169.951C12.1426 172.56 13.9768 174.955 16.5855 175.302L31.2208 177.25C33.8295 177.597 36.2244 175.762 36.5713 173.154C36.9134 170.545 35.084 168.15 32.4753 167.803Z" fill="#8A6FE8"/>
<path d="M6.54984 180.239L7.92309 190.07C8.30798 192.688 10.7409 194.499 13.3591 194.114C15.9773 193.729 17.7877 191.296 17.4028 188.678L15.9915 178.594L6.54984 180.239Z" fill="#8A6FE8"/>
<path d="M11.0212 183.204L18.3627 194.76C19.7882 196.988 22.7533 197.639 24.9818 196.209C27.2104 194.784 27.8614 191.819 26.4311 189.59L20.9999 180.98L11.0212 183.204Z" fill="#8A6FE8"/>
<path d="M15.0222 178.932L24.8012 188.53C26.6877 190.388 29.7193 190.365 31.5772 188.478C33.4351 186.592 33.4114 183.56 31.5249 181.702L21.5653 171.923L15.0222 178.932Z" fill="#8A6FE8"/>
<path d="M15.1552 185.831C20.6925 185.831 25.1814 181.342 25.1814 175.805C25.1814 170.268 20.6925 165.779 15.1552 165.779C9.61792 165.779 5.12906 170.268 5.12906 175.805C5.12906 181.342 9.61792 185.831 15.1552 185.831Z" fill="url(#paint14_radial)"/>
<defs>
<linearGradient id="paint0_linear" x1="171.391" y1="99.5929" x2="267.38" y2="154.62" gradientUnits="userSpaceOnUse">
<stop offset="0.5533" stop-color="#B3AFAB"/>
<stop offset="0.9712" stop-color="#605D5A"/>
</linearGradient>
<radialGradient id="paint1_radial" cx="0" cy="0" r="1" gradientUnits="userSpaceOnUse" gradientTransform="translate(246.172 22.6686) rotate(180) scale(24.6248)">
<stop offset="0.4634" stop-color="#8065E0"/>
<stop offset="1" stop-color="#512BD4"/>
</radialGradient>
<linearGradient id="paint2_linear" x1="72.1233" y1="146.521" x2="81.1684" y2="189.599" gradientUnits="userSpaceOnUse">
<stop offset="0.2417" stop-color="#522CD5"/>
<stop offset="0.552" stop-color="#8A6FE8"/>
</linearGradient>
<linearGradient id="paint3_linear" x1="79.026" y1="187.475" x2="105.896" y2="235.38" gradientUnits="userSpaceOnUse">
<stop stop-color="#522CD5"/>
<stop offset="0.4397" stop-color="#8A6FE8"/>
</linearGradient>
<radialGradient id="paint4_radial" cx="0" cy="0" r="1" gradientUnits="userSpaceOnUse" gradientTransform="translate(99.017 214.053) rotate(-0.260742) scale(18.6218)">
<stop offset="0.034" stop-color="#522CD5"/>
<stop offset="0.9955" stop-color="#8A6FE8"/>
</radialGradient>
<linearGradient id="paint5_linear" x1="52.3445" y1="146.574" x2="43.6911" y2="189.731" gradientUnits="userSpaceOnUse">
<stop offset="0.2544" stop-color="#522CD5"/>
<stop offset="0.5658" stop-color="#8A6FE8"/>
</linearGradient>
<linearGradient id="paint6_linear" x1="44.5178" y1="188.759" x2="44.7236" y2="233.991" gradientUnits="userSpaceOnUse">
<stop stop-color="#522CD5"/>
<stop offset="0.4397" stop-color="#8A6FE8"/>
</linearGradient>
<radialGradient id="paint7_radial" cx="0" cy="0" r="1" gradientUnits="userSpaceOnUse" gradientTransform="translate(45.2861 214.243) rotate(179.739) scale(20.4157)">
<stop offset="0.034" stop-color="#522CD5"/>
<stop offset="0.9955" stop-color="#8A6FE8"/>
</radialGradient>
<radialGradient id="paint8_radial" cx="0" cy="0" r="1" gradientUnits="userSpaceOnUse" gradientTransform="translate(118.397 42.8699) rotate(128.016) scale(16.8631 18.1223)">
<stop stop-color="#8065E0"/>
<stop offset="1" stop-color="#512BD4"/>
</radialGradient>
<radialGradient id="paint9_radial" cx="0" cy="0" r="1" gradientUnits="userSpaceOnUse" gradientTransform="translate(67.0778 84.7984) rotate(169.088) scale(57.2603)">
<stop offset="0.4744" stop-color="#A08BE8"/>
<stop offset="0.8618" stop-color="#8065E0"/>
</radialGradient>
<radialGradient id="paint10_radial" cx="0" cy="0" r="1" gradientUnits="userSpaceOnUse" gradientTransform="translate(101.528 77.3358) rotate(169.088) scale(59.3401)">
<stop offset="0.0933" stop-color="#E1DFDD"/>
<stop offset="0.6573" stop-color="white"/>
</radialGradient>
<radialGradient id="paint11_radial" cx="0" cy="0" r="1" gradientUnits="userSpaceOnUse" gradientTransform="translate(61.0494 -4.09675) rotate(-10.6492) scale(66.0406)">
<stop offset="0.4051" stop-color="#797673"/>
<stop offset="1" stop-color="#33312D"/>
</radialGradient>
<linearGradient id="paint12_linear" x1="13.8012" y1="116.426" x2="13.8012" y2="182.132" gradientUnits="userSpaceOnUse">
<stop stop-color="#9780E6"/>
<stop offset="1" stop-color="#8A6FE8"/>
</linearGradient>
<radialGradient id="paint13_radial" cx="0" cy="0" r="1" gradientUnits="userSpaceOnUse" gradientTransform="translate(21.8147 117.417) rotate(-10.9121) scale(10.5605)">
<stop stop-color="#8065E0"/>
<stop offset="1" stop-color="#512BD4"/>
</radialGradient>
<radialGradient id="paint14_radial" cx="0" cy="0" r="1" gradientUnits="userSpaceOnUse" gradientTransform="translate(14.9294 171.831) scale(10.0299)">
<stop stop-color="#8065E0"/>
<stop offset="1" stop-color="#512BD4"/>
</radialGradient>
</defs>
</svg>
