<svg width="299" height="217" viewBox="0 0 299 217" fill="none" xmlns="http://www.w3.org/2000/svg">
<path d="M84.2261 198C128.588 198 164.55 196.36 164.55 194.337C164.55 192.313 128.588 190.673 84.2261 190.673C39.8642 190.673 3.90186 192.313 3.90186 194.337C3.90186 196.36 39.8642 198 84.2261 198Z" fill="#E1DFDD"/>
<path d="M280.55 82.4583L280.033 82.0718L273.055 91.3435L273.572 91.73C282.777 98.6576 287.297 104.98 287.393 111.063C287.503 118.075 281.659 126.225 269.522 135.971L269.018 136.375L276.286 145.42L276.79 145.016C292.111 132.711 299.169 121.864 298.997 110.883C298.837 100.981 292.804 91.6838 280.55 82.4583Z" fill="url(#paint0_linear)"/>
<path d="M282.239 123.574C281.97 123.923 281.693 124.276 281.403 124.629L291.128 131.031C291.41 130.674 291.679 130.317 291.943 129.964L282.239 123.574Z" fill="#A08BE8"/>
<path d="M298.993 111.139L287.289 112.891C287.221 113.412 287.129 113.937 287.003 114.466L297.594 119.596C298.543 116.768 299.005 113.958 298.993 111.139Z" fill="#A08BE8"/>
<path d="M293.405 95.1121L284.129 102.065C284.39 102.443 284.634 102.817 284.865 103.191L294.17 96.2169C293.926 95.8472 293.666 95.4776 293.405 95.1121Z" fill="#A08BE8"/>
<path d="M188.299 149.549C178.414 149.848 163.664 145.789 154.119 133.762C147.503 125.427 142.945 110.677 149.175 90.4194L160.337 93.6458C156.258 106.358 157.476 119.134 163.299 126.641C169.604 134.77 180.22 138.169 187.946 137.938L188.299 149.549Z" fill="url(#paint1_linear)"/>
<path d="M157.796 108.245L146.335 108.354L146.348 109.694L157.809 109.585L157.796 108.245Z" fill="#A08BE8"/>
<path d="M169.919 132.621L163.787 142.303L164.919 143.02L171.051 133.338L169.919 132.621Z" fill="#A08BE8"/>
<path d="M152.884 132.073L160.871 122.847C160.656 122.435 160.459 122.015 160.266 121.591L148.7 124.04C149.872 127.166 151.343 129.834 152.884 132.073Z" fill="#A08BE8"/>
<path d="M234.045 177.091C236.809 190.199 250.58 201.458 251.45 201.97C252.319 202.483 226.521 202.747 226.521 202.747C226.521 202.747 218.938 184.62 222.215 176.633C222.521 175.886 234.045 177.091 234.045 177.091Z" fill="#A08BE8"/>
<path d="M227.604 200.97L250.236 201.079C250.236 201.079 255.495 204.613 256.894 207.163C257.961 209.112 257.89 213.485 257.797 215.434C257.772 215.976 257.323 216.405 256.777 216.401L234.948 216.359C234.246 216.359 233.683 215.787 233.688 215.086C233.709 212.67 233.297 207.52 232.385 206.049C231.024 203.856 227.604 200.97 227.604 200.97Z" fill="#D0C5F3"/>
<path d="M220.74 174.84C216.568 189.413 218.274 212.523 218.446 213.746C218.685 215.439 218.916 216.623 221.324 216.623C224.319 216.623 237.191 216.623 237.191 216.623L230.432 175.781L220.74 174.84Z" fill="#8065E0"/>
<path d="M234.045 177.091C235.053 184.242 242.186 194.295 255.705 204.814C257.285 206.045 258.1 207.343 258.1 209.171V215.027C258.1 215.892 257.398 216.594 256.533 216.594H234.834C234.221 216.594 233.725 216.098 233.725 215.485V208.725C233.725 206.621 233.301 205.537 231.142 203.991C225.735 200.113 222.32 187.027 222.21 177.722C222.097 168.412 234.045 177.091 234.045 177.091Z" fill="#A08BE8"/>
<path d="M257.894 207.73C258.024 208.175 258.1 208.65 258.1 209.171V215.027C258.1 215.892 257.398 216.594 256.533 216.594H234.834C234.221 216.594 233.725 216.098 233.725 215.485V208.725C233.725 208.364 233.713 208.036 233.679 207.73H257.894V207.73Z" fill="#D0C5F3"/>
<path d="M197.323 177.091C194.559 190.199 180.788 201.458 179.918 201.97C179.048 202.483 204.847 202.747 204.847 202.747C204.847 202.747 212.43 184.62 209.153 176.633C208.851 175.886 197.323 177.091 197.323 177.091Z" fill="#A08BE8"/>
<path d="M203.768 200.97L181.137 201.079C181.137 201.079 175.877 204.613 174.478 207.163C173.411 209.112 173.482 213.485 173.575 215.434C173.6 215.976 174.049 216.405 174.595 216.401L196.424 216.359C197.126 216.359 197.689 215.787 197.684 215.086C197.663 212.67 198.075 207.52 198.987 206.049C200.348 203.856 203.768 200.97 203.768 200.97Z" fill="#D0C5F3"/>
<path d="M210.632 174.84C214.804 189.413 213.098 212.523 212.926 213.746C212.686 215.439 212.455 216.623 210.048 216.623C207.053 216.623 194.181 216.623 194.181 216.623L200.94 175.781L210.632 174.84Z" fill="#8065E0"/>
<path d="M197.323 177.091C196.315 184.242 189.181 194.295 175.662 204.814C174.083 206.045 173.268 207.343 173.268 209.171V215.027C173.268 215.892 173.969 216.594 174.835 216.594H196.533C197.146 216.594 197.642 216.098 197.642 215.485V208.725C197.642 206.621 198.066 205.537 200.226 203.991C205.633 200.113 209.048 187.027 209.157 177.722C209.275 168.412 197.323 177.091 197.323 177.091Z" fill="#A08BE8"/>
<path d="M173.478 207.73C173.348 208.175 173.272 208.65 173.272 209.171V215.027C173.272 215.892 173.974 216.594 174.839 216.594H196.537C197.151 216.594 197.646 216.098 197.646 215.485V208.725C197.646 208.364 197.659 208.036 197.693 207.73H173.478V207.73Z" fill="#D0C5F3"/>
<path d="M221.258 129.25L221.292 161.169L232.752 161.161L232.719 129.237L221.258 129.25Z" fill="url(#paint2_linear)"/>
<path d="M232.7 147.075H221.227V148.57H232.7V147.075Z" fill="#A08BE8"/>
<path d="M197.69 129.25L197.724 161.169L209.184 161.161L209.15 129.237L197.69 129.25Z" fill="url(#paint3_linear)"/>
<path d="M209.132 147.075H197.659V148.57H209.132V147.075Z" fill="#A08BE8"/>
<path d="M275.429 95.2633C281.361 95.2633 286.171 90.4539 286.171 84.5212C286.171 78.5885 281.361 73.7791 275.429 73.7791C269.496 73.7791 264.687 78.5885 264.687 84.5212C264.687 90.4539 269.496 95.2633 275.429 95.2633Z" fill="url(#paint4_radial)"/>
<path d="M156.573 95.2633C162.505 95.2633 167.315 90.4539 167.315 84.5212C167.315 78.5885 162.505 73.7791 156.573 73.7791C150.64 73.7791 145.831 78.5885 145.831 84.5212C145.831 90.4539 150.64 95.2633 156.573 95.2633Z" fill="url(#paint5_radial)"/>
<path d="M216.228 136.778C248.534 136.778 274.723 110.589 274.723 78.2824C274.723 45.9762 248.534 19.7869 216.228 19.7869C183.922 19.7869 157.732 45.9762 157.732 78.2824C157.732 110.589 183.922 136.778 216.228 136.778Z" fill="url(#paint6_radial)"/>
<path d="M264.741 78.2825C264.741 84.6177 263.519 90.663 261.309 96.2084C260.776 97.5527 259.469 98.435 258.024 98.435H174.431C172.986 98.435 171.684 97.5527 171.146 96.2084C168.936 90.663 167.714 84.6177 167.714 78.2825C167.714 75.6904 167.924 73.153 168.319 70.6744C168.588 68.973 170.079 67.7336 171.801 67.7336H260.654C262.376 67.7336 263.868 68.973 264.137 70.6744C264.531 73.153 264.741 75.6946 264.741 78.2825Z" fill="url(#paint7_radial)"/>
<path d="M165.794 107.904H266.661C264.397 111.752 261.704 115.311 258.65 118.529H173.805C170.751 115.315 168.058 111.752 165.794 107.904Z" fill="url(#paint8_radial)"/>
<path d="M206.729 121.567L225.608 121.567L225.608 104.872L206.729 104.872L206.729 121.567Z" fill="#512BD4"/>
<path d="M168.315 70.6744C168.584 68.973 170.075 67.7336 171.798 67.7336H175.877C174.154 67.7336 172.663 68.973 172.394 70.6744C171.999 73.153 171.789 75.6946 171.789 78.2825C171.789 83.1935 172.533 87.9239 173.89 92.3896C174.39 93.6164 175.717 94.3557 177.07 94.3557H255.348C256.793 94.3557 258.226 93.5197 258.633 92.1292C258.923 91.1419 259.188 90.1337 259.427 89.138C260.23 85.6469 260.667 82.0172 260.667 78.2825C260.667 75.6904 260.457 73.153 260.062 70.6744C259.793 68.973 258.302 67.7336 256.579 67.7336H260.658C262.381 67.7336 263.872 68.973 264.141 70.6744C264.536 73.153 264.746 75.6946 264.746 78.2825C264.746 84.6177 263.523 90.663 261.314 96.2084C260.78 97.5527 259.474 98.435 258.028 98.435H253.949H178.507H174.432H174.427C172.982 98.435 171.68 97.5527 171.142 96.2084C168.932 90.663 167.71 84.6177 167.71 78.2825C167.71 75.6946 167.92 73.153 168.315 70.6744Z" fill="url(#paint9_radial)"/>
<path d="M224.705 94.3557C224.705 94.3557 218.874 89.7388 217.736 88.8859C216.597 88.0331 215.602 87.9827 214.56 88.8859C213.518 89.7892 207.674 94.3557 207.674 94.3557H224.705Z" fill="#A08BE8"/>
<path d="M233.574 160.749H221.525C219.908 160.749 218.597 162.06 218.597 163.677V176.129C218.597 177.747 219.908 179.057 221.525 179.057H233.574C235.191 179.057 236.502 177.747 236.502 176.129V163.677C236.502 162.06 235.191 160.749 233.574 160.749Z" fill="url(#paint10_radial)"/>
<path d="M209.892 160.749H197.844C196.226 160.749 194.916 162.06 194.916 163.677V176.129C194.916 177.747 196.226 179.057 197.844 179.057H209.892C211.51 179.057 212.82 177.747 212.82 176.129V163.677C212.82 162.06 211.51 160.749 209.892 160.749Z" fill="url(#paint11_radial)"/>
<path d="M195.43 88.1927C197.956 88.1551 199.953 84.681 199.89 80.4332C199.826 76.1854 197.727 72.7724 195.2 72.81C192.674 72.8477 190.677 76.3217 190.741 80.5695C190.804 84.8174 192.903 88.2304 195.43 88.1927Z" fill="#512BD4"/>
<path d="M241.199 80.529C241.262 76.2811 239.265 72.8071 236.739 72.7694C234.212 72.7318 232.113 76.1448 232.05 80.3926C231.986 84.6404 233.983 88.1145 236.51 88.1522C239.036 88.1898 241.135 84.7768 241.199 80.529Z" fill="#512BD4"/>
<path d="M195.277 76.6441C193.605 78.3161 193.605 81.0258 195.277 82.6936C196.415 83.8321 198.033 84.1934 199.478 83.7817C199.755 82.765 199.907 81.6308 199.89 80.4293C199.86 78.501 199.411 76.7491 198.692 75.409C197.47 75.2956 196.21 75.7073 195.277 76.6441Z" fill="#8065E0"/>
<path d="M236.569 76.3921C234.897 78.0641 234.897 80.7738 236.569 82.4416C237.712 83.5843 239.346 83.9456 240.795 83.5213C241.043 82.6012 241.186 81.593 241.203 80.5301C241.232 78.4464 240.766 76.5517 239.989 75.157C238.766 75.0477 237.506 75.4552 236.569 76.3921Z" fill="#8065E0"/>
<path d="M186.948 151.573L259.228 151.573L259.228 100.891L186.948 100.891L186.948 151.573Z" fill="#FADCBD"/>
<path d="M186.945 151.573L195.952 151.573L195.952 100.891L186.945 100.891L186.945 151.573Z" fill="#E0BB95"/>
<path d="M184.778 109.833L262.342 109.833L262.342 98.9023L184.778 98.9023L184.778 109.833Z" fill="#FADCBD"/>
<path d="M184.775 109.833L196.673 109.833L196.673 98.9023L184.775 98.9023L184.775 109.833Z" fill="#E0BB95"/>
<path d="M212.754 122.499L208.288 114.786C208.145 114.542 207.792 114.542 207.654 114.786L203.188 122.499C203.045 122.742 203.221 123.049 203.507 123.049H205.717C205.918 123.049 206.082 123.213 206.082 123.414V126.141C206.082 126.343 206.246 126.506 206.448 126.506H209.426C209.628 126.506 209.792 126.343 209.792 126.141V123.414C209.792 123.213 209.956 123.049 210.157 123.049H212.434C212.72 123.049 212.896 122.742 212.754 122.499Z" fill="#E0BB95"/>
<path d="M259.23 109.837H186.951V111.765H259.23V109.837Z" fill="url(#paint12_linear)"/>
<path d="M237.271 98.9055H219.962V118.919H237.271V98.9055Z" fill="white"/>
<path d="M196.987 125.721L179.3 134.799C177.624 135.66 176.96 137.719 177.822 139.395L179.489 142.643C180.351 144.319 182.409 144.983 184.085 144.121L201.772 135.043C203.448 134.182 204.112 132.123 203.251 130.447L201.583 127.2C200.722 125.519 198.663 124.86 196.987 125.721Z" fill="#D0C5F3"/>
<path d="M179.742 154.032L187.148 162.051C189.135 164.173 192.467 164.282 194.592 162.295C196.714 160.308 196.823 156.977 194.836 154.851L187.245 146.629L179.742 154.032Z" fill="#D0C5F3"/>
<path d="M185.644 153.905L199.516 159.745C202.2 160.862 205.284 159.594 206.401 156.909C207.519 154.225 206.25 151.141 203.566 150.024L193.265 145.65L185.644 153.905Z" fill="#D0C5F3"/>
<path d="M186.577 147.537L201.427 150.074C204.293 150.57 207.019 148.65 207.515 145.781C208.01 142.916 206.091 140.189 203.221 139.693L188.097 137.105L186.577 147.537Z" fill="#D0C5F3"/>
<path d="M184.736 155.657C190.825 155.657 195.76 150.722 195.76 144.634C195.76 138.546 190.825 133.61 184.736 133.61C178.648 133.61 173.713 138.546 173.713 144.634C173.713 150.722 178.648 155.657 184.736 155.657Z" fill="url(#paint13_radial)"/>
<path d="M257.503 122.448L274.366 132.976C275.967 133.976 276.45 136.081 275.454 137.677L273.522 140.773C272.522 142.374 270.417 142.857 268.821 141.861L251.958 131.334C250.357 130.334 249.874 128.229 250.87 126.633L252.802 123.536C253.802 121.936 255.907 121.448 257.503 122.448Z" fill="#D0C5F3"/>
<path d="M272.316 152.108L264.267 159.476C262.107 161.426 258.776 161.254 256.831 159.094C254.881 156.935 255.054 153.603 257.213 151.658L265.468 144.101L272.316 152.108Z" fill="#D0C5F3"/>
<path d="M266.447 151.486L252.134 156.141C249.366 157.032 246.4 155.507 245.509 152.738C244.618 149.97 246.143 147.004 248.912 146.113L259.545 142.618L266.447 151.486Z" fill="#D0C5F3"/>
<path d="M266.048 145.063L251.038 146.348C248.139 146.6 245.585 144.458 245.333 141.563C245.081 138.664 247.223 136.11 250.118 135.858L265.405 134.547L266.048 145.063Z" fill="#D0C5F3"/>
<path d="M268.123 153.347C274.211 153.347 279.147 148.412 279.147 142.324C279.147 136.235 274.211 131.3 268.123 131.3C262.035 131.3 257.1 136.235 257.1 142.324C257.1 148.412 262.035 153.347 268.123 153.347Z" fill="url(#paint14_radial)"/>
<path d="M156.4 185.939H8.75432C6.15806 185.939 3.82228 184.355 2.86864 181.939L0.360606 175.609C0.0665325 174.869 -0.0510971 174.071 0.0203208 173.277L4.11635 125.897C4.79272 118.054 11.3884 112.055 19.2612 112.118L103.69 112.798C109.386 112.845 114.718 115.596 118.049 120.222C126.224 131.565 141.512 152.217 141.512 152.217C141.512 152.217 152.376 158.334 156.921 160.951C158.27 161.728 159.249 163.005 159.644 164.509L162.694 176.075C162.979 177.154 162.95 178.293 162.614 179.356L161.778 181.998C161.038 184.342 158.862 185.939 156.4 185.939Z" fill="#92D5CD"/>
<path d="M157.56 164.282C157.425 163.715 156.988 163.27 156.421 163.123L149.414 161.325C148.233 161.022 147.158 162.207 147.33 163.627L147.998 169.185C148.12 170.181 148.83 170.929 149.679 170.95L157.77 171.147C158.488 171.164 159.03 170.496 158.866 169.794L157.56 164.282Z" fill="white"/>
<path d="M2.41508 172.537C3.95687 172.537 5.20879 171.285 5.20879 169.744V157.498C5.20879 155.956 3.95687 154.704 2.41508 154.704H1.62528L0.0834961 172.537H2.41508Z" fill="#E86E58"/>
<path d="M0.61703 166.375L0.0834961 172.537H2.41928C3.96107 172.537 5.21299 171.286 5.21299 169.744V166.375H0.61703V166.375Z" fill="white"/>
<path d="M2.86852 181.939C3.82636 184.355 6.15795 185.939 8.7542 185.939H156.396C158.858 185.939 161.034 184.342 161.778 181.994L162.614 179.351C162.95 178.289 162.975 177.15 162.694 176.07L162.66 175.94H0.490723L2.86852 181.939Z" fill="#797673"/>
<path d="M137.37 154.771L137.441 153.616C137.487 152.851 137.261 152.095 136.799 151.482L121.587 131.296C120.998 130.514 120.083 130.039 119.099 130.014L106.076 129.661C104.219 129.611 102.707 131.136 102.77 132.993L103.518 154.817C103.577 156.557 105.009 157.934 106.753 157.926L134.169 157.792C135.87 157.787 137.269 156.464 137.37 154.771Z" fill="white"/>
<path d="M135.572 149.675H139.13C139.403 149.675 139.621 149.457 139.621 149.184V135.572C139.621 135.299 139.403 135.081 139.13 135.081H135.572C135.299 135.081 135.08 135.299 135.08 135.572V149.184C135.08 149.457 135.299 149.675 135.572 149.675Z" fill="#6ECFC3"/>
<path d="M103.518 154.817C103.576 156.556 105.009 157.934 106.752 157.926L111.096 157.905L107.193 147.079L106.723 141.647C106.622 140.492 105.673 139.597 104.517 139.567L102.997 139.525L103.518 154.817Z" fill="#B3AFAB"/>
<path d="M126.695 155.229C127.17 155.485 127.829 155.826 128.22 156.023L125.54 157.838L134.173 157.796C135.48 157.787 136.601 157.002 137.101 155.872L133.446 153.859C132.762 153.481 131.921 153.519 131.27 153.96L129.934 154.868L127.775 153.565L129.375 151.083C129.514 150.868 129.451 150.583 129.237 150.448L129.039 150.322C128.825 150.184 128.539 150.247 128.405 150.461L123.834 157.544C123.771 157.64 123.754 157.75 123.771 157.855L125.015 157.85L126.695 155.229Z" fill="#B3AFAB"/>
<path d="M111.084 160.968H105.084V163.077H111.084V160.968Z" fill="#797673"/>
<path d="M37.3132 195.908C43.5823 195.908 48.6644 190.826 48.6644 184.557C48.6644 178.287 43.5823 173.205 37.3132 173.205C31.044 173.205 25.9619 178.287 25.9619 184.557C25.9619 190.826 31.044 195.908 37.3132 195.908Z" fill="#605D5A"/>
<path d="M37.3132 191.803C41.3155 191.803 44.5601 188.559 44.5601 184.556C44.5601 180.554 41.3155 177.31 37.3132 177.31C33.3109 177.31 30.0664 180.554 30.0664 184.556C30.0664 188.559 33.3109 191.803 37.3132 191.803Z" fill="white"/>
<path d="M37.3133 187.825C39.1184 187.825 40.5818 186.362 40.5818 184.557C40.5818 182.751 39.1184 181.288 37.3133 181.288C35.5082 181.288 34.0449 182.751 34.0449 184.557C34.0449 186.362 35.5082 187.825 37.3133 187.825Z" fill="#E1DFDD"/>
<path d="M130.85 195.908C137.119 195.908 142.201 190.826 142.201 184.557C142.201 178.287 137.119 173.205 130.85 173.205C124.581 173.205 119.499 178.287 119.499 184.557C119.499 190.826 124.581 195.908 130.85 195.908Z" fill="#605D5A"/>
<path d="M130.85 191.803C134.852 191.803 138.097 188.559 138.097 184.556C138.097 180.554 134.852 177.31 130.85 177.31C126.848 177.31 123.603 180.554 123.603 184.556C123.603 188.559 126.848 191.803 130.85 191.803Z" fill="white"/>
<path d="M130.849 187.825C132.655 187.825 134.118 186.362 134.118 184.557C134.118 182.751 132.655 181.288 130.849 181.288C129.044 181.288 127.581 182.751 127.581 184.557C127.581 186.362 129.044 187.825 130.849 187.825Z" fill="#E1DFDD"/>
<path d="M11.5059 163.656H143.906" stroke="#6ECFC3" stroke-width="2" stroke-miterlimit="10" stroke-linecap="round" stroke-linejoin="round"/>
<path d="M244.463 30.1466C244.463 30.1466 248.004 41.2878 237.086 39.3217C216.459 35.6038 200.986 37.6413 193.79 39.9225C187.408 41.9432 187.614 33.8058 187.795 30.2097C187.98 26.6094 244.463 30.1466 244.463 30.1466Z" fill="#8065E0"/>
<path d="M266.674 67.7295C265.598 67.7295 264.615 67.0069 264.33 65.9188C260.582 51.652 250.512 39.9521 237.422 33.911C233.889 32.281 235.523 27.6976 239.392 29.4789C253.81 36.1123 264.901 48.9844 269.022 64.6879C269.363 65.9818 268.59 67.3094 267.291 67.6497C267.086 67.7043 266.876 67.7295 266.674 67.7295Z" fill="url(#paint15_radial)"/>
<path d="M197.26 31.5584C197.436 32.6171 196.89 33.7094 195.865 34.1715C178.788 41.8678 167.487 58.9367 167.075 77.6566C167.046 78.9968 165.937 80.0554 164.597 80.026C163.256 79.9966 162.198 78.8875 162.227 77.5474C162.677 56.9706 175.099 38.2087 193.874 29.7478C195.096 29.1974 196.529 29.7394 197.079 30.9619C197.167 31.1593 197.226 31.361 197.26 31.5584Z" fill="url(#paint16_radial)"/>
<path d="M245.072 30.1383C245.072 43.985 231.415 32.4699 215.715 32.4699C200.012 32.4699 187.736 43.6237 187.736 30.1383L215.955 16.2791L245.072 30.1383Z" fill="#C3F2F4"/>
<path d="M245.122 30.1131C245.122 30.1131 243.534 17.6024 237.334 6.92749C234.712 2.41556 225.747 0.449463 216.837 0.449463C216.694 0.449463 216.131 0.449463 215.984 0.449463C207.074 0.449463 198.541 2.69283 195.487 6.92749C188.123 17.1193 187.698 30.1131 187.698 30.1131C187.698 30.1131 198.797 25.6348 216.064 25.6348C233.221 25.6348 245.122 30.1131 245.122 30.1131Z" fill="url(#paint17_linear)"/>
<path d="M235.838 11.5361C232.965 8.25512 224.92 6.81836 216.913 6.81836C216.778 6.81836 216.249 6.81836 216.11 6.81836C207.712 6.81836 199.676 8.62481 196.798 12.0277C196.529 12.3469 196.273 12.6662 196.025 12.9897C193.542 19.4257 192.786 25.7567 192.559 28.5756C197.394 27.2775 205.591 25.6307 216.072 25.6307C216.085 25.6307 216.098 25.6307 216.11 25.6307C216.114 25.6307 216.123 25.6307 216.127 25.6307C216.148 25.6307 216.169 25.6307 216.19 25.6307C226.655 25.6433 235.154 27.3195 240.17 28.6176C239.737 25.6475 238.527 18.6359 235.838 11.5361Z" fill="#92D5CD"/>
<path d="M216.791 1.62161C218.083 1.62161 219.131 1.2586 219.131 0.810804C219.131 0.363009 218.083 0 216.791 0C215.498 0 214.451 0.363009 214.451 0.810804C214.451 1.2586 215.498 1.62161 216.791 1.62161Z" fill="#92D5CD"/>
<path d="M102.77 132.993C102.707 131.136 104.219 129.611 106.076 129.662L119.099 130.014C120.078 130.04 120.994 130.514 121.586 131.296L136.798 151.482C137.26 152.095 137.487 152.851 137.441 153.616L137.369 154.771C137.369 154.784 137.365 154.801 137.361 154.813H146.112C143.49 153.33 141.507 152.217 141.507 152.217C141.507 152.217 126.22 131.565 118.045 120.222C114.713 115.601 109.382 112.845 103.685 112.798L19.2567 112.118C11.3882 112.055 4.7925 118.054 4.11193 125.897L1.6123 154.813H103.513L102.77 132.993Z" fill="#6ECFC3"/>
<path d="M94.0735 147.243H13.3628C12.468 147.243 11.7412 146.516 11.7412 145.621V125.838C11.7412 124.944 12.468 124.217 13.3628 124.217H94.0735C94.9683 124.217 95.6951 124.944 95.6951 125.838V145.621C95.6951 146.516 94.9683 147.243 94.0735 147.243Z" fill="#C3F2F4"/>
<defs>
<linearGradient id="paint0_linear" x1="278.282" y1="82.3055" x2="286.978" y2="143.9" gradientUnits="userSpaceOnUse">
<stop offset="0.12" stop-color="#958FE7"/>
<stop offset="0.2619" stop-color="#BBB7EF"/>
</linearGradient>
<linearGradient id="paint1_linear" x1="164.157" y1="89.1892" x2="169.312" y2="151.145" gradientUnits="userSpaceOnUse">
<stop offset="0.12" stop-color="#958FE7"/>
<stop offset="0.2619" stop-color="#BBB7EF"/>
</linearGradient>
<linearGradient id="paint2_linear" x1="227.005" y1="129.236" x2="227.005" y2="161.171" gradientUnits="userSpaceOnUse">
<stop offset="0.6518" stop-color="#958FE7"/>
<stop offset="0.8525" stop-color="#BBB7EF"/>
</linearGradient>
<linearGradient id="paint3_linear" x1="203.437" y1="129.236" x2="203.437" y2="161.171" gradientUnits="userSpaceOnUse">
<stop offset="0.6604" stop-color="#958FE7"/>
<stop offset="0.8132" stop-color="#BBB7EF"/>
</linearGradient>
<radialGradient id="paint4_radial" cx="0" cy="0" r="1" gradientUnits="userSpaceOnUse" gradientTransform="translate(278.632 80.1033) scale(10.7416)">
<stop stop-color="#8065E0"/>
<stop offset="1" stop-color="#512BD4"/>
</radialGradient>
<radialGradient id="paint5_radial" cx="0" cy="0" r="1" gradientUnits="userSpaceOnUse" gradientTransform="translate(156.513 80.4905) scale(10.7416)">
<stop stop-color="#8065E0"/>
<stop offset="1" stop-color="#512BD4"/>
</radialGradient>
<radialGradient id="paint6_radial" cx="0" cy="0" r="1" gradientUnits="userSpaceOnUse" gradientTransform="translate(232.72 64.5629) scale(58.4944)">
<stop offset="0.4744" stop-color="#A08BE8"/>
<stop offset="0.8618" stop-color="#8065E0"/>
</radialGradient>
<radialGradient id="paint7_radial" cx="0" cy="0" r="1" gradientUnits="userSpaceOnUse" gradientTransform="translate(197.568 56.5185) scale(70.9979)">
<stop offset="0.0933" stop-color="#E1DFDD"/>
<stop offset="0.6573" stop-color="white"/>
</radialGradient>
<radialGradient id="paint8_radial" cx="0" cy="0" r="1" gradientUnits="userSpaceOnUse" gradientTransform="translate(180.48 112.888) scale(35.8594)">
<stop offset="0.4614" stop-color="#A08BE8"/>
<stop offset="0.5268" stop-color="#A793EA"/>
<stop offset="0.8352" stop-color="#C5B7F0"/>
<stop offset="1" stop-color="#D0C5F3"/>
</radialGradient>
<radialGradient id="paint9_radial" cx="0" cy="0" r="1" gradientUnits="userSpaceOnUse" gradientTransform="translate(198.237 92.4228) scale(61.0335)">
<stop stop-color="#512BD4"/>
<stop offset="0.7715" stop-color="#6645D9"/>
<stop offset="0.8738" stop-color="#7659DD"/>
<stop offset="0.9583" stop-color="#8065E0"/>
</radialGradient>
<radialGradient id="paint10_radial" cx="0" cy="0" r="1" gradientUnits="userSpaceOnUse" gradientTransform="translate(227.55 169.904) scale(9.05458)">
<stop stop-color="#8065E0"/>
<stop offset="1" stop-color="#512BD4"/>
</radialGradient>
<radialGradient id="paint11_radial" cx="0" cy="0" r="1" gradientUnits="userSpaceOnUse" gradientTransform="translate(203.868 169.904) scale(9.05458)">
<stop stop-color="#8065E0"/>
<stop offset="1" stop-color="#512BD4"/>
</radialGradient>
<linearGradient id="paint12_linear" x1="259.23" y1="110.8" x2="186.949" y2="110.8" gradientUnits="userSpaceOnUse">
<stop offset="0.3418" stop-color="#E0BB95"/>
<stop offset="1" stop-color="#BF8F68"/>
</linearGradient>
<radialGradient id="paint13_radial" cx="0" cy="0" r="1" gradientUnits="userSpaceOnUse" gradientTransform="translate(182.051 141.2) rotate(-34.7564) scale(11.0259)">
<stop stop-color="#A08BE8"/>
<stop offset="1" stop-color="#8065E0"/>
</radialGradient>
<radialGradient id="paint14_radial" cx="0" cy="0" r="1" gradientUnits="userSpaceOnUse" gradientTransform="translate(271.092 139.108) rotate(-140.433) scale(11.026)">
<stop stop-color="#A08BE8"/>
<stop offset="1" stop-color="#8065E0"/>
</radialGradient>
<radialGradient id="paint15_radial" cx="0" cy="0" r="1" gradientUnits="userSpaceOnUse" gradientTransform="translate(252.284 48.4043) scale(18.1151)">
<stop offset="0.3607" stop-color="#BDB9F0"/>
<stop offset="0.5611" stop-color="#C3BCEB" stop-opacity="0.3855"/>
<stop offset="0.6338" stop-color="#CEC3E2" stop-opacity="0.3217"/>
<stop offset="0.8689" stop-color="#EDD6C9" stop-opacity="0.1152"/>
<stop offset="1" stop-color="#F9DDBF" stop-opacity="0"/>
</radialGradient>
<radialGradient id="paint16_radial" cx="0" cy="0" r="1" gradientUnits="userSpaceOnUse" gradientTransform="translate(179.831 54.7449) rotate(-99.5499) scale(21.7763)">
<stop stop-color="#BDB9F0"/>
<stop offset="0.5266" stop-color="#C3BCEB" stop-opacity="0.3855"/>
<stop offset="0.605" stop-color="#CEC3E2" stop-opacity="0.3217"/>
<stop offset="0.8586" stop-color="#EDD6C9" stop-opacity="0.1152"/>
<stop offset="1" stop-color="#F9DDBF" stop-opacity="0"/>
</radialGradient>
<linearGradient id="paint17_linear" x1="216.415" y1="30.1119" x2="216.415" y2="0.449633" gradientUnits="userSpaceOnUse">
<stop offset="0.3857" stop-color="#92D5CD"/>
<stop offset="0.7998" stop-color="#67C6B8"/>
</linearGradient>
</defs>
</svg>
