<svg width="242" height="250" viewBox="0 0 242 250" fill="none" xmlns="http://www.w3.org/2000/svg">
<path d="M200.012 174.911H170.732V176.701H200.012V174.911Z" fill="#BF8F68"/>
<path d="M170.599 174.165H165.569C163.809 174.165 162.386 175.59 162.386 177.343V181.029H171.67V175.233C171.67 174.644 171.189 174.165 170.599 174.165Z" fill="#B3AFAB"/>
<path d="M199.621 174.165H204.651C206.412 174.165 207.835 175.59 207.835 177.343V181.029H198.551V175.233C198.551 174.644 199.031 174.165 199.621 174.165Z" fill="#B3AFAB"/>
<path d="M213.792 246.102H156.095C152.74 246.102 150.019 243.385 150.019 240.036V184.027C150.019 180.678 152.74 177.96 156.095 177.96H213.792C217.147 177.96 219.869 180.678 219.869 184.027V240.036C219.869 243.385 217.147 246.102 213.792 246.102Z" fill="#605D5A"/>
<path d="M212.288 240.801H158.127C157.023 240.801 156.128 239.908 156.128 238.805V186.055C156.128 184.953 157.023 184.06 158.127 184.06H212.293C213.397 184.06 214.292 184.953 214.292 186.055V238.801C214.292 239.907 213.392 240.801 212.288 240.801Z" fill="#B3AFAB"/>
<path d="M162.766 194.744C164.425 194.744 165.769 193.402 165.769 191.746C165.769 190.091 164.425 188.749 162.766 188.749C161.108 188.749 159.764 190.091 159.764 191.746C159.764 193.402 161.108 194.744 162.766 194.744Z" fill="#E1DFDD"/>
<path d="M156.124 200.231V238.801C156.124 239.903 157.018 240.796 158.122 240.796H212.288C213.392 240.796 214.287 239.903 214.287 238.801V200.231H156.124Z" fill="url(#paint0_radial)"/>
<path d="M188.12 194.744C189.778 194.744 191.122 193.402 191.122 191.746C191.122 190.091 189.778 188.749 188.12 188.749C186.462 188.749 185.117 190.091 185.117 191.746C185.117 193.402 186.462 194.744 188.12 194.744Z" fill="#E1DFDD"/>
<path d="M197.799 194.744C199.457 194.744 200.801 193.402 200.801 191.746C200.801 190.091 199.457 188.749 197.799 188.749C196.14 188.749 194.796 190.091 194.796 191.746C194.796 193.402 196.14 194.744 197.799 194.744Z" fill="#E1DFDD"/>
<path d="M207.663 194.744C209.322 194.744 210.666 193.402 210.666 191.746C210.666 190.091 209.322 188.749 207.663 188.749C206.005 188.749 204.661 190.091 204.661 191.746C204.661 193.402 206.005 194.744 207.663 194.744Z" fill="#E1DFDD"/>
<path d="M214.287 199.998H156.143V201.856H214.287V199.998Z" fill="#797673"/>
<path d="M166.604 142.467L181.034 117.516L170.464 111.423L156.034 136.374L166.604 142.467Z" fill="#D0C5F3"/>
<path d="M163.815 122.997L163.075 124.216L173.509 130.537L174.25 129.319L163.815 122.997Z" fill="#A08BE8"/>
<path d="M150.466 114.645L162.961 140.616L151.96 145.894L139.464 119.923L150.466 114.645Z" fill="url(#paint1_linear)"/>
<path d="M155.362 124.914L144.36 130.192L144.978 131.476L155.98 126.199L155.362 124.914Z" fill="#A08BE8"/>
<path d="M159.117 131.129L158.389 131.262L151.96 145.899C151.96 145.899 155.001 148.83 160.235 147.115C164.413 145.747 167.359 141.281 167.359 141.281L159.117 131.129Z" fill="#A08BE8"/>
<path d="M176.638 121.913C183.121 121.913 188.377 116.666 188.377 110.194C188.377 103.721 183.121 98.4741 176.638 98.4741C170.154 98.4741 164.898 103.721 164.898 110.194C164.898 116.666 170.154 121.913 176.638 121.913Z" fill="#927BE5"/>
<path d="M127.534 185.77L116.2 180.825C119.293 173.766 120.197 168.773 118.888 165.984C117.503 163.034 112.731 160.516 103.409 157.809L106.863 145.946C118.184 149.234 126.464 153.006 130.094 160.744C133.097 167.148 132.307 174.868 127.534 185.77Z" fill="url(#paint2_linear)"/>
<path d="M116.731 149.36L111.611 160.421L112.907 161.018L118.027 149.958L116.731 149.36Z" fill="#A08BE8"/>
<path d="M75.6097 245.774C73.7919 245.774 71.7696 245.494 69.4902 244.857C60.8678 242.454 53.0543 237.466 45.4978 232.639C42.6807 230.839 39.9446 229.095 37.2846 227.561C34.6721 234.093 30.6893 240.078 24.6079 243.143C16.3471 247.304 8.89048 244.824 5.79744 240.216C1.99539 234.554 5.39297 228.425 9.84218 224.573C18.2172 217.328 26.9158 219.338 35.9712 224.121C39.7447 212.967 39.8732 200.924 39.8732 200.725C39.878 200.069 40.4062 199.542 41.0628 199.542H41.0676C41.7243 199.547 42.2525 200.079 42.2525 200.734C42.2477 201.57 42.1145 213.846 38.1221 225.299C40.9724 226.919 43.8561 228.763 46.7778 230.625C54.1868 235.356 61.848 240.245 70.1279 242.553C80.097 245.337 84.1845 240.634 88.5195 235.66C91.6697 232.045 94.9245 228.307 100.425 227.413C106.74 226.387 112.75 229.76 119.107 233.328C124.984 236.625 131.065 240.036 138.165 240.658C144.075 241.171 149.671 239.062 154.787 234.383C165.574 224.511 171.399 205.722 171.399 193.058C171.399 192.402 171.932 191.87 172.588 191.87C173.245 191.87 173.778 192.402 173.778 193.058C173.778 206.563 167.806 225.694 156.395 236.135C150.766 241.285 144.561 243.608 137.956 243.029C130.342 242.363 123.752 238.668 117.937 235.404C111.689 231.898 106.297 228.867 100.801 229.76C96.1522 230.516 93.3114 233.774 90.3088 237.223C86.7827 241.29 82.8759 245.774 75.6097 245.774ZM21.886 222.226C18.2886 222.226 14.8053 223.433 11.403 226.378C6.70632 230.444 5.31683 235.242 7.77699 238.9C11.0937 243.841 18.2172 243.708 23.5372 241.029C29.0714 238.24 32.7354 232.592 35.1528 226.383C30.5322 223.903 26.1258 222.226 21.886 222.226Z" fill="#B3AFAB"/>
<path d="M173.306 198.288H171.784C171.298 198.288 170.908 197.894 170.908 197.414V191.476C170.908 190.991 171.303 190.602 171.784 190.602H173.306C173.792 190.602 174.182 190.996 174.182 191.476V197.414C174.187 197.894 173.792 198.288 173.306 198.288Z" fill="#797673"/>
<path d="M172.45 194.744C174.109 194.744 175.453 193.402 175.453 191.746C175.453 190.091 174.109 188.749 172.45 188.749C170.792 188.749 169.448 190.091 169.448 191.746C169.448 193.402 170.792 194.744 172.45 194.744Z" fill="#E1DFDD"/>
<path d="M69.909 204.003C72.8926 217.931 87.5869 229.86 88.5148 230.402C89.4427 230.943 61.9718 231.299 61.9718 231.299C61.9718 231.299 53.8442 212.05 57.3132 203.547C57.632 202.758 69.909 204.003 69.909 204.003Z" fill="#A08BE8"/>
<path d="M63.1138 229.413L87.2157 229.466C87.2157 229.466 92.826 233.209 94.3201 235.912C95.4622 237.979 95.4003 242.629 95.3052 244.705C95.2766 245.285 94.8008 245.736 94.2202 245.736L70.9748 245.755C70.2278 245.755 69.6234 245.152 69.6282 244.406C69.6472 241.836 69.1904 236.363 68.2149 234.805C66.7683 232.473 63.1138 229.413 63.1138 229.413Z" fill="#D0C5F3"/>
<path d="M55.7284 201.651C51.3268 217.157 53.2112 241.722 53.4015 243.019C53.6632 244.819 53.9107 246.078 56.4755 246.074C59.6685 246.064 73.373 246.026 73.373 246.026L66.0592 202.62L55.7284 201.651Z" fill="#8065E0"/>
<path d="M69.9088 204.003C71.0032 211.604 78.6311 222.269 93.0542 233.413C94.7387 234.715 95.6095 236.093 95.6143 238.04L95.6333 244.264C95.6381 245.185 94.891 245.931 93.9678 245.936L70.8605 245.998C70.2085 245.998 69.6803 245.475 69.6756 244.824L69.6566 237.641C69.6518 235.404 69.195 234.254 66.8919 232.615C61.1245 228.506 57.4462 214.606 57.3034 204.711C57.1607 194.815 69.9088 204.003 69.9088 204.003Z" fill="#A08BE8"/>
<path d="M95.3909 236.511C95.5337 236.986 95.6098 237.489 95.6146 238.04L95.6336 244.264C95.6384 245.185 94.8913 245.931 93.9681 245.936L70.8607 245.998C70.2088 245.998 69.6806 245.475 69.6759 244.824L69.6568 237.641C69.6568 237.257 69.6378 236.91 69.6045 236.582L95.3909 236.511Z" fill="#D0C5F3"/>
<path d="M69.5045 186.692L54.7008 187.328C52.8688 187.409 51.4507 188.953 51.5316 190.777L52.0884 203.609C52.1693 205.437 53.7158 206.853 55.543 206.772L70.3468 206.136C72.1788 206.055 73.5969 204.511 73.516 202.687L72.9592 189.856C72.8783 188.027 71.3318 186.611 69.5045 186.692Z" fill="url(#paint3_radial)"/>
<path d="M233.535 86.3175C235.178 86.3175 236.509 84.9882 236.509 83.3484C236.509 81.7086 235.178 80.3793 233.535 80.3793C231.893 80.3793 230.561 81.7086 230.561 83.3484C230.561 84.9882 231.893 86.3175 233.535 86.3175Z" fill="#E1DFDD"/>
<path d="M227.082 87.0347C228.725 87.0347 230.057 85.7054 230.057 84.0657C230.057 82.4259 228.725 81.0966 227.082 81.0966C225.44 81.0966 224.108 82.4259 224.108 84.0657C224.108 85.7054 225.44 87.0347 227.082 87.0347Z" fill="#E1DFDD"/>
<path d="M220.625 87.7474C222.268 87.7474 223.6 86.4181 223.6 84.7783C223.6 83.1385 222.268 81.8092 220.625 81.8092C218.983 81.8092 217.651 83.1385 217.651 84.7783C217.651 86.4181 218.983 87.7474 220.625 87.7474Z" fill="#E1DFDD"/>
<path d="M214.168 88.4599C215.81 88.4599 217.142 87.1306 217.142 85.4908C217.142 83.851 215.81 82.5217 214.168 82.5217C212.525 82.5217 211.194 83.851 211.194 85.4908C211.194 87.1306 212.525 88.4599 214.168 88.4599Z" fill="#E1DFDD"/>
<path d="M207.711 89.1726C209.353 89.1726 210.685 87.8433 210.685 86.2035C210.685 84.5637 209.353 83.2344 207.711 83.2344C206.068 83.2344 204.737 84.5637 204.737 86.2035C204.737 87.8433 206.068 89.1726 207.711 89.1726Z" fill="#E1DFDD"/>
<path d="M201.253 89.8898C202.896 89.8898 204.227 88.5605 204.227 86.9208C204.227 85.281 202.896 83.9517 201.253 83.9517C199.611 83.9517 198.279 85.281 198.279 86.9208C198.279 88.5605 199.611 89.8898 201.253 89.8898Z" fill="#E1DFDD"/>
<path d="M88.8428 32.6885H76.8037L78.5025 20.3513H87.1487L88.8428 32.6885Z" fill="#D0C5F3"/>
<path d="M82.9995 51.9235C89.3174 51.9235 94.439 46.8105 94.439 40.5032C94.439 34.1959 89.3174 29.0829 82.9995 29.0829C76.6817 29.0829 71.5601 34.1959 71.5601 40.5032C71.5601 46.8105 76.6817 51.9235 82.9995 51.9235Z" fill="#512BD4"/>
<path d="M187.544 108.65L188.948 97.1297C189.3 94.0561 187.092 91.2818 184.013 90.9303C180.934 90.5787 178.155 92.783 177.803 95.8566L176.366 107.666L187.544 108.65Z" fill="#D0C5F3"/>
<path d="M119.158 173.001L118.713 174.355L130.312 178.148L130.757 176.794L119.158 173.001Z" fill="#A08BE8"/>
<path d="M20.4727 116.17C26.7905 116.17 31.9122 111.057 31.9122 104.75C31.9122 98.4424 26.7905 93.3293 20.4727 93.3293C14.1548 93.3293 9.0332 98.4424 9.0332 104.75C9.0332 111.057 14.1548 116.17 20.4727 116.17Z" fill="url(#paint4_radial)"/>
<path d="M142.024 117.453C148.342 117.453 153.463 112.34 153.463 106.032C153.463 99.725 148.342 94.6119 142.024 94.6119C135.706 94.6119 130.584 99.725 130.584 106.032C130.584 112.34 135.706 117.453 142.024 117.453Z" fill="url(#paint5_radial)"/>
<path d="M82.8236 161.386C117.227 161.386 145.117 133.542 145.117 99.1961C145.117 64.8499 117.227 37.0067 82.8236 37.0067C48.4197 37.0067 20.5298 64.8499 20.5298 99.1961C20.5298 133.542 48.4197 161.386 82.8236 161.386Z" fill="url(#paint6_radial)"/>
<path d="M31.1602 99.1963C31.1602 105.933 32.464 112.36 34.8195 118.255C35.3905 119.685 36.7752 120.621 38.317 120.621H127.339C128.881 120.621 130.266 119.685 130.837 118.255C133.192 112.36 134.496 105.933 134.496 99.1963C134.496 96.4409 134.273 93.7426 133.854 91.1061C133.563 89.2961 131.979 87.9755 130.142 87.9755H35.5094C33.6727 87.9755 32.0881 89.2961 31.7978 91.1061C31.3838 93.7379 31.1602 96.4409 31.1602 99.1963Z" fill="url(#paint7_radial)"/>
<path d="M136.537 130.688H29.1138C31.5263 134.778 34.391 138.564 37.6458 141.984H128.005C131.26 138.564 134.125 134.778 136.537 130.688Z" fill="url(#paint8_radial)"/>
<path d="M92.9402 127.462H72.8354V145.215H92.9402V127.462Z" fill="#512BD4"/>
<path d="M133.854 91.1061C133.564 89.2961 131.979 87.9755 130.142 87.9755H125.798C127.634 87.9755 129.219 89.2961 129.509 91.1061C129.928 93.7426 130.152 96.4409 130.152 99.1963C130.152 104.417 129.362 109.448 127.91 114.194C127.377 115.5 125.964 116.284 124.522 116.284H41.1626C39.6208 116.284 38.0981 115.396 37.6651 113.918C37.3557 112.868 37.075 111.795 36.8228 110.735C35.9663 107.025 35.5047 103.163 35.5047 99.1963C35.5047 96.4409 35.7283 93.7426 36.1471 91.1061C36.4374 89.2961 38.0219 87.9755 39.8587 87.9755H35.5142C33.6774 87.9755 32.0928 89.2961 31.8026 91.1061C31.3838 93.7426 31.1602 96.4409 31.1602 99.1963C31.1602 105.933 32.464 112.36 34.8195 118.255C35.3905 119.685 36.7752 120.621 38.317 120.621H42.6615H123H127.339H127.344C128.886 120.621 130.271 119.685 130.842 118.255C133.197 112.36 134.501 105.933 134.501 99.1963C134.496 96.4409 134.273 93.7379 133.854 91.1061Z" fill="url(#paint9_radial)"/>
<path d="M73.7964 116.284C73.7964 116.284 80.0063 111.377 81.2197 110.469C82.4331 109.562 83.4942 109.51 84.603 110.469C85.7117 111.429 91.9359 116.284 91.9359 116.284H73.7964Z" fill="#A08BE8"/>
<path d="M101.063 131.186C101.063 131.186 95.7905 131.044 98.0222 122.312C101.348 109.329 86.4114 101.21 75.1909 112.313C63.9703 123.415 60.4299 125.923 41.8336 124.27C19.4258 122.279 -1.58786 135.034 12.4355 169.956C26.4589 204.877 47.2155 212.749 67.6534 189.433C79.8019 175.576 84.2225 173.409 95.5145 174.63C104.089 175.557 112.05 171.3 114.672 168.53C117.856 165.172 116.799 158.635 108.42 159.899C100.04 161.162 95.1719 158.588 93.7919 155.143C92.4072 151.695 94.5057 146.507 99.8495 144.193C105.184 141.889 101.063 131.186 101.063 131.186Z" fill="#FAE969"/>
<path d="M101.063 131.186C101.063 131.186 95.7904 131.044 98.0222 122.312C101.348 109.329 88.1625 105.391 76.9372 116.493C65.7118 127.595 62.1762 130.103 43.5799 128.45C21.1721 126.46 -1.58793 135.039 12.4354 169.956C26.4588 204.872 47.2154 212.749 67.6533 189.433C79.8018 175.576 84.2225 173.409 95.5144 174.63C104.089 175.557 112.05 171.3 114.672 168.53C117.856 165.172 116.799 158.635 108.42 159.899C100.04 161.162 95.1718 158.588 93.7918 155.143C92.4071 151.695 94.5056 146.507 99.8494 144.193C105.184 141.889 101.063 131.186 101.063 131.186Z" fill="url(#paint10_linear)"/>
<path d="M70.556 181.927L52.4736 136.892C52.4736 136.892 58.6835 127.623 77.1228 127.547C95.562 127.476 96.0331 134.07 96.0331 134.07L92.4833 146.711C92.4833 146.711 88.6574 151.723 91.1081 156.74C93.5587 161.761 96.5756 162.564 101.938 163.105C109.747 163.894 107.349 172.245 96.3757 171.595C82.7616 170.787 74.8768 175.761 70.556 181.927Z" fill="white"/>
<path d="M77.1372 156.668L74.658 157.661C73.6825 158.051 72.5785 157.581 72.1883 156.607L67.0111 143.714C66.6209 142.74 67.092 141.638 68.0675 141.248L70.5467 140.255C71.5222 139.866 72.6261 140.336 73.0163 141.31L78.1936 154.203C78.5838 155.177 78.1079 156.279 77.1372 156.668Z" fill="#C8C6C4"/>
<path d="M191.251 94.9871C192.969 94.2983 193.949 92.1226 194.434 90.6309C194.729 89.7188 195.519 89.0585 196.476 88.9397C203.552 88.0751 231.218 84.7212 235.491 84.5217C243.362 84.1559 242.296 96.8304 235.5 95.8232C231.056 95.1677 227.42 94.3601 224.418 98.17C221.415 101.98 220.878 105.172 211.299 104.987C200.935 104.783 195.9 106.559 195.9 106.559L191.251 94.9871Z" fill="#E0BB95"/>
<path d="M70.8983 179.965L42.6755 191.257C40.3105 192.202 37.6267 191.057 36.6798 188.696C35.7328 186.335 36.8796 183.656 39.2446 182.711L67.4674 171.414C69.8324 170.469 72.5162 171.613 73.4631 173.975C74.4101 176.34 73.2633 179.02 70.8983 179.965Z" fill="#C8C6C4"/>
<path d="M41.5479 189.233C43.0643 189.233 44.2936 188.006 44.2936 186.492C44.2936 184.978 43.0643 183.751 41.5479 183.751C40.0315 183.751 38.8022 184.978 38.8022 186.492C38.8022 188.006 40.0315 189.233 41.5479 189.233Z" fill="#797673"/>
<path d="M54.8619 183.903C56.3783 183.903 57.6075 182.676 57.6075 181.162C57.6075 179.648 56.3783 178.421 54.8619 178.421C53.3455 178.421 52.1162 179.648 52.1162 181.162C52.1162 182.676 53.3455 183.903 54.8619 183.903Z" fill="#797673"/>
<path d="M68.5762 178.416C70.0926 178.416 71.3219 177.189 71.3219 175.675C71.3219 174.161 70.0926 172.934 68.5762 172.934C67.0598 172.934 65.8306 174.161 65.8306 175.675C65.8306 177.189 67.0598 178.416 68.5762 178.416Z" fill="#797673"/>
<path d="M122.1 200.763C119.107 214.691 127.625 231.58 128.248 232.454C128.871 233.328 103.666 222.421 103.666 222.421C103.666 222.421 104.146 201.537 110.799 195.195C111.412 194.611 122.1 200.763 122.1 200.763Z" fill="#A08BE8"/>
<path d="M105.479 221.166L127.444 231.067C127.444 231.067 131.027 236.772 131.284 239.855C131.479 242.211 129.514 246.425 128.576 248.278C128.315 248.796 127.696 249.014 127.163 248.777L105.95 239.29C105.269 238.986 104.965 238.188 105.279 237.508C106.349 235.171 108.177 229.993 107.929 228.169C107.558 225.451 105.479 221.166 105.479 221.166Z" fill="#D0C5F3"/>
<path d="M110.128 192.82C99.7493 205.167 91.3934 228.349 91.0365 229.608C90.5368 231.356 90.2466 232.606 92.5878 233.651C95.5047 234.948 108.024 240.515 108.024 240.515L119.155 197.927L110.128 192.82Z" fill="#8065E0"/>
<path d="M122.1 200.763C119.982 208.145 122.566 220.991 131.151 237.057C132.155 238.934 132.383 240.549 131.588 242.325L129.052 248.012C128.676 248.853 127.691 249.233 126.849 248.857L105.74 239.47C105.145 239.204 104.879 238.511 105.141 237.917L108.072 231.356C108.985 229.314 109.038 228.079 107.61 225.637C104.032 219.532 106.383 205.347 110.308 196.259C114.234 187.167 122.1 200.763 122.1 200.763Z" fill="#A08BE8"/>
<path d="M132.017 240.838C131.95 241.328 131.817 241.822 131.593 242.325L129.057 248.012C128.681 248.853 127.696 249.233 126.854 248.857L105.745 239.466C105.15 239.2 104.884 238.506 105.145 237.912L108.077 231.352C108.234 231 108.362 230.677 108.467 230.364L132.017 240.838Z" fill="#D0C5F3"/>
<path d="M128.833 184.801L115.067 179.333C113.363 178.659 111.436 179.485 110.761 181.186L106.002 193.119C105.326 194.82 106.154 196.744 107.858 197.418L121.624 202.886C123.328 203.561 125.255 202.734 125.931 201.034L130.689 189.1C131.365 187.404 130.532 185.48 128.833 184.801Z" fill="url(#paint11_radial)"/>
<path d="M130.094 160.744C129.533 159.542 128.857 158.44 128.077 157.419C124.912 159.856 118.974 164.583 118.346 165.086C118.56 165.381 118.75 165.68 118.893 165.984C118.912 166.032 118.931 166.079 118.95 166.127C120.435 166.112 128.005 166.041 131.655 165.984C131.384 164.127 130.865 162.393 130.094 160.744Z" fill="#A08BE8"/>
<path d="M12.9255 133.315C11.4361 128.018 13.0302 121.942 17.4366 115.761C13.0635 114.559 9.73727 110.835 9.13294 106.251C1.14814 116.265 -1.73552 126.878 1.01491 136.654C3.54644 145.657 11.9024 157.704 37.3272 163.97L40.2917 151.98C24.9693 148.203 15.2524 141.571 12.9255 133.315Z" fill="url(#paint12_linear)"/>
<path d="M1.25581 121.217L0.850098 122.583L12.5528 126.046L12.9585 124.68L1.25581 121.217Z" fill="#A08BE8"/>
<path d="M46.2205 137.234L34.4337 149.856C32.3352 152.103 32.4541 155.628 34.7097 157.728C36.9604 159.823 40.4913 159.704 42.5945 157.452L54.3814 144.83C56.4799 142.583 56.3609 139.058 54.1054 136.958C51.8499 134.859 48.319 134.982 46.2205 137.234Z" fill="#D0C5F3"/>
<path d="M40.4961 170.35L50.8126 175.699C53.5725 177.105 56.9511 176.013 58.3596 173.257C59.7681 170.502 58.6736 167.129 55.9137 165.723L45.3355 160.236L40.4961 170.35Z" fill="#D0C5F3"/>
<path d="M46.3584 168.093L62.3661 168.93C65.4591 169.082 68.0906 166.697 68.2381 163.609C68.3903 160.521 66.0016 157.894 62.9085 157.747L51.0075 157.086L46.3584 168.093Z" fill="#D0C5F3"/>
<path d="M44.9976 161.39L60.7911 158.573C63.8413 158.036 65.878 155.129 65.3403 152.084C64.8026 149.039 61.8904 147.006 58.8401 147.543L42.7563 150.407L44.9976 161.39Z" fill="#D0C5F3"/>
<path d="M42.1045 170.868C48.5879 170.868 53.8438 165.621 53.8438 159.148C53.8438 152.676 48.5879 147.428 42.1045 147.428C35.6211 147.428 30.3652 152.676 30.3652 159.148C30.3652 165.621 35.6211 170.868 42.1045 170.868Z" fill="url(#paint13_radial)"/>
<path d="M5.33077 145.557C10.5842 140.749 14.4338 137.058 14.4338 137.058L13.8105 135.828L1.05762 136.782C1.83801 139.514 3.16088 142.521 5.33077 145.557Z" fill="#A08BE8"/>
<path d="M22.5732 145.017L16.1738 155.394L17.3895 156.142L23.7889 145.765L22.5732 145.017Z" fill="#A08BE8"/>
<path d="M60.7981 109.036C63.4889 108.996 65.6156 105.302 65.5482 100.784C65.4808 96.2666 63.2447 92.6369 60.5539 92.6769C57.863 92.7169 55.7363 96.4115 55.8037 100.929C55.8712 105.447 58.1072 109.076 60.7981 109.036Z" fill="#512BD4"/>
<path d="M60.4583 100.294C58.6786 102.07 58.6786 104.949 60.4583 106.726C61.2006 107.467 62.1333 107.894 63.0945 108.018C64.5982 106.612 65.5927 103.894 65.5452 100.783C65.5356 100.279 65.4976 99.7948 65.4405 99.315C63.7893 98.6214 61.805 98.9444 60.4583 100.294Z" fill="#8065E0"/>
<path d="M109.549 100.89C109.616 96.3729 107.489 92.6783 104.799 92.6383C102.108 92.5982 99.8717 96.2279 99.8042 100.745C99.7368 105.263 101.863 108.958 104.554 108.998C107.245 109.038 109.481 105.408 109.549 100.89Z" fill="#512BD4"/>
<path d="M104.437 100.028C102.657 101.804 102.657 104.683 104.437 106.46C105.203 107.225 106.174 107.657 107.173 107.766C108.558 106.336 109.505 103.804 109.547 100.892C109.557 100.265 109.519 99.6523 109.448 99.0632C107.787 98.3554 105.793 98.6737 104.437 100.028Z" fill="#8065E0"/>
<path d="M60.8439 48.9544C61.0961 50.0708 60.5774 51.2584 59.5115 51.8095C45.5643 59.0303 35.7713 72.2131 32.5593 87.2058C31.6932 91.2533 26.5493 90.6309 27.4962 86.1987C31.0128 69.6953 41.7861 55.1824 57.1323 47.2299C58.398 46.5744 59.9588 47.0684 60.6155 48.3321C60.7202 48.5363 60.7963 48.7406 60.8439 48.9544Z" fill="url(#paint14_radial)"/>
<path d="M102.243 149.628C102.086 148.497 102.704 147.357 103.808 146.896C122.229 139.248 134.791 121.457 135.809 101.576C135.881 100.156 137.094 99.0585 138.522 99.1345C139.945 99.2057 141.044 100.417 140.968 101.842C139.849 123.695 126.04 143.248 105.793 151.657C104.475 152.203 102.966 151.581 102.414 150.265C102.329 150.06 102.271 149.847 102.243 149.628Z" fill="url(#paint15_radial)"/>
<path d="M195.9 106.564L89.4852 150.084L84.189 136.897L191.251 94.9872L195.9 106.564Z" fill="#BF8F68"/>
<path d="M184.27 97.5397L183.06 98.024L187.874 110.013L189.084 109.529L184.27 97.5397Z" fill="#E1DFDD"/>
<path d="M175.04 101.152L173.83 101.636L178.696 113.753L179.906 113.269L175.04 101.152Z" fill="#E1DFDD"/>
<path d="M165.817 104.766L164.607 105.251L169.524 117.496L170.734 117.011L165.817 104.766Z" fill="#E1DFDD"/>
<path d="M156.59 108.383L155.379 108.867L160.348 121.24L161.558 120.756L156.59 108.383Z" fill="#E1DFDD"/>
<path d="M147.365 111.993L146.154 112.477L151.174 124.978L152.384 124.494L147.365 111.993Z" fill="#E1DFDD"/>
<path d="M138.141 115.608L136.931 116.092L142.002 128.721L143.212 128.236L138.141 115.608Z" fill="#E1DFDD"/>
<path d="M128.914 119.224L127.704 119.708L132.824 132.461L134.035 131.976L128.914 119.224Z" fill="#E1DFDD"/>
<path d="M119.689 122.834L118.479 123.319L123.651 136.199L124.861 135.714L119.689 122.834Z" fill="#E1DFDD"/>
<path d="M110.461 126.451L109.251 126.935L114.474 139.943L115.685 139.459L110.461 126.451Z" fill="#E1DFDD"/>
<path d="M101.238 130.065L100.028 130.55L105.303 143.685L106.513 143.201L101.238 130.065Z" fill="#E1DFDD"/>
<path d="M92.0086 133.677L90.7983 134.162L96.1244 147.425L97.3347 146.941L92.0086 133.677Z" fill="#E1DFDD"/>
<path d="M186.026 121.557C183.985 123.814 180.501 123.989 178.241 121.951L174.201 118.308C171.941 116.27 171.765 112.792 173.806 110.536C175.847 108.279 179.331 108.103 181.591 110.141L185.631 113.785C187.891 115.823 188.067 119.305 186.026 121.557Z" fill="#D0C5F3"/>
<path d="M193.93 117.315C191.889 119.571 188.406 119.747 186.145 117.709L182.105 114.065C179.845 112.027 179.669 108.55 181.71 106.294C183.752 104.037 187.235 103.861 189.495 105.899L193.535 109.543C195.791 111.581 195.967 115.063 193.93 117.315Z" fill="#D0C5F3"/>
<path d="M166.678 111.396C163.656 111.747 160.92 109.581 160.568 106.564L159.94 101.163C159.588 98.1464 161.758 95.4148 164.779 95.0633C167.801 94.7117 170.537 96.878 170.889 99.8946L171.517 105.296C171.869 108.317 169.704 111.049 166.678 111.396Z" fill="#D0C5F3"/>
<path d="M121.539 50.4698L53.6444 44.2418C53.316 44.4176 52.9877 44.5934 52.6594 44.7739C52.5356 46.3131 53.0971 50.294 61.9242 51.2536C71.7696 52.3273 119.769 56.9828 129.414 57.9187C127.011 55.2108 124.375 52.7216 121.539 50.4698Z" fill="url(#paint16_radial)"/>
<path d="M107.486 11.7671L78.2406 8.589C72.2496 7.93817 66.7107 11.8289 65.3022 17.6768L59.73 40.8025L117.294 47.0542L116.808 21.9333C116.704 16.6887 112.711 12.3324 107.486 11.7671Z" fill="url(#paint17_radial)"/>
<path d="M62.2809 30.1992L59.7256 40.8024L117.294 47.0589L117.08 36.1517L62.2809 30.1992Z" fill="url(#paint18_radial)"/>
<path d="M46.6157 37.8049C46.9441 42.1754 49.8563 45.7383 53.7583 46.1611L118.141 53.1539C122.043 53.5767 125.655 50.7217 126.916 46.5269L46.6157 37.8049Z" fill="url(#paint19_radial)"/>
<defs>
<radialGradient id="paint0_radial" cx="0" cy="0" r="1" gradientUnits="userSpaceOnUse" gradientTransform="translate(183.516 203.847) scale(52.7407 52.6523)">
<stop stop-color="#797673" stop-opacity="0"/>
<stop offset="0.7898" stop-color="#737373"/>
</radialGradient>
<linearGradient id="paint1_linear" x1="146.095" y1="116.234" x2="156.3" y2="144.318" gradientUnits="userSpaceOnUse">
<stop offset="0.2638" stop-color="#958FE7"/>
<stop offset="0.5094" stop-color="#BBB7EF"/>
</linearGradient>
<linearGradient id="paint2_linear" x1="103.409" y1="165.857" x2="131.866" y2="165.857" gradientUnits="userSpaceOnUse">
<stop offset="0.1788" stop-color="#958FE7"/>
<stop offset="0.4497" stop-color="#BBB7EF"/>
</linearGradient>
<radialGradient id="paint3_radial" cx="0" cy="0" r="1" gradientUnits="userSpaceOnUse" gradientTransform="translate(63.8091 191.514) scale(17.2521 17.2232)">
<stop stop-color="#8065E0"/>
<stop offset="0.9206" stop-color="#512BD4"/>
</radialGradient>
<radialGradient id="paint4_radial" cx="0" cy="0" r="1" gradientUnits="userSpaceOnUse" gradientTransform="translate(18.7663 99.9379) scale(11.4396 11.4204)">
<stop stop-color="#8065E0"/>
<stop offset="0.8628" stop-color="#512BD4"/>
</radialGradient>
<radialGradient id="paint5_radial" cx="0" cy="0" r="1" gradientUnits="userSpaceOnUse" gradientTransform="translate(144.534 100.768) scale(11.4396 11.4204)">
<stop stop-color="#8065E0"/>
<stop offset="0.8628" stop-color="#512BD4"/>
</radialGradient>
<radialGradient id="paint6_radial" cx="0" cy="0" r="1" gradientUnits="userSpaceOnUse" gradientTransform="translate(71.0539 83.2363) scale(62.2952 62.1909)">
<stop offset="0.4744" stop-color="#A08BE8"/>
<stop offset="0.8618" stop-color="#8065E0"/>
</radialGradient>
<radialGradient id="paint7_radial" cx="0" cy="0" r="1" gradientUnits="userSpaceOnUse" gradientTransform="translate(93.4771 78.0098) scale(71.692 71.5719)">
<stop offset="0.2022" stop-color="#E1DFDD"/>
<stop offset="0.7337" stop-color="white"/>
</radialGradient>
<radialGradient id="paint8_radial" cx="0" cy="0" r="1" gradientUnits="userSpaceOnUse" gradientTransform="translate(109.831 136.44) scale(38.1895 38.1255)">
<stop offset="0.4614" stop-color="#A08BE8"/>
<stop offset="0.5268" stop-color="#A793EA"/>
<stop offset="0.8352" stop-color="#C5B7F0"/>
<stop offset="1" stop-color="#D0C5F3"/>
</radialGradient>
<radialGradient id="paint9_radial" cx="0" cy="0" r="1" gradientUnits="userSpaceOnUse" gradientTransform="translate(108.174 103.893) scale(54.6026 54.5111)">
<stop stop-color="#512BD4"/>
<stop offset="1" stop-color="#8065E0"/>
</radialGradient>
<linearGradient id="paint10_linear" x1="55.6272" y1="131.235" x2="79.3246" y2="233.474" gradientUnits="userSpaceOnUse">
<stop offset="0.1193" stop-color="#E8D441"/>
<stop offset="0.2631" stop-color="#FAE969"/>
</linearGradient>
<radialGradient id="paint11_radial" cx="0" cy="0" r="1" gradientUnits="userSpaceOnUse" gradientTransform="translate(120.228 186.29) scale(18.5478 18.5167)">
<stop stop-color="#8065E0"/>
<stop offset="0.8628" stop-color="#512BD4"/>
</radialGradient>
<linearGradient id="paint12_linear" x1="20.1479" y1="106.253" x2="20.1479" y2="163.97" gradientUnits="userSpaceOnUse">
<stop offset="0.1202" stop-color="#958FE7"/>
<stop offset="0.3073" stop-color="#BBB7EF"/>
</linearGradient>
<radialGradient id="paint13_radial" cx="0" cy="0" r="1" gradientUnits="userSpaceOnUse" gradientTransform="translate(42.9549 153.545) scale(16.9063 16.878)">
<stop stop-color="#A08BE8"/>
<stop offset="1" stop-color="#8065E0"/>
</radialGradient>
<radialGradient id="paint14_radial" cx="0" cy="0" r="1" gradientUnits="userSpaceOnUse" gradientTransform="translate(44.1324 68.4237) rotate(-102.73) scale(19.2614 19.2906)">
<stop offset="0.3607" stop-color="#BDB9F0"/>
<stop offset="0.5611" stop-color="#C3BCEB" stop-opacity="0.3855"/>
<stop offset="0.6338" stop-color="#CEC3E2" stop-opacity="0.3217"/>
<stop offset="0.8689" stop-color="#EDD6C9" stop-opacity="0.1152"/>
<stop offset="1" stop-color="#F9DDBF" stop-opacity="0"/>
</radialGradient>
<radialGradient id="paint15_radial" cx="0" cy="0" r="1" gradientUnits="userSpaceOnUse" gradientTransform="translate(121.655 125.511) rotate(82.1129) scale(23.1548 23.1921)">
<stop stop-color="#BDB9F0"/>
<stop offset="0.5266" stop-color="#C3BCEB" stop-opacity="0.3855"/>
<stop offset="0.605" stop-color="#CEC3E2" stop-opacity="0.3217"/>
<stop offset="0.8586" stop-color="#EDD6C9" stop-opacity="0.1152"/>
<stop offset="1" stop-color="#F9DDBF" stop-opacity="0"/>
</radialGradient>
<radialGradient id="paint16_radial" cx="0" cy="0" r="1" gradientUnits="userSpaceOnUse" gradientTransform="translate(57.808 50.0146) scale(74.4509 74.3262)">
<stop stop-color="#8065E0" stop-opacity="0.7"/>
<stop offset="0.8628" stop-color="#512BD4" stop-opacity="0"/>
</radialGradient>
<radialGradient id="paint17_radial" cx="0" cy="0" r="1" gradientUnits="userSpaceOnUse" gradientTransform="translate(99.7577 36.6562) scale(24.5055 24.4644)">
<stop offset="0.5301" stop-color="#605D5A"/>
<stop offset="1" stop-color="#797673"/>
</radialGradient>
<radialGradient id="paint18_radial" cx="0" cy="0" r="1" gradientUnits="userSpaceOnUse" gradientTransform="translate(73.4676 37.1298) scale(21.2103 21.1748)">
<stop offset="0.3565" stop-color="#E1DFDD"/>
<stop offset="1" stop-color="#B3AFAB"/>
</radialGradient>
<radialGradient id="paint19_radial" cx="0" cy="0" r="1" gradientUnits="userSpaceOnUse" gradientTransform="translate(103.501 56.0229) scale(38.5473 38.4827)">
<stop offset="0.5301" stop-color="#605D5A"/>
<stop offset="1" stop-color="#797673"/>
</radialGradient>
</defs>
</svg>
