<svg width="315" height="289" viewBox="0 0 315 289" fill="none" xmlns="http://www.w3.org/2000/svg">
<path d="M143.776 124.609C141.322 121.767 138.91 118.748 136.563 115.567C133.294 111.139 130.148 106.395 127.19 101.376C105.624 64.8216 102.066 27.6801 119.245 18.4277C136.425 9.17527 167.838 31.3065 189.403 67.866C191.92 72.1345 194.191 76.4102 196.217 80.6475C197.834 84.0379 199.292 87.4049 200.588 90.7278C201.195 92.2768 200.533 94.0361 199.069 94.827L143.776 124.609Z" fill="#27BEE0"/>
<path d="M142.144 109.595C137.534 104.257 133.108 98.1158 129.113 91.3434C112.169 62.6215 109.374 33.4466 122.871 26.1805C136.369 18.9144 161.047 36.2988 177.99 65.0208C181.553 71.0546 184.487 77.1098 186.776 82.9787C187.252 84.1967 186.735 85.5765 185.583 86.1974L142.144 109.595Z" fill="#4ADAFA"/>
<path d="M174.436 130.098C174.436 130.098 190.068 151.345 193.711 165.722C197.35 180.093 203.773 191.758 209.323 198.669C214.875 205.574 221.084 217.146 224.189 226.79C227.294 236.435 233.613 251.913 238.77 257.144C243.927 262.374 250.011 274.01 250.849 279.626C251.686 285.241 250.465 287.548 244.969 281.657C239.467 275.771 232.167 266.441 228.673 255.122C225.178 243.803 216.827 228.763 210.424 220.219C204.02 211.675 196.193 199.487 192.82 187.482C189.448 175.477 184.315 167.512 177.656 158.476C170.996 149.441 166.584 133.594 166.584 133.594L174.436 130.098Z" fill="url(#paint0_linear)"/>
<path d="M197.944 118.509C197.944 118.509 213.576 139.757 217.219 154.133C220.858 168.504 227.281 180.17 232.831 187.08C238.383 193.986 244.591 205.557 247.697 215.202C250.802 224.847 257.121 240.325 262.278 245.555C267.435 250.785 273.519 262.421 274.356 268.037C275.193 273.653 273.973 275.959 268.477 270.068C262.975 264.182 255.675 254.853 252.181 243.533C248.686 232.214 240.335 217.175 233.932 208.63C227.528 200.086 219.701 187.899 216.328 175.893C212.956 163.883 207.823 155.924 201.164 146.888C194.504 137.852 190.091 122.005 190.091 122.005L197.944 118.509Z" fill="url(#paint1_linear)"/>
<path d="M145.035 166.659C137.427 161.573 123.098 150.332 117.243 135.818L128.654 133.335C133.964 146.5 147.042 156.155 153.099 160.073C153.605 160.399 149.971 164.081 145.035 166.659Z" fill="url(#paint2_linear)"/>
<path d="M145.035 166.659C137.427 161.573 123.098 150.332 117.243 135.818L128.654 133.335C133.964 146.5 147.042 156.155 153.099 160.073C153.605 160.399 149.971 164.081 145.035 166.659Z" fill="url(#paint3_linear)"/>
<path d="M153.017 160.017L146.692 165.216C148.256 167.35 159.817 175.848 155.244 202.363L163.558 208.042L191.121 185.359C192.087 184.567 191.989 183.391 190.849 182.706L153.017 160.017Z" fill="#522CD5"/>
<path d="M152.999 201.636C152.684 203.179 153.457 203.994 155.018 204.933L160.541 208.31C161.393 208.821 162.687 208.754 163.414 208.155L163.553 208.041C164.375 207.367 164.254 206.345 163.286 205.763L158.916 202.914C157.118 201.835 156.188 200.977 156.58 198.919C158.888 186.724 160.447 170.862 149.364 163.024L144.986 166.62C150.319 170.917 157.134 181.329 152.999 201.636Z" fill="url(#paint4_linear)"/>
<path d="M156.584 200.483C156.837 201.508 157.655 202.161 158.911 202.913L163.281 205.762C164.249 206.344 164.371 207.361 163.549 208.035L163.41 208.149C162.684 208.743 161.394 208.816 160.536 208.305L155.014 204.927C154.124 204.395 153.5 203.894 153.179 203.278L156.584 200.483Z" fill="url(#paint5_radial)"/>
<path d="M164.511 154.733C156.066 151.205 139.841 142.924 131.308 129.806L142.029 125.175C149.769 137.075 164.46 144.031 171.158 146.715C171.713 146.937 168.859 151.25 164.511 154.733Z" fill="url(#paint6_linear)"/>
<path d="M164.511 154.733C156.066 151.205 139.841 142.924 131.308 129.806L142.029 125.175C149.769 137.075 164.46 144.031 171.158 146.715C171.713 146.937 168.859 151.25 164.511 154.733Z" fill="url(#paint7_linear)"/>
<path d="M171.062 146.678L165.851 152.997C167.798 154.79 181.101 154.674 184.526 181.524L191.877 190.278L213.922 163.501C214.118 163.264 213.798 162.125 212.549 161.677L171.062 146.678Z" fill="#522CD5"/>
<path d="M179.007 187.327C178.993 188.904 179.978 189.854 181.688 190.471L187.727 192.622C188.661 192.962 189.918 192.642 190.513 191.918L194.77 186.757C195.45 185.934 195.136 184.96 194.071 184.576L188.796 182.427C186.826 181.713 185.748 181.054 185.737 178.955C185.658 166.54 181.277 154.869 168.897 149.308L164.449 154.706C170.513 157.893 179.164 166.606 179.007 187.327Z" fill="url(#paint8_linear)"/>
<path d="M190.518 191.919C189.923 192.644 188.667 192.959 187.731 192.623L181.693 190.472C180.744 190.129 180.024 189.678 179.573 189.074L186.302 180.912C186.805 181.597 187.645 182.007 188.806 182.429L194.081 184.578C195.141 184.961 195.454 185.94 194.78 186.759L190.518 191.919Z" fill="url(#paint9_radial)"/>
<path d="M35.882 131.839L40.0248 122.704C49.597 127.043 58.4777 128.407 66.4332 126.755C73.4302 125.302 79.8903 121.477 85.6453 115.387L92.9376 122.279C82.2381 133.592 63.6576 144.436 35.882 131.839Z" fill="#8A6FE8"/>
<path d="M166.239 136.456L175.91 131.355C176.68 130.948 176.871 129.988 176.296 129.388L169.92 122.736C169.505 122.303 168.819 122.207 168.265 122.498L162.492 125.543C161.938 125.834 161.655 126.445 161.816 127.007L164.294 135.71C164.517 136.503 165.469 136.862 166.239 136.456Z" fill="#0B7891"/>
<path d="M161.584 127.566L170.695 122.761C171.714 122.224 172.101 121.026 171.56 120.089L157.356 95.4541C156.815 94.5169 155.551 94.1893 154.532 94.7261L145.421 99.5314C144.402 100.068 144.015 101.266 144.556 102.203L158.759 126.838C159.3 127.775 160.565 128.103 161.584 127.566Z" fill="white"/>
<path d="M190.058 124.041L199.729 118.94C200.499 118.533 200.69 117.573 200.115 116.973L193.739 110.321C193.324 109.888 192.638 109.791 192.084 110.083L186.311 113.128C185.757 113.419 185.474 114.03 185.635 114.592L188.113 123.295C188.336 124.088 189.288 124.447 190.058 124.041Z" fill="#0B7891"/>
<path d="M185.403 115.151L194.514 110.345C195.533 109.809 195.92 108.611 195.379 107.674L181.175 83.0391C180.634 82.1018 179.37 81.7743 178.351 82.3111L169.24 87.1163C168.221 87.6531 167.834 88.8509 168.375 89.7882L182.578 114.423C183.118 115.365 184.384 115.688 185.403 115.151Z" fill="white"/>
<path d="M169.235 87.1153L172.183 85.5627L186.144 109.775C186.685 110.712 187.949 111.039 188.968 110.503L195.136 107.251L195.379 107.674C195.92 108.611 195.533 109.809 194.514 110.345L185.403 115.151C184.384 115.687 183.118 115.365 182.578 114.423L168.375 89.7881C167.829 88.8499 168.216 87.6521 169.235 87.1153Z" fill="#60DEFA"/>
<path d="M145.416 99.5304L148.364 97.9777L162.325 122.19C162.866 123.127 164.13 123.454 165.149 122.918L169.517 120.618L171.317 119.666L171.56 120.089C172.101 121.026 171.714 122.224 170.695 122.76L161.584 127.566C160.565 128.102 159.299 127.78 158.759 126.838L144.556 102.203C144.01 101.265 144.397 100.067 145.416 99.5304Z" fill="#60DEFA"/>
<path d="M143.776 124.609C140.898 121.271 138.069 117.686 135.34 113.882C132.512 109.943 193.398 74.9255 195.143 78.436C197.197 82.5757 199.015 86.6838 200.593 90.7286C201.2 92.2776 200.538 94.0369 199.074 94.8278L143.776 124.609Z" fill="#179BB8"/>
<path d="M34.6382 128.049L31.2849 118.473C30.4112 115.917 31.7738 113.129 34.3293 112.255C36.8857 111.376 39.6732 112.744 40.547 115.3L43.9847 125.122L34.6382 128.049Z" fill="#8A6FE8"/>
<path d="M35.7634 140.608C30.1902 139.617 26.4757 134.295 27.467 128.722C28.4583 123.149 33.7799 119.435 39.3532 120.426C44.9264 121.417 48.6409 126.739 47.6496 132.312C46.6583 137.885 41.3367 141.6 35.7634 140.608Z" fill="url(#paint10_radial)"/>
<path d="M55.935 155.448L95.8011 132.707L93.0413 127.867L53.1752 150.608C52.182 151.175 50.9207 150.828 50.3537 149.834L42.374 135.851L37.5343 138.61L45.514 152.594C47.6009 156.258 52.2764 157.536 55.935 155.448Z" fill="#4ADAFA"/>
<path d="M41.1031 144.004L45.3949 141.557C46.9703 140.658 47.5217 138.653 46.6223 137.078L35.0462 116.788C34.1469 115.213 32.1424 114.661 30.567 115.56L26.2753 118.007C24.6999 118.907 24.1485 120.911 25.0478 122.487L36.6239 142.777C37.5232 144.352 39.5278 144.904 41.1031 144.004Z" fill="#27BEE0"/>
<path d="M38.8656 141.822L42.5577 139.632C44.8687 138.259 45.6358 135.272 44.2622 132.961C42.8886 130.65 39.9019 129.883 37.5909 131.256L33.8988 133.446C31.5878 134.819 30.8206 137.806 32.1942 140.117C33.5678 142.428 36.5554 143.19 38.8656 141.822Z" fill="#8A6FE8"/>
<path d="M32.8866 138.127L36.5787 135.938C38.8897 134.564 39.6568 131.578 38.2832 129.267C36.9096 126.955 33.9229 126.188 31.6119 127.562L27.9198 129.751C25.6088 131.125 24.8416 134.112 26.2152 136.423C27.588 138.739 30.5706 139.5 32.8866 138.127Z" fill="#8A6FE8"/>
<path d="M27.0788 134.423L30.7709 132.233C33.082 130.859 33.8491 127.873 32.4755 125.562C31.1019 123.251 28.1151 122.484 25.8041 123.857L22.112 126.047C19.801 127.42 19.0338 130.407 20.4075 132.718C21.7802 135.034 24.7678 135.796 27.0788 134.423Z" fill="#8A6FE8"/>
<path d="M78.3227 124.034C68.3501 113.845 64.8962 103.133 64.8962 103.133L62.0812 104.745L61.9809 104.732C53.4433 80.4489 63.1684 52.7881 86.3081 39.5496C112.377 24.632 145.606 33.6755 160.518 59.7439C175.431 85.8123 166.392 119.041 140.324 133.954C119.753 145.726 94.7283 142.573 77.7559 127.913C77.1165 127.24 76.3307 125.834 78.3227 124.034Z" fill="url(#paint11_radial)"/>
<path d="M78.2024 124.105C68.3563 114.041 64.861 103.475 64.7792 103.214L113.753 75.1959C113.753 75.1959 116.662 73.1182 118.274 75.9332C119.886 78.7482 124.329 86.7798 129.363 95.5881C130.4 97.3982 129.417 99.1208 128.246 99.7896C128.246 99.7896 80.6514 125.387 78.2024 124.105Z" fill="url(#paint12_radial)"/>
<path d="M106.768 107.754C106.768 107.754 95.8256 106.101 93.7232 105.839C91.6209 105.578 90.3012 106.251 89.6185 108.186C88.9359 110.121 84.7705 120.335 84.7705 120.335L106.768 107.754Z" fill="#A08BE8"/>
<path d="M78.1331 128.416C78.1331 128.416 75.3855 126.65 78.2032 124.1C78.1951 124.088 126.331 96.5155 126.331 96.5155C127.45 95.8736 128.511 94.3801 128.014 93.225C128.459 94.0068 128.909 94.7945 129.363 95.5881C130.301 97.2319 129.582 98.7963 128.567 99.5747C128.466 99.6492 128.36 99.7277 128.251 99.7905L124.958 101.671L78.1331 128.416Z" fill="#512BD4"/>
<path d="M86.2485 133.967L167.647 87.392C167.596 91.542 167.069 95.6586 166.09 99.664L97.6178 138.84C93.6644 137.655 89.852 136.023 86.2485 133.967Z" fill="#D0C5F3"/>
<path d="M89.9481 33.2122L80.7093 38.2153L76.8713 28.0196L83.5098 24.431L89.9481 33.2122Z" fill="#8A6FE8"/>
<path d="M76.6184 29.067C72.5496 28.3433 69.8379 24.4583 70.5616 20.3895C71.2853 16.3208 75.1703 13.609 79.2391 14.3327C83.3078 15.0564 86.0195 18.9414 85.2959 23.0102C84.5722 27.0789 80.6871 29.7907 76.6184 29.067Z" fill="#D8CFF7"/>
<path d="M96.6265 37.0974C97.0407 36.8737 97.1836 36.3298 96.9089 35.9425C94.0416 31.8222 88.4802 30.4227 83.9626 32.8706C79.4451 35.3184 77.5732 40.7395 79.4584 45.3928C79.6371 45.8298 80.1639 46.0107 80.583 45.7878L96.6265 37.0974Z" fill="url(#paint13_radial)"/>
<path d="M104.717 94.5882C102.807 91.132 102.927 87.4086 104.985 86.2718C107.043 85.135 110.259 87.0152 112.168 90.4715C114.078 93.9277 113.958 97.651 111.9 98.7878C109.842 99.9246 106.626 98.0444 104.717 94.5882Z" fill="#512BD4"/>
<path d="M75.0307 111.678C73.019 108.28 73.028 104.555 75.0509 103.357C77.0737 102.16 80.3444 103.943 82.3561 107.341C84.3678 110.739 84.3588 114.464 82.336 115.662C80.3131 116.86 77.0425 115.076 75.0307 111.678Z" fill="#512BD4"/>
<path d="M106.692 89.4072C105.509 89.0838 104.3 89.3355 103.369 89.9853C103.41 91.3978 103.855 93.0205 104.719 94.5897C105.258 95.5676 105.907 96.4164 106.599 97.1088C107.956 96.7757 109.095 95.7372 109.486 94.2887C110.062 92.1708 108.815 89.9848 106.692 89.4072Z" fill="#8065E0"/>
<path d="M76.862 106.21C75.6735 105.885 74.4696 106.138 73.5327 106.792C73.5506 108.277 74.0455 110.022 75.036 111.69C75.5414 112.539 76.121 113.288 76.7475 113.918C78.1133 113.591 79.2636 112.545 79.6604 111.092C80.2321 108.973 78.98 106.786 76.862 106.21Z" fill="#8065E0"/>
<path d="M99.3323 143.012L199.65 85.2174C201.639 84.0685 202.322 81.5283 201.173 79.5393L196.005 70.5893C194.857 68.6003 192.316 67.9227 190.327 69.0666L82.4879 131.149C79.6193 132.803 80.0134 135.345 82.9757 136.826L95.3987 143.128C96.6471 143.75 98.121 143.71 99.3323 143.012Z" fill="#27BEE0"/>
<path d="M82.4931 131.15L190.328 69.0663C192.317 67.9175 194.857 68.6001 196.006 70.5891L196.657 71.7151C195.415 70.9969 193.83 70.9406 192.499 71.7089L84.6592 133.792C83.2298 134.62 82.6083 135.663 82.7134 136.687C79.9944 135.193 79.7105 132.753 82.4931 131.15Z" fill="#A4ECFC"/>
<path d="M97.0736 124.511L112.307 115.796L120.014 129.268L104.781 137.983L97.0736 124.511Z" fill="#512BD4"/>
<path d="M201.543 50.758L198.422 60.2903C188.435 57.0165 179.457 56.63 171.733 59.1434C164.94 61.3507 158.928 65.8609 153.874 72.5365L145.873 66.4827C155.271 54.0667 172.56 41.2593 201.543 50.758Z" fill="url(#paint14_linear)"/>
<path d="M204.502 59.4949L209.64 67.3986C210.993 69.511 210.379 72.3251 208.261 73.6817C206.149 75.0342 203.335 74.4209 201.978 72.3026L196.711 64.2016L204.502 59.4949Z" fill="#8A6FE8"/>
<path d="M204.977 50.1071L214.346 51.1171C216.839 51.4016 218.633 53.6591 218.343 56.1513C218.059 58.6443 215.801 60.4377 213.309 60.1483L203.704 59.1116L204.977 50.1071Z" fill="#8A6FE8"/>
<path d="M204.279 56.6242L213.621 57.8755C216.108 58.2255 217.842 60.5238 217.492 63.0104C217.143 65.4969 214.844 67.2318 212.358 66.8818L202.78 65.5989L204.279 56.6242Z" fill="#8A6FE8"/>
<path d="M201.978 46.3224L211.363 45.4889C213.866 45.2829 216.063 47.1455 216.264 49.648C216.47 52.1513 214.607 54.3483 212.105 54.5494L202.48 55.4068L201.978 46.3224Z" fill="#8A6FE8"/>
<path d="M198.316 64.8921C193.141 63.9717 189.692 59.0302 190.613 53.855C191.533 48.6798 196.474 45.2307 201.65 46.1512C206.825 47.0717 210.274 52.0132 209.353 57.1883C208.433 62.3635 203.492 65.8126 198.316 64.8921Z" fill="url(#paint15_radial)"/>
<path d="M145.748 80.5634C140.318 79.5975 136.699 74.4122 137.664 68.9817C138.63 63.5512 143.816 59.932 149.246 60.8978C154.677 61.8637 158.296 67.049 157.33 72.4795C156.364 77.91 151.179 81.5293 145.748 80.5634Z" fill="url(#paint16_radial)"/>
<path d="M104.364 132.701C104.25 132.769 104.131 132.792 104.006 132.766C103.877 132.739 103.783 132.67 103.718 132.563C103.653 132.456 103.634 132.337 103.666 132.21C103.699 132.082 103.769 131.983 103.883 131.915C103.998 131.842 104.116 131.823 104.245 131.851C104.375 131.878 104.469 131.947 104.539 132.056C104.604 132.163 104.618 132.28 104.585 132.407C104.555 132.53 104.479 132.627 104.364 132.701Z" fill="white"/>
<path d="M108.847 129.863L108.114 130.314L104.306 128.445C104.21 128.397 104.121 128.346 104.036 128.28L104.017 128.29C104.085 128.371 104.209 128.557 104.389 128.846L106.06 131.572L105.409 131.971L102.861 127.815L103.646 127.334L107.35 129.167C107.506 129.241 107.61 129.297 107.657 129.329L107.67 129.323C107.586 129.225 107.46 129.045 107.298 128.782L105.654 126.103L106.299 125.707L108.847 129.863Z" fill="white"/>
<path d="M112.01 127.923L109.733 129.32L107.185 125.164L109.369 123.821L109.726 124.405L108.214 125.335L108.937 126.51L110.334 125.654L110.691 126.238L109.295 127.094L110.048 128.323L111.652 127.34L112.01 127.923Z" fill="white"/>
<path d="M113.055 122.367L111.892 123.084L114.083 126.656L113.411 127.069L111.22 123.497L110.059 124.208L109.702 123.624L112.703 121.785L113.055 122.367Z" fill="white"/>
<defs>
<linearGradient id="paint0_linear" x1="195.395" y1="283.716" x2="199.275" y2="130.715" gradientUnits="userSpaceOnUse">
<stop stop-color="white" stop-opacity="0"/>
<stop offset="0.9936" stop-color="#F8B84F"/>
</linearGradient>
<linearGradient id="paint1_linear" x1="218.904" y1="272.129" x2="222.784" y2="119.128" gradientUnits="userSpaceOnUse">
<stop stop-color="white" stop-opacity="0"/>
<stop offset="0.9936" stop-color="#F8B84F"/>
</linearGradient>
<linearGradient id="paint2_linear" x1="120.114" y1="134.282" x2="139.337" y2="169.769" gradientUnits="userSpaceOnUse">
<stop stop-color="#522CD5"/>
<stop offset="0.4397" stop-color="#8A6FE8"/>
</linearGradient>
<linearGradient id="paint3_linear" x1="120.114" y1="134.282" x2="139.337" y2="169.769" gradientUnits="userSpaceOnUse">
<stop stop-color="#522CD5"/>
<stop offset="0.4397" stop-color="#8A6FE8"/>
</linearGradient>
<linearGradient id="paint4_linear" x1="143.091" y1="164.564" x2="154.416" y2="210.571" gradientUnits="userSpaceOnUse">
<stop stop-color="#522CD5"/>
<stop offset="0.4397" stop-color="#8A6FE8"/>
</linearGradient>
<radialGradient id="paint5_radial" cx="0" cy="0" r="1" gradientUnits="userSpaceOnUse" gradientTransform="translate(156.582 199.134) rotate(140.588) scale(9.13755 9.13692)">
<stop offset="0.034" stop-color="#522CD5"/>
<stop offset="1" stop-color="#8A6FE8"/>
</radialGradient>
<linearGradient id="paint6_linear" x1="133.845" y1="127.701" x2="159.533" y2="158.831" gradientUnits="userSpaceOnUse">
<stop stop-color="#522CD5"/>
<stop offset="0.4397" stop-color="#8A6FE8"/>
</linearGradient>
<linearGradient id="paint7_linear" x1="133.845" y1="127.701" x2="159.533" y2="158.831" gradientUnits="userSpaceOnUse">
<stop stop-color="#522CD5"/>
<stop offset="0.4397" stop-color="#8A6FE8"/>
</linearGradient>
<linearGradient id="paint8_linear" x1="162.931" y1="152.051" x2="183.132" y2="195.541" gradientUnits="userSpaceOnUse">
<stop stop-color="#522CD5"/>
<stop offset="0.4397" stop-color="#8A6FE8"/>
</linearGradient>
<radialGradient id="paint9_radial" cx="0" cy="0" r="1" gradientUnits="userSpaceOnUse" gradientTransform="translate(174.638 181.259) rotate(129.503) scale(16.1883 16.1875)">
<stop offset="0.034" stop-color="#522CD5"/>
<stop offset="0.9955" stop-color="#8A6FE8"/>
</radialGradient>
<radialGradient id="paint10_radial" cx="0" cy="0" r="1" gradientUnits="userSpaceOnUse" gradientTransform="translate(39.0743 126.904) rotate(-162.994) scale(14.8014)">
<stop stop-color="#8065E0"/>
<stop offset="1" stop-color="#512BD4"/>
</radialGradient>
<radialGradient id="paint11_radial" cx="0" cy="0" r="1" gradientUnits="userSpaceOnUse" gradientTransform="translate(100.167 56.3145) rotate(150.225) scale(57.6175)">
<stop offset="0.3472" stop-color="#A08BE8"/>
<stop offset="0.684" stop-color="#8065E0"/>
<stop offset="0.7596" stop-color="#8065E0"/>
</radialGradient>
<radialGradient id="paint12_radial" cx="0" cy="0" r="1" gradientUnits="userSpaceOnUse" gradientTransform="translate(107.046 84.7731) rotate(-162.994) scale(58.0454)">
<stop offset="0.0933" stop-color="#E1DFDD"/>
<stop offset="0.6573" stop-color="white"/>
</radialGradient>
<radialGradient id="paint13_radial" cx="0" cy="0" r="1" gradientUnits="userSpaceOnUse" gradientTransform="translate(88.8269 34.7597) rotate(-162.994) scale(8.25177)">
<stop stop-color="#8065E0"/>
<stop offset="1" stop-color="#512BD4"/>
</radialGradient>
<linearGradient id="paint14_linear" x1="147.744" y1="55.953" x2="199" y2="65.0695" gradientUnits="userSpaceOnUse">
<stop offset="0.2495" stop-color="#967FE6"/>
<stop offset="1" stop-color="#8A6FE8"/>
</linearGradient>
<radialGradient id="paint15_radial" cx="0" cy="0" r="1" gradientUnits="userSpaceOnUse" gradientTransform="translate(200.764 51.0274) rotate(-162.994) scale(15.0151)">
<stop stop-color="#8065E0"/>
<stop offset="1" stop-color="#512BD4"/>
</radialGradient>
<radialGradient id="paint16_radial" cx="0" cy="0" r="1" gradientUnits="userSpaceOnUse" gradientTransform="translate(144.844 69.0689) rotate(-174.365) scale(9.98958)">
<stop stop-color="#8065E0"/>
<stop offset="1" stop-color="#512BD4"/>
</radialGradient>
</defs>
</svg>
