<svg width="252" height="230" viewBox="0 0 252 230" fill="none" xmlns="http://www.w3.org/2000/svg">
<path d="M188.989 212.942C188.723 212.942 188.452 212.923 188.181 212.889L139.842 206.375C136.382 205.909 133.645 203.286 133.032 199.851L125.529 157.883L128.789 157.299L136.292 199.266C136.653 201.281 138.259 202.816 140.283 203.091L188.623 209.606C189.535 209.729 190.405 209.402 191.008 208.708C191.612 208.014 191.816 207.107 191.569 206.223L178.411 159.157C177.846 157.133 176.444 155.431 174.562 154.491L165.853 150.133L167.335 147.173L176.045 151.53C178.758 152.889 180.782 155.341 181.6 158.264L194.757 205.329C195.304 207.278 194.833 209.354 193.508 210.879C192.358 212.2 190.709 212.942 188.989 212.942Z" fill="#1DACCC"/>
<path d="M146.874 47.5956C158.288 21.5514 156.116 -5.40041 130.238 1.99328C104.36 9.38698 48.8934 18.0161 24.2462 8.774C-0.401016 -0.468112 -4.71559 10.6224 5.14425 34.6567C15.0041 58.6909 30.4045 96.2771 31.0222 122.773C31.4546 141.295 61.7896 166.593 118.483 165.358C175.175 164.122 204.232 125.961 204.232 113.022C204.232 100.083 202.64 92.8654 178.772 109.663C149.421 130.323 122.84 102.44 146.874 47.5956Z" fill="#33D5F9"/>
<path d="M208.48 117.094C213.218 105.054 210.343 85.8043 180.768 106.137C151.189 126.474 122.845 102.44 146.874 47.5956C158.288 21.5514 156.116 -5.40041 130.238 1.99329C104.36 9.38698 48.8934 18.0161 24.2462 8.774C22.1555 7.98997 20.2215 7.36274 18.4206 6.86856C3.79477 4.9251 2.26946 15.9301 10.4044 35.7591C20.2643 59.7933 34.3104 93.9155 34.6192 122.16C34.776 136.396 54.6383 158.126 88.6844 166.071C90.913 166.489 93.2033 166.855 95.5602 167.168C95.5744 167.168 95.5887 167.173 95.6029 167.173C96.7529 167.325 97.9218 167.463 99.1002 167.591C99.1715 167.601 99.2475 167.605 99.3188 167.615C100.445 167.734 101.585 167.838 102.74 167.933C102.797 167.938 102.854 167.943 102.911 167.947C104.061 168.038 105.225 168.114 106.399 168.18C106.594 168.19 106.784 168.199 106.979 168.209C108.081 168.266 109.193 168.313 110.319 168.347C110.4 168.351 110.481 168.351 110.561 168.356C111.721 168.389 112.899 168.404 114.082 168.413C114.353 168.413 114.629 168.413 114.904 168.413C116.097 168.413 117.295 168.404 118.506 168.38C118.511 168.38 118.516 168.38 118.521 168.38C132.329 168.081 144.969 165.03 156.188 160.411C158.269 159.556 160.303 158.644 162.284 157.684C162.973 157.351 163.657 157.009 164.337 156.667C165.04 156.31 165.734 155.949 166.423 155.579C168.955 154.224 171.393 152.804 173.74 151.321C198.007 136.011 204.237 127.876 208.48 117.094Z" fill="url(#paint0_radial)"/>
<path d="M101.771 134.091C143.22 163.699 183.04 144.935 194.819 126.194C201.02 116.325 194.292 108.703 169.725 119.993C148.86 129.582 105.719 127.89 93.3126 123.376C80.9058 118.867 98.2734 131.597 101.771 134.091Z" fill="url(#paint1_radial)"/>
<path d="M187.511 157.437C179.537 149.097 161.994 133.502 139.77 127.805L136.387 141C156.544 146.165 171.631 160.44 177.784 167.092C178.293 167.643 183.762 163.243 187.511 157.437Z" fill="url(#paint2_linear)"/>
<path d="M187.511 157.437C179.537 149.097 161.994 133.502 139.77 127.805L136.387 141C156.544 146.165 171.631 160.44 177.784 167.092C178.293 167.643 183.762 163.243 187.511 157.437Z" fill="url(#paint3_linear)"/>
<path d="M177.699 166.997L185.377 159.423C188.666 161.067 192.819 175.826 233.741 171.939L249.108 177.574L216.563 209.639C216.273 209.924 214.487 209.896 213.408 208.641L177.699 166.997Z" fill="#522CD5"/>
<path d="M240.554 164.17C242.888 163.704 244.612 164.521 246.085 166.237L251.236 172.309C252.044 173.25 251.982 174.728 251.099 175.598L244.826 181.784C243.828 182.768 242.279 182.701 241.362 181.637L236.468 176.41C234.772 174.433 233.441 173.431 230.324 174.015C211.892 177.475 193.161 175.968 180.892 163.847L187.449 157.38C194.149 163.177 209.877 170.266 240.554 164.17Z" fill="url(#paint4_linear)"/>
<path d="M251.099 175.598C251.978 174.728 252.039 173.25 251.236 172.309L246.085 166.237C245.268 165.282 244.365 164.616 243.325 164.284L233.408 174.068C234.591 174.429 235.47 175.246 236.468 176.41L241.362 181.637C242.275 182.702 243.828 182.773 244.826 181.789L251.099 175.598Z" fill="url(#paint5_radial)"/>
<path d="M173.593 171.359L160.269 167.848C163.258 156.496 165.159 148.803 166.009 143.067C166.926 136.909 166.228 135.222 166.09 134.961C165.8 134.776 164.104 133.973 157.266 134.562C138.801 136.154 135 136.995 134.847 137.028C135.033 136.985 135.104 136.957 135.104 136.957L131.217 123.737C133.55 123.053 142.612 121.993 156.083 120.829C163.895 120.155 171.792 120.326 176.625 126.066C183.116 133.783 180.217 146.213 173.593 171.359Z" fill="url(#paint6_linear)"/>
<path d="M161.947 161.433L172.448 164.369L166.342 222.583L145.501 216.753C143.914 216.311 143.077 214.69 143.633 213.132L161.947 161.433Z" fill="#522CD5"/>
<path d="M186.955 212.98C188.342 214.914 187.796 216.705 187.036 218.834L184.712 225.353C184.294 226.517 182.983 227.202 181.79 226.869L155.565 219.532C154.216 219.157 153.503 217.774 153.973 216.453L156.15 209.63C157.024 207.173 155.788 205.187 155.494 202.032C154.914 195.769 159.552 176.206 164.56 162.169L175.256 165.163C173.541 173.849 173.493 194.234 186.955 212.98Z" fill="url(#paint7_linear)"/>
<path d="M156.149 209.625L153.973 216.448C153.503 217.769 154.211 219.152 155.56 219.528L181.79 226.864C182.983 227.197 184.294 226.517 184.712 225.348L187.036 218.829C187.596 217.261 188.034 215.873 187.672 214.476L156.169 205.662C156.463 207.03 156.639 208.256 156.149 209.625Z" fill="url(#paint8_radial)"/>
<path d="M171.55 83.856L162.317 75.6498C169.915 67.1062 172.814 58.6291 170.485 51.7914C167.72 43.6707 157.665 37.5789 142.179 34.6376L144.484 22.5017C170.177 27.377 179.162 38.957 182.179 47.8094C186.005 59.0425 182.227 71.8437 171.55 83.856Z" fill="#8A6FE8"/>
<path d="M137.071 49.6864L148.138 36.4386C150.11 34.077 149.796 30.5655 147.435 28.5935C145.073 26.6215 141.562 26.9352 139.59 29.2968L128.523 42.5446C126.551 44.9062 126.865 48.4177 129.226 50.3897C131.588 52.3617 135.099 52.0481 137.071 49.6864Z" fill="#8A6FE8"/>
<path d="M140.972 16.3008L130.395 11.5205C127.568 10.2661 124.261 11.5396 123.006 14.3668C121.752 17.1941 123.025 20.5013 125.852 21.7558L136.696 26.6596L140.972 16.3008Z" fill="#8A6FE8"/>
<path d="M135.251 18.8715L119.243 18.9047C116.149 18.9237 113.66 21.4469 113.679 24.5403C113.698 27.6337 116.221 30.1236 119.314 30.1093L131.217 30.1188L135.251 18.8715Z" fill="#8A6FE8"/>
<path d="M136.972 25.4906L121.376 29.1637C118.364 29.8669 116.492 32.8795 117.195 35.8921C117.898 38.9047 120.911 40.7769 123.923 40.0737L139.804 36.3388L136.972 25.4906Z" fill="#8A6FE8"/>
<path d="M139.979 39.2944C146.454 39.2944 151.702 34.0461 151.702 27.5719C151.702 21.0977 146.454 15.8494 139.979 15.8494C133.505 15.8494 128.257 21.0977 128.257 27.5719C128.257 34.0461 133.505 39.2944 139.979 39.2944Z" fill="url(#paint9_radial)"/>
<path d="M171.65 82.0314C168.366 66.0561 160.426 55.9254 160.426 55.9254L163.757 54.2861L163.809 54.1815C146.247 30.5512 113.797 22.0694 86.4416 35.5405C55.6172 50.7175 42.9348 88.0044 58.1071 118.824C73.2793 149.644 110.571 162.331 141.391 147.159C165.71 135.184 178.735 109.444 175.693 83.9701C175.461 82.939 174.624 81.2949 171.65 82.0314Z" fill="url(#paint10_radial)"/>
<path d="M171.65 82.0314C168.409 66.2557 160.621 56.182 160.431 55.9397L102.531 84.4453C102.531 84.4453 98.7011 85.8708 100.34 89.2018C101.98 92.5328 106.755 101.879 111.878 112.295C112.933 114.438 115.194 114.605 116.572 113.925C116.577 113.925 171.968 84.3598 171.65 82.0314Z" fill="url(#paint11_radial)"/>
<path d="M136.724 99.2801C136.724 99.2801 142.16 87.8475 143.253 85.6902C144.351 83.5329 145.833 82.7109 148.105 83.3001C150.376 83.8893 162.726 86.479 162.726 86.479L136.724 99.2801Z" fill="#A08BE8"/>
<path d="M175.784 84.7257C175.784 84.7257 175.864 80.9908 171.65 82.0315C171.645 82.0125 114.7 110.014 114.7 110.014C113.374 110.665 111.284 110.718 110.5 109.506C110.956 110.423 111.417 111.354 111.878 112.295C112.833 114.239 114.781 114.552 116.168 114.091C116.306 114.044 116.444 113.992 116.577 113.93L120.469 112.015L175.784 84.7257Z" fill="#512BD4"/>
<path d="M175.945 95.9208L79.7084 143.3C83.6761 145.904 87.9146 148.038 92.3432 149.677L173.298 109.82C174.695 105.315 175.594 100.653 175.945 95.9208Z" fill="#D0C5F3"/>
<path d="M90.8132 29.2491L80.1456 34.7944L75.9545 23.0624L83.6143 19.0804L90.8132 29.2491Z" fill="#8A6FE8"/>
<path d="M76.4867 24.2218C81.2158 24.2218 85.0494 20.3882 85.0494 15.6592C85.0494 10.9302 81.2158 7.09656 76.4867 7.09656C71.7577 7.09656 67.9241 10.9302 67.9241 15.6592C67.9241 20.3882 71.7577 24.2218 76.4867 24.2218Z" fill="#D0C5F3"/>
<path d="M98.3732 33.8204C98.8531 33.5686 99.0242 32.9556 98.7201 32.5042C95.5222 27.7335 89.1834 26.0323 83.9707 28.7408C78.7581 31.4541 76.5153 37.6218 78.5823 42.977C78.7771 43.4807 79.3805 43.6993 79.8605 43.4474L98.3732 33.8204Z" fill="url(#paint12_radial)"/>
<path d="M166.299 68.8312L151.702 76.0871C153.066 78.1588 157 78.5437 160.882 76.8949C165.04 75.1272 167.554 71.687 166.504 69.2113C166.447 69.0783 166.375 68.9547 166.299 68.8312Z" fill="#8065E0"/>
<path d="M134.928 84.4263L120.369 91.6679C121.851 93.5591 125.648 93.8727 129.397 92.2761C133.555 90.5085 136.069 87.0682 135.019 84.5926C134.995 84.5356 134.957 84.4833 134.928 84.4263Z" fill="#8065E0"/>
<path d="M152.635 123.753L170.873 114.7L162.866 98.5695L144.628 107.622L152.635 123.753Z" fill="#512BD4"/>
<path d="M152.823 116.159C152.7 116.22 152.581 116.23 152.453 116.192C152.324 116.149 152.234 116.073 152.177 115.959C152.12 115.845 152.115 115.721 152.158 115.598C152.201 115.474 152.286 115.379 152.405 115.322C152.529 115.26 152.652 115.251 152.781 115.294C152.909 115.332 152.999 115.412 153.061 115.527C153.118 115.641 153.123 115.759 153.075 115.888C153.032 116.006 152.947 116.097 152.823 116.159Z" fill="white"/>
<path d="M157.646 113.692L156.858 114.082L153.161 111.825C153.066 111.768 152.98 111.701 152.904 111.63L152.885 111.639C152.947 111.725 153.056 111.929 153.213 112.243L154.657 115.17L153.959 115.512L151.759 111.046L152.6 110.632L156.192 112.846C156.344 112.937 156.444 113.003 156.492 113.041L156.506 113.036C156.425 112.927 156.321 112.732 156.178 112.452L154.757 109.577L155.451 109.235L157.646 113.692Z" fill="white"/>
<path d="M161.049 112.015L158.606 113.222L156.406 108.755L158.753 107.596L159.062 108.223L157.437 109.026L158.06 110.29L159.556 109.554L159.865 110.181L158.369 110.917L159.02 112.238L160.74 111.388L161.049 112.015Z" fill="white"/>
<path d="M162.631 106.465L161.381 107.083L163.272 110.917L162.55 111.274L160.659 107.439L159.409 108.057L159.1 107.429L162.322 105.842L162.631 106.465Z" fill="white"/>
<path d="M77.4086 117.541C63.6761 116.8 52.7613 114.353 44.959 110.271C37.342 106.289 32.519 100.767 30.6325 93.8679C26.3085 78.0589 39.3377 60.6676 49.5064 53.8868L56.0971 63.7704C48.7271 68.6837 39.6038 81.6322 42.0937 90.7318C44.4221 99.2374 57.1899 104.545 78.0548 105.671L77.4086 117.541Z" fill="url(#paint13_linear)"/>
<path d="M79.5944 123.666C85.9032 123.666 91.0175 118.552 91.0175 112.243C91.0175 105.934 85.9032 100.82 79.5944 100.82C73.2855 100.82 68.1712 105.934 68.1712 112.243C68.1712 118.552 73.2855 123.666 79.5944 123.666Z" fill="url(#paint14_radial)"/>
<path d="M73.783 68.9119L56.5437 69.8195C53.4741 69.9811 50.8512 67.6242 50.6896 64.5498C50.528 61.4802 52.8849 58.8572 55.9593 58.6957L73.1985 57.7881C76.2682 57.6265 78.8911 59.9834 79.0527 63.0578C79.2142 66.1321 76.8526 68.7504 73.783 68.9119Z" fill="#8A6FE8"/>
<path d="M44.7261 52.0101L47.2446 40.6819C47.9383 37.6693 50.9414 35.7829 53.954 36.4767C56.9666 37.1704 58.853 40.1735 58.1593 43.1861L55.5791 54.8041L44.7261 52.0101Z" fill="#8A6FE8"/>
<path d="M50.2192 48.9736L59.8462 36.1867C61.7184 33.7253 65.2299 33.2407 67.6913 35.1128C70.1527 36.985 70.6374 40.4965 68.7652 42.9579L61.6376 52.4899L50.2192 48.9736Z" fill="#8A6FE8"/>
<path d="M54.4815 54.3241L66.7742 44.0462C69.1453 42.0599 72.6759 42.364 74.6621 44.7352C76.6483 47.1063 76.3442 50.6368 73.9731 52.623L61.4571 63.0911L54.4815 54.3241Z" fill="#8A6FE8"/>
<path d="M54.3437 69.7008C60.8178 69.7008 66.0662 64.4524 66.0662 57.9783C66.0662 51.5041 60.8178 46.2557 54.3437 46.2557C47.8695 46.2557 42.6212 51.5041 42.6212 57.9783C42.6212 64.4524 47.8695 69.7008 54.3437 69.7008Z" fill="url(#paint15_radial)"/>
<path d="M163.676 154.457C163.101 154.03 162.465 153.564 161.771 153.075C136.316 157.27 111.303 143.723 94.6479 122.469C72.9277 94.7375 64.6074 96.586 59.0622 117.384C54.7808 133.44 34.6763 129.045 34.4149 116.51C34.3104 111.582 31.1125 116.135 30.2999 113.63C30.6991 116.79 30.9557 119.85 31.0269 122.777C31.4593 141.3 61.8372 169.611 118.53 168.38C135.123 168.019 150.077 163.809 162.902 157.641C163.173 156.534 163.434 155.474 163.676 154.457Z" fill="#33D5F9"/>
<path d="M163.097 156.843C139.134 166.023 113.664 161.808 100.112 158.696C97.7128 158.145 95.2134 158.682 93.2556 160.169C91.2932 161.656 90.0957 163.923 89.9769 166.389L87.335 221.366C87.2685 222.749 86.6127 224.037 85.5341 224.902C84.4554 225.767 83.0537 226.128 81.6947 225.895L34.5005 217.75C33.2888 217.541 32.2434 216.867 31.5544 215.85C30.8654 214.833 30.6278 213.612 30.8797 212.409L42.797 156.306C43.505 152.965 46.4273 150.58 49.8201 150.499C48.6939 149.672 47.487 148.732 46.3656 147.814C42.9823 149.036 40.3404 151.925 39.5563 155.617L27.6437 211.711C27.2018 213.802 27.6152 215.926 28.8127 217.698C30.0101 219.466 31.83 220.644 33.9398 221.005L81.134 229.15C81.5949 229.231 82.0558 229.269 82.5167 229.269C84.3556 229.269 86.1566 228.646 87.6106 227.477C89.4305 226.018 90.5376 223.847 90.6469 221.519L93.2889 166.541C93.3602 165.058 94.0777 163.699 95.2561 162.801C96.4345 161.908 97.9313 161.585 99.3711 161.918C113.522 165.168 138.35 167.601 163.021 157.133C163.049 157.038 163.073 156.938 163.097 156.843Z" fill="#1DACCC"/>
<defs>
<radialGradient id="paint0_radial" cx="0" cy="0" r="1" gradientUnits="userSpaceOnUse" gradientTransform="translate(107.905 84.5814) scale(93.5798)">
<stop offset="0.00101273" stop-color="#33D5F9"/>
<stop offset="0.9989" stop-color="#1DACCC"/>
</radialGradient>
<radialGradient id="paint1_radial" cx="0" cy="0" r="1" gradientUnits="userSpaceOnUse" gradientTransform="translate(156.282 138.252) scale(89.4056)">
<stop offset="0.00101273" stop-color="#33D5F9"/>
<stop offset="0.9989" stop-color="#1DACCC"/>
</radialGradient>
<linearGradient id="paint2_linear" x1="137.492" y1="131.335" x2="184.166" y2="162.571" gradientUnits="userSpaceOnUse">
<stop stop-color="#522CD5"/>
<stop offset="0.4397" stop-color="#8A6FE8"/>
</linearGradient>
<linearGradient id="paint3_linear" x1="137.492" y1="131.335" x2="184.166" y2="162.571" gradientUnits="userSpaceOnUse">
<stop offset="0.129" stop-color="#522CD5"/>
<stop offset="0.5785" stop-color="#8A6FE8"/>
</linearGradient>
<linearGradient id="paint4_linear" x1="183.088" y1="156.472" x2="251.179" y2="176.463" gradientUnits="userSpaceOnUse">
<stop stop-color="#522CD5"/>
<stop offset="0.4397" stop-color="#8A6FE8"/>
</linearGradient>
<radialGradient id="paint5_radial" cx="0" cy="0" r="1" gradientUnits="userSpaceOnUse" gradientTransform="translate(230.242 160.952) rotate(-44.6111) scale(21.3196)">
<stop offset="0.034" stop-color="#522CD5"/>
<stop offset="0.9955" stop-color="#8A6FE8"/>
</radialGradient>
<linearGradient id="paint6_linear" x1="150.768" y1="116.627" x2="171.029" y2="172.293" gradientUnits="userSpaceOnUse">
<stop offset="0.0624" stop-color="#522CD5"/>
<stop offset="0.3999" stop-color="#8A6FE8"/>
</linearGradient>
<linearGradient id="paint7_linear" x1="160.363" y1="163.157" x2="175.944" y2="228.554" gradientUnits="userSpaceOnUse">
<stop stop-color="#522CD5"/>
<stop offset="0.4397" stop-color="#8A6FE8"/>
</linearGradient>
<radialGradient id="paint8_radial" cx="0" cy="0" r="1" gradientUnits="userSpaceOnUse" gradientTransform="translate(174.623 198.825) rotate(15.629) scale(24.8374)">
<stop offset="0.034" stop-color="#522CD5"/>
<stop offset="0.9955" stop-color="#8A6FE8"/>
</radialGradient>
<radialGradient id="paint9_radial" cx="0" cy="0" r="1" gradientUnits="userSpaceOnUse" gradientTransform="translate(139.979 21.7719) scale(15.4615)">
<stop stop-color="#8065E0"/>
<stop offset="0.8628" stop-color="#512BD4"/>
</radialGradient>
<radialGradient id="paint10_radial" cx="0" cy="0" r="1" gradientUnits="userSpaceOnUse" gradientTransform="translate(124.377 73.9927) scale(54.6321)">
<stop offset="0.4744" stop-color="#A08BE8"/>
<stop offset="0.8618" stop-color="#8065E0"/>
</radialGradient>
<radialGradient id="paint11_radial" cx="0" cy="0" r="1" gradientUnits="userSpaceOnUse" gradientTransform="translate(148.815 26.9782) scale(70.882)">
<stop offset="0.456" stop-color="#E1DFDD"/>
<stop offset="0.8188" stop-color="white"/>
</radialGradient>
<radialGradient id="paint12_radial" cx="0" cy="0" r="1" gradientUnits="userSpaceOnUse" gradientTransform="translate(87.8499 32.5465) scale(10.5947)">
<stop stop-color="#8065E0"/>
<stop offset="0.8628" stop-color="#512BD4"/>
</radialGradient>
<linearGradient id="paint13_linear" x1="53.9163" y1="117.543" x2="53.9163" y2="53.8925" gradientUnits="userSpaceOnUse">
<stop offset="0.2296" stop-color="#9780E6"/>
<stop offset="0.9374" stop-color="#8A6FE8"/>
</linearGradient>
<radialGradient id="paint14_radial" cx="0" cy="0" r="1" gradientUnits="userSpaceOnUse" gradientTransform="translate(79.9668 107.722) scale(13.1086)">
<stop stop-color="#8065E0"/>
<stop offset="0.8628" stop-color="#512BD4"/>
</radialGradient>
<radialGradient id="paint15_radial" cx="0" cy="0" r="1" gradientUnits="userSpaceOnUse" gradientTransform="translate(54.7288 53.3554) scale(15.4066)">
<stop stop-color="#8065E0"/>
<stop offset="0.8628" stop-color="#512BD4"/>
</radialGradient>
</defs>
</svg>
