<svg width="234" height="233" viewBox="0 0 234 233" fill="none" xmlns="http://www.w3.org/2000/svg">
<path d="M155.061 182.877C155.17 172.999 153.763 152.946 143.566 136.154L133.597 142.207C142.849 157.437 143.542 175.213 143.329 182.968C143.305 183.609 149.287 184.189 155.061 182.877Z" fill="url(#paint0_linear)"/>
<path d="M143.329 182.858L152.561 182.816L161.181 232.196L142.649 232.281C141.238 232.286 140.169 231.15 140.264 229.739L143.329 182.858Z" fill="#522CD5"/>
<path d="M180.943 219.209C182.545 220.473 182.516 222.303 182.393 224.232L182.008 230.148C181.936 231.207 181.015 232.077 179.955 232.082L160.644 232.167C159.442 232.172 158.534 231.203 158.615 230.005L158.743 223.875C158.891 221.647 158.14 220.83 156.415 218.729C153.459 215.142 144.721 195.588 145.552 182.849L155.061 182.806C155.693 190.366 165.666 207.159 180.943 219.209Z" fill="url(#paint1_linear)"/>
<path d="M182.388 224.232C182.478 222.882 182.502 221.59 181.974 220.497L157.888 220.606C158.553 221.585 158.833 222.44 158.743 223.871L158.615 230C158.534 231.202 159.446 232.172 160.644 232.162L179.955 232.077C181.015 232.072 181.936 231.202 182.008 230.143L182.388 224.232Z" fill="url(#paint2_radial)"/>
<path d="M94.0769 190.257L82.2879 188.789L88.9213 135.484L100.71 136.947L94.0769 190.257Z" fill="url(#paint3_linear)"/>
<path d="M83.1432 182.469L92.4851 182.426L95.0701 232.357L76.3197 232.443C74.8942 232.447 73.9534 231.298 74.2242 229.872L83.1432 182.469Z" fill="#522CD5"/>
<path d="M110.29 219.399C111.73 220.701 111.696 222.374 111.326 224.327L110.2 230.309C110 231.378 108.955 232.258 107.885 232.262L81.0715 232.386C79.855 232.391 79.0567 231.412 79.2848 230.195L80.2399 223.994C80.6628 221.742 80.3349 221.077 80.3777 218.188C80.4585 212.771 82.9579 195.332 85.3813 182.455L95.0035 182.412C94.7089 190.062 98.0304 208.285 110.29 219.399Z" fill="url(#paint4_linear)"/>
<path d="M80.2494 223.999L79.2943 230.2C79.0662 231.412 79.8645 232.395 81.081 232.391L107.895 232.267C108.969 232.262 110.01 231.383 110.209 230.314L111.335 224.332C111.601 222.916 111.682 221.647 111.164 220.559L80.4395 220.697C80.4823 221.799 80.5155 222.588 80.2494 223.999Z" fill="url(#paint5_radial)"/>
<path d="M153.027 107.814L153.293 94.5523C167.657 94.31 177.684 90.252 184.322 82.0886C196.353 67.2869 192.129 44.2838 192.081 44.051L203.566 42.5352C203.785 43.6898 208.798 71.0313 193.455 89.9052C184.597 100.81 170.917 107.515 153.027 107.814Z" fill="#8A6FE8"/>
<path d="M196.201 53.9726C202.675 53.9726 207.924 48.7243 207.924 42.2501C207.924 35.7759 202.675 30.5276 196.201 30.5276C189.727 30.5276 184.479 35.7759 184.479 42.2501C184.479 48.7243 189.727 53.9726 196.201 53.9726Z" fill="url(#paint6_radial)"/>
<path d="M199.67 33.2883L194.652 22.8202C193.298 20.0405 189.943 18.8858 187.163 20.2448C184.384 21.599 183.229 24.9538 184.588 27.7335L189.734 38.4677L199.67 33.2883Z" fill="#8A6FE8"/>
<path d="M191.179 34.2339L180.934 28.7789C178.192 27.3438 174.809 28.4035 173.374 31.1405C171.939 33.8822 172.998 37.2655 175.735 38.7005L186.241 44.2933L191.179 34.2339Z" fill="#8A6FE8"/>
<path d="M217.28 35.455L214.163 39.2469C212.21 41.6228 208.698 41.9649 206.322 40.012C203.946 38.059 203.604 34.5475 205.557 32.1716L208.674 28.3797C210.627 26.0038 214.139 25.6617 216.515 27.6147C218.891 29.5724 219.233 33.0792 217.28 35.455Z" fill="#D0C5F3"/>
<path d="M223.509 21.4279C225.481 20.8387 227.567 21.9601 228.161 23.9321L231.202 34.0723C231.792 36.0442 230.67 38.1302 228.698 38.7242L10.7553 104.084C8.78334 104.673 6.69733 103.552 6.10336 101.58L3.06225 91.4399C2.47304 89.4679 3.59445 87.3819 5.56642 86.788L223.509 21.4279Z" fill="#FF00FF"/>
<path d="M222.825 19.1518L4.88695 84.5166C1.65577 85.486 -0.178393 88.893 0.79096 92.1242L3.83207 102.264C4.80142 105.496 8.20841 107.33 11.4396 106.36L229.378 41.0003C232.609 40.0309 234.443 36.6239 233.474 33.3928L230.433 23.2526C229.468 20.0166 226.061 18.1825 222.825 19.1518Z" fill="#B3AFAB"/>
<path d="M222.825 19.1518L200.734 25.7757L207.287 47.6242L229.378 41.0003C232.609 40.0309 234.443 36.6239 233.474 33.3928L230.433 23.2526C229.468 20.0166 226.061 18.1825 222.825 19.1518Z" fill="#797673"/>
<path d="M19.2989 90.4468L19.2419 90.4658L18.7952 88.969C18.244 87.1253 16.2958 86.0752 14.4521 86.6312L14.2146 86.7024C12.3709 87.2536 11.3208 89.2018 11.8767 91.0455L12.3234 92.5423L12.1666 92.5898C11.3873 92.8227 10.9454 93.6447 11.1782 94.4287L12.4849 98.7813C12.7178 99.5606 13.5398 100.003 14.3238 99.7697L21.4657 97.6267C22.245 97.3938 22.6869 96.5718 22.4541 95.7877L21.1473 91.4351C20.905 90.6559 20.0829 90.214 19.2989 90.4468ZM12.9744 90.7176C12.6037 89.4822 13.307 88.1802 14.5424 87.8096L14.78 87.7383C16.0155 87.3677 17.3174 88.0709 17.6881 89.3064L18.1347 90.8032L13.4163 92.2192L12.9744 90.7176Z" fill="#797673"/>
<path d="M164.754 44.9302L28.7819 85.7161L30.6072 91.801L166.579 51.0151L164.754 44.9302Z" fill="#E1DFDD"/>
<path d="M224.773 35.5358L220.525 33.2454C220.867 32.2666 220.92 31.1784 220.601 30.114C219.793 27.4293 216.952 25.8945 214.267 26.7023C211.578 27.5101 210.048 30.3516 210.855 33.0363C211.663 35.7258 214.505 37.2559 217.189 36.4481C218.273 36.125 219.166 35.4645 219.793 34.6187L224.037 36.9042C224.289 37.0373 224.602 36.947 224.735 36.6952L224.982 36.2343C225.12 35.9824 225.025 35.6736 224.773 35.5358ZM216.743 34.9608C214.875 35.5215 212.903 34.4571 212.343 32.5897C211.782 30.7222 212.846 28.7503 214.714 28.1896C216.581 27.6289 218.553 28.6933 219.114 30.5607C219.67 32.4281 218.61 34.4001 216.743 34.9608Z" fill="white"/>
<path d="M42.2451 163.609L49.9619 172.281C52.0336 174.576 55.5737 174.757 57.8735 172.685C60.1686 170.613 60.3491 167.073 58.2774 164.773L48.7692 154.32L42.2451 163.609Z" fill="#8A6FE8"/>
<path d="M86.8638 31.0644L75.7115 35.5501L72.6751 23.4712L80.6865 20.2495L86.8638 31.0644Z" fill="#D0C5F3"/>
<path d="M84.3691 51.915C90.678 51.915 95.7923 46.8007 95.7923 40.4919C95.7923 34.183 90.678 29.0687 84.3691 29.0687C78.0603 29.0687 72.946 34.183 72.946 40.4919C72.946 46.8007 78.0603 51.915 84.3691 51.915Z" fill="#512BD4"/>
<path d="M168.893 111.05C173.003 95.2698 170.352 82.673 170.352 82.673H174.063L174.153 82.6017C168.836 53.6447 143.471 31.7012 112.975 31.7012C78.6195 31.7012 50.7697 59.5511 50.7697 93.9061C50.7697 128.261 78.6195 156.111 112.975 156.111C140.083 156.111 163.139 138.767 171.658 114.576C171.91 113.55 171.891 111.706 168.893 111.05Z" fill="url(#paint7_radial)"/>
<path d="M166.612 125.41H59.3466C61.7557 129.501 64.6162 133.289 67.8664 136.71H158.102C161.342 133.284 164.208 129.501 166.612 125.41Z" fill="#D8CFF7"/>
<path d="M18.6147 167.311H15.8825C15.2078 167.311 14.5758 167.639 14.1909 168.195L6.96825 178.553C6.63563 179.029 6.45507 179.599 6.45507 180.183L6.41705 208.869C6.41705 210.01 7.33889 210.932 8.4793 210.932H26.0227C27.1631 210.932 28.0849 210.01 28.0849 208.869V179.941C28.0849 179.518 27.9566 179.105 27.7096 178.758L20.3064 168.195C19.9167 167.634 19.2847 167.311 18.6147 167.311Z" fill="#ED9583"/>
<path d="M23.2477 167.311H18.3676L10.0188 179.28H9.97607V210.922H31.6392V179.28L23.2477 167.311Z" fill="#E86E58"/>
<path d="M60.2161 172.723H21.3089C20.4821 172.723 19.8121 172.053 19.8121 171.226C19.8121 170.399 20.4821 169.729 21.3089 169.729H60.2161C61.0429 169.729 61.7129 170.399 61.7129 171.226C61.7129 172.053 61.0429 172.723 60.2161 172.723Z" fill="#ED9583"/>
<path d="M60.734 167.311H55.854L47.5005 179.28H47.4625V210.922H69.1256V179.28L60.734 167.311Z" fill="#ED9583"/>
<path d="M63.0529 167.311H60.6627C59.8835 167.311 59.1469 167.691 58.7003 168.332L51.5204 178.572C51.1973 179.033 51.0215 179.585 51.0215 180.15V208.532C51.0215 209.853 52.0906 210.922 53.4116 210.922H70.2945C71.6155 210.922 72.6846 209.853 72.6846 208.532V180.036C72.6846 179.546 72.5326 179.067 72.2522 178.663L65.0058 168.328C64.5639 167.691 63.8321 167.311 63.0529 167.311Z" fill="#E86E58"/>
<path d="M48.5078 210.913L8.86888 211.065C7.58592 211.065 6.54529 210.024 6.54529 208.741V181.747C6.54529 180.464 7.58592 179.423 8.86888 179.423H48.6504C49.9333 179.423 50.974 180.464 50.974 181.747V208.741C50.974 210.024 49.7908 210.913 48.5078 210.913Z" fill="#ED9583"/>
<path d="M30.1614 159.575L28.3177 171.036C27.8473 174.091 29.9428 176.952 33.0029 177.422C36.0583 177.893 38.9189 175.797 39.3893 172.737L41.2805 160.986L30.1614 159.575Z" fill="#8A6FE8"/>
<path d="M37.5979 160.867L36.0441 172.371C35.6497 175.441 37.8212 178.245 40.8908 178.639C43.9604 179.033 46.764 176.862 47.1584 173.792L48.7502 161.998L37.5979 160.867Z" fill="#8A6FE8"/>
<path d="M27.2771 156.154L23.1241 166.993C22.0359 169.886 23.5042 173.117 26.398 174.206C29.2918 175.294 32.523 173.825 33.6112 170.932L37.8735 159.817L27.2771 156.154Z" fill="#8A6FE8"/>
<path d="M211.155 21.3948L213.607 25.6428C215.146 28.3085 214.234 31.7108 211.568 33.2503C208.902 34.7899 205.5 33.8776 203.961 31.2118L201.509 26.9638C199.969 24.2981 200.882 20.8958 203.547 19.3563C206.208 17.8167 209.615 18.729 211.155 21.3948Z" fill="#8A6FE8"/>
<path d="M201.955 22.1312L204.407 26.3793C205.947 29.045 205.035 32.4472 202.369 33.9868C199.703 35.5264 196.301 34.614 194.761 31.9483L192.309 27.7003C190.77 25.0345 191.682 21.6323 194.348 20.0927C197.014 18.5579 200.421 19.4703 201.955 22.1312Z" fill="#8A6FE8"/>
<path d="M98.2965 45.9563L71.2876 61.4184C69.8811 62.2215 68.0945 61.523 67.6051 59.9787L64.3264 49.5961L98.2965 45.9563Z" fill="#605D5A"/>
<path d="M60.6628 46.4885C56.0679 47.7192 55.032 54.8183 61.7129 54.0865C72.9603 52.8511 113.464 45.6902 131.996 36.2343C141.399 31.435 142.326 23.4046 125.486 25.9183C108.646 28.4319 60.6628 46.4885 60.6628 46.4885Z" fill="#FCCF84"/>
<path d="M59.261 46.826C59.5271 48.3513 60.9621 49.3824 62.4922 49.1496C67.7999 48.3418 80.525 46.1322 96.2247 41.4803C112.566 36.6335 121.437 31.7867 124.802 29.7055C125.79 29.0925 126.232 27.8951 125.88 26.7879C123.747 20.0547 110.361 -6.17009 82.2689 2.26898C53.8678 10.7983 57.7167 37.9117 59.261 46.826Z" fill="url(#paint8_linear)"/>
<path d="M78.7146 3.49481C74.2623 5.2482 70.7317 7.51002 67.952 10.095C92.3854 4.9726 105.809 18.9617 109.724 23.9558C110.513 24.9631 111.848 25.3718 113.074 24.9869L114.894 24.4214C116.766 23.837 117.484 21.5561 116.268 20.0213C111.264 13.6825 98.3013 0.524977 78.7146 3.49481Z" fill="#FCCF84"/>
<path d="M34.9987 160.882C30.3752 151.435 27.6762 135.284 35.298 120.844C39.9262 112.077 50.0712 100.958 72.1239 97.7645L73.7253 109.668C60.3396 111.606 50.8599 117.441 46.1415 126.375C41.0334 136.049 41.998 147.9 45.6093 155.284L34.9987 160.882Z" fill="url(#paint9_linear)"/>
<path d="M76.3719 113.45C82.6808 113.45 87.7951 108.336 87.7951 102.027C87.7951 95.718 82.6808 90.6036 76.3719 90.6036C70.0631 90.6036 64.9488 95.718 64.9488 102.027C64.9488 108.336 70.0631 113.45 76.3719 113.45Z" fill="url(#paint10_radial)"/>
<path d="M38.1966 167.002C44.6707 167.002 49.9191 161.754 49.9191 155.28C49.9191 148.805 44.6707 143.557 38.1966 143.557C31.7224 143.557 26.4741 148.805 26.4741 155.28C26.4741 161.754 31.7224 167.002 38.1966 167.002Z" fill="url(#paint11_radial)"/>
<path d="M168.893 111.05C172.951 95.4647 170.418 82.9914 170.356 82.6873H105.818C105.818 82.6873 101.751 82.2739 101.751 85.9897C101.751 89.7056 101.903 100.197 101.903 111.806C101.903 114.191 103.856 115.341 105.396 115.341C105.396 115.336 161.689 115.332 168.893 111.05Z" fill="url(#paint12_radial)"/>
<path d="M130.019 111.084C130.019 111.084 139.945 103.229 141.879 101.775C143.818 100.321 145.51 100.24 147.287 101.775C149.064 103.31 159 111.084 159 111.084H130.019Z" fill="#A08BE8"/>
<path d="M171.411 115.294C171.411 115.294 173.136 111.977 168.893 111.05C168.898 111.036 105.443 111.003 105.443 111.003C103.965 111.003 102.065 110.124 101.903 108.689C101.903 109.715 101.908 110.751 101.908 111.801C101.908 113.968 103.519 115.113 104.963 115.303C105.106 115.322 105.253 115.336 105.4 115.336H109.739L171.411 115.294Z" fill="#512BD4"/>
<path d="M166.639 96.4946C166.706 91.976 164.582 88.2805 161.895 88.2404C159.208 88.2004 156.975 91.831 156.908 96.3496C156.841 100.868 158.964 104.564 161.651 104.604C164.338 104.644 166.571 101.013 166.639 96.4946Z" fill="#512BD4"/>
<path d="M161.713 92.0956C159.936 93.8728 159.936 96.7523 161.713 98.5295C162.929 99.7459 164.664 100.131 166.208 99.6794C166.47 98.7053 166.622 97.6267 166.641 96.4957C166.674 94.2814 166.18 92.2667 165.348 90.7794C164.051 90.6654 162.711 91.1025 161.713 92.0956Z" fill="#8065E0"/>
<path d="M122.709 104.644C125.396 104.604 127.519 100.909 127.452 96.3899C127.385 91.8713 125.152 88.2407 122.465 88.2808C119.778 88.3208 117.654 92.0163 117.721 96.5349C117.789 101.054 120.022 104.684 122.709 104.644Z" fill="#512BD4"/>
<path d="M122.549 92.3619C120.772 94.139 120.772 97.0186 122.549 98.7957C123.761 100.007 125.481 100.388 127.016 99.9504C127.31 98.867 127.472 97.6601 127.453 96.3818C127.425 94.3291 126.945 92.4664 126.18 91.0456C124.882 90.9316 123.542 91.3688 122.549 92.3619Z" fill="#8065E0"/>
<path d="M133.296 140.073L153.657 139.98L153.575 121.971L133.214 122.064L133.296 140.073Z" fill="#512BD4"/>
<path d="M136.819 133.341C136.681 133.341 136.567 133.298 136.472 133.208C136.377 133.117 136.329 133.003 136.329 132.88C136.329 132.751 136.377 132.637 136.472 132.547C136.567 132.452 136.681 132.409 136.819 132.409C136.957 132.409 137.071 132.457 137.166 132.547C137.261 132.637 137.313 132.751 137.313 132.88C137.313 133.008 137.265 133.117 137.17 133.208C137.071 133.293 136.957 133.341 136.819 133.341Z" fill="white"/>
<path d="M142.231 133.25H141.352L139.024 129.596C138.967 129.506 138.914 129.406 138.876 129.306H138.857C138.876 129.411 138.886 129.639 138.886 129.991L138.89 133.255H138.111L138.102 128.275H139.038L141.285 131.844C141.38 131.991 141.442 132.096 141.471 132.148H141.485C141.461 132.015 141.452 131.792 141.452 131.478L141.447 128.271H142.221L142.231 133.25Z" fill="white"/>
<path d="M146.023 133.246L143.295 133.25L143.286 128.271L145.904 128.266V128.969L144.094 128.974L144.098 130.385L145.766 130.38V131.079L144.098 131.084L144.103 132.557L146.023 132.552V133.246Z" fill="white"/>
<path d="M149.886 128.96L148.489 128.964L148.498 133.241H147.691L147.681 128.964L146.289 128.969V128.266L149.881 128.256L149.886 128.96Z" fill="white"/>
<defs>
<linearGradient id="paint0_linear" x1="140.04" y1="136.928" x2="149.923" y2="183.999" gradientUnits="userSpaceOnUse">
<stop stop-color="#522CD5"/>
<stop offset="0.4397" stop-color="#8A6FE8"/>
</linearGradient>
<linearGradient id="paint1_linear" x1="147.693" y1="181.617" x2="177.054" y2="233.962" gradientUnits="userSpaceOnUse">
<stop stop-color="#522CD5"/>
<stop offset="0.4397" stop-color="#8A6FE8"/>
</linearGradient>
<radialGradient id="paint2_radial" cx="0" cy="0" r="1" gradientUnits="userSpaceOnUse" gradientTransform="translate(169.573 210.657) rotate(-0.260741) scale(20.3479)">
<stop offset="0.034" stop-color="#522CD5"/>
<stop offset="0.9955" stop-color="#8A6FE8"/>
</radialGradient>
<linearGradient id="paint3_linear" x1="85.8177" y1="136.143" x2="97.18" y2="189.598" gradientUnits="userSpaceOnUse">
<stop stop-color="#522CD5"/>
<stop offset="0.4397" stop-color="#8A6FE8"/>
</linearGradient>
<linearGradient id="paint4_linear" x1="79.7185" y1="185.54" x2="105.181" y2="234.06" gradientUnits="userSpaceOnUse">
<stop stop-color="#522CD5"/>
<stop offset="0.4397" stop-color="#8A6FE8"/>
</linearGradient>
<radialGradient id="paint5_radial" cx="0" cy="0" r="1" gradientUnits="userSpaceOnUse" gradientTransform="translate(96.6055 210.619) rotate(-0.260611) scale(22.1452 22.1218)">
<stop offset="0.034" stop-color="#522CD5"/>
<stop offset="0.9955" stop-color="#8A6FE8"/>
</radialGradient>
<radialGradient id="paint6_radial" cx="0" cy="0" r="1" gradientUnits="userSpaceOnUse" gradientTransform="translate(196.199 42.2483) scale(11.7236)">
<stop stop-color="#8065E0"/>
<stop offset="1" stop-color="#512BD4"/>
</radialGradient>
<radialGradient id="paint7_radial" cx="0" cy="0" r="1" gradientUnits="userSpaceOnUse" gradientTransform="translate(121.866 82.6957) scale(61.9498)">
<stop offset="0.4744" stop-color="#A08BE8"/>
<stop offset="0.8618" stop-color="#8065E0"/>
</radialGradient>
<linearGradient id="paint8_linear" x1="92.0893" y1="0.610626" x2="92.0893" y2="49.1837" gradientUnits="userSpaceOnUse">
<stop offset="0.5634" stop-color="#F7B548"/>
<stop offset="1" stop-color="#FCCF84"/>
</linearGradient>
<linearGradient id="paint9_linear" x1="52.1202" y1="97.7681" x2="52.1202" y2="160.883" gradientUnits="userSpaceOnUse">
<stop offset="0.3344" stop-color="#9780E6"/>
<stop offset="0.8488" stop-color="#8A6FE8"/>
</linearGradient>
<radialGradient id="paint10_radial" cx="0" cy="0" r="1" gradientUnits="userSpaceOnUse" gradientTransform="translate(75.9957 98.0871) scale(11.4253)">
<stop stop-color="#8065E0"/>
<stop offset="1" stop-color="#512BD4"/>
</radialGradient>
<radialGradient id="paint11_radial" cx="0" cy="0" r="1" gradientUnits="userSpaceOnUse" gradientTransform="translate(37.5774 146.527) scale(22.7821)">
<stop stop-color="#8065E0"/>
<stop offset="1" stop-color="#512BD4"/>
</radialGradient>
<radialGradient id="paint12_radial" cx="0" cy="0" r="1" gradientUnits="userSpaceOnUse" gradientTransform="translate(109.856 72.6191) scale(48.2581)">
<stop offset="0.0933" stop-color="#E1DFDD"/>
<stop offset="0.8998" stop-color="white"/>
</radialGradient>
</defs>
</svg>
