<svg width="367" height="244" viewBox="0 0 367 244" fill="none" xmlns="http://www.w3.org/2000/svg">
<path d="M164.709 151.313C170.145 157.727 182.234 169.84 198.152 174.952L201.188 165.497C186.748 160.859 176.389 149.816 172.203 144.708C171.861 144.29 167.689 147.25 164.709 151.313Z" fill="url(#paint0_linear)"/>
<path d="M164.709 151.313C170.145 157.727 182.234 169.84 198.152 174.952L201.188 165.497C186.748 160.859 176.389 149.816 172.203 144.708C171.861 144.29 167.689 147.25 164.709 151.313Z" fill="url(#paint1_linear)"/>
<path d="M172.265 144.784L166.349 149.958C164.025 148.618 154.907 138.858 125.436 142.218L119.359 135.209L145.17 112.657C146.073 111.869 147.375 111.968 148.102 112.928L172.265 144.784Z" fill="#522CD5"/>
<path d="M126.187 144.1C124.467 144.337 123.583 143.677 122.59 142.365L118.988 137.713C118.442 136.996 118.551 135.922 119.231 135.328L119.359 135.214C120.129 134.539 121.255 134.658 121.873 135.475L124.918 139.158C126.068 140.674 126.99 141.458 129.285 141.168C142.847 139.452 160.447 138.421 168.843 147.777L164.747 151.36C160.129 146.846 148.772 141.001 126.187 144.1Z" fill="url(#paint2_linear)"/>
<path d="M127.551 141.134C126.425 140.906 125.722 140.213 124.919 139.158L121.873 135.475C121.255 134.658 120.129 134.544 119.359 135.214L119.226 135.328C118.546 135.922 118.437 136.996 118.984 137.713L122.585 142.365C123.156 143.116 123.693 143.643 124.363 143.919L127.551 141.134Z" fill="url(#paint3_radial)"/>
<path d="M144.006 163.368C150.858 168.238 165.56 176.996 182.253 178.018L182.861 168.105C167.722 167.179 154.959 159.034 149.641 155.119C149.204 154.796 145.892 158.697 144.006 163.368Z" fill="url(#paint4_linear)"/>
<path d="M149.713 155.176L145.261 161.653L100.998 151.778L115.491 130.705C116.17 129.716 117.487 129.521 118.428 130.272L149.713 155.176Z" fill="#522CD5"/>
<path d="M104.59 166.043C102.984 166.694 101.583 165.649 100.295 164.622L96.3461 161.481C95.6381 160.921 95.4813 159.852 95.9945 159.11L104.153 147.245C104.733 146.404 105.85 146.238 106.653 146.875L110.877 149.944C112.364 151.127 113.343 151.294 115.605 150.814C124.32 148.961 140.152 149.968 148.653 156.734L144.068 163.406C138.465 160.17 123.203 158.516 104.59 166.043Z" fill="url(#paint5_linear)"/>
<path d="M100.29 164.627C101.16 165.316 102.077 166.005 103.075 166.186L113.476 151.061C112.516 151.023 111.789 150.681 110.867 149.944L106.643 146.875C105.84 146.238 104.723 146.404 104.144 147.245L95.985 159.11C95.4718 159.852 95.6334 160.921 96.3414 161.481L100.29 164.627Z" fill="url(#paint6_radial)"/>
<path d="M0.332642 0.948904C0.332642 0.948904 130.967 -5.87934 299.882 26.6082C335.401 64.5366 366.154 129.792 366.154 129.792L0.332642 0.948904Z" fill="#C5D43B"/>
<path d="M16.1749 6.52747L357.919 126.889C341.678 103.548 308.801 57.5563 291.01 41.4954C177.297 17.1903 53.7136 8.6705 16.1749 6.52747Z" fill="#E1EA95"/>
<path d="M313.21 66.2757C296.18 59.3667 277.472 51.9635 257.567 44.3797C272.74 43.9331 285.27 44.1564 294.175 44.508C293.072 43.4151 292.013 42.403 291.005 41.4907C290.24 41.3291 289.475 41.1676 288.706 41.006C278.627 40.7304 265.275 40.6781 249.575 41.3481C236.764 36.5156 223.502 31.6308 209.912 26.7651C204.148 25.8812 198.423 25.0307 192.74 24.2134C209.385 30.039 225.631 35.9311 241.245 41.771C215.434 43.2393 184.253 46.7128 151.252 54.1018L157.197 56.1925C191.366 48.9224 223.331 45.8242 249.038 44.6933C273.852 54.059 296.945 63.2108 317.415 71.5691C316.004 69.773 314.598 68.0053 313.21 66.2757Z" fill="white"/>
<path d="M158.456 209.778C157.449 209.17 157.092 207.868 157.662 206.822L246.938 43.9615C247.394 43.13 248.325 42.6833 249.262 42.8449C250.198 43.0112 250.92 43.7477 251.067 44.6838L281.122 237.599C281.312 238.806 280.485 239.937 279.278 240.127C278.071 240.317 276.94 239.49 276.75 238.284L247.698 51.7924L161.545 208.951C160.955 210.025 159.611 210.415 158.542 209.83C158.513 209.811 158.484 209.797 158.456 209.778Z" fill="#C5D43B"/>
<path d="M251.443 232.553L259.245 225.739C252.108 217.566 248.121 209.189 247.389 200.835C246.748 193.484 248.611 185.957 252.92 178.459L243.94 173.299C235.928 187.24 230.725 208.832 251.443 232.553Z" fill="#8A6FE8"/>
<path d="M237.368 191.011L237.202 192.192L247.319 193.612L247.485 192.431L237.368 191.011Z" fill="#A08BE8"/>
<path d="M257.568 243.354C262.995 243.354 267.394 238.954 267.394 233.527C267.394 228.1 262.995 223.701 257.568 223.701C252.14 223.701 247.741 228.1 247.741 233.527C247.741 238.954 252.14 243.354 257.568 243.354Z" fill="url(#paint7_radial)"/>
<path d="M247.529 202.364L237.359 203.343L237.474 204.53L247.643 203.551L247.529 202.364Z" fill="#A08BE8"/>
<path d="M274.954 184.684C280.804 172.011 280.476 160.992 280.476 160.992L283.602 161.553L283.693 161.505C283.593 136.302 265.536 113.978 239.844 109.364C210.896 104.166 183.217 123.42 178.019 152.372C172.82 181.325 192.074 208.999 221.022 214.197C243.864 218.298 265.912 207.174 276.755 188.077C277.116 187.25 277.378 185.691 274.954 184.684Z" fill="url(#paint8_radial)"/>
<path d="M274.973 184.689C280.751 172.168 280.504 161.277 280.495 161.011L226.116 151.251C226.116 151.251 222.752 150.286 222.191 153.418C221.63 156.544 220.171 165.411 218.413 175.19C218.052 177.2 219.525 178.464 220.822 178.697C220.822 178.697 274.626 185.444 274.973 184.689Z" fill="url(#paint9_radial)"/>
<path d="M242.956 179.015C242.956 179.015 252.507 173.898 254.36 172.966C256.213 172.035 257.653 172.225 258.917 173.784C260.181 175.342 267.38 183.401 267.38 183.401L242.956 179.015Z" fill="#A08BE8"/>
<path d="M276.456 188.647C276.456 188.647 278.409 186.114 274.973 184.689C274.978 184.675 221.516 175.048 221.516 175.048C220.271 174.824 218.803 173.793 218.884 172.562C218.732 173.427 218.575 174.302 218.418 175.185C218.09 177.01 219.273 178.217 220.461 178.602C220.58 178.64 220.699 178.673 220.827 178.697L224.481 179.353L276.456 188.647Z" fill="#512BD4"/>
<path d="M270.901 196.449L180.518 180.222C181.93 184.033 183.768 187.659 185.988 191.032L262.02 204.679C265.27 202.289 268.254 199.533 270.901 196.449Z" fill="#D8CFF7"/>
<path d="M229.423 106.604L239.696 107.231L238.893 96.5964L231.519 96.145L229.423 106.604Z" fill="#8A6FE8"/>
<path d="M235.453 98.2168C239.5 98.2168 242.78 94.9363 242.78 90.8897C242.78 86.843 239.5 83.5625 235.453 83.5625C231.406 83.5625 228.126 86.843 228.126 90.8897C228.126 94.9363 231.406 98.2168 235.453 98.2168Z" fill="#D8CFF7"/>
<path d="M225.104 112.809C224.643 112.781 224.296 112.358 224.372 111.902C225.213 107.06 229.575 103.52 234.598 103.824C239.62 104.128 243.522 108.172 243.764 113.085C243.788 113.551 243.393 113.926 242.928 113.898L225.104 112.809Z" fill="url(#paint10_radial)"/>
<path d="M240.822 166.174C241.449 162.357 240.116 158.961 237.844 158.588C235.573 158.215 233.224 161.007 232.598 164.824C231.971 168.641 233.304 172.038 235.575 172.411C237.846 172.784 240.195 169.992 240.822 166.174Z" fill="#512BD4"/>
<path d="M273.829 172.208C274.57 168.411 273.338 164.976 271.08 164.535C268.821 164.095 266.389 166.816 265.649 170.612C264.908 174.409 266.139 177.844 268.398 178.284C270.657 178.725 273.089 176.004 273.829 172.208Z" fill="#512BD4"/>
<path d="M237.297 162.042C238.285 161.353 239.478 161.191 240.556 161.486C240.984 162.802 241.108 164.442 240.822 166.176C240.647 167.255 240.328 168.248 239.915 169.117C238.556 169.255 237.164 168.671 236.327 167.469C235.092 165.696 235.529 163.268 237.297 162.042Z" fill="#8065E0"/>
<path d="M270.335 167.739C271.324 167.05 272.521 166.884 273.6 167.184C274.075 168.562 274.184 170.334 273.823 172.192C273.638 173.142 273.348 174.026 272.977 174.81C271.609 174.957 270.202 174.373 269.361 173.161C268.131 171.398 268.568 168.97 270.335 167.739Z" fill="#8065E0"/>
<path d="M236.756 202.948L253.674 205.985L256.36 191.023L239.442 187.986L236.756 202.948Z" fill="#512BD4"/>
<path d="M240.357 198.269C240.229 198.245 240.129 198.184 240.053 198.079C239.981 197.975 239.953 197.865 239.977 197.742C240 197.618 240.062 197.523 240.172 197.452C240.276 197.381 240.395 197.357 240.523 197.381C240.651 197.404 240.756 197.471 240.827 197.571C240.903 197.675 240.927 197.789 240.908 197.913C240.884 198.032 240.823 198.127 240.713 198.198C240.604 198.274 240.485 198.293 240.357 198.269Z" fill="white"/>
<path d="M245.474 199.153L244.643 198.996L243.099 195.138C243.061 195.038 243.032 194.943 243.013 194.838L242.994 194.834C242.994 194.938 242.961 195.152 242.899 195.485L242.324 198.559L241.592 198.421L242.467 193.727L243.35 193.893L244.833 197.656C244.895 197.813 244.937 197.918 244.952 197.975L244.966 197.979C244.966 197.851 244.995 197.637 245.052 197.343L245.617 194.321L246.349 194.458L245.474 199.153Z" fill="white"/>
<path d="M249.048 199.818L246.477 199.338L247.351 194.644L249.818 195.105L249.694 195.765L247.988 195.447L247.741 196.777L249.314 197.072L249.19 197.728L247.617 197.433L247.356 198.82L249.167 199.158L249.048 199.818Z" fill="white"/>
<path d="M253.453 196.468L252.136 196.221L251.386 200.255L250.625 200.113L251.376 196.079L250.065 195.832L250.188 195.171L253.576 195.803L253.453 196.468Z" fill="white"/>
<path d="M192.83 217.371L201.82 221.097C204.22 222.071 206.961 220.916 207.936 218.516C208.91 216.117 207.755 213.375 205.355 212.401L196.137 208.581L192.83 217.371Z" fill="#8A6FE8"/>
<path d="M184.733 220.108L185.892 229.769C186.22 232.339 188.568 234.159 191.143 233.836C193.714 233.508 195.534 231.161 195.211 228.585L194.023 218.678L184.733 220.108Z" fill="#8A6FE8"/>
<path d="M180.628 215.827L179.368 225.473C179.05 228.048 180.879 230.391 183.45 230.709C186.026 231.028 188.368 229.198 188.687 226.628L189.979 216.734L180.628 215.827Z" fill="#8A6FE8"/>
<path d="M152.654 211.018C151.039 210.039 150.174 208.091 150.654 206.162C151.248 203.791 153.647 202.346 156.018 202.94L281.744 234.34C284.115 234.929 285.56 237.333 284.966 239.704C284.372 242.075 281.972 243.52 279.601 242.926L153.875 211.527C153.433 211.417 153.025 211.241 152.654 211.018Z" fill="#AAB83F"/>
<path d="M191.11 219.514L194.137 228.761C194.959 231.218 197.62 232.543 200.081 231.721C202.538 230.899 203.864 228.238 203.041 225.777L199.939 216.297L191.11 219.514Z" fill="#8A6FE8"/>
<path d="M185.75 218.697L194.835 213.731C189.632 204.209 187.546 195.166 188.639 186.856C189.599 179.543 193.044 172.591 198.869 166.2L191.214 159.219C180.39 171.099 170.649 191.061 185.75 218.697Z" fill="url(#paint11_linear)"/>
<path d="M190.293 226.038C195.72 226.038 200.119 221.639 200.119 216.212C200.119 210.785 195.72 206.385 190.293 206.385C184.866 206.385 180.466 210.785 180.466 216.212C180.466 221.639 184.866 226.038 190.293 226.038Z" fill="url(#paint12_radial)"/>
<path d="M196.65 170.225C202.051 170.225 206.429 165.846 206.429 160.446C206.429 155.045 202.051 150.667 196.65 150.667C191.25 150.667 186.871 155.045 186.871 160.446C186.871 165.846 191.25 170.225 196.65 170.225Z" fill="url(#paint13_radial)"/>
<path d="M256.926 225.482C256.598 222.912 254.246 221.092 251.675 221.42L242.452 222.408C239.877 222.707 238.028 225.036 238.328 227.611C238.627 230.187 240.955 232.035 243.531 231.736L249.105 231.142L252.858 230.728C255.434 230.405 257.254 228.058 256.926 225.482Z" fill="#8A6FE8"/>
<path d="M254.712 221.786C252.17 222.285 250.506 224.751 251.005 227.293L252.607 236.43C253.077 238.982 255.52 240.669 258.071 240.199C260.623 239.728 262.31 237.286 261.839 234.734L260.88 229.213L260.219 225.492C259.725 222.945 257.259 221.287 254.712 221.786Z" fill="#8A6FE8"/>
<path d="M260.314 223.135C257.772 223.634 256.109 226.1 256.608 228.642L258.209 237.78C258.679 240.332 261.122 242.018 263.674 241.548C266.225 241.078 267.912 238.635 267.442 236.084L266.482 230.562L265.821 226.841C265.322 224.299 262.856 222.636 260.314 223.135Z" fill="#8A6FE8"/>
<path d="M265.702 224.314C263.16 224.812 261.497 227.279 261.996 229.821L263.35 236.868C263.821 239.419 266.263 241.106 268.815 240.636C271.367 240.165 273.053 237.723 272.583 235.171L271.623 229.65L271.21 228.02C270.716 225.478 268.249 223.815 265.702 224.314Z" fill="#8A6FE8"/>
<path d="M163.778 204.879L247.689 51.7876L251.062 44.6838C250.915 43.7477 250.193 43.0112 249.257 42.8449C248.325 42.6833 247.389 43.13 246.933 43.9615L159.34 203.767L163.778 204.879Z" fill="#E8D441"/>
<defs>
<linearGradient id="paint0_linear" x1="199.928" y1="172.605" x2="167.33" y2="147.843" gradientUnits="userSpaceOnUse">
<stop stop-color="#522CD5"/>
<stop offset="0.4397" stop-color="#8A6FE8"/>
</linearGradient>
<linearGradient id="paint1_linear" x1="199.928" y1="172.605" x2="167.33" y2="147.843" gradientUnits="userSpaceOnUse">
<stop stop-color="#522CD5"/>
<stop offset="0.4397" stop-color="#8A6FE8"/>
</linearGradient>
<linearGradient id="paint2_linear" x1="166.964" y1="153.003" x2="118.873" y2="135.701" gradientUnits="userSpaceOnUse">
<stop stop-color="#522CD5"/>
<stop offset="0.4397" stop-color="#8A6FE8"/>
</linearGradient>
<radialGradient id="paint3_radial" cx="0" cy="0" r="1" gradientUnits="userSpaceOnUse" gradientTransform="translate(129.04 141.225) rotate(138.815) scale(8.77197)">
<stop offset="0.034" stop-color="#522CD5"/>
<stop offset="1" stop-color="#8A6FE8"/>
</radialGradient>
<linearGradient id="paint4_linear" x1="183.393" y1="175.288" x2="145.691" y2="159.344" gradientUnits="userSpaceOnUse">
<stop stop-color="#522CD5"/>
<stop offset="0.4397" stop-color="#8A6FE8"/>
</linearGradient>
<linearGradient id="paint5_linear" x1="148.121" y1="162.195" x2="95.963" y2="157.179" gradientUnits="userSpaceOnUse">
<stop stop-color="#522CD5"/>
<stop offset="0.4397" stop-color="#8A6FE8"/>
</linearGradient>
<radialGradient id="paint6_radial" cx="0" cy="0" r="1" gradientUnits="userSpaceOnUse" gradientTransform="translate(115.36 163.197) rotate(124.521) scale(16.8615)">
<stop offset="0.034" stop-color="#522CD5"/>
<stop offset="0.9955" stop-color="#8A6FE8"/>
</radialGradient>
<radialGradient id="paint7_radial" cx="0" cy="0" r="1" gradientUnits="userSpaceOnUse" gradientTransform="translate(262.627 230.656) rotate(-114.166) scale(16.5685)">
<stop stop-color="#8065E0"/>
<stop offset="1" stop-color="#512BD4"/>
</radialGradient>
<radialGradient id="paint8_radial" cx="0" cy="0" r="1" gradientUnits="userSpaceOnUse" gradientTransform="translate(244.144 143.587) rotate(10.1772) scale(54.462)">
<stop offset="0.3472" stop-color="#A08BE8"/>
<stop offset="0.684" stop-color="#8065E0"/>
<stop offset="0.7596" stop-color="#8065E0"/>
</radialGradient>
<radialGradient id="paint9_radial" cx="0" cy="0" r="1" gradientUnits="userSpaceOnUse" gradientTransform="translate(265.95 150.941) rotate(168.463) scale(49.9443)">
<stop offset="0.0933" stop-color="#E1DFDD"/>
<stop offset="0.6573" stop-color="white"/>
</radialGradient>
<radialGradient id="paint10_radial" cx="0" cy="0" r="1" gradientUnits="userSpaceOnUse" gradientTransform="translate(233.865 106.739) rotate(168.463) scale(7.90539)">
<stop stop-color="#8065E0"/>
<stop offset="1" stop-color="#512BD4"/>
</radialGradient>
<linearGradient id="paint11_linear" x1="188.431" y1="159.219" x2="188.431" y2="218.695" gradientUnits="userSpaceOnUse">
<stop offset="0.1405" stop-color="#9780E6"/>
<stop offset="1" stop-color="#8A6FE8"/>
</linearGradient>
<radialGradient id="paint12_radial" cx="0" cy="0" r="1" gradientUnits="userSpaceOnUse" gradientTransform="translate(188.724 209.569) rotate(168.463) scale(15.3393)">
<stop stop-color="#8065E0"/>
<stop offset="1" stop-color="#512BD4"/>
</radialGradient>
<radialGradient id="paint13_radial" cx="0" cy="0" r="1" gradientUnits="userSpaceOnUse" gradientTransform="translate(199.682 157.038) rotate(168.463) scale(9.77939)">
<stop stop-color="#8065E0"/>
<stop offset="1" stop-color="#512BD4"/>
</radialGradient>
</defs>
</svg>
