<svg width="307" height="229" viewBox="0 0 307 229" fill="none" xmlns="http://www.w3.org/2000/svg">
<path d="M278.383 133.772C278.383 133.772 274.925 107.052 261.084 88.1931C252.528 76.5315 245.044 75.9321 244.099 82.5349C243.153 89.1377 233.956 85.7 218.307 68.0759C198.49 45.7563 179.301 37.9001 149.737 43.5584C120.174 49.2166 107.519 45.8516 96.8946 38.5268C78.6458 25.9524 44.6746 36.9556 35.8682 48.8987C27.0619 60.8419 278.383 133.772 278.383 133.772Z" fill="url(#paint0_radial)"/>
<path d="M25.6169 47.3956C21.9453 47.5772 19.4234 51.1647 20.5049 54.675C25.9713 72.4263 47.1874 120.462 121.301 148.127C194.614 175.492 269.25 160.588 296.705 153.349C301.435 152.1 302.698 145.997 298.863 142.968C277.638 126.189 221.487 84.3331 166.927 65.2059C109.959 45.234 46.2514 46.3784 25.6169 47.3956Z" fill="#77D672"/>
<path d="M126.09 136.956C63.3415 113.533 33.9007 77.2899 20.364 51.9277C20.1868 52.8042 20.2141 53.7396 20.5004 54.6751C25.9668 72.4264 47.1829 120.462 121.296 148.127C194.609 175.492 269.245 160.588 296.7 153.349C299.213 152.686 300.735 150.652 301.044 148.44C260.612 156.006 192.874 161.882 126.09 136.956Z" fill="#56A84F"/>
<path d="M232.157 222.352C233.166 220.858 231.775 218.732 229.717 218.637C223.264 218.337 210.277 214.355 193.414 191.885C168.917 159.244 160.216 156.546 139.413 156.587C118.611 156.628 98.8939 154.366 94.3954 133.959C89.8922 113.555 76.56 103.052 58.8883 101.753C41.2165 100.454 25.4351 91.6081 21.4864 84.1243C17.5376 76.6405 4.42807 107.815 42.5252 146.869C80.6224 185.923 130.152 147.532 150.832 189.569C170.612 229.772 222.76 236.238 232.157 222.352Z" fill="url(#paint1_radial)"/>
<path d="M166.791 194.21C153.754 155.543 133.592 158.871 112.789 158.912C91.9868 158.953 74.2787 156.142 67.7717 136.284C63.5503 123.396 58.5155 115.381 40.7438 112.08C35.3091 111.071 21.0863 107.52 16.5786 100.927C18.3008 112.565 24.9805 128.877 42.525 146.865C80.6222 185.918 130.152 147.528 150.832 189.565C159.893 207.984 175.747 219.314 191.169 224.858C181.813 217.456 170.549 205.363 166.791 194.21Z" fill="url(#paint2_radial)"/>
<path d="M183.708 101.464C187.576 85.2586 170.074 67.202 144.615 61.1338C119.157 55.0657 95.3841 63.2838 91.5163 79.4896C87.6486 95.6954 105.151 113.752 130.609 119.82C156.067 125.888 179.841 117.67 183.708 101.464Z" fill="#33312D"/>
<path d="M209.118 103.851L189.125 128.959L236.805 141.661L255.195 119.482L209.118 103.851Z" stroke="#56A84F" stroke-width="2" stroke-miterlimit="10" stroke-linecap="round" stroke-linejoin="round"/>
<path d="M189.125 128.959L220.092 107.743L212.622 135.021L242.771 115.422L236.805 141.661L254.899 119.523L224.727 137.928L231.738 111.612L201.084 131.888L209.118 103.851L189.125 128.959Z" stroke="#56A84F" stroke-width="2" stroke-miterlimit="10" stroke-linecap="round" stroke-linejoin="round"/>
<path d="M139.018 113.369C142.435 115.404 145.479 118.228 148.129 121.807C151.546 121.761 154.836 121.448 157.948 120.885C155.022 115.944 151.705 112.125 148.183 109.209C138.881 101.508 133.688 110.195 139.018 113.369Z" fill="url(#paint3_linear)"/>
<path d="M146.961 120.322C147.17 120.58 147.379 120.844 147.583 121.112L154.499 115.799C154.29 115.531 154.077 115.276 153.868 115.018L146.961 120.322Z" fill="#A08BE8"/>
<path d="M173.589 114.972C171.076 110.853 168.29 107.534 165.337 104.886C155.781 96.3128 149.687 104.877 155.017 108.047C159.148 110.508 162.733 114.119 165.732 118.828C168.622 117.788 171.267 116.498 173.589 114.972Z" fill="url(#paint4_linear)"/>
<path d="M164.433 116.921C164.628 117.188 164.814 117.47 165.005 117.747L171.926 112.425C171.735 112.148 171.539 111.875 171.344 111.607L164.433 116.921Z" fill="#A08BE8"/>
<path d="M118.883 120.935L126.871 122.71C129.002 123.169 131.102 121.811 131.561 119.682C132.02 117.552 130.661 115.454 128.53 114.995L120.337 113.174L118.883 120.935Z" fill="#D0C5F3"/>
<path d="M175.087 65.269L174.087 65.3665L174.922 73.9134L175.921 73.8159L175.087 65.269Z" fill="#A08BE8"/>
<path d="M180.431 64.9175L179.427 64.9324L179.554 73.5188L180.558 73.5039L180.431 64.9175Z" fill="#A08BE8"/>
<path d="M205.161 73.9796L200.194 81.1273C192.701 75.9232 185.321 73.3711 178.274 73.5391C172.071 73.6889 165.95 75.9413 160.084 80.2372L154.936 73.2167C165.837 65.2334 183.404 58.8803 205.161 73.9796Z" fill="url(#paint5_linear)"/>
<path d="M190.101 66.6037L187.393 74.7539L188.346 75.0701L191.054 66.92L190.101 66.6037Z" fill="#A08BE8"/>
<path d="M204.479 80.9636L205.565 89.0695C205.838 91.2311 204.306 93.2065 202.143 93.479C199.98 93.7514 198.004 92.2211 197.731 90.0595L196.618 81.7492L204.479 80.9636Z" fill="#D0C5F3"/>
<path d="M160.525 92.3328L151.937 92.6299L151.972 93.6329L160.559 93.3358L160.525 92.3328Z" fill="#A08BE8"/>
<path d="M161.996 100.543L153.715 102.834L153.983 103.801L162.264 101.51L161.996 100.543Z" fill="#A08BE8"/>
<path d="M182.15 81.9265C185.149 70.5828 183.272 61.5096 183.272 61.5096L185.944 61.5187L186.012 61.4688C182.259 40.6204 164.051 24.7628 142.094 24.6856C117.356 24.5948 97.2307 44.5667 97.1444 69.284C97.0535 94.0059 117.038 114.119 141.771 114.205C161.292 114.273 177.933 101.858 184.131 84.4696C184.317 83.7339 184.303 82.4034 182.15 81.9265Z" fill="url(#paint6_radial)"/>
<path d="M183.972 84.9871C183.972 84.9871 185.221 82.6076 182.168 81.9264C185.13 70.7235 183.34 61.7411 183.295 61.5231L136.827 61.3551C136.827 61.3551 133.901 61.0463 133.892 63.721C133.883 66.3912 133.965 73.9431 133.937 82.2943C133.933 84.0108 135.337 84.8464 136.441 84.8464L184.158 85.0189C184.04 84.9962 183.972 84.9871 183.972 84.9871Z" fill="url(#paint7_radial)"/>
<path d="M159.861 81.8085C159.861 81.8085 164.342 78.2891 165.214 77.6397C166.087 76.9903 166.85 76.954 167.65 77.6488C168.445 78.339 172.907 81.8539 172.907 81.8539L159.861 81.8085Z" fill="#A08BE8"/>
<path d="M183.971 84.9871C183.971 84.9871 185.221 82.6075 182.168 81.9264C182.172 81.9127 182.172 81.9037 182.177 81.89L136.482 81.7266C135.419 81.722 134.051 81.0817 133.937 80.0554C133.937 80.7956 133.933 81.5404 133.933 82.2942C133.928 83.8518 135.082 84.6783 136.123 84.8236C136.227 84.8372 136.332 84.8463 136.436 84.8509L139.558 84.8599L184.153 85.0189C184.04 84.9962 183.971 84.9871 183.971 84.9871Z" fill="url(#paint8_radial)"/>
<path d="M180.509 92.2531L103.274 91.9761C104.997 94.9278 107.051 97.657 109.377 100.127L174.348 100.359C176.692 97.9068 178.764 95.1912 180.509 92.2531Z" fill="url(#paint9_linear)"/>
<path d="M133.065 23.9135L141.662 22.9372L139.449 14.25L133.274 14.9493L133.065 23.9135Z" fill="#D0C5F3"/>
<path d="M135.587 16.4298C140.127 16.4298 143.807 12.7519 143.807 8.2149C143.807 3.67794 140.127 0 135.587 0C131.047 0 127.367 3.67794 127.367 8.2149C127.367 12.7519 131.047 16.4298 135.587 16.4298Z" fill="url(#paint10_radial)"/>
<path d="M130.388 29.6809C130.002 29.7263 129.652 29.4266 129.652 29.0361C129.643 24.9036 132.742 21.3388 136.946 20.862C141.149 20.3852 144.97 23.1644 145.888 27.1924C145.975 27.5738 145.702 27.9416 145.316 27.9871L130.388 29.6809Z" fill="url(#paint11_radial)"/>
<path d="M147.733 77.4955C149.668 77.4736 151.207 74.8212 151.17 71.5712C151.133 68.3212 149.535 65.7042 147.6 65.7261C145.666 65.7479 144.127 68.4003 144.164 71.6503C144.2 74.9004 145.799 77.5173 147.733 77.4955Z" fill="#512BD4"/>
<path d="M179.388 71.7562C179.449 68.5065 177.929 65.843 175.995 65.8073C174.06 65.7715 172.443 68.3769 172.383 71.6266C172.323 74.8763 173.842 77.5397 175.777 77.5755C177.711 77.6113 179.328 75.0059 179.388 71.7562Z" fill="#512BD4"/>
<path d="M147.656 68.6618C148.374 67.9488 149.337 67.64 150.273 67.7263C150.818 68.7526 151.159 70.0968 151.177 71.5726C151.186 72.4899 151.068 73.3618 150.855 74.1384C149.746 74.4472 148.51 74.1701 147.642 73.2937C146.365 72.0086 146.374 69.9333 147.656 68.6618Z" fill="#8065E0"/>
<path d="M175.856 68.5711C176.574 67.8582 177.542 67.5449 178.478 67.6357C179.069 68.7074 179.423 70.156 179.391 71.7499C179.378 72.5628 179.264 73.3393 179.073 74.0387C177.96 74.3566 176.71 74.0795 175.838 73.1986C174.566 71.918 174.57 69.8427 175.856 68.5711Z" fill="#8065E0"/>
<path d="M153.178 102.607L167.633 102.658L167.679 89.8797L153.224 89.8278L153.178 102.607Z" fill="#512BD4"/>
<path d="M155.385 98.0249C155.276 98.0249 155.185 97.9886 155.108 97.9159C155.031 97.8433 154.995 97.7525 154.995 97.648C154.995 97.5436 155.036 97.4527 155.108 97.3801C155.185 97.3074 155.276 97.2666 155.385 97.2711C155.494 97.2711 155.59 97.3074 155.667 97.3846C155.744 97.4573 155.785 97.5481 155.785 97.6526C155.785 97.757 155.744 97.8433 155.667 97.9159C155.59 97.9886 155.499 98.0249 155.385 98.0249Z" fill="white"/>
<path d="M159.752 97.9749H159.043L157.18 95.0186C157.135 94.9459 157.094 94.8642 157.062 94.787H157.044C157.058 94.8733 157.067 95.0549 157.067 95.3365L157.062 97.9658H156.435L156.444 93.9514H157.198L158.998 96.835C159.075 96.9531 159.125 97.0348 159.143 97.0803H159.152C159.134 96.9758 159.125 96.7942 159.125 96.5399L159.13 93.956H159.757L159.752 97.9749Z" fill="white"/>
<path d="M162.815 97.984L160.616 97.9794L160.625 93.9651L162.738 93.9696V94.5327L161.275 94.5282L161.27 95.6635L162.615 95.668V96.2311L161.27 96.2266L161.266 97.4118L162.815 97.4164V97.984Z" fill="white"/>
<path d="M165.946 94.5463L164.819 94.5418L164.81 97.9885H164.16L164.169 94.5418L163.047 94.5372V93.9741L165.946 93.9832V94.5463Z" fill="white"/>
<path d="M174.429 52.3275C169.926 43.7947 162.315 37.3554 153.245 34.2946C152.159 33.9268 151.454 32.8778 151.523 31.7334C151.591 30.5528 152.754 29.7444 153.885 30.1032C164.273 33.4046 173.011 40.6704 178.132 50.3793C178.673 51.4011 178.278 52.668 177.255 53.2084C176.233 53.7443 174.965 53.3492 174.429 52.3275Z" fill="url(#paint12_radial)"/>
<path d="M102.465 76.3592C103.388 76.1139 104.065 75.2738 104.06 74.2748C103.997 57.677 113.616 42.3007 128.566 35.0985C129.634 34.5853 130.084 33.3002 129.571 32.2285C129.057 31.1613 127.771 30.7117 126.699 31.2249C110.263 39.1401 99.689 56.0467 99.7572 74.2884C99.7617 75.4736 100.73 76.4318 101.916 76.4273C102.106 76.4318 102.293 76.4091 102.465 76.3592Z" fill="url(#paint13_radial)"/>
<path d="M113.208 123.064L120.01 117.629C114.312 110.504 111.272 103.32 110.963 96.2808C110.695 90.0867 112.535 83.8336 116.429 77.694L109.073 73.0303C101.839 84.4421 96.6766 102.384 113.208 123.064Z" fill="url(#paint14_linear)"/>
<path d="M102.912 87.6611L102.729 88.6479L111.179 90.2117L111.362 89.2249L102.912 87.6611Z" fill="#A08BE8"/>
<path d="M111.035 97.5542L102.454 98.0042L102.507 99.0063L111.087 98.5564L111.035 97.5542Z" fill="#A08BE8"/>
<path d="M112.799 105.296L104.844 108.543L105.224 109.472L113.179 106.225L112.799 105.296Z" fill="#A08BE8"/>
<path d="M113.757 81.477C118.3 81.477 121.982 77.797 121.982 73.2575C121.982 68.7181 118.3 65.0381 113.757 65.0381C109.215 65.0381 105.533 68.7181 105.533 73.2575C105.533 77.797 109.215 81.477 113.757 81.477Z" fill="url(#paint15_radial)"/>
<path d="M244.317 63.6873L242.579 60.2456L61.1292 151.796L62.8679 155.238L244.317 63.6873Z" fill="#605D5A"/>
<path d="M73.2974 147.973C72.6294 146.91 71.4616 146.27 70.2029 146.274L49.6684 146.352C49.2049 146.352 48.746 146.442 48.3143 146.62L7.37256 163.226C5.04601 164.171 4.35078 167.127 6.01844 169.007L17.3922 181.841C18.4645 183.048 20.2094 183.407 21.6681 182.717L65.4271 162.073C65.9906 161.81 66.4722 161.405 66.8358 160.901L73.1792 152.028C74.0381 150.825 74.088 149.222 73.2974 147.973Z" fill="#F7B548"/>
<path d="M238.855 64.3706C239.559 65.4105 240.749 66.0099 242.004 65.9645L262.524 65.2062C262.988 65.188 263.447 65.0836 263.87 64.8928L304.239 46.9417C306.533 45.92 307.129 42.941 305.402 41.12L293.61 28.6682C292.497 27.4921 290.743 27.1969 289.307 27.9326L246.257 50.0161C245.702 50.2976 245.234 50.72 244.889 51.2377L238.841 60.3154C238.019 61.546 238.023 63.149 238.855 64.3706Z" fill="#F7B548"/>
<path d="M112.576 124.381L114.943 132.21C115.588 134.29 117.801 135.457 119.883 134.812C121.964 134.167 123.131 131.956 122.486 129.876L120.06 121.847L112.576 124.381Z" fill="#D0C5F3"/>
<path d="M108.55 121.434L108.909 129.604C109.018 131.779 110.876 133.455 113.053 133.341C115.23 133.232 116.906 131.375 116.793 129.2L116.425 120.821L108.55 121.434Z" fill="#D0C5F3"/>
<path d="M117.77 122.96L121.623 130.176C122.663 132.092 125.063 132.801 126.976 131.761C128.893 130.721 129.602 128.323 128.562 126.411L124.608 119.014L117.77 122.96Z" fill="#D0C5F3"/>
<path d="M116.611 128.609C121.176 128.609 124.876 124.911 124.876 120.349C124.876 115.787 121.176 112.089 116.611 112.089C112.046 112.089 108.345 115.787 108.345 120.349C108.345 124.911 112.046 128.609 116.611 128.609Z" fill="url(#paint16_radial)"/>
<path d="M208.455 74.9785L216.057 78.0074C218.079 78.8294 219.047 81.1317 218.224 83.148C217.402 85.1688 215.098 86.1361 213.081 85.3187L205.288 82.2125L208.455 74.9785Z" fill="#D0C5F3"/>
<path d="M205.861 70.7144L213.976 71.7724C216.135 72.0722 217.648 74.0612 217.348 76.2182C217.048 78.3752 215.058 79.8874 212.899 79.5877L204.579 78.5024L205.861 70.7144Z" fill="#D0C5F3"/>
<path d="M206.592 80.0283L213.454 84.4877C215.276 85.6866 215.776 88.1342 214.576 89.9552C213.376 91.7762 210.927 92.2757 209.105 91.0769L202.071 86.5085L206.592 80.0283Z" fill="#D0C5F3"/>
<path d="M204.083 86.9127C208.648 86.9127 212.349 83.2144 212.349 78.6524C212.349 74.0904 208.648 70.3921 204.083 70.3921C199.519 70.3921 195.818 74.0904 195.818 78.6524C195.818 83.2144 199.519 86.9127 204.083 86.9127Z" fill="url(#paint17_radial)"/>
<path d="M6.59357 89.8966C7.81932 89.1894 7.86189 86.9698 6.68865 84.939C5.51541 82.9083 3.57065 81.8354 2.3449 82.5426C1.11915 83.2499 1.07658 85.4695 2.24982 87.5002C3.42306 89.531 5.36782 90.6039 6.59357 89.8966Z" fill="#C7E0F4"/>
<path d="M14.1593 116.03C15.8132 115.076 14.6547 109.976 11.5716 104.64C8.48857 99.3036 4.64853 95.7512 2.99464 96.7055C1.34074 97.6597 2.4993 102.759 5.58234 108.096C8.66539 113.432 12.5054 116.985 14.1593 116.03Z" fill="#C7E0F4"/>
<path d="M219.93 53.1484C220.904 51.9295 218.189 48.1432 213.866 44.6913C209.542 41.2394 205.247 39.4291 204.273 40.6479C203.299 41.8667 206.014 45.6531 210.337 49.105C214.661 52.5569 218.955 54.3672 219.93 53.1484Z" fill="#C7E0F4"/>
<path d="M49.0048 56.0738L47.2508 57.8857C46.1693 59.0029 46.3874 60.8375 47.7097 61.664L65.436 72.7988C66.4402 73.43 67.7535 73.2529 68.5532 72.3765L77.3732 62.7357C78.7091 61.2734 77.8503 58.912 75.8873 58.6532L51.0996 55.3518C50.318 55.2473 49.5455 55.5153 49.0048 56.0738Z" fill="#56A84F"/>
<path d="M42.2088 134.881C43.4346 134.174 43.4771 131.954 42.3039 129.924C41.1306 127.893 39.1859 126.82 37.9601 127.527C36.7344 128.235 36.6918 130.454 37.8651 132.485C39.0383 134.516 40.9831 135.589 42.2088 134.881Z" fill="white"/>
<defs>
<radialGradient id="paint0_radial" cx="0" cy="0" r="1" gradientUnits="userSpaceOnUse" gradientTransform="translate(174.686 98.6865) scale(166.355 166.249)">
<stop offset="0.3973" stop-color="#C7E0F4"/>
<stop offset="0.8469" stop-color="white"/>
</radialGradient>
<radialGradient id="paint1_radial" cx="0" cy="0" r="1" gradientUnits="userSpaceOnUse" gradientTransform="translate(90.169 143.328) scale(184.314 184.196)">
<stop offset="0.3973" stop-color="#C7E0F4"/>
<stop offset="0.8469" stop-color="white"/>
</radialGradient>
<radialGradient id="paint2_radial" cx="0" cy="0" r="1" gradientUnits="userSpaceOnUse" gradientTransform="translate(104.746 102.378) scale(112.529 112.457)">
<stop offset="0.4572" stop-color="#A7CBF6"/>
<stop offset="0.8563" stop-color="white" stop-opacity="0"/>
</radialGradient>
<linearGradient id="paint3_linear" x1="143.167" y1="110.536" x2="158.289" y2="128.33" gradientUnits="userSpaceOnUse">
<stop offset="0.2239" stop-color="#958FE7"/>
<stop offset="0.4264" stop-color="#BBB7EF"/>
</linearGradient>
<linearGradient id="paint4_linear" x1="157.982" y1="105.604" x2="175.393" y2="120.013" gradientUnits="userSpaceOnUse">
<stop offset="0.2239" stop-color="#958FE7"/>
<stop offset="0.4264" stop-color="#BBB7EF"/>
</linearGradient>
<linearGradient id="paint5_linear" x1="155" y1="74.3841" x2="205.117" y2="72.336" gradientUnits="userSpaceOnUse">
<stop offset="0.4132" stop-color="#958FE7"/>
<stop offset="0.5167" stop-color="#BBB7EF"/>
</linearGradient>
<radialGradient id="paint6_radial" cx="0" cy="0" r="1" gradientUnits="userSpaceOnUse" gradientTransform="translate(154.031 62.1215) rotate(0.205633) scale(56.457 56.4209)">
<stop offset="0.3472" stop-color="#A08BE8"/>
<stop offset="0.684" stop-color="#8065E0"/>
<stop offset="0.7596" stop-color="#8065E0"/>
</radialGradient>
<radialGradient id="paint7_radial" cx="0" cy="0" r="1" gradientUnits="userSpaceOnUse" gradientTransform="translate(149.17 63.2593) rotate(158.507) scale(43.3559 43.3357)">
<stop offset="0.0933" stop-color="#E1DFDD"/>
<stop offset="0.6573" stop-color="white"/>
</radialGradient>
<radialGradient id="paint8_radial" cx="0" cy="0" r="1" gradientUnits="userSpaceOnUse" gradientTransform="translate(147.97 86.3536) rotate(158.507) scale(26.6825 26.67)">
<stop offset="0.1574" stop-color="#512BD4"/>
<stop offset="0.3647" stop-color="#5833D6"/>
<stop offset="0.6892" stop-color="#6A49DA"/>
<stop offset="1" stop-color="#8065E0"/>
</radialGradient>
<linearGradient id="paint9_linear" x1="84.4681" y1="96.3074" x2="161.702" y2="96.0857" gradientUnits="userSpaceOnUse">
<stop offset="0.5041" stop-color="#958FE7"/>
<stop offset="0.8039" stop-color="#BDB9F0"/>
</linearGradient>
<radialGradient id="paint10_radial" cx="0" cy="0" r="1" gradientUnits="userSpaceOnUse" gradientTransform="translate(134.186 6.36826) rotate(158.507) scale(8.2198 8.21595)">
<stop stop-color="#A08BE8"/>
<stop offset="1" stop-color="#8065E0"/>
</radialGradient>
<radialGradient id="paint11_radial" cx="0" cy="0" r="1" gradientUnits="userSpaceOnUse" gradientTransform="translate(136.79 23.4213) rotate(158.507) scale(6.64857 6.64546)">
<stop stop-color="#8065E0"/>
<stop offset="1" stop-color="#512BD4"/>
</radialGradient>
<radialGradient id="paint12_radial" cx="0" cy="0" r="1" gradientUnits="userSpaceOnUse" gradientTransform="translate(164.963 41.7885) rotate(-86.7418) scale(12.5855 12.5935)">
<stop offset="0.2632" stop-color="#BDB9F0"/>
<stop offset="0.4345" stop-color="#CEC3E2" stop-opacity="0.7675"/>
<stop offset="0.7974" stop-color="#EDD6C9" stop-opacity="0.2749"/>
<stop offset="1" stop-color="#F9DDBF" stop-opacity="0"/>
</radialGradient>
<radialGradient id="paint13_radial" cx="0" cy="0" r="1" gradientUnits="userSpaceOnUse" gradientTransform="translate(114.816 53.8746) rotate(165.075) scale(19.304 19.2933)">
<stop stop-color="#BDB9F0"/>
<stop offset="0.2968" stop-color="#C3BCEB" stop-opacity="0.4"/>
<stop offset="0.4132" stop-color="#CEC3E2" stop-opacity="0.3338"/>
<stop offset="0.7899" stop-color="#EDD6C9" stop-opacity="0.1195"/>
<stop offset="1" stop-color="#F9DDBF" stop-opacity="0"/>
</radialGradient>
<linearGradient id="paint14_linear" x1="110.273" y1="73.0589" x2="111.59" y2="123.168" gradientUnits="userSpaceOnUse">
<stop offset="0.2026" stop-color="#958FE7"/>
<stop offset="0.347" stop-color="#BBB7EF"/>
</linearGradient>
<radialGradient id="paint15_radial" cx="0" cy="0" r="1" gradientUnits="userSpaceOnUse" gradientTransform="translate(115.798 70.0358) rotate(158.507) scale(8.22465 8.22081)">
<stop stop-color="#8065E0"/>
<stop offset="1" stop-color="#512BD4"/>
</radialGradient>
<radialGradient id="paint16_radial" cx="0" cy="0" r="1" gradientUnits="userSpaceOnUse" gradientTransform="translate(114.369 115.119) rotate(158.507) scale(12.9006 12.8946)">
<stop stop-color="#A08BE8"/>
<stop offset="1" stop-color="#8065E0"/>
</radialGradient>
<radialGradient id="paint17_radial" cx="0" cy="0" r="1" gradientUnits="userSpaceOnUse" gradientTransform="translate(199.023 75.9175) rotate(-63.5561) scale(12.8951 12.9001)">
<stop stop-color="#A08BE8"/>
<stop offset="1" stop-color="#8065E0"/>
</radialGradient>
</defs>
</svg>
