<svg width="270" height="270" viewBox="0 0 270 270" fill="none" xmlns="http://www.w3.org/2000/svg">
<path d="M192.999 162.591C191.032 173.84 198.37 187.118 198.897 187.798C199.423 188.478 178.896 180.511 178.896 180.511C178.896 180.511 178.641 163.76 183.773 158.48C184.251 157.992 192.999 162.591 192.999 162.591Z" fill="#A08BE8"/>
<path d="M191.787 162.554C190.957 165.916 191.271 170.553 194.43 176.379C196.653 180.485 198.12 178.604 202.582 177.93C204.273 177.675 201.008 184.16 200.428 185.605L182.709 187.527C183.379 185.859 183.384 184.872 182.167 182.96C179.114 178.174 180.561 166.739 183.422 159.335C186.283 151.937 191.787 162.554 191.787 162.554Z" fill="#A08BE8"/>
<path d="M187.793 158.427C190.335 159.442 193.223 158.21 194.238 155.671L200.886 139.089C201.715 137.029 201.061 134.665 199.296 133.316L168.702 117.25C166.527 115.587 163.107 116.591 161.443 118.763C159.778 120.936 160.193 124.043 162.368 125.705L190.277 138.898L185.028 151.99C184.012 154.529 185.251 157.413 187.793 158.427Z" fill="url(#paint0_linear)"/>
<path d="M180.151 134.107L181.279 134.644L185.751 126.204L184.645 125.62L180.151 134.107Z" fill="#A08BE8"/>
<path d="M199.296 133.316L193.978 130.522L189.872 138.585L189.883 138.707L190.282 138.893L189.963 139.689L190.021 139.711L200.099 141.054L200.891 139.084C201.715 137.028 201.061 134.67 199.296 133.316Z" fill="#A08BE8"/>
<path d="M200.583 176.74C195.759 176.618 178.545 171.301 182.518 160.541C183.257 158.539 183.268 156.696 180.795 159.973C178.322 163.25 168.393 185.881 168.861 187.617C169.329 189.354 201.13 190.066 201.13 190.066L200.583 176.74Z" fill="#8065E0"/>
<path d="M213.202 183.124C214.377 183.831 214.367 184.675 213.803 185.849L210.373 191.851C210.357 191.181 209.799 190.029 209.145 189.684L195.642 182.763C196.935 182.386 197.307 181.377 197.551 180.915C197.551 180.915 198.408 179.375 199.312 177.633C199.737 176.809 200.753 176.496 201.572 176.926L213.202 183.124Z" fill="#D0C5F3"/>
<path d="M169.611 187.049L194.717 182.891C195.073 182.832 196.084 182.689 196.536 182.322L209.767 189.742C211.054 190.47 210.708 192.408 209.251 192.647L186.697 196.386C186.4 196.434 186.097 196.397 185.82 196.28L169.388 188.903C168.489 188.52 168.648 187.209 169.611 187.049Z" fill="#512BD4"/>
<path d="M196.259 149.791L188.415 146.652C186.517 145.893 184.358 146.817 183.597 148.713L180.545 156.335C179.784 158.231 180.71 160.387 182.608 161.146L190.452 164.285C192.35 165.045 194.51 164.121 195.27 162.225L198.323 154.608C199.083 152.707 198.163 150.556 196.259 149.791Z" fill="url(#paint1_radial)"/>
<path d="M202.758 104.083L222.397 110.892L225.657 101.146L206.017 94.3372L202.758 104.083Z" fill="url(#paint2_linear)"/>
<path d="M215.919 97.8L212.665 107.541L213.803 107.923L217.057 98.1825L215.919 97.8Z" fill="#A08BE8"/>
<path d="M200.811 106.898C206.135 106.898 210.453 102.585 210.453 97.2688C210.453 91.9523 206.135 87.6396 200.811 87.6396C195.488 87.6396 191.17 91.9523 191.17 97.2688C191.17 102.585 195.488 106.898 200.811 106.898Z" fill="url(#paint3_radial)"/>
<path d="M232.798 108.205L247.806 89.0843L239.712 82.748L224.705 101.868L232.798 108.205Z" fill="#D0C5F3"/>
<path d="M232.692 91.6763L231.953 92.6217L240.047 98.9579L240.786 98.0125L232.692 91.6763Z" fill="#A08BE8"/>
<path d="M230.246 69.2525L237.537 82.1958C238.771 84.3841 241.541 85.1595 243.732 83.9273L243.998 83.7786C246.189 82.5464 246.966 79.7793 245.732 77.591L238.441 64.6477C237.207 62.4595 234.437 61.6841 232.246 62.9162L231.98 63.065C229.794 64.2972 229.018 67.0643 230.246 69.2525Z" fill="#D0C5F3"/>
<path d="M253.177 88.5267L267.456 76.6828C269.439 74.9885 269.679 72.0089 267.982 70.0279C266.286 68.0468 263.302 67.8078 261.319 69.5021L252.129 76.9483L253.177 88.5267Z" fill="#D0C5F3"/>
<path d="M250.263 87.1033L258.367 76.311C259.925 74.2184 259.489 71.2601 257.394 69.7039C255.299 68.1477 252.337 68.5833 250.779 70.6759L244.727 78.6851L250.263 87.1033Z" fill="#D0C5F3"/>
<path d="M245.37 85.202L250.81 72.8428C251.863 70.4581 250.784 67.6698 248.396 66.6181C246.008 65.5665 243.216 66.6447 242.163 69.0294L238.654 77.2511L245.37 85.202Z" fill="#D0C5F3"/>
<path d="M247.391 90.3804C252.853 90.3804 257.282 85.9562 257.282 80.5016C257.282 75.047 252.853 70.6228 247.391 70.6228C241.93 70.6228 237.5 75.047 237.5 80.5016C237.5 85.9562 241.93 90.3804 247.391 90.3804Z" fill="url(#paint4_radial)"/>
<path d="M224.609 100.796L222.397 110.892C222.397 110.892 228.502 113.394 232.804 108.194C228.284 103.287 225.742 100.53 225.742 100.53L224.609 100.796Z" fill="#A08BE8"/>
<path d="M203.677 92.3242C207.235 79.4605 205.214 69.1196 205.214 69.1196L208.256 69.1621L208.331 69.1037C204.321 45.3468 183.804 27.087 158.821 26.7205C130.673 26.3062 107.519 48.7619 107.109 76.874C106.694 104.986 129.179 128.111 157.326 128.52C179.539 128.844 198.636 114.929 205.906 95.2347C206.118 94.4062 206.124 92.8978 203.677 92.3242Z" fill="url(#paint5_radial)"/>
<path d="M205.693 95.8243C205.693 95.8243 207.145 93.1316 203.678 92.3243C207.193 79.6199 205.262 69.38 205.215 69.1303L152.338 68.3549C152.338 68.3549 149.009 67.9672 148.967 71.0052C148.924 74.0432 148.919 82.6314 148.781 92.1277C148.754 94.0823 150.339 95.0436 151.599 95.0648L205.901 95.8615C205.768 95.8403 205.693 95.8243 205.693 95.8243Z" fill="url(#paint6_radial)"/>
<path d="M178.295 91.91C178.295 91.91 183.438 87.9691 184.437 87.2362C185.442 86.5086 186.309 86.4767 187.208 87.2787C188.107 88.0754 193.138 92.1278 193.138 92.1278L178.295 91.91Z" fill="#A08BE8"/>
<path d="M205.693 95.8242C205.693 95.8242 207.145 93.1314 203.678 92.3241C203.683 92.3082 203.683 92.2976 203.688 92.2816L151.69 91.5221C150.482 91.5062 148.935 90.7626 148.818 89.5889C148.807 90.428 148.797 91.2778 148.786 92.1382C148.759 93.9122 150.062 94.8682 151.248 95.0435C151.365 95.0594 151.488 95.0753 151.605 95.0753L155.157 95.1284L205.901 95.872C205.768 95.8401 205.693 95.8242 205.693 95.8242Z" fill="url(#paint7_radial)"/>
<path d="M201.636 104.046L113.751 102.761C115.677 106.139 117.974 109.272 120.596 112.108L194.526 113.192C197.227 110.43 199.615 107.366 201.636 104.046Z" fill="url(#paint8_radial)"/>
<path d="M99.2654 27.0498L106.476 20.857C108.412 19.2211 111.305 19.4601 112.943 21.3934C114.581 23.3267 114.342 26.2159 112.406 27.8518L103.541 35.2927L99.2654 27.0498Z" fill="#D0C5F3"/>
<path d="M89.0123 29.0044L88.7677 19.508C88.7198 16.9799 90.7353 14.8873 93.2667 14.8395C95.798 14.7917 97.8933 16.8046 97.9411 19.3327L98.1964 29.0681L89.0123 29.0044Z" fill="#D0C5F3"/>
<path d="M95.1918 28.7655L95.1865 19.2691C95.2025 16.7356 97.2711 14.7014 99.8025 14.7174C102.339 14.7333 104.376 16.7994 104.36 19.3275L104.365 29.0682L95.1918 28.7655Z" fill="#D0C5F3"/>
<path d="M86.3003 31.4688L84.1093 22.2273C83.5403 19.763 85.0878 17.3039 87.5553 16.7356C90.0228 16.1673 92.485 17.7128 93.054 20.1772L95.2982 29.6577L86.3003 31.4688Z" fill="#D0C5F3"/>
<path d="M93.0806 28.4731C88.2945 35.6273 84.338 48.4379 88.9539 60.9776C91.7565 68.5938 98.7815 78.7169 116.341 83.7094L119.112 73.9847C108.455 70.952 101.307 65.2478 98.4518 57.4881C95.362 49.0858 97.7498 39.6797 101.494 34.0871L93.0806 28.4731Z" fill="url(#paint9_linear)"/>
<path d="M108.529 69.4224L103.153 77.83L104.137 78.4567L109.513 70.0491L108.529 69.4224Z" fill="#A08BE8"/>
<path d="M96.9946 49.4312L87.0076 49.4896L87.0129 50.658L97 50.5996L96.9946 49.4312Z" fill="#A08BE8"/>
<path d="M89.6399 62.6666L100.148 61.0308C100.356 61.376 100.574 61.7212 100.797 62.0558L93.6443 69.4596C91.8681 67.1546 90.5812 64.8389 89.6399 62.6666Z" fill="#A08BE8"/>
<path d="M95.0695 42.9569C100.377 42.9569 104.674 38.6602 104.674 33.3649C104.674 28.0697 100.377 23.7729 95.0695 23.7729C89.7675 23.7729 85.4653 28.0697 85.4653 33.3649C85.4653 38.6602 89.7675 42.9569 95.0695 42.9569Z" fill="url(#paint10_radial)"/>
<path d="M202.019 80.3793C202.13 76.6827 200.434 73.6394 198.232 73.5704C196.031 73.5066 194.159 76.449 194.047 80.1403C193.935 83.8369 195.632 86.8855 197.833 86.9492C200.035 87.0183 201.907 84.0759 202.019 80.3793Z" fill="#512BD4"/>
<path d="M198.025 76.7308C196.546 78.1648 196.514 80.5229 197.945 81.9941C198.929 83.0033 200.343 83.3379 201.614 82.9873C201.843 82.1907 201.976 81.3143 202.008 80.3902C202.061 78.5791 201.678 76.922 201.019 75.7004C199.955 75.5835 198.849 75.9288 198.025 76.7308Z" fill="#8065E0"/>
<path d="M165.915 86.5192C168.117 86.5192 169.903 83.5237 169.903 79.8271C169.903 76.1305 168.117 73.135 165.915 73.135C163.713 73.135 161.927 76.1305 161.927 79.8271C161.927 83.5237 163.713 86.5192 165.915 86.5192Z" fill="#512BD4"/>
<path d="M165.931 76.4758C164.453 77.9098 164.421 80.2679 165.851 81.7391C166.83 82.743 168.234 83.0776 169.499 82.7376C169.755 81.856 169.898 80.8681 169.898 79.8218C169.898 78.1435 169.526 76.6139 168.92 75.4401C167.861 75.3339 166.761 75.6738 165.931 76.4758Z" fill="#8065E0"/>
<path d="M122.34 90.5079C127.509 90.5079 131.7 86.3226 131.7 81.1602C131.7 75.9977 127.509 71.8125 122.34 71.8125C117.171 71.8125 112.98 75.9977 112.98 81.1602C112.98 86.3226 117.171 90.5079 122.34 90.5079Z" fill="url(#paint11_radial)"/>
<path d="M123.632 134.352C122.138 134.33 120.665 133.682 119.633 132.45C117.745 130.204 118.043 126.852 120.293 124.967L142.234 106.611C144.484 104.726 147.839 105.023 149.727 107.27C151.615 109.517 151.317 112.868 149.068 114.753L127.126 133.109C126.105 133.964 124.861 134.373 123.632 134.352Z" fill="#D0C5F3"/>
<path d="M148.786 114.987L149.057 114.759C151.307 112.873 151.604 109.527 149.717 107.275C147.829 105.029 144.478 104.731 142.224 106.617L141.58 107.153L148.786 114.987Z" fill="#9080E0"/>
<path d="M135.991 111.832L143.175 119.682L144.202 118.822L137.017 110.977L135.991 111.832Z" fill="#A08BE8"/>
<path d="M130.258 131.972C123.356 138.197 122.856 150.944 123.132 151.762C123.414 152.574 110.981 143.471 110.981 143.471C110.981 143.471 116.123 127.527 122.68 124.165C123.286 123.851 130.258 131.972 130.258 131.972Z" fill="#A08BE8"/>
<path d="M116.751 145.829C112.225 144.172 113.539 134.373 120.755 125.45C122.101 123.788 122.68 121.754 119.495 124.34C116.277 126.948 99.2973 145.181 99.1856 146.976C99.0739 148.771 128.961 159.643 128.961 159.643L116.751 145.829Z" fill="#8065E0"/>
<path d="M142.628 156.94C143.516 157.986 143.234 158.778 142.325 159.718L137.15 164.301C137.353 163.664 137.193 162.389 136.682 161.853L126.116 150.97C127.461 151.029 128.137 150.19 128.514 149.829C128.514 149.829 129.817 148.644 131.237 147.284C131.907 146.642 132.965 146.668 133.609 147.338L142.628 156.94Z" fill="#D0C5F3"/>
<path d="M100.079 146.684L125.19 150.795C125.547 150.853 126.552 151.039 127.094 150.843L137.241 162.113C138.224 163.213 137.273 164.939 135.815 164.7L113.257 161.014C112.959 160.966 112.682 160.833 112.459 160.631L99.2653 148.378C98.5474 147.715 99.1217 146.525 100.079 146.684Z" fill="#512BD4"/>
<path d="M136.709 123.145L130.822 117.09C129.397 115.624 127.052 115.587 125.578 117.016L119.681 122.736C118.213 124.16 118.176 126.502 119.606 127.973L125.493 134.028C126.919 135.494 129.264 135.531 130.737 134.102L136.634 128.382C138.102 126.959 138.134 124.616 136.709 123.145Z" fill="url(#paint12_radial)"/>
<path d="M119.037 225.263C198.711 273.924 245.141 271.189 257.995 269.059C260.276 268.682 261.409 266.834 260.707 264.63C256.75 252.233 238.037 209.701 158.363 161.04C101.398 126.247 55.8762 110.473 35.4979 104.503C29.1908 102.654 23.9527 105.464 24.0271 110.642L24.1547 119.188C24.192 121.753 22.8997 123.867 20.5917 125.004L12.9179 128.785C8.27007 131.075 8.14776 137.012 12.668 141.782C27.2764 157.184 62.0716 190.47 119.037 225.263Z" fill="url(#paint13_linear)"/>
<path d="M260.707 264.63C256.751 252.233 238.037 209.701 158.364 161.04C101.398 126.247 55.8765 110.473 35.4982 104.503C29.9463 102.878 25.2293 104.859 24.2295 108.879C26.2769 107.939 28.989 107.785 31.9405 108.651C52.3241 114.621 97.8403 130.395 154.806 165.188C234.479 213.849 253.193 256.387 257.15 268.778C257.192 268.91 257.229 269.043 257.256 269.176C257.511 269.139 257.761 269.096 258 269.059C260.277 268.682 261.409 266.834 260.707 264.63Z" fill="#FFD591"/>
<path d="M72.7446 152.155L42.5547 133.714C41.8528 133.284 41.0604 133.077 40.3531 133.141L22.5965 134.67C20.3417 134.862 20.2992 137.443 22.5221 138.845L39.7256 149.919C40.3956 150.344 41.1561 150.561 41.8528 150.535L72.5957 156.372C74.9782 156.282 75.0739 153.578 72.7446 152.155Z" fill="#FFD591"/>
<path d="M150.775 24.4686L141.431 26.8905L140.256 16.9745L146.962 15.2324L150.775 24.4686Z" fill="#D0C5F3"/>
<path d="M141.857 18.3023C146.919 18.3023 151.019 14.2074 151.019 9.15116C151.019 4.09492 146.919 0 141.857 0C136.794 0 132.694 4.09492 132.694 9.15116C132.694 14.2074 136.794 18.3023 141.857 18.3023Z" fill="url(#paint14_radial)"/>
<path d="M155.869 29.392C156.289 29.2805 156.534 28.829 156.375 28.4254C154.726 24.1286 150.073 21.6589 145.51 22.8433C140.947 24.0277 138.086 28.4466 138.74 33.0036C138.804 33.4338 139.235 33.71 139.655 33.5985L155.869 29.392Z" fill="url(#paint15_radial)"/>
<path d="M190.574 101.008H175.142V116.421H190.574V101.008Z" fill="#512BD4"/>
<path d="M177.891 110.855C177.779 110.855 177.689 110.818 177.615 110.743C177.54 110.669 177.498 110.579 177.498 110.478C177.498 110.372 177.535 110.287 177.615 110.207C177.689 110.133 177.785 110.095 177.891 110.095C178.003 110.095 178.093 110.133 178.173 110.207C178.253 110.281 178.29 110.372 178.29 110.478C178.29 110.579 178.253 110.669 178.173 110.743C178.093 110.823 178.003 110.855 177.891 110.855Z" fill="white"/>
<path d="M182.252 110.797H181.545L179.678 107.854C179.63 107.78 179.593 107.7 179.561 107.62H179.545C179.561 107.705 179.566 107.891 179.566 108.173V110.797H178.939V106.792H179.694L181.502 109.665C181.576 109.782 181.63 109.867 181.651 109.91H181.662C181.646 109.803 181.635 109.623 181.635 109.368V106.787H182.257V110.797H182.252Z" fill="white"/>
<path d="M185.31 110.797H183.113V106.792H185.224V107.355H183.767V108.492H185.113V109.055H183.767V110.239H185.315L185.31 110.797Z" fill="white"/>
<path d="M188.431 107.355H187.309V110.797H186.66V107.355H185.538V106.792H188.431V107.355Z" fill="white"/>
<path d="M176.477 210.089C176.934 209.335 175.812 207.821 173.966 206.717C172.126 205.606 170.265 205.32 169.808 206.074C169.35 206.828 170.478 208.336 172.318 209.446C174.163 210.557 176.025 210.843 176.477 210.089Z" fill="white"/>
<path d="M182.417 233.469C182.964 232.816 182.3 231.355 180.928 230.203C179.556 229.05 177.997 228.646 177.45 229.3C176.902 229.953 177.567 231.414 178.939 232.566C180.311 233.719 181.869 234.122 182.417 233.469Z" fill="white"/>
<path d="M127.434 169.841C127.679 169.039 126.605 167.998 125.036 167.52C123.467 167.042 121.994 167.302 121.75 168.104C121.505 168.906 122.579 169.947 124.148 170.425C125.722 170.903 127.19 170.643 127.434 169.841Z" fill="white"/>
<path d="M113.943 167.472C115.283 167.764 116.501 167.419 116.655 166.702C116.809 165.985 115.852 165.167 114.507 164.875C113.166 164.583 111.949 164.928 111.794 165.645C111.64 166.362 112.597 167.18 113.943 167.472Z" fill="white"/>
<path d="M5.85589 188.032C11.5248 186.969 40.2097 196.004 73.7074 210.652C107.093 225.247 103.467 250.539 146.51 262.627C157.88 265.039 180.72 267.216 167.303 256.525C149.217 242.105 154.029 236.278 168.319 244.282C182.284 252.101 183.22 244.633 177.912 237.558C170.286 227.398 157.608 216.967 141.835 205.734C119.303 189.684 126.514 191.075 135.215 192.328C145.367 193.789 141.718 182.444 128.918 176.464C91.4055 158.937 40.3799 162.963 8.45636 175.147C-1.05742 179.635 0.0859383 189.105 5.85589 188.032Z" fill="white"/>
<path d="M5.97292 192.233C55.786 191.893 92.7935 247.629 146.51 262.633C157.88 265.044 168.84 263.923 156.933 251.527C143.707 237.76 148.701 228.652 162.873 236.857C169.824 240.883 171.977 237.139 166.346 230.362C159.385 221.976 147.643 214.301 131.87 203.062C109.338 187.012 115.028 185.243 128.37 187.83C138.682 189.827 136.092 183.639 122.904 178.594C84.1731 163.776 37.6625 167.584 5.73893 179.768C-3.78017 184.261 0.149786 192.27 5.97292 192.233Z" fill="#C7E0F5"/>
<path d="M11.7482 188.993C43.709 188.318 72.963 210.397 108.747 238.026C131.253 253.63 159.438 262.457 146.781 248.6C134.124 234.738 139.336 224.041 156.221 231.111C165.787 235.115 149.323 219.893 123.622 206.137C95.7769 191.234 103.541 182.481 113.815 183.119C117.198 183.326 117.665 181.919 114.278 180.973C72.3461 169.267 32.1053 176.841 12.397 182.566C5.95169 184.436 4.8881 189.136 11.7482 188.993Z" fill="url(#paint16_radial)"/>
<path d="M104.552 165.422C105.445 165.613 106.264 165.337 106.381 164.801C106.498 164.264 105.87 163.669 104.977 163.478C104.084 163.287 103.265 163.563 103.148 164.099C103.031 164.636 103.658 165.231 104.552 165.422Z" fill="white"/>
<path d="M150.913 202.197C160.48 207.842 169.409 215.49 176.647 222.119C180.678 225.81 185.315 222.384 178.061 216.739C170.807 211.093 159.172 203.53 151.955 200.433C148.616 198.994 148.392 200.709 150.913 202.197Z" fill="white"/>
<path d="M114.922 86.668C115.852 86.6786 116.698 87.3053 116.937 88.2507C120.915 103.961 133.763 116.172 149.669 119.348C150.807 119.576 151.546 120.681 151.317 121.817C151.089 122.954 149.983 123.692 148.845 123.464C131.365 119.969 117.24 106.553 112.863 89.2811C112.576 88.1604 113.262 87.0185 114.384 86.7317C114.565 86.6892 114.746 86.668 114.922 86.668Z" fill="url(#paint17_radial)"/>
<path d="M201.199 68.068C200.269 68.068 199.413 67.4466 199.163 66.5065C195.004 50.8385 182.018 38.7822 166.08 35.7867C164.942 35.5742 164.192 34.4748 164.405 33.3382C164.617 32.2016 165.718 31.4527 166.856 31.6652C184.379 34.9581 198.652 48.2148 203.226 65.4337C203.523 66.5543 202.853 67.7015 201.731 67.999C201.556 68.0468 201.375 68.068 201.199 68.068Z" fill="url(#paint18_linear)"/>
<defs>
<linearGradient id="paint0_linear" x1="158.425" y1="128.384" x2="195.274" y2="145.926" gradientUnits="userSpaceOnUse">
<stop offset="0.2368" stop-color="#958FE7"/>
<stop offset="0.4881" stop-color="#BBB7EF"/>
</linearGradient>
<radialGradient id="paint1_radial" cx="0" cy="0" r="1" gradientUnits="userSpaceOnUse" gradientTransform="translate(189.95 150.724) scale(14.5197 14.5013)">
<stop stop-color="#8065E0"/>
<stop offset="1" stop-color="#512BD4"/>
</radialGradient>
<linearGradient id="paint2_linear" x1="202.758" y1="102.615" x2="225.657" y2="102.615" gradientUnits="userSpaceOnUse">
<stop offset="0.2368" stop-color="#958FE7"/>
<stop offset="0.4881" stop-color="#BBB7EF"/>
</linearGradient>
<radialGradient id="paint3_radial" cx="0" cy="0" r="1" gradientUnits="userSpaceOnUse" gradientTransform="translate(200.812 97.2688) scale(9.64141 9.62918)">
<stop stop-color="#8065E0"/>
<stop offset="1" stop-color="#512BD4"/>
</radialGradient>
<radialGradient id="paint4_radial" cx="0" cy="0" r="1" gradientUnits="userSpaceOnUse" gradientTransform="translate(247.771 75.2549) scale(14.5819 14.5634)">
<stop stop-color="#A08BE8"/>
<stop offset="1" stop-color="#8065E0"/>
</radialGradient>
<radialGradient id="paint5_radial" cx="0" cy="0" r="1" gradientUnits="userSpaceOnUse" gradientTransform="translate(168.602 62.5592) scale(50.7921 50.7276)">
<stop offset="0.4744" stop-color="#A08BE8"/>
<stop offset="0.8618" stop-color="#8065E0"/>
</radialGradient>
<radialGradient id="paint6_radial" cx="0" cy="0" r="1" gradientUnits="userSpaceOnUse" gradientTransform="translate(167.905 62.6187) scale(58.9612 58.8864)">
<stop offset="0.0933" stop-color="#E1DFDD"/>
<stop offset="0.6573" stop-color="white"/>
</radialGradient>
<radialGradient id="paint7_radial" cx="0" cy="0" r="1" gradientUnits="userSpaceOnUse" gradientTransform="translate(167.142 92.6627) scale(39.138 39.0883)">
<stop stop-color="#512BD4"/>
<stop offset="0.7715" stop-color="#6645D9"/>
<stop offset="0.8738" stop-color="#7659DD"/>
<stop offset="0.9583" stop-color="#8065E0"/>
</radialGradient>
<radialGradient id="paint8_radial" cx="0" cy="0" r="1" gradientUnits="userSpaceOnUse" gradientTransform="translate(128.272 107.254) scale(44.3208 44.2645)">
<stop offset="0.4614" stop-color="#A08BE8"/>
<stop offset="0.5268" stop-color="#A793EA"/>
<stop offset="0.8352" stop-color="#C5B7F0"/>
<stop offset="1" stop-color="#D0C5F3"/>
</radialGradient>
<linearGradient id="paint9_linear" x1="134.132" y1="81.0825" x2="87.3281" y2="44.3477" gradientUnits="userSpaceOnUse">
<stop offset="0.3458" stop-color="#958FE7"/>
<stop offset="0.5504" stop-color="#BBB7EF"/>
</linearGradient>
<radialGradient id="paint10_radial" cx="0" cy="0" r="1" gradientUnits="userSpaceOnUse" gradientTransform="translate(95.5297 30.0092) scale(13.9937 13.9759)">
<stop stop-color="#A08BE8"/>
<stop offset="1" stop-color="#8065E0"/>
</radialGradient>
<radialGradient id="paint11_radial" cx="0" cy="0" r="1" gradientUnits="userSpaceOnUse" gradientTransform="translate(122.215 76.6889) scale(11.6971 11.6823)">
<stop stop-color="#8065E0"/>
<stop offset="1" stop-color="#512BD4"/>
</radialGradient>
<radialGradient id="paint12_radial" cx="0" cy="0" r="1" gradientUnits="userSpaceOnUse" gradientTransform="translate(129.608 122.108) scale(13.3517 13.3347)">
<stop stop-color="#8065E0"/>
<stop offset="1" stop-color="#512BD4"/>
</radialGradient>
<linearGradient id="paint13_linear" x1="95.4946" y1="306.552" x2="182.827" y2="70.937" gradientUnits="userSpaceOnUse">
<stop offset="0.3842" stop-color="#FFD590"/>
<stop offset="0.5153" stop-color="#F7B548"/>
</linearGradient>
<radialGradient id="paint14_radial" cx="0" cy="0" r="1" gradientUnits="userSpaceOnUse" gradientTransform="translate(141.261 6.00094) scale(10.9229 10.9091)">
<stop stop-color="#A08BE8"/>
<stop offset="1" stop-color="#8065E0"/>
</radialGradient>
<radialGradient id="paint15_radial" cx="0" cy="0" r="1" gradientUnits="userSpaceOnUse" gradientTransform="translate(146.278 25.3848) scale(11.7734 11.7584)">
<stop stop-color="#8065E0"/>
<stop offset="1" stop-color="#512BD4"/>
</radialGradient>
<radialGradient id="paint16_radial" cx="0" cy="0" r="1" gradientUnits="userSpaceOnUse" gradientTransform="translate(118.625 174.041) rotate(15.6071) scale(81.946 87.438)">
<stop stop-color="white"/>
<stop offset="0.1307" stop-color="#F7FAFE"/>
<stop offset="1" stop-color="#C7E0F5"/>
</radialGradient>
<radialGradient id="paint17_radial" cx="0" cy="0" r="1" gradientUnits="userSpaceOnUse" gradientTransform="translate(132.182 105.077) rotate(-179.486) scale(18.8651 18.8412)">
<stop stop-color="#BDB9F0"/>
<stop offset="0.5266" stop-color="#C3BCEB" stop-opacity="0.3855"/>
<stop offset="0.605" stop-color="#CEC3E2" stop-opacity="0.3217"/>
<stop offset="0.8586" stop-color="#EDD6C9" stop-opacity="0.1152"/>
<stop offset="1" stop-color="#F9DDBF" stop-opacity="0"/>
</radialGradient>
<linearGradient id="paint18_linear" x1="164.409" y1="49.8957" x2="203.257" y2="49.8003" gradientUnits="userSpaceOnUse">
<stop offset="0.0731" stop-color="#BDB9F0"/>
<stop offset="0.2886" stop-color="#CEC3E2" stop-opacity="0.7675"/>
<stop offset="0.7452" stop-color="#EDD6C9" stop-opacity="0.2749"/>
<stop offset="1" stop-color="#F9DDBF" stop-opacity="0"/>
</linearGradient>
</defs>
</svg>
