<svg width="262" height="240" viewBox="0 0 262 240" fill="none" xmlns="http://www.w3.org/2000/svg">
<path d="M261.213 239.364C244.986 208.292 217.279 187.822 185.822 187.822C154.366 187.822 126.659 208.292 110.431 239.364H261.213Z" fill="#8EEFDE"/>
<path d="M227.495 146.354H225.917V220.091H227.495V146.354Z" fill="#B3AFAB"/>
<path d="M225.803 144.876V162.576L248.859 155.33L225.803 144.876Z" fill="#E86E58"/>
<path d="M93.0448 163.032C92.3796 153.975 90.2556 138.067 94.2375 122.709L103.803 126.862C100.866 140.191 102.985 155.306 103.451 162.533C103.484 163.08 98.1815 163.593 93.0448 163.032Z" fill="url(#paint0_linear)"/>
<path d="M260.605 239.506C232.665 211.804 184.958 193.548 130.793 193.548C76.6323 193.548 28.925 211.804 0.984802 239.506H260.605Z" fill="#6FD0C3"/>
<path d="M92.85 161.949H101.075L128.056 205.955H101.299C100.044 205.955 98.8799 204.938 98.7041 203.678L92.85 161.949Z" fill="#522CD5"/>
<path d="M135.796 194.408C137.521 195.41 137.835 197.235 138.077 198.95L138.814 204.215C138.947 205.156 138.281 205.926 137.336 205.926H122.273C121.204 205.926 120.215 205.061 120.068 203.992L119.061 198.532C118.78 196.551 118.148 195.605 116.043 193.942C107.932 187.527 96.4186 173.286 94.8268 161.949H103.294C105.243 168.687 115.834 182.823 135.796 194.408Z" fill="url(#paint1_linear)"/>
<path d="M138.077 198.95C137.915 197.796 137.706 196.594 137.07 195.624H117.863C118.576 196.475 118.885 197.306 119.061 198.537L120.068 203.997C120.22 205.066 121.204 205.931 122.273 205.931H137.336C138.281 205.931 138.942 205.161 138.814 204.22L138.077 198.95Z" fill="url(#paint2_radial)"/>
<path d="M103.983 173.006L99.2648 164.02L99.6117 163.835C108.265 159.264 114.513 155.957 117.806 153.229C120.519 150.977 120.439 149.908 120.073 148.349C118.647 142.238 111.724 126.643 109.177 121.15L118.229 116.95C118.619 117.796 127.842 137.72 129.79 146.078C131.572 153.719 127.438 158.199 124.173 160.908C120.087 164.301 113.848 167.788 104.325 172.821L103.983 173.006Z" fill="url(#paint3_linear)"/>
<path d="M100.524 163.355L104.064 170.449L69.329 195.852L62.2204 181.616C61.6787 180.532 62.1491 179.278 63.2705 178.812L100.524 163.355Z" fill="#522CD5"/>
<path d="M84.7341 202.343C84.3635 204.054 83.1185 204.638 81.5837 205.275L76.8842 207.228C76.0432 207.575 75.0216 207.195 74.6177 206.382L65.6749 188.468C65.214 187.546 65.6131 186.477 66.5682 186.083L71.3627 183.902C73.1351 183.165 73.6055 181.511 75.1831 179.796C78.3098 176.389 91.2582 169.261 101.379 165.066L105.029 172.369C99.4407 175.724 88.3074 185.755 84.7341 202.343Z" fill="url(#paint4_linear)"/>
<path d="M71.3627 183.901L66.5682 186.082C65.6131 186.477 65.214 187.546 65.6749 188.468L74.6177 206.382C75.0263 207.194 76.0432 207.574 76.8842 207.228L81.5837 205.279C82.7146 204.809 83.6887 204.362 84.2684 203.478L73.5248 181.963C72.9308 182.789 72.3463 183.488 71.3627 183.901Z" fill="url(#paint5_radial)"/>
<path d="M195.207 208.311L192.803 208.145L193.691 195.277L182.729 106.862L185.114 106.562L196.11 195.216L195.207 208.311Z" fill="#B3AFAB"/>
<path d="M188.374 144.077C187.376 144.077 186.511 143.331 186.388 142.319L182.463 110.673C182.325 109.575 183.109 108.572 184.207 108.435C185.304 108.292 186.307 109.081 186.445 110.179L190.37 141.825C190.508 142.923 189.724 143.925 188.626 144.063C188.54 144.068 188.455 144.077 188.374 144.077Z" fill="#605D5A"/>
<path d="M151.971 98.8457C155.454 100.998 173.938 109.794 179.631 112.488L184.093 103.065C172.332 97.4963 159.165 91.0862 157.516 90.017C148.246 83.8445 137.26 74.1843 137.15 74.0845L130.256 81.9058C130.726 82.3192 141.874 92.1268 151.748 98.6984C151.809 98.746 151.886 98.7935 151.971 98.8457Z" fill="#8A6FE8"/>
<path d="M182.976 114.93L181.028 124.529C180.491 127.085 177.987 128.72 175.43 128.183C172.874 127.646 171.239 125.142 171.776 122.585L173.772 112.74L182.976 114.93Z" fill="#8A6FE8"/>
<path d="M190.165 108.311L196.376 115.885C198.015 117.914 197.702 120.889 195.673 122.533C193.644 124.172 190.669 123.859 189.025 121.83L182.658 114.061L190.165 108.311Z" fill="#8A6FE8"/>
<path d="M184.9 112.635L190.916 120.366C192.503 122.438 192.114 125.403 190.042 126.99C187.97 128.577 185.005 128.188 183.418 126.116L177.25 118.19L184.9 112.635Z" fill="#8A6FE8"/>
<path d="M190.698 103.322L198.267 109.542C200.272 111.214 200.543 114.194 198.871 116.199C197.198 118.204 194.219 118.475 192.213 116.802L184.454 110.426L190.698 103.322Z" fill="#8A6FE8"/>
<path d="M182.52 118.584C187.984 118.584 192.413 114.155 192.413 108.691C192.413 103.227 187.984 98.7981 182.52 98.7981C177.056 98.7981 172.627 103.227 172.627 108.691C172.627 114.155 177.056 118.584 182.52 118.584Z" fill="url(#paint6_radial)"/>
<path d="M203.556 211.723H189.381C188.274 211.723 187.376 210.825 187.376 209.718C187.376 208.61 188.274 207.712 189.381 207.712H203.556C204.663 207.712 205.561 208.61 205.561 209.718C205.561 210.825 204.663 211.723 203.556 211.723Z" fill="#797673"/>
<path d="M32.5268 141.008C32.7501 139.311 37.0742 137.178 42.7097 136.655C44.8718 136.455 45.8174 140.551 46.1453 142.509C46.2355 143.046 45.7651 143.521 45.1521 143.521H35.8958V161.948H32.5078V141.008H32.5268V141.008Z" fill="#B3AFAB"/>
<path d="M19.6401 122.509C19.6401 120.974 22.9568 118.884 28.4688 118.67C32.0944 118.532 33.7623 122.861 31.4672 124.533C28.7872 126.486 25.1189 127.988 22.9663 129.147V158.456H19.5783V124.025L19.6401 122.509Z" fill="#B3AFAB"/>
<path d="M25.9646 132.64C26.1879 130.943 30.512 128.81 36.1475 128.287C38.3096 128.087 39.2552 132.183 39.583 134.141C39.6733 134.678 39.2029 135.153 38.5899 135.153H29.3335V157.553H25.9456V132.644H25.9646V132.64Z" fill="#B3AFAB"/>
<path d="M22.111 192.706V175.025C22.111 170.022 26.7106 165.949 32.3652 165.949H44.4488C50.1034 165.949 54.7031 170.022 54.7031 175.025V192.706C54.7031 197.71 50.1034 201.782 44.4488 201.782H32.3652C26.7106 201.782 22.111 197.71 22.111 192.706ZM32.3652 169.95C29.2053 169.95 26.6346 172.226 26.6346 175.025V192.706C26.6346 195.505 29.2053 197.781 32.3652 197.781H44.4488C47.6087 197.781 50.1794 195.505 50.1794 192.706V175.025C50.1794 172.226 47.6087 169.95 44.4488 169.95H32.3652Z" fill="#B3AFAB"/>
<path d="M14.2421 233.562H41.441C42.2915 233.562 42.9805 232.873 42.9805 232.022V157.201C42.9805 156.351 42.2915 155.662 41.441 155.662H14.2421C13.3915 155.662 12.7025 156.351 12.7025 157.201V232.022C12.7025 232.873 13.3915 233.562 14.2421 233.562Z" fill="#3E8EED"/>
<path d="M21.8876 222.395H8.56379C7.71323 222.395 7.02423 221.706 7.02423 220.856V168.093C7.02423 167.242 7.71323 166.553 8.56379 166.553H21.8876C22.7382 166.553 23.4272 167.242 23.4272 168.093V220.856C23.4272 221.706 22.7382 222.395 21.8876 222.395Z" fill="#72ACF1"/>
<path d="M144.791 31.4708C151.757 35.9517 149.895 42.0481 144.292 40.6796C138.695 39.3111 127.994 31.2237 127.994 31.2237C127.994 31.2237 131.729 28.9856 134.96 29.1092C138.196 29.2327 144.791 31.4708 144.791 31.4708Z" fill="#B3AFAB"/>
<path d="M156.656 90.6678C158.975 76.8117 155.734 66.2011 155.734 66.2011L158.923 65.916L158.994 65.8495C152.213 41.4066 128.764 24.5189 102.596 26.852C73.1113 29.4845 51.3436 55.5145 53.9761 84.999C56.6086 114.483 82.6385 136.251 112.123 133.623C135.388 131.547 153.843 114.897 159.308 93.4856C159.436 92.5827 159.279 91.0004 156.656 90.6678Z" fill="url(#paint7_radial)"/>
<path d="M156.656 90.668C158.947 76.9782 155.815 66.4722 155.739 66.2156L100.353 71.1574C100.353 71.1574 96.8319 71.1146 97.117 74.303C97.4021 77.4914 98.3382 86.4865 99.2268 96.4461C99.4073 98.4941 101.175 99.3304 102.496 99.2163C102.491 99.2116 155.948 92.697 156.656 90.668Z" fill="url(#paint8_radial)"/>
<path d="M122.444 93.7471C122.444 93.7471 130.36 86.2441 131.909 84.8519C133.458 83.4596 134.908 83.26 136.552 84.4385C138.191 85.6169 147.319 91.5328 147.319 91.5328L122.444 93.7471Z" fill="#A08BE8"/>
<path d="M159.146 94.1178C159.146 94.1178 160.372 91.1384 156.661 90.668C156.666 90.6537 102.201 95.4815 102.201 95.4815C100.933 95.5955 99.2363 94.9826 98.9845 93.7709C99.0653 94.6499 99.1461 95.5433 99.2268 96.4413C99.3931 98.2993 100.861 99.1593 102.116 99.2164C102.239 99.2211 102.368 99.2211 102.496 99.2116L106.217 98.879L159.146 94.1178Z" fill="#512BD4"/>
<path d="M155.801 103.165L63.7456 111.376C66.1263 114.702 68.8728 117.734 71.9186 120.419L149.358 113.51C151.881 110.331 154.048 106.862 155.801 103.165Z" fill="#D8CFF7"/>
<path d="M144.365 101.386L127.138 102.924L128.498 118.163L145.725 116.625L144.365 101.386Z" fill="#512BD4"/>
<path d="M105.946 24.4905L95.6202 25.3411L96.2 14.6259L103.613 14.0129L105.946 24.4905Z" fill="#8A6FE8"/>
<path d="M110.427 30.6392C110.892 30.6012 111.23 30.1688 111.139 29.7079C110.189 24.8516 105.722 21.3876 100.676 21.801C95.6297 22.2192 91.7903 26.3722 91.6525 31.314C91.6383 31.7797 92.0422 32.155 92.5078 32.1123L110.427 30.6392Z" fill="#8A6FE8"/>
<path d="M117.504 89.6052C119.808 89.383 121.373 86.0624 121 82.1885C120.626 78.3145 118.455 75.3542 116.151 75.5764C113.847 75.7986 112.282 79.1192 112.656 82.9932C113.03 86.8671 115.2 89.8274 117.504 89.6052Z" fill="#512BD4"/>
<path d="M116.499 79.0787C115.098 80.7275 115.297 83.2032 116.951 84.605C118.072 85.5601 119.578 85.7691 120.866 85.2845C121.042 84.3341 121.099 83.2887 120.994 82.1911C120.823 80.4329 120.282 78.8649 119.526 77.6959C118.405 77.6864 117.283 78.1569 116.499 79.0787Z" fill="#8065E0"/>
<path d="M148.401 86.6197C150.711 86.4664 152.374 83.1942 152.117 79.3109C151.859 75.4276 149.778 72.4038 147.468 72.557C145.159 72.7103 143.496 75.9825 143.753 79.8658C144.011 83.7491 146.092 86.7729 148.401 86.6197Z" fill="#512BD4"/>
<path d="M147.58 75.8709C146.179 77.5198 146.378 79.9954 148.032 81.3972C149.163 82.357 150.679 82.5661 151.976 82.0719C152.133 81.2166 152.19 80.2805 152.123 79.3064C151.995 77.401 151.429 75.7046 150.617 74.4882C149.486 74.4787 148.364 74.9491 147.58 75.8709Z" fill="#8065E0"/>
<path d="M99.569 15.7949C103.7 15.7949 107.048 12.4463 107.048 8.31565C107.048 4.18499 103.7 0.836426 99.569 0.836426C95.4383 0.836426 92.0898 4.18499 92.0898 8.31565C92.0898 12.4463 95.4383 15.7949 99.569 15.7949Z" fill="#D8CFF7"/>
<path d="M130.203 112.564C130.07 112.573 129.952 112.54 129.847 112.459C129.742 112.374 129.69 112.269 129.676 112.141C129.666 112.012 129.704 111.898 129.79 111.794C129.876 111.694 129.99 111.637 130.123 111.628C130.26 111.618 130.379 111.651 130.484 111.737C130.588 111.822 130.645 111.927 130.66 112.055C130.669 112.183 130.631 112.298 130.541 112.397C130.45 112.497 130.341 112.554 130.203 112.564Z" fill="white"/>
<path d="M135.601 112.027L134.722 112.103L132.095 108.648C132.028 108.563 131.971 108.468 131.923 108.373H131.904C131.933 108.477 131.961 108.705 131.99 109.052L132.27 112.307L131.491 112.374L131.068 107.408L132.004 107.327L134.546 110.701C134.656 110.839 134.722 110.939 134.755 110.991H134.77C134.736 110.863 134.708 110.639 134.679 110.326L134.404 107.123L135.178 107.057L135.601 112.027Z" fill="white"/>
<path d="M139.384 111.704L136.666 111.937L136.243 106.971L138.856 106.748L138.918 107.446L137.112 107.603L137.231 109.01L138.899 108.867L138.961 109.566L137.293 109.708L137.416 111.176L139.331 111.015L139.384 111.704Z" fill="white"/>
<path d="M142.886 107.104L141.493 107.223L141.859 111.49L141.056 111.557L140.69 107.289L139.303 107.408L139.241 106.71L142.824 106.401L142.886 107.104Z" fill="white"/>
<path d="M57.8297 128.967C51.8188 128.967 48.1267 127.774 45.9694 125.261C44.1067 123.094 43.6981 120.157 44.848 117.216C50.5691 102.552 57.0457 92.1268 61.2415 87.1945C62.8951 85.2511 65.7889 84.8091 67.8416 86.3202C70.1225 88.0023 70.4598 91.2287 68.6447 93.3385C65.3945 97.1209 60.006 105.669 54.9835 117.8C54.7079 118.466 55.164 119.212 55.8863 119.259C57.806 119.397 60.8709 119.364 65.6321 118.775C71.3579 118.067 76.4898 116.931 76.5421 116.921C79.1318 116.342 81.7072 117.976 82.2869 120.571C82.8666 123.165 81.232 125.736 78.6376 126.316C78.3857 126.373 72.351 127.713 65.6939 128.463C62.7098 128.796 60.1011 128.967 57.8297 128.967Z" fill="url(#paint9_linear)"/>
<path d="M88.3976 121.293L97.8963 118.171C100.424 117.32 101.779 114.583 100.933 112.06C100.082 109.532 97.3451 108.178 94.822 109.024L85.0809 112.226L88.3976 121.293Z" fill="#8A6FE8"/>
<path d="M82.553 129.371L90.9779 134.759C93.2302 136.18 96.2095 135.505 97.6303 133.248C99.051 130.996 98.3763 128.016 96.1192 126.596L87.4806 121.069L82.553 129.371Z" fill="#8A6FE8"/>
<path d="M86.3069 123.521L94.8648 128.696C97.1552 130.06 100.115 129.309 101.479 127.019C102.843 124.728 102.092 121.768 99.8019 120.404L91.0254 115.096L86.3069 123.521Z" fill="#8A6FE8"/>
<path d="M77.5542 130.511L84.7674 137.439C86.7013 139.273 89.7567 139.188 91.5908 137.254C93.425 135.32 93.3395 132.264 91.4055 130.43L84.0118 123.326L77.5542 130.511Z" fill="#8A6FE8"/>
<path d="M82.0208 131.675C87.6001 131.675 92.123 127.152 92.123 121.573C92.123 115.994 87.6001 111.471 82.0208 111.471C76.4416 111.471 71.9187 115.994 71.9187 121.573C71.9187 127.152 76.4416 131.675 82.0208 131.675Z" fill="url(#paint10_radial)"/>
<path d="M67.5898 97.3296C73.0247 97.3296 77.4306 92.9237 77.4306 87.4888C77.4306 82.0538 73.0247 77.6479 67.5898 77.6479C62.1548 77.6479 57.7489 82.0538 57.7489 87.4888C57.7489 92.9237 62.1548 97.3296 67.5898 97.3296Z" fill="url(#paint11_radial)"/>
<path d="M144.192 41.302C133.425 31.1238 118.514 25.4312 102.601 26.852C90.9255 27.8926 80.4622 32.6063 72.2417 39.7482C70.1747 41.6584 71.2819 42.1146 73.8003 41.5539C80.5145 40.0618 81.2605 39.0164 84.3919 39.7624C87.5233 40.5085 97.2976 48.4914 104.91 47.8927C112.517 47.2939 115.877 43.5638 126.92 40.7318C133.073 39.159 139.54 40.5893 144.192 41.302Z" fill="url(#paint12_radial)"/>
<path d="M81.7072 35.5811C81.7072 35.5811 95.5205 45.2889 101.617 46.5291C107.713 47.774 114.542 44.8755 124.511 37.6956C136.956 28.7386 144.791 31.4756 144.791 31.4756C144.791 31.4756 134.836 25.8781 119.284 21.7678C112.541 19.9859 81.4601 35.5811 81.7072 35.5811Z" fill="#FAF9F8"/>
<path d="M129.239 24.7517C129.239 24.7517 121.275 20.7698 104.354 28.4866C89.7614 35.139 77.2453 38.9167 72.6599 40.3517C71.6431 40.67 70.5739 40.0381 70.3601 38.9927L68.4024 29.4655C68.179 28.3868 68.754 27.2987 69.7709 26.8758C76.5516 24.0342 101.28 13.9463 112.071 13.3048C124.639 12.5588 125.509 15.6712 127.001 18.7788C128.493 21.8912 129.239 24.7517 129.239 24.7517Z" fill="#E1DFDD"/>
<path d="M172.427 224.628C175.225 224.628 177.493 222.361 177.493 219.563C177.493 216.766 175.225 214.498 172.427 214.498C169.63 214.498 167.362 216.766 167.362 219.563C167.362 222.361 169.63 224.628 172.427 224.628Z" fill="white"/>
<defs>
<linearGradient id="paint0_linear" x1="97.7539" y1="123.035" x2="94.0205" y2="163.128" gradientUnits="userSpaceOnUse">
<stop offset="0.1288" stop-color="#522CD5"/>
<stop offset="0.4397" stop-color="#8A6FE8"/>
</linearGradient>
<linearGradient id="paint1_linear" x1="99.2641" y1="159.165" x2="131.234" y2="210.054" gradientUnits="userSpaceOnUse">
<stop stop-color="#522CD5"/>
<stop offset="0.4397" stop-color="#8A6FE8"/>
</linearGradient>
<radialGradient id="paint2_radial" cx="0" cy="0" r="1" gradientUnits="userSpaceOnUse" gradientTransform="translate(125.361 186.809) scale(17.6405)">
<stop offset="0.034" stop-color="#522CD5"/>
<stop offset="0.9955" stop-color="#8A6FE8"/>
</radialGradient>
<linearGradient id="paint3_linear" x1="114.743" y1="116.949" x2="114.743" y2="173.004" gradientUnits="userSpaceOnUse">
<stop offset="0.1746" stop-color="#5732D7"/>
<stop offset="0.4397" stop-color="#8A6FE8"/>
</linearGradient>
<linearGradient id="paint4_linear" x1="98.6944" y1="163.201" x2="70.7419" y2="203.964" gradientUnits="userSpaceOnUse">
<stop stop-color="#522CD5"/>
<stop offset="0.4397" stop-color="#8A6FE8"/>
</linearGradient>
<radialGradient id="paint5_radial" cx="0" cy="0" r="1" gradientUnits="userSpaceOnUse" gradientTransform="translate(86.3534 188.64) rotate(63.4683) scale(18.2609)">
<stop offset="0.034" stop-color="#522CD5"/>
<stop offset="0.9955" stop-color="#8A6FE8"/>
</radialGradient>
<radialGradient id="paint6_radial" cx="0" cy="0" r="1" gradientUnits="userSpaceOnUse" gradientTransform="translate(184.228 105.669) rotate(-131.911) scale(12.8145)">
<stop stop-color="#8065E0"/>
<stop offset="0.8628" stop-color="#512BD4"/>
</radialGradient>
<radialGradient id="paint7_radial" cx="0" cy="0" r="1" gradientUnits="userSpaceOnUse" gradientTransform="translate(112.227 57.4289) rotate(-15.4622) scale(53.6052)">
<stop offset="0.4744" stop-color="#A08BE8"/>
<stop offset="0.8618" stop-color="#8065E0"/>
</radialGradient>
<radialGradient id="paint8_radial" cx="0" cy="0" r="1" gradientUnits="userSpaceOnUse" gradientTransform="translate(124.344 80.2886) rotate(-15.4622) scale(76.9974)">
<stop offset="0.2022" stop-color="#E1DFDD"/>
<stop offset="0.7337" stop-color="white"/>
</radialGradient>
<linearGradient id="paint9_linear" x1="63.3019" y1="85.4133" x2="63.3019" y2="128.965" gradientUnits="userSpaceOnUse">
<stop stop-color="#9780E6"/>
<stop offset="1" stop-color="#8A6FE8"/>
</linearGradient>
<radialGradient id="paint10_radial" cx="0" cy="0" r="1" gradientUnits="userSpaceOnUse" gradientTransform="translate(78.3619 122.963) rotate(-122.417) scale(14.2776)">
<stop stop-color="#8065E0"/>
<stop offset="0.8628" stop-color="#512BD4"/>
</radialGradient>
<radialGradient id="paint11_radial" cx="0" cy="0" r="1" gradientUnits="userSpaceOnUse" gradientTransform="translate(66.9152 83.4082) rotate(-15.4622) scale(14.6166)">
<stop stop-color="#8065E0"/>
<stop offset="0.8628" stop-color="#512BD4"/>
</radialGradient>
<radialGradient id="paint12_radial" cx="0" cy="0" r="1" gradientUnits="userSpaceOnUse" gradientTransform="translate(106.846 55.9655) scale(48.4057)">
<stop offset="0.3104" stop-color="#8065E0"/>
<stop offset="1" stop-color="#512BD4"/>
</radialGradient>
</defs>
</svg>
