<svg width="340" height="256" viewBox="0 0 340 256" fill="none" xmlns="http://www.w3.org/2000/svg">
<path d="M340 255.999L0 254.462C0 254.462 27.2986 239.933 54.5972 238.547C73.8814 237.565 101.751 248.163 101.751 248.163C101.751 248.163 118.708 241.628 136.084 242.781C149.29 243.659 165.039 248.315 165.039 248.315C165.039 248.315 193.579 239.084 224.6 238.315C255.62 237.546 267.204 246.241 267.204 246.241C267.204 246.241 286.645 240.859 302.36 242.397C318.075 243.934 340 255.999 340 255.999Z" fill="#FADCBD"/>
<path d="M218.76 125.781C216.904 123.156 213.325 122.582 210.774 124.49L44.3982 248.761C43.0847 249.744 43.7795 251.832 45.4214 251.832H57.9999C59.0803 251.832 60.1368 251.481 61.003 250.835L217.504 133.987C220.055 132.079 220.621 128.405 218.76 125.781Z" fill="#E0BB95"/>
<path d="M224.69 125.781C222.834 123.156 219.255 122.582 216.704 124.49L50.3284 248.761C49.0149 249.744 49.7097 251.832 51.3516 251.832H63.9301C65.0104 251.832 66.067 251.481 66.9332 250.835L223.434 133.987C225.985 132.079 226.546 128.405 224.69 125.781Z" fill="url(#paint0_radial)"/>
<path d="M176.841 250.223L205.177 43.9168L201.08 43.3567L172.667 250.223H176.841Z" fill="#E0BB95"/>
<path d="M240.238 251.837L39.8725 179.423C36.8885 178.346 33.6284 179.955 32.5814 183.016C31.5344 186.077 33.1002 189.428 36.0794 190.506L205.787 251.837H240.238Z" fill="#E0BB95"/>
<path d="M113.088 188.075L110.546 199.025C123.767 202.148 167.913 213.558 176.894 216.254C179.34 216.99 180.059 204.692 175.761 203.657C168.694 201.954 123.958 190.643 113.088 188.075Z" fill="url(#paint1_linear)"/>
<path d="M123.225 202.362L124.596 202.689L126.409 191.455L125.029 191.142L123.225 202.362Z" fill="#A08BE8"/>
<path d="M134.871 205.285L136.232 205.632L138.04 194.193L136.655 193.88L134.871 205.285Z" fill="#A08BE8"/>
<path d="M146.925 208.285L148.286 208.631L150.095 197.193L148.71 196.88L146.925 208.285Z" fill="#A08BE8"/>
<path d="M158.833 211.308L160.194 211.65L161.998 200.216L160.618 199.903L158.833 211.308Z" fill="#A08BE8"/>
<path d="M64.8965 186.514C64.8965 186.514 82.0533 193.695 97.5206 196.12C107.781 197.729 74.3149 178.445 72.021 177.819C69.7223 177.197 64.8965 186.514 64.8965 186.514Z" fill="#8065E0"/>
<path d="M79.897 155.848L83.5235 157.386C84.3516 157.737 84.9274 158.511 85.0226 159.408C85.351 162.517 86.1838 169.873 87.1119 173.813C89.501 183.975 99.8379 186.02 99.8379 186.02L97.0538 194.739C97.0538 194.739 75.0712 189.371 70.3311 185.716C70.5357 179.475 72.1348 167.609 72.92 163.537C73.7053 159.474 79.897 155.848 79.897 155.848Z" fill="#A08BE8"/>
<path d="M75.0905 186.708L80.7777 157.576C80.9442 156.717 80.3636 155.896 79.4974 155.767L70.3027 154.272C69.4746 154.149 68.6989 154.709 68.5609 155.535L63.6209 184.744C63.4781 185.588 64.0539 186.386 64.9058 186.514L73.3581 187.933C74.1624 188.056 74.9334 187.515 75.0905 186.708Z" fill="#512BD4"/>
<path d="M100.457 180.904L112.279 183.918C114.054 184.369 115.125 186.172 114.672 187.943L111.931 198.641C111.479 200.411 109.671 201.479 107.895 201.028L96.0736 198.014C94.2984 197.563 93.2276 195.76 93.6797 193.989L96.421 183.291C96.8731 181.521 98.6816 180.453 100.457 180.904Z" fill="url(#paint2_radial)"/>
<path d="M133.609 187.349L131.067 198.299C144.288 201.422 188.434 212.832 197.415 215.528C199.861 216.264 200.58 203.966 196.282 202.931C189.215 201.227 144.474 189.917 133.609 187.349Z" fill="url(#paint3_linear)"/>
<path d="M143.746 201.631L145.112 201.963L146.93 190.729L145.55 190.416L143.746 201.631Z" fill="#A08BE8"/>
<path d="M155.387 204.559L156.748 204.901L158.556 193.467L157.176 193.154L155.387 204.559Z" fill="#A08BE8"/>
<path d="M167.442 207.559L168.803 207.901L170.611 196.467L169.231 196.154L167.442 207.559Z" fill="#A08BE8"/>
<path d="M179.349 210.578L180.71 210.924L182.519 199.486L181.139 199.172L179.349 210.578Z" fill="#A08BE8"/>
<path d="M85.4175 185.783C85.4175 185.783 102.574 192.964 118.042 195.39C128.302 196.999 94.8359 177.714 92.542 177.088C90.2433 176.466 85.4175 185.783 85.4175 185.783Z" fill="#8065E0"/>
<path d="M100.418 155.122L104.045 156.66C104.873 157.011 105.449 157.785 105.544 158.682C105.872 161.791 106.705 169.147 107.633 173.087C110.022 183.249 120.359 185.294 120.359 185.294L117.575 194.013C117.575 194.013 95.5927 188.645 90.8525 184.99C91.0572 178.749 92.6563 166.883 93.4415 162.811C94.222 158.743 100.418 155.122 100.418 155.122Z" fill="#A08BE8"/>
<path d="M95.607 185.982L101.294 156.85C101.461 155.991 100.88 155.17 100.014 155.041L90.8193 153.546C89.9912 153.423 89.2155 153.983 89.0775 154.809L84.1375 184.017C83.9947 184.862 84.5705 185.66 85.4224 185.788L93.8747 187.207C94.6838 187.33 95.45 186.789 95.607 185.982Z" fill="#512BD4"/>
<path d="M120.973 180.178L132.795 183.192C134.57 183.642 135.641 185.446 135.189 187.216L132.448 197.914C131.996 199.685 130.187 200.753 128.412 200.302L116.59 197.288C114.815 196.837 113.744 195.033 114.196 193.263L116.938 182.565C117.394 180.79 119.198 179.722 120.973 180.178Z" fill="url(#paint4_radial)"/>
<path d="M270.997 121.466H223.315C222.22 121.466 221.221 122.079 220.721 123.052C216.043 132.193 189.772 179.157 125.552 218.618C143.851 235.225 173.296 226.639 185.76 220.801C236.35 197.112 266.295 138.923 273.024 124.661C273.729 123.175 272.643 121.466 270.997 121.466Z" fill="#EE8F94"/>
<path d="M132.357 221.352C203.845 177.425 232.866 121.466 232.866 121.466H223.243C222.192 121.466 221.235 122.05 220.759 122.985C216.176 131.96 189.929 179.062 125.552 218.618C130.102 222.747 135.337 225.315 140.829 226.762C137.769 225.438 134.913 223.668 132.357 221.352Z" fill="#E3646A"/>
<path d="M144.95 225.106C212.416 202.191 252.631 121.466 252.631 121.466H241.266C241.266 121.466 210.736 178.986 139.253 222.909C143.798 227.038 143.48 225.201 144.95 225.106Z" fill="#E3646A"/>
<path d="M170.321 226.207C231.824 209.059 266.856 138.04 273.291 123.915C273.814 122.767 272.967 121.466 271.706 121.466H262.516C262.516 121.466 210.032 219.425 145.141 227.493C149.686 231.618 169.298 226.848 170.321 226.207Z" fill="#E3646A"/>
<path d="M142.28 157.704L149.362 151.425C143.536 144.889 141.309 138.406 143.099 133.171C145.221 126.958 152.931 122.297 164.81 120.047L163.044 110.763C143.337 114.494 136.441 123.351 134.128 130.123C131.191 138.719 134.085 148.515 142.28 157.704Z" fill="url(#paint5_linear)"/>
<path d="M142.509 138.7L133.411 140.86L133.665 141.922L142.762 139.762L142.509 138.7Z" fill="#A08BE8"/>
<path d="M168.827 131.685L160.137 121.31C158.68 119.568 158.914 116.981 160.655 115.529L160.898 115.329C162.645 113.877 165.238 114.11 166.695 115.847L175.385 126.222C176.841 127.964 176.608 130.551 174.866 132.003L174.624 132.202C172.877 133.655 170.283 133.422 168.827 131.685Z" fill="#D0C5F3"/>
<path d="M165.733 106.022L173.848 102.362C176.018 101.404 178.555 102.377 179.516 104.541C180.477 106.705 179.502 109.235 177.331 110.194L169.012 113.943L165.733 106.022Z" fill="#D0C5F3"/>
<path d="M170.121 107.987L182.4 108.015C184.77 108.03 186.683 109.961 186.669 112.325C186.654 114.693 184.717 116.597 182.347 116.582L173.219 116.592L170.121 107.987Z" fill="#D0C5F3"/>
<path d="M168.803 113.056L180.768 115.866C183.076 116.402 184.513 118.709 183.975 121.011C183.437 123.313 181.125 124.746 178.816 124.21L166.633 121.352L168.803 113.056Z" fill="#D0C5F3"/>
<path d="M166.495 123.616C171.463 123.616 175.49 119.6 175.49 114.646C175.49 109.692 171.463 105.675 166.495 105.675C161.527 105.675 157.5 109.692 157.5 114.646C157.5 119.6 161.527 123.616 166.495 123.616Z" fill="url(#paint6_radial)"/>
<path d="M137.802 123.498C141.618 127.39 144.407 130.37 144.407 130.37L143.879 131.286L134.166 130.024C134.875 127.974 136.012 125.729 137.802 123.498Z" fill="#A08BE8"/>
<path d="M147.468 115.923L146.506 116.444L150.968 124.641L151.93 124.12L147.468 115.923Z" fill="#A08BE8"/>
<path d="M142.204 156.309C144.722 144.087 150.814 136.341 150.814 136.341L148.258 135.088L148.22 135.007C161.693 116.929 186.584 110.441 207.567 120.745C231.21 132.354 240.938 160.879 229.302 184.459C217.666 208.038 189.058 217.74 165.415 206.135C146.759 196.975 136.769 177.282 139.101 157.799C139.282 157.002 139.92 155.744 142.204 156.309Z" fill="url(#paint7_radial)"/>
<path d="M139.03 158.368C139.03 158.368 138.968 155.511 142.199 156.309C144.688 144.239 150.656 136.536 150.804 136.346L182.376 151.771C182.376 151.771 185.313 152.863 184.056 155.412C182.8 157.96 179.135 165.113 175.204 173.077C174.395 174.715 172.658 174.843 171.601 174.325L138.834 158.311C138.958 158.349 139.03 158.368 139.03 158.368Z" fill="url(#paint8_radial)"/>
<path d="M154.973 162.469C154.973 162.469 152.37 157.002 151.841 155.972C151.318 154.942 150.604 154.548 149.514 154.828C148.424 155.113 142.504 156.347 142.504 156.347L154.973 162.469Z" fill="#A08BE8"/>
<path d="M139.03 158.369C139.03 158.369 138.968 155.511 142.199 156.309C142.204 156.294 142.204 156.285 142.209 156.271L173.077 171.392C174.095 171.891 175.699 171.929 176.299 171.003C175.951 171.706 175.599 172.418 175.242 173.139C174.509 174.625 173.015 174.867 171.954 174.511C171.849 174.473 138.839 158.312 138.839 158.312C138.958 158.35 139.03 158.369 139.03 158.369Z" fill="url(#paint9_radial)"/>
<path d="M138.906 166.931L212.725 203.178C209.684 205.172 206.429 206.804 203.036 208.057L140.938 177.567C139.862 174.122 139.177 170.552 138.906 166.931Z" fill="url(#paint10_radial)"/>
<path d="M138.772 163.737C138.815 169.47 139.896 175.123 141.923 180.424L142.98 180.942L148.995 168.753L138.772 163.737Z" fill="#512BD4"/>
<path d="M204.211 115.927L212.392 120.171L215.605 111.195L209.732 108.148L204.211 115.927Z" fill="#D0C5F3"/>
<path d="M215.791 112.315C220.627 112.315 224.547 108.405 224.547 103.582C224.547 98.7591 220.627 94.8491 215.791 94.8491C210.954 94.8491 207.034 98.7591 207.034 103.582C207.034 108.405 210.954 112.315 215.791 112.315Z" fill="url(#paint11_radial)"/>
<path d="M198.41 119.425C198.039 119.235 197.91 118.761 198.143 118.419C200.594 114.769 205.458 113.469 209.456 115.538C213.454 117.612 215.177 122.33 213.587 126.426C213.439 126.815 212.978 126.977 212.607 126.787L198.41 119.425Z" fill="url(#paint12_radial)"/>
<path d="M158.856 151.999L170.026 157.538C168.889 158.986 165.976 159.228 163.101 158.003C159.913 156.65 157.981 154.016 158.79 152.127C158.809 152.08 158.837 152.042 158.856 151.999Z" fill="#8065E0"/>
<path d="M196.087 122.61C195.73 123.408 194.864 123.896 193.96 123.749C182.086 121.789 170.021 125.377 161.16 133.09C158.766 135.174 155.901 132.435 158.518 130.157C168.265 121.656 181.543 117.698 194.612 119.857C195.688 120.038 196.421 121.053 196.24 122.126C196.202 122.292 196.154 122.458 196.087 122.61Z" fill="url(#paint13_radial)"/>
<path d="M224.78 177.653C224.043 177.178 223.686 176.253 223.971 175.384C228.707 160.894 224.614 144.747 213.549 134.248C212.759 133.498 212.725 132.25 213.477 131.457C214.229 130.669 215.481 130.636 216.276 131.386C228.44 142.924 232.938 160.675 227.731 176.604C227.393 177.638 226.275 178.208 225.237 177.866C225.075 177.814 224.918 177.743 224.78 177.653Z" fill="url(#paint14_radial)"/>
<path d="M145.293 146.218C144.869 147.3 144.474 148.406 144.117 149.46C146.483 150.01 148.624 149.574 149.471 148.292L145.293 146.218Z" fill="#8065E0"/>
<path d="M43.7701 190.24C58.8519 203.833 98.3864 233.303 153.207 228.229C117.466 214.46 100.871 184.962 100.871 184.962L46.1973 183.837C42.8801 183.771 41.2763 187.99 43.7701 190.24Z" fill="#E3646A"/>
<path d="M43.7701 190.24C58.8519 203.833 98.3864 233.303 153.207 228.229C117.466 214.46 100.871 184.962 100.871 184.962L46.1973 183.837C42.8801 183.771 41.2763 187.99 43.7701 190.24Z" fill="#E3646A"/>
<path d="M146.354 226.644C144.265 226.245 104.44 216.881 78.4073 190.919C76.042 188.56 76.9415 185.157 79.2449 184.521L68.5654 184.302C66.676 185.147 65.3006 188.299 67.6468 190.553C72.6583 195.366 94.6171 221.708 146.487 227.541C146.968 227.593 148.562 227.066 146.354 226.644Z" fill="#CE4D5A"/>
<path d="M143.732 224.014C114.524 209.23 100.875 184.962 100.875 184.962L93.0701 184.801C90.9047 185.161 88.9582 188.745 91.552 191.237C96.5396 196.03 120.435 218.257 141.395 224.304C141.718 224.399 142.242 224.067 143.732 224.014Z" fill="#CE4D5A"/>
<path d="M143.665 227.123C97.3395 227.488 59.0139 194.478 54.8068 190.581C52.8745 188.792 52.7365 184.739 56.9103 184.017L46.2022 183.837C42.885 183.771 41.2812 187.99 43.775 190.24C58.8568 203.833 98.3912 233.303 153.212 228.229C152.294 227.878 151.394 227.507 150.499 227.137C148.429 227.109 146.164 227.104 143.665 227.123Z" fill="#CE4D5A"/>
<path d="M295.992 251.875C297.443 251.875 297.796 249.863 296.434 249.369L102.769 179.423C99.7854 178.346 96.5254 179.955 95.4784 183.016C94.4314 186.077 95.9971 189.428 98.9764 190.506L268.903 251.88H295.992V251.875Z" fill="#E0BB95"/>
<path d="M155.677 202.941L155.315 194.345C164.858 193.577 172.625 190.862 178.402 186.277C183.485 182.242 187.173 176.651 189.363 169.665L198.091 171.767C194.027 184.753 183.366 200.71 155.677 202.941Z" fill="url(#paint15_linear)"/>
<path d="M150.39 197.022L143.513 192.494C141.69 191.275 141.323 188.845 142.694 187.06C144.065 185.275 146.654 184.82 148.476 186.039L155.53 190.681L150.39 197.022Z" fill="#D0C5F3"/>
<path d="M152.964 204.612L144.665 206.966C142.451 207.578 140.21 206.396 139.663 204.322C139.115 202.253 140.467 200.074 142.685 199.462L151.194 197.051L152.964 204.612Z" fill="#D0C5F3"/>
<path d="M151.489 199.22L143.141 201.375C140.914 201.935 138.711 200.696 138.22 198.612C137.73 196.524 139.139 194.383 141.366 193.823L149.928 191.616L151.489 199.22Z" fill="#D0C5F3"/>
<path d="M156.714 206.596L148.985 210.416C146.92 211.423 144.46 210.687 143.493 208.774C142.527 206.861 143.413 204.498 145.483 203.492L153.407 199.576L156.714 206.596Z" fill="#D0C5F3"/>
<path d="M159.152 191.075C154.825 189.352 149.676 191.341 147.658 195.518C145.64 199.694 147.511 204.483 151.837 206.206C156.163 207.929 161.312 205.941 163.33 201.764C165.353 197.587 163.482 192.803 159.152 191.075Z" fill="url(#paint16_radial)"/>
<path d="M177.346 187.098L176.518 187.743L182.043 194.217L182.871 193.572L177.346 187.098Z" fill="#A08BE8"/>
<path d="M170.021 191.113L169.026 191.474L171.91 199.405L172.905 199.044L170.021 191.113Z" fill="#A08BE8"/>
<path d="M194.155 179.266C198.994 179.266 202.917 175.354 202.917 170.528C202.917 165.703 198.994 161.791 194.155 161.791C189.316 161.791 185.394 165.703 185.394 170.528C185.394 175.354 189.316 179.266 194.155 179.266Z" fill="url(#paint17_radial)"/>
<path d="M206.02 254.001H272.03C273.848 254.001 275.323 252.53 275.323 250.717V219.059C275.323 217.246 273.848 215.775 272.03 215.775H206.02C204.202 215.775 202.727 217.246 202.727 219.059V250.717C202.727 252.535 204.202 254.001 206.02 254.001Z" fill="#72ACF1"/>
<path d="M245.935 254.001H272.03C273.848 254.001 275.323 252.53 275.323 250.717V219.059C275.323 217.246 273.848 215.775 272.03 215.775H245.935C244.117 215.775 242.642 217.246 242.642 219.059V250.717C242.642 252.535 244.117 254.001 245.935 254.001Z" fill="#2B88D8"/>
<path d="M201.561 221.413V217.289C201.561 214.859 203.474 212.894 205.83 212.894H272.367C274.723 212.894 276.636 214.864 276.636 217.289V221.413H201.561Z" fill="#E1DFDD"/>
<path d="M242.751 221.413V217.289C242.751 214.859 244.664 212.894 247.02 212.894H272.367C274.723 212.894 276.636 214.864 276.636 217.289V221.413H242.751Z" fill="#C8C6C4"/>
<path d="M216.785 224.987H225.413C226.237 224.987 226.903 224.323 226.903 223.502V221.015C226.903 220.194 226.237 219.529 225.413 219.529H216.785C215.962 219.529 215.295 220.194 215.295 221.015V223.502C215.295 224.318 215.962 224.987 216.785 224.987Z" fill="white"/>
<path d="M90.5811 28.7096L92.637 39.3033C92.8892 40.6133 93.9553 41.6148 95.2831 41.7951L143.051 48.2216C144.322 48.3925 145.564 47.7375 146.14 46.5936L151.798 35.9952L154.606 46.8547C154.892 48.3213 156.101 49.4366 157.59 49.6075L244.083 60.2202C245.307 60.3721 246.492 59.7598 247.077 58.6824L252.307 49.0569L255.144 59.119C255.515 60.4385 256.638 61.4115 257.999 61.5871L306.776 67.1925C308.28 67.3633 309.741 66.6277 310.493 65.3224L315.181 57.1683C315.181 57.1683 277.126 27.879 203.088 22.5205C129.049 17.1619 90.5811 28.7096 90.5811 28.7096Z" fill="#FAE969"/>
<path d="M90.5811 28.7096L92.637 39.3033C92.8892 40.6133 93.9553 41.6148 95.2831 41.7951L143.051 48.2216C144.322 48.3925 145.564 47.7375 146.14 46.5936L151.798 35.9952L154.606 46.8547C154.892 48.3213 156.101 49.4366 157.59 49.6075L244.083 60.2202C245.307 60.3721 246.492 59.7598 247.077 58.6824L252.307 49.0569L255.144 59.119C255.515 60.4385 256.638 61.4115 257.999 61.5871L306.776 67.1925C308.28 67.3633 309.741 66.6277 310.493 65.3224L315.181 57.1683C315.181 57.1683 277.126 27.879 203.088 22.5205C129.049 17.1619 90.5811 28.7096 90.5811 28.7096Z" fill="#E8D441"/>
<path d="M152.732 21.2674L151.927 36.4887L154.607 46.8594C154.892 48.326 156.101 49.4413 157.591 49.6122L244.084 60.2249C245.302 60.3768 246.492 59.7645 247.077 58.6871L252.308 49.0616L252.332 49.1471L252.86 36.2704L156.491 21.1772C155.221 21.2057 153.969 21.2342 152.732 21.2674Z" fill="#DBC337"/>
<path d="M90.5811 28.7098L315.181 57.1732C315.181 57.1732 285.317 13.2084 216.737 2.31099C141.457 -9.64963 90.5811 28.7098 90.5811 28.7098Z" fill="#FAE969"/>
<path d="M252.312 49.0619C252.536 26.9869 237.326 10.7357 231.438 5.27269C226.751 4.12409 221.853 3.12262 216.742 2.31101C206.343 0.659305 196.416 -0.0289055 187.016 0.00431843C176.989 3.39316 160.275 12.4586 151.389 36.2754C151.389 36.2754 151.394 36.3276 151.403 36.4178L252.312 49.2042C252.307 49.1568 252.307 49.1093 252.312 49.0619Z" fill="#E8D441"/>
<path d="M281.657 125.781C279.801 123.156 276.222 122.582 273.671 124.49L106.686 249.245C105.549 250.095 106.149 251.903 107.576 251.903H121.069C122.225 251.903 123.353 251.528 124.281 250.835L280.406 133.982C282.952 132.079 283.518 128.405 281.657 125.781Z" fill="#E0BB95"/>
<path d="M287.587 125.781C285.731 123.156 282.152 122.582 279.601 124.49L112.616 249.245C111.479 250.095 112.078 251.903 113.506 251.903H126.998C128.155 251.903 129.283 251.528 130.211 250.835L286.335 133.982C288.881 132.079 289.443 128.405 287.587 125.781Z" fill="url(#paint18_radial)"/>
<path d="M218.646 189.243C222.581 189.243 225.77 186.062 225.77 182.138C225.77 178.214 222.581 175.033 218.646 175.033C214.711 175.033 211.521 178.214 211.521 182.138C211.521 186.062 214.711 189.243 218.646 189.243Z" fill="#77D672"/>
<path d="M218.646 187.349C221.532 187.349 223.872 185.016 223.872 182.138C223.872 179.26 221.532 176.927 218.646 176.927C215.76 176.927 213.42 179.26 213.42 182.138C213.42 185.016 215.76 187.349 218.646 187.349Z" fill="#4E9668"/>
<path d="M213.292 179.551L219.265 182.527L214.487 177.852L213.292 179.551Z" fill="#77D672"/>
<path d="M213.339 184.316L218.898 182.802L214.567 186.044L213.339 184.316Z" fill="#77D672"/>
<path d="M218.979 176.148L219.222 182.162L221.011 176.386L218.979 176.148Z" fill="#77D672"/>
<path d="M225.057 180.51C225.057 180.51 219.265 182.437 219.265 182.527C219.265 182.617 225.195 182.437 225.195 182.437L225.057 180.51Z" fill="#77D672"/>
<path d="M233.98 183.899C233.961 183.899 233.937 183.899 233.918 183.899C233.104 183.866 232.476 183.182 232.509 182.37L233.385 161.62C233.409 161.088 233.718 160.609 234.199 160.367L244.274 155.34C245.002 154.98 245.882 155.274 246.249 155.995C246.611 156.722 246.315 157.6 245.592 157.965L236.293 162.602L235.455 182.489C235.417 183.282 234.765 183.899 233.98 183.899Z" fill="white"/>
<path d="M235.365 212.718H221.363L218.056 181.701H238.668L235.365 212.718Z" fill="#FAF9F8"/>
<path d="M230.044 181.701V212.718H235.365L238.668 181.701H230.044Z" fill="#C7E0F4"/>
<path d="M218.593 186.723L221.363 212.718H235.365L238.134 186.723H218.593Z" fill="#FAE969"/>
<path d="M230.035 186.723V212.718H235.365L238.135 186.723H230.035Z" fill="#E8D441"/>
<defs>
<radialGradient id="paint0_radial" cx="0" cy="0" r="1" gradientUnits="userSpaceOnUse" gradientTransform="translate(119.056 248.348) scale(77.1528 76.9438)">
<stop offset="0.3257" stop-color="#BF8F68"/>
<stop offset="0.7716" stop-color="#E0BB95"/>
</radialGradient>
<linearGradient id="paint1_linear" x1="177.921" y1="216.039" x2="113.222" y2="187.996" gradientUnits="userSpaceOnUse">
<stop offset="0.2368" stop-color="#958FE7"/>
<stop offset="0.3961" stop-color="#BBB7EF"/>
</linearGradient>
<radialGradient id="paint2_radial" cx="0" cy="0" r="1" gradientUnits="userSpaceOnUse" gradientTransform="translate(104.224 186.957) rotate(164.344) scale(16.5775 16.8242)">
<stop stop-color="#8065E0"/>
<stop offset="0.8628" stop-color="#512BD4"/>
</radialGradient>
<linearGradient id="paint3_linear" x1="198.439" y1="215.31" x2="133.74" y2="187.267" gradientUnits="userSpaceOnUse">
<stop offset="0.2368" stop-color="#958FE7"/>
<stop offset="0.3961" stop-color="#BBB7EF"/>
</linearGradient>
<radialGradient id="paint4_radial" cx="0" cy="0" r="1" gradientUnits="userSpaceOnUse" gradientTransform="translate(124.743 186.23) rotate(164.344) scale(16.5775 16.8242)">
<stop stop-color="#8065E0"/>
<stop offset="0.8628" stop-color="#512BD4"/>
</radialGradient>
<linearGradient id="paint5_linear" x1="148.91" y1="157.704" x2="148.91" y2="110.765" gradientUnits="userSpaceOnUse">
<stop offset="0.00837769" stop-color="#958FE7"/>
<stop offset="0.3141" stop-color="#BBB7EF"/>
</linearGradient>
<radialGradient id="paint6_radial" cx="0" cy="0" r="1" gradientUnits="userSpaceOnUse" gradientTransform="translate(166.496 110.208) rotate(180) scale(11.8602 11.8281)">
<stop stop-color="#A08BE8"/>
<stop offset="1" stop-color="#8065E0"/>
</radialGradient>
<radialGradient id="paint7_radial" cx="0" cy="0" r="1" gradientUnits="userSpaceOnUse" gradientTransform="translate(183.09 143.483) rotate(180) scale(47.7269 47.5976)">
<stop offset="0.4744" stop-color="#A08BE8"/>
<stop offset="0.8618" stop-color="#8065E0"/>
</radialGradient>
<radialGradient id="paint8_radial" cx="0" cy="0" r="1" gradientUnits="userSpaceOnUse" gradientTransform="translate(161.606 155.471) scale(21.0491 20.9921)">
<stop offset="0.1644" stop-color="#E1DFDD"/>
<stop offset="0.3262" stop-color="#E6E5E3"/>
<stop offset="0.9998" stop-color="#FAF9F8"/>
<stop offset="1" stop-color="#F7F6F5"/>
</radialGradient>
<radialGradient id="paint9_radial" cx="0" cy="0" r="1" gradientUnits="userSpaceOnUse" gradientTransform="translate(167.921 166.604) rotate(180) scale(24.1446 24.0793)">
<stop stop-color="#512BD4"/>
<stop offset="0.7715" stop-color="#6645D9"/>
<stop offset="0.8738" stop-color="#7659DD"/>
<stop offset="0.9583" stop-color="#8065E0"/>
</radialGradient>
<radialGradient id="paint10_radial" cx="0" cy="0" r="1" gradientUnits="userSpaceOnUse" gradientTransform="translate(200.688 197.054) rotate(180) scale(29.8956 29.8146)">
<stop offset="0.4614" stop-color="#A08BE8"/>
<stop offset="0.5268" stop-color="#A793EA"/>
<stop offset="0.8352" stop-color="#C5B7F0"/>
<stop offset="1" stop-color="#D0C5F3"/>
</radialGradient>
<radialGradient id="paint11_radial" cx="0" cy="0" r="1" gradientUnits="userSpaceOnUse" gradientTransform="translate(215.84 100.032) rotate(180) scale(11.8906 11.8584)">
<stop stop-color="#A08BE8"/>
<stop offset="1" stop-color="#8065E0"/>
</radialGradient>
<radialGradient id="paint12_radial" cx="0" cy="0" r="1" gradientUnits="userSpaceOnUse" gradientTransform="translate(206.483 118.451) rotate(180) scale(8.12696 8.10494)">
<stop stop-color="#8065E0"/>
<stop offset="0.8628" stop-color="#512BD4"/>
</radialGradient>
<radialGradient id="paint13_radial" cx="0" cy="0" r="1" gradientUnits="userSpaceOnUse" gradientTransform="translate(176.893 126.88) rotate(-65.8247) scale(14.744 14.7707)">
<stop offset="0.3607" stop-color="#BDB9F0"/>
<stop offset="0.5611" stop-color="#C3BCEB" stop-opacity="0.3855"/>
<stop offset="0.6338" stop-color="#CEC3E2" stop-opacity="0.3217"/>
<stop offset="0.8689" stop-color="#EDD6C9" stop-opacity="0.1152"/>
<stop offset="1" stop-color="#F9DDBF" stop-opacity="0"/>
</radialGradient>
<radialGradient id="paint14_radial" cx="0" cy="0" r="1" gradientUnits="userSpaceOnUse" gradientTransform="translate(220.402 154.505) rotate(32.6897) scale(17.7499 17.7299)">
<stop stop-color="#BDB9F0"/>
<stop offset="0.5266" stop-color="#C3BCEB" stop-opacity="0.3855"/>
<stop offset="0.605" stop-color="#CEC3E2" stop-opacity="0.3217"/>
<stop offset="0.8586" stop-color="#EDD6C9" stop-opacity="0.1152"/>
<stop offset="1" stop-color="#F9DDBF" stop-opacity="0"/>
</radialGradient>
<linearGradient id="paint15_linear" x1="200.185" y1="177.313" x2="152.751" y2="195.113" gradientUnits="userSpaceOnUse">
<stop offset="0.2239" stop-color="#958FE7"/>
<stop offset="0.4264" stop-color="#BBB7EF"/>
</linearGradient>
<radialGradient id="paint16_radial" cx="0" cy="0" r="1" gradientUnits="userSpaceOnUse" gradientTransform="translate(154.216 194.014) rotate(-20.4654) scale(14.6909 13.6826)">
<stop stop-color="#A08BE8"/>
<stop offset="1" stop-color="#8065E0"/>
</radialGradient>
<radialGradient id="paint17_radial" cx="0" cy="0" r="1" gradientUnits="userSpaceOnUse" gradientTransform="translate(193.871 167.068) rotate(180) scale(10.0554 10.0282)">
<stop stop-color="#8065E0"/>
<stop offset="0.8628" stop-color="#512BD4"/>
</radialGradient>
<radialGradient id="paint18_radial" cx="0" cy="0" r="1" gradientUnits="userSpaceOnUse" gradientTransform="translate(193.159 229.978) scale(77.3162 77.1067)">
<stop offset="0.3257" stop-color="#BF8F68"/>
<stop offset="0.7716" stop-color="#E0BB95"/>
</radialGradient>
</defs>
</svg>
